<svg width="172" height="172" viewBox="0 0 172 172" fill="none" xmlns="http://www.w3.org/2000/svg">
<path d="M103.359 100.447L56.4294 14.2246C55.1138 11.8422 51.6693 11.9595 50.5212 14.4208L18.1345 84.7939C17.5365 86.0999 17.5843 87.6068 18.254 88.8745L32.4621 115.528L103.359 100.447Z" fill="#F0F4FF"/>
<path d="M32.1437 116.219L17.7203 89.1611C16.9644 87.7308 16.9118 86.0062 17.5839 84.5399L49.9708 14.1668C50.5999 12.8178 51.9106 11.9495 53.3912 11.8993C54.8503 11.849 56.2424 12.6289 56.9623 13.9325L104.282 100.872L32.1437 116.219ZM53.5299 13.112C53.4964 13.112 53.4653 13.112 53.4318 13.112C52.3937 13.1479 51.5112 13.7315 51.0735 14.6763L18.6866 85.0446C18.1723 86.1688 18.213 87.4916 18.7919 88.5871L32.7848 114.836L102.438 100.018L55.8979 14.5113C55.41 13.6287 54.5298 13.1072 53.5324 13.1072L53.5299 13.112Z" fill="#0B4D5E"/>
<path d="M95.2735 85.5628L56.3328 14.0824C55.6152 12.7716 53.7017 12.8338 53.0798 14.1876L20.0951 85.3548C19.9755 85.6203 20.1668 85.9216 20.4777 85.9192L95.2735 85.5628Z" fill="#8AE5CC"/>
<path d="M20.4749 86.527C20.1233 86.527 19.8026 86.3548 19.6137 86.0654C19.4271 85.7759 19.4008 85.4172 19.5443 85.1039L52.5315 13.9342C52.9142 13.1018 53.7252 12.5636 54.6461 12.5325C55.6172 12.5182 56.4232 12.9822 56.8681 13.793L96.2967 86.1681L20.4844 86.5293H20.4772L20.4749 86.527ZM54.7321 13.7428C54.7177 13.7428 54.7011 13.7428 54.6843 13.7428C54.2203 13.7596 53.8256 14.0203 53.6319 14.4412L20.7859 85.3119L94.254 84.9627L55.8013 14.3744C55.5836 13.9773 55.1866 13.7428 54.7345 13.7428H54.7321Z" fill="#0B4D5E"/>
<path d="M77.7645 85.7144L90.37 58.2982C90.8723 57.1931 90.8245 55.9134 90.2265 54.8538L65.159 10.4475C64.5131 9.28028 62.815 9.33529 62.2648 10.5408L27.1273 85.4083C27.0316 85.6451 27.199 85.913 27.4621 85.913L77.7645 85.7144Z" fill="#0B4D5E"/>
<path d="M27.4649 86.5235C27.1396 86.5235 26.8381 86.3656 26.6587 86.0977C26.477 85.8275 26.4411 85.4854 26.5631 85.184L61.7149 10.2878C62.0594 9.5319 62.7961 9.0368 63.6381 9.00331C64.5064 8.96026 65.2789 9.41241 65.688 10.1587L90.753 54.5601C91.4419 55.78 91.5041 57.2725 90.9228 58.5546L78.1523 86.3274L27.4649 86.5259V86.5235ZM63.7337 10.2137H63.6883C63.3032 10.2281 62.978 10.4457 62.8201 10.7949L27.8476 85.306L77.3749 85.1098L89.8201 58.0451C90.2411 57.117 90.1957 56.0359 89.6958 55.1533L64.6307 10.7495C64.4417 10.4099 64.1116 10.2137 63.7337 10.2137Z" fill="#0B4D5E"/>
<path d="M78.9611 85.7237L91.5904 58.3074C92.0927 57.2024 92.0449 55.9227 91.4469 54.8631L66.3555 10.4568C65.7336 9.28955 64.0354 9.34457 63.4614 10.5501L28.3477 85.4176C28.2281 85.6544 28.4194 85.9223 28.6586 85.9223L78.9611 85.7237Z" fill="#8AE5CC"/>
<path d="M28.661 86.5302C28.3309 86.5302 28.0175 86.3532 27.8453 86.0686C27.6707 85.7839 27.654 85.4395 27.8023 85.1453L62.911 10.2921C63.277 9.51716 64.0377 9.0269 64.8892 9.00537C65.8005 9.01255 66.4989 9.43113 66.8912 10.1702L91.973 54.5645C92.6619 55.782 92.7217 57.2745 92.1405 58.559L79.346 86.3293L28.6585 86.5279L28.661 86.5302ZM28.9001 85.6668L28.8953 85.6763C28.8953 85.6763 28.9001 85.6692 28.9001 85.6668ZM64.9442 10.2228H64.9178C64.5207 10.2324 64.1788 10.4524 64.009 10.8136L29.0652 85.3176L78.5686 85.1214L91.0378 58.0566C91.4588 57.1286 91.4134 56.0474 90.9183 55.1672L65.8267 10.7609C65.645 10.4189 65.3174 10.2228 64.9442 10.2228Z" fill="#0B4D5E"/>
<path d="M76.1614 41.0049L71.545 51.3427C71.3058 51.8833 70.5642 51.9193 70.2772 51.4026L65.3019 42.5501C64.9432 41.9234 64.9193 41.1627 65.2303 40.5097L69.8946 30.4684C70.1338 29.9374 70.8991 29.9063 71.1862 30.4158L76.0656 38.9836C76.4244 39.6031 76.4484 40.3519 76.1614 41.0049Z" fill="#0B4D5E"/>
<path d="M70.8968 52.3781C70.4184 52.3781 69.9832 52.1222 69.7487 51.6988L64.7735 42.8486C64.3238 42.0593 64.288 41.0858 64.6827 40.251L69.3445 30.2145C69.5478 29.7648 69.9927 29.4681 70.4974 29.4466C70.9614 29.437 71.4709 29.6835 71.7173 30.1212L76.5945 38.6867C77.0417 39.4521 77.0872 40.4136 76.7188 41.2507L72.1024 51.5935C71.9015 52.0528 71.4613 52.3542 70.959 52.3781C70.9375 52.3781 70.9161 52.3781 70.8993 52.3781H70.8968ZM70.6577 30.7167L70.4448 30.7238L65.7805 40.7652C65.5533 41.2459 65.5724 41.7985 65.8308 42.2482L70.8084 51.1055L70.9926 51.096L75.6067 40.7605C75.8196 40.2749 75.7955 39.7247 75.542 39.2893L70.6577 30.7167Z" fill="#0B4D5E"/>
<path d="M91.0163 77.9811L61.9065 142.257L33.7535 84.3795C33.2751 83.418 33.275 82.301 33.7295 81.3322L57.9837 28.8245C58.8688 26.9133 61.5477 26.7937 62.6002 28.6187L91.0163 77.9811Z" fill="#F0F4FF"/>
<path d="M61.9254 143.688L33.2079 84.6457C32.653 83.5287 32.641 82.2274 33.1768 81.0769L57.4334 28.5716C57.9381 27.4785 59.0002 26.7681 60.2033 26.7155C61.4519 26.6509 62.5282 27.2776 63.1262 28.3157L91.6979 77.9483L61.9254 143.688ZM60.3515 27.9258C60.318 27.9258 60.2894 27.9258 60.2559 27.9258C59.4976 27.9593 58.8519 28.3898 58.5337 29.0787L34.277 81.5864C33.8967 82.4021 33.9039 83.3205 34.2962 84.1074L61.8848 140.825L90.332 78.0105L62.0738 28.9184C61.7126 28.2893 61.0715 27.9209 60.3515 27.9209V27.9258Z" fill="#0B4D5E"/>
<path d="M90.2497 82.2711L62.5034 143.536L35.666 88.3682C35.2115 87.4545 35.2114 86.3877 35.6181 85.4644L60.7812 31.0742L90.2497 82.2711Z" fill="#0B4D5E"/>
<path d="M62.5226 144.967L35.1206 88.6367C34.5944 87.5795 34.5728 86.3332 35.0656 85.221L60.7263 29.7568L90.9364 82.2407L62.5226 144.967ZM60.8411 32.3952L36.1731 85.721C35.831 86.4912 35.8429 87.3617 36.2137 88.0985L62.4867 142.108L89.5705 82.3052L60.8411 32.3952Z" fill="#0B4D5E"/>
<path d="M152.704 108.911L68.2923 143.938C65.6851 145.012 62.6952 143.883 61.4753 141.362L33.394 83.645C34.1595 85.2237 36.0251 85.9316 37.6516 85.2595L123.69 49.7656C126.321 48.6797 129.334 49.8588 130.53 52.435L154.521 104.259C155.359 106.043 154.522 108.155 152.704 108.911Z" fill="#F0F4FF"/>
<path d="M66.2543 144.949C64.0465 144.949 61.9392 143.715 60.9275 141.624L32.851 83.9189C32.851 83.9189 32.851 83.9118 32.8462 83.9095L33.9392 83.3783V83.3855C34.5731 84.67 36.104 85.2441 37.4195 84.6964L123.457 49.2025C126.39 47.9946 129.746 49.2957 131.083 52.1779L155.072 104.004C155.543 105.006 155.583 106.133 155.181 107.171C154.775 108.221 153.978 109.037 152.938 109.47L68.5266 144.497C67.7827 144.803 67.0148 144.947 66.2566 144.947L66.2543 144.949ZM35.1807 85.9306L62.023 141.093C63.1017 143.325 65.7472 144.327 68.0602 143.375L152.469 108.348C153.203 108.044 153.763 107.47 154.048 106.731C154.328 106.004 154.299 105.217 153.971 104.513L129.98 52.6875C128.918 50.3984 126.256 49.3556 123.921 50.3243L37.8835 85.8182C36.9961 86.1841 36.0418 86.2032 35.1807 85.9306Z" fill="#0B4D5E"/>
<path d="M61.141 140.662L35.4756 87.9464L35.8582 88.7333C36.4323 89.8718 37.7957 90.3765 38.9677 89.891L125.556 54.2702C125.604 54.2487 125.651 54.2368 125.723 54.2368C125.747 54.2368 125.986 54.244 126.106 54.4784L149.475 104.97L66.4033 139.433C66.3554 139.457 63.509 140.846 61.141 140.662Z" fill="#0B4D5E"/>
<path d="M124.957 63.2385C128.617 63.2385 131.607 60.2582 131.607 56.5841C131.607 52.9101 128.617 49.9297 124.957 49.9297C121.297 49.9297 118.308 52.9101 118.308 56.5841C118.308 60.2582 121.297 63.2385 124.957 63.2385Z" fill="#F0F4FF"/>
<path d="M60.4951 38.9111C62.4086 38.9111 63.9634 36.39 63.9634 33.2805C63.9634 30.171 62.4086 27.6499 60.4951 27.6499C58.5576 27.6499 57.0029 30.171 57.0029 33.2805C57.0029 36.39 58.5576 38.9111 60.4951 38.9111Z" fill="#F0F4FF"/>
<path d="M145.624 110.349C149.26 110.349 152.226 107.381 152.226 103.721C152.226 100.062 149.26 97.0908 145.624 97.0908C141.965 97.0908 139.022 100.059 139.022 103.721C139.022 107.383 141.965 110.349 145.624 110.349Z" fill="#F0F4FF"/>
<path d="M62.8389 49.642L59.4662 57.1838C58.916 58.4372 57.1222 58.4253 56.596 57.1623L56.5002 56.9733C55.9979 55.7773 56.0219 54.4187 56.572 53.2395L59.9685 45.9059C60.5426 44.6788 62.2887 44.698 62.8389 45.937C63.3651 47.1186 63.3651 48.4652 62.8389 49.642Z" fill="#F0F4FF"/>
<path d="M58.0355 58.7241H58.0115C57.1289 58.7145 56.3707 58.2074 56.0358 57.3966L55.9592 57.2482C55.3708 55.8537 55.4019 54.3134 56.0214 52.9835L59.418 45.6522C59.7816 44.8725 60.5398 44.3916 61.3937 44.3916H61.4177C62.2835 44.4012 63.0418 44.8987 63.3934 45.6928C63.989 47.0299 63.989 48.5609 63.3934 49.8932L60.0232 57.4325C59.6739 58.229 58.9133 58.7266 58.0378 58.7266L58.0355 58.7241ZM61.3937 45.6044C61.011 45.6044 60.6833 45.8125 60.5207 46.1641L57.124 53.4954C56.648 54.5167 56.6241 55.6984 57.0619 56.7389L57.1385 56.8871C57.3059 57.2865 57.6312 57.5042 58.0235 57.509H58.0355C58.4277 57.509 58.7554 57.2962 58.9108 56.9398L62.2835 49.3931C62.738 48.3766 62.738 47.2046 62.2835 46.1832C62.1233 45.8244 61.7956 45.6068 61.4057 45.602L61.3937 45.6044Z" fill="#0B4D5E"/>
<path d="M127.756 134.545L139.668 156.938C141.223 159.864 139.094 163.387 135.769 163.387H60.9736C59.2275 163.387 57.6488 162.43 56.8116 160.902L17.5361 87.5459L17.5601 87.5722C18.2298 88.8232 19.5453 89.6005 20.9566 89.5933L94.7955 89.2201C100.249 89.2201 105.272 92.234 107.832 97.0561L119.385 118.775C124.767 120.167 129.885 113.718 131.177 112.558C133.33 110.623 136.08 109.831 138.544 110.726C142.467 112.154 144.189 117.352 142.347 122.337C141.941 123.485 141.366 124.52 140.697 125.42C138.424 128.419 131.033 133.988 127.756 134.545Z" fill="#8AE5CC"/>
<path d="M135.769 163.995H60.9732C59.0238 163.995 57.2226 162.921 56.2778 161.194L17 87.833L17.9926 87.1489L18.093 87.2876C18.6551 88.3377 19.7411 88.9883 20.9323 88.9883H20.9514L94.7929 88.6151C100.495 88.6151 105.698 91.7414 108.369 96.774L119.791 118.249C123.982 119.115 128.179 114.771 129.988 112.896C130.32 112.551 130.583 112.279 130.77 112.109C133.176 109.946 136.159 109.217 138.752 110.159C140.498 110.796 141.935 112.166 142.794 114.022C143.952 116.519 143.997 119.629 142.916 122.552C142.512 123.695 141.928 124.786 141.184 125.786C139.125 128.503 132.437 133.744 128.655 134.949L140.206 156.658C141.034 158.218 140.983 160.053 140.074 161.569C139.158 163.09 137.549 163.999 135.767 163.999L135.769 163.995ZM19.5235 89.9714L57.3447 160.615C58.0743 161.949 59.4663 162.779 60.9732 162.779H135.769C137.118 162.779 138.34 162.091 139.034 160.938C139.723 159.792 139.761 158.402 139.132 157.223L126.823 134.088L127.653 133.947C130.689 133.43 137.946 128.046 140.213 125.054C140.881 124.154 141.407 123.171 141.773 122.136C142.744 119.507 142.715 116.737 141.691 114.529C140.957 112.948 139.797 111.831 138.336 111.298C136.18 110.516 133.65 111.154 131.583 113.011C131.411 113.164 131.167 113.417 130.863 113.735C128.871 115.804 124.218 120.648 119.234 119.366L118.975 119.299L107.295 97.3433C104.837 92.7077 100.048 89.8302 94.7952 89.8302L20.9586 90.2034H20.9323C20.4467 90.2034 19.9708 90.1221 19.5235 89.9714Z" fill="#0B4D5E"/>
<path d="M96.3258 85.5615C101.779 85.5615 106.802 88.5753 109.362 93.395L122.852 118.697C121.728 119.008 120.556 119.08 119.384 118.774L107.831 97.0524C105.272 92.2327 100.249 89.2188 94.7949 89.2188L96.3258 85.5615Z" fill="#F0F4FF"/>
<path d="M120.932 119.577C120.351 119.577 119.784 119.506 119.232 119.362L118.976 119.295L107.296 97.3371C104.837 92.704 100.046 89.8266 94.7956 89.8266H93.8818L95.9222 84.9541H96.3265C102.029 84.9541 107.231 88.0804 109.901 93.1107L123.748 119.08L123.018 119.281C122.308 119.479 121.612 119.577 120.932 119.577ZM119.791 118.247C120.478 118.391 121.195 118.401 121.942 118.279L108.827 93.6824C106.43 89.1664 101.821 86.3176 96.7259 86.1765L95.6949 88.6378C101.036 88.9487 105.834 92.0032 108.367 96.7679L119.789 118.245L119.791 118.247Z" fill="#0B4D5E"/>
<path d="M130.674 133.391C129.55 133.993 128.545 134.414 127.756 134.546L139.644 156.942C140.266 158.116 140.313 159.389 139.907 160.491L141.438 157.652C142.131 156.387 142.131 154.865 141.462 153.598L130.674 133.391Z" fill="#F0F4FF"/>
<path d="M140.442 160.781L139.337 160.284C139.703 159.286 139.622 158.203 139.105 157.229L126.823 134.09L127.655 133.951C128.322 133.838 129.243 133.473 130.387 132.858L130.925 132.568L141.999 153.314C142.772 154.778 142.76 156.507 141.971 157.947L140.442 160.781ZM128.657 134.948L140.179 156.658C140.385 157.045 140.536 157.447 140.636 157.854L140.899 157.363C141.495 156.28 141.502 154.978 140.923 153.881L130.418 134.204C129.755 134.537 129.172 134.783 128.655 134.946L128.657 134.948Z" fill="#0B4D5E"/>
<path d="M140.959 121.105C142.323 117.376 141.174 113.537 138.4 112.53C135.625 111.521 132.276 113.726 130.913 117.455C129.55 121.184 130.698 125.023 133.472 126.031C136.247 127.04 139.596 124.834 140.959 121.105Z" fill="#0B4D5E"/>
<path d="M140.505 122.129C140.672 121.797 140.84 121.462 140.959 121.098C141.27 120.273 141.438 119.446 141.486 118.642L133.688 113.554C132.827 114.226 132.061 115.128 131.463 116.233L140.505 122.129Z" fill="#F0F4FF"/>
<path d="M139.931 123.105L130.985 117.275C130.961 117.338 130.937 117.393 130.913 117.457C130.722 117.979 130.603 118.5 130.507 119.019L138.831 124.456C139.237 124.064 139.596 123.602 139.931 123.105Z" fill="#F0F4FF"/>
<path d="M140.528 120.935C141.581 118.039 140.695 115.053 138.543 114.269C136.366 113.487 133.759 115.199 132.706 118.098C131.654 120.997 132.539 123.98 134.692 124.765C136.868 125.549 139.452 123.834 140.528 120.935Z" fill="#8AE5CC"/>
<path d="M20.4302 85.9843L96.3263 85.5562L94.7954 89.2182L20.9565 89.5914" fill="#F0F4FF"/>
<path d="M20.9587 90.1993L20.954 88.9842L94.3887 88.6159L95.4124 86.1714L20.4326 86.5923L20.4277 85.3797L97.2375 84.9443L95.2019 89.8238L20.9587 90.1993Z" fill="#0B4D5E"/>
</svg>
