<svg width="411" height="300" viewBox="0 0 411 300" fill="none" xmlns="http://www.w3.org/2000/svg">
<path d="M210.395 243.263L174.353 264.393L111.76 227.708L147.66 206.681L210.395 243.263Z" fill="#0B4D5E"/>
<path d="M147.719 206.459C147.661 206.443 147.598 206.451 147.544 206.482L111.644 227.51C111.573 227.551 111.53 227.626 111.53 227.708C111.53 227.79 111.573 227.865 111.644 227.906L174.237 264.591C174.308 264.633 174.397 264.633 174.469 264.591L210.511 243.461C210.581 243.42 210.624 243.344 210.624 243.263C210.624 243.181 210.581 243.106 210.511 243.064L147.776 206.482L147.719 206.459ZM209.939 243.264L174.353 264.126L112.215 227.708L147.661 206.946L209.939 243.264Z" fill="#0B4D5E"/>
<path d="M293.29 195.235L206.527 245.505L146.387 215.785L232.809 165.758L293.29 195.235Z" fill="#0B4D5E"/>
<path d="M232.857 165.533C232.802 165.522 232.744 165.53 232.695 165.559L146.272 215.586C146.198 215.628 146.155 215.708 146.157 215.792C146.16 215.877 146.209 215.954 146.285 215.991L206.426 245.712C206.495 245.746 206.576 245.743 206.643 245.704L293.406 195.434C293.479 195.391 293.523 195.311 293.52 195.227C293.517 195.142 293.467 195.066 293.391 195.028L232.91 165.551L232.857 165.533ZM292.801 195.251L206.52 245.244L146.873 215.769L232.82 166.019L292.801 195.251Z" fill="#0B4D5E"/>
<path d="M219.763 35.6426C226.17 39.3423 232.192 44.7337 237.419 51.11C248.571 64.7145 256.108 82.8061 256.064 98.5176L255.887 161.023C255.86 170.424 262.492 181.912 270.67 186.634C274.787 189.011 278.523 189.228 281.222 187.66L206.802 230.841C204.103 232.41 200.367 232.192 196.25 229.815C188.072 225.093 181.439 213.605 181.467 204.205L181.644 141.699C181.689 125.988 174.152 107.896 162.999 94.2914C157.772 87.9151 151.75 82.5237 145.343 78.824L219.763 35.6426Z" fill="#F0F4FF"/>
<path d="M219.648 35.4434L144.885 78.8242L145.228 79.0234C151.208 82.4764 156.857 87.4131 161.835 93.2568L162.821 94.4375C173.949 108.011 181.459 126.052 181.414 141.698L181.237 204.204C181.223 208.955 182.89 214.217 185.582 218.88C188.19 223.397 191.771 227.373 195.749 229.786L196.136 230.015C200.165 232.34 203.883 232.647 206.653 231.187L206.918 231.04L281.338 187.858L281.222 187.66L281.107 187.461L280.86 187.598C278.276 188.96 274.733 188.714 270.786 186.435L270.407 186.211C266.51 183.847 262.979 179.935 260.4 175.468C257.738 170.856 256.104 165.673 256.117 161.023L256.295 98.5186C256.339 82.7419 248.774 64.5995 237.596 50.9639L236.605 49.7773C231.6 43.9015 225.912 38.9274 219.879 35.4434L219.763 35.377L219.648 35.4434ZM219.763 35.9082C225.701 39.3579 231.308 44.269 236.255 50.0752L237.241 51.2559C248.368 64.8291 255.878 82.8704 255.835 98.5166L255.657 161.022L255.66 161.47C255.748 166.102 257.395 171.181 260.003 175.698C262.611 180.216 266.191 184.191 270.17 186.604L270.555 186.833C273.598 188.59 276.464 189.193 278.878 188.755L206.687 230.643C204.084 232.155 200.439 231.968 196.365 229.616L195.987 229.393C192.09 227.029 188.559 223.117 185.98 218.649C183.318 214.038 181.683 208.855 181.696 204.205L181.874 141.699L181.871 140.958C181.682 125.357 174.181 107.568 163.177 94.1455L162.184 92.959C157.273 87.1942 151.706 82.2974 145.8 78.8242L219.763 35.9082Z" fill="#0B4D5E"/>
<path d="M234.989 73.8336C235.097 73.7672 235.239 73.801 235.305 73.9093C235.371 74.0173 235.337 74.1585 235.23 74.2249L188.483 102.916C188.374 102.983 188.233 102.949 188.167 102.841C188.1 102.733 188.134 102.591 188.242 102.525L234.989 73.8336Z" fill="#0B4D5E"/>
<path d="M239.184 81.3854C239.292 81.319 239.434 81.3528 239.501 81.461C239.567 81.569 239.533 81.7102 239.425 81.7767L192.678 110.468C192.57 110.535 192.429 110.501 192.362 110.393C192.296 110.284 192.33 110.143 192.438 110.077L239.184 81.3854Z" fill="#0B4D5E"/>
<path d="M241.701 90.6149C241.809 90.5485 241.951 90.5823 242.018 90.6905C242.084 90.7985 242.05 90.9397 241.942 91.0062L195.195 119.698C195.087 119.764 194.946 119.73 194.879 119.622C194.813 119.514 194.847 119.373 194.955 119.306L241.701 90.6149Z" fill="#0B4D5E"/>
<path d="M244.218 99.8453C244.327 99.7789 244.469 99.8128 244.535 99.921C244.601 100.029 244.567 100.17 244.459 100.237L197.712 128.928C197.604 128.994 197.463 128.961 197.397 128.852C197.33 128.744 197.364 128.603 197.472 128.537L244.218 99.8453Z" fill="#0B4D5E"/>
<path d="M245.058 110.753C245.166 110.686 245.308 110.72 245.374 110.828C245.44 110.936 245.406 111.077 245.298 111.144L198.551 139.835C198.443 139.902 198.302 139.868 198.236 139.76C198.169 139.651 198.203 139.51 198.311 139.444L245.058 110.753Z" fill="#0B4D5E"/>
<path d="M245.058 121.662C245.166 121.595 245.308 121.629 245.374 121.737C245.44 121.845 245.406 121.987 245.298 122.053L198.551 150.745C198.443 150.811 198.302 150.777 198.236 150.669C198.169 150.561 198.203 150.42 198.311 150.353L245.058 121.662Z" fill="#0B4D5E"/>
<path d="M245.058 131.731C245.166 131.665 245.308 131.699 245.374 131.807C245.44 131.915 245.406 132.056 245.298 132.122L198.551 160.814C198.443 160.88 198.302 160.846 198.236 160.738C198.169 160.63 198.203 160.489 198.311 160.423L245.058 131.731Z" fill="#0B4D5E"/>
<path d="M245.058 143.477C245.166 143.411 245.308 143.445 245.374 143.553C245.44 143.661 245.406 143.802 245.298 143.868L198.551 172.56C198.443 172.626 198.302 172.592 198.236 172.484C198.169 172.376 198.203 172.235 198.311 172.169L245.058 143.477Z" fill="#0B4D5E"/>
<path d="M176.235 84.3394L178.02 83.2638L186.609 89.9444L185.021 90.9012L183.06 89.3744L179.244 91.6738L179.69 94.113L178.126 95.055L176.235 84.3394ZM178.133 85.5404L178.943 90.0054L181.726 88.3291L178.133 85.5404Z" fill="#0B4D5E"/>
<path d="M190.632 87.6858C188.527 88.9542 186.366 88.6544 184.921 86.2557L181.761 81.0102L183.337 80.0608L186.467 85.2578C187.424 86.8448 188.625 87.029 189.807 86.3169C191.001 85.5974 191.4 84.449 190.444 82.862L187.313 77.665L188.889 76.7156L192.049 81.9611C193.494 84.3597 192.75 86.41 190.632 87.6858Z" fill="#0B4D5E"/>
<path d="M197.862 73.1594L195.017 74.8728L199.44 82.2141L197.864 83.1635L193.442 75.8222L190.597 77.5356L189.78 76.1788L197.044 71.8026L197.862 73.1594Z" fill="#0B4D5E"/>
<path d="M199.619 76.179C198.028 73.5381 198.642 70.6582 201.031 69.2193C203.419 67.7803 206.252 68.5832 207.843 71.2242C209.434 73.8651 208.82 76.7449 206.431 78.1839C204.043 79.6228 201.21 78.8199 199.619 76.179ZM206.267 72.1736C205.129 70.2838 203.345 69.6907 201.855 70.5882C200.366 71.4857 200.056 73.3397 201.195 75.2295C202.333 77.1194 204.117 77.7124 205.607 76.8149C207.096 75.9174 207.406 74.0634 206.267 72.1736Z" fill="#0B4D5E"/>
<path d="M211.235 70.5182L213.264 73.886L211.688 74.8354L206.448 66.1373L209.981 64.0085C211.951 62.8217 213.73 62.9886 214.788 64.7452C215.832 66.4775 215.162 68.152 213.193 69.3388L211.235 70.5182ZM210.432 69.1856L212.304 68.0582C213.436 67.3758 213.748 66.5278 213.237 65.6798C212.719 64.8196 211.831 64.7106 210.698 65.393L208.826 66.5205L210.432 69.1856Z" fill="#0B4D5E"/>
<path d="M215.876 60.4574L217.661 59.3819L226.25 66.0624L224.662 67.0193L222.701 65.4924L218.885 67.7918L219.331 70.231L217.767 71.173L215.876 60.4574ZM217.774 61.6584L218.584 66.1235L221.367 64.4471L217.774 61.6584Z" fill="#0B4D5E"/>
<path d="M226.314 59.2047L226.378 54.1302L228.052 53.1214L227.944 60.1548L230.104 63.7406L228.528 64.69L226.368 61.1042L220.087 57.9205L221.798 56.8895L226.314 59.2047Z" fill="#0B4D5E"/>
<path d="M263.058 179.797C263.199 179.975 263.337 180.159 263.481 180.335C265.609 182.932 268.061 185.127 270.67 186.633C272.239 187.539 273.752 188.131 275.173 188.43C277.483 188.916 279.551 188.63 281.222 187.659L206.802 230.841C205.131 231.811 203.062 232.097 200.752 231.611C199.331 231.312 197.819 230.72 196.25 229.815C193.641 228.308 191.189 226.113 189.06 223.516C188.916 223.34 188.778 223.158 188.637 222.978L263.058 179.797Z" fill="#F0F4FF"/>
<path d="M262.942 179.598L188.293 222.912L188.456 223.12L188.883 223.662C190.891 226.112 193.19 228.212 195.642 229.72L196.136 230.014C197.721 230.929 199.256 231.531 200.705 231.836C202.913 232.301 204.922 232.076 206.589 231.219L206.918 231.039L281.338 187.858L281.107 187.46L280.8 187.629C279.241 188.431 277.342 188.652 275.22 188.205L274.693 188.081C273.453 187.761 272.143 187.218 270.786 186.435L270.303 186.146C267.902 184.67 265.641 182.607 263.658 180.188L263.115 179.498L262.942 179.598ZM263.303 180.48C265.311 182.931 267.61 185.031 270.063 186.539L270.555 186.832C271.943 187.633 273.292 188.194 274.578 188.526L275.125 188.654C276.459 188.935 277.72 188.964 278.877 188.754L206.687 230.642C205.073 231.579 203.064 231.862 200.8 231.386C199.406 231.092 197.916 230.51 196.365 229.615L195.884 229.328C193.482 227.852 191.221 225.789 189.238 223.37L188.981 223.043L263.002 180.096L263.303 180.48Z" fill="#0B4D5E"/>
<path d="M212.385 222.054L212.41 213.273C212.424 208.246 214.205 204.706 217.074 203.04L291.493 159.859C288.625 161.526 286.844 165.066 286.829 170.092L286.805 178.872C286.79 183.937 284.997 187.503 282.108 189.182L207.688 232.363C210.577 230.685 212.37 227.118 212.385 222.054Z" fill="#8AE5CC"/>
<path d="M291.378 159.66L216.959 202.841H216.958C213.995 204.563 212.194 208.197 212.179 213.272L212.155 222.053L212.148 222.519C212.029 227.283 210.279 230.591 207.572 232.164L207.803 232.562L282.223 189.381C285.114 187.701 286.905 184.214 287.028 179.348L287.035 178.873L287.059 170.092L287.065 169.63C287.185 164.902 288.922 161.62 291.608 160.059L291.378 159.66ZM289.303 161.396C287.596 163.382 286.611 166.343 286.599 170.091L286.575 178.871L286.568 179.337C286.448 184.103 284.699 187.411 281.993 188.983L209.885 230.822C211.536 228.906 212.519 226.086 212.608 222.529L212.614 222.055L212.639 213.273C212.653 208.451 214.308 205.067 216.932 203.396L217.189 203.238L289.303 161.396Z" fill="#0B4D5E"/>
<path d="M299.355 155.894L220.15 201.865C220.15 201.865 219.66 201.778 218.384 201.945C217.108 202.111 215.245 203.005 215.245 203.005L294.119 157.239C294.33 157.116 294.545 157.006 294.767 156.907C295.382 156.634 296.654 156.108 297.589 155.986C298.864 155.818 299.354 155.894 299.354 155.894" fill="#F0F4FF"/>
<path d="M298.948 155.648C298.655 155.65 298.204 155.673 297.558 155.758L297.18 155.823C296.532 155.961 295.804 156.226 295.246 156.453L294.674 156.697L294.334 156.86C294.222 156.917 294.113 156.977 294.004 157.04L215.13 202.807L215.344 203.213L215.345 203.212C215.346 203.212 215.348 203.211 215.349 203.21C215.353 203.209 215.358 203.206 215.365 203.203C215.379 203.197 215.398 203.187 215.425 203.175C215.477 203.151 215.553 203.116 215.649 203.073C215.841 202.988 216.111 202.873 216.42 202.752C217.042 202.509 217.805 202.252 218.414 202.173C219.042 202.091 219.473 202.072 219.744 202.072C219.879 202.073 219.975 202.078 220.034 202.083C220.063 202.086 220.084 202.088 220.096 202.09C220.103 202.091 220.107 202.092 220.109 202.092L220.192 202.107L220.265 202.065L299.47 156.093L299.355 155.895V155.893L299.389 155.667H299.387L299.386 155.666C299.384 155.666 299.381 155.666 299.379 155.665C299.373 155.664 299.366 155.664 299.356 155.663C299.337 155.661 299.309 155.658 299.273 155.655C299.201 155.651 299.094 155.647 298.948 155.648ZM220.1 201.627C220.092 201.626 220.082 201.626 220.072 201.625C220 201.619 219.892 201.613 219.746 201.612C219.452 201.611 219.001 201.633 218.354 201.717C218.147 201.744 217.926 201.79 217.701 201.847L294.234 157.438C294.439 157.319 294.646 157.213 294.861 157.117V157.116C295.401 156.876 296.42 156.456 297.267 156.276L297.619 156.214C297.973 156.168 298.264 156.141 298.5 156.125L220.1 201.627Z" fill="#0B4D5E"/>
<path d="M145.339 80.2607L145.343 78.8252C165.422 90.418 181.709 118.624 181.644 141.7L181.467 204.206C181.439 213.607 188.072 225.095 196.25 229.817C204.431 234.54 211.107 230.736 211.134 221.334L211.158 212.554C211.182 204.414 215.501 199.893 221.635 200.395L217.072 203.042C217.072 203.042 217.087 203.036 217.09 203.034C214.211 204.697 212.423 208.239 212.408 213.275L212.383 222.056C212.354 232.251 205.117 236.375 196.245 231.252C187.376 226.132 180.182 213.677 180.211 203.482L180.388 140.976C180.452 118.694 164.729 91.4571 145.338 80.2607H145.339Z" fill="#0B4D5E"/>
<path d="M145.402 78.6023C145.344 78.5869 145.282 78.5951 145.228 78.6257C145.157 78.6666 145.114 78.7421 145.113 78.824L145.109 80.2595H145.11C145.11 80.3405 145.15 80.4178 145.223 80.4597C154.875 86.033 163.628 95.6076 169.96 106.576C176.292 117.544 180.19 129.885 180.158 140.975L179.981 203.481C179.967 208.629 181.774 214.331 184.692 219.385C187.519 224.28 191.401 228.588 195.711 231.203L196.13 231.451C200.608 234.037 204.726 234.317 207.744 232.597C210.762 230.877 212.598 227.203 212.612 222.056L212.638 213.276C212.652 208.289 214.422 204.841 217.205 203.233V203.232C217.208 203.23 217.213 203.228 217.217 203.225C217.219 203.224 217.221 203.222 217.223 203.22L221.75 200.594C221.837 200.543 221.881 200.442 221.859 200.344C221.837 200.246 221.753 200.174 221.653 200.166C218.521 199.909 215.835 200.937 213.933 203.081C212.036 205.22 210.94 208.445 210.929 212.552L210.904 221.334L210.898 221.765C210.786 226.184 209.154 229.238 206.637 230.673C204.037 232.154 200.414 231.955 196.365 229.617L195.987 229.393C192.091 227.029 188.559 223.118 185.98 218.65C183.318 214.039 181.683 208.856 181.696 204.206L181.874 141.701C181.906 130.113 177.835 117.252 171.247 105.842C164.659 94.4307 155.541 84.4471 145.458 78.6257L145.402 78.6023ZM145.572 79.2273C155.432 85.0264 164.365 94.8425 170.849 106.071C177.407 117.43 181.446 130.211 181.414 141.699L181.236 204.205L181.24 204.652C181.328 209.284 182.974 214.363 185.582 218.881C188.19 223.398 191.771 227.374 195.749 229.787L196.136 230.015C200.268 232.401 204.074 232.662 206.864 231.072C209.568 229.531 211.244 226.295 211.358 221.776L211.364 221.335L211.389 212.553L211.403 211.809C211.537 208.139 212.588 205.291 214.277 203.386C215.917 201.537 218.176 200.56 220.84 200.59L216.956 202.844C216.949 202.848 216.943 202.853 216.936 202.857C213.985 204.584 212.193 208.211 212.178 213.274L212.153 222.055L212.146 222.524C212.025 227.319 210.253 230.638 207.517 232.198C204.69 233.808 200.753 233.59 196.359 231.052L195.949 230.809C191.72 228.244 187.889 224.001 185.091 219.155C182.202 214.153 180.427 208.529 180.441 203.482L180.618 140.976L180.609 139.924C180.402 129.01 176.52 117.022 170.357 106.346C164.022 95.3712 155.262 85.7633 145.57 80.1306L145.572 79.2273Z" fill="#0B4D5E"/>
<path d="M202.641 239.08L173.96 255.63L124.15 226.885V202.382L202.641 214.577V239.08Z" fill="#F0F4FF"/>
<path d="M124.186 202.154C124.119 202.144 124.051 202.163 124 202.207C123.949 202.25 123.92 202.315 123.92 202.382V226.885C123.92 226.967 123.964 227.043 124.035 227.084L173.845 255.829C173.916 255.87 174.003 255.87 174.074 255.829L202.756 239.279C202.827 239.238 202.87 239.162 202.87 239.08V214.577C202.87 214.464 202.788 214.367 202.676 214.349L124.186 202.154ZM202.411 214.774V238.946L173.961 255.363L124.38 226.752V202.65L202.411 214.774Z" fill="#0B4D5E"/>
<path d="M202.641 214.576L173.96 231.142V255.629L202.641 239.079V214.576Z" fill="#0B4D5E"/>
<path d="M202.756 214.377C202.685 214.335 202.596 214.335 202.525 214.377L173.845 230.943C173.774 230.984 173.73 231.059 173.729 231.141V255.628C173.729 255.711 173.774 255.787 173.845 255.828C173.916 255.869 174.003 255.869 174.074 255.828L202.756 239.278C202.827 239.237 202.87 239.161 202.87 239.079V214.576L202.862 214.516C202.847 214.458 202.809 214.407 202.756 214.377ZM202.411 238.945L174.189 255.23V231.274L202.411 214.973V238.945Z" fill="#0B4D5E"/>
<path d="M202.641 214.576L173.96 231.142L124.15 202.381L152.718 185.896L202.641 214.576Z" fill="#8AE5CC"/>
<path d="M152.777 185.673C152.719 185.657 152.657 185.665 152.603 185.696L124.035 202.181C123.964 202.222 123.92 202.298 123.92 202.381C123.92 202.463 123.964 202.539 124.035 202.58L173.845 231.341C173.916 231.382 174.004 231.382 174.075 231.341L202.756 214.775C202.827 214.734 202.87 214.658 202.87 214.576C202.87 214.494 202.826 214.418 202.755 214.377L152.833 185.696L152.777 185.673ZM202.181 214.576L173.96 230.876L124.61 202.381L152.719 186.16L202.181 214.576Z" fill="#0B4D5E"/>
<path d="M163.376 214.959C155.804 214.054 150.07 209.936 150.569 205.761C151.068 201.586 157.611 198.935 165.183 199.84C172.755 200.745 178.489 204.863 177.991 209.038C177.492 213.213 170.949 215.864 163.376 214.959Z" fill="#0B4D5E"/>
<path d="M150.797 205.789C151.032 203.823 152.698 202.167 155.309 201.109C157.911 200.055 161.4 199.62 165.156 200.069C168.911 200.517 172.199 201.762 174.479 203.399C176.768 205.043 177.998 207.045 177.763 209.011C177.528 210.977 175.861 212.633 173.25 213.691C170.648 214.745 167.159 215.18 163.404 214.731C159.648 214.282 156.36 213.038 154.08 211.4C151.792 209.757 150.562 207.755 150.797 205.789ZM150.341 205.735C150.077 207.943 151.465 210.087 153.812 211.773C156.167 213.464 159.532 214.731 163.349 215.188C167.166 215.644 170.735 215.205 173.422 214.116C176.1 213.031 177.954 211.274 178.218 209.066C178.482 206.857 177.095 204.712 174.747 203.026C172.392 201.335 169.027 200.069 165.21 199.613C161.393 199.157 157.824 199.594 155.137 200.683C152.458 201.768 150.604 203.526 150.341 205.735Z" fill="#0B4D5E"/>
<path d="M208.291 126.566L199.375 122.849C199.375 122.849 199.368 122.846 199.365 122.845L199.285 122.812L199.28 122.825C195.395 121.257 190.484 122.232 185.436 126.153C175.27 134.052 168.423 150.861 170.147 163.696C171.007 170.103 173.843 174.306 177.727 175.929L177.727 175.932L177.745 175.94L177.748 175.941L185.869 179.286L187.236 176.07C189.004 175.403 190.815 174.491 192.662 173.056C202.829 165.157 209.676 148.348 207.954 135.512C207.697 133.606 207.218 131.962 206.637 130.455L208.291 126.566Z" fill="#8AE5CC"/>
<path d="M207.726 135.543C207.472 133.658 206.998 132.031 206.423 130.538L206.388 130.451L206.425 130.365L207.989 126.689L199.412 123.113L199.407 123.125L199.194 123.038C195.412 121.511 190.586 122.443 185.577 126.333L185.578 126.334C180.534 130.253 176.302 136.394 173.546 143.16C170.79 149.927 169.519 157.297 170.374 163.665C171.229 170.025 174.034 174.136 177.816 175.717L177.937 175.768L177.937 175.77L185.746 178.987L187.024 175.981L187.063 175.89L187.155 175.855C188.906 175.194 190.695 174.293 192.521 172.874L192.992 172.5C197.828 168.571 201.883 162.604 204.553 156.049C207.223 149.494 208.499 142.372 207.799 136.143L207.726 135.543ZM199.466 122.639L199.442 122.686L199.463 122.637L199.466 122.639ZM208.256 136.091C208.967 142.414 207.671 149.614 204.98 156.222C202.288 162.83 198.192 168.868 193.281 172.858L192.803 173.237C190.967 174.664 189.165 175.578 187.409 176.249L186.08 179.376L185.992 179.585L177.66 176.154L177.653 176.151L177.649 176.149L177.638 176.145L177.517 176.093L177.516 176.088C173.594 174.385 170.777 170.114 169.919 163.726C169.051 157.26 170.341 149.808 173.119 142.987C175.898 136.166 180.173 129.952 185.296 125.971L185.772 125.61C190.603 122.027 195.325 121.089 199.15 122.53L199.158 122.511L199.373 122.599L199.451 122.632L199.457 122.634L199.463 122.637L199.442 122.686L199.466 122.639L199.463 122.637L208.38 126.353L208.593 126.443L206.883 130.461C207.454 131.957 207.927 133.591 208.181 135.482L208.256 136.091Z" fill="#0B4D5E"/>
<path d="M169.992 156.832C169.813 159.193 169.852 161.503 170.147 163.696C171.007 170.102 173.843 174.306 177.726 175.929L177.727 175.932L177.745 175.939L177.747 175.941L185.868 179.286L187.235 176.07C189.003 175.403 190.814 174.491 192.661 173.056C194.402 171.703 196.041 170.085 197.561 168.275L169.992 156.832Z" fill="#0B4D5E"/>
<path d="M170.081 156.62L197.649 168.062L197.939 168.183L197.737 168.423C196.4 170.016 194.969 171.462 193.456 172.713L192.802 173.237C190.966 174.664 189.164 175.577 187.408 176.248L186.079 179.375L185.991 179.584L185.78 179.498L177.66 176.153L177.656 176.151L177.638 176.144L177.517 176.093L177.516 176.086C173.594 174.384 170.777 170.113 169.919 163.726C169.622 161.515 169.583 159.189 169.763 156.814L169.788 156.498L170.081 156.62ZM170.374 163.665C171.228 170.024 174.034 174.135 177.815 175.716L177.936 175.768L177.937 175.769L185.745 178.986L187.023 175.98L187.062 175.889L187.154 175.855C188.905 175.194 190.694 174.293 192.52 172.874L193.163 172.358C194.575 171.19 195.917 169.844 197.18 168.365L170.201 157.166C170.049 159.403 170.095 161.589 170.374 163.665Z" fill="#0B4D5E"/>
<path d="M193.913 129.663C183.744 137.562 176.898 154.371 178.621 167.206C180.345 180.041 189.986 184.043 200.154 176.143C210.323 168.244 217.169 151.435 215.445 138.6C213.721 125.764 204.082 121.763 193.913 129.663Z" fill="#F0F4FF"/>
<path d="M215.218 138.63C214.362 132.259 211.552 128.142 207.758 126.567C204.083 125.042 199.403 125.868 194.526 129.485L194.053 129.844C189.009 133.763 184.776 139.903 182.02 146.67C179.264 153.436 177.994 160.806 178.849 167.175L178.935 167.765C179.881 173.8 182.634 177.712 186.309 179.237C190.102 180.812 194.968 179.881 200.013 175.961L200.484 175.587C205.321 171.658 209.377 165.69 212.047 159.135C214.716 152.58 215.992 145.458 215.292 139.23L215.218 138.63ZM215.749 139.177C216.46 145.5 215.163 152.7 212.472 159.308C209.694 166.13 205.418 172.343 200.295 176.323L200.296 176.324C195.173 180.304 190.133 181.322 186.133 179.662C182.259 178.054 179.442 173.967 178.48 167.836L178.394 167.236C177.526 160.77 178.817 153.318 181.595 146.496C184.373 139.675 188.648 133.461 193.772 129.481L194.251 129.116C199.208 125.439 204.059 124.534 207.934 126.143C211.933 127.803 214.805 132.104 215.673 138.569L215.749 139.177Z" fill="#0B4D5E"/>
<path d="M207.573 159.108C207.926 158.351 208.246 157.573 208.533 156.774C208.821 155.975 209.06 155.163 209.25 154.34C209.407 153.742 209.389 153.246 209.197 152.85C209.085 152.618 208.935 152.464 208.746 152.387C208.613 152.332 208.46 152.316 208.289 152.339C207.908 152.375 207.549 152.6 207.21 153.014C206.871 153.429 206.623 153.935 206.466 154.533C206.338 155.067 206.179 155.59 205.989 156.104C205.798 156.616 205.585 157.126 205.35 157.63C203.866 160.812 201.958 163.084 199.626 164.443C197.689 165.573 195.918 165.809 194.311 165.151C193.983 165.017 193.662 164.845 193.348 164.636L193.154 164.507L194.947 163.47C195.312 163.259 195.62 162.885 195.869 162.35C196.119 161.814 196.223 161.305 196.181 160.824C196.139 160.341 195.96 159.995 195.645 159.786C195.588 159.748 195.529 159.717 195.47 159.692C195.205 159.584 194.923 159.616 194.624 159.788L189.443 162.784C189.044 163.014 188.727 163.382 188.492 163.886C188.257 164.39 188.162 164.905 188.209 165.431L188.808 172.267C188.85 172.75 189.029 173.096 189.343 173.305C189.401 173.343 189.459 173.374 189.518 173.398C189.783 173.507 190.066 173.475 190.364 173.302C190.73 173.091 191.037 172.718 191.287 172.182C191.537 171.646 191.64 171.137 191.598 170.655L191.391 168.288L191.585 168.418C192.008 168.698 192.439 168.929 192.88 169.109C195.028 169.989 197.39 169.675 199.965 168.168C203.069 166.35 205.605 163.33 207.574 159.108" fill="#0B4D5E"/>
<path d="M190.061 153.569C190.4 153.154 190.648 152.648 190.805 152.051C190.933 151.517 191.092 150.993 191.282 150.48C191.473 149.966 191.686 149.458 191.921 148.954C193.404 145.771 195.313 143.499 197.645 142.14C199.582 141.011 201.353 140.775 202.959 141.433C203.287 141.567 203.609 141.738 203.923 141.947L204.117 142.077L202.324 143.113C201.958 143.325 201.651 143.698 201.401 144.234C201.151 144.769 201.047 145.278 201.09 145.761C201.132 146.242 201.311 146.588 201.626 146.798C201.683 146.836 201.741 146.867 201.8 146.891C202.065 147 202.348 146.967 202.646 146.795L207.828 143.799C208.227 143.569 208.544 143.202 208.779 142.697C209.014 142.194 209.108 141.678 209.062 141.152L208.463 134.316C208.421 133.833 208.242 133.488 207.927 133.278C207.87 133.24 207.812 133.209 207.753 133.185C207.487 133.076 207.205 133.109 206.907 133.281C206.541 133.493 206.234 133.866 205.984 134.402C205.734 134.938 205.63 135.446 205.673 135.928L205.88 138.295L205.686 138.166C205.263 137.885 204.832 137.654 204.391 137.474C202.243 136.595 199.881 136.908 197.306 138.416C194.202 140.234 191.665 143.254 189.698 147.476C189.345 148.233 189.025 149.01 188.737 149.81C188.449 150.61 188.211 151.421 188.021 152.244C187.864 152.842 187.882 153.338 188.073 153.733C188.185 153.965 188.336 154.12 188.524 154.197C188.658 154.251 188.81 154.267 188.982 154.244C189.362 154.209 189.722 153.984 190.061 153.569" fill="#0B4D5E"/>
</svg>
