<svg width="172" height="172" viewBox="0 0 172 172" fill="none" xmlns="http://www.w3.org/2000/svg">
<mask id="mask0_14947_320" style="mask-type:alpha" maskUnits="userSpaceOnUse" x="0" y="0" width="172" height="172">
<rect width="172" height="172" fill="#D9D9D9"/>
</mask>
<g mask="url(#mask0_14947_320)">
<path d="M146.888 63.6533C144.239 63.6533 142.081 61.4955 142.081 58.8464V38.5292C142.081 34.1068 138.492 30.5176 134.069 30.5176H113.752C111.103 30.5176 108.945 28.3599 108.945 25.7107C108.945 23.0616 111.103 20.9038 113.752 20.9038H134.069C143.79 20.9038 151.695 28.8085 151.695 38.5292V58.8464C151.695 61.4955 149.537 63.6533 146.888 63.6533Z" fill="#F0F4FF" stroke="#0B4D5E" stroke-width="0.375"/>
<path d="M25.1126 63.6523C22.4634 63.6523 20.3057 61.4945 20.3057 58.8454V38.5282C20.3057 28.8075 28.2104 20.9028 37.931 20.9028H58.2482C60.8974 20.9028 63.0551 23.0606 63.0551 25.7097C63.0551 28.3589 60.8974 30.5167 58.2482 30.5167H37.931C33.5086 30.5167 29.9195 34.1058 29.9195 38.5282V58.8454C29.9195 61.4945 27.7617 63.6523 25.1126 63.6523Z" fill="#F0F4FF" stroke="#0B4D5E" stroke-width="0.375"/>
<path d="M134.069 151.096H113.752C111.103 151.096 108.945 148.938 108.945 146.289C108.945 143.64 111.103 141.482 113.752 141.482H134.069C138.492 141.482 142.081 137.893 142.081 133.471V113.154C142.081 110.504 144.239 108.347 146.888 108.347C149.537 108.347 151.695 110.504 151.695 113.154V133.471C151.695 143.191 143.79 151.096 134.069 151.096Z" fill="#F0F4FF" stroke="#0B4D5E" stroke-width="0.375"/>
<path d="M58.2482 151.096H37.931C28.2104 151.096 20.3057 143.191 20.3057 133.471V113.154C20.3057 110.504 22.4634 108.347 25.1126 108.347C27.7617 108.347 29.9195 110.504 29.9195 113.154V133.471C29.9195 137.893 33.5086 141.482 37.931 141.482H58.2482C60.8974 141.482 63.0551 143.64 63.0551 146.289C63.0551 148.938 60.8974 151.096 58.2482 151.096Z" fill="#F0F4FF" stroke="#0B4D5E" stroke-width="0.375"/>
<path d="M115.696 73.2885C112.962 73.6303 110.12 71.558 109.372 68.6952L105.89 55.3854C105.399 53.484 105.933 51.7108 107.129 50.6426L103.07 54.2958C101.874 55.3854 101.339 57.1586 101.831 59.0387L105.313 72.3485C106.061 75.2112 108.881 77.2836 111.637 76.9417C112.577 76.8349 113.367 76.4504 113.987 75.8949L118.046 72.2416C117.427 72.7971 116.615 73.1817 115.696 73.2885Z" fill="#0B4D5E" stroke="#0B4D5E" stroke-width="0.375"/>
<path d="M109.5 49.5738C112.235 49.232 115.076 51.283 115.824 54.1458L119.306 67.4556C120.054 70.3183 118.43 72.9247 115.696 73.2666C112.961 73.6084 110.12 71.5361 109.372 68.6733L105.89 55.3635C105.142 52.5007 106.744 49.8943 109.5 49.5738Z" fill="#8AE5CC" stroke="#0B4D5E" stroke-width="0.375"/>
<path d="M89.0768 96.7041C88.4572 97.1527 87.7522 97.4091 87.0258 97.4945C85.1885 97.7295 83.1589 96.875 81.813 95.1445C80.1466 92.9867 80.1252 90.2094 81.6207 88.5003L82.7957 87.4321C85.0176 85.4452 85.8508 82.1765 84.9749 78.9078L79.4202 58.6974C78.8861 56.7747 79.4202 54.9587 80.638 53.8691L76.5788 57.5224C75.361 58.612 74.8269 60.4279 75.361 62.3507L80.9157 82.5611C81.7275 85.5734 81.0652 88.5857 79.2066 90.5939L77.882 91.7903C76.0447 93.4354 75.9592 96.4904 77.7538 98.7977C79.0997 100.528 81.1293 101.361 82.9666 101.148C83.7144 101.062 84.4194 100.806 85.0176 100.357C85.4021 100.08 85.7867 99.7591 86.1285 99.4387L90.1877 95.7854C89.8245 96.1059 89.4613 96.405 89.0768 96.7041Z" fill="#0B4D5E" stroke="#0B4D5E" stroke-width="0.375"/>
<path d="M83.0301 52.8217C85.7434 52.4799 88.5207 54.5095 89.2898 57.3296L94.8658 77.5613C96.9381 85.0601 94.6522 92.5802 89.0762 96.7035C88.4566 97.1522 87.7516 97.4085 87.0252 97.494C85.1879 97.729 83.1583 96.8744 81.8124 95.1439C79.911 92.7084 80.1246 89.4611 82.261 87.8802C84.8674 85.9574 85.9356 82.4323 84.9743 78.9073L79.4196 58.6969C78.6078 55.8127 80.1887 53.1849 82.9233 52.8217C82.966 52.8217 83.0088 52.8217 83.0515 52.8217H83.0301Z" fill="#8AE5CC" stroke="#0B4D5E" stroke-width="0.375"/>
<path d="M60.8978 80.018C58.1632 80.3598 55.3218 78.2875 54.574 75.4247L51.0917 62.1149C50.6003 60.2135 51.1344 58.4403 52.3308 57.3721L48.2716 61.0253C47.0752 62.1149 46.5411 63.8881 47.0325 65.7681L50.5149 79.0779C51.2626 81.9407 54.0827 84.013 56.8386 83.6712C57.7786 83.5644 58.5691 83.1798 59.1887 82.6244L63.2478 78.9711C62.6283 79.5266 61.8164 79.9111 60.8978 80.018Z" fill="#0B4D5E" stroke="#0B4D5E" stroke-width="0.375"/>
<path d="M54.7013 56.3043C57.4359 55.9625 60.2773 58.0134 61.0251 60.8762L64.5074 74.186C65.2552 77.0488 63.6315 79.6552 60.8969 79.997C58.1623 80.3389 55.3209 78.2666 54.5731 75.4038L51.0908 62.094C50.3431 59.2312 51.9454 56.6248 54.7013 56.3043Z" fill="#8AE5CC" stroke="#0B4D5E" stroke-width="0.375"/>
<path d="M106.104 105.634L102.044 109.287C104.202 107.343 105.911 104.886 106.98 102.045C107.236 101.383 107.62 100.827 108.09 100.4L112.15 96.7466C111.658 97.1739 111.274 97.7293 111.039 98.3916C109.949 101.254 108.261 103.711 106.104 105.634Z" fill="#0B4D5E" stroke="#0B4D5E" stroke-width="0.375"/>
<path d="M113.539 113.923L109.48 117.576C105.399 121.23 100.208 123.601 94.3967 124.327C84.1206 125.588 73.054 121.529 64.8075 113.474C62.607 111.317 62.2865 108.027 64.1025 106.082C64.1879 105.997 64.2734 105.912 64.3588 105.826L68.418 102.173C68.418 102.173 68.2471 102.344 68.1616 102.429C66.3457 104.373 66.6661 107.663 68.8666 109.821C77.1132 117.875 88.1797 121.935 98.4559 120.674C104.267 119.969 109.458 117.576 113.539 113.923Z" fill="#0B4D5E" stroke="#0B4D5E" stroke-width="0.375"/>
<path d="M114.543 95.6779C115.525 95.5498 116.615 95.742 117.662 96.2761C120.332 97.6434 121.721 100.827 120.759 103.39C117.106 112.961 108.774 119.413 98.4768 120.695C88.1793 121.977 77.1341 117.897 68.8875 109.842C66.687 107.685 66.3666 104.394 68.1825 102.45C68.8875 101.703 69.8062 101.275 70.8103 101.147C72.3699 100.955 74.1004 101.532 75.4463 102.835C81.1078 108.368 88.7134 111.146 95.7635 110.291C102.814 109.436 108.582 104.971 111.082 98.4125C111.68 96.853 113.004 95.8916 114.564 95.6993L114.543 95.6779Z" fill="#8AE5CC" stroke="#0B4D5E" stroke-width="0.375"/>
</g>
</svg>
