<svg width="172" height="172" viewBox="0 0 172 172" fill="none" xmlns="http://www.w3.org/2000/svg">
<g clip-path="url(#clip0_9503_14109)">
<path d="M52.4826 138.953H52.4802L50.2129 119.142H50.2157C49.5768 113.436 52.36 107.084 58.8157 101.211C72.8216 88.4692 98.7976 82.8084 116.834 88.567C125.148 91.2213 130.321 95.8391 132.114 101.293H132.117L138.299 120.252H138.296C138.438 120.696 138.56 121.145 138.659 121.598C140.043 127.948 137.231 135.211 129.895 141.884C115.224 155.231 88.0147 161.16 69.1214 155.129C59.6745 152.113 54.0958 146.678 52.7121 140.329C52.6133 139.875 52.5384 139.416 52.4826 138.954V138.953Z" fill="#C4DAE6"/>
<path d="M116.025 88.1687C107.142 85.5431 96.4721 85.5909 86.2833 87.8113C75.766 90.1032 65.7457 94.7136 58.7198 101.105L58.1231 101.659C52.0761 107.391 49.4534 113.56 50.0724 119.142C50.0724 119.147 50.0698 119.153 50.0704 119.158L52.338 138.969C52.3386 138.974 52.3418 138.979 52.3429 138.984C52.3848 139.329 52.4368 139.673 52.502 140.014L52.5724 140.359C53.9271 146.575 59.2548 151.897 68.2013 154.974L69.0782 155.265C78.5544 158.29 90.1063 158.314 101.122 155.914C112.138 153.513 122.633 148.685 129.991 141.991C137.349 135.298 140.197 127.985 138.799 121.568L138.72 121.225C138.638 120.891 138.544 120.559 138.44 120.229C138.438 120.222 138.437 120.215 138.435 120.208L132.253 101.249L132.244 101.23C130.427 95.7259 125.209 91.0903 116.878 88.4304L116.025 88.1687ZM86.3438 88.0915C96.4976 85.8788 107.117 85.8346 115.942 88.4431L116.791 88.7038C125.078 91.3497 130.204 95.9427 131.978 101.339L132.114 101.293V101.294L131.978 101.339C131.979 101.344 131.984 101.348 131.986 101.353L138.155 120.274C138.156 120.281 138.158 120.289 138.16 120.296C138.266 120.626 138.36 120.958 138.441 121.293L138.52 121.629C139.889 127.911 137.112 135.126 129.799 141.779C122.486 148.431 112.041 153.241 101.062 155.634C90.0818 158.026 78.5822 157.999 69.1651 154.993L68.2931 154.704C59.4054 151.647 54.1779 146.384 52.8517 140.299L52.7833 139.961C52.7186 139.622 52.6666 139.281 52.6251 138.937H52.6231C52.6229 138.936 52.6224 138.934 52.6222 138.932L50.3575 119.139C50.3574 119.135 50.359 119.13 50.3585 119.126C49.7462 113.657 52.3084 107.565 58.3194 101.867L58.9122 101.317C65.8922 94.9673 75.8626 90.3757 86.3438 88.0915Z" fill="#588995"/>
<path d="M116.835 88.5675C125.853 91.4466 131.179 96.6355 132.5 102.697C133.821 108.759 131.136 115.693 124.133 122.064C110.127 134.806 84.1514 140.466 66.1146 134.708C57.0962 131.829 51.7699 126.64 50.4492 120.578C49.1284 114.517 51.8128 107.582 58.8158 101.211C72.8217 88.4697 98.7977 82.8089 116.835 88.5675Z" fill="#588995"/>
<path d="M116.024 88.1687C107.142 85.5431 96.472 85.5909 86.2832 87.8113C75.7659 90.1032 65.7457 94.7136 58.7197 101.105C51.6946 107.496 48.9743 114.479 50.3096 120.608C51.6033 126.546 56.6916 131.628 65.2334 134.566L66.0713 134.843C75.1192 137.732 86.1487 137.756 96.666 135.464C107.183 133.172 117.204 128.561 124.229 122.17C131.255 115.779 133.975 108.796 132.64 102.667C131.304 96.5376 125.925 91.3186 116.878 88.4304L116.024 88.1687ZM86.3438 88.0915C96.4975 85.8788 107.116 85.8346 115.942 88.4431L116.791 88.7038C125.781 91.5737 131.054 96.7333 132.36 102.727C133.666 108.721 131.018 115.607 124.037 121.958C117.057 128.308 107.087 132.899 96.6055 135.183C86.1242 137.467 75.147 137.441 66.1582 134.571C57.1685 131.701 51.8949 126.542 50.5889 120.548C49.2829 114.554 51.9315 107.668 58.9121 101.317C65.8921 94.9673 75.8626 90.3757 86.3438 88.0915Z" fill="#588995"/>
<path d="M99.4817 139.289L102.087 151.242C102.276 152.112 101.73 152.992 100.861 153.186C100.651 153.232 100.44 153.278 100.23 153.323C99.3591 153.509 98.4955 152.936 98.306 152.066L95.7009 140.113C95.5114 139.242 96.0673 138.405 96.9381 138.219C97.1485 138.174 97.3584 138.129 97.5688 138.082C98.4382 137.888 99.2923 138.419 99.4817 139.289ZM55.3401 131.019C55.7423 131.426 56.1703 131.823 56.6241 132.209C57.3021 132.786 57.972 133.925 58.0732 134.81L59.3347 145.832C59.4359 146.716 58.9554 146.98 58.3136 146.362C57.7511 145.821 57.2358 145.261 56.7672 144.684C56.2056 143.993 55.729 142.669 55.6273 141.784L54.4412 131.426C54.34 130.541 54.7141 130.385 55.3396 131.018L55.3401 131.019ZM85.5702 139.711C85.7406 139.703 85.9104 139.694 86.0808 139.685C86.9697 139.634 87.8137 140.285 87.9678 141.162L90.072 153.152C90.2262 154.029 89.6307 154.795 88.7413 154.838C88.5705 154.846 88.4001 154.854 88.2298 154.861C87.3399 154.897 86.493 154.195 86.3389 153.318L84.2376 141.355C84.0835 140.478 84.6804 139.754 85.5697 139.711L85.5702 139.711ZM63.8141 136.475C64.0164 136.559 64.2206 136.642 64.4277 136.723C65.2565 137.048 66.0338 137.994 66.1473 138.877L67.6379 150.452C67.7515 151.335 67.1655 151.804 66.3448 151.457C66.1201 151.363 65.8987 151.267 65.6797 151.168C64.8671 150.805 64.1338 149.756 64.0202 148.873L62.5459 137.42C62.4323 136.537 62.991 136.133 63.8136 136.474L63.8141 136.475ZM74.1852 139.222C74.3412 139.245 74.4977 139.266 74.6542 139.287C75.5369 139.405 76.361 140.19 76.4912 141.071L78.2452 152.927C78.3754 153.807 77.7637 154.441 76.8825 154.311C76.7212 154.287 76.5599 154.263 76.3996 154.237C75.5198 154.099 74.7058 153.247 74.5755 152.366L72.8292 140.562C72.6989 139.681 73.3039 139.095 74.1852 139.222ZM128.507 123.046L131.931 134.074C132.195 134.925 131.964 136.183 131.377 136.852C131.219 137.032 131.058 137.211 130.893 137.39C130.291 138.045 129.562 137.862 129.298 137.011L125.838 125.869C125.574 125.018 125.886 123.834 126.505 123.194C126.659 123.034 126.811 122.873 126.96 122.713C127.567 122.061 128.243 122.195 128.507 123.046L128.507 123.046ZM133.381 114.216L136.614 124.136C136.889 124.982 137.006 126.384 136.783 127.246C136.596 127.965 136.36 128.689 136.073 129.416C135.746 130.244 135.199 130.205 134.924 129.358L131.484 118.808C131.208 117.961 131.344 116.648 131.722 115.841C131.975 115.3 132.201 114.76 132.397 114.22C132.702 113.384 133.105 113.369 133.381 114.216ZM120.463 130.181L123.786 141.639C124.034 142.494 123.649 143.609 122.907 144.101C122.771 144.192 122.635 144.281 122.497 144.37C121.751 144.855 120.931 144.534 120.682 143.678L117.344 132.167C117.096 131.312 117.52 130.256 118.273 129.781C118.407 129.697 118.54 129.612 118.672 129.527C119.421 129.045 120.214 129.325 120.462 130.18L120.463 130.181ZM110.422 135.649L113.49 147.402C113.714 148.264 113.236 149.255 112.412 149.591C112.253 149.656 112.094 149.72 111.935 149.784C111.107 150.114 110.247 149.663 110.022 148.802L106.948 137.027C106.722 136.165 107.219 135.222 108.049 134.898C108.209 134.835 108.368 134.772 108.527 134.708C109.353 134.377 110.197 134.787 110.422 135.649Z" fill="#588995"/>
<path d="M86.0722 139.542H86.0731C85.9044 139.551 85.7358 139.559 85.5673 139.567C85.5658 139.567 85.5639 139.567 85.5624 139.567C84.6508 139.612 84.0111 140.318 84.0741 141.2L84.0966 141.379L86.1981 153.343C86.3539 154.229 87.1612 154.948 88.0556 155.002L88.2353 155.004L88.748 154.981C89.7257 154.934 90.3814 154.086 90.2128 153.127L88.1083 141.138L88.0692 140.962C87.828 140.102 86.9714 139.491 86.0722 139.542ZM86.2411 139.826C87.0018 139.857 87.6947 140.434 87.8271 141.188L89.9306 153.177C90.0701 153.971 89.5352 154.656 88.7343 154.695L88.2235 154.718L88.0712 154.716C87.3121 154.669 86.6127 154.052 86.4794 153.294L84.3788 141.33L84.3603 141.184C84.3072 140.463 84.8193 139.892 85.5731 139.854C85.5744 139.854 85.5758 139.855 85.5771 139.855L86.0888 139.827L86.2411 139.826ZM74.0302 139.064C73.6269 139.045 73.2747 139.169 73.0273 139.412C72.7796 139.655 72.6508 140.003 72.6698 140.406L72.6874 140.582L74.4335 152.388C74.5038 152.863 74.7568 153.322 75.1034 153.68C75.4502 154.038 75.9012 154.303 76.3778 154.378L76.3769 154.379L76.8612 154.452C77.3411 154.523 77.7629 154.387 78.0458 154.098C78.3281 153.809 78.4573 153.383 78.3866 152.905L76.6327 141.05L76.5976 140.874C76.3826 140.002 75.5572 139.264 74.6728 139.146L74.206 139.08L74.0302 139.064ZM74.0165 139.35L74.1649 139.364L74.6347 139.429C75.4053 139.532 76.132 140.187 76.3192 140.939L76.3495 141.092L78.1034 152.947C78.163 153.35 78.0518 153.682 77.8407 153.897C77.63 154.113 77.3046 154.228 76.9032 154.169L76.4218 154.096L76.2714 154.064C75.921 153.974 75.5833 153.763 75.3095 153.48C74.9968 153.158 74.7767 152.751 74.7167 152.346L72.9706 140.541L72.956 140.394C72.9399 140.06 73.0473 139.794 73.2284 139.616C73.41 139.438 73.6804 139.334 74.0165 139.35ZM99.5741 139.085C99.298 138.24 98.4236 137.745 97.538 137.942L96.9081 138.079C96.0209 138.268 95.4309 139.082 95.5312 139.966L95.5605 140.143L98.1659 152.097C98.3718 153.041 99.3099 153.665 100.26 153.463L100.892 153.325C101.839 153.114 102.432 152.156 102.226 151.211L99.621 139.258L99.5741 139.085ZM97.5995 138.222C98.344 138.056 99.0728 138.471 99.3026 139.175L99.3417 139.319L101.947 151.272C102.12 152.067 101.619 152.87 100.829 153.046L100.2 153.183C99.4085 153.351 98.6193 152.83 98.4462 152.035L95.8407 140.082L95.8163 139.935C95.7326 139.199 96.2221 138.518 96.9677 138.359L97.5995 138.222ZM63.8681 136.342C63.4324 136.161 63.0277 136.163 62.7431 136.373C62.4929 136.558 62.3748 136.876 62.3896 137.267L62.4042 137.439L63.8778 148.892C63.9383 149.362 64.1622 149.867 64.4716 150.299C64.742 150.677 65.0853 151.01 65.4589 151.218L65.621 151.299C65.841 151.398 66.0632 151.495 66.289 151.59V151.589C66.7298 151.775 67.1409 151.755 67.4296 151.528C67.717 151.303 67.8409 150.906 67.7802 150.434L66.289 138.858L66.1474 138.877L66.0048 138.895V138.896L67.496 150.47C67.5488 150.88 67.4351 151.16 67.2528 151.303C67.0718 151.445 66.7799 151.485 66.4003 151.325L65.7382 151.038L65.5976 150.967C65.2708 150.785 64.9569 150.486 64.704 150.133C64.4152 149.729 64.2152 149.268 64.162 148.855L62.6874 137.401L62.6757 137.254C62.6632 136.926 62.7648 136.714 62.914 136.604C63.0854 136.477 63.3707 136.446 63.7558 136.605C63.7569 136.605 63.7575 136.607 63.7587 136.607L64.3759 136.855L64.3749 136.856C64.7616 137.008 65.1444 137.309 65.4442 137.681C65.7441 138.053 65.9521 138.486 66.0048 138.895L66.289 138.858C66.228 138.384 65.9911 137.903 65.6669 137.501C65.3427 137.099 64.9223 136.763 64.4804 136.59H64.4794C64.2739 136.509 64.0718 136.426 63.871 136.343L63.8681 136.342ZM110.506 135.441C110.196 134.612 109.321 134.236 108.474 134.575L107.997 134.765L107.833 134.838C107.091 135.214 106.643 136.063 106.772 136.887L106.809 137.064L109.884 148.838C110.114 149.721 110.962 150.216 111.816 149.976L111.987 149.917L112.466 149.724H112.467C113.359 149.359 113.87 148.295 113.628 147.366L110.56 135.612L110.506 135.441ZM108.58 134.842C109.329 134.542 110.08 134.91 110.283 135.686L113.35 147.439C113.558 148.233 113.114 149.15 112.358 149.459L111.882 149.651L111.742 149.699C111.043 149.897 110.352 149.498 110.161 148.766L107.086 136.99L107.055 136.842C106.946 136.145 107.328 135.416 107.961 135.094L108.1 135.031C108.261 134.969 108.421 134.905 108.58 134.841V134.842ZM54.9853 130.563C54.8463 130.493 54.6951 130.461 54.5595 130.522C54.4221 130.582 54.3471 130.717 54.3114 130.867C54.2845 130.981 54.2766 131.118 54.2851 131.276L54.2987 131.442L55.4853 141.801C55.5378 142.258 55.6863 142.822 55.8915 143.358C56.0707 143.827 56.2961 144.283 56.5468 144.632L56.6562 144.774C57.0103 145.21 57.3907 145.637 57.7978 146.053L58.2148 146.465C58.384 146.628 58.5511 146.741 58.7099 146.799C58.8698 146.857 59.0309 146.861 59.1698 146.787C59.3078 146.714 59.3972 146.579 59.4452 146.415C59.4931 146.252 59.5031 146.048 59.4765 145.815L58.2157 134.793L58.1884 134.615C58.1102 134.195 57.9262 133.741 57.6894 133.323C57.4184 132.845 57.0713 132.402 56.7167 132.101L56.3837 131.811C56.0553 131.519 55.7417 131.221 55.4423 130.918H55.4413L55.3212 130.803C55.2033 130.696 55.0909 130.615 54.9853 130.563ZM54.6757 130.783C54.6991 130.773 54.7534 130.767 54.8573 130.818C54.9336 130.857 55.0245 130.921 55.1288 131.015L55.2372 131.119H55.2382C55.542 131.427 55.8604 131.729 56.1933 132.024L56.5312 132.318C56.8545 132.593 57.1816 133.008 57.4403 133.465C57.6669 133.865 57.8364 134.287 57.9071 134.666L57.9306 134.826L59.1923 145.848C59.2162 146.057 59.2045 146.219 59.1708 146.334C59.1372 146.449 59.0855 146.507 59.036 146.533C58.9874 146.559 58.9139 146.568 58.8065 146.529C58.698 146.49 58.5645 146.405 58.413 146.259L58.0028 145.853C57.6016 145.443 57.2264 145.023 56.8778 144.594L56.7782 144.463C56.548 144.142 56.3324 143.711 56.1581 143.256C55.9593 142.736 55.8186 142.196 55.7694 141.769L54.5829 131.409L54.5702 131.26C54.5628 131.121 54.5708 131.012 54.5898 130.933C54.6153 130.825 54.6541 130.793 54.6757 130.783ZM119.804 129.218C119.431 129.083 118.999 129.147 118.595 129.407L118.197 129.66L118.051 129.762C117.386 130.27 117.009 131.209 117.165 132.032L117.207 132.207L120.545 143.718C120.679 144.182 120.974 144.515 121.351 144.66C121.682 144.787 122.06 144.764 122.422 144.579L122.575 144.49C122.713 144.401 122.85 144.311 122.986 144.221L122.827 143.982C122.692 144.072 122.557 144.161 122.42 144.25L122.292 144.324C121.994 144.476 121.7 144.488 121.454 144.394C121.172 144.285 120.934 144.03 120.82 143.639L117.481 132.127L117.446 131.977C117.313 131.265 117.642 130.436 118.222 129.991L118.35 129.902L118.75 129.647C119.094 129.426 119.434 129.389 119.707 129.487C119.979 129.586 120.212 129.829 120.325 130.221L123.648 141.679C123.763 142.073 123.733 142.535 123.583 142.959C123.433 143.383 123.168 143.757 122.828 143.982H122.827L122.907 144.102L122.986 144.221C123.388 143.954 123.686 143.524 123.852 143.054C124.019 142.583 124.058 142.06 123.924 141.599L120.6 130.141L120.597 130.13C120.461 129.672 120.174 129.352 119.804 129.218ZM128.508 123.045H128.507L128.643 123.003C128.503 122.551 128.24 122.249 127.892 122.176C127.545 122.103 127.177 122.27 126.855 122.615L127.065 122.811C127.35 122.504 127.623 122.412 127.832 122.456C128.039 122.5 128.246 122.69 128.37 123.088V123.089L131.795 134.117C131.918 134.515 131.928 135.017 131.833 135.504C131.738 135.992 131.541 136.448 131.268 136.758H131.269L130.788 137.292V137.293L130.683 137.397C130.44 137.615 130.198 137.673 130.002 137.626C129.776 137.571 129.557 137.364 129.434 136.969L125.975 125.826L125.934 125.675C125.856 125.313 125.876 124.893 125.979 124.487C126.082 124.082 126.265 123.7 126.503 123.411L126.608 123.293L127.064 122.811H127.065L126.96 122.713L126.855 122.615C126.707 122.775 126.556 122.935 126.403 123.094H126.402C126.072 123.436 125.829 123.916 125.702 124.417C125.591 124.855 125.565 125.321 125.655 125.736L125.701 125.911L129.161 137.054C129.302 137.509 129.579 137.818 129.934 137.904C130.291 137.991 130.675 137.839 130.999 137.486V137.485C131.164 137.306 131.326 137.127 131.484 136.947V136.946L131.377 136.853L131.37 136.846L131.484 136.946C131.799 136.588 132.013 136.08 132.114 135.559C132.216 135.037 132.209 134.485 132.068 134.032L128.643 123.004V123.003L128.508 123.045ZM132.897 113.443C132.749 113.445 132.625 113.537 132.528 113.658C132.454 113.75 132.386 113.871 132.323 114.017L132.262 114.171L132.11 114.573C131.954 114.975 131.781 115.377 131.593 115.78L131.521 115.944C131.363 116.339 131.257 116.818 131.215 117.297C131.173 117.775 131.194 118.265 131.298 118.68L131.348 118.853L134.787 129.402C134.86 129.625 134.954 129.806 135.065 129.935C135.177 130.064 135.315 130.149 135.471 130.158C135.628 130.167 135.773 130.097 135.894 129.978C135.985 129.889 136.066 129.77 136.138 129.624L136.206 129.469C136.423 128.92 136.611 128.372 136.771 127.826L136.922 127.281C137.039 126.83 137.064 126.247 137.028 125.676C136.992 125.103 136.892 124.528 136.75 124.091L133.517 114.172L133.461 114.016C133.403 113.868 133.338 113.747 133.267 113.654C133.172 113.532 133.048 113.441 132.897 113.443ZM132.901 113.731C132.924 113.73 132.972 113.743 133.04 113.83C133.09 113.895 133.143 113.99 133.194 114.119L133.244 114.261L136.477 124.18C136.611 124.589 136.707 125.139 136.742 125.694C136.777 126.25 136.751 126.8 136.644 127.21L136.496 127.746C136.339 128.283 136.153 128.822 135.939 129.363L135.881 129.499C135.82 129.623 135.756 129.713 135.694 129.773C135.613 129.853 135.542 129.875 135.487 129.872C135.431 129.869 135.36 129.837 135.282 129.747C135.203 129.656 135.125 129.514 135.059 129.314L131.62 118.764L131.575 118.608C131.482 118.235 131.46 117.78 131.5 117.322C131.54 116.865 131.642 116.415 131.787 116.052L131.851 115.902C132.106 115.357 132.334 114.813 132.531 114.27L132.587 114.129C132.642 114 132.698 113.903 132.752 113.837C132.825 113.747 132.876 113.731 132.901 113.731Z" fill="#588995"/>
<path d="M114.53 89.8067C122.785 92.442 127.66 97.1914 128.868 102.74C130.077 108.288 127.62 114.635 121.21 120.466C108.39 132.128 84.615 137.309 68.1065 132.039C59.8519 129.404 54.977 124.654 53.7679 119.106C52.5589 113.558 55.0161 107.21 61.426 101.379C74.2458 89.717 98.0212 84.5362 114.53 89.8067Z" fill="#C4DAE6"/>
<path d="M114.574 89.6701C106.29 87.0254 96.1924 87.0056 86.5645 89.1037C76.9366 91.2018 67.763 95.4217 61.3301 101.274C54.898 107.125 52.4042 113.521 53.628 119.137C54.8136 124.577 59.4754 129.231 67.2959 131.921L68.0625 132.175C76.3464 134.82 86.4444 134.841 96.0723 132.742C105.399 130.71 114.3 126.685 120.695 121.115L121.307 120.571C127.739 114.721 130.232 108.325 129.008 102.709L128.883 102.185C127.474 96.7966 122.598 92.2318 114.574 89.6701ZM86.625 89.383C96.2169 87.2928 106.261 87.3178 114.486 89.9435C122.455 92.4876 127.23 96.9968 128.606 102.259L128.729 102.77C129.923 108.25 127.502 114.549 121.114 120.36L120.507 120.9C114.156 126.43 105.303 130.437 96.0108 132.462C86.4192 134.552 76.375 134.528 68.1504 131.903C59.9246 129.276 55.1026 124.556 53.9082 119.075C52.714 113.595 55.135 107.296 61.5225 101.486C67.9094 95.6753 77.0332 91.4732 86.625 89.383Z" fill="#588995"/>
<path d="M46.986 64.7855L53.5572 117.986C52.8873 112.716 55.4285 106.826 61.4076 101.384C74.2288 89.7227 98.0037 84.5414 114.512 89.8114C122.22 92.2735 126.982 96.5753 128.561 101.654H128.564L112.397 50.5304C111.009 46.1169 106.86 42.3742 100.153 40.2319C85.7555 35.637 65.0181 40.156 53.8354 50.3258C51.233 52.6948 49.3746 55.1625 48.2447 57.6102C47.1115 60.0584 46.7012 62.4909 46.9865 64.7855H46.986Z" fill="#ECF8FF"/>
<path d="M99.5142 39.8857C92.418 37.7892 83.8957 37.8292 75.7583 39.6025C67.3584 41.4331 59.3531 45.114 53.7388 50.2197L53.2573 50.667C50.8943 52.909 49.183 55.2358 48.1147 57.5498L47.9087 58.0127C46.9463 60.2694 46.5929 62.5112 46.8276 64.6426H46.8237L46.8442 64.8027L53.4155 118.004L53.6997 117.969L53.6938 117.914C53.0758 112.883 55.4119 107.259 60.9556 102L61.5034 101.49C67.8911 95.6802 77.0161 91.479 86.6079 89.3887C95.8999 87.3637 105.617 87.3226 113.692 89.709L114.468 89.9482C122.149 92.4017 126.864 96.6779 128.424 101.696L128.456 101.797H128.759L128.701 101.61L112.533 50.4873L112.393 50.0703C110.862 45.7807 106.72 42.1794 100.196 40.0957L99.5142 39.8857ZM75.8188 39.8818C83.9211 38.1162 92.3929 38.0806 99.4321 40.1602L100.109 40.3682C106.581 42.4352 110.632 45.9885 112.124 50.167L112.26 50.5732L127.585 99.0342C125.354 95.0383 120.958 91.7198 114.555 89.6748L113.773 89.4346C105.641 87.0313 95.8732 87.0758 86.5464 89.1084C76.9185 91.2066 67.7446 95.4266 61.311 101.278L60.7583 101.792C56.1503 106.163 53.7147 110.814 53.3579 115.2L47.1479 64.9287H47.1489L47.1284 64.7676L47.0835 64.3418C46.9122 62.345 47.2678 60.2461 48.1724 58.125L48.3745 57.6699C49.4248 55.3947 51.1127 53.0969 53.4546 50.875L53.9321 50.4316C59.5005 45.3678 67.4552 41.7045 75.8188 39.8818Z" fill="#588995"/>
<path d="M58.5157 110.788C57.5079 106.165 59.5549 100.876 64.8965 96.0168C75.5782 86.2994 95.3904 81.9818 109.146 86.3734C116.025 88.5692 120.087 92.5261 121.094 97.15C121.706 99.957 121.931 100.988 122.543 103.796C123.55 108.419 121.502 113.708 116.162 118.566C105.479 128.284 85.6678 132.601 71.9109 128.21C65.032 126.014 60.971 122.056 59.9638 117.433C59.3521 114.626 59.1274 113.595 58.5157 110.788V110.788Z" fill="#588995"/>
<path d="M108.538 86.0368C101.757 84.0326 93.6134 84.07 85.8385 85.7644C77.8127 87.5134 70.1642 91.0312 64.8004 95.9108L64.3072 96.3698C59.3096 101.123 57.3852 106.274 58.3756 110.818L59.8238 117.464C60.8458 122.154 64.9602 126.141 71.8678 128.346C78.7756 130.551 87.1938 130.568 95.2193 128.819C102.994 127.125 110.415 123.77 115.749 119.126L116.258 118.672C121.62 113.793 123.704 108.456 122.682 103.765L121.234 97.1189L121.129 96.6814C119.952 92.1802 115.881 88.373 109.189 86.237L108.538 86.0368ZM85.899 86.0437C93.6389 84.3569 101.731 84.324 108.456 86.3112L109.102 86.5095C115.738 88.6277 119.709 92.3798 120.853 96.7546L120.955 97.1804L122.403 103.826C123.395 108.381 121.383 113.623 116.065 118.461L115.56 118.91C110.272 123.515 102.899 126.852 95.1588 128.539C87.1691 130.28 78.8035 130.259 71.9547 128.073L71.3209 127.863C64.8569 125.64 61.0656 121.815 60.1041 117.402L58.6559 110.757C57.6942 106.344 59.5507 101.288 64.5035 96.5769L64.9928 96.1228C70.3107 91.2849 77.9094 87.7849 85.899 86.0437Z" fill="#588995"/>
<path d="M109.146 86.3736C116.025 88.5694 120.087 92.5268 121.094 97.1503C122.101 101.773 120.054 107.062 114.713 111.922C104.03 121.639 84.2185 125.957 70.4621 121.565C63.5837 119.369 59.5218 115.412 58.5146 110.788C57.5073 106.165 59.5547 100.876 64.8958 96.0171C75.578 86.2992 95.3898 81.9816 109.146 86.3736Z" fill="#C4DAE6"/>
<path d="M108.538 86.0369C101.757 84.0324 93.613 84.0701 85.8379 85.7645C77.8122 87.5135 70.1639 91.0312 64.7998 95.911L64.3067 96.3699C59.4706 100.97 57.5123 105.942 58.2881 110.377L58.375 110.819C59.3652 115.363 63.2577 119.246 69.7793 121.489L70.419 121.701C77.3267 123.906 85.7448 123.923 93.7705 122.174C101.546 120.479 108.966 117.125 114.299 112.48L114.809 112.027C120.172 107.148 122.255 101.81 121.233 97.1199L121.129 96.6824C119.952 92.1814 115.881 88.3733 109.189 86.2371L108.538 86.0369ZM85.8985 86.0438C93.6385 84.357 101.731 84.3239 108.456 86.3114L109.103 86.5096C115.738 88.6279 119.708 92.3811 120.852 96.7557L120.954 97.1805C121.947 101.736 119.935 106.976 114.616 111.815L114.111 112.265C108.823 116.871 101.45 120.208 93.71 121.894C85.7203 123.635 77.3545 123.615 70.5059 121.429C63.6561 119.242 59.6469 115.314 58.6543 110.758L58.5704 110.329C57.8161 106.019 59.7102 101.137 64.503 96.578L64.9922 96.1229C70.3103 91.2849 77.9088 87.785 85.8985 86.0438Z" fill="#588995"/>
<path d="M80.6675 97.8328C80.428 96.733 80.9147 95.4752 82.1853 94.3191C84.7261 92.0079 89.4388 90.9806 92.7105 92.0255C94.3466 92.548 95.3128 93.4889 95.5528 94.5887C95.6984 95.2562 97.1627 101.975 97.3082 102.643C97.5477 103.743 97.0606 105.001 95.7904 106.157C93.2492 108.468 88.537 109.496 85.2648 108.451C83.6286 107.928 82.6624 106.987 82.4229 105.887C82.2774 105.22 80.813 98.5008 80.6675 97.8328Z" fill="#588995"/>
<path d="M92.4376 91.7955C90.8362 91.3586 88.9461 91.3812 87.1437 91.774C85.2209 92.1931 83.3823 93.037 82.089 94.2135L81.8556 94.4352C80.8084 95.4779 80.3517 96.6074 80.4894 97.6432L80.5275 97.8629L82.2833 105.918C82.5376 107.085 83.557 108.056 85.2218 108.588C86.8873 109.119 88.9097 109.122 90.8321 108.703C92.6346 108.31 94.363 107.544 95.6378 106.48L95.8868 106.263C97.1793 105.087 97.7026 103.78 97.4484 102.613L95.6925 94.5582L95.6359 94.3414C95.3078 93.2712 94.3146 92.3876 92.754 91.8893L92.4376 91.7955ZM87.2042 92.0533C88.9729 91.6679 90.8146 91.65 92.3614 92.0719L92.6671 92.1617C94.1741 92.643 95.0706 93.4748 95.3624 94.4274L95.4132 94.6197L97.1681 102.673C97.3929 103.706 96.9423 104.916 95.6945 106.051L95.4542 106.26C94.2228 107.288 92.5403 108.037 90.7716 108.422C88.885 108.834 86.9152 108.827 85.3087 108.314C83.7013 107.801 82.7874 106.889 82.5626 105.857L80.8077 97.8024L80.7736 97.607C80.6511 96.6854 81.0514 95.6403 82.0568 94.6393L82.2814 94.4254C83.5288 93.2907 85.3176 92.4645 87.2042 92.0533Z" fill="#588995"/>
<path d="M92.7105 92.0256C94.3466 92.5481 95.3128 93.4895 95.5524 94.5888C95.7919 95.6886 95.3047 96.9463 94.0346 98.1025C91.4938 100.414 86.7811 101.441 83.5089 100.396C81.8728 99.8736 80.9066 98.9322 80.6671 97.8329C80.4275 96.7331 80.9142 95.4753 82.1848 94.3192C84.7256 92.0075 89.4383 90.9807 92.7105 92.0256Z" fill="#588995"/>
<path d="M92.754 91.8892C91.0884 91.3573 89.0655 91.355 87.1427 91.7739C85.2201 92.1929 83.3822 93.0368 82.089 94.2134L81.8556 94.4351C80.8083 95.4778 80.3508 96.6072 80.4884 97.6431L80.5275 97.8638C80.7819 99.0305 81.8014 100.001 83.4659 100.533C85.1314 101.064 87.1537 101.067 89.0763 100.648C90.8788 100.255 92.6073 99.489 93.882 98.4253L94.131 98.2085C95.4234 97.0322 95.9467 95.7255 95.6925 94.5581L95.6359 94.3423C95.3084 93.272 94.315 92.3876 92.754 91.8892ZM87.2042 92.0532C89.0909 91.6422 91.0607 91.6487 92.6671 92.1616C94.1741 92.6429 95.071 93.475 95.3624 94.4273L95.4122 94.6196C95.6369 95.6518 95.1863 96.8609 93.9386 97.9966L93.6984 98.2056C92.4671 99.233 90.7846 99.9822 89.0157 100.368C87.129 100.779 85.1594 100.772 83.5529 100.259C81.9454 99.746 81.0316 98.834 80.8068 97.8023L80.7726 97.6069C80.6502 96.6852 81.0513 95.6402 82.0568 94.6392L82.2814 94.4253C83.5288 93.2903 85.3175 92.4644 87.2042 92.0532Z" fill="#588995"/>
<path opacity="0.1" d="M61.6609 80.9873C60.7898 68.41 70.2796 57.5079 82.8569 56.6368C95.4342 55.7657 106.336 65.2554 107.207 77.8327C108.078 90.41 98.5888 101.312 86.0115 102.183C73.4341 103.054 62.5321 93.5646 61.6609 80.9873Z" fill="#F35F5F"/>
<path opacity="0.1" d="M82.8666 56.7793C95.3649 55.9137 106.199 65.3441 107.064 77.8423C107.93 90.3408 98.4998 101.174 86.0014 102.04C73.5031 102.906 62.6693 93.4754 61.8036 80.9771C60.9382 68.4789 70.3685 57.6452 82.8666 56.7793ZM82.8468 56.4939C70.1909 57.3706 60.6418 68.341 61.5182 80.9969C62.3947 93.6529 73.3652 103.203 86.0212 102.326C98.6774 101.45 108.227 90.4786 107.351 77.8225C106.474 65.1665 95.5029 55.6173 82.8468 56.4939Z" fill="#588995"/>
<path opacity="0.1" d="M72.5831 90.3978C66.5146 83.8529 66.9008 73.6278 73.4457 67.5594C79.9905 61.4909 90.2156 61.8771 96.2841 68.422C102.353 74.9668 101.966 85.1919 95.4215 91.2604C88.8766 97.3288 78.6515 96.9426 72.5831 90.3978Z" fill="#F35F5F"/>
<path opacity="0.1" d="M73.5426 67.6644C80.0294 61.6498 90.164 62.0328 96.1788 68.5194C102.193 75.0063 101.811 85.1408 95.3238 91.1555C88.8369 97.1699 78.7023 96.7874 72.6877 90.3006C66.6734 83.8138 67.0561 73.6791 73.5426 67.6644ZM73.3481 67.4546C66.7457 73.5768 66.356 83.8924 72.4779 90.4951C78.6 97.0979 88.9162 97.488 95.519 91.3661C102.122 85.2439 102.512 74.927 96.3893 68.3242C90.2671 61.7217 79.9508 61.3325 73.3481 67.4546Z" fill="#588995"/>
<path d="M82.454 70.3261C91.8817 68.2716 94.6954 81.1882 96.2513 88.3214C96.2513 88.3224 96.2518 88.3233 96.2523 88.3248C97.3869 93.5318 94.0861 98.6725 88.8791 99.8071C83.6722 100.942 78.5315 97.6409 77.3969 92.4339C75.8424 85.2997 73.0263 72.3807 82.454 70.3261Z" fill="#F35F5F"/>
<path d="M88.4453 71.1472C86.7986 70.0928 84.8164 69.665 82.4238 70.1863C80.0311 70.7078 78.4063 71.9219 77.3477 73.5662C76.292 75.2059 75.805 77.2634 75.6641 79.4656C75.4176 83.3174 76.2277 87.6528 76.9541 91.0633L77.2568 92.4646C78.4085 97.7485 83.6252 101.098 88.9092 99.9471C94.1934 98.7956 97.544 93.578 96.3926 88.2937L96.3916 88.2908L96.3906 88.2869H96.3916C95.6146 84.7248 94.5176 79.6939 92.4307 75.8103C91.3862 73.8667 90.0874 72.1988 88.4453 71.1472ZM82.4844 70.4656C84.8054 69.9598 86.71 70.3761 88.291 71.3885C89.8766 72.4038 91.1467 74.0257 92.1787 75.9461C94.2437 79.789 95.3324 84.7805 96.1113 88.3513L96.1143 88.3504C96.1145 88.3517 96.114 88.3531 96.1143 88.3543L96.1123 88.3553C97.23 93.4849 93.9783 98.5489 88.8486 99.6668C83.7188 100.785 78.6539 97.5329 77.5361 92.4031L77.2334 91.0017C76.5078 87.5939 75.7064 83.2947 75.9502 79.4842C76.0894 77.3082 76.5687 75.3048 77.5879 73.7215C78.6042 72.1428 80.1633 70.9714 82.4844 70.4656ZM96.2861 88.3133L96.2637 88.3211H96.2617L96.2832 88.3142L96.2861 88.3133Z" fill="#588995"/>
<path d="M82.454 70.3261C91.8817 68.2716 94.6954 81.1882 96.2513 88.3214C96.2513 88.3224 96.2518 88.3233 96.2523 88.3248C97.3869 93.5318 94.0861 98.6725 88.8791 99.8071C83.6722 100.942 78.5315 97.6409 77.3969 92.4339C75.8424 85.2997 73.0263 72.3807 82.454 70.3261Z" fill="#F35F5F"/>
<path d="M88.4453 71.1472C86.7986 70.0928 84.8164 69.665 82.4238 70.1863C80.0311 70.7078 78.4063 71.9219 77.3477 73.5662C76.292 75.2059 75.805 77.2634 75.6641 79.4656C75.4176 83.3174 76.2277 87.6528 76.9541 91.0633L77.2568 92.4646C78.4085 97.7485 83.6252 101.098 88.9092 99.9471C94.1934 98.7956 97.544 93.578 96.3926 88.2937L96.3916 88.2908L96.3906 88.2869H96.3916C95.6146 84.7248 94.5176 79.6939 92.4307 75.8103C91.3862 73.8667 90.0874 72.1988 88.4453 71.1472ZM82.4844 70.4656C84.8054 69.9598 86.71 70.3761 88.291 71.3885C89.8766 72.4038 91.1467 74.0257 92.1787 75.9461C94.2437 79.789 95.3324 84.7805 96.1113 88.3513L96.1143 88.3504C96.1145 88.3517 96.114 88.3531 96.1143 88.3543L96.1123 88.3553C97.23 93.4849 93.9783 98.5489 88.8486 99.6668C83.7188 100.785 78.6539 97.5329 77.5361 92.4031L77.2334 91.0017C76.5078 87.5939 75.7064 83.2947 75.9502 79.4842C76.0894 77.3082 76.5687 75.3048 77.5879 73.7215C78.6042 72.1428 80.1633 70.9714 82.4844 70.4656ZM96.2861 88.3133L96.2637 88.3211H96.2617L96.2832 88.3142L96.2861 88.3133Z" fill="#588995"/>
<path opacity="0.6" d="M78.3441 83.6861C78.0449 83.6355 77.7457 83.4332 77.5902 83.2118C77.365 82.8907 77.2924 82.4894 77.2428 82.1006C76.9713 79.9615 77.3282 77.8626 78.0959 75.8634C78.8517 73.8957 80.2598 72.2252 82.394 71.7614C83.2824 71.5682 84.2701 71.531 85.0402 72.0134C85.3432 72.2033 85.6104 72.4905 85.6643 72.8436C85.7011 73.0826 85.6367 73.3264 85.5417 73.5488C84.9858 74.8461 83.5248 75.444 82.4183 76.32C80.5814 77.7734 79.8986 80.4086 79.3518 82.5973C79.2516 82.999 79.1108 83.5673 78.6456 83.6799C78.5492 83.7033 78.4466 83.7037 78.3445 83.6861H78.3441ZM79.2649 85.2344C79.3064 85.3003 79.3403 85.3761 79.3647 85.462C79.6877 86.5971 77.8932 87.1081 77.4671 86.0723C77.0558 85.0717 78.7501 84.4152 79.2649 85.2344Z" fill="#ECF8FF"/>
<path opacity="0.6" d="M79.3858 85.1578C79.0742 84.6627 78.4295 84.6393 77.9619 84.8394C77.7223 84.942 77.5058 85.1105 77.3779 85.3326C77.2636 85.5312 77.2245 85.7667 77.2969 86.0181L77.335 86.1265C77.5852 86.7348 78.2318 86.8721 78.7383 86.7183C78.9945 86.6405 79.2318 86.4854 79.3828 86.2622C79.5363 86.0354 79.5941 85.7463 79.502 85.4224C79.4881 85.3734 79.4716 85.3268 79.4522 85.2828L79.3858 85.1578ZM78.0752 85.1021C78.4805 84.9288 78.9403 84.9875 79.1436 85.3111L79.1904 85.398C79.2044 85.4297 79.2161 85.4646 79.2266 85.5015L79.2481 85.5904C79.2845 85.7943 79.2378 85.9657 79.1455 86.1021C79.0376 86.2613 78.8603 86.3816 78.6553 86.4439C78.2389 86.5703 77.7756 86.4454 77.5996 86.0181L77.5723 85.941C77.5209 85.7646 77.5495 85.6081 77.626 85.4751C77.7162 85.3185 77.8786 85.1862 78.0752 85.1021ZM84.96 71.8023C84.1683 71.3857 83.2059 71.4383 82.3633 71.6216L82.1602 71.6704C80.0772 72.2072 78.7042 73.8795 77.9619 75.812L77.8223 76.1919C77.1906 77.9677 76.885 79.8217 77.0567 81.7124L77.1006 82.1187C77.144 82.4588 77.2071 82.8332 77.3877 83.1578L77.4727 83.2945C77.6492 83.5457 77.9818 83.7704 78.3203 83.8277L78.332 83.8296H78.3428C78.4242 83.8419 78.5074 83.8457 78.5899 83.8355L78.6797 83.8189C78.9687 83.7488 79.1471 83.5375 79.2627 83.312C79.32 83.2003 79.365 83.0798 79.4014 82.9624L79.4902 82.6324C79.7639 81.537 80.0695 80.3412 80.5332 79.2388C80.9679 78.2056 81.5379 77.2633 82.3428 76.5679L82.5068 76.4322C82.7782 76.2173 83.0729 76.0183 83.374 75.8189C83.6736 75.6205 83.9815 75.4207 84.2715 75.2076C84.8517 74.7811 85.3799 74.2887 85.6729 73.605L85.4102 73.4927C85.1472 74.1062 84.6673 74.5613 84.1016 74.9771C83.8187 75.185 83.5187 75.38 83.2158 75.5806C82.9145 75.7801 82.6109 75.9844 82.3291 76.2076L82.1563 76.3511C81.3055 77.086 80.7137 78.0718 80.2695 79.1275C79.796 80.2531 79.486 81.4698 79.2129 82.563L79.1279 82.8775C79.0952 82.9832 79.0564 83.0875 79.0078 83.1822C78.9119 83.3689 78.7879 83.4979 78.6123 83.5406L78.4951 83.5552C78.4545 83.5559 78.4122 83.5529 78.3692 83.5454L78.3565 83.5425C78.1003 83.4953 77.8396 83.3181 77.707 83.1294L77.6377 83.0171C77.4877 82.7473 77.4282 82.4227 77.3848 82.0826L77.3418 81.687C77.1744 79.8441 77.4715 78.0316 78.0918 76.2876L78.2295 75.9146C78.9516 74.0347 80.2679 72.4529 82.2324 71.9468L82.4248 71.9009C83.2476 71.722 84.1254 71.6869 84.8262 72.0552L84.9639 72.1343C85.2494 72.3133 85.4773 72.5702 85.5225 72.8648V72.8658L85.6641 72.8433L85.8057 72.8218C85.7428 72.4105 85.4364 72.0928 85.1162 71.8921L84.96 71.8023ZM85.5225 72.8658C85.5532 73.0664 85.5006 73.2809 85.4102 73.4927L85.6133 73.5786L85.6729 73.605H85.6738L85.7422 73.4234C85.8034 73.2354 85.8376 73.0298 85.8057 72.8218L85.5225 72.8658Z" fill="#588995"/>
<g opacity="0.6">
<path d="M99.2673 41.0512C106.145 43.247 110.207 47.2044 111.214 51.8274C112.222 56.4504 110.174 61.739 104.833 66.5977C94.1514 76.3151 74.3406 80.6323 60.5846 76.2407C53.7067 74.0449 49.6448 70.0875 48.6375 65.4645C47.6303 60.8415 49.6777 55.5529 55.0188 50.6942C65.7005 40.9767 85.5113 36.6596 99.2673 41.0512Z" fill="#ECF8FF"/>
<path d="M72.5081 78.0952C84.2305 78.0952 97.0679 73.8558 104.93 66.7035C110.135 61.9679 112.417 56.674 111.354 51.7967C110.292 46.9199 106.015 43.0551 99.311 40.9151C85.5336 36.5163 65.6211 40.8559 54.9227 50.5886C49.7171 55.3242 47.4354 60.6181 48.498 65.4954C49.5606 70.3727 53.8377 74.2371 60.5415 76.3775C64.1945 77.5436 68.2788 78.0957 72.5081 78.0957V78.0952ZM87.3324 39.4803C91.536 39.4803 95.5926 40.0286 99.2237 41.1875C105.826 43.2951 110.035 47.0845 111.075 51.8578C112.115 56.6306 109.864 61.8281 104.737 66.4921C96.9253 73.5987 84.1675 77.8113 72.5201 77.8118C68.3165 77.8118 64.2598 77.2636 60.6288 76.1046C54.0266 73.9971 49.8178 70.2071 48.7776 65.4343C47.7379 60.6615 49.9886 55.464 55.115 50.8005C62.9272 43.6939 75.6849 39.4803 87.3324 39.4803Z" fill="#588995"/>
</g>
<g opacity="0.6">
<path d="M58.631 126.962C60.9981 129.04 64.1663 130.782 68.107 132.038C84.615 137.309 108.389 132.128 121.211 120.465C127.62 114.633 130.078 108.285 128.869 102.737C128.789 102.372 128.69 102.007 128.579 101.648H128.582L112.414 50.5254C112.515 50.8498 112.587 51.181 112.659 51.5116C113.713 56.3479 111.572 61.8804 105.984 66.9662C105.361 67.534 104.707 68.0836 104.027 68.6152C101.507 70.5839 100.401 73.8613 101.3 76.9298C104.078 86.4087 105.347 90.8613 107.569 98.8606C110.532 109.518 112.208 125.054 90.2124 131.389C75.12 135.734 64.0751 130.606 58.631 126.961V126.962Z" fill="#ECF8FF"/>
<path d="M82.416 134.235C96.4773 134.235 111.875 129.15 121.307 120.571C127.547 114.893 130.282 108.549 129.009 102.707C128.943 102.406 128.86 102.087 128.761 101.756H128.763L128.719 101.605L112.551 50.4819L112.278 50.5673C112.377 50.8861 112.449 51.2191 112.519 51.5417C113.608 56.5368 111.253 61.9772 105.888 66.8597C105.272 67.4194 104.616 67.9724 103.938 68.5021C101.34 70.5318 100.251 73.8556 101.163 76.9698C103.862 86.1782 105.15 90.6871 107.431 98.8987C110.457 109.782 111.96 124.976 90.1729 131.251C75.0375 135.608 63.9641 130.359 58.7108 126.842L58.5366 127.069C60.9905 129.223 64.196 130.941 68.0632 132.174C72.4433 133.572 77.344 134.235 82.416 134.235V134.235ZM128.408 101.573L128.442 101.691C128.559 102.068 128.655 102.43 128.729 102.768C129.98 108.506 127.275 114.754 121.115 120.36C108.348 131.972 84.588 137.15 68.151 131.902C65.3988 131.024 62.9874 129.9 60.9481 128.548C66.8603 131.853 77.0157 135.338 90.2525 131.526C100.012 128.716 106.114 123.758 108.387 116.79C110.475 110.389 108.999 103.47 107.707 98.8223C105.426 90.6089 104.137 86.0994 101.438 76.8897C100.559 73.889 101.609 70.6854 104.115 68.7282C104.799 68.1938 105.46 67.637 106.081 67.0721C111.021 62.5769 113.442 57.6018 113.019 52.9091L128.409 101.573H128.408Z" fill="#588995"/>
</g>
<g opacity="0.6">
<path d="M64.0765 79.5432C65.6014 79.8171 67.6111 79.9731 67.8053 81.5105C67.9442 82.6098 67.061 83.4615 66.226 84.025C64.1886 85.4001 62.0696 86.6917 60.9994 89.0073C60.7284 89.5937 60.528 90.2101 60.3529 90.8319C58.556 97.2107 59.4072 103.994 59.026 110.61C58.9773 111.452 58.8885 112.346 58.3685 113.009C56.4513 115.452 55.1778 111.776 54.9894 110.399C53.9325 102.682 52.7578 94.9815 52.2429 87.2046C52.0464 84.234 51.8751 81.2323 51.9237 78.254C51.9757 75.0629 54.2317 76.6265 56.3444 77.439C58.8485 78.4019 61.436 79.0689 64.0765 79.5432Z" fill="#ECF8FF"/>
<path d="M57.1131 113.971C57.5664 113.971 58.0254 113.679 58.481 113.098C59.024 112.406 59.1185 111.494 59.1691 110.619C59.2903 108.513 59.2874 106.358 59.2841 104.274C59.2774 99.8155 59.2702 95.2049 60.4907 90.8715C60.7012 90.1248 60.8982 89.5684 61.1296 89.0679C62.1035 86.9609 64.0082 85.6845 65.8505 84.4501L66.3061 84.1438C67.5142 83.3279 68.0668 82.4361 67.9475 81.4928C67.76 80.0118 66.079 79.7332 64.5961 79.4869C64.4276 79.4588 64.2621 79.4316 64.1017 79.4025C61.2561 78.8915 58.7349 78.2053 56.3955 77.3055C56.0729 77.1814 55.747 77.0397 55.4264 76.9004C54.2636 76.3951 53.1657 75.9175 52.4614 76.3717C52.0191 76.6566 51.7958 77.2716 51.7801 78.2521C51.73 81.313 51.9104 84.3581 52.0993 87.2147C52.5364 93.8164 53.4634 100.471 54.36 106.907C54.5232 108.077 54.6863 109.248 54.8467 110.419C54.9793 111.388 55.663 113.617 56.8297 113.934C56.9236 113.959 57.0181 113.972 57.1126 113.972L57.1131 113.971ZM64.0512 79.6845C64.2129 79.7136 64.3799 79.7413 64.5493 79.7694C65.934 79.9989 67.5028 80.2594 67.6631 81.5291C67.7676 82.3565 67.2571 83.1566 66.1453 83.9072L65.6906 84.2125C63.8155 85.4688 61.8768 86.7676 60.8691 88.9477C60.631 89.4625 60.4297 90.0317 60.215 90.7937C58.9835 95.1657 58.9906 99.7964 58.9973 104.274C59.0006 106.355 59.004 108.506 58.8828 110.603C58.8346 111.432 58.7473 112.295 58.2553 112.922C57.782 113.524 57.3268 113.772 56.9046 113.657C55.9436 113.397 55.2646 111.361 55.1301 110.38C54.9698 109.209 54.8066 108.038 54.6434 106.867C53.7473 100.437 52.8207 93.7868 52.3846 87.1956C52.1957 84.3452 52.0158 81.3068 52.0659 78.2569C52.0802 77.3799 52.2601 76.8417 52.616 76.6127C53.1924 76.2419 54.2216 76.6895 55.3119 77.1633C55.6363 77.304 55.966 77.4476 56.2919 77.5727C58.6485 78.4792 61.1869 79.1701 64.0502 79.6845H64.0512Z" fill="#588995"/>
</g>
<g opacity="0.6">
<path d="M59.9268 115.92C60.5928 116.555 60.975 117.511 60.7513 118.49C60.3772 120.128 58.2348 120.819 56.8788 119.904C55.3496 118.873 55.2069 116.628 56.8001 115.565C57.876 114.847 59.1137 115.145 59.9268 115.92Z" fill="#ECF8FF"/>
<path d="M58.2651 120.454C58.6249 120.454 58.9913 120.387 59.3387 120.25C60.147 119.93 60.7124 119.301 60.8899 118.523C61.1108 117.556 60.7873 116.544 60.0248 115.817C59.2332 115.063 57.9044 114.656 56.7197 115.447C55.9615 115.953 55.5249 116.757 55.523 117.654C55.5206 118.598 55.9973 119.484 56.7979 120.024C57.2202 120.309 57.736 120.454 58.2651 120.454ZM59.8278 116.024C60.5167 116.681 60.8097 117.591 60.6112 118.459C60.4547 119.143 59.9528 119.699 59.2337 119.983C58.4627 120.288 57.5909 120.213 56.9578 119.786C56.2368 119.299 55.8074 118.502 55.8093 117.654C55.8112 116.854 56.201 116.136 56.8786 115.685C58.0046 114.933 59.1707 115.398 59.8273 116.024H59.8278Z" fill="#588995"/>
</g>
<g opacity="0.6">
<path d="M75.4944 43.0938C75.8427 43.2589 76.0226 43.4073 76.1982 43.6282C76.7259 44.2934 75.8914 45.1747 75.1561 45.5998C70.964 48.0227 66.5934 50.2533 63.0115 53.5112C59.4291 56.7691 56.6612 61.2986 56.781 66.1392C56.8077 67.2228 56.9771 68.2963 57.1107 69.3718C57.1747 69.8847 57.2286 70.4168 57.074 70.9101C56.9194 71.4035 56.5005 71.851 55.9837 71.8754C55.6053 71.893 55.2546 71.6893 54.944 71.4722C51.26 68.8971 50.1054 63.6862 51.3311 59.3614C52.5569 55.0366 55.727 51.513 59.2502 48.7222C63.4629 45.3851 73.3191 42.0613 75.4944 43.0938Z" fill="#ECF8FF"/>
<path d="M55.9377 72.0197C55.9554 72.0197 55.9726 72.0197 55.9902 72.0188C56.6081 71.9892 57.0557 71.4457 57.2103 70.9533C57.3696 70.4452 57.3209 69.907 57.2522 69.3544C57.2255 69.1397 57.1974 68.925 57.1692 68.7098C57.059 67.8667 56.9445 66.9955 56.9235 66.1357C56.818 61.85 59.072 57.2876 63.1072 53.6174C66.0827 50.9116 69.6641 48.8833 73.1271 46.9217C73.8295 46.5243 74.5309 46.1263 75.2275 45.7241C75.7385 45.4288 76.376 44.8715 76.49 44.2727C76.5416 44.0016 76.481 43.755 76.3106 43.5398C76.1097 43.2864 75.9055 43.1309 75.5563 42.9653C73.2808 41.886 63.3219 45.3147 59.1618 48.6103C54.9419 51.9532 52.2609 55.5575 51.194 59.3226C49.8423 64.0911 51.3515 69.135 54.8627 71.5898C55.1691 71.8036 55.5345 72.0197 55.9387 72.0197H55.9377ZM74.2699 43.0283C74.7551 43.0283 75.1512 43.0898 75.4332 43.2239C75.7834 43.39 75.9375 43.5307 76.0859 43.7177C76.2042 43.8666 76.2443 44.0307 76.2085 44.2192C76.1188 44.6906 75.5792 45.1902 75.0844 45.4765C74.3882 45.8787 73.6873 46.2757 72.9864 46.6731C69.5095 48.6423 65.9142 50.6787 62.9154 53.4061C58.8182 57.132 56.5303 61.7746 56.6377 66.1433C56.6592 67.0184 56.7746 67.8973 56.8858 68.7475C56.9139 68.9618 56.9421 69.176 56.9683 69.3902C57.0356 69.9299 57.0795 70.4142 56.9373 70.8679C56.8114 71.2687 56.4573 71.7106 55.9768 71.733C55.6428 71.7511 55.306 71.5507 55.0259 71.3551C51.2202 68.695 50.3557 63.3277 51.4684 59.4008C52.5185 55.6944 55.1667 52.1393 59.3388 48.8346C62.5843 46.2633 70.7586 43.0283 74.2699 43.0283Z" fill="#588995"/>
</g>
<path d="M91.5709 13.8706C92.1263 13.899 92.5509 14.3696 92.523 14.9231L91.9083 27.1709C91.8803 27.7244 91.4089 28.1503 90.8563 28.1226C90.7827 28.1189 90.7112 28.1074 90.643 28.089C90.1972 27.9681 89.8805 27.55 89.9043 27.07L90.519 14.8223C90.5469 14.2687 91.0183 13.8429 91.5709 13.8706ZM125.033 25.4075C125.335 24.9423 125.956 24.8082 126.421 25.1093C126.886 25.4104 127.02 26.0315 126.719 26.4967L120.063 36.7962C119.82 37.1722 119.368 37.3316 118.958 37.2204C118.86 37.1939 118.765 37.1523 118.676 37.0944C118.21 36.7933 118.077 36.1723 118.377 35.707L125.033 25.4075ZM55.7712 21.5625C56.2647 21.3102 56.8689 21.5051 57.1218 21.9983L62.7134 32.913C62.9658 33.4061 62.7712 34.0108 62.2775 34.2636C62.0462 34.3818 61.7906 34.402 61.558 34.339C61.2946 34.2675 61.0611 34.0895 60.9269 33.8277L55.3353 22.9131C55.0829 22.42 55.2775 21.8153 55.7712 21.5625ZM149.632 51.8318C150.125 51.5797 150.729 51.7743 150.983 52.2676C151.235 52.7607 151.041 53.3654 150.547 53.6182L139.632 59.2098C139.401 59.328 139.145 59.3482 138.912 59.285C138.649 59.2137 138.416 59.0357 138.282 58.7739C138.029 58.2808 138.224 57.6761 138.718 57.4233L149.632 51.8318ZM18.4273 80.022L30.6755 80.6368C31.2268 80.6637 31.6546 81.1356 31.6271 81.6892C31.5991 82.2427 31.1277 82.6686 30.5747 82.6408L18.3264 82.026C18.2532 82.0225 18.1817 82.011 18.1135 81.9925C17.6678 81.8717 17.351 81.4536 17.3749 80.9736C17.4028 80.4201 17.8737 79.9941 18.4273 80.022ZM28.6129 46.1244C28.9131 45.659 29.534 45.5258 30.0003 45.8262L40.3003 52.4824C40.7654 52.7835 40.8991 53.4046 40.598 53.8697C40.3552 54.2459 39.9031 54.4051 39.4933 54.294C39.3957 54.2675 39.3002 54.2258 39.2106 54.1679L28.9106 47.5117C28.4453 47.2111 28.3118 46.5895 28.6129 46.1244Z" fill="#F35F5F"/>
<path d="M18.0758 82.1308C18.1541 82.152 18.2361 82.1649 18.319 82.1691L30.5672 82.7838C31.1983 82.8155 31.738 82.3276 31.7697 81.6964C31.7848 81.3906 31.68 81.0972 31.4742 80.8699C31.2685 80.6421 30.9867 80.5088 30.6823 80.494L18.434 79.8792C17.8029 79.8475 17.2633 80.3355 17.2316 80.9666C17.2048 81.5012 17.56 81.991 18.0758 82.1308ZM30.8514 80.8093C31.0084 80.8519 31.15 80.9387 31.2618 81.0624C31.4162 81.2333 31.4954 81.4535 31.4842 81.6828C31.4601 82.1563 31.0553 82.5226 30.5817 82.499L18.3334 81.8843C17.8608 81.8605 17.4946 81.4443 17.5176 80.9819C17.5417 80.5084 17.9465 80.142 18.4202 80.1656L30.6684 80.7804C30.7308 80.7835 30.7924 80.7933 30.8514 80.8093ZM39.4564 54.4325C39.9395 54.5635 40.4466 54.3687 40.7188 53.9482C41.062 53.4173 40.9097 52.7062 40.3784 52.3629L30.0784 45.7067C29.5461 45.3632 28.8357 45.5166 28.4931 46.0471C28.15 46.578 28.3022 47.2891 28.8336 47.6324L39.1336 54.2886C39.2337 54.3533 39.3422 54.4015 39.4564 54.4325ZM29.6817 45.8389C29.765 45.8615 29.8464 45.8969 29.9229 45.9463L40.2229 52.6025C40.6212 52.8603 40.7357 53.3936 40.4784 53.792C40.2262 54.1824 39.6829 54.3011 39.2889 54.0475L28.9889 47.3913C28.7958 47.2667 28.6631 47.074 28.6148 46.8494C28.5664 46.6247 28.6085 46.3948 28.7335 46.2018C28.9414 45.88 29.3298 45.7435 29.6817 45.8389ZM138.876 59.4235C139.151 59.4983 139.443 59.4677 139.698 59.3374L150.613 53.7454C151.175 53.4574 151.398 52.7651 151.11 52.2025C150.821 51.6402 150.129 51.4169 149.567 51.7045L138.652 57.2961C138.09 57.5841 137.867 58.2765 138.155 58.839C138.302 59.1261 138.565 59.3392 138.876 59.4235ZM150.314 51.8956C150.54 51.9569 150.74 52.1091 150.855 52.333C151.071 52.7549 150.904 53.2742 150.481 53.4904L139.567 59.082C139.16 59.29 138.617 59.1141 138.409 58.7083C138.193 58.2864 138.36 57.7671 138.783 57.5509L149.697 51.9593C149.895 51.8582 150.114 51.8415 150.314 51.8956ZM61.5207 34.4773C61.7961 34.552 62.0881 34.5214 62.3429 34.3913C62.9056 34.1028 63.1289 33.4105 62.8409 32.8479L57.2494 21.9333C56.9613 21.3712 56.2689 21.1479 55.7065 21.4354C55.1438 21.7238 54.9205 22.4162 55.2085 22.9788L60.8 33.8934C60.9472 34.1805 61.2099 34.3931 61.5207 34.4773ZM56.4535 21.6266C56.6792 21.6877 56.8796 21.84 56.9944 22.0639L62.5861 32.9781C62.8019 33.4004 62.6349 33.9197 62.2124 34.1359C61.8045 34.3442 61.2626 34.1676 61.0546 33.7622L55.4629 22.848C55.2471 22.4261 55.4142 21.9064 55.8366 21.6902C56.0346 21.5891 56.2541 21.5725 56.4535 21.6266ZM118.921 37.3588C119.404 37.4897 119.911 37.2951 120.183 36.8745L126.839 26.575C127.183 26.0442 127.03 25.3329 126.499 24.9898C126.242 24.8232 125.935 24.7667 125.636 24.8314C125.337 24.8956 125.08 25.0727 124.914 25.3302L118.258 35.6297C117.914 36.1606 118.067 36.8719 118.598 37.215C118.698 37.2797 118.807 37.3279 118.921 37.3588ZM126.101 25.121C126.186 25.1441 126.267 25.1806 126.344 25.2294C126.742 25.4872 126.857 26.0206 126.599 26.4189L119.943 36.7184C119.69 37.1087 119.147 37.2279 118.753 36.9738C118.355 36.7161 118.24 36.1827 118.498 35.7844L125.154 25.4849C125.279 25.2918 125.471 25.159 125.696 25.1107C125.832 25.0813 125.97 25.0857 126.101 25.121ZM90.6055 28.2278C90.6838 28.249 90.7659 28.2619 90.8491 28.2666C91.4803 28.2979 92.0199 27.8104 92.0517 27.1788L92.6663 14.931C92.6982 14.3009 92.2101 13.7618 91.5789 13.7286C90.9478 13.6969 90.4086 14.185 90.377 14.8161L89.7623 27.0639C89.7355 27.5984 90.0898 28.088 90.6055 28.2278ZM91.7454 14.0426C92.1281 14.1464 92.401 14.5056 92.3806 14.9163L91.7659 27.1641C91.7419 27.6376 91.3371 28.0039 90.8639 27.9805C90.3883 27.9568 90.0248 27.5399 90.0477 27.078L90.6623 14.8302C90.6864 14.3567 91.0912 13.9904 91.5644 14.0138C91.6268 14.0169 91.6874 14.0269 91.7454 14.0426Z" fill="#588995"/>
</g>
<defs>
<clipPath id="clip0_9503_14109">
<rect width="172" height="172" fill="white"/>
</clipPath>
</defs>
</svg>
