<svg width="411" height="300" viewBox="0 0 411 300" fill="none" xmlns="http://www.w3.org/2000/svg">
<path d="M208.159 196.417C239.858 196.417 265.646 170.628 265.646 138.93C265.646 134.807 265.207 130.691 264.34 126.693C263.633 123.433 260.42 121.363 257.156 122.07C253.896 122.777 251.826 125.993 252.534 129.254C253.218 132.411 253.565 135.666 253.565 138.93C253.565 163.967 233.196 184.335 208.159 184.335C194.184 184.335 181.191 178.038 172.513 167.058C170.443 164.441 166.645 163.996 164.028 166.065C161.411 168.133 160.966 171.932 163.034 174.549C174.018 188.447 190.465 196.417 208.159 196.417V196.417Z" fill="#0B4D5E"/>
<path d="M253.968 138.93C253.968 135.638 253.617 132.353 252.927 129.168L252.873 128.884C252.404 126.035 254.173 123.286 256.96 122.532L257.241 122.464C260.192 121.824 263.099 123.617 263.878 126.497L263.946 126.778C264.807 130.747 265.244 134.836 265.244 138.93C265.244 170.405 239.635 196.014 208.159 196.014V196.417L208.901 196.412C240.012 196.017 265.246 170.783 265.642 139.672L265.646 138.93C265.646 135.065 265.26 131.205 264.498 127.444L264.34 126.693C263.633 123.433 260.42 121.363 257.156 122.07C253.896 122.777 251.826 125.994 252.533 129.254L252.658 129.847C253.26 132.818 253.565 135.87 253.565 138.93L253.551 140.1C252.938 164.209 233.439 183.707 209.33 184.32L208.159 184.335C194.402 184.335 181.597 178.233 172.923 167.569L172.513 167.059C170.443 164.441 166.645 163.996 164.028 166.064C161.411 168.133 160.966 171.931 163.034 174.549L163.553 175.196C174.531 188.694 190.741 196.417 208.159 196.417V196.014H208.022C190.503 195.973 174.229 188.065 163.35 174.3L163.176 174.067C161.503 171.715 161.883 168.469 164.055 166.566L164.278 166.381C166.644 164.511 170.044 164.841 172.011 167.085L172.197 167.308C180.951 178.384 194.06 184.738 208.159 184.738C233.418 184.738 253.968 164.189 253.968 138.93Z" fill="#0B4D5E"/>
<path d="M156.714 144.97C160.05 144.97 162.754 142.265 162.754 138.929C162.754 133.861 163.582 128.886 165.214 124.144C169.796 110.831 180.51 100.241 193.873 95.8153C198.464 94.2947 203.271 93.5235 208.16 93.5235C217.928 93.5235 227.232 96.576 235.067 102.351C237.753 104.33 241.534 103.758 243.514 101.072C245.493 98.387 244.921 94.6052 242.235 92.6259C232.309 85.3096 220.526 81.4424 208.16 81.4424C201.978 81.4424 195.893 82.4197 190.075 84.3467C173.156 89.9495 159.593 103.357 153.79 120.212C151.722 126.222 150.673 132.52 150.673 138.929C150.673 142.265 153.378 144.97 156.714 144.97Z" fill="#0B4D5E"/>
<path d="M151.076 138.93C151.076 132.564 152.117 126.311 154.171 120.344C159.842 103.869 172.983 90.709 189.416 84.9951L190.201 84.7285C195.979 82.8152 202.021 81.8447 208.16 81.8447C220.056 81.8447 231.407 85.449 241.067 92.2793L241.996 92.9502C244.503 94.7976 245.037 98.3269 243.19 100.833L243.012 101.063C241.122 103.371 237.735 103.816 235.307 102.026L234.561 101.488C226.814 96.0111 217.706 93.1211 208.16 93.1211C203.229 93.1211 198.379 93.8984 193.746 95.4327L193.116 95.6465C179.928 100.232 169.384 110.791 164.833 124.014L164.534 124.913C163.086 129.426 162.352 134.136 162.352 138.93C162.352 142.043 159.828 144.568 156.714 144.568V144.97L157.025 144.962C160.113 144.806 162.59 142.329 162.746 139.24L162.754 138.93C162.754 134.178 163.482 129.509 164.917 125.036L165.214 124.145C169.725 111.039 180.177 100.572 193.248 96.0274L193.873 95.8155C198.177 94.39 202.671 93.6226 207.244 93.5323L208.16 93.5235C217.928 93.5235 227.232 96.5759 235.068 102.351L235.322 102.529C237.902 104.236 241.364 103.711 243.323 101.317L243.514 101.072C245.431 98.4709 244.954 94.8403 242.481 92.8164L242.236 92.626C232.309 85.3096 220.526 81.4424 208.16 81.4424L207.002 81.4541C201.219 81.5686 195.529 82.5402 190.074 84.3467C173.156 89.9496 159.592 103.358 153.79 120.213C151.722 126.222 150.673 132.52 150.673 138.93L150.681 139.24C150.843 142.432 153.482 144.97 156.714 144.97V144.568C153.601 144.568 151.077 142.043 151.076 138.93Z" fill="#0B4D5E"/>
<path d="M159.837 162.668C160.526 162.668 161.225 162.549 161.909 162.3C165.043 161.155 166.656 157.687 165.511 154.554L165.396 154.236C164.275 151.094 160.819 149.456 157.677 150.576C154.535 151.698 152.897 155.154 154.018 158.295L154.163 158.697C155.057 161.147 157.373 162.667 159.837 162.667V162.668Z" fill="#0B4D5E"/>
<path d="M165.396 154.235C164.275 151.094 160.819 149.456 157.677 150.576C154.535 151.697 152.897 155.154 154.018 158.296L154.163 158.697L154.251 158.924C155.202 161.241 157.449 162.667 159.837 162.667V162.668L160.096 162.662C160.614 162.64 161.136 162.55 161.652 162.387L161.909 162.3C165.043 161.155 166.656 157.688 165.511 154.554L165.396 154.235ZM157.812 150.956C160.745 149.91 163.971 151.438 165.017 154.371L165.018 154.373L165.132 154.691L165.133 154.692C166.201 157.616 164.696 160.853 161.771 161.921L161.531 162.003C160.969 162.181 160.399 162.265 159.837 162.265L159.623 162.261C157.403 162.176 155.35 160.773 154.542 158.559L154.396 158.158C153.384 155.318 154.788 152.204 157.542 151.061L157.812 150.956Z" fill="#0B4D5E"/>
<path d="M146.791 92.0279C149.001 92.0279 151.201 91.1239 152.792 89.3487C156.525 85.182 160.732 81.4328 165.295 78.2055C168.927 75.637 169.789 70.6105 167.22 66.9789C164.651 63.3481 159.626 62.4855 155.994 65.0543C150.447 68.9779 145.333 73.5349 140.795 78.5989C137.827 81.9116 138.106 87.0038 141.419 89.9721C142.956 91.3498 144.877 92.0279 146.791 92.0279Z" fill="#0B4D5E"/>
<path d="M167.22 66.9783C164.651 63.3477 159.625 62.4857 155.993 65.0545C150.447 68.9779 145.333 73.5347 140.796 78.5984C137.827 81.911 138.106 87.0031 141.419 89.9715L141.711 90.2225C143.196 91.4322 144.997 92.0281 146.791 92.0281V91.6248C144.973 91.6248 143.148 90.9806 141.687 89.6717L141.401 89.4022C138.527 86.5518 138.363 81.9168 141.096 78.868V78.867C145.613 73.8256 150.704 69.2886 156.227 65.3826V65.3816C159.569 63.0184 164.153 63.7141 166.655 66.8953L166.891 67.2117C169.331 70.6618 168.513 75.4368 165.062 77.8768L164.207 78.491C159.948 81.5941 156.01 85.1524 152.491 89.0799L152.202 89.3865C150.72 90.8704 148.76 91.6248 146.791 91.6248V92.0281L147.205 92.0174C149.135 91.9186 151.03 91.1287 152.486 89.6707L152.792 89.3484C156.292 85.4422 160.208 81.9025 164.443 78.8162L165.295 78.2049C168.813 75.7167 169.732 70.922 167.45 67.3231L167.22 66.9783Z" fill="#0B4D5E"/>
<path d="M132.512 114.318C135.628 114.318 138.595 112.499 139.909 109.456C140.103 109.009 140.301 108.564 140.503 108.121C142.347 104.074 140.561 99.2972 136.514 97.4524C132.467 95.6088 127.69 97.3932 125.845 101.441C125.599 101.98 125.358 102.523 125.123 103.068C123.359 107.151 125.238 111.891 129.322 113.656C130.363 114.105 131.446 114.318 132.513 114.318H132.512Z" fill="#0B4D5E"/>
<path d="M136.514 97.4523C132.467 95.6087 127.69 97.3935 125.845 101.442C125.6 101.981 125.358 102.523 125.123 103.068C123.358 107.151 125.239 111.891 129.323 113.655L129.714 113.814C130.633 114.156 131.579 114.318 132.512 114.318V113.915C131.5 113.915 130.471 113.714 129.482 113.286L129.125 113.121C125.611 111.387 123.976 107.263 125.345 103.593L125.493 103.228C125.61 102.957 125.728 102.686 125.848 102.416L126.212 101.609C127.909 97.8831 132.222 96.1757 135.985 97.6652L136.347 97.8185C140.192 99.5711 141.889 104.109 140.136 107.954L139.54 109.297L139.419 109.565C138.115 112.293 135.381 113.915 132.512 113.915V114.318L132.804 114.313C135.715 114.206 138.454 112.518 139.782 109.738L139.91 109.456L140.503 108.121C142.29 104.2 140.67 99.5952 136.887 97.6339L136.514 97.4523Z" fill="#0B4D5E"/>
<path d="M173.788 221.87C176.837 221.87 179.754 220.13 181.111 217.178C182.969 213.136 181.199 208.354 177.157 206.496C155.384 196.488 139.692 176.513 135.179 153.065C134.339 148.696 130.118 145.838 125.749 146.678C121.38 147.518 118.521 151.74 119.362 156.109C124.854 184.65 143.945 208.958 170.43 221.132C171.519 221.633 172.663 221.87 173.788 221.87H173.788Z" fill="#0B4D5E"/>
<path d="M135.18 153.064C134.34 148.696 130.118 145.838 125.749 146.678C121.381 147.518 118.521 151.74 119.362 156.108L119.629 157.443C125.453 185.407 144.359 209.148 170.43 221.132L170.84 221.307C171.805 221.689 172.804 221.869 173.789 221.869C176.742 221.869 179.571 220.237 180.979 217.451L181.111 217.178C182.91 213.262 181.306 208.652 177.53 206.679L177.158 206.496C155.725 196.644 140.183 177.135 135.399 154.161L135.18 153.064ZM125.825 147.073C129.846 146.3 133.735 148.825 134.7 152.756L134.785 153.141C139.251 176.349 154.609 196.171 175.967 206.383L176.989 206.862C180.828 208.627 182.51 213.17 180.746 217.01L180.62 217.269C179.283 219.915 176.595 221.466 173.789 221.467C172.72 221.467 171.634 221.243 170.598 220.766L169.368 220.189C143.64 207.889 125.14 184.002 119.757 156.032L119.693 155.643C119.149 151.764 121.636 148.091 125.44 147.157L125.825 147.073Z" fill="#0B4D5E"/>
<path d="M208.16 229.357C225.046 229.357 241.52 224.67 255.801 215.803C269.68 207.186 280.984 194.974 288.492 180.489C290.539 176.539 288.997 171.679 285.047 169.632C281.098 167.585 276.237 169.127 274.19 173.076C261.347 197.856 236.045 213.249 208.16 213.249C203.711 213.249 200.106 216.855 200.106 221.303C200.106 225.751 203.711 229.357 208.16 229.357Z" fill="#0B4D5E"/>
<path d="M200.509 221.303C200.509 217.077 203.935 213.651 208.16 213.651C235.758 213.651 260.84 198.654 273.934 174.422L274.548 173.262C276.492 169.51 281.11 168.044 284.862 169.989C288.614 171.934 290.079 176.552 288.135 180.304L287.423 181.648C279.954 195.48 268.974 207.15 255.589 215.461L254.25 216.276C240.347 224.575 224.447 228.954 208.16 228.954V229.357L209.742 229.344C225.548 229.069 240.941 224.689 254.456 216.622L255.801 215.804C269.246 207.455 280.275 195.734 287.777 181.84L288.492 180.488C290.475 176.662 289.09 171.982 285.411 169.832L285.048 169.632C281.098 167.585 276.237 169.127 274.19 173.076C261.347 197.855 236.046 213.249 208.16 213.249C203.712 213.249 200.106 216.854 200.106 221.303L200.116 221.718C200.332 225.973 203.851 229.357 208.16 229.357V228.954C203.934 228.954 200.509 225.528 200.509 221.303Z" fill="#0B4D5E"/>
<path d="M290.534 146.983C294.982 146.983 298.588 143.377 298.588 138.929C298.588 114.775 289.182 92.0659 272.102 74.9859C255.023 57.9064 232.314 48.5 208.159 48.5C203.711 48.5 200.105 52.1058 200.105 56.5541C200.105 61.0024 203.711 64.6082 208.159 64.6082C249.14 64.6082 282.48 97.9486 282.48 138.929C282.48 143.377 286.086 146.983 290.534 146.983Z" fill="#0B4D5E"/>
<path d="M282.883 138.929C282.883 97.726 249.363 64.2053 208.16 64.205C203.934 64.205 200.508 60.7796 200.508 56.5537C200.509 52.328 203.934 48.9023 208.16 48.9023C231.832 48.9024 254.107 57.9766 271.016 74.4794L271.817 75.2705C288.822 92.2747 298.186 114.881 298.186 138.929C298.186 143.154 294.76 146.58 290.535 146.58V146.983L290.949 146.972C295.067 146.764 298.369 143.462 298.578 139.344L298.588 138.929C298.588 115.152 289.474 92.776 272.897 75.791L272.102 74.9863C255.023 57.9069 232.314 48.5001 208.16 48.5L207.745 48.5107C203.489 48.7265 200.105 52.2447 200.105 56.5537L200.116 56.9687C200.332 61.2243 203.851 64.6084 208.16 64.6084L209.119 64.6142C249.659 65.1297 282.48 98.2685 282.48 138.929L282.491 139.344C282.706 143.599 286.225 146.983 290.535 146.983V146.58C286.309 146.58 282.883 143.154 282.883 138.929Z" fill="#0B4D5E"/>
<path d="M126.679 135.155C130.604 135.155 134.042 132.282 134.636 128.283C134.708 127.801 134.783 127.319 134.864 126.838C135.604 122.451 132.647 118.297 128.261 117.557C123.876 116.819 119.719 119.775 118.98 124.161C118.882 124.745 118.79 125.33 118.703 125.916C118.049 130.316 121.086 134.413 125.486 135.066C125.887 135.126 126.286 135.155 126.68 135.155H126.679Z" fill="#0B4D5E"/>
<path d="M128.261 117.557C123.876 116.819 119.72 119.774 118.981 124.161C118.882 124.744 118.789 125.329 118.702 125.916C118.049 130.316 121.086 134.412 125.486 135.066L125.786 135.105C126.086 135.138 126.384 135.154 126.68 135.154V134.752C126.305 134.752 125.927 134.724 125.545 134.668L125.157 134.6C121.316 133.83 118.674 130.265 119.053 126.366L119.101 125.974C119.144 125.683 119.189 125.391 119.236 125.1L119.377 124.228C120.057 120.191 123.785 117.43 127.804 117.899L128.194 117.954C132.36 118.656 135.169 122.603 134.467 126.77L134.237 128.224L134.177 128.577C133.469 132.19 130.291 134.751 126.68 134.752V135.154L127.046 135.146C130.694 134.979 133.851 132.336 134.572 128.655L134.636 128.283L134.864 126.838C135.581 122.589 132.828 118.557 128.668 117.636L128.261 117.557Z" fill="#0B4D5E"/>
<path d="M328.762 185.34L329.098 185.562C329.344 185.21 329.572 184.845 329.779 184.467L329.431 184.264L328.762 185.34Z" fill="#0B4D5E"/>
<path d="M328.762 185.34L329.098 185.562C329.344 185.21 329.572 184.845 329.779 184.467L329.431 184.264L328.762 185.34Z" fill="#0B4D5E"/>
<path d="M252.628 244.954L210.119 248.771C209.91 248.79 209.7 248.797 209.49 248.798C209.427 248.798 209.363 248.796 209.3 248.795C209.148 248.792 208.996 248.784 208.844 248.772C208.777 248.767 208.711 248.762 208.644 248.755C208.469 248.736 208.294 248.712 208.119 248.682C208.084 248.676 208.048 248.672 208.012 248.666C207.803 248.627 207.595 248.58 207.387 248.525C207.33 248.51 207.272 248.492 207.215 248.476C207.061 248.432 206.907 248.384 206.753 248.332C206.686 248.309 206.618 248.285 206.551 248.261C206.394 248.203 206.237 248.141 206.08 248.074C206.029 248.053 205.978 248.033 205.927 248.01C205.724 247.92 205.521 247.823 205.319 247.718C205.275 247.694 205.23 247.668 205.186 247.644C205.027 247.559 204.869 247.47 204.712 247.376C204.648 247.337 204.584 247.298 204.52 247.257C204.375 247.166 204.23 247.072 204.086 246.973C204.03 246.935 203.974 246.898 203.919 246.859C203.724 246.722 203.531 246.579 203.341 246.429C203.319 246.411 203.297 246.391 203.274 246.373C203.106 246.239 202.939 246.099 202.775 245.955C202.716 245.904 202.659 245.851 202.601 245.799C202.467 245.678 202.336 245.555 202.205 245.428C202.148 245.374 202.092 245.32 202.036 245.264C201.872 245.1 201.709 244.932 201.549 244.758C201.534 244.742 201.519 244.727 201.504 244.711C201.33 244.52 201.16 244.323 200.992 244.121C200.943 244.063 200.895 244.002 200.846 243.943C200.725 243.793 200.605 243.641 200.487 243.486C200.436 243.418 200.384 243.35 200.333 243.282C200.206 243.109 200.081 242.933 199.958 242.755C199.926 242.709 199.894 242.664 199.862 242.618C199.7 242.378 199.543 242.132 199.39 241.881C199.351 241.817 199.313 241.752 199.274 241.687C199.153 241.484 199.034 241.277 198.919 241.067C198.883 241.002 198.846 240.938 198.811 240.872C198.67 240.608 198.533 240.34 198.401 240.067C198.377 240.018 198.355 239.968 198.332 239.918C198.222 239.686 198.117 239.452 198.015 239.214C197.981 239.135 197.947 239.055 197.914 238.974C197.814 238.736 197.719 238.494 197.628 238.25C197.614 238.211 197.597 238.171 197.583 238.131C197.48 237.849 197.383 237.563 197.29 237.273C197.265 237.195 197.242 237.116 197.218 237.037C197.149 236.814 197.084 236.59 197.023 236.364C196.999 236.278 196.976 236.192 196.953 236.105C196.875 235.806 196.802 235.504 196.737 235.199L164.204 83.1468C164.113 82.7208 164.038 82.2983 163.975 81.8791C163.964 81.8034 163.955 81.7289 163.944 81.6536C163.896 81.3117 163.857 80.9726 163.827 80.6368C163.82 80.5655 163.812 80.4934 163.806 80.4221C163.777 80.0444 163.759 79.6715 163.752 79.3026C163.75 79.2212 163.75 79.1403 163.75 79.0594C163.747 78.7263 163.753 78.3965 163.768 78.0719C163.771 78.0232 163.771 77.9737 163.773 77.9249C163.794 77.5673 163.826 77.217 163.867 76.8715C163.877 76.7901 163.888 76.7092 163.899 76.6286C163.943 76.2948 163.995 75.965 164.059 75.6436C164.062 75.6291 164.064 75.6142 164.067 75.5997C164.134 75.2675 164.215 74.9445 164.302 74.6272C164.323 74.5523 164.344 74.4782 164.365 74.4045C164.457 74.0924 164.555 73.7859 164.666 73.4903C164.675 73.4662 164.686 73.4432 164.695 73.4195C164.8 73.1432 164.916 72.8766 165.038 72.6165C165.067 72.5528 165.097 72.4888 165.127 72.4264C165.26 72.1558 165.4 71.8932 165.551 71.6415C165.575 71.6013 165.6 71.5634 165.625 71.5239C165.749 71.3218 165.882 71.1293 166.017 70.9408C166.084 70.8486 166.151 70.7576 166.219 70.6686C166.341 70.5115 166.468 70.3617 166.598 70.2159C166.666 70.1402 166.731 70.0625 166.801 69.9896C166.967 69.8157 167.14 69.6522 167.318 69.4959C167.357 69.4625 167.392 69.4246 167.431 69.3916C167.654 69.2039 167.885 69.0312 168.125 68.8725C168.152 68.8548 168.18 68.8383 168.207 68.821C168.442 68.6704 168.682 68.5318 168.932 68.4098C168.95 68.401 168.969 68.3933 168.987 68.3848C169.249 68.26 169.518 68.1485 169.795 68.0566L161.611 70.7616C161.333 70.8534 161.064 70.965 160.802 71.0898C160.784 71.0987 160.765 71.1059 160.747 71.1148C160.497 71.2368 160.257 71.3753 160.022 71.5263C159.995 71.5437 159.968 71.5598 159.941 71.5775C159.92 71.5912 159.899 71.6033 159.878 71.617C159.66 71.7643 159.45 71.9254 159.246 72.097C159.208 72.1296 159.172 72.1675 159.134 72.2009C158.955 72.3571 158.782 72.5206 158.616 72.695C158.546 72.7675 158.481 72.8448 158.414 72.9201C158.284 73.0667 158.156 73.2169 158.034 73.3744C157.966 73.4626 157.899 73.5532 157.833 73.645C157.782 73.7163 157.726 73.7823 157.676 73.8552C157.594 73.9764 157.517 74.1037 157.439 74.2301C157.415 74.2692 157.389 74.3062 157.366 74.3457C157.215 74.5974 157.075 74.8603 156.942 75.131C156.912 75.1938 156.882 75.2578 156.852 75.3214C156.73 75.5812 156.615 75.8474 156.51 76.1228C156.501 76.1474 156.49 76.1708 156.481 76.1957C156.37 76.4913 156.272 76.7974 156.18 77.1095C156.158 77.1836 156.137 77.2577 156.117 77.3326C156.029 77.6499 155.948 77.9721 155.881 78.3043C155.878 78.3196 155.876 78.3353 155.873 78.3506C155.809 78.6715 155.758 79.0006 155.713 79.3344C155.702 79.4145 155.691 79.4947 155.682 79.5756C155.641 79.9215 155.608 80.2719 155.588 80.6295C155.585 80.6778 155.585 80.7278 155.583 80.7761C155.567 81.1007 155.562 81.4301 155.564 81.7631C155.565 81.8445 155.564 81.9254 155.566 82.0076C155.574 82.376 155.591 82.7489 155.621 83.1267C155.626 83.198 155.634 83.2696 155.641 83.3409C155.671 83.6776 155.71 84.0171 155.758 84.3594C155.768 84.4339 155.777 84.508 155.789 84.5829C155.839 84.9119 155.894 85.2429 155.961 85.5763C155.98 85.6678 155.999 85.7596 156.019 85.8514L188.551 237.904C188.616 238.209 188.69 238.51 188.767 238.809C188.79 238.896 188.814 238.982 188.837 239.068C188.899 239.294 188.963 239.518 189.032 239.741C189.056 239.82 189.079 239.899 189.104 239.977C189.197 240.266 189.294 240.553 189.397 240.835C189.412 240.876 189.428 240.914 189.443 240.954C189.534 241.199 189.629 241.44 189.728 241.679C189.743 241.716 189.757 241.755 189.772 241.792C189.791 241.835 189.811 241.876 189.829 241.918C189.931 242.156 190.037 242.391 190.146 242.622C190.17 242.672 190.192 242.722 190.215 242.772C190.347 243.045 190.484 243.312 190.625 243.576C190.661 243.641 190.697 243.706 190.733 243.771C190.849 243.981 190.967 244.188 191.089 244.392C191.127 244.456 191.165 244.521 191.204 244.585C191.358 244.835 191.515 245.081 191.677 245.321C191.683 245.33 191.689 245.34 191.695 245.35C191.72 245.387 191.747 245.421 191.772 245.458C191.895 245.637 192.02 245.813 192.148 245.985C192.199 246.054 192.25 246.121 192.301 246.189C192.42 246.345 192.54 246.497 192.662 246.647C192.71 246.706 192.757 246.766 192.806 246.824C192.974 247.026 193.145 247.224 193.319 247.414C193.333 247.43 193.348 247.444 193.362 247.459C193.522 247.634 193.686 247.803 193.851 247.968C193.906 248.023 193.963 248.076 194.018 248.13C194.149 248.258 194.282 248.382 194.416 248.502C194.474 248.554 194.531 248.607 194.589 248.658C194.754 248.802 194.92 248.941 195.088 249.076C195.111 249.094 195.133 249.113 195.155 249.132C195.346 249.282 195.539 249.424 195.733 249.562C195.788 249.601 195.845 249.638 195.901 249.676C196.045 249.774 196.189 249.869 196.335 249.96C196.399 250 196.462 250.04 196.526 250.078C196.684 250.172 196.843 250.262 197.002 250.348C197.046 250.372 197.09 250.397 197.134 250.42C197.335 250.525 197.538 250.623 197.743 250.713C197.793 250.735 197.843 250.755 197.893 250.776C198.05 250.843 198.208 250.906 198.367 250.963C198.434 250.988 198.501 251.011 198.568 251.034C198.722 251.087 198.876 251.134 199.03 251.178C199.087 251.194 199.144 251.212 199.202 251.227C199.41 251.282 199.618 251.329 199.827 251.368C199.863 251.375 199.898 251.379 199.934 251.385C200.109 251.414 200.284 251.439 200.459 251.457C200.526 251.464 200.592 251.469 200.659 251.474C200.811 251.487 200.963 251.494 201.115 251.497C201.178 251.498 201.242 251.5 201.305 251.5C201.515 251.499 201.725 251.492 201.934 251.473L244.443 247.656C244.995 247.606 245.525 247.495 246.03 247.329L254.214 244.624C253.71 244.79 253.18 244.901 252.627 244.951L252.628 244.954Z" fill="#8AE5CC"/>
<path d="M161.611 70.7617C161.333 70.8535 161.064 70.965 160.802 71.0898C160.784 71.0987 160.765 71.1064 160.747 71.1152C160.498 71.2373 160.256 71.3754 160.022 71.5264C159.995 71.5436 159.968 71.5595 159.941 71.5771C159.92 71.5908 159.899 71.6035 159.878 71.6172C159.66 71.7645 159.45 71.9252 159.246 72.0967C159.208 72.1293 159.172 72.1677 159.134 72.2012C158.956 72.3574 158.782 72.5209 158.616 72.6953C158.546 72.7677 158.481 72.8447 158.414 72.9199C158.284 73.0664 158.157 73.2167 158.035 73.374C157.966 73.4622 157.898 73.5528 157.832 73.6445C157.781 73.7158 157.726 73.7826 157.676 73.8555C157.594 73.9766 157.516 74.1041 157.439 74.2305C157.415 74.2694 157.389 74.3063 157.366 74.3457C157.215 74.5973 157.075 74.8603 156.943 75.1309C156.912 75.1937 156.882 75.2577 156.852 75.3213C156.73 75.581 156.615 75.8476 156.51 76.123C156.501 76.1474 156.49 76.1706 156.481 76.1953C156.37 76.4909 156.272 76.7973 156.18 77.1094C156.158 77.1835 156.137 77.2581 156.117 77.333C156.029 77.6502 155.948 77.9726 155.881 78.3047C155.878 78.3199 155.876 78.3354 155.873 78.3506C155.809 78.6714 155.758 79.0003 155.713 79.334C155.702 79.414 155.691 79.4944 155.682 79.5752C155.641 79.9211 155.608 80.2723 155.588 80.6299C155.585 80.6781 155.584 80.7282 155.582 80.7764C155.567 81.1007 155.561 81.4299 155.564 81.7627C155.564 81.844 155.565 81.9257 155.567 82.0078C155.574 82.3762 155.591 82.7493 155.62 83.127L155.641 83.3408L155.693 83.8477C155.712 84.0175 155.734 84.1881 155.758 84.3594L155.788 84.583L155.868 85.0781C155.897 85.2436 155.928 85.4096 155.961 85.5762L156.019 85.8516L188.551 237.904L188.655 238.358C188.691 238.509 188.728 238.66 188.767 238.81L188.837 239.068L189.032 239.741C189.056 239.82 189.08 239.9 189.105 239.978L189.246 240.409C189.295 240.552 189.345 240.694 189.397 240.835C189.411 240.875 189.428 240.914 189.443 240.954L189.728 241.679L189.773 241.792C189.791 241.835 189.811 241.875 189.829 241.918L190.146 242.622C190.169 242.672 190.191 242.722 190.215 242.771L190.416 243.177C190.485 243.311 190.555 243.444 190.625 243.576L190.733 243.771L191.089 244.392C191.127 244.456 191.165 244.521 191.204 244.585L191.437 244.957C191.516 245.08 191.596 245.201 191.677 245.321L191.695 245.35L191.773 245.458C191.896 245.637 192.02 245.813 192.148 245.985L192.301 246.188L192.661 246.647C192.709 246.707 192.757 246.766 192.806 246.824C192.974 247.026 193.144 247.224 193.319 247.414L193.362 247.459L193.851 247.968L194.018 248.131L194.416 248.503L194.589 248.657L195.088 249.076C195.111 249.094 195.133 249.114 195.156 249.132L195.443 249.352C195.539 249.423 195.636 249.493 195.733 249.562C195.788 249.601 195.845 249.638 195.901 249.676L196.335 249.96L196.527 250.078C196.684 250.173 196.843 250.262 197.002 250.348C197.046 250.371 197.089 250.397 197.133 250.42L197.437 250.572C197.538 250.621 197.64 250.668 197.743 250.713L197.894 250.776C198.051 250.843 198.208 250.906 198.367 250.964L198.568 251.034L199.031 251.178L199.202 251.228C199.41 251.282 199.618 251.329 199.827 251.368L199.934 251.385L200.197 251.425C200.284 251.437 200.372 251.448 200.459 251.457L200.659 251.475L201.115 251.497L201.305 251.5L201.303 251.097C201.246 251.097 201.196 251.095 201.122 251.094L200.691 251.073C200.623 251.068 200.561 251.063 200.5 251.057L200.251 251.026C200.168 251.015 200.085 251.002 200.001 250.987L199.938 250.978C199.921 250.975 199.91 250.973 199.901 250.972L199.603 250.911C199.504 250.889 199.404 250.864 199.304 250.838L199.303 250.837L199.139 250.79C198.991 250.748 198.844 250.703 198.698 250.653L198.505 250.585C198.355 250.53 198.202 250.47 198.051 250.405L197.907 250.345C197.71 250.258 197.514 250.164 197.32 250.063L197.194 249.994L197.193 249.993L196.734 249.732C196.673 249.696 196.612 249.658 196.549 249.619L196.128 249.344L195.966 249.233L195.965 249.232C195.777 249.099 195.591 248.962 195.408 248.817C195.4 248.811 195.392 248.805 195.38 248.795C195.37 248.786 195.355 248.774 195.34 248.762L194.854 248.354L194.686 248.203L194.298 247.841C194.239 247.783 194.188 247.735 194.136 247.683C193.974 247.521 193.814 247.356 193.659 247.187C193.647 247.174 193.636 247.163 193.629 247.156C193.622 247.148 193.618 247.144 193.616 247.142C193.447 246.957 193.281 246.765 193.116 246.566L193.115 246.565L192.975 246.394L192.622 245.945C192.571 245.878 192.521 245.812 192.472 245.745L192.104 245.23V245.229C192.088 245.205 192.071 245.183 192.059 245.167C192.048 245.152 192.039 245.14 192.032 245.13C192.031 245.129 192.031 245.127 192.029 245.124C192.025 245.118 192.017 245.105 192.007 245.091C191.85 244.859 191.697 244.619 191.547 244.374L191.435 244.187L191.086 243.577L190.98 243.385C190.841 243.126 190.707 242.864 190.578 242.597C190.551 242.54 190.544 242.522 190.51 242.45L190.2 241.76C190.188 241.732 190.175 241.706 190.166 241.687C190.156 241.665 190.15 241.65 190.144 241.636L190.143 241.635L190.126 241.592C190.12 241.575 190.11 241.55 190.1 241.525C190.003 241.291 189.909 241.053 189.82 240.813L189.776 240.699V240.696C189.675 240.42 189.578 240.139 189.488 239.854L189.417 239.623L189.416 239.622C189.349 239.404 189.286 239.184 189.226 238.962L189.158 238.709L189.046 238.265C189.011 238.117 188.976 237.968 188.945 237.819L156.412 85.7676C156.393 85.6779 156.374 85.5867 156.356 85.4961C156.291 85.1708 156.236 84.8467 156.187 84.5225L156.157 84.3037L156.093 83.8018C156.074 83.6354 156.057 83.4696 156.042 83.3047L156.022 83.0947C155.993 82.7253 155.976 82.3605 155.969 82V81.998L155.967 81.7607C155.965 81.4343 155.97 81.1112 155.985 80.7949V80.793C155.988 80.7211 155.987 80.7023 155.99 80.6533L155.991 80.6523C156.01 80.3044 156.041 79.9622 156.081 79.623L156.082 79.6211C156.091 79.5452 156.101 79.4693 156.112 79.3887C156.156 79.0606 156.206 78.7397 156.268 78.4297L156.269 78.4238C156.27 78.4164 156.272 78.4094 156.273 78.4043C156.273 78.4001 156.274 78.3935 156.275 78.3916C156.275 78.3898 156.276 78.3886 156.276 78.3877V78.3838C156.308 78.2236 156.344 78.0653 156.382 77.9082L156.505 77.4395L156.567 77.2227C156.657 76.9167 156.752 76.6204 156.858 76.3369L156.859 76.3359C156.86 76.3323 156.861 76.327 156.867 76.3145C156.871 76.304 156.879 76.2849 156.887 76.2646C156.937 76.1333 156.99 76.003 157.045 75.875L157.217 75.4922L157.304 75.3076C157.432 75.0461 157.567 74.7938 157.71 74.5537L157.782 74.4424C157.861 74.3134 157.933 74.1945 158.008 74.083L158.16 73.8799L158.352 73.6211C158.41 73.5469 158.469 73.4743 158.53 73.4023L158.715 73.1875L158.907 72.9736C158.985 72.8914 159.066 72.8114 159.148 72.7334L159.399 72.5039C159.426 72.4797 159.453 72.4548 159.469 72.4395C159.487 72.4219 159.497 72.4122 159.505 72.4053L159.801 72.168C159.9 72.0926 160 72.02 160.102 71.9512C160.104 71.9496 160.108 71.9483 160.119 71.9414C160.128 71.9359 160.144 71.9254 160.161 71.9141L160.24 71.8652C160.351 71.7933 160.465 71.7241 160.578 71.6592L160.924 71.4766C160.925 71.4762 160.927 71.475 160.935 71.4717C160.942 71.4684 160.959 71.4606 160.976 71.4521C161.1 71.3927 161.226 71.3379 161.353 71.2861L161.738 71.1436L166.727 69.4951L166.509 69.7109L166.297 69.9482C166.23 70.0235 166.163 70.0998 166.097 70.1787L165.901 70.4219L165.691 70.7051L165.484 71.002C165.416 71.1025 165.349 71.2055 165.284 71.3115L165.205 71.4346L165.204 71.4355L164.978 71.8359C164.905 71.9718 164.834 72.1097 164.766 72.249L164.673 72.4453C164.549 72.7116 164.429 72.9872 164.32 73.2734L164.309 73.2998C164.304 73.3115 164.297 73.3291 164.289 73.3486L164.126 73.8164C164.075 73.9734 164.026 74.1314 163.979 74.29L163.913 74.5205C163.869 74.6822 163.826 74.8461 163.785 75.0127L163.672 75.5195L163.671 75.5225L163.665 75.5566C163.665 75.5603 163.665 75.5625 163.664 75.5645C163.664 75.5655 163.663 75.5661 163.663 75.5664C163.597 75.8982 163.545 76.2363 163.499 76.5752L163.467 76.8242L163.411 77.3574L163.371 77.9023V77.9053L163.368 77.9873L163.366 78.0518C163.35 78.3844 163.345 78.723 163.347 79.0625L163.349 79.3105C163.353 79.4986 163.359 79.6883 163.368 79.8789L163.405 80.4541L163.425 80.6729C163.456 81.0155 163.496 81.3616 163.545 81.71C163.552 81.7569 163.567 81.8768 163.577 81.9385C163.641 82.3642 163.718 82.7955 163.811 83.2305L196.343 235.284C196.41 235.596 196.485 235.902 196.564 236.205L196.563 236.206C196.586 236.296 196.612 236.386 196.634 236.469C196.697 236.699 196.763 236.929 196.832 237.155L196.907 237.396C197.001 237.689 197.099 237.981 197.204 238.27L197.205 238.269L197.251 238.392C197.344 238.64 197.44 238.886 197.541 239.129L197.542 239.128L197.645 239.373L197.967 240.09C197.98 240.118 198.017 240.199 198.038 240.243C198.173 240.522 198.313 240.795 198.456 241.062L198.457 241.062C198.493 241.129 198.534 241.203 198.566 241.261C198.683 241.474 198.804 241.684 198.928 241.891L198.927 241.892C198.964 241.955 199.005 242.024 199.046 242.091C199.202 242.345 199.363 242.597 199.529 242.843C199.56 242.889 199.602 242.949 199.626 242.984L199.627 242.983L200.01 243.521C200.062 243.592 200.116 243.661 200.167 243.729L200.166 243.729C200.287 243.888 200.41 244.043 200.535 244.195L200.534 244.196C200.578 244.251 200.631 244.318 200.683 244.38L200.684 244.379C200.855 244.584 201.028 244.787 201.206 244.982L201.238 245.014C201.245 245.021 201.247 245.025 201.249 245.027L201.252 245.03C201.417 245.209 201.584 245.38 201.752 245.548L201.751 245.549C201.81 245.607 201.87 245.664 201.925 245.717L201.924 245.718L202.33 246.098L202.509 246.258C202.678 246.405 202.849 246.548 203.023 246.687L203.022 246.688C203.029 246.693 203.036 246.699 203.048 246.709C203.059 246.718 203.075 246.733 203.092 246.746C203.19 246.824 203.289 246.898 203.388 246.972L203.687 247.188L203.859 247.306L204.306 247.599L204.505 247.721C204.668 247.819 204.831 247.911 204.994 247.999L204.996 248C205.014 248.009 205.033 248.019 205.056 248.032C205.078 248.045 205.105 248.06 205.133 248.074C205.342 248.183 205.552 248.285 205.764 248.379L205.923 248.445C206.085 248.514 206.248 248.579 206.412 248.639L206.623 248.713C206.784 248.768 206.945 248.818 207.105 248.863C207.142 248.874 207.227 248.9 207.285 248.915L207.286 248.914C207.502 248.971 207.72 249.021 207.939 249.062L207.941 249.062C207.966 249.067 207.991 249.071 208.008 249.073C208.028 249.076 208.041 249.076 208.052 249.078L208.051 249.079C208.234 249.11 208.418 249.136 208.601 249.155H208.603C208.675 249.163 208.747 249.168 208.813 249.173L208.812 249.174C208.972 249.187 209.132 249.194 209.291 249.197C209.348 249.198 209.422 249.201 209.491 249.201H209.493C209.601 249.201 209.71 249.198 209.821 249.193L210.156 249.172L249.995 245.594L245.904 246.946L245.542 247.054C245.177 247.151 244.798 247.22 244.407 247.255L201.898 251.071L201.604 251.091C201.505 251.095 201.405 251.096 201.303 251.097L201.305 251.5L201.619 251.493L201.934 251.473L244.443 247.655C244.857 247.618 245.259 247.547 245.647 247.443L246.03 247.328L254.214 244.624C253.71 244.791 253.18 244.901 252.627 244.95V244.954L210.119 248.771C210.015 248.781 209.91 248.787 209.805 248.791L209.491 248.798L209.3 248.795C209.148 248.792 208.996 248.785 208.844 248.772L208.644 248.755C208.469 248.736 208.294 248.712 208.119 248.683L208.012 248.666C207.803 248.627 207.595 248.58 207.387 248.525L207.215 248.476L206.753 248.332L206.551 248.261L206.08 248.074L205.927 248.011C205.825 247.966 205.724 247.918 205.622 247.869L205.32 247.718L205.186 247.645L204.712 247.376L204.52 247.257L204.086 246.974L203.918 246.859C203.821 246.791 203.725 246.72 203.628 246.648L203.341 246.429L203.274 246.373L202.775 245.955L202.601 245.799C202.468 245.678 202.335 245.556 202.204 245.429C202.148 245.374 202.092 245.32 202.036 245.265L201.549 244.758C201.535 244.742 201.519 244.727 201.504 244.711C201.33 244.52 201.159 244.322 200.992 244.121C200.943 244.062 200.894 244.002 200.846 243.942C200.725 243.793 200.605 243.641 200.488 243.486L200.333 243.282L199.957 242.755L199.863 242.618C199.782 242.498 199.702 242.376 199.623 242.253L199.39 241.881C199.351 241.817 199.313 241.752 199.275 241.688L198.918 241.067C198.882 241.002 198.846 240.938 198.811 240.872C198.67 240.608 198.532 240.34 198.401 240.067L198.331 239.918L198.015 239.215L197.913 238.975L197.628 238.25L197.583 238.131C197.48 237.849 197.383 237.563 197.29 237.273L197.218 237.037C197.15 236.815 197.084 236.59 197.023 236.363C196.999 236.277 196.976 236.191 196.953 236.104C196.915 235.955 196.876 235.805 196.84 235.654L196.737 235.199L164.204 83.1465C164.113 82.7205 164.039 82.298 163.975 81.8789C163.964 81.8033 163.955 81.7286 163.944 81.6533C163.92 81.4823 163.898 81.3121 163.878 81.1426L163.827 80.6367L163.806 80.4219C163.776 80.0443 163.759 79.6715 163.751 79.3027C163.75 79.2215 163.75 79.1404 163.749 79.0596C163.747 78.7267 163.753 78.3967 163.768 78.0723C163.77 78.0235 163.771 77.9735 163.774 77.9248C163.784 77.746 163.797 77.569 163.813 77.3936L163.868 76.8711L163.899 76.6289C163.921 76.4621 163.946 76.2961 163.972 76.1318L164.059 75.6436C164.062 75.6291 164.064 75.6141 164.067 75.5996C164.1 75.4334 164.137 75.2695 164.177 75.1074L164.302 74.627L164.366 74.4043C164.411 74.2483 164.459 74.0939 164.509 73.9414L164.666 73.4902L164.695 73.4199C164.747 73.2818 164.802 73.1454 164.86 73.0117L165.037 72.6162L165.127 72.4268C165.26 72.1562 165.4 71.8932 165.55 71.6416L165.625 71.5244C165.687 71.4234 165.751 71.3244 165.817 71.2275L166.017 70.9404C166.083 70.8484 166.15 70.7578 166.219 70.6689C166.28 70.5905 166.342 70.5137 166.406 70.4385L166.598 70.2158C166.665 70.1401 166.731 70.0621 166.8 69.9893C166.883 69.9023 166.969 69.8185 167.055 69.7363L167.319 69.4961L167.431 69.3916C167.654 69.2039 167.886 69.0307 168.125 68.8721C168.152 68.8545 168.181 68.8385 168.207 68.8213C168.442 68.6707 168.682 68.5322 168.932 68.4102C168.95 68.4013 168.969 68.3932 168.987 68.3848C169.248 68.26 169.517 68.1484 169.795 68.0566L161.611 70.7617Z" fill="#0B4D5E"/>
<path d="M165.243 87.9973L156.904 89.9637L156.625 88.6533L164.955 86.6494L165.243 87.9973Z" fill="#0B4D5E"/>
<path d="M156.625 88.6532L156.904 89.9637L165.243 87.997L164.955 86.6494L156.625 88.6532ZM164.767 87.6953L157.212 89.4764L157.1 88.952L164.647 87.1367L164.767 87.6953Z" fill="#0B4D5E"/>
<path d="M195.587 229.807L187.21 231.573L186.92 230.229L195.297 228.463L195.587 229.807Z" fill="#0B4D5E"/>
<path d="M186.92 230.229L187.209 231.573L195.587 229.807L195.297 228.463L186.92 230.229ZM195.109 229.496L187.52 231.097L187.4 230.539L194.989 228.938L195.109 229.496Z" fill="#0B4D5E"/>
<path d="M234.198 247.961L225.52 248.701C225.394 248.712 225.357 248.612 225.437 248.479C225.517 248.345 225.684 248.228 225.81 248.217L234.488 247.476C234.614 247.466 234.651 247.565 234.571 247.699C234.491 247.833 234.324 247.95 234.198 247.961Z" fill="#0B4D5E"/>
<path d="M225.52 248.701L225.772 248.679L225.506 248.519L225.52 248.701ZM225.495 248.402C225.473 248.427 225.452 248.452 225.436 248.478L225.505 248.518L225.52 248.701L225.495 248.402ZM225.436 248.478C225.356 248.612 225.394 248.712 225.52 248.701L225.505 248.518L225.436 248.478ZM225.506 248.519L225.772 248.679H225.775L225.506 248.518V248.519ZM234.487 247.476L225.809 248.217C225.709 248.225 225.583 248.303 225.495 248.402L225.506 248.518L225.775 248.679L234.198 247.961C234.293 247.953 234.41 247.885 234.497 247.795L234.571 247.699C234.651 247.565 234.613 247.466 234.487 247.476Z" fill="#0B4D5E"/>
<path d="M236.084 247.571C236.044 247.638 235.825 247.709 235.595 247.728C235.364 247.748 235.21 247.709 235.251 247.642C235.291 247.575 235.51 247.504 235.74 247.485C235.971 247.465 236.125 247.504 236.084 247.571Z" fill="#0B4D5E"/>
<path d="M235.74 247.485C235.51 247.504 235.291 247.576 235.251 247.643C235.221 247.693 235.3 247.727 235.438 247.733L235.595 247.729C235.796 247.711 235.99 247.655 236.061 247.596L236.084 247.572C236.124 247.504 235.97 247.465 235.74 247.485Z" fill="#0B4D5E"/>
<path d="M224.754 248.539C224.714 248.606 224.495 248.676 224.265 248.696C224.034 248.716 223.88 248.677 223.921 248.61C223.961 248.543 224.18 248.472 224.41 248.452C224.641 248.433 224.795 248.471 224.754 248.539Z" fill="#0B4D5E"/>
<path d="M224.41 248.452C224.18 248.472 223.961 248.543 223.921 248.611C223.891 248.661 223.97 248.695 224.108 248.7L224.265 248.697C224.466 248.679 224.66 248.623 224.731 248.564L224.754 248.539C224.794 248.472 224.64 248.433 224.41 248.452Z" fill="#0B4D5E"/>
<path d="M239.462 247.282C239.412 247.365 239.141 247.452 238.856 247.476C238.572 247.501 238.381 247.453 238.431 247.37C238.481 247.286 238.752 247.199 239.036 247.175C239.321 247.151 239.512 247.199 239.462 247.282Z" fill="#0B4D5E"/>
<path d="M239.036 247.175C238.751 247.199 238.481 247.287 238.432 247.37L238.605 247.474C238.675 247.481 238.76 247.485 238.856 247.477C239.141 247.453 239.412 247.366 239.462 247.283C239.512 247.199 239.321 247.151 239.036 247.175ZM238.432 247.37C238.399 247.426 238.471 247.461 238.605 247.474L238.432 247.37Z" fill="#0B4D5E"/>
<path d="M241.341 247.12C241.291 247.203 241.02 247.29 240.736 247.315C240.451 247.339 240.261 247.291 240.31 247.208C240.36 247.125 240.631 247.038 240.916 247.013C241.2 246.989 241.391 247.036 241.341 247.12Z" fill="#0B4D5E"/>
<path d="M240.915 247.012C240.631 247.037 240.361 247.124 240.311 247.207C240.261 247.291 240.451 247.338 240.736 247.314C241.02 247.289 241.291 247.203 241.341 247.12C241.391 247.036 241.2 246.988 240.915 247.012Z" fill="#0B4D5E"/>
<path d="M243.22 246.961C243.171 247.044 242.9 247.131 242.615 247.155C242.33 247.179 242.14 247.132 242.19 247.048C242.24 246.965 242.51 246.878 242.795 246.854C243.08 246.83 243.27 246.877 243.22 246.961Z" fill="#0B4D5E"/>
<path d="M242.795 246.853C242.51 246.877 242.24 246.965 242.19 247.048C242.14 247.132 242.33 247.179 242.615 247.155C242.9 247.131 243.171 247.044 243.22 246.96C243.27 246.877 243.079 246.829 242.795 246.853Z" fill="#0B4D5E"/>
<path d="M218.163 249.1C218.113 249.184 217.842 249.271 217.557 249.295C217.273 249.319 217.082 249.272 217.132 249.189C217.182 249.105 217.453 249.018 217.737 248.994C218.022 248.969 218.213 249.017 218.163 249.1Z" fill="#0B4D5E"/>
<path d="M217.737 248.993C217.453 249.017 217.183 249.105 217.133 249.188C217.083 249.271 217.273 249.318 217.557 249.294C217.807 249.273 218.046 249.204 218.135 249.131L218.163 249.1C218.213 249.017 218.022 248.968 217.737 248.993Z" fill="#0B4D5E"/>
<path d="M220.042 248.94C219.993 249.024 219.721 249.111 219.437 249.135C219.152 249.159 218.962 249.111 219.012 249.028C219.061 248.945 219.332 248.858 219.617 248.833C219.901 248.809 220.092 248.857 220.042 248.94Z" fill="#0B4D5E"/>
<path d="M219.616 248.833C219.332 248.858 219.061 248.945 219.012 249.029L219.186 249.132C219.255 249.139 219.34 249.143 219.437 249.135C219.721 249.111 219.992 249.024 220.042 248.941C220.092 248.857 219.901 248.809 219.616 248.833ZM219.012 249.029C218.979 249.084 219.051 249.119 219.186 249.132L219.012 249.029Z" fill="#0B4D5E"/>
<path d="M221.922 248.779C221.872 248.862 221.602 248.949 221.317 248.974C221.032 248.998 220.842 248.951 220.892 248.867C220.942 248.784 221.212 248.697 221.497 248.672C221.782 248.648 221.972 248.696 221.922 248.779Z" fill="#0B4D5E"/>
<path d="M221.497 248.672C221.212 248.697 220.942 248.784 220.892 248.868C220.842 248.951 221.032 248.998 221.317 248.974C221.566 248.952 221.805 248.884 221.894 248.811L221.922 248.78C221.972 248.696 221.781 248.648 221.497 248.672Z" fill="#0B4D5E"/>
<path d="M214.404 249.423C214.354 249.506 214.084 249.593 213.799 249.617C213.514 249.642 213.324 249.594 213.374 249.511C213.424 249.427 213.694 249.34 213.979 249.316C214.264 249.292 214.454 249.339 214.404 249.423V249.423Z" fill="#0B4D5E"/>
<path d="M213.979 249.316C213.694 249.34 213.424 249.428 213.374 249.511C213.324 249.594 213.514 249.642 213.799 249.618C214.048 249.596 214.287 249.527 214.376 249.454L214.404 249.423C214.454 249.34 214.263 249.292 213.979 249.316Z" fill="#0B4D5E"/>
<path d="M216.283 249.261C216.234 249.344 215.963 249.431 215.678 249.456C215.393 249.48 215.203 249.433 215.253 249.349C215.302 249.266 215.573 249.179 215.858 249.155C216.143 249.131 216.333 249.178 216.283 249.261V249.261Z" fill="#0B4D5E"/>
<path d="M215.858 249.155C215.573 249.179 215.303 249.267 215.253 249.35L215.427 249.453C215.496 249.46 215.582 249.465 215.678 249.456C215.963 249.432 216.234 249.344 216.284 249.261V249.262C216.334 249.179 216.143 249.131 215.858 249.155ZM215.253 249.35C215.22 249.405 215.292 249.44 215.427 249.453L215.253 249.35Z" fill="#0B4D5E"/>
<path d="M166.608 115.69L166.018 115.817L166.055 115.986C165.774 116.255 165.632 116.656 165.72 117.064L169.75 135.854C169.838 136.261 170.132 136.569 170.499 136.699L170.535 136.869L171.124 136.742C171.749 136.608 172.147 135.993 172.013 135.368L167.982 116.579C167.848 115.954 167.233 115.556 166.608 115.69H166.608Z" fill="#0B4D5E"/>
<path d="M167.982 116.579C167.848 115.954 167.233 115.556 166.608 115.69L166.019 115.816L166.055 115.986C165.774 116.255 165.632 116.656 165.72 117.064L169.75 135.853L169.792 136.002C169.912 136.335 170.177 136.585 170.498 136.699L170.535 136.869L171.124 136.742C171.71 136.616 172.097 136.068 172.032 135.485L172.013 135.368L167.982 116.579ZM166.693 116.084C167.075 116.002 167.451 116.225 167.568 116.589L167.589 116.663L171.619 135.453C171.706 135.86 171.447 136.261 171.04 136.348L170.839 136.391L170.633 136.319C170.39 136.233 170.2 136.032 170.144 135.769L166.113 116.979L166.099 116.88C166.081 116.652 166.17 116.433 166.333 116.277L166.491 116.127L166.651 116.092L166.693 116.084Z" fill="#0B4D5E"/>
<path d="M170.535 136.868C169.91 137.002 169.295 136.604 169.161 135.979L165.13 117.19C164.996 116.565 165.394 115.95 166.019 115.816C166.644 115.682 167.259 116.08 167.393 116.705L171.424 135.494C171.558 136.119 171.16 136.734 170.535 136.868Z" fill="#8AE5CC"/>
<path d="M167.393 116.705C167.259 116.08 166.644 115.682 166.019 115.816C165.394 115.95 164.996 116.565 165.13 117.19L169.161 135.979L169.192 136.093C169.36 136.614 169.874 136.948 170.418 136.887L170.535 136.868C171.121 136.742 171.507 136.194 171.443 135.611L171.423 135.494L167.393 116.705ZM166.103 116.21C166.485 116.128 166.861 116.35 166.979 116.714L167 116.789L171.03 135.579C171.117 135.986 170.858 136.387 170.451 136.474C170.043 136.562 169.642 136.302 169.555 135.895H169.554L165.524 117.105L165.511 117.029C165.469 116.649 165.721 116.292 166.103 116.21Z" fill="#0B4D5E"/>
<path d="M252.554 245.036C258.227 244.533 261.455 237.62 259.75 229.627L227.319 77.5799C225.615 69.5939 219.615 63.4985 213.943 63.9918L171.4 67.6923C165.722 68.186 162.488 75.0884 164.191 83.0793L196.611 235.216C198.315 243.215 204.322 249.313 210.001 248.809L252.554 245.037L252.554 245.036Z" fill="#A0CDFF"/>
<path d="M227.318 77.5797C225.615 69.5937 219.615 63.4985 213.943 63.9918L171.4 67.692C165.723 68.1857 162.488 75.0879 164.191 83.0787L196.611 235.215L196.783 235.96C198.659 243.466 204.314 249.112 209.735 248.828L210.001 248.809L252.555 245.037L252.554 245.036C258.049 244.549 261.251 238.046 259.895 230.373L259.75 229.627L227.318 77.5797ZM213.978 64.3922C216.656 64.1595 219.462 65.4812 221.832 67.8883C224.049 70.1409 225.85 73.3142 226.756 76.9342L226.925 77.6637L259.356 229.711C260.194 233.638 259.813 237.272 258.554 239.969C257.336 242.578 255.311 244.289 252.766 244.608L252.518 244.635L251.65 244.712H251.651L209.966 248.408L209.714 248.425C207.109 248.562 204.4 247.25 202.102 244.918C199.735 242.514 197.842 239.06 197.005 235.131L164.585 82.9948L164.442 82.2623C163.799 78.6186 164.21 75.2691 165.392 72.7448C166.612 70.1408 168.639 68.4336 171.186 68.1188L171.434 68.0934L213.978 64.3922Z" fill="#0B4D5E"/>
<path d="M210.985 66.4446L210.528 64.2978L211.485 64.2148L211.943 66.3613L210.985 66.4446Z" fill="#8AE5CC"/>
<path d="M210.527 64.2979L210.985 66.4443L211.943 66.3613L211.485 64.2148L210.527 64.2979ZM211.454 65.999L211.306 66.0117L211.018 64.6592L211.166 64.6465L211.454 65.999Z" fill="#0B4D5E"/>
<path d="M174.358 69.63L173.9 67.4828L174.857 67.3994L175.315 69.5466L174.358 69.63Z" fill="#8AE5CC"/>
<path d="M173.9 67.4824L174.358 69.63L175.315 69.547L174.858 67.3994L173.9 67.4824ZM174.827 69.1847L174.677 69.1974L174.389 67.8438L174.539 67.8311L174.827 69.1847Z" fill="#0B4D5E"/>
<path d="M258.327 222.881L255.898 223.096L256.186 224.444L258.615 224.229L258.327 222.881Z" fill="#8AE5CC"/>
<path d="M255.899 223.096L256.186 224.444L258.615 224.229L258.328 222.881L255.899 223.096ZM258.126 223.868L256.505 224.011L256.388 223.456L258.008 223.313L258.126 223.868Z" fill="#0B4D5E"/>
<path d="M225.667 81.3579L225.954 82.705L228.382 82.4935L228.095 81.1465L225.667 81.3579Z" fill="#A0CDFF"/>
<path d="M225.667 81.3574L225.954 82.7051L228.382 82.4932L228.095 81.1465L225.667 81.3574ZM227.894 82.1318L226.274 82.2725L226.157 81.7188L227.777 81.5781L227.894 82.1318Z" fill="#0B4D5E"/>
<path d="M165.239 87.9968L167.297 87.8176L167.01 86.4697L164.951 86.6489L165.239 87.9968Z" fill="#0B4D5E"/>
<path d="M164.951 86.6494L165.239 87.9971L167.297 87.8174L167.01 86.4697L164.951 86.6494ZM166.809 87.4551L165.559 87.5645L165.44 87.0098L166.691 86.9014L166.809 87.4551Z" fill="#0B4D5E"/>
<path d="M195.475 229.814L197.517 229.633L197.23 228.284L195.188 228.465L195.475 229.814Z" fill="#A0CDFF"/>
<path d="M195.188 228.465L195.475 229.814L197.517 229.633L197.23 228.284L195.188 228.465ZM197.03 229.272L195.795 229.381L195.677 228.825L196.912 228.717L197.03 229.272Z" fill="#0B4D5E"/>
<path d="M252.461 244.518C257.931 244.033 261.043 237.369 259.399 229.662L226.968 77.6148C225.326 69.9159 219.541 64.0396 214.073 64.5152L171.529 68.2157C166.056 68.6917 162.938 75.346 164.58 83.0493L197 235.186C198.643 242.897 204.434 248.776 209.909 248.291L252.462 244.518H252.461Z" fill="#8AE5CC"/>
<path d="M226.968 77.6148C225.325 69.916 219.541 64.0398 214.073 64.5152L171.529 68.2154C166.056 68.6916 162.938 75.3462 164.58 83.0494L197 235.185L197.166 235.903C198.975 243.139 204.426 248.582 209.652 248.308L209.909 248.291L252.462 244.518H252.461C257.76 244.048 260.847 237.779 259.54 230.38L259.399 229.662L226.968 77.6148ZM214.107 64.9156C216.683 64.6916 219.385 65.9631 221.668 68.2818C223.804 70.4514 225.538 73.5082 226.411 76.9957L226.574 77.6988L259.006 229.746C259.813 233.53 259.446 237.031 258.233 239.628C257.023 242.22 254.985 243.89 252.426 244.117H252.427L209.873 247.889L209.632 247.906C207.126 248.037 204.518 246.776 202.305 244.529C200.024 242.214 198.2 238.886 197.393 235.101L164.974 82.9654L164.837 82.2594C164.218 78.749 164.612 75.5228 165.751 73.0924C166.925 70.5853 168.876 68.9438 171.326 68.6412L171.564 68.6168L214.107 64.9156Z" fill="#0B4D5E"/>
<path d="M252.407 244.258C257.775 243.782 260.829 237.242 259.216 229.679L226.784 77.6317C225.172 70.0765 219.496 64.3094 214.129 64.7765L171.586 68.477C166.214 68.9441 163.155 75.4744 164.765 83.0343L197.185 235.17C198.798 242.738 204.481 248.507 209.854 248.031L252.407 244.258Z" fill="#8AE5CC"/>
<path d="M226.784 77.6319C225.173 70.0769 219.496 64.3094 214.129 64.7765L171.585 68.4767C166.214 68.9441 163.155 75.4745 164.766 83.0343L197.185 235.17L197.348 235.874C199.123 242.976 204.473 248.318 209.602 248.049L209.854 248.031L252.406 244.258C257.607 243.797 260.635 237.645 259.353 230.385L259.215 229.679L226.784 77.6319ZM214.164 65.1778C216.689 64.9582 219.338 66.2041 221.577 68.4786C223.672 70.6068 225.375 73.6053 226.231 77.0265L226.39 77.7159L258.822 229.763C259.613 233.475 259.253 236.91 258.064 239.456C256.877 241.998 254.88 243.635 252.371 243.858L209.818 247.63L209.58 247.647C207.125 247.775 204.567 246.538 202.396 244.334C200.159 242.063 198.371 238.8 197.579 235.087L165.159 82.9503L165.025 82.2579C164.417 78.8143 164.805 75.6502 165.922 73.2667C167.074 70.8082 168.986 69.199 171.387 68.9025L171.62 68.878L214.164 65.1778Z" fill="#0B4D5E"/>
<path d="M190.015 73.264L198.382 72.536C198.605 72.5166 198.731 72.2468 198.664 71.9335C198.597 71.6202 198.363 71.3818 198.14 71.4015L189.773 72.1296C189.55 72.149 189.424 72.4188 189.491 72.7321C189.558 73.0454 189.792 73.2834 190.015 73.264Z" fill="#0B4D5E"/>
<path d="M189.773 72.1291C189.55 72.1487 189.424 72.4185 189.491 72.7316L189.523 72.8449C189.616 73.1 189.82 73.2797 190.015 73.2629L198.382 72.5353C198.577 72.5184 198.697 72.3097 198.68 72.048L198.664 71.9328C198.597 71.6195 198.362 71.3808 198.14 71.4006L189.773 72.1291ZM198.173 71.8244C198.211 71.8627 198.251 71.9303 198.27 72.0168C198.281 72.0714 198.279 72.1126 198.274 72.1398L190.008 72.8595C190.002 72.8559 189.993 72.8505 189.981 72.839C189.944 72.8008 189.903 72.7337 189.885 72.6476C189.873 72.5926 189.876 72.5508 189.881 72.5236L198.148 71.8039C198.153 71.8075 198.162 71.8132 198.173 71.8244Z" fill="#0B4D5E"/>
<path d="M200.103 71.8062C200.303 72.7477 201.008 73.4633 201.677 73.4054C202.346 73.347 202.725 72.5367 202.524 71.5956C202.324 70.6541 201.619 69.9385 200.95 69.9965C200.281 70.0544 199.902 70.8647 200.103 71.8062Z" fill="#0B4D5E"/>
<path d="M200.95 69.9964C200.281 70.0544 199.902 70.8655 200.102 71.807C200.291 72.6897 200.923 73.3735 201.552 73.4076L201.677 73.4056C202.304 73.3509 202.677 72.6355 202.556 71.7709L202.524 71.5961C202.324 70.6546 201.619 69.9385 200.95 69.9964ZM200.985 70.3978C201.162 70.3827 201.394 70.4689 201.626 70.7045C201.825 70.9069 201.997 71.1954 202.094 71.5326L202.131 71.68C202.217 72.0815 202.172 72.4278 202.062 72.6615C201.955 72.8901 201.801 72.9903 201.642 73.0043H201.643C201.466 73.0195 201.233 72.9344 201.001 72.6986C200.773 72.4673 200.582 72.1231 200.497 71.723V71.722C200.411 71.3205 200.456 70.9752 200.565 70.7416C200.672 70.5128 200.826 70.4117 200.985 70.3978Z" fill="#0B4D5E"/>
<path d="M172.197 71.3384L176.787 70.9389C177.467 70.8797 178.185 71.6082 178.389 72.5658L178.693 73.993C179.149 76.1326 180.751 77.7595 182.271 77.627L207.671 75.4153C209.19 75.2829 210.052 73.4417 209.596 71.3029L209.292 69.8761C209.088 68.9185 209.474 68.0946 210.154 68.0354L214.74 67.6363C218.993 67.2662 223.475 71.8196 224.752 77.8066L257.183 229.857C258.461 235.85 256.05 241.014 251.797 241.391L209.243 245.162C204.986 245.54 200.499 240.984 199.221 234.988L166.802 82.8549C165.525 76.8647 167.941 71.7088 172.197 71.3384Z" fill="#0B4D5E"/>
<path d="M214.74 67.6363L210.154 68.0347C209.473 68.094 209.088 68.918 209.292 69.8755L209.596 71.3023L209.666 71.6997C209.942 73.6647 209.095 75.2903 207.671 75.4146L182.271 77.6265C180.846 77.7507 179.348 76.3285 178.791 74.3872L178.693 73.9927L178.389 72.565C178.185 71.6075 177.467 70.8788 176.786 70.938L172.198 71.3374C167.941 71.7079 165.526 76.8639 166.802 82.854L199.222 234.988L199.351 235.545C200.734 241.08 204.843 245.251 208.844 245.183L209.243 245.162L251.797 241.391C255.917 241.026 258.309 236.168 257.292 230.417L257.183 229.857L224.752 77.8062C223.475 71.8193 218.993 67.2664 214.74 67.6363ZM214.775 68.0367C216.743 67.8654 218.815 68.8328 220.574 70.6197C222.22 72.2907 223.558 74.6493 224.233 77.3462L224.359 77.8902L256.789 229.941C257.414 232.868 257.13 235.566 256.199 237.559C255.271 239.548 253.713 240.817 251.761 240.99L209.207 244.761L208.837 244.781C206.979 244.812 205.052 243.858 203.402 242.182C201.645 240.399 200.239 237.831 199.615 234.904L167.196 82.7701L167.089 82.2251C166.61 79.5107 166.915 77.0257 167.789 75.1597C168.661 73.2984 170.086 72.0701 171.87 71.7837L172.232 71.7388L176.822 71.3394C177.004 71.3235 177.243 71.412 177.48 71.6529C177.683 71.8597 177.858 72.1546 177.957 72.4986L177.994 72.649L178.299 74.0767C178.542 75.2168 179.092 76.2283 179.796 76.9439C180.453 77.6106 181.277 78.0503 182.134 78.0367L182.306 78.0279L207.706 75.8159C208.641 75.7344 209.345 75.1246 209.74 74.2818C210.132 73.4438 210.232 72.3566 209.99 71.2183L209.686 69.7915L209.659 69.6411C209.611 69.2956 209.658 68.9991 209.756 68.7896C209.852 68.5844 209.985 68.4786 210.127 68.4458L210.189 68.4361L214.775 68.0367Z" fill="#0B4D5E"/>
<path d="M172.197 71.3403L176.787 70.9408C177.467 70.8816 178.184 71.6101 178.389 72.5678L178.693 73.9949C179.148 76.1345 180.751 77.7614 182.271 77.629L207.671 75.4173C209.19 75.2848 210.052 73.4436 209.596 71.3049L209.292 69.8781C209.088 68.9205 209.473 68.0965 210.154 68.0373L214.74 67.6382C218.993 67.2682 223.475 71.8215 224.752 77.8086L239.007 144.421L181.002 149.494L166.802 82.8569C165.525 76.8666 167.941 71.7108 172.197 71.3403Z" fill="#F0F4FF"/>
<path d="M214.74 67.6392L210.154 68.0377C209.474 68.0968 209.087 68.9209 209.292 69.8785L209.596 71.3052L209.666 71.7027C209.941 73.6677 209.095 75.2933 207.67 75.4175L182.271 77.6295C180.846 77.7537 179.349 76.3314 178.792 74.3902L178.693 73.9957L178.388 72.5679C178.184 71.6106 177.467 70.8819 176.787 70.941L172.197 71.3404C167.941 71.7109 165.525 76.867 166.801 82.857L181.003 149.495L239.007 144.421L224.753 77.8091C223.475 71.8221 218.992 67.2691 214.74 67.6392ZM214.775 68.0396C216.743 67.8684 218.816 68.8357 220.575 70.6226C222.22 72.2937 223.557 74.6523 224.232 77.3492L224.358 77.8931L238.519 144.06L181.322 149.062L167.196 82.773L167.089 82.2281C166.61 79.5137 166.914 77.0286 167.789 75.1627C168.661 73.3012 170.086 72.0729 171.871 71.7867L172.232 71.7418L176.822 71.3423C177.004 71.3267 177.242 71.4152 177.479 71.6558C177.683 71.8627 177.859 72.1575 177.958 72.5015L177.995 72.6519L178.298 74.0796C178.541 75.2196 179.091 76.2313 179.795 76.9468C180.452 77.6134 181.277 78.0531 182.133 78.0396L182.305 78.0308L207.706 75.8189C208.64 75.7374 209.344 75.1276 209.739 74.2847C210.131 73.4468 210.233 72.3596 209.99 71.2213L209.686 69.7945L209.659 69.6441C209.61 69.2987 209.658 69.002 209.755 68.7925C209.851 68.5876 209.984 68.4817 210.127 68.4488L210.188 68.439L214.775 68.0396Z" fill="#0B4D5E"/>
<path d="M226.025 132.26C225.414 132.26 224.918 131.765 224.918 131.154C224.918 130.542 225.414 130.047 226.025 130.047C226.636 130.047 227.132 130.542 227.132 131.154C227.132 131.765 226.636 132.26 226.025 132.26Z" fill="#0B4D5E"/>
<path d="M225.321 131.153C225.321 130.765 225.636 130.449 226.025 130.449C226.414 130.449 226.729 130.765 226.729 131.153C226.729 131.542 226.414 131.857 226.025 131.857V132.26L226.138 132.255C226.659 132.202 227.073 131.787 227.126 131.267L227.132 131.153C227.131 130.542 226.636 130.047 226.025 130.047L225.912 130.053C225.354 130.109 224.919 130.58 224.919 131.153L224.924 131.267C224.98 131.825 225.452 132.26 226.025 132.26V131.857C225.636 131.857 225.321 131.542 225.321 131.153Z" fill="#0B4D5E"/>
<path d="M225.748 131.523C225.757 131.523 225.767 131.523 225.776 131.522L302.124 126.197C302.346 126.181 302.513 125.989 302.498 125.767C302.482 125.545 302.292 125.378 302.068 125.394L225.721 130.719C225.499 130.735 225.331 130.927 225.346 131.149C225.361 131.361 225.539 131.523 225.748 131.523Z" fill="#0B4D5E"/>
<path d="M225.72 130.719C225.499 130.735 225.331 130.927 225.346 131.149L225.359 131.226C225.406 131.399 225.565 131.524 225.748 131.524L225.776 131.523L302.124 126.197C302.346 126.182 302.513 125.989 302.498 125.768C302.482 125.546 302.292 125.378 302.068 125.394L225.72 130.719Z" fill="#0B4D5E"/>
<path d="M304.87 125.921C304.879 125.921 304.889 125.921 304.898 125.92L312.231 125.409C312.453 125.393 312.621 125.201 312.606 124.979C312.59 124.757 312.395 124.589 312.176 124.606L304.843 125.117C304.621 125.133 304.453 125.325 304.469 125.547C304.483 125.759 304.661 125.921 304.87 125.921Z" fill="#0B4D5E"/>
<path d="M304.843 125.117C304.621 125.133 304.454 125.325 304.469 125.547L304.482 125.624C304.528 125.797 304.687 125.921 304.87 125.921L304.899 125.92L312.232 125.409C312.453 125.394 312.621 125.201 312.606 124.98C312.59 124.758 312.395 124.589 312.176 124.606L304.843 125.117Z" fill="#0B4D5E"/>
<path d="M305.692 129.144C305.702 129.144 305.711 129.144 305.721 129.143L318.779 128.232C319.001 128.216 319.168 128.024 319.153 127.802C319.138 127.58 318.94 127.414 318.723 127.429L305.665 128.339C305.443 128.355 305.276 128.547 305.291 128.769C305.306 128.981 305.483 129.144 305.692 129.144Z" fill="#0B4D5E"/>
<path d="M305.665 128.34C305.443 128.356 305.275 128.548 305.291 128.769L305.304 128.847C305.351 129.019 305.51 129.143 305.693 129.143L305.72 129.142L318.779 128.232C319.001 128.217 319.168 128.024 319.153 127.803C319.138 127.581 318.94 127.414 318.723 127.429L305.665 128.34Z" fill="#0B4D5E"/>
<path d="M306.901 132.514C306.91 132.514 306.92 132.514 306.929 132.513L319.987 131.602C320.209 131.586 320.376 131.394 320.361 131.172C320.345 130.951 320.153 130.785 319.931 130.799L306.874 131.71C306.652 131.725 306.484 131.917 306.499 132.139C306.514 132.352 306.692 132.514 306.901 132.514Z" fill="#0B4D5E"/>
<path d="M306.874 131.71C306.652 131.726 306.484 131.918 306.5 132.14L306.512 132.217C306.559 132.39 306.718 132.514 306.901 132.514L306.929 132.513L319.987 131.602C320.181 131.589 320.333 131.439 320.358 131.254L320.361 131.173C320.345 130.951 320.153 130.785 319.931 130.799L306.874 131.71Z" fill="#0B4D5E"/>
<path d="M316.687 126.749C316.787 126.749 316.885 126.713 316.962 126.641L318.311 125.386C318.473 125.235 318.483 124.98 318.331 124.817C318.18 124.654 317.925 124.645 317.762 124.796L316.659 125.824L313.9 123.779C313.72 123.647 313.469 123.685 313.336 123.863C313.204 124.042 313.242 124.294 313.42 124.426L316.448 126.67C316.52 126.723 316.604 126.749 316.688 126.749L316.687 126.749Z" fill="#0B4D5E"/>
<path d="M313.899 123.779C313.719 123.647 313.469 123.685 313.337 123.863C313.205 124.042 313.241 124.294 313.42 124.426L316.448 126.67L316.505 126.704C316.562 126.733 316.625 126.748 316.688 126.748C316.762 126.748 316.835 126.728 316.9 126.688L316.963 126.641L318.311 125.385C318.473 125.234 318.483 124.98 318.332 124.817C318.18 124.654 317.925 124.646 317.762 124.797L316.659 125.823L313.899 123.779Z" fill="#0B4D5E"/>
<path d="M190.745 146.25C190.069 146.25 189.521 145.702 189.521 145.026C189.521 144.35 190.069 143.802 190.745 143.802C191.421 143.802 191.969 144.35 191.969 145.026C191.969 145.702 191.421 146.25 190.745 146.25Z" fill="#0B4D5E"/>
<path d="M189.923 145.026C189.923 144.573 190.291 144.204 190.744 144.204C191.198 144.204 191.567 144.573 191.567 145.026C191.566 145.48 191.198 145.848 190.744 145.848V146.25L190.87 146.244C191.446 146.186 191.905 145.727 191.963 145.151L191.969 145.026C191.969 144.35 191.42 143.802 190.744 143.802L190.619 143.808C190.002 143.87 189.521 144.393 189.521 145.026L189.526 145.151C189.589 145.769 190.111 146.25 190.744 146.25V145.848C190.291 145.848 189.923 145.48 189.923 145.026Z" fill="#0B4D5E"/>
<path d="M98.161 151.945C98.1703 151.945 98.18 151.945 98.1892 151.944L190.634 145.496C190.856 145.48 191.023 145.288 191.008 145.066C190.992 144.844 190.793 144.677 190.578 144.692L98.1337 151.14C97.9118 151.156 97.7442 151.348 97.7595 151.57C97.7744 151.782 97.9516 151.945 98.161 151.945V151.945Z" fill="#0B4D5E"/>
<path d="M98.134 151.141C97.9121 151.156 97.7446 151.348 97.7599 151.57C97.7749 151.782 97.952 151.945 98.1613 151.945V151.944C98.1705 151.944 98.1804 151.944 98.1896 151.943L190.634 145.496C190.856 145.48 191.023 145.288 191.008 145.066C190.992 144.844 190.793 144.677 190.578 144.692L98.134 151.141Z" fill="#0B4D5E"/>
<path d="M81.6242 152.898C81.6335 152.898 81.6431 152.898 81.6524 152.897L89.1733 152.373C89.3952 152.357 89.5627 152.165 89.5474 151.943C89.5317 151.721 89.3376 151.555 89.1177 151.569L81.5968 152.094C81.3749 152.109 81.2074 152.301 81.2227 152.523C81.2376 152.735 81.4148 152.898 81.6242 152.898V152.898Z" fill="#0B4D5E"/>
<path d="M81.5972 152.095C81.3753 152.11 81.2069 152.302 81.2222 152.524C81.2372 152.736 81.4152 152.899 81.6246 152.899V152.898C81.6336 152.898 81.6429 152.898 81.6519 152.897L89.1734 152.374C89.3675 152.36 89.5196 152.211 89.5445 152.025L89.5474 151.944C89.5317 151.722 89.3376 151.556 89.1177 151.57L81.5972 152.095Z" fill="#0B4D5E"/>
<path d="M82.4689 156.203C82.4781 156.203 82.4878 156.203 82.497 156.202L95.8886 155.268C96.1105 155.253 96.278 155.061 96.2627 154.839C96.247 154.617 96.0569 154.449 95.833 154.465L82.4415 155.399C82.2196 155.415 82.0521 155.607 82.0674 155.829C82.0823 156.041 82.2595 156.203 82.4689 156.203Z" fill="#0B4D5E"/>
<path d="M82.4414 155.398C82.2196 155.414 82.0523 155.606 82.0673 155.828L82.08 155.905C82.1267 156.079 82.2854 156.203 82.4687 156.203L82.497 156.202L95.8887 155.269C96.1105 155.253 96.2779 155.061 96.2627 154.839C96.247 154.617 96.057 154.449 95.8331 154.465L82.4414 155.398Z" fill="#0B4D5E"/>
<path d="M83.7063 159.66C83.7156 159.66 83.7253 159.66 83.7345 159.659L97.1261 158.725C97.348 158.71 97.5155 158.517 97.5002 158.296C97.4849 158.074 97.2872 157.907 97.0705 157.922L83.6789 158.856C83.4571 158.871 83.2895 159.064 83.3048 159.285C83.3197 159.498 83.4969 159.66 83.7063 159.66Z" fill="#0B4D5E"/>
<path d="M83.6789 158.855C83.4571 158.871 83.2897 159.063 83.3049 159.285L83.3176 159.362C83.3643 159.536 83.523 159.66 83.7062 159.66L83.7346 159.659L97.1262 158.726C97.3203 158.712 97.4725 158.563 97.4973 158.377L97.5002 158.296C97.4849 158.074 97.2872 157.907 97.0705 157.922L83.6789 158.855Z" fill="#0B4D5E"/>
<path d="M93.7427 153.748C93.8418 153.748 93.9401 153.712 94.0174 153.64L95.4003 152.353C95.5629 152.201 95.5722 151.946 95.4204 151.783C95.269 151.621 95.0141 151.612 94.8514 151.763L93.7137 152.822L90.8775 150.721C90.6983 150.588 90.4462 150.626 90.3141 150.804C90.182 150.983 90.2195 151.235 90.3978 151.368L93.5035 153.668C93.5752 153.721 93.6594 153.747 93.7435 153.747L93.7427 153.748Z" fill="#0B4D5E"/>
<path d="M90.8771 150.72C90.698 150.588 90.4457 150.626 90.3137 150.804C90.182 150.983 90.2194 151.235 90.3977 151.368L93.5031 153.668C93.5748 153.72 93.6592 153.747 93.7434 153.747L93.7424 153.748C93.8414 153.748 93.9405 153.712 94.0178 153.64L95.4006 152.352C95.5426 152.22 95.5674 152.008 95.4699 151.848L95.4201 151.783C95.2688 151.621 95.0144 151.612 94.8518 151.762L93.7141 152.822L90.8771 150.72Z" fill="#0B4D5E"/>
<path d="M226.128 167.187C227.48 167.032 228.514 166.425 229.227 165.372C229.936 164.324 230.15 163.097 229.874 161.693L226.256 143.315C226.004 142.035 225.371 141.015 224.359 140.25C223.35 139.487 222.211 139.165 220.94 139.283L219.848 139.385L219.192 135.806C218.718 133.221 217.421 131.136 215.303 129.534C213.198 127.941 210.856 127.256 208.259 127.472C205.653 127.689 203.564 128.75 201.989 130.669C200.395 132.611 199.769 134.894 200.128 137.528L200.625 141.174L199.499 141.278C198.183 141.401 197.139 141.934 196.366 142.882C195.589 143.835 195.279 144.97 195.441 146.288L197.759 165.251C197.937 166.701 198.553 167.864 199.61 168.734C200.67 169.607 201.905 169.964 203.307 169.803L226.128 167.186L226.128 167.187ZM215.919 139.751L204.645 140.8L204.115 137.168C203.892 135.644 204.245 134.297 205.168 133.125C206.086 131.963 207.314 131.318 208.854 131.186C210.393 131.053 211.778 131.471 213.024 132.439C214.276 133.413 215.034 134.651 215.296 136.159L215.919 139.751ZM225.315 162.814L202.71 165.329C202.544 165.348 202.396 165.303 202.263 165.195C202.133 165.088 202.056 164.95 202.033 164.779L199.538 145.893C199.517 145.736 199.555 145.598 199.65 145.477C199.747 145.358 199.875 145.29 200.033 145.275L221.668 143.197C221.821 143.182 221.96 143.223 222.087 143.319C222.215 143.417 222.293 143.542 222.322 143.695L225.777 162.148C225.808 162.316 225.779 162.464 225.689 162.593C225.6 162.723 225.476 162.797 225.316 162.815L225.315 162.814ZM213.162 158.134C212.039 158.254 211.019 157.951 210.107 157.226C209.199 156.503 208.659 155.57 208.487 154.428C208.317 153.292 208.561 152.292 209.219 151.425C209.874 150.563 210.753 150.079 211.856 149.967C212.959 149.856 213.956 150.151 214.856 150.853C215.756 151.558 216.303 152.472 216.494 153.599C216.686 154.732 216.461 155.739 215.817 156.621C215.168 157.509 214.283 158.015 213.162 158.134Z" fill="#8AE5CC"/>
<path d="M215.063 129.017C213.01 127.595 210.735 126.988 208.236 127.196L207.74 127.248C205.292 127.559 203.298 128.637 201.773 130.494L201.477 130.874C200.147 132.667 199.583 134.733 199.795 137.062L199.853 137.566L200.311 140.924L199.474 141.002L199.217 141.031C197.951 141.203 196.923 141.759 196.15 142.707L196.001 142.9C195.331 143.811 195.044 144.87 195.139 146.065L195.164 146.323L197.483 165.286C197.657 166.706 198.238 167.876 199.229 168.774L199.434 168.95C200.554 169.872 201.864 170.25 203.339 170.081L226.025 167.478L226.16 167.464C227.498 167.31 228.556 166.733 229.311 165.734L229.457 165.528C230.213 164.41 230.435 163.106 230.146 161.64L226.528 143.262L226.475 143.013C226.179 141.783 225.529 140.787 224.527 140.029L224.325 139.883C223.31 139.182 222.17 138.89 220.914 139.007L220.076 139.085L219.466 135.757L219.364 135.265C218.809 132.836 217.508 130.854 215.472 129.313L215.063 129.017ZM208.282 127.751C210.651 127.554 212.798 128.125 214.748 129.476L215.136 129.757C217.07 131.22 218.297 133.091 218.822 135.391L218.918 135.857L219.62 139.686L220.966 139.561C222.094 139.457 223.104 139.716 224.012 140.342L224.191 140.472C225.088 141.151 225.668 142.036 225.934 143.145L225.982 143.37L229.601 161.748C229.864 163.089 229.658 164.239 228.996 165.217L228.868 165.395C228.212 166.265 227.298 166.771 226.103 166.91L226.096 166.911L203.275 169.528L203.027 169.55C201.801 169.636 200.724 169.292 199.787 168.52L199.604 168.363C198.718 167.561 198.194 166.516 198.035 165.218L195.717 146.256L195.693 146.023C195.608 144.95 195.864 144.024 196.451 143.227L196.582 143.058C197.259 142.229 198.156 141.736 199.294 141.582L199.524 141.555L200.651 141.451L200.94 141.425L200.9 141.136L200.404 137.491L200.35 137.014C200.149 134.813 200.679 132.882 201.926 131.203L202.203 130.846C203.633 129.105 205.496 128.093 207.812 127.8L208.282 127.751ZM221.642 142.921L200.006 144.999L199.922 145.01C199.756 145.042 199.61 145.119 199.491 145.239L199.434 145.302L199.433 145.305L199.383 145.375C199.291 145.517 199.248 145.676 199.255 145.845L199.262 145.93L201.757 164.816C201.789 165.056 201.9 165.259 202.087 165.412C202.252 165.546 202.444 165.615 202.65 165.612L202.74 165.606L225.214 163.106L225.347 163.092C225.585 163.065 225.781 162.949 225.917 162.752C226.053 162.556 226.094 162.332 226.051 162.098L222.595 143.645L222.576 143.563C222.523 143.377 222.414 143.219 222.255 143.098L222.115 143.009C221.97 142.935 221.81 142.905 221.642 142.921ZM221.753 143.474C221.81 143.479 221.864 143.499 221.918 143.541C221.974 143.583 222.01 143.632 222.031 143.688L222.048 143.748L225.504 162.2C225.518 162.275 225.511 162.334 225.488 162.385L225.461 162.434L225.459 162.436L225.425 162.477C225.389 162.512 225.346 162.531 225.287 162.538L225.284 162.539L202.679 165.053L202.614 165.055C202.552 165.051 202.496 165.027 202.439 164.98L202.39 164.932C202.345 164.881 202.319 164.82 202.309 164.743L199.813 145.858L199.811 145.799C199.813 145.742 199.833 145.696 199.868 145.651C199.916 145.593 199.974 145.561 200.059 145.552L221.694 143.474H221.753ZM215.026 150.634C214.072 149.891 213.005 149.573 211.828 149.691C210.651 149.81 209.701 150.332 208.997 151.257C208.292 152.186 208.031 153.264 208.212 154.469C208.383 155.605 208.9 156.553 209.758 157.298L209.935 157.444C210.841 158.165 211.857 158.497 212.968 158.43L213.191 158.412C214.314 158.292 215.225 157.806 215.908 156.96L216.041 156.786C216.732 155.84 216.971 154.755 216.768 153.552L216.726 153.332C216.491 152.237 215.922 151.335 215.026 150.634ZM211.884 150.245C212.849 150.148 213.723 150.381 214.525 150.954L214.685 151.073C215.478 151.693 215.975 152.482 216.182 153.45L216.22 153.646C216.4 154.71 216.189 155.64 215.592 156.458L215.477 156.608C214.888 157.338 214.112 157.754 213.132 157.858L212.937 157.875C211.966 157.933 211.083 157.647 210.28 157.009L210.124 156.879C209.365 156.22 208.914 155.392 208.763 154.387L208.737 154.189C208.64 153.272 208.839 152.462 209.33 151.746L209.44 151.593C210.048 150.796 210.855 150.349 211.884 150.245ZM212.949 132.038C211.713 131.157 210.341 130.779 208.83 130.909C207.218 131.048 205.918 131.728 204.95 132.954C204.039 134.11 203.655 135.435 203.803 136.912L203.84 137.209L204.408 141.101L215.945 140.028L216.245 140.001L215.569 136.112L215.513 135.819C215.195 134.372 214.418 133.171 213.195 132.22L212.949 132.038ZM208.877 131.464C210.253 131.345 211.497 131.685 212.629 132.492L212.854 132.66C213.978 133.534 214.681 134.624 214.97 135.94L215.021 136.207L215.595 139.502L204.882 140.498L204.39 137.129L204.356 136.859C204.231 135.609 204.523 134.497 205.229 133.509L205.387 133.299C206.254 132.2 207.41 131.59 208.877 131.464Z" fill="#0B4D5E"/>
<path d="M195.614 147.714L195.44 146.289C195.279 144.97 195.588 143.835 196.365 142.882C197.138 141.934 198.182 141.401 199.498 141.278L200.624 141.174L200.127 137.528C199.768 134.895 200.394 132.611 201.987 130.669C203.564 128.75 205.651 127.69 208.258 127.473C210.855 127.256 213.197 127.942 215.303 129.534C217.419 131.136 218.717 133.222 219.191 135.807L219.846 139.385L220.938 139.283C222.211 139.165 223.349 139.486 224.358 140.25C225.37 141.015 226.003 142.036 226.255 143.315L226.588 145.005L222.63 145.352L222.32 143.696C222.291 143.542 222.213 143.417 222.085 143.319C221.959 143.223 221.819 143.182 221.666 143.197L200.032 145.275C199.874 145.29 199.746 145.358 199.649 145.477C199.554 145.598 199.516 145.737 199.537 145.894L199.73 147.354L195.614 147.714ZM204.113 137.168L204.644 140.8L215.918 139.751L215.294 136.159C215.032 134.651 214.274 133.413 213.022 132.439C211.776 131.471 210.388 131.053 208.852 131.186C207.311 131.318 206.084 131.963 205.166 133.126C204.243 134.297 203.891 135.644 204.113 137.168Z" fill="#F0F4FF"/>
<path d="M215.062 129.016C213.008 127.594 210.734 126.987 208.235 127.195L207.739 127.247C205.29 127.558 203.298 128.635 201.772 130.493L201.475 130.873C200.145 132.666 199.582 134.732 199.794 137.062L199.851 137.565L200.309 140.923L199.472 141.001L199.216 141.03C197.95 141.202 196.922 141.759 196.149 142.706L196 142.899C195.33 143.81 195.043 144.87 195.137 146.064L195.164 146.322L195.338 147.747L195.371 148.015L200.044 147.605L199.813 145.857L199.81 145.798C199.813 145.743 199.832 145.697 199.866 145.652L199.904 145.612C199.931 145.589 199.962 145.574 199.999 145.563L200.058 145.553L221.693 143.474C221.754 143.468 221.808 143.478 221.862 143.506L221.917 143.541C221.973 143.583 222.009 143.631 222.03 143.687L222.047 143.747L222.356 145.402L222.403 145.65L222.654 145.629L226.612 145.282L226.921 145.256L226.528 143.262L226.473 143.013C226.178 141.782 225.527 140.785 224.526 140.028L224.325 139.883C223.309 139.182 222.17 138.89 220.913 139.007L220.075 139.084L219.465 135.757L219.363 135.265C218.808 132.836 217.506 130.853 215.47 129.312L215.062 129.016ZM208.282 127.75C210.651 127.552 212.798 128.124 214.748 129.475L215.135 129.756C217.068 131.219 218.295 133.09 218.821 135.39L218.917 135.856L219.618 139.685L220.965 139.56C222.093 139.455 223.103 139.715 224.011 140.342L224.19 140.472C225.086 141.149 225.666 142.036 225.932 143.144L225.982 143.369L226.255 144.755L222.858 145.052L222.594 143.644L222.574 143.562C222.521 143.376 222.412 143.218 222.254 143.098L222.114 143.01C221.969 142.935 221.809 142.904 221.64 142.92L200.006 144.998L199.921 145.011C199.755 145.042 199.608 145.118 199.49 145.238L199.433 145.303L199.431 145.305L199.382 145.374C199.29 145.516 199.247 145.675 199.254 145.845L199.261 145.93L199.417 147.1L195.858 147.412L195.716 146.255L195.692 146.022C195.607 144.95 195.863 144.023 196.45 143.226L196.581 143.057C197.257 142.228 198.155 141.736 199.293 141.582L199.524 141.556L200.649 141.451L200.939 141.424L200.899 141.136L200.403 137.49L200.348 137.015C200.147 134.813 200.678 132.882 201.925 131.202L202.202 130.846C203.632 129.104 205.495 128.092 207.812 127.799L208.282 127.75ZM212.948 132.037C211.711 131.156 210.335 130.778 208.828 130.908L208.529 130.941C207.152 131.122 206.016 131.717 205.133 132.729L204.947 132.953L204.772 133.186C203.988 134.286 203.663 135.532 203.802 136.911L203.838 137.208L204.368 140.84L204.407 141.101L215.944 140.028L216.244 140L215.568 136.111L215.511 135.818C215.192 134.371 214.416 133.171 213.193 132.22L212.948 132.037ZM208.876 131.463C210.249 131.344 211.494 131.684 212.627 132.491L212.851 132.659C213.976 133.534 214.678 134.624 214.968 135.94L215.02 136.206L215.594 139.501L204.881 140.497L204.388 137.128L204.355 136.858C204.22 135.519 204.565 134.338 205.385 133.298C206.198 132.268 207.265 131.667 208.604 131.492L208.876 131.463Z" fill="#0B4D5E"/>
</svg>
