<svg width="172" height="172" viewBox="0 0 172 172" fill="none" xmlns="http://www.w3.org/2000/svg">
<g clip-path="url(#clip0_9503_13389)">
<path d="M10.9428 56.0999L76.4968 93.0849L76.4918 93.4229C76.8898 93.4039 77.2818 93.3179 77.5878 93.1419L141.745 56.0999C142.089 55.9049 142.256 55.6469 142.256 55.3899C142.325 80.1879 142.396 104.983 142.466 129.779C142.468 130.037 142.3 130.292 141.96 130.487L77.7958 167.533C77.1568 167.902 76.1508 167.91 75.4778 167.579L75.4758 167.609L11.1528 130.487C10.8198 130.294 10.6528 130.04 10.6528 129.786L10.4418 55.3999C10.4418 55.6539 10.6078 55.9079 10.9428 56.0999Z" fill="#8AE5CC"/>
<path d="M75.9238 168.444L75.9358 168.255C76.6568 168.402 77.4648 168.304 78.0468 167.966L142.211 130.92C142.694 130.643 142.97 130.225 142.967 129.775L142.757 55.3879H141.757C141.757 55.4489 141.69 55.5569 141.5 55.6639L77.3388 92.7089C77.2438 92.7629 77.1298 92.8089 77.0018 92.8429V92.7939L11.1918 55.6649C11.0198 55.5669 10.9428 55.4609 10.9418 55.3999V55.3979H9.94177V55.4009L10.1528 129.787C10.1528 130.23 10.4258 130.643 10.9018 130.92L75.9238 168.444ZM141.76 56.6689L141.967 129.78C141.967 129.844 141.889 129.952 141.712 130.053L77.5468 167.1C77.0628 167.38 76.2348 167.393 75.6988 167.13L75.3448 166.955L11.4038 130.054C11.2308 129.953 11.1538 129.847 11.1538 129.785L10.9468 56.6749L75.9948 93.3739L75.9858 93.9459L76.5168 93.9209C77.0288 93.8979 77.4858 93.7769 77.8378 93.5749L141.76 56.6689Z" fill="#0B4D5E"/>
<path d="M10.9429 56.0999L76.4969 93.0849L76.4919 93.4229C76.8489 93.4059 77.1929 93.3259 77.4819 93.1829V167.656C76.8569 167.882 76.0519 167.858 75.4779 167.579L75.4759 167.609L11.1529 130.487C10.8199 130.294 10.6529 130.04 10.6529 129.786L10.4419 55.3999C10.4419 55.6539 10.6079 55.9079 10.9429 56.0999Z" fill="#0B4D5E"/>
<path d="M75.9239 168.444L75.9369 168.25C76.4959 168.358 77.1179 168.319 77.6529 168.127L77.9839 168.008V92.3749L77.2609 92.7349C77.1819 92.7739 77.0949 92.8079 77.0029 92.8359V92.7949L11.1909 55.6659C11.0199 55.5679 10.9439 55.4629 10.9429 55.4009V55.3989H9.94289V55.4089L10.1539 129.787C10.1539 130.23 10.4269 130.643 10.9029 130.92L75.9239 168.444ZM76.9819 167.273C76.5439 167.352 76.0489 167.301 75.6969 167.13L75.3669 166.969L11.4029 130.055C11.2299 129.954 11.1529 129.848 11.1529 129.786L10.9459 56.6759L75.9939 93.3749L75.9849 93.9469L76.5159 93.9219C76.6749 93.9149 76.8309 93.8969 76.9819 93.8679V167.273Z" fill="#0B4D5E"/>
<path d="M142.32 77.12L77.4948 114.543C76.8018 114.945 75.6678 114.95 74.9728 114.543L10.5028 77.078L10.4468 56.571L74.9148 94.037C75.6118 94.44 76.7428 94.438 77.4368 94.037L142.261 56.612C142.278 63.447 142.301 70.286 142.32 77.12Z" fill="#0B4D5E"/>
<path d="M76.2308 115.346C76.7748 115.346 77.3198 115.223 77.7448 114.976L142.821 77.4079L142.759 55.747L77.1878 93.6039C76.6458 93.9149 75.7018 93.9149 75.1668 93.6039L9.94479 55.7L10.0048 77.3659L74.7228 114.975C75.1448 115.222 75.6878 115.345 76.2328 115.345L76.2308 115.346ZM141.819 76.832L77.2448 114.11C76.7028 114.424 75.7598 114.425 75.2248 114.11L11.0008 76.789L10.9468 57.4399L74.6628 94.469C75.5108 94.959 76.8388 94.959 77.6858 94.469L141.763 57.477L141.819 76.832Z" fill="#0B4D5E"/>
<path d="M75.9029 93.9349C76.4319 93.9349 76.9619 93.8149 77.3739 93.5759L141.536 56.5329C142.018 56.2539 142.295 55.8389 142.295 55.3929C142.295 54.9479 142.022 54.5329 141.543 54.2549L77.7999 17.2119C76.9779 16.7339 75.6859 16.7329 74.8599 17.2119L10.7019 54.2549C10.2209 54.5329 9.94391 54.9479 9.94191 55.3939C9.94191 55.8389 10.2129 56.2539 10.6909 56.5329L74.4339 93.5759C74.8449 93.8149 75.3739 93.9339 75.9029 93.9349ZM76.3319 17.8519C76.6859 17.8519 77.0409 17.9269 77.2969 18.0759L141.041 55.1189C141.217 55.2219 141.296 55.3299 141.296 55.3909C141.296 55.4529 141.216 55.5629 141.036 55.6659L76.8739 92.7089C76.3569 93.0069 75.4519 93.0089 74.9369 92.7089L11.1939 55.6669C11.0199 55.5649 10.9419 55.4569 10.9419 55.3949C10.9419 55.3319 11.0229 55.2219 11.2019 55.1189L75.3599 18.0769C75.6199 17.9269 75.9759 17.8519 76.3319 17.8519Z" fill="#0B4D5E"/>
<path d="M9.02406 52.2011C8.33006 52.6001 8.32106 53.2571 9.01807 53.6601L74.9141 91.9561C75.6111 92.3601 76.7421 92.3581 77.4361 91.9561L143.774 53.6601C144.471 53.2551 144.474 52.6041 143.781 52.1991L77.8791 13.9041C77.1881 13.4981 76.0591 13.4981 75.3581 13.9041L9.02406 52.2011Z" fill="#F0F4FF"/>
<path d="M76.1748 92.7571C76.7188 92.7571 77.2628 92.6351 77.6868 92.3891L144.024 54.0931C144.517 53.8071 144.798 53.3821 144.799 52.9271C144.799 52.4741 144.521 52.0511 144.034 51.7671L78.1298 13.4721C77.2898 12.9771 75.9618 12.9771 75.1078 13.4721L8.77382 51.7691C8.28282 52.0521 8.00082 52.4771 8.00082 52.9331C8.00082 53.3891 8.27982 53.8111 8.76982 54.0941L74.6658 92.3891C75.0898 92.6341 75.6338 92.7571 76.1778 92.7571H76.1748ZM76.6228 14.1011C76.9918 14.1011 77.3598 14.1791 77.6248 14.3351L143.53 52.6311C143.728 52.7471 143.799 52.8621 143.799 52.9261C143.799 52.9911 143.727 53.1091 143.523 53.2271L77.1878 91.5221C76.6478 91.8341 75.7048 91.8341 75.1668 91.5221L9.27083 53.2271C9.07182 53.1121 9.00082 52.9971 9.00082 52.9331C9.00082 52.8681 9.07182 52.7501 9.27382 52.6341L75.6078 14.3381C75.8788 14.1801 76.2528 14.1021 76.6228 14.1021V14.1011Z" fill="#0B4D5E"/>
<path d="M143.774 53.66C144.124 53.454 144.299 53.189 144.299 52.925C144.319 59.761 144.336 66.597 144.359 73.434C144.359 73.699 144.183 73.966 143.83 74.168L77.4949 112.466L77.4379 91.9561L143.774 53.66Z" fill="#8AE5CC"/>
<path d="M76.9969 113.33L144.08 74.6011C144.574 74.3181 144.859 73.8921 144.859 73.4341L144.799 52.9231H143.799C143.799 52.9891 143.727 53.1071 143.523 53.2281L76.9379 91.6681V91.9571L76.9969 113.33ZM143.802 54.2211L143.858 73.4351C143.858 73.5041 143.772 73.6241 143.581 73.7331L77.9919 111.601L77.9379 92.2441L143.802 54.2211Z" fill="#0B4D5E"/>
<path d="M9.05183 53.66L74.9478 91.956C75.6418 92.36 76.7778 92.358 77.4728 91.956L77.5278 112.466C76.8348 112.867 75.7008 112.869 75.0088 112.466L9.10883 74.169C8.76383 73.973 8.59283 73.707 8.59283 73.443C8.57182 66.608 8.55083 59.772 8.53384 52.938C8.53384 53.197 8.70383 53.46 9.05183 53.66Z" fill="#0B4D5E"/>
<path d="M76.2668 113.268C76.8108 113.268 77.3538 113.145 77.7788 112.899L78.0288 112.754L77.9698 91.091L77.2218 91.524C76.6798 91.836 75.7358 91.837 75.1998 91.524L9.3018 53.227C9.11681 53.121 9.03481 53.006 9.03381 52.939V52.937H8.03381V52.939V52.941C8.05081 59.774 8.0708 66.61 8.0928 73.444C8.0928 73.903 8.3728 74.326 8.8618 74.603L74.7578 112.898C75.1798 113.144 75.7238 113.268 76.2668 113.268ZM77.0278 112.147C76.4788 112.341 75.7208 112.301 75.2608 112.035L9.3598 73.738C9.1618 73.625 9.0928 73.509 9.0928 73.444C9.0718 67.039 9.0538 60.634 9.0368 54.231L74.6968 92.39C75.3208 92.754 76.2088 92.851 76.9738 92.675L77.0268 112.148L77.0278 112.147Z" fill="#0B4D5E"/>
<path d="M35.09 37.133L50.413 28.302L119.563 68.33V140.729L104.469 149.445V77.616C104.469 77.616 104.478 77.401 104.345 77.141C104.258 76.968 103.911 76.779 103.911 76.779L35.786 37.196C35.786 37.196 35.555 37.075 35.394 37.075C35.31 37.075 35.09 37.133 35.09 37.133Z" fill="#8AE5CC"/>
<path d="M103.969 150.312L120.063 141.018V68.0421L50.415 27.7241L34.841 36.7001L35.218 37.6171C35.218 37.6171 35.345 37.5821 35.414 37.5751C35.414 37.5791 35.501 37.6121 35.558 37.6401L103.661 77.2111C103.766 77.2701 103.885 77.3551 103.916 77.3931C103.968 77.5001 103.97 77.6081 103.97 77.6081V150.311L103.969 150.312ZM119.063 140.44L104.969 148.58V77.6171C104.971 77.5791 104.973 77.2731 104.79 76.9141C104.649 76.6341 104.295 76.4191 104.15 76.3401L36.383 36.9651L50.412 28.8801L119.063 68.6181V140.439V140.44Z" fill="#0B4D5E"/>
<path d="M33.244 67.144L101.491 27.625L116.854 36.541C116.854 36.541 116.593 36.417 116.389 36.441C116.143 36.469 115.769 36.715 115.769 36.715L48.179 75.823C48.033 75.926 47.942 76.066 47.876 76.214L32.867 67.59C32.94 67.447 33.049 67.297 33.245 67.144H33.244Z" fill="#8AE5CC"/>
<path d="M48.108 76.9241L48.333 76.4161C48.373 76.3251 48.414 76.2691 48.466 76.2331L116.019 37.1481C116.182 37.0431 116.378 36.9481 116.446 36.9381C116.479 36.9501 116.577 36.9651 116.641 36.9951L117.104 36.1091L101.491 27.0471L32.937 66.7501C32.708 66.9281 32.54 67.1291 32.42 67.3651L32.206 67.7881L48.107 76.9251L48.108 76.9241ZM115.466 36.3141L47.929 75.3911C47.855 75.4421 47.789 75.4951 47.73 75.5541L33.671 67.4761L101.49 28.2031L115.465 36.3131L115.466 36.3141Z" fill="#0B4D5E"/>
<path d="M119.563 69.5071V142.781C119.563 142.781 119.596 142.985 119.497 143.271C119.43 143.462 119.234 143.596 119.234 143.596L104.187 152.299C104.187 152.299 104.374 152.139 104.418 152.012C104.478 151.838 104.469 151.39 104.469 151.39V77.5181L119.563 69.5071Z" fill="#8AE5CC"/>
<path d="M104.437 152.732L119.484 144.029C119.57 143.971 119.853 143.766 119.968 143.438C120.102 143.049 120.065 142.756 120.056 142.702L120.062 68.677L103.968 77.219V151.391C103.971 151.577 103.959 151.794 103.942 151.856C103.946 151.834 103.896 151.89 103.859 151.921L104.436 152.733L104.437 152.732ZM119.063 70.339V142.781C119.068 142.851 119.078 142.955 119.024 143.107C119.017 143.122 118.977 143.164 118.946 143.186L104.968 151.268V77.818L119.062 70.338L119.063 70.339Z" fill="#0B4D5E"/>
<path d="M148.345 76.4951C137.016 67.6151 128.202 60.6771 118.544 55.4221C101.708 46.2691 77.0017 46.6951 70.9817 53.3181C70.3257 54.0421 79.1107 48.7981 102.59 61.1451C111.01 65.5681 123.105 76.423 123.361 76.267C129.457 72.6551 148.345 76.4951 148.345 76.4951Z" fill="#8AE5CC"/>
<path d="M148.246 76.9851L148.654 76.1021L148.232 75.7711C137.128 67.0671 128.358 60.1931 118.784 54.9831C101.87 45.7871 76.9018 46.0651 70.6128 52.9821L70.3648 53.2551L70.5198 53.6341C70.7228 53.9801 71.0508 53.9041 71.4688 53.8051C78.6558 52.1281 89.6228 54.8901 102.358 61.5881C108.395 64.7591 116.519 71.4121 120.424 74.6091C122.304 76.1497 123.37 76.8447 123.622 76.6941C129.477 73.2251 148.059 76.9471 148.246 76.9851ZM132.157 74.215C128.675 74.215 125.429 74.5921 123.365 75.6921C122.974 75.4051 122.073 74.6681 121.057 73.8351C116.826 70.3701 108.949 63.9201 102.823 60.7021C90.6368 54.2941 79.9828 51.4421 72.5928 52.5711C76.0208 50.1331 82.7068 48.7701 90.6968 48.9541C100.592 49.1831 110.655 51.7011 118.307 55.8611C127.467 60.8451 135.921 67.3931 146.434 75.6311C143.408 75.104 137.505 74.2141 132.158 74.2141L132.157 74.215Z" fill="#0B4D5E"/>
<path d="M111.983 25.9459L115.528 33.4299C115.528 33.4299 114.354 39.9679 102.989 44.3959C91.6218 48.8179 85.1418 51.8869 85.1418 51.8869L80.2708 51.7479C84.6048 40.6449 89.4338 28.9499 94.5528 25.0949C106.485 16.1159 111.983 25.9459 111.983 25.9459Z" fill="#8AE5CC"/>
<path d="M85.2469 52.391L85.3549 52.339C85.4199 52.309 91.9529 49.226 103.169 44.862C114.664 40.384 115.969 33.797 116.019 33.519L116.047 33.361L112.418 25.702C112.332 25.549 110.269 21.938 105.917 21.02C102.405 20.277 98.4769 21.516 94.2509 24.695C89.0779 28.591 84.2779 40.105 79.8039 51.566L79.5459 52.227L85.2459 52.39L85.2469 52.391ZM115 33.485C114.735 34.452 112.804 40.036 102.807 43.931C92.3449 48.001 85.9379 50.964 85.0369 51.385L80.9949 51.27C85.3419 40.166 89.9859 29.161 94.8529 25.496C98.8319 22.501 102.48 21.324 105.698 21.997C109.483 22.789 111.407 25.955 111.539 26.18L115 33.485Z" fill="#0B4D5E"/>
<path d="M105.761 45.549C100.067 48.104 88.3696 51.559 84.0416 52.568L84.8166 50.952C92.0726 50.245 93.9256 38.751 105.137 33.086C108.254 31.511 112.078 30.718 114.518 32.12C116.387 33.191 115.665 36.046 115.665 36.046C115.665 36.046 114.853 41.464 105.761 45.549Z" fill="#0B4D5E"/>
<path d="M83.1407 53.2919L84.1557 53.0549C88.6307 52.0119 100.31 48.5429 105.967 46.0049C115.201 41.8559 116.125 36.3519 116.16 36.1199C116.183 36.0369 116.94 32.9309 114.767 31.6859C112.018 30.1079 107.874 31.1429 104.912 32.6399C99.1597 35.5469 95.7617 40.0459 93.0317 43.6619C90.3047 47.2729 88.1507 50.1249 84.7687 50.4549L84.4877 50.4819L83.1407 53.2919ZM105.557 45.0929C100.343 47.4319 89.9457 50.5739 84.9497 51.8329L85.1487 51.4169C88.8037 50.9199 91.1377 47.8289 93.8297 44.2639C96.6367 40.5469 99.8177 36.3339 105.364 33.5319C108.093 32.1529 111.865 31.1719 114.27 32.5529C115.785 33.4209 115.187 35.8989 115.181 35.9239C115.163 36.0209 114.246 41.1889 105.557 45.0929Z" fill="#0B4D5E"/>
<path d="M84.9071 12.4999L97.2711 16.6949C97.2711 16.6949 102.475 18.3729 98.4611 30.1019C94.4551 41.8319 88.0451 52.219 88.0451 52.219L80.6611 49.8479C80.6611 49.8479 77.9301 43.9189 76.3331 28.0929C74.7331 12.2659 84.9071 12.4999 84.9071 12.4999Z" fill="#8AE5CC"/>
<path d="M88.265 52.815L88.471 52.482C88.535 52.378 94.957 41.912 98.935 30.264C100.727 25.029 100.972 21.05 99.664 18.439C98.779 16.672 97.481 16.237 97.426 16.219L84.919 12C84.765 12 81.459 11.953 78.805 14.821C76.223 17.612 75.224 22.094 75.836 28.143C77.422 43.872 80.094 49.811 80.207 50.057L80.299 50.257L88.265 52.816V52.815ZM84.827 13.001L97.11 17.168C97.159 17.185 101.759 18.919 97.987 29.939C94.443 40.316 88.94 49.751 87.82 51.621L81.031 49.441C80.564 48.291 78.24 42.024 76.829 28.042C76.249 22.303 77.155 18.088 79.523 15.515C81.662 13.191 84.359 13.013 84.825 13L84.827 13.001Z" fill="#0B4D5E"/>
<path d="M98.0965 30.35C96.0435 36.356 93.4645 41.93 91.4325 45.955L86.0695 51.575C86.0695 51.575 87.0355 31.263 88.9155 23.74C90.2465 18.403 93.0435 16.029 95.8415 16.465C96.2065 16.526 97.0695 16.852 97.0695 16.852C97.0695 16.852 102.109 18.625 98.0965 30.35Z" fill="#0B4D5E"/>
<path d="M85.5077 52.8899L91.8797 46.1809C94.6227 40.7479 96.8737 35.4759 98.5707 30.5119C102.696 18.4569 97.4617 16.4599 97.2367 16.3809C97.1537 16.3499 96.3267 16.0399 95.9247 15.9719C92.6017 15.4589 89.7367 18.3859 88.4307 23.6189C86.5607 31.1039 85.6107 50.7199 85.5707 51.5509L85.5077 52.8899ZM91.0197 45.6639L86.6397 50.2539C86.8937 45.5989 87.8337 30.1339 89.4007 23.8609C90.5697 19.1739 93.0077 16.5309 95.7647 16.9589C95.9897 16.9969 96.5767 17.1999 96.8927 17.3199C96.9437 17.3389 101.396 19.1639 97.6227 30.1879C95.9477 35.0889 93.7267 40.2949 91.0197 45.6639Z" fill="#0B4D5E"/>
<path d="M106.02 33.7631C112.169 32.4601 116.665 36.2641 117.871 41.3231C118.821 45.3081 116.217 60.0491 100.004 57.7521C83.795 55.4551 81.72 51.9041 81.72 51.9041L81.838 50.1071C81.838 50.1071 93.549 36.4031 106.021 33.7621L106.02 33.7631ZM99.989 51.2761C107.149 51.9471 110.391 50.1921 110.391 47.0861C110.391 43.9801 108.23 41.9531 103.366 42.4891C99.329 42.9351 88.355 48.6101 88.355 48.6101C88.355 48.6101 92.831 50.5931 99.989 51.2761Z" fill="#8AE5CC"/>
<path d="M103.23 58.488C107.859 58.488 111.679 56.953 114.398 53.967C118.319 49.662 118.912 43.532 118.357 41.207C117.202 36.362 112.819 31.811 105.916 33.273C93.4218 35.918 81.9398 49.216 81.4578 49.781L81.3498 49.907L81.2118 52.023L81.2888 52.155C81.3788 52.308 83.6728 55.941 99.9338 58.245C101.073 58.406 102.173 58.486 103.23 58.486V58.488ZM108.434 34.001C113.348 34.001 116.474 37.618 117.385 41.439C117.896 43.585 117.328 49.266 113.659 53.294C110.507 56.754 105.936 58.086 100.075 57.256C86.0698 55.272 82.7658 52.333 82.2318 51.745L82.3258 50.307C83.5328 48.938 94.5908 36.693 106.125 34.25C106.934 34.08 107.705 34 108.436 34L108.434 34.001ZM102.833 51.919C105.996 51.919 108.261 51.312 109.588 50.103C110.453 49.315 110.891 48.3 110.891 47.086C110.891 45.512 110.364 44.209 109.368 43.316C108.055 42.139 106.017 41.694 103.312 41.992C99.2288 42.443 88.5768 47.932 88.1258 48.165L87.1998 48.644L88.1528 49.066C88.3388 49.149 92.7858 51.09 99.9418 51.773C100.977 51.87 101.941 51.919 102.833 51.919ZM104.832 42.905C106.526 42.905 107.848 43.297 108.701 44.061C109.491 44.769 109.892 45.787 109.892 47.086C109.892 48.007 109.563 48.774 108.915 49.364C107.452 50.697 104.383 51.184 100.037 50.779C95.0038 50.299 91.2848 49.156 89.5838 48.549C92.3698 47.155 100.225 43.34 103.421 42.987C103.916 42.932 104.387 42.905 104.832 42.905Z" fill="#0B4D5E"/>
<path d="M88.3824 48.564C89.2654 48.94 93.6184 50.67 99.9884 51.277C107.148 51.948 110.299 50.187 110.308 47.078C110.313 44.055 108.448 43.319 107.518 42.762C108.928 43.153 109.702 43.46 111.14 44.76C113.336 46.737 114.898 53.019 110.308 56.499C109.422 57.195 105.619 58.401 100.467 57.892C84.1704 56.279 81.9754 51.328 81.9754 51.328V51.324C83.4264 50.833 85.7674 49.773 88.3814 48.565L88.3824 48.564Z" fill="#0B4D5E"/>
<path d="M102.921 58.514C106.749 58.514 109.672 57.635 110.617 56.892C113.087 55.019 113.695 52.549 113.768 50.808C113.872 48.337 112.929 45.698 111.475 44.388C109.967 43.025 109.114 42.685 107.652 42.28L107.262 43.191L107.559 43.361C108.51 43.897 109.813 44.631 109.809 47.076C109.806 48.029 109.483 48.784 108.821 49.386C107.374 50.7 104.336 51.183 100.036 50.778C93.6896 50.174 89.3786 48.444 88.5786 48.103L88.3746 48.016L88.1726 48.109C85.7676 49.221 83.2956 50.348 81.8156 50.849L81.4756 50.964L81.5186 51.529C81.6126 51.742 84.0206 56.764 100.419 58.388C101.286 58.473 102.124 58.512 102.922 58.512L102.921 58.514ZM110.357 44.74C110.499 44.859 110.647 44.989 110.805 45.131C111.86 46.08 112.872 48.32 112.769 50.766C112.705 52.293 112.173 54.458 110.006 56.101C109.355 56.613 105.762 57.913 100.517 57.395C87.7576 56.132 83.7986 52.794 82.7566 51.575C84.2416 51.013 86.3326 50.062 88.3926 49.111C89.5976 49.603 93.8716 51.197 99.9406 51.775C104.595 52.213 107.808 51.657 109.492 50.128C110.362 49.338 110.804 48.313 110.808 47.081C110.81 46.107 110.632 45.345 110.357 44.74Z" fill="#0B4D5E"/>
<path d="M102.764 64.3129L93.0558 70.0109C93.0558 70.0109 88.3718 74.1909 80.0758 64.7649C76.6658 60.8869 74.3188 53.9839 74.3188 53.9839L87.2838 46.9839C97.3688 45.3289 103.513 48.0509 105.795 51.3529C110.668 58.3849 102.764 64.3129 102.764 64.3129Z" fill="#8AE5CC"/>
<path d="M90.063 71.435C92.186 71.435 93.338 70.43 93.389 70.384L103.064 64.713C103.147 64.651 111.294 58.411 106.206 51.068C103.897 47.727 97.694 44.767 87.203 46.49L87.047 46.543L73.71 53.744L73.846 54.144C73.944 54.43 76.266 61.186 79.701 65.094C83.233 69.107 86.579 71.236 89.647 71.421C89.79 71.429 89.928 71.434 90.063 71.434V71.435ZM102.486 63.897L92.804 69.58C92.548 69.791 88.272 73.32 80.452 64.435C77.611 61.205 75.488 55.732 74.934 54.22L87.448 47.464C97.428 45.848 103.255 48.556 105.384 51.637C109.844 58.074 103.012 63.494 102.486 63.897Z" fill="#0B4D5E"/>
<path d="M79.0017 62.845C76.5627 59.556 73.9987 55.226 73.2467 54.321L78.4017 54.511C78.1007 54.21 91.7387 56.083 94.2987 63.691C95.0137 65.808 94.1557 69.118 92.9467 69.956C91.1987 71.169 88.6547 70.861 87.0757 70.07C84.5997 68.835 81.9377 66.796 79.0017 62.845Z" fill="#0B4D5E"/>
<path d="M90.0987 71.268C91.1957 71.268 92.3067 71.009 93.2317 70.367C94.7177 69.337 95.5247 65.759 94.7727 63.531C92.3237 56.252 80.3457 54.063 78.6237 53.984C78.5387 53.98 78.4137 53.974 78.2877 54.007L72.1477 53.78L72.8627 54.64C73.1607 54.998 73.8257 56.03 74.5957 57.224C75.7467 59.007 77.1787 61.226 78.6007 63.143C81.2257 66.675 83.8477 69.018 86.8527 70.517C87.7477 70.965 88.9147 71.267 90.0987 71.267V71.268ZM79.1037 55.038C81.7597 55.413 91.7547 57.699 93.8247 63.851C94.4707 65.764 93.6947 68.83 92.6617 69.545C91.1427 70.599 88.8137 70.382 87.2997 69.623C84.4397 68.197 81.9307 65.948 79.4037 62.548C78.0017 60.657 76.5797 58.453 75.4367 56.683C74.9647 55.953 74.5667 55.334 74.2477 54.859L79.1037 55.039V55.038Z" fill="#0B4D5E"/>
<path d="M58.8876 16.3881L68.7306 14.1921C68.7306 14.1921 74.6896 11.3421 78.4966 23.8421C82.3106 36.3431 83.6406 49.9801 83.6406 49.9801L78.2436 51.4021C78.2436 51.4021 69.7956 48.3021 58.9356 35.4961C48.0726 22.6871 58.8886 16.3891 58.8886 16.3891L58.8876 16.3881Z" fill="#8AE5CC"/>
<path d="M78.2187 51.925L84.1797 50.355L84.1377 49.932C84.1247 49.795 82.7597 36.101 78.9747 23.696C77.3577 18.389 75.1527 15.089 72.4187 13.886C70.4547 13.023 68.8977 13.579 68.5727 13.715L58.6277 15.961C58.4597 16.062 54.5067 18.476 53.7287 23.176C53.0887 27.037 54.7117 31.292 58.5537 35.821C69.3737 48.581 77.7197 51.744 78.0707 51.873L78.2177 51.927L78.2187 51.925ZM83.0987 49.606L78.2757 50.877C77.1337 50.403 69.1937 46.819 59.3167 35.173C55.6617 30.862 54.1157 26.867 54.7227 23.299C55.3987 19.327 58.6087 17.157 59.0827 16.856L68.9457 14.643C68.9977 14.619 70.3017 14.033 72.0467 14.814C73.7257 15.565 76.1237 17.767 78.0187 23.987C81.4007 35.075 82.8377 47.21 83.0987 49.606Z" fill="#0B4D5E"/>
<path d="M78.6297 25.181C80.4507 31.616 81.8447 37.911 82.6147 42.583L81.6387 50.564C81.6387 50.564 70.1587 32.384 67.1467 24.766C65.0117 19.361 66.1037 15.47 68.7297 14.415C69.0057 14.307 69.6057 14.24 69.9027 14.223C73.1897 14.022 76.4617 17.524 78.6297 25.181Z" fill="#0B4D5E"/>
<path d="M81.9656 52.017L83.1206 42.573L83.1086 42.502C82.2736 37.433 80.8166 31.07 79.1116 25.045C77.0086 17.62 73.6106 13.481 69.8726 13.724C69.8656 13.724 68.9906 13.776 68.5486 13.949C65.9646 14.987 64.2816 18.871 66.6826 24.949C69.6776 32.523 80.7466 50.086 81.2166 50.83L81.9656 52.017ZM82.1106 42.594L81.3146 49.102C78.7196 44.931 70.1286 30.945 67.6116 24.582C65.4626 19.14 66.7816 15.737 68.9166 14.879C69.0886 14.812 69.5916 14.742 69.9316 14.722C73.2166 14.507 76.1876 18.385 78.1496 25.317C79.8376 31.279 81.2796 37.572 82.1106 42.594Z" fill="#0B4D5E"/>
<path d="M43.1819 47.1319L46.3429 33.5879C46.3429 33.5879 46.3229 31.5189 49.9449 30.7159C52.7969 30.0869 57.5089 30.4009 65.2889 35.8639C75.9829 43.3749 80.7759 49.2729 80.7759 49.2729L77.3709 52.9649C70.3219 56.0479 61.0919 57.2839 54.3219 56.0159C42.2809 53.7569 43.1819 47.1319 43.1819 47.1319Z" fill="#8AE5CC"/>
<path d="M60.044 57.005C65.822 57.005 72.307 55.726 77.572 53.423L77.739 53.304L81.438 49.294L81.165 48.958C81.117 48.898 76.206 42.92 65.577 35.455C59.323 31.064 54.029 29.305 49.838 30.228C46.207 31.033 45.876 33.093 45.847 33.519L42.688 47.065C42.648 47.355 41.865 54.188 54.232 56.508C56.022 56.843 57.989 57.005 60.044 57.005ZM77.076 52.548C70.118 55.566 61.027 56.763 54.415 55.524C43.261 53.431 43.628 47.679 43.676 47.217L46.845 33.642V33.582C46.845 33.521 46.922 31.897 50.054 31.203C53.952 30.343 58.987 32.047 65.003 36.272C74.094 42.657 78.94 47.922 80.108 49.259L77.076 52.548Z" fill="#0B4D5E"/>
<path d="M71.4976 41.0008C76.5926 45.3418 78.7956 48.0068 81.9946 51.4998L79.7366 52.4598C75.2836 46.1798 65.8996 44.2718 53.2096 39.7038C49.4456 38.3488 45.6146 36.3228 46.3426 33.5878C46.9446 31.3338 50.0036 30.8798 51.4606 30.7298C57.4436 30.1098 66.0426 36.3558 71.4976 41.0018V41.0008Z" fill="#0B4D5E"/>
<path d="M79.5628 53.0779L82.8418 51.6839L82.3638 51.1629C81.8778 50.6329 81.4158 50.1209 80.9618 49.6209C78.3888 46.7789 76.1678 44.3239 71.8228 40.6219C65.8498 35.5359 57.4428 29.6099 51.4098 30.2339C48.2118 30.5629 46.3438 31.6489 45.8598 33.4609C45.1938 35.9619 47.6098 38.2219 53.0418 40.1759C55.6468 41.1139 58.0758 41.9269 60.4238 42.7139C69.3998 45.7189 75.8838 47.8909 79.3298 52.7509L79.5628 53.0799V53.0779ZM81.1508 51.3159L79.9068 51.8449C76.2248 46.9499 69.6988 44.7639 60.7408 41.7639C58.3978 40.9789 55.9748 40.1679 53.3798 39.2339C50.0398 38.0319 46.1918 36.0989 46.8268 33.7169C47.1918 32.3469 48.7688 31.5099 51.5128 31.2279C57.5328 30.6049 66.4088 37.3229 71.1748 41.3829C75.4688 45.0419 77.6708 47.4739 80.2198 50.2909C80.5248 50.6269 80.8338 50.9679 81.1508 51.3159Z" fill="#0B4D5E"/>
<path d="M91.9484 31.4841L77.6484 27.8711C77.6484 27.8711 71.2604 31.0031 73.4494 39.2751C75.6354 47.5481 73.7364 52.0981 73.7364 52.0981L80.5094 52.5531C83.8204 52.5531 91.3484 49.5431 94.6614 43.2241C98.8444 35.2321 91.9484 31.4841 91.9484 31.4841Z" fill="#8AE5CC"/>
<path d="M80.4776 53.0521C83.7426 53.0521 91.5926 50.1541 95.1046 43.4561C99.4646 35.1241 92.2606 31.0841 92.1876 31.0441L92.0716 30.9991L77.5926 27.3411L77.4286 27.4221C77.3606 27.4551 70.6986 30.8331 72.9666 39.4021C75.0746 47.3831 73.2936 51.8611 73.2756 51.9061L73.0106 52.5491L80.4756 53.0521H80.4776ZM91.7606 31.9521C92.4096 32.3281 97.9726 35.8191 94.2186 42.9921C91.0556 49.0251 83.7246 52.0531 80.5096 52.0531L74.4156 51.6421C74.8616 50.0901 75.6926 45.8091 73.9336 39.1461C72.0426 32.0041 76.7596 28.9391 77.7126 28.4021L91.7606 31.9521Z" fill="#0B4D5E"/>
<path d="M70.8768 39.0089C71.6818 43.2759 71.7258 47.3939 73.1348 50.2949L73.5848 50.5999C74.9398 49.9949 83.9608 42.9919 82.9148 34.3419C82.6288 31.9339 80.4708 28.3409 77.8678 27.9439C75.3918 27.5689 73.9228 28.7589 73.9228 28.7589C73.9228 28.7589 69.5868 32.1819 70.8768 39.0089Z" fill="#0B4D5E"/>
<path d="M73.5347 51.1699L73.7887 51.0569C75.6637 50.2199 84.4527 42.8959 83.4117 34.2819C83.1087 31.7319 80.8817 27.8979 77.9437 27.4499C75.2827 27.0489 73.6747 28.3159 73.6087 28.3699C73.4257 28.5139 69.0547 32.0579 70.3857 39.1009C70.6467 40.4819 70.8257 41.8509 71.0007 43.1739C71.3607 45.9069 71.7007 48.4879 72.6847 50.5129L72.7437 50.6339L73.5357 51.1699H73.5347ZM76.9057 28.3699C77.1817 28.3699 77.4777 28.3909 77.7927 28.4379C80.1907 28.8039 82.1647 32.2689 82.4177 34.4009C83.3947 42.4799 75.3427 48.9549 73.6127 50.0149L73.5267 49.9569C72.6567 48.0909 72.3337 45.6379 71.9917 43.0429C71.8157 41.7069 71.6337 40.3239 71.3677 38.9159C70.1527 32.4889 74.0657 29.2839 74.2327 29.1499C74.2807 29.1119 75.2407 28.3699 76.9057 28.3699Z" fill="#0B4D5E"/>
<path d="M54.3216 57.8209L56.7066 46.082C56.7066 46.082 57.8376 42.414 66.0216 44.728C75.0606 47.281 79.0986 52.8729 78.9496 53.4729L77.9326 57.9889C77.0306 61.2629 69.2996 66.624 63.1476 66.285C53.3016 65.7439 54.3236 57.8209 54.3236 57.8209H54.3216Z" fill="#8AE5CC"/>
<path d="M63.7129 66.7999C70.0279 66.7999 77.4969 61.4549 78.4159 58.1209L79.4379 53.5819C79.7049 52.5109 75.2619 46.8169 66.1579 44.2469C57.6059 41.8269 56.2819 45.7659 56.2299 45.9349L53.8249 57.7679L54.3219 57.8229L53.8249 57.7699C53.7869 58.1109 53.5139 61.1719 55.6189 63.6589C57.2179 65.5469 59.7419 66.5989 63.1209 66.7839C63.3159 66.7949 63.5149 66.7999 63.7129 66.7999ZM78.4469 53.4319L77.4459 57.8789C76.6029 60.9329 69.1109 66.1089 63.1749 65.7859C60.0619 65.6149 57.7669 64.6709 56.3559 62.9809C54.4879 60.7449 54.8159 57.9119 54.8199 57.8839L57.1989 46.1819C57.1989 46.1819 58.3789 43.0879 65.8869 45.2089C74.1609 47.5459 78.1659 52.4789 78.4469 53.4319ZM78.4649 53.3519L78.4609 53.3699C78.4609 53.3639 78.4639 53.3589 78.4649 53.3519Z" fill="#0B4D5E"/>
<path d="M35.8101 152.992C24.3295 152.305 23.7663 151.741 23.0721 140.32C22.3778 151.741 21.8146 152.305 10.3275 152.992C21.8146 153.68 22.3778 154.243 23.0721 165.665C23.7663 154.243 24.3295 153.68 35.8101 152.992Z" fill="#F0F4FF"/>
<path d="M23.0722 166C23.2425 166 23.3866 165.862 23.3997 165.692C24.0808 154.467 24.5458 154.002 35.8299 153.327C36.0002 153.314 36.1377 153.177 36.1377 153C36.1377 152.823 36.0002 152.686 35.8299 152.673C24.5458 151.991 24.0808 151.533 23.3997 140.308C23.3866 140.138 23.2491 140 23.0722 140C22.8954 140 22.7579 140.138 22.7448 140.308C22.0637 151.533 21.5987 151.998 10.308 152.673C10.1377 152.686 10.0002 152.823 10.0002 153C10.0002 153.177 10.1377 153.314 10.308 153.327C21.5987 154.009 22.0637 154.467 22.7448 165.692C22.7579 165.862 22.8954 166 23.0722 166ZM31.5009 152.993C25.2006 153.655 23.7337 155.115 23.0722 161.396C22.4108 155.115 20.9437 153.655 14.6369 152.993C20.9437 152.332 22.4108 150.865 23.0722 144.591C23.7337 150.872 25.2006 152.332 31.5009 152.993Z" fill="#0B4D5E"/>
</g>
<path d="M171.458 21.4872C152.471 20.35 151.54 19.4185 150.392 0.528809C149.244 19.4185 148.312 20.35 129.314 21.4872C148.312 22.6245 149.244 23.556 150.392 42.4457C151.54 23.556 152.471 22.6245 171.458 21.4872Z" fill="#F0F4FF"/>
<path d="M150.392 43C150.673 43 150.912 42.7726 150.933 42.4909C152.06 23.9262 152.829 23.1572 171.491 22.0416C171.773 22.0199 172 21.7924 172 21.5C172 21.2076 171.773 20.9801 171.491 20.9584C152.829 19.832 152.06 19.0738 150.933 0.509068C150.912 0.227456 150.684 0 150.392 0C150.099 0 149.872 0.227456 149.85 0.509068C148.724 19.0738 147.955 19.8428 129.282 20.9584C129 20.9801 128.773 21.2076 128.773 21.5C128.773 21.7924 129 22.0199 129.282 22.0416C147.955 23.168 148.724 23.9262 149.85 42.4909C149.872 42.7726 150.099 43 150.392 43ZM164.331 21.4892C153.912 22.5831 151.486 24.9985 150.392 35.3856C149.298 24.9985 146.871 22.5831 136.441 21.4892C146.871 20.3952 149.298 17.969 150.392 7.5927C151.486 17.9799 153.912 20.3952 164.331 21.4892Z" fill="#0B4D5E"/>
<defs>
<clipPath id="clip0_9503_13389">
<rect width="140.654" height="159.444" fill="white" transform="matrix(-1 0 0 1 148.654 9)"/>
</clipPath>
</defs>
</svg>
