<svg width="411" height="300" viewBox="0 0 411 300" fill="none" xmlns="http://www.w3.org/2000/svg">
<path d="M121.264 154.054H156.24L192.965 114.008H227.347L324.316 170.726H289.934L253.212 210.774H218.236L185.2 251.401L88.2305 194.68L121.264 154.054Z" fill="#0B4D5E"/>
<path d="M192.965 113.865L192.908 113.878C192.89 113.886 192.873 113.898 192.86 113.912L156.177 153.911H121.264L121.203 153.925C121.184 153.934 121.167 153.948 121.154 153.964L88.1198 194.591C88.0939 194.623 88.0833 194.665 88.0905 194.705C88.0979 194.746 88.123 194.782 88.1588 194.803L185.128 251.524C185.188 251.559 185.266 251.545 185.31 251.49L218.303 210.916H253.213C253.252 210.916 253.29 210.9 253.317 210.87L289.998 170.868H324.316C324.38 170.868 324.437 170.825 324.454 170.763C324.47 170.701 324.443 170.636 324.388 170.604L227.419 113.885L227.384 113.87C227.372 113.867 227.359 113.865 227.346 113.865H192.965ZM323.792 170.584H289.934L289.878 170.596C289.86 170.604 289.843 170.615 289.83 170.63L253.149 210.632H218.236L218.175 210.646C218.156 210.655 218.139 210.668 218.126 210.685L185.167 251.216L88.446 194.641L121.333 154.196H156.24C156.28 154.196 156.318 154.179 156.345 154.15L193.027 114.151H227.308L323.792 170.584Z" fill="#0B4D5E"/>
<path d="M322.77 161.531H289.352L252.63 201.579H217.654L184.618 242.203L88.0496 185.481L86.6839 184.422L183.653 241.143L216.687 200.516H251.663L288.388 160.471H322.77V161.531Z" fill="#8AE5CC"/>
<path d="M288.388 160.044L288.3 160.053C288.213 160.071 288.134 160.116 288.073 160.183L251.476 200.089H216.688L216.593 200.1C216.5 200.121 216.416 200.172 216.355 200.247L183.554 240.589L86.8994 184.054C86.7052 183.94 86.4561 183.997 86.3301 184.184C86.2043 184.37 86.2444 184.622 86.4219 184.76L87.7881 185.818C87.8025 185.83 87.8173 185.84 87.833 185.85L184.401 242.571C184.583 242.678 184.816 242.636 184.949 242.473L217.857 202.006H252.63C252.75 202.006 252.863 201.955 252.944 201.867L289.54 161.958H322.77C323.005 161.958 323.196 161.767 323.196 161.531V160.471L323.188 160.385C323.148 160.19 322.976 160.044 322.77 160.044H288.388ZM322.343 161.104H289.353L289.264 161.113C289.178 161.132 289.099 161.176 289.038 161.242L252.441 201.152H217.654L217.56 201.163C217.467 201.184 217.384 201.235 217.323 201.31L184.518 241.648L184.026 241.36L216.89 200.943H251.663C251.783 200.943 251.897 200.893 251.978 200.805L288.575 160.897H322.343V161.104Z" fill="#0B4D5E"/>
<path d="M251.663 200.516L154.694 143.798H119.718L216.687 200.516H251.663Z" fill="#8AE5CC"/>
<path d="M119.718 143.372C119.525 143.372 119.356 143.501 119.306 143.687C119.255 143.873 119.336 144.069 119.502 144.167L216.472 200.885C216.537 200.923 216.612 200.943 216.687 200.943H251.663C251.856 200.943 252.025 200.814 252.075 200.628C252.125 200.442 252.045 200.245 251.879 200.148L154.909 143.43L154.806 143.386C154.769 143.376 154.731 143.372 154.693 143.372H119.718ZM250.087 200.089H216.802L121.293 144.225H154.579L250.087 200.089Z" fill="#0B4D5E"/>
<path d="M183.653 241.143L86.684 184.423L119.718 143.798L216.687 200.516L183.653 241.143Z" fill="#F0F4FF"/>
<path d="M119.863 143.397C119.695 143.336 119.503 143.386 119.386 143.529L86.3532 184.153C86.2746 184.25 86.2422 184.376 86.2644 184.499C86.2866 184.621 86.3609 184.729 86.4685 184.792L183.438 241.512C183.62 241.618 183.852 241.576 183.985 241.413L217.018 200.786C217.097 200.689 217.129 200.563 217.107 200.44C217.085 200.318 217.01 200.211 216.903 200.148L119.933 143.43L119.863 143.397ZM216.042 200.633L183.553 240.589L87.3298 184.305L119.819 144.351L216.042 200.633Z" fill="#0B4D5E"/>
<path d="M251.663 200.516L154.694 143.798L191.419 103.75L288.388 160.471L251.663 200.516Z" fill="#F0F4FF"/>
<path d="M191.568 103.35C191.407 103.29 191.223 103.332 191.104 103.462L154.379 143.51C154.292 143.605 154.253 143.734 154.272 143.862C154.291 143.989 154.366 144.102 154.478 144.167L251.447 200.885C251.621 200.986 251.842 200.953 251.978 200.805L288.702 160.759C288.789 160.664 288.829 160.535 288.81 160.408C288.79 160.28 288.715 160.168 288.604 160.103L191.634 103.382L191.568 103.35ZM287.716 160.572L251.582 199.974L155.366 143.697L191.501 104.292L287.716 160.572Z" fill="#0B4D5E"/>
<path d="M322.77 160.471L225.8 103.75H191.419L288.388 160.471H322.77Z" fill="#8AE5CC"/>
<path d="M191.419 103.323C191.226 103.323 191.057 103.453 191.007 103.639C190.957 103.825 191.037 104.021 191.203 104.118L288.172 160.839C288.237 160.877 288.312 160.898 288.388 160.898H322.77C322.962 160.898 323.131 160.768 323.182 160.582C323.232 160.396 323.151 160.2 322.985 160.103L226.016 103.382L225.912 103.338C225.876 103.328 225.838 103.323 225.8 103.323H191.419ZM321.194 160.044H288.503L192.993 104.177H225.686L321.194 160.044Z" fill="#0B4D5E"/>
<path d="M134.345 152.1L134.269 152.154C134.2 152.215 134.151 152.298 134.132 152.391L126.463 190.924C126.44 191.038 126.465 191.157 126.532 191.252C126.599 191.348 126.702 191.412 126.817 191.429L157.412 196.105C157.634 196.139 157.846 195.995 157.894 195.775L163.586 169.742L209.84 176.511C210.05 176.542 210.251 176.414 210.311 176.21L218.922 147.294L218.513 147.173L218.104 147.051L209.599 175.613L163.315 168.84L163.233 168.835C163.044 168.844 162.878 168.98 162.837 169.171L157.145 195.2L127.387 190.652L134.932 152.751L150.545 144.172L150.339 143.798L150.133 143.424L134.345 152.1ZM218.635 146.764C218.409 146.697 218.171 146.825 218.104 147.051L218.922 147.294C218.99 147.069 218.861 146.832 218.635 146.764ZM150.714 143.592C150.6 143.386 150.34 143.311 150.133 143.424L150.545 144.172C150.751 144.059 150.827 143.799 150.714 143.592Z" fill="#0B4D5E"/>
<path d="M225.512 123.247L225.443 123.253C225.284 123.279 225.15 123.393 225.103 123.552L219.53 142.27L219.513 142.354C219.496 142.552 219.619 142.742 219.817 142.801C220.014 142.86 220.221 142.768 220.315 142.593L220.348 142.513L225.83 124.101H259.894C260.13 124.101 260.321 123.91 260.321 123.674C260.321 123.438 260.13 123.247 259.894 123.247H225.512Z" fill="#0B4D5E"/>
<path d="M135.864 143.382L135.782 143.411L126.702 147.601L126.615 147.655C126.535 147.719 126.479 147.81 126.461 147.913L116.955 200.44C116.934 200.556 116.961 200.677 117.032 200.772C117.103 200.867 117.21 200.928 117.327 200.941L163.819 206.106C164.041 206.13 164.245 205.979 164.286 205.759L170.293 173.651L214.507 179.239C214.714 179.265 214.91 179.137 214.97 178.937L220.763 159.422L235.182 163.542L232.259 188.906L187.398 182.929C187.273 182.913 187.147 182.952 187.054 183.038C186.961 183.123 186.91 183.245 186.915 183.371L189.094 233.947C189.104 234.182 189.303 234.365 189.539 234.355C189.774 234.345 189.957 234.145 189.947 233.91L187.791 183.842L232.575 189.81C232.689 189.825 232.804 189.794 232.894 189.723C232.984 189.653 233.042 189.55 233.056 189.436L236.07 163.28C236.094 163.072 235.965 162.877 235.764 162.82L220.591 158.486L220.506 158.471C220.309 158.456 220.123 158.579 220.064 158.775L214.254 178.346L170 172.754L169.917 172.752C169.726 172.765 169.564 172.905 169.527 173.099L163.519 205.213L117.877 200.142L127.263 148.283L136.14 144.186L136.214 144.142C136.374 144.025 136.435 143.807 136.349 143.62C136.262 143.433 136.057 143.337 135.864 143.382Z" fill="#0B4D5E"/>
<path d="M230.124 125.963L230.054 125.969C229.895 125.995 229.762 126.11 229.715 126.269L222.07 152.013C222.004 152.236 222.129 152.471 222.35 152.541L236.144 156.929C236.263 156.967 236.394 156.951 236.5 156.885C236.606 156.819 236.678 156.709 236.696 156.585L240.259 132.627L295.612 145.078L298.293 146.647L246.531 135.518L246.441 135.508C246.351 135.508 246.263 135.537 246.189 135.591C246.091 135.663 246.028 135.774 246.016 135.895L240.498 193.733L196.315 188.145C196.189 188.129 196.062 188.17 195.969 188.257C195.877 188.344 195.828 188.468 195.836 188.595L197.968 223.043C197.983 223.279 198.185 223.458 198.421 223.444C198.656 223.429 198.835 223.226 198.82 222.99L196.72 189.057L240.827 194.635C240.941 194.649 241.057 194.617 241.147 194.545C241.237 194.473 241.294 194.367 241.305 194.252L246.822 136.453L300.721 148.043C300.926 148.087 301.134 147.975 301.21 147.78C301.285 147.584 301.208 147.363 301.027 147.257L295.985 144.309L295.926 144.281C295.906 144.273 295.885 144.266 295.864 144.261L239.997 131.694L239.91 131.684C239.822 131.682 239.735 131.708 239.662 131.758C239.564 131.825 239.499 131.93 239.481 132.047L235.926 155.963L223.009 151.854L230.442 126.817H264.506C264.741 126.817 264.932 126.626 264.932 126.39C264.932 126.154 264.741 125.963 264.506 125.963H230.124Z" fill="#0B4D5E"/>
<path d="M218.321 147.553C218.531 147.66 218.789 147.577 218.896 147.367C219.004 147.158 218.92 146.901 218.711 146.793L218.321 147.553ZM204.474 103.323C204.349 103.324 204.23 103.378 204.149 103.474C204.068 103.569 204.033 103.696 204.054 103.82L205.429 112.137C202.612 117.833 201.979 122.901 202.642 127.306C203.31 131.738 205.284 135.466 207.605 138.461C209.926 141.455 212.603 143.726 214.695 145.246C215.742 146.007 216.645 146.582 217.288 146.967C217.609 147.16 217.866 147.306 218.043 147.404C218.131 147.452 218.2 147.489 218.247 147.514C218.27 147.526 218.289 147.536 218.302 147.542C218.308 147.545 218.312 147.548 218.315 147.55L218.321 147.553C218.322 147.552 218.33 147.535 218.515 147.173C218.697 146.817 218.71 146.795 218.711 146.793L218.71 146.792L218.696 146.785C218.686 146.78 218.669 146.771 218.647 146.76C218.604 146.737 218.54 146.702 218.456 146.656C218.287 146.562 218.039 146.423 217.727 146.236C217.103 145.861 216.221 145.3 215.197 144.556C213.148 143.066 210.537 140.849 208.28 137.938C206.024 135.027 204.128 131.432 203.487 127.179C202.847 122.931 203.456 117.996 206.254 112.393C206.294 112.313 206.307 112.222 206.293 112.133L204.978 104.177H207.113L208.886 114.187C205.088 124.362 207.772 131.525 211.447 136.136C213.283 138.44 215.359 140.099 216.973 141.181C217.781 141.722 218.476 142.121 218.97 142.385C219.216 142.517 219.413 142.615 219.55 142.681C219.618 142.714 219.671 142.739 219.708 142.756C219.726 142.764 219.74 142.77 219.75 142.775C219.755 142.777 219.759 142.779 219.762 142.781C219.763 142.781 219.764 142.781 219.764 142.781H219.766C219.769 142.777 219.786 142.738 219.938 142.392L219.766 142.782C219.982 142.877 220.234 142.779 220.329 142.563C220.424 142.347 220.326 142.095 220.11 142L220.108 141.999C220.107 141.999 220.104 141.998 220.1 141.996C220.093 141.993 220.081 141.987 220.065 141.98C220.033 141.965 219.985 141.943 219.922 141.912C219.795 141.851 219.608 141.758 219.372 141.632C218.899 141.38 218.23 140.995 217.449 140.471C215.886 139.423 213.882 137.821 212.115 135.604C208.597 131.19 205.981 124.304 209.725 114.374C209.752 114.303 209.759 114.225 209.746 114.15L207.891 103.676L207.872 103.602C207.811 103.437 207.652 103.324 207.471 103.323H204.474Z" fill="#0B4D5E"/>
<path d="M183.478 112.153C183.318 112.099 183.141 112.144 183.027 112.269L178.246 117.482C178.166 117.57 178.125 117.687 178.135 117.806L181.659 159.853C181.671 159.991 181.749 160.116 181.869 160.186L187.738 163.619C187.876 163.7 188.048 163.697 188.183 163.612C188.317 163.526 188.393 163.372 188.379 163.212L183.767 112.518L183.757 112.456C183.723 112.316 183.618 112.2 183.478 112.153ZM187.455 162.463L182.492 159.56L179.002 117.92L183.005 113.556L187.455 162.463Z" fill="#0B4D5E"/>
<path d="M197.462 77.141L182.208 68.2773C183.037 68.7574 183.768 69.3976 184.208 70.085C190.199 79.4323 182.328 96.8504 171.809 102.924C169.307 104.368 166.659 105.172 164.008 105.07C163.153 105.038 162.182 104.707 161.316 104.205L176.57 113.068C177.436 113.57 178.407 113.901 179.262 113.934C181.913 114.032 184.561 113.232 187.063 111.788C197.582 105.714 205.453 88.2959 199.462 78.9486C199.022 78.2612 198.291 77.621 197.462 77.141Z" fill="#0B4D5E"/>
<path d="M182.422 67.9084C182.218 67.7903 181.957 67.8598 181.839 68.0636C181.721 68.2674 181.79 68.5282 181.993 68.6466L182.013 68.6574C182.694 69.0549 183.289 69.5581 183.688 70.0861L183.849 70.3156C186.734 74.8186 186.316 81.3443 183.804 87.5724C181.297 93.7877 176.754 99.576 171.596 102.555L171.136 102.813C168.825 104.062 166.418 104.736 164.024 104.644L163.73 104.62C163.033 104.536 162.251 104.253 161.53 103.835C161.326 103.717 161.066 103.787 160.947 103.99C160.829 104.194 160.898 104.456 161.102 104.574L176.355 113.438H176.356C177.264 113.964 178.302 114.324 179.245 114.361H179.246C181.995 114.462 184.722 113.632 187.276 112.158L187.277 112.157C192.637 109.062 197.289 103.105 199.85 96.756C202.405 90.4199 202.926 83.5622 199.821 78.7179C199.335 77.9587 198.547 77.2755 197.677 76.7716L182.423 67.9084V67.9093L182.422 67.9084ZM197.247 77.5099L197.248 77.5109C197.937 77.91 198.539 78.4168 198.942 78.9494L199.103 79.1789C201.988 83.682 201.57 90.2085 199.058 96.4367C196.551 102.652 192.008 108.439 186.85 111.418L186.39 111.676C184.08 112.925 181.672 113.596 179.278 113.507L178.984 113.484C178.287 113.4 177.506 113.117 176.785 112.699L164.402 105.504C166.841 105.515 169.256 104.799 171.542 103.563L172.022 103.294C177.382 100.199 182.035 94.2408 184.596 87.8918C187.074 81.7479 187.639 75.1143 184.841 70.3009L197.247 77.5099Z" fill="#0B4D5E"/>
<path d="M186.918 60.9586C170.391 70.5024 157.036 93.6343 157.09 112.624C157.09 113.067 157.101 113.504 157.116 113.933C157.425 122.357 160.745 128.543 166.048 131.566L185.772 142.808C186.154 143.026 186.652 142.957 187.151 142.67C187.649 142.382 188.147 141.877 188.526 141.222L209.017 105.728C211.359 101.669 213.261 97.3842 214.556 93.1179C216.368 87.1457 217.237 81.1373 216.859 75.5652C215.749 59.311 203.881 52.5169 189.202 59.7402C188.435 60.1185 187.678 60.5222 186.922 60.9586H186.918ZM174.566 111.26C168.576 101.912 176.447 84.4943 186.965 78.4203C189.464 76.9764 192.115 76.1763 194.763 76.2745C196.44 76.3363 198.557 77.5438 199.459 78.9477C205.449 88.2951 197.578 105.713 187.06 111.787C184.557 113.231 181.91 114.035 179.258 113.933C177.582 113.871 175.465 112.664 174.566 111.26Z" fill="#8AE5CC"/>
<path d="M208.331 58.4786C203.231 55.5598 196.438 55.7047 189.014 59.3575H189.013L188.433 59.6495C187.859 59.9442 187.289 60.2539 186.72 60.5821C186.715 60.5848 186.709 60.5861 186.704 60.589C178.361 65.407 170.842 73.6379 165.416 83.0353C159.991 92.4324 156.636 103.036 156.663 112.624L156.67 113.293C156.675 113.514 156.682 113.732 156.689 113.947V113.948C156.992 122.205 160.161 128.421 165.33 131.635L165.837 131.937L185.561 143.179C186.13 143.504 186.801 143.364 187.364 143.04C187.866 142.751 188.349 142.282 188.736 141.694L188.895 141.436L209.387 105.942C211.597 102.112 213.419 98.0807 214.713 94.048L214.965 93.2423C216.788 87.2327 217.667 81.171 217.285 75.5362L217.224 74.7726C216.516 66.948 213.273 61.3067 208.331 58.4786ZM189.391 60.1232C196.646 56.5532 203.126 56.4833 207.907 59.2189C212.687 61.9544 215.885 67.5623 216.433 75.5948C216.807 81.104 215.948 87.0599 214.148 92.9942L213.9 93.7872C212.625 97.7566 210.829 101.733 208.647 105.515L188.156 141.009L188.021 141.227C187.697 141.718 187.308 142.087 186.938 142.3C186.504 142.55 186.178 142.549 185.984 142.438V142.437L166.26 131.194L165.784 130.911C160.92 127.888 157.838 121.981 157.542 113.917C157.528 113.491 157.517 113.06 157.517 112.624V112.622C157.49 103.221 160.786 92.7646 166.156 83.463C171.524 74.1647 178.942 66.0595 187.122 61.3331C187.126 61.331 187.131 61.3304 187.135 61.3282C187.696 61.0044 188.258 60.6987 188.824 60.4083L189.391 60.1232ZM194.264 75.84C191.692 75.8528 189.143 76.6688 186.751 78.0509L186.251 78.3487C181.103 81.5181 176.66 87.3025 174.179 93.4532C171.624 99.7891 171.103 106.645 174.207 111.489L174.206 111.49C174.703 112.266 175.516 112.962 176.409 113.471C177.301 113.98 178.317 114.324 179.243 114.359L179.242 114.359C181.82 114.459 184.378 113.732 186.792 112.426L187.273 112.157C192.633 109.062 197.285 103.104 199.846 96.755C202.402 90.4189 202.922 83.5621 199.818 78.7179V78.7169C199.32 77.9417 198.506 77.2462 197.613 76.7374C196.719 76.2285 195.704 75.8819 194.779 75.8478L194.264 75.84ZM194.747 76.7013C195.499 76.729 196.38 77.0174 197.19 77.4786C197.999 77.9397 198.696 78.5486 199.1 79.1769L199.099 79.1778C201.985 83.6809 201.566 90.2074 199.054 96.4357C196.547 102.651 192.005 108.438 186.846 111.417L186.386 111.675C184.076 112.925 181.668 113.599 179.275 113.507H179.274C178.522 113.479 177.641 113.19 176.831 112.729C176.022 112.267 175.328 111.657 174.926 111.029L174.665 110.602C172.068 106.119 172.538 99.8063 174.971 93.7726C177.399 87.7515 181.738 82.1309 186.697 79.0773L187.179 78.7901C189.472 77.4651 191.876 76.7053 194.269 76.6935L194.747 76.7013Z" fill="#0B4D5E"/>
<path d="M171.664 52.0952C172.417 51.6588 173.177 51.2551 173.944 50.8768C181.324 47.2433 187.995 47.156 192.945 50.033L208.199 58.8966C203.249 56.0196 196.578 56.1069 189.198 59.7404C188.431 60.1187 187.674 60.5224 186.918 60.9588C170.391 70.5026 157.036 93.6345 157.09 112.627C157.09 113.071 157.101 113.508 157.116 113.937C157.425 122.36 160.745 128.547 166.048 131.569L150.794 122.706C145.488 119.683 142.167 113.497 141.862 105.073C141.847 104.644 141.84 104.208 141.836 103.764C141.782 84.7746 155.137 61.639 171.664 52.0989V52.0952Z" fill="#F0F4FF"/>
<path d="M192.675 49.3946C187.621 46.705 180.987 46.934 173.756 50.4942H173.755C172.98 50.8763 172.211 51.2841 171.45 51.7257C171.441 51.7308 171.434 51.7385 171.425 51.7442C163.092 56.5625 155.583 64.7865 150.162 74.1749C144.737 83.5726 141.382 94.177 141.41 103.765V103.768C141.413 104.214 141.42 104.654 141.435 105.088V105.089C141.744 113.611 145.11 119.957 150.58 123.074L150.579 123.075L165.833 131.939L165.834 131.938C165.835 131.938 165.836 131.94 165.837 131.941C166.041 132.057 166.301 131.986 166.418 131.782C166.535 131.579 166.466 131.318 166.263 131.2L166.26 131.198C161.123 128.27 157.848 122.245 157.542 113.921C157.528 113.495 157.517 113.064 157.517 112.628V112.626L157.524 111.741C157.698 102.57 160.953 92.4744 166.156 83.463C171.526 74.1609 178.948 66.0539 187.131 61.3282V61.3292C187.693 61.0054 188.254 60.6997 188.82 60.4093L189.387 60.1231C196.454 56.6438 202.786 56.4886 207.53 59.0128L207.984 59.2657C208.188 59.3841 208.449 59.3152 208.568 59.1114C208.686 58.9076 208.617 58.646 208.413 58.5274L193.16 49.6642L192.675 49.3946ZM174.133 51.2599C181.2 47.7804 187.532 47.6252 192.276 50.1495L192.73 50.4024L203.665 56.756C199.371 55.9152 194.353 56.7268 189.01 59.3575L188.43 59.6495C188.045 59.8473 187.661 60.0522 187.279 60.2647L186.704 60.589L185.925 61.0509C177.893 65.9228 170.672 73.9318 165.416 83.0362C159.991 92.4339 156.636 103.039 156.663 112.628L156.67 113.297C156.675 113.518 156.682 113.736 156.689 113.951V113.952C156.914 120.086 158.721 125.093 161.754 128.58L151.009 122.337L151.005 122.335L150.529 122.052C145.662 119.028 142.581 113.121 142.288 105.058C142.274 104.634 142.267 104.202 142.263 103.761C142.236 94.3599 145.532 83.9033 150.902 74.6017C156.272 65.2996 163.694 57.1927 171.877 52.4688C171.883 52.4653 171.888 52.459 171.894 52.4552C172.447 52.1352 173.003 51.8327 173.565 51.545L174.133 51.2599Z" fill="#0B4D5E"/>
<path fill-rule="evenodd" clip-rule="evenodd" d="M157.17 109.934L141.983 100.13C141.882 101.355 141.833 102.567 141.836 103.764C141.84 104.207 141.847 104.644 141.862 105.073C142.167 113.497 145.488 119.683 150.794 122.706L165.832 131.444C165.904 131.486 165.976 131.528 166.048 131.569L165.832 131.444C160.655 128.378 157.42 122.245 157.116 113.937C157.101 113.508 157.09 113.071 157.09 112.627C157.088 111.738 157.114 110.84 157.17 109.934Z" fill="#0B4D5E"/>
<path d="M141.794 99.747C141.929 99.6807 142.089 99.6901 142.215 99.7715L157.401 109.575C157.531 109.659 157.605 109.806 157.596 109.96C157.541 110.857 157.514 111.746 157.517 112.626V112.627L157.524 113.278C157.529 113.494 157.535 113.708 157.542 113.921L157.579 114.685C158.045 122.5 161.189 128.195 166.047 131.074L166.05 131.076L166.263 131.2C166.466 131.318 166.535 131.578 166.418 131.782C166.301 131.986 166.041 132.057 165.837 131.94L165.614 131.811C165.602 131.804 165.591 131.797 165.579 131.79L150.583 123.077L150.076 122.775C144.904 119.562 141.734 113.346 141.435 105.089V105.088C141.42 104.654 141.413 104.213 141.409 103.768V103.765C141.406 102.556 141.456 101.331 141.558 100.095L141.581 99.9873C141.618 99.8839 141.693 99.7969 141.794 99.747ZM142.356 100.879C142.293 101.849 142.26 102.81 142.263 103.76L142.271 104.416C142.276 104.632 142.281 104.846 142.288 105.058L142.325 105.831C142.781 113.499 145.82 119.125 150.529 122.051L151.006 122.335L151.009 122.337L161.761 128.584C158.724 125.097 156.914 120.089 156.688 113.952V113.951C156.681 113.735 156.675 113.517 156.671 113.296L156.663 112.627C156.661 111.811 156.684 110.987 156.729 110.158L142.356 100.879Z" fill="#0B4D5E"/>
</svg>
