<svg width="172" height="172" viewBox="0 0 172 172" fill="none" xmlns="http://www.w3.org/2000/svg">
<path d="M50.1359 42.0706C43.8759 42.0706 38.3946 35.5937 37.4208 26.7858C36.3915 17.5079 40.805 9.66182 47.4724 8.9194C54.1687 8.19143 60.1684 14.8733 61.1929 24.1512C62.2173 33.4291 57.8036 41.2752 51.1411 42.0176C50.8036 42.0562 50.4686 42.0706 50.1359 42.0706ZM48.4631 16.4232C48.4101 16.4232 48.3571 16.4232 48.3064 16.4328C46.5227 16.6281 44.322 20.4366 44.9342 25.9542C45.5465 31.467 48.5113 34.779 50.3119 34.5066C52.0956 34.3089 54.2965 30.5004 53.6843 24.9852C53.0889 19.6291 50.2613 16.4256 48.4655 16.4256L48.4631 16.4232Z" fill="#8AE5CC"/>
<path d="M50.1363 42.4322C43.6666 42.4322 38.0477 35.7214 37.0619 26.8244C36.0085 17.3464 40.5643 9.32434 47.4317 8.55781C54.2775 7.80092 60.5062 14.6394 61.5524 24.1102C62.6009 33.5882 58.0452 41.6102 51.1801 42.3768C50.8282 42.4177 50.4858 42.4322 50.1363 42.4322ZM48.4635 9.22551C48.1477 9.22551 47.8295 9.24237 47.5113 9.27612C41.0464 9.99685 36.7726 17.6694 37.7826 26.7448C38.7757 35.7238 44.6212 42.3623 51.1005 41.6584C57.563 40.9377 61.8368 33.2652 60.8316 24.1897C59.877 15.5699 54.5426 9.22551 48.461 9.22551H48.4635ZM50.0929 34.885C49.5505 34.885 48.9455 34.6415 48.3356 34.1715C46.8291 33.0145 45.0502 30.2569 44.5753 25.9928C44.2957 23.4497 44.5826 20.9862 45.3901 19.0578C46.1229 17.3054 47.1979 16.1894 48.2658 16.0712C48.3164 16.0616 48.3888 16.0592 48.4635 16.0592L48.6202 16.0664C50.7727 16.2352 53.4773 19.8316 54.0438 24.9418C54.3258 27.4848 54.0365 29.9483 53.229 31.8767C52.4962 33.6291 51.4211 34.7428 50.3508 34.8609C50.2664 34.873 50.1821 34.8802 50.0929 34.8802V34.885ZM48.3791 16.7872C48.3791 16.7872 48.3743 16.7872 48.3695 16.7872C47.5644 16.8764 46.6676 17.8767 46.0554 19.3374C45.2961 21.1574 45.0237 23.4931 45.2961 25.9156C45.7444 29.958 47.451 32.583 48.7744 33.6002C49.3119 34.0148 49.8398 34.2173 50.2568 34.1498C51.0522 34.063 51.9514 33.0627 52.5637 31.6019C53.323 29.7844 53.5954 27.4487 53.323 25.0262C52.7589 19.9232 50.1123 16.7896 48.4635 16.7896H48.3767L48.3791 16.7872Z" fill="#0B4D5E"/>
<path d="M61.1935 24.1561C60.1666 14.8806 54.1646 8.18185 47.4707 8.92428C45.8484 9.10747 46.2196 11.2359 47.6852 11.9542C51.5299 13.8344 54.4321 17.7008 55.1167 22.4928C55.6614 26.2941 55.0516 30.5968 53.0196 33.1278C52.3471 34.4512 51.0887 34.4247 50.3053 34.5139C50.2402 34.5211 50.18 34.5428 50.1149 34.5548C49.4858 34.967 48.8084 35.3093 48.0877 35.5841C47.2898 36.3699 46.8367 37.4884 46.9693 38.684C47.1838 40.6172 48.8204 42.0442 50.7199 42.0442C50.8621 42.0442 50.9996 42.0369 51.1442 42.0225C57.8067 41.2801 62.2203 33.4364 61.1958 24.1585L61.1935 24.1561Z" fill="#F0F4FF"/>
<path d="M50.7197 42.4057C48.6081 42.4057 46.8413 40.822 46.6075 38.7249C46.4701 37.4691 46.916 36.2277 47.832 35.3261L47.9573 35.2466C48.6563 34.9815 49.3144 34.644 49.917 34.2511L50.0593 34.1981C50.1629 34.1715 50.2135 34.1595 50.2689 34.1547L50.5196 34.1282C51.262 34.0607 52.1805 33.9739 52.6963 32.9639C54.5451 30.6522 55.3381 26.5858 54.7572 22.5458C54.1088 18.0165 51.4042 14.1791 47.5258 12.282C46.5471 11.8048 45.9084 10.6983 46.0699 9.76549C46.1856 9.09779 46.6943 8.64944 47.4271 8.56748C50.7752 8.18663 54.0823 9.60399 56.7218 12.5424C59.3275 15.4422 61.0439 19.552 61.5501 24.1175C62.5986 33.593 58.0427 41.6151 51.1777 42.3816C51.0186 42.3985 50.8716 42.4057 50.7197 42.4057ZM48.29 35.8926C47.5668 36.635 47.2173 37.633 47.3306 38.6454C47.5355 40.5063 49.1915 41.8489 51.1078 41.6633C57.5631 40.9426 61.8368 33.27 60.834 24.197C60.3447 19.7786 58.6935 15.8134 56.189 13.0269C53.7062 10.2669 50.6161 8.95076 47.509 9.28581C47.0896 9.33402 46.8461 9.5365 46.7834 9.88843C46.6894 10.4308 47.0679 11.2528 47.8417 11.6312C51.9395 13.6343 54.7934 17.6767 55.4731 22.4422C56.0781 26.6726 55.2248 30.956 53.3013 33.352C52.6456 34.6584 51.4067 34.7717 50.5871 34.8489L50.2545 34.8923C49.6471 35.2852 48.989 35.6202 48.29 35.8926Z" fill="#0B4D5E"/>
<path d="M50.2847 33.0989C50.2847 33.0989 27.7516 41.7645 26.908 69.4994C26.0643 97.2368 26.662 107.954 22.868 117.738C18.4327 129.176 15.6945 129.908 14.7279 142.069C14.065 150.419 22.9356 152.74 41.9205 154.122C71.9767 156.308 94.9146 147.676 124.472 128.469C147.716 113.365 156.187 108.508 156.488 103.808C156.847 98.201 152.689 89.2147 135.213 82.7137C122.698 78.0566 104.812 56.7167 102.038 53.7036C99.2632 50.6881 91.516 37.3317 79.7287 33.3351C63.4412 26.8991 50.2824 33.1013 50.2824 33.1013L50.2847 33.0989Z" fill="#F0F4FF"/>
<path d="M51.1195 154.828C48.1016 154.828 45.0354 154.712 41.8946 154.481C28.5984 153.514 19.6483 152.085 16.0953 147.948C14.7406 146.372 14.1766 144.439 14.367 142.04C15.0251 133.753 16.5148 130.701 18.7662 126.083C19.8581 123.841 21.0971 121.303 22.5314 117.608C25.5758 109.759 25.7782 101.045 26.1808 83.6874C26.2772 79.5053 26.388 74.8097 26.5471 69.4873C26.9882 55.0389 33.376 45.8261 38.6598 40.6388C44.3847 35.0175 50.0974 32.783 50.1553 32.7589C50.8399 32.4504 63.965 26.7183 79.8621 32.9976C89.4123 36.2348 96.3714 45.6068 100.108 50.6422C101.036 51.8909 101.766 52.8767 102.301 53.4577C102.588 53.7686 103.036 54.2772 103.624 54.9401C108.711 60.7011 124.198 78.2277 135.337 82.3713C156.076 90.0872 157.043 100.746 156.845 103.829C156.571 108.147 149.995 112.394 132.422 123.749C130.043 125.287 127.462 126.955 124.668 128.771C96.2027 147.264 75.3087 154.825 51.1172 154.825L51.1195 154.828ZM50.3819 33.3495L50.4157 33.4363C50.1915 33.5231 28.0971 42.3478 27.2727 69.509C27.1112 74.8289 27.0003 79.5221 26.9039 83.7043C26.4989 101.146 26.2964 109.904 23.2062 117.868C21.7623 121.59 20.5186 124.145 19.4194 126.401C17.2042 130.945 15.741 133.948 15.0901 142.098C14.9166 144.296 15.4252 146.056 16.6473 147.478C20.034 151.424 28.8419 152.808 41.9501 153.76C70.0755 155.806 92.4109 148.874 124.277 128.165C127.074 126.35 129.653 124.682 132.034 123.144C149.382 111.933 155.876 107.739 156.129 103.786C156.317 100.828 155.363 90.5958 135.088 83.0535C123.781 78.8448 108.207 61.2146 103.087 55.4222C102.506 54.7642 102.06 54.2604 101.776 53.9494C101.216 53.3396 100.474 52.3416 99.534 51.0761C95.8411 46.1057 88.9688 36.8495 79.6186 33.6797C63.6564 27.3763 50.5724 33.3712 50.4398 33.4291L50.3867 33.3519L50.3819 33.3495Z" fill="#0B4D5E"/>
<path d="M101.962 75.769C96.0874 68.1085 92.0499 58.2545 87.0771 49.7479C83.7868 43.8302 80.3423 37.9921 76.7121 32.2552C73.7183 31.3247 70.8643 30.8064 68.2056 30.5678C78.0909 46.865 84.8787 64.3795 94.1542 81.1853C105.594 100.488 128.704 109.284 149.896 111.622C150.128 111.449 150.374 111.27 150.591 111.102C150.803 108.318 151.69 96.6317 151.69 96.6317C132.864 96.1833 113.607 91.5166 101.959 75.7714L101.962 75.769Z" fill="white"/>
<path d="M149.995 111.998L149.853 111.982C124.104 109.142 103.69 97.984 93.8406 81.371C89.8006 74.0504 86.1849 66.5007 82.6873 59.197C78.158 49.7383 73.4768 39.959 67.8941 30.7558L67.5229 30.146L68.2365 30.2087C71.1339 30.469 74.0192 31.0427 76.8201 31.9129L76.948 31.9514L77.0179 32.0647C80.5251 37.6088 84.0154 43.5 87.3924 49.5744C89.1569 52.5923 90.8371 55.8416 92.4617 58.9849C95.4218 64.7098 98.4783 70.6323 102.253 75.5497L102.518 75.8968L102.509 75.9016C112.428 89.058 128.522 95.7205 151.699 96.2725L152.078 96.2822L152.049 96.6606C152.049 96.6606 151.162 108.347 150.952 111.131L150.94 111.292L150.812 111.391C150.646 111.519 150.462 111.651 150.284 111.786L149.995 111.998ZM68.8849 30.9993C74.3205 40.0506 78.9027 49.6226 83.338 58.8861C86.8308 66.1777 90.4417 73.7201 94.4648 81.0118C104.174 97.3886 124.338 108.407 149.79 111.246L149.85 111.201C149.983 111.104 150.113 111.005 150.238 110.911C150.443 108.2 151.145 98.9698 151.294 96.9836C128.204 96.3617 111.507 89.299 101.663 75.986L101.438 75.6847C97.7334 70.7793 94.7251 64.9532 91.8109 59.3151C90.191 56.1791 88.5182 52.937 86.7561 49.9288C83.4056 43.9002 79.9489 38.0596 76.4682 32.5589C73.9927 31.7972 71.4424 31.2717 68.88 30.9969L68.8849 30.9993Z" fill="#0B4D5E"/>
<path d="M26.2836 135.966C27.173 122.997 34.3079 122.99 38.3913 110.788C41.884 100.353 41.9323 92.9075 38.0056 63.5768C34.7322 39.1298 51.673 32.5854 57.0339 31.115C52.818 31.9104 50.2822 33.106 50.2822 33.106C50.2822 33.106 27.7491 41.7717 26.9055 69.5066C26.0618 97.2439 26.6595 107.963 22.8654 117.745C18.4302 129.185 15.6918 129.918 14.7252 142.076C14.0961 150.016 21.8651 149.358 38.965 150.773C32.4977 148.898 25.9027 141.483 26.2787 135.973V135.968L26.2836 135.966Z" fill="#8AE5CC"/>
<path d="M38.9391 151.132C36.6805 150.944 34.5833 150.795 32.6501 150.655C23.4903 149.997 17.9606 149.599 15.6032 146.854C14.6077 145.697 14.2051 144.125 14.369 142.045C15.027 133.758 16.5167 130.706 18.7681 126.088C19.8625 123.846 21.1015 121.305 22.5333 117.61C25.5777 109.759 25.7802 101.038 26.1827 83.6633C26.2791 79.4884 26.3876 74.8 26.5467 69.4922C26.9878 55.0438 33.378 45.831 38.6617 40.6436C44.3866 35.0224 50.0995 32.7879 50.1574 32.7638C50.2369 32.7252 52.7558 31.5513 56.9717 30.7559L57.1333 31.4597C51.9146 32.8915 35.1401 39.436 38.3653 63.5262C42.222 92.3338 42.2847 100.303 38.7365 110.902C36.9407 116.263 34.5206 119.35 32.3874 122.074C29.5719 125.666 27.1398 128.768 26.6432 135.988L26.636 136.065C26.3371 141.315 32.5802 148.539 39.0668 150.421L38.9342 151.128L38.9391 151.132ZM50.572 33.3736C50.49 33.4098 50.4443 33.4315 50.4394 33.4315C50.1912 33.5279 28.0967 42.3527 27.2723 69.5139C27.1108 74.8217 27.0024 79.5077 26.906 83.6802C26.501 101.139 26.2985 109.904 23.2083 117.873C21.7644 121.595 20.5182 124.15 19.419 126.406C17.2038 130.952 15.7406 133.955 15.0897 142.103C14.9403 144.007 15.2754 145.367 16.1504 146.384C18.3126 148.898 23.729 149.288 32.7007 149.934C33.9108 150.021 35.1859 150.113 36.5237 150.217C30.6494 147.401 25.5873 140.849 25.9248 135.949L25.9322 135.872C26.4552 128.481 29.0609 125.155 31.8209 121.633C34.0217 118.825 36.2971 115.92 38.0519 110.678C41.5977 100.093 41.5303 92.6183 37.6519 63.6275C36.2369 53.0624 38.3797 44.604 44.0226 38.4862C46.1005 36.23 48.405 34.5789 50.572 33.3736Z" fill="#0B4D5E"/>
<path d="M155.821 99.4567C161.775 116.737 135.226 141.56 96.5182 154.898C57.8109 168.235 21.6031 165.036 15.6493 147.755C9.69539 130.47 36.2445 105.647 74.9518 92.3096C113.659 78.9725 149.864 82.1736 155.821 99.4567Z" fill="#F0F4FF"/>
<path d="M51.5723 163.501C48.8894 163.501 46.2838 163.39 43.7721 163.168C28.3475 161.806 18.2378 156.373 15.3091 147.873C9.29739 130.426 36.0007 105.348 74.8334 91.9697C113.659 78.5868 150.146 81.894 156.16 99.341C159.092 107.84 154.475 118.348 143.163 128.922C131.925 139.427 115.402 148.775 96.6338 155.24C80.944 160.647 65.2493 163.501 51.5723 163.501ZM119.996 84.4346C106.789 84.4346 91.1378 87.1151 75.0695 92.6519C36.6129 105.902 10.1122 130.569 15.9913 147.64C18.8212 155.855 28.7089 161.114 43.8346 162.45C59.0592 163.795 77.7284 160.991 96.4023 154.558C115.076 148.124 131.506 138.832 142.671 128.394C153.762 118.027 158.308 107.792 155.478 99.5772C152.053 89.6412 138.395 84.437 119.994 84.437L119.996 84.4346Z" fill="#0B4D5E"/>
<path d="M151.614 100.378C157.142 116.415 132.051 139.606 95.5781 152.174C59.1004 164.742 25.0525 161.931 19.5253 145.892C13.9981 129.855 39.0888 106.662 75.5616 94.096C112.037 81.5277 146.087 84.3383 151.614 100.378Z" fill="#8AE5CC"/>
<path d="M52.8498 160.355C35.3787 160.355 22.4248 155.428 19.1803 146.01C13.5976 129.807 38.8353 106.365 75.4431 93.7536C112.051 81.142 146.376 84.0611 151.954 100.259C154.678 108.159 150.286 117.955 139.591 127.843C128.97 137.658 113.382 146.422 95.6935 152.516C80.3677 157.797 65.4349 160.355 52.8498 160.355ZM118.424 86.5969C105.909 86.5969 91.0028 89.1568 75.6794 94.4358C39.4524 106.917 14.4123 129.947 19.8648 145.774C25.3197 161.596 59.2303 164.315 95.4597 151.832C113.054 145.767 128.553 137.06 139.099 127.31C149.572 117.629 153.894 108.106 151.272 100.493C148.124 91.3624 135.5 86.5969 118.424 86.5969Z" fill="#0B4D5E"/>
<path d="M83.7178 124.735C61.891 132.938 32.1168 129.074 24.9746 126.097C34.091 114.18 52.5648 102.031 75.5656 94.103C97.337 86.5992 118.243 84.5816 132.732 87.5826C135.097 93.9367 121.102 111.953 83.7178 124.735Z" fill="#0B4D5E"/>
<path d="M52.1892 130.06C39.8259 130.06 29.1138 128.214 24.8352 126.43L24.4014 126.249L24.6858 125.876C34.1975 113.442 53.1728 101.438 75.448 93.7608C96.3444 86.5583 117.785 84.1189 132.808 87.2284L133.003 87.2694L133.073 87.4574C133.63 88.9543 133.338 90.9791 132.234 93.3124C128.264 101.689 113.203 115.036 83.8387 125.078C74.004 128.773 62.5181 130.062 52.1868 130.062L52.1892 130.06ZM25.5535 125.938C33.7587 129.033 62.8822 132.181 83.5905 124.395H83.6001C112.76 114.423 127.671 101.25 131.581 93.0015C132.552 90.9502 132.853 89.1905 132.458 87.8961C117.564 84.8734 96.3612 87.32 75.6818 94.4453C53.7633 102 35.0773 113.751 25.5535 125.938Z" fill="#0B4D5E"/>
<path d="M76.0538 138.044C76.0538 145.837 69.7336 152.155 61.9406 152.155C54.1475 152.155 47.8271 145.837 47.8271 138.044C47.8271 130.251 54.1451 123.93 61.9406 123.93C69.736 123.93 76.0538 130.248 76.0538 138.044Z" fill="#F0F4FF"/>
<path d="M61.9431 152.516C53.9596 152.516 47.4658 146.025 47.4658 138.044C47.4658 130.062 53.9596 123.569 61.9431 123.569C69.9266 123.569 76.418 130.062 76.418 138.044C76.418 146.025 69.9242 152.516 61.9431 152.516ZM61.9431 124.292C54.3597 124.292 48.1913 130.463 48.1913 138.044C48.1913 145.625 54.3597 151.793 61.9431 151.793C69.5264 151.793 75.6924 145.625 75.6924 138.044C75.6924 130.463 69.524 124.292 61.9431 124.292Z" fill="#0B4D5E"/>
<path d="M72.7093 133.401C73.4999 135.337 73.4229 137.197 72.5407 137.557C71.6561 137.918 70.3013 136.643 69.5107 134.707C68.7201 132.772 68.7972 130.913 69.6794 130.552C70.5641 130.19 71.9187 131.468 72.7093 133.401Z" fill="white"/>
<path d="M72.2229 137.978C72.0252 137.978 71.8179 137.933 71.6082 137.846C70.7091 137.467 69.7761 136.318 69.1759 134.842C68.7734 133.859 68.571 132.859 68.6072 132.022C68.6457 131.089 68.9759 130.446 69.5448 130.214C70.0992 129.98 70.7958 130.205 71.478 130.851C72.0878 131.422 72.6423 132.28 73.0448 133.261C73.9367 135.45 73.7799 137.438 72.6784 137.887C72.5337 137.945 72.3819 137.976 72.2252 137.976L72.2229 137.978ZM69.9979 130.853C69.9328 130.853 69.8703 130.863 69.8172 130.887C69.5376 131.002 69.3544 131.439 69.3279 132.053C69.299 132.789 69.4821 133.681 69.8461 134.57C70.3619 135.833 71.1839 136.882 71.8902 137.181C72.0903 137.265 72.2662 137.279 72.406 137.224C73.0014 136.98 73.1171 135.353 72.3771 133.538C72.0131 132.649 71.5189 131.882 70.9838 131.379C70.6222 131.039 70.268 130.853 70.0004 130.853H69.9979Z" fill="#0B4D5E"/>
<path d="M52.8498 160.355C35.3787 160.355 22.4248 155.428 19.1803 146.01C13.5976 129.807 38.8353 106.365 75.4431 93.7536C112.051 81.142 146.376 84.0611 151.954 100.259C154.678 108.159 150.286 117.955 139.591 127.843C128.97 137.658 113.382 146.422 95.6935 152.516C80.3677 157.797 65.4349 160.355 52.8498 160.355ZM118.424 86.5969C105.909 86.5969 91.0028 89.1568 75.6794 94.4358C39.4524 106.917 14.4123 129.947 19.8648 145.774C25.3197 161.596 59.2303 164.315 95.4597 151.832C113.054 145.767 128.553 137.06 139.099 127.31C149.572 117.629 153.894 108.106 151.272 100.493C148.124 91.3624 135.5 86.5969 118.424 86.5969Z" fill="#0B4D5E"/>
<path d="M61.2839 128.055C64.7189 128.055 64.9479 126.206 64.9479 126.206L64.0199 98.7023C61.7371 99.6978 59.5123 100.732 57.3477 101.797L58.2082 126.604C58.2082 126.604 57.8514 128.055 61.2839 128.055Z" fill="#F0F4FF"/>
<path d="M61.2846 128.416C59.6648 128.416 58.5971 128.1 58.1101 127.476C57.8136 127.098 57.8257 126.726 57.8474 126.579L56.9795 101.576L57.1893 101.472C59.378 100.394 61.6293 99.3507 63.8783 98.3696L64.3652 98.1575L64.3845 98.6902L65.3126 126.194C65.2981 126.338 64.9993 128.414 61.2871 128.414L61.2846 128.416ZM57.7172 102.019L58.5705 126.64L58.5584 126.69C58.5584 126.69 58.5342 126.859 58.6933 127.049C58.8958 127.29 59.5009 127.693 61.2846 127.693C64.317 127.693 64.5798 126.22 64.5895 126.158L63.6758 99.247C61.6703 100.129 59.6721 101.06 57.7172 102.019Z" fill="#0B4D5E"/>
<path d="M120.753 29.3578C134.951 28.5069 135.648 27.8103 136.508 13.6849C137.366 27.8103 138.063 28.5069 152.27 29.3578C138.063 30.2087 137.366 30.9054 136.508 45.0307C135.65 30.9054 134.954 30.2087 120.753 29.3578Z" fill="#F0F4FF"/>
<path d="M136.509 45.3922C136.318 45.3922 136.159 45.2428 136.149 45.0524C135.301 31.1295 134.725 30.5558 120.732 29.7193C120.541 29.7073 120.39 29.5506 120.39 29.3578C120.39 29.1649 120.539 29.0083 120.732 28.9962C134.725 28.1574 135.301 27.5861 136.149 13.6632C136.161 13.4727 136.318 13.3233 136.509 13.3233C136.699 13.3233 136.858 13.4727 136.868 13.6632C137.714 27.5861 138.29 28.1598 152.29 28.9962C152.48 29.0083 152.632 29.1649 152.632 29.3578C152.632 29.5506 152.483 29.7073 152.29 29.7193C138.287 30.5582 137.711 31.1295 136.868 45.0524C136.856 45.2428 136.699 45.3922 136.509 45.3922ZM125.659 29.3578C133.917 30.1677 135.694 31.9466 136.509 40.1784C137.321 31.9466 139.1 30.1677 147.363 29.3578C139.1 28.5479 137.321 26.7689 136.509 18.5372C135.694 26.7689 133.917 28.5479 125.659 29.3578Z" fill="#0B4D5E"/>
</svg>
