<svg width="172" height="172" viewBox="0 0 172 172" fill="none" xmlns="http://www.w3.org/2000/svg">
<path d="M63.9946 163.628C91.954 163.628 114.611 159.249 114.611 153.842C114.611 148.435 91.954 144.059 63.9946 144.059C36.0353 144.059 13.3784 148.435 13.3784 153.842C13.3784 159.249 36.0353 163.628 63.9946 163.628Z" fill="#0B4D5E"/>
<path d="M63.9923 164C38.9295 164 13 160.199 13 153.841C13 147.482 38.927 143.684 63.9923 143.684C89.0576 143.684 114.987 147.482 114.987 153.841C114.987 160.199 89.0601 164 63.9923 164ZM63.9923 144.431C33.9384 144.431 13.7497 149.298 13.7497 153.841C13.7497 158.384 33.9359 163.253 63.9923 163.253C94.0487 163.253 114.237 158.386 114.237 153.841C114.237 149.295 94.0487 144.431 63.9923 144.431Z" fill="#0B4D5E"/>
<path d="M64.1211 9.85081L69.8021 19.5143C69.4061 18.8269 67.8122 18.8792 65.2543 19.7359C64.9804 19.8231 64.7214 19.9252 64.43 20.0473C59.4861 21.9351 53.444 25.8478 50.921 28.7643C49.9596 29.8975 49.6508 30.7219 49.9422 31.2026L44.2436 21.5391C43.9697 21.0584 44.2786 20.234 45.2399 19.1008C47.7455 16.1669 53.8051 12.2542 58.7489 10.3838C59.0229 10.2792 59.2968 10.177 59.5733 10.0724C62.1137 9.19825 63.7101 9.16341 64.1211 9.85081Z" fill="#8AE5CC"/>
<path d="M49.6263 31.3963L49.6114 31.3714L43.9253 21.7279C43.5492 21.0704 43.8954 20.1065 44.9564 18.8587C47.4993 15.8824 53.6261 11.9225 58.6173 10.0346L59.4392 9.72329C61.3545 9.06577 63.7603 8.52282 64.4427 9.65853L70.1163 19.312C70.1213 19.317 70.1239 19.3219 70.1264 19.3269L69.4812 19.703L69.4738 19.6931C69.2421 19.317 68.0417 19.195 65.3743 20.0891C65.1053 20.1763 64.8563 20.2734 64.5748 20.393C59.6983 22.2534 53.7084 26.1163 51.2054 29.0079C50.0647 30.3553 50.1867 30.8658 50.259 31.0003L50.2664 31.0128L49.6263 31.3963ZM62.8214 9.74822C62.1738 9.74822 61.1752 9.91751 59.6958 10.4256L58.8837 10.7345C53.9897 12.5875 47.9974 16.4478 45.5268 19.3444C44.6003 20.4352 44.426 21.1002 44.5705 21.3567L49.6611 29.9843C49.8479 29.5559 50.1742 29.0701 50.6399 28.5246C53.2102 25.5533 59.3371 21.5934 64.2983 19.7005C64.5897 19.5785 64.8587 19.4739 65.1426 19.3818C66.7739 18.8363 68.0318 18.6097 68.8811 18.6819L63.8027 10.0421C63.7106 9.89013 63.4166 9.74822 62.8214 9.74822Z" fill="#0B4D5E"/>
<path d="M54.4953 30.9829C50.1866 32.4598 48.5727 31.5507 50.9412 28.7861C53.4468 25.8522 59.5064 21.9394 64.4502 20.0665C64.7242 19.9644 64.9981 19.8624 65.2746 19.7577C69.5833 18.2833 71.1972 19.1924 68.8112 21.9545C66.3056 24.8909 60.2461 28.8036 55.3197 30.674C55.0457 30.7786 54.7518 30.8808 54.4953 30.9829Z" fill="#0B4D5E"/>
<path d="M51.2257 32.0575C50.5283 32.0575 49.9554 31.8931 49.6615 31.4598C49.2206 30.8097 49.5569 29.8284 50.6578 28.5433C53.2007 25.567 59.3275 21.607 64.3186 19.7192L65.1381 19.4103C67.0185 18.7677 69.3895 18.2297 70.1018 19.2832C70.5426 19.9332 70.2014 20.9146 69.0906 22.1997C66.5527 25.1735 60.4334 29.1336 55.4497 31.024L55.101 31.1535C54.9391 31.2132 54.7773 31.2729 54.6303 31.3327L54.6129 31.3377C53.512 31.7138 52.2318 32.0575 51.2231 32.0575H51.2257ZM68.5402 19.4328C67.8926 19.4328 66.8889 19.5996 65.3946 20.1102L64.5827 20.4165C59.6911 22.2695 53.7013 26.1324 51.2281 29.0289C50.2767 30.1397 50.1148 30.7947 50.2817 31.0413C50.4859 31.3402 51.5743 31.5892 54.3663 30.6328C54.5207 30.5731 54.6826 30.5108 54.847 30.451L55.1856 30.3241C60.0722 28.4686 66.0571 24.6057 68.5253 21.7116C69.4866 20.6008 69.651 19.9433 69.4866 19.6993C69.392 19.5598 69.1055 19.4328 68.5402 19.4328Z" fill="#0B4D5E"/>
<path d="M66.9009 21.3925L75.227 35.0833C74.958 34.65 73.9095 34.6723 72.2358 35.2352C72.0789 35.2999 71.902 35.3647 71.7003 35.4295C68.4849 36.62 64.535 39.1055 62.9061 40.9436C62.2586 41.6584 62.0567 42.1765 62.2361 42.4803L53.9101 28.7895C53.7308 28.4882 53.9325 27.9677 54.5801 27.2554C56.2089 25.4173 60.1614 22.9292 63.3967 21.7387C63.576 21.6739 63.7529 21.6092 63.9322 21.5444C65.5835 21.0039 66.6319 20.9617 66.9009 21.3925Z" fill="#8AE5CC"/>
<path d="M61.9168 42.6738L53.5908 28.983C53.3043 28.5048 53.541 27.8399 54.3007 27.0031C55.9818 25.1077 60.0041 22.5872 63.2667 21.3868L63.8047 21.1925C65.72 20.5649 66.8308 20.5698 67.2194 21.1925L75.5453 34.8833L74.9078 35.2768C74.838 35.1598 74.2128 34.963 72.3548 35.5882C72.2129 35.6479 72.0261 35.7151 71.8144 35.7849C68.6688 36.9505 64.7936 39.3763 63.1846 41.192C62.552 41.8894 62.5171 42.223 62.5594 42.2903L61.9168 42.6738ZM66.0886 21.4714C65.7025 21.4714 65.06 21.5686 64.0488 21.8974L63.5233 22.0866C60.3603 23.2497 56.4749 25.6781 54.8586 27.5012C54.2259 28.1961 54.191 28.5322 54.2309 28.5945L62.0514 41.4559C62.1884 41.2193 62.3802 40.9627 62.6267 40.6913C64.3004 38.8034 68.3126 36.283 71.5703 35.0775C71.777 35.0103 71.944 34.9506 72.091 34.8883C73.0424 34.5695 73.8045 34.4101 74.3798 34.4076L66.5817 21.5861C66.5493 21.5362 66.4073 21.4714 66.0886 21.4714Z" fill="#0B4D5E"/>
<path d="M134.694 143.403C160.27 127.662 165.436 89.5938 146.211 58.3718C127.003 27.1324 90.7006 14.5848 65.1272 30.3079C39.5364 46.0459 34.3858 84.1172 53.5932 115.339C72.8181 146.579 109.121 159.126 134.694 143.403Z" fill="#F0F4FF"/>
<path d="M110.241 150.535C89.2453 150.535 66.9247 137.718 53.2738 115.537C43.939 100.362 40.004 83.1118 42.1932 66.9703C44.3849 50.7964 52.4593 37.6636 64.9347 29.9926C90.6476 14.1848 127.254 26.8269 146.531 58.1784C155.874 73.3511 159.814 90.5984 157.624 106.745C155.433 122.916 147.358 136.049 134.893 143.723C127.374 148.345 118.923 150.535 110.246 150.535H110.241ZM89.5916 23.9204C81.0439 23.9204 72.7278 26.0749 65.3233 30.6277C53.0447 38.1766 45.0947 51.1202 42.9329 67.0674C40.7686 83.0396 44.6664 100.115 53.9115 115.143C72.9869 146.144 109.138 158.679 134.499 143.085C146.773 135.531 154.72 122.59 156.88 106.643C159.047 90.6658 155.144 73.5927 145.891 58.567C132.395 36.6149 110.328 23.9204 89.5916 23.9204Z" fill="#0B4D5E"/>
<path d="M128.686 133.633C149.849 120.625 154.123 89.1112 138.23 63.2789C122.335 37.4465 92.2986 27.0433 71.136 40.0716C49.9561 53.0998 45.6997 84.5957 61.5922 110.428C77.4871 136.26 107.524 146.661 128.686 133.633Z" fill="#F0F4FF"/>
<path d="M108.415 139.64C103.401 139.64 98.226 138.751 93.0406 136.955C80.2888 132.544 69.0064 123.192 61.2732 110.622C53.5399 98.0521 50.2771 83.766 52.0877 70.3966C53.9034 56.9947 60.5982 46.1134 70.9367 39.7525C81.2676 33.394 93.9945 32.3279 106.779 36.7487C119.531 41.1595 130.81 50.5142 138.546 63.0817C146.277 75.6492 149.537 89.9378 147.724 103.315C145.908 116.719 139.216 127.598 128.883 133.951C122.743 137.73 115.755 139.64 108.415 139.64ZM91.4068 34.8111C84.2015 34.8111 77.3473 36.684 71.3301 40.39C61.1859 46.6289 54.6133 57.321 52.83 70.4987C51.0393 83.6988 54.2646 97.8105 61.9107 110.234C69.5518 122.657 80.6947 131.897 93.2846 136.25C105.857 140.599 118.355 139.555 128.492 133.314C138.628 127.082 145.196 116.393 146.984 103.215C148.775 90.0099 145.552 75.8958 137.908 63.4752C130.267 51.0522 119.122 41.8122 106.532 37.4562C101.429 35.6903 96.3331 34.8111 91.4042 34.8111H91.4068Z" fill="#0B4D5E"/>
<path d="M67.9205 72.2198L60.6729 70.4017C62.9418 61.3633 68.2418 53.8915 75.5965 49.3686C84.6398 43.8072 96.1289 43.0849 107.11 47.3887L104.385 54.3448C95.4714 50.8555 86.6398 51.3461 79.5117 55.7321C73.746 59.2787 69.7362 64.9797 67.9205 72.2223V72.2198Z" fill="#F7CC69"/>
<path fill-rule="evenodd" clip-rule="evenodd" d="M67.0941 107.505C61.5799 98.5363 59.0295 88.6586 59.3184 79.3911L67.0343 79.6327C66.7927 87.3336 68.9172 95.7294 73.6692 103.46C78.5209 111.35 85.2206 117.101 92.3537 120.324L89.1757 127.36C80.5807 123.475 72.7203 116.653 67.0941 107.505Z" fill="#8AE5CC"/>
<path d="M138.159 103.176L130.835 101.714C132.75 92.1226 130.563 81.2835 124.837 71.9787C121.101 65.9017 116.098 60.8334 110.362 57.3242L114.262 50.9507C120.997 55.0726 126.855 60.9902 131.203 68.0634C137.903 78.9573 140.438 91.7565 138.159 103.176Z" fill="#F35F5F"/>
<path d="M138.879 64.3351C123.465 38.2113 93.5306 27.1057 72.007 39.5163C70.7716 40.2386 69.6034 41.0107 68.4702 41.8351C68.5225 41.8177 68.5725 41.7654 68.6073 41.7305C90.131 29.305 120.083 40.4104 135.48 66.5492C150.017 91.1811 146.431 120.361 127.945 134.039C149.35 121.561 154.241 90.3917 138.862 64.3202H138.879V64.3351Z" fill="#0B4D5E"/>
<path d="M128.133 134.361L127.724 133.739C146.364 119.943 149.562 91.1396 135.159 66.7393C119.899 40.8347 90.1637 29.7565 68.8393 42.0301L68.8318 42.0351C68.7671 42.0949 68.69 42.1521 68.5953 42.187L68.249 41.5345C68.3013 41.4947 68.3586 41.4547 68.4109 41.4149L68.4184 41.4075L68.4308 41.4C69.5616 40.5856 70.67 39.8633 71.8131 39.1934C93.4314 26.7305 123.558 37.8385 139.079 63.9448H139.233L139.246 64.2387C147.622 78.4998 150.289 94.8729 146.558 109.179C143.696 120.157 137.154 129.101 128.133 134.359V134.361ZM87.9845 36.2819C105.77 36.2819 124.628 47.3898 135.801 66.3606C148.904 88.5617 147.599 114.379 133.492 129.577C139.38 124.389 143.674 117.286 145.836 108.995C149.524 94.8406 146.864 78.6268 138.538 64.5102L138.205 63.9473H138.21C123.441 39.4697 95.6579 28.5261 74.742 38.4984C78.9884 37.0015 83.4517 36.2793 87.982 36.2793L87.9845 36.2819Z" fill="#0B4D5E"/>
<path d="M134.727 143.374L118.782 153.192C118.404 153.416 118.045 153.623 117.684 153.844C91.6623 168.862 55.4815 155.423 36.8569 123.86C18.5087 92.7226 24.0702 55.5631 49.1455 40.1314L65.0902 30.3135C40.0124 45.7452 34.451 82.9048 52.8017 114.042C71.1673 145.177 107.607 159.044 133.629 144.026C133.99 143.805 134.349 143.598 134.727 143.374Z" fill="#8AE5CC"/>
<path d="M94.2795 160.345C72.8156 160.345 50.0366 146.941 36.5326 124.052C27.6238 108.934 24.0074 91.8887 26.3436 76.0535C28.6823 60.2159 36.7096 47.3445 48.9483 39.8155L64.8707 30.0126C64.8707 30.0126 64.8855 30.005 64.893 29.9976L65.2866 30.6353C53.2421 38.0472 45.3369 50.7294 43.0306 66.3453C40.7168 82.0136 44.3008 98.8848 53.1224 113.856C71.6151 145.202 107.644 158.599 133.441 143.705C133.678 143.559 133.922 143.417 134.174 143.27L134.537 143.058L134.923 143.698L118.608 153.733C118.361 153.877 118.119 154.019 117.878 154.166C110.61 158.36 102.543 160.348 94.2795 160.348V160.345ZM58.278 34.9489L49.3417 40.4506C37.2947 47.8626 29.3896 60.5447 27.0833 76.1607C24.7695 91.829 28.3535 108.7 37.1752 123.671C55.6703 155.018 91.7092 168.402 117.494 153.521C117.731 153.374 117.975 153.232 118.226 153.085L118.59 152.873L127.561 147.349C102.1 157.237 69.7247 143.469 52.4799 114.234C43.5711 99.1189 39.9547 82.0709 42.2909 66.2357C44.1787 53.4615 49.7652 42.62 58.278 34.9489Z" fill="#0B4D5E"/>
<path d="M133.523 80.0791L107.777 91.2345C110.816 91.354 103.539 83.262 105.202 86.0938C107.399 89.8172 106.181 93.9218 102.507 95.2418C98.8337 96.5643 98.7665 97.5928 96.5698 93.852C94.9061 91.0202 101.616 84.5398 103.486 82.6519L132.94 80.0791H133.523Z" fill="#0B4D5E"/>
<path d="M99.0302 96.8099C98.0763 96.8099 97.4362 96.0677 96.2482 94.0404C94.7215 91.4402 98.9979 86.6234 102.893 82.7181L103.319 82.2922L103.456 82.2797L132.91 79.707H133.525L133.674 80.4218L108.729 91.2309C108.582 91.4351 108.328 91.6368 107.765 91.6069L107.63 90.8897L108.158 90.6607C108.22 89.9583 107.09 88.3045 106.126 87.1289C106.778 88.7777 106.851 90.5037 106.305 92.0105C105.7 93.6867 104.395 94.9594 102.634 95.592C101.992 95.8236 101.461 96.0453 101.013 96.2345C100.163 96.5907 99.5507 96.8099 99.0302 96.8099ZM103.653 83.0095L103.419 83.2436C101.451 85.2162 95.4587 91.226 96.8883 93.6593C98.5346 96.4587 98.6989 96.3864 100.724 95.5421C101.185 95.3479 101.725 95.1237 102.38 94.8871C103.929 94.3317 105.072 93.2184 105.6 91.7564C106.206 90.0802 105.944 88.0828 104.881 86.2821C104.666 85.9184 104.422 85.5075 104.699 85.2361C104.751 85.1813 104.963 85.0194 105.277 85.2087C105.932 85.5997 108.549 88.6433 108.863 90.3568L131.413 80.5861L103.653 83.0095Z" fill="#0B4D5E"/>
<path d="M106.072 97.0829C109.862 94.7393 110.627 89.0633 107.78 84.4084C104.933 79.7535 99.5561 77.8805 95.7655 80.2266C91.9723 82.5753 91.2101 88.2489 94.0568 92.9038C96.9036 97.5562 102.281 99.4316 106.072 97.0829Z" fill="#0B4D5E"/>
<path d="M102.428 98.4671C101.79 98.4671 101.14 98.39 100.492 98.2356C97.8075 97.598 95.3468 95.725 93.7404 93.0974C90.7916 88.2756 91.6135 82.358 95.5685 79.9098C97.2322 78.8787 99.292 78.5824 101.347 79.0755C104.032 79.7156 106.492 81.586 108.099 84.2136C111.048 89.0378 110.226 94.9529 106.268 97.4012C105.13 98.106 103.81 98.4671 102.428 98.4671ZM99.4116 79.591C98.1663 79.591 96.9807 79.9147 95.9621 80.5449C92.3532 82.7789 91.6434 88.2359 94.3755 92.709C95.8798 95.1672 98.1688 96.9156 100.662 97.5084C102.537 97.9542 104.38 97.6901 105.872 96.7661C109.484 94.5345 110.193 89.0777 107.461 84.6021C105.957 82.1439 103.668 80.3955 101.175 79.8027C100.582 79.6608 99.9894 79.591 99.4116 79.591Z" fill="#0B4D5E"/>
</svg>
