<svg width="411" height="300" viewBox="0 0 411 300" fill="none" xmlns="http://www.w3.org/2000/svg">
<path d="M196.786 106.118C197.986 107.36 198.568 108.328 198.287 108.794L198.272 108.817C198.267 108.825 198.259 108.832 198.253 108.839L197.677 109.077C197.132 109.119 196.286 108.931 195.222 108.55L196.786 106.118Z" fill="#0B4D5E"/>
<path opacity="0.3" d="M191.445 196.503C218.992 181.558 228.412 145.503 212.485 115.971C196.558 86.4402 161.315 74.615 133.769 89.5602C106.222 104.505 96.8008 140.561 112.729 170.092C128.655 199.624 163.898 211.448 191.445 196.503Z" fill="#8AE5CC"/>
<path opacity="0.3" d="M193.644 211.382C228.034 192.724 239.793 147.714 219.911 110.846C200.027 73.9792 156.031 59.217 121.641 77.8747C87.251 96.5316 75.4905 141.544 95.3743 178.411C115.257 215.278 159.255 230.04 193.644 211.382Z" fill="#8AE5CC"/>
<path d="M189.645 252.541C189.416 252.592 189.273 252.82 189.324 253.049L190.092 256.454L190.507 256.36L190.922 256.267L190.153 252.861L190.125 252.779C190.044 252.6 189.845 252.496 189.645 252.541ZM187.786 246.238C187.838 246.467 188.066 246.611 188.295 246.559C188.524 246.507 188.667 246.28 188.616 246.051L187.786 246.238ZM186.57 238.919C186.341 238.971 186.198 239.198 186.249 239.427L187.786 246.238L188.201 246.144L188.616 246.051L187.079 239.24C187.027 239.011 186.799 238.868 186.57 238.919ZM184.712 232.617C184.764 232.846 184.991 232.989 185.22 232.937C185.449 232.886 185.592 232.659 185.541 232.43L184.712 232.617ZM183.496 225.298C183.267 225.349 183.123 225.578 183.175 225.807L184.712 232.617L185.127 232.523L185.541 232.43L184.004 225.619L183.976 225.537C183.895 225.357 183.696 225.253 183.496 225.298ZM180.421 211.677C180.192 211.729 180.049 211.956 180.1 212.185L181.637 218.995L181.665 219.077C181.746 219.257 181.946 219.362 182.146 219.317C182.375 219.265 182.518 219.037 182.467 218.808L180.93 211.998L180.902 211.916C180.821 211.736 180.621 211.632 180.421 211.677ZM177.347 198.056C177.118 198.107 176.974 198.335 177.026 198.564L178.563 205.374L178.591 205.456C178.672 205.636 178.871 205.741 179.071 205.695C179.3 205.644 179.443 205.416 179.392 205.188L177.855 198.376C177.803 198.148 177.575 198.004 177.347 198.056ZM175.488 191.753C175.54 191.982 175.767 192.125 175.996 192.074C176.225 192.022 176.369 191.795 176.318 191.566L175.488 191.753ZM174.272 184.434C174.043 184.486 173.9 184.713 173.951 184.942L175.488 191.753L175.903 191.659L176.318 191.566L174.781 184.756C174.729 184.527 174.501 184.383 174.272 184.434ZM171.198 170.814C170.969 170.865 170.825 171.093 170.877 171.322L172.414 178.132L172.441 178.214C172.522 178.394 172.722 178.498 172.922 178.452C173.151 178.401 173.294 178.174 173.243 177.945L171.706 171.134L171.678 171.052C171.597 170.872 171.398 170.769 171.198 170.814ZM168.123 157.192C167.894 157.244 167.75 157.471 167.802 157.7L169.339 164.51C169.391 164.739 169.618 164.883 169.847 164.832C170.076 164.78 170.22 164.553 170.169 164.324L168.631 157.513C168.58 157.284 168.352 157.141 168.123 157.192ZM166.265 150.89C166.317 151.119 166.544 151.262 166.773 151.21C167.002 151.159 167.145 150.931 167.093 150.703L166.265 150.89ZM165.049 143.571C164.82 143.622 164.676 143.85 164.727 144.079L166.265 150.89L166.68 150.796L167.093 150.703L165.556 143.891C165.505 143.663 165.277 143.519 165.049 143.571ZM161.974 129.949C161.745 130.001 161.601 130.229 161.653 130.458L163.19 137.268L163.218 137.35C163.299 137.53 163.498 137.634 163.698 137.589C163.927 137.537 164.071 137.31 164.019 137.081L162.482 130.271L162.455 130.189C162.374 130.009 162.174 129.904 161.974 129.949ZM158.9 116.329C158.671 116.38 158.526 116.608 158.578 116.837L160.116 123.647L160.143 123.729C160.224 123.909 160.424 124.014 160.624 123.968C160.853 123.917 160.996 123.689 160.944 123.46L159.407 116.649C159.356 116.421 159.128 116.277 158.9 116.329ZM157.041 110.026C157.093 110.255 157.32 110.398 157.549 110.347C157.778 110.295 157.922 110.068 157.87 109.839L157.041 110.026ZM155.825 102.707C155.596 102.759 155.453 102.986 155.504 103.215L157.041 110.026L157.456 109.932L157.87 109.839L156.333 103.028C156.282 102.799 156.053 102.656 155.825 102.707ZM153.967 96.4048C154.019 96.6336 154.246 96.777 154.475 96.7254C154.704 96.6737 154.847 96.4464 154.795 96.2176L153.967 96.4048ZM152.751 89.0857C152.522 89.1374 152.377 89.3657 152.429 89.5946L153.967 96.4048L154.381 96.3107L154.795 96.2176L153.258 89.4073L153.231 89.3253C153.15 89.1453 152.951 89.0407 152.751 89.0857ZM149.676 75.4652C149.447 75.517 149.303 75.7442 149.355 75.973L150.892 82.7833L150.92 82.8653C151.001 83.0452 151.2 83.1498 151.4 83.1049C151.629 83.0532 151.773 82.825 151.721 82.5961L150.183 75.7858L150.157 75.7038C150.075 75.5238 149.876 75.4201 149.676 75.4652ZM147.818 69.1628C147.87 69.3914 148.097 69.535 148.326 69.4833C148.555 69.4317 148.698 69.2043 148.646 68.9756L147.818 69.1628ZM146.602 61.8437C146.373 61.8954 146.229 62.1227 146.28 62.3516L147.818 69.1628L148.232 69.0687L148.646 68.9756L147.109 62.1643C147.058 61.9356 146.83 61.7922 146.602 61.8437ZM144.743 55.5413C144.795 55.77 145.022 55.9133 145.251 55.8619C145.48 55.8102 145.624 55.5829 145.572 55.354L144.743 55.5413ZM143.527 48.2222C143.298 48.274 143.154 48.5022 143.206 48.731L144.743 55.5413L145.158 55.4472L145.572 55.354L144.034 48.5438L144.008 48.4617C143.927 48.2816 143.727 48.177 143.527 48.2222ZM140.9 38.5142L141.669 41.9198L141.696 42.0018C141.777 42.1819 141.977 42.2865 142.177 42.2413C142.406 42.1896 142.549 41.9614 142.497 41.7325L141.729 38.3279L140.9 38.5142Z" fill="#0B4D5E"/>
<path d="M186.778 188.909C210.379 176.104 218.449 145.214 204.804 119.912C191.158 94.6113 160.965 84.4798 137.363 97.2842C113.762 110.088 105.691 140.98 119.337 166.281C132.982 191.582 163.176 201.713 186.778 188.909Z" fill="#0B4D5E"/>
<path d="M204.63 119.239C190.796 94.3 160.791 84.3815 137.283 97.1353C113.775 109.889 105.629 140.505 118.87 165.766L119.187 166.361C132.872 191.736 163.166 201.912 186.859 189.058C210.551 176.204 218.638 145.206 204.954 119.832L204.63 119.239ZM137.445 97.4335C160.77 84.7791 190.578 94.6091 204.332 119.404L204.655 119.993C218.26 145.222 210.206 176.005 186.697 188.76C163.188 201.514 133.092 191.429 119.487 166.2C105.88 140.972 113.935 110.188 137.445 97.4335Z" fill="#0B4D5E"/>
<path d="M190.665 187.183C214.267 174.379 222.337 143.488 208.692 118.186C195.046 92.8855 164.853 82.754 141.251 95.5583C117.65 108.363 109.579 139.254 123.225 164.555C136.87 189.857 167.064 199.987 190.665 187.183Z" fill="#F0F4FF"/>
<path d="M208.518 117.513C194.684 92.5739 164.679 82.6554 141.171 95.4092C117.663 108.163 109.517 138.779 122.758 164.04L123.075 164.635C136.76 190.01 167.054 200.186 190.747 187.332C214.439 174.478 222.526 143.48 208.842 118.106L208.518 117.513ZM141.333 95.7075C164.658 83.0531 194.466 92.883 208.22 117.678L208.543 118.267C222.148 143.496 214.094 174.279 190.585 187.033C167.076 199.788 136.98 189.703 123.375 164.474L123.06 163.882C109.895 138.766 118.007 108.362 141.333 95.7075Z" fill="#0B4D5E"/>
<mask id="mask0_9503_9497" style="mask-type:alpha" maskUnits="userSpaceOnUse" x="116" y="90" width="100" height="103">
<path d="M190.665 187.185C214.266 174.38 222.337 143.49 208.692 118.188C195.046 92.8872 164.852 82.7557 141.251 95.56C117.65 108.364 109.579 139.256 123.224 164.557C136.869 189.858 167.064 199.989 190.665 187.185Z" fill="#0B4D5E"/>
</mask>
<g mask="url(#mask0_9503_9497)">
</g>
<mask id="mask1_9503_9497" style="mask-type:alpha" maskUnits="userSpaceOnUse" x="116" y="89" width="100" height="104">
<path d="M208.518 117.515C194.684 92.5756 164.678 82.6571 141.17 95.4109C117.662 108.165 109.517 138.78 122.758 164.042L123.075 164.637C136.759 190.012 167.053 200.188 190.747 187.333C214.439 174.479 222.526 143.482 208.842 118.108L208.518 117.515ZM141.332 95.7092C164.658 83.0548 194.466 92.8847 208.22 117.68L208.542 118.269C222.148 143.498 214.094 174.281 190.584 187.035C167.075 199.79 136.98 189.704 123.374 164.476L123.059 163.884C109.894 138.768 118.007 108.364 141.332 95.7092Z" fill="#0B4D5E"/>
</mask>
<g mask="url(#mask1_9503_9497)">
<path d="M135.13 214.839L184.944 84.9902L201.382 78.0251L236.253 187.974L135.13 214.839Z" fill="#0B4D5E"/>
<path d="M201.315 77.8689L184.878 84.8337L184.811 84.8621L184.786 84.9294L134.851 215.089L135.173 215.004L236.297 188.138L236.469 188.093L201.544 77.9734L201.487 77.7957L201.315 77.8689ZM236.037 187.854L135.408 214.589L185.079 85.1169L201.276 78.2537L236.037 187.854Z" fill="#0B4D5E"/>
</g>
<path d="M140.944 140.58C148.529 173.225 175.422 178.595 176.836 178.876L173.54 180.158C172.414 180.595 171.183 180.658 170.019 180.335C169.516 180.195 168.926 180.021 168.268 179.802C167.649 179.597 166.965 179.355 166.229 179.072C165.861 178.93 165.479 178.776 165.086 178.61C163.708 178.036 162.188 177.321 160.575 176.437C160.116 176.183 159.652 175.917 159.176 175.639C156.814 174.232 154.306 172.468 151.823 170.26C150.833 169.376 149.842 168.422 148.869 167.388C148.623 167.132 148.385 166.871 148.142 166.601C147.659 166.062 147.184 165.509 146.71 164.934C142.231 159.472 138.278 152.184 136.026 142.493C134.217 134.698 132.677 128.068 131.962 124.99C131.702 123.872 132.088 122.698 132.957 121.951L152.864 104.823C153.641 104.156 154.552 103.66 155.533 103.376L159.029 102.364L138.132 119.826C137.11 120.709 136.66 122.086 136.964 123.404L137.29 124.799C137.41 125.322 137.543 125.896 137.687 126.516C137.879 127.341 138.09 128.247 138.317 129.225C139.056 132.402 139.965 136.318 140.957 140.583L140.944 140.58Z" fill="#0B4D5E"/>
<path d="M155.486 103.212L155.112 103.332C154.25 103.634 153.449 104.096 152.753 104.693L132.846 121.822L132.68 121.975C131.934 122.713 131.586 123.77 131.753 124.807L131.796 125.028L135.86 142.531C138.047 151.944 141.837 159.1 146.159 164.522L146.579 165.042C147.054 165.619 147.531 166.174 148.015 166.714C148.259 166.984 148.498 167.248 148.746 167.506L148.747 167.505C149.724 168.543 150.717 169.5 151.71 170.386C154.201 172.602 156.719 174.373 159.089 175.785L159.09 175.785C159.567 176.065 160.032 176.331 160.493 176.586C161.707 177.251 162.869 177.822 163.957 178.308L165.02 178.767C165.414 178.933 165.798 179.087 166.168 179.23C166.537 179.372 166.894 179.504 167.235 179.626L168.214 179.963C168.545 180.073 168.859 180.172 169.153 180.261L169.973 180.498C171.098 180.81 172.283 180.773 173.383 180.397L173.602 180.316L177.442 178.823L176.87 178.709C175.477 178.432 148.819 173.113 141.173 140.808L141.185 140.812L141.123 140.545C140.131 136.28 139.222 132.363 138.483 129.187L137.853 126.478L137.456 124.761L137.13 123.366L137.083 123.129C136.895 121.947 137.329 120.744 138.242 119.956L159.138 102.494L158.982 102.2L155.486 103.212ZM138.024 119.695L138.021 119.698L137.828 119.876C136.895 120.801 136.499 122.149 136.798 123.442L137.125 124.837L137.522 126.555L138.152 129.264C138.875 132.374 139.763 136.192 140.73 140.354L140.716 140.352L140.778 140.618C147.911 171.317 172.073 177.975 176.246 178.923L173.479 180L173.273 180.075C172.238 180.43 171.122 180.465 170.065 180.171L169.251 179.936C168.96 179.848 168.649 179.749 168.322 179.641L167.35 179.307C167.011 179.186 166.657 179.055 166.29 178.913C165.924 178.772 165.543 178.618 165.152 178.454L164.097 177.998C163.016 177.515 161.863 176.949 160.658 176.289L159.966 175.899C159.734 175.767 159.499 175.631 159.262 175.492C156.908 174.091 154.409 172.332 151.936 170.133L151.196 169.459C150.457 168.772 149.72 168.044 148.993 167.271L148.992 167.27L148.629 166.884C148.51 166.754 148.39 166.622 148.269 166.488L147.551 165.671C147.314 165.394 147.078 165.112 146.842 164.826L146.425 164.31C142.134 158.928 138.367 151.818 136.191 142.455L132.128 124.952L132.089 124.753C131.94 123.824 132.251 122.877 132.919 122.217L133.067 122.08L152.974 104.951C153.639 104.381 154.403 103.94 155.225 103.653L155.58 103.539L158.3 102.751L138.024 119.695Z" fill="#0B4D5E"/>
<path d="M157.662 103.017L138.024 119.915C137.069 120.742 136.648 122.028 136.934 123.261L140.955 140.581C148.541 173.225 175.434 178.595 176.848 178.877C178.043 178.206 200.741 165.511 193.159 132.867L189.172 115.696C188.859 114.348 187.901 113.243 186.617 112.737L160.568 102.521C159.582 102.139 158.464 102.326 157.662 103.017Z" fill="#8AE5CC"/>
<path d="M160.432 102.294C159.438 101.985 158.348 102.201 157.551 102.889L137.913 119.786L137.732 119.955C136.917 120.766 136.539 121.919 136.721 123.056L136.768 123.299L140.79 140.619C148.398 173.365 175.382 178.759 176.815 179.044L176.877 179.056L176.932 179.025C177.54 178.683 183.539 175.326 188.437 167.956C193.338 160.58 197.126 149.198 193.325 132.829L189.337 115.657L189.269 115.398C188.886 114.114 187.931 113.072 186.679 112.579L160.63 102.363L160.629 102.362L160.432 102.294ZM157.774 103.146C158.527 102.496 159.578 102.32 160.506 102.679L160.506 102.68L186.556 112.895L186.557 112.894C187.711 113.35 188.591 114.312 188.943 115.495L189.007 115.735L192.993 132.905C196.773 149.18 193.004 160.467 188.153 167.767C183.421 174.888 177.652 178.227 176.819 178.697C174.833 178.296 148.59 172.687 141.121 140.543L137.1 123.223L137.056 123.003C136.88 121.9 137.285 120.781 138.136 120.044L138.136 120.043L157.773 103.146L157.774 103.146Z" fill="#0B4D5E"/>
<path d="M175.599 108.417L154.228 165.92C150.794 162.374 147.533 157.884 144.91 152.226L163.025 103.488L175.599 108.417Z" fill="#F0F4FF"/>
<path d="M162.865 103.429L144.751 152.167L144.727 152.233L144.757 152.298C147.388 157.973 150.659 162.479 154.105 166.038L154.293 166.232L154.387 165.979L175.758 108.476L175.816 108.319L175.661 108.258L163.087 103.329L162.926 103.266L162.865 103.429ZM175.383 108.513L154.164 165.605C150.824 162.116 147.657 157.723 145.095 152.217L163.125 103.708L175.383 108.513Z" fill="#0B4D5E"/>
<path d="M184.107 111.754L161.657 172.166C160.104 171.11 158.515 169.896 156.936 168.506L178.802 109.673L184.107 111.753L184.107 111.754Z" fill="#F0F4FF"/>
<path d="M178.643 109.615L156.736 168.557L156.824 168.635C158.408 170.029 160.002 171.248 161.561 172.307L161.741 172.428L184.266 111.813L184.28 111.775L184.264 111.633L178.703 109.452L178.643 109.615ZM183.891 111.849L161.574 171.902C160.112 170.898 158.62 169.755 157.137 168.455L178.902 109.894L183.891 111.849Z" fill="#0B4D5E"/>
<path d="M159.547 108.571L143.168 122.926C142.225 123.751 141.839 125.231 142.177 126.733L145.333 140.751C150.747 164.822 169.354 171.5 174.292 172.866C174.66 172.969 175.028 172.993 175.38 172.949C175.779 172.899 176.163 172.752 176.501 172.513C180.502 169.717 194.914 157.76 189.501 133.694L186.349 119.675C186.007 118.173 185.004 116.916 183.768 116.435L162.295 108.132C161.827 107.953 161.355 107.893 160.909 107.952C160.411 108.016 159.944 108.226 159.547 108.571Z" fill="#8AE5CC"/>
<path d="M160.689 107.817C160.297 107.897 159.927 108.064 159.597 108.313L159.436 108.443L159.435 108.444L143.056 122.798L142.876 122.97C142.067 123.808 141.73 125.129 141.955 126.48L142.012 126.771L145.167 140.788C150.432 164.194 168.129 171.221 173.742 172.885L174.246 173.029C174.539 173.111 174.831 173.146 175.117 173.139L175.401 173.118C175.827 173.065 176.237 172.906 176.599 172.651L176.599 172.652C180.625 169.838 195.101 157.82 189.666 133.657L186.514 119.637L186.441 119.35C186.032 117.93 185.046 116.751 183.829 116.277L162.356 107.974L162.171 107.909C161.739 107.771 161.304 107.728 160.887 107.783L160.689 107.817ZM161.088 108.105C161.457 108.081 161.845 108.141 162.234 108.29L162.233 108.291L183.706 116.594C184.881 117.051 185.851 118.256 186.183 119.713L189.335 133.731C194.557 156.951 181.255 168.84 176.805 172.086L176.403 172.373L176.283 172.454C175.998 172.63 175.683 172.74 175.359 172.781L175.109 172.799C174.856 172.805 174.597 172.775 174.337 172.703L174.337 172.702C169.425 171.342 150.893 164.694 145.499 140.714L142.343 126.696L142.343 126.695C142.036 125.329 142.351 124.005 143.12 123.207L143.28 123.054L159.658 108.7L159.801 108.584C160.141 108.329 160.525 108.172 160.93 108.12L161.088 108.105Z" fill="#0B4D5E"/>
<path d="M189.496 133.698C193.095 149.699 187.927 160.349 182.886 166.509C187.465 160.035 191.433 149.768 188.126 135.056L184.915 120.782C184.57 119.254 183.547 117.969 182.288 117.482L160.429 109.03C160.033 108.878 159.63 108.814 159.245 108.832L159.542 108.572C159.938 108.227 160.406 108.017 160.904 107.952C161.35 107.894 161.822 107.954 162.29 108.133L183.763 116.436C185.004 116.912 186.002 118.174 186.344 119.676L189.496 133.694L189.497 133.699L189.496 133.698Z" fill="#0B4D5E"/>
<path d="M160.882 107.783C160.417 107.843 159.976 108.023 159.592 108.313L159.43 108.444L159.133 108.705L158.767 109.024L159.253 109.002C159.524 108.989 159.805 109.02 160.086 109.097L160.368 109.189L182.226 117.64C183.349 118.074 184.29 119.186 184.679 120.545L184.749 120.819L187.96 135.093C191.255 149.754 187.302 159.972 182.747 166.411L183.017 166.616C188.084 160.425 193.271 149.727 189.665 133.676L189.664 133.666L189.662 133.657L186.51 119.638L186.436 119.351C186.055 118.025 185.174 116.905 184.065 116.381L183.824 116.277L162.351 107.974L162.35 107.974L162.166 107.91C161.735 107.772 161.3 107.73 160.883 107.784L160.882 107.783ZM161.084 108.106C161.453 108.082 161.841 108.142 162.229 108.291L162.229 108.292L183.702 116.594C184.88 117.046 185.846 118.256 186.178 119.714L189.225 133.264L189.223 133.263L189.33 133.736C192.234 146.645 189.41 156.049 185.569 162.412C188.892 155.954 190.97 146.936 188.291 135.019L185.08 120.745L185.006 120.452C184.593 119.008 183.587 117.803 182.349 117.324L160.49 108.872L160.489 108.872L160.333 108.816C160.117 108.745 159.899 108.699 159.683 108.676C160.048 108.367 160.474 108.179 160.926 108.12L161.084 108.106Z" fill="#0B4D5E"/>
<path d="M172.679 160.946L157.898 149.006C157.67 148.83 157.501 148.644 157.391 148.449C157.281 148.253 157.205 148.025 157.164 147.762L156.985 146.629C156.905 146.115 157.015 145.629 157.318 145.171C157.622 144.711 158.023 144.438 158.521 144.353L163.351 143.529C164.881 143.268 166.29 142.531 167.577 141.31C168.879 140.074 169.397 138.461 169.115 136.481L156.049 139.032C155.533 139.133 155.06 139.022 154.632 138.7C154.204 138.379 153.948 137.945 153.861 137.396C153.775 136.846 153.879 136.333 154.177 135.857C154.477 135.379 154.88 135.085 155.39 134.976L168.293 132.225C167.47 130.844 166.464 129.93 165.28 129.486C164.107 129.045 162.73 129.01 161.159 129.373L154.733 130.861C154.242 130.975 153.782 130.876 153.351 130.566C152.922 130.256 152.664 129.826 152.576 129.273C152.488 128.72 152.593 128.198 152.891 127.705C153.19 127.211 153.595 126.9 154.105 126.772L173.849 121.84C174.454 121.689 175.01 121.777 175.517 122.103C176.026 122.431 176.327 122.901 176.418 123.512C176.508 124.124 176.367 124.704 175.995 125.25C175.625 125.795 175.136 126.137 174.53 126.277L169.122 127.529C169.929 127.842 170.676 128.325 171.361 128.978C172.048 129.633 172.509 130.399 172.741 131.277L175.2 130.753C175.806 130.624 176.361 130.729 176.863 131.07C177.366 131.412 177.664 131.887 177.754 132.495C177.845 133.103 177.702 133.671 177.329 134.199C176.958 134.724 176.468 135.046 175.861 135.164L173.459 135.634C173.722 138.685 172.882 141.372 170.968 143.67C169.088 145.925 166.774 147.248 164.043 147.666L162.753 147.863L175.306 157.699C176.141 158.33 176.432 159.093 176.176 159.983C175.92 160.87 175.304 161.357 174.334 161.447C174.003 161.478 173.701 161.446 173.427 161.353C173.154 161.261 172.905 161.126 172.679 160.948L172.679 160.946Z" fill="#0B4D5E"/>
<path d="M174.049 121.627C174.606 121.541 175.13 121.651 175.609 121.96L175.806 122.1C176.239 122.445 176.5 122.911 176.586 123.488C176.671 124.062 176.565 124.611 176.273 125.127L176.135 125.346C175.791 125.852 175.347 126.197 174.806 126.376L174.568 126.443L169.657 127.579C170.306 127.892 170.914 128.317 171.479 128.855L171.734 129.114C172.265 129.69 172.638 130.346 172.857 131.078L175.165 130.586L175.406 130.547C175.965 130.481 176.485 130.608 176.959 130.93L177.151 131.074C177.578 131.43 177.837 131.897 177.922 132.47C178.008 133.042 177.9 133.582 177.606 134.084L177.468 134.297C177.122 134.787 176.675 135.114 176.132 135.273L175.894 135.332L173.637 135.771C173.85 138.611 173.114 141.142 171.45 143.336L171.098 143.778C169.312 145.921 167.134 147.238 164.583 147.743L164.069 147.834L163.166 147.971L175.408 157.563L175.566 157.689C175.919 157.986 176.17 158.318 176.309 158.684C176.449 159.051 176.472 159.442 176.384 159.853L176.339 160.03C176.204 160.501 175.968 160.878 175.628 161.147C175.332 161.382 174.965 161.529 174.536 161.593L174.349 161.616C173.998 161.649 173.672 161.615 173.373 161.514C173.082 161.415 172.815 161.271 172.574 161.081L172.528 161.045L172.527 161.042L157.794 149.14L157.624 148.997C157.518 148.9 157.425 148.8 157.347 148.694L157.243 148.532C157.122 148.316 157.039 148.068 156.996 147.787L156.817 146.655L156.794 146.448C156.763 145.966 156.892 145.507 157.176 145.076L157.304 144.9C157.615 144.509 158.012 144.267 158.493 144.186L163.322 143.362L163.601 143.308C164.987 143.015 166.274 142.312 167.46 141.186L167.687 140.958C168.742 139.834 169.173 138.413 168.967 136.681L156.081 139.199C155.587 139.295 155.126 139.213 154.706 138.957L154.53 138.836C154.066 138.488 153.786 138.014 153.693 137.422C153.6 136.832 153.714 136.277 154.033 135.767L154.159 135.583C154.466 135.175 154.866 134.914 155.355 134.81L168.022 132.109C167.289 130.948 166.424 130.16 165.432 129.731L165.221 129.645C164.158 129.246 162.912 129.186 161.485 129.476L161.198 129.539L154.771 131.027C154.229 131.153 153.719 131.04 153.252 130.703C152.783 130.366 152.503 129.894 152.408 129.3C152.314 128.706 152.427 128.142 152.745 127.617L152.872 127.428C153.178 127.007 153.576 126.729 154.064 126.607L173.808 121.675L174.049 121.627ZM154.147 126.937C153.742 127.038 153.409 127.266 153.145 127.629L153.037 127.793C152.759 128.252 152.662 128.734 152.744 129.246C152.815 129.693 153.004 130.047 153.312 130.317L153.451 130.427C153.844 130.711 154.255 130.798 154.694 130.696L161.121 129.208L161.418 129.144C162.891 128.845 164.204 128.9 165.34 129.327L165.568 129.419C166.697 129.908 167.654 130.82 168.44 132.138L168.561 132.342L168.329 132.392L155.426 135.142C155.023 135.228 154.692 135.441 154.43 135.789L154.322 135.947C154.046 136.388 153.949 136.86 154.029 137.369C154.109 137.877 154.343 138.271 154.734 138.564L154.882 138.666C155.231 138.88 155.607 138.945 156.016 138.865L169.083 136.314L169.258 136.279L169.284 136.457C169.554 138.358 169.104 139.944 167.937 141.188L167.694 141.434C166.468 142.597 165.126 143.333 163.672 143.64L163.379 143.697L158.55 144.52C158.158 144.587 157.832 144.781 157.569 145.114L157.46 145.264C157.214 145.637 157.107 146.022 157.134 146.427L157.153 146.603L157.332 147.735C157.37 147.981 157.44 148.191 157.539 148.366L157.621 148.493C157.684 148.578 157.761 148.662 157.853 148.746L158.002 148.871L158.005 148.874L172.785 160.814L172.795 160.821C173.003 160.983 173.231 161.107 173.482 161.192C173.73 161.276 174.008 161.306 174.318 161.277L174.486 161.257C174.868 161.199 175.176 161.072 175.418 160.88C175.692 160.662 175.893 160.351 176.012 159.936L176.052 159.782C176.128 159.428 176.105 159.103 175.991 158.804C175.861 158.46 175.603 158.136 175.204 157.834L175.202 157.833L162.648 147.997L162.338 147.754L164.017 147.498L164.516 147.41C166.988 146.92 169.099 145.646 170.837 143.561L171.178 143.133C172.821 140.967 173.533 138.467 173.289 135.648L173.276 135.497L173.426 135.468L175.829 134.998L176.034 134.947C176.502 134.811 176.886 134.53 177.19 134.1L177.311 133.913C177.569 133.474 177.659 133.012 177.586 132.521C177.513 132.029 177.296 131.635 176.932 131.334L176.767 131.211C176.362 130.936 175.923 130.827 175.443 130.884L175.236 130.919L172.776 131.443L172.618 131.477L172.576 131.32C172.38 130.58 172.016 129.922 171.483 129.344L171.243 129.101C170.573 128.462 169.845 127.992 169.06 127.687L168.546 127.488L169.083 127.363L174.492 126.112L174.697 126.054C175.165 125.899 175.55 125.602 175.854 125.155L175.976 124.961C176.234 124.506 176.323 124.033 176.249 123.537C176.176 123.044 175.957 122.656 175.591 122.365L175.426 122.246C174.96 121.946 174.452 121.865 173.89 122.005L154.147 126.937Z" fill="#0B4D5E"/>
<path d="M174.378 159.247L159.598 147.307C159.37 147.13 159.2 146.944 159.09 146.75C158.98 146.554 158.904 146.326 158.863 146.062L158.685 144.929C158.604 144.415 158.715 143.93 159.018 143.471C159.321 143.011 159.722 142.738 160.221 142.653L165.05 141.83C166.58 141.569 167.99 140.831 169.277 139.611C170.579 138.374 171.096 136.761 170.815 134.781L157.748 137.333C157.232 137.433 156.76 137.323 156.331 137.001C155.904 136.68 155.647 136.246 155.561 135.696C155.474 135.147 155.579 134.634 155.877 134.158C156.176 133.679 156.58 133.385 157.09 133.276L169.993 130.525C169.169 129.144 168.163 128.231 166.98 127.787C165.807 127.346 164.43 127.31 162.859 127.674L156.432 129.162C155.942 129.276 155.481 129.177 155.051 128.866C154.621 128.557 154.364 128.126 154.275 127.573C154.187 127.02 154.293 126.498 154.59 126.006C154.89 125.512 155.294 125.2 155.805 125.073L175.549 120.141C176.154 119.99 176.71 120.077 177.217 120.404C177.726 120.731 178.027 121.201 178.117 121.813C178.208 122.425 178.067 123.005 177.695 123.551C177.324 124.096 176.836 124.437 176.23 124.578L170.821 125.83C171.629 126.143 172.375 126.625 173.061 127.278C173.748 127.934 174.208 128.7 174.44 129.577L176.899 129.053C177.506 128.924 178.061 129.029 178.562 129.371C179.066 129.712 179.363 130.188 179.454 130.796C179.545 131.403 179.402 131.971 179.029 132.499C178.658 133.025 178.168 133.346 177.561 133.465L175.158 133.934C175.422 136.986 174.582 139.673 172.667 141.971C170.788 144.225 168.473 145.549 165.742 145.966L164.452 146.164L177.006 155.999C177.841 156.63 178.132 157.393 177.875 158.283C177.62 159.17 177.004 159.658 176.033 159.747C175.703 159.778 175.4 159.746 175.127 159.654C174.854 159.561 174.605 159.426 174.379 159.249L174.378 159.247Z" fill="#F0F4FF"/>
<path d="M175.748 119.927C176.306 119.841 176.829 119.952 177.309 120.26L177.505 120.401C177.938 120.746 178.2 121.212 178.285 121.788C178.371 122.363 178.264 122.911 177.972 123.427L177.835 123.646C177.491 124.152 177.047 124.497 176.506 124.677L176.268 124.744L171.357 125.879C172.006 126.193 172.614 126.618 173.178 127.155L173.433 127.414C173.965 127.991 174.338 128.646 174.557 129.378L176.864 128.887L177.106 128.847C177.664 128.781 178.185 128.909 178.658 129.23L178.851 129.375C179.278 129.73 179.536 130.198 179.622 130.771C179.707 131.342 179.599 131.882 179.306 132.384L179.168 132.597C178.822 133.087 178.375 133.414 177.832 133.574L177.594 133.632L175.337 134.072C175.55 136.912 174.814 139.442 173.149 141.637L172.797 142.079C171.012 144.221 168.834 145.538 166.283 146.044L165.768 146.134L164.866 146.272L177.108 155.864L177.265 155.989C177.618 156.287 177.869 156.618 178.009 156.984C178.148 157.351 178.172 157.743 178.084 158.153L178.039 158.331C177.903 158.802 177.667 159.178 177.328 159.448C177.031 159.683 176.665 159.829 176.236 159.894L176.049 159.917C175.698 159.949 175.372 159.915 175.073 159.815C174.781 159.716 174.515 159.571 174.274 159.382L174.227 159.346L174.226 159.342L159.493 147.441L159.324 147.298C159.217 147.201 159.124 147.1 159.047 146.995L158.943 146.833C158.821 146.617 158.739 146.368 158.695 146.088L158.517 144.956L158.494 144.748C158.463 144.266 158.591 143.808 158.876 143.377L159.004 143.201C159.315 142.81 159.712 142.568 160.192 142.486L165.021 141.662L165.3 141.608C166.686 141.315 167.973 140.613 169.16 139.487L169.386 139.259C170.441 138.135 170.873 136.713 170.667 134.982L157.781 137.499C157.287 137.596 156.826 137.514 156.406 137.257L156.229 137.137C155.765 136.788 155.486 136.314 155.393 135.723C155.3 135.133 155.414 134.578 155.733 134.067L155.859 133.884C156.166 133.476 156.565 133.215 157.055 133.11L169.722 130.409C168.989 129.249 168.123 128.461 167.132 128.032L166.92 127.946C165.857 127.546 164.612 127.487 163.184 127.777L162.897 127.84L156.47 129.327C155.929 129.453 155.419 129.341 154.951 129.003C154.483 128.666 154.203 128.195 154.108 127.6C154.013 127.006 154.127 126.443 154.445 125.917L154.571 125.728C154.877 125.307 155.275 125.029 155.764 124.907L175.508 119.976L175.748 119.927ZM155.846 125.237C155.441 125.338 155.108 125.566 154.844 125.93L154.736 126.093C154.458 126.553 154.362 127.035 154.444 127.547C154.515 127.994 154.704 128.348 155.011 128.617L155.15 128.728C155.543 129.011 155.954 129.098 156.394 128.996L162.821 127.508L163.118 127.444C164.591 127.145 165.903 127.201 167.04 127.628L167.268 127.72C168.396 128.208 169.354 129.121 170.139 130.438L170.261 130.642L170.029 130.692L157.126 133.443C156.722 133.529 156.391 133.741 156.129 134.09L156.021 134.247C155.745 134.689 155.648 135.161 155.728 135.669C155.808 136.177 156.043 136.571 156.433 136.865L156.581 136.966C156.93 137.18 157.306 137.245 157.716 137.166L170.782 134.615L170.958 134.58L170.983 134.757C171.254 136.658 170.803 138.245 169.636 139.489L169.394 139.734C168.168 140.897 166.826 141.633 165.371 141.941L165.078 141.997L160.25 142.821C159.858 142.888 159.532 143.082 159.268 143.414L159.16 143.565C158.914 143.937 158.807 144.323 158.834 144.728L158.853 144.903L159.031 146.035C159.07 146.282 159.14 146.491 159.238 146.667L159.321 146.793C159.383 146.878 159.46 146.963 159.552 147.047L159.702 147.172L159.705 147.174L174.485 159.114L174.495 159.122C174.703 159.284 174.931 159.407 175.181 159.492C175.429 159.576 175.708 159.606 176.017 159.578L176.185 159.557C176.567 159.5 176.876 159.372 177.117 159.181C177.392 158.963 177.592 158.652 177.712 158.236L177.751 158.082C177.827 157.728 177.805 157.404 177.691 157.105C177.56 156.761 177.303 156.436 176.904 156.135L176.901 156.133L164.347 146.298L164.038 146.055L165.716 145.798L166.216 145.71C168.688 145.221 170.798 143.947 172.536 141.862L172.877 141.433C174.521 139.267 175.233 136.768 174.989 133.949L174.976 133.797L175.125 133.768L177.528 133.298L177.733 133.248C178.202 133.111 178.586 132.831 178.89 132.401L179.011 132.214C179.268 131.775 179.359 131.312 179.286 130.821C179.212 130.33 178.995 129.936 178.632 129.634L178.467 129.511C178.062 129.236 177.623 129.127 177.143 129.185L176.935 129.219L174.476 129.743L174.317 129.777L174.276 129.62C174.08 128.881 173.716 128.223 173.182 127.644L172.943 127.402C172.272 126.763 171.544 126.292 170.759 125.988L170.246 125.789L170.783 125.664L176.191 124.413L176.397 124.354C176.865 124.199 177.25 123.903 177.554 123.455L177.675 123.262C177.933 122.807 178.022 122.334 177.949 121.838C177.876 121.344 177.657 120.956 177.29 120.665L177.125 120.546C176.659 120.247 176.151 120.166 175.59 120.306L155.846 125.237Z" fill="#0B4D5E"/>
<path d="M221.749 168.361C220.984 167.921 221.039 166.392 221.871 164.946C222.703 163.501 223.997 162.685 224.762 163.125L233.764 165.591C235.133 166.378 235.035 169.116 233.545 171.706C232.054 174.297 229.736 175.756 228.367 174.968L221.749 168.361Z" fill="#F35F5F"/>
<path d="M224.762 163.125C223.997 162.685 222.703 163.501 221.871 164.947C221.04 166.392 220.984 167.92 221.748 168.361L228.367 174.968L228.498 175.035C229.791 175.623 231.818 174.394 233.256 172.179L233.544 171.706C234.988 169.197 235.126 166.55 233.888 165.67L233.764 165.591L224.762 163.125ZM223.523 163.617C224.005 163.313 224.373 163.294 224.592 163.42L224.63 163.442L224.672 163.453L233.625 165.905C234.128 166.215 234.424 166.923 234.387 167.96C234.35 169.001 233.974 170.28 233.25 171.537C232.527 172.794 231.61 173.762 230.729 174.317C229.851 174.87 229.09 174.968 228.569 174.689L221.957 168.089L221.918 168.067C221.699 167.94 221.531 167.613 221.551 167.043C221.571 166.491 221.772 165.801 222.165 165.117C222.559 164.432 223.055 163.911 223.523 163.617Z" fill="#0B4D5E"/>
<path d="M78.9813 242.045L81.6301 224.387L111.527 257.951L76.669 257.46L78.0395 248.323L84.3251 247.256C84.3251 247.256 80.3039 245.191 78.9813 242.045Z" fill="#F35F5F"/>
<path d="M78.8132 242.02L78.8064 242.066L78.8249 242.11C79.503 243.723 80.8657 245.049 82.0446 245.965C82.636 246.424 83.1858 246.784 83.5876 247.029C83.6738 247.082 83.7552 247.126 83.8269 247.168L78.0114 248.156L77.8894 248.177L77.8718 248.298L76.5007 257.435L76.4724 257.627L111.525 258.121L111.911 258.127L81.5153 224.003L78.8132 242.02ZM111.143 257.775L76.8659 257.292L78.1901 248.47L84.3532 247.424L84.8571 247.339L84.403 247.105L84.4021 247.104L84.3923 247.1C84.3851 247.096 84.3744 247.09 84.3601 247.082C84.3311 247.067 84.2875 247.044 84.2321 247.013C84.1214 246.951 83.9609 246.859 83.7644 246.739C83.3709 246.499 82.8326 246.146 82.2536 245.696C81.1015 244.801 79.8073 243.534 79.1569 242.019L81.7448 224.771L111.143 257.775Z" fill="#0B4D5E"/>
<path d="M228.366 174.967C226.997 174.179 227.095 171.44 228.585 168.851C230.075 166.262 232.394 164.801 233.763 165.59C235.133 166.378 235.035 169.116 233.545 171.705C232.054 174.295 229.736 175.755 228.366 174.967Z" fill="#0B4D5E"/>
<path d="M228.879 169.021C229.602 167.764 230.519 166.796 231.401 166.241C232.297 165.677 233.072 165.584 233.594 165.884C234.115 166.184 234.425 166.901 234.387 167.96C234.35 169.001 233.973 170.28 233.25 171.536C232.527 172.793 231.61 173.76 230.729 174.315C229.833 174.879 229.058 174.972 228.536 174.672L228.366 174.967L228.498 175.034C229.791 175.622 231.818 174.392 233.256 172.178L233.545 171.706C235.035 169.116 235.133 166.378 233.763 165.59L233.632 165.522C232.25 164.894 230.028 166.343 228.585 168.851L228.322 169.338C227.088 171.775 227.083 174.228 228.366 174.967L228.536 174.672C228.014 174.372 227.705 173.655 227.743 172.597C227.78 171.556 228.156 170.277 228.879 169.021Z" fill="#0B4D5E"/>
<path d="M110.076 257.929C111.7 257.953 113.328 258.08 114.885 257.409C115.859 256.989 116.672 256.404 117.291 255.536C118.494 253.854 118.727 251.959 118.688 249.951C118.638 247.315 117.899 244.86 116.98 242.433C116.222 240.434 115.249 238.537 114.157 236.709C112.956 234.698 111.613 232.78 110.146 230.945C108.756 229.205 107.248 227.576 105.681 226.003C104.672 224.99 103.554 224.082 102.457 223.16C101.102 222.022 99.6561 220.991 98.1365 220.099C96.5559 219.172 94.9284 218.317 93.1664 217.728C91.47 217.16 89.7695 216.747 87.975 216.829C85.9841 216.921 84.2851 217.659 83.0794 219.28C82.5604 219.977 82.2174 220.801 82.0232 221.67C81.8227 222.568 81.6634 223.471 81.6297 224.393C81.6742 224.657 81.7414 224.921 81.7585 225.187C81.8236 226.188 81.9253 227.186 82.1618 228.159C82.6094 229.998 83.1983 231.793 83.9643 233.526C85.068 236.024 86.4214 238.382 87.9459 240.644C88.4825 241.303 88.9686 242.003 89.468 242.686C90.8087 244.523 92.3268 246.197 93.8716 247.857C94.4205 248.446 95.9253 249.796 96.0787 249.935C97.9977 251.686 100.022 253.297 102.27 254.612C104.3 255.824 106.982 257.292 110.077 257.93L110.076 257.929Z" fill="#F8DCDC"/>
<path d="M92.5799 217.36C91.0836 216.899 89.5643 216.586 87.9673 216.659L87.5899 216.684C85.7186 216.85 84.1071 217.614 82.943 219.179L82.7504 219.454C82.3216 220.111 82.031 220.856 81.8574 221.633L81.7152 222.312C81.5831 222.994 81.4852 223.684 81.4595 224.386L81.4595 224.404L81.4615 224.421C81.4974 224.634 81.5425 224.821 81.5693 225.009L81.5891 225.198C81.6462 226.076 81.7316 226.959 81.9128 227.827L81.9963 228.199C82.3897 229.816 82.8921 231.399 83.5277 232.938L83.809 233.595C84.9175 236.104 86.2757 238.471 87.8047 240.74L87.8096 240.745L87.8144 240.752C88.0808 241.079 88.3343 241.416 88.5841 241.757L89.3307 242.787C90.3411 244.171 91.451 245.462 92.5947 246.722L93.7469 247.973C94.3021 248.569 95.8145 249.926 95.9641 250.061L95.9652 250.061C97.8891 251.816 99.9226 253.435 102.184 254.758L102.183 254.759C104.215 255.972 106.919 257.452 110.043 258.097L110.471 258.185L110.415 258.105C111.815 258.135 113.257 258.196 114.651 257.685L114.952 257.565C115.887 257.162 116.683 256.607 117.307 255.799L117.43 255.634C118.664 253.908 118.897 251.969 118.858 249.947L118.841 249.45C118.714 246.972 118.003 244.653 117.139 242.373L116.843 241.624C116.131 239.887 115.262 238.227 114.303 236.622L113.844 235.869C112.759 234.124 111.566 232.45 110.279 230.839L109.75 230.19C108.505 228.685 107.175 227.262 105.802 225.883L105.415 225.505C104.505 224.635 103.524 223.834 102.567 223.03L102.052 222.606C100.84 221.629 99.5601 220.737 98.2229 219.952L97.6251 219.608C96.2257 218.812 94.7764 218.088 93.2206 217.567L92.5799 217.36ZM87.9829 216.999C89.5259 216.928 91.0028 217.23 92.4791 217.685L93.1123 217.889C94.6396 218.4 96.0677 219.112 97.457 219.902L98.05 220.246C99.372 221.022 100.639 221.904 101.838 222.871L102.348 223.291C103.311 224.1 104.281 224.891 105.18 225.75L105.561 226.123C106.929 227.496 108.251 228.912 109.488 230.406L110.013 231.051C111.292 232.652 112.478 234.316 113.556 236.049L114.011 236.796C114.963 238.39 115.824 240.035 116.529 241.753L116.821 242.494C117.681 244.763 118.377 247.043 118.502 249.467L118.518 249.954C118.557 251.949 118.324 253.799 117.153 255.437L116.92 255.738C116.356 256.414 115.65 256.894 114.817 257.253L114.533 257.366C113.109 257.889 111.627 257.782 110.093 257.758C107.036 257.124 104.38 255.674 102.357 254.467L102.357 254.466L101.94 254.217C99.8701 252.957 97.9873 251.447 96.1933 249.81L95.2387 248.94C94.777 248.514 94.2668 248.032 93.9955 247.741C92.4512 246.082 90.939 244.414 89.6049 242.586L88.8584 241.555C88.6075 241.213 88.3518 240.872 88.0833 240.542C86.5654 238.288 85.2178 235.942 84.12 233.458L83.8424 232.809C83.214 231.287 82.7164 229.72 82.3266 228.118L82.2452 227.758C82.0689 226.913 81.9851 226.049 81.9283 225.177L81.906 224.967C81.8774 224.765 81.8322 224.564 81.8013 224.385C81.827 223.71 81.9199 223.043 82.0489 222.377L82.1886 221.707C82.3549 220.963 82.6321 220.257 83.0353 219.64L83.2162 219.381C84.3128 217.907 85.8288 217.182 87.6204 217.023L87.9829 216.999Z" fill="#0B4D5E"/>
<path d="M110.147 230.947C111.614 232.782 112.957 234.7 114.158 236.711C115.25 238.539 116.224 240.436 116.981 242.435C117.9 244.862 118.639 247.317 118.689 249.953C118.727 251.961 118.495 253.855 117.292 255.537C116.672 256.405 115.86 256.991 114.886 257.411C113.328 258.081 111.7 257.955 110.077 257.931C107.555 257.598 104.3 255.825 102.27 254.613C101.827 254.354 101.394 254.08 100.967 253.798L98.2198 239.488L109.577 230.257C109.768 230.487 109.961 230.714 110.148 230.947L110.147 230.947Z" fill="#0B4D5E"/>
<path d="M109.47 230.125L98.1122 239.356L98.0341 239.42L98.053 239.521L100.8 253.831L100.813 253.901L100.873 253.941C101.302 254.223 101.738 254.497 102.184 254.759L102.183 254.76C103.201 255.367 104.528 256.116 105.918 256.756C107.306 257.395 108.769 257.93 110.055 258.1L110.064 258.101L110.074 258.101C111.581 258.123 113.145 258.239 114.653 257.686L114.953 257.567C115.887 257.165 116.683 256.609 117.308 255.802L117.43 255.637C118.664 253.911 118.897 251.971 118.859 249.95L118.841 249.452C118.714 246.975 118.004 244.655 117.139 242.375L116.844 241.626C116.132 239.889 115.262 238.229 114.304 236.625L113.846 235.872C112.837 234.251 111.735 232.692 110.552 231.188L110.558 231.188L110.281 230.841L109.707 230.148L109.6 230.019L109.47 230.125ZM109.99 231.021L110.014 231.053C111.294 232.654 112.479 234.318 113.557 236.051L114.012 236.799C114.964 238.393 115.825 240.038 116.529 241.755L116.821 242.495C117.739 244.916 118.47 247.35 118.519 249.957C118.557 251.951 118.324 253.802 117.153 255.439L116.921 255.741C116.356 256.416 115.651 256.896 114.819 257.255L114.534 257.368C113.109 257.891 111.626 257.785 110.094 257.762C108.859 257.597 107.435 257.081 106.06 256.448C104.685 255.815 103.37 255.072 102.358 254.467L102.356 254.467L101.703 254.07C101.507 253.947 101.313 253.821 101.12 253.694L98.4065 239.556L109.553 230.495C109.701 230.671 109.847 230.844 109.99 231.021Z" fill="#0B4D5E"/>
<path d="M101.007 253.858L76.6687 257.462L111.527 257.954L101.007 253.858Z" fill="#0B4D5E"/>
<path d="M100.982 253.69L76.6434 257.294L76.666 257.632L111.524 258.124L111.589 257.796L101.068 253.7L101.027 253.683L100.982 253.69ZM110.589 257.77L78.7744 257.321L100.989 254.033L110.589 257.77Z" fill="#0B4D5E"/>
<path d="M78.0854 248.468C78.0503 248.229 79.5257 247.814 81.3809 247.541C83.2361 247.268 84.7685 247.24 84.8037 247.479C84.8388 247.718 83.3634 248.133 81.5082 248.406C79.653 248.679 78.1206 248.707 78.0854 248.468Z" fill="#0B4D5E"/>
<path d="M81.4054 247.708C82.3279 247.573 83.1673 247.499 83.7774 247.488C84.0836 247.482 84.3258 247.492 84.4895 247.517C84.4976 247.518 84.5054 247.521 84.513 247.522C84.5062 247.526 84.499 247.529 84.4917 247.533C84.3421 247.603 84.1132 247.683 83.8184 247.766C83.2309 247.931 82.4058 248.102 81.4833 248.238C80.5606 248.374 79.7213 248.448 79.1112 248.459C78.805 248.464 78.5628 248.454 78.3992 248.429C78.3915 248.428 78.3841 248.427 78.3769 248.426C78.3836 248.422 78.3897 248.417 78.3969 248.414C78.5465 248.343 78.7754 248.263 79.0703 248.18C79.6577 248.015 80.4827 247.844 81.4054 247.708ZM81.3559 247.372C80.4237 247.509 79.5839 247.683 78.9787 247.853C78.6773 247.938 78.427 248.024 78.252 248.106C78.1656 248.147 78.0875 248.192 78.03 248.242C77.9817 248.283 77.8989 248.37 77.9169 248.492C77.935 248.615 78.0394 248.675 78.0976 248.701C78.1668 248.731 78.2545 248.751 78.3489 248.765C78.5405 248.794 78.8047 248.804 79.1178 248.798C79.7464 248.787 80.6006 248.711 81.5328 248.574C82.4652 248.437 83.3056 248.263 83.9109 248.093C84.2121 248.008 84.4616 247.923 84.6367 247.84C84.723 247.799 84.8013 247.755 84.8587 247.706C84.907 247.664 84.9899 247.577 84.9718 247.454L84.9615 247.411C84.9287 247.317 84.8421 247.269 84.7912 247.247C84.722 247.216 84.6342 247.195 84.5397 247.181C84.3482 247.152 84.0846 247.142 83.7718 247.148C83.1431 247.159 82.2883 247.235 81.3559 247.372Z" fill="#0B4D5E"/>
<path d="M99.8173 236.65C95.9232 231.455 93.5623 226.647 94.5441 225.911C95.5258 225.175 99.4784 228.79 103.372 233.985C107.267 239.181 109.627 243.989 108.646 244.724C107.664 245.46 103.711 241.845 99.8173 236.65Z" fill="#F35F5F"/>
<path d="M94.6459 226.047C94.7162 225.994 94.8304 225.966 95.0147 226C95.1987 226.034 95.4309 226.126 95.7078 226.28C96.2603 226.587 96.9569 227.122 97.7516 227.849C99.3393 229.301 101.294 231.496 103.237 234.087C105.179 236.679 106.737 239.171 107.685 241.102C108.16 242.069 108.478 242.888 108.618 243.504C108.688 243.813 108.711 244.061 108.692 244.247C108.672 244.434 108.614 244.536 108.544 244.589C108.473 244.641 108.359 244.668 108.175 244.634C107.991 244.6 107.759 244.509 107.483 244.355C106.93 244.048 106.234 243.513 105.439 242.786C103.851 241.334 101.896 239.14 99.953 236.549C98.0103 233.957 96.4534 231.465 95.5051 229.533C95.0303 228.566 94.7122 227.748 94.5724 227.131C94.5023 226.822 94.479 226.574 94.4982 226.387C94.5174 226.201 94.5758 226.1 94.6459 226.047ZM94.4421 225.775C94.2672 225.906 94.1843 226.116 94.1599 226.353C94.1354 226.591 94.1666 226.88 94.2407 227.206C94.3891 227.861 94.7204 228.706 95.1997 229.683C96.1599 231.638 97.7297 234.149 99.6811 236.752C101.632 239.356 103.601 241.566 105.209 243.036C106.012 243.771 106.731 244.326 107.317 244.652C107.61 244.815 107.878 244.925 108.113 244.969C108.348 245.012 108.572 244.992 108.747 244.861C108.923 244.729 109.005 244.519 109.03 244.282C109.054 244.044 109.024 243.755 108.95 243.429C108.801 242.775 108.469 241.928 107.99 240.952C107.03 238.996 105.46 236.487 103.508 233.884C101.557 231.28 99.5884 229.068 97.9808 227.598C97.1783 226.864 96.4593 226.309 95.8731 225.983C95.5805 225.82 95.3117 225.709 95.0765 225.666C94.8416 225.623 94.6172 225.644 94.4421 225.775Z" fill="#0B4D5E"/>
<path d="M94.3416 226.3L94.4901 225.965C94.4901 225.965 94.497 225.958 94.5001 225.955L95.2167 229.324C94.5646 227.946 94.2439 226.879 94.3416 226.3Z" fill="#F35F5F"/>
<path d="M94.3756 225.839L94.3718 225.844L94.3488 225.863L94.3345 225.895L94.1863 226.231L94.1771 226.25L94.1736 226.271C94.1182 226.6 94.1841 227.042 94.3354 227.56C94.4882 228.083 94.7346 228.703 95.0629 229.397L95.383 229.288L94.5947 225.582L94.3756 225.839ZM94.5845 227.166C94.5737 227.12 94.565 227.075 94.5563 227.032L94.5845 227.166Z" fill="#0B4D5E"/>
<path d="M99.8164 236.653C103.711 241.848 107.663 245.463 108.645 244.727L108.644 244.728C108.68 244.7 108.67 244.709 108.628 244.743L122.842 234.061L122.412 229.362C122.412 229.362 124.436 230.729 126.988 230.944L126.862 231.04L134.98 224.939L120.91 206.099L94.5413 225.916C94.5295 225.925 94.5197 225.935 94.5098 225.946C94.5061 225.95 94.5023 225.954 94.4984 225.958L95.215 229.328C96.153 231.308 97.7725 233.927 99.8164 236.653Z" fill="#0B4D5E"/>
<path d="M94.4389 225.78L94.3852 225.83L94.3774 225.839L94.313 225.904L94.3325 225.994L95.0483 229.363L95.0532 229.382L95.061 229.4C95.8873 231.144 97.2358 233.375 98.9321 235.736L99.6802 236.755C101.632 239.359 103.601 241.569 105.208 243.04C106.011 243.773 106.73 244.329 107.316 244.655C107.609 244.817 107.878 244.928 108.113 244.971C108.339 245.013 108.555 244.994 108.727 244.875L108.73 244.879L122.945 234.197L123.02 234.14L123.011 234.045L122.613 229.683C122.636 229.696 122.659 229.712 122.684 229.726C122.918 229.86 123.255 230.041 123.673 230.228C124.496 230.595 125.635 230.988 126.911 231.105L126.964 231.176L135.083 225.076L135.217 224.973L121.046 205.998L120.945 205.861L94.4389 225.78ZM108.724 244.871C108.718 244.873 108.686 244.885 108.646 244.88C108.618 244.877 108.564 244.862 108.527 244.808C108.491 244.757 108.495 244.705 108.499 244.682C108.504 244.648 108.521 244.625 108.526 244.618L108.724 244.871ZM134.743 224.905L126.943 230.767C125.716 230.655 124.613 230.275 123.812 229.917C123.406 229.736 123.078 229.56 122.853 229.431C122.74 229.367 122.653 229.314 122.594 229.277C122.565 229.259 122.543 229.244 122.529 229.235C122.521 229.23 122.516 229.226 122.512 229.224C122.511 229.223 122.509 229.223 122.508 229.222L122.507 229.221L122.21 229.02L122.243 229.377L122.666 233.981L108.588 244.561L108.57 244.572C108.568 244.573 108.565 244.575 108.564 244.576C108.558 244.58 108.55 244.586 108.541 244.592C108.471 244.644 108.357 244.671 108.174 244.637C107.99 244.603 107.758 244.512 107.481 244.358C106.928 244.051 106.232 243.515 105.437 242.789C103.849 241.337 101.895 239.143 99.9526 236.551L99.2085 235.538C97.5261 233.196 96.1934 230.99 95.3774 229.271L94.686 226.02L120.876 206.336L134.743 224.905Z" fill="#0B4D5E"/>
<path d="M120.91 206.099L94.4975 225.949L94.4998 225.959C92.1232 227.809 93.4084 233.462 97.3742 238.593C101.344 243.729 106.496 246.397 108.882 244.553C111.101 242.838 110.147 237.827 106.812 233.004L128.87 216.757L123.007 208.906L120.91 206.099Z" fill="#F35F5F"/>
<path d="M120.808 205.963L94.3084 225.878L94.3123 225.894C93.1137 226.904 92.881 228.835 93.3924 231.083C93.919 233.398 95.2456 236.116 97.2401 238.697C99.2365 241.28 101.535 243.249 103.644 244.341C105.74 245.426 107.71 245.674 108.986 244.687C110.173 243.769 110.478 242.001 110.097 239.914C109.72 237.853 108.669 235.425 107.045 233.042L128.971 216.893L129.108 216.792L129.006 216.655L121.047 205.998L120.944 205.861L120.808 205.963ZM128.633 216.72L106.578 232.964L106.672 233.1C108.329 235.497 109.39 237.934 109.763 239.974C110.137 242.026 109.809 243.622 108.778 244.418C107.669 245.276 105.87 245.111 103.801 244.04C101.745 242.975 99.4819 241.042 97.5086 238.489C95.5375 235.938 94.2378 233.265 93.7245 231.008C93.2077 228.737 93.4992 226.953 94.6043 226.093L94.6883 226.028L94.6873 226.019L120.877 206.336L128.633 216.72Z" fill="#0B4D5E"/>
<path d="M106.81 233.004C110.146 237.828 111.101 242.839 108.883 244.554C106.631 246.294 101.913 244.012 98.0516 239.43L106.81 233.004Z" fill="#0B4D5E"/>
<path d="M106.71 232.867L97.9505 239.293L97.8049 239.4L97.9212 239.54C99.8631 241.845 102.026 243.578 103.997 244.517C105.834 245.392 107.553 245.596 108.754 244.85L108.987 244.688C110.174 243.77 110.478 242.002 110.096 239.914C109.713 237.815 108.628 235.334 106.95 232.908L106.85 232.763L106.71 232.867ZM106.769 233.245C108.37 235.596 109.397 237.976 109.762 239.976C110.137 242.028 109.81 243.623 108.779 244.42L108.576 244.561C107.524 245.213 105.951 245.071 104.143 244.21C102.266 243.316 100.189 241.666 98.3012 239.458L106.769 233.245Z" fill="#0B4D5E"/>
<path d="M123.579 218.838C119.593 213.682 118.297 208.007 120.683 206.163C123.069 204.318 128.234 207.003 132.22 212.16C136.205 217.316 137.502 222.991 135.116 224.836C132.73 226.68 127.564 223.995 123.579 218.838Z" fill="#F8DCDC"/>
<path d="M120.787 206.297C121.896 205.44 123.698 205.608 125.773 206.687C127.834 207.758 130.104 209.7 132.085 212.263C134.066 214.827 135.374 217.513 135.891 219.778C136.412 222.058 136.121 223.844 135.011 224.701C133.902 225.558 132.101 225.39 130.026 224.311C127.965 223.24 125.694 221.297 123.713 218.734C121.732 216.171 120.425 213.485 119.907 211.22C119.387 208.94 119.678 207.155 120.787 206.297ZM120.579 206.028C119.302 207.015 119.049 208.989 119.576 211.296C120.107 213.619 121.44 216.349 123.444 218.942C125.449 221.535 127.755 223.514 129.869 224.613C131.969 225.705 133.942 225.957 135.219 224.97C136.496 223.983 136.75 222.01 136.223 219.702C135.692 217.379 134.358 214.649 132.354 212.056C130.35 209.462 128.044 207.484 125.93 206.385C123.83 205.293 121.856 205.041 120.579 206.028Z" fill="#0B4D5E"/>
<path d="M121.656 231.794C121.505 230.467 121.742 229.349 122.186 229.299C122.63 229.248 123.112 230.284 123.263 231.612C123.414 232.939 123.176 234.057 122.733 234.107C122.289 234.157 121.807 233.122 121.656 231.794Z" fill="#F35F5F"/>
<path d="M122.205 229.468C122.242 229.464 122.307 229.479 122.4 229.572C122.491 229.663 122.587 229.811 122.68 230.011C122.865 230.408 123.02 230.98 123.094 231.63C123.168 232.281 123.145 232.874 123.054 233.303C123.008 233.518 122.948 233.683 122.88 233.792C122.811 233.904 122.751 233.934 122.714 233.938C122.676 233.942 122.611 233.927 122.519 233.834C122.428 233.742 122.331 233.595 122.238 233.396C122.053 232.998 121.899 232.425 121.825 231.775C121.751 231.124 121.773 230.533 121.864 230.103C121.91 229.888 121.971 229.722 122.039 229.613C122.108 229.501 122.168 229.472 122.205 229.468ZM122.167 229.13C121.982 229.151 121.846 229.281 121.75 229.434C121.654 229.59 121.581 229.796 121.531 230.032C121.431 230.506 121.41 231.136 121.487 231.813C121.564 232.49 121.726 233.1 121.93 233.539C122.032 233.757 122.149 233.943 122.278 234.073C122.405 234.202 122.567 234.297 122.752 234.276C122.937 234.255 123.073 234.126 123.169 233.972C123.265 233.816 123.337 233.609 123.387 233.373C123.488 232.899 123.509 232.269 123.432 231.592C123.355 230.915 123.193 230.305 122.989 229.866C122.887 229.648 122.77 229.463 122.641 229.333C122.514 229.205 122.351 229.109 122.167 229.13Z" fill="#0B4D5E"/>
<path d="M139.416 232.452C138.412 231.746 140.624 226.868 144.357 221.556C148.09 216.243 151.929 212.508 152.933 213.214C153.937 213.919 151.725 218.797 147.992 224.11C144.26 229.422 140.42 233.157 139.416 232.452Z" fill="#F35F5F"/>
<path d="M144.496 221.653C146.358 219.003 148.245 216.75 149.787 215.25C150.559 214.499 151.239 213.942 151.782 213.618C152.054 213.456 152.283 213.358 152.465 213.318C152.649 213.279 152.763 213.302 152.835 213.352C152.907 213.403 152.969 213.503 152.994 213.689C153.018 213.875 153.003 214.123 152.943 214.434C152.822 215.055 152.529 215.883 152.084 216.864C151.196 218.823 149.715 221.362 147.853 224.012C145.991 226.662 144.105 228.915 142.563 230.416C141.791 231.167 141.111 231.723 140.568 232.047C140.296 232.209 140.067 232.308 139.884 232.348C139.701 232.387 139.586 232.363 139.514 232.312C139.442 232.262 139.381 232.162 139.356 231.977C139.331 231.791 139.347 231.542 139.407 231.231C139.528 230.611 139.821 229.783 140.266 228.802C141.154 226.842 142.634 224.303 144.496 221.653ZM144.218 221.457C142.347 224.12 140.855 226.677 139.956 228.661C139.507 229.652 139.201 230.508 139.073 231.166C139.009 231.495 138.987 231.785 139.019 232.022C139.05 232.258 139.14 232.465 139.319 232.59C139.498 232.716 139.723 232.731 139.956 232.68C140.19 232.63 140.455 232.51 140.742 232.339C141.318 231.995 142.02 231.418 142.8 230.66C144.361 229.141 146.261 226.869 148.131 224.207C150.002 221.545 151.494 218.989 152.394 217.005C152.843 216.014 153.148 215.158 153.277 214.499C153.341 214.171 153.362 213.881 153.331 213.644C153.299 213.408 153.21 213.2 153.031 213.074C152.852 212.949 152.627 212.935 152.393 212.986C152.16 213.036 151.895 213.155 151.607 213.326C151.031 213.67 150.33 214.248 149.55 215.006C147.988 216.525 146.088 218.795 144.218 221.457Z" fill="#0B4D5E"/>
<path d="M139.653 232.622C137.16 230.925 138.101 225.199 141.754 219.833C142.213 219.158 142.694 218.521 143.188 217.926H147.036C147.036 217.926 147.393 216.35 146.531 214.714C146.528 214.708 146.524 214.702 146.521 214.695C148.984 212.84 151.376 212.173 152.874 213.185L152.885 213.181L163.026 220.265L153.528 233.59L147.872 229.499C144.807 232.534 141.527 233.898 139.653 232.622Z" fill="#F35F5F"/>
<path d="M152.893 212.995C152.102 212.498 151.105 212.43 150.019 212.7C148.896 212.98 147.662 213.623 146.419 214.56L146.302 214.648L146.371 214.776C146.374 214.782 146.378 214.788 146.381 214.794C146.797 215.583 146.919 216.359 146.937 216.939C146.946 217.228 146.929 217.468 146.91 217.635C146.905 217.681 146.898 217.722 146.893 217.756H143.108L143.058 217.818C142.56 218.417 142.076 219.058 141.613 219.737C139.776 222.436 138.616 225.232 138.231 227.575C137.849 229.904 138.224 231.855 139.558 232.763C140.561 233.446 141.916 233.405 143.378 232.835C144.811 232.276 146.377 231.196 147.889 229.72L153.429 233.728L153.567 233.828L153.666 233.689L163.265 220.224L163.124 220.126L152.982 213.041L152.907 212.989L152.893 212.995ZM150.101 213.029C151.165 212.765 152.083 212.856 152.779 213.326L152.854 213.376L152.863 213.372L162.788 220.306L153.489 233.352L147.972 229.361L147.855 229.277L147.753 229.378C146.231 230.885 144.663 231.969 143.254 232.519C141.841 233.07 140.619 233.074 139.749 232.482C138.59 231.693 138.189 229.931 138.566 227.631C138.942 225.346 140.079 222.596 141.895 219.929C142.335 219.281 142.796 218.669 143.269 218.096H147.172L147.202 217.963V217.961L147.207 217.942C147.21 217.928 147.213 217.909 147.218 217.884C147.226 217.835 147.237 217.763 147.247 217.673C147.268 217.493 147.286 217.236 147.276 216.928C147.258 216.338 147.137 215.555 146.737 214.748C147.918 213.876 149.069 213.286 150.101 213.029Z" fill="#0B4D5E"/>
<path d="M153.597 233.633L149.476 239.477L139.695 232.645C139.682 232.637 139.668 232.629 139.654 232.62C139.634 232.606 139.615 232.59 139.595 232.575L139.397 232.437C139.443 232.467 139.454 232.473 139.417 232.448C139.376 232.419 139.342 232.38 139.312 232.338C137.762 230.839 137.97 227.367 139.668 223.557L153.597 233.632V233.633Z" fill="#0B4D5E"/>
<path d="M139.512 223.488C138.658 225.406 138.174 227.248 138.102 228.806C138.031 230.356 138.367 231.654 139.188 232.453C139.219 232.494 139.256 232.536 139.303 232.573L139.301 232.576L139.306 232.579L139.305 232.58C139.307 232.581 139.309 232.582 139.311 232.583L139.498 232.715C139.51 232.724 139.541 232.748 139.559 232.761L139.56 232.76C139.571 232.768 139.581 232.775 139.589 232.78C139.597 232.785 139.6 232.787 139.604 232.789L149.517 239.713L149.615 239.575L153.736 233.731L153.767 233.687V233.545L139.597 223.296L139.512 223.488ZM153.363 233.671L149.434 239.24L139.792 232.506L139.785 232.501L139.751 232.481L139.75 232.48L139.697 232.44L139.692 232.436L139.557 232.341C139.556 232.34 139.554 232.339 139.553 232.338C139.547 232.332 139.541 232.327 139.541 232.326C139.539 232.325 139.536 232.324 139.535 232.323C139.53 232.32 139.522 232.314 139.513 232.308C139.495 232.295 139.474 232.274 139.45 232.24L139.441 232.227L139.429 232.215C138.705 231.514 138.373 230.331 138.442 228.822C138.509 227.368 138.951 225.64 139.741 223.819L153.363 233.671ZM139.478 232.298C139.481 232.299 139.484 232.298 139.486 232.299L139.306 232.568C139.305 232.565 139.302 232.564 139.3 232.561C139.296 232.555 139.285 232.538 139.277 232.514C139.27 232.492 139.255 232.423 139.305 232.359C139.352 232.299 139.416 232.295 139.432 232.294C139.455 232.293 139.472 232.297 139.478 232.298Z" fill="#0B4D5E"/>
<path d="M149.617 239.576C147.124 237.879 148.077 232.136 151.744 226.748C155.411 221.361 160.405 218.37 162.898 220.067C165.391 221.764 164.439 227.507 160.772 232.894C157.104 238.281 152.11 241.273 149.617 239.576Z" fill="#0B4D5E"/>
<path d="M151.884 226.845C153.707 224.167 155.856 222.091 157.849 220.897C159.855 219.695 161.643 219.418 162.802 220.207C163.961 220.996 164.36 222.761 163.977 225.068C163.597 227.36 162.454 230.121 160.631 232.799C158.808 235.477 156.659 237.552 154.666 238.746C152.66 239.948 150.871 240.224 149.713 239.435C148.554 238.646 148.156 236.881 148.538 234.574C148.918 232.283 150.061 229.523 151.884 226.845ZM151.603 226.653C149.759 229.363 148.593 232.168 148.203 234.519C147.816 236.853 148.188 238.808 149.521 239.716C150.855 240.624 152.811 240.254 154.841 239.037C156.885 237.813 159.067 235.699 160.912 232.99C162.756 230.281 163.923 227.475 164.313 225.124C164.7 222.789 164.327 220.834 162.993 219.926C161.659 219.018 159.705 219.389 157.674 220.605C155.63 221.83 153.448 223.944 151.603 226.653Z" fill="#0B4D5E"/>
<path d="M144.88 217.919C144.876 217.828 146.488 214.632 146.53 214.71C147.392 216.346 147.036 217.922 147.036 217.922" fill="#0B4D5E"/>
<path d="M146.487 214.544C146.444 214.554 146.416 214.579 146.409 214.584C146.39 214.601 146.375 214.621 146.367 214.632C146.348 214.658 146.325 214.694 146.301 214.734C146.251 214.818 146.183 214.94 146.105 215.085C145.947 215.377 145.741 215.773 145.536 216.174C145.332 216.575 145.129 216.981 144.977 217.294C144.901 217.45 144.838 217.583 144.793 217.681C144.771 217.729 144.752 217.771 144.739 217.803C144.733 217.818 144.727 217.834 144.723 217.848C144.721 217.854 144.718 217.863 144.716 217.872C144.715 217.877 144.709 217.899 144.71 217.927L145.049 217.911C145.05 217.926 145.049 217.937 145.048 217.941C145.047 217.947 145.047 217.951 145.046 217.953C145.045 217.956 145.045 217.958 145.045 217.956C145.046 217.952 145.05 217.944 145.055 217.932C145.065 217.906 145.081 217.87 145.103 217.822C145.146 217.728 145.207 217.597 145.282 217.442C145.433 217.132 145.636 216.728 145.839 216.328C146.043 215.928 146.248 215.534 146.404 215.246C146.442 215.176 146.479 215.113 146.51 215.058C146.822 215.752 146.92 216.42 146.936 216.935C146.945 217.224 146.929 217.464 146.909 217.631C146.9 217.714 146.89 217.779 146.882 217.822C146.878 217.844 146.874 217.861 146.872 217.871C146.871 217.876 146.871 217.88 146.87 217.882L146.869 217.885C146.869 217.885 146.87 217.884 147.035 217.922C147.197 217.958 147.201 217.96 147.201 217.96V217.958C147.202 217.957 147.202 217.955 147.202 217.953C147.203 217.949 147.205 217.944 147.206 217.937C147.209 217.924 147.213 217.905 147.217 217.881C147.226 217.832 147.236 217.76 147.246 217.67C147.267 217.49 147.285 217.233 147.276 216.925C147.256 216.308 147.126 215.477 146.68 214.631L146.649 214.589C146.635 214.575 146.617 214.562 146.595 214.553C146.552 214.535 146.512 214.538 146.487 214.544Z" fill="#0B4D5E"/>
<path d="M131.252 234.119C130.945 236.803 128.56 238.431 128.56 238.431C128.56 238.431 130.42 239.701 133.668 239.244" fill="#F35F5F"/>
<path d="M131.224 233.951C131.149 233.964 131.092 234.025 131.083 234.1C130.935 235.396 130.284 236.444 129.662 237.171C129.352 237.534 129.05 237.815 128.827 238.005C128.716 238.1 128.624 238.172 128.561 238.22C128.529 238.244 128.505 238.262 128.488 238.274C128.481 238.279 128.474 238.284 128.47 238.286C128.468 238.288 128.466 238.29 128.465 238.29H128.464L128.434 238.318C128.406 238.349 128.39 238.389 128.39 238.431C128.39 238.487 128.418 238.54 128.464 238.572L128.561 238.431L128.465 238.572L128.467 238.573C128.468 238.573 128.47 238.575 128.472 238.576C128.476 238.579 128.483 238.583 128.49 238.588C128.506 238.598 128.53 238.613 128.56 238.631C128.62 238.667 128.71 238.717 128.826 238.775C129.059 238.891 129.402 239.039 129.848 239.172C130.74 239.439 132.041 239.645 133.692 239.412C133.745 239.405 133.792 239.372 133.818 239.325C133.843 239.277 133.845 239.22 133.821 239.171L131.405 234.047L131.374 234.001C131.336 233.962 131.28 233.942 131.224 233.951ZM133.415 239.104C131.927 239.28 130.754 239.088 129.945 238.846C129.52 238.719 129.195 238.578 128.978 238.47C128.937 238.45 128.901 238.427 128.867 238.409C128.919 238.368 128.981 238.321 129.048 238.264C129.282 238.065 129.596 237.771 129.92 237.392C130.481 236.736 131.077 235.817 131.329 234.681L133.415 239.104Z" fill="#0B4D5E"/>
<path d="M128.557 238.437C128.282 238.268 128.658 237.161 129.396 235.966C130.133 234.77 130.954 233.938 131.229 234.108C131.503 234.277 131.128 235.384 130.39 236.58C129.652 237.775 128.832 238.607 128.557 238.437Z" fill="#0B4D5E"/>
<path d="M129.54 236.055C129.904 235.465 130.286 234.969 130.607 234.644C130.768 234.481 130.907 234.368 131.015 234.306C131.069 234.275 131.107 234.262 131.131 234.258C131.133 234.257 131.135 234.257 131.137 234.257C131.138 234.258 131.138 234.26 131.138 234.262C131.145 234.285 131.151 234.326 131.148 234.388C131.141 234.513 131.102 234.687 131.028 234.904C130.881 235.336 130.61 235.9 130.245 236.49C129.881 237.081 129.499 237.577 129.179 237.901C129.018 238.064 128.879 238.178 128.771 238.24C128.717 238.271 128.678 238.284 128.654 238.288C128.652 238.288 128.651 238.288 128.649 238.288C128.649 238.287 128.647 238.285 128.647 238.283C128.64 238.26 128.635 238.22 128.638 238.158C128.645 238.034 128.684 237.858 128.757 237.641C128.904 237.209 129.176 236.645 129.54 236.055ZM129.251 235.877C128.877 236.482 128.593 237.069 128.436 237.531C128.358 237.761 128.308 237.97 128.299 238.139C128.294 238.222 128.299 238.305 128.321 238.38C128.344 238.455 128.389 238.532 128.468 238.582C128.548 238.631 128.637 238.636 128.714 238.622C128.791 238.609 128.867 238.576 128.94 238.534C129.086 238.45 129.25 238.312 129.421 238.139C129.764 237.791 130.161 237.274 130.535 236.669C130.908 236.064 131.193 235.476 131.35 235.013C131.428 234.783 131.477 234.575 131.486 234.407C131.491 234.323 131.487 234.24 131.465 234.165C131.442 234.089 131.398 234.013 131.318 233.963L131.257 233.935C131.194 233.913 131.13 233.912 131.071 233.923C130.995 233.936 130.919 233.97 130.846 234.012C130.699 234.095 130.535 234.233 130.365 234.406C130.022 234.753 129.624 235.271 129.251 235.877Z" fill="#0B4D5E"/>
<path d="M106.774 127.687C107.332 121.905 107.788 121.448 113.552 120.888C107.788 120.328 107.333 119.87 106.774 114.088C106.216 119.87 105.76 120.327 99.9952 120.888C105.759 121.448 106.215 121.905 106.774 127.687Z" fill="#F0F4FF"/>
<path d="M106.774 114.088C106.216 119.87 105.76 120.327 99.9949 120.887C105.759 121.447 106.215 121.905 106.774 127.687C107.332 121.905 107.788 121.447 113.552 120.887C107.788 120.327 107.333 119.87 106.774 114.088ZM106.774 116.845C106.821 117.111 106.872 117.36 106.928 117.592C107.147 118.487 107.457 119.171 107.97 119.686C108.484 120.201 109.166 120.513 110.059 120.732C110.292 120.789 110.541 120.84 110.807 120.887C110.54 120.935 110.291 120.986 110.058 121.043C109.165 121.262 108.483 121.574 107.969 122.089C107.456 122.604 107.146 123.288 106.927 124.183C106.871 124.414 106.821 124.661 106.774 124.926C106.727 124.661 106.676 124.414 106.62 124.183C106.401 123.288 106.09 122.604 105.577 122.089C105.064 121.574 104.382 121.262 103.489 121.043C103.257 120.986 103.007 120.935 102.74 120.887C103.007 120.84 103.256 120.789 103.489 120.732C104.382 120.513 105.064 120.2 105.578 119.685C106.091 119.17 106.401 118.487 106.62 117.592C106.676 117.36 106.727 117.111 106.774 116.845Z" fill="#0B4D5E"/>
<path d="M283.992 92.2273L272.068 68.2577L283.412 51.2324L302.945 65.6888L283.992 92.2273Z" fill="#0B4D5E"/>
<path d="M271.872 68.2451L271.916 68.333L283.84 92.3027L283.966 92.5566L284.13 92.3262L303.083 65.7871L303.18 65.6514L303.046 65.5518L283.369 50.9893L271.872 68.2451ZM302.709 65.7256L284.019 91.8984L272.264 68.2695L283.454 51.4746L302.709 65.7256Z" fill="#0B4D5E"/>
<path d="M272.068 68.2575L283.461 51.1328L293.093 61.2953L277.963 82.6952" fill="#F8DCDC"/>
<path d="M271.926 68.1631L272.068 68.2578L272.209 68.3516L283.485 51.4043L292.874 61.3105L277.825 82.5967L277.963 82.6953L278.102 82.793L293.232 61.3936L293.313 61.2793L293.216 61.1787L283.438 50.8613L271.926 68.1631Z" fill="#0B4D5E"/>
<path d="M273.679 71.4977L286.82 52.7236L294.715 59.0715L278.628 81.4452L279.961 88.263C277.309 91.5567 272.523 87.0376 268.756 88.2536L271.471 71.8665C272.199 72.2931 273.129 72.1419 273.68 71.4977H273.679Z" fill="#F35F5F"/>
<path d="M286.681 52.626L273.543 71.3955C273.045 71.9695 272.211 72.1032 271.556 71.7197L271.343 71.5947L271.303 71.8389L268.588 88.2256L268.543 88.501L268.808 88.415C269.711 88.1237 270.684 88.1734 271.691 88.3721C272.702 88.5715 273.721 88.915 274.731 89.2012C275.731 89.4844 276.72 89.71 277.632 89.6494C278.555 89.5881 279.398 89.2334 280.093 88.3691L280.143 88.3076L280.127 88.2305L278.81 81.4834L294.853 59.1709L294.948 59.04L294.822 58.9395L286.926 52.5908L286.785 52.4775L286.681 52.626ZM294.484 59.1025L278.49 81.3457L278.448 81.4053L278.461 81.4775L279.779 88.2158C279.159 88.9549 278.426 89.2563 277.61 89.3105C276.761 89.3669 275.821 89.1567 274.823 88.874C273.835 88.5942 272.785 88.241 271.756 88.0381C270.816 87.8525 269.871 87.7876 268.968 88.0166L271.601 72.1201C272.361 72.4457 273.257 72.2532 273.809 71.6084L274.049 71.3281H274.004L286.856 52.9697L294.484 59.1025Z" fill="#0B4D5E"/>
<path d="M239.426 62.2414C243.497 57.7699 249.749 57.6841 255.239 60.3651L250.309 86.4006L239.426 62.2414Z" fill="#F35F5F"/>
<path d="M255.313 60.2126C249.782 57.5118 243.439 57.5798 239.3 62.1267L239.224 62.2097L239.27 62.3112L250.376 86.9626L255.406 60.3972L255.43 60.2692L255.313 60.2126ZM239.629 62.2751C243.604 57.991 249.661 57.8759 255.048 60.4626L250.243 85.8376L239.629 62.2751Z" fill="#0B4D5E"/>
<path d="M239.426 62.2415L200.741 109.968L218.719 126.337L250.309 86.4006L239.426 62.2415Z" fill="#F35F5F"/>
<path d="M239.294 62.134L200.609 109.862L200.508 109.986L218.604 126.462L218.739 126.585L218.852 126.442L250.442 86.5061L250.507 86.425L250.465 86.3303L239.468 61.9202L239.294 62.134ZM250.112 86.3762L218.699 126.088L200.975 109.95L239.385 62.5627L250.112 86.3762Z" fill="#0B4D5E"/>
<path d="M267.693 94.6696L250.309 86.4004L255.239 60.365L272.068 68.2569L267.693 94.6696Z" fill="#F35F5F"/>
<path d="M250.118 86.4978L250.237 86.5535L267.824 94.9197L272.236 68.2849L272.256 68.158L272.14 68.1033L255.113 60.1179L250.118 86.4978ZM271.88 68.3552L267.563 94.4187L250.502 86.3025L255.366 60.6121L271.88 68.3552Z" fill="#0B4D5E"/>
<path d="M273.687 71.4909C273.125 72.1546 272.161 72.305 271.424 71.8435L271.978 68.198L272.068 68.2583L273.687 71.4909Z" fill="#F35F5F"/>
<path d="M271.256 71.8181L271.24 71.9285L271.333 71.988C272.142 72.4944 273.2 72.3285 273.817 71.6003L273.889 71.5154L273.839 71.4148L272.22 68.1824L272.2 68.1423L272.162 68.1169L272.073 68.0564L271.85 67.908L271.256 71.8181ZM273.483 71.4617C272.993 71.9651 272.229 72.0835 271.61 71.7527L272.08 68.6599L273.483 71.4617Z" fill="#0B4D5E"/>
<path d="M267.693 94.6696L250.309 86.4004L255.239 60.365L272.068 68.2569L267.693 94.6696Z" fill="#F35F5F"/>
<path d="M250.118 86.4978L250.237 86.5535L267.824 94.9197L272.236 68.2849L272.256 68.158L272.14 68.1033L255.113 60.1179L250.118 86.4978ZM271.88 68.3552L267.563 94.4187L250.502 86.3025L255.366 60.6121L271.88 68.3552Z" fill="#0B4D5E"/>
<path d="M208.198 119.832C203.226 115.316 199.887 110.894 200.74 109.955C201.593 109.016 206.315 111.916 211.287 116.432C216.259 120.948 219.598 125.371 218.745 126.31C217.892 127.249 213.17 124.349 208.198 119.832Z" fill="#F35F5F"/>
<path d="M200.866 110.069C200.928 110 201.041 109.95 201.235 109.948C201.43 109.946 201.684 109.994 201.996 110.097C202.618 110.301 203.43 110.709 204.38 111.292C206.277 112.457 208.692 114.304 211.173 116.558C213.653 118.811 215.723 121.038 217.065 122.815C217.736 123.704 218.22 124.473 218.483 125.073C218.615 125.373 218.687 125.622 218.704 125.816C218.721 126.01 218.682 126.126 218.619 126.195C218.557 126.264 218.444 126.315 218.25 126.316C218.055 126.318 217.8 126.27 217.489 126.167C216.867 125.963 216.055 125.555 215.105 124.972C213.208 123.807 210.793 121.96 208.312 119.706C205.832 117.453 203.762 115.226 202.42 113.449C201.749 112.56 201.265 111.791 201.002 111.191C200.87 110.891 200.798 110.642 200.781 110.448C200.764 110.254 200.803 110.138 200.866 110.069ZM200.614 109.84C200.464 110.006 200.421 110.233 200.442 110.478C200.464 110.724 200.551 111.011 200.69 111.328C200.969 111.963 201.472 112.757 202.15 113.655C203.507 115.453 205.593 117.695 208.084 119.958C210.575 122.221 213.008 124.082 214.928 125.262C215.886 125.85 216.724 126.274 217.383 126.49C217.711 126.598 218.006 126.658 218.252 126.656C218.498 126.654 218.72 126.59 218.871 126.424C219.021 126.258 219.064 126.031 219.043 125.786C219.021 125.54 218.933 125.254 218.794 124.937C218.515 124.302 218.014 123.508 217.336 122.61C215.978 120.812 213.892 118.569 211.401 116.306C208.91 114.043 206.478 112.182 204.558 111.003C203.599 110.414 202.76 109.991 202.102 109.774C201.773 109.666 201.479 109.606 201.233 109.608C200.987 109.61 200.765 109.674 200.614 109.84Z" fill="#0B4D5E"/>
<path d="M273.594 71.0661L286.729 52.3013L294.624 58.6491L278.537 81.0229L279.869 87.8406C278.36 89.7154 276.159 89.0589 273.849 88.3696C272.1 87.8479 270.288 87.3074 268.665 87.8313L267.602 94.2472L250.218 85.9781L218.628 125.914L200.65 109.546L239.334 61.8189C243.405 57.3474 249.657 57.2616 255.148 59.9427L271.884 67.7912L271.886 67.7757L271.969 67.831L271.976 67.8345L271.976 67.8358L273.594 71.0661Z" fill="#F35F5F"/>
<path d="M286.59 52.2036L273.619 70.7349L272.153 67.8091L272.165 67.7349L272.049 67.6802L271.981 67.6343L271.759 67.4858L271.751 67.5405L254.701 59.5444C249.471 57.1763 243.61 57.2894 239.602 61.2915L239.209 61.7046L239.202 61.7114L200.417 109.563L200.535 109.671L218.514 126.04L218.648 126.163L218.761 126.02L250.268 86.189L267.732 94.4976L268.815 87.9644C270.354 87.5115 272.073 88.0178 273.8 88.5327C274.949 88.8755 276.101 89.2204 277.157 89.2368C278.226 89.2534 279.208 88.9325 280.002 87.9468L280.052 87.8853L280.036 87.8081L278.719 81.062L294.762 58.7485L294.856 58.6177L294.73 58.5171L286.835 52.1685L286.693 52.0552L286.59 52.2036ZM294.392 58.6802L278.398 80.9233L278.356 80.9829L278.37 81.0552L279.686 87.7925C278.98 88.6348 278.125 88.9119 277.162 88.897C276.163 88.8814 275.059 88.5531 273.897 88.2065C272.271 87.7214 270.528 87.1968 268.931 87.5806L268.613 87.6694L268.514 87.7017L268.497 87.8032L267.472 93.9966L250.291 85.8247L250.169 85.7661L250.085 85.8726L218.608 125.666L200.884 109.528L239.46 61.9331L239.842 61.5337C243.847 57.5337 249.794 57.5173 255.073 60.0952L255.075 60.0962L271.812 67.9448L271.85 67.9614L273.442 71.1421L273.57 71.397L286.764 52.5474L294.392 58.6802Z" fill="#0B4D5E"/>
<path d="M286.729 52.3013L273.594 71.0661L271.976 67.8358L271.976 67.8345L271.969 67.831L271.886 67.7757L271.884 67.7912L255.148 59.9427C249.657 57.2616 243.405 57.3474 239.334 61.8189L200.65 109.546L200.952 109.821C200.866 109.85 200.795 109.894 200.74 109.955C199.887 110.894 203.226 115.316 208.198 119.832C213.17 124.349 217.892 127.249 218.745 126.31C218.877 126.164 218.909 125.935 218.849 125.634L250.218 85.9781L267.602 94.2472L268.665 87.8313C270.288 87.3074 272.1 87.8479 273.849 88.3696C276.159 89.0589 278.36 89.7154 279.869 87.8406L278.962 81.4732L295.049 59.0995L286.729 52.3013Z" fill="#F35F5F"/>
<path d="M273.619 70.7349L272.153 67.8091L272.165 67.7349L272.049 67.6802L271.981 67.6343L271.759 67.4858L271.751 67.5405L255.22 59.7886C249.862 57.1733 243.743 57.1566 239.602 61.2915L239.208 61.7046L239.202 61.7114L200.417 109.563L200.535 109.671L200.667 109.791C200.649 109.806 200.631 109.822 200.614 109.84C200.464 110.006 200.421 110.233 200.442 110.478C200.464 110.724 200.551 111.011 200.69 111.328C200.969 111.963 201.471 112.757 202.149 113.655C203.507 115.453 205.593 117.696 208.084 119.958C210.575 122.221 213.007 124.082 214.927 125.261C215.885 125.85 216.724 126.274 217.383 126.491C217.711 126.599 218.005 126.658 218.252 126.656C218.498 126.654 218.72 126.59 218.871 126.424C219.042 126.236 219.074 125.97 219.029 125.681L250.268 86.189L267.732 94.4976L268.815 87.9644C270.157 87.5693 271.637 87.9034 273.14 88.3374L273.8 88.5327C274.949 88.8755 276.101 89.2204 277.157 89.2368C278.226 89.2533 279.208 88.9325 280.002 87.9468L280.048 87.8901L280.037 87.8169L279.14 81.5171L295.186 59.1987L295.28 59.0688L295.156 58.9683L286.836 52.1694L286.694 52.0542L273.619 70.7349ZM294.818 59.1294L278.823 81.3735L278.784 81.4292L279.69 87.7886C278.983 88.6342 278.127 88.9119 277.162 88.897C276.163 88.8815 275.059 88.5531 273.897 88.2065C272.271 87.7214 270.528 87.1968 268.931 87.5806L268.612 87.6694L268.515 87.7017L268.497 87.8032L267.472 93.9966L250.291 85.8247L250.169 85.7661L250.085 85.8726L218.716 125.529L218.667 125.59L218.683 125.667C218.739 125.949 218.697 126.11 218.619 126.196C218.556 126.265 218.444 126.314 218.249 126.316C218.055 126.317 217.801 126.27 217.489 126.167C216.867 125.963 216.055 125.555 215.105 124.972C213.208 123.807 210.793 121.96 208.312 119.707C205.832 117.453 203.762 115.226 202.421 113.45C201.749 112.56 201.265 111.79 201.002 111.191C200.87 110.891 200.798 110.642 200.781 110.449C200.764 110.255 200.804 110.138 200.866 110.069C200.899 110.033 200.944 110.003 201.007 109.982L201.279 109.889L200.884 109.528L239.46 61.9331L239.841 61.5337C243.846 57.5332 249.794 57.5172 255.073 60.0952L255.075 60.0962L271.811 67.9448L271.851 67.9624L273.442 71.1421L273.57 71.397L286.764 52.5483L294.818 59.1294Z" fill="#0B4D5E"/>
<path d="M291.848 60.2492C286.475 56.2254 282.735 52.1402 283.495 51.1248C284.256 50.1094 289.228 52.5482 294.602 56.5721C299.975 60.5959 303.715 64.6811 302.955 65.6965C302.194 66.7119 297.222 64.2731 291.848 60.2492Z" fill="#F8DCDC"/>
<path d="M283.631 51.2265C283.687 51.1521 283.794 51.0914 283.988 51.0714C284.181 51.0514 284.439 51.0746 284.758 51.147C285.397 51.2914 286.244 51.6208 287.244 52.1113C289.241 53.0911 291.819 54.7005 294.5 56.708C297.181 58.7156 299.45 60.736 300.953 62.3772C301.705 63.1989 302.259 63.9189 302.578 64.4907C302.737 64.7771 302.832 65.0176 302.867 65.2088C302.902 65.4002 302.874 65.5201 302.819 65.5946C302.763 65.6691 302.656 65.7297 302.462 65.7497C302.269 65.7697 302.011 65.7465 301.692 65.6741C301.053 65.5297 300.206 65.2003 299.206 64.7098C297.208 63.7299 294.631 62.1206 291.95 60.1131C289.269 58.1055 286.999 56.0851 285.497 54.4439C284.745 53.6222 284.19 52.9022 283.872 52.3304C283.713 52.0441 283.618 51.8034 283.583 51.6123C283.547 51.4209 283.576 51.301 283.631 51.2265ZM283.359 51.0228C283.225 51.2022 283.204 51.4323 283.248 51.6743C283.293 51.9165 283.407 52.1937 283.575 52.4959C283.912 53.1013 284.487 53.8438 285.246 54.6732C286.767 56.3343 289.054 58.3688 291.746 60.3851C294.439 62.4014 297.035 64.0235 299.057 65.0152C300.066 65.5103 300.941 65.8528 301.616 66.0058C301.954 66.0822 302.252 66.1133 302.497 66.088C302.741 66.0627 302.956 65.9776 303.091 65.7983C303.225 65.6189 303.246 65.3888 303.201 65.1468C303.157 64.9046 303.042 64.628 302.874 64.326C302.537 63.7205 301.963 62.9774 301.204 62.1479C299.683 60.4868 297.396 58.4523 294.704 56.436C292.011 54.4197 289.415 52.7976 287.393 51.8059C286.384 51.3108 285.509 50.969 284.833 50.816C284.496 50.7398 284.198 50.7078 283.953 50.7331C283.708 50.7584 283.494 50.8435 283.359 51.0228Z" fill="#0B4D5E"/>
<path d="M217.708 123.414L251.125 80.9474C253.18 78.6759 255.327 78.4125 258.208 79.5359L270.382 85.0238C272.49 86.0418 274.828 85.9933 276.374 84.3065L278.929 81.4377L283.992 92.2273C280.024 97.162 273.736 97.5766 267.693 94.6696L250.664 86.5695C250.454 86.4692 250.203 86.5211 250.049 86.6953L218.753 126.299C219.105 125.885 218.689 124.836 217.708 123.415V123.414Z" fill="#0B4D5E"/>
<path d="M257.731 79.1809C256.493 78.7603 255.374 78.6112 254.327 78.801C253.202 79.0051 252.181 79.5968 251.196 80.6223L250.999 80.8332L250.991 80.842L217.574 123.309L217.538 123.356V123.468L217.568 123.512C218.056 124.217 218.396 124.822 218.571 125.294C218.659 125.53 218.702 125.725 218.706 125.878C218.71 126.029 218.676 126.126 218.625 126.188L218.62 126.194L218.883 126.409C218.884 126.408 218.885 126.406 218.887 126.405L250.176 86.8078L250.218 86.7678C250.307 86.6949 250.427 86.6706 250.537 86.7024L250.591 86.7229L267.62 94.8235C273.707 97.7518 280.091 97.3508 284.125 92.3342L284.191 92.2512L278.973 81.1321L278.803 81.3244L276.249 84.1916L276.107 84.3381C274.63 85.8068 272.458 85.8373 270.456 84.8703L270.452 84.8684L258.278 79.3811L258.27 79.3772L257.731 79.1809ZM254.388 79.136C255.499 78.9344 256.722 79.1391 258.146 79.6946L258.147 79.6936L270.312 85.1789C272.461 86.2147 274.886 86.1811 276.499 84.4211L276.501 84.4192L278.885 81.7424L283.792 92.2004C279.887 96.9764 273.732 97.3861 267.767 94.5168L267.766 94.5158L250.737 86.4162L250.631 86.3752C250.413 86.3126 250.179 86.3619 250.004 86.5041L249.922 86.5822L249.915 86.5901L219.027 125.678C219.003 125.523 218.956 125.354 218.889 125.175C218.709 124.689 218.375 124.095 217.918 123.423L251.251 81.0617L251.44 80.8576C252.388 79.8709 253.349 79.3244 254.388 79.136Z" fill="#0B4D5E"/>
<path d="M218.734 126.319L218.751 126.301L218.719 126.336L218.712 126.338C218.719 126.331 218.728 126.326 218.734 126.319Z" fill="#0B4D5E"/>
<path d="M218.671 126.173L218.69 126.245L218.625 126.187L218.619 126.194L218.609 126.202C218.604 126.206 218.599 126.211 218.592 126.218L218.159 126.651L218.753 126.503L218.76 126.501L218.81 126.489L218.845 126.45L218.855 126.439L218.861 126.434L218.86 126.433L218.877 126.415L218.699 126.253L218.678 126.172L218.671 126.173Z" fill="#0B4D5E"/>
<path d="M217.708 123.415C218.699 124.848 219.113 125.904 218.745 126.311C218.381 126.712 217.309 126.411 215.815 125.584L217.708 123.415Z" fill="#0B4D5E"/>
<path d="M217.58 123.303L215.688 125.472L215.549 125.63L215.733 125.733C216.485 126.149 217.141 126.439 217.661 126.573C217.921 126.64 218.157 126.669 218.358 126.652C218.561 126.634 218.742 126.567 218.871 126.425V126.424C219.001 126.281 219.051 126.092 219.048 125.886C219.045 125.681 218.99 125.446 218.896 125.189C218.707 124.675 218.346 124.039 217.848 123.318L217.724 123.138L217.58 123.303ZM217.69 123.694C218.116 124.328 218.417 124.873 218.576 125.306C218.663 125.544 218.706 125.739 218.708 125.891C218.71 126.041 218.674 126.136 218.62 126.196H218.619C218.566 126.255 218.477 126.3 218.329 126.313C218.18 126.326 217.986 126.305 217.746 126.244C217.307 126.131 216.746 125.888 216.085 125.534L217.69 123.694Z" fill="#0B4D5E"/>
</svg>
