<svg width="175" height="172" viewBox="0 0 175 172" fill="none" xmlns="http://www.w3.org/2000/svg">
<g clip-path="url(#clip0_9736_1021)">
<path d="M47.0339 157.224L41.3084 155.76L106.891 87.6371L112.617 89.1034L47.0339 157.224Z" fill="#0B4D5E"/>
<path d="M47.1099 157.492L40.848 155.89L41.136 155.591L106.815 87.3691L113.077 88.9708L112.789 89.2702L47.1099 157.492ZM41.7687 155.628L46.9576 156.956L112.156 89.234L106.967 87.9063L41.7687 155.628Z" fill="#0B4D5E"/>
<path d="M106.178 85.6474C106.572 86.7433 106.24 88.3154 105.435 89.1498L47.1864 149.651L45.7161 151.176L41.7065 155.34C41.2072 154.884 40.7942 154.324 40.5937 153.77L15.5853 83.9087C15.514 83.7047 15.4507 83.4935 15.4038 83.2876C15.3921 83.229 15.3789 83.1709 15.3685 83.1169C15.3581 83.063 15.3471 83.0125 15.3381 82.9632C15.3317 82.9115 15.324 82.8669 15.3198 82.8229C15.3111 82.7634 15.3041 82.7035 15.2999 82.6478C15.2872 82.5276 15.2819 82.4153 15.2804 82.3053C15.2789 82.2706 15.2786 82.2406 15.2786 82.2054C15.2794 82.1617 15.2811 82.121 15.2829 82.0804C15.2826 82.0504 15.2945 81.9231 15.2989 81.8918C15.3381 81.5862 15.4179 81.3476 15.5541 81.2085C15.9347 80.8142 16.1062 79.5623 15.9428 78.404L15.3197 73.9713C15.1576 72.8176 15.674 71.2034 16.4826 70.3662L35.4304 50.6871C36.2335 49.848 37.4182 49.9547 38.0792 50.9147L39.6416 53.208C40.3035 54.1711 41.4873 54.2747 42.2913 53.4387L79.001 15.3112C79.8041 14.4721 80.776 14.6878 81.1704 15.7838L106.178 85.6474Z" fill="#8AE5CC"/>
<path d="M41.7189 155.674L41.5481 155.517C40.9957 155.015 40.5789 154.424 40.37 153.852L15.3612 83.9894C15.2853 83.775 15.2178 83.5549 15.1713 83.3389L15.092 82.9314C15.0878 82.8991 15.0836 82.8669 15.0818 82.8372C15.0747 82.789 15.0655 82.7214 15.0632 82.6551C15.0521 82.5462 15.0441 82.4246 15.044 82.3075L15.0428 82.2041L15.0451 82.0897C15.0473 82.0389 15.0592 81.8999 15.0622 81.8639C15.1132 81.483 15.216 81.2145 15.3825 81.0417C15.6699 80.7458 15.8716 79.6059 15.7075 78.4394L15.084 74.0051C14.9084 72.7633 15.4484 71.0921 16.3109 70.1994L35.2588 50.5203C35.698 50.0641 36.2528 49.8395 36.8234 49.8864C37.3975 49.9341 37.9138 50.2508 38.2762 50.7786L39.8406 53.0731C40.1201 53.4789 40.5076 53.7218 40.9361 53.7589C41.3631 53.7965 41.7829 53.622 42.1196 53.2719L78.8289 15.1428C79.2767 14.6759 79.7933 14.4805 80.2877 14.5859C80.781 14.6934 81.1761 15.0914 81.3964 15.7031L106.404 85.5667C106.827 86.7414 106.47 88.4258 105.609 89.3181L41.7189 155.674ZM36.3114 50.4135C36.0552 50.4863 35.8108 50.6361 35.6014 50.8563L16.6535 70.5354C15.8931 71.3204 15.4032 72.8468 15.5558 73.9379L16.1794 78.3722C16.3317 79.445 16.2243 80.8643 15.7251 81.3777C15.6638 81.442 15.5801 81.5912 15.5373 81.9247C15.5331 81.951 15.5249 82.0621 15.5232 82.091L15.5202 82.209L15.2841 82.3062L15.5247 82.3064C15.5239 82.4087 15.5302 82.5124 15.5417 82.6229C15.5444 82.6907 15.5514 82.7389 15.5589 82.7886L15.6409 83.2405C15.6839 83.4325 15.7461 83.634 15.8132 83.8291L40.8201 153.691C40.9782 154.125 41.2935 154.592 41.7018 155.002L105.265 88.9841C105.999 88.2217 106.316 86.7329 105.956 85.7307L80.9453 15.8665C80.7828 15.4174 80.5134 15.1292 80.1879 15.0577C79.8594 14.9871 79.5003 15.136 79.1735 15.4799L42.4607 53.6084C42.021 54.063 41.4632 54.2885 40.8936 54.2395C40.3191 54.1904 39.8043 53.8732 39.442 53.3454L37.8775 51.0509C37.5995 50.6447 37.2105 50.4022 36.7805 50.3655C36.6208 50.3523 36.4629 50.3687 36.3095 50.4124L36.3114 50.4135Z" fill="#0B4D5E"/>
<path d="M80.2142 14.8178C79.8913 14.7556 79.5322 14.8577 79.193 15.1348C79.158 15.1632 79.1256 15.1892 79.0944 15.2198C79.0625 15.2473 79.0292 15.2818 78.9981 15.3124L42.2868 53.4404C42.1853 53.5445 42.0799 53.6347 41.9675 53.7119C41.9202 53.7437 41.8678 53.7754 41.8192 53.8026C41.8036 53.812 41.7891 53.8195 41.7723 53.8243C41.0932 54.1662 40.3072 54.0031 39.7748 53.373C39.9878 53.2824 40.1938 53.1435 40.3792 52.9553L77.0922 14.8218C77.5014 14.3942 77.9556 14.2417 78.3546 14.3441C78.5557 14.3924 79.9426 14.7494 80.2142 14.8178Z" fill="#F0F4FF"/>
<path d="M41.522 54.1814C40.8498 54.3724 40.1117 54.1388 39.5947 53.5278L39.3844 53.278L39.6814 53.1501C39.8749 53.0667 40.0524 52.9442 40.2108 52.7838L76.9197 14.6531C77.376 14.1754 77.9047 13.9816 78.4123 14.11C78.5208 14.1361 78.9999 14.2576 79.4508 14.3737C79.8088 14.466 80.1503 14.553 80.2699 14.5826L80.1686 15.0548C79.9084 15.0033 79.6215 15.0966 79.3426 15.3231C79.3112 15.3471 79.2871 15.3673 79.2639 15.3906C79.2267 15.423 79.205 15.4459 79.1859 15.4663L42.4577 53.6108C42.3399 53.733 42.222 53.8318 42.0982 53.9155C42.0452 53.9507 41.9875 53.9871 41.9327 54.0161L41.8385 54.0579C41.7357 54.1106 41.6267 54.1533 41.5193 54.1838L41.522 54.1814ZM40.1759 53.4312C40.6102 53.7863 41.166 53.8626 41.6659 53.6084C41.7485 53.5665 41.7948 53.5366 41.8369 53.5096C41.9289 53.4483 42.0227 53.3697 42.1147 53.2733L78.8286 15.1429C78.8777 15.0938 78.911 15.0593 78.9434 15.0333C78.9651 15.0104 79.0034 14.9761 79.0483 14.9416C79.106 14.8934 79.1654 14.8514 79.2256 14.8125C78.8126 14.7074 78.4031 14.6029 78.3 14.5787C77.966 14.4946 77.5979 14.641 77.2654 14.9882L40.5539 53.1213C40.4367 53.24 40.3089 53.3449 40.1759 53.4312Z" fill="#0B4D5E"/>
<path d="M35.1403 49.6887C34.5904 49.5455 33.9912 49.7074 33.5203 50.1977L14.5693 69.8777C14.1274 70.3363 13.7792 71.0309 13.5754 71.7548L15.4838 72.2431C15.6882 71.5207 16.0379 70.8256 16.4813 70.3666L35.4292 50.6875C35.4392 50.6763 35.4502 50.6681 35.4616 50.6615C35.9289 50.1874 36.5186 50.0331 37.0606 50.1719C36.9535 50.1454 35.4478 49.7669 35.1422 49.6898L35.1403 49.6887Z" fill="#F0F4FF"/>
<path d="M15.6513 72.5353L13.2774 71.9267L13.3456 71.6882C13.5722 70.8808 13.9465 70.1787 14.3969 69.7094L33.3494 50.0289C33.8653 49.4924 34.5407 49.2837 35.1996 49.4545L36.0517 49.6691C36.4967 49.7818 36.9644 49.8982 37.0898 49.9312C37.1004 49.9332 37.1094 49.9357 37.1199 49.9377L37.0061 50.4068C37.0061 50.4068 36.9936 50.4036 36.9811 50.4005C36.5082 50.2889 36.018 50.4433 35.6327 50.8323L16.657 70.536C16.2622 70.9444 15.9216 71.5901 15.7169 72.3109L15.6548 72.536L15.6513 72.5353ZM13.8781 71.5836L15.3216 71.9531C15.5533 71.2396 15.8992 70.6243 16.3093 70.1998L35.3155 50.469C35.4607 50.3206 35.6246 50.1971 35.7984 50.1025L35.0838 49.9224C34.5929 49.7943 34.0868 49.9565 33.6955 50.3656L14.741 70.0449C14.3943 70.4062 14.0854 70.9591 13.8781 71.5836Z" fill="#0B4D5E"/>
<path d="M13.4118 73.4846L14.0353 77.9189C14.1974 79.0726 14.0245 80.3315 13.6473 80.7198C13.5126 80.8585 13.4295 81.103 13.3921 81.4031L15.301 81.8929C15.3021 81.8792 15.323 81.7545 15.3315 81.7085C15.3404 81.6759 15.3474 81.6421 15.3564 81.6094C15.399 81.4384 15.469 81.2996 15.5562 81.2096C15.9367 80.8153 16.1083 79.5635 15.9449 78.4052L15.3218 73.9724C15.2482 73.4512 15.3196 72.8386 15.4872 72.2438L13.5787 71.7555C13.4126 72.3499 13.3417 72.9641 13.4153 73.4853L13.4118 73.4846Z" fill="#0B4D5E"/>
<path d="M15.5028 82.1886L15.2426 82.1254L13.1278 81.582L13.1554 81.37C13.2024 80.9986 13.3096 80.7221 13.4745 80.5498C13.7609 80.2559 13.9646 79.117 13.8005 77.9505L13.1774 73.5178C13.1023 72.9853 13.1598 72.3532 13.3455 71.688L13.4091 71.4624L15.783 72.071L15.7149 72.3096C15.5494 72.9004 15.4932 73.4786 15.5572 73.9373L16.1808 78.3716C16.3332 79.4444 16.2258 80.8637 15.7265 81.3771C15.6689 81.437 15.6206 81.5411 15.5884 81.6673L15.3468 81.7042L15.3477 81.7073L15.5664 81.7472L15.5034 82.1851L15.5028 82.1886ZM13.6664 81.2248L15.1123 81.5968C15.1767 81.3393 15.266 81.1633 15.3824 81.0415C15.6698 80.7456 15.8715 79.6057 15.7074 78.4392L15.0839 74.0049C15.0172 73.537 15.0548 72.9925 15.1933 72.4177L13.7483 72.0487C13.6286 72.5613 13.5927 73.0534 13.6501 73.4537L14.2732 77.8864C14.4269 78.9756 14.2983 80.3959 13.8181 80.8888C13.7799 80.9298 13.7123 81.0243 13.6664 81.2248Z" fill="#0B4D5E"/>
<path d="M87.6548 18.9322C87.4627 18.3962 87.1332 18.0715 86.7526 17.9756C86.4151 17.8908 85.1837 17.5732 84.8457 17.4869C84.4452 17.3849 83.9895 17.5379 83.5772 17.9663L20.9075 83.062C20.1036 83.898 19.7696 85.4654 20.1634 86.5649L43.2382 151.024C43.429 151.556 43.755 151.88 44.1314 151.979C44.4718 152.067 45.7073 152.382 46.0453 152.469C46.4458 152.571 46.902 152.419 47.3158 151.99L109.985 86.8945C110.789 86.0586 111.123 84.4912 110.73 83.3916L87.6548 18.9322Z" fill="#F0F4FF"/>
<path d="M46.6536 152.689C46.4296 152.752 46.2039 152.758 45.9874 152.702L44.073 152.211C43.6021 152.089 43.2265 151.695 43.0139 151.104L19.9407 86.6446C19.511 85.4482 19.8621 83.8007 20.7368 82.8928L83.4049 17.7975C83.8605 17.3232 84.4086 17.1273 84.9021 17.2531L85.3456 17.3663C85.8485 17.4961 86.564 17.6792 86.8086 17.7402C87.2852 17.8591 87.6643 18.2533 87.8787 18.8499L110.951 83.3082C111.381 84.5031 111.03 86.1522 110.155 87.0601L47.4853 152.154C47.2279 152.422 46.9423 152.601 46.6507 152.684L46.6536 152.689ZM84.3694 17.7308C84.1607 17.7901 83.9504 17.9252 83.751 18.1341L21.0798 83.2303C20.3331 84.0048 20.0233 85.4649 20.3877 86.4841L43.4609 150.944C43.6194 151.379 43.8762 151.664 44.1881 151.746L46.1021 152.236C46.4362 152.32 46.8031 152.176 47.1409 151.824L109.811 86.7296C110.558 85.9551 110.867 84.495 110.503 83.4758L87.4304 19.0175C87.2705 18.5777 87.0106 18.2935 86.6961 18.2139C86.4496 18.1518 85.7341 17.9687 85.2311 17.8389L84.7876 17.7257C84.6536 17.6918 84.5119 17.6953 84.3692 17.7358L84.3694 17.7308Z" fill="#0B4D5E"/>
<path d="M46.0459 152.47C45.7074 152.382 44.471 152.064 44.1326 151.977C43.7571 151.881 43.4296 151.557 43.2378 151.023L20.1624 86.5669C19.9938 86.0961 19.9671 85.5415 20.0464 84.9919L21.9499 85.4799C21.8706 86.0295 21.9064 86.5815 22.0751 87.0523L45.1472 151.514C45.3402 152.053 45.6658 152.376 46.0459 152.47Z" fill="#8AE5CC"/>
<path d="M45.9894 152.704C45.9894 152.704 45.9749 152.699 45.9664 152.698L44.073 152.211C43.601 152.091 43.2235 151.696 43.013 151.102L19.9381 86.6473C19.7644 86.1646 19.7188 85.5785 19.8088 84.9555L19.8467 84.6921L22.2167 85.2985L22.1853 85.5149C22.1077 86.0473 22.1477 86.5496 22.2972 86.9706L45.3693 151.432C45.5259 151.866 45.7773 152.15 46.0846 152.233L46.1025 152.238L45.9883 152.706L45.9894 152.704ZM20.253 85.2928C20.2196 85.7356 20.2641 86.143 20.3877 86.4843L43.4631 150.94C43.6205 151.377 43.8773 151.662 44.1903 151.742L45.0958 151.975C45.0294 151.859 44.9716 151.731 44.9219 151.591L21.8503 87.1311C21.6917 86.696 21.6373 86.1894 21.687 85.6582L20.253 85.2928Z" fill="#0B4D5E"/>
<path d="M22.8162 83.5503L85.4859 18.4546C86.2898 17.6186 87.2613 17.8328 87.6551 18.9323L110.73 83.3917C111.124 84.4912 110.79 86.0586 109.986 86.8945L47.316 151.99C46.5121 152.826 45.5407 152.612 45.1468 151.513L22.0721 87.0532C21.6783 85.9537 22.0123 84.3862 22.8162 83.5503Z" fill="#F0F4FF"/>
<path d="M46.654 152.69C46.4453 152.75 46.2337 152.758 46.0264 152.711C45.5332 152.604 45.1411 152.205 44.9208 151.593L21.8481 87.1351C21.4188 85.9403 21.7694 84.2912 22.6441 83.3833L85.3138 18.2875C85.7681 17.8203 86.2848 17.625 86.7765 17.7328C87.2702 17.8418 87.6618 18.2392 87.8822 18.8509L110.955 83.3092C111.384 84.504 111.034 86.1531 110.159 87.061L47.4888 152.155C47.2287 152.425 46.9452 152.606 46.6551 152.688L46.654 152.69ZM22.9898 83.7184C22.243 84.4929 21.9333 85.953 22.2976 86.9722L45.3704 151.43C45.5333 151.881 45.8007 152.168 46.1247 152.24C46.4521 152.313 46.8127 152.163 47.1415 151.821L109.812 86.7264C110.558 85.9519 110.868 84.4917 110.504 83.4725L87.431 19.0142C87.2681 18.5636 87.0007 18.2765 86.6768 18.2046C86.3513 18.1331 85.9892 18.2829 85.6584 18.6246L22.9898 83.7184Z" fill="#0B4D5E"/>
<path d="M31.7174 86.8762L46.5826 155.158C46.8306 156.299 46.1217 156.991 44.9982 156.703L43.3417 156.279C42.2183 155.991 40.9885 154.868 40.5947 153.768L15.5852 83.9087C15.3306 83.1997 15.2356 82.4453 15.3008 81.8929L13.3924 81.4047C13.3267 81.9555 13.4221 82.7114 13.6768 83.4205L39.3824 155.227C39.7762 156.327 41.006 157.45 42.1294 157.738L47.3148 159.065C48.4383 159.353 49.1488 158.661 48.8992 157.52L33.6259 87.3644C33.5713 87.1139 33.5504 86.8421 33.5598 86.56L31.6511 86.0768C31.6428 86.3569 31.6632 86.6272 31.7174 86.8762Z" fill="#0B4D5E"/>
<path d="M48.2446 159.313C47.9561 159.395 47.6202 159.392 47.2572 159.299L42.0718 157.972C40.8608 157.662 39.5825 156.491 39.1584 155.308L13.4528 83.5012C13.1942 82.7782 13.0827 81.9833 13.1579 81.3729L13.189 81.103L15.5645 81.7112L15.5399 81.9223C15.4766 82.4523 15.5813 83.1822 15.8113 83.828L40.8192 153.688C41.1886 154.719 42.3453 155.778 43.4003 156.047L45.0568 156.471C45.5178 156.587 45.9019 156.527 46.1392 156.294C46.3784 156.062 46.4517 155.678 46.3506 155.211L31.4839 86.9294C31.4258 86.6665 31.4016 86.3772 31.4116 86.0682L31.4216 85.7708L33.8043 86.3753L33.7986 86.571C33.7907 86.841 33.8105 87.0914 33.8596 87.3167L49.1325 157.471C49.2734 158.107 49.151 158.65 48.7884 159.003C48.6377 159.149 48.4522 159.256 48.2435 159.315L48.2446 159.313ZM13.6133 81.7086C13.6052 82.1995 13.7093 82.7991 13.9024 83.3382L39.608 155.145C39.9774 156.176 41.1336 157.233 42.1875 157.504L47.373 158.831C47.834 158.948 48.2173 158.884 48.4554 158.654C48.6931 158.422 48.7679 158.038 48.6653 157.572L33.3924 87.4177C33.3466 87.2098 33.3212 86.9861 33.317 86.7497L31.8924 86.3883C31.902 86.5446 31.9205 86.6916 31.9496 86.8289L46.8163 155.111C46.9557 155.747 46.8332 156.291 46.4707 156.643C46.1122 156.992 45.5644 157.101 44.9379 156.94L43.2815 156.515C42.0705 156.205 40.7911 155.036 40.3666 153.852L15.3612 83.9894C15.1325 83.3483 15.0174 82.6515 15.0462 82.076L13.6133 81.7086Z" fill="#0B4D5E"/>
<path d="M98.3464 18.077C98.0226 18.0235 97.6441 18.1796 97.2767 18.5618L97.2603 18.5798L34.6326 83.7825C34.0041 84.4363 33.595 85.5583 33.5617 86.5616L31.6506 86.0758C31.6839 85.0725 32.0961 83.9496 32.7215 83.2967L95.3665 18.0791C95.7634 17.6667 96.1655 17.5173 96.509 17.6054C96.6539 17.6428 98.0088 17.9923 98.3464 18.077Z" fill="#F0F4FF"/>
<path d="M33.7914 86.8676L31.4048 86.2609L31.411 86.0668C31.4461 84.9825 31.9028 83.8002 32.5478 83.1283L95.1943 17.9103C95.6398 17.4473 96.1234 17.258 96.5653 17.3716C96.7123 17.4102 98.0652 17.7585 98.4008 17.8421L98.3061 18.3142C98.051 18.2746 97.7452 18.4184 97.4471 18.729L34.805 83.9508C34.2378 84.5404 33.8341 85.5938 33.8015 86.5703L33.7914 86.8676ZM31.9016 85.8905L33.3422 86.2557C33.4399 85.2457 33.8632 84.2319 34.4599 83.6121L97.0876 18.4095C97.2066 18.2854 97.3292 18.1802 97.4496 18.0958C96.9971 17.9801 96.5301 17.8602 96.4492 17.838C96.182 17.7734 95.8591 17.9154 95.5388 18.2474L32.8939 83.465C32.3631 84.0191 31.9761 84.9741 31.9 85.8909L31.9016 85.8905Z" fill="#0B4D5E"/>
<path d="M34.633 83.7825C33.8299 84.6215 33.3793 86.2221 33.6263 87.365L48.906 157.549C49.1192 158.591 48.5265 159.248 47.5554 159.111C48.0723 159.197 48.6628 159.144 49.217 158.982C49.8326 158.802 50.407 158.494 50.8022 158.088L113.477 92.9754C114.281 92.1394 114.731 90.5373 114.483 89.3964L99.1832 19.1177C98.9332 17.9756 98.0815 17.7275 97.2771 18.5618L34.633 83.7825Z" fill="#8AE5CC"/>
<path d="M49.2477 159.224C48.6538 159.393 48.0414 159.438 47.517 159.349L47.5872 158.873C47.969 158.926 48.2844 158.84 48.4798 158.629C48.6917 158.4 48.7602 158.034 48.6709 157.597L33.3921 87.4164C33.126 86.1886 33.5948 84.5176 34.4592 83.6143L97.1033 18.3936C97.5556 17.9254 98.0523 17.7357 98.5007 17.8659C98.949 17.9961 99.2742 18.4224 99.4163 19.0681L114.718 89.3463C114.986 90.5753 114.516 92.2432 113.649 93.1438L50.9745 158.256C50.5677 158.675 49.9681 159.016 49.2845 159.213L49.2477 159.224ZM48.9537 158.802C49.019 158.787 49.0778 158.772 49.1494 158.75C49.7547 158.574 50.2807 158.278 50.6295 157.917L113.303 92.8071C114.057 92.0238 114.483 90.5157 114.249 89.4478L98.9476 19.1695C98.8476 18.7127 98.6365 18.4079 98.3689 18.33C98.1053 18.2544 97.7677 18.3972 97.4479 18.7307L34.8053 83.951C34.0535 84.7369 33.6285 86.2466 33.8609 87.315L49.1405 157.499C49.2463 158.011 49.1796 158.465 48.9556 158.803L48.9537 158.802Z" fill="#0B4D5E"/>
<path d="M76.968 118.996L53.7369 142.978L52.0231 135.49L75.2523 111.507L76.968 118.996Z" fill="#0B4D5E"/>
<path d="M53.6027 143.463L51.7595 135.415L51.8504 135.32L75.3849 111.023L77.2286 119.072L77.1377 119.167L53.6027 143.463ZM52.2848 135.565L53.8726 142.493L76.7064 118.921L75.1181 111.992L52.2848 135.565Z" fill="#0B4D5E"/>
</g>
<path d="M132.708 33.1548C147.013 32.2978 147.715 31.5958 148.58 17.3638C149.445 31.5948 150.147 32.2968 164.46 33.1548C150.146 34.0118 149.445 34.7138 148.58 48.9458C147.715 34.7148 147.013 34.0128 132.708 33.1548Z" fill="#F0F4FF"/>
<path d="M148.581 49.31C148.389 49.31 148.23 49.161 148.218 48.968C147.364 34.941 146.783 34.363 132.686 33.519C132.494 33.507 132.342 33.348 132.342 33.155C132.342 32.962 132.494 32.803 132.686 32.791C146.783 31.947 147.364 31.369 148.218 17.342C148.23 17.15 148.389 17 148.581 17C148.773 17 148.932 17.149 148.944 17.342C149.795 31.369 150.376 31.947 164.483 32.791C164.675 32.803 164.827 32.962 164.827 33.155C164.827 33.348 164.675 33.507 164.483 33.519C150.376 34.363 149.795 34.941 148.944 48.968C148.932 49.16 148.773 49.31 148.581 49.31ZM137.65 33.155C145.967 33.971 147.76 35.763 148.581 44.056C149.399 35.762 151.192 33.971 159.517 33.155C151.192 32.339 149.399 30.547 148.581 22.254C147.76 30.548 145.967 32.339 137.65 33.155Z" fill="#0B4D5E"/>
<path d="M143.52 101.943C143.385 101.943 143.272 101.907 143.159 101.837C142.888 101.645 142.821 101.278 143.001 101.002C145.55 97.3588 145.415 92.2285 142.617 86.55C136.752 74.6696 120.982 64.2647 107.468 63.3848C101.128 62.9562 96.2327 64.7046 93.706 68.3233C93.5029 68.5985 93.1419 68.6685 92.8486 68.479C92.5779 68.2895 92.5102 67.9195 92.7133 67.6465V67.633L97.8345 60.3232C100.632 56.3593 105.911 54.4305 112.702 54.8727C126.577 55.7774 142.798 66.4665 148.844 78.7057C151.867 84.7881 151.958 90.3471 149.137 94.3606L143.994 101.67C143.881 101.837 143.7 101.918 143.497 101.918L143.52 101.943Z" fill="#0B4D5E"/>
<path d="M143.52 102.281C143.323 102.281 143.147 102.229 142.978 102.123C142.545 101.816 142.437 101.245 142.719 100.816C145.201 97.2699 145.054 92.2591 142.313 86.7002C136.49 74.9032 120.846 64.5952 107.445 63.7221C101.223 63.2958 96.4356 65.0013 93.9832 68.5163C93.6674 68.9427 93.1034 69.0465 92.6657 68.7622C92.4446 68.6088 92.3093 68.3899 92.2664 68.1418C92.2303 67.9161 92.2799 67.6906 92.404 67.4988C92.413 67.4785 92.422 67.456 92.4356 67.4402L97.5591 60.1305C100.424 56.0719 105.812 54.0866 112.727 54.5355C126.717 55.447 143.057 66.2242 149.153 78.5558C152.226 84.7397 152.321 90.4227 149.417 94.5558L144.275 101.865C144.136 102.068 143.921 102.202 143.666 102.242C143.623 102.267 143.576 102.281 143.524 102.281H143.52ZM105.625 62.9822C106.231 62.9822 106.852 63.0024 107.488 63.0476C121.106 63.9342 137 74.4114 142.92 86.4001C145.774 92.1915 145.9 97.4458 143.276 101.195C143.202 101.31 143.231 101.475 143.353 101.561C143.373 101.572 143.393 101.584 143.414 101.59C143.536 101.561 143.653 101.565 143.711 101.482L148.855 94.1656C151.61 90.2468 151.497 84.8096 148.537 78.8559C142.538 66.716 126.45 56.1079 112.675 55.21C106.008 54.7655 100.826 56.6607 98.1073 60.5186L93.0154 67.783C93.0041 67.8079 92.9928 67.8304 92.9771 67.8485C92.9252 67.9206 92.9229 67.9883 92.9297 68.0357C92.941 68.1011 92.9771 68.1621 93.0357 68.2028C93.1688 68.2862 93.3289 68.2524 93.426 68.1215C95.761 64.778 100.052 62.9822 105.618 62.9822H105.625Z" fill="#0B4D5E"/>
<path d="M155.116 79.3957C162.719 94.7888 154.732 106.36 137.338 105.216C119.898 104.075 99.5712 90.6217 91.9682 75.2399C84.3653 59.8467 92.3518 48.2755 109.769 49.4193C127.163 50.5631 147.535 64.0138 155.116 79.3957ZM98.7364 75.6935C104.692 87.777 120.688 98.3241 134.36 99.2288C148.032 100.133 154.281 91.0392 148.325 78.9422C142.369 66.8587 126.373 56.3116 112.702 55.4069C99.0523 54.5022 92.7804 63.5987 98.7364 75.6822" fill="#F0F4FF"/>
<path d="M139.686 105.633C138.913 105.633 138.125 105.606 137.315 105.554C119.797 104.408 99.3186 90.8765 91.6638 75.3886C87.9774 67.921 87.7743 61.0716 91.0975 56.0993C94.4974 51.0051 101.144 48.5076 109.791 49.0806C127.323 50.2334 147.79 63.7653 155.42 79.2464C159.109 86.714 159.312 93.5657 155.989 98.5403C152.907 103.154 147.17 105.633 139.686 105.633ZM107.418 49.6807C100.158 49.6807 94.6124 52.0541 91.6593 56.476C88.4782 61.2386 88.697 67.8511 92.2706 75.0908C99.8307 90.3847 120.054 103.747 137.358 104.88C145.739 105.439 152.162 103.048 155.422 98.1659C158.606 93.4011 158.387 86.7908 154.811 79.5488C147.278 64.2617 127.064 50.899 109.746 49.7597C108.95 49.7078 108.176 49.6807 107.418 49.6807ZM136.214 99.6301C135.603 99.6301 134.976 99.6097 134.337 99.5669C120.539 98.6532 104.431 88.009 98.432 75.8421C98.423 75.824 98.4162 75.806 98.4117 75.788C95.5284 69.9132 95.3841 64.5212 98.0056 60.6001C100.695 56.5821 105.915 54.626 112.722 55.066C126.52 55.9797 142.628 66.6238 148.627 78.7908C151.533 84.6949 151.684 90.1094 149.054 94.0395C146.622 97.674 142.1 99.6279 136.212 99.6279L136.214 99.6301ZM99.0592 75.5872C104.979 87.5443 120.814 97.9944 134.38 98.8923C140.927 99.3299 145.949 97.471 148.494 93.6673C150.985 89.947 150.816 84.7716 148.02 79.0954C142.118 67.1202 126.263 56.6475 112.679 55.7473C106.114 55.3051 101.117 57.1709 98.5696 60.9814C96.0789 64.7017 96.2481 69.8703 99.0388 75.5353C99.0479 75.5533 99.0546 75.5691 99.0592 75.5872Z" fill="#0B4D5E"/>
<path d="M155.386 98.7966L150.242 106.106C147.016 110.713 140.676 113.272 132.013 112.712C114.551 111.582 94.1787 98.165 86.5758 82.8079C82.7404 75.0809 82.8758 68.3195 86.1471 63.6652L91.2909 56.3555C88.0196 61.021 87.8843 67.7961 91.697 75.4983C99.3225 90.8554 119.717 104.261 137.157 105.403C145.82 105.962 152.16 103.404 155.386 98.7966Z" fill="#8AE5CC"/>
<path d="M134.34 113.129C133.575 113.129 132.79 113.102 131.991 113.052C114.434 111.915 93.9266 98.415 86.2717 82.9587C82.5086 75.3805 82.3665 68.4589 85.8679 63.4708L91.0118 56.1633C91.1201 56.0076 91.3321 55.9738 91.4833 56.0799C91.6367 56.1859 91.6728 56.3979 91.5668 56.549C88.212 61.3319 88.3654 68.0076 91.9999 75.3488C99.5713 90.5999 119.838 103.929 137.175 105.064C145.412 105.598 151.768 103.32 155.071 98.6541L155.107 98.6021C155.215 98.4465 155.425 98.4126 155.578 98.5209C155.732 98.6269 155.768 98.839 155.662 98.9902C155.648 99.0082 155.635 99.0263 155.623 99.0421L150.516 106.3C147.404 110.742 141.712 113.127 134.335 113.127L134.34 113.129ZM89.146 59.9941L86.4251 63.861C83.0704 68.6348 83.2329 75.3105 86.8809 82.6585C94.4388 97.923 114.694 111.254 132.036 112.376C140.298 112.917 146.671 110.616 149.965 105.914L152.657 102.09C148.952 104.876 143.626 106.158 137.135 105.743C119.583 104.594 99.0636 91.094 91.3953 75.6512C88.5278 69.8622 87.7766 64.4521 89.146 59.9941Z" fill="#0B4D5E"/>
<path d="M141.376 107.404C139.188 107.404 136.548 108.742 135.352 110.495C134.833 111.285 134.675 112.027 134.924 112.575L148.866 141.372C148.956 141.139 149.092 140.92 149.25 140.69C150.784 138.452 154.078 136.857 156.762 137.076C157.056 137.101 157.326 137.137 157.575 137.198L143.655 108.39C143.655 108.39 143.655 108.352 143.632 108.329C143.361 107.806 142.685 107.479 141.737 107.404H141.376Z" fill="#8AE5CC"/>
<path d="M148.866 141.709C148.735 141.709 148.618 141.634 148.562 141.519L134.617 112.723C134.317 112.057 134.477 111.202 135.068 110.309C136.332 108.459 139.041 107.067 141.374 107.067H141.735C142.834 107.153 143.603 107.543 143.93 108.175C143.946 108.202 143.957 108.231 143.968 108.26L157.879 137.052C157.936 137.172 157.922 137.312 157.836 137.413C157.755 137.515 157.618 137.558 157.493 137.528C157.29 137.479 157.058 137.443 156.735 137.416C154.148 137.201 151.003 138.731 149.532 140.885C149.406 141.066 149.27 141.278 149.184 141.497C149.137 141.623 149.017 141.707 148.882 141.713H148.869L148.866 141.709ZM141.712 107.741H141.378C139.283 107.741 136.76 109.034 135.634 110.686C135.188 111.365 135.039 112.005 135.233 112.436L148.887 140.628C148.916 140.583 148.943 140.54 148.975 140.497C150.574 138.162 154.035 136.506 156.792 136.736C156.86 136.741 156.927 136.748 156.988 136.754L143.352 108.536C143.341 108.515 143.334 108.493 143.328 108.472C143.111 108.071 142.527 107.805 141.712 107.739V107.741Z" fill="#0B4D5E"/>
<path d="M155.409 136.438C153.221 136.438 150.604 137.776 149.386 139.543C148.844 140.326 148.709 141.063 148.957 141.614C149.228 142.167 149.927 142.521 150.897 142.595C153.153 142.755 156.019 141.37 157.305 139.491C157.846 138.708 157.981 137.959 157.711 137.406C157.462 136.867 156.808 136.535 155.906 136.45H155.793C155.658 136.45 155.522 136.438 155.387 136.438H155.409Z" fill="#0B4D5E"/>
<path d="M151.251 142.946C151.122 142.946 150.996 142.941 150.872 142.932C149.771 142.849 148.981 142.434 148.654 141.764C148.343 141.076 148.508 140.223 149.108 139.352C150.378 137.507 153.072 136.112 155.38 136.101H155.422C155.481 136.101 155.544 136.103 155.605 136.108L155.905 136.112C156.984 136.212 157.721 136.62 158.019 137.265C158.346 137.926 158.188 138.813 157.586 139.684C156.318 141.54 153.548 142.946 151.253 142.946H151.251ZM155.389 136.776C153.315 136.785 150.804 138.082 149.663 139.733C149.209 140.392 149.062 141.028 149.266 141.473C149.478 141.904 150.082 142.192 150.922 142.256C153.096 142.407 155.804 141.08 157.024 139.296C157.484 138.63 157.624 137.994 157.405 137.552C157.214 137.134 156.654 136.857 155.871 136.785H155.79C155.718 136.785 155.646 136.785 155.571 136.78L155.386 136.776H155.389Z" fill="#0B4D5E"/>
<defs>
<clipPath id="clip0_9736_1021">
<rect width="100.323" height="131.78" fill="white" transform="translate(0 36.2217) rotate(-15.8681)"/>
</clipPath>
</defs>
</svg>
