<svg width="411" height="300" viewBox="0 0 411 300" fill="none" xmlns="http://www.w3.org/2000/svg">
<path d="M116.712 64.2195C116.712 60.2323 119.944 57 123.931 57H272.834C276.821 57 280.053 60.2323 280.053 64.2195V96.7073C280.053 100.695 276.821 103.927 272.834 103.927H123.931C119.944 103.927 116.712 100.695 116.712 96.7073V64.2195Z" fill="white"/>
<path d="M272.834 102.122V103.927H123.932V102.122H272.834ZM278.248 96.707V64.2197C278.248 61.2293 275.824 58.8048 272.834 58.8047H123.932C120.941 58.8047 118.517 61.2293 118.517 64.2197V96.707C118.517 99.6974 120.941 102.122 123.932 102.122V103.927L123.56 103.917C119.868 103.73 116.909 100.77 116.722 97.0791L116.712 96.707V64.2197C116.712 60.3572 119.745 57.2033 123.56 57.0098L123.932 57H272.834L273.205 57.0098C277.02 57.203 280.054 60.357 280.054 64.2197V96.707L280.044 97.0791C279.857 100.771 276.897 103.73 273.205 103.917L272.834 103.927V102.122C275.824 102.122 278.248 99.6974 278.248 96.707Z" fill="#0B4D5E"/>
<path d="M99.5656 128.293C99.5656 124.306 102.798 121.073 106.785 121.073H289.98C293.967 121.073 297.2 124.306 297.2 128.293V170.707C297.2 174.695 293.967 177.927 289.98 177.927H106.785C102.798 177.927 99.5656 174.695 99.5656 170.707V128.293Z" fill="#8AE5CC"/>
<path d="M289.981 177.024V177.927H106.785V177.024H289.981ZM296.297 170.707V128.293C296.297 124.804 293.469 121.976 289.981 121.976H106.785C103.296 121.976 100.468 124.804 100.468 128.293V170.707C100.468 174.196 103.296 177.024 106.785 177.024V177.927L106.413 177.918C102.722 177.731 99.7626 174.77 99.5753 171.079L99.5656 170.707V128.293C99.5656 124.43 102.599 121.277 106.413 121.083L106.785 121.073H289.981L290.352 121.083C294.166 121.276 297.199 124.43 297.199 128.293V170.707L297.191 171.079C297.003 174.771 294.043 177.731 290.352 177.918L289.981 177.927V177.024C293.469 177.024 296.297 174.196 296.297 170.707Z" fill="#0B4D5E"/>
<path d="M116.712 202.293C116.712 198.306 119.944 195.073 123.931 195.073H272.834C276.821 195.073 280.053 198.306 280.053 202.293V234.781C280.053 238.768 276.821 242 272.834 242H123.931C119.944 242 116.712 238.768 116.712 234.781V202.293Z" fill="white"/>
<path d="M272.834 240.195V242H123.932V240.195H272.834ZM278.248 234.78V202.293C278.248 199.303 275.824 196.878 272.834 196.878H123.932C120.941 196.878 118.517 199.303 118.517 202.293V234.78C118.517 237.771 120.941 240.195 123.932 240.195V242L123.56 241.99C119.868 241.803 116.909 238.844 116.722 235.152L116.712 234.78V202.293C116.712 198.43 119.745 195.277 123.56 195.083L123.932 195.073H272.834L273.205 195.083C277.02 195.276 280.054 198.43 280.054 202.293V234.78L280.044 235.152C279.857 238.844 276.897 241.803 273.205 241.99L272.834 242V240.195C275.824 240.195 278.248 237.771 278.248 234.78Z" fill="#0B4D5E"/>
<path d="M277.084 152.48C277.115 152.48 277.145 152.485 277.176 152.488C277.2 152.491 277.224 152.492 277.247 152.496C277.287 152.503 277.327 152.515 277.366 152.527C277.379 152.53 277.391 152.532 277.403 152.536C277.408 152.538 277.413 152.538 277.417 152.539L313.889 165.407C313.892 165.409 313.895 165.41 313.899 165.411C313.944 165.428 313.989 165.448 314.032 165.471C314.054 165.482 314.074 165.495 314.095 165.508C314.118 165.522 314.14 165.537 314.162 165.553C314.182 165.567 314.202 165.582 314.221 165.598C314.226 165.602 314.233 165.607 314.238 165.611C314.255 165.626 314.27 165.643 314.286 165.658C314.301 165.673 314.316 165.686 314.33 165.701C314.361 165.735 314.389 165.771 314.415 165.809C314.43 165.83 314.442 165.852 314.455 165.874C314.467 165.894 314.479 165.913 314.489 165.934C314.503 165.96 314.515 165.986 314.526 166.013C314.534 166.03 314.54 166.049 314.546 166.067C314.561 166.11 314.574 166.153 314.584 166.198C314.59 166.226 314.595 166.253 314.599 166.28C314.602 166.306 314.604 166.331 314.606 166.357C314.607 166.38 314.608 166.404 314.608 166.428C314.608 166.449 314.611 166.471 314.609 166.492C314.609 166.499 314.607 166.505 314.607 166.512C314.606 166.514 314.607 166.516 314.607 166.518L314.449 168.414C314.391 169.122 313.88 169.71 313.187 169.865L298.69 173.122L292.644 185.536C292.054 186.747 290.333 186.756 289.731 185.552L275.629 157.36C275.475 157.051 275.423 156.701 275.481 156.361L275.987 153.379L276.011 153.289C276.014 153.279 276.016 153.268 276.019 153.258C276.032 153.214 276.047 153.171 276.066 153.129C276.068 153.123 276.071 153.116 276.074 153.11C276.092 153.07 276.112 153.032 276.135 152.995C276.143 152.983 276.15 152.97 276.158 152.958C276.179 152.927 276.202 152.899 276.226 152.87C276.233 152.862 276.237 152.852 276.244 152.844C276.251 152.836 276.259 152.831 276.266 152.823C276.288 152.799 276.312 152.777 276.336 152.755C276.354 152.739 276.372 152.725 276.391 152.71C276.414 152.692 276.438 152.674 276.463 152.657C276.485 152.643 276.508 152.63 276.53 152.617C276.555 152.604 276.579 152.59 276.605 152.578C276.627 152.568 276.65 152.56 276.673 152.551C276.702 152.54 276.731 152.529 276.762 152.521C276.785 152.514 276.808 152.51 276.831 152.505C276.853 152.5 276.874 152.493 276.896 152.489C276.904 152.488 276.913 152.49 276.922 152.488C276.948 152.485 276.974 152.484 277 152.483C277.028 152.481 277.056 152.479 277.084 152.48ZM291.727 182.89V182.893L277.055 153.561L276.548 156.542C276.529 156.656 276.546 156.772 276.598 156.875L290.699 185.068C290.888 185.444 291.403 185.464 291.629 185.133L291.67 185.063L297.944 172.18L312.949 168.809C313.152 168.763 313.308 168.608 313.357 168.411L313.37 168.325L313.526 166.428H313.528L277.057 153.561L291.727 182.89Z" fill="white"/>
<path d="M298.133 169.886L291.727 182.892L277.055 153.561L276.548 156.542C276.528 156.655 276.546 156.772 276.597 156.875L290.699 185.067C290.9 185.469 291.474 185.466 291.67 185.062L297.944 172.179L312.949 168.809C313.18 168.757 313.351 168.561 313.37 168.325L313.527 166.428L298.133 169.886Z" fill="#0B4D5E"/>
<path d="M277.056 153.561L291.728 182.892L298.135 169.886L313.529 166.428L277.056 153.561Z" fill="#8AE5CC"/>
</svg>
