<svg width="411" height="300" viewBox="0 0 411 300" fill="none" xmlns="http://www.w3.org/2000/svg">
<path d="M205.5 221.564C255.637 221.564 296.285 180.922 296.285 130.779C296.285 80.6364 255.637 40 205.5 40C155.363 40 114.715 80.6423 114.715 130.785C114.715 180.928 155.363 221.57 205.5 221.57V221.564Z" fill="#0B4D5E"/>
<path d="M296.108 130.779C296.108 80.7339 255.539 40.1759 205.5 40.1758C155.46 40.1758 114.891 80.7397 114.891 130.785C114.891 180.772 155.365 221.297 205.324 221.392V221.388H205.5C255.539 221.388 296.108 180.825 296.108 130.779ZM296.461 130.779C296.461 180.96 255.829 221.643 205.676 221.738V221.746H205.5C155.266 221.746 114.539 181.025 114.539 130.785C114.539 80.5452 155.266 39.8242 205.5 39.8242C255.734 39.8243 296.461 80.5394 296.461 130.779Z" fill="#0B4D5E"/>
<path d="M163.546 50.2539C134.523 65.4035 114.715 95.7799 114.715 130.785C114.715 180.922 155.363 221.57 205.5 221.57C235.651 221.57 262.366 206.871 278.874 184.257L221.21 117.255L163.546 50.2539Z" fill="#8AE5CC"/>
<path d="M279.008 184.142L279.099 184.248L279.017 184.36C262.476 207.018 235.709 221.746 205.5 221.746C155.266 221.746 114.539 181.019 114.539 130.785C114.539 95.7121 134.386 65.2764 163.465 50.0977L163.589 50.0332L279.008 184.142ZM114.891 130.785C114.891 180.825 155.461 221.394 205.5 221.394C235.542 221.393 262.165 206.771 278.648 184.264L163.504 50.4756C134.604 65.6178 114.891 95.8982 114.891 130.785Z" fill="#0B4D5E"/>
<path d="M205.5 221.565C228.186 221.565 248.926 213.245 264.835 199.49C262.728 198.161 260.568 196.915 258.355 195.758C246.053 202.618 226.869 207.193 205.405 207.193C183.948 207.015 164.953 202.618 152.634 195.758C150.42 196.915 148.26 198.161 146.154 199.49C162.069 213.245 182.808 221.565 205.494 221.565H205.5Z" fill="#F0F4FF"/>
<path d="M258.436 195.602C260.654 196.761 262.818 198.01 264.928 199.342L265.129 199.468L264.95 199.623C249.01 213.405 228.23 221.741 205.5 221.741H205.495C182.765 221.741 161.984 213.405 146.039 199.623L145.859 199.468L146.06 199.342C148.171 198.01 150.335 196.761 152.552 195.602L152.636 195.558L152.719 195.604C165.004 202.445 183.967 206.838 205.406 207.016C226.848 207.016 246.001 202.446 258.269 195.604L258.352 195.558L258.436 195.602ZM258.355 195.957C246.017 202.809 226.84 207.369 205.405 207.369H205.404C183.976 207.191 164.987 202.809 152.632 195.957C150.523 197.063 148.463 198.25 146.451 199.513C162.311 213.148 182.939 221.389 205.495 221.389H205.5C228.056 221.389 248.683 213.148 264.538 199.513C262.525 198.25 260.465 197.063 258.355 195.957Z" fill="#0B4D5E"/>
<path d="M205.732 195.679C232.17 195.679 253.602 189.673 253.602 182.263C253.602 174.853 232.17 168.846 205.732 168.846C179.294 168.846 157.862 174.853 157.862 182.263C157.862 189.673 179.294 195.679 205.732 195.679Z" fill="#0B4D5E"/>
<path d="M253.425 182.263C253.425 180.501 252.15 178.782 249.743 177.187C247.342 175.596 243.856 174.157 239.534 172.945C230.89 170.523 218.939 169.021 205.732 169.021C192.524 169.021 180.573 170.523 171.93 172.945C167.607 174.157 164.122 175.596 161.721 177.187C159.314 178.782 158.038 180.501 158.038 182.263C158.038 184.024 159.314 185.743 161.721 187.338C164.122 188.929 167.607 190.368 171.93 191.58C180.573 194.003 192.524 195.504 205.732 195.504C218.939 195.504 230.89 194.003 239.534 191.58C243.856 190.368 247.342 188.929 249.743 187.338C252.15 185.743 253.425 184.024 253.425 182.263ZM253.778 182.263C253.778 184.206 252.374 186.017 249.937 187.632C247.493 189.251 243.968 190.703 239.628 191.919C230.946 194.352 218.962 195.855 205.732 195.855C192.502 195.855 180.518 194.352 171.835 191.919C167.496 190.703 163.971 189.251 161.527 187.632C159.09 186.017 157.686 184.206 157.686 182.263C157.686 180.319 159.09 178.509 161.527 176.894C163.971 175.274 167.496 173.822 171.835 172.605C180.518 170.172 192.502 168.67 205.732 168.67C218.962 168.67 230.946 170.172 239.628 172.605C243.968 173.822 247.493 175.274 249.937 176.894C252.374 178.509 253.778 180.319 253.778 182.263Z" fill="#0B4D5E"/>
<path d="M256.77 192.767C244.807 199.455 226.34 203.674 205.583 203.674C184.825 203.674 166.359 199.455 154.396 192.767L155.802 187.136C167.409 193.645 185.353 197.865 205.583 197.865C225.812 197.865 243.928 193.817 255.541 187.136L256.77 192.767Z" fill="#F0F4FF"/>
<path d="M255.713 187.099L256.941 192.729L256.97 192.857L256.856 192.921C244.858 199.628 226.359 203.85 205.583 203.85C184.806 203.85 166.307 199.628 154.31 192.921L154.192 192.855L154.225 192.725L155.687 186.869L155.888 186.982C167.461 193.473 185.374 197.688 205.583 197.688C225.794 197.688 243.876 193.644 255.453 186.983L255.662 186.863L255.713 187.099ZM154.599 192.678C166.531 199.309 184.913 203.498 205.583 203.498C226.255 203.498 244.637 199.308 256.569 192.676L255.42 187.406C243.764 194.037 225.71 198.04 205.583 198.04C185.449 198.04 167.563 193.864 155.917 187.398L154.599 192.678Z" fill="#0B4D5E"/>
<path d="M255.363 187.142C243.756 193.651 225.812 197.87 205.405 197.87C199.939 197.853 194.48 197.556 189.05 196.992C185.247 197.912 181.354 198.387 177.443 198.399C169.373 198.446 161.427 196.381 154.401 192.417L154.223 192.767C166.186 199.455 184.653 203.674 205.411 203.674C226.168 203.674 244.813 199.455 256.598 192.767L255.363 187.136V187.142Z" fill="#0B4D5E"/>
<path d="M255.349 187.118L255.535 187.098L256.769 192.729L256.798 192.856L256.684 192.92C244.864 199.627 226.187 203.85 205.411 203.85C184.634 203.85 166.135 199.628 154.138 192.921L153.99 192.838L154.066 192.688L154.328 192.174L154.488 192.264C161.487 196.213 169.403 198.27 177.442 198.223L178.174 198.215C181.824 198.15 185.455 197.68 189.009 196.821L189.039 196.814L189.068 196.817C194.492 197.38 199.945 197.676 205.404 197.693C225.791 197.693 243.704 193.479 255.277 186.988L255.349 187.118ZM255.242 187.407C243.962 193.667 226.83 197.782 207.312 198.034L205.404 198.047C199.943 198.029 194.488 197.732 189.062 197.17C185.493 198.031 181.846 198.501 178.18 198.566L177.444 198.574C169.404 198.621 161.488 196.58 154.475 192.659L154.457 192.694C166.39 199.315 184.758 203.498 205.411 203.498C226.083 203.498 244.641 199.308 256.397 192.677L255.242 187.407Z" fill="#0B4D5E"/>
<path d="M166.257 124.881C163.539 122.437 159.207 124.371 159.207 128.026V141.752C159.207 147.087 165.462 149.976 169.521 146.517V132.216C169.521 129.421 168.334 126.757 166.257 124.893V124.881Z" fill="#F0F4FF"/>
<path d="M159.032 128.026C159.032 124.218 163.543 122.203 166.374 124.75L166.433 124.802V124.817C168.51 126.711 169.697 129.397 169.697 132.215V146.598L169.635 146.65C165.462 150.207 159.032 147.236 159.032 141.751V128.026ZM159.383 141.751C159.383 146.91 165.399 149.714 169.345 146.432V132.215C169.345 129.47 168.179 126.854 166.139 125.024L166.081 124.971V124.963C163.474 122.697 159.383 124.548 159.383 128.026V141.751Z" fill="#0B4D5E"/>
<path fill-rule="evenodd" clip-rule="evenodd" d="M226.714 141.2C219.213 146.564 209.897 149.745 199.791 149.745C175.022 149.745 154.942 130.625 154.942 107.043C154.942 83.4613 175.028 64.3418 199.797 64.3418C212.49 64.3418 223.955 69.362 232.108 77.4323C246.54 80.6604 257.322 93.5432 257.322 108.948C257.322 126.216 243.768 140.321 226.714 141.2Z" fill="#0B4D5E"/>
<path d="M154.766 107.043C154.766 83.3559 174.94 64.166 199.797 64.166C212.518 64.166 224.011 69.1902 232.195 77.2715C246.681 80.5351 257.497 93.4764 257.497 108.948C257.497 126.293 243.898 140.462 226.775 141.371C219.252 146.739 209.916 149.921 199.791 149.921C174.934 149.921 154.766 130.73 154.766 107.043ZM155.117 107.043C155.117 130.52 175.112 149.568 199.791 149.568C209.86 149.568 219.14 146.4 226.612 141.057L226.654 141.026L226.705 141.023C243.666 140.15 257.146 126.122 257.146 108.948C257.146 93.6277 246.422 80.8151 232.07 77.6045L232.02 77.5928L231.985 77.5576C223.864 69.5196 212.443 64.5176 199.797 64.5176C175.117 64.5176 155.118 83.5664 155.117 107.043Z" fill="#0B4D5E"/>
<path d="M243.692 139.823H243.633L243.663 108.907C243.681 92.4698 230.359 79.13 213.921 79.1182H198.772C182.334 79.13 169.018 92.4638 169.03 108.907L169.06 139.823H169.001C169.001 161.512 185.301 179.392 206.32 181.884C206.32 181.884 206.338 181.884 206.344 181.884C206.349 181.884 206.361 181.884 206.367 181.884C227.386 179.386 243.686 161.506 243.686 139.818L243.692 139.823Z" fill="#8AE5CC"/>
<path d="M243.478 108.144C243.096 92.4097 230.418 79.715 214.685 79.3047L213.921 79.2939H198.772C182.432 79.3057 169.195 92.5612 169.207 108.907L169.236 139.999H169.178C169.266 161.516 185.462 179.229 206.333 181.708H206.354C227.223 179.224 243.418 161.513 243.508 139.999H243.457L243.487 108.907L243.478 108.144ZM243.809 139.691L243.817 139.699L244.118 139.999H243.861C243.77 161.696 227.435 179.557 206.388 182.059L206.378 182.06H206.309L206.299 182.059C185.194 179.556 168.825 161.602 168.825 139.823V139.647H168.884L168.854 108.907C168.842 92.3669 182.237 78.9546 198.771 78.9424H213.921L214.694 78.9521C230.871 79.3737 243.856 92.6309 243.838 108.907L243.809 139.691Z" fill="#0B4D5E"/>
<path d="M206.371 122.757V145.734C204.502 145.574 202.692 144.992 201.078 144.025C200.015 143.39 198.633 143.574 197.885 144.559C196.639 146.203 197.79 148.012 199.357 148.012H206.371V156.148C204.484 154.92 202.057 154.754 199.992 155.786L193.304 159.151H193.263L193.702 159.198C202.116 160.065 210.59 160.047 218.998 159.151C218.998 162.391 216.376 165.014 213.136 165.014H203.612C203.06 165.014 202.793 165.696 203.208 166.064C204.181 166.942 205.499 168.17 206.371 168.995V181.89C185.329 179.421 169.004 161.53 169.004 139.823H169.063L169.034 108.907C169.016 92.4638 182.344 79.1182 198.793 79.1182H213.925C230.356 79.1182 243.678 92.4342 243.684 108.866L243.696 143.853C243.696 136.94 238.041 131.338 231.134 131.338H214.957C212.008 131.338 209.462 128.964 209.563 126.015C209.623 124.211 208.157 122.745 206.371 122.745" fill="#F0F4FF"/>
<path d="M218.964 159.156L212.277 155.791C210.295 154.8 207.986 154.925 206.135 156.023C204.284 154.925 201.975 154.8 199.993 155.791L193.27 159.156C201.809 160.076 210.425 160.076 218.964 159.156Z" fill="#0B4D5E"/>
<path d="M206.134 155.822C208.02 154.742 210.35 154.632 212.356 155.635L219.043 159L219.577 159.267L218.983 159.332C210.431 160.253 201.803 160.253 193.251 159.332L192.656 159.267L199.914 155.635L200.3 155.457C202.214 154.65 204.368 154.811 206.134 155.822ZM212.198 155.95C210.271 154.987 208.026 155.107 206.225 156.175L206.135 156.228L206.045 156.175C204.357 155.173 202.278 155.005 200.437 155.782L200.072 155.95L193.891 159.043C202.02 159.877 210.216 159.876 218.345 159.042L212.198 155.95Z" fill="#0B4D5E"/>
<path d="M196.793 123.297C194.728 118.366 181.626 118.123 178.505 121.25C185.074 114.681 194.728 118.372 196.793 123.297Z" fill="#0B4D5E"/>
<path d="M178.403 121.103C181.731 117.791 185.839 117.065 189.374 117.791C192.906 118.516 195.895 120.699 196.956 123.229L196.631 123.365C196.14 122.193 194.983 121.278 193.434 120.619C191.89 119.961 189.981 119.569 188.032 119.427C186.084 119.285 184.106 119.393 182.424 119.729C180.734 120.067 179.373 120.63 178.63 121.374L178.629 121.373V121.374L178.38 121.126C178.387 121.118 178.396 121.111 178.403 121.103ZM189.303 118.136C186.431 117.546 183.178 117.941 180.299 119.967C180.914 119.727 181.609 119.534 182.354 119.385C184.071 119.041 186.083 118.932 188.058 119.076C190.033 119.22 191.982 119.618 193.572 120.295C194.082 120.512 194.557 120.76 194.986 121.038C193.585 119.677 191.569 118.601 189.303 118.136Z" fill="#0B4D5E"/>
<path d="M196.793 123.296C196.426 123.035 195.12 122.679 194.01 123.124C187.43 125.771 182.006 124.75 178.505 121.243C181.632 118.122 194.728 118.365 196.793 123.29V123.296Z" fill="#F0F4FF"/>
<path d="M182.357 119.381C184.074 119.039 186.085 118.93 188.06 119.074C190.035 119.218 191.983 119.616 193.573 120.292C195.159 120.967 196.414 121.93 196.956 123.222L196.97 123.255V123.637L196.691 123.44C196.54 123.333 196.154 123.185 195.657 123.121C195.227 123.065 194.736 123.075 194.272 123.218L194.076 123.288C187.447 125.953 181.943 124.937 178.38 121.368L178.256 121.244L178.381 121.119C179.2 120.301 180.647 119.722 182.357 119.381ZM188.035 119.425C186.087 119.283 184.108 119.39 182.426 119.726C180.831 120.044 179.528 120.563 178.761 121.245C182.204 124.587 187.494 125.556 193.945 122.961L194.168 122.882C194.693 122.72 195.238 122.711 195.703 122.771C195.966 122.805 196.209 122.862 196.415 122.93C195.843 121.963 194.789 121.192 193.435 120.616C191.891 119.959 189.983 119.567 188.035 119.425Z" fill="#0B4D5E"/>
<path d="M183.118 121.427C183.118 120.668 183.326 119.956 183.688 119.35C183.825 119.333 183.967 119.321 184.109 119.303C184.121 119.303 184.133 119.303 184.145 119.303C184.27 119.291 184.394 119.279 184.519 119.267C184.549 119.267 184.578 119.267 184.608 119.261C184.721 119.256 184.833 119.244 184.946 119.238C184.976 119.238 185.006 119.238 185.035 119.238C185.166 119.232 185.302 119.226 185.433 119.22H185.445C185.735 119.208 186.026 119.202 186.317 119.202H186.388C186.513 119.202 186.637 119.202 186.762 119.202H186.833C186.976 119.202 187.118 119.208 187.255 119.214C187.557 119.226 187.854 119.244 188.156 119.267C188.168 119.267 188.18 119.267 188.192 119.267C188.329 119.279 188.465 119.291 188.602 119.303C188.619 119.303 188.631 119.303 188.649 119.303C189.094 119.345 189.539 119.404 189.972 119.475H189.978C190.121 119.499 190.257 119.523 190.394 119.546C190.405 119.546 190.417 119.546 190.429 119.552C190.566 119.582 190.708 119.606 190.845 119.635C191.106 120.175 191.26 120.781 191.26 121.421C191.26 122.549 190.803 123.57 190.055 124.305C188.002 124.703 186.103 124.703 184.376 124.359C183.599 123.617 183.118 122.573 183.118 121.416V121.427Z" fill="#0B4D5E"/>
<path d="M191.084 121.422C191.084 120.84 190.949 120.288 190.721 119.79C190.683 119.782 190.644 119.774 190.604 119.767C190.535 119.753 190.463 119.74 190.392 119.725L190.383 119.723H190.378L190.364 119.72C190.232 119.697 190.102 119.674 189.966 119.651H189.958L189.944 119.648C189.517 119.578 189.079 119.521 188.642 119.479H188.594L188.586 119.479C188.518 119.473 188.449 119.467 188.381 119.461C188.317 119.455 188.252 119.449 188.188 119.443H188.143C187.842 119.42 187.548 119.401 187.247 119.39H187.246C187.11 119.384 186.971 119.378 186.833 119.378H186.317C186.028 119.378 185.74 119.384 185.451 119.396L185.445 119.396V119.396H185.441L185.242 119.404C185.175 119.407 185.108 119.41 185.043 119.413L185.035 119.414H184.947V119.413C184.896 119.416 184.845 119.421 184.791 119.425C184.735 119.429 184.676 119.434 184.618 119.438L184.617 119.436C184.585 119.44 184.556 119.441 184.534 119.441L184.535 119.442C184.473 119.448 184.411 119.454 184.349 119.46C184.287 119.466 184.224 119.473 184.161 119.479L184.154 119.479H184.114C184.046 119.488 183.98 119.495 183.915 119.502C183.875 119.506 183.836 119.51 183.797 119.515C183.478 120.077 183.294 120.731 183.294 121.428C183.298 122.512 183.743 123.491 184.463 124.196C186.136 124.522 187.976 124.522 189.967 124.143C190.661 123.442 191.084 122.482 191.084 121.422ZM191.436 121.422C191.436 122.598 190.959 123.663 190.179 124.431L190.141 124.468L190.089 124.479C188.016 124.88 186.094 124.88 184.342 124.531L184.292 124.521L184.255 124.486C183.495 123.761 183.007 122.758 182.949 121.641L182.943 121.416C182.945 120.628 183.161 119.889 183.537 119.26L183.58 119.187L183.665 119.176C183.736 119.167 183.808 119.159 183.878 119.151C183.949 119.144 184.018 119.137 184.087 119.128L184.099 119.127H184.139C184.198 119.121 184.257 119.116 184.316 119.11C184.378 119.104 184.44 119.098 184.502 119.092H184.519C184.551 119.092 184.564 119.091 184.574 119.089L184.586 119.086H184.599C184.652 119.083 184.706 119.079 184.763 119.074C184.819 119.07 184.878 119.065 184.937 119.062H185.028C185.093 119.059 185.159 119.056 185.226 119.053C185.293 119.05 185.36 119.047 185.425 119.044H185.438C185.731 119.032 186.024 119.026 186.317 119.026H186.833C186.98 119.026 187.126 119.032 187.262 119.038L187.261 119.039C187.566 119.051 187.865 119.068 188.17 119.092H188.207C188.276 119.098 188.344 119.104 188.412 119.11C188.477 119.116 188.541 119.121 188.605 119.127H188.658L188.665 119.128C189.108 119.169 189.551 119.228 189.982 119.299H189.993L190.007 119.302C190.146 119.325 190.28 119.347 190.412 119.37C190.426 119.371 190.444 119.376 190.465 119.382L190.466 119.38C190.532 119.394 190.6 119.407 190.67 119.421L190.882 119.463L190.966 119.481L191.003 119.559C191.275 120.121 191.436 120.752 191.436 121.422Z" fill="#0B4D5E"/>
<path d="M216.744 123.297C218.809 118.366 231.912 118.123 235.033 121.25C228.464 114.681 218.809 118.372 216.744 123.297Z" fill="#0B4D5E"/>
<path d="M224.164 117.791C227.707 117.063 231.826 117.794 235.157 121.125H235.156L235.157 121.126L235.033 121.25L234.908 121.374L234.762 121.236C233.994 120.56 232.698 120.046 231.114 119.729C229.432 119.393 227.453 119.285 225.505 119.427C223.556 119.569 221.647 119.961 220.103 120.619C218.651 121.237 217.543 122.08 217.006 123.148L216.906 123.365L216.582 123.229C217.643 120.699 220.632 118.516 224.164 117.791ZM233.239 119.967C230.36 117.941 227.106 117.546 224.235 118.136C221.969 118.601 219.952 119.677 218.551 121.038C218.98 120.76 219.455 120.512 219.965 120.295C221.555 119.618 223.504 119.22 225.48 119.076C227.455 118.932 229.467 119.041 231.184 119.385C231.929 119.534 232.624 119.727 233.239 119.967Z" fill="#0B4D5E"/>
<path d="M216.744 123.296C217.112 123.035 218.418 122.679 219.527 123.124C226.108 125.771 231.532 124.75 235.033 121.243C231.906 118.122 218.809 118.365 216.744 123.29V123.296Z" fill="#F0F4FF"/>
<path d="M225.478 119.074C227.453 118.93 229.464 119.039 231.181 119.381C232.891 119.722 234.338 120.301 235.157 121.119L235.282 121.244L235.157 121.368C231.706 124.825 226.433 125.887 220.08 123.527L219.462 123.288C218.943 123.079 218.371 123.057 217.88 123.121C217.383 123.185 216.997 123.333 216.846 123.44L216.568 123.637V123.255L216.582 123.222C217.124 121.93 218.378 120.967 219.964 120.292C221.554 119.616 223.503 119.218 225.478 119.074ZM231.112 119.726C229.43 119.39 227.451 119.283 225.503 119.425C223.555 119.567 221.647 119.959 220.103 120.616C218.749 121.192 217.694 121.963 217.122 122.93C217.328 122.862 217.572 122.805 217.835 122.771C218.366 122.702 219.002 122.724 219.593 122.961L220.202 123.197C226.378 125.492 231.442 124.481 234.776 121.245C234.009 120.563 232.707 120.044 231.112 119.726Z" fill="#0B4D5E"/>
<path d="M230.429 121.427C230.429 120.668 230.221 119.956 229.859 119.35C229.723 119.333 229.58 119.321 229.438 119.303C229.426 119.303 229.414 119.303 229.402 119.303C229.278 119.291 229.153 119.279 229.029 119.267C228.999 119.267 228.969 119.267 228.94 119.261C228.827 119.256 228.714 119.244 228.601 119.238C228.572 119.238 228.542 119.238 228.512 119.238C228.382 119.232 228.245 119.226 228.115 119.22H228.103C227.812 119.208 227.521 119.202 227.231 119.202H227.159C227.035 119.202 226.91 119.202 226.785 119.202H226.72C226.578 119.202 226.435 119.208 226.299 119.214C226.002 119.226 225.7 119.244 225.397 119.267C225.385 119.267 225.373 119.267 225.361 119.267C225.225 119.279 225.088 119.291 224.952 119.303C224.934 119.303 224.922 119.303 224.904 119.303C224.459 119.345 224.014 119.404 223.581 119.475H223.575C223.433 119.499 223.296 119.523 223.16 119.546C223.148 119.546 223.136 119.546 223.124 119.552C222.988 119.582 222.845 119.606 222.709 119.635C222.448 120.175 222.293 120.781 222.293 121.421C222.293 122.549 222.75 123.57 223.498 124.305C225.551 124.703 227.45 124.703 229.177 124.359C229.954 123.617 230.435 122.573 230.435 121.416L230.429 121.427Z" fill="#0B4D5E"/>
<path d="M227.231 119.026C227.524 119.026 227.817 119.032 228.11 119.044H228.123L228.322 119.053C228.388 119.056 228.455 119.059 228.52 119.062H228.611L228.785 119.074C228.841 119.079 228.895 119.083 228.949 119.086H228.961L228.974 119.089C228.984 119.091 228.996 119.092 229.029 119.092H229.045C229.108 119.098 229.17 119.104 229.232 119.11C229.291 119.116 229.35 119.121 229.409 119.127H229.449L229.459 119.128C229.529 119.137 229.598 119.144 229.669 119.151L229.882 119.176L229.966 119.187L230.01 119.26C230.386 119.888 230.602 120.627 230.604 121.414L230.611 121.416C230.611 122.623 230.109 123.713 229.298 124.486L229.261 124.521L229.211 124.531C227.46 124.88 225.538 124.88 223.464 124.479L223.413 124.468L223.374 124.431C222.594 123.663 222.118 122.598 222.118 121.422C222.118 120.752 222.279 120.121 222.55 119.559L222.587 119.481L222.671 119.463C222.742 119.448 222.814 119.434 222.883 119.421C222.953 119.407 223.021 119.394 223.086 119.38V119.382C223.108 119.376 223.126 119.371 223.14 119.37C223.273 119.347 223.407 119.325 223.546 119.302L223.561 119.299H223.572C224.002 119.228 224.445 119.169 224.888 119.128L224.896 119.127H224.949C225.013 119.121 225.077 119.116 225.141 119.11C225.209 119.104 225.278 119.098 225.346 119.092H225.383C225.688 119.068 225.993 119.05 226.291 119.038L226.72 119.026H227.231ZM222.469 121.422C222.469 122.482 222.892 123.442 223.585 124.143C225.577 124.522 227.417 124.521 229.09 124.195C229.81 123.491 230.255 122.513 230.258 121.429L230.253 121.428C230.253 120.731 230.069 120.077 229.749 119.515C229.711 119.51 229.672 119.506 229.632 119.502C229.568 119.495 229.501 119.488 229.434 119.479H229.394L229.386 119.479C229.324 119.473 229.261 119.466 229.199 119.46C229.137 119.454 229.074 119.448 229.012 119.442V119.441C228.99 119.441 228.962 119.44 228.93 119.436V119.438C228.871 119.434 228.812 119.429 228.756 119.425C228.703 119.421 228.652 119.416 228.601 119.413V119.414H228.504V119.413C228.439 119.41 228.373 119.407 228.306 119.404L228.107 119.396H228.096C227.808 119.384 227.519 119.378 227.231 119.378H226.72L226.306 119.39C226.012 119.401 225.711 119.42 225.411 119.443L225.397 119.444V119.443H225.366C225.301 119.449 225.237 119.455 225.172 119.461C225.104 119.467 225.035 119.473 224.967 119.479L224.959 119.479H224.912C224.474 119.521 224.036 119.578 223.61 119.648L223.595 119.651H223.587C223.452 119.674 223.321 119.697 223.19 119.72L223.175 119.723H223.17L223.162 119.725C223.091 119.74 223.019 119.753 222.95 119.767C222.909 119.774 222.87 119.782 222.831 119.79C222.603 120.288 222.469 120.84 222.469 121.422Z" fill="#0B4D5E"/>
<path d="M211.742 143.983C213.35 142.374 216.359 143.549 216.359 146.22V147.033C216.359 147.573 215.92 148.012 215.38 148.012V146.012C215.38 144.143 213.338 143.003 211.742 143.977V143.983Z" fill="#0B4D5E"/>
<path d="M215.204 146.012C215.204 144.292 213.338 143.239 211.862 144.111L211.566 144.407V143.878L211.65 143.826C211.653 143.825 211.655 143.824 211.657 143.823C213.396 142.148 216.535 143.431 216.535 146.22V147.032C216.535 147.67 216.017 148.188 215.38 148.188H215.204V146.012ZM215.556 147.816C215.914 147.735 216.183 147.415 216.183 147.032V146.22C216.183 144.329 214.602 143.256 213.184 143.453C214.443 143.551 215.555 144.582 215.556 146.012V147.816Z" fill="#0B4D5E"/>
<path d="M246.955 124.881C249.672 122.437 254.004 124.371 254.004 128.026V141.752C254.004 147.087 247.75 149.976 243.691 146.517V132.216C243.691 129.421 244.878 126.757 246.955 124.893V124.881Z" fill="#8AE5CC"/>
<path d="M253.829 128.027C253.829 124.549 249.738 122.698 247.13 124.964V124.972L247.072 125.025C245.032 126.854 243.867 129.471 243.867 132.216V146.433C247.812 149.715 253.829 146.91 253.829 141.752V128.027ZM254.18 141.752C254.18 147.237 247.75 150.208 243.577 146.651L243.515 146.599V132.216C243.515 129.398 244.701 126.712 246.779 124.818V124.803L246.837 124.751C249.669 122.204 254.18 124.219 254.18 128.027V141.752Z" fill="#0B4D5E"/>
<path d="M168.281 86.8801L160.18 121.4C160.18 121.4 162.5 123.6 165.02 127.56C168.1 132.4 168.851 141.265 169.005 143.84V125.036C168.833 119.962 171.675 115.263 176.25 113.055L196.444 103.323C205.63 98.8966 211.469 89.5979 211.469 79.4032C211.469 79.4032 229.479 98.6473 211.469 98.6473H235.348C239.804 98.6473 243.412 102.255 243.412 106.712L243.691 131.605L243.709 131.617C243.863 129.042 245.026 126.62 246.96 124.882C249.364 122.722 252.984 124.045 253.85 126.852L248.569 88.0135L211.469 71.1846L168.287 86.8861L168.281 86.8801Z" fill="#0B4D5E"/>
<path d="M211.542 71.0244L248.642 87.8535L248.73 87.8936L248.743 87.9902L254.025 126.828L253.682 126.903C252.849 124.205 249.375 122.949 247.078 125.013C245.178 126.72 244.036 129.098 243.884 131.627L243.866 131.934L243.61 131.764L243.593 131.751L243.516 131.7L243.235 106.714V106.712L243.226 106.306C243.015 102.135 239.571 98.8234 235.348 98.8232H211.469V98.4717C215.954 98.4717 218.109 97.2721 218.907 95.5654C219.715 93.8388 219.187 91.4999 218.064 89.0996C216.946 86.7116 215.266 84.3186 213.862 82.5186C213.161 81.6194 212.53 80.87 212.074 80.3457C211.903 80.1491 211.757 79.9848 211.641 79.8555C211.471 89.9396 205.631 99.0908 196.521 103.481L176.326 113.213L176.327 113.214C171.815 115.391 169.011 120.026 169.181 125.03V143.841L168.829 143.851C168.752 142.567 168.527 139.715 167.937 136.582C167.346 133.444 166.392 130.046 164.871 127.655C163.617 125.684 162.412 124.15 161.522 123.11C161.076 122.591 160.709 122.194 160.454 121.928C160.327 121.795 160.228 121.695 160.16 121.628C160.127 121.595 160.101 121.569 160.084 121.553C160.076 121.544 160.069 121.538 160.065 121.534L160.059 121.528L159.985 121.459L160.009 121.36L168.182 86.5322L168.331 86.6816L211.408 71.0195L211.477 70.9951L211.542 71.0244ZM168.428 87.0215L160.373 121.343C160.384 121.353 160.395 121.365 160.408 121.378C160.478 121.447 160.58 121.549 160.709 121.685C160.968 121.955 161.339 122.356 161.788 122.881C162.688 123.931 163.903 125.478 165.168 127.466C166.727 129.915 167.689 133.369 168.282 136.518C168.519 137.772 168.695 138.982 168.829 140.064V125.042L168.821 124.561C168.836 119.603 171.681 115.064 176.174 112.896L196.367 103.165C205.492 98.7676 211.293 89.5304 211.293 79.4033V78.958L211.598 79.2832L211.599 79.2842C211.599 79.2848 211.6 79.2861 211.601 79.2871C211.603 79.2895 211.606 79.2932 211.61 79.2979C211.619 79.3072 211.633 79.3206 211.65 79.3389C211.683 79.3756 211.733 79.4303 211.797 79.501C211.925 79.6426 212.111 79.8504 212.34 80.1143C212.799 80.6423 213.435 81.3968 214.141 82.3018C215.551 84.11 217.248 86.5282 218.382 88.9512C219.51 91.3615 220.107 93.8334 219.227 95.7148C218.62 97.0106 217.337 97.9831 215.151 98.4717H235.348C239.901 98.4718 243.587 102.157 243.588 106.71L243.844 129.658C244.337 127.784 245.371 126.074 246.843 124.751L247.081 124.55C249.244 122.851 252.194 123.66 253.52 125.731L248.407 88.1328L211.461 71.374L168.428 87.0215Z" fill="#0B4D5E"/>
<path d="M205.5 221.565C228.186 221.565 248.925 213.245 264.834 199.49C262.728 198.161 260.568 196.915 258.354 195.758C246.053 202.618 226.868 207.193 205.405 207.193C183.942 207.193 166.181 203.146 153.868 196.642C152.55 198.63 151.298 200.653 150.117 202.718C165.445 214.533 184.648 221.571 205.5 221.571V221.565Z" fill="#0B4D5E"/>
<path d="M258.436 195.602C260.654 196.761 262.818 198.01 264.928 199.342L265.129 199.468L264.95 199.623C249.051 213.369 228.337 221.697 205.676 221.74V221.747H205.5C184.608 221.747 165.367 214.695 150.01 202.857L149.889 202.765L149.965 202.631C151.148 200.562 152.402 198.536 153.721 196.545L153.809 196.412L153.95 196.486C166.23 202.973 183.961 207.017 205.405 207.017C226.847 207.017 246.001 202.446 258.269 195.604L258.352 195.558L258.436 195.602ZM258.355 195.957C246.017 202.809 226.84 207.369 205.405 207.369C184.004 207.369 166.268 203.348 153.928 196.871C152.673 198.771 151.477 200.702 150.347 202.672C165.582 214.374 184.635 221.354 205.324 221.394V221.389H205.5C228.056 221.389 248.683 213.148 264.537 199.513C262.525 198.25 260.464 197.063 258.355 195.957Z" fill="#0B4D5E"/>
<path d="M283.086 235.948C287.406 219.475 279.894 203.221 266.311 199.643C252.728 196.065 238.219 206.521 233.899 222.994C229.579 239.467 237.091 255.72 250.674 259.298C264.257 262.876 278.766 252.421 283.086 235.948Z" fill="#F0F4FF"/>
<path d="M233.728 222.948C238.064 206.414 252.649 195.862 266.355 199.472C280.061 203.083 287.592 219.457 283.256 235.991C278.92 252.526 264.336 263.079 250.629 259.468C236.923 255.857 229.392 239.483 233.728 222.948ZM266.266 199.813C252.807 196.267 238.373 206.626 234.069 223.037C229.765 239.448 237.259 255.581 250.719 259.127C264.179 262.673 278.612 252.313 282.916 235.903C287.219 219.492 279.726 203.359 266.266 199.813Z" fill="#0B4D5E"/>
<path d="M275.657 217.036L274.832 111.707C274.832 111.564 274.779 111.422 274.69 111.315C274.601 111.208 274.47 111.131 274.328 111.101L270.328 110.312C268.768 110.01 267.154 110.205 265.712 110.882L247.69 119.356C246.355 119.985 245.221 120.976 244.432 122.222C243.637 123.468 243.21 124.916 243.204 126.393L242.824 207.809L275.657 217.036Z" fill="#0B4D5E"/>
<path d="M265.916 110.599C267.319 110.007 268.865 109.849 270.362 110.14L274.362 110.929H274.364L274.495 110.968C274.623 111.017 274.738 111.098 274.825 111.202C274.939 111.339 275.008 111.521 275.009 111.705L275.835 217.268L242.647 207.941L242.648 207.808L243.028 126.393L243.034 126.109C243.09 124.697 243.522 123.321 244.284 122.127C245.091 120.852 246.251 119.839 247.615 119.196L265.637 110.723L265.916 110.599ZM270.295 110.485C268.77 110.19 267.194 110.379 265.786 111.04L265.787 111.041L247.765 119.514L247.766 119.515C246.542 120.091 245.491 120.979 244.729 122.091L244.581 122.316C243.852 123.458 243.439 124.774 243.386 126.124L243.38 126.394L243 207.674L275.479 216.803L274.656 111.708L274.649 111.632C274.636 111.557 274.602 111.485 274.555 111.428C274.492 111.353 274.399 111.296 274.294 111.273L270.295 110.485Z" fill="#0B4D5E"/>
<path d="M247.724 209.025L248.484 126.405C248.484 125.758 248.674 125.123 249.018 124.578C249.362 124.032 249.849 123.587 250.43 123.302L274.677 111.321C274.588 111.208 274.457 111.131 274.315 111.107L270.315 110.318C268.754 110.015 267.14 110.211 265.698 110.888L247.677 119.361C246.342 119.99 245.208 120.981 244.419 122.228C243.624 123.474 243.197 124.922 243.191 126.399L242.811 207.814" fill="#F0F4FF"/>
<path d="M265.903 110.604C267.306 110.013 268.852 109.855 270.349 110.145L274.349 110.935H274.348C274.532 110.966 274.699 111.066 274.815 111.212L274.949 111.383L274.754 111.478L250.508 123.46H250.507C249.956 123.73 249.494 124.152 249.166 124.671C248.839 125.19 248.659 125.793 248.659 126.405V126.407L247.901 209.026L247.724 209.025L247.548 209.023L248.308 126.403C248.308 125.723 248.508 125.056 248.869 124.483C249.23 123.911 249.74 123.443 250.352 123.143L274.334 111.293C274.318 111.288 274.302 111.284 274.285 111.281L274.281 111.28L270.282 110.49V110.491C268.757 110.196 267.181 110.385 265.773 111.046L265.774 111.047L247.751 119.519L247.752 119.52C246.528 120.097 245.478 120.985 244.716 122.097L244.568 122.322C243.839 123.464 243.426 124.78 243.372 126.13L243.366 126.4L242.987 207.815L242.635 207.813L243.015 126.398L243.021 126.115C243.077 124.703 243.509 123.327 244.271 122.133C245.078 120.858 246.237 119.845 247.602 119.202L265.623 110.728L265.903 110.604Z" fill="#0B4D5E"/>
<path d="M245.818 147.447C245.67 147.417 245.539 147.334 245.445 147.215C245.35 147.096 245.302 146.948 245.302 146.8L245.421 138.682C245.421 138.587 245.445 138.492 245.486 138.403C245.528 138.314 245.593 138.237 245.664 138.178C245.741 138.118 245.83 138.077 245.925 138.053C246.02 138.029 246.121 138.029 246.216 138.053C246.364 138.083 246.495 138.166 246.59 138.284C246.685 138.403 246.732 138.551 246.732 138.7L246.619 146.818C246.619 146.912 246.596 147.013 246.554 147.096C246.513 147.185 246.447 147.263 246.376 147.322C246.299 147.381 246.21 147.423 246.115 147.447C246.02 147.47 245.925 147.47 245.824 147.447H245.818Z" fill="#F0F4FF"/>
<path d="M245.882 137.882C246.005 137.852 246.135 137.852 246.258 137.882L246.257 137.884C246.446 137.924 246.609 138.028 246.727 138.175C246.849 138.328 246.909 138.516 246.909 138.701V138.703L246.795 146.821C246.795 146.94 246.764 147.064 246.712 147.17L246.713 147.171C246.659 147.288 246.576 147.385 246.489 147.458L246.484 147.462C246.386 147.538 246.274 147.589 246.158 147.618C246.041 147.647 245.925 147.647 245.806 147.623H245.801L245.784 147.62C245.592 147.581 245.426 147.475 245.307 147.326C245.185 147.173 245.126 146.985 245.126 146.8V146.797L245.244 138.68C245.245 138.557 245.276 138.438 245.327 138.33C245.381 138.213 245.464 138.115 245.551 138.043L245.557 138.039L245.632 137.987C245.71 137.939 245.795 137.904 245.882 137.882ZM245.968 138.224C245.895 138.242 245.828 138.274 245.772 138.318C245.719 138.363 245.674 138.419 245.646 138.478C245.614 138.547 245.597 138.617 245.597 138.682V138.685L245.478 146.803C245.479 146.914 245.515 147.022 245.582 147.106C245.65 147.191 245.74 147.248 245.84 147.271H245.845L245.865 147.276C245.94 147.294 246.007 147.292 246.073 147.276C246.143 147.258 246.208 147.228 246.263 147.186C246.318 147.14 246.366 147.084 246.395 147.023L246.397 147.018L246.431 146.921C246.439 146.887 246.444 146.852 246.444 146.818V146.816L246.556 138.701L246.549 138.618C246.536 138.536 246.504 138.459 246.452 138.395C246.382 138.307 246.286 138.247 246.181 138.226L246.173 138.224C246.106 138.207 246.035 138.208 245.968 138.224Z" fill="#0B4D5E"/>
<path d="M245.637 160.128C245.488 160.099 245.358 160.015 245.263 159.897C245.168 159.778 245.12 159.63 245.12 159.481L245.239 151.364C245.239 151.269 245.263 151.168 245.304 151.085C245.346 150.996 245.405 150.919 245.482 150.859C245.56 150.8 245.649 150.758 245.738 150.735C245.832 150.711 245.927 150.711 246.022 150.735C246.171 150.764 246.307 150.847 246.402 150.966C246.497 151.085 246.545 151.233 246.545 151.387L246.426 159.505C246.426 159.6 246.402 159.695 246.361 159.784C246.319 159.873 246.254 159.95 246.183 160.01C246.105 160.069 246.016 160.11 245.921 160.134C245.827 160.158 245.732 160.158 245.631 160.134L245.637 160.128Z" fill="#F0F4FF"/>
<path d="M245.787 150.546C245.88 150.534 245.973 150.54 246.065 150.563L246.064 150.565C246.25 150.604 246.42 150.707 246.539 150.856C246.662 151.008 246.721 151.197 246.721 151.387V151.389L246.602 159.507C246.601 159.63 246.57 159.749 246.52 159.857C246.465 159.974 246.382 160.071 246.295 160.144L246.29 160.148C246.193 160.224 246.081 160.275 245.964 160.304C245.84 160.335 245.717 160.335 245.59 160.305L245.282 160.232L245.326 160.188C245.25 160.138 245.182 160.077 245.125 160.006C245.003 159.854 244.945 159.666 244.945 159.481V159.478L245.063 151.36C245.063 151.27 245.08 151.175 245.111 151.089L245.147 151.005C245.199 150.895 245.275 150.796 245.375 150.719C245.472 150.644 245.583 150.593 245.693 150.564L245.695 150.563L245.787 150.546ZM245.781 150.904L245.78 150.903C245.712 150.922 245.646 150.955 245.59 150.998C245.537 151.039 245.495 151.092 245.464 151.158L245.462 151.162C245.433 151.22 245.415 151.294 245.415 151.362V151.365L245.296 159.483C245.297 159.594 245.333 159.702 245.401 159.786C245.471 159.874 245.566 159.934 245.671 159.955L245.755 159.972C245.798 159.974 245.839 159.973 245.879 159.963C245.95 159.945 246.014 159.914 246.07 159.872C246.125 159.826 246.173 159.77 246.201 159.709C246.234 159.64 246.25 159.57 246.25 159.504V159.502L246.368 151.387L246.362 151.3C246.348 151.216 246.316 151.139 246.265 151.075C246.196 150.989 246.095 150.928 245.988 150.906L245.98 150.904C245.913 150.888 245.847 150.888 245.781 150.904Z" fill="#0B4D5E"/>
<path d="M245.576 147.453C245.434 147.424 245.303 147.341 245.208 147.228C245.113 147.109 245.066 146.967 245.066 146.818L245.179 138.908C245.179 138.813 245.202 138.718 245.244 138.635C245.285 138.552 245.345 138.475 245.422 138.416C245.499 138.357 245.582 138.315 245.677 138.291C245.772 138.268 245.867 138.268 245.956 138.291C246.098 138.321 246.229 138.404 246.324 138.523C246.419 138.641 246.466 138.784 246.46 138.932L246.348 146.842C246.348 146.937 246.324 147.032 246.282 147.115C246.241 147.198 246.181 147.275 246.104 147.335C246.033 147.394 245.944 147.436 245.849 147.459C245.754 147.483 245.659 147.483 245.57 147.459L245.576 147.453Z" fill="#F0F4FF"/>
<path d="M245.634 138.121C245.756 138.09 245.882 138.09 246.001 138.122L246 138.123C246.182 138.163 246.345 138.268 246.461 138.414C246.581 138.563 246.641 138.744 246.635 138.934L246.636 138.935L246.524 146.845C246.523 146.968 246.493 147.089 246.44 147.195C246.388 147.298 246.312 147.398 246.211 147.475L246.21 147.474C246.116 147.551 246.005 147.602 245.892 147.63C245.77 147.661 245.644 147.662 245.525 147.63L245.23 147.551L245.268 147.512C245.195 147.465 245.129 147.407 245.074 147.341L245.071 147.338C244.95 147.187 244.89 147.006 244.89 146.819V146.817L245.002 138.907C245.003 138.784 245.033 138.663 245.086 138.557C245.138 138.453 245.214 138.354 245.315 138.277C245.41 138.204 245.514 138.151 245.634 138.121ZM245.72 138.462C245.65 138.48 245.588 138.511 245.529 138.556C245.476 138.597 245.432 138.652 245.401 138.714C245.371 138.774 245.355 138.842 245.355 138.909V138.912L245.242 146.822C245.242 146.929 245.276 147.03 245.343 147.115L245.402 147.174C245.464 147.228 245.537 147.266 245.612 147.282L245.702 147.3C245.736 147.301 245.77 147.298 245.806 147.29C245.88 147.271 245.944 147.239 245.992 147.2L245.996 147.196L246.069 147.124C246.09 147.098 246.109 147.068 246.124 147.037C246.154 146.977 246.171 146.909 246.171 146.842V146.84L246.285 138.93V138.925L246.281 138.848C246.27 138.771 246.238 138.698 246.186 138.633C246.115 138.544 246.02 138.485 245.92 138.464L245.911 138.462V138.461C245.852 138.446 245.788 138.446 245.72 138.462Z" fill="#0B4D5E"/>
<path d="M245.398 160.176C245.255 160.146 245.125 160.063 245.03 159.95C244.935 159.838 244.888 159.689 244.894 159.541L245.006 151.637C245.006 151.542 245.03 151.447 245.072 151.364C245.113 151.281 245.172 151.204 245.25 151.144C245.327 151.085 245.41 151.043 245.505 151.02C245.594 150.996 245.695 150.996 245.784 151.02C245.926 151.049 246.057 151.133 246.152 151.245C246.246 151.358 246.294 151.506 246.288 151.655L246.175 159.559C246.175 159.654 246.152 159.749 246.11 159.832C246.068 159.915 246.009 159.992 245.938 160.051C245.867 160.111 245.778 160.152 245.689 160.176C245.6 160.2 245.499 160.2 245.41 160.176H245.398Z" fill="#F0F4FF"/>
<path d="M245.462 150.85C245.577 150.82 245.704 150.82 245.819 150.849L245.82 150.848L245.822 150.849C245.824 150.849 245.826 150.849 245.829 150.85L245.828 150.851C246.009 150.891 246.171 150.994 246.287 151.132C246.41 151.279 246.47 151.469 246.463 151.656L246.464 151.657L246.351 159.562C246.351 159.684 246.32 159.805 246.267 159.91C246.215 160.013 246.141 160.111 246.05 160.187C245.956 160.265 245.842 160.317 245.734 160.346C245.624 160.375 245.504 160.376 245.393 160.352H245.379L245.362 160.349C245.177 160.31 245.013 160.203 244.895 160.064C244.77 159.915 244.71 159.723 244.717 159.534L244.831 151.635C244.831 151.512 244.862 151.391 244.914 151.285C244.966 151.182 245.041 151.083 245.142 151.005C245.237 150.932 245.343 150.879 245.462 150.849V150.85ZM245.55 151.19L245.547 151.191C245.477 151.208 245.416 151.239 245.357 151.284C245.304 151.325 245.26 151.38 245.229 151.443C245.199 151.502 245.182 151.571 245.182 151.637V151.64L245.07 159.544V159.548C245.065 159.655 245.1 159.76 245.164 159.837C245.234 159.919 245.326 159.977 245.421 160H245.433L245.456 160.006C245.515 160.022 245.584 160.022 245.643 160.006C245.712 159.987 245.778 159.956 245.826 159.916C245.877 159.873 245.921 159.816 245.953 159.753C245.982 159.693 245.999 159.625 245.999 159.559V159.557L246.112 151.652V151.648L246.108 151.568C246.097 151.49 246.066 151.416 246.017 151.359C245.945 151.273 245.847 151.213 245.747 151.193L245.738 151.191V151.189C245.679 151.173 245.609 151.174 245.55 151.19Z" fill="#0B4D5E"/>
<path d="M243.186 131.277L248.42 134.416L248.455 130.76L243.204 127.615L243.186 131.282V131.277Z" fill="#8AE5CC"/>
<path d="M248.545 130.609L248.632 130.661L248.593 134.725L243.095 131.428L243.183 131.282H243.01V130.966H243.012L243.028 127.614L243.03 127.306L248.545 130.609ZM243.362 131.177L248.247 134.106L248.278 130.859L243.377 127.924L243.362 131.177Z" fill="#0B4D5E"/>
<path d="M243.203 126.328L248.46 129.479L248.478 127.342L243.476 124.346C243.298 124.993 243.209 125.657 243.197 126.322L243.203 126.328Z" fill="#8AE5CC"/>
<path d="M243.566 124.194L248.569 127.191L248.655 127.243L248.654 127.344L248.636 129.48L248.633 129.788L243.112 126.479L243.093 126.468L243.078 126.452L243.073 126.446L243.019 126.394L243.021 126.318C243.033 125.64 243.124 124.961 243.306 124.299L243.368 124.076L243.566 124.194ZM243.587 124.618C243.46 125.146 243.392 125.686 243.376 126.227L248.286 129.17L248.301 127.441L243.587 124.618Z" fill="#0B4D5E"/>
<path d="M265.712 110.888C263.338 112.021 252.33 117.338 250.224 118.329C249.31 118.774 248.01 119.338 247.15 119.83C246.183 120.406 245.358 121.183 244.723 122.115C244.094 123.047 243.673 124.103 243.495 125.218C243.334 126.162 243.423 127.645 243.4 128.625C243.382 142.712 243.257 165.979 243.144 180.269C243.091 187.111 242.931 200.967 242.824 207.82C242.782 200.931 242.747 187.158 242.759 180.269C242.788 165.879 242.86 142.789 242.984 128.625C243.02 127.616 242.943 126.162 243.121 125.159C243.316 123.996 243.762 122.892 244.432 121.925C245.103 120.958 245.975 120.151 246.99 119.557C247.898 119.053 249.173 118.525 250.105 118.074C252.188 117.095 263.397 111.956 265.712 110.894V110.888Z" fill="#8AE5CC"/>
<path d="M265.887 111.007L265.785 111.054C265.711 111.087 265.629 111.125 265.539 111.166C262.732 112.51 252.339 117.528 250.298 118.488C249.372 118.939 248.09 119.495 247.237 119.983C246.411 120.475 245.692 121.118 245.11 121.88L244.869 122.214C244.254 123.124 243.842 124.156 243.668 125.246V125.248C243.591 125.704 243.573 126.297 243.572 126.908C243.571 127.511 243.588 128.138 243.576 128.629C243.562 139.195 243.489 154.922 243.406 168.153L243.321 180.27C243.267 187.112 243.106 200.969 243 207.823L242.648 207.821C242.617 202.654 242.589 193.615 242.582 186.512L242.583 180.269C242.612 165.879 242.684 142.788 242.808 128.623V128.618L242.82 127.798C242.82 127.506 242.819 127.199 242.823 126.888C242.83 126.273 242.855 125.646 242.947 125.13L243.034 124.688C243.264 123.662 243.688 122.69 244.288 121.825C244.973 120.837 245.864 120.012 246.901 119.405L246.904 119.403L247.263 119.212C248.135 118.763 249.228 118.303 250.029 117.915L250.03 117.914C252.039 116.97 262.531 112.159 265.355 110.863C265.459 110.814 265.552 110.768 265.635 110.729L265.887 110.608V111.007ZM242.934 183.917C242.947 182.566 242.96 181.332 242.968 180.268L243.053 168.15C243.137 154.918 243.21 139.189 243.223 128.624V128.62L243.226 127.813C243.224 127.524 243.22 127.218 243.22 126.908C243.221 126.297 243.238 125.676 243.321 125.188C243.484 124.169 243.847 123.198 244.381 122.323C243.835 123.195 243.466 124.168 243.294 125.188L243.293 125.189C243.207 125.676 243.183 126.278 243.175 126.892C243.168 127.498 243.178 128.125 243.16 128.631C243.035 142.795 242.965 165.88 242.935 180.269L242.934 183.917Z" fill="#0B4D5E"/>
<path d="M280.778 173.45C278.422 169.931 276.072 166.258 274.001 162.639C274.001 162.639 277.247 155.173 284.499 159.956C285.668 160.716 280.778 173.45 280.778 173.45Z" fill="#0B4D5E"/>
<path d="M279.795 158.181C281.162 158.153 282.758 158.598 284.593 159.808H284.594C284.726 159.894 284.79 160.045 284.822 160.197C284.855 160.353 284.861 160.546 284.85 160.763C284.827 161.199 284.73 161.77 284.583 162.423C284.287 163.732 283.782 165.402 283.244 167.042C282.705 168.684 282.129 170.301 281.689 171.508C281.469 172.112 281.282 172.613 281.151 172.963C281.085 173.138 281.033 173.276 280.998 173.369C280.98 173.416 280.966 173.452 280.957 173.476C280.952 173.488 280.948 173.497 280.946 173.503C280.945 173.506 280.944 173.508 280.944 173.51L280.943 173.512V173.513L280.821 173.829L280.632 173.547C278.275 170.026 275.923 166.35 273.849 162.725L273.805 162.649L273.84 162.568V162.567L273.841 162.566C273.842 162.565 273.842 162.563 273.843 162.561C273.845 162.557 273.848 162.551 273.851 162.543C273.858 162.528 273.867 162.507 273.88 162.48C273.907 162.424 273.947 162.344 273.999 162.244C274.105 162.045 274.263 161.767 274.476 161.449C274.901 160.813 275.546 160.012 276.426 159.362C277.308 158.71 278.428 158.209 279.795 158.181ZM279.803 158.532C278.523 158.559 277.471 159.028 276.635 159.645C275.798 160.263 275.179 161.029 274.768 161.644C274.563 161.95 274.412 162.218 274.311 162.408C274.261 162.502 274.224 162.578 274.2 162.629C276.201 166.121 278.461 169.662 280.735 173.067C280.76 173 280.789 172.924 280.821 172.839C280.952 172.49 281.139 171.99 281.359 171.388C281.799 170.183 282.372 168.57 282.91 166.933C283.447 165.295 283.947 163.638 284.239 162.346C284.385 161.699 284.477 161.15 284.499 160.744C284.509 160.541 284.501 160.383 284.477 160.269C284.452 160.15 284.417 160.112 284.403 160.103H284.402C282.612 158.922 281.084 158.506 279.803 158.532Z" fill="#0B4D5E"/>
<path d="M239.168 225.563C240.55 235.96 242.313 246.546 253.368 250.118C264.429 253.697 274.979 247.846 278.19 237.87C281.406 227.895 275.745 218.353 265.01 213.968C252.116 208.693 236.83 207.987 239.162 225.563H239.168Z" fill="#0B4D5E"/>
<path d="M246.331 211.026C251.53 209.65 258.621 211.163 265.077 213.805L265.579 214.016C275.884 218.445 281.382 227.697 278.503 237.452L278.358 237.925C275.168 247.835 264.798 253.709 253.836 250.448L253.314 250.286C247.731 248.482 244.493 244.902 242.481 240.473C240.493 236.096 239.7 230.885 239.014 225.739H239.007L238.987 225.586C238.401 221.169 238.918 217.875 240.25 215.508C241.584 213.136 243.724 211.717 246.331 211.026ZM264.943 214.131C258.505 211.497 251.505 210.02 246.421 211.366C243.887 212.037 241.836 213.407 240.557 215.681C239.29 217.932 238.77 221.093 239.317 225.387H239.321L239.342 225.54C240.034 230.741 240.818 235.962 242.801 240.327C244.779 244.682 247.949 248.183 253.422 249.951L253.936 250.11C264.715 253.317 274.892 247.544 278.023 237.816L278.165 237.354C280.982 227.811 275.625 218.716 265.441 214.339L264.943 214.131Z" fill="#0B4D5E"/>
<path d="M274.611 190.736C275.993 191.656 284.598 197.447 290.425 202.895C290.425 202.895 296.335 197.631 295.291 194.397C294.246 191.163 270.166 162.324 267.164 146.717C245.777 142.023 274.617 190.736 274.617 190.736H274.611Z" fill="#8AE5CC"/>
<path d="M261.242 147.118C262.476 146.252 264.265 145.988 266.704 146.445L267.201 146.546L267.315 146.571L267.336 146.684C268.082 150.559 270.139 155.268 272.833 160.213C275.525 165.154 278.845 170.318 282.107 175.098C285.368 179.879 288.569 184.272 291.021 187.676C292.246 189.376 293.285 190.831 294.051 191.962C294.434 192.527 294.751 193.014 294.987 193.411C295.222 193.804 295.386 194.121 295.458 194.344C295.738 195.211 295.547 196.195 295.133 197.16C294.717 198.128 294.066 199.102 293.388 199.968C292.709 200.835 291.998 201.599 291.457 202.146C291.187 202.42 290.958 202.639 290.797 202.791C290.717 202.866 290.653 202.926 290.61 202.966C290.588 202.985 290.571 203 290.56 203.011C290.554 203.015 290.55 203.02 290.547 203.022C290.546 203.024 290.544 203.025 290.543 203.026H290.542V203.027L290.422 203.134L290.305 203.024C284.489 197.588 275.896 191.804 274.513 190.884L274.028 190.56H274.31C274.264 190.483 274.209 190.389 274.146 190.279C273.939 189.923 273.64 189.401 273.266 188.739C272.518 187.415 271.475 185.529 270.289 183.281C267.918 178.785 264.978 172.835 262.706 167.031C260.438 161.236 258.823 155.553 259.13 151.602C259.284 149.623 259.924 148.043 261.242 147.118ZM267.015 146.866C264.423 146.315 262.628 146.576 261.445 147.406C260.247 148.246 259.631 149.703 259.482 151.63C259.181 155.492 260.766 161.107 263.034 166.903C265.299 172.69 268.233 178.626 270.601 183.117C271.784 185.362 272.826 187.245 273.572 188.566C273.945 189.227 274.245 189.747 274.45 190.102C274.553 190.28 274.633 190.416 274.687 190.508C274.714 190.553 274.734 190.589 274.747 190.612C274.748 190.614 274.749 190.616 274.75 190.618C276.246 191.614 284.645 197.283 290.425 202.656C290.461 202.623 290.505 202.583 290.556 202.535C290.714 202.386 290.94 202.169 291.207 201.899C291.742 201.358 292.442 200.604 293.111 199.751C293.779 198.897 294.411 197.949 294.81 197.02C295.21 196.089 295.365 195.201 295.123 194.452C295.065 194.271 294.919 193.984 294.685 193.592C294.453 193.203 294.141 192.722 293.76 192.159C292.997 191.033 291.96 189.582 290.735 187.881C288.284 184.479 285.081 180.081 281.817 175.297C278.552 170.512 275.224 165.338 272.524 160.382C269.851 155.477 267.789 150.772 267.015 146.866Z" fill="#0B4D5E"/>
<path d="M288.393 221.13C287.669 220.139 286.708 219.344 285.592 218.828C280.738 216.573 274.454 214.461 269.624 212.971C271.404 212.568 273.071 208.77 272.365 207.767L265.274 203.186C265.274 203.186 222.323 188.149 237.23 179.646L274.418 190.618C274.418 190.618 296.481 205.144 295.828 210.811C295.407 214.478 290.399 217.273 290.399 217.273L288.393 221.13Z" fill="#8AE5CC"/>
<path d="M237.28 179.477L274.468 190.449L274.494 190.456L274.515 190.471L274.516 190.472C274.517 190.472 274.518 190.473 274.519 190.474C274.522 190.475 274.526 190.478 274.532 190.481C274.542 190.488 274.558 190.499 274.579 190.513C274.62 190.54 274.683 190.582 274.764 190.636C274.926 190.744 275.163 190.903 275.464 191.107C276.067 191.516 276.927 192.106 277.956 192.832C280.016 194.284 282.757 196.279 285.478 198.452C288.197 200.624 290.902 202.978 292.888 205.146C293.881 206.231 294.699 207.273 295.248 208.229C295.762 209.12 296.053 209.956 296.015 210.687L296.003 210.831C295.785 212.732 294.384 214.385 293.073 215.549C292.413 216.134 291.766 216.603 291.286 216.926C291.045 217.087 290.846 217.212 290.706 217.297C290.637 217.339 290.581 217.372 290.543 217.394C290.539 217.396 290.535 217.398 290.531 217.4L288.549 221.212L288.418 221.463L288.25 221.234C287.632 220.388 286.837 219.688 285.919 219.189L285.518 218.987C280.675 216.738 274.4 214.629 269.572 213.14L268.942 212.945L269.584 212.8C269.98 212.71 270.389 212.426 270.773 212.01C271.155 211.596 271.499 211.067 271.769 210.517C272.039 209.966 272.231 209.4 272.312 208.917C272.353 208.676 272.365 208.459 272.348 208.278C272.333 208.111 272.291 207.983 272.235 207.893L265.195 203.345C265.192 203.344 265.188 203.342 265.184 203.341C265.163 203.334 265.133 203.323 265.092 203.309C265.011 203.28 264.891 203.237 264.736 203.181C264.424 203.068 263.969 202.903 263.396 202.688C262.249 202.26 260.629 201.638 258.73 200.866C254.933 199.322 250.023 197.174 245.578 194.759C241.14 192.348 237.137 189.655 235.181 187.016C234.202 185.693 233.716 184.357 233.983 183.062C234.25 181.768 235.257 180.567 237.142 179.492L237.207 179.455L237.28 179.477ZM237.253 179.836C235.455 180.876 234.563 181.992 234.328 183.134C234.09 184.289 234.514 185.523 235.464 186.807C237.369 189.378 241.309 192.039 245.746 194.45C250.174 196.857 255.071 198.999 258.862 200.54C260.757 201.311 262.375 201.931 263.519 202.358C264.091 202.572 264.545 202.738 264.855 202.85C265.01 202.906 265.13 202.948 265.21 202.977C265.25 202.991 265.281 203.002 265.301 203.009C265.311 203.012 265.32 203.015 265.325 203.017C265.327 203.018 265.329 203.019 265.331 203.02C265.331 203.02 265.332 203.02 265.276 203.181L265.332 203.02L265.352 203.026L265.37 203.038L272.46 207.619L272.49 207.638L272.509 207.666C272.621 207.825 272.679 208.028 272.699 208.246C272.719 208.466 272.703 208.714 272.659 208.976C272.57 209.499 272.366 210.097 272.084 210.671C271.803 211.245 271.441 211.805 271.032 212.248C270.763 212.539 270.466 212.785 270.154 212.952C274.917 214.432 280.96 216.482 285.666 218.668L285.878 218.771C286.848 219.258 287.692 219.956 288.363 220.806L290.267 217.146L290.313 217.119L290.316 217.118C290.318 217.117 290.321 217.115 290.326 217.112C290.335 217.107 290.349 217.099 290.367 217.089C290.403 217.068 290.456 217.036 290.524 216.995C290.66 216.913 290.855 216.791 291.09 216.633C291.562 216.317 292.194 215.858 292.838 215.286C294.136 214.135 295.451 212.557 295.654 210.791L295.664 210.667C295.696 210.038 295.444 209.275 294.943 208.404C294.411 207.48 293.612 206.458 292.628 205.384C290.661 203.235 287.973 200.894 285.258 198.727C282.545 196.56 279.811 194.569 277.754 193.12C276.726 192.396 275.867 191.806 275.266 191.398C274.966 191.195 274.729 191.036 274.568 190.929C274.487 190.875 274.426 190.833 274.384 190.806C274.366 190.794 274.352 190.784 274.341 190.777L237.253 179.836Z" fill="#0B4D5E"/>
<path d="M277.935 211.962C274.873 209.523 272.363 207.761 272.363 207.761C273.069 208.77 271.402 212.561 269.621 212.965C271.639 213.582 273.894 214.312 276.202 215.113C278.137 215.784 279.537 213.238 277.935 211.962Z" fill="#0B4D5E"/>
<path d="M272.466 207.618C272.467 207.619 272.47 207.62 272.472 207.622C272.477 207.626 272.484 207.631 272.494 207.638C272.513 207.651 272.541 207.671 272.579 207.697C272.653 207.75 272.764 207.83 272.906 207.932C273.189 208.135 273.599 208.433 274.105 208.806C275.116 209.552 276.511 210.603 278.044 211.824L278.2 211.959C279.657 213.347 278.295 215.825 276.342 215.338L276.145 215.279C273.839 214.479 271.585 213.749 269.57 213.133L268.937 212.939L269.582 212.793C269.978 212.703 270.387 212.419 270.771 212.004C271.153 211.591 271.497 211.063 271.767 210.513C272.037 209.962 272.228 209.396 272.309 208.913C272.392 208.418 272.353 208.053 272.219 207.861L272.464 207.617L272.466 207.618ZM272.692 208.21C272.717 208.443 272.702 208.704 272.657 208.972C272.568 209.496 272.364 210.093 272.082 210.667C271.801 211.241 271.439 211.8 271.03 212.243C270.761 212.534 270.465 212.778 270.154 212.945C272.048 213.531 274.131 214.208 276.26 214.946L276.422 214.995C278.03 215.396 279.154 213.355 277.954 212.211L277.826 212.1C276.297 210.882 274.905 209.833 273.896 209.089C273.391 208.717 272.983 208.42 272.701 208.217C272.698 208.215 272.695 208.212 272.692 208.21Z" fill="#0B4D5E"/>
<path d="M238.514 224.94C235.405 232.18 238.859 249.163 250.454 253.388C264.767 257.613 272.6 249.537 277.549 242.463C280.783 237.841 281.833 232.162 281.833 232.162C281.833 232.162 288.087 231.04 289.785 226.922C290.289 225.557 289.737 220.762 285.595 218.834C276.439 214.579 262.203 210.835 262.203 210.835C262.203 210.835 237.796 203.168 229.239 204.622C223.335 213.529 258.34 223.67 258.34 223.67L275.762 228.88C278.403 233.271 267.692 231.034 254.643 226.275L241.547 217.469C240.692 217.083 240.158 216.834 239.327 216.425C234.895 222.193 240.045 229.877 248.834 236.559C248.834 236.559 254.726 240.375 270.22 243.876" fill="#8AE5CC"/>
<path d="M229.21 204.448C231.379 204.08 234.532 204.291 238.026 204.806C241.524 205.321 245.384 206.144 248.972 207.012C252.56 207.88 255.881 208.794 258.305 209.49C259.516 209.839 260.504 210.133 261.189 210.34C261.531 210.443 261.798 210.525 261.979 210.581C262.069 210.609 262.138 210.63 262.185 210.645C262.208 210.652 262.226 210.658 262.237 210.661C262.243 210.663 262.248 210.664 262.251 210.665C262.253 210.666 262.256 210.666 262.258 210.667C262.265 210.669 262.276 210.672 262.289 210.676C262.316 210.683 262.357 210.694 262.41 210.708C262.517 210.737 262.675 210.779 262.879 210.834C263.287 210.945 263.879 211.109 264.618 211.318C266.097 211.735 268.164 212.337 270.518 213.071C275.223 214.54 281.08 216.542 285.669 218.674L286.057 218.868C287.94 219.878 289.031 221.488 289.598 223.028C289.9 223.85 290.054 224.654 290.101 225.342C290.147 226.025 290.088 226.609 289.949 226.984L289.947 226.989C289.073 229.112 287.033 230.446 285.244 231.247C284.346 231.649 283.503 231.921 282.884 232.092C282.574 232.178 282.32 232.238 282.143 232.277C282.079 232.292 282.025 232.302 281.983 232.311C281.975 232.349 281.965 232.396 281.953 232.451C281.918 232.617 281.864 232.859 281.789 233.163C281.639 233.772 281.406 234.631 281.07 235.635C280.443 237.516 279.456 239.912 277.992 242.124L277.693 242.565C275.213 246.109 271.999 249.923 267.597 252.318C263.188 254.716 257.602 255.682 250.403 253.557L250.394 253.554C244.528 251.416 240.737 246.058 238.803 240.351C236.875 234.66 236.775 228.569 238.342 224.894C237.131 221.913 237.202 219.024 239.063 216.485C235.972 214.946 233.142 213.252 231.178 211.486C229.942 210.376 229.034 209.226 228.628 208.056C228.218 206.876 228.324 205.685 229.093 204.525L229.135 204.461L229.21 204.448ZM237.975 205.153C234.527 204.646 231.453 204.442 229.345 204.783C228.676 205.829 228.594 206.883 228.961 207.941C229.339 209.03 230.198 210.132 231.413 211.225C233.661 213.245 237.083 215.188 240.751 216.91L241.619 217.309L241.633 217.315L241.645 217.323L241.65 217.326C245.649 219.147 249.833 220.691 253.02 221.78C254.612 222.325 255.955 222.755 256.9 223.049C257.372 223.196 257.745 223.31 257.999 223.386C258.126 223.424 258.223 223.452 258.289 223.472C258.322 223.482 258.348 223.489 258.364 223.494C258.373 223.497 258.379 223.498 258.383 223.499C258.385 223.5 258.387 223.501 258.388 223.501L258.391 223.502L275.878 228.732L275.913 228.79C276.251 229.352 276.399 229.844 276.321 230.257C276.241 230.685 275.93 230.978 275.477 231.158C275.028 231.337 274.418 231.417 273.681 231.417C272.941 231.417 272.059 231.335 271.06 231.183C267.063 230.575 261.11 228.821 254.583 226.441L254.563 226.434L254.545 226.421L241.477 217.634C241.185 217.501 240.894 217.366 240.604 217.23C240.206 217.045 239.836 216.87 239.381 216.647C237.311 219.433 237.491 222.676 239.278 226.068C241.092 229.51 244.551 233.081 248.933 236.413L248.944 236.421C248.955 236.428 248.973 236.438 248.995 236.452C249.041 236.48 249.111 236.523 249.205 236.577C249.394 236.687 249.683 236.849 250.077 237.054C250.867 237.464 252.083 238.048 253.783 238.741C257.184 240.129 262.521 241.956 270.259 243.704L270.22 243.876L270.181 244.047C262.426 242.295 257.07 240.463 253.651 239.068C251.941 238.37 250.715 237.781 249.915 237.366C249.516 237.159 249.222 236.995 249.028 236.882C248.932 236.826 248.86 236.783 248.812 236.753C248.788 236.738 248.769 236.727 248.757 236.719C248.751 236.715 248.746 236.712 248.743 236.71C248.742 236.709 248.74 236.709 248.739 236.708L248.738 236.707L248.727 236.699C244.324 233.352 240.816 229.741 238.967 226.232C238.812 225.937 238.669 225.642 238.537 225.349C237.15 228.949 237.281 234.76 239.137 240.238C241.05 245.886 244.781 251.129 250.505 253.219C257.618 255.318 263.106 254.36 267.429 252.008C271.759 249.652 274.935 245.892 277.404 242.362L277.698 241.93C279.139 239.753 280.114 237.388 280.736 235.524C281.068 234.53 281.299 233.68 281.447 233.079C281.521 232.779 281.575 232.541 281.609 232.378C281.627 232.297 281.639 232.234 281.648 232.193C281.652 232.172 281.655 232.156 281.657 232.146C281.658 232.141 281.659 232.136 281.659 232.134C281.659 232.133 281.659 232.132 281.659 232.131L281.66 232.13L281.682 232.01L281.802 231.988H281.806C281.809 231.988 281.813 231.987 281.818 231.985C281.83 231.983 281.847 231.98 281.869 231.976C281.914 231.967 281.981 231.953 282.067 231.934C282.238 231.896 282.487 231.837 282.79 231.753C283.397 231.585 284.223 231.319 285.101 230.926C286.862 230.137 288.796 228.852 289.619 226.86C289.733 226.551 289.794 226.024 289.749 225.365C289.705 224.71 289.557 223.939 289.267 223.151C288.722 221.672 287.682 220.139 285.89 219.178L285.521 218.993C280.954 216.871 275.115 214.875 270.413 213.407C268.063 212.674 265.999 212.073 264.523 211.655C263.784 211.447 263.193 211.285 262.786 211.174C262.583 211.119 262.426 211.076 262.319 211.048C262.267 211.034 262.226 211.023 262.199 211.016C262.186 211.012 262.175 211.01 262.168 211.008C262.165 211.007 262.163 211.006 262.161 211.006L262.159 211.005L262.151 211.003L262.15 211.002C262.149 211.002 262.147 211.002 262.146 211.001C262.143 211 262.138 210.999 262.133 210.997C262.121 210.994 262.103 210.988 262.08 210.981C262.034 210.966 261.965 210.945 261.875 210.917C261.695 210.861 261.429 210.78 261.087 210.677C260.404 210.47 259.417 210.177 258.207 209.829C255.787 209.134 252.471 208.221 248.889 207.355C245.306 206.488 241.459 205.667 237.975 205.153ZM254.726 226.118C261.238 228.493 267.156 230.233 271.112 230.835C272.102 230.986 272.965 231.064 273.681 231.065C274.4 231.065 274.959 230.986 275.347 230.831C275.73 230.678 275.925 230.463 275.976 230.192C276.027 229.915 275.939 229.536 275.644 229.028L258.289 223.839L258.284 223.837C258.28 223.836 258.274 223.835 258.266 223.832C258.249 223.827 258.223 223.819 258.19 223.81C258.123 223.79 258.025 223.761 257.898 223.723C257.642 223.646 257.268 223.532 256.795 223.385C255.848 223.09 254.502 222.659 252.905 222.113C250.191 221.186 246.751 219.926 243.315 218.446L254.726 226.118Z" fill="#0B4D5E"/>
<path d="M229.282 204.645C226.41 209.772 237.281 214.342 240.836 216.021C253.19 221.522 266.441 224.649 278.956 229.758L278.92 229.877L264.744 225.676C260.537 224.412 254.686 222.75 250.621 221.255C244.74 219.053 231.246 214.045 228.772 208.164C228.534 207.583 228.445 206.948 228.511 206.319C228.582 205.69 228.807 205.09 229.163 204.574L229.27 204.645H229.276H229.282Z" fill="#0B4D5E"/>
<path d="M229.261 204.428L229.324 204.47H229.583L229.435 204.731C228.753 205.949 228.883 207.13 229.529 208.263C230.181 209.405 231.357 210.491 232.751 211.482C235.536 213.463 239.12 215.016 240.907 215.86L242.066 216.368C247.874 218.876 253.87 220.893 259.89 222.869C266.309 224.976 272.758 227.038 279.022 229.596L279.171 229.656L279.125 229.809L279.089 229.928L279.039 230.096L264.694 225.845C260.492 224.582 254.632 222.918 250.56 221.42C247.621 220.32 242.767 218.514 238.339 216.246C236.124 215.112 234.012 213.86 232.295 212.52C230.58 211.181 229.246 209.743 228.61 208.232L228.609 208.23C228.361 207.622 228.267 206.958 228.336 206.301V206.299L228.371 206.054C228.471 205.486 228.692 204.947 229.018 204.475L229.117 204.332L229.261 204.428ZM228.673 206.926C228.695 207.327 228.782 207.723 228.933 208.096C229.535 209.525 230.816 210.919 232.511 212.242C234.204 213.564 236.296 214.804 238.5 215.933C242.907 218.189 247.741 219.989 250.682 221.09C254.74 222.583 260.582 224.241 264.795 225.507L276.546 228.989C271.036 226.856 265.404 225.05 259.781 223.204C253.36 221.096 246.951 218.936 240.764 216.182L240.76 216.18C238.992 215.344 235.366 213.774 232.547 211.77C231.138 210.768 229.913 209.645 229.223 208.437C228.944 207.947 228.753 207.442 228.673 206.926Z" fill="#0B4D5E"/>
<path d="M289.778 226.945C288.099 230.779 281.364 233.028 276.777 231.426C279.732 232.6 281.821 232.185 281.821 232.185C281.821 232.185 288.093 231.052 289.778 226.945Z" fill="#F0F4FF"/>
<path d="M289.941 227.012C289.94 227.013 289.939 227.014 289.939 227.015L289.94 227.016C289.937 227.023 289.932 227.03 289.929 227.037C289.054 229.139 287.024 230.467 285.24 231.266C284.34 231.668 283.495 231.941 282.874 232.113C282.564 232.199 282.309 232.26 282.132 232.3C282.043 232.32 281.974 232.334 281.926 232.344C281.902 232.349 281.884 232.352 281.871 232.354C281.866 232.356 281.861 232.357 281.858 232.357C281.856 232.358 281.855 232.358 281.854 232.358H281.852L281.847 232.359C281.842 232.36 281.835 232.362 281.826 232.363C281.809 232.366 281.783 232.37 281.75 232.375C281.684 232.385 281.588 232.397 281.463 232.407C281.214 232.428 280.853 232.444 280.399 232.422C279.49 232.378 278.209 232.184 276.711 231.589L276.834 231.26C276.836 231.261 276.839 231.261 276.841 231.262H276.842C276.845 231.263 276.848 231.264 276.851 231.265C279.096 232.043 281.877 231.887 284.311 231.058C286.754 230.225 288.805 228.728 289.617 226.875L289.941 227.012ZM281.874 231.995C281.677 232.023 281.48 232.045 281.283 232.063C281.337 232.06 281.387 232.061 281.433 232.057C281.55 232.047 281.64 232.035 281.7 232.026C281.729 232.022 281.752 232.018 281.767 232.016C281.774 232.014 281.779 232.013 281.783 232.013H281.786L281.789 232.012H281.79C281.791 232.012 281.792 232.011 281.793 232.011C281.796 232.01 281.8 232.01 281.806 232.009C281.817 232.007 281.834 232.004 281.857 231.999C281.862 231.998 281.868 231.996 281.874 231.995Z" fill="#0B4D5E"/>
<path d="M275.805 228.838C277.894 231.597 273.734 231.9 271.895 231.751C266.792 231.425 261.914 229.935 257.101 228.345C256.104 227.989 255.113 227.627 254.128 227.253L254.027 227.182L252.402 226.066C249.797 224.221 246.972 222.18 244.45 220.21C243.441 219.426 242.337 218.554 241.358 217.741L241.406 217.771C241.05 217.557 240.694 217.349 240.35 217.13L239.305 216.471L239.359 216.358L241.578 217.397C241.578 217.397 254.781 226.209 254.692 226.15C256.579 226.826 258.472 227.479 260.371 228.108C263.611 229.117 272.785 232.167 275.645 230.796C276.387 230.398 276.09 229.473 275.716 228.903L275.823 228.838H275.805Z" fill="#0B4D5E"/>
<path d="M239.433 216.199L241.653 217.237L241.664 217.243L241.675 217.25L241.578 217.396C241.66 217.272 241.673 217.253 241.675 217.25L241.676 217.251L241.678 217.252C241.68 217.253 241.682 217.255 241.685 217.257C241.691 217.261 241.701 217.267 241.713 217.275C241.738 217.292 241.775 217.317 241.824 217.35C241.92 217.414 242.062 217.509 242.243 217.629C242.603 217.87 243.119 218.214 243.737 218.626C244.973 219.451 246.621 220.552 248.266 221.649C249.911 222.747 251.553 223.842 252.778 224.66C253.39 225.069 253.899 225.409 254.251 225.645C254.428 225.762 254.566 225.854 254.658 225.915L254.772 225.991C256.65 226.664 258.534 227.313 260.423 227.939L261.893 228.401C263.591 228.933 265.905 229.636 268.191 230.173C269.715 230.531 271.221 230.813 272.522 230.921C273.826 231.029 274.891 230.958 275.561 230.641C275.715 230.558 275.809 230.453 275.863 230.338C275.917 230.221 275.936 230.082 275.923 229.928C275.898 229.615 275.746 229.271 275.569 229L275.469 228.848L275.553 228.796L275.452 228.662H276.449L276.063 228.897C276.504 229.533 276.64 230.073 276.502 230.528C276.354 231.019 275.91 231.341 275.388 231.549C274.341 231.966 272.808 232.002 271.88 231.927C266.754 231.598 261.858 230.103 257.046 228.513L257.042 228.511C256.045 228.154 255.052 227.792 254.066 227.418L254.045 227.41L254.027 227.397L253.926 227.326L252.302 226.212L252.3 226.21C249.695 224.364 246.867 222.321 244.341 220.349C243.338 219.57 242.24 218.701 241.263 217.891C241.103 217.795 240.943 217.7 240.783 217.604L240.255 217.278L239.08 216.537L239.146 216.396L239.2 216.283L239.275 216.125L239.433 216.199ZM241.451 217.593L241.452 217.592L241.499 217.621L241.496 217.626C241.977 218.025 242.488 218.439 243.002 218.849L244.558 220.07L245.516 220.812C247.778 222.544 250.222 224.307 252.5 225.921L254.127 227.037L254.129 227.038L254.211 227.097C255.187 227.467 256.168 227.825 257.156 228.178C261.667 229.669 266.221 231.066 270.956 231.502L271.906 231.575L271.909 231.576L272.275 231.598C273.179 231.634 274.409 231.56 275.258 231.222C275.501 231.125 275.703 231.01 275.856 230.878L275.878 230.855C275.833 230.89 275.782 230.922 275.728 230.951L275.721 230.955C274.961 231.319 273.809 231.381 272.493 231.271C271.168 231.162 269.642 230.875 268.111 230.516C265.047 229.797 261.936 228.779 260.319 228.275H260.316C258.416 227.646 256.521 226.992 254.632 226.315L254.645 226.277C254.618 226.289 254.598 226.295 254.595 226.296L254.729 226.027C254.673 226.054 254.598 226.107 254.589 226.214L254.595 226.296C254.594 226.295 254.592 226.294 254.589 226.292C254.584 226.289 254.576 226.284 254.565 226.276C254.543 226.261 254.507 226.238 254.461 226.207C254.37 226.146 254.232 226.054 254.056 225.937C253.704 225.701 253.195 225.362 252.582 224.953C251.357 224.135 249.715 223.039 248.071 221.941C246.426 220.844 244.778 219.744 243.541 218.919C242.923 218.506 242.408 218.163 242.047 217.922C241.867 217.802 241.725 217.707 241.628 217.643C241.58 217.61 241.543 217.585 241.518 217.568C241.507 217.561 241.498 217.555 241.492 217.551L240.984 217.312C241.138 217.405 241.293 217.499 241.451 217.593Z" fill="#0B4D5E"/>
<path d="M238.516 224.94C235.407 232.179 238.546 249.05 250.141 253.269C260.288 256.331 270.216 243.869 270.216 243.869C254.722 240.368 248.83 236.553 248.83 236.553C243.887 232.796 240.095 228.714 238.51 224.845" fill="#0B4D5E"/>
<path d="M238.673 224.778C240.239 228.604 244.002 232.662 248.937 236.412C248.938 236.413 248.939 236.414 248.94 236.415C248.951 236.422 248.969 236.432 248.991 236.446C249.037 236.474 249.107 236.516 249.201 236.571C249.39 236.681 249.679 236.842 250.073 237.047C250.863 237.457 252.079 238.042 253.779 238.735C257.18 240.123 262.517 241.949 270.255 243.697L270.528 243.76L270.354 243.979L270.216 243.869L270.354 243.979H270.353L270.352 243.981C270.35 243.983 270.348 243.985 270.346 243.988C270.341 243.994 270.333 244.004 270.323 244.016C270.304 244.04 270.275 244.075 270.237 244.121C270.161 244.213 270.049 244.346 269.902 244.515C269.609 244.852 269.18 245.329 268.633 245.892C267.539 247.017 265.972 248.486 264.087 249.859C260.324 252.601 255.245 254.993 250.09 253.438L250.081 253.435C244.214 251.3 240.503 245.971 238.647 240.292C236.794 234.617 236.778 228.542 238.355 224.87L238.399 224.89L238.511 224.845L238.673 224.778ZM238.538 225.353C237.147 228.953 237.202 234.735 238.981 240.183C240.817 245.801 244.471 251.016 250.196 253.102C255.186 254.605 260.143 252.298 263.88 249.575C265.745 248.216 267.295 246.761 268.38 245.646C268.922 245.088 269.347 244.616 269.637 244.283C269.742 244.162 269.829 244.058 269.897 243.977C262.293 242.243 257.025 240.439 253.647 239.061C251.937 238.363 250.711 237.774 249.911 237.359C249.512 237.152 249.218 236.989 249.024 236.876C248.928 236.82 248.856 236.776 248.808 236.746C248.784 236.731 248.765 236.721 248.753 236.713C248.747 236.709 248.742 236.706 248.739 236.704C248.738 236.703 248.736 236.702 248.735 236.701L248.734 236.7L248.723 236.693L248.83 236.553L248.723 236.692C243.957 233.071 240.239 229.131 238.538 225.353Z" fill="#0B4D5E"/>
<path d="M283.134 218.252C285.425 218.993 288.101 218.489 290.398 217.261L288.38 221.124C288.38 221.124 288.807 220.085 283.134 218.252Z" fill="#F0F4FF"/>
<path d="M288.536 221.205L288.233 221.063C288.221 221.059 288.218 221.058 288.217 221.058L288.216 221.059V221.061L288.214 221.063C288.214 221.065 288.214 221.067 288.213 221.068C288.213 221.071 288.212 221.073 288.211 221.074V221.072C288.212 221.064 288.21 221.039 288.194 220.996C288.16 220.909 288.061 220.745 287.774 220.512C287.198 220.045 285.915 219.335 283.09 218.422C283.087 218.421 283.083 218.42 283.08 218.419L283.188 218.084C285.419 218.806 288.046 218.319 290.315 217.105L290.818 216.836L288.536 221.205ZM289.988 217.664C288.442 218.406 286.749 218.823 285.123 218.766C286.68 219.368 287.531 219.862 287.996 220.238C288.198 220.402 288.328 220.55 288.415 220.677L289.988 217.664Z" fill="#0B4D5E"/>
<path d="M267.351 106.386C277.955 106.198 278.389 105.793 279.232 95.2185C279.42 105.823 279.825 106.257 290.4 107.1C279.795 107.287 279.361 107.693 278.518 118.267C278.331 107.663 277.925 107.229 267.351 106.386Z" fill="#F0F4FF"/>
<path d="M279.408 95.2153C279.455 97.8689 279.515 99.8727 279.743 101.404C279.97 102.935 280.362 103.968 281.049 104.699C281.736 105.431 282.743 105.885 284.257 106.207C285.772 106.529 287.768 106.714 290.414 106.925L290.403 107.277C287.749 107.323 285.745 107.383 284.214 107.611C282.683 107.838 281.65 108.23 280.919 108.917C280.187 109.604 279.733 110.611 279.411 112.125C279.089 113.64 278.904 115.636 278.693 118.282L278.341 118.271C278.295 115.617 278.235 113.613 278.007 112.082C277.78 110.551 277.388 109.518 276.701 108.787C276.014 108.055 275.007 107.601 273.494 107.279C271.979 106.957 269.983 106.773 267.337 106.562L267.347 106.21C270.001 106.163 272.005 106.103 273.536 105.875C275.067 105.648 276.1 105.256 276.831 104.569C277.563 103.882 278.017 102.875 278.339 101.362C278.661 99.8472 278.845 97.8509 279.056 95.2049L279.408 95.2153ZM279.137 98.2848C279.011 99.51 278.871 100.551 278.683 101.435C278.355 102.977 277.881 104.067 277.073 104.826C276.265 105.585 275.148 105.991 273.589 106.223C272.696 106.355 271.649 106.431 270.421 106.481C271.644 106.607 272.684 106.747 273.567 106.935C275.109 107.263 276.198 107.738 276.958 108.546C277.717 109.354 278.123 110.471 278.355 112.03C278.487 112.922 278.562 113.968 278.612 115.196C278.738 113.973 278.879 112.934 279.067 112.051C279.395 110.509 279.87 109.42 280.678 108.661C281.486 107.902 282.603 107.495 284.162 107.263C285.055 107.131 286.102 107.055 287.332 107.005C286.108 106.879 285.066 106.739 284.183 106.551C282.641 106.223 281.552 105.749 280.793 104.941C280.034 104.133 279.627 103.016 279.395 101.457C279.262 100.563 279.187 99.5152 279.137 98.2848Z" fill="#0B4D5E"/>
<path d="M261.863 92.0635C267.671 91.9611 267.909 91.7362 268.367 85.9488C268.469 91.7572 268.694 91.9956 274.481 92.4528C268.673 92.5552 268.436 92.7743 267.977 98.5674C267.875 92.7591 267.65 92.5207 261.863 92.0635Z" fill="#F0F4FF"/>
<path d="M268.543 85.9457C268.568 87.4004 268.601 88.4929 268.725 89.3258C268.849 90.1574 269.06 90.704 269.42 91.0871C269.78 91.4702 270.313 91.7141 271.135 91.8885C271.958 92.063 273.046 92.1628 274.496 92.2773L274.484 92.6292C273.03 92.6548 271.938 92.6881 271.105 92.8116C270.273 92.9349 269.726 93.1443 269.343 93.5042C268.96 93.864 268.716 94.3969 268.542 95.2195C268.367 96.043 268.267 97.1313 268.153 98.5819L267.802 98.5708C267.776 97.1163 267.742 96.0243 267.618 95.1914C267.495 94.3595 267.284 93.8123 266.924 93.4291C266.564 93.0461 266.031 92.8022 265.209 92.6278C264.385 92.4533 263.298 92.3537 261.849 92.2392L261.859 91.8881C263.314 91.8624 264.407 91.8289 265.239 91.705C266.071 91.5812 266.618 91.3704 267.001 91.0102C267.384 90.65 267.628 90.1172 267.802 89.2949C267.977 88.4717 268.076 87.3845 268.191 85.9353L268.543 85.9457ZM268.287 88.5431C268.245 88.8421 268.2 89.1166 268.147 89.368C267.966 90.2188 267.701 90.8346 267.241 91.2668C266.782 91.6987 266.151 91.9253 265.291 92.0533C265.035 92.0913 264.757 92.1192 264.455 92.1428C264.755 92.1847 265.03 92.23 265.282 92.2834C266.132 92.4639 266.748 92.7289 267.18 93.1885C267.612 93.6481 267.839 94.2787 267.967 95.1392C268.005 95.3947 268.033 95.6732 268.056 95.976C268.098 95.6751 268.144 95.3991 268.198 95.1464C268.378 94.2954 268.643 93.6795 269.103 93.2476C269.562 92.816 270.193 92.5905 271.053 92.4629C271.308 92.4252 271.585 92.3964 271.887 92.373C271.588 92.3311 271.313 92.2862 271.062 92.2328C270.211 92.0524 269.596 91.7876 269.164 91.328C268.732 90.8683 268.506 90.238 268.378 89.3773C268.34 89.1224 268.31 88.845 268.287 88.5431Z" fill="#0B4D5E"/>
<path d="M214.448 114.433C214.448 110.4 230.581 109.3 235.714 114.433H214.448Z" fill="#0B4D5E"/>
<path d="M223.151 110.819C225.502 110.75 228.016 110.969 230.268 111.529C232.517 112.088 234.523 112.993 235.839 114.308L236.139 114.609H214.272V114.433C214.272 113.864 214.558 113.361 215.034 112.933C215.508 112.507 216.18 112.144 216.988 111.844C218.604 111.246 220.802 110.888 223.151 110.819ZM223.162 111.172C220.836 111.24 218.679 111.593 217.11 112.174C216.325 112.465 215.698 112.809 215.269 113.195C214.9 113.527 214.687 113.882 214.636 114.256H235.265C234.016 113.164 232.22 112.377 230.183 111.871C227.967 111.32 225.486 111.103 223.162 111.172Z" fill="#0B4D5E"/>
<path d="M198.314 114.433C198.314 110.4 182.181 109.3 177.047 114.433H198.314Z" fill="#0B4D5E"/>
<path d="M189.611 110.819C187.26 110.75 184.746 110.969 182.494 111.529C180.245 112.088 178.239 112.993 176.923 114.308L176.623 114.609H198.49V114.433C198.49 113.864 198.204 113.361 197.728 112.933C197.254 112.507 196.581 112.144 195.774 111.844C194.158 111.246 191.96 110.888 189.611 110.819ZM189.6 111.172C191.926 111.24 194.083 111.593 195.652 112.174C196.437 112.465 197.064 112.809 197.493 113.195C197.862 113.527 198.075 113.882 198.126 114.256H177.497C178.746 113.164 180.542 112.377 182.579 111.871C184.795 111.32 187.276 111.103 189.6 111.172Z" fill="#0B4D5E"/>
<path d="M251.848 131.285C251.848 129.444 252.857 127.752 254.475 126.877C256.6 125.728 259.181 127.266 259.181 129.682V138.647C259.181 140.487 258.172 142.179 256.553 143.055C254.429 144.203 251.848 142.665 251.848 140.25V131.285Z" fill="#F0F4FF"/>
<path d="M259.005 138.647V129.682C259.005 127.4 256.567 125.947 254.56 127.032C252.998 127.876 252.023 129.509 252.023 131.285V140.249C252.023 142.532 254.462 143.985 256.47 142.9C258.032 142.055 259.005 140.423 259.005 138.647ZM259.357 138.647C259.357 140.552 258.312 142.303 256.637 143.209C254.395 144.422 251.672 142.798 251.672 140.249V131.285C251.672 129.38 252.716 127.628 254.392 126.722C256.634 125.51 259.357 127.133 259.357 129.682V138.647Z" fill="#0B4D5E"/>
<path d="M251.848 132.033L258.201 136.163C258.812 136.56 259.181 137.239 259.181 137.968V138.688C259.181 140.503 258.186 142.173 256.589 143.036C254.448 144.193 251.848 142.643 251.848 140.21V132.033Z" fill="#8AE5CC"/>
<path d="M259.005 138.688V137.968C259.005 137.299 258.666 136.675 258.105 136.311L252.023 132.356V140.21C252.024 142.51 254.482 143.975 256.505 142.881C258.045 142.048 259.005 140.438 259.005 138.688ZM259.357 138.688C259.357 140.567 258.326 142.296 256.673 143.19C254.415 144.411 251.672 142.777 251.672 140.21V131.709L258.298 136.016C258.958 136.445 259.357 137.18 259.357 137.968V138.688Z" fill="#0B4D5E"/>
<path d="M258.432 131.965C257.676 133.734 255.895 134.669 254.455 134.053C253.014 133.438 252.459 131.504 253.215 129.735C254.078 127.716 255.752 127.031 257.192 127.647C258.633 128.263 259.188 130.196 258.432 131.965Z" fill="#F0F4FF"/>
<path d="M258.27 131.896C259.002 130.184 258.445 128.374 257.123 127.809C256.45 127.521 255.724 127.537 255.064 127.861C254.403 128.186 253.795 128.826 253.377 129.805C252.645 131.517 253.202 133.327 254.524 133.892C255.846 134.457 257.538 133.608 258.27 131.896ZM258.594 132.034C257.814 133.86 255.945 134.882 254.386 134.215C252.826 133.549 252.273 131.492 253.053 129.667C253.498 128.626 254.158 127.913 254.91 127.545C255.662 127.175 256.495 127.158 257.262 127.486C258.821 128.152 259.374 130.209 258.594 132.034Z" fill="#0B4D5E"/>
<path d="M258.452 131.946C257.701 133.702 255.989 134.654 254.628 134.072C253.266 133.49 252.771 131.595 253.521 129.839C254.272 128.083 255.984 127.131 257.345 127.713C258.707 128.294 259.202 130.19 258.452 131.946Z" fill="#F0F4FF"/>
<path d="M258.29 131.877C259.019 130.17 258.512 128.403 257.276 127.874C256.04 127.346 254.413 128.201 253.683 129.908C252.953 131.616 253.461 133.382 254.697 133.91C255.933 134.438 257.56 133.584 258.29 131.877ZM258.614 132.015C257.843 133.82 256.045 134.869 254.558 134.234C253.072 133.599 252.589 131.575 253.36 129.77C254.131 127.966 255.927 126.916 257.414 127.551C258.901 128.186 259.385 130.211 258.614 132.015Z" fill="#0B4D5E"/>
<path d="M257.246 140.223C256.864 141.116 255.993 141.601 255.3 141.305C254.608 141.009 254.356 140.044 254.737 139.151C255.119 138.257 255.99 137.773 256.683 138.069C257.376 138.365 257.628 139.329 257.246 140.223Z" fill="#0B4D5E"/>
<path d="M257.084 140.152C257.445 139.308 257.181 138.473 256.614 138.23C256.047 137.988 255.26 138.374 254.899 139.219C254.538 140.064 254.802 140.9 255.37 141.142C255.937 141.385 256.723 140.997 257.084 140.152ZM257.408 140.291C257.006 141.233 256.049 141.815 255.232 141.466C254.414 141.116 254.173 140.023 254.576 139.081C254.979 138.139 255.934 137.557 256.752 137.907C257.57 138.257 257.811 139.349 257.408 140.291Z" fill="#0B4D5E"/>
<path d="M256.645 136.298C256.446 136.763 255.992 137.015 255.632 136.861C255.271 136.707 255.14 136.205 255.339 135.74C255.537 135.275 255.991 135.022 256.352 135.177C256.712 135.331 256.844 135.833 256.645 136.298Z" fill="#F0F4FF"/>
<path d="M256.483 136.229C256.661 135.812 256.518 135.439 256.282 135.338C256.047 135.238 255.678 135.393 255.5 135.809C255.322 136.226 255.465 136.599 255.701 136.7C255.936 136.8 256.305 136.646 256.483 136.229ZM256.807 136.367C256.587 136.881 256.048 137.231 255.562 137.023C255.077 136.815 254.957 136.185 255.177 135.671C255.397 135.157 255.935 134.808 256.42 135.015C256.906 135.223 257.026 135.854 256.807 136.367Z" fill="#0B4D5E"/>
<path d="M258.084 131.793C257.44 133.299 255.986 134.122 254.835 133.631C253.684 133.139 253.274 131.519 253.918 130.012C254.561 128.506 256.016 127.683 257.167 128.174C258.317 128.666 258.728 130.286 258.084 131.793Z" fill="#0B4D5E"/>
<path d="M257.922 131.724C258.23 131.003 258.283 130.26 258.128 129.646C257.972 129.032 257.612 128.556 257.098 128.336C256.584 128.117 255.99 128.186 255.439 128.497C254.888 128.809 254.387 129.361 254.079 130.082C253.771 130.803 253.718 131.545 253.874 132.159C254.03 132.773 254.39 133.25 254.904 133.469C255.418 133.689 256.012 133.62 256.563 133.308C257.114 132.996 257.614 132.445 257.922 131.724ZM258.246 131.862C257.91 132.648 257.36 133.261 256.736 133.614C256.111 133.967 255.402 134.064 254.766 133.793C254.13 133.521 253.709 132.941 253.533 132.245C253.357 131.55 253.42 130.729 253.756 129.944C254.092 129.158 254.641 128.544 255.265 128.191C255.89 127.837 256.599 127.741 257.236 128.013C257.872 128.285 258.292 128.864 258.469 129.559C258.645 130.255 258.582 131.077 258.246 131.862Z" fill="#0B4D5E"/>
</svg>
