<svg width="172" height="172" viewBox="0 0 172 172" fill="none" xmlns="http://www.w3.org/2000/svg">
<g clip-path="url(#clip0_9503_14689)">
<path d="M128.459 11.8838L41.4336 62.3514L48.5503 89.203L135.899 39.7052L128.459 11.8838Z" fill="#C4DAE6"/>
<path d="M48.5512 89.5717C48.5036 89.5717 48.455 89.5626 48.4073 89.5433C48.304 89.4987 48.2249 89.4085 48.1956 89.2981L41.0768 62.4475C41.0332 62.2864 41.1032 62.1171 41.247 62.033L128.274 11.5634C128.375 11.5077 128.493 11.4985 128.601 11.5421C128.707 11.5867 128.787 11.6769 128.815 11.7884L136.256 39.6108C136.3 39.7729 136.23 39.9431 136.083 40.0262L48.7347 89.5241C48.6769 89.5565 48.6131 89.5717 48.5512 89.5717ZM41.8632 62.5296L48.7843 88.6455L135.47 39.5246L128.226 12.444L41.8632 62.5296Z" fill="#588995"/>
<path d="M155.953 112.823L135.896 39.707L48.5474 89.2049L67.958 163.613L155.953 112.823Z" fill="#ECF8FF"/>
<path d="M67.9578 163.983C67.9102 163.983 67.8615 163.974 67.8159 163.954C67.7105 163.91 67.6285 163.819 67.6001 163.708L48.1885 89.2992C48.1479 89.137 48.2199 88.9668 48.3638 88.8847L135.712 39.3869C135.815 39.3291 135.933 39.3261 136.036 39.3666C136.142 39.4112 136.222 39.5004 136.25 39.6108L156.308 112.727C156.354 112.888 156.282 113.059 156.138 113.143L68.1432 163.934C68.0855 163.966 68.0226 163.983 67.9578 163.983ZM48.9748 89.3863L68.1939 163.051L155.521 112.647L135.664 40.2624L48.9748 89.3863Z" fill="#588995"/>
<path d="M41.4282 62.3638L14.9009 132.889L54.3696 111.537L41.4292 62.3648L41.4282 62.3638Z" fill="#588995"/>
<path d="M14.9001 133.256C14.814 133.256 14.7268 133.225 14.6569 133.165C14.5414 133.064 14.5008 132.901 14.5535 132.757L41.0809 62.2338C41.1386 62.0838 41.316 62.0068 41.4457 61.9946C41.6068 62.0027 41.7436 62.1152 41.7841 62.2703L54.7256 111.443C54.7691 111.607 54.6921 111.78 54.5432 111.861L15.0754 133.211C15.0197 133.242 14.9599 133.256 14.9001 133.256ZM41.3656 63.5775L15.5922 132.093L53.9392 111.35L41.3646 63.5765L41.3656 63.5775Z" fill="#588995"/>
<path d="M67.9571 163.613L54.3691 111.529L14.9014 132.88L67.9571 163.613Z" fill="#C4DAE6"/>
<path d="M67.9558 163.983C67.891 163.983 67.8282 163.967 67.7704 163.933L14.7157 133.199C14.6002 133.132 14.5303 133.008 14.5303 132.875C14.5323 132.74 14.6073 132.619 14.7248 132.556L54.1946 111.205C54.298 111.149 54.4186 111.145 54.5169 111.19C54.6202 111.236 54.6993 111.326 54.7286 111.436L68.3146 163.521C68.351 163.664 68.2973 163.817 68.1798 163.908C68.1149 163.958 68.0359 163.983 67.9558 163.983ZM15.6551 132.891L67.3742 162.851L54.1318 112.078L15.6551 132.891Z" fill="#588995"/>
<path d="M79.9054 86.8914L68.8285 93.1671C67.5669 93.8835 66.9457 95.3549 67.3115 96.7604L70.4276 108.697C70.9616 110.742 73.2933 111.716 75.1214 110.66L86.1729 104.281C87.4183 103.56 88.0334 102.099 87.6676 100.703L84.5809 88.8665C84.051 86.8337 81.7375 85.8538 79.9094 86.8904L79.9064 86.8925L79.9054 86.8914Z" fill="#C4DAE6"/>
<path d="M73.5243 111.461C73.0602 111.461 72.592 111.369 72.1451 111.182C71.1095 110.749 70.3525 109.877 70.0688 108.791L66.9517 96.8547C66.5454 95.2911 67.2426 93.6434 68.6461 92.8469L79.7037 86.5814C79.7108 86.5764 79.7179 86.5723 79.725 86.5683C80.6988 86.019 81.8449 85.9522 82.8734 86.3859C83.902 86.8206 84.6539 87.6911 84.9376 88.7723L88.0232 100.611C88.4265 102.158 87.7425 103.799 86.3553 104.601L75.3047 110.981C74.7525 111.3 74.1394 111.461 73.5243 111.461ZM80.107 87.2006C80.0999 87.2057 80.0948 87.2087 80.0877 87.2128L69.0109 93.4894C67.8982 94.1217 67.3449 95.429 67.6672 96.6693L70.7842 108.604C71.0082 109.467 71.6081 110.158 72.4309 110.501C73.2477 110.844 74.1637 110.786 74.9349 110.341L85.9854 103.961C87.0859 103.326 87.629 102.024 87.3068 100.798L84.2212 88.9587C83.9972 88.1025 83.4014 87.4114 82.5846 87.0658C81.779 86.7253 80.8781 86.774 80.107 87.2006Z" fill="#588995"/>
<path d="M101.861 74.5621L90.7846 80.8397C89.5229 81.5531 88.9018 83.0255 89.2676 84.43L92.3826 96.3682C92.9166 98.4112 95.2494 99.385 97.0764 98.3301L108.128 91.9511C109.373 91.2296 109.988 89.7683 109.623 88.373L106.536 76.5351C106.005 74.5043 103.693 73.5224 101.864 74.559L101.861 74.5621Z" fill="#C4DAE6"/>
<path d="M95.4813 99.1318C95.0152 99.1318 94.5491 99.0396 94.1022 98.8531C93.0665 98.4194 92.3096 97.5489 92.0258 96.4626L88.9088 84.5244C88.5024 82.9598 89.1996 81.3131 90.6031 80.5197L101.661 74.2532C101.668 74.2481 101.675 74.244 101.682 74.24C102.656 73.6897 103.802 73.6239 104.828 74.0576C105.857 74.4923 106.612 75.3618 106.896 76.443L109.981 88.2819C110.385 89.8293 109.701 91.4709 108.313 92.2725L97.2628 98.6504C96.7075 98.9697 96.0974 99.1328 95.4823 99.1328L95.4813 99.1318ZM102.064 74.8713C102.057 74.8764 102.052 74.8794 102.045 74.8835L90.9679 81.1611C89.8532 81.7924 89.2999 83.0986 89.6242 84.338L92.7412 96.2752C92.9652 97.1365 93.5651 97.8276 94.3879 98.1711C95.2047 98.5136 96.1187 98.4549 96.8919 98.01L107.942 91.632C109.043 90.9967 109.586 89.6945 109.264 88.4673L106.178 76.6284C105.954 75.7722 105.356 75.0821 104.54 74.7375C103.727 74.394 102.826 74.4467 102.064 74.8713Z" fill="#588995"/>
<path d="M123.828 62.1L112.751 68.3756C111.489 69.0921 110.868 70.5634 111.234 71.9659L114.349 83.9041C114.883 85.949 117.216 86.9239 119.043 85.868L130.094 79.489C131.34 78.7675 131.955 77.3032 131.589 75.9109L128.502 64.074C127.971 62.0412 125.659 61.0613 123.831 62.0979L123.828 62.1Z" fill="#C4DAE6"/>
<path d="M117.448 86.6696C116.982 86.6696 116.515 86.5774 116.068 86.3899C115.033 85.9572 114.276 85.0848 113.992 83.9984L110.875 72.0602C110.469 70.4977 111.166 68.852 112.569 68.0555L123.627 61.791C123.634 61.7859 123.641 61.7819 123.648 61.7778C124.622 61.2276 125.765 61.1627 126.795 61.5944C127.825 62.0291 128.578 62.8996 128.862 63.9808L131.948 75.8197C132.354 77.3661 131.667 79.0077 130.28 79.8103L119.229 86.1883C118.674 86.5075 118.064 86.6706 117.449 86.6706L117.448 86.6696ZM124.03 62.4091C124.023 62.4142 124.016 62.4172 124.011 62.4213L112.934 68.6959C111.82 69.3283 111.266 70.6345 111.591 71.8728L114.708 83.81C114.932 84.6723 115.531 85.3644 116.354 85.709C117.171 86.0505 118.089 85.9937 118.858 85.5479L129.909 79.1699C131.009 78.5345 131.552 77.2313 131.23 76.0052L128.145 64.1663C127.921 63.31 127.325 62.6199 126.508 62.2733C125.7 61.9329 124.799 61.9825 124.03 62.4091Z" fill="#588995"/>
<path d="M86.2115 110.906L75.1347 117.181C73.873 117.898 73.2519 119.369 73.6177 120.772L76.7337 132.71C77.2678 134.755 79.5995 135.73 81.4275 134.674L92.4791 128.295C93.7245 127.573 94.3396 126.109 93.9738 124.717L90.8871 112.88C90.3571 110.847 88.0437 109.867 86.2156 110.904L86.2115 110.906Z" fill="#C4DAE6"/>
<path d="M79.8305 135.475C79.3643 135.475 78.8982 135.383 78.4513 135.196C77.4157 134.763 76.6587 133.891 76.3749 132.804L73.2579 120.866C72.8515 119.303 73.5487 117.658 74.9522 116.861L86.0098 110.597C86.0169 110.592 86.024 110.588 86.0311 110.584C87.0049 110.032 88.1531 109.965 89.1796 110.4C90.2081 110.835 90.96 111.705 91.2438 112.787L94.3294 124.626C94.7357 126.172 94.0487 127.814 92.6614 128.616L81.6109 134.994C81.0556 135.313 80.4456 135.475 79.8305 135.475ZM86.4131 111.216C86.4061 111.221 86.399 111.224 86.3939 111.228L75.317 117.503C74.2023 118.135 73.6491 119.441 73.9733 120.68L77.0904 132.617C77.3143 133.479 77.9142 134.171 78.7371 134.516C79.5538 134.858 80.4719 134.8 81.241 134.355L92.2916 127.977C93.392 127.341 93.9352 126.038 93.613 124.812L90.5273 112.973C90.3034 112.117 89.7075 111.426 88.8908 111.08C88.0852 110.74 87.1843 110.789 86.4131 111.216Z" fill="#588995"/>
<path d="M108.168 98.5762L97.0907 104.852C95.8291 105.568 95.2079 107.04 95.5737 108.445L98.6888 120.381C99.2228 122.426 101.556 123.401 103.383 122.345L114.434 115.966C115.68 115.245 116.295 113.783 115.929 112.388L112.842 100.551C112.311 98.5204 109.999 97.5385 108.171 98.5752L108.168 98.5762Z" fill="#F35F5F"/>
<path d="M101.787 123.146C101.323 123.146 100.855 123.054 100.408 122.866C99.3727 122.433 98.6157 121.561 98.332 120.475L95.2149 108.54C94.8086 106.976 95.5058 105.328 96.9092 104.532L107.967 98.2662C107.974 98.2612 107.981 98.2571 107.988 98.2531C108.962 97.7028 110.108 97.6379 111.135 98.0717C112.165 98.5064 112.918 99.3768 113.202 100.457L116.287 112.296C116.691 113.842 116.007 115.484 114.619 116.286L103.569 122.666C103.017 122.985 102.403 123.146 101.787 123.146ZM108.37 98.8854C108.363 98.8904 108.358 98.8935 108.351 98.8975L97.274 105.174C96.1614 105.807 95.6081 107.114 95.9304 108.354L99.0474 120.287C99.2713 121.15 99.8712 121.842 100.694 122.186C101.511 122.528 102.427 122.471 103.198 122.026L114.249 115.646C115.349 115.011 115.892 113.709 115.57 112.482L112.484 100.644C112.26 99.7872 111.665 99.0972 110.848 98.7526C110.035 98.4101 109.136 98.4567 108.37 98.8854Z" fill="#588995"/>
<path d="M130.125 86.1144L119.048 92.39C117.786 93.1034 117.165 94.5778 117.531 95.9803L120.646 107.918C121.18 109.963 123.513 110.935 125.34 109.882L136.391 103.501C137.637 102.78 138.252 101.319 137.886 99.9252L134.799 88.0873C134.268 86.0546 131.956 85.0747 130.128 86.1083L130.125 86.1144Z" fill="#C4DAE6"/>
<path d="M123.747 110.682C123.278 110.682 122.809 110.59 122.362 110.402C121.329 109.969 120.572 109.097 120.288 108.012L117.171 96.0737C116.765 94.5091 117.462 92.8624 118.865 92.0689L129.906 85.8146C129.918 85.8054 129.932 85.7963 129.944 85.7892C130.918 85.24 132.066 85.1751 133.093 85.6089C134.121 86.0446 134.873 86.9151 135.157 87.9953L138.242 99.8312C138.646 101.379 137.962 103.019 136.575 103.821L125.524 110.203C124.972 110.521 124.36 110.682 123.747 110.682ZM130.343 86.4124C130.331 86.4205 130.319 86.4276 130.307 86.4357L119.23 92.7104C118.115 93.3417 117.562 94.6479 117.886 95.8872L121.003 107.824C121.227 108.686 121.827 109.377 122.647 109.72C123.464 110.065 124.382 110.006 125.154 109.563L136.205 103.181C137.305 102.546 137.848 101.244 137.526 100.019L134.44 88.1828C134.216 87.3244 133.621 86.6354 132.804 86.2888C132.006 85.9504 131.105 85.9919 130.343 86.4124Z" fill="#588995"/>
<path d="M67.9526 163.63L41.4242 62.3705L38.8007 60.8525L12.2764 131.362L67.9526 163.631V163.63ZM39.5293 67.4079L62.1299 156.188L16.2335 129.333L39.5293 67.4079Z" fill="#ECF8FF"/>
<path d="M67.9538 164C67.8889 164 67.8261 163.985 67.7683 163.95L12.0911 131.683C11.9351 131.592 11.8672 131.402 11.93 131.233L38.4553 60.722C38.4938 60.6197 38.5759 60.5407 38.6762 60.5042C38.7816 60.4667 38.8921 60.4788 38.9863 60.5315L41.6109 62.0505C41.695 62.1002 41.7578 62.1813 41.7842 62.2765L68.3115 163.536C68.348 163.68 68.2943 163.833 68.1767 163.923C68.1119 163.974 68.0328 163.999 67.9528 163.999L67.9538 164ZM12.7326 131.2L67.3721 162.866L41.1083 62.6129L38.9934 61.3888L12.7326 131.2ZM62.1301 156.558C62.0652 156.558 62.0004 156.541 61.9426 156.507L16.0462 129.653C15.8922 129.563 15.8253 129.373 15.8871 129.205L39.1829 67.2784C39.2386 67.1345 39.3754 67.0392 39.5295 67.0392H39.5487C39.7099 67.0484 39.8467 67.1608 39.8872 67.3169L62.4878 156.098C62.5243 156.242 62.4706 156.395 62.351 156.484C62.2862 156.534 62.2091 156.558 62.1301 156.558ZM16.6887 129.173L61.5565 155.425L39.4626 68.6383L16.6887 129.173Z" fill="#588995"/>
<path d="M125.843 10.4023L38.8193 60.87L41.4236 62.3565L128.448 11.8879" fill="#ECF8FF"/>
<path d="M41.4234 62.7253C41.3606 62.7253 41.2957 62.7101 41.241 62.6777L38.6357 61.1911C38.5202 61.1252 38.4503 61.0036 38.4482 60.8719C38.4482 60.7401 38.5182 60.6175 38.6337 60.5507L125.66 10.082L126.03 10.7215L39.5589 60.8678L41.4214 61.9308L128.262 11.5686L128.632 12.208L41.6089 62.6756C41.5511 62.7081 41.4883 62.7253 41.4234 62.7253Z" fill="#588995"/>
<path d="M63.5446 49.8224C61.8463 44.8044 57.653 41.8342 53.9979 43.0766C50.3975 44.2997 48.8795 49.0868 50.4775 54.04L53.3605 52.3396C52.6775 49.482 53.3737 46.7064 55.0396 46.143C56.8707 45.5107 59.4203 47.7279 60.4843 50.8631C61.0467 52.519 61.1541 54.269 60.7752 55.6623C60.5907 56.3443 60.1185 57.5502 59.0342 57.917C58.0797 58.2443 56.8413 57.7863 55.7277 56.7041C55.0903 56.0839 54.0648 56.094 53.4406 56.7335C52.8163 57.3729 52.8285 58.3943 53.47 59.0196C54.9646 60.4788 56.7208 61.257 58.3999 61.257C58.9724 61.257 59.5358 61.1658 60.0759 60.9834C61.904 60.3633 63.3014 58.7318 63.9033 56.5065C64.4495 54.4808 64.3269 52.1065 63.5537 49.8245L63.5436 49.8224H63.5446Z" fill="#588995"/>
<path d="M83.5412 38.2428C81.8428 33.2248 77.6496 30.2547 73.9945 31.497C70.3941 32.7201 68.8761 37.5072 70.4741 42.4604L73.3571 40.76C72.6741 37.9024 73.3703 35.1268 75.0362 34.5634C76.8673 33.9311 79.4169 36.1483 80.4809 39.2836C81.0433 40.9394 81.1507 42.6894 80.7717 44.0828C80.5873 44.7647 80.1151 45.9706 79.0308 46.3374C78.0762 46.6648 76.8379 46.2067 75.7243 45.1245C75.0869 44.5023 74.0614 44.5114 73.4372 45.1539C72.8129 45.7933 72.8251 46.8147 73.4665 47.44C74.9612 48.8992 76.7173 49.6744 78.3965 49.6744C78.969 49.6744 79.5324 49.5862 80.0725 49.4038C81.9006 48.7837 83.298 47.1522 83.8999 44.9269C84.4461 42.9012 84.3235 40.5269 83.5503 38.2449L83.5402 38.2428H83.5412Z" fill="#588995"/>
<path d="M103.085 26.7919C101.386 21.7769 97.1931 18.8057 93.538 20.0491C89.9376 21.2722 88.4206 26.0593 90.0176 31.0125L92.9006 29.3091C92.2176 26.4514 92.9138 23.6779 94.5797 23.1145C96.4108 22.4791 98.9604 24.6994 100.024 27.8346C100.587 29.4904 100.694 31.2405 100.315 32.6308C100.131 33.3148 99.6586 34.5207 98.5753 34.8875C97.6208 35.2128 96.3814 34.7568 95.2688 33.6746C94.6314 33.0524 93.6059 33.0615 92.9817 33.7019C92.3574 34.3444 92.3706 35.3658 93.0111 35.9911C94.5057 37.4503 96.2619 38.2255 97.941 38.2255C98.5135 38.2255 99.0769 38.1343 99.6171 37.9549C101.445 37.3327 102.843 35.7033 103.444 33.4759C103.991 31.4503 103.868 29.078 103.095 26.797L103.085 26.7919Z" fill="#588995"/>
<path d="M121.783 16.0253C120.084 11.0103 115.891 8.03914 112.236 9.28252C108.635 10.5056 107.118 15.2927 108.716 20.2459L111.599 18.5425C110.916 15.6848 111.613 12.9113 113.279 12.3479C115.11 11.7125 117.659 13.9328 118.723 17.068C119.287 18.7238 119.393 20.4739 119.014 21.8642C118.83 22.5482 118.357 23.7541 117.274 24.1209C116.32 24.4462 115.08 23.9902 113.968 22.9079C113.33 22.2858 112.305 22.2949 111.681 22.9353C111.056 23.5778 111.069 24.5992 111.71 25.2245C113.205 26.6837 114.961 27.4589 116.64 27.4589C117.212 27.4589 117.776 27.3677 118.316 27.1883C120.144 26.5661 121.541 24.9367 122.143 22.7093C122.691 20.6837 122.567 18.3114 121.794 16.0304L121.785 16.0253H121.783Z" fill="#588995"/>
<path d="M128.277 12.204L125.648 10.9424L125.66 10.082L128.642 11.5625L128.277 12.204Z" fill="#588995"/>
</g>
<defs>
<clipPath id="clip0_9503_14689">
<rect width="172" height="172" fill="white"/>
</clipPath>
</defs>
</svg>
