<svg width="411" height="300" viewBox="0 0 411 300" fill="none" xmlns="http://www.w3.org/2000/svg">
<mask id="path-1-inside-1_9941_1238" fill="white">
<path d="M156 39H247V261H156V39Z"/>
</mask>
<path d="M247 39H246V261H247H248V39H247ZM156 261H157V39H156H155V261H156Z" fill="#0B4D5E" mask="url(#path-1-inside-1_9941_1238)"/>
<path d="M218.5 97.5V99.5H182.5V97.5H218.5ZM224.5 91.5V55.5C224.5 52.1863 221.814 49.5 218.5 49.5H182.5C179.186 49.5 176.5 52.1863 176.5 55.5V91.5C176.5 94.8137 179.186 97.5 182.5 97.5V99.5L182.088 99.4893C177.861 99.2748 174.5 95.7801 174.5 91.5V55.5C174.5 51.0817 178.082 47.5 182.5 47.5H218.5C222.918 47.5 226.5 51.0817 226.5 55.5V91.5C226.5 95.9183 222.918 99.5 218.5 99.5V97.5C221.814 97.5 224.5 94.8137 224.5 91.5Z" fill="#0B4D5E"/>
<path d="M169 126.5C169 122.082 172.582 118.5 177 118.5H224C228.418 118.5 232 122.082 232 126.5V173.5C232 177.918 228.418 181.5 224 181.5H177C172.582 181.5 169 177.918 169 173.5V126.5Z" fill="#0B4D5E"/>
<path d="M218.5 250.5V252.5H182.5V250.5H218.5ZM224.5 244.5V208.5C224.5 205.186 221.814 202.5 218.5 202.5H182.5C179.186 202.5 176.5 205.186 176.5 208.5V244.5C176.5 247.814 179.186 250.5 182.5 250.5V252.5L182.088 252.489C177.861 252.275 174.5 248.78 174.5 244.5V208.5C174.5 204.082 178.082 200.5 182.5 200.5H218.5C222.918 200.5 226.5 204.082 226.5 208.5V244.5C226.5 248.918 222.918 252.5 218.5 252.5V250.5C221.814 250.5 224.5 247.814 224.5 244.5Z" fill="#0B4D5E"/>
<path d="M220.522 162.002C220.556 162.003 220.589 162.007 220.623 162.011C220.639 162.013 220.654 162.014 220.67 162.017C220.724 162.026 220.777 162.038 220.83 162.057L254.51 173.94L254.518 173.943C254.562 173.959 254.606 173.978 254.648 174.001C254.663 174.009 254.677 174.019 254.691 174.027C254.715 174.042 254.739 174.058 254.762 174.074C254.781 174.088 254.8 174.102 254.818 174.117C254.823 174.121 254.828 174.124 254.832 174.128C254.844 174.138 254.853 174.15 254.864 174.16C254.894 174.189 254.922 174.218 254.948 174.25C254.965 174.271 254.982 174.291 254.997 174.313C255.009 174.33 255.019 174.348 255.029 174.365C255.042 174.386 255.054 174.407 255.064 174.428C255.076 174.451 255.088 174.474 255.098 174.498C255.103 174.511 255.107 174.525 255.112 174.538C255.131 174.59 255.146 174.643 255.156 174.698C255.159 174.712 255.162 174.726 255.164 174.739C255.168 174.765 255.169 174.79 255.171 174.816C255.172 174.838 255.174 174.86 255.174 174.882C255.174 174.902 255.176 174.922 255.175 174.942C255.174 174.949 255.172 174.956 255.171 174.964L255.172 174.965L255.027 176.716C254.973 177.369 254.501 177.913 253.861 178.057L240.474 181.064L234.892 192.527C234.347 193.645 232.757 193.653 232.201 192.541L219.179 166.508C219.036 166.223 218.989 165.899 219.042 165.585L219.51 162.832C219.515 162.803 219.525 162.775 219.532 162.747C219.535 162.738 219.536 162.729 219.539 162.72C219.549 162.685 219.561 162.651 219.575 162.617C219.582 162.602 219.588 162.586 219.596 162.57C219.61 162.54 219.627 162.51 219.645 162.482C219.652 162.469 219.66 162.457 219.668 162.444C219.688 162.415 219.709 162.387 219.731 162.36C219.737 162.354 219.741 162.345 219.747 162.338C219.753 162.332 219.76 162.327 219.766 162.32C219.787 162.297 219.81 162.275 219.834 162.254C219.849 162.241 219.864 162.228 219.88 162.216C219.904 162.197 219.929 162.18 219.955 162.163C219.971 162.153 219.987 162.142 220.004 162.133C220.03 162.118 220.056 162.104 220.083 162.092C220.103 162.083 220.122 162.075 220.143 162.068C220.169 162.057 220.197 162.048 220.225 162.04C220.247 162.034 220.269 162.029 220.292 162.025C220.311 162.021 220.329 162.014 220.349 162.011C220.356 162.01 220.364 162.011 220.371 162.01C220.398 162.007 220.424 162.005 220.451 162.004C220.475 162.003 220.499 162.001 220.522 162.002ZM234.044 190.083V190.086L220.496 163L220.027 165.753C220.01 165.858 220.026 165.966 220.073 166.061L233.096 192.094C233.281 192.465 233.811 192.462 233.992 192.089L239.785 180.194L253.642 177.08C253.855 177.032 254.012 176.852 254.03 176.634L254.174 174.882H254.177L220.497 163L234.044 190.083Z" fill="#F0F4FF"/>
<path d="M239.96 178.075L234.044 190.086L220.496 163L220.027 165.753C220.01 165.858 220.026 165.965 220.073 166.06L233.095 192.094C233.281 192.465 233.811 192.462 233.992 192.089L239.785 180.193L253.642 177.081C253.855 177.033 254.012 176.852 254.03 176.634L254.175 174.882L239.96 178.075Z" fill="#0B4D5E"/>
<path d="M220.497 163L234.046 190.086L239.962 178.075L254.177 174.882L220.497 163Z" fill="#8AE5CC"/>
<path d="M254.177 174.882L239.962 178.075L239.603 177.898L239.688 177.727L252.731 174.797L221.297 163.706L234.042 189.186L239.603 177.898L239.962 178.075L234.046 190.086L220.497 163L254.177 174.882Z" fill="#0B4D5E"/>
</svg>
