<svg width="172" height="172" viewBox="0 0 172 172" fill="none" xmlns="http://www.w3.org/2000/svg">
<path d="M22.4852 138.168L63.0373 161.662C65.234 162.941 67.9738 162.953 70.1951 161.699L121.212 132.817C122.792 131.913 122.817 129.682 121.237 128.769L80.3886 105.092C78.1179 103.774 75.3289 103.761 73.0335 105.042L22.5346 133.51C20.7081 134.547 20.6835 137.119 22.5099 138.18L22.4852 138.168Z" fill="#0B4D5E"/>
<path d="M66.646 163C65.3304 163 64.0199 162.66 62.8524 161.983L22.3003 138.489C22.3003 138.489 22.2756 138.474 22.2632 138.464C21.3278 137.894 20.7749 136.919 20.7798 135.84C20.7872 134.735 21.3722 133.743 22.3496 133.19L72.8535 104.719C75.2501 103.381 78.2069 103.399 80.5739 104.771L121.422 128.448C122.276 128.942 122.785 129.816 122.782 130.786C122.782 131.763 122.261 132.644 121.395 133.14L70.3778 162.023C69.2203 162.677 67.9319 163 66.6435 163H66.646ZM22.7248 137.879L63.2226 161.342C65.3033 162.554 67.9072 162.568 70.0126 161.376L121.03 132.496C121.662 132.136 122.039 131.494 122.039 130.783C122.039 130.082 121.674 129.448 121.052 129.09L80.2037 105.413C78.0638 104.171 75.3858 104.154 73.2163 105.366L22.7149 133.834C21.972 134.256 21.5277 135.006 21.5228 135.843C21.5228 136.677 21.9596 137.43 22.6976 137.859C22.7075 137.864 22.7149 137.872 22.7248 137.879Z" fill="#0B4D5E"/>
<path d="M54.6942 150.013L18.6341 49.0395C17.5728 46.1246 18.8069 42.8938 21.5219 41.3586L72.0949 13.0362C73.6251 12.1822 75.6984 11.9157 77.5495 12.5006L84.263 14.7195L65.4555 158.362L57.6067 153.584C56.2492 152.755 55.2125 151.498 54.6695 150.013H54.6942Z" fill="#F0F4FF"/>
<path d="M65.4556 158.733C65.389 158.733 65.3223 158.715 65.2631 158.678L57.4143 153.9C55.9877 153.029 54.8894 151.693 54.3217 150.141C54.3044 150.099 54.297 150.055 54.297 150.01L18.2838 49.1653C17.1633 46.0924 18.4467 42.674 21.3369 41.0401L71.9099 12.7152C73.5907 11.7773 75.7973 11.5577 77.6583 12.15L84.3766 14.369C84.5444 14.4258 84.6506 14.5936 84.6284 14.7688L65.8209 158.412C65.8061 158.535 65.7271 158.644 65.6136 158.698C65.5617 158.723 65.5099 158.733 65.4556 158.733ZM55.0646 150.01C55.5854 151.355 56.5554 152.508 57.7993 153.268L65.1594 157.75L83.8534 14.9761L77.4312 12.8535C75.7528 12.3229 73.7758 12.5179 72.2702 13.3595L21.6998 41.6818C19.1255 43.1356 17.9802 46.1763 18.9774 48.9136L55.0374 149.889C55.0497 149.929 55.0572 149.968 55.0596 150.01H55.0646Z" fill="#0B4D5E"/>
<path d="M80.3137 69.2097L66.5906 160.48L58.7418 155.7C57.3843 154.87 56.3477 153.616 55.8047 152.128L18.634 49.1187C18.1403 47.7785 18.1403 46.3642 18.5599 45.0833L80.3137 69.2097Z" fill="#8AE5CC"/>
<path d="M66.5912 160.853C66.5246 160.853 66.4579 160.836 66.3987 160.799L58.5499 156.018C57.1208 155.144 56.0225 153.806 55.4573 152.256L18.2866 49.2469C17.7732 47.8598 17.746 46.3788 18.2075 44.9694C18.2396 44.8732 18.3087 44.7942 18.4001 44.7498C18.4939 44.7078 18.6024 44.703 18.6938 44.74L80.4081 68.854C80.5661 68.8959 80.6821 69.0416 80.6821 69.2119C80.6821 69.2391 80.682 69.2638 80.6746 69.286L66.954 160.539C66.9343 160.66 66.8578 160.766 66.7443 160.818C66.6924 160.843 66.643 160.853 66.5912 160.853ZM18.8024 45.5743C18.5136 46.7072 18.5728 47.882 18.9825 48.9902L56.1533 152.002C56.6617 153.394 57.6491 154.596 58.9374 155.383L66.3074 159.873L79.9046 69.4489L18.8024 45.5743Z" fill="#8AE5CC"/>
<path d="M66.9616 161.273L58.4711 156.114C57.0149 155.225 55.9042 153.87 55.3365 152.286L18.1657 49.2766C17.6474 47.8623 17.6227 46.3616 18.067 44.9226L18.2398 44.4216L80.8574 68.8911L66.9616 161.273ZM18.8815 45.7298C18.6347 46.801 18.7087 47.8993 19.0789 48.9458L56.2497 151.955C56.7433 153.332 57.7306 154.517 58.9894 155.285L66.2211 159.673L79.7714 69.5254L18.8815 45.7298Z" fill="#0B4D5E"/>
<path d="M25.5459 51.7297L63.0129 155.507C64.0989 158.567 67.7764 159.907 70.6642 158.298L121.484 129.855C124.199 128.332 125.433 125.123 124.421 122.223L87.6699 17.97C86.5839 14.8848 82.9064 13.5199 79.9939 15.1415L28.4584 44.0487C25.7187 45.5839 24.5092 48.8148 25.5459 51.7297Z" fill="#F0F4FF"/>
<path d="M68.0249 159.355C67.3363 159.355 66.6403 159.231 65.9764 158.98C64.4165 158.392 63.2096 157.173 62.6617 155.633L25.1972 51.8582C24.0988 48.7656 25.3922 45.3472 28.2775 43.7306L79.813 14.8232C81.3087 13.989 83.0883 13.8557 84.6901 14.4629C86.2574 15.0577 87.4718 16.2917 88.0222 17.8516L124.773 122.105C125.844 125.175 124.539 128.572 121.668 130.181L70.8461 158.624C69.9724 159.11 69.0048 159.357 68.0274 159.357L68.0249 159.355ZM25.8932 51.6065L63.3601 155.383C63.834 156.721 64.883 157.778 66.238 158.289C67.6374 158.817 69.185 158.701 70.4833 157.977L121.305 129.534C123.86 128.1 125.025 125.077 124.072 122.347L87.3212 18.0936C86.8448 16.741 85.7909 15.6699 84.4285 15.154C83.0266 14.6234 81.479 14.7393 80.1734 15.4649L28.6378 44.3723C26.0709 45.8113 24.9158 48.8545 25.8932 51.6065Z" fill="#0B4D5E"/>
<path d="M30.2108 52.8159L66.5671 151.508C67.1594 153.142 69.1093 153.836 70.6395 152.984L117.979 126.503C119.806 125.479 120.62 123.347 119.929 121.394L84.7575 21.9563C84.1652 20.3125 82.2153 19.5795 80.6603 20.4582L32.136 47.6575C30.3095 48.6818 29.495 50.8636 30.2108 52.8159Z" fill="#0B4D5E"/>
<path d="M69.2329 153.72C68.8479 153.72 68.4604 153.651 68.0877 153.513C67.214 153.187 66.5302 152.5 66.2192 151.634L29.863 52.9441C29.0806 50.8116 29.9593 48.452 31.956 47.3339L80.4804 20.1347C81.3122 19.6658 82.2995 19.5817 83.2053 19.9149C84.0938 20.2457 84.7898 20.9442 85.1082 21.8302L120.282 121.271C121.028 123.381 120.137 125.718 118.165 126.827L70.8224 153.308C70.3313 153.582 69.7833 153.72 69.2354 153.72H69.2329ZM30.559 52.69L66.9153 151.382C67.1572 152.046 67.6779 152.57 68.3493 152.821C69.0428 153.081 69.8154 153.024 70.4571 152.663L117.799 126.182C119.458 125.252 120.208 123.29 119.581 121.518L84.4097 22.0796C84.1629 21.4008 83.6322 20.8627 82.9461 20.6085C82.2501 20.3518 81.485 20.4136 80.8432 20.7789L32.3164 47.9806C30.6405 48.9186 29.9 50.9006 30.5565 52.69H30.559Z" fill="#0B4D5E"/>
<path d="M86.0158 107.35L95.3949 87.0496L153.792 11.1311L149.473 8.68007C148.732 8.26542 147.844 8.26542 147.128 8.68007L83.4242 44.9254C81.894 45.7917 80.9561 47.3886 80.9561 49.1188V103.594C80.9561 104.142 81.2522 104.64 81.7212 104.909L86.0158 107.336" fill="#F0F4FF"/>
<path d="M86.0164 107.72C85.9645 107.72 85.9103 107.711 85.8634 107.686C85.8214 107.669 85.7893 107.642 85.7573 107.614L81.5391 105.233C80.9517 104.894 80.5864 104.268 80.5864 103.594V49.1186C80.5864 47.2601 81.6058 45.5299 83.2422 44.6018L146.946 8.35665C147.773 7.88029 148.809 7.88276 149.656 8.35665L153.978 10.8101C154.069 10.8619 154.136 10.9532 154.158 11.0594C154.178 11.163 154.153 11.274 154.089 11.358L95.6917 87.2767L86.3546 107.508C86.2929 107.644 86.1595 107.723 86.0189 107.723L86.0164 107.72ZM148.293 8.7417C147.95 8.7417 147.615 8.82804 147.316 9.00081L83.61 45.2485C82.2031 46.0458 81.3293 47.5291 81.3293 49.121V103.596C81.3293 104.006 81.5515 104.386 81.9069 104.591L85.856 106.82L95.0598 86.8941L153.24 11.2444L149.288 9.00337C148.977 8.8306 148.632 8.74411 148.291 8.74411L148.293 8.7417Z" fill="#0B4D5E"/>
<path d="M86.0158 107.348L81.7212 104.921C81.2522 104.652 80.9561 104.154 80.9561 103.603V49.1307C80.9561 48.1928 81.2275 47.2894 81.7212 46.5342L112.968 64.2112L95.3949 87.0616L86.0158 107.36" fill="#0B4D5E"/>
<path d="M86.0164 107.73C85.9645 107.73 85.9103 107.72 85.8634 107.696C85.8239 107.678 85.7943 107.656 85.7646 107.629L81.5391 105.242C80.9517 104.904 80.5864 104.277 80.5864 103.601V49.1284C80.5864 48.1213 80.8727 47.1539 81.4132 46.3295C81.5194 46.1641 81.7391 46.1173 81.9044 46.2111L113.152 63.8881C113.243 63.94 113.31 64.0313 113.332 64.1375C113.351 64.2411 113.327 64.3521 113.263 64.436L95.6892 87.2864L86.3521 107.513C86.2904 107.649 86.1571 107.728 86.0164 107.728V107.73ZM81.8551 47.0354C81.5095 47.6698 81.3293 48.388 81.3293 49.1309V103.604C81.3293 104.013 81.5515 104.396 81.9069 104.601L85.8535 106.83L95.0598 86.9063L112.414 64.3225L81.8526 47.0354H81.8551Z" fill="#0B4D5E"/>
<path d="M152.113 11.1654L87.7681 47.7783C86.4846 48.5114 85.6948 49.8393 85.6948 51.2906V106.701C85.6948 107.58 86.9042 107.874 87.2991 107.106L92.3589 97.912C92.7044 97.2678 93.2227 96.7297 93.8891 96.3767L152.805 63.0318C153.989 62.3604 154.73 61.1041 154.73 59.7638V12.6415C154.73 11.3234 153.273 10.5064 152.113 11.1654Z" fill="#8AE5CC"/>
<path d="M86.5736 107.92C86.4724 107.92 86.3688 107.908 86.2676 107.883C85.7024 107.748 85.3247 107.271 85.3247 106.703V51.2929C85.3247 49.7231 86.1935 48.2546 87.5856 47.4599L151.928 10.847C152.602 10.4644 153.402 10.4742 154.066 10.8567C154.713 11.2344 155.1 11.9008 155.1 12.6437V59.7662C155.1 61.2422 154.291 62.6169 152.987 63.3549L94.0719 96.7C93.482 97.0135 93.0057 97.4922 92.6849 98.087L87.6226 107.286C87.4153 107.686 87.0154 107.92 86.5711 107.92H86.5736ZM152.296 11.4886L87.9533 48.1016C86.7711 48.7754 86.0677 49.9675 86.0677 51.2905V106.701C86.0677 106.973 86.2602 107.118 86.4404 107.162C86.6132 107.207 86.8476 107.17 86.9686 106.938L92.0357 97.7342C92.4232 97.011 93.0057 96.4285 93.7166 96.0509L152.622 62.7108C153.696 62.1036 154.36 60.9756 154.36 59.7662V12.6437C154.36 12.1698 154.11 11.7404 153.693 11.4985C153.261 11.2467 152.736 11.2418 152.296 11.4911V11.4886Z" fill="#0B4D5E"/>
<path d="M133.527 49.1553C133.527 50.6412 132.441 52.4601 131.133 53.203C129.8 53.9583 128.714 53.361 128.714 51.8727C128.714 50.3844 129.8 48.5556 131.133 47.8126C132.441 47.0697 133.527 47.667 133.527 49.1553Z" fill="#F0F4FF"/>
<path d="M130.043 53.9044C129.744 53.9044 129.465 53.8328 129.214 53.6871C128.653 53.3613 128.342 52.7171 128.342 51.8755C128.342 50.2613 129.515 48.2942 130.951 47.492C131.706 47.065 132.462 47.0131 133.027 47.3413C133.59 47.6696 133.901 48.3139 133.901 49.158C133.901 50.7574 132.741 52.7196 131.316 53.5267C130.872 53.7785 130.443 53.9044 130.043 53.9044ZM132.198 47.8671C131.936 47.8671 131.63 47.9584 131.316 48.1362C130.107 48.8124 129.088 50.5229 129.088 51.8755C129.088 52.4432 129.265 52.8602 129.589 53.0478C129.924 53.2428 130.423 53.1861 130.951 52.885C132.148 52.2062 133.16 50.5006 133.16 49.1604C133.16 48.5902 132.982 48.1731 132.657 47.9831C132.526 47.9066 132.373 47.8697 132.2 47.8697L132.198 47.8671Z" fill="#0B4D5E"/>
<path d="M124.05 54.5312C124.05 56.0171 122.989 57.8362 121.656 58.5791C120.323 59.3343 119.237 58.737 119.237 57.2487C119.237 55.7604 120.323 53.9315 121.656 53.1885C122.989 52.4333 124.05 53.0429 124.05 54.5312Z" fill="#F0F4FF"/>
<path d="M120.565 59.2801C120.267 59.2801 119.985 59.2085 119.736 59.0629C119.173 58.7371 118.865 58.0929 118.865 57.2512C118.865 55.6371 120.037 53.6699 121.474 52.8678C122.244 52.4334 122.979 52.3742 123.552 52.7099C124.115 53.0357 124.423 53.6847 124.423 54.5338C124.423 56.1776 123.285 58.0953 121.836 58.9049C121.395 59.1566 120.963 59.2801 120.565 59.2801ZM122.732 53.2355C122.468 53.2355 122.165 53.3293 121.839 53.5119C120.629 54.1857 119.61 55.8987 119.61 57.2512C119.61 57.8189 119.785 58.2361 120.111 58.4237C120.447 58.6212 120.945 58.5594 121.474 58.2607C122.671 57.5918 123.683 55.8863 123.683 54.5338C123.683 53.9587 123.507 53.5367 123.184 53.3491C123.053 53.2726 122.903 53.2355 122.735 53.2355H122.732Z" fill="#0B4D5E"/>
<path d="M114.547 59.9193C114.547 61.4076 113.461 63.2243 112.129 63.9672C110.796 64.7224 109.734 64.1251 109.734 62.6392C109.734 61.1534 110.796 59.3221 112.129 58.5792C113.461 57.8215 114.547 58.431 114.547 59.9193Z" fill="#F0F4FF"/>
<path d="M111.043 64.668C110.746 64.668 110.473 64.5965 110.226 64.4533C109.668 64.13 109.362 63.4858 109.362 62.6416C109.362 61.0176 110.524 59.0529 111.948 58.2582C112.719 57.8213 113.461 57.7645 114.044 58.1001C114.609 58.4284 114.918 59.0752 114.918 59.9217C114.918 61.5581 113.77 63.4759 112.309 64.2929C111.867 64.5422 111.435 64.668 111.04 64.668H111.043ZM113.215 58.6259C112.948 58.6259 112.637 58.7197 112.314 58.9023C111.117 59.5712 110.105 61.2817 110.105 62.6416C110.105 63.2118 110.278 63.6289 110.598 63.814C110.924 64.009 111.423 63.9449 111.946 63.6487C113.155 62.9749 114.175 61.2669 114.175 59.9217C114.175 59.3491 113.997 58.9295 113.669 58.7395C113.538 58.663 113.385 58.6259 113.212 58.6259H113.215Z" fill="#0B4D5E"/>
</svg>
