<svg width="411" height="300" viewBox="0 0 411 300" fill="none" xmlns="http://www.w3.org/2000/svg">
<g clip-path="url(#clip0_9503_9310)">
<path d="M97.0148 97.0508C96.8968 97.1201 96.8942 97.2897 97.0099 97.3627L98.8723 98.5371L187.46 46.555L185.206 45.2207L97.0148 97.0508Z" fill="#8AE5CC"/>
<path d="M187.46 46.5547L98.8724 98.5371L97.0101 97.3623C96.8944 97.2893 96.8971 97.1201 97.015 97.0508L185.205 45.2207L187.46 46.5547ZM97.2826 97.2109L98.8764 98.2158L186.92 46.5537L185.205 45.5381L97.2826 97.2109Z" fill="#0B4D5E"/>
<path d="M98.8166 254.668L187.407 202.691V46.7744L98.8166 98.6792V254.668Z" fill="#F0F4FF"/>
<path d="M187.544 202.77L98.6798 254.907V98.6006L98.7472 98.5605L187.338 46.6562L187.544 46.5352V202.77ZM98.9533 98.7568V254.43L187.27 202.613V47.0127L98.9533 98.7568Z" fill="#0B4D5E"/>
<path d="M98.9974 98.3331L97.2613 97.2914C97.079 97.182 96.847 97.3129 96.8464 97.5255L96.3919 253.889C96.3915 254.007 96.467 254.112 96.5792 254.149L98.7699 254.88C98.9473 254.939 99.1304 254.807 99.1304 254.62V98.568C99.1304 98.4718 99.08 98.3826 98.9974 98.3331Z" fill="#0B4D5E"/>
<path d="M149.888 95.1564L179.373 77.856V75.9287L149.888 93.205V95.1564Z" fill="#0B4D5E"/>
<path d="M179.511 77.9346L149.751 95.3955V93.127L149.818 93.0869L179.305 75.8105L179.511 75.6895V77.9346ZM150.024 93.2832V94.917L179.236 77.7773V76.167L150.024 93.2832Z" fill="#0B4D5E"/>
<path d="M149.888 103.717L179.373 86.4166V84.4893L149.888 101.766V103.717Z" fill="#0B4D5E"/>
<path d="M179.511 86.4951L149.751 103.956V101.688L149.818 101.647L179.305 84.3711L179.511 84.25V86.4951ZM150.024 101.844V103.478L179.236 86.3379V84.7275L150.024 101.844Z" fill="#0B4D5E"/>
<path d="M149.888 112.221L179.373 94.9205V92.9932L149.888 110.269V112.221Z" fill="#0B4D5E"/>
<path d="M179.511 94.999L149.751 112.46V110.191L149.818 110.151L179.305 92.875L179.511 92.7539V94.999ZM150.024 110.348V111.981L179.236 94.8418V93.2314L150.024 110.348Z" fill="#0B4D5E"/>
<path d="M105.537 154.199L179.373 110.879V108.571L105.537 151.833V154.199Z" fill="#0B4D5E"/>
<path d="M179.51 110.957L179.443 110.997L105.401 154.438V151.754L105.468 151.715L179.304 108.453L179.51 108.332V110.957ZM105.674 151.911V153.959L179.237 110.8V108.81L105.674 151.911Z" fill="#0B4D5E"/>
<path d="M105.537 165.116L179.373 121.796V119.488L105.537 162.75V165.116Z" fill="#0B4D5E"/>
<path d="M179.51 121.874L179.443 121.914L105.401 165.354V162.671L105.468 162.632L179.304 119.37L179.51 119.249V121.874ZM105.674 162.828V164.876L179.237 121.717V119.727L105.674 162.828Z" fill="#0B4D5E"/>
<path d="M105.537 175.744L179.373 132.424V130.116L105.537 173.377V175.744Z" fill="#0B4D5E"/>
<path d="M179.51 132.502L179.443 132.542L105.401 175.982V173.298L105.468 173.259L179.304 129.998L179.51 129.877V132.502ZM105.674 173.455V175.504L179.237 132.345V130.354L105.674 173.455Z" fill="#0B4D5E"/>
<path d="M123.181 216.66L185.49 180.101C197.641 172.971 205.106 159.937 205.106 145.848C205.106 137.393 195.927 132.132 188.632 136.406L126.337 172.905C114.174 180.032 106.699 193.073 106.699 207.171V207.222C106.699 215.68 115.885 220.94 123.179 216.661L123.181 216.66Z" fill="#8AE5CC"/>
<path d="M192.128 135.765L262.834 137.798L262.782 140.916L121.565 177.335" fill="url(#paint0_linear_9503_9310)"/>
<path d="M121.565 177.336L248.308 144.545L248.244 149.563L120.399 217.825" fill="url(#paint1_linear_9503_9310)"/>
<path d="M272.228 172.295L272.809 171.959L234.941 150.156V158.301C234.941 159.7 235.688 160.994 236.899 161.694L266.543 178.818C269.069 180.276 272.228 178.454 272.228 175.537V172.295Z" fill="#F0F4FF"/>
<path d="M234.805 158.302V149.919L272.878 171.84L273.083 171.959L272.364 172.373V175.537C272.364 178.465 269.293 180.329 266.722 179.068L266.475 178.937L236.831 161.812C235.577 161.089 234.805 159.749 234.805 158.302ZM235.078 158.302C235.078 159.652 235.799 160.9 236.968 161.575L266.611 178.699L266.842 178.822C269.233 179.994 272.091 178.261 272.091 175.537V172.216L272.159 172.176L272.534 171.958L235.078 150.393V158.302Z" fill="#0B4D5E"/>
<path d="M272.228 176.534C272.228 179.021 274.928 180.57 277.074 179.314L312.863 158.375C313.81 157.828 314.395 156.816 314.395 155.721V148.017L272.226 172.295L272.228 176.534Z" fill="#0B4D5E"/>
<path d="M314.258 148.253L272.363 172.374L272.365 176.533L272.372 176.754C272.525 179.005 275.014 180.36 277.005 179.195L312.794 158.257L312.96 158.153C313.767 157.612 314.258 156.701 314.258 155.721V148.253ZM314.532 155.721C314.532 156.793 313.995 157.789 313.112 158.381L312.931 158.494L277.143 179.432C274.906 180.741 272.091 179.127 272.091 176.534L272.09 172.216L272.158 172.177L314.326 147.897L314.532 147.779V155.721Z" fill="#0B4D5E"/>
<path d="M236.481 152.684L267.399 170.66C270.426 172.42 274.162 172.427 277.197 170.68L312.816 150.173C314.95 148.944 314.955 145.866 312.822 144.631L281.769 126.649C278.739 124.894 275.002 124.893 271.972 126.644L236.487 147.148C234.359 148.378 234.356 151.449 236.481 152.684Z" fill="#8AE5CC"/>
<path d="M272.193 126.364C275.212 124.752 278.861 124.807 281.838 126.531L312.89 144.513L313.092 144.639C315.047 145.954 315.043 148.855 313.087 150.166L312.884 150.291L277.265 170.799C274.284 172.515 270.636 172.562 267.62 170.941L267.33 170.779L236.412 152.803C234.196 151.515 234.199 148.313 236.419 147.029L271.903 126.526L272.193 126.364ZM281.7 126.768C278.806 125.092 275.258 125.038 272.322 126.607L272.04 126.763L236.555 147.266L236.556 147.267C234.519 148.444 234.516 151.383 236.549 152.566L267.467 170.541C270.452 172.277 274.136 172.285 277.129 170.562L312.748 150.054L312.933 149.939C314.728 148.735 314.732 146.074 312.939 144.866L312.754 144.75L281.7 126.768Z" fill="#0B4D5E"/>
<path d="M267.399 179.212C270.426 180.972 274.162 180.98 277.197 179.233V170.679C274.162 172.427 270.426 172.419 267.399 170.659V179.212Z" fill="#F0F4FF"/>
<path d="M267.467 170.541C270.452 172.276 274.137 172.283 277.129 170.561L277.334 170.442V179.312L277.266 179.352C274.189 181.123 270.4 181.115 267.33 179.331L267.262 179.291V170.421L267.467 170.541ZM267.535 179.132C270.485 180.816 274.103 180.823 277.061 179.151V170.911C274.09 172.53 270.499 172.522 267.535 170.892V179.132Z" fill="#0B4D5E"/>
<path d="M251.451 143.903L253.721 145.223C253.943 145.352 254.218 145.352 254.441 145.224L257.056 143.718C257.213 143.628 257.213 143.401 257.056 143.311L254.776 141.99C254.553 141.861 254.279 141.861 254.056 141.99L251.449 143.496C251.294 143.586 251.294 143.811 251.451 143.903Z" fill="#F0F4FF"/>
<path d="M254.089 141.821C254.333 141.72 254.612 141.737 254.845 141.872L254.844 141.872L257.125 143.192H257.124C257.373 143.334 257.373 143.694 257.124 143.836L257.123 143.835L254.51 145.342H254.509C254.244 145.494 253.917 145.494 253.652 145.34V145.341L251.382 144.021C251.135 143.877 251.133 143.52 251.381 143.376L253.987 141.872L254.089 141.821ZM254.707 142.109C254.527 142.004 254.305 142.004 254.125 142.109H254.124L251.518 143.614C251.454 143.65 251.452 143.745 251.52 143.784L253.79 145.104L253.859 145.138C254.024 145.207 254.215 145.196 254.373 145.105L256.988 143.598L257.025 143.561C257.05 143.517 257.037 143.457 256.988 143.429H256.987L254.707 142.109Z" fill="#0B4D5E"/>
<path d="M246.088 146.884L248.359 148.204C248.581 148.334 248.856 148.334 249.079 148.206L251.694 146.699C251.851 146.609 251.851 146.382 251.694 146.292L249.413 144.972C249.19 144.843 248.916 144.843 248.693 144.972L246.087 146.477C245.931 146.567 245.931 146.793 246.088 146.884Z" fill="#F0F4FF"/>
<path d="M248.726 144.802C248.97 144.701 249.25 144.718 249.482 144.853L249.481 144.854L251.763 146.173H251.762C252.011 146.316 252.011 146.675 251.762 146.818L251.761 146.817L249.147 148.324H249.146C248.881 148.476 248.554 148.476 248.29 148.322V148.323L246.019 147.002C245.772 146.859 245.77 146.501 246.018 146.358L248.625 144.853L248.726 144.802ZM249.345 145.09C249.164 144.986 248.943 144.986 248.763 145.09H248.762L246.155 146.595C246.092 146.632 246.09 146.726 246.157 146.765L248.428 148.085L248.497 148.12C248.662 148.188 248.852 148.177 249.011 148.086L251.626 146.58L251.663 146.542C251.687 146.498 251.675 146.439 251.626 146.411H251.625L249.345 145.09Z" fill="#0B4D5E"/>
<path d="M240.588 150.036L242.858 151.357C243.08 151.486 243.355 151.486 243.578 151.358L246.193 149.851C246.35 149.761 246.35 149.535 246.193 149.445L243.913 148.124C243.69 147.995 243.416 147.995 243.193 148.124L240.586 149.63C240.431 149.72 240.429 149.945 240.586 150.036H240.588Z" fill="#F0F4FF"/>
<path d="M243.226 147.956C243.47 147.854 243.749 147.872 243.982 148.006L243.981 148.007L246.262 149.327H246.261C246.51 149.469 246.51 149.829 246.261 149.971L246.26 149.97L243.647 151.477H243.646C243.381 151.629 243.054 151.629 242.789 151.475V151.476L240.551 150.174H240.549L240.518 150.156C240.269 150.011 240.271 149.654 240.518 149.511L243.124 148.006L243.226 147.956ZM243.844 148.244C243.664 148.139 243.442 148.139 243.262 148.244H243.261L240.655 149.748C240.59 149.786 240.59 149.878 240.654 149.916L240.657 149.918L242.927 151.239L242.996 151.273C243.161 151.341 243.352 151.331 243.51 151.24L246.125 149.733L246.162 149.696C246.187 149.652 246.174 149.592 246.125 149.564H246.124L243.844 148.244Z" fill="#0B4D5E"/>
<path d="M206.87 127.408C215.52 127.019 215.835 126.703 216.224 118.044C216.612 126.703 216.928 127.019 225.578 127.408C216.928 127.797 216.612 128.113 216.224 136.773C215.835 128.113 215.52 127.797 206.87 127.408Z" fill="#F0F4FF"/>
<path d="M216.224 118.044C216.612 126.703 216.928 127.019 225.578 127.408C216.928 127.797 216.612 128.113 216.224 136.772C215.836 128.113 215.52 127.797 206.87 127.408C215.52 127.019 215.836 126.703 216.224 118.044ZM216.174 123.169C215.95 124.451 215.585 125.403 214.903 126.086C214.22 126.769 213.27 127.134 211.989 127.358C211.885 127.377 211.779 127.392 211.67 127.408C211.779 127.425 211.885 127.44 211.989 127.458C213.27 127.683 214.22 128.048 214.903 128.73C215.585 129.413 215.95 130.365 216.174 131.647C216.192 131.75 216.207 131.855 216.223 131.962C216.239 131.855 216.255 131.75 216.273 131.647C216.497 130.365 216.862 129.413 217.544 128.73C218.227 128.048 219.177 127.683 220.458 127.458C220.562 127.44 220.668 127.425 220.776 127.408C220.668 127.392 220.562 127.376 220.458 127.358C219.177 127.134 218.227 126.769 217.544 126.086C216.862 125.403 216.497 124.451 216.273 123.169C216.255 123.066 216.239 122.961 216.223 122.854C216.207 122.961 216.192 123.067 216.174 123.169Z" fill="#0B4D5E"/>
<path d="M245.217 122.609C249.017 122.42 249.155 122.266 249.326 118.044C249.497 122.266 249.635 122.42 253.435 122.609C249.635 122.799 249.497 122.953 249.326 127.174C249.155 122.953 249.017 122.799 245.217 122.609Z" fill="#F0F4FF"/>
<path d="M249.326 118.044C249.496 122.266 249.636 122.42 253.435 122.609C249.636 122.799 249.496 122.953 249.326 127.175C249.155 122.953 249.017 122.799 245.217 122.609C249.017 122.42 249.155 122.266 249.326 118.044ZM249.326 121.33C249.226 121.622 249.092 121.874 248.904 122.083C248.685 122.326 248.414 122.491 248.093 122.608C248.414 122.726 248.685 122.893 248.904 123.136C249.092 123.345 249.226 123.596 249.326 123.888C249.426 123.596 249.559 123.345 249.748 123.136C249.966 122.893 250.237 122.726 250.557 122.608C250.237 122.491 249.966 122.326 249.748 122.083C249.559 121.874 249.426 121.622 249.326 121.33Z" fill="#0B4D5E"/>
<path d="M195.652 157.028C195.879 156.686 195.32 156.382 195.094 156.723C194.791 157.172 194.435 157.582 194.036 157.946C193.19 158.681 192.203 159.233 191.134 159.57C190.066 159.906 188.939 160.018 187.826 159.9C186.534 159.763 185.287 159.347 184.17 158.683C183.052 158.018 182.092 157.121 181.351 156.05C180.631 155.021 179.829 153.658 180.476 152.406C181.057 151.286 182.347 151.386 183.228 152.079C184.516 153.081 185.486 154.821 186.014 156.342C186.477 157.649 186.627 159.047 186.447 160.422C186.186 162.349 185.244 164.508 183.563 165.627C181.88 166.746 179.542 165.917 177.91 165.114C176.169 164.254 174.672 163.065 173.038 162.032C172.738 161.842 172.215 161.447 171.86 161.743C171.414 162.119 172.022 163.04 172.188 163.39C173.055 165.077 173.717 166.863 174.166 168.708C174.284 169.284 174.512 170.237 174.241 170.81C174.138 170.963 173.999 171.087 173.834 171.172C173.671 171.257 173.488 171.299 173.304 171.295C172.135 171.345 170.972 171.076 169.941 170.516C168.909 170.019 167.849 169.308 167.358 168.23L166.933 168.68C167.795 169.089 168.593 169.619 169.305 170.254C170.123 171.009 170.904 172.246 170.398 173.342C169.89 174.436 168.522 174.869 167.415 174.97C165.51 175.144 163.663 174.556 161.96 173.751C161.373 173.472 160.652 173.206 160.045 173.576C159.518 173.9 159.303 174.563 159.132 175.125C158.882 175.957 158.715 176.809 158.436 177.632C158.113 178.646 157.577 179.579 156.866 180.369C155.939 181.28 154.799 181.947 153.55 182.308C151.115 183.154 148.38 183.631 145.871 182.808C144.448 182.328 143.198 181.44 142.275 180.254C142.202 180.169 141.236 178.405 140.895 179.225C140.734 179.619 141.212 180.368 141.36 180.703C141.938 181.999 142.573 183.275 143.208 184.542C143.736 185.58 144.521 186.629 144.223 187.852C143.954 188.712 143.447 189.477 142.762 190.059C140.7 192.032 138 193.376 135.513 194.721C131.941 196.643 128.342 198.493 124.846 200.54C124.491 200.747 124.83 201.291 125.183 201.083C126.154 200.517 127.128 199.957 128.114 199.413C131.478 197.548 134.922 195.832 138.259 193.921C140.381 192.707 142.843 191.367 144.238 189.295C144.728 188.62 144.962 187.791 144.899 186.956C144.825 186.436 144.651 185.937 144.389 185.483C143.926 184.577 143.47 183.684 143.03 182.781C142.531 181.766 142.009 180.751 141.606 179.689C141.583 179.581 141.552 179.475 141.512 179.372C141.493 179.306 141.438 179.296 141.506 179.352C141.575 179.406 141.022 179.57 141.022 179.57C141.066 179.615 141.103 179.667 141.134 179.723C141.339 180.03 141.549 180.336 141.781 180.626C142.667 181.716 143.802 182.578 145.091 183.137C146.378 183.695 147.78 183.936 149.18 183.839C150.489 183.766 151.784 183.532 153.036 183.14C154.314 182.821 155.524 182.267 156.6 181.505C158.304 180.149 159.004 178.176 159.528 176.134C159.677 175.545 159.792 174.709 160.243 174.26C160.793 173.712 161.776 174.401 162.288 174.635C163.895 175.397 165.67 175.738 167.443 175.624C168.595 175.505 169.835 175.111 170.586 174.179C172.592 171.674 169.137 169.131 167.189 168.146C167.127 168.113 167.058 168.101 166.988 168.112C166.919 168.124 166.855 168.158 166.807 168.208C166.758 168.26 166.729 168.325 166.723 168.395C166.717 168.463 166.732 168.534 166.769 168.595C167.022 169.122 167.384 169.59 167.833 169.965C168.852 170.825 170.057 171.436 171.353 171.749C172.258 171.981 173.529 172.191 174.355 171.592C174.53 171.455 174.67 171.279 174.764 171.077C174.859 170.877 174.903 170.655 174.897 170.432C174.929 169.574 174.825 168.717 174.587 167.89C174.091 165.992 173.168 164.292 172.426 162.494C172.403 162.367 172.367 162.244 172.317 162.126C172.311 162.107 172.346 162.117 172.317 162.126C172.256 162.184 172.191 162.236 172.121 162.283C172.172 162.293 172.22 162.312 172.265 162.338C172.381 162.396 172.487 162.458 172.595 162.524C173.364 162.984 174.072 163.524 174.808 164.021C176.726 165.312 178.92 166.64 181.283 166.778C182.244 166.869 183.207 166.627 184.009 166.091C184.8 165.497 185.455 164.74 185.931 163.872C186.599 162.69 187.002 161.376 187.112 160.021C187.221 158.667 187.035 157.303 186.566 156.029C186.261 155.191 185.855 154.392 185.361 153.649C184.892 152.865 184.298 152.165 183.601 151.575C182.701 150.879 181.453 150.61 180.507 151.373C179.56 152.137 179.422 153.494 179.805 154.589C180.371 156.007 181.281 157.263 182.452 158.241C186.244 161.575 192.704 161.442 195.652 157.051L195.655 157.034L195.652 157.028Z" fill="#0B4D5E"/>
<path d="M240.652 108.913C240.652 109.922 239.835 110.739 238.826 110.739C237.818 110.739 237 109.922 237 108.913C237 107.904 237.818 107.087 238.826 107.087C239.835 107.087 240.652 107.904 240.652 108.913Z" fill="#F0F4FF"/>
<path d="M240.287 108.913C240.287 108.106 239.633 107.452 238.826 107.452C238.019 107.452 237.365 108.106 237.365 108.913C237.365 109.72 238.019 110.374 238.826 110.374V110.739L238.64 110.729C237.78 110.642 237.097 109.959 237.01 109.1L237 108.913C237 107.905 237.818 107.087 238.826 107.087L239.013 107.097C239.933 107.19 240.652 107.968 240.652 108.913L240.642 109.1C240.549 110.02 239.772 110.739 238.826 110.739V110.374C239.633 110.374 240.287 109.72 240.287 108.913Z" fill="#0B4D5E"/>
<path d="M233.348 171C233.348 172.008 232.53 172.826 231.522 172.826C230.513 172.826 229.696 172.008 229.696 171C229.696 169.991 230.513 169.174 231.522 169.174C232.53 169.174 233.348 169.991 233.348 171Z" fill="#F0F4FF"/>
<path d="M232.983 171C232.983 170.193 232.328 169.539 231.522 169.539C230.715 169.539 230.061 170.193 230.061 171C230.061 171.807 230.715 172.461 231.522 172.461V172.826L231.335 172.816C230.476 172.729 229.793 172.046 229.705 171.186L229.696 171C229.696 169.991 230.513 169.174 231.522 169.174L231.708 169.184C232.629 169.277 233.348 170.054 233.348 171L233.338 171.186C233.245 172.107 232.467 172.826 231.522 172.826V172.461C232.328 172.461 232.983 171.807 232.983 171Z" fill="#0B4D5E"/>
</g>
<defs>
<linearGradient id="paint0_linear_9503_9310" x1="243" y1="145.5" x2="188" y2="141.5" gradientUnits="userSpaceOnUse">
<stop stop-color="#F0F4FF"/>
<stop offset="1" stop-color="#F0F4FF" stop-opacity="0"/>
</linearGradient>
<linearGradient id="paint1_linear_9503_9310" x1="184" y1="177.5" x2="120" y2="193.5" gradientUnits="userSpaceOnUse">
<stop stop-color="#F0F4FF"/>
<stop offset="1" stop-color="#F0F4FF" stop-opacity="0"/>
</linearGradient>
<clipPath id="clip0_9503_9310">
<rect width="218.217" height="210" fill="white" transform="translate(96.3913 45)"/>
</clipPath>
</defs>
</svg>
