<svg width="411" height="300" viewBox="0 0 411 300" fill="none" xmlns="http://www.w3.org/2000/svg">
<path d="M253.573 180.791L197.686 214.757C201.043 220.692 200.097 228.161 195.302 233.072L195.286 233.089L195.269 233.104C192.621 235.608 188.716 236.994 184.759 237.531C181.034 238.037 177.12 237.811 173.889 236.948L173.253 236.768L172.749 236.615L172.748 236.614C168.869 235.438 166.344 233.665 165.025 231.419C163.695 229.153 163.72 226.625 164.48 224.231L164.481 224.229L164.528 224.082C164.999 222.595 164.475 220.987 163.247 220.059L162.992 219.882L160.331 218.201C156.799 215.972 152.554 215.182 148.466 215.98L148.07 216.063L124.063 221.374C105.171 225.551 85.4881 219.28 72.4958 204.943L72.4704 204.916L72.448 204.888L70.8113 202.836C69.5171 201.21 70.3408 198.797 72.3503 198.293L126.506 184.794L127.067 187.045L72.9138 200.543L72.9148 200.544C72.538 200.638 72.3871 201.087 72.6257 201.389L74.24 203.413C86.6729 217.112 105.494 223.103 123.561 219.108L147.569 213.798L148.02 213.703C152.689 212.791 157.537 213.694 161.57 216.239L164.231 217.92L164.443 218.061C166.595 219.549 167.537 222.275 166.738 224.788L166.737 224.791L166.69 224.934L166.691 224.935C166.067 226.899 166.121 228.703 167.026 230.244C167.943 231.805 169.859 233.313 173.421 234.394L173.924 234.546L174.494 234.708C177.395 235.482 180.994 235.7 184.446 235.231C188.136 234.731 191.498 233.467 193.66 231.432C197.827 227.146 198.556 220.579 195.425 215.485C194.911 214.65 195.183 213.564 196.01 213.062L252.368 178.809L253.573 180.791Z" fill="#0B4D5E"/>
<path d="M213.585 179.182C212.422 179.919 212.718 181.692 214.057 182.011L281.622 198.121C284.385 198.78 287.295 198.367 289.766 196.965L329.23 174.566C330.467 173.864 330.192 172.008 328.805 171.694L257.125 155.502C254.215 154.845 251.163 155.373 248.643 156.969L213.585 179.182Z" fill="#0B4D5E"/>
<path d="M248.643 156.969C251.163 155.373 254.215 154.844 257.124 155.501L328.805 171.694C330.192 172.007 330.467 173.864 329.23 174.566L289.766 196.964L289.297 197.216C287.089 198.335 284.573 198.691 282.141 198.232L281.621 198.121L214.057 182.011C212.76 181.702 212.442 180.028 213.481 179.254L213.585 179.182L248.643 156.969ZM257.039 155.879C254.23 155.245 251.283 155.754 248.85 157.295L213.792 179.508C212.918 180.062 213.14 181.395 214.147 181.635L281.711 197.745C284.38 198.381 287.19 197.982 289.576 196.628L329.039 174.23C329.969 173.702 329.762 172.306 328.719 172.071L257.039 155.879Z" fill="#0B4D5E"/>
<path d="M100.167 210.532C101.64 211.218 103.304 211.382 104.882 210.996L214.43 184.204C216.583 183.677 216.831 180.716 214.796 179.838L194.476 171.069C194.024 170.874 193.522 170.829 193.042 170.939L77.8013 197.461C76.555 197.748 76.376 199.449 77.5352 199.989L100.167 210.532Z" fill="#0B4D5E"/>
<path d="M193.043 170.939C193.522 170.829 194.025 170.874 194.476 171.069L214.797 179.838C216.831 180.716 216.582 183.677 214.43 184.204L104.882 210.996L104.585 211.061C103.195 211.339 101.755 211.197 100.446 210.654L100.168 210.532L77.535 199.989C76.4121 199.466 76.5452 197.853 77.6873 197.492L77.8016 197.461L193.043 170.939ZM194.323 171.425C193.947 171.262 193.528 171.224 193.129 171.316L77.8885 197.838C77.0009 198.042 76.8727 199.254 77.6981 199.638L100.331 210.181C101.724 210.83 103.297 210.985 104.79 210.62L214.338 183.828C216.13 183.39 216.337 180.924 214.643 180.193L194.323 171.425Z" fill="#0B4D5E"/>
<path d="M255.358 149.849C255.791 149.176 256.688 148.981 257.362 149.414C258.035 149.848 258.231 150.746 257.797 151.419L255.611 154.817C255.177 155.49 254.279 155.685 253.606 155.251C252.932 154.818 252.738 153.92 253.171 153.246L255.358 149.849Z" fill="#0B4D5E"/>
<path d="M350.83 86.7925L350.654 86.8726L350.477 86.9526L348.656 82.9458L349.008 82.7856L350.83 86.7925Z" fill="#0B4D5E"/>
<path d="M348.834 82.8657C349.207 83.9373 349.116 85.1751 348.424 86.2384L304.313 154.113C302.488 156.923 299.096 158.286 295.834 157.521L216.845 139.008C215.544 138.703 214.594 137.803 214.146 136.701L216.073 140.971C216.51 142.098 217.471 143.023 218.795 143.333L297.784 161.847C301.046 162.611 304.438 161.248 306.263 158.438L350.373 90.5636C351.135 89.3895 351.168 88.0078 350.656 86.8697" fill="#0B4D5E"/>
<path d="M349.435 84.229C349.419 84.9844 349.203 85.7518 348.748 86.4497L348.747 86.4487L304.638 154.324L304.637 154.323C302.819 157.122 299.52 158.55 296.262 158L297.82 161.458L297.872 161.47L298.163 161.532C301.176 162.114 304.257 160.817 305.939 158.227L350.049 90.353L350.17 90.1528C350.736 89.1419 350.736 87.9904 350.303 87.0288L350.655 86.8696C351.168 88.0077 351.135 89.3899 350.373 90.564L306.263 158.438L306.087 158.697C304.286 161.246 301.154 162.504 298.09 161.912L297.784 161.846L218.795 143.333C217.471 143.022 216.51 142.098 216.072 140.971L214.254 136.943C214.737 137.933 215.641 138.725 216.846 139.007L295.834 157.521C299.096 158.285 302.489 156.923 304.314 154.113L348.424 86.2388C349.073 85.2421 349.194 84.0916 348.899 83.0688L349.435 84.229ZM216.425 140.812L216.43 140.821L216.434 140.831C216.828 141.846 217.691 142.677 218.883 142.957L297.346 161.346L295.796 157.909L295.746 157.898L216.757 139.384C216.323 139.283 215.925 139.12 215.566 138.91L216.425 140.812Z" fill="#0B4D5E"/>
<path d="M295.828 157.521L216.839 139.008C214.172 138.382 212.981 135.259 214.56 133.018L261.514 66.3487C263.367 63.7181 266.623 62.4638 269.763 63.1699L346.027 80.36C348.655 80.9525 349.887 83.9818 348.42 86.2386L304.309 154.113C302.485 156.923 299.092 158.286 295.831 157.521H295.828Z" fill="#F0F4FF"/>
<path d="M261.514 66.3486C263.366 63.718 266.623 62.4638 269.763 63.1699L346.027 80.3603C348.655 80.9529 349.887 83.9816 348.42 86.2382L304.31 154.113L304.134 154.372C302.273 157.007 298.99 158.262 295.83 157.521H295.828L216.839 139.008C214.256 138.402 213.057 135.451 214.42 133.23L214.56 133.019L261.514 66.3486ZM269.678 63.5468C266.784 62.8962 263.786 63.9962 261.999 66.3408L261.83 66.5712L214.876 133.241C213.456 135.257 214.527 138.067 216.927 138.631L295.874 157.135H295.875L295.919 157.145C299.022 157.872 302.249 156.576 303.985 153.902H303.986L348.096 86.0283V86.0273C349.375 84.0601 348.374 81.4406 346.16 80.7939L345.943 80.7372L269.678 63.5468Z" fill="#0B4D5E"/>
<path d="M249.839 145.639L339.498 79.8428L329.004 77.479L239.446 143.202L249.839 145.639Z" fill="white"/>
<path d="M256.058 147.094L345.671 81.3327C345.419 81.2137 345.151 81.1164 344.865 81.0515L342.276 80.4673L252.594 146.28L256.058 147.091V147.094Z" fill="white"/>
<path d="M284.15 82.7577C285.871 80.7517 288.564 79.8666 291.139 80.4628L291.138 80.4638L308.773 84.5302H308.773C311.848 85.2377 313.458 88.6257 312.075 91.4569V91.4579L293.939 128.562C292.529 131.449 294.154 134.896 297.278 135.641L313.153 139.431L312.704 141.311L296.83 137.521C292.5 136.489 290.249 131.711 292.201 127.714V127.713L310.338 90.6083L310.411 90.4472C311.091 88.8211 310.202 86.9543 308.512 86.4599L308.34 86.415L290.703 82.3476L290.702 82.3466C288.947 81.9403 287.116 82.4806 285.861 83.7528L285.618 84.0175L251.697 123.557C250.055 125.47 247.51 126.338 245.051 125.841L244.814 125.789L223.894 120.794L224.343 118.913L245.263 123.908L245.606 123.977C247.327 124.263 249.084 123.633 250.231 122.297L284.15 82.7577Z" fill="#F35F5F"/>
<path d="M244.542 90.9571L246.162 91.337C246.266 91.3614 246.331 91.4655 246.307 91.5694C246.282 91.6731 246.178 91.7371 246.074 91.713L244.454 91.3341L244.417 91.3214C244.335 91.2838 244.288 91.1926 244.31 91.1016C244.331 91.0108 244.413 90.9499 244.503 90.9522L244.542 90.9571Z" fill="#0B4D5E"/>
<path d="M326.766 110.202L328.41 110.586L328.447 110.599C328.528 110.637 328.575 110.728 328.553 110.819C328.532 110.91 328.45 110.971 328.36 110.968L328.321 110.963L326.677 110.579C326.573 110.554 326.509 110.45 326.534 110.346C326.558 110.242 326.662 110.177 326.766 110.202ZM320.192 108.664L323.479 109.432C323.583 109.457 323.647 109.561 323.623 109.665C323.598 109.769 323.494 109.833 323.39 109.809L320.103 109.04L320.066 109.027C319.984 108.989 319.938 108.898 319.959 108.807C319.981 108.716 320.063 108.656 320.153 108.659L320.192 108.664ZM313.617 107.125L316.904 107.894L316.941 107.907C317.023 107.944 317.07 108.035 317.048 108.127C317.027 108.217 316.945 108.278 316.855 108.276L316.816 108.271L313.529 107.502L313.492 107.489C313.41 107.451 313.363 107.36 313.384 107.269C313.406 107.178 313.489 107.117 313.579 107.12L313.617 107.125ZM307.042 105.586L310.33 106.355L310.367 106.368C310.449 106.405 310.495 106.496 310.474 106.587C310.453 106.678 310.371 106.739 310.281 106.737L310.242 106.732L306.955 105.962L306.917 105.95C306.836 105.912 306.789 105.821 306.81 105.73C306.831 105.639 306.914 105.578 307.004 105.581L307.042 105.586ZM300.468 104.047L303.755 104.817L303.792 104.83C303.874 104.867 303.921 104.958 303.9 105.049C303.879 105.14 303.796 105.201 303.707 105.199L303.667 105.193L300.38 104.424L300.343 104.412C300.262 104.374 300.215 104.283 300.236 104.192C300.257 104.101 300.339 104.04 300.429 104.043L300.468 104.047ZM293.894 102.508L297.181 103.278L297.218 103.291C297.3 103.328 297.347 103.419 297.326 103.51C297.304 103.601 297.222 103.662 297.132 103.66L297.093 103.655L293.806 102.885L293.769 102.873C293.687 102.835 293.64 102.744 293.662 102.653C293.683 102.562 293.765 102.501 293.855 102.503L293.894 102.508ZM287.32 100.97L290.607 101.74C290.711 101.764 290.776 101.868 290.751 101.972C290.727 102.076 290.623 102.14 290.519 102.116L287.232 101.346C287.128 101.322 287.063 101.218 287.087 101.114C287.112 101.01 287.216 100.946 287.32 100.97ZM280.746 99.4312L284.033 100.201L284.07 100.213C284.151 100.251 284.199 100.342 284.177 100.433C284.156 100.524 284.073 100.585 283.983 100.583L283.945 100.578L280.658 99.8082L280.621 99.7955C280.539 99.758 280.492 99.6669 280.513 99.5757C280.534 99.4848 280.617 99.4238 280.707 99.4263L280.746 99.4312ZM274.171 97.8931L277.458 98.6617L277.496 98.6744C277.577 98.712 277.623 98.8033 277.602 98.8941C277.581 98.9852 277.499 99.0461 277.409 99.0435L277.37 99.0386L274.083 98.2691L274.045 98.2564C273.964 98.2187 273.918 98.1275 273.939 98.0367C273.96 97.9458 274.042 97.8847 274.132 97.8873L274.171 97.8931ZM267.596 96.3541L270.884 97.1236C270.988 97.1481 271.052 97.2522 271.028 97.356C271.003 97.4599 270.899 97.5239 270.795 97.4996L267.508 96.731L267.471 96.7183C267.39 96.6807 267.344 96.5895 267.365 96.4986C267.386 96.4075 267.468 96.3465 267.558 96.3492L267.596 96.3541ZM261.022 94.815L264.309 95.5845L264.346 95.5972C264.428 95.6347 264.475 95.7259 264.454 95.817C264.432 95.9079 264.35 95.9689 264.26 95.9664L264.221 95.9615L260.934 95.192L260.897 95.1793C260.815 95.1416 260.768 95.0505 260.79 94.9595C260.811 94.8684 260.894 94.8074 260.984 94.8101L261.022 94.815ZM254.448 93.2769L257.735 94.0465C257.839 94.0708 257.904 94.1749 257.879 94.2789C257.855 94.3826 257.751 94.4467 257.647 94.4224L254.36 93.6529C254.256 93.6286 254.191 93.5253 254.215 93.4215C254.24 93.3175 254.344 93.2527 254.448 93.2769ZM249.517 92.1226L251.161 92.5074L251.198 92.5201C251.28 92.5577 251.326 92.6488 251.305 92.7398C251.284 92.8307 251.202 92.8916 251.112 92.8892L251.073 92.8843L249.429 92.4996L249.392 92.4869C249.31 92.4493 249.263 92.3581 249.285 92.2672C249.306 92.1763 249.388 92.1154 249.478 92.1177L249.517 92.1226Z" fill="#0B4D5E"/>
<path d="M330.09 110.979L331.708 111.359C331.812 111.383 331.877 111.487 331.852 111.591C331.828 111.695 331.724 111.759 331.62 111.735L330.003 111.356L329.965 111.343C329.884 111.306 329.837 111.215 329.858 111.124C329.879 111.033 329.962 110.972 330.051 110.974L330.09 110.979Z" fill="#0B4D5E"/>
<path d="M259.692 146.409C259.633 146.498 259.513 146.522 259.424 146.463C259.335 146.404 259.311 146.284 259.37 146.195L259.692 146.409ZM260.271 144.839C260.33 144.75 260.45 144.726 260.539 144.785C260.628 144.844 260.652 144.964 260.593 145.053L259.692 146.409L259.531 146.302L259.37 146.195L260.271 144.839ZM263.872 139.415C263.931 139.326 264.052 139.302 264.141 139.361C264.229 139.421 264.253 139.54 264.194 139.629L262.394 142.341L262.369 142.371C262.306 142.435 262.204 142.447 262.126 142.396C262.037 142.337 262.012 142.216 262.071 142.127L263.872 139.415ZM265.995 136.917C265.936 137.006 265.817 137.03 265.728 136.971C265.639 136.912 265.614 136.792 265.673 136.703L265.995 136.917ZM267.499 133.961C267.563 133.898 267.664 133.885 267.742 133.937C267.831 133.996 267.855 134.116 267.796 134.205L265.995 136.917L265.834 136.81L265.673 136.703L267.474 133.991L267.499 133.961ZM269.597 131.493C269.538 131.582 269.418 131.606 269.329 131.547C269.24 131.488 269.216 131.368 269.274 131.279L269.597 131.493ZM271.101 128.537C271.164 128.474 271.266 128.461 271.344 128.513C271.433 128.572 271.457 128.692 271.398 128.781L269.597 131.493L269.436 131.386L269.274 131.279L271.075 128.568L271.101 128.537ZM274.677 123.143C274.736 123.054 274.856 123.03 274.945 123.089C275.034 123.148 275.058 123.268 274.999 123.357L273.198 126.068L273.174 126.099C273.11 126.162 273.009 126.175 272.931 126.123C272.842 126.064 272.817 125.944 272.876 125.855L274.677 123.143ZM278.278 117.719C278.337 117.63 278.458 117.606 278.547 117.665C278.636 117.724 278.66 117.844 278.601 117.933L276.8 120.645L276.775 120.675C276.712 120.738 276.61 120.751 276.532 120.699C276.443 120.64 276.419 120.52 276.478 120.431L278.278 117.719ZM281.905 112.265C281.969 112.201 282.071 112.189 282.149 112.24C282.237 112.299 282.261 112.42 282.202 112.509L280.401 115.221C280.342 115.31 280.223 115.334 280.134 115.275C280.045 115.215 280.021 115.096 280.08 115.007L281.881 112.295L281.905 112.265ZM284.004 109.797C283.945 109.886 283.824 109.91 283.735 109.851C283.647 109.792 283.623 109.672 283.682 109.583L284.004 109.797ZM285.482 106.87C285.542 106.782 285.661 106.758 285.75 106.817C285.839 106.876 285.864 106.996 285.805 107.085L284.004 109.797L283.843 109.69L283.682 109.583L285.482 106.87ZM289.084 101.446C289.143 101.358 289.263 101.334 289.352 101.393C289.44 101.452 289.465 101.571 289.406 101.66L287.606 104.372L287.58 104.402C287.516 104.466 287.415 104.479 287.337 104.427C287.248 104.368 287.224 104.247 287.283 104.158L289.084 101.446ZM292.71 95.9923C292.774 95.9288 292.875 95.9171 292.953 95.9689C293.042 96.0279 293.067 96.1475 293.008 96.2365L291.207 98.9484L291.182 98.9786C291.118 99.042 291.016 99.0547 290.939 99.0031C290.85 98.944 290.826 98.8235 290.885 98.7345L292.686 96.0226L292.71 95.9923ZM294.809 93.5245C294.75 93.6135 294.629 93.6373 294.54 93.5782C294.451 93.5191 294.427 93.3995 294.486 93.3107L294.809 93.5245ZM296.312 90.5685C296.375 90.5049 296.477 90.4926 296.555 90.5441C296.644 90.6031 296.669 90.7237 296.609 90.8126L294.809 93.5245L294.648 93.4171L294.486 93.3107L296.287 90.5988L296.312 90.5685ZM298.41 88.1007C298.351 88.1895 298.231 88.2135 298.142 88.1544C298.053 88.0953 298.029 87.9757 298.088 87.8868L298.41 88.1007ZM299.889 85.174C299.948 85.0853 300.067 85.0615 300.156 85.1202C300.245 85.1792 300.27 85.2989 300.211 85.3878L298.41 88.1007L298.249 87.9933L298.088 87.8868L299.889 85.174ZM303.49 79.7501C303.549 79.6612 303.67 79.6374 303.759 79.6964C303.847 79.7555 303.871 79.8752 303.813 79.964L302.012 82.6759L301.987 82.7062C301.924 82.77 301.821 82.7824 301.743 82.7306C301.654 82.6715 301.63 82.5509 301.69 82.462L303.49 79.7501ZM306.191 75.6818C306.251 75.593 306.371 75.569 306.46 75.6281C306.549 75.6872 306.573 75.8077 306.514 75.8966L305.613 77.2521L305.589 77.2823C305.525 77.3459 305.424 77.3581 305.346 77.3068C305.257 77.2477 305.232 77.1272 305.291 77.0382L306.191 75.6818Z" fill="#0B4D5E"/>
<path d="M284.318 82.5697C286.043 80.6972 288.647 79.8849 291.14 80.4593L308.776 84.5267L309.06 84.6009C311.855 85.4185 313.321 88.5029 312.199 91.1868L312.078 91.4534L305.174 105.576L304.306 105.151L303.437 104.727L310.34 90.6048L310.413 90.4427C311.116 88.7626 310.143 86.8259 308.342 86.4115H308.341L290.705 82.3431C288.833 81.9118 286.872 82.5547 285.62 84.012L285.62 84.013L273.323 98.346L271.856 97.0863L284.153 82.7542L284.318 82.5697Z" fill="#8AE5CC"/>
<path d="M350.655 86.8696C351.167 88.0077 351.134 89.3899 350.373 90.564L306.262 158.438C305.015 160.359 303.035 161.602 300.866 161.954L299.52 157.506C301.45 157.038 303.183 155.854 304.313 154.113L348.424 86.2388C349.073 85.242 349.194 84.0917 348.898 83.0688L350.655 86.8696Z" fill="#8AE5CC"/>
<path d="M350.655 86.8696C351.167 88.0077 351.134 89.3899 350.373 90.564L306.262 158.438C305.015 160.359 303.035 161.602 300.866 161.954L299.52 157.506C301.45 157.038 303.183 155.854 304.313 154.113L348.424 86.2388C349.073 85.242 349.194 84.0917 348.898 83.0688L350.655 86.8696ZM349.353 84.9731C349.266 85.4062 349.109 85.8348 348.875 86.2427L348.748 86.4497L304.637 154.324C303.529 156.03 301.87 157.226 300.006 157.776L301.135 161.509C303.069 161.107 304.816 159.956 305.938 158.227L350.049 90.353L350.17 90.1528C350.736 89.142 350.735 87.9903 350.302 87.0288V87.0278L349.353 84.9731Z" fill="#0B4D5E"/>
<path d="M90.5671 173.353C91.3412 173.149 92.1346 173.61 92.3395 174.384C92.5444 175.159 92.0829 175.953 91.3086 176.158L87.2016 177.244C86.4272 177.449 85.633 176.987 85.4282 176.213C85.2236 175.438 85.6851 174.645 86.4591 174.44L90.5671 173.353Z" fill="#0B4D5E"/>
<path d="M253.228 162.932C253.228 160.265 253.799 157.648 254.88 155.247L254.916 155.155C255.061 154.721 254.879 154.243 254.483 154.014L254.395 153.969C253.939 153.763 253.407 153.941 253.162 154.365L253.117 154.453C251.925 157.101 251.295 159.989 251.295 162.932V166.468C251.295 172.55 248.232 178.211 243.171 181.543L242.675 181.859L202.385 206.547C198.01 209.227 196.033 214.546 197.592 219.434L197.703 219.81C198.733 223.576 197.261 227.588 194.041 229.799L193.713 230.014C185.948 234.872 176.147 235.027 168.243 230.453L167.868 230.233C165.472 228.791 164.455 225.839 165.451 223.228L165.565 222.906C166.635 219.683 165.464 216.129 162.682 214.176L162.398 213.986C158.032 211.198 152.755 210.219 147.685 211.249L147.887 212.194C147.91 212.298 147.842 212.401 147.738 212.423C147.634 212.445 147.531 212.379 147.509 212.275L147.306 211.328L122.753 216.569C105.4 220.271 87.4205 214.363 75.6462 201.148L75.0906 200.513C68.3986 192.739 72.2812 180.641 82.2488 178.212L86.4538 177.048C86.9362 176.915 87.2314 176.438 87.1492 175.955L87.1277 175.859C86.9852 175.344 86.4529 175.042 85.9382 175.185L81.779 176.336L81.7732 176.337C70.4159 179.118 65.9943 192.911 73.6247 201.775L74.2029 202.435C86.3961 216.12 104.992 222.263 122.967 218.498L122.767 217.568L122.957 217.528L123.146 217.487L123.344 218.419L147.9 213.18L148.335 213.092C152.832 212.248 157.491 213.146 161.358 215.615L161.57 215.758C163.653 217.22 164.532 219.883 163.73 222.298L163.644 222.539C162.315 226.025 163.672 229.964 166.87 231.889L167.274 232.127C175.797 237.059 186.367 236.891 194.739 231.653L195.135 231.393C199.032 228.717 200.815 223.862 199.568 219.301L199.433 218.846C198.146 214.806 199.78 210.411 203.395 208.196L243.519 183.608L243.014 182.784L242.998 182.748C242.967 182.664 242.999 182.567 243.079 182.518C243.159 182.469 243.26 182.485 243.321 182.551L243.344 182.582L243.847 183.403C249.68 179.75 253.228 173.355 253.228 166.468V162.932ZM122.917 217.338C123.021 217.316 123.124 217.382 123.146 217.487L122.767 217.568C122.745 217.463 122.812 217.36 122.917 217.338ZM253.615 166.468C253.615 173.333 250.158 179.721 244.446 183.482L243.886 183.837L203.597 208.526C200.134 210.647 198.568 214.858 199.801 218.728L199.941 219.198C201.232 223.918 199.387 228.943 195.354 231.711L194.944 231.981C186.45 237.295 175.728 237.466 167.081 232.462L166.671 232.22C163.313 230.198 161.887 226.062 163.283 222.402L163.363 222.177C164.111 219.923 163.291 217.438 161.348 216.074L161.15 215.942C157.244 213.447 152.511 212.591 147.98 213.558L123.237 218.838C105.068 222.715 86.2421 216.529 73.9138 202.692L73.3318 202.028C65.6346 193.087 69.9051 179.252 81.1413 176.104L81.6814 175.961L85.8347 174.812C86.5552 174.612 87.3013 175.035 87.5007 175.755L87.531 175.891C87.6384 176.522 87.2851 177.145 86.6882 177.377L86.5574 177.421L82.363 178.581L82.3581 178.583L82.3406 178.587C72.6535 180.948 68.8799 192.706 75.3835 200.261L75.9353 200.891C87.6172 214.003 105.455 219.864 122.672 216.191L147.416 210.91C152.643 209.795 158.101 210.783 162.607 213.66L162.904 213.86C165.826 215.91 167.056 219.643 165.932 223.029L165.812 223.365C164.883 225.802 165.832 228.555 168.067 229.901L168.436 230.118C176.217 234.621 185.865 234.467 193.508 229.686L193.822 229.481C196.907 227.363 198.317 223.519 197.33 219.911L197.223 219.552C195.611 214.495 197.656 208.991 202.183 206.217L242.472 181.529L242.958 181.221C247.911 177.96 250.908 172.42 250.908 166.468V162.932C250.908 159.934 251.55 156.992 252.764 154.294L252.827 154.171C253.17 153.577 253.915 153.329 254.554 153.616L254.677 153.679C255.232 153.999 255.485 154.669 255.283 155.277L255.232 155.406C254.174 157.757 253.615 160.32 253.615 162.932V166.468Z" fill="#0B4D5E"/>
<path fill-rule="evenodd" clip-rule="evenodd" d="M254.475 153.792C255.059 154.055 255.319 154.742 255.056 155.326C253.986 157.702 253.422 160.292 253.422 162.931V166.467C253.422 173.486 249.773 180.003 243.786 183.672L203.496 208.361C199.957 210.529 198.357 214.832 199.618 218.787C201.191 223.712 199.222 229.074 194.842 231.817C186.275 237.177 175.424 237.267 166.771 232.054C163.493 230.081 162.1 226.043 163.464 222.47C164.406 219.998 163.484 217.202 161.254 215.779C157.305 213.257 152.521 212.391 147.94 213.368L123.196 218.649C104.808 222.573 85.745 216.15 73.4785 201.901C65.7535 192.928 70.2296 178.964 81.7272 176.149L85.8866 174.998C86.5041 174.827 87.1434 175.189 87.3143 175.807C87.4852 176.424 87.1232 177.063 86.5056 177.234L82.3119 178.395L82.2944 178.399C72.4671 180.794 68.6392 192.723 75.2371 200.387C86.9503 213.994 105.153 220.126 122.712 216.38L147.456 211.099C152.633 209.994 158.04 210.973 162.503 213.823C165.661 215.839 166.965 219.799 165.632 223.297C164.669 225.821 165.652 228.672 167.968 230.066C175.873 234.828 185.785 234.746 193.61 229.85C197.094 227.669 198.658 223.406 197.407 219.493C195.822 214.521 197.833 209.109 202.284 206.382L242.573 181.694C247.872 178.446 251.102 172.679 251.102 166.467V162.931C251.102 159.961 251.737 157.046 252.94 154.374C253.204 153.789 253.89 153.529 254.475 153.792Z" fill="#8AE5CC"/>
<path d="M112.438 136.176C110.192 136.176 108.257 134.65 107.731 132.466L105.527 123.311C105.225 122.054 105.43 120.753 106.105 119.648C106.781 118.543 107.847 117.771 109.104 117.466L117.973 115.331C118.344 115.242 118.727 115.195 119.109 115.195C121.354 115.195 123.29 116.721 123.816 118.906L126.02 128.06C126.646 130.658 125.04 133.28 122.445 133.906L113.576 136.04C113.205 136.129 112.823 136.176 112.441 136.176H112.438Z" fill="#0B4D5E"/>
<path d="M119.319 115.2C121.474 115.292 123.306 116.79 123.816 118.906L126.02 128.061C126.645 130.658 125.04 133.279 122.446 133.905L113.576 136.04L113.296 136.099C113.108 136.132 112.918 136.155 112.728 136.167L112.441 136.176V135.789C112.791 135.789 113.143 135.746 113.486 135.664L122.355 133.529L122.575 133.471C124.759 132.825 126.113 130.615 125.693 128.375L125.644 128.15L123.44 118.996C122.955 116.985 121.175 115.582 119.109 115.582C118.846 115.582 118.582 115.607 118.322 115.653L118.064 115.707L109.195 117.841L109.196 117.842C108.037 118.122 107.058 118.833 106.436 119.85C105.814 120.867 105.625 122.063 105.903 123.221L108.107 132.375L108.156 132.562C108.702 134.472 110.436 135.789 112.438 135.789V136.176L112.229 136.172C110.143 136.083 108.359 134.678 107.784 132.669L107.731 132.466L105.527 123.312C105.244 122.133 105.406 120.915 105.985 119.857L106.106 119.647C106.781 118.543 107.847 117.77 109.104 117.466L117.974 115.331C118.345 115.243 118.727 115.195 119.109 115.195L119.319 115.2ZM112.441 135.789V136.176H112.438V135.789H112.441Z" fill="#0B4D5E"/>
<path d="M118.618 118.02L109.751 120.155C108.635 120.424 107.949 121.546 108.218 122.661L110.422 131.814C110.69 132.929 111.812 133.615 112.927 133.346L121.795 131.211C122.91 130.942 123.596 129.821 123.328 128.706L121.123 119.553C120.855 118.438 119.733 117.751 118.618 118.02Z" fill="#0B4D5E"/>
<path d="M121.705 130.835L121.795 131.211L112.928 133.347L112.837 132.971L121.705 130.835ZM122.951 128.796L120.747 119.644C120.529 118.736 119.616 118.177 118.709 118.396L109.841 120.531C108.934 120.75 108.375 121.663 108.594 122.57L110.798 131.723C111.016 132.63 111.93 133.189 112.837 132.971L112.928 133.347L112.718 133.386C111.745 133.518 110.808 132.945 110.482 132.018L110.422 131.813L108.218 122.661C107.966 121.616 108.553 120.564 109.546 120.216L109.751 120.155L118.619 118.02C119.734 117.751 120.855 118.438 121.123 119.553L123.327 128.706L123.367 128.915C123.508 129.958 122.84 130.959 121.795 131.211L121.705 130.835C122.612 130.616 123.17 129.703 122.951 128.796Z" fill="#0B4D5E"/>
<path d="M97.8519 205.349C96.9575 204.892 96.2542 204.064 95.9939 203.012L76.2065 122.433C75.2456 118.523 77.6491 114.578 81.5645 113.636L188.485 87.9147C189.152 87.7541 189.822 87.8594 190.384 88.1584L195.659 90.393C195.249 90.2241 194.787 90.1798 194.325 90.2906L85.2529 116.524C82.243 117.247 80.396 120.282 81.1353 123.286L101.659 206.855C101.767 207.29 101.997 207.664 102.305 207.943L97.8547 205.346L97.8519 205.349Z" fill="#0B4D5E"/>
<path d="M188.485 87.9153C189.152 87.7548 189.823 87.8594 190.385 88.1584L195.659 90.3928C195.249 90.2241 194.787 90.1806 194.325 90.2913L85.2528 116.525L84.9744 116.599C82.1302 117.437 80.4193 120.376 81.1356 123.286L101.659 206.856C101.767 207.29 101.997 207.664 102.305 207.944L97.8543 205.346L97.8524 205.349C97.0137 204.92 96.3426 204.166 96.0477 203.206L95.994 203.012L76.2069 122.434C75.276 118.646 77.5023 114.825 81.202 113.734L81.5643 113.636L188.485 87.9153ZM96.3699 202.92C96.5781 203.761 97.1035 204.44 97.786 204.866L97.7918 204.862L101.27 206.892L80.7694 123.419L76.6717 122.71L96.3699 202.92ZM190.203 88.5002C189.78 88.2754 189.288 88.1787 188.789 88.2502L188.575 88.2913L81.6551 114.012C77.9614 114.9 75.6896 118.613 76.5731 122.301L80.6824 123.011C80.1229 119.922 82.0672 116.892 85.1629 116.149L193.789 90.0207L190.233 88.5149L190.218 88.5081L190.203 88.5002Z" fill="#0B4D5E"/>
<path d="M81.5645 113.636C77.6491 114.578 75.2456 118.523 76.2065 122.433L81.1353 123.286C80.396 120.282 82.243 117.247 85.2529 116.524L194.325 90.2906C194.787 90.1798 195.249 90.2241 195.659 90.393L190.384 88.1584C189.822 87.8594 189.152 87.7541 188.485 87.9147L81.5645 113.636Z" fill="#8AE5CC"/>
<path d="M188.485 87.9153C189.152 87.7548 189.823 87.8594 190.385 88.1584L195.659 90.3928C195.249 90.2241 194.787 90.1806 194.325 90.2913L85.2528 116.525L84.9744 116.599C82.1302 117.437 80.4193 120.376 81.1356 123.286L76.2069 122.434C75.276 118.646 77.5023 114.825 81.202 113.734L81.5643 113.636L188.485 87.9153ZM190.203 88.5002C189.78 88.2754 189.288 88.1787 188.789 88.2502L188.575 88.2913L81.6551 114.012C78.0295 114.884 75.7746 118.477 76.5281 122.097L80.6483 122.81C80.2068 119.792 82.1345 116.876 85.1629 116.149L193.789 90.0207L190.233 88.5149L190.218 88.5081L190.203 88.5002Z" fill="#0B4D5E"/>
<path d="M104.271 208.454L213.401 182.536C216.419 181.819 218.274 178.781 217.535 175.769L196.939 91.8812C196.654 90.7183 195.483 90.0038 194.317 90.2863L85.2506 116.526C82.2406 117.248 80.3937 120.283 81.133 123.287L101.657 206.857C101.942 208.017 103.111 208.731 104.271 208.454Z" fill="#F0F4FF"/>
<path d="M194.317 90.2863C195.482 90.0039 196.653 90.7183 196.939 91.881L217.534 175.769C218.274 178.781 216.419 181.819 213.401 182.536L104.271 208.454L104.053 208.495C103.04 208.631 102.064 208.033 101.721 207.068L101.656 206.857L81.133 123.287C80.4169 120.377 82.1277 117.437 84.9719 116.6L85.2502 116.526L194.317 90.2863ZM194.587 90.6281L194.407 90.6622L85.341 116.901C82.5396 117.574 80.8199 120.399 81.508 123.195L102.032 206.765L102.085 206.939C102.387 207.789 103.288 208.291 104.181 208.078H104.182L213.312 182.16L213.571 182.091C216.14 181.341 217.722 178.752 217.217 176.124L217.159 175.861L196.564 91.9738C196.344 91.0772 195.483 90.5047 194.587 90.6281Z" fill="#0B4D5E"/>
<path d="M116.916 204.139L130.796 200.842L185.919 92.8564L172.014 96.1994L116.916 204.139Z" fill="white"/>
<path d="M133.675 200.158L140.613 198.51L195.214 91.5424C194.712 91.1051 194.011 90.9069 193.316 91.0753L188.803 92.1615L133.675 200.158Z" fill="white"/>
<path d="M176.423 107.996L130.001 119.175C126.359 120.052 124.117 123.716 124.994 127.359C125.871 131.001 129.535 133.243 133.178 132.366L179.6 121.187C183.243 120.31 185.484 116.646 184.607 113.003C183.73 109.36 180.066 107.118 176.423 107.996Z" fill="#8AE5CC"/>
<path d="M179.509 120.811L179.6 121.187L133.178 132.366L133.088 131.99L179.509 120.811ZM184.231 113.093C183.404 109.659 179.949 107.545 176.514 108.372L130.092 119.551C126.657 120.378 124.543 123.833 125.37 127.268C126.197 130.703 129.653 132.817 133.088 131.99L133.178 132.366L132.836 132.439C129.423 133.08 126.067 131.027 125.084 127.696L124.994 127.359C124.144 123.83 126.222 120.281 129.664 119.265L130.001 119.175L176.423 107.996C180.066 107.119 183.73 109.36 184.607 113.003L184.68 113.344C185.343 116.871 183.129 120.337 179.6 121.187L179.509 120.811C182.944 119.984 185.058 116.528 184.231 113.093Z" fill="#0B4D5E"/>
<path d="M177.069 110.687L130.647 121.867C128.491 122.386 127.165 124.554 127.684 126.71C128.203 128.866 130.371 130.193 132.527 129.674L178.949 118.494C181.105 117.975 182.432 115.807 181.913 113.651C181.393 111.495 179.225 110.168 177.069 110.687Z" fill="white"/>
<path d="M177.074 110.687L130.652 121.867C128.497 122.386 127.17 124.554 127.689 126.71C128.208 128.866 130.377 130.193 132.532 129.674L178.954 118.494C181.11 117.975 182.437 115.807 181.918 113.651C181.399 111.495 179.23 110.168 177.074 110.687Z" fill="#F0F4FF"/>
<path d="M178.863 118.119L178.954 118.495L132.532 129.674L132.441 129.298L178.863 118.119ZM181.542 113.741C181.072 111.793 179.112 110.594 177.164 111.064L130.742 122.243C128.795 122.712 127.596 124.671 128.065 126.619C128.534 128.567 130.493 129.767 132.441 129.298L132.532 129.674L132.331 129.717C130.31 130.097 128.324 128.881 127.742 126.91L127.689 126.71C127.186 124.621 128.416 122.521 130.453 121.92L130.652 121.867L177.074 110.688C179.229 110.168 181.398 111.495 181.918 113.65L181.961 113.853C182.354 115.94 181.042 117.992 178.954 118.495L178.863 118.119C180.811 117.649 182.011 115.689 181.542 113.741Z" fill="#0B4D5E"/>
<path d="M193.345 170.52L193.436 170.896L147.014 182.075L146.924 181.699L193.345 170.52ZM198.067 162.802C197.24 159.368 193.785 157.254 190.35 158.081L143.928 169.26C140.493 170.087 138.379 173.542 139.206 176.977C140.033 180.412 143.489 182.526 146.924 181.699L147.014 182.075L146.672 182.148C143.258 182.789 139.903 180.736 138.92 177.405L138.83 177.068C137.98 173.539 140.057 169.99 143.5 168.974L143.837 168.884L190.259 157.705C193.902 156.828 197.566 159.069 198.443 162.712L198.516 163.053C199.179 166.58 196.965 170.046 193.436 170.896L193.345 170.52C196.78 169.693 198.894 166.237 198.067 162.802Z" fill="#0B4D5E"/>
<path d="M192.694 167.827L192.784 168.203L146.363 179.382L146.272 179.006L192.694 167.827ZM195.372 163.449C194.903 161.502 192.943 160.303 190.995 160.772L144.573 171.951C142.625 172.42 141.427 174.38 141.895 176.328C142.365 178.276 144.324 179.475 146.272 179.006L146.363 179.382L146.161 179.426C144.141 179.805 142.155 178.59 141.573 176.618L141.519 176.418C141.017 174.33 142.246 172.229 144.283 171.628L144.483 171.575L190.904 160.396C193.06 159.877 195.229 161.203 195.748 163.359L195.792 163.561C196.184 165.649 194.873 167.7 192.784 168.203L192.694 167.827C194.642 167.358 195.842 165.398 195.372 163.449Z" fill="#0B4D5E"/>
<path d="M186.227 145.621L186.317 145.997L139.895 157.176L139.805 156.801L186.227 145.621ZM190.948 137.904C190.121 134.469 186.666 132.355 183.231 133.182L136.809 144.361C133.374 145.189 131.26 148.644 132.087 152.079C132.915 155.514 136.37 157.628 139.805 156.801L139.895 157.176L139.553 157.25C136.14 157.891 132.784 155.838 131.802 152.506L131.711 152.169C130.862 148.641 132.939 145.092 136.381 144.076L136.719 143.985L183.14 132.806C186.783 131.929 190.447 134.171 191.324 137.813L191.397 138.154C192.06 141.682 189.846 145.147 186.317 145.997L186.227 145.621C189.661 144.794 191.776 141.339 190.948 137.904Z" fill="#0B4D5E"/>
<path d="M185.575 142.929L185.666 143.305L139.244 154.484L139.153 154.108L185.575 142.929ZM188.254 138.551C187.784 136.604 185.824 135.405 183.876 135.874L137.454 147.053C135.507 147.523 134.308 149.482 134.777 151.43C135.246 153.378 137.205 154.577 139.153 154.108L139.244 154.484L139.043 154.528C137.022 154.907 135.036 153.692 134.454 151.72L134.401 151.52C133.898 149.432 135.127 147.331 137.165 146.73L137.364 146.677L183.786 135.498C185.941 134.979 188.11 136.305 188.63 138.461L188.673 138.663C189.066 140.751 187.754 142.802 185.666 143.305L185.575 142.929C187.523 142.46 188.723 140.5 188.254 138.551Z" fill="#0B4D5E"/>
<path d="M127.034 170.801C129.189 170.892 131.021 172.39 131.531 174.507L133.735 183.661C134.037 184.918 133.832 186.219 133.157 187.324L133.025 187.527C132.347 188.524 131.336 189.22 130.158 189.506L121.289 191.641L121.008 191.699C120.726 191.75 120.439 191.776 120.153 191.776V191.39C120.503 191.39 120.855 191.346 121.198 191.265L130.067 189.13L130.282 189.072C131.346 188.759 132.244 188.075 132.827 187.122C133.41 186.168 133.612 185.058 133.406 183.969L133.359 183.751L131.155 174.597C130.67 172.586 128.89 171.183 126.824 171.183C126.561 171.183 126.297 171.207 126.037 171.254L125.779 171.308L116.91 173.441L116.911 173.442C115.752 173.723 114.773 174.433 114.151 175.45C113.529 176.467 113.34 177.664 113.618 178.821L115.822 187.976L115.871 188.162C116.417 190.073 118.151 191.389 120.153 191.39V191.776L119.944 191.772C117.858 191.684 116.074 190.278 115.5 188.27L115.446 188.066L113.242 178.912C112.959 177.734 113.122 176.516 113.7 175.458L113.821 175.248C114.496 174.144 115.562 173.371 116.819 173.066L125.689 170.932C126.06 170.843 126.442 170.796 126.824 170.796L127.034 170.801Z" fill="#0B4D5E"/>
<path d="M129.425 186.435L129.516 186.811L120.648 188.947L120.557 188.571L129.425 186.435ZM130.672 184.396L128.468 175.244C128.249 174.336 127.337 173.778 126.429 173.996L117.562 176.131C116.654 176.35 116.096 177.263 116.314 178.171L118.518 187.323C118.737 188.23 119.65 188.789 120.557 188.571L120.648 188.947L120.439 188.986C119.465 189.118 118.528 188.545 118.203 187.618L118.142 187.414L115.938 178.261C115.686 177.216 116.274 176.164 117.267 175.816L117.471 175.755L126.339 173.62C127.454 173.352 128.575 174.038 128.844 175.153L131.048 184.306L131.087 184.515C131.229 185.558 130.561 186.559 129.516 186.811L129.425 186.435C130.332 186.217 130.89 185.304 130.672 184.396Z" fill="#0B4D5E"/>
<path d="M119.93 145.896C122.085 145.988 123.917 147.486 124.427 149.603L126.631 158.757C127.257 161.354 125.651 163.976 123.054 164.602L114.185 166.736L113.905 166.795C113.623 166.846 113.336 166.872 113.049 166.872V166.485C113.399 166.485 113.751 166.442 114.094 166.36L122.963 164.226L123.185 164.167C125.371 163.521 126.724 161.311 126.304 159.071L126.255 158.847L124.051 149.692C123.567 147.681 121.787 146.278 119.72 146.278C119.457 146.278 119.193 146.303 118.933 146.35L118.675 146.403L109.806 148.538C108.649 148.816 107.669 149.529 107.047 150.546C106.425 151.563 106.236 152.76 106.514 153.917L108.718 163.071L108.767 163.258C109.313 165.169 111.047 166.485 113.049 166.485V166.872L112.84 166.868C110.754 166.78 108.971 165.374 108.396 163.365L108.342 163.162L106.138 154.008C105.855 152.829 106.018 151.612 106.596 150.554L106.717 150.344C107.35 149.308 108.327 148.563 109.482 148.225L109.715 148.162L118.585 146.027C118.956 145.939 119.338 145.892 119.72 145.892L119.93 145.896Z" fill="#0B4D5E"/>
<path d="M122.316 161.535L122.407 161.911L113.539 164.046L113.448 163.67L122.316 161.535ZM123.563 159.496L121.359 150.343C121.14 149.436 120.228 148.877 119.32 149.096L110.453 151.231C109.545 151.449 108.987 152.363 109.205 153.27L111.409 162.423C111.628 163.33 112.541 163.889 113.448 163.67L113.539 164.046L113.329 164.086C112.356 164.218 111.419 163.644 111.094 162.718L111.033 162.513L108.829 153.361C108.577 152.315 109.165 151.264 110.158 150.915L110.362 150.855L119.23 148.72C120.345 148.451 121.466 149.138 121.735 150.253L123.939 159.405L123.978 159.615C124.12 160.658 123.452 161.659 122.407 161.911L122.316 161.535C123.223 161.316 123.781 160.403 123.563 159.496Z" fill="#0B4D5E"/>
<path d="M106.332 142.06C104.087 142.06 102.151 140.534 101.625 138.349L99.4208 129.195C99.119 127.938 99.3239 126.637 99.9995 125.532C100.675 124.427 101.741 123.654 102.998 123.35L111.868 121.215C112.239 121.126 112.621 121.079 113.003 121.079C115.249 121.079 117.184 122.605 117.71 124.79L119.914 133.944C120.54 136.541 118.934 139.164 116.34 139.789L107.47 141.924C107.099 142.013 106.717 142.06 106.335 142.06H106.332Z" fill="#8AE5CC"/>
<path d="M113.213 121.084C115.368 121.176 117.2 122.674 117.71 124.79L119.914 133.944C120.539 136.542 118.934 139.163 116.34 139.789L107.471 141.924L107.19 141.982C107.002 142.016 106.813 142.039 106.622 142.051L106.335 142.06V141.673C106.685 141.673 107.037 141.63 107.38 141.548L116.249 139.413L116.47 139.354C118.653 138.709 120.007 136.499 119.587 134.259L119.538 134.034L117.334 124.88C116.849 122.869 115.069 121.466 113.003 121.466C112.74 121.466 112.476 121.49 112.216 121.537L111.958 121.591L103.089 123.725L103.09 123.726C101.931 124.006 100.952 124.717 100.33 125.733C99.7078 126.751 99.5189 127.947 99.7967 129.104L102.001 138.259L102.05 138.445C102.596 140.356 104.33 141.673 106.332 141.673V142.06L106.123 142.056C104.037 141.967 102.253 140.561 101.679 138.553L101.625 138.35L99.4207 129.195C99.1378 128.017 99.3006 126.799 99.8787 125.741L99.9998 125.531C100.675 124.427 101.741 123.654 102.998 123.35L111.868 121.215C112.239 121.126 112.621 121.079 113.003 121.079L113.213 121.084ZM106.335 141.673V142.06H106.332V141.673H106.335Z" fill="#0B4D5E"/>
<path d="M112.512 123.905L103.645 126.041C102.53 126.309 101.843 127.431 102.112 128.546L104.316 137.699C104.585 138.814 105.706 139.5 106.821 139.232L115.689 137.096C116.804 136.828 117.49 135.706 117.222 134.591L115.018 125.438C114.749 124.323 113.627 123.637 112.512 123.905Z" fill="#F0F4FF"/>
<path d="M115.599 136.72L115.689 137.096L106.822 139.232L106.731 138.856L115.599 136.72ZM116.846 134.681L114.641 125.529C114.423 124.622 113.511 124.063 112.603 124.281L103.736 126.417C102.828 126.635 102.269 127.548 102.488 128.456L104.692 137.608C104.911 138.516 105.824 139.074 106.731 138.856L106.822 139.232L106.612 139.271C105.639 139.403 104.702 138.83 104.376 137.903L104.316 137.699L102.112 128.546C101.86 127.501 102.447 126.449 103.441 126.101L103.645 126.041L112.513 123.905C113.628 123.637 114.749 124.323 115.017 125.438L117.221 134.591L117.261 134.8C117.402 135.843 116.734 136.844 115.689 137.096L115.599 136.72C116.506 136.502 117.064 135.589 116.846 134.681Z" fill="#0B4D5E"/>
<path d="M70.4065 121.214C70.9155 121.053 71.4593 121.334 71.6207 121.843C71.7819 122.352 71.5001 122.896 70.9912 123.057L63.3755 125.469C62.8665 125.63 62.3226 125.349 62.1614 124.84C62.0002 124.331 62.282 123.787 62.7908 123.625L70.4065 121.214Z" fill="#0B4D5E"/>
<path d="M72.9822 101.538C73.451 101.362 73.9707 101.573 74.1883 102.012L74.227 102.103L77.0295 109.574L77.06 109.669C77.1848 110.142 76.9327 110.643 76.4642 110.819C75.9954 110.995 75.4757 110.783 75.2581 110.344L75.2194 110.254L72.4169 102.783L72.3864 102.688C72.2616 102.214 72.5136 101.714 72.9822 101.538Z" fill="#0B4D5E"/>
<path d="M62.2882 110.006C62.5301 109.568 63.0623 109.391 63.5131 109.583L63.6019 109.627L70.9601 113.686C71.4275 113.943 71.5979 114.532 71.3404 114.999C71.0826 115.467 70.4944 115.637 70.0269 115.379L62.6676 111.32L62.5839 111.267C62.1809 110.989 62.0464 110.445 62.2882 110.006Z" fill="#0B4D5E"/>
</svg>
