<svg width="411" height="300" viewBox="0 0 411 300" fill="none" xmlns="http://www.w3.org/2000/svg">
<path d="M175.943 141.651L307.896 181.566C308.099 181.628 308.136 181.898 307.958 182.012L210.678 244.347C209.352 245.197 207.658 245.219 206.311 244.403L103.942 182.469" fill="#155C6D"/>
<path d="M307.956 181.368C308.327 181.481 308.396 181.977 308.069 182.186L210.789 244.521C209.397 245.413 207.619 245.436 206.204 244.58L103.836 182.645L103.534 182.463L175.841 141.471L175.918 141.428L307.956 181.368ZM104.35 182.474L206.418 244.227L206.661 244.363C207.897 244.996 209.385 244.93 210.566 244.173L307.847 181.838C307.876 181.819 307.87 181.774 307.837 181.764L175.967 141.873L104.35 182.474Z" fill="#155C6D"/>
<path d="M106.976 179.418L204.114 120.996L229.064 135.498L127.861 193.92C126.985 194.434 125.552 194.434 124.675 193.92L106.936 183.613C105.474 182.728 104.571 181.922 104.989 180C105.101 179.486 106.002 179.992 106.976 179.428V179.418V179.418Z" fill="#155C6D"/>
<path d="M204.217 120.817L229.167 135.32L229.475 135.499L127.964 194.098L127.963 194.097C127.486 194.377 126.872 194.511 126.268 194.511C125.664 194.511 125.049 194.377 124.571 194.097L106.832 183.792L106.829 183.79C106.097 183.347 105.468 182.903 105.084 182.307C104.691 181.698 104.569 180.956 104.787 179.956L104.807 179.885C104.832 179.817 104.869 179.755 104.921 179.704C104.99 179.637 105.073 179.598 105.152 179.575C105.299 179.532 105.486 179.53 105.654 179.526C105.985 179.518 106.368 179.503 106.769 179.302L204.007 120.819L204.112 120.756L204.217 120.817ZM107.182 179.534V179.546L107.079 179.606C106.542 179.916 106.027 179.931 105.664 179.939C105.471 179.943 105.35 179.947 105.267 179.971C105.231 179.982 105.216 179.993 105.21 179.999L105.19 180.043C104.99 180.964 105.111 181.588 105.43 182.083C105.758 182.592 106.312 182.994 107.043 183.436L124.778 193.741L124.779 193.742C125.178 193.976 125.718 194.099 126.268 194.099C126.818 194.099 127.357 193.976 127.756 193.742L127.757 193.741L228.651 135.497L204.115 121.235L107.182 179.534Z" fill="#155C6D"/>
<path d="M106.97 177.946L204.108 119.524L229.057 134.026L127.721 192.268C126.844 192.782 125.546 192.962 124.668 192.448L106.929 182.141C104.803 180.854 103.853 179.761 106.97 177.956V177.946Z" fill="#70C5AD"/>
<path d="M204.211 119.345L229.161 133.848L229.47 134.027L229.16 134.206L127.825 192.445L127.826 192.446C127.36 192.719 126.786 192.902 126.212 192.95C125.639 192.997 125.05 192.91 124.565 192.625V192.626L106.826 182.32L106.822 182.318C106.288 181.994 105.816 181.676 105.461 181.35C105.108 181.026 104.849 180.674 104.78 180.278C104.71 179.871 104.849 179.465 105.191 179.058C105.515 178.673 106.031 178.271 106.764 177.838V177.83L106.863 177.769L204.001 119.347L204.106 119.285L204.211 119.345ZM107.176 178.062V178.075L107.073 178.134C106.302 178.581 105.801 178.974 105.508 179.324C105.218 179.669 105.143 179.955 105.187 180.208C105.232 180.471 105.414 180.747 105.74 181.046C106.063 181.343 106.506 181.643 107.033 181.962L124.773 192.269V192.27C125.165 192.5 125.663 192.58 126.178 192.538C126.692 192.495 127.206 192.332 127.617 192.09L127.618 192.089L228.644 134.025L204.108 119.763L107.176 178.062Z" fill="#155C6D"/>
<path d="M101.062 120.107L110.723 115.57L165.646 125.493L206.618 56.4382L204.332 56.0507C203.085 55.8925 202.305 56.1177 201.558 56.5413C201.199 56.7606 102.948 110.799 102.948 110.799C100.568 112.171 99.4584 115.015 100.275 117.637L101.052 120.098L101.062 120.107Z" fill="#70C5AD"/>
<path d="M201.456 56.3613C202.192 55.9441 202.963 55.7125 204.121 55.8203L204.358 55.8456L204.367 55.8466L206.653 56.2343L206.949 56.2851L165.824 125.599L165.75 125.722L110.75 115.784L101.026 120.352L100.923 120.26L100.912 120.25L100.871 120.213L100.078 117.699C99.2331 114.985 100.381 112.041 102.845 110.621L102.849 110.618L102.949 110.8C102.856 110.631 102.849 110.619 102.849 110.618C102.85 110.618 102.852 110.617 102.854 110.616C102.857 110.615 102.861 110.611 102.867 110.608C102.878 110.602 102.897 110.592 102.92 110.579C102.967 110.553 103.038 110.515 103.131 110.464C103.317 110.362 103.593 110.21 103.952 110.012C104.672 109.616 105.728 109.035 107.072 108.296C109.759 106.818 113.598 104.706 118.206 102.172C127.423 97.1022 139.716 90.3408 152.02 83.5722C164.324 76.8037 176.638 70.0276 185.9 64.9306C190.53 62.3822 194.398 60.2534 197.118 58.7548C198.479 58.0055 199.553 57.4136 200.292 57.0058C200.662 56.8021 200.948 56.6447 201.144 56.5361C201.242 56.4818 201.318 56.4393 201.37 56.4101C201.397 56.3955 201.417 56.3839 201.431 56.3759C201.443 56.3691 201.449 56.366 201.451 56.3652L201.456 56.3613ZM204.306 56.2558C203.107 56.1038 202.373 56.3166 201.665 56.7167L201.666 56.7177C201.478 56.8326 176.819 70.4004 152.218 83.9335C139.914 90.702 127.622 97.4636 118.406 102.533C113.797 105.068 109.958 107.18 107.271 108.658C105.927 109.397 104.871 109.977 104.152 110.373C103.792 110.571 103.515 110.723 103.329 110.825C103.237 110.876 103.167 110.915 103.119 110.941C103.096 110.954 103.078 110.964 103.066 110.971C103.06 110.974 103.055 110.976 103.052 110.977H103.05L103.051 110.978C100.755 112.301 99.6845 115.045 100.472 117.575L101.181 119.823L110.636 115.383L110.696 115.355L110.76 115.367L165.541 125.264L206.287 56.5908L204.306 56.2558Z" fill="#155C6D"/>
<path d="M126.034 190.32L127.698 190.401L165.627 125.484L110.705 115.561L100.24 117.538L122.181 187.435C122.221 187.557 122.262 187.678 122.312 187.788C122.928 189.291 124.43 190.229 126.044 190.309L126.034 190.32Z" fill="#155C6D"/>
<path d="M110.741 115.357L165.664 125.281L165.954 125.334L165.805 125.588L127.876 190.505L127.812 190.612L127.688 190.606L125.579 190.505L125.608 190.472C124.09 190.258 122.716 189.318 122.121 187.866C122.068 187.746 122.025 187.618 121.985 187.5L121.984 187.497L100.043 117.6L99.9736 117.378L110.667 115.357L110.704 115.351L110.741 115.357ZM100.506 117.696L122.377 187.37L122.437 187.545L122.5 187.703L122.503 187.71L122.622 187.971C123.263 189.239 124.606 190.031 126.054 190.104L126.498 190.126L126.488 190.135L127.582 190.188L165.3 125.635L110.706 115.771L100.506 117.696Z" fill="#155C6D"/>
<path d="M227.64 136.959L226.238 133.56L230.524 131.119C231.169 130.867 232.007 131.422 232.39 132.36C232.773 133.298 232.571 134.266 231.926 134.518L227.64 136.959Z" fill="#155C6D"/>
<path d="M230.524 131.119C231.169 130.867 232.007 131.422 232.39 132.361C232.773 133.298 232.571 134.266 231.926 134.518L227.64 136.959L226.238 133.56L230.524 131.119ZM231.512 131.359C231.189 131.145 230.847 131.079 230.557 131.191L226.336 133.594L227.679 136.846L231.888 134.449L231.897 134.445L232.002 134.395C232.236 134.26 232.397 134.007 232.467 133.68C232.536 133.353 232.512 132.961 232.38 132.562L232.317 132.39C232.131 131.934 231.835 131.573 231.512 131.359Z" fill="#155C6D"/>
<path d="M131.729 192.175L127.463 194.555L126.102 191.177L130.368 188.797C131.003 188.545 131.83 189.109 132.204 190.037C132.577 190.964 132.365 191.923 131.729 192.165V192.175Z" fill="#155C6D"/>
<path d="M130.292 188.605C130.693 188.446 131.13 188.554 131.499 188.804C131.87 189.055 132.194 189.462 132.395 189.959C132.594 190.456 132.642 190.971 132.546 191.403C132.461 191.783 132.259 192.117 131.936 192.295L131.83 192.355L127.563 194.735L127.359 194.849L127.271 194.632L125.91 191.254L125.842 191.085L130.268 188.616L130.279 188.61L130.292 188.605ZM131.268 189.145C130.974 188.946 130.685 188.897 130.452 188.986L126.36 191.268L127.566 194.26L131.523 192.053V192.023L131.656 191.972C131.889 191.883 132.068 191.654 132.144 191.313C132.21 191.015 132.192 190.65 132.07 190.275L132.012 190.113C131.838 189.683 131.562 189.345 131.268 189.145Z" fill="#155C6D"/>
<path d="M127.486 194.533C128.117 194.269 128.316 193.304 127.929 192.38C127.541 191.455 126.715 190.919 126.083 191.184C125.452 191.449 125.253 192.413 125.64 193.338C126.028 194.262 126.854 194.797 127.486 194.533V194.533Z" fill="#C8DAE8"/>
<path d="M126.155 190.943C126.51 190.853 126.885 190.952 127.21 191.163C127.583 191.405 127.912 191.804 128.12 192.3C128.327 192.795 128.382 193.31 128.292 193.745C128.203 194.179 127.963 194.558 127.566 194.724L127.28 194.843V194.797C126.966 194.835 126.644 194.739 126.36 194.555C126.033 194.343 125.741 194.011 125.534 193.599L125.451 193.417C125.243 192.922 125.188 192.407 125.278 191.972C125.367 191.538 125.607 191.16 126.003 190.993H126.004L126.155 190.943ZM126.986 191.509C126.727 191.341 126.471 191.289 126.254 191.344L126.164 191.374C125.929 191.473 125.753 191.71 125.682 192.055C125.611 192.399 125.652 192.829 125.831 193.258L125.903 193.414C126.081 193.767 126.326 194.041 126.584 194.208C126.88 194.399 127.172 194.441 127.407 194.343L127.492 194.3C127.683 194.184 127.826 193.964 127.888 193.662C127.959 193.318 127.918 192.888 127.739 192.459C127.559 192.03 127.28 191.7 126.986 191.509Z" fill="#155C6D"/>
<path d="M227.668 136.952C228.303 136.68 228.493 135.704 228.094 134.772C227.695 133.841 226.857 133.306 226.222 133.578C225.587 133.85 225.396 134.825 225.795 135.757C226.194 136.689 227.033 137.224 227.668 136.952Z" fill="#155C6D"/>
<path d="M226.223 133.578C226.857 133.306 227.695 133.841 228.095 134.772C228.494 135.704 228.303 136.68 227.668 136.952L227.546 136.993C226.971 137.144 226.27 136.698 225.875 135.927L225.795 135.757C225.421 134.884 225.566 133.971 226.109 133.637L226.223 133.578ZM227.204 133.79C226.921 133.609 226.625 133.544 226.364 133.612L226.253 133.65C225.967 133.773 225.772 134.058 225.699 134.435C225.625 134.811 225.673 135.273 225.867 135.726L225.946 135.892C226.137 136.266 226.403 136.558 226.686 136.739C227.01 136.946 227.351 137.003 227.637 136.88L227.74 136.826C227.97 136.684 228.127 136.424 228.192 136.094C228.256 135.764 228.226 135.37 228.088 134.974L228.023 134.803C227.828 134.35 227.528 133.997 227.204 133.79Z" fill="#155C6D"/>
<path d="M224.125 138.325L223.156 135.976L226.119 134.289C226.565 134.115 227.144 134.498 227.409 135.147C227.674 135.795 227.534 136.464 227.088 136.638L224.125 138.325Z" fill="#155C6D"/>
<path d="M226.119 134.289C226.565 134.115 227.143 134.498 227.408 135.147C227.673 135.795 227.534 136.464 227.088 136.639L224.125 138.325L223.156 135.977L226.119 134.289ZM227.129 136.532C227.283 136.444 227.391 136.275 227.438 136.054C227.485 135.833 227.469 135.565 227.379 135.293L227.336 135.177C227.209 134.865 227.007 134.62 226.788 134.475C226.57 134.33 226.342 134.287 226.151 134.36L223.255 136.011L224.163 138.213L227.049 136.57L227.06 136.565L227.129 136.532Z" fill="#155C6D"/>
<path d="M229.09 133.874L130.853 190.459C128.493 191.811 125.498 190.641 124.681 188.049L102.777 118.252C101.949 115.63 103.069 112.785 105.449 111.414L204.511 56.9498C206.609 55.7497 209.102 56.7359 209.858 59.0353L218.793 92.7271L232.438 125.109C233.537 128.458 232.146 132.118 229.09 133.874Z" fill="#70C5AD"/>
<path d="M204.411 56.7691C206.555 55.5448 209.094 56.488 209.974 58.7476L210.054 58.9712L210.058 58.982L218.988 92.6626L232.629 125.029L232.635 125.044C233.764 128.485 232.333 132.247 229.192 134.051L229.193 134.052L130.955 190.638C128.481 192.055 125.341 190.829 124.484 188.112L124.483 188.111L102.58 118.314C101.723 115.599 102.883 112.654 105.346 111.235L105.35 111.233L204.411 56.7691ZM209.657 59.0884C208.937 56.9188 206.592 55.9969 204.613 57.1285L204.61 57.1304L105.548 111.595L105.547 111.594C103.253 112.919 102.176 115.663 102.974 118.19L124.878 187.988L124.956 188.214C125.832 190.521 128.574 191.527 130.75 190.281L228.987 133.695L229.261 133.529C232.038 131.767 233.275 128.332 232.243 125.179L218.603 92.8072L218.597 92.7935L218.593 92.7798L209.658 59.0884H209.657Z" fill="#155C6D"/>
<path d="M215.551 77.5933L209.858 59.035C209.201 57.0383 207.092 56.0096 205.174 56.5589L123.264 101.16L105.449 111.414C103.069 112.785 101.949 115.63 102.777 118.252L108.357 136.741L215.551 77.5933Z" fill="#70C5AD"/>
<path d="M205.117 56.3603C207.074 55.7996 209.223 56.7986 209.984 58.7763L210.054 58.9706L210.056 58.9745L215.749 77.5331L215.798 77.6933L215.651 77.7743L108.457 136.922L108.233 137.045L108.159 136.801L102.579 118.311V118.31C101.724 115.596 102.884 112.654 105.346 111.235V111.234L123.161 100.98L123.165 100.978L205.075 56.3779L205.096 56.3671L205.117 56.3603ZM209.6 58.9247C208.919 57.159 207.004 56.2598 205.251 56.7509L123.362 101.341L105.552 111.593C103.327 112.875 102.244 115.491 102.904 117.952L102.974 118.189V118.192L108.48 136.436L215.305 77.4931L209.662 59.0995L209.6 58.9247Z" fill="#155C6D"/>
<path d="M201.335 77.6548L201.383 77.6685L201.358 77.7114L200.294 79.5601L200.226 79.521L201.265 77.7153L199.346 77.1577L199.367 77.0815L201.335 77.6548Z" fill="#155C6D"/>
<path d="M194.625 79.5752L194.657 79.5967L193.526 81.3027L195.495 81.9561L195.482 81.9932L195.471 82.0303L193.453 81.3613L193.404 81.3457L193.433 81.3027L194.592 79.5537L194.625 79.5752Z" fill="#155C6D"/>
<path d="M171.01 119.638C169.887 119.638 168.798 119.048 168.21 117.999C167.343 116.454 167.893 114.499 169.438 113.633L188.333 103.033C189.878 102.166 191.833 102.716 192.7 104.261C193.567 105.806 193.017 107.761 191.472 108.628L172.576 119.228C172.08 119.506 171.541 119.638 171.01 119.638H171.01Z" fill="#155C6D"/>
<path d="M188.334 103.033C189.879 102.167 191.834 102.716 192.701 104.261C193.568 105.806 193.017 107.761 191.472 108.628L172.577 119.228L172.389 119.325C171.946 119.537 171.475 119.639 171.01 119.639V119.56C171.529 119.56 172.054 119.431 172.539 119.159L191.434 108.56L191.573 108.477C192.928 107.623 193.42 105.877 192.708 104.442L192.632 104.3C191.813 102.84 189.997 102.29 188.514 103.027L188.373 103.102L169.477 113.701C167.97 114.547 167.433 116.454 168.279 117.961L168.392 118.148C168.986 119.054 169.984 119.56 171.01 119.56V119.639L170.8 119.632C169.823 119.568 168.894 119.058 168.326 118.191L168.211 117.999C167.371 116.503 167.86 114.621 169.297 113.717L169.438 113.633L188.334 103.033Z" fill="#155C6D"/>
<path d="M126.182 144.786C125.059 144.786 123.97 144.196 123.381 143.147C122.515 141.603 123.065 139.647 124.61 138.781L147.85 125.743C149.395 124.876 151.351 125.426 152.217 126.971C153.084 128.516 152.534 130.471 150.989 131.338L127.748 144.376C127.252 144.654 126.713 144.786 126.182 144.786Z" fill="#155C6D"/>
<path d="M147.851 125.743C149.396 124.877 151.351 125.426 152.217 126.971C153.084 128.516 152.535 130.471 150.99 131.338L127.749 144.375L127.561 144.473C127.118 144.685 126.647 144.786 126.182 144.786V144.707C126.7 144.707 127.226 144.578 127.711 144.307L150.951 131.27L151.09 131.187C152.445 130.333 152.937 128.587 152.224 127.151L152.149 127.01C151.33 125.55 149.515 125.001 148.032 125.736L147.889 125.812L124.649 138.849C123.142 139.694 122.605 141.601 123.451 143.109L123.564 143.295C124.158 144.201 125.156 144.707 126.182 144.707V144.786L125.972 144.779C124.995 144.715 124.066 144.205 123.498 143.338L123.383 143.148C122.543 141.651 123.032 139.768 124.468 138.864L124.61 138.78L147.851 125.743Z" fill="#155C6D"/>
<path d="M176.852 135.566C175.729 135.566 174.64 134.975 174.051 133.927C173.185 132.382 173.734 130.427 175.28 129.56L194.175 118.96C195.72 118.093 197.675 118.643 198.542 120.188C199.409 121.733 198.859 123.688 197.314 124.555L178.418 135.155C177.922 135.433 177.383 135.566 176.852 135.566H176.852Z" fill="#155C6D"/>
<path d="M194.174 118.961C195.72 118.094 197.675 118.643 198.542 120.188C199.408 121.733 198.858 123.689 197.313 124.555L178.418 135.155L178.23 135.253C177.787 135.465 177.316 135.566 176.851 135.566V135.487C177.369 135.487 177.895 135.358 178.38 135.087L197.275 124.487L197.414 124.404C198.769 123.55 199.261 121.804 198.548 120.369L198.473 120.227C197.654 118.767 195.838 118.218 194.355 118.954L194.214 119.029L175.318 129.629C173.811 130.474 173.274 132.381 174.12 133.888L174.233 134.075C174.827 134.981 175.824 135.487 176.851 135.487V135.566L176.641 135.559C175.664 135.495 174.735 134.985 174.167 134.118L174.051 133.926C173.212 132.43 173.701 130.548 175.137 129.644L175.279 129.56L194.174 118.961Z" fill="#155C6D"/>
<path d="M132.024 160.713C130.901 160.713 129.811 160.123 129.223 159.074C128.356 157.529 128.906 155.574 130.451 154.707L153.692 141.67C155.237 140.803 157.192 141.353 158.059 142.898C158.926 144.443 158.376 146.398 156.831 147.265L133.59 160.302C133.094 160.581 132.555 160.713 132.024 160.713Z" fill="#155C6D"/>
<path d="M153.692 141.671C155.237 140.804 157.192 141.353 158.058 142.898C158.925 144.443 158.376 146.399 156.831 147.265L133.59 160.302L133.402 160.4C132.959 160.612 132.488 160.714 132.023 160.714V160.634C132.541 160.634 133.067 160.506 133.551 160.234L156.792 147.197L156.93 147.114C158.286 146.26 158.778 144.514 158.065 143.079L157.99 142.937C157.171 141.477 155.356 140.928 153.873 141.664L153.73 141.739L130.49 154.776C128.983 155.621 128.446 157.529 129.292 159.036L129.405 159.222C129.998 160.128 130.996 160.634 132.023 160.634V160.714L131.813 160.707C130.836 160.643 129.906 160.133 129.339 159.265L129.223 159.075C128.384 157.578 128.873 155.696 130.309 154.792L130.451 154.708L153.692 141.671Z" fill="#155C6D"/>
<path d="M182.124 151.836C181.002 151.836 179.912 151.246 179.324 150.197C178.457 148.652 179.007 146.697 180.552 145.83L199.447 135.231C200.993 134.364 202.947 134.914 203.814 136.459C204.681 138.004 204.131 139.959 202.586 140.825L183.691 151.425C183.194 151.704 182.655 151.836 182.124 151.836Z" fill="#155C6D"/>
<path d="M199.448 135.231C200.993 134.364 202.948 134.914 203.815 136.459C204.682 138.004 204.132 139.959 202.587 140.826L183.691 151.426L183.504 151.523C183.061 151.735 182.59 151.837 182.125 151.837V151.758C182.643 151.758 183.169 151.629 183.653 151.357L202.548 140.758L202.687 140.675C204.043 139.821 204.534 138.074 203.822 136.639L203.747 136.498C202.928 135.038 201.112 134.488 199.629 135.224L199.487 135.3L180.591 145.899C179.084 146.745 178.548 148.652 179.393 150.159L179.506 150.345C180.1 151.251 181.098 151.758 182.125 151.758V151.837L181.915 151.83C180.938 151.766 180.008 151.256 179.44 150.388L179.325 150.197C178.485 148.7 178.975 146.819 180.411 145.915L180.552 145.831L199.448 135.231Z" fill="#155C6D"/>
<path d="M137.296 176.984C136.173 176.984 135.084 176.394 134.496 175.345C133.629 173.8 134.179 171.845 135.724 170.978L158.965 157.941C160.51 157.074 162.465 157.624 163.331 159.169C164.198 160.714 163.648 162.669 162.103 163.536L138.862 176.573C138.366 176.852 137.827 176.984 137.296 176.984Z" fill="#155C6D"/>
<path d="M158.966 157.941C160.51 157.075 162.465 157.624 163.332 159.169C164.198 160.714 163.649 162.669 162.104 163.536L138.863 176.573L138.675 176.671C138.233 176.883 137.762 176.984 137.297 176.984V176.905C137.815 176.905 138.341 176.776 138.825 176.505L162.065 163.468L162.204 163.385C163.56 162.531 164.051 160.785 163.339 159.349L163.263 159.208C162.444 157.748 160.629 157.199 159.146 157.934L159.004 158.01L135.763 171.047C134.256 171.892 133.72 173.799 134.565 175.307L134.678 175.493C135.272 176.399 136.27 176.905 137.297 176.905V176.984L137.087 176.977C136.109 176.913 135.18 176.403 134.612 175.536L134.497 175.346C133.657 173.849 134.146 171.966 135.583 171.062L135.724 170.978L158.966 157.941Z" fill="#155C6D"/>
<path d="M223.373 215.928C228.089 221.886 227.979 230.198 222.879 234.454C216.383 240.293 201.404 242.606 188.428 229.629C157.83 199.032 149.61 114.27 108.45 137.118L215.452 77.2368C258.62 96.2368 260.619 148.856 282.876 171.112C291.912 180.148 300.216 186.509 306.712 180.67C313.567 175.924 313.135 167.157 308.418 161.199C302.494 154.833 294.584 154.305 289.73 159.512" fill="#C8DAE8"/>
<path d="M215.535 77.0483C237.189 86.5791 248.509 104.54 257.192 122.865C259.363 127.446 261.371 132.053 263.333 136.556C265.296 141.061 267.214 145.462 269.208 149.638C273.197 157.992 277.483 165.428 283.021 170.966C287.54 175.484 291.854 179.311 295.838 181.285C297.827 182.27 299.722 182.786 301.509 182.705C303.291 182.623 304.983 181.947 306.574 180.517L306.584 180.508L306.595 180.5C309.966 178.167 311.542 174.85 311.698 171.38C311.855 167.908 310.589 164.277 308.261 161.333C305.329 158.186 301.919 156.493 298.656 156.221C295.394 155.95 292.264 157.096 289.881 159.653L289.73 159.512L289.579 159.372C292.05 156.722 295.303 155.528 298.69 155.81C301.969 156.083 305.359 157.736 308.287 160.761L308.569 161.058L308.575 161.064L308.58 161.071C310.966 164.084 312.272 167.814 312.11 171.399C311.949 174.984 310.316 178.418 306.843 180.829C305.188 182.314 303.409 183.031 301.527 183.117C299.648 183.202 297.682 182.659 295.654 181.655C291.603 179.648 287.247 175.776 282.729 171.258C277.14 165.669 272.83 158.181 268.836 149.816C266.838 145.632 264.917 141.224 262.955 136.721C260.992 132.217 258.987 127.616 256.819 123.042C248.16 104.769 236.916 86.946 215.462 77.4663L113.307 134.636C116.557 133.435 119.596 132.943 122.458 133.072C126.73 133.265 130.586 134.84 134.131 137.465C141.211 142.709 147.072 152.159 152.585 163.24C155.343 168.784 158.019 174.745 160.718 180.803C163.417 186.863 166.14 193.021 168.997 198.963C174.712 210.853 180.95 221.861 188.573 229.484C201.479 242.389 216.333 240.06 222.741 234.3L222.746 234.295L222.977 234.097C227.741 229.875 227.805 221.86 223.211 216.056L223.534 215.799C228.299 221.818 228.219 230.259 223.016 234.607L223.017 234.608C216.432 240.526 201.329 242.822 188.282 229.775C180.607 222.099 174.343 211.037 168.625 199.142C165.765 193.193 163.039 187.029 160.341 180.971C157.642 174.912 154.969 168.959 152.215 163.423C146.703 152.345 140.879 142.977 133.886 137.797C130.394 135.211 126.615 133.674 122.439 133.485C118.263 133.296 113.671 134.456 108.551 137.298L108.45 137.118L108.35 136.938L215.352 77.0571L215.44 77.0063L215.535 77.0483Z" fill="#155C6D"/>
<path d="M218.731 82.6331C219.684 82.0958 220.892 82.433 221.429 83.386C221.967 84.3389 221.629 85.547 220.677 86.0842L211.341 91.3479C210.388 91.8849 209.18 91.5477 208.642 90.595C208.105 89.642 208.442 88.434 209.395 87.8967L218.731 82.6331Z" fill="#155C6D"/>
<path d="M200.921 92.3794C201.84 91.9772 202.933 92.3298 203.437 93.2231C203.974 94.176 203.638 95.3841 202.685 95.9214L189.293 103.471C188.34 104.008 187.132 103.671 186.594 102.718C186.057 101.765 186.394 100.557 187.347 100.02L200.739 92.4702L200.921 92.3794Z" fill="#155C6D"/>
<path d="M178.167 105.136C179.12 104.599 180.327 104.936 180.864 105.889C181.401 106.842 181.065 108.05 180.112 108.587L162.837 118.326C161.884 118.863 160.676 118.526 160.138 117.573C159.601 116.62 159.938 115.412 160.891 114.875L178.167 105.136Z" fill="#155C6D"/>
<path d="M153.133 119.25C154.086 118.713 155.294 119.05 155.831 120.003C156.368 120.956 156.031 122.164 155.078 122.701L137.678 132.511C136.726 133.048 135.517 132.711 134.98 131.758C134.443 130.805 134.78 129.597 135.733 129.06L153.133 119.25Z" fill="#155C6D"/>
<path d="M166.548 146.787C167.497 146.26 168.694 146.602 169.221 147.55C169.748 148.499 169.406 149.697 168.458 150.224L158.966 155.497C158.017 156.024 156.82 155.682 156.292 154.733C155.765 153.784 156.108 152.587 157.056 152.06L166.548 146.787Z" fill="#155C6D"/>
<path d="M185.18 118.743C186.094 118.347 187.177 118.7 187.674 119.587C188.204 120.535 187.866 121.733 186.918 122.263L150.048 142.885C149.101 143.415 147.902 143.076 147.372 142.128C146.843 141.181 147.181 139.984 148.128 139.454L184.999 118.832L185.18 118.743Z" fill="#155C6D"/>
<path d="M244.249 115.437C245.197 114.908 246.394 115.246 246.924 116.193C247.454 117.141 247.116 118.339 246.168 118.869L231.721 126.949C230.774 127.479 229.575 127.141 229.045 126.193C228.515 125.246 228.854 124.048 229.801 123.518L244.249 115.437Z" fill="#155C6D"/>
<path d="M199.259 140.6C200.206 140.071 201.404 140.409 201.934 141.356C202.464 142.303 202.125 143.502 201.178 144.032L163.511 165.099C162.564 165.629 161.365 165.29 160.835 164.342C160.306 163.395 160.644 162.197 161.591 161.667L199.259 140.6Z" fill="#155C6D"/>
<path d="M248.415 123.691C248.983 123.374 249.701 123.576 250.019 124.144C250.337 124.713 250.135 125.432 249.566 125.75L235.119 133.83C234.551 134.148 233.832 133.945 233.514 133.377C233.196 132.808 233.398 132.089 233.967 131.771L248.415 123.691Z" fill="#155C6D"/>
<path d="M202.078 149.661C202.648 149.347 203.366 149.555 203.681 150.125C203.995 150.695 203.787 151.413 203.217 151.727L166.275 172.097C165.705 172.411 164.987 172.203 164.673 171.633C164.359 171.062 164.566 170.346 165.137 170.031L202.078 149.661Z" fill="#155C6D"/>
<path d="M181.822 181.073C182.764 180.534 183.965 180.862 184.503 181.804C185.042 182.747 184.714 183.948 183.772 184.487L176.39 188.704L176.21 188.795C175.3 189.2 174.212 188.857 173.707 187.973C173.169 187.031 173.497 185.83 174.439 185.291L181.822 181.073Z" fill="#155C6D"/>
<path d="M259.745 147.643C260.64 147.206 261.739 147.509 262.276 148.374C262.849 149.296 262.565 150.508 261.642 151.081L247.685 159.746C246.763 160.318 245.551 160.034 244.978 159.112C244.406 158.19 244.689 156.979 245.611 156.406L259.569 147.741L259.745 147.643Z" fill="#155C6D"/>
<path d="M216.185 174.673C217.112 174.109 218.321 174.404 218.885 175.331C219.449 176.259 219.155 177.468 218.228 178.032L181.594 200.316C180.666 200.88 179.457 200.585 178.893 199.657C178.329 198.73 178.624 197.521 179.551 196.957L216.185 174.673Z" fill="#155C6D"/>
<path d="M264.096 156.252C264.633 155.989 265.293 156.171 265.615 156.69C265.958 157.244 265.788 157.971 265.234 158.314L251.307 166.953C250.754 167.296 250.027 167.126 249.683 166.573C249.34 166.02 249.51 165.292 250.063 164.949L263.991 156.31L264.096 156.252Z" fill="#155C6D"/>
<path d="M219.393 184.033C219.947 183.69 220.673 183.86 221.016 184.413C221.36 184.967 221.19 185.694 220.636 186.037L184.531 208.433C183.977 208.776 183.25 208.605 182.907 208.052C182.564 207.498 182.734 206.771 183.287 206.428L219.393 184.033Z" fill="#155C6D"/>
<path d="M253.285 131.545C253.474 131.437 253.714 131.503 253.822 131.691C253.93 131.88 253.864 132.121 253.676 132.229L169.312 180.445C169.124 180.553 168.883 180.487 168.775 180.299C168.668 180.111 168.733 179.87 168.922 179.763L253.285 131.545Z" fill="#155C6D"/>
<path d="M274.298 161.31C274.482 161.194 274.724 161.249 274.84 161.432C274.956 161.616 274.902 161.858 274.718 161.974L189.109 216.031C188.925 216.147 188.683 216.091 188.567 215.908C188.451 215.724 188.505 215.482 188.689 215.366L274.298 161.31Z" fill="#155C6D"/>
<path d="M226.543 97.7217L230.501 98.8555L230.575 98.8848C230.737 98.9694 230.824 99.1592 230.771 99.3419C230.719 99.5244 230.545 99.6392 230.363 99.6251L230.285 99.6114L226.703 98.585L225.693 102.087C225.633 102.296 225.415 102.416 225.206 102.356C224.998 102.295 224.877 102.077 224.937 101.868L226.058 97.9903L226.087 97.9171C226.171 97.7553 226.361 97.6697 226.543 97.7217Z" fill="#155C6D"/>
<path d="M226.204 130.212C227.017 129.399 227.015 128.08 226.199 127.264C225.384 126.449 224.064 126.447 223.252 127.26C222.439 128.072 222.441 129.392 223.256 130.207C224.072 131.022 225.391 131.025 226.204 130.212Z" fill="#155C6D"/>
<path d="M226.144 127.32C225.359 126.535 224.09 126.534 223.308 127.315C222.526 128.097 222.528 129.367 223.313 130.151C224.097 130.936 225.367 130.938 226.149 130.156L226.205 130.212L226.046 130.355C225.283 130.977 224.18 130.975 223.415 130.35L223.257 130.207C222.441 129.392 222.439 128.072 223.252 127.259L223.41 127.116C224.228 126.45 225.435 126.5 226.2 127.264L226.343 127.422C227.012 128.242 226.966 129.45 226.205 130.212L226.149 130.156C226.93 129.374 226.928 128.105 226.144 127.32Z" fill="#155C6D"/>
<path d="M240.936 163.624C241.748 162.811 241.746 161.491 240.931 160.676C240.116 159.861 238.796 159.859 237.983 160.671C237.171 161.484 237.173 162.804 237.988 163.619C238.803 164.434 240.123 164.436 240.936 163.624Z" fill="#155C6D"/>
<path d="M240.875 160.732C240.09 159.947 238.821 159.946 238.039 160.727C237.257 161.509 237.259 162.778 238.044 163.563C238.829 164.348 240.098 164.35 240.88 163.568L240.936 163.624L240.778 163.767C240.015 164.389 238.911 164.387 238.146 163.762L237.988 163.619C237.173 162.804 237.171 161.484 237.983 160.671L238.141 160.528C238.959 159.862 240.167 159.912 240.931 160.676L241.074 160.834C241.743 161.654 241.698 162.862 240.936 163.624L240.88 163.568C241.662 162.786 241.66 161.517 240.875 160.732Z" fill="#155C6D"/>
<path d="M211.987 211.02C212.876 210.569 213.979 210.856 214.529 211.713C215.115 212.626 214.85 213.842 213.937 214.429L198.358 224.429L198.185 224.529C197.296 224.98 196.192 224.693 195.643 223.837C195.056 222.923 195.322 221.707 196.235 221.121L211.813 211.12L211.987 211.02Z" fill="#155C6D"/>
<path d="M240.03 207.159C240.936 206.56 242.156 206.808 242.755 207.713C243.354 208.619 243.106 209.839 242.2 210.438L207.082 233.676C206.177 234.275 204.957 234.027 204.358 233.121C203.759 232.216 204.007 230.997 204.912 230.398L240.03 207.159Z" fill="#155C6D"/>
<path d="M223.478 215.11C228.287 221.185 228.148 229.697 222.948 234.037C217.644 238.464 209.35 236.687 204.65 230.166C200.086 223.835 200.764 215.551 205.955 211.566C211.05 207.656 218.804 209.205 223.478 215.11Z" fill="#70C5AD"/>
<path d="M206.075 211.22C211.281 207.458 218.988 209.106 223.64 214.981L223.864 215.272C228.494 221.39 228.305 229.835 223.08 234.195C217.744 238.649 209.495 236.932 204.708 230.592L204.482 230.287C199.87 223.889 200.528 215.471 205.829 211.402L206.075 211.22ZM223.316 215.238C218.694 209.399 211.064 207.905 206.081 211.73C200.999 215.63 200.302 223.782 204.817 230.046L205.037 230.345C209.722 236.55 217.71 238.14 222.816 233.878C227.828 229.695 228.069 221.511 223.536 215.522L223.316 215.238Z" fill="#155C6D"/>
<path d="M227.272 212.07C231.653 217.605 231.527 225.36 226.789 229.314C221.957 233.347 214.401 231.728 210.118 225.787L227.272 212.07Z" fill="#155C6D"/>
<path d="M227.434 211.942C231.796 217.453 231.769 225.183 227.146 229.28L226.922 229.473C221.973 233.603 214.283 231.917 209.951 225.908L209.836 225.749L209.989 225.626L227.305 211.779L227.434 211.942ZM210.403 225.823C214.655 231.565 221.984 233.055 226.657 229.155L226.871 228.972C231.246 225.094 231.369 217.736 227.234 212.363L210.403 225.823Z" fill="#155C6D"/>
<path d="M122.867 115.138C121.621 112.357 118.35 111.328 115.468 112.905C112.469 114.546 111.057 118.346 112.421 121.318C113.779 124.277 117.294 125.122 120.174 123.287C122.942 121.523 124.108 117.907 122.867 115.138Z" fill="#C8DAE8"/>
<path d="M115.467 112.905C118.35 111.328 121.62 112.357 122.867 115.138C124.107 117.907 122.942 121.524 120.173 123.288L119.902 123.452C117.168 125.016 113.951 124.239 112.554 121.589L112.42 121.319C111.099 118.439 112.383 114.783 115.191 113.065L115.467 112.905ZM122.49 115.307C121.387 112.845 118.542 111.857 115.918 113.136L115.665 113.267C112.836 114.815 111.532 118.391 112.796 121.146L112.917 121.394C114.235 123.894 117.338 124.605 119.952 122.939L120.192 122.779C122.55 121.119 123.539 118.002 122.591 115.55L122.49 115.307Z" fill="#155C6D"/>
<path d="M205.232 211.992C210.229 208.157 217.873 209.646 222.418 215.467C227.753 222.3 226.233 231.089 221.133 235.345L308.045 179.951C313.145 175.695 313.281 167.347 308.565 161.388C304.12 155.773 296.835 154.174 291.842 157.578C291.685 157.684 291.531 157.796 291.379 157.913" fill="#C8DAE8"/>
<path d="M291.732 157.403C296.836 153.93 304.234 155.584 308.727 161.26L308.946 161.544C313.488 167.546 313.303 175.831 308.177 180.11L308.167 180.117L308.156 180.125L221.244 235.519L221.001 235.187C226.013 231.004 227.524 222.341 222.256 215.594C218.219 210.424 211.74 208.742 206.923 211.172L205.342 212.166L205.106 211.828C205.622 211.433 206.165 211.092 206.729 210.807L291.732 157.403ZM308.402 161.516C304.008 155.965 296.841 154.42 291.958 157.748C291.805 157.853 291.654 157.962 291.505 158.076L291.481 158.046L208.719 210.044C213.413 208.774 218.974 210.72 222.581 215.34C227.461 221.59 226.683 229.469 222.662 234.125L307.921 179.784C312.826 175.681 313.061 167.664 308.618 161.794L308.402 161.516Z" fill="#155C6D"/>
<path d="M140.379 105.352C139.138 102.601 135.914 101.573 133.085 103.12C130.143 104.73 128.774 108.478 130.132 111.418C131.484 114.344 134.948 115.192 137.771 113.39C140.486 111.658 141.614 108.091 140.379 105.352V105.352Z" fill="#155C6D"/>
<path d="M133.085 103.12C135.825 101.621 138.937 102.539 140.257 105.099L140.379 105.352C141.615 108.091 140.487 111.658 137.772 113.39L137.505 113.551C134.823 115.086 131.653 114.307 130.265 111.686L130.132 111.418C128.817 108.57 130.06 104.964 132.814 103.278L133.085 103.12ZM140.18 105.139C138.925 102.706 136.022 101.779 133.389 103.061L133.127 103.196C130.221 104.786 128.874 108.487 130.211 111.382L130.341 111.645C131.749 114.304 135.027 115.039 137.725 113.318L137.972 113.152C140.474 111.387 141.478 108 140.3 105.388L140.18 105.139Z" fill="#155C6D"/>
<path d="M156.982 96.0171C155.745 93.2941 152.565 92.2669 149.787 93.7865C146.896 95.3673 145.567 99.0659 146.92 101.976C148.265 104.872 151.681 105.722 154.453 103.951C157.119 102.249 158.212 98.7279 156.982 96.0171Z" fill="#155C6D"/>
<path d="M149.786 93.786C152.564 92.2664 155.745 93.2938 156.981 96.0164C158.212 98.7272 157.118 102.249 154.453 103.951L154.191 104.109C151.557 105.616 148.432 104.836 147.051 102.241L146.92 101.975C145.61 99.1561 146.816 95.597 149.52 93.9403L149.786 93.786ZM156.903 96.0526C155.727 93.4617 152.758 92.4304 150.086 93.7293L149.828 93.8621C146.975 95.4227 145.666 99.0735 146.998 101.939L147.128 102.2C148.528 104.833 151.76 105.569 154.407 103.879L154.649 103.716C157.024 102.037 158.012 98.8526 157.009 96.3055L156.903 96.0526Z" fill="#155C6D"/>
<path d="M120.67 119.011C120.892 119.096 121.004 119.346 120.919 119.569C120.833 119.792 120.583 119.904 120.36 119.818L120.67 119.011ZM115.07 116.869L115.155 116.892L120.67 119.011L120.514 119.414L120.36 119.818L114.844 117.699L114.766 117.66C114.597 117.552 114.521 117.336 114.596 117.141C114.671 116.946 114.872 116.836 115.07 116.869Z" fill="#155C6D"/>
<path d="M118.859 115.199C119.087 115.268 119.216 115.51 119.147 115.739L117.416 121.443L117.382 121.524C117.286 121.701 117.076 121.792 116.876 121.731C116.648 121.662 116.519 121.42 116.588 121.192L118.319 115.487C118.389 115.259 118.63 115.13 118.859 115.199Z" fill="#155C6D"/>
</svg>
