<svg width="411" height="300" viewBox="0 0 411 300" fill="none" xmlns="http://www.w3.org/2000/svg">
<path d="M207.292 68.0001L117.327 119.347C117.12 119.465 116.963 119.653 116.882 119.876L107 147.237L197.285 94.6123L207.292 68.0001Z" fill="#2B545E"/>
<path d="M106.84 147.43C106.921 147.497 107.035 147.506 107.126 147.453L197.41 94.8281L197.284 94.6123H197.285L197.41 94.8281C197.46 94.7992 197.499 94.754 197.519 94.7002L207.526 68.0879L207.292 68.001V68L207.526 68.0879C207.563 67.9893 207.534 67.8779 207.454 67.8096C207.374 67.7412 207.26 67.7311 207.168 67.7832L117.203 119.13C116.945 119.277 116.748 119.512 116.647 119.791L106.765 147.152C106.729 147.251 106.759 147.362 106.84 147.43ZM117.117 119.961C117.178 119.794 117.296 119.653 117.45 119.564L206.814 68.5605L197.081 94.4424L107.469 146.675L117.117 119.961Z" fill="#07303A"/>
<path d="M207 67.0001L297.046 118.393C297.202 118.483 297.332 118.613 297.421 118.77L307.292 136.237L217.007 83.6123L207 67.0001Z" fill="#07303A"/>
<path d="M307.468 136.415C307.387 136.494 307.263 136.51 307.166 136.453L216.882 83.8278L217.008 83.612H217.007L216.882 83.8278C216.846 83.8067 216.815 83.7768 216.793 83.7409L206.786 67.1286L207 67.0007V66.9997L206.786 67.1286C206.727 67.0312 206.742 66.9062 206.821 66.8249C206.901 66.7435 207.025 66.7266 207.124 66.7829L297.17 118.175C297.366 118.287 297.528 118.45 297.639 118.646L307.51 136.114C307.565 136.212 307.548 136.335 307.468 136.415ZM297.203 118.892C297.137 118.775 297.039 118.677 296.922 118.61L207.71 67.6931L217.189 83.4294L306.62 135.556L297.203 118.892Z" fill="#07303A"/>
<path d="M202.276 119L103 177.876L202.276 234L301 177.876L202.276 119Z" fill="#07303A"/>
<path d="M202.21 118.759C202.275 118.741 202.345 118.75 202.404 118.785L301.128 177.661C301.204 177.707 301.251 177.789 301.25 177.878C301.249 177.967 301.201 178.049 301.124 178.093L202.399 234.218L202.275 233.999V234L202.399 234.218C202.323 234.261 202.229 234.261 202.152 234.218L102.877 178.093L102.824 178.054C102.778 178.008 102.751 177.945 102.75 177.878C102.749 177.789 102.796 177.706 102.872 177.66L202.148 118.785L202.21 118.759ZM103.498 177.87L202.274 233.712L300.503 177.869L202.274 119.29L103.498 177.87Z" fill="#07303A"/>
<path d="M207 67.0001L296.781 118.242C297.093 118.42 297.285 118.752 297.285 119.111L297.292 176.237L207.007 123.612L207 67.0001Z" fill="#2B545E"/>
<path d="M297.417 176.454C297.339 176.499 297.243 176.498 297.166 176.453L206.882 123.828L207.008 123.612H207.007L206.882 123.828C206.805 123.783 206.757 123.701 206.757 123.612L206.75 67.0001C206.75 66.911 206.798 66.829 206.875 66.7842C206.952 66.7395 207.047 66.7392 207.124 66.7833L296.905 118.025C297.295 118.248 297.535 118.662 297.535 119.11L297.542 176.237C297.542 176.327 297.494 176.41 297.417 176.454ZM297.035 119.11C297.035 118.841 296.891 118.592 296.657 118.459L207.251 67.4307L207.257 123.47L297.042 175.803L297.035 119.11Z" fill="#07303A"/>
<path d="M207.292 67.0001L117.511 118.242C117.199 118.42 117.007 118.752 117.007 119.111L117 176.237L207.285 123.612L207.292 67.0001Z" fill="#94B2C9"/>
<path d="M116.875 176.454C116.953 176.499 117.049 176.498 117.126 176.453L207.41 123.828L207.284 123.612H207.285L207.41 123.828C207.487 123.783 207.535 123.701 207.535 123.612L207.542 67.0001C207.542 66.911 207.494 66.829 207.417 66.7842C207.34 66.7395 207.245 66.7392 207.168 66.7833L117.387 118.025C116.997 118.248 116.757 118.662 116.757 119.11L116.75 176.237C116.75 176.327 116.798 176.41 116.875 176.454ZM117.257 119.11C117.257 118.841 117.401 118.592 117.635 118.459L207.041 67.4307L207.035 123.47L117.25 175.803L117.257 119.11Z" fill="#07303A"/>
<path d="M207.292 228.237L117.511 176.995C117.199 176.817 117.007 176.486 117.007 176.127L117 119L207.285 171.625L207.292 228.237Z" fill="#2B545E"/>
<path d="M116.875 118.783C116.953 118.739 117.049 118.739 117.126 118.784L207.41 171.409L207.284 171.625H207.285L207.41 171.409C207.487 171.454 207.535 171.536 207.535 171.625L207.542 228.237C207.542 228.326 207.494 228.408 207.417 228.453C207.34 228.498 207.245 228.498 207.168 228.454L117.387 177.212C116.997 176.989 116.757 176.575 116.757 176.127L116.75 119C116.75 118.911 116.798 118.828 116.875 118.783ZM117.257 176.127C117.257 176.396 117.401 176.645 117.635 176.778L207.041 227.807L207.035 171.768L117.25 119.435L117.257 176.127Z" fill="#07303A"/>
<path d="M207.292 206.237L117.511 154.995C117.199 154.817 117.007 154.486 117.007 154.127L117 119L207.285 171.625L207.292 206.237Z" fill="#07303A"/>
<path d="M116.875 118.783C116.953 118.739 117.049 118.739 117.126 118.784L207.41 171.409L207.284 171.625H207.285L207.41 171.409C207.487 171.454 207.535 171.536 207.535 171.625L207.542 206.237C207.542 206.326 207.494 206.408 207.417 206.453C207.34 206.498 207.245 206.498 207.168 206.454L117.387 155.212C116.997 154.989 116.757 154.575 116.757 154.127L116.75 119C116.75 118.911 116.798 118.828 116.875 118.783ZM117.257 154.127C117.257 154.396 117.401 154.645 117.635 154.778L207.041 205.807L207.035 171.768L117.25 119.435L117.257 154.127Z" fill="#07303A"/>
<path d="M197.291 198.237L107.737 147.124C107.315 146.883 107.127 146.374 107.292 145.916L117 119L207.284 171.625L197.291 198.237Z" fill="#2B545E"/>
<path d="M116.915 118.765C116.985 118.74 117.062 118.747 117.126 118.784L207.41 171.409L207.284 171.625L207.518 171.713L197.525 198.325L197.501 198.373C197.471 198.418 197.428 198.454 197.376 198.473C197.307 198.497 197.231 198.49 197.168 198.454L107.613 147.341C107.086 147.04 106.851 146.403 107.056 145.832L116.764 118.915L116.789 118.866C116.818 118.82 116.862 118.784 116.915 118.765ZM107.527 146.001C107.404 146.344 107.545 146.727 107.861 146.907L197.16 197.875L206.976 171.734L117.133 119.366L107.527 146.001ZM207.41 171.409C207.515 171.471 207.561 171.599 207.518 171.713L207.285 171.625L207.41 171.409Z" fill="#07303A"/>
<path d="M207 228.237L296.781 176.995C297.093 176.817 297.285 176.486 297.285 176.127L297.292 119L207.007 171.625L207 228.237Z" fill="#94B2C9"/>
<path d="M297.417 118.783C297.339 118.739 297.243 118.739 297.166 118.784L206.882 171.409L207.008 171.625H207.007L206.882 171.409C206.805 171.454 206.757 171.536 206.757 171.625L206.75 228.237C206.75 228.326 206.798 228.408 206.875 228.453C206.952 228.498 207.047 228.498 207.124 228.454L296.905 177.212C297.295 176.989 297.535 176.575 297.535 176.127L297.542 119C297.542 118.911 297.494 118.828 297.417 118.783ZM297.035 176.127C297.035 176.396 296.891 176.645 296.657 176.778L207.251 227.807L207.257 171.768L297.042 119.435L297.035 176.127Z" fill="#07303A"/>
<path d="M207 206.237L296.781 154.995C297.093 154.817 297.285 154.486 297.285 154.127L297.292 119L207.007 171.625L207 206.237Z" fill="#07303A"/>
<path d="M297.417 118.783C297.339 118.739 297.243 118.739 297.166 118.784L206.882 171.409C206.805 171.454 206.757 171.536 206.757 171.625L206.75 206.237C206.75 206.326 206.798 206.408 206.875 206.453C206.952 206.498 207.047 206.498 207.124 206.454L296.905 155.212C297.295 154.989 297.535 154.575 297.535 154.127L297.542 119C297.542 118.911 297.494 118.828 297.417 118.783ZM297.035 154.127C297.035 154.396 296.891 154.645 296.657 154.778L207.251 205.807L207.257 171.768L297.042 119.435L297.035 154.127Z" fill="#07303A"/>
<path d="M217 198.237L306.554 147.124C306.976 146.883 307.164 146.374 306.999 145.916L297.291 119L207.007 171.625L217 198.237Z" fill="#94B2C9"/>
<path d="M297.376 118.765C297.307 118.74 297.229 118.747 297.165 118.784L206.881 171.409L207.007 171.625L206.773 171.713L216.766 198.325L216.79 198.373C216.82 198.418 216.863 198.454 216.915 198.473C216.984 198.497 217.06 198.49 217.123 198.454L306.678 147.341C307.205 147.04 307.44 146.403 307.235 145.832L297.527 118.915L297.502 118.866C297.473 118.82 297.429 118.784 297.376 118.765ZM306.764 146.001C306.888 146.344 306.746 146.727 306.43 146.907L217.131 197.875L207.315 171.734L297.158 119.366L306.764 146.001ZM206.881 171.409C206.776 171.471 206.73 171.599 206.773 171.713L207.006 171.625L206.881 171.409Z" fill="#07303A"/>
<path d="M187.836 150.027L186.646 149.797L186.42 148.607L186.189 149.797L185 150.027L186.189 150.258L186.42 151.447L186.646 150.258L187.836 150.027Z" fill="#94B2C9"/>
<path d="M228.836 140.42L227.646 140.189L227.42 139L227.189 140.189L226 140.42L227.189 140.65L227.42 141.84L227.646 140.65L228.836 140.42Z" fill="#94B2C9"/>
<path d="M210.374 137.844L207.151 137.223L206.529 134L205.907 137.223L202.685 137.844L205.907 138.46L206.529 141.689L207.151 138.46L210.374 137.844Z" fill="#94B2C9"/>
<path d="M220.689 150.844L217.466 150.223L216.844 147L216.223 150.223L213 150.844L216.223 151.46L216.844 154.689L217.466 151.46L220.689 150.844Z" fill="#94B2C9"/>
<path d="M197 152.5C197 153.328 196.328 154 195.5 154C194.672 154 194 153.328 194 152.5C194 151.672 194.672 151 195.5 151C196.328 151 197 151.672 197 152.5Z" fill="#94B2C9"/>
<path d="M209 149C209 149.552 208.552 150 208 150C207.448 150 207 149.552 207 149C207 148.448 207.448 148 208 148C208.552 148 209 148.448 209 149Z" fill="#94B2C9"/>
<path d="M205 163.5C205 163.776 204.776 164 204.5 164C204.224 164 204 163.776 204 163.5C204 163.224 204.224 163 204.5 163C204.776 163 205 163.224 205 163.5Z" fill="#94B2C9"/>
<path d="M327.662 108.421C315.803 107.71 315.221 107.129 314.504 95.3301C313.787 107.129 313.205 107.71 301.339 108.421C313.205 109.131 313.787 109.713 314.504 121.512C315.221 109.713 315.803 109.131 327.662 108.421Z" fill="#94B2C9"/>
<path d="M314.503 121.858C314.679 121.858 314.828 121.716 314.842 121.54C315.545 109.944 316.026 109.464 327.682 108.767C327.858 108.754 328 108.612 328 108.429C328 108.246 327.858 108.104 327.682 108.091C316.026 107.387 315.545 106.914 314.842 95.318C314.828 95.1421 314.686 95 314.503 95C314.321 95 314.179 95.1421 314.165 95.318C313.462 106.914 312.981 107.394 301.318 108.091C301.142 108.104 301 108.246 301 108.429C301 108.612 301.142 108.754 301.318 108.767C312.981 109.471 313.462 109.944 314.165 121.54C314.179 121.716 314.321 121.858 314.503 121.858ZM323.21 108.422C316.702 109.106 315.187 110.614 314.503 117.102C313.82 110.614 312.305 109.106 305.79 108.422C312.305 107.739 313.82 106.224 314.503 99.7424C315.187 106.23 316.702 107.739 323.21 108.422Z" fill="#07303A"/>
</svg>
