<svg width="411" height="300" viewBox="0 0 411 300" fill="none" xmlns="http://www.w3.org/2000/svg">
<g clip-path="url(#clip0_2530_13337)">
<path d="M137.793 168.06L177.933 113.113C173.64 118.952 172.974 127.503 176.97 137.39C185.17 157.808 209.958 176.36 232.29 178.868C243.871 180.07 252.525 176.936 256.987 170.674L216.858 225.574C212.304 231.768 203.673 235.03 192.187 233.732C169.833 231.318 145.072 212.73 136.846 192.347C132.876 182.425 133.515 173.909 137.793 168.06Z" fill="#94B2C9"/>
<path d="M178.087 113.225L178.062 113.257C173.841 119.026 173.174 127.489 177.146 137.319L177.541 138.271C181.746 148.093 189.764 157.439 199.445 164.694C209.438 172.182 221.186 177.43 232.311 178.68L232.31 178.68C243.663 179.858 252.142 176.851 256.611 170.867L256.834 170.563L257.142 170.784C257.065 170.892 256.986 170.999 256.906 171.105L217.011 225.686C212.404 231.953 203.694 235.223 192.166 233.921L192.166 233.92C180.948 232.708 169.138 227.441 159.105 219.929C149.072 212.418 140.8 202.649 136.67 192.418L136.67 192.417C132.685 182.456 133.311 173.867 137.64 167.948L177.781 113.001L178.087 113.225ZM137.946 168.172C133.719 173.952 133.068 182.393 137.022 192.276L137.418 193.226C141.634 203.033 149.652 212.378 159.332 219.626C169.324 227.107 181.071 232.341 192.207 233.544L192.208 233.544C203.652 234.837 212.205 231.583 216.706 225.461L254.587 173.636C249.685 178.034 241.985 180.065 232.27 179.056L232.269 179.057C221.063 177.798 209.251 172.516 199.218 164.997C189.497 157.713 181.429 148.317 177.193 138.419L176.795 137.461C173.457 129.201 173.352 121.843 175.912 116.201L137.946 168.172Z" fill="#07303A"/>
<path d="M216.866 200.989C224.883 220.878 213.675 235.089 191.922 232.633C170.122 230.24 145.968 212.117 137.998 192.165C130.027 172.213 141.082 157.988 162.988 160.46C184.849 162.994 208.895 181.038 216.866 200.989Z" fill="#94B2C9"/>
<path d="M138.544 167.318C143.171 161.422 151.407 158.448 162.057 159.412L163.095 159.518L163.098 159.518L164.142 159.651C174.955 161.137 186.17 166.267 195.706 173.435C205.547 180.833 213.679 190.461 217.745 200.636L217.746 200.636C221.836 210.782 221.098 219.696 216.302 225.778C211.514 231.851 202.896 234.824 191.818 233.574L191.819 233.575C180.713 232.356 169.068 227.142 159.206 219.741C149.652 212.572 141.695 203.293 137.511 193.469L137.118 192.517C133.053 182.343 133.763 173.411 138.544 167.318ZM162.988 160.46C141.082 157.988 130.027 172.214 137.999 192.165C145.97 212.117 170.123 230.24 191.922 232.633C213.675 235.089 224.883 220.878 216.867 200.99C208.895 181.038 184.849 162.994 162.988 160.46Z" fill="#07303A"/>
<path d="M187.214 191.259C183.725 200.922 175.137 201.853 167.999 193.359C160.845 184.882 157.889 170.139 161.376 160.474C164.848 150.828 173.463 149.89 180.611 158.394C187.759 166.898 190.696 181.623 187.224 191.269L187.214 191.259Z" fill="#94B2C9"/>
<path d="M164.149 155.069C165.536 153.612 167.184 152.682 169.016 152.355C172.874 151.667 177.198 153.785 180.881 158.163C188.075 166.724 191.069 181.625 187.556 191.385C187.545 191.417 187.531 191.443 187.512 191.47C185.865 195.959 183.042 198.768 179.56 199.388C175.714 200.071 171.402 197.954 167.726 193.582C160.513 185.037 157.513 170.129 161.042 160.352C161.821 158.185 162.877 156.404 164.149 155.069ZM186.922 191.056C190.308 181.507 187.366 166.981 180.338 158.621C176.823 154.438 172.741 152.41 169.139 153.052C165.888 153.631 163.249 156.31 161.706 160.593C158.253 170.16 161.196 184.757 168.267 193.13C171.774 197.304 175.845 199.333 179.436 198.693C182.684 198.117 185.327 195.433 186.879 191.138C186.891 191.108 186.904 191.081 186.922 191.056Z" fill="#07303A"/>
<path d="M180.109 198.885L174.13 200.475C170.381 201.458 165.973 199.642 162.013 194.91C154.865 186.406 151.901 171.688 155.39 162.025C156.92 157.736 159.481 155.172 162.481 154.386L168.444 152.813C165.455 153.609 162.908 156.155 161.352 160.451C157.881 170.099 160.854 184.824 167.975 193.336C171.937 198.069 176.359 199.866 180.109 198.885Z" fill="#07303A"/>
<path d="M158.157 156.629C159.384 155.341 160.812 154.461 162.39 154.045L168.352 152.474C168.539 152.425 168.734 152.538 168.783 152.725C168.833 152.915 168.718 153.107 168.533 153.155C165.517 153.958 163.146 156.527 161.681 160.57C158.257 170.093 161.2 184.69 168.244 193.108C171.96 197.547 176.251 199.53 180.018 198.542C180.205 198.492 180.399 198.605 180.449 198.792C180.498 198.982 180.383 199.175 180.198 199.222L174.218 200.812C170.191 201.869 165.644 199.797 161.739 195.134C154.534 186.56 151.535 171.654 155.055 161.904C155.825 159.747 156.881 157.966 158.157 156.625L158.157 156.629ZM165.252 154.021L162.569 154.728C159.578 155.512 157.145 158.149 155.719 162.145C152.275 171.685 155.218 186.282 162.282 194.683C166.004 199.13 170.289 201.118 174.039 200.133L176.784 199.404C173.71 198.958 170.535 196.943 167.703 193.561C160.517 184.97 157.518 170.064 161.019 160.331C162.032 157.533 163.47 155.402 165.252 154.021Z" fill="#07303A"/>
<path d="M162.01 194.91C162.879 195.962 163.809 196.844 164.696 197.622L170.676 196.032C169.744 195.277 168.84 194.387 167.971 193.335C166.998 192.184 166.116 190.893 165.309 189.543L159.346 191.116C160.152 192.466 161.034 193.757 162.01 194.91Z" fill="#2B545E"/>
<path d="M159.09 190.874C159.134 190.828 159.191 190.791 159.255 190.775L165.217 189.204C165.37 189.163 165.529 189.231 165.609 189.365C166.482 190.823 167.343 192.048 168.239 193.11C169.062 194.108 169.955 194.998 170.896 195.761C170.999 195.843 171.046 195.978 171.019 196.109C170.993 196.236 170.892 196.341 170.766 196.374L164.787 197.964C164.672 197.995 164.552 197.965 164.463 197.887C163.76 197.272 162.715 196.316 161.737 195.138C160.812 194.043 159.929 192.786 159.042 191.296C158.987 191.2 158.977 191.084 159.019 190.982C159.037 190.94 159.059 190.906 159.09 190.874ZM165.141 189.952L159.891 191.336C160.678 192.618 161.462 193.715 162.279 194.682C163.162 195.744 164.11 196.628 164.786 197.231L169.931 195.863C169.146 195.177 168.398 194.402 167.701 193.555C166.827 192.525 165.989 191.341 165.143 189.95L165.141 189.952Z" fill="#07303A"/>
<path d="M161.818 181.721L155.856 183.295C156.263 184.622 156.775 185.919 157.322 187.184L163.3 185.593C162.755 184.329 162.251 183.04 161.818 181.721Z" fill="#2B545E"/>
<path d="M155.599 183.051C155.642 183.005 155.7 182.969 155.764 182.952L161.725 181.379C161.905 181.333 162.092 181.433 162.15 181.611C162.551 182.828 163.034 184.085 163.623 185.455C163.664 185.549 163.662 185.657 163.617 185.748C163.567 185.842 163.488 185.911 163.391 185.935L157.412 187.526C157.244 187.571 157.065 187.485 156.996 187.326C156.347 185.824 155.879 184.575 155.516 183.401C155.488 183.307 155.498 183.208 155.547 183.126C155.561 183.1 155.577 183.077 155.599 183.054L155.599 183.051ZM161.586 182.146L156.3 183.542C156.613 184.517 157.009 185.558 157.523 186.765L162.811 185.359C162.335 184.229 161.93 183.173 161.584 182.148L161.586 182.146Z" fill="#07303A"/>
<path d="M159.577 220.69C149.186 213.074 140.588 203.054 136.35 192.547C132.445 182.788 132.804 173.978 137.358 167.742L177.437 112.883L177.5 112.797L178.368 113.43L178.305 113.515C173.995 119.455 173.694 127.856 177.466 137.189C185.582 157.387 210.199 175.848 232.352 178.338C243.272 179.468 251.759 176.758 256.307 170.697L256.552 170.357L257.425 170.984L257.167 171.334L217.29 225.888C212.45 232.472 203.279 235.523 192.124 234.263C181.137 233.076 169.533 227.988 159.576 220.689L159.577 220.69ZM174.677 118.48L138.226 168.375C133.895 174.303 133.58 182.744 137.344 192.147C145.513 212.397 170.146 230.812 192.246 233.199C203.008 234.416 211.818 231.518 216.424 225.256L252.815 175.471C247.785 178.896 240.709 180.281 232.237 179.402C209.725 176.87 184.713 158.115 176.471 137.588C173.616 130.524 173.027 123.947 174.677 118.48Z" fill="#07303A"/>
<path opacity="0.4" d="M179.829 143.219C178.747 141.299 177.76 139.357 176.969 137.389C172.974 127.502 173.64 118.951 177.932 113.112L137.793 168.059C133.516 173.909 132.874 182.424 136.845 192.346C137.859 194.863 139.131 197.35 140.615 199.783L179.829 143.219Z" fill="#94B2C9"/>
<path opacity="0.4" d="M178.086 113.224C173.844 118.993 173.165 127.47 177.145 137.318L177.45 138.051C178.179 139.759 179.049 141.45 179.994 143.126L180.053 143.23L179.986 143.327L140.605 200.13L140.453 199.881C138.965 197.44 137.688 194.945 136.67 192.417C132.684 182.457 133.313 173.867 137.64 167.947L177.78 113L178.086 113.224ZM137.946 168.171C133.72 173.952 133.066 182.393 137.021 192.275L137.412 193.213C138.314 195.314 139.395 197.391 140.626 199.433L179.606 143.207C178.679 141.558 177.823 139.889 177.101 138.2L176.794 137.46C173.456 129.2 173.351 121.842 175.911 116.2L137.946 168.171Z" fill="#07303A"/>
<path d="M140.587 200.765L140.159 200.062C138.628 197.556 137.348 195.028 136.349 192.547C132.444 182.788 132.802 173.978 137.359 167.741L177.437 112.883L177.5 112.797L178.368 113.43L178.305 113.515C173.995 119.455 173.694 127.856 177.466 137.189C178.169 138.941 179.098 140.828 180.296 142.957L180.462 143.249L180.272 143.525L140.587 200.765ZM174.677 118.48L138.228 168.374C133.896 174.301 133.581 182.745 137.345 192.147C138.227 194.34 139.339 196.573 140.649 198.795L179.198 143.19C178.056 141.139 177.162 139.305 176.472 137.588C173.617 130.524 173.026 123.947 174.677 118.48Z" fill="#07303A"/>
<path d="M266.242 157.407C265.966 157.972 265.67 158.577 265.356 159.004C264.856 159.843 264.002 161.133 263.388 161.999C263.337 162.071 263.285 162.143 263.233 162.214C263.18 162.286 263.127 162.356 263.074 162.426L263.1 162.391C262.228 163.542 262.219 163.553 263.074 162.426L256.976 170.721C252.422 176.915 243.807 180.189 232.279 178.915C209.947 176.407 185.159 157.854 176.959 137.436C173.005 127.526 173.614 118.987 177.933 113.113L184.319 104.427C185.362 103.055 186.475 101.735 187.631 100.499C188.422 99.71 189.692 98.5592 190.275 98.0542C190.884 97.5147 191.689 96.8997 192.317 96.428C193.286 95.7135 194.303 95.0345 195.341 94.4265C195.781 94.1469 196.342 93.8453 196.862 93.5691C197.123 93.4321 197.381 93.2922 197.599 93.1784C198.735 92.5869 199.9 92.0712 201.09 91.6285C202.347 91.1258 203.598 90.727 204.892 90.361C205.405 90.1889 206.03 90.045 206.637 89.8873C206.934 89.8305 207.226 89.7709 207.497 89.696C208.942 89.3855 210.407 89.1443 211.862 89.0059C213.726 88.7838 215.565 88.7062 217.425 88.7003C218.973 88.7389 221.1 88.8196 222.63 89.0094C223.488 89.0908 224.319 89.207 225.474 89.3959L225.482 89.4024C226.61 89.6259 228.155 89.8815 229.284 90.1615C230.878 90.6174 233.003 91.2441 234.575 91.7933C235.207 91.9827 235.938 92.2994 236.63 92.5879C236.972 92.7285 237.305 92.8626 237.609 92.9766C238.889 93.4754 241.515 94.7981 242.601 95.4304C242.729 95.4685 242.837 95.5479 242.95 95.631C243.636 95.9702 244.439 96.4487 244.955 96.7713C245.127 96.8977 245.358 97.0125 245.576 97.1721C246.118 97.515 246.734 97.9113 247.142 98.2102L249.25 99.7555C250.519 100.686 252.095 102.06 253.27 103.086C253.771 103.507 254.421 104.148 254.994 104.679C255.077 104.739 255.132 104.835 255.211 104.892C255.805 105.491 256.571 106.272 257.124 106.896C258.183 108.111 259.565 109.782 260.556 111.056C261.117 111.796 261.775 112.662 262.319 113.553C262.889 114.409 263.73 115.792 264.131 116.525C264.534 117.258 265.081 118.208 265.442 118.964C266.04 120.006 266.705 121.534 267.194 122.659L267.2 122.718C267.762 124.282 268.535 126.326 268.95 127.946C269.197 128.729 269.431 129.723 269.63 130.635C269.776 131.4 269.945 132.346 270.069 133.203C270.102 133.391 270.132 133.577 270.156 133.759C270.36 135.224 270.491 136.69 270.546 138.154C270.551 139.747 270.509 141.852 270.381 143.402C270.049 146.829 269.287 150.16 268.034 153.406C267.636 154.538 267.144 155.657 266.583 156.724C266.479 156.922 266.36 157.164 266.241 157.405L266.242 157.407Z" fill="#94B2C9"/>
<path d="M207.458 89.5111C208.908 89.1994 210.38 88.9561 211.844 88.8169L211.843 88.818C213.481 88.623 215.098 88.5387 216.726 88.5168L217.425 88.5104L217.43 88.5106L218.683 88.5487C220.008 88.5967 221.499 88.6778 222.654 88.8211L222.653 88.8213C223.299 88.8827 223.93 88.9633 224.692 89.0796L225.504 89.209L225.549 89.216L225.56 89.2242C226.533 89.4161 227.827 89.6353 228.886 89.873L229.329 89.978L229.336 89.9789L230.615 90.3499C231.957 90.7437 233.447 91.199 234.629 91.6116L235.129 91.778C235.642 91.9634 236.188 92.1982 236.703 92.4129L236.702 92.4131C236.873 92.4832 237.041 92.5509 237.204 92.6158L237.675 92.7993L237.677 92.8L238.22 93.0241C239.597 93.6212 241.72 94.6996 242.683 95.2582C242.829 95.308 242.951 95.3971 243.051 95.4704C243.568 95.7268 244.146 96.0574 244.619 96.3426L245.055 96.6106L245.067 96.6177L244.954 96.7713L245.067 96.6186C245.145 96.6756 245.237 96.7311 245.346 96.7971C245.449 96.8595 245.564 96.9302 245.677 97.0122L246.513 97.5489C246.788 97.7297 247.047 97.906 247.254 98.0577L249.362 99.6028C250.638 100.538 252.218 101.917 253.391 102.941L253.392 102.941C253.897 103.365 254.557 104.017 255.123 104.54L255.122 104.54C255.175 104.582 255.218 104.628 255.246 104.661L255.321 104.738L255.335 104.747L255.345 104.758C255.79 105.208 256.336 105.761 256.815 106.275L257.265 106.771L257.266 106.772L258.112 107.757C258.701 108.453 259.327 109.209 259.899 109.921L260.705 110.94L260.708 110.942L261.143 111.519C261.59 112.117 262.065 112.775 262.477 113.448L262.946 114.173C263.444 114.961 263.994 115.88 264.297 116.434L264.968 117.645C265.199 118.066 265.426 118.492 265.607 118.87L265.836 119.285C266.376 120.301 266.941 121.601 267.367 122.584L267.379 122.609L267.382 122.639L267.386 122.676C267.944 124.227 268.714 126.266 269.131 127.888L269.316 128.517C269.436 128.956 269.552 129.429 269.66 129.899L269.816 130.595L269.817 130.6L270.044 131.852C270.12 132.293 270.194 132.745 270.256 133.175C270.289 133.363 270.319 133.549 270.343 133.732L270.344 133.733C270.549 135.204 270.681 136.676 270.736 138.147L270.736 138.153C270.741 139.748 270.698 141.86 270.57 143.418L270.57 143.42C270.237 146.862 269.47 150.207 268.212 153.468L268.213 153.468C267.812 154.61 267.315 155.737 266.75 156.811L266.751 156.812C266.661 156.985 266.557 157.192 266.453 157.404L266.454 157.406L266.413 157.491C266.139 158.05 265.835 158.673 265.509 159.116C265.005 159.961 264.155 161.246 263.543 162.109L263.542 162.109C263.491 162.181 263.438 162.254 263.385 162.327C263.332 162.399 263.279 162.47 263.225 162.541L257.128 170.833C252.521 177.1 243.828 180.382 232.258 179.104L232.258 179.103C221.051 177.844 209.24 172.563 199.206 165.044C189.486 157.759 181.418 148.364 177.181 138.466L176.783 137.507C172.814 127.558 173.41 118.944 177.78 113L184.167 104.315L184.192 104.279L184.193 104.28C185.233 102.915 186.341 101.6 187.492 100.37L187.497 100.365L188.165 99.7182C188.886 99.0351 189.712 98.2911 190.151 97.9109C190.766 97.366 191.576 96.7475 192.203 96.2763L192.204 96.2752L192.944 95.7439C193.691 95.2203 194.462 94.7214 195.246 94.2626C195.692 93.9795 196.256 93.6765 196.773 93.4021L196.773 93.401L197.512 93.0102L197.942 92.7911C198.948 92.287 199.976 91.8408 201.024 91.451C201.971 91.0723 202.915 90.7527 203.874 90.4618L204.84 90.1783C205.36 90.0046 205.994 89.8582 206.59 89.7034L206.602 89.7007L207.037 89.6132C207.178 89.5825 207.315 89.5501 207.447 89.5137L207.458 89.5102L207.458 89.5111ZM211.88 89.1947C210.434 89.3322 208.975 89.5721 207.537 89.8813L207.536 89.8805C207.261 89.9557 206.968 90.0156 206.676 90.0716C206.064 90.2304 205.455 90.3719 204.953 90.5403L204.944 90.5438C203.654 90.9087 202.409 91.3052 201.161 91.8044L201.157 91.8061C200.121 92.1912 199.105 92.6318 198.111 93.1297L197.687 93.3469C197.464 93.4629 197.219 93.5945 196.949 93.7356L196.95 93.7364C196.43 94.013 195.876 94.3111 195.444 94.586L195.437 94.5899C194.406 95.1939 193.394 95.8678 192.429 96.5785L192.431 96.5793C191.802 97.0512 191.004 97.6618 190.401 98.1956L190.399 98.1978C189.819 98.701 188.552 99.8479 187.765 100.633C186.615 101.862 185.509 103.177 184.47 104.542L178.086 113.225C173.818 119.029 173.196 127.493 177.135 137.366L177.53 138.318C181.734 148.14 189.752 157.485 199.433 164.74C209.426 172.229 221.175 177.477 232.3 178.727L233.368 178.832C244.315 179.788 252.463 176.539 256.823 170.609L262.285 163.179C262.283 163.169 262.28 163.161 262.282 163.158C262.283 163.156 262.285 163.152 262.285 163.152L262.287 163.15L262.297 163.137C262.303 163.129 262.313 163.116 262.326 163.099L262.444 162.943L262.95 162.276C262.993 162.219 263.036 162.161 263.08 162.102L263.234 161.889C263.845 161.026 264.697 159.74 265.193 158.907L265.203 158.892C265.49 158.502 265.764 157.951 266.03 157.408L266.029 157.406L266.071 157.321C266.19 157.081 266.31 156.837 266.415 156.636L266.415 156.635L266.62 156.236C267.093 155.299 267.51 154.325 267.855 153.343L267.857 153.337L268.086 152.731C269.197 149.694 269.882 146.582 270.192 143.384C270.319 141.842 270.361 139.745 270.357 138.155C270.302 136.699 270.172 135.242 269.968 133.786L269.968 133.784L269.882 133.236L269.781 132.577C269.675 131.918 269.554 131.247 269.445 130.676L269.29 129.982C269.13 129.284 268.953 128.584 268.769 128.003L268.767 127.993C268.354 126.384 267.586 124.352 267.022 122.783L267.014 122.761L267.012 122.739L267.008 122.708C266.519 121.582 265.865 120.081 265.278 119.059L265.274 119.053L265.271 119.046C265.092 118.671 264.868 118.248 264.637 117.827L263.965 116.616C263.567 115.889 262.729 114.51 262.162 113.658L262.157 113.652L262.157 113.651C261.619 112.771 260.968 111.914 260.406 111.173L259.602 110.158C258.748 109.096 257.774 107.93 256.981 107.021L256.98 107.02C256.432 106.401 255.67 105.625 255.076 105.025L255.076 105.024C255.028 104.985 254.988 104.942 254.962 104.912C254.926 104.871 254.904 104.847 254.882 104.831L254.873 104.825L254.866 104.818C254.285 104.28 253.645 103.648 253.148 103.231L253.146 103.228C251.969 102.201 250.399 100.833 249.138 99.9088L247.03 98.3628C246.628 98.0683 246.018 97.6751 245.475 97.3317L245.463 97.3256L245.464 97.3245C245.363 97.2503 245.257 97.1861 245.15 97.1216C245.05 97.0613 244.946 96.9981 244.854 96.9319L244.422 96.6671C243.95 96.3822 243.374 96.0526 242.866 95.8012L242.852 95.7935L242.839 95.7837C242.72 95.6969 242.638 95.6391 242.547 95.6119L242.526 95.6054L242.506 95.5945C241.425 94.9657 238.808 93.6474 237.54 93.153L237.54 93.1521C237.233 93.0373 236.899 92.9035 236.558 92.7631L236.557 92.7633C235.86 92.4725 235.141 92.1608 234.521 91.975L234.512 91.9723C232.949 91.4258 230.831 90.8013 229.238 90.3456L228.799 90.242C227.738 90.0038 226.441 89.7858 225.446 89.5884L225.404 89.58L225.397 89.5751C224.269 89.3911 223.453 89.2777 222.613 89.1979L222.607 89.1978C221.089 89.0095 218.973 88.9283 217.426 88.8896L216.731 88.8954C215.112 88.9171 213.508 89.0006 211.885 89.1939L211.88 89.1947Z" fill="#07303A"/>
<path d="M199.723 165.834C189.298 158.193 180.685 148.148 176.463 137.636C172.555 127.845 172.923 119.023 177.502 112.796L183.889 104.109L184.016 104.195L183.894 104.103C184.962 102.701 186.088 101.366 187.237 100.132C188.031 99.3407 189.306 98.1839 189.925 97.649C190.565 97.0845 191.414 96.4367 191.996 95.9981C193.021 95.2463 194.052 94.5617 195.071 93.9654C195.506 93.6866 196.08 93.3767 196.615 93.0965L197.36 92.702C198.486 92.1128 199.682 91.5819 200.908 91.1267C202.036 90.6761 203.26 90.2659 204.747 89.8448C205.11 89.7219 205.56 89.6101 206.015 89.4923L206.504 89.3703C206.823 89.3074 207.098 89.2521 207.355 89.1786C208.939 88.8388 210.428 88.6026 211.813 88.4741C213.526 88.2699 215.313 88.1714 217.426 88.1661C219.711 88.2209 221.482 88.3274 222.696 88.4774C223.51 88.5534 224.321 88.6631 225.562 88.8657L225.707 88.8994C226.025 88.9615 226.376 89.0265 226.737 89.0942C227.644 89.2616 228.63 89.4457 229.417 89.642C231.714 90.2982 233.505 90.8497 234.755 91.2858C235.319 91.4552 235.975 91.7301 236.609 91.9968L236.841 92.0932C237.173 92.2308 237.499 92.3642 237.8 92.4735C239.165 93.0072 241.817 94.3521 242.873 94.9674C242.972 94.9793 243.138 95.1013 243.27 95.1981C244.033 95.5674 244.973 96.1497 245.243 96.3197C245.342 96.391 245.424 96.4377 245.508 96.4886C245.634 96.5654 245.765 96.6447 245.895 96.7402C246.418 97.0702 247.045 97.4727 247.461 97.7783L249.571 99.325C250.857 100.267 252.456 101.662 253.621 102.68C253.963 102.968 254.382 103.364 254.796 103.756L255.362 104.287C255.407 104.314 255.467 104.386 255.509 104.434C256.195 105.121 256.97 105.911 257.527 106.542C258.607 107.777 259.995 109.458 260.984 110.728C261.588 111.526 262.232 112.376 262.78 113.275C263.336 114.108 264.193 115.516 264.605 116.269L264.931 116.857C265.276 117.477 265.656 118.161 265.931 118.736C266.534 119.783 267.229 121.387 267.687 122.448L267.946 123.198C268.491 124.694 269.107 126.39 269.471 127.814C269.674 128.456 269.903 129.352 270.158 130.525C270.308 131.31 270.478 132.263 270.602 133.131C270.633 133.307 270.664 133.5 270.689 133.689C270.898 135.177 271.03 136.676 271.082 138.136C271.085 138.891 271.084 141.455 270.917 143.448C270.573 146.985 269.772 150.4 268.536 153.601C268.14 154.722 267.642 155.865 267.058 156.977C266.96 157.169 266.839 157.404 266.726 157.642C266.448 158.209 266.134 158.853 265.789 159.323C265.28 160.181 264.41 161.487 263.829 162.312L257.411 171.042C252.503 177.717 243.556 180.703 232.22 179.451C221.237 178.217 209.66 173.121 199.722 165.837L199.723 165.834ZM184.752 104.749L178.369 113.431C174.018 119.348 173.694 127.804 177.459 137.236C185.571 157.439 210.189 175.892 232.34 178.385C243.278 179.591 251.874 176.758 256.545 170.403L262.328 162.527C262.433 162.39 262.544 162.238 262.672 162.072L262.958 161.682C263.509 160.904 264.378 159.598 264.895 158.729C265.211 158.293 265.505 157.7 265.762 157.174C265.882 156.928 266.004 156.68 266.108 156.48C266.669 155.41 267.147 154.318 267.532 153.229C268.739 150.104 269.516 146.785 269.85 143.351C269.959 142.043 270.02 140.098 270.013 138.159C269.96 136.746 269.83 135.286 269.628 133.835C269.602 133.659 269.577 133.482 269.543 133.298C269.418 132.431 269.254 131.495 269.109 130.738C268.86 129.608 268.643 128.744 268.44 128.107C268.08 126.706 267.473 125.036 266.937 123.562L266.669 122.767C266.254 121.834 265.573 120.264 264.98 119.233C264.694 118.639 264.327 117.978 263.993 117.378L263.664 116.782C263.263 116.051 262.429 114.681 261.876 113.849C261.346 112.98 260.717 112.151 260.165 111.423C259.159 110.13 257.784 108.467 256.719 107.247C256.179 106.633 255.418 105.861 254.832 105.267C254.813 105.264 254.753 105.197 254.707 105.143L254.06 104.532C253.661 104.156 253.258 103.773 252.926 103.495C251.763 102.479 250.186 101.102 248.937 100.186L246.827 98.6395C246.427 98.3463 245.824 97.9603 245.29 97.6205C245.159 97.527 245.053 97.4646 244.954 97.4048C244.84 97.3359 244.732 97.2702 244.64 97.2024C244.414 97.0624 243.509 96.5027 242.713 96.1078C242.57 96.0126 242.49 95.9525 242.45 95.9411C241.3 95.2906 238.688 93.9685 237.418 93.4742C237.114 93.3585 236.779 93.2246 236.43 93.0808L236.194 92.9835C235.585 92.7275 234.956 92.4633 234.421 92.3027C233.167 91.8655 231.399 91.3193 229.138 90.6723C228.39 90.4875 227.426 90.3088 226.539 90.1435C226.128 90.0669 225.735 89.9953 225.38 89.9231L225.263 89.9C224.118 89.7141 223.357 89.6125 222.579 89.5397C221.381 89.3907 219.65 89.2894 217.414 89.2332C215.357 89.2395 213.608 89.3331 211.927 89.535C210.569 89.662 209.122 89.8925 207.611 90.2168C207.356 90.2873 207.05 90.35 206.74 90.4115L206.277 90.5287C205.85 90.6388 205.426 90.7457 205.059 90.8665C203.588 91.2842 202.399 91.6823 201.291 92.1228C200.097 92.5688 198.941 93.0803 197.85 93.6519L197.113 94.0417C196.603 94.3102 196.059 94.6032 195.629 94.8761C194.628 95.4662 193.624 96.13 192.635 96.858C192.07 97.279 191.247 97.9099 190.631 98.4532C190.02 98.9834 188.773 100.115 188.009 100.877C186.896 102.067 185.796 103.374 184.751 104.747L184.752 104.749Z" fill="#07303A"/>
<path opacity="0.4" d="M256.877 106.633C256.354 106.06 255.728 105.413 255.212 104.893C255.133 104.835 255.079 104.739 254.996 104.679C254.422 104.149 253.772 103.508 253.271 103.088C252.097 102.061 250.521 100.687 249.252 99.7566L247.143 98.2113C246.735 97.9116 246.119 97.5162 245.577 97.1731C245.36 97.0135 245.128 96.8998 244.956 96.7734C244.441 96.4498 243.638 95.9704 242.952 95.6312C242.839 95.5481 242.73 95.4687 242.602 95.4316C241.516 94.7983 238.889 93.4776 237.609 92.9788C237.305 92.8638 236.974 92.7296 236.632 92.589C235.939 92.3006 235.209 91.9846 234.575 91.7963C233.004 91.2462 230.878 90.6196 229.285 90.1627C228.155 89.8828 226.61 89.6281 225.482 89.4037L225.474 89.3972C224.318 89.2085 223.488 89.0922 222.629 89.0117C221.1 88.821 218.972 88.7412 217.424 88.7027C215.563 88.7086 213.725 88.7844 211.861 89.0074C210.405 89.1467 208.941 89.387 207.497 89.6975C207.224 89.7733 206.933 89.8328 206.637 89.8887C206.029 90.0474 205.404 90.1913 204.891 90.3634C203.597 90.7285 202.346 91.1282 201.089 91.6299C199.898 92.0728 198.734 92.5884 197.599 93.1798C197.38 93.2945 197.122 93.4345 196.861 93.5706C196.34 93.8469 195.78 94.1484 195.339 94.4291C194.301 95.038 193.285 95.7159 192.314 96.4305C191.686 96.9014 190.882 97.5154 190.273 98.0558C189.691 98.5598 188.421 99.7106 187.63 100.5C186.473 101.736 185.361 103.056 184.318 104.429L177.932 113.114C173.614 118.988 173.004 127.526 176.957 137.438C177.746 139.4 178.73 141.335 179.807 143.251L182.016 140.066C202.626 107.127 233.69 96.2865 256.876 106.634L256.877 106.633Z" fill="#94B2C9"/>
<path opacity="0.4" d="M208.548 89.2922C209.643 89.0862 210.745 88.9238 211.843 88.8187L211.842 88.8198C213.246 88.652 214.635 88.5661 216.027 88.5318L217.423 88.5133L217.428 88.5135L218.681 88.5507C220.005 88.5983 221.492 88.6796 222.646 88.823C223.295 88.8838 223.928 88.965 224.691 89.0814L225.504 89.2097L225.549 89.2177L225.56 89.2258C226.533 89.4184 227.827 89.6373 228.886 89.8747L229.33 89.9786L229.337 89.9804L230.615 90.3516C231.957 90.7457 233.447 91.2012 234.628 91.6144C235.274 91.8061 236.016 92.1277 236.703 92.4136L237.677 92.8018L237.678 92.8026L238.22 93.0268C239.6 93.6244 241.728 94.7032 242.688 95.262C242.834 95.3116 242.955 95.3985 243.053 95.4709C243.57 95.7273 244.148 96.0581 244.621 96.344L245.056 96.6131L245.068 96.6202L245.348 96.7986C245.451 96.8607 245.566 96.9306 245.679 97.0126L246.514 97.5505C246.789 97.731 247.048 97.9061 247.256 98.0582L249.364 99.6041C250.64 100.539 252.221 101.917 253.392 102.942C253.897 103.366 254.559 104.017 255.125 104.54C255.178 104.582 255.22 104.629 255.248 104.662L255.324 104.74L255.336 104.749L255.346 104.759C255.864 105.28 256.492 105.929 257.018 106.504L257.122 106.62L256.939 106.87L256.799 106.808C233.728 96.5113 202.756 107.277 182.177 140.166L182.172 140.174L179.791 143.607L179.642 143.344C178.697 141.663 177.823 139.966 177.088 138.247L176.781 137.509C172.813 127.559 173.41 118.945 177.78 113.002L184.168 104.314L184.563 103.8C185.494 102.607 186.475 101.457 187.491 100.371L187.496 100.366L188.165 99.7189C188.886 99.0361 189.711 98.2923 190.149 97.9129C190.764 97.367 191.573 96.7488 192.201 96.2784L192.203 96.2781L192.942 95.7468C193.441 95.3979 193.949 95.0603 194.465 94.7377L195.243 94.2657C195.691 93.9814 196.255 93.6776 196.773 93.4028L197.511 93.012L197.941 92.792C198.947 92.2879 199.975 91.8417 201.023 91.4519C202.284 90.9487 203.538 90.5485 204.831 90.1833L205.241 90.0572C205.669 89.9348 206.14 89.8226 206.589 89.7053L206.602 89.7024L207.036 89.6151C207.177 89.5844 207.314 89.5513 207.446 89.5146L207.457 89.512L208.548 89.2922ZM211.879 89.1965C210.432 89.335 208.975 89.5729 207.537 89.882C207.262 89.9582 206.97 90.0178 206.678 90.073C206.064 90.2332 205.455 90.3745 204.951 90.5433L204.942 90.5457C203.653 90.9096 202.409 91.3078 201.16 91.8063L201.156 91.808C199.972 92.2481 198.814 92.7591 197.686 93.3468L197.687 93.3476C197.475 93.4588 197.206 93.6031 196.948 93.7375L196.95 93.7383C196.428 94.0149 195.875 94.313 195.441 94.5891L195.436 94.5928C194.404 95.198 193.393 95.8724 192.427 96.5835L192.426 96.5827C191.798 97.0536 191.001 97.6635 190.399 98.1976L190.398 98.1989C189.818 98.701 188.551 99.8487 187.764 100.634C186.614 101.864 185.508 103.178 184.469 104.544L178.085 113.227C173.818 119.03 173.195 127.494 177.133 137.368L177.437 138.098C178.126 139.71 178.941 141.306 179.825 142.892L181.855 139.965C202.251 107.369 232.912 96.3256 256.118 106.1C255.763 105.726 255.4 105.351 255.077 105.026C255.029 104.987 254.989 104.942 254.963 104.912C254.927 104.871 254.906 104.848 254.884 104.832L254.875 104.825L254.867 104.818C254.286 104.28 253.645 103.65 253.149 103.234L253.146 103.23C251.971 102.202 250.401 100.833 249.14 99.9092L247.032 98.3642C246.629 98.069 246.018 97.677 245.476 97.3332L245.465 97.326C245.364 97.2522 245.259 97.1871 245.152 97.123C245.052 97.0628 244.947 97.0001 244.854 96.9335L244.423 96.6677C243.951 96.3823 243.376 96.0519 242.868 95.8006L242.853 95.794L242.841 95.7841C242.722 95.6971 242.64 95.6395 242.55 95.6133L242.527 95.6069L242.507 95.5951C241.427 94.9654 238.808 93.65 237.54 93.1557C237.235 93.04 236.901 92.9049 236.56 92.7645L236.559 92.7637C235.861 92.473 235.143 92.1623 234.521 91.9776L234.513 91.9749C232.947 91.4269 230.826 90.802 229.233 90.3452C228.109 90.0672 226.582 89.8152 225.446 89.5891L225.404 89.5817L225.398 89.5766C224.269 89.3926 223.454 89.2796 222.612 89.2007L222.606 89.1996C221.088 89.0105 218.973 88.9311 217.424 88.8926L216.036 88.9108C214.652 88.9449 213.275 89.0294 211.884 89.1958L211.879 89.1965Z" fill="#07303A"/>
<path d="M179.759 144.259L179.342 143.514C178.121 141.341 177.178 139.419 176.462 137.637C172.555 127.845 172.924 119.021 177.501 112.795L183.888 104.109C184.961 102.702 186.086 101.366 187.237 100.13C188.035 99.3411 189.305 98.184 189.924 97.6483C190.568 97.078 191.413 96.435 191.993 95.9994C193.018 95.2476 194.049 94.563 195.069 93.9657C195.504 93.6869 196.076 93.3782 196.614 93.0958L197.352 92.7049C198.476 92.1169 199.673 91.586 200.906 91.1279C202.034 90.6773 203.258 90.267 204.745 89.846C205.108 89.723 205.558 89.6113 206.013 89.4935L206.502 89.3714C206.821 89.3085 207.096 89.2533 207.353 89.1798C208.932 88.839 210.421 88.6045 211.813 88.4733C213.512 88.2703 215.299 88.1718 217.425 88.1663C219.709 88.2211 221.481 88.3276 222.695 88.4776C223.61 88.5625 224.505 88.6951 225.561 88.8658L225.705 88.8996C226.024 88.9617 226.375 89.0266 226.736 89.0944C227.643 89.2618 228.628 89.4459 229.416 89.6422C231.717 90.2996 233.506 90.8513 234.753 91.2878C235.321 91.4574 235.976 91.7324 236.613 91.9981L236.841 92.0941C237.177 92.232 237.504 92.3644 237.804 92.4799C239.084 92.9768 241.703 94.2849 242.873 94.9673C242.971 94.981 243.137 95.1024 243.27 95.1998C243.992 95.5483 244.893 96.1018 245.242 96.3215C245.342 96.3927 245.424 96.4395 245.508 96.4904C245.633 96.5672 245.765 96.6465 245.895 96.7419C246.418 97.072 247.045 97.4745 247.461 97.7801L249.571 99.3268C250.857 100.269 252.455 101.664 253.621 102.682C253.959 102.965 254.365 103.349 254.774 103.735L255.36 104.286C255.38 104.3 255.465 104.384 255.515 104.44C256.115 105.042 256.746 105.693 257.273 106.271L259.001 108.167L256.658 107.12C232.083 96.153 201.576 109.818 182.472 140.348L179.76 144.26L179.759 144.259ZM225.262 89.9028C224.093 89.7144 223.332 89.6128 222.578 89.5424C221.38 89.3934 219.649 89.2922 217.413 89.236C215.346 89.2438 213.596 89.3384 211.926 89.5377C210.567 89.6667 209.118 89.895 207.61 90.2196C207.355 90.2901 207.049 90.3527 206.739 90.4142L206.276 90.5315C205.849 90.6415 205.425 90.7485 205.059 90.8693C203.587 91.287 202.398 91.685 201.29 92.1256C200.089 92.5751 198.934 93.0867 197.849 93.6547L197.112 94.0444C196.604 94.3118 196.058 94.606 195.628 94.8789C194.625 95.4701 193.623 96.1337 192.633 96.8618C192.073 97.2821 191.249 97.9069 190.63 98.456C190.02 98.9843 188.773 100.116 188.009 100.877C186.892 102.072 185.791 103.381 184.748 104.753L178.368 113.432C174.017 119.349 173.693 127.805 177.456 137.238C178.072 138.769 178.861 140.411 179.86 142.238L181.574 139.759C200.35 109.752 230.086 95.8314 254.725 105.165C254.717 105.157 254.708 105.146 254.7 105.139L254.032 104.51C253.645 104.142 253.251 103.771 252.924 103.497C251.761 102.481 250.184 101.104 248.935 100.188L246.825 98.6415C246.425 98.3484 245.822 97.9624 245.288 97.6225C245.157 97.529 245.052 97.4667 244.952 97.4068C244.838 97.3379 244.731 97.2723 244.638 97.2044C244.335 97.0169 243.47 96.4842 242.714 96.112C242.569 96.0146 242.488 95.9546 242.448 95.9431C241.312 95.2984 238.705 93.9798 237.415 93.4782C237.108 93.3593 236.773 93.2265 236.427 93.0838L236.196 92.9875C235.587 92.7316 234.955 92.4671 234.422 92.3077C233.168 91.8687 231.4 91.3244 229.136 90.6761C228.388 90.4913 227.424 90.3125 226.538 90.1472C226.126 90.0706 225.733 89.999 225.378 89.9268L225.261 89.9037L225.262 89.9028Z" fill="#07303A"/>
<path d="M202.301 84.7856L217.429 64.2101C213.392 69.7004 212.831 77.6623 216.474 87.1065C224.22 106.256 247.5 123.701 268.475 126.059C279.312 127.228 287.426 124.193 291.695 118.341L276.567 138.916C272.24 144.802 264.184 147.803 253.348 146.633C232.231 144.247 209.093 126.832 201.347 107.681C197.631 98.3352 198.286 90.2909 202.301 84.7856Z" fill="#94B2C9"/>
<path d="M237.607 113.95C227.781 106.751 219.667 97.2912 215.693 87.3957C211.977 78.1879 212.348 69.8037 216.734 63.7815C217.454 62.8013 218.491 61.6775 219.046 61.0957C219.808 60.3204 220.635 59.5963 221.449 58.9809C223.581 57.3651 225.909 56.1141 228.359 55.2608C229.539 54.8267 230.772 54.4664 232.021 54.2008C233.36 53.909 235.208 53.6378 236.624 53.528C237.959 53.4239 239.306 53.3901 240.628 53.4337C241.736 53.4646 243.019 53.5124 244.268 53.6945L244.891 53.7632C245.668 53.8519 246.551 53.9523 247.306 54.1272C247.67 54.2138 248.121 54.3035 248.593 54.3978C249.32 54.5378 250.102 54.6948 250.716 54.8661C252.355 55.2958 254.679 56.0047 256.627 56.6691C257.465 56.9527 258.507 57.3858 259.392 57.7522L259.833 57.9377C262.369 59.0211 265.266 60.531 265.797 60.8399C266.307 61.1362 267.806 62.0091 268.638 62.5381C268.944 62.7357 269.294 62.9397 269.645 63.1495C270.259 63.5094 270.887 63.882 271.391 64.2518L274.025 66.1827C275.193 67.0391 276.573 68.2159 277.79 69.2516L279.089 70.3501L279.097 70.3559C279.617 70.7371 280.175 71.3185 280.714 71.8786C280.966 72.1412 281.212 72.3969 281.439 72.611C282.219 73.3574 284.318 75.5267 285.849 77.3884L286.181 77.7968C286.739 78.4788 287.427 79.3258 287.885 80.0616C288.996 81.5939 290.367 83.7297 291.194 85.0769C291.77 86.0188 292.41 87.2601 292.74 87.9168C292.896 88.2771 293.07 88.6547 293.25 89.0479C293.569 89.7507 293.916 90.507 294.166 91.1314L294.115 91.1515C294.263 91.5548 294.418 91.9571 294.572 92.3614C294.744 92.8065 294.913 93.2478 295.045 93.6248C295.394 94.8426 295.746 96.279 296.067 97.5771L296.287 98.4715C296.738 100.812 296.903 103.141 296.779 105.428C296.713 106.614 296.571 107.896 296.355 109.236C296.138 110.292 295.891 111.291 295.606 112.226C295.318 113.1 294.953 113.998 294.516 114.912C294.32 115.202 294.185 115.493 294.054 115.777C293.944 116.024 293.834 116.264 293.722 116.458C293.417 116.955 292.725 118.083 292.167 118.843C287.567 125.099 278.865 128 268.294 126.806C257.921 125.638 246.982 120.823 237.604 113.949L237.607 113.95ZM270.509 65.4505C270.04 65.1068 269.456 64.7651 268.888 64.4312C268.515 64.2117 268.154 63.9981 267.835 63.7938C267.021 63.2724 265.545 62.4161 265.048 62.1265C264.593 61.8618 261.728 60.3662 259.256 59.3088L258.819 59.1262C257.961 58.7705 256.953 58.3505 256.144 58.0756C254.226 57.4206 251.941 56.7222 250.322 56.2991C249.732 56.1345 248.991 55.9907 248.302 55.8553C247.808 55.7582 247.34 55.6666 246.961 55.5754C246.294 55.4193 245.46 55.3253 244.726 55.244L244.062 55.166C242.889 54.994 241.652 54.9497 240.58 54.9184C239.311 54.8772 238.019 54.9095 236.736 55.0092C235.388 55.1173 233.617 55.3731 232.334 55.6528C231.155 55.9061 229.987 56.2432 228.862 56.6601C226.544 57.4662 224.357 58.6466 222.346 60.1645C221.592 60.7392 220.818 61.4159 220.113 62.1282C219.597 62.6753 218.609 63.748 217.938 64.6621C213.866 70.2495 213.555 78.1258 217.074 86.8408C224.66 105.726 247.715 122.995 268.467 125.33C278.489 126.459 286.689 123.775 290.964 117.96C291.496 117.236 292.161 116.16 292.44 115.698C292.522 115.554 292.611 115.361 292.702 115.163C292.859 114.81 293.025 114.445 293.243 114.15C293.585 113.415 293.924 112.577 294.187 111.778C294.452 110.903 294.692 109.954 294.892 108.971C295.092 107.709 295.23 106.482 295.292 105.35C295.406 103.183 295.253 100.976 294.837 98.7934L294.62 97.9343C294.306 96.6519 293.954 95.2319 293.63 94.0775C293.512 93.756 293.347 93.3254 293.181 92.8959C293.024 92.48 292.865 92.066 292.736 91.7104C292.526 91.251 292.131 90.8138 291.584 90.4874C291.411 90.361 291.229 90.2668 291.046 90.1952C293.66 97.4651 293.152 103.998 289.58 108.692C285.692 113.801 278.723 116.07 269.961 115.086C252.441 113.118 232.949 98.5124 226.494 82.5255C223.374 74.7246 223.733 67.6993 227.507 62.746C231.391 57.652 238.362 55.3789 247.139 56.3435C264.534 58.3101 283.824 72.6983 290.397 88.5188C290.772 88.5564 291.137 88.6323 291.477 88.7426C291.448 88.6764 291.417 88.6113 291.391 88.5498C291.087 87.9485 290.471 86.7489 289.926 85.8537C289.109 84.5269 287.762 82.4318 286.651 80.8899C286.213 80.1931 285.555 79.3859 285.027 78.7378L284.696 78.3293C283.205 76.519 281.168 74.4127 280.408 73.6875C280.172 73.46 279.909 73.1887 279.639 72.9097C279.141 72.3913 278.627 71.8555 278.17 71.5204L276.827 70.3852C275.629 69.363 274.268 68.2036 273.146 67.381L270.512 65.4501L270.509 65.4505ZM271.575 68.1336C264.057 62.6233 255.293 58.7623 246.972 57.8221C238.74 56.9172 232.245 58.9836 228.692 63.6443C225.248 68.1654 224.957 74.6732 227.876 81.9695C234.139 97.4977 253.091 111.692 270.13 113.611C278.349 114.533 284.837 112.468 288.394 107.793C291.806 103.308 292.118 96.893 289.271 89.7112L289.19 89.5106L289.106 89.3052C285.894 81.4164 279.411 73.8788 271.573 68.1338L271.575 68.1336Z" fill="#07303A"/>
<path d="M289.855 89.2115C296.224 104.992 287.31 116.27 270.017 114.327C252.688 112.433 233.491 98.0576 227.159 82.2272C220.826 66.397 229.618 55.1063 247.033 57.0629C264.411 59.0688 283.522 73.3813 289.855 89.2115Z" fill="#2B545E"/>
<path d="M222.609 134.511C212.785 127.31 204.656 117.855 200.653 107.958C196.974 98.7002 197.346 90.316 201.697 84.3469L216.826 63.7705L218.03 64.6529C214.046 70.0713 213.739 77.9496 217.167 86.8375C224.812 105.731 247.866 122.993 268.557 125.322C278.741 126.419 286.713 123.816 291.026 117.991L291.092 117.902L292.297 118.782L292.227 118.878L277.169 139.359C272.513 145.69 264.02 148.536 253.265 147.374C242.917 146.204 231.992 141.387 222.609 134.511ZM202.904 85.2254C198.863 90.7636 198.552 98.639 202.037 107.407C209.676 126.284 232.73 143.555 253.431 145.895C263.634 146.999 271.636 144.362 275.965 138.476L286.819 123.714C282.09 126.513 275.782 127.598 268.392 126.799C247.207 124.414 223.61 106.737 215.78 87.3829C213.351 81.0878 212.72 75.2455 213.864 70.3183L202.904 85.2254Z" fill="#07303A"/>
<path d="M202.301 84.7866L217.429 64.2111C213.392 69.7013 212.831 77.6632 216.474 87.1075C224.22 106.257 247.5 123.702 268.475 126.06C279.312 127.229 287.426 124.194 291.695 118.342L276.567 138.917C272.24 144.803 264.184 147.804 253.348 146.634C232.231 144.248 209.093 126.833 201.347 107.682C197.631 98.3362 198.286 90.2919 202.301 84.7866Z" fill="#07303A"/>
<path d="M217.276 64.0992C217.338 64.0149 217.456 63.9968 217.54 64.0586C217.624 64.1206 217.643 64.2388 217.581 64.3231C213.596 69.7428 213.021 77.6295 216.649 87.0363L217.022 87.9295C220.991 97.14 228.531 105.914 237.627 112.729C247.017 119.763 258.049 124.697 268.495 125.871L269.499 125.968C279.458 126.816 286.96 124.019 291.135 118.764L291.541 118.23L291.542 118.23C291.604 118.146 291.722 118.128 291.806 118.19C291.891 118.251 291.909 118.37 291.847 118.454L291.846 118.454L291.847 118.455L276.719 139.03C272.338 144.988 264.204 147.997 253.328 146.823L253.327 146.822C242.727 145.625 231.632 140.658 222.219 133.596C212.807 126.535 205.06 117.368 201.171 107.753L201.171 107.752C197.44 98.3672 198.082 90.2487 202.147 84.6747L202.148 84.6746L217.276 64.0992ZM202.453 84.8975L202.454 84.8984C198.489 90.3347 197.823 98.3046 201.522 107.611L201.894 108.504C205.862 117.715 213.368 126.483 222.447 133.294C231.818 140.324 242.849 145.257 253.367 146.446L253.368 146.446C264.163 147.611 272.14 144.618 276.414 138.805L289.407 121.132C284.759 125.263 277.545 127.229 268.454 126.248L268.453 126.248C257.925 125.064 246.831 120.097 237.4 113.032C227.97 105.968 220.187 96.7935 216.298 87.1791L216.296 87.1754C213.262 79.3101 213.125 72.4397 215.5 67.1516L202.453 84.8975Z" fill="#07303A"/>
<path d="M222.609 134.511C212.785 127.31 204.656 117.855 200.653 107.958C196.974 98.7002 197.346 90.316 201.697 84.3469L216.826 63.7705L218.03 64.6529C214.046 70.0713 213.739 77.9496 217.167 86.8375C224.812 105.731 247.866 122.993 268.557 125.322C278.741 126.419 286.713 123.816 291.026 117.991L291.092 117.902L292.297 118.782L292.227 118.878L277.169 139.359C272.513 145.69 264.02 148.536 253.265 147.374C242.917 146.204 231.992 141.387 222.609 134.511ZM202.904 85.2254C198.863 90.7636 198.552 98.639 202.037 107.407C209.676 126.284 232.73 143.555 253.431 145.895C263.634 146.999 271.636 144.362 275.965 138.476L286.819 123.714C282.09 126.513 275.782 127.598 268.392 126.799C247.207 124.414 223.61 106.737 215.78 87.3829C213.351 81.0878 212.72 75.2455 213.864 70.3183L202.904 85.2254Z" fill="#07303A"/>
<path d="M244.172 54.4336C245.042 54.5393 246.212 54.6359 247.131 54.8521C248.049 55.0693 249.511 55.3035 250.515 55.5818C252.295 56.0494 254.637 56.7756 256.386 57.3735C257.354 57.7019 258.597 58.2324 259.55 58.626C262.037 59.688 264.918 61.1906 265.421 61.4828C265.925 61.7758 267.414 62.6398 268.235 63.1653C269.058 63.6914 270.165 64.2752 270.95 64.8507C271.735 65.4262 272.777 66.1894 273.582 66.7801C275.154 67.9319 277.111 69.6706 278.609 70.9209C279.373 71.4812 280.232 72.4908 280.923 73.1505C281.615 73.8103 283.702 75.9481 285.271 77.859C285.868 78.6013 286.727 79.6117 287.252 80.4532C288.305 81.9097 289.621 83.9405 290.559 85.4645C291.063 86.291 291.649 87.4052 292.073 88.2491C292.462 89.143 293.081 90.4337 293.475 91.4079C293.157 90.718 292.634 90.1826 292.004 89.7973C291.374 89.4119 290.622 89.2417 289.881 89.2305C283.548 73.4003 264.373 59.0399 247.057 57.0812C229.707 55.1715 220.851 66.4161 227.184 82.2454C233.552 98.0256 252.75 112.401 270.043 114.345C287.336 116.289 296.25 105.012 289.881 89.2305C290.626 89.2446 291.379 89.4147 291.973 89.8501C292.603 90.2354 293.124 90.7703 293.438 91.4572C293.693 92.177 294.088 93.1511 294.343 93.8717C294.754 95.3131 295.193 97.1588 295.567 98.6504C295.99 100.864 296.156 103.116 296.036 105.389C295.966 106.631 295.815 107.891 295.617 109.115C295.417 110.111 295.176 111.076 294.894 112.011C294.612 112.87 294.25 113.747 293.846 114.592C293.555 114.987 293.324 115.657 293.077 116.083C292.792 116.559 292.113 117.66 291.567 118.402C287.313 124.189 279.184 127.289 268.383 126.07C247.409 123.712 224.092 106.317 216.382 87.1175C212.631 77.8209 213.249 69.8258 217.336 64.2212C217.954 63.3808 218.861 62.3704 219.585 61.6071C220.283 60.9011 221.079 60.1897 221.897 59.5726C223.94 58.0248 226.21 56.7965 228.602 55.9626C229.776 55.5277 230.967 55.1835 232.174 54.9268C233.535 54.6308 235.361 54.3701 236.677 54.2695C237.988 54.1654 239.298 54.1348 240.6 54.177C241.786 54.2092 243.001 54.2621 244.17 54.433L244.172 54.4336Z" fill="#2B545E"/>
<path d="M244.563 104.481C236.447 98.5321 229.744 90.7043 226.466 82.5051C223.333 74.674 223.697 67.633 227.482 62.6738C231.362 57.5916 238.338 55.3371 247.116 56.3269C264.677 58.3466 284.16 72.9785 290.547 88.9365C293.681 96.7021 293.328 103.712 289.554 108.673C285.665 113.782 278.696 116.051 269.93 115.064C261.354 114.128 252.315 110.163 244.564 104.481L244.563 104.481ZM271.555 68.1443C264.038 62.634 255.272 58.7662 246.944 57.8027C238.709 56.8772 232.215 58.926 228.664 63.5769C225.21 68.103 224.92 74.6263 227.848 81.9509C234.079 97.5322 253.031 111.725 270.095 113.586C278.318 114.512 284.805 112.446 288.367 107.774C291.81 103.246 292.095 96.7541 289.163 89.4919C285.987 81.5478 279.459 73.9386 271.555 68.1453L271.555 68.1443Z" fill="#07303A"/>
<path opacity="0.6" d="M233.143 160.749C230.564 159.645 227.369 157.879 225.542 160.007C224.235 161.528 224.721 163.694 225.421 165.377C227.129 169.483 229.044 173.543 228.352 178.105C228.177 179.261 227.865 180.392 227.509 181.504C223.861 192.927 215.807 202.324 209.782 212.695C209.015 214.014 208.258 215.454 208.383 216.973C208.844 222.572 214.438 218.287 216.096 216.396C225.394 205.793 234.853 195.334 243.39 184.102C246.651 179.812 249.905 175.448 252.803 170.902C255.908 166.03 250.938 166.145 246.932 165.269C242.186 164.231 237.608 162.662 233.143 160.749Z" fill="#94B2C9"/>
<path opacity="0.6" d="M225.586 159.682C226.548 158.733 227.81 158.681 229.103 158.981C230.474 159.3 231.944 160.03 233.217 160.575L234.054 160.929C238.245 162.678 242.536 164.113 246.973 165.084L247.729 165.237C248.492 165.382 249.265 165.505 250.011 165.648C250.993 165.837 251.916 166.06 252.62 166.418C253.328 166.779 253.843 167.292 253.946 168.065C254.047 168.821 253.746 169.775 252.962 171.004C250.423 174.988 247.611 178.832 244.763 182.604L243.541 184.217C237.134 192.645 230.208 200.64 223.225 208.582L216.239 216.521C215.398 217.48 213.56 219.049 211.856 219.672C211.006 219.982 210.143 220.073 209.455 219.675C208.761 219.273 208.312 218.415 208.194 216.989L208.18 216.693C208.162 215.218 208.902 213.832 209.618 212.6L210.189 211.63C213.072 206.792 216.363 202.137 219.377 197.392C222.596 192.323 225.511 187.134 227.328 181.446L227.585 180.613C227.829 179.777 228.034 178.933 228.164 178.077L228.221 177.657C228.664 173.886 227.338 170.454 225.891 166.991L225.246 165.45C224.892 164.599 224.587 163.614 224.539 162.641C224.492 161.665 224.705 160.691 225.398 159.883L225.586 159.682ZM229.017 159.35C227.78 159.063 226.678 159.134 225.848 159.956L225.686 160.131C225.073 160.845 224.874 161.714 224.918 162.623C224.962 163.534 225.25 164.473 225.596 165.305L226.239 166.839C227.687 170.301 229.052 173.824 228.597 177.701L228.539 178.134C228.406 179.011 228.196 179.873 227.948 180.72L227.69 181.562C225.858 187.296 222.922 192.517 219.696 197.595C216.667 202.364 213.394 206.992 210.516 211.822L209.945 212.791C209.224 214.032 208.542 215.332 208.559 216.687L208.572 216.958C208.685 218.332 209.108 219.036 209.644 219.347C210.187 219.66 210.912 219.612 211.725 219.315C213.348 218.722 215.136 217.203 215.953 216.271L222.941 208.331C229.923 200.391 236.839 192.406 243.239 183.987L244.461 182.375C247.306 178.605 250.111 174.772 252.643 170.8C253.412 169.594 253.654 168.735 253.571 168.115C253.49 167.512 253.094 167.086 252.448 166.757C251.796 166.425 250.92 166.208 249.94 166.02C249.215 165.88 248.426 165.756 247.655 165.609L246.891 165.455C242.428 164.478 238.116 163.034 233.908 161.279L233.068 160.923C231.763 160.364 230.345 159.659 229.017 159.35Z" fill="#07303A"/>
<path opacity="0.6" d="M203.122 219.819C201.481 220.114 199.95 221.177 199.312 222.879C198.243 225.726 200.793 228.902 203.755 228.872C207.096 228.837 209.552 225.588 208.204 222.396C207.294 220.24 205.126 219.458 203.122 219.819Z" fill="#94B2C9"/>
<path opacity="0.6" d="M203.479 219.577C205.437 219.367 207.486 220.208 208.379 222.323L208.499 222.634C209.588 225.757 207.267 228.822 204.079 229.048L203.757 229.061C202.208 229.077 200.776 228.255 199.871 227.069C198.966 225.882 198.572 224.308 199.134 222.813L199.27 222.487C200 220.903 201.499 219.919 203.088 219.633L203.479 219.577ZM202.859 220.068C201.487 220.398 200.24 221.287 199.613 222.647L199.489 222.946C198.982 224.296 199.33 225.734 200.173 226.839C201.017 227.945 202.341 228.697 203.753 228.682L204.053 228.67C207.021 228.46 209.138 225.62 208.139 222.757L208.029 222.47C207.161 220.414 205.093 219.657 203.155 220.006L202.859 220.068Z" fill="#07303A"/>
<path d="M263.91 92.3629L246.785 74.5037C245.075 72.721 245.821 69.7645 248.174 69.0029C251.734 67.8493 255.641 68.8315 258.229 71.5309L275.355 89.39C277.065 91.1727 276.318 94.1293 273.966 94.8908C270.405 96.0444 266.498 95.0623 263.91 92.3629Z" fill="#07303A"/>
<path d="M248.456 68.7185C251.992 67.7107 255.81 68.734 258.366 71.3999L275.491 89.2587L275.653 89.4383C277.196 91.2739 276.481 94.1025 274.251 94.9893L274.024 95.0706C270.508 96.2099 266.659 95.3064 264.024 92.7469L263.773 92.494L246.647 74.6352C244.84 72.7513 245.629 69.6268 248.114 68.8222L248.456 68.7185ZM258.092 71.6622C255.554 69.0154 251.723 68.0525 248.232 69.1836L248.231 69.1837C246.012 69.9025 245.309 72.6915 246.921 74.3728L264.047 92.2316L264.288 92.4751C266.823 94.9367 270.524 95.806 273.906 94.7102L274.111 94.6374C276.102 93.8453 276.739 91.32 275.361 89.6816L275.217 89.521L258.092 71.6622Z" fill="#07303A"/>
<path d="M275.354 89.3894L258.228 71.5303C255.641 68.8317 251.733 67.8496 248.173 69.0024C247.281 69.2911 246.621 69.896 246.237 70.6324C249.692 69.6688 253.41 70.6695 255.905 73.2705L273.03 91.1296C274.092 92.2364 274.205 93.7951 273.577 95.0003C273.706 94.9639 273.836 94.9308 273.965 94.8893C276.317 94.127 277.064 91.1713 275.354 89.3886L275.354 89.3894Z" fill="#94B2C9"/>
<path d="M248.456 68.7183C251.992 67.7112 255.81 68.7338 258.365 71.3988L275.491 89.2576C277.241 91.0825 276.555 94.0697 274.252 94.9871L274.024 95.0695C273.891 95.1125 273.751 95.1479 273.629 95.1824L273.206 95.3015L273.41 94.9127C273.966 93.8448 273.906 92.4866 273.071 91.4613L272.894 91.2612L255.769 73.4014C253.323 70.8512 249.676 69.8702 246.289 70.8152L245.868 70.932L246.069 70.5445C246.475 69.7663 247.173 69.1268 248.115 68.822L248.456 68.7183ZM258.091 71.6611C255.633 69.0981 251.961 68.1142 248.56 69.0827L248.232 69.1825C247.552 69.4025 247.018 69.818 246.647 70.3344C250.034 69.5603 253.609 70.6026 256.042 73.1392L273.168 90.9988L273.367 91.2233C274.205 92.2539 274.341 93.583 273.913 94.706C276.123 93.9848 276.825 91.2128 275.228 89.5319L275.218 89.5207L258.091 71.6611Z" fill="#07303A"/>
</g>
<path d="M185.975 102.863C175.857 98.764 166.4 96.7935 158.469 97.1455C150.541 97.4975 144.179 100.165 140.158 105.302C133.678 113.568 134.319 126.832 140.87 141.751C147.406 156.638 159.769 173.022 176.443 187.368C193.119 201.715 210.85 211.24 226.039 215.073C241.26 218.913 253.761 217.008 260.22 208.77L260.544 208.345C263.824 203.905 265.132 198.094 264.641 191.378C264.133 184.444 261.707 176.574 257.591 168.334L258.439 167.911C262.592 176.225 265.066 184.216 265.585 191.308C266.088 198.18 264.757 204.237 261.306 208.907L260.966 209.354C254.149 218.049 241.138 219.86 225.808 215.992C210.445 212.115 192.585 202.506 175.825 188.087C159.065 173.667 146.605 157.173 140.001 142.132C133.411 127.125 132.596 113.412 139.412 104.717C143.653 99.2996 150.315 96.5588 158.427 96.1987C166.535 95.8388 176.131 97.8526 186.331 101.984L185.975 102.863Z" fill="#2B545E"/>
<path d="M234.323 222.565C237.115 224.629 241.048 224.045 243.109 221.26C245.169 218.474 244.576 214.542 241.785 212.477C238.993 210.412 235.06 210.997 233 213.782C230.939 216.568 231.532 220.5 234.323 222.565Z" fill="#94B2C9"/>
<path d="M242.804 221.034C244.739 218.417 244.183 214.723 241.56 212.782C238.936 210.841 235.24 211.391 233.304 214.007C231.369 216.624 231.925 220.319 234.549 222.26L234.324 222.565L234.068 222.366C231.58 220.324 231.037 216.723 232.814 214.047L233 213.782C235.06 210.997 238.994 210.413 241.785 212.477L242.04 212.676C244.611 214.786 245.105 218.561 243.109 221.26L242.91 221.514C240.803 224.079 237.028 224.565 234.324 222.565L234.549 222.26C237.173 224.201 240.868 223.65 242.804 221.034Z" fill="#94B2C9"/>
<path d="M288.837 173.385C290.033 174.27 291.718 174.02 292.601 172.826C293.483 171.633 293.23 169.949 292.034 169.064C290.838 168.179 289.153 168.43 288.27 169.623C287.387 170.816 287.641 172.501 288.837 173.385Z" fill="#94B2C9"/>
<path d="M292.296 172.601C293.054 171.576 292.836 170.129 291.808 169.368C290.78 168.608 289.332 168.824 288.575 169.848C287.817 170.873 288.034 172.32 289.062 173.081L288.837 173.385L288.624 173.21C287.681 172.353 287.469 170.946 288.117 169.852L288.27 169.623C289.153 168.43 290.838 168.179 292.034 169.064L292.247 169.239C293.257 170.157 293.428 171.707 292.601 172.826L292.426 173.039C291.509 174.047 289.958 174.214 288.837 173.385L289.062 173.081C290.091 173.841 291.538 173.625 292.296 172.601Z" fill="#07303A"/>
<path d="M111.972 157.805C114.011 159.313 116.885 158.887 118.391 156.851C119.896 154.816 119.463 151.943 117.424 150.434C115.384 148.926 112.51 149.353 111.005 151.388C109.499 153.423 109.932 156.296 111.972 157.805Z" fill="#94B2C9"/>
<path d="M118.086 156.626C119.467 154.76 119.07 152.124 117.198 150.739C115.326 149.354 112.69 149.747 111.309 151.613C109.929 153.48 110.326 156.115 112.198 157.5L111.972 157.805L111.786 157.659C109.968 156.167 109.571 153.536 110.869 151.581L111.004 151.388C112.51 149.353 115.384 148.926 117.424 150.434L117.61 150.58C119.488 152.122 119.849 154.88 118.391 156.852L118.246 157.037C116.707 158.912 113.948 159.267 111.972 157.805L112.198 157.5C114.069 158.884 116.706 158.492 118.086 156.626Z" fill="#07303A"/>
<path d="M153.5 255C125.61 255 103 252.538 103 249.5C103 246.462 125.61 244 153.5 244C181.39 244 204 246.462 204 249.5C204 252.538 181.39 255 153.5 255Z" fill="#07303A"/>
<defs>
<clipPath id="clip0_2530_13337">
<rect width="173.424" height="173.424" fill="white" transform="translate(116.772 71.8149) rotate(-8.71751)"/>
</clipPath>
</defs>
</svg>
