<svg width="411" height="300" viewBox="0 0 411 300" fill="none" xmlns="http://www.w3.org/2000/svg">
<g clip-path="url(#clip0_9503_9331)">
<path d="M96.6235 97.0508C96.5055 97.1201 96.5029 97.2897 96.6186 97.3627L98.481 98.5371L187.069 46.555L184.815 45.2207L96.6235 97.0508Z" fill="#70C5AD"/>
<path d="M187.069 46.5547L98.4812 98.5371L96.6189 97.3623C96.5032 97.2893 96.5058 97.1201 96.6237 97.0508L184.814 45.2207L187.069 46.5547ZM96.8913 97.2109L98.4851 98.2158L186.529 46.5537L184.814 45.5381L96.8913 97.2109Z" fill="#155C6D"/>
<path d="M98.4253 254.668L187.016 202.691V46.7744L98.4253 98.6792V254.668Z" fill="#C8DAE8"/>
<path d="M187.153 202.77L98.2885 254.907V98.6006L98.3559 98.5605L186.947 46.6562L187.153 46.5352V202.77ZM98.562 98.7568V254.43L186.878 202.613V47.0127L98.562 98.7568Z" fill="#155C6D"/>
<path d="M98.6061 98.3331L96.87 97.2914C96.6877 97.182 96.4557 97.3129 96.4551 97.5255L96.0006 253.889C96.0002 254.007 96.0757 254.112 96.1879 254.149L98.3786 254.88C98.556 254.939 98.7391 254.807 98.7391 254.62V98.568C98.7391 98.4718 98.6887 98.3826 98.6061 98.3331Z" fill="#155C6D"/>
<path d="M149.496 95.1564L178.982 77.856V75.9287L149.496 93.205V95.1564Z" fill="#155C6D"/>
<path d="M179.119 77.9346L149.36 95.3955V93.127L149.427 93.0869L178.913 75.8105L179.119 75.6895V77.9346ZM149.633 93.2832V94.917L178.845 77.7773V76.167L149.633 93.2832Z" fill="#155C6D"/>
<path d="M149.496 103.717L178.982 86.4166V84.4893L149.496 101.766V103.717Z" fill="#155C6D"/>
<path d="M179.119 86.4951L149.36 103.956V101.688L149.427 101.647L178.913 84.3711L179.119 84.25V86.4951ZM149.633 101.844V103.478L178.845 86.3379V84.7275L149.633 101.844Z" fill="#155C6D"/>
<path d="M149.496 112.221L178.982 94.9205V92.9932L149.496 110.269V112.221Z" fill="#155C6D"/>
<path d="M179.119 94.999L149.36 112.46V110.191L149.427 110.151L178.913 92.875L179.119 92.7539V94.999ZM149.633 110.348V111.981L178.845 94.8418V93.2314L149.633 110.348Z" fill="#155C6D"/>
<path d="M105.146 154.199L178.982 110.879V108.571L105.146 151.833V154.199Z" fill="#155C6D"/>
<path d="M179.119 110.957L179.051 110.997L105.009 154.438V151.754L105.077 151.715L178.913 108.453L179.119 108.332V110.957ZM105.283 151.911V153.959L178.845 110.8V108.81L105.283 151.911Z" fill="#155C6D"/>
<path d="M105.146 165.116L178.982 121.796V119.488L105.146 162.75V165.116Z" fill="#155C6D"/>
<path d="M179.119 121.874L179.051 121.914L105.009 165.354V162.671L105.077 162.632L178.913 119.37L179.119 119.249V121.874ZM105.283 162.828V164.876L178.845 121.717V119.727L105.283 162.828Z" fill="#155C6D"/>
<path d="M105.146 175.744L178.982 132.424V130.116L105.146 173.377V175.744Z" fill="#155C6D"/>
<path d="M179.119 132.502L179.051 132.542L105.009 175.982V173.298L105.077 173.259L178.913 129.998L179.119 129.877V132.502ZM105.283 173.455V175.504L178.845 132.345V130.354L105.283 173.455Z" fill="#155C6D"/>
<path d="M122.789 216.66L185.098 180.101C197.25 172.971 204.715 159.937 204.715 145.848C204.715 137.393 195.536 132.132 188.241 136.406L125.946 172.905C113.783 180.032 106.308 193.073 106.308 207.171V207.222C106.308 215.68 115.493 220.94 122.788 216.661L122.789 216.66Z" fill="#70C5AD"/>
<path d="M191.737 135.765L262.443 137.798L262.391 140.916L121.174 177.335" fill="url(#paint0_linear_9503_9331)"/>
<path d="M121.174 177.336L247.917 144.545L247.852 149.563L120.008 217.825" fill="url(#paint1_linear_9503_9331)"/>
<path d="M271.836 172.295L272.418 171.959L234.55 150.156V158.301C234.55 159.7 235.296 160.994 236.508 161.694L266.152 178.818C268.677 180.276 271.836 178.454 271.836 175.537V172.295Z" fill="#C8DAE8"/>
<path d="M234.413 158.302V149.919L272.487 171.84L272.692 171.959L271.973 172.373V175.537C271.973 178.465 268.901 180.329 266.33 179.068L266.083 178.937L236.44 161.812C235.186 161.089 234.413 159.749 234.413 158.302ZM234.687 158.302C234.687 159.652 235.408 160.9 236.576 161.575L266.22 178.699L266.451 178.822C268.842 179.994 271.7 178.261 271.7 175.537V172.216L271.768 172.176L272.143 171.958L234.687 150.393V158.302Z" fill="#155C6D"/>
<path d="M271.836 176.534C271.836 179.021 274.536 180.57 276.683 179.314L312.471 158.375C313.419 157.828 314.003 156.816 314.003 155.721V148.017L271.835 172.295L271.836 176.534Z" fill="#155C6D"/>
<path d="M313.866 148.253L271.972 172.374L271.974 176.533L271.98 176.754C272.134 179.005 274.622 180.36 276.613 179.195L312.402 158.257L312.568 158.153C313.376 157.612 313.866 156.701 313.866 155.721V148.253ZM314.141 155.721C314.141 156.793 313.604 157.789 312.721 158.381L312.54 158.494L276.752 179.432C274.514 180.741 271.7 179.127 271.699 176.534L271.698 172.216L271.767 172.177L313.935 147.897L314.141 147.779V155.721Z" fill="#155C6D"/>
<path d="M236.09 152.684L267.007 170.66C270.034 172.42 273.771 172.427 276.806 170.68L312.424 150.173C314.558 148.944 314.563 145.866 312.431 144.631L281.378 126.649C278.348 124.894 274.611 124.893 271.58 126.644L236.096 147.148C233.967 148.378 233.965 151.449 236.09 152.684Z" fill="#70C5AD"/>
<path d="M271.802 126.364C274.821 124.752 278.47 124.807 281.446 126.531L312.499 144.513L312.701 144.639C314.656 145.954 314.651 148.855 312.695 150.166L312.493 150.291L276.874 170.799C273.893 172.515 270.244 172.562 267.228 170.941L266.938 170.779L236.02 152.803C233.805 151.515 233.808 148.313 236.027 147.029L271.512 126.526L271.802 126.364ZM281.309 126.768C278.415 125.092 274.867 125.038 271.931 126.607L271.648 126.763L236.164 147.266L236.165 147.267C234.128 148.444 234.124 151.383 236.158 152.566L267.076 170.541C270.061 172.277 273.745 172.285 276.737 170.562L312.356 150.054L312.542 149.939C314.337 148.735 314.341 146.074 312.548 144.866L312.362 144.75L281.309 126.768Z" fill="#155C6D"/>
<path d="M267.007 179.212C270.034 180.972 273.771 180.98 276.806 179.233V170.679C273.771 172.427 270.034 172.419 267.007 170.659V179.212Z" fill="#C8DAE8"/>
<path d="M267.076 170.541C270.06 172.276 273.745 172.283 276.738 170.561L276.943 170.442V179.312L276.874 179.352C273.797 181.123 270.008 181.115 266.939 179.331L266.871 179.291V170.421L267.076 170.541ZM267.144 179.132C270.094 180.816 273.712 180.823 276.669 179.151V170.911C273.699 172.53 270.108 172.522 267.144 170.892V179.132Z" fill="#155C6D"/>
<path d="M251.059 143.903L253.33 145.223C253.552 145.352 253.827 145.352 254.05 145.224L256.665 143.718C256.822 143.628 256.822 143.401 256.665 143.311L254.384 141.99C254.161 141.861 253.888 141.861 253.665 141.99L251.058 143.496C250.902 143.586 250.902 143.811 251.059 143.903Z" fill="#C8DAE8"/>
<path d="M253.698 141.821C253.942 141.72 254.221 141.737 254.453 141.872L254.452 141.872L256.734 143.192H256.733C256.982 143.334 256.982 143.694 256.733 143.836L256.732 143.835L254.118 145.342H254.117C253.852 145.494 253.525 145.494 253.261 145.34V145.341L250.991 144.021C250.743 143.877 250.741 143.52 250.99 143.376L253.596 141.872L253.698 141.821ZM254.316 142.109C254.135 142.004 253.914 142.004 253.734 142.109H253.733L251.126 143.614C251.063 143.65 251.061 143.745 251.128 143.784L253.399 145.104L253.468 145.138C253.633 145.207 253.823 145.196 253.982 145.105L256.597 143.598L256.634 143.561C256.658 143.517 256.646 143.457 256.597 143.429H256.596L254.316 142.109Z" fill="#155C6D"/>
<path d="M245.697 146.884L247.968 148.204C248.189 148.334 248.464 148.334 248.687 148.206L251.303 146.699C251.46 146.609 251.46 146.382 251.303 146.292L249.022 144.972C248.799 144.843 248.525 144.843 248.302 144.972L245.696 146.477C245.54 146.567 245.54 146.793 245.697 146.884Z" fill="#C8DAE8"/>
<path d="M248.335 144.802C248.579 144.701 248.859 144.718 249.091 144.853L249.09 144.854L251.371 146.173H251.37C251.619 146.316 251.619 146.675 251.37 146.818L251.369 146.817L248.756 148.324H248.755C248.49 148.476 248.163 148.476 247.899 148.322V148.323L245.628 147.002C245.381 146.859 245.379 146.501 245.627 146.358L248.234 144.853L248.335 144.802ZM248.953 145.09C248.773 144.986 248.552 144.986 248.371 145.09H248.37L245.764 146.595C245.7 146.632 245.699 146.726 245.766 146.765L248.036 148.085L248.106 148.12C248.271 148.188 248.461 148.177 248.619 148.086L251.235 146.58L251.272 146.542C251.296 146.498 251.283 146.439 251.235 146.411H251.234L248.953 145.09Z" fill="#155C6D"/>
<path d="M240.196 150.036L242.467 151.357C242.689 151.486 242.964 151.486 243.187 151.358L245.802 149.851C245.959 149.761 245.959 149.535 245.802 149.445L243.521 148.124C243.298 147.995 243.025 147.995 242.802 148.124L240.195 149.63C240.039 149.72 240.038 149.945 240.195 150.036H240.196Z" fill="#C8DAE8"/>
<path d="M242.835 147.956C243.079 147.854 243.358 147.872 243.59 148.006L243.589 148.007L245.871 149.327H245.87C246.119 149.469 246.119 149.829 245.87 149.971L245.869 149.97L243.255 151.477H243.254C242.989 151.629 242.662 151.629 242.398 151.475V151.476L240.16 150.174H240.158L240.127 150.156C239.878 150.011 239.88 149.654 240.127 149.511L242.733 148.006L242.835 147.956ZM243.453 148.244C243.272 148.139 243.051 148.139 242.871 148.244H242.87L240.263 149.748C240.199 149.786 240.199 149.878 240.262 149.916L240.265 149.918L242.536 151.239L242.605 151.273C242.77 151.341 242.96 151.331 243.119 151.24L245.734 149.733L245.771 149.696C245.795 149.652 245.783 149.592 245.734 149.564H245.733L243.453 148.244Z" fill="#155C6D"/>
<path d="M206.478 127.408C215.128 127.019 215.444 126.703 215.832 118.044C216.221 126.703 216.536 127.019 225.187 127.408C216.536 127.797 216.221 128.113 215.832 136.773C215.444 128.113 215.128 127.797 206.478 127.408Z" fill="#C8DAE8"/>
<path d="M215.833 118.044C216.221 126.703 216.536 127.019 225.186 127.408C216.536 127.797 216.221 128.113 215.833 136.772C215.444 128.113 215.128 127.797 206.478 127.408C215.128 127.019 215.444 126.703 215.833 118.044ZM215.783 123.169C215.558 124.451 215.194 125.403 214.511 126.086C213.829 126.769 212.879 127.134 211.597 127.358C211.494 127.377 211.388 127.392 211.279 127.408C211.388 127.425 211.494 127.44 211.597 127.458C212.879 127.683 213.829 128.048 214.511 128.73C215.194 129.413 215.558 130.365 215.783 131.647C215.801 131.75 215.816 131.855 215.832 131.962C215.848 131.855 215.864 131.75 215.882 131.647C216.106 130.365 216.471 129.413 217.153 128.73C217.835 128.048 218.786 127.683 220.067 127.458C220.17 127.44 220.276 127.425 220.385 127.408C220.276 127.392 220.17 127.376 220.067 127.358C218.786 127.134 217.835 126.769 217.153 126.086C216.471 125.403 216.106 124.451 215.882 123.169C215.864 123.066 215.848 122.961 215.832 122.854C215.815 122.961 215.801 123.067 215.783 123.169Z" fill="#155C6D"/>
<path d="M244.826 122.609C248.626 122.42 248.764 122.266 248.935 118.044C249.105 122.266 249.244 122.42 253.044 122.609C249.244 122.799 249.105 122.953 248.935 127.174C248.764 122.953 248.626 122.799 244.826 122.609Z" fill="#C8DAE8"/>
<path d="M248.935 118.044C249.105 122.266 249.244 122.42 253.044 122.609C249.244 122.799 249.105 122.953 248.935 127.175C248.764 122.953 248.626 122.799 244.826 122.609C248.626 122.42 248.764 122.266 248.935 118.044ZM248.935 121.33C248.834 121.622 248.701 121.874 248.513 122.083C248.294 122.326 248.022 122.491 247.702 122.608C248.023 122.726 248.294 122.893 248.513 123.136C248.701 123.345 248.834 123.596 248.935 123.888C249.034 123.596 249.168 123.345 249.356 123.136C249.575 122.893 249.846 122.726 250.166 122.608C249.846 122.491 249.575 122.326 249.356 122.083C249.168 121.874 249.035 121.622 248.935 121.33Z" fill="#155C6D"/>
<path d="M195.261 157.028C195.488 156.686 194.929 156.382 194.702 156.723C194.4 157.172 194.043 157.582 193.644 157.946C192.799 158.681 191.812 159.233 190.743 159.57C189.674 159.906 188.548 160.018 187.434 159.9C186.143 159.763 184.896 159.347 183.779 158.683C182.661 158.018 181.701 157.121 180.959 156.05C180.24 155.021 179.437 153.658 180.085 152.406C180.665 151.286 181.955 151.386 182.837 152.079C184.125 153.081 185.095 154.821 185.622 156.342C186.086 157.649 186.236 159.047 186.056 160.422C185.795 162.349 184.853 164.508 183.172 165.627C181.489 166.746 179.151 165.917 177.519 165.114C175.778 164.254 174.28 163.065 172.647 162.032C172.347 161.842 171.823 161.447 171.469 161.743C171.023 162.119 171.631 163.04 171.797 163.39C172.663 165.077 173.326 166.863 173.775 168.708C173.893 169.284 174.121 170.237 173.849 170.81C173.747 170.963 173.607 171.087 173.443 171.172C173.279 171.257 173.097 171.299 172.913 171.295C171.744 171.345 170.58 171.076 169.55 170.516C168.517 170.019 167.458 169.308 166.967 168.23L166.542 168.68C167.404 169.089 168.202 169.619 168.914 170.254C169.731 171.009 170.513 172.246 170.006 173.342C169.498 174.436 168.131 174.869 167.024 174.97C165.119 175.144 163.272 174.556 161.569 173.751C160.982 173.472 160.261 173.206 159.654 173.576C159.127 173.9 158.911 174.563 158.74 175.125C158.491 175.957 158.324 176.809 158.045 177.632C157.722 178.646 157.186 179.579 156.475 180.369C155.547 181.28 154.408 181.947 153.159 182.308C150.723 183.154 147.989 183.631 145.48 182.808C144.057 182.328 142.806 181.44 141.884 180.254C141.81 180.169 140.845 178.405 140.504 179.225C140.343 179.619 140.821 180.368 140.969 180.703C141.547 181.999 142.182 183.275 142.817 184.542C143.345 185.58 144.129 186.629 143.832 187.852C143.563 188.712 143.056 189.477 142.371 190.059C140.309 192.032 137.609 193.376 135.121 194.721C131.549 196.643 127.951 198.493 124.455 200.54C124.1 200.747 124.438 201.291 124.792 201.083C125.762 200.517 126.737 199.957 127.723 199.413C131.087 197.548 134.531 195.832 137.867 193.921C139.99 192.707 142.452 191.367 143.847 189.295C144.337 188.62 144.57 187.791 144.508 186.956C144.433 186.436 144.26 185.937 143.998 185.483C143.535 184.577 143.079 183.684 142.639 182.781C142.14 181.766 141.618 180.751 141.215 179.689C141.192 179.581 141.16 179.475 141.121 179.372C141.102 179.306 141.046 179.296 141.115 179.352C141.183 179.406 140.631 179.57 140.631 179.57C140.675 179.615 140.712 179.667 140.742 179.723C140.948 180.03 141.158 180.336 141.39 180.626C142.276 181.716 143.411 182.578 144.7 183.137C145.987 183.695 147.388 183.936 148.788 183.839C150.097 183.766 151.392 183.532 152.644 183.14C153.923 182.821 155.133 182.267 156.209 181.505C157.913 180.149 158.612 178.176 159.137 176.134C159.285 175.545 159.401 174.709 159.852 174.26C160.402 173.712 161.385 174.401 161.897 174.635C163.503 175.397 165.279 175.738 167.051 175.624C168.203 175.505 169.444 175.111 170.195 174.179C172.201 171.674 168.746 169.131 166.798 168.146C166.736 168.113 166.666 168.101 166.597 168.112C166.528 168.124 166.463 168.158 166.415 168.208C166.367 168.26 166.338 168.325 166.332 168.395C166.325 168.463 166.341 168.534 166.377 168.595C166.631 169.122 166.993 169.59 167.442 169.965C168.46 170.825 169.665 171.436 170.962 171.749C171.866 171.981 173.137 172.191 173.964 171.592C174.138 171.455 174.279 171.279 174.373 171.077C174.468 170.877 174.512 170.655 174.506 170.432C174.538 169.574 174.434 168.717 174.195 167.89C173.7 165.992 172.776 164.292 172.035 162.494C172.012 162.367 171.975 162.244 171.926 162.126C171.92 162.107 171.955 162.117 171.926 162.126C171.865 162.184 171.799 162.236 171.73 162.283C171.78 162.293 171.828 162.312 171.874 162.338C171.989 162.396 172.096 162.458 172.204 162.524C172.973 162.984 173.681 163.524 174.417 164.021C176.334 165.312 178.529 166.64 180.892 166.778C181.853 166.869 182.816 166.627 183.618 166.091C184.408 165.497 185.063 164.74 185.54 163.872C186.208 162.69 186.611 161.376 186.721 160.021C186.83 158.667 186.644 157.303 186.175 156.029C185.869 155.191 185.464 154.392 184.97 153.649C184.501 152.865 183.907 152.165 183.21 151.575C182.31 150.879 181.062 150.61 180.115 151.373C179.169 152.137 179.031 153.494 179.413 154.589C179.98 156.007 180.89 157.263 182.06 158.241C185.853 161.575 192.313 161.442 195.261 157.051L195.264 157.034L195.261 157.028Z" fill="#155C6D"/>
<path d="M240.261 108.913C240.261 109.922 239.443 110.739 238.435 110.739C237.426 110.739 236.609 109.922 236.609 108.913C236.609 107.904 237.426 107.087 238.435 107.087C239.443 107.087 240.261 107.904 240.261 108.913Z" fill="#C8DAE8"/>
<path d="M239.896 108.913C239.896 108.106 239.242 107.452 238.435 107.452C237.628 107.452 236.974 108.106 236.974 108.913C236.974 109.72 237.628 110.374 238.435 110.374V110.739L238.248 110.729C237.389 110.642 236.706 109.959 236.618 109.1L236.609 108.913C236.609 107.905 237.426 107.087 238.435 107.087L238.621 107.097C239.542 107.19 240.261 107.968 240.261 108.913L240.251 109.1C240.158 110.02 239.38 110.739 238.435 110.739V110.374C239.242 110.374 239.896 109.72 239.896 108.913Z" fill="#155C6D"/>
<path d="M232.956 171C232.956 172.008 232.139 172.826 231.13 172.826C230.122 172.826 229.304 172.008 229.304 171C229.304 169.991 230.122 169.174 231.13 169.174C232.139 169.174 232.956 169.991 232.956 171Z" fill="#C8DAE8"/>
<path d="M232.591 171C232.591 170.193 231.937 169.539 231.13 169.539C230.324 169.539 229.67 170.193 229.67 171C229.67 171.807 230.324 172.461 231.13 172.461V172.826L230.944 172.816C230.084 172.729 229.401 172.046 229.314 171.186L229.304 171C229.304 169.991 230.122 169.174 231.13 169.174L231.317 169.184C232.238 169.277 232.956 170.054 232.956 171L232.947 171.186C232.853 172.107 232.076 172.826 231.13 172.826V172.461C231.937 172.461 232.591 171.807 232.591 171Z" fill="#155C6D"/>
</g>
<defs>
<linearGradient id="paint0_linear_9503_9331" x1="226.609" y1="136" x2="191.808" y2="177.335" gradientUnits="userSpaceOnUse">
<stop stop-color="#C8DAE8"/>
<stop offset="1" stop-color="#C8DAE8" stop-opacity="0"/>
</linearGradient>
<linearGradient id="paint1_linear_9503_9331" x1="225.609" y1="155.5" x2="183.962" y2="217.825" gradientUnits="userSpaceOnUse">
<stop stop-color="#C8DAE8"/>
<stop offset="1" stop-color="#C8DAE8" stop-opacity="0"/>
</linearGradient>
<clipPath id="clip0_9503_9331">
<rect width="218.217" height="210" fill="white" transform="translate(96 45)"/>
</clipPath>
</defs>
</svg>
