<svg width="411" height="300" viewBox="0 0 411 300" fill="none" xmlns="http://www.w3.org/2000/svg">
<path d="M174.231 153.706L173.513 153.318V241.454L174.231 241.843V153.706Z" fill="#155C6D"/>
<path d="M174.231 242.223C174.168 242.223 174.107 242.208 174.05 242.178L173.333 241.787C173.211 241.721 173.134 241.591 173.134 241.452V153.316C173.134 153.183 173.204 153.057 173.32 152.989C173.435 152.92 173.576 152.916 173.695 152.981L174.413 153.369C174.534 153.436 174.612 153.564 174.612 153.704V241.841C174.612 241.974 174.542 242.1 174.426 242.168C174.365 242.204 174.299 242.223 174.231 242.223Z" fill="#155C6D"/>
<path d="M179.598 150.496L174.234 153.704V241.843L179.598 238.632V150.496Z" fill="#70C5AD"/>
<path d="M174.234 242.223C174.17 242.223 174.105 242.206 174.047 242.174C173.929 242.105 173.853 241.98 173.853 241.843V153.704C173.853 153.571 173.923 153.446 174.039 153.377L179.404 150.169C179.522 150.098 179.668 150.096 179.786 150.165C179.904 150.233 179.98 150.359 179.98 150.496V238.63C179.98 238.764 179.909 238.889 179.794 238.958L174.428 242.17C174.367 242.206 174.303 242.223 174.234 242.223ZM174.614 153.922V241.172L179.218 238.415V151.168L174.614 153.922Z" fill="#155C6D"/>
<path d="M178.911 150.087L173.513 153.322L174.234 153.704L179.607 150.49L178.911 150.087Z" fill="#C8DAE8"/>
<path d="M174.234 154.087C174.174 154.087 174.113 154.072 174.056 154.043L173.335 153.661C173.215 153.596 173.137 153.47 173.134 153.335C173.13 153.198 173.2 153.068 173.318 152.998L178.715 149.763C178.835 149.693 178.981 149.693 179.101 149.761L179.797 150.163C179.915 150.231 179.987 150.355 179.987 150.49C179.987 150.626 179.917 150.751 179.801 150.82L174.428 154.034C174.367 154.07 174.303 154.087 174.234 154.087Z" fill="#155C6D"/>
<path d="M149.628 150.016C149.497 150.016 149.368 149.948 149.299 149.824C149.195 149.641 149.258 149.409 149.44 149.304L257.571 87.1035C257.751 86.9988 257.985 87.0616 258.089 87.2444C258.194 87.4272 258.131 87.6595 257.949 87.7642L149.816 149.965C149.757 149.999 149.692 150.016 149.628 150.016Z" fill="#155C6D"/>
<path d="M281.311 146.825V182.087L276.3 184.993V146.897L281.311 143.992V146.825Z" fill="#70C5AD"/>
<path d="M276.3 185.374C276.234 185.374 276.169 185.357 276.11 185.322C275.993 185.254 275.92 185.128 275.92 184.993V146.897C275.92 146.762 275.993 146.637 276.11 146.568L281.121 143.664C281.238 143.598 281.383 143.598 281.5 143.664C281.618 143.733 281.69 143.859 281.69 143.994V182.089C281.69 182.224 281.618 182.35 281.5 182.419L276.49 185.322C276.431 185.357 276.366 185.374 276.3 185.374ZM276.68 147.116V184.332L280.931 181.868V144.653L276.68 147.116Z" fill="#155C6D"/>
<path d="M276.3 146.898V184.993L253.68 171.893C253.68 171.893 253.648 162.856 253.695 162.827C259.756 159.314 265.943 155.731 272.003 152.221C272.003 152.221 275.19 149.952 276.3 146.898Z" fill="#155C6D"/>
<path d="M276.3 185.374C276.234 185.374 276.169 185.357 276.11 185.322L253.491 172.222C253.373 172.154 253.301 172.028 253.301 171.893C253.268 125.997 253.268 162.639 253.504 162.5L271.813 151.892C271.813 151.892 274.888 149.672 275.943 146.768C276.006 146.595 276.175 146.484 276.366 146.524C276.549 146.557 276.681 146.715 276.681 146.899V184.995C276.681 185.13 276.609 185.258 276.492 185.324C276.433 185.358 276.368 185.376 276.302 185.376L276.3 185.374ZM254.058 171.672L275.918 184.332V148.552C274.525 150.873 272.333 152.452 272.221 152.53L254.069 163.048C254.037 165.67 254.049 156.679 254.058 171.672Z" fill="#155C6D"/>
<path d="M176.236 174.063L175.518 173.675V261.811L176.236 262.199V174.063Z" fill="#155C6D"/>
<path d="M176.236 262.58C176.173 262.58 176.112 262.565 176.055 262.535L175.338 262.144C175.216 262.078 175.139 261.948 175.139 261.809V173.673C175.139 173.54 175.209 173.414 175.325 173.345C175.44 173.277 175.581 173.273 175.7 173.338L176.418 173.728C176.539 173.795 176.617 173.924 176.617 174.063V262.199C176.617 262.333 176.547 262.458 176.431 262.527C176.37 262.563 176.304 262.58 176.236 262.58Z" fill="#155C6D"/>
<path d="M181.605 170.853L176.239 174.063V262.199L181.605 258.989V170.853Z" fill="#C8DAE8"/>
<path d="M176.239 262.58C176.175 262.58 176.11 262.563 176.051 262.531C175.934 262.462 175.858 262.337 175.858 262.199V174.061C175.858 173.928 175.928 173.802 176.044 173.734L181.409 170.525C181.527 170.457 181.673 170.453 181.791 170.522C181.909 170.59 181.984 170.716 181.984 170.853V258.989C181.984 259.122 181.914 259.248 181.798 259.317L176.433 262.527C176.372 262.563 176.306 262.58 176.237 262.58H176.239ZM176.619 174.278V261.529L181.223 258.772V171.523L176.619 174.278Z" fill="#155C6D"/>
<path d="M180.918 170.445L175.518 173.679L176.239 174.063L181.614 170.847L180.918 170.445Z" fill="#C8DAE8"/>
<path d="M176.239 174.444C176.179 174.444 176.118 174.429 176.061 174.4L175.34 174.018C175.22 173.953 175.142 173.827 175.139 173.69C175.135 173.553 175.205 173.423 175.323 173.353L180.722 170.118C180.842 170.049 180.99 170.048 181.108 170.116L181.804 170.52C181.922 170.588 181.994 170.712 181.994 170.847C181.994 170.982 181.924 171.108 181.808 171.177L176.433 174.391C176.372 174.427 176.306 174.444 176.237 174.444H176.239Z" fill="#155C6D"/>
<path d="M181.039 204.909V240.232L176.024 243.136V204.978L181.039 202.072V204.909Z" fill="#70C5AD"/>
<path d="M176.024 243.519C175.958 243.519 175.893 243.502 175.834 243.467C175.717 243.399 175.645 243.273 175.645 243.138V204.98C175.645 204.844 175.717 204.717 175.834 204.65L180.849 201.745C180.966 201.678 181.111 201.678 181.228 201.745C181.346 201.813 181.418 201.939 181.418 202.074V240.234C181.418 240.369 181.346 240.497 181.228 240.564L176.214 243.467C176.155 243.502 176.091 243.519 176.024 243.519ZM176.404 205.197V242.477L180.659 240.013V202.733L176.404 205.197Z" fill="#155C6D"/>
<path d="M176.024 204.978V243.136L130.073 216.519V198.475C130.371 198.911 130.679 199.346 130.992 199.776C131.373 200.299 131.738 200.783 132.138 201.291C132.535 201.802 132.912 202.264 133.324 202.754C133.74 203.247 134.125 203.685 134.554 204.159C134.985 204.633 135.378 205.05 135.822 205.503C136.262 205.955 136.667 206.351 137.12 206.781C137.578 207.211 137.984 207.584 138.451 207.99C138.919 208.398 139.335 208.744 139.811 209.127C140.286 209.509 140.709 209.835 141.193 210.189C141.677 210.545 142.106 210.844 142.598 211.174C143.091 211.501 143.526 211.775 144.023 212.074C144.268 212.223 144.501 212.358 144.746 212.499C145.259 212.788 145.716 213.032 146.23 213.291C146.748 213.55 147.21 213.765 147.732 213.992C148.257 214.218 148.717 214.403 149.244 214.597C149.772 214.788 150.239 214.944 150.766 215.098C151.298 215.258 151.763 215.378 152.298 215.5C152.829 215.622 153.298 215.711 153.833 215.793C154.365 215.877 154.837 215.934 155.369 215.978C155.9 216.021 156.373 216.042 156.901 216.046C157.426 216.046 157.897 216.031 158.419 215.993C158.941 215.953 159.41 215.9 159.922 215.818C160.434 215.734 160.898 215.641 161.399 215.515C161.898 215.389 162.355 215.256 162.839 215.088C163.323 214.923 163.767 214.75 164.234 214.54C164.697 214.331 165.126 214.114 165.57 213.866C165.633 213.828 165.694 213.794 165.756 213.758C167.791 212.579 169.825 211.4 171.862 210.224C171.862 210.224 174.57 208.125 176.024 204.978Z" fill="#155C6D"/>
<path d="M130.021 198.307C130.095 198.285 130.175 198.312 130.219 198.376C130.515 198.81 130.821 199.243 131.134 199.673L131.698 200.433L132.276 201.182L132.277 201.183L132.862 201.92C133.057 202.159 133.254 202.396 133.459 202.64L134.066 203.347C134.268 203.577 134.471 203.804 134.684 204.041L135.311 204.719C135.518 204.938 135.727 205.154 135.948 205.38V205.381L136.59 206.024C136.802 206.233 137.015 206.439 137.241 206.653L137.9 207.264C138.117 207.461 138.334 207.655 138.566 207.857L139.241 208.432L139.922 208.99L140.606 209.529C140.831 209.702 141.056 209.871 141.297 210.048H141.298C141.779 210.402 142.206 210.699 142.695 211.027L143.403 211.486L144.114 211.924L144.832 212.345H144.833C145.343 212.633 145.798 212.876 146.309 213.134L147.054 213.494C147.298 213.608 147.542 213.717 147.802 213.83L148.553 214.143C148.797 214.241 149.041 214.335 149.303 214.431H149.304C149.829 214.621 150.292 214.776 150.815 214.929H150.817L151.575 215.143C151.823 215.208 152.071 215.267 152.337 215.328H152.338L153.098 215.488C153.346 215.535 153.595 215.578 153.86 215.619H153.861L154.622 215.725C154.871 215.755 155.12 215.781 155.384 215.802C155.91 215.846 156.378 215.865 156.901 215.869C157.423 215.869 157.889 215.855 158.405 215.817L159.154 215.746C159.398 215.718 159.64 215.685 159.893 215.644L160.63 215.51C160.87 215.461 161.108 215.407 161.355 215.344L161.72 215.249C162.078 215.151 162.422 215.047 162.781 214.923L162.782 214.922L163.135 214.797C163.482 214.67 163.816 214.535 164.162 214.38L164.5 214.222C164.831 214.064 165.151 213.898 165.478 213.716L165.668 213.605L171.76 210.079C171.764 210.075 171.773 210.069 171.783 210.061C171.803 210.046 171.832 210.023 171.869 209.992C171.944 209.93 172.055 209.836 172.191 209.715C172.465 209.472 172.844 209.115 173.269 208.661C174.121 207.751 175.148 206.455 175.864 204.904C175.899 204.829 175.982 204.788 176.062 204.805C176.143 204.823 176.2 204.896 176.2 204.978V243.136C176.2 243.199 176.167 243.257 176.112 243.289C176.058 243.32 175.991 243.319 175.936 243.288L129.985 216.672C129.931 216.64 129.897 216.582 129.897 216.519V198.475C129.897 198.398 129.948 198.33 130.021 198.307ZM130.249 216.418L175.849 242.831V205.719C175.148 207.019 174.269 208.108 173.526 208.901C173.093 209.365 172.705 209.729 172.425 209.978C172.285 210.102 172.172 210.198 172.094 210.262C172.054 210.295 172.024 210.32 172.003 210.337C171.992 210.345 171.984 210.352 171.978 210.356C171.976 210.358 171.974 210.36 171.973 210.361L171.971 210.362H171.97V210.363C171.963 210.368 171.957 210.372 171.95 210.376L165.845 213.91C165.78 213.947 165.722 213.98 165.662 214.016L165.656 214.02C165.32 214.208 164.992 214.377 164.652 214.54L164.307 214.701C163.953 214.86 163.611 214.998 163.257 215.128L162.896 215.255C162.529 215.382 162.178 215.489 161.812 215.589L161.441 215.685C160.935 215.812 160.467 215.906 159.95 215.991V215.992C159.432 216.075 158.959 216.128 158.432 216.169H158.432C157.905 216.207 157.43 216.222 156.9 216.222H156.899C156.367 216.219 155.89 216.197 155.354 216.153C155.086 216.131 154.833 216.105 154.58 216.075L153.807 215.967C153.537 215.925 153.284 215.883 153.031 215.835L152.259 215.672C151.721 215.549 151.252 215.427 150.717 215.266V215.267C150.185 215.112 149.715 214.954 149.184 214.762H149.183C148.653 214.567 148.19 214.381 147.662 214.153H147.661C147.399 214.039 147.152 213.928 146.905 213.813L146.151 213.448C145.634 213.188 145.174 212.943 144.659 212.652L144.658 212.651C144.413 212.51 144.179 212.374 143.932 212.224V212.225C143.683 212.075 143.448 211.931 143.215 211.784L142.5 211.32C142.007 210.989 141.575 210.689 141.089 210.331V210.332C140.603 209.976 140.178 209.648 139.701 209.263V209.264C139.462 209.072 139.238 208.889 139.016 208.703L138.335 208.123C137.866 207.715 137.458 207.34 137 206.909H136.999C136.771 206.693 136.556 206.485 136.343 206.275L135.696 205.627C135.473 205.399 135.263 205.181 135.055 204.96L134.424 204.277C134.209 204.039 134.004 203.811 133.802 203.58L133.189 202.867C132.776 202.376 132.397 201.912 131.999 201.399V201.398C131.798 201.144 131.606 200.896 131.417 200.645L130.849 199.88C130.646 199.601 130.446 199.319 130.249 199.037V216.418Z" fill="#155C6D"/>
<path d="M176.024 243.519C175.958 243.519 175.893 243.502 175.834 243.467L129.883 216.85C129.766 216.782 129.694 216.656 129.694 216.521V198.477C129.694 198.312 129.802 198.163 129.961 198.114C130.121 198.062 130.293 198.125 130.386 198.262C130.682 198.696 130.988 199.127 131.299 199.553C131.679 200.073 132.039 200.553 132.436 201.057C132.831 201.568 133.205 202.023 133.615 202.508C134.028 202.998 134.41 203.434 134.837 203.904C135.264 204.374 135.653 204.787 136.093 205.237C136.532 205.686 136.932 206.078 137.382 206.507C137.834 206.931 138.236 207.301 138.699 207.703C139.166 208.108 139.578 208.451 140.051 208.832C140.521 209.211 140.939 209.532 141.419 209.883C141.899 210.235 142.324 210.532 142.81 210.859C143.298 211.181 143.727 211.454 144.22 211.751C144.463 211.899 144.695 212.03 144.936 212.169C145.441 212.455 145.892 212.695 146.403 212.952C146.915 213.207 147.369 213.42 147.885 213.645C148.402 213.87 148.857 214.051 149.377 214.241C149.895 214.43 150.356 214.582 150.876 214.736C151.4 214.894 151.858 215.014 152.383 215.132C152.905 215.252 153.367 215.342 153.89 215.42C154.414 215.504 154.879 215.559 155.399 215.601C155.921 215.643 156.384 215.665 156.902 215.667C157.417 215.667 157.88 215.652 158.392 215.616C158.901 215.576 159.36 215.524 159.863 215.444C160.364 215.365 160.816 215.271 161.306 215.149C161.809 215.026 162.255 214.892 162.714 214.732C163.19 214.571 163.623 214.399 164.079 214.195C164.53 213.992 164.95 213.778 165.384 213.537L165.555 213.436L171.668 209.896C171.668 209.896 174.28 207.836 175.673 204.82C175.749 204.658 175.927 204.576 176.1 204.608C176.275 204.646 176.398 204.803 176.398 204.98V243.138C176.398 243.273 176.326 243.401 176.208 243.467C176.149 243.502 176.085 243.519 176.018 243.519H176.024ZM130.453 216.3L175.645 242.477V206.486C174.153 208.914 172.194 210.452 172.095 210.526L165.771 214.194C165.303 214.454 164.866 214.675 164.394 214.889C163.915 215.102 163.462 215.281 162.964 215.45C162.486 215.616 162.017 215.755 161.494 215.886C160.981 216.014 160.51 216.109 159.988 216.195C159.463 216.277 158.984 216.332 158.453 216.374C157.92 216.412 157.438 216.429 156.904 216.429C156.363 216.427 155.881 216.402 155.342 216.358C154.801 216.315 154.319 216.258 153.778 216.172C153.236 216.09 152.759 215.999 152.218 215.873C151.675 215.751 151.201 215.627 150.662 215.465C150.127 215.307 149.654 215.149 149.121 214.957C148.584 214.761 148.117 214.574 147.585 214.344C147.056 214.114 146.591 213.896 146.065 213.634C145.543 213.371 145.08 213.125 144.562 212.834C144.311 212.691 144.076 212.556 143.827 212.404C143.328 212.103 142.888 211.825 142.391 211.495C141.893 211.16 141.461 210.859 140.971 210.501C140.481 210.144 140.054 209.814 139.576 209.428C139.098 209.041 138.678 208.693 138.204 208.281C137.733 207.872 137.323 207.495 136.862 207.063C136.405 206.627 135.997 206.229 135.552 205.774C135.106 205.319 134.712 204.898 134.277 204.42C133.844 203.944 133.457 203.5 133.038 203.003C132.622 202.51 132.242 202.045 131.842 201.529C131.442 201.019 131.075 200.534 130.69 200.006C130.61 199.9 130.532 199.791 130.456 199.684V216.306L130.453 216.3Z" fill="#155C6D"/>
<path d="M173.105 197.476C173.105 199.027 172.997 200.587 172.779 202.15C172.348 205.261 171.154 208.11 169.199 210.686C168.227 211.97 167.081 212.992 165.76 213.756C165.697 213.794 165.637 213.828 165.574 213.864C165.13 214.11 164.701 214.329 164.238 214.538C163.771 214.748 163.327 214.921 162.843 215.087C162.359 215.254 161.902 215.389 161.402 215.513C160.901 215.637 160.44 215.73 159.926 215.816C159.413 215.898 158.945 215.949 158.423 215.991C157.901 216.029 157.428 216.044 156.904 216.044C156.377 216.04 155.904 216.02 155.373 215.976C154.841 215.932 154.369 215.877 153.837 215.791C153.304 215.711 152.833 215.62 152.302 215.498C151.768 215.376 151.302 215.254 150.77 215.096C150.243 214.94 149.776 214.784 149.248 214.595C148.72 214.401 148.259 214.218 147.735 213.99C147.213 213.761 146.754 213.548 146.234 213.289C145.718 213.03 145.262 212.786 144.75 212.497C144.505 212.356 144.272 212.223 144.027 212.072C143.53 211.773 143.095 211.499 142.601 211.172C142.11 210.84 141.683 210.541 141.197 210.187C140.713 209.831 140.29 209.508 139.815 209.125C139.341 208.742 138.923 208.396 138.454 207.988C137.989 207.583 137.581 207.209 137.124 206.779C136.67 206.349 136.266 205.953 135.826 205.501C135.382 205.05 134.991 204.631 134.558 204.157C134.129 203.683 133.744 203.243 133.328 202.752C132.914 202.263 132.539 201.802 132.142 201.29C131.741 200.781 131.377 200.298 130.996 199.774C130.682 199.344 130.375 198.911 130.077 198.473C128.931 196.805 127.877 195.073 126.911 193.275C126.609 192.717 126.311 192.131 126.029 191.563C125.75 190.996 125.467 190.398 125.209 189.825C124.951 189.256 124.687 188.645 124.453 188.068C124.218 187.494 123.975 186.87 123.764 186.295C123.55 185.722 123.334 185.09 123.144 184.513C122.954 183.94 122.758 183.3 122.593 182.727C122.428 182.15 122.257 181.512 122.119 180.937C121.978 180.364 121.832 179.722 121.718 179.151C121.601 178.58 121.485 177.942 121.396 177.374C121.303 176.811 121.215 176.175 121.151 175.613C121.086 175.051 121.028 174.423 120.986 173.867C120.948 173.313 120.917 172.688 120.906 172.14C120.893 171.601 120.893 171.003 120.91 170.472C120.923 169.943 120.953 169.356 120.993 168.838C121.033 168.318 121.092 167.741 121.16 167.233C121.225 166.725 121.318 166.161 121.413 165.662C121.51 165.167 121.633 164.615 121.754 164.131C121.878 163.646 122.033 163.113 122.189 162.642C122.341 162.172 122.527 161.65 122.711 161.195C122.897 160.74 123.117 160.241 123.332 159.805C123.546 159.365 123.8 158.889 124.045 158.471C124.294 158.05 124.582 157.598 124.859 157.202C125.138 156.803 125.459 156.38 125.77 156.009C126.082 155.635 126.435 155.241 126.774 154.897C127.12 154.55 127.501 154.192 127.871 153.878C128.243 153.56 128.653 153.242 129.056 152.958C129.456 152.674 129.891 152.397 130.318 152.151C135.266 149.283 142.011 150.786 147.407 153.545C152.875 156.34 156.954 160.426 160.514 164.986C164.118 169.602 167.187 174.71 169.436 180.206C171.682 185.701 173.111 191.588 173.111 197.472L173.105 197.476ZM161.256 206.103C162.74 203.515 163.158 200.505 163.076 197.476C163.048 196.457 162.968 195.438 162.851 194.427C162.256 189.387 160.801 184.68 158.601 180.249C156.399 175.815 153.45 171.66 149.977 168.122C147.2 165.299 144.087 162.871 140.356 161.29C137.585 160.116 134.473 159.407 131.643 160.137C128.819 160.866 126.275 163.033 124.793 165.617C122.808 169.08 122.73 173.29 123.199 177.292C123.789 182.332 125.249 187.041 127.448 191.47C129.65 195.905 132.595 200.063 136.072 203.597C138.847 206.421 141.962 208.849 145.691 210.433C148.466 211.608 151.575 212.316 154.405 211.583C157.233 210.854 159.774 208.687 161.256 206.103Z" fill="#70C5AD"/>
<path d="M156.902 216.427C156.361 216.425 155.879 216.4 155.34 216.357C154.799 216.313 154.317 216.256 153.776 216.17C153.234 216.088 152.757 215.997 152.216 215.871C151.674 215.749 151.199 215.625 150.66 215.464C150.125 215.305 149.652 215.147 149.119 214.955C148.582 214.759 148.115 214.572 147.584 214.342C147.054 214.112 146.589 213.895 146.063 213.632C145.541 213.369 145.078 213.123 144.56 212.832C144.31 212.689 144.074 212.554 143.826 212.402C143.326 212.101 142.886 211.823 142.389 211.493C141.892 211.158 141.459 210.858 140.969 210.5C140.48 210.142 140.052 209.812 139.574 209.426C139.096 209.039 138.676 208.691 138.202 208.279C137.731 207.87 137.321 207.493 136.86 207.061C136.403 206.625 135.995 206.227 135.551 205.772C135.105 205.317 134.71 204.896 134.275 204.418C133.842 203.942 133.455 203.498 133.036 203.001C132.62 202.508 132.241 202.044 131.84 201.528C131.44 201.017 131.073 200.532 130.688 200.004C130.371 199.57 130.062 199.134 129.762 198.694C128.625 197.04 127.553 195.278 126.575 193.46C126.273 192.9 125.974 192.31 125.689 191.739C125.406 191.165 125.121 190.564 124.861 189.985C124.601 189.412 124.336 188.795 124.1 188.214C123.863 187.639 123.62 187.011 123.408 186.428C123.193 185.853 122.973 185.215 122.781 184.634C122.59 184.058 122.392 183.412 122.227 182.835C122.062 182.252 121.887 181.607 121.747 181.032C121.606 180.453 121.46 179.804 121.344 179.229C121.227 178.656 121.109 178.01 121.018 177.439C120.925 176.87 120.836 176.228 120.771 175.661C120.705 175.095 120.646 174.459 120.604 173.897C120.566 173.338 120.536 172.707 120.525 172.151C120.511 171.607 120.511 171.001 120.526 170.464C120.54 169.929 120.57 169.337 120.612 168.812C120.652 168.284 120.712 167.7 120.781 167.185C120.847 166.673 120.94 166.1 121.035 165.596C121.134 165.091 121.259 164.531 121.382 164.042C121.508 163.547 121.667 163.004 121.825 162.526C121.978 162.05 122.17 161.521 122.354 161.056C122.546 160.592 122.77 160.083 122.988 159.64C123.204 159.194 123.464 158.708 123.715 158.282C123.969 157.854 124.264 157.393 124.544 156.989C124.854 156.549 125.176 156.127 125.474 155.769C125.791 155.388 126.152 154.986 126.499 154.634C126.854 154.278 127.243 153.914 127.619 153.592C128.002 153.267 128.42 152.941 128.832 152.652C129.229 152.372 129.675 152.086 130.122 151.825C136.363 148.213 144.406 151.589 147.574 153.21C152.366 155.66 156.57 159.329 160.806 164.756C164.583 169.594 167.603 174.743 169.782 180.065C172.24 186.076 173.487 191.935 173.487 197.478C173.487 199.041 173.375 200.633 173.156 202.205C172.716 205.372 171.488 208.304 169.503 210.92C168.506 212.238 167.311 213.304 165.95 214.091L165.773 214.195C165.305 214.456 164.868 214.677 164.395 214.89C163.917 215.104 163.464 215.283 162.966 215.452C162.488 215.618 162.019 215.757 161.495 215.888C160.985 216.014 160.512 216.111 159.99 216.197C159.465 216.278 158.986 216.334 158.455 216.376C157.922 216.414 157.44 216.431 156.906 216.431L156.902 216.427ZM136.537 150.976C134.48 150.976 132.394 151.387 130.5 152.486C130.071 152.733 129.646 153.006 129.268 153.274C128.876 153.552 128.477 153.863 128.111 154.173C127.75 154.481 127.374 154.832 127.038 155.171C126.71 155.506 126.363 155.892 126.057 156.258C125.77 156.601 125.463 157.004 125.167 157.427C124.896 157.815 124.613 158.257 124.37 158.67C124.131 159.08 123.88 159.546 123.669 159.979C123.457 160.409 123.241 160.898 123.058 161.346C122.88 161.789 122.696 162.301 122.546 162.764C122.392 163.229 122.24 163.752 122.117 164.232C121.997 164.708 121.876 165.251 121.779 165.74C121.688 166.23 121.595 166.786 121.532 167.286C121.464 167.791 121.407 168.358 121.367 168.872C121.327 169.385 121.297 169.964 121.284 170.487C121.269 171.013 121.269 171.603 121.282 172.136C121.293 172.681 121.326 173.298 121.362 173.846C121.401 174.394 121.46 175.017 121.525 175.573C121.589 176.129 121.675 176.759 121.766 177.317C121.855 177.881 121.969 178.513 122.087 179.078C122.2 179.646 122.347 180.284 122.483 180.853C122.622 181.42 122.793 182.054 122.956 182.628C123.119 183.193 123.313 183.829 123.502 184.398C123.69 184.972 123.905 185.598 124.119 186.167C124.33 186.742 124.571 187.361 124.804 187.929C125.038 188.504 125.298 189.109 125.554 189.675C125.81 190.244 126.091 190.84 126.368 191.402C126.647 191.963 126.945 192.546 127.243 193.1C128.207 194.894 129.266 196.632 130.388 198.264C130.684 198.698 130.99 199.128 131.301 199.557C131.681 200.075 132.041 200.555 132.438 201.059C132.833 201.569 133.207 202.024 133.617 202.51C134.03 202.999 134.412 203.435 134.839 203.906C135.266 204.376 135.655 204.789 136.095 205.239C136.534 205.688 136.934 206.08 137.384 206.509C137.836 206.933 138.238 207.303 138.701 207.704C139.168 208.11 139.58 208.453 140.052 208.833C140.523 209.212 140.941 209.534 141.421 209.885C141.901 210.237 142.326 210.534 142.812 210.861C143.3 211.183 143.729 211.455 144.222 211.752C144.465 211.901 144.697 212.032 144.938 212.171C145.443 212.457 145.894 212.697 146.405 212.954C146.917 213.209 147.371 213.422 147.887 213.647C148.403 213.872 148.859 214.053 149.379 214.243C149.897 214.431 150.358 214.584 150.878 214.738C151.402 214.896 151.86 215.016 152.385 215.134C152.907 215.254 153.368 215.344 153.892 215.422C154.416 215.505 154.881 215.561 155.401 215.602C155.923 215.644 156.386 215.667 156.904 215.669C157.419 215.669 157.882 215.654 158.394 215.618C158.903 215.578 159.362 215.526 159.865 215.446C160.366 215.366 160.818 215.273 161.308 215.151C161.81 215.027 162.256 214.894 162.716 214.734C163.192 214.572 163.625 214.401 164.08 214.197C164.532 213.994 164.952 213.78 165.386 213.538L165.557 213.438C166.836 212.697 167.956 211.697 168.892 210.461C170.795 207.95 171.976 205.138 172.397 202.103C172.612 200.564 172.72 199.01 172.72 197.481C172.72 192.039 171.494 186.278 169.074 180.358C166.922 175.101 163.938 170.011 160.205 165.23C156.039 159.893 151.915 156.29 147.225 153.891C145.147 152.829 140.899 150.98 136.536 150.98L136.537 150.976ZM151.958 212.261C150.015 212.261 147.866 211.768 145.541 210.781C142.142 209.34 138.957 207.076 135.799 203.864C132.334 200.339 129.327 196.112 127.105 191.64C124.837 187.072 123.394 182.258 122.817 177.336C122.218 172.212 122.738 168.429 124.459 165.426C126.072 162.612 128.722 160.498 131.544 159.767C134.101 159.108 137.114 159.504 140.5 160.938C143.896 162.376 147.082 164.638 150.244 167.854C153.716 171.39 156.722 175.617 158.939 180.078C161.203 184.64 162.646 189.452 163.226 194.381C163.35 195.452 163.428 196.489 163.456 197.464C163.551 201.046 162.94 203.932 161.585 206.292C159.969 209.108 157.32 211.221 154.498 211.95C153.697 212.158 152.848 212.261 151.958 212.261ZM134.082 160.22C133.256 160.22 132.474 160.316 131.734 160.506C129.145 161.174 126.609 163.206 125.118 165.805C123.483 168.659 122.992 172.294 123.573 177.247C124.138 182.083 125.556 186.811 127.786 191.299C129.973 195.701 132.931 199.861 136.34 203.329C139.426 206.469 142.533 208.679 145.836 210.081C149.068 211.45 151.917 211.832 154.306 211.212C156.897 210.543 159.432 208.514 160.924 205.913C162.207 203.679 162.786 200.922 162.695 197.485C162.668 196.533 162.592 195.518 162.469 194.471C161.9 189.631 160.482 184.903 158.256 180.419C156.075 176.028 153.116 171.868 149.702 168.389C146.612 165.247 143.505 163.038 140.204 161.641C137.972 160.694 135.924 160.22 134.082 160.22Z" fill="#155C6D"/>
<path d="M163.076 197.476C163.156 200.505 162.74 203.515 161.256 206.103C159.774 208.687 157.231 210.854 154.403 211.583C151.573 212.316 148.462 211.608 145.689 210.433C141.962 208.849 138.845 206.421 136.071 203.597C132.594 200.063 129.65 195.905 127.446 191.47C125.247 187.041 123.787 182.332 123.197 177.292C122.728 173.29 122.806 169.08 124.791 165.617C126.273 163.033 128.817 160.866 131.641 160.137C134.471 159.407 137.583 160.116 140.354 161.29C144.086 162.871 147.198 165.299 149.975 168.122C153.448 171.66 156.396 175.815 158.599 180.249C160.799 184.682 162.256 189.387 162.849 194.427C162.966 195.436 163.05 196.457 163.076 197.476Z" fill="#155C6D"/>
<path d="M151.958 212.261C150.015 212.261 147.866 211.768 145.541 210.781C142.142 209.34 138.957 207.076 135.799 203.864C132.334 200.339 129.327 196.112 127.105 191.64C124.837 187.072 123.394 182.258 122.817 177.336C122.218 172.212 122.738 168.429 124.459 165.426C126.072 162.612 128.722 160.498 131.544 159.767C134.101 159.108 137.114 159.504 140.5 160.938C143.896 162.376 147.082 164.638 150.244 167.854C153.716 171.39 156.722 175.617 158.939 180.078C161.203 184.64 162.646 189.452 163.226 194.382C163.35 195.452 163.428 196.489 163.456 197.464C163.551 201.046 162.94 203.934 161.585 206.292C159.969 209.108 157.32 211.221 154.498 211.95C153.697 212.158 152.848 212.261 151.958 212.261ZM134.082 160.22C133.256 160.22 132.474 160.316 131.734 160.506C129.145 161.174 126.609 163.206 125.118 165.805C123.483 168.659 122.992 172.294 123.573 177.247C124.138 182.083 125.556 186.811 127.786 191.299C129.973 195.701 132.931 199.861 136.34 203.329C139.426 206.469 142.533 208.677 145.836 210.081C149.068 211.45 151.917 211.832 154.306 211.212C156.897 210.543 159.432 208.514 160.924 205.913C162.207 203.679 162.786 200.922 162.695 197.485C162.668 196.533 162.592 195.518 162.469 194.471C161.9 189.631 160.482 184.903 158.256 180.419C156.075 176.028 153.116 171.868 149.702 168.389C146.612 165.247 143.505 163.038 140.204 161.641C137.972 160.694 135.924 160.22 134.082 160.22Z" fill="#155C6D"/>
<path d="M270.218 115.176L264.819 118.409L265.54 118.794L270.915 115.58L270.218 115.176Z" fill="#C8DAE8"/>
<path d="M265.54 119.175C265.479 119.175 265.418 119.16 265.363 119.131L264.642 118.748C264.521 118.684 264.443 118.56 264.441 118.423C264.437 118.286 264.507 118.156 264.625 118.086L270.025 114.851C270.144 114.782 270.292 114.78 270.41 114.849L271.107 115.252C271.224 115.321 271.296 115.445 271.296 115.58C271.296 115.715 271.226 115.841 271.11 115.909L265.737 119.123C265.676 119.16 265.61 119.177 265.542 119.177L265.54 119.175Z" fill="#155C6D"/>
<path d="M189.436 166.143L188.719 165.754V253.891L189.436 254.279V166.143Z" fill="#155C6D"/>
<path d="M189.436 254.66C189.374 254.66 189.313 254.645 189.256 254.614L188.538 254.224C188.417 254.157 188.339 254.028 188.339 253.889V165.752C188.339 165.619 188.409 165.494 188.525 165.425C188.641 165.356 188.781 165.353 188.901 165.417L189.618 165.808C189.74 165.874 189.818 166.004 189.818 166.143V254.279C189.818 254.412 189.747 254.538 189.632 254.606C189.571 254.643 189.505 254.66 189.436 254.66Z" fill="#155C6D"/>
<path d="M194.805 162.933L189.44 166.143V254.279L194.805 251.069V162.933Z" fill="#C8DAE8"/>
<path d="M194.806 160.292L189.44 163.503V205.877L194.806 202.666V160.292Z" fill="#70C5AD"/>
<path d="M189.44 254.66C189.375 254.66 189.311 254.643 189.252 254.61C189.134 254.542 189.059 254.416 189.059 254.279V166.141C189.059 166.008 189.129 165.882 189.245 165.813L194.61 162.605C194.728 162.536 194.874 162.533 194.991 162.601C195.109 162.67 195.185 162.795 195.185 162.933V251.069C195.185 251.202 195.115 251.328 194.999 251.396L189.634 254.606C189.573 254.643 189.506 254.66 189.438 254.66H189.44ZM189.82 166.358V253.609L194.424 250.852V163.603L189.82 166.358Z" fill="#155C6D"/>
<path d="M194.118 162.525L188.719 165.758L189.44 166.143L194.815 162.927L194.118 162.525Z" fill="#C8DAE8"/>
<path d="M189.44 166.524C189.379 166.524 189.319 166.508 189.262 166.48L188.54 166.097C188.421 166.032 188.343 165.907 188.339 165.77C188.335 165.633 188.406 165.503 188.523 165.433L193.923 162.198C194.043 162.129 194.191 162.127 194.308 162.196L195.005 162.599C195.122 162.668 195.195 162.792 195.195 162.927C195.195 163.062 195.124 163.188 195.009 163.256L189.634 166.47C189.573 166.506 189.506 166.524 189.438 166.524H189.44Z" fill="#155C6D"/>
<path d="M202.139 159.534L201.422 159.145V247.282L202.139 247.67V159.534Z" fill="#155C6D"/>
<path d="M202.141 248.051C202.078 248.051 202.018 248.036 201.961 248.005L201.243 247.615C201.122 247.548 201.044 247.419 201.044 247.28V159.143C201.044 159.01 201.114 158.884 201.23 158.816C201.346 158.747 201.486 158.744 201.606 158.808L202.323 159.199C202.445 159.265 202.523 159.395 202.523 159.534V247.67C202.523 247.803 202.452 247.929 202.337 247.997C202.276 248.034 202.209 248.051 202.141 248.051Z" fill="#155C6D"/>
<path d="M207.508 156.325L202.145 159.534V247.672L207.508 244.46V156.325Z" fill="#C8DAE8"/>
<path d="M207.508 153.685L202.145 156.894V198.389L207.508 195.177V153.685Z" fill="#70C5AD"/>
<path d="M202.145 248.053C202.08 248.053 202.016 248.036 201.957 248.003C201.839 247.935 201.763 247.809 201.763 247.672V159.534C201.763 159.4 201.834 159.275 201.949 159.206L207.315 155.998C207.432 155.929 207.581 155.926 207.696 155.994C207.814 156.063 207.89 156.188 207.89 156.325V244.46C207.89 244.593 207.82 244.719 207.704 244.787L202.338 247.999C202.278 248.036 202.213 248.053 202.145 248.053ZM202.524 159.751V247.002L207.129 244.244V156.998L202.524 159.751Z" fill="#155C6D"/>
<path d="M206.821 155.916L201.422 159.151L202.145 159.534L207.518 156.32L206.821 155.916Z" fill="#C8DAE8"/>
<path d="M202.145 159.915C202.084 159.915 202.023 159.899 201.966 159.871L201.245 159.486C201.124 159.421 201.048 159.296 201.044 159.159C201.04 159.022 201.11 158.892 201.228 158.822L206.628 155.588C206.747 155.518 206.893 155.518 207.013 155.587L207.71 155.988C207.827 156.057 207.899 156.181 207.899 156.316C207.899 156.451 207.829 156.577 207.713 156.645L202.338 159.859C202.278 159.896 202.211 159.913 202.143 159.913L202.145 159.915Z" fill="#155C6D"/>
<path d="M214.63 152.148L213.912 151.759V239.896L214.63 240.284V152.148Z" fill="#155C6D"/>
<path d="M214.63 240.665C214.567 240.665 214.506 240.65 214.449 240.619L213.732 240.229C213.61 240.162 213.533 240.033 213.533 239.894V151.757C213.533 151.624 213.603 151.499 213.719 151.43C213.832 151.361 213.975 151.358 214.094 151.422L214.812 151.813C214.933 151.879 215.011 152.009 215.011 152.148V240.284C215.011 240.417 214.941 240.543 214.825 240.612C214.764 240.648 214.698 240.665 214.63 240.665Z" fill="#155C6D"/>
<path d="M219.999 148.939L214.633 152.148V240.284L219.999 237.074V148.939Z" fill="#C8DAE8"/>
<path d="M219.999 146.299L214.633 149.508V191.002L219.999 187.791V146.299Z" fill="#70C5AD"/>
<path d="M214.633 240.667C214.569 240.667 214.504 240.65 214.445 240.617C214.328 240.549 214.252 240.423 214.252 240.286V152.148C214.252 152.015 214.322 151.889 214.438 151.82L219.803 148.612C219.921 148.543 220.069 148.54 220.185 148.608C220.302 148.677 220.378 148.802 220.378 148.939V237.076C220.378 237.209 220.308 237.335 220.192 237.403L214.827 240.613C214.766 240.65 214.702 240.667 214.633 240.667ZM215.013 152.365V239.616L219.617 236.859V149.61L215.013 152.365Z" fill="#155C6D"/>
<path d="M219.312 148.53L213.912 151.763L214.633 152.148L220.006 148.934L219.312 148.53Z" fill="#C8DAE8"/>
<path d="M214.633 152.529C214.573 152.529 214.512 152.513 214.457 152.485L213.736 152.102C213.614 152.037 213.536 151.914 213.534 151.777C213.531 151.639 213.601 151.51 213.719 151.44L219.118 148.204C219.238 148.136 219.386 148.134 219.503 148.203L220.2 148.606C220.318 148.675 220.39 148.799 220.39 148.934C220.39 149.069 220.32 149.195 220.204 149.263L214.831 152.477C214.77 152.513 214.704 152.531 214.635 152.531L214.633 152.529Z" fill="#155C6D"/>
<path d="M227.332 144.745L226.615 144.356V232.492L227.332 232.881V144.745Z" fill="#155C6D"/>
<path d="M227.332 233.262C227.27 233.262 227.209 233.246 227.152 233.216L226.437 232.826C226.315 232.759 226.237 232.629 226.237 232.49V144.354C226.237 144.221 226.308 144.095 226.423 144.027C226.539 143.958 226.68 143.954 226.799 144.019L227.515 144.41C227.636 144.476 227.714 144.606 227.714 144.745V232.881C227.714 233.014 227.644 233.14 227.528 233.208C227.467 233.244 227.401 233.262 227.332 233.262Z" fill="#155C6D"/>
<path d="M232.702 141.536L227.336 144.745V232.883L232.702 229.671V141.536Z" fill="#C8DAE8"/>
<path d="M232.702 138.896L227.336 142.105V183.6L232.702 180.388V138.896Z" fill="#70C5AD"/>
<path d="M227.336 233.264C227.272 233.264 227.207 233.246 227.148 233.214C227.031 233.145 226.955 233.02 226.955 232.883V144.745C226.955 144.611 227.025 144.486 227.141 144.417L232.506 141.209C232.624 141.14 232.77 141.136 232.888 141.205C233.005 141.273 233.081 141.399 233.081 141.536V229.672C233.081 229.806 233.011 229.931 232.895 230L227.53 233.21C227.469 233.246 227.405 233.264 227.336 233.264ZM227.718 144.962V232.212L232.322 229.455V142.206L227.718 144.962Z" fill="#155C6D"/>
<path d="M232.015 141.127L226.615 144.362L227.336 144.745L232.711 141.531L232.015 141.127Z" fill="#C8DAE8"/>
<path d="M227.336 145.125C227.276 145.125 227.215 145.11 227.16 145.082L226.439 144.699C226.317 144.634 226.239 144.51 226.237 144.373C226.234 144.236 226.304 144.107 226.421 144.036L231.821 140.801C231.941 140.731 232.089 140.731 232.206 140.799L232.903 141.203C233.021 141.272 233.093 141.395 233.093 141.531C233.093 141.666 233.022 141.791 232.907 141.86L227.534 145.074C227.473 145.11 227.406 145.127 227.338 145.127L227.336 145.125Z" fill="#155C6D"/>
<path d="M239.25 137.92L238.532 137.532V225.668L239.25 226.057V137.92Z" fill="#155C6D"/>
<path d="M239.25 226.437C239.187 226.437 239.126 226.422 239.069 226.392L238.352 226.003C238.23 225.937 238.153 225.809 238.153 225.668V137.532C238.153 137.399 238.223 137.273 238.339 137.204C238.452 137.136 238.595 137.132 238.714 137.197L239.432 137.587C239.553 137.654 239.631 137.783 239.631 137.922V226.058C239.631 226.192 239.561 226.317 239.445 226.386C239.384 226.422 239.318 226.437 239.25 226.437Z" fill="#155C6D"/>
<path d="M244.617 134.712L239.253 137.92V226.057L244.617 222.846V134.712Z" fill="#C8DAE8"/>
<path d="M244.747 129.949L239.382 133.158V177.293L244.747 174.081V129.949Z" fill="#70C5AD"/>
<path d="M239.253 226.437C239.189 226.437 239.124 226.42 239.065 226.388C238.948 226.319 238.872 226.194 238.872 226.057V137.918C238.872 137.785 238.942 137.66 239.058 137.591L244.423 134.383C244.541 134.314 244.687 134.31 244.805 134.379C244.923 134.447 244.998 134.573 244.998 134.71V222.846C244.998 222.98 244.928 223.105 244.812 223.174L239.447 226.384C239.386 226.42 239.322 226.437 239.253 226.437ZM239.633 138.136V225.386L244.237 222.629V135.38L239.633 138.136Z" fill="#155C6D"/>
<path d="M243.93 134.303L238.532 137.536L239.253 137.92L244.626 134.706L243.93 134.303Z" fill="#C8DAE8"/>
<path d="M239.253 138.301C239.193 138.301 239.132 138.286 239.075 138.257L238.354 137.875C238.234 137.81 238.156 137.684 238.153 137.549C238.149 137.412 238.219 137.283 238.337 137.212L243.734 133.977C243.854 133.907 244.002 133.907 244.12 133.975L244.816 134.379C244.934 134.447 245.006 134.571 245.006 134.706C245.006 134.842 244.936 134.967 244.82 135.036L239.447 138.25C239.386 138.286 239.32 138.303 239.252 138.303L239.253 138.301Z" fill="#155C6D"/>
<path d="M251.952 130.517L251.235 130.129V218.265L251.952 218.654V130.517Z" fill="#155C6D"/>
<path d="M251.952 219.034C251.89 219.034 251.829 219.019 251.772 218.989L251.055 218.6C250.933 218.534 250.855 218.406 250.855 218.265V130.129C250.855 129.996 250.926 129.87 251.041 129.801C251.155 129.733 251.298 129.729 251.417 129.794L252.135 130.184C252.256 130.251 252.334 130.38 252.334 130.519V218.655C252.334 218.789 252.264 218.914 252.148 218.983C252.087 219.019 252.021 219.034 251.952 219.034Z" fill="#155C6D"/>
<path d="M257.322 127.309L251.956 130.517V218.655L257.322 215.443V127.309Z" fill="#C8DAE8"/>
<path d="M257.322 122.029L251.956 125.237V169.373L257.322 166.161V122.029Z" fill="#70C5AD"/>
<path d="M251.956 219.036C251.892 219.036 251.827 219.019 251.768 218.987C251.651 218.918 251.575 218.792 251.575 218.655V130.517C251.575 130.384 251.645 130.258 251.761 130.19L257.126 126.981C257.244 126.913 257.39 126.909 257.508 126.978C257.625 127.046 257.701 127.172 257.701 127.309V215.445C257.701 215.578 257.631 215.704 257.515 215.773L252.15 218.983C252.089 219.019 252.025 219.036 251.956 219.036ZM252.336 130.734V217.985L256.94 215.228V127.979L252.336 130.734Z" fill="#155C6D"/>
<path d="M256.635 126.9L251.235 130.135L251.956 130.517L257.329 127.303L256.635 126.9Z" fill="#C8DAE8"/>
<path d="M251.956 130.898C251.896 130.898 251.835 130.883 251.78 130.854L251.059 130.472C250.937 130.407 250.859 130.283 250.857 130.146C250.854 130.009 250.924 129.879 251.041 129.809L256.441 126.574C256.561 126.505 256.709 126.503 256.826 126.572L257.523 126.976C257.641 127.044 257.713 127.168 257.713 127.303C257.713 127.438 257.643 127.564 257.527 127.633L252.154 130.847C252.093 130.883 252.027 130.9 251.958 130.9L251.956 130.898Z" fill="#155C6D"/>
<path d="M290.428 125.541C290.39 124.951 290.333 124.437 290.276 123.828C290.219 123.237 290.144 122.704 290.049 122.095C289.954 121.505 289.878 120.972 289.745 120.362C289.631 119.753 289.517 119.201 289.365 118.591C289.232 117.982 289.081 117.43 288.91 116.821C288.739 116.211 288.587 115.659 288.397 115.05C288.189 114.441 288.018 113.888 287.79 113.279C287.733 113.127 287.676 112.974 287.619 112.822C287.467 112.384 287.316 111.965 287.126 111.527C286.879 110.918 286.651 110.366 286.386 109.775C285.361 107.433 284.184 105.168 282.817 102.978C282.495 102.426 282.134 101.874 281.793 101.34C281.432 100.826 281.052 100.274 280.692 99.76C280.654 99.7219 280.635 99.6648 280.597 99.6267C280.255 99.1698 279.895 98.6747 279.553 98.2368C279.173 97.7417 278.756 97.2086 278.376 96.7325C277.978 96.2756 277.541 95.7615 277.143 95.3045C276.744 94.8665 276.289 94.3715 275.871 93.9335C275.453 93.5146 274.998 93.0386 274.561 92.6388C274.144 92.2199 273.669 91.7819 273.233 91.3821C272.796 91.0012 272.303 90.5823 271.847 90.2206C271.411 89.8588 270.917 89.4589 270.462 89.1352C270.006 88.7925 269.494 88.4307 269.038 88.107C268.564 87.8024 268.051 87.4597 267.577 87.174C267.122 86.9075 266.609 86.6028 266.135 86.3553C265.679 86.0887 265.167 85.8221 264.692 85.5937C264.218 85.3842 263.686 85.1367 263.231 84.9463C263.003 84.8511 262.775 84.7749 262.547 84.6797C262.282 84.5654 261.997 84.4702 261.75 84.375C261.257 84.2227 260.725 84.0513 260.251 83.9181C259.757 83.7848 259.226 83.6515 258.752 83.5372C258.258 83.442 257.727 83.3468 257.233 83.2707C256.74 83.2135 256.208 83.1564 255.715 83.1183C255.24 83.0803 254.69 83.0803 254.216 83.0803C253.722 83.0803 253.191 83.0993 252.716 83.1564C252.223 83.1945 251.71 83.2516 251.236 83.3468C250.742 83.423 250.23 83.5372 249.755 83.6515C249.3 83.7848 248.787 83.9371 248.332 84.1085C247.933 84.2417 247.535 84.4131 247.136 84.6035C247.117 84.6035 247.079 84.6226 247.06 84.6416C247.022 84.6416 246.984 84.6607 246.946 84.6797C246.51 84.8701 246.054 85.1176 245.618 85.3652C240.512 88.2974 235.426 91.2488 230.339 94.2382C229.466 94.7523 228.593 95.2473 227.701 95.7615C225.898 96.7897 224.095 97.8369 222.292 98.8842C221.362 99.4173 220.432 99.9504 219.502 100.503C189.78 117.716 160.04 134.928 130.318 152.16C134.493 149.723 139.978 150.428 144.837 152.389C145.729 152.732 146.583 153.131 147.399 153.55C152.865 156.349 156.946 160.424 160.514 164.994C161.216 165.908 161.9 166.822 162.564 167.774C165.278 171.62 167.612 175.79 169.434 180.208C169.529 180.436 169.624 180.665 169.7 180.893C171.788 186.205 173.098 191.841 173.098 197.478C173.098 198.525 173.06 199.591 172.946 200.657C172.908 201.152 172.851 201.647 172.775 202.143C172.338 205.265 171.162 208.102 169.207 210.692C168.22 211.968 167.081 212.996 165.752 213.757C166.872 213.11 168.258 212.31 169.852 211.396C170.535 210.997 171.2 210.597 171.864 210.216C171.864 210.216 174.578 208.121 176.02 204.98L181.031 202.066V204.903C205.249 190.889 229.466 176.856 253.684 162.842C259.795 159.301 265.888 155.759 271.999 152.217C271.999 152.217 275.188 149.952 276.308 146.905L281.318 143.992V146.829C281.451 146.753 281.356 146.81 281.489 146.715C281.925 146.448 282.324 146.182 282.723 145.877C283.14 145.572 283.501 145.268 283.88 144.925C284.26 144.582 284.602 144.239 284.962 143.859C285.304 143.478 285.607 143.116 285.93 142.716C286.253 142.297 286.537 141.916 286.822 141.478C287.107 141.041 287.354 140.641 287.619 140.184C287.866 139.708 288.075 139.289 288.303 138.794C288.53 138.318 288.701 137.88 288.891 137.366C289.081 136.852 289.233 136.395 289.384 135.88C289.403 135.804 289.422 135.747 289.441 135.69C289.593 135.233 289.688 134.814 289.783 134.338C289.916 133.786 290.011 133.31 290.106 132.758C290.2 132.206 290.257 131.711 290.314 131.139C290.39 130.568 290.428 130.054 290.447 129.464C290.485 128.892 290.485 128.378 290.485 127.769V127.236C290.485 126.665 290.466 126.151 290.428 125.541Z" fill="#70C5AD"/>
<path d="M290.309 127.769V127.236C290.309 126.669 290.29 126.159 290.253 125.553L290.184 124.708C290.158 124.431 290.13 124.151 290.101 123.845L290.055 123.414C290.006 122.99 289.946 122.579 289.875 122.123L289.738 121.265C289.691 120.984 289.639 120.701 289.573 120.4L289.572 120.395C289.458 119.788 289.346 119.239 289.195 118.634L289.193 118.629C289.061 118.025 288.912 117.477 288.741 116.868C288.57 116.258 288.418 115.708 288.229 115.102C288.019 114.489 287.852 113.945 287.626 113.341C287.597 113.265 287.568 113.189 287.54 113.112C287.511 113.036 287.483 112.96 287.455 112.884L287.453 112.88C287.301 112.443 287.152 112.029 286.964 111.597L286.962 111.593C286.716 110.984 286.489 110.435 286.225 109.848L286.224 109.846C285.203 107.511 284.03 105.253 282.669 103.071L282.666 103.067C282.347 102.52 281.99 101.975 281.648 101.442L281.097 100.651C280.912 100.384 280.727 100.118 280.547 99.8615C280.522 99.8308 280.503 99.7995 280.494 99.7834C280.486 99.7707 280.481 99.7632 280.477 99.757C280.475 99.7533 280.473 99.7518 280.472 99.7512C280.466 99.7453 280.461 99.7392 280.456 99.7326C280.112 99.2731 279.755 98.7809 279.415 98.3449L279.414 98.3439C279.036 97.8519 278.621 97.3216 278.244 96.8478L277.626 96.133C277.417 95.891 277.21 95.6492 277.012 95.4221C276.614 94.9845 276.16 94.4913 275.744 94.0549C275.323 93.6331 274.874 93.1639 274.443 92.7687L274.437 92.7629C274.024 92.3481 273.553 91.914 273.117 91.5148L272.434 90.9289C272.2 90.7322 271.964 90.5383 271.738 90.3586L271.735 90.3557C271.299 89.9942 270.81 89.5981 270.36 89.2785L270.356 89.2756C269.905 88.9363 269.398 88.5782 268.943 88.2551L268.212 87.7814C267.967 87.623 267.723 87.4672 267.488 87.3254C267.03 87.0576 266.523 86.756 266.053 86.5109L266.045 86.507C265.597 86.2443 265.091 85.9805 264.621 85.7541C264.141 85.5423 263.616 85.2983 263.163 85.1086C263.052 85.0624 262.941 85.0207 262.827 84.9777C262.714 84.9351 262.597 84.8909 262.48 84.842L262.478 84.841C262.217 84.7286 261.948 84.6393 261.691 84.5402C261.197 84.3877 260.674 84.2189 260.205 84.0871C259.716 83.9551 259.19 83.8237 258.718 83.7101L257.962 83.5705C257.708 83.5257 257.455 83.4822 257.211 83.4445C256.719 83.3876 256.191 83.3319 255.702 83.2941C255.236 83.2567 254.692 83.256 254.215 83.256C253.726 83.256 253.202 83.2753 252.737 83.3312L252.73 83.3322C252.24 83.37 251.735 83.4265 251.27 83.5197L251.262 83.5207C250.779 83.5953 250.275 83.7063 249.804 83.8195L249.805 83.8205C249.349 83.9539 248.843 84.1049 248.394 84.2736L248.387 84.2756C247.998 84.4057 247.607 84.5735 247.212 84.7619C247.199 84.7685 247.183 84.7728 247.169 84.7756C247.137 84.8008 247.101 84.8176 247.06 84.8176C247.07 84.8176 247.073 84.8155 247.065 84.8185C247.061 84.8199 247.056 84.8222 247.049 84.8254C247.042 84.8287 247.035 84.8323 247.025 84.8371L247.017 84.841C246.59 85.0275 246.14 85.2717 245.705 85.5187L245.704 85.5178C241.876 87.7164 238.058 89.9264 234.244 92.1545L230.428 94.3898C229.555 94.9044 228.68 95.4011 227.79 95.9142C225.987 96.942 224.184 97.989 222.38 99.0363L222.379 99.0373C221.45 99.5704 220.521 100.102 219.592 100.654L219.59 100.654C190.668 117.404 161.728 134.155 132.804 150.922C136.581 149.855 140.962 150.635 144.903 152.226C145.802 152.571 146.661 152.973 147.48 153.394L147.991 153.661C152.894 156.284 156.672 159.939 159.976 164.032L160.653 164.886L160.654 164.887L161.177 165.573C161.698 166.262 162.208 166.956 162.708 167.672L163.213 168.4C165.719 172.052 167.884 175.987 169.597 180.14L169.738 180.486C169.783 180.599 169.825 180.714 169.864 180.828L170.248 181.831C172.117 186.864 173.274 192.169 173.274 197.478C173.274 198.527 173.235 199.598 173.121 200.67L173.122 200.671C173.083 201.171 173.025 201.67 172.949 202.169C172.508 205.321 171.319 208.186 169.347 210.798L169.346 210.8C168.953 211.309 168.533 211.777 168.088 212.207L169.764 211.243C170.44 210.848 171.104 210.448 171.764 210.07C171.769 210.066 171.776 210.061 171.785 210.054C171.804 210.038 171.834 210.015 171.872 209.984C171.947 209.921 172.057 209.829 172.194 209.708C172.468 209.466 172.848 209.109 173.273 208.655C174.124 207.747 175.149 206.454 175.86 204.906L175.89 204.862C175.902 204.848 175.917 204.836 175.932 204.827L180.942 201.914C180.996 201.883 181.064 201.883 181.119 201.914C181.173 201.946 181.207 202.004 181.207 202.067V204.598C193.227 197.642 205.248 190.682 217.269 183.721C229.378 176.709 241.487 169.697 253.596 162.69L262.753 157.378C265.803 155.608 268.852 153.837 271.906 152.068C271.912 152.063 271.92 152.057 271.931 152.049C271.954 152.032 271.988 152.007 272.032 151.974C272.12 151.907 272.247 151.808 272.403 151.68C272.716 151.423 273.145 151.049 273.608 150.58C274.537 149.641 275.595 148.333 276.142 146.844L276.172 146.792C276.185 146.777 276.201 146.763 276.219 146.753L281.23 143.84C281.284 143.808 281.351 143.808 281.406 143.839C281.46 143.87 281.494 143.929 281.494 143.991V146.504C281.888 146.26 282.253 146.015 282.616 145.737L282.619 145.735L282.918 145.509C283.209 145.282 283.48 145.049 283.762 144.794C284.137 144.455 284.476 144.116 284.835 143.737C285.171 143.362 285.471 143.004 285.791 142.609L286.248 142.001C286.393 141.801 286.534 141.599 286.674 141.383C286.958 140.947 287.203 140.549 287.467 140.095C287.711 139.624 287.917 139.209 288.142 138.72L288.144 138.718L288.302 138.371C288.453 138.028 288.584 137.689 288.726 137.305C288.915 136.794 289.065 136.341 289.215 135.83C289.235 135.751 289.256 135.69 289.274 135.635C289.422 135.188 289.516 134.777 289.61 134.304L289.612 134.297L289.786 133.513C289.838 133.258 289.885 133.002 289.932 132.728C290.026 132.182 290.082 131.692 290.139 131.122L290.14 131.116L290.189 130.701C290.232 130.293 290.257 129.897 290.271 129.458V129.452C290.309 128.888 290.309 128.379 290.309 127.769ZM247.136 84.7795C247.148 84.7795 247.157 84.7785 247.162 84.7775C247.163 84.7773 247.164 84.7768 247.165 84.7766C247.155 84.7781 247.146 84.7795 247.136 84.7795ZM247.17 84.7746H247.172L247.177 84.7726L247.179 84.7717C247.18 84.7707 247.182 84.7685 247.185 84.7658C247.181 84.7698 247.175 84.7711 247.17 84.7746ZM290.661 127.769C290.661 128.377 290.661 128.898 290.623 129.476C290.604 130.066 290.565 130.582 290.489 131.155L290.49 131.156C290.433 131.729 290.375 132.229 290.279 132.787C290.184 133.34 290.088 133.818 289.955 134.371L289.956 134.372C289.86 134.851 289.763 135.278 289.608 135.745C289.589 135.802 289.572 135.854 289.555 135.923L289.553 135.931C289.4 136.449 289.247 136.909 289.056 137.427C288.866 137.942 288.692 138.384 288.462 138.866L288.462 138.867C288.233 139.366 288.024 139.787 287.776 140.265L287.772 140.273C287.505 140.732 287.255 141.134 286.969 141.574C286.681 142.018 286.393 142.404 286.07 142.823L286.067 142.826C285.743 143.228 285.437 143.592 285.093 143.976L285.09 143.98C284.728 144.363 284.383 144.709 283.999 145.056C283.617 145.4 283.251 145.707 282.829 146.016L282.83 146.017C282.429 146.323 282.028 146.591 281.591 146.858L281.509 146.919C281.495 146.93 281.482 146.938 281.47 146.945C281.459 146.951 281.437 146.964 281.406 146.982C281.351 147.013 281.284 147.013 281.23 146.982C281.176 146.95 281.142 146.892 281.142 146.829V144.297L276.449 147.026C275.871 148.557 274.792 149.885 273.859 150.827C273.385 151.306 272.947 151.689 272.627 151.952C272.467 152.084 272.336 152.185 272.245 152.254L272.112 152.354C272.109 152.356 272.106 152.357 272.104 152.359C272.103 152.359 272.103 152.36 272.102 152.361C272.098 152.364 272.092 152.367 272.087 152.369C269.032 154.14 265.981 155.911 262.93 157.682L253.772 162.994C241.663 170.001 229.555 177.014 217.446 184.026C205.337 191.037 193.228 198.049 181.119 205.056C181.064 205.087 180.997 205.087 180.943 205.056C180.889 205.024 180.855 204.966 180.855 204.904V202.372L176.155 205.105C175.424 206.675 174.387 207.982 173.53 208.897C173.096 209.359 172.708 209.722 172.427 209.971C172.287 210.095 172.174 210.191 172.095 210.256C172.056 210.288 172.025 210.313 172.004 210.329C171.994 210.338 171.986 210.344 171.98 210.348C171.977 210.35 171.976 210.353 171.974 210.354L171.972 210.355L171.864 210.216L171.971 210.356C171.965 210.36 171.958 210.364 171.952 210.368C171.288 210.749 170.627 211.147 169.941 211.548L169.94 211.549L165.84 213.91C165.756 213.959 165.649 213.929 165.6 213.845C165.552 213.761 165.581 213.653 165.665 213.605L166.146 213.312C167.249 212.6 168.214 211.688 169.066 210.586C171.003 208.02 172.168 205.211 172.6 202.118L172.601 202.115L172.7 201.38C172.728 201.135 172.751 200.889 172.77 200.644L172.771 200.639L172.842 199.845C172.901 199.052 172.921 198.26 172.921 197.478C172.921 191.869 171.618 186.254 169.537 180.957L169.533 180.948C169.496 180.838 169.455 180.727 169.411 180.614L169.272 180.275C167.455 175.87 165.127 171.711 162.42 167.875L162.42 167.874C161.758 166.926 161.077 166.014 160.376 165.102C156.927 160.686 153.007 156.744 147.825 153.972L147.319 153.707C146.507 153.29 145.658 152.893 144.774 152.553L144.771 152.552C139.931 150.598 134.512 149.917 130.407 152.313C130.323 152.361 130.214 152.333 130.166 152.249C130.117 152.165 130.145 152.057 130.229 152.008C130.237 152.004 130.244 152 130.252 151.995C145.105 143.384 159.964 134.777 174.822 126.172L219.414 100.351C220.344 99.7982 221.275 99.2643 222.204 98.7316L224.909 97.1633C225.81 96.642 226.712 96.1228 227.614 95.6086L230.251 94.0861L234.066 91.8508C237.882 89.6219 241.701 87.4115 245.53 85.2121L246.201 84.8449C246.314 84.7859 246.427 84.7287 246.54 84.674L246.876 84.5187C246.899 84.507 246.941 84.4854 246.992 84.4738C247.001 84.4679 247.011 84.4625 247.019 84.4582C247.03 84.4525 247.051 84.4436 247.076 84.4367C247.473 84.2475 247.874 84.0762 248.276 83.9416C248.737 83.7685 249.253 83.6151 249.706 83.4826L249.714 83.4807L250.453 83.3127C250.701 83.2604 250.953 83.2124 251.201 83.174L251.57 83.1086C251.944 83.0495 252.33 83.0094 252.703 82.9807C253.185 82.9231 253.721 82.9045 254.215 82.9045C254.688 82.9045 255.246 82.9038 255.729 82.9426L255.728 82.9435C255.976 82.9627 256.234 82.9856 256.492 83.0119L257.253 83.0959L257.26 83.0969L258.023 83.2238L258.785 83.3644L258.793 83.3664L259.538 83.55C259.792 83.6144 260.049 83.6814 260.296 83.7482H260.298L261.045 83.9709L261.802 84.2072L261.814 84.2101C262.049 84.3008 262.348 84.4024 262.617 84.5178C262.727 84.5638 262.837 84.6057 262.951 84.6486C263.064 84.6912 263.181 84.7344 263.298 84.7834C263.527 84.8789 263.776 84.9903 264.026 85.1027L264.763 85.4328L264.768 85.4348L265.503 85.8049C265.746 85.9331 265.988 86.0661 266.216 86.1994L266.581 86.3957C266.704 86.4639 266.828 86.534 266.951 86.6047L267.666 87.0217L267.668 87.0236L268.403 87.4855L269.133 87.9592L269.14 87.9631C269.594 88.2852 270.107 88.6478 270.564 88.9914L270.915 89.2502C271.27 89.5189 271.632 89.8136 271.96 90.0851C272.188 90.2667 272.426 90.4616 272.661 90.6594L273.348 91.2492L273.352 91.2521L274.025 91.8752C274.249 92.086 274.472 92.2998 274.68 92.509L275.013 92.8244C275.125 92.9327 275.237 93.0431 275.348 93.1545L275.996 93.8098L275.999 93.8117L276.643 94.4992L277.273 95.1857L277.275 95.1887L278.509 96.6164L278.514 96.6223C278.894 97.0984 279.311 97.6328 279.691 98.1281C280.034 98.5679 280.398 99.0672 280.738 99.5217C280.765 99.5536 280.785 99.5858 280.795 99.6027C280.803 99.6154 280.808 99.6229 280.812 99.6291L280.816 99.6359L280.836 99.6594L281.937 101.239L281.941 101.245L282.461 102.058C282.635 102.333 282.807 102.611 282.969 102.889C284.339 105.085 285.518 107.356 286.545 109.703C286.812 110.295 287.04 110.849 287.287 111.457C287.478 111.9 287.632 112.322 287.784 112.76L287.87 112.988C287.898 113.064 287.926 113.141 287.955 113.217C288.069 113.523 288.17 113.817 288.268 114.109L288.564 114.992L288.566 114.997C288.757 115.609 288.909 116.165 289.08 116.773C289.251 117.382 289.404 117.939 289.538 118.554C289.69 119.164 289.803 119.717 289.917 120.324L290.008 120.774C290.036 120.92 290.061 121.064 290.085 121.206L290.222 122.067C290.294 122.525 290.355 122.942 290.405 123.373L290.452 123.811C290.48 124.113 290.509 124.395 290.535 124.675L290.604 125.53L290.647 126.397C290.657 126.675 290.661 126.948 290.661 127.236V127.769Z" fill="#155C6D"/>
<g style="mix-blend-mode:screen">
<path d="M287.619 112.822L218.231 152.827L206.046 159.853L204.736 160.615L184.732 172.191L169.7 180.893C169.624 180.665 169.529 180.436 169.434 180.208C167.612 175.79 165.278 171.62 162.564 167.774L177.634 159.034L198.435 146.981L199.707 146.239L212.404 138.927L280.597 99.6267C280.635 99.6648 280.654 99.7219 280.692 99.76C281.052 100.274 281.432 100.826 281.793 101.34C282.134 101.874 282.495 102.426 282.817 102.978C284.184 105.168 285.361 107.433 286.386 109.775C286.651 110.366 286.879 110.918 287.126 111.527C287.316 111.965 287.467 112.384 287.619 112.822Z" fill="#C8DAE8"/>
<path d="M169.7 181.274C169.655 181.274 169.609 181.266 169.565 181.249C169.459 181.209 169.376 181.123 169.34 181.013C169.266 180.794 169.174 180.575 169.083 180.354C167.318 176.072 165.02 171.915 162.255 167.995C162.192 167.907 162.171 167.797 162.194 167.692C162.217 167.587 162.281 167.498 162.374 167.444L212.214 138.598L280.407 99.2973C280.555 99.2097 280.743 99.2345 280.864 99.3583C280.885 99.3811 280.952 99.4725 280.969 99.4992L282.25 101.354C282.552 101.824 282.863 102.306 283.144 102.788C284.465 104.905 285.674 107.209 286.733 109.625C286.999 110.215 287.228 110.773 287.479 111.386C287.669 111.824 287.822 112.253 287.978 112.698C288.039 112.872 287.967 113.062 287.809 113.153L169.892 181.224C169.833 181.259 169.769 181.276 169.702 181.276L169.7 181.274ZM163.114 167.898C165.806 171.765 168.049 175.855 169.786 180.063C169.825 180.154 169.863 180.248 169.899 180.341L218.043 152.499L287.158 112.653C287.042 112.329 286.921 112.011 286.78 111.681C286.534 111.068 286.306 110.52 286.042 109.935C284.998 107.55 283.806 105.278 282.499 103.182C282.218 102.7 281.912 102.228 281.616 101.767L280.489 100.131L198.629 147.311L163.114 167.898Z" fill="#155C6D"/>
</g>
<path d="M262.547 84.6797L144.837 152.389C139.978 150.428 134.493 149.723 130.318 152.16C160.04 134.928 189.78 117.716 219.502 100.503C220.432 99.9505 221.362 99.4173 222.292 98.8842C224.133 97.8369 225.936 96.7897 227.701 95.7615C228.593 95.2474 229.466 94.7523 230.339 94.2382C236.451 90.7537 242.107 87.4978 247.06 84.6416C247.079 84.6226 247.117 84.6036 247.136 84.6036C247.535 84.4131 247.933 84.2418 248.332 84.1085C248.787 83.9371 249.3 83.7848 249.755 83.6515C250.23 83.5373 250.742 83.423 251.236 83.3469C251.71 83.2517 252.223 83.1945 252.716 83.1565C253.191 83.0993 253.722 83.0803 254.216 83.0803C254.69 83.0803 255.24 83.0803 255.715 83.1184C256.208 83.1565 256.74 83.2136 257.233 83.2707C257.727 83.3469 258.258 83.4421 258.752 83.5373C259.226 83.6515 259.758 83.7848 260.251 83.9181C260.725 84.0514 261.257 84.2227 261.75 84.3751C261.997 84.4703 262.282 84.5655 262.547 84.6797Z" fill="#70C5AD"/>
<path d="M144.837 152.772C144.79 152.772 144.74 152.762 144.695 152.743C141.478 151.444 135.374 149.687 130.555 152.463C130.542 152.471 130.525 152.482 130.51 152.49C130.508 152.49 130.51 152.49 130.508 152.49C130.326 152.595 130.094 152.532 129.99 152.351C129.883 152.17 129.946 151.938 130.126 151.831C130.145 151.821 130.162 151.81 130.181 151.799C151.924 139.194 173.675 126.6 195.421 114.006L219.312 100.171C220.241 99.6191 221.17 99.086 222.104 98.551C223.945 97.5037 225.746 96.4565 227.512 95.4302L228.364 94.9408C228.962 94.5981 229.556 94.2572 230.148 93.9088C236.263 90.4205 241.917 87.1664 246.872 84.3103C246.903 84.2932 246.939 84.2741 246.973 84.2608C247.444 84.0342 247.837 83.8724 248.212 83.7467C248.662 83.5772 249.184 83.4211 249.649 83.2859C250.084 83.1812 250.632 83.0536 251.177 82.9698C251.598 82.8861 252.097 82.8213 252.686 82.7775C253.1 82.7261 253.62 82.6995 254.214 82.6995C254.698 82.6995 255.259 82.6995 255.743 82.7394C256.241 82.7775 256.776 82.8347 257.275 82.8918C257.787 82.9717 258.323 83.067 258.82 83.1641C259.315 83.2821 259.851 83.4173 260.348 83.5525C260.714 83.6553 261.111 83.7791 261.498 83.899L262.158 84.1218C262.335 84.1866 262.519 84.2551 262.696 84.3313C262.828 84.3884 262.918 84.5141 262.925 84.6588C262.933 84.8035 262.859 84.9387 262.735 85.011L145.027 152.72C144.968 152.754 144.904 152.772 144.837 152.772ZM136.528 150.228C139.726 150.228 142.778 151.165 144.809 151.968L261.665 84.7502L261.274 84.6264C260.894 84.5083 260.505 84.3865 260.148 84.2856C259.663 84.1542 259.133 84.0209 258.662 83.9086C258.192 83.8191 257.664 83.7239 257.176 83.6477C256.702 83.5944 256.176 83.5373 255.686 83.4992C255.22 83.463 254.673 83.482 254.216 83.463C253.654 83.463 253.164 83.4878 252.762 83.5373C252.187 83.5811 251.716 83.6401 251.31 83.722C250.811 83.8 250.31 83.9124 249.845 84.0228C249.414 84.1485 248.913 84.2989 248.465 84.4665C248.106 84.5864 247.74 84.7387 247.298 84.9482C247.288 84.952 247.277 84.9577 247.267 84.9615C247.261 84.9653 247.256 84.9691 247.248 84.9729C242.295 87.8291 236.637 91.085 230.525 94.5714C229.935 94.9199 229.339 95.2607 228.739 95.6053L227.889 96.0928C226.124 97.121 224.321 98.1701 222.478 99.2174C221.55 99.7486 220.622 100.282 219.696 100.832L195.801 114.669C175.223 126.585 154.642 138.502 134.068 150.428C134.888 150.289 135.712 150.228 136.528 150.228Z" fill="#155C6D"/>
<path d="M148.574 149.879L257.757 87.075C257.51 86.9684 257.247 86.8808 257.019 86.7932C256.561 86.6523 256.068 86.4924 255.628 86.3686C255.17 86.2448 254.677 86.1211 254.236 86.0145C253.779 85.9269 253.286 85.8374 252.828 85.7669C252.773 85.7612 252.714 85.7555 252.659 85.7498C248.759 87.9947 244.544 90.4148 240.078 92.9625C239.182 93.4899 238.286 93.9964 237.371 94.5238C235.561 95.5787 233.71 96.6545 231.822 97.7284C230.867 98.2767 229.912 98.8232 228.96 99.3887C200.671 115.771 172.365 132.158 144.074 148.558C145.594 148.843 147.117 149.291 148.576 149.879H148.574Z" fill="#70C5AD"/>
<path d="M148.574 150.26C148.527 150.26 148.477 150.251 148.432 150.232C146.989 149.649 145.5 149.211 144.004 148.931C143.846 148.901 143.727 148.777 143.698 148.621C143.67 148.465 143.746 148.307 143.883 148.227C165.403 135.753 186.934 123.285 208.458 110.819L228.768 99.0574C229.702 98.5034 230.637 97.9683 231.573 97.4314C233.52 96.3232 235.369 95.2493 237.18 94.1944L237.981 93.7355C238.62 93.368 239.252 93.0063 239.886 92.6331C244.356 90.0835 248.571 87.6634 252.469 85.4185C252.54 85.3785 252.621 85.3595 252.703 85.3709L252.874 85.388C253.348 85.4623 253.847 85.5499 254.309 85.6394C254.77 85.7498 255.265 85.8736 255.728 85.9992C256.06 86.0906 256.419 86.203 256.77 86.3134L257.385 86.5191C257.556 86.5819 257.736 86.6466 257.907 86.7209C258.04 86.778 258.129 86.9037 258.137 87.0484C258.144 87.1931 258.07 87.3283 257.947 87.4006L148.764 150.209C148.705 150.243 148.641 150.26 148.574 150.26ZM145.124 148.388C146.28 148.657 147.426 149.015 148.546 149.457L256.873 87.1436L256.542 87.0408C256.199 86.9322 255.85 86.8237 255.527 86.7342C255.075 86.6105 254.586 86.4886 254.149 86.3839C253.714 86.3001 253.225 86.2125 252.771 86.144L252.767 86.1268C248.89 88.3584 244.701 90.7633 240.266 93.2919C239.634 93.6632 239 94.0269 238.358 94.3962L237.561 94.8532C235.75 95.9081 233.9 96.9839 232.01 98.0578C231.019 98.6271 230.087 99.1622 229.153 99.7163L208.84 111.48C187.602 123.778 166.36 136.079 145.124 148.388Z" fill="#155C6D"/>
<path d="M254.238 87.3093C253.781 87.2217 253.287 87.1322 252.83 87.0617C252.775 87.056 252.716 87.0503 252.661 87.0446C248.761 89.2895 244.546 91.7096 240.08 94.2572C239.184 94.7847 238.288 95.2912 237.373 95.8186C235.563 96.8735 233.712 97.9493 231.824 99.0232C230.869 99.5715 229.914 100.118 228.962 100.684C201.198 116.762 173.42 132.845 145.655 148.939C146.644 149.196 147.625 149.495 148.578 149.881L256.354 87.8843C256.11 87.8081 255.861 87.7281 255.631 87.6634C255.174 87.5396 254.679 87.4159 254.238 87.3093Z" fill="#155C6D"/>
<path d="M148.574 150.26C148.527 150.26 148.477 150.251 148.432 150.232C147.591 149.893 146.678 149.597 145.555 149.304C145.405 149.266 145.295 149.141 145.274 148.986C145.253 148.832 145.327 148.682 145.46 148.605C167.21 135.999 188.966 123.399 210.717 110.804L228.766 100.35C229.7 99.7962 230.636 99.2612 231.571 98.7242C233.518 97.616 235.367 96.5421 237.178 95.4873L237.979 95.0284C238.618 94.6609 239.25 94.2991 239.884 93.9259C244.354 91.3763 248.569 88.9563 252.468 86.7113C252.538 86.6714 252.619 86.6523 252.701 86.6637L252.872 86.6809C253.346 86.7551 253.845 86.8427 254.307 86.9322C254.312 86.9322 254.318 86.9322 254.324 86.936C254.766 87.0427 255.263 87.1664 255.724 87.2921C255.895 87.3397 256.072 87.3949 256.252 87.4501L256.459 87.5149C256.603 87.5587 256.708 87.6862 256.725 87.8367C256.742 87.989 256.668 88.1337 256.537 88.2099L148.764 150.209C148.705 150.243 148.641 150.26 148.574 150.26ZM146.629 148.811C147.331 149.015 147.956 149.226 148.546 149.457L255.396 87.9928C254.986 87.8824 254.551 87.7757 254.159 87.6805C253.709 87.5948 253.223 87.5072 252.773 87.4387L252.769 87.4216C248.892 89.6532 244.703 92.058 240.268 94.5866C239.636 94.9579 239.002 95.3216 238.36 95.691L237.563 96.148C235.752 97.2028 233.902 98.2786 232.012 99.3525C231.021 99.9219 230.089 100.457 229.155 101.011L211.102 111.466C189.613 123.91 168.117 136.358 146.629 148.811Z" fill="#155C6D"/>
<path d="M216.135 51.2071C249.514 50.2504 246.857 92.1152 246.857 92.1152L159.689 142.129C159.689 142.129 166.943 102.468 130.574 102.252L130.599 101.312L216.135 51.2071Z" fill="#155C6D"/>
<path d="M159.689 142.448C159.624 142.448 159.561 142.427 159.506 142.389C159.406 142.318 159.356 142.194 159.378 142.074C159.386 142.028 160.229 137.327 159.875 131.259C159.551 125.679 158.122 117.762 153.154 111.746C148.176 105.716 140.577 102.629 130.57 102.571C130.485 102.571 130.405 102.536 130.345 102.474C130.285 102.412 130.253 102.33 130.256 102.244L130.282 101.304C130.283 101.194 130.343 101.094 130.438 101.039L215.975 50.933C216.021 50.9061 216.073 50.8918 216.125 50.8902C224.791 50.6447 231.83 53.2566 237.033 58.661C248.407 70.4787 247.185 91.9219 247.173 92.1357C247.166 92.2419 247.106 92.3369 247.013 92.3908L159.845 142.405C159.796 142.433 159.742 142.448 159.689 142.448ZM130.897 101.939C140.942 102.064 148.594 105.227 153.643 111.344C158.722 117.498 160.18 125.56 160.506 131.24C160.784 136.05 160.32 140.015 160.102 141.529L246.551 91.9283C246.642 89.8945 247.226 70.1635 236.577 59.0997C231.52 53.8474 224.665 51.302 216.225 51.5222L130.908 101.497L130.897 101.939Z" fill="#155C6D"/>
<path d="M217.767 50.25C250.542 50.25 247.885 92.1149 247.885 92.1149L160.716 142.129C160.716 142.129 168.183 101.311 130.599 101.311L217.767 50.25Z" fill="#C8DAE8"/>
<path d="M160.716 142.448C160.652 142.448 160.589 142.427 160.533 142.389C160.434 142.318 160.383 142.194 160.405 142.074C160.415 142.026 161.279 137.2 160.914 130.975C160.579 125.249 159.104 117.132 153.989 110.973C148.839 104.772 140.969 101.63 130.599 101.63C130.457 101.63 130.332 101.533 130.294 101.395C130.256 101.257 130.316 101.112 130.439 101.039L217.608 49.9762C217.657 49.9477 217.71 49.9334 217.767 49.9334C226.181 49.9334 233.023 52.6879 238.105 58.1207C249.449 70.2489 248.215 91.9171 248.2 92.1356C248.194 92.2418 248.134 92.3368 248.041 92.3907L160.873 142.405C160.824 142.433 160.77 142.448 160.716 142.448ZM131.744 101.007C141.749 101.234 149.392 104.448 154.475 110.569C163.424 121.345 161.627 138.022 161.129 141.527L247.577 91.9266C247.67 89.8801 248.272 69.9163 237.643 58.5532C232.703 53.2739 226.043 50.586 217.852 50.567L131.744 101.007Z" fill="#155C6D"/>
<path d="M196.61 97.1466C198.02 97.1466 199.164 95.602 199.164 93.6967C199.164 91.7913 198.02 90.2467 196.61 90.2467C195.199 90.2467 194.056 91.7913 194.056 93.6967C194.056 95.602 195.199 97.1466 196.61 97.1466Z" fill="#155C6D"/>
<path d="M196.61 98.0258C194.717 98.0258 193.18 96.0832 193.18 93.6968C193.18 91.3104 194.717 89.3679 196.61 89.3679C198.502 89.3679 200.04 91.3104 200.04 93.6968C200.04 96.0832 198.502 98.0258 196.61 98.0258ZM196.61 91.1258C195.699 91.1258 194.936 92.3037 194.936 93.6968C194.936 95.09 195.703 96.2678 196.61 96.2678C197.517 96.2678 198.283 95.09 198.283 93.6968C198.283 92.3037 197.517 91.1258 196.61 91.1258Z" fill="#C8DAE8"/>
<path d="M205.8 92.005C207.211 92.005 208.354 90.4604 208.354 88.555C208.354 86.6497 207.211 85.1051 205.8 85.1051C204.39 85.1051 203.246 86.6497 203.246 88.555C203.246 90.4604 204.39 92.005 205.8 92.005Z" fill="#155C6D"/>
<path d="M205.8 92.8881C203.908 92.8881 202.37 90.9456 202.37 88.5592C202.37 86.1728 203.908 84.2303 205.8 84.2303C207.693 84.2303 209.23 86.1728 209.23 88.5592C209.23 90.9456 207.693 92.8881 205.8 92.8881ZM205.8 85.9882C204.889 85.9882 204.127 87.166 204.127 88.5592C204.127 89.9524 204.894 91.1302 205.8 91.1302C206.707 91.1302 207.474 89.9524 207.474 88.5592C207.474 87.166 206.707 85.9882 205.8 85.9882Z" fill="#C8DAE8"/>
<path d="M215.187 101.848C213.548 99.5669 211.284 98.0947 208.716 97.9892C203.381 97.7694 198.816 103.439 198.518 110.655C198.505 110.928 198.545 111.187 198.545 111.455L215.187 101.848Z" fill="#155C6D"/>
<path d="M198.54 112.339C198.387 112.339 198.238 112.299 198.102 112.22C197.83 112.062 197.664 111.772 197.664 111.46L197.655 111.174C197.642 110.989 197.633 110.809 197.642 110.62C197.958 102.934 202.96 96.9303 208.751 97.1149C211.485 97.2292 214.021 98.7278 215.896 101.338C216.041 101.541 216.093 101.795 216.041 102.037C215.988 102.279 215.839 102.49 215.62 102.613L198.978 112.224C198.842 112.304 198.694 112.339 198.54 112.339ZM208.414 98.8597C203.867 98.8597 199.977 103.694 199.443 109.926L213.868 101.593C212.405 99.9057 210.587 98.9432 208.677 98.8641C208.589 98.8641 208.502 98.8597 208.414 98.8597Z" fill="#C8DAE8"/>
<path d="M178.849 172.336C178.278 172.336 177.699 172.188 177.145 171.896C176.211 171.401 175.467 170.548 175.048 169.497C174.378 167.818 174.691 165.944 175.828 164.836L176.357 165.383C175.439 166.277 175.196 167.818 175.752 169.214C176.105 170.099 176.725 170.811 177.498 171.222C178.25 171.62 179.058 171.685 179.777 171.398C181.279 170.796 181.914 168.838 181.197 167.033C180.554 165.421 179.049 164.45 177.627 164.718L177.487 163.97C179.271 163.633 181.125 164.802 181.901 166.75C182.774 168.945 181.949 171.348 180.06 172.104C179.671 172.26 179.263 172.336 178.849 172.336Z" fill="#155C6D"/>
<path d="M177.897 167.587C177.591 166.83 176.604 164.712 175.737 164.034L176.204 163.435C177.409 164.377 178.551 167.184 178.601 167.302L177.897 167.587Z" fill="#155C6D"/>
<path d="M185.655 181.962C186.292 181.593 186.442 180.657 185.991 179.872C185.539 179.087 184.656 178.75 184.019 179.119C183.382 179.488 183.231 180.424 183.683 181.209C184.135 181.994 185.018 182.331 185.655 181.962Z" fill="#70C5AD"/>
<path d="M185.088 182.495C184.885 182.495 184.674 182.455 184.465 182.377C184.012 182.204 183.617 181.857 183.355 181.402C182.801 180.437 183.013 179.264 183.83 178.792C184.651 178.321 185.767 178.719 186.32 179.685C186.616 180.201 186.707 180.797 186.566 181.322C186.452 181.745 186.198 182.089 185.845 182.293C185.614 182.427 185.355 182.495 185.088 182.495ZM184.591 179.351C184.456 179.351 184.325 179.384 184.207 179.45C183.754 179.713 183.664 180.418 184.012 181.019C184.186 181.324 184.443 181.553 184.733 181.663C184.999 181.764 185.257 181.752 185.464 181.633C185.691 181.501 185.788 181.284 185.832 181.124C185.919 180.793 185.858 180.406 185.661 180.064C185.405 179.618 184.98 179.351 184.591 179.351Z" fill="#155C6D"/>
<path d="M189.668 179.638C190.305 179.269 190.455 178.334 190.003 177.549C189.552 176.764 188.669 176.426 188.032 176.795C187.394 177.165 187.244 178.1 187.696 178.885C188.147 179.67 189.03 180.007 189.668 179.638Z" fill="#70C5AD"/>
<path d="M189.1 180.17C188.895 180.17 188.686 180.13 188.476 180.05C188.022 179.877 187.629 179.53 187.367 179.075C187.105 178.62 187.005 178.104 187.081 177.624C187.162 177.114 187.434 176.703 187.842 176.467C188.25 176.231 188.741 176.2 189.222 176.385C189.675 176.558 190.07 176.905 190.332 177.36C190.886 178.325 190.673 179.496 189.857 179.97C189.626 180.104 189.368 180.17 189.1 180.17ZM188.601 177.028C188.464 177.028 188.335 177.061 188.223 177.127C188.016 177.247 187.876 177.468 187.832 177.746C187.783 178.055 187.851 178.392 188.028 178.696C188.202 179.001 188.459 179.23 188.749 179.34C189.013 179.439 189.271 179.431 189.48 179.31C189.933 179.047 190.022 178.342 189.677 177.741C189.502 177.436 189.246 177.207 188.956 177.097C188.836 177.051 188.715 177.028 188.601 177.028Z" fill="#155C6D"/>
<path d="M193.459 177.445C194.096 177.075 194.246 176.14 193.794 175.355C193.343 174.57 192.46 174.233 191.823 174.602C191.185 174.971 191.035 175.906 191.487 176.691C191.939 177.476 192.821 177.814 193.459 177.445Z" fill="#70C5AD"/>
<path d="M192.896 177.973C192.241 177.973 191.556 177.571 191.157 176.882C190.603 175.916 190.816 174.745 191.632 174.271C192.04 174.035 192.53 174.005 193.014 174.189C193.467 174.363 193.86 174.709 194.122 175.164C194.384 175.619 194.486 176.135 194.409 176.615C194.327 177.126 194.056 177.537 193.648 177.773C193.414 177.908 193.158 177.973 192.896 177.973ZM192.389 174.833C192.253 174.833 192.124 174.865 192.012 174.932C191.558 175.195 191.469 175.899 191.814 176.501C192.161 177.105 192.812 177.375 193.266 177.114C193.473 176.994 193.613 176.773 193.659 176.495C193.708 176.187 193.638 175.85 193.463 175.545C193.289 175.241 193.033 175.012 192.742 174.902C192.623 174.856 192.505 174.833 192.389 174.833Z" fill="#155C6D"/>
<path d="M204.378 174.875L184.379 186.461L184.759 187.121L204.758 175.535L204.378 174.875Z" fill="#155C6D"/>
<path d="M204.548 178.097L184.549 189.683L184.928 190.342L204.927 178.756L204.548 178.097Z" fill="#155C6D"/>
</svg>
