<svg width="411" height="300" viewBox="0 0 411 300" fill="none" xmlns="http://www.w3.org/2000/svg">
<g clip-path="url(#clip0_9503_7997)">
<path d="M116 195.47L206.352 247.997L293.611 195.874L202.901 143.347L116 195.47Z" fill="#07303A"/>
<path d="M176.489 174.733L248.462 216.626V153.898L177.116 112.301" fill="#07303A"/>
<path d="M248.558 153.733L248.653 153.789V216.956L248.367 216.79L176.393 174.897L176.489 174.732L176.585 174.568L248.272 216.294V154.008L177.02 112.465L177.212 112.137L248.558 153.733Z" fill="#07303A"/>
<path d="M205.909 86.875L286.26 132.665V192.997C286.26 194.063 285.107 194.73 284.183 194.198L206.067 149.222L205.91 86.8768L205.909 86.875Z" fill="#07303A"/>
<path d="M286.07 132.775L206.101 87.2031L206.256 149.111L284.278 194.033L284.429 194.107C285.195 194.419 286.07 193.859 286.07 192.997V132.775ZM286.45 192.997C286.45 194.172 285.22 194.919 284.188 194.416L284.088 194.363L205.972 149.388L205.877 149.333L205.876 149.223L205.721 86.9561L204.774 86.0088L286.354 132.5L286.45 132.555V192.997Z" fill="#07303A"/>
<path d="M206.535 149.306L151.818 181.153C144.164 185.609 134.562 180.087 134.562 171.23V128.47L206.321 86.6562" fill="#2B545E"/>
<path d="M206.536 149.307L206.631 149.471L151.914 181.318C144.133 185.847 134.372 180.234 134.372 171.23V128.36L134.466 128.306L206.225 86.4922L206.416 86.8203L134.752 128.578V171.23C134.752 179.94 144.195 185.37 151.722 180.989L206.44 149.142L206.536 149.307Z" fill="#07303A"/>
<path d="M134.551 128.474L135.848 127.685L135.882 127.705L206.323 86.6602L207.704 87.3643L207.625 87.4093L286.265 132.677L284.844 133.52L284.83 133.513L262.003 146.798C261.4 147.149 261.005 147.774 260.946 148.471L260.227 157.086C260.164 157.837 259.745 158.511 259.098 158.898L243.045 168.529C243.045 168.529 242.445 168.92 241.754 168.69C240.965 168.425 240.798 167.845 240.798 167.845L257.512 157.899C258.338 157.407 258.879 156.544 258.958 155.585L259.649 147.302C259.707 146.605 260.101 145.982 260.707 145.629L283.173 132.553L206.357 88.1459L137.209 128.468L214.22 172.798L235.755 160.162C236.236 159.88 236.839 159.907 237.291 160.234C237.873 160.654 238.563 161.158 238.451 161.099C238.208 160.969 237.839 160.872 237.426 161.099C236.726 161.49 219.305 171.641 215.16 174.058L214.295 174.575L214.285 174.57L214.274 174.575L212.72 173.676L212.73 173.671L134.551 128.474Z" fill="#94B2C9"/>
<path d="M206.41 86.4902L207.79 87.1943L208.105 87.3555L208.008 87.4092L286.36 132.512L286.642 132.675L284.852 133.736L284.835 133.729L262.099 146.962C261.55 147.282 261.19 147.852 261.136 148.487L260.417 157.103C260.349 157.914 259.895 158.642 259.196 159.061L259.197 159.062L243.149 168.688L243.148 168.689C243.147 168.69 243.146 168.691 243.145 168.691C243.143 168.693 243.141 168.695 243.138 168.696C243.132 168.7 243.123 168.705 243.113 168.711C243.092 168.723 243.062 168.739 243.025 168.758C242.95 168.795 242.843 168.841 242.712 168.879C242.484 168.945 242.176 168.989 241.839 168.911L241.694 168.87C241.261 168.725 240.992 168.49 240.83 168.286C240.751 168.185 240.698 168.092 240.664 168.022C240.648 167.988 240.636 167.959 240.628 167.938C240.624 167.927 240.621 167.918 240.619 167.911C240.618 167.908 240.617 167.905 240.617 167.903L240.616 167.9L240.615 167.898C240.615 167.898 240.615 167.897 240.797 167.845L240.615 167.898L240.574 167.757L240.701 167.682L257.414 157.735L257.556 157.645C258.249 157.173 258.698 156.411 258.768 155.569L259.459 147.286L259.476 147.146C259.577 146.444 259.993 145.825 260.611 145.465L282.793 132.554L206.357 88.3652L137.588 128.467L214.218 172.577L235.659 159.998L235.762 159.942C236.289 159.683 236.921 159.731 237.403 160.08L238.245 160.693C238.36 160.779 238.456 160.851 238.516 160.898C238.544 160.92 238.571 160.942 238.588 160.959C238.592 160.962 238.603 160.972 238.614 160.986C238.617 160.991 238.634 161.012 238.644 161.044C238.649 161.06 238.658 161.096 238.649 161.142C238.637 161.196 238.603 161.243 238.556 161.27C238.517 161.292 238.481 161.294 238.464 161.294C238.446 161.294 238.43 161.292 238.422 161.29C238.406 161.287 238.394 161.281 238.389 161.279L238.362 161.267C238.155 161.156 237.856 161.08 237.518 161.266L237.517 161.265C236.798 161.666 219.404 171.803 215.256 174.221L215.257 174.222L214.303 174.792L214.284 174.782L214.267 174.791L214.178 174.74L212.319 173.664L212.328 173.658L134.455 128.639L134.178 128.478L134.453 128.312L135.749 127.522L135.845 127.464L135.881 127.484L206.227 86.4961L206.317 86.4434L206.41 86.4902ZM135.882 127.925L135.85 127.905L134.924 128.469L213.131 173.683L213.12 173.688L214.28 174.358L214.285 174.356L214.287 174.357L215.062 173.895L215.064 173.894L227.49 166.654C232.451 163.765 236.982 161.129 237.333 160.933C237.471 160.857 237.605 160.813 237.733 160.791C237.557 160.662 237.363 160.521 237.18 160.389C236.839 160.141 236.396 160.092 236.012 160.247L235.851 160.326L214.221 173.018L214.124 172.963L137.115 128.633L136.829 128.47L206.261 87.9814L206.357 87.9258L206.453 87.9814L283.552 132.552L260.802 145.794L260.801 145.793C260.25 146.115 259.892 146.683 259.839 147.317L259.148 155.601C259.069 156.558 258.558 157.425 257.77 157.96L257.609 158.062L241.041 167.921C241.063 167.959 241.092 168.003 241.129 168.05C241.249 168.201 241.458 168.389 241.813 168.509C242.111 168.608 242.394 168.575 242.606 168.514C242.711 168.483 242.798 168.445 242.857 168.416C242.886 168.402 242.909 168.389 242.923 168.381C242.93 168.377 242.936 168.374 242.939 168.372L242.942 168.369L259 158.735L259.11 158.665C259.642 158.301 259.983 157.717 260.037 157.07L260.756 148.455L260.773 148.313C260.876 147.612 261.292 146.992 261.908 146.634L284.734 133.348L284.823 133.297L284.836 133.304L285.888 132.679L207.242 87.4082L207.302 87.373L206.328 86.876L135.882 127.925Z" fill="#07303A"/>
<path d="M211.79 180.354L206.683 180.602L243.555 107.557L248.664 107.311L211.792 180.354H211.79Z" fill="#07303A"/>
<path d="M211.922 180.556L206.335 180.828L206.497 180.507L243.423 107.356L249.01 107.084L248.848 107.405L211.922 180.556ZM207.03 180.377L211.661 180.154L248.316 107.538L243.688 107.763L207.032 180.379L207.03 180.377Z" fill="#07303A"/>
<path d="M242.458 106.093C243.063 106.898 243.189 108.283 242.737 109.178L209.988 174.052L209.161 175.689L206.906 180.154C206.377 179.905 205.892 179.547 205.586 179.14L167.103 127.742C166.991 127.591 166.885 127.432 166.795 127.276C166.769 127.231 166.744 127.186 166.723 127.144C166.701 127.103 166.678 127.063 166.658 127.025C166.64 126.984 166.622 126.95 166.607 126.914C166.586 126.867 166.564 126.818 166.546 126.773C166.505 126.678 166.472 126.586 166.443 126.494C166.433 126.465 166.425 126.442 166.416 126.411C166.406 126.375 166.397 126.341 166.388 126.307C166.38 126.282 166.357 126.174 166.353 126.147C166.308 125.884 166.314 125.666 166.391 125.516C166.605 125.093 166.429 124.014 165.999 123.098L164.354 119.591C163.926 118.678 163.942 117.212 164.398 116.314L175.052 95.2123C175.502 94.3137 176.509 94.0994 177.299 94.7261L179.176 96.2244C179.968 96.853 180.973 96.6369 181.425 95.74L202.06 54.8576C202.51 53.9589 203.369 53.8905 203.974 54.6955L242.458 106.093Z" fill="#2B545E"/>
<path d="M207.002 180.428L206.82 180.342C206.234 180.068 205.739 179.684 205.42 179.265L166.937 127.867C166.82 127.708 166.708 127.544 166.615 127.377L166.445 127.06C166.433 127.035 166.422 127.009 166.413 126.984C166.395 126.946 166.37 126.892 166.352 126.838C166.314 126.752 166.278 126.653 166.247 126.556L166.22 126.471L166.193 126.376C166.182 126.332 166.157 126.215 166.15 126.185C166.094 125.857 166.112 125.608 166.206 125.423C166.368 125.104 166.244 124.11 165.811 123.188L164.165 119.68C163.704 118.698 163.724 117.178 164.21 116.22L174.864 95.119C175.111 94.6292 175.513 94.3032 175.997 94.197C176.483 94.0907 176.991 94.2204 177.425 94.5643L179.304 96.0627C179.639 96.3274 180.02 96.4283 180.384 96.3508C180.746 96.2734 181.049 96.0213 181.238 95.6467L201.874 54.7625C202.127 54.2618 202.503 53.9683 202.939 53.9305C203.375 53.8945 203.801 54.1214 204.14 54.5716L242.624 105.971C243.274 106.834 243.407 108.318 242.923 109.276L207 180.43L207.002 180.428ZM175.706 94.7624C175.513 94.8885 175.349 95.074 175.232 95.3099L164.578 116.411C164.149 117.254 164.133 118.641 164.536 119.505L166.182 123.013C166.582 123.862 166.854 125.063 166.573 125.614C166.539 125.682 166.508 125.828 166.557 126.114C166.56 126.138 166.582 126.231 166.588 126.255L166.615 126.354L166.443 126.494L166.643 126.433C166.669 126.518 166.701 126.602 166.739 126.691C166.759 126.747 166.777 126.784 166.795 126.824L166.978 127.177C167.063 127.325 167.166 127.476 167.27 127.62L205.752 179.018C205.993 179.337 206.373 179.643 206.814 179.877L242.553 109.087C242.966 108.269 242.849 106.958 242.296 106.22L203.809 54.8201C203.56 54.4906 203.263 54.3213 202.977 54.3447C202.687 54.3699 202.427 54.5842 202.245 54.9516L181.603 95.8376C181.355 96.3256 180.952 96.6534 180.469 96.7597C179.981 96.8659 179.475 96.7344 179.041 96.3905L177.162 94.8921C176.829 94.6274 176.446 94.5265 176.08 94.604C175.945 94.6346 175.819 94.6868 175.702 94.7624H175.706Z" fill="#07303A"/>
<path d="M202.939 54.1396C202.656 54.1703 202.386 54.3468 202.175 54.6619C202.154 54.6943 202.134 54.7231 202.116 54.7574C202.096 54.788 202.078 54.8258 202.06 54.8582L181.42 95.7424C181.362 95.8541 181.299 95.9549 181.225 96.0486C181.195 96.0864 181.159 96.126 181.126 96.162C181.115 96.1746 181.106 96.1836 181.094 96.1926C180.62 96.6483 179.929 96.7131 179.327 96.3277C179.48 96.198 179.615 96.0306 179.72 95.8289L200.358 54.9393C200.587 54.4818 200.924 54.2387 201.28 54.2225C201.458 54.2117 202.697 54.1523 202.939 54.1396Z" fill="#94B2C9"/>
<path d="M180.973 96.5509C180.465 96.8805 179.795 96.8751 179.214 96.5023L178.976 96.3492L179.188 96.1674C179.327 96.0485 179.442 95.9026 179.532 95.7297L200.171 54.8437C200.427 54.3323 200.814 54.0369 201.268 54.0135C201.365 54.0081 201.792 53.9865 202.193 53.9667C202.512 53.9523 202.818 53.9361 202.924 53.9307L202.96 54.3467C202.732 54.3701 202.519 54.5214 202.346 54.7789C202.327 54.8059 202.312 54.8293 202.298 54.8545C202.274 54.8905 202.263 54.9158 202.253 54.9374L181.602 95.8396C181.535 95.9711 181.463 96.0827 181.382 96.1836C181.348 96.2268 181.308 96.2718 181.27 96.3096L181.204 96.3691C181.132 96.4393 181.052 96.5023 180.971 96.5546L180.973 96.5509ZM179.669 96.2736C180.12 96.4573 180.599 96.3781 180.946 96.0413C181.004 95.9855 181.034 95.9494 181.063 95.9152C181.124 95.8414 181.182 95.7513 181.232 95.6487L201.874 54.7627C201.903 54.7105 201.921 54.6726 201.941 54.642C201.954 54.6168 201.975 54.579 202.004 54.5394C202.04 54.4853 202.078 54.4349 202.118 54.3881C201.748 54.4061 201.385 54.4241 201.293 54.4313C200.996 54.4475 200.727 54.6618 200.542 55.0328L179.902 95.9224C179.835 96.0503 179.756 96.1692 179.667 96.2754L179.669 96.2736Z" fill="#07303A"/>
<path d="M174.551 94.4623C174.059 94.4839 173.606 94.7702 173.341 95.2961L162.685 116.399C162.436 116.891 162.325 117.554 162.341 118.205L164.043 118.123C164.028 117.472 164.14 116.81 164.389 116.316L175.043 95.215C175.048 95.2024 175.055 95.1934 175.063 95.1862C175.327 94.6748 175.776 94.3974 176.26 94.374C176.165 94.3794 174.823 94.4497 174.551 94.4641V94.4623Z" fill="#94B2C9"/>
<path d="M164.257 118.321L162.139 118.422L162.136 118.208C162.118 117.482 162.247 116.807 162.501 116.304L173.159 95.1994C173.449 94.6249 173.955 94.2792 174.542 94.2522L175.302 94.2125C175.698 94.1927 176.114 94.1693 176.228 94.1639C176.237 94.1639 176.246 94.1639 176.255 94.1621L176.28 94.5781C176.28 94.5781 176.269 94.5781 176.258 94.5781C175.839 94.6069 175.473 94.8591 175.253 95.2787L164.583 116.409C164.362 116.846 164.245 117.468 164.257 118.116L164.263 118.318H164.259L164.257 118.321ZM162.55 117.986L163.838 117.923C163.847 117.275 163.976 116.677 164.207 116.221L174.895 95.0626C174.978 94.9023 175.081 94.7582 175.201 94.6357L174.564 94.6682C174.124 94.688 173.748 94.9509 173.528 95.3885L162.869 116.492C162.674 116.879 162.559 117.415 162.546 117.985L162.55 117.986Z" fill="#07303A"/>
<path d="M162.649 119.677L164.295 123.185C164.724 124.098 164.9 125.183 164.688 125.6C164.612 125.75 164.605 125.973 164.652 126.231L166.355 126.15C166.353 126.139 166.339 126.029 166.334 125.989C166.334 125.961 166.33 125.93 166.328 125.901C166.319 125.748 166.343 125.617 166.391 125.519C166.606 125.096 166.429 124.017 165.999 123.101L164.354 119.594C164.16 119.182 164.064 118.658 164.05 118.123L162.348 118.206C162.363 118.739 162.46 119.265 162.654 119.677H162.649Z" fill="#07303A"/>
<path d="M166.595 126.342L166.364 126.356L164.477 126.446L164.446 126.264C164.39 125.945 164.408 125.69 164.5 125.504C164.662 125.189 164.54 124.195 164.108 123.271L162.463 119.765C162.265 119.343 162.152 118.807 162.136 118.209L162.13 118.005L164.248 117.904L164.252 118.119C164.266 118.65 164.367 119.142 164.536 119.505L166.182 123.013C166.582 123.862 166.854 125.063 166.573 125.614C166.541 125.679 166.528 125.776 166.533 125.89L166.343 125.981L166.533 125.962L166.593 126.34V126.343L166.595 126.342ZM164.832 126.014L166.123 125.953C166.11 125.724 166.139 125.555 166.204 125.425C166.366 125.106 166.242 124.112 165.81 123.19L164.163 119.682C163.989 119.313 163.881 118.852 163.85 118.342L162.561 118.405C162.593 118.859 162.689 119.275 162.838 119.592L164.482 123.098C164.887 123.959 165.143 125.167 164.871 125.697C164.85 125.74 164.819 125.835 164.832 126.014Z" fill="#07303A"/>
<path d="M210.139 55.6478C209.844 55.2534 209.489 55.0697 209.148 55.0859C208.848 55.1022 207.749 55.1526 207.446 55.167C207.09 55.185 206.751 55.4281 206.521 55.8873L171.288 125.687C170.836 126.584 170.96 127.965 171.565 128.774L207.074 176.197C207.367 176.588 207.718 176.773 208.055 176.759C208.36 176.746 209.462 176.692 209.762 176.676C210.119 176.658 210.458 176.417 210.692 175.957L245.926 106.158C246.379 105.261 246.254 103.88 245.649 103.071L210.139 55.6478Z" fill="#94B2C9"/>
<path d="M210.321 176.702C210.151 176.812 209.966 176.875 209.773 176.884L208.064 176.965C207.645 176.984 207.232 176.754 206.906 176.32L171.4 128.897C170.739 128.016 170.609 126.564 171.102 125.592L206.335 55.7905C206.591 55.2827 206.994 54.9801 207.436 54.9585L207.83 54.9387C208.279 54.9171 208.918 54.8865 209.136 54.8756C209.561 54.8522 209.973 55.0828 210.305 55.5204L245.811 102.942C246.47 103.821 246.6 105.274 246.108 106.247L210.874 176.044C210.73 176.331 210.539 176.552 210.319 176.696L210.323 176.7L210.321 176.702ZM207.117 55.4898C206.96 55.5924 206.82 55.7581 206.708 55.9814L171.473 125.783C171.054 126.613 171.169 127.901 171.731 128.65L207.238 176.073C207.481 176.394 207.765 176.563 208.044 176.552L209.752 176.469C210.049 176.453 210.315 176.241 210.506 175.864L245.741 106.065C246.161 105.234 246.045 103.947 245.483 103.198L209.975 55.7743C209.732 55.4519 209.444 55.2827 209.163 55.2971C208.943 55.3079 208.306 55.3385 207.855 55.3601L207.459 55.3799C207.34 55.3853 207.223 55.4249 207.115 55.4952V55.4916L207.117 55.4898Z" fill="#07303A"/>
<path d="M209.762 176.676C209.46 176.69 208.356 176.742 208.055 176.755C207.72 176.771 207.367 176.587 207.072 176.195L171.563 128.775C171.304 128.429 171.14 127.977 171.066 127.502L172.765 127.421C172.838 127.896 173.01 128.343 173.269 128.689L208.776 176.114C209.073 176.51 209.424 176.694 209.762 176.676Z" fill="#2B545E"/>
<path d="M209.775 176.882C209.775 176.882 209.762 176.882 209.755 176.882L208.066 176.961C207.645 176.983 207.232 176.752 206.906 176.315L171.399 128.897C171.133 128.542 170.946 128.068 170.861 127.532L170.825 127.305L172.939 127.202L172.968 127.389C173.04 127.849 173.2 128.254 173.431 128.565L208.938 175.991C209.177 176.309 209.458 176.48 209.734 176.471H209.75L209.775 176.887V176.882ZM171.315 127.697C171.4 128.072 171.54 128.398 171.729 128.648L207.238 176.068C207.479 176.389 207.763 176.56 208.043 176.545L208.851 176.507C208.767 176.428 208.685 176.336 208.61 176.234L173.103 128.809C172.862 128.49 172.687 128.085 172.594 127.633L171.315 127.697Z" fill="#07303A"/>
<path d="M172.99 125.602L208.223 55.8027C208.675 54.9059 209.532 54.8356 210.139 55.6442L245.647 103.068C246.254 103.876 246.377 105.257 245.925 106.154L210.69 175.954C210.238 176.851 209.381 176.921 208.774 176.111L173.265 128.689C172.66 127.88 172.536 126.499 172.988 125.602H172.99Z" fill="#94B2C9"/>
<path d="M210.323 176.702C210.166 176.805 209.993 176.864 209.809 176.88C209.373 176.916 208.948 176.688 208.61 176.237L173.103 128.816C172.444 127.937 172.313 126.484 172.806 125.511L208.039 55.7097C208.295 55.2073 208.673 54.9137 209.107 54.8777C209.543 54.8417 209.968 55.0704 210.306 55.5206L245.813 102.942C246.472 103.821 246.604 105.274 246.11 106.247L210.875 176.045C210.73 176.335 210.54 176.556 210.323 176.698V176.702ZM173.177 125.698C172.757 126.529 172.873 127.816 173.435 128.565L208.941 175.987C209.192 176.318 209.485 176.488 209.771 176.464C210.061 176.441 210.321 176.225 210.506 175.859L245.741 106.06C246.161 105.229 246.045 103.943 245.483 103.192L209.975 55.771C209.725 55.4396 209.431 55.2703 209.145 55.2937C208.858 55.3171 208.597 55.5332 208.41 55.9006L173.177 125.698Z" fill="#07303A"/>
<path d="M181.198 126.086L210.892 178.762C211.387 179.641 210.978 180.394 209.975 180.443L208.496 180.513C207.493 180.561 206.191 179.946 205.584 179.137L167.101 127.743C166.71 127.22 166.438 126.622 166.352 126.149L164.65 126.232C164.736 126.704 165.008 127.305 165.399 127.825L204.956 180.653C205.561 181.462 206.865 182.078 207.866 182.029L212.493 181.806C213.496 181.757 213.906 181.004 213.409 180.126L182.9 126.005C182.79 125.812 182.704 125.592 182.641 125.356L180.939 125.443C181.004 125.677 181.088 125.893 181.198 126.086Z" fill="#07303A"/>
<path d="M213.325 181.774C213.107 181.914 212.828 181.999 212.505 182.013L207.879 182.237C206.798 182.289 205.442 181.646 204.79 180.776L165.235 127.948C164.837 127.417 164.542 126.787 164.448 126.264L164.405 126.034L166.524 125.931L166.559 126.111C166.642 126.565 166.913 127.143 167.268 127.619L205.752 179.015C206.321 179.773 207.546 180.355 208.487 180.308L209.966 180.238C210.377 180.216 210.679 180.068 210.816 179.814C210.955 179.562 210.917 179.225 210.715 178.865L181.02 126.191C180.905 125.989 180.811 125.755 180.741 125.497L180.674 125.249L182.799 125.141L182.844 125.305C182.907 125.53 182.987 125.731 183.086 125.906L213.593 180.027C213.872 180.517 213.908 180.998 213.699 181.381C213.613 181.541 213.485 181.675 213.328 181.777L213.325 181.774ZM164.911 126.426C165.03 126.835 165.267 127.304 165.565 127.7L205.12 180.528C205.689 181.286 206.913 181.866 207.853 181.821L212.48 181.595C212.891 181.574 213.191 181.424 213.33 181.174C213.467 180.922 213.431 180.585 213.227 180.225L182.72 126.104C182.63 125.944 182.551 125.766 182.488 125.571L181.218 125.636C181.267 125.762 181.319 125.879 181.378 125.985L211.074 178.66C211.351 179.152 211.389 179.631 211.178 180.014C210.971 180.396 210.546 180.625 209.986 180.65L208.507 180.722C207.427 180.774 206.071 180.133 205.419 179.262L166.937 127.864C166.584 127.392 166.312 126.844 166.189 126.362L164.911 126.423V126.426Z" fill="#07303A"/>
<path d="M218.762 52.2147C218.481 52.2525 218.207 52.4776 218 52.8882L217.991 52.908L182.819 122.785C182.466 123.486 182.414 124.518 182.643 125.357L180.939 125.441C180.71 124.604 180.766 123.57 181.115 122.87L216.298 52.9747C216.521 52.5335 216.815 52.3065 217.121 52.2921C217.251 52.2867 218.459 52.2291 218.762 52.2129V52.2147Z" fill="#94B2C9"/>
<path d="M182.911 125.55L180.782 125.657L180.737 125.495C180.49 124.589 180.566 123.496 180.928 122.775L216.114 52.8783C216.365 52.3813 216.716 52.1021 217.11 52.0841C217.242 52.0787 218.448 52.0211 218.747 52.0049L218.789 52.4191C218.569 52.4515 218.351 52.6478 218.185 52.981L183.006 122.878C182.688 123.51 182.623 124.484 182.844 125.3L182.911 125.55ZM181.099 125.223L182.383 125.158C182.207 124.297 182.299 123.351 182.634 122.687L217.805 52.8099C217.872 52.6766 217.948 52.5578 218.025 52.4587C217.622 52.4785 217.204 52.4983 217.132 52.5001C216.894 52.5145 216.664 52.7144 216.483 53.071L181.301 122.966C181.004 123.56 180.926 124.448 181.097 125.226L181.099 125.223Z" fill="#07303A"/>
<path d="M182.821 122.784C182.371 123.683 182.407 125.122 182.902 126.002L213.424 180.145C213.865 180.954 213.543 181.647 212.705 181.782C213.154 181.721 213.629 181.528 214.047 181.251C214.51 180.945 214.906 180.545 215.129 180.107L250.364 110.291C250.816 109.394 250.78 107.956 250.283 107.075L219.72 52.8604C219.223 51.9797 218.455 51.9905 218.002 52.8856L182.821 122.784Z" fill="#2B545E"/>
<path d="M214.131 181.444C213.683 181.736 213.188 181.928 212.732 181.99L212.669 181.577C212.999 181.525 213.238 181.372 213.344 181.149C213.462 180.906 213.424 180.585 213.24 180.246L182.72 126.106C182.187 125.158 182.149 123.656 182.634 122.689L217.814 52.7925C218.068 52.2901 218.43 52.0073 218.835 52.0001C219.239 51.9929 219.617 52.2631 219.898 52.7601L250.461 106.975C250.996 107.922 251.032 109.422 250.544 110.387L215.311 180.203C215.081 180.653 214.672 181.087 214.157 181.426L214.13 181.444H214.131ZM213.78 181.17C213.831 181.141 213.876 181.113 213.928 181.077C214.384 180.778 214.744 180.398 214.94 180.01L250.173 110.196C250.596 109.357 250.564 108.001 250.099 107.178L219.538 52.9636C219.338 52.6106 219.086 52.4125 218.844 52.4162C218.607 52.4216 218.364 52.6251 218.185 52.9816L183.006 122.878C182.585 123.719 182.617 125.077 183.082 125.9L213.604 180.043C213.822 180.441 213.883 180.832 213.784 181.168L213.78 181.17Z" fill="#07303A"/>
<path d="M226.803 141.115L213.705 166.866L210.378 161.111L223.475 135.359L226.803 141.115Z" fill="#07303A"/>
<path d="M213.715 167.302L210.141 161.115L210.191 161.015L223.46 134.925L227.037 141.111L226.986 141.212L213.715 167.302ZM210.614 161.106L213.692 166.43L226.567 141.12L223.487 135.795L210.614 161.106Z" fill="#07303A"/>
<path d="M214.904 237.006L135.994 192.045C134.883 191.379 134.54 190.565 134.54 189.526V128.477L214.277 174.573L214.906 237.005L214.904 237.006Z" fill="#2B545E"/>
<path d="M214.372 174.408L214.466 174.462L214.468 174.57L215.096 237.003L215.097 237.082L215.041 237.139L215.039 237.141L214.937 237.244L135.9 192.21L135.896 192.208C135.318 191.861 134.927 191.469 134.683 191.016C134.439 190.563 134.35 190.066 134.35 189.525V128.146L214.372 174.408ZM134.731 189.525C134.731 190.024 134.813 190.454 135.018 190.835C135.222 191.214 135.557 191.561 136.088 191.88L214.711 236.677L214.088 174.683L134.731 128.807V189.525Z" fill="#07303A"/>
<path d="M238.925 161.689L240.716 167.627C241.014 168.614 242.163 169.057 243.047 168.527L259.059 158.921C259.73 158.518 260.168 157.815 260.233 157.035L260.948 148.469C261.005 147.772 261.4 147.148 262.005 146.796L286.252 132.684V194.412C286.252 195.029 285.925 195.602 285.39 195.913L214.906 237.008L214.277 174.576L237.43 161.102C238.002 160.769 238.735 161.057 238.926 161.691L238.925 161.689Z" fill="#94B2C9"/>
<path d="M286.062 133.014L262.101 146.96C261.618 147.242 261.282 147.712 261.171 148.25L261.138 148.484L260.423 157.052C260.357 157.84 259.938 158.555 259.289 158.999L259.156 159.084L243.145 168.69C242.216 169.246 241.027 168.845 240.607 167.882L240.534 167.682L238.742 161.744L238.735 161.724C238.58 161.255 238.058 161.029 237.614 161.222L237.525 161.267L214.469 174.685L215.092 236.679L285.294 195.749L285.464 195.635C285.839 195.344 286.062 194.893 286.062 194.411V133.014ZM286.442 194.411C286.442 195.054 286.123 195.653 285.594 196.01L285.485 196.078L214.719 237.338L214.716 237.011L214.087 174.578L214.086 174.468L237.334 160.938L237.464 160.872C238.119 160.587 238.896 160.931 239.108 161.636L239.327 162.36L239.324 162.357L240.898 167.571L240.956 167.729C241.285 168.485 242.22 168.801 242.949 168.364L258.961 158.758L259.074 158.685C259.629 158.304 259.987 157.693 260.043 157.02L260.758 148.453L260.774 148.312C260.876 147.61 261.292 146.991 261.909 146.631L286.156 132.52L286.442 132.353V194.411Z" fill="#07303A"/>
<path d="M167.531 156.555L180.327 163.973C183.322 165.709 185.164 168.909 185.164 172.371V172.427C185.164 175.726 181.582 177.781 178.735 176.113L165.919 168.607C162.957 166.871 161.131 163.699 161.118 160.267C161.106 156.969 164.679 154.9 167.531 156.555Z" fill="#94B2C9"/>
<path d="M184.974 172.37C184.974 169.083 183.278 166.035 180.503 164.301L180.231 164.138L167.435 156.72C164.795 155.188 161.509 156.995 161.317 159.974L161.309 160.266L161.314 160.58C161.433 163.824 163.202 166.794 166.016 168.443L178.831 175.948L179.088 176.087C181.762 177.418 184.974 175.48 184.974 172.426V172.37ZM185.354 172.426C185.354 175.764 181.843 177.883 178.92 176.429L178.639 176.276L165.823 168.771C162.897 167.056 161.058 163.968 160.935 160.595L160.928 160.267C160.915 156.823 164.647 154.661 167.627 156.39L180.422 163.808L180.705 163.979C183.591 165.783 185.354 168.952 185.354 172.37V172.426Z" fill="#07303A"/>
<path d="M180.316 174.699L167.501 167.195C164.538 165.461 162.712 162.288 162.699 158.855C162.696 157.947 162.982 157.148 163.432 156.478C164.653 155.842 166.171 155.767 167.533 156.555L180.328 163.973C183.323 165.709 185.167 168.91 185.167 172.371V172.427C185.167 173.329 184.883 174.123 184.436 174.79C183.21 175.427 181.683 175.501 180.318 174.701L180.316 174.699Z" fill="#07303A"/>
<path d="M184.978 172.371C184.978 169.083 183.28 166.036 180.505 164.301L180.233 164.137L167.438 156.719C166.154 155.976 164.725 156.036 163.564 156.625C163.148 157.258 162.886 158.007 162.89 158.854L162.896 159.168C163.015 162.412 164.783 165.384 167.597 167.031L180.412 174.535L180.424 174.542C181.708 175.289 183.14 175.23 184.304 174.642C184.716 174.012 184.978 173.269 184.978 172.426V172.371ZM185.358 172.426C185.358 173.37 185.06 174.201 184.595 174.895L184.567 174.935L184.525 174.958C183.246 175.622 181.649 175.701 180.222 174.865L180.2 174.853L180.195 174.848L167.404 167.359C164.384 165.591 162.522 162.355 162.509 158.855L162.522 158.504C162.583 157.698 162.864 156.982 163.275 156.372L163.302 156.331L163.345 156.309C164.618 155.646 166.205 155.566 167.628 156.39L180.424 163.808L180.707 163.978C183.594 165.782 185.358 168.952 185.358 172.371V172.426Z" fill="#07303A"/>
<path d="M165.638 110.364L135.882 127.703L135.848 127.684L134.551 128.472L212.732 173.67L212.721 173.675L214.276 174.574C214.276 174.574 214.285 174.568 214.286 174.568L214.297 174.574L215.162 174.057C219.307 171.64 236.726 161.488 237.428 161.098C237.84 160.869 238.21 160.966 238.453 161.098C238.564 161.157 237.873 160.653 237.293 160.233C236.841 159.905 236.238 159.878 235.757 160.161L214.222 172.796L137.209 128.469L164.558 112.549L165.638 110.364Z" fill="#94B2C9"/>
<path d="M165.809 110.448L164.729 112.633L164.703 112.685L164.654 112.713L137.588 128.467L214.22 172.576L235.661 159.997L235.764 159.941C236.291 159.682 236.923 159.73 237.405 160.079L238.245 160.692C238.361 160.778 238.457 160.849 238.517 160.896C238.545 160.918 238.573 160.941 238.59 160.957C238.594 160.961 238.604 160.971 238.615 160.984C238.618 160.989 238.634 161.01 238.645 161.041C238.65 161.057 238.661 161.093 238.652 161.139C238.641 161.193 238.607 161.24 238.559 161.268C238.52 161.29 238.483 161.293 238.466 161.293C238.447 161.293 238.432 161.291 238.424 161.289C238.408 161.286 238.395 161.28 238.39 161.278C238.379 161.274 238.369 161.269 238.364 161.266L238.363 161.265C238.156 161.153 237.858 161.075 237.52 161.263L237.521 161.264C236.821 161.653 219.408 171.8 215.258 174.22L215.259 174.221L214.305 174.791L214.293 174.785L214.278 174.795L214.18 174.738L212.321 173.663L212.33 173.657L134.178 128.477L135.749 127.521L135.845 127.462L135.881 127.482L166.09 109.881L165.809 110.448ZM135.882 127.924L135.849 127.904L134.923 128.468L213.133 173.682L213.121 173.687L214.284 174.359L215.064 173.894L215.066 173.893L227.491 166.653C232.451 163.765 236.981 161.129 237.335 160.932L237.516 160.848C237.59 160.82 237.662 160.802 237.733 160.789L237.181 160.388C236.84 160.14 236.398 160.091 236.014 160.246L235.853 160.325L214.318 172.96L214.222 173.017L214.126 172.961L136.829 128.47L137.114 128.305L164.411 112.413L165.188 110.846L135.882 127.924Z" fill="#07303A"/>
<path d="M249.739 111.652L286.496 132.809L285.075 133.652L285.06 133.645L262.234 146.93C261.63 147.281 261.236 147.906 261.177 148.603L260.458 157.219C260.395 157.97 259.975 158.643 259.329 159.03L243.276 168.662C243.276 168.662 242.676 169.053 241.984 168.822C241.195 168.557 241.028 167.977 241.028 167.977L257.742 158.031C258.569 157.539 259.109 156.677 259.188 155.717L259.88 147.434C259.938 146.737 260.332 146.114 260.937 145.761L283.403 132.685L249.123 112.868L249.737 111.65L249.739 111.652Z" fill="#94B2C9"/>
<path d="M249.856 111.501L286.873 132.807L285.172 133.815L285.083 133.869L285.067 133.86L262.33 147.095C261.849 147.375 261.514 147.846 261.401 148.385L261.366 148.619L260.647 157.234C260.583 157.996 260.181 158.683 259.554 159.111L259.426 159.193L243.374 168.825L243.373 168.824C243.371 168.825 243.37 168.827 243.368 168.828C243.362 168.832 243.354 168.837 243.343 168.843C243.323 168.855 243.293 168.871 243.256 168.89C243.181 168.927 243.073 168.973 242.942 169.011C242.681 169.087 242.318 169.134 241.924 169.003L241.924 169.002C241.491 168.857 241.222 168.622 241.061 168.418C240.981 168.317 240.928 168.224 240.895 168.154C240.879 168.12 240.866 168.091 240.858 168.069C240.854 168.059 240.851 168.05 240.849 168.044L240.845 168.032V168.03L240.804 167.889L240.93 167.813L257.645 157.867L257.787 157.777C258.48 157.306 258.929 156.543 258.999 155.701L259.69 147.419L259.707 147.277C259.808 146.576 260.224 145.957 260.841 145.597L283.024 132.685L249.028 113.032L248.872 112.942L248.953 112.782L249.567 111.564L249.686 111.33L249.856 111.501ZM249.373 112.792L283.783 132.685L261.033 145.926C260.55 146.207 260.215 146.677 260.103 147.216L260.07 147.45L259.378 155.732C259.299 156.69 258.789 157.556 258.001 158.092L257.84 158.194L241.272 168.053C241.294 168.091 241.323 168.135 241.36 168.183C241.48 168.334 241.689 168.522 242.045 168.642L242.155 168.673C242.411 168.732 242.65 168.7 242.836 168.646C242.941 168.615 243.027 168.578 243.087 168.549C243.116 168.534 243.138 168.522 243.153 168.514C243.16 168.51 243.166 168.506 243.169 168.504L243.177 168.498L259.231 158.867L259.34 158.798C259.872 158.434 260.214 157.85 260.268 157.203L260.987 148.587L261.004 148.446C261.106 147.745 261.522 147.124 262.138 146.766L285.053 133.429L285.066 133.435L286.118 132.812L249.815 111.916L249.373 112.792Z" fill="#07303A"/>
<path d="M272.926 91.0019C264.821 90.5178 264.424 90.1219 263.933 82.0811C263.443 90.1219 263.045 90.5178 254.936 91.0019C263.045 91.4859 263.442 91.8818 263.933 99.92C264.422 91.8818 264.821 91.4859 272.926 91.0019Z" fill="#94B2C9"/>
<path d="M263.933 81.8906C263.832 81.8906 263.749 81.969 263.742 82.0693C263.62 84.0818 263.504 85.6011 263.274 86.7617C263.044 87.9208 262.706 88.6965 262.157 89.2402C261.609 89.784 260.827 90.1199 259.657 90.3477C258.487 90.5756 256.954 90.6904 254.924 90.8115C254.824 90.8176 254.745 90.9013 254.745 91.002C254.745 91.1026 254.824 91.1853 254.924 91.1914C256.954 91.3126 258.487 91.4283 259.657 91.6562C260.827 91.8839 261.609 92.22 262.157 92.7637C262.705 93.3072 263.044 94.0819 263.274 95.2402C263.504 96.4005 263.62 97.9197 263.742 99.9316C263.749 100.032 263.832 100.11 263.933 100.11C264.033 100.11 264.116 100.032 264.122 99.9316C264.245 97.9197 264.361 96.4005 264.591 95.2402C264.821 94.0818 265.159 93.3072 265.707 92.7637C266.255 92.22 267.038 91.8839 268.206 91.6562C269.377 91.4283 270.909 91.3126 272.938 91.1914C273.038 91.1852 273.116 91.1025 273.116 91.002C273.116 90.9014 273.038 90.8177 272.938 90.8115C270.909 90.6904 269.377 90.5756 268.207 90.3477C267.039 90.1199 266.256 89.784 265.708 89.2402C265.16 88.6965 264.822 87.9209 264.592 86.7617C264.362 85.6011 264.245 84.0817 264.122 82.0693L264.105 81.999C264.074 81.9347 264.008 81.8907 263.933 81.8906ZM263.934 84.7041C264.009 85.5183 264.098 86.2241 264.219 86.8359C264.455 88.0276 264.814 88.8899 265.44 89.5107C266.065 90.1314 266.934 90.4878 268.134 90.7217C268.743 90.8403 269.444 90.9279 270.252 91.002C269.444 91.076 268.743 91.1636 268.134 91.2822C266.933 91.5161 266.065 91.8727 265.44 92.4932C264.814 93.1138 264.454 93.9749 264.218 95.166C264.097 95.7772 264.008 96.4827 263.933 97.2959C263.857 96.4827 263.768 95.7772 263.647 95.166C263.411 93.975 263.051 93.1138 262.425 92.4932C261.799 91.8727 260.931 91.5161 259.73 91.2822C259.121 91.1637 258.419 91.0759 257.612 91.002C258.419 90.928 259.121 90.8403 259.73 90.7217C260.931 90.4878 261.8 90.1314 262.426 89.5107C263.052 88.8899 263.412 88.0276 263.648 86.8359C263.769 86.2241 263.859 85.5183 263.934 84.7041Z" fill="#07303A"/>
</g>
<defs>
<clipPath id="clip0_9503_7997">
<rect width="177.611" height="196" fill="white" transform="translate(116 52)"/>
</clipPath>
</defs>
</svg>
