<svg width="172" height="172" viewBox="0 0 172 172" fill="none" xmlns="http://www.w3.org/2000/svg">
<path d="M103.359 100.446L56.4294 14.2241C55.1138 11.8417 51.6693 11.959 50.5212 14.4203L18.1345 84.7934C17.5365 86.0994 17.5843 87.6063 18.254 88.874L32.4621 115.527L103.359 100.446Z" fill="#C8DAE8"/>
<path d="M32.1437 116.218L17.7203 89.1607C16.9644 87.7303 16.9118 86.0057 17.5839 84.5394L49.9708 14.1663C50.5999 12.8173 51.9106 11.949 53.3912 11.8988C54.8503 11.8485 56.2424 12.6284 56.9623 13.932L104.282 100.872L32.1437 116.218ZM53.5299 13.1115C53.4964 13.1115 53.4653 13.1115 53.4318 13.1115C52.3937 13.1474 51.5112 13.731 51.0735 14.6758L18.6866 85.0441C18.1723 86.1683 18.213 87.4911 18.7919 88.5866L32.7848 114.836L102.438 100.018L55.8979 14.5109C55.41 13.6282 54.5298 13.1067 53.5324 13.1067L53.5299 13.1115Z" fill="#155C6D"/>
<path d="M95.2735 85.5623L56.3328 14.0819C55.6152 12.7711 53.7017 12.8333 53.0798 14.1871L20.0951 85.3543C19.9755 85.6198 20.1668 85.9211 20.4777 85.9187L95.2735 85.5623Z" fill="#70C5AD"/>
<path d="M20.4749 86.5265C20.1233 86.5265 19.8026 86.3543 19.6137 86.0649C19.4271 85.7755 19.4008 85.4167 19.5443 85.1034L52.5315 13.9337C52.9142 13.1013 53.7252 12.5632 54.6461 12.5321C55.6172 12.5177 56.4232 12.9817 56.8681 13.7926L96.2967 86.1677L20.4844 86.5288H20.4772L20.4749 86.5265ZM54.7321 13.7423C54.7177 13.7423 54.7011 13.7423 54.6843 13.7423C54.2203 13.7591 53.8256 14.0198 53.6319 14.4408L20.7859 85.3114L94.254 84.9622L55.8013 14.3739C55.5836 13.9768 55.1866 13.7423 54.7345 13.7423H54.7321Z" fill="#155C6D"/>
<path d="M77.7645 85.714L90.37 58.2977C90.8723 57.1926 90.8245 55.9129 90.2265 54.8533L65.159 10.4471C64.5131 9.27979 62.815 9.33481 62.2648 10.5403L27.1273 85.4078C27.0316 85.6446 27.199 85.9125 27.4621 85.9125L77.7645 85.714Z" fill="#155C6D"/>
<path d="M27.4649 86.523C27.1396 86.523 26.8381 86.3652 26.6587 86.0973C26.477 85.827 26.4411 85.4849 26.5631 85.1835L61.7149 10.2873C62.0594 9.53141 62.7961 9.03631 63.6381 9.00282C64.5064 8.95977 65.2789 9.41192 65.688 10.1582L90.753 54.5596C91.4419 55.7795 91.5041 57.272 90.9228 58.5541L78.1523 86.3269L27.4649 86.5255V86.523ZM63.7337 10.2132H63.6883C63.3032 10.2276 62.978 10.4452 62.8201 10.7944L27.8476 85.3055L77.3749 85.1093L89.8201 58.0446C90.2411 57.1165 90.1957 56.0354 89.6958 55.1528L64.6307 10.749C64.4417 10.4094 64.1116 10.2132 63.7337 10.2132Z" fill="#155C6D"/>
<path d="M78.9611 85.7232L91.5904 58.307C92.0927 57.2019 92.0449 55.9222 91.4469 54.8626L66.3555 10.4563C65.7336 9.28906 64.0354 9.34408 63.4614 10.5496L28.3477 85.4171C28.2281 85.6539 28.4194 85.9218 28.6586 85.9218L78.9611 85.7232Z" fill="#70C5AD"/>
<path d="M28.661 86.5297C28.3309 86.5297 28.0175 86.3527 27.8453 86.0681C27.6707 85.7834 27.654 85.439 27.8023 85.1448L62.911 10.2917C63.277 9.51667 64.0377 9.02641 64.8892 9.00488C65.8005 9.01206 66.4989 9.43065 66.8912 10.1698L91.973 54.564C92.6619 55.7815 92.7217 57.274 92.1405 58.5585L79.346 86.3288L28.6585 86.5274L28.661 86.5297ZM28.9001 85.6663L28.8953 85.6758C28.8953 85.6758 28.9001 85.6687 28.9001 85.6663ZM64.9442 10.2223H64.9178C64.5207 10.2319 64.1788 10.452 64.009 10.8131L29.0652 85.3171L78.5686 85.1209L91.0378 58.0562C91.4588 57.1281 91.4134 56.0469 90.9183 55.1667L65.8267 10.7604C65.645 10.4184 65.3174 10.2223 64.9442 10.2223Z" fill="#155C6D"/>
<path d="M76.1614 41.0044L71.545 51.3422C71.3058 51.8828 70.5642 51.9188 70.2772 51.4021L65.3019 42.5496C64.9432 41.9229 64.9193 41.1622 65.2303 40.5092L69.8946 30.4679C70.1338 29.9369 70.8991 29.9058 71.1862 30.4153L76.0656 38.9831C76.4244 39.6027 76.4484 40.3514 76.1614 41.0044Z" fill="#155C6D"/>
<path d="M70.8968 52.3776C70.4184 52.3776 69.9832 52.1217 69.7487 51.6983L64.7735 42.8481C64.3238 42.0588 64.288 41.0853 64.6827 40.2505L69.3445 30.214C69.5478 29.7643 69.9927 29.4676 70.4974 29.4461C70.9614 29.4365 71.4709 29.683 71.7173 30.1207L76.5945 38.6862C77.0417 39.4516 77.0872 40.4131 76.7188 41.2503L72.1024 51.5931C71.9015 52.0523 71.4613 52.3537 70.959 52.3776C70.9375 52.3776 70.9161 52.3776 70.8993 52.3776H70.8968ZM70.6577 30.7162L70.4448 30.7234L65.7805 40.7647C65.5533 41.2455 65.5724 41.798 65.8308 42.2477L70.8084 51.105L70.9926 51.0955L75.6067 40.76C75.8196 40.2744 75.7955 39.7242 75.542 39.2888L70.6577 30.7162Z" fill="#155C6D"/>
<path d="M91.0163 77.9806L61.9065 142.257L33.7535 84.379C33.2751 83.4175 33.275 82.3005 33.7295 81.3317L57.9837 28.824C58.8688 26.9128 61.5477 26.7932 62.6002 28.6183L91.0163 77.9806Z" fill="#C8DAE8"/>
<path d="M61.9254 143.688L33.2079 84.6452C32.653 83.5282 32.641 82.227 33.1768 81.0764L57.4334 28.5711C57.9381 27.478 59.0002 26.7676 60.2033 26.715C61.4519 26.6504 62.5282 27.2771 63.1262 28.3152L91.6979 77.9478L61.9254 143.688ZM60.3515 27.9253C60.318 27.9253 60.2894 27.9253 60.2559 27.9253C59.4976 27.9588 58.8519 28.3893 58.5337 29.0782L34.277 81.5859C33.8967 82.4016 33.9039 83.32 34.2962 84.1069L61.8848 140.825L90.332 78.01L62.0738 28.9179C61.7126 28.2888 61.0715 27.9205 60.3515 27.9205V27.9253Z" fill="#155C6D"/>
<path d="M90.2497 82.2706L62.5034 143.535L35.666 88.3677C35.2115 87.454 35.2114 86.3872 35.6181 85.4639L60.7812 31.0737L90.2497 82.2706Z" fill="#155C6D"/>
<path d="M62.5226 144.966L35.1206 88.6362C34.5944 87.579 34.5728 86.3327 35.0656 85.2205L60.7263 29.7563L90.9364 82.2402L62.5226 144.966ZM60.8411 32.3947L36.1731 85.7205C35.831 86.4907 35.8429 87.3612 36.2137 88.098L62.4867 142.108L89.5705 82.3047L60.8411 32.3947Z" fill="#155C6D"/>
<path d="M152.704 108.91L68.2923 143.938C65.6851 145.012 62.6952 143.883 61.4753 141.362L33.394 83.6445C34.1595 85.2232 36.0251 85.9312 37.6516 85.259L123.69 49.7652C126.321 48.6792 129.334 49.8584 130.53 52.4345L154.521 104.258C155.359 106.043 154.522 108.155 152.704 108.91Z" fill="#C8DAE8"/>
<path d="M66.2543 144.949C64.0465 144.949 61.9392 143.714 60.9275 141.624L32.851 83.9185C32.851 83.9185 32.851 83.9114 32.8462 83.909L33.9392 83.3778V83.385C34.5731 84.6695 36.104 85.2436 37.4195 84.6959L123.457 49.202C126.39 47.9941 129.746 49.2952 131.083 52.1775L155.072 104.004C155.543 105.006 155.583 106.132 155.181 107.17C154.775 108.221 153.978 109.036 152.938 109.469L68.5266 144.497C67.7827 144.803 67.0148 144.946 66.2566 144.946L66.2543 144.949ZM35.1807 85.9301L62.023 141.093C63.1017 143.325 65.7472 144.327 68.0602 143.375L152.469 108.347C153.203 108.044 153.763 107.469 154.048 106.73C154.328 106.003 154.299 105.216 153.971 104.513L129.98 52.687C128.918 50.3979 126.256 49.3551 123.921 50.3238L37.8835 85.8177C36.9961 86.1836 36.0418 86.2028 35.1807 85.9301Z" fill="#155C6D"/>
<path d="M61.141 140.662L35.4756 87.9459L35.8582 88.7328C36.4323 89.8713 37.7957 90.3761 38.9677 89.8905L125.556 54.2698C125.604 54.2482 125.651 54.2363 125.723 54.2363C125.747 54.2363 125.986 54.2435 126.106 54.4779L149.475 104.969L66.4033 139.432C66.3554 139.456 63.509 140.846 61.141 140.662Z" fill="#155C6D"/>
<path d="M124.957 63.238C128.617 63.238 131.607 60.2577 131.607 56.5837C131.607 52.9097 128.617 49.9292 124.957 49.9292C121.297 49.9292 118.308 52.9097 118.308 56.5837C118.308 60.2577 121.297 63.238 124.957 63.238Z" fill="#C8DAE8"/>
<path d="M60.4951 38.9107C62.4086 38.9107 63.9634 36.3895 63.9634 33.28C63.9634 30.1705 62.4086 27.6494 60.4951 27.6494C58.5576 27.6494 57.0029 30.1705 57.0029 33.28C57.0029 36.3895 58.5576 38.9107 60.4951 38.9107Z" fill="#C8DAE8"/>
<path d="M145.624 110.349C149.26 110.349 152.226 107.38 152.226 103.721C152.226 100.061 149.26 97.0903 145.624 97.0903C141.965 97.0903 139.022 100.059 139.022 103.721C139.022 107.383 141.965 110.349 145.624 110.349Z" fill="#C8DAE8"/>
<path d="M62.8389 49.6415L59.4662 57.1833C58.916 58.4367 57.1222 58.4248 56.596 57.1618L56.5002 56.9728C55.9979 55.7768 56.0219 54.4183 56.572 53.239L59.9685 45.9054C60.5426 44.6784 62.2887 44.6975 62.8389 45.9365C63.3651 47.1181 63.3651 48.4647 62.8389 49.6415Z" fill="#C8DAE8"/>
<path d="M58.0355 58.7236H58.0115C57.1289 58.714 56.3707 58.2069 56.0358 57.3961L55.9592 57.2478C55.3708 55.8533 55.4019 54.3129 56.0214 52.983L59.418 45.6518C59.7816 44.872 60.5398 44.3911 61.3937 44.3911H61.4177C62.2835 44.4007 63.0418 44.8982 63.3934 45.6923C63.989 47.0294 63.989 48.5604 63.3934 49.8927L60.0232 57.432C59.6739 58.2285 58.9133 58.7261 58.0378 58.7261L58.0355 58.7236ZM61.3937 45.6039C61.011 45.6039 60.6833 45.812 60.5207 46.1636L57.124 53.4949C56.648 54.5162 56.6241 55.6979 57.0619 56.7384L57.1385 56.8866C57.3059 57.286 57.6312 57.5037 58.0235 57.5085H58.0355C58.4277 57.5085 58.7554 57.2957 58.9108 56.9393L62.2835 49.3927C62.738 48.3761 62.738 47.2041 62.2835 46.1827C62.1233 45.8239 61.7956 45.6063 61.4057 45.6015L61.3937 45.6039Z" fill="#155C6D"/>
<path d="M127.756 134.544L139.668 156.938C141.223 159.863 139.094 163.386 135.769 163.386H60.9736C59.2275 163.386 57.6488 162.43 56.8116 160.901L17.5361 87.5454L17.5601 87.5717C18.2298 88.8227 19.5453 89.6 20.9566 89.5928L94.7955 89.2196C100.249 89.2196 105.272 92.2335 107.832 97.0556L119.385 118.774C124.767 120.167 129.885 113.718 131.177 112.558C133.33 110.623 136.08 109.831 138.544 110.726C142.467 112.154 144.189 117.351 142.347 122.336C141.941 123.484 141.366 124.52 140.697 125.419C138.424 128.419 131.033 133.987 127.756 134.544Z" fill="#70C5AD"/>
<path d="M135.769 163.994H60.9732C59.0238 163.994 57.2226 162.92 56.2778 161.193L17 87.8326L17.9926 87.1484L18.093 87.2871C18.6551 88.3372 19.7411 88.9878 20.9323 88.9878H20.9514L94.7929 88.6146C100.495 88.6146 105.698 91.7409 108.369 96.7735L119.791 118.248C123.982 119.114 128.179 114.77 129.988 112.895C130.32 112.551 130.583 112.278 130.77 112.108C133.176 109.946 136.159 109.216 138.752 110.159C140.498 110.795 141.935 112.166 142.794 114.022C143.952 116.519 143.997 119.628 142.916 122.551C142.512 123.695 141.928 124.786 141.184 125.785C139.125 128.503 132.437 133.743 128.655 134.949L140.206 156.658C141.034 158.218 140.983 160.052 140.074 161.569C139.158 163.09 137.549 163.999 135.767 163.999L135.769 163.994ZM19.5235 89.9709L57.3447 160.614C58.0743 161.949 59.4663 162.779 60.9732 162.779H135.769C137.118 162.779 138.34 162.09 139.034 160.937C139.723 159.791 139.761 158.402 139.132 157.223L126.823 134.088L127.653 133.947C130.689 133.43 137.946 128.046 140.213 125.053C140.881 124.154 141.407 123.171 141.773 122.135C142.744 119.507 142.715 116.737 141.691 114.529C140.957 112.948 139.797 111.831 138.336 111.297C136.18 110.515 133.65 111.154 131.583 113.01C131.411 113.163 131.167 113.417 130.863 113.735C128.871 115.804 124.218 120.647 119.234 119.365L118.975 119.298L107.295 97.3428C104.837 92.7072 100.048 89.8297 94.7952 89.8297L20.9586 90.2029H20.9323C20.4467 90.2029 19.9708 90.1216 19.5235 89.9709Z" fill="#155C6D"/>
<path d="M96.3258 85.561C101.779 85.561 106.802 88.5748 109.362 93.3945L122.852 118.696C121.728 119.007 120.556 119.079 119.384 118.773L107.831 97.0519C105.272 92.2322 100.249 89.2183 94.7949 89.2183L96.3258 85.561Z" fill="#C8DAE8"/>
<path d="M120.932 119.577C120.351 119.577 119.784 119.505 119.232 119.362L118.976 119.295L107.296 97.3367C104.837 92.7035 100.046 89.8261 94.7956 89.8261H93.8818L95.9222 84.9536H96.3265C102.029 84.9536 107.231 88.08 109.901 93.1102L123.748 119.079L123.018 119.28C122.308 119.479 121.612 119.577 120.932 119.577ZM119.791 118.247C120.478 118.39 121.195 118.4 121.942 118.278L108.827 93.6819C106.43 89.1659 101.821 86.3171 96.7259 86.176L95.6949 88.6373C101.036 88.9482 105.834 92.0027 108.367 96.7674L119.789 118.245L119.791 118.247Z" fill="#155C6D"/>
<path d="M130.674 133.39C129.55 133.993 128.545 134.414 127.756 134.546L139.644 156.941C140.266 158.116 140.313 159.388 139.907 160.491L141.438 157.652C142.131 156.386 142.131 154.865 141.462 153.597L130.674 133.39Z" fill="#C8DAE8"/>
<path d="M140.442 160.781L139.337 160.283C139.703 159.286 139.622 158.202 139.105 157.229L126.823 134.089L127.655 133.95C128.322 133.838 129.243 133.472 130.387 132.857L130.925 132.568L141.999 153.313C142.772 154.777 142.76 156.506 141.971 157.946L140.442 160.781ZM128.657 134.948L140.179 156.657C140.385 157.045 140.536 157.446 140.636 157.853L140.899 157.363C141.495 156.279 141.502 154.978 140.923 153.88L130.418 134.204C129.755 134.536 129.172 134.783 128.655 134.945L128.657 134.948Z" fill="#155C6D"/>
<path d="M140.959 121.105C142.323 117.376 141.174 113.537 138.4 112.53C135.625 111.52 132.276 113.726 130.913 117.455C129.55 121.184 130.698 125.023 133.472 126.03C136.247 127.039 139.596 124.834 140.959 121.105Z" fill="#155C6D"/>
<path d="M140.505 122.129C140.672 121.796 140.84 121.461 140.959 121.098C141.27 120.273 141.438 119.445 141.486 118.641L133.688 113.554C132.827 114.226 132.061 115.128 131.463 116.233L140.505 122.129Z" fill="#C8DAE8"/>
<path d="M139.931 123.104L130.985 117.275C130.961 117.337 130.937 117.392 130.913 117.457C130.722 117.978 130.603 118.5 130.507 119.019L138.831 124.456C139.237 124.063 139.596 123.602 139.931 123.104Z" fill="#C8DAE8"/>
<path d="M140.528 120.935C141.581 118.038 140.695 115.053 138.543 114.268C136.366 113.486 133.759 115.199 132.706 118.098C131.654 120.997 132.539 123.98 134.692 124.764C136.868 125.549 139.452 123.834 140.528 120.935Z" fill="#70C5AD"/>
<path d="M20.4302 85.9839L96.3263 85.5557L94.7954 89.2177L20.9565 89.5909" fill="#C8DAE8"/>
<path d="M20.9587 90.1988L20.954 88.9837L94.3887 88.6154L95.4124 86.1709L20.4326 86.5918L20.4277 85.3792L97.2375 84.9438L95.2019 89.8233L20.9587 90.1988Z" fill="#155C6D"/>
</svg>
