<svg width="172" height="173" viewBox="0 0 172 173" fill="none" xmlns="http://www.w3.org/2000/svg">
<g clip-path="url(#clip0_9503_13237)">
<path d="M82.2439 172.089C110.098 172.089 132.679 169.019 132.679 165.233C132.679 161.446 110.098 158.377 82.2439 158.377C54.3895 158.377 31.8091 161.446 31.8091 165.233C31.8091 169.019 54.3895 172.089 82.2439 172.089Z" fill="#155C6D"/>
<path d="M124.124 134.489C122.206 136.586 122.354 139.829 124.459 141.732L136.748 152.848C137.609 153.625 138.916 153.79 139.965 153.163C141.25 152.396 141.667 150.74 140.899 149.466L132.361 135.294C132.111 134.882 131.785 134.481 131.412 134.14C129.306 132.237 126.042 132.392 124.124 134.489Z" fill="#155C6D"/>
<path d="M147.741 93.9609L135.582 91.5099C134.941 91.3842 134.236 91.3708 133.553 91.5034C130.732 92.0494 128.885 94.7675 129.431 97.5706C129.974 100.374 132.704 102.205 135.525 101.657L147.712 99.2955C148.764 99.0905 149.643 98.2768 149.873 97.1671C150.175 95.6946 149.222 94.2609 147.744 93.9629L147.741 93.9609Z" fill="#155C6D"/>
<path d="M35.08 108.91C28.0727 92.5092 25.1766 75.3558 26.9764 60.6983C28.0663 51.6647 30.8427 44.1725 35.1884 38.4203C38.3762 34.2011 42.2117 31.1628 46.5147 29.29L46.8995 29.1353C47.1503 29.0082 47.4256 28.8962 47.7013 28.7866L69.1696 20.0927C64.6186 21.9375 60.5622 25.064 57.2234 29.4829C52.8777 35.235 50.1013 42.7273 49.0114 51.7608C47.2207 66.4579 50.0852 83.5538 57.1403 99.9924C64.1978 116.431 74.5792 130.299 86.4357 139.112C98.4536 148.017 110.728 150.673 120.842 147.172L100.075 155.602C100.075 155.602 99.8244 155.729 99.6905 155.756L99.661 155.798L99.6361 155.78C89.348 159.717 76.6936 157.156 64.3782 148.032C52.5079 139.238 42.115 125.33 35.0599 108.892L35.0848 108.909L35.08 108.91Z" fill="#155C6D"/>
<path d="M120.976 147.504L100.209 155.934C100.18 155.949 100.041 156.018 99.9035 156.066L99.7584 156.257L99.6026 156.17C88.9693 160.165 76.3914 157.382 64.1588 148.315C52.2747 139.512 41.821 125.561 34.7236 109.031L34.1964 107.8L34.2383 107.832C27.5617 91.704 24.8583 74.9989 26.6185 60.6526C27.7115 51.5799 30.4992 44.0253 34.8987 38.2036C38.0748 34.0009 41.9322 30.8911 46.3691 28.9618L46.7653 28.8027C46.9842 28.6883 47.2556 28.5818 47.5332 28.4695L69.0335 19.7629L69.3038 20.4253L69.2897 20.4277C64.717 22.2882 60.754 25.4062 57.5084 29.7004C53.1863 35.4196 50.4472 42.8596 49.3666 51.8046C47.5806 66.4573 50.4592 83.5218 57.4692 99.852C64.4958 116.223 74.8602 130.063 86.65 138.827C98.398 147.53 110.497 150.374 120.721 146.835L120.976 147.504ZM99.6993 155.378C99.7607 155.353 99.8422 155.317 99.9096 155.284L116.116 148.705C106.798 150.126 96.3656 146.918 86.2195 139.4C74.3294 130.561 63.886 116.614 56.8111 100.13C49.7525 83.6851 46.8547 66.4934 48.6539 51.7175C49.7489 42.642 52.535 35.0925 56.9365 29.2681C58.9067 26.6596 61.1381 24.4733 63.6076 22.7301L47.8398 29.116C47.5484 29.2331 47.2956 29.334 47.0672 29.4501L46.6509 29.6197C42.3412 31.4961 38.5778 34.5295 35.4792 38.6296C31.1571 44.3488 28.4181 51.7888 27.3379 60.7361C25.5454 75.3223 28.413 92.379 35.4156 108.766L35.9396 109.992L35.9309 109.984C42.9653 125.855 53.1097 139.23 64.5956 147.736C76.681 156.694 89.0807 159.431 99.5098 155.437L99.7056 155.372L99.6993 155.378Z" fill="#155C6D"/>
<path d="M47.7018 28.789C47.4262 28.8986 47.1505 29.0082 46.9001 29.1376L46.5153 29.2923C42.2146 31.1647 38.3768 34.2035 35.1886 38.4203C30.8429 44.1725 28.0665 51.6647 26.9766 60.6983C25.1767 75.3558 28.0757 92.5111 35.0802 108.91L35.0554 108.892C37.7114 115.077 40.8389 120.901 44.3376 126.232C52.8301 126.363 61.3395 124.744 69.3573 121.516C64.6633 115.102 60.5137 107.853 57.1381 99.9927C50.0835 83.5566 47.2189 66.4607 49.0092 51.7612C50.1015 42.7273 52.8755 35.2354 57.2216 29.4856C60.5628 25.0664 64.6188 21.9375 69.1702 20.0951L47.7018 28.789Z" fill="#70C5AD"/>
<path d="M69.919 121.675L69.4933 121.846C61.3506 125.126 52.8853 126.719 44.3341 126.585L44.1437 126.581L44.039 126.423C40.5016 121.035 37.3673 115.186 34.7259 109.03L34.1987 107.8L34.2378 107.83C27.5616 91.7039 24.8578 74.9966 26.618 60.6503C27.713 51.5748 30.4991 44.0253 34.9006 38.2008C38.0766 33.9981 41.9341 30.8884 46.371 28.959L46.7672 28.8C46.9952 28.6816 47.2799 28.568 47.5694 28.4537L69.0125 19.7689L69.0353 19.7601L69.3057 20.4225L69.2852 20.4308C64.7165 22.2858 60.7535 25.4038 57.5098 29.6953C53.1877 35.4145 50.4487 42.8545 49.3681 51.7995C47.5848 66.4542 50.4611 83.5191 57.4706 99.8469C60.7856 107.566 64.8817 114.785 69.6511 121.3L69.9206 121.67L69.919 121.675ZM44.5345 125.875C52.7763 125.976 60.9356 124.457 68.7948 121.355C64.1122 114.893 60.079 107.758 56.8091 100.133C49.7485 83.6906 46.853 66.4985 48.6518 51.7203C49.7468 42.6447 52.5329 35.0953 56.9345 29.2708C58.9046 26.6623 61.1341 24.4788 63.6012 22.736L47.8358 29.1215C47.5692 29.2272 47.3049 29.3324 47.0655 29.4552L46.6493 29.6248C42.3395 31.5012 38.5761 34.5346 35.4776 38.6347C31.1555 44.3539 28.4165 51.7939 27.3358 60.7389C25.5457 75.3247 28.4133 92.3813 35.4135 108.769L35.9375 109.995L35.9293 109.989C38.4136 115.591 41.3054 120.928 44.5393 125.874L44.5345 125.875Z" fill="#155C6D"/>
<path d="M86.4087 139.095C98.4265 147.999 110.701 150.656 120.815 147.155L123.462 146.099C123.462 146.099 123.491 146.058 123.532 146.058C127.544 144.16 131.132 141.251 134.134 137.273C138.48 131.521 141.256 124.029 142.346 114.995C144.162 100.316 141.272 83.2021 134.217 66.7636C127.185 50.3453 116.778 36.457 104.947 27.6613C92.6338 18.5363 79.9956 15.9562 69.7597 19.8718C69.7597 19.8718 69.705 19.8932 69.664 19.8953L69.2084 20.091C64.6598 21.9354 60.601 25.0623 57.2622 29.4812C52.9165 35.2333 50.1401 42.7255 49.0502 51.7591C47.2346 66.4387 50.124 83.5521 57.1791 99.9906C64.2113 116.409 74.618 130.297 86.4745 139.11L86.4087 139.095Z" fill="#C8DAE8"/>
<path d="M134.421 137.488C131.45 141.419 127.844 144.409 123.705 146.372L123.687 146.395L120.947 147.488C110.477 151.112 98.1377 148.232 86.1925 139.383L84.7347 138.301L84.8644 138.334C73.5303 129.447 63.6233 115.953 56.8456 100.132C49.7668 83.6392 46.8709 66.4447 48.6931 51.7182C49.7881 42.6426 52.5742 35.0932 56.9757 29.2687C60.3027 24.8664 64.3732 21.6649 69.0746 19.7608L69.6496 19.5376C80.0898 15.5366 93.0399 18.3925 105.161 27.3737C117.059 36.2185 127.494 50.16 134.546 66.6232C141.625 83.1134 144.52 100.308 142.701 115.036C141.606 124.112 138.82 131.661 134.418 137.486L134.421 137.488ZM123.398 145.726C127.432 143.812 130.948 140.897 133.847 137.058C138.17 131.339 140.909 123.899 141.989 114.954C143.795 100.346 140.917 83.2842 133.887 66.9067C126.885 50.5557 116.529 36.7217 104.731 27.9493C92.8102 19.1179 80.1113 16.2943 69.8893 20.2052C69.8664 20.2139 69.8184 20.2317 69.7644 20.2433L69.3541 20.4192C64.7665 22.2774 60.7991 25.3985 57.5515 29.6956C53.2294 35.4147 50.4904 42.8547 49.4097 51.7997C47.6031 66.4028 50.4818 83.4673 57.5099 99.8475C64.516 116.198 74.8785 130.04 86.6908 138.822L88.0101 139.805C99.3187 147.725 110.877 150.215 120.696 146.815L123.396 145.724L123.398 145.726Z" fill="#155C6D"/>
<path d="M91.265 86.9225C90.9014 87.3608 90.494 87.7389 90.0585 88.0264C89.626 88.3102 89.2069 88.4789 88.8169 88.5361L89.1768 94.0323C89.2302 94.8507 89.8211 95.1542 90.4971 94.7123C91.1746 94.2684 91.6824 93.2435 91.6271 92.4235L91.265 86.9225ZM87.2735 45.588C86.5994 46.0314 86.0964 47.0542 86.1487 47.8779L88.3473 81.376C88.7109 80.9377 89.1168 80.5614 89.5508 80.2757C89.9848 79.9901 90.4077 79.8244 90.7958 79.7658L88.599 46.2691C88.5452 45.4473 87.9509 45.1441 87.2735 45.588Z" fill="#155C6D"/>
<path d="M85.8778 83.1798C85.5849 85.3105 86.7443 88.1329 88.4934 89.4702C90.224 90.7986 91.8729 90.1251 92.1682 87.994C92.4654 85.8456 91.2997 83.0437 89.5628 81.7211C87.8129 80.3791 86.1793 81.0283 85.8778 83.1798ZM87.4175 81.1737L88.3588 83.2112C88.6449 83.2062 88.9675 83.3158 89.3002 83.5712C90.2031 84.2641 90.8139 85.7292 90.6622 86.8426C90.6194 87.1495 90.515 87.3944 90.3762 87.5799L91.3214 89.6264C91.4481 89.5131 91.5657 89.3747 91.6703 89.2168C91.8841 88.8857 92.0331 88.4592 92.1043 87.9468C92.1747 87.4297 92.1587 86.8765 92.0678 86.3118C91.9917 85.834 91.8639 85.353 91.6892 84.8822L94.4094 81.8638C94.5172 81.7392 94.5874 81.5653 94.6151 81.3697C94.6758 80.9389 94.5479 80.3853 94.2538 79.9131C93.817 79.2161 93.1868 78.97 92.8387 79.3554L90.1496 82.3419C89.9577 82.1424 89.7564 81.959 89.5468 81.7988C88.7812 81.2132 88.0356 81.0181 87.4195 81.1709M76.2502 98.0551C76.1914 98.4832 76.315 99.0399 76.6111 99.5094C77.0478 100.206 77.678 100.452 78.0261 100.067L88.0239 88.9528C88.1759 89.1035 88.3314 89.2463 88.4988 89.3726C89.2956 89.9844 90.0782 90.1683 90.7092 89.9743L89.7715 87.9435C89.465 87.9858 89.1065 87.8798 88.7411 87.6034C87.8354 86.9085 87.227 85.443 87.3814 84.3316C87.4304 83.9752 87.558 83.7095 87.7276 83.5188L86.7891 81.4832C86.6328 81.6088 86.494 81.7653 86.3725 81.9527C86.1611 82.2834 86.0074 82.7107 85.9366 83.2254C85.8658 83.7402 85.8818 84.2934 85.9723 84.8557C86.0591 85.3969 86.2158 85.948 86.4249 86.4782L76.453 97.5591C76.3449 97.6813 76.277 97.8548 76.2502 98.0551Z" fill="#155C6D"/>
<path d="M55.4082 61.2002L51.6049 58.2895C51.063 57.8762 50.6996 56.9952 50.7906 56.3272C50.884 55.6587 51.3964 55.4534 51.9386 55.8691L55.7419 58.7797C56.2869 59.1973 56.6519 60.0732 56.5589 60.744C56.4675 61.4097 55.9532 61.6177 55.4058 61.2006L55.4082 61.2002Z" fill="#155C6D"/>
<path d="M57.5617 85.3921L53.9439 85.2103C53.4287 85.1841 52.8506 84.528 52.6639 83.7427C52.6004 83.4827 52.5865 83.2434 52.6149 83.0379C52.6733 82.622 52.9042 82.3484 53.2498 82.3647L56.8708 82.5508C57.386 82.5771 57.9594 83.234 58.1512 84.0208C58.2147 84.2808 58.2285 84.5201 58.2001 84.7256C58.1422 85.1439 57.9082 85.4132 57.5617 85.3921Z" fill="#155C6D"/>
<path d="M68.3588 109.141C68.3304 109.347 68.2602 109.52 68.1445 109.641L65.6829 112.234C65.3296 112.603 64.7041 112.342 64.278 111.651C63.9946 111.184 63.8734 110.641 63.931 110.221C63.9594 110.015 64.0296 109.841 64.1472 109.717L66.6089 107.125C66.9617 106.753 67.5928 107.018 68.0133 107.706C68.2968 108.173 68.4207 108.717 68.3604 109.136L68.3588 109.141Z" fill="#155C6D"/>
<path d="M81.7054 130.616L82.3524 125.94C82.4454 125.27 82.9577 125.064 83.5027 125.482C84.045 125.898 84.4127 126.775 84.3197 127.446L83.6728 132.122C83.5814 132.787 83.0619 132.994 82.5196 132.578C81.9746 132.161 81.6116 131.282 81.7027 130.614L81.7054 130.616Z" fill="#155C6D"/>
<path d="M99.8821 133.934C99.819 133.677 99.8075 133.437 99.8359 133.232C99.8939 132.813 100.125 132.54 100.473 132.558C100.991 132.584 101.565 133.245 101.759 134.032L103.096 139.534C103.159 139.794 103.173 140.035 103.145 140.243C103.085 140.662 102.856 140.933 102.508 140.914C101.99 140.886 101.414 140.227 101.224 139.44L99.8821 133.934Z" fill="#155C6D"/>
<path d="M114.506 128.975C114.22 128.509 114.102 127.968 114.158 127.553C114.186 127.347 114.256 127.173 114.371 127.05C114.725 126.681 115.355 126.941 115.779 127.635L118.75 132.495C119.037 132.964 119.155 133.504 119.097 133.923C119.071 134.128 118.999 134.304 118.884 134.428C118.532 134.794 117.902 134.534 117.475 133.838L114.507 128.98L114.506 128.975Z" fill="#155C6D"/>
<path d="M121.478 110.431C121.571 109.763 122.084 109.558 122.629 109.975L126.432 112.888C126.977 113.303 127.342 114.182 127.249 114.852C127.158 115.518 126.643 115.722 126.098 115.304L122.295 112.393C121.75 111.976 121.385 111.1 121.476 110.434L121.478 110.431Z" fill="#155C6D"/>
<path d="M119.841 86.4467C119.899 86.0284 120.132 85.7567 120.479 85.7777L124.094 85.9599C124.612 85.9858 125.189 86.647 125.378 87.4342C125.441 87.6918 125.455 87.9312 125.426 88.1343C125.368 88.5502 125.137 88.8238 124.789 88.8079L121.171 88.6261C120.654 88.6026 120.079 87.9387 119.887 87.1518C119.822 86.8923 119.812 86.6521 119.841 86.4467Z" fill="#155C6D"/>
<path d="M109.682 62.0288C109.708 61.8238 109.78 61.6472 109.896 61.5261L112.358 58.9334C112.711 58.5641 113.339 58.8274 113.763 59.5217C114.049 59.9857 114.167 60.524 114.109 60.9423C114.08 61.1477 114.008 61.3243 113.893 61.4478L111.431 64.0405C111.078 64.4098 110.453 64.1508 110.026 63.4569C109.743 62.9901 109.621 62.4452 109.679 62.0269L109.682 62.0288Z" fill="#155C6D"/>
<path d="M94.5386 45.6903C93.9935 45.2727 93.6286 44.3968 93.7239 43.7256L94.3685 39.0505C94.4623 38.3844 94.9766 38.1764 95.522 38.5963C96.0635 39.0072 96.4289 39.8855 96.3355 40.554L95.6885 45.2294C95.5955 45.9002 95.0828 46.1032 94.5386 45.6903Z" fill="#155C6D"/>
<path d="M78.1569 37.2382C78.2204 37.4982 78.2342 37.7375 78.2054 37.9406C78.1475 38.3589 77.9158 38.6278 77.5674 38.6095C77.0503 38.586 76.4757 37.9221 76.2866 37.1372L74.945 31.6338C74.8815 31.3739 74.8677 31.1345 74.896 30.9291C74.954 30.5108 75.188 30.2415 75.5341 30.2602C76.0484 30.2817 76.6227 30.9433 76.816 31.7251L78.1565 37.2359L78.1569 37.2382Z" fill="#155C6D"/>
<path d="M63.8842 43.622C63.8558 43.8275 63.7856 44.0013 63.6696 44.1201C63.3167 44.4917 62.6861 44.2288 62.2671 43.5361L59.293 38.6745C59.0076 38.2105 58.8872 37.6726 58.9452 37.2543C58.9736 37.0488 59.0458 36.8722 59.1614 36.7511C59.5115 36.3775 60.1418 36.6381 60.5659 37.3324L63.5348 42.1924C63.8206 42.6588 63.9398 43.2041 63.8842 43.622Z" fill="#155C6D"/>
<path d="M84.2329 86.1562C83.6119 84.7025 83.3538 83.18 83.515 81.8789C83.6125 81.0768 83.8576 80.4141 84.2429 79.904C84.5248 79.5299 84.8656 79.2594 85.2484 79.093L85.2826 79.08C85.3051 79.0689 85.3303 79.0598 85.3527 79.0487L87.2573 78.2763C86.8544 78.4388 86.4931 78.7176 86.197 79.1086C85.8117 79.6187 85.5646 80.2842 85.4691 81.0835C85.3107 82.3866 85.5653 83.9024 86.1898 85.3627C86.8163 86.8203 87.7376 88.0515 88.7893 88.8328C89.8548 89.6238 90.945 89.8571 91.841 89.548L89.9979 90.2956C89.9979 90.2956 89.9755 90.3067 89.9637 90.3087C89.05 90.6569 87.9271 90.4316 86.834 89.6211C85.7799 88.8403 84.8582 87.6067 84.2341 86.1487L84.2329 86.1562Z" fill="#155C6D"/>
<path d="M88.7844 88.8336C89.8499 89.6246 90.94 89.8579 91.8361 89.5489L92.0708 89.4559C92.0708 89.4559 92.0728 89.4531 92.0775 89.4523C92.4331 89.2833 92.7518 89.0262 93.018 88.6741C93.4033 88.164 93.6504 87.4986 93.7459 86.6992C93.9071 85.3981 93.6498 83.8804 93.0252 82.42C92.4015 80.9643 91.4774 79.7312 90.4285 78.9519C89.3358 78.1438 88.2145 77.9133 87.3079 78.2604C87.3079 78.2604 87.3032 78.2612 87.2984 78.262L87.2575 78.2786C86.8546 78.4412 86.4933 78.72 86.1972 79.111C85.8119 79.621 85.5649 80.2865 85.4693 81.0859C85.3081 82.387 85.5655 83.9047 86.19 85.3651C86.8138 86.8207 87.7378 88.0539 88.7895 88.8351L88.7844 88.8336Z" fill="#C8DAE8" stroke="#155C6D" stroke-width="0.3" stroke-miterlimit="10"/>
<path d="M86.4087 139.095C98.4265 147.999 110.701 150.656 120.815 147.155L123.462 146.099C123.462 146.099 123.491 146.058 123.532 146.058C127.544 144.16 131.132 141.251 134.134 137.273C138.48 131.521 141.256 124.029 142.346 114.995C144.162 100.316 141.272 83.2021 134.217 66.7636C127.185 50.3453 116.778 36.457 104.947 27.6613C92.6338 18.5363 79.9956 15.9562 69.7597 19.8718C69.7597 19.8718 69.705 19.8932 69.664 19.8953L69.2084 20.091C64.6598 21.9354 60.601 25.0623 57.2622 29.4812C52.9165 35.2333 50.1401 42.7255 49.0502 51.7591C47.2346 66.4387 50.124 83.5521 57.1791 99.9906C64.2113 116.409 74.618 130.297 86.4745 139.11L86.4087 139.095ZM107.661 143.526C101.886 142.658 95.6485 139.962 89.3091 135.261C66.1999 118.112 50.2885 80.9936 53.8085 52.3422C54.8492 43.9357 57.4523 37.2294 61.1588 32.3252C70.1448 20.5365 85.6943 19.418 102.044 31.5542C125.156 48.7026 141.065 85.8212 137.545 114.473C134.998 135.266 122.932 145.831 107.669 143.563L107.663 143.523L107.661 143.526Z" fill="#C8DAE8"/>
<path d="M134.421 137.488C131.45 141.419 127.844 144.409 123.705 146.372L123.687 146.395L120.947 147.488C110.477 151.112 98.1377 148.232 86.1925 139.383L84.7347 138.301L84.8644 138.334C73.5303 129.447 63.6233 115.953 56.8456 100.132C49.7668 83.6392 46.8709 66.4447 48.6931 51.7182C49.7881 42.6426 52.5742 35.0932 56.9757 29.2687C60.3027 24.8664 64.3732 21.6649 69.0746 19.7608L69.6496 19.5376C80.0898 15.5366 93.0399 18.3925 105.161 27.3737C117.059 36.2185 127.494 50.16 134.546 66.6232C141.625 83.1134 144.52 100.308 142.701 115.036C141.606 124.112 138.82 131.661 134.418 137.486L134.421 137.488ZM123.398 145.726C127.432 143.812 130.948 140.897 133.847 137.058C138.17 131.339 140.909 123.899 141.989 114.954C143.795 100.346 140.917 83.2842 133.887 66.9067C126.885 50.5557 116.529 36.7217 104.731 27.9493C92.8102 19.1179 80.1113 16.2943 69.8893 20.2052C69.8664 20.2139 69.8184 20.2317 69.7644 20.2433L69.3541 20.4192C64.7665 22.2774 60.7991 25.3985 57.5515 29.6956C53.2294 35.4147 50.4904 42.8547 49.4097 51.7997C47.6031 66.4028 50.4818 83.4673 57.5099 99.8475C64.516 116.198 74.8785 130.04 86.6908 138.822L88.0101 139.805C99.3187 147.725 110.877 150.215 120.696 146.815L123.396 145.724L123.398 145.726ZM130.579 134.618C129.115 136.555 127.456 138.234 125.616 139.626C120.583 143.438 114.361 144.918 107.615 143.918L107.371 143.882L107.364 143.842C101.381 142.894 95.2374 140.105 89.0901 135.547C65.9091 118.347 49.9205 81.0028 53.4487 52.2992C54.468 44.068 56.9642 37.2759 60.8672 32.1112C70.3467 19.6756 86.2062 19.353 102.258 31.2666C125.437 48.4688 141.425 85.8108 137.9 114.514C136.891 122.751 134.392 129.57 130.578 134.615L130.579 134.618ZM107.966 143.247C114.422 144.149 120.369 142.703 125.181 139.059C131.67 134.143 135.816 125.633 137.188 114.432C140.686 85.9554 124.825 48.906 101.83 31.8418C86.1316 20.1898 70.6571 20.4593 61.4437 32.5428C57.6182 37.6049 55.1702 44.2801 54.1661 52.3855C50.6674 80.8616 66.5306 117.911 89.5254 134.972C95.6592 139.523 101.778 142.28 107.715 143.174L107.957 143.21L107.966 143.247Z" fill="#155C6D"/>
<path d="M67.8676 26.1965C86.3483 22.3719 110.119 41.6008 122.921 71.7267C135.974 102.439 132.916 133.431 116.496 143.396C127.432 141.148 135.515 131.062 137.544 114.47C141.064 85.8188 125.155 48.7003 102.044 31.5519C89.2441 22.0526 76.9269 20.6773 67.8672 26.1942L67.8676 26.1965Z" fill="#155C6D"/>
<path d="M130.548 134.695C126.94 139.467 122.205 142.59 116.565 143.749L114.542 144.165L116.308 143.094C132.594 133.208 135.363 101.923 122.59 71.8674C109.978 42.1879 86.4847 22.7041 67.939 26.547L65.9183 26.9645L67.6793 25.8901C77.2216 20.0786 89.8251 22.0386 102.257 31.2642C125.436 48.4664 141.425 85.8084 137.899 114.512C136.883 122.82 134.343 129.672 130.548 134.695ZM118.406 142.545C128.56 139.465 135.361 129.35 137.185 114.43C140.683 85.9535 124.822 48.9041 101.827 31.8399C90.4183 23.3713 78.8992 21.1236 69.8627 25.515C88.3808 23.3736 110.969 42.6869 123.252 71.5859C129.561 86.4325 132.356 101.984 131.119 115.373C129.977 127.756 125.492 137.307 118.406 142.545Z" fill="#155C6D"/>
<path fill-rule="evenodd" clip-rule="evenodd" d="M89.7295 86.5632L89.7547 86.5831L89.7295 86.5632Z" fill="#C8DAE8"/>
<path d="M89.9711 86.2951L89.5382 86.8688L89.9462 86.2775L89.9711 86.2951Z" fill="#155C6D"/>
<path d="M115.418 27.823C115.065 27.7937 114.722 27.6074 114.51 27.2838C105.848 14.0512 89.1658 8.48607 72.0149 13.1118C71.3755 13.2787 70.7157 12.9082 70.5424 12.2721C70.3665 11.6382 70.7433 10.9832 71.3833 10.8092C89.5554 5.90958 107.276 11.8622 116.521 25.9849C116.882 26.5362 116.725 27.2739 116.17 27.632C115.936 27.7824 115.674 27.8419 115.416 27.8205L115.418 27.823Z" fill="#70C5AD"/>
<path d="M109.02 12.2222C108.783 12.2025 108.552 12.114 108.356 11.9543C101.7 6.49477 92.8722 3.60248 83.4974 3.79248C82.8508 3.81531 82.2861 3.28539 82.2734 2.62675C82.2583 1.96791 82.7823 1.42318 83.445 1.41124C93.3824 1.19622 102.783 4.29386 109.88 10.1176C110.391 10.5379 110.464 11.2876 110.044 11.7955C109.782 12.1085 109.397 12.2559 109.019 12.2246L109.02 12.2222Z" fill="#70C5AD"/>
</g>
<path d="M0.366211 141.155C14.6712 140.298 15.3732 139.596 16.2382 125.364C17.1032 139.595 17.8052 140.297 32.1182 141.155C17.8042 142.012 17.1032 142.714 16.2382 156.946C15.3732 142.715 14.6712 142.013 0.366211 141.155Z" fill="#C8DAE8"/>
<path d="M16.239 157.31C16.047 157.31 15.888 157.161 15.876 156.968C15.022 142.941 14.441 142.363 0.344 141.519C0.152 141.507 0 141.348 0 141.155C0 140.962 0.152 140.803 0.344 140.791C14.441 139.947 15.022 139.369 15.876 125.342C15.888 125.15 16.047 125 16.239 125C16.431 125 16.59 125.149 16.602 125.342C17.453 139.369 18.034 139.947 32.141 140.791C32.333 140.803 32.485 140.962 32.485 141.155C32.485 141.348 32.333 141.507 32.141 141.519C18.034 142.363 17.453 142.941 16.602 156.968C16.59 157.16 16.431 157.31 16.239 157.31ZM5.308 141.155C13.625 141.971 15.418 143.763 16.239 152.056C17.057 143.762 18.85 141.971 27.175 141.155C18.85 140.339 17.057 138.547 16.239 130.254C15.418 138.548 13.625 140.339 5.308 141.155Z" fill="#155C6D"/>
<path d="M142.366 20.713C148.409 20.351 148.705 20.055 149.071 14.042C149.436 20.055 149.733 20.351 155.779 20.713C149.733 21.075 149.437 21.371 149.071 27.382C148.706 21.371 148.409 21.075 142.366 20.713Z" fill="#C8DAE8"/>
<path d="M149.07 27.746C148.878 27.746 148.719 27.597 148.707 27.404C148.354 21.603 148.176 21.425 142.344 21.076C142.152 21.064 142 20.905 142 20.712C142 20.519 142.152 20.36 142.344 20.348C148.176 19.999 148.354 19.821 148.707 14.018C148.719 13.826 148.878 13.676 149.07 13.676C149.262 13.676 149.421 13.825 149.433 14.018C149.786 19.821 149.964 19.999 155.799 20.348C155.991 20.36 156.143 20.519 156.143 20.712C156.143 20.905 155.991 21.064 155.799 21.076C149.965 21.425 149.787 21.603 149.433 27.404C149.421 27.596 149.262 27.746 149.07 27.746ZM145.958 20.713C147.91 21.097 148.685 21.872 149.07 23.82C149.454 21.872 150.23 21.097 152.182 20.713C150.23 20.328 149.455 19.554 149.07 17.605C148.686 19.555 147.91 20.328 145.958 20.713Z" fill="#155C6D"/>
<defs>
<clipPath id="clip0_9503_13237">
<rect width="124" height="172" fill="white" transform="translate(23.8584 0.088501)"/>
</clipPath>
</defs>
</svg>
