<svg width="410" height="300" viewBox="0 0 410 300" fill="none" xmlns="http://www.w3.org/2000/svg">
<path d="M209.895 242.921L173.849 264.054L111.246 227.364L147.152 206.333L209.895 242.921Z" fill="#155C6D"/>
<path d="M147.211 206.112C147.152 206.096 147.089 206.104 147.036 206.135L111.13 227.166C111.06 227.207 111.016 227.282 111.016 227.364C111.016 227.445 111.06 227.521 111.13 227.562L173.732 264.252C173.804 264.294 173.893 264.294 173.965 264.252L210.012 243.119C210.082 243.078 210.125 243.002 210.125 242.921C210.125 242.839 210.082 242.764 210.012 242.722L147.267 206.135L147.211 206.112ZM209.439 242.922L173.848 263.787L111.702 227.364L147.153 206.599L209.439 242.922Z" fill="#155C6D"/>
<path d="M292.803 194.886L206.028 245.164L145.878 215.439L232.313 165.405L292.803 194.886Z" fill="#155C6D"/>
<path d="M232.361 165.18C232.306 165.169 232.248 165.177 232.198 165.206L145.763 215.24C145.69 215.283 145.646 215.362 145.649 215.446C145.652 215.531 145.701 215.608 145.777 215.645L205.926 245.37C205.995 245.404 206.077 245.401 206.143 245.363L292.918 195.085C292.992 195.042 293.035 194.963 293.032 194.878C293.029 194.793 292.98 194.717 292.904 194.68L232.414 165.198L232.361 165.18ZM292.314 194.902L206.02 244.903L146.365 215.423L232.323 165.666L292.314 194.902Z" fill="#155C6D"/>
<path d="M219.265 35.2707C225.673 38.9709 231.696 44.3632 236.924 50.7404C248.078 64.3468 255.616 82.441 255.572 98.1548L255.394 160.669C255.367 170.072 262 181.561 270.18 186.284C274.297 188.661 278.034 188.878 280.733 187.31L206.302 230.498C203.603 232.066 199.866 231.848 195.749 229.471C187.569 224.749 180.936 213.259 180.963 203.857L181.141 141.342C181.186 125.629 173.648 107.534 162.493 93.928C157.265 87.5508 151.242 82.1586 144.834 78.4583L219.265 35.2707Z" fill="#C8DAE8"/>
<path d="M219.15 35.0715L144.376 78.4586L144.72 78.6578C150.7 82.1113 156.35 87.0487 161.328 92.8933L162.315 94.0741C173.444 107.649 180.955 125.693 180.91 141.342L180.734 203.857C180.72 208.608 182.387 213.871 185.079 218.534C187.687 223.052 191.269 227.029 195.247 229.442L195.634 229.671C199.664 231.997 203.383 232.303 206.153 230.843L206.418 230.696L280.849 187.508L280.733 187.31L280.618 187.111L280.371 187.248C277.787 188.61 274.243 188.364 270.295 186.084L269.916 185.861C266.019 183.497 262.487 179.584 259.908 175.116C257.246 170.504 255.611 165.32 255.624 160.67L255.802 98.1557C255.846 82.3768 248.281 64.2318 237.101 50.5942L236.11 49.4075C231.103 43.5308 225.415 38.556 219.381 35.0715L219.265 35.005L219.15 35.0715ZM219.265 35.5364C225.204 38.9865 230.812 43.8984 235.759 49.7054L236.746 50.8862C247.874 64.4615 255.386 82.5053 255.342 98.1538L255.164 160.669L255.167 161.116C255.255 165.749 256.903 170.829 259.511 175.347C262.119 179.865 265.7 183.841 269.679 186.254L270.065 186.483C273.108 188.24 275.974 188.843 278.388 188.405L206.187 230.299C203.584 231.811 199.939 231.625 195.864 229.272L195.486 229.049C191.588 226.684 188.057 222.772 185.477 218.304C182.815 213.692 181.179 208.508 181.193 203.858L181.37 141.343L181.367 140.601C181.179 124.998 173.676 107.206 162.67 93.7821L161.678 92.5954C156.766 86.8297 151.198 81.9323 145.291 78.4586L219.265 35.5364Z" fill="#155C6D"/>
<path d="M234.493 73.4673C234.601 73.4008 234.743 73.4347 234.809 73.5429C234.876 73.6509 234.842 73.7922 234.734 73.8586L187.98 102.554C187.872 102.621 187.731 102.587 187.664 102.479C187.598 102.37 187.632 102.229 187.74 102.163L234.493 73.4673Z" fill="#155C6D"/>
<path d="M238.689 81.0201C238.797 80.9537 238.939 80.9875 239.006 81.0957C239.072 81.2038 239.038 81.345 238.93 81.4115L192.176 110.107C192.068 110.173 191.927 110.14 191.86 110.031C191.794 109.923 191.828 109.782 191.936 109.716L238.689 81.0201Z" fill="#155C6D"/>
<path d="M241.206 90.2509C241.315 90.1845 241.457 90.2183 241.523 90.3266C241.589 90.4346 241.555 90.5758 241.447 90.6423L194.694 119.338C194.585 119.404 194.444 119.37 194.378 119.262C194.312 119.154 194.345 119.013 194.454 118.946L241.206 90.2509Z" fill="#155C6D"/>
<path d="M243.724 99.4827C243.832 99.4163 243.974 99.4501 244.041 99.5584C244.107 99.6664 244.073 99.8076 243.965 99.8741L197.211 128.57C197.103 128.636 196.962 128.602 196.896 128.494C196.829 128.386 196.863 128.245 196.971 128.178L243.724 99.4827Z" fill="#155C6D"/>
<path d="M244.563 110.392C244.671 110.325 244.813 110.359 244.88 110.467C244.946 110.575 244.912 110.716 244.804 110.783L198.05 139.478C197.942 139.545 197.801 139.511 197.735 139.403C197.668 139.295 197.702 139.154 197.81 139.087L244.563 110.392Z" fill="#155C6D"/>
<path d="M244.563 121.302C244.671 121.236 244.813 121.27 244.88 121.378C244.946 121.486 244.912 121.627 244.804 121.694L198.05 150.389C197.942 150.456 197.801 150.422 197.735 150.314C197.668 150.205 197.702 150.064 197.81 149.998L244.563 121.302Z" fill="#155C6D"/>
<path d="M244.563 131.373C244.671 131.307 244.813 131.34 244.88 131.449C244.946 131.557 244.912 131.698 244.804 131.764L198.05 160.46C197.942 160.526 197.801 160.493 197.735 160.384C197.668 160.276 197.702 160.135 197.81 160.069L244.563 131.373Z" fill="#155C6D"/>
<path d="M244.563 143.121C244.671 143.054 244.813 143.088 244.88 143.196C244.946 143.305 244.912 143.446 244.804 143.512L198.05 172.208C197.942 172.274 197.801 172.24 197.735 172.132C197.668 172.024 197.702 171.883 197.81 171.816L244.563 143.121Z" fill="#155C6D"/>
<path d="M175.73 83.9745L177.516 82.8988L186.106 89.5803L184.518 90.5373L182.557 89.0102L178.74 91.31L179.186 93.7495L177.622 94.6917L175.73 83.9745ZM177.629 85.1757L178.44 89.6414L181.222 87.9648L177.629 85.1757Z" fill="#155C6D"/>
<path d="M190.13 87.3215C188.024 88.59 185.863 88.2901 184.418 85.8911L181.257 80.6449L182.833 79.6953L185.965 84.8931C186.921 86.4803 188.123 86.6645 189.305 85.9523C190.499 85.2327 190.898 84.0842 189.942 82.497L186.811 77.2992L188.387 76.3496L191.547 81.5959C192.993 83.9948 192.248 86.0455 190.13 87.3215Z" fill="#155C6D"/>
<path d="M197.36 72.7929L194.516 74.5066L198.939 81.8489L197.363 82.7985L192.94 75.4561L190.095 77.1698L189.278 75.8128L196.543 71.4359L197.36 72.7929Z" fill="#155C6D"/>
<path d="M199.118 75.8129C197.527 73.1716 198.141 70.2914 200.53 68.8522C202.919 67.4131 205.752 68.2161 207.344 70.8574C208.935 73.4987 208.32 76.3789 205.932 77.8181C203.543 79.2573 200.709 78.4542 199.118 75.8129ZM205.767 71.807C204.629 69.9169 202.845 69.3237 201.355 70.2214C199.865 71.119 199.555 72.9733 200.694 74.8634C201.833 76.7535 203.617 77.3466 205.107 76.449C206.597 75.5514 206.906 73.6971 205.767 71.807Z" fill="#155C6D"/>
<path d="M210.736 70.1513L212.765 73.5196L211.189 74.4692L205.948 65.7698L209.482 63.6407C211.452 62.4538 213.231 62.6207 214.289 64.3775C215.333 66.1101 214.664 67.7849 212.694 68.9718L210.736 70.1513ZM209.933 68.8186L211.805 67.691C212.937 67.0085 213.249 66.1603 212.738 65.3122C212.22 64.452 211.332 64.3429 210.199 65.0254L208.327 66.1531L209.933 68.8186Z" fill="#155C6D"/>
<path d="M215.377 60.0891L217.163 59.0134L225.753 65.6949L224.165 66.6519L222.204 65.1248L218.387 67.4246L218.833 69.8641L217.269 70.8063L215.377 60.0891ZM217.276 61.2903L218.086 65.756L220.869 64.0794L217.276 61.2903Z" fill="#155C6D"/>
<path d="M225.817 58.8362L225.881 53.761L227.556 52.7521L227.447 59.7864L229.607 63.3728L228.031 64.3223L225.871 60.736L219.589 57.5518L221.3 56.5207L225.817 58.8362Z" fill="#155C6D"/>
<path d="M262.566 179.446C262.707 179.624 262.845 179.808 262.989 179.984C265.118 182.581 267.57 184.776 270.18 186.283C271.748 187.189 273.262 187.781 274.683 188.08C276.993 188.566 279.062 188.28 280.733 187.309L206.302 230.497C204.631 231.468 202.562 231.754 200.252 231.268C198.83 230.968 197.317 230.376 195.749 229.471C193.139 227.964 190.687 225.769 188.558 223.171C188.414 222.995 188.276 222.813 188.134 222.633L262.566 179.446Z" fill="#C8DAE8"/>
<path d="M262.45 179.247L187.79 222.567L187.953 222.775L188.38 223.317C190.389 225.768 192.688 227.868 195.141 229.376L195.634 229.67C197.22 230.585 198.755 231.187 200.204 231.492C202.413 231.957 204.422 231.732 206.089 230.875L206.418 230.695L280.849 187.508L280.618 187.11L280.31 187.279C278.751 188.081 276.852 188.302 274.73 187.855L274.203 187.731C272.963 187.411 271.652 186.868 270.295 186.084L269.813 185.796C267.411 184.32 265.149 182.257 263.166 179.837L262.623 179.147L262.45 179.247ZM262.811 180.129C264.82 182.58 267.119 184.681 269.573 186.189L270.065 186.482C271.453 187.283 272.802 187.844 274.088 188.177L274.635 188.304C275.969 188.585 277.23 188.614 278.387 188.404L206.187 230.298C204.573 231.235 202.563 231.519 200.299 231.042C198.905 230.749 197.415 230.167 195.864 229.271L195.382 228.984C192.98 227.508 190.719 225.445 188.736 223.025L188.479 222.698L262.51 179.745L262.811 180.129Z" fill="#155C6D"/>
<path d="M211.885 221.709L211.911 212.927C211.925 207.899 213.707 204.359 216.575 202.692L291.005 159.505C288.137 161.172 286.356 164.712 286.341 169.739L286.316 178.521C286.301 183.587 284.508 187.153 281.619 188.832L207.188 232.02C210.077 230.341 211.871 226.773 211.885 221.709Z" fill="#70C5AD"/>
<path d="M290.89 159.306L216.46 202.493H216.459C213.496 204.215 211.695 207.85 211.68 212.926L211.656 221.708L211.649 222.174C211.53 226.939 209.779 230.247 207.072 231.821L207.304 232.219L281.734 189.031C284.625 187.351 286.417 183.863 286.54 178.996L286.547 178.522L286.571 169.739L286.577 169.277C286.696 164.549 288.434 161.266 291.121 159.705L290.89 159.306ZM288.815 161.042C287.107 163.028 286.122 165.99 286.111 169.738L286.087 178.52L286.08 178.986C285.96 183.752 284.211 187.061 281.504 188.634L209.386 230.479C211.037 228.562 212.02 225.741 212.109 222.184L212.115 221.71L212.14 212.927C212.154 208.104 213.809 204.72 216.434 203.048L216.691 202.891L288.815 161.042Z" fill="#155C6D"/>
<path d="M298.869 155.54L219.652 201.517C219.652 201.517 219.162 201.43 217.886 201.597C216.61 201.763 214.747 202.657 214.747 202.657L293.632 156.885C293.843 156.762 294.057 156.652 294.28 156.552C294.894 156.279 296.167 155.754 297.102 155.631C298.378 155.464 298.868 155.54 298.868 155.54" fill="#C8DAE8"/>
<path d="M298.461 155.293C298.169 155.295 297.717 155.319 297.072 155.403L296.694 155.469C296.045 155.606 295.317 155.872 294.759 156.099L294.186 156.343L293.847 156.505C293.735 156.562 293.625 156.623 293.516 156.686L214.631 202.459L214.846 202.865L214.847 202.864C214.848 202.864 214.849 202.863 214.851 202.862C214.854 202.861 214.86 202.859 214.866 202.856C214.88 202.849 214.9 202.839 214.926 202.827C214.978 202.803 215.055 202.768 215.151 202.726C215.343 202.64 215.613 202.525 215.921 202.404C216.544 202.161 217.307 201.905 217.916 201.825C218.544 201.743 218.975 201.724 219.246 201.725C219.381 201.725 219.477 201.73 219.536 201.735C219.566 201.738 219.586 201.741 219.599 201.742C219.605 201.743 219.609 201.744 219.611 201.744L219.694 201.759L219.768 201.717L298.984 155.738L298.869 155.54V155.538L298.903 155.313H298.901L298.899 155.312C298.897 155.311 298.895 155.311 298.892 155.311C298.887 155.31 298.879 155.31 298.87 155.309C298.851 155.307 298.823 155.303 298.787 155.301C298.715 155.296 298.608 155.292 298.461 155.293ZM219.602 201.279C219.594 201.278 219.584 201.278 219.574 201.277C219.502 201.271 219.394 201.265 219.248 201.265C218.954 201.264 218.503 201.285 217.856 201.369C217.649 201.396 217.428 201.442 217.203 201.499L293.747 157.083C293.952 156.965 294.159 156.859 294.374 156.763V156.762C294.914 156.522 295.934 156.102 296.781 155.921L297.132 155.86C297.486 155.813 297.778 155.786 298.013 155.771L219.602 201.279Z" fill="#155C6D"/>
<path d="M144.831 79.8953L144.834 78.4595C164.916 90.0541 181.205 118.264 181.141 141.344L180.963 203.858C180.936 213.26 187.569 224.75 195.749 229.473C203.931 234.197 210.608 230.392 210.635 220.989L210.659 212.207C210.683 204.067 215.002 199.544 221.137 200.047L216.573 202.695C216.573 202.695 216.588 202.688 216.591 202.686C213.712 204.349 211.924 207.892 211.909 212.929L211.884 221.711C211.855 231.907 204.617 236.032 195.743 230.908C186.873 225.787 179.679 213.33 179.708 203.134L179.885 140.62C179.948 118.334 164.223 91.0932 144.829 79.8953H144.831Z" fill="#155C6D"/>
<path d="M144.894 78.2366C144.836 78.2212 144.773 78.2294 144.72 78.2601C144.649 78.3009 144.605 78.3764 144.604 78.4583L144.601 79.8941H144.602C144.601 79.9751 144.641 80.0523 144.714 80.0943C154.368 85.6684 163.122 95.2443 169.455 106.214C175.787 117.184 179.686 129.526 179.654 140.619L179.478 203.134C179.463 208.282 181.271 213.985 184.189 219.039C187.017 223.936 190.898 228.244 195.209 230.859L195.628 231.107C200.107 233.693 204.226 233.974 207.244 232.254C210.263 230.534 212.099 226.859 212.113 221.711L212.139 212.93C212.153 207.942 213.923 204.493 216.707 202.885V202.884C216.71 202.882 216.714 202.88 216.718 202.878C216.72 202.876 216.722 202.874 216.724 202.873L221.252 200.245C221.339 200.195 221.383 200.094 221.362 199.996C221.339 199.898 221.256 199.826 221.156 199.818C218.023 199.561 215.337 200.589 213.435 202.733C211.537 204.872 210.441 208.098 210.429 212.206L210.405 220.989L210.399 221.42C210.287 225.839 208.654 228.894 206.137 230.329C203.537 231.81 199.913 231.611 195.864 229.273L195.486 229.049C191.589 226.685 188.057 222.773 185.478 218.305C182.815 213.692 181.179 208.509 181.193 203.858L181.37 141.344C181.403 129.754 177.331 116.892 170.742 105.48C164.153 94.0673 155.033 84.0822 144.949 78.2601L144.894 78.2366ZM145.063 78.8617C154.925 84.6616 163.86 94.4792 170.344 105.709C176.903 117.07 180.942 129.853 180.91 141.342L180.733 203.857L180.737 204.305C180.825 208.937 182.471 214.017 185.079 218.535C187.687 223.053 191.269 227.029 195.247 229.443L195.634 229.672C199.767 232.058 203.573 232.319 206.364 230.728C209.069 229.187 210.745 225.951 210.859 221.431L210.865 220.99L210.889 212.207L210.904 211.463C211.038 207.792 212.089 204.943 213.778 203.039C215.419 201.19 217.678 200.212 220.342 200.242L216.458 202.496C216.451 202.5 216.444 202.505 216.438 202.509C213.487 204.236 211.694 207.864 211.679 212.928L211.654 221.71L211.647 222.179C211.526 226.975 209.754 230.294 207.017 231.854C204.19 233.465 200.253 233.246 195.858 230.709L195.448 230.466C191.218 227.9 187.386 223.656 184.588 218.81C181.699 213.806 179.923 208.182 179.938 203.134L180.114 140.62L180.106 139.567C179.898 128.652 176.016 116.661 169.852 105.985C163.516 95.008 154.755 85.3986 145.062 79.7652L145.063 78.8617Z" fill="#155C6D"/>
<path d="M202.14 238.738L173.455 255.29L123.638 226.541V202.034L202.14 214.231V238.738Z" fill="#C8DAE8"/>
<path d="M123.674 201.806C123.607 201.796 123.539 201.815 123.488 201.859C123.437 201.903 123.408 201.967 123.408 202.034V226.54C123.408 226.622 123.452 226.698 123.523 226.739L173.34 255.489C173.411 255.53 173.499 255.53 173.57 255.489L202.255 238.937C202.326 238.895 202.37 238.819 202.37 238.737V214.231C202.37 214.118 202.287 214.021 202.175 214.003L123.674 201.806ZM201.911 214.428V238.604L173.456 255.023L123.868 226.407V202.302L201.911 214.428Z" fill="#155C6D"/>
<path d="M202.14 214.23L173.455 230.798V255.289L202.14 238.737V214.23Z" fill="#155C6D"/>
<path d="M202.255 214.03C202.184 213.989 202.096 213.989 202.025 214.03L173.34 230.599C173.269 230.64 173.225 230.716 173.225 230.797V255.288C173.225 255.37 173.269 255.446 173.34 255.488C173.411 255.529 173.499 255.528 173.57 255.488L202.255 238.935C202.326 238.894 202.37 238.818 202.37 238.736V214.23L202.362 214.17C202.346 214.112 202.309 214.061 202.255 214.03ZM201.911 238.602L173.685 254.89V230.93L201.911 214.627V238.602Z" fill="#155C6D"/>
<path d="M202.14 214.23L173.455 230.798L123.638 202.033L152.211 185.545L202.14 214.23Z" fill="#70C5AD"/>
<path d="M152.27 185.322C152.212 185.307 152.149 185.315 152.096 185.346L123.523 201.834C123.452 201.875 123.408 201.951 123.408 202.033C123.408 202.115 123.452 202.191 123.523 202.232L173.34 230.997C173.411 231.038 173.5 231.038 173.571 230.997L202.255 214.429C202.327 214.388 202.37 214.312 202.37 214.23C202.37 214.148 202.326 214.072 202.254 214.031L152.325 185.346L152.27 185.322ZM201.68 214.23L173.455 230.532L124.099 202.033L152.211 185.81L201.68 214.23Z" fill="#155C6D"/>
<path d="M162.87 214.613C155.297 213.708 149.562 209.589 150.061 205.414C150.56 201.238 157.104 198.587 164.677 199.492C172.251 200.397 177.986 204.515 177.487 208.691C176.988 212.866 170.444 215.518 162.87 214.613Z" fill="#155C6D"/>
<path d="M150.289 205.442C150.524 203.476 152.191 201.819 154.802 200.761C157.405 199.706 160.894 199.272 164.65 199.72C168.405 200.169 171.694 201.414 173.975 203.052C176.264 204.695 177.494 206.698 177.259 208.664C177.024 210.631 175.356 212.286 172.745 213.344C170.143 214.399 166.653 214.834 162.897 214.385C159.142 213.936 155.853 212.691 153.572 211.053C151.284 209.41 150.055 207.408 150.289 205.442ZM149.833 205.387C149.569 207.596 150.957 209.741 153.304 211.427C155.659 213.118 159.025 214.385 162.843 214.842C166.661 215.298 170.23 214.859 172.918 213.77C175.596 212.685 177.45 210.928 177.714 208.719C177.978 206.51 176.591 204.364 174.243 202.679C171.888 200.987 168.522 199.721 164.704 199.265C160.887 198.808 157.317 199.246 154.63 200.335C151.951 201.42 150.097 203.178 149.833 205.387Z" fill="#155C6D"/>
<path d="M194.915 120.69L185.998 116.972C185.998 116.972 185.991 116.97 185.988 116.968L185.908 116.935L185.903 116.948C182.018 115.38 177.106 116.355 172.057 120.276C161.889 128.177 155.041 144.988 156.766 157.825C157.626 164.233 160.462 168.436 164.347 170.06L164.347 170.063L164.365 170.07L164.368 170.072L172.49 173.417L173.857 170.201C175.626 169.534 177.437 168.622 179.284 167.186C189.452 159.286 196.3 142.475 194.578 129.637C194.322 127.731 193.842 126.086 193.261 124.58L194.915 120.69Z" fill="#70C5AD"/>
<path d="M194.35 129.668C194.096 127.782 193.622 126.155 193.047 124.662L193.012 124.575L193.049 124.49L194.613 120.813L186.035 117.237L186.03 117.248L185.817 117.161C182.034 115.634 177.208 116.566 172.198 120.457L172.199 120.458C167.154 124.378 162.921 130.519 160.165 137.286C157.409 144.054 156.138 151.425 156.993 157.794C157.847 164.155 160.653 168.267 164.435 169.848L164.557 169.899L164.557 169.901L172.367 173.118L173.646 170.112L173.685 170.021L173.776 169.986C175.527 169.325 177.317 168.424 179.143 167.004L179.614 166.631C184.451 162.701 188.507 156.733 191.177 150.177C193.847 143.621 195.123 136.498 194.423 130.268L194.35 129.668ZM186.089 116.762L186.065 116.81L186.086 116.761L186.089 116.762ZM194.881 130.217C195.591 136.54 194.295 143.741 191.603 150.351C188.911 156.96 184.815 162.998 179.904 166.988L179.425 167.368C177.588 168.795 175.787 169.709 174.03 170.38L172.701 173.508L172.613 173.717L164.28 170.285L164.273 170.282L164.269 170.28L164.258 170.276L164.137 170.224L164.136 170.219C160.214 168.516 157.396 164.244 156.538 157.856C155.669 151.388 156.96 143.935 159.739 137.113C162.517 130.291 166.793 124.076 171.916 120.095L172.393 119.733C177.224 116.15 181.948 115.212 185.773 116.653L185.781 116.634L185.996 116.722L186.074 116.755L186.08 116.758L186.086 116.761L186.065 116.81L186.089 116.762L186.086 116.761L195.004 120.477L195.217 120.567L193.507 124.586C194.078 126.082 194.552 127.716 194.806 129.607L194.881 130.217Z" fill="#155C6D"/>
<path d="M156.611 150.96C156.432 153.322 156.471 155.632 156.765 157.825C157.626 164.232 160.462 168.436 164.346 170.06L164.347 170.063L164.364 170.07L164.367 170.072L172.489 173.417L173.856 170.201C175.624 169.534 177.435 168.622 179.283 167.186C181.024 165.833 182.664 164.215 184.184 162.405L156.611 150.96Z" fill="#155C6D"/>
<path d="M156.7 150.748L184.272 162.192L184.561 162.313L184.36 162.553C183.023 164.146 181.591 165.592 180.078 166.843L179.424 167.368C177.587 168.795 175.785 169.708 174.029 170.379L172.7 173.507L172.612 173.716L172.401 173.63L164.28 170.284L164.276 170.282L164.258 170.275L164.137 170.224L164.136 170.217C160.213 168.514 157.396 164.244 156.538 157.855C156.241 155.644 156.201 153.317 156.382 150.942L156.406 150.626L156.7 150.748ZM156.993 157.794C157.847 164.154 160.653 168.266 164.435 169.847L164.556 169.899L164.556 169.9L172.366 173.117L173.644 170.111L173.683 170.02L173.775 169.986C175.526 169.325 177.316 168.424 179.142 167.004L179.785 166.488C181.198 165.321 182.539 163.974 183.802 162.495L156.819 151.295C156.668 153.532 156.714 155.718 156.993 157.794Z" fill="#155C6D"/>
<path d="M180.535 123.787C170.365 131.687 163.518 148.499 165.241 161.336C166.966 174.173 176.608 178.175 186.777 170.274C196.947 162.374 203.794 145.562 202.071 132.725C200.346 119.888 190.705 115.886 180.535 123.787Z" fill="#155C6D"/>
<path d="M201.843 132.755C200.987 126.384 198.176 122.266 194.382 120.691C190.707 119.166 186.026 119.992 181.149 123.609L180.675 123.968C175.63 127.888 171.397 134.029 168.641 140.797C165.884 147.564 164.614 154.935 165.469 161.305L165.555 161.895C166.501 167.931 169.254 171.843 172.93 173.369C176.724 174.943 181.59 174.013 186.637 170.092L187.107 169.718C191.945 165.788 196.001 159.82 198.671 153.264C201.341 146.708 202.617 139.585 201.917 133.356L201.843 132.755ZM202.374 133.303C203.085 139.627 201.789 146.828 199.097 153.437C196.318 160.259 192.042 166.474 186.918 170.454L186.919 170.455C181.796 174.435 176.754 175.454 172.754 173.794C168.879 172.185 166.062 168.098 165.1 161.966L165.014 161.366C164.145 154.898 165.437 147.445 168.215 140.623C170.994 133.801 175.27 127.586 180.394 123.605L180.873 123.24C185.831 119.563 190.683 118.658 194.558 120.266C198.558 121.927 201.43 126.229 202.298 132.694L202.374 133.303Z" fill="#155C6D"/>
<path d="M194.197 153.235C194.55 152.478 194.87 151.701 195.158 150.901C195.445 150.102 195.684 149.29 195.874 148.466C196.031 147.869 196.013 147.373 195.822 146.977C195.71 146.745 195.559 146.591 195.371 146.513C195.237 146.459 195.085 146.443 194.913 146.466C194.533 146.501 194.173 146.727 193.834 147.141C193.495 147.556 193.247 148.062 193.09 148.66C192.962 149.194 192.803 149.717 192.613 150.231C192.422 150.744 192.209 151.253 191.974 151.757C190.49 154.94 188.582 157.212 186.249 158.571C184.312 159.701 182.54 159.937 180.933 159.279C180.606 159.145 180.284 158.973 179.97 158.765L179.776 158.635L181.57 157.598C181.935 157.387 182.242 157.013 182.492 156.478C182.742 155.942 182.846 155.433 182.803 154.951C182.761 154.469 182.583 154.123 182.268 153.913C182.21 153.875 182.152 153.844 182.093 153.82C181.828 153.712 181.546 153.744 181.247 153.916L176.064 156.912C175.666 157.142 175.349 157.51 175.113 158.014C174.879 158.518 174.784 159.034 174.83 159.56L175.43 166.397C175.471 166.879 175.65 167.225 175.965 167.435C176.022 167.473 176.081 167.504 176.14 167.528C176.405 167.637 176.687 167.604 176.986 167.432C177.351 167.221 177.659 166.847 177.909 166.311C178.159 165.775 178.262 165.267 178.22 164.784L178.013 162.417L178.207 162.547C178.63 162.827 179.061 163.058 179.502 163.238C181.65 164.118 184.013 163.804 186.589 162.296C189.693 160.478 192.229 157.458 194.198 153.235" fill="#C8DAE8"/>
<path d="M195.44 146.546C195.597 146.631 195.724 146.774 195.822 146.977C196.013 147.373 196.031 147.869 195.874 148.466C195.684 149.29 195.445 150.102 195.158 150.901L194.936 151.496C194.784 151.891 194.624 152.28 194.456 152.664L194.198 153.235C192.229 157.458 189.694 160.479 186.589 162.297L186.108 162.565C183.718 163.839 181.516 164.063 179.503 163.239C179.062 163.058 178.63 162.827 178.208 162.547L178.013 162.417L178.221 164.784C178.263 165.266 178.159 165.775 177.909 166.311L177.812 166.505C177.581 166.938 177.306 167.247 176.986 167.432L176.874 167.49C176.617 167.61 176.372 167.623 176.14 167.528L176.314 167.103C176.42 167.146 176.552 167.151 176.756 167.034L176.852 166.971C177.076 166.811 177.295 166.54 177.492 166.117L177.57 165.939C177.71 165.59 177.773 165.268 177.769 164.971L177.762 164.824L177.471 161.503L178.463 162.164C178.762 162.363 179.063 162.534 179.369 162.678L179.677 162.812L180.05 162.952C181.933 163.586 184.021 163.267 186.356 161.9L186.914 161.556C189.668 159.769 191.961 156.944 193.781 153.041L194.035 152.479C194.283 151.913 194.513 151.336 194.726 150.746L194.927 150.157C195.12 149.566 195.286 148.967 195.426 148.363L195.429 148.35C195.552 147.883 195.541 147.537 195.451 147.281L195.408 147.177C195.351 147.059 195.293 146.997 195.243 146.963L195.197 146.939C195.151 146.92 195.082 146.907 194.974 146.921L194.957 146.924C194.741 146.944 194.483 147.074 194.19 147.433C193.901 147.787 193.68 148.228 193.537 148.766L193.432 149.179C193.321 149.589 193.191 149.992 193.044 150.39C192.849 150.914 192.631 151.435 192.391 151.951L192.391 151.952C190.974 154.991 189.16 157.251 186.932 158.691L186.481 158.969C184.586 160.074 182.776 160.393 181.094 159.829L180.759 159.705C180.402 159.558 180.054 159.372 179.716 159.147L179.521 159.018L178.905 158.608L181.339 157.2L181.436 157.138C181.66 156.977 181.878 156.706 182.075 156.283L182.152 156.106C182.293 155.757 182.356 155.435 182.353 155.138L182.346 154.992C182.316 154.654 182.212 154.46 182.074 154.342L182.013 154.297C181.98 154.274 181.948 154.258 181.918 154.245C181.813 154.202 181.68 154.196 181.477 154.313L181.477 154.315L176.294 157.31C175.993 157.484 175.735 157.771 175.53 158.209C175.328 158.643 175.25 159.078 175.288 159.519L175.888 166.357L175.904 166.493C175.954 166.79 176.074 166.954 176.22 167.052C176.253 167.074 176.284 167.09 176.314 167.103L176.14 167.528L176.052 167.487L175.965 167.434C175.651 167.225 175.472 166.879 175.43 166.397L174.83 159.56C174.789 159.099 174.857 158.647 175.032 158.204L175.113 158.014C175.319 157.572 175.588 157.236 175.919 157.005L176.065 156.912L181.247 153.916C181.546 153.744 181.828 153.712 182.093 153.82C182.152 153.845 182.21 153.875 182.268 153.913C182.583 154.123 182.761 154.469 182.803 154.951C182.845 155.433 182.742 155.942 182.492 156.478L182.396 156.671C182.165 157.104 181.889 157.413 181.57 157.598L179.776 158.635L179.97 158.765C180.284 158.974 180.606 159.145 180.934 159.28C182.44 159.896 184.092 159.727 185.889 158.773L186.25 158.572C188.437 157.297 190.25 155.22 191.691 152.343L191.974 151.757C192.151 151.379 192.314 150.998 192.465 150.615L192.613 150.231C192.756 149.846 192.881 149.455 192.989 149.059L193.09 148.659C193.248 148.062 193.495 147.556 193.834 147.141C194.173 146.727 194.533 146.502 194.913 146.466C195.085 146.443 195.237 146.459 195.371 146.513L195.44 146.546Z" fill="#C8DAE8"/>
<path d="M176.683 147.696C177.022 147.281 177.27 146.775 177.427 146.177C177.555 145.643 177.713 145.12 177.904 144.606C178.095 144.093 178.308 143.584 178.543 143.08C180.027 139.897 181.935 137.625 184.268 136.265C186.205 135.136 187.977 134.9 189.583 135.558C189.911 135.692 190.232 135.864 190.546 136.072L190.741 136.202L188.947 137.239C188.582 137.45 188.274 137.824 188.024 138.36C187.775 138.895 187.671 139.404 187.713 139.887C187.756 140.368 187.934 140.714 188.249 140.923C188.307 140.962 188.365 140.993 188.424 141.017C188.689 141.125 188.971 141.093 189.27 140.921L194.452 137.925C194.851 137.694 195.168 137.327 195.403 136.822C195.638 136.319 195.733 135.803 195.687 135.277L195.087 128.44C195.045 127.957 194.866 127.612 194.551 127.402C194.494 127.364 194.436 127.333 194.377 127.309C194.112 127.2 193.83 127.232 193.531 127.405C193.165 127.616 192.858 127.99 192.608 128.526C192.358 129.062 192.254 129.57 192.297 130.053L192.504 132.42L192.309 132.29C191.887 132.009 191.455 131.779 191.015 131.599C188.866 130.719 186.504 131.033 183.928 132.541C180.824 134.359 178.287 137.379 176.319 141.602C175.966 142.359 175.646 143.136 175.359 143.936C175.071 144.736 174.832 145.547 174.643 146.371C174.486 146.969 174.503 147.464 174.695 147.86C174.807 148.092 174.957 148.246 175.146 148.324C175.279 148.378 175.432 148.394 175.604 148.371C175.984 148.335 176.344 148.111 176.683 147.696" fill="#C8DAE8"/>
<path d="M194.464 127.35C194.494 127.366 194.523 127.383 194.551 127.402C194.866 127.612 195.045 127.958 195.087 128.44L195.686 135.277C195.732 135.803 195.638 136.319 195.403 136.823C195.168 137.327 194.851 137.695 194.453 137.925L189.27 140.92L189.159 140.978C188.901 141.099 188.656 141.111 188.424 141.017C188.395 141.005 188.365 140.991 188.336 140.975L188.249 140.924C187.973 140.74 187.802 140.452 187.735 140.061L187.713 139.886C187.676 139.464 187.751 139.022 187.938 138.559L188.025 138.36C188.275 137.824 188.582 137.45 188.948 137.238L190.741 136.202L190.546 136.072C190.311 135.916 190.071 135.78 189.828 135.665L189.583 135.558C187.977 134.9 186.205 135.136 184.268 136.265L183.835 136.531C181.698 137.913 179.934 140.096 178.543 143.08L178.371 143.459C178.203 143.839 178.047 144.222 177.904 144.607L177.767 144.994C177.636 145.382 177.522 145.777 177.426 146.177C177.289 146.7 177.083 147.153 176.806 147.536L176.683 147.695C176.345 148.11 175.984 148.335 175.604 148.371C175.432 148.394 175.28 148.378 175.146 148.323L175.32 147.898C175.366 147.917 175.435 147.93 175.543 147.916L175.56 147.913C175.776 147.893 176.035 147.763 176.327 147.405L176.433 147.267C176.672 146.936 176.857 146.536 176.982 146.061C177.113 145.512 177.277 144.974 177.473 144.446L177.624 144.053C177.779 143.661 177.946 143.272 178.126 142.885L178.415 142.288C179.885 139.352 181.754 137.198 184.036 135.868L184.414 135.657C186.297 134.658 188.093 134.45 189.757 135.132L190.023 135.249C190.288 135.374 190.547 135.521 190.8 135.689L191.611 136.229L190.971 136.6L189.177 137.635L189.178 137.637C188.953 137.767 188.73 138.001 188.527 138.381L188.441 138.554C188.218 139.032 188.138 139.46 188.171 139.846L188.188 139.983C188.239 140.28 188.358 140.443 188.504 140.54L188.597 140.591L188.683 140.616C188.744 140.625 188.815 140.62 188.9 140.589L189.04 140.522L194.222 137.527L194.333 137.456C194.588 137.279 194.808 137.01 194.986 136.628C195.163 136.248 195.246 135.868 195.238 135.483L195.229 135.317L194.629 128.48C194.599 128.143 194.495 127.949 194.358 127.831L194.296 127.785C194.262 127.762 194.231 127.746 194.203 127.734C194.124 127.702 194.029 127.691 193.901 127.736L193.761 127.803C193.536 127.933 193.314 128.168 193.11 128.548L193.025 128.72C192.802 129.199 192.721 129.626 192.755 130.012L193.045 133.332L192.25 132.803L192.055 132.673C191.756 132.474 191.453 132.304 191.147 132.16L190.84 132.025C188.985 131.265 186.927 131.45 184.624 132.678L184.161 132.938C181.345 134.587 178.988 137.271 177.106 141.03L176.736 141.797C176.389 142.541 176.074 143.305 175.792 144.091C175.58 144.678 175.396 145.272 175.239 145.872L175.091 146.474L175.088 146.488L175.043 146.68C174.957 147.113 174.997 147.429 175.108 147.66L175.166 147.761C175.222 147.844 175.277 147.88 175.32 147.898L175.146 148.323L175.077 148.292C174.965 148.231 174.868 148.14 174.786 148.019L174.694 147.861C174.503 147.465 174.485 146.969 174.642 146.371C174.784 145.754 174.955 145.143 175.152 144.539L175.358 143.936C175.574 143.337 175.809 142.749 176.061 142.174L176.319 141.602C178.225 137.511 180.666 134.549 183.639 132.715L183.928 132.541C186.504 131.033 188.867 130.719 191.015 131.598C191.456 131.779 191.887 132.01 192.31 132.29L192.504 132.42L192.297 130.053C192.26 129.63 192.335 129.189 192.522 128.726L192.608 128.526C192.826 128.057 193.089 127.712 193.396 127.492L193.53 127.405C193.829 127.232 194.112 127.2 194.377 127.309L194.464 127.35Z" fill="#C8DAE8"/>
</svg>
