<svg width="172" height="172" viewBox="0 0 172 172" fill="none" xmlns="http://www.w3.org/2000/svg">
<path d="M130.366 33.155C144.671 32.298 145.373 31.596 146.238 17.364C147.103 31.595 147.805 32.297 162.118 33.155C147.804 34.012 147.103 34.714 146.238 48.946C145.373 34.715 144.671 34.013 130.366 33.155Z" fill="#C8DAE8"/>
<path d="M146.239 49.31C146.047 49.31 145.888 49.161 145.876 48.968C145.022 34.941 144.441 34.363 130.344 33.519C130.152 33.507 130 33.348 130 33.155C130 32.962 130.152 32.803 130.344 32.791C144.441 31.947 145.022 31.369 145.876 17.342C145.888 17.15 146.047 17 146.239 17C146.431 17 146.59 17.149 146.602 17.342C147.453 31.369 148.034 31.947 162.141 32.791C162.333 32.803 162.485 32.962 162.485 33.155C162.485 33.348 162.333 33.507 162.141 33.519C148.034 34.363 147.453 34.941 146.602 48.968C146.59 49.16 146.431 49.31 146.239 49.31ZM135.308 33.155C143.625 33.971 145.418 35.763 146.239 44.056C147.057 35.762 148.85 33.971 157.175 33.155C148.85 32.339 147.057 30.547 146.239 22.254C145.418 30.548 143.625 32.339 135.308 33.155Z" fill="#155C6D"/>
<path d="M9.36621 142.037C15.4092 141.675 15.7052 141.379 16.0712 135.366C16.4362 141.379 16.7332 141.675 22.7792 142.037C16.7332 142.399 16.4372 142.695 16.0712 148.706C15.7062 142.695 15.4092 142.399 9.36621 142.037Z" fill="#C8DAE8"/>
<path d="M16.07 149.07C15.878 149.07 15.719 148.921 15.707 148.728C15.354 142.927 15.176 142.749 9.34399 142.4C9.15199 142.388 9 142.229 9 142.036C9 141.843 9.15199 141.684 9.34399 141.672C15.176 141.323 15.354 141.145 15.707 135.342C15.719 135.15 15.878 135 16.07 135C16.262 135 16.421 135.149 16.433 135.342C16.786 141.145 16.964 141.323 22.799 141.672C22.991 141.684 23.143 141.843 23.143 142.036C23.143 142.229 22.991 142.388 22.799 142.4C16.965 142.749 16.787 142.927 16.433 148.728C16.421 148.92 16.262 149.07 16.07 149.07ZM12.958 142.037C14.91 142.421 15.685 143.196 16.07 145.144C16.454 143.196 17.23 142.421 19.182 142.037C17.23 141.652 16.455 140.878 16.07 138.929C15.686 140.879 14.91 141.652 12.958 142.037Z" fill="#155C6D"/>
<path d="M9.56543 102.384L49.3135 125.484L116.717 86.5693L76.9687 63.4685L9.56543 102.384Z" fill="#155C6D"/>
<path d="M76.9004 63.2088C76.9681 63.191 77.0414 63.2001 77.1035 63.2361L116.852 86.3377L116.907 86.3807C116.956 86.4303 116.985 86.4983 116.985 86.5701C116.985 86.6657 116.933 86.7538 116.851 86.8016L49.4473 125.717C49.3849 125.753 49.3119 125.762 49.2441 125.744L49.1787 125.717L9.43066 102.616C9.34797 102.568 9.29682 102.479 9.29688 102.384C9.29701 102.288 9.34874 102.199 9.43164 102.151L76.835 63.2361L76.9004 63.2088ZM10.0996 102.384L49.3135 125.174L116.181 86.5682L76.9678 63.7781L10.0996 102.384Z" fill="#155C6D"/>
<path d="M49.4839 125.67L89.2319 148.77L156.635 109.855L116.887 86.7544L49.4839 125.67Z" fill="#155C6D"/>
<path d="M116.819 86.4947C116.887 86.4769 116.96 86.486 117.022 86.522L156.77 109.624L156.826 109.667C156.875 109.716 156.904 109.784 156.904 109.856C156.904 109.952 156.852 110.04 156.769 110.087L89.3657 149.002C89.3034 149.038 89.2303 149.048 89.1626 149.03L89.0972 149.002L49.3491 125.902C49.2664 125.854 49.2153 125.765 49.2153 125.669C49.2155 125.574 49.2672 125.485 49.3501 125.437L116.753 86.522L116.819 86.4947ZM50.0181 125.669L89.2319 148.46L156.099 109.854L116.886 87.064L50.0181 125.669Z" fill="#155C6D"/>
<path d="M59.9741 125.116L96.7883 146.594L159.217 110.412L122.402 88.9336L59.9741 125.116Z" fill="#155C6D"/>
<path d="M122.333 88.6738C122.402 88.6558 122.475 88.6657 122.538 88.7021L159.352 110.18L159.408 110.224C159.457 110.273 159.485 110.341 159.485 110.412C159.485 110.508 159.434 110.597 159.351 110.645L96.9233 146.826L96.8569 146.853C96.7889 146.871 96.7152 146.863 96.6528 146.826L96.7886 146.594H96.7876L96.6528 146.826L59.8394 125.348C59.7568 125.299 59.7054 125.211 59.7056 125.115C59.7057 125.02 59.7569 124.932 59.8394 124.884L122.268 88.7011L122.333 88.6738ZM60.5073 125.116L96.7886 146.283L158.682 110.41L122.402 89.2431L60.5073 125.116Z" fill="#155C6D"/>
<path d="M28.9185 56.6826C28.2041 57.0951 28.2027 58.1256 28.9158 58.5401L61.0828 77.2353C61.4153 77.4286 61.8258 77.4292 62.1588 77.2369L118.193 44.8851C118.907 44.4726 118.908 43.4421 118.195 43.0276L86.0283 24.3324C85.6958 24.1391 85.2854 24.1385 84.9523 24.3308L28.9185 56.6826Z" fill="#C8DAE8"/>
<path d="M84.8179 24.0982C85.2342 23.8578 85.748 23.8586 86.1636 24.1001L118.331 42.7955C119.222 43.3136 119.22 44.6022 118.327 45.1177L62.2935 77.4693C61.8772 77.7096 61.3634 77.7089 60.9478 77.4673L28.7808 58.772C27.8897 58.2538 27.8919 56.9662 28.7847 56.4507L84.8179 24.0982ZM85.8931 24.564C85.6438 24.4194 85.3361 24.4189 85.0865 24.563L29.0523 56.9156C28.5172 57.225 28.516 57.9973 29.0503 58.3082L61.2173 77.0035C61.4667 77.1484 61.7752 77.1487 62.0249 77.0044L118.058 44.6529C118.594 44.3436 118.596 43.5703 118.061 43.2593L85.8931 24.564Z" fill="#155C6D"/>
<path d="M62.7121 45.6621C57.6061 48.585 57.579 53.3245 62.6513 56.2474C67.7236 59.1702 75.9724 59.1702 81.0784 56.2474C86.1811 53.3245 86.2082 48.585 81.1359 45.6621C76.067 42.7393 67.8182 42.7393 62.7155 45.6621H62.7121Z" fill="#70C5AD"/>
<path d="M71.9389 43.2014C68.5749 43.2014 65.1924 43.9376 62.5922 45.4241L62.5795 45.429L62.1059 45.7141C59.8121 47.1671 58.6081 49.0357 58.5971 50.9534C58.5854 52.9996 59.933 54.9901 62.518 56.4797C65.1046 57.9702 68.4842 58.7083 71.853 58.7083C75.0112 58.7082 78.186 58.06 80.7153 56.7512L81.2123 56.4807V56.4797L81.0785 56.2473L80.9457 56.0149C78.4429 57.4476 75.1529 58.1711 71.853 58.1711C68.5528 58.1711 65.2712 57.4472 62.7856 56.0149C60.2985 54.5817 59.123 52.7411 59.1332 50.9563C59.1435 49.1719 60.3391 47.3311 62.8403 45.8977L62.8491 45.8948L63.3276 45.635C65.7619 44.375 68.8459 43.7385 71.9389 43.7385C75.032 43.7385 78.1086 44.3743 80.5278 45.634L81.0024 45.8948C83.4895 47.328 84.6646 49.1685 84.6547 50.9534C84.6448 52.739 83.4488 54.5811 80.9457 56.0149L81.2123 56.4797C83.8117 54.9907 85.1805 53.0017 85.1918 50.9563C85.2031 48.91 83.8551 46.9196 81.2699 45.4299L80.7768 45.1594C78.2633 43.8501 75.0965 43.2014 71.9389 43.2014Z" fill="#155C6D"/>
<path d="M74.6442 30.2522C80.6243 33.5747 90.1192 33.5448 96.075 30.1627L86.0093 24.3126C85.6768 24.1193 85.2663 24.1188 84.9332 24.3111L74.6442 30.2522Z" fill="#70C5AD"/>
<path d="M109.714 49.4519C109.874 49.5451 110.072 49.5428 110.232 49.45L118.173 44.8652C118.888 44.4528 118.889 43.4223 118.176 43.0078L109.325 37.8636C108.962 37.6527 108.505 37.6701 108.177 37.9318C103.805 41.4168 104.312 46.3136 109.714 49.4519Z" fill="#70C5AD"/>
<path d="M39.1139 63.9416C38.7979 64.1105 38.4173 64.0947 38.1074 63.9146L28.9926 58.6182C28.2794 58.2037 28.2808 57.1732 28.9951 56.7607L38.8057 51.0958C39.0574 50.9504 39.3675 50.9445 39.6187 51.0906C45.6113 54.5721 45.5793 60.2175 39.5509 63.699C39.4073 63.7818 39.2616 63.8627 39.1139 63.9416Z" fill="#70C5AD"/>
<path d="M50.7119 71.2388L61.1594 77.3096C61.4919 77.5028 61.9023 77.5034 62.2353 77.3111L72.5527 71.3543C72.507 71.3271 72.461 71.3 72.4146 71.2731C66.4458 67.803 56.7448 67.7916 50.7119 71.2388Z" fill="#70C5AD"/>
<path d="M61.5878 68.3936C65.5479 68.3994 69.5148 69.2767 72.5498 71.0411L72.6904 71.1241C72.772 71.1729 72.8219 71.2615 72.8212 71.3565C72.8204 71.4515 72.7688 71.5395 72.6865 71.587L62.3691 77.543C61.9529 77.7833 61.4399 77.7825 61.0244 77.5411L50.5771 71.4708C50.4942 71.4226 50.443 71.3333 50.4433 71.2374C50.4438 71.1416 50.4958 71.0535 50.5791 71.0059C53.6455 69.2538 57.6277 68.3879 61.5878 68.3936ZM61.5869 68.9298C57.8741 68.9244 54.1678 69.7023 51.2587 71.2462L61.2939 77.0772C61.5433 77.2221 61.8518 77.2224 62.1015 77.0782L72.0117 71.3565C69.1122 69.7511 65.3609 68.9352 61.5869 68.9298ZM38.6718 50.8633C39.0027 50.6724 39.4155 50.6617 39.7539 50.8585L40.3076 51.1973C42.99 52.9231 44.3736 55.136 44.3613 57.3966C44.3488 59.6563 42.9417 61.8678 40.2421 63.5928L39.6855 63.9317C39.5394 64.0161 39.3904 64.0975 39.2402 64.1778C38.8374 64.393 38.3582 64.3706 37.9726 64.1466L28.8574 58.8497C27.9664 58.3314 27.9685 57.0439 28.8613 56.5284L38.6718 50.8633ZM39.4843 51.3223C39.3203 51.227 39.1129 51.2287 38.9404 51.3282L29.1298 56.9932C28.5941 57.3026 28.593 58.075 29.1279 58.3858L38.2421 63.6827C38.4762 63.8187 38.7579 63.8275 38.9873 63.7051C39.1324 63.6276 39.276 63.5482 39.4169 63.4669L39.955 63.1397C42.5555 61.4783 43.813 59.4118 43.8242 57.3936C43.8352 55.376 42.6009 53.3104 40.0185 51.6495L39.4843 51.3223ZM108.01 37.7217C108.431 37.3859 109.009 37.3698 109.46 37.6319L118.311 42.7755C119.203 43.2936 119.2 44.5822 118.308 45.0977L110.367 49.6827C110.156 49.8045 109.899 49.8233 109.674 49.7305L109.579 49.6837C106.833 48.0884 105.283 46.0171 105.014 43.8546C104.744 41.6855 105.773 39.5052 108.01 37.7217ZM109.19 38.0958C108.915 37.936 108.579 37.9542 108.344 38.1417C106.21 39.8429 105.306 41.8534 105.547 43.7882C105.788 45.7298 107.193 47.6767 109.849 49.2198C109.923 49.2631 110.019 49.264 110.099 49.2178L118.039 44.6329C118.575 44.3236 118.576 43.5502 118.041 43.2393L109.19 38.0958ZM84.7988 24.0782C85.2151 23.8378 85.7289 23.8386 86.1445 24.0801L96.2099 29.9307C96.2929 29.979 96.3442 30.0681 96.3437 30.1641C96.3431 30.26 96.2912 30.3481 96.208 30.3956C93.1809 32.1146 89.27 32.9752 85.3701 32.9903C81.7137 33.0044 78.0426 32.2756 75.0937 30.793L74.5136 30.4864L74.457 30.4444C74.4064 30.3951 74.3765 30.3265 74.3759 30.254C74.3753 30.1576 74.4263 30.0679 74.5097 30.0196L84.7988 24.0782ZM85.875 24.544C85.6256 24.3991 85.3171 24.3988 85.0673 24.543L75.1982 30.2413C78.0775 31.7244 81.7177 32.4673 85.3681 32.4532C89.021 32.439 92.6572 31.6665 95.5263 30.1534L85.875 24.544Z" fill="#155C6D"/>
<path d="M28.4395 57.9062L28.5592 100.914L62.8697 120.852L62.7459 77.8449L28.4395 57.9062Z" fill="#155C6D"/>
<path d="M63.1377 120.852C63.138 120.948 63.0872 121.037 63.0039 121.085C62.9207 121.133 62.8184 121.132 62.7354 121.084L62.8701 120.853L63.1377 120.852ZM28.3057 57.6739C28.3888 57.6261 28.4912 57.6258 28.5742 57.6739L62.8809 77.6134L62.9365 77.6563C62.9853 77.7057 63.0143 77.7726 63.0146 77.8438L63.1377 120.852H62.8691L62.7354 121.084L28.4248 101.146L28.3691 101.103C28.3201 101.053 28.2912 100.986 28.291 100.914H28.5596V100.913L28.291 100.914L28.1709 57.9073C28.1706 57.8112 28.2224 57.722 28.3057 57.6739ZM28.8262 100.758L62.5996 120.385L62.4775 77.9991L28.709 58.3731L28.8262 100.758Z" fill="#155C6D"/>
<path d="M61.6211 77.5516L61.7448 120.559L118.744 87.5466L118.62 44.5391L61.6211 77.5516Z" fill="#70C5AD"/>
<path d="M118.485 44.3066C118.568 44.2587 118.671 44.2589 118.754 44.3066C118.816 44.3425 118.861 44.4012 118.879 44.4687L118.888 44.5381L119.012 87.5459C119.012 87.6418 118.961 87.7302 118.878 87.7783L61.8789 120.791L61.8145 120.818C61.7468 120.836 61.6737 120.828 61.6113 120.792C61.5283 120.744 61.4768 120.655 61.4766 120.56H61.7451L61.7441 120.559L61.4766 120.56L61.3525 77.5527C61.3523 77.4568 61.4033 77.3675 61.4863 77.3193L118.485 44.3066ZM61.8896 77.706L62.0107 120.095L118.475 87.3916L118.353 45.0029L61.8896 77.706Z" fill="#155C6D"/>
<path d="M96.9814 57.4829V100.343L82.9722 108.232V65.5558L96.9814 57.4829Z" fill="#155C6D"/>
<path d="M96.8472 57.2505C96.9302 57.2027 97.0328 57.2026 97.1157 57.2505C97.1987 57.2985 97.2495 57.3871 97.2495 57.4829V100.342C97.2495 100.439 97.1972 100.529 97.1128 100.577L83.104 108.465C83.0209 108.512 82.9187 108.512 82.8364 108.463C82.7543 108.415 82.7036 108.327 82.7036 108.232V65.5562C82.7036 65.4603 82.7553 65.3717 82.8384 65.3238L96.8472 57.2505ZM83.2407 65.7105V107.773L96.7134 100.185V57.9468L83.2407 65.7105Z" fill="#155C6D"/>
<path d="M48.6255 45.2857L82.924 65.2204L96.7296 57.2513L62.4272 37.3167L48.6255 45.2857Z" fill="#70C5AD"/>
<path d="M62.3589 37.0569C62.4266 37.0391 62.4999 37.0482 62.562 37.0843L96.8647 57.0198C96.9473 57.068 96.9977 57.1567 96.9976 57.2522C96.9973 57.3478 96.9465 57.4359 96.8638 57.4837L96.73 57.2513H96.729L96.8638 57.4837L83.0581 65.4524L82.9927 65.4798C82.9476 65.4917 82.9001 65.4918 82.855 65.4798L82.7896 65.4524L48.4907 45.5179C48.408 45.4698 48.3568 45.3811 48.3569 45.2854C48.3571 45.1897 48.4088 45.1009 48.4917 45.053L62.2935 37.0843L62.3589 37.0569ZM49.1597 45.2854L82.9243 64.9104L96.1938 57.2503L62.4263 37.6263L49.1597 45.2854Z" fill="#155C6D"/>
<path d="M63.2489 106.348L97.5514 126.286L154.519 93.3959L120.216 73.4573L63.2489 106.348Z" fill="#C8DAE8"/>
<path d="M120.285 73.1984C120.217 73.1803 120.144 73.1888 120.082 73.2248L63.1143 106.115L63.0586 106.158C63.0094 106.208 62.9807 106.275 62.9805 106.347C62.9803 106.443 63.0315 106.531 63.1143 106.579L97.417 126.519C97.4792 126.555 97.5524 126.564 97.6201 126.546L97.6855 126.519L154.652 93.6281C154.735 93.5803 154.787 93.4922 154.787 93.3966C154.787 93.301 154.736 93.2123 154.653 93.1642L120.351 73.2248L120.285 73.1984ZM153.983 93.3947L97.5527 125.976L63.7852 106.348L120.216 73.7668L153.983 93.3947Z" fill="#155C6D"/>
<path d="M63.249 106.345L63.257 121.58L97.5635 141.515L97.5515 126.284L63.249 106.345Z" fill="#155C6D"/>
<path d="M97.2842 126.438L97.2949 141.048L63.5254 121.426L63.5186 106.812L97.2842 126.438ZM97.4287 141.747L97.4941 141.775C97.5618 141.793 97.6349 141.783 97.6973 141.747C97.7805 141.699 97.8321 141.611 97.832 141.515L97.8203 126.284C97.8202 126.188 97.7689 126.1 97.6865 126.052L63.3838 106.113C63.3008 106.065 63.1984 106.065 63.1152 106.113C63.0321 106.161 62.9805 106.249 62.9805 106.345L62.9883 121.58C62.9883 121.676 63.0395 121.765 63.1221 121.813L97.4287 141.747Z" fill="#155C6D"/>
<path d="M97.5516 126.297L97.5636 141.528L154.531 108.638L154.519 93.4062L97.5516 126.297Z" fill="#70C5AD"/>
<path d="M97.4175 126.064C97.3344 126.112 97.2836 126.201 97.2837 126.297L97.2954 141.528C97.2955 141.624 97.3463 141.713 97.4292 141.761C97.4914 141.797 97.5647 141.805 97.6323 141.787L97.6978 141.761L154.665 108.87C154.748 108.822 154.799 108.734 154.799 108.638L154.788 93.4063C154.788 93.3105 154.736 93.2217 154.653 93.1739C154.57 93.126 154.467 93.1259 154.384 93.1739L154.519 93.4063H154.518L154.384 93.1739L97.4175 126.064ZM154.262 108.482L97.8315 141.064L97.8208 126.451L154.251 93.8701L154.262 108.482Z" fill="#155C6D"/>
<path d="M71.7652 106.055C71.0508 106.468 71.0494 107.498 71.7626 107.913L103.929 126.604C104.262 126.797 104.672 126.798 105.005 126.606L159.83 94.9524C160.544 94.54 160.545 93.5094 159.832 93.0949L127.665 74.3997C127.333 74.2065 126.922 74.2059 126.589 74.3982L71.7652 106.055Z" fill="#C8DAE8"/>
<path d="M127.8 74.1673C127.385 73.9257 126.871 73.925 126.454 74.1654L71.6312 105.823C70.7383 106.338 70.7359 107.627 71.6273 108.145L103.794 126.836C104.21 127.078 104.723 127.078 105.139 126.838L159.963 95.1849C160.856 94.6694 160.858 93.3808 159.967 92.8626L127.8 74.1673ZM126.723 74.6302C126.973 74.486 127.281 74.4862 127.531 74.6312L159.698 93.3265C160.232 93.6374 160.23 94.4107 159.695 94.72L104.871 126.373C104.622 126.518 104.313 126.517 104.064 126.372L71.8968 107.681C71.3621 107.37 71.3633 106.597 71.8988 106.287L126.723 74.6302Z" fill="#155C6D"/>
<path d="M71.7652 106.055C71.0508 106.468 71.0494 107.498 71.7626 107.913L103.929 126.604C104.262 126.797 104.672 126.798 105.005 126.606L159.83 94.9524C160.544 94.54 160.545 93.5094 159.832 93.0949L127.665 74.3997C127.333 74.2065 126.922 74.2059 126.589 74.3982L71.7652 106.055Z" fill="#C8DAE8"/>
<path d="M127.8 74.1673C127.385 73.9257 126.871 73.925 126.454 74.1654L71.6312 105.823C70.7383 106.338 70.7359 107.627 71.6273 108.145L103.794 126.836C104.21 127.078 104.723 127.078 105.139 126.838L159.963 95.1849C160.856 94.6694 160.858 93.3808 159.967 92.8626L127.8 74.1673ZM126.723 74.6302C126.973 74.486 127.281 74.4862 127.531 74.6312L159.698 93.3265C160.232 93.6374 160.23 94.4107 159.695 94.72L104.871 126.373C104.622 126.518 104.313 126.517 104.064 126.372L71.8968 107.681C71.3621 107.37 71.3633 106.597 71.8988 106.287L126.723 74.6302Z" fill="#155C6D"/>
<path d="M106.511 93.8977C101.405 96.8206 101.378 101.56 106.451 104.483C111.523 107.406 119.772 107.406 124.878 104.483C129.98 101.56 130.007 96.8206 124.935 93.8977C119.866 90.9749 111.618 90.9749 106.515 93.8977H106.511Z" fill="#70C5AD"/>
<path d="M115.738 91.437C112.374 91.437 108.991 92.1732 106.391 93.6597L106.378 93.6646L105.905 93.9497C103.611 95.4027 102.407 97.2713 102.396 99.189C102.384 101.235 103.732 103.226 106.317 104.715C108.903 106.206 112.283 106.944 115.652 106.944C118.81 106.944 121.985 106.296 124.514 104.987L125.011 104.716V104.715L124.877 104.483L124.745 104.25C122.242 105.683 118.952 106.407 115.652 106.407C112.352 106.407 109.07 105.683 106.584 104.25C104.097 102.817 102.922 100.977 102.932 99.1919C102.942 97.4075 104.138 95.5667 106.639 94.1333L106.648 94.1304L107.126 93.8706C109.561 92.6106 112.645 91.9741 115.738 91.9741C118.831 91.9741 121.907 92.6099 124.327 93.8696L124.801 94.1304C127.288 95.5636 128.463 97.4041 128.454 99.189C128.444 100.975 127.248 102.817 124.745 104.25L125.011 104.715C127.611 103.226 128.979 101.237 128.991 99.1919C129.002 97.1456 127.654 95.1552 125.069 93.6655L124.576 93.395C122.062 92.0857 118.895 91.437 115.738 91.437Z" fill="#155C6D"/>
<path d="M116.3 80.3391C122.28 83.6616 131.775 83.6317 137.731 80.2496L127.665 74.3995C127.332 74.2062 126.922 74.2057 126.589 74.398L116.3 80.3391Z" fill="#70C5AD"/>
<path d="M151.629 99.6864L159.829 94.9522C160.543 94.5397 160.545 93.5092 159.832 93.0947L150.385 87.6043C145.428 91.106 145.749 96.2739 151.369 99.5389C151.455 99.5888 151.542 99.6379 151.629 99.6864Z" fill="#70C5AD"/>
<path d="M81.8835 113.234C81.5674 113.403 81.1868 113.387 80.877 113.207L71.7621 107.911C71.0489 107.496 71.0503 106.466 71.7646 106.053L81.5752 100.388C81.827 100.243 82.137 100.237 82.3883 100.383C88.3808 103.865 88.3489 109.51 82.3204 112.992C82.1768 113.074 82.0311 113.155 81.8835 113.234Z" fill="#70C5AD"/>
<path d="M93.4814 120.531L103.929 126.602C104.261 126.795 104.672 126.796 105.005 126.604L115.322 120.647C115.277 120.62 115.231 120.593 115.184 120.566C109.215 117.096 99.5144 117.084 93.4814 120.531Z" fill="#70C5AD"/>
<path d="M104.357 117.687C108.317 117.692 112.284 118.569 115.318 120.333H115.319C115.367 120.361 115.414 120.388 115.46 120.416C115.542 120.465 115.591 120.553 115.591 120.649C115.59 120.744 115.539 120.831 115.456 120.879L105.139 126.836C104.723 127.076 104.209 127.076 103.794 126.834L93.3467 120.764C93.2638 120.716 93.2126 120.626 93.2129 120.53C93.2133 120.434 93.2654 120.346 93.3487 120.298C96.4151 118.546 100.397 117.681 104.357 117.687ZM104.356 118.223C100.644 118.217 96.9383 118.995 94.0293 120.538L104.064 126.37C104.313 126.515 104.621 126.515 104.871 126.371L114.78 120.649C111.881 119.044 108.13 118.228 104.356 118.223ZM81.4414 100.156C81.7723 99.9653 82.185 99.9548 82.5235 100.152L83.0772 100.489C85.7597 102.215 87.1432 104.428 87.1309 106.689C87.1185 108.949 85.7115 111.161 83.0118 112.886L82.4551 113.224C82.309 113.308 82.16 113.391 82.0098 113.471C81.6071 113.686 81.1277 113.664 80.7422 113.44L71.627 108.143C70.7358 107.625 70.7381 106.336 71.6309 105.82L81.4414 100.156ZM82.2539 100.615C82.09 100.52 81.8825 100.521 81.71 100.62L71.8994 106.285C71.3637 106.595 71.3626 107.368 71.8975 107.679L81.0118 112.975C81.2459 113.111 81.5275 113.12 81.7569 112.997C81.902 112.92 82.0456 112.84 82.1866 112.759L82.7246 112.433C85.3254 110.771 86.5827 108.704 86.5938 106.686C86.6047 104.668 85.3706 102.602 82.7881 100.942L82.2539 100.615ZM150.299 87.3498C150.371 87.3253 150.452 87.3328 150.52 87.3722L159.967 92.8624C160.858 93.3805 160.857 94.6691 159.964 95.1847L151.764 99.9191L151.629 99.6857V99.6867L151.764 99.9191C151.702 99.9545 151.63 99.9634 151.564 99.9464L151.499 99.921L151.234 99.7707C148.378 98.1112 146.816 95.9362 146.644 93.6808C146.471 91.4208 147.701 89.1717 150.23 87.3849L150.299 87.3498ZM150.402 87.9249C148.072 89.6206 147.028 91.6631 147.179 93.6398C147.333 95.6599 148.741 97.7014 151.504 99.3068C151.545 99.3306 151.587 99.3536 151.628 99.3771L159.695 94.7199C160.231 94.4105 160.232 93.6372 159.697 93.3263L150.402 87.9249ZM126.455 74.1652C126.871 73.925 127.384 73.9258 127.8 74.1671L137.865 80.0177C137.948 80.066 138 80.1551 137.999 80.2511C137.999 80.3471 137.947 80.4351 137.863 80.4826L137.285 80.7951C134.347 82.3059 130.682 83.0632 127.025 83.0773C123.125 83.0923 119.209 82.2619 116.17 80.5734C116.085 80.5264 116.032 80.4376 116.031 80.341C116.031 80.2445 116.082 80.1549 116.166 80.1066L126.455 74.1652ZM127.53 74.631C127.281 74.4863 126.973 74.4861 126.724 74.63L116.855 80.3283C119.734 81.8113 123.373 82.5543 127.023 82.5402C130.676 82.5261 134.313 81.7534 137.182 80.2404L127.53 74.631Z" fill="#155C6D"/>
<path d="M71.9079 107.994L70.1593 109.112L98.0619 125.553L99.9663 124.455L71.9079 107.994Z" fill="#155C6D"/>
<path d="M71.9751 107.734C71.904 107.716 71.8269 107.727 71.7632 107.767L70.0151 108.886C69.9365 108.936 69.8894 109.024 69.8911 109.117C69.8929 109.21 69.9428 109.295 70.0229 109.343L97.9253 125.784L98.062 125.553V125.554L97.9253 125.784C98.0085 125.833 98.1121 125.834 98.1958 125.786L100.1 124.687C100.183 124.64 100.235 124.551 100.235 124.456C100.235 124.36 100.184 124.272 100.102 124.223L72.0435 107.763L71.9751 107.734ZM99.4331 124.453L98.064 125.243L70.6724 109.102L71.9145 108.308L99.4331 124.453Z" fill="#155C6D"/>
</svg>
