<svg width="172" height="172" viewBox="0 0 172 172" fill="none" xmlns="http://www.w3.org/2000/svg">
<path d="M68.1028 114.306L62.8879 109.106L57.5343 114.342C56.7221 115.002 56.2348 115.814 56.2324 116.695C56.2253 118.893 59.185 120.682 62.8424 120.694C66.4998 120.706 69.4693 118.934 69.4765 116.736C69.4788 115.821 68.9628 114.98 68.1028 114.306Z" fill="#155C6D"/>
<path d="M103.68 50.3008C103.68 28.0244 85.5057 9.9668 63.0836 9.9668C40.6615 9.9668 22.4893 28.0244 22.4893 50.3008C22.4893 60.3007 26.1586 69.443 32.224 76.4902H32.0973L60.5585 112.551C61.7482 114.056 64.0416 114.063 65.2385 112.565L94.0747 76.4902H93.9482C100.011 69.443 103.68 60.3007 103.68 50.3008Z" fill="#70C5AD"/>
<path d="M62.9021 114.041H62.8901C61.8605 114.039 60.9098 113.575 60.2743 112.77L31.3567 76.132H31.4524C25.4348 68.865 22.1309 59.7227 22.1309 50.301C22.1309 27.8621 40.5038 9.60864 63.0884 9.60864C85.673 9.60864 104.043 27.8645 104.043 50.301C104.043 59.7227 100.737 68.865 94.7221 76.132H94.8224L94.359 76.7149L65.5226 112.789C64.8824 113.585 63.9317 114.041 62.9069 114.041H62.9021ZM32.8355 76.8487L60.8405 112.328C61.3374 112.959 62.0851 113.322 62.8926 113.325H62.9021C63.7071 113.325 64.4548 112.966 64.9565 112.34L93.3293 76.8487H93.1646L93.6758 76.2562C99.8964 69.0274 103.322 59.8087 103.322 50.301C103.322 28.2563 85.2717 10.3253 63.0861 10.3253C40.9005 10.3253 22.8476 28.2587 22.8476 50.301C22.8476 59.8087 26.2732 69.0274 32.4939 76.2562L33.0051 76.8487H32.8355Z" fill="#155C6D"/>
<path d="M103.289 50.8143C103.289 28.5403 85.1164 10.4851 62.6966 10.4851C58.7096 10.4851 54.8564 11.056 51.2157 12.1215C45.8503 13.691 50.7259 20.0454 56.3159 20.0454C78.3486 20.0454 96.2103 37.7925 96.2103 59.6843C96.2103 69.5098 92.6032 78.4944 86.6453 85.4221H86.7695L64.1777 113.685C64.4238 113.52 64.6531 113.32 64.849 113.074L93.6829 77.0013H93.5564C99.6194 69.9541 103.289 60.8142 103.289 50.8143Z" fill="#C8DAE8"/>
<path d="M107.916 68.6901C110.599 68.6901 112.773 66.5497 112.773 63.9076C112.773 61.2655 110.599 59.125 107.916 59.125C105.234 59.125 103.06 61.2655 103.06 63.9076C103.06 66.5497 105.234 68.6901 107.916 68.6901Z" fill="#155C6D"/>
<path d="M107.916 69.0486C105.04 69.0486 102.699 66.7434 102.699 63.9078C102.699 61.0721 105.038 58.7668 107.916 58.7668C110.795 58.7668 113.133 61.0721 113.133 63.9078C113.133 66.7434 110.795 69.0486 107.916 69.0486ZM107.916 59.4835C105.436 59.4835 103.418 61.4687 103.418 63.9078C103.418 66.3468 105.436 68.332 107.916 68.332C110.396 68.332 112.414 66.3468 112.414 63.9078C112.414 61.4687 110.396 59.4835 107.916 59.4835Z" fill="#155C6D"/>
<path d="M119.832 162.442H119.113V162.127C119.113 160.782 118.32 159.549 117.087 158.986C115.606 158.307 114.648 156.819 114.645 155.199L114.614 127.297H115.333L115.364 155.199C115.364 156.542 116.16 157.772 117.388 158.336C118.871 159.014 119.832 160.502 119.832 162.127V162.442Z" fill="#155C6D"/>
<path d="M118.639 135.23L114.126 130.732L109.494 135.262C108.792 135.832 108.369 136.535 108.367 137.297C108.362 139.198 110.921 140.746 114.086 140.756C117.251 140.765 119.819 139.234 119.826 137.333C119.829 136.542 119.382 135.813 118.639 135.23Z" fill="#155C6D"/>
<path d="M114.117 141.114H114.088C110.672 141.105 108.004 139.428 108.009 137.297C108.014 136.451 108.448 135.651 109.268 134.985L114.129 130.228L118.876 134.961C119.733 135.639 120.187 136.458 120.185 137.333C120.18 138.382 119.521 139.354 118.324 140.068C117.192 140.742 115.699 141.114 114.115 141.114H114.117ZM114.124 131.236L109.743 135.517C109.268 135.907 108.728 136.511 108.725 137.297C108.721 138.995 111.126 140.386 114.086 140.395H114.115C115.572 140.395 116.936 140.061 117.956 139.449C118.928 138.871 119.466 138.116 119.466 137.328C119.466 136.506 118.897 135.885 118.417 135.51L118.386 135.481L114.124 131.234V131.236Z" fill="#155C6D"/>
<path d="M149.42 79.8605C149.42 60.587 133.697 44.9636 114.299 44.9636C94.901 44.9636 79.1772 60.587 79.1772 79.8605C79.1772 88.5107 82.3521 96.4203 87.5981 102.517H87.4882L112.11 133.713C113.14 135.018 115.123 135.022 116.16 133.728L141.107 102.517H140.997C146.243 96.4203 149.42 88.5107 149.42 79.8605Z" fill="#155C6D"/>
<path d="M114.141 135.054H114.132C113.226 135.051 112.39 134.643 111.829 133.936L86.7505 102.159H86.8292C81.6573 95.8761 78.8169 87.9879 78.8169 79.8609C78.8169 60.4201 94.7341 44.6057 114.299 44.6057C133.864 44.6057 149.781 60.4225 149.781 79.8609C149.781 87.9879 146.943 95.8761 141.769 102.159H141.853L116.44 133.953C115.881 134.652 115.044 135.054 114.141 135.054ZM88.2316 102.875L112.395 133.492C112.816 134.027 113.451 134.335 114.137 134.337H114.144C114.827 134.337 115.46 134.034 115.885 133.503L140.369 102.875H140.221L140.732 102.283C146.107 96.0361 149.065 88.0739 149.065 79.8609C149.065 60.8167 133.472 45.3224 114.301 45.3224C95.1306 45.3224 79.5383 60.8167 79.5383 79.8609C79.5383 88.0739 82.4959 96.0361 87.8709 102.283L88.3821 102.875H88.2316Z" fill="#155C6D"/>
<path d="M149.42 79.8605C149.42 60.587 133.696 44.9636 114.299 44.9636C110.849 44.9636 107.514 45.4582 104.366 46.3803C99.7241 47.7396 103.94 53.2364 108.778 53.2364C127.841 53.2364 143.297 68.5921 143.297 87.5336C143.297 96.0357 140.178 103.809 135.02 109.801H135.127L115.579 134.256C115.792 134.112 115.99 133.94 116.16 133.725L141.107 102.517H140.997C146.243 96.4179 149.42 88.5107 149.42 79.8605Z" fill="#70C5AD"/>
<path d="M115.783 134.555L115.302 134.034L134.385 110.159H134.239L134.75 109.567C140.032 103.43 142.94 95.6037 142.94 87.534C142.94 68.8219 127.615 53.5951 108.778 53.5951C105.355 53.5951 102.34 51.0605 102.027 48.8794C101.836 47.544 102.653 46.5073 104.268 46.0367C107.51 45.0883 110.888 44.6057 114.301 44.6057C133.862 44.6057 149.781 60.4225 149.781 79.8609C149.781 87.9855 146.943 95.8713 141.771 102.159H141.855L116.442 133.95C116.26 134.179 116.045 134.375 115.783 134.555ZM114.301 45.3224C110.955 45.3224 107.646 45.7954 104.469 46.7246C103.583 46.9826 102.562 47.5512 102.737 48.7791C103.002 50.6353 105.759 52.8785 108.778 52.8785C128.011 52.8785 143.659 68.4253 143.659 87.534C143.659 93.3247 142.192 98.9888 139.449 104.02L140.367 102.875H140.219L140.73 102.283C146.102 96.0337 149.06 88.0691 149.06 79.8609C149.06 60.8167 133.47 45.3224 114.301 45.3224Z" fill="#155C6D"/>
<path d="M63.6664 114.667H62.9473V162.445H63.6664V114.667Z" fill="#155C6D"/>
<path d="M85.8759 142.242H85.1567V162.438H85.8759V142.242Z" fill="#155C6D"/>
<path d="M89.1153 142.302L85.8663 139.06L82.5314 142.324C82.0249 142.734 81.7216 143.238 81.7192 143.79C81.7145 145.159 83.5587 146.275 85.8377 146.282C88.1167 146.287 89.9681 145.183 89.9729 143.814C89.9729 143.246 89.6527 142.72 89.1176 142.3L89.1153 142.302Z" fill="#70C5AD"/>
<path d="M85.8524 146.64H85.8381C84.6699 146.638 83.5686 146.358 82.7349 145.854C81.8462 145.314 81.3565 144.583 81.3589 143.79C81.3637 143.148 81.6909 142.546 82.3049 142.046L85.8691 138.559L89.3425 142.025C89.9827 142.529 90.3339 143.167 90.3315 143.819C90.3244 145.405 88.3607 146.643 85.8524 146.643V146.64ZM85.862 139.564L82.7779 142.581C82.4434 142.854 82.0779 143.262 82.0755 143.793C82.0755 144.325 82.4387 144.839 83.1052 145.24C83.829 145.677 84.7989 145.921 85.8381 145.924H85.8524C87.8901 145.924 89.6102 144.958 89.6125 143.814C89.6125 143.508 89.493 143.243 89.3306 143.021L85.862 139.564Z" fill="#155C6D"/>
<path d="M111.283 102.417C111.283 88.5371 99.9575 77.2854 85.9873 77.2854C72.0171 77.2854 60.6914 88.5371 60.6914 102.417C60.6914 108.647 62.9776 114.344 66.7568 118.735H66.6779L84.4107 141.203C85.1513 142.141 86.5797 142.146 87.3274 141.212L105.294 118.735H105.216C108.995 114.344 111.283 108.647 111.283 102.417Z" fill="#C8DAE8"/>
<path d="M85.8754 142.268H85.8658C85.185 142.268 84.5519 141.96 84.1291 141.425L65.9377 118.379H65.9904C62.3354 113.862 60.3311 108.226 60.3311 102.419C60.3311 88.3653 71.8384 76.9297 85.9854 76.9297C100.132 76.9297 111.64 88.3653 111.64 102.419C111.64 108.281 109.595 113.972 105.87 118.513L105.574 118.962L87.6073 141.439C87.1845 141.97 86.5539 142.271 85.8731 142.271L85.8754 142.268ZM67.4188 119.094L84.6953 140.981C84.9795 141.341 85.4072 141.549 85.8683 141.552H85.8754C86.3341 141.552 86.7618 141.346 87.0484 140.988L104.552 119.094H104.514L104.946 118.501C108.799 114.017 110.923 108.305 110.923 102.417C110.923 88.7571 99.7358 77.644 85.9877 77.644C72.2396 77.644 61.0525 88.7571 61.0525 102.417C61.0525 108.308 63.1763 114.022 67.0295 118.501L67.5407 119.094H67.4188Z" fill="#155C6D"/>
<path d="M110.671 102.725C110.671 89.0197 99.4885 77.9089 85.6975 77.9089C83.2441 77.9089 80.8744 78.2625 78.6336 78.917C75.3322 79.8822 78.3326 83.7904 81.7702 83.7904C95.3271 83.7904 106.316 94.71 106.316 108.181C106.316 114.227 104.097 119.753 100.43 124.014H100.506L86.6053 141.406C86.7558 141.303 86.8968 141.179 87.0186 141.028L104.758 118.835H104.68C108.411 114.5 110.669 108.876 110.669 102.725H110.671Z" fill="#70C5AD"/>
<path d="M9.55566 107.5C25.6998 106.592 26.4905 105.849 27.4675 90.7778C28.4446 105.849 29.2353 106.592 45.389 107.5C29.2353 108.408 28.4446 109.151 27.4675 124.222C26.4905 109.151 25.6998 108.408 9.55566 107.5Z" fill="#C8DAE8"/>
<path d="M27.4675 124.581C27.2788 124.581 27.1212 124.433 27.1116 124.246C26.1489 109.368 25.4896 108.757 9.53656 107.859C9.34783 107.849 9.19727 107.691 9.19727 107.5C9.19727 107.309 9.34545 107.151 9.53656 107.142C25.4919 106.246 26.1489 105.632 27.1116 90.7541C27.1235 90.5654 27.2788 90.4197 27.4675 90.4197C27.6562 90.4197 27.8139 90.5678 27.8234 90.7541C28.7885 105.632 29.4479 106.246 45.4081 107.142C45.5968 107.151 45.7474 107.309 45.7474 107.5C45.7474 107.691 45.5992 107.849 45.4081 107.859C29.4455 108.754 28.7885 109.368 27.8234 124.246C27.8115 124.435 27.6562 124.581 27.4675 124.581ZM14.8232 107.5C24.62 108.365 26.5597 110.262 27.4675 119.569C28.3777 110.262 30.3175 108.365 40.1191 107.5C30.3175 106.635 28.3777 104.739 27.4675 95.4315C26.5597 104.739 24.62 106.635 14.8232 107.5Z" fill="#155C6D"/>
<path d="M51.3607 152.889C53.3387 152.889 54.944 151.284 54.944 149.306C54.944 147.328 53.3387 145.722 51.3607 145.722C49.3827 145.722 47.7773 147.328 47.7773 149.306C47.7773 151.284 49.3827 152.889 51.3607 152.889Z" fill="#C8DAE8"/>
<path d="M51.3612 153.248C49.1873 153.248 47.4194 151.48 47.4194 149.306C47.4194 147.132 49.1873 145.364 51.3612 145.364C53.535 145.364 55.3029 147.132 55.3029 149.306C55.3029 151.48 53.535 153.248 51.3612 153.248ZM51.3612 146.081C49.5838 146.081 48.1362 147.526 48.1362 149.306C48.1362 151.086 49.5814 152.531 51.3612 152.531C53.1409 152.531 54.5861 151.086 54.5861 149.306C54.5861 147.526 53.1409 146.081 51.3612 146.081Z" fill="#155C6D"/>
<path d="M148.111 131.389C149.43 131.389 150.5 130.319 150.5 129C150.5 127.681 149.43 126.611 148.111 126.611C146.792 126.611 145.722 127.681 145.722 129C145.722 130.319 146.792 131.389 148.111 131.389Z" fill="#C8DAE8"/>
<path d="M148.112 131.747C146.597 131.747 145.364 130.515 145.364 129C145.364 127.486 146.599 126.253 148.112 126.253C149.624 126.253 150.859 127.486 150.859 129C150.859 130.515 149.624 131.747 148.112 131.747ZM148.112 126.97C146.991 126.97 146.081 127.88 146.081 129C146.081 130.121 146.991 131.031 148.112 131.031C149.232 131.031 150.142 130.121 150.142 129C150.142 127.88 149.232 126.97 148.112 126.97Z" fill="#155C6D"/>
<path d="M143.333 19.1112C151.943 18.5928 152.366 18.1676 152.887 9.55566C153.407 18.1676 153.83 18.5928 162.445 19.1112C153.83 19.6296 153.407 20.0548 152.887 28.6668C152.366 20.0548 151.943 19.6296 143.333 19.1112Z" fill="#C8DAE8"/>
<path d="M152.887 29.0253C152.698 29.0253 152.54 28.8772 152.531 28.6884C152.019 20.2342 151.761 19.9761 143.314 19.4697C143.126 19.4578 142.975 19.3025 142.975 19.1114C142.975 18.9227 143.123 18.765 143.314 18.7531C151.761 18.2442 152.022 17.9862 152.531 9.53432C152.543 9.3456 152.698 9.19751 152.887 9.19751C153.075 9.19751 153.233 9.3456 153.243 9.53432C153.754 17.9862 154.012 18.2442 162.464 18.7531C162.652 18.765 162.803 18.9227 162.803 19.1114C162.803 19.3025 162.655 19.4578 162.464 19.4697C154.012 19.9761 153.754 20.2366 153.243 28.6884C153.231 28.8772 153.075 29.0253 152.887 29.0253ZM147.509 19.1114C151.241 19.6298 152.368 20.7597 152.887 24.4935C153.405 20.7597 154.533 19.6274 158.266 19.1114C154.535 18.593 153.405 17.4631 152.887 13.7292C152.368 17.4631 151.241 18.593 147.509 19.1114Z" fill="#155C6D"/>
</svg>
