<svg width="411" height="300" viewBox="0 0 411 300" fill="none" xmlns="http://www.w3.org/2000/svg">
<path d="M176.573 163.5C176.573 163.776 176.797 164 177.073 164C177.349 164 177.573 163.776 177.573 163.5C177.573 163.224 177.349 163 177.073 163C176.797 163 176.573 163.224 176.573 163.5Z" fill="#70C5AD"/>
<path d="M176.773 163.5C176.773 163.334 176.907 163.2 177.073 163.2C177.239 163.2 177.373 163.334 177.373 163.5C177.373 163.666 177.239 163.8 177.073 163.8C176.907 163.8 176.773 163.666 176.773 163.5ZM176.373 163.5C176.373 163.887 176.686 164.2 177.073 164.2C177.46 164.2 177.773 163.887 177.773 163.5C177.773 163.113 177.46 162.8 177.073 162.8C176.686 162.8 176.373 163.113 176.373 163.5Z" fill="#155C6D"/>
<path d="M176.573 191.5C176.573 191.776 176.797 192 177.073 192C177.349 192 177.573 191.776 177.573 191.5C177.573 191.224 177.349 191 177.073 191C176.797 191 176.573 191.224 176.573 191.5Z" fill="#70C5AD"/>
<path d="M176.773 191.5C176.773 191.334 176.907 191.2 177.073 191.2C177.239 191.2 177.373 191.334 177.373 191.5C177.373 191.666 177.239 191.8 177.073 191.8C176.907 191.8 176.773 191.666 176.773 191.5ZM176.373 191.5C176.373 191.887 176.686 192.2 177.073 192.2C177.46 192.2 177.773 191.887 177.773 191.5C177.773 191.113 177.46 190.8 177.073 190.8C176.686 190.8 176.373 191.113 176.373 191.5Z" fill="#155C6D"/>
<path d="M168.573 177.5C168.573 177.776 168.797 178 169.073 178C169.349 178 169.573 177.776 169.573 177.5C169.573 177.224 169.349 177 169.073 177C168.797 177 168.573 177.224 168.573 177.5Z" fill="#70C5AD"/>
<path d="M168.773 177.5C168.773 177.334 168.907 177.2 169.073 177.2C169.239 177.2 169.373 177.334 169.373 177.5C169.373 177.666 169.239 177.8 169.073 177.8C168.907 177.8 168.773 177.666 168.773 177.5ZM168.373 177.5C168.373 177.887 168.686 178.2 169.073 178.2C169.46 178.2 169.773 177.887 169.773 177.5C169.773 177.113 169.46 176.8 169.073 176.8C168.686 176.8 168.373 177.113 168.373 177.5Z" fill="#155C6D"/>
<path d="M174.573 203.5C174.573 203.776 174.797 204 175.073 204C175.349 204 175.573 203.776 175.573 203.5C175.573 203.224 175.349 203 175.073 203C174.797 203 174.573 203.224 174.573 203.5Z" fill="#70C5AD"/>
<path d="M174.773 203.5C174.773 203.334 174.907 203.2 175.073 203.2C175.239 203.2 175.373 203.334 175.373 203.5C175.373 203.666 175.239 203.8 175.073 203.8C174.907 203.8 174.773 203.666 174.773 203.5ZM174.373 203.5C174.373 203.887 174.686 204.2 175.073 204.2C175.46 204.2 175.773 203.887 175.773 203.5C175.773 203.113 175.46 202.8 175.073 202.8C174.686 202.8 174.373 203.113 174.373 203.5Z" fill="#155C6D"/>
<path d="M176.573 181.5C176.573 181.776 176.797 182 177.073 182C177.349 182 177.573 181.776 177.573 181.5C177.573 181.224 177.349 181 177.073 181C176.797 181 176.573 181.224 176.573 181.5Z" fill="#70C5AD"/>
<path d="M176.773 181.5C176.773 181.334 176.907 181.2 177.073 181.2C177.239 181.2 177.373 181.334 177.373 181.5C177.373 181.666 177.239 181.8 177.073 181.8C176.907 181.8 176.773 181.666 176.773 181.5ZM176.373 181.5C176.373 181.887 176.686 182.2 177.073 182.2C177.46 182.2 177.773 181.887 177.773 181.5C177.773 181.113 177.46 180.8 177.073 180.8C176.686 180.8 176.373 181.113 176.373 181.5Z" fill="#155C6D"/>
<path d="M181.573 173.5C181.573 173.776 181.797 174 182.073 174C182.349 174 182.573 173.776 182.573 173.5C182.573 173.224 182.349 173 182.073 173C181.797 173 181.573 173.224 181.573 173.5Z" fill="#70C5AD"/>
<path d="M181.773 173.5C181.773 173.334 181.907 173.2 182.073 173.2C182.239 173.2 182.373 173.334 182.373 173.5C182.373 173.666 182.239 173.8 182.073 173.8C181.907 173.8 181.773 173.666 181.773 173.5ZM181.373 173.5C181.373 173.887 181.686 174.2 182.073 174.2C182.46 174.2 182.773 173.887 182.773 173.5C182.773 173.113 182.46 172.8 182.073 172.8C181.686 172.8 181.373 173.113 181.373 173.5Z" fill="#155C6D"/>
<path d="M169.573 186.5C169.573 186.776 169.797 187 170.073 187C170.349 187 170.573 186.776 170.573 186.5C170.573 186.224 170.349 186 170.073 186C169.797 186 169.573 186.224 169.573 186.5Z" fill="#70C5AD"/>
<path d="M169.773 186.5C169.773 186.334 169.907 186.2 170.073 186.2C170.239 186.2 170.373 186.334 170.373 186.5C170.373 186.666 170.239 186.8 170.073 186.8C169.907 186.8 169.773 186.666 169.773 186.5ZM169.373 186.5C169.373 186.887 169.686 187.2 170.073 187.2C170.46 187.2 170.773 186.887 170.773 186.5C170.773 186.113 170.46 185.8 170.073 185.8C169.686 185.8 169.373 186.113 169.373 186.5Z" fill="#155C6D"/>
<path d="M173.573 173.5C173.573 174.328 174.245 175 175.073 175C175.901 175 176.573 174.328 176.573 173.5C176.573 172.672 175.901 172 175.073 172C174.245 172 173.573 172.672 173.573 173.5Z" fill="#70C5AD"/>
<path d="M173.773 173.5C173.773 172.782 174.355 172.2 175.073 172.2C175.791 172.2 176.373 172.782 176.373 173.5C176.373 174.218 175.791 174.8 175.073 174.8C174.355 174.8 173.773 174.218 173.773 173.5ZM173.373 173.5C173.373 174.439 174.134 175.2 175.073 175.2C176.012 175.2 176.773 174.439 176.773 173.5C176.773 172.561 176.012 171.8 175.073 171.8C174.134 171.8 173.373 172.561 173.373 173.5Z" fill="#155C6D"/>
<path d="M176.573 197.5C176.573 198.328 177.245 199 178.073 199C178.901 199 179.573 198.328 179.573 197.5C179.573 196.672 178.901 196 178.073 196C177.245 196 176.573 196.672 176.573 197.5Z" fill="#70C5AD"/>
<path d="M176.773 197.5C176.773 196.782 177.355 196.2 178.073 196.2C178.791 196.2 179.373 196.782 179.373 197.5C179.373 198.218 178.791 198.8 178.073 198.8C177.355 198.8 176.773 198.218 176.773 197.5ZM176.373 197.5C176.373 198.439 177.134 199.2 178.073 199.2C179.012 199.2 179.773 198.439 179.773 197.5C179.773 196.561 179.012 195.8 178.073 195.8C177.134 195.8 176.373 196.561 176.373 197.5Z" fill="#155C6D"/>
<path d="M143.573 133.5C143.573 133.224 143.349 133 143.073 133C142.797 133 142.573 133.224 142.573 133.5C142.573 133.776 142.797 134 143.073 134C143.349 134 143.573 133.776 143.573 133.5Z" fill="#70C5AD"/>
<path d="M143.373 133.5C143.373 133.666 143.239 133.8 143.073 133.8C142.907 133.8 142.773 133.666 142.773 133.5C142.773 133.334 142.907 133.2 143.073 133.2C143.239 133.2 143.373 133.334 143.373 133.5ZM143.773 133.5C143.773 133.113 143.46 132.8 143.073 132.8C142.687 132.8 142.373 133.113 142.373 133.5C142.373 133.887 142.687 134.2 143.073 134.2C143.46 134.2 143.773 133.887 143.773 133.5Z" fill="#155C6D"/>
<path d="M143.573 105.5C143.573 105.224 143.349 105 143.073 105C142.797 105 142.573 105.224 142.573 105.5C142.573 105.776 142.797 106 143.073 106C143.349 106 143.573 105.776 143.573 105.5Z" fill="#70C5AD"/>
<path d="M143.373 105.5C143.373 105.666 143.239 105.8 143.073 105.8C142.907 105.8 142.773 105.666 142.773 105.5C142.773 105.334 142.907 105.2 143.073 105.2C143.239 105.2 143.373 105.334 143.373 105.5ZM143.773 105.5C143.773 105.113 143.46 104.8 143.073 104.8C142.687 104.8 142.373 105.113 142.373 105.5C142.373 105.887 142.687 106.2 143.073 106.2C143.46 106.2 143.773 105.887 143.773 105.5Z" fill="#155C6D"/>
<path d="M151.573 119.5C151.573 119.224 151.349 119 151.073 119C150.797 119 150.573 119.224 150.573 119.5C150.573 119.776 150.797 120 151.073 120C151.349 120 151.573 119.776 151.573 119.5Z" fill="#70C5AD"/>
<path d="M151.373 119.5C151.373 119.666 151.239 119.8 151.073 119.8C150.907 119.8 150.773 119.666 150.773 119.5C150.773 119.334 150.907 119.2 151.073 119.2C151.239 119.2 151.373 119.334 151.373 119.5ZM151.773 119.5C151.773 119.113 151.46 118.8 151.073 118.8C150.687 118.8 150.373 119.113 150.373 119.5C150.373 119.887 150.687 120.2 151.073 120.2C151.46 120.2 151.773 119.887 151.773 119.5Z" fill="#155C6D"/>
<path d="M145.573 93.5C145.573 93.2239 145.349 93 145.073 93C144.797 93 144.573 93.2239 144.573 93.5C144.573 93.7761 144.797 94 145.073 94C145.349 94 145.573 93.7761 145.573 93.5Z" fill="#70C5AD"/>
<path d="M145.373 93.5C145.373 93.6657 145.239 93.7998 145.073 93.7998C144.907 93.7998 144.773 93.6657 144.773 93.5C144.773 93.3343 144.907 93.2002 145.073 93.2002C145.239 93.2002 145.373 93.3343 145.373 93.5ZM145.773 93.5C145.773 93.1134 145.46 92.7998 145.073 92.7998C144.687 92.7998 144.373 93.1134 144.373 93.5C144.373 93.8866 144.687 94.2002 145.073 94.2002C145.46 94.2002 145.773 93.8866 145.773 93.5Z" fill="#155C6D"/>
<path d="M143.573 115.5C143.573 115.224 143.349 115 143.073 115C142.797 115 142.573 115.224 142.573 115.5C142.573 115.776 142.797 116 143.073 116C143.349 116 143.573 115.776 143.573 115.5Z" fill="#70C5AD"/>
<path d="M143.373 115.5C143.373 115.666 143.239 115.8 143.073 115.8C142.907 115.8 142.773 115.666 142.773 115.5C142.773 115.334 142.907 115.2 143.073 115.2C143.239 115.2 143.373 115.334 143.373 115.5ZM143.773 115.5C143.773 115.113 143.46 114.8 143.073 114.8C142.687 114.8 142.373 115.113 142.373 115.5C142.373 115.887 142.687 116.2 143.073 116.2C143.46 116.2 143.773 115.887 143.773 115.5Z" fill="#155C6D"/>
<path d="M137.573 116.5C137.573 116.224 137.349 116 137.073 116C136.797 116 136.573 116.224 136.573 116.5C136.573 116.776 136.797 117 137.073 117C137.349 117 137.573 116.776 137.573 116.5Z" fill="#70C5AD"/>
<path d="M137.373 116.5C137.373 116.666 137.239 116.8 137.073 116.8C136.907 116.8 136.773 116.666 136.773 116.5C136.773 116.334 136.907 116.2 137.073 116.2C137.239 116.2 137.373 116.334 137.373 116.5ZM137.773 116.5C137.773 116.113 137.46 115.8 137.073 115.8C136.687 115.8 136.373 116.113 136.373 116.5C136.373 116.887 136.687 117.2 137.073 117.2C137.46 117.2 137.773 116.887 137.773 116.5Z" fill="#155C6D"/>
<path d="M150.573 110.5C150.573 110.224 150.349 110 150.073 110C149.797 110 149.573 110.224 149.573 110.5C149.573 110.776 149.797 111 150.073 111C150.349 111 150.573 110.776 150.573 110.5Z" fill="#70C5AD"/>
<path d="M150.373 110.5C150.373 110.666 150.239 110.8 150.073 110.8C149.907 110.8 149.773 110.666 149.773 110.5C149.773 110.334 149.907 110.2 150.073 110.2C150.239 110.2 150.373 110.334 150.373 110.5ZM150.773 110.5C150.773 110.113 150.46 109.8 150.073 109.8C149.687 109.8 149.373 110.113 149.373 110.5C149.373 110.887 149.687 111.2 150.073 111.2C150.46 111.2 150.773 110.887 150.773 110.5Z" fill="#155C6D"/>
<path d="M143.573 123.5C143.573 122.672 142.902 122 142.073 122C141.245 122 140.573 122.672 140.573 123.5C140.573 124.328 141.245 125 142.073 125C142.902 125 143.573 124.328 143.573 123.5Z" fill="#70C5AD"/>
<path d="M143.373 123.5C143.373 124.218 142.791 124.8 142.073 124.8C141.355 124.8 140.773 124.218 140.773 123.5C140.773 122.782 141.355 122.2 142.073 122.2C142.791 122.2 143.373 122.782 143.373 123.5ZM143.773 123.5C143.773 122.561 143.012 121.8 142.073 121.8C141.134 121.8 140.373 122.561 140.373 123.5C140.373 124.439 141.134 125.2 142.073 125.2C143.012 125.2 143.773 124.439 143.773 123.5Z" fill="#155C6D"/>
<path d="M149.573 103.5C149.573 102.672 148.902 102 148.073 102C147.245 102 146.573 102.672 146.573 103.5C146.573 104.328 147.245 105 148.073 105C148.902 105 149.573 104.328 149.573 103.5Z" fill="#70C5AD"/>
<path d="M149.373 103.5C149.373 104.218 148.791 104.8 148.073 104.8C147.355 104.8 146.773 104.218 146.773 103.5C146.773 102.782 147.355 102.2 148.073 102.2C148.791 102.2 149.373 102.782 149.373 103.5ZM149.773 103.5C149.773 102.561 149.012 101.8 148.073 101.8C147.134 101.8 146.373 102.561 146.373 103.5C146.373 104.439 147.134 105.2 148.073 105.2C149.012 105.2 149.773 104.439 149.773 103.5Z" fill="#155C6D"/>
<path d="M132.127 227.27C149.8 223.676 178.365 223.658 195.927 227.23C213.489 230.802 213.4 236.611 195.726 240.206C178.053 243.801 149.49 243.819 131.927 240.247C114.364 236.675 114.453 230.865 132.126 227.271L132.127 227.27Z" fill="#155C6D"/>
<path d="M195.134 226.868C177.768 223.511 150.395 223.529 132.925 226.908L132.087 227.074L132.068 227.078L132.064 227.079C127.65 227.978 124.318 229.018 122.08 230.133C120.96 230.691 120.103 231.274 119.522 231.875C118.94 232.477 118.623 233.11 118.613 233.764C118.603 234.418 118.901 235.053 119.466 235.655C120.03 236.257 120.869 236.839 121.973 237.397C124.181 238.511 127.489 239.548 131.887 240.442C149.201 243.964 177.176 244.002 194.928 240.568L195.766 240.402C200.192 239.502 203.531 238.461 205.773 237.344C206.894 236.785 207.75 236.203 208.331 235.602C208.913 235 209.23 234.367 209.241 233.713C209.251 233.058 208.952 232.423 208.387 231.82C207.823 231.219 206.984 230.637 205.88 230.08C203.672 228.965 200.364 227.929 195.966 227.034L195.134 226.868ZM132.167 227.467C149.538 223.934 177.463 223.86 195.057 227.261L195.887 227.426C200.27 228.317 203.537 229.346 205.7 230.438C206.781 230.983 207.575 231.539 208.095 232.094C208.613 232.647 208.848 233.187 208.84 233.706C208.832 234.226 208.58 234.768 208.043 235.323C207.505 235.88 206.693 236.438 205.594 236.985C203.397 238.08 200.097 239.113 195.686 240.01L194.851 240.176C177.151 243.599 149.229 243.562 131.967 240.051C127.584 239.159 124.316 238.131 122.154 237.039C121.072 236.493 120.278 235.936 119.758 235.382C119.24 234.829 119.005 234.29 119.013 233.771C119.021 233.25 119.273 232.709 119.81 232.153C120.348 231.597 121.16 231.039 122.258 230.491C124.455 229.397 127.755 228.364 132.165 227.467L132.126 227.271L132.127 227.273L132.165 227.467L132.167 227.466V227.467Z" fill="#155C6D"/>
<path d="M192.885 95.0684L269.767 146.774L212.135 222.225L212.133 222.223C208.744 227.144 202.097 229.878 192.97 229.252C174.642 227.996 153.279 213.685 145.255 197.288C141.227 189.055 141.33 181.865 144.746 176.903L144.741 176.899L192.885 95.0684Z" fill="#70C5AD"/>
<path d="M192.996 94.9023L192.886 95.0689L192.713 94.9672L144.569 176.798L144.506 176.905C141.218 181.785 141.065 188.714 144.708 196.604L145.075 197.376C149.106 205.613 156.481 213.316 165.137 219.115C173.793 224.913 183.749 228.821 192.956 229.452C202.074 230.077 208.779 227.365 212.239 222.417L212.294 222.346L270.054 146.727L192.996 94.9023ZM212.101 221.94L212.091 221.932L211.968 222.109L212.125 222.216L212.134 222.223L211.968 222.109C208.634 226.952 202.069 229.675 192.984 229.053C183.863 228.428 173.973 224.552 165.36 218.782C156.747 213.012 149.428 205.36 145.435 197.201L145.071 196.435C141.436 188.564 141.655 181.746 144.911 177.016L145.016 176.864L145.001 176.851L192.95 95.353L269.48 146.821L212.101 221.94ZM192.82 94.7842L192.713 94.9672L192.886 95.0689L192.996 94.9023L192.82 94.7842Z" fill="#155C6D"/>
<path d="M247.652 143.526L269.767 146.774L212.135 222.225L212.133 222.223C208.744 227.144 202.097 229.878 192.97 229.252C191.804 229.172 190.626 229.037 189.44 228.854L247.651 143.525L247.652 143.526Z" fill="#155C6D"/>
<path d="M247.734 143.335L247.608 143.233L189.096 229.003L189.409 229.051C190.303 229.189 191.193 229.3 192.076 229.381L192.956 229.452C202.074 230.077 208.779 227.365 212.239 222.417L212.294 222.346L270.132 146.626L247.734 143.335ZM212.101 221.94L212.091 221.932L211.968 222.109L212.125 222.216L212.134 222.223L211.968 222.109C208.634 226.952 202.069 229.675 192.984 229.052L192.111 228.983C191.341 228.912 190.566 228.816 189.786 228.701L247.746 143.742L269.403 146.922L212.101 221.94Z" fill="#155C6D"/>
<path d="M142.285 184.01L195.381 96.7494L202.285 101.392L144.036 194.501C142.56 190.691 142.008 187.153 142.285 184.01Z" fill="#C8DAE8"/>
<path d="M144.036 194.502L143.85 194.574L143.994 194.946L144.206 194.607L144.036 194.502ZM202.396 101.226L195.492 96.5841L195.381 96.7494L195.38 96.7495L195.492 96.5841L195.318 96.4665L195.209 96.6455L142.114 183.906L142.089 183.946L142.086 183.992C141.806 187.172 142.364 190.741 143.85 194.574L144.037 194.501L144.206 194.607L202.454 101.498L202.557 101.335L202.396 101.226ZM144.083 194.052C142.729 190.427 142.226 187.066 142.481 184.073L195.443 97.0324L202.013 101.451L144.083 194.052Z" fill="#155C6D"/>
<path d="M153.3 208.765C150.678 205.919 148.417 202.893 146.61 199.771L206.009 103.888L218.282 112.142L153.3 208.765Z" fill="#C8DAE8"/>
<path d="M218.394 111.977L206.121 103.721L205.949 103.606L205.839 103.783L206.009 103.887L206.01 103.888L205.839 103.783L146.44 199.665L146.378 199.767L146.437 199.87L146.783 200.458C148.537 203.387 150.687 206.223 153.153 208.9L153.325 209.087L153.466 208.877L218.448 112.253L218.56 112.088L218.394 111.977ZM153.277 208.442C150.766 205.692 148.594 202.778 146.844 199.774L206.07 104.169L218.005 112.196L153.277 208.442Z" fill="#155C6D"/>
<path d="M201.028 107.092C210.182 125.797 234.553 142.122 255.459 143.557C276.368 144.991 285.895 130.988 276.74 112.283C267.585 93.5768 243.215 77.2524 222.307 75.8172C201.4 74.3841 191.872 88.3861 201.028 107.092Z" fill="#C8DAE8"/>
<path d="M276.478 111.317C271.796 102.256 263.605 93.8141 254.042 87.4077C244.171 80.7945 232.818 76.3385 222.321 75.6179L221.345 75.5617C211.349 75.0981 204.012 78.2312 200.229 83.791C196.446 89.3512 196.26 97.2752 200.431 106.302L200.849 107.18C205.445 116.572 213.854 125.355 223.726 131.968C233.289 138.374 244.242 142.757 254.46 143.679L255.446 143.757C265.941 144.477 273.633 141.324 277.538 135.585C281.444 129.845 281.516 121.586 276.92 112.196L276.478 111.317ZM253.819 87.7398C263.341 94.1186 271.479 102.514 276.122 111.5L276.56 112.372C281.119 121.686 281.004 129.781 277.208 135.36C273.411 140.94 265.886 144.072 255.473 143.357L254.494 143.28C244.359 142.365 233.469 138.013 223.948 131.635C214.119 125.05 205.765 116.318 201.208 107.004L200.794 106.135C196.659 97.1862 196.882 89.4204 200.56 84.0154C204.238 78.6099 211.415 75.5018 221.326 75.9616L222.294 76.0174C232.704 76.732 243.991 81.1555 253.819 87.7398Z" fill="#155C6D"/>
<path d="M196.558 81.2156L199.992 83.5254C203.961 82.1109 208.739 81.49 214.26 81.8685C237.281 83.4468 264.114 101.423 274.194 122.018C276.654 127.042 277.869 131.75 277.996 135.986L281.213 138.15L274.84 147.627L274.833 147.622C270.576 153.806 262.226 157.239 250.763 156.453C227.742 154.875 200.909 136.898 190.829 116.301C185.767 105.961 185.899 96.9304 190.189 90.6967L190.183 90.6919L196.556 81.2159L196.558 81.2156Z" fill="#70C5AD"/>
<path d="M273.887 120.963C268.735 110.992 259.719 101.698 249.191 94.6456C238.324 87.3656 225.827 82.4613 214.274 81.6692L213.243 81.6091C208.177 81.3717 203.752 81.9912 200.022 83.3037L196.67 81.0497L196.609 81.0091L196.534 81.017L196.442 81.0262L196.39 81.1047L190.017 90.5802L189.914 90.7322L189.922 90.7383C185.813 96.8473 185.618 105.526 190.188 115.419L190.649 116.389C195.708 126.727 204.964 136.395 215.832 143.675C226.699 150.955 239.196 155.86 250.749 156.653C262.145 157.434 270.525 154.061 274.872 147.909L274.884 147.92L275.005 147.739L281.379 138.262L281.491 138.096L281.325 137.984L278.192 135.876C278.047 131.634 276.823 126.934 274.373 121.93L273.887 120.963ZM248.969 94.9783C259.455 102.003 268.417 111.249 273.531 121.146L274.014 122.106C276.464 127.109 277.67 131.79 277.796 135.992L277.799 136.094L277.885 136.151L280.936 138.204L274.796 147.335L274.79 147.331L274.668 147.508L274.262 148.072C269.946 153.823 261.842 157.012 250.776 156.253C239.309 155.467 226.879 150.594 216.055 143.343C205.23 136.091 196.029 126.472 191.008 116.213L190.551 115.252C185.979 105.355 186.251 96.7707 190.354 90.8096L190.459 90.6573L190.452 90.6512L196.611 81.4921L199.964 83.7474L200.059 83.7137C203.752 82.3978 208.157 81.7717 213.224 82.009L214.247 82.0679C225.714 82.8542 238.144 87.727 248.969 94.9783Z" fill="#155C6D"/>
<path d="M259.815 124.383L263.104 126.707L242.447 155.94C245.033 156.488 247.601 156.857 250.122 157.03C261.586 157.816 269.936 154.383 274.192 148.199L274.199 148.204L280.573 138.728L277.356 136.562C277.229 132.327 276.014 127.619 273.554 122.596C271.947 119.312 269.914 116.095 267.538 113L259.815 124.383Z" fill="#155C6D"/>
<path d="M259.815 124.383L263.104 126.707L242.447 155.939C245.033 156.488 247.601 156.857 250.122 157.03C261.586 157.816 269.936 154.383 274.192 148.199L274.199 148.204L280.573 138.728L277.356 136.563L276.798 137.393L279.185 138.999L273.848 146.937L273.369 147.632C269.384 153.422 261.447 156.804 250.191 156.032L249.262 155.96C247.578 155.813 245.873 155.575 244.154 155.257L264.498 126.468L261.194 124.132L267.58 114.72C269.563 117.422 271.271 120.207 272.655 123.035L273.554 122.596C271.946 119.312 269.914 116.095 267.538 113L259.815 124.383ZM272.655 123.035C275.065 127.956 276.234 132.525 276.356 136.593L276.372 137.105L276.798 137.393L277.356 136.563L277.319 135.763C277.072 131.737 275.86 127.305 273.554 122.596L272.655 123.035Z" fill="#155C6D"/>
<path d="M197.205 106.827C207.285 127.424 234.118 145.4 257.139 146.977C280.159 148.555 290.65 133.139 280.57 112.542C270.489 91.9465 243.656 73.97 220.635 72.3917C197.615 70.8133 187.125 86.2306 197.205 106.827Z" fill="#70C5AD"/>
<path d="M280.263 111.487C275.11 101.515 266.094 92.2221 255.567 85.1695C244.699 77.8892 232.202 72.9846 220.649 72.1925C209.097 71.4005 200.637 74.8705 196.343 81.1817C192.048 87.4935 191.966 96.579 197.025 106.916C202.084 117.253 211.341 126.921 222.208 134.201C232.736 141.253 244.792 146.076 256.04 147.09L257.125 147.177C268.677 147.969 277.138 144.499 281.433 138.188C285.727 131.876 285.808 122.791 280.75 112.455L280.263 111.487ZM255.344 85.5016C265.83 92.5267 274.793 101.773 279.908 111.671L280.391 112.63C285.412 122.891 285.288 131.812 281.102 137.963C276.916 144.115 268.621 147.564 257.153 146.778L256.075 146.692C244.91 145.685 232.916 140.893 222.43 133.869C211.606 126.618 202.406 116.999 197.385 106.74C192.364 96.4796 192.488 87.5583 196.673 81.4069C200.859 75.2548 209.153 71.8049 220.622 72.5912C232.089 73.3774 244.519 78.2502 255.344 85.5016Z" fill="#155C6D"/>
<path d="M222.093 73.0782C244.458 74.6124 270.525 92.0747 280.317 112.084C290.109 132.092 279.918 147.069 257.555 145.536C235.192 144.002 209.125 126.54 199.332 106.53C189.539 86.5226 199.73 71.545 222.093 73.0782Z" fill="#C8DAE8"/>
<path d="M280.497 111.996C275.582 101.952 266.589 92.5595 256.031 85.4867C245.473 78.4139 233.332 73.6487 222.107 72.8786L221.064 72.8185C210.374 72.3225 202.532 75.6723 198.489 81.6139C194.446 87.556 194.245 96.0269 198.705 105.68L199.152 106.618C204.067 116.662 213.06 126.055 223.618 133.127C234.176 140.2 246.317 144.965 257.542 145.735C268.765 146.504 276.986 143.133 281.16 137C285.333 130.866 285.411 122.038 280.497 111.996ZM255.808 85.8188C266.323 92.863 275.261 102.206 280.138 112.172C285.015 122.138 284.893 130.802 280.829 136.775C276.764 142.749 268.709 146.099 257.569 145.335C246.431 144.572 234.356 139.839 223.841 132.795C213.326 125.751 204.388 116.408 199.511 106.442L199.068 105.511C194.645 95.9377 194.882 87.6258 198.819 81.839C202.757 76.0516 210.44 72.7262 221.044 73.2184L222.08 73.2774C233.219 74.0415 245.293 78.7749 255.808 85.8188Z" fill="#155C6D"/>
<path d="M225.11 77.7072C243.853 78.9917 265.702 93.6288 273.909 110.397C282.117 127.168 273.576 139.721 254.831 138.435C236.088 137.151 214.239 122.514 206.033 105.744C197.825 88.9751 206.367 76.4215 225.111 77.706L225.11 77.7072Z" fill="#155C6D"/>
<path d="M273.693 109.521C269.494 101.395 262.147 93.8245 253.572 88.0796C244.838 82.2291 234.812 78.262 225.504 77.5367L225.508 77.5321L225.124 77.5064L224.249 77.4561C215.283 77.0404 208.697 79.8499 205.3 84.8421C201.793 89.9962 201.731 97.4088 205.854 105.831L205.852 105.831C209.975 114.256 217.517 122.132 226.369 128.063C234.945 133.808 244.768 137.738 253.933 138.564L254.818 138.634C264.231 139.28 271.137 136.453 274.643 131.3C278.15 126.146 278.212 118.733 274.089 110.309L273.693 109.521ZM253.349 88.4117C261.883 94.1288 269.176 101.653 273.337 109.704L273.73 110.486C277.815 118.833 277.709 126.081 274.312 131.075C270.913 136.069 264.175 138.876 254.844 138.236L253.968 138.166C244.885 137.347 235.126 133.448 226.592 127.73C217.782 121.829 210.297 114.001 206.213 105.655L205.841 104.876C202.137 96.8587 202.339 89.905 205.63 85.0673C209.009 80.1022 215.688 77.2999 224.933 77.8955L225.096 77.9066C234.425 78.5459 244.539 82.5103 253.349 88.4117Z" fill="#155C6D"/>
<path d="M225.22 81.4766C242.559 82.6653 262.769 96.2039 270.362 111.718C277.953 127.231 270.053 138.843 252.713 137.653C235.374 136.465 215.164 122.926 207.573 107.413C199.98 91.901 207.882 80.2889 225.22 81.4766Z" fill="#C8DAE8"/>
<path d="M270.175 110.901C266.289 103.38 259.491 96.3746 251.557 91.0592C243.367 85.5724 233.946 81.8739 225.234 81.2766L224.424 81.2304C216.127 80.8458 210.028 83.4458 206.881 88.0698C203.735 92.6944 203.585 99.2797 207.047 106.773L207.393 107.5C211.208 115.296 218.186 122.584 226.376 128.071C234.31 133.386 243.399 137.022 251.88 137.787L252.7 137.853C261.411 138.45 267.804 135.834 271.052 131.062C274.3 126.288 274.356 119.424 270.541 111.63L270.175 110.901ZM251.334 91.3913C259.227 96.6789 265.971 103.637 269.818 111.084L270.182 111.805C273.959 119.524 273.86 126.223 270.721 130.836C267.582 135.45 261.355 138.046 252.727 137.454L251.916 137.389C243.517 136.631 234.492 133.026 226.599 127.739C218.452 122.281 211.529 115.042 207.752 107.324L207.41 106.604C203.984 99.1901 204.171 92.7634 207.212 88.2942C210.254 83.8246 216.193 81.2491 224.404 81.6297L225.206 81.6761C233.833 82.2675 243.187 85.9333 251.334 91.3913Z" fill="#155C6D"/>
<path d="M204.725 220.122C205.746 220.808 207.133 220.568 207.861 219.565L246.157 166.822C246.903 165.796 246.674 164.364 245.648 163.618C244.619 162.858 243.188 163.101 242.444 164.128L204.148 216.871C203.403 217.897 203.632 219.33 204.657 220.075C204.679 220.092 204.703 220.108 204.727 220.123L204.725 220.122Z" fill="#70C5AD"/>
<path d="M245.767 163.457C244.716 162.681 243.283 162.867 242.442 163.812L242.282 164.01L203.986 216.754C203.176 217.87 203.425 219.427 204.54 220.237L204.54 220.236C204.569 220.258 204.598 220.278 204.618 220.292L204.619 220.291C205.728 221.033 207.232 220.771 208.022 219.683L246.319 166.94L246.459 166.726C247.095 165.634 246.811 164.218 245.767 163.458L245.767 163.457ZM245.697 163.915C246.436 164.576 246.611 165.669 246.113 166.525L245.996 166.705L207.699 219.447C207.034 220.362 205.768 220.582 204.837 219.956L204.811 219.993L204.834 219.955C204.81 219.939 204.794 219.929 204.783 219.92L204.775 219.913L204.658 220.075L204.652 220.083L204.775 219.913C203.838 219.233 203.63 217.925 204.31 216.989L242.606 164.245L242.741 164.078C243.448 163.283 244.65 163.13 245.529 163.78L245.697 163.915Z" fill="#155C6D"/>
<path d="M186.916 217.797C187.963 218.501 189.381 218.229 190.092 217.185L228.287 161.115C228.999 160.069 228.729 158.64 227.682 157.927L227.671 157.918C226.625 157.215 225.205 157.488 224.494 158.531L186.299 214.601C185.587 215.647 185.857 217.076 186.904 217.789L186.916 217.797Z" fill="#155C6D"/>
<path d="M227.807 157.772L227.808 157.771L227.79 157.757L227.783 157.752C226.717 157.036 225.293 157.251 224.482 158.215L224.328 158.419L186.134 214.489C185.407 215.555 185.62 216.987 186.588 217.801L186.791 217.955L186.796 217.957L186.896 217.802L186.906 217.785L186.796 217.957L186.808 217.965L186.808 217.964C187.946 218.726 189.485 218.431 190.257 217.297L228.452 161.227L228.585 161.009C229.184 159.903 228.864 158.502 227.807 157.772ZM227.74 158.221C228.499 158.859 228.704 159.949 228.232 160.819L228.121 161.002L189.927 217.072C189.319 217.965 188.142 218.239 187.21 217.74L187.027 217.631L187.023 217.628L186.926 217.781L186.917 217.794L187.023 217.628L187.012 217.621L187.012 217.621C186.06 216.969 185.815 215.666 186.464 214.713L224.659 158.643L224.788 158.474C225.467 157.665 226.659 157.483 227.554 158.081L227.562 158.087L227.569 158.091L227.74 158.221Z" fill="#155C6D"/>
<path d="M170.498 210.958C171.544 211.661 172.964 211.39 173.675 210.346L212.509 153.335C213.222 152.289 212.952 150.86 211.905 150.146L211.894 150.138C210.846 149.434 209.427 149.707 208.716 150.751L169.882 207.763C169.169 208.809 169.439 210.237 170.486 210.951L170.498 210.958Z" fill="#155C6D"/>
<path d="M212.029 149.991L212.03 149.99L212.012 149.976L212.005 149.971C210.938 149.254 209.515 149.471 208.705 150.435L208.551 150.639L169.716 207.65C168.99 208.716 169.203 210.148 170.17 210.962L170.374 211.116L170.379 211.119L170.478 210.963L170.489 210.947L170.379 211.119L170.39 211.127L170.391 211.126C171.527 211.887 173.068 211.592 173.84 210.458L212.675 153.447L212.807 153.229C213.406 152.123 213.086 150.721 212.029 149.991ZM211.792 150.312C212.688 150.922 212.961 152.107 212.455 153.039L212.344 153.221L173.509 210.233C172.861 211.186 171.565 211.434 170.61 210.792L170.606 210.789L170.509 210.942L170.499 210.955L170.605 210.79L170.594 210.782L170.595 210.783C169.642 210.13 169.397 208.828 170.047 207.874L208.882 150.863L209.01 150.693C209.689 149.885 210.88 149.702 211.776 150.3L211.785 150.307L211.792 150.312L211.904 150.146L211.908 150.141L211.792 150.312Z" fill="#155C6D"/>
<path d="M170.498 210.958C171.544 211.661 172.964 211.39 173.675 210.346L212.509 153.335C213.222 152.289 212.952 150.86 211.905 150.146L211.894 150.138C210.846 149.434 209.427 149.707 208.716 150.751L169.882 207.763C169.169 208.809 169.439 210.237 170.486 210.951L170.498 210.958Z" fill="#155C6D"/>
<path d="M212.029 149.991L212.03 149.99L212.012 149.976L212.005 149.971C210.938 149.254 209.515 149.471 208.705 150.435L208.551 150.639L169.716 207.65C168.99 208.716 169.203 210.148 170.17 210.962L170.374 211.116L170.379 211.119L170.478 210.963L170.489 210.947L170.379 211.119L170.39 211.127L170.391 211.126C171.527 211.887 173.068 211.592 173.84 210.458L212.675 153.447L212.807 153.229C213.406 152.123 213.086 150.721 212.029 149.991ZM211.792 150.312C212.688 150.922 212.961 152.107 212.455 153.039L212.344 153.221L173.509 210.233C172.861 211.186 171.565 211.434 170.61 210.792L170.606 210.789L170.509 210.942L170.499 210.955L170.605 210.79L170.594 210.782L170.595 210.783C169.642 210.13 169.397 208.828 170.047 207.874L208.882 150.863L209.01 150.693C209.689 149.885 210.88 149.702 211.776 150.3L211.785 150.307L211.792 150.312L211.904 150.146L211.908 150.141L211.792 150.312Z" fill="#155C6D"/>
<path d="M150.629 181.717C150.656 181.735 150.683 181.752 150.71 181.77C151.79 182.431 153.201 182.095 153.865 181.015L187.085 126.877C187.748 125.797 187.45 124.393 186.329 123.722C185.249 123.061 183.838 123.397 183.174 124.477L149.954 178.616C149.309 179.669 149.614 181.034 150.629 181.717Z" fill="#155C6D"/>
<path d="M186.432 123.55L186.432 123.551C185.258 122.834 183.725 123.199 183.004 124.373L149.785 178.511C149.083 179.656 149.415 181.139 150.517 181.882L150.519 181.883L150.559 181.911L150.6 181.937L150.606 181.941C151.779 182.66 153.314 182.294 154.035 181.12L187.255 126.982L187.377 126.758C187.93 125.623 187.576 124.235 186.432 123.55ZM186.329 123.722L186.224 123.892L186.226 123.894L186.409 124.016C187.22 124.621 187.454 125.689 187.018 126.583L186.914 126.772L153.694 180.91C153.089 181.894 151.803 182.202 150.818 181.601C150.805 181.593 150.793 181.585 150.78 181.577C150.767 181.569 150.755 181.56 150.742 181.551C149.815 180.927 149.536 179.682 150.125 178.721L183.345 124.582C183.951 123.596 185.239 123.289 186.224 123.892L186.372 123.65L186.329 123.722Z" fill="#155C6D"/>
<path d="M157.456 199.828L157.466 199.837C158.523 200.537 159.946 200.249 160.646 199.194L198.173 142.673C198.871 141.621 198.588 140.204 197.541 139.501L197.531 139.493C196.474 138.793 195.051 139.081 194.351 140.135L156.824 196.656C156.127 197.708 156.409 199.125 157.456 199.828Z" fill="#155C6D"/>
<path d="M197.666 139.346L197.667 139.345L197.65 139.331L197.641 139.326L197.421 139.196C196.377 138.647 195.084 138.908 194.336 139.819L194.185 140.024L156.658 196.545C155.902 197.684 156.205 199.216 157.33 199.983L157.33 199.984L157.348 199.999L157.356 200.004L157.466 199.837L157.47 199.832L157.356 200.004C158.504 200.764 160.052 200.451 160.813 199.305L198.339 142.784L198.469 142.565C199.054 141.455 198.722 140.065 197.666 139.346ZM197.43 139.667C198.325 140.268 198.608 141.443 198.115 142.379L198.006 142.563L160.479 199.084C159.842 200.044 158.547 200.308 157.583 199.674L157.574 199.667L157.567 199.662C156.612 199.021 156.354 197.727 156.991 196.767L194.518 140.246L194.645 140.073C195.316 139.255 196.511 139.062 197.415 139.656L197.422 139.662L197.43 139.667Z" fill="#155C6D"/>
<path d="M152.647 181.313C152.673 181.33 152.698 181.348 152.726 181.364C153.761 181.997 155.114 181.675 155.75 180.639L187.594 128.743C188.23 127.708 187.944 126.361 186.871 125.719C185.836 125.086 184.482 125.408 183.847 126.444L152.003 178.34C151.383 179.349 151.674 180.659 152.647 181.313Z" fill="#70C5AD"/>
<path d="M186.974 125.547L186.974 125.549C185.915 124.902 184.553 125.17 183.815 126.137L183.677 126.34L151.832 178.235C151.156 179.336 151.473 180.765 152.536 181.479L152.538 181.481L152.647 181.313L152.688 181.251L152.538 181.481C152.552 181.49 152.592 181.517 152.624 181.536L152.624 181.535C153.753 182.224 155.227 181.872 155.92 180.743L187.765 128.848L187.882 128.632C188.413 127.54 188.074 126.206 186.974 125.547ZM186.768 125.891C187.681 126.437 187.968 127.543 187.522 128.458L187.423 128.638L155.579 180.534C155.038 181.417 153.922 181.73 153.009 181.291L152.83 181.193L152.828 181.193L152.757 181.145L152.758 181.146C151.874 180.551 151.61 179.361 152.173 178.444L184.018 126.548L184.134 126.38C184.707 125.628 185.735 125.382 186.588 125.791L186.767 125.89L186.768 125.891L186.856 125.743L186.872 125.719L186.768 125.891Z" fill="#155C6D"/>
<path d="M204.575 218.281C204.549 218.264 204.524 218.246 204.498 218.227C203.521 217.507 203.324 216.11 204.06 215.106L240.933 164.824C241.669 163.82 243.036 163.558 244.035 164.311C245.013 165.031 245.21 166.429 244.474 167.433L207.601 217.714C206.884 218.692 205.547 218.934 204.575 218.281Z" fill="#155C6D"/>
<path d="M244.156 164.152C243.06 163.325 241.568 163.621 240.772 164.707L203.899 214.987C203.101 216.077 203.31 217.599 204.38 218.387L204.381 218.388L204.498 218.227L204.539 218.172L204.381 218.388C204.406 218.406 204.434 218.427 204.464 218.447L204.463 218.447C205.528 219.162 206.984 218.894 207.762 217.832L244.635 167.551L244.773 167.341C245.403 166.275 245.156 164.893 244.156 164.154L244.156 164.152ZM243.917 164.473C244.746 165.084 244.96 166.239 244.429 167.138L244.313 167.315L207.44 217.596L207.439 217.596L207.6 217.714L207.601 217.714L207.439 217.596C206.784 218.49 205.567 218.705 204.687 218.114L204.684 218.113L204.575 218.28L204.556 218.31L204.684 218.113C204.663 218.1 204.644 218.084 204.618 218.065C203.733 217.413 203.548 216.142 204.221 215.224L241.095 164.942L241.227 164.778C241.924 163.995 243.068 163.833 243.915 164.471L244.073 164.261L243.917 164.473ZM243.915 164.471L243.917 164.473L244.036 164.312L243.915 164.471Z" fill="#155C6D"/>
<path d="M159.006 199.479L159.015 199.487C160.034 200.162 161.408 199.885 162.084 198.867L198.286 144.343C198.96 143.328 198.687 141.962 197.677 141.283L197.667 141.275C196.648 140.6 195.275 140.877 194.598 141.895L158.396 196.419C157.723 197.434 157.996 198.8 159.006 199.479Z" fill="#70C5AD"/>
<path d="M197.802 141.128L197.803 141.127L197.786 141.114L197.778 141.108C196.736 140.418 195.355 140.64 194.579 141.586L194.432 141.785L158.23 196.308C157.498 197.41 157.791 198.89 158.881 199.634L158.88 199.635L158.897 199.649L158.905 199.654L159.015 199.487L159.019 199.482L158.905 199.654C160.016 200.39 161.513 200.088 162.251 198.977L198.453 144.453L198.579 144.242C199.145 143.169 198.823 141.825 197.802 141.128ZM197.73 141.572C198.46 142.178 198.667 143.216 198.225 144.056L198.12 144.232L161.918 198.756C161.303 199.68 160.058 199.933 159.132 199.323L159.125 199.318L159.117 199.313C158.198 198.695 157.95 197.452 158.563 196.529L194.764 142.006L194.887 141.84C195.491 141.104 196.536 140.893 197.379 141.336L197.556 141.441L197.565 141.448L197.73 141.572Z" fill="#155C6D"/>
<path d="M188.511 217.479L188.502 217.472C187.491 216.783 187.23 215.407 187.917 214.398L224.763 160.307C225.449 159.302 226.818 159.037 227.828 159.717L227.837 159.725C228.848 160.413 229.109 161.789 228.422 162.799L191.576 216.889C190.89 217.894 189.521 218.159 188.511 217.479Z" fill="#70C5AD"/>
<path d="M227.962 159.57L227.963 159.569L227.947 159.556L227.939 159.551C226.838 158.811 225.345 159.099 224.598 160.194L224.764 160.308L224.758 160.303L224.598 160.194L224.597 160.195L187.752 214.285C187.006 215.382 187.285 216.874 188.377 217.627L188.376 217.628L188.392 217.641L188.4 217.645C189.501 218.386 190.994 218.098 191.741 217.002L228.588 162.911L228.716 162.701C229.295 161.63 228.985 160.276 227.962 159.57ZM227.725 159.89C228.587 160.477 228.85 161.614 228.364 162.511L228.256 162.686L191.41 216.776C190.788 217.689 189.546 217.93 188.628 217.317L188.621 217.311L188.614 217.307C187.694 216.681 187.457 215.429 188.082 214.511L224.929 160.42C225.514 159.563 226.645 159.297 227.541 159.777L227.716 159.884L227.725 159.89L227.837 159.725L227.841 159.72L227.725 159.89Z" fill="#155C6D"/>
<path d="M172.231 210.304C173.22 210.968 174.574 210.695 175.259 209.689L212.717 154.684C213.405 153.674 213.161 152.308 212.171 151.633L212.161 151.626C211.172 150.96 209.818 151.235 209.133 152.241L171.674 207.246C170.987 208.256 171.231 209.622 172.221 210.297L172.231 210.304Z" fill="#70C5AD"/>
<path d="M212.296 151.478L212.297 151.477L212.281 151.464L212.273 151.46C211.257 150.776 209.895 151.001 209.116 151.933L208.968 152.129L171.509 207.134C170.762 208.231 171.024 209.723 172.108 210.463L172.221 210.296L172.215 210.306L172.108 210.463L172.115 210.468L172.126 210.474L172.127 210.473C173.209 211.195 174.681 210.893 175.424 209.801L212.883 154.797L213.011 154.586C213.591 153.52 213.302 152.174 212.296 151.478ZM172.231 210.304L172.239 210.293L172.268 210.244L172.231 210.304ZM212.059 151.798C212.898 152.371 213.148 153.498 212.66 154.396L212.553 154.572L175.093 209.577L174.97 209.741C174.317 210.522 173.181 210.701 172.342 210.138L172.337 210.133L172.337 210.134L172.333 210.132C171.438 209.521 171.212 208.28 171.84 207.359L209.298 152.354L209.423 152.19C210.074 151.41 211.205 151.228 212.044 151.788L212.052 151.794L212.059 151.798L212.171 151.633L212.175 151.628L212.059 151.798Z" fill="#155C6D"/>
<path d="M232.716 118.621C237.287 121.695 242.245 123.555 246.701 123.854C250.876 124.138 254.012 123.025 255.565 120.714C257.102 118.429 256.958 115.15 255.156 111.454C253.673 108.437 251.246 105.466 248.143 102.895C247.671 102.5 247.198 102.105 246.683 101.718C246.179 101.341 245.667 100.977 245.132 100.618C244.572 100.241 243.987 99.8668 243.413 99.5388C242.9 99.2335 242.379 98.9401 241.862 98.6702C238.275 96.7617 234.559 95.6217 231.148 95.3844C226.995 95.0947 223.838 96.2115 222.284 98.5242C220.746 100.809 220.891 104.088 222.701 107.771C224.624 111.723 228.187 115.575 232.716 118.621Z" fill="#70C5AD"/>
<path d="M222.118 98.4125C220.523 100.783 220.698 104.145 222.523 107.859L222.521 107.859C224.341 111.6 227.611 115.241 231.763 118.204L232.605 118.787C237.198 121.876 242.19 123.752 246.688 124.053L246.701 123.854L246.715 123.655L246.714 123.654C242.301 123.358 237.376 121.514 232.828 118.455L231.994 117.878C227.885 114.945 224.666 111.352 222.881 107.684L222.88 107.683L222.718 107.342C221.08 103.831 221.016 100.767 222.449 98.6361L222.118 98.4125ZM248.271 102.742C247.8 102.348 247.323 101.948 246.803 101.558L246.035 100.999C245.776 100.815 245.513 100.634 245.244 100.454L245.244 100.452C244.682 100.073 244.092 99.6967 243.512 99.3655L243.513 99.3661C242.999 99.0596 242.474 98.7645 241.954 98.493L241.955 98.4936C238.348 96.5746 234.605 95.4248 231.162 95.1852L230.772 95.1622C226.775 94.9647 223.679 96.0892 222.118 98.4125L222.284 98.5239L222.449 98.6361L222.45 98.6354C223.9 96.4783 226.824 95.3677 230.751 95.5617L231.134 95.5847C234.512 95.8197 238.201 96.9493 241.767 98.8469L241.769 98.8481L242.541 99.2657C242.799 99.41 243.056 99.5589 243.31 99.7107L243.443 99.4868L243.313 99.7131C243.74 99.9566 244.173 100.226 244.598 100.504L245.02 100.784L245.803 101.325L246.563 101.879C247.073 102.262 247.542 102.653 248.015 103.048L248.015 103.049L248.128 102.912L248.164 102.87L248.015 103.049C251.101 105.605 253.509 108.554 254.978 111.542L254.976 111.542C256.708 115.094 256.87 118.203 255.533 120.393L255.399 120.603C253.904 122.828 250.857 123.936 246.715 123.655L246.688 124.053C250.895 124.339 254.12 123.223 255.731 120.825L255.875 120.6C257.313 118.245 257.095 114.976 255.336 111.367L255.336 111.365L255.044 110.796C253.529 107.947 251.196 105.167 248.27 102.742L248.271 102.742ZM243.31 99.7107L243.313 99.7131L243.413 99.5386L243.31 99.7107Z" fill="#155C6D"/>
<path d="M226.117 83.6221C231.279 83.9694 236.695 85.4967 241.933 87.8933C243.409 88.5557 244.867 89.3038 246.324 90.1085C248.747 91.4669 251.104 93.0131 253.34 94.7101C254.604 95.6572 255.838 96.6805 257.016 97.7259C261.707 101.889 265.568 106.68 268.036 111.696C275.08 126.097 267.746 136.885 251.646 135.778C235.546 134.673 216.772 122.105 209.73 107.703C202.673 93.2946 210.019 82.5152 226.12 83.6218L226.117 83.6221ZM239.205 129.373C243.348 131.034 247.48 132.046 251.36 132.308C258.133 132.769 263.263 130.939 265.824 127.133C268.359 123.365 268.131 117.991 265.207 112.007C262.115 105.697 256.446 99.5551 249.217 94.6935C241.934 89.7963 234.01 86.8338 226.893 86.3352C220.12 85.874 214.994 87.7251 212.442 91.5199C209.908 95.2879 210.123 100.654 213.06 106.645C214.991 110.584 217.932 114.463 221.621 118.011C221.99 118.355 222.373 118.71 222.755 119.065C223.36 119.608 223.987 120.146 224.637 120.68C224.775 120.792 224.926 120.914 225.077 121.036C225.398 121.31 225.735 121.557 226.075 121.804C227.023 122.557 228.02 123.267 229.037 123.951C231.763 125.783 234.588 127.354 237.423 128.62C238.02 128.886 238.603 129.142 239.205 129.373ZM224.377 89.7858C224.436 89.7861 224.502 89.7725 224.547 89.7634C226.102 89.4701 227.827 89.3882 229.72 89.5168C241.798 90.3426 255.872 99.7697 261.156 110.581C261.949 112.202 262.496 113.754 262.808 115.223C265.344 124.38 259.632 130.766 248.657 130.003C236.204 129.157 221.689 119.433 216.236 108.295C211.484 98.5975 215.154 91.0336 224.376 89.7849L224.377 89.7858ZM235.557 122.708C235.677 122.789 235.793 122.848 235.895 122.897C236.425 123.175 236.952 123.433 237.5 123.684C241.262 125.42 245.063 126.461 248.591 126.699C253.673 127.051 257.515 125.695 259.411 122.876C261.29 120.082 261.108 116.08 258.893 111.583C256.545 106.763 252.205 102.079 246.688 98.3673C241.129 94.6293 235.068 92.3574 229.635 91.9836C224.568 91.6414 220.726 92.9977 218.83 95.8166C216.96 98.5958 217.133 102.612 219.333 107.1C220.936 110.371 223.456 113.58 226.624 116.487C227.015 116.828 227.42 117.178 227.834 117.515C228.074 117.734 228.311 117.933 228.57 118.126C229.509 118.893 230.511 119.626 231.54 120.316C232.581 121.018 233.637 121.669 234.716 122.259C234.992 122.425 235.276 122.578 235.557 122.708Z" fill="#155C6D"/>
<path d="M232.716 118.621C237.287 121.695 242.245 123.555 246.701 123.854C250.876 124.138 254.012 123.025 255.565 120.714C257.102 118.429 256.958 115.15 255.156 111.454C253.673 108.437 251.246 105.466 248.143 102.895C247.671 102.5 247.198 102.105 246.683 101.718C246.179 101.341 245.667 100.977 245.132 100.618C244.572 100.241 243.987 99.8668 243.413 99.5388C242.9 99.2335 242.379 98.9401 241.862 98.6702C238.275 96.7617 234.559 95.6217 231.148 95.3844C226.995 95.0947 223.838 96.2115 222.284 98.5242C220.746 100.809 220.891 104.088 222.701 107.771C224.624 111.723 228.187 115.575 232.716 118.621Z" fill="#70C5AD"/>
<path d="M222.118 98.4125C220.523 100.783 220.698 104.145 222.523 107.859L222.521 107.859C224.341 111.6 227.611 115.241 231.763 118.204L232.605 118.787C237.198 121.876 242.19 123.752 246.688 124.053L246.701 123.854L246.715 123.655L246.714 123.654C242.301 123.358 237.376 121.514 232.828 118.455L231.994 117.878C227.885 114.945 224.666 111.352 222.881 107.684L222.88 107.683L222.718 107.342C221.08 103.831 221.016 100.767 222.449 98.6361L222.118 98.4125ZM248.271 102.742C247.8 102.348 247.323 101.948 246.803 101.558L246.035 100.999C245.776 100.815 245.513 100.634 245.244 100.454L245.244 100.452C244.682 100.073 244.092 99.6967 243.512 99.3655L243.513 99.3661C242.999 99.0596 242.474 98.7645 241.954 98.493L241.955 98.4936C238.348 96.5746 234.605 95.4248 231.162 95.1852L230.772 95.1622C226.775 94.9647 223.679 96.0892 222.118 98.4125L222.284 98.5239L222.449 98.6361L222.45 98.6354C223.9 96.4783 226.824 95.3677 230.751 95.5617L231.134 95.5847C234.512 95.8197 238.201 96.9493 241.767 98.8469L241.769 98.8481L242.541 99.2657C242.799 99.41 243.056 99.5589 243.31 99.7107L243.443 99.4868L243.313 99.7131C243.74 99.9566 244.173 100.226 244.598 100.504L245.02 100.784L245.803 101.325L246.563 101.879C247.073 102.262 247.542 102.653 248.015 103.048L248.015 103.049L248.128 102.912L248.164 102.87L248.015 103.049C251.101 105.605 253.509 108.554 254.978 111.542L254.976 111.542C256.708 115.094 256.87 118.203 255.533 120.393L255.399 120.603C253.904 122.828 250.857 123.936 246.715 123.655L246.688 124.053C250.895 124.339 254.12 123.223 255.731 120.825L255.875 120.6C257.313 118.245 257.095 114.976 255.336 111.367L255.336 111.365L255.044 110.796C253.529 107.947 251.196 105.167 248.27 102.742L248.271 102.742ZM243.31 99.7107L243.313 99.7131L243.413 99.5386L243.31 99.7107Z" fill="#155C6D"/>
<path d="M226.974 83.906C231.845 84.2506 236.984 85.6704 241.933 87.8924C243.409 88.5548 244.867 89.3029 246.324 90.1076C248.747 91.466 251.104 93.0122 253.34 94.7092C254.604 95.6563 255.838 96.6796 257.016 97.725C261.427 101.7 265.079 106.253 267.413 111.004C274.23 124.903 267.136 135.308 251.612 134.24C236.079 133.185 217.969 121.044 211.165 107.153C204.37 93.2497 211.442 82.8507 226.975 83.9048L226.974 83.906ZM222.754 119.063C223.359 119.607 223.986 120.144 224.636 120.678C224.774 120.79 224.925 120.912 225.076 121.034C225.397 121.308 225.734 121.555 226.074 121.802C227.022 122.555 228.019 123.266 229.036 123.949C231.762 125.782 234.587 127.352 237.422 128.618C238.019 128.884 238.603 129.141 239.205 129.372C243.348 131.033 247.48 132.045 251.36 132.307C258.133 132.768 263.263 130.938 265.825 127.132C268.359 123.364 268.131 117.99 265.207 112.006C262.115 105.696 256.446 99.5542 249.217 94.6926C241.934 89.7954 234.01 86.8329 226.893 86.3343C220.12 85.8731 214.994 87.7242 212.442 91.519C209.908 95.287 210.123 100.653 213.06 106.645C214.991 110.583 217.932 114.462 221.621 118.01C221.99 118.354 222.372 118.708 222.754 119.063ZM224.377 89.7849C224.436 89.7852 224.502 89.7716 224.547 89.7625C226.102 89.4692 227.827 89.3873 229.72 89.5159C241.798 90.3417 255.872 99.7688 261.156 110.58C261.949 112.201 262.496 113.753 262.808 115.222C265.344 124.379 259.632 130.765 248.657 130.002C236.204 129.156 221.689 119.432 216.236 108.294C211.484 98.5966 215.154 91.0327 224.376 89.784L224.377 89.7849ZM235.557 122.707C235.677 122.788 235.793 122.847 235.895 122.896C236.425 123.174 236.952 123.432 237.5 123.684C241.262 125.419 245.063 126.461 248.591 126.698C253.673 127.05 257.515 125.694 259.411 122.875C261.29 120.081 261.108 116.079 258.893 111.582C256.545 106.762 252.205 102.079 246.688 98.3664C241.129 94.6284 235.068 92.3565 229.635 91.9827C224.568 91.6405 220.726 92.9968 218.83 95.8157C216.96 98.5949 217.133 102.611 219.333 107.099C220.936 110.37 223.456 113.579 226.624 116.486C227.015 116.827 227.42 117.177 227.835 117.514C228.074 117.733 228.311 117.932 228.57 118.125C229.509 118.892 230.511 119.625 231.54 120.316C232.581 121.017 233.637 121.669 234.716 122.258C234.993 122.424 235.276 122.577 235.557 122.707Z" fill="#C8DAE8"/>
<path d="M232.716 118.621C237.287 121.695 242.245 123.555 246.701 123.854C250.876 124.138 254.012 123.025 255.565 120.714C257.102 118.429 256.958 115.15 255.156 111.454C253.673 108.437 251.246 105.466 248.143 102.895C247.671 102.5 247.198 102.105 246.683 101.718C246.179 101.341 245.667 100.977 245.132 100.618C244.572 100.241 243.987 99.8668 243.413 99.5388C242.9 99.2335 242.379 98.9401 241.862 98.6702C238.275 96.7617 234.559 95.6217 231.148 95.3844C226.995 95.0947 223.838 96.2115 222.284 98.5242C220.746 100.809 220.891 104.088 222.701 107.771C224.624 111.723 228.187 115.575 232.716 118.621Z" fill="#70C5AD"/>
<path d="M222.118 98.4125C220.523 100.783 220.698 104.145 222.523 107.859L222.521 107.859C224.341 111.6 227.611 115.241 231.763 118.204L232.605 118.787C237.198 121.876 242.19 123.752 246.688 124.053L246.701 123.854L246.715 123.655L246.714 123.654C242.301 123.358 237.376 121.514 232.828 118.455L231.994 117.878C227.885 114.945 224.666 111.352 222.881 107.684L222.88 107.683L222.718 107.342C221.08 103.831 221.016 100.767 222.449 98.6361L222.118 98.4125ZM248.271 102.742C247.8 102.348 247.323 101.948 246.803 101.558L246.035 100.999C245.776 100.815 245.513 100.634 245.244 100.454L245.244 100.452C244.682 100.073 244.092 99.6967 243.512 99.3655L243.513 99.3661C242.999 99.0596 242.474 98.7645 241.954 98.493L241.955 98.4936C238.348 96.5746 234.605 95.4248 231.162 95.1852L230.772 95.1622C226.775 94.9647 223.679 96.0892 222.118 98.4125L222.284 98.5239L222.449 98.6361L222.45 98.6354C223.9 96.4783 226.824 95.3677 230.751 95.5617L231.134 95.5847C234.512 95.8197 238.201 96.9493 241.767 98.8469L241.769 98.8481L242.541 99.2657C242.799 99.41 243.056 99.5589 243.31 99.7107L243.443 99.4868L243.313 99.7131C243.74 99.9566 244.173 100.226 244.598 100.504L245.02 100.784L245.803 101.325L246.563 101.879C247.073 102.262 247.542 102.653 248.015 103.048L248.015 103.049L248.128 102.912L248.164 102.87L248.015 103.049C251.101 105.605 253.509 108.554 254.978 111.542L254.976 111.542C256.708 115.094 256.87 118.203 255.533 120.393L255.399 120.603C253.904 122.828 250.857 123.936 246.715 123.655L246.688 124.053C250.895 124.339 254.12 123.223 255.731 120.825L255.875 120.6C257.313 118.245 257.095 114.976 255.336 111.367L255.336 111.365L255.044 110.796C253.529 107.947 251.196 105.167 248.27 102.742L248.271 102.742ZM243.31 99.7107L243.313 99.7131L243.413 99.5386L243.31 99.7107Z" fill="#155C6D"/>
<path d="M226.842 85.7191C234.098 86.2137 242.16 89.2289 249.563 94.2068C256.898 99.1408 262.648 105.395 265.792 111.798C268.774 117.897 269.006 123.351 266.427 127.187C263.829 131.049 258.601 132.908 251.735 132.442C247.725 132.172 243.46 131.127 239.206 129.372C243.348 131.033 247.48 132.045 251.36 132.307C258.133 132.768 263.264 130.939 265.825 127.132C268.359 123.364 268.131 117.99 265.208 112.006C262.115 105.696 256.446 99.5544 249.218 94.6928C241.935 89.7956 234.01 86.8331 226.894 86.3345C220.12 85.8733 214.995 87.7244 212.443 91.5192C209.909 95.2872 210.124 100.653 213.06 106.645C214.991 110.583 217.933 114.463 221.622 118.01C217.805 114.395 214.762 110.408 212.785 106.362C209.818 100.272 209.585 94.8172 212.165 90.9823C214.762 87.1217 219.976 85.2536 226.844 85.7188L226.842 85.7191ZM224.377 89.7863C224.436 89.7866 224.502 89.773 224.547 89.7639C226.102 89.4706 227.827 89.3887 229.72 89.5173C241.798 90.3431 255.871 99.7702 261.156 110.581C261.949 112.202 262.496 113.754 262.807 115.224C265.343 124.381 259.631 130.766 248.656 130.003C236.203 129.158 221.689 119.434 216.236 108.296C211.484 98.598 215.153 91.0341 224.376 89.7854L224.377 89.7863ZM235.556 122.708C235.677 122.79 235.793 122.848 235.895 122.897C236.425 123.175 236.952 123.433 237.499 123.685C241.262 125.42 245.063 126.462 248.591 126.7C253.672 127.051 257.514 125.695 259.41 122.876C261.289 120.083 261.108 116.081 258.893 111.583C256.545 106.764 252.205 102.08 246.688 98.3678C241.128 94.6297 235.068 92.3579 229.635 91.9841C224.568 91.6419 220.726 92.9982 218.83 95.8171C216.96 98.5963 217.132 102.613 219.333 107.101C220.936 110.372 223.456 113.58 226.624 116.487C227.015 116.828 227.42 117.179 227.834 117.515C228.074 117.734 228.31 117.933 228.569 118.126C229.508 118.894 230.511 119.626 231.539 120.317C232.581 121.018 233.637 121.67 234.716 122.26C234.992 122.426 235.276 122.578 235.556 122.708Z" fill="#155C6D"/>
<path d="M232.716 118.621C237.287 121.695 242.245 123.555 246.701 123.854C250.876 124.138 254.012 123.025 255.565 120.714C257.102 118.429 256.958 115.15 255.156 111.454C253.673 108.437 251.246 105.466 248.143 102.895C247.671 102.5 247.198 102.105 246.683 101.718C246.179 101.341 245.667 100.977 245.132 100.618C244.572 100.241 243.987 99.8668 243.413 99.5388C242.9 99.2335 242.379 98.9401 241.862 98.6702C238.275 96.7617 234.559 95.6217 231.148 95.3844C226.995 95.0947 223.838 96.2115 222.284 98.5242C220.746 100.809 220.891 104.088 222.701 107.771C224.624 111.723 228.187 115.575 232.716 118.621Z" fill="#70C5AD"/>
<path d="M222.118 98.4125C220.523 100.783 220.698 104.145 222.523 107.859L222.521 107.859C224.341 111.6 227.611 115.241 231.763 118.204L232.605 118.787C237.198 121.876 242.19 123.752 246.688 124.053L246.701 123.854L246.715 123.655L246.714 123.654C242.301 123.358 237.376 121.514 232.828 118.455L231.994 117.878C227.885 114.945 224.666 111.352 222.881 107.684L222.88 107.683L222.718 107.342C221.08 103.831 221.016 100.767 222.449 98.6361L222.118 98.4125ZM248.271 102.742C247.8 102.348 247.323 101.948 246.803 101.558L246.035 100.999C245.776 100.815 245.513 100.634 245.244 100.454L245.244 100.452C244.682 100.073 244.092 99.6967 243.512 99.3655L243.513 99.3661C242.999 99.0596 242.474 98.7645 241.954 98.493L241.955 98.4936C238.348 96.5746 234.605 95.4248 231.162 95.1852L230.772 95.1622C226.775 94.9647 223.679 96.0892 222.118 98.4125L222.284 98.5239L222.449 98.6361L222.45 98.6354C223.9 96.4783 226.824 95.3677 230.751 95.5617L231.134 95.5847C234.512 95.8197 238.201 96.9493 241.767 98.8469L241.769 98.8481L242.541 99.2657C242.799 99.41 243.056 99.5589 243.31 99.7107L243.443 99.4868L243.313 99.7131C243.74 99.9566 244.173 100.226 244.598 100.504L245.02 100.784L245.803 101.325L246.563 101.879C247.073 102.262 247.542 102.653 248.015 103.048L248.015 103.049L248.128 102.912L248.164 102.87L248.015 103.049C251.101 105.605 253.509 108.554 254.978 111.542L254.976 111.542C256.708 115.094 256.87 118.203 255.533 120.393L255.399 120.603C253.904 122.828 250.857 123.936 246.715 123.655L246.688 124.053C250.895 124.339 254.12 123.223 255.731 120.825L255.875 120.6C257.313 118.245 257.095 114.976 255.336 111.367L255.336 111.365L255.044 110.796C253.529 107.947 251.196 105.167 248.27 102.742L248.271 102.742ZM243.31 99.7107L243.313 99.7131L243.413 99.5386L243.31 99.7107Z" fill="#155C6D"/>
<path d="M224.377 89.7864C224.436 89.7867 224.502 89.7731 224.546 89.764C226.102 89.4707 227.826 89.3888 229.719 89.5174C241.797 90.3432 255.871 99.7703 261.156 110.582C261.948 112.202 262.496 113.754 262.807 115.224C265.343 124.381 259.631 130.766 248.656 130.003C236.203 129.158 221.689 119.434 216.236 108.296C211.483 98.5981 215.153 91.0342 224.376 89.7855L224.377 89.7864ZM235.556 122.708C235.677 122.79 235.793 122.848 235.895 122.897C236.425 123.176 236.951 123.434 237.499 123.685C241.261 125.42 245.062 126.462 248.591 126.7C253.672 127.051 257.514 125.695 259.41 122.876C261.289 120.083 261.107 116.081 258.893 111.583C256.545 106.764 252.205 102.08 246.687 98.3679C241.128 94.6298 235.067 92.358 229.635 91.9842C224.567 91.642 220.725 92.9983 218.829 95.8172C216.96 98.5964 217.132 102.613 219.332 107.101C220.936 110.372 223.455 113.581 226.624 116.487C227.014 116.828 227.419 117.179 227.834 117.515C228.074 117.734 228.31 117.933 228.569 118.126C229.508 118.894 230.51 119.626 231.539 120.317C232.581 121.018 233.637 121.67 234.715 122.26C234.992 122.426 235.276 122.578 235.556 122.708Z" fill="#70C5AD"/>
<path d="M222.702 107.772C224.625 111.723 228.187 115.575 232.716 118.621C237.287 121.695 242.245 123.555 246.701 123.854C250.876 124.138 254.012 123.025 255.565 120.714C257.102 118.429 256.958 115.15 255.156 111.454C253.673 108.437 251.246 105.466 248.143 102.895C247.671 102.5 247.198 102.105 246.683 101.718C246.179 101.341 245.667 100.977 245.132 100.618C244.572 100.241 243.987 99.8668 243.413 99.5388C242.9 99.2335 242.379 98.9401 241.862 98.6702C238.275 96.7617 234.559 95.6217 231.148 95.3844C226.995 95.0947 223.838 96.2115 222.284 98.5242C220.746 100.809 220.891 104.088 222.701 107.771L222.702 107.772Z" fill="#70C5AD"/>
<path d="M222.118 98.4125C220.523 100.783 220.697 104.146 222.522 107.86L222.702 107.771L222.701 107.772L222.522 107.86L222.542 107.899L222.542 107.9C224.366 111.626 227.626 115.252 231.763 118.204L232.605 118.787C237.198 121.876 242.19 123.752 246.688 124.053L246.701 123.854L246.715 123.655L246.714 123.654C242.301 123.358 237.376 121.514 232.828 118.455L231.994 117.878C227.885 114.945 224.667 111.353 222.883 107.685L222.862 107.645L222.862 107.644C221.085 104.007 220.975 100.828 222.449 98.6361L222.118 98.4125ZM248.271 102.742C247.8 102.348 247.323 101.948 246.803 101.558L246.035 100.999C245.776 100.815 245.513 100.634 245.244 100.454L245.244 100.452C244.682 100.073 244.092 99.6967 243.512 99.3655L243.513 99.3661C242.999 99.0596 242.474 98.7645 241.954 98.493L241.955 98.4936C238.348 96.5746 234.605 95.4248 231.162 95.1852L230.772 95.1622C226.775 94.9647 223.679 96.0892 222.118 98.4125L222.284 98.5239L222.449 98.6361L222.45 98.6354C223.9 96.4783 226.824 95.3677 230.751 95.5617L231.134 95.5847C234.512 95.8197 238.201 96.9493 241.767 98.8469L241.769 98.8481L242.541 99.2657C242.799 99.41 243.056 99.5589 243.31 99.7107L243.443 99.4868L243.313 99.7131C243.74 99.9566 244.173 100.226 244.598 100.504L245.02 100.784L245.803 101.325L246.563 101.879C247.073 102.262 247.542 102.653 248.015 103.048L248.015 103.049L248.128 102.912L248.164 102.87L248.015 103.049C251.101 105.605 253.509 108.554 254.978 111.542L254.976 111.542C256.708 115.094 256.87 118.203 255.533 120.393L255.399 120.603C253.904 122.828 250.857 123.936 246.715 123.655L246.688 124.053C250.895 124.339 254.12 123.223 255.731 120.825L255.875 120.6C257.313 118.245 257.095 114.976 255.336 111.367L255.336 111.365L255.044 110.796C253.529 107.947 251.196 105.167 248.27 102.742L248.271 102.742ZM243.31 99.7107L243.313 99.7131L243.413 99.5386L243.31 99.7107Z" fill="#155C6D"/>
<path d="M224.378 89.7846C224.436 89.7849 224.502 89.7713 224.547 89.7622C225.892 89.5805 227.348 89.5502 228.911 89.6508C241.368 90.5189 255.884 100.242 261.337 111.38C261.979 112.706 262.475 113.989 262.809 115.223C265.345 124.38 259.633 130.766 248.658 130.002C236.205 129.157 221.691 119.433 216.238 108.295C211.485 98.5972 215.155 91.0334 224.378 89.7846ZM235.557 122.706C235.677 122.788 235.794 122.846 235.896 122.895C236.426 123.174 236.952 123.432 237.5 123.683C241.262 125.419 245.063 126.46 248.591 126.698C253.673 127.05 257.515 125.693 259.411 122.874C261.29 120.081 261.108 116.079 258.894 111.581C256.546 106.762 252.206 102.078 246.688 98.3661C241.129 94.628 235.068 92.3561 229.635 91.9824C224.568 91.6402 220.726 92.9965 218.83 95.8154C216.961 98.5946 217.133 102.611 219.333 107.099C220.936 110.37 223.456 113.579 226.624 116.486C227.015 116.827 227.42 117.177 227.835 117.514C228.074 117.733 228.311 117.931 228.57 118.125C229.509 118.892 230.511 119.625 231.54 120.315C232.581 121.016 233.637 121.668 234.716 122.258C234.993 122.424 235.276 122.576 235.557 122.706Z" fill="#155C6D"/>
<path d="M222.702 107.772C224.625 111.723 228.187 115.575 232.716 118.621C237.287 121.695 242.245 123.555 246.701 123.854C250.876 124.138 254.012 123.025 255.565 120.714C257.102 118.429 256.958 115.15 255.156 111.454C253.673 108.437 251.246 105.466 248.143 102.895C247.671 102.5 247.198 102.105 246.683 101.718C246.179 101.341 245.667 100.977 245.132 100.618C244.572 100.241 243.987 99.8668 243.413 99.5388C242.9 99.2335 242.379 98.9401 241.862 98.6702C238.275 96.7617 234.559 95.6217 231.148 95.3844C226.995 95.0947 223.838 96.2115 222.284 98.5242C220.746 100.809 220.891 104.088 222.701 107.771L222.702 107.772Z" fill="#70C5AD"/>
<path d="M222.118 98.4125C220.523 100.783 220.697 104.146 222.522 107.86L222.702 107.771L222.701 107.772L222.522 107.86L222.542 107.899L222.542 107.9C224.366 111.626 227.626 115.252 231.763 118.204L232.605 118.787C237.198 121.876 242.19 123.752 246.688 124.053L246.701 123.854L246.715 123.655L246.714 123.654C242.301 123.358 237.376 121.514 232.828 118.455L231.994 117.878C227.885 114.945 224.667 111.353 222.883 107.685L222.862 107.645L222.862 107.644C221.085 104.007 220.975 100.828 222.449 98.6361L222.118 98.4125ZM248.271 102.742C247.8 102.348 247.323 101.948 246.803 101.558L246.035 100.999C245.776 100.815 245.513 100.634 245.244 100.454L245.244 100.452C244.682 100.073 244.092 99.6967 243.512 99.3655L243.513 99.3661C242.999 99.0596 242.474 98.7645 241.954 98.493L241.955 98.4936C238.348 96.5746 234.605 95.4248 231.162 95.1852L230.772 95.1622C226.775 94.9647 223.679 96.0892 222.118 98.4125L222.284 98.5239L222.449 98.6361L222.45 98.6354C223.9 96.4783 226.824 95.3677 230.751 95.5617L231.134 95.5847C234.512 95.8197 238.201 96.9493 241.767 98.8469L241.769 98.8481L242.541 99.2657C242.799 99.41 243.056 99.5589 243.31 99.7107L243.443 99.4868L243.313 99.7131C243.74 99.9566 244.173 100.226 244.598 100.504L245.02 100.784L245.803 101.325L246.563 101.879C247.073 102.262 247.542 102.653 248.015 103.048L248.015 103.049L248.128 102.912L248.164 102.87L248.015 103.049C251.101 105.605 253.509 108.554 254.978 111.542L254.976 111.542C256.708 115.094 256.87 118.203 255.533 120.393L255.399 120.603C253.904 122.828 250.857 123.936 246.715 123.655L246.688 124.053C250.895 124.339 254.12 123.223 255.731 120.825L255.875 120.6C257.313 118.245 257.095 114.976 255.336 111.367L255.336 111.365L255.044 110.796C253.529 107.947 251.196 105.167 248.27 102.742L248.271 102.742ZM243.31 99.7107L243.313 99.7131L243.413 99.5386L243.31 99.7107Z" fill="#155C6D"/>
<path d="M224.379 89.7819C224.437 89.7821 224.503 89.7685 224.548 89.7594C226.103 89.4662 227.828 89.3843 229.721 89.5128C241.799 90.3387 255.873 99.7658 261.157 110.577C261.95 112.198 262.498 113.75 262.809 115.219C264.668 123.59 259.148 129.349 248.869 128.646C236.791 127.82 222.703 118.384 217.419 107.573C212.989 98.52 216.14 91.3824 224.377 89.7809L224.379 89.7819ZM227.836 117.509C228.075 117.728 228.312 117.926 228.571 118.12C229.51 118.887 230.512 119.62 231.541 120.31C232.582 121.012 233.638 121.663 234.717 122.253C234.993 122.419 235.278 122.572 235.559 122.702C235.68 122.784 235.796 122.842 235.898 122.891C236.428 123.17 236.954 123.428 237.502 123.679C241.264 125.415 245.065 126.456 248.593 126.694C253.675 127.046 257.517 125.689 259.413 122.87C261.292 120.077 261.11 116.075 258.896 111.578C256.548 106.758 252.208 102.074 246.69 98.3622C241.131 94.6241 235.07 92.3522 229.637 91.9784C224.57 91.6363 220.728 92.9926 218.832 95.8115C216.963 98.5906 217.135 102.607 219.335 107.095C220.938 110.366 223.458 113.575 226.626 116.482C227.017 116.823 227.421 117.172 227.836 117.509Z" fill="#C8DAE8"/>
<path d="M222.702 107.772C224.625 111.723 228.187 115.575 232.716 118.621C237.287 121.695 242.245 123.555 246.701 123.854C250.876 124.138 254.012 123.025 255.565 120.714C257.102 118.429 256.958 115.15 255.156 111.454C253.673 108.437 251.246 105.466 248.143 102.895C247.671 102.5 247.198 102.105 246.683 101.718C246.179 101.341 245.667 100.977 245.132 100.618C244.572 100.241 243.987 99.8668 243.413 99.5388C242.9 99.2335 242.379 98.9401 241.862 98.6702C238.275 96.7617 234.559 95.6217 231.148 95.3844C226.995 95.0947 223.838 96.2115 222.284 98.5242C220.746 100.809 220.891 104.088 222.701 107.771L222.702 107.772Z" fill="#70C5AD"/>
<path d="M222.118 98.4125C220.523 100.783 220.697 104.146 222.522 107.86L222.702 107.771L222.701 107.772L222.522 107.86L222.542 107.899L222.542 107.9C224.366 111.626 227.626 115.252 231.763 118.204L232.605 118.787C237.198 121.876 242.19 123.752 246.688 124.053L246.701 123.854L246.715 123.655L246.714 123.654C242.301 123.358 237.376 121.514 232.828 118.455L231.994 117.878C227.885 114.945 224.667 111.353 222.883 107.685L222.862 107.645L222.862 107.644C221.085 104.007 220.975 100.828 222.449 98.6361L222.118 98.4125ZM248.271 102.742C247.8 102.348 247.323 101.948 246.803 101.558L246.035 100.999C245.776 100.815 245.513 100.634 245.244 100.454L245.244 100.452C244.682 100.073 244.092 99.6967 243.512 99.3655L243.513 99.3661C242.999 99.0596 242.474 98.7645 241.954 98.493L241.955 98.4936C238.348 96.5746 234.605 95.4248 231.162 95.1852L230.772 95.1622C226.775 94.9647 223.679 96.0892 222.118 98.4125L222.284 98.5239L222.449 98.6361L222.45 98.6354C223.9 96.4783 226.824 95.3677 230.751 95.5617L231.134 95.5847C234.512 95.8197 238.201 96.9493 241.767 98.8469L241.769 98.8481L242.541 99.2657C242.799 99.41 243.056 99.5589 243.31 99.7107L243.443 99.4868L243.313 99.7131C243.74 99.9566 244.173 100.226 244.598 100.504L245.02 100.784L245.803 101.325L246.563 101.879C247.073 102.262 247.542 102.653 248.015 103.048L248.015 103.049L248.128 102.912L248.164 102.87L248.015 103.049C251.101 105.605 253.509 108.554 254.978 111.542L254.976 111.542C256.708 115.094 256.87 118.203 255.533 120.393L255.399 120.603C253.904 122.828 250.857 123.936 246.715 123.655L246.688 124.053C250.895 124.339 254.12 123.223 255.731 120.825L255.875 120.6C257.313 118.245 257.095 114.976 255.336 111.367L255.336 111.365L255.044 110.796C253.529 107.947 251.196 105.167 248.27 102.742L248.271 102.742ZM243.31 99.7107L243.313 99.7131L243.413 99.5386L243.31 99.7107Z" fill="#155C6D"/>
<path d="M218.541 95.2327C216.618 98.0926 216.793 102.188 219.039 106.783C220.7 110.17 223.313 113.499 226.623 116.483C223.455 113.576 220.936 110.369 219.332 107.097C217.131 102.609 216.959 98.5923 218.829 95.8131C220.725 92.9942 224.567 91.6379 229.634 91.9801C235.068 92.3548 241.128 94.6258 246.687 98.3638C252.205 102.075 256.546 106.76 258.892 111.579C261.107 116.077 261.287 120.08 259.409 122.872C257.513 125.691 253.671 127.047 248.59 126.696C244.558 126.429 240.178 125.095 235.895 122.892C240.29 125.187 244.817 126.563 248.992 126.848C254.189 127.2 258.116 125.804 260.057 122.917C261.97 120.071 261.782 115.965 259.536 111.37C257.123 106.447 252.688 101.641 247.051 97.8498C241.345 94.0131 235.147 91.6874 229.597 91.3119C224.401 90.9597 220.474 92.3554 218.54 95.2284L218.541 95.2327Z" fill="#155C6D"/>
<path d="M222.283 98.5247C220.745 100.809 220.89 104.088 222.7 107.772C224.623 111.723 228.184 115.574 232.714 118.621C237.284 121.695 242.243 123.554 246.699 123.853C250.874 124.137 254.01 123.025 255.563 120.713C257.1 118.429 256.956 115.15 255.154 111.453C253.67 108.436 251.243 105.465 248.14 102.894C247.669 102.5 247.196 102.104 246.68 101.718C246.177 101.341 245.665 100.977 245.13 100.617C244.57 100.24 243.985 99.8663 243.41 99.5383C242.898 99.233 242.376 98.9397 241.859 98.6697C238.272 96.7612 234.556 95.6212 231.146 95.384C226.993 95.0943 223.837 96.212 222.283 98.5247Z" fill="#70C5AD"/>
<path d="M222.117 98.4127C220.522 100.783 220.696 104.145 222.521 107.859L222.52 107.859C224.34 111.599 227.609 115.24 231.76 118.203L232.602 118.786C237.195 121.875 242.187 123.751 246.686 124.052L246.698 123.853L246.713 123.654L246.712 123.653C242.299 123.357 237.373 121.513 232.825 118.454L231.992 117.877C227.883 114.944 224.665 111.352 222.88 107.684L222.88 107.684C221.084 104.03 220.969 100.836 222.449 98.6364L222.117 98.4127ZM248.268 102.741C247.797 102.347 247.321 101.947 246.8 101.557L246.033 100.998C245.774 100.814 245.511 100.633 245.242 100.453L245.242 100.451C244.68 100.072 244.09 99.6957 243.51 99.3645L243.511 99.3651C242.996 99.0586 242.472 98.7635 241.952 98.492L241.952 98.4926C238.345 96.5737 234.603 95.4238 231.159 95.1842L230.77 95.1612C226.773 94.9638 223.678 96.0895 222.117 98.4127L222.283 98.5242L222.449 98.6364L222.449 98.6356C223.899 96.4785 226.822 95.3668 230.749 95.5607L231.132 95.5837C234.51 95.8187 238.198 96.9483 241.765 98.8459L241.767 98.8472L242.539 99.2647C242.796 99.409 243.053 99.5579 243.308 99.7097L243.441 99.4858L243.311 99.7122C243.737 99.9557 244.17 100.225 244.595 100.503L245.018 100.783L245.801 101.324L246.56 101.878C247.071 102.261 247.54 102.652 248.012 103.047L248.013 103.048L248.126 102.911L248.161 102.869L248.013 103.048C251.098 105.604 253.506 108.553 254.975 111.541L254.974 111.541C256.705 115.093 256.868 118.202 255.531 120.392L255.397 120.602C253.901 122.827 250.855 123.935 246.713 123.654L246.686 124.052C250.893 124.339 254.118 123.222 255.729 120.824L255.873 120.599C257.311 118.244 257.093 114.975 255.334 111.366L255.334 111.364L255.042 110.795C253.527 107.946 251.193 105.166 248.268 102.741L248.268 102.741ZM243.308 99.7097L243.311 99.7122L243.41 99.5377L243.308 99.7097Z" fill="#155C6D"/>
<path d="M222.283 98.5247C220.745 100.809 220.89 104.088 222.7 107.772C224.623 111.723 228.184 115.574 232.714 118.621C237.284 121.695 242.243 123.554 246.699 123.853C250.874 124.137 254.01 123.025 255.563 120.713C257.1 118.429 256.956 115.15 255.154 111.453C253.67 108.436 251.243 105.465 248.14 102.894C247.669 102.5 247.196 102.104 246.68 101.718C246.177 101.341 245.665 100.977 245.13 100.617C244.57 100.24 243.985 99.8663 243.41 99.5383C242.898 99.233 242.376 98.9397 241.859 98.6697C238.272 96.7612 234.556 95.6212 231.146 95.384C226.993 95.0943 223.837 96.212 222.283 98.5247Z" fill="#155C6D"/>
<path d="M222.117 98.4127C220.522 100.783 220.696 104.145 222.521 107.859L222.52 107.859C224.34 111.599 227.609 115.24 231.76 118.203L232.602 118.786C237.195 121.875 242.187 123.751 246.686 124.052L246.698 123.853L246.713 123.654L246.712 123.653C242.299 123.357 237.373 121.513 232.825 118.454L231.992 117.877C227.883 114.944 224.665 111.352 222.88 107.684L222.88 107.684C221.084 104.03 220.969 100.836 222.449 98.6364L222.117 98.4127ZM248.268 102.741C247.797 102.347 247.321 101.947 246.8 101.557L246.033 100.998C245.774 100.814 245.511 100.633 245.242 100.453L245.242 100.451C244.68 100.072 244.09 99.6957 243.51 99.3645L243.511 99.3651C242.996 99.0586 242.472 98.7635 241.952 98.492L241.952 98.4926C238.345 96.5737 234.603 95.4238 231.159 95.1842L230.77 95.1612C226.773 94.9638 223.678 96.0895 222.117 98.4127L222.283 98.5242L222.449 98.6364L222.449 98.6356C223.899 96.4785 226.822 95.3668 230.749 95.5607L231.132 95.5837C234.51 95.8187 238.198 96.9483 241.765 98.8459L241.767 98.8472L242.539 99.2647C242.796 99.409 243.053 99.5579 243.308 99.7097L243.441 99.4858L243.311 99.7122C243.737 99.9557 244.17 100.225 244.595 100.503L245.018 100.783L245.801 101.324L246.56 101.878C247.071 102.261 247.54 102.652 248.012 103.047L248.013 103.048L248.126 102.911L248.161 102.869L248.013 103.048C251.098 105.604 253.506 108.553 254.975 111.541L254.974 111.541C256.705 115.093 256.868 118.202 255.531 120.392L255.397 120.602C253.901 122.827 250.855 123.935 246.713 123.654L246.686 124.052C250.893 124.339 254.118 123.222 255.729 120.824L255.873 120.599C257.311 118.244 257.093 114.975 255.334 111.366L255.334 111.364L255.042 110.795C253.527 107.946 251.193 105.166 248.268 102.741L248.268 102.741ZM243.308 99.7097L243.311 99.7122L243.41 99.5377L243.308 99.7097Z" fill="#155C6D"/>
<path d="M223.641 98.6446C222.193 100.796 222.333 103.878 224.034 107.352C225.842 111.07 229.194 114.684 233.444 117.542C237.747 120.435 242.415 122.178 246.603 122.472C250.52 122.738 253.493 121.691 254.949 119.527C256.396 117.376 256.251 114.271 254.555 110.821C253.194 108.023 250.967 105.304 248.141 102.899C247.669 102.505 247.196 102.109 246.681 101.723C246.177 101.346 245.665 100.982 245.13 100.622C244.57 100.245 243.985 99.8713 243.411 99.5432C242.899 99.238 242.377 98.9446 241.86 98.6746C238.54 96.9464 235.109 95.901 231.971 95.6912C228.055 95.4252 225.104 96.4667 223.639 98.6448L223.641 98.6446Z" fill="#C8DAE8"/>
<path d="M230.387 108.663C230.387 108.663 229.773 107.886 231.355 107.047C232.491 106.442 233.223 107.155 233.223 107.155L234.874 108.58C237.138 110.43 238.843 111.848 242.263 111.967L249.19 112.208C250.358 112.249 246.98 109.906 246.98 109.906C246.586 109.641 246.214 109.231 247.981 108.291C249.219 107.633 249.435 108.142 249.816 108.398C250.978 109.179 257.411 115.288 254.537 115.189L246.316 114.902C242.559 114.77 237.842 114.422 234.425 112.15C233.192 111.33 230.387 108.663 230.387 108.663Z" fill="#155C6D"/>
<path d="M233.093 107.307L234.743 108.732L234.747 108.735L234.874 108.579L234.892 108.558L234.747 108.735C236.941 110.529 238.654 111.954 241.933 112.152L242.256 112.167L249.183 112.408C249.268 112.411 249.354 112.405 249.428 112.376C249.509 112.346 249.587 112.284 249.62 112.182C249.65 112.091 249.631 112.004 249.607 111.941C249.582 111.875 249.543 111.811 249.5 111.75C249.33 111.512 248.999 111.208 248.651 110.919C248.297 110.625 247.908 110.33 247.608 110.11C247.458 110 247.329 109.908 247.239 109.844C247.193 109.811 247.157 109.786 247.132 109.769C247.12 109.76 247.111 109.753 247.104 109.749C247.101 109.747 247.098 109.745 247.097 109.744L247.091 109.74L246.968 109.648C246.934 109.618 246.906 109.589 246.886 109.56C246.853 109.513 246.843 109.47 246.861 109.411C246.884 109.337 246.958 109.22 247.153 109.055C247.297 108.934 247.499 108.794 247.774 108.634L248.074 108.467C248.676 108.148 248.981 108.139 249.163 108.194C249.256 108.222 249.335 108.271 249.419 108.338C249.492 108.395 249.603 108.496 249.704 108.564L249.928 108.233C249.839 108.173 249.78 108.113 249.667 108.024C249.565 107.943 249.44 107.859 249.277 107.811C248.946 107.711 248.523 107.777 247.887 108.115L247.575 108.287C247.285 108.456 247.062 108.609 246.895 108.75C246.676 108.935 246.536 109.113 246.48 109.293C246.42 109.487 246.466 109.655 246.558 109.788C246.6 109.85 246.653 109.903 246.707 109.95L246.869 110.072L246.875 110.077C246.882 110.082 246.891 110.088 246.903 110.096C246.927 110.113 246.962 110.138 247.007 110.17C247.096 110.233 247.223 110.324 247.372 110.433C247.669 110.651 248.051 110.94 248.395 111.226C248.746 111.518 249.039 111.792 249.175 111.982C249.181 111.991 249.185 112.001 249.191 112.009L242.27 111.767L241.96 111.753C238.82 111.565 237.194 110.218 235.005 108.428L233.362 107.01L233.358 107.007C233.355 107.005 233.352 107.002 233.349 106.998C233.341 106.992 233.33 106.982 233.316 106.971C233.29 106.949 233.251 106.919 233.202 106.886C233.103 106.821 232.959 106.742 232.775 106.684C232.403 106.566 231.88 106.541 231.261 106.87L230.978 107.034C230.37 107.416 230.13 107.801 230.08 108.14C230.052 108.33 230.086 108.489 230.128 108.6C230.15 108.655 230.174 108.699 230.192 108.731C230.202 108.746 230.209 108.759 230.216 108.768C230.219 108.773 230.222 108.777 230.225 108.781C230.226 108.782 230.227 108.783 230.228 108.784L230.23 108.786L230.229 108.786L230.23 108.787L230.238 108.798L230.249 108.808L230.252 108.81C230.253 108.811 230.255 108.813 230.257 108.815C230.262 108.82 230.271 108.828 230.281 108.838C230.302 108.858 230.333 108.887 230.372 108.925C230.451 108.999 230.567 109.107 230.708 109.239C230.991 109.502 231.381 109.863 231.81 110.248C232.557 110.919 233.431 111.678 234.06 112.138L234.314 112.317C237.351 114.336 241.384 114.853 244.858 115.039L246.309 115.102L254.53 115.39C254.909 115.403 255.222 115.318 255.378 115.062C255.526 114.819 255.475 114.505 255.362 114.209C255.131 113.602 254.538 112.799 253.842 111.993C253.139 111.18 252.31 110.341 251.585 109.657C250.864 108.977 250.234 108.438 249.928 108.233L249.816 108.399L249.704 108.564L249.705 108.565C249.98 108.75 250.59 109.267 251.311 109.948C252.029 110.625 252.848 111.455 253.539 112.254C254.236 113.061 254.785 113.817 254.988 114.351C255.092 114.626 255.082 114.78 255.036 114.854C254.998 114.917 254.883 115.002 254.544 114.99L246.323 114.703L244.874 114.639C241.415 114.453 237.479 113.941 234.536 111.984L234.292 111.812C233.686 111.369 232.828 110.625 232.078 109.951C231.651 109.567 231.262 109.209 230.981 108.946C230.84 108.815 230.726 108.708 230.647 108.633C230.608 108.596 230.577 108.567 230.556 108.547C230.55 108.542 230.546 108.537 230.541 108.533C230.54 108.531 230.537 108.528 230.535 108.525C230.526 108.511 230.514 108.488 230.502 108.457C230.479 108.396 230.46 108.308 230.476 108.199C230.503 108.015 230.644 107.716 231.189 107.373L231.449 107.223C231.966 106.948 232.378 106.977 232.655 107.065C232.796 107.109 232.906 107.171 232.98 107.22C233.017 107.244 233.044 107.266 233.062 107.28L233.084 107.298L233.092 107.307L233.093 107.307Z" fill="#155C6D"/>
<path d="M230.03 107.249C230.03 107.249 229.34 107.958 230.826 108.957C231.894 109.675 232.695 109.041 232.695 109.041L234.137 106.897C235.409 105.003 238.308 103.591 240.598 103.749L245.898 104.112C248.189 104.269 248.79 104.821 247.516 106.714L246.401 108.37C246.401 108.37 245.571 108.964 247.231 110.08C248.394 110.861 249.068 110.161 249.068 110.161L250.125 108.587C252.782 104.636 250.58 101.632 246.764 101.371L241.464 101.008C237.649 100.746 234.032 101.295 230.696 106.254L230.028 107.247L230.03 107.249Z" fill="#70C5AD"/>
<path d="M251.049 103.493C250.311 102.137 248.731 101.297 246.779 101.164L241.479 100.801L240.761 100.762C239.087 100.698 237.435 100.832 235.826 101.481C233.984 102.223 232.217 103.63 230.531 106.135L230.535 106.137L230.53 106.143L229.862 107.136L229.852 107.15C229.849 107.154 229.846 107.158 229.843 107.162C229.838 107.168 229.835 107.177 229.83 107.184L229.76 107.288L229.764 107.292C229.712 107.398 229.663 107.549 229.671 107.737C229.686 108.08 229.884 108.488 230.449 108.931L230.714 109.122C231.295 109.514 231.818 109.543 232.201 109.464C232.39 109.425 232.542 109.361 232.647 109.306C232.699 109.278 232.74 109.252 232.77 109.233C232.784 109.223 232.795 109.215 232.804 109.209C232.808 109.206 232.812 109.204 232.814 109.202C232.815 109.201 232.817 109.2 232.818 109.199L232.819 109.198L232.844 109.178L232.861 109.152L234.303 107.008L234.422 106.839C235.041 105.998 235.998 105.258 237.073 104.734C238.148 104.21 239.325 103.912 240.375 103.939L240.584 103.949L245.885 104.312C246.452 104.351 246.903 104.414 247.241 104.512C247.582 104.61 247.78 104.735 247.881 104.877C247.974 105.01 248.007 105.194 247.93 105.478C247.871 105.695 247.752 105.957 247.563 106.271L247.351 106.602L246.252 108.236C246.246 108.241 246.239 108.246 246.232 108.253C246.205 108.278 246.17 108.316 246.135 108.365C246.065 108.464 245.993 108.612 245.993 108.807C245.993 109.149 246.209 109.559 246.829 110.037L247.12 110.245C247.743 110.665 248.26 110.7 248.633 110.607C248.816 110.562 248.958 110.488 249.054 110.425C249.102 110.393 249.14 110.364 249.167 110.341C249.18 110.33 249.19 110.321 249.198 110.314C249.201 110.31 249.204 110.307 249.206 110.305C249.208 110.303 249.209 110.302 249.21 110.301L249.211 110.3C249.212 110.3 249.212 110.3 249.068 110.161L249.212 110.299L249.224 110.287L249.234 110.273L250.291 108.699L250.532 108.323C250.984 107.577 251.267 106.861 251.401 106.188C251.415 106.117 251.425 106.047 251.436 105.978C251.46 105.826 251.479 105.676 251.487 105.529C251.53 104.777 251.374 104.091 251.049 103.493ZM246.751 101.57C248.614 101.698 250.044 102.492 250.696 103.691C251.02 104.285 251.161 104.995 251.06 105.797C250.957 106.602 250.611 107.5 249.96 108.469L249.964 108.47L249.959 108.476L248.915 110.03C248.912 110.032 248.909 110.035 248.906 110.037C248.891 110.05 248.867 110.069 248.834 110.091C248.768 110.134 248.668 110.187 248.538 110.219C248.284 110.282 247.882 110.276 247.342 109.913L247.067 109.716C246.496 109.275 246.394 108.967 246.394 108.806C246.394 108.713 246.426 108.644 246.46 108.596C246.477 108.572 246.495 108.555 246.507 108.543L246.519 108.533L246.518 108.533L246.547 108.512L246.567 108.482L247.682 106.826L247.904 106.479C248.106 106.145 248.244 105.847 248.316 105.584C248.412 105.227 248.391 104.908 248.207 104.647C248.03 104.395 247.727 104.235 247.352 104.127C246.973 104.017 246.489 103.953 245.912 103.913L240.612 103.55L240.387 103.539C239.257 103.509 238.017 103.829 236.898 104.374C235.78 104.919 234.766 105.697 234.099 106.603L233.971 106.785L232.549 108.9L232.46 108.952C232.382 108.993 232.266 109.042 232.121 109.072C231.836 109.131 231.424 109.118 230.938 108.791L230.694 108.615C230.188 108.217 230.079 107.905 230.07 107.719C230.066 107.61 230.095 107.525 230.124 107.467C230.139 107.437 230.154 107.415 230.164 107.402C230.168 107.396 230.171 107.391 230.173 107.388L230.175 107.387L230.326 107.232L230.296 107.207L230.862 106.366L231.172 105.918C232.726 103.746 234.331 102.522 235.975 101.859C237.513 101.24 239.101 101.106 240.744 101.169L241.45 101.207L246.751 101.57Z" fill="#155C6D"/>
<path d="M251.049 103.493C250.311 102.137 248.732 101.298 246.779 101.164L241.479 100.802L240.761 100.763C239.087 100.699 237.436 100.833 235.826 101.482C233.984 102.224 232.217 103.63 230.531 106.136L230.863 106.359C232.513 103.907 234.222 102.559 235.976 101.852C237.514 101.233 239.102 101.1 240.744 101.163L241.452 101.2L246.752 101.564C248.615 101.692 250.045 102.485 250.698 103.684C251.346 104.876 251.262 106.533 249.961 108.469L250.292 108.693C251.647 106.678 251.791 104.857 251.049 103.493Z" fill="#155C6D"/>
<path d="M111.073 124C108.588 124 106.573 121.762 106.573 119C106.573 116.239 108.588 114 111.073 114C113.558 114 115.573 116.239 115.573 119C115.573 121.762 113.558 124 111.073 124Z" fill="#C8DAE8"/>
<path d="M106.773 119C106.773 116.329 108.718 114.201 111.073 114.201C113.429 114.201 115.373 116.329 115.373 119C115.373 121.672 113.429 123.8 111.073 123.8C108.718 123.8 106.773 121.672 106.773 119ZM106.373 119C106.373 121.852 108.458 124.201 111.073 124.201C113.688 124.201 115.773 121.852 115.773 119C115.773 116.149 113.688 113.8 111.073 113.8C108.458 113.8 106.373 116.149 106.373 119Z" fill="#155C6D"/>
<path d="M282.073 219C279.588 219 277.573 216.762 277.573 214C277.573 211.239 279.588 209 282.073 209C284.558 209 286.573 211.239 286.573 214C286.573 216.762 284.558 219 282.073 219Z" fill="#C8DAE8"/>
<path d="M277.773 214C277.773 211.329 279.718 209.201 282.073 209.201C284.429 209.201 286.373 211.329 286.373 214C286.373 216.672 284.429 218.8 282.073 218.8C279.718 218.8 277.773 216.672 277.773 214ZM277.373 214C277.373 216.852 279.458 219.201 282.073 219.201C284.688 219.201 286.773 216.852 286.773 214C286.773 211.149 284.688 208.8 282.073 208.8C279.458 208.8 277.373 211.149 277.373 214Z" fill="#155C6D"/>
<path d="M120.573 89.0005C118.916 89.0005 117.573 87.6573 117.573 86.0005C117.573 84.3436 118.916 83.0005 120.573 83.0005C122.23 83.0005 123.573 84.3436 123.573 86.0005C123.573 87.6573 122.23 89.0005 120.573 89.0005Z" fill="#C8DAE8"/>
<path d="M117.773 86.0005C117.773 84.4541 119.027 83.2007 120.573 83.2007C122.12 83.2007 123.373 84.4541 123.373 86.0005C123.373 87.5469 122.12 88.8003 120.573 88.8003C119.027 88.8003 117.773 87.5469 117.773 86.0005ZM117.373 86.0005C117.373 87.7678 118.806 89.2007 120.573 89.2007C122.34 89.2007 123.773 87.7678 123.773 86.0005C123.773 84.2332 122.34 82.8003 120.573 82.8003C118.806 82.8003 117.373 84.2332 117.373 86.0005Z" fill="#155C6D"/>
</svg>
