<svg width="411" height="300" viewBox="0 0 411 300" fill="none" xmlns="http://www.w3.org/2000/svg">
<path d="M196.824 255.395C174.152 255.395 155.772 252.617 155.772 249.19C155.772 245.762 174.152 242.984 196.824 242.984C219.497 242.984 237.876 245.762 237.876 249.19C237.876 252.617 219.497 255.395 196.824 255.395Z" fill="#155C6D"/>
<path d="M195.741 46.5572C197.407 47.1826 198.706 48.523 199.278 50.2088L250.056 202.237C251.774 207.213 250.282 209.323 246.946 211.957C246.946 211.957 208.325 240.162 199.825 246.491C198.619 247.389 197.087 247.728 195.615 247.422L191.532 246.576C189.706 246.198 188.216 244.881 187.617 243.115L136.276 91.8701C134.794 87.5063 136.292 82.6852 139.984 79.9281L185.47 45.7745C187.09 44.5731 189.208 44.2752 191.096 44.9836L195.741 46.5572Z" fill="#70C5AD"/>
<path d="M191.096 44.9839C189.208 44.2755 187.09 44.5735 185.47 45.7749L139.984 79.9282C136.292 82.6854 134.795 87.5068 136.276 91.8706L187.617 243.115L187.74 243.44C188.404 245.041 189.82 246.221 191.532 246.576L195.615 247.422L195.891 247.472C197.185 247.669 198.505 247.377 199.594 246.653L199.825 246.492C204.075 243.327 215.855 234.693 226.573 226.85L246.946 211.957C250.282 209.323 251.773 207.213 250.055 202.237L199.278 50.2085C198.742 48.6282 197.567 47.3519 196.049 46.6831L195.741 46.5571L191.096 44.9839ZM185.698 46.0815C187.213 44.9574 189.195 44.6785 190.962 45.3413L190.973 45.3452L195.607 46.9136L195.606 46.9145C197.165 47.4995 198.381 48.7524 198.917 50.3286L198.916 50.3296L249.693 202.358L249.695 202.362C250.538 204.805 250.569 206.475 250.04 207.836C249.504 209.213 248.371 210.345 246.709 211.657H246.71C246.705 211.66 246.699 211.663 246.692 211.668C246.674 211.682 246.646 211.702 246.609 211.729C246.536 211.783 246.427 211.862 246.285 211.966C246 212.174 245.581 212.481 245.045 212.873C243.972 213.656 242.43 214.782 240.553 216.154C236.8 218.897 231.706 222.621 226.347 226.542C215.63 234.384 203.848 243.019 199.596 246.185L199.384 246.335C198.301 247.055 196.972 247.314 195.692 247.048L191.609 246.202L191.296 246.126C189.746 245.697 188.499 244.527 187.978 242.992L136.637 91.7475L136.511 91.352C135.301 87.2519 136.764 82.809 140.213 80.2339H140.214L185.698 46.0805V46.0815Z" fill="#155C6D"/>
<path d="M135.713 88.6046C135.729 89.6957 135.911 90.7968 136.276 91.8702L187.617 243.114C188.217 244.88 189.706 246.198 191.532 246.576L195.615 247.423C197.087 247.728 198.619 247.389 199.824 246.491C208.325 240.162 244.504 213.203 244.504 213.203C247.841 210.57 249.332 208.459 247.614 203.482L215.886 109.771L135.713 88.6046Z" fill="#155C6D"/>
<path d="M205.008 245.303L248.263 212.634C252.515 209.54 252.33 206.644 251.161 203.205L199.464 51.094C198.676 48.7731 195.847 47.9047 193.893 49.3841L150.058 82.5699C146.811 85.0288 145.503 89.2911 146.812 93.1485L197.694 243.04C198.728 246.086 202.435 247.233 205.008 245.303Z" fill="#70C5AD"/>
<path d="M199.464 51.0935C198.676 48.7729 195.847 47.9052 193.893 49.3845L150.059 82.5701C146.811 85.0289 145.503 89.2909 146.812 93.1482L197.694 243.041L197.799 243.32C198.921 246.063 202.289 247.105 204.764 245.475L205.008 245.304L248.264 212.635C252.25 209.734 252.336 207.007 251.368 203.844L251.161 203.205L199.464 51.0935ZM194.123 49.6882C195.815 48.4074 198.241 49.0959 199.031 51.0261L199.102 51.2165L250.8 203.328C251.379 205.032 251.688 206.532 251.372 207.967C251.079 209.299 250.232 210.635 248.415 212.043L248.038 212.325L248.033 212.329L204.778 244.998L204.554 245.156C202.203 246.704 198.976 245.63 198.056 242.918L147.174 93.0261C145.956 89.4402 147.096 85.489 150.002 83.1003L150.289 82.8748L194.123 49.6882Z" fill="#155C6D"/>
<path d="M182.586 66.1681L174.745 72.0942C174.246 72.4716 173.524 72.2497 173.323 71.6569C173.196 71.284 173.322 70.8718 173.635 70.6327L181.457 64.6543C181.956 64.2731 182.682 64.494 182.883 65.0885L182.901 65.1408C183.028 65.5154 182.901 65.9293 182.585 66.1681H182.586Z" fill="#155C6D"/>
<path d="M169.206 75.7187C168.655 75.5066 168.413 74.8042 168.664 74.1496C168.916 73.4951 169.567 73.1364 170.118 73.3484C170.669 73.5605 170.912 74.263 170.66 74.9175C170.408 75.572 169.757 75.9307 169.206 75.7187Z" fill="#155C6D"/>
<path d="M148.401 117.85L153.516 132.916C153.61 133.193 153.809 133.423 154.07 133.555C154.965 134.007 155.958 133.146 155.635 132.197L150.521 117.13C150.427 116.853 150.228 116.624 149.966 116.491C149.072 116.039 148.079 116.9 148.401 117.85Z" fill="#70C5AD"/>
<path d="M157.375 144.276L162.49 159.342C162.584 159.62 162.783 159.849 163.044 159.981C163.939 160.434 164.931 159.572 164.609 158.623L159.495 143.557C159.401 143.28 159.202 143.05 158.94 142.918C158.046 142.466 157.053 143.327 157.375 144.276Z" fill="#70C5AD"/>
<path d="M148.475 117.995L153.587 133.055C153.653 133.252 153.794 133.414 153.98 133.508C154.614 133.829 155.317 133.218 155.089 132.545L149.977 117.485C149.91 117.289 149.769 117.126 149.584 117.032C148.95 116.712 148.246 117.322 148.475 117.995Z" fill="#155C6D"/>
<path d="M157.448 144.422L162.561 159.482C162.627 159.678 162.768 159.841 162.954 159.935C163.588 160.255 164.291 159.645 164.063 158.972L158.951 143.912C158.884 143.715 158.743 143.552 158.558 143.459C157.924 143.138 157.22 143.749 157.448 144.422Z" fill="#155C6D"/>
<path d="M146.326 89.6827L149.091 90.6911C149.158 91.1098 149.258 91.5268 149.398 91.9386L150.473 95.1072L147.042 93.8229L146.813 93.1476C146.426 92.0088 146.274 90.8349 146.326 89.6824L146.326 89.6827Z" fill="#C8DAE8"/>
<path d="M159.99 80.0413L162.192 84.7938C162.659 85.8015 163.939 86.1177 164.821 85.443L191.114 65.3418C192.517 64.2694 193.094 62.4305 192.556 60.7485L190.845 55.399C190.605 54.6493 190.85 53.8291 191.462 53.3337L194.816 50.6171C196.155 49.5327 198.164 50.1121 198.72 51.7428L250.713 204.206C251.495 206.501 250.706 209.038 248.761 210.483L203.848 243.854C202.74 244.677 201.152 244.19 200.696 242.887L148.293 93.1004C147.172 89.897 148.232 86.3362 150.922 84.2671L157.281 79.3762C158.189 78.6782 159.509 79.0023 159.99 80.0413Z" fill="#C8DAE8"/>
<path d="M198.721 51.7424C198.165 50.1118 196.155 49.533 194.816 50.6174L191.462 53.3332C190.85 53.8285 190.605 54.649 190.845 55.3986L192.557 60.7482L192.645 61.0656C193.019 62.6574 192.43 64.3367 191.114 65.342L164.82 85.4426C163.993 86.075 162.818 85.8371 162.289 84.9748L162.191 84.7941L159.99 80.0412C159.509 79.0023 158.189 78.6783 157.281 79.3761L150.922 84.2668C148.232 86.3358 147.173 89.8974 148.293 93.1008L200.696 242.887L200.742 243.007C201.234 244.18 202.677 244.622 203.742 243.927L203.848 243.854L248.761 210.484C250.646 209.083 251.445 206.658 250.781 204.422L250.713 204.206L198.721 51.7424ZM195.057 50.9142C196.154 50.0256 197.783 50.4574 198.312 51.7394L198.359 51.8664L250.352 204.329C251.08 206.467 250.345 208.83 248.532 210.177L203.62 243.548L203.446 243.66C202.561 244.164 201.404 243.754 201.057 242.761L148.653 92.9738L148.56 92.6877C147.652 89.7161 148.676 86.4766 151.155 84.5695L157.514 79.6789C158.183 79.1644 159.137 79.3561 159.565 80.0549L159.644 80.2013L161.846 84.9543C162.38 86.1067 163.785 86.5183 164.846 85.8869L165.053 85.7463L191.346 65.6447C192.877 64.4743 193.507 62.4677 192.92 60.632L191.209 55.2824L191.177 55.1691C191.051 54.6395 191.219 54.0822 191.614 53.7082L191.702 53.6301L195.057 50.9142Z" fill="#155C6D"/>
<path opacity="0.1" d="M190.898 214.887L200.696 242.888C201.152 244.19 202.74 244.677 203.848 243.854L248.76 210.484C250.706 209.038 251.495 206.501 250.713 204.207L213.156 94.0981L190.898 214.887Z" fill="#155C6D"/>
<path d="M200.566 246.181C200.622 246.2 200.679 246.219 200.736 246.237C202.293 246.718 203.934 246.434 205.237 245.456H205.238L249.106 212.18C253.222 209.049 252.383 206.385 251.35 203.134L199.82 51.4923C199.413 50.2929 198.484 49.3973 197.274 49.0197C196.063 48.6483 194.79 48.8736 193.78 49.6381L150.088 82.7218C146.738 85.2591 145.394 89.6387 146.745 93.6193L197.461 243.05C197.966 244.536 199.093 245.669 200.567 246.181L200.566 246.181ZM204.859 244.954C203.719 245.809 202.283 246.058 200.921 245.637C199.559 245.21 198.515 244.199 198.056 242.848L147.339 93.4176C146.075 89.6939 147.332 85.5973 150.467 83.2232L194.159 50.1396C195.006 49.4982 196.415 49.0941 197.431 49.4059C198.449 49.7187 199.024 50.2973 199.611 51.5945L251.309 203.863C252.36 207.317 251.958 209.338 249.103 211.503L204.859 244.954Z" fill="#155C6D"/>
<path opacity="0.3" d="M171.054 146.005C167.54 126.966 175.399 109.556 188.607 107.118C201.816 104.68 215.371 118.138 218.885 137.177C222.399 156.216 214.54 173.626 201.332 176.064C188.124 178.501 174.568 165.044 171.054 146.005Z" fill="#155C6D"/>
<path d="M292.914 74.2038C278.641 72.1734 277.37 70.8271 276.166 56.4602C274.138 70.7338 272.789 72.0045 258.422 73.2086C272.696 75.2363 273.967 76.5853 275.171 90.9522C277.198 76.6785 278.547 75.4078 292.914 74.2038Z" fill="#C8DAE8"/>
<path d="M276.172 56.2689C276.074 56.2661 275.99 56.3371 275.976 56.4333C275.469 60.0022 275.006 62.7449 274.375 64.875C273.744 67.0026 272.95 68.502 271.79 69.5963C270.631 70.6907 269.088 71.3979 266.927 71.9052C264.764 72.4131 261.999 72.7173 258.407 73.0184C258.31 73.0265 258.234 73.1058 258.231 73.2028C258.229 73.3 258.3 73.3844 258.396 73.3981C261.965 73.9051 264.707 74.3681 266.837 74.9997C268.965 75.6306 270.464 76.4247 271.559 77.5842C272.653 78.7437 273.359 80.2868 273.867 82.4477C274.375 84.6107 274.679 87.3756 274.98 90.9677C274.988 91.0645 275.068 91.1403 275.165 91.1431C275.262 91.1457 275.346 91.0748 275.36 90.9787C275.867 87.4098 276.33 84.6669 276.961 82.537C277.592 80.4093 278.387 78.91 279.547 77.8156C280.706 76.7215 282.249 76.0149 284.409 75.5077C286.572 74.9998 289.338 74.6956 292.93 74.3946C293.027 74.3864 293.103 74.3062 293.106 74.2091C293.108 74.1121 293.037 74.0285 292.941 74.0148C289.372 73.5072 286.629 73.044 284.499 72.4123C282.372 71.7812 280.872 70.9862 279.778 69.8268C278.684 68.6674 277.976 67.1249 277.469 64.9642C276.961 62.8014 276.657 60.0364 276.356 56.4442L276.337 56.3763C276.307 56.3143 276.244 56.2711 276.172 56.2689ZM276.119 58.0992C276.378 60.9235 276.663 63.2008 277.097 65.0522C277.613 67.248 278.342 68.8626 279.5 70.0894C280.658 71.3162 282.228 72.1371 284.39 72.7784C286.213 73.3192 288.471 73.7344 291.275 74.1563C288.451 74.4158 286.174 74.7011 284.322 75.1359C282.126 75.6515 280.511 76.3804 279.284 77.5384C278.057 78.6964 277.236 80.2663 276.595 82.4287C276.054 84.2516 275.64 86.5079 275.218 89.3118C274.959 86.4881 274.673 84.211 274.239 82.3597C273.723 80.1639 272.994 78.5495 271.836 77.3225C270.678 76.0955 269.108 75.2748 266.946 74.6335C265.123 74.0929 262.867 73.6771 260.063 73.2557C262.886 72.9962 265.163 72.7117 267.015 72.2771C269.21 71.7615 270.825 71.0323 272.052 69.8745C273.279 68.7165 274.1 67.1465 274.741 64.9842C275.282 63.1609 275.697 60.9038 276.119 58.0992Z" fill="#155C6D"/>
<path d="M140.356 191.844C131.068 190.523 130.241 189.647 129.458 180.298C128.138 189.586 127.26 190.413 117.912 191.196C127.2 192.516 128.026 193.394 128.81 202.742C130.129 193.454 131.007 192.628 140.356 191.844Z" fill="#C8DAE8"/>
<path d="M129.463 180.107C129.366 180.104 129.282 180.175 129.268 180.271C128.938 182.594 128.638 184.374 128.229 185.755C127.82 187.134 127.307 188.096 126.564 188.797C125.821 189.498 124.83 189.955 123.43 190.284C122.028 190.613 120.233 190.81 117.896 191.006C117.799 191.014 117.724 191.094 117.721 191.191C117.718 191.288 117.789 191.372 117.885 191.386C120.207 191.716 121.988 192.016 123.368 192.425C124.747 192.834 125.71 193.347 126.411 194.09C127.112 194.833 127.568 195.824 127.897 197.224C128.226 198.626 128.423 200.421 128.619 202.758C128.627 202.855 128.708 202.93 128.805 202.933C128.902 202.936 128.985 202.865 128.999 202.769C129.329 200.447 129.63 198.667 130.039 197.286C130.448 195.907 130.96 194.944 131.703 194.243C132.446 193.542 133.437 193.086 134.837 192.757C136.239 192.428 138.034 192.231 140.372 192.035C140.469 192.027 140.544 191.946 140.547 191.849C140.55 191.752 140.479 191.669 140.383 191.655C138.06 191.325 136.28 191.024 134.899 190.615C133.52 190.206 132.558 189.693 131.857 188.95C131.156 188.207 130.699 187.217 130.37 185.817C130.041 184.415 129.844 182.62 129.648 180.282L129.629 180.214C129.599 180.152 129.536 180.109 129.463 180.107ZM129.411 181.906C129.567 183.5 129.743 184.814 129.998 185.904C130.335 187.339 130.814 188.403 131.579 189.213C132.343 190.023 133.377 190.562 134.791 190.981C135.864 191.299 137.165 191.55 138.748 191.797C137.154 191.954 135.84 192.13 134.75 192.386C133.315 192.722 132.252 193.201 131.441 193.966C130.631 194.73 130.092 195.764 129.673 197.178C129.355 198.249 129.104 199.549 128.857 201.129C128.701 199.537 128.524 198.225 128.269 197.136C127.932 195.701 127.453 194.638 126.688 193.827C125.924 193.017 124.89 192.478 123.476 192.059C122.404 191.741 121.103 191.49 119.521 191.243C121.115 191.087 122.429 190.911 123.518 190.656C124.953 190.319 126.016 189.84 126.827 189.076C127.637 188.311 128.176 187.277 128.595 185.863C128.913 184.79 129.164 183.489 129.411 181.906Z" fill="#155C6D"/>
<path d="M234.797 162.744C251.199 154.703 258.164 131.612 250.355 111.171C242.546 90.7293 222.919 80.6769 206.517 88.7181C190.116 96.7594 183.15 119.85 190.96 140.292C198.769 160.733 218.396 170.786 234.797 162.744Z" fill="#155C6D"/>
<path d="M250.355 111.172C249.24 108.249 247.882 105.541 246.326 103.059L246.32 103.069L230.111 129.557C229.1 131.213 227.261 131.791 225.587 130.989L215.894 126.331C214.325 125.583 212.606 126.04 211.557 127.486C207.137 133.588 195.82 149.211 195.66 149.439C205.084 163.539 221.069 169.481 234.797 162.745C251.199 154.704 258.164 131.613 250.355 111.172Z" fill="#155C6D"/>
<path d="M238.351 162.744C254.752 154.703 261.718 131.612 253.909 111.171C246.099 90.7293 226.472 80.6769 210.071 88.7181C193.669 96.7594 186.704 119.85 194.513 140.292C202.322 160.733 221.949 170.786 238.351 162.744Z" fill="#5367FF"/>
<path d="M253.909 111.172C252.794 108.249 251.435 105.541 249.879 103.059L249.874 103.069L233.664 129.557C232.653 131.213 230.814 131.791 229.14 130.989L219.447 126.331C217.878 125.583 216.159 126.04 215.111 127.486C210.691 133.588 199.373 149.211 199.213 149.439C208.637 163.539 224.622 169.481 238.351 162.745C254.752 154.704 261.718 131.613 253.909 111.172Z" fill="#00FFC3"/>
</svg>
