<svg width="411" height="300" viewBox="0 0 411 300" fill="none" xmlns="http://www.w3.org/2000/svg">
<path d="M272.574 201.593C297.312 201.593 317.366 190.721 317.366 177.308C317.366 163.896 297.312 153.024 272.574 153.024C247.836 153.024 227.782 163.896 227.782 177.308C227.782 190.721 247.836 201.593 272.574 201.593Z" fill="#155C6D"/>
<path d="M317.117 177.309C317.117 170.737 312.2 164.731 304.128 160.355C296.065 155.983 284.91 153.272 272.574 153.272C260.238 153.272 249.082 155.983 241.019 160.355C232.947 164.731 228.03 170.737 228.03 177.309C228.03 183.88 232.947 189.885 241.019 194.262C249.082 198.633 260.238 201.345 272.574 201.345C284.91 201.345 296.065 198.633 304.128 194.262C312.2 189.885 317.117 183.88 317.117 177.309ZM317.614 177.309C317.614 184.149 312.504 190.286 304.365 194.698C296.217 199.116 284.976 201.841 272.574 201.841C260.172 201.841 248.932 199.116 240.783 194.698C232.644 190.286 227.534 184.149 227.534 177.309C227.534 170.469 232.644 164.331 240.783 159.918C248.932 155.5 260.172 152.776 272.574 152.776C284.976 152.776 296.217 155.5 304.365 159.918C312.504 164.331 317.614 170.469 317.614 177.309Z" fill="#155C6D"/>
<path d="M98.9884 226.936C95.9474 224.977 96.0573 220.495 99.1907 218.687L210.513 154.479L245.903 173.261L127.738 241.103C125.545 242.362 122.833 242.293 120.707 240.924L98.9884 226.936Z" fill="#155C6D"/>
<path d="M210.447 154.24C210.507 154.224 210.573 154.23 210.629 154.26L246.02 173.042L246.074 173.081C246.122 173.126 246.151 173.189 246.152 173.257C246.154 173.347 246.106 173.432 246.027 173.477L127.862 241.318C125.588 242.624 122.776 242.552 120.572 241.133L98.8542 227.145C95.6569 225.086 95.7722 220.372 99.0666 218.472L210.388 154.264L210.447 154.24ZM99.3152 218.903C96.343 220.617 96.2383 224.869 99.123 226.727L120.842 240.715C122.89 242.034 125.502 242.101 127.614 240.888L245.389 173.27L210.518 154.763L99.3152 218.903Z" fill="#155C6D"/>
<path d="M107.104 216.098C107.34 216.233 107.34 216.455 107.104 216.591C106.871 216.727 106.488 216.727 106.253 216.591C106.019 216.456 106.019 216.234 106.253 216.098C106.489 215.962 106.871 215.962 107.104 216.098Z" fill="#70C5AD"/>
<path d="M106.68 215.748C106.865 215.748 107.065 215.788 107.229 215.883L107.228 215.884C107.392 215.978 107.529 216.135 107.529 216.344C107.529 216.553 107.392 216.712 107.228 216.807L107.227 216.806C107.064 216.9 106.865 216.942 106.68 216.942C106.494 216.942 106.294 216.901 106.13 216.807L106.378 216.376C106.448 216.417 106.557 216.445 106.68 216.445C106.802 216.445 106.91 216.417 106.98 216.376L107.018 216.344L106.98 216.313L106.921 216.285C106.855 216.261 106.771 216.244 106.68 216.244C106.558 216.244 106.449 216.271 106.378 216.312L106.379 216.313C106.359 216.324 106.347 216.336 106.339 216.344C106.347 216.352 106.358 216.365 106.378 216.376L106.129 216.806C105.965 216.711 105.83 216.553 105.83 216.345C105.83 216.137 105.966 215.978 106.129 215.883H106.13C106.294 215.789 106.493 215.748 106.68 215.748Z" fill="#155C6D"/>
<path d="M100.309 217.935L219.119 149.341L249.635 167.078L125.854 238.534C124.781 239.163 123.03 239.163 121.956 238.534L100.259 225.928C96.4724 223.72 96.4967 220.156 100.309 217.947V217.935L100.309 217.935Z" fill="#70C5AD"/>
<path d="M219.055 149.101C219.118 149.084 219.186 149.092 219.244 149.126L249.76 166.864C249.836 166.909 249.883 166.99 249.883 167.079C249.882 167.168 249.835 167.25 249.759 167.294L125.978 238.748L125.979 238.749C125.396 239.091 124.644 239.255 123.906 239.255C123.168 239.255 122.415 239.091 121.831 238.749V238.748L100.135 226.143L99.781 225.927C98.0715 224.823 97.177 223.402 97.1863 221.936C97.1961 220.39 98.2131 218.893 100.127 217.767L100.135 217.759C100.15 217.744 100.167 217.73 100.185 217.72L218.995 149.126L219.055 149.101ZM100.488 218.118C100.472 218.135 100.454 218.15 100.433 218.162L100.095 218.368C98.4654 219.412 97.6904 220.698 97.6824 221.939C97.674 223.263 98.5368 224.636 100.385 225.714H100.384L122.081 238.319L122.082 238.32L122.022 238.421L121.97 238.51L122.082 238.32C122.572 238.607 123.232 238.758 123.906 238.758C124.58 238.758 125.239 238.607 125.728 238.32L125.884 238.585L125.854 238.534L125.728 238.32L125.73 238.319L249.137 167.078L219.118 149.627L100.488 218.118Z" fill="#155C6D"/>
<path d="M93.0795 148.254L104.896 142.704L172.072 154.841L222.184 69.371L219.388 68.8968C217.863 68.7032 216.909 68.9787 215.996 69.4966C215.557 69.7653 95.3863 136.869 95.3863 136.869C92.4749 138.546 91.1177 142.025 92.1167 145.233L93.0663 148.242L93.0795 148.254Z" fill="#70C5AD"/>
<path d="M215.873 69.2802C216.832 68.7366 217.839 68.4497 219.42 68.6503L219.39 68.8846V68.8837L219.42 68.6503L219.43 68.6522L222.226 69.1259L222.283 69.1434C222.338 69.1674 222.383 69.211 222.409 69.2665C222.443 69.3404 222.44 69.4266 222.398 69.4969L172.286 154.967L172.238 155.025C172.182 155.076 172.104 155.1 172.027 155.086L104.93 142.963L93.1855 148.479L93.079 148.254V148.255L93.1855 148.479C93.1162 148.512 93.037 148.51 92.9706 148.477L92.9091 148.434L92.8954 148.423C92.8649 148.394 92.8417 148.357 92.829 148.317L91.8798 145.307L92.1161 145.232L92.0556 145.251L91.8798 145.307V145.307L91.79 144.995C90.9355 141.766 92.3443 138.335 95.2626 136.654L95.2655 136.652L95.3866 136.869C95.2656 136.652 95.2656 136.652 95.2665 136.651C95.2674 136.651 95.2688 136.65 95.2704 136.649C95.274 136.647 95.2799 136.645 95.287 136.641C95.3016 136.632 95.3236 136.62 95.3525 136.603C95.4102 136.571 95.4967 136.523 95.6103 136.46C95.8377 136.333 96.1752 136.144 96.6152 135.898C97.4954 135.407 98.7864 134.686 100.43 133.768C103.716 131.933 108.412 129.311 114.049 126.163C125.322 119.868 140.357 111.472 155.405 103.067C170.454 94.6625 185.517 86.2486 196.845 79.9198C202.508 76.7555 207.239 74.1124 210.566 72.2518C212.23 71.3216 213.544 70.5871 214.448 70.0809C214.9 69.8279 215.25 69.6317 215.49 69.4969C215.61 69.4297 215.702 69.3778 215.767 69.3417C215.798 69.3237 215.823 69.3096 215.841 69.2997C215.858 69.2901 215.865 69.2857 215.866 69.285L215.873 69.2802ZM219.357 69.1434C217.89 68.9572 216.991 69.2183 216.125 69.7079L216.126 69.7089C215.901 69.8467 185.739 86.6945 155.647 103.501C140.599 111.906 125.564 120.301 114.291 126.597C108.655 129.744 103.959 132.367 100.672 134.202C99.0287 135.12 97.7376 135.84 96.8573 136.332C96.4174 136.578 96.0798 136.766 95.8525 136.893C95.739 136.957 95.6524 137.005 95.5946 137.037C95.5658 137.053 95.5438 137.066 95.5292 137.074C95.522 137.078 95.5162 137.081 95.5126 137.083C95.5116 137.083 95.5104 137.083 95.5097 137.084L95.5107 137.085C92.7004 138.704 91.3895 142.062 92.3534 145.158L93.2226 147.912L104.79 142.479C104.813 142.468 104.839 142.461 104.864 142.458L104.94 142.46L171.945 154.565L221.787 69.5555L219.357 69.1425V69.1434Z" fill="#155C6D"/>
<path d="M123.62 234.133L125.655 234.231L172.046 154.832L104.871 142.694L93.054 148.245L118.908 230.604C118.957 230.753 119.007 230.901 119.069 231.036C119.821 232.874 121.659 234.021 123.632 234.12L123.62 234.133Z" fill="#155C6D"/>
<path d="M104.915 142.45L172.09 154.588L172.045 154.832L172.261 154.958L125.869 234.356L125.827 234.41C125.779 234.457 125.712 234.483 125.643 234.479L123.608 234.381C123.578 234.379 123.55 234.37 123.524 234.359C121.507 234.225 119.627 233.042 118.843 231.139L118.75 230.91C118.722 230.833 118.697 230.756 118.672 230.682L118.915 230.601L118.908 230.604L118.672 230.682L118.67 230.679L92.8167 148.319C92.7796 148.201 92.8362 148.073 92.9486 148.02L104.766 142.47L104.839 142.448C104.864 142.445 104.89 142.445 104.915 142.45ZM93.3558 148.377L119.144 230.526L119.217 230.74L119.294 230.932L119.299 230.942H119.298C120.01 232.68 121.755 233.778 123.645 233.872C123.671 233.873 123.696 233.879 123.72 233.889L125.516 233.975L171.653 155.013L104.905 142.952L93.3558 148.377ZM172.09 154.588C172.17 154.602 172.238 154.655 172.272 154.728C172.306 154.802 172.302 154.888 172.261 154.958L172.046 154.832L172.09 154.588Z" fill="#155C6D"/>
<path d="M247.894 168.866L246.18 164.709L251.422 161.724C252.212 161.416 253.236 162.094 253.704 163.241C254.173 164.388 253.926 165.572 253.137 165.881L247.894 168.866Z" fill="#70C5AD"/>
<path d="M251.332 161.492C251.824 161.3 252.363 161.426 252.82 161.729C253.28 162.034 253.683 162.533 253.934 163.147L253.474 163.335C253.256 162.802 252.913 162.387 252.546 162.143C252.181 161.901 251.818 161.84 251.523 161.951L246.492 164.816L248.016 168.51L253.014 165.665L253.046 165.649C253.34 165.534 253.559 165.246 253.65 164.823C253.739 164.401 253.693 163.869 253.475 163.335H253.474L253.704 163.241L253.934 163.147C254.184 163.76 254.249 164.393 254.136 164.927C254.025 165.447 253.735 165.896 253.26 166.097L248.018 169.081C247.956 169.116 247.881 169.124 247.814 169.1C247.746 169.077 247.692 169.026 247.665 168.96L245.95 164.804C245.903 164.688 245.948 164.555 246.057 164.493L251.299 161.508C251.309 161.502 251.321 161.496 251.332 161.492L251.422 161.723L251.423 161.725L251.332 161.492Z" fill="#155C6D"/>
<path d="M130.593 236.406L125.375 239.317L123.709 235.185L128.927 232.274C129.704 231.966 130.716 232.656 131.172 233.791C131.628 234.926 131.37 236.098 130.593 236.394V236.406Z" fill="#70C5AD"/>
<path d="M128.836 232.044C129.325 231.85 129.858 231.981 130.309 232.286C130.761 232.593 131.158 233.091 131.403 233.699L131.486 233.928C131.658 234.462 131.69 235.001 131.587 235.462C131.477 235.959 131.201 236.387 130.757 236.591C130.744 236.603 130.73 236.614 130.714 236.623L125.495 239.534C125.433 239.569 125.359 239.575 125.292 239.552C125.225 239.528 125.17 239.476 125.144 239.41L123.479 235.278C123.432 235.162 123.479 235.03 123.588 234.969L128.807 232.058L128.836 232.044L128.925 232.27L128.926 232.272L128.836 232.044ZM130.03 232.697C129.67 232.453 129.312 232.392 129.026 232.503L124.021 235.295L125.499 238.963L130.423 236.216C130.446 236.194 130.473 236.175 130.504 236.163L130.609 236.113C130.844 235.98 131.021 235.719 131.103 235.353C131.184 234.989 131.162 234.541 131.014 234.082L130.942 233.884C130.729 233.357 130.392 232.942 130.03 232.697Z" fill="#155C6D"/>
<path d="M125.4 239.282C126.172 238.958 126.416 237.779 125.942 236.648C125.468 235.517 124.458 234.862 123.684 235.185C122.912 235.51 122.669 236.689 123.143 237.82C123.617 238.951 124.627 239.605 125.4 239.282Z" fill="#DABDDA"/>
<path d="M123.772 234.895C124.205 234.785 124.663 234.905 125.061 235.163C125.516 235.459 125.918 235.947 126.171 236.552C126.425 237.157 126.492 237.786 126.382 238.318C126.273 238.848 125.98 239.308 125.496 239.511L125.313 239.572C124.88 239.682 124.422 239.562 124.025 239.305C123.569 239.01 123.167 238.522 122.913 237.916C122.66 237.311 122.594 236.681 122.703 236.15C122.813 235.619 123.105 235.159 123.588 234.956L123.772 234.895ZM124.79 235.579C124.473 235.374 124.159 235.309 123.892 235.377L123.781 235.414C123.492 235.535 123.277 235.827 123.19 236.25C123.103 236.672 123.152 237.199 123.372 237.724C123.593 238.249 123.933 238.654 124.294 238.888C124.657 239.123 125.015 239.173 125.304 239.053L125.409 238.999C125.644 238.857 125.819 238.588 125.895 238.218C125.982 237.796 125.933 237.269 125.713 236.744C125.493 236.219 125.152 235.813 124.79 235.579Z" fill="#155C6D"/>
<path d="M247.929 168.857C248.706 168.524 248.939 167.33 248.451 166.19C247.962 165.051 246.937 164.396 246.161 164.73C245.384 165.062 245.151 166.256 245.639 167.395C246.127 168.535 247.153 169.189 247.929 168.857Z" fill="#DABDDA"/>
<path d="M246.062 164.501C246.548 164.293 247.086 164.405 247.547 164.698C248.008 164.993 248.417 165.483 248.679 166.092L248.222 166.288C247.995 165.759 247.647 165.352 247.28 165.117C246.912 164.882 246.549 164.834 246.259 164.958L246.153 165.013C245.916 165.159 245.742 165.433 245.669 165.808C245.585 166.235 245.64 166.767 245.867 167.297L245.958 167.49C246.182 167.927 246.488 168.264 246.809 168.469C247.178 168.704 247.541 168.752 247.831 168.628L247.936 168.573C248.173 168.427 248.347 168.154 248.421 167.778C248.504 167.351 248.449 166.818 248.222 166.288L248.451 166.191L248.679 166.092L248.68 166.093C248.94 166.702 249.013 167.337 248.908 167.874C248.816 168.343 248.583 168.759 248.2 168.995L248.026 169.085C247.54 169.293 247.002 169.182 246.542 168.888C246.138 168.63 245.774 168.222 245.514 167.715L245.41 167.492C245.149 166.883 245.076 166.249 245.181 165.712C245.286 165.177 245.577 164.71 246.062 164.502V164.501Z" fill="#155C6D"/>
<path d="M243.596 170.535L242.411 167.661L246.035 165.598C246.58 165.385 247.288 165.854 247.612 166.647C247.936 167.44 247.765 168.258 247.221 168.472L243.597 170.535H243.596Z" fill="#70C5AD"/>
<path d="M245.944 165.367C246.315 165.222 246.714 165.319 247.044 165.538C247.376 165.758 247.663 166.116 247.842 166.553L247.902 166.718C248.03 167.102 248.057 167.491 247.985 167.828C247.906 168.201 247.696 168.534 247.343 168.686L247.344 168.687L243.72 170.751L243.596 170.534L243.597 170.535L243.72 170.751C243.682 170.772 243.64 170.783 243.597 170.783C243.496 170.783 243.405 170.722 243.366 170.629L243.597 170.535L243.596 170.534L243.366 170.629L242.182 167.756C242.134 167.64 242.18 167.507 242.288 167.445L245.912 165.383C245.923 165.377 245.933 165.371 245.944 165.367ZM246.769 165.952C246.532 165.795 246.309 165.763 246.135 165.826L242.724 167.768L243.718 170.179L247.098 168.256L247.192 168.21C247.335 168.128 247.448 167.966 247.499 167.725C247.55 167.484 247.534 167.185 247.432 166.875L247.382 166.741L247.324 166.611C247.18 166.318 246.978 166.091 246.769 165.952Z" fill="#155C6D"/>
<path d="M249.672 165.085L129.518 234.295C126.631 235.949 122.968 234.517 121.969 231.348L95.1783 145.978C94.1662 142.771 95.5358 139.292 98.4466 137.615L219.609 69.9904C222.175 68.5228 225.225 69.7286 226.149 72.5408L253.768 154.366C255.112 158.461 253.41 162.939 249.672 165.085Z" fill="#121212"/>
<path d="M136.323 230.564L197.927 88.1052L204.857 81.9448L141.713 227.484L136.323 230.564Z" fill="#155C6D"/>
<path d="M147.874 223.631L209.478 81.1717L219.488 73.4712L156.344 219.011L147.874 223.631Z" fill="#155C6D"/>
<path d="M219.489 69.7733C222.193 68.2287 225.411 69.5058 226.384 72.4618L254.003 154.286V154.288L254.124 154.683C255.273 158.78 253.516 163.163 249.795 165.3L249.796 165.301L129.642 234.511L129.394 234.08L249.548 164.87L249.883 164.668C253.284 162.511 254.798 158.303 253.532 154.443L225.915 72.62L226.149 72.5409L226.133 72.5457L225.915 72.62L225.914 72.618L225.826 72.3729C224.858 69.8839 222.083 68.8617 219.733 70.2059L219.731 70.2069L98.5679 137.832C95.847 139.401 94.5228 142.602 95.3306 145.613L95.4155 145.904L122.207 231.273C123.158 234.292 126.645 235.655 129.394 234.08L129.642 234.511C126.618 236.243 122.779 234.744 121.732 231.423L94.9409 146.053C93.8944 142.734 95.3123 139.134 98.3228 137.399L98.3257 137.398L219.489 69.7733Z" fill="#155C6D"/>
<path d="M227.532 76.7281L226.149 72.5477C225.346 70.1055 222.766 68.847 220.421 69.5189L120.236 125.08L98.4466 137.622C95.5358 139.299 94.1662 142.778 95.1783 145.985L96.423 150.082L227.532 76.7281Z" fill="#70C5AD"/>
<path d="M220.352 69.2797C222.82 68.5724 225.539 69.8961 226.385 72.4691L227.768 76.6498L227.778 76.6927C227.792 76.7928 227.745 76.8938 227.654 76.9447L96.5445 150.298L96.4927 150.32C96.4398 150.335 96.3828 150.333 96.3306 150.312C96.2609 150.284 96.207 150.226 96.1851 150.154L94.941 146.057V146.056C93.8957 142.738 95.3129 139.141 98.3228 137.407L120.113 124.865L120.116 124.863L220.3 69.3011L220.352 69.2797ZM225.837 72.4115C225.004 70.2495 222.659 69.1487 220.513 69.7504L120.357 125.297L98.5708 137.837L98.5699 137.836C95.8474 139.405 94.5227 142.607 95.3306 145.62L95.4156 145.911V145.912L96.5708 149.713L227.231 76.6107L225.914 72.6254L225.837 72.4115Z" fill="#155C6D"/>
<path d="M131.4 180.988C129.359 181.905 126.958 181.618 125.187 180.039C122.669 177.795 122.39 173.787 124.5 171.06L124.691 170.815C126.785 168.106 130.528 167.593 133.106 169.702C135.741 171.857 136.18 175.932 134.025 178.778L133.83 179.036C133.159 179.92 132.319 180.576 131.4 180.988Z" fill="#70C5AD"/>
<path d="M124.495 170.662C126.669 167.851 130.569 167.306 133.263 169.509L133.514 169.726C135.951 171.943 136.36 175.814 134.424 178.648L134.223 178.928L134.028 179.186C133.419 179.989 132.674 180.611 131.856 181.042L131.501 181.215C129.376 182.17 126.869 181.871 125.022 180.224V180.225C122.401 177.888 122.119 173.732 124.304 170.908L124.495 170.662ZM132.949 169.893C130.485 167.879 126.902 168.362 124.887 170.967L124.697 171.212C122.725 173.76 122.923 177.461 125.132 179.646L125.353 179.853L125.513 179.991C127.19 181.381 129.405 181.612 131.298 180.762L131.624 180.602C132.378 180.206 133.066 179.631 133.631 178.886L133.828 178.628L134.015 178.367C135.817 175.728 135.424 172.135 133.179 170.093L132.949 169.893Z" fill="#155C6D"/>
<path d="M163.322 164.766C161.445 165.608 159.225 165.332 157.578 163.862C155.235 161.772 154.944 158.056 156.87 155.535L157.043 155.308C158.956 152.804 162.407 152.341 164.806 154.308C167.257 156.316 167.696 160.098 165.728 162.727L165.55 162.966C164.938 163.784 164.168 164.388 163.323 164.767L163.322 164.766Z" fill="#C8DAE8"/>
<path d="M157.038 154.919C159.064 152.519 162.528 152.12 164.962 154.115H164.963C167.441 156.145 167.941 159.9 166.112 162.617L165.927 162.876L165.749 163.114V163.115L165.55 162.965L165.43 162.876L165.749 163.115C165.112 163.966 164.308 164.596 163.424 164.993C163.421 164.994 163.417 164.994 163.413 164.996C161.513 165.844 159.277 165.598 157.576 164.187L157.413 164.047C154.968 161.867 154.671 158.004 156.672 155.383L156.846 155.157L157.038 154.919ZM164.431 154.331C162.232 152.71 159.216 153.107 157.416 155.239L157.241 155.459L157.067 155.684L157.068 155.685C155.217 158.108 155.501 161.676 157.744 163.676L158.044 163.926C159.579 165.108 161.543 165.291 163.22 164.539L163.226 164.537C164.03 164.175 164.765 163.599 165.351 162.817L165.53 162.579L165.7 162.339C167.337 159.908 166.948 156.583 164.863 154.684L164.648 154.5L164.431 154.331Z" fill="#C8DAE8"/>
<path d="M154.822 152.551C157.981 148.784 163.377 148.163 167.166 151.29L167.53 151.607C171.074 154.855 171.718 160.512 168.955 164.643L168.668 165.05L168.386 165.43L167.987 165.134L168.268 164.754L168.543 164.366C171.173 160.432 170.551 155.05 167.194 151.973L166.849 151.673C163.282 148.728 158.194 149.301 155.202 152.871L154.92 153.226L154.644 153.587C151.763 157.386 152.1 162.925 155.405 166.214L155.734 166.526L155.973 166.734C158.478 168.826 161.764 169.187 164.556 167.925C164.559 167.924 164.561 167.923 164.563 167.922C165.86 167.335 167.045 166.402 167.987 165.134L168.186 165.283L168.386 165.43V165.431C167.392 166.768 166.139 167.757 164.762 168.379C164.759 168.381 164.754 168.381 164.75 168.382C161.694 169.757 158.081 169.302 155.402 166.895V166.896C151.592 163.474 151.125 157.405 154.249 153.287L154.523 152.925L154.822 152.551Z" fill="#C8DAE8"/>
<path d="M196.083 148.65C194.371 149.417 192.336 149.154 190.815 147.796C188.651 145.864 188.353 142.446 190.095 140.134L190.252 139.926C191.982 137.629 195.14 137.217 197.353 139.034C199.616 140.891 200.049 144.373 198.269 146.784L198.108 147.003C197.554 147.752 196.854 148.306 196.083 148.65Z" fill="#70C5AD"/>
<path d="M190.228 139.557C192.072 137.345 195.258 136.992 197.511 138.842L197.727 139.029C199.903 141.01 200.269 144.494 198.469 146.932L198.468 146.931L198.308 147.15C197.729 147.934 196.995 148.515 196.184 148.877L196.183 148.876C194.382 149.682 192.243 149.405 190.649 147.981V147.98C188.388 145.96 188.08 142.397 189.897 139.984L190.054 139.776L190.228 139.557ZM197.195 139.226C195.159 137.554 192.283 137.866 190.608 139.875L190.45 140.075L190.294 140.283C188.68 142.425 188.899 145.563 190.792 147.434L190.98 147.61L191.258 147.841C192.668 148.93 194.46 149.105 195.981 148.423L196.253 148.291C196.878 147.962 197.446 147.481 197.908 146.856L198.068 146.637H198.069C199.719 144.402 199.379 141.205 197.393 139.397L197.195 139.227V139.226Z" fill="#155C6D"/>
<path d="M227.3 133.386C225.631 134.133 223.636 133.867 222.136 132.525C220 130.618 219.679 127.256 221.365 124.99L221.518 124.786C223.191 122.535 226.279 122.143 228.463 123.938C230.694 125.773 231.148 129.197 229.426 131.561L229.27 131.775C228.734 132.51 228.053 133.05 227.301 133.386H227.3Z" fill="#70C5AD"/>
<path d="M221.319 124.637C223.077 122.273 226.327 121.861 228.62 123.746L228.834 123.931C230.912 125.824 231.343 129.095 229.788 131.472L229.626 131.706L229.471 131.921L229.253 132.201C228.73 132.83 228.095 133.303 227.403 133.613C227.401 133.613 227.398 133.613 227.397 133.614C225.748 134.349 223.803 134.147 222.271 132.96L221.97 132.71C219.739 130.717 219.404 127.21 221.166 124.841L221.319 124.637ZM228.305 124.13C226.232 122.425 223.306 122.796 221.717 124.934L221.716 124.935L221.562 124.819L221.454 124.739L221.716 124.935L221.565 125.138C219.955 127.302 220.262 130.519 222.301 132.34L222.575 132.568C223.964 133.644 225.718 133.822 227.199 133.16L227.201 133.159C227.912 132.84 228.56 132.328 229.07 131.628L229.225 131.414L229.373 131.2C230.794 129.027 230.398 126.027 228.5 124.298L228.305 124.13Z" fill="#155C6D"/>
<path d="M139.769 206.974C137.725 207.915 135.317 207.641 133.538 206.055C131.008 203.802 130.719 199.748 132.829 196.973L133.02 196.723C135.114 193.967 138.865 193.423 141.455 195.539C144.102 197.702 144.553 201.825 142.398 204.719L142.202 204.982C141.532 205.881 140.689 206.55 139.769 206.974Z" fill="#70C5AD"/>
<path d="M133.031 196.311C135.238 193.681 138.99 193.204 141.613 195.347L141.865 195.564C144.395 197.865 144.756 201.967 142.597 204.867L142.199 204.571C144.214 201.864 143.861 198.052 141.53 195.931L141.298 195.732C138.903 193.774 135.456 194.191 133.411 196.631L133.217 196.873L133.027 197.123C130.989 199.802 131.277 203.709 133.703 205.87L133.865 206.009C135.549 207.402 137.768 207.622 139.665 206.748L139.993 206.585C140.747 206.178 141.438 205.591 142.002 204.833L142.199 204.571L142.398 204.72L142.597 204.867V204.868L142.401 205.13C141.793 205.946 141.047 206.581 140.228 207.022L139.873 207.199C137.811 208.149 135.386 207.912 133.549 206.392L133.373 206.241C130.739 203.895 130.448 199.693 132.631 196.822L132.822 196.572L133.031 196.311Z" fill="#155C6D"/>
<path d="M171.575 189.841C169.695 190.705 167.47 190.441 165.815 188.964C163.46 186.865 163.161 183.108 165.086 180.545L165.259 180.313C167.171 177.768 170.63 177.276 173.04 179.249C175.501 181.264 175.95 185.088 173.984 187.761L173.806 188.003C173.194 188.834 172.422 189.451 171.576 189.84L171.575 189.841Z" fill="#70C5AD"/>
<path d="M165.252 179.922C167.277 177.482 170.751 177.054 173.197 179.056L173.432 179.259C175.716 181.338 176.135 184.976 174.367 187.645L174.184 187.909L174.006 188.15C173.372 189.012 172.568 189.654 171.686 190.061C171.683 190.062 171.681 190.065 171.679 190.066C169.712 190.97 167.38 190.694 165.649 189.149V189.15C163.194 186.961 162.889 183.056 164.888 180.395L165.086 180.545L165.284 180.693V180.694C163.433 183.159 163.727 186.77 165.98 188.779H165.98C167.558 190.187 169.674 190.438 171.466 189.617C171.468 189.616 171.47 189.615 171.472 189.614C172.279 189.243 173.019 188.654 173.605 187.856L173.783 187.614L173.954 187.37C175.591 184.897 175.193 181.534 173.098 179.627L172.882 179.441C170.66 177.622 167.494 177.996 165.634 180.239L165.458 180.463L165.284 180.693L164.888 180.395L165.061 180.164L165.252 179.922Z" fill="#155C6D"/>
<path d="M204.14 172.609C202.426 173.395 200.386 173.143 198.858 171.779C196.685 169.839 196.378 166.384 198.12 164.034L198.276 163.822C200.005 161.489 203.17 161.052 205.393 162.876C207.664 164.739 208.107 168.257 206.328 170.707L206.167 170.93C205.613 171.691 204.912 172.255 204.14 172.609Z" fill="#70C5AD"/>
<path d="M198.251 163.451C200.094 161.205 203.286 160.826 205.55 162.684L205.767 162.871C207.952 164.86 208.324 168.377 206.528 170.852L206.529 170.853L206.368 171.075L206.367 171.076L206.167 170.93L205.966 170.784L206.127 170.562L206.28 170.339C207.753 168.082 207.363 164.997 205.433 163.239L205.235 163.067C203.192 161.391 200.31 161.723 198.634 163.767L198.475 163.97L198.319 164.182L198.169 164.396C196.672 166.637 197.014 169.799 199.023 171.593V171.594C200.477 172.892 202.411 173.129 204.036 172.383L204.308 172.247C204.934 171.91 205.503 171.421 205.966 170.784L206.367 171.076C205.861 171.772 205.236 172.311 204.544 172.685L204.243 172.834C202.441 173.661 200.294 173.395 198.692 171.964L198.485 171.77C196.47 169.779 196.179 166.481 197.756 164.119L197.92 163.886L198.077 163.675L198.251 163.451Z" fill="#155C6D"/>
<path d="M235.223 156.459C233.552 157.224 231.552 156.968 230.045 155.621C227.901 153.706 227.571 150.309 229.256 148.007L229.408 147.8C231.081 145.514 234.175 145.097 236.367 146.9C238.608 148.741 239.07 152.2 237.349 154.601L237.194 154.818C236.658 155.563 235.976 156.114 235.223 156.459Z" fill="#70C5AD"/>
<path d="M229.377 147.434C231.166 145.229 234.293 144.872 236.525 146.708L236.739 146.893C238.825 148.794 239.265 152.096 237.713 154.508L237.551 154.745L237.395 154.963C236.905 155.645 236.295 156.174 235.62 156.539L235.327 156.685C233.566 157.492 231.459 157.219 229.879 155.806V155.805C227.639 153.804 227.297 150.264 229.056 147.861V147.86L229.256 148.008L229.457 148.154C227.896 150.285 228.145 153.405 230.024 155.26L230.211 155.436L230.485 155.664C231.88 156.744 233.638 156.912 235.12 156.233L235.383 156.101C235.992 155.772 236.545 155.295 236.992 154.673L237.148 154.456L237.295 154.238C238.716 152.029 238.311 148.997 236.405 147.26L236.21 147.092C234.129 145.381 231.199 145.774 229.609 147.947L229.457 148.154L229.056 147.86L229.208 147.653L229.377 147.434Z" fill="#155C6D"/>
<path d="M102.508 140.471C102.14 139.589 101.123 139.239 100.206 139.709C99.2526 140.199 98.7785 141.378 99.1811 142.322C99.5816 143.26 100.677 143.554 101.595 143.003C102.477 142.474 102.873 141.349 102.508 140.471Z" fill="#C8DAE8"/>
<path d="M100.288 139.4C101.271 139.009 102.336 139.411 102.737 140.375H102.736C103.128 141.315 102.754 142.473 101.9 143.098L101.723 143.216C100.759 143.795 99.5792 143.551 99.0499 142.616L98.9522 142.419C98.4933 141.344 99.0355 140.031 100.093 139.489L100.288 139.4ZM102.215 140.433C101.889 139.837 101.175 139.58 100.471 139.862L100.319 139.93C99.4695 140.366 99.0631 141.413 99.4093 142.224L99.4786 142.365C99.8569 143.036 100.71 143.245 101.467 142.79L101.609 142.696C102.248 142.228 102.534 141.394 102.33 140.71L102.278 140.566L102.215 140.433Z" fill="#155C6D"/>
<path d="M108.562 137.316C108.196 136.443 107.194 136.094 106.294 136.556C105.358 137.036 104.898 138.199 105.299 139.132C105.698 140.061 106.777 140.356 107.677 139.814C108.543 139.294 108.926 138.185 108.562 137.316Z" fill="#C8DAE8"/>
<path d="M106.373 136.248C107.342 135.864 108.391 136.267 108.79 137.22L108.859 137.408C109.131 138.3 108.764 139.335 107.98 139.911L107.805 140.027C106.855 140.598 105.693 140.351 105.167 139.425L105.071 139.23C104.614 138.167 105.139 136.87 106.18 136.335L106.373 136.248ZM108.332 137.412C108.046 136.729 107.291 136.416 106.554 136.71L106.408 136.776C105.578 137.202 105.183 138.232 105.528 139.034L105.596 139.174C105.972 139.839 106.811 140.045 107.549 139.602L107.688 139.509C108.311 139.05 108.589 138.231 108.384 137.555L108.332 137.412Z" fill="#155C6D"/>
<path d="M114.209 134.302C113.844 133.438 112.855 133.089 111.972 133.543C111.053 134.014 110.605 135.162 111.005 136.086C111.403 137.005 112.467 137.3 113.35 136.768C114.2 136.257 114.572 135.162 114.209 134.302Z" fill="#C8DAE8"/>
<path d="M111.858 133.322C112.862 132.807 114.013 133.201 114.438 134.205V134.206L114.506 134.392C114.777 135.274 114.422 136.299 113.65 136.867L113.479 136.981C112.542 137.545 111.395 137.293 110.873 136.377L110.777 136.184C110.322 135.132 110.833 133.85 111.858 133.323V133.322ZM113.917 134.268C113.572 133.641 112.8 133.397 112.086 133.763L111.939 133.848C111.229 134.305 110.911 135.242 111.233 135.987L111.302 136.126C111.676 136.785 112.501 136.989 113.222 136.555L113.357 136.466C114.01 135.984 114.273 135.092 113.981 134.399L113.917 134.268Z" fill="#155C6D"/>
<path d="M215.767 96.1401L215.697 96.3784H215.698L215.767 96.1401C215.84 96.1615 215.899 96.216 215.927 96.2866C215.956 96.3572 215.95 96.4365 215.913 96.5024L214.61 98.7642L214.18 98.5161L215.324 96.5288L213.221 95.9175L213.36 95.4409L215.767 96.1401Z" fill="#155C6D"/>
<path d="M207.714 98.8201L206.475 100.689L208.634 101.405L208.478 101.877L206.011 101.059L205.959 101.035C205.911 101.005 205.874 100.96 205.855 100.905C205.83 100.832 205.84 100.751 205.882 100.686L207.3 98.5466L207.714 98.8201Z" fill="#155C6D"/>
<path d="M165.713 127.448L115.251 155.834C114.445 156.287 113.428 155.863 113.181 154.972C112.907 153.981 113.345 152.93 114.243 152.427L164.12 124.497C165.051 123.975 166.225 124.458 166.518 125.484C166.737 126.246 166.403 127.059 165.713 127.448Z" fill="#70C5AD"/>
<path d="M164.203 124.181C165.234 123.753 166.441 124.31 166.757 125.416L166.796 125.58C166.947 126.348 166.624 127.134 165.978 127.575L165.835 127.664L115.373 156.05C114.485 156.549 113.38 156.143 113.006 155.228L112.942 155.039C112.637 153.937 113.124 152.769 114.122 152.21L163.999 124.28L164.203 124.181ZM166.28 125.552C166.046 124.736 165.155 124.323 164.392 124.64L164.242 124.713L114.364 152.644C113.566 153.091 113.177 154.025 113.42 154.906L113.466 155.04C113.729 155.683 114.506 155.968 115.129 155.617L165.59 127.231L165.698 127.165C166.181 126.835 166.422 126.248 166.309 125.674L166.28 125.552Z" fill="#155C6D"/>
<path d="M309.062 126.441C305.817 134.352 293.443 140.235 279.04 140.235C264.637 140.235 252.264 134.352 249.018 126.441C244.961 129.889 242.73 133.946 242.73 138.409V171.473C242.73 183.238 258.958 192.772 279.04 192.772C299.122 192.772 315.351 183.238 315.351 171.473V138.409C315.351 133.946 312.917 129.889 309.062 126.441Z" fill="#C8DAE8"/>
<path d="M315.102 138.409C315.102 134.141 312.828 130.228 309.153 126.859C307.422 130.757 303.527 134.122 298.34 136.53C293.004 139.006 286.274 140.483 279.041 140.483C271.807 140.483 265.077 139.006 259.741 136.53C254.55 134.12 250.653 130.752 248.924 126.85C245.069 130.216 242.978 134.131 242.978 138.409V171.473C242.978 177.232 246.952 182.489 253.48 186.321C260.003 190.149 269.036 192.524 279.041 192.524C289.045 192.524 298.078 190.149 304.6 186.321C311.129 182.489 315.102 177.232 315.102 171.473V138.409ZM315.599 171.473C315.599 177.48 311.458 182.872 304.852 186.749C298.241 190.629 289.118 193.021 279.041 193.021C268.964 193.021 259.841 190.629 253.229 186.749C246.623 182.872 242.482 177.48 242.482 171.473V138.409C242.482 133.854 244.761 129.733 248.857 126.251C248.918 126.2 249 126.181 249.077 126.2C249.154 126.218 249.218 126.273 249.248 126.346C250.838 130.222 254.681 133.634 259.95 136.08C265.213 138.522 271.871 139.987 279.041 139.987C286.21 139.987 292.868 138.522 298.131 136.08C303.399 133.634 307.242 130.222 308.833 126.346L308.862 126.294C308.897 126.247 308.948 126.212 309.007 126.199C309.085 126.181 309.168 126.202 309.228 126.255C313.113 129.73 315.599 133.849 315.599 138.409V171.473Z" fill="#155C6D"/>
<path d="M279.043 188.721C297.192 188.721 311.905 180.093 311.905 169.45C311.905 158.806 297.192 150.178 279.043 150.178C260.894 150.178 246.181 158.806 246.181 169.45C246.181 180.093 260.894 188.721 279.043 188.721Z" fill="#155C6D"/>
<path d="M311.657 169.45C311.657 164.253 308.063 159.502 302.155 156.037C296.252 152.576 288.082 150.427 279.043 150.427C270.005 150.427 261.834 152.576 255.932 156.037C250.024 159.502 246.429 164.253 246.429 169.45C246.429 174.647 250.024 179.397 255.932 182.862C261.834 186.323 270.005 188.472 279.043 188.472C288.082 188.472 296.252 186.323 302.155 182.862C308.063 179.397 311.656 174.647 311.657 169.45ZM312.154 169.45C312.153 174.896 308.391 179.781 302.406 183.291C296.414 186.804 288.154 188.968 279.043 188.969C269.932 188.969 261.671 186.804 255.68 183.291C249.695 179.781 245.933 174.896 245.933 169.45C245.933 164.004 249.695 159.118 255.68 155.608C261.671 152.095 269.932 149.93 279.043 149.93C288.154 149.93 296.414 152.095 302.406 155.608C308.391 159.118 312.154 164.004 312.154 169.45Z" fill="#155C6D"/>
<path d="M279.044 136.585C293.832 136.585 305.82 130.046 305.82 121.98C305.82 113.914 293.832 107.375 279.044 107.375C264.256 107.375 252.268 113.914 252.268 121.98C252.268 130.046 264.256 136.585 279.044 136.585Z" fill="#C8DAE8"/>
<path d="M305.571 121.98C305.571 118.081 302.67 114.495 297.859 111.871C293.056 109.251 286.405 107.623 279.044 107.623C271.684 107.623 265.032 109.251 260.23 111.871C255.418 114.495 252.516 118.081 252.516 121.98C252.516 125.88 255.418 129.465 260.23 132.09C265.032 134.709 271.684 136.337 279.044 136.337C286.405 136.337 293.056 134.709 297.859 132.09C302.67 129.465 305.571 125.88 305.571 121.98ZM306.068 121.98C306.068 126.147 302.976 129.864 298.097 132.525C293.208 135.192 286.471 136.834 279.044 136.834C271.617 136.834 264.88 135.192 259.991 132.525C255.112 129.864 252.02 126.147 252.02 121.98C252.02 117.814 255.112 114.096 259.991 111.434C264.88 108.768 271.617 107.127 279.044 107.127C286.471 107.127 293.208 108.768 298.097 111.434C302.976 114.096 306.068 117.814 306.068 121.98Z" fill="#155C6D"/>
<path d="M279.044 112.243C292.229 112.243 303.183 117.517 305.414 124.414C305.617 123.603 305.82 122.791 305.82 121.98C305.82 113.866 293.852 107.375 279.044 107.375C264.236 107.375 252.268 113.866 252.268 121.98C252.268 122.791 252.471 123.806 252.674 124.414C254.702 117.517 265.859 112.243 279.044 112.243Z" fill="#155C6D"/>
<path d="M279.044 111.995C285.668 111.995 291.739 113.319 296.442 115.517C300.792 117.551 304.001 120.348 305.36 123.564C305.481 123.027 305.571 122.503 305.571 121.98C305.571 118.056 302.675 114.471 297.866 111.852C293.067 109.239 286.415 107.623 279.044 107.623C271.673 107.623 265.022 109.239 260.222 111.852C255.413 114.471 252.516 118.056 252.516 121.98C252.516 122.477 252.595 123.059 252.704 123.567C253.984 120.346 257.199 117.549 261.57 115.516C266.299 113.319 272.421 111.995 279.044 111.995ZM306.068 121.98C306.068 122.827 305.857 123.669 305.655 124.474C305.628 124.582 305.533 124.658 305.422 124.662C305.311 124.665 305.212 124.595 305.178 124.49C304.092 121.135 300.867 118.133 296.232 115.967C291.603 113.803 285.605 112.491 279.044 112.491C272.482 112.491 266.433 113.804 261.779 115.968C257.117 118.135 253.897 121.135 252.912 124.484C252.882 124.588 252.786 124.66 252.678 124.662C252.597 124.663 252.522 124.626 252.475 124.563L252.438 124.493L252.359 124.239C252.179 123.607 252.02 122.717 252.02 121.98C252.02 117.79 255.106 114.072 259.984 111.417C264.87 108.756 271.607 107.127 279.044 107.127C286.481 107.127 293.217 108.756 298.104 111.417C302.981 114.072 306.068 117.79 306.068 121.98Z" fill="#155C6D"/>
<path d="M247.117 153.593C243.656 151.485 244.041 144.742 248.062 138.446C251.878 132.258 257.924 128.823 261.287 131.244L264.856 133.557C268.317 135.665 267.932 142.408 263.911 148.703C259.891 154.999 254.05 158.327 250.686 155.906L247.117 153.593Z" fill="#95B781"/>
<path d="M267.437 139.575C267.606 136.801 266.832 134.473 264.991 133.348L261.433 131.042L261.262 130.926C259.482 129.769 257.091 130.092 254.724 131.398C252.271 132.753 249.777 135.192 247.851 138.316L247.852 138.317C245.825 141.492 244.705 144.789 244.536 147.575C244.367 150.352 245.143 152.682 246.988 153.806L250.55 156.115C252.345 157.398 254.756 157.126 257.172 155.792C259.6 154.451 262.093 152.011 264.12 148.837L264.49 148.24C266.285 145.25 267.278 142.187 267.437 139.575ZM266.942 139.545C266.789 142.063 265.826 145.05 264.064 147.984L263.702 148.57C261.708 151.692 259.271 154.065 256.932 155.356C254.587 156.652 252.399 156.833 250.831 155.704L250.821 155.698L247.246 153.381L247.098 153.285C245.584 152.265 244.873 150.217 245.032 147.606C245.195 144.92 246.279 141.7 248.271 138.58L248.04 138.432L248.273 138.576C250.163 135.511 252.599 133.139 254.964 131.834C257.338 130.523 259.575 130.318 261.142 131.445L261.291 131.24L261.287 131.244L261.142 131.445L261.152 131.452L264.721 133.765L264.727 133.769C266.342 134.754 267.106 136.85 266.942 139.545ZM248.063 138.446L248.271 138.58L248.273 138.576L248.063 138.446Z" fill="#155C6D"/>
<path d="M251.353 140.824C255.234 134.65 261.19 131.411 264.656 133.59C268.122 135.769 267.786 142.54 263.905 148.714C260.024 154.888 254.068 158.127 250.602 155.948C247.136 153.769 247.472 146.998 251.353 140.824Z" fill="#C8DAE8"/>
<path d="M264.524 133.8C266.147 134.82 266.922 136.946 266.788 139.642C266.654 142.329 265.617 145.524 263.695 148.582C261.773 151.64 259.343 153.96 256.979 155.245C254.608 156.534 252.357 156.758 250.734 155.738C249.111 154.717 248.337 152.592 248.471 149.896C248.604 147.209 249.641 144.014 251.564 140.956C253.486 137.898 255.916 135.578 258.279 134.293C260.651 133.004 262.901 132.78 264.524 133.8ZM264.788 133.38C262.945 132.222 260.485 132.528 258.042 133.857C255.59 135.19 253.102 137.575 251.143 140.691C249.184 143.807 248.113 147.084 247.974 149.871C247.836 152.649 248.627 154.999 250.469 156.158C252.312 157.316 254.773 157.009 257.216 155.681C259.667 154.348 262.156 151.962 264.115 148.846C266.074 145.73 267.145 142.453 267.283 139.666C267.421 136.889 266.631 134.538 264.788 133.38Z" fill="#155C6D"/>
<path d="M309.498 165.854C312.959 163.746 312.574 157.004 308.553 150.708C304.737 144.519 298.691 141.084 295.328 143.505L291.759 145.818C288.298 147.926 288.683 154.669 292.704 160.965C296.724 167.261 302.565 170.588 305.929 168.167L309.498 165.854Z" fill="#95B781"/>
<path d="M289.178 151.836C289.009 149.062 289.783 146.734 291.624 145.609L295.182 143.303L295.353 143.187C297.133 142.03 299.523 142.353 301.891 143.66C304.343 145.014 306.838 147.453 308.764 150.577L308.763 150.578C310.79 153.753 311.91 157.051 312.079 159.836C312.248 162.613 311.471 164.943 309.627 166.067L306.064 168.376C304.27 169.66 301.859 169.387 299.443 168.053C297.015 166.712 294.522 164.272 292.495 161.098L292.125 160.501C290.33 157.512 289.337 154.448 289.178 151.836ZM289.673 151.806C289.826 154.324 290.789 157.311 292.551 160.245L292.913 160.831C294.907 163.953 297.344 166.326 299.683 167.618C302.028 168.913 304.215 169.094 305.784 167.966L305.793 167.959L309.369 165.642L309.517 165.547C311.031 164.526 311.741 162.478 311.583 159.867C311.42 157.181 310.336 153.961 308.344 150.841L308.575 150.693L308.341 150.838C306.452 147.773 304.016 145.4 301.651 144.095C299.277 142.784 297.04 142.579 295.473 143.706L295.324 143.501L295.327 143.505L295.473 143.706L295.462 143.714L291.894 146.026L291.888 146.031C290.272 147.015 289.509 149.111 289.673 151.806ZM308.552 150.707L308.344 150.841L308.341 150.838L308.552 150.707Z" fill="#155C6D"/>
<path d="M305.262 153.085C301.381 146.911 295.425 143.673 291.959 145.851C288.493 148.03 288.829 154.802 292.71 160.975C296.591 167.149 302.547 170.388 306.013 168.209C309.479 166.03 309.143 159.259 305.262 153.085Z" fill="#C8DAE8"/>
<path d="M292.091 146.061C290.468 147.082 289.693 149.207 289.827 151.903C289.961 154.59 290.998 157.786 292.92 160.843C294.842 163.901 297.272 166.221 299.636 167.506C302.007 168.795 304.258 169.019 305.881 167.999C307.504 166.978 308.278 164.853 308.144 162.157C308.01 159.47 306.973 156.275 305.051 153.217C303.129 150.16 300.699 147.84 298.336 146.555C295.964 145.265 293.714 145.041 292.091 146.061ZM291.827 145.641C293.67 144.483 296.13 144.789 298.573 146.118C301.025 147.451 303.513 149.837 305.472 152.953C307.431 156.069 308.502 159.346 308.64 162.132C308.779 164.91 307.988 167.26 306.145 168.419C304.302 169.577 301.842 169.271 299.399 167.942C296.948 166.609 294.459 164.223 292.5 161.107C290.541 157.991 289.47 154.714 289.332 151.928C289.194 149.15 289.984 146.8 291.827 145.641Z" fill="#155C6D"/>
<path d="M279.717 150.902L274.816 168.992L281.476 186.533L297.526 166.811L290.866 149.27L279.717 150.902Z" fill="#155C6D"/>
<path d="M290.915 149.027C290.997 149.043 291.068 149.1 291.099 149.182L297.759 166.723C297.79 166.806 297.775 166.899 297.72 166.968L281.668 186.69C281.612 186.758 281.524 186.792 281.437 186.778C281.349 186.764 281.275 186.704 281.244 186.621L274.584 169.081C274.565 169.032 274.563 168.978 274.577 168.927L279.477 150.837L279.506 150.77C279.544 150.709 279.607 150.667 279.681 150.656L279.715 150.901L279.716 150.902L279.681 150.656L290.831 149.024L290.915 149.027ZM279.914 151.124L275.076 168.978L281.555 186.042L297.243 166.766L290.704 149.544L279.914 151.124Z" fill="#155C6D"/>
<path d="M274.817 168.996L251.417 165.119L258.077 182.66L281.477 186.536L274.817 168.996Z" fill="#A0A3D0"/>
<path d="M274.857 168.75L274.816 168.995L274.817 168.995L274.857 168.75C274.944 168.765 275.017 168.825 275.049 168.907L281.708 186.448C281.74 186.531 281.726 186.625 281.669 186.694C281.613 186.762 281.524 186.795 281.436 186.781L281.477 186.536L281.476 186.536L281.436 186.781L258.037 182.906L258.077 182.66L258.077 182.66L258.037 182.906C257.949 182.891 257.876 182.831 257.844 182.749L251.185 165.207C251.153 165.124 251.169 165.031 251.225 164.962C251.281 164.894 251.37 164.86 251.458 164.874L274.857 168.75ZM258.258 182.439L281.091 186.22L274.635 169.216L251.802 165.434L258.258 182.439Z" fill="#155C6D"/>
<path d="M293.016 148.092L269.46 145.762L255.764 147.865L279.319 150.195L293.016 148.092Z" fill="#A0A3D0"/>
<path d="M293.085 147.853C293.187 147.882 293.261 147.975 293.264 148.085C293.267 148.21 293.177 148.318 293.054 148.337L279.357 150.441L279.295 150.442L279.32 150.196L279.319 150.194L279.295 150.442L255.739 148.112L255.694 148.103C255.592 148.073 255.518 147.98 255.515 147.871C255.512 147.746 255.603 147.638 255.726 147.619L269.423 145.516L269.485 145.515L293.04 147.845L293.085 147.853ZM269.467 146.011L257.748 147.811L279.311 149.944L291.033 148.144L269.467 146.011Z" fill="#155C6D"/>
<path d="M279.322 150.193L255.766 147.863L249.784 169.957L273.231 172.328L279.322 150.193Z" fill="#C8DAE8"/>
<path d="M279.346 149.947C279.419 149.954 279.485 149.993 279.527 150.053C279.568 150.113 279.581 150.189 279.562 150.259L273.47 172.394L273.455 172.436C273.41 172.529 273.311 172.586 273.206 172.575L273.231 172.328L273.23 172.327L273.206 172.575L249.759 170.205L249.706 170.193C249.655 170.176 249.61 170.143 249.579 170.098C249.538 170.038 249.526 169.962 249.545 169.892L255.526 147.798C255.558 147.681 255.67 147.604 255.791 147.616L279.346 149.947ZM255.95 148.13L250.099 169.739L273.047 172.06L279.004 150.41L255.95 148.13Z" fill="#155C6D"/>
<path d="M279.321 150.197L279.691 151.172L293.346 148.96L293.018 148.094L279.321 150.197Z" fill="#155C6D"/>
<path d="M279.731 151.417C279.614 151.436 279.501 151.37 279.459 151.26L279.691 151.172L279.731 151.417ZM293.065 147.85C293.148 147.866 293.219 147.924 293.25 148.006L293.578 148.872C293.604 148.942 293.598 149.02 293.561 149.085C293.524 149.149 293.459 149.193 293.386 149.205L279.731 151.417L279.691 151.171L279.459 151.26L279.089 150.285C279.062 150.215 279.069 150.136 279.106 150.072C279.144 150.007 279.209 149.963 279.283 149.952L292.98 147.849L293.065 147.85ZM279.662 150.395L279.851 150.894L293.005 148.763L292.856 148.369L279.662 150.395Z" fill="#155C6D"/>
<path d="M279.323 150.192L279.693 151.167L273.846 172.961L273.233 172.327L279.323 150.192Z" fill="#155C6D"/>
<path d="M279.311 149.944C279.419 149.939 279.517 150.003 279.555 150.104L279.926 151.078C279.944 151.127 279.947 151.181 279.933 151.232L279.693 151.166L279.692 151.166L279.933 151.232L274.086 173.025L273.846 172.96L273.846 172.961L274.086 173.025C274.063 173.111 273.995 173.179 273.908 173.201C273.843 173.218 273.775 173.208 273.719 173.174L273.667 173.133L273.054 172.499C272.994 172.436 272.97 172.346 272.993 172.261L279.084 150.126C279.112 150.022 279.204 149.949 279.311 149.944ZM273.509 172.255L273.719 172.473L279.432 151.181L279.36 150.991L273.509 172.255Z" fill="#155C6D"/>
<path d="M273.233 172.332L273.846 172.966L250.29 170.636L249.785 169.961L273.233 172.332Z" fill="#155C6D"/>
<path d="M250.266 170.883C250.196 170.877 250.133 170.84 250.091 170.785L250.29 170.637L250.266 170.883ZM273.257 172.085C273.315 172.091 273.37 172.117 273.411 172.159L274.025 172.794L274.069 172.856C274.102 172.923 274.103 173.004 274.069 173.074C274.024 173.168 273.925 173.224 273.821 173.214L250.266 170.883L250.291 170.636L250.091 170.785L249.586 170.11C249.527 170.031 249.521 169.924 249.57 169.839C249.618 169.753 249.712 169.704 249.81 169.714L273.257 172.085L273.232 172.332L273.233 172.332L273.257 172.085ZM250.323 170.264L250.423 170.399L273.197 172.652L273.117 172.569L250.323 170.264Z" fill="#155C6D"/>
<path d="M254.229 147.088L258.733 147.856L262.185 143.571L257.831 142.87L254.229 147.088Z" fill="#C8DAE8"/>
<path d="M262.225 143.326C262.312 143.34 262.385 143.4 262.417 143.482C262.449 143.565 262.434 143.658 262.379 143.727L258.926 148.012C258.87 148.082 258.78 148.116 258.691 148.101L258.733 147.856L258.732 147.855L258.691 148.101L254.187 147.332C254.099 147.317 254.025 147.256 253.995 147.172C253.965 147.088 253.982 146.994 254.04 146.926L257.642 142.709C257.698 142.643 257.785 142.611 257.871 142.625L262.225 143.326ZM254.701 146.916L258.63 147.586L261.724 143.748L257.929 143.137L254.701 146.916Z" fill="#155C6D"/>
<path d="M254.231 147.088L257.027 154.451L261.489 155.111L258.734 147.857L254.231 147.088Z" fill="#A0A3D0"/>
<path d="M258.776 147.612L258.839 147.631C258.897 147.658 258.943 147.707 258.966 147.768L261.721 155.023C261.752 155.105 261.737 155.197 261.682 155.266C261.627 155.335 261.54 155.369 261.453 155.356L256.991 154.697C256.902 154.684 256.827 154.624 256.795 154.54L257.027 154.452L257.027 154.451L256.795 154.54L253.998 147.176C253.967 147.093 253.982 146.999 254.039 146.93C254.095 146.862 254.185 146.828 254.273 146.843L258.776 147.612ZM257.206 154.226L261.105 154.803L258.552 148.078L254.617 147.406L257.206 154.226Z" fill="#155C6D"/>
<path d="M258.734 147.851L261.488 155.105L264.941 150.821L262.187 143.566L258.734 147.851Z" fill="#155C6D"/>
<path d="M262.225 143.321C262.313 143.335 262.387 143.395 262.419 143.478L265.174 150.733C265.205 150.815 265.19 150.908 265.135 150.977L261.681 155.262C261.625 155.33 261.537 155.365 261.45 155.351C261.384 155.34 261.325 155.304 261.287 155.251L261.256 155.194L258.502 147.939L258.487 147.876C258.481 147.812 258.499 147.747 258.54 147.695L261.993 143.411L262.04 143.366C262.093 143.328 262.159 143.311 262.225 143.321ZM259.016 147.895L261.565 154.611L264.657 150.775L262.108 144.06L259.016 147.895Z" fill="#155C6D"/>
<path d="M304.632 153.686C306.045 152.983 306.738 152.223 307.074 151.585L307.076 151.578C307.18 151.376 307.251 151.19 307.294 151.018C307.652 150.018 308.383 147.627 309.019 143.341C310.827 137.706 309.652 131.818 308.613 129.616C307.559 127.384 297.278 119.662 293.904 117.38C290.529 115.101 275.724 110.963 272.864 110.169C270.002 109.377 268.217 109.302 264.573 110.97C260.969 112.622 261.124 123.069 261.58 127.97C262.036 132.875 265.199 134.238 265.199 134.238L272.695 138.241L272.988 139.459L289.52 150.258L296.454 154.44L296.647 155.45C297.016 155.651 297.353 155.808 297.618 155.896C299.19 156.423 301.346 155.32 304.634 153.682L304.632 153.686Z" fill="#155C6D"/>
<path d="M308 128.376C307.605 127.939 307.098 127.44 306.513 126.9C305.342 125.821 303.847 124.572 302.283 123.323C299.546 121.138 296.587 118.946 294.755 117.665L294.043 117.175L293.684 116.95C292.771 116.413 291.35 115.802 289.683 115.172C287.769 114.449 285.508 113.691 283.266 112.981C278.781 111.561 274.361 110.327 272.93 109.929L272.401 109.788C271.189 109.479 270.133 109.317 268.994 109.4C267.693 109.493 266.306 109.904 264.47 110.744L264.288 110.836C263.392 111.329 262.75 112.319 262.288 113.547C261.792 114.863 261.485 116.501 261.307 118.226C260.995 121.247 261.073 124.576 261.251 127.009L261.333 127.994C261.566 130.501 262.494 132.117 263.375 133.108C263.814 133.603 264.241 133.94 264.559 134.154C264.718 134.262 264.85 134.338 264.944 134.389C264.992 134.414 265.029 134.433 265.056 134.445C265.066 134.45 265.075 134.455 265.082 134.458L272.48 138.407L272.746 139.517C272.757 139.563 272.782 139.604 272.816 139.637L272.852 139.666L289.384 150.465L289.528 150.247L289.52 150.258L289.384 150.465L289.392 150.471L289.392 150.47L296.231 154.594L296.403 155.497C296.417 155.57 296.463 155.633 296.528 155.668L296.647 155.45L296.648 155.451L296.528 155.668C296.904 155.872 297.255 156.037 297.54 156.132L297.541 156.131C298.409 156.422 299.407 156.254 300.567 155.835C301.725 155.416 303.095 154.726 304.724 153.915C304.73 153.912 304.737 153.912 304.743 153.909C306.191 153.188 306.928 152.395 307.294 151.701C307.297 151.696 307.299 151.69 307.301 151.685C307.407 151.478 307.482 151.283 307.531 151.098C307.894 150.081 308.625 147.679 309.263 143.395C310.173 140.547 310.33 137.641 310.131 135.171C309.931 132.699 309.373 130.645 308.838 129.51L308.775 129.388C308.614 129.098 308.342 128.754 308 128.376ZM307.632 128.709C307.922 129.029 308.138 129.302 308.276 129.521L308.388 129.722C308.892 130.789 309.44 132.781 309.636 135.211C309.832 137.638 309.675 140.485 308.783 143.265L308.774 143.304L309.02 143.341L309.022 143.342L308.774 143.304C308.139 147.576 307.412 149.952 307.06 150.934L307.054 150.956L307.291 151.017L307.295 151.018L307.054 150.956C307.015 151.109 306.952 151.278 306.856 151.465L306.853 151.473C306.546 152.052 305.902 152.772 304.54 153.454C304.535 153.456 304.528 153.457 304.523 153.459C302.873 154.281 301.528 154.958 300.398 155.367C299.266 155.777 298.401 155.897 297.698 155.661L297.619 155.897L297.618 155.896L297.698 155.661L297.697 155.66L297.499 155.587C297.315 155.512 297.101 155.41 296.869 155.286L296.698 154.393L296.683 154.343C296.663 154.295 296.627 154.255 296.582 154.228L289.657 150.05L289.656 150.05L273.207 139.304L272.936 138.183C272.924 138.131 272.895 138.085 272.856 138.051L272.812 138.022L265.316 134.019L265.298 134.011L265.298 134.01L265.297 134.011C265.296 134.01 265.294 134.009 265.292 134.008C265.288 134.006 265.281 134.003 265.271 133.998C265.251 133.989 265.22 133.973 265.18 133.952C265.099 133.908 264.981 133.84 264.837 133.743C264.548 133.548 264.154 133.238 263.746 132.779C262.932 131.863 262.05 130.345 261.828 127.947L261.747 126.971C261.57 124.558 261.493 121.26 261.802 118.277C261.978 116.572 262.279 114.982 262.754 113.722C263.201 112.533 263.787 111.68 264.526 111.271L264.676 111.196C266.484 110.368 267.811 109.982 269.03 109.894C270.095 109.817 271.093 109.967 272.278 110.269L272.797 110.408C274.226 110.805 278.639 112.037 283.115 113.455C285.353 114.163 287.606 114.918 289.507 115.637C291.416 116.358 292.949 117.035 293.766 117.586L293.766 117.586C295.447 118.723 298.854 121.22 301.973 123.711C303.533 124.956 305.018 126.198 306.176 127.265C306.756 127.799 307.251 128.288 307.632 128.709Z" fill="#155C6D"/>
<path d="M296.468 138.947C292.374 136.787 286.944 133.795 282.686 133.751C278.424 133.705 280.563 135.29 283.201 137.009C285.752 138.673 298.03 148.464 303.655 145.137C303.949 144.962 303.995 144.551 303.745 144.314C302.658 143.285 299.752 140.68 296.468 138.947Z" fill="#C8DAE8"/>
<path d="M303.915 144.133L303.915 144.135C302.823 143.101 299.899 140.476 296.583 138.727L294.991 137.886C293.343 137.02 291.545 136.099 289.735 135.328C287.326 134.301 284.867 133.525 282.688 133.502L282.305 133.503C281.449 133.514 280.853 133.603 280.491 133.774C280.277 133.875 280.106 134.023 280.042 134.237C279.979 134.447 280.039 134.657 280.138 134.837C280.331 135.19 280.753 135.576 281.257 135.965C281.513 136.163 281.801 136.369 282.106 136.578L283.065 137.217C284.314 138.032 288.056 140.918 292.156 143.162C294.21 144.287 296.374 145.263 298.387 145.747C300.269 146.199 302.056 146.228 303.497 145.505L303.781 145.351L303.859 145.297C304.225 145.016 304.261 144.461 303.915 144.133ZM303.615 144.545C303.696 144.67 303.661 144.844 303.529 144.923L303.275 145.062C301.985 145.709 300.336 145.704 298.503 145.263C296.552 144.795 294.431 143.843 292.394 142.727C288.312 140.492 284.639 137.651 283.336 136.802L282.387 136.169C282.087 135.963 281.808 135.764 281.56 135.572C281.054 135.182 280.712 134.851 280.573 134.598C280.507 134.477 280.509 134.411 280.518 134.38C280.526 134.352 280.559 134.291 280.703 134.223C280.967 134.098 281.469 134.011 282.304 133.999L282.683 133.999C284.762 134.021 287.148 134.764 289.541 135.784C291.333 136.548 293.115 137.46 294.758 138.325L296.351 139.167C299.605 140.883 302.491 143.47 303.574 144.494L303.615 144.545Z" fill="#155C6D"/>
<path d="M275.629 137.761C279.447 134.403 274.274 131.598 269.095 130.519C264.753 129.614 264.797 119.487 265.656 115.335C266.296 112.234 268.292 110.412 270.807 109.713C268.956 109.449 267.275 109.73 264.576 110.964C260.971 112.616 261.127 123.064 261.583 127.965C262.039 132.87 265.202 134.233 265.202 134.233L272.698 138.235L272.99 139.45C274.117 138.992 274.935 138.369 275.63 137.758L275.629 137.76L275.629 137.761Z" fill="#C8CA89"/>
<path d="M271.056 109.697C271.048 109.58 270.959 109.484 270.842 109.467C268.929 109.194 267.199 109.491 264.473 110.738L264.291 110.831C263.396 111.324 262.753 112.313 262.291 113.541C261.795 114.857 261.488 116.495 261.31 118.22C260.997 121.241 261.077 124.57 261.255 127.004L261.336 127.988C261.569 130.495 262.496 132.111 263.378 133.103C263.817 133.597 264.243 133.935 264.561 134.149C264.72 134.256 264.853 134.333 264.947 134.383C264.994 134.408 265.032 134.427 265.059 134.44C265.072 134.446 265.082 134.452 265.09 134.455C265.091 134.456 265.092 134.456 265.093 134.456L272.483 138.401L272.748 139.508C272.765 139.578 272.812 139.638 272.876 139.671C272.924 139.696 272.979 139.703 273.032 139.694L273.083 139.68L273.505 139.496C274.452 139.049 275.172 138.491 275.789 137.95C275.79 137.949 275.792 137.949 275.793 137.948L275.971 137.785C276.832 136.973 277.225 136.157 277.195 135.356C277.162 134.506 276.655 133.747 275.898 133.097C274.387 131.8 271.748 130.818 269.145 130.276L268.963 130.232C268.066 129.978 267.364 129.27 266.826 128.234C266.251 127.128 265.882 125.68 265.671 124.112C265.251 120.976 265.475 117.435 265.898 115.385L265.961 115.107C266.596 112.454 268.282 110.826 270.424 110.092L270.874 109.952L270.951 109.916C271.02 109.867 271.061 109.785 271.056 109.697ZM269.626 109.873C267.637 110.752 266.092 112.431 265.479 114.989L265.412 115.284C264.978 117.387 264.751 120.985 265.179 124.178C265.393 125.773 265.773 127.286 266.385 128.463C266.958 129.568 267.751 130.405 268.825 130.709L269.044 130.762C271.62 131.299 274.159 132.259 275.574 133.474C276.28 134.08 276.673 134.72 276.698 135.374C276.723 136.021 276.391 136.756 275.475 137.565C275.473 137.567 275.471 137.568 275.469 137.569L275.467 137.57L275.467 137.572L275.466 137.572C274.838 138.123 274.118 138.674 273.162 139.104L272.939 138.177C272.922 138.108 272.877 138.05 272.814 138.016L265.318 134.013L265.3 134.005C265.299 134.004 265.297 134.003 265.295 134.002C265.291 134 265.283 133.997 265.274 133.992C265.254 133.983 265.223 133.967 265.182 133.946C265.102 133.902 264.984 133.834 264.839 133.737C264.551 133.542 264.157 133.233 263.749 132.774C262.935 131.858 262.053 130.339 261.83 127.942L261.75 126.965C261.573 124.552 261.495 121.255 261.804 118.272C261.98 116.566 262.282 114.976 262.757 113.716C263.204 112.527 263.79 111.675 264.53 111.266L264.68 111.191C266.776 110.232 268.232 109.864 269.626 109.873Z" fill="#155C6D"/>
<path d="M291.213 117.144C288.815 121.801 289.043 127.501 290.597 133.248C290.672 133.526 290.413 133.779 290.136 133.696C288.702 133.267 285.165 132.261 282.738 132.023C279.631 131.716 277.606 131.282 276.375 126.695C275.221 122.402 275.645 116.11 278.554 113.505C278.905 113.19 279.388 113.065 279.851 113.163C281.633 113.547 286.669 114.727 291.035 116.641C291.229 116.725 291.311 116.958 291.211 117.145L291.213 117.143L291.213 117.144Z" fill="#C8DAE8"/>
<path d="M291.448 117.219C291.584 116.912 291.447 116.549 291.134 116.413L291.134 116.415C286.744 114.49 281.69 113.306 279.904 112.921L279.903 112.92L279.7 112.89C279.225 112.846 278.75 112.998 278.39 113.32L278.389 113.32C276.87 114.68 276.023 116.975 275.694 119.434C275.385 121.747 275.528 124.247 276.029 126.345L276.135 126.76C276.758 129.081 277.594 130.401 278.711 131.169C279.681 131.835 280.833 132.061 282.143 132.209L282.714 132.27C285.113 132.506 288.628 133.505 290.065 133.934L290.065 133.934C290.5 134.064 290.908 133.7 290.854 133.27L290.837 133.183C289.291 127.462 289.077 121.835 291.434 117.258L291.448 117.219ZM290.936 116.869C290.998 116.895 291.023 116.969 290.993 117.028L291.137 117.105L291.114 117.092L290.993 117.028C290.989 117.034 290.987 117.041 290.985 117.047C288.555 121.781 288.798 127.546 290.357 133.313L290.362 133.347C290.361 133.412 290.306 133.465 290.24 133.463L290.207 133.458L288.785 133.049C287.065 132.572 284.603 131.956 282.762 131.775L282.194 131.715C280.902 131.568 279.859 131.354 278.994 130.759C278.014 130.087 277.222 128.897 276.614 126.631L276.513 126.229C276.026 124.191 275.886 121.753 276.187 119.5C276.509 117.089 277.329 114.935 278.719 113.69L278.72 113.69C279.011 113.428 279.413 113.324 279.8 113.407L279.801 113.406C281.469 113.766 285.98 114.821 290.115 116.52L290.935 116.869L290.936 116.869L291.028 116.657L291.119 116.449L290.936 116.869Z" fill="#155C6D"/>
<path d="M293.183 133.598C293.183 133.598 302.242 137.896 307.261 143.739C307.678 143.417 308.017 142.903 308.221 142.325C309.837 137.278 308.785 132.002 307.855 130.03C306.91 128.031 297.702 121.113 294.677 119.07C294.552 118.986 294.407 118.897 294.248 118.808L293.64 119.11C291.681 123.828 291.649 129.265 293.183 133.598Z" fill="#155C6D"/>
<path d="M307.325 128.902C306.97 128.51 306.515 128.062 305.99 127.579C304.941 126.611 303.602 125.491 302.201 124.372C299.399 122.135 296.336 119.891 294.817 118.865L294.719 119.009L294.774 118.927L294.817 118.865L294.815 118.865L294.605 118.73C294.53 118.684 294.452 118.638 294.37 118.591C294.316 118.561 294.254 118.552 294.195 118.565L294.138 118.586L293.53 118.888C293.476 118.914 293.434 118.96 293.411 119.015L293.64 119.11L293.641 119.11L293.411 119.015C291.428 123.791 291.394 129.291 292.949 133.682L292.97 133.725C292.987 133.753 293.009 133.778 293.035 133.797L293.077 133.823L293.078 133.823C293.079 133.824 293.081 133.825 293.083 133.826C293.087 133.828 293.094 133.831 293.102 133.835C293.119 133.843 293.145 133.854 293.178 133.871C293.244 133.903 293.344 133.952 293.472 134.016C293.727 134.144 294.098 134.334 294.56 134.58C295.484 135.072 296.768 135.789 298.208 136.688C300.913 138.375 304.153 140.696 306.595 143.363L307.073 143.901L307.107 143.934C307.182 143.994 307.286 144.004 307.371 143.961L307.412 143.936L307.581 143.792C307.964 143.437 308.266 142.943 308.455 142.407L308.459 142.4L308.604 141.919C309.294 139.514 309.409 137.086 309.241 135.004C309.062 132.787 308.561 130.944 308.079 129.924L308.023 129.814C307.876 129.551 307.632 129.241 307.325 128.902ZM306.958 129.235C307.303 129.617 307.53 129.921 307.631 130.136L307.63 130.136C308.079 131.087 308.569 132.868 308.745 135.044C308.92 137.216 308.781 139.763 307.985 142.249C307.823 142.703 307.576 143.104 307.283 143.389C304.762 140.519 301.309 138.037 298.471 136.267C297.02 135.361 295.725 134.638 294.794 134.141C294.328 133.893 293.953 133.702 293.693 133.572C293.564 133.507 293.463 133.458 293.395 133.424C293.392 133.423 293.389 133.421 293.385 133.419C291.914 129.185 291.949 123.897 293.836 119.291L294.239 119.09C294.348 119.154 294.449 119.216 294.539 119.276L294.538 119.276C296.044 120.293 299.097 122.529 301.891 124.76C303.288 125.876 304.617 126.988 305.654 127.944C306.173 128.422 306.617 128.858 306.958 129.235Z" fill="#155C6D"/>
<path d="M270.369 125.356C269.162 118.649 269.608 116.781 272.038 111.717L272.129 111.76C269.671 116.881 269.258 118.615 270.467 125.339L270.367 125.357L270.368 125.355L270.369 125.356Z" fill="#C8DAE8"/>
<path d="M272.363 111.678C272.341 111.616 272.296 111.565 272.237 111.536L272.146 111.493L272.04 111.717L272.039 111.717L272.146 111.493C272.022 111.434 271.873 111.486 271.814 111.61L271.381 112.525C270.422 114.587 269.829 116.154 269.593 117.887C269.324 119.861 269.52 122.032 270.121 125.377C270.123 125.406 270.129 125.436 270.142 125.463C270.162 125.506 270.196 125.538 270.235 125.563C270.238 125.565 270.241 125.568 270.245 125.57C270.265 125.582 270.287 125.59 270.31 125.595C270.313 125.596 270.315 125.598 270.318 125.598C270.335 125.602 270.352 125.601 270.37 125.601C270.381 125.601 270.393 125.602 270.404 125.6L270.411 125.601L270.511 125.583C270.646 125.558 270.735 125.429 270.711 125.294L270.503 124.093C270.066 121.419 269.947 119.621 270.169 117.982C270.422 116.11 271.124 114.428 272.353 111.868L272.369 111.822C272.381 111.775 272.38 111.725 272.363 111.678Z" fill="#155C6D"/>
<path d="M270.45 125.348C269.243 118.641 269.689 116.774 272.12 111.709L272.21 111.753C269.752 116.873 269.338 118.608 270.548 125.331L270.448 125.349L270.45 125.348Z" fill="#C8CA89"/>
<path d="M272.445 111.671C272.423 111.609 272.377 111.557 272.318 111.528L272.227 111.485L272.121 111.71L272.12 111.709L272.227 111.485C272.104 111.426 271.955 111.478 271.895 111.602L271.463 112.518C270.504 114.58 269.911 116.146 269.674 117.879C269.405 119.854 269.601 122.025 270.202 125.372C270.203 125.382 270.204 125.392 270.206 125.402C270.231 125.516 270.331 125.596 270.443 125.598L270.492 125.593L270.593 125.575C270.727 125.551 270.816 125.422 270.792 125.287L270.585 124.085C270.147 121.412 270.028 119.613 270.25 117.974C270.504 116.103 271.206 114.42 272.435 111.86L272.451 111.815C272.463 111.767 272.461 111.717 272.445 111.671Z" fill="#155C6D"/>
<path d="M273.489 133.843C275.396 135.104 275.29 136.957 273.258 137.975C271.225 138.997 268.031 138.798 266.125 137.536C264.218 136.275 264.321 134.423 266.358 133.404C268.391 132.382 271.585 132.581 273.491 133.842L273.49 133.843L273.489 133.843Z" fill="#C8DAE8"/>
<path d="M275.098 136.014C275.147 135.153 274.63 134.309 273.647 133.651L273.629 133.635L273.437 133.514C272.465 132.929 271.228 132.594 269.987 132.518C268.664 132.436 267.312 132.646 266.247 133.181L266.052 133.284C265.106 133.812 264.56 134.551 264.514 135.364C264.466 136.232 264.991 137.084 265.987 137.744C266.985 138.404 268.306 138.778 269.629 138.859C270.869 138.936 272.136 138.757 273.167 138.293L273.37 138.197C274.433 137.664 275.05 136.882 275.098 136.014ZM273.352 134.05C274.261 134.652 274.638 135.357 274.603 135.986C274.567 136.614 274.115 137.268 273.147 137.753L272.962 137.841C272.022 138.264 270.84 138.437 269.66 138.364C268.401 138.286 267.17 137.931 266.262 137.329C265.352 136.727 264.975 136.022 265.01 135.393C265.045 134.765 265.498 134.111 266.468 133.625L266.346 133.379L266.391 133.467L266.468 133.625L266.47 133.625L266.654 133.537C267.594 133.115 268.776 132.941 269.957 133.014C271.206 133.091 272.428 133.443 273.335 134.036C273.341 134.041 273.347 134.045 273.353 134.049L273.352 134.05Z" fill="#155C6D"/>
<path d="M297.988 150.33C299.894 151.591 299.789 153.444 297.757 154.462C295.724 155.484 292.53 155.285 290.623 154.024C288.717 152.762 288.82 150.91 290.856 149.891C292.889 148.869 296.083 149.068 297.99 150.329L297.988 150.33Z" fill="#C8DAE8"/>
<path d="M299.597 152.501C299.646 151.639 299.127 150.793 298.142 150.135L298.128 150.122L297.936 150.002C296.964 149.416 295.726 149.082 294.486 149.005C293.163 148.924 291.811 149.134 290.746 149.669L290.551 149.771C289.605 150.299 289.059 151.038 289.013 151.852C288.964 152.719 289.49 153.571 290.486 154.231C291.484 154.891 292.804 155.265 294.127 155.347C295.368 155.423 296.634 155.244 297.665 154.78L297.868 154.684C298.932 154.151 299.548 153.369 299.597 152.501ZM298.016 150.651C298.806 151.226 299.134 151.883 299.101 152.473C299.066 153.101 298.614 153.755 297.645 154.24L297.461 154.328C296.521 154.751 295.339 154.924 294.159 154.851C292.9 154.774 291.669 154.418 290.76 153.817C289.851 153.215 289.474 152.509 289.509 151.88C289.544 151.252 289.996 150.598 290.967 150.113L290.845 149.866L290.889 149.954L290.967 150.113L290.968 150.113L291.153 150.025C292.093 149.602 293.275 149.429 294.455 149.502C295.708 149.579 296.934 149.931 297.841 150.527L297.851 150.537L298.016 150.651Z" fill="#155C6D"/>
<path d="M282.837 145.89L282.739 145.826L287.893 143.259C288.62 142.897 289.547 142.17 289.863 141.439L289.956 141.479C289.632 142.236 288.682 142.981 287.939 143.351L282.837 145.892L282.836 145.89L282.837 145.89Z" fill="#C8DAE8"/>
<path d="M290.1 141.277L290.056 141.252L289.963 141.212L289.864 141.439L289.863 141.439L289.963 141.212C289.903 141.185 289.834 141.184 289.772 141.208C289.711 141.232 289.662 141.28 289.635 141.341C289.498 141.659 289.217 141.994 288.868 142.301C288.522 142.605 288.126 142.865 287.782 143.036L282.628 145.604C282.548 145.644 282.495 145.723 282.49 145.813C282.486 145.902 282.529 145.987 282.604 146.036L282.702 146.097C282.751 146.13 282.81 146.146 282.869 146.138L282.948 146.114L288.049 143.573C288.44 143.379 288.882 143.088 289.269 142.747C289.653 142.408 290.002 142.003 290.184 141.577C290.231 141.467 290.193 141.343 290.1 141.277Z" fill="#155C6D"/>
<path d="M282.918 145.942L282.82 145.879L287.934 143.331C288.661 142.969 289.589 142.243 289.905 141.511L289.997 141.552C289.673 142.308 288.724 143.054 287.98 143.423L282.919 145.945L282.918 145.943L282.918 145.942Z" fill="#C8CA89"/>
<path d="M290.141 141.349L290.097 141.325L290.005 141.284L289.906 141.511L289.905 141.511L290.005 141.284C289.944 141.257 289.876 141.256 289.814 141.28C289.752 141.304 289.703 141.352 289.677 141.413C289.54 141.731 289.259 142.066 288.91 142.373C288.563 142.677 288.168 142.937 287.823 143.109L282.709 145.656L282.654 145.693C282.606 145.736 282.575 145.798 282.572 145.865C282.568 145.932 282.592 145.996 282.635 146.045L282.684 146.087L282.783 146.151L282.783 146.15C282.856 146.198 282.949 146.208 283.029 146.168L288.091 143.646C288.482 143.451 288.923 143.161 289.31 142.819C289.694 142.48 290.043 142.075 290.226 141.649C290.272 141.54 290.235 141.415 290.141 141.349Z" fill="#155C6D"/>
<path d="M288.93 149.875L288.832 149.811C291.125 148.669 293.329 148.197 295.272 148.461C295.49 148.49 295.709 148.456 295.9 148.361L298.797 146.918C299.731 146.453 299.791 145.72 299.793 145.713L299.894 145.72C299.893 145.752 299.832 146.517 298.843 147.01L295.945 148.453C295.736 148.557 295.499 148.595 295.259 148.563C293.336 148.3 291.205 148.745 288.929 149.877L288.928 149.876L288.93 149.875Z" fill="#C8DAE8"/>
<path d="M300.139 145.679C300.121 145.568 300.029 145.48 299.912 145.472L299.811 145.465L299.794 145.713L299.554 145.645C299.552 145.655 299.55 145.663 299.549 145.665L299.547 145.68L299.546 145.69C299.546 145.693 299.545 145.699 299.543 145.706C299.541 145.721 299.536 145.744 299.528 145.774C299.512 145.835 299.482 145.923 299.426 146.025C299.317 146.225 299.105 146.487 298.686 146.696L295.789 148.139L295.677 148.184C295.561 148.221 295.435 148.232 295.306 148.215C293.299 147.943 291.044 148.431 288.721 149.589C288.641 149.628 288.588 149.708 288.583 149.797C288.578 149.887 288.622 149.971 288.697 150.02L288.786 150.077C288.86 150.13 288.956 150.141 289.04 150.099C291.285 148.982 293.365 148.555 295.225 148.809L295.226 148.809L295.259 148.563L295.268 148.49L295.226 148.809C295.478 148.843 295.729 148.813 295.959 148.72L296.056 148.675L298.953 147.232C300.049 146.687 300.139 145.821 300.142 145.728L300.139 145.679ZM299.811 145.465C299.694 145.456 299.587 145.532 299.554 145.645L299.793 145.713L299.811 145.465Z" fill="#155C6D"/>
<path d="M288.983 149.912L288.885 149.849C291.179 148.707 293.355 148.249 295.296 148.514C295.515 148.543 295.733 148.509 295.924 148.415L298.822 146.972C299.755 146.507 299.816 145.773 299.818 145.766L299.919 145.773C299.918 145.806 299.857 146.571 298.867 147.064L295.97 148.506C295.761 148.611 295.524 148.649 295.283 148.616C293.36 148.354 291.259 148.782 288.984 149.916L288.982 149.915L288.983 149.912Z" fill="#C8CA89"/>
<path d="M300.164 145.732C300.145 145.621 300.053 145.534 299.937 145.525L299.835 145.518L299.819 145.766L299.579 145.699C299.576 145.709 299.574 145.716 299.574 145.719L299.571 145.734L299.571 145.743C299.57 145.747 299.569 145.752 299.568 145.76C299.565 145.775 299.56 145.798 299.552 145.828C299.536 145.889 299.506 145.977 299.451 146.078C299.342 146.278 299.129 146.541 298.71 146.749L295.814 148.192L295.702 148.238C295.586 148.274 295.459 148.286 295.33 148.269L294.952 148.226C293.047 148.056 290.954 148.542 288.775 149.627L288.887 149.85L288.876 149.866L288.885 149.85L288.775 149.627C288.695 149.667 288.643 149.746 288.638 149.835C288.633 149.924 288.676 150.01 288.751 150.058L288.84 150.116C288.914 150.169 289.011 150.18 289.095 150.138C291.338 149.021 293.389 148.608 295.249 148.862L295.25 148.862L295.283 148.616L295.293 148.544L295.25 148.862C295.502 148.896 295.753 148.866 295.983 148.773L296.08 148.729L298.977 147.286C300.073 146.74 300.164 145.874 300.167 145.781L300.164 145.732ZM299.835 145.518C299.718 145.51 299.611 145.586 299.579 145.699L299.817 145.766L299.835 145.518Z" fill="#155C6D"/>
<path d="M308.696 145.352C308.696 145.352 308.158 145.395 307.164 145.187C306.435 145.034 305.703 145.461 305.503 146.178C305.213 147.221 305.089 148.719 306.103 149.994C306.611 150.634 307.236 151.225 307.236 151.225C307.236 151.225 308.276 148.199 308.698 145.35L308.696 145.352Z" fill="#155C6D"/>
<path d="M308.818 145.133C308.771 145.107 308.719 145.098 308.669 145.104C308.666 145.105 308.663 145.105 308.659 145.105C308.645 145.106 308.623 145.106 308.594 145.107C308.534 145.108 308.441 145.106 308.317 145.099C308.071 145.085 307.7 145.046 307.215 144.944L307.055 144.918C306.257 144.828 305.486 145.316 305.264 146.111L305.742 146.244C305.896 145.695 306.434 145.348 306.999 145.411L307.112 145.43C307.622 145.537 308.017 145.58 308.288 145.595C308.331 145.598 308.37 145.598 308.407 145.599C308.194 146.918 307.86 148.256 307.569 149.289C307.414 149.842 307.271 150.307 307.168 150.633C307.153 150.679 307.14 150.723 307.126 150.764C307.099 150.737 307.069 150.708 307.039 150.677C306.822 150.453 306.545 150.151 306.298 149.84L306.133 149.615C305.369 148.482 305.478 147.192 305.742 146.244L305.502 146.178L305.264 146.111L305.263 146.111C304.964 147.187 304.823 148.783 305.909 150.149L305.908 150.149C306.169 150.477 306.459 150.791 306.681 151.022C306.792 151.137 306.888 151.233 306.956 151.3C306.989 151.333 307.016 151.359 307.035 151.377C307.044 151.386 307.052 151.393 307.057 151.398C307.059 151.401 307.061 151.402 307.063 151.404L307.065 151.404L307.065 151.405C307.126 151.463 307.213 151.486 307.295 151.466C307.377 151.446 307.443 151.385 307.471 151.305L307.471 151.303C307.472 151.302 307.472 151.299 307.473 151.297L307.517 151.167C307.546 151.078 307.589 150.947 307.642 150.783C307.747 150.452 307.89 149.983 308.048 149.424C308.362 148.306 308.73 146.826 308.943 145.386C308.958 145.284 308.908 145.183 308.818 145.133Z" fill="#155C6D"/>
<path d="M279.042 103.924C262.002 103.924 248.208 112.038 248.208 121.978C248.208 131.918 262.002 140.032 279.042 140.032C296.081 140.032 309.875 131.918 309.875 121.978C309.875 112.038 295.878 103.924 279.042 103.924ZM279.042 136.583C264.233 136.583 252.265 130.092 252.265 121.978C252.265 113.864 264.233 107.373 279.042 107.373C293.85 107.373 305.818 113.864 305.818 121.978C305.818 130.092 293.85 136.583 279.042 136.583Z" fill="#C8DAE8"/>
<path d="M309.626 121.978C309.626 117.134 306.214 112.687 300.647 109.438C295.087 106.193 287.423 104.172 279.041 104.172C270.558 104.172 262.895 106.193 257.361 109.438C251.821 112.687 248.457 117.133 248.456 121.978C248.456 126.823 251.821 131.27 257.361 134.519C262.895 137.764 270.558 139.784 279.041 139.784C287.524 139.784 295.188 137.764 300.722 134.519C306.262 131.27 309.626 126.823 309.626 121.978ZM305.57 121.978C305.57 118.054 302.672 114.469 297.864 111.851C293.064 109.238 286.412 107.622 279.041 107.622C271.67 107.622 265.019 109.238 260.219 111.851C255.411 114.469 252.514 118.054 252.514 121.978C252.514 125.902 255.41 129.488 260.219 132.106C265.019 134.719 271.67 136.335 279.041 136.335C286.412 136.335 293.064 134.719 297.864 132.106C302.672 129.488 305.57 125.902 305.57 121.978ZM306.066 121.978C306.066 126.168 302.978 129.886 298.101 132.542C293.215 135.202 286.478 136.832 279.041 136.832C271.604 136.832 264.868 135.202 259.982 132.542C255.104 129.886 252.017 126.168 252.017 121.978C252.017 117.788 255.105 114.07 259.982 111.415C264.868 108.754 271.605 107.125 279.041 107.125C286.478 107.125 293.215 108.754 298.101 111.415C302.978 114.07 306.066 117.788 306.066 121.978ZM310.123 121.978C310.123 127.073 306.59 131.653 300.973 134.947C295.35 138.244 287.597 140.281 279.041 140.281C270.485 140.281 262.732 138.244 257.11 134.947C251.493 131.653 247.96 127.073 247.96 121.978C247.96 116.884 251.493 112.303 257.11 109.009C262.732 105.712 270.486 103.676 279.041 103.676C287.496 103.676 295.249 105.713 300.897 109.009C306.537 112.302 310.123 116.882 310.123 121.978Z" fill="#155C6D"/>
<path d="M248.208 122.182C248.208 132.122 262.002 140.236 279.042 140.236C296.081 140.236 309.875 132.122 309.875 122.182V129.079C309.875 139.019 296.081 147.133 279.042 147.133C262.002 147.133 248.208 139.019 248.208 129.079V122.182Z" fill="#6EA8E9"/>
<path d="M309.626 125.458C308.469 129.228 305.355 132.581 300.973 135.15C295.35 138.447 287.597 140.484 279.041 140.484C270.486 140.484 262.732 138.447 257.11 135.15C252.726 132.58 249.613 129.226 248.456 125.455V129.079C248.457 133.924 251.821 138.371 257.361 141.619C262.895 144.864 270.558 146.885 279.041 146.885C287.524 146.885 295.188 144.864 300.722 141.619C306.262 138.371 309.626 133.924 309.626 129.079V125.458ZM310.123 129.079C310.123 134.174 306.589 138.755 300.973 142.048C295.35 145.345 287.597 147.381 279.041 147.381C270.486 147.381 262.732 145.345 257.11 142.048C251.493 138.755 247.961 134.174 247.96 129.079V122.182C247.96 122.044 248.071 121.934 248.208 121.934C248.328 121.934 248.428 122.019 248.452 122.132L248.456 122.182L248.466 122.635C248.669 127.304 251.994 131.575 257.361 134.722C262.895 137.967 270.558 139.987 279.041 139.987C287.525 139.987 295.188 137.967 300.722 134.722C306.262 131.473 309.626 127.027 309.626 122.182C309.626 122.045 309.737 121.934 309.874 121.934C309.994 121.934 310.094 122.019 310.118 122.132L310.123 122.182V129.079Z" fill="#155C6D"/>
<path d="M309.555 92.5443C309.175 95.1268 310.96 97.5249 313.542 97.9047C316.125 98.2845 318.523 96.4995 318.903 93.917C319.283 91.3344 317.498 88.9363 314.915 88.5566C312.333 88.1768 309.935 89.9618 309.555 92.5443Z" fill="#C8DAE8"/>
<path d="M309.282 92.5046C309.684 89.7715 312.222 87.882 314.955 88.2838C317.688 88.6858 319.577 91.2234 319.176 93.9567C318.774 96.6896 316.236 98.5791 313.503 98.1774C310.77 97.7755 308.88 95.2378 309.282 92.5046ZM314.875 88.8297C312.443 88.4722 310.186 90.1527 309.828 92.5846C309.471 95.0162 311.151 97.2739 313.583 97.6315C316.014 97.9889 318.272 96.3085 318.63 93.8766C318.987 91.445 317.307 89.1874 314.875 88.8297Z" fill="#155C6D"/>
<path d="M250.98 71.8518C266.689 70.9743 267.303 70.3491 267.958 54.6287C268.836 70.3378 269.461 70.9517 285.182 71.6108C269.472 72.4883 268.859 73.1136 268.199 88.834C267.322 73.1248 266.697 72.5109 250.98 71.8518Z" fill="#C8DAE8"/>
<path d="M267.957 54.3806C268.089 54.3797 268.199 54.4827 268.207 54.615C268.426 58.5458 268.629 61.5131 269.053 63.7712C269.477 66.0278 270.116 67.539 271.178 68.5867C272.241 69.6344 273.761 70.2511 276.024 70.6433C277.722 70.9376 279.817 71.1027 282.418 71.2361L285.192 71.363L285.24 71.3699C285.349 71.3961 285.429 71.4932 285.43 71.6091C285.431 71.7414 285.328 71.8516 285.196 71.8591L282.424 72.0242C279.826 72.1938 277.733 72.3877 276.04 72.7058C273.783 73.1297 272.271 73.7681 271.223 74.8308C270.176 75.8935 269.559 77.414 269.167 79.6765C268.774 81.9407 268.613 84.9107 268.448 88.8445L268.441 88.8923C268.415 89.0012 268.317 89.082 268.201 89.0828C268.068 89.0835 267.959 88.9795 267.952 88.8474C267.732 84.9169 267.529 81.9502 267.105 79.6921C266.681 77.4354 266.043 75.9235 264.98 74.8757C263.917 73.8281 262.397 73.2113 260.135 72.8191C258.438 72.5248 256.343 72.3598 253.743 72.2263L250.969 72.1003L250.921 72.0935C250.813 72.0673 250.733 71.9692 250.732 71.8533C250.731 71.721 250.834 71.6116 250.966 71.6043C254.897 71.3847 257.865 71.1817 260.123 70.7576C262.379 70.3337 263.89 69.6943 264.937 68.6316C265.985 67.5689 266.602 66.0487 266.994 63.7859C267.386 61.5218 267.546 58.5516 267.71 54.6179L267.717 54.5701C267.744 54.4614 267.841 54.3815 267.957 54.3806ZM267.989 59.0007C267.869 60.9004 267.719 62.5086 267.483 63.8709C267.084 66.1738 266.443 67.812 265.292 68.9802C264.14 70.1485 262.51 70.8134 260.213 71.2449C258.853 71.5004 257.244 71.6746 255.343 71.8211C257.246 71.941 258.856 72.0934 260.22 72.3298C262.523 72.729 264.161 73.3706 265.329 74.5222C266.497 75.674 267.162 77.3032 267.593 79.6003C267.848 80.9589 268.022 82.5643 268.168 84.4617C268.288 82.5621 268.441 80.9538 268.677 79.5916C269.076 77.2886 269.718 75.6504 270.87 74.4822C272.021 73.3139 273.651 72.649 275.948 72.2175C277.308 71.9621 278.916 71.7868 280.816 71.6404C278.913 71.5205 277.303 71.3699 275.939 71.1336C273.636 70.7344 271.998 70.0919 270.83 68.9402C269.661 67.7885 268.996 66.1599 268.565 63.863C268.31 62.5044 268.135 60.8983 267.989 59.0007Z" fill="#155C6D"/>
</svg>
