<svg width="172" height="172" viewBox="0 0 172 172" fill="none" xmlns="http://www.w3.org/2000/svg">
<path d="M141.426 26.8806C142.491 26.8806 143.354 26.0172 143.354 24.9522C143.354 23.8871 142.491 23.0237 141.426 23.0237C140.361 23.0237 139.498 23.8871 139.498 24.9522C139.498 26.0172 140.361 26.8806 141.426 26.8806Z" fill="#94B2C9" stroke="#07303A" stroke-width="0.482114"/>
<path d="M127.503 52.4594C129.266 52.4594 130.696 51.0299 130.696 49.2665C130.696 47.5031 129.266 46.0736 127.503 46.0736C125.74 46.0736 124.31 47.5031 124.31 49.2665C124.31 51.0299 125.74 52.4594 127.503 52.4594Z" fill="#94B2C9" stroke="#07303A" stroke-width="0.723171"/>
<path d="M31.2534 74.514C33.0168 74.514 34.4463 73.0845 34.4463 71.3211C34.4463 69.5578 33.0168 68.1283 31.2534 68.1283C29.49 68.1283 28.0605 69.5578 28.0605 71.3211C28.0605 73.0845 29.49 74.514 31.2534 74.514Z" fill="#94B2C9" stroke="#07303A" stroke-width="0.723171"/>
<path d="M162.299 110.28H157.95C157.889 110.28 157.829 110.264 157.775 110.233L92.5675 72.5857C88.664 70.3319 82.7581 70.0877 79.3792 72.0394L13.743 109.935C13.696 109.962 13.6417 109.978 13.5856 109.982L8.71076 110.233C8.52445 110.242 8.37793 110.396 8.37793 110.584V114.799L8.41049 114.823C8.30015 116.382 9.3529 118.05 11.5905 119.341L78.4313 157.931C82.3348 160.185 88.239 160.429 91.6215 158.477L160.356 118.793C161.782 117.97 162.491 116.886 162.587 115.741L162.621 112.46L162.301 110.282L162.299 110.28Z" fill="#07303A"/>
<path d="M10.3114 113.813L10.3819 113.865L10.3385 114.956C10.277 115.804 11.1272 116.839 12.558 117.668L79.3988 156.258C82.7072 158.168 87.8625 158.418 90.6554 156.804L159.388 117.123C159.936 116.803 160.604 116.278 160.662 115.578L160.689 112.592L160.635 112.214H157.433L91.6032 74.2605C88.3002 72.3539 83.1396 72.1007 80.3449 73.7124L14.3035 111.838L13.6849 111.91L10.3096 112.082V113.811L10.3114 113.813Z" fill="#07303A"/>
<path d="M91.7842 73.9473L157.53 111.852H160.948L161.051 112.568L161.023 115.608C160.985 116.068 160.748 116.447 160.473 116.741C160.197 117.034 159.861 117.266 159.571 117.435L90.8365 157.117C89.3591 157.971 87.2952 158.315 85.2032 158.213C83.1063 158.112 80.9319 157.56 79.2183 156.571L12.3774 117.981C11.6352 117.551 11.0273 117.059 10.6092 116.549C10.1973 116.046 9.93994 115.488 9.97769 114.936L10.0139 114.027L9.94824 113.961V111.738L13.6549 111.55L14.1876 111.487L80.1644 73.3993C81.6427 72.5467 83.7085 72.2038 85.8013 72.3059C87.8988 72.4083 90.0734 72.9598 91.7842 73.9473Z" fill="#07303A"/>
<path d="M160.356 113.81L91.6211 153.494C88.2403 155.446 82.3362 155.202 78.4309 152.948L11.59 114.356C7.68653 112.102 7.26326 108.692 10.644 106.741L79.3788 67.0561C82.7595 65.1044 88.6636 65.3486 92.5671 67.6024L159.408 106.193C163.312 108.446 163.737 111.858 160.356 113.81Z" fill="#94B2C9"/>
<path fill-rule="evenodd" clip-rule="evenodd" d="M85.7624 66.1134C83.4199 66.0164 81.1729 66.4381 79.56 67.3692L10.8253 107.054C9.22091 107.98 8.59651 109.197 8.74471 110.39C8.89641 111.612 9.87128 112.946 11.7713 114.043L78.6121 152.635C80.5056 153.727 82.8989 154.34 85.2381 154.437C87.5808 154.534 89.8279 154.112 91.4408 153.181L160.176 113.496C161.78 112.57 162.404 111.353 162.255 110.159C162.103 108.937 161.128 107.603 159.228 106.506L92.3868 67.9155C90.4942 66.8228 88.1014 66.2103 85.7624 66.1134ZM85.7923 65.3909C88.2264 65.4916 90.7375 66.1282 92.7484 67.2892L159.589 105.879C161.593 107.036 162.782 108.534 162.973 110.07C163.167 111.633 162.314 113.097 160.537 114.123L91.8024 153.807C90.0345 154.828 87.6391 155.26 85.2082 155.159C82.7739 155.059 80.2624 154.422 78.2506 153.261L78.2506 153.261L11.4097 114.669C9.40621 113.512 8.21769 112.014 8.02706 110.48C7.83293 108.917 8.68728 107.453 10.4637 106.427L79.1984 66.743L79.3792 67.0561L79.1984 66.743C80.9663 65.7224 83.3617 65.2902 85.7923 65.3909Z" fill="#07303A"/>
<path d="M85.0892 67.6669C83.2876 67.6669 81.5836 68.0161 80.3445 68.7324L11.6098 108.413C11.116 108.697 10.293 109.291 10.293 110.05C10.293 110.692 10.8881 111.722 12.5577 112.682L79.3985 151.276C82.7069 153.186 87.864 153.441 90.655 151.822L159.388 112.139C159.882 111.855 160.705 111.262 160.705 110.502C160.705 109.86 160.11 108.833 158.44 107.867L91.5992 69.2786C89.7596 68.2168 87.3484 67.6669 85.0892 67.6669Z" fill="#2B545E"/>
<path d="M127.892 95.6041L100.836 19.549C99.5902 16.0434 96.2709 13.7027 92.5519 13.7027H79.1031C75.3823 13.7027 72.0648 16.0452 70.8167 19.5508L43.635 95.9967C40.2525 104.721 43.418 114.051 53.6308 121.391C70.9922 133.872 100.686 133.872 118.044 121.391C128.255 114.049 131.267 104.31 127.89 95.6023L127.892 95.6041Z" fill="#07303A"/>
<path fill-rule="evenodd" clip-rule="evenodd" d="M70.4763 19.4295C71.7757 15.78 75.2294 13.3411 79.1034 13.3411H92.5522C96.4241 13.3411 99.8799 15.778 101.177 19.4278L128.233 95.4829C131.674 104.373 128.566 114.271 118.256 121.685C109.501 127.979 97.6595 131.114 85.8391 131.114C74.0186 131.114 62.1758 127.979 53.42 121.685C48.2702 117.983 44.8727 113.763 43.1968 109.341C41.5197 104.916 41.5755 100.312 43.2963 95.8708L70.4763 19.4295ZM127.581 95.7146L127.551 95.7253L100.496 19.6701C99.3011 16.3088 96.1183 14.0643 92.5522 14.0643H79.1034C75.5357 14.0643 72.3546 16.3103 71.1577 19.6719C71.1577 19.6719 71.1577 19.6718 71.1577 19.6719L43.9726 96.1274C42.3126 100.409 42.2604 104.83 43.873 109.085C45.4874 113.344 48.779 117.459 53.8421 121.098C62.4476 127.284 74.1326 130.39 85.8391 130.39C97.5455 130.39 109.23 127.284 117.833 121.098C127.941 113.83 130.858 104.255 127.553 95.7331L127.581 95.7146Z" fill="#07303A"/>
<path d="M118.046 121.389C128.257 114.047 131.269 104.308 127.892 95.6005L100.954 19.8782C99.6372 16.1754 96.1316 13.7027 92.201 13.7027H81.914L62.9572 75.2219H62.9445L61.9153 78.6009L49.8213 117.849L49.9551 118.367C51.0604 119.405 52.2777 120.416 53.6307 121.389C70.9921 133.87 100.688 133.87 118.046 121.389Z" fill="#07303A"/>
<path fill-rule="evenodd" clip-rule="evenodd" d="M81.6463 13.3411H92.2002C96.2838 13.3411 99.9258 15.91 101.294 19.757L128.228 95.4698C128.229 95.4714 128.229 95.4729 128.23 95.4745C131.676 104.367 128.569 114.268 118.256 121.683C109.502 127.978 97.6598 131.112 85.8389 131.112C74.018 131.112 62.1748 127.978 53.4189 121.683C52.0529 120.7 50.8233 119.679 49.7068 118.63L49.6306 118.559L49.4448 117.841L61.5687 78.4955L62.6759 74.8604H62.6895L81.6463 13.3411ZM82.1802 14.0643L63.2234 75.5835H63.2116L62.2604 78.7062L50.1963 117.858L50.2782 118.175C51.3518 119.177 52.5322 120.154 53.8411 121.096C62.4467 127.282 74.1321 130.389 85.8389 130.389C97.5458 130.389 109.23 127.282 117.834 121.096C127.941 113.828 130.859 104.253 127.554 95.7313L127.55 95.7218L100.613 19.9994C99.3471 16.4409 95.978 14.0643 92.2002 14.0643H82.1802Z" fill="#07303A"/>
<path d="M110.315 46.1719L104.641 30.2811H104.622C105.552 33.3272 103.933 36.5814 99.6047 39.0089C92.0744 43.2307 79.5843 43.2307 72.0522 39.0089C67.7236 36.5814 66.1047 33.3291 67.0326 30.2811H67.0181L61.1882 46.8177C59.5295 51.2205 61.5391 56.032 67.5011 59.6045C77.5222 65.6081 94.2649 65.6081 104.282 59.6045C110.537 55.8566 112.348 50.8316 110.315 46.1719Z" fill="#2B545E"/>
<path fill-rule="evenodd" clip-rule="evenodd" d="M66.7625 29.9195H67.5209L67.3788 30.3864C66.5209 33.2043 67.977 36.3088 72.2293 38.6935C75.9274 40.7663 80.8677 41.8137 85.8294 41.8137C90.791 41.8137 95.7309 40.7663 99.4281 38.6935C103.68 36.3088 105.136 33.2026 104.277 30.3867L104.134 29.9195H104.896L110.652 46.0387C111.701 48.4509 111.76 50.9715 110.74 53.3715C109.721 55.768 107.641 58.0135 104.468 59.9147C99.3896 62.9585 92.6307 64.4688 85.8933 64.4688C79.156 64.4688 72.3962 62.9585 67.3155 59.9147C64.2908 58.1023 62.2389 55.9579 61.1603 53.677C60.0791 51.3909 59.9859 48.9869 60.8487 46.6939L66.7625 29.9195ZM66.4887 32.8712L61.5295 46.9379L61.5268 46.9452C60.7324 49.0538 60.8151 51.2556 61.814 53.3679C62.816 55.4866 64.7499 57.5342 67.6872 59.2943C72.6275 62.2541 79.2497 63.7456 85.8933 63.7456C92.537 63.7456 99.1583 62.2541 104.097 59.2943C107.179 57.4476 109.132 55.3066 110.074 53.0887C111.014 50.8781 110.963 48.5605 109.984 46.3165L109.974 46.2938L105.172 32.8441C104.811 35.2263 102.994 37.523 99.7818 39.3242C95.9487 41.4733 90.8784 42.5368 85.8294 42.5368C80.7803 42.5368 75.7096 41.4733 71.8756 39.3243C68.6754 37.5296 66.8597 35.2441 66.4887 32.8712Z" fill="#07303A"/>
<path d="M124.162 85.1547H124.194L123.802 84.0658C123.78 84.0115 123.765 83.9591 123.744 83.9048L117.301 66.046H117.279C118.878 71.6462 116.32 77.6661 109.222 82.2262C96.5041 90.3968 75.0728 90.3968 62.3565 82.2262C55.2586 77.6661 52.7009 71.6462 54.2999 66.046H54.2764L47.5511 85.1547H47.5945C45.1905 92.5367 48.1082 100.608 56.977 106.727C72.6001 117.506 99.1704 117.506 114.788 106.727C123.655 100.608 126.569 92.5367 124.162 85.1547Z" fill="#2B545E"/>
<path fill-rule="evenodd" clip-rule="evenodd" d="M54.0198 65.6844H54.7787L54.6471 66.1453C53.1051 71.5458 55.5423 77.4189 62.5515 81.922C68.8373 85.9608 77.3016 87.9926 85.7882 87.9926C94.2748 87.9926 102.74 85.9608 109.026 81.922C116.035 77.4189 118.473 71.5458 116.931 66.1453L116.799 65.6844H117.554L124.081 83.7766C124.095 83.8105 124.106 83.8425 124.114 83.8663L124.115 83.8692C124.124 83.8972 124.13 83.9148 124.137 83.9315L124.141 83.9431L124.708 85.5163H124.652C126.846 92.955 123.77 100.967 114.993 107.025C107.11 112.465 96.4863 115.173 85.8841 115.173C75.2819 115.173 64.6569 112.465 56.7712 107.025C47.9921 100.967 44.913 92.9551 47.1033 85.5163H47.04L54.0198 65.6844ZM48.0611 84.7932H48.092L47.9378 85.2667C45.5953 92.4598 48.4099 100.377 57.1819 106.43C64.9192 111.768 75.3909 114.45 85.8841 114.45C96.3772 114.45 106.848 111.768 114.582 106.43C123.352 100.377 126.163 92.46 123.817 85.2669L123.663 84.7932H123.679L123.463 84.1937C123.45 84.1599 123.439 84.1279 123.431 84.1041L123.43 84.1014C123.424 84.0843 123.419 84.0711 123.415 84.0596C123.413 84.0523 123.41 84.0456 123.407 84.0391L123.403 84.0276L118.099 69.3268C118.082 74.0657 115.219 78.803 109.417 82.5304C102.986 86.6622 94.3758 88.7157 85.7882 88.7157C77.2006 88.7157 68.5911 86.6622 62.1606 82.5304C56.3885 78.8221 53.5247 74.1142 53.4789 69.3996L48.0611 84.7932Z" fill="#07303A"/>
<path d="M110.315 46.1719L104.641 30.2811H104.622C105.55 33.3272 103.933 36.5814 99.6047 39.0089C92.6424 42.9124 81.4492 43.1982 73.8447 39.8844L67.729 59.7293C77.7736 65.6027 94.3373 65.5665 104.281 59.6045C110.536 55.8566 112.346 50.8297 110.313 46.1701L110.315 46.1719Z" fill="#94B2C9"/>
<path fill-rule="evenodd" clip-rule="evenodd" d="M104.133 29.9195H104.894L110.654 46.0503C111.698 48.4585 111.754 50.9746 110.737 53.3706C109.718 55.7675 107.638 58.0134 104.465 59.9146C99.4239 62.9375 92.7287 64.4465 86.0427 64.4667C79.3565 64.487 72.6368 63.0186 67.5453 60.0415L67.2979 59.8968L73.6172 39.3913L73.988 39.5529C77.7318 41.1843 82.3762 41.9355 86.953 41.7917C91.5309 41.6478 96.0091 40.6096 99.4267 38.6935C103.679 36.3089 105.133 33.2026 104.275 30.3865L104.133 29.9195ZM110.054 46.2647L109.973 46.2935L105.17 32.8426C104.809 35.2252 102.993 37.5225 99.7804 39.3242C96.2357 41.3116 91.636 42.3681 86.9757 42.5145C82.4628 42.6563 77.8628 41.9459 74.0711 40.3739L68.1583 59.5602C73.082 62.3611 79.5573 63.7632 86.0405 63.7436C92.6333 63.7236 99.1916 62.2335 104.093 59.2944C107.175 57.4477 109.128 55.3062 110.071 53.0878C111.01 50.8767 110.96 48.5587 109.981 46.3147L110.054 46.2647Z" fill="#07303A"/>
<path d="M124.162 85.1547H124.176L122.906 81.5841L117.301 66.046H117.279C118.878 71.6462 116.32 77.6661 109.222 82.2262C96.506 90.3968 75.0728 90.3968 62.3566 82.2262C61.9098 81.9386 61.4811 81.6456 61.0687 81.3471L53.9707 104.381C54.8842 105.19 55.8845 105.973 56.977 106.727C72.6001 117.506 99.1704 117.506 114.788 106.727C123.655 100.608 126.569 92.5367 124.162 85.1547Z" fill="#94B2C9"/>
<path fill-rule="evenodd" clip-rule="evenodd" d="M116.8 65.6844H117.555L123.247 81.4613L124.689 85.5163H124.653C126.847 92.955 123.771 100.967 114.994 107.025C107.111 112.465 96.4874 115.173 85.8852 115.173C75.283 115.173 64.6581 112.465 56.7723 107.025C55.6683 106.263 54.6565 105.47 53.7317 104.652L53.5571 104.497L60.8724 80.7583L61.2813 81.0542C61.6882 81.3487 62.1114 81.638 62.5526 81.922C68.8384 85.9608 77.3031 87.9926 85.79 87.9926C94.2769 87.9926 102.742 85.9608 109.027 81.922C116.037 77.4189 118.474 71.5458 116.932 66.1453L116.8 65.6844ZM123.664 84.7932L122.567 81.7068L118.1 69.3269C118.084 74.0658 115.22 78.803 109.418 82.5304C102.988 86.6622 94.3778 88.7157 85.79 88.7157C77.2022 88.7157 68.5922 86.6622 62.1617 82.5304C61.8556 82.3334 61.5576 82.1336 61.2676 81.9314L54.3858 104.264C55.2404 105.008 56.1713 105.731 57.183 106.43C64.9203 111.768 75.3921 114.45 85.8852 114.45C96.3784 114.45 106.849 111.768 114.583 106.43C123.353 100.377 126.164 92.46 123.818 85.2669L123.664 84.7932Z" fill="#07303A"/>
<path d="M96.6134 14.5776C102.583 18.0144 102.583 23.6219 96.6134 27.0587C90.6441 30.4956 80.8763 30.4956 74.9071 27.0587C68.9379 23.6219 68.9379 18.0144 74.9071 14.5776C80.8763 11.1408 90.6441 11.1408 96.6134 14.5776Z" fill="#94B2C9"/>
<path fill-rule="evenodd" clip-rule="evenodd" d="M100.367 20.8182C100.367 18.9062 99.1042 16.8462 96.2525 15.2043C93.4043 13.5645 89.6026 12.7232 85.7602 12.7232C81.9178 12.7232 78.1161 13.5645 75.2679 15.2043C72.4162 16.8462 71.1533 18.9062 71.1533 20.8182C71.1533 22.7302 72.4162 24.7901 75.2679 26.432C78.1161 28.0719 81.9178 28.9132 85.7602 28.9132C89.6026 28.9132 93.4043 28.0719 96.2525 26.432C99.1042 24.7901 100.367 22.7302 100.367 20.8182ZM96.6134 27.0587C102.583 23.6219 102.583 18.0144 96.6134 14.5776C90.6441 11.1408 80.8763 11.1408 74.9071 14.5776C68.9379 18.0144 68.9379 23.6219 74.9071 27.0587C80.8763 30.4956 90.6441 30.4956 96.6134 27.0587Z" fill="#07303A"/>
<path d="M90.4126 130.567L95.9749 129.918C81.1386 132.247 64.8264 129.42 53.6332 121.374C43.4204 114.032 40.2549 104.704 43.6374 95.9799L46.3507 88.3501L11.6098 108.407C11.116 108.691 10.293 109.284 10.293 110.044C10.293 110.684 10.8881 111.715 12.5577 112.676L47.919 133.092L90.4126 130.567Z" fill="#07303A"/>
</svg>
