<svg width="412" height="301" viewBox="0 0 412 301" fill="none" xmlns="http://www.w3.org/2000/svg">
<path d="M206 221.782C256.146 221.782 296.802 181.132 296.802 130.98C296.802 80.8275 256.146 40.1834 206 40.1834C155.854 40.1834 115.198 80.8334 115.198 130.986C115.198 181.138 155.854 221.788 206 221.788V221.782Z" fill="#155C6D"/>
<path d="M296.626 130.98C296.626 80.925 256.049 40.3593 206 40.3592C155.951 40.3592 115.373 80.9308 115.373 130.986C115.374 180.982 155.856 221.515 205.824 221.609V221.605H206C256.049 221.605 296.625 181.035 296.626 130.98ZM296.978 130.98C296.978 181.171 256.338 221.861 206.176 221.956V221.964H206C155.757 221.964 115.022 181.235 115.022 130.986C115.022 80.7363 155.757 40.0076 206 40.0076C256.243 40.0077 296.978 80.7305 296.978 130.98Z" fill="#155C6D"/>
<path d="M164.038 50.4393C135.009 65.5917 115.198 95.9739 115.198 130.985C115.198 181.132 155.854 221.788 206 221.788C236.156 221.788 262.877 207.086 279.388 184.467L221.713 117.453L164.038 50.4393Z" fill="#70C5AD"/>
<path d="M279.522 184.352L279.613 184.459L279.531 184.571C262.987 207.233 236.215 221.964 206 221.964C155.757 221.964 115.022 181.229 115.022 130.986C115.022 95.9061 134.872 65.4646 163.957 50.283L164.081 50.2185L279.522 184.352ZM115.373 130.986C115.374 181.035 155.951 221.611 206 221.611C236.048 221.611 262.676 206.986 279.162 184.474L163.996 50.661C135.09 65.8061 115.373 96.0922 115.373 130.986Z" fill="#155C6D"/>
<path d="M206 221.783C228.69 221.783 249.434 213.462 265.346 199.704C263.239 198.374 261.079 197.128 258.865 195.971C246.561 202.832 227.373 207.408 205.905 207.408C184.444 207.23 165.445 202.832 153.124 195.971C150.91 197.128 148.75 198.374 146.643 199.704C162.561 213.462 183.304 221.783 205.994 221.783H206Z" fill="#C8DAE8"/>
<path d="M258.946 195.814C261.164 196.974 263.329 198.223 265.439 199.555L265.641 199.681L265.461 199.837C249.518 213.621 228.734 221.959 206 221.959H205.995C183.261 221.959 162.476 213.621 146.527 199.837L146.348 199.681L146.549 199.555C148.66 198.223 150.824 196.974 153.042 195.814L153.126 195.771L153.209 195.817C165.497 202.66 184.463 207.053 205.906 207.231C227.352 207.231 246.509 202.66 258.779 195.817L258.862 195.771L258.946 195.814ZM258.865 196.17C246.525 203.023 227.344 207.584 205.905 207.584H205.904C184.472 207.406 165.48 203.023 153.122 196.17C151.013 197.276 148.952 198.464 146.939 199.726C162.803 213.364 183.434 221.606 205.995 221.606H206C228.561 221.606 249.191 213.364 265.049 199.726C263.036 198.463 260.975 197.276 258.865 196.17Z" fill="#155C6D"/>
<path d="M206.232 195.892C232.675 195.892 254.111 189.884 254.111 182.473C254.111 175.062 232.675 169.054 206.232 169.054C179.789 169.054 158.353 175.062 158.353 182.473C158.353 189.884 179.789 195.892 206.232 195.892Z" fill="#155C6D"/>
<path d="M253.934 182.473C253.934 180.711 252.659 178.992 250.251 177.396C247.85 175.805 244.364 174.366 240.04 173.154C231.395 170.731 219.442 169.229 206.232 169.229C193.022 169.229 181.069 170.731 172.424 173.154C168.1 174.366 164.614 175.805 162.213 177.396C159.805 178.992 158.528 180.711 158.528 182.473C158.529 184.235 159.805 185.954 162.213 187.549C164.614 189.14 168.1 190.58 172.424 191.792C181.069 194.215 193.022 195.717 206.232 195.717C219.442 195.717 231.395 194.215 240.04 191.792C244.364 190.58 247.85 189.14 250.251 187.549C252.659 185.954 253.934 184.235 253.934 182.473ZM254.287 182.473C254.287 184.417 252.883 186.228 250.445 187.843C248.001 189.463 244.475 190.915 240.135 192.131C231.451 194.565 219.465 196.068 206.232 196.068C192.999 196.068 181.013 194.565 172.329 192.131C167.988 190.915 164.463 189.463 162.018 187.843C159.581 186.228 158.177 184.417 158.177 182.473C158.177 180.529 159.581 178.718 162.018 177.103C164.463 175.483 167.988 174.031 172.329 172.814C181.013 170.38 192.999 168.878 206.232 168.878C219.464 168.878 231.451 170.38 240.135 172.814C244.475 174.031 248.001 175.483 250.445 177.103C252.883 178.718 254.287 180.529 254.287 182.473Z" fill="#155C6D"/>
<path d="M257.279 192.98C245.314 199.668 226.844 203.888 206.083 203.888C185.321 203.888 166.851 199.668 154.886 192.98L156.292 187.347C167.902 193.858 185.85 198.078 206.083 198.078C226.316 198.078 244.436 194.03 256.051 187.347L257.279 192.98Z" fill="#C8DAE8"/>
<path d="M256.222 187.31L257.451 192.942L257.479 193.07L257.365 193.133C245.366 199.841 226.863 204.064 206.083 204.064C185.302 204.064 166.799 199.841 154.8 193.133L154.683 193.068L154.715 192.937L156.177 187.08L156.378 187.194C167.954 193.686 185.87 197.902 206.083 197.902C226.297 197.902 244.383 193.857 255.963 187.195L256.172 187.075L256.222 187.31ZM155.089 192.89C167.023 199.522 185.409 203.712 206.083 203.712C226.759 203.712 245.145 199.521 257.079 192.888L255.929 187.618C244.271 194.25 226.214 198.253 206.083 198.253C185.945 198.253 168.056 194.076 156.408 187.61L155.089 192.89Z" fill="#155C6D"/>
<path d="M255.873 187.353C244.264 193.864 226.316 198.084 205.905 198.084C200.438 198.066 194.978 197.769 189.547 197.205C185.743 198.125 181.849 198.6 177.938 198.612C169.866 198.659 161.919 196.594 154.892 192.629L154.714 192.98C166.679 199.668 185.149 203.888 205.91 203.888C226.672 203.888 245.32 199.668 257.107 192.98L255.873 187.347V187.353Z" fill="#155C6D"/>
<path d="M255.859 187.329L256.044 187.309L257.279 192.942L257.307 193.069L257.194 193.132C245.372 199.841 226.691 204.064 205.911 204.064C185.13 204.064 166.627 199.841 154.628 193.133L154.48 193.05L154.556 192.9L154.818 192.386L154.978 192.476C161.979 196.426 169.896 198.483 177.937 198.436L178.668 198.428C182.32 198.363 185.951 197.894 189.505 197.034L189.536 197.028L189.565 197.031C194.99 197.594 200.444 197.889 205.904 197.907C226.295 197.907 244.211 193.691 255.787 187.2L255.859 187.329ZM255.751 187.619C244.469 193.88 227.334 197.995 207.813 198.248L205.904 198.26C200.442 198.242 194.986 197.946 189.559 197.383C185.989 198.244 182.342 198.715 178.674 198.78L177.939 198.788C169.898 198.835 161.98 196.793 154.966 192.872L154.947 192.907C166.882 199.529 185.254 203.712 205.911 203.712C226.587 203.712 245.149 199.521 256.907 192.889L255.751 187.619Z" fill="#155C6D"/>
<path d="M166.571 124.823C163.787 122.327 159.351 124.725 159.351 128.456V142.044C159.351 147.489 165.756 150.439 169.913 146.908V132.309C169.913 129.457 168.698 126.737 166.571 124.835V124.823Z" fill="#C8DAE8"/>
<path d="M159.175 128.456C159.175 126.518 160.327 124.928 161.836 124.148C163.347 123.366 165.233 123.387 166.688 124.692L166.747 124.745V124.758C168.874 126.691 170.089 129.433 170.089 132.31V146.989L170.027 147.042C165.756 150.67 159.175 147.64 159.175 142.044V128.456ZM159.527 142.044C159.527 147.311 165.692 150.179 169.737 146.825V132.31C169.737 129.507 168.542 126.835 166.453 124.966L166.394 124.914V124.905C165.074 123.764 163.381 123.746 161.998 124.461C160.593 125.189 159.527 126.664 159.527 128.456V142.044Z" fill="#155C6D"/>
<path fill-rule="evenodd" clip-rule="evenodd" d="M227.218 141.402C219.716 146.768 210.398 149.949 200.29 149.949C175.517 149.949 155.432 130.826 155.432 107.239C155.432 83.6529 175.523 64.5298 200.296 64.5298C212.991 64.5298 224.458 69.551 232.613 77.6228C247.047 80.8515 257.832 93.7368 257.832 109.145C257.832 126.416 244.276 140.524 227.218 141.402Z" fill="#155C6D"/>
<path d="M155.256 107.239C155.256 83.5475 175.434 64.354 200.296 64.354C213.019 64.354 224.514 69.3791 232.7 77.462C247.188 80.7262 258.007 93.67 258.007 109.145C258.007 126.493 244.405 140.665 227.279 141.574C219.754 146.942 210.417 150.125 200.29 150.125C175.428 150.125 155.256 130.931 155.256 107.239ZM155.608 107.239C155.608 130.72 175.606 149.773 200.29 149.773C210.36 149.773 219.643 146.604 227.116 141.259L227.158 141.229L227.209 141.226C244.174 140.352 257.655 126.322 257.656 109.145C257.656 93.8212 246.93 81.0062 232.575 77.795L232.525 77.7833L232.49 77.7481C224.367 69.7086 212.944 64.7056 200.296 64.7056C175.612 64.7056 155.608 83.7581 155.608 107.239Z" fill="#155C6D"/>
<path d="M244.2 140.026H244.14L244.17 109.104C244.188 92.6631 230.863 79.3209 214.423 79.309H199.27C182.83 79.3209 169.511 92.6572 169.523 109.104L169.553 140.026H169.494C169.494 161.719 185.798 179.602 206.82 182.094C206.82 182.094 206.838 182.094 206.844 182.094C206.85 182.094 206.861 182.094 206.867 182.094C227.89 179.596 244.194 161.713 244.194 140.02L244.2 140.026Z" fill="#70C5AD"/>
<path d="M243.985 108.34C243.603 92.6031 230.923 79.9059 215.187 79.4955L214.423 79.4848H199.271C182.928 79.4966 169.688 92.7545 169.7 109.104L169.729 140.201H169.671C169.759 161.722 185.958 179.439 206.833 181.918H206.854C227.727 179.434 243.925 161.72 244.016 140.201H243.964L243.994 109.104L243.985 108.34ZM244.316 139.894L244.324 139.902L244.625 140.201H244.368C244.278 161.903 227.939 179.767 206.888 182.269L206.878 182.27H206.809L206.8 182.269C185.69 179.766 169.318 161.809 169.318 140.026V139.85H169.377L169.347 109.104C169.335 92.5603 182.732 79.1454 199.27 79.1332H214.423L215.196 79.1429C231.376 79.5646 244.363 92.8243 244.346 109.104L244.316 139.894Z" fill="#155C6D"/>
<path d="M206.871 122.956V145.937C205.001 145.777 203.191 145.195 201.577 144.228C200.514 143.593 199.132 143.777 198.384 144.762C197.137 146.406 198.289 148.216 199.856 148.216H206.871V156.353C204.984 155.125 202.556 154.959 200.491 155.991L193.802 159.357H193.76L194.199 159.404C202.615 160.271 211.091 160.253 219.501 159.357C219.501 162.597 216.878 165.221 213.637 165.221H204.111C203.559 165.221 203.292 165.903 203.708 166.271C204.681 167.15 205.999 168.378 206.871 169.203V182.1C185.825 179.631 169.497 161.737 169.497 140.026H169.557L169.527 109.104C169.509 92.6572 182.839 79.309 199.292 79.309H214.426C230.861 79.309 244.185 92.6275 244.191 109.062L244.203 144.056C244.203 137.141 238.547 131.539 231.638 131.539H215.459C212.509 131.539 209.963 129.164 210.064 126.215C210.123 124.41 208.657 122.944 206.871 122.944" fill="#C8DAE8"/>
<path d="M219.467 159.362L212.778 155.997C210.796 155.006 208.487 155.13 206.635 156.228C204.783 155.13 202.475 155.006 200.492 155.997L193.768 159.362C202.308 160.282 210.926 160.282 219.467 159.362Z" fill="#155C6D"/>
<path d="M206.634 156.027C208.521 154.947 210.851 154.837 212.857 155.84L219.546 159.206L220.079 159.473L219.485 159.538C210.932 160.459 202.302 160.459 193.749 159.538L193.153 159.473L200.413 155.84L200.799 155.662C202.713 154.855 204.868 155.017 206.634 156.027ZM212.699 156.155C210.772 155.192 208.527 155.312 206.725 156.38L206.635 156.434L206.545 156.38C204.856 155.378 202.777 155.211 200.936 155.987L200.571 156.155L194.389 159.249C202.52 160.083 210.717 160.082 218.848 159.248L212.699 156.155Z" fill="#155C6D"/>
<path d="M197.292 123.496C195.226 118.564 182.121 118.321 179 121.449C185.57 114.878 195.226 118.57 197.292 123.496Z" fill="#155C6D"/>
<path d="M178.898 121.302C182.226 117.989 186.335 117.263 189.871 117.989C193.404 118.715 196.393 120.897 197.454 123.429L197.129 123.564C196.638 122.392 195.481 121.477 193.932 120.818C192.387 120.16 190.478 119.767 188.529 119.625C186.581 119.483 184.602 119.591 182.919 119.928C181.23 120.266 179.868 120.829 179.125 121.573L179.124 121.572V121.573L178.875 121.325C178.882 121.317 178.89 121.31 178.898 121.302ZM189.799 118.334C186.928 117.744 183.674 118.14 180.794 120.165C181.409 119.926 182.105 119.732 182.85 119.583C184.567 119.24 186.579 119.13 188.555 119.274C190.53 119.419 192.479 119.816 194.07 120.493C194.58 120.711 195.055 120.959 195.484 121.237C194.082 119.875 192.066 118.799 189.799 118.334Z" fill="#155C6D"/>
<path d="M197.292 123.495C196.924 123.234 195.618 122.878 194.508 123.323C187.926 125.97 182.501 124.949 179 121.442C182.127 118.32 195.226 118.563 197.292 123.489V123.495Z" fill="#C8DAE8"/>
<path d="M182.853 119.58C184.57 119.237 186.581 119.128 188.557 119.272C190.532 119.416 192.481 119.815 194.071 120.491C195.657 121.166 196.912 122.129 197.454 123.421L197.468 123.455V123.836L197.19 123.639C197.038 123.532 196.652 123.384 196.155 123.32C195.725 123.264 195.234 123.274 194.77 123.417L194.574 123.487C187.944 126.153 182.438 125.136 178.875 121.566L178.751 121.442L178.876 121.317C179.695 120.5 181.143 119.921 182.853 119.58ZM188.532 119.624C186.584 119.482 184.604 119.589 182.921 119.925C181.326 120.243 180.023 120.762 179.255 121.443C182.699 124.786 187.99 125.756 194.443 123.161L194.666 123.081C195.191 122.919 195.736 122.91 196.201 122.97C196.464 123.004 196.708 123.061 196.913 123.129C196.341 122.162 195.287 121.39 193.933 120.814C192.389 120.157 190.48 119.766 188.532 119.624Z" fill="#155C6D"/>
<path d="M183.614 121.626C183.614 120.867 183.822 120.154 184.184 119.549C184.321 119.531 184.463 119.519 184.605 119.501C184.617 119.501 184.629 119.501 184.641 119.501C184.766 119.49 184.89 119.478 185.015 119.466C185.045 119.466 185.074 119.466 185.104 119.46C185.217 119.454 185.329 119.442 185.442 119.436C185.472 119.436 185.502 119.436 185.531 119.436C185.662 119.43 185.798 119.424 185.929 119.418H185.941C186.232 119.407 186.522 119.401 186.813 119.401H186.885C187.009 119.401 187.134 119.401 187.258 119.401H187.33C187.472 119.401 187.615 119.407 187.751 119.412C188.054 119.424 188.35 119.442 188.653 119.466C188.665 119.466 188.677 119.466 188.689 119.466C188.825 119.478 188.962 119.49 189.098 119.501C189.116 119.501 189.128 119.501 189.146 119.501C189.591 119.543 190.036 119.602 190.469 119.674H190.475C190.618 119.697 190.754 119.721 190.891 119.745C190.903 119.745 190.914 119.745 190.926 119.751C191.063 119.78 191.205 119.804 191.342 119.834C191.603 120.374 191.757 120.979 191.757 121.62C191.757 122.748 191.3 123.769 190.552 124.505C188.499 124.902 186.6 124.902 184.872 124.558C184.095 123.816 183.614 122.772 183.614 121.614V121.626Z" fill="#155C6D"/>
<path d="M191.582 121.621C191.582 121.039 191.447 120.487 191.218 119.989C191.18 119.981 191.141 119.973 191.101 119.965C191.032 119.952 190.96 119.938 190.889 119.923L190.88 119.921H190.875L190.861 119.918C190.73 119.895 190.599 119.873 190.463 119.85H190.455L190.441 119.847C190.014 119.777 189.576 119.719 189.139 119.678H189.091L189.083 119.677C189.015 119.671 188.946 119.665 188.878 119.659C188.813 119.654 188.749 119.647 188.685 119.642H188.64C188.339 119.618 188.044 119.6 187.744 119.588H187.743C187.606 119.582 187.468 119.576 187.33 119.576H186.813C186.525 119.576 186.236 119.582 185.948 119.594L185.941 119.595V119.594H185.937L185.738 119.603C185.671 119.606 185.604 119.609 185.539 119.612L185.532 119.613H185.443V119.612C185.392 119.614 185.341 119.619 185.287 119.623C185.231 119.628 185.173 119.633 185.114 119.636L185.113 119.634C185.081 119.638 185.052 119.64 185.031 119.64L185.031 119.641C184.969 119.647 184.907 119.653 184.845 119.658C184.783 119.664 184.72 119.671 184.657 119.677L184.65 119.678H184.61C184.542 119.686 184.476 119.694 184.411 119.7C184.371 119.705 184.332 119.709 184.293 119.713C183.974 120.276 183.79 120.93 183.79 121.627C183.793 122.711 184.239 123.691 184.959 124.396C186.633 124.722 188.472 124.721 190.464 124.342C191.158 123.641 191.581 122.681 191.582 121.621ZM191.933 121.621C191.933 122.797 191.456 123.862 190.676 124.63L190.638 124.667L190.586 124.678C188.513 125.079 186.59 125.08 184.838 124.731L184.788 124.721L184.751 124.686C183.991 123.96 183.502 122.957 183.444 121.84L183.438 121.615C183.44 120.827 183.657 120.087 184.033 119.458L184.076 119.385L184.161 119.374C184.232 119.365 184.304 119.357 184.374 119.35C184.445 119.342 184.514 119.335 184.583 119.326L184.595 119.325H184.635C184.694 119.32 184.753 119.314 184.812 119.309C184.874 119.303 184.936 119.296 184.998 119.29H185.015C185.047 119.29 185.06 119.289 185.07 119.287L185.082 119.284H185.095C185.149 119.282 185.202 119.277 185.259 119.273C185.315 119.268 185.374 119.263 185.433 119.26H185.524C185.589 119.257 185.656 119.254 185.722 119.251C185.789 119.248 185.856 119.245 185.921 119.242H185.934C186.227 119.23 186.52 119.225 186.813 119.225H187.33C187.476 119.225 187.622 119.231 187.759 119.236L187.758 119.237C188.063 119.249 188.362 119.266 188.667 119.29H188.704C188.772 119.296 188.841 119.303 188.909 119.309C188.973 119.314 189.037 119.32 189.102 119.325H189.154L189.162 119.326C189.605 119.368 190.048 119.427 190.479 119.497H190.49L190.504 119.5C190.643 119.523 190.777 119.546 190.91 119.569C190.923 119.569 190.941 119.575 190.962 119.58L190.963 119.578C191.029 119.593 191.097 119.606 191.167 119.619L191.379 119.661L191.463 119.68L191.5 119.757C191.772 120.319 191.933 120.951 191.933 121.621Z" fill="#155C6D"/>
<path d="M217.246 123.496C219.312 118.564 232.417 118.321 235.538 121.449C228.968 114.878 219.312 118.57 217.246 123.496Z" fill="#155C6D"/>
<path d="M224.668 117.989C228.211 117.261 232.331 117.992 235.663 121.324H235.662L235.663 121.325L235.539 121.449L235.414 121.573L235.267 121.435C234.499 120.759 233.203 120.245 231.619 119.928C229.937 119.591 227.957 119.483 226.009 119.625C224.06 119.767 222.15 120.16 220.605 120.818C219.153 121.436 218.045 122.279 217.508 123.348L217.408 123.564L217.084 123.429C218.145 120.897 221.135 118.715 224.668 117.989ZM233.745 120.165C230.865 118.14 227.611 117.744 224.739 118.334C222.472 118.799 220.455 119.875 219.053 121.237C219.482 120.959 219.957 120.711 220.468 120.493C222.058 119.816 224.008 119.419 225.983 119.275C227.959 119.13 229.971 119.24 231.688 119.583C232.434 119.732 233.129 119.926 233.745 120.165Z" fill="#155C6D"/>
<path d="M217.246 123.495C217.614 123.234 218.92 122.878 220.03 123.323C226.612 125.97 232.037 124.949 235.538 121.442C232.411 118.32 219.312 118.563 217.246 123.489V123.495Z" fill="#C8DAE8"/>
<path d="M225.981 119.272C227.957 119.128 229.968 119.237 231.686 119.58C233.396 119.921 234.843 120.5 235.663 121.317L235.788 121.442L235.663 121.566C232.211 125.025 226.937 126.087 220.583 123.726L219.965 123.487C219.446 123.279 218.873 123.256 218.382 123.32C217.885 123.384 217.499 123.532 217.348 123.639L217.07 123.836V123.455L217.084 123.421C217.626 122.129 218.881 121.166 220.467 120.491C222.057 119.815 224.006 119.416 225.981 119.272ZM231.617 119.925C229.934 119.589 227.955 119.482 226.007 119.624C224.058 119.766 222.15 120.157 220.605 120.814C219.251 121.39 218.196 122.162 217.624 123.129C217.83 123.061 218.074 123.004 218.337 122.97C218.868 122.901 219.505 122.924 220.095 123.161L220.705 123.396C226.881 125.692 231.947 124.68 235.282 121.443C234.515 120.762 233.212 120.243 231.617 119.925Z" fill="#155C6D"/>
<path d="M230.934 121.626C230.934 120.867 230.726 120.154 230.364 119.549C230.227 119.531 230.085 119.519 229.943 119.501C229.931 119.501 229.919 119.501 229.907 119.501C229.782 119.49 229.658 119.478 229.533 119.466C229.503 119.466 229.474 119.466 229.444 119.46C229.331 119.454 229.218 119.442 229.106 119.436C229.076 119.436 229.046 119.436 229.017 119.436C228.886 119.43 228.75 119.424 228.619 119.418H228.607C228.316 119.407 228.025 119.401 227.735 119.401H227.663C227.539 119.401 227.414 119.401 227.29 119.401H227.224C227.082 119.401 226.939 119.407 226.803 119.412C226.506 119.424 226.203 119.442 225.901 119.466C225.889 119.466 225.877 119.466 225.865 119.466C225.729 119.478 225.592 119.49 225.456 119.501C225.438 119.501 225.426 119.501 225.408 119.501C224.963 119.543 224.518 119.602 224.085 119.674H224.079C223.936 119.697 223.8 119.721 223.663 119.745C223.651 119.745 223.639 119.745 223.628 119.751C223.491 119.78 223.349 119.804 223.212 119.834C222.951 120.374 222.797 120.979 222.797 121.62C222.797 122.748 223.254 123.769 224.001 124.505C226.055 124.902 227.954 124.902 229.681 124.558C230.459 123.816 230.94 122.772 230.94 121.614L230.934 121.626Z" fill="#155C6D"/>
<path d="M227.735 119.225C228.028 119.225 228.321 119.23 228.614 119.242H228.627L228.826 119.251C228.893 119.254 228.959 119.257 229.024 119.26H229.115L229.289 119.273C229.346 119.277 229.4 119.282 229.453 119.284H229.466L229.479 119.287C229.488 119.289 229.501 119.29 229.533 119.29H229.55C229.612 119.296 229.674 119.303 229.736 119.309C229.795 119.314 229.854 119.32 229.913 119.325H229.953L229.964 119.326C230.033 119.335 230.103 119.342 230.174 119.35L230.387 119.374L230.471 119.385L230.515 119.458C230.891 120.087 231.106 120.826 231.109 121.613L231.116 121.615C231.115 122.822 230.614 123.912 229.803 124.686L229.766 124.721L229.716 124.731C227.964 125.08 226.041 125.079 223.968 124.678L223.916 124.667L223.878 124.63C223.098 123.862 222.621 122.797 222.621 121.621C222.621 120.951 222.782 120.319 223.053 119.757L223.091 119.68L223.175 119.661C223.245 119.646 223.317 119.633 223.387 119.619C223.457 119.606 223.524 119.593 223.59 119.578V119.58C223.611 119.574 223.63 119.569 223.643 119.569C223.776 119.545 223.91 119.523 224.05 119.5L224.064 119.497H224.075C224.506 119.427 224.949 119.368 225.392 119.326L225.4 119.325H225.452C225.516 119.32 225.581 119.314 225.645 119.309C225.713 119.303 225.782 119.296 225.85 119.29H225.887C226.192 119.266 226.497 119.248 226.795 119.236L227.224 119.225H227.735ZM222.972 121.621C222.972 122.681 223.396 123.641 224.089 124.342C226.081 124.721 227.921 124.721 229.595 124.395C230.315 123.69 230.759 122.712 230.763 121.628L230.758 121.627C230.758 120.93 230.574 120.276 230.254 119.713C230.216 119.709 230.177 119.705 230.137 119.7C230.073 119.694 230.006 119.686 229.939 119.678H229.899L229.891 119.677C229.828 119.671 229.765 119.664 229.703 119.658C229.641 119.653 229.579 119.647 229.517 119.641V119.64C229.495 119.64 229.466 119.638 229.435 119.634V119.636C229.376 119.633 229.317 119.628 229.261 119.623C229.207 119.619 229.156 119.614 229.105 119.612V119.613H229.009V119.612C228.944 119.609 228.877 119.606 228.81 119.603L228.611 119.594H228.6C228.312 119.582 228.023 119.576 227.735 119.576H227.224L226.81 119.588C226.516 119.6 226.215 119.618 225.914 119.642L225.901 119.643V119.642H225.869C225.805 119.647 225.741 119.654 225.676 119.659C225.608 119.665 225.539 119.671 225.471 119.677L225.463 119.678H225.415C224.978 119.719 224.54 119.777 224.113 119.847L224.099 119.85H224.091C223.955 119.873 223.824 119.895 223.693 119.918L223.679 119.921H223.674L223.665 119.923C223.594 119.939 223.522 119.952 223.453 119.965C223.413 119.973 223.373 119.981 223.335 119.989C223.107 120.487 222.972 121.039 222.972 121.621Z" fill="#155C6D"/>
<path d="M212.243 144.186C213.852 142.577 216.861 143.752 216.861 146.423V147.236C216.861 147.776 216.422 148.216 215.882 148.216V146.216C215.882 144.346 213.84 143.206 212.243 144.18V144.186Z" fill="#155C6D"/>
<path d="M215.706 146.215C215.706 144.495 213.839 143.442 212.363 144.314L212.067 144.611V144.081L212.151 144.03C212.154 144.028 212.156 144.027 212.158 144.026C213.898 142.35 217.037 143.634 217.037 146.424V147.236C217.037 147.873 216.519 148.392 215.882 148.392H215.706V146.215ZM216.057 148.02C216.416 147.939 216.685 147.619 216.685 147.236V146.424C216.685 144.532 215.104 143.459 213.685 143.656C214.944 143.754 216.057 144.785 216.057 146.215V148.02Z" fill="#155C6D"/>
<path d="M247.462 125.081C250.181 122.636 254.513 124.57 254.513 128.227V141.955C254.513 147.29 248.258 150.181 244.198 146.721V132.417C244.198 129.621 245.385 126.956 247.462 125.093V125.081Z" fill="#70C5AD"/>
<path d="M254.338 128.227C254.338 124.748 250.246 122.897 247.638 125.164V125.171L247.58 125.224C245.54 127.054 244.374 129.671 244.374 132.417V146.636C248.32 149.919 254.338 147.114 254.338 141.955V128.227ZM254.689 141.955C254.689 147.441 248.258 150.412 244.084 146.854L244.022 146.802V132.417C244.022 129.598 245.209 126.912 247.287 125.017V125.002L247.345 124.951C250.177 122.403 254.689 124.419 254.689 128.227V141.955Z" fill="#155C6D"/>
<path d="M168.774 87.0724L160.231 124.24C160.231 124.24 163.312 125.56 165.512 129.521C167.713 133.482 169.344 142.788 169.498 145.364V125.236C169.326 120.161 172.169 115.46 176.745 113.252L196.942 103.519C206.13 99.0911 211.97 89.7907 211.97 79.5941C211.97 79.5941 229.983 98.8419 211.97 98.8419H235.853C240.31 98.8419 243.919 102.45 243.919 106.908L244.198 131.806L244.216 131.818C244.37 129.242 245.533 126.82 247.468 125.081C249.872 122.921 253.492 124.244 254.359 127.052L249.077 88.206L211.97 71.3739L168.78 87.0784L168.774 87.0724Z" fill="#155C6D"/>
<path d="M212.043 71.2137L249.149 88.046L249.238 88.086L249.251 88.1827L254.533 127.028L254.19 127.103C253.357 124.405 249.883 123.148 247.586 125.212C245.685 126.92 244.543 129.298 244.392 131.828L244.373 132.134L244.118 131.964L244.101 131.952L244.023 131.901L243.743 106.91V106.908L243.732 106.502C243.521 102.331 240.077 99.0178 235.853 99.0178H211.97V98.6662C216.456 98.6661 218.612 97.4663 219.41 95.7594C220.218 94.0324 219.689 91.693 218.565 89.2923C217.448 86.904 215.768 84.5103 214.364 82.71C213.663 81.8107 213.032 81.0612 212.576 80.5368C212.405 80.3396 212.257 80.1749 212.141 80.0455C211.975 89.972 206.316 98.9953 197.45 103.465L197.018 103.677L176.821 113.411C172.308 115.589 169.505 120.225 169.674 125.23V145.364L169.323 145.374C169.246 144.1 168.802 141.139 168.101 138C167.399 134.857 166.445 131.563 165.358 129.607C164.271 127.65 162.968 126.347 161.938 125.534C161.422 125.127 160.976 124.842 160.659 124.66C160.501 124.57 160.375 124.504 160.29 124.462C160.247 124.441 160.215 124.425 160.193 124.415C160.182 124.41 160.174 124.407 160.169 124.404C160.166 124.403 160.164 124.403 160.163 124.402L160.162 124.402L160.027 124.344L160.059 124.2L168.673 86.7235L168.825 86.8739L211.91 71.2088L211.977 71.1844L212.043 71.2137ZM168.921 87.2138L160.434 124.141C160.438 124.143 160.442 124.145 160.446 124.147C160.538 124.192 160.67 124.261 160.835 124.356C161.165 124.545 161.625 124.839 162.155 125.257C163.216 126.094 164.552 127.432 165.666 129.436C166.779 131.44 167.742 134.779 168.445 137.924C168.813 139.572 169.11 141.176 169.322 142.515V125.242L169.315 124.76C169.33 119.802 172.174 115.262 176.668 113.094L196.866 103.36C205.993 98.9621 211.794 89.7232 211.794 79.5942V79.1488L212.098 79.4741L212.102 79.478C212.105 79.4804 212.108 79.4842 212.112 79.4887C212.121 79.4981 212.134 79.5115 212.151 79.5297C212.185 79.5665 212.235 79.6211 212.299 79.6919C212.427 79.8336 212.612 80.0413 212.842 80.3053C213.301 80.8334 213.936 81.5881 214.642 82.4932C216.052 84.3018 217.751 86.7204 218.885 89.1439C220.013 91.5547 220.609 94.027 219.729 95.9088C219.122 97.2049 217.839 98.1776 215.652 98.6662H235.853C240.407 98.6662 244.094 102.352 244.095 106.906L244.352 129.859C244.845 127.984 245.879 126.273 247.35 124.95C249.529 122.993 252.652 123.781 254.028 125.929L248.915 88.3253L211.962 71.5634L168.921 87.2138Z" fill="#155C6D"/>
<path d="M206 221.783C228.69 221.783 249.433 213.462 265.346 199.704C263.239 198.374 261.078 197.128 258.864 195.971C246.561 202.832 227.372 207.408 205.905 207.408C184.437 207.408 166.673 203.36 154.358 196.855C153.04 198.843 151.788 200.867 150.607 202.933C165.938 214.75 185.144 221.789 206 221.789V221.783Z" fill="#155C6D"/>
<path d="M258.946 195.814C261.164 196.974 263.328 198.223 265.439 199.555L265.64 199.681L265.461 199.837C249.559 213.585 228.841 221.915 206.176 221.958V221.965H206C185.104 221.965 165.86 214.911 150.5 203.072L150.378 202.979L150.455 202.845C151.638 200.776 152.892 198.749 154.211 196.758L154.299 196.625L154.44 196.699C166.723 203.187 184.457 207.232 205.905 207.232C227.351 207.232 246.509 202.66 258.779 195.817L258.862 195.771L258.946 195.814ZM258.865 196.17C246.525 203.023 227.344 207.584 205.905 207.584C184.5 207.584 166.76 203.562 154.418 197.084C153.163 198.984 151.967 200.916 150.836 202.886C166.074 214.591 185.131 221.572 205.823 221.611V221.606H206C228.56 221.606 249.191 213.364 265.049 199.726C263.036 198.463 260.975 197.276 258.865 196.17Z" fill="#155C6D"/>
<path d="M283.601 236.168C287.922 219.692 280.408 203.436 266.822 199.857C253.236 196.278 238.725 206.736 234.404 223.212C230.083 239.688 237.597 255.944 251.183 259.523C264.769 263.102 279.28 252.644 283.601 236.168Z" fill="#C8DAE8"/>
<path d="M234.233 223.167C238.57 206.629 253.158 196.074 266.867 199.686C280.575 203.297 288.108 219.674 283.771 236.212C279.434 252.75 264.847 263.304 251.138 259.693C237.429 256.082 229.897 239.704 234.233 223.167ZM266.778 200.026C253.316 196.48 238.879 206.841 234.574 223.255C230.27 239.67 237.765 255.806 251.228 259.352C264.69 262.898 279.126 252.537 283.43 236.123C287.735 219.709 280.24 203.573 266.778 200.026Z" fill="#155C6D"/>
<path d="M276.171 217.253L275.346 111.904C275.346 111.761 275.292 111.619 275.203 111.512C275.114 111.405 274.984 111.328 274.841 111.298L270.841 110.509C269.28 110.206 267.665 110.402 266.223 111.079L248.198 119.554C246.863 120.183 245.729 121.174 244.94 122.421C244.144 123.667 243.717 125.115 243.711 126.593L243.331 208.024L276.171 217.253Z" fill="#155C6D"/>
<path d="M266.427 110.795C267.831 110.204 269.377 110.046 270.875 110.336L274.875 111.125H274.877L275.008 111.165C275.136 111.214 275.251 111.295 275.338 111.399C275.453 111.536 275.522 111.718 275.522 111.902L276.348 217.486L243.154 208.157L243.155 208.023L243.535 126.592L243.541 126.309C243.597 124.897 244.029 123.52 244.791 122.326C245.599 121.051 246.758 120.038 248.123 119.395L266.148 110.919L266.427 110.795ZM270.807 110.682C269.283 110.386 267.706 110.576 266.298 111.237L266.298 111.238L248.273 119.712L248.274 119.713C247.049 120.29 245.999 121.178 245.237 122.29L245.088 122.515C244.359 123.658 243.946 124.973 243.893 126.324L243.887 126.594L243.507 207.889L275.993 217.02L275.169 111.905L275.162 111.829C275.149 111.754 275.115 111.682 275.068 111.625C275.006 111.55 274.912 111.492 274.807 111.47L270.807 110.682Z" fill="#155C6D"/>
<path d="M248.232 209.24L248.992 126.605C248.992 125.958 249.182 125.323 249.526 124.777C249.87 124.231 250.357 123.786 250.939 123.501L275.19 111.518C275.101 111.405 274.97 111.328 274.828 111.304L270.827 110.515C269.266 110.212 267.652 110.408 266.21 111.085L248.185 119.56C246.849 120.189 245.716 121.18 244.926 122.427C244.131 123.673 243.704 125.121 243.698 126.599L243.318 208.03" fill="#C8DAE8"/>
<path d="M266.414 110.801C267.818 110.21 269.364 110.052 270.861 110.342L274.862 111.131H274.861C275.045 111.163 275.213 111.263 275.328 111.409L275.463 111.58L275.267 111.675L251.017 123.659H251.016C250.464 123.929 250.002 124.351 249.675 124.87C249.347 125.389 249.168 125.992 249.168 126.605V126.607L248.409 209.242L248.232 209.241L248.056 209.239L248.816 126.603C248.816 125.922 249.017 125.255 249.378 124.683C249.739 124.11 250.249 123.642 250.86 123.343L274.847 111.49C274.831 111.485 274.815 111.481 274.798 111.478L274.794 111.477L270.794 110.687V110.688C269.269 110.392 267.692 110.582 266.284 111.243L266.285 111.244L248.259 119.718L248.26 119.719C247.036 120.296 245.985 121.184 245.224 122.296L245.075 122.521C244.346 123.664 243.933 124.979 243.879 126.33L243.874 126.6L243.494 208.031L243.142 208.029L243.522 126.598L243.528 126.315C243.584 124.902 244.016 123.526 244.778 122.332C245.586 121.057 246.745 120.044 248.11 119.401L266.135 110.925L266.414 110.801Z" fill="#155C6D"/>
<path d="M246.326 147.65C246.178 147.621 246.047 147.538 245.952 147.419C245.857 147.3 245.81 147.152 245.81 147.003L245.928 138.884C245.928 138.789 245.952 138.694 245.994 138.605C246.035 138.516 246.1 138.439 246.172 138.38C246.249 138.32 246.338 138.279 246.433 138.255C246.528 138.231 246.629 138.231 246.724 138.255C246.872 138.285 247.003 138.368 247.098 138.486C247.193 138.605 247.24 138.754 247.24 138.902L247.127 147.021C247.127 147.116 247.104 147.217 247.062 147.3C247.02 147.389 246.955 147.466 246.884 147.526C246.807 147.585 246.718 147.627 246.623 147.65C246.528 147.674 246.433 147.674 246.332 147.65H246.326Z" fill="#C8DAE8"/>
<path d="M246.39 138.084C246.513 138.054 246.643 138.054 246.766 138.084L246.765 138.086C246.954 138.126 247.117 138.23 247.235 138.377C247.357 138.53 247.416 138.718 247.416 138.903V138.905L247.303 147.025C247.303 147.144 247.272 147.268 247.22 147.374L247.221 147.375C247.167 147.492 247.083 147.589 246.996 147.661L246.992 147.666C246.894 147.741 246.782 147.792 246.665 147.822C246.549 147.851 246.433 147.851 246.314 147.826H246.309L246.291 147.823C246.1 147.785 245.934 147.678 245.815 147.529C245.693 147.377 245.634 147.189 245.634 147.004V147.001L245.752 138.882C245.752 138.759 245.784 138.64 245.834 138.532C245.889 138.415 245.972 138.317 246.059 138.245L246.065 138.241L246.14 138.189C246.218 138.141 246.302 138.106 246.39 138.084ZM246.476 138.426C246.403 138.444 246.336 138.476 246.279 138.52C246.226 138.565 246.181 138.621 246.153 138.68C246.121 138.749 246.105 138.819 246.105 138.884V138.887L245.985 147.007C245.986 147.117 246.023 147.225 246.09 147.31C246.158 147.394 246.248 147.452 246.348 147.475H246.353L246.372 147.48C246.447 147.497 246.514 147.496 246.58 147.48C246.651 147.462 246.715 147.431 246.771 147.39C246.826 147.344 246.874 147.288 246.903 147.227L246.905 147.222L246.939 147.125C246.947 147.091 246.951 147.055 246.951 147.022V147.02L247.064 138.903L247.057 138.82C247.044 138.738 247.011 138.661 246.96 138.597C246.889 138.509 246.794 138.449 246.689 138.428L246.681 138.426C246.614 138.409 246.543 138.41 246.476 138.426Z" fill="#155C6D"/>
<path d="M246.144 160.334C245.996 160.305 245.865 160.222 245.77 160.103C245.675 159.984 245.628 159.836 245.628 159.687L245.747 151.568C245.747 151.473 245.77 151.372 245.812 151.289C245.853 151.2 245.913 151.123 245.99 151.064C246.067 151.004 246.156 150.963 246.245 150.939C246.34 150.915 246.435 150.915 246.53 150.939C246.678 150.969 246.815 151.052 246.91 151.17C247.005 151.289 247.052 151.438 247.052 151.592L246.934 159.711C246.934 159.806 246.91 159.901 246.868 159.99C246.827 160.079 246.761 160.156 246.69 160.216C246.613 160.275 246.524 160.317 246.429 160.34C246.334 160.364 246.239 160.364 246.138 160.34L246.144 160.334Z" fill="#C8DAE8"/>
<path d="M246.295 150.75C246.387 150.739 246.48 150.744 246.572 150.767L246.571 150.769C246.758 150.808 246.928 150.911 247.047 151.06C247.169 151.213 247.229 151.401 247.229 151.591V151.593L247.11 159.713C247.109 159.836 247.078 159.956 247.028 160.064C246.973 160.18 246.89 160.277 246.803 160.35L246.798 160.355C246.7 160.43 246.588 160.481 246.472 160.51C246.348 160.541 246.224 160.541 246.098 160.511L245.79 160.439L245.834 160.394C245.758 160.345 245.69 160.283 245.633 160.212C245.511 160.06 245.452 159.872 245.452 159.687V159.684L245.57 151.565C245.571 151.474 245.587 151.38 245.618 151.293L245.654 151.209C245.707 151.099 245.783 151 245.883 150.923C245.98 150.849 246.091 150.797 246.2 150.768L246.202 150.767L246.295 150.75ZM246.288 151.109L246.287 151.108C246.22 151.126 246.154 151.159 246.098 151.203C246.045 151.243 246.002 151.297 245.972 151.363L245.97 151.367C245.941 151.425 245.923 151.499 245.923 151.567V151.57L245.804 159.69C245.804 159.8 245.841 159.908 245.908 159.992C245.979 160.081 246.074 160.14 246.179 160.161L246.263 160.178C246.305 160.18 246.346 160.179 246.387 160.169C246.458 160.151 246.522 160.12 246.577 160.078C246.632 160.032 246.681 159.976 246.709 159.915C246.741 159.846 246.758 159.776 246.758 159.71V159.708L246.876 151.591L246.869 151.504C246.856 151.42 246.823 151.343 246.773 151.28C246.703 151.193 246.603 151.132 246.495 151.111L246.487 151.109C246.421 151.092 246.355 151.092 246.288 151.109Z" fill="#155C6D"/>
<path d="M246.084 147.657C245.941 147.628 245.811 147.544 245.716 147.432C245.621 147.313 245.573 147.171 245.573 147.022L245.686 139.111C245.686 139.016 245.71 138.921 245.751 138.838C245.793 138.754 245.852 138.677 245.929 138.618C246.007 138.559 246.09 138.517 246.185 138.493C246.28 138.47 246.375 138.47 246.464 138.493C246.606 138.523 246.737 138.606 246.832 138.725C246.927 138.843 246.974 138.986 246.968 139.134L246.855 147.046C246.855 147.141 246.832 147.236 246.79 147.319C246.748 147.402 246.689 147.479 246.612 147.538C246.541 147.598 246.452 147.639 246.357 147.663C246.262 147.687 246.167 147.687 246.078 147.663L246.084 147.657Z" fill="#C8DAE8"/>
<path d="M246.142 138.323C246.264 138.292 246.389 138.292 246.509 138.324L246.508 138.325C246.69 138.365 246.852 138.47 246.969 138.616C247.089 138.765 247.149 138.946 247.143 139.136L247.144 139.137L247.032 147.049C247.031 147.172 247 147.293 246.948 147.399C246.896 147.502 246.82 147.601 246.719 147.679L246.718 147.678C246.624 147.754 246.513 147.806 246.4 147.834C246.278 147.865 246.152 147.866 246.032 147.834L245.737 147.755L245.775 147.716C245.702 147.669 245.636 147.611 245.581 147.545L245.578 147.542C245.457 147.391 245.397 147.209 245.397 147.022V147.021L245.51 139.109C245.51 138.986 245.541 138.865 245.594 138.759C245.646 138.656 245.721 138.557 245.822 138.479C245.917 138.406 246.022 138.353 246.142 138.323ZM246.228 138.664C246.158 138.682 246.095 138.713 246.036 138.758C245.983 138.799 245.94 138.854 245.908 138.916C245.878 138.976 245.862 139.045 245.862 139.111V139.114L245.749 147.025C245.75 147.133 245.784 147.234 245.851 147.318L245.909 147.378C245.972 147.432 246.044 147.47 246.119 147.485L246.21 147.504C246.243 147.504 246.278 147.502 246.314 147.493C246.388 147.475 246.452 147.443 246.499 147.403L246.504 147.399L246.576 147.328C246.598 147.301 246.616 147.272 246.632 147.24C246.662 147.18 246.679 147.112 246.679 147.046V147.044L246.792 139.132V139.127L246.788 139.05C246.778 138.973 246.746 138.9 246.694 138.835C246.622 138.746 246.527 138.687 246.428 138.666L246.418 138.664V138.663C246.36 138.648 246.295 138.648 246.228 138.664Z" fill="#155C6D"/>
<path d="M245.905 160.382C245.763 160.353 245.632 160.269 245.537 160.157C245.443 160.044 245.395 159.895 245.401 159.747L245.514 151.841C245.514 151.747 245.537 151.652 245.579 151.568C245.621 151.485 245.68 151.408 245.757 151.349C245.834 151.29 245.917 151.248 246.012 151.224C246.101 151.2 246.202 151.2 246.291 151.224C246.434 151.254 246.564 151.337 246.659 151.45C246.754 151.563 246.802 151.711 246.796 151.859L246.683 159.765C246.683 159.86 246.659 159.955 246.618 160.038C246.576 160.121 246.517 160.198 246.446 160.258C246.374 160.317 246.285 160.358 246.196 160.382C246.107 160.406 246.006 160.406 245.917 160.382H245.905Z" fill="#C8DAE8"/>
<path d="M245.97 151.054C246.085 151.024 246.211 151.024 246.326 151.053L246.327 151.052L246.329 151.053C246.332 151.054 246.334 151.054 246.336 151.054L246.335 151.055C246.517 151.095 246.678 151.199 246.794 151.336C246.918 151.484 246.977 151.673 246.971 151.861L246.972 151.862L246.859 159.768C246.858 159.89 246.828 160.011 246.775 160.116C246.723 160.22 246.649 160.317 246.558 160.393C246.463 160.472 246.35 160.523 246.241 160.552C246.132 160.581 246.012 160.582 245.901 160.558H245.887L245.869 160.555C245.685 160.516 245.52 160.41 245.402 160.27C245.278 160.121 245.217 159.929 245.225 159.74L245.338 151.839C245.338 151.717 245.369 151.596 245.422 151.49C245.474 151.386 245.549 151.287 245.65 151.209C245.745 151.136 245.85 151.083 245.97 151.053V151.054ZM246.058 151.394L246.055 151.395C245.985 151.413 245.924 151.443 245.864 151.489C245.811 151.53 245.768 151.585 245.736 151.647C245.707 151.707 245.69 151.775 245.69 151.841V151.844L245.577 159.75V159.754C245.573 159.861 245.607 159.966 245.672 160.043C245.741 160.125 245.833 160.183 245.929 160.206H245.941L245.963 160.212C246.022 160.228 246.091 160.228 246.151 160.212C246.22 160.194 246.285 160.162 246.333 160.122C246.384 160.08 246.429 160.022 246.46 159.959C246.49 159.899 246.507 159.831 246.507 159.765V159.763L246.619 151.857V151.852L246.616 151.773C246.605 151.695 246.573 151.621 246.525 151.563C246.453 151.477 246.355 151.418 246.255 151.397L246.245 151.395V151.393C246.186 151.378 246.117 151.378 246.058 151.394Z" fill="#155C6D"/>
<path d="M243.693 131.477L248.928 134.617L248.964 130.961L243.711 127.815L243.693 131.483V131.477Z" fill="#70C5AD"/>
<path d="M249.054 130.81L249.141 130.862L249.101 134.926L243.602 131.628L243.69 131.483H243.517V131.166H243.519L243.535 127.814L243.537 127.506L249.054 130.81ZM243.869 131.377L248.755 134.308L248.786 131.06L243.885 128.124L243.869 131.377Z" fill="#155C6D"/>
<path d="M243.71 126.527L248.968 129.679L248.986 127.542L243.983 124.545C243.805 125.192 243.716 125.857 243.704 126.522L243.71 126.527Z" fill="#70C5AD"/>
<path d="M244.073 124.394L249.077 127.391L249.163 127.443L249.162 127.544L249.144 129.681L249.141 129.989L243.619 126.678L243.6 126.668L243.586 126.652L243.58 126.646L243.526 126.593L243.528 126.518C243.54 125.84 243.631 125.16 243.813 124.498L243.875 124.276L244.073 124.394ZM244.095 124.818C243.967 125.346 243.9 125.885 243.884 126.426L248.795 129.37L248.809 127.641L244.095 124.818Z" fill="#155C6D"/>
<path d="M266.223 111.085C263.849 112.218 252.839 117.536 250.732 118.527C249.818 118.972 248.518 119.536 247.658 120.029C246.69 120.605 245.865 121.382 245.23 122.314C244.601 123.246 244.18 124.302 244.002 125.418C243.842 126.362 243.931 127.845 243.907 128.825C243.889 142.915 243.764 166.187 243.652 180.479C243.598 187.322 243.438 201.18 243.331 208.036C243.29 201.145 243.254 187.369 243.266 180.479C243.295 166.086 243.367 142.992 243.491 128.825C243.527 127.816 243.45 126.362 243.628 125.359C243.824 124.195 244.269 123.091 244.94 122.124C245.61 121.157 246.483 120.349 247.498 119.756C248.406 119.251 249.682 118.723 250.614 118.272C252.697 117.293 263.908 112.153 266.223 111.09V111.085Z" fill="#70C5AD"/>
<path d="M266.399 111.204L266.296 111.251C266.223 111.284 266.141 111.321 266.05 111.363C263.243 112.707 252.848 117.726 250.807 118.687C249.88 119.138 248.598 119.693 247.745 120.182C246.919 120.674 246.2 121.317 245.617 122.079L245.376 122.413C244.761 123.324 244.35 124.356 244.176 125.446V125.448C244.098 125.903 244.08 126.497 244.079 127.108C244.078 127.711 244.095 128.338 244.083 128.829C244.07 139.397 243.996 155.127 243.913 168.361L243.828 180.48C243.775 187.323 243.614 201.183 243.507 208.038L243.155 208.037C243.124 202.868 243.096 193.828 243.089 186.723L243.09 180.479C243.119 166.086 243.191 142.991 243.315 128.823V128.818L243.327 127.998C243.327 127.706 243.326 127.399 243.33 127.088C243.337 126.472 243.362 125.846 243.454 125.329L243.541 124.887C243.771 123.861 244.195 122.89 244.795 122.024C245.48 121.036 246.372 120.21 247.409 119.604L247.412 119.602L247.771 119.41C248.643 118.962 249.737 118.501 250.537 118.113L250.538 118.112C252.548 117.168 263.042 112.356 265.866 111.06C265.97 111.011 266.064 110.965 266.147 110.925L266.399 110.805V111.204ZM243.441 184.128C243.454 182.776 243.467 181.542 243.475 180.478L243.56 168.358C243.644 155.123 243.717 139.391 243.73 128.824V128.82L243.733 128.014C243.731 127.724 243.727 127.418 243.727 127.108C243.728 126.497 243.745 125.876 243.828 125.388C243.991 124.368 244.354 123.397 244.889 122.522C244.342 123.394 243.973 124.367 243.802 125.388L243.801 125.389C243.714 125.875 243.69 126.477 243.682 127.091C243.675 127.698 243.685 128.325 243.667 128.831C243.542 142.998 243.472 166.087 243.442 180.479L243.441 184.128Z" fill="#155C6D"/>
<path d="M281.292 173.659C278.936 170.14 276.586 166.466 274.514 162.845C274.514 162.845 277.761 155.379 285.014 160.162C286.183 160.922 281.292 173.659 281.292 173.659Z" fill="#155C6D"/>
<path d="M280.31 158.387C281.676 158.359 283.273 158.804 285.108 160.014H285.109C285.241 160.1 285.305 160.252 285.337 160.403C285.37 160.559 285.376 160.752 285.365 160.969C285.343 161.405 285.245 161.976 285.098 162.63C284.802 163.939 284.297 165.609 283.758 167.25C283.219 168.892 282.644 170.509 282.203 171.716C281.983 172.32 281.797 172.822 281.665 173.172C281.599 173.347 281.547 173.484 281.512 173.578C281.494 173.625 281.48 173.66 281.471 173.685C281.466 173.697 281.462 173.706 281.46 173.712C281.459 173.715 281.459 173.717 281.458 173.719L281.457 173.721V173.722L281.335 174.038L281.147 173.756C278.789 170.235 276.436 166.557 274.362 162.932L274.318 162.855L274.353 162.774V162.773L274.354 162.772C274.355 162.771 274.355 162.769 274.356 162.767C274.358 162.763 274.361 162.757 274.364 162.75C274.371 162.735 274.38 162.714 274.393 162.686C274.42 162.631 274.46 162.551 274.513 162.451C274.618 162.252 274.776 161.973 274.989 161.655C275.414 161.019 276.059 160.218 276.94 159.568C277.822 158.916 278.942 158.415 280.31 158.387ZM280.317 158.738C279.036 158.765 277.985 159.234 277.149 159.851C276.311 160.469 275.692 161.236 275.281 161.85C275.076 162.157 274.925 162.425 274.824 162.615C274.774 162.709 274.737 162.784 274.713 162.836C276.714 166.328 278.975 169.87 281.249 173.275C281.274 173.209 281.303 173.133 281.335 173.048C281.466 172.698 281.653 172.199 281.873 171.596C282.313 170.391 282.887 168.777 283.424 167.14C283.962 165.502 284.462 163.845 284.754 162.553C284.9 161.905 284.992 161.357 285.014 160.951C285.024 160.747 285.016 160.589 284.992 160.475C284.967 160.356 284.932 160.318 284.918 160.309H284.917C283.127 159.128 281.598 158.712 280.317 158.738Z" fill="#155C6D"/>
<path d="M239.674 225.782C241.057 236.18 242.82 246.769 253.877 250.342C264.94 253.92 275.493 248.068 278.704 238.091C281.92 228.114 276.258 218.571 265.522 214.184C252.624 208.908 237.335 208.202 239.668 225.782H239.674Z" fill="#155C6D"/>
<path d="M246.839 211.242C252.039 209.866 259.131 211.379 265.589 214.021L266.091 214.232C276.397 218.662 281.897 227.916 279.017 237.673L278.871 238.146C275.681 248.058 265.309 253.932 254.345 250.671L253.823 250.509C248.239 248.705 245 245.125 242.988 240.694C240.999 236.317 240.206 231.104 239.52 225.958H239.513L239.494 225.804C238.908 221.387 239.425 218.093 240.757 215.724C242.091 213.352 244.231 211.932 246.839 211.242ZM265.455 214.347C259.015 211.713 252.014 210.236 246.929 211.582C244.394 212.253 242.343 213.623 241.063 215.897C239.797 218.149 239.276 221.311 239.824 225.605H239.828L239.848 225.759C240.54 230.961 241.325 236.182 243.308 240.548C245.287 244.905 248.457 248.406 253.931 250.174L254.445 250.334C265.227 253.541 275.405 247.767 278.536 238.037L278.679 237.575C281.496 228.03 276.139 218.933 265.952 214.555L265.455 214.347Z" fill="#155C6D"/>
<path d="M275.124 190.948C276.507 191.868 285.113 197.661 290.941 203.109C290.941 203.109 296.853 197.845 295.808 194.61C294.763 191.375 270.678 162.53 267.675 146.921C246.285 142.226 275.13 190.948 275.13 190.948H275.124Z" fill="#70C5AD"/>
<path d="M261.753 147.322C262.987 146.456 264.776 146.191 267.216 146.649L267.713 146.749L267.826 146.775L267.848 146.888C268.593 150.763 270.652 155.473 273.346 160.419C276.039 165.361 279.359 170.526 282.621 175.307C285.883 180.088 289.085 184.483 291.537 187.887C292.762 189.588 293.802 191.043 294.568 192.174C294.951 192.739 295.268 193.226 295.505 193.623C295.739 194.016 295.903 194.333 295.975 194.556C296.256 195.424 296.064 196.408 295.65 197.373C295.234 198.341 294.583 199.315 293.905 200.181C293.225 201.048 292.514 201.813 291.974 202.36C291.703 202.634 291.474 202.854 291.313 203.005C291.233 203.081 291.169 203.14 291.126 203.18C291.104 203.2 291.087 203.215 291.076 203.225C291.07 203.23 291.066 203.234 291.063 203.237C291.062 203.238 291.06 203.24 291.059 203.24H291.058V203.241L290.938 203.348L290.821 203.239C285.005 197.801 276.409 192.016 275.026 191.096L274.542 190.772H274.823C274.778 190.695 274.722 190.601 274.659 190.491C274.452 190.135 274.153 189.613 273.779 188.951C273.031 187.626 271.987 185.74 270.802 183.492C268.43 178.995 265.489 173.044 263.217 167.239C260.949 161.442 259.333 155.759 259.64 151.807C259.794 149.827 260.434 148.247 261.753 147.322ZM267.527 147.07C264.934 146.519 263.139 146.779 261.955 147.61C260.758 148.45 260.142 149.907 259.992 151.834C259.692 155.697 261.277 161.314 263.545 167.111C265.811 172.899 268.745 178.836 271.113 183.328C272.297 185.573 273.339 187.456 274.085 188.778C274.458 189.439 274.758 189.959 274.963 190.314C275.066 190.492 275.146 190.628 275.2 190.72C275.227 190.765 275.247 190.801 275.26 190.824C275.262 190.826 275.262 190.828 275.263 190.83C276.759 191.826 285.16 197.496 290.941 202.87C290.977 202.837 291.021 202.797 291.072 202.749C291.23 202.6 291.456 202.384 291.724 202.113C292.258 201.572 292.959 200.818 293.627 199.964C294.296 199.11 294.928 198.162 295.327 197.233C295.727 196.302 295.882 195.414 295.64 194.665C295.582 194.483 295.436 194.196 295.202 193.804C294.97 193.415 294.658 192.934 294.277 192.371C293.514 191.245 292.477 189.794 291.251 188.092C288.8 184.69 285.596 180.291 282.331 175.506C279.066 170.72 275.737 165.545 273.036 160.588C270.364 155.682 268.301 150.977 267.527 147.07Z" fill="#155C6D"/>
<path d="M288.909 221.348C288.185 220.357 287.223 219.562 286.107 219.045C281.252 216.79 274.967 214.677 270.136 213.187C271.916 212.784 273.584 208.985 272.878 207.982L265.785 203.4C265.785 203.4 222.827 188.36 237.736 179.855L274.931 190.83C274.931 190.83 296.998 205.359 296.345 211.027C295.924 214.695 290.915 217.49 290.915 217.49L288.909 221.348Z" fill="#70C5AD"/>
<path d="M237.786 179.686L274.981 190.661L275.007 190.668L275.028 190.683L275.029 190.684C275.03 190.684 275.031 190.685 275.032 190.686C275.035 190.687 275.039 190.69 275.045 190.693C275.055 190.7 275.071 190.711 275.092 190.725C275.134 190.752 275.196 190.794 275.277 190.848C275.439 190.956 275.676 191.115 275.978 191.319C276.58 191.728 277.44 192.319 278.47 193.044C280.531 194.496 283.272 196.492 285.993 198.666C288.713 200.838 291.419 203.192 293.405 205.361C294.398 206.446 295.216 207.488 295.766 208.444C296.279 209.335 296.57 210.171 296.532 210.902L296.521 211.047C296.302 212.948 294.901 214.602 293.589 215.766C292.929 216.351 292.283 216.82 291.802 217.143C291.562 217.304 291.362 217.429 291.223 217.514C291.153 217.556 291.097 217.589 291.06 217.611C291.055 217.613 291.051 217.615 291.047 217.617L289.065 221.43L288.934 221.681L288.766 221.452C288.148 220.606 287.353 219.906 286.435 219.407L286.033 219.205C281.19 216.955 274.914 214.845 270.084 213.356L269.454 213.162L270.097 213.016C270.492 212.926 270.901 212.642 271.285 212.226C271.667 211.812 272.012 211.283 272.282 210.732C272.551 210.181 272.743 209.616 272.825 209.132C272.865 208.891 272.877 208.675 272.861 208.494C272.845 208.326 272.804 208.199 272.747 208.108L265.706 203.559C265.703 203.558 265.699 203.557 265.695 203.555C265.675 203.548 265.644 203.537 265.604 203.523C265.523 203.494 265.403 203.451 265.247 203.395C264.935 203.283 264.48 203.117 263.907 202.903C262.76 202.474 261.139 201.852 259.24 201.08C255.443 199.536 250.531 197.388 246.085 194.972C241.647 192.56 237.643 189.867 235.687 187.227C234.707 185.904 234.222 184.568 234.488 183.273C234.755 181.978 235.763 180.777 237.648 179.702L237.713 179.665L237.786 179.686ZM237.759 180.046C235.96 181.086 235.068 182.203 234.833 183.344C234.595 184.5 235.019 185.734 235.97 187.018C237.875 189.59 241.816 192.252 246.253 194.663C250.683 197.07 255.58 199.212 259.372 200.754C261.267 201.525 262.886 202.145 264.03 202.573C264.602 202.786 265.056 202.952 265.366 203.064C265.521 203.12 265.641 203.162 265.722 203.191C265.762 203.205 265.792 203.216 265.813 203.223C265.823 203.227 265.831 203.229 265.836 203.231C265.839 203.232 265.841 203.233 265.842 203.234C265.842 203.234 265.844 203.234 265.787 203.395L265.844 203.234L265.863 203.241L265.881 203.252L272.973 207.834L273.002 207.853L273.022 207.881C273.134 208.04 273.191 208.243 273.211 208.461C273.232 208.681 273.215 208.929 273.171 209.191C273.083 209.715 272.878 210.312 272.597 210.887C272.316 211.461 271.954 212.021 271.544 212.464C271.275 212.756 270.978 213.001 270.666 213.168C275.43 214.649 281.475 216.699 286.182 218.885L286.394 218.988C287.363 219.475 288.208 220.173 288.878 221.023L290.783 217.363L290.829 217.336L290.832 217.335C290.834 217.334 290.837 217.332 290.842 217.329C290.851 217.324 290.865 217.316 290.883 217.306C290.919 217.285 290.972 217.253 291.04 217.212C291.176 217.13 291.371 217.008 291.607 216.85C292.078 216.534 292.71 216.075 293.355 215.503C294.653 214.352 295.968 212.773 296.171 211.007L296.181 210.883C296.213 210.253 295.961 209.49 295.46 208.62C294.928 207.696 294.129 206.673 293.145 205.599C291.177 203.449 288.488 201.108 285.773 198.94C283.06 196.773 280.325 194.782 278.268 193.333C277.24 192.608 276.381 192.018 275.779 191.611C275.479 191.407 275.242 191.248 275.081 191.141C275 191.087 274.939 191.045 274.897 191.018C274.879 191.006 274.865 190.996 274.854 190.989L237.759 180.046Z" fill="#155C6D"/>
<path d="M278.449 212.178C275.386 209.739 272.876 207.976 272.876 207.976C273.582 208.985 271.914 212.778 270.134 213.181C272.152 213.798 274.407 214.528 276.716 215.33C278.651 216 280.051 213.454 278.449 212.178Z" fill="#155C6D"/>
<path d="M272.979 207.833C272.98 207.834 272.982 207.836 272.985 207.837C272.99 207.841 272.997 207.846 273.006 207.853C273.025 207.866 273.054 207.886 273.091 207.912C273.166 207.966 273.277 208.045 273.418 208.147C273.702 208.351 274.112 208.648 274.618 209.021C275.63 209.768 277.025 210.819 278.558 212.04L278.713 212.175C280.171 213.564 278.808 216.042 276.856 215.555L276.658 215.496C274.352 214.695 272.098 213.966 270.082 213.349L269.449 213.156L270.095 213.009C270.49 212.919 270.899 212.636 271.283 212.22C271.665 211.807 272.01 211.279 272.28 210.728C272.549 210.178 272.74 209.612 272.822 209.129C272.905 208.633 272.866 208.268 272.732 208.077L272.977 207.832L272.979 207.833ZM273.205 208.425C273.23 208.658 273.214 208.919 273.169 209.187C273.081 209.711 272.876 210.309 272.595 210.883C272.314 211.457 271.952 212.016 271.542 212.459C271.274 212.75 270.977 212.995 270.666 213.162C272.56 213.747 274.644 214.424 276.774 215.163L276.936 215.212C278.544 215.613 279.668 213.571 278.467 212.427L278.339 212.316C276.81 211.098 275.418 210.049 274.409 209.304C273.904 208.932 273.496 208.635 273.213 208.432C273.21 208.43 273.208 208.427 273.205 208.425Z" fill="#155C6D"/>
<path d="M239.021 225.159C235.911 232.399 239.365 249.386 250.962 253.612C265.278 257.838 273.112 249.76 278.062 242.685C281.297 238.062 282.347 232.382 282.347 232.382C282.347 232.382 288.603 231.26 290.301 227.141C290.805 225.776 290.253 220.98 286.11 219.051C276.952 214.796 262.714 211.051 262.714 211.051C262.714 211.051 238.302 203.382 229.744 204.837C223.838 213.745 258.85 223.888 258.85 223.888L276.276 229.099C278.917 233.492 268.204 231.254 255.152 226.494L242.054 217.686C241.199 217.3 240.665 217.051 239.834 216.642C235.4 222.411 240.552 230.097 249.342 236.78C249.342 236.78 255.236 240.596 270.732 244.098" fill="#70C5AD"/>
<path d="M229.715 204.663C231.884 204.294 235.038 204.506 238.532 205.02C242.031 205.536 245.891 206.359 249.48 207.227C253.069 208.095 256.391 209.009 258.815 209.706C260.027 210.054 261.014 210.349 261.699 210.556C262.042 210.659 262.308 210.741 262.489 210.797C262.58 210.825 262.649 210.846 262.695 210.86C262.718 210.868 262.736 210.873 262.748 210.877C262.754 210.879 262.759 210.88 262.762 210.881C262.763 210.881 262.766 210.882 262.769 210.883C262.776 210.885 262.786 210.888 262.8 210.892C262.827 210.899 262.868 210.91 262.921 210.924C263.028 210.952 263.186 210.994 263.39 211.05C263.798 211.161 264.39 211.324 265.13 211.533C266.609 211.951 268.676 212.553 271.03 213.288C275.736 214.756 281.594 216.758 286.184 218.891L286.572 219.086C288.455 220.095 289.547 221.706 290.114 223.247C290.416 224.068 290.57 224.873 290.617 225.56C290.663 226.244 290.604 226.828 290.465 227.202L290.463 227.208C289.589 229.331 287.548 230.666 285.759 231.467C284.861 231.869 284.018 232.141 283.399 232.312C283.089 232.397 282.834 232.458 282.657 232.497C282.594 232.511 282.54 232.522 282.497 232.531C282.489 232.569 282.48 232.616 282.468 232.671C282.432 232.837 282.379 233.079 282.304 233.383C282.154 233.992 281.92 234.851 281.585 235.855C280.957 237.737 279.97 240.133 278.506 242.346L278.206 242.786C275.726 246.331 272.511 250.146 268.109 252.541C263.699 254.94 258.112 255.906 250.912 253.781L250.902 253.778C245.035 251.64 241.243 246.281 239.309 240.572C237.381 234.88 237.281 228.789 238.848 225.112C237.637 222.13 237.708 219.242 239.569 216.701C236.478 215.163 233.647 213.468 231.683 211.702C230.447 210.592 229.539 209.441 229.132 208.271C228.723 207.091 228.828 205.9 229.597 204.739L229.639 204.676L229.715 204.663ZM238.481 205.368C235.032 204.86 231.958 204.657 229.849 204.998C229.18 206.044 229.098 207.098 229.466 208.156C229.844 209.245 230.703 210.348 231.918 211.441C234.167 213.462 237.589 215.404 241.258 217.127L242.126 217.526L242.14 217.532L242.152 217.54L242.156 217.543C246.157 219.365 250.342 220.909 253.529 221.998C255.122 222.543 256.465 222.973 257.409 223.267C257.882 223.414 258.255 223.528 258.509 223.604C258.636 223.642 258.733 223.671 258.799 223.69C258.832 223.7 258.858 223.708 258.874 223.712C258.883 223.715 258.889 223.716 258.893 223.717C258.895 223.718 258.897 223.719 258.898 223.719L258.901 223.72L276.391 228.951L276.427 229.009C276.764 229.571 276.912 230.063 276.835 230.476C276.754 230.905 276.443 231.197 275.99 231.378C275.541 231.557 274.931 231.637 274.194 231.637C273.454 231.636 272.572 231.555 271.572 231.402C267.575 230.794 261.621 229.04 255.092 226.659L255.072 226.652L255.054 226.64L241.984 217.851C241.691 217.718 241.4 217.583 241.11 217.447C240.713 217.262 240.342 217.087 239.887 216.864C237.817 219.651 237.997 222.894 239.785 226.286C241.599 229.73 245.059 233.301 249.441 236.634L249.453 236.642C249.464 236.649 249.481 236.659 249.504 236.673C249.549 236.701 249.619 236.743 249.714 236.798C249.902 236.908 250.191 237.07 250.586 237.275C251.376 237.685 252.592 238.269 254.293 238.962C257.693 240.35 263.032 242.177 270.771 243.926L270.732 244.098L270.693 244.269C262.936 242.516 257.58 240.684 254.16 239.289C252.45 238.591 251.223 238.002 250.424 237.587C250.024 237.38 249.731 237.215 249.537 237.103C249.44 237.047 249.368 237.003 249.32 236.974C249.296 236.959 249.277 236.947 249.265 236.94C249.259 236.936 249.255 236.933 249.252 236.931C249.25 236.93 249.248 236.929 249.248 236.929L249.247 236.928L249.235 236.92C244.831 233.572 241.323 229.961 239.473 226.45C239.318 226.156 239.175 225.861 239.044 225.567C237.656 229.168 237.787 234.98 239.643 240.46C241.557 246.108 245.289 251.353 251.014 253.443C258.128 255.543 263.617 254.584 267.941 252.232C272.271 249.876 275.448 246.114 277.918 242.584L278.212 242.152C279.653 239.974 280.628 237.609 281.251 235.744C281.582 234.75 281.814 233.9 281.962 233.299C282.036 232.999 282.089 232.761 282.124 232.598C282.141 232.517 282.154 232.454 282.162 232.412C282.166 232.392 282.17 232.376 282.172 232.365C282.173 232.36 282.173 232.356 282.174 232.354C282.174 232.353 282.174 232.351 282.174 232.351L282.175 232.35L282.196 232.23L282.316 232.208H282.32C282.323 232.208 282.327 232.206 282.333 232.205C282.344 232.203 282.361 232.2 282.384 232.196C282.429 232.187 282.495 232.173 282.581 232.154C282.753 232.115 283.002 232.057 283.305 231.973C283.912 231.805 284.738 231.539 285.616 231.146C287.378 230.357 289.312 229.072 290.135 227.078C290.249 226.77 290.31 226.243 290.265 225.584C290.221 224.929 290.073 224.158 289.783 223.369C289.238 221.89 288.197 220.356 286.405 219.395L286.036 219.211C281.468 217.088 275.628 215.091 270.926 213.624C268.575 212.89 266.511 212.289 265.034 211.871C264.296 211.663 263.704 211.5 263.297 211.39C263.094 211.335 262.937 211.292 262.83 211.264C262.777 211.25 262.737 211.239 262.71 211.232C262.697 211.228 262.686 211.226 262.679 211.224C262.676 211.223 262.674 211.222 262.672 211.222L262.67 211.221L262.661 211.219L262.66 211.218C262.66 211.218 262.658 211.217 262.656 211.217C262.653 211.216 262.649 211.215 262.644 211.213C262.632 211.209 262.614 211.204 262.591 211.196C262.545 211.182 262.476 211.161 262.386 211.133C262.205 211.077 261.939 210.996 261.598 210.893C260.914 210.686 259.927 210.393 258.717 210.045C256.297 209.349 252.98 208.437 249.397 207.57C245.814 206.703 241.966 205.882 238.481 205.368ZM255.235 226.337C261.749 228.712 267.668 230.453 271.625 231.055C272.614 231.205 273.477 231.284 274.194 231.284C274.913 231.285 275.472 231.205 275.86 231.051C276.243 230.898 276.438 230.682 276.489 230.411C276.541 230.135 276.452 229.755 276.157 229.248L258.799 224.057L258.794 224.055C258.79 224.054 258.784 224.053 258.776 224.05C258.759 224.045 258.733 224.038 258.7 224.028C258.633 224.008 258.535 223.979 258.408 223.941C258.152 223.864 257.778 223.751 257.305 223.603C256.358 223.308 255.011 222.877 253.414 222.331C250.7 221.404 247.259 220.143 243.822 218.664L255.235 226.337Z" fill="#155C6D"/>
<path d="M229.787 204.86C226.914 209.988 237.787 214.558 241.342 216.238C253.699 221.74 266.953 224.868 279.47 229.978L279.434 230.096L265.255 225.894C261.047 224.63 255.195 222.968 251.13 221.473C245.248 219.271 231.751 214.261 229.276 208.38C229.039 207.798 228.95 207.163 229.015 206.534C229.086 205.905 229.312 205.305 229.668 204.789L229.775 204.86H229.781H229.787Z" fill="#155C6D"/>
<path d="M229.766 204.642L229.828 204.684H230.087L229.94 204.946C229.257 206.164 229.387 207.345 230.034 208.478C230.686 209.621 231.862 210.707 233.256 211.698C236.041 213.679 239.626 215.233 241.414 216.077L242.573 216.585C248.383 219.093 254.379 221.11 260.401 223.087C266.821 225.195 273.27 227.257 279.536 229.815L279.685 229.876L279.639 230.028L279.603 230.147L279.553 230.315L265.205 226.063C261.002 224.801 255.141 223.136 251.069 221.638C248.129 220.537 243.274 218.731 238.845 216.463C236.63 215.329 234.517 214.076 232.8 212.736C231.085 211.397 229.75 209.959 229.114 208.448L229.113 208.446C228.865 207.837 228.772 207.173 228.84 206.516V206.514L228.875 206.269C228.975 205.701 229.197 205.162 229.523 204.689L229.621 204.547L229.766 204.642ZM229.177 207.141C229.199 207.543 229.286 207.939 229.438 208.311C230.039 209.741 231.321 211.134 233.017 212.458C234.71 213.78 236.802 215.021 239.006 216.149C243.414 218.407 248.249 220.206 251.191 221.308C255.25 222.801 261.093 224.46 265.306 225.725L277.059 229.209C271.549 227.075 265.916 225.269 260.291 223.422C253.869 221.314 247.459 219.153 241.271 216.398L241.267 216.397C239.498 215.561 235.871 213.99 233.052 211.986C231.643 210.984 230.418 209.861 229.728 208.652C229.448 208.162 229.258 207.657 229.177 207.141Z" fill="#155C6D"/>
<path d="M290.294 227.164C288.614 230.998 281.878 233.248 277.29 231.645C280.246 232.82 282.335 232.405 282.335 232.405C282.335 232.405 288.609 231.271 290.294 227.164Z" fill="#C8DAE8"/>
<path d="M290.457 227.231C290.456 227.232 290.455 227.233 290.455 227.234L290.456 227.234C290.453 227.242 290.448 227.249 290.445 227.256C289.57 229.358 287.539 230.686 285.755 231.485C284.855 231.888 284.01 232.161 283.389 232.333C283.079 232.419 282.824 232.48 282.647 232.52C282.558 232.539 282.488 232.554 282.441 232.564C282.417 232.568 282.398 232.572 282.386 232.574C282.38 232.575 282.375 232.577 282.372 232.577C282.371 232.578 282.369 232.578 282.368 232.578H282.366L282.361 232.579C282.357 232.58 282.35 232.582 282.341 232.583C282.323 232.586 282.298 232.59 282.265 232.595C282.199 232.604 282.102 232.617 281.978 232.627C281.729 232.648 281.367 232.664 280.913 232.642C280.004 232.598 278.723 232.404 277.225 231.809L277.348 231.479C277.35 231.48 277.353 231.481 277.355 231.481H277.356C277.358 231.483 277.362 231.483 277.364 231.484C279.61 232.263 282.392 232.107 284.826 231.277C287.269 230.444 289.32 228.947 290.132 227.094L290.457 227.231ZM282.389 232.215C282.192 232.242 281.994 232.265 281.797 232.283C281.851 232.28 281.901 232.28 281.947 232.276C282.064 232.267 282.154 232.255 282.214 232.246C282.244 232.242 282.267 232.238 282.281 232.235C282.288 232.234 282.294 232.233 282.297 232.233H282.301L282.304 232.232H282.305C282.305 232.231 282.307 232.231 282.308 232.231C282.31 232.23 282.315 232.23 282.32 232.229C282.332 232.226 282.349 232.223 282.371 232.219C282.377 232.218 282.383 232.216 282.389 232.215Z" fill="#155C6D"/>
<path d="M276.319 229.057C278.408 231.817 274.247 232.119 272.408 231.971C267.303 231.645 262.425 230.155 257.611 228.564C256.614 228.208 255.623 227.846 254.638 227.472L254.537 227.401L252.911 226.285C250.305 224.439 247.48 222.398 244.957 220.427C243.948 219.644 242.844 218.771 241.865 217.958L241.913 217.988C241.557 217.774 241.2 217.566 240.856 217.347L239.812 216.688L239.865 216.575L242.085 217.614C242.085 217.614 255.291 226.428 255.201 226.368C257.089 227.045 258.982 227.698 260.881 228.327C264.122 229.336 273.298 232.387 276.159 231.016C276.9 230.618 276.604 229.692 276.23 229.122L276.337 229.057H276.319Z" fill="#155C6D"/>
<path d="M239.94 216.416L242.16 217.454L242.171 217.46L242.182 217.467L242.084 217.614C242.167 217.489 242.18 217.47 242.182 217.467L242.183 217.468L242.185 217.469C242.187 217.47 242.189 217.472 242.192 217.474C242.198 217.478 242.208 217.484 242.22 217.492C242.245 217.509 242.282 217.534 242.331 217.567C242.427 217.631 242.569 217.726 242.75 217.846C243.11 218.087 243.626 218.431 244.244 218.843C245.481 219.669 247.129 220.769 248.774 221.867C250.419 222.965 252.061 224.061 253.287 224.879C253.899 225.288 254.408 225.628 254.761 225.863C254.937 225.981 255.075 226.072 255.167 226.134L255.281 226.21C257.16 226.883 259.044 227.532 260.934 228.158L262.404 228.621C264.102 229.152 266.416 229.856 268.703 230.392C270.227 230.75 271.734 231.033 273.035 231.141C274.339 231.249 275.404 231.178 276.074 230.86C276.228 230.778 276.323 230.672 276.376 230.557C276.431 230.44 276.449 230.301 276.437 230.147C276.412 229.835 276.26 229.49 276.082 229.219L275.983 229.067L276.067 229.015L275.965 228.881H276.962L276.576 229.117C277.017 229.752 277.153 230.293 277.016 230.748C276.868 231.239 276.424 231.56 275.901 231.769C274.854 232.186 273.321 232.221 272.393 232.147C267.265 231.818 262.368 230.322 257.556 228.732L257.552 228.73C256.554 228.374 255.562 228.011 254.575 227.637L254.555 227.629L254.536 227.616L254.435 227.545L252.811 226.431L252.809 226.429C250.203 224.582 247.374 222.539 244.849 220.566C243.845 219.787 242.747 218.918 241.77 218.108C241.61 218.012 241.45 217.917 241.289 217.821L240.762 217.495L239.586 216.754L239.652 216.612L239.706 216.5L239.781 216.342L239.94 216.416ZM241.958 217.81L241.958 217.809L242.006 217.838L242.002 217.843C242.484 218.242 242.995 218.656 243.51 219.066L245.066 220.288L246.024 221.029C248.286 222.762 250.731 224.525 253.009 226.14L254.637 227.256L254.639 227.257L254.721 227.316C255.696 227.686 256.678 228.044 257.666 228.397C262.178 229.888 266.732 231.285 271.469 231.722L272.418 231.795L272.421 231.796L272.788 231.817C273.692 231.853 274.922 231.78 275.772 231.441C276.015 231.344 276.216 231.23 276.369 231.098L276.392 231.075C276.346 231.109 276.296 231.142 276.241 231.171L276.235 231.175C275.474 231.539 274.322 231.6 273.005 231.491C271.68 231.381 270.155 231.095 268.623 230.735C265.558 230.016 262.446 228.998 260.829 228.494H260.826C258.926 227.865 257.03 227.211 255.142 226.534L255.154 226.496C255.127 226.508 255.107 226.514 255.105 226.515L255.238 226.246C255.183 226.273 255.107 226.326 255.099 226.433L255.105 226.515C255.104 226.514 255.101 226.512 255.099 226.511C255.094 226.507 255.085 226.502 255.074 226.495C255.052 226.48 255.017 226.456 254.971 226.426C254.879 226.364 254.741 226.273 254.565 226.155C254.213 225.92 253.704 225.58 253.091 225.172C251.866 224.354 250.224 223.257 248.579 222.159C246.934 221.061 245.285 219.962 244.049 219.136C243.431 218.724 242.915 218.38 242.554 218.139C242.374 218.019 242.232 217.924 242.135 217.86C242.087 217.827 242.05 217.802 242.025 217.785C242.014 217.778 242.005 217.772 241.999 217.768L241.491 217.53C241.645 217.622 241.8 217.716 241.958 217.81Z" fill="#155C6D"/>
<path d="M239.023 225.158C235.913 232.399 239.052 249.273 250.65 253.493C260.799 256.555 270.728 244.091 270.728 244.091C255.232 240.59 249.338 236.773 249.338 236.773C244.394 233.016 240.601 228.933 239.017 225.063" fill="#155C6D"/>
<path d="M239.179 224.997C240.746 228.823 244.51 232.882 249.445 236.633C249.446 236.634 249.447 236.635 249.449 236.636C249.46 236.643 249.477 236.653 249.5 236.667C249.545 236.695 249.615 236.737 249.71 236.792C249.898 236.902 250.187 237.063 250.582 237.268C251.372 237.678 252.588 238.263 254.288 238.956C257.689 240.344 263.028 242.17 270.767 243.919L271.041 243.982L270.866 244.201L270.728 244.091L270.866 244.202H270.865L270.864 244.204C270.863 244.205 270.86 244.207 270.858 244.21C270.853 244.217 270.845 244.226 270.836 244.238C270.816 244.262 270.788 244.297 270.75 244.343C270.674 244.435 270.561 244.568 270.415 244.737C270.121 245.074 269.692 245.551 269.145 246.114C268.051 247.24 266.484 248.709 264.598 250.083C260.835 252.825 255.755 255.217 250.598 253.661L250.59 253.658C244.722 251.523 241.009 246.194 239.154 240.513C237.3 234.837 237.283 228.761 238.861 225.089L238.906 225.108L239.017 225.063L239.179 224.997ZM239.044 225.571C237.653 229.172 237.708 234.955 239.488 240.404C241.324 246.024 244.978 251.239 250.705 253.325C255.696 254.829 260.653 252.522 264.391 249.798C266.256 248.439 267.807 246.984 268.892 245.868C269.434 245.31 269.859 244.838 270.149 244.505C270.255 244.384 270.341 244.28 270.41 244.199C262.804 242.465 257.535 240.661 254.156 239.282C252.446 238.584 251.219 237.995 250.42 237.58C250.02 237.373 249.727 237.209 249.533 237.097C249.436 237.04 249.364 236.996 249.316 236.967C249.292 236.952 249.273 236.941 249.261 236.934C249.255 236.93 249.251 236.927 249.248 236.925C249.246 236.924 249.244 236.922 249.244 236.922L249.243 236.921L249.231 236.914L249.338 236.773L249.231 236.913C244.464 233.291 240.746 229.351 239.044 225.571Z" fill="#155C6D"/>
<path d="M283.649 218.469C285.94 219.211 288.617 218.706 290.914 217.478L288.896 221.342C288.896 221.342 289.323 220.303 283.649 218.469Z" fill="#C8DAE8"/>
<path d="M289.051 221.423L288.749 221.281C288.737 221.277 288.734 221.276 288.733 221.275L288.732 221.276V221.278L288.73 221.281C288.729 221.283 288.729 221.285 288.729 221.286C288.728 221.289 288.727 221.291 288.727 221.292V221.29C288.727 221.282 288.726 221.257 288.71 221.214C288.676 221.126 288.576 220.962 288.29 220.729C287.714 220.262 286.43 219.553 283.605 218.639C283.602 218.638 283.598 218.637 283.594 218.636L283.703 218.301C285.935 219.024 288.562 218.536 290.831 217.322L291.334 217.053L289.051 221.423ZM290.504 217.881C288.957 218.623 287.264 219.04 285.638 218.983C287.196 219.586 288.047 220.079 288.511 220.456C288.713 220.62 288.844 220.768 288.93 220.894L290.504 217.881Z" fill="#155C6D"/>
<path d="M267.862 106.582C278.469 106.394 278.903 105.989 279.746 95.4123C279.934 106.019 280.339 106.453 290.916 107.296C280.309 107.484 279.875 107.889 279.032 118.466C278.844 107.859 278.439 107.425 267.862 106.582Z" fill="#C8DAE8"/>
<path d="M279.923 95.4092C279.969 98.0633 280.029 100.067 280.257 101.599C280.484 103.13 280.876 104.163 281.563 104.895C282.251 105.627 283.258 106.081 284.772 106.403C286.287 106.725 288.284 106.91 290.93 107.121L290.919 107.473C288.265 107.52 286.261 107.579 284.729 107.807C283.198 108.035 282.165 108.426 281.433 109.113C280.701 109.801 280.247 110.808 279.925 112.322C279.603 113.837 279.418 115.834 279.207 118.48L278.855 118.469C278.808 115.815 278.749 113.811 278.521 112.279C278.293 110.748 277.902 109.715 277.215 108.983C276.527 108.252 275.521 107.797 274.007 107.475C272.492 107.153 270.495 106.969 267.849 106.758L267.859 106.405C270.513 106.359 272.517 106.299 274.049 106.071C275.58 105.844 276.613 105.452 277.345 104.765C278.076 104.077 278.531 103.071 278.853 101.557C279.175 100.042 279.359 98.0453 279.57 95.3988L279.923 95.4092ZM279.651 98.4793C279.525 99.7047 279.385 100.746 279.197 101.63C278.869 103.172 278.395 104.262 277.586 105.022C276.778 105.781 275.661 106.187 274.102 106.419C273.209 106.551 272.162 106.627 270.933 106.677C272.157 106.803 273.197 106.943 274.08 107.131C275.622 107.459 276.712 107.934 277.471 108.742C278.231 109.551 278.637 110.668 278.868 112.227C279.001 113.12 279.076 114.165 279.126 115.394C279.252 114.171 279.393 113.131 279.581 112.248C279.909 110.706 280.384 109.617 281.192 108.858C282 108.098 283.117 107.691 284.677 107.46C285.57 107.327 286.618 107.251 287.848 107.201C286.623 107.075 285.582 106.935 284.698 106.747C283.156 106.419 282.067 105.945 281.307 105.137C280.548 104.329 280.141 103.211 279.909 101.652C279.776 100.758 279.701 99.7099 279.651 98.4793Z" fill="#155C6D"/>
<path d="M262.373 92.2567C268.183 92.1543 268.421 91.9294 268.879 86.1409C268.981 91.9504 269.206 92.1888 274.994 92.6461C269.185 92.7485 268.948 92.9677 268.489 98.7619C268.387 92.9525 268.162 92.714 262.373 92.2567Z" fill="#C8DAE8"/>
<path d="M269.055 86.1378C269.08 87.5928 269.113 88.6855 269.237 89.5186C269.361 90.3503 269.572 90.8971 269.932 91.2802C270.292 91.6634 270.825 91.9073 271.648 92.0817C272.471 92.2563 273.559 92.3561 275.009 92.4707L274.997 92.8225C273.542 92.8482 272.45 92.8815 271.618 93.005C270.786 93.1283 270.239 93.3378 269.855 93.6977C269.472 94.0577 269.228 94.5907 269.054 95.4134C268.879 96.237 268.779 97.3255 268.665 98.7764L268.314 98.7653C268.288 97.3105 268.254 96.2183 268.13 95.3853C268.006 94.5532 267.796 94.0059 267.436 93.6227C267.075 93.2395 266.542 92.9956 265.72 92.8212C264.897 92.6466 263.809 92.547 262.36 92.4325L262.37 92.0813C263.825 92.0557 264.918 92.0221 265.751 91.8982C266.583 91.7744 267.129 91.5635 267.513 91.2033C267.896 90.843 268.14 90.3101 268.314 89.4876C268.489 88.6643 268.588 87.5769 268.703 86.1274L269.055 86.1378ZM268.799 88.7357C268.757 89.0348 268.712 89.3093 268.658 89.5607C268.478 90.4117 268.213 91.0276 267.753 91.4599C267.293 91.8919 266.663 92.1186 265.802 92.2466C265.547 92.2846 265.269 92.3125 264.966 92.3361C265.266 92.378 265.541 92.4233 265.793 92.4767C266.644 92.6572 267.26 92.9223 267.692 93.382C268.124 93.8417 268.351 94.4724 268.479 95.3331C268.517 95.5887 268.545 95.8672 268.568 96.17C268.61 95.8691 268.656 95.593 268.71 95.3403C268.89 94.4891 269.155 93.8731 269.615 93.4411C270.074 93.0094 270.705 92.7839 271.565 92.6563C271.82 92.6185 272.098 92.5897 272.399 92.5663C272.1 92.5244 271.826 92.4795 271.574 92.4262C270.724 92.2457 270.109 91.9809 269.676 91.5211C269.244 91.0614 269.018 90.4309 268.89 89.5701C268.852 89.3151 268.822 89.0377 268.799 88.7357Z" fill="#155C6D"/>
<path d="M214.95 114.631C214.95 110.597 231.086 109.496 236.22 114.631H214.95Z" fill="#155C6D"/>
<path d="M223.654 111.016C226.006 110.947 228.52 111.166 230.773 111.726C233.022 112.285 235.029 113.19 236.344 114.506L236.645 114.807H214.774V114.631C214.774 114.062 215.06 113.558 215.536 113.13C216.01 112.704 216.683 112.341 217.49 112.041C219.107 111.442 221.305 111.085 223.654 111.016ZM223.665 111.368C221.339 111.437 219.182 111.79 217.612 112.372C216.827 112.662 216.2 113.007 215.771 113.392C215.402 113.725 215.189 114.08 215.138 114.454H235.771C234.522 113.361 232.725 112.574 230.688 112.068C228.471 111.517 225.99 111.3 223.665 111.368Z" fill="#155C6D"/>
<path d="M198.813 114.631C198.813 110.597 182.676 109.496 177.542 114.631H198.813Z" fill="#155C6D"/>
<path d="M190.108 111.016C187.757 110.947 185.242 111.166 182.989 111.726C180.74 112.285 178.734 113.19 177.418 114.506L177.117 114.807H198.988V114.631C198.988 114.062 198.702 113.558 198.227 113.13C197.753 112.704 197.08 112.341 196.272 112.041C194.655 111.442 192.458 111.085 190.108 111.016ZM190.097 111.368C192.423 111.437 194.581 111.79 196.15 112.372C196.935 112.662 197.563 113.007 197.991 113.392C198.361 113.725 198.573 114.08 198.624 114.454H177.991C179.241 113.361 181.037 112.574 183.074 112.068C185.291 111.517 187.773 111.3 190.097 111.368Z" fill="#155C6D"/>
<path d="M252.356 131.485C252.356 129.644 253.365 127.952 254.985 127.076C257.11 125.927 259.691 127.466 259.691 129.882V138.849C259.691 140.69 258.682 142.382 257.063 143.258C254.938 144.407 252.356 142.868 252.356 140.452V131.485Z" fill="#C8DAE8"/>
<path d="M259.515 138.849V129.883C259.515 127.6 257.077 126.146 255.069 127.232C253.507 128.076 252.532 129.709 252.532 131.485V140.452C252.532 142.734 254.972 144.188 256.979 143.103C258.542 142.258 259.515 140.625 259.515 138.849ZM259.868 138.849C259.868 140.754 258.822 142.506 257.146 143.412C254.904 144.625 252.181 143.001 252.181 140.452V131.485C252.181 129.58 253.225 127.828 254.901 126.922C257.143 125.71 259.868 127.333 259.868 129.883V138.849Z" fill="#155C6D"/>
<path d="M252.356 132.234L258.711 136.365C259.322 136.762 259.691 137.441 259.691 138.17V138.89C259.691 140.706 258.696 142.375 257.099 143.239C254.957 144.397 252.356 142.846 252.356 140.412V132.234Z" fill="#70C5AD"/>
<path d="M259.515 138.89V138.17C259.515 137.501 259.176 136.877 258.615 136.512L252.532 132.557V140.412C252.533 142.713 254.991 144.178 257.015 143.084C258.555 142.251 259.515 140.641 259.515 138.89ZM259.868 138.89C259.868 140.77 258.836 142.499 257.183 143.393C254.924 144.614 252.181 142.98 252.181 140.412V131.91L258.808 136.217C259.469 136.647 259.868 137.382 259.868 138.17V138.89Z" fill="#155C6D"/>
<path d="M258.942 132.167C258.186 133.936 256.405 134.871 254.964 134.255C253.523 133.64 252.968 131.706 253.724 129.937C254.587 127.917 256.261 127.232 257.702 127.848C259.143 128.464 259.698 130.397 258.942 132.167Z" fill="#C8DAE8"/>
<path d="M258.78 132.097C259.512 130.384 258.955 128.574 257.633 128.009C256.96 127.721 256.234 127.737 255.574 128.061C254.912 128.386 254.304 129.026 253.886 130.005C253.154 131.718 253.711 133.528 255.033 134.093C256.355 134.658 258.048 133.809 258.78 132.097ZM259.104 132.235C258.324 134.061 256.455 135.083 254.895 134.417C253.335 133.75 252.782 131.693 253.562 129.867C254.007 128.826 254.668 128.113 255.419 127.745C256.172 127.375 257.004 127.358 257.771 127.686C259.331 128.352 259.884 130.409 259.104 132.235Z" fill="#155C6D"/>
<path d="M258.962 132.147C258.211 133.903 256.499 134.855 255.137 134.273C253.775 133.691 253.28 131.796 254.031 130.039C254.781 128.283 256.493 127.331 257.855 127.913C259.217 128.495 259.712 130.39 258.962 132.147Z" fill="#C8DAE8"/>
<path d="M258.8 132.078C259.53 130.37 259.022 128.603 257.786 128.074C256.55 127.546 254.922 128.401 254.192 130.109C253.463 131.816 253.97 133.583 255.206 134.111C256.443 134.639 258.07 133.785 258.8 132.078ZM259.124 132.216C258.353 134.021 256.555 135.071 255.068 134.435C253.581 133.8 253.098 131.776 253.869 129.971C254.64 128.166 256.437 127.116 257.924 127.751C259.411 128.387 259.895 130.411 259.124 132.216Z" fill="#155C6D"/>
<path d="M257.756 140.425C257.374 141.319 256.503 141.803 255.81 141.507C255.117 141.211 254.865 140.247 255.247 139.353C255.629 138.46 256.5 137.975 257.193 138.271C257.885 138.567 258.138 139.532 257.756 140.425Z" fill="#155C6D"/>
<path d="M257.594 140.355C257.955 139.51 257.691 138.675 257.124 138.432C256.556 138.19 255.77 138.576 255.409 139.421C255.048 140.266 255.312 141.103 255.879 141.345C256.447 141.587 257.233 141.2 257.594 140.355ZM257.918 140.493C257.516 141.436 256.559 142.018 255.741 141.668C254.923 141.319 254.683 140.225 255.085 139.283C255.488 138.341 256.444 137.759 257.262 138.109C258.08 138.459 258.321 139.551 257.918 140.493Z" fill="#155C6D"/>
<path d="M257.154 136.5C256.956 136.965 256.502 137.217 256.141 137.063C255.78 136.909 255.649 136.407 255.848 135.941C256.047 135.476 256.501 135.224 256.861 135.378C257.222 135.532 257.353 136.034 257.154 136.5Z" fill="#C8DAE8"/>
<path d="M256.992 136.431C257.17 136.014 257.027 135.64 256.792 135.54C256.557 135.439 256.188 135.594 256.01 136.011C255.832 136.427 255.975 136.801 256.21 136.901C256.446 137.002 256.814 136.847 256.992 136.431ZM257.317 136.569C257.097 137.083 256.558 137.433 256.072 137.225C255.586 137.017 255.467 136.386 255.686 135.873C255.906 135.359 256.444 135.009 256.93 135.216C257.416 135.424 257.536 136.055 257.317 136.569Z" fill="#155C6D"/>
<path d="M258.594 131.994C257.95 133.501 256.495 134.324 255.344 133.833C254.194 133.341 253.783 131.721 254.427 130.214C255.071 128.707 256.526 127.884 257.676 128.375C258.827 128.867 259.238 130.488 258.594 131.994Z" fill="#155C6D"/>
<path d="M258.432 131.924C258.74 131.203 258.793 130.461 258.638 129.847C258.482 129.233 258.122 128.756 257.607 128.536C257.093 128.317 256.5 128.386 255.949 128.698C255.397 129.01 254.897 129.561 254.588 130.282C254.28 131.003 254.228 131.746 254.383 132.36C254.539 132.974 254.899 133.451 255.414 133.67C255.928 133.89 256.521 133.821 257.072 133.509C257.624 133.197 258.124 132.646 258.432 131.924ZM258.756 132.063C258.42 132.849 257.87 133.462 257.246 133.815C256.621 134.168 255.912 134.266 255.275 133.994C254.639 133.722 254.218 133.142 254.042 132.446C253.866 131.751 253.929 130.93 254.265 130.144C254.601 129.358 255.15 128.744 255.775 128.391C256.399 128.037 257.109 127.941 257.746 128.213C258.382 128.485 258.802 129.064 258.979 129.76C259.155 130.455 259.092 131.277 258.756 132.063Z" fill="#155C6D"/>
</svg>
