<svg width="172" height="172" viewBox="0 0 172 172" fill="none" xmlns="http://www.w3.org/2000/svg">
<path d="M41.6122 56.2764C40.0704 56.2764 38.6503 55.2755 38.1769 53.7473C38.0146 53.2333 37.8928 52.6923 37.7846 52.1514C36.892 47.6477 37.8657 42.9682 40.4219 39.3165C41.5444 37.7071 43.7762 37.3149 45.3856 38.4374C47.0086 39.56 47.4007 41.7645 46.2781 43.3874C44.8175 45.4702 44.2763 48.1616 44.7903 50.7854C44.8579 51.11 44.9258 51.421 45.034 51.7321C45.602 53.612 44.52 55.6001 42.6265 56.1411C42.2884 56.2358 41.9503 56.2899 41.6122 56.2899V56.2764Z" fill="#155C6D"/>
<path d="M54.3249 152.521L50.5515 158.688L12.0605 59.8773L15.834 53.7101L54.3249 152.521Z" fill="#155C6D"/>
<path d="M50.5513 159.362C50.5513 159.362 50.5107 159.362 50.4971 159.362C50.2402 159.335 50.0239 159.173 49.9292 158.93L11.4383 60.1189C11.3571 59.916 11.3842 59.6996 11.4924 59.5238L15.2658 53.3566C15.4011 53.1402 15.631 53.0049 15.9015 53.032C16.1584 53.059 16.3747 53.2213 16.4694 53.4648L54.9603 152.275C55.0415 152.478 55.0144 152.695 54.9062 152.871L51.1331 159.038C51.0114 159.241 50.7947 159.362 50.5513 159.362ZM12.8178 59.9431L50.6867 157.171L53.5672 152.465L15.6984 55.2365L12.8178 59.9566V59.9431Z" fill="#155C6D"/>
<path d="M77.0731 50.7291C75.5449 50.7291 74.1247 49.7283 73.6514 48.2C73.4891 47.6861 73.3673 47.1451 73.2591 46.6041C72.3665 42.1004 73.3267 37.4209 75.8963 33.7693C77.0189 32.1599 79.2507 31.7676 80.8601 32.8902C82.483 34.0127 82.8751 36.2172 81.7526 37.8402C80.2919 39.923 79.7508 42.6144 80.2648 45.2381C80.3324 45.5627 80.4002 45.8738 80.5084 46.1849C81.0765 48.0648 79.9945 50.0529 78.101 50.5939C77.7629 50.6885 77.4248 50.7426 77.0731 50.7426V50.7291Z" fill="#155C6D"/>
<path d="M112.116 40.233L150.62 139.057L54.4879 152.487L15.9834 53.6765L112.116 40.233Z" fill="#70C5AD"/>
<path d="M54.4873 153.177C54.2168 153.177 53.9599 153.014 53.8517 152.744L15.3469 53.9333C15.2657 53.7439 15.2928 53.5275 15.3875 53.3517C15.4821 53.1759 15.6716 53.0542 15.8745 53.0271L112.007 39.5837C112.332 39.5431 112.616 39.7189 112.737 40.0029L151.242 138.827C151.323 139.016 151.296 139.233 151.202 139.409C151.107 139.585 150.917 139.706 150.715 139.733L54.5817 153.163C54.5817 153.163 54.5143 153.163 54.4873 153.163V153.177ZM16.9295 54.2308L54.9334 151.757L149.687 138.516L111.683 40.9767L16.9295 54.2308Z" fill="#155C6D"/>
<path d="M112.116 40.233L150.62 139.057L54.4879 152.487L15.9834 53.6765L112.116 40.233Z" fill="#C8DAE8"/>
<path d="M54.4873 153.177C54.2168 153.177 53.9599 153.014 53.8517 152.744L15.3469 53.9333C15.2657 53.7439 15.2928 53.5275 15.3875 53.3517C15.4821 53.1759 15.6716 53.0542 15.8745 53.0271L112.007 39.5837C112.332 39.5431 112.616 39.7189 112.737 40.0029L151.242 138.827C151.323 139.016 151.296 139.233 151.202 139.409C151.107 139.585 150.917 139.706 150.715 139.733L54.5817 153.163C54.5817 153.163 54.5143 153.163 54.4873 153.163V153.177ZM16.9295 54.2308L54.9334 151.757L149.687 138.516L111.683 40.9767L16.9295 54.2308Z" fill="#155C6D"/>
<path d="M103.867 52.0565L134.256 130.08L58.3697 140.683L27.98 62.6733L103.867 52.0565Z" fill="#C8DAE8"/>
<path d="M58.3688 141.36C58.0983 141.36 57.8414 141.198 57.7332 140.928L27.3434 62.9177C27.2623 62.7283 27.2894 62.5119 27.3841 62.3361C27.4787 62.1603 27.6679 62.0386 27.8708 62.0115L103.757 51.3947C104.082 51.3406 104.366 51.53 104.488 51.814L134.877 129.837C134.959 130.027 134.932 130.243 134.837 130.419C134.742 130.595 134.553 130.716 134.35 130.743L58.4635 141.347C58.4635 141.347 58.3958 141.347 58.3688 141.347V141.36ZM28.9257 63.2287L58.8152 139.94L133.322 129.526L103.433 52.8013L28.9257 63.2287Z" fill="#155C6D"/>
<path d="M105.314 49.0293L135.703 127.053L59.8306 137.656L29.4409 59.6461L105.314 49.0293Z" fill="#C8DAE8"/>
<path d="M59.8297 138.317C59.5592 138.317 59.3023 138.155 59.1941 137.884L28.8044 59.8746C28.7232 59.6852 28.7503 59.4689 28.845 59.293C28.9397 59.1172 29.1288 58.9955 29.3317 58.9684L105.205 48.3516C105.516 48.2975 105.813 48.4869 105.935 48.7709L136.325 126.794C136.406 126.984 136.379 127.2 136.284 127.376C136.19 127.552 136 127.673 135.797 127.7L59.9245 138.304C59.9245 138.304 59.8568 138.304 59.8297 138.304V138.317ZM30.3867 60.1857L60.2761 136.897L134.769 126.483L104.88 49.7582L30.3867 60.1857Z" fill="#155C6D"/>
<path d="M150.619 139.068L146.832 145.235L50.7129 158.679L54.4863 152.498L150.619 139.068Z" fill="#70C5AD"/>
<path d="M50.7137 159.358C50.4838 159.358 50.2675 159.249 50.1458 159.047C49.997 158.83 49.997 158.546 50.1458 158.316L53.9188 152.135C54.027 151.96 54.203 151.851 54.4059 151.824L150.539 138.394C150.809 138.354 151.053 138.476 151.201 138.692C151.35 138.908 151.35 139.192 151.201 139.422L147.414 145.59C147.306 145.765 147.13 145.874 146.927 145.901L50.8084 159.344C50.8084 159.344 50.7407 159.344 50.7137 159.344V159.358ZM54.8926 153.123L52.0255 157.802L146.414 144.602L149.281 139.936L54.8926 153.123Z" fill="#155C6D"/>
<path d="M30.7651 57.0997L106.638 46.4829C106.638 46.4829 126.506 100.446 160.926 111.888L81.6986 122.964C47.2921 111.496 30.7651 57.0862 30.7651 57.0862V57.0997Z" fill="#70C5AD"/>
<path fill-rule="evenodd" clip-rule="evenodd" d="M102.269 68.8555C104.547 69.5281 105.8 71.77 105.068 73.8627L96.2307 99.1176C95.2452 101.934 91.9427 103.467 88.8899 102.524L70.6754 96.9006C68.4071 96.2003 67.1862 93.9434 67.9486 91.8597C68.711 89.776 71.168 88.6546 73.4363 89.355L88.8761 94.1218L96.8176 71.4268C97.5499 69.334 99.9904 68.1828 102.269 68.8555Z" fill="#155C6D"/>
<path fill-rule="evenodd" clip-rule="evenodd" d="M96.1307 71.2239C96.9851 68.7823 99.8324 67.4392 102.49 68.224C105.148 69.0088 106.61 71.6243 105.756 74.0658L96.9189 99.3207C95.8102 102.489 92.095 104.213 88.6605 103.153L70.446 97.5295C67.7996 96.7125 66.3753 94.0794 67.2648 91.6485C68.1543 89.2175 71.0207 87.9092 73.6671 88.7262L88.4132 93.2789L96.1307 71.2239ZM102.048 69.4871C100.15 68.9265 98.116 69.8859 97.5058 71.6299L89.3404 94.9649L73.207 89.9839C71.3166 89.4002 69.2692 90.3348 68.6339 92.0712C67.9985 93.8076 69.0159 95.6883 70.9062 96.2719L89.1207 101.895C91.7919 102.72 94.6815 101.379 95.5439 98.9147L104.381 73.6598C104.991 71.9159 103.947 70.0477 102.048 69.4871Z" fill="#155C6D"/>
<path d="M81.6985 123.653C81.6309 123.653 81.5499 123.653 81.4823 123.612C47.1433 112.17 30.2782 57.8421 30.1159 57.2876C30.0618 57.0983 30.0889 56.8954 30.1971 56.7331C30.3053 56.5708 30.4809 56.4491 30.6703 56.422L106.543 45.8052C106.854 45.7511 107.166 45.9405 107.274 46.238C107.477 46.779 127.425 100.025 161.142 111.237C161.439 111.332 161.629 111.629 161.602 111.94C161.575 112.252 161.332 112.509 161.02 112.549L81.7933 123.626C81.7933 123.626 81.7256 123.626 81.6985 123.626V123.653ZM31.6576 57.6663C33.8215 64.2528 50.3757 111.711 81.7662 122.287L158.167 111.602C127.155 99.1597 108.302 52.6487 106.205 47.2388L31.6576 57.6663Z" fill="#155C6D"/>
<path d="M91.0165 59.7395C89.3395 59.7395 87.8516 58.5764 87.5135 56.8723C87.1348 54.9518 88.3927 53.0854 90.3267 52.7067C94.8981 51.8276 97.8059 47.0128 96.8051 42.0087C95.8178 37.0047 91.3003 33.6506 86.7425 34.5432C84.7409 34.9354 82.9693 36.112 81.752 37.8567C80.6295 39.4661 78.398 39.8583 76.7751 38.7358C75.1657 37.6133 74.7597 35.4087 75.8958 33.7858C78.1814 30.5264 81.5355 28.3219 85.363 27.578C93.7888 25.928 102.066 31.7977 103.811 40.6563C105.569 49.5149 100.119 58.0489 91.7063 59.6989C91.4628 59.753 91.2329 59.7665 91.0165 59.7665V59.7395Z" fill="#155C6D"/>
<path d="M55.5421 65.255C53.865 65.255 52.3772 64.0919 52.0391 62.3878C51.6604 60.4673 52.9183 58.6009 54.8658 58.2222C59.4236 57.3431 62.3311 52.5283 61.3438 47.5243C60.3565 42.5202 55.8259 39.1661 51.2681 40.0587C49.2664 40.4509 47.5083 41.6275 46.2776 43.3722C45.155 44.9816 42.9236 45.3738 41.3142 44.2513C39.6912 43.1288 39.2988 40.9243 40.4213 39.3013C42.707 36.0419 46.0746 33.8374 49.8885 33.0935C58.3279 31.4435 66.5916 37.3132 68.3363 46.1718C70.0945 55.0304 64.6576 63.5644 56.2318 65.2144C56.0019 65.2685 55.7584 65.282 55.5421 65.282V65.255Z" fill="#155C6D"/>
<path d="M103.406 32.375C127.114 30.955 128.277 29.7918 129.711 6.20496C131.145 29.7918 132.308 30.955 156.03 32.375C132.308 33.7951 131.145 34.9582 129.711 58.5451C128.277 34.9582 127.114 33.7951 103.406 32.375Z" fill="#C8DAE8"/>
<path d="M129.711 59.237C129.359 59.237 129.062 58.953 129.035 58.6014C127.628 35.4203 126.668 34.46 103.365 33.067C103.013 33.0399 102.729 32.7559 102.729 32.3907C102.729 32.0256 103.013 31.7416 103.365 31.7145C126.668 30.308 127.628 29.3612 129.035 6.18009C129.062 5.82845 129.346 5.54443 129.711 5.54443C130.076 5.54443 130.36 5.82845 130.387 6.18009C131.794 29.3612 132.754 30.3215 156.07 31.7145C156.422 31.7416 156.706 32.0256 156.706 32.3907C156.706 32.7559 156.422 33.0399 156.07 33.067C132.754 34.4735 131.794 35.4203 130.387 58.6014C130.36 58.953 130.076 59.237 129.711 59.237ZM112.305 32.3772C125.316 33.7432 128.345 36.7592 129.711 49.7293C131.077 36.7592 134.107 33.7432 147.131 32.3772C134.107 31.0112 131.077 27.9817 129.711 15.0252C128.345 27.9953 125.316 31.0112 112.305 32.3772Z" fill="#155C6D"/>
</svg>
