<svg width="172" height="172" viewBox="0 0 172 172" fill="none" xmlns="http://www.w3.org/2000/svg">
<mask id="mask0_14947_317" style="mask-type:alpha" maskUnits="userSpaceOnUse" x="0" y="0" width="172" height="172">
<rect width="172" height="172" fill="#D9D9D9"/>
</mask>
<g mask="url(#mask0_14947_317)">
<path d="M147.458 63.4486C144.784 63.4486 142.607 61.271 142.607 58.5975V38.0938C142.607 33.6308 138.985 30.0087 134.522 30.0087H114.018C111.345 30.0087 109.167 27.8311 109.167 25.1577C109.167 22.4842 111.345 20.3066 114.018 20.3066H134.522C144.332 20.3066 152.309 28.2839 152.309 38.0938V58.5975C152.309 61.271 150.131 63.4486 147.458 63.4486Z" fill="#F0F4FF" stroke="#0B4D5E" stroke-width="0.375"/>
<path d="M24.5429 63.4476C21.8695 63.4476 19.6919 61.27 19.6919 58.5965V38.0928C19.6919 28.2829 27.6692 20.3057 37.479 20.3057H57.9828C60.6562 20.3057 62.8338 22.4832 62.8338 25.1567C62.8338 27.8302 60.6562 30.0077 57.9828 30.0077H37.479C33.0161 30.0077 29.394 33.6299 29.394 38.0928V58.5965C29.394 61.27 27.2164 63.4476 24.5429 63.4476Z" fill="#F0F4FF" stroke="#0B4D5E" stroke-width="0.375"/>
<path d="M134.522 151.694H114.018C111.345 151.694 109.167 149.517 109.167 146.843C109.167 144.17 111.345 141.992 114.018 141.992H134.522C138.985 141.992 142.607 138.37 142.607 133.907V113.403C142.607 110.73 144.784 108.552 147.458 108.552C150.131 108.552 152.309 110.73 152.309 113.403V133.907C152.309 143.717 144.332 151.694 134.522 151.694Z" fill="#F0F4FF" stroke="#0B4D5E" stroke-width="0.375"/>
<path d="M57.9828 151.694H37.479C27.6692 151.694 19.6919 143.717 19.6919 133.907V113.403C19.6919 110.73 21.8695 108.552 24.5429 108.552C27.2164 108.552 29.394 110.73 29.394 113.403V133.907C29.394 138.37 33.0161 141.992 37.479 141.992H57.9828C60.6562 141.992 62.8338 144.17 62.8338 146.843C62.8338 149.517 60.6562 151.694 57.9828 151.694Z" fill="#F0F4FF" stroke="#0B4D5E" stroke-width="0.375"/>
<path d="M120.787 113.08L116.605 116.293C116.238 116.573 115.829 116.745 115.354 116.81C114.988 116.853 114.578 116.832 114.168 116.745L118.351 113.533C118.761 113.641 119.149 113.662 119.537 113.598C120.011 113.533 120.442 113.36 120.787 113.08Z" fill="#BABABA"/>
<path d="M118.352 113.533L114.169 116.745L113.846 116.659L118.028 113.447L118.352 113.533Z" fill="#BABABA"/>
<path d="M119.343 88.2647L115.161 91.4772C117.748 89.4936 118.977 85.9146 118.007 82.1416C113.069 62.6728 94.2041 49.0036 75.8995 51.5693C70.6173 52.3023 65.9603 54.329 62.1226 57.2827L66.3052 54.0703C70.143 51.1165 74.7999 49.0899 80.0822 48.3568C98.3868 45.7912 117.252 59.4603 122.189 78.9291C123.138 82.7022 121.931 86.2596 119.343 88.2647Z" fill="#0B4D5E" stroke="#0B4D5E" stroke-width="0.375"/>
<path d="M115.226 82.8959L111.043 86.1084C110.698 86.3887 110.267 86.5612 109.771 86.6259C108.111 86.863 106.408 85.6125 105.955 83.8446C102.807 71.4691 90.8198 62.7587 79.1558 64.3973C75.7924 64.8716 72.8386 66.1437 70.4023 68.041L74.585 64.8285C77.0213 62.9528 79.9966 61.6592 83.3384 61.1848C95.0025 59.5463 106.99 68.2566 110.138 80.6321C110.591 82.4216 112.294 83.6506 113.954 83.4134C114.428 83.3487 114.859 83.1547 115.226 82.8959Z" fill="#0B4D5E" stroke="#0B4D5E" stroke-width="0.375"/>
<path d="M123.462 93.633L119.28 96.8455C117.533 98.1822 115.42 99.1093 113.006 99.4543C104.683 100.619 96.124 94.3877 93.8817 85.548C92.545 80.2442 87.3921 76.5143 82.3901 77.2258C80.9456 77.4198 79.6736 77.9804 78.6387 78.7781L82.8214 75.5656C83.8778 74.7679 85.1283 74.2073 86.5728 74.0133C91.5532 73.3018 96.7061 77.0317 98.0644 82.3355C100.307 91.1752 108.866 97.4061 117.188 96.2418C119.581 95.8969 121.716 94.9913 123.462 93.633Z" fill="#0B4D5E" stroke="#0B4D5E" stroke-width="0.375"/>
<path d="M119.063 107.236C120.788 107.689 122.017 109.436 121.823 111.182C121.672 112.497 120.723 113.424 119.538 113.597C119.171 113.64 118.761 113.618 118.352 113.532L118.028 113.446C117.834 113.381 117.554 113.295 117.209 113.209C116.498 112.993 115.549 112.67 114.363 112.174C112.013 111.247 108.801 109.781 105.308 107.603C98.387 103.269 90.2157 95.9605 86.1192 84.3396C85.494 82.5932 86.3133 80.8468 87.9303 80.4587C88.0381 80.4372 88.1459 80.4156 88.2321 80.3941C89.7629 80.1785 91.3584 81.2349 91.9405 82.8519C95.2607 92.3168 101.944 98.3968 107.981 102.17C111 104.067 113.803 105.339 115.872 106.158C116.907 106.547 117.726 106.827 118.287 107.021C118.567 107.107 118.761 107.172 118.912 107.193L119.063 107.236Z" fill="#8AE5CC" stroke="#0B4D5E" stroke-width="0.375"/>
<path d="M82.7772 84.1465L86.9599 80.9341C86.0113 81.6671 85.6447 83.0039 86.1191 84.3621C90.2155 95.9831 98.3868 103.292 105.308 107.626C108.8 109.803 112.013 111.269 114.363 112.196C115.549 112.671 116.519 112.994 117.209 113.231C117.532 113.339 117.834 113.404 118.028 113.468L113.845 116.681C113.651 116.616 113.371 116.53 113.026 116.444C112.315 116.228 111.366 115.905 110.18 115.409C107.83 114.482 104.618 113.016 101.125 110.838C94.2041 106.504 86.0328 99.1956 81.9364 87.5746C81.4621 86.2379 81.8286 84.8796 82.7772 84.1465Z" fill="#0B4D5E" stroke="#0B4D5E" stroke-width="0.375"/>
<path d="M112.919 123.019L108.736 126.231C108.369 126.512 107.938 126.684 107.464 126.749C106.903 126.835 106.3 126.749 105.717 126.468C92.3071 120.324 83.7908 112.993 78.3576 106.051C72.9245 99.1301 70.7469 92.7914 69.7767 88.9106C68.1812 82.6366 70.2079 76.7075 74.5199 73.3873L78.7026 70.1748C74.3906 73.4951 72.3639 79.4241 73.9594 85.6981C74.9511 89.6005 77.1287 95.9177 82.5403 102.838C87.9735 109.781 96.4897 117.111 109.9 123.256C110.482 123.536 111.086 123.601 111.647 123.536C112.121 123.472 112.552 123.299 112.919 123.019Z" fill="#0B4D5E" stroke="#0B4D5E" stroke-width="0.375"/>
<path d="M87.7155 122.157L83.5328 125.369C83.1663 125.65 82.7351 125.822 82.2823 125.887C81.3984 126.016 80.4281 125.714 79.6304 125.024C68.4407 115.064 61.563 105.663 57.7468 90.636C54.8793 79.3169 58.523 68.6446 66.2847 62.6724L70.4673 59.46C62.7272 65.4321 59.062 76.0829 61.9295 87.4235C65.7457 102.451 72.6449 111.873 83.8131 121.812C84.6108 122.523 85.581 122.804 86.465 122.674C86.9178 122.61 87.3489 122.437 87.7155 122.157Z" fill="#0B4D5E" stroke="#0B4D5E" stroke-width="0.375"/>
<path d="M67.9437 86.5613C71.307 99.8424 77.193 107.971 87.4987 117.134C88.8786 118.363 89.1804 120.411 88.1671 121.704C87.7359 122.243 87.1322 122.567 86.4639 122.675C85.5799 122.804 84.6097 122.502 83.8119 121.812C72.6222 111.851 65.7445 102.451 61.9284 87.4238C57.8966 71.5123 66.7578 56.8945 81.7206 54.7816C96.6834 52.6687 112.12 63.88 116.174 79.7915C116.627 81.5809 115.635 83.198 113.975 83.4351C112.314 83.6723 110.611 82.4218 110.158 80.6539C107.011 68.2783 95.0232 59.568 83.3592 61.2066C71.6951 62.8451 64.8174 74.2074 67.9652 86.5829L67.9437 86.5613Z" fill="#8AE5CC" stroke="#0B4D5E" stroke-width="0.375"/>
<path d="M78.4649 41.9532C100.111 38.9132 122.383 55.1049 128.226 78.0881C130.468 86.9277 125.531 95.0559 117.209 96.2417C108.886 97.4276 100.327 91.1751 98.0847 82.3354C96.748 77.0316 91.5951 73.3017 86.5931 74.0132C81.5912 74.7247 78.659 79.5757 79.9957 84.8795C80.815 88.0704 82.6045 93.3527 87.1968 99.2386C91.7676 105.103 99.292 111.744 111.775 117.435C113.414 118.19 114.341 120.109 113.824 121.726C113.479 122.761 112.638 123.429 111.646 123.558C111.085 123.645 110.482 123.558 109.9 123.278C96.4892 117.134 87.973 109.803 82.5398 102.861C77.1066 95.9399 74.9291 89.6012 73.9589 85.7204C71.7166 76.8807 76.6323 68.7741 84.9545 67.5883C93.2768 66.4025 101.858 72.6549 104.1 81.473C105.437 86.7768 110.59 90.5283 115.57 89.8168C120.55 89.1053 123.526 84.2327 122.189 78.9289C117.252 59.4601 98.3865 45.7909 80.0819 48.3566C61.7773 50.9223 50.9326 68.7741 55.8698 88.2429C56.5598 90.9379 57.4869 93.5252 58.6942 95.9615C59.492 97.6432 58.9098 99.4973 57.3791 100.123C57.1635 100.209 56.9479 100.252 56.7323 100.295C55.3524 100.489 53.8648 99.6483 53.1533 98.2037C51.7519 95.3147 50.6523 92.2531 49.833 89.0838C44.0118 66.1006 56.8185 44.9716 78.4434 41.9532H78.4649Z" fill="#8AE5CC" stroke="#0B4D5E" stroke-width="0.375"/>
<path d="M58.0053 99.7763L53.8226 102.989C53.6501 103.14 53.4345 103.247 53.2189 103.334C53.0033 103.42 52.7877 103.463 52.5721 103.506C51.1923 103.7 49.7046 102.859 48.9931 101.415C47.5917 98.5258 46.4921 95.4642 45.6729 92.2949C41.5333 75.9307 46.8156 60.5367 58.0053 51.9127L62.1879 48.7002C50.9982 57.3243 45.716 72.7398 49.8555 89.0824C50.6533 92.2517 51.7744 95.3133 53.1758 98.2024C53.8873 99.6469 55.3749 100.488 56.7548 100.294C56.9704 100.272 57.186 100.207 57.4016 100.121C57.6172 100.035 57.8328 99.9056 58.0053 99.7763Z" fill="#0B4D5E" stroke="#0B4D5E" stroke-width="0.375"/>
</g>
</svg>
