<svg width="172" height="172" viewBox="0 0 172 172" fill="none" xmlns="http://www.w3.org/2000/svg">
<path d="M153.2 25.5421C153.87 26.5559 153.592 27.9205 152.578 28.5906L139.783 37.0485C138.769 37.7185 137.404 37.4407 136.734 36.4273C136.064 35.4135 136.343 34.048 137.356 33.3778L150.152 24.92C151.165 24.2499 152.53 24.5283 153.2 25.5421Z" fill="#0B4D5E"/>
<path d="M117.057 23.9487C117.148 25.1604 116.24 26.2161 115.028 26.3073C113.816 26.3985 112.759 25.4898 112.668 24.2779L111.519 8.98327C111.428 7.77142 112.336 6.71475 113.548 6.62365C114.76 6.53284 115.816 7.44132 115.907 8.6529L117.057 23.9487Z" fill="#0B4D5E"/>
<path d="M135.467 10.4576C136.583 10.939 137.098 12.2344 136.616 13.3502L130.539 27.4331C130.057 28.5489 128.762 29.0634 127.646 28.5819C126.531 28.1003 126.017 26.8052 126.498 25.6895L132.575 11.6064C133.056 10.4907 134.352 9.97614 135.467 10.4576Z" fill="#0B4D5E"/>
<path d="M110.226 143.126L75.7385 137.549L62.5399 103.889L97.0279 109.468L110.226 143.126Z" fill="#0B4D5E"/>
<path d="M62.3838 103.763C62.4289 103.707 62.5012 103.68 62.5721 103.692L97.0596 109.271C97.1294 109.283 97.1883 109.33 97.2141 109.396L97.0275 109.468L97.0266 109.469L97.2141 109.396L110.411 143.053L110.424 143.104C110.43 143.156 110.415 143.209 110.381 143.252C110.347 143.293 110.298 143.319 110.246 143.325L110.194 143.323L75.7062 137.746C75.6365 137.734 75.5775 137.687 75.5517 137.621L62.3534 103.961L62.3404 103.911C62.3347 103.858 62.3499 103.805 62.3838 103.763ZM75.883 137.37L109.91 142.872L96.8815 109.647L62.8528 104.141L75.883 137.37Z" fill="#0B4D5E"/>
<path d="M109.341 58.7494C109.575 58.5626 109.811 58.4098 110.045 58.293C110.065 58.2846 110.087 58.2752 110.107 58.2667C110.359 58.1511 110.608 58.069 110.852 58.03C110.859 58.0268 110.866 58.0297 110.874 58.0265C111.129 57.9883 111.38 57.9872 111.623 58.0277L77.1345 52.448C77.0498 52.4342 76.9636 52.424 76.8745 52.4208C76.7844 52.4152 76.6975 52.417 76.6055 52.4208C76.5317 52.4259 76.4574 52.4369 76.3831 52.4479C76.3757 52.4511 76.3697 52.4507 76.3637 52.4503C76.3562 52.4534 76.3467 52.4516 76.3382 52.4523C76.2456 52.4682 76.1525 52.4901 76.0605 52.5145C75.9661 52.5399 75.8698 52.5749 75.7746 52.6124C75.7225 52.6344 75.6691 52.66 75.6181 52.6846C75.5982 52.693 75.5784 52.7014 75.5561 52.7108C75.5214 52.7255 75.4892 52.7392 75.458 52.7553C75.3408 52.8167 75.2243 52.8866 75.1059 52.966C75.0226 53.0247 74.9361 53.0965 74.851 53.1648C74.818 53.1904 74.7865 53.2126 74.7546 53.2407C74.728 53.2608 74.7028 53.2773 74.6773 53.2998C74.4514 53.4979 74.2282 53.73 74.0077 53.996L69.5759 59.3688L104.064 64.9485L108.496 59.5757C108.741 59.2787 108.989 59.0301 109.243 58.8204C109.276 58.7947 109.307 58.7726 109.34 58.7469L109.341 58.7494Z" fill="#8AE5CC"/>
<path d="M74.9729 53.3226C74.9306 53.3554 74.9129 53.3681 74.8872 53.3907L74.7503 53.2356L74.8743 53.4004L74.8095 53.4502C74.5927 53.6404 74.3764 53.8647 74.1617 54.1237L74.0078 53.9959L73.853 53.8685L73.8539 53.8681L74.0243 53.6696C74.1955 53.4775 74.3691 53.3041 74.5452 53.1496L74.634 53.0812C74.6676 53.0527 74.7042 53.026 74.7256 53.0095L74.7252 53.0086C74.8062 52.9437 74.9011 52.8659 74.991 52.8026L74.9942 52.8001L75.1797 52.6822C75.2413 52.6454 75.3028 52.6108 75.3648 52.5783L75.3657 52.5779L75.4778 52.5272L75.5309 52.5047C75.5814 52.4804 75.6397 52.4522 75.6967 52.428L75.7012 52.4261L75.8526 52.3704C75.9038 52.3527 75.9557 52.3356 76.008 52.3215L76.0089 52.3211L76.3044 52.2552L76.3225 52.2529C76.3335 52.252 76.3427 52.2521 76.3466 52.2522C76.3489 52.2518 76.351 52.2508 76.3533 52.2504C76.4262 52.2396 76.5091 52.2269 76.5923 52.2212L76.5967 52.2215L76.7391 52.2173C76.7874 52.217 76.8368 52.2182 76.8872 52.2213L76.8863 52.2217C76.9843 52.2254 77.0779 52.2358 77.1668 52.2502L77.1659 52.2506L111.654 57.8301L111.653 57.8304L111.656 57.8306C111.764 57.8488 111.838 57.9514 111.82 58.0601C111.802 58.1689 111.699 58.2427 111.591 58.2251L111.589 58.2246L111.59 58.2255C111.37 58.1888 111.14 58.1894 110.903 58.2249L110.902 58.2231C110.899 58.2237 110.895 58.226 110.892 58.2264C110.89 58.2267 110.888 58.2267 110.886 58.2269L110.883 58.228C110.717 58.2547 110.545 58.3037 110.369 58.373L110.134 58.4725L109.969 58.5606C109.802 58.656 109.634 58.7711 109.466 58.9054L109.44 58.9217C109.429 58.9296 109.42 58.9379 109.41 58.9448C109.394 58.9569 109.38 58.9676 109.365 58.9787C109.124 59.1789 108.886 59.417 108.65 59.7031L104.218 65.0763L104.18 65.1115C104.138 65.1417 104.085 65.154 104.032 65.1456L69.5438 59.5661C69.4733 59.5547 69.4138 59.5068 69.3885 59.44C69.3633 59.373 69.3756 59.2969 69.4211 59.2416L73.853 53.8685L74.1617 54.1237L69.9519 59.2276L103.981 64.7323L108.342 59.4488L108.341 59.4479C108.594 59.1421 108.852 58.885 109.115 58.6668L109.12 58.6627L109.172 58.6236C109.189 58.6114 109.203 58.6008 109.217 58.5896C109.223 58.5851 109.229 58.5814 109.236 58.5776C109.473 58.3901 109.714 58.2348 109.956 58.1143L110.048 58.3L110.045 58.2928L109.956 58.1143L109.967 58.1085L109.967 58.1093L110.024 58.0853C110.088 58.056 110.152 58.0282 110.216 58.0029L77.1022 52.6457L76.8679 52.6209L76.8743 52.4135L76.8736 52.4318L76.8679 52.6209L76.8613 52.6205L76.8609 52.6196C76.7833 52.6148 76.7063 52.6166 76.6194 52.6202L76.4126 52.6453L76.4118 52.6435C76.3998 52.6457 76.3895 52.649 76.3804 52.6494C76.3739 52.6502 76.3681 52.6512 76.3632 52.6514C76.2812 52.6659 76.1971 52.6856 76.1115 52.7083L76.1111 52.7074C76.0281 52.7298 75.9411 52.7622 75.8494 52.7982C75.8034 52.8178 75.755 52.8406 75.7048 52.8648L75.6157 52.6798L75.618 52.6852L75.7048 52.8648L75.6962 52.8695L75.6958 52.8686L75.6337 52.8949C75.5981 52.9101 75.5726 52.9198 75.5496 52.9317L75.5509 52.9322C75.4414 52.9895 75.3312 53.055 75.219 53.1302C75.1429 53.1839 75.065 53.2501 74.9765 53.3211L74.8166 53.1216L74.851 53.1653L74.9765 53.3211L74.9741 53.3231L74.9729 53.3226ZM74.8872 53.3907C74.8834 53.3941 74.8784 53.3973 74.8743 53.4004L74.7548 53.2411L74.8872 53.3907ZM76.3373 52.4503L76.338 52.4521L76.3323 52.376L76.3373 52.4503ZM76.376 52.2514C76.3808 52.2517 76.3699 52.25 76.3568 52.2511C76.3552 52.2512 76.3538 52.2528 76.3523 52.253C76.3602 52.2525 76.368 52.2509 76.376 52.2514Z" fill="#0B4D5E"/>
<path d="M92.433 29.1595C92.6362 28.9973 92.8438 28.8596 93.0492 28.7579C93.0666 28.7505 93.0839 28.7432 93.1013 28.7358C93.3187 28.6349 93.5392 28.5619 93.7524 28.527C93.7574 28.5249 93.7669 28.5267 93.7669 28.5267C93.9922 28.4926 94.2106 28.4906 94.4268 28.5247L59.9387 22.945C59.8635 22.933 59.7904 22.926 59.7147 22.9201C59.6367 22.9152 59.5607 22.9152 59.4843 22.9213C59.4164 22.9267 59.3496 22.9346 59.2813 22.946C59.2764 22.9481 59.2704 22.9477 59.2654 22.9498C59.2605 22.9519 59.2544 22.9515 59.2484 22.9511C59.1692 22.9643 59.0871 22.9844 59.0086 23.006C58.9251 23.0298 58.8412 23.0595 58.7584 23.0917C58.7113 23.1116 58.6628 23.1351 58.6143 23.1586C58.5969 23.166 58.5796 23.1733 58.5622 23.1807C58.5374 23.1912 58.5127 23.2017 58.4854 23.2133C58.3845 23.2648 58.2842 23.3249 58.1846 23.3934C58.1053 23.4475 58.0251 23.5137 57.9439 23.5773C57.9223 23.5953 57.8996 23.6107 57.8755 23.6297C57.8578 23.6431 57.8415 23.6529 57.8273 23.6677C57.6284 23.8398 57.4325 24.0398 57.2443 24.2716L57.2365 24.2808L91.7245 29.8605C91.9323 29.6057 92.1473 29.3888 92.3661 29.2084C92.3877 29.1904 92.4128 29.1739 92.4345 29.156L92.433 29.1595Z" fill="#8AE5CC"/>
<path d="M58.2975 23.5587C58.2255 23.6078 58.1545 23.6666 58.0677 23.7347L58.0664 23.7342C58.0528 23.7452 58.0404 23.7556 58.03 23.7634C58.0175 23.7726 58.0089 23.7796 57.9996 23.7869L57.9955 23.7897L57.8756 23.6294L57.8594 23.6087L57.9955 23.7897C57.989 23.7946 57.9828 23.7991 57.9785 23.8022C57.9737 23.8056 57.9711 23.8078 57.9689 23.8094C57.9654 23.812 57.9679 23.8101 57.9717 23.8061C57.9674 23.8106 57.9629 23.8152 57.9582 23.8193C57.8457 23.9165 57.7346 24.0238 57.6247 24.141L91.6458 29.6439C91.8376 29.4186 92.0352 29.2217 92.238 29.0544L92.2812 29.0212C92.2938 29.0119 92.3014 29.0065 92.307 29.0018L92.3206 28.9939C92.5282 28.8293 92.7433 28.6859 92.9601 28.5785L93.0168 28.5545C93.0472 28.5403 93.0783 28.5275 93.109 28.5143L59.9072 23.1424L59.9393 22.9454L59.9701 22.7477L59.971 22.7474L94.4585 28.3272C94.5672 28.3448 94.6416 28.4472 94.6244 28.556C94.607 28.6649 94.5046 28.7391 94.3956 28.7219L94.4268 28.5252L94.4303 28.5035L94.3956 28.7219L94.3944 28.7214L94.3947 28.7223L94.3844 28.7203C94.2424 28.6989 94.0985 28.6952 93.9502 28.7071L93.7964 28.7246L93.7846 28.7243L93.6392 28.7541C93.4916 28.7905 93.3392 28.8465 93.1857 28.9178L93.129 28.9418C92.9422 29.0353 92.7495 29.1625 92.5577 29.3155C92.555 29.3177 92.5511 29.3186 92.5482 29.3206C92.5369 29.3295 92.5265 29.338 92.5188 29.3437L92.4939 29.3627L92.493 29.3631C92.2854 29.5344 92.0795 29.7418 91.8794 29.9871L91.8416 30.0233C91.7993 30.0538 91.7458 30.0662 91.6929 30.0577L57.2045 24.4783L57.1534 24.4628C57.1056 24.441 57.0671 24.401 57.0484 24.3503C57.0235 24.2826 57.0369 24.2058 57.0837 24.1508L57.0917 24.1421C57.2863 23.9028 57.4894 23.6955 57.6963 23.5167L57.697 23.5185C57.7104 23.5059 57.7216 23.4951 57.7309 23.4882C57.755 23.4703 57.7395 23.4823 57.7552 23.4705C57.7688 23.4598 57.7816 23.4496 57.791 23.4425C57.8021 23.4343 57.8095 23.4288 57.8159 23.4235L57.8209 23.4203L58.0714 23.2282L58.2975 23.5587ZM93.7304 28.7239L93.7313 28.7236L93.7334 28.7237C93.7347 28.7239 93.7359 28.725 93.7373 28.7252C93.74 28.7256 93.7442 28.7252 93.7491 28.7255C93.7535 28.7258 93.7617 28.7261 93.7723 28.7253C93.7733 28.7252 93.7746 28.7239 93.7759 28.7237C93.7605 28.7244 93.7452 28.7259 93.73 28.723L93.7304 28.7239ZM58.6855 22.9052L58.9542 22.8136L58.9551 22.8132L59.2153 22.7538C59.2189 22.7532 59.223 22.7536 59.2267 22.7532L59.2373 22.7508L59.2386 22.7513C59.2375 22.7515 59.2361 22.7516 59.2346 22.7519C59.2336 22.7522 59.2325 22.7531 59.231 22.7535C59.2328 22.7533 59.2345 22.7535 59.2363 22.7534C59.2404 22.7524 59.2442 22.75 59.2484 22.7493C59.3228 22.7369 59.3952 22.7277 59.468 22.7219C59.5115 22.7185 59.5552 22.7167 59.5983 22.7166L59.7272 22.7203L59.7306 22.7209L59.9701 22.7477L59.9072 23.1424C59.8407 23.1319 59.7746 23.1248 59.7022 23.1191L59.7025 23.12C59.6328 23.1156 59.5661 23.1157 59.5003 23.1209C59.44 23.1257 59.3812 23.1328 59.3217 23.1425L59.3208 23.1429C59.3181 23.1435 59.315 23.1437 59.3129 23.1441L59.3147 23.1434L59.3135 23.1407C59.3008 23.144 59.2899 23.1463 59.2803 23.1473L59.2807 23.1482C59.2119 23.1596 59.138 23.1775 59.0631 23.198L59.0635 23.1989C58.9884 23.2203 58.9109 23.2474 58.8319 23.2781C58.7917 23.2953 58.7492 23.3156 58.7016 23.3386L58.6102 23.1504L58.614 23.1594L58.7016 23.3386L58.6921 23.3437L58.6917 23.3428L58.5767 23.3916L58.4375 23.4686C58.3911 23.4964 58.3448 23.5264 58.2984 23.5584L58.2975 23.5587L58.1849 23.3933L58.0714 23.2282C58.1776 23.1552 58.2856 23.0906 58.3947 23.0349L58.5268 22.9789C58.5744 22.9558 58.6276 22.9298 58.6801 22.9075L58.6855 22.9052ZM59.2571 22.805L59.2609 22.7514C59.2568 22.7512 59.2527 22.7524 59.2486 22.7524L59.2482 22.7515C59.2471 22.7515 59.246 22.7529 59.2446 22.753C59.246 22.753 59.2473 22.7524 59.2486 22.7524L59.2571 22.805ZM59.2529 22.88L59.2503 22.914L59.2478 22.9532L59.2532 22.8809L59.2529 22.88ZM59.2609 22.7514L59.2568 22.8041L59.2486 22.7524C59.2527 22.7524 59.2568 22.7512 59.2609 22.7514ZM59.2069 22.7616L59.2051 22.7623L59.2029 22.7622C59.204 22.7618 59.2058 22.762 59.2069 22.7616ZM59.2811 22.9465L59.2818 22.9483L59.265 22.8536L59.2811 22.9465Z" fill="#0B4D5E"/>
<path d="M67.6012 59.4139L33.1131 53.8342L57.2361 24.2865L91.7231 29.8638L67.6012 59.4139Z" fill="#8AE5CC"/>
<path d="M57.1192 24.124C57.1616 24.0935 57.215 24.081 57.2679 24.0896L91.7552 29.6663C91.8256 29.6778 91.8842 29.7261 91.9096 29.7928C91.935 29.8596 91.9231 29.9354 91.8779 29.9908L91.7231 29.8634L91.7222 29.8638L91.8779 29.9908L67.7559 59.5405L67.7182 59.5766C67.6759 59.6071 67.6224 59.6195 67.5695 59.611L33.0811 54.0316L33.0303 54.017C32.9828 53.9955 32.9448 53.9555 32.9258 53.9054C32.9004 53.8386 32.9135 53.7633 32.9587 53.708L57.0815 24.1601L57.1192 24.124ZM33.4866 53.6921L67.5193 59.1974L91.3475 30.0057L57.3177 24.5023L33.4866 53.6921Z" fill="#0B4D5E"/>
<mask id="mask0_9503_14211" style="mask-type:luminance" maskUnits="userSpaceOnUse" x="31" y="53" width="60" height="64">
<path d="M90.1467 116.43L55.6586 110.85C55.0843 110.757 54.5636 110.329 54.2035 109.569C49.9901 100.632 37.071 73.2855 31.9351 62.4207C30.7715 59.9728 31.3269 56.0214 33.1117 53.832L67.5998 59.4117C65.8124 61.6021 65.2571 65.5536 66.4232 68.0004C71.559 78.8652 84.4806 106.21 88.6916 115.149C89.0516 115.909 89.5723 116.337 90.1467 116.43Z" fill="white"/>
</mask>
<g mask="url(#mask0_9503_14211)">
<path d="M90.1468 116.43L55.6587 110.85C55.0844 110.757 54.5637 110.329 54.2036 109.57C49.9902 100.632 37.0711 73.2857 31.9352 62.4208C31.7732 62.0802 31.6457 61.7103 31.5482 61.3219L66.0362 66.9016C66.1337 67.29 66.2613 67.6599 66.4233 68.0005C71.5591 78.8654 84.4807 106.211 88.6917 115.149C89.0517 115.909 89.5724 116.337 90.1468 116.43Z" fill="#0B4D5E"/>
<path d="M31.4006 61.1868C31.4461 61.1373 31.5136 61.1138 31.58 61.1246L66.0684 66.704L66.0355 66.9015L66.2302 66.8529C66.3013 67.1363 66.3887 67.408 66.4935 67.6641L66.6038 67.9143L66.4262 67.9981L66.423 68.0005L66.6038 67.9143C71.7397 78.7791 84.6607 106.123 88.8721 115.063L89.0062 115.317C89.3323 115.871 89.7493 116.162 90.178 116.232L90.2176 116.243C90.3046 116.276 90.3598 116.366 90.3444 116.461C90.3267 116.57 90.2233 116.644 90.1143 116.627L55.6268 111.047C55.0506 110.954 54.5442 110.57 54.173 109.94L54.0224 109.655L31.7542 62.506C31.5858 62.1518 31.4543 61.7689 31.3542 61.3699L31.3481 61.3205C31.3483 61.2715 31.3668 61.2239 31.4006 61.1868ZM31.8235 61.5687C31.9045 61.8378 32.0012 62.0946 32.1154 62.3348L43.596 86.6326C47.9945 95.9444 52.2782 105.015 54.3849 109.484C54.7262 110.204 55.2005 110.573 55.6905 110.652L89.0617 116.051C88.9159 115.9 88.7813 115.723 88.6614 115.519L88.5108 115.234L77.7228 92.3823C73.3243 83.0711 68.811 73.5189 66.243 68.0864L66.1226 67.815C66.0259 67.5786 65.9444 67.3316 65.8757 67.0775L31.8235 61.5687ZM66.0684 66.704C66.1471 66.7169 66.2108 66.7755 66.2302 66.8529L66.0355 66.9015L66.0684 66.704Z" fill="#0B4D5E"/>
<path d="M33.1128 53.8344C32.9064 54.0856 32.7177 54.3645 32.5437 54.6575C32.379 54.9379 32.2301 55.2349 32.0985 55.5451C32.0193 55.7307 31.9447 55.9202 31.8757 56.1161C31.82 56.2742 31.7688 56.4362 31.7226 56.5961C31.681 56.7395 31.6416 56.8878 31.6071 57.034C31.5744 57.1706 31.5427 57.3098 31.5161 57.4468C31.4908 57.5803 31.4655 57.7138 31.4452 57.8452C31.4249 57.9766 31.4071 58.107 31.3918 58.2363C31.3764 58.3656 31.3646 58.4963 31.3553 58.626C31.3459 58.7556 31.3366 58.8853 31.3333 59.0154C31.3285 59.1489 31.3262 59.2815 31.3264 59.413C31.3263 59.5504 31.3296 59.6894 31.3379 59.8262C31.3444 59.9725 31.3569 60.1193 31.3709 60.2624C31.3872 60.4251 31.4074 60.5832 31.4337 60.7416C31.4647 60.9389 31.5057 61.1321 31.5505 61.3206L66.0386 66.9003C65.9913 66.7128 65.9528 66.5186 65.9217 66.3213C65.8955 66.1629 65.8752 66.0048 65.8589 65.8421C65.845 65.6989 65.8325 65.5522 65.826 65.4059C65.8177 65.2691 65.8154 65.1326 65.8145 64.9927C65.8143 64.8612 65.8166 64.7286 65.8213 64.5951C65.8257 64.4675 65.834 64.3353 65.8433 64.2056C65.8527 64.076 65.8655 63.9477 65.8809 63.8184C65.8962 63.6891 65.913 63.5563 65.9343 63.4274C65.9547 63.296 65.9789 63.16 66.0052 63.029C66.0319 62.8919 66.0635 62.7528 66.0962 62.6161C66.1307 62.47 66.1712 62.3241 66.2117 62.1783C66.2604 62.0173 66.3115 61.8553 66.3648 61.6982C66.4313 61.5034 66.5059 61.3139 66.5876 61.1272C66.7192 60.8171 66.8681 60.52 67.0328 60.2397C67.2057 59.9442 67.3955 59.6678 67.6019 59.4166L33.1128 53.8344Z" fill="#8AE5CC"/>
<path d="M32.2823 55.6239C32.2047 55.8059 32.1317 55.9917 32.0643 56.183L31.9151 56.6515L31.802 57.0802C31.7696 57.2156 31.7386 57.352 31.7127 57.4851L31.7114 57.4846C31.6861 57.6183 31.6624 57.7483 31.6427 57.8754C31.6227 58.0045 31.6056 58.1334 31.5906 58.2603C31.5757 58.3858 31.5636 58.5133 31.5545 58.6405C31.5451 58.7709 31.5364 58.8961 31.5332 59.0207L31.5331 59.0229L31.3498 59.0158L31.3327 59.0156L31.5331 59.0229L31.5266 59.4128C31.5264 59.547 31.5297 59.6824 31.5377 59.8144L31.538 59.8174L31.5699 60.243C31.5859 60.4019 31.6054 60.556 31.6308 60.7094L31.6312 60.7103L31.6829 60.9949C31.6932 61.0449 31.7044 61.0947 31.7156 61.1444L65.7772 66.6555L65.7777 66.6542L65.724 66.3524C65.6971 66.1897 65.6769 66.0275 65.6603 65.8618L65.626 65.4182L65.6145 64.9934L65.622 64.5882L65.6438 64.1918C65.6534 64.0585 65.6666 63.9264 65.6823 63.7947C65.6976 63.6657 65.7146 63.5301 65.7365 63.3973L65.8089 62.9901C65.8363 62.8495 65.8684 62.7076 65.9013 62.5701L66.0189 62.1246L66.0205 62.1207L66.1757 61.6338L66.2841 61.3365C66.3222 61.2389 66.3624 61.1424 66.4042 61.0469C66.5388 60.7299 66.6914 60.426 66.8602 60.1386L67.205 60.3414C67.045 60.6138 66.8998 60.9028 66.7715 61.2051L66.7704 61.2077L66.5878 61.1271L66.5869 61.1275L66.7704 61.2077C66.7306 61.2987 66.693 61.3904 66.6569 61.4828L66.554 61.763C66.5017 61.9172 66.4517 62.0769 66.4036 62.2362C66.3634 62.3809 66.3242 62.5213 66.2911 62.6615L66.0168 62.5975L66.2906 62.6628C66.2582 62.7981 66.2272 62.9346 66.2013 63.0676L66.2017 63.0685L66.0946 63.0461L66.0046 63.029L66.2017 63.0685C66.176 63.1965 66.1521 63.3293 66.1322 63.4576L66.1312 63.4601L65.9736 63.4336L65.9337 63.4272L66.1312 63.4601C66.1107 63.5841 66.095 63.7131 66.0797 63.8415C66.0647 63.9684 66.0519 64.094 66.0429 64.2199L66.0215 64.6024C66.0168 64.7334 66.0148 64.8634 66.015 64.9923C66.0159 65.1309 66.0182 65.2628 66.0261 65.3938L66.0255 65.3973L65.8408 65.4045L65.8254 65.4057L66.0255 65.3973L66.0583 65.8225C66.0743 65.9814 66.0938 66.1353 66.1192 66.2888L66.1196 66.2897L66.1704 66.5747C66.1893 66.6685 66.2099 66.7612 66.2327 66.8517L66.2388 66.9011C66.2386 66.9502 66.2205 66.9985 66.1866 67.0356C66.1525 67.0728 66.1056 67.0948 66.0566 67.0993L66.0072 67.0979L31.5188 61.5185C31.4391 61.5056 31.3746 61.4455 31.3559 61.3669C31.3105 61.1758 31.2694 60.9778 31.2373 60.7744L31.2364 60.7748C31.2093 60.6115 31.1886 60.4486 31.1719 60.2824L31.1715 60.2815L31.1382 59.8353C31.1298 59.6946 31.1265 59.5525 31.1266 59.4127L31.1332 59.0079C31.1367 58.8732 31.1467 58.7393 31.1559 58.6111C31.1654 58.4792 31.177 58.3454 31.1927 58.2126C31.2083 58.0809 31.2272 57.9484 31.2479 57.8148C31.2688 57.6795 31.2949 57.5426 31.3201 57.4097L31.3197 57.4088L31.4126 56.9876L31.5308 56.5408L31.6872 56.0491C31.7577 55.849 31.8339 55.6558 31.9145 55.4669L32.2823 55.6239ZM32.9968 53.6715C33.0391 53.6414 33.092 53.629 33.1446 53.6375L67.6342 59.2196C67.7047 59.2312 67.7633 59.2793 67.7886 59.3461C67.8139 59.413 67.8018 59.4879 67.7566 59.5432L67.6096 59.7296C67.4662 59.9205 67.3321 60.1254 67.2059 60.341L66.8602 60.1386C66.9782 59.9369 67.1047 59.7437 67.2387 59.5602L33.1967 54.0503C33.0254 54.2687 32.8655 54.5081 32.7159 54.7601C32.556 55.0324 32.4114 55.3213 32.2832 55.6235L31.9145 55.4669C32.0494 55.1491 32.2023 54.8442 32.3716 54.5561L32.5085 54.3336C32.6482 54.1142 32.7976 53.9036 32.9582 53.708L32.9968 53.6715Z" fill="#0B4D5E"/>
</g>
<path d="M91.7228 29.8639C93.6604 27.4899 96.1377 28.299 96.8474 31.5796L104.066 64.9537L108.498 59.5808C111.324 56.1457 114.807 58.616 114.662 63.9488L112.591 141.514C112.571 142.307 112.316 142.961 111.974 143.381C111.414 144.069 110.617 144.126 110.227 143.131L97.0287 109.471L92.1581 115.436C90.9745 116.885 89.4604 116.776 88.6927 115.151C84.4793 106.214 71.5601 78.8676 66.4243 68.0027C65.2607 65.5548 65.8161 61.6034 67.6009 59.414L91.7228 29.8639Z" fill="#F0F4FF"/>
<path d="M114.862 63.9538L112.791 141.519C112.77 142.349 112.503 143.049 112.129 143.508L112.012 143.64C111.728 143.934 111.379 144.113 111.022 144.086C110.6 144.054 110.252 143.743 110.041 143.203L96.9671 109.862L92.3134 115.562C91.6964 116.317 90.9635 116.702 90.2535 116.646C89.5387 116.589 88.916 116.092 88.5118 115.237L88.874 115.066C89.2375 115.835 89.7553 116.205 90.2851 116.247C90.82 116.289 91.437 116.003 92.0036 115.309L96.874 109.344C96.9189 109.289 96.9899 109.262 97.06 109.273C97.1301 109.284 97.1891 109.332 97.215 109.398L110.414 143.058L110.484 143.215C110.654 143.55 110.865 143.673 111.052 143.688C111.28 143.705 111.562 143.571 111.819 143.256L111.818 143.255C112.129 142.874 112.371 142.263 112.391 141.509L114.462 63.9431L114.862 63.9538ZM91.758 29.5168C92.7156 28.4593 93.8177 28.0821 94.8086 28.4111C95.7883 28.7365 96.5766 29.7268 96.9699 31.2295L97.043 31.5369L104.173 64.507L108.343 59.454L108.618 59.14C109.265 58.4467 109.949 58.028 110.629 57.8697C111.409 57.6878 112.163 57.8549 112.81 58.3132C114.093 59.2228 114.935 61.2547 114.862 63.9538L114.662 63.9483L114.462 63.9431L114.463 63.9428C114.534 61.3097 113.707 59.4402 112.579 58.6401C112.02 58.2438 111.382 58.1043 110.719 58.2587C110.052 58.4142 109.34 58.8724 108.652 59.7079L104.22 65.081L104.179 65.1187C104.133 65.1502 104.074 65.1612 104.018 65.1476C103.944 65.1294 103.887 65.0707 103.87 64.9961L96.6526 31.6218L96.5822 31.3282C96.2086 29.9011 95.4843 29.0577 94.6824 28.7913C93.8917 28.5288 92.9432 28.8024 92.0549 29.7844L91.878 29.9899L67.7564 59.5405C66.8925 60.6002 66.3176 62.0978 66.1048 63.6382C65.8919 65.1793 66.0442 66.7375 66.6045 67.9164L66.4236 68.0026L66.4268 68.0002L66.6045 67.9164L66.6049 67.9173L78.0851 92.2141C82.4835 101.526 86.7672 110.597 88.874 115.066L88.6927 115.151L88.5118 115.237L88.5115 115.236C84.298 106.299 71.3796 78.9535 66.2436 68.0885L66.1354 67.8458C65.6227 66.6141 65.5019 65.0776 65.7083 63.5836C65.9285 61.9892 66.5254 60.4165 67.4463 59.2869L91.5682 29.7373L91.758 29.5168Z" fill="#0B4D5E"/>
<path d="M29.0566 151.537C28.3378 150.557 28.5492 149.18 29.529 148.461L41.8957 139.388C42.8753 138.669 44.2521 138.88 44.9711 139.86C45.6899 140.839 45.4783 142.217 44.4985 142.936L32.1319 152.009C31.1521 152.728 29.7755 152.516 29.0566 151.537Z" fill="#0B4D5E"/>
<path d="M47.5069 165.736C46.3689 165.309 45.7917 164.041 46.218 162.903L51.5998 148.54C52.0262 147.401 53.2948 146.824 54.4328 147.251C55.5706 147.677 56.1471 148.946 55.7208 150.084L50.3399 164.447C49.9136 165.585 48.6449 166.162 47.5069 165.736Z" fill="#0B4D5E"/>
</svg>
