<svg width="172" height="172" viewBox="0 0 172 172" fill="none" xmlns="http://www.w3.org/2000/svg">
<path d="M150.731 51.0482L86.3931 88.2199L22.2141 51.3518L86.7886 14.1802L150.731 51.0482Z" fill="#F0F4FF"/>
<path fill-rule="evenodd" clip-rule="evenodd" d="M86.8954 13.9954C86.8293 13.9573 86.7479 13.9573 86.6818 13.9953L22.1072 51.1669C22.0409 51.2051 22 51.2759 22 51.3525C22.0001 51.429 22.041 51.4997 22.1074 51.5379L86.2864 88.4059C86.3526 88.4439 86.434 88.4438 86.5 88.4057L150.838 51.234C150.905 51.1958 150.945 51.1251 150.945 51.0487C150.945 50.9723 150.904 50.9016 150.838 50.8635L86.8954 13.9954ZM86.7884 14.4276L150.303 51.049L86.3927 87.9735L22.6431 51.3522L86.7884 14.4276Z" fill="#0B4D5E"/>
<path d="M150.731 51.0482L75.8541 68.0489C71.0665 69.1359 66.0476 68.457 61.7216 66.1368C57.9246 64.1007 56.7078 59.2349 59.1004 55.6514L86.7886 14.1802L150.731 51.0482Z" fill="#F0F4FF"/>
<path fill-rule="evenodd" clip-rule="evenodd" d="M86.8954 13.9954C86.7977 13.9391 86.6732 13.9682 86.6106 14.062L58.9224 55.5332C56.4597 59.2218 57.7121 64.2301 61.6204 66.3259C65.9919 68.6705 71.0635 69.3565 75.9014 68.2581L150.779 51.2574C150.865 51.2379 150.93 51.1678 150.943 51.0808C150.956 50.9937 150.915 50.9075 150.838 50.8635L86.8954 13.9954ZM150.151 50.9612L75.8067 67.8408C71.0693 68.9164 66.1032 68.2446 61.8226 65.9489L61.7357 66.111L61.8226 65.9488C58.1369 63.9724 56.9558 59.2492 59.2782 55.7708L86.8552 14.4662L150.151 50.9612Z" fill="#0B4D5E"/>
<path d="M118.599 42.2188L86.3929 89.4841L22.2138 52.616L104.941 33.6573C109.14 32.695 113.55 33.4268 117.214 35.6935C119.449 37.0771 120.08 40.046 118.599 42.2188Z" fill="#8AE5CC"/>
<path d="M118.599 40.9556L86.3929 88.2209L22.2138 51.3528L104.941 32.3942C109.14 31.4318 113.55 32.1637 117.214 34.4303C119.449 35.8139 120.08 38.7828 118.599 40.9556Z" fill="#F0F4FF"/>
<path fill-rule="evenodd" clip-rule="evenodd" d="M117.326 34.2484C113.614 31.9522 109.147 31.2108 104.893 32.1857L104.941 32.3942L104.893 32.1857L22.166 51.1444C22.0801 51.164 22.0151 51.2342 22.0022 51.3213C21.9892 51.4084 22.0308 51.4945 22.1072 51.5384L86.2862 88.4065C86.3831 88.4621 86.5066 88.4338 86.5696 88.3414L118.776 41.0761C120.325 38.8026 119.666 35.6962 117.326 34.2484L117.326 34.2484ZM104.989 32.6028C109.133 31.653 113.485 32.3753 117.101 34.6123C119.233 35.9318 119.834 38.7631 118.422 40.8352L118.422 40.8352L86.3275 87.9368L22.7939 51.4394L104.989 32.6028Z" fill="#0B4D5E"/>
<path d="M109.174 38.9759L61.1535 66.7195C60.9734 66.8234 60.7511 66.8234 60.5709 66.7189C60.1849 66.4947 60.1861 65.9367 60.5728 65.7137L108.637 38.0463C108.816 37.943 109.039 37.9518 109.209 38.0696C109.534 38.2932 109.514 38.7794 109.173 38.9765L109.174 38.9759Z" fill="#0B4D5E"/>
<path fill-rule="evenodd" clip-rule="evenodd" d="M109.33 37.8936C109.092 37.7287 108.781 37.7167 108.53 37.8609L108.53 37.8609L60.466 65.5284L60.4659 65.5284C59.9369 65.8334 59.9349 66.597 60.4634 66.9039L60.4635 66.904C60.71 67.047 61.014 67.047 61.2603 66.9049L61.2604 66.9048L109.281 39.1612C109.283 39.1599 109.285 39.1586 109.287 39.1572C109.757 38.8787 109.782 38.2047 109.33 37.8936ZM109.06 38.7944L61.0465 66.5343C61.0465 66.5343 61.0464 66.5343 61.0464 66.5343M109.06 38.7944C109.062 38.7934 109.064 38.7923 109.066 38.7913C109.271 38.6727 109.283 38.3803 109.087 38.2459L109.087 38.2459L109.087 38.2455C108.985 38.1751 108.852 38.1695 108.743 38.2318C108.743 38.2318 108.743 38.2318 108.743 38.2318L60.6796 65.8991C60.6796 65.8991 60.6795 65.8992 60.6795 65.8992" fill="#0B4D5E"/>
<path d="M60.9721 41.3811C61.3507 31.0619 67.7947 22.9452 75.3642 23.2519C77.7568 23.3489 79.9749 24.2778 81.8787 25.8265C86.8831 15.1949 93.996 8.44545 98.4543 10.4551C103.3 12.6399 103.173 24.3402 98.1721 36.589C96.5775 40.4937 94.0382 45.0704 91.347 49.3165L72.3827 60.2333C63.0505 56.8009 60.6749 49.4846 60.9721 41.3811ZM81.9436 52.7337C84.1384 50.6743 89.0263 43.6225 91.0819 38.5886C93.8536 31.8007 93.9235 25.317 91.2381 24.1065C88.7674 22.9924 84.8262 26.7327 82.0532 32.6245C80.9983 31.766 79.7689 31.2515 78.4432 31.198C74.2482 31.0279 70.6779 35.5259 70.4682 41.2438C70.2584 46.9617 72.4457 51.9742 81.9436 52.7337Z" fill="#0B4D5E"/>
<path fill-rule="evenodd" clip-rule="evenodd" d="M81.8009 25.4905C84.2884 20.2689 87.2846 15.9896 90.2252 13.2436C91.7181 11.8495 93.205 10.8428 94.6118 10.3134C96.0207 9.78322 97.3621 9.72778 98.5421 10.2597L98.5421 10.2597C99.8232 10.8373 100.755 12.0349 101.358 13.663C101.962 15.2911 102.245 17.3695 102.22 19.7499C102.168 24.512 100.878 30.5261 98.3701 36.6695L98.1875 36.5949L98.3701 36.6695C96.7688 40.5905 94.2222 45.1792 91.5277 49.4306C91.5091 49.4599 91.4837 49.4842 91.4537 49.5015L72.4894 60.4183C72.4345 60.4499 72.3683 60.4556 72.3088 60.4337C67.598 58.7011 64.6273 55.9805 62.877 52.6582C61.1299 49.3418 60.6089 45.4452 60.7583 41.3728C60.949 36.1726 62.6681 31.5185 65.3039 28.1984C67.9396 24.8783 71.5035 22.8809 75.3728 23.0377C77.7282 23.1332 79.9137 24.0181 81.8009 25.4905ZM98.3663 10.6497L98.4542 10.4547L98.3663 10.6497C97.3171 10.1768 96.0976 10.2114 94.7625 10.7138C100.378 12.2487 99.508 11.1645 98.3663 10.6497C101.817 17.3965 101.536 15.3746 100.957 13.8117C100.467 30.4022 101.741 24.4418 101.792 19.7453C93.8717 44.9289 96.3916 40.3825 97.974 36.5077L91.1945 49.157C64.9404 55.6568 67.7961 58.2964 72.3629 59.9975C61.038 45.4197 61.5562 49.233 63.2556 52.4588C63.0658 31.7058 61.3736 36.2696 61.1859 41.3885C71.6552 23.3153 68.2123 25.223 65.639 28.4644C79.8709 24.4686 77.6961 23.5601 75.3554 23.4652C81.862 26.0493 81.7947 26.0335 81.7437 25.992C82.0442 25.9767 81.9904 26.02 81.9262 26.0347C87.5815 16.2978 84.5665 20.6181 82.0722 25.9172C93.4254 11.217 91.9854 12.1853 90.5172 13.5563M89.2259 24.3387C89.9492 24.0666 90.5978 24.0521 91.1501 24.3011L91.1501 24.3011C91.7518 24.5724 92.22 25.1479 92.5357 25.9994C92.8514 26.8509 93.0064 27.9587 92.9924 29.2533C92.9645 31.8412 92.2619 35.1323 90.8838 38.5073C89.8634 41.0059 88.136 44.0142 86.3865 46.6581C84.6714 49.2501 82.9489 51.471 81.8656 52.5123C77.2072 52.1237 74.3773 50.7007 72.7302 48.7113C71.0699 46.7059 70.578 44.0849 70.6819 41.2512C70.7853 38.433 71.7168 35.9241 73.1287 34.1455C74.5406 32.3669 76.4215 31.3297 78.4345 31.4113L78.4345 31.4113C79.7083 31.4628 80.8943 31.9569 81.9181 32.79C81.9691 32.8315 82.0365 32.8473 82.1006 32.8326C82.1648 32.818 82.2187 32.7747 82.2467 32.7152C83.6253 29.786 85.2895 27.4029 86.905 25.8942C87.713 25.1397 88.5005 24.6116 89.2259 24.3387ZM81.9748 32.2908C83.3466 29.4378 84.9924 27.0949 86.6129 25.5815C87.4457 24.8038 88.28 24.2374 89.0752 23.9383C89.8723 23.6383 90.6429 23.6031 91.3259 23.9111C92.0669 24.2451 92.5971 24.934 92.9369 25.8507C93.2768 26.7675 93.4346 27.9317 93.4203 29.2579C93.3917 31.9114 92.6735 35.2562 91.2799 38.6691L91.0818 38.5882L91.2799 38.6691C90.2446 41.2044 88.5003 44.239 86.7433 46.8943C84.9885 49.5462 83.2065 51.8416 82.0899 52.8893C82.046 52.9306 81.9866 52.9514 81.9265 52.9466C77.1436 52.5641 74.1581 51.1069 72.4007 48.9842C70.6453 46.864 70.1485 44.1198 70.2543 41.2355C70.3607 38.3359 71.3191 35.7368 72.7936 33.8795C74.268 32.0222 76.2697 30.8954 78.4518 30.9838M78.4518 30.9838C79.7402 31.0358 80.9368 31.5071 81.9748 32.2908L78.4518 30.9838Z" fill="#0B4D5E"/>
<path d="M62.5093 40.4931C62.8878 30.174 69.3318 22.0572 76.9013 22.3639C79.2939 22.4609 81.512 23.3898 83.4159 24.9385C88.4208 14.3063 95.5331 7.55684 99.9914 9.56713C104.837 11.7519 104.71 23.4522 99.7092 35.701C98.1146 39.6057 95.5753 44.1824 92.8842 48.4285L73.9198 59.3453C64.5876 55.9129 62.212 48.5966 62.5093 40.4931ZM83.4807 51.8451C85.6756 49.7857 90.5634 42.7339 92.619 37.7C95.3907 30.9121 95.4606 24.4284 92.7752 23.2179C90.3045 22.1038 86.3633 25.8441 83.5903 31.7358C82.5354 30.8774 81.3061 30.3629 79.9803 30.3094C75.7853 30.1393 72.215 34.6373 72.0053 40.3552C71.7956 46.0731 73.9828 51.0856 83.4807 51.8451Z" fill="#8AE5CC"/>
<path fill-rule="evenodd" clip-rule="evenodd" d="M83.3385 24.6035C81.4513 23.1311 79.2658 22.2462 76.9104 22.1507C73.0411 21.9939 69.4772 23.9913 66.8415 27.3114C64.2057 30.6315 62.4866 35.2856 62.2959 40.4858C62.1465 44.5582 62.6675 48.4548 64.4146 51.7712C66.1649 55.0935 69.1356 57.814 73.8464 59.5467C73.9059 59.5686 73.972 59.5629 74.027 59.5313L92.9913 48.6145C93.0213 48.5972 93.0467 48.5729 93.0653 48.5436C95.7598 44.2921 98.3064 39.7035 99.9077 35.7825L99.7251 35.7079L99.9077 35.7824C102.416 29.6391 103.706 23.625 103.757 18.8629C103.783 16.4825 103.499 14.4041 102.896 12.776C102.292 11.1479 101.361 9.95027 100.08 9.37268M83.3385 24.6035C85.8263 19.3816 88.8225 15.1021 91.763 12.3561C93.2559 10.962 94.7427 9.95532 96.1495 9.426C97.5583 8.89593 98.8998 8.84062 100.08 9.37267M96.3002 9.82647C97.6352 9.32415 98.8547 9.28964 99.9038 9.76273L99.9038 9.76273C101.046 10.2775 101.915 11.3617 102.495 12.9247C103.074 14.4875 103.355 16.5095 103.329 18.8583C103.279 23.5548 102.004 29.5152 99.5116 35.6207C97.9292 39.4954 95.4093 44.0419 92.7321 48.27L73.9005 59.1104C69.3337 57.4094 66.478 54.7698 64.7932 51.5718C63.0938 48.346 62.5756 44.5327 62.7235 40.5015C62.9112 35.3826 64.6034 30.8188 67.1766 27.5774C69.7499 24.336 73.1928 22.4283 76.893 22.5782C79.2337 22.6731 81.4085 23.5816 83.2813 25.105C83.3323 25.1465 83.3996 25.1623 83.4638 25.1476C83.5279 25.133 83.5818 25.0897 83.6098 25.0302C86.1044 19.7308 89.1194 15.4103 92.055 12.6688C93.5231 11.2978 94.9631 10.3295 96.3002 9.82647ZM90.7634 23.4511C91.4868 23.1789 92.1354 23.1644 92.6877 23.4135L92.6877 23.4135C93.2894 23.6847 93.7576 24.2602 94.0733 25.1118C94.389 25.9632 94.544 27.0711 94.53 28.3657C94.5021 30.9536 93.7995 34.2446 92.4214 37.6197C91.401 40.1183 89.6736 43.1265 87.9241 45.7705C86.209 48.3625 84.4865 50.5834 83.4032 51.6247C78.7448 51.2361 75.9149 49.813 74.2678 47.8237C72.6075 45.8182 72.1155 43.1972 72.2195 40.3636C72.3228 37.5453 73.2544 35.0365 74.6663 33.2579C76.0782 31.4792 77.9591 30.4421 79.9721 30.5237H79.9721C81.2459 30.5751 82.4319 31.0693 83.4557 31.9023C83.5067 31.9439 83.5741 31.9596 83.6382 31.945C83.7024 31.9304 83.7563 31.8871 83.7843 31.8275C85.1629 28.8984 86.8271 26.5152 88.4426 25.0066C89.2506 24.252 90.0381 23.724 90.7634 23.4511ZM83.5124 31.4031C84.8842 28.5501 86.53 26.2072 88.1505 24.6939C88.9833 23.9162 89.8176 23.3498 90.6128 23.0506C91.4099 22.7507 92.1805 22.7154 92.8635 23.0234C93.6045 23.3574 94.1346 24.0463 94.4745 24.963C94.8144 25.8798 94.9722 27.0441 94.9579 28.3703C94.9293 31.0238 94.2111 34.3685 92.8175 37.7814C91.7822 40.3167 90.0379 43.3513 88.2809 46.0066C86.5261 48.6586 84.7441 50.954 83.6275 52.0017C83.5836 52.043 83.5242 52.0637 83.4641 52.0589C78.6812 51.6765 75.6957 50.2193 73.9383 48.0965C72.1829 45.9763 71.6861 43.2322 71.7919 40.3479C71.8982 37.4483 72.8567 34.8492 74.3312 32.9918C75.8055 31.1346 77.8073 30.0077 79.9894 30.0962M79.9894 30.0962C81.2778 30.1482 82.4744 30.6194 83.5124 31.4031L79.9894 30.0962Z" fill="#0B4D5E"/>
<path d="M86.1323 88.2994L150.719 51.0566V126.278L86.655 163.312" fill="#8AE5CC"/>
<path fill-rule="evenodd" clip-rule="evenodd" d="M150.827 50.8715C150.761 50.8332 150.679 50.8332 150.613 50.8714L86.0263 88.1142L86.24 88.4848L150.506 51.427V126.154L86.5488 163.126L86.763 163.497L150.827 126.463C150.893 126.425 150.934 126.354 150.934 126.278V51.0567C150.934 50.9803 150.893 50.9097 150.827 50.8715Z" fill="#0B4D5E"/>
<path d="M96.2018 108.606C96.6093 98.0303 103.548 89.712 111.7 90.0262C114.276 90.1257 116.665 91.0774 118.715 92.6644C124.104 81.7684 131.764 74.8508 136.565 76.9108C141.782 79.1497 141.646 91.141 136.26 103.695C132.266 113.005 122.768 126.047 118.502 129.856C100.046 128.451 95.7943 119.181 96.2018 108.606Z" fill="#F0F4FF"/>
<path fill-rule="evenodd" clip-rule="evenodd" d="M118.638 92.3378C121.319 86.9777 124.549 82.5857 127.718 79.7693C129.325 78.3409 130.924 77.3109 132.436 76.7696C133.949 76.2279 135.386 76.1723 136.649 76.7143C138.022 77.3035 139.025 78.5274 139.675 80.1974C140.325 81.8664 140.63 83.997 140.603 86.4372C140.547 91.3186 139.158 97.4828 136.457 103.779L136.26 103.695L136.457 103.779C134.451 108.453 131.069 114.054 127.658 118.961C124.25 123.863 120.797 128.094 118.645 130.015C118.601 130.054 118.544 130.073 118.486 130.069C109.227 129.364 103.486 126.683 100.117 122.81C96.7475 118.938 95.7832 113.913 95.988 108.598C96.3979 97.9591 103.39 89.4919 111.708 89.8125L111.7 90.0263L111.708 89.8125C114.247 89.9106 116.604 90.8208 118.638 92.3378ZM136.48 77.1075L136.564 76.9112L136.48 77.1075C137.716 77.6378 138.653 78.7523 139.276 80.3527C139.9 81.954 140.202 84.0256 140.175 86.4323C140.12 91.2448 138.748 97.3529 136.064 103.61C134.074 108.247 130.71 113.821 127.307 118.716C123.938 123.562 120.545 127.72 118.427 129.635C109.284 128.925 103.697 126.274 100.439 122.529C97.1707 118.772 96.2128 113.874 96.4155 108.614C96.8206 98.1016 103.706 89.9322 111.691 90.2401C114.219 90.3377 116.565 91.2709 118.584 92.8337C118.635 92.873 118.7 92.8874 118.763 92.873C118.825 92.8586 118.878 92.8169 118.907 92.7594C121.593 87.3286 124.84 82.8999 128.002 80.0891C129.584 78.6835 131.137 77.6894 132.58 77.1725C134.022 76.6561 135.343 76.6195 136.48 77.1075Z" fill="#0B4D5E"/>
<path d="M115.507 90.8403C116.328 91.1622 117.117 91.574 117.866 92.0691C117.835 92.1314 117.803 92.1919 117.772 92.2548C117.057 91.7013 116.298 91.2295 115.507 90.8403Z" fill="#0B4D5E"/>
<path fill-rule="evenodd" clip-rule="evenodd" d="M115.312 90.7541C115.266 90.859 115.311 90.9818 115.414 91.0324C116.192 91.4153 116.938 91.8794 117.642 92.4241C117.693 92.4635 117.758 92.4779 117.821 92.4634C117.884 92.4488 117.937 92.4069 117.965 92.3491C117.984 92.311 117.997 92.2844 118.012 92.2565C118.025 92.2304 118.039 92.2031 118.058 92.1641C118.106 92.0674 118.075 91.9502 117.985 91.8907C117.224 91.3876 116.421 90.9687 115.586 90.6413C115.479 90.5994 115.359 90.6492 115.312 90.7541Z" fill="#0B4D5E"/>
<path d="M117.56 129.44C121.825 125.632 131.323 112.589 135.318 103.279C140.523 91.1474 140.824 79.5416 136.129 76.7554C136.276 76.8007 136.422 76.853 136.565 76.9141C141.783 79.153 141.647 91.1442 136.261 103.698C132.266 113.008 122.768 126.05 118.503 129.859C113.291 129.462 109.213 128.438 106.052 126.935C109.07 128.209 112.85 129.082 117.56 129.44H117.56Z" fill="#0B4D5E"/>
<path fill-rule="evenodd" clip-rule="evenodd" d="M135.933 76.6688C135.889 76.7679 135.926 76.8842 136.019 76.9395C137.134 77.6011 137.971 78.7971 138.512 80.4362C139.052 82.0748 139.291 84.1394 139.222 86.5065C139.084 91.2403 137.716 97.148 135.121 103.195C133.132 107.831 129.768 113.406 126.365 118.301C122.996 123.147 119.603 127.305 117.485 129.22C112.834 128.858 109.107 127.992 106.135 126.738C106.028 126.693 105.904 126.741 105.856 126.847C105.809 126.953 105.855 127.078 105.96 127.128C109.151 128.646 113.256 129.674 118.486 130.072C118.544 130.077 118.602 130.057 118.645 130.019C120.797 128.097 124.25 123.867 127.659 118.964C131.07 114.058 134.452 108.456 136.457 103.782L136.261 103.698L136.457 103.782C139.159 97.4861 140.548 91.3218 140.603 86.4405C140.631 84.0003 140.326 81.8697 139.675 80.2007C139.025 78.5307 138.022 77.3068 136.649 76.7176L136.649 76.7175C136.498 76.653 136.345 76.5982 136.191 76.551C136.088 76.5191 135.977 76.5697 135.933 76.6688ZM117.725 129.58C119.879 127.648 123.319 123.431 126.716 118.545C130.127 113.639 133.509 108.037 135.515 103.364L135.322 103.281L135.515 103.364C138.125 97.2787 139.51 91.3177 139.65 86.519C139.72 84.12 139.479 82.0024 138.918 80.3022C138.616 79.3875 138.22 78.5888 137.726 77.932C138.366 78.5302 138.884 79.3464 139.277 80.356C139.9 81.9573 140.203 84.0289 140.175 86.4356C140.121 91.248 138.749 97.3562 136.064 103.614C134.075 108.25 130.711 113.825 127.308 118.72C123.938 123.566 120.546 127.724 118.428 129.639C118.191 129.62 117.957 129.601 117.725 129.58Z" fill="#0B4D5E"/>
<path d="M111.35 128.211C110.061 127.89 108.877 127.514 107.789 127.087L130.438 78.337C132.1 77.363 133.683 76.9267 135.084 77.1242L111.35 128.211Z" fill="white"/>
<path d="M106.228 126.413C104.247 125.462 102.635 124.318 101.339 123.02L116.08 91.2898C117.003 91.7033 117.883 92.2285 118.705 92.8649C121.318 87.5804 124.477 83.2533 127.571 80.4722L106.228 126.413Z" fill="white"/>
<path d="M86.5137 164.208L22.3346 127.222V52L86.5137 88.8674V164.208Z" fill="#0B4D5E"/>
<path fill-rule="evenodd" clip-rule="evenodd" d="M22.2274 51.393C22.1613 51.4313 22.1206 51.5018 22.1206 51.5782V126.8C22.1206 126.876 22.1615 126.947 22.2278 126.985L86.4068 163.971C86.473 164.009 86.5545 164.009 86.6206 163.971C86.6868 163.933 86.7275 163.862 86.7275 163.786V88.4456C86.7275 88.369 86.6866 88.2983 86.6202 88.2601L22.4411 51.3927C22.3749 51.3547 22.2935 51.3548 22.2274 51.393ZM86.2997 88.5695V163.416L22.5485 126.676V51.9478L86.2997 88.5695Z" fill="#0B4D5E"/>
<path d="M127.366 25.1548C141.671 24.2978 142.373 23.5958 143.238 9.36377C144.103 23.5948 144.805 24.2968 159.118 25.1548C144.804 26.0118 144.103 26.7138 143.238 40.9458C142.373 26.7148 141.671 26.0128 127.366 25.1548Z" fill="#F0F4FF"/>
<path d="M143.239 41.31C143.047 41.31 142.888 41.161 142.876 40.968C142.022 26.941 141.441 26.363 127.344 25.519C127.152 25.507 127 25.348 127 25.155C127 24.962 127.152 24.803 127.344 24.791C141.441 23.947 142.022 23.369 142.876 9.342C142.888 9.15 143.047 9 143.239 9C143.431 9 143.59 9.149 143.602 9.342C144.453 23.369 145.034 23.947 159.141 24.791C159.333 24.803 159.485 24.962 159.485 25.155C159.485 25.348 159.333 25.507 159.141 25.519C145.034 26.363 144.453 26.941 143.602 40.968C143.59 41.16 143.431 41.31 143.239 41.31ZM132.308 25.155C140.625 25.971 142.418 27.763 143.239 36.056C144.057 27.762 145.85 25.971 154.175 25.155C145.85 24.339 144.057 22.547 143.239 14.254C142.418 22.548 140.625 24.339 132.308 25.155Z" fill="#0B4D5E"/>
<path d="M23.3662 157.037C29.4092 156.675 29.7052 156.379 30.0712 150.366C30.4362 156.379 30.7332 156.675 36.7792 157.037C30.7332 157.399 30.4372 157.695 30.0712 163.706C29.7062 157.695 29.4092 157.399 23.3662 157.037Z" fill="#F0F4FF"/>
<path d="M30.07 164.07C29.878 164.07 29.719 163.921 29.707 163.728C29.354 157.927 29.176 157.749 23.344 157.4C23.152 157.388 23 157.229 23 157.036C23 156.843 23.152 156.684 23.344 156.672C29.176 156.323 29.354 156.145 29.707 150.342C29.719 150.15 29.878 150 30.07 150C30.262 150 30.421 150.149 30.433 150.342C30.786 156.145 30.964 156.323 36.799 156.672C36.991 156.684 37.143 156.843 37.143 157.036C37.143 157.229 36.991 157.388 36.799 157.4C30.965 157.749 30.787 157.927 30.433 163.728C30.421 163.92 30.262 164.07 30.07 164.07ZM26.958 157.037C28.91 157.421 29.685 158.196 30.07 160.144C30.454 158.196 31.23 157.421 33.182 157.037C31.23 156.652 30.455 155.878 30.07 153.929C29.686 155.879 28.91 156.652 26.958 157.037Z" fill="#0B4D5E"/>
</svg>
