<svg width="172" height="172" viewBox="0 0 172 172" fill="none" xmlns="http://www.w3.org/2000/svg">
<g clip-path="url(#clip0_9503_13474)">
<path d="M78.953 159.326C69.5558 159.326 22.6782 159.147 22.6782 155.652C22.6782 152.157 69.5558 151.973 78.953 151.973C88.3502 151.973 135.228 152.153 135.228 155.652C135.228 159.151 88.3502 159.326 78.953 159.326Z" fill="#0B4D5E"/>
<path d="M78.9532 152.647C109.659 152.647 134.55 153.99 134.55 155.652C134.55 157.314 109.659 158.653 78.9532 158.653C48.2472 158.653 23.3568 157.309 23.3568 155.652C23.3568 153.994 48.2472 152.647 78.9532 152.647ZM78.9532 151.299C64.0751 151.299 50.0878 151.609 39.5645 152.18C21.9956 153.128 21.9956 154.188 21.9956 155.647C21.9956 157.107 21.9956 158.167 39.5645 159.115C50.0878 159.681 64.0796 159.996 78.9532 159.996C93.8269 159.996 107.814 159.686 118.342 159.115C135.911 158.167 135.911 157.107 135.911 155.647C135.911 154.188 135.911 153.123 118.342 152.18C107.819 151.609 93.8314 151.299 78.9532 151.299Z" fill="#0B4D5E"/>
<path d="M29.4617 153.509C28.5482 153.509 27.6709 153.024 27.1734 152.243C26.676 151.466 26.6172 150.531 27.0197 149.687L75.5654 46.384C75.8604 45.7563 76.6891 45.6121 77.1787 46.1033L134.705 103.807C135.196 104.3 135.047 105.131 134.415 105.422L30.6103 153.253C30.2395 153.424 29.8551 153.509 29.4662 153.509H29.4617Z" fill="#F0F4FF"/>
<path d="M75.4583 46.1646C75.8614 45.5273 76.7698 45.41 77.3206 45.9625L134.846 103.666C135.435 104.257 135.256 105.254 134.498 105.603L30.6936 153.435C30.2977 153.617 29.8849 153.71 29.4661 153.71H29.4612C28.4784 153.709 27.5377 153.188 27.0042 152.35V152.349C26.4702 151.514 26.4071 150.508 26.8382 149.602L75.3841 46.2984L75.4583 46.1646ZM77.0364 46.2447C76.6692 45.8764 76.0638 45.9544 75.7952 46.3795L75.7464 46.4693L27.2005 149.772V149.773C26.8508 150.507 26.8764 151.309 27.26 151.999L27.3421 152.134V152.135L27.4329 152.268C27.9055 152.914 28.6701 153.309 29.4612 153.309H29.4661C29.825 153.309 30.1811 153.231 30.5266 153.072L134.331 105.24C134.836 105.007 134.955 104.343 134.563 103.949L77.0364 46.2447Z" fill="#0B4D5E"/>
<path d="M109.826 79.8067L27.603 151.556C27.802 152.041 28.1774 152.427 28.6567 152.643L128.381 98.4166L109.826 79.8022V79.8067Z" fill="white"/>
<path d="M128.523 98.2759L128.711 98.4644L128.477 98.5923L28.7524 152.818L28.6655 152.866L28.5747 152.825C28.0491 152.588 27.637 152.164 27.4185 151.631L27.3638 151.499L109.626 79.7163V79.3179L128.523 98.2759ZM27.8472 151.607C28.0223 151.956 28.3032 152.237 28.6528 152.417L128.05 98.3677L109.819 80.0776L27.8472 151.607Z" fill="#0B4D5E"/>
<path d="M37.3121 150.096C37.1628 150.096 37.0136 150.046 36.8915 149.947C35.7157 149.017 34.558 147.98 33.441 146.866C32.3286 145.761 31.2975 144.624 30.3614 143.457C30.1986 143.259 30.1669 142.985 30.2755 142.751L32.5004 138.008C32.5999 137.792 32.8079 137.644 33.0476 137.622C33.0702 137.622 33.0928 137.622 33.1154 137.622C33.328 137.622 33.5315 137.72 33.6626 137.896C34.8746 139.526 36.2448 141.107 37.7417 142.594C39.2566 144.099 40.862 145.469 42.5127 146.664C42.7071 146.803 42.8111 147.037 42.7885 147.275C42.7659 147.513 42.6167 147.719 42.3996 147.823L37.6015 150.037C37.5111 150.078 37.4116 150.1 37.3166 150.1L37.3121 150.096Z" fill="#8AE5CC"/>
<path d="M33.1153 137.421C33.3898 137.421 33.6528 137.55 33.8223 137.776H33.8233L34.2822 138.382C35.3715 139.791 36.5791 141.158 37.8828 142.453C39.3907 143.95 40.9883 145.313 42.6299 146.501H42.6289C42.8824 146.683 43.0165 146.986 42.9873 147.293C42.9578 147.604 42.7635 147.871 42.4854 148.003L42.4834 148.004L37.6856 150.218L37.6836 150.22C37.5696 150.271 37.4417 150.3 37.3164 150.3H37.2344L37.2217 150.288C37.0593 150.271 36.8998 150.212 36.7656 150.103V150.102C35.7318 149.284 34.7124 148.385 33.7227 147.423L33.2998 147.007C32.1827 145.898 31.1463 144.756 30.2051 143.582L30.2061 143.581C29.9946 143.322 29.9545 142.968 30.0938 142.667L30.0947 142.667L32.3184 137.924L32.374 137.823C32.5167 137.598 32.7577 137.448 33.0293 137.422L33.0381 137.421H33.1153ZM33.0606 137.822C32.9153 137.837 32.7878 137.918 32.7119 138.038L32.6817 138.091V138.093L30.4561 142.834L30.4571 142.835C30.3896 142.981 30.3988 143.146 30.4776 143.276L30.5156 143.33L30.5176 143.332L30.8711 143.765C31.7063 144.775 32.6128 145.761 33.5821 146.724L34.001 147.136C34.8424 147.953 35.7046 148.726 36.5781 149.439L37.0156 149.791L37.0176 149.792L37.085 149.837C37.1551 149.876 37.2338 149.896 37.3125 149.896H37.3496C37.4049 149.892 37.4641 149.88 37.5196 149.855L42.3154 147.641C42.4704 147.567 42.5742 147.42 42.5899 147.255C42.6057 147.087 42.5316 146.924 42.3965 146.827L42.3955 146.826C40.7361 145.624 39.1225 144.248 37.6006 142.736C36.0969 141.242 34.7199 139.654 33.502 138.015V138.014C33.4325 137.922 33.3343 137.86 33.2266 137.834L33.1153 137.822H33.0606Z" fill="#0B4D5E"/>
<path d="M49.1783 144.629C49.0427 144.629 48.9025 144.588 48.7894 144.507C46.3293 142.792 43.9597 140.811 41.7483 138.614C39.5776 136.458 37.5969 134.127 35.8603 131.688C35.7201 131.49 35.6975 131.234 35.8015 131.014L38.6505 124.95C38.7546 124.725 38.9761 124.577 39.2204 124.563H39.261C39.4917 124.563 39.7133 124.68 39.8354 124.878C41.7347 127.874 44.0998 130.789 46.8629 133.534C49.626 136.283 52.5881 138.646 55.6632 140.555C55.8758 140.685 55.9979 140.923 55.9798 141.165C55.9662 141.413 55.8125 141.633 55.5863 141.736L49.4632 144.561C49.3728 144.602 49.2733 144.629 49.1783 144.629Z" fill="#8AE5CC"/>
<path d="M39.2612 124.363L39.3715 124.37C39.6264 124.402 39.8638 124.544 40.0043 124.771L40.3637 125.329C42.1903 128.115 44.4221 130.828 47.0033 133.392H47.0043L47.5229 133.901C50.1262 136.423 52.8977 138.602 55.767 140.384H55.768C56.0434 140.553 56.2029 140.862 56.1791 141.181C56.1599 141.502 55.9597 141.784 55.6694 141.917L55.6703 141.918L49.5473 144.743L49.5444 144.744C49.4365 144.792 49.3088 144.829 49.1782 144.829C49.0055 144.829 48.8249 144.777 48.6752 144.671V144.672C46.2054 142.949 43.8262 140.96 41.6069 138.756C39.4285 136.592 37.4408 134.252 35.6977 131.804H35.6967C35.5147 131.547 35.4859 131.214 35.6205 130.929L38.4692 124.864C38.6048 124.573 38.8925 124.382 39.2094 124.364L39.2201 124.363H39.2612ZM39.2241 124.764C39.0559 124.776 38.9031 124.879 38.8315 125.034V125.035L35.9828 131.099L35.9819 131.1C35.909 131.254 35.9251 131.433 36.0229 131.571L36.683 132.478C38.2492 134.579 39.9966 136.593 41.8891 138.473C43.8172 140.388 45.866 142.138 47.9897 143.69L48.9037 144.344L48.9057 144.345L48.9662 144.381C49.0307 144.412 49.1047 144.429 49.1782 144.429C49.2372 144.429 49.3085 144.411 49.3813 144.379L55.5024 141.555L55.5033 141.554L55.561 141.522C55.6889 141.441 55.7715 141.304 55.7797 141.154L55.7807 141.15V141.088C55.7707 140.943 55.6898 140.805 55.559 140.725H55.558C52.6623 138.927 49.8674 136.729 47.2446 134.188L46.7221 133.676C43.9495 130.922 41.5744 127.995 39.6664 124.985L39.6655 124.983C39.5923 124.865 39.464 124.786 39.3227 124.768L39.2612 124.764H39.2241Z" fill="#0B4D5E"/>
<path d="M63.2472 138.138C63.125 138.138 62.9984 138.107 62.8899 138.039C58.8696 135.591 55.0167 132.541 51.4396 128.984C47.8806 125.453 44.8326 121.658 42.3815 117.705C42.2594 117.512 42.2459 117.273 42.3454 117.067L45.8908 109.525C45.9993 109.296 46.23 109.143 46.4832 109.139H46.5013C46.75 109.139 46.9806 109.273 47.0982 109.494C49.6442 114.201 53.2123 118.891 57.4089 123.059C61.6508 127.272 66.4127 130.83 71.1927 133.363C71.4188 133.485 71.559 133.723 71.55 133.979C71.5455 134.235 71.3917 134.464 71.1565 134.572L63.5321 138.08C63.4416 138.12 63.3421 138.138 63.2472 138.138Z" fill="#8AE5CC"/>
<path d="M46.501 108.938C46.8213 108.938 47.1201 109.112 47.2735 109.398H47.2744C49.8102 114.087 53.3656 118.761 57.5498 122.917C61.7791 127.118 66.5253 130.663 71.2862 133.187L71.2871 133.188L71.3916 133.253C71.6205 133.42 71.7579 133.691 71.749 133.981L71.75 133.982C71.7441 134.318 71.5429 134.615 71.2403 134.754V134.753L63.6153 138.262L63.6133 138.263C63.4939 138.316 63.3661 138.338 63.2471 138.338C63.092 138.338 62.9278 138.298 62.7842 138.209V138.208C59.0026 135.905 55.3692 133.073 51.9746 129.789L51.2989 129.126C47.7297 125.585 44.6718 121.777 42.2119 117.811L42.2129 117.81C42.0548 117.558 42.0366 117.249 42.1651 116.981H42.1641L45.71 109.439L45.7696 109.333C45.925 109.097 46.1896 108.944 46.4795 108.938H46.501ZM46.4219 109.345C46.2726 109.369 46.1388 109.468 46.0713 109.609L46.0723 109.61L42.5264 117.152L42.5254 117.153C42.4731 117.262 42.4656 117.382 42.501 117.492L42.5508 117.598L42.5518 117.6L43.0166 118.336C45.3756 122.01 48.2533 125.541 51.5801 128.842H51.5811L52.253 129.501C55.4035 132.549 58.7584 135.205 62.2451 137.404L62.9942 137.868L62.9951 137.869L63.0528 137.899C63.1131 137.925 63.1802 137.938 63.2471 137.938C63.3178 137.938 63.3889 137.925 63.4502 137.897L71.0733 134.39L71.1328 134.357C71.2655 134.273 71.3468 134.13 71.3496 133.976V133.972L71.5498 133.979L71.3506 133.972C71.3561 133.816 71.2817 133.667 71.1553 133.575L71.0987 133.54C66.2997 130.997 61.5219 127.427 57.2676 123.201C53.3217 119.282 49.9282 114.901 47.4131 110.475L46.9219 109.589V109.588C46.84 109.434 46.6777 109.339 46.501 109.339H46.4864L46.4219 109.345Z" fill="#0B4D5E"/>
<path d="M105.675 118.589C105.58 118.589 105.48 118.571 105.39 118.527C96.6979 114.493 87.9655 108.254 80.142 100.483C72.4135 92.806 66.1728 84.2175 62.0937 75.6515C62.0078 75.4719 62.0078 75.2607 62.0937 75.0811L67.9093 62.6925C68.0179 62.4544 68.2621 62.3062 68.5244 62.3062H68.547C68.8228 62.3151 69.0625 62.4903 69.1575 62.7419C72.8883 72.5252 79.9023 82.8385 88.9106 91.7864C98.032 100.842 108.528 107.845 118.468 111.51C118.726 111.605 118.898 111.843 118.911 112.117C118.925 112.391 118.766 112.638 118.518 112.754L105.969 118.54C105.878 118.58 105.779 118.603 105.684 118.603L105.675 118.589Z" fill="#8AE5CC"/>
<path d="M68.5537 62.106L68.6846 62.1206C68.985 62.1761 69.2367 62.3849 69.3447 62.6704L69.7022 63.5864C73.5019 73.0642 80.3405 82.9912 89.0518 91.644L89.9092 92.4858C98.8108 101.117 108.939 107.783 118.537 111.323L118.657 111.376C118.924 111.523 119.096 111.799 119.111 112.107C119.129 112.467 118.92 112.786 118.603 112.935L118.602 112.936L106.053 118.721L106.05 118.722C105.936 118.773 105.809 118.803 105.684 118.803H105.577L105.563 118.781C105.476 118.77 105.386 118.748 105.301 118.706V118.705C96.8591 114.786 88.3838 108.797 80.7383 101.35L80.001 100.625C72.5004 93.1743 66.3956 84.8639 62.3027 76.5425L61.9131 75.7378C61.8011 75.5036 61.8011 75.2288 61.9131 74.9946L67.7285 62.6079C67.8719 62.2953 68.1892 62.106 68.5244 62.106H68.5537ZM68.5244 62.5063C68.3591 62.5063 68.2078 62.5878 68.123 62.7173L68.0918 62.7759L68.0908 62.7778L62.2744 75.1665V75.1675C62.2146 75.2925 62.2147 75.4399 62.2744 75.5649V75.5659L62.6621 76.3667C66.7329 84.6429 72.8099 92.9171 80.2832 100.34L81.0176 101.063C88.3911 108.245 96.5332 114.062 104.661 117.961L105.474 118.345L105.479 118.347L105.571 118.379C105.604 118.386 105.639 118.389 105.675 118.389H105.781L105.782 118.391C105.817 118.383 105.853 118.372 105.887 118.357L118.434 112.573C118.613 112.488 118.72 112.314 118.711 112.126C118.701 111.931 118.58 111.764 118.399 111.698H118.398C108.738 108.135 98.5636 101.436 89.6299 92.7729L88.7695 91.9282C80.0274 83.2447 73.1549 73.2728 69.3311 63.7349L68.9707 62.813C68.9124 62.6587 68.7757 62.5446 68.6123 62.5142L68.54 62.5063H68.5244Z" fill="#0B4D5E"/>
<path d="M81.5258 129.729C81.4127 129.729 81.2997 129.702 81.1957 129.644C75.2625 126.365 69.3067 121.828 63.975 116.536C58.7246 111.326 54.1934 105.468 50.865 99.6065C50.761 99.4178 50.7519 99.1887 50.8424 98.9911L55.5545 88.9742C55.6631 88.7361 55.9028 88.5879 56.1651 88.5879C56.4273 88.5879 56.6625 88.7361 56.7756 88.9697C60.122 95.8917 65.2095 102.845 71.4819 109.08C77.8175 115.373 84.8903 120.458 91.9269 123.786C92.1621 123.899 92.3159 124.137 92.3113 124.397C92.3113 124.658 92.1576 124.896 91.9179 125.008L81.7971 129.68C81.7067 129.72 81.6072 129.742 81.5122 129.742L81.5258 129.729Z" fill="#8AE5CC"/>
<path d="M56.1651 88.3877C56.504 88.3877 56.8096 88.5802 56.9561 88.8828L57.2735 89.5293C60.6091 96.2138 65.5592 102.911 71.6221 108.938H71.6231C77.7472 115.021 84.5588 119.97 91.3545 123.289L92.0127 123.605L92.1221 123.667C92.3624 123.827 92.5158 124.099 92.5118 124.397L92.502 124.522C92.4595 124.811 92.2727 125.063 92.003 125.189H92.002L81.8809 129.861L81.8789 129.862C81.7651 129.913 81.6379 129.942 81.5127 129.942H81.0274L81.1338 129.835C81.1221 129.829 81.1093 129.825 81.0977 129.818V129.817C75.5191 126.734 69.9229 122.545 64.8428 117.664L63.834 116.679C58.9009 111.783 54.6 106.316 51.3311 100.808L50.6914 99.7051L50.6895 99.7031C50.555 99.4592 50.5436 99.1634 50.6602 98.9082L50.6612 98.9062L55.3741 88.8887C55.517 88.578 55.8287 88.3877 56.1651 88.3877ZM56.1651 88.7881C55.9779 88.7881 55.8111 88.8938 55.7364 89.0576L55.7354 89.0596L51.0235 99.0732L51.0245 99.0742C50.9607 99.2135 50.9667 99.375 51.0391 99.5078L51.6748 100.604C54.925 106.08 59.2051 111.521 64.1163 116.395L65.1202 117.375C69.8411 121.911 75.0069 125.845 80.1836 128.841L81.292 129.469L81.294 129.47L81.3487 129.496C81.4051 129.519 81.4648 129.529 81.5254 129.529H81.6192C81.6507 129.522 81.6823 129.512 81.7129 129.498L91.834 124.826C92.0045 124.746 92.1112 124.578 92.1114 124.397V124.394L92.1075 124.327C92.0869 124.174 91.9875 124.037 91.8409 123.967V123.966C85.002 120.731 78.1334 115.845 71.9385 109.81L71.3409 109.222C65.2513 103.169 60.2729 96.437 56.9151 89.708L56.5957 89.0566C56.5161 88.8922 56.3507 88.7881 56.1651 88.7881Z" fill="#0B4D5E"/>
<path d="M132.058 105.541C124.646 105.541 110.699 96.6331 97.354 83.3731C89.4853 75.5572 82.9597 67.3371 78.9756 60.2264C74.8604 52.8777 73.9469 47.4829 76.4115 45.0394C77.3205 44.132 78.6319 43.6738 80.3006 43.6738C87.7126 43.6738 101.659 52.5812 115.004 65.8413C122.873 73.6571 129.399 81.8773 133.383 88.9879C137.498 96.3366 138.411 101.731 135.947 104.175C135.038 105.082 133.726 105.541 132.058 105.541Z" fill="#0B4D5E"/>
<path d="M80.3001 43.4736C82.1893 43.4736 84.4781 44.0409 87.0481 45.0879C89.6206 46.1359 92.4877 47.6695 95.5354 49.6162C101.631 53.5096 108.464 59.0614 115.145 65.6992L116.606 67.1709C123.83 74.549 129.811 82.2048 133.557 88.8906L133.935 89.5752C135.776 92.9729 136.917 95.946 137.329 98.3877C137.769 100.988 137.386 103.027 136.087 104.315L136.088 104.316C135.131 105.272 133.762 105.74 132.058 105.74C130.169 105.74 127.879 105.174 125.309 104.127C122.736 103.079 119.87 101.544 116.823 99.5977C111.108 95.9476 104.745 90.8406 98.4671 84.7471L97.2132 83.5146C89.5819 75.9346 83.2066 67.97 79.1829 60.9961L78.8011 60.3242C76.738 56.6402 75.4687 53.4316 75.0286 50.8271C74.5892 48.2265 74.9707 46.1858 76.2698 44.8975L76.4544 44.7246C77.3994 43.8861 78.702 43.4737 80.3001 43.4736ZM80.3001 43.874C78.6678 43.8741 77.4139 44.3215 76.553 45.1807L76.552 45.1816C75.387 46.3368 74.9933 48.2155 75.4231 50.7598C75.8525 53.3007 77.0976 56.4644 79.1497 60.1289L79.5296 60.7969C83.5305 67.7312 89.8802 75.6684 97.4944 83.2314L98.7454 84.46C105.007 90.5384 111.35 95.6277 117.038 99.2607C120.072 101.198 122.916 102.719 125.46 103.756C128.007 104.793 130.241 105.341 132.058 105.341C133.69 105.341 134.944 104.893 135.805 104.033H135.806L136.015 103.808C137.017 102.64 137.338 100.84 136.935 98.4541C136.532 96.072 135.413 93.1429 133.583 89.7666L133.208 89.0859C129.484 82.4392 123.527 74.8116 116.321 67.4512L114.864 65.9834C108.199 59.3614 101.387 53.8284 95.3196 49.9531C92.2862 48.0156 89.4418 46.4945 86.8977 45.458C84.3513 44.4206 82.1167 43.874 80.3001 43.874Z" fill="#0B4D5E"/>
</g>
<path d="M30.3857 35.3829C47.7612 34.4059 48.6122 33.6063 49.6638 17.3853C50.7153 33.6063 51.5664 34.4059 68.9521 35.3829C51.5664 36.3599 50.7153 37.1595 49.6638 53.3805C48.6122 37.1595 47.7612 36.3599 30.3857 35.3829Z" fill="#F0F4FF"/>
<path d="M49.6637 53.7666C49.4606 53.7666 49.291 53.6072 49.2807 53.4067C48.2445 37.3939 47.5349 36.7357 30.3652 35.7689C30.1621 35.7587 30 35.589 30 35.3833C30 35.1776 30.1595 35.0079 30.3652 34.9976C47.5375 34.0335 48.2445 33.3727 49.2807 17.3599C49.2935 17.1568 49.4606 17 49.6637 17C49.8669 17 50.0365 17.1594 50.0468 17.3599C51.0855 33.3727 51.7952 34.0335 68.9727 34.9976C69.1758 35.0079 69.3378 35.1776 69.3378 35.3833C69.3378 35.589 69.1784 35.7587 68.9727 35.7689C51.7926 36.7331 51.0855 37.3939 50.0468 53.4067C50.0339 53.6098 49.8669 53.7666 49.6637 53.7666ZM36.055 35.3833C46.5991 36.314 48.6867 38.3555 49.6637 48.3725C50.6433 38.3555 52.7311 36.314 63.2803 35.3833C52.7311 34.4526 50.6433 32.4111 49.6637 22.3941C48.6867 32.4111 46.5991 34.4526 36.055 35.3833Z" fill="#0B4D5E"/>
<path d="M126.243 59.5676C137.177 58.9528 137.712 58.4496 138.374 48.2422C139.036 58.4496 139.571 58.9528 150.511 59.5676C139.571 60.1824 139.036 60.6856 138.374 70.893C137.712 60.6856 137.177 60.1824 126.243 59.5676Z" fill="#F0F4FF"/>
<path d="M138.374 71.1362C138.246 71.1362 138.139 71.0359 138.133 70.9097C137.481 60.8333 137.034 60.4191 126.23 59.8108C126.102 59.8043 126 59.6975 126 59.5681C126 59.4387 126.1 59.3319 126.23 59.3254C137.036 58.7187 137.481 58.3029 138.133 48.2265C138.141 48.0987 138.246 48 138.374 48C138.502 48 138.608 48.1003 138.615 48.2265C139.269 58.3029 139.715 58.7187 150.524 59.3254C150.652 59.3319 150.754 59.4387 150.754 59.5681C150.754 59.6975 150.654 59.8043 150.524 59.8108C139.714 60.4175 139.269 60.8333 138.615 70.9097C138.607 71.0376 138.502 71.1362 138.374 71.1362ZM129.81 59.5681C136.445 60.1538 137.759 61.4384 138.374 67.7418C138.99 61.4384 140.304 60.1538 146.942 59.5681C140.304 58.9824 138.99 57.6978 138.374 51.3944C137.759 57.6978 136.445 58.9824 129.81 59.5681Z" fill="#0B4D5E"/>
<path d="M87.2419 78.0985C89.3708 78.0985 91.0985 76.3708 91.0985 74.2419C91.0985 72.113 89.3708 70.3853 87.2419 70.3853C85.113 70.3853 83.3853 72.113 83.3853 74.2419C83.3853 76.3708 85.113 78.0985 87.2419 78.0985Z" fill="#F0F4FF"/>
<path d="M87.2424 78.4846C84.9027 78.4846 83 76.582 83 74.2423C83 71.9026 84.9027 70 87.2424 70C89.5821 70 91.4847 71.9026 91.4847 74.2423C91.4847 76.582 89.5821 78.4846 87.2424 78.4846ZM87.2424 70.7713C85.3295 70.7713 83.7715 72.3268 83.7715 74.2423C83.7715 76.1578 85.3269 77.7133 87.2424 77.7133C89.1578 77.7133 90.7133 76.1578 90.7133 74.2423C90.7133 72.3268 89.1578 70.7713 87.2424 70.7713Z" fill="#0B4D5E"/>
<mask id="path-25-inside-1_9503_13474" fill="white">
<path d="M115.516 70.5151C120.074 70.5151 123.773 66.8157 123.773 62.2575C123.773 57.6994 120.074 54 115.516 54C110.958 54 107.258 57.6994 107.258 62.2575C107.258 66.8157 110.958 70.5151 115.516 70.5151Z"/>
</mask>
<path d="M115.516 70.5151C120.074 70.5151 123.773 66.8157 123.773 62.2575C123.773 57.6994 120.074 54 115.516 54C110.958 54 107.258 57.6994 107.258 62.2575C107.258 66.8157 110.958 70.5151 115.516 70.5151Z" fill="#F0F4FF" stroke="#0B4D5E" mask="url(#path-25-inside-1_9503_13474)"/>
<mask id="path-26-inside-2_9503_13474" fill="white">
<path d="M105.172 15.6768L124.769 34.3016L113.24 45.7807L97.5137 41.6046L105.172 15.6768Z"/>
</mask>
<path d="M105.172 15.6768L124.769 34.3016L113.24 45.7807L97.5137 41.6046L105.172 15.6768Z" fill="#F0F4FF" stroke="#0B4D5E" stroke-width="0.6" stroke-linejoin="round" mask="url(#path-26-inside-2_9503_13474)"/>
<path d="M113.143 45.3896L105.347 16.4081L97.8412 41.4911L113.143 45.3896Z" fill="#8AE5CC" stroke="#0B4D5E" stroke-width="0.3" stroke-linejoin="round"/>
<mask id="path-28-inside-3_9503_13474" fill="white">
<path d="M145.886 134.97L125.228 134.176L131.506 120.472L145.263 114.306L145.886 134.97Z"/>
</mask>
<path d="M145.886 134.97L125.228 134.176L131.506 120.472L145.263 114.306L145.886 134.97Z" fill="#8AE5CC" stroke="#0B4D5E" stroke-width="0.6" stroke-linejoin="round" mask="url(#path-28-inside-3_9503_13474)"/>
<path d="M131.685 120.665L145.553 134.606L145.028 114.561L131.685 120.665Z" fill="#F0F4FF" stroke="#0B4D5E" stroke-width="0.3" stroke-linejoin="round"/>
<defs>
<clipPath id="clip0_9503_13474">
<rect width="116" height="117" fill="white" transform="translate(22 43)"/>
</clipPath>
</defs>
</svg>
