<svg width="172" height="172" viewBox="0 0 172 172" fill="none" xmlns="http://www.w3.org/2000/svg">
<path d="M130.366 33.155C144.671 32.298 145.373 31.596 146.238 17.364C147.103 31.595 147.805 32.297 162.118 33.155C147.804 34.012 147.103 34.714 146.238 48.946C145.373 34.715 144.671 34.013 130.366 33.155Z" fill="#F0F4FF"/>
<path d="M146.239 49.31C146.047 49.31 145.888 49.161 145.876 48.968C145.022 34.941 144.441 34.363 130.344 33.519C130.152 33.507 130 33.348 130 33.155C130 32.962 130.152 32.803 130.344 32.791C144.441 31.947 145.022 31.369 145.876 17.342C145.888 17.15 146.047 17 146.239 17C146.431 17 146.59 17.149 146.602 17.342C147.453 31.369 148.034 31.947 162.141 32.791C162.333 32.803 162.485 32.962 162.485 33.155C162.485 33.348 162.333 33.507 162.141 33.519C148.034 34.363 147.453 34.941 146.602 48.968C146.59 49.16 146.431 49.31 146.239 49.31ZM135.308 33.155C143.625 33.971 145.418 35.763 146.239 44.056C147.057 35.762 148.85 33.971 157.175 33.155C148.85 32.339 147.057 30.547 146.239 22.254C145.418 30.548 143.625 32.339 135.308 33.155Z" fill="#0B4D5E"/>
<path d="M9.36621 142.037C15.4092 141.675 15.7052 141.379 16.0712 135.366C16.4362 141.379 16.7332 141.675 22.7792 142.037C16.7332 142.399 16.4372 142.695 16.0712 148.706C15.7062 142.695 15.4092 142.399 9.36621 142.037Z" fill="#F0F4FF"/>
<path d="M16.07 149.07C15.878 149.07 15.719 148.921 15.707 148.728C15.354 142.927 15.176 142.749 9.34399 142.4C9.15199 142.388 9 142.229 9 142.036C9 141.843 9.15199 141.684 9.34399 141.672C15.176 141.323 15.354 141.145 15.707 135.342C15.719 135.15 15.878 135 16.07 135C16.262 135 16.421 135.149 16.433 135.342C16.786 141.145 16.964 141.323 22.799 141.672C22.991 141.684 23.143 141.843 23.143 142.036C23.143 142.229 22.991 142.388 22.799 142.4C16.965 142.749 16.787 142.927 16.433 148.728C16.421 148.92 16.262 149.07 16.07 149.07ZM12.958 142.037C14.91 142.421 15.685 143.196 16.07 145.144C16.454 143.196 17.23 142.421 19.182 142.037C17.23 141.652 16.455 140.878 16.07 138.929C15.686 140.879 14.91 141.652 12.958 142.037Z" fill="#0B4D5E"/>
<path d="M9.56592 102.384L49.314 125.484L116.717 86.5693L76.9692 63.4685L9.56592 102.384Z" fill="#0B4D5E"/>
<path d="M76.9009 63.2088C76.9686 63.191 77.0419 63.2001 77.104 63.2361L116.852 86.3377L116.908 86.3807C116.957 86.4303 116.986 86.4983 116.986 86.5701C116.986 86.6657 116.934 86.7538 116.851 86.8016L49.4478 125.717C49.3854 125.753 49.3124 125.762 49.2446 125.744L49.1792 125.717L9.43115 102.616C9.34846 102.568 9.29731 102.479 9.29736 102.384C9.2975 102.288 9.34923 102.199 9.43213 102.151L76.8354 63.2361L76.9009 63.2088ZM10.1001 102.384L49.314 125.174L116.181 86.5682L76.9683 63.7781L10.1001 102.384Z" fill="#0B4D5E"/>
<path d="M49.4844 125.67L89.2324 148.77L156.636 109.855L116.888 86.7544L49.4844 125.67Z" fill="#0B4D5E"/>
<path d="M116.819 86.4947C116.887 86.4769 116.96 86.486 117.022 86.522L156.771 109.624L156.826 109.667C156.875 109.716 156.904 109.784 156.904 109.856C156.904 109.952 156.852 110.04 156.77 110.087L89.3662 149.002C89.3039 149.038 89.2308 149.048 89.1631 149.03L89.0977 149.002L49.3496 125.902C49.2669 125.854 49.2158 125.765 49.2158 125.669C49.216 125.574 49.2677 125.485 49.3506 125.437L116.754 86.522L116.819 86.4947ZM50.0186 125.669L89.2324 148.46L156.1 109.854L116.887 87.064L50.0186 125.669Z" fill="#0B4D5E"/>
<path d="M59.9746 125.116L96.7888 146.594L159.217 110.412L122.403 88.9336L59.9746 125.116Z" fill="#0B4D5E"/>
<path d="M122.334 88.6738C122.402 88.6558 122.476 88.6657 122.538 88.7021L159.353 110.18L159.408 110.224C159.457 110.273 159.485 110.341 159.485 110.412C159.485 110.508 159.434 110.597 159.352 110.645L96.9238 146.826L96.8574 146.853C96.7894 146.871 96.7157 146.863 96.6533 146.826L96.7891 146.594H96.7881L96.6533 146.826L59.8398 125.348C59.7573 125.299 59.7059 125.211 59.7061 125.115C59.7062 125.02 59.7573 124.932 59.8398 124.884L122.269 88.7011L122.334 88.6738ZM60.5078 125.116L96.7891 146.283L158.683 110.41L122.402 89.2431L60.5078 125.116Z" fill="#0B4D5E"/>
<path d="M28.919 56.6826C28.2046 57.0951 28.2032 58.1256 28.9163 58.5401L61.0833 77.2353C61.4158 77.4286 61.8263 77.4292 62.1593 77.2369L118.193 44.8851C118.907 44.4726 118.909 43.4421 118.196 43.0276L86.0288 24.3324C85.6963 24.1391 85.2858 24.1385 84.9528 24.3308L28.919 56.6826Z" fill="#F0F4FF"/>
<path d="M84.8184 24.0982C85.2347 23.8578 85.7485 23.8586 86.1641 24.1001L118.331 42.7955C119.222 43.3136 119.22 44.6022 118.327 45.1177L62.294 77.4693C61.8777 77.7096 61.3639 77.7089 60.9483 77.4673L28.7813 58.772C27.8902 58.2538 27.8924 56.9662 28.7852 56.4507L84.8184 24.0982ZM85.8936 24.564C85.6443 24.4194 85.3365 24.4189 85.087 24.563L29.0528 56.9156C28.5177 57.225 28.5165 57.9973 29.0508 58.3082L61.2178 77.0035C61.4672 77.1484 61.7757 77.1487 62.0254 77.0044L118.059 44.6529C118.594 44.3436 118.596 43.5703 118.062 43.2593L85.8936 24.564Z" fill="#0B4D5E"/>
<path d="M62.7126 45.6621C57.6066 48.585 57.5795 53.3245 62.6518 56.2474C67.7241 59.1702 75.9729 59.1702 81.0789 56.2474C86.1816 53.3245 86.2087 48.585 81.1364 45.6621C76.0675 42.7393 67.8187 42.7393 62.716 45.6621H62.7126Z" fill="#8AE5CC"/>
<path d="M71.9394 43.2014C68.5754 43.2014 65.1929 43.9376 62.5927 45.4241L62.58 45.429L62.1064 45.7141C59.8126 47.1671 58.6086 49.0357 58.5976 50.9534C58.5859 52.9996 59.9334 54.9901 62.5185 56.4797C65.1051 57.9702 68.4846 58.7083 71.8534 58.7083C75.0117 58.7082 78.1864 58.06 80.7158 56.7512L81.2128 56.4807V56.4797L81.079 56.2473L80.9462 56.0149C78.4433 57.4476 75.1533 58.1711 71.8534 58.1711C68.5533 58.1711 65.2717 57.4472 62.7861 56.0149C60.299 54.5817 59.1235 52.7411 59.1337 50.9563C59.1439 49.1719 60.3396 47.3311 62.8407 45.8977L62.8495 45.8948L63.3281 45.635C65.7624 44.375 68.8464 43.7385 71.9394 43.7385C75.0325 43.7385 78.1091 44.3743 80.5283 45.634L81.0029 45.8948C83.4899 47.328 84.665 49.1685 84.6552 50.9534C84.6453 52.739 83.4493 54.5811 80.9462 56.0149L81.2128 56.4797C83.8122 54.9907 85.181 53.0017 85.1923 50.9563C85.2036 48.91 83.8556 46.9196 81.2704 45.4299L80.7773 45.1594C78.2638 43.8501 75.097 43.2014 71.9394 43.2014Z" fill="#0B4D5E"/>
<path d="M74.6447 30.2522C80.6248 33.5747 90.1197 33.5448 96.0754 30.1627L86.0098 24.3126C85.6773 24.1193 85.2668 24.1188 84.9337 24.3111L74.6447 30.2522Z" fill="#8AE5CC"/>
<path d="M109.714 49.4519C109.874 49.5451 110.072 49.5428 110.233 49.45L118.174 44.8652C118.888 44.4528 118.89 43.4223 118.177 43.0078L109.326 37.8636C108.963 37.6527 108.506 37.6701 108.177 37.9318C103.806 41.4168 104.312 46.3136 109.714 49.4519Z" fill="#8AE5CC"/>
<path d="M39.1144 63.9416C38.7984 64.1105 38.4178 64.0947 38.1079 63.9146L28.993 58.6182C28.2798 58.2037 28.2812 57.1732 28.9956 56.7607L38.8062 51.0958C39.0579 50.9504 39.3679 50.9445 39.6192 51.0906C45.6118 54.5721 45.5798 60.2175 39.5513 63.699C39.4078 63.7818 39.2621 63.8627 39.1144 63.9416Z" fill="#8AE5CC"/>
<path d="M50.7124 71.2388L61.1599 77.3096C61.4924 77.5028 61.9028 77.5034 62.2358 77.3111L72.5532 71.3543C72.5075 71.3271 72.4615 71.3 72.4151 71.2731C66.4463 67.803 56.7453 67.7916 50.7124 71.2388Z" fill="#8AE5CC"/>
<path d="M61.5883 68.3936C65.5484 68.3994 69.5153 69.2767 72.5502 71.0411L72.6909 71.1241C72.7724 71.1729 72.8224 71.2615 72.8217 71.3565C72.8209 71.4515 72.7693 71.5395 72.687 71.587L62.3696 77.543C61.9534 77.7833 61.4404 77.7825 61.0249 77.5411L50.5776 71.4708C50.4946 71.4226 50.4434 71.3333 50.4438 71.2374C50.4443 71.1416 50.4963 71.0535 50.5795 71.0059C53.646 69.2538 57.6281 68.3879 61.5883 68.3936ZM61.5874 68.9298C57.8746 68.9244 54.1683 69.7023 51.2592 71.2462L61.2944 77.0772C61.5437 77.2221 61.8522 77.2224 62.102 77.0782L72.0122 71.3565C69.1127 69.7511 65.3614 68.9352 61.5874 68.9298ZM38.6723 50.8633C39.0032 50.6724 39.4159 50.6617 39.7543 50.8585L40.3081 51.1973C42.9905 52.9231 44.3741 55.136 44.3618 57.3966C44.3492 59.6563 42.9421 61.8678 40.2426 63.5928L39.686 63.9317C39.5398 64.0161 39.3909 64.0975 39.2407 64.1778C38.8379 64.393 38.3587 64.3706 37.9731 64.1466L28.8579 58.8497C27.9669 58.3314 27.969 57.0439 28.8618 56.5284L38.6723 50.8633ZM39.4848 51.3223C39.3207 51.227 39.1134 51.2287 38.9409 51.3282L29.1303 56.9932C28.5946 57.3026 28.5935 58.075 29.1284 58.3858L38.2426 63.6827C38.4766 63.8187 38.7584 63.8275 38.9877 63.7051C39.1329 63.6276 39.2765 63.5482 39.4174 63.4669L39.9555 63.1397C42.556 61.4783 43.8135 59.4118 43.8247 57.3936C43.8357 55.376 42.6014 53.3104 40.019 51.6495L39.4848 51.3223ZM108.01 37.7217C108.432 37.3859 109.009 37.3698 109.46 37.6319L118.312 42.7755C119.203 43.2936 119.201 44.5822 118.308 45.0977L110.368 49.6827C110.157 49.8045 109.9 49.8233 109.674 49.7305L109.58 49.6837C106.834 48.0884 105.283 46.0171 105.014 43.8546C104.744 41.6855 105.773 39.5052 108.01 37.7217ZM109.191 38.0958C108.916 37.936 108.579 37.9542 108.344 38.1417C106.21 39.8429 105.307 41.8534 105.547 43.7882C105.789 45.7298 107.193 47.6767 109.849 49.2198C109.924 49.2631 110.019 49.264 110.099 49.2178L118.039 44.6329C118.575 44.3236 118.576 43.5502 118.041 43.2393L109.191 38.0958ZM84.7993 24.0782C85.2156 23.8378 85.7293 23.8386 86.145 24.0801L96.2104 29.9307C96.2934 29.979 96.3447 30.0681 96.3442 30.1641C96.3436 30.26 96.2917 30.3481 96.2084 30.3956C93.1814 32.1146 89.2705 32.9752 85.3706 32.9903C81.7141 33.0044 78.0431 32.2756 75.0942 30.793L74.5141 30.4864L74.4575 30.4444C74.4069 30.3951 74.377 30.3265 74.3764 30.254C74.3758 30.1576 74.4268 30.0679 74.5102 30.0196L84.7993 24.0782ZM85.8754 24.544C85.6261 24.3991 85.3176 24.3988 85.0678 24.543L75.1987 30.2413C78.078 31.7244 81.7181 32.4673 85.3686 32.4532C89.0215 32.439 92.6577 31.6665 95.5268 30.1534L85.8754 24.544Z" fill="#0B4D5E"/>
<path d="M28.4399 57.9062L28.5597 100.914L62.8702 120.852L62.7464 77.8449L28.4399 57.9062Z" fill="#0B4D5E"/>
<path d="M63.1382 120.852C63.1385 120.948 63.0877 121.037 63.0044 121.085C62.9212 121.133 62.8189 121.132 62.7358 121.084L62.8706 120.853L63.1382 120.852ZM28.3062 57.6739C28.3893 57.6261 28.4917 57.6258 28.5747 57.6739L62.8813 77.6134L62.937 77.6563C62.9858 77.7057 63.0148 77.7726 63.0151 77.8438L63.1382 120.852H62.8696L62.7358 121.084L28.4253 101.146L28.3696 101.103C28.3205 101.053 28.2917 100.986 28.2915 100.914H28.5601V100.913L28.2915 100.914L28.1714 57.9073C28.1711 57.8112 28.2229 57.722 28.3062 57.6739ZM28.8267 100.758L62.6001 120.385L62.478 77.9991L28.7095 58.3731L28.8267 100.758Z" fill="#0B4D5E"/>
<path d="M61.6216 77.5516L61.7453 120.559L118.744 87.5466L118.62 44.5391L61.6216 77.5516Z" fill="#8AE5CC"/>
<path d="M118.486 44.3066C118.569 44.2587 118.671 44.2589 118.754 44.3066C118.817 44.3425 118.861 44.4012 118.879 44.4687L118.888 44.5381L119.012 87.5459C119.012 87.6418 118.961 87.7302 118.878 87.7783L61.8794 120.791L61.8149 120.818C61.7473 120.836 61.6742 120.828 61.6118 120.792C61.5288 120.744 61.4773 120.655 61.4771 120.56H61.7456L61.7446 120.559L61.4771 120.56L61.353 77.5527C61.3528 77.4568 61.4038 77.3675 61.4868 77.3193L118.486 44.3066ZM61.8901 77.706L62.0112 120.095L118.475 87.3916L118.353 45.0029L61.8901 77.706Z" fill="#0B4D5E"/>
<path d="M96.9819 57.4829V100.343L82.9727 108.232V65.5558L96.9819 57.4829Z" fill="#0B4D5E"/>
<path d="M96.8477 57.2505C96.9307 57.2027 97.0332 57.2026 97.1162 57.2505C97.1992 57.2985 97.25 57.3871 97.25 57.4829V100.342C97.25 100.439 97.1977 100.529 97.1133 100.577L83.1045 108.465C83.0214 108.512 82.9192 108.512 82.8369 108.463C82.7548 108.415 82.7041 108.327 82.7041 108.232V65.5562C82.7041 65.4603 82.7558 65.3717 82.8389 65.3238L96.8477 57.2505ZM83.2412 65.7105V107.773L96.7139 100.185V57.9468L83.2412 65.7105Z" fill="#0B4D5E"/>
<path d="M48.626 45.2857L82.9245 65.2204L96.7301 57.2513L62.4276 37.3167L48.626 45.2857Z" fill="#8AE5CC"/>
<path d="M62.3594 37.0569C62.4271 37.0391 62.5003 37.0482 62.5625 37.0843L96.8652 57.0198C96.9478 57.068 96.9982 57.1567 96.998 57.2522C96.9977 57.3478 96.947 57.4359 96.8643 57.4837L96.7305 57.2513H96.7295L96.8643 57.4837L83.0586 65.4524L82.9932 65.4798C82.9481 65.4917 82.9006 65.4918 82.8555 65.4798L82.79 65.4524L48.4912 45.5179C48.4085 45.4698 48.3573 45.3811 48.3574 45.2854C48.3576 45.1897 48.4093 45.1009 48.4922 45.053L62.2939 37.0843L62.3594 37.0569ZM49.1602 45.2854L82.9248 64.9104L96.1943 57.2503L62.4268 37.6263L49.1602 45.2854Z" fill="#0B4D5E"/>
<path d="M63.2493 106.348L97.5518 126.286L154.519 93.3959L120.217 73.4573L63.2493 106.348Z" fill="#F0F4FF"/>
<path d="M120.286 73.1984C120.218 73.1803 120.145 73.1888 120.083 73.2248L63.1147 106.115L63.0591 106.158C63.0099 106.208 62.9812 106.275 62.981 106.347C62.9808 106.443 63.032 106.531 63.1147 106.579L97.4175 126.519C97.4797 126.555 97.5529 126.564 97.6206 126.546L97.686 126.519L154.653 93.6281C154.736 93.5803 154.787 93.4922 154.788 93.3966C154.788 93.301 154.737 93.2123 154.654 93.1642L120.351 73.2248L120.286 73.1984ZM153.984 93.3947L97.5532 125.976L63.7856 106.348L120.216 73.7668L153.984 93.3947Z" fill="#0B4D5E"/>
<path d="M63.2495 106.345L63.2575 121.58L97.564 141.515L97.552 126.284L63.2495 106.345Z" fill="#0B4D5E"/>
<path d="M97.2847 126.438L97.2954 141.048L63.5259 121.426L63.519 106.812L97.2847 126.438ZM97.4292 141.747L97.4946 141.775C97.5623 141.793 97.6354 141.783 97.6978 141.747C97.7809 141.699 97.8326 141.611 97.8325 141.515L97.8208 126.284C97.8207 126.188 97.7694 126.1 97.687 126.052L63.3843 106.113C63.3013 106.065 63.1989 106.065 63.1157 106.113C63.0325 106.161 62.981 106.249 62.981 106.345L62.9888 121.58C62.9888 121.676 63.0399 121.765 63.1226 121.813L97.4292 141.747Z" fill="#0B4D5E"/>
<path d="M97.5521 126.297L97.5641 141.528L154.531 108.638L154.519 93.4062L97.5521 126.297Z" fill="#8AE5CC"/>
<path d="M97.418 126.064C97.3349 126.112 97.2841 126.201 97.2842 126.297L97.2959 141.528C97.296 141.624 97.3468 141.713 97.4297 141.761C97.4919 141.797 97.5652 141.805 97.6328 141.787L97.6982 141.761L154.665 108.87C154.748 108.822 154.8 108.734 154.8 108.638L154.788 93.4063C154.788 93.3105 154.736 93.2217 154.653 93.1739C154.57 93.126 154.468 93.1259 154.385 93.1739L154.52 93.4063H154.519L154.385 93.1739L97.418 126.064ZM154.263 108.482L97.832 141.064L97.8213 126.451L154.252 93.8701L154.263 108.482Z" fill="#0B4D5E"/>
<path d="M71.7657 106.055C71.0513 106.468 71.0499 107.498 71.7631 107.913L103.93 126.604C104.262 126.797 104.673 126.798 105.006 126.606L159.83 94.9524C160.544 94.54 160.546 93.5094 159.833 93.0949L127.666 74.3997C127.333 74.2065 126.923 74.2059 126.59 74.3982L71.7657 106.055Z" fill="#F0F4FF"/>
<path d="M127.801 74.1673C127.385 73.9257 126.871 73.925 126.455 74.1654L71.6317 105.823C70.7388 106.338 70.7364 107.627 71.6278 108.145L103.795 126.836C104.21 127.078 104.723 127.078 105.14 126.838L159.964 95.1849C160.857 94.6694 160.859 93.3808 159.968 92.8626L127.801 74.1673ZM126.723 74.6302C126.973 74.486 127.282 74.4862 127.531 74.6312L159.698 93.3265C160.233 93.6374 160.231 94.4107 159.695 94.72L104.872 126.373C104.622 126.518 104.314 126.517 104.064 126.372L71.8973 107.681C71.3626 107.37 71.3638 106.597 71.8993 106.287L126.723 74.6302Z" fill="#0B4D5E"/>
<path d="M71.7657 106.055C71.0513 106.468 71.0499 107.498 71.7631 107.913L103.93 126.604C104.262 126.797 104.673 126.798 105.006 126.606L159.83 94.9524C160.544 94.54 160.546 93.5094 159.833 93.0949L127.666 74.3997C127.333 74.2065 126.923 74.2059 126.59 74.3982L71.7657 106.055Z" fill="#F0F4FF"/>
<path d="M127.801 74.1673C127.385 73.9257 126.871 73.925 126.455 74.1654L71.6317 105.823C70.7388 106.338 70.7364 107.627 71.6278 108.145L103.795 126.836C104.21 127.078 104.723 127.078 105.14 126.838L159.964 95.1849C160.857 94.6694 160.859 93.3808 159.968 92.8626L127.801 74.1673ZM126.723 74.6302C126.973 74.486 127.282 74.4862 127.531 74.6312L159.698 93.3265C160.233 93.6374 160.231 94.4107 159.695 94.72L104.872 126.373C104.622 126.518 104.314 126.517 104.064 126.372L71.8973 107.681C71.3626 107.37 71.3638 106.597 71.8993 106.287L126.723 74.6302Z" fill="#0B4D5E"/>
<path d="M106.512 93.8977C101.406 96.8206 101.379 101.56 106.451 104.483C111.523 107.406 119.772 107.406 124.878 104.483C129.981 101.56 130.008 96.8206 124.936 93.8977C119.867 90.9749 111.618 90.9749 106.515 93.8977H106.512Z" fill="#8AE5CC"/>
<path d="M115.738 91.437C112.374 91.437 108.992 92.1732 106.392 93.6597L106.379 93.6646L105.905 93.9497C103.611 95.4027 102.407 97.2713 102.396 99.189C102.385 101.235 103.732 103.226 106.317 104.715C108.904 106.206 112.283 106.944 115.652 106.944C118.811 106.944 121.985 106.296 124.515 104.987L125.012 104.716V104.715L124.878 104.483L124.745 104.25C122.242 105.683 118.952 106.407 115.652 106.407C112.352 106.407 109.071 105.683 106.585 104.25C104.098 102.817 102.922 100.977 102.933 99.1919C102.943 97.4075 104.138 95.5667 106.64 94.1333L106.648 94.1304L107.127 93.8706C109.561 92.6106 112.645 91.9741 115.738 91.9741C118.831 91.9741 121.908 92.6099 124.327 93.8696L124.802 94.1304C127.289 95.5636 128.464 97.4041 128.454 99.189C128.444 100.975 127.248 102.817 124.745 104.25L125.012 104.715C127.611 103.226 128.98 101.237 128.991 99.1919C129.002 97.1456 127.654 95.1552 125.069 93.6655L124.576 93.395C122.063 92.0857 118.896 91.437 115.738 91.437Z" fill="#0B4D5E"/>
<path d="M116.3 80.3391C122.28 83.6616 131.775 83.6317 137.731 80.2496L127.665 74.3995C127.333 74.2062 126.922 74.2057 126.589 74.398L116.3 80.3391Z" fill="#8AE5CC"/>
<path d="M151.63 99.6864L159.83 94.9522C160.544 94.5397 160.545 93.5092 159.832 93.0947L150.385 87.6043C145.428 91.106 145.75 96.2739 151.37 99.5389C151.456 99.5888 151.542 99.6379 151.63 99.6864Z" fill="#8AE5CC"/>
<path d="M81.884 113.234C81.5679 113.403 81.1873 113.387 80.8775 113.207L71.7626 107.911C71.0494 107.496 71.0508 106.466 71.7651 106.053L81.5757 100.388C81.8274 100.243 82.1375 100.237 82.3888 100.383C88.3813 103.865 88.3494 109.51 82.3209 112.992C82.1773 113.074 82.0316 113.155 81.884 113.234Z" fill="#8AE5CC"/>
<path d="M93.4819 120.531L103.929 126.602C104.262 126.795 104.672 126.796 105.005 126.604L115.323 120.647C115.277 120.62 115.231 120.593 115.185 120.566C109.216 117.096 99.5149 117.084 93.4819 120.531Z" fill="#8AE5CC"/>
<path d="M104.358 117.687C108.318 117.692 112.284 118.569 115.319 120.333H115.32C115.367 120.361 115.414 120.388 115.46 120.416C115.542 120.465 115.592 120.553 115.591 120.649C115.591 120.744 115.539 120.831 115.457 120.879L105.139 126.836C104.723 127.076 104.21 127.076 103.794 126.834L93.3472 120.764C93.2643 120.716 93.2131 120.626 93.2134 120.53C93.2138 120.434 93.2659 120.346 93.3492 120.298C96.4156 118.546 100.398 117.681 104.358 117.687ZM104.357 118.223C100.645 118.217 96.9388 118.995 94.0298 120.538L104.064 126.37C104.313 126.515 104.622 126.515 104.872 126.371L114.781 120.649C111.881 119.044 108.131 118.228 104.357 118.223ZM81.4419 100.156C81.7728 99.9653 82.1855 99.9548 82.524 100.152L83.0777 100.489C85.7602 102.215 87.1437 104.428 87.1314 106.689C87.119 108.949 85.712 111.161 83.0122 112.886L82.4556 113.224C82.3095 113.308 82.1605 113.391 82.0103 113.471C81.6076 113.686 81.1282 113.664 80.7427 113.44L71.6275 108.143C70.7363 107.625 70.7386 106.336 71.6314 105.82L81.4419 100.156ZM82.2544 100.615C82.0904 100.52 81.8829 100.521 81.7105 100.62L71.8999 106.285C71.3642 106.595 71.3631 107.368 71.898 107.679L81.0122 112.975C81.2463 113.111 81.528 113.12 81.7574 112.997C81.9025 112.92 82.0461 112.84 82.187 112.759L82.7251 112.433C85.3259 110.771 86.5832 108.704 86.5943 106.686C86.6052 104.668 85.3711 102.602 82.7886 100.942L82.2544 100.615ZM150.299 87.3498C150.371 87.3253 150.452 87.3328 150.52 87.3722L159.967 92.8624C160.859 93.3805 160.857 94.6691 159.964 95.1847L151.764 99.9191L151.629 99.6857V99.6867L151.764 99.9191C151.703 99.9545 151.631 99.9634 151.564 99.9464L151.5 99.921L151.235 99.7707C148.379 98.1112 146.816 95.9362 146.644 93.6808C146.472 91.4208 147.702 89.1717 150.231 87.3849L150.299 87.3498ZM150.403 87.9249C148.073 89.6206 147.028 91.6631 147.179 93.6398C147.333 95.6599 148.741 97.7014 151.504 99.3068C151.545 99.3306 151.587 99.3536 151.628 99.3771L159.696 94.7199C160.231 94.4105 160.233 93.6372 159.698 93.3263L150.403 87.9249ZM126.456 74.1652C126.872 73.925 127.385 73.9258 127.8 74.1671L137.866 80.0177C137.949 80.066 138 80.1551 138 80.2511C137.999 80.3471 137.947 80.4351 137.864 80.4826L137.286 80.7951C134.348 82.3059 130.682 83.0632 127.026 83.0773C123.126 83.0923 119.21 82.2619 116.17 80.5734C116.086 80.5264 116.033 80.4376 116.032 80.341C116.031 80.2445 116.083 80.1549 116.167 80.1066L126.456 74.1652ZM127.531 74.631C127.282 74.4863 126.974 74.4861 126.724 74.63L116.855 80.3283C119.734 81.8113 123.374 82.5543 127.024 82.5402C130.677 82.5261 134.313 81.7534 137.182 80.2404L127.531 74.631Z" fill="#0B4D5E"/>
<path d="M71.9084 107.994L70.1597 109.112L98.0624 125.553L99.9668 124.455L71.9084 107.994Z" fill="#0B4D5E"/>
<path d="M71.9756 107.734C71.9045 107.716 71.8274 107.727 71.7637 107.767L70.0156 108.886C69.937 108.936 69.8899 109.024 69.8916 109.117C69.8934 109.21 69.9433 109.295 70.0234 109.343L97.9258 125.784L98.0625 125.553V125.554L97.9258 125.784C98.009 125.833 98.1126 125.834 98.1963 125.786L100.101 124.687C100.183 124.64 100.235 124.551 100.235 124.456C100.236 124.36 100.185 124.272 100.103 124.223L72.0439 107.763L71.9756 107.734ZM99.4336 124.453L98.0645 125.243L70.6728 109.102L71.915 108.308L99.4336 124.453Z" fill="#0B4D5E"/>
</svg>
