<svg width="178" height="172" viewBox="0 0 178 172" fill="none" xmlns="http://www.w3.org/2000/svg">
<path d="M41.6684 49.0424C40.1245 49.0424 38.7025 48.0402 38.2285 46.5099C38.066 45.9952 37.944 45.4535 37.8357 44.9118C36.9419 40.402 37.9169 35.7162 40.4765 32.0596C41.6005 30.448 43.8353 30.0553 45.4469 31.1793C47.0721 32.3034 47.4647 34.5109 46.3407 36.136C44.878 38.2216 44.3362 40.9167 44.8508 43.544C44.9185 43.869 44.9865 44.1805 45.0948 44.492C45.6636 46.3744 44.5802 48.3652 42.6841 48.9069C42.3456 49.0017 42.007 49.0559 41.6684 49.0559V49.0424Z" fill="#588995"/>
<path d="M54.3983 145.417L50.6198 151.593L12.0768 52.6484L15.8554 46.4729L54.3983 145.417Z" fill="#588995"/>
<path d="M50.6196 152.268C50.6196 152.268 50.5789 152.268 50.5654 152.268C50.3081 152.241 50.0915 152.078 49.9967 151.834L11.4537 52.8902C11.3725 52.6871 11.3996 52.4704 11.508 52.2943L15.2865 46.1188C15.4219 45.9021 15.6521 45.7667 15.9229 45.7937C16.1803 45.8208 16.3968 45.9833 16.4916 46.2271L55.0346 145.171C55.1159 145.374 55.0887 145.591 54.9804 145.767L51.2022 151.943C51.0803 152.146 50.8634 152.268 50.6196 152.268ZM12.8351 52.7142L50.7552 150.074L53.6396 145.361L15.7196 48.0012L12.8351 52.7277V52.7142Z" fill="#588995"/>
<path d="M77.1773 43.4878C75.647 43.4878 74.2249 42.4856 73.7509 40.9552C73.5884 40.4406 73.4665 39.8989 73.3581 39.3572C72.4643 34.8474 73.4258 30.1616 75.9989 26.505C77.123 24.8934 79.3578 24.5007 80.9694 25.6247C82.5945 26.7488 82.9871 28.9563 81.8631 30.5814C80.4005 32.667 79.8586 35.362 80.3732 37.9894C80.441 38.3144 80.5089 38.6259 80.6172 38.9374C81.186 40.8198 80.1026 42.8106 78.2066 43.3523C77.868 43.4471 77.5294 43.5013 77.1773 43.5013V43.4878Z" fill="#588995"/>
<path d="M112.267 32.9774L150.824 131.935L54.5615 145.383L16.005 46.439L112.267 32.9774Z" fill="#C4DAE6"/>
<path d="M54.5609 146.074C54.2901 146.074 54.0328 145.911 53.9244 145.64L15.3676 46.6962C15.2863 46.5066 15.3135 46.29 15.4083 46.1139C15.5031 45.9378 15.6928 45.816 15.896 45.7889L112.159 32.3273C112.484 32.2866 112.768 32.4627 112.89 32.7471L151.447 131.705C151.528 131.894 151.501 132.111 151.406 132.287C151.311 132.463 151.121 132.585 150.918 132.612L54.6555 146.06C54.6555 146.06 54.588 146.06 54.5609 146.06V146.074ZM16.9523 46.9942L55.0076 144.652L149.889 131.393L111.834 33.7222L16.9523 46.9942Z" fill="#588995"/>
<path d="M112.267 32.9774L150.824 131.935L54.5615 145.383L16.005 46.439L112.267 32.9774Z" fill="#ECF8FF"/>
<path d="M54.5609 146.074C54.2901 146.074 54.0328 145.911 53.9244 145.64L15.3676 46.6962C15.2863 46.5066 15.3135 46.29 15.4083 46.1139C15.5031 45.9378 15.6928 45.816 15.896 45.7889L112.159 32.3273C112.484 32.2866 112.768 32.4627 112.89 32.7471L151.447 131.705C151.528 131.894 151.501 132.111 151.406 132.287C151.311 132.463 151.121 132.585 150.918 132.612L54.6555 146.06C54.6555 146.06 54.588 146.06 54.5609 146.06V146.074ZM16.9523 46.9942L55.0076 144.652L149.889 131.393L111.834 33.7222L16.9523 46.9942Z" fill="#588995"/>
<path d="M104.007 44.8168L134.438 122.946L58.4486 133.563L28.0178 55.448L104.007 44.8168Z" fill="#ECF8FF"/>
<path d="M58.4477 134.241C58.1768 134.241 57.9195 134.079 57.8112 133.808L27.3804 55.6928C27.2991 55.5032 27.3263 55.2865 27.4211 55.1105C27.5159 54.9344 27.7053 54.8125 27.9084 54.7854L103.898 44.1543C104.223 44.1001 104.507 44.2897 104.629 44.5741L135.06 122.703C135.141 122.893 135.114 123.109 135.019 123.285C134.924 123.461 134.735 123.583 134.531 123.61L58.5426 134.228C58.5426 134.228 58.4747 134.228 58.4477 134.228V134.241ZM28.9648 56.0043L58.8947 132.819L133.502 122.391L103.573 45.5627L28.9648 56.0043Z" fill="#588995"/>
<path d="M105.456 41.7854L135.887 119.914L59.9115 130.532L29.4807 52.4165L105.456 41.7854Z" fill="#ECF8FF"/>
<path d="M59.9106 131.194C59.6397 131.194 59.3824 131.032 59.2741 130.761L28.8433 52.6455C28.7621 52.4559 28.7892 52.2392 28.884 52.0631C28.9788 51.8871 29.1682 51.7652 29.3713 51.7381L105.347 41.1069C105.658 41.0528 105.956 41.2424 106.078 41.5268L136.509 119.656C136.59 119.845 136.563 120.062 136.468 120.238C136.374 120.414 136.184 120.536 135.981 120.563L60.0055 131.181C60.0055 131.181 59.9377 131.181 59.9106 131.181V131.194ZM30.4277 52.957L60.3576 129.772L134.951 119.344L105.022 42.5154L30.4277 52.957Z" fill="#588995"/>
<path d="M150.822 131.946L147.031 138.122L50.7814 151.583L54.5599 145.394L150.822 131.946Z" fill="#C4DAE6"/>
<path d="M50.748 152.176C50.5178 152.176 50.3012 152.068 50.1793 151.865C50.0303 151.648 50.0303 151.364 50.1793 151.133L53.9575 144.944C54.0658 144.768 54.242 144.66 54.4452 144.633L150.708 131.185C150.979 131.144 151.223 131.266 151.372 131.483C151.521 131.699 151.521 131.984 151.372 132.214L147.579 138.39C147.471 138.566 147.295 138.674 147.092 138.701L50.8429 152.163C50.8429 152.163 50.7751 152.163 50.748 152.163V152.176ZM54.9325 145.933L52.0616 150.619L146.577 137.401L149.448 132.729L54.9325 145.933Z" fill="#588995"/>
<path d="M30.8067 49.8667L106.782 39.2356C106.782 39.2356 126.677 93.2716 161.143 104.729L81.809 115.82C47.356 104.336 30.8067 49.8532 30.8067 49.8532V49.8667Z" fill="#F7CC69"/>
<path d="M81.8089 116.51C81.7412 116.51 81.6601 116.51 81.5924 116.469C47.207 105.012 30.3191 50.6103 30.1566 50.055C30.1024 49.8654 30.1296 49.6623 30.2379 49.4997C30.3463 49.3372 30.5221 49.2153 30.7117 49.1883L106.687 38.5571C106.999 38.5029 107.31 38.6925 107.419 38.9905C107.622 39.5322 127.597 92.8505 161.36 104.077C161.658 104.172 161.847 104.47 161.82 104.782C161.793 105.093 161.55 105.351 161.238 105.391L81.9038 116.483C81.9038 116.483 81.836 116.483 81.8089 116.483V116.51ZM31.7003 50.4342C33.8672 57.0296 50.4437 104.551 81.8767 115.142L158.38 104.443C127.327 91.9837 108.448 45.4098 106.349 39.9926L31.7003 50.4342Z" fill="#588995"/>
<path d="M91.1395 52.5102C89.4602 52.5102 87.9704 51.3455 87.6318 49.6391C87.2526 47.716 88.5122 45.8471 90.4488 45.4679C95.0263 44.5876 97.9381 39.7663 96.9359 34.7555C95.9473 29.7446 91.4237 26.386 86.8598 27.2798C84.8554 27.6726 83.0814 28.8508 81.8625 30.5978C80.7385 32.2094 78.504 32.6022 76.8788 31.4781C75.2672 30.3541 74.8608 28.1466 75.9984 26.5214C78.2871 23.2576 81.6457 21.0501 85.4784 20.3052C93.9156 18.653 102.204 24.5306 103.951 33.4012C105.712 42.2718 100.254 50.8173 91.8302 52.4696C91.5864 52.5237 91.3562 52.5373 91.1395 52.5373V52.5102Z" fill="#588995"/>
<path d="M55.6171 58.0333C53.9378 58.0333 52.448 56.8686 52.1094 55.1622C51.7302 53.2391 52.9898 51.3702 54.94 50.991C59.5039 50.1107 62.4154 45.2894 61.4267 40.2786C60.4381 35.2677 55.9013 31.9091 51.3374 32.8029C49.333 33.1956 47.5725 34.3739 46.3401 36.1209C45.2161 37.7325 42.9816 38.1252 41.37 37.0012C39.7449 35.8771 39.3519 33.6696 40.476 32.0445C42.7647 28.7807 46.1369 26.5732 49.956 25.8283C58.4067 24.1761 66.6816 30.0537 68.4286 38.9243C70.1892 47.7949 64.745 56.3404 56.3078 57.9926C56.0776 58.0468 55.8338 58.0604 55.6171 58.0604V58.0333Z" fill="#588995"/>
<path fill-rule="evenodd" clip-rule="evenodd" d="M76.2351 61.0079C78.1272 60.1021 80.4048 60.8823 81.3222 62.7506L89.4968 79.3976L110.744 78.3742C112.844 78.2731 114.63 79.8722 114.733 81.946C114.835 84.0198 113.215 85.783 111.115 85.8841L88.1194 86.9917C86.131 87.0875 84.2769 86.0017 83.4084 84.2331L74.4701 66.0308C73.5527 64.1626 74.3429 61.9137 76.2351 61.0079Z" fill="#ECF8FF"/>
<path fill-rule="evenodd" clip-rule="evenodd" d="M75.9979 60.5124C78.1581 59.4783 80.7634 60.3661 81.8153 62.5084L89.8309 78.8315L110.718 77.8255C113.114 77.7101 115.163 79.5358 115.281 81.9189C115.399 84.3025 113.539 86.3173 111.141 86.4328L88.1459 87.5404C85.9416 87.6465 83.8817 86.4431 82.9154 84.4752L73.9771 66.2729C72.9232 64.1267 73.8339 61.5484 75.9979 60.5124ZM80.8292 62.9927C80.0463 61.3984 78.0964 60.7259 76.4723 61.5034C74.8519 62.279 74.1823 64.1984 74.9632 65.7887L83.9015 83.991C84.6721 85.5603 86.3205 86.5284 88.093 86.443L111.089 85.3354C112.892 85.2486 114.271 83.7371 114.184 81.9731C114.097 80.2085 112.575 78.836 110.77 78.9229L89.1628 79.9636L80.8292 62.9927Z" fill="#588995"/>
</svg>
