<svg width="411" height="300" viewBox="0 0 411 300" fill="none" xmlns="http://www.w3.org/2000/svg">
<path d="M235.416 83.1978L235.616 83.1987L235.517 115.92L235.217 115.747L207.63 99.7114L235.314 83.0269L235.416 83.1978ZM208.415 99.7056L235.118 115.226L235.215 83.5513L208.415 99.7056ZM235.616 83.1987L235.416 83.1978L235.314 83.0269L235.618 82.8433L235.616 83.1987Z" fill="#588995"/>
<path d="M284.585 170.496L248.621 66.1994C247.856 63.9818 245.655 62.7516 243.492 63.0421L243.506 63.0318L225.631 64.5387C223.899 64.6959 222.218 65.2221 220.704 66.0798L149.678 106.383L151.086 105.976H163.728C166.285 105.976 168.561 107.597 169.398 110.013L205.532 214.37C206.51 217.203 209.831 218.436 212.421 216.929L282.487 176.158C284.452 175.017 285.33 172.645 284.592 170.496H284.585Z" fill="#ECF8FF"/>
<path d="M244.147 62.8008C246.166 62.8109 248.092 64.0553 248.81 66.1338L284.727 170.296H284.735L284.781 170.431L284.848 170.642C285.491 172.823 284.571 175.179 282.587 176.331L212.522 217.103C209.907 218.624 206.577 217.465 205.446 214.707L205.343 214.436L169.209 110.079C168.4 107.743 166.2 106.177 163.728 106.177H151.114L149.734 106.575L149.579 106.209L220.606 65.9062L220.896 65.7461C222.358 64.9685 223.963 64.4896 225.614 64.3398L244.183 62.7744L244.147 62.8008ZM248.432 66.2646C247.699 64.1413 245.592 62.9619 243.519 63.2402L242.758 63.3428L242.828 63.2891L225.649 64.7373L225.65 64.7383C224.052 64.8832 222.498 65.3469 221.083 66.0996L220.803 66.2539L151.152 105.776H163.728C166.37 105.776 168.723 107.451 169.587 109.948L205.722 214.305L205.816 214.555C206.856 217.09 209.917 218.155 212.321 216.757L282.386 175.985C284.227 174.916 285.071 172.719 284.446 170.696H284.443L284.396 170.562L248.432 66.2646Z" fill="#588995"/>
<path d="M176.484 106.576L240.888 69.5431C243.468 68.0602 246.766 69.2937 247.736 72.1093L280.796 167.98C281.534 170.122 280.655 172.483 278.698 173.624L214.451 211.01C211.868 212.513 208.56 211.283 207.583 208.457L174.366 112.235C173.624 110.086 174.513 107.711 176.484 106.576Z" fill="#C4DAE6"/>
<path d="M241.043 69.2329C243.69 67.9059 246.946 69.2017 247.925 72.0444L280.985 167.915L281.051 168.125C281.674 170.23 280.833 172.494 278.986 173.682L278.799 173.797L214.551 211.182C211.943 212.7 208.626 211.545 207.496 208.793L207.393 208.522L174.176 112.3C173.404 110.06 174.33 107.585 176.384 106.403L240.789 69.3696L241.043 69.2329ZM247.547 72.1743C246.646 69.5619 243.654 68.3716 241.221 69.5913L240.988 69.7163L176.585 106.75C174.696 107.836 173.845 110.111 174.555 112.169L207.772 208.392L207.866 208.641C208.905 211.17 211.953 212.231 214.35 210.836L278.597 173.452L278.769 173.345C280.466 172.253 281.241 170.173 280.669 168.238L280.606 168.044L247.547 72.1743Z" fill="#588995"/>
<path d="M180.096 114.246C180.793 114.178 181.293 113.462 181.213 112.646C181.133 111.831 180.503 111.226 179.806 111.295C179.109 111.363 178.609 112.079 178.689 112.894C178.769 113.709 179.399 114.315 180.096 114.246Z" fill="#588995"/>
<path d="M181.013 112.666C180.941 111.931 180.384 111.439 179.825 111.494C179.267 111.549 178.816 112.14 178.889 112.875C178.961 113.61 179.518 114.102 180.076 114.047C180.635 113.992 181.085 113.402 181.013 112.666ZM181.412 112.627C181.499 113.522 180.95 114.363 180.115 114.445C179.281 114.527 178.578 113.809 178.49 112.914C178.402 112.02 178.952 111.177 179.786 111.095C180.621 111.013 181.324 111.733 181.412 112.627Z" fill="#588995"/>
<path d="M184.324 111.811C185.021 111.742 185.52 111.026 185.44 110.211C185.36 109.396 184.731 108.791 184.034 108.859C183.337 108.927 182.837 109.644 182.917 110.459C182.997 111.274 183.627 111.879 184.324 111.811Z" fill="#588995"/>
<path d="M185.241 110.231C185.169 109.495 184.612 109.003 184.053 109.058C183.495 109.113 183.044 109.704 183.116 110.44C183.189 111.175 183.745 111.666 184.304 111.611C184.863 111.556 185.313 110.966 185.241 110.231ZM185.639 110.192C185.727 111.086 185.178 111.928 184.343 112.01C183.508 112.092 182.806 111.373 182.718 110.479C182.63 109.584 183.179 108.742 184.014 108.66C184.849 108.578 185.552 109.297 185.639 110.192Z" fill="#588995"/>
<path d="M188.5 109.422C189.197 109.354 189.697 108.637 189.617 107.822C189.537 107.007 188.907 106.402 188.211 106.47C187.514 106.539 187.014 107.255 187.094 108.07C187.174 108.885 187.804 109.49 188.5 109.422Z" fill="#588995"/>
<path d="M189.418 107.842C189.345 107.107 188.789 106.615 188.23 106.67C187.671 106.724 187.221 107.315 187.293 108.051C187.366 108.786 187.922 109.277 188.481 109.223C189.039 109.168 189.49 108.578 189.418 107.842ZM189.816 107.803C189.904 108.698 189.355 109.539 188.52 109.621C187.685 109.703 186.983 108.984 186.895 108.09C186.807 107.196 187.356 106.353 188.191 106.271C189.026 106.189 189.728 106.909 189.816 107.803Z" fill="#588995"/>
<path d="M207.768 90.261L217.588 205.133L238.456 192.969L229.619 77.6079L207.768 90.261Z" fill="#ECF8FF"/>
<path d="M234.417 74.8238L244.965 189.238L249.646 186.525L240.072 71.5435L234.417 74.8238Z" fill="#ECF8FF"/>
<path d="M232.188 143.197C230.832 143.976 229.513 144.734 228.163 145.51C226.031 139.356 223.909 133.233 221.773 127.069C223.095 126.307 224.421 125.545 225.791 124.755C227.913 130.875 230.042 137.009 232.192 143.197H232.188Z" fill="#F35F5F"/>
<path d="M225.98 124.69C228.102 130.81 230.231 136.943 232.381 143.131L232.472 143.397H232.242C230.902 144.167 229.597 144.916 228.262 145.683L228.053 145.804L221.584 127.134L221.53 126.978L221.673 126.895C222.995 126.133 224.323 125.371 225.692 124.583L225.901 124.461L225.98 124.69ZM222.016 127.159C224.107 133.194 226.185 139.19 228.272 145.215C229.502 144.508 230.71 143.814 231.947 143.103C229.843 137.046 227.759 131.04 225.681 125.048C224.434 125.767 223.224 126.463 222.016 127.159Z" fill="#588995"/>
<path d="M231.364 154.794C230.831 153.26 230.315 151.77 229.788 150.246C231.138 149.471 232.467 148.709 233.838 147.923C234.357 149.419 234.88 150.923 235.416 152.471C234.087 153.233 232.744 154.005 231.367 154.794H231.364Z" fill="#F35F5F"/>
<path d="M234.027 147.857C234.546 149.354 235.068 150.857 235.605 152.405L235.415 152.47L235.416 152.471L235.605 152.405L235.66 152.562L235.516 152.645C234.189 153.405 232.841 154.18 231.466 154.968L231.42 154.994H231.221L231.175 154.86L229.599 150.312L229.545 150.155L229.689 150.073C231.039 149.298 232.368 148.535 233.738 147.749L233.948 147.629L234.027 147.857ZM230.032 150.337C230.513 151.731 230.986 153.1 231.473 154.502C232.73 153.781 233.955 153.077 235.172 152.379C234.682 150.965 234.204 149.587 233.728 148.216C232.48 148.932 231.263 149.629 230.032 150.337Z" fill="#588995"/>
<path d="M247.131 129.103C248.546 128.289 249.879 127.524 251.273 126.721C252.356 129.83 253.426 132.889 254.512 136.005C255.906 135.205 257.242 134.436 258.609 133.654C260.232 138.301 261.838 142.897 263.461 147.544C245.573 157.798 227.723 168.032 209.869 178.269C208.283 173.663 206.695 169.054 205.092 164.393C206.435 163.621 207.767 162.859 209.155 162.063C208.082 158.95 207.026 155.892 205.956 152.782C207.344 151.986 208.673 151.221 210.064 150.421C208.991 147.315 207.938 144.264 206.869 141.161C208.26 140.362 209.585 139.596 210.976 138.797C209.903 135.694 208.851 132.646 207.778 129.54C209.165 128.74 210.491 127.978 211.885 127.175C211.345 125.614 210.822 124.107 210.282 122.542C211.677 121.739 213.002 120.974 214.396 120.171C213.324 117.068 212.268 114.023 211.205 110.958C215.333 108.577 219.396 106.233 223.527 103.851C224.589 106.913 225.649 109.954 226.725 113.056C228.119 112.253 229.452 111.485 230.829 110.692C231.369 112.243 231.888 113.74 232.435 115.312C233.826 114.512 235.168 113.736 236.552 112.94C237.636 116.05 238.691 119.087 239.775 122.197C241.162 121.397 242.508 120.625 243.896 119.825C244.979 122.935 246.038 125.976 247.131 129.106V129.103ZM213.46 131.778C214.54 134.894 215.589 137.935 216.665 141.045C215.278 141.844 213.935 142.613 212.551 143.409C213.628 146.522 214.68 149.567 215.753 152.683C214.366 153.479 213.023 154.252 211.625 155.055C212.705 158.184 213.761 161.246 214.837 164.362C213.447 165.162 212.114 165.924 210.781 166.689C211.325 168.261 211.847 169.778 212.37 171.295C227.487 162.623 242.59 153.961 257.724 145.279C257.181 143.724 256.655 142.21 256.105 140.638C254.731 141.428 253.395 142.193 251.997 142.996C250.911 139.876 249.841 136.815 248.758 133.702C247.364 134.501 246.028 135.27 244.634 136.073C243.55 132.964 242.484 129.906 241.405 126.796C240.01 127.599 238.678 128.364 237.28 129.167C236.2 126.061 235.138 123.007 234.058 119.901C232.664 120.704 231.331 121.469 229.934 122.275C229.39 120.71 228.868 119.204 228.324 117.642C226.927 118.448 225.597 119.214 224.217 120.01C223.144 116.918 222.652 113.887 221.589 110.818C220.195 111.621 218.292 112.394 216.881 113.21C217.947 116.285 219.003 119.33 220.076 122.433C218.678 123.239 217.349 124.001 215.955 124.807C216.498 126.372 217.017 127.879 217.554 129.424C216.17 130.22 214.851 130.978 213.457 131.781L213.46 131.778Z" fill="#F35F5F"/>
<path d="M223.716 103.786C224.752 106.771 225.785 109.739 226.834 112.762C228.153 112.003 229.421 111.271 230.729 110.518L230.939 110.398L231.018 110.626C231.531 112.102 232.027 113.529 232.544 115.017C233.861 114.26 235.137 113.524 236.452 112.767L236.662 112.647L236.741 112.875C237.283 114.429 237.818 115.966 238.353 117.502C238.861 118.964 239.369 120.426 239.883 121.903C240.505 121.544 241.121 121.191 241.736 120.837C242.419 120.444 243.103 120.052 243.796 119.652L244.005 119.532L247.239 128.809C248.577 128.04 249.847 127.311 251.173 126.547L251.382 126.427L251.462 126.655L254.621 135.71C255.94 134.954 257.212 134.223 258.51 133.48L258.609 133.654L258.798 133.588C259.609 135.912 260.417 138.222 261.224 140.533C262.031 142.843 262.839 145.154 263.651 147.478L263.705 147.635L263.561 147.717L209.968 178.443L209.759 178.563L209.68 178.334L204.849 164.302L204.992 164.22C206.289 163.475 207.576 162.737 208.911 161.971L205.714 152.691L205.857 152.609C207.196 151.84 208.481 151.099 209.819 150.33C208.765 147.278 207.731 144.276 206.68 141.226L206.626 141.07L206.769 140.988C207.464 140.588 208.143 140.196 208.822 139.805C209.455 139.441 210.087 139.077 210.733 138.706C209.678 135.657 208.644 132.659 207.589 129.605L207.534 129.449L207.678 129.367C209.017 128.595 210.299 127.857 211.641 127.084C211.12 125.579 210.615 124.12 210.093 122.607L210.039 122.451L210.183 122.369C210.88 121.967 211.56 121.575 212.239 121.183C212.873 120.818 213.506 120.452 214.152 120.08L211.016 111.024L210.962 110.868L211.105 110.786L223.427 103.678L223.636 103.557L223.716 103.786ZM211.447 111.048C212.492 114.061 213.53 117.055 214.585 120.105L214.396 120.169L214.496 120.344C213.799 120.746 213.12 121.138 212.44 121.53C211.806 121.895 211.173 122.26 210.526 122.632C211.046 124.142 211.552 125.6 212.074 127.11L212.128 127.266L211.985 127.349C210.638 128.125 209.356 128.861 208.021 129.63L211.165 138.731L211.219 138.887L211.075 138.97C210.38 139.37 209.701 139.761 209.023 140.152C208.39 140.516 207.757 140.88 207.111 141.251C208.163 144.301 209.198 147.302 210.253 150.356L210.307 150.512L210.163 150.594L206.198 152.873L209.398 162.154L209.254 162.236L205.335 164.484C206.893 169.014 208.437 173.497 209.979 177.976C227.715 167.806 245.447 157.639 263.217 147.453C262.424 145.182 261.636 142.923 260.847 140.665C260.066 138.429 259.284 136.194 258.499 133.947C257.205 134.688 255.935 135.419 254.611 136.178L254.402 136.298L254.323 136.071L251.163 127.013C249.844 127.773 248.574 128.503 247.231 129.276L247.151 129.136L246.943 129.172L243.785 120.119C243.163 120.477 242.549 120.831 241.935 121.184C241.251 121.577 240.568 121.971 239.874 122.371L239.665 122.491L239.586 122.262C239.045 120.708 238.509 119.171 237.975 117.634C237.466 116.173 236.957 114.711 236.443 113.234C235.133 113.988 233.854 114.726 232.534 115.485L232.435 115.311L232.246 115.377C231.726 113.882 231.231 112.456 230.719 110.985C229.416 111.735 228.149 112.468 226.825 113.23L226.615 113.35L226.536 113.122L223.417 104.144C219.406 106.457 215.456 108.735 211.447 111.048ZM221.778 110.752C222.313 112.296 222.703 113.829 223.093 115.356C223.464 116.808 223.834 118.255 224.327 119.714C225.633 118.962 226.898 118.234 228.224 117.469L228.434 117.348L228.513 117.577C229.03 119.062 229.527 120.498 230.042 121.981C231.364 121.218 232.634 120.49 233.958 119.727L234.167 119.607L234.247 119.834L235.858 124.468C236.367 125.933 236.876 127.398 237.389 128.874C238.711 128.114 239.98 127.385 241.305 126.623L241.514 126.502L241.594 126.731C242.647 129.764 243.687 132.748 244.742 135.779C246.061 135.019 247.334 134.288 248.658 133.529L248.867 133.409L248.946 133.636C250.003 136.673 251.046 139.661 252.106 142.703C253.43 141.942 254.698 141.217 256.005 140.465L256.214 140.345L256.293 140.572C256.843 142.143 257.37 143.658 257.913 145.212L257.968 145.37L257.823 145.452L212.47 171.469L212.26 171.589L212.181 171.361L210.592 166.754L210.538 166.598L210.682 166.516C211.969 165.777 213.254 165.04 214.594 164.27C213.536 161.208 212.498 158.197 211.437 155.12L211.382 154.963L211.526 154.881C212.875 154.106 214.172 153.358 215.509 152.591C214.455 149.53 213.421 146.535 212.362 143.475L212.308 143.319L212.451 143.236C213.788 142.467 215.085 141.724 216.422 140.954C215.365 137.898 214.333 134.907 213.272 131.843L213.429 131.789L213.316 131.64L213.319 131.636L213.545 131.411L213.57 131.484C214.838 130.754 216.049 130.058 217.31 129.333C216.793 127.844 216.29 126.382 215.766 124.873L215.711 124.717L215.855 124.634C217.201 123.856 218.488 123.117 219.832 122.341L216.692 113.276L216.638 113.12L216.78 113.037L217.337 112.73C217.912 112.425 218.537 112.125 219.155 111.829C219.984 111.432 220.8 111.042 221.489 110.645L221.699 110.524L221.778 110.752ZM221.476 111.108C220.819 111.473 220.071 111.834 219.327 112.19C218.555 112.559 217.79 112.928 217.124 113.303L220.319 122.523L220.176 122.606L216.197 124.898L217.742 129.358L217.797 129.514L217.653 129.597C216.318 130.365 215.043 131.098 213.703 131.87L216.855 140.979L216.908 141.135L216.765 141.218C215.426 141.99 214.127 142.733 212.794 143.5C213.852 146.558 214.887 149.553 215.943 152.618L215.996 152.774L215.853 152.857C214.513 153.626 213.214 154.372 211.868 155.145C212.929 158.221 213.968 161.233 215.027 164.297L215.08 164.454L214.937 164.536L211.024 166.78C211.52 168.217 212.001 169.61 212.481 171C227.479 162.396 242.464 153.802 257.48 145.187C256.982 143.762 256.498 142.369 255.995 140.931C254.696 141.677 253.421 142.409 252.097 143.169L251.888 143.29L248.649 133.995C247.33 134.751 246.058 135.484 244.734 136.247L244.525 136.367L244.444 136.139L241.295 127.089C239.976 127.849 238.708 128.579 237.38 129.341L237.17 129.461L237.091 129.233L237.28 129.167L237.279 129.167L237.091 129.233C236.551 127.68 236.016 126.14 235.481 124.6C234.971 123.135 234.462 121.67 233.948 120.194C232.629 120.953 231.361 121.683 230.033 122.449L229.933 122.275L229.744 122.341C229.227 120.852 228.729 119.416 228.214 117.935C226.893 118.697 225.628 119.427 224.317 120.183L224.108 120.304L224.028 120.076C223.489 118.52 223.095 116.981 222.705 115.455C222.334 114 221.965 112.558 221.476 111.108ZM258.798 133.588L258.609 133.654L258.51 133.48L258.719 133.361L258.798 133.588ZM230.033 122.449L229.824 122.57L229.744 122.341L229.934 122.276L230.033 122.449ZM214.64 120.261L214.496 120.344L214.397 120.17L214.585 120.105L214.64 120.261ZM232.534 115.485L232.325 115.605L232.246 115.377L232.435 115.311L232.534 115.485Z" fill="#588995"/>
<path d="M273.353 156.969L276.821 166.974C277.453 168.795 276.705 170.808 275.041 171.775L267.011 176.446C271.754 171.077 274.06 164.667 273.353 156.965V156.969Z" fill="#ECF8FF"/>
<path d="M280.79 167.977L247.73 72.1068C247.036 70.0942 245.15 68.8948 243.189 68.9153C243.934 69.462 244.535 70.2308 244.867 71.1842L277.926 167.054C278.664 169.197 277.786 171.558 275.828 172.699L211.581 210.084C210.84 210.515 210.04 210.713 209.254 210.723C210.714 211.793 212.736 212.001 214.445 211.007L278.692 173.622C280.649 172.484 281.528 170.119 280.79 167.977Z" fill="#588995"/>
<path d="M243.187 68.7146C245.229 68.6934 247.196 69.9433 247.919 72.0418L280.979 167.912L281.045 168.122C281.689 170.297 280.768 172.645 278.792 173.794L278.793 173.795L214.545 211.179C212.764 212.216 210.656 211.998 209.136 210.885L208.654 210.531L209.252 210.523C210.005 210.513 210.771 210.323 211.481 209.911L211.682 210.258C211.102 210.595 210.486 210.794 209.87 210.878C211.208 211.616 212.895 211.678 214.344 210.834L278.591 173.449L278.764 173.344C280.461 172.254 281.235 170.17 280.663 168.235L280.6 168.042L247.541 72.1717C246.946 70.447 245.437 69.3471 243.778 69.1492C244.335 69.6739 244.783 70.3354 245.055 71.1179V71.1189L278.115 166.989L278.182 167.199C278.826 169.374 277.906 171.72 275.929 172.872L275.727 172.526C277.544 171.467 278.39 169.312 277.798 167.312L277.737 167.119L244.677 71.2498L244.546 70.9158C244.214 70.156 243.696 69.5345 243.071 69.0759L242.586 68.7215L243.187 68.7146ZM275.828 172.699L275.929 172.872H275.928L211.682 210.257V210.258L211.582 210.084L211.481 209.911L275.727 172.526L275.828 172.699Z" fill="#588995"/>
<path d="M129.263 185.503L206.983 232.237L200.727 235.767C198.263 237.157 195.311 237.383 192.663 236.389L109.257 201.58C107.101 200.681 106.944 197.688 108.994 196.567L129.26 185.503" fill="#588995"/>
<path d="M129.261 185.506L129.366 185.331L207.086 232.065L207.381 232.242L200.825 235.94C198.31 237.36 195.296 237.591 192.593 236.576L192.586 236.573L192.663 236.389L192.67 236.37L192.586 236.573L109.18 201.765C106.869 200.801 106.7 197.593 108.897 196.392L129.164 185.327L129.261 185.506ZM109.09 196.742C107.187 197.783 107.333 200.561 109.334 201.396L192.732 236.201C195.325 237.175 198.217 236.954 200.629 235.593L206.585 232.23L129.256 185.732L109.09 196.742Z" fill="#588995"/>
<path d="M129.96 165.657L154.392 150.933L154.293 183.309L129.987 169.183C128.641 168.401 128.624 166.46 129.96 165.657Z" fill="#C4DAE6"/>
<path d="M154.491 183.656L129.887 169.356C128.41 168.497 128.39 166.368 129.856 165.486L154.593 150.579L154.491 183.656ZM130.064 165.829L129.954 165.899C128.86 166.661 128.911 168.326 130.088 169.01L154.094 182.961L154.189 151.288L130.064 165.829Z" fill="#588995"/>
<path d="M169.396 109.691L205.504 214.285C206.498 217.162 209.871 218.412 212.499 216.885L281.813 176.551C283.238 175.731 284.061 174.805 284.526 173.814L278.129 189.829C277.606 191.135 276.66 192.228 275.44 192.928L202.76 234.67C200.091 236.205 196.808 236.198 194.142 234.66L131.297 197.784C129.855 196.94 128.973 195.392 128.977 193.721L128.97 167.482C128.97 167.482 128.97 168.6 130.06 169.204L146.424 178.741C147.493 179.366 148.836 178.594 148.836 177.354V163.983L148.457 112.91V108.608C148.457 107.155 149.636 105.977 151.088 105.977H164.182C166.533 105.977 168.628 107.47 169.396 109.691Z" fill="#C4DAE6"/>
<path d="M205.693 214.22L205.789 214.474C206.848 217.05 209.958 218.13 212.398 216.712L212.599 217.058C209.948 218.598 206.569 217.425 205.419 214.626L205.314 214.35L169.207 109.756L169.585 109.626L205.693 214.22ZM284.712 173.888L278.314 189.903C277.775 191.25 276.798 192.379 275.539 193.102L275.341 192.755C276.521 192.077 277.437 191.018 277.943 189.755L283.688 175.367C283.23 175.846 282.648 176.301 281.912 176.725L281.911 176.724L212.599 217.058L212.499 216.885L212.398 216.712L281.712 176.378C283.107 175.575 283.9 174.676 284.345 173.729L284.712 173.888ZM148.257 108.607C148.257 107.045 149.525 105.776 151.088 105.776H164.182C166.618 105.776 168.788 107.325 169.585 109.626L169.396 109.69L169.207 109.756C168.466 107.616 166.447 106.177 164.182 106.177H151.088C149.746 106.177 148.657 107.266 148.657 108.607V112.908L149.036 163.981L148.77 163.983H148.836L149.036 163.981V177.354C149.036 178.704 147.619 179.563 146.436 178.976L146.323 178.914L129.959 169.377C129.597 169.175 129.345 168.92 129.17 168.664L129.177 193.721L129.186 194.021C129.274 195.406 129.997 196.674 131.145 197.452L131.397 197.611L194.243 234.487C196.847 235.989 200.054 235.995 202.66 234.497L275.341 192.755L275.439 192.929L275.539 193.102L202.859 234.844C200.214 236.364 196.978 236.406 194.3 234.977L194.042 234.833L194.143 234.66L194.164 234.623L194.042 234.833L131.195 197.956C129.692 197.076 128.773 195.463 128.776 193.722L128.77 167.482H129.17C129.17 167.483 129.17 167.485 129.17 167.488C129.17 167.494 129.171 167.504 129.172 167.518C129.174 167.544 129.177 167.585 129.185 167.637C129.2 167.739 129.231 167.884 129.293 168.045C129.401 168.326 129.602 168.659 129.982 168.922L130.157 169.029L130.16 169.031L146.524 178.568L146.703 178.657C147.603 179.029 148.637 178.372 148.637 177.354V163.984L148.257 112.911L148.523 112.909H148.457L148.257 112.911V108.607Z" fill="#588995"/>
<path d="M228.382 212.185L266.885 189.763C267.473 189.421 268.16 190.016 267.907 190.645L266.294 194.68C266.075 195.223 265.682 195.678 265.177 195.968L227.743 217.468C227.156 217.806 226.448 217.277 226.605 216.617L227.344 213.573C227.484 212.988 227.859 212.489 228.375 212.185H228.382Z" fill="#ECF8FF"/>
<path d="M266.927 189.522C267.641 189.249 268.395 189.963 268.092 190.718L268.093 190.719L266.48 194.754V194.755L266.294 194.68L266.109 194.606L267.721 190.571L267.747 190.486C267.835 190.095 267.441 189.754 267.066 189.898L266.986 189.936L228.483 212.359L228.437 212.385H228.436C227.987 212.664 227.662 213.105 227.538 213.62V213.621L227.364 213.578L227.225 213.543L227.538 213.621L226.8 216.664C226.684 217.154 227.209 217.546 227.644 217.295L265.077 195.795L265.247 195.688C265.632 195.421 265.932 195.045 266.109 194.606L266.48 194.755C266.274 195.267 265.924 195.706 265.475 196.017L265.277 196.142L227.843 217.642C227.103 218.068 226.214 217.4 226.411 216.571L227.149 213.526L227.218 213.291C227.407 212.755 227.782 212.303 228.274 212.013L228.32 211.986H228.328L266.784 189.59L266.927 189.522Z" fill="#588995"/>
<path d="M267.454 189.7C267.519 189.857 267.529 190.045 267.454 190.236L265.841 194.272C265.622 194.815 265.229 195.269 264.723 195.56L227.29 217.059C227.078 217.182 226.849 217.189 226.651 217.118C226.825 217.504 227.314 217.716 227.741 217.473L265.175 195.973C265.68 195.683 266.077 195.228 266.292 194.685L267.905 190.65C268.076 190.226 267.819 189.819 267.454 189.703V189.7Z" fill="#588995"/>
<path d="M267.514 189.512C267.975 189.659 268.311 190.178 268.091 190.724L267.72 190.575C267.784 190.415 267.762 190.259 267.689 190.133C267.678 190.192 267.663 190.25 267.639 190.309V190.31L266.026 194.346L265.929 194.561C265.719 194.981 265.407 195.341 265.021 195.608L264.823 195.733L227.389 217.232L227.39 217.233C227.31 217.279 227.227 217.31 227.144 217.332C227.296 217.394 227.475 217.393 227.641 217.299L265.075 195.8L265.245 195.692C265.63 195.425 265.933 195.05 266.106 194.612V194.611L267.719 190.576L267.72 190.575L267.905 190.65L268.091 190.724L266.477 194.757L266.478 194.758C266.275 195.271 265.922 195.71 265.472 196.021L265.274 196.147L227.841 217.646L227.682 217.371L227.741 217.473L227.841 217.646L227.84 217.647C227.3 217.953 226.686 217.682 226.469 217.2L226.274 216.768L226.72 216.929C226.866 216.982 227.032 216.977 227.189 216.886H227.19L264.624 195.386L264.794 195.279C265.178 195.012 265.478 194.636 265.655 194.197L267.267 190.163L267.298 190.058C267.31 189.989 267.308 189.923 267.295 189.862L267.254 189.849V189.7L267.468 189.658L267.514 189.512Z" fill="#588995"/>
<path d="M132.033 177.744V174.789L140.784 179.87L140.801 182.378C140.801 182.805 140.343 183.075 139.971 182.859L132.508 178.568C132.214 178.397 132.033 178.086 132.033 177.748V177.744Z" fill="#ECF8FF"/>
<path d="M140.885 179.697L140.983 179.754L140.984 179.869L141.001 182.376L140.994 182.484C140.924 183 140.347 183.308 139.871 183.033L132.408 178.741C132.054 178.535 131.833 178.158 131.833 177.748V174.441L140.885 179.697ZM132.233 177.748C132.233 178.013 132.375 178.258 132.607 178.394L140.07 182.686L140.162 182.724C140.376 182.779 140.6 182.62 140.601 182.379L140.584 179.985L132.233 175.135V177.748Z" fill="#588995"/>
<path d="M140.543 182.443L133.08 178.151C132.786 177.983 132.605 177.669 132.605 177.331V175.117L132.042 174.789V177.744C132.042 178.083 132.223 178.397 132.516 178.564L139.979 182.856C140.307 183.044 140.707 182.856 140.789 182.511C140.707 182.508 140.622 182.487 140.543 182.443Z" fill="#588995"/>
<path d="M132.406 177.331V175.232L132.242 175.136V177.745C132.242 177.978 132.351 178.197 132.533 178.336L132.616 178.39L140.078 182.682C140.22 182.764 140.382 182.732 140.488 182.637L140.445 182.617L140.443 182.616L140.531 182.464L140.542 182.442L140.443 182.616L132.981 178.325L132.854 178.241C132.573 178.026 132.406 177.689 132.406 177.331ZM132.805 177.331C132.805 177.598 132.948 177.846 133.179 177.977L140.641 182.268L140.716 182.299C140.743 182.306 140.77 182.31 140.797 182.311L141.04 182.321L140.984 182.557L140.958 182.643C140.814 183.032 140.364 183.241 139.964 183.072L139.879 183.03L132.417 178.738C132.06 178.534 131.841 178.153 131.841 177.745V174.441L132.706 174.944L132.805 175.001V177.331Z" fill="#588995"/>
<path d="M132.033 185.506V182.551L140.784 187.632L140.801 190.14C140.801 190.567 140.343 190.837 139.971 190.622L132.508 186.33C132.214 186.159 132.033 185.848 132.033 185.51V185.506Z" fill="#ECF8FF"/>
<path d="M140.885 187.459L140.983 187.517L140.984 187.631L141.001 190.139L140.994 190.246C140.924 190.762 140.347 191.07 139.871 190.795L132.408 186.503C132.054 186.297 131.833 185.92 131.833 185.51V182.203L140.885 187.459ZM132.233 185.51C132.233 185.775 132.375 186.021 132.607 186.156L140.07 190.448L140.162 190.486C140.376 190.541 140.6 190.382 140.601 190.142L140.584 187.747L132.233 182.897V185.51Z" fill="#588995"/>
<path d="M140.543 190.205L133.08 185.913C132.786 185.746 132.605 185.431 132.605 185.093V182.879L132.042 182.551V185.506C132.042 185.845 132.223 186.159 132.516 186.327L139.979 190.618C140.307 190.806 140.707 190.618 140.789 190.273C140.707 190.27 140.622 190.249 140.543 190.205Z" fill="#588995"/>
<path d="M132.406 185.093V182.994L132.242 182.898V185.507C132.242 185.74 132.351 185.96 132.533 186.099L132.616 186.152L140.078 190.444C140.22 190.526 140.382 190.495 140.488 190.399L140.445 190.379L140.443 190.378L140.531 190.227L140.542 190.204L140.443 190.378L132.981 186.087L132.854 186.003C132.573 185.788 132.406 185.451 132.406 185.093ZM132.805 185.093C132.805 185.36 132.948 185.608 133.179 185.739L140.641 190.03L140.716 190.062C140.743 190.069 140.77 190.072 140.797 190.073L141.04 190.083L140.984 190.319L140.958 190.405C140.814 190.794 140.364 191.003 139.964 190.834L139.879 190.792L132.417 186.5C132.06 186.297 131.841 185.916 131.841 185.507V182.203L132.706 182.706L132.805 182.764V185.093Z" fill="#588995"/>
<path d="M132.033 193.204V190.249L140.784 195.33L140.801 197.838C140.801 198.265 140.343 198.535 139.971 198.319L132.508 194.028C132.214 193.857 132.033 193.546 132.033 193.208V193.204Z" fill="#ECF8FF"/>
<path d="M140.885 195.157L140.983 195.214L140.984 195.329L141.001 197.836L140.994 197.944C140.924 198.46 140.347 198.768 139.871 198.493L132.408 194.201C132.054 193.995 131.833 193.618 131.833 193.208V189.901L140.885 195.157ZM132.233 193.208C132.233 193.473 132.375 193.718 132.607 193.854L140.07 198.146L140.162 198.184C140.376 198.239 140.6 198.08 140.601 197.839L140.584 195.445L132.233 190.595V193.208Z" fill="#588995"/>
<path d="M140.543 197.903L133.08 193.611C132.786 193.443 132.605 193.129 132.605 192.791V190.577L132.041 190.249V193.204C132.041 193.543 132.223 193.857 132.516 194.024L139.979 198.316C140.307 198.504 140.707 198.316 140.789 197.971C140.707 197.968 140.622 197.947 140.543 197.903Z" fill="#588995"/>
<path d="M132.406 192.791V190.692L132.242 190.596V193.205C132.242 193.438 132.351 193.657 132.533 193.796L132.616 193.85L140.078 198.142C140.22 198.224 140.382 198.192 140.488 198.097L140.445 198.077L140.443 198.076L140.531 197.924L140.542 197.902L140.443 198.076L132.981 193.785L132.854 193.701C132.573 193.486 132.406 193.149 132.406 192.791ZM132.805 192.791C132.805 193.058 132.948 193.305 133.179 193.437L140.641 197.728L140.716 197.759C140.743 197.766 140.77 197.77 140.797 197.771L141.04 197.781L140.984 198.017L140.957 198.103C140.814 198.492 140.364 198.701 139.964 198.532L139.879 198.49L132.416 194.198C132.06 193.994 131.841 193.613 131.841 193.205V189.901L132.706 190.404L132.805 190.461V192.791Z" fill="#588995"/>
<path d="M128.965 173.025L128.968 172.358L149.026 184.103L149.022 184.769L128.965 173.025Z" fill="#ECF8FF"/>
<path d="M149.127 183.93L149.025 184.102L149.026 184.103L149.127 183.93L149.226 183.988V184.104L149.22 185.116L128.864 173.197L128.965 173.024L128.764 173.023L128.77 172.011L149.127 183.93ZM129.165 172.911L148.824 184.421L148.825 184.217L129.166 172.706L129.165 172.911ZM128.965 173.024L128.864 173.197L128.764 173.139V173.023L128.965 173.024Z" fill="#588995"/>
<path d="M128.965 181.068L128.968 180.401L150.393 192.945L150.399 193.615L128.965 181.068Z" fill="#ECF8FF"/>
<path d="M150.494 192.772L150.591 192.83L150.592 192.943L150.603 193.966L128.864 181.24L128.965 181.067L128.764 181.066L128.77 180.054L150.494 192.772ZM129.165 180.954L150.196 193.264L150.194 193.061L129.166 180.749L129.165 180.954ZM128.965 181.067L128.864 181.24L128.764 181.182V181.066L128.965 181.067Z" fill="#588995"/>
<path d="M128.97 188.531V187.864L153.435 202.222L153.442 202.872L128.97 188.531Z" fill="#ECF8FF"/>
<path d="M153.646 203.223L153.341 203.044L153.442 202.872L153.643 202.869L153.646 203.223ZM129.17 188.416L153.238 202.52L153.236 202.337L129.17 188.214V188.416ZM128.77 187.515L153.537 202.05L153.635 202.107L153.636 202.221L153.643 202.869L153.442 202.872L153.341 203.044L128.868 188.703L128.77 188.646V187.515Z" fill="#588995"/>
<path d="M193.381 225.133C193.381 227.559 190.757 229.072 188.655 227.856L169.906 217.007C168.276 216.064 167.271 214.325 167.271 212.442C167.271 209.869 170.06 208.266 172.284 209.561L190.541 220.199C192.298 221.22 193.377 223.1 193.377 225.129L193.381 225.133Z" fill="#588995"/>
<path d="M166.771 212.442C166.772 209.483 169.979 207.641 172.536 209.13L190.793 219.766L191.143 219.986C192.786 221.095 193.801 222.927 193.87 224.915L193.881 224.926V225.133C193.881 227.856 191.027 229.587 188.635 228.412L188.404 228.289L169.655 217.44C167.871 216.408 166.771 214.504 166.771 212.442ZM167.771 212.442C167.771 214.146 168.681 215.721 170.156 216.575L188.905 227.424L189.072 227.512C190.786 228.355 192.822 227.144 192.878 225.214V225.13C192.878 223.394 192.011 221.778 190.583 220.815L190.29 220.631L172.032 209.994C170.141 208.893 167.772 210.255 167.771 212.442Z" fill="#588995"/>
<path d="M189.222 227.191L170.473 216.342C168.843 215.399 167.839 213.66 167.839 211.777C167.839 211.1 168.037 210.492 168.362 209.986C167.705 210.581 167.271 211.435 167.271 212.447C167.271 214.329 168.276 216.069 169.906 217.012L188.655 227.861C190.21 228.759 192.052 228.161 192.902 226.801C191.946 227.659 190.49 227.925 189.222 227.191Z" fill="#C4DAE6"/>
<path d="M167.639 211.776C167.639 211.632 167.649 211.491 167.665 211.354C167.541 211.688 167.472 212.055 167.472 212.446C167.472 214.258 168.438 215.931 170.006 216.839L188.755 227.688L188.555 228.033L169.806 217.185C168.114 216.206 167.071 214.4 167.071 212.446C167.071 211.375 167.533 210.468 168.228 209.838L168.53 210.095L168.421 210.277C168.181 210.713 168.039 211.22 168.039 211.776C168.039 213.588 169.005 215.262 170.573 216.169L189.322 227.018L189.547 227.136C190.677 227.672 191.926 227.407 192.769 226.652L193.072 226.907L192.984 227.04C192.077 228.346 190.279 228.923 188.711 228.119L188.555 228.034V228.033L188.655 227.86L188.755 227.688C189.733 228.253 190.834 228.183 191.692 227.69C190.958 227.899 190.143 227.862 189.377 227.498L189.122 227.364L170.373 216.515C168.682 215.536 167.639 213.731 167.639 211.776Z" fill="#588995"/>
<path d="M174.43 215.785C174.43 217.631 173.135 218.375 171.542 217.449C169.95 216.523 168.658 214.282 168.658 212.44C168.658 210.598 169.95 209.85 171.542 210.773C173.135 211.695 174.433 213.94 174.433 215.785H174.43Z" fill="#ECF8FF"/>
<path d="M169.403 210.397C170.009 210.047 170.81 210.117 171.643 210.599C172.476 211.082 173.221 211.904 173.758 212.834C174.294 213.763 174.633 214.82 174.633 215.786V215.985H174.624C174.58 216.851 174.247 217.505 173.683 217.83C173.076 218.179 172.274 218.107 171.441 217.623C170.608 217.138 169.865 216.317 169.33 215.388C168.795 214.46 168.458 213.404 168.458 212.44C168.458 211.477 168.798 210.748 169.403 210.397ZM168.858 212.44C168.858 213.318 169.168 214.304 169.677 215.188C170.186 216.072 170.884 216.836 171.643 217.277C172.402 217.719 173.045 217.736 173.483 217.483C173.922 217.23 174.229 216.666 174.23 215.786V215.696C174.209 214.84 173.905 213.888 173.411 213.033C172.9 212.148 172.201 211.386 171.442 210.946C170.683 210.506 170.042 210.49 169.604 210.743C169.165 210.997 168.858 211.561 168.858 212.44Z" fill="#588995"/>
<path d="M172.269 210.284C171.237 209.69 170.068 209.888 169.556 210.53C170.071 210.264 170.769 210.315 171.537 210.759C173.133 211.682 174.428 213.927 174.428 215.772C174.428 216.425 174.264 216.934 173.984 217.286C174.541 216.999 175.101 216.117 175.101 215.164C175.101 213.319 173.864 211.203 172.269 210.281V210.284Z" fill="#C4DAE6"/>
<path d="M173.984 217.286L174.076 217.464L173.828 217.161L173.984 217.286ZM174.901 215.164C174.901 214.284 174.605 213.327 174.11 212.476C173.629 211.649 172.968 210.937 172.231 210.493L172.169 210.458L171.986 210.361C171.47 210.116 170.944 210.08 170.51 210.184C170.867 210.228 171.249 210.361 171.638 210.586L171.793 210.68C172.565 211.172 173.252 211.948 173.755 212.819C174.291 213.749 174.628 214.805 174.628 215.771C174.628 215.986 174.609 216.189 174.576 216.378L174.577 216.377C174.772 216.027 174.901 215.602 174.901 215.164ZM175.302 215.164C175.302 215.679 175.15 216.171 174.926 216.572C174.703 216.97 174.399 217.297 174.076 217.464L173.984 217.285L173.828 217.161C174.073 216.854 174.228 216.392 174.228 215.771C174.228 214.892 173.918 213.904 173.408 213.019C172.962 212.245 172.37 211.565 171.72 211.112L171.437 210.932C170.705 210.509 170.083 210.483 169.647 210.708L169.399 210.405C169.936 209.733 171.048 209.52 172.068 209.962V209.934L172.369 210.107C173.203 210.589 173.933 211.377 174.456 212.275C174.979 213.174 175.302 214.199 175.302 215.164Z" fill="#588995"/>
</svg>
