<svg width="172" height="172" viewBox="0 0 172 172" fill="none" xmlns="http://www.w3.org/2000/svg">
<path d="M41.6122 48.9763C40.0704 48.9763 38.6503 47.9755 38.1769 46.4472C38.0146 45.9333 37.8928 45.3923 37.7846 44.8513C36.892 40.3476 37.8657 35.6681 40.4219 32.0165C41.5444 30.407 43.7762 30.0148 45.3856 31.1374C47.0086 32.2599 47.4007 34.4644 46.2781 36.0874C44.8175 38.1702 44.2763 40.8616 44.7903 43.4853C44.8579 43.8099 44.9258 44.121 45.034 44.432C45.602 46.312 44.52 48.3001 42.6265 48.8411C42.2884 48.9357 41.9503 48.9898 41.6122 48.9898V48.9763Z" fill="#588995"/>
<path d="M54.3249 145.221L50.5515 151.388L12.0605 52.5771L15.834 46.4099L54.3249 145.221Z" fill="#588995"/>
<path d="M50.5513 152.062C50.5513 152.062 50.5107 152.062 50.4971 152.062C50.2402 152.035 50.0239 151.873 49.9292 151.629L11.4383 52.8187C11.3571 52.6158 11.3842 52.3994 11.4924 52.2236L15.2658 46.0564C15.4011 45.84 15.631 45.7048 15.9015 45.7318C16.1584 45.7589 16.3747 45.9212 16.4694 46.1646L54.9603 144.975C55.0415 145.178 55.0144 145.395 54.9062 145.57L51.1331 151.738C51.0114 151.94 50.7947 152.062 50.5513 152.062ZM12.8178 52.6429L50.6867 149.871L53.5672 145.165L15.6984 47.9363L12.8178 52.6564V52.6429Z" fill="#588995"/>
<path d="M77.0731 43.4291C75.5449 43.4291 74.1247 42.4282 73.6514 40.9C73.4891 40.386 73.3673 39.8451 73.2591 39.3041C72.3665 34.8004 73.3267 30.1209 75.8963 26.4692C77.0189 24.8598 79.2507 24.4676 80.8601 25.5901C82.483 26.7127 82.8751 28.9172 81.7526 30.5401C80.2919 32.6229 79.7508 35.3143 80.2648 37.9381C80.3324 38.2627 80.4002 38.5737 80.5084 38.8848C81.0765 40.7647 79.9945 42.7528 78.101 43.2938C77.7629 43.3885 77.4248 43.4426 77.0731 43.4426V43.4291Z" fill="#588995"/>
<path d="M112.116 32.933L150.62 131.757L54.4879 145.187L15.9834 46.3764L112.116 32.933Z" fill="#C4DAE6"/>
<path d="M54.4873 145.877C54.2168 145.877 53.9599 145.714 53.8517 145.444L15.3469 46.6332C15.2657 46.4439 15.2928 46.2275 15.3875 46.0517C15.4821 45.8758 15.6716 45.7541 15.8745 45.7271L112.007 32.2836C112.332 32.2431 112.616 32.4189 112.737 32.7029L151.242 131.527C151.323 131.716 151.296 131.933 151.202 132.109C151.107 132.284 150.917 132.406 150.715 132.433L54.5817 145.863C54.5817 145.863 54.5143 145.863 54.4873 145.863V145.877ZM16.9295 46.9308L54.9334 144.457L149.687 131.216L111.683 33.6767L16.9295 46.9308Z" fill="#588995"/>
<path d="M112.116 32.933L150.62 131.757L54.4879 145.187L15.9834 46.3764L112.116 32.933Z" fill="#ECF8FF"/>
<path d="M54.4873 145.877C54.2168 145.877 53.9599 145.714 53.8517 145.444L15.3469 46.6332C15.2657 46.4439 15.2928 46.2275 15.3875 46.0517C15.4821 45.8758 15.6716 45.7541 15.8745 45.7271L112.007 32.2836C112.332 32.2431 112.616 32.4189 112.737 32.7029L151.242 131.527C151.323 131.716 151.296 131.933 151.202 132.109C151.107 132.284 150.917 132.406 150.715 132.433L54.5817 145.863C54.5817 145.863 54.5143 145.863 54.4873 145.863V145.877ZM16.9295 46.9308L54.9334 144.457L149.687 131.216L111.683 33.6767L16.9295 46.9308Z" fill="#588995"/>
<path d="M103.867 44.7563L134.256 122.78L58.3697 133.383L27.98 55.3731L103.867 44.7563Z" fill="#ECF8FF"/>
<path d="M58.3688 134.06C58.0983 134.06 57.8414 133.898 57.7332 133.627L27.3434 55.6175C27.2623 55.4282 27.2894 55.2118 27.3841 55.036C27.4787 54.8601 27.6679 54.7384 27.8708 54.7114L103.757 44.0946C104.082 44.0405 104.366 44.2298 104.488 44.5138L134.877 122.537C134.959 122.727 134.932 122.943 134.837 123.119C134.742 123.295 134.553 123.416 134.35 123.443L58.4635 134.047C58.4635 134.047 58.3958 134.047 58.3688 134.047V134.06ZM28.9257 55.9286L58.8152 132.64L133.322 122.226L103.433 45.5011L28.9257 55.9286Z" fill="#588995"/>
<path d="M105.314 41.7292L135.703 119.753L59.8306 130.356L29.4409 52.346L105.314 41.7292Z" fill="#ECF8FF"/>
<path d="M59.8297 131.017C59.5592 131.017 59.3023 130.855 59.1941 130.584L28.8044 52.5745C28.7232 52.3852 28.7503 52.1688 28.845 51.993C28.9397 51.8172 29.1288 51.6954 29.3317 51.6684L105.205 41.0516C105.516 40.9975 105.813 41.1868 105.935 41.4709L136.325 119.494C136.406 119.684 136.379 119.9 136.284 120.076C136.19 120.252 136 120.373 135.797 120.4L59.9245 131.004C59.9245 131.004 59.8568 131.004 59.8297 131.004V131.017ZM30.3867 52.8856L60.2761 129.597L134.769 119.183L104.88 42.4581L30.3867 52.8856Z" fill="#588995"/>
<path d="M150.619 131.768L146.832 137.935L50.7129 151.379L54.4863 145.198L150.619 131.768Z" fill="#C4DAE6"/>
<path d="M50.7137 152.057C50.4838 152.057 50.2675 151.949 50.1458 151.746C49.997 151.53 49.997 151.246 50.1458 151.016L53.9188 144.835C54.027 144.659 54.203 144.551 54.4059 144.524L150.539 131.094C150.809 131.054 151.053 131.175 151.201 131.392C151.35 131.608 151.35 131.892 151.201 132.122L147.414 138.289C147.306 138.465 147.13 138.573 146.927 138.6L50.8084 152.044C50.8084 152.044 50.7407 152.044 50.7137 152.044V152.057ZM54.8926 145.823L52.0255 150.502L146.414 137.302L149.281 132.636L54.8926 145.823Z" fill="#588995"/>
<path d="M30.7651 49.7997L106.638 39.1829C106.638 39.1829 126.506 93.146 160.926 104.588L81.6986 115.664C47.2921 104.196 30.7651 49.7861 30.7651 49.7861V49.7997Z" fill="#F35F5F"/>
<path d="M96.9423 95.3846C98.1963 95.7782 99.3984 95.7473 100.547 95.2782C101.699 94.812 102.422 94.0654 102.722 93.0374C103.023 92.0094 102.821 90.9734 102.115 89.9226C101.41 88.8717 100.425 88.1519 99.1714 87.7583C97.9173 87.3647 96.7161 87.4025 95.5669 87.8647C94.4216 88.3299 93.6948 89.0735 93.3943 90.1015C93.0969 91.1257 93.2989 92.1616 94.0004 93.2095C94.7018 94.2573 95.6834 94.9811 96.9375 95.3747L96.9423 95.3846ZM85.8866 81.2342C86.588 82.2821 87.5648 82.9959 88.812 83.3904C90.0622 83.781 91.2604 83.7472 92.4048 83.275C93.5501 82.8098 94.273 82.0632 94.5735 81.0352C94.8709 80.0111 94.6689 78.9751 93.9675 77.9272L84.0548 63.1923C83.3542 62.1513 82.3804 61.4336 81.1311 61.0499C79.8849 60.6623 78.6915 60.706 77.55 61.1743C76.4086 61.6425 75.6926 62.3882 75.3913 63.4093C75.0938 64.4334 75.2949 65.4625 75.9916 66.5005L85.8788 81.2282L85.8866 81.2342Z" fill="#ECF8FF" stroke="#588995" stroke-width="0.5" stroke-linecap="round" stroke-linejoin="round"/>
<path d="M81.6985 116.353C81.6309 116.353 81.5499 116.353 81.4823 116.312C47.1433 104.87 30.2782 50.5421 30.1159 49.9876C30.0618 49.7982 30.0889 49.5953 30.1971 49.4331C30.3053 49.2708 30.4809 49.149 30.6703 49.122L106.543 38.5052C106.854 38.4511 107.166 38.6404 107.274 38.938C107.477 39.479 127.425 92.7253 161.142 103.937C161.439 104.032 161.629 104.329 161.602 104.64C161.575 104.951 161.332 105.208 161.02 105.249L81.7933 116.326C81.7933 116.326 81.7256 116.326 81.6985 116.326V116.353ZM31.6576 50.3662C33.8215 56.9527 50.3757 104.411 81.7662 114.987L158.167 104.302C127.155 91.8597 108.302 45.3486 106.205 39.9388L31.6576 50.3662Z" fill="#588995"/>
<path d="M91.0165 52.4393C89.3395 52.4393 87.8516 51.2762 87.5135 49.5721C87.1348 47.6516 88.3927 45.7852 90.3267 45.4065C94.8981 44.5274 97.8059 39.7127 96.8051 34.7086C95.8178 29.7045 91.3003 26.3504 86.7425 27.243C84.7409 27.6352 82.9693 28.8119 81.752 30.5565C80.6295 32.166 78.398 32.5582 76.7751 31.4356C75.1657 30.3131 74.7597 28.1086 75.8958 26.4856C78.1814 23.2262 81.5355 21.0217 85.363 20.2778C93.7888 18.6278 102.066 24.4975 103.811 33.3561C105.569 42.2147 100.119 50.7487 91.7063 52.3987C91.4628 52.4528 91.2329 52.4664 91.0165 52.4664V52.4393Z" fill="#588995"/>
<path d="M55.5421 57.9548C53.865 57.9548 52.3772 56.7917 52.0391 55.0876C51.6604 53.1671 52.9183 51.3007 54.8658 50.922C59.4236 50.0429 62.3311 45.2282 61.3438 40.2241C60.3565 35.22 55.8259 31.8659 51.2681 32.7585C49.2664 33.1507 47.5083 34.3274 46.2776 36.072C45.155 37.6815 42.9236 38.0737 41.3142 36.9511C39.6912 35.8286 39.2988 33.6241 40.4213 32.0011C42.707 28.7417 46.0746 26.5372 49.8885 25.7933C58.3279 24.1433 66.5916 30.013 68.3363 38.8716C70.0945 47.7302 64.6576 56.2642 56.2318 57.9142C56.0019 57.9683 55.7584 57.9819 55.5421 57.9819V57.9548Z" fill="#588995"/>
</svg>
