<svg width="172" height="172" viewBox="0 0 172 172" fill="none" xmlns="http://www.w3.org/2000/svg">
<path d="M21.7313 139.167L62.2834 162.662C64.4801 163.941 67.2199 163.953 69.4412 162.699L120.458 133.817C122.038 132.913 122.063 130.682 120.483 129.769L79.6347 106.091C77.364 104.773 74.575 104.761 72.2796 106.042L21.7807 134.51C19.9542 135.547 19.9296 138.119 21.756 139.18L21.7313 139.167Z" fill="#588995"/>
<path d="M65.8921 164C64.5765 164 63.2659 163.659 62.0985 162.983L21.5464 139.489C21.5464 139.489 21.5217 139.474 21.5093 139.464C20.5739 138.894 20.021 137.919 20.0259 136.84C20.0333 135.734 20.6183 134.742 21.5957 134.189L72.0996 105.719C74.4962 104.381 77.453 104.398 79.82 105.771L120.668 129.448C121.522 129.942 122.031 130.815 122.028 131.785C122.028 132.763 121.507 133.644 120.641 134.14L69.6239 163.023C68.4664 163.677 67.178 164 65.8896 164H65.8921ZM21.9709 138.879L62.4687 162.341C64.5494 163.553 67.1533 163.568 69.2587 162.376L120.276 133.496C120.908 133.135 121.285 132.494 121.285 131.783C121.285 131.082 120.92 130.448 120.298 130.09L79.4498 106.412C77.3099 105.171 74.6319 105.154 72.4624 106.366L21.961 134.834C21.2181 135.256 20.7738 136.006 20.7689 136.843C20.7689 137.677 21.2057 138.43 21.9437 138.859C21.9536 138.864 21.961 138.871 21.9709 138.879Z" fill="#588995"/>
<path d="M53.9403 151.012L17.8802 50.0394C16.8189 47.1244 18.053 43.8936 20.768 42.3584L71.341 14.036C72.8712 13.182 74.9445 12.9155 76.7956 13.5004L83.509 15.7193L64.7016 159.362L56.8528 154.584C55.4953 153.755 54.4586 152.498 53.9156 151.012H53.9403Z" fill="#C4DAE6"/>
<path d="M64.7017 159.732C64.6351 159.732 64.5684 159.715 64.5092 159.678L56.6604 154.9C55.2338 154.028 54.1355 152.693 53.5678 151.141C53.5505 151.099 53.5431 151.054 53.5431 151.01L17.5299 50.1651C16.4093 47.0922 17.6928 43.6738 20.583 42.0399L71.156 13.7151C72.8368 12.7771 75.0434 12.5575 76.9044 13.1498L83.6227 15.3688C83.7905 15.4256 83.8967 15.5934 83.8745 15.7687L65.067 159.412C65.0522 159.535 64.9732 159.644 64.8596 159.698C64.8078 159.723 64.756 159.732 64.7017 159.732ZM54.3107 151.01C54.8315 152.355 55.8015 153.508 57.0454 154.268L64.4055 158.75L83.0995 15.9759L76.6773 13.8533C74.9989 13.3227 73.0219 13.5177 71.5163 14.3594L20.9459 42.6816C18.3716 44.1354 17.2263 47.1762 18.2235 49.9134L54.2835 150.889C54.2958 150.928 54.3033 150.968 54.3057 151.01H54.3107Z" fill="#588995"/>
<path d="M79.5598 70.2095L65.8367 161.48L57.9879 156.699C56.6304 155.87 55.5938 154.616 55.0508 153.128L17.88 50.1185C17.3864 48.7783 17.3864 47.364 17.806 46.083L79.5598 70.2095Z" fill="#588995"/>
<path d="M65.8373 161.853C65.7707 161.853 65.704 161.835 65.6448 161.798L57.796 157.017C56.3669 156.144 55.2686 154.806 54.7034 153.256L17.5327 50.2466C17.0193 48.8594 16.9921 47.3785 17.4536 45.9691C17.4857 45.8729 17.5548 45.7939 17.6462 45.7495C17.74 45.7075 17.8485 45.7027 17.9398 45.7397L79.6542 69.8537C79.8122 69.8956 79.9282 70.0413 79.9282 70.2116C79.9282 70.2388 79.9281 70.2635 79.9207 70.2857L66.2001 161.539C66.1804 161.66 66.1039 161.766 65.9904 161.818C65.9385 161.843 65.8891 161.853 65.8373 161.853ZM18.0485 46.574C17.7597 47.7069 17.8189 48.8816 18.2286 49.9899L55.3994 153.002C55.9078 154.394 56.8951 155.596 58.1835 156.383L65.5535 160.873L79.1507 70.4486L18.0485 46.574Z" fill="#588995"/>
<path d="M66.2077 162.272L57.7172 157.114C56.261 156.225 55.1502 154.87 54.5826 153.286L17.4118 50.2763C16.8935 48.862 16.8688 47.3613 17.3131 45.9223L17.4859 45.4213L80.1035 69.8908L66.2077 162.272ZM18.1276 46.7295C17.8808 47.8007 17.9548 48.8989 18.325 49.9455L55.4958 152.955C55.9894 154.332 56.9767 155.517 58.2355 156.284L65.4672 160.673L79.0175 70.5251L18.1276 46.7295Z" fill="#588995"/>
<path d="M24.792 52.7295L62.259 156.507C63.345 159.567 67.0225 160.907 69.9102 159.298L120.73 130.855C123.445 129.332 124.679 126.123 123.667 123.223L86.916 18.9698C85.83 15.8846 82.1525 14.5197 79.24 16.1413L27.7045 45.0485C24.9648 46.5837 23.7553 49.8146 24.792 52.7295Z" fill="#ECF8FF"/>
<path d="M67.271 160.355C66.5824 160.355 65.8864 160.231 65.2225 159.979C63.6626 159.392 62.4557 158.173 61.9078 156.632L24.4433 52.858C23.3449 49.7653 24.6383 46.347 27.5236 44.7303L79.0591 15.823C80.5548 14.9887 82.3344 14.8554 83.9362 15.4626C85.5035 16.0574 86.7179 17.2915 87.2683 18.8514L124.019 123.105C125.091 126.175 123.785 129.571 120.914 131.181L70.0922 159.624C69.2184 160.11 68.2509 160.357 67.2735 160.357L67.271 160.355ZM25.1393 52.6062L62.6062 156.383C63.0801 157.721 64.1291 158.777 65.4841 159.288C66.8835 159.816 68.4311 159.7 69.7293 158.977L120.552 130.534C123.106 129.1 124.271 126.076 123.318 123.347L86.5673 19.0933C86.0909 17.7408 85.037 16.6696 83.6746 16.1538C82.2727 15.6231 80.7251 15.7391 79.4195 16.4647L27.8839 45.3721C25.317 46.811 24.1619 49.8542 25.1393 52.6062Z" fill="#588995"/>
<path d="M29.4569 53.8157L65.8132 152.508C66.4055 154.142 68.3554 154.836 69.8856 153.984L117.225 127.503C119.052 126.479 119.866 124.346 119.175 122.394L84.0036 22.9561C83.4112 21.3123 81.4614 20.5792 79.9064 21.4579L31.3821 48.6573C29.5556 49.6816 28.7411 51.8634 29.4569 53.8157Z" fill="#588995"/>
<path d="M68.479 154.72C68.094 154.72 67.7065 154.65 67.3338 154.512C66.4601 154.186 65.7763 153.5 65.4653 152.634L29.1091 53.9439C28.3267 51.8114 29.2054 49.4518 31.2021 48.3337L79.7265 21.1345C80.5583 20.6655 81.5455 20.5815 82.4514 20.9147C83.3399 21.2454 84.0359 21.9439 84.3543 22.83L119.528 122.27C120.274 124.381 119.383 126.718 117.411 127.826L70.0685 154.307C69.5774 154.581 69.0294 154.72 68.4815 154.72H68.479ZM29.8051 53.6897L66.1614 152.382C66.4033 153.046 66.924 153.569 67.5954 153.821C68.2889 154.08 69.0615 154.024 69.7032 153.663L117.045 127.182C118.704 126.252 119.454 124.289 118.827 122.517L83.6558 23.0793C83.409 22.4006 82.8783 21.8625 82.1922 21.6083C81.4962 21.3516 80.731 21.4133 80.0893 21.7786L31.5625 48.9804C29.8866 49.9183 29.1461 51.9003 29.8026 53.6897H29.8051Z" fill="#588995"/>
<path d="M85.2619 108.35L94.641 88.0493L153.038 12.1308L148.719 9.67976C147.978 9.26511 147.09 9.26511 146.374 9.67976L82.6703 45.9251C81.1401 46.7914 80.2021 48.3883 80.2021 50.1185V104.594C80.2021 105.141 80.4983 105.64 80.9673 105.909L85.2619 108.335" fill="#ECF8FF"/>
<path d="M85.2625 108.72C85.2106 108.72 85.1564 108.71 85.1095 108.686C85.0675 108.668 85.0354 108.641 85.0034 108.614L80.7852 106.232C80.1978 105.894 79.8325 105.267 79.8325 104.593V50.1183C79.8325 48.2598 80.8518 46.5295 82.4882 45.6015L146.192 9.35634C147.019 8.87999 148.055 8.88245 148.902 9.35634L153.224 11.8098C153.315 11.8616 153.382 11.9529 153.404 12.0591C153.424 12.1627 153.399 12.2737 153.335 12.3577L94.9377 88.2764L85.6007 108.508C85.539 108.644 85.4056 108.723 85.2649 108.723L85.2625 108.72ZM147.54 9.74139C147.196 9.74139 146.861 9.82773 146.562 10.0005L82.8561 46.2482C81.4492 47.0455 80.5754 48.5288 80.5754 50.1207V104.596C80.5754 105.006 80.7976 105.386 81.153 105.591L85.1021 107.819L94.3059 87.8937L152.486 12.2441L148.534 10.0031C148.223 9.83029 147.878 9.7438 147.537 9.7438L147.54 9.74139Z" fill="#588995"/>
<path d="M85.2619 108.347L80.9673 105.921C80.4983 105.652 80.2021 105.154 80.2021 104.603V50.1305C80.2021 49.1926 80.4736 48.2892 80.9673 47.5339L112.214 65.211L94.641 88.0614L85.2619 108.36" fill="#C4DAE6"/>
<path d="M85.2625 108.73C85.2106 108.73 85.1564 108.72 85.1095 108.695C85.07 108.678 85.0404 108.656 85.0107 108.629L80.7852 106.242C80.1978 105.904 79.8325 105.277 79.8325 104.601V50.1281C79.8325 49.1211 80.1188 48.1536 80.6593 47.3293C80.7655 47.1639 80.9851 47.1171 81.1505 47.2109L112.398 64.8879C112.489 64.9397 112.556 65.0311 112.578 65.1372C112.598 65.2409 112.573 65.3519 112.509 65.4358L94.9353 88.2862L85.5982 108.513C85.5365 108.649 85.4031 108.728 85.2625 108.728V108.73ZM81.1012 48.0352C80.7556 48.6695 80.5754 49.3877 80.5754 50.1307V104.603C80.5754 105.013 80.7976 105.396 81.153 105.6L85.0996 107.829L94.3059 87.9061L111.66 65.3222L81.0987 48.0352H81.1012Z" fill="#588995"/>
<path d="M151.359 12.1652L87.0142 48.7781C85.7307 49.5111 84.9409 50.8391 84.9409 52.2904V107.701C84.9409 108.58 86.1503 108.873 86.5452 108.106L91.6049 98.9117C91.9505 98.2675 92.4688 97.7294 93.1352 97.3765L152.051 64.0315C153.235 63.3602 153.976 62.1038 153.976 60.7636V13.6412C153.976 12.3232 152.52 11.5062 151.359 12.1652Z" fill="#F35F5F"/>
<path d="M85.8197 108.92C85.7185 108.92 85.6149 108.908 85.5137 108.883C84.9485 108.747 84.5708 108.271 84.5708 107.703V52.2926C84.5708 50.7228 85.4396 49.2543 86.8317 48.4595L151.175 11.8467C151.848 11.4641 152.648 11.4739 153.312 11.8564C153.959 12.2341 154.346 12.9005 154.346 13.6434V60.7659C154.346 62.2419 153.537 63.6166 152.233 64.3546L93.318 97.6997C92.7281 98.0132 92.2518 98.4919 91.931 99.0867L86.8687 108.286C86.6613 108.686 86.2615 108.92 85.8172 108.92H85.8197ZM151.542 12.4883L87.1994 49.1013C86.0172 49.7751 85.3138 50.9672 85.3138 52.2902V107.701C85.3138 107.972 85.5063 108.118 85.6865 108.162C85.8593 108.207 86.0937 108.17 86.2146 107.938L91.2818 98.7339C91.6693 98.0107 92.2518 97.4282 92.9627 97.0506L151.868 63.7104C152.942 63.1033 153.606 61.9753 153.606 60.7659V13.6434C153.606 13.1695 153.356 12.7401 152.939 12.4982C152.507 12.2464 151.982 12.2415 151.542 12.4908V12.4883Z" fill="#588995"/>
<path d="M124.508 69.9083C123.807 70.7036 122.964 71.1843 121.976 71.34C120.986 71.4995 120.176 71.2861 119.539 70.7021C118.902 70.1181 118.609 69.3189 118.657 68.2992C118.705 67.2795 119.084 66.3716 119.785 65.5763C120.486 64.781 121.331 64.3055 122.317 64.1446C123.302 63.9874 124.114 64.1971 124.75 64.7811C125.383 65.3636 125.676 66.1629 125.63 67.1789C125.583 68.1949 125.208 69.1042 124.507 69.8995L124.508 69.9083ZM126.229 55.5269C126.182 56.5429 125.806 57.4434 125.11 58.2364C124.411 59.028 123.57 59.5049 122.583 59.657C121.598 59.8142 120.787 59.6008 120.151 59.0168C119.518 58.4343 119.225 57.635 119.271 56.619L119.959 42.3114C120.008 41.3005 120.38 40.3986 121.082 39.6121C121.78 38.8242 122.622 38.3561 123.606 38.2026C124.589 38.0491 125.394 38.2648 126.029 38.8436C126.661 39.4261 126.952 40.2203 126.905 41.2275L126.232 55.5195L126.229 55.5269Z" fill="#ECF8FF" stroke="#588995" stroke-width="0.5" stroke-linecap="round" stroke-linejoin="round"/>
</svg>
