<svg width="172" height="172" viewBox="0 0 172 172" fill="none" xmlns="http://www.w3.org/2000/svg">
<path d="M33.1226 92.8271L115.112 45.1245L118.392 47.033C119.24 47.5267 119.934 48.7378 119.934 49.7252L119.934 110.675C119.934 111.661 119.24 112.873 118.392 113.367L39.4883 159.274C38.64 159.768 37.2521 159.768 36.4038 159.274L34.6654 158.263C33.8172 157.769 33.1232 156.558 33.1232 155.571L33.1232 92.8265L33.1226 92.8271Z" fill="#8AE5CC"/>
<path d="M119.785 110.674L119.785 49.7251C119.785 49.2639 119.621 48.7394 119.351 48.2681C119.115 47.8557 118.803 47.4954 118.463 47.2573L118.317 47.1626L115.112 45.2974L33.2729 92.9126L33.2729 155.571C33.273 156.032 33.4366 156.556 33.7065 157.027C33.9766 157.498 34.3449 157.903 34.7407 158.133L36.479 159.145L36.6333 159.226C37.0075 159.403 37.4735 159.495 37.9458 159.495C38.4854 159.495 39.0169 159.375 39.4126 159.145L118.317 113.237L118.463 113.143C118.803 112.905 119.115 112.544 119.351 112.131C119.621 111.66 119.785 111.135 119.785 110.674ZM120.084 110.674C120.084 111.2 119.901 111.775 119.612 112.28C119.359 112.721 119.019 113.12 118.635 113.389L118.467 113.497L39.564 159.404C39.1114 159.667 38.5242 159.794 37.9458 159.794C37.44 159.794 36.9276 159.697 36.5044 159.497L36.3286 159.404L34.5903 158.392C34.1379 158.129 33.7348 157.681 33.4458 157.176C33.1569 156.672 32.9732 156.097 32.9731 155.571L32.9731 93.0864L32.2144 93.5288L33.0161 92.7212L33.0171 92.7212L33.2729 92.4624L33.2729 92.5659L115.037 44.9946L115.112 44.9507L115.187 44.9946L118.467 46.9038L118.635 47.0103C119.019 47.2794 119.359 47.6783 119.612 48.1196C119.901 48.624 120.084 49.1991 120.084 49.7251L120.084 110.674Z" fill="#0B4D5E"/>
<path d="M33.1226 92.8271L115.112 45.1245L118.392 47.033C119.24 47.5267 119.934 48.7378 119.934 49.7252L119.934 110.675C119.934 111.661 119.24 112.873 118.392 113.367L39.4883 159.274C38.64 159.768 37.2521 159.768 36.4038 159.274L34.6654 158.263C33.8172 157.769 33.1232 156.558 33.1232 155.571L33.1232 92.8265L33.1226 92.8271Z" fill="#0B4D5E"/>
<path d="M119.785 110.674L119.785 49.7251C119.785 49.2639 119.621 48.7394 119.351 48.2681C119.115 47.8557 118.803 47.4954 118.463 47.2573L118.317 47.1626L115.112 45.2974L33.2729 92.9126L33.2729 155.571C33.273 156.032 33.4366 156.556 33.7065 157.027C33.9766 157.498 34.3449 157.903 34.7407 158.133L36.479 159.145L36.6333 159.226C37.0075 159.403 37.4735 159.495 37.9458 159.495C38.4854 159.495 39.0169 159.375 39.4126 159.145L118.317 113.237L118.463 113.143C118.803 112.905 119.115 112.544 119.351 112.131C119.621 111.66 119.785 111.135 119.785 110.674ZM120.084 110.674C120.084 111.2 119.901 111.775 119.612 112.28C119.359 112.721 119.019 113.12 118.635 113.389L118.467 113.497L39.564 159.404C39.1114 159.667 38.5242 159.794 37.9458 159.794C37.44 159.794 36.9276 159.697 36.5044 159.497L36.3286 159.404L34.5903 158.392C34.1379 158.129 33.7348 157.681 33.4458 157.176C33.1569 156.672 32.9732 156.097 32.9731 155.571L32.9731 93.0864L32.2144 93.5288L33.0161 92.7212L33.0171 92.7212L33.2729 92.4624L33.2729 92.5659L115.037 44.9946L115.112 44.9507L115.187 44.9946L118.467 46.9038L118.635 47.0103C119.019 47.2794 119.359 47.6783 119.612 48.1196C119.901 48.624 120.084 49.1991 120.084 49.7251L120.084 110.674Z" fill="#0B4D5E"/>
<path d="M114.659 39.7662L114.995 39.5823L113.721 38.8364L113.721 38.8377C113.611 38.7733 113.498 38.7181 113.382 38.6748L77.2987 25.2005C76.3435 24.8437 75.103 25.2414 74.5277 26.0882L34.1645 85.4897C33.5891 86.3365 33.1226 87.8547 33.1226 88.8812C33.1226 90.5785 33.1226 92.8264 33.1226 92.8264L34.3735 93.5586L115.112 45.1245L115.112 41.1786C115.112 40.6985 114.938 40.1998 114.659 39.7662Z" fill="#8AE5CC"/>
<path d="M114.961 41.1789C114.961 40.7337 114.799 40.2621 114.533 39.8468L114.446 39.7121L114.587 39.6349L114.69 39.5773L113.871 39.0978L113.871 39.0998L113.644 38.967C113.593 38.9368 113.541 38.9083 113.489 38.883L113.33 38.8156L77.2466 25.341C76.4121 25.0293 75.333 25.3385 74.7593 26.0295L74.6519 26.172L34.2886 85.5744C34.012 85.9815 33.7565 86.5577 33.5708 87.1623C33.3851 87.7668 33.273 88.3875 33.2729 88.881L33.2729 92.7394L34.3726 93.383L114.961 45.0382L114.961 41.1789ZM115.261 45.2091L115.189 45.2531L34.4507 93.6877L34.3745 93.7326L34.2974 93.6877L34.3735 93.5588L34.3726 93.5578L34.2974 93.6877L33.0464 92.9562L32.9722 92.9123L32.9722 88.881C32.9722 88.3484 33.0934 87.697 33.2847 87.0744C33.476 86.4517 33.7418 85.8451 34.0405 85.4054L74.4038 26.0041L74.5269 25.84C75.1807 25.0507 76.3945 24.7025 77.3511 25.0597L113.435 38.5343L113.571 38.592L113.571 38.5744L113.796 38.7072L115.299 39.5861L115.067 39.714L114.868 39.8224C115.11 40.2421 115.261 40.715 115.261 41.1789L115.261 45.2091Z" fill="#0B4D5E"/>
<path d="M76.199 26.3762C76.0391 26.5001 75.8978 26.655 75.781 26.8222L35.4141 86.2213C35.119 86.6611 34.8485 87.2805 34.6641 87.9186L33.4102 87.1876C33.5024 86.8779 33.613 86.5743 33.7359 86.2894C33.7421 86.277 33.7421 86.2708 33.7482 86.2646C33.8036 86.1407 33.8589 86.023 33.9204 85.9053C33.9326 85.8868 33.9388 85.8682 33.9511 85.8496C34.0187 85.7195 34.0925 85.5956 34.1662 85.4903L74.527 26.0913C74.5885 25.9984 74.6561 25.924 74.7298 25.8435C74.7975 25.7753 74.8712 25.7072 74.945 25.6453L76.199 26.3762Z" fill="#8AE5CC"/>
<path d="M75.0205 25.5154L76.2744 26.2468L76.1982 26.3757L76.291 26.4949C76.1453 26.6078 76.0135 26.7499 75.9043 26.906L75.9053 26.907L35.5381 86.3035L35.5391 86.3044C35.255 86.7279 34.99 87.3324 34.8086 87.9597L34.7549 88.1453L33.335 87.3171L33.2324 87.2576L33.2666 87.1453L33.4209 86.6785C33.4765 86.5254 33.536 86.3755 33.5986 86.2302L33.6016 86.2224L33.6025 86.2195C33.6044 86.2148 33.6088 86.2052 33.6152 86.1941C33.6158 86.1931 33.6166 86.1921 33.6172 86.1912C33.6714 86.0701 33.7258 85.953 33.7871 85.8357L33.791 85.8289L33.7949 85.823L33.918 85.9031L33.916 85.9031L33.7949 85.823C33.7949 85.823 33.796 85.8217 33.7969 85.8201C33.7979 85.8181 33.7995 85.8158 33.8018 85.8113C33.8059 85.8029 33.8141 85.7846 33.8262 85.7664C33.8942 85.6368 33.9675 85.5117 34.043 85.4041L74.4033 26.0066C74.4718 25.9035 74.5464 25.8213 74.6191 25.7419L74.623 25.738L74.8486 25.53L74.9297 25.4626L75.0205 25.5154ZM74.8398 25.9441L74.8408 25.9451C74.7666 26.0261 74.7064 26.092 74.6523 26.1736L74.5273 26.0906L74.5469 26.1042L74.6523 26.1736L74.6514 26.1755L34.29 85.575L34.2891 85.5759C34.2198 85.6749 34.1492 85.7933 34.084 85.9187L34.0762 85.9324L34.0703 85.9441C34.0673 85.9503 34.0602 85.9606 34.0527 85.9734L34.0537 85.9744C33.9941 86.0884 33.9393 86.2037 33.8848 86.3259L33.874 86.3503L33.8721 86.3513C33.7668 86.5956 33.6727 86.8547 33.5898 87.1189L34.5762 87.6931C34.7606 87.1098 35.0121 86.5502 35.2891 86.1375L35.29 86.1365L75.6572 26.738L75.8086 26.8416L75.7812 26.822L75.6572 26.738L75.6582 26.7361L75.7559 26.6052C75.8136 26.5335 75.8768 26.4655 75.9434 26.4011L74.9639 25.8298C74.9219 25.8676 74.8789 25.9049 74.8398 25.9441ZM76.4668 26.3582L76.291 26.4949L76.1982 26.3757L76.2744 26.2468L76.4668 26.3582Z" fill="#0B4D5E"/>
<path d="M114.98 39.5767C114.869 39.5085 114.752 39.4528 114.636 39.4094L78.5469 25.9302C77.7847 25.6452 76.8381 25.8434 76.1988 26.3762L74.9448 25.6452C75.5903 25.1187 76.5307 24.9143 77.2991 25.1992L113.382 38.6723C113.498 38.7156 113.609 38.7714 113.72 38.8395L114.98 39.5767Z" fill="#8AE5CC"/>
<path d="M74.8501 25.5293C75.5311 24.9738 76.5265 24.7529 77.3511 25.0586L77.3521 25.0586L113.434 38.5313L113.62 38.6124C113.679 38.6418 113.737 38.6746 113.794 38.71L113.795 38.71L115.055 39.4473L115.054 39.4473C115.055 39.4481 115.057 39.4485 115.058 39.4493L114.904 39.7061L114.98 39.5762L114.996 39.5499L114.904 39.7061L114.901 39.7042L114.745 39.6192L114.583 39.5499L78.4946 26.0704C77.7881 25.8062 76.8968 25.9893 76.2944 26.4913L76.2144 26.5586L76.1235 26.5059L74.8696 25.7745L74.6821 25.6661L74.8501 25.5293ZM113.719 38.8399L113.687 38.8946L113.736 38.8126L113.719 38.8399ZM77.1118 25.2959C76.4937 25.1201 75.7723 25.2606 75.2173 25.6309L76.186 26.1954C76.7327 25.7784 77.4648 25.5775 78.1411 25.6739L77.2466 25.3399L77.1118 25.2959Z" fill="#0B4D5E"/>
<path d="M33.9487 85.8469C34.0182 85.7187 34.0901 85.5979 34.1639 85.4895C34.0901 85.5985 34.0182 85.7187 33.9487 85.8469Z" fill="#8AE5CC"/>
<path d="M34.2886 85.5735C34.2181 85.6777 34.1481 85.7935 34.0806 85.9182L33.8169 85.7756C33.8882 85.6439 33.9626 85.5193 34.0396 85.4055L34.2886 85.5735Z" fill="#0B4D5E"/>
<path d="M74.7305 25.8428C74.7987 25.7728 74.8706 25.7071 74.9468 25.6445C74.8706 25.7071 74.7975 25.7709 74.7305 25.8428Z" fill="#8AE5CC"/>
<path d="M75.042 25.7607C74.9699 25.8199 74.902 25.8815 74.8379 25.9473L74.6211 25.7402C74.6947 25.6613 74.7735 25.5924 74.8516 25.5283L75.042 25.7607Z" fill="#0B4D5E"/>
<path d="M33.4082 87.1886C33.5004 86.8777 33.6123 86.5711 33.7358 86.2874C33.6111 86.5717 33.5004 86.8771 33.4082 87.1886Z" fill="#8AE5CC"/>
<path d="M33.873 86.3469L33.7012 86.7795C33.6473 86.9275 33.597 87.0792 33.5518 87.2317L33.2646 87.1458C33.3135 86.981 33.3672 86.8172 33.4258 86.6575C33.4797 86.5103 33.5375 86.366 33.5986 86.2268L33.873 86.3469Z" fill="#0B4D5E"/>
<path d="M34.0518 85.9768C33.9934 86.0878 33.9364 86.202 33.8828 86.3225L33.6094 86.2014C33.6664 86.0732 33.7264 85.9517 33.7871 85.8362L34.0518 85.9768Z" fill="#0B4D5E"/>
<path opacity="0.2" d="M33.7358 86.2874C33.7395 86.2787 33.7426 86.27 33.7463 86.262C33.7426 86.27 33.7395 86.2793 33.7358 86.2874Z" fill="#0B4D5E"/>
<path opacity="0.2" d="M33.6099 86.1995L33.8823 86.3245C33.8821 86.3251 33.8814 86.3267 33.8804 86.3293C33.8789 86.333 33.8764 86.3415 33.8726 86.3499L33.5981 86.2288C33.5986 86.2278 33.5996 86.2271 33.6001 86.2258L33.5991 86.2249C33.5993 86.2244 33.5999 86.223 33.6011 86.22C33.6025 86.2164 33.6059 86.2081 33.6099 86.1995Z" fill="#0B4D5E"/>
<path opacity="0.2" d="M33.9194 85.9055C33.9292 85.8866 33.9383 85.8658 33.9486 85.8469C33.9389 85.8652 33.9298 85.8866 33.9194 85.9055Z" fill="#0B4D5E"/>
<path opacity="0.2" d="M34.0815 85.9172L34.0513 85.9778L33.7856 85.8372C33.7873 85.8339 33.8078 85.7914 33.8169 85.7747L34.0815 85.9172Z" fill="#0B4D5E"/>
<path opacity="0.2" d="M74.5273 26.0879C74.587 26.0006 74.6577 25.9207 74.7302 25.8433C74.6558 25.9195 74.587 26.0006 74.5273 26.0879Z" fill="#0B4D5E"/>
<path opacity="0.2" d="M74.8398 25.9458C74.7687 26.0217 74.7043 26.0948 74.6514 26.1724L74.4033 26.0034C74.4696 25.9063 74.5472 25.8196 74.6211 25.7407L74.623 25.7388L74.8398 25.9458Z" fill="#0B4D5E"/>
<path d="M75.7787 26.8203L35.4154 86.2219C34.8401 87.0686 34.3735 88.5869 34.3735 89.6133C34.3735 91.3106 34.3735 93.558 34.3735 93.558L116.363 45.8523L116.363 41.9108C116.363 40.8843 115.588 39.7631 114.633 39.4069L78.5503 25.9327C77.5951 25.5759 76.354 25.9736 75.7787 26.8203Z" fill="#0B4D5E"/>
<path d="M116.213 41.9111C116.213 41.4341 116.032 40.9262 115.733 40.4931C115.471 40.114 115.124 39.8012 114.745 39.6181L114.581 39.5478L78.4976 26.0732C77.6631 25.7616 76.584 26.0708 76.0103 26.7617L75.9028 26.9043L35.5395 86.3066C35.263 86.7137 35.0075 87.29 34.8218 87.8945C34.6361 88.4991 34.5239 89.1197 34.5239 89.6133L34.5239 93.2968L116.213 45.7656L116.213 41.9111ZM116.513 45.9384L116.439 45.9824L34.4487 93.6875L34.2231 93.8183L34.2231 89.6133C34.2232 89.0806 34.3444 88.4292 34.5356 87.8066C34.727 87.1839 34.9928 86.5773 35.2915 86.1377L75.6548 26.7363L75.7778 26.5722C76.4318 25.7829 77.6464 25.4347 78.603 25.792L114.685 39.2666L114.875 39.3467C115.309 39.556 115.693 39.9084 115.979 40.3222C116.306 40.7953 116.513 41.3618 116.513 41.9111L116.513 45.9384Z" fill="#0B4D5E"/>
<path d="M43.2952 150.976L40.668 149.443L40.6613 149.443L40.6348 149.423L40.6348 149.417C40.2463 149.171 40.0029 148.68 40.0029 147.97L40.0029 65.392C40.0029 64.6288 40.2925 63.7727 40.7406 63.03L43.4139 64.5824C42.9596 65.3257 42.6762 66.1812 42.6762 66.9511L42.6762 149.529C42.6762 150.226 42.9135 150.73 43.2952 150.976Z" fill="#8AE5CC"/>
<path d="M39.8525 147.97L39.8525 65.3923C39.8525 64.5947 40.1544 63.7118 40.6123 62.9529L40.6885 62.8259L40.8154 62.9001L43.4893 64.4529L43.4131 64.5818L43.4141 64.5828L43.4893 64.4529L43.6221 64.53L43.542 64.6609C43.0985 65.3866 42.8262 66.215 42.8262 66.9509L42.8262 149.529C42.8262 150.196 43.0526 150.641 43.376 150.849L43.2998 150.967L43.3027 150.962L43.376 150.849L43.2197 151.105L43.2139 151.101C43.2123 151.1 43.2106 151.1 43.209 151.099L40.6279 149.594L40.6113 149.594L40.5713 149.563L40.4844 149.499L40.4844 149.494C40.0823 149.2 39.8526 148.672 39.8525 147.97ZM40.1533 147.97C40.1534 148.648 40.3842 149.081 40.7148 149.29L40.7852 149.334L40.7852 149.338L42.6934 150.451C42.5849 150.19 42.5264 149.879 42.5264 149.529L42.5264 66.9509C42.5264 66.1929 42.7902 65.3663 43.21 64.6365L40.7959 63.2351C40.4008 63.9302 40.1533 64.7058 40.1533 65.3923L40.1533 147.97Z" fill="#0B4D5E"/>
<path d="M44.9414 63.0092L110.796 24.6975C112.044 23.9715 113.055 24.5599 113.055 26.0113L113.055 108.587C113.055 110.038 112.044 111.804 110.796 112.53L44.9426 150.842C43.6954 151.568 42.6836 150.979 42.6836 149.527L42.6836 66.952C42.683 65.5006 43.6941 63.7352 44.9414 63.0092Z" fill="#F0F4FF"/>
<path d="M112.905 108.586L112.905 26.0113C112.905 25.3169 112.664 24.8689 112.318 24.6675C112.016 24.4916 111.592 24.4801 111.091 24.7124L110.871 24.8267L45.0166 63.1382C44.4212 63.4848 43.8737 64.0859 43.4746 64.7827C43.1255 65.3924 42.8964 66.0649 42.8447 66.688L42.834 66.9517L42.834 149.527C42.834 150.222 43.0747 150.67 43.4209 150.872C43.7666 151.073 44.2711 151.058 44.8672 150.711L110.721 112.4L110.941 112.258C111.451 111.902 111.914 111.365 112.264 110.755C112.663 110.059 112.905 109.28 112.905 108.586ZM113.205 108.586C113.205 109.344 112.942 110.175 112.523 110.905C112.157 111.544 111.666 112.118 111.112 112.505L110.871 112.66L45.0176 150.971C44.3667 151.35 43.7414 151.405 43.2695 151.13C42.7982 150.856 42.5332 150.284 42.5332 149.527L42.5332 66.9517C42.5329 66.1938 42.7967 65.3645 43.2148 64.6343C43.633 63.9041 44.2144 63.2588 44.8662 62.8794L110.721 24.5679L110.963 24.4409C111.525 24.1801 112.056 24.1676 112.469 24.4077C112.94 24.682 113.205 25.2545 113.205 26.0113L113.205 108.586Z" fill="#0B4D5E"/>
<path d="M109.723 22.9871L112.304 24.4936C111.903 24.3077 111.376 24.3542 110.794 24.711L44.9366 63.0122C44.3465 63.3393 43.8154 63.9191 43.414 64.5825L40.7407 63.0302C41.136 62.3667 41.6757 61.7962 42.2615 61.4512L108.117 23.1395C108.749 22.7746 109.315 22.7412 109.723 22.9933L109.723 22.9871Z" fill="#F0F4FF"/>
<path d="M108.287 22.8818C108.755 22.6663 109.199 22.6229 109.573 22.7568L109.573 22.7256L112.379 24.3642L112.303 24.4931L112.241 24.6299C111.898 24.4714 111.425 24.4994 110.872 24.8388L110.869 24.8408L45.0122 63.1416L45.0093 63.1435L44.9419 63.0215L44.936 63.0117L45.0093 63.1435C44.4491 63.454 43.9351 64.0112 43.5425 64.6601L43.4663 64.7861L40.6655 63.1601L40.5347 63.084L40.6118 62.9531C41.0173 62.2726 41.5737 61.6824 42.1851 61.3222L42.186 61.3213L108.042 23.0097L108.287 22.8818ZM109.644 23.1211C109.344 22.9354 108.92 22.9207 108.414 23.1543L108.192 23.2695L42.3364 61.581L42.3354 61.58C41.8137 61.8878 41.3263 62.389 40.9507 62.9785L43.3647 64.3799C43.7652 63.7537 44.2824 63.2031 44.8638 62.8808L110.718 24.581C111.02 24.3967 111.314 24.288 111.59 24.2509L109.873 23.247L109.873 23.2627L109.644 23.1211ZM112.241 24.6299L112.303 24.4931L112.379 24.3642L112.241 24.6299Z" fill="#0B4D5E"/>
<path d="M50.0759 67.3315L104.843 35.4664C105.578 35.039 106.174 35.3425 106.174 36.1447C106.174 36.9469 105.578 37.9442 104.843 38.3716L50.0759 70.2367C49.3408 70.6642 48.7451 70.3606 48.7451 69.5584C48.7451 68.7563 49.3408 67.7589 50.0759 67.3315Z" fill="#8AE5CC"/>
<path d="M106.024 36.1448C106.024 35.7786 105.89 35.5664 105.716 35.4778C105.56 35.3985 105.329 35.3955 105.044 35.5296L104.919 35.596L50.1514 67.4612C49.8104 67.6594 49.4945 67.9949 49.2637 68.3811C49.0326 68.7679 48.8955 69.192 48.8955 69.5589C48.8956 69.9248 49.0293 70.1363 49.2031 70.2249C49.3815 70.3157 49.6579 70.3062 50.001 70.1067L104.768 38.2425L104.894 38.1614C105.186 37.959 105.453 37.6597 105.655 37.3216C105.886 36.9348 106.024 36.5116 106.024 36.1448ZM106.324 36.1448C106.324 36.5801 106.164 37.0566 105.913 37.4759C105.693 37.8431 105.398 38.1771 105.063 38.4085L104.918 38.5012L50.1514 70.3665C49.7593 70.5944 49.3697 70.647 49.0664 70.4925C48.7589 70.3356 48.5948 69.9945 48.5947 69.5589C48.5947 69.1236 48.7554 68.647 49.0059 68.2278C49.2567 67.808 49.6068 67.4306 50.001 67.2014L104.768 35.3372L104.915 35.26C105.256 35.0995 105.587 35.076 105.853 35.2112C106.16 35.3681 106.324 35.7089 106.324 36.1448Z" fill="#0B4D5E"/>
<path d="M50.0759 73.1229L104.843 41.2584C105.578 40.831 106.174 41.1345 106.174 41.9367C106.174 42.7389 105.578 43.7362 104.843 44.1636L50.0759 76.0281C49.3408 76.4555 48.7451 76.152 48.7451 75.3498C48.7451 74.5476 49.3408 73.5503 50.0759 73.1229Z" fill="#8AE5CC"/>
<path d="M106.024 41.9368C106.024 41.5706 105.89 41.3584 105.716 41.2698C105.56 41.1905 105.329 41.1875 105.044 41.3216L104.919 41.388L50.1514 73.2522C49.8104 73.4505 49.4945 73.7868 49.2637 74.1731C49.0327 74.5598 48.8955 74.9831 48.8955 75.3499C48.8955 75.7161 49.0292 75.9282 49.2031 76.0169C49.3815 76.1076 49.6581 76.0981 50.001 75.8987L104.768 44.0344L104.894 43.9534C105.186 43.751 105.453 43.4516 105.655 43.1135C105.886 42.7268 106.024 42.3036 106.024 41.9368ZM106.324 41.9368C106.324 42.3721 106.164 42.8486 105.913 43.2678C105.693 43.6351 105.398 43.9691 105.063 44.2005L104.918 44.2932L50.1514 76.1575C49.7593 76.3854 49.3697 76.438 49.0664 76.2835C48.7589 76.1266 48.5947 75.7857 48.5947 75.3499C48.5947 74.9146 48.7554 74.4381 49.0059 74.0188C49.2567 73.5991 49.6068 73.2226 50.001 72.9934L104.768 41.1292L104.915 41.052C105.256 40.8915 105.587 40.868 105.853 41.0032C106.16 41.1601 106.324 41.5009 106.324 41.9368Z" fill="#0B4D5E"/>
<path d="M50.0759 78.9142L104.843 47.0497C105.578 46.6222 106.174 46.9258 106.174 47.728C106.174 48.5301 105.578 49.5275 104.843 49.9549L50.0759 81.8194C49.3408 82.2468 48.7451 81.9433 48.7451 81.1411C48.7451 80.3389 49.3408 79.3416 50.0759 78.9142Z" fill="#8AE5CC"/>
<path d="M106.024 47.728C106.024 47.3618 105.89 47.1497 105.716 47.0611C105.56 46.9817 105.329 46.9788 105.044 47.1128L104.919 47.1792L50.1514 79.0435C49.8104 79.2417 49.4945 79.5781 49.2637 79.9644C49.0327 80.3511 48.8955 80.7743 48.8955 81.1411C48.8955 81.5073 49.0292 81.7195 49.2031 81.8081C49.3815 81.8989 49.6581 81.8893 50.001 81.69L104.768 49.8257L104.894 49.7446C105.186 49.5423 105.453 49.2429 105.655 48.9048C105.886 48.5181 106.024 48.0948 106.024 47.728ZM106.324 47.728C106.324 48.1634 106.164 48.6399 105.913 49.0591C105.693 49.4264 105.398 49.7604 105.063 49.9917L104.918 50.0845L50.1514 81.9487C49.7593 82.1767 49.3697 82.2293 49.0664 82.0747C48.7589 81.9178 48.5947 81.5769 48.5947 81.1411C48.5947 80.7058 48.7554 80.2293 49.0059 79.8101C49.2567 79.3903 49.6068 79.0138 50.001 78.7847L104.768 46.9204L104.915 46.8433C105.256 46.6827 105.587 46.6592 105.853 46.7945C106.16 46.9513 106.324 47.2922 106.324 47.728Z" fill="#0B4D5E"/>
<path d="M50.0759 84.7053L104.843 52.8402C105.578 52.4128 106.174 52.7163 106.174 53.5185C106.174 54.3207 105.578 55.318 104.843 55.7454L50.0759 87.6105C49.3408 88.0379 48.7451 87.7344 48.7451 86.9322C48.7451 86.13 49.3408 85.1327 50.0759 84.7053Z" fill="#8AE5CC"/>
<path d="M106.024 53.5186C106.024 53.1524 105.89 52.9402 105.716 52.8516C105.56 52.7723 105.329 52.7693 105.044 52.9033L104.919 52.9697L50.1514 84.835C49.8104 85.0332 49.4945 85.3687 49.2637 85.7549C49.0326 86.1417 48.8955 86.5658 48.8955 86.9326C48.8956 87.2986 49.0293 87.5101 49.2031 87.5987C49.3815 87.6895 49.6579 87.6799 50.001 87.4805L104.768 55.6162L104.894 55.5352C105.186 55.3328 105.453 55.0334 105.655 54.6953C105.886 54.3086 106.024 53.8853 106.024 53.5186ZM106.324 53.5186C106.324 53.9539 106.164 54.4304 105.913 54.8496C105.693 55.2169 105.398 55.5509 105.063 55.7822L104.918 55.875L50.1514 87.7403C49.7593 87.9682 49.3697 88.0208 49.0664 87.8662C48.7589 87.7094 48.5948 87.3683 48.5947 86.9326C48.5947 86.4974 48.7554 86.0208 49.0059 85.6016C49.2567 85.1818 49.6068 84.8044 50.001 84.5752L104.768 52.711L104.915 52.6338C105.256 52.4732 105.587 52.4498 105.853 52.585C106.16 52.7419 106.324 53.0827 106.324 53.5186Z" fill="#0B4D5E"/>
<path d="M50.0759 90.4972L104.843 58.6327C105.578 58.2052 106.174 58.5088 106.174 59.311C106.174 60.1132 105.578 61.1105 104.843 61.5379L50.0759 93.4024C49.3408 93.8298 48.7451 93.5263 48.7451 92.7241C48.7451 91.9219 49.3408 90.9246 50.0759 90.4972Z" fill="#8AE5CC"/>
<path d="M106.024 59.3111C106.024 58.9448 105.89 58.7327 105.716 58.6441C105.56 58.5648 105.329 58.5618 105.044 58.6958L104.919 58.7622L50.1514 90.6265C49.8104 90.8247 49.4945 91.1611 49.2637 91.5474C49.0327 91.9341 48.8955 92.3573 48.8955 92.7241C48.8955 93.0903 49.0292 93.3025 49.2031 93.3911C49.3815 93.4819 49.6581 93.4723 50.001 93.273L104.768 61.4087L104.894 61.3277C105.186 61.1253 105.453 60.8259 105.655 60.4878C105.886 60.1011 106.024 59.6778 106.024 59.3111ZM106.324 59.3111C106.324 59.7464 106.164 60.2229 105.913 60.6421C105.693 61.0094 105.398 61.3434 105.063 61.5747L104.918 61.6675L50.1514 93.5318C49.7593 93.7597 49.3697 93.8123 49.0664 93.6577C48.7589 93.5008 48.5947 93.1599 48.5947 92.7241C48.5947 92.2888 48.7554 91.8124 49.0059 91.3931C49.2567 90.9733 49.6068 90.5969 50.001 90.3677L104.768 58.5034L104.915 58.4263C105.256 58.2657 105.587 58.2423 105.853 58.3775C106.16 58.5343 106.324 58.8752 106.324 59.3111Z" fill="#0B4D5E"/>
<path d="M50.0759 96.2883L104.843 64.4232C105.578 63.9958 106.174 64.2993 106.174 65.1015C106.174 65.9037 105.578 66.901 104.843 67.3284L50.0759 99.1935C49.3408 99.621 48.7451 99.3174 48.7451 98.5152C48.7451 97.713 49.3408 96.7157 50.0759 96.2883Z" fill="#8AE5CC"/>
<path d="M106.024 65.1016C106.024 64.7354 105.89 64.5232 105.716 64.4346C105.56 64.3553 105.329 64.3523 105.044 64.4863L104.919 64.5528L50.1514 96.418C49.8104 96.6162 49.4945 96.9517 49.2637 97.3379C49.0326 97.7247 48.8955 98.1488 48.8955 98.5156C48.8956 98.8816 49.0293 99.0931 49.2031 99.1817C49.3815 99.2725 49.6579 99.263 50.001 99.0635L104.768 67.1992L104.894 67.1182C105.186 66.9158 105.453 66.6164 105.655 66.2783C105.886 65.8916 106.024 65.4684 106.024 65.1016ZM106.324 65.1016C106.324 65.5369 106.164 66.0134 105.913 66.4326C105.693 66.7999 105.398 67.1339 105.063 67.3653L104.918 67.458L50.1514 99.3233C49.7593 99.5512 49.3697 99.6038 49.0664 99.4492C48.7589 99.2924 48.5948 98.9513 48.5947 98.5156C48.5947 98.0804 48.7554 97.6038 49.0059 97.1846C49.2567 96.7648 49.6068 96.3874 50.001 96.1582L104.768 64.294L104.915 64.2168C105.256 64.0563 105.587 64.0328 105.853 64.168C106.16 64.3249 106.324 64.6657 106.324 65.1016Z" fill="#0B4D5E"/>
<path d="M50.0759 102.08L104.843 70.2152C105.578 69.7878 106.174 70.0913 106.174 70.8935C106.174 71.6957 105.578 72.693 104.843 73.1204L50.0759 104.985C49.3408 105.412 48.7451 105.109 48.7451 104.307C48.7451 103.504 49.3408 102.507 50.0759 102.08Z" fill="#8AE5CC"/>
<path d="M106.024 70.8936C106.024 70.5274 105.89 70.3152 105.716 70.2266C105.56 70.1473 105.329 70.1443 105.044 70.2783L104.919 70.3447L50.1514 102.209C49.8104 102.407 49.4945 102.744 49.2637 103.13C49.0327 103.517 48.8955 103.94 48.8955 104.307C48.8955 104.673 49.0292 104.885 49.2031 104.974C49.3815 105.064 49.6581 105.055 50.001 104.855L104.768 72.9912L104.894 72.9102C105.186 72.7078 105.453 72.4084 105.655 72.0703C105.886 71.6836 106.024 71.2603 106.024 70.8936ZM106.324 70.8936C106.324 71.3289 106.164 71.8054 105.913 72.2246C105.693 72.5919 105.398 72.9259 105.063 73.1572L104.918 73.25L50.1514 105.114C49.7593 105.342 49.3697 105.395 49.0664 105.24C48.7589 105.083 48.5947 104.742 48.5947 104.307C48.5947 103.871 48.7554 103.395 49.0059 102.976C49.2567 102.556 49.6068 102.179 50.001 101.95L104.768 70.086L104.915 70.0088C105.256 69.8482 105.587 69.8248 105.853 69.96C106.16 70.1169 106.324 70.4577 106.324 70.8936Z" fill="#0B4D5E"/>
<path d="M50.0759 107.871L104.843 76.0057C105.578 75.5783 106.174 75.8818 106.174 76.684C106.174 77.4862 105.578 78.4835 104.843 78.9109L50.0759 110.775C49.3408 111.203 48.7451 110.899 48.7451 110.097C48.7451 109.295 49.3408 108.298 50.0759 107.87L50.0759 107.871Z" fill="#8AE5CC"/>
<path d="M106.024 76.6841C106.024 76.3179 105.89 76.1057 105.716 76.0171C105.56 75.9378 105.329 75.9348 105.044 76.0689L104.919 76.1353L50.1514 108.001L50.1338 108.009C49.7993 108.209 49.4906 108.541 49.2637 108.92C49.0327 109.307 48.8955 109.73 48.8955 110.097C48.8955 110.463 49.0292 110.676 49.2031 110.764C49.3815 110.855 49.6581 110.845 50.001 110.646L104.768 78.7818L104.894 78.7007C105.186 78.4983 105.453 78.199 105.655 77.8609C105.886 77.4741 106.024 77.0509 106.024 76.6841ZM106.324 76.6841C106.324 77.1194 106.164 77.5959 105.913 78.0152C105.693 78.3825 105.398 78.7164 105.063 78.9478L104.918 79.0405L50.1514 110.905C49.7593 111.133 49.3697 111.185 49.0664 111.031C48.7589 110.874 48.5947 110.533 48.5947 110.097C48.5947 109.662 48.7554 109.185 49.0059 108.766C49.2567 108.346 49.6068 107.97 50.001 107.741L104.768 75.8765L104.915 75.7993C105.256 75.6388 105.587 75.6153 105.853 75.7505C106.16 75.9074 106.324 76.2482 106.324 76.6841Z" fill="#0B4D5E"/>
<path d="M117.854 111.486C117.83 111.53 117.806 111.567 117.769 111.61L83.6022 96.3391C80.919 95.1379 77.7773 96.1161 76.2185 98.6298L39.6934 157.691L38.3429 158.477L38.3306 158.483C37.9212 158.712 37.5543 158.743 37.2856 158.601L74.8502 97.8555C76.409 95.3424 79.5563 94.3642 82.2394 95.5585L117.854 111.486Z" fill="#8AE5CC"/>
<path d="M74.7231 97.7767C76.3211 95.2006 79.548 94.1963 82.3003 95.4212L118.066 111.417L117.985 111.561C117.957 111.61 117.928 111.655 117.883 111.707L117.775 111.616L117.774 111.615L117.883 111.707L117.81 111.793L117.708 111.747L83.5405 96.4759C80.9269 95.3061 77.8659 96.2586 76.3462 98.7093L76.3452 98.7083L39.8208 157.77L39.8013 157.801L39.769 157.821L38.4185 158.607L38.4106 158.611L38.3462 158.483L38.3423 158.477L38.4106 158.611L38.3979 158.617C38.0203 158.827 37.6505 158.892 37.3433 158.788L37.2153 158.733L37.0737 158.659L37.1577 158.522L74.7231 97.7767L74.8501 97.8558L74.978 97.9349L37.5112 158.522C37.7061 158.561 37.9591 158.519 38.2573 158.352L38.2671 158.347L39.5854 157.578L76.0913 98.5511L76.2456 98.3138C77.6373 96.2824 80.0764 95.3227 82.4097 95.7991L82.1782 95.6956C79.5643 94.5322 76.4978 95.4848 74.978 97.9349L74.7231 97.7767Z" fill="#0B4D5E"/>
<path opacity="0.4" d="M72.855 103.999L72.9411 103.925L39.6923 157.693L38.34 158.48L38.3277 158.486C37.922 158.715 37.5532 158.74 37.2827 158.604L71.5396 103.206L72.855 103.999Z" fill="#F0F4FF"/>
<path opacity="0.4" d="M71.6167 103.077L72.8394 103.815L72.8433 103.812L73.5825 103.172L39.8198 157.772L39.8003 157.804L39.7681 157.823L38.4155 158.61L38.4077 158.615L38.395 158.62L38.394 158.619C37.9634 158.861 37.5432 158.903 37.2153 158.738L37.0688 158.664L37.1548 158.525L71.4116 103.127L71.4897 103.001L71.6167 103.077ZM37.5093 158.522C37.7072 158.561 37.9616 158.521 38.2544 158.356L38.2603 158.352L38.2622 158.35L39.5845 157.581L72.6772 104.067L71.5894 103.411L37.5093 158.522Z" fill="#0B4D5E"/>
<path d="M119.906 49.3353L119.9 49.3353C119.826 48.8893 119.592 48.7654 119.291 48.976C119.174 49.0566 119.039 49.1928 118.898 49.3849L118.726 49.6265L85.0096 96.9276L79.9752 103.996C79.4097 104.801 78.168 105.265 77.203 105.042L72.8571 104.002L39.6821 96.048C39.4424 95.9923 39.2149 95.9861 39.0059 96.0233C38.9199 96.0418 38.8338 96.0666 38.7539 96.1038L39.6698 95.5711L71.6523 103.234L75.9982 104.274C76.9571 104.504 78.1988 104.039 78.7704 103.227L83.8048 96.1657L117.687 48.6229C117.797 48.4681 117.933 48.3566 118.068 48.2699L115.136 46.5664L116.365 45.854L118.394 47.031C119.131 47.4646 119.752 48.4371 119.906 49.3353Z" fill="#8AE5CC"/>
<path d="M116.44 45.7241L118.469 46.9009L118.47 46.9019L118.614 46.9937C119.281 47.4538 119.826 48.309 120.018 49.1343L120.054 49.3101L120.084 49.4849L119.772 49.4849L119.752 49.3599L119.721 49.2251C119.685 49.1114 119.639 49.059 119.605 49.0396C119.573 49.0212 119.505 49.0093 119.377 49.0991C119.279 49.167 119.154 49.29 119.019 49.4741L80.0977 104.083L80.0967 104.082C79.793 104.514 79.3154 104.848 78.792 105.045C78.3339 105.218 77.8309 105.29 77.3662 105.225L77.1689 105.189L77.168 105.188L39.6475 96.1938C39.4262 96.1425 39.2194 96.1381 39.0322 96.1714L39.0312 96.1704C38.9537 96.1874 38.8818 96.2098 38.8174 96.2397L38.6787 95.9741L39.5947 95.4409L39.6465 95.4116L39.7051 95.4253L76.0332 104.128L76.2031 104.161C76.607 104.219 77.0568 104.159 77.4766 104C77.9562 103.82 78.3823 103.517 78.6475 103.141L78.6484 103.14L117.564 48.5356L117.663 48.4136C117.706 48.3665 117.751 48.3244 117.796 48.2856L114.837 46.5659L115.061 46.437L116.29 45.7241L116.365 45.6802L116.44 45.7241ZM115.434 46.5659L118.355 48.2632L118.148 48.396L118.057 48.4595C117.996 48.5048 117.938 48.5564 117.885 48.6157L117.809 48.7105L78.8926 103.313L78.8936 103.314C78.587 103.749 78.1058 104.084 77.582 104.282C77.1239 104.454 76.6219 104.525 76.1592 104.458L75.9629 104.42L39.6924 95.731L39.4678 95.8618C39.5492 95.8703 39.6321 95.8824 39.7158 95.9019L77.2354 104.896C77.6836 105 78.2067 104.945 78.6865 104.764C79.1662 104.583 79.5907 104.282 79.8525 103.91L79.8535 103.909L118.604 49.5396L118.775 49.2974L118.776 49.2964L118.887 49.1558C118.996 49.025 119.104 48.923 119.205 48.853L119.339 48.7769C119.416 48.7422 119.495 48.7235 119.574 48.7271C119.312 48.0769 118.842 47.4693 118.317 47.1606L116.364 46.0269L115.434 46.5659Z" fill="#0B4D5E"/>
<path opacity="0.4" d="M85.0075 96.9251L79.9731 103.993C79.4076 104.798 78.1659 105.263 77.2009 105.04L72.855 103.999L72.941 103.925L73.15 103.59L75.9961 104.272C76.955 104.501 78.1967 104.036 78.7683 103.225L83.7535 96.2375L85.0075 96.9251Z" fill="#F0F4FF"/>
<path opacity="0.4" d="M83.8257 96.1057L85.0796 96.7932L85.2271 96.8743L85.1294 97.012L80.0952 104.078L80.0962 104.079C79.7926 104.512 79.3131 104.845 78.7896 105.042C78.266 105.239 77.6842 105.305 77.1675 105.186L77.2231 104.946L77.1655 105.186L72.8198 104.145L72.5356 104.077L72.7573 103.886L72.8257 103.827L73.0229 103.511L73.0796 103.419L73.1851 103.445L76.0308 104.126L76.2007 104.158C76.6045 104.217 77.0544 104.156 77.4741 103.998C77.9538 103.818 78.3809 103.515 78.646 103.139L78.646 103.138L83.6313 96.1506L83.7085 96.0422L83.8257 96.1057ZM77.1675 105.186L77.1655 105.186L77.2007 105.04L77.1675 105.186ZM78.8901 103.311L78.8911 103.312C78.5846 103.747 78.1041 104.081 77.5806 104.279C77.1222 104.451 76.6197 104.523 76.1567 104.455L75.9614 104.417L73.2192 103.761L73.1265 103.909L77.2358 104.894L77.2349 104.894C77.6831 104.997 78.2043 104.943 78.6841 104.762C79.164 104.581 79.5882 104.279 79.8501 103.906L79.8511 103.906L84.7866 96.9749L83.7974 96.4329L78.8901 103.311Z" fill="#0B4D5E"/>
<path d="M40.3563 97.0367L33.1226 92.8269L33.1226 155.571C33.1226 156.558 33.8165 157.769 34.6654 158.263L36.4038 159.275C37.2521 159.768 38.6407 159.768 39.4883 159.275L40.3563 158.77L40.3563 97.0367Z" fill="#8AE5CC"/>
<path d="M33.1978 92.697L40.4321 96.907L40.5063 96.95L40.5063 158.856L40.4321 158.899L39.564 159.404C39.1117 159.667 38.5242 159.795 37.9458 159.795C37.4399 159.795 36.9276 159.697 36.5044 159.497L36.3286 159.404L34.5903 158.392C34.1375 158.129 33.7349 157.681 33.4458 157.177C33.1567 156.672 32.9722 156.097 32.9722 155.571L32.9722 92.5662L33.1978 92.697ZM33.2729 155.571C33.273 156.032 33.4355 156.557 33.7056 157.028C33.9757 157.499 34.3447 157.903 34.7407 158.134L36.479 159.145L36.6333 159.226C37.0074 159.404 37.4735 159.495 37.9458 159.495C38.4855 159.495 39.0172 159.375 39.4126 159.145L40.2065 158.683L40.2065 97.1228L33.2729 93.0876L33.2729 155.571Z" fill="#0B4D5E"/>
<path d="M40.3563 97.0367L33.1226 92.8269L33.1226 155.571C33.1226 156.558 33.8165 157.769 34.6654 158.263L36.4038 159.275C37.2521 159.768 38.6407 159.768 39.4883 159.275L40.3563 158.77L40.3563 97.0367Z" fill="#0B4D5E"/>
<path d="M33.1978 92.697L40.4321 96.907L40.5063 96.95L40.5063 158.856L40.4321 158.899L39.564 159.404C39.1117 159.667 38.5242 159.795 37.9458 159.795C37.4399 159.795 36.9276 159.697 36.5044 159.497L36.3286 159.404L34.5903 158.392C34.1375 158.129 33.7349 157.681 33.4458 157.177C33.1567 156.672 32.9722 156.097 32.9722 155.571L32.9722 92.5662L33.1978 92.697ZM33.2729 155.571C33.273 156.032 33.4355 156.557 33.7056 157.028C33.9757 157.499 34.3447 157.903 34.7407 158.134L36.479 159.145L36.6333 159.226C37.0074 159.404 37.4735 159.495 37.9458 159.495C38.4855 159.495 39.0172 159.375 39.4126 159.145L40.2065 158.683L40.2065 97.1228L33.2729 93.0876L33.2729 155.571Z" fill="#0B4D5E"/>
<path d="M118.726 49.6265L118.726 109.911C118.726 110.419 118.547 110.989 118.246 111.485C118.006 111.894 117.693 112.259 117.343 112.501L117.287 112.538C117.25 112.563 117.22 112.587 117.183 112.606L38.2807 158.507L38.2684 158.513C38.1639 158.575 38.0655 158.625 37.9672 158.656C37.9549 158.569 37.9487 158.476 37.9487 158.377L37.9487 97.4232C37.9487 96.4383 38.7171 95.8188 39.6822 96.048L72.8572 104.002L77.203 105.042C78.1681 105.265 79.4098 104.801 79.9753 103.996L85.0097 96.9277L118.726 49.6265Z" fill="#0B4D5E"/>
<path d="M37.7983 97.4233C37.7983 96.8909 38.0072 96.4437 38.3599 96.1626C38.6685 95.9165 39.0763 95.8064 39.5229 95.8657L39.7173 95.9019L77.2358 104.896C77.6841 105 78.2062 104.945 78.686 104.764C79.1659 104.583 79.5911 104.283 79.853 103.91L118.875 49.1577L118.875 109.912C118.875 110.452 118.687 111.049 118.375 111.563C118.127 111.985 117.799 112.368 117.427 112.625L117.426 112.625L117.371 112.663C117.349 112.677 117.303 112.711 117.257 112.735L117.258 112.736L38.356 158.637L38.3481 158.641L38.3403 158.644C38.2327 158.708 38.1248 158.764 38.0122 158.799L37.8433 158.852L37.8188 158.677L37.8032 158.531C37.7999 158.481 37.7983 158.43 37.7983 158.377L37.7983 97.4233ZM38.0991 158.377C38.0991 158.396 38.0996 158.415 38.1001 158.433C38.1292 158.418 38.1605 158.403 38.1919 158.384L38.2007 158.379L38.2075 158.375L117.107 112.476L117.182 112.606L117.179 112.599L117.107 112.476L117.115 112.472L117.204 112.414L117.257 112.377L117.379 112.287C117.66 112.063 117.914 111.754 118.117 111.409L118.246 111.485L118.233 111.476L118.117 111.409L118.118 111.407L118.221 111.225C118.447 110.795 118.576 110.328 118.576 109.912L118.576 50.0952L80.0972 104.081L80.0981 104.082C79.7945 104.514 79.3151 104.848 78.7915 105.045C78.268 105.242 77.686 105.308 77.1694 105.189L77.2026 105.042L77.1929 105.084L77.1694 105.189L77.1685 105.188L39.647 96.1938C39.2043 96.0889 38.8198 96.1807 38.5474 96.3979C38.2745 96.6155 38.0991 96.9709 38.0991 97.4233L38.0991 158.377Z" fill="#0B4D5E"/>
<path d="M119.937 49.7255L119.937 110.673C119.937 111.187 119.752 111.751 119.457 112.247C119.211 112.655 118.904 113.021 118.553 113.269L118.492 113.3C118.455 113.324 118.431 113.349 118.394 113.368L39.4916 159.269L39.4793 159.275C39.0675 159.511 38.6987 159.542 38.4282 159.399C38.1885 159.275 38.0225 159.021 37.9672 158.656C37.9549 158.569 37.9487 158.476 37.9487 158.377L37.9487 97.4232C37.9487 96.4382 38.7171 95.8188 39.6822 96.048L72.8572 104.002L77.203 105.042C78.1681 105.265 79.4098 104.801 79.9753 103.996L85.0097 96.9276L118.726 49.6264L118.898 49.3848C119.469 48.5857 119.937 48.7344 119.937 49.7255Z" fill="#8AE5CC"/>
<path d="M119.787 110.673L119.787 49.7258C119.787 49.4877 119.758 49.3121 119.714 49.1945C119.67 49.0759 119.619 49.0375 119.585 49.0265C119.553 49.0158 119.489 49.0163 119.384 49.0861C119.281 49.1552 119.157 49.2801 119.02 49.4719L118.776 49.2971C118.924 49.0896 119.073 48.9339 119.218 48.8371C119.362 48.741 119.523 48.6909 119.678 48.7414C119.833 48.7919 119.934 48.9266 119.995 49.089C120.056 49.2531 120.086 49.4684 120.086 49.7258L120.086 110.673C120.086 111.221 119.892 111.811 119.586 112.323L119.515 112.281L119.457 112.246L119.586 112.323C119.333 112.744 119.012 113.128 118.64 113.391L118.55 113.264L118.553 113.269L118.64 113.391L118.631 113.398L118.621 113.403L118.57 113.428C118.559 113.435 118.55 113.443 118.534 113.455C118.516 113.469 118.492 113.487 118.461 113.502L118.46 113.501L39.5669 159.399L39.5591 159.403L39.5532 159.404L39.5542 159.405C39.1176 159.655 38.6916 159.706 38.3589 159.531C38.0652 159.38 37.8792 159.076 37.8188 158.678L37.8032 158.53C37.7999 158.481 37.7983 158.43 37.7983 158.377L37.7983 97.423C37.7984 96.8907 38.0074 96.4444 38.3599 96.1633C38.7127 95.8819 39.1952 95.7776 39.7173 95.9015L77.2378 104.897C77.686 105 78.2063 104.945 78.686 104.764C79.1659 104.583 79.5911 104.282 79.853 103.909L118.603 49.5392L118.776 49.2971L118.898 49.3849L119.02 49.4719L80.0972 104.08L80.0981 104.081C79.7945 104.514 79.3151 104.848 78.7915 105.045C78.268 105.242 77.6861 105.308 77.1694 105.189L77.2212 104.965L77.1899 105.098L77.1694 105.189L39.647 96.1935C39.2044 96.0886 38.8198 96.1805 38.5474 96.3976C38.2746 96.6151 38.0991 96.9706 38.0991 97.423L38.0991 158.377C38.0991 158.469 38.1047 158.555 38.1157 158.633L38.1392 158.752C38.2032 159.015 38.3344 159.182 38.4966 159.266L38.4985 159.267L38.5806 159.302C38.785 159.371 39.0661 159.338 39.4048 159.145L39.4116 159.141L39.4731 159.265L39.4741 159.266L39.4116 159.141L39.4185 159.137L118.318 113.238L118.326 113.234L118.352 113.216C118.363 113.208 118.386 113.19 118.409 113.175L118.424 113.165L118.489 113.295L118.49 113.296L118.424 113.165L118.473 113.141C118.717 112.967 118.942 112.73 119.139 112.456L119.329 112.169C119.613 111.691 119.787 111.154 119.787 110.673Z" fill="#0B4D5E"/>
<path d="M37.9473 158.375C37.9473 158.889 38.1317 159.242 38.428 159.397C38.7009 159.541 39.0691 159.511 39.4785 159.278L39.4901 159.272L66.6553 143.468L72.8594 104L37.9473 157.362L37.9473 158.374L37.9473 158.375Z" fill="#8AE5CC"/>
<path d="M66.8037 143.491L66.792 143.562L66.7305 143.598L39.5654 159.401L39.5605 159.404L39.5488 159.41C39.1694 159.626 38.7977 159.691 38.4873 159.586L38.3584 159.53C37.995 159.34 37.7969 158.922 37.7969 158.375L37.7969 157.317L37.8213 157.279L73.1162 103.334L66.8037 143.491ZM38.0977 158.375C38.0977 158.857 38.269 159.144 38.498 159.265L38.582 159.301C38.7884 159.37 39.0688 159.339 39.4043 159.147L39.4082 159.146L39.4199 159.139L66.5176 143.374L72.6016 104.667L38.0977 157.406L38.0977 158.375Z" fill="#0B4D5E"/>
<path d="M76.2048 98.6224L38.4257 159.397C38.1307 159.242 37.9463 158.889 37.9463 158.375L37.9463 157.365L71.2811 103.621L71.5393 103.206L74.8525 97.8543C74.8525 97.8481 74.8586 97.8419 74.8648 97.8357L76.2048 98.6224Z" fill="#0B4D5E"/>
<path d="M74.9404 97.7068L76.2803 98.4929L76.4131 98.571L76.332 98.7019L38.5527 159.475L38.4795 159.594L38.3564 159.529C37.9942 159.339 37.796 158.921 37.7959 158.375L37.7959 157.322L71.1533 103.543L71.4121 103.127L74.7246 97.7751C74.7295 97.7664 74.7334 97.7595 74.7363 97.7556C74.7456 97.7432 74.7556 97.7324 74.7578 97.7302L74.8398 97.6472L74.9404 97.7068ZM38.0967 158.375C38.0967 158.771 38.2139 159.034 38.3818 159.182L75.9951 98.6726L74.915 98.0378L71.667 103.285L71.5391 103.206L71.5957 103.241L71.667 103.285L71.4082 103.701L71.4072 103.7L38.0967 157.407L38.0967 158.375Z" fill="#0B4D5E"/>
<path d="M119.455 112.25C119.212 112.657 118.903 113.022 118.553 113.267L118.494 113.303L39.4904 159.272L39.4787 159.278C39.0693 159.511 38.7011 159.541 38.4282 159.397L76.211 98.6132C77.7766 96.0939 80.941 95.1158 83.6395 96.3163L119.455 112.25Z" fill="#8AE5CC"/>
<path d="M76.2388 98.2963C77.8909 95.8909 81.0199 94.9865 83.7007 96.1791L119.516 112.113L119.67 112.182L119.584 112.327L119.456 112.249L119.455 112.249L119.584 112.327C119.334 112.746 119.011 113.129 118.639 113.39L118.631 113.396L118.63 113.395L118.572 113.431L118.569 113.433L39.5659 159.402L39.561 159.405L39.5493 159.411C39.1156 159.657 38.6915 159.706 38.3579 159.531L38.2153 159.455L38.3013 159.319L76.0835 98.5345L76.2388 98.2963ZM83.5786 96.4535C81.0312 95.3202 78.0569 96.1786 76.4858 98.4662L76.3384 98.6927L38.6528 159.319C38.8508 159.36 39.1059 159.318 39.4048 159.148L39.4087 159.145L39.4145 159.142L118.418 113.173L118.467 113.143C118.755 112.941 119.014 112.649 119.233 112.315L83.5786 96.4535Z" fill="#0B4D5E"/>
<path d="M33.41 87.1875L34.664 87.9185C34.4857 88.5131 34.3751 89.1202 34.3751 89.6157L34.3751 93.5554L33.1211 92.8245L33.1211 88.8786C33.1211 88.3892 33.2317 87.7822 33.41 87.1875Z" fill="#0B4D5E"/>
<path d="M32.9707 88.8789C32.9707 88.3701 33.0858 87.7476 33.2666 87.1445L33.3213 86.9619L34.7393 87.7891L34.8418 87.8486L34.8076 87.9619C34.632 88.548 34.5254 89.1401 34.5254 89.6162L34.5254 93.8164L34.2998 93.6846L33.0459 92.9541L32.9707 92.9111L32.9707 88.8789ZM33.2715 92.7383L34.2246 93.2939L34.2246 89.6162C34.2246 89.1334 34.3277 88.5565 34.4893 87.9893L33.5029 87.416C33.359 87.9405 33.2715 88.4584 33.2715 88.8789L33.2715 92.7383Z" fill="#0B4D5E"/>
<path d="M40.8271 95.8485L39.6702 95.571L38.7543 96.1037L37.4881 95.3666L34.3716 93.5578L35.5825 92.833L40.8271 95.8485Z" fill="#8AE5CC"/>
<path d="M35.6577 92.7031L41.8042 96.2373L39.6929 95.7305L38.8296 96.2334L38.7544 96.2773L38.6792 96.2334L37.4126 95.4961L37.564 95.2373L38.7544 95.9297L39.5952 95.4414L39.647 95.4111L39.7056 95.4248L39.8491 95.459L35.5835 93.0068L34.6665 93.5557L37.564 95.2373L37.4878 95.3662L37.4126 95.4961L34.2964 93.6875L34.0767 93.5596L34.2944 93.4287L35.5806 92.6592L35.6577 92.7031Z" fill="#0B4D5E"/>
<path d="M40.8292 95.8473L40.8218 95.8454L35.5816 92.833L34.3706 93.5578L37.4871 95.3666L38.7534 96.1037L38.7663 96.0963C38.8419 96.0628 38.9224 96.038 39.0029 96.0207C39.2119 95.9835 39.4394 95.9897 39.6791 96.0455L42.2301 96.6587L71.2805 103.621L71.5387 103.206L40.8292 95.8473Z" fill="#0B4D5E"/>
<path d="M35.6567 92.7031L40.8765 95.7041L71.5737 103.061L71.7759 103.109L71.4077 103.7L71.3511 103.792L71.2456 103.768L39.644 96.1914C39.4244 96.1405 39.2188 96.1344 39.0327 96.167C38.9633 96.182 38.8953 96.2032 38.8325 96.2305L38.8286 96.2334L38.7534 96.2773L38.6782 96.2334L37.4116 95.4961L37.563 95.2373L38.7642 95.9365C38.8325 95.9104 38.9021 95.8889 38.9712 95.874L38.9771 95.873L39.1528 95.8516C39.3319 95.8392 39.52 95.8544 39.7134 95.8994L71.2095 103.45L71.3003 103.304L40.7944 95.9932L40.7925 95.9932L40.8228 95.873L40.8286 95.8486L40.7925 95.9932L40.7856 95.9912L40.8218 95.8438L40.8218 95.8457L40.7856 95.9912L40.7651 95.9854L40.7466 95.9756L35.5825 93.0068L34.6655 93.5557L37.563 95.2373L37.4868 95.3662L37.4116 95.4961L34.2954 93.6875L34.0757 93.5596L34.2935 93.4287L35.5796 92.6592L35.6567 92.7031Z" fill="#0B4D5E"/>
<path d="M36.8101 56.9924C25.3295 56.3047 24.7663 55.7415 24.0721 44.3198C23.3778 55.7415 22.8146 56.3047 11.3275 56.9924C22.8146 57.68 23.3778 58.2433 24.0721 69.6649C24.7663 58.2433 25.3295 57.68 36.8101 56.9924Z" fill="#F0F4FF"/>
<path d="M24.0722 70C24.2425 70 24.3866 69.8625 24.3997 69.6922C25.0808 58.467 25.5458 58.002 36.8299 57.3275C37.0002 57.3144 37.1377 57.1768 37.1377 57C37.1377 56.8232 37.0002 56.6856 36.8299 56.6725C25.5458 55.9914 25.0808 55.533 24.3997 44.3078C24.3866 44.1375 24.2491 44 24.0722 44C23.8954 44 23.7579 44.1375 23.7448 44.3078C23.0637 55.533 22.5987 55.998 11.308 56.6725C11.1377 56.6856 11.0002 56.8232 11.0002 57C11.0002 57.1768 11.1377 57.3144 11.308 57.3275C22.5987 58.0086 23.0637 58.467 23.7448 69.6922C23.7579 69.8625 23.8954 70 24.0722 70ZM32.5009 56.9935C26.2006 57.6549 24.7337 59.1154 24.0722 65.396C23.4108 59.1154 21.9437 57.6549 15.6369 56.9935C21.9437 56.332 23.4108 54.865 24.0722 48.5909C24.7337 54.8715 26.2006 56.332 32.5009 56.9935Z" fill="#0B4D5E"/>
<path d="M145.236 59.3056L137.573 56.1108C137.573 56.1108 137.566 56.1086 137.564 56.1073L137.495 56.0789L137.491 56.0903C134.152 54.7423 129.931 55.5804 125.592 58.9504C116.854 65.74 110.969 80.1869 112.451 91.2187C113.191 96.7252 115.628 100.338 118.966 101.733L118.966 101.736L118.982 101.742L118.984 101.743L125.964 104.618L127.139 101.854C128.659 101.281 130.215 100.497 131.803 99.2634C140.541 92.4745 146.426 78.0269 144.946 66.9949C144.726 65.3563 144.313 63.9432 143.814 62.6486L145.236 59.3056Z" fill="#8AE5CC" stroke="#0B4D5E" stroke-width="0.3" stroke-miterlimit="10"/>
<path d="M112.319 85.3204C112.164 87.3495 112.198 89.335 112.451 91.2195C113.191 96.726 115.628 100.339 118.966 101.734L118.966 101.737L118.982 101.743L118.984 101.744L125.963 104.619L127.139 101.855C128.658 101.282 130.214 100.498 131.802 99.2643C133.298 98.1017 134.708 96.7112 136.014 95.1556L112.319 85.3204Z" fill="#0B4D5E" stroke="#0B4D5E" stroke-width="0.3" stroke-miterlimit="10"/>
<path d="M132.877 61.968C124.138 68.757 118.254 83.2045 119.735 94.2365C121.217 105.268 129.503 108.707 138.242 101.918C146.982 95.1286 152.866 80.6811 151.385 69.6491C149.903 58.6173 141.618 55.1781 132.877 61.968Z" fill="#F0F4FF" stroke="#0B4D5E" stroke-width="0.3" stroke-miterlimit="10"/>
<path d="M136.299 74.8549L135.249 77.2985L133.848 76.8047C131.574 76.0034 128.365 78.5649 126.656 82.5248C124.944 86.4928 125.362 90.4188 127.613 91.2947L128.999 91.8343L137.391 95.1001L143.724 80.2852L144.788 77.7952C146.526 73.7284 145.996 69.8013 143.629 69.0233C141.284 68.2529 138.013 70.8635 136.297 74.8551L136.299 74.8549Z" fill="#0B4D5E" stroke="#0B4D5E" stroke-width="0.3" stroke-miterlimit="10"/>
<path d="M156.599 130.906C142.544 130.064 141.854 129.375 141.004 115.391C140.154 129.375 139.465 130.064 125.401 130.906C139.465 131.748 140.154 132.438 141.004 146.421C141.854 132.438 142.544 131.748 156.599 130.906Z" fill="#F0F4FF"/>
<path d="M141.004 146.832C141.213 146.832 141.389 146.663 141.405 146.455C142.239 132.712 142.808 132.143 156.623 131.317C156.832 131.301 157 131.132 157 130.916C157 130.699 156.832 130.531 156.623 130.515C142.808 129.681 142.239 129.12 141.405 115.377C141.389 115.168 141.221 115 141.004 115C140.788 115 140.619 115.168 140.603 115.377C139.769 129.12 139.2 129.689 125.377 130.515C125.169 130.531 125 130.699 125 130.916C125 131.132 125.169 131.301 125.377 131.317C139.2 132.151 139.769 132.712 140.603 146.455C140.619 146.663 140.788 146.832 141.004 146.832ZM151.323 130.908C143.61 131.718 141.814 133.506 141.004 141.195C140.194 133.506 138.398 131.718 130.677 130.908C138.398 130.098 140.194 128.302 141.004 120.621C141.814 128.31 143.61 130.098 151.323 130.908Z" fill="#0B4D5E"/>
</svg>
