<svg width="411" height="300" viewBox="0 0 411 300" fill="none" xmlns="http://www.w3.org/2000/svg">
<path d="M292.823 40.418L105.752 149.511L292.823 40.418Z" fill="#F0F4FF"/>
<path d="M292.823 40.418L292.912 40.5703L105.841 149.663L105.663 149.358L292.735 40.2656L292.823 40.418Z" fill="#0B4D5E"/>
<path d="M292.823 68.0986L105.752 177.191L292.823 68.0986Z" fill="#F0F4FF"/>
<path d="M292.823 68.0986L292.912 68.251L105.841 177.344L105.663 177.039L292.735 67.9463L292.823 68.0986Z" fill="#0B4D5E"/>
<path d="M292.823 95.7793L105.752 204.869L292.823 95.7793Z" fill="#F0F4FF"/>
<path d="M292.823 95.7793L292.912 95.9316L105.841 205.021L105.752 204.869L105.663 204.717L292.735 95.627L292.823 95.7793Z" fill="#0B4D5E"/>
<path d="M292.823 123.458L105.752 232.551L292.823 123.458Z" fill="#F0F4FF"/>
<path d="M292.823 123.458L292.912 123.61L105.841 232.703L105.663 232.398L292.735 123.306L292.823 123.458Z" fill="#0B4D5E"/>
<path d="M255.541 85.8789L255.454 85.9297L220.027 106.744V85.5205L220.114 85.4697L255.276 64.8115L255.541 64.6553V85.8789ZM220.379 85.7217V106.129L255.189 85.6777V65.2695L220.379 85.7217Z" fill="#0B4D5E"/>
<path d="M292.912 43.2334L257.837 63.8408V84.248L292.734 63.7461L292.912 64.0488L257.485 84.8633V63.6396L257.572 63.5889L292.734 42.9307L292.912 43.2334Z" fill="#0B4D5E"/>
<path d="M217.433 108.412L217.346 108.463L181.92 129.277V108.054L182.007 108.003L217.169 87.3447L217.433 87.1885V108.412ZM182.271 108.255V128.662L217.082 108.211V87.8027L182.271 108.255Z" fill="#0B4D5E"/>
<path d="M179.18 130.512L179.093 130.562L143.666 151.377V130.157L143.753 130.106L178.915 109.444L179.18 109.288V130.512ZM144.018 130.357V150.762L178.828 130.311V109.902L144.018 130.357Z" fill="#0B4D5E"/>
<path d="M141.09 152.513L141.003 152.563L105.841 173.222L105.663 172.919L140.738 152.311V131.906L105.841 152.41L105.752 152.258L105.663 152.106L140.825 131.448L141.09 131.292V152.513Z" fill="#0B4D5E"/>
<path d="M175.413 121.52C175.468 121.488 175.535 121.488 175.59 121.519C175.645 121.551 175.679 121.609 175.679 121.672V123.79C175.679 123.852 175.646 123.91 175.592 123.941L163.219 131.211C163.165 131.242 163.098 131.243 163.043 131.212C162.989 131.18 162.954 131.121 162.954 131.058V128.941C162.954 128.879 162.988 128.821 163.041 128.79L175.413 121.52ZM163.306 129.041V130.751L175.327 123.688V121.978L163.306 129.041Z" fill="#0B4D5E"/>
<path d="M156.459 132.605C155.943 132.243 155.089 132.458 154.567 133.206C154.046 133.955 154.138 134.833 154.654 135.194C155.171 135.556 156.024 135.342 156.546 134.593C157.068 133.844 156.975 132.967 156.459 132.605ZM156.66 132.317C157.395 132.832 157.42 133.954 156.834 134.795C156.248 135.635 155.189 135.998 154.453 135.483C153.718 134.968 153.694 133.845 154.279 133.005C154.865 132.164 155.925 131.801 156.66 132.317Z" fill="#0B4D5E"/>
<path d="M151.397 135.531C150.881 135.169 150.027 135.383 149.506 136.132C148.984 136.881 149.076 137.758 149.593 138.12C150.109 138.482 150.962 138.268 151.484 137.519C152.006 136.77 151.913 135.893 151.397 135.531ZM151.598 135.242C152.333 135.758 152.358 136.88 151.772 137.721C151.186 138.561 150.127 138.924 149.392 138.409C148.656 137.893 148.632 136.771 149.218 135.93C149.804 135.09 150.863 134.727 151.598 135.242Z" fill="#0B4D5E"/>
<path d="M135.583 145.172C135.637 145.14 135.705 145.139 135.76 145.171C135.814 145.202 135.849 145.26 135.849 145.323V147.441C135.848 147.503 135.815 147.561 135.762 147.593L123.389 154.862C123.334 154.894 123.267 154.894 123.213 154.863C123.158 154.832 123.124 154.773 123.124 154.71V152.593C123.124 152.53 123.157 152.473 123.211 152.441L135.583 145.172ZM123.476 152.692V154.402L135.496 147.34V145.63L123.476 152.692Z" fill="#0B4D5E"/>
<path d="M116.629 156.255C116.113 155.894 115.259 156.108 114.737 156.857C114.216 157.606 114.308 158.483 114.824 158.845C115.341 159.207 116.194 158.992 116.716 158.243C117.238 157.495 117.145 156.617 116.629 156.255ZM116.83 155.967C117.565 156.482 117.59 157.605 117.004 158.445C116.418 159.286 115.359 159.649 114.623 159.133C113.888 158.618 113.864 157.496 114.449 156.655C115.035 155.814 116.095 155.452 116.83 155.967Z" fill="#0B4D5E"/>
<path d="M111.567 159.186C111.051 158.824 110.197 159.039 109.676 159.788C109.154 160.536 109.246 161.414 109.763 161.776C110.279 162.137 111.132 161.923 111.654 161.174C112.176 160.425 112.083 159.548 111.567 159.186ZM111.768 158.898C112.503 159.413 112.528 160.535 111.942 161.376C111.356 162.216 110.297 162.579 109.562 162.064C108.826 161.549 108.802 160.426 109.388 159.586C109.974 158.745 111.033 158.382 111.768 158.898Z" fill="#0B4D5E"/>
<path d="M212.847 99.6815C212.902 99.6495 212.969 99.6491 213.024 99.6805C213.079 99.7118 213.113 99.7698 213.113 99.8328V101.951C213.113 102.013 213.08 102.071 213.026 102.102L200.653 109.372C200.599 109.404 200.532 109.404 200.477 109.373C200.422 109.342 200.388 109.283 200.388 109.22V107.102C200.388 107.04 200.421 106.983 200.475 106.951L212.847 99.6815ZM200.74 107.202V108.912L212.76 101.849V100.139L200.74 107.202Z" fill="#0B4D5E"/>
<path d="M193.896 110.765C193.379 110.403 192.526 110.618 192.004 111.367C191.482 112.115 191.575 112.993 192.091 113.355C192.607 113.716 193.461 113.502 193.983 112.753C194.504 112.004 194.412 111.127 193.896 110.765ZM194.097 110.477C194.832 110.992 194.856 112.114 194.271 112.955C193.685 113.796 192.625 114.158 191.89 113.643C191.155 113.128 191.13 112.006 191.716 111.165C192.302 110.324 193.361 109.961 194.097 110.477Z" fill="#0B4D5E"/>
<path d="M188.834 113.695C188.318 113.333 187.464 113.548 186.942 114.296C186.421 115.045 186.513 115.923 187.029 116.284C187.546 116.646 188.399 116.432 188.921 115.683C189.443 114.934 189.35 114.057 188.834 113.695ZM189.035 113.406C189.77 113.922 189.795 115.044 189.209 115.885C188.623 116.725 187.564 117.088 186.828 116.573C186.093 116.057 186.069 114.935 186.654 114.095C187.24 113.254 188.3 112.891 189.035 113.406Z" fill="#0B4D5E"/>
<path d="M250.628 77.7557C250.683 77.7237 250.75 77.7234 250.805 77.7547C250.86 77.7861 250.894 77.844 250.894 77.907V80.0252C250.894 80.0874 250.861 80.145 250.807 80.1766L238.434 87.4461C238.38 87.4778 238.313 87.4781 238.258 87.4471C238.203 87.4157 238.169 87.3568 238.169 87.2938V85.1766C238.169 85.1142 238.203 85.0568 238.256 85.0252L250.628 77.7557ZM238.521 85.2762V86.9861L250.541 79.9236V78.2137L238.521 85.2762Z" fill="#0B4D5E"/>
<path d="M231.678 88.8384C231.161 88.4766 230.308 88.6911 229.786 89.4399C229.264 90.1886 229.357 91.0661 229.873 91.4279C230.389 91.7896 231.243 91.5751 231.765 90.8264C232.286 90.0777 232.194 89.2002 231.678 88.8384ZM231.879 88.55C232.614 89.0653 232.638 90.1875 232.052 91.0282C231.467 91.8688 230.407 92.2316 229.672 91.7163C228.937 91.201 228.912 90.0788 229.498 89.2381C230.084 88.3975 231.143 88.0346 231.879 88.55Z" fill="#0B4D5E"/>
<path d="M226.614 91.771C226.098 91.4092 225.244 91.6237 224.722 92.3725C224.2 93.1213 224.293 93.9987 224.809 94.3605C225.326 94.7223 226.179 94.5078 226.701 93.759C227.223 93.0103 227.13 92.1329 226.614 91.771ZM226.815 91.4826C227.55 91.9979 227.575 93.1201 226.989 93.9608C226.403 94.8014 225.344 95.1642 224.608 94.6489C223.873 94.1336 223.849 93.0114 224.434 92.1707C225.02 91.3301 226.079 90.9673 226.815 91.4826Z" fill="#0B4D5E"/>
<path d="M288.851 56.4139C288.905 56.3819 288.973 56.3816 289.028 56.4129C289.082 56.4443 289.116 56.5023 289.116 56.5652V58.6834C289.116 58.7456 289.082 58.8032 289.029 58.8348L276.653 66.1043C276.599 66.136 276.532 66.1363 276.477 66.1053C276.422 66.0739 276.388 66.015 276.388 65.952V63.8348C276.388 63.7724 276.421 63.715 276.475 63.6834L288.851 56.4139ZM276.74 63.9344V65.6443L288.764 58.5818V56.8719L276.74 63.9344Z" fill="#0B4D5E"/>
<path d="M269.898 67.4976C269.382 67.1358 268.528 67.3503 268.007 68.0991C267.485 68.8478 267.577 69.7252 268.094 70.0871C268.61 70.4488 269.463 70.2343 269.985 69.4856C270.507 68.7368 270.414 67.8594 269.898 67.4976ZM270.099 67.2091C270.834 67.7245 270.859 68.8467 270.273 69.6873C269.687 70.528 268.628 70.8907 267.893 70.3755C267.157 69.8602 267.133 68.738 267.719 67.8973C268.305 67.0566 269.364 66.6938 270.099 67.2091Z" fill="#0B4D5E"/>
<path d="M264.834 70.4263C264.318 70.0645 263.465 70.279 262.943 71.0278C262.421 71.7765 262.514 72.654 263.03 73.0158C263.546 73.3775 264.4 73.163 264.921 72.4143C265.443 71.6656 265.351 70.7881 264.834 70.4263ZM265.035 70.1379C265.771 70.6532 265.795 71.7754 265.209 72.616C264.623 73.4567 263.564 73.8195 262.829 73.3042C262.093 72.7889 262.069 71.6667 262.655 70.826C263.241 69.9853 264.3 69.6225 265.035 70.1379Z" fill="#0B4D5E"/>
<path d="M255.541 114.004L255.454 114.055L220.292 134.713L220.027 134.869V113.648L220.114 113.598L255.276 92.9395L255.541 92.7832V114.004ZM220.379 113.85V134.254L255.189 113.802V93.3975L220.379 113.85Z" fill="#0B4D5E"/>
<path d="M292.912 71.3564L257.837 91.9639V112.371L292.734 91.8691L292.912 92.1719L257.485 112.986V91.7627L257.572 91.7119L292.734 71.0537L292.912 71.3564Z" fill="#0B4D5E"/>
<path d="M217.433 136.535L217.346 136.586L181.92 157.4V136.177L182.007 136.126L217.169 115.468L217.433 115.312V136.535ZM182.271 136.378V156.785L217.082 136.334V115.926L182.271 136.378Z" fill="#0B4D5E"/>
<path d="M179.18 158.637L179.093 158.688L143.931 179.346L143.666 179.502V158.281L143.753 158.23L178.915 137.572L179.18 137.416V158.637ZM144.018 158.482V178.887L178.828 158.435V138.03L144.018 158.482Z" fill="#0B4D5E"/>
<path d="M141.09 180.636L141.003 180.687L105.841 201.345L105.663 201.042L140.738 180.434V160.029L105.841 180.533L105.752 180.381L105.663 180.229L140.825 159.571L141.09 159.415V180.636Z" fill="#0B4D5E"/>
<path d="M175.413 149.644C175.468 149.612 175.535 149.612 175.59 149.643C175.645 149.675 175.679 149.733 175.679 149.796V151.914C175.679 151.976 175.646 152.034 175.592 152.065L163.219 159.335C163.165 159.366 163.098 159.367 163.043 159.336C162.989 159.304 162.954 159.246 162.954 159.182V157.065C162.954 157.003 162.988 156.945 163.041 156.914L175.413 149.644ZM163.306 157.165V158.875L175.327 151.812V150.102L163.306 157.165Z" fill="#0B4D5E"/>
<path d="M156.459 160.729C155.943 160.367 155.09 160.582 154.568 161.33C154.046 162.079 154.138 162.957 154.655 163.319C155.171 163.68 156.024 163.466 156.546 162.717C157.068 161.968 156.976 161.091 156.459 160.729ZM156.66 160.441C157.396 160.956 157.42 162.078 156.834 162.919C156.248 163.759 155.189 164.122 154.454 163.607C153.718 163.092 153.694 161.969 154.28 161.129C154.866 160.288 155.925 159.925 156.66 160.441Z" fill="#0B4D5E"/>
<path d="M151.398 163.655C150.881 163.293 150.028 163.508 149.506 164.256C148.984 165.005 149.077 165.882 149.593 166.244C150.109 166.606 150.963 166.392 151.485 165.643C152.006 164.894 151.914 164.017 151.398 163.655ZM151.599 163.366C152.334 163.882 152.358 165.004 151.772 165.845C151.187 166.685 150.127 167.048 149.392 166.533C148.657 166.017 148.632 164.895 149.218 164.055C149.804 163.214 150.863 162.851 151.599 163.366Z" fill="#0B4D5E"/>
<path d="M135.583 173.3C135.637 173.268 135.705 173.267 135.76 173.299C135.814 173.33 135.849 173.388 135.849 173.451V175.565C135.849 175.627 135.815 175.685 135.762 175.717L123.389 182.986C123.334 183.018 123.268 183.018 123.213 182.987C123.158 182.956 123.124 182.898 123.124 182.835V180.721C123.124 180.658 123.157 180.601 123.211 180.569L135.583 173.3ZM123.476 180.82V182.527L135.496 175.465V173.758L123.476 180.82Z" fill="#0B4D5E"/>
<path d="M116.629 184.379C116.113 184.018 115.26 184.232 114.738 184.981C114.216 185.73 114.308 186.607 114.825 186.969C115.341 187.331 116.195 187.116 116.716 186.367C117.238 185.619 117.146 184.741 116.629 184.379ZM116.83 184.091C117.566 184.606 117.59 185.729 117.004 186.569C116.418 187.41 115.359 187.773 114.624 187.257C113.888 186.742 113.864 185.62 114.45 184.779C115.036 183.938 116.095 183.576 116.83 184.091Z" fill="#0B4D5E"/>
<path d="M111.568 187.309C111.051 186.947 110.198 187.162 109.676 187.911C109.154 188.659 109.247 189.537 109.763 189.899C110.279 190.26 111.133 190.046 111.655 189.297C112.176 188.548 112.084 187.671 111.568 187.309ZM111.769 187.021C112.504 187.536 112.528 188.658 111.942 189.499C111.357 190.339 110.297 190.702 109.562 190.187C108.827 189.672 108.802 188.549 109.388 187.709C109.974 186.868 111.033 186.505 111.769 187.021Z" fill="#0B4D5E"/>
<path d="M212.847 127.804C212.902 127.773 212.969 127.772 213.024 127.804C213.079 127.835 213.113 127.893 213.113 127.956V130.074C213.113 130.136 213.08 130.194 213.026 130.225L200.653 137.495C200.599 137.527 200.532 137.527 200.477 137.496C200.422 137.465 200.388 137.406 200.388 137.343V135.225C200.388 135.163 200.421 135.106 200.475 135.074L212.847 127.804ZM200.74 135.325V137.035L212.76 129.972V128.263L200.74 135.325Z" fill="#0B4D5E"/>
<path d="M193.896 138.888C193.38 138.526 192.526 138.741 192.004 139.49C191.483 140.238 191.575 141.116 192.091 141.478C192.608 141.839 193.461 141.625 193.983 140.876C194.505 140.127 194.412 139.25 193.896 138.888ZM194.097 138.6C194.832 139.115 194.857 140.237 194.271 141.078C193.685 141.919 192.626 142.281 191.89 141.766C191.155 141.251 191.131 140.129 191.717 139.288C192.302 138.447 193.362 138.084 194.097 138.6Z" fill="#0B4D5E"/>
<path d="M188.834 141.817C188.318 141.455 187.465 141.67 186.943 142.418C186.421 143.167 186.513 144.045 187.03 144.406C187.546 144.768 188.4 144.554 188.921 143.805C189.443 143.056 189.351 142.179 188.834 141.817ZM189.035 141.528C189.771 142.044 189.795 143.166 189.209 144.007C188.623 144.847 187.564 145.21 186.829 144.695C186.093 144.18 186.069 143.057 186.655 142.217C187.241 141.376 188.3 141.013 189.035 141.528Z" fill="#0B4D5E"/>
<path d="M250.628 105.882C250.683 105.85 250.75 105.849 250.805 105.881C250.86 105.912 250.894 105.97 250.894 106.033V108.147C250.894 108.21 250.861 108.267 250.807 108.299L238.434 115.568C238.38 115.6 238.313 115.6 238.258 115.569C238.204 115.538 238.169 115.48 238.169 115.417V113.303C238.169 113.24 238.203 113.183 238.256 113.151L250.628 105.882ZM238.521 113.402V115.109L250.541 108.047V106.34L238.521 113.402Z" fill="#0B4D5E"/>
<path d="M231.678 116.96C231.162 116.599 230.308 116.813 229.786 117.562C229.265 118.311 229.357 119.188 229.873 119.55C230.39 119.912 231.243 119.697 231.765 118.948C232.287 118.2 232.194 117.322 231.678 116.96ZM231.879 116.672C232.614 117.187 232.639 118.31 232.053 119.15C231.467 119.991 230.408 120.354 229.672 119.838C228.937 119.323 228.913 118.201 229.498 117.36C230.084 116.52 231.144 116.157 231.879 116.672Z" fill="#0B4D5E"/>
<path d="M226.614 119.892C226.098 119.53 225.244 119.745 224.723 120.494C224.201 121.242 224.293 122.12 224.81 122.482C225.326 122.843 226.179 122.629 226.701 121.88C227.223 121.131 227.13 120.254 226.614 119.892ZM226.815 119.604C227.551 120.119 227.575 121.241 226.989 122.082C226.403 122.923 225.344 123.285 224.609 122.77C223.873 122.255 223.849 121.132 224.435 120.292C225.021 119.451 226.08 119.088 226.815 119.604Z" fill="#0B4D5E"/>
<path d="M288.851 84.5379C288.905 84.5059 288.973 84.5056 289.028 84.5369C289.082 84.5683 289.116 84.6264 289.116 84.6893V86.8074C289.116 86.8697 289.082 86.9273 289.029 86.9588L276.653 94.2283C276.599 94.26 276.532 94.2603 276.477 94.2293C276.422 94.198 276.388 94.1391 276.388 94.076V91.9588C276.388 91.8964 276.421 91.839 276.475 91.8074L288.851 84.5379ZM276.74 92.0584V93.7684L288.764 86.7059V84.9959L276.74 92.0584Z" fill="#0B4D5E"/>
<path d="M269.899 95.6216C269.382 95.2598 268.529 95.4743 268.007 96.2231C267.485 96.9718 267.578 97.8493 268.094 98.2111C268.61 98.5728 269.464 98.3583 269.986 97.6096C270.507 96.8609 270.415 95.9834 269.899 95.6216ZM270.1 95.3332C270.835 95.8485 270.859 96.9707 270.273 97.8114C269.688 98.652 268.628 99.0148 267.893 98.4995C267.158 97.9842 267.133 96.862 267.719 96.0213C268.305 95.1807 269.364 94.8178 270.1 95.3332Z" fill="#0B4D5E"/>
<path d="M264.835 98.5503C264.319 98.1885 263.465 98.403 262.943 99.1518C262.421 99.9006 262.514 100.778 263.03 101.14C263.547 101.502 264.4 101.287 264.922 100.538C265.444 99.7896 265.351 98.9122 264.835 98.5503ZM265.036 98.2619C265.771 98.7772 265.796 99.8994 265.21 100.74C264.624 101.581 263.565 101.943 262.829 101.428C262.094 100.913 262.07 99.7907 262.655 98.95C263.241 98.1094 264.3 97.7466 265.036 98.2619Z" fill="#0B4D5E"/>
<path d="M255.541 141.667L255.454 141.718L220.027 162.532V141.309L220.114 141.258L255.276 120.6L255.541 120.443V141.667ZM220.379 141.51V161.917L255.189 141.466V121.058L220.379 141.51Z" fill="#0B4D5E"/>
<path d="M292.912 99.0215L257.837 119.629V140.033L292.734 119.53L292.823 119.682L292.912 119.834L257.75 140.492L257.485 140.648V119.428L257.572 119.377L292.734 98.7188L292.912 99.0215Z" fill="#0B4D5E"/>
<path d="M217.433 164.197L217.346 164.248L182.184 184.906L181.92 185.062V163.842L182.007 163.791L217.169 143.133L217.433 142.977V164.197ZM182.271 164.043V184.447L217.082 163.995V143.591L182.271 164.043Z" fill="#0B4D5E"/>
<path d="M179.18 186.3L179.093 186.351L143.666 207.165V185.941L143.753 185.891L178.915 165.232L179.18 165.076V186.3ZM144.018 186.143V206.55L178.828 186.099V165.69L144.018 186.143Z" fill="#0B4D5E"/>
<path d="M141.09 208.3L141.003 208.351L105.841 229.01L105.752 228.857L105.663 228.706L140.738 208.099V187.69L105.841 208.194L105.752 208.042L105.663 207.891L140.825 187.232L141.09 187.076V208.3Z" fill="#0B4D5E"/>
<path d="M175.413 177.309C175.468 177.277 175.535 177.277 175.59 177.308C175.645 177.34 175.679 177.398 175.679 177.461V179.579C175.679 179.641 175.646 179.699 175.592 179.73L163.219 187C163.165 187.032 163.098 187.032 163.043 187.001C162.989 186.969 162.954 186.911 162.954 186.847V184.73C162.954 184.668 162.988 184.611 163.041 184.579L175.413 177.309ZM163.306 184.83V186.54L175.327 179.477V177.767L163.306 184.83Z" fill="#0B4D5E"/>
<path d="M156.459 188.392C155.943 188.03 155.089 188.245 154.567 188.994C154.046 189.742 154.138 190.62 154.654 190.982C155.171 191.343 156.024 191.129 156.546 190.38C157.068 189.631 156.975 188.754 156.459 188.392ZM156.66 188.104C157.395 188.619 157.42 189.741 156.834 190.582C156.248 191.423 155.189 191.785 154.453 191.27C153.718 190.755 153.694 189.632 154.28 188.792C154.865 187.951 155.925 187.588 156.66 188.104Z" fill="#0B4D5E"/>
<path d="M151.397 191.321C150.881 190.959 150.028 191.174 149.506 191.922C148.984 192.671 149.076 193.548 149.593 193.91C150.109 194.272 150.962 194.058 151.484 193.309C152.006 192.56 151.914 191.683 151.397 191.321ZM151.598 191.032C152.334 191.548 152.358 192.67 151.772 193.511C151.186 194.351 150.127 194.714 149.392 194.199C148.656 193.683 148.632 192.561 149.218 191.721C149.804 190.88 150.863 190.517 151.598 191.032Z" fill="#0B4D5E"/>
<path d="M135.583 200.961C135.637 200.929 135.705 200.928 135.76 200.96C135.814 200.991 135.849 201.049 135.849 201.112V203.23C135.848 203.292 135.815 203.35 135.762 203.382L123.389 210.651C123.334 210.683 123.267 210.683 123.213 210.652C123.158 210.621 123.124 210.562 123.124 210.499V208.382C123.124 208.319 123.157 208.262 123.211 208.23L135.583 200.961ZM123.476 208.481V210.191L135.496 203.129V201.419L123.476 208.481Z" fill="#0B4D5E"/>
<path d="M116.629 212.044C116.113 211.683 115.259 211.897 114.737 212.646C114.216 213.395 114.308 214.272 114.824 214.634C115.341 214.996 116.194 214.781 116.716 214.032C117.238 213.284 117.145 212.406 116.629 212.044ZM116.83 211.756C117.565 212.271 117.59 213.394 117.004 214.234C116.418 215.075 115.359 215.438 114.623 214.922C113.888 214.407 113.864 213.285 114.45 212.444C115.035 211.604 116.095 211.241 116.83 211.756Z" fill="#0B4D5E"/>
<path d="M111.567 214.971C111.051 214.609 110.198 214.824 109.676 215.573C109.154 216.321 109.246 217.199 109.763 217.561C110.279 217.922 111.132 217.708 111.654 216.959C112.176 216.21 112.084 215.333 111.567 214.971ZM111.768 214.683C112.504 215.198 112.528 216.32 111.942 217.161C111.356 218.002 110.297 218.364 109.562 217.849C108.826 217.334 108.802 216.212 109.388 215.371C109.974 214.53 111.033 214.167 111.768 214.683Z" fill="#0B4D5E"/>
<path d="M212.847 155.471C212.902 155.439 212.969 155.438 213.024 155.47C213.079 155.501 213.113 155.559 213.113 155.622V157.736C213.113 157.798 213.08 157.856 213.026 157.888L200.653 165.157C200.599 165.189 200.532 165.189 200.477 165.158C200.422 165.127 200.388 165.069 200.388 165.006V162.891C200.388 162.829 200.421 162.772 200.475 162.74L212.847 155.471ZM200.74 162.991V164.698L212.76 157.636V155.929L200.74 162.991Z" fill="#0B4D5E"/>
<path d="M193.896 166.555C193.379 166.193 192.526 166.408 192.004 167.157C191.482 167.905 191.575 168.783 192.091 169.145C192.607 169.506 193.461 169.292 193.983 168.543C194.505 167.794 194.412 166.917 193.896 166.555ZM194.097 166.267C194.832 166.782 194.856 167.904 194.271 168.745C193.685 169.586 192.626 169.948 191.89 169.433C191.155 168.918 191.13 167.796 191.716 166.955C192.302 166.114 193.361 165.751 194.097 166.267Z" fill="#0B4D5E"/>
<path d="M188.834 169.481C188.318 169.119 187.464 169.334 186.942 170.082C186.421 170.831 186.513 171.709 187.029 172.07C187.546 172.432 188.399 172.218 188.921 171.469C189.443 170.72 189.35 169.843 188.834 169.481ZM189.035 169.193C189.77 169.708 189.795 170.83 189.209 171.671C188.623 172.511 187.564 172.874 186.828 172.359C186.093 171.844 186.069 170.721 186.655 169.881C187.24 169.04 188.3 168.677 189.035 169.193Z" fill="#0B4D5E"/>
<path d="M250.628 133.544C250.683 133.512 250.75 133.511 250.805 133.543C250.86 133.574 250.894 133.632 250.894 133.695V135.813C250.894 135.875 250.861 135.933 250.807 135.965L238.434 143.234C238.38 143.266 238.313 143.266 238.258 143.235C238.204 143.204 238.169 143.145 238.169 143.082V140.965C238.169 140.902 238.203 140.845 238.256 140.813L250.628 133.544ZM238.521 141.064V142.774L250.541 135.712V134.002L238.521 141.064Z" fill="#0B4D5E"/>
<path d="M231.678 144.627C231.161 144.266 230.308 144.48 229.786 145.229C229.264 145.978 229.357 146.855 229.873 147.217C230.389 147.579 231.243 147.364 231.765 146.615C232.286 145.867 232.194 144.989 231.678 144.627ZM231.879 144.339C232.614 144.854 232.638 145.977 232.053 146.817C231.467 147.658 230.407 148.021 229.672 147.505C228.937 146.99 228.912 145.868 229.498 145.027C230.084 144.187 231.143 143.824 231.879 144.339Z" fill="#0B4D5E"/>
<path d="M226.614 147.556C226.098 147.194 225.244 147.409 224.722 148.158C224.201 148.906 224.293 149.784 224.809 150.146C225.326 150.507 226.179 150.293 226.701 149.544C227.223 148.795 227.13 147.918 226.614 147.556ZM226.815 147.268C227.55 147.783 227.575 148.905 226.989 149.746C226.403 150.587 225.344 150.949 224.608 150.434C223.873 149.919 223.849 148.797 224.434 147.956C225.02 147.115 226.08 146.752 226.815 147.268Z" fill="#0B4D5E"/>
<path d="M288.851 112.201C288.905 112.169 288.973 112.169 289.028 112.2C289.082 112.231 289.116 112.289 289.116 112.352V114.471C289.116 114.533 289.082 114.59 289.029 114.622L276.653 121.891C276.599 121.923 276.532 121.923 276.477 121.892C276.422 121.861 276.388 121.802 276.388 121.739V119.622C276.388 119.56 276.421 119.502 276.475 119.471L288.851 112.201ZM276.74 119.721V121.431L288.764 114.369V112.659L276.74 119.721Z" fill="#0B4D5E"/>
<path d="M269.898 123.283C269.382 122.921 268.528 123.135 268.007 123.884C267.485 124.633 267.577 125.51 268.094 125.872C268.61 126.234 269.463 126.019 269.985 125.271C270.507 124.522 270.414 123.645 269.898 123.283ZM270.099 122.994C270.835 123.51 270.859 124.632 270.273 125.472C269.687 126.313 268.628 126.676 267.893 126.161C267.157 125.645 267.133 124.523 267.719 123.682C268.305 122.842 269.364 122.479 270.099 122.994Z" fill="#0B4D5E"/>
<path d="M264.835 126.214C264.318 125.853 263.465 126.067 262.943 126.816C262.421 127.565 262.514 128.442 263.03 128.804C263.546 129.166 264.4 128.951 264.922 128.202C265.443 127.454 265.351 126.576 264.835 126.214ZM265.036 125.926C265.771 126.441 265.795 127.563 265.209 128.404C264.624 129.245 263.564 129.608 262.829 129.092C262.094 128.577 262.069 127.455 262.655 126.614C263.241 125.773 264.3 125.411 265.036 125.926Z" fill="#0B4D5E"/>
<path d="M255.541 168.717L255.454 168.768L220.292 189.426L220.027 189.582V168.361L220.114 168.311L255.276 147.652L255.541 147.496V168.717ZM220.379 168.562V188.967L255.189 168.515V148.11L220.379 168.562Z" fill="#0B4D5E"/>
<path d="M292.912 126.069L257.837 146.677V167.084L292.734 146.582L292.912 146.885L257.485 167.699V146.476L257.572 146.425L292.734 125.767L292.912 126.069Z" fill="#0B4D5E"/>
<path d="M217.433 191.248L217.346 191.299L181.92 212.113V190.89L182.007 190.839L217.169 170.181L217.433 170.024V191.248ZM182.271 191.091V211.498L217.082 191.047V170.639L182.271 191.091Z" fill="#0B4D5E"/>
<path d="M179.18 213.35L179.093 213.4L143.931 234.059L143.666 234.215V212.994L143.753 212.943L178.915 192.285L179.18 192.129V213.35ZM144.018 213.195V233.6L178.828 213.147V192.743L144.018 213.195Z" fill="#0B4D5E"/>
<path d="M141.09 235.349L141.003 235.399L105.841 256.058L105.663 255.755L140.738 235.146V214.742L105.841 235.246L105.752 235.094L105.663 234.942L140.825 214.284L141.09 214.128V235.349Z" fill="#0B4D5E"/>
<path d="M175.413 204.361C175.468 204.329 175.535 204.329 175.59 204.36C175.645 204.392 175.679 204.449 175.679 204.513V206.627C175.679 206.689 175.646 206.746 175.592 206.778L163.219 214.048C163.165 214.08 163.098 214.08 163.043 214.049C162.989 214.017 162.955 213.959 162.954 213.896V211.782C162.954 211.72 162.988 211.662 163.041 211.631L175.413 204.361ZM163.306 211.882V213.589L175.327 206.526V204.819L163.306 211.882Z" fill="#0B4D5E"/>
<path d="M156.458 215.442C155.941 215.08 155.088 215.295 154.566 216.043C154.044 216.792 154.137 217.67 154.653 218.031C155.17 218.393 156.023 218.179 156.545 217.43C157.067 216.681 156.974 215.804 156.458 215.442ZM156.659 215.153C157.394 215.669 157.419 216.791 156.833 217.632C156.247 218.472 155.188 218.835 154.452 218.32C153.717 217.805 153.692 216.682 154.278 215.842C154.864 215.001 155.923 214.638 156.659 215.153Z" fill="#0B4D5E"/>
<path d="M151.396 218.371C150.88 218.009 150.026 218.223 149.505 218.972C148.983 219.721 149.075 220.598 149.591 220.96C150.108 221.322 150.961 221.107 151.483 220.359C152.005 219.61 151.912 218.732 151.396 218.371ZM151.597 218.082C152.332 218.598 152.357 219.72 151.771 220.56C151.185 221.401 150.126 221.764 149.39 221.249C148.655 220.733 148.631 219.611 149.217 218.77C149.802 217.93 150.862 217.567 151.597 218.082Z" fill="#0B4D5E"/>
<path d="M135.583 228.012C135.637 227.98 135.705 227.979 135.76 228.011C135.814 228.042 135.849 228.1 135.849 228.163V230.277C135.849 230.339 135.815 230.397 135.762 230.429L123.389 237.698C123.334 237.73 123.268 237.73 123.213 237.699C123.158 237.668 123.124 237.61 123.124 237.547V235.432C123.124 235.37 123.157 235.313 123.211 235.281L135.583 228.012ZM123.476 235.532V237.239L135.496 230.177V228.47L123.476 235.532Z" fill="#0B4D5E"/>
<path d="M116.631 239.097C116.114 238.735 115.261 238.95 114.739 239.699C114.217 240.447 114.31 241.325 114.826 241.687C115.342 242.048 116.196 241.834 116.718 241.085C117.239 240.336 117.147 239.459 116.631 239.097ZM116.832 238.809C117.567 239.324 117.591 240.446 117.006 241.287C116.42 242.128 115.36 242.49 114.625 241.975C113.89 241.46 113.865 240.338 114.451 239.497C115.037 238.656 116.096 238.293 116.832 238.809Z" fill="#0B4D5E"/>
<path d="M111.569 242.022C111.053 241.66 110.199 241.875 109.677 242.623C109.156 243.372 109.248 244.25 109.764 244.611C110.281 244.973 111.134 244.759 111.656 244.01C112.178 243.261 112.085 242.384 111.569 242.022ZM111.77 241.734C112.505 242.249 112.53 243.371 111.944 244.212C111.358 245.052 110.299 245.415 109.563 244.9C108.828 244.385 108.804 243.262 109.389 242.422C109.975 241.581 111.035 241.218 111.77 241.734Z" fill="#0B4D5E"/>
<path d="M212.847 182.517C212.902 182.485 212.969 182.485 213.024 182.516C213.079 182.548 213.113 182.606 213.113 182.669V184.787C213.113 184.849 213.08 184.907 213.026 184.938L200.653 192.208C200.599 192.24 200.532 192.24 200.477 192.209C200.422 192.177 200.388 192.119 200.388 192.055V189.938C200.388 189.876 200.421 189.819 200.475 189.787L212.847 182.517ZM200.74 190.038V191.748L212.76 184.685V182.975L200.74 190.038Z" fill="#0B4D5E"/>
<path d="M193.895 193.6C193.378 193.238 192.525 193.453 192.003 194.202C191.481 194.95 191.574 195.828 192.09 196.19C192.606 196.551 193.46 196.337 193.982 195.588C194.503 194.839 194.411 193.962 193.895 193.6ZM194.096 193.312C194.831 193.827 194.855 194.949 194.269 195.79C193.684 196.631 192.624 196.993 191.889 196.478C191.154 195.963 191.129 194.84 191.715 194C192.301 193.159 193.36 192.796 194.096 193.312Z" fill="#0B4D5E"/>
<path d="M188.833 196.53C188.317 196.168 187.463 196.383 186.941 197.131C186.419 197.88 186.512 198.757 187.028 199.119C187.545 199.481 188.398 199.267 188.92 198.518C189.442 197.769 189.349 196.892 188.833 196.53ZM189.034 196.241C189.769 196.757 189.794 197.879 189.208 198.72C188.622 199.56 187.563 199.923 186.827 199.408C186.092 198.892 186.068 197.77 186.653 196.93C187.239 196.089 188.298 195.726 189.034 196.241Z" fill="#0B4D5E"/>
<path d="M250.628 160.596C250.683 160.565 250.75 160.564 250.805 160.596C250.86 160.627 250.894 160.685 250.894 160.748V162.862C250.894 162.924 250.861 162.982 250.807 163.013L238.434 170.283C238.38 170.315 238.313 170.315 238.258 170.284C238.204 170.253 238.169 170.195 238.169 170.132V168.017C238.169 167.955 238.203 167.898 238.256 167.866L250.628 160.596ZM238.521 168.117V169.824L250.541 162.762V161.054L238.521 168.117Z" fill="#0B4D5E"/>
<path d="M231.679 171.676C231.163 171.314 230.31 171.529 229.788 172.278C229.266 173.027 229.358 173.904 229.875 174.266C230.391 174.628 231.244 174.413 231.766 173.664C232.288 172.916 232.196 172.038 231.679 171.676ZM231.88 171.388C232.616 171.903 232.64 173.025 232.054 173.866C231.468 174.707 230.409 175.069 229.674 174.554C228.938 174.039 228.914 172.917 229.5 172.076C230.086 171.235 231.145 170.873 231.88 171.388Z" fill="#0B4D5E"/>
<path d="M226.616 174.61C226.099 174.248 225.246 174.463 224.724 175.211C224.202 175.96 224.295 176.838 224.811 177.199C225.327 177.561 226.181 177.347 226.703 176.598C227.224 175.849 227.132 174.972 226.616 174.61ZM226.817 174.321C227.552 174.837 227.576 175.959 226.99 176.8C226.405 177.64 225.345 178.003 224.61 177.488C223.875 176.972 223.85 175.85 224.436 175.01C225.022 174.169 226.081 173.806 226.817 174.321Z" fill="#0B4D5E"/>
<path d="M288.851 139.25C288.905 139.218 288.973 139.217 289.028 139.249C289.082 139.28 289.116 139.338 289.116 139.401V141.519C289.116 141.582 289.082 141.639 289.029 141.671L276.653 148.94C276.599 148.972 276.532 148.972 276.477 148.941C276.422 148.91 276.388 148.851 276.388 148.788V146.671C276.388 146.608 276.421 146.551 276.475 146.519L288.851 139.25ZM276.74 146.77V148.48L288.764 141.418V139.708L276.74 146.77Z" fill="#0B4D5E"/>
<path d="M269.897 150.333C269.381 149.971 268.527 150.185 268.005 150.934C267.484 151.683 267.576 152.56 268.092 152.922C268.609 153.284 269.462 153.069 269.984 152.321C270.506 151.572 270.413 150.694 269.897 150.333ZM270.098 150.044C270.833 150.559 270.858 151.682 270.272 152.522C269.686 153.363 268.627 153.726 267.891 153.21C267.156 152.695 267.132 151.573 267.718 150.732C268.303 149.892 269.363 149.529 270.098 150.044Z" fill="#0B4D5E"/>
<path d="M264.833 153.265C264.317 152.903 263.464 153.118 262.942 153.867C262.42 154.615 262.512 155.493 263.029 155.855C263.545 156.216 264.399 156.002 264.92 155.253C265.442 154.504 265.35 153.627 264.833 153.265ZM265.034 152.977C265.77 153.492 265.794 154.614 265.208 155.455C264.622 156.296 263.563 156.658 262.828 156.143C262.092 155.628 262.068 154.506 262.654 153.665C263.24 152.824 264.299 152.461 265.034 152.977Z" fill="#0B4D5E"/>
<path d="M253.17 175.746L305.161 206.283L214.517 259.558L162.324 228.875L253.173 175.75L253.17 175.746Z" fill="#0B4D5E"/>
<path d="M253.259 175.595L305.25 206.131C305.304 206.163 305.337 206.221 305.337 206.283C305.337 206.346 305.304 206.403 305.25 206.435L214.607 259.71C214.552 259.742 214.483 259.742 214.428 259.71L162.236 229.026C162.182 228.995 162.149 228.937 162.149 228.875C162.149 228.813 162.182 228.754 162.236 228.723L253.059 175.613C253.115 175.567 253.194 175.557 253.259 175.595ZM162.671 228.875L214.517 259.354L304.815 206.283L253.174 175.952L162.671 228.875Z" fill="#0B4D5E"/>
<path d="M186.715 187.844L300.382 170.132V205.716L228.248 247.458L186.712 223.424V187.84L186.715 187.844Z" fill="#F0F4FF"/>
<path d="M300.354 169.958C300.405 169.95 300.457 169.965 300.496 169.998C300.535 170.032 300.557 170.081 300.557 170.132V205.716C300.557 205.779 300.524 205.837 300.47 205.868L228.336 247.611C228.281 247.642 228.214 247.642 228.16 247.611L186.624 223.576C186.57 223.545 186.536 223.487 186.536 223.424V187.84C186.536 187.769 186.579 187.705 186.644 187.678C186.666 187.669 186.69 187.666 186.713 187.666L300.354 169.958ZM186.888 187.994V223.323L228.247 247.254L300.206 205.614V170.337L186.888 187.994Z" fill="#0B4D5E"/>
<path d="M186.715 223.428L228.251 247.462V211.902L186.715 187.844V223.428Z" fill="#0B4D5E"/>
<path d="M186.627 187.691C186.682 187.659 186.749 187.659 186.803 187.691L228.339 211.749C228.394 211.781 228.427 211.839 228.427 211.901V247.461C228.427 247.524 228.394 247.582 228.339 247.613C228.285 247.645 228.218 247.645 228.163 247.613L186.627 223.579C186.573 223.548 186.539 223.49 186.539 223.427V187.843L186.545 187.797C186.557 187.753 186.586 187.714 186.627 187.691ZM186.891 223.325L228.076 247.155V212.002L186.891 188.148V223.325Z" fill="#0B4D5E"/>
<path d="M259.012 146.195L300.382 170.135L228.248 211.902L186.712 187.844L259.012 146.195Z" fill="#8AE5CC"/>
<path d="M258.968 146.025C259.012 146.014 259.06 146.019 259.1 146.043L300.47 169.982C300.524 170.014 300.557 170.072 300.557 170.135C300.557 170.198 300.524 170.256 300.47 170.287L228.336 212.054C228.281 212.085 228.215 212.085 228.16 212.054L186.624 187.996C186.57 187.965 186.536 187.906 186.536 187.844C186.536 187.781 186.57 187.723 186.624 187.691L258.925 146.043L258.968 146.025ZM187.063 187.844L228.248 211.698L300.03 170.135L259.012 146.397L187.063 187.844Z" fill="#0B4D5E"/>
<path d="M222.412 179.8C221.69 173.736 229.995 167.759 240.961 166.443C251.926 165.129 261.402 168.978 262.125 175.042C262.847 181.107 254.542 187.084 243.576 188.4C232.61 189.714 223.135 185.865 222.412 179.8Z" fill="#F0F4FF"/>
<path d="M241.968 166.159C247.084 165.692 251.83 166.342 255.451 167.814C259.306 169.38 261.927 171.897 262.299 175.022C262.671 178.146 260.716 181.211 257.336 183.645C254.163 185.93 249.704 187.683 244.621 188.438L243.597 188.575C238.091 189.235 232.95 188.6 229.087 187.03C225.231 185.464 222.61 182.946 222.238 179.821C221.865 176.697 223.821 173.632 227.201 171.198C230.586 168.761 235.433 166.929 240.94 166.268L241.968 166.159ZM255.318 168.139C251.758 166.692 247.07 166.046 242 166.51L240.982 166.617C235.523 167.273 230.735 169.088 227.407 171.485C224.073 173.885 222.237 176.84 222.587 179.779C222.937 182.719 225.415 185.159 229.219 186.704C233.016 188.247 238.096 188.879 243.555 188.226L244.571 188.09C249.607 187.342 254.011 185.606 257.131 183.36C260.465 180.959 262.3 178.003 261.95 175.064C261.599 172.124 259.122 169.684 255.318 168.139Z" fill="#0B4D5E"/>
</svg>
