<svg width="172" height="172" viewBox="0 0 172 172" fill="none" xmlns="http://www.w3.org/2000/svg">
<path d="M128.459 11.8837L41.4336 62.3513L48.5503 89.2029L135.899 39.7051L128.459 11.8837Z" fill="#70C5AD"/>
<path d="M48.5512 89.5718C48.5036 89.5718 48.455 89.5627 48.4073 89.5434C48.304 89.4988 48.2249 89.4087 48.1956 89.2982L41.0768 62.4476C41.0332 62.2865 41.1032 62.1173 41.247 62.0332L128.274 11.5635C128.375 11.5078 128.493 11.4987 128.601 11.5422C128.707 11.5868 128.787 11.677 128.815 11.7885L136.256 39.6109C136.3 39.773 136.23 39.9433 136.083 40.0263L48.7347 89.5242C48.6769 89.5566 48.6131 89.5718 48.5512 89.5718ZM41.8632 62.5297L48.7843 88.6456L135.47 39.5247L128.226 12.4441L41.8632 62.5297Z" fill="#155C6D"/>
<path d="M155.953 112.823L135.896 39.7071L48.5474 89.2049L67.958 163.613L155.953 112.823Z" fill="#C8DAE8"/>
<path d="M67.9578 163.983C67.9102 163.983 67.8615 163.974 67.8159 163.954C67.7105 163.91 67.6285 163.819 67.6001 163.708L48.1885 89.2992C48.1479 89.137 48.2199 88.9668 48.3638 88.8847L135.712 39.3869C135.815 39.3291 135.933 39.3261 136.036 39.3666C136.142 39.4112 136.222 39.5004 136.25 39.6108L156.308 112.727C156.354 112.888 156.282 113.059 156.138 113.143L68.1432 163.934C68.0855 163.966 68.0226 163.983 67.9578 163.983ZM48.9748 89.3863L68.1939 163.051L155.521 112.647L135.664 40.2624L48.9748 89.3863Z" fill="#155C6D"/>
<path d="M41.4282 62.3635L14.9009 132.888L54.3696 111.537L41.4292 62.3645L41.4282 62.3635Z" fill="#155C6D"/>
<path d="M14.9001 133.256C14.814 133.256 14.7268 133.225 14.6569 133.165C14.5414 133.064 14.5008 132.901 14.5535 132.757L41.0809 62.2338C41.1386 62.0838 41.316 62.0068 41.4457 61.9946C41.6068 62.0027 41.7436 62.1152 41.7841 62.2703L54.7256 111.443C54.7691 111.607 54.6921 111.78 54.5432 111.861L15.0754 133.211C15.0197 133.242 14.9599 133.256 14.9001 133.256ZM41.3656 63.5775L15.5922 132.093L53.9392 111.35L41.3646 63.5765L41.3656 63.5775Z" fill="#155C6D"/>
<path d="M67.9571 163.613L54.3691 111.529L14.9014 132.88L67.9571 163.613Z" fill="#70C5AD"/>
<path d="M67.9558 163.983C67.891 163.983 67.8282 163.967 67.7704 163.933L14.7157 133.199C14.6002 133.132 14.5303 133.008 14.5303 132.875C14.5323 132.74 14.6073 132.619 14.7248 132.556L54.1946 111.205C54.298 111.149 54.4186 111.145 54.5169 111.19C54.6202 111.236 54.6993 111.326 54.7286 111.436L68.3146 163.521C68.351 163.664 68.2973 163.817 68.1798 163.908C68.1149 163.958 68.0359 163.983 67.9558 163.983ZM15.6551 132.891L67.3742 162.851L54.1318 112.078L15.6551 132.891Z" fill="#155C6D"/>
<path d="M79.9054 86.8916L68.8285 93.1672C67.5669 93.8836 66.9457 95.355 67.3115 96.7605L70.4276 108.697C70.9616 110.742 73.2933 111.716 75.1214 110.661L86.1729 104.282C87.4183 103.56 88.0334 102.099 87.6676 100.703L84.5809 88.8666C84.051 86.8338 81.7375 85.8539 79.9094 86.8906L79.9064 86.8926L79.9054 86.8916Z" fill="#70C5AD"/>
<path d="M73.5243 111.461C73.0602 111.461 72.592 111.369 72.1451 111.182C71.1095 110.749 70.3525 109.877 70.0688 108.791L66.9517 96.8547C66.5454 95.2911 67.2426 93.6434 68.6461 92.8469L79.7037 86.5814C79.7108 86.5764 79.7179 86.5723 79.725 86.5683C80.6988 86.019 81.8449 85.9522 82.8734 86.3859C83.902 86.8206 84.6539 87.6911 84.9376 88.7723L88.0232 100.611C88.4265 102.158 87.7425 103.799 86.3553 104.601L75.3047 110.981C74.7525 111.3 74.1394 111.461 73.5243 111.461ZM80.107 87.2006C80.0999 87.2057 80.0948 87.2087 80.0877 87.2128L69.0109 93.4894C67.8982 94.1217 67.3449 95.429 67.6672 96.6693L70.7842 108.604C71.0082 109.467 71.6081 110.158 72.4309 110.501C73.2477 110.844 74.1637 110.786 74.9349 110.341L85.9854 103.961C87.0859 103.326 87.629 102.024 87.3068 100.798L84.2212 88.9587C83.9972 88.1025 83.4014 87.4114 82.5846 87.0658C81.779 86.7253 80.8781 86.774 80.107 87.2006Z" fill="#155C6D"/>
<path d="M101.861 74.5621L90.7846 80.8398C89.5229 81.5532 88.9018 83.0256 89.2676 84.4301L92.3826 96.3683C92.9166 98.4112 95.2494 99.385 97.0764 98.3301L108.128 91.9511C109.373 91.2296 109.988 89.7684 109.623 88.373L106.536 76.5351C106.005 74.5044 103.693 73.5224 101.864 74.5591L101.861 74.5621Z" fill="#70C5AD"/>
<path d="M95.4813 99.1317C95.0152 99.1317 94.5491 99.0395 94.1022 98.8531C93.0665 98.4193 92.3096 97.5489 92.0258 96.4626L88.9088 84.5244C88.5024 82.9598 89.1996 81.3131 90.6031 80.5196L101.661 74.2531C101.668 74.248 101.675 74.244 101.682 74.2399C102.656 73.6897 103.802 73.6238 104.828 74.0575C105.857 74.4922 106.612 75.3617 106.896 76.4429L109.981 88.2818C110.385 89.8292 109.701 91.4708 108.313 92.2724L97.2628 98.6504C96.7075 98.9696 96.0974 99.1327 95.4823 99.1327L95.4813 99.1317ZM102.064 74.8712C102.057 74.8763 102.052 74.8793 102.045 74.8834L90.9679 81.1611C89.8532 81.7924 89.2999 83.0986 89.6242 84.3379L92.7412 96.2751C92.9652 97.1364 93.5651 97.8276 94.3879 98.1711C95.2047 98.5136 96.1187 98.4548 96.8919 98.0099L107.942 91.632C109.043 90.9966 109.586 89.6944 109.264 88.4673L106.178 76.6284C105.954 75.7721 105.356 75.082 104.54 74.7375C103.727 74.394 102.826 74.4466 102.064 74.8712Z" fill="#155C6D"/>
<path d="M123.828 62.1L112.751 68.3757C111.489 69.0921 110.868 70.5635 111.234 71.966L114.349 83.9042C114.883 85.9491 117.216 86.9239 119.043 85.868L130.094 79.489C131.34 78.7675 131.955 77.3032 131.589 75.9109L128.502 64.074C127.971 62.0413 125.659 61.0614 123.831 62.098L123.828 62.1Z" fill="#70C5AD"/>
<path d="M117.448 86.6696C116.982 86.6696 116.515 86.5774 116.068 86.3899C115.033 85.9572 114.276 85.0847 113.992 83.9984L110.875 72.0602C110.469 70.4976 111.166 68.8519 112.569 68.0554L123.627 61.7909C123.634 61.7859 123.641 61.7818 123.648 61.7778C124.622 61.2275 125.765 61.1627 126.795 61.5943C127.825 62.0291 128.578 62.8995 128.862 63.9808L131.948 75.8197C132.354 77.366 131.667 79.0077 130.28 79.8102L119.229 86.1882C118.674 86.5074 118.064 86.6706 117.449 86.6706L117.448 86.6696ZM124.03 62.4091C124.023 62.4141 124.016 62.4172 124.011 62.4212L112.934 68.6959C111.82 69.3282 111.266 70.6344 111.591 71.8727L114.708 83.8099C114.932 84.6723 115.531 85.3644 116.354 85.7089C117.171 86.0504 118.089 85.9937 118.858 85.5478L129.909 79.1698C131.009 78.5344 131.552 77.2313 131.23 76.0051L128.145 64.1662C127.921 63.3099 127.325 62.6199 126.508 62.2733C125.7 61.9328 124.799 61.9825 124.03 62.4091Z" fill="#155C6D"/>
<path d="M86.2115 110.906L75.1347 117.181C73.873 117.898 73.2519 119.369 73.6177 120.772L76.7337 132.71C77.2678 134.755 79.5995 135.73 81.4275 134.674L92.4791 128.295C93.7245 127.573 94.3396 126.109 93.9738 124.717L90.8871 112.88C90.3571 110.847 88.0437 109.867 86.2156 110.904L86.2115 110.906Z" fill="#70C5AD"/>
<path d="M79.8305 135.475C79.3643 135.475 78.8982 135.383 78.4513 135.196C77.4157 134.763 76.6587 133.89 76.3749 132.804L73.2579 120.866C72.8515 119.303 73.5487 117.658 74.9522 116.861L86.0098 110.597C86.0169 110.592 86.024 110.588 86.0311 110.583C87.0049 110.032 88.1531 109.965 89.1796 110.4C90.2081 110.835 90.96 111.705 91.2438 112.787L94.3294 124.625C94.7357 126.172 94.0487 127.813 92.6614 128.616L81.6109 134.994C81.0556 135.313 80.4456 135.475 79.8305 135.475ZM86.4131 111.216C86.4061 111.221 86.399 111.224 86.3939 111.228L75.317 117.503C74.2023 118.135 73.6491 119.441 73.9733 120.679L77.0904 132.617C77.3143 133.479 77.9142 134.171 78.7371 134.516C79.5538 134.858 80.4719 134.799 81.241 134.355L92.2916 127.977C93.392 127.341 93.9352 126.038 93.613 124.812L90.5273 112.973C90.3034 112.117 89.7075 111.426 88.8908 111.08C88.0852 110.74 87.1843 110.789 86.4131 111.216Z" fill="#155C6D"/>
<path d="M108.168 98.5763L97.0907 104.852C95.8291 105.568 95.2079 107.04 95.5737 108.445L98.6888 120.381C99.2228 122.426 101.556 123.401 103.383 122.345L114.434 115.966C115.68 115.245 116.295 113.784 115.929 112.388L112.842 100.551C112.311 98.5206 109.999 97.5386 108.171 98.5753L108.168 98.5763Z" fill="#155C6D"/>
<path d="M101.787 123.146C101.323 123.146 100.855 123.054 100.408 122.866C99.3727 122.434 98.6157 121.561 98.332 120.475L95.2149 108.54C94.8086 106.976 95.5058 105.328 96.9092 104.532L107.967 98.2663C107.974 98.2612 107.981 98.2572 107.988 98.2531C108.962 97.7029 110.108 97.638 111.135 98.0717C112.165 98.5064 112.918 99.3769 113.202 100.457L116.287 112.296C116.691 113.842 116.007 115.484 114.619 116.286L103.569 122.666C103.017 122.985 102.403 123.146 101.787 123.146ZM108.37 98.8854C108.363 98.8905 108.358 98.8935 108.351 98.8976L97.274 105.174C96.1614 105.807 95.6081 107.114 95.9304 108.354L99.0474 120.287C99.2713 121.15 99.8712 121.842 100.694 122.186C101.511 122.528 102.427 122.471 103.198 122.026L114.249 115.646C115.349 115.011 115.892 113.709 115.57 112.482L112.484 100.644C112.26 99.7873 111.665 99.0972 110.848 98.7527C110.035 98.4102 109.136 98.4568 108.37 98.8854Z" fill="#155C6D"/>
<path d="M130.125 86.1143L119.048 92.3899C117.786 93.1033 117.165 94.5777 117.531 95.9802L120.646 107.918C121.18 109.963 123.513 110.935 125.34 109.882L136.391 103.501C137.637 102.78 138.252 101.319 137.886 99.9252L134.799 88.0873C134.268 86.0545 131.956 85.0746 130.128 86.1082L130.125 86.1143Z" fill="#70C5AD"/>
<path d="M123.747 110.682C123.278 110.682 122.809 110.59 122.362 110.402C121.329 109.968 120.572 109.097 120.288 108.012L117.171 96.0734C116.765 94.5088 117.462 92.8621 118.865 92.0687L129.906 85.8143C129.918 85.8052 129.932 85.7961 129.944 85.789C130.918 85.2398 132.066 85.1749 133.093 85.6086C134.121 86.0443 134.873 86.9148 135.157 87.995L138.242 99.8309C138.646 101.378 137.962 103.019 136.575 103.82L125.524 110.202C124.972 110.521 124.36 110.682 123.747 110.682ZM130.343 86.4122C130.331 86.4203 130.319 86.4274 130.307 86.4355L119.23 92.7101C118.115 93.3414 117.562 94.6476 117.886 95.887L121.003 107.824C121.227 108.686 121.827 109.377 122.647 109.72C123.464 110.065 124.382 110.006 125.154 109.563L136.205 103.181C137.305 102.546 137.848 101.244 137.526 100.018L134.44 88.1825C134.216 87.3242 133.621 86.6351 132.804 86.2886C132.006 85.9501 131.105 85.9917 130.343 86.4122Z" fill="#155C6D"/>
<path d="M67.9526 163.63L41.4242 62.3706L38.8007 60.8526L12.2764 131.362L67.9526 163.631V163.63ZM39.5293 67.4079L62.1299 156.188L16.2335 129.333L39.5293 67.4079Z" fill="#C8DAE8"/>
<path d="M67.9538 164C67.8889 164 67.8261 163.985 67.7683 163.95L12.0911 131.682C11.9351 131.592 11.8672 131.402 11.93 131.232L38.4553 60.7219C38.4938 60.6195 38.5759 60.5405 38.6762 60.504C38.7816 60.4665 38.8921 60.4787 38.9863 60.5314L41.6109 62.0504C41.695 62.1 41.7578 62.1811 41.7842 62.2763L68.3115 163.536C68.348 163.68 68.2943 163.833 68.1767 163.923C68.1119 163.974 68.0328 163.999 67.9528 163.999L67.9538 164ZM12.7326 131.2L67.3721 162.866L41.1083 62.6128L38.9934 61.3886L12.7326 131.2ZM62.1301 156.558C62.0652 156.558 62.0004 156.541 61.9426 156.507L16.0462 129.653C15.8922 129.562 15.8253 129.373 15.8871 129.205L39.1829 67.2782C39.2386 67.1343 39.3754 67.0391 39.5295 67.0391H39.5487C39.7099 67.0482 39.8467 67.1607 39.8872 67.3167L62.4878 156.098C62.5243 156.242 62.4706 156.395 62.351 156.484C62.2862 156.534 62.2091 156.558 62.1301 156.558ZM16.6887 129.173L61.5565 155.425L39.4626 68.6381L16.6887 129.173Z" fill="#155C6D"/>
<path d="M125.843 10.4022L38.8193 60.8698L41.4236 62.3564L128.448 11.8878" fill="#C8DAE8"/>
<path d="M41.4234 62.7252C41.3606 62.7252 41.2957 62.71 41.241 62.6776L38.6357 61.191C38.5202 61.1252 38.4503 61.0036 38.4482 60.8718C38.4482 60.7401 38.5182 60.6175 38.6337 60.5506L125.66 10.082L126.03 10.7214L39.5589 60.8678L41.4214 61.9308L128.262 11.5685L128.632 12.208L41.6089 62.6756C41.5511 62.708 41.4883 62.7252 41.4234 62.7252Z" fill="#155C6D"/>
<path d="M63.5446 49.8223C61.8463 44.8042 57.653 41.8341 53.9979 43.0765C50.3975 44.2996 48.8795 49.0866 50.4775 54.0399L53.3605 52.3395C52.6775 49.4818 53.3737 46.7063 55.0396 46.1429C56.8707 45.5105 59.4203 47.7277 60.4843 50.863C61.0467 52.5188 61.1541 54.2689 60.7752 55.6622C60.5907 56.3442 60.1185 57.5501 59.0342 57.9169C58.0797 58.2442 56.8413 57.7862 55.7277 56.7039C55.0903 56.0838 54.0648 56.0939 53.4406 56.7333C52.8163 57.3728 52.8285 58.3942 53.47 59.0194C54.9646 60.4787 56.7208 61.2569 58.3999 61.2569C58.9724 61.2569 59.5358 61.1657 60.0759 60.9833C61.904 60.3631 63.3014 58.7316 63.9033 56.5063C64.4495 54.4807 64.3269 52.1064 63.5537 49.8243L63.5436 49.8223H63.5446Z" fill="#155C6D"/>
<path d="M83.5412 38.2428C81.8428 33.2248 77.6496 30.2547 73.9945 31.497C70.3941 32.7201 68.8761 37.5072 70.4741 42.4604L73.3571 40.76C72.6741 37.9024 73.3703 35.1268 75.0362 34.5634C76.8673 33.9311 79.4169 36.1483 80.4809 39.2836C81.0433 40.9394 81.1507 42.6894 80.7717 44.0828C80.5873 44.7647 80.1151 45.9706 79.0308 46.3374C78.0762 46.6648 76.8379 46.2067 75.7243 45.1245C75.0869 44.5023 74.0614 44.5114 73.4372 45.1539C72.8129 45.7933 72.8251 46.8147 73.4665 47.44C74.9612 48.8992 76.7173 49.6744 78.3965 49.6744C78.969 49.6744 79.5324 49.5862 80.0725 49.4038C81.9006 48.7837 83.298 47.1522 83.8999 44.9269C84.4461 42.9012 84.3235 40.5269 83.5503 38.2449L83.5402 38.2428H83.5412Z" fill="#155C6D"/>
<path d="M103.085 26.792C101.386 21.777 97.1931 18.8059 93.538 20.0492C89.9376 21.2723 88.4206 26.0594 90.0176 31.0126L92.9006 29.3092C92.2176 26.4516 92.9138 23.678 94.5797 23.1146C96.4108 22.4792 98.9604 24.6995 100.024 27.8348C100.587 29.4906 100.694 31.2406 100.315 32.6309C100.131 33.3149 99.6586 34.5208 98.5753 34.8876C97.6208 35.2129 96.3814 34.7569 95.2688 33.6747C94.6314 33.0525 93.6059 33.0616 92.9817 33.702C92.3574 34.3445 92.3706 35.3659 93.0111 35.9912C94.5057 37.4504 96.2619 38.2256 97.941 38.2256C98.5135 38.2256 99.0769 38.1344 99.6171 37.955C101.445 37.3328 102.843 35.7034 103.444 33.4761C103.991 31.4504 103.868 29.0781 103.095 26.7971L103.085 26.792Z" fill="#155C6D"/>
<path d="M121.783 16.0252C120.084 11.0102 115.891 8.03908 112.236 9.28245C108.635 10.5056 107.118 15.2926 108.716 20.2458L111.599 18.5424C110.916 15.6848 111.613 12.9112 113.279 12.3478C115.11 11.7125 117.659 13.9327 118.723 17.068C119.287 18.7238 119.393 20.4738 119.014 21.8641C118.83 22.5482 118.357 23.754 117.274 24.1209C116.32 24.4461 115.08 23.9901 113.968 22.9079C113.33 22.2857 112.305 22.2948 111.681 22.9352C111.056 23.5777 111.069 24.5992 111.71 25.2244C113.205 26.6836 114.961 27.4588 116.64 27.4588C117.212 27.4588 117.776 27.3676 118.316 27.1883C120.144 26.5661 121.541 24.9366 122.143 22.7093C122.691 20.6836 122.567 18.3114 121.794 16.0303L121.785 16.0252H121.783Z" fill="#155C6D"/>
<path d="M128.277 12.2039L125.648 10.9423L125.66 10.082L128.642 11.5625L128.277 12.2039Z" fill="#155C6D"/>
<path d="M8.36621 30.239C22.6712 29.382 23.3732 28.68 24.2382 14.448C25.1032 28.679 25.8052 29.381 40.1182 30.239C25.8042 31.096 25.1032 31.798 24.2382 46.03C23.3732 31.799 22.6712 31.097 8.36621 30.239Z" fill="#C8DAE8"/>
<path d="M24.239 46.394C24.047 46.394 23.888 46.245 23.876 46.052C23.022 32.025 22.441 31.447 8.344 30.603C8.152 30.591 8 30.432 8 30.239C8 30.046 8.152 29.887 8.344 29.875C22.441 29.031 23.022 28.453 23.876 14.426C23.888 14.234 24.047 14.084 24.239 14.084C24.431 14.084 24.59 14.233 24.602 14.426C25.453 28.453 26.034 29.031 40.141 29.875C40.333 29.887 40.485 30.046 40.485 30.239C40.485 30.432 40.333 30.591 40.141 30.603C26.034 31.447 25.453 32.025 24.602 46.052C24.59 46.244 24.431 46.394 24.239 46.394ZM13.308 30.239C21.625 31.055 23.418 32.847 24.239 41.14C25.057 32.846 26.85 31.055 35.175 30.239C26.85 29.423 25.057 27.631 24.239 19.338C23.418 27.632 21.625 29.423 13.308 30.239Z" fill="#155C6D"/>
<path d="M149.224 39.7131C155.267 39.3511 155.563 39.0551 155.929 33.0421C156.294 39.0551 156.591 39.3511 162.637 39.7131C156.591 40.0751 156.295 40.3711 155.929 46.3821C155.564 40.3711 155.267 40.0751 149.224 39.7131Z" fill="#C8DAE8"/>
<path d="M155.928 46.746C155.736 46.746 155.577 46.597 155.565 46.404C155.212 40.603 155.034 40.425 149.202 40.076C149.01 40.064 148.858 39.905 148.858 39.712C148.858 39.519 149.01 39.36 149.202 39.348C155.034 38.999 155.212 38.821 155.565 33.018C155.577 32.826 155.736 32.676 155.928 32.676C156.12 32.676 156.279 32.825 156.291 33.018C156.644 38.821 156.822 38.999 162.657 39.348C162.849 39.36 163.001 39.519 163.001 39.712C163.001 39.905 162.849 40.064 162.657 40.076C156.823 40.425 156.645 40.603 156.291 46.404C156.279 46.596 156.12 46.746 155.928 46.746ZM152.816 39.713C154.768 40.097 155.543 40.872 155.928 42.82C156.312 40.872 157.088 40.097 159.04 39.713C157.088 39.328 156.313 38.554 155.928 36.605C155.544 38.555 154.768 39.328 152.816 39.713Z" fill="#155C6D"/>
</svg>
