<svg width="172" height="172" viewBox="0 0 172 172" fill="none" xmlns="http://www.w3.org/2000/svg">
<g clip-path="url(#clip0_9503_14098)">
<path d="M57.0852 138.953H57.0828L54.8154 119.142H54.8183C54.1794 113.436 56.9625 107.084 63.4182 101.211C77.4242 88.4692 103.4 82.8084 121.437 88.567C129.751 91.2213 134.924 95.8391 136.716 101.293H136.719L142.901 120.252H142.899C143.04 120.696 143.163 121.145 143.262 121.598C144.645 127.948 141.833 135.211 134.498 141.884C119.827 155.231 92.6172 161.16 73.724 155.129C64.2771 152.113 58.6984 146.678 57.3147 140.329C57.2159 139.875 57.141 139.416 57.0852 138.954V138.953Z" fill="#2B545E"/>
<path d="M120.627 88.1687C111.744 85.5431 101.075 85.5909 90.8858 87.8113C80.3685 90.1032 70.3483 94.7136 63.3224 101.105L62.7257 101.659C56.6787 107.391 54.0559 113.56 54.6749 119.142C54.6749 119.147 54.6724 119.153 54.6729 119.158L56.9405 138.969C56.9411 138.974 56.9443 138.979 56.9454 138.984C56.9874 139.329 57.0394 139.673 57.1046 140.014L57.1749 140.359C58.5296 146.575 63.8573 151.897 72.8038 154.974L73.6808 155.265C83.1569 158.29 94.7089 158.314 105.725 155.914C116.74 153.513 127.235 148.685 134.594 141.991C141.952 135.298 144.8 127.985 143.401 121.568L143.322 121.225C143.24 120.891 143.147 120.559 143.042 120.229C143.041 120.222 143.039 120.215 143.037 120.208L136.856 101.249L136.847 101.23C135.029 95.7259 129.812 91.0903 121.481 88.4304L120.627 88.1687ZM90.9464 88.0915C101.1 85.8788 111.719 85.8346 120.545 88.4431L121.394 88.7038C129.681 91.3497 134.807 95.9427 136.58 101.339L136.717 101.293V101.294L136.58 101.339C136.582 101.344 136.587 101.348 136.589 101.353L142.758 120.274C142.759 120.281 142.761 120.289 142.763 120.296C142.868 120.626 142.962 120.958 143.044 121.293L143.122 121.629C144.491 127.911 141.715 135.126 134.401 141.779C127.089 148.431 116.644 153.241 105.664 155.634C94.6844 158.026 83.1847 157.999 73.7677 154.993L72.8956 154.704C64.008 151.647 58.7804 146.384 57.4542 140.299L57.3858 139.961C57.3212 139.622 57.2691 139.281 57.2276 138.937H57.2257C57.2255 138.936 57.225 138.934 57.2247 138.932L54.9601 119.139C54.96 119.135 54.9615 119.13 54.961 119.126C54.3488 113.657 56.9109 107.565 62.922 101.867L63.5147 101.317C70.4947 94.9673 80.4652 90.3757 90.9464 88.0915Z" fill="#07303A"/>
<path d="M121.437 88.5675C130.455 91.4466 135.782 96.6355 137.102 102.697C138.423 108.759 135.739 115.693 128.736 122.064C114.73 134.806 88.754 140.466 70.7171 134.708C61.6987 131.829 56.3724 126.64 55.0517 120.578C53.731 114.517 56.4154 107.582 63.4183 101.211C77.4243 88.4697 103.4 82.8089 121.437 88.5675Z" fill="#94B2C9"/>
<path d="M120.627 88.1687C111.744 85.5431 101.075 85.5909 90.8857 87.8113C80.3684 90.1032 70.3482 94.7136 63.3223 101.105C56.2971 107.496 53.5768 114.479 54.9121 120.608C56.2058 126.546 61.2942 131.628 69.8359 134.566L70.6738 134.843C79.7218 137.732 90.7512 137.756 101.269 135.464C111.786 133.172 121.806 128.561 128.832 122.17C135.857 115.779 138.577 108.796 137.242 102.667C135.907 96.5376 130.528 91.3186 121.48 88.4304L120.627 88.1687ZM90.9463 88.0915C101.1 85.8788 111.719 85.8346 120.545 88.4431L121.394 88.7038C130.383 91.5737 135.657 96.7333 136.963 102.727C138.269 108.721 135.62 115.607 128.64 121.958C121.66 128.308 111.689 132.899 101.208 135.183C90.7267 137.467 79.7496 137.441 70.7607 134.571C61.771 131.701 56.4974 126.542 55.1914 120.548C53.8854 114.554 56.5341 107.668 63.5146 101.317C70.4946 94.9673 80.4651 90.3757 90.9463 88.0915Z" fill="#07303A"/>
<path d="M104.084 139.289L106.689 151.242C106.879 152.112 106.332 152.992 105.463 153.186C105.253 153.232 105.043 153.278 104.832 153.323C103.962 153.509 103.098 152.936 102.909 152.066L100.303 140.113C100.114 139.242 100.67 138.405 101.541 138.219C101.751 138.174 101.961 138.129 102.171 138.082C103.041 137.888 103.895 138.419 104.084 139.289ZM59.9426 131.019C60.3449 131.426 60.7729 131.823 61.2266 132.209C61.9046 132.786 62.5745 133.925 62.6757 134.81L63.9373 145.832C64.0384 146.716 63.5579 146.98 62.9162 146.362C62.3536 145.821 61.8383 145.261 61.3698 144.684C60.8082 143.993 60.3315 142.669 60.2299 141.784L59.0437 131.426C58.9426 130.541 59.3166 130.385 59.9422 131.018L59.9426 131.019ZM90.1728 139.711C90.3431 139.703 90.513 139.694 90.6833 139.685C91.5722 139.634 92.4163 140.285 92.5704 141.162L94.6746 153.152C94.8287 154.029 94.2332 154.795 93.3438 154.838C93.173 154.846 93.0027 154.854 92.8323 154.861C91.9425 154.897 91.0956 154.195 90.9414 153.318L88.8401 141.355C88.686 140.478 89.2829 139.754 90.1723 139.711L90.1728 139.711ZM68.4166 136.475C68.6189 136.559 68.8232 136.642 69.0302 136.723C69.859 137.048 70.6363 137.994 70.7499 138.877L72.2404 150.452C72.354 151.335 71.7681 151.804 70.9474 151.457C70.7227 151.363 70.5013 151.267 70.2823 151.168C69.4697 150.805 68.7363 149.756 68.6228 148.873L67.1484 137.42C67.0349 136.537 67.5936 136.133 68.4162 136.474L68.4166 136.475ZM78.7877 139.222C78.9438 139.245 79.1003 139.266 79.2568 139.287C80.1395 139.405 80.9635 140.19 81.0938 141.071L82.8477 152.927C82.978 153.807 82.3663 154.441 81.485 154.311C81.3237 154.287 81.1625 154.263 81.0021 154.237C80.1223 154.099 79.3083 153.247 79.178 152.366L77.4317 140.562C77.3015 139.681 77.9065 139.095 78.7877 139.222ZM133.109 123.046L136.534 134.074C136.798 134.925 136.567 136.183 135.979 136.852C135.821 137.032 135.66 137.211 135.496 137.39C134.893 138.045 134.164 137.862 133.9 137.011L130.44 125.869C130.177 125.018 130.489 123.834 131.108 123.194C131.262 123.034 131.413 122.873 131.563 122.713C132.169 122.061 132.845 122.195 133.11 123.046L133.109 123.046ZM137.983 114.216L141.216 124.136C141.492 124.982 141.609 126.384 141.386 127.246C141.199 127.965 140.962 128.689 140.676 129.416C140.349 130.244 139.802 130.205 139.526 129.358L136.086 118.808C135.811 117.961 135.947 116.648 136.325 115.841C136.578 115.3 136.803 114.76 136.999 114.22C137.304 113.384 137.707 113.369 137.983 114.216ZM125.065 130.181L128.389 141.639C128.637 142.494 128.252 143.609 127.509 144.101C127.374 144.192 127.237 144.281 127.1 144.37C126.353 144.855 125.533 144.534 125.285 143.678L121.947 132.167C121.699 131.312 122.122 130.256 122.876 129.781C123.009 129.697 123.143 129.612 123.275 129.527C124.024 129.045 124.817 129.325 125.065 130.18L125.065 130.181ZM115.025 135.649L118.092 147.402C118.317 148.264 117.839 149.255 117.015 149.591C116.856 149.656 116.697 149.72 116.537 149.784C115.71 150.114 114.849 149.663 114.625 148.802L111.55 137.027C111.325 136.165 111.822 135.222 112.651 134.898C112.811 134.835 112.97 134.772 113.129 134.708C113.956 134.377 114.799 134.787 115.025 135.649Z" fill="#07303A"/>
<path d="M90.6747 139.542H90.6757C90.5069 139.551 90.3383 139.559 90.1698 139.567C90.1683 139.567 90.1665 139.567 90.1649 139.567C89.2533 139.612 88.6136 140.318 88.6767 141.2L88.6991 141.379L90.8007 153.343C90.9564 154.229 91.7637 154.948 92.6581 155.002L92.8378 155.004L93.3505 154.981C94.3283 154.934 94.984 154.086 94.8153 153.127L92.7108 141.138L92.6718 140.962C92.4306 140.102 91.5739 139.491 90.6747 139.542ZM90.8437 139.826C91.6044 139.857 92.2972 140.434 92.4296 141.188L94.5331 153.177C94.6726 153.971 94.1378 154.656 93.3368 154.695L92.8261 154.718L92.6737 154.716C91.9147 154.669 91.2153 154.052 91.0819 153.294L88.9813 141.33L88.9628 141.184C88.9098 140.463 89.4219 139.892 90.1757 139.854C90.1769 139.854 90.1783 139.855 90.1796 139.855L90.6913 139.827L90.8437 139.826ZM78.6327 139.064C78.2295 139.045 77.8773 139.169 77.6298 139.412C77.3822 139.655 77.2534 140.003 77.2724 140.406L77.2899 140.582L79.036 152.388C79.1063 152.863 79.3594 153.322 79.706 153.68C80.0527 154.038 80.5037 154.303 80.9804 154.378L80.9794 154.379L81.4638 154.452C81.9437 154.523 82.3654 154.387 82.6483 154.098C82.9307 153.809 83.0598 153.383 82.9892 152.905L81.2353 141.05L81.2001 140.874C80.9851 140.002 80.1597 139.264 79.2753 139.146L78.8085 139.08L78.6327 139.064ZM78.619 139.35L78.7675 139.364L79.2372 139.429C80.0078 139.532 80.7345 140.187 80.9218 140.939L80.9521 141.092L82.706 152.947C82.7655 153.35 82.6544 153.682 82.4433 153.897C82.2326 154.113 81.9071 154.228 81.5058 154.169L81.0243 154.096L80.8739 154.064C80.5235 153.974 80.1858 153.763 79.912 153.48C79.5993 153.158 79.3793 152.751 79.3192 152.346L77.5732 140.541L77.5585 140.394C77.5424 140.06 77.6498 139.794 77.831 139.616C78.0125 139.438 78.283 139.334 78.619 139.35ZM104.177 139.085C103.901 138.24 103.026 137.745 102.141 137.942L101.511 138.079C100.623 138.268 100.033 139.082 100.134 139.966L100.163 140.143L102.768 152.097C102.974 153.041 103.912 153.665 104.862 153.463L105.494 153.325C106.442 153.114 107.035 152.156 106.829 151.211L104.224 139.258L104.177 139.085ZM102.202 138.222C102.947 138.056 103.675 138.471 103.905 139.175L103.944 139.319L106.55 151.272C106.723 152.067 106.221 152.87 105.432 153.046L104.803 153.183C104.011 153.351 103.222 152.83 103.049 152.035L100.443 140.082L100.419 139.935C100.335 139.199 100.825 138.518 101.57 138.359L102.202 138.222ZM68.4706 136.342C68.035 136.161 67.6302 136.163 67.3456 136.373C67.0954 136.558 66.9773 136.876 66.9921 137.267L67.0067 137.439L68.4804 148.892C68.5409 149.362 68.7648 149.867 69.0741 150.299C69.3446 150.677 69.6878 151.01 70.0614 151.218L70.2235 151.299C70.4435 151.398 70.6657 151.495 70.8915 151.59V151.589C71.3324 151.775 71.7435 151.755 72.0321 151.528C72.3196 151.303 72.4435 150.906 72.3827 150.434L70.8915 138.858L70.7499 138.877L70.6073 138.895V138.896L72.0985 150.47C72.1513 150.88 72.0377 151.16 71.8554 151.303C71.6743 151.445 71.3824 151.485 71.0028 151.325L70.3407 151.038L70.2001 150.967C69.8734 150.785 69.5595 150.486 69.3065 150.133C69.0178 149.729 68.8177 149.268 68.7646 148.855L67.2899 137.401L67.2782 137.254C67.2657 136.926 67.3673 136.714 67.5165 136.604C67.688 136.477 67.9732 136.446 68.3583 136.605C68.3595 136.605 68.36 136.607 68.3612 136.607L68.9784 136.855L68.9774 136.856C69.3642 137.008 69.7469 137.309 70.0468 137.681C70.3466 138.053 70.5546 138.486 70.6073 138.895L70.8915 138.858C70.8305 138.384 70.5936 137.903 70.2694 137.501C69.9452 137.099 69.5248 136.763 69.0829 136.59H69.0819C68.8765 136.509 68.6744 136.426 68.4735 136.343L68.4706 136.342ZM115.108 135.441C114.798 134.612 113.924 134.236 113.076 134.575L112.6 134.765L112.435 134.838C111.693 135.214 111.246 136.063 111.375 136.887L111.411 137.064L114.486 148.838C114.717 149.721 115.564 150.216 116.419 149.976L116.59 149.917L117.068 149.724H117.069C117.961 149.359 118.473 148.295 118.23 147.366L115.163 135.612L115.108 135.441ZM113.183 134.842C113.931 134.542 114.683 134.91 114.886 135.686L117.953 147.439C118.16 148.233 117.716 149.15 116.961 149.459L116.484 149.651L116.345 149.699C115.645 149.897 114.955 149.498 114.764 148.766L111.688 136.99L111.657 136.842C111.548 136.145 111.93 135.416 112.563 135.094L112.703 135.031C112.863 134.969 113.023 134.905 113.183 134.841V134.842ZM59.5878 130.563C59.4488 130.493 59.2977 130.461 59.162 130.522C59.0247 130.582 58.9497 130.717 58.914 130.867C58.8871 130.981 58.8791 131.118 58.8876 131.276L58.9013 131.442L60.0878 141.801C60.1403 142.258 60.2888 142.822 60.494 143.358C60.6733 143.827 60.8986 144.283 61.1493 144.632L61.2587 144.774C61.6129 145.21 61.9932 145.637 62.4003 146.053L62.8173 146.465C62.9865 146.628 63.1536 146.741 63.3124 146.799C63.4724 146.857 63.6334 146.861 63.7724 146.787C63.9104 146.714 63.9997 146.579 64.0478 146.415C64.0956 146.252 64.1057 146.048 64.079 145.815L62.8183 134.793L62.7909 134.615C62.7128 134.195 62.5287 133.741 62.2919 133.323C62.0209 132.845 61.6738 132.402 61.3192 132.101L60.9862 131.811C60.6579 131.519 60.3442 131.221 60.0448 130.918H60.0439L59.9237 130.803C59.8059 130.696 59.6934 130.615 59.5878 130.563ZM59.2782 130.783C59.3017 130.773 59.3559 130.767 59.4599 130.818C59.5362 130.857 59.6271 130.921 59.7314 131.015L59.8398 131.119H59.8407C60.1446 131.427 60.463 131.729 60.7958 132.024L61.1337 132.318C61.457 132.593 61.7841 133.008 62.0429 133.465C62.2694 133.865 62.439 134.287 62.5097 134.666L62.5331 134.826L63.7948 145.848C63.8187 146.057 63.8071 146.219 63.7733 146.334C63.7397 146.449 63.688 146.507 63.6386 146.533C63.59 146.559 63.5164 146.568 63.4091 146.529C63.3005 146.49 63.1671 146.405 63.0155 146.259L62.6054 145.853C62.2041 145.443 61.8289 145.023 61.4804 144.594L61.3808 144.463C61.1505 144.142 60.935 143.711 60.7607 143.256C60.5618 142.736 60.4212 142.196 60.372 141.769L59.1855 131.409L59.1728 131.26C59.1654 131.121 59.1734 131.012 59.1923 130.933C59.2178 130.825 59.2566 130.793 59.2782 130.783ZM124.406 129.218C124.034 129.083 123.602 129.147 123.197 129.407L122.8 129.66L122.653 129.762C121.989 130.27 121.612 131.209 121.767 132.032L121.809 132.207L125.147 143.718C125.282 144.182 125.577 144.515 125.954 144.66C126.284 144.787 126.662 144.764 127.024 144.579L127.178 144.49C127.315 144.401 127.453 144.311 127.589 144.221L127.43 143.982C127.295 144.072 127.159 144.161 127.022 144.25L126.894 144.324C126.597 144.476 126.303 144.488 126.057 144.394C125.775 144.285 125.536 144.03 125.423 143.639L122.084 132.127L122.049 131.977C121.915 131.265 122.245 130.436 122.824 129.991L122.952 129.902L123.352 129.647C123.697 129.426 124.036 129.389 124.309 129.487C124.582 129.586 124.814 129.829 124.928 130.221L128.251 141.679C128.365 142.073 128.335 142.535 128.185 142.959C128.036 143.383 127.771 143.757 127.431 143.982H127.43L127.51 144.102L127.589 144.221C127.991 143.954 128.289 143.524 128.455 143.054C128.621 142.583 128.66 142.06 128.526 141.599L125.203 130.141L125.199 130.13C125.063 129.672 124.776 129.352 124.406 129.218ZM133.11 123.045H133.109L133.246 123.003C133.105 122.551 132.842 122.249 132.494 122.176C132.148 122.103 131.779 122.27 131.458 122.615L131.668 122.811C131.953 122.504 132.225 122.412 132.434 122.456C132.642 122.5 132.849 122.69 132.973 123.088V123.089L136.397 134.117C136.521 134.515 136.53 135.017 136.435 135.504C136.341 135.992 136.144 136.448 135.871 136.758H135.872L135.391 137.292V137.293L135.286 137.397C135.042 137.615 134.801 137.673 134.604 137.626C134.379 137.571 134.16 137.364 134.037 136.969L130.577 125.826L130.537 125.675C130.458 125.313 130.479 124.893 130.582 124.487C130.685 124.082 130.868 123.7 131.105 123.411L131.211 123.293L131.667 122.811H131.668L131.562 122.713L131.458 122.615C131.309 122.775 131.159 122.935 131.006 123.094H131.005C130.675 123.436 130.432 123.916 130.305 124.417C130.193 124.855 130.167 125.321 130.258 125.736L130.304 125.911L133.764 137.054C133.905 137.509 134.182 137.818 134.537 137.904C134.894 137.991 135.278 137.839 135.601 137.486V137.485C135.767 137.306 135.929 137.127 136.087 136.947V136.946L135.979 136.853L135.973 136.846L136.087 136.946C136.402 136.588 136.615 136.08 136.717 135.559C136.818 135.037 136.811 134.485 136.671 134.032L133.246 123.004V123.003L133.11 123.045ZM137.5 113.443C137.352 113.445 137.228 113.537 137.131 113.658C137.057 113.75 136.989 113.871 136.926 114.017L136.864 114.171L136.713 114.573C136.556 114.975 136.384 115.377 136.195 115.78L136.124 115.944C135.966 116.339 135.859 116.818 135.817 117.297C135.775 117.775 135.797 118.265 135.9 118.68L135.95 118.853L139.39 129.402C139.462 129.625 139.556 129.806 139.668 129.935C139.78 130.064 139.917 130.149 140.073 130.158C140.23 130.167 140.375 130.097 140.497 129.978C140.587 129.889 140.669 129.77 140.74 129.624L140.808 129.469C141.025 128.92 141.214 128.372 141.374 127.826L141.524 127.281C141.641 126.83 141.667 126.247 141.631 125.676C141.594 125.103 141.495 124.528 141.352 124.091L138.119 114.172L138.063 114.016C138.005 113.868 137.941 113.747 137.869 113.654C137.774 113.532 137.65 113.441 137.5 113.443ZM137.504 113.731C137.527 113.73 137.575 113.743 137.642 113.83C137.693 113.895 137.746 113.99 137.797 114.119L137.847 114.261L141.08 124.18C141.213 124.589 141.309 125.139 141.345 125.694C141.38 126.25 141.353 126.8 141.247 127.21L141.099 127.746C140.941 128.283 140.755 128.822 140.542 129.363L140.483 129.499C140.423 129.623 140.359 129.713 140.297 129.773C140.215 129.853 140.145 129.875 140.09 129.872C140.034 129.869 139.963 129.837 139.885 129.747C139.806 129.656 139.727 129.514 139.662 129.314L136.223 118.764L136.178 118.608C136.084 118.235 136.062 117.78 136.102 117.322C136.142 116.865 136.244 116.415 136.39 116.052L136.454 115.902C136.709 115.357 136.936 114.813 137.134 114.27L137.189 114.129C137.245 114 137.301 113.903 137.354 113.837C137.427 113.747 137.479 113.731 137.504 113.731Z" fill="#07303A"/>
<path d="M119.133 89.8067C127.387 92.442 132.262 97.1914 133.471 102.74C134.68 108.288 132.223 114.635 125.813 120.466C112.993 132.128 89.2175 137.309 72.709 132.039C64.4545 129.404 59.5796 124.654 58.3705 119.106C57.1614 113.558 59.6187 107.21 66.0286 101.379C78.8484 89.717 102.624 84.5362 119.133 89.8067Z" fill="#94B2C9"/>
<path d="M119.177 89.6701C110.893 87.0254 100.795 87.0056 91.167 89.1037C81.5391 91.2018 72.3655 95.4217 65.9327 101.274C59.5005 107.125 57.0067 113.521 58.2305 119.137C59.4162 124.577 64.078 129.231 71.8985 131.921L72.6651 132.175C80.9489 134.82 91.0469 134.841 100.675 132.742C110.002 130.71 118.902 126.685 125.298 121.115L125.909 120.571C132.341 114.721 134.834 108.325 133.61 102.709L133.485 102.185C132.076 96.7966 127.201 92.2318 119.177 89.6701ZM91.2276 89.383C100.819 87.2928 110.864 87.3178 119.089 89.9435C127.058 92.4876 131.832 96.9968 133.208 102.259L133.331 102.77C134.525 108.25 132.104 114.549 125.717 120.36L125.109 120.9C118.759 126.43 109.905 130.437 100.613 132.462C91.0217 134.552 80.9775 134.528 72.753 131.903C64.5272 129.276 59.7051 124.556 58.5108 119.075C57.3165 113.595 59.7375 107.296 66.125 101.486C72.512 95.6753 81.6357 91.4732 91.2276 89.383Z" fill="#07303A"/>
<path d="M51.5886 64.7855L58.1597 117.986C57.4898 112.716 60.0311 106.826 66.0101 101.384C78.8313 89.7227 102.606 84.5414 119.114 89.8114C126.822 92.2735 131.585 96.5753 133.164 101.654H133.167L116.999 50.5304C115.612 46.1169 111.463 42.3742 104.755 40.2319C90.358 35.637 69.6206 40.156 58.4379 50.3258C55.8356 52.6948 53.9771 55.1625 52.8473 57.6102C51.7141 60.0584 51.3037 62.4909 51.589 64.7855H51.5886Z" fill="#94B2C9"/>
<path d="M104.117 39.8857C97.0205 37.7892 88.4982 37.8292 80.3608 39.6025C71.961 41.4331 63.9556 45.114 58.3413 50.2197L57.8599 50.667C55.4968 52.909 53.7855 55.2358 52.7173 57.5498L52.5112 58.0127C51.5489 60.2694 51.1955 62.5112 51.4302 64.6426H51.4263L51.4468 64.8027L58.0181 118.004L58.3022 117.969L58.2964 117.914C57.6784 112.883 60.0145 107.259 65.5581 102L66.106 101.49C72.4936 95.6802 81.6186 91.479 91.2104 89.3887C100.502 87.3637 110.219 87.3226 118.294 89.709L119.071 89.9482C126.752 92.4017 131.467 96.6779 133.027 101.696L133.058 101.797H133.362L133.303 101.61L117.135 50.4873L116.996 50.0703C115.465 45.7807 111.322 42.1794 104.798 40.0957L104.117 39.8857ZM80.4214 39.8818C88.5237 38.1162 96.9955 38.0806 104.035 40.1602L104.711 40.3682C111.183 42.4352 115.235 45.9885 116.726 50.167L116.863 50.5732L132.188 99.0342C129.957 95.0383 125.56 91.7198 119.158 89.6748L118.375 89.4346C110.243 87.0313 100.476 87.0758 91.1489 89.1084C81.521 91.2066 72.3471 95.4266 65.9136 101.278L65.3608 101.792C60.7529 106.163 58.3172 110.814 57.9604 115.2L51.7505 64.9287H51.7515L51.731 64.7676L51.686 64.3418C51.5147 62.345 51.8704 60.2461 52.7749 58.125L52.9771 57.6699C54.0273 55.3947 55.7153 53.0969 58.0571 50.875L58.5347 50.4316C64.103 45.3678 72.0578 41.7045 80.4214 39.8818Z" fill="#07303A"/>
<path d="M63.1182 110.788C62.1105 106.165 64.1574 100.876 69.499 96.0168C80.1807 86.2994 99.993 81.9818 113.748 86.3734C120.627 88.5692 124.689 92.5261 125.697 97.15C126.309 99.957 126.533 100.988 127.145 103.796C128.152 108.419 126.104 113.708 120.764 118.566C110.081 128.284 90.2703 132.601 76.5134 128.21C69.6345 126.014 65.5736 122.056 64.5663 117.433C63.9546 114.626 63.7299 113.595 63.1182 110.788V110.788Z" fill="#2B545E"/>
<path d="M113.14 86.0368C106.359 84.0326 98.216 84.07 90.441 85.7644C82.4153 87.5134 74.7667 91.0312 69.4029 95.9108L68.9098 96.3698C63.9122 101.123 61.9878 106.274 62.9781 110.818L64.4264 117.464C65.4484 122.154 69.5627 126.141 76.4703 128.346C83.3782 130.551 91.7963 130.568 99.8219 128.819C107.597 127.125 115.018 123.77 120.351 119.126L120.861 118.672C126.223 113.793 128.307 108.456 127.285 103.765L125.837 97.1189L125.732 96.6814C124.555 92.1802 120.483 88.373 113.792 86.237L113.14 86.0368ZM90.5016 86.0437C98.2415 84.3569 106.334 84.324 113.058 86.3112L113.705 86.5095C120.341 88.6277 124.311 92.3798 125.456 96.7546L125.557 97.1804L127.005 103.826C127.998 108.381 125.985 113.623 120.668 118.461L120.163 118.91C114.874 123.515 107.501 126.852 99.7613 128.539C91.7717 130.28 83.4061 130.259 76.5572 128.073L75.9234 127.863C69.4594 125.64 65.6681 121.815 64.7066 117.402L63.2584 110.757C62.2968 106.344 64.1533 101.288 69.106 96.5769L69.5953 96.1228C74.9132 91.2849 82.5119 87.7849 90.5016 86.0437Z" fill="#07303A"/>
<path d="M113.749 86.3736C120.627 88.5694 124.689 92.5268 125.696 97.1503C126.704 101.773 124.656 107.062 119.315 111.922C108.633 121.639 88.8211 125.957 75.0647 121.565C68.1862 119.369 64.1243 115.412 63.1171 110.788C62.1099 106.165 64.1573 100.876 69.4984 96.0171C80.1806 86.2992 99.9923 81.9816 113.749 86.3736Z" fill="#94B2C9"/>
<path d="M113.141 86.0369C106.359 84.0324 98.2156 84.0701 90.4405 85.7645C82.4148 87.5135 74.7664 91.0312 69.4024 95.911L68.9092 96.3699C64.0731 100.97 62.1148 105.942 62.8907 110.377L62.9776 110.819C63.9678 115.363 67.8602 119.246 74.3819 121.489L75.0215 121.701C81.9292 123.906 90.3474 123.923 98.3731 122.174C106.148 120.479 113.568 117.125 118.901 112.48L119.411 112.027C124.774 107.148 126.858 101.81 125.836 97.1199L125.731 96.6824C124.555 92.1814 120.484 88.3733 113.792 86.2371L113.141 86.0369ZM90.501 86.0438C98.241 84.357 106.334 84.3239 113.059 86.3114L113.705 86.5096C120.341 88.6279 124.31 92.3811 125.454 96.7557L125.557 97.1805C126.549 101.736 124.537 106.976 119.219 111.815L118.714 112.265C113.426 116.871 106.053 120.208 98.3125 121.894C90.3229 123.635 81.957 123.615 75.1084 121.429C68.2587 119.242 64.2494 115.314 63.2569 110.758L63.1729 110.329C62.4186 106.019 64.3128 101.137 69.1055 96.578L69.5948 96.1229C74.9129 91.2849 82.5114 87.785 90.501 86.0438Z" fill="#07303A"/>
<path opacity="0.1" d="M43.2453 87.7026C41.4937 62.4127 60.5752 40.4913 85.8651 38.7397C111.155 36.9881 133.076 56.0696 134.828 81.3595C136.58 106.649 117.498 128.571 92.2082 130.322C66.9183 132.074 44.9968 112.992 43.2453 87.7026Z" fill="#F7CC69"/>
<path opacity="0.1" d="M85.8749 38.8823C111.086 37.1362 132.939 56.1583 134.685 81.3691C136.431 106.58 117.409 128.433 92.1981 130.179C66.9872 131.925 45.1341 112.903 43.388 87.6924C41.6421 62.4816 60.6641 40.6286 85.8749 38.8823ZM85.8551 38.5969C60.4866 40.3541 41.3457 62.3437 43.1026 87.7122C44.8596 113.081 66.8493 132.223 92.218 130.466C117.587 128.709 136.728 106.718 134.971 81.3493C133.214 55.9807 111.224 36.8398 85.8551 38.5969Z" fill="#07303A"/>
<path opacity="0.1" d="M65.2076 106.624C53.0054 93.4636 53.782 72.9034 66.9421 60.7012C80.1022 48.4991 100.662 49.2756 112.865 62.4357C125.067 75.5958 124.29 96.156 111.13 108.358C97.97 120.56 77.4098 119.784 65.2076 106.624Z" fill="#F7CC69"/>
<path opacity="0.1" d="M67.039 60.806C80.1411 48.6577 100.611 49.4314 112.759 62.5335C124.907 75.6356 124.134 96.1046 111.032 108.253C97.9302 120.401 77.4606 119.629 65.3121 106.527C53.1637 93.4247 53.9369 72.9545 67.039 60.806ZM66.8444 60.5962C53.6264 72.8521 52.8464 93.5033 65.1023 106.721C77.3583 119.939 98.0095 120.719 111.227 108.463C124.445 96.2076 125.225 75.5564 112.97 62.3383C100.714 49.1203 80.0625 48.3404 66.8444 60.5962Z" fill="#07303A"/>
<g opacity="0.6">
<path d="M103.87 41.0512C110.748 43.247 114.81 47.2044 115.817 51.8274C116.824 56.4504 114.777 61.739 109.436 66.5977C98.7539 76.3151 78.9431 80.6323 65.1872 76.2407C58.3092 74.0449 54.2473 70.0875 53.2401 65.4645C52.2328 60.8415 54.2802 55.5529 59.6213 50.6942C70.3031 40.9767 90.1139 36.6596 103.87 41.0512Z" fill="#94B2C9"/>
<path d="M77.1107 78.0952C88.833 78.0952 101.67 73.8558 109.532 66.7035C114.738 61.9679 117.02 56.674 115.957 51.7967C114.894 46.9199 110.617 43.0551 103.914 40.9151C90.1361 36.5163 70.2237 40.8559 59.5252 50.5886C54.3196 55.3242 52.038 60.6181 53.1006 65.4954C54.1631 70.3727 58.4402 74.2371 65.144 76.3775C68.797 77.5436 72.8813 78.0957 77.1107 78.0957V78.0952ZM91.9349 39.4803C96.1385 39.4803 100.195 40.0286 103.826 41.1875C110.428 43.2951 114.637 47.0845 115.677 51.8578C116.717 56.6306 114.466 61.8281 109.34 66.4921C101.528 73.5987 88.7701 77.8113 77.1226 77.8118C72.919 77.8118 68.8624 77.2636 65.2313 76.1046C58.6292 73.9971 54.4203 70.2071 53.3802 65.4343C52.3405 60.6615 54.5911 55.464 59.7175 50.8005C67.5297 43.6939 80.2875 39.4803 91.9349 39.4803Z" fill="#07303A"/>
</g>
<g opacity="0.6">
<path d="M87.0186 134.235C101.08 134.235 116.478 129.15 125.91 120.571C132.149 114.893 134.884 108.549 133.611 102.707C133.546 102.406 133.462 102.087 133.364 101.756H133.365L133.321 101.605L117.154 50.4819L116.88 50.5673C116.979 50.8861 117.052 51.2191 117.122 51.5417C118.211 56.5368 115.855 61.9772 110.49 66.8597C109.875 67.4194 109.219 67.9724 108.541 68.5021C105.942 70.5318 104.853 73.8556 105.765 76.9698C108.464 86.1782 109.753 90.6871 112.034 98.8987C115.059 109.782 116.562 124.976 94.7754 131.251C79.6401 135.608 68.5666 130.359 63.3133 126.842L63.1392 127.069C65.5931 129.223 68.7985 130.941 72.6657 132.174C77.0459 133.572 81.9466 134.235 87.0186 134.235V134.235ZM133.01 101.573L133.044 101.691C133.161 102.068 133.258 102.43 133.332 102.768C134.582 108.506 131.878 114.754 125.717 120.36C112.951 131.972 89.1905 137.15 72.7535 131.902C70.0014 131.024 67.5899 129.9 65.5506 128.548C71.4629 131.853 81.6183 135.338 94.8551 131.526C104.615 128.716 110.716 123.758 112.989 116.79C115.078 110.389 113.602 103.47 112.31 98.8223C110.029 90.6089 108.74 86.0994 106.041 76.8897C105.161 73.889 106.212 70.6854 108.717 68.7282C109.401 68.1938 110.063 67.637 110.684 67.0721C115.623 62.5769 118.045 57.6018 117.621 52.9091L133.011 101.573H133.01Z" fill="#07303A"/>
</g>
<g opacity="0.6">
<path d="M68.679 79.5432C70.204 79.8171 72.2137 79.9731 72.4079 81.5105C72.5467 82.6098 71.6635 83.4615 70.8285 84.025C68.7911 85.4001 66.6722 86.6917 65.602 89.0073C65.3309 89.5937 65.1305 90.2101 64.9554 90.8319C63.1585 97.2107 64.0097 103.994 63.6285 110.61C63.5798 111.452 63.4911 112.346 62.971 113.009C61.0539 115.452 59.7804 111.776 59.5919 110.399C58.535 102.682 57.3603 94.9815 56.8455 87.2046C56.6489 84.234 56.4776 81.2323 56.5263 78.254C56.5783 75.0629 58.8342 76.6265 60.947 77.439C63.451 78.4019 66.0385 79.0689 68.679 79.5432Z" fill="#94B2C9"/>
<path d="M61.7156 113.971C62.1689 113.971 62.6279 113.679 63.0836 113.098C63.6266 112.406 63.721 111.494 63.7716 110.619C63.8928 108.513 63.8899 106.358 63.8866 104.274C63.8799 99.8155 63.8728 95.2049 65.0933 90.8715C65.3037 90.1248 65.5008 89.5684 65.7322 89.0679C66.706 86.9609 68.6108 85.6845 70.453 84.4501L70.9087 84.1438C72.1168 83.3279 72.6693 82.4361 72.55 81.4928C72.3625 80.0118 70.6815 79.7332 69.1986 79.4869C69.0302 79.4588 68.8646 79.4316 68.7043 79.4025C65.8586 78.8915 63.3374 78.2053 60.998 77.3055C60.6755 77.1814 60.3496 77.0397 60.0289 76.9004C58.8661 76.3951 57.7682 75.9175 57.064 76.3717C56.6217 76.6566 56.3984 77.2716 56.3826 78.2521C56.3325 81.313 56.5129 84.3581 56.7018 87.2147C57.1389 93.8164 58.066 100.471 58.9625 106.907C59.1257 108.077 59.2889 109.248 59.4492 110.419C59.5819 111.388 60.2656 113.617 61.4322 113.934C61.5262 113.959 61.6207 113.972 61.7151 113.972L61.7156 113.971ZM68.6537 79.6845C68.8155 79.7136 68.9824 79.7413 69.1518 79.7694C70.5365 79.9989 72.1053 80.2594 72.2656 81.5291C72.3701 82.3565 71.8596 83.1566 70.7479 83.9072L70.2932 84.2125C68.418 85.4688 66.4794 86.7676 65.4717 88.9477C65.2336 89.4625 65.0322 90.0317 64.8175 90.7937C63.586 95.1657 63.5932 99.7964 63.5998 104.274C63.6032 106.355 63.6065 108.506 63.4853 110.603C63.4371 111.432 63.3498 112.295 62.8579 112.922C62.3846 113.524 61.9294 113.772 61.5071 113.657C60.5462 113.397 59.8672 111.361 59.7326 110.38C59.5723 109.209 59.4091 108.038 59.2459 106.867C58.3499 100.437 57.4233 93.7868 56.9872 87.1956C56.7982 84.3452 56.6183 81.3068 56.6684 78.2569C56.6827 77.3799 56.8626 76.8417 57.2186 76.6127C57.795 76.2419 58.8241 76.6895 59.9144 77.1633C60.2389 77.304 60.5686 77.4476 60.8945 77.5727C63.251 78.4792 65.7894 79.1701 68.6527 79.6845H68.6537Z" fill="#07303A"/>
</g>
<g opacity="0.6">
<path d="M64.5293 115.92C65.1954 116.555 65.5776 117.511 65.3538 118.49C64.9797 120.128 62.8374 120.819 61.4813 119.904C59.9521 118.873 59.8094 116.628 61.4026 115.565C62.4786 114.847 63.7163 115.145 64.5293 115.92Z" fill="#94B2C9"/>
<path d="M62.8677 120.454C63.2274 120.454 63.5939 120.387 63.9412 120.25C64.7495 119.93 65.3149 119.301 65.4924 118.523C65.7133 117.556 65.3898 116.544 64.6274 115.817C63.8358 115.063 62.5069 114.656 61.3222 115.447C60.564 115.953 60.1275 116.757 60.1255 117.654C60.1232 118.598 60.5998 119.484 61.4005 120.024C61.8227 120.309 62.3385 120.454 62.8677 120.454ZM64.4303 116.024C65.1193 116.681 65.4122 117.591 65.2138 118.459C65.0573 119.143 64.5553 119.699 63.8363 119.983C63.0652 120.288 62.1935 120.213 61.5603 119.786C60.8393 119.299 60.4099 118.502 60.4118 117.654C60.4137 116.854 60.8036 116.136 61.4811 115.685C62.6071 114.933 63.7733 115.398 64.4298 116.024H64.4303Z" fill="#07303A"/>
</g>
<g opacity="0.6">
<path d="M80.097 43.0938C80.4453 43.2589 80.6252 43.4073 80.8007 43.6282C81.3285 44.2934 80.4939 45.1747 79.7587 45.5998C75.5665 48.0227 71.1959 50.2533 67.614 53.5112C64.0317 56.7691 61.2638 61.2986 61.3836 66.1392C61.4103 67.2228 61.5797 68.2963 61.7133 69.3718C61.7772 69.8847 61.8311 70.4168 61.6765 70.9101C61.5219 71.4035 61.103 71.851 60.5863 71.8754C60.2079 71.893 59.8572 71.6893 59.5466 71.4722C55.8626 68.8971 54.7079 63.6862 55.9337 59.3614C57.1594 55.0366 60.3295 51.513 63.8527 48.7222C68.0654 45.3851 77.9217 42.0613 80.097 43.0938Z" fill="#94B2C9"/>
<path d="M60.5403 72.0197C60.5579 72.0197 60.5751 72.0197 60.5927 72.0188C61.2106 71.9892 61.6582 71.4457 61.8128 70.9533C61.9722 70.4452 61.9235 69.907 61.8548 69.3544C61.8281 69.1397 61.7999 68.925 61.7718 68.7098C61.6615 67.8667 61.547 66.9955 61.526 66.1357C61.4206 61.85 63.6746 57.2876 67.7098 53.6174C70.6852 50.9116 74.2666 48.8833 77.7297 46.9217C78.432 46.5243 79.1334 46.1263 79.8301 45.7241C80.3411 45.4288 80.9785 44.8715 81.0926 44.2727C81.1441 44.0016 81.0835 43.755 80.9132 43.5398C80.7123 43.2864 80.5081 43.1309 80.1588 42.9653C77.8833 41.886 67.9245 45.3147 63.7643 48.6103C59.5445 51.9532 56.8634 55.5575 55.7965 59.3226C54.4448 64.0911 55.954 69.135 59.4653 71.5898C59.7716 71.8036 60.1371 72.0197 60.5412 72.0197H60.5403ZM78.8724 43.0283C79.3577 43.0283 79.7537 43.0898 80.0357 43.2239C80.3859 43.39 80.54 43.5307 80.6884 43.7177C80.8068 43.8666 80.8468 44.0307 80.8111 44.2192C80.7213 44.6906 80.1817 45.1902 79.6869 45.4765C78.9908 45.8787 78.2898 46.2757 77.5889 46.6731C74.112 48.6423 70.5168 50.6787 67.5179 53.4061C63.4208 57.132 61.1329 61.7746 61.2402 66.1433C61.2617 67.0184 61.3772 67.8973 61.4883 68.7475C61.5165 68.9618 61.5446 69.176 61.5709 69.3902C61.6382 69.9299 61.6821 70.4142 61.5399 70.8679C61.4139 71.2687 61.0599 71.7106 60.5794 71.733C60.2454 71.7511 59.9085 71.5507 59.6284 71.3551C55.8228 68.695 54.9582 63.3277 56.0709 59.4008C57.1211 55.6944 59.7692 52.1393 63.9413 48.8346C67.1868 46.2633 75.3612 43.0283 78.8724 43.0283Z" fill="#07303A"/>
</g>
<path d="M90.5709 12.8706C91.1263 12.899 91.5509 13.3696 91.523 13.9231L90.9083 26.1709C90.8803 26.7244 90.4089 27.1503 89.8563 27.1226C89.7827 27.1189 89.7112 27.1074 89.643 27.089C89.1972 26.9681 88.8805 26.55 88.9043 26.07L89.519 13.8223C89.5469 13.2687 90.0183 12.8429 90.5709 12.8706ZM124.033 24.4075C124.335 23.9423 124.956 23.8082 125.421 24.1093C125.886 24.4104 126.02 25.0315 125.719 25.4967L119.063 35.7962C118.82 36.1722 118.368 36.3316 117.958 36.2204C117.86 36.1939 117.765 36.1523 117.676 36.0944C117.21 35.7933 117.077 35.1723 117.377 34.707L124.033 24.4075ZM54.7712 20.5625C55.2647 20.3102 55.8689 20.5051 56.1218 20.9983L61.7134 31.913C61.9658 32.4061 61.7712 33.0108 61.2775 33.2636C61.0462 33.3818 60.7906 33.402 60.558 33.339C60.2946 33.2675 60.0611 33.0895 59.9269 32.8277L54.3353 21.9131C54.0829 21.42 54.2775 20.8153 54.7712 20.5625ZM148.632 50.8318C149.125 50.5797 149.729 50.7743 149.983 51.2676C150.235 51.7607 150.041 52.3654 149.547 52.6182L138.632 58.2098C138.401 58.328 138.145 58.3482 137.912 58.285C137.649 58.2137 137.416 58.0357 137.282 57.7739C137.029 57.2808 137.224 56.6761 137.718 56.4233L148.632 50.8318ZM17.4273 79.022L29.6755 79.6368C30.2268 79.6637 30.6546 80.1356 30.6271 80.6892C30.5991 81.2427 30.1277 81.6686 29.5747 81.6408L17.3264 81.026C17.2532 81.0225 17.1817 81.011 17.1135 80.9925C16.6678 80.8717 16.351 80.4536 16.3749 79.9736C16.4028 79.4201 16.8737 78.9941 17.4273 79.022ZM27.6129 45.1244C27.9131 44.659 28.534 44.5258 29.0003 44.8262L39.3003 51.4824C39.7654 51.7835 39.8991 52.4046 39.598 52.8697C39.3552 53.2459 38.9031 53.4051 38.4933 53.294C38.3957 53.2675 38.3002 53.2258 38.2106 53.1679L27.9106 46.5117C27.4453 46.2111 27.3118 45.5895 27.6129 45.1244Z" fill="#F7CC69"/>
<path d="M17.0758 81.1308C17.1541 81.152 17.2361 81.1649 17.319 81.1691L29.5672 81.7838C30.1983 81.8155 30.738 81.3276 30.7697 80.6964C30.7848 80.3906 30.68 80.0972 30.4742 79.8699C30.2685 79.6421 29.9867 79.5088 29.6823 79.494L17.434 78.8792C16.8029 78.8475 16.2633 79.3355 16.2316 79.9666C16.2048 80.5012 16.56 80.991 17.0758 81.1308ZM29.8514 79.8093C30.0084 79.8519 30.15 79.9387 30.2618 80.0624C30.4162 80.2333 30.4954 80.4535 30.4842 80.6828C30.4601 81.1563 30.0553 81.5226 29.5817 81.499L17.3334 80.8843C16.8608 80.8605 16.4946 80.4443 16.5176 79.9819C16.5417 79.5084 16.9465 79.142 17.4202 79.1656L29.6684 79.7804C29.7308 79.7835 29.7924 79.7933 29.8514 79.8093ZM38.4564 53.4325C38.9395 53.5635 39.4466 53.3687 39.7188 52.9482C40.062 52.4173 39.9097 51.7062 39.3784 51.3629L29.0784 44.7067C28.5461 44.3632 27.8357 44.5166 27.4931 45.0471C27.15 45.578 27.3022 46.2891 27.8336 46.6324L38.1336 53.2886C38.2337 53.3533 38.3422 53.4015 38.4564 53.4325ZM28.6817 44.8389C28.765 44.8615 28.8464 44.8969 28.9229 44.9463L39.2229 51.6025C39.6212 51.8603 39.7357 52.3936 39.4784 52.792C39.2262 53.1824 38.6829 53.3011 38.2889 53.0475L27.9889 46.3913C27.7958 46.2667 27.6631 46.074 27.6148 45.8494C27.5664 45.6247 27.6085 45.3948 27.7335 45.2018C27.9414 44.88 28.3298 44.7435 28.6817 44.8389ZM137.876 58.4235C138.151 58.4983 138.443 58.4677 138.698 58.3374L149.613 52.7454C150.175 52.4574 150.398 51.7651 150.11 51.2025C149.821 50.6402 149.129 50.4169 148.567 50.7045L137.652 56.2961C137.09 56.5841 136.867 57.2765 137.155 57.839C137.302 58.1261 137.565 58.3392 137.876 58.4235ZM149.314 50.8956C149.54 50.9569 149.74 51.1091 149.855 51.333C150.071 51.7549 149.904 52.2742 149.481 52.4904L138.567 58.082C138.16 58.29 137.617 58.1141 137.409 57.7083C137.193 57.2864 137.36 56.7671 137.783 56.5509L148.697 50.9593C148.895 50.8582 149.114 50.8415 149.314 50.8956ZM60.5207 33.4773C60.7961 33.552 61.0881 33.5214 61.3429 33.3913C61.9056 33.1028 62.1289 32.4105 61.8409 31.8479L56.2494 20.9333C55.9613 20.3712 55.2689 20.1479 54.7065 20.4354C54.1438 20.7238 53.9205 21.4162 54.2085 21.9788L59.8 32.8934C59.9472 33.1805 60.2099 33.3931 60.5207 33.4773ZM55.4535 20.6266C55.6792 20.6877 55.8796 20.84 55.9944 21.0639L61.5861 31.9781C61.8019 32.4004 61.6349 32.9197 61.2124 33.1359C60.8045 33.3442 60.2626 33.1676 60.0546 32.7622L54.4629 21.848C54.2471 21.4261 54.4142 20.9064 54.8366 20.6902C55.0346 20.5891 55.2541 20.5725 55.4535 20.6266ZM117.921 36.3588C118.404 36.4897 118.911 36.2951 119.183 35.8745L125.839 25.575C126.183 25.0442 126.03 24.3329 125.499 23.9898C125.242 23.8232 124.935 23.7667 124.636 23.8314C124.337 23.8956 124.08 24.0727 123.914 24.3302L117.258 34.6297C116.914 35.1606 117.067 35.8719 117.598 36.215C117.698 36.2797 117.807 36.3279 117.921 36.3588ZM125.101 24.121C125.186 24.1441 125.267 24.1806 125.344 24.2294C125.742 24.4872 125.857 25.0206 125.599 25.4189L118.943 35.7184C118.69 36.1087 118.147 36.2279 117.753 35.9738C117.355 35.7161 117.24 35.1827 117.498 34.7844L124.154 24.4849C124.279 24.2918 124.471 24.159 124.696 24.1107C124.832 24.0813 124.97 24.0857 125.101 24.121ZM89.6055 27.2278C89.6838 27.249 89.7659 27.2619 89.8491 27.2666C90.4803 27.2979 91.0199 26.8104 91.0517 26.1788L91.6663 13.931C91.6982 13.3009 91.2101 12.7618 90.5789 12.7286C89.9478 12.6969 89.4086 13.185 89.377 13.8161L88.7623 26.0639C88.7355 26.5984 89.0898 27.088 89.6055 27.2278ZM90.7454 13.0426C91.1281 13.1464 91.401 13.5056 91.3806 13.9163L90.7659 26.1641C90.7419 26.6376 90.3371 27.0039 89.8639 26.9805C89.3883 26.9568 89.0248 26.5399 89.0477 26.078L89.6623 13.8302C89.6864 13.3567 90.0912 12.9904 90.5644 13.0138C90.6268 13.0169 90.6874 13.0269 90.7454 13.0426Z" fill="#07303A"/>
<path d="M109.682 91.2738L111.135 97.4634C111.135 97.4634 111.135 97.4685 111.136 97.4705L111.149 97.5259L111.14 97.5279C111.74 100.219 110.578 103.303 107.488 106.158C101.264 111.908 89.6123 114.543 81.4641 112.041C77.397 110.792 74.9733 108.499 74.3374 105.802L74.3357 105.801L74.3328 105.789L74.3322 105.787L73.0352 100.154L75.2703 99.6122C75.894 98.5361 76.681 97.4586 77.8122 96.4137C84.0359 90.6634 95.6878 88.0284 103.836 90.5293C105.047 90.901 106.062 91.3896 106.978 91.9291L109.682 91.2738Z" fill="#07303A"/>
<path d="M103.792 90.6726C104.84 90.9942 105.74 91.4048 106.557 91.8606L106.901 92.0584L106.954 92.0889L107.013 92.0743L109.57 91.4558L110.969 97.4121L110.96 97.4135L110.993 97.5604L111.043 97.8076C111.505 100.371 110.356 103.302 107.386 106.047L107.386 106.049C104.298 108.901 99.8547 110.987 95.1642 112.047C90.4737 113.108 85.5512 113.139 81.508 111.897C77.5971 110.696 75.2528 108.534 74.5469 106.013L74.4833 105.767L74.464 105.684L74.4621 105.683L73.2145 100.265L75.3061 99.7578L75.3678 99.743L75.4001 99.6876C76.0178 98.622 76.796 97.5564 77.9143 96.5235L78.207 96.2589C81.2794 93.5415 85.5915 91.5511 90.1358 90.5235C94.68 89.496 99.4417 89.4351 103.411 90.5606L103.792 90.6726ZM74.3183 105.792L74.3266 105.789L74.3321 105.787L74.3183 105.792ZM103.493 90.271C99.4642 89.1288 94.6497 89.1956 90.0693 90.2313C85.4888 91.2671 81.1273 93.2758 78.0083 96.0344L77.7101 96.3035C76.5857 97.3421 75.799 98.4134 75.1744 99.4814L73.0002 100.008L72.8558 100.042L72.8889 100.187L74.1861 105.82L74.1872 105.824L74.1896 105.835L74.2089 105.919L74.2136 105.92C74.8964 108.65 77.3649 110.94 81.4197 112.185C85.5246 113.445 90.5023 113.409 95.2305 112.34C99.9586 111.271 104.454 109.165 107.59 106.268L107.876 105.998C110.723 103.247 111.84 100.282 111.316 97.6432L111.329 97.6392L111.283 97.4389L111.281 97.4312L111.28 97.4291L109.827 91.2396L109.793 91.0921L109.646 91.1278L107.001 91.7693C106.091 91.2373 105.081 90.7546 103.88 90.386L103.493 90.271ZM74.303 105.796L74.2938 105.799L74.3183 105.792L74.303 105.796Z" fill="#07303A"/>
<path d="M85.9034 112.88C84.3512 112.742 82.8555 112.468 81.4635 112.041C77.3964 110.792 74.9727 108.498 74.3368 105.801L74.3351 105.801L74.3322 105.788L74.3316 105.786L73.0344 100.154L75.2695 99.6122C75.8933 98.5361 76.6802 97.4587 77.8115 96.4137C78.8772 95.4292 80.1042 94.539 81.4431 93.7472L85.9034 112.88Z" fill="#07303A"/>
<path d="M72.9995 100.008L72.8549 100.043L72.8883 100.187L73.0345 100.153L72.9995 100.008ZM86.0499 112.846L81.5897 93.7138L81.5426 93.5144L81.3669 93.6178L80.8672 93.921C79.8786 94.5369 78.9562 95.2094 78.1205 95.9359L77.7104 96.3034C76.5858 97.3422 75.7981 98.4138 75.1734 99.4819L72.9995 100.008L73.0352 100.154L72.8883 100.187L74.1855 105.82L74.3358 105.786L74.3315 105.787L74.1855 105.82L74.1865 105.823L74.189 105.835L74.3355 105.8L74.3352 105.801L74.189 105.835L74.2092 105.919L74.2129 105.92C74.8957 108.65 77.365 110.94 81.42 112.185C82.8233 112.616 84.3296 112.891 85.8905 113.029L86.0964 113.048L86.0499 112.846ZM74.3309 105.789L74.3321 105.788L74.3398 105.786L74.3395 105.787L74.3309 105.789ZM81.5083 111.897C77.5971 110.696 75.2521 108.534 74.5463 106.012L74.4827 105.767L74.4634 105.683L74.4615 105.683L73.2145 100.266L75.3051 99.7583L75.3672 99.7426L75.3995 99.6872C76.0171 98.6217 76.7952 97.5569 77.9134 96.524L78.3177 96.1619C79.2285 95.3702 80.2473 94.6438 81.3447 93.9828L85.7105 112.71C84.2413 112.568 82.827 112.302 81.5083 111.897Z" fill="#07303A"/>
<path d="M106.122 100.276C99.898 106.027 88.2463 108.662 80.0979 106.16C71.9497 103.658 70.3902 96.9675 76.6148 91.2162C82.8388 85.4647 94.4905 82.8303 102.639 85.3318C110.787 87.8339 112.347 94.5239 106.122 100.276Z" fill="#F7CC69"/>
<path d="M102.595 85.4745C106.64 86.7165 109.011 88.9856 109.625 91.6192C110.219 94.1699 109.178 97.1201 106.304 99.8969L106.021 100.165C102.933 103.019 98.4897 105.106 93.799 106.166C89.2549 107.194 84.4931 107.255 80.5239 106.129L80.1428 106.016C76.0985 104.774 73.7271 102.506 73.1131 99.8725C72.4994 97.2393 73.6281 94.1805 76.7171 91.3264L77.0101 91.0609C80.0826 88.343 84.3947 86.3529 88.9389 85.3254C93.4831 84.298 98.2448 84.2367 102.214 85.3625L102.595 85.4745ZM102.295 85.0739C98.2671 83.9314 93.4529 83.9967 88.8726 85.0323C84.2921 86.068 79.9305 88.0773 76.8113 90.8364L76.5132 91.1054C73.3777 94.0025 72.174 97.1647 72.8207 99.94C73.4472 102.628 75.797 104.897 79.6741 106.182L80.0545 106.304C84.1595 107.564 89.1371 107.528 93.8653 106.459C98.5933 105.39 103.088 103.284 106.224 100.386L106.513 100.113C109.433 97.2909 110.543 94.239 109.917 91.5505C109.27 88.7757 106.787 86.448 102.683 85.1879L102.295 85.0739Z" fill="#07303A"/>
<path fill-rule="evenodd" clip-rule="evenodd" d="M104.575 89.4191C104.934 90.1901 104.601 91.1067 103.83 91.4664L92.2771 96.8578C91.8951 97.0361 91.4568 97.05 91.0643 96.8964L82.207 93.4305C81.4148 93.1205 81.0239 92.227 81.3339 91.4347C81.6439 90.6425 82.5374 90.2516 83.3297 90.5616L91.5723 93.787L102.527 88.6747C103.298 88.3149 104.215 88.6482 104.575 89.4191Z" fill="#07303A"/>
</g>
<defs>
<clipPath id="clip0_9503_14098">
<rect width="172" height="172" fill="white"/>
</clipPath>
</defs>
</svg>
