<svg width="178" height="172" viewBox="0 0 178 172" fill="none" xmlns="http://www.w3.org/2000/svg">
<path d="M41.6684 49.0421C40.1245 49.0421 38.7025 48.04 38.2285 46.5096C38.066 45.995 37.944 45.4533 37.8357 44.9116C36.9419 40.4018 37.9169 35.716 40.4765 32.0594C41.6005 30.4478 43.8353 30.055 45.4469 31.1791C47.0721 32.3031 47.4647 34.5106 46.3407 36.1358C44.878 38.2214 44.3362 40.9164 44.8508 43.5437C44.9185 43.8688 44.9865 44.1802 45.0948 44.4917C45.6636 46.3742 44.5802 48.365 42.6841 48.9067C42.3456 49.0015 42.007 49.0557 41.6684 49.0557V49.0421Z" fill="#07303A"/>
<path d="M54.3983 145.417L50.6198 151.592L12.0768 52.6482L15.8554 46.4726L54.3983 145.417Z" fill="#07303A"/>
<path d="M50.6196 152.268C50.6196 152.268 50.5789 152.268 50.5654 152.268C50.3081 152.24 50.0915 152.078 49.9967 151.834L11.4537 52.89C11.3725 52.6868 11.3996 52.4701 11.508 52.2941L15.2865 46.1185C15.4219 45.9019 15.6521 45.7664 15.9229 45.7935C16.1803 45.8206 16.3968 45.9831 16.4916 46.2269L55.0346 145.171C55.1159 145.374 55.0887 145.591 54.9804 145.767L51.2022 151.943C51.0803 152.146 50.8634 152.268 50.6196 152.268ZM12.8351 52.7139L50.7552 150.074L53.6396 145.361L15.7196 48.001L12.8351 52.7275V52.7139Z" fill="#07303A"/>
<path d="M77.1773 43.4875C75.647 43.4875 74.2249 42.4853 73.7509 40.955C73.5884 40.4404 73.4665 39.8987 73.3581 39.3569C72.4643 34.8472 73.4258 30.1613 75.9989 26.5048C77.123 24.8932 79.3578 24.5004 80.9694 25.6245C82.5945 26.7485 82.9871 28.956 81.8631 30.5812C80.4005 32.6668 79.8586 35.3618 80.3732 37.9891C80.441 38.3141 80.5089 38.6256 80.6172 38.9371C81.186 40.8196 80.1026 42.8104 78.2066 43.3521C77.868 43.4469 77.5294 43.5011 77.1773 43.5011V43.4875Z" fill="#07303A"/>
<path d="M112.267 32.9771L150.824 131.935L54.5615 145.383L16.005 46.4387L112.267 32.9771Z" fill="#94B2C9"/>
<path d="M54.5609 146.074C54.2901 146.074 54.0328 145.911 53.9244 145.64L15.3676 46.696C15.2863 46.5064 15.3135 46.2897 15.4083 46.1137C15.5031 45.9376 15.6928 45.8157 15.896 45.7886L112.159 32.327C112.484 32.2864 112.768 32.4624 112.89 32.7468L151.447 131.705C151.528 131.894 151.501 132.111 151.406 132.287C151.311 132.463 151.121 132.585 150.918 132.612L54.6555 146.06C54.6555 146.06 54.588 146.06 54.5609 146.06V146.074ZM16.9523 46.9939L55.0076 144.652L149.889 131.393L111.834 33.7219L16.9523 46.9939Z" fill="#07303A"/>
<path d="M112.267 32.9771L150.824 131.935L54.5615 145.383L16.005 46.4387L112.267 32.9771Z" fill="#94B2C9"/>
<path d="M54.5609 146.074C54.2901 146.074 54.0328 145.911 53.9244 145.64L15.3676 46.696C15.2863 46.5064 15.3135 46.2897 15.4083 46.1137C15.5031 45.9376 15.6928 45.8157 15.896 45.7886L112.159 32.327C112.484 32.2864 112.768 32.4624 112.89 32.7468L151.447 131.705C151.528 131.894 151.501 132.111 151.406 132.287C151.311 132.463 151.121 132.585 150.918 132.612L54.6555 146.06C54.6555 146.06 54.588 146.06 54.5609 146.06V146.074ZM16.9523 46.9939L55.0076 144.652L149.889 131.393L111.834 33.7219L16.9523 46.9939Z" fill="#07303A"/>
<path d="M104.007 44.8166L134.438 122.945L58.4486 133.563L28.0178 55.4477L104.007 44.8166Z" fill="#94B2C9"/>
<path d="M58.4477 134.241C58.1768 134.241 57.9195 134.079 57.8112 133.808L27.3804 55.6926C27.2991 55.503 27.3263 55.2863 27.4211 55.1102C27.5159 54.9342 27.7053 54.8123 27.9084 54.7852L103.898 44.154C104.223 44.0999 104.507 44.2895 104.629 44.5739L135.06 122.703C135.141 122.892 135.114 123.109 135.019 123.285C134.924 123.461 134.735 123.583 134.531 123.61L58.5426 134.228C58.5426 134.228 58.4747 134.228 58.4477 134.228V134.241ZM28.9648 56.004L58.8947 132.819L133.502 122.391L103.573 45.5625L28.9648 56.004Z" fill="#07303A"/>
<path d="M105.456 41.7852L135.887 119.914L59.9115 130.532L29.4807 52.4163L105.456 41.7852Z" fill="#94B2C9"/>
<path d="M59.9106 131.194C59.6397 131.194 59.3824 131.031 59.2741 130.76L28.8433 52.6452C28.7621 52.4556 28.7892 52.2389 28.884 52.0629C28.9788 51.8868 29.1682 51.7649 29.3713 51.7379L105.347 41.1067C105.658 41.0525 105.956 41.2421 106.078 41.5265L136.509 119.655C136.59 119.845 136.563 120.062 136.468 120.238C136.374 120.414 136.184 120.536 135.981 120.563L60.0055 131.18C60.0055 131.18 59.9377 131.18 59.9106 131.18V131.194ZM30.4277 52.9567L60.3576 129.772L134.951 119.344L105.022 42.5152L30.4277 52.9567Z" fill="#07303A"/>
<path d="M150.822 131.946L147.031 138.121L50.7814 151.583L54.5599 145.394L150.822 131.946Z" fill="#2B545E"/>
<path d="M50.7822 152.263C50.552 152.263 50.3354 152.154 50.2135 151.951C50.0646 151.735 50.0646 151.45 50.2135 151.22L53.9917 145.031C54.1001 144.855 54.2763 144.746 54.4794 144.719L150.742 131.271C151.013 131.231 151.257 131.353 151.406 131.569C151.555 131.786 151.555 132.07 151.406 132.301L147.614 138.476C147.505 138.652 147.329 138.761 147.126 138.788L50.8771 152.249C50.8771 152.249 50.8093 152.249 50.7822 152.249V152.263ZM54.9668 146.02L52.0958 150.705L146.612 137.488L149.482 132.815L54.9668 146.02Z" fill="#07303A"/>
<path d="M30.8067 49.8665L106.782 39.2353C106.782 39.2353 126.677 93.2714 161.143 104.729L81.809 115.82C47.356 104.336 30.8067 49.8529 30.8067 49.8529V49.8665Z" fill="#F7CC69"/>
<path d="M81.8089 116.51C81.7412 116.51 81.6601 116.51 81.5924 116.469C47.207 105.012 30.3191 50.61 30.1566 50.0548C30.1024 49.8652 30.1296 49.662 30.2379 49.4995C30.3463 49.337 30.5221 49.2151 30.7117 49.188L106.687 38.5569C106.999 38.5027 107.31 38.6923 107.419 38.9902C107.622 39.5319 127.597 92.8502 161.36 104.077C161.658 104.172 161.847 104.47 161.82 104.781C161.793 105.093 161.55 105.35 161.238 105.391L81.9038 116.483C81.9038 116.483 81.836 116.483 81.8089 116.483V116.51ZM31.7003 50.4339C33.8672 57.0293 50.4437 104.551 81.8767 115.142L158.38 104.443C127.327 91.9835 108.448 45.4095 106.349 39.9924L31.7003 50.4339Z" fill="#07303A"/>
<path d="M91.1395 52.5099C89.4602 52.5099 87.9704 51.3453 87.6318 49.6388C87.2526 47.7158 88.5122 45.8468 90.4488 45.4676C95.0263 44.5874 97.9381 39.7661 96.9359 34.7552C95.9473 29.7444 91.4237 26.3857 86.8598 27.2796C84.8554 27.6723 83.0814 28.8505 81.8625 30.5976C80.7385 32.2092 78.504 32.6019 76.8788 31.4779C75.2672 30.3538 74.8608 28.1463 75.9984 26.5212C78.2871 23.2573 81.6457 21.0499 85.4784 20.305C93.9156 18.6528 102.204 24.5304 103.951 33.401C105.712 42.2715 100.254 50.8171 91.8302 52.4693C91.5864 52.5235 91.3562 52.537 91.1395 52.537V52.5099Z" fill="#07303A"/>
<path d="M55.6171 58.033C53.9378 58.033 52.448 56.8683 52.1094 55.1619C51.7302 53.2388 52.9898 51.3699 54.94 50.9907C59.5039 50.1104 62.4154 45.2892 61.4267 40.2783C60.4381 35.2675 55.9013 31.9088 51.3374 32.8027C49.333 33.1954 47.5725 34.3736 46.3401 36.1207C45.2161 37.7323 42.9816 38.125 41.37 37.0009C39.7449 35.8769 39.3519 33.6694 40.476 32.0443C42.7647 28.7804 46.1369 26.5729 49.956 25.8281C58.4067 24.1758 66.6816 30.0535 68.4286 38.924C70.1892 47.7946 64.745 56.3402 56.3078 57.9924C56.0776 58.0466 55.8338 58.0601 55.6171 58.0601V58.033Z" fill="#07303A"/>
<path fill-rule="evenodd" clip-rule="evenodd" d="M76.2351 61.0077C78.1272 60.1018 80.4048 60.8821 81.3222 62.7503L89.4968 79.3973L110.744 78.374C112.844 78.2728 114.63 79.872 114.733 81.9458C114.835 84.0196 113.215 85.7827 111.115 85.8839L88.1194 86.9915C86.131 87.0872 84.2769 86.0015 83.4084 84.2329L74.4701 66.0306C73.5527 64.1623 74.3429 61.9135 76.2351 61.0077Z" fill="#07303A"/>
<path fill-rule="evenodd" clip-rule="evenodd" d="M75.9979 60.5122C78.1581 59.478 80.7634 60.3659 81.8153 62.5082L89.8309 78.8313L110.718 77.8253C113.114 77.7099 115.163 79.5356 115.281 81.9186C115.399 84.3023 113.539 86.3171 111.141 86.4325L88.1459 87.5401C85.9416 87.6463 83.8817 86.4429 82.9154 84.475L73.9771 66.2727C72.9232 64.1265 73.8339 61.5481 75.9979 60.5122ZM80.8292 62.9924C80.0463 61.3981 78.0964 60.7256 76.4723 61.5031C74.8519 62.2788 74.1823 64.1981 74.9632 65.7884L83.9015 83.9907C84.6721 85.5601 86.3205 86.5281 88.093 86.4428L111.089 85.3352C112.892 85.2483 114.271 83.7368 114.184 81.9729C114.097 80.2083 112.575 78.8357 110.77 78.9226L89.1628 79.9634L80.8292 62.9924Z" fill="#07303A"/>
</svg>
