<svg width="172" height="181" viewBox="0 0 172 181" fill="none" xmlns="http://www.w3.org/2000/svg">
<g clip-path="url(#clip0_9503_13288)">
<path d="M55.7464 174.184L49.0241 172.415L126.71 92.8202L133.433 94.5909L55.7464 174.184Z" fill="#155C6D"/>
<path d="M55.8338 174.5L48.4816 172.566L48.8228 172.216L126.622 92.5045L133.975 94.4389L133.633 94.7887L55.8338 174.5ZM49.5667 172.265L55.659 173.869L132.89 94.7411L126.798 93.1376L49.5667 172.265Z" fill="#155C6D"/>
<path d="M125.887 90.4747C126.342 91.7669 125.939 93.6133 124.986 94.5882L55.9873 165.278L54.2456 167.061L49.4962 171.925C48.9126 171.386 48.4313 170.723 48.1999 170.071L19.3487 87.6995C19.2666 87.459 19.1937 87.2101 19.1402 86.9675C19.127 86.8985 19.1119 86.83 19.1001 86.7665C19.0884 86.703 19.0758 86.6436 19.0656 86.5855C19.0585 86.5246 19.0498 86.472 19.0452 86.4203C19.0355 86.3503 19.0277 86.2798 19.0232 86.2142C19.0093 86.0727 19.0039 85.9406 19.0031 85.8112C19.0015 85.7704 19.0015 85.735 19.0017 85.6937C19.0031 85.6423 19.0054 85.5945 19.0078 85.5467C19.0077 85.5114 19.0228 85.3618 19.0281 85.325C19.0767 84.9658 19.1725 84.6859 19.3339 84.5234C19.7846 84.0627 19.9965 82.5916 19.8136 81.228L19.1164 76.0093C18.9351 74.6511 19.5555 72.7566 20.5132 71.7784L42.9579 48.785C43.9092 47.8046 45.3017 47.9397 46.0714 49.0741L47.8907 51.784C48.6614 52.9221 50.0529 53.0535 51.0052 52.0767L94.4897 7.52793C95.441 6.54757 96.5823 6.80908 97.0375 8.10132L125.887 90.4747Z" fill="#70C5AD"/>
<path d="M49.5076 172.319L49.308 172.133C48.6623 171.538 48.1769 170.839 47.9358 170.165L19.0841 87.7923C18.9966 87.5396 18.919 87.2802 18.866 87.0257L18.776 86.5458C18.7713 86.5078 18.7667 86.4699 18.7648 86.435C18.7569 86.3783 18.7465 86.2986 18.7444 86.2207C18.7322 86.0924 18.7238 85.9494 18.7246 85.8117L18.724 85.69L18.7277 85.5555C18.7306 85.4957 18.7457 85.3324 18.7496 85.2901C18.8126 84.8425 18.9357 84.5275 19.1329 84.3256C19.4733 83.9799 19.7198 82.6407 19.5362 81.2674L18.8385 76.0469C18.642 74.5848 19.2907 72.6236 20.3123 71.5806L42.7569 48.5872C43.2772 48.0542 43.9315 47.7945 44.6023 47.8543C45.2772 47.915 45.8819 48.2917 46.3038 48.9154L48.1253 51.6267C48.4509 52.1062 48.9047 52.3951 49.4084 52.4422C49.9103 52.4899 50.4054 52.288 50.8042 51.879L94.2882 7.32832C94.8186 6.78271 95.4279 6.55706 96.0085 6.68506C96.5878 6.81539 97.0493 7.28674 97.3035 8.00798L126.153 90.3814C126.642 91.7665 126.208 93.7448 125.189 94.7873L49.5076 172.319ZM43.9959 48.4701C43.6939 48.5537 43.4053 48.7279 43.1572 48.9852L20.7125 71.9785C19.8119 72.8957 19.2233 74.6871 19.394 75.9717L20.0917 81.1922C20.2622 82.4552 20.1245 84.1237 19.5332 84.7235C19.4605 84.7986 19.3609 84.9735 19.3078 85.3654C19.3027 85.3962 19.2922 85.5268 19.2899 85.5609L19.2855 85.6996L19.007 85.812L19.29 85.8142C19.2882 85.9345 19.2947 86.0565 19.3074 86.1866C19.31 86.2664 19.3179 86.3231 19.3264 86.3817L19.4192 86.9138C19.4681 87.1399 19.5397 87.3774 19.6171 87.6075L48.4664 169.979C48.6489 170.49 49.016 171.043 49.4929 171.528L124.787 94.3917C125.656 93.5009 126.04 91.7523 125.626 90.5707L96.7716 8.1965C96.5841 7.66697 96.2696 7.32582 95.8873 7.23915C95.5015 7.15347 95.078 7.32573 94.6908 7.72757L51.2027 52.2774C50.6819 52.8085 50.024 53.0693 49.3545 53.0071C48.6791 52.9447 48.0762 52.5675 47.6543 51.9437L45.8328 49.2324C45.5091 48.7524 45.0534 48.4641 44.5479 48.4174C44.3603 48.4006 44.1744 48.4187 43.9936 48.4688L43.9959 48.4701Z" fill="#155C6D"/>
<path d="M95.9207 6.95702C95.5414 6.8813 95.1183 6.99846 94.7171 7.32168C94.6756 7.35476 94.6373 7.38503 94.6004 7.42076C94.5626 7.45285 94.5232 7.49323 94.4863 7.52897L51.0001 52.0783C50.8799 52.1999 50.7553 52.3052 50.6224 52.395C50.5665 52.4321 50.5046 52.4689 50.4472 52.5005C50.4288 52.5115 50.4117 52.5201 50.3918 52.5256C49.5904 52.9223 48.6672 52.7242 48.0461 51.9788C48.2974 51.8739 48.5408 51.7122 48.7603 51.4923L92.2487 6.9365C92.7334 6.43693 93.2689 6.26118 93.7373 6.38488C93.9735 6.44325 95.6018 6.8744 95.9207 6.95702Z" fill="#C8DAE8"/>
<path d="M50.0946 52.9437C49.3025 53.163 48.4362 52.8823 47.8331 52.1595L47.5877 51.864L47.9381 51.7159C48.1664 51.6193 48.3761 51.4768 48.5637 51.2893L92.0471 6.73685C92.5877 6.17862 93.2111 5.95494 93.8071 6.11013C93.9345 6.14162 94.497 6.2884 95.0265 6.4286C95.4468 6.5401 95.8477 6.64516 95.9881 6.68095L95.8652 7.23553C95.5596 7.1728 95.2214 7.2802 94.8915 7.54439C94.8544 7.57233 94.8259 7.59594 94.7984 7.6232C94.7543 7.66093 94.7286 7.68769 94.7061 7.71162L51.1998 52.2802C51.0602 52.423 50.9208 52.5382 50.7745 52.6357C50.7118 52.6766 50.6438 52.719 50.5791 52.7526L50.4679 52.8011C50.3466 52.8622 50.2181 52.9115 50.0915 52.9465L50.0946 52.9437ZM48.5175 52.0505C49.0254 52.4717 49.6785 52.5659 50.2685 52.2709C50.3661 52.2223 50.4207 52.1875 50.4704 52.1561C50.5791 52.0847 50.6901 51.9931 50.7991 51.8805L94.2884 7.32832C94.3465 7.27097 94.386 7.23059 94.4243 7.20033C94.45 7.17357 94.4954 7.13351 94.5485 7.09327C94.6167 7.03707 94.6868 6.98818 94.758 6.94293C94.2731 6.81593 93.7923 6.68976 93.6712 6.66042C93.279 6.55883 92.845 6.72811 92.451 7.13379L48.9645 51.6891C48.8257 51.8277 48.6746 51.9501 48.5175 52.0505Z" fill="#155C6D"/>
<path d="M42.6239 47.6084C41.9783 47.4355 41.2723 47.6212 40.7144 48.1941L18.2661 71.1884C17.7428 71.7242 17.3276 72.5385 17.082 73.3883L19.3227 73.9779C19.5689 73.1299 19.9858 72.3152 20.511 71.7789L42.9557 48.7855C42.9676 48.7724 42.9806 48.7629 42.994 48.7553C43.5475 48.2013 44.2423 48.0247 44.8787 48.1922C44.753 48.1602 42.985 47.7029 42.6263 47.6097L42.6239 47.6084Z" fill="#C8DAE8"/>
<path d="M19.5175 74.3228L16.7303 73.5878L16.8124 73.3078C17.0855 72.36 17.5314 71.5373 18.0649 70.9888L40.515 47.994C41.1261 47.3671 41.9222 47.127 42.6958 47.3332L43.6963 47.5925C44.2188 47.7287 44.7679 47.8694 44.9152 47.9091C44.9276 47.9116 44.9381 47.9145 44.9505 47.917L44.8129 48.4678C44.8129 48.4678 44.7982 48.464 44.7835 48.4602C44.2282 48.3252 43.6504 48.5028 43.1941 48.9572L20.7165 71.9794C20.2489 72.4565 19.8431 73.2132 19.5965 74.0593L19.5217 74.3236L19.5175 74.3228ZM17.4396 73.1891L19.1344 73.6353C19.4128 72.798 19.8245 72.077 20.3103 71.5811L42.8239 48.5274C42.9959 48.3541 43.1897 48.21 43.3949 48.1002L42.5558 47.8827C41.9795 47.7279 41.3828 47.9147 40.9194 48.3927L18.467 71.3863C18.0562 71.8084 17.6884 72.4563 17.4396 73.1891Z" fill="#155C6D"/>
<path d="M16.876 75.4215L17.5737 80.642C17.755 82.0002 17.5415 83.4795 17.0947 83.9332C16.9351 84.0953 16.8354 84.3822 16.789 84.7348L19.0303 85.3263C19.0316 85.3102 19.0573 85.1636 19.0676 85.1097C19.0784 85.0713 19.0869 85.0317 19.0977 84.9933C19.1492 84.7925 19.2327 84.6299 19.336 84.5247C19.7867 84.064 19.9986 82.593 19.8158 81.2293L19.1186 76.0106C19.0363 75.3969 19.1251 74.677 19.327 73.9787L17.0863 73.3891C16.8862 74.0868 16.7978 74.8086 16.8801 75.4223L16.876 75.4215Z" fill="#155C6D"/>
<path d="M19.2651 85.6757L18.9597 85.5992L16.4766 84.9431L16.5108 84.694C16.5691 84.2575 16.6974 83.9332 16.8928 83.7318C17.2319 83.3884 17.4807 82.0506 17.2971 80.6773L16.5999 75.4586C16.5159 74.8317 16.5886 74.0887 16.8125 73.3077L16.8891 73.043L19.6763 73.7779L19.5942 74.058C19.3949 74.7516 19.3241 75.4312 19.3957 75.9712L20.0934 81.1917C20.2639 82.4547 20.1262 84.1232 19.5348 84.723C19.4666 84.793 19.4089 84.915 19.3701 85.0633L19.0856 85.1047L19.0866 85.1084L19.3435 85.1571L19.2659 85.6716L19.2651 85.6757ZM17.113 84.5273L18.8106 84.9765C18.8885 84.6741 18.9949 84.4678 19.1327 84.3256C19.4732 83.9799 19.7196 82.6407 19.5361 81.2674L18.8384 76.0469C18.7637 75.496 18.8124 74.8559 18.9798 74.1809L17.2832 73.7353C17.1384 74.3372 17.0921 74.9157 17.1564 75.387L17.8536 80.6057C18.0256 81.8879 17.8628 83.5575 17.2941 84.1334C17.2489 84.1812 17.1686 84.2919 17.113 84.5273Z" fill="#155C6D"/>
<path d="M104.639 11.8564C104.417 11.2244 104.032 10.8399 103.585 10.7239C103.189 10.6215 101.743 10.238 101.346 10.1338C100.876 10.0106 100.339 10.1868 99.8506 10.6874L25.6154 86.7463C24.6631 87.7231 24.2576 89.5639 24.7119 90.8603L51.3323 166.862C51.5525 167.488 51.9333 167.872 52.3752 167.991C52.7749 168.099 54.2256 168.479 54.6224 168.583C55.0927 168.706 55.6304 168.532 56.1206 168.031L130.356 91.9719C131.308 90.9952 131.714 89.1544 131.259 87.858L104.639 11.8564Z" fill="#C8DAE8"/>
<path d="M55.3362 168.847C55.0721 168.92 54.8067 168.925 54.5525 168.858L52.3048 168.264C51.7519 168.117 51.3133 167.651 51.068 166.955L24.4494 90.9526C23.9537 89.5419 24.3798 87.6069 25.416 86.5461L99.6493 10.4877C100.189 9.93363 100.835 9.70759 101.415 9.85949L101.935 9.99622C102.526 10.1529 103.366 10.3741 103.653 10.4478C104.213 10.5914 104.655 11.0582 104.903 11.7617L131.521 87.7619C132.016 89.1707 131.59 91.1075 130.554 92.1684L56.3187 168.225C56.0138 168.538 55.6764 168.747 55.3328 168.842L55.3362 168.847ZM100.784 10.417C100.538 10.4851 100.29 10.6423 100.054 10.8865L25.8168 86.9459C24.9322 87.8508 24.5561 89.5657 24.9764 90.7674L51.595 166.769C51.778 167.283 52.0778 167.62 52.4439 167.719L54.6911 168.311C55.0834 168.412 55.5161 168.245 55.9163 167.834L130.152 91.7769C131.037 90.872 131.413 89.1571 130.992 87.9554L104.374 11.9552C104.19 11.4366 103.886 11.1002 103.517 11.0041C103.228 10.929 102.388 10.7079 101.797 10.5512L101.276 10.4144C101.119 10.3735 100.952 10.3765 100.784 10.423L100.784 10.417Z" fill="#155C6D"/>
<path d="M54.623 168.585C54.2256 168.479 52.774 168.095 52.3766 167.989C51.9357 167.873 51.5531 167.49 51.3319 166.86L24.7107 90.8626C24.5162 90.3075 24.4893 89.655 24.587 89.0091L26.8218 89.5985C26.7241 90.2443 26.7618 90.8938 26.9564 91.4489L53.5737 167.453C53.7964 168.089 54.1767 168.471 54.623 168.585Z" fill="#70C5AD"/>
<path d="M54.5548 168.859C54.5548 168.859 54.5378 168.854 54.5278 168.853L52.3048 168.264C51.7506 168.119 51.3097 167.652 51.067 166.951L24.4463 90.9554C24.2459 90.3863 24.1971 89.6966 24.3079 88.9646L24.3546 88.6551L27.1372 89.3874L27.0986 89.6416C27.0031 90.2672 27.046 90.8584 27.2185 91.3547L53.8358 167.359C54.0164 167.871 54.3098 168.206 54.6705 168.307L54.6917 168.313L54.5535 168.862L54.5548 168.859ZM24.8276 89.3648C24.7848 89.8854 24.8338 90.3649 24.9764 90.7674L51.5976 166.765C51.7793 167.28 52.0791 167.618 52.4466 167.714L53.5096 167.995C53.4325 167.858 53.3656 167.707 53.3083 167.542L26.6915 91.5399C26.5085 91.0268 26.4486 90.4305 26.5113 89.8062L24.8276 89.3648Z" fill="#155C6D"/>
<path d="M27.8561 87.3359L102.091 11.277C103.044 10.3003 104.184 10.56 104.639 11.8564L131.259 87.858C131.714 89.1543 131.308 90.9952 130.356 91.9719L56.1206 168.031C55.1682 169.008 54.0274 168.748 53.5731 167.451L26.9527 91.4499C26.4983 90.1535 26.9038 88.3127 27.8561 87.3359Z" fill="#C8DAE8"/>
<path d="M55.3367 168.849C55.0907 168.917 54.8418 168.925 54.5984 168.869C54.0191 168.738 53.5612 168.266 53.307 167.545L26.6889 91.5446C26.1937 90.1357 26.6193 88.1989 27.6555 87.1381L101.891 11.0792C102.429 10.5334 103.038 10.3078 103.616 10.4386C104.195 10.5708 104.653 11.0413 104.907 11.7625L131.525 87.7628C132.02 89.1716 131.595 91.1084 130.558 92.1692L56.3228 168.226C56.0148 168.541 55.6798 168.752 55.338 168.847L55.3367 168.849ZM28.0594 87.5351C27.1748 88.44 26.7987 90.1549 27.219 91.3565L53.8371 167.357C54.0251 167.888 54.3373 168.228 54.7177 168.315C55.1023 168.403 55.5276 168.23 55.9171 167.83L130.153 91.7728C131.037 90.8679 131.413 89.153 130.993 87.9513L104.375 11.951C104.187 11.4197 103.875 11.0799 103.494 10.9927C103.112 10.906 102.685 11.0793 102.293 11.4785L28.0594 87.5351Z" fill="#155C6D"/>
<path d="M38.2991 91.3198L55.2328 171.752C55.5153 173.095 54.6759 173.903 53.3568 173.556L51.412 173.043C50.0929 172.695 48.6556 171.365 48.2012 170.068L19.3488 87.6995C19.055 86.8635 18.9493 85.9754 19.0305 85.3263L16.7897 84.7367C16.708 85.384 16.8142 86.2739 17.108 87.1099L46.7636 171.774C47.2179 173.071 48.6553 174.402 49.9743 174.749L56.0626 176.352C57.3816 176.7 58.2228 175.891 57.9385 174.548L40.5399 91.9094C40.4776 91.6143 40.4553 91.2944 40.4686 90.9627L38.2275 90.3791C38.2155 90.7085 38.2374 91.0265 38.2991 91.3198Z" fill="#155C6D"/>
<path d="M57.1538 176.651C56.8138 176.745 56.4187 176.739 55.9925 176.627L49.9042 175.024C48.4824 174.65 46.9884 173.262 46.4991 171.867L16.8435 87.2027C16.5452 86.3503 16.4204 85.4145 16.5139 84.6972L16.5526 84.38L19.3417 85.1144L19.3111 85.3626C19.2324 85.9854 19.3496 86.8448 19.6149 87.6062L48.4655 169.975C48.8917 171.191 50.2436 172.445 51.4823 172.77L53.4272 173.283C53.9685 173.424 54.4208 173.355 54.7018 173.083C54.985 172.812 55.0743 172.361 54.9592 171.812L38.0237 91.3803C37.9574 91.0706 37.9313 90.7302 37.9456 90.3668L37.9598 90.0171L40.7573 90.7472L40.749 90.9774C40.7376 91.2949 40.7588 91.5895 40.8148 91.8549L58.2129 174.492C58.3736 175.241 58.2251 175.879 57.7958 176.291C57.6174 176.462 57.3984 176.585 57.1525 176.653L57.1538 176.651ZM17.0467 85.0957C17.0333 85.673 17.1509 86.379 17.3736 87.0147L47.0292 171.679C47.4554 172.895 48.8068 174.147 50.0442 174.475L56.1324 176.077C56.6738 176.218 57.125 176.146 57.407 175.878C57.6884 175.607 57.7796 175.156 57.6626 174.607L40.2645 91.97C40.2123 91.7251 40.1841 91.4618 40.1811 91.1837L38.5085 90.7472C38.5185 90.931 38.5391 91.1041 38.5722 91.2658L55.5077 171.697C55.6665 172.447 55.5181 173.085 55.0888 173.496C54.6644 173.905 54.0191 174.028 53.2837 173.833L51.3388 173.321C49.917 172.946 48.4217 171.561 47.9318 170.164L19.0843 87.7924C18.8205 87.0365 18.6906 86.216 18.7292 85.5394L17.0467 85.0957Z" fill="#155C6D"/>
<path d="M117.221 10.9362C116.84 10.8706 116.394 11.0512 115.959 11.4978L115.939 11.5189L41.7526 87.7038C41.0081 88.4678 40.5178 89.7841 40.4706 90.964L38.2267 90.3772C38.2739 89.1973 38.7678 87.88 39.5087 87.117L113.716 10.9146C114.186 10.4328 114.66 10.2603 115.063 10.3667C115.234 10.4119 116.824 10.8338 117.221 10.9362Z" fill="#C8DAE8"/>
<path d="M40.7383 91.326L37.9361 90.5932L37.9449 90.3649C37.995 89.0899 38.5417 87.703 39.3056 86.9179L113.515 10.715C114.042 10.1741 114.613 9.95528 115.132 10.0925C115.304 10.139 116.893 10.5596 117.287 10.6607L117.171 11.2151C116.872 11.1665 116.511 11.3332 116.158 11.6961L41.9539 87.9035C41.2821 88.5924 40.7987 89.8282 40.7525 90.9763L40.7383 91.326ZM38.5234 90.1615L40.2148 90.6027C40.3379 89.4156 40.844 88.2265 41.5508 87.5024L115.737 11.3175C115.878 11.1724 116.024 11.0497 116.166 10.9514C115.634 10.8117 115.086 10.6669 114.991 10.6401C114.677 10.562 114.297 10.7264 113.917 11.1143L39.71 87.3167C39.0813 87.9642 38.6184 89.0843 38.5215 90.162L38.5234 90.1615Z" fill="#155C6D"/>
<path d="M41.7526 87.7039C40.8013 88.6842 40.2584 90.5631 40.5396 91.9094L57.9456 174.581C58.188 175.809 57.4855 176.577 56.3444 176.408C56.9518 176.512 57.6467 176.456 58.2998 176.269C59.0253 176.062 59.7034 175.705 60.1715 175.23L134.413 99.1517C135.365 98.175 135.908 96.2943 135.625 94.9503L118.196 12.1669C117.911 10.8217 116.912 10.5229 115.959 11.4978L41.7526 87.7039Z" fill="#70C5AD"/>
<path d="M58.334 176.554C57.6341 176.748 56.9134 176.796 56.2974 176.688L56.3837 176.128C56.8324 176.194 57.2041 176.095 57.4357 175.848C57.6866 175.58 57.7702 175.15 57.6687 174.636L40.2638 91.9681C39.9607 90.5218 40.5255 88.5602 41.5495 87.5047L115.756 11.2987C116.291 10.7516 116.877 10.5324 117.404 10.6892C117.93 10.846 118.309 11.35 118.471 12.1106L135.902 94.8935C136.207 96.3411 135.641 98.299 134.614 99.3514L60.3728 175.43C59.891 175.919 59.1829 176.315 58.3774 176.542L58.334 176.554ZM57.9916 176.056C58.0685 176.038 58.1377 176.021 58.2222 175.996C58.9356 175.794 59.5566 175.449 59.9697 175.029L134.21 98.9526C135.103 98.0374 135.616 96.267 135.349 95.009L117.919 12.2261C117.805 11.688 117.559 11.3278 117.245 11.2341C116.935 11.143 116.537 11.3082 116.158 11.698L41.9539 87.9035C41.0633 88.8219 40.5512 90.594 40.8159 91.8526L58.2219 174.524C58.3421 175.128 58.2601 175.661 57.9939 176.057L57.9916 176.056Z" fill="#155C6D"/>
<path d="M91.2628 129.463L63.7455 157.483L61.7902 148.662L89.3051 120.641L91.2628 129.463Z" fill="#155C6D"/>
<path d="M63.5836 158.052L61.4805 148.571L61.5882 148.461L89.4648 120.072L91.5684 129.555L91.4608 129.665L63.5836 158.052ZM62.0972 148.752L63.9089 156.913L90.9554 129.373L89.1432 121.21L62.0972 148.752Z" fill="#155C6D"/>
</g>
<path d="M8.36621 142.97C14.4092 142.608 14.7052 142.312 15.0712 136.299C15.4362 142.312 15.7332 142.608 21.7792 142.97C15.7332 143.332 15.4372 143.628 15.0712 149.639C14.7062 143.628 14.4092 143.332 8.36621 142.97Z" fill="#C8DAE8"/>
<path d="M15.07 150.003C14.878 150.003 14.719 149.854 14.707 149.661C14.354 143.86 14.176 143.682 8.34399 143.333C8.15199 143.321 8 143.162 8 142.969C8 142.776 8.15199 142.617 8.34399 142.605C14.176 142.256 14.354 142.078 14.707 136.275C14.719 136.083 14.878 135.933 15.07 135.933C15.262 135.933 15.421 136.082 15.433 136.275C15.786 142.078 15.964 142.256 21.799 142.605C21.991 142.617 22.143 142.776 22.143 142.969C22.143 143.162 21.991 143.321 21.799 143.333C15.965 143.682 15.787 143.86 15.433 149.661C15.421 149.853 15.262 150.003 15.07 150.003ZM11.958 142.97C13.91 143.354 14.685 144.129 15.07 146.077C15.454 144.129 16.23 143.354 18.182 142.97C16.23 142.585 15.455 141.811 15.07 139.862C14.686 141.812 13.91 142.585 11.958 142.97Z" fill="#155C6D"/>
<path d="M137.366 105.088C151.671 104.231 152.373 103.529 153.238 89.297C154.103 103.528 154.805 104.23 169.118 105.088C154.804 105.945 154.103 106.647 153.238 120.879C152.373 106.648 151.671 105.946 137.366 105.088Z" fill="#C8DAE8"/>
<path d="M153.239 121.243C153.047 121.243 152.888 121.094 152.876 120.901C152.022 106.874 151.441 106.296 137.344 105.452C137.152 105.44 137 105.281 137 105.088C137 104.895 137.152 104.736 137.344 104.724C151.441 103.88 152.022 103.302 152.876 89.275C152.888 89.083 153.047 88.933 153.239 88.933C153.431 88.933 153.59 89.082 153.602 89.275C154.453 103.302 155.034 103.88 169.141 104.724C169.333 104.736 169.485 104.895 169.485 105.088C169.485 105.281 169.333 105.44 169.141 105.452C155.034 106.296 154.453 106.874 153.602 120.901C153.59 121.093 153.431 121.243 153.239 121.243ZM142.308 105.088C150.625 105.904 152.418 107.696 153.239 115.989C154.057 107.695 155.85 105.904 164.175 105.088C155.85 104.272 154.057 102.48 153.239 94.187C152.418 102.481 150.625 104.272 142.308 105.088Z" fill="#155C6D"/>
<defs>
<clipPath id="clip0_9503_13288">
<rect width="118" height="155" fill="white" transform="translate(1.40186 31.4855) rotate(-15.4755)"/>
</clipPath>
</defs>
</svg>
