<svg width="411" height="299" viewBox="0 0 411 299" fill="none" xmlns="http://www.w3.org/2000/svg">
<path d="M207.938 195.917C239.637 195.917 265.425 170.128 265.425 138.43C265.425 134.307 264.985 130.191 264.119 126.193C263.412 122.933 260.198 120.863 256.935 121.57C253.675 122.277 251.605 125.493 252.312 128.754C252.997 131.911 253.344 135.166 253.344 138.43C253.344 163.467 232.975 183.835 207.938 183.835C193.962 183.835 180.969 177.538 172.292 166.558C170.222 163.941 166.424 163.496 163.807 165.565C161.189 167.633 160.745 171.432 162.813 174.049C173.796 187.947 190.244 195.917 207.938 195.917V195.917Z" fill="#C8DAE8"/>
<path d="M253.746 138.43C253.746 135.138 253.396 131.853 252.705 128.668L252.652 128.384C252.183 125.535 253.952 122.786 256.739 122.032L257.02 121.964C259.971 121.324 262.878 123.117 263.657 125.997L263.725 126.278C264.585 130.247 265.023 134.336 265.023 138.43C265.023 169.905 239.414 195.514 207.938 195.514V195.917L208.68 195.912C239.791 195.517 265.025 170.283 265.42 139.172L265.425 138.43C265.425 134.565 265.039 130.705 264.277 126.944L264.119 126.193C263.411 122.933 260.198 120.863 256.935 121.57C253.675 122.277 251.605 125.494 252.312 128.754L252.437 129.347C253.039 132.318 253.344 135.37 253.344 138.43L253.329 139.6C252.717 163.709 233.218 183.207 209.109 183.82L207.938 183.835C194.18 183.835 181.376 177.733 172.701 167.069L172.291 166.559C170.222 163.941 166.424 163.496 163.807 165.564C161.189 167.633 160.745 171.431 162.813 174.049L163.331 174.696C174.31 188.194 190.52 195.917 207.938 195.917V195.514H207.801C190.282 195.473 174.008 187.565 163.129 173.8L162.954 173.567C161.282 171.215 161.662 167.969 163.833 166.066L164.057 165.881C166.423 164.011 169.823 164.341 171.789 166.585L171.976 166.808C180.73 177.884 193.839 184.238 207.938 184.238C233.197 184.238 253.746 163.689 253.746 138.43Z" fill="#155C6D"/>
<path d="M156.492 144.47C159.828 144.47 162.533 141.765 162.533 138.429C162.533 133.361 163.361 128.386 164.993 123.644C169.575 110.331 180.289 99.7407 193.651 95.3153C198.243 93.7947 203.05 93.0235 207.939 93.0235C217.707 93.0235 227.011 96.076 234.846 101.851C237.531 103.83 241.313 103.258 243.293 100.572C245.272 97.887 244.699 94.1052 242.014 92.1259C232.088 84.8096 220.304 80.9424 207.939 80.9424C201.757 80.9424 195.672 81.9197 189.853 83.8467C172.935 89.4495 159.371 102.857 153.569 119.712C151.501 125.722 150.452 132.02 150.452 138.429C150.452 141.765 153.156 144.47 156.492 144.47Z" fill="#C8DAE8"/>
<path d="M150.855 138.43C150.855 132.064 151.896 125.811 153.95 119.844C159.621 103.369 172.762 90.209 189.195 84.4951L189.98 84.2285C195.758 82.3152 201.8 81.3447 207.939 81.3447C219.835 81.3447 231.186 84.949 240.845 91.7793L241.775 92.4502C244.282 94.2976 244.816 97.8269 242.968 100.333L242.791 100.563C240.901 102.871 237.513 103.316 235.086 101.526L234.34 100.988C226.593 95.5111 217.484 92.6211 207.939 92.6211C203.007 92.6211 198.158 93.3984 193.525 94.9327L192.895 95.1465C179.707 99.732 169.163 110.291 164.612 123.514L164.313 124.413C162.865 128.926 162.131 133.636 162.131 138.43C162.13 141.543 159.606 144.068 156.493 144.068V144.47L156.803 144.462C159.892 144.306 162.369 141.829 162.525 138.74L162.533 138.43C162.533 133.678 163.26 129.009 164.696 124.536L164.993 123.645C169.504 110.539 179.956 100.072 193.027 95.5274L193.652 95.3155C197.956 93.89 202.45 93.1226 207.023 93.0323L207.939 93.0235C217.707 93.0235 227.011 96.0759 234.846 101.851L235.101 102.029C237.68 103.736 241.143 103.211 243.102 100.817L243.293 100.572C245.21 97.9709 244.733 94.3403 242.259 92.3164L242.014 92.126C232.088 84.8096 220.305 80.9424 207.939 80.9424L206.781 80.9541C200.997 81.0686 195.308 82.0402 189.853 83.8467C172.935 89.4496 159.371 102.858 153.569 119.713C151.501 125.722 150.452 132.02 150.452 138.43L150.46 138.74C150.622 141.932 153.261 144.47 156.493 144.47V144.068C153.379 144.068 150.855 141.543 150.855 138.43Z" fill="#155C6D"/>
<path d="M159.616 162.168C160.304 162.168 161.004 162.049 161.688 161.8C164.822 160.655 166.434 157.187 165.29 154.054L165.175 153.736C164.054 150.594 160.598 148.956 157.456 150.076C154.314 151.198 152.676 154.654 153.796 157.795L153.942 158.197C154.836 160.647 157.151 162.167 159.616 162.167V162.168Z" fill="#C8DAE8"/>
<path d="M165.175 153.735C164.054 150.594 160.598 148.956 157.456 150.076C154.314 151.197 152.676 154.654 153.797 157.796L153.941 158.197L154.029 158.424C154.981 160.741 157.228 162.167 159.616 162.167V162.168L159.875 162.162C160.393 162.14 160.915 162.05 161.431 161.887L161.688 161.8C164.821 160.655 166.434 157.188 165.29 154.054L165.175 153.735ZM157.591 150.456C160.524 149.41 163.75 150.938 164.796 153.871L164.797 153.873L164.911 154.191L164.912 154.192C165.98 157.116 164.475 160.353 161.55 161.421L161.31 161.503C160.748 161.681 160.178 161.765 159.616 161.765L159.401 161.761C157.182 161.676 155.129 160.273 154.32 158.059L154.175 157.658C153.163 154.818 154.566 151.704 157.32 150.561L157.591 150.456Z" fill="#155C6D"/>
<path d="M146.57 91.5279C148.779 91.5279 150.98 90.6239 152.57 88.8487C156.304 84.682 160.511 80.9328 165.074 77.7055C168.706 75.137 169.567 70.1105 166.998 66.4789C164.43 62.8481 159.404 61.9855 155.772 64.5543C150.225 68.4779 145.112 73.0349 140.574 78.0989C137.605 81.4116 137.884 86.5038 141.198 89.4721C142.735 90.8498 144.656 91.5279 146.57 91.5279Z" fill="#C8DAE8"/>
<path d="M166.998 66.4783C164.43 62.8477 159.404 61.9857 155.772 64.5545C150.225 68.4779 145.112 73.0347 140.575 78.0984C137.606 81.411 137.885 86.5031 141.198 89.4715L141.49 89.7225C142.974 90.9322 144.776 91.5281 146.57 91.5281V91.1248C144.751 91.1248 142.927 90.4806 141.466 89.1717L141.18 88.9022C138.305 86.0518 138.142 81.4168 140.874 78.368V78.367C145.392 73.3256 150.483 68.7886 156.005 64.8826V64.8816C159.348 62.5184 163.932 63.2141 166.434 66.3953L166.669 66.7117C169.11 70.1618 168.292 74.9368 164.841 77.3768L163.986 77.991C159.727 81.0941 155.789 84.6524 152.27 88.5799L151.981 88.8865C150.499 90.3704 148.539 91.1248 146.57 91.1248V91.5281L146.984 91.5174C148.914 91.4186 150.809 90.6287 152.265 89.1707L152.571 88.8484C156.071 84.9422 159.987 81.4025 164.222 78.3162L165.074 77.7049C168.592 75.2167 169.511 70.422 167.229 66.8231L166.998 66.4783Z" fill="#155C6D"/>
<path d="M132.291 113.818C135.407 113.818 138.374 111.999 139.688 108.956C139.881 108.509 140.08 108.064 140.281 107.621C142.126 103.574 140.34 98.7972 136.293 96.9524C132.246 95.1088 127.468 96.8932 125.624 100.941C125.378 101.48 125.137 102.023 124.902 102.568C123.137 106.651 125.017 111.391 129.101 113.156C130.142 113.605 131.225 113.818 132.291 113.818H132.291Z" fill="#C8DAE8"/>
<path d="M136.293 96.9523C132.246 95.1087 127.469 96.8935 125.624 100.942C125.378 101.481 125.137 102.023 124.901 102.568C123.137 106.651 125.018 111.391 129.102 113.155L129.493 113.314C130.412 113.656 131.358 113.818 132.291 113.818V113.415C131.279 113.415 130.25 113.214 129.261 112.786L128.903 112.621C125.39 110.887 123.754 106.763 125.124 103.093L125.272 102.728C125.389 102.457 125.507 102.186 125.627 101.916L125.99 101.109C127.688 97.3831 132.001 95.6757 135.764 97.1652L136.126 97.3185C139.971 99.0711 141.668 103.609 139.915 107.454L139.318 108.797L139.197 109.065C137.894 111.793 135.16 113.415 132.291 113.415V113.818L132.583 113.813C135.494 113.706 138.233 112.018 139.561 109.238L139.689 108.956L140.281 107.621C142.068 103.7 140.449 99.0952 136.666 97.1339L136.293 96.9523Z" fill="#155C6D"/>
<path d="M173.566 221.37C176.616 221.37 179.533 219.63 180.89 216.678C182.747 212.636 180.977 207.854 176.936 205.996C155.163 195.988 139.471 176.013 134.958 152.565C134.118 148.196 129.897 145.338 125.527 146.178C121.159 147.018 118.3 151.24 119.14 155.609C124.633 184.15 143.724 208.458 170.208 220.632C171.298 221.133 172.442 221.37 173.567 221.37H173.566Z" fill="#C8DAE8"/>
<path d="M134.959 152.564C134.119 148.196 129.897 145.338 125.527 146.178C121.159 147.018 118.3 151.24 119.141 155.608L119.408 156.943C125.232 184.907 144.138 208.648 170.209 220.632L170.619 220.807C171.584 221.189 172.582 221.369 173.567 221.369C176.521 221.369 179.35 219.737 180.758 216.951L180.89 216.678C182.689 212.762 181.085 208.152 177.309 206.179L176.936 205.996C155.504 196.144 139.962 176.635 135.178 153.661L134.959 152.564ZM125.603 146.573C129.625 145.8 133.513 148.325 134.478 152.256L134.563 152.641C139.03 175.849 154.387 195.671 175.746 205.883L176.768 206.362C180.607 208.127 182.289 212.67 180.524 216.51L180.398 216.769C179.061 219.415 176.374 220.966 173.567 220.967C172.499 220.967 171.413 220.743 170.377 220.266L169.146 219.689C143.419 207.389 124.919 183.502 119.536 155.532L119.472 155.143C118.927 151.264 121.414 147.591 125.219 146.657L125.603 146.573Z" fill="#155C6D"/>
<path d="M207.938 228.857C224.825 228.857 241.299 224.17 255.58 215.303C269.458 206.686 280.762 194.474 288.271 179.989C290.318 176.039 288.775 171.179 284.826 169.132C280.877 167.085 276.016 168.627 273.969 172.576C261.126 197.356 235.824 212.749 207.938 212.749C203.49 212.749 199.884 216.355 199.884 220.803C199.884 225.251 203.49 228.857 207.938 228.857Z" fill="#C8DAE8"/>
<path d="M200.288 220.803C200.288 216.577 203.713 213.151 207.939 213.151C235.537 213.151 260.619 198.154 273.712 173.922L274.327 172.762C276.271 169.01 280.889 167.544 284.641 169.489C288.393 171.434 289.858 176.052 287.913 179.804L287.202 181.148C279.733 194.98 268.753 206.65 255.368 214.961L254.029 215.776C240.126 224.075 224.226 228.454 207.939 228.454V228.857L209.521 228.844C225.326 228.569 240.72 224.189 254.235 216.122L255.58 215.304C269.025 206.955 280.054 195.234 287.556 181.34L288.271 179.988C290.254 176.162 288.869 171.482 285.19 169.332L284.827 169.132C280.877 167.085 276.016 168.627 273.969 172.576C261.126 197.355 235.824 212.749 207.939 212.749C203.491 212.749 199.884 216.354 199.884 220.803L199.895 221.218C200.111 225.473 203.63 228.857 207.939 228.857V228.454C203.713 228.454 200.288 225.028 200.288 220.803Z" fill="#155C6D"/>
<path d="M290.313 146.483C294.761 146.483 298.367 142.877 298.367 138.429C298.367 114.275 288.961 91.5659 271.881 74.4859C254.802 57.4064 232.093 48 207.938 48C203.49 48 199.884 51.6058 199.884 56.0541C199.884 60.5024 203.49 64.1082 207.938 64.1082C248.919 64.1082 282.259 97.4486 282.259 138.429C282.259 142.877 285.865 146.483 290.313 146.483Z" fill="#C8DAE8"/>
<path d="M282.662 138.429C282.662 97.226 249.141 63.7053 207.939 63.705C203.713 63.705 200.287 60.2796 200.287 56.0537C200.287 51.828 203.713 48.4023 207.939 48.4023C231.611 48.4024 253.886 57.4766 270.795 73.9794L271.596 74.7705C288.6 91.7747 297.965 114.381 297.965 138.429C297.965 142.654 294.539 146.08 290.313 146.08V146.483L290.727 146.472C294.846 146.264 298.147 142.962 298.356 138.844L298.367 138.429C298.367 114.652 289.252 92.276 272.676 75.291L271.881 74.4863C254.802 57.4069 232.093 48.0001 207.939 48L207.523 48.0107C203.268 48.2265 199.884 51.7447 199.884 56.0537L199.895 56.4687C200.11 60.7243 203.629 64.1084 207.939 64.1084L208.898 64.1142C249.438 64.6297 282.258 97.7685 282.259 138.429L282.269 138.844C282.485 143.099 286.004 146.483 290.313 146.483V146.08C286.088 146.08 282.662 142.654 282.662 138.429Z" fill="#155C6D"/>
<path d="M126.458 134.655C130.383 134.655 133.82 131.782 134.415 127.783C134.486 127.301 134.562 126.819 134.643 126.338C135.382 121.951 132.426 117.797 128.04 117.057C123.655 116.319 119.498 119.275 118.759 123.661C118.661 124.245 118.568 124.83 118.481 125.416C117.828 129.816 120.865 133.913 125.265 134.566C125.666 134.626 126.064 134.655 126.459 134.655H126.458Z" fill="#C8DAE8"/>
<path d="M128.04 117.057C123.655 116.319 119.498 119.274 118.759 123.661C118.661 124.244 118.568 124.829 118.481 125.416C117.828 129.816 120.864 133.912 125.264 134.566L125.565 134.605C125.865 134.638 126.163 134.654 126.459 134.654V134.252C126.084 134.252 125.705 134.224 125.324 134.168L124.936 134.1C121.095 133.33 118.453 129.765 118.832 125.866L118.879 125.474C118.923 125.183 118.968 124.891 119.014 124.6L119.156 123.728C119.836 119.691 123.563 116.93 127.583 117.399L127.972 117.454C132.139 118.156 134.948 122.103 134.246 126.27L134.016 127.724L133.956 128.077C133.247 131.69 130.07 134.251 126.459 134.252V134.654L126.825 134.646C130.473 134.479 133.629 131.836 134.351 128.155L134.415 127.783L134.643 126.338C135.359 122.089 132.607 118.057 128.447 117.136L128.04 117.057Z" fill="#155C6D"/>
<path d="M328.541 184.84L328.877 185.062C329.123 184.71 329.35 184.345 329.557 183.967L329.21 183.764L328.541 184.84Z" fill="#155C6D"/>
<path d="M328.541 184.84L328.877 185.062C329.123 184.71 329.35 184.345 329.557 183.967L329.21 183.764L328.541 184.84Z" fill="#155C6D"/>
<path d="M252.406 244.454L209.898 248.271C209.688 248.29 209.479 248.297 209.269 248.298C209.205 248.298 209.142 248.296 209.078 248.295C208.927 248.292 208.775 248.284 208.623 248.272C208.556 248.267 208.489 248.262 208.422 248.255C208.248 248.236 208.072 248.212 207.898 248.182C207.863 248.176 207.827 248.172 207.791 248.166C207.582 248.127 207.374 248.08 207.166 248.025C207.108 248.01 207.051 247.992 206.994 247.976C206.84 247.932 206.686 247.884 206.532 247.832C206.465 247.809 206.397 247.785 206.33 247.761C206.172 247.703 206.016 247.641 205.859 247.574C205.808 247.553 205.757 247.533 205.706 247.51C205.502 247.42 205.3 247.323 205.098 247.218C205.053 247.194 205.009 247.168 204.964 247.144C204.806 247.059 204.648 246.97 204.491 246.876C204.427 246.837 204.363 246.798 204.299 246.757C204.153 246.666 204.009 246.572 203.865 246.473C203.809 246.435 203.753 246.398 203.697 246.359C203.503 246.222 203.31 246.079 203.12 245.929C203.097 245.911 203.075 245.891 203.053 245.873C202.884 245.739 202.718 245.599 202.553 245.455C202.495 245.404 202.437 245.351 202.379 245.299C202.246 245.178 202.114 245.055 201.984 244.928C201.927 244.874 201.871 244.82 201.815 244.764C201.65 244.6 201.488 244.432 201.328 244.258C201.313 244.242 201.298 244.227 201.283 244.211C201.109 244.02 200.938 243.823 200.771 243.621C200.721 243.563 200.674 243.502 200.625 243.443C200.504 243.293 200.384 243.141 200.266 242.986C200.214 242.918 200.163 242.85 200.112 242.782C199.984 242.609 199.86 242.433 199.736 242.255C199.705 242.209 199.672 242.164 199.641 242.118C199.479 241.878 199.322 241.632 199.169 241.381C199.13 241.317 199.091 241.252 199.053 241.187C198.931 240.984 198.813 240.777 198.697 240.567C198.662 240.502 198.625 240.438 198.59 240.372C198.449 240.108 198.311 239.84 198.18 239.567C198.156 239.518 198.134 239.468 198.11 239.418C198.001 239.186 197.896 238.952 197.794 238.714C197.76 238.635 197.725 238.555 197.692 238.474C197.593 238.236 197.498 237.994 197.407 237.75C197.392 237.711 197.376 237.671 197.362 237.631C197.259 237.349 197.162 237.063 197.069 236.773C197.044 236.695 197.021 236.616 196.996 236.537C196.928 236.314 196.863 236.09 196.802 235.864C196.778 235.778 196.754 235.692 196.732 235.605C196.654 235.306 196.581 235.004 196.516 234.699L163.983 82.6468C163.892 82.2208 163.817 81.7983 163.753 81.3791C163.742 81.3034 163.733 81.2289 163.722 81.1536C163.675 80.8117 163.635 80.4726 163.605 80.1368C163.599 80.0655 163.591 79.9934 163.585 79.9221C163.555 79.5444 163.538 79.1715 163.53 78.8026C163.529 78.7212 163.529 78.6403 163.528 78.5594C163.526 78.2263 163.532 77.8965 163.547 77.5719C163.549 77.5232 163.55 77.4737 163.552 77.4249C163.572 77.0673 163.605 76.717 163.646 76.3715C163.656 76.2901 163.667 76.2092 163.677 76.1286C163.722 75.7948 163.774 75.465 163.838 75.1436C163.84 75.1291 163.842 75.1142 163.845 75.0997C163.913 74.7675 163.993 74.4445 164.081 74.1272C164.101 74.0523 164.122 73.9782 164.144 73.9045C164.236 73.5924 164.334 73.2859 164.445 72.9903C164.454 72.9662 164.464 72.9432 164.474 72.9195C164.579 72.6432 164.695 72.3766 164.816 72.1165C164.846 72.0528 164.875 71.9888 164.906 71.9264C165.039 71.6558 165.179 71.3932 165.329 71.1415C165.353 71.1013 165.379 71.0634 165.404 71.0239C165.528 70.8218 165.66 70.6293 165.796 70.4408C165.862 70.3486 165.929 70.2576 165.998 70.1686C166.12 70.0115 166.247 69.8617 166.377 69.7159C166.444 69.6402 166.51 69.5625 166.579 69.4896C166.746 69.3157 166.919 69.1522 167.097 68.9959C167.135 68.9625 167.171 68.9246 167.21 68.8916C167.433 68.7039 167.664 68.5312 167.904 68.3725C167.931 68.3548 167.959 68.3383 167.986 68.321C168.22 68.1704 168.461 68.0318 168.71 67.9098C168.729 67.901 168.747 67.8933 168.766 67.8848C169.027 67.76 169.296 67.6485 169.574 67.5566L161.39 70.2616C161.112 70.3534 160.843 70.465 160.581 70.5898C160.563 70.5987 160.544 70.6059 160.526 70.6148C160.276 70.7368 160.035 70.8753 159.801 71.0263C159.774 71.0437 159.747 71.0598 159.72 71.0775C159.699 71.0912 159.677 71.1033 159.657 71.117C159.439 71.2643 159.229 71.4254 159.025 71.597C158.986 71.6296 158.951 71.6675 158.913 71.7009C158.734 71.8571 158.561 72.0206 158.394 72.195C158.325 72.2675 158.26 72.3448 158.193 72.4201C158.062 72.5667 157.935 72.7169 157.813 72.8744C157.744 72.9626 157.677 73.0532 157.611 73.145C157.56 73.2163 157.505 73.2823 157.455 73.3552C157.373 73.4764 157.295 73.6037 157.218 73.7301C157.193 73.7692 157.168 73.8062 157.144 73.8457C156.994 74.0974 156.854 74.3603 156.721 74.631C156.69 74.6938 156.661 74.7578 156.631 74.8214C156.509 75.0812 156.394 75.3474 156.289 75.6228C156.28 75.6474 156.269 75.6708 156.26 75.6957C156.149 75.9913 156.051 76.2974 155.959 76.6095C155.937 76.6836 155.916 76.7577 155.896 76.8326C155.808 77.1499 155.727 77.4721 155.66 77.8043C155.657 77.8196 155.655 77.8353 155.652 77.8506C155.588 78.1715 155.536 78.5006 155.492 78.8344C155.481 78.9145 155.47 78.9947 155.461 79.0756C155.419 79.4215 155.387 79.7719 155.367 80.1295C155.364 80.1778 155.364 80.2278 155.362 80.2761C155.346 80.6007 155.341 80.9301 155.343 81.2631C155.343 81.3445 155.343 81.4254 155.345 81.5076C155.352 81.876 155.37 82.2489 155.399 82.6267C155.405 82.698 155.413 82.7696 155.419 82.8409C155.45 83.1776 155.489 83.5171 155.537 83.8594C155.547 83.9339 155.556 84.008 155.567 84.0829C155.617 84.4119 155.673 84.7429 155.74 85.0763C155.759 85.1678 155.777 85.2596 155.797 85.3514L188.33 237.404C188.395 237.709 188.469 238.01 188.546 238.309C188.569 238.396 188.592 238.482 188.616 238.568C188.677 238.794 188.742 239.018 188.811 239.241C188.835 239.32 188.858 239.399 188.883 239.477C188.975 239.766 189.072 240.053 189.176 240.335C189.19 240.376 189.206 240.414 189.221 240.454C189.312 240.699 189.408 240.94 189.507 241.179C189.522 241.216 189.535 241.255 189.551 241.292C189.569 241.335 189.59 241.376 189.608 241.418C189.71 241.656 189.815 241.891 189.925 242.122C189.948 242.172 189.97 242.222 189.994 242.272C190.126 242.545 190.263 242.812 190.404 243.076C190.44 243.141 190.476 243.206 190.512 243.271C190.627 243.481 190.746 243.688 190.868 243.892C190.906 243.956 190.944 244.021 190.983 244.085C191.136 244.335 191.293 244.581 191.456 244.821C191.462 244.83 191.468 244.84 191.474 244.85C191.499 244.887 191.526 244.921 191.551 244.958C191.674 245.137 191.799 245.313 191.927 245.485C191.977 245.554 192.029 245.621 192.08 245.689C192.199 245.845 192.319 245.997 192.441 246.147C192.489 246.206 192.536 246.266 192.585 246.324C192.753 246.526 192.923 246.724 193.098 246.914C193.112 246.93 193.126 246.944 193.141 246.959C193.301 247.134 193.465 247.303 193.63 247.468C193.685 247.523 193.741 247.576 193.797 247.63C193.928 247.758 194.061 247.882 194.195 248.002C194.252 248.054 194.31 248.107 194.368 248.158C194.532 248.302 194.699 248.441 194.867 248.576C194.889 248.594 194.912 248.613 194.934 248.632C195.125 248.782 195.318 248.924 195.512 249.062C195.567 249.101 195.624 249.138 195.68 249.176C195.823 249.274 195.968 249.369 196.114 249.46C196.177 249.5 196.241 249.54 196.305 249.578C196.463 249.672 196.621 249.762 196.781 249.848C196.825 249.872 196.868 249.897 196.912 249.92C197.114 250.025 197.317 250.123 197.522 250.213C197.571 250.235 197.622 250.255 197.672 250.276C197.829 250.343 197.987 250.406 198.145 250.463C198.213 250.488 198.279 250.511 198.347 250.534C198.501 250.587 198.654 250.634 198.809 250.678C198.866 250.694 198.923 250.712 198.981 250.727C199.189 250.782 199.397 250.829 199.606 250.868C199.641 250.875 199.677 250.879 199.712 250.885C199.887 250.914 200.063 250.939 200.238 250.957C200.304 250.964 200.371 250.969 200.438 250.974C200.589 250.987 200.742 250.994 200.893 250.997C200.957 250.998 201.02 251 201.084 251C201.294 250.999 201.503 250.992 201.713 250.973L244.221 247.156C244.774 247.106 245.304 246.995 245.808 246.829L253.993 244.124C253.489 244.29 252.959 244.401 252.406 244.451L252.406 244.454Z" fill="#70C5AD"/>
<path d="M161.389 70.2617C161.112 70.3535 160.842 70.465 160.581 70.5898C160.563 70.5987 160.544 70.6064 160.526 70.6152C160.276 70.7373 160.035 70.8754 159.801 71.0264C159.774 71.0436 159.746 71.0595 159.719 71.0771C159.699 71.0908 159.678 71.1035 159.657 71.1172C159.439 71.2645 159.229 71.4252 159.025 71.5967C158.986 71.6293 158.951 71.6677 158.913 71.7012C158.734 71.8574 158.561 72.0209 158.394 72.1953C158.325 72.2677 158.26 72.3447 158.193 72.4199C158.063 72.5664 157.936 72.7167 157.813 72.874C157.745 72.9622 157.677 73.0528 157.611 73.1445C157.56 73.2158 157.505 73.2826 157.455 73.3555C157.373 73.4766 157.295 73.6041 157.218 73.7305C157.193 73.7694 157.168 73.8063 157.144 73.8457C156.994 74.0973 156.854 74.3603 156.721 74.6309C156.691 74.6937 156.66 74.7577 156.631 74.8213C156.509 75.081 156.394 75.3476 156.289 75.623C156.28 75.6474 156.269 75.6706 156.26 75.6953C156.149 75.9909 156.051 76.2973 155.959 76.6094C155.937 76.6835 155.916 76.7581 155.895 76.833C155.808 77.1502 155.727 77.4726 155.66 77.8047C155.657 77.8199 155.655 77.8354 155.652 77.8506C155.588 78.1714 155.537 78.5003 155.492 78.834C155.481 78.914 155.47 78.9944 155.461 79.0752C155.42 79.4211 155.387 79.7723 155.367 80.1299C155.364 80.1781 155.363 80.2282 155.361 80.2764C155.346 80.6007 155.34 80.9299 155.343 81.2627C155.343 81.344 155.343 81.4257 155.345 81.5078C155.353 81.8762 155.37 82.2493 155.399 82.627L155.42 82.8408L155.471 83.3477C155.491 83.5175 155.513 83.6881 155.537 83.8594L155.567 84.083L155.647 84.5781C155.676 84.7436 155.707 84.9096 155.74 85.0762L155.798 85.3516L188.33 237.404L188.433 237.858C188.47 238.009 188.507 238.16 188.546 238.31L188.616 238.568L188.81 239.241C188.834 239.32 188.859 239.4 188.884 239.478L189.025 239.909C189.074 240.052 189.124 240.194 189.176 240.335C189.19 240.375 189.207 240.414 189.221 240.454L189.507 241.179L189.552 241.292C189.57 241.335 189.59 241.375 189.608 241.418L189.925 242.122C189.948 242.172 189.97 242.222 189.994 242.271L190.195 242.677C190.264 242.811 190.333 242.944 190.404 243.076L190.511 243.271L190.868 243.892C190.906 243.956 190.944 244.021 190.983 244.085L191.216 244.457C191.294 244.58 191.375 244.701 191.456 244.821L191.473 244.85L191.552 244.958C191.674 245.137 191.799 245.313 191.927 245.485L192.08 245.688L192.44 246.147C192.488 246.207 192.536 246.266 192.585 246.324C192.753 246.526 192.923 246.724 193.097 246.914L193.14 246.959L193.63 247.468L193.797 247.631L194.195 248.003L194.368 248.157L194.867 248.576C194.889 248.594 194.912 248.614 194.934 248.632L195.221 248.852C195.318 248.923 195.414 248.993 195.511 249.062C195.567 249.101 195.624 249.138 195.679 249.176L196.114 249.46L196.305 249.578C196.463 249.673 196.622 249.762 196.781 249.848C196.825 249.871 196.868 249.897 196.912 249.92L197.216 250.072C197.317 250.121 197.419 250.168 197.521 250.213L197.673 250.276C197.83 250.343 197.987 250.406 198.145 250.464L198.346 250.534L198.809 250.678L198.98 250.728C199.188 250.782 199.397 250.829 199.606 250.868L199.713 250.885L199.975 250.925C200.063 250.937 200.151 250.948 200.238 250.957L200.437 250.975L200.893 250.997L201.084 251L201.082 250.597C201.025 250.597 200.975 250.595 200.901 250.594L200.469 250.573C200.402 250.568 200.34 250.563 200.279 250.557L200.03 250.526C199.947 250.515 199.864 250.502 199.78 250.487L199.717 250.478C199.7 250.475 199.689 250.473 199.679 250.472L199.382 250.411C199.282 250.389 199.183 250.364 199.083 250.338L199.082 250.337L198.918 250.29C198.77 250.248 198.623 250.203 198.476 250.153L198.284 250.085C198.133 250.03 197.981 249.97 197.83 249.905L197.685 249.845C197.489 249.758 197.292 249.664 197.098 249.563L196.972 249.494L196.971 249.493L196.512 249.232C196.452 249.196 196.391 249.158 196.328 249.119L195.907 248.844L195.745 248.733L195.744 248.732C195.555 248.599 195.369 248.462 195.186 248.317C195.179 248.311 195.171 248.305 195.159 248.295C195.148 248.286 195.134 248.274 195.119 248.262L194.633 247.854L194.465 247.703L194.077 247.341C194.017 247.283 193.967 247.235 193.915 247.183C193.753 247.021 193.593 246.856 193.437 246.687C193.426 246.674 193.415 246.663 193.408 246.656C193.4 246.648 193.397 246.644 193.394 246.642C193.226 246.457 193.06 246.265 192.894 246.066L192.893 246.065L192.754 245.894L192.401 245.445C192.35 245.378 192.3 245.312 192.251 245.245L191.883 244.73V244.729C191.866 244.705 191.849 244.683 191.838 244.667C191.826 244.652 191.817 244.64 191.81 244.63C191.81 244.629 191.809 244.627 191.807 244.624C191.804 244.618 191.796 244.605 191.786 244.591C191.629 244.359 191.476 244.119 191.326 243.874L191.214 243.687L190.865 243.077L190.759 242.885C190.62 242.626 190.486 242.364 190.357 242.097C190.33 242.04 190.323 242.022 190.289 241.95L189.978 241.26C189.966 241.232 189.954 241.206 189.945 241.187C189.935 241.165 189.929 241.15 189.923 241.136L189.922 241.135L189.905 241.092C189.899 241.075 189.889 241.05 189.879 241.025C189.781 240.791 189.688 240.553 189.598 240.313L189.554 240.199V240.196C189.453 239.92 189.357 239.639 189.266 239.354L189.196 239.123L189.195 239.122C189.128 238.904 189.065 238.684 189.005 238.462L188.936 238.209L188.825 237.765C188.789 237.617 188.755 237.468 188.723 237.319L156.191 85.2676C156.172 85.1779 156.153 85.0867 156.135 84.9961C156.069 84.6708 156.015 84.3467 155.966 84.0225L155.935 83.8037L155.872 83.3018C155.853 83.1354 155.836 82.9696 155.821 82.8047L155.801 82.5947C155.772 82.2253 155.755 81.8605 155.748 81.5V81.498L155.746 81.2607C155.743 80.9343 155.749 80.6112 155.763 80.2949V80.293C155.766 80.2211 155.765 80.2023 155.768 80.1533L155.769 80.1523C155.789 79.8044 155.82 79.4622 155.86 79.123L155.861 79.1211C155.87 79.0452 155.879 78.9693 155.89 78.8887C155.934 78.5606 155.985 78.2397 156.047 77.9297L156.048 77.9238C156.049 77.9164 156.051 77.9094 156.052 77.9043C156.052 77.9001 156.053 77.8935 156.053 77.8916C156.054 77.8898 156.054 77.8886 156.054 77.8877V77.8838C156.087 77.7236 156.122 77.5653 156.161 77.4082L156.284 76.9395L156.345 76.7227C156.435 76.4167 156.53 76.1204 156.636 75.8369L156.637 75.8359C156.639 75.8323 156.64 75.827 156.645 75.8145C156.65 75.804 156.658 75.7849 156.666 75.7646C156.716 75.6333 156.769 75.503 156.824 75.375L156.996 74.9922L157.083 74.8076C157.211 74.5461 157.346 74.2938 157.489 74.0537L157.56 73.9424C157.64 73.8134 157.711 73.6945 157.787 73.583L157.938 73.3799L158.131 73.1211C158.188 73.0469 158.248 72.9743 158.308 72.9023L158.494 72.6875L158.685 72.4736C158.764 72.3914 158.844 72.3114 158.927 72.2334L159.177 72.0039C159.205 71.9797 159.232 71.9548 159.248 71.9395C159.266 71.9219 159.276 71.9122 159.284 71.9053L159.58 71.668C159.679 71.5926 159.779 71.52 159.881 71.4512C159.883 71.4496 159.887 71.4483 159.898 71.4414C159.907 71.4359 159.923 71.4254 159.94 71.4141L160.018 71.3652C160.13 71.2933 160.243 71.2241 160.357 71.1592L160.703 70.9766C160.704 70.9762 160.706 70.975 160.714 70.9717C160.721 70.9684 160.737 70.9606 160.755 70.9521C160.879 70.8927 161.005 70.8379 161.132 70.7861L161.516 70.6436L166.506 68.9951L166.288 69.2109L166.076 69.4482C166.009 69.5235 165.942 69.5998 165.876 69.6787L165.679 69.9219L165.469 70.2051L165.262 70.502C165.194 70.6025 165.128 70.7055 165.062 70.8115L164.984 70.9346L164.983 70.9355L164.757 71.3359C164.684 71.4718 164.613 71.6097 164.545 71.749L164.452 71.9453C164.327 72.2116 164.208 72.4872 164.098 72.7734L164.088 72.7998C164.083 72.8115 164.075 72.8291 164.068 72.8486L163.905 73.3164C163.854 73.4734 163.804 73.6314 163.758 73.79L163.692 74.0205C163.648 74.1822 163.605 74.3461 163.564 74.5127L163.451 75.0195L163.45 75.0225L163.444 75.0566C163.443 75.0603 163.443 75.0625 163.443 75.0645C163.443 75.0655 163.442 75.0661 163.442 75.0664C163.376 75.3982 163.323 75.7363 163.278 76.0752L163.246 76.3242L163.19 76.8574L163.15 77.4023V77.4053L163.147 77.4873L163.144 77.5518C163.129 77.8844 163.123 78.223 163.126 78.5625L163.128 78.8105C163.132 78.9986 163.138 79.1883 163.147 79.3789L163.183 79.9541L163.204 80.1729C163.235 80.5155 163.275 80.8616 163.324 81.21C163.331 81.2569 163.346 81.3768 163.355 81.4385C163.42 81.8642 163.497 82.2955 163.59 82.7305L196.122 234.784C196.189 235.096 196.264 235.402 196.343 235.705L196.342 235.706C196.365 235.796 196.39 235.886 196.413 235.969C196.476 236.199 196.541 236.429 196.611 236.655L196.685 236.896C196.779 237.189 196.878 237.481 196.983 237.77L196.984 237.769L197.03 237.892C197.123 238.14 197.219 238.386 197.32 238.629L197.321 238.628L197.424 238.873L197.746 239.59C197.759 239.618 197.796 239.699 197.817 239.743C197.952 240.022 198.092 240.295 198.235 240.562L198.236 240.562C198.272 240.629 198.313 240.703 198.344 240.761C198.462 240.974 198.583 241.184 198.707 241.391L198.706 241.392C198.743 241.455 198.784 241.524 198.825 241.591C198.981 241.845 199.142 242.097 199.307 242.343C199.339 242.389 199.38 242.449 199.405 242.484L199.406 242.483L199.789 243.021C199.841 243.092 199.894 243.161 199.946 243.229L199.945 243.229C200.065 243.388 200.189 243.543 200.313 243.695L200.312 243.696C200.357 243.751 200.41 243.818 200.462 243.88L200.463 243.879C200.633 244.084 200.806 244.287 200.985 244.482L201.016 244.514C201.024 244.521 201.026 244.525 201.028 244.527L201.031 244.53C201.195 244.709 201.363 244.88 201.531 245.048L201.53 245.049C201.589 245.107 201.649 245.164 201.704 245.217L201.703 245.218L202.109 245.598L202.288 245.758C202.456 245.905 202.628 246.048 202.802 246.187L202.801 246.188C202.807 246.193 202.814 246.199 202.827 246.209C202.838 246.218 202.854 246.233 202.871 246.246C202.969 246.324 203.068 246.398 203.167 246.472L203.466 246.688L203.637 246.806L204.085 247.099L204.284 247.221C204.447 247.319 204.61 247.411 204.773 247.499L204.775 247.5C204.793 247.509 204.811 247.519 204.835 247.532C204.857 247.545 204.884 247.56 204.912 247.574C205.121 247.683 205.331 247.785 205.543 247.879L205.702 247.945C205.864 248.014 206.027 248.079 206.191 248.139L206.402 248.213C206.563 248.268 206.724 248.318 206.884 248.363C206.92 248.374 207.005 248.4 207.064 248.415L207.065 248.414C207.281 248.471 207.498 248.521 207.718 248.562L207.719 248.562C207.745 248.567 207.769 248.571 207.787 248.573C207.807 248.576 207.819 248.576 207.831 248.578L207.83 248.579C208.013 248.61 208.197 248.636 208.38 248.655H208.382C208.454 248.663 208.525 248.668 208.592 248.673L208.591 248.674C208.751 248.687 208.911 248.694 209.07 248.697C209.127 248.698 209.201 248.701 209.269 248.701H209.271C209.379 248.701 209.489 248.698 209.599 248.693L209.934 248.672L249.774 245.094L245.682 246.446L245.321 246.554C244.956 246.651 244.577 246.72 244.185 246.755L201.677 250.571L201.383 250.591C201.283 250.595 201.183 250.596 201.082 250.597L201.084 251L201.398 250.993L201.713 250.973L244.221 247.155C244.636 247.118 245.038 247.047 245.426 246.943L245.808 246.828L253.993 244.124C253.489 244.291 252.959 244.401 252.406 244.45V244.454L209.898 248.271C209.794 248.281 209.689 248.287 209.584 248.291L209.269 248.298L209.079 248.295C208.927 248.292 208.775 248.285 208.623 248.272L208.423 248.255C208.248 248.236 208.073 248.212 207.898 248.183L207.791 248.166C207.582 248.127 207.374 248.08 207.166 248.025L206.994 247.976L206.532 247.832L206.33 247.761L205.859 247.574L205.706 247.511C205.604 247.466 205.503 247.418 205.401 247.369L205.098 247.218L204.965 247.145L204.491 246.876L204.299 246.757L203.865 246.474L203.697 246.359C203.6 246.291 203.503 246.22 203.407 246.148L203.12 245.929L203.052 245.873L202.553 245.455L202.38 245.299C202.246 245.178 202.114 245.056 201.983 244.929C201.927 244.874 201.871 244.82 201.815 244.765L201.328 244.258C201.313 244.242 201.298 244.227 201.283 244.211C201.109 244.02 200.938 243.822 200.77 243.621C200.721 243.562 200.673 243.502 200.625 243.442C200.503 243.293 200.384 243.141 200.266 242.986L200.112 242.782L199.736 242.255L199.641 242.118C199.56 241.998 199.481 241.876 199.402 241.753L199.169 241.381C199.13 241.317 199.092 241.252 199.053 241.188L198.697 240.567C198.661 240.502 198.625 240.438 198.59 240.372C198.448 240.108 198.311 239.84 198.179 239.567L198.11 239.418L197.794 238.715L197.692 238.475L197.407 237.75L197.362 237.631C197.259 237.349 197.162 237.063 197.069 236.773L196.997 236.537C196.928 236.315 196.863 236.09 196.802 235.863C196.778 235.777 196.755 235.691 196.732 235.604C196.693 235.455 196.655 235.305 196.619 235.154L196.515 234.699L163.983 82.6465C163.892 82.2205 163.817 81.798 163.754 81.3789C163.742 81.3033 163.733 81.2286 163.722 81.1533C163.698 80.9823 163.677 80.8121 163.657 80.6426L163.605 80.1367L163.585 79.9219C163.555 79.5443 163.538 79.1715 163.53 78.8027C163.528 78.7215 163.529 78.6404 163.528 78.5596C163.526 78.2267 163.531 77.8967 163.547 77.5723C163.549 77.5235 163.55 77.4735 163.552 77.4248C163.563 77.246 163.576 77.069 163.592 76.8936L163.646 76.3711L163.677 76.1289C163.7 75.9621 163.724 75.7961 163.751 75.6318L163.838 75.1436C163.84 75.1291 163.843 75.1141 163.845 75.0996C163.879 74.9334 163.916 74.7695 163.956 74.6074L164.081 74.127L164.144 73.9043C164.19 73.7483 164.238 73.5939 164.288 73.4414L164.445 72.9902L164.473 72.9199C164.526 72.7818 164.581 72.6454 164.638 72.5117L164.816 72.1162L164.906 71.9268C165.039 71.6562 165.179 71.3932 165.329 71.1416L165.404 71.0244C165.466 70.9234 165.53 70.8244 165.595 70.7275L165.796 70.4404C165.862 70.3484 165.929 70.2578 165.998 70.1689C166.059 70.0905 166.121 70.0137 166.184 69.9385L166.377 69.7158C166.444 69.6401 166.51 69.5621 166.579 69.4893C166.662 69.4023 166.747 69.3185 166.834 69.2363L167.097 68.9961L167.21 68.8916C167.432 68.7039 167.664 68.5307 167.904 68.3721C167.931 68.3545 167.959 68.3385 167.986 68.3213C168.22 68.1707 168.461 68.0322 168.711 67.9102C168.729 67.9013 168.747 67.8932 168.765 67.8848C169.027 67.76 169.296 67.6484 169.574 67.5566L161.389 70.2617Z" fill="#155C6D"/>
<path d="M165.022 87.4973L156.682 89.4637L156.403 88.1533L164.733 86.1494L165.022 87.4973Z" fill="#155C6D"/>
<path d="M156.403 88.1532L156.683 89.4637L165.022 87.497L164.734 86.1494L156.403 88.1532ZM164.546 87.1953L156.991 88.9764L156.879 88.452L164.426 86.6367L164.546 87.1953Z" fill="#155C6D"/>
<path d="M195.366 229.307L186.988 231.073L186.698 229.729L195.076 227.963L195.366 229.307Z" fill="#155C6D"/>
<path d="M186.699 229.729L186.988 231.073L195.366 229.307L195.076 227.963L186.699 229.729ZM194.887 228.996L187.299 230.597L187.178 230.039L194.767 228.438L194.887 228.996Z" fill="#155C6D"/>
<path d="M233.977 247.461L225.299 248.201C225.173 248.212 225.135 248.112 225.216 247.979C225.295 247.845 225.462 247.728 225.588 247.717L234.266 246.976C234.392 246.966 234.43 247.065 234.35 247.199C234.27 247.333 234.103 247.45 233.977 247.461Z" fill="#155C6D"/>
<path d="M225.299 248.201L225.551 248.179L225.284 248.019L225.299 248.201ZM225.274 247.902C225.252 247.927 225.231 247.952 225.215 247.978L225.283 248.018L225.299 248.201L225.274 247.902ZM225.215 247.978C225.135 248.112 225.173 248.212 225.299 248.201L225.283 248.018L225.215 247.978ZM225.284 248.019L225.551 248.179H225.554L225.284 248.018V248.019ZM234.266 246.976L225.588 247.717C225.487 247.725 225.361 247.803 225.274 247.902L225.284 248.018L225.554 248.179L233.977 247.461C234.071 247.453 234.189 247.385 234.276 247.295L234.35 247.199C234.43 247.065 234.392 246.966 234.266 246.976Z" fill="#155C6D"/>
<path d="M235.863 247.071C235.823 247.138 235.604 247.209 235.373 247.228C235.143 247.248 234.989 247.209 235.029 247.142C235.07 247.075 235.289 247.004 235.519 246.985C235.749 246.965 235.903 247.004 235.863 247.071Z" fill="#155C6D"/>
<path d="M235.519 246.985C235.289 247.004 235.07 247.076 235.03 247.143C235 247.193 235.079 247.227 235.217 247.233L235.373 247.229C235.575 247.211 235.768 247.155 235.84 247.096L235.863 247.072C235.903 247.004 235.749 246.965 235.519 246.985Z" fill="#155C6D"/>
<path d="M224.533 248.039C224.493 248.106 224.274 248.176 224.043 248.196C223.813 248.216 223.659 248.177 223.699 248.11C223.74 248.043 223.959 247.972 224.189 247.952C224.419 247.933 224.573 247.971 224.533 248.039Z" fill="#155C6D"/>
<path d="M224.189 247.952C223.959 247.972 223.74 248.043 223.7 248.111C223.67 248.161 223.749 248.195 223.887 248.2L224.043 248.197C224.245 248.179 224.438 248.123 224.51 248.064L224.533 248.039C224.573 247.972 224.419 247.933 224.189 247.952Z" fill="#155C6D"/>
<path d="M239.24 246.782C239.191 246.865 238.92 246.952 238.635 246.976C238.35 247.001 238.16 246.953 238.21 246.87C238.259 246.786 238.53 246.699 238.815 246.675C239.1 246.651 239.29 246.699 239.24 246.782Z" fill="#155C6D"/>
<path d="M238.815 246.675C238.53 246.699 238.26 246.787 238.21 246.87L238.384 246.974C238.453 246.981 238.539 246.985 238.635 246.977C238.92 246.953 239.191 246.866 239.241 246.783C239.291 246.699 239.1 246.651 238.815 246.675ZM238.21 246.87C238.177 246.926 238.249 246.961 238.384 246.974L238.21 246.87Z" fill="#155C6D"/>
<path d="M241.12 246.62C241.07 246.703 240.799 246.79 240.514 246.815C240.23 246.839 240.039 246.791 240.089 246.708C240.139 246.625 240.41 246.538 240.694 246.513C240.979 246.489 241.17 246.536 241.12 246.62Z" fill="#155C6D"/>
<path d="M240.694 246.512C240.41 246.537 240.14 246.624 240.09 246.707C240.04 246.791 240.23 246.838 240.514 246.814C240.799 246.789 241.07 246.703 241.12 246.62C241.17 246.536 240.979 246.488 240.694 246.512Z" fill="#155C6D"/>
<path d="M242.999 246.461C242.949 246.544 242.678 246.631 242.394 246.655C242.109 246.679 241.919 246.632 241.968 246.548C242.018 246.465 242.289 246.378 242.574 246.354C242.858 246.33 243.049 246.377 242.999 246.461Z" fill="#155C6D"/>
<path d="M242.573 246.353C242.289 246.377 242.019 246.465 241.969 246.548C241.919 246.632 242.109 246.679 242.394 246.655C242.678 246.631 242.949 246.544 242.999 246.46C243.049 246.377 242.858 246.329 242.573 246.353Z" fill="#155C6D"/>
<path d="M217.942 248.6C217.892 248.684 217.621 248.771 217.336 248.795C217.052 248.819 216.861 248.772 216.911 248.689C216.961 248.605 217.232 248.518 217.516 248.494C217.801 248.469 217.991 248.517 217.942 248.6Z" fill="#155C6D"/>
<path d="M217.516 248.493C217.232 248.517 216.962 248.605 216.911 248.688C216.861 248.771 217.051 248.818 217.336 248.794C217.585 248.773 217.824 248.704 217.913 248.631L217.942 248.6C217.992 248.517 217.801 248.468 217.516 248.493Z" fill="#155C6D"/>
<path d="M219.821 248.44C219.771 248.524 219.5 248.611 219.216 248.635C218.931 248.659 218.74 248.611 218.79 248.528C218.84 248.445 219.111 248.358 219.396 248.333C219.68 248.309 219.871 248.357 219.821 248.44Z" fill="#155C6D"/>
<path d="M219.395 248.333C219.111 248.358 218.84 248.445 218.791 248.529L218.964 248.632C219.034 248.639 219.119 248.643 219.215 248.635C219.5 248.611 219.771 248.524 219.821 248.441C219.871 248.357 219.68 248.309 219.395 248.333ZM218.791 248.529C218.758 248.584 218.83 248.619 218.964 248.632L218.791 248.529Z" fill="#155C6D"/>
<path d="M221.701 248.279C221.651 248.362 221.38 248.449 221.096 248.474C220.811 248.498 220.621 248.451 220.67 248.367C220.72 248.284 220.991 248.197 221.276 248.172C221.56 248.148 221.751 248.196 221.701 248.279Z" fill="#155C6D"/>
<path d="M221.275 248.172C220.991 248.197 220.721 248.284 220.671 248.368C220.621 248.451 220.811 248.498 221.096 248.474C221.345 248.452 221.584 248.384 221.673 248.311L221.701 248.28C221.751 248.196 221.56 248.148 221.275 248.172Z" fill="#155C6D"/>
<path d="M214.183 248.923C214.133 249.006 213.862 249.093 213.578 249.117C213.293 249.142 213.102 249.094 213.152 249.011C213.202 248.927 213.473 248.84 213.758 248.816C214.042 248.792 214.233 248.839 214.183 248.923V248.923Z" fill="#155C6D"/>
<path d="M213.757 248.816C213.473 248.84 213.203 248.928 213.153 249.011C213.103 249.094 213.293 249.142 213.578 249.118C213.827 249.096 214.066 249.027 214.155 248.954L214.183 248.923C214.233 248.84 214.042 248.792 213.757 248.816Z" fill="#155C6D"/>
<path d="M216.062 248.761C216.013 248.844 215.742 248.931 215.457 248.956C215.172 248.98 214.982 248.933 215.032 248.849C215.081 248.766 215.352 248.679 215.637 248.655C215.922 248.631 216.112 248.678 216.062 248.761V248.761Z" fill="#155C6D"/>
<path d="M215.637 248.655C215.352 248.679 215.082 248.767 215.032 248.85L215.206 248.953C215.275 248.96 215.36 248.965 215.457 248.956C215.742 248.932 216.013 248.844 216.062 248.761V248.762C216.112 248.679 215.921 248.631 215.637 248.655ZM215.032 248.85C214.999 248.905 215.071 248.94 215.206 248.953L215.032 248.85Z" fill="#155C6D"/>
<path d="M166.387 115.19L165.797 115.317L165.834 115.486C165.553 115.755 165.411 116.156 165.498 116.564L169.529 135.354C169.616 135.761 169.91 136.069 170.277 136.199L170.313 136.369L170.903 136.242C171.528 136.108 171.926 135.493 171.792 134.868L167.761 116.079C167.627 115.454 167.012 115.056 166.387 115.19H166.387Z" fill="#155C6D"/>
<path d="M167.761 116.079C167.627 115.454 167.012 115.056 166.387 115.19L165.797 115.316L165.834 115.486C165.553 115.755 165.411 116.156 165.499 116.564L169.529 135.353L169.571 135.502C169.691 135.835 169.956 136.085 170.277 136.199L170.314 136.369L170.903 136.242C171.489 136.116 171.875 135.568 171.811 134.985L171.791 134.868L167.761 116.079ZM166.472 115.584C166.854 115.502 167.23 115.725 167.347 116.089L167.368 116.163L171.398 134.953C171.485 135.36 171.226 135.761 170.819 135.848L170.618 135.891L170.412 135.819C170.169 135.733 169.979 135.532 169.922 135.269L165.892 116.479L165.877 116.38C165.86 116.152 165.949 115.933 166.112 115.777L166.27 115.627L166.43 115.592L166.472 115.584Z" fill="#155C6D"/>
<path d="M170.314 136.368C169.689 136.502 169.073 136.104 168.94 135.479L164.909 116.69C164.775 116.065 165.173 115.45 165.798 115.316C166.423 115.182 167.038 115.58 167.172 116.205L171.202 134.994C171.337 135.619 170.939 136.234 170.314 136.368Z" fill="#70C5AD"/>
<path d="M167.172 116.205C167.038 115.58 166.423 115.182 165.798 115.316C165.173 115.45 164.775 116.065 164.909 116.69L168.939 135.479L168.971 135.593C169.139 136.114 169.653 136.448 170.197 136.387L170.313 136.368C170.899 136.242 171.286 135.694 171.222 135.111L171.202 134.994L167.172 116.205ZM165.882 115.71C166.264 115.628 166.64 115.85 166.758 116.214L166.778 116.289L170.809 135.079C170.896 135.486 170.637 135.887 170.229 135.974C169.822 136.062 169.421 135.802 169.334 135.395H169.333L165.303 116.605L165.29 116.529C165.248 116.149 165.5 115.792 165.882 115.71Z" fill="#155C6D"/>
<path d="M252.333 244.536C258.006 244.033 261.234 237.12 259.529 229.127L227.097 77.0799C225.394 69.0939 219.394 62.9985 213.722 63.4918L171.179 67.1923C165.501 67.686 162.267 74.5884 163.97 82.5793L196.389 234.716C198.094 242.715 204.101 248.813 209.78 248.309L252.333 244.537L252.333 244.536Z" fill="#70C5AD"/>
<path d="M227.097 77.0797C225.394 69.0937 219.394 62.9985 213.722 63.4918L171.179 67.192C165.502 67.6857 162.267 74.5879 163.97 82.5787L196.39 234.715L196.562 235.46C198.438 242.966 204.092 248.612 209.514 248.328L209.78 248.309L252.333 244.537L252.332 244.536C257.828 244.049 261.029 237.546 259.674 229.873L259.529 229.127L227.097 77.0797ZM213.757 63.8922C216.434 63.6595 219.241 64.9812 221.611 67.3883C223.828 69.6409 225.629 72.8142 226.534 76.4342L226.703 77.1637L259.135 229.211C259.973 233.138 259.592 236.772 258.332 239.469C257.114 242.078 255.09 243.789 252.545 244.108L252.297 244.135L251.429 244.212H251.43L209.744 247.908L209.492 247.925C206.888 248.062 204.179 246.75 201.881 244.418C199.514 242.014 197.621 238.56 196.783 234.631L164.364 82.4948L164.221 81.7623C163.578 78.1186 163.989 74.7691 165.171 72.2448C166.391 69.6408 168.418 67.9336 170.965 67.6188L171.213 67.5934L213.757 63.8922Z" fill="#155C6D"/>
<path d="M210.764 65.9446L210.307 63.7978L211.263 63.7148L211.721 65.8613L210.764 65.9446Z" fill="#70C5AD"/>
<path d="M210.306 63.7979L210.764 65.9443L211.721 65.8613L211.263 63.7148L210.306 63.7979ZM211.233 65.499L211.085 65.5117L210.796 64.1592L210.945 64.1465L211.233 65.499Z" fill="#155C6D"/>
<path d="M174.136 69.13L173.679 66.9828L174.636 66.8994L175.094 69.0466L174.136 69.13Z" fill="#70C5AD"/>
<path d="M173.679 66.9824L174.137 69.13L175.094 69.047L174.637 66.8994L173.679 66.9824ZM174.605 68.6847L174.456 68.6974L174.168 67.3438L174.317 67.3311L174.605 68.6847Z" fill="#155C6D"/>
<path d="M258.106 222.381L255.677 222.596L255.965 223.944L258.393 223.729L258.106 222.381Z" fill="#70C5AD"/>
<path d="M255.678 222.596L255.965 223.944L258.393 223.729L258.106 222.381L255.678 222.596ZM257.905 223.368L256.284 223.511L256.167 222.956L257.787 222.813L257.905 223.368Z" fill="#155C6D"/>
<path d="M225.446 80.8579L225.733 82.205L228.161 81.9935L227.874 80.6465L225.446 80.8579Z" fill="#70C5AD"/>
<path d="M225.445 80.8574L225.732 82.2051L228.161 81.9932L227.874 80.6465L225.445 80.8574ZM227.673 81.6318L226.053 81.7725L225.936 81.2188L227.556 81.0781L227.673 81.6318Z" fill="#155C6D"/>
<path d="M165.018 87.4968L167.076 87.3176L166.789 85.9697L164.729 86.1489L165.018 87.4968Z" fill="#155C6D"/>
<path d="M164.729 86.1494L165.017 87.4971L167.076 87.3174L166.789 85.9697L164.729 86.1494ZM166.588 86.9551L165.338 87.0645L165.219 86.5098L166.47 86.4014L166.588 86.9551Z" fill="#155C6D"/>
<path d="M195.254 229.314L197.296 229.133L197.009 227.784L194.967 227.965L195.254 229.314Z" fill="#70C5AD"/>
<path d="M194.967 227.965L195.254 229.314L197.296 229.133L197.009 227.784L194.967 227.965ZM196.809 228.772L195.574 228.881L195.456 228.325L196.69 228.217L196.809 228.772Z" fill="#155C6D"/>
<path d="M252.24 244.018C257.709 243.533 260.822 236.869 259.178 229.162L226.747 77.1148C225.104 69.4159 219.32 63.5396 213.852 64.0152L171.308 67.7157C165.835 68.1917 162.717 74.846 164.359 82.5493L196.779 234.686C198.422 242.397 204.213 248.276 209.688 247.791L252.241 244.018H252.24Z" fill="#70C5AD"/>
<path d="M226.746 77.1148C225.104 69.416 219.32 63.5398 213.852 64.0152L171.308 67.7154C165.835 68.1916 162.717 74.8462 164.359 82.5494L196.779 234.685L196.945 235.403C198.754 242.639 204.204 248.082 209.431 247.808L209.688 247.791L252.241 244.018H252.24C257.538 243.548 260.626 237.279 259.319 229.88L259.178 229.162L226.746 77.1148ZM213.886 64.4156C216.462 64.1916 219.164 65.4631 221.447 67.7818C223.582 69.9514 225.317 73.0082 226.19 76.4957L226.353 77.1988L258.784 229.246C259.592 233.03 259.225 236.531 258.012 239.128C256.801 241.72 254.764 243.39 252.204 243.617H252.205L209.652 247.389L209.41 247.406C206.905 247.537 204.297 246.276 202.083 244.029C199.803 241.714 197.979 238.386 197.172 234.601L164.752 82.4654L164.616 81.7594C163.996 78.249 164.391 75.0228 165.53 72.5924C166.704 70.0853 168.655 68.4438 171.105 68.1412L171.343 68.1168L213.886 64.4156Z" fill="#155C6D"/>
<path d="M252.185 243.758C257.553 243.282 260.607 236.742 258.994 229.179L226.563 77.1317C224.951 69.5765 219.275 63.8094 213.908 64.2765L171.364 67.977C165.993 68.4441 162.933 74.9744 164.544 82.5343L196.964 234.67C198.576 242.238 204.26 248.007 209.632 247.531L252.185 243.758Z" fill="#70C5AD"/>
<path d="M226.563 77.1319C224.952 69.5769 219.275 63.8094 213.908 64.2765L171.364 67.9767C165.993 68.4441 162.934 74.9745 164.545 82.5343L196.964 234.67L197.127 235.374C198.902 242.476 204.251 247.818 209.381 247.549L209.633 247.531L252.185 243.758C257.386 243.297 260.414 237.145 259.132 229.885L258.994 229.179L226.563 77.1319ZM213.943 64.6778C216.468 64.4582 219.117 65.7041 221.356 67.9786C223.451 70.1068 225.153 73.1053 226.009 76.5265L226.169 77.2159L258.6 229.263C259.392 232.975 259.032 236.41 257.842 238.956C256.655 241.498 254.659 243.135 252.15 243.358L209.596 247.13L209.359 247.147C206.904 247.275 204.346 246.038 202.174 243.834C199.938 241.563 198.149 238.3 197.358 234.587L164.938 82.4503L164.803 81.7579C164.196 78.3143 164.584 75.1502 165.701 72.7667C166.853 70.3082 168.765 68.699 171.166 68.4025L171.399 68.378L213.943 64.6778Z" fill="#155C6D"/>
<path d="M189.794 72.764L198.161 72.036C198.383 72.0166 198.509 71.7468 198.443 71.4335C198.376 71.1202 198.141 70.8818 197.919 70.9015L189.552 71.6296C189.329 71.649 189.203 71.9188 189.27 72.2321C189.337 72.5454 189.571 72.7834 189.794 72.764Z" fill="#155C6D"/>
<path d="M189.551 71.6291C189.329 71.6487 189.203 71.9185 189.27 72.2316L189.302 72.3449C189.395 72.6 189.599 72.7797 189.793 72.7629L198.161 72.0353C198.355 72.0184 198.476 71.8097 198.458 71.548L198.443 71.4328C198.376 71.1195 198.141 70.8808 197.918 70.9006L189.551 71.6291ZM197.952 71.3244C197.989 71.3627 198.03 71.4303 198.048 71.5168C198.06 71.5714 198.058 71.6126 198.053 71.6398L189.787 72.3595C189.781 72.3559 189.772 72.3505 189.76 72.339C189.723 72.3008 189.682 72.2337 189.664 72.1476C189.652 72.0926 189.655 72.0508 189.66 72.0236L197.926 71.3039C197.932 71.3075 197.941 71.3132 197.952 71.3244Z" fill="#155C6D"/>
<path d="M199.882 71.3062C200.082 72.2477 200.787 72.9633 201.456 72.9054C202.125 72.847 202.504 72.0367 202.303 71.0956C202.102 70.1541 201.398 69.4385 200.729 69.4965C200.06 69.5544 199.681 70.3647 199.882 71.3062Z" fill="#155C6D"/>
<path d="M200.729 69.4964C200.06 69.5544 199.68 70.3655 199.881 71.307C200.069 72.1897 200.701 72.8735 201.33 72.9076L201.455 72.9056C202.082 72.8509 202.456 72.1355 202.334 71.2709L202.303 71.0961C202.103 70.1546 201.398 69.4385 200.729 69.4964ZM200.764 69.8978C200.94 69.8827 201.173 69.9689 201.405 70.2045C201.604 70.4069 201.776 70.6954 201.872 71.0326L201.91 71.18C201.995 71.5815 201.951 71.9278 201.841 72.1615C201.734 72.3901 201.58 72.4903 201.42 72.5043H201.421C201.245 72.5195 201.012 72.4344 200.78 72.1986C200.552 71.9673 200.361 71.6231 200.276 71.223V71.222C200.19 70.8205 200.235 70.4752 200.344 70.2416C200.451 70.0128 200.604 69.9117 200.764 69.8978Z" fill="#155C6D"/>
<path d="M171.976 70.8384L176.566 70.4389C177.246 70.3797 177.963 71.1082 178.167 72.0658L178.472 73.493C178.927 75.6326 180.53 77.2595 182.05 77.127L207.45 74.9153C208.969 74.7829 209.831 72.9417 209.375 70.8029L209.071 69.3761C208.866 68.4185 209.252 67.5946 209.932 67.5354L214.519 67.1363C218.771 66.7662 223.254 71.3196 224.531 77.3066L256.962 229.357C258.24 235.35 255.829 240.514 251.575 240.891L209.022 244.662C204.765 245.04 200.278 240.484 199 234.488L166.58 82.3549C165.304 76.3647 167.72 71.2088 171.976 70.8384Z" fill="#155C6D"/>
<path d="M214.519 67.1363L209.932 67.5347C209.252 67.594 208.867 68.418 209.071 69.3755L209.375 70.8023L209.445 71.1997C209.721 73.1647 208.874 74.7903 207.45 74.9146L182.05 77.1265C180.625 77.2507 179.127 75.8285 178.57 73.8872L178.471 73.4927L178.168 72.065C177.963 71.1075 177.246 70.3788 176.565 70.438L171.976 70.8374C167.72 71.2079 165.304 76.3639 166.581 82.354L199.001 234.488L199.13 235.045C200.512 240.58 204.621 244.751 208.623 244.683L209.022 244.662L251.576 240.891C255.696 240.526 258.087 235.668 257.071 229.917L256.962 229.357L224.531 77.3062C223.254 71.3193 218.772 66.7664 214.519 67.1363ZM214.553 67.5367C216.521 67.3654 218.594 68.3328 220.353 70.1197C221.998 71.7907 223.337 74.1493 224.011 76.8462L224.137 77.3902L256.568 229.441C257.192 232.368 256.909 235.066 255.978 237.059C255.049 239.048 253.492 240.317 251.54 240.49L208.986 244.261L208.616 244.281C206.758 244.312 204.831 243.358 203.18 241.682C201.424 239.899 200.018 237.331 199.394 234.404L166.974 82.2701L166.868 81.7251C166.389 79.0107 166.694 76.5257 167.568 74.6597C168.44 72.7984 169.865 71.5701 171.649 71.2837L172.01 71.2388L176.6 70.8394C176.782 70.8235 177.021 70.912 177.258 71.1529C177.462 71.3597 177.637 71.6546 177.736 71.9986L177.773 72.149L178.078 73.5767C178.321 74.7168 178.87 75.7283 179.575 76.4439C180.231 77.1106 181.056 77.5503 181.913 77.5367L182.085 77.5279L207.485 75.3159C208.419 75.2344 209.124 74.6246 209.518 73.7818C209.91 72.9438 210.011 71.8566 209.768 70.7183L209.465 69.2915L209.438 69.1411C209.39 68.7956 209.437 68.4991 209.535 68.2896C209.631 68.0844 209.763 67.9786 209.906 67.9458L209.967 67.9361L214.553 67.5367Z" fill="#155C6D"/>
<path d="M171.976 70.8403L176.565 70.4408C177.246 70.3816 177.963 71.1101 178.167 72.0678L178.471 73.4949C178.927 75.6345 180.53 77.2614 182.049 77.129L207.45 74.9173C208.969 74.7848 209.831 72.9436 209.375 70.8049L209.071 69.3781C208.866 68.4205 209.252 67.5965 209.932 67.5373L214.519 67.1382C218.771 66.7682 223.253 71.3215 224.531 77.3086L238.786 143.921L180.781 148.994L166.58 82.3569C165.304 76.3666 167.72 71.2108 171.976 70.8403Z" fill="#C8DAE8"/>
<path d="M214.519 67.1392L209.933 67.5377C209.252 67.5968 208.866 68.4209 209.07 69.3785L209.375 70.8052L209.444 71.2027C209.72 73.1677 208.874 74.7933 207.449 74.9175L182.05 77.1295C180.625 77.2537 179.128 75.8314 178.57 73.8902L178.472 73.4957L178.167 72.0679C177.963 71.1106 177.246 70.3819 176.565 70.441L171.976 70.8404C167.72 71.2109 165.304 76.367 166.58 82.357L180.781 148.995L238.786 143.921L224.531 77.3091C223.254 71.3221 218.771 66.7691 214.519 67.1392ZM214.554 67.5396C216.522 67.3684 218.594 68.3357 220.354 70.1226C221.998 71.7937 223.336 74.1523 224.011 76.8492L224.137 77.3931L238.298 143.56L181.101 148.562L166.975 82.273L166.868 81.7281C166.389 79.0137 166.693 76.5286 167.567 74.6627C168.439 72.8012 169.865 71.5729 171.649 71.2867L172.011 71.2418L176.601 70.8423C176.783 70.8267 177.021 70.9152 177.258 71.1558C177.461 71.3627 177.637 71.6575 177.736 72.0015L177.773 72.1519L178.077 73.5796C178.32 74.7196 178.87 75.7313 179.574 76.4468C180.231 77.1134 181.055 77.5531 181.912 77.5396L182.084 77.5308L207.484 75.3189C208.419 75.2374 209.123 74.6276 209.518 73.7847C209.91 72.9468 210.011 71.8596 209.769 70.7213L209.465 69.2945L209.438 69.1441C209.389 68.7987 209.436 68.502 209.534 68.2925C209.63 68.0876 209.763 67.9817 209.905 67.9488L209.967 67.939L214.554 67.5396Z" fill="#155C6D"/>
<path d="M225.804 131.76C225.192 131.76 224.697 131.265 224.697 130.654C224.697 130.042 225.192 129.547 225.804 129.547C226.415 129.547 226.91 130.042 226.91 130.654C226.91 131.265 226.415 131.76 225.804 131.76Z" fill="#70C5AD"/>
<path d="M225.1 130.653C225.1 130.265 225.415 129.949 225.804 129.949C226.192 129.949 226.508 130.265 226.508 130.653C226.508 131.042 226.193 131.357 225.804 131.357V131.76L225.917 131.755C226.438 131.702 226.852 131.287 226.904 130.767L226.91 130.653C226.91 130.042 226.415 129.547 225.804 129.547L225.691 129.553C225.133 129.609 224.697 130.08 224.697 130.653L224.702 130.767C224.759 131.325 225.231 131.76 225.804 131.76V131.357C225.415 131.357 225.1 131.042 225.1 130.653Z" fill="#70C5AD"/>
<path d="M225.527 131.023C225.536 131.023 225.546 131.023 225.555 131.022L301.903 125.697C302.124 125.681 302.292 125.489 302.277 125.267C302.261 125.045 302.07 124.878 301.847 124.894L225.499 130.219C225.277 130.235 225.11 130.427 225.125 130.649C225.14 130.861 225.317 131.023 225.527 131.023Z" fill="#70C5AD"/>
<path d="M225.499 130.219C225.277 130.235 225.11 130.427 225.125 130.649L225.138 130.726C225.185 130.899 225.343 131.024 225.527 131.024L225.555 131.023L301.903 125.697C302.124 125.682 302.292 125.489 302.277 125.268C302.261 125.046 302.071 124.878 301.847 124.894L225.499 130.219Z" fill="#70C5AD"/>
<path d="M304.649 125.421C304.658 125.421 304.668 125.421 304.677 125.42L312.01 124.909C312.232 124.893 312.4 124.701 312.384 124.479C312.369 124.257 312.174 124.089 311.955 124.106L304.621 124.617C304.4 124.633 304.232 124.825 304.247 125.047C304.262 125.259 304.439 125.421 304.649 125.421Z" fill="#70C5AD"/>
<path d="M304.622 124.617C304.4 124.633 304.232 124.825 304.248 125.047L304.26 125.124C304.307 125.297 304.466 125.421 304.649 125.421L304.677 125.42L312.01 124.909C312.232 124.894 312.4 124.701 312.384 124.48C312.369 124.258 312.174 124.089 311.955 124.106L304.622 124.617Z" fill="#70C5AD"/>
<path d="M305.471 128.644C305.48 128.644 305.49 128.644 305.499 128.643L318.558 127.732C318.779 127.716 318.947 127.524 318.932 127.302C318.916 127.08 318.719 126.914 318.502 126.929L305.444 127.839C305.222 127.855 305.054 128.047 305.07 128.269C305.085 128.481 305.262 128.644 305.471 128.644Z" fill="#70C5AD"/>
<path d="M305.443 127.84C305.222 127.856 305.054 128.048 305.069 128.269L305.083 128.347C305.13 128.519 305.289 128.643 305.472 128.643L305.499 128.642L318.558 127.732C318.779 127.717 318.947 127.524 318.932 127.303C318.916 127.081 318.719 126.914 318.502 126.929L305.443 127.84Z" fill="#70C5AD"/>
<path d="M306.68 132.014C306.689 132.014 306.699 132.014 306.708 132.013L319.766 131.102C319.988 131.086 320.155 130.894 320.14 130.672C320.124 130.451 319.932 130.285 319.71 130.299L306.652 131.21C306.43 131.225 306.263 131.417 306.278 131.639C306.293 131.852 306.47 132.014 306.68 132.014Z" fill="#70C5AD"/>
<path d="M306.652 131.21C306.431 131.226 306.263 131.418 306.278 131.64L306.291 131.717C306.338 131.89 306.497 132.014 306.68 132.014L306.708 132.013L319.766 131.102C319.96 131.089 320.112 130.939 320.137 130.754L320.14 130.673C320.124 130.451 319.932 130.285 319.71 130.299L306.652 131.21Z" fill="#70C5AD"/>
<path d="M316.466 126.249C316.565 126.249 316.664 126.213 316.741 126.141L318.09 124.886C318.252 124.735 318.262 124.48 318.11 124.317C317.958 124.154 317.703 124.145 317.541 124.296L316.437 125.324L313.678 123.279C313.499 123.147 313.247 123.185 313.115 123.363C312.983 123.542 313.02 123.794 313.199 123.926L316.227 126.17C316.299 126.223 316.383 126.249 316.467 126.249L316.466 126.249Z" fill="#70C5AD"/>
<path d="M313.678 123.279C313.498 123.147 313.248 123.185 313.115 123.363C312.983 123.542 313.02 123.794 313.198 123.926L316.227 126.17L316.283 126.204C316.341 126.233 316.404 126.248 316.467 126.248C316.541 126.248 316.614 126.228 316.679 126.188L316.741 126.141L318.09 124.885C318.252 124.734 318.261 124.48 318.11 124.317C317.959 124.154 317.704 124.146 317.541 124.297L316.438 125.323L313.678 123.279Z" fill="#70C5AD"/>
<path d="M190.524 145.75C189.847 145.75 189.299 145.202 189.299 144.526C189.299 143.85 189.847 143.302 190.524 143.302C191.2 143.302 191.748 143.85 191.748 144.526C191.748 145.202 191.2 145.75 190.524 145.75Z" fill="#70C5AD"/>
<path d="M189.702 144.526C189.702 144.073 190.069 143.704 190.523 143.704C190.977 143.704 191.345 144.073 191.345 144.526C191.345 144.98 190.977 145.348 190.523 145.348V145.75L190.649 145.744C191.225 145.686 191.683 145.227 191.742 144.651L191.748 144.526C191.748 143.85 191.199 143.302 190.523 143.302L190.398 143.308C189.781 143.37 189.299 143.893 189.299 144.526L189.305 144.651C189.368 145.269 189.889 145.75 190.523 145.75V145.348C190.07 145.348 189.702 144.98 189.702 144.526Z" fill="#70C5AD"/>
<path d="M97.9398 151.445C97.949 151.445 97.9587 151.445 97.968 151.444L190.413 144.996C190.634 144.98 190.802 144.788 190.787 144.566C190.771 144.344 190.572 144.177 190.357 144.192L97.9124 150.64C97.6905 150.656 97.523 150.848 97.5383 151.07C97.5532 151.282 97.7304 151.445 97.9398 151.445V151.445Z" fill="#70C5AD"/>
<path d="M97.9127 150.641C97.6908 150.656 97.5234 150.848 97.5387 151.07C97.5537 151.282 97.7307 151.445 97.94 151.445V151.444C97.9492 151.444 97.9592 151.444 97.9684 151.443L190.413 144.996C190.634 144.98 190.802 144.788 190.787 144.566C190.771 144.344 190.572 144.177 190.357 144.192L97.9127 150.641Z" fill="#70C5AD"/>
<path d="M81.403 152.398C81.4122 152.398 81.4219 152.398 81.4311 152.397L88.9521 151.873C89.174 151.857 89.3415 151.665 89.3262 151.443C89.3105 151.221 89.1164 151.055 88.8965 151.069L81.3756 151.594C81.1537 151.609 80.9862 151.801 81.0015 152.023C81.0164 152.235 81.1935 152.398 81.403 152.398V152.398Z" fill="#70C5AD"/>
<path d="M81.376 151.595C81.1541 151.61 80.9857 151.802 81.001 152.024C81.016 152.236 81.194 152.399 81.4033 152.399V152.398C81.4123 152.398 81.4217 152.398 81.4307 152.397L88.9521 151.874C89.1463 151.86 89.2984 151.711 89.3232 151.525L89.3262 151.444C89.3105 151.222 89.1164 151.056 88.8965 151.07L81.376 151.595Z" fill="#70C5AD"/>
<path d="M82.2476 155.703C82.2569 155.703 82.2665 155.703 82.2758 155.702L95.6674 154.768C95.8893 154.753 96.0568 154.561 96.0415 154.339C96.0258 154.117 95.8357 153.949 95.6118 153.965L82.2202 154.899C81.9983 154.915 81.8308 155.107 81.8461 155.329C81.861 155.541 82.0382 155.703 82.2476 155.703Z" fill="#70C5AD"/>
<path d="M82.2201 154.898C81.9984 154.914 81.831 155.106 81.8461 155.328L81.8588 155.405C81.9054 155.579 82.0642 155.703 82.2475 155.703L82.2758 155.702L95.6675 154.769C95.8893 154.753 96.0567 154.561 96.0415 154.339C96.0258 154.117 95.8357 153.949 95.6118 153.965L82.2201 154.898Z" fill="#70C5AD"/>
<path d="M83.4851 159.16C83.4943 159.16 83.504 159.16 83.5133 159.159L96.9048 158.225C97.1267 158.21 97.2942 158.017 97.2789 157.796C97.2636 157.574 97.0659 157.407 96.8492 157.422L83.4577 158.356C83.2358 158.371 83.0683 158.564 83.0836 158.785C83.0985 158.998 83.2757 159.16 83.4851 159.16Z" fill="#70C5AD"/>
<path d="M83.4576 158.355C83.2359 158.371 83.0685 158.563 83.0836 158.785L83.0963 158.862C83.143 159.036 83.3017 159.16 83.485 159.16L83.5133 159.159L96.9049 158.226C97.0991 158.212 97.2512 158.063 97.276 157.877L97.2789 157.796C97.2636 157.574 97.0659 157.407 96.8492 157.422L83.4576 158.355Z" fill="#70C5AD"/>
<path d="M93.5215 153.248C93.6205 153.248 93.7188 153.212 93.7961 153.14L95.179 151.853C95.3417 151.701 95.3509 151.446 95.1991 151.283C95.0477 151.121 94.7928 151.112 94.6301 151.263L93.4925 152.322L90.6562 150.221C90.477 150.088 90.2249 150.126 90.0928 150.304C89.9607 150.483 89.9982 150.735 90.1766 150.868L93.2823 153.168C93.3539 153.221 93.4381 153.247 93.5223 153.247L93.5215 153.248Z" fill="#70C5AD"/>
<path d="M90.6559 150.22C90.4767 150.088 90.2245 150.126 90.0924 150.304C89.9607 150.483 89.9981 150.735 90.1764 150.868L93.2819 153.168C93.3535 153.22 93.438 153.247 93.5221 153.247L93.5211 153.248C93.6202 153.248 93.7192 153.212 93.7965 153.14L95.1793 151.852C95.3214 151.72 95.3461 151.508 95.2487 151.348L95.1989 151.283C95.0476 151.121 94.7932 151.112 94.6305 151.262L93.4928 152.322L90.6559 150.22Z" fill="#70C5AD"/>
<path d="M225.907 166.687C227.259 166.532 228.293 165.925 229.005 164.872C229.714 163.824 229.929 162.597 229.653 161.193L226.034 142.815C225.782 141.535 225.15 140.515 224.138 139.75C223.129 138.987 221.99 138.665 220.719 138.783L219.626 138.885L218.971 135.306C218.497 132.721 217.2 130.636 215.082 129.034C212.977 127.441 210.634 126.756 208.038 126.972C205.432 127.189 203.343 128.25 201.767 130.169C200.174 132.111 199.548 134.394 199.907 137.028L200.404 140.674L199.278 140.778C197.962 140.901 196.918 141.434 196.145 142.382C195.368 143.335 195.058 144.47 195.219 145.788L197.538 164.751C197.716 166.201 198.332 167.364 199.389 168.234C200.449 169.107 201.683 169.464 203.086 169.303L225.906 166.686L225.907 166.687ZM215.698 139.251L204.424 140.3L203.894 136.668C203.671 135.144 204.024 133.797 204.947 132.625C205.864 131.463 207.093 130.818 208.632 130.686C210.172 130.553 211.557 130.971 212.803 131.939C214.055 132.913 214.813 134.151 215.074 135.659L215.698 139.251ZM225.094 162.314L202.488 164.829C202.323 164.848 202.175 164.803 202.042 164.695C201.911 164.588 201.835 164.45 201.812 164.279L199.317 145.393C199.296 145.236 199.333 145.098 199.429 144.977C199.526 144.858 199.653 144.79 199.811 144.775L221.446 142.697C221.599 142.682 221.739 142.723 221.865 142.819C221.993 142.917 222.071 143.042 222.1 143.195L225.556 161.648C225.587 161.816 225.558 161.964 225.467 162.093C225.378 162.223 225.254 162.297 225.095 162.315L225.094 162.314ZM212.94 157.634C211.817 157.754 210.798 157.451 209.886 156.726C208.977 156.003 208.438 155.07 208.266 153.928C208.095 152.792 208.34 151.792 208.997 150.925C209.653 150.063 210.531 149.579 211.634 149.467C212.737 149.356 213.734 149.651 214.634 150.353C215.535 151.058 216.082 151.972 216.272 153.099C216.464 154.232 216.24 155.239 215.595 156.121C214.947 157.009 214.062 157.515 212.94 157.634Z" fill="#70C5AD"/>
<path d="M214.842 128.517C212.788 127.095 210.514 126.488 208.015 126.696L207.519 126.748C205.07 127.059 203.077 128.137 201.552 129.994L201.255 130.374C199.926 132.167 199.362 134.233 199.574 136.562L199.631 137.066L200.089 140.424L199.252 140.502L198.996 140.531C197.73 140.703 196.702 141.259 195.929 142.207L195.78 142.4C195.11 143.311 194.823 144.37 194.917 145.565L194.943 145.823L197.262 164.786C197.436 166.206 198.016 167.376 199.008 168.274L199.212 168.45C200.332 169.372 201.643 169.75 203.118 169.581L225.804 166.978L225.939 166.964C227.276 166.81 228.335 166.233 229.089 165.234L229.236 165.028C229.992 163.91 230.213 162.606 229.925 161.14L226.307 142.762L226.253 142.513C225.958 141.283 225.307 140.287 224.306 139.529L224.104 139.383C223.089 138.682 221.949 138.39 220.693 138.507L219.855 138.585L219.245 135.257L219.143 134.765C218.588 132.336 217.286 130.354 215.25 128.813L214.842 128.517ZM208.061 127.251C210.43 127.054 212.577 127.625 214.527 128.976L214.914 129.257C216.848 130.72 218.075 132.591 218.601 134.891L218.697 135.357L219.399 139.186L220.745 139.061C221.873 138.957 222.883 139.216 223.79 139.842L223.97 139.972C224.867 140.651 225.446 141.536 225.712 142.645L225.761 142.87L229.379 161.248C229.643 162.589 229.436 163.739 228.775 164.717L228.647 164.895C227.991 165.765 227.076 166.271 225.881 166.41L225.874 166.411L203.054 169.028L202.806 169.05C201.58 169.136 200.503 168.792 199.566 168.02L199.383 167.863C198.496 167.061 197.973 166.016 197.814 164.718L195.496 145.756L195.472 145.523C195.387 144.45 195.643 143.524 196.23 142.727L196.361 142.558C197.037 141.729 197.934 141.236 199.073 141.082L199.303 141.055L200.43 140.951L200.719 140.925L200.679 140.636L200.183 136.991L200.128 136.514C199.928 134.313 200.458 132.382 201.705 130.703L201.982 130.346C203.412 128.605 205.274 127.593 207.591 127.3L208.061 127.251ZM221.42 142.421L199.785 144.499L199.701 144.51C199.535 144.542 199.389 144.619 199.27 144.739L199.212 144.802L199.211 144.805L199.162 144.875C199.07 145.017 199.027 145.176 199.034 145.345L199.04 145.43L201.536 164.316C201.568 164.556 201.679 164.759 201.866 164.912C202.031 165.046 202.222 165.115 202.429 165.112L202.519 165.106L224.993 162.606L225.125 162.592C225.363 162.565 225.56 162.449 225.696 162.252C225.832 162.056 225.873 161.832 225.83 161.598L222.373 143.145L222.355 143.063C222.302 142.877 222.193 142.719 222.034 142.598L221.894 142.509C221.749 142.435 221.589 142.405 221.42 142.421ZM221.532 142.974C221.589 142.979 221.642 142.999 221.697 143.041C221.752 143.083 221.789 143.132 221.81 143.188L221.827 143.248L225.283 161.7C225.297 161.775 225.29 161.834 225.267 161.885L225.24 161.934L225.238 161.936L225.204 161.977C225.168 162.012 225.125 162.031 225.066 162.038L225.063 162.039L202.457 164.553L202.393 164.555C202.331 164.551 202.275 164.527 202.218 164.48L202.168 164.432C202.124 164.381 202.098 164.32 202.087 164.243L199.592 145.358L199.589 145.299C199.592 145.242 199.611 145.196 199.647 145.151C199.695 145.093 199.752 145.061 199.837 145.052L221.473 142.974H221.532ZM214.805 150.134C213.851 149.391 212.783 149.073 211.607 149.191C210.43 149.31 209.479 149.832 208.776 150.757C208.071 151.686 207.809 152.764 207.991 153.969C208.162 155.105 208.679 156.053 209.537 156.798L209.713 156.944C210.62 157.665 211.636 157.997 212.747 157.93L212.97 157.912C214.093 157.792 215.004 157.306 215.687 156.46L215.82 156.286C216.511 155.34 216.75 154.255 216.546 153.052L216.504 152.832C216.27 151.737 215.701 150.835 214.805 150.134ZM211.663 149.745C212.627 149.648 213.502 149.881 214.304 150.454L214.463 150.573C215.257 151.193 215.754 151.982 215.96 152.95L215.998 153.146C216.179 154.21 215.968 155.14 215.371 155.958L215.255 156.108C214.667 156.838 213.891 157.254 212.911 157.358L212.715 157.375C211.745 157.433 210.862 157.147 210.059 156.509L209.903 156.379C209.144 155.72 208.693 154.892 208.541 153.887L208.516 153.689C208.418 152.772 208.617 151.962 209.109 151.246L209.219 151.093C209.827 150.296 210.634 149.849 211.663 149.745ZM212.728 131.538C211.491 130.657 210.119 130.279 208.609 130.409C206.997 130.548 205.697 131.228 204.729 132.454C203.818 133.61 203.434 134.935 203.581 136.412L203.619 136.709L204.187 140.601L215.724 139.528L216.024 139.501L215.348 135.612L215.291 135.319C214.973 133.872 214.197 132.671 212.974 131.72L212.728 131.538ZM208.656 130.964C210.032 130.845 211.275 131.185 212.408 131.992L212.632 132.16C213.757 133.034 214.46 134.124 214.748 135.44L214.8 135.707L215.373 139.002L204.661 139.998L204.168 136.629L204.135 136.359C204.009 135.109 204.302 133.997 205.008 133.009L205.165 132.799C206.033 131.7 207.189 131.09 208.656 130.964Z" fill="#155C6D"/>
<path d="M195.393 147.214L195.219 145.789C195.057 144.47 195.367 143.335 196.144 142.382C196.917 141.434 197.961 140.901 199.277 140.778L200.403 140.674L199.906 137.028C199.547 134.395 200.173 132.111 201.766 130.169C203.342 128.25 205.43 127.19 208.037 126.973C210.634 126.756 212.976 127.442 215.081 129.034C217.198 130.636 218.496 132.722 218.969 135.307L219.625 138.885L220.717 138.783C221.989 138.665 223.128 138.986 224.137 139.75C225.149 140.515 225.782 141.536 226.034 142.815L226.366 144.505L222.409 144.852L222.099 143.196C222.07 143.042 221.992 142.917 221.864 142.819C221.738 142.723 221.598 142.682 221.445 142.697L199.811 144.775C199.652 144.79 199.525 144.858 199.428 144.977C199.333 145.098 199.295 145.237 199.316 145.394L199.509 146.854L195.393 147.214ZM203.892 136.668L204.422 140.3L215.697 139.251L215.073 135.659C214.811 134.151 214.053 132.913 212.801 131.939C211.555 130.971 210.167 130.553 208.63 130.686C207.09 130.818 205.863 131.463 204.944 132.626C204.022 133.797 203.67 135.144 203.892 136.668Z" fill="#C8DAE8"/>
<path d="M214.841 128.516C212.787 127.094 210.513 126.487 208.014 126.695L207.518 126.747C205.069 127.058 203.076 128.135 201.551 129.993L201.254 130.373C199.924 132.166 199.36 134.232 199.572 136.562L199.63 137.065L200.088 140.423L199.251 140.501L198.994 140.53C197.729 140.702 196.701 141.259 195.928 142.206L195.779 142.399C195.109 143.31 194.822 144.37 194.916 145.564L194.943 145.822L195.116 147.247L195.15 147.515L199.822 147.105L199.592 145.357L199.589 145.298C199.592 145.243 199.61 145.197 199.645 145.152L199.683 145.112C199.71 145.089 199.741 145.074 199.778 145.063L199.837 145.053L221.472 142.974C221.532 142.968 221.587 142.978 221.641 143.006L221.695 143.041C221.751 143.083 221.788 143.131 221.809 143.187L221.825 143.247L222.135 144.902L222.182 145.15L222.433 145.129L226.391 144.782L226.699 144.756L226.307 142.762L226.252 142.513C225.956 141.282 225.306 140.285 224.305 139.528L224.104 139.383C223.088 138.682 221.948 138.39 220.692 138.507L219.854 138.584L219.243 135.257L219.142 134.765C218.586 132.336 217.285 130.353 215.249 128.812L214.841 128.516ZM208.061 127.25C210.43 127.052 212.577 127.624 214.527 128.975L214.913 129.256C216.847 130.719 218.074 132.59 218.6 134.89L218.695 135.356L219.397 139.185L220.743 139.06C221.872 138.955 222.882 139.215 223.789 139.842L223.969 139.972C224.865 140.649 225.445 141.536 225.711 142.644L225.761 142.869L226.033 144.255L222.637 144.552L222.372 143.144L222.353 143.062C222.3 142.876 222.191 142.718 222.032 142.598L221.893 142.51C221.747 142.435 221.588 142.404 221.419 142.42L199.784 144.498L199.699 144.511C199.534 144.542 199.387 144.618 199.269 144.738L199.212 144.803L199.21 144.805L199.16 144.874C199.069 145.016 199.026 145.175 199.032 145.345L199.04 145.43L199.195 146.6L195.637 146.912L195.494 145.755L195.471 145.522C195.386 144.45 195.642 143.523 196.229 142.726L196.36 142.557C197.036 141.728 197.933 141.236 199.071 141.082L199.303 141.056L200.428 140.951L200.718 140.924L200.678 140.636L200.182 136.99L200.127 136.515C199.926 134.313 200.457 132.382 201.703 130.702L201.981 130.346C203.411 128.604 205.273 127.592 207.591 127.299L208.061 127.25ZM212.727 131.537C211.49 130.656 210.114 130.278 208.607 130.408L208.308 130.441C206.931 130.622 205.795 131.217 204.911 132.229L204.726 132.453L204.551 132.686C203.766 133.786 203.442 135.032 203.58 136.411L203.616 136.708L204.147 140.34L204.186 140.601L215.723 139.528L216.023 139.5L215.347 135.611L215.289 135.318C214.971 133.871 214.195 132.671 212.972 131.72L212.727 131.537ZM208.654 130.963C210.028 130.844 211.273 131.184 212.405 131.991L212.63 132.159C213.755 133.034 214.457 134.124 214.746 135.44L214.799 135.706L215.372 139.001L204.659 139.997L204.167 136.628L204.134 136.358C203.999 135.019 204.344 133.838 205.163 132.798C205.977 131.768 207.044 131.167 208.383 130.992L208.654 130.963Z" fill="#155C6D"/>
</svg>
