<svg width="172" height="172" viewBox="0 0 172 172" fill="none" xmlns="http://www.w3.org/2000/svg">
<g clip-path="url(#clip0_9503_13396)">
<path d="M10.9428 56.0999L76.4968 93.0849L76.4918 93.4229C76.8898 93.4039 77.2818 93.3179 77.5878 93.1419L141.745 56.0999C142.089 55.9049 142.256 55.6469 142.256 55.3899C142.325 80.1879 142.396 104.983 142.466 129.779C142.468 130.037 142.3 130.292 141.96 130.487L77.7958 167.533C77.1568 167.902 76.1508 167.91 75.4778 167.579L75.4758 167.609L11.1528 130.487C10.8198 130.294 10.6528 130.04 10.6528 129.786L10.4418 55.3999C10.4418 55.6539 10.6078 55.9079 10.9428 56.0999Z" fill="#70C5AD"/>
<path d="M75.9238 168.444L75.9358 168.255C76.6568 168.402 77.4648 168.304 78.0468 167.966L142.211 130.92C142.694 130.643 142.97 130.225 142.967 129.775L142.757 55.3879H141.757C141.757 55.4489 141.69 55.5569 141.5 55.6639L77.3388 92.7089C77.2438 92.7629 77.1298 92.8089 77.0018 92.8429V92.7939L11.1918 55.6649C11.0198 55.5669 10.9428 55.4609 10.9418 55.3999V55.3979H9.94177V55.4009L10.1528 129.787C10.1528 130.23 10.4258 130.643 10.9018 130.92L75.9238 168.444ZM141.76 56.6689L141.967 129.78C141.967 129.844 141.889 129.952 141.712 130.053L77.5468 167.1C77.0628 167.38 76.2348 167.393 75.6988 167.13L75.3448 166.955L11.4038 130.054C11.2308 129.953 11.1538 129.847 11.1538 129.785L10.9468 56.6749L75.9948 93.3739L75.9858 93.9459L76.5168 93.9209C77.0288 93.8979 77.4858 93.7769 77.8378 93.5749L141.76 56.6689Z" fill="#155C6D"/>
<path d="M10.9429 56.0999L76.4969 93.0849L76.4919 93.4229C76.8489 93.4059 77.1929 93.3259 77.4819 93.1829V167.656C76.8569 167.882 76.0519 167.858 75.4779 167.579L75.4759 167.609L11.1529 130.487C10.8199 130.294 10.6529 130.04 10.6529 129.786L10.4419 55.3999C10.4419 55.6539 10.6079 55.9079 10.9429 56.0999Z" fill="#155C6D"/>
<path d="M75.9239 168.444L75.9369 168.25C76.4959 168.358 77.1179 168.319 77.6529 168.127L77.9839 168.008V92.3749L77.2609 92.7349C77.1819 92.7739 77.0949 92.8079 77.0029 92.8359V92.7949L11.1909 55.6659C11.0199 55.5679 10.9439 55.4629 10.9429 55.4009V55.3989H9.94289V55.4089L10.1539 129.787C10.1539 130.23 10.4269 130.643 10.9029 130.92L75.9239 168.444ZM76.9819 167.273C76.5439 167.352 76.0489 167.301 75.6969 167.13L75.3669 166.969L11.4029 130.055C11.2299 129.954 11.1529 129.848 11.1529 129.786L10.9459 56.6759L75.9939 93.3749L75.9849 93.9469L76.5159 93.9219C76.6749 93.9149 76.8309 93.8969 76.9819 93.8679V167.273Z" fill="#155C6D"/>
<path d="M142.32 77.12L77.4948 114.543C76.8018 114.945 75.6678 114.95 74.9728 114.543L10.5028 77.078L10.4468 56.571L74.9148 94.037C75.6118 94.44 76.7428 94.438 77.4368 94.037L142.261 56.612C142.278 63.447 142.301 70.286 142.32 77.12Z" fill="#155C6D"/>
<path d="M76.2308 115.346C76.7748 115.346 77.3198 115.223 77.7448 114.976L142.821 77.4079L142.759 55.747L77.1878 93.6039C76.6458 93.9149 75.7018 93.9149 75.1668 93.6039L9.94479 55.7L10.0048 77.3659L74.7228 114.975C75.1448 115.222 75.6878 115.345 76.2328 115.345L76.2308 115.346ZM141.819 76.832L77.2448 114.11C76.7028 114.424 75.7598 114.425 75.2248 114.11L11.0008 76.789L10.9468 57.4399L74.6628 94.469C75.5108 94.959 76.8388 94.959 77.6858 94.469L141.763 57.477L141.819 76.832Z" fill="#155C6D"/>
<path d="M75.9029 93.9349C76.4319 93.9349 76.9619 93.8149 77.3739 93.5759L141.536 56.5329C142.018 56.2539 142.295 55.8389 142.295 55.3929C142.295 54.9479 142.022 54.5329 141.543 54.2549L77.7999 17.2119C76.9779 16.7339 75.6859 16.7329 74.8599 17.2119L10.7019 54.2549C10.2209 54.5329 9.94391 54.9479 9.94191 55.3939C9.94191 55.8389 10.2129 56.2539 10.6909 56.5329L74.4339 93.5759C74.8449 93.8149 75.3739 93.9339 75.9029 93.9349ZM76.3319 17.8519C76.6859 17.8519 77.0409 17.9269 77.2969 18.0759L141.041 55.1189C141.217 55.2219 141.296 55.3299 141.296 55.3909C141.296 55.4529 141.216 55.5629 141.036 55.6659L76.8739 92.7089C76.3569 93.0069 75.4519 93.0089 74.9369 92.7089L11.1939 55.6669C11.0199 55.5649 10.9419 55.4569 10.9419 55.3949C10.9419 55.3319 11.0229 55.2219 11.2019 55.1189L75.3599 18.0769C75.6199 17.9269 75.9759 17.8519 76.3319 17.8519Z" fill="#155C6D"/>
<path d="M9.02406 52.2011C8.33006 52.6001 8.32106 53.2571 9.01807 53.6601L74.9141 91.9561C75.6111 92.3601 76.7421 92.3581 77.4361 91.9561L143.774 53.6601C144.471 53.2551 144.474 52.6041 143.781 52.1991L77.8791 13.9041C77.1881 13.4981 76.0591 13.4981 75.3581 13.9041L9.02406 52.2011Z" fill="#C8DAE8"/>
<path d="M76.1748 92.7571C76.7188 92.7571 77.2628 92.6351 77.6868 92.3891L144.024 54.0931C144.517 53.8071 144.798 53.3821 144.799 52.9271C144.799 52.4741 144.521 52.0511 144.034 51.7671L78.1298 13.4721C77.2898 12.9771 75.9618 12.9771 75.1078 13.4721L8.77382 51.7691C8.28282 52.0521 8.00082 52.4771 8.00082 52.9331C8.00082 53.3891 8.27982 53.8111 8.76982 54.0941L74.6658 92.3891C75.0898 92.6341 75.6338 92.7571 76.1778 92.7571H76.1748ZM76.6228 14.1011C76.9918 14.1011 77.3598 14.1791 77.6248 14.3351L143.53 52.6311C143.728 52.7471 143.799 52.8621 143.799 52.9261C143.799 52.9911 143.727 53.1091 143.523 53.2271L77.1878 91.5221C76.6478 91.8341 75.7048 91.8341 75.1668 91.5221L9.27083 53.2271C9.07182 53.1121 9.00082 52.9971 9.00082 52.9331C9.00082 52.8681 9.07182 52.7501 9.27382 52.6341L75.6078 14.3381C75.8788 14.1801 76.2528 14.1021 76.6228 14.1021V14.1011Z" fill="#155C6D"/>
<path d="M143.774 53.66C144.124 53.454 144.299 53.189 144.299 52.925C144.319 59.761 144.336 66.597 144.359 73.434C144.359 73.699 144.183 73.966 143.83 74.168L77.4949 112.466L77.4379 91.9561L143.774 53.66Z" fill="#70C5AD"/>
<path d="M76.9969 113.33L144.08 74.6011C144.574 74.3181 144.859 73.8921 144.859 73.4341L144.799 52.9231H143.799C143.799 52.9891 143.727 53.1071 143.523 53.2281L76.9379 91.6681V91.9571L76.9969 113.33ZM143.802 54.2211L143.858 73.4351C143.858 73.5041 143.772 73.6241 143.581 73.7331L77.9919 111.601L77.9379 92.2441L143.802 54.2211Z" fill="#155C6D"/>
<path d="M9.05183 53.66L74.9478 91.956C75.6418 92.36 76.7778 92.358 77.4728 91.956L77.5278 112.466C76.8348 112.867 75.7008 112.869 75.0088 112.466L9.10883 74.169C8.76383 73.973 8.59283 73.707 8.59283 73.443C8.57182 66.608 8.55083 59.772 8.53384 52.938C8.53384 53.197 8.70383 53.46 9.05183 53.66Z" fill="#155C6D"/>
<path d="M76.2668 113.268C76.8108 113.268 77.3538 113.145 77.7788 112.899L78.0288 112.754L77.9698 91.091L77.2218 91.524C76.6798 91.836 75.7358 91.837 75.1998 91.524L9.3018 53.227C9.11681 53.121 9.03481 53.006 9.03381 52.939V52.937H8.03381V52.939V52.941C8.05081 59.774 8.0708 66.61 8.0928 73.444C8.0928 73.903 8.3728 74.326 8.8618 74.603L74.7578 112.898C75.1798 113.144 75.7238 113.268 76.2668 113.268ZM77.0278 112.147C76.4788 112.341 75.7208 112.301 75.2608 112.035L9.3598 73.738C9.1618 73.625 9.0928 73.509 9.0928 73.444C9.0718 67.039 9.0538 60.634 9.0368 54.231L74.6968 92.39C75.3208 92.754 76.2088 92.851 76.9738 92.675L77.0268 112.148L77.0278 112.147Z" fill="#155C6D"/>
<path d="M35.09 37.133L50.413 28.302L119.563 68.33V140.729L104.469 149.445V77.616C104.469 77.616 104.478 77.401 104.345 77.141C104.258 76.968 103.911 76.779 103.911 76.779L35.786 37.196C35.786 37.196 35.555 37.075 35.394 37.075C35.31 37.075 35.09 37.133 35.09 37.133Z" fill="#70C5AD"/>
<path d="M103.969 150.312L120.063 141.018V68.0421L50.415 27.7241L34.841 36.7001L35.218 37.6171C35.218 37.6171 35.345 37.5821 35.414 37.5751C35.414 37.5791 35.501 37.6121 35.558 37.6401L103.661 77.2111C103.766 77.2701 103.885 77.3551 103.916 77.3931C103.968 77.5001 103.97 77.6081 103.97 77.6081V150.311L103.969 150.312ZM119.063 140.44L104.969 148.58V77.6171C104.971 77.5791 104.973 77.2731 104.79 76.9141C104.649 76.6341 104.295 76.4191 104.15 76.3401L36.383 36.9651L50.412 28.8801L119.063 68.6181V140.439V140.44Z" fill="#155C6D"/>
<path d="M33.244 67.144L101.491 27.625L116.854 36.541C116.854 36.541 116.593 36.417 116.389 36.441C116.143 36.469 115.769 36.715 115.769 36.715L48.179 75.823C48.033 75.926 47.942 76.066 47.876 76.214L32.867 67.59C32.94 67.447 33.049 67.297 33.245 67.144H33.244Z" fill="#70C5AD"/>
<path d="M48.108 76.9241L48.333 76.4161C48.373 76.3251 48.414 76.2691 48.466 76.2331L116.019 37.1481C116.182 37.0431 116.378 36.9481 116.446 36.9381C116.479 36.9501 116.577 36.9651 116.641 36.9951L117.104 36.1091L101.491 27.0471L32.937 66.7501C32.708 66.9281 32.54 67.1291 32.42 67.3651L32.206 67.7881L48.107 76.9251L48.108 76.9241ZM115.466 36.3141L47.929 75.3911C47.855 75.4421 47.789 75.4951 47.73 75.5541L33.671 67.4761L101.49 28.2031L115.465 36.3131L115.466 36.3141Z" fill="#155C6D"/>
<path d="M119.563 69.5071V142.781C119.563 142.781 119.596 142.985 119.497 143.271C119.43 143.462 119.234 143.596 119.234 143.596L104.187 152.299C104.187 152.299 104.374 152.139 104.418 152.012C104.478 151.838 104.469 151.39 104.469 151.39V77.5181L119.563 69.5071Z" fill="#70C5AD"/>
<path d="M104.437 152.732L119.484 144.029C119.57 143.971 119.853 143.766 119.968 143.438C120.102 143.049 120.065 142.756 120.056 142.702L120.062 68.677L103.968 77.219V151.391C103.971 151.577 103.959 151.794 103.942 151.856C103.946 151.834 103.896 151.89 103.859 151.921L104.436 152.733L104.437 152.732ZM119.063 70.339V142.781C119.068 142.851 119.078 142.955 119.024 143.107C119.017 143.122 118.977 143.164 118.946 143.186L104.968 151.268V77.818L119.062 70.338L119.063 70.339Z" fill="#155C6D"/>
<path d="M148.345 76.4951C137.016 67.6151 128.202 60.6771 118.544 55.4221C101.708 46.2691 77.0017 46.6951 70.9817 53.3181C70.3257 54.0421 79.1107 48.7981 102.59 61.1451C111.01 65.5681 123.105 76.423 123.361 76.267C129.457 72.6551 148.345 76.4951 148.345 76.4951Z" fill="#70C5AD"/>
<path d="M148.246 76.9851L148.654 76.1021L148.232 75.7711C137.128 67.0671 128.358 60.1931 118.784 54.9831C101.87 45.7871 76.9018 46.0651 70.6128 52.9821L70.3648 53.2551L70.5198 53.6341C70.7228 53.9801 71.0508 53.9041 71.4688 53.8051C78.6558 52.1281 89.6228 54.8901 102.358 61.5881C108.395 64.7591 116.519 71.4121 120.424 74.6091C122.304 76.1497 123.37 76.8447 123.622 76.6941C129.477 73.2251 148.059 76.9471 148.246 76.9851ZM132.157 74.215C128.675 74.215 125.429 74.5921 123.365 75.6921C122.974 75.4051 122.073 74.6681 121.057 73.8351C116.826 70.3701 108.949 63.9201 102.823 60.7021C90.6368 54.2941 79.9828 51.4421 72.5928 52.5711C76.0208 50.1331 82.7068 48.7701 90.6968 48.9541C100.592 49.1831 110.655 51.7011 118.307 55.8611C127.467 60.8451 135.921 67.3931 146.434 75.6311C143.408 75.104 137.505 74.2141 132.158 74.2141L132.157 74.215Z" fill="#155C6D"/>
<path d="M110.983 24.9459L114.528 32.4299C114.528 32.4299 113.354 38.9679 101.989 43.3959C90.6218 47.8179 84.1418 50.8869 84.1418 50.8869L79.2708 50.7479C83.6048 39.6449 88.4338 27.9499 93.5528 24.0949C105.485 15.1159 110.983 24.9459 110.983 24.9459Z" fill="#70C5AD"/>
<path d="M84.2469 51.391L84.3549 51.339C84.4199 51.309 90.9529 48.226 102.169 43.862C113.664 39.384 114.969 32.797 115.019 32.519L115.047 32.361L111.418 24.702C111.332 24.549 109.269 20.938 104.917 20.02C101.405 19.277 97.4769 20.516 93.2509 23.695C88.0779 27.591 83.2779 39.105 78.8039 50.566L78.5459 51.227L84.2459 51.39L84.2469 51.391ZM114 32.485C113.735 33.452 111.804 39.036 101.807 42.931C91.3449 47.001 84.9379 49.964 84.0369 50.385L79.9949 50.27C84.3419 39.166 88.9859 28.161 93.8529 24.496C97.8319 21.501 101.48 20.324 104.698 20.997C108.483 21.789 110.407 24.955 110.539 25.18L114 32.485Z" fill="#155C6D"/>
<path d="M104.761 44.549C99.0666 47.104 87.3696 50.559 83.0416 51.568L83.8166 49.952C91.0726 49.245 92.9256 37.751 104.137 32.086C107.254 30.511 111.078 29.718 113.518 31.12C115.387 32.191 114.665 35.046 114.665 35.046C114.665 35.046 113.853 40.464 104.761 44.549Z" fill="#155C6D"/>
<path d="M82.1407 52.2919L83.1557 52.0549C87.6307 51.0119 99.3097 47.5429 104.967 45.0049C114.201 40.8559 115.125 35.3519 115.16 35.1199C115.183 35.0369 115.94 31.9309 113.767 30.6859C111.018 29.1079 106.874 30.1429 103.912 31.6399C98.1597 34.5469 94.7617 39.0459 92.0317 42.6619C89.3047 46.2729 87.1507 49.1249 83.7687 49.4549L83.4877 49.4819L82.1407 52.2919ZM104.557 44.0929C99.3427 46.4319 88.9457 49.5739 83.9497 50.8329L84.1487 50.4169C87.8037 49.9199 90.1377 46.8289 92.8297 43.2639C95.6367 39.5469 98.8177 35.3339 104.364 32.5319C107.093 31.1529 110.865 30.1719 113.27 31.5529C114.785 32.4209 114.187 34.8989 114.181 34.9239C114.163 35.0209 113.246 40.1889 104.557 44.0929Z" fill="#155C6D"/>
<path d="M83.9071 11.4999L96.2711 15.6949C96.2711 15.6949 101.475 17.3729 97.4611 29.1019C93.4551 40.8319 87.0451 51.219 87.0451 51.219L79.6611 48.8479C79.6611 48.8479 76.9301 42.9189 75.3331 27.0929C73.7331 11.2659 83.9071 11.4999 83.9071 11.4999Z" fill="#70C5AD"/>
<path d="M87.265 51.815L87.471 51.482C87.535 51.378 93.957 40.912 97.935 29.264C99.727 24.029 99.972 20.05 98.664 17.439C97.779 15.672 96.481 15.237 96.426 15.219L83.919 11C83.765 11 80.459 10.953 77.805 13.821C75.223 16.612 74.224 21.094 74.836 27.143C76.422 42.872 79.094 48.811 79.207 49.057L79.299 49.257L87.265 51.816V51.815ZM83.827 12.001L96.11 16.168C96.159 16.185 100.759 17.919 96.987 28.939C93.443 39.316 87.94 48.751 86.82 50.621L80.031 48.441C79.564 47.291 77.24 41.024 75.829 27.042C75.249 21.303 76.155 17.088 78.523 14.515C80.662 12.191 83.359 12.013 83.825 12L83.827 12.001Z" fill="#155C6D"/>
<path d="M97.0965 29.35C95.0435 35.356 92.4645 40.93 90.4325 44.955L85.0695 50.575C85.0695 50.575 86.0355 30.263 87.9155 22.74C89.2465 17.403 92.0435 15.029 94.8415 15.465C95.2065 15.526 96.0695 15.852 96.0695 15.852C96.0695 15.852 101.109 17.625 97.0965 29.35Z" fill="#155C6D"/>
<path d="M84.5077 51.8899L90.8797 45.1809C93.6227 39.7479 95.8737 34.4759 97.5707 29.5119C101.696 17.4569 96.4617 15.4599 96.2367 15.3809C96.1537 15.3499 95.3267 15.0399 94.9247 14.9719C91.6017 14.4589 88.7367 17.3859 87.4307 22.6189C85.5607 30.1039 84.6107 49.7199 84.5707 50.5509L84.5077 51.8899ZM90.0197 44.6639L85.6397 49.2539C85.8937 44.5989 86.8337 29.1339 88.4007 22.8609C89.5697 18.1739 92.0077 15.5309 94.7647 15.9589C94.9897 15.9969 95.5767 16.1999 95.8927 16.3199C95.9437 16.3389 100.396 18.1639 96.6227 29.1879C94.9477 34.0889 92.7267 39.2949 90.0197 44.6639Z" fill="#155C6D"/>
<path d="M105.02 32.7631C111.169 31.4601 115.665 35.2641 116.871 40.3231C117.821 44.3081 115.217 59.0491 99.004 56.7521C82.795 54.4551 80.72 50.9041 80.72 50.9041L80.838 49.1071C80.838 49.1071 92.549 35.4031 105.021 32.7621L105.02 32.7631ZM98.989 50.2761C106.149 50.9471 109.391 49.1921 109.391 46.0861C109.391 42.9801 107.23 40.9531 102.366 41.4891C98.329 41.9351 87.355 47.6101 87.355 47.6101C87.355 47.6101 91.831 49.5931 98.989 50.2761Z" fill="#70C5AD"/>
<path d="M102.23 57.488C106.859 57.488 110.679 55.953 113.398 52.967C117.319 48.662 117.912 42.532 117.357 40.207C116.202 35.362 111.819 30.811 104.916 32.273C92.4218 34.918 80.9398 48.216 80.4578 48.781L80.3498 48.907L80.2118 51.023L80.2888 51.155C80.3788 51.308 82.6728 54.941 98.9338 57.245C100.073 57.406 101.173 57.486 102.23 57.486V57.488ZM107.434 33.001C112.348 33.001 115.474 36.618 116.385 40.439C116.896 42.585 116.328 48.266 112.659 52.294C109.507 55.754 104.936 57.086 99.0748 56.256C85.0698 54.272 81.7658 51.333 81.2318 50.745L81.3258 49.307C82.5328 47.938 93.5908 35.693 105.125 33.25C105.934 33.08 106.705 33 107.436 33L107.434 33.001ZM101.833 50.919C104.996 50.919 107.261 50.312 108.588 49.103C109.453 48.315 109.891 47.3 109.891 46.086C109.891 44.512 109.364 43.209 108.368 42.316C107.055 41.139 105.017 40.694 102.312 40.992C98.2288 41.443 87.5768 46.932 87.1258 47.165L86.1998 47.644L87.1528 48.066C87.3388 48.149 91.7858 50.09 98.9418 50.773C99.9768 50.87 100.941 50.919 101.833 50.919ZM103.832 41.905C105.526 41.905 106.848 42.297 107.701 43.061C108.491 43.769 108.892 44.787 108.892 46.086C108.892 47.007 108.563 47.774 107.915 48.364C106.452 49.697 103.383 50.184 99.0368 49.779C94.0038 49.299 90.2848 48.156 88.5838 47.549C91.3698 46.155 99.2248 42.34 102.421 41.987C102.916 41.932 103.387 41.905 103.832 41.905Z" fill="#155C6D"/>
<path d="M87.3824 47.564C88.2654 47.94 92.6184 49.67 98.9884 50.277C106.148 50.948 109.299 49.187 109.308 46.078C109.313 43.055 107.448 42.319 106.518 41.762C107.928 42.153 108.702 42.46 110.14 43.76C112.336 45.737 113.898 52.019 109.308 55.499C108.422 56.195 104.619 57.401 99.4674 56.892C83.1704 55.279 80.9754 50.328 80.9754 50.328V50.324C82.4264 49.833 84.7674 48.773 87.3814 47.565L87.3824 47.564Z" fill="#155C6D"/>
<path d="M101.921 57.514C105.749 57.514 108.672 56.635 109.617 55.892C112.087 54.019 112.695 51.549 112.768 49.808C112.872 47.337 111.929 44.698 110.475 43.388C108.967 42.025 108.114 41.685 106.652 41.28L106.262 42.191L106.559 42.361C107.51 42.897 108.813 43.631 108.809 46.076C108.806 47.029 108.483 47.784 107.821 48.386C106.374 49.7 103.336 50.183 99.0356 49.778C92.6896 49.174 88.3786 47.444 87.5786 47.103L87.3746 47.016L87.1726 47.109C84.7676 48.221 82.2956 49.348 80.8156 49.849L80.4756 49.964L80.5186 50.529C80.6126 50.742 83.0206 55.764 99.4186 57.388C100.286 57.473 101.124 57.512 101.922 57.512L101.921 57.514ZM109.357 43.74C109.499 43.859 109.647 43.989 109.805 44.131C110.86 45.08 111.872 47.32 111.769 49.766C111.705 51.293 111.173 53.458 109.006 55.101C108.355 55.613 104.762 56.913 99.5166 56.395C86.7576 55.132 82.7986 51.794 81.7566 50.575C83.2416 50.013 85.3326 49.062 87.3926 48.111C88.5976 48.603 92.8716 50.197 98.9406 50.775C103.595 51.213 106.808 50.657 108.492 49.128C109.362 48.338 109.804 47.313 109.808 46.081C109.81 45.107 109.632 44.345 109.357 43.74Z" fill="#155C6D"/>
<path d="M101.764 63.3129L92.0558 69.0109C92.0558 69.0109 87.3718 73.1909 79.0758 63.7649C75.6658 59.8869 73.3188 52.9839 73.3188 52.9839L86.2838 45.9839C96.3688 44.3289 102.513 47.0509 104.795 50.3529C109.668 57.3849 101.764 63.3129 101.764 63.3129Z" fill="#70C5AD"/>
<path d="M89.063 70.435C91.186 70.435 92.338 69.43 92.389 69.384L102.064 63.713C102.147 63.651 110.294 57.411 105.206 50.068C102.897 46.727 96.694 43.767 86.203 45.49L86.047 45.543L72.71 52.744L72.846 53.144C72.944 53.43 75.266 60.186 78.701 64.094C82.233 68.107 85.579 70.236 88.647 70.421C88.79 70.429 88.928 70.434 89.063 70.434V70.435ZM101.486 62.897L91.804 68.58C91.548 68.791 87.272 72.32 79.452 63.435C76.611 60.205 74.488 54.732 73.934 53.22L86.448 46.464C96.428 44.848 102.255 47.556 104.384 50.637C108.844 57.074 102.012 62.494 101.486 62.897Z" fill="#155C6D"/>
<path d="M78.0017 61.845C75.5627 58.556 72.9987 54.226 72.2467 53.321L77.4017 53.511C77.1007 53.21 90.7387 55.083 93.2987 62.691C94.0137 64.808 93.1557 68.118 91.9467 68.956C90.1987 70.169 87.6547 69.861 86.0757 69.07C83.5997 67.835 80.9377 65.796 78.0017 61.845Z" fill="#155C6D"/>
<path d="M89.0987 70.268C90.1957 70.268 91.3067 70.009 92.2317 69.367C93.7177 68.337 94.5247 64.759 93.7727 62.531C91.3237 55.252 79.3457 53.063 77.6237 52.984C77.5387 52.98 77.4137 52.974 77.2877 53.007L71.1477 52.78L71.8627 53.64C72.1607 53.998 72.8257 55.03 73.5957 56.224C74.7467 58.007 76.1787 60.226 77.6007 62.143C80.2257 65.675 82.8477 68.018 85.8527 69.517C86.7477 69.965 87.9147 70.267 89.0987 70.267V70.268ZM78.1037 54.038C80.7597 54.413 90.7547 56.699 92.8247 62.851C93.4707 64.764 92.6947 67.83 91.6617 68.545C90.1427 69.599 87.8137 69.382 86.2997 68.623C83.4397 67.197 80.9307 64.948 78.4037 61.548C77.0017 59.657 75.5797 57.453 74.4367 55.683C73.9647 54.953 73.5667 54.334 73.2477 53.859L78.1037 54.039V54.038Z" fill="#155C6D"/>
<path d="M57.8876 15.3881L67.7306 13.1921C67.7306 13.1921 73.6896 10.3421 77.4966 22.8421C81.3106 35.3431 82.6406 48.9801 82.6406 48.9801L77.2436 50.4021C77.2436 50.4021 68.7956 47.3021 57.9356 34.4961C47.0726 21.6871 57.8886 15.3891 57.8886 15.3891L57.8876 15.3881Z" fill="#70C5AD"/>
<path d="M77.2187 50.925L83.1797 49.355L83.1377 48.932C83.1247 48.795 81.7597 35.101 77.9747 22.696C76.3577 17.389 74.1527 14.089 71.4187 12.886C69.4547 12.023 67.8977 12.579 67.5727 12.715L57.6277 14.961C57.4597 15.062 53.5067 17.476 52.7287 22.176C52.0887 26.037 53.7117 30.292 57.5537 34.821C68.3737 47.581 76.7197 50.744 77.0707 50.873L77.2177 50.927L77.2187 50.925ZM82.0987 48.606L77.2757 49.877C76.1337 49.403 68.1937 45.819 58.3167 34.173C54.6617 29.862 53.1157 25.867 53.7227 22.299C54.3987 18.327 57.6087 16.157 58.0827 15.856L67.9457 13.643C67.9977 13.619 69.3017 13.033 71.0467 13.814C72.7257 14.565 75.1237 16.767 77.0187 22.987C80.4007 34.075 81.8377 46.21 82.0987 48.606Z" fill="#155C6D"/>
<path d="M77.6297 24.181C79.4507 30.616 80.8447 36.911 81.6147 41.583L80.6387 49.564C80.6387 49.564 69.1587 31.384 66.1467 23.766C64.0117 18.361 65.1037 14.47 67.7297 13.415C68.0057 13.307 68.6057 13.24 68.9027 13.223C72.1897 13.022 75.4617 16.524 77.6297 24.181Z" fill="#155C6D"/>
<path d="M80.9656 51.017L82.1206 41.573L82.1086 41.502C81.2736 36.433 79.8166 30.07 78.1116 24.045C76.0086 16.62 72.6106 12.481 68.8726 12.724C68.8656 12.724 67.9906 12.776 67.5486 12.949C64.9646 13.987 63.2816 17.871 65.6826 23.949C68.6776 31.523 79.7466 49.086 80.2166 49.83L80.9656 51.017ZM81.1106 41.594L80.3146 48.102C77.7196 43.931 69.1286 29.945 66.6116 23.582C64.4626 18.14 65.7816 14.737 67.9166 13.879C68.0886 13.812 68.5916 13.742 68.9316 13.722C72.2166 13.507 75.1876 17.385 77.1496 24.317C78.8376 30.279 80.2796 36.572 81.1106 41.594Z" fill="#155C6D"/>
<path d="M42.1819 46.1319L45.3429 32.5879C45.3429 32.5879 45.3229 30.5189 48.9449 29.7159C51.7969 29.0869 56.5089 29.4009 64.2889 34.8639C74.9829 42.3749 79.7759 48.2729 79.7759 48.2729L76.3709 51.9649C69.3219 55.0479 60.0919 56.2839 53.3219 55.0159C41.2809 52.7569 42.1819 46.1319 42.1819 46.1319Z" fill="#70C5AD"/>
<path d="M59.044 56.005C64.822 56.005 71.307 54.726 76.572 52.423L76.739 52.304L80.438 48.294L80.165 47.958C80.117 47.898 75.206 41.92 64.577 34.455C58.323 30.064 53.029 28.305 48.838 29.228C45.207 30.033 44.876 32.093 44.847 32.519L41.688 46.065C41.648 46.355 40.865 53.188 53.232 55.508C55.022 55.843 56.989 56.005 59.044 56.005ZM76.076 51.548C69.118 54.566 60.027 55.763 53.415 54.524C42.261 52.431 42.628 46.679 42.676 46.217L45.845 32.642V32.582C45.845 32.521 45.922 30.897 49.054 30.203C52.952 29.343 57.987 31.047 64.003 35.272C73.094 41.657 77.94 46.922 79.108 48.259L76.076 51.548Z" fill="#155C6D"/>
<path d="M70.4976 40.0008C75.5926 44.3418 77.7956 47.0068 80.9946 50.4998L78.7366 51.4598C74.2836 45.1798 64.8996 43.2718 52.2096 38.7038C48.4456 37.3488 44.6146 35.3228 45.3426 32.5878C45.9446 30.3338 49.0036 29.8798 50.4606 29.7298C56.4436 29.1098 65.0426 35.3558 70.4976 40.0018V40.0008Z" fill="#155C6D"/>
<path d="M78.5628 52.0779L81.8418 50.6839L81.3638 50.1629C80.8778 49.6329 80.4158 49.1209 79.9618 48.6209C77.3888 45.7789 75.1678 43.3239 70.8228 39.6219C64.8498 34.5359 56.4428 28.6099 50.4098 29.2339C47.2118 29.5629 45.3438 30.6489 44.8598 32.4609C44.1938 34.9619 46.6098 37.2219 52.0418 39.1759C54.6468 40.1139 57.0758 40.9269 59.4238 41.7139C68.3998 44.7189 74.8838 46.8909 78.3298 51.7509L78.5628 52.0799V52.0779ZM80.1508 50.3159L78.9068 50.8449C75.2248 45.9499 68.6988 43.7639 59.7408 40.7639C57.3978 39.9789 54.9748 39.1679 52.3798 38.2339C49.0398 37.0319 45.1918 35.0989 45.8268 32.7169C46.1918 31.3469 47.7688 30.5099 50.5128 30.2279C56.5328 29.6049 65.4088 36.3229 70.1748 40.3829C74.4688 44.0419 76.6708 46.4739 79.2198 49.2909C79.5248 49.6269 79.8338 49.9679 80.1508 50.3159Z" fill="#155C6D"/>
<path d="M90.9484 30.4841L76.6484 26.8711C76.6484 26.8711 70.2604 30.0031 72.4494 38.2751C74.6354 46.5481 72.7364 51.0981 72.7364 51.0981L79.5094 51.5531C82.8204 51.5531 90.3484 48.5431 93.6614 42.2241C97.8444 34.2321 90.9484 30.4841 90.9484 30.4841Z" fill="#70C5AD"/>
<path d="M79.4776 52.0521C82.7426 52.0521 90.5926 49.1541 94.1046 42.4561C98.4646 34.1241 91.2606 30.0841 91.1876 30.0441L91.0716 29.9991L76.5926 26.3411L76.4286 26.4221C76.3606 26.4551 69.6986 29.8331 71.9666 38.4021C74.0746 46.3831 72.2936 50.8611 72.2756 50.9061L72.0106 51.5491L79.4756 52.0521H79.4776ZM90.7606 30.9521C91.4096 31.3281 96.9726 34.8191 93.2186 41.9921C90.0556 48.0251 82.7246 51.0531 79.5096 51.0531L73.4156 50.6421C73.8616 49.0901 74.6926 44.8091 72.9336 38.1461C71.0426 31.0041 75.7596 27.9391 76.7126 27.4021L90.7606 30.9521Z" fill="#155C6D"/>
<path d="M69.8768 38.0089C70.6818 42.2759 70.7258 46.3939 72.1348 49.2949L72.5848 49.5999C73.9398 48.9949 82.9608 41.9919 81.9148 33.3419C81.6288 30.9339 79.4708 27.3409 76.8678 26.9439C74.3918 26.5689 72.9228 27.7589 72.9228 27.7589C72.9228 27.7589 68.5868 31.1819 69.8768 38.0089Z" fill="#155C6D"/>
<path d="M72.5347 50.1699L72.7887 50.0569C74.6637 49.2199 83.4527 41.8959 82.4117 33.2819C82.1087 30.7319 79.8817 26.8979 76.9437 26.4499C74.2827 26.0489 72.6747 27.3159 72.6087 27.3699C72.4257 27.5139 68.0547 31.0579 69.3857 38.1009C69.6467 39.4819 69.8257 40.8509 70.0007 42.1739C70.3607 44.9069 70.7007 47.4879 71.6847 49.5129L71.7437 49.6339L72.5357 50.1699H72.5347ZM75.9057 27.3699C76.1817 27.3699 76.4777 27.3909 76.7927 27.4379C79.1907 27.8039 81.1647 31.2689 81.4177 33.4009C82.3947 41.4799 74.3427 47.9549 72.6127 49.0149L72.5267 48.9569C71.6567 47.0909 71.3337 44.6379 70.9917 42.0429C70.8157 40.7069 70.6337 39.3239 70.3677 37.9159C69.1527 31.4889 73.0657 28.2839 73.2327 28.1499C73.2807 28.1119 74.2407 27.3699 75.9057 27.3699Z" fill="#155C6D"/>
<path d="M53.3216 56.8209L55.7066 45.082C55.7066 45.082 56.8376 41.414 65.0216 43.728C74.0606 46.281 78.0986 51.8729 77.9496 52.4729L76.9326 56.9889C76.0306 60.2629 68.2996 65.624 62.1476 65.285C52.3016 64.7439 53.3236 56.8209 53.3236 56.8209H53.3216Z" fill="#70C5AD"/>
<path d="M62.7129 65.7999C69.0279 65.7999 76.4969 60.4549 77.4159 57.1209L78.4379 52.5819C78.7049 51.5109 74.2619 45.8169 65.1579 43.2469C56.6059 40.8269 55.2819 44.7659 55.2299 44.9349L52.8249 56.7679L53.3219 56.8229L52.8249 56.7699C52.7869 57.1109 52.5139 60.1719 54.6189 62.6589C56.2179 64.5469 58.7419 65.5989 62.1209 65.7839C62.3159 65.7949 62.5149 65.7999 62.7129 65.7999ZM77.4469 52.4319L76.4459 56.8789C75.6029 59.9329 68.1109 65.1089 62.1749 64.7859C59.0619 64.6149 56.7669 63.6709 55.3559 61.9809C53.4879 59.7449 53.8159 56.9119 53.8199 56.8839L56.1989 45.1819C56.1989 45.1819 57.3789 42.0879 64.8869 44.2089C73.1609 46.5459 77.1659 51.4789 77.4469 52.4319ZM77.4649 52.3519L77.4609 52.3699C77.4609 52.3639 77.4639 52.3589 77.4649 52.3519Z" fill="#155C6D"/>
<path d="M33.6724 154.992C22.1918 154.305 21.6286 153.741 20.9344 142.32C20.2402 153.741 19.677 154.305 8.1898 154.992C19.677 155.68 20.2402 156.243 20.9344 167.665C21.6286 156.243 22.1918 155.68 33.6724 154.992Z" fill="#C8DAE8"/>
<path d="M20.9345 168C21.1048 168 21.2489 167.862 21.262 167.692C21.9431 156.467 22.4081 156.002 33.6922 155.327C33.8625 155.314 34 155.177 34 155C34 154.823 33.8625 154.686 33.6922 154.673C22.4081 153.991 21.9431 153.533 21.262 142.308C21.2489 142.138 21.1114 142 20.9345 142C20.7577 142 20.6202 142.138 20.6071 142.308C19.926 153.533 19.461 153.998 8.17031 154.673C8.00003 154.686 7.86252 154.823 7.86252 155C7.86252 155.177 8.00003 155.314 8.17031 155.327C19.461 156.009 19.926 156.467 20.6071 167.692C20.6202 167.862 20.7577 168 20.9345 168ZM29.3632 154.993C23.0629 155.655 21.596 157.115 20.9345 163.396C20.2731 157.115 18.806 155.655 12.4992 154.993C18.806 154.332 20.2731 152.865 20.9345 146.591C21.596 152.872 23.0629 154.332 29.3632 154.993Z" fill="#155C6D"/>
</g>
<path d="M171.458 21.4872C152.471 20.35 151.54 19.4185 150.392 0.528809C149.244 19.4185 148.312 20.35 129.314 21.4872C148.312 22.6245 149.244 23.556 150.392 42.4457C151.54 23.556 152.471 22.6245 171.458 21.4872Z" fill="#C8DAE8"/>
<path d="M150.392 43C150.673 43 150.912 42.7726 150.933 42.4909C152.06 23.9262 152.829 23.1572 171.491 22.0416C171.773 22.0199 172 21.7924 172 21.5C172 21.2076 171.773 20.9801 171.491 20.9584C152.829 19.832 152.06 19.0738 150.933 0.509068C150.912 0.227456 150.684 0 150.392 0C150.099 0 149.872 0.227456 149.85 0.509068C148.724 19.0738 147.955 19.8428 129.282 20.9584C129 20.9801 128.773 21.2076 128.773 21.5C128.773 21.7924 129 22.0199 129.282 22.0416C147.955 23.168 148.724 23.9262 149.85 42.4909C149.872 42.7726 150.099 43 150.392 43ZM164.331 21.4892C153.912 22.5831 151.486 24.9985 150.392 35.3856C149.298 24.9985 146.871 22.5831 136.441 21.4892C146.871 20.3952 149.298 17.969 150.392 7.5927C151.486 17.9799 153.912 20.3952 164.331 21.4892Z" fill="#155C6D"/>
<defs>
<clipPath id="clip0_9503_13396">
<rect width="140.654" height="159.444" fill="white" transform="matrix(-1 0 0 1 148.654 9)"/>
</clipPath>
</defs>
</svg>
