<svg width="172" height="172" viewBox="0 0 172 172" fill="none" xmlns="http://www.w3.org/2000/svg">
<path d="M110.216 148.953C110.216 152.014 92.574 154.494 70.8117 154.494C49.0495 154.494 31.4077 152.014 31.4077 148.953C31.4077 145.893 49.0495 143.412 70.8117 143.412C92.574 143.412 110.216 145.893 110.216 148.953Z" fill="#155C6D"/>
<path d="M114.649 60.9174L94.0188 48.9297C95.1403 49.579 96.129 50.4448 96.7242 51.3745C104.826 64.0164 94.1811 87.5737 79.9552 95.7885C76.5709 97.7414 72.9899 98.8285 69.4039 98.6908C68.2479 98.6465 66.9345 98.1989 65.7638 97.52L86.3942 109.508C87.565 110.187 88.8784 110.634 90.0343 110.678C93.6203 110.811 97.2014 109.729 100.586 107.776C114.812 99.5614 125.456 76.0041 117.355 63.3622C116.76 62.4325 115.771 61.5667 114.649 60.9174Z" fill="#155C6D"/>
<path d="M94.254 48.5235C94.03 48.3939 93.7432 48.4706 93.6133 48.6944C93.4835 48.9183 93.5595 49.205 93.7832 49.335H93.7852L93.7842 49.336C94.8599 49.9588 95.7848 50.777 96.3291 51.627V51.628L96.7247 51.3741L96.8243 51.3106L96.3291 51.628C100.26 57.7616 99.6802 66.6294 96.2774 75.0665C92.8803 83.4893 86.7231 91.3393 79.7207 95.3829L79.0948 95.7325C75.9568 97.4295 72.6821 98.3479 69.4219 98.2227L69.2207 98.21C68.2079 98.1285 67.0533 97.7256 65.9991 97.1143L65.9122 97.0752C65.7057 97.0061 65.4722 97.0887 65.3584 97.2842C65.2285 97.5081 65.3045 97.7958 65.5284 97.9258L86.1582 109.913L86.6299 109.103L69.5225 99.1612C72.9399 99.2637 76.3325 98.2926 79.542 96.5567L80.1895 96.1944C87.413 92.0232 93.6911 83.987 97.1475 75.417C100.556 66.9651 101.273 57.8536 97.2686 51.3594L114.414 61.3233L114.811 61.5655C115.651 62.1093 116.373 62.769 116.854 63.4561L116.96 63.6153C120.891 69.7489 120.311 78.6167 116.908 87.0538C113.511 95.4766 107.354 103.327 100.352 107.37L99.7256 107.72C96.5882 109.416 93.3135 110.331 90.0528 110.21L89.8516 110.198C88.8388 110.117 87.6842 109.714 86.6299 109.103L86.3946 109.508L86.1582 109.913H86.1592C87.376 110.619 88.7639 111.1 90.0166 111.148L90.709 111.158C93.9373 111.142 97.1363 110.186 100.172 108.545L100.82 108.183C108.044 104.011 114.322 95.9743 117.778 87.4044C121.229 78.849 121.921 69.6176 117.75 63.1094L117.624 62.921C116.972 61.9869 115.979 61.1451 114.885 60.5118L94.2852 48.543C94.2746 48.5368 94.2646 48.5296 94.254 48.5235Z" fill="#155C6D"/>
<path d="M100.389 39.0308C78.0365 51.9384 59.9737 83.2235 60.0475 108.906C60.0475 109.506 60.0623 110.096 60.0819 110.677C60.5001 122.069 64.9911 130.437 72.1631 134.524L98.8391 149.729C99.3556 150.024 100.03 149.931 100.703 149.542C101.377 149.154 102.051 148.47 102.563 147.584L130.277 99.5793C133.445 94.0897 136.017 88.295 137.768 82.525C140.218 74.4479 141.394 66.3217 140.882 58.7857C139.382 36.8025 123.331 27.6137 103.478 37.3829C102.44 37.8945 101.417 38.4405 100.394 39.0308H100.389ZM83.6835 107.061C75.5818 94.4193 86.2267 70.862 100.453 62.6471C103.832 60.6943 107.418 59.6121 110.999 59.7449C113.267 59.8285 116.13 61.4617 117.349 63.3604C125.451 76.0024 114.806 99.5597 100.58 107.774C97.1961 109.727 93.6151 110.814 90.0291 110.677C87.7614 110.593 84.8985 108.96 83.6835 107.061Z" fill="#70C5AD"/>
<path d="M129.295 35.7702C122.652 31.9686 113.859 32.0249 104.207 36.5144L103.271 36.9626L102.488 37.3562C101.72 37.7503 100.958 38.1647 100.197 38.6032C100.182 38.6097 100.168 38.6168 100.155 38.6247C88.8907 45.1292 78.7334 56.2456 71.4026 68.9431C64.072 81.6402 59.5415 95.9628 59.5783 108.906L59.5891 109.808C59.5953 110.106 59.6036 110.401 59.6135 110.693V110.694C60.029 122.016 64.4365 130.473 71.5881 134.732L71.9309 134.932L98.6067 150.136C99.3289 150.549 100.193 150.378 100.938 149.949C101.6 149.567 102.241 148.946 102.756 148.164L102.969 147.819L130.683 99.8142L131.273 98.7761C134.187 93.5685 136.565 88.1065 138.217 82.6618L137.32 82.3894C135.58 88.1216 133.022 93.8836 129.87 99.3454H129.871L102.156 147.35H102.157C101.68 148.177 101.06 148.796 100.469 149.136C99.866 149.484 99.3821 149.499 99.0715 149.322L72.3957 134.117L71.7473 133.731C65.1314 129.618 60.9522 121.59 60.551 110.66C60.5314 110.082 60.5168 109.498 60.5168 108.906V108.905L60.0481 108.906H60.0471L60.5168 108.905C60.4802 96.1663 64.9449 82.0053 72.2151 69.4128C79.48 56.8294 89.5209 45.8559 100.6 39.4509C100.609 39.4463 100.619 39.4425 100.628 39.4372C101.642 38.8521 102.657 38.3105 103.686 37.8034V37.8025C113.52 32.9638 122.323 32.8614 128.829 36.5847C135.335 40.3078 139.671 47.9304 140.414 58.8181L140.882 58.7859L141.35 58.7546V58.7536L141.269 57.7234C140.314 47.1649 135.939 39.5724 129.295 35.7702ZM110.325 59.2653C106.87 59.2824 103.44 60.3788 100.218 62.2409L99.5442 62.6433C92.6053 66.915 86.6094 74.717 83.261 83.0193C79.8105 91.5746 79.1189 100.805 83.2893 107.313L83.2883 107.314C83.9476 108.345 85.0329 109.275 86.2297 109.957C87.4267 110.639 88.7828 111.099 90.0119 111.144L90.011 111.145C93.4745 111.278 96.915 110.302 100.167 108.543L100.815 108.18C108.038 104.009 114.316 95.9729 117.773 87.403C121.223 78.8474 121.915 69.6154 117.744 63.1071L117.615 62.9148C116.947 61.9615 115.922 61.104 114.799 60.4646C113.602 59.7825 112.246 59.3215 111.017 59.2761L110.325 59.2653ZM110.982 60.2136C112.02 60.2519 113.229 60.65 114.335 61.28C115.372 61.8707 116.277 62.6418 116.846 63.4519L116.955 63.614C120.886 69.7476 120.306 78.6155 116.904 87.0525C113.506 95.4754 107.348 103.325 100.346 107.369L99.7209 107.718C96.5827 109.416 93.3075 110.334 90.0471 110.209H90.0461C89.0077 110.17 87.7985 109.772 86.6936 109.142C85.5885 108.512 84.6339 107.677 84.0784 106.808L83.8977 106.519C80.1665 100.398 80.7805 91.6752 84.1301 83.3698C87.4211 75.21 93.3027 67.5877 100.033 63.4431L100.688 63.0534C103.802 61.254 107.072 60.219 110.33 60.2028L110.982 60.2136ZM140.414 58.8181C140.921 66.2851 139.757 74.3536 137.32 82.3894L137.823 82.5417L138.217 82.6618V82.6609L138.664 81.1384C140.821 73.5224 141.834 65.884 141.35 58.7546L140.414 58.8181Z" fill="#155C6D"/>
<path d="M79.7581 27.0432C80.7764 26.4529 81.8044 25.9069 82.8423 25.3953C92.8231 20.4812 101.845 20.3631 108.539 24.2541L129.17 36.2418C122.475 32.3508 113.454 32.4689 103.473 37.383C102.435 37.8946 101.412 38.4406 100.389 39.0309C78.0364 51.9385 59.9737 83.2236 60.0475 108.911C60.0475 109.511 60.0622 110.101 60.0819 110.682C60.5 122.074 64.9911 130.442 72.1631 134.529L51.5326 122.542C44.3557 118.454 39.8646 110.087 39.4514 98.694C39.4318 98.1135 39.4219 97.5233 39.417 96.9231C39.3432 71.2408 57.406 39.9507 79.7581 27.0481V27.0432Z" fill="#C8DAE8"/>
<path d="M108.124 23.4861C101.328 19.8697 92.3935 20.1696 82.6347 24.9744L81.8515 25.368C81.0701 25.7684 80.2935 26.1905 79.5224 26.6375C79.5042 26.6481 79.487 26.66 79.4706 26.6727C68.2279 33.179 58.0908 44.2805 50.7714 56.9588C43.4407 69.6569 38.911 83.9812 38.9482 96.9246V96.9266C38.9531 97.5292 38.9625 98.124 38.9824 98.7098L39.4511 98.6932L39.2949 98.699L38.9824 98.7098V98.7108L39.0341 99.7801C39.6866 110.741 44.171 118.885 51.2978 122.946L51.2968 122.947L71.582 134.732C71.6976 134.801 71.8136 134.87 71.9306 134.936C72.1549 135.064 72.4405 134.986 72.5693 134.763C72.6979 134.539 72.6216 134.254 72.3984 134.124L72.3955 134.122C65.405 130.138 60.9648 121.947 60.5507 110.664C60.5312 110.087 60.5166 109.503 60.5165 108.911V108.909L60.0478 108.911H59.8906L60.5165 108.909C60.48 96.1678 64.9447 82.0059 72.2148 69.4129C79.4849 56.82 89.5348 45.8394 100.623 39.4363V39.4373C101.637 38.8522 102.651 38.3105 103.68 37.8035L104.603 37.3611C114.118 32.934 122.62 32.9771 128.935 36.6473L129.02 36.6863C129.227 36.756 129.461 36.6732 129.575 36.4774C129.689 36.2815 129.645 36.0376 129.482 35.8924L129.405 35.8358L108.775 23.8484L108.124 23.4861ZM83.0498 25.8162C92.6284 21.1001 101.231 20.8802 107.685 24.3152L108.304 24.659L123.684 33.5955C117.759 32.2421 110.755 33.2741 103.266 36.9617V36.9627C102.48 37.3497 101.703 37.7561 100.929 38.1863L100.154 38.6248L99.1015 39.2479C88.2582 45.8255 78.5041 56.6426 71.4023 68.9442C64.0717 81.6419 59.5411 95.9653 59.5781 108.911L59.5888 109.813C59.595 110.111 59.6033 110.406 59.6132 110.697V110.699C59.9283 119.283 62.5398 126.218 66.9003 130.928L51.7685 122.136L51.7646 122.134L51.1162 121.748C44.4958 117.634 40.3163 109.607 39.9199 98.6766C39.9004 98.1019 39.8906 97.516 39.8857 96.9188C39.8498 84.1807 44.3143 70.0197 51.5839 57.4276C58.854 44.8346 68.904 33.8545 79.9921 27.4539C80.0087 27.4444 80.0249 27.434 80.04 27.4227C81.0332 26.8484 82.0361 26.3148 83.0498 25.8152V25.8162Z" fill="#155C6D"/>
</svg>
