<svg width="172" height="172" viewBox="0 0 172 172" fill="none" xmlns="http://www.w3.org/2000/svg">
<g clip-path="url(#clip0_9503_13275)">
<path d="M24.4094 122.949C22.3372 124.186 22.3083 127.181 24.3545 128.458L80.6747 163.625C81.8827 164.352 83.2526 164.717 84.6485 164.717C86.0443 164.717 87.4142 164.352 88.6222 163.625L146.656 129.081C148.731 127.847 148.763 124.846 146.711 123.569L88.654 87.386C80.903 91.0936 80.1401 90.8763 79.3626 90.8763C78.5852 90.8763 77.8194 91.0936 77.1489 91.4962L24.4094 122.949Z" fill="#07303A"/>
<path fill-rule="evenodd" clip-rule="evenodd" d="M52.9884 37.8627L54.7286 39.0396L95.084 14.9031L84.5852 99.4054L81.2022 101.04L76.1764 100.515L68.154 94.6092L36.6698 110.519L33.7767 124.271L27.75 127.847L25.0697 126.246L52.9884 37.8627Z" fill="#07303A"/>
<path d="M27.7504 128.378L34.1787 124.563L37.0718 110.83L68.1088 95.1428L76.0065 100.957L81.2817 101.509L85.0085 99.7103L85.0389 99.4633L95.6533 14.0311L54.7412 38.4969L53.0071 37.32L52.6055 37.5547L24.5226 126.451L27.7504 128.375V128.378ZM33.3725 123.978L27.7504 127.314L25.6117 126.039L53.2383 38.5853L54.7108 39.5824L94.5186 15.7751L84.1658 99.1005L81.1236 100.567L76.3472 100.07L68.2001 94.0725L36.2717 110.208L33.3725 123.978Z" fill="#07303A"/>
<path fill-rule="evenodd" clip-rule="evenodd" d="M54.741 39.0335L95.0903 14.6958L87.1379 98.1065L81.2025 101.04L75.1697 90.3466L43.5912 109.391L37.0565 122.28L27.7502 127.847L54.741 39.0335Z" fill="#2B545E"/>
<path d="M26.9685 128.844L37.4064 122.606L43.9381 109.717L75.0025 90.9808L81.02 101.64L87.57 98.4053L87.5943 98.1522L95.6289 13.8359L54.3548 38.7317L54.303 38.8994L26.9685 128.844ZM36.7097 121.956L28.5322 126.847L55.1275 39.3354L94.5489 15.5556L86.709 97.8107L81.3882 100.439L75.3371 89.7123L43.2445 109.068L36.7128 121.956H36.7097Z" fill="#07303A"/>
<path fill-rule="evenodd" clip-rule="evenodd" d="M54.729 39.0397L56.9772 40.3874L94.8806 16.9033L133.596 122.941L130.213 124.905L125.184 124.274L117.165 117.175L85.6808 136.296L82.0606 154.069L76.3563 157.408L73.1042 154.728L54.729 39.0397Z" fill="#07303A"/>
<path d="M76.3134 157.963L82.4648 154.362L82.5044 154.161L86.0882 136.586L117.113 117.743L124.989 124.71L130.307 125.377L134.159 123.146L134.025 122.783L95.1145 16.2203L56.9739 39.8507L54.1202 38.1463L54.2724 39.1098L72.6779 154.972L76.3104 157.96L76.3134 157.963ZM81.6526 153.777L76.4017 156.85L73.5298 154.487L55.3311 39.933L56.983 40.9209L57.2203 40.7746L94.643 17.5863L133.033 122.737L130.116 124.432L125.379 123.838L117.21 116.611L116.921 116.785L85.2698 136.01L85.2303 136.205L81.6465 153.777H81.6526Z" fill="#07303A"/>
<path fill-rule="evenodd" clip-rule="evenodd" d="M56.9863 40.3995L97.4329 15.3452L136.146 121.38L130.213 124.905L119.714 115.617L88.2301 134.738L84.6099 152.508L76.3563 157.408L56.9863 40.3995Z" fill="#94B2C9"/>
<path d="M76.0153 158.14L85.0173 152.801L85.0569 152.603L88.6376 135.028L119.665 116.184L130.158 125.469L136.705 121.581L136.574 121.225L97.8069 15.0373L97.4358 14.8055L56.4871 40.1739L56.5358 40.4758L76.0153 158.14ZM84.205 152.219L76.6998 156.67L57.488 40.6252L97.1954 16.0282L135.589 121.182L130.265 124.344L119.766 115.053L119.477 115.227L87.8223 134.452L87.7797 134.647L84.205 152.219Z" fill="#07303A"/>
<path d="M97.4326 15.3452L56.9768 40.3874L52.9884 37.8627L94.1622 13.2902L97.4326 15.3452Z" fill="#94B2C9"/>
<path d="M56.9742 40.924L57.2176 40.7746L97.9624 15.5556L97.8073 15.0373L94.1687 12.7535L93.9284 12.8968L52.6086 37.5578L52.4504 38.0609L56.9742 40.924ZM96.5691 15.3422L56.9803 39.8477L53.862 37.8749L94.1566 13.8268L96.5691 15.3422Z" fill="#07303A"/>
<path d="M56.986 40.3965L52.9976 37.8749L52.2644 40.1892L57.4697 43.287L56.986 40.3965Z" fill="#07303A"/>
<path d="M58.0844 44.1865L57.4029 40.1221L53.0008 37.3352L52.6205 37.5608L51.7261 40.3965L58.0874 44.1865H58.0844ZM56.5724 40.6739L56.8614 42.3875L52.8122 39.9757L53.2563 38.5731L56.5754 40.6709L56.5724 40.6739Z" fill="#07303A"/>
<path fill-rule="evenodd" clip-rule="evenodd" d="M110.718 79.4491L80.4116 97.7284C79.073 98.5364 77.4211 97.3442 77.7618 95.8166L85.8238 59.4197C86.1097 58.1269 87.6552 57.5872 88.6804 58.4227L110.925 76.5403C111.881 77.3178 111.774 78.8119 110.718 79.4491Z" fill="#F35F5F"/>
<path d="M79.4926 98.448C79.8881 98.448 80.2866 98.3382 80.6487 98.1217L110.952 79.8425C111.576 79.4644 111.981 78.8058 112.029 78.0801C112.081 77.3422 111.78 76.6531 111.208 76.1866L88.9631 58.069C88.3547 57.572 87.5485 57.4348 86.8183 57.6909C86.0821 57.947 85.5436 58.5568 85.3733 59.3222L77.3113 95.716C77.1166 96.6063 77.4513 97.4875 78.1875 98.0181C78.5799 98.3016 79.0363 98.448 79.4926 98.448ZM110.481 79.0589L80.1771 97.3381C79.6265 97.6674 79.0637 97.5241 78.7199 97.2771C78.3792 97.0302 78.0628 96.5454 78.2027 95.9172L86.2647 59.5204C86.362 59.0691 86.6845 58.7093 87.1165 58.5568C87.5576 58.4044 88.0231 58.4867 88.3851 58.7794L110.63 76.894C110.968 77.1684 111.144 77.577 111.114 78.013C111.083 78.4491 110.852 78.8302 110.478 79.0558L110.481 79.0589Z" fill="#07303A"/>
<path fill-rule="evenodd" clip-rule="evenodd" d="M88.3694 63.3757C87.6252 63.6323 87.23 64.4436 87.4866 65.1878L91.7625 77.588C92.0191 78.3321 92.8304 78.7274 93.5746 78.4708C94.3188 78.2142 94.714 77.4029 94.4574 76.6587L90.1815 64.2585C89.9249 63.5143 89.1136 63.1191 88.3694 63.3757Z" fill="#07303A"/>
<ellipse cx="1.90041" cy="2.37551" rx="1.90041" ry="2.37551" transform="matrix(-1 0 0 1 96.4355 79.4988)" fill="#07303A"/>
</g>
<defs>
<clipPath id="clip0_9503_13275">
<rect width="132" height="154" fill="white" transform="matrix(-1 0 0 1 151.694 12.7535)"/>
</clipPath>
</defs>
</svg>
