<svg width="412" height="300" viewBox="0 0 412 300" fill="none" xmlns="http://www.w3.org/2000/svg">
<path d="M293.392 40.1841L106.173 149.363L293.392 40.1841Z" fill="#C8DAE8"/>
<path d="M293.392 40.1841L293.481 40.3366L106.262 149.516L106.084 149.211L293.304 40.0317L293.392 40.1841Z" fill="#C8DAE8"/>
<path d="M293.392 67.8867L106.173 177.066L293.392 67.8867Z" fill="#C8DAE8"/>
<path d="M293.392 67.8867L293.481 68.0391L106.262 177.218L106.084 176.913L293.304 67.7342L293.392 67.8867Z" fill="#C8DAE8"/>
<path d="M293.392 95.5892L106.173 204.765L293.392 95.5892Z" fill="#C8DAE8"/>
<path d="M293.392 95.5892L293.481 95.7417L106.262 204.917L106.173 204.765L106.084 204.613L293.304 95.4368L293.392 95.5892Z" fill="#C8DAE8"/>
<path d="M293.392 123.29L106.173 232.469L293.392 123.29Z" fill="#C8DAE8"/>
<path d="M293.392 123.29L293.481 123.442L106.262 232.621L106.084 232.316L293.304 123.137L293.392 123.29Z" fill="#C8DAE8"/>
<path d="M256.081 85.681L255.994 85.7318L220.539 106.563V85.3223L220.626 85.2715L255.816 64.597L256.081 64.4406V85.681ZM220.891 85.5237V105.947L255.729 85.4797V65.0553L220.891 85.5237Z" fill="#C8DAE8"/>
<path d="M293.481 43.0018L258.378 63.6255V84.0489L293.303 63.5307L293.481 63.8337L258.027 84.6646V63.4242L258.114 63.3733L293.303 42.6988L293.481 43.0018Z" fill="#C8DAE8"/>
<path d="M217.943 108.232L217.856 108.283L182.401 129.114V107.873L182.488 107.823L217.678 87.148L217.943 86.9916V108.232ZM182.753 108.075V128.498L217.591 108.031V87.6064L182.753 108.075Z" fill="#C8DAE8"/>
<path d="M179.659 130.349L179.572 130.4L144.117 151.231V129.994L144.204 129.944L179.394 109.265L179.659 109.109V130.349ZM144.469 130.195V150.615L179.307 130.148V109.723L144.469 130.195Z" fill="#C8DAE8"/>
<path d="M141.539 152.368L141.452 152.418L106.262 173.093L106.084 172.79L141.187 152.165V131.745L106.262 152.265L106.173 152.112L106.084 151.961L141.274 131.286L141.539 131.13V152.368Z" fill="#C8DAE8"/>
<path d="M175.89 121.351C175.944 121.319 176.012 121.318 176.067 121.35C176.121 121.381 176.155 121.439 176.155 121.502V123.622C176.155 123.684 176.122 123.742 176.068 123.773L163.686 131.049C163.631 131.08 163.564 131.081 163.51 131.05C163.455 131.018 163.421 130.959 163.421 130.896V128.777C163.421 128.715 163.454 128.658 163.508 128.626L175.89 121.351ZM163.773 128.877V130.588L175.803 123.52V121.809L163.773 128.877Z" fill="#C8DAE8"/>
<path d="M156.92 132.444C156.403 132.082 155.549 132.297 155.027 133.046C154.505 133.795 154.597 134.674 155.114 135.036C155.631 135.398 156.485 135.183 157.007 134.434C157.529 133.684 157.437 132.806 156.92 132.444ZM157.121 132.155C157.857 132.671 157.882 133.794 157.295 134.636C156.709 135.477 155.649 135.84 154.913 135.324C154.177 134.809 154.153 133.685 154.739 132.844C155.325 132.003 156.385 131.64 157.121 132.155Z" fill="#C8DAE8"/>
<path d="M151.854 135.372C151.338 135.01 150.484 135.225 149.961 135.974C149.439 136.724 149.532 137.602 150.048 137.964C150.565 138.326 151.419 138.111 151.941 137.362C152.464 136.612 152.371 135.734 151.854 135.372ZM152.056 135.084C152.791 135.599 152.816 136.722 152.23 137.564C151.643 138.405 150.583 138.768 149.847 138.252C149.111 137.737 149.087 136.614 149.673 135.772C150.259 134.931 151.32 134.568 152.056 135.084Z" fill="#C8DAE8"/>
<path d="M136.028 145.021C136.082 144.989 136.15 144.988 136.205 145.02C136.259 145.051 136.294 145.109 136.294 145.172V147.292C136.293 147.354 136.26 147.412 136.207 147.444L123.824 154.719C123.769 154.751 123.702 154.751 123.648 154.72C123.593 154.688 123.559 154.629 123.559 154.566V152.447C123.559 152.385 123.592 152.328 123.646 152.296L136.028 145.021ZM123.911 152.547V154.258L135.941 147.19V145.479L123.911 152.547Z" fill="#C8DAE8"/>
<path d="M117.059 156.113C116.542 155.751 115.688 155.966 115.166 156.715C114.643 157.465 114.736 158.343 115.253 158.705C115.769 159.067 116.623 158.852 117.146 158.103C117.668 157.353 117.575 156.475 117.059 156.113ZM117.26 155.825C117.996 156.34 118.02 157.463 117.434 158.305C116.847 159.146 115.787 159.509 115.051 158.993C114.316 158.478 114.291 157.355 114.877 156.513C115.464 155.672 116.524 155.309 117.26 155.825Z" fill="#C8DAE8"/>
<path d="M111.993 159.046C111.476 158.684 110.622 158.899 110.1 159.648C109.578 160.397 109.67 161.276 110.187 161.638C110.704 162 111.558 161.785 112.08 161.036C112.602 160.286 112.51 159.408 111.993 159.046ZM112.194 158.758C112.93 159.273 112.954 160.396 112.368 161.238C111.782 162.079 110.722 162.442 109.986 161.926C109.25 161.411 109.225 160.288 109.812 159.446C110.398 158.605 111.458 158.242 112.194 158.758Z" fill="#C8DAE8"/>
<path d="M213.353 99.4945C213.407 99.4625 213.475 99.4622 213.53 99.4935C213.585 99.5249 213.619 99.5829 213.619 99.646V101.766C213.619 101.828 213.586 101.886 213.532 101.917L201.149 109.193C201.095 109.224 201.028 109.225 200.973 109.194C200.918 109.162 200.884 109.103 200.884 109.04V106.921C200.884 106.859 200.917 106.801 200.971 106.77L213.353 99.4945ZM201.236 107.021V108.732L213.266 101.664V99.9529L201.236 107.021Z" fill="#C8DAE8"/>
<path d="M194.386 110.587C193.87 110.225 193.016 110.44 192.493 111.189C191.971 111.938 192.064 112.816 192.58 113.178C193.097 113.541 193.951 113.326 194.473 112.577C194.996 111.827 194.903 110.949 194.386 110.587ZM194.588 110.298C195.323 110.814 195.348 111.937 194.762 112.778C194.175 113.62 193.115 113.983 192.379 113.467C191.643 112.951 191.619 111.828 192.205 110.987C192.792 110.146 193.852 109.783 194.588 110.298Z" fill="#C8DAE8"/>
<path d="M189.321 113.519C188.804 113.157 187.95 113.372 187.428 114.121C186.905 114.87 186.998 115.748 187.515 116.111C188.031 116.473 188.886 116.258 189.408 115.509C189.93 114.759 189.837 113.881 189.321 113.519ZM189.522 113.23C190.258 113.746 190.282 114.869 189.696 115.71C189.11 116.552 188.049 116.915 187.314 116.399C186.578 115.883 186.553 114.76 187.14 113.919C187.726 113.078 188.786 112.715 189.522 113.23Z" fill="#C8DAE8"/>
<path d="M251.164 77.5514C251.219 77.5194 251.286 77.519 251.341 77.5504C251.396 77.5818 251.43 77.6398 251.43 77.7028V79.8227C251.43 79.8849 251.397 79.9426 251.343 79.9742L238.96 87.2495C238.906 87.2812 238.839 87.2815 238.784 87.2504C238.729 87.2191 238.695 87.1601 238.695 87.097V84.9781C238.695 84.9157 238.728 84.8583 238.782 84.8266L251.164 77.5514ZM239.047 85.0778V86.7891L251.077 79.721V78.0097L239.047 85.0778Z" fill="#C8DAE8"/>
<path d="M232.198 88.6429C231.682 88.2808 230.827 88.4954 230.305 89.2448C229.783 89.9942 229.876 90.8723 230.392 91.2344C230.909 91.5964 231.763 91.3818 232.285 90.6324C232.808 89.8831 232.715 89.005 232.198 88.6429ZM232.399 88.3542C233.135 88.8699 233.16 89.993 232.573 90.8344C231.987 91.6757 230.927 92.0387 230.191 91.523C229.455 91.0073 229.431 89.8842 230.017 89.0429C230.603 88.2016 231.664 87.8385 232.399 88.3542Z" fill="#C8DAE8"/>
<path d="M227.131 91.5778C226.614 91.2157 225.76 91.4304 225.237 92.1797C224.715 92.9291 224.808 93.8072 225.325 94.1693C225.841 94.5314 226.695 94.3167 227.218 93.5674C227.74 92.818 227.647 91.9399 227.131 91.5778ZM227.332 91.2891C228.068 91.8049 228.092 92.928 227.506 93.7693C226.919 94.6106 225.859 94.9736 225.123 94.458C224.387 93.9423 224.363 92.8192 224.949 91.9778C225.536 91.1365 226.596 90.7734 227.332 91.2891Z" fill="#C8DAE8"/>
<path d="M289.417 56.1927C289.471 56.1607 289.539 56.1603 289.594 56.1917C289.648 56.2231 289.682 56.2812 289.682 56.3442V58.464C289.682 58.5263 289.649 58.5839 289.595 58.6155L277.209 65.8908C277.155 65.9225 277.088 65.9228 277.033 65.8917C276.978 65.8604 276.944 65.8014 276.944 65.7383V63.6194C276.944 63.557 276.977 63.4996 277.031 63.468L289.417 56.1927ZM277.296 63.7191V65.4304L289.33 58.3624V56.651L277.296 63.7191Z" fill="#C8DAE8"/>
<path d="M270.449 67.2851C269.932 66.923 269.078 67.1377 268.556 67.8871C268.034 68.6365 268.126 69.5146 268.643 69.8767C269.16 70.2387 270.014 70.0241 270.536 69.2747C271.058 68.5254 270.966 67.6473 270.449 67.2851ZM270.65 66.9965C271.386 67.5122 271.411 68.6353 270.824 69.4766C270.238 70.3179 269.178 70.681 268.442 70.1653C267.706 69.6496 267.682 68.5265 268.268 67.6852C268.854 66.8439 269.914 66.4808 270.65 66.9965Z" fill="#C8DAE8"/>
<path d="M265.381 70.2162C264.865 69.8541 264.011 70.0688 263.488 70.8181C262.966 71.5675 263.059 72.4456 263.575 72.8077C264.092 73.1697 264.946 72.9551 265.468 72.2058C265.991 71.4564 265.898 70.5783 265.381 70.2162ZM265.583 69.9275C266.318 70.4433 266.343 71.5664 265.757 72.4077C265.17 73.249 264.11 73.612 263.374 73.0964C262.638 72.5806 262.614 71.4575 263.2 70.6162C263.786 69.7749 264.847 69.4118 265.583 69.9275Z" fill="#C8DAE8"/>
<path d="M256.081 113.828L255.994 113.879L220.804 134.554L220.539 134.71V113.473L220.626 113.422L255.816 92.7472L256.081 92.5908V113.828ZM220.891 113.674V134.094L255.729 113.626V93.2055L220.891 113.674Z" fill="#C8DAE8"/>
<path d="M293.481 71.1471L258.378 91.7708V112.194L293.303 91.676L293.481 91.979L258.027 112.81V91.5695L258.114 91.5186L293.303 70.8441L293.481 71.1471Z" fill="#C8DAE8"/>
<path d="M217.943 136.377L217.856 136.428L182.401 157.259V136.019L182.488 135.968L217.678 115.293L217.943 115.137V136.377ZM182.753 136.22V156.643L217.591 136.176V115.752L182.753 136.22Z" fill="#C8DAE8"/>
<path d="M179.659 158.496L179.572 158.547L144.382 179.222L144.117 179.378V158.141L144.204 158.09L179.394 137.415L179.659 137.259V158.496ZM144.469 158.342V178.762L179.307 158.294V137.874L144.469 158.342Z" fill="#C8DAE8"/>
<path d="M141.539 180.513L141.452 180.564L106.262 201.238L106.084 200.935L141.187 180.311V159.89L106.262 180.41L106.173 180.258L106.084 180.106L141.274 159.432L141.539 159.275V180.513Z" fill="#C8DAE8"/>
<path d="M175.89 149.497C175.944 149.465 176.012 149.465 176.067 149.496C176.121 149.527 176.156 149.585 176.156 149.648V151.768C176.155 151.83 176.122 151.888 176.069 151.92L163.686 159.195C163.631 159.227 163.564 159.227 163.51 159.196C163.455 159.165 163.421 159.106 163.421 159.043V156.924C163.421 156.861 163.454 156.804 163.508 156.772L175.89 149.497ZM163.773 157.023V158.735L175.803 151.667V149.955L163.773 157.023Z" fill="#C8DAE8"/>
<path d="M156.921 160.59C156.404 160.228 155.55 160.443 155.027 161.192C154.505 161.942 154.598 162.82 155.114 163.182C155.631 163.544 156.485 163.329 157.008 162.58C157.53 161.831 157.437 160.952 156.921 160.59ZM157.122 160.302C157.858 160.817 157.882 161.941 157.296 162.782C156.709 163.623 155.649 163.986 154.913 163.471C154.177 162.955 154.153 161.832 154.739 160.99C155.326 160.149 156.386 159.786 157.122 160.302Z" fill="#C8DAE8"/>
<path d="M151.855 163.518C151.338 163.156 150.484 163.371 149.962 164.12C149.44 164.87 149.532 165.748 150.049 166.11C150.566 166.472 151.42 166.257 151.942 165.508C152.464 164.759 152.371 163.881 151.855 163.518ZM152.056 163.23C152.792 163.746 152.816 164.869 152.23 165.71C151.644 166.551 150.584 166.914 149.848 166.399C149.112 165.883 149.087 164.76 149.674 163.918C150.26 163.077 151.32 162.714 152.056 163.23Z" fill="#C8DAE8"/>
<path d="M136.028 173.171C136.082 173.139 136.15 173.139 136.205 173.17C136.259 173.201 136.294 173.259 136.294 173.322V175.438C136.294 175.501 136.26 175.558 136.207 175.59L123.824 182.865C123.769 182.897 123.703 182.897 123.648 182.866C123.593 182.835 123.559 182.777 123.559 182.714V180.598C123.559 180.535 123.592 180.478 123.646 180.446L136.028 173.171ZM123.911 180.697V182.406L135.941 175.338V173.629L123.911 180.697Z" fill="#C8DAE8"/>
<path d="M117.059 184.259C116.542 183.897 115.688 184.112 115.166 184.861C114.644 185.611 114.736 186.489 115.253 186.851C115.77 187.213 116.624 186.998 117.146 186.249C117.668 185.5 117.576 184.622 117.059 184.259ZM117.26 183.971C117.996 184.487 118.02 185.61 117.434 186.451C116.848 187.292 115.788 187.655 115.052 187.14C114.316 186.624 114.292 185.501 114.878 184.66C115.464 183.818 116.524 183.455 117.26 183.971Z" fill="#C8DAE8"/>
<path d="M111.993 187.191C111.477 186.829 110.622 187.044 110.1 187.793C109.578 188.543 109.671 189.421 110.187 189.783C110.704 190.145 111.558 189.93 112.08 189.181C112.603 188.432 112.51 187.554 111.993 187.191ZM112.194 186.903C112.93 187.419 112.955 188.542 112.368 189.383C111.782 190.224 110.722 190.587 109.986 190.072C109.25 189.556 109.226 188.433 109.812 187.592C110.398 186.75 111.459 186.387 112.194 186.903Z" fill="#C8DAE8"/>
<path d="M213.353 127.64C213.407 127.608 213.475 127.607 213.53 127.639C213.585 127.67 213.619 127.728 213.619 127.791V129.911C213.619 129.973 213.585 130.031 213.532 130.063L201.149 137.338C201.095 137.37 201.028 137.37 200.973 137.339C200.918 137.308 200.884 137.249 200.884 137.185V135.067C200.884 135.004 200.917 134.947 200.971 134.915L213.353 127.64ZM201.236 135.166V136.878L213.266 129.809V128.098L201.236 135.166Z" fill="#C8DAE8"/>
<path d="M194.387 138.732C193.87 138.37 193.016 138.585 192.494 139.334C191.972 140.084 192.064 140.962 192.581 141.324C193.098 141.686 193.952 141.471 194.474 140.722C194.996 139.973 194.903 139.094 194.387 138.732ZM194.588 138.444C195.324 138.959 195.348 140.082 194.762 140.924C194.176 141.765 193.116 142.128 192.38 141.612C191.644 141.097 191.619 139.974 192.206 139.132C192.792 138.291 193.852 137.928 194.588 138.444Z" fill="#C8DAE8"/>
<path d="M189.321 141.663C188.804 141.301 187.95 141.516 187.428 142.265C186.906 143.015 186.998 143.893 187.515 144.255C188.032 144.617 188.886 144.402 189.408 143.653C189.93 142.904 189.838 142.025 189.321 141.663ZM189.522 141.375C190.258 141.89 190.283 143.013 189.696 143.855C189.11 144.696 188.05 145.059 187.314 144.543C186.578 144.028 186.554 142.905 187.14 142.063C187.726 141.222 188.786 140.859 189.522 141.375Z" fill="#C8DAE8"/>
<path d="M251.164 105.7C251.219 105.668 251.286 105.667 251.341 105.699C251.396 105.73 251.43 105.788 251.43 105.851V107.967C251.43 108.029 251.397 108.087 251.343 108.118L238.96 115.394C238.906 115.426 238.839 115.426 238.784 115.395C238.729 115.363 238.695 115.305 238.695 115.242V113.126C238.695 113.064 238.728 113.006 238.782 112.975L251.164 105.7ZM239.047 113.226V114.934L251.077 107.866V106.158L239.047 113.226Z" fill="#C8DAE8"/>
<path d="M232.199 116.787C231.682 116.425 230.828 116.64 230.306 117.389C229.783 118.138 229.876 119.017 230.393 119.379C230.909 119.741 231.764 119.526 232.286 118.777C232.808 118.027 232.715 117.149 232.199 116.787ZM232.4 116.499C233.136 117.014 233.16 118.137 232.574 118.979C231.988 119.82 230.927 120.183 230.191 119.667C229.456 119.152 229.431 118.029 230.017 117.187C230.604 116.346 231.664 115.983 232.4 116.499Z" fill="#C8DAE8"/>
<path d="M227.131 119.721C226.614 119.359 225.76 119.574 225.238 120.323C224.716 121.072 224.808 121.951 225.325 122.313C225.842 122.675 226.696 122.46 227.218 121.711C227.74 120.961 227.648 120.083 227.131 119.721ZM227.332 119.432C228.068 119.948 228.092 121.071 227.506 121.913C226.92 122.754 225.86 123.117 225.124 122.601C224.388 122.086 224.363 120.963 224.95 120.121C225.536 119.28 226.596 118.917 227.332 119.432Z" fill="#C8DAE8"/>
<path d="M289.417 84.339C289.471 84.307 289.539 84.3066 289.594 84.338C289.648 84.3694 289.682 84.4275 289.682 84.4904V86.6103C289.682 86.6726 289.649 86.7302 289.595 86.7618L277.209 94.037C277.155 94.0688 277.088 94.0691 277.033 94.038C276.978 94.0067 276.944 93.9477 276.944 93.8846V91.7657C276.944 91.7033 276.977 91.6459 277.031 91.6142L289.417 84.339ZM277.296 91.8654V93.5767L289.33 86.5086V84.7973L277.296 91.8654Z" fill="#C8DAE8"/>
<path d="M270.449 95.4314C269.933 95.0693 269.079 95.284 268.556 96.0334C268.034 96.7827 268.127 97.6609 268.643 98.023C269.16 98.385 270.014 98.1703 270.537 97.421C271.059 96.6717 270.966 95.7936 270.449 95.4314ZM270.651 95.1428C271.387 95.6585 271.411 96.7816 270.825 97.6229C270.238 98.4642 269.178 98.8273 268.442 98.3116C267.706 97.7959 267.682 96.6728 268.268 95.8315C268.855 94.9901 269.915 94.627 270.651 95.1428Z" fill="#C8DAE8"/>
<path d="M265.382 98.3625C264.865 98.0004 264.011 98.215 263.489 98.9644C262.966 99.7138 263.059 100.592 263.576 100.954C264.092 101.316 264.947 101.101 265.469 100.352C265.991 99.6027 265.898 98.7246 265.382 98.3625ZM265.583 98.0738C266.319 98.5895 266.343 99.7126 265.757 100.554C265.171 101.395 264.111 101.758 263.375 101.243C262.639 100.727 262.614 99.6038 263.201 98.7625C263.787 97.9212 264.847 97.5581 265.583 98.0738Z" fill="#C8DAE8"/>
<path d="M256.081 141.513L255.994 141.564L220.539 162.395V141.155L220.626 141.104L255.816 120.429L256.081 120.273V141.513ZM220.891 141.356V161.779L255.729 141.312V120.888L220.891 141.356Z" fill="#C8DAE8"/>
<path d="M293.481 98.834L258.378 119.458V139.878L293.303 119.359L293.392 119.511L293.481 119.663L258.291 140.338L258.027 140.494V119.256L258.114 119.206L293.303 98.531L293.481 98.834Z" fill="#C8DAE8"/>
<path d="M217.943 164.061L217.856 164.112L182.666 184.787L182.401 184.943V163.706L182.488 163.655L217.678 142.98L217.943 142.824V164.061ZM182.753 163.907V184.327L217.591 163.859V143.439L182.753 163.907Z" fill="#C8DAE8"/>
<path d="M179.659 186.181L179.572 186.232L144.117 207.063V185.823L144.204 185.772L179.394 165.097L179.659 164.941V186.181ZM144.469 186.024V206.447L179.307 185.98V165.556L144.469 186.024Z" fill="#C8DAE8"/>
<path d="M141.539 208.199L141.452 208.25L106.262 228.925L106.173 228.773L106.084 228.621L141.187 207.997V187.573L106.262 208.093L106.173 207.941L106.084 207.789L141.274 187.115L141.539 186.958V208.199Z" fill="#C8DAE8"/>
<path d="M175.89 177.184C175.944 177.152 176.012 177.152 176.067 177.183C176.121 177.214 176.155 177.272 176.155 177.335V179.455C176.155 179.517 176.122 179.575 176.068 179.607L163.686 186.882C163.631 186.914 163.564 186.914 163.51 186.883C163.455 186.852 163.421 186.793 163.421 186.729V184.611C163.421 184.548 163.454 184.491 163.508 184.459L175.89 177.184ZM163.773 184.71V186.422L175.803 179.354V177.642L163.773 184.71Z" fill="#C8DAE8"/>
<path d="M156.92 188.275C156.403 187.913 155.549 188.128 155.027 188.877C154.505 189.627 154.597 190.505 155.114 190.867C155.631 191.229 156.485 191.014 157.007 190.265C157.529 189.516 157.437 188.637 156.92 188.275ZM157.121 187.987C157.857 188.502 157.882 189.626 157.295 190.467C156.709 191.308 155.649 191.671 154.913 191.156C154.177 190.64 154.153 189.517 154.739 188.675C155.325 187.834 156.385 187.471 157.121 187.987Z" fill="#C8DAE8"/>
<path d="M151.854 191.206C151.338 190.844 150.484 191.059 149.961 191.808C149.439 192.558 149.532 193.436 150.048 193.798C150.565 194.16 151.419 193.945 151.942 193.196C152.464 192.447 152.371 191.569 151.854 191.206ZM152.056 190.918C152.791 191.433 152.816 192.557 152.23 193.398C151.643 194.239 150.583 194.602 149.847 194.087C149.111 193.571 149.087 192.448 149.673 191.606C150.26 190.765 151.32 190.402 152.056 190.918Z" fill="#C8DAE8"/>
<path d="M136.028 200.854C136.082 200.822 136.15 200.822 136.205 200.853C136.259 200.884 136.294 200.942 136.294 201.005V203.125C136.293 203.187 136.26 203.245 136.207 203.277L123.824 210.552C123.769 210.584 123.702 210.584 123.648 210.553C123.593 210.522 123.559 210.463 123.559 210.4V208.281C123.559 208.218 123.592 208.161 123.646 208.129L136.028 200.854ZM123.911 208.38V210.092L135.941 203.024V201.312L123.911 208.38Z" fill="#C8DAE8"/>
<path d="M117.059 211.946C116.542 211.584 115.688 211.799 115.166 212.548C114.643 213.298 114.736 214.176 115.253 214.538C115.769 214.9 116.624 214.685 117.146 213.936C117.668 213.187 117.575 212.309 117.059 211.946ZM117.26 211.658C117.996 212.173 118.02 213.297 117.434 214.138C116.848 214.979 115.787 215.342 115.051 214.827C114.316 214.311 114.291 213.188 114.877 212.346C115.464 211.505 116.524 211.142 117.26 211.658Z" fill="#C8DAE8"/>
<path d="M111.993 214.875C111.476 214.513 110.622 214.728 110.1 215.477C109.578 216.227 109.67 217.105 110.187 217.467C110.704 217.829 111.558 217.614 112.08 216.865C112.602 216.116 112.51 215.238 111.993 214.875ZM112.194 214.587C112.93 215.103 112.954 216.226 112.368 217.067C111.782 217.908 110.722 218.271 109.986 217.756C109.25 217.24 109.225 216.117 109.812 215.276C110.398 214.434 111.458 214.071 112.194 214.587Z" fill="#C8DAE8"/>
<path d="M213.353 155.328C213.407 155.296 213.475 155.295 213.53 155.327C213.585 155.358 213.619 155.416 213.619 155.479V157.595C213.619 157.657 213.586 157.715 213.532 157.747L201.149 165.022C201.095 165.054 201.028 165.054 200.973 165.023C200.918 164.992 200.884 164.933 200.884 164.87V162.754C200.884 162.692 200.917 162.635 200.971 162.603L213.353 155.328ZM201.236 162.854V164.563L213.266 157.494V155.786L201.236 162.854Z" fill="#C8DAE8"/>
<path d="M194.387 166.421C193.87 166.059 193.016 166.274 192.494 167.023C191.971 167.772 192.064 168.651 192.581 169.013C193.097 169.375 193.951 169.16 194.474 168.411C194.996 167.661 194.903 166.783 194.387 166.421ZM194.588 166.132C195.324 166.648 195.348 167.771 194.762 168.613C194.175 169.454 193.115 169.817 192.379 169.301C191.643 168.786 191.619 167.663 192.205 166.821C192.792 165.98 193.852 165.617 194.588 166.132Z" fill="#C8DAE8"/>
<path d="M189.321 169.349C188.804 168.987 187.95 169.202 187.428 169.951C186.906 170.701 186.998 171.579 187.515 171.941C188.032 172.303 188.886 172.088 189.408 171.339C189.93 170.589 189.838 169.711 189.321 169.349ZM189.522 169.061C190.258 169.576 190.282 170.699 189.696 171.541C189.11 172.382 188.05 172.745 187.314 172.229C186.578 171.714 186.553 170.591 187.14 169.749C187.726 168.908 188.786 168.545 189.522 169.061Z" fill="#C8DAE8"/>
<path d="M251.164 133.384C251.218 133.352 251.286 133.351 251.341 133.383C251.396 133.414 251.43 133.472 251.43 133.535V135.655C251.43 135.717 251.397 135.775 251.343 135.806L238.96 143.082C238.906 143.113 238.839 143.114 238.784 143.083C238.729 143.051 238.695 142.992 238.695 142.929V140.81C238.695 140.748 238.728 140.69 238.782 140.659L251.164 133.384ZM239.047 140.91V142.621L251.077 135.553V133.842L239.047 140.91Z" fill="#C8DAE8"/>
<path d="M232.198 144.476C231.682 144.114 230.828 144.329 230.305 145.078C229.783 145.827 229.876 146.705 230.392 147.068C230.909 147.43 231.763 147.215 232.285 146.466C232.808 145.716 232.715 144.838 232.198 144.476ZM232.4 144.187C233.135 144.703 233.16 145.826 232.574 146.668C231.987 147.509 230.927 147.872 230.191 147.356C229.455 146.841 229.431 145.717 230.017 144.876C230.603 144.035 231.664 143.672 232.4 144.187Z" fill="#C8DAE8"/>
<path d="M227.131 147.407C226.614 147.045 225.76 147.26 225.238 148.009C224.715 148.758 224.808 149.637 225.325 149.999C225.841 150.361 226.695 150.146 227.218 149.397C227.74 148.647 227.647 147.769 227.131 147.407ZM227.332 147.118C228.068 147.634 228.092 148.757 227.506 149.599C226.92 150.44 225.859 150.803 225.123 150.287C224.388 149.772 224.363 148.648 224.949 147.807C225.536 146.966 226.596 146.603 227.332 147.118Z" fill="#C8DAE8"/>
<path d="M289.417 112.024C289.471 111.992 289.539 111.992 289.594 112.023C289.648 112.054 289.682 112.112 289.682 112.175V114.295C289.682 114.358 289.649 114.415 289.595 114.447L277.209 121.722C277.155 121.754 277.088 121.754 277.033 121.723C276.978 121.692 276.944 121.633 276.944 121.57V119.451C276.944 119.388 276.977 119.331 277.031 119.299L289.417 112.024ZM277.296 119.55V121.262L289.33 114.194V112.482L277.296 119.55Z" fill="#C8DAE8"/>
<path d="M270.449 123.114C269.933 122.752 269.078 122.967 268.556 123.716C268.034 124.466 268.127 125.344 268.643 125.706C269.16 126.068 270.014 125.853 270.536 125.104C271.058 124.355 270.966 123.477 270.449 123.114ZM270.65 122.826C271.386 123.342 271.411 124.465 270.824 125.306C270.238 126.147 269.178 126.51 268.442 125.995C267.706 125.479 267.682 124.356 268.268 123.514C268.854 122.673 269.914 122.31 270.65 122.826Z" fill="#C8DAE8"/>
<path d="M265.382 126.048C264.865 125.686 264.011 125.901 263.488 126.65C262.966 127.4 263.059 128.278 263.575 128.64C264.092 129.002 264.946 128.787 265.469 128.038C265.991 127.289 265.898 126.411 265.382 126.048ZM265.583 125.76C266.319 126.275 266.343 127.399 265.757 128.24C265.17 129.081 264.11 129.444 263.374 128.929C262.638 128.413 262.614 127.29 263.2 126.448C263.787 125.607 264.847 125.244 265.583 125.76Z" fill="#C8DAE8"/>
<path d="M256.081 168.584L255.994 168.635L220.804 189.31L220.539 189.466V168.229L220.626 168.178L255.816 147.503L256.081 147.347V168.584ZM220.891 168.43V188.85L255.729 168.382V147.962L220.891 168.43Z" fill="#C8DAE8"/>
<path d="M293.481 125.903L258.378 146.527V166.95L293.303 146.432L293.481 146.735L258.027 167.566V146.326L258.114 146.275L293.303 125.6L293.481 125.903Z" fill="#C8DAE8"/>
<path d="M217.943 191.134L217.856 191.184L182.401 212.015V190.775L182.488 190.724L217.678 170.049L217.943 169.893V191.134ZM182.753 190.976V211.4L217.591 190.932V170.508L182.753 190.976Z" fill="#C8DAE8"/>
<path d="M179.659 213.253L179.572 213.303L144.382 233.978L144.117 234.134V212.897L144.204 212.846L179.394 192.171L179.659 192.015V213.253ZM144.469 213.098V233.519L179.307 213.05V192.63L144.469 213.098Z" fill="#C8DAE8"/>
<path d="M141.539 235.269L141.452 235.32L106.262 255.994L106.084 255.691L141.187 235.067V214.646L106.262 235.166L106.173 235.014L106.084 234.862L141.274 214.188L141.539 214.032V235.269Z" fill="#C8DAE8"/>
<path d="M175.89 204.257C175.944 204.225 176.012 204.225 176.067 204.256C176.121 204.287 176.155 204.345 176.155 204.408V206.524C176.155 206.587 176.122 206.644 176.068 206.676L163.686 213.951C163.631 213.983 163.564 213.983 163.51 213.952C163.455 213.921 163.421 213.863 163.421 213.8V211.684C163.421 211.621 163.454 211.564 163.508 211.532L175.89 204.257ZM163.773 211.783V213.492L175.803 206.424V204.715L163.773 211.783Z" fill="#C8DAE8"/>
<path d="M156.919 215.347C156.402 214.984 155.548 215.199 155.026 215.949C154.504 216.698 154.596 217.576 155.113 217.938C155.63 218.3 156.484 218.085 157.006 217.336C157.528 216.587 157.436 215.709 156.919 215.347ZM157.12 215.058C157.856 215.574 157.88 216.697 157.294 217.538C156.708 218.379 155.648 218.742 154.912 218.227C154.176 217.711 154.151 216.588 154.738 215.747C155.324 214.905 156.384 214.542 157.12 215.058Z" fill="#C8DAE8"/>
<path d="M151.853 218.278C151.337 217.915 150.482 218.13 149.96 218.88C149.438 219.629 149.531 220.507 150.047 220.869C150.564 221.231 151.418 221.016 151.94 220.267C152.463 219.518 152.37 218.64 151.853 218.278ZM152.054 217.989C152.79 218.505 152.815 219.628 152.228 220.469C151.642 221.31 150.582 221.673 149.846 221.158C149.11 220.642 149.086 219.519 149.672 218.678C150.258 217.836 151.318 217.473 152.054 217.989Z" fill="#C8DAE8"/>
<path d="M136.028 227.926C136.082 227.894 136.15 227.894 136.205 227.925C136.259 227.957 136.294 228.015 136.294 228.078V230.194C136.294 230.256 136.26 230.313 136.207 230.345L123.824 237.62C123.769 237.652 123.703 237.652 123.648 237.621C123.593 237.59 123.559 237.532 123.559 237.469V235.353C123.559 235.29 123.592 235.233 123.646 235.201L136.028 227.926ZM123.911 235.453V237.161L135.941 230.093V228.384L123.911 235.453Z" fill="#C8DAE8"/>
<path d="M117.06 239.021C116.544 238.658 115.69 238.873 115.167 239.622C114.645 240.372 114.738 241.25 115.254 241.612C115.771 241.974 116.625 241.759 117.147 241.01C117.67 240.261 117.577 239.383 117.06 239.021ZM117.262 238.732C117.997 239.248 118.022 240.371 117.436 241.212C116.849 242.053 115.789 242.416 115.053 241.901C114.317 241.385 114.293 240.262 114.879 239.421C115.465 238.579 116.526 238.216 117.262 238.732Z" fill="#C8DAE8"/>
<path d="M111.995 241.948C111.478 241.586 110.624 241.8 110.102 242.55C109.579 243.299 109.672 244.177 110.189 244.539C110.705 244.901 111.559 244.687 112.082 243.937C112.604 243.188 112.511 242.31 111.995 241.948ZM112.196 241.659C112.932 242.175 112.956 243.298 112.37 244.139C111.784 244.98 110.723 245.344 109.987 244.828C109.252 244.312 109.227 243.189 109.813 242.348C110.4 241.506 111.46 241.143 112.196 241.659Z" fill="#C8DAE8"/>
<path d="M213.353 182.396C213.407 182.364 213.475 182.364 213.53 182.395C213.585 182.426 213.619 182.484 213.619 182.547V184.667C213.619 184.73 213.586 184.787 213.532 184.819L201.149 192.094C201.095 192.126 201.028 192.126 200.973 192.095C200.918 192.064 200.884 192.005 200.884 191.942V189.823C200.884 189.76 200.917 189.703 200.971 189.671L213.353 182.396ZM201.236 189.922V191.634L213.266 184.566V182.854L201.236 189.922Z" fill="#C8DAE8"/>
<path d="M194.385 193.487C193.869 193.125 193.015 193.34 192.492 194.089C191.97 194.839 192.063 195.717 192.579 196.079C193.096 196.441 193.95 196.226 194.472 195.477C194.995 194.728 194.902 193.85 194.385 193.487ZM194.587 193.199C195.322 193.715 195.347 194.838 194.761 195.679C194.174 196.52 193.114 196.883 192.378 196.368C191.642 195.852 191.618 194.729 192.204 193.888C192.79 193.046 193.851 192.683 194.587 193.199Z" fill="#C8DAE8"/>
<path d="M189.32 196.419C188.803 196.057 187.949 196.272 187.427 197.021C186.904 197.771 186.997 198.649 187.514 199.011C188.03 199.373 188.884 199.158 189.407 198.409C189.929 197.66 189.836 196.782 189.32 196.419ZM189.521 196.131C190.257 196.647 190.281 197.77 189.695 198.611C189.109 199.452 188.048 199.815 187.312 199.3C186.577 198.784 186.552 197.661 187.138 196.82C187.725 195.978 188.785 195.615 189.521 196.131Z" fill="#C8DAE8"/>
<path d="M251.164 160.458C251.218 160.426 251.286 160.425 251.341 160.457C251.396 160.488 251.43 160.546 251.43 160.609V162.725C251.43 162.787 251.397 162.845 251.343 162.877L238.96 170.152C238.906 170.184 238.839 170.184 238.784 170.153C238.729 170.122 238.695 170.064 238.695 170V167.885C238.695 167.822 238.728 167.765 238.782 167.733L251.164 160.458ZM239.047 167.984V169.693L251.077 162.624V160.916L239.047 167.984Z" fill="#C8DAE8"/>
<path d="M232.2 171.546C231.683 171.184 230.829 171.399 230.307 172.148C229.785 172.898 229.877 173.776 230.394 174.138C230.911 174.5 231.765 174.285 232.287 173.536C232.809 172.787 232.717 171.908 232.2 171.546ZM232.401 171.258C233.137 171.773 233.161 172.896 232.575 173.738C231.989 174.579 230.929 174.942 230.193 174.426C229.457 173.911 229.432 172.788 230.019 171.946C230.605 171.105 231.665 170.742 232.401 171.258Z" fill="#C8DAE8"/>
<path d="M227.132 174.482C226.616 174.12 225.761 174.335 225.239 175.084C224.717 175.834 224.81 176.712 225.326 177.074C225.843 177.436 226.697 177.221 227.219 176.472C227.742 175.722 227.649 174.844 227.132 174.482ZM227.333 174.194C228.069 174.709 228.094 175.832 227.507 176.674C226.921 177.515 225.861 177.878 225.125 177.362C224.389 176.847 224.365 175.724 224.951 174.882C225.537 174.041 226.597 173.678 227.333 174.194Z" fill="#C8DAE8"/>
<path d="M289.417 139.094C289.471 139.062 289.539 139.062 289.594 139.093C289.648 139.125 289.682 139.183 289.682 139.246V141.365C289.682 141.428 289.649 141.485 289.595 141.517L277.209 148.792C277.155 148.824 277.088 148.824 277.033 148.793C276.978 148.762 276.944 148.703 276.944 148.64V146.521C276.944 146.459 276.977 146.401 277.031 146.369L289.417 139.094ZM277.296 146.621V148.332L289.33 141.264V139.553L277.296 146.621Z" fill="#C8DAE8"/>
<path d="M270.448 150.186C269.931 149.824 269.077 150.038 268.555 150.788C268.033 151.537 268.125 152.415 268.642 152.777C269.159 153.139 270.013 152.925 270.535 152.175C271.057 151.426 270.965 150.548 270.448 150.186ZM270.649 149.897C271.385 150.413 271.409 151.536 270.823 152.377C270.237 153.218 269.177 153.582 268.441 153.066C267.705 152.55 267.68 151.427 268.267 150.586C268.853 149.744 269.913 149.381 270.649 149.897Z" fill="#C8DAE8"/>
<path d="M265.38 153.121C264.864 152.758 264.009 152.973 263.487 153.723C262.965 154.472 263.057 155.35 263.574 155.712C264.091 156.074 264.945 155.859 265.467 155.11C265.989 154.361 265.897 153.483 265.38 153.121ZM265.581 152.832C266.317 153.348 266.342 154.471 265.755 155.312C265.169 156.153 264.109 156.516 263.373 156.001C262.637 155.485 262.613 154.362 263.199 153.521C263.785 152.679 264.845 152.316 265.581 152.832Z" fill="#C8DAE8"/>
<path d="M253.708 175.619L305.74 206.18L215.024 259.498L162.79 228.79L253.711 175.623L253.708 175.619Z" fill="#155C6D"/>
<path d="M253.797 175.468L305.829 206.028C305.883 206.06 305.916 206.118 305.916 206.181C305.916 206.243 305.883 206.301 305.829 206.332L215.114 259.65C215.059 259.682 214.99 259.682 214.935 259.65L162.701 228.942C162.648 228.91 162.614 228.853 162.614 228.79C162.614 228.728 162.647 228.669 162.701 228.638L253.596 175.487C253.652 175.44 253.732 175.43 253.797 175.468ZM163.137 228.79L215.024 259.293L305.393 206.181L253.712 175.826L163.137 228.79Z" fill="#155C6D"/>
<path d="M187.2 187.727L300.957 170.001V205.613L228.766 247.388L187.197 223.335V187.723L187.2 187.727Z" fill="#C8DAE8"/>
<path d="M300.929 169.827C300.98 169.819 301.032 169.834 301.071 169.867C301.11 169.9 301.133 169.949 301.133 170.001V205.613C301.133 205.676 301.099 205.734 301.045 205.765L228.854 247.541C228.799 247.572 228.732 247.572 228.678 247.541L187.109 223.487C187.055 223.456 187.021 223.398 187.021 223.335V187.723C187.021 187.652 187.064 187.588 187.129 187.561C187.152 187.551 187.175 187.549 187.198 187.549L300.929 169.827ZM187.373 187.877V223.234L228.765 247.184L300.781 205.511V170.206L187.373 187.877Z" fill="#155C6D"/>
<path d="M187.2 223.339L228.769 247.392V211.804L187.2 187.727V223.339Z" fill="#155C6D"/>
<path d="M187.112 187.573C187.167 187.542 187.234 187.542 187.288 187.573L228.857 211.651C228.912 211.682 228.945 211.74 228.945 211.803V247.391C228.945 247.454 228.912 247.512 228.857 247.543C228.803 247.575 228.736 247.575 228.681 247.543L187.112 223.49C187.058 223.459 187.024 223.401 187.024 223.338V187.726L187.03 187.68C187.042 187.635 187.072 187.597 187.112 187.573ZM187.376 223.236L228.593 247.085V211.904L187.376 188.031V223.236Z" fill="#155C6D"/>
<path d="M259.555 146.045L300.957 170.004L228.766 211.804L187.197 187.726L259.555 146.045Z" fill="#70C5AD"/>
<path d="M259.51 145.875C259.554 145.863 259.602 145.869 259.643 145.893L301.045 169.851C301.099 169.882 301.133 169.941 301.133 170.004C301.133 170.066 301.099 170.125 301.045 170.156L228.854 211.956C228.799 211.987 228.732 211.987 228.678 211.956L187.109 187.879C187.055 187.848 187.021 187.789 187.021 187.727C187.021 187.664 187.055 187.605 187.109 187.574L259.467 145.893L259.51 145.875ZM187.549 187.727L228.766 211.6L300.605 170.004L259.554 146.247L187.549 187.727Z" fill="#155C6D"/>
<path d="M222.926 179.677C222.203 173.608 230.514 167.626 241.489 166.308C252.463 164.994 261.946 168.846 262.669 174.915C263.393 180.984 255.081 186.966 244.106 188.284C233.132 189.598 223.649 185.746 222.926 179.677Z" fill="#C8DAE8"/>
<path d="M242.497 166.025C247.617 165.557 252.366 166.208 255.99 167.681C259.849 169.248 262.471 171.767 262.844 174.894C263.217 178.021 261.259 181.089 257.877 183.524C254.701 185.811 250.239 187.565 245.152 188.321L244.127 188.459C238.616 189.119 233.471 188.483 229.606 186.913C225.747 185.345 223.123 182.825 222.751 179.698C222.378 176.571 224.336 173.503 227.718 171.068C231.106 168.629 235.957 166.795 241.468 166.133L242.497 166.025ZM255.857 168.006C252.294 166.558 247.603 165.912 242.529 166.376L241.51 166.483C236.046 167.139 231.255 168.956 227.924 171.354C224.587 173.757 222.75 176.714 223.101 179.656C223.451 182.598 225.931 185.039 229.738 186.586C233.538 188.13 238.622 188.763 244.085 188.109L245.102 187.973C250.142 187.224 254.549 185.487 257.672 183.239C261.009 180.836 262.845 177.878 262.494 174.936C262.144 171.995 259.664 169.553 255.857 168.006Z" fill="#155C6D"/>
</svg>
