<svg width="411" height="300" viewBox="0 0 411 300" fill="none" xmlns="http://www.w3.org/2000/svg">
<g clip-path="url(#clip0_9503_7940)">
<path d="M116.695 195.47L207.046 247.997L294.305 195.874L203.596 143.347L116.695 195.47Z" fill="#588995"/>
<path d="M177.183 174.733L249.157 216.626V153.898L177.81 112.301" fill="#588995"/>
<path d="M249.253 153.733L249.347 153.789V216.956L249.061 216.79L177.088 174.897L177.183 174.732L177.279 174.568L248.967 216.294V154.008L177.715 112.465L177.906 112.137L249.253 153.733Z" fill="#588995"/>
<path d="M206.603 86.875L286.954 132.665V192.997C286.954 194.063 285.802 194.73 284.878 194.198L206.762 149.222L206.605 86.8768L206.603 86.875Z" fill="#588995"/>
<path d="M286.764 132.775L206.795 87.2031L206.951 149.111L284.972 194.033L285.124 194.107C285.89 194.419 286.764 193.859 286.764 192.997V132.775ZM287.144 192.997C287.144 194.172 285.914 194.919 284.882 194.416L284.783 194.363L206.667 149.388L206.572 149.333L206.571 149.223L206.416 86.9561L205.468 86.0088L287.048 132.5L287.144 132.555V192.997Z" fill="#588995"/>
<path d="M207.23 149.306L152.513 181.153C144.859 185.609 135.257 180.087 135.257 171.23V128.47L207.015 86.6562" fill="#C4DAE6"/>
<path d="M207.23 149.307L207.326 149.471L152.608 181.318C144.827 185.847 135.066 180.234 135.066 171.23V128.36L135.161 128.306L206.92 86.4922L207.111 86.8203L135.447 128.578V171.23C135.447 179.94 144.89 185.37 152.417 180.989L207.134 149.142L207.23 149.307Z" fill="#588995"/>
<path d="M135.246 128.474L136.542 127.685L136.577 127.705L207.017 86.6602L208.399 87.3643L208.319 87.4093L286.96 132.677L285.539 133.52L285.524 133.513L262.698 146.798C262.094 147.149 261.7 147.774 261.641 148.471L260.922 157.086C260.859 157.837 260.439 158.511 259.793 158.898L243.74 168.529C243.74 168.529 243.14 168.92 242.448 168.69C241.66 168.425 241.492 167.845 241.492 167.845L258.206 157.899C259.033 157.407 259.573 156.544 259.652 155.585L260.344 147.302C260.402 146.605 260.796 145.982 261.401 145.629L283.867 132.553L207.051 88.1459L137.904 128.468L214.914 172.798L236.449 160.162C236.93 159.88 237.534 159.907 237.986 160.234C238.567 160.654 239.257 161.158 239.145 161.099C238.902 160.969 238.533 160.872 238.121 161.099C237.42 161.49 220 171.641 215.854 174.058L214.99 174.575L214.979 174.57L214.968 174.575L213.414 173.676L213.425 173.671L135.246 128.474Z" fill="#ECF8FF"/>
<path d="M207.104 86.4902L208.485 87.1943L208.799 87.3555L208.703 87.4092L287.054 132.512L287.336 132.675L285.546 133.736L285.53 133.729L262.794 146.962C262.244 147.282 261.885 147.852 261.831 148.487L261.112 157.103C261.044 157.914 260.589 158.642 259.89 159.061L259.891 159.062L243.843 168.688L243.842 168.689C243.842 168.69 243.84 168.691 243.839 168.691C243.838 168.693 243.835 168.695 243.833 168.696C243.827 168.7 243.818 168.705 243.807 168.711C243.786 168.723 243.757 168.739 243.719 168.758C243.644 168.795 243.537 168.841 243.407 168.879C243.179 168.945 242.871 168.989 242.534 168.911L242.388 168.87C241.956 168.725 241.686 168.49 241.525 168.286C241.445 168.185 241.392 168.092 241.359 168.022C241.342 167.988 241.331 167.959 241.323 167.938C241.319 167.927 241.315 167.918 241.313 167.911C241.312 167.908 241.312 167.905 241.311 167.903L241.31 167.9L241.309 167.898C241.309 167.898 241.309 167.897 241.492 167.845L241.309 167.898L241.268 167.757L241.395 167.682L258.109 157.735L258.251 157.645C258.944 157.173 259.393 156.411 259.462 155.569L260.154 147.286L260.17 147.146C260.272 146.444 260.688 145.825 261.305 145.465L283.488 132.554L207.051 88.3652L138.283 128.467L214.913 172.577L236.353 159.998L236.457 159.942C236.983 159.683 237.616 159.731 238.097 160.08L238.939 160.693C239.055 160.779 239.15 160.851 239.211 160.898C239.238 160.92 239.265 160.942 239.283 160.959C239.286 160.962 239.298 160.972 239.308 160.986C239.311 160.991 239.328 161.012 239.338 161.044C239.344 161.06 239.353 161.096 239.343 161.142C239.332 161.196 239.298 161.243 239.251 161.27C239.211 161.292 239.175 161.294 239.159 161.294C239.14 161.294 239.125 161.292 239.117 161.29C239.101 161.287 239.089 161.281 239.084 161.279L239.056 161.267C238.849 161.156 238.551 161.08 238.212 161.266L238.211 161.265C237.493 161.666 220.098 171.803 215.951 174.221L215.952 174.222L214.998 174.792L214.978 174.782L214.961 174.791L214.873 174.74L213.013 173.664L213.023 173.658L135.15 128.639L134.873 128.478L135.147 128.312L136.444 127.522L136.54 127.464L136.576 127.484L206.921 86.4961L207.011 86.4434L207.104 86.4902ZM136.577 127.925L136.544 127.905L135.619 128.469L213.826 173.683L213.814 173.688L214.974 174.358L214.979 174.356L214.982 174.357L215.756 173.895L215.758 173.894L228.184 166.654C233.145 163.765 237.676 161.129 238.028 160.933C238.165 160.857 238.3 160.813 238.427 160.791C238.251 160.662 238.058 160.521 237.875 160.389C237.533 160.141 237.09 160.092 236.707 160.247L236.545 160.326L214.916 173.018L214.819 172.963L137.809 128.633L137.524 128.47L206.956 87.9814L207.051 87.9258L207.147 87.9814L284.247 132.552L261.497 145.794L261.496 145.793C260.944 146.115 260.586 146.683 260.534 147.317L259.842 155.601C259.763 156.558 259.253 157.425 258.464 157.96L258.303 158.062L241.736 167.921C241.758 167.959 241.787 168.003 241.824 168.05C241.943 168.201 242.152 168.389 242.507 168.509C242.806 168.608 243.088 168.575 243.3 168.514C243.406 168.483 243.492 168.445 243.551 168.416C243.581 168.402 243.603 168.389 243.618 168.381C243.625 168.377 243.63 168.374 243.633 168.372L243.636 168.369L259.695 158.735L259.804 158.665C260.336 158.301 260.678 157.717 260.732 157.07L261.451 148.455L261.467 148.313C261.57 147.612 261.986 146.992 262.602 146.634L285.428 133.348L285.517 133.297L285.531 133.304L286.583 132.679L207.936 87.4082L207.997 87.373L207.022 86.876L136.577 127.925Z" fill="#588995"/>
<path d="M212.485 180.354L207.377 180.602L244.249 107.557L249.358 107.311L212.487 180.354H212.485Z" fill="#588995"/>
<path d="M212.616 180.556L207.03 180.828L207.192 180.507L244.118 107.356L249.704 107.084L249.542 107.405L212.616 180.556ZM207.725 180.377L212.355 180.154L249.011 107.538L244.382 107.763L207.727 180.379L207.725 180.377Z" fill="#588995"/>
<path d="M243.152 106.093C243.758 106.898 243.884 108.283 243.432 109.178L210.682 174.052L209.855 175.689L207.601 180.154C207.071 179.905 206.587 179.547 206.281 179.14L167.797 127.742C167.685 127.591 167.579 127.432 167.489 127.276C167.464 127.231 167.439 127.186 167.417 127.144C167.395 127.103 167.372 127.063 167.352 127.025C167.334 126.984 167.316 126.95 167.302 126.914C167.28 126.867 167.259 126.818 167.241 126.773C167.199 126.678 167.167 126.586 167.138 126.494C167.127 126.465 167.12 126.442 167.111 126.411C167.1 126.375 167.091 126.341 167.082 126.307C167.075 126.282 167.052 126.174 167.048 126.147C167.003 125.884 167.008 125.666 167.086 125.516C167.3 125.093 167.124 124.014 166.693 123.098L165.049 119.591C164.62 118.678 164.636 117.212 165.092 116.314L175.746 95.2123C176.197 94.3137 177.203 94.0994 177.994 94.7261L179.87 96.2244C180.663 96.853 181.668 96.6369 182.12 95.74L202.755 54.8576C203.205 53.9589 204.064 53.8905 204.669 54.6955L243.152 106.093Z" fill="#C4DAE6"/>
<path d="M207.696 180.428L207.514 180.342C206.929 180.068 206.434 179.684 206.115 179.265L167.631 127.867C167.514 127.708 167.403 127.544 167.309 127.377L167.14 127.06C167.127 127.035 167.116 127.009 167.107 126.984C167.089 126.946 167.064 126.892 167.046 126.838C167.008 126.752 166.972 126.653 166.942 126.556L166.915 126.471L166.888 126.376C166.877 126.332 166.852 126.215 166.844 126.185C166.789 125.857 166.807 125.608 166.9 125.423C167.062 125.104 166.938 124.11 166.506 123.188L164.86 119.68C164.399 118.698 164.419 117.178 164.905 116.22L175.559 95.119C175.806 94.6292 176.207 94.3032 176.692 94.197C177.178 94.0907 177.686 94.2204 178.12 94.5643L179.998 96.0627C180.333 96.3274 180.715 96.4283 181.079 96.3508C181.441 96.2734 181.743 96.0213 181.932 95.6467L202.569 54.7625C202.821 54.2618 203.198 53.9683 203.633 53.9305C204.069 53.8945 204.496 54.1214 204.835 54.5716L243.318 105.971C243.968 106.834 244.102 108.318 243.617 109.276L207.694 180.43L207.696 180.428ZM176.4 94.7624C176.207 94.8885 176.043 95.074 175.926 95.3099L165.272 116.411C164.844 117.254 164.827 118.641 165.231 119.505L166.877 123.013C167.277 123.862 167.549 125.063 167.268 125.614C167.233 125.682 167.203 125.828 167.251 126.114C167.255 126.138 167.277 126.231 167.282 126.255L167.309 126.354L167.138 126.494L167.338 126.433C167.363 126.518 167.395 126.602 167.433 126.691C167.453 126.747 167.471 126.784 167.489 126.824L167.673 127.177C167.757 127.325 167.86 127.476 167.965 127.62L206.446 179.018C206.688 179.337 207.068 179.643 207.509 179.877L243.248 109.087C243.66 108.269 243.543 106.958 242.99 106.22L204.503 54.8201C204.255 54.4906 203.958 54.3213 203.671 54.3447C203.381 54.3699 203.122 54.5842 202.94 54.9516L182.298 95.8376C182.049 96.3256 181.646 96.6534 181.163 96.7597C180.675 96.8659 180.169 96.7344 179.735 96.3905L177.857 94.8921C177.524 94.6274 177.14 94.5265 176.775 94.604C176.64 94.6346 176.513 94.6868 176.396 94.7624H176.4Z" fill="#588995"/>
<path d="M203.633 54.1396C203.351 54.1703 203.08 54.3468 202.87 54.6619C202.848 54.6943 202.828 54.7231 202.81 54.7574C202.791 54.788 202.773 54.8258 202.755 54.8582L182.114 95.7424C182.057 95.8541 181.994 95.9549 181.92 96.0486C181.889 96.0864 181.853 96.126 181.821 96.162C181.81 96.1746 181.801 96.1836 181.788 96.1926C181.315 96.6483 180.623 96.7131 180.022 96.3277C180.175 96.198 180.31 96.0306 180.414 95.8289L201.053 54.9393C201.281 54.4818 201.618 54.2387 201.975 54.2225C202.153 54.2117 203.392 54.1523 203.633 54.1396Z" fill="#ECF8FF"/>
<path d="M181.668 96.5509C181.16 96.8805 180.49 96.8751 179.908 96.5023L179.67 96.3492L179.883 96.1674C180.022 96.0485 180.137 95.9026 180.227 95.7297L200.865 54.8437C201.121 54.3323 201.508 54.0369 201.962 54.0135C202.059 54.0081 202.486 53.9865 202.888 53.9667C203.207 53.9523 203.513 53.9361 203.619 53.9307L203.655 54.3467C203.426 54.3701 203.214 54.5214 203.041 54.7789C203.021 54.8059 203.007 54.8293 202.992 54.8545C202.969 54.8905 202.958 54.9158 202.947 54.9374L182.296 95.8396C182.23 95.9711 182.158 96.0827 182.076 96.1836C182.042 96.2268 182.003 96.2718 181.965 96.3096L181.898 96.3691C181.826 96.4393 181.747 96.5023 181.666 96.5546L181.668 96.5509ZM180.364 96.2736C180.814 96.4573 181.293 96.3781 181.641 96.0413C181.698 95.9855 181.729 95.9494 181.758 95.9152C181.819 95.8414 181.877 95.7513 181.927 95.6487L202.569 54.7627C202.598 54.7105 202.616 54.6726 202.636 54.642C202.648 54.6168 202.67 54.579 202.699 54.5394C202.735 54.4853 202.773 54.4349 202.812 54.3881C202.443 54.4061 202.079 54.4241 201.987 54.4313C201.69 54.4475 201.422 54.6618 201.236 55.0328L180.596 95.9224C180.53 96.0503 180.45 96.1692 180.362 96.2754L180.364 96.2736Z" fill="#588995"/>
<path d="M175.246 94.4623C174.754 94.4839 174.3 94.7702 174.035 95.2961L163.379 116.399C163.131 116.891 163.019 117.554 163.035 118.205L164.737 118.123C164.723 117.472 164.835 116.81 165.083 116.316L175.737 95.215C175.743 95.2024 175.75 95.1934 175.757 95.1862C176.022 94.6748 176.47 94.3974 176.955 94.374C176.859 94.3794 175.518 94.4497 175.246 94.4641V94.4623Z" fill="#ECF8FF"/>
<path d="M164.952 118.321L162.834 118.422L162.83 118.208C162.812 117.482 162.942 116.807 163.196 116.304L173.854 95.1994C174.143 94.6249 174.65 94.2792 175.237 94.2522L175.997 94.2125C176.393 94.1927 176.809 94.1693 176.922 94.1639C176.931 94.1639 176.94 94.1639 176.949 94.1621L176.975 94.5781C176.975 94.5781 176.964 94.5781 176.953 94.5781C176.533 94.6069 176.168 94.8591 175.948 95.2787L165.278 116.409C165.056 116.846 164.939 117.468 164.952 118.116L164.957 118.318H164.953L164.952 118.321ZM163.244 117.986L164.532 117.923C164.541 117.275 164.671 116.677 164.901 116.221L175.59 95.0626C175.672 94.9023 175.775 94.7582 175.896 94.6357L175.258 94.6682C174.819 94.688 174.442 94.9509 174.223 95.3885L163.563 116.492C163.369 116.879 163.253 117.415 163.241 117.985L163.244 117.986Z" fill="#588995"/>
<path d="M163.343 119.677L164.989 123.185C165.418 124.098 165.595 125.183 165.382 125.6C165.306 125.75 165.299 125.973 165.346 126.231L167.05 126.15C167.048 126.139 167.034 126.029 167.028 125.989C167.028 125.961 167.024 125.93 167.023 125.901C167.014 125.748 167.037 125.617 167.086 125.519C167.3 125.096 167.124 124.017 166.693 123.101L165.049 119.594C164.854 119.182 164.759 118.658 164.745 118.123L163.043 118.206C163.057 118.739 163.154 119.265 163.349 119.677H163.343Z" fill="#588995"/>
<path d="M167.289 126.341L167.059 126.355L165.171 126.445L165.141 126.263C165.085 125.944 165.103 125.689 165.195 125.503C165.357 125.188 165.234 124.194 164.802 123.27L163.158 119.764C162.96 119.342 162.846 118.806 162.83 118.208L162.825 118.004L164.943 117.903L164.946 118.118C164.961 118.649 165.062 119.141 165.231 119.504L166.877 123.012C167.277 123.861 167.549 125.062 167.268 125.613C167.235 125.678 167.223 125.775 167.228 125.889L167.037 125.98L167.228 125.961L167.287 126.339V126.342L167.289 126.341ZM165.526 126.013L166.817 125.952C166.805 125.723 166.834 125.554 166.898 125.424C167.061 125.105 166.936 124.111 166.504 123.189L164.858 119.681C164.683 119.312 164.575 118.851 164.545 118.341L163.255 118.404C163.288 118.858 163.383 119.274 163.533 119.591L165.177 123.097C165.582 123.958 165.838 125.166 165.566 125.696C165.544 125.739 165.514 125.835 165.526 126.013Z" fill="#588995"/>
<path d="M210.833 55.6478C210.538 55.2534 210.183 55.0697 209.843 55.0859C209.542 55.1022 208.444 55.1526 208.141 55.167C207.784 55.185 207.446 55.4281 207.215 55.8873L171.982 125.687C171.53 126.584 171.655 127.965 172.26 128.774L207.768 176.197C208.062 176.588 208.413 176.773 208.75 176.759C209.054 176.746 210.156 176.692 210.457 176.676C210.814 176.658 211.152 176.417 211.386 175.957L246.621 106.158C247.073 105.261 246.949 103.88 246.344 103.071L210.833 55.6478Z" fill="#ECF8FF"/>
<path d="M211.015 176.702C210.846 176.812 210.66 176.875 210.468 176.884L208.759 176.965C208.339 176.984 207.927 176.754 207.601 176.32L172.094 128.897C171.433 128.016 171.303 126.564 171.797 125.592L207.03 55.7905C207.286 55.2827 207.689 54.9801 208.13 54.9585L208.525 54.9387C208.973 54.9171 209.612 54.8865 209.83 54.8756C210.255 54.8522 210.668 55.0828 210.999 55.5204L246.506 102.942C247.165 103.821 247.295 105.274 246.803 106.247L211.568 176.044C211.424 176.331 211.233 176.552 211.013 176.696L211.017 176.7L211.015 176.702ZM207.811 55.4898C207.655 55.5924 207.514 55.7581 207.403 55.9814L172.168 125.783C171.748 126.613 171.864 127.901 172.425 128.65L207.932 176.073C208.175 176.394 208.46 176.563 208.739 176.552L210.446 176.469C210.743 176.453 211.01 176.241 211.201 175.864L246.436 106.065C246.855 105.234 246.74 103.947 246.178 103.198L210.669 55.7743C210.426 55.4519 210.138 55.2827 209.857 55.2971C209.638 55.3079 209 55.3385 208.55 55.3601L208.154 55.3799C208.035 55.3853 207.918 55.4249 207.81 55.4952V55.4916L207.811 55.4898Z" fill="#588995"/>
<path d="M210.457 176.675C210.154 176.689 209.05 176.741 208.75 176.754C208.415 176.77 208.062 176.587 207.766 176.194L172.258 128.774C171.999 128.428 171.835 127.976 171.761 127.501L173.459 127.42C173.533 127.895 173.704 128.342 173.963 128.688L209.47 176.113C209.767 176.509 210.118 176.693 210.457 176.675Z" fill="#C4DAE6"/>
<path d="M210.47 176.882C210.47 176.882 210.457 176.882 210.45 176.882L208.761 176.961C208.339 176.983 207.927 176.752 207.601 176.315L172.094 128.897C171.828 128.542 171.64 128.068 171.556 127.532L171.52 127.305L173.634 127.202L173.663 127.389C173.735 127.849 173.895 128.254 174.125 128.565L209.632 175.991C209.872 176.309 210.153 176.48 210.428 176.471H210.444L210.47 176.887V176.882ZM172.009 127.697C172.094 128.072 172.235 128.398 172.424 128.648L207.932 176.068C208.173 176.389 208.458 176.56 208.737 176.545L209.546 176.507C209.461 176.428 209.38 176.336 209.304 176.234L173.798 128.809C173.556 128.49 173.382 128.085 173.288 127.633L172.009 127.697Z" fill="#588995"/>
<path d="M173.684 125.602L208.917 55.8027C209.369 54.9059 210.226 54.8356 210.833 55.6442L246.342 103.068C246.949 103.876 247.071 105.257 246.619 106.154L211.384 175.954C210.932 176.851 210.075 176.921 209.468 176.111L173.96 128.689C173.355 127.88 173.23 126.499 173.682 125.602H173.684Z" fill="#ECF8FF"/>
<path d="M211.017 176.702C210.86 176.805 210.688 176.864 210.504 176.88C210.068 176.916 209.643 176.688 209.304 176.237L173.798 128.816C173.139 127.937 173.007 126.484 173.501 125.511L208.734 55.7097C208.989 55.2073 209.367 54.9137 209.801 54.8777C210.237 54.8417 210.662 55.0704 211.001 55.5206L246.508 102.942C247.167 103.821 247.298 105.274 246.805 106.247L211.57 176.045C211.424 176.335 211.235 176.556 211.017 176.698V176.702ZM173.872 125.698C173.452 126.529 173.567 127.816 174.129 128.565L209.636 175.987C209.886 176.318 210.18 176.488 210.466 176.464C210.756 176.441 211.015 176.225 211.201 175.859L246.436 106.06C246.855 105.229 246.74 103.943 246.178 103.192L210.669 55.771C210.419 55.4396 210.126 55.2703 209.839 55.2937C209.553 55.3171 209.292 55.5332 209.105 55.9006L173.872 125.698Z" fill="#588995"/>
<path d="M181.893 126.086L211.586 178.762C212.081 179.641 211.673 180.394 210.67 180.443L209.191 180.513C208.188 180.561 206.886 179.946 206.279 179.137L167.795 127.743C167.404 127.22 167.133 126.622 167.046 126.149L165.344 126.232C165.431 126.704 165.703 127.305 166.093 127.825L205.65 180.653C206.255 181.462 207.559 182.078 208.561 182.029L213.187 181.806C214.19 181.757 214.601 181.004 214.104 180.126L183.595 126.005C183.485 125.812 183.398 125.592 183.335 125.356L181.633 125.443C181.698 125.677 181.783 125.893 181.893 126.086Z" fill="#588995"/>
<path d="M214.019 181.774C213.801 181.914 213.522 181.999 213.2 182.013L208.573 182.237C207.493 182.289 206.137 181.646 205.485 180.776L165.93 127.948C165.532 127.417 165.236 126.787 165.143 126.264L165.099 126.034L167.219 125.931L167.253 126.111C167.336 126.565 167.608 127.143 167.963 127.619L206.446 179.015C207.015 179.773 208.24 180.355 209.182 180.308L210.66 180.238C211.071 180.216 211.374 180.068 211.511 179.814C211.649 179.562 211.611 179.225 211.41 178.865L181.715 126.191C181.599 125.989 181.506 125.755 181.435 125.497L181.369 125.249L183.494 125.141L183.539 125.305C183.602 125.53 183.681 125.731 183.78 125.906L214.288 180.027C214.567 180.517 214.603 180.998 214.394 181.381C214.307 181.541 214.179 181.675 214.023 181.777L214.019 181.774ZM165.605 126.426C165.724 126.835 165.962 127.304 166.259 127.7L205.814 180.528C206.383 181.286 207.608 181.866 208.548 181.821L213.175 181.595C213.585 181.574 213.886 181.424 214.025 181.174C214.161 180.922 214.125 180.585 213.922 180.225L183.415 126.104C183.325 125.944 183.245 125.766 183.182 125.571L181.913 125.636C181.961 125.762 182.013 125.879 182.073 125.985L211.768 178.66C212.045 179.152 212.083 179.631 211.873 180.014C211.665 180.396 211.24 180.625 210.68 180.65L209.202 180.722C208.121 180.774 206.765 180.133 206.113 179.262L167.631 127.864C167.278 127.392 167.006 126.844 166.884 126.362L165.605 126.423V126.426Z" fill="#588995"/>
<path d="M219.456 52.2147C219.175 52.2525 218.901 52.4776 218.694 52.8882L218.685 52.908L183.514 122.785C183.161 123.486 183.108 124.518 183.337 125.357L181.633 125.441C181.405 124.604 181.461 123.57 181.81 122.87L216.992 52.9747C217.216 52.5335 217.509 52.3065 217.816 52.2921C217.945 52.2867 219.154 52.2291 219.456 52.2129V52.2147Z" fill="#ECF8FF"/>
<path d="M183.605 125.55L181.477 125.657L181.432 125.495C181.185 124.589 181.261 123.496 181.623 122.775L216.809 52.8783C217.059 52.3813 217.41 52.1021 217.805 52.0841C217.936 52.0787 219.143 52.0211 219.442 52.0049L219.483 52.4191C219.263 52.4515 219.046 52.6478 218.88 52.981L183.701 122.878C183.382 123.51 183.317 124.484 183.539 125.3L183.605 125.55ZM181.794 125.223L183.078 125.158C182.901 124.297 182.993 123.351 183.328 122.687L218.5 52.8099C218.566 52.6766 218.642 52.5578 218.72 52.4587C218.316 52.4785 217.898 52.4983 217.826 52.5001C217.589 52.5145 217.358 52.7144 217.178 53.071L181.995 122.966C181.698 123.56 181.621 124.448 181.792 125.226L181.794 125.223Z" fill="#588995"/>
<path d="M183.515 122.784C183.065 123.683 183.101 125.122 183.596 126.002L214.118 180.145C214.559 180.954 214.237 181.647 213.4 181.782C213.848 181.721 214.324 181.528 214.741 181.251C215.204 180.945 215.6 180.545 215.824 180.107L251.058 110.291C251.51 109.394 251.474 107.956 250.977 107.075L220.414 52.8604C219.917 51.9797 219.15 51.9905 218.696 52.8856L183.515 122.784Z" fill="#C4DAE6"/>
<path d="M214.826 181.444C214.378 181.736 213.882 181.928 213.427 181.99L213.364 181.577C213.693 181.525 213.933 181.372 214.039 181.149C214.156 180.906 214.118 180.585 213.935 180.246L183.415 126.106C182.881 125.158 182.844 123.656 183.328 122.689L218.509 52.7925C218.763 52.2901 219.125 52.0073 219.53 52.0001C219.933 51.9929 220.312 52.2631 220.592 52.7601L251.156 106.975C251.691 107.922 251.727 109.422 251.239 110.387L216.006 180.203C215.775 180.653 215.366 181.087 214.851 181.426L214.824 181.444H214.826ZM214.475 181.17C214.525 181.141 214.57 181.113 214.622 181.077C215.078 180.778 215.438 180.398 215.635 180.01L250.868 110.196C251.291 109.357 251.258 108.001 250.794 107.178L220.232 52.9636C220.032 52.6106 219.78 52.4125 219.539 52.4162C219.301 52.4216 219.058 52.6251 218.88 52.9816L183.701 122.878C183.279 123.719 183.312 125.077 183.777 125.9L214.298 180.043C214.516 180.441 214.577 180.832 214.478 181.168L214.475 181.17Z" fill="#588995"/>
<path d="M227.497 141.114L214.399 166.865L211.073 161.11L224.169 135.358L227.497 141.114Z" fill="#588995"/>
<path d="M214.41 167.302L210.835 161.115L210.886 161.015L224.155 134.925L227.731 141.111L227.681 141.212L214.41 167.302ZM211.309 161.106L214.387 166.43L227.261 141.12L224.182 135.795L211.309 161.106Z" fill="#588995"/>
<path d="M215.599 237.006L136.688 192.045C135.577 191.379 135.235 190.565 135.235 189.526V128.477L214.972 174.573L215.6 237.005L215.599 237.006Z" fill="#C4DAE6"/>
<path d="M215.067 174.408L215.161 174.462L215.163 174.57L215.791 237.003L215.792 237.082L215.736 237.139L215.734 237.141L215.631 237.244L136.594 192.21L136.59 192.208C136.012 191.861 135.621 191.469 135.377 191.016C135.134 190.563 135.044 190.066 135.044 189.525V128.146L215.067 174.408ZM135.425 189.525C135.425 190.024 135.507 190.454 135.712 190.835C135.917 191.214 136.252 191.561 136.783 191.88L215.406 236.677L214.783 174.683L135.425 128.807V189.525Z" fill="#588995"/>
<path d="M239.619 161.689L241.411 167.627C241.708 168.614 242.857 169.057 243.741 168.527L259.753 158.921C260.425 158.518 260.863 157.815 260.927 157.035L261.642 148.469C261.7 147.772 262.094 147.148 262.7 146.796L286.947 132.684V194.412C286.947 195.029 286.619 195.602 286.084 195.913L215.6 237.008L214.972 174.576L238.124 161.102C238.697 160.769 239.43 161.057 239.621 161.691L239.619 161.689Z" fill="#ECF8FF"/>
<path d="M286.757 133.014L262.795 146.96C262.312 147.242 261.977 147.712 261.865 148.25L261.832 148.484L261.117 157.052C261.052 157.84 260.632 158.555 259.984 158.999L259.851 159.084L243.839 168.69C242.911 169.246 241.721 168.845 241.302 167.882L241.229 167.682L239.437 161.744L239.43 161.724C239.275 161.255 238.752 161.029 238.309 161.222L238.22 161.267L215.163 174.685L215.786 236.679L285.988 195.749L286.158 195.635C286.533 195.344 286.757 194.893 286.757 194.411V133.014ZM287.137 194.411C287.137 195.054 286.817 195.653 286.288 196.01L286.18 196.078L215.413 237.338L215.41 237.011L214.781 174.578L214.78 174.468L238.029 160.938L238.158 160.872C238.814 160.587 239.591 160.931 239.803 161.636L240.022 162.36L240.019 162.357L241.593 167.571L241.651 167.729C241.98 168.485 242.914 168.801 243.644 168.364L259.655 158.758L259.769 158.685C260.324 158.304 260.681 157.693 260.737 157.02L261.452 148.453L261.469 148.312C261.57 147.61 261.986 146.991 262.604 146.631L286.851 132.52L287.137 132.353V194.411Z" fill="#588995"/>
<path d="M168.226 156.555L181.021 163.973C184.016 165.709 185.858 168.909 185.858 172.371V172.427C185.858 175.726 182.276 177.781 179.429 176.113L166.614 168.607C163.651 166.871 161.825 163.699 161.813 160.267C161.8 156.969 165.373 154.9 168.226 156.555Z" fill="#ECF8FF"/>
<path d="M185.668 172.37C185.668 169.083 183.973 166.035 181.197 164.301L180.926 164.138L168.13 156.72C165.49 155.188 162.204 156.995 162.012 159.974L162.003 160.266L162.009 160.58C162.128 163.824 163.896 166.794 166.71 168.443L179.526 175.948L179.782 176.087C182.456 177.418 185.668 175.48 185.668 172.426V172.37ZM186.049 172.426C186.049 175.764 182.538 177.883 179.614 176.429L179.333 176.276L166.518 168.771C163.592 167.056 161.753 163.968 161.629 160.595L161.622 160.267C161.609 156.823 165.342 154.661 168.321 156.39L181.116 163.808L181.4 163.979C184.286 165.783 186.049 168.952 186.049 172.37V172.426Z" fill="#588995"/>
<path d="M181.01 174.699L168.195 167.195C165.233 165.461 163.406 162.288 163.394 158.855C163.39 157.947 163.677 157.148 164.127 156.478C165.348 155.842 166.866 155.767 168.227 156.555L181.023 163.973C184.018 165.709 185.862 168.91 185.862 172.371V172.427C185.862 173.329 185.577 174.123 185.131 174.79C183.904 175.427 182.377 175.501 181.012 174.701L181.01 174.699Z" fill="#588995"/>
<path d="M185.672 172.371C185.672 169.083 183.975 166.036 181.199 164.301L180.927 164.137L168.132 156.719C166.848 155.976 165.419 156.036 164.258 156.625C163.842 157.258 163.581 158.007 163.584 158.854L163.59 159.168C163.709 162.412 165.478 165.384 168.291 167.031L181.107 174.535L181.118 174.542C182.403 175.289 183.835 175.23 184.998 174.642C185.411 174.012 185.672 173.269 185.672 172.426V172.371ZM186.052 172.426C186.052 173.37 185.754 174.201 185.289 174.895L185.262 174.935L185.219 174.958C183.941 175.622 182.343 175.701 180.916 174.865L180.895 174.853L180.89 174.848L168.099 167.359C165.078 165.591 163.216 162.355 163.203 158.855L163.216 158.504C163.277 157.698 163.559 156.982 163.969 156.372L163.996 156.331L164.039 156.309C165.312 155.646 166.899 155.566 168.323 156.39L181.118 163.808L181.402 163.978C184.288 165.782 186.052 168.952 186.052 172.371V172.426Z" fill="#588995"/>
<path d="M166.333 110.364L136.577 127.703L136.542 127.684L135.246 128.472L213.427 173.67L213.416 173.675L214.97 174.574C214.97 174.574 214.979 174.568 214.981 174.568L214.992 174.574L215.856 174.057C220.002 171.64 237.42 161.488 238.123 161.098C238.535 160.869 238.904 160.966 239.147 161.098C239.259 161.157 238.567 160.653 237.987 160.233C237.535 159.905 236.932 159.878 236.451 160.161L214.916 172.796L137.904 128.469L165.252 112.549L166.333 110.364Z" fill="#ECF8FF"/>
<path d="M166.503 110.448L165.423 112.633L165.398 112.685L165.348 112.713L138.283 128.467L214.915 172.576L236.355 159.997L236.459 159.941C236.985 159.682 237.618 159.73 238.099 160.079L238.94 160.692C239.055 160.778 239.151 160.849 239.211 160.896C239.239 160.918 239.267 160.941 239.285 160.957C239.288 160.961 239.299 160.971 239.309 160.984C239.312 160.989 239.329 161.01 239.339 161.041C239.345 161.057 239.355 161.093 239.346 161.139C239.336 161.193 239.301 161.24 239.253 161.268C239.214 161.29 239.177 161.293 239.161 161.293C239.142 161.293 239.127 161.291 239.119 161.289C239.103 161.286 239.09 161.28 239.085 161.278C239.073 161.274 239.064 161.269 239.058 161.266L239.057 161.265C238.851 161.153 238.552 161.075 238.214 161.263L238.215 161.264C237.515 161.653 220.103 171.8 215.953 174.22L215.954 174.221L215 174.791L214.988 174.785L214.972 174.795L214.875 174.738L213.015 173.663L213.025 173.657L134.873 128.477L136.444 127.521L136.54 127.462L136.576 127.482L166.785 109.881L166.503 110.448ZM136.577 127.924L136.544 127.904L135.618 128.468L213.828 173.682L213.816 173.687L214.978 174.359L215.758 173.894L215.76 173.893L228.185 166.653C233.145 163.765 237.676 161.129 238.03 160.932L238.211 160.848C238.284 160.82 238.357 160.802 238.427 160.789L237.876 160.388C237.534 160.14 237.092 160.091 236.709 160.246L236.547 160.325L215.012 172.96L214.917 173.017L214.821 172.961L137.524 128.47L137.808 128.305L165.106 112.413L165.882 110.846L136.577 127.924Z" fill="#588995"/>
<path d="M250.434 111.652L287.19 132.809L285.769 133.652L285.755 133.645L262.928 146.93C262.325 147.281 261.931 147.906 261.871 148.603L261.153 157.219C261.09 157.97 260.67 158.643 260.023 159.03L243.97 168.662C243.97 168.662 243.37 169.053 242.679 168.822C241.89 168.557 241.723 167.977 241.723 167.977L258.437 158.031C259.263 157.539 259.804 156.677 259.883 155.717L260.574 147.434C260.632 146.737 261.026 146.114 261.632 145.761L284.098 132.685L249.818 112.868L250.432 111.65L250.434 111.652Z" fill="#ECF8FF"/>
<path d="M250.551 111.501L287.567 132.807L285.866 133.815L285.777 133.869L285.762 133.86L263.024 147.095C262.543 147.375 262.208 147.846 262.096 148.385L262.06 148.619L261.342 157.234C261.278 157.996 260.875 158.683 260.249 159.111L260.121 159.193L244.068 168.825L244.067 168.824C244.066 168.825 244.064 168.827 244.062 168.828C244.056 168.832 244.048 168.837 244.038 168.843C244.017 168.855 243.987 168.871 243.95 168.89C243.875 168.927 243.767 168.973 243.637 169.011C243.376 169.087 243.012 169.134 242.619 169.003L242.618 169.002C242.186 168.857 241.917 168.622 241.756 168.418C241.676 168.317 241.623 168.224 241.59 168.154C241.573 168.12 241.561 168.091 241.553 168.069C241.549 168.059 241.546 168.05 241.544 168.044L241.54 168.032V168.03L241.499 167.889L241.625 167.813L258.34 157.867L258.481 157.777C259.175 157.306 259.624 156.543 259.693 155.701L260.385 147.419L260.401 147.277C260.503 146.576 260.919 145.957 261.536 145.597L283.719 132.685L249.723 113.032L249.566 112.942L249.647 112.782L250.262 111.564L250.381 111.33L250.551 111.501ZM250.067 112.792L284.477 132.685L261.727 145.926C261.245 146.207 260.909 146.677 260.798 147.216L260.765 147.45L260.072 155.732C259.993 156.69 259.483 157.556 258.695 158.092L258.534 158.194L241.967 168.053C241.989 168.091 242.017 168.135 242.055 168.183C242.174 168.334 242.383 168.522 242.739 168.642L242.85 168.673C243.106 168.732 243.345 168.7 243.53 168.646C243.636 168.615 243.722 168.578 243.781 168.549C243.81 168.534 243.833 168.522 243.848 168.514C243.855 168.51 243.86 168.506 243.863 168.504L243.872 168.498L259.926 158.867L260.034 158.798C260.566 158.434 260.908 157.85 260.963 157.203L261.682 148.587L261.698 148.446C261.801 147.745 262.217 147.124 262.833 146.766L285.748 133.429L285.761 133.435L286.812 132.812L250.51 111.916L250.067 112.792Z" fill="#588995"/>
<path d="M273.621 91.0019C265.515 90.5178 265.118 90.1219 264.627 82.0811C264.138 90.1219 263.739 90.5178 255.63 91.0019C263.739 91.4859 264.136 91.8818 264.627 99.92C265.117 91.8818 265.515 91.4859 273.621 91.0019Z" fill="#ECF8FF"/>
<path d="M264.627 81.8906C264.527 81.8906 264.443 81.969 264.437 82.0693C264.314 84.0818 264.198 85.6011 263.968 86.7617C263.739 87.9208 263.4 88.6965 262.852 89.2402C262.304 89.784 261.521 90.1199 260.352 90.3477C259.181 90.5756 257.648 90.6904 255.619 90.8115C255.518 90.8176 255.44 90.9013 255.44 91.002C255.44 91.1026 255.518 91.1853 255.619 91.1914C257.648 91.3126 259.181 91.4283 260.352 91.6562C261.521 91.8839 262.304 92.22 262.852 92.7637C263.4 93.3072 263.739 94.0819 263.968 95.2402C264.198 96.4005 264.314 97.9197 264.437 99.9316C264.443 100.032 264.527 100.11 264.627 100.11C264.728 100.11 264.811 100.032 264.817 99.9316C264.939 97.9197 265.056 96.4005 265.286 95.2402C265.515 94.0818 265.854 93.3072 266.402 92.7637C266.95 92.22 267.732 91.8839 268.901 91.6562C270.071 91.4283 271.604 91.3126 273.632 91.1914C273.733 91.1852 273.811 91.1025 273.811 91.002C273.811 90.9014 273.733 90.8177 273.632 90.8115C271.604 90.6904 270.072 90.5756 268.902 90.3477C267.733 90.1199 266.951 89.784 266.403 89.2402C265.855 88.6965 265.516 87.9209 265.287 86.7617C265.057 85.6011 264.94 84.0817 264.817 82.0693L264.799 81.999C264.769 81.9347 264.703 81.8907 264.627 81.8906ZM264.628 84.7041C264.704 85.5183 264.792 86.2241 264.914 86.8359C265.15 88.0276 265.508 88.8899 266.134 89.5107C266.76 90.1314 267.628 90.4878 268.829 90.7217C269.438 90.8403 270.139 90.9279 270.947 91.002C270.139 91.076 269.438 91.1636 268.829 91.2822C267.628 91.5161 266.76 91.8727 266.134 92.4932C265.508 93.1138 265.149 93.9749 264.913 95.166C264.791 95.7772 264.703 96.4827 264.627 97.2959C264.552 96.4827 264.462 95.7772 264.341 95.166C264.105 93.975 263.745 93.1138 263.12 92.4932C262.494 91.8727 261.625 91.5161 260.424 91.2822C259.815 91.1637 259.114 91.0759 258.306 91.002C259.114 90.928 259.815 90.8403 260.424 90.7217C261.625 90.4878 262.495 90.1314 263.121 89.5107C263.747 88.8899 264.106 88.0276 264.342 86.8359C264.463 86.2241 264.553 85.5183 264.628 84.7041Z" fill="#588995"/>
</g>
<defs>
<clipPath id="clip0_9503_7940">
<rect width="177.611" height="196" fill="white" transform="translate(116.695 52)"/>
</clipPath>
</defs>
</svg>
