<svg width="411" height="300" viewBox="0 0 411 300" fill="none" xmlns="http://www.w3.org/2000/svg">
<path d="M272.602 195.436C297.34 195.436 317.394 184.564 317.394 171.152C317.394 157.74 297.34 146.867 272.602 146.867C247.864 146.867 227.81 157.74 227.81 171.152C227.81 184.564 247.864 195.436 272.602 195.436Z" fill="#588995"/>
<path d="M317.145 171.152C317.145 164.58 312.229 158.575 304.156 154.198C296.093 149.827 284.938 147.115 272.602 147.115C260.267 147.115 249.111 149.827 241.048 154.198C232.975 158.575 228.058 164.58 228.058 171.152C228.059 177.724 232.976 183.729 241.048 188.105C249.111 192.477 260.267 195.188 272.602 195.188C284.938 195.188 296.093 192.477 304.156 188.105C312.228 183.729 317.145 177.724 317.145 171.152ZM317.642 171.152C317.642 177.992 312.532 184.129 304.393 188.542C296.245 192.96 285.004 195.684 272.602 195.684C260.2 195.684 248.96 192.96 240.811 188.542C232.673 184.129 227.563 177.992 227.562 171.152C227.562 164.312 232.672 158.174 240.811 153.761C248.96 149.344 260.2 146.619 272.602 146.619C285.004 146.619 296.245 149.344 304.393 153.761C312.532 158.174 317.642 164.312 317.642 171.152Z" fill="#588995"/>
<path d="M99.0167 220.779C95.9757 218.821 96.0856 214.338 99.2189 212.531L210.541 148.322L245.932 167.104L127.766 234.946C125.573 236.206 122.861 236.136 120.735 234.767L99.0167 220.779Z" fill="#588995"/>
<path d="M210.475 148.083C210.536 148.067 210.601 148.073 210.658 148.103L246.048 166.885L246.102 166.924C246.15 166.969 246.179 167.032 246.18 167.1C246.182 167.19 246.134 167.275 246.056 167.32L127.89 235.162C125.617 236.467 122.804 236.396 120.6 234.976L98.8825 220.988C95.6852 218.929 95.8005 214.215 99.0948 212.315L210.416 148.107L210.475 148.083ZM99.3435 212.746C96.3712 214.46 96.2666 218.713 99.1513 220.57L120.87 234.558C122.918 235.877 125.53 235.944 127.643 234.731L245.417 167.113L210.546 148.606L99.3435 212.746Z" fill="#588995"/>
<path d="M107.133 209.941C107.368 210.076 107.368 210.299 107.133 210.435C106.899 210.57 106.516 210.57 106.282 210.435C106.048 210.299 106.048 210.077 106.282 209.941C106.517 209.806 106.899 209.806 107.133 209.941Z" fill="#C4DAE6"/>
<path d="M106.708 209.592C106.894 209.592 107.094 209.632 107.258 209.726L107.257 209.727C107.42 209.822 107.557 209.979 107.557 210.187C107.557 210.396 107.42 210.556 107.257 210.65L107.256 210.649C107.092 210.744 106.893 210.785 106.708 210.785C106.522 210.785 106.322 210.745 106.158 210.65L106.406 210.219C106.477 210.26 106.585 210.288 106.708 210.288C106.83 210.288 106.939 210.26 107.009 210.219L107.047 210.187L107.009 210.156L106.949 210.129C106.883 210.104 106.799 210.088 106.708 210.088C106.586 210.088 106.477 210.114 106.406 210.155L106.407 210.156C106.387 210.168 106.375 210.179 106.367 210.187C106.375 210.195 106.386 210.208 106.406 210.219L106.157 210.649C105.994 210.555 105.858 210.396 105.858 210.188C105.858 209.98 105.994 209.821 106.157 209.726H106.158C106.322 209.632 106.522 209.592 106.708 209.592Z" fill="#588995"/>
<path d="M100.337 211.778L219.147 143.184L249.663 160.922L125.882 232.377C124.81 233.006 123.058 233.006 121.984 232.377L100.287 219.772C96.5007 217.563 96.525 213.999 100.337 211.791V211.779L100.337 211.778Z" fill="#C4DAE6"/>
<path d="M219.084 142.944C219.146 142.927 219.215 142.936 219.272 142.969L249.788 160.707C249.864 160.752 249.911 160.834 249.911 160.922C249.911 161.011 249.864 161.093 249.787 161.137L126.007 232.591L126.008 232.592C125.424 232.934 124.672 233.098 123.934 233.098C123.196 233.098 122.443 232.934 121.859 232.592V232.591L100.163 219.987L99.8093 219.77C98.0998 218.666 97.2052 217.245 97.2145 215.78C97.2244 214.233 98.2414 212.736 100.155 211.61L100.163 211.602C100.178 211.587 100.195 211.574 100.214 211.563L219.023 142.969L219.084 142.944ZM100.516 211.961C100.5 211.978 100.482 211.993 100.462 212.005L100.124 212.211C98.4936 213.256 97.7186 214.541 97.7106 215.783C97.7022 217.106 98.565 218.48 100.413 219.557H100.412L122.109 232.163L122.11 232.163L122.05 232.264L121.999 232.353L122.11 232.163C122.6 232.45 123.261 232.601 123.934 232.601C124.608 232.601 125.268 232.45 125.757 232.163L125.912 232.428L125.883 232.377L125.757 232.163L125.758 232.163L249.166 160.921L219.146 143.47L100.516 211.961Z" fill="#588995"/>
<path d="M93.1078 142.098L104.924 136.548L172.1 148.684L222.212 63.2142L219.417 62.7401C217.891 62.5464 216.938 62.822 216.024 63.3399C215.585 63.6085 95.4146 130.712 95.4146 130.712C92.5031 132.389 91.146 135.869 92.1449 139.076L93.0946 142.085L93.1078 142.098Z" fill="#C4DAE6"/>
<path d="M215.901 63.1234C216.86 62.5798 217.868 62.2929 219.448 62.4935L219.418 62.7279V62.7269L219.448 62.4935L219.458 62.4955L222.254 62.9691L222.311 62.9867C222.366 63.0106 222.411 63.0542 222.437 63.1097C222.472 63.1836 222.468 63.2699 222.427 63.3402L172.314 148.81L172.266 148.869C172.21 148.919 172.133 148.943 172.056 148.929L104.958 136.806L93.2137 142.323L93.1073 142.097V142.098L93.2137 142.323C93.1444 142.355 93.0653 142.353 92.9989 142.321L92.9374 142.278L92.9237 142.266C92.8931 142.237 92.87 142.201 92.8573 142.161L91.9081 139.151L92.1444 139.076L92.0838 139.094L91.9081 139.151V139.15L91.8182 138.838C90.9638 135.609 92.3726 132.179 95.2909 130.497L95.2938 130.495L95.4149 130.712C95.2938 130.495 95.2939 130.495 95.2948 130.495C95.2957 130.494 95.297 130.493 95.2987 130.493C95.3023 130.491 95.3081 130.488 95.3153 130.484C95.3298 130.476 95.3518 130.463 95.3807 130.447C95.4385 130.414 95.525 130.366 95.6385 130.303C95.8659 130.176 96.2034 129.987 96.6434 129.742C97.5237 129.25 98.8147 128.529 100.458 127.612C103.745 125.776 108.441 123.154 114.077 120.006C125.35 113.711 140.385 105.315 155.433 96.9105C170.482 88.5058 185.545 80.0918 196.873 73.7631C202.537 70.5988 207.267 67.9556 210.595 66.0951C212.258 65.1648 213.572 64.4304 214.476 63.9242C214.928 63.6712 215.278 63.475 215.518 63.3402C215.638 63.2729 215.731 63.2211 215.795 63.1849C215.827 63.167 215.851 63.1529 215.869 63.1429C215.886 63.1334 215.893 63.129 215.894 63.1283L215.901 63.1234ZM219.386 62.9867C217.918 62.8004 217.019 63.0616 216.153 63.5511L216.154 63.5521C215.929 63.6899 185.767 80.5378 155.676 97.3441C140.627 105.749 125.592 114.145 114.319 120.44C108.683 123.587 103.987 126.21 100.7 128.045C99.0569 128.963 97.7659 129.684 96.8856 130.175C96.4457 130.421 96.1081 130.61 95.8807 130.737C95.7672 130.8 95.6807 130.848 95.6229 130.88C95.594 130.896 95.572 130.909 95.5575 130.917C95.5503 130.921 95.5445 130.924 95.5409 130.926C95.5398 130.927 95.5387 130.927 95.5379 130.927L95.5389 130.928C92.7287 132.547 91.4177 135.905 92.3817 139.001L93.2508 141.755L104.818 136.323C104.842 136.312 104.867 136.304 104.892 136.301L104.969 136.303L171.973 148.409L221.815 63.3988L219.386 62.9857V62.9867Z" fill="#588995"/>
<path d="M123.648 227.976L125.683 228.075L172.075 148.675L104.899 136.537L93.0823 142.088L118.936 224.447C118.985 224.596 119.035 224.744 119.097 224.879C119.849 226.717 121.687 227.864 123.661 227.963L123.648 227.976Z" fill="#588995"/>
<path d="M104.944 136.293L172.118 148.431L172.073 148.675L172.289 148.801L125.898 228.2L125.856 228.253C125.807 228.3 125.741 228.326 125.671 228.323L123.636 228.224C123.606 228.223 123.578 228.214 123.552 228.202C121.535 228.068 119.655 226.886 118.871 224.983L118.779 224.753C118.75 224.676 118.725 224.599 118.7 224.526L118.944 224.445L118.936 224.448L118.7 224.526L118.698 224.522L92.845 142.162C92.8079 142.044 92.8644 141.916 92.9768 141.864L104.794 136.313L104.867 136.291C104.893 136.288 104.918 136.289 104.944 136.293ZM93.384 142.22L119.172 224.369L119.245 224.583L119.323 224.776L119.327 224.785H119.326C120.038 226.523 121.783 227.621 123.673 227.715C123.699 227.717 123.724 227.723 123.748 227.732L125.544 227.819L171.681 148.856L104.933 136.795L93.384 142.22ZM172.118 148.431C172.198 148.445 172.266 148.498 172.3 148.572C172.334 148.645 172.33 148.731 172.289 148.801L172.074 148.675L172.118 148.431Z" fill="#588995"/>
<path d="M247.923 162.709L246.208 158.552L251.451 155.567C252.24 155.259 253.264 155.937 253.732 157.084C254.202 158.231 253.955 159.415 253.165 159.724L247.923 162.709Z" fill="#C4DAE6"/>
<path d="M251.36 155.335C251.853 155.143 252.391 155.269 252.849 155.573C253.308 155.878 253.711 156.376 253.962 156.991L253.502 157.178C253.284 156.645 252.941 156.23 252.574 155.987C252.21 155.744 251.846 155.684 251.551 155.794L246.521 158.66L248.044 162.353L253.042 159.508L253.074 159.493C253.368 159.377 253.588 159.09 253.678 158.666C253.768 158.244 253.721 157.712 253.503 157.178H253.502L253.732 157.084L253.962 156.991C254.213 157.603 254.278 158.237 254.164 158.77C254.053 159.29 253.763 159.739 253.288 159.94L248.046 162.924C247.984 162.959 247.909 162.967 247.842 162.944C247.774 162.921 247.721 162.869 247.693 162.803L245.979 158.647C245.931 158.531 245.976 158.398 246.085 158.336L251.327 155.351C251.338 155.345 251.349 155.34 251.36 155.335L251.45 155.567L251.451 155.569L251.36 155.335Z" fill="#588995"/>
<path d="M130.621 230.25L125.403 233.16L123.737 229.028L128.956 226.118C129.732 225.81 130.744 226.5 131.201 227.635C131.657 228.77 131.398 229.941 130.621 230.238V230.25Z" fill="#C4DAE6"/>
<path d="M128.864 225.887C129.353 225.693 129.887 225.824 130.337 226.129C130.79 226.436 131.186 226.934 131.431 227.542L131.514 227.771C131.687 228.305 131.718 228.844 131.615 229.305C131.505 229.802 131.229 230.231 130.785 230.434C130.772 230.446 130.758 230.457 130.742 230.466L125.524 233.377C125.461 233.412 125.388 233.418 125.32 233.395C125.253 233.371 125.199 233.319 125.172 233.253L123.507 229.121C123.46 229.005 123.507 228.873 123.616 228.812L128.835 225.901L128.864 225.887L128.953 226.114L128.954 226.116L128.864 225.887ZM130.059 226.54C129.698 226.296 129.341 226.235 129.054 226.346L124.049 229.138L125.527 232.806L130.451 230.059C130.475 230.037 130.501 230.018 130.532 230.006L130.637 229.956C130.872 229.823 131.05 229.562 131.131 229.197C131.212 228.832 131.191 228.384 131.042 227.925L130.97 227.727C130.758 227.2 130.42 226.785 130.059 226.54Z" fill="#588995"/>
<path d="M125.429 233.125C126.201 232.802 126.444 231.622 125.97 230.491C125.496 229.36 124.486 228.705 123.713 229.029C122.941 229.353 122.697 230.532 123.171 231.663C123.645 232.794 124.655 233.449 125.429 233.125Z" fill="#ECF8FF"/>
<path d="M123.8 228.738C124.233 228.628 124.692 228.749 125.089 229.006C125.545 229.302 125.946 229.79 126.2 230.395C126.453 231.001 126.52 231.629 126.41 232.161C126.301 232.691 126.008 233.151 125.525 233.354L125.341 233.416C124.908 233.526 124.451 233.406 124.053 233.148C123.597 232.853 123.196 232.365 122.942 231.759C122.688 231.154 122.622 230.525 122.732 229.993C122.841 229.463 123.133 229.002 123.617 228.799L123.8 228.738ZM124.819 229.422C124.502 229.217 124.187 229.153 123.92 229.22L123.809 229.257C123.521 229.379 123.305 229.67 123.218 230.093C123.131 230.515 123.18 231.042 123.401 231.567C123.621 232.092 123.961 232.497 124.323 232.731C124.685 232.966 125.044 233.017 125.332 232.896L125.437 232.842C125.672 232.7 125.847 232.431 125.923 232.061C126.01 231.64 125.962 231.113 125.742 230.588C125.521 230.062 125.18 229.657 124.819 229.422Z" fill="#588995"/>
<path d="M247.957 162.7C248.734 162.367 248.967 161.173 248.479 160.034C247.99 158.894 246.965 158.24 246.189 158.573C245.412 158.905 245.179 160.099 245.667 161.238C246.155 162.379 247.181 163.032 247.957 162.7Z" fill="#ECF8FF"/>
<path d="M246.091 158.344C246.576 158.136 247.115 158.248 247.575 158.542C248.037 158.836 248.445 159.326 248.707 159.935L248.251 160.132C248.023 159.602 247.675 159.195 247.308 158.961C246.94 158.726 246.577 158.677 246.287 158.801L246.181 158.856C245.944 159.002 245.77 159.276 245.697 159.651C245.614 160.078 245.668 160.611 245.895 161.14L245.986 161.334C246.21 161.77 246.516 162.107 246.838 162.312C247.206 162.547 247.569 162.596 247.859 162.471L247.965 162.417C248.201 162.271 248.376 161.997 248.449 161.622C248.533 161.194 248.478 160.662 248.251 160.132L248.479 160.034L248.707 159.935L248.708 159.936C248.969 160.546 249.041 161.18 248.936 161.717C248.844 162.186 248.611 162.602 248.228 162.839L248.054 162.928C247.569 163.136 247.03 163.025 246.57 162.731C246.166 162.473 245.802 162.065 245.543 161.558L245.438 161.336C245.177 160.726 245.105 160.093 245.21 159.555C245.315 159.02 245.605 158.554 246.091 158.345V158.344Z" fill="#588995"/>
<path d="M243.624 164.378L242.439 161.505L246.063 159.442C246.609 159.228 247.316 159.697 247.64 160.49C247.965 161.283 247.794 162.102 247.249 162.315L243.625 164.378H243.624Z" fill="#C4DAE6"/>
<path d="M245.973 159.21C246.343 159.066 246.742 159.162 247.072 159.381C247.404 159.602 247.691 159.959 247.87 160.396L247.931 160.561C248.058 160.945 248.085 161.334 248.014 161.671C247.934 162.045 247.724 162.377 247.371 162.53L247.372 162.531L243.748 164.594L243.624 164.377L243.625 164.378L243.748 164.594C243.711 164.615 243.668 164.626 243.625 164.626C243.525 164.626 243.433 164.565 243.395 164.472L243.625 164.378L243.624 164.377L243.395 164.472L242.21 161.599C242.162 161.483 242.208 161.35 242.316 161.288L245.94 159.226C245.951 159.22 245.962 159.215 245.973 159.21ZM246.797 159.795C246.56 159.638 246.337 159.606 246.163 159.669L242.752 161.612L243.746 164.022L247.126 162.099L247.221 162.053C247.363 161.971 247.476 161.809 247.527 161.568C247.578 161.327 247.562 161.028 247.46 160.718L247.41 160.584L247.353 160.455C247.208 160.161 247.006 159.934 246.797 159.795Z" fill="#588995"/>
<path d="M249.7 158.929L129.546 228.138C126.66 229.792 122.996 228.361 121.997 225.191L95.2066 139.822C94.1945 136.614 95.5641 133.135 98.4748 131.458L219.638 63.8336C222.203 62.3661 225.253 63.5719 226.178 66.3841L253.796 148.209C255.14 152.305 253.438 156.782 249.7 158.929Z" fill="#ECF8FF"/>
<path d="M219.517 63.6166C222.221 62.072 225.44 63.349 226.413 66.305L254.032 148.129V148.131L254.152 148.527C255.301 152.623 253.545 157.006 249.824 159.143L249.825 159.144L129.67 228.354L129.422 227.923L249.577 158.713L249.912 158.511C253.313 156.354 254.827 152.146 253.56 148.286L225.943 66.4632L226.177 66.3841L226.162 66.389L225.943 66.4632L225.942 66.4613L225.854 66.2162C224.886 63.7272 222.112 62.7049 219.761 64.0492L219.759 64.0501L98.5962 131.675C95.8753 133.245 94.5511 136.445 95.3589 139.456L95.4438 139.747L122.235 225.117C123.186 228.135 126.673 229.498 129.422 227.923L129.67 228.354C126.647 230.086 122.807 228.587 121.76 225.266L94.9692 139.896C93.9227 136.577 95.3406 132.977 98.351 131.243L98.354 131.242L219.517 63.6166Z" fill="#588995"/>
<path d="M136.272 224.036L197.876 81.5769L204.806 75.4165L141.662 220.956L136.272 224.036Z" fill="white"/>
<path d="M147.823 217.103L209.427 74.6434L219.437 66.9429L156.293 212.482L147.823 217.103Z" fill="white"/>
<path d="M227.56 70.5713L226.178 66.3909C225.374 63.9488 222.794 62.6902 220.449 63.3622L120.265 118.923L98.4748 131.465C95.5641 133.142 94.1945 136.621 95.2066 139.829L96.4513 143.925L227.56 70.5713Z" fill="#588995"/>
<path d="M220.38 63.1229C222.849 62.4156 225.567 63.7394 226.414 66.3124L227.796 70.493L227.806 70.536C227.821 70.6361 227.773 70.7371 227.682 70.788L96.5727 144.141L96.521 144.163C96.468 144.178 96.411 144.176 96.3589 144.155C96.2891 144.127 96.2352 144.069 96.2134 143.997L94.9692 139.9V139.899C93.9239 136.581 95.3412 132.984 98.351 131.25L120.141 118.708L120.144 118.706L220.329 63.1444L220.38 63.1229ZM225.866 66.2548C225.032 64.0927 222.687 62.9919 220.541 63.5936L120.385 119.141L98.5991 131.681L98.5981 131.68C95.8757 133.248 94.551 136.45 95.3589 139.463L95.4438 139.754V139.756L96.5991 143.557L227.259 70.454L225.942 66.4686L225.866 66.2548Z" fill="#588995"/>
<path d="M102.536 134.314C102.169 133.432 101.152 133.082 100.235 133.553C99.2809 134.042 98.8067 135.221 99.2094 136.165C99.6099 137.103 100.705 137.398 101.623 136.847C102.505 136.317 102.902 135.192 102.536 134.314Z" fill="#C4DAE6"/>
<path d="M100.316 133.243C101.3 132.852 102.364 133.254 102.766 134.219H102.765C103.156 135.158 102.782 136.316 101.928 136.941L101.751 137.06C100.787 137.639 99.6074 137.395 99.0782 136.459L98.9805 136.263C98.5215 135.187 99.0638 133.875 100.121 133.332L100.316 133.243ZM102.243 134.276C101.918 133.68 101.203 133.424 100.499 133.705L100.348 133.773C99.4978 134.21 99.0914 135.256 99.4375 136.067L99.5069 136.208C99.8852 136.879 100.739 137.088 101.495 136.634L101.638 136.539C102.276 136.071 102.562 135.237 102.358 134.554L102.307 134.409L102.243 134.276Z" fill="#588995"/>
<path d="M108.59 131.159C108.224 130.286 107.222 129.937 106.322 130.399C105.386 130.879 104.926 132.043 105.327 132.976C105.727 133.905 106.805 134.199 107.706 133.657C108.571 133.137 108.955 132.028 108.59 131.159Z" fill="#C4DAE6"/>
<path d="M106.402 130.091C107.37 129.708 108.419 130.111 108.819 131.063L108.887 131.251C109.159 132.143 108.792 133.179 108.008 133.754L107.833 133.871C106.883 134.442 105.721 134.194 105.196 133.268L105.099 133.074C104.642 132.01 105.167 130.713 106.208 130.178L106.402 130.091ZM108.361 131.255C108.074 130.572 107.319 130.259 106.582 130.553L106.436 130.62C105.606 131.046 105.211 132.075 105.556 132.877L105.624 133.017C106 133.682 106.839 133.889 107.578 133.445L107.716 133.352C108.34 132.894 108.617 132.074 108.412 131.398L108.361 131.255Z" fill="#588995"/>
<path d="M114.237 128.145C113.872 127.282 112.884 126.933 112.001 127.386C111.081 127.857 110.634 129.005 111.034 129.929C111.431 130.848 112.495 131.144 113.378 130.612C114.228 130.1 114.6 129.005 114.237 128.145Z" fill="#C4DAE6"/>
<path d="M111.887 127.165C112.891 126.65 114.041 127.044 114.466 128.048V128.049L114.534 128.236C114.806 129.117 114.45 130.142 113.679 130.71L113.507 130.824C112.57 131.388 111.423 131.136 110.901 130.22L110.806 130.028C110.35 128.975 110.861 127.693 111.887 127.166V127.165ZM113.945 128.112C113.6 127.484 112.829 127.24 112.114 127.607L111.967 127.692C111.257 128.149 110.939 129.085 111.262 129.83L111.33 129.969C111.704 130.628 112.53 130.832 113.25 130.399L113.386 130.309C114.038 129.828 114.301 128.935 114.009 128.242L113.945 128.112Z" fill="#588995"/>
<path d="M215.795 89.9834L215.725 90.2217H215.726L215.795 89.9834C215.868 90.0048 215.927 90.0593 215.955 90.1299C215.984 90.2004 215.979 90.2798 215.941 90.3457L214.638 92.6074L214.208 92.3594L215.352 90.3721L213.249 89.7607L213.388 89.2842L215.795 89.9834Z" fill="#588995"/>
<path d="M207.743 92.6633L206.503 94.5325L208.662 95.2483L208.506 95.72L206.039 94.9026L205.988 94.8782C205.939 94.8485 205.902 94.8029 205.883 94.7483C205.858 94.6752 205.868 94.594 205.91 94.5295L207.328 92.3899L207.743 92.6633Z" fill="#588995"/>
<path d="M165.741 121.291L115.28 149.677C114.474 150.13 113.456 149.707 113.209 148.815C112.935 147.824 113.373 146.773 114.271 146.27L164.148 118.34C165.079 117.818 166.253 118.302 166.547 119.327C166.765 120.089 166.431 120.902 165.741 121.291Z" fill="#588995"/>
<path d="M164.231 118.024C165.263 117.596 166.469 118.153 166.786 119.259L166.825 119.423C166.975 120.191 166.653 120.977 166.006 121.418L165.863 121.507L115.401 149.894C114.514 150.392 113.408 149.986 113.035 149.071L112.97 148.882C112.666 147.78 113.152 146.612 114.15 146.054L164.027 118.123L164.231 118.024ZM166.308 119.396C166.074 118.579 165.183 118.167 164.42 118.483L164.27 118.557L114.392 146.487C113.595 146.934 113.205 147.868 113.449 148.749L113.495 148.883C113.757 149.526 114.534 149.811 115.158 149.46L165.619 121.074L165.726 121.008C166.209 120.679 166.45 120.091 166.337 119.518L166.308 119.396Z" fill="#588995"/>
<path d="M309.091 120.284C305.845 128.195 293.472 134.078 279.069 134.078C264.666 134.078 252.293 128.195 249.047 120.284C244.99 123.732 242.758 127.789 242.758 132.252V165.317C242.758 177.082 258.987 186.616 279.069 186.616C299.151 186.616 315.379 177.082 315.379 165.317V132.252C315.379 127.789 312.946 123.732 309.091 120.284Z" fill="#ECF8FF"/>
<path d="M315.131 132.252C315.13 127.984 312.856 124.072 309.181 120.702C307.45 124.6 303.555 127.966 298.368 130.373C293.032 132.849 286.302 134.326 279.069 134.326C271.835 134.326 265.105 132.849 259.769 130.373C254.578 127.964 250.681 124.595 248.952 120.693C245.097 124.059 243.007 127.975 243.007 132.252V165.316C243.007 171.075 246.98 176.333 253.508 180.164C260.031 183.992 269.064 186.367 279.069 186.367C289.074 186.367 298.106 183.992 304.629 180.164C311.157 176.333 315.131 171.075 315.131 165.316V132.252ZM315.628 165.316C315.628 171.323 311.486 176.715 304.881 180.592C298.269 184.472 289.146 186.864 279.069 186.864C268.992 186.864 259.869 184.472 253.258 180.592C246.652 176.715 242.51 171.323 242.51 165.316V132.252C242.511 127.697 244.789 123.576 248.885 120.095C248.946 120.043 249.028 120.024 249.105 120.043C249.182 120.062 249.246 120.116 249.276 120.189C250.866 124.065 254.71 127.478 259.978 129.923C265.241 132.366 271.9 133.83 279.069 133.83C286.238 133.83 292.896 132.366 298.159 129.923C303.427 127.478 307.271 124.065 308.861 120.189L308.89 120.138C308.925 120.09 308.976 120.056 309.035 120.042C309.113 120.024 309.196 120.045 309.257 120.099C313.141 123.573 315.628 127.693 315.628 132.252V165.316Z" fill="#588995"/>
<path d="M279.071 182.564C297.221 182.564 311.933 173.936 311.933 163.293C311.933 152.65 297.221 144.022 279.071 144.022C260.922 144.022 246.209 152.65 246.209 163.293C246.209 173.936 260.922 182.564 279.071 182.564Z" fill="#588995"/>
<path d="M311.685 163.293C311.685 158.096 308.091 153.345 302.183 149.88C296.28 146.419 288.11 144.27 279.072 144.27C270.033 144.27 261.863 146.419 255.96 149.88C250.052 153.345 246.457 158.096 246.457 163.293C246.457 168.49 250.052 173.241 255.96 176.705C261.863 180.167 270.033 182.316 279.072 182.316C288.11 182.316 296.28 180.167 302.183 176.705C308.091 173.241 311.685 168.49 311.685 163.293ZM312.182 163.293C312.182 168.739 308.419 173.624 302.434 177.134C296.443 180.647 288.182 182.812 279.072 182.812C269.961 182.812 261.699 180.647 255.708 177.134C249.723 173.624 245.961 168.739 245.961 163.293C245.961 157.847 249.723 152.961 255.708 149.451C261.699 145.938 269.961 143.774 279.072 143.774C288.182 143.774 296.443 145.938 302.434 149.451C308.419 152.961 312.182 157.847 312.182 163.293Z" fill="#588995"/>
<path d="M279.072 130.428C293.86 130.428 305.848 123.889 305.848 115.823C305.848 107.757 293.86 101.218 279.072 101.218C264.284 101.218 252.296 107.757 252.296 115.823C252.296 123.889 264.284 130.428 279.072 130.428Z" fill="#C4DAE6"/>
<path d="M305.6 115.823C305.6 111.924 302.699 108.339 297.887 105.714C293.084 103.095 286.433 101.466 279.072 101.466C271.712 101.466 265.06 103.095 260.258 105.714C255.446 108.339 252.544 111.924 252.544 115.823C252.544 119.723 255.446 123.308 260.258 125.933C265.06 128.552 271.712 130.18 279.072 130.18C286.433 130.18 293.084 128.552 297.887 125.933C302.698 123.308 305.599 119.723 305.6 115.823ZM306.097 115.823C306.097 119.99 303.004 123.707 298.125 126.368C293.237 129.035 286.5 130.677 279.072 130.677C271.645 130.677 264.908 129.035 260.02 126.368C255.141 123.707 252.048 119.99 252.048 115.823C252.048 111.657 255.14 107.939 260.02 105.278C264.908 102.611 271.645 100.97 279.072 100.97C286.5 100.97 293.237 102.611 298.125 105.278C303.004 107.939 306.097 111.657 306.097 115.823Z" fill="#588995"/>
<path d="M279.072 106.086C292.257 106.086 303.211 111.36 305.442 118.257C305.645 117.446 305.848 116.634 305.848 115.823C305.848 107.709 293.88 101.218 279.072 101.218C264.264 101.218 252.296 107.709 252.296 115.823C252.296 116.634 252.499 117.649 252.702 118.257C254.73 111.36 265.887 106.086 279.072 106.086Z" fill="#588995"/>
<path d="M279.072 105.838C285.696 105.838 291.767 107.163 296.47 109.361C300.82 111.394 304.029 114.191 305.389 117.407C305.509 116.87 305.6 116.346 305.6 115.823C305.6 111.9 302.703 108.314 297.895 105.696C293.095 103.082 286.443 101.466 279.072 101.466C271.701 101.466 265.05 103.082 260.25 105.696C255.441 108.314 252.544 111.9 252.544 115.823C252.544 116.32 252.624 116.902 252.732 117.41C254.012 114.19 257.227 111.392 261.599 109.36C266.327 107.162 272.449 105.838 279.072 105.838ZM306.097 115.823C306.097 116.67 305.885 117.512 305.684 118.318C305.657 118.425 305.561 118.501 305.45 118.505C305.34 118.509 305.24 118.439 305.206 118.333C304.121 114.978 300.895 111.976 296.26 109.81C291.632 107.647 285.634 106.334 279.072 106.334C272.511 106.334 266.461 107.647 261.808 109.811C257.146 111.978 253.925 114.978 252.94 118.327C252.91 118.431 252.815 118.503 252.706 118.505C252.625 118.507 252.55 118.469 252.503 118.406L252.466 118.336L252.388 118.082C252.207 117.45 252.048 116.56 252.048 115.823C252.048 111.634 255.135 107.916 260.012 105.26C264.898 102.599 271.635 100.97 279.072 100.97C286.509 100.97 293.246 102.599 298.132 105.26C303.009 107.916 306.097 111.633 306.097 115.823Z" fill="#588995"/>
<path d="M247.145 147.436C243.685 145.328 244.069 138.586 248.091 132.29C251.906 126.101 257.952 122.666 261.316 125.087L264.884 127.4C268.345 129.508 267.961 136.251 263.939 142.547C259.919 148.843 254.078 152.171 250.714 149.749L247.145 147.436Z" fill="#C4DAE6"/>
<path d="M267.465 133.418C267.634 130.644 266.86 128.316 265.02 127.191L261.461 124.885L261.291 124.769C259.51 123.612 257.12 123.935 254.753 125.242C252.3 126.596 249.805 129.036 247.879 132.159L247.88 132.16C245.853 135.335 244.733 138.633 244.564 141.418C244.395 144.195 245.172 146.525 247.016 147.649L250.579 149.958C252.373 151.242 254.784 150.969 257.2 149.635C259.628 148.294 262.121 145.854 264.148 142.681L264.518 142.083C266.313 139.094 267.307 136.03 267.465 133.418ZM266.97 133.388C266.817 135.906 265.854 138.893 264.093 141.827L263.73 142.413C261.736 145.535 259.299 147.908 256.961 149.2C254.615 150.495 252.428 150.676 250.859 149.548L250.85 149.541L247.274 147.224L247.126 147.129C245.612 146.108 244.902 144.06 245.06 141.449C245.223 138.763 246.307 135.543 248.299 132.423L248.068 132.275L248.302 132.42C250.191 129.355 252.628 126.982 254.992 125.677C257.366 124.366 259.603 124.161 261.17 125.288L261.319 125.083L261.316 125.087L261.17 125.288L261.181 125.296L264.75 127.608L264.755 127.613C266.371 128.597 267.134 130.693 266.97 133.388ZM248.091 132.289L248.299 132.423L248.302 132.42L248.091 132.289Z" fill="#588995"/>
<path d="M251.381 134.667C255.263 128.493 261.218 125.255 264.685 127.433C268.151 129.612 267.814 136.384 263.933 142.557C260.052 148.731 254.096 151.97 250.63 149.791C247.164 147.612 247.5 140.841 251.381 134.667Z" fill="white"/>
<path d="M264.552 127.643C266.175 128.664 266.95 130.789 266.816 133.485C266.682 136.172 265.645 139.368 263.723 142.425C261.801 145.483 259.371 147.803 257.007 149.088C254.636 150.377 252.385 150.601 250.762 149.581C249.139 148.56 248.365 146.435 248.499 143.739C248.633 141.052 249.67 137.857 251.592 134.799C253.514 131.742 255.944 129.422 258.308 128.137C260.679 126.847 262.929 126.623 264.552 127.643ZM264.816 127.223C262.974 126.065 260.513 126.371 258.07 127.7C255.619 129.033 253.13 131.419 251.171 134.535C249.212 137.651 248.141 140.928 248.003 143.715C247.865 146.492 248.655 148.842 250.498 150.001C252.341 151.159 254.801 150.853 257.244 149.524C259.696 148.191 262.184 145.805 264.143 142.689C266.102 139.573 267.173 136.296 267.312 133.51C267.45 130.732 266.659 128.382 264.816 127.223Z" fill="#588995"/>
<path d="M309.526 159.698C312.987 157.589 312.602 150.847 308.581 144.551C304.765 138.362 298.72 134.927 295.356 137.348L291.787 139.661C288.326 141.769 288.711 148.512 292.732 154.808C296.753 161.104 302.593 164.432 305.957 162.011L309.526 159.698Z" fill="#C4DAE6"/>
<path d="M289.206 145.679C289.038 142.905 289.811 140.578 291.652 139.453L295.21 137.146L295.381 137.03C297.162 135.873 299.552 136.196 301.919 137.503C304.372 138.857 306.867 141.297 308.792 144.42L308.791 144.421C310.819 147.596 311.938 150.894 312.107 153.679C312.276 156.456 311.5 158.786 309.655 159.91L306.093 162.219C304.299 163.503 301.887 163.23 299.471 161.896C297.044 160.555 294.55 158.116 292.523 154.942L292.153 154.344C290.358 151.355 289.365 148.291 289.206 145.679ZM289.701 145.649C289.854 148.167 290.817 151.154 292.579 154.089L292.942 154.675C294.935 157.796 297.372 160.169 299.711 161.461C302.057 162.757 304.244 162.938 305.812 161.809L305.822 161.802L309.397 159.485L309.545 159.39C311.059 158.37 311.77 156.321 311.611 153.71C311.448 151.024 310.365 147.804 308.372 144.685L308.603 144.537L308.37 144.681C306.48 141.616 304.044 139.243 301.679 137.938C299.305 136.628 297.068 136.422 295.501 137.549L295.353 137.345L295.356 137.348L295.501 137.549L295.491 137.557L291.922 139.87L291.916 139.874C290.301 140.859 289.538 142.954 289.701 145.649ZM308.581 144.551L308.372 144.685L308.37 144.681L308.581 144.551Z" fill="#588995"/>
<path d="M305.29 146.928C301.409 140.754 295.453 137.516 291.987 139.695C288.521 141.874 288.857 148.645 292.738 154.819C296.619 160.992 302.575 164.231 306.041 162.052C309.507 159.873 309.171 153.102 305.29 146.928Z" fill="white"/>
<path d="M292.119 139.904C290.496 140.925 289.722 143.05 289.856 145.746C289.989 148.433 291.026 151.629 292.948 154.687C294.87 157.744 297.301 160.064 299.664 161.349C302.035 162.639 304.287 162.862 305.91 161.842C307.533 160.822 308.306 158.696 308.172 156.001C308.039 153.314 307.002 150.118 305.08 147.06C303.157 144.003 300.727 141.683 298.364 140.398C295.993 139.108 293.742 138.884 292.119 139.904ZM291.855 139.484C293.698 138.326 296.158 138.633 298.602 139.961C301.053 141.294 303.541 143.68 305.5 146.796C307.459 149.912 308.53 153.189 308.669 155.976C308.807 158.753 308.016 161.103 306.174 162.262C304.331 163.421 301.87 163.114 299.427 161.785C296.976 160.452 294.487 158.067 292.528 154.951C290.569 151.834 289.498 148.558 289.36 145.771C289.222 142.993 290.012 140.643 291.855 139.484Z" fill="#588995"/>
<path d="M279.745 144.745L274.844 162.836L281.504 180.376L297.555 160.655L290.895 143.113L279.745 144.745Z" fill="#588995"/>
<path d="M290.943 142.87C291.025 142.886 291.096 142.943 291.127 143.025L297.787 160.566C297.818 160.649 297.804 160.743 297.748 160.811L281.697 180.533C281.641 180.601 281.553 180.635 281.465 180.621C281.377 180.607 281.303 180.547 281.272 180.464L274.612 162.924C274.593 162.875 274.591 162.821 274.605 162.771L279.505 144.68L279.534 144.614C279.572 144.553 279.636 144.51 279.709 144.499L279.744 144.744L279.744 144.745L279.709 144.499L290.859 142.867L290.943 142.87ZM279.942 144.967L275.104 162.821L281.584 179.885L297.271 160.609L290.732 143.387L279.942 144.967Z" fill="#588995"/>
<path d="M274.845 162.839L251.445 158.962L258.105 176.504L281.505 180.379L274.845 162.839Z" fill="#C4DAE6"/>
<path d="M274.885 162.594L274.844 162.839L274.845 162.839L274.885 162.594C274.973 162.608 275.045 162.668 275.077 162.75L281.737 180.292C281.768 180.375 281.754 180.468 281.698 180.537C281.641 180.606 281.552 180.639 281.464 180.624L281.505 180.379L281.504 180.379L281.464 180.624L258.065 176.749L258.105 176.503L258.105 176.504L258.065 176.749C257.978 176.734 257.904 176.675 257.873 176.592L251.213 159.051C251.181 158.968 251.197 158.874 251.253 158.806C251.309 158.737 251.398 158.703 251.486 158.717L274.885 162.594ZM258.286 176.282L281.119 180.063L274.664 163.06L251.83 159.277L258.286 176.282Z" fill="#588995"/>
<path d="M293.044 141.935L269.488 139.605L255.792 141.708L279.348 144.038L293.044 141.935Z" fill="#C4DAE6"/>
<path d="M293.113 141.696C293.215 141.726 293.289 141.819 293.292 141.928C293.296 142.053 293.206 142.161 293.082 142.18L279.385 144.284L279.323 144.286L279.348 144.04L279.347 144.038L279.323 144.286L255.767 141.955L255.722 141.946C255.62 141.916 255.546 141.824 255.543 141.714C255.54 141.589 255.631 141.481 255.754 141.462L269.451 139.36L269.513 139.358L293.068 141.688L293.113 141.696ZM269.495 139.854L257.776 141.654L279.34 143.787L291.062 141.987L269.495 139.854Z" fill="#588995"/>
<path d="M279.35 144.037L255.794 141.707L249.812 163.8L273.259 166.171L279.35 144.037Z" fill="white"/>
<path d="M279.374 143.79C279.447 143.797 279.513 143.836 279.555 143.896C279.596 143.956 279.609 144.032 279.59 144.103L273.499 166.237L273.483 166.279C273.438 166.372 273.339 166.429 273.234 166.419L273.26 166.171L273.259 166.171L273.234 166.419L249.788 164.048L249.734 164.036C249.683 164.019 249.638 163.986 249.607 163.942C249.566 163.882 249.554 163.806 249.573 163.735L255.555 141.641C255.586 141.524 255.699 141.448 255.819 141.46L279.374 143.79ZM255.978 141.973L250.128 163.582L273.075 165.903L279.032 144.254L255.978 141.973Z" fill="#588995"/>
<path d="M279.349 144.04L279.719 145.015L293.374 142.803L293.046 141.937L279.349 144.04Z" fill="#588995"/>
<path d="M279.759 145.26C279.643 145.279 279.529 145.213 279.487 145.103L279.719 145.016L279.759 145.26ZM293.094 141.693C293.176 141.709 293.247 141.767 293.278 141.849L293.606 142.716C293.632 142.785 293.627 142.863 293.589 142.928C293.552 142.992 293.487 143.036 293.414 143.048L279.759 145.26L279.719 145.015L279.487 145.103L279.117 144.128C279.09 144.058 279.097 143.98 279.135 143.915C279.172 143.85 279.238 143.806 279.312 143.795L293.008 141.692L293.094 141.693ZM279.69 144.239L279.879 144.737L293.034 142.606L292.884 142.213L279.69 144.239Z" fill="#588995"/>
<path d="M279.352 144.035L279.722 145.01L273.874 166.804L273.261 166.17L279.352 144.035Z" fill="#588995"/>
<path d="M279.34 143.787C279.447 143.782 279.545 143.847 279.584 143.947L279.954 144.922C279.972 144.97 279.975 145.024 279.962 145.075L279.721 145.01L279.72 145.01L279.962 145.075L274.114 166.868L273.874 166.803L273.874 166.804L274.114 166.868C274.091 166.955 274.023 167.022 273.937 167.045C273.871 167.061 273.803 167.051 273.747 167.018L273.696 166.976L273.083 166.342C273.022 166.279 272.999 166.189 273.022 166.104L279.112 143.969C279.141 143.866 279.232 143.792 279.34 143.787ZM273.538 166.098L273.747 166.316L279.46 145.024L279.389 144.835L273.538 166.098Z" fill="#588995"/>
<path d="M273.261 166.175L273.874 166.809L250.318 164.479L249.814 163.804L273.261 166.175Z" fill="#588995"/>
<path d="M250.294 164.727C250.225 164.72 250.161 164.684 250.12 164.628L250.319 164.48L250.294 164.727ZM273.285 165.928C273.344 165.934 273.398 165.96 273.439 166.002L274.053 166.637L274.097 166.699C274.13 166.767 274.131 166.847 274.097 166.917C274.052 167.011 273.953 167.067 273.849 167.057L250.294 164.727L250.319 164.479L250.12 164.628L249.615 163.953C249.556 163.874 249.549 163.768 249.598 163.682C249.646 163.596 249.74 163.548 249.838 163.557L273.285 165.928L273.26 166.175L273.261 166.175L273.285 165.928ZM250.351 164.107L250.451 164.242L273.225 166.495L273.145 166.412L250.351 164.107Z" fill="#588995"/>
<path d="M254.257 140.931L258.761 141.699L262.214 137.415L257.859 136.713L254.257 140.931Z" fill="white"/>
<path d="M262.253 137.169C262.34 137.183 262.413 137.243 262.445 137.325C262.477 137.408 262.463 137.502 262.407 137.571L258.955 141.855C258.898 141.925 258.808 141.959 258.719 141.944L258.761 141.699L258.76 141.698L258.719 141.944L254.215 141.176C254.127 141.161 254.054 141.099 254.023 141.015C253.993 140.931 254.01 140.837 254.068 140.769L257.67 136.552C257.727 136.486 257.814 136.455 257.899 136.468L262.253 137.169ZM254.729 140.759L258.659 141.429L261.752 137.591L257.957 136.98L254.729 140.759Z" fill="#588995"/>
<path d="M254.259 140.932L257.055 148.295L261.517 148.954L258.763 141.7L254.259 140.932Z" fill="#C4DAE6"/>
<path d="M258.804 141.455L258.867 141.474C258.925 141.501 258.971 141.55 258.994 141.612L261.749 148.866C261.781 148.948 261.765 149.041 261.71 149.109C261.655 149.178 261.568 149.213 261.481 149.2L257.019 148.54C256.93 148.527 256.855 148.467 256.823 148.383L257.055 148.295L257.055 148.294L256.823 148.383L254.027 141.02C253.995 140.936 254.01 140.842 254.067 140.774C254.123 140.705 254.213 140.672 254.301 140.687L258.804 141.455ZM257.235 148.07L261.134 148.647L258.58 141.921L254.645 141.249L257.235 148.07Z" fill="#588995"/>
<path d="M258.762 141.694L261.516 148.948L264.969 144.664L262.215 137.41L258.762 141.694Z" fill="#588995"/>
<path d="M262.254 137.165C262.341 137.179 262.415 137.238 262.447 137.322L265.202 144.576C265.233 144.658 265.218 144.751 265.163 144.82L261.709 149.105C261.654 149.174 261.565 149.208 261.478 149.194C261.412 149.184 261.353 149.147 261.315 149.095L261.285 149.037L258.53 141.782L258.515 141.719C258.509 141.655 258.527 141.59 258.569 141.539L262.021 137.254L262.069 137.209C262.121 137.171 262.188 137.154 262.254 137.165ZM259.044 141.738L261.594 148.454L264.686 144.619L262.136 137.903L259.044 141.738Z" fill="#588995"/>
<path d="M304.661 147.529C306.074 146.826 306.766 146.067 307.103 145.428L307.105 145.421C307.209 145.22 307.279 145.033 307.323 144.861C307.68 143.862 308.411 141.47 309.048 137.184C310.856 131.549 309.68 125.661 308.641 123.459C307.587 121.227 297.306 113.506 293.932 111.224C290.557 108.945 275.752 104.806 272.892 104.012C270.031 103.22 268.245 103.145 264.602 104.813C260.997 106.465 261.152 116.913 261.609 121.814C262.064 126.719 265.227 128.081 265.227 128.081L272.723 132.084L273.016 133.302L289.549 144.101L296.482 148.283L296.675 149.293C297.044 149.494 297.382 149.651 297.647 149.739C299.218 150.266 301.374 149.163 304.662 147.525L304.661 147.529Z" fill="#588995"/>
<path d="M308.028 122.219C307.633 121.782 307.126 121.283 306.541 120.744C305.37 119.665 303.875 118.415 302.311 117.166C299.574 114.981 296.615 112.79 294.784 111.509L294.071 111.018L293.712 110.793C292.799 110.256 291.378 109.645 289.711 109.015C287.798 108.292 285.536 107.535 283.294 106.825C278.809 105.405 274.389 104.17 272.959 103.772L272.429 103.631C271.218 103.322 270.161 103.161 269.022 103.243C267.722 103.337 266.334 103.747 264.498 104.587L264.316 104.679C263.421 105.172 262.779 106.163 262.316 107.39C261.82 108.706 261.514 110.344 261.335 112.069C261.023 115.09 261.102 118.419 261.28 120.852L261.361 121.837C261.594 124.344 262.522 125.96 263.403 126.952C263.843 127.446 264.269 127.783 264.587 127.998C264.746 128.105 264.879 128.182 264.973 128.232C265.02 128.257 265.058 128.276 265.084 128.289C265.094 128.294 265.103 128.298 265.11 128.301L272.508 132.25L272.775 133.36C272.786 133.406 272.81 133.448 272.844 133.48L272.881 133.509L289.413 144.309L289.556 144.09L289.549 144.101L289.413 144.309L289.42 144.314L289.421 144.313L296.259 148.438L296.431 149.34C296.445 149.413 296.491 149.476 296.557 149.512L296.675 149.294L296.676 149.294L296.557 149.512C296.932 149.715 297.284 149.881 297.568 149.975L297.569 149.975C298.437 150.265 299.436 150.097 300.595 149.678C301.753 149.259 303.123 148.57 304.752 147.758C304.758 147.756 304.765 147.755 304.771 147.752C306.22 147.031 306.956 146.238 307.323 145.544C307.325 145.539 307.327 145.534 307.329 145.528C307.436 145.321 307.51 145.126 307.559 144.942C307.923 143.924 308.654 141.522 309.291 137.239C310.201 134.39 310.358 131.484 310.159 129.014C309.959 126.542 309.402 124.488 308.866 123.353L308.804 123.232C308.642 122.941 308.371 122.597 308.028 122.219ZM307.661 122.553C307.95 122.873 308.166 123.145 308.304 123.364L308.417 123.565C308.92 124.632 309.468 126.624 309.664 129.054C309.86 131.482 309.703 134.328 308.811 137.108L308.802 137.148L309.048 137.184L309.05 137.185L308.802 137.148C308.168 141.419 307.44 143.795 307.088 144.777L307.082 144.8L307.319 144.86L307.323 144.861L307.082 144.8C307.043 144.952 306.98 145.121 306.884 145.308L306.881 145.317C306.575 145.896 305.93 146.616 304.568 147.297C304.563 147.299 304.557 147.3 304.551 147.303C302.902 148.124 301.556 148.802 300.427 149.21C299.294 149.62 298.429 149.74 297.726 149.504L297.647 149.74L297.646 149.739L297.726 149.504L297.725 149.503L297.527 149.43C297.343 149.355 297.13 149.253 296.897 149.13L296.726 148.237L296.711 148.186C296.691 148.138 296.655 148.098 296.61 148.071L289.685 143.894L289.684 143.893L273.235 133.147L272.964 132.026C272.952 131.975 272.924 131.928 272.884 131.894L272.84 131.865L265.344 127.862L265.327 127.854L265.326 127.853L265.325 127.854C265.324 127.854 265.323 127.852 265.321 127.851C265.316 127.849 265.309 127.846 265.299 127.841C265.279 127.832 265.248 127.816 265.208 127.795C265.127 127.752 265.009 127.683 264.865 127.586C264.576 127.391 264.182 127.081 263.774 126.622C262.96 125.706 262.079 124.188 261.856 121.791L261.775 120.814C261.599 118.401 261.521 115.104 261.83 112.121C262.006 110.415 262.307 108.825 262.782 107.565C263.229 106.377 263.815 105.523 264.555 105.115L264.705 105.039C266.512 104.212 267.84 103.825 269.058 103.737C270.124 103.661 271.122 103.811 272.306 104.113L272.825 104.251C274.255 104.648 278.667 105.88 283.143 107.298C285.382 108.007 287.634 108.761 289.535 109.48C291.444 110.201 292.977 110.878 293.794 111.43L293.794 111.429C295.475 112.566 298.882 115.063 302.002 117.554C303.561 118.8 305.046 120.041 306.204 121.109C306.784 121.643 307.279 122.131 307.661 122.553Z" fill="#588995"/>
<path d="M296.496 132.791C292.402 130.631 286.972 127.639 282.714 127.594C278.452 127.548 280.591 129.133 283.229 130.853C285.78 132.517 298.058 142.307 303.683 138.98C303.978 138.805 304.023 138.394 303.773 138.157C302.686 137.128 299.781 134.523 296.496 132.791Z" fill="white"/>
<path d="M303.943 137.977L303.943 137.978C302.852 136.945 299.927 134.319 296.611 132.571L295.019 131.73C293.372 130.863 291.574 129.943 289.764 129.171C287.354 128.144 284.895 127.368 282.717 127.345L282.333 127.346C281.477 127.358 280.881 127.446 280.519 127.617C280.306 127.718 280.135 127.867 280.07 128.08C280.007 128.291 280.067 128.5 280.166 128.68C280.36 129.034 280.781 129.419 281.285 129.808C281.542 130.006 281.829 130.212 282.135 130.422L283.093 131.061C284.342 131.875 288.084 134.761 292.184 137.006C294.238 138.13 296.402 139.107 298.415 139.59C300.297 140.042 302.084 140.071 303.525 139.349L303.81 139.194L303.887 139.141C304.253 138.859 304.29 138.304 303.943 137.977ZM303.644 138.388C303.725 138.513 303.69 138.687 303.557 138.766L303.303 138.905C302.013 139.552 300.365 139.547 298.531 139.107C296.58 138.638 294.46 137.686 292.423 136.571C288.34 134.336 284.667 131.494 283.364 130.645L282.415 130.012C282.116 129.806 281.836 129.607 281.588 129.415C281.082 129.025 280.74 128.694 280.602 128.442C280.535 128.32 280.537 128.255 280.546 128.223C280.555 128.195 280.588 128.134 280.732 128.066C280.995 127.942 281.497 127.855 282.333 127.843L282.711 127.842C284.791 127.864 287.176 128.608 289.569 129.628C291.362 130.391 293.143 131.304 294.787 132.169L296.38 133.01C299.634 134.727 302.519 137.313 303.602 138.338L303.644 138.388Z" fill="#588995"/>
<path d="M275.657 131.604C279.475 128.247 274.302 125.441 269.123 124.363C264.781 123.458 264.826 113.33 265.684 109.178C266.324 106.077 268.321 104.255 270.836 103.557C268.984 103.292 267.303 103.573 264.605 104.808C261 106.46 261.155 116.907 261.612 121.808C262.067 126.713 265.23 128.076 265.23 128.076L272.726 132.078L273.018 133.293C274.145 132.836 274.963 132.212 275.659 131.601L275.657 131.603L275.657 131.604Z" fill="#C4DAE6"/>
<path d="M271.084 103.54C271.076 103.423 270.987 103.327 270.871 103.31C268.957 103.037 267.227 103.334 264.501 104.581L264.319 104.674C263.424 105.167 262.781 106.157 262.319 107.384C261.823 108.7 261.516 110.338 261.338 112.063C261.026 115.085 261.105 118.414 261.283 120.847L261.364 121.831C261.597 124.338 262.525 125.954 263.406 126.946C263.845 127.44 264.271 127.778 264.589 127.992C264.748 128.099 264.881 128.176 264.976 128.226C265.023 128.251 265.06 128.27 265.087 128.283C265.1 128.289 265.111 128.295 265.118 128.298C265.119 128.299 265.121 128.299 265.122 128.299L272.511 132.244L272.776 133.351C272.793 133.421 272.84 133.481 272.904 133.514C272.952 133.539 273.007 133.547 273.06 133.538L273.111 133.524L273.533 133.339C274.48 132.892 275.201 132.334 275.817 131.793C275.818 131.792 275.82 131.792 275.821 131.791L275.999 131.628C276.86 130.816 277.254 130 277.223 129.199C277.19 128.349 276.683 127.59 275.926 126.94C274.415 125.643 271.776 124.662 269.174 124.12L268.991 124.075C268.094 123.821 267.392 123.113 266.854 122.077C266.28 120.972 265.91 119.523 265.7 117.955C265.279 114.819 265.503 111.278 265.927 109.229L265.989 108.95C266.625 106.298 268.31 104.669 270.453 103.935L270.903 103.796L270.98 103.759C271.048 103.711 271.09 103.628 271.084 103.54ZM269.654 103.716C267.665 104.595 266.12 106.274 265.507 108.832L265.441 109.128C265.006 111.23 264.779 114.829 265.208 118.021C265.422 119.617 265.801 121.129 266.413 122.307C266.986 123.411 267.78 124.248 268.854 124.552L269.072 124.606C271.648 125.142 274.187 126.103 275.602 127.317C276.308 127.923 276.701 128.563 276.726 129.217C276.751 129.864 276.419 130.6 275.503 131.409C275.501 131.41 275.499 131.411 275.497 131.412L275.496 131.414L275.496 131.415L275.494 131.415C274.867 131.966 274.146 132.518 273.19 132.947L272.967 132.02C272.951 131.951 272.905 131.893 272.843 131.859L265.347 127.856L265.328 127.848C265.327 127.848 265.325 127.847 265.323 127.846C265.319 127.844 265.312 127.84 265.302 127.836C265.282 127.826 265.251 127.811 265.211 127.789C265.13 127.746 265.012 127.677 264.868 127.58C264.579 127.385 264.185 127.076 263.777 126.617C262.964 125.701 262.081 124.182 261.859 121.785L261.778 120.808C261.601 118.395 261.524 115.098 261.832 112.115C262.008 110.41 262.31 108.819 262.785 107.559C263.232 106.371 263.818 105.518 264.558 105.109L264.708 105.034C266.804 104.075 268.26 103.708 269.654 103.716Z" fill="#588995"/>
<path d="M291.242 110.987C288.844 115.645 289.072 121.344 290.625 127.092C290.7 127.37 290.441 127.623 290.164 127.539C288.73 127.111 285.193 126.104 282.766 125.866C279.659 125.559 277.634 125.126 276.403 120.539C275.249 116.245 275.673 109.953 278.582 107.348C278.934 107.033 279.416 106.908 279.88 107.006C281.662 107.391 286.697 108.57 291.063 110.484C291.257 110.568 291.339 110.801 291.239 110.988L291.241 110.987L291.242 110.987Z" fill="white"/>
<path d="M291.476 111.062C291.612 110.755 291.475 110.392 291.162 110.256L291.162 110.258C286.772 108.333 281.718 107.149 279.932 106.764L279.931 106.763L279.728 106.733C279.254 106.689 278.778 106.841 278.418 107.163L278.417 107.163C276.898 108.523 276.051 110.818 275.723 113.277C275.414 115.59 275.556 118.09 276.058 120.189L276.163 120.604C276.786 122.924 277.622 124.245 278.74 125.012C279.709 125.678 280.861 125.904 282.171 126.053L282.742 126.113C285.142 126.349 288.656 127.348 290.093 127.778L290.094 127.777C290.528 127.907 290.936 127.543 290.882 127.114L290.865 127.027C289.319 121.306 289.106 115.678 291.463 111.101L291.476 111.062ZM290.965 110.712C291.026 110.739 291.052 110.812 291.021 110.871L291.165 110.948L291.142 110.936L291.021 110.871C291.018 110.877 291.016 110.884 291.013 110.89C288.583 115.624 288.827 121.39 290.385 127.157L290.39 127.19C290.389 127.255 290.334 127.308 290.268 127.307L290.236 127.301L288.813 126.892C287.093 126.415 284.631 125.799 282.791 125.618L282.222 125.559C280.93 125.411 279.887 125.197 279.022 124.603C278.042 123.93 277.25 122.74 276.642 120.474L276.541 120.072C276.055 118.034 275.914 115.597 276.215 113.343C276.538 110.932 277.358 108.778 278.747 107.534L278.748 107.533C279.039 107.272 279.441 107.167 279.828 107.25L279.829 107.249C281.497 107.609 286.008 108.664 290.143 110.364L290.963 110.712L290.965 110.712L291.056 110.5L291.147 110.293L290.965 110.712Z" fill="#588995"/>
<path d="M293.212 127.442C293.212 127.442 302.271 131.739 307.289 137.582C307.706 137.26 308.045 136.747 308.25 136.168C309.866 131.121 308.814 125.845 307.883 123.873C306.939 121.874 297.73 114.956 294.705 112.914C294.58 112.83 294.435 112.741 294.276 112.651L293.669 112.953C291.709 117.672 291.677 123.109 293.212 127.442Z" fill="#588995"/>
<path d="M307.354 122.745C306.999 122.353 306.543 121.905 306.019 121.422C304.969 120.455 303.63 119.335 302.229 118.216C299.427 115.978 296.364 113.734 294.845 112.708L294.747 112.852L294.802 112.77L294.845 112.708L294.844 112.708L294.633 112.573C294.559 112.527 294.48 112.481 294.398 112.435C294.344 112.404 294.282 112.395 294.223 112.408L294.166 112.429L293.558 112.731C293.505 112.758 293.462 112.803 293.439 112.858L293.668 112.953L293.669 112.954L293.439 112.858C291.456 117.634 291.423 123.135 292.978 127.525L292.998 127.569C293.015 127.597 293.037 127.621 293.063 127.64L293.106 127.666L293.106 127.667C293.107 127.667 293.109 127.668 293.111 127.669C293.115 127.671 293.122 127.674 293.13 127.678C293.147 127.686 293.173 127.698 293.206 127.714C293.273 127.746 293.372 127.795 293.5 127.86C293.756 127.988 294.127 128.178 294.588 128.423C295.512 128.916 296.796 129.632 298.237 130.531C300.941 132.219 304.182 134.539 306.624 137.206L307.101 137.744L307.135 137.778C307.21 137.837 307.314 137.847 307.4 137.805L307.44 137.779L307.61 137.636C307.993 137.281 308.294 136.786 308.484 136.25L308.487 136.244L308.632 135.762C309.322 133.357 309.437 130.929 309.269 128.848C309.09 126.631 308.589 124.787 308.107 123.767L308.051 123.657C307.904 123.394 307.66 123.084 307.354 122.745ZM306.986 123.078C307.331 123.46 307.558 123.764 307.659 123.979L307.658 123.979C308.107 124.931 308.598 126.712 308.773 128.887C308.949 131.059 308.809 133.606 308.013 136.092C307.851 136.546 307.604 136.947 307.311 137.233C304.791 134.363 301.337 131.881 298.5 130.11C297.048 129.204 295.754 128.481 294.822 127.985C294.356 127.737 293.981 127.545 293.722 127.416C293.592 127.351 293.491 127.301 293.423 127.267C293.42 127.266 293.417 127.264 293.414 127.263C291.942 123.029 291.977 117.74 293.864 113.134L294.267 112.933C294.376 112.998 294.477 113.059 294.567 113.119L294.566 113.12C296.072 114.136 299.125 116.372 301.919 118.604C303.316 119.719 304.645 120.832 305.682 121.788C306.201 122.266 306.645 122.702 306.986 123.078Z" fill="#588995"/>
<path d="M270.397 119.199C269.19 112.492 269.636 110.625 272.067 105.56L272.157 105.604C269.699 110.725 269.286 112.458 270.495 119.182L270.395 119.2L270.397 119.199L270.397 119.199Z" fill="white"/>
<path d="M272.392 105.522C272.37 105.459 272.324 105.408 272.265 105.379L272.174 105.336L272.068 105.561L272.067 105.56L272.174 105.336C272.05 105.277 271.901 105.329 271.842 105.453L271.409 106.369C270.45 108.431 269.858 109.997 269.621 111.73C269.352 113.705 269.548 115.875 270.149 119.22C270.152 119.249 270.157 119.279 270.17 119.306C270.191 119.35 270.225 119.381 270.263 119.406C270.266 119.408 270.269 119.411 270.273 119.414C270.294 119.425 270.315 119.433 270.338 119.439C270.341 119.439 270.343 119.441 270.346 119.441C270.363 119.445 270.38 119.444 270.398 119.444C270.41 119.444 270.421 119.445 270.432 119.443L270.439 119.444L270.54 119.426C270.674 119.401 270.763 119.272 270.739 119.138L270.532 117.936C270.094 115.263 269.975 113.464 270.197 111.825C270.451 109.954 271.153 108.271 272.382 105.711L272.398 105.665C272.41 105.618 272.408 105.568 272.392 105.522Z" fill="#588995"/>
<path d="M270.479 119.192C269.271 112.485 269.717 110.617 272.148 105.552L272.239 105.596C269.78 110.717 269.367 112.451 270.576 119.174L270.476 119.192L270.479 119.192Z" fill="#C4DAE6"/>
<path d="M272.473 105.514C272.451 105.452 272.406 105.4 272.346 105.372L272.255 105.329L272.149 105.553L272.149 105.552L272.255 105.329C272.132 105.269 271.983 105.322 271.924 105.445L271.491 106.361C270.532 108.423 269.939 109.99 269.703 111.723C269.433 113.697 269.629 115.869 270.23 119.215C270.231 119.225 270.232 119.236 270.234 119.246C270.259 119.36 270.359 119.439 270.472 119.441L270.521 119.436L270.621 119.419C270.756 119.394 270.844 119.265 270.82 119.13L270.613 117.929C270.175 115.255 270.056 113.456 270.278 111.818C270.532 109.946 271.234 108.264 272.463 105.704L272.479 105.658C272.491 105.611 272.489 105.561 272.473 105.514Z" fill="#588995"/>
<path d="M273.517 127.686C275.424 128.947 275.319 130.8 273.287 131.818C271.254 132.84 268.06 132.641 266.153 131.38C264.246 130.118 264.349 128.266 266.386 127.247C268.419 126.225 271.613 126.424 273.519 127.685L273.518 127.687L273.517 127.686Z" fill="white"/>
<path d="M275.127 129.857C275.175 128.997 274.658 128.152 273.675 127.495L273.657 127.478L273.466 127.358C272.493 126.772 271.256 126.438 270.015 126.361C268.693 126.28 267.34 126.49 266.275 127.025L266.08 127.127C265.134 127.655 264.588 128.394 264.543 129.208C264.494 130.075 265.019 130.927 266.016 131.587C267.014 132.247 268.334 132.621 269.657 132.703C270.897 132.779 272.164 132.6 273.195 132.136L273.398 132.04C274.461 131.507 275.078 130.725 275.127 129.857ZM273.38 127.893C274.29 128.495 274.666 129.2 274.631 129.829C274.596 130.457 274.143 131.111 273.175 131.596L272.991 131.684C272.05 132.107 270.868 132.28 269.688 132.207C268.429 132.13 267.198 131.774 266.29 131.173C265.38 130.571 265.003 129.865 265.038 129.236C265.074 128.608 265.526 127.954 266.496 127.469L266.374 127.222L266.419 127.31L266.496 127.469L266.498 127.469L266.682 127.381C267.623 126.958 268.804 126.785 269.985 126.858C271.235 126.935 272.456 127.286 273.363 127.879C273.369 127.884 273.375 127.888 273.381 127.892L273.38 127.893Z" fill="#588995"/>
<path d="M298.016 144.173C299.923 145.434 299.817 147.287 297.785 148.305C295.752 149.327 292.558 149.128 290.652 147.867C288.745 146.605 288.848 144.753 290.885 143.734C292.918 142.712 296.112 142.911 298.018 144.172L298.016 144.173Z" fill="white"/>
<path d="M299.625 146.345C299.674 145.483 299.155 144.637 298.17 143.979L298.156 143.965L297.964 143.845C296.992 143.259 295.755 142.925 294.514 142.848C293.191 142.767 291.839 142.977 290.774 143.512L290.579 143.614C289.633 144.143 289.087 144.881 289.041 145.695C288.993 146.562 289.518 147.415 290.514 148.074C291.512 148.734 292.833 149.108 294.156 149.19C295.396 149.266 296.663 149.087 297.694 148.624L297.897 148.527C298.96 147.995 299.577 147.212 299.625 146.345ZM298.044 144.494C298.834 145.069 299.163 145.726 299.13 146.316C299.094 146.945 298.642 147.598 297.674 148.083L297.489 148.171C296.549 148.594 295.367 148.767 294.187 148.694C292.928 148.617 291.697 148.261 290.789 147.66C289.879 147.058 289.502 146.352 289.537 145.723C289.572 145.095 290.025 144.442 290.995 143.956L290.873 143.709L290.918 143.797L290.995 143.956L290.997 143.956L291.181 143.868C292.122 143.445 293.303 143.272 294.484 143.345C295.737 143.422 296.962 143.774 297.869 144.371L297.879 144.38L298.044 144.494Z" fill="#588995"/>
<path d="M282.865 139.733L282.767 139.67L287.921 137.102C288.648 136.74 289.576 136.014 289.891 135.282L289.984 135.323C289.66 136.079 288.71 136.825 287.967 137.194L282.866 139.735L282.864 139.734L282.865 139.733Z" fill="white"/>
<path d="M290.128 135.12L290.084 135.096L289.992 135.055L289.893 135.282L289.891 135.282L289.992 135.055C289.931 135.028 289.862 135.027 289.801 135.051C289.739 135.075 289.69 135.123 289.664 135.184C289.526 135.502 289.245 135.837 288.896 136.144C288.55 136.448 288.154 136.708 287.81 136.88L282.656 139.447C282.576 139.487 282.524 139.567 282.519 139.656C282.514 139.745 282.557 139.83 282.632 139.879L282.73 139.94C282.78 139.973 282.838 139.989 282.897 139.981L282.976 139.958L288.078 137.417C288.468 137.222 288.91 136.932 289.297 136.59C289.681 136.251 290.03 135.846 290.212 135.42C290.259 135.311 290.221 135.186 290.128 135.12Z" fill="#588995"/>
<path d="M282.946 139.785L282.848 139.722L287.963 137.174C288.69 136.813 289.617 136.086 289.933 135.354L290.025 135.395C289.702 136.151 288.752 136.897 288.009 137.267L282.947 139.788L282.946 139.787L282.946 139.785Z" fill="#C4DAE6"/>
<path d="M290.169 135.192L290.126 135.168L290.033 135.127L289.934 135.354L289.933 135.354L290.033 135.127C289.973 135.101 289.904 135.099 289.842 135.123C289.781 135.148 289.731 135.195 289.705 135.256C289.568 135.574 289.287 135.91 288.938 136.216C288.592 136.52 288.196 136.781 287.852 136.952L282.738 139.5L282.683 139.536C282.634 139.58 282.604 139.641 282.6 139.708C282.596 139.775 282.62 139.839 282.663 139.888L282.713 139.931L282.811 139.994L282.812 139.994C282.884 140.041 282.977 140.051 283.058 140.011L288.119 137.489C288.51 137.294 288.952 137.004 289.339 136.663C289.723 136.324 290.071 135.918 290.254 135.492C290.301 135.383 290.263 135.258 290.169 135.192Z" fill="#588995"/>
<path d="M288.958 143.718L288.86 143.655C291.153 142.512 293.357 142.04 295.3 142.304C295.519 142.333 295.737 142.299 295.928 142.205L298.825 140.762C299.759 140.296 299.82 139.563 299.822 139.556L299.922 139.563C299.921 139.596 299.861 140.361 298.871 140.853L295.973 142.296C295.765 142.401 295.527 142.438 295.287 142.406C293.364 142.144 291.233 142.588 288.958 143.721L288.956 143.719L288.958 143.718Z" fill="white"/>
<path d="M300.168 139.522C300.149 139.411 300.057 139.324 299.941 139.315L299.839 139.308L299.823 139.556L299.583 139.489C299.58 139.498 299.578 139.506 299.578 139.508L299.575 139.523L299.574 139.533C299.574 139.537 299.573 139.542 299.572 139.55C299.569 139.564 299.565 139.588 299.557 139.618C299.541 139.678 299.51 139.767 299.455 139.868C299.346 140.068 299.133 140.331 298.714 140.539L295.817 141.982L295.706 142.027C295.59 142.064 295.463 142.075 295.334 142.059C293.327 141.786 291.072 142.274 288.749 143.432C288.669 143.472 288.616 143.552 288.611 143.641C288.606 143.73 288.65 143.815 288.725 143.863L288.814 143.921C288.888 143.973 288.985 143.984 289.068 143.942C291.313 142.825 293.393 142.398 295.253 142.652L295.254 142.652L295.287 142.406L295.297 142.333L295.254 142.652C295.506 142.686 295.757 142.656 295.987 142.563L296.084 142.518L298.981 141.076C300.077 140.53 300.168 139.664 300.171 139.571L300.168 139.522ZM299.839 139.308C299.722 139.3 299.615 139.375 299.583 139.489L299.821 139.556L299.839 139.308Z" fill="#588995"/>
<path d="M289.012 143.756L288.914 143.692C291.207 142.55 293.383 142.092 295.325 142.358C295.543 142.387 295.761 142.353 295.952 142.258L298.85 140.815C299.783 140.35 299.844 139.617 299.846 139.609L299.947 139.617C299.946 139.649 299.885 140.414 298.895 140.907L295.998 142.35C295.789 142.454 295.552 142.492 295.311 142.46C293.389 142.197 291.287 142.626 289.012 143.759L289.011 143.758L289.012 143.756Z" fill="#C4DAE6"/>
<path d="M300.192 139.576C300.173 139.465 300.081 139.377 299.965 139.369L299.864 139.361L299.847 139.609L299.607 139.542C299.604 139.552 299.603 139.559 299.602 139.562L299.6 139.577L299.599 139.587C299.598 139.59 299.597 139.596 299.596 139.603C299.594 139.618 299.588 139.642 299.58 139.672C299.564 139.732 299.534 139.82 299.479 139.921C299.37 140.122 299.157 140.384 298.739 140.593L295.842 142.036L295.73 142.081C295.614 142.118 295.487 142.129 295.359 142.112L294.98 142.069C293.075 141.9 290.982 142.385 288.803 143.47L288.915 143.693L288.904 143.709L288.913 143.693L288.803 143.47C288.723 143.51 288.671 143.59 288.666 143.679C288.661 143.768 288.704 143.853 288.779 143.901L288.868 143.959C288.942 144.012 289.039 144.024 289.123 143.982C291.366 142.864 293.417 142.452 295.277 142.706L295.279 142.706L295.311 142.46L295.321 142.387L295.279 142.706C295.53 142.739 295.782 142.71 296.012 142.616L296.109 142.572L299.006 141.129C300.101 140.583 300.192 139.717 300.195 139.624L300.192 139.576ZM299.864 139.361C299.746 139.353 299.639 139.429 299.607 139.542L299.846 139.609L299.864 139.361Z" fill="#588995"/>
<path d="M308.724 139.195C308.724 139.195 308.186 139.239 307.192 139.03C306.463 138.877 305.732 139.304 305.531 140.021C305.241 141.064 305.117 142.562 306.131 143.838C306.64 144.478 307.264 145.068 307.264 145.068C307.264 145.068 308.304 142.043 308.726 139.194L308.724 139.195Z" fill="#588995"/>
<path d="M308.846 138.976C308.799 138.95 308.747 138.942 308.697 138.948C308.694 138.948 308.691 138.948 308.687 138.948C308.673 138.949 308.652 138.95 308.622 138.95C308.562 138.951 308.469 138.949 308.346 138.942C308.099 138.928 307.728 138.889 307.243 138.787L307.083 138.761C306.285 138.671 305.514 139.16 305.292 139.954L305.77 140.088C305.924 139.538 306.462 139.191 307.027 139.255L307.141 139.273C307.65 139.38 308.045 139.423 308.316 139.439C308.359 139.441 308.399 139.441 308.435 139.442C308.222 140.762 307.888 142.099 307.597 143.132C307.442 143.685 307.3 144.15 307.196 144.476C307.181 144.523 307.168 144.567 307.155 144.608C307.127 144.58 307.097 144.552 307.067 144.52C306.851 144.296 306.573 143.994 306.326 143.683L306.161 143.458C305.398 142.325 305.507 141.035 305.77 140.088L305.531 140.021L305.292 139.954L305.291 139.954C304.992 141.03 304.851 142.626 305.938 143.992L305.936 143.992C306.197 144.32 306.487 144.634 306.709 144.865C306.821 144.981 306.916 145.076 306.984 145.143C307.018 145.176 307.044 145.202 307.063 145.22C307.072 145.229 307.08 145.237 307.085 145.241C307.087 145.244 307.09 145.246 307.091 145.247L307.093 145.248L307.093 145.248C307.155 145.306 307.241 145.329 307.323 145.309C307.405 145.289 307.471 145.228 307.499 145.149L307.5 145.147C307.5 145.145 307.501 145.143 307.502 145.14L307.545 145.01C307.575 144.921 307.618 144.791 307.67 144.626C307.775 144.296 307.919 143.826 308.076 143.267C308.39 142.149 308.758 140.669 308.971 139.23C308.986 139.127 308.936 139.026 308.846 138.976Z" fill="#588995"/>
<path d="M279.07 97.7676C262.031 97.7676 248.237 105.882 248.237 115.822C248.237 125.762 262.031 133.876 279.07 133.876C296.109 133.876 309.903 125.762 309.903 115.822C309.903 105.882 295.906 97.7676 279.07 97.7676ZM279.07 130.427C264.262 130.427 252.294 123.936 252.294 115.822C252.294 107.708 264.262 101.217 279.07 101.217C293.878 101.217 305.846 107.708 305.846 115.822C305.846 123.936 293.878 130.427 279.07 130.427Z" fill="#ECF8FF"/>
<path d="M309.655 115.821C309.654 110.977 306.242 106.531 300.675 103.281C295.115 100.036 287.451 98.0156 279.07 98.0156C270.587 98.0156 262.923 100.036 257.389 103.281C251.849 106.53 248.485 110.976 248.485 115.821C248.485 120.667 251.849 125.114 257.389 128.362C262.923 131.607 270.587 133.627 279.07 133.627C287.553 133.627 295.216 131.607 300.75 128.362C306.29 125.114 309.655 120.667 309.655 115.821ZM305.598 115.821C305.598 111.898 302.7 108.313 297.892 105.694C293.092 103.081 286.441 101.465 279.07 101.465C271.699 101.465 265.047 103.081 260.247 105.694C255.439 108.313 252.542 111.898 252.542 115.821C252.542 119.745 255.439 123.331 260.247 125.949C265.047 128.563 271.699 130.179 279.07 130.179C286.441 130.179 293.092 128.563 297.892 125.949C302.701 123.331 305.598 119.745 305.598 115.821ZM306.094 115.821C306.094 120.011 303.007 123.729 298.129 126.385C293.243 129.045 286.507 130.675 279.07 130.675C271.633 130.675 264.896 129.045 260.01 126.385C255.133 123.729 252.045 120.011 252.045 115.821C252.045 111.631 255.133 107.913 260.01 105.258C264.896 102.597 271.633 100.968 279.07 100.968C286.506 100.968 293.243 102.597 298.129 105.258C303.006 107.913 306.094 111.631 306.094 115.821ZM310.152 115.821C310.152 120.916 306.618 125.497 301.001 128.79C295.379 132.087 287.626 134.124 279.07 134.124C270.514 134.124 262.761 132.087 257.138 128.79C251.521 125.497 247.989 120.916 247.989 115.821C247.989 110.727 251.522 106.146 257.138 102.853C262.761 99.5556 270.514 97.5196 279.07 97.5195C287.524 97.5195 295.278 99.556 300.925 102.853C306.566 106.145 310.152 110.725 310.152 115.821Z" fill="#588995"/>
<path d="M248.237 116.025C248.237 125.965 262.031 134.079 279.07 134.079C296.109 134.079 309.903 125.965 309.903 116.025V122.922C309.903 132.862 296.109 140.976 279.07 140.976C262.031 140.976 248.237 132.862 248.237 122.922V116.025Z" fill="#C4DAE6"/>
<path d="M309.655 119.301C308.498 123.071 305.383 126.424 301.001 128.994C295.379 132.291 287.625 134.328 279.07 134.328C270.514 134.328 262.761 132.291 257.138 128.994C252.755 126.423 249.641 123.069 248.485 119.298V122.922C248.485 127.768 251.849 132.214 257.389 135.462C262.923 138.707 270.587 140.728 279.07 140.728C287.553 140.728 295.216 138.707 300.75 135.462C306.29 132.214 309.654 127.768 309.655 122.922V119.301ZM310.152 122.922C310.151 128.017 306.618 132.598 301.001 135.891C295.379 139.188 287.625 141.224 279.07 141.224C270.514 141.224 262.761 139.188 257.138 135.891C251.522 132.598 247.989 128.017 247.989 122.922V116.025C247.989 115.888 248.099 115.777 248.237 115.777C248.357 115.777 248.457 115.862 248.48 115.975L248.485 116.025L248.494 116.478C248.697 121.147 252.022 125.418 257.389 128.565C262.923 131.81 270.587 133.831 279.07 133.831C287.553 133.831 295.216 131.81 300.75 128.565C306.29 125.316 309.655 120.87 309.655 116.025C309.655 115.888 309.766 115.777 309.903 115.777C310.023 115.777 310.123 115.862 310.146 115.975L310.152 116.025V122.922Z" fill="#588995"/>
<g clip-path="url(#clip0_9503_7610)">
<path d="M199.154 130.854C200.287 128.358 199.181 125.416 196.685 124.283C194.189 123.151 191.248 124.256 190.115 126.752L179.78 149.527L158.437 144.03C155.782 143.347 153.076 144.944 152.393 147.599C151.709 150.253 153.307 152.959 155.961 153.643L175.616 158.704L165.111 181.854C163.978 184.35 165.083 187.292 167.579 188.424C170.075 189.557 173.017 188.452 174.149 185.956L185.375 161.218L206.86 166.751C209.514 167.434 212.22 165.837 212.904 163.183C213.587 160.528 211.99 157.822 209.335 157.139L189.54 152.041L199.154 130.854Z" fill="#F35F5F"/>
<path d="M189.783 126.293C191.108 123.724 194.23 122.62 196.892 123.828L197.145 123.951C199.713 125.277 200.817 128.399 199.61 131.06L190.24 151.704L209.46 156.654C212.382 157.407 214.14 160.386 213.388 163.307C212.635 166.229 209.656 167.988 206.735 167.235L185.657 161.806L174.605 186.163C173.358 188.91 170.12 190.126 167.372 188.88C164.625 187.633 163.409 184.395 164.656 181.647L174.914 159.04L155.836 154.127C152.915 153.374 151.156 150.396 151.909 147.474L151.986 147.204C152.847 144.445 155.73 142.817 158.561 143.546L179.497 148.937L189.659 126.546L189.783 126.293ZM196.479 124.739C194.304 123.752 191.753 124.654 190.67 126.752L190.571 126.959L180.236 149.734L180.192 149.811C180.075 149.981 179.861 150.064 179.656 150.011L179.781 149.527H179.78L179.656 150.011L158.312 144.514C155.999 143.919 153.644 145.249 152.94 147.503L152.877 147.723C152.263 150.11 153.699 152.543 156.086 153.158L175.741 158.22C175.883 158.257 176.003 158.355 176.067 158.488C176.13 158.621 176.132 158.776 176.071 158.911L165.566 182.06C164.547 184.305 165.541 186.951 167.785 187.969C170.03 188.988 172.675 187.993 173.694 185.749L184.92 161.011L185.374 161.217H185.375L184.92 161.011C185.02 160.791 185.264 160.673 185.499 160.733L206.985 166.266C209.372 166.881 211.805 165.444 212.419 163.057C213.034 160.671 211.597 158.237 209.21 157.623L189.415 152.525L189.539 152.04L189.084 151.834L198.699 130.647C199.685 128.473 198.784 125.922 196.686 124.839L196.479 124.739ZM189.539 152.041L189.415 152.525C189.272 152.488 189.152 152.39 189.088 152.257C189.024 152.123 189.023 151.968 189.084 151.834L189.539 152.041Z" fill="#588995"/>
</g>
<defs>
<clipPath id="clip0_9503_7610">
<rect width="68.7063" height="74.2943" fill="white" transform="translate(145.028 118.843)"/>
</clipPath>
</defs>
</svg>
