<svg width="411" height="200" viewBox="0 0 411 200" fill="none" xmlns="http://www.w3.org/2000/svg">
<g clip-path="url(#clip0_2530_13537)">
<path d="M251.017 19.999L267.232 168.699L259.452 169.51C259.043 165.779 255.757 163.064 252.104 163.448C248.452 163.833 245.826 167.167 246.229 170.891L233.012 172.273C232.604 168.543 229.318 165.827 225.665 166.212C222.012 166.596 219.381 169.93 219.79 173.655L206.573 175.037C206.164 171.306 202.878 168.591 199.226 168.975C195.573 169.36 192.948 172.694 193.35 176.418L180.134 177.8C179.725 174.07 176.433 171.354 172.786 171.739C169.14 172.123 166.508 175.457 166.911 179.182L158.993 180.011L142.778 31.2993L150.696 30.4702C151.105 34.207 154.391 36.9224 158.044 36.5379C161.696 36.1534 164.328 32.8192 163.919 29.0885L177.136 27.7067C177.544 31.4435 180.83 34.1589 184.483 33.7744C188.136 33.3899 190.767 30.0557 190.358 26.325L203.575 24.9433C203.984 28.68 207.27 31.3954 210.922 31.0109C214.575 30.6264 217.2 27.2922 216.798 23.5615L230.015 22.1798C230.423 25.9165 233.709 28.6319 237.362 28.2474C241.014 27.8689 243.646 24.5287 243.237 20.798L251.017 19.987V19.999Z" fill="#F0F4FF"/>
<path d="M201.282 50.2559C205.559 49.7873 211.531 52.6049 214.523 56.5158L229.992 76.6412C232.996 80.5521 234.408 87.3227 233.128 91.6902L226.55 114.231C225.27 118.598 220.728 122.563 216.445 123.02L194.385 125.429C190.108 125.897 184.142 123.092 181.156 119.187L165.669 99.0555C162.671 95.1566 161.253 88.386 162.533 84.0065L169.129 61.4781C170.391 57.0985 174.939 53.1455 179.222 52.6709L201.282 50.2619V50.2559Z" fill="#8AE5CC"/>
<path d="M185.492 98.857L180.205 91.9783C177.201 88.0673 175.79 81.2968 177.069 76.9293L183.647 54.3888C184.549 51.325 187.042 48.4654 189.937 46.8613C186.741 48.6276 185.654 49.2103 182.452 50.9765C179.568 52.5745 177.063 55.4402 176.156 58.492L169.578 81.0325C168.298 85.4 169.71 92.1765 172.714 96.0815V96.0935L174.504 98.4304C178.865 99.9383 182.542 99.7401 185.486 98.851L185.492 98.857Z" fill="#0B4D5E"/>
<path d="M172.715 96.0995L188.185 116.225C191.189 120.136 197.148 122.953 201.438 122.479L223.498 120.07C224.771 119.932 226.075 119.475 227.312 118.796C230.509 117.03 231.596 116.447 234.798 114.681C233.566 115.36 232.263 115.816 230.983 115.955L208.923 118.364C204.646 118.832 198.674 116.015 195.683 112.104L180.213 91.9783C177.209 88.0674 175.797 81.2968 177.077 76.9293L183.655 54.3888C184.556 51.325 187.05 48.4654 189.945 46.8613C186.749 48.6276 185.662 49.2103 182.46 50.9765C179.576 52.5745 177.071 55.4402 176.164 58.492L169.586 81.0325C168.306 85.4 169.718 92.1765 172.721 96.0815V96.0935L172.715 96.0995Z" fill="#0B4D5E"/>
<path d="M215.626 43.407C219.903 42.9384 225.875 45.756 228.866 49.6669L244.336 69.7923C247.34 73.7033 248.751 80.4738 247.472 84.8413L240.894 107.382C239.614 111.749 235.072 115.714 230.789 116.171L208.729 118.58C204.452 119.049 198.486 116.243 195.5 112.338L180.013 92.2066C177.015 88.3077 175.597 81.5372 176.877 77.1576L183.473 54.6292C184.735 50.2497 189.282 46.2967 193.566 45.8221L215.626 43.413V43.407Z" fill="#F0F4FF"/>
<path d="M241.005 73.8422C241.041 73.9263 241.083 74.0044 241.119 74.0885C241.083 74.0044 241.047 73.9263 241.005 73.8422Z" fill="white"/>
<path d="M241.429 74.8301C241.447 74.8781 241.465 74.9262 241.489 74.9743C241.471 74.9262 241.453 74.8781 241.429 74.8301Z" fill="white"/>
<path d="M241.482 74.9741C241.969 76.2597 242.317 77.6355 242.498 78.9932C242.311 77.6355 241.969 76.2537 241.482 74.9741Z" fill="#F0F4FF"/>
<path d="M239.583 71.4551C239.757 71.6834 239.931 71.9297 240.094 72.182C239.931 71.9297 239.763 71.6834 239.583 71.4551Z" fill="#F0F4FF"/>
<path d="M242.504 78.9969C242.323 77.6392 241.975 76.2574 241.488 74.9778C241.47 74.9297 241.452 74.8817 241.428 74.8336C241.332 74.5813 241.23 74.335 241.122 74.0947C241.086 74.0106 241.05 73.9325 241.008 73.8484C240.912 73.6441 240.809 73.4398 240.707 73.2416C240.659 73.1515 240.611 73.0614 240.563 72.9713C240.455 72.779 240.347 72.5928 240.233 72.4065C240.185 72.3284 240.137 72.2503 240.088 72.1723C239.926 71.9199 239.758 71.6736 239.578 71.4453L226.397 54.2997C223.844 50.9655 218.762 48.5685 215.115 48.965L196.317 51.0135C192.665 51.416 188.79 54.7863 187.714 58.517L187.696 58.5831C189.396 55.9698 192.316 53.9212 195.116 53.6088L213.913 51.5602C217.56 51.1637 222.642 53.5608 225.196 56.895L238.376 74.0406C239.518 75.5245 240.389 77.495 240.906 79.5556C241.548 82.1148 241.65 84.8062 241.05 86.8668L235.475 105.977C235.991 105.184 236.4 104.343 236.652 103.478L242.257 84.2715C242.702 82.7516 242.762 80.8893 242.504 78.9909V78.9969Z" fill="#0B4D5E"/>
<path d="M228.126 95.8536L225.284 84.7937L227.267 80.6604L229.736 75.4759C230.829 73.193 229.676 70.9642 227.17 70.5197H227.2L216.994 68.6994L213.713 64.8124L209.61 59.9583C208.721 58.895 207.718 58.4144 206.853 58.5105C206.138 58.5946 205.501 59.0632 205.062 59.8982C205.795 60.0004 206.588 60.469 207.303 61.328L211.407 66.1822L214.687 70.0691L224.894 71.8954H224.864C227.369 72.3339 228.522 74.5688 227.429 76.8456L224.96 82.0302L222.977 86.1634L225.819 97.2234C226.065 98.1666 226.047 98.9776 225.807 99.6084C225.987 99.6204 226.161 99.6204 226.323 99.6084C227.897 99.4342 228.684 97.9803 228.132 95.8596L228.126 95.8536Z" fill="#0B4D5E"/>
<path d="M227.273 80.6604L229.742 75.4759C230.835 73.193 229.682 70.9642 227.177 70.5196H227.207L217 68.6994L213.72 64.8124L209.617 59.9583C208.727 58.895 207.724 58.4144 206.859 58.5105C205.988 58.6126 205.231 59.2674 204.811 60.475L202.87 65.9899L201.326 70.4115L200.497 70.772C205.567 79.6332 214.315 86.2175 226.45 89.3414L225.284 84.7997L227.267 80.6665L227.273 80.6604Z" fill="#8AE5CC"/>
<path d="M244.337 69.7924L228.868 49.667C225.87 45.7501 219.904 42.9385 215.627 43.4071L195.52 45.5999C193.225 72.3036 211.013 92.1286 245.581 91.3356L247.473 84.8414C248.753 80.4739 247.341 73.6973 244.337 69.7924Z" fill="white"/>
<path d="M215.121 48.9711C218.767 48.5746 223.85 50.9716 226.403 54.3058L239.584 71.4514C242.143 74.7796 243.344 80.5529 242.257 84.2776L236.652 103.484C235.559 107.209 231.69 110.585 228.037 110.975L209.239 113.024C205.593 113.42 200.51 111.029 197.963 107.701L184.764 90.5435C182.211 87.2214 180.998 81.4541 182.091 77.7173L187.708 58.5171C188.784 54.7864 192.658 51.4161 196.311 51.0136L215.109 48.9651L215.121 48.9711Z" fill="#8AE5CC"/>
<path d="M239.59 71.4514L226.409 54.3058C223.856 50.9716 218.774 48.5746 215.127 48.9711L197.074 50.9415C198.023 72.5028 213.217 88.2727 240.629 89.8647L242.257 84.2776C243.351 80.5529 242.143 74.7857 239.584 71.4514H239.59Z" fill="white"/>
<path d="M187.718 58.5266L187.7 58.5926C189.4 55.9793 192.32 53.9308 195.12 53.6184L195.474 53.5823C195.42 52.7953 195.378 52.0023 195.36 51.2033C192.014 52.0324 188.703 55.1263 187.724 58.5266H187.718Z" fill="#0B4D5E"/>
<path d="M235.475 105.983C235.991 105.19 236.4 104.349 236.652 103.484L240.227 91.2284C240.076 91.2223 239.932 91.2163 239.788 91.2103L235.475 105.989V105.983Z" fill="#0B4D5E"/>
<path d="M242.506 78.9971C242.326 77.6393 241.977 76.2576 241.491 74.978C241.473 74.9299 241.455 74.8819 241.431 74.8338C241.335 74.5815 241.232 74.3352 241.124 74.0949C241.088 74.0108 241.052 73.9327 241.01 73.8486C240.914 73.6443 240.812 73.44 240.71 73.2418C240.662 73.1517 240.614 73.0616 240.566 72.9714C240.458 72.7792 240.349 72.593 240.235 72.4067C240.187 72.3286 240.139 72.2505 240.091 72.1724C239.929 71.9201 239.761 71.6738 239.58 71.4455L226.4 54.2999C223.847 50.9657 218.764 48.5686 215.118 48.9651L196.32 51.0137C195.995 51.0498 195.677 51.1159 195.353 51.194C195.371 51.993 195.413 52.786 195.467 53.573L213.916 51.5604C217.563 51.1639 222.645 53.5609 225.198 56.8951L238.379 74.0408C239.52 75.5247 240.391 77.4952 240.908 79.5558C241.551 82.115 241.653 84.8064 241.052 86.867L239.791 91.1985C239.935 91.2045 240.085 91.2105 240.229 91.2165L242.26 84.2657C242.704 82.7458 242.764 80.8834 242.506 78.985V78.9971Z" fill="#8AE5CC"/>
<path d="M227.202 70.5257L216.995 68.6994L213.715 64.8124L209.612 59.9583C208.723 58.895 207.719 58.4144 206.854 58.5105C205.983 58.6126 205.226 59.2674 204.806 60.475L202.865 65.9899L201.321 70.4115L192.31 74.3345C190.111 75.2897 189.901 77.6687 191.883 79.6091L196.365 84.0367L199.946 87.5632L201.736 98.7373C202.072 100.876 203.424 102.108 204.986 101.939C205.412 101.897 205.857 101.747 206.296 101.483L214.76 96.4724L224.871 99.4522C225.406 99.6084 225.88 99.6504 226.307 99.6084C227.881 99.4342 228.668 97.9803 228.115 95.8596L225.274 84.7997L227.256 80.6665L229.725 75.4819C230.819 73.199 229.665 70.9702 227.16 70.5257H227.19H227.202Z" fill="#8AE5CC"/>
<path d="M200.444 70.7875L192.31 74.326C190.111 75.2812 189.901 77.6602 191.883 79.6007L196.365 84.0283L199.946 87.5547L201.736 98.7288C202.072 100.868 203.424 102.099 204.986 101.931C205.412 101.889 205.857 101.739 206.296 101.474L214.76 96.4639L224.871 99.4437C225.406 99.5999 225.88 99.642 226.307 99.5999C227.881 99.4257 228.668 97.9719 228.115 95.8512L226.499 89.5492C214.28 86.3952 205.491 79.7448 200.444 70.7875Z" fill="#0B4D5E"/>
<path d="M227.268 80.6606L229.737 75.4761C230.831 73.1932 229.677 70.9644 227.172 70.5198H227.202L216.995 68.6995L213.715 64.8126L209.612 59.9585C208.723 58.8952 207.72 58.4145 206.854 58.5107C205.983 58.6128 205.226 59.2676 204.806 60.4752L202.865 65.9901L201.321 70.4117L200.444 70.7902C205.497 79.7535 214.28 86.4039 226.499 89.5519L225.28 84.7938L227.262 80.6606H227.268Z" fill="#8AE5CC"/>
<path d="M225.812 97.2268C226.059 98.17 226.035 98.981 225.8 99.6118C225.981 99.6238 226.155 99.6238 226.317 99.6118C227.891 99.4376 228.678 97.9837 228.125 95.8631L226.431 89.2727C225.452 89.0204 224.491 88.7441 223.56 88.4497L225.812 97.2328V97.2268Z" fill="#0B4D5E"/>
<path d="M227.267 80.6604L229.736 75.4759C230.829 73.193 229.676 70.9642 227.17 70.5197H227.2L216.994 68.6994L213.713 64.8124L209.61 59.9583C208.721 58.895 207.718 58.4144 206.853 58.5105C206.138 58.5946 205.501 59.0632 205.062 59.8982C205.795 60.0004 206.588 60.469 207.303 61.328L211.407 66.1822L214.687 70.0691L224.894 71.8954H224.864C227.369 72.3339 228.522 74.5688 227.423 76.8456L224.954 82.0302L222.971 86.1634L223.554 88.4343C224.491 88.7346 225.446 89.005 226.425 89.2573L225.278 84.7877L227.261 80.6544L227.267 80.6604Z" fill="#0B4D5E"/>
<path d="M178.396 107.537C190.945 106.119 192.357 104.773 194.346 92.3013C195.763 104.851 197.109 106.263 209.581 108.251C197.031 109.669 195.619 111.015 193.631 123.487C192.213 110.937 190.867 109.525 178.396 107.537Z" fill="white"/>
<path d="M248.21 131.838L248.373 133.628L179.76 139.63L179.598 137.839L248.21 131.838Z" fill="#8AE5CC"/>
<path d="M249.49 142.466L249.653 144.262L181.046 150.263L180.884 148.467L249.49 142.466Z" fill="#8AE5CC"/>
</g>
<defs>
<clipPath id="clip0_2530_13537">
<rect width="124.453" height="160" fill="white" transform="translate(142.778 20)"/>
</clipPath>
</defs>
</svg>
