<svg width="411" height="200" viewBox="0 0 411 200" fill="none" xmlns="http://www.w3.org/2000/svg">
<path d="M249.152 42.8077L153.787 49.1251L162.457 180.001L257.822 173.683L249.152 42.8077Z" fill="#F0F4FF"/>
<path d="M267.002 40.4458L171.45 38.3491L168.57 169.481L248.064 171.224L264.476 155.519L267.002 40.4458Z" fill="#F0F4FF"/>
<path d="M177.748 142.474L177.729 143.316L216.382 144.166L216.401 143.324L177.748 142.474Z" fill="#8AE5CC"/>
<path d="M232.01 150.999L231.991 151.84L256.018 152.369L256.036 151.527L232.01 150.999Z" fill="#8AE5CC"/>
<path d="M177.588 149.801L177.569 150.643L203.28 151.209L203.298 150.367L177.588 149.801Z" fill="#8AE5CC"/>
<path d="M240.283 147.211C240.14 147.208 240.008 147.132 239.932 147.006C239.514 146.31 238.865 145.762 238.11 145.468C237.776 145.336 237.288 145.212 236.873 145.367C236.575 145.476 236.3 145.802 236.365 146.108C236.412 146.335 236.266 146.56 236.039 146.605C235.812 146.649 235.59 146.506 235.542 146.279C235.382 145.513 235.946 144.811 236.583 144.575C237.111 144.379 237.748 144.418 238.422 144.682C239.037 144.923 239.592 145.299 240.047 145.774L240.179 145.021C240.216 144.805 240.269 144.508 240.454 144.258C240.701 143.927 241.136 143.741 241.655 143.747C242.102 143.753 242.537 143.887 242.944 144.017C243.056 144.053 243.168 144.087 243.283 144.12C243.828 144.278 244.218 144.286 244.51 144.143C244.712 144.045 244.897 143.854 245.074 143.669L247.143 141.518C247.814 140.82 248.574 140.031 249.577 139.613C250.534 139.217 251.943 139.208 252.776 140.135C252.934 140.306 252.92 140.573 252.745 140.73C252.574 140.884 252.308 140.873 252.15 140.699C251.589 140.079 250.59 140.104 249.896 140.39C249.057 140.738 248.361 141.462 247.746 142.102L245.678 144.252C245.459 144.48 245.212 144.738 244.875 144.901C244.232 145.215 243.525 145.069 243.048 144.932C242.927 144.898 242.806 144.859 242.688 144.822C242.324 144.707 241.981 144.609 241.641 144.592C241.406 144.589 241.209 144.654 241.131 144.76C241.063 144.853 241.032 145.019 241.007 145.167L240.712 146.863C240.682 147.037 240.547 147.172 240.376 147.205C240.347 147.211 240.317 147.214 240.289 147.214L240.283 147.211Z" fill="#8AE5CC"/>
<path d="M240.283 147.211C240.14 147.208 240.008 147.132 239.932 147.006C239.514 146.31 238.865 145.762 238.11 145.468C237.776 145.336 237.288 145.212 236.873 145.367C236.575 145.476 236.3 145.802 236.365 146.108C236.412 146.335 236.266 146.56 236.039 146.605C235.812 146.649 235.59 146.506 235.542 146.279C235.382 145.513 235.946 144.811 236.583 144.575C237.111 144.379 237.748 144.418 238.422 144.682C239.037 144.923 239.592 145.299 240.047 145.774L240.179 145.021C240.216 144.805 240.269 144.508 240.454 144.258C240.701 143.927 241.136 143.741 241.655 143.747C242.102 143.753 242.537 143.887 242.944 144.017C243.056 144.053 243.168 144.087 243.283 144.12C243.828 144.278 244.218 144.286 244.51 144.143C244.712 144.045 244.897 143.854 245.074 143.669L247.143 141.518C247.814 140.82 248.574 140.031 249.577 139.613C250.534 139.217 251.943 139.208 252.776 140.135C252.934 140.306 252.92 140.573 252.745 140.73C252.574 140.884 252.308 140.873 252.15 140.699C251.589 140.079 250.59 140.104 249.896 140.39C249.057 140.738 248.361 141.462 247.746 142.102L245.678 144.252C245.459 144.48 245.212 144.738 244.875 144.901C244.232 145.215 243.525 145.069 243.048 144.932C242.927 144.898 242.806 144.859 242.688 144.822C242.324 144.707 241.981 144.609 241.641 144.592C241.406 144.589 241.209 144.654 241.131 144.76C241.063 144.853 241.032 145.019 241.007 145.167L240.712 146.863C240.682 147.037 240.547 147.172 240.376 147.205C240.347 147.211 240.317 147.214 240.289 147.214L240.283 147.211Z" fill="#8AE5CC"/>
<path d="M256.964 89.8468L256.293 120.411L257.119 121.158L257.823 89.0244L220.66 88.2076L221.617 89.0721L256.964 89.8468Z" fill="#8AE5CC"/>
<path d="M248.064 171.224L264.476 155.52L248.418 155.166L248.064 171.224Z" fill="#8AE5CC"/>
<path d="M121.755 57.0252C134.376 55.5999 135.529 54.4466 136.954 41.8256C138.377 54.4466 139.533 55.5999 152.154 57.0252C139.533 58.4482 138.38 59.6038 136.954 72.2248C135.531 59.6038 134.376 58.4506 121.755 57.0252Z" fill="#F0F4FF"/>
<path d="M274.982 114.721C283.114 113.803 283.858 113.06 284.776 104.928C285.693 113.06 286.437 113.803 294.569 114.721C286.437 115.639 285.693 116.383 284.776 124.514C283.858 116.383 283.114 115.639 274.982 114.721Z" fill="#F0F4FF"/>
<path d="M182.454 114.729L182.436 115.57L204.764 116.062L204.783 115.22L182.454 114.729Z" fill="#8AE5CC"/>
<path d="M182.644 106.087L182.625 106.929L213.086 107.599L213.105 106.757L182.644 106.087Z" fill="#8AE5CC"/>
<path d="M177.513 133.779L256.804 135.52L257.138 120.315L257.217 116.761C256.936 116.739 256.655 116.714 256.375 116.688L256.299 120.197L255.982 134.658L237.81 134.259L238.237 114.85L238.279 112.995C237.998 112.899 237.72 112.798 237.442 112.7L237.403 114.46L236.968 134.24L218.21 133.827L218.911 101.806C218.375 101.324 217.845 100.835 217.325 100.33L179.11 99.4906L179.36 88.1396L208.299 88.774C208.13 88.4933 207.967 88.207 207.805 87.9207L178.537 87.2779L177.516 133.774L177.513 133.779ZM218.081 101.192L217.365 133.81L178.374 132.954L179.09 100.335L218.081 101.192Z" fill="#8AE5CC"/>
<path d="M200.962 71.1753L179.447 70.8048L179.371 74.2039L201.989 74.5941L205.178 74.6502L205.253 71.2511L200.962 71.1753Z" fill="#8AE5CC"/>
<path d="M179.741 57.661L179.626 62.8777L206.22 63.4626L206.335 58.2459L179.741 57.661Z" fill="#8AE5CC"/>
<path d="M210.842 88.8364L218.347 89.002L218.117 99.4885L218.098 100.353L217.323 100.336C217.839 100.841 218.37 101.33 218.909 101.813L218.923 101.215L219.653 101.232L237.684 101.627L237.44 112.706C237.718 112.804 237.995 112.905 238.276 113.001L238.526 101.644L256.698 102.043L256.375 116.692C256.656 116.717 256.933 116.742 257.217 116.765L257.826 89.0273L210.379 87.9859L207.805 87.9298C207.967 88.2161 208.13 88.5024 208.299 88.7831L210.845 88.8392L210.842 88.8364ZM238.79 89.4511L256.962 89.8497L256.712 101.201L238.54 100.802L238.79 89.4511ZM219.189 89.0217L237.948 89.4343L237.698 100.785L218.94 100.373L219.189 89.0217Z" fill="#8AE5CC"/>
<path d="M256.715 101.198L238.543 100.799L238.675 94.8124C238.397 94.6749 238.119 94.5373 237.841 94.3942L237.701 100.78L218.942 100.367L219.192 89.0162L229.566 89.2435C229.182 88.9572 228.803 88.6681 228.427 88.3762L210.379 87.9804L207.805 87.9243C207.967 88.2106 208.13 88.4969 208.299 88.7776L210.845 88.8337L218.35 88.9993L218.12 99.4858L218.1 100.35L217.326 100.334C217.842 100.839 218.373 101.327 218.912 101.81L218.926 101.212L219.655 101.229L237.687 101.625L237.443 112.703C237.72 112.802 237.998 112.903 238.279 112.998L238.529 101.642L256.701 102.04L256.378 116.689C256.658 116.714 256.936 116.74 257.22 116.762L257.579 100.446C257.298 100.412 257.018 100.378 256.74 100.339L256.72 101.198H256.715Z" fill="#8AE5CC"/>
<path d="M228.424 88.3792C228.8 88.6711 229.182 88.9602 229.563 89.2465L237.947 89.4318L237.838 94.3971C238.113 94.5375 238.391 94.6778 238.672 94.8153L238.79 89.4514L256.961 89.85L256.731 100.342C257.009 100.381 257.29 100.412 257.57 100.449L257.82 89.0276L228.421 88.382L228.424 88.3792Z" fill="#8AE5CC"/>
<path d="M249.4 54.7531L244.71 54.6492C245.417 55.7411 245.863 57.0126 246.046 58.4666L250.391 58.562L249.229 62.4523L245.981 62.3822C245.614 64.7428 244.628 66.5307 243.023 67.7517C241.417 68.9727 239.172 69.6716 236.283 69.8541L246.051 81.7973L246.046 82.078L239.871 81.9433L229.202 68.9475L229.252 65.655L234.695 65.7757C236.3 65.8122 237.58 65.5062 238.535 64.8578C239.489 64.2123 240.134 63.3477 240.474 62.2643L228.901 62.0117L230.083 58.1213L240.474 58.3487C239.82 56.1116 237.945 54.958 234.846 54.8906L229.059 54.7643L230.316 50.4024L250.579 50.8459L249.394 54.7587L249.4 54.7531Z" fill="#8AE5CC"/>
<path d="M245.981 62.3817L249.229 62.4519L250.391 58.5615L246.046 58.4661C245.863 57.0121 245.417 55.7406 244.709 54.6487L249.4 54.7526L250.584 50.8398L230.321 50.3963L229.364 53.7197L230.248 54.7863L234.849 54.8873C237.948 54.9547 239.823 56.1083 240.477 58.3454L233.069 58.1826L236.381 62.1712L240.477 62.261C240.143 63.3276 239.511 64.1781 238.582 64.8209L241.695 68.5709C242.178 68.3295 242.621 68.0572 243.025 67.7512C244.631 66.5303 245.616 64.7423 245.984 62.3817H245.981Z" fill="#8AE5CC"/>
<path d="M171.237 47.9689L168.57 169.481L248.064 171.225H166.911L164.48 48.4152L171.237 47.9689Z" fill="#8AE5CC"/>
<path d="M166.8 145.92L187.958 139.72C192.067 138.524 195.82 133.856 196.311 129.36L198.812 106.166C199.303 101.67 196.741 95.2897 193.123 91.9916L191.273 90.3075L155.28 84.4888L160.142 145.847C162.508 146.411 164.891 146.479 166.797 145.92H166.8Z" fill="#8AE5CC"/>
<path d="M141.872 121.562L157.214 134.953C160.195 137.555 165.329 138.832 168.624 137.783L185.6 132.408C186.582 132.096 187.534 131.535 188.398 130.805C190.635 128.913 192.867 127.016 195.104 125.124C194.24 125.853 193.288 126.415 192.306 126.726L175.33 132.102C172.037 133.146 166.898 131.871 163.925 129.267L148.583 115.875C145.602 113.273 143.424 108.167 143.741 104.53L145.358 85.7572C145.579 83.2029 147.092 80.5617 149.119 78.8439C146.882 80.7357 144.65 82.6331 142.413 84.525C140.395 86.2372 138.877 88.8841 138.646 91.4327L137.03 110.205C136.713 113.843 138.891 118.951 141.872 121.551V121.562Z" fill="#8AE5CC"/>
<path d="M168.795 72.0759C172.087 71.0318 177.227 72.3061 180.199 74.9109L195.542 88.3025C198.523 90.9045 200.701 96.0102 200.384 99.6479L198.767 118.42C198.45 122.058 195.5 125.892 192.204 126.931L175.228 132.306C171.936 133.35 166.802 132.081 163.835 129.482L148.476 116.085C145.501 113.489 143.317 108.389 143.634 104.74L145.268 85.9728C145.568 82.3294 148.524 78.5009 151.819 77.4511L168.795 72.0759Z" fill="#F0F4FF"/>
<path d="M195.544 88.302L180.201 74.9104C177.226 72.3028 172.089 71.0312 168.797 72.0754L151.821 77.4506C148.523 78.5003 145.57 82.3289 145.27 85.9723L145.051 88.4985C156.18 101.837 174.947 107.254 190.66 100.568C194.067 99.1169 197.093 97.197 199.704 94.915C198.864 92.3804 197.354 89.8794 195.547 88.302H195.544Z" fill="white"/>
<path d="M169.269 76.528C172.073 75.6382 176.452 76.7245 178.987 78.9447L192.061 90.3547C194.601 92.5721 196.457 96.9228 196.187 100.022L194.809 116.018C194.54 119.12 192.025 122.387 189.215 123.271L174.748 127.852C171.944 128.742 167.568 127.661 165.039 125.443L151.951 114.028C149.416 111.816 147.555 107.471 147.825 104.361L149.217 88.3702C149.472 85.2658 151.99 82.0014 154.8 81.1088L169.267 76.528H169.269Z" fill="#F0F4FF"/>
<path d="M163.843 94.1582L164.312 90.7899L164.831 87.1017C164.349 87.3599 164.001 87.8848 163.891 88.6735L163.299 92.8754L162.83 96.2437L163.843 94.1582Z" fill="#0B4D5E"/>
<path d="M193.562 92.0166C193.605 92.0755 193.647 92.1317 193.689 92.1906C193.647 92.1317 193.605 92.0727 193.562 92.0166Z" fill="white"/>
<path d="M193.077 91.3985C193.13 91.4603 193.181 91.5249 193.232 91.5866C193.181 91.522 193.13 91.4603 193.077 91.3985Z" fill="white"/>
<path d="M194.049 92.7232C194.071 92.7569 194.094 92.7934 194.116 92.8271C194.094 92.7906 194.071 92.7569 194.049 92.7232Z" fill="white"/>
<path d="M191.524 92.5917L178.45 81.1817C175.915 78.9614 171.536 77.8752 168.732 78.765L154.266 83.3458C152.116 84.0307 150.14 86.1021 149.216 88.4262L149.222 88.3701L149.045 90.3883C160.331 100.664 176.735 104.302 190.719 98.3514C191.996 97.8096 193.217 97.1977 194.384 96.5297C193.652 94.9915 192.658 93.5797 191.524 92.5917Z" fill="white"/>
<path d="M194.115 92.8274C194.699 93.7621 195.19 94.7894 195.55 95.8307C195.19 94.7894 194.702 93.7621 194.115 92.8274Z" fill="#F0F4FF"/>
<path d="M192.064 90.3577C192.241 90.5121 192.413 90.6749 192.581 90.8489C192.413 90.6777 192.241 90.5121 192.064 90.3577Z" fill="#F0F4FF"/>
<path d="M192.729 91.0088C192.846 91.1351 192.964 91.2642 193.079 91.3989C192.964 91.2642 192.849 91.1351 192.729 91.0088Z" fill="#F0F4FF"/>
<path d="M193.691 92.1928C193.815 92.3668 193.933 92.5437 194.051 92.7233C193.936 92.5409 193.815 92.364 193.691 92.1928Z" fill="#F0F4FF"/>
<path d="M194.385 96.5291C195.295 98.4406 195.8 100.54 195.651 102.258L194.281 118.17C194.562 117.466 194.75 116.736 194.812 116.017L196.19 100.021C196.299 98.7549 196.052 97.2813 195.55 95.8274C195.168 96.0659 194.781 96.2989 194.385 96.5263V96.5291Z" fill="#8AE5CC"/>
<path d="M193.231 91.5869C193.344 91.7273 193.456 91.8704 193.563 92.0164C193.453 91.8704 193.344 91.7273 193.231 91.5869Z" fill="#F0F4FF"/>
<path d="M194.115 92.828C194.092 92.7915 194.07 92.7578 194.047 92.7241C193.932 92.5417 193.811 92.3649 193.688 92.1936C193.646 92.1347 193.604 92.0757 193.562 92.0196C193.452 91.8737 193.343 91.7305 193.23 91.5902C193.18 91.5284 193.129 91.4639 193.076 91.4021C192.961 91.2674 192.846 91.1383 192.725 91.0119C192.675 90.9586 192.627 90.9025 192.576 90.852C192.408 90.6807 192.237 90.5151 192.06 90.3607L178.985 78.9508C176.451 76.7305 172.072 75.6443 169.268 76.5341L154.801 81.1149C151.992 82.0075 149.474 85.2719 149.219 88.3763L149.213 88.4324C150.139 86.1055 152.112 84.034 154.262 83.352L168.729 78.7711C171.533 77.8814 175.915 78.9676 178.447 81.1879L191.521 92.5978C192.652 93.5859 193.649 95.0005 194.381 96.5359C194.777 96.3085 195.164 96.0756 195.546 95.837C195.187 94.7956 194.698 93.7683 194.112 92.8336L194.115 92.828Z" fill="#F0F4FF"/>
<path d="M181.269 92.6308L173.741 92.7879L170.85 90.4891L167.234 87.6177C166.448 86.9861 165.668 86.7868 165.062 86.9833C164.456 87.177 164.012 87.7552 163.886 88.673L163.294 92.8749L162.825 96.2432L156.972 100.319C155.544 101.315 155.735 103.039 157.424 104.133L161.245 106.645L164.298 108.644L167.17 116.343C167.714 117.817 168.854 118.499 169.943 118.159C170.241 118.067 170.538 117.898 170.813 117.648L176.124 112.874L183.747 113.55C184.151 113.584 184.494 113.55 184.791 113.458C185.886 113.11 186.237 111.962 185.541 110.533L181.942 103.067L182.765 99.8416L183.784 95.7969C184.236 94.0173 183.099 92.5943 181.252 92.6336H181.274L181.269 92.6308Z" fill="#8AE5CC"/>
<path d="M162.869 95.935L162.827 96.2438L156.974 100.319C155.546 101.316 155.737 103.039 157.426 104.134L161.246 106.646L164.3 108.645L167.172 116.344C167.716 117.817 168.856 118.5 169.945 118.16C170.243 118.067 170.54 117.899 170.815 117.649L176.126 112.875L183.749 113.551C184.153 113.585 184.496 113.551 184.793 113.458C185.888 113.11 186.239 111.962 185.543 110.534L181.944 103.067L182.767 99.8422L183.222 98.0317C176.406 99.1966 169.372 98.3994 162.877 95.9378L162.869 95.935Z" fill="#8AE5CC"/>
<path d="M162.254 97.8742L162.212 98.183L156.7 100.639C155.271 101.635 155.751 105.391 157.441 106.489L160.632 108.588L163.686 110.587L166.557 118.286C167.102 119.759 168.241 120.442 169.33 120.102C169.628 120.009 169.926 119.841 170.201 119.591L175.511 114.817L181.743 115.37C182.147 115.403 183.196 115.428 183.505 115.44C185.071 115.49 186.539 112.793 185.843 111.361L181.327 105.007L182.15 101.781L182.604 99.971C175.789 101.136 168.755 100.339 162.26 97.877L162.254 97.8742Z" fill="#8AE5CC"/>
<path d="M181.246 92.6308H181.268L173.74 92.7879L170.849 90.4891L167.234 87.6177C166.448 86.9861 165.667 86.7868 165.061 86.9833C164.455 87.177 164.011 87.7552 163.885 88.673L163.293 92.8749L162.866 95.9344C169.361 98.3961 176.398 99.196 183.21 98.0284L183.775 95.7941C184.227 94.0145 183.09 92.5915 181.243 92.6308H181.246Z" fill="#F0F4FF"/>
<path d="M185.816 111.37C185.518 111.462 185.164 111.499 184.771 111.462L177.148 110.786L171.837 115.561C171.562 115.808 171.265 115.979 170.967 116.071C169.873 116.419 168.741 115.74 168.194 114.255L165.323 106.556L162.271 104.558L158.451 102.045C157.671 101.532 157.216 100.886 157.093 100.241L156.986 100.316C155.557 101.313 155.748 103.036 157.438 104.131L161.258 106.643L164.312 108.642L167.184 116.341C167.728 117.814 168.868 118.497 169.957 118.157C170.254 118.064 170.552 117.896 170.827 117.646L176.137 112.872L183.761 113.548C184.165 113.582 184.508 113.548 184.805 113.455C185.675 113.18 186.065 112.386 185.841 111.359C185.841 111.359 185.83 111.37 185.818 111.37H185.816Z" fill="#0B4D5E"/>
<path d="M128.677 152.359C129.581 152.359 129.581 150.956 128.677 150.956C127.773 150.956 127.773 152.359 128.677 152.359Z" fill="#8AE5CC"/>
<path d="M189.184 114.722C197.916 113.737 198.716 112.94 199.698 104.208C200.683 112.94 201.481 113.74 210.213 114.722C201.481 115.707 200.681 116.505 199.698 125.237C198.713 116.505 197.916 115.705 189.184 114.722Z" fill="white"/>
</svg>
