<svg width="411" height="300" viewBox="0 0 411 300" fill="none" xmlns="http://www.w3.org/2000/svg">
<path d="M101.738 76.3604C100.76 76.3023 99.774 76.2783 98.7874 76.2783C75.2648 76.2783 75.814 112.048 96.0577 112.048C104.209 112.048 119.282 104.072 128.7 98.5762C128.157 97.4058 127.589 96.2702 126.994 95.172C123.789 89.258 119.833 84.4769 114.837 81.1715C111.131 78.7194 106.814 77.0539 101.738 76.3604Z" fill="#C4DAE6"/>
<path d="M99.5273 76.2832C100.267 76.2927 101.004 76.3168 101.738 76.3604C106.814 77.0538 111.131 78.7198 114.837 81.1719C119.833 84.4773 123.79 89.2579 126.994 95.1719C127.589 96.2701 128.157 97.4059 128.7 98.5762L126.871 99.6328C117.424 105.038 103.7 112.048 96.0576 112.048V111.585C100.024 111.585 105.749 109.632 111.714 106.951C117.503 104.349 123.448 101.092 128.099 98.3887C127.614 97.3616 127.112 96.3616 126.587 95.3926C123.408 89.5262 119.498 84.8105 114.582 81.5576C110.939 79.147 106.691 77.5056 101.687 76.8203C100.726 76.7639 99.7581 76.7412 98.7871 76.7412C93.0354 76.7413 88.7877 78.9231 85.9385 82.1729C83.0807 85.4325 81.6063 89.7948 81.4726 94.1768C81.339 98.5602 82.5486 102.924 85.0059 106.18C87.4541 109.424 91.15 111.585 96.0576 111.585V112.048L95.5869 112.041C75.807 111.491 75.4486 76.2786 98.7871 76.2783L99.5273 76.2832Z" fill="#588995"/>
<path d="M97.3705 112.02C107.544 110.618 110.659 98.0865 106.168 91.3976C105.741 90.761 106.079 89.8049 106.84 89.7038L157.521 82.959L161.733 103.337L97.3705 112.02Z" fill="#588995"/>
<path d="M186.989 236.007C180.347 236.887 173.625 235.073 168.302 230.966C127.673 199.848 158.684 76.5889 94.9195 76.5889L201.24 64.2114C204.435 63.788 207.682 64.002 210.796 64.8415C213.911 65.6809 216.832 67.1293 219.392 69.1037C253.407 97.5026 234.277 221.136 299.276 221.136" fill="#ECF8FF"/>
<path d="M210.796 64.842C207.682 64.0027 204.435 63.7877 201.24 64.2111L94.9199 76.5891C158.684 76.5896 127.673 199.848 168.302 230.966C173.458 234.945 179.928 236.771 186.366 236.082L186.989 235.999L186.929 235.549C180.409 236.412 173.811 234.632 168.585 230.6L168.583 230.599C158.56 222.922 152.91 209.521 149.112 193.61C145.316 177.703 143.397 159.422 140.744 142.038C138.096 124.689 134.717 108.232 127.978 96.1096C124.603 90.0402 120.377 85.0392 114.964 81.5568C110.797 78.8765 105.943 77.1071 100.261 76.4328L201.294 64.6711L201.301 64.6701C204.239 64.2807 207.223 64.4407 210.102 65.1408L210.676 65.2883C213.731 66.1118 216.597 67.5335 219.109 69.4709C227.48 76.4694 232.632 89.3803 236.635 104.955C240.64 120.539 243.454 138.59 247.263 155.869C251.061 173.103 255.84 189.518 263.769 201.628C271.244 213.047 281.532 220.653 296.405 221.516L299.276 221.136C234.531 221.136 253.259 98.466 219.788 69.4406L219.392 69.1037C216.991 67.2527 214.274 65.8641 211.378 65.0061L210.796 64.842Z" fill="#588995"/>
<path d="M187.833 235.895C194.477 235.015 200.496 231.513 204.567 226.162C208.341 221.2 210.154 215.024 209.691 208.82C209.629 207.99 210.163 207.264 210.987 207.15C223.034 205.491 306.128 194.542 318.51 192.911C319.389 192.795 320.151 193.421 320.212 194.306C320.639 200.465 318.825 206.587 315.078 211.513C311.007 216.864 304.988 220.365 298.345 221.246L187.833 235.895Z" fill="#588995"/>
<path d="M318.509 192.911C306.127 194.542 223.034 205.49 210.987 207.15C210.163 207.263 209.629 207.99 209.691 208.819L209.727 209.401C210.038 215.409 208.222 221.355 204.566 226.162C200.495 231.513 194.477 235.015 187.833 235.896L298.344 221.245C304.78 220.392 310.631 217.08 314.691 212.009L315.078 211.513C318.707 206.741 320.523 200.846 320.246 194.883L320.212 194.306C320.15 193.421 319.389 192.796 318.509 192.911ZM318.63 193.829C318.978 193.784 319.264 194.016 319.289 194.37C319.7 200.306 317.951 206.206 314.341 210.952L313.968 211.431C310.056 216.316 304.42 219.507 298.222 220.328L197.266 233.71C200.177 232.079 202.777 229.891 204.902 227.237L205.303 226.723C209.215 221.579 211.093 215.179 210.614 208.751C210.585 208.361 210.819 208.107 211.114 208.067C223.159 206.408 306.246 195.461 318.63 193.829Z" fill="#588995"/>
<path d="M308.524 160.754C308.329 160.754 308.166 160.702 308.003 160.601C307.612 160.324 307.515 159.793 307.775 159.396C311.454 154.139 311.258 146.737 307.222 138.543C298.758 121.401 276.004 106.388 256.505 105.119C247.358 104.5 240.294 107.023 236.649 112.244C236.356 112.641 235.835 112.742 235.412 112.469C235.021 112.196 234.923 111.662 235.216 111.268V111.248L242.606 100.701C246.642 94.9818 254.259 92.1987 264.058 92.8367C284.077 94.1421 307.482 109.565 316.206 127.225C320.568 136.001 320.698 144.022 316.629 149.813L309.208 160.36C309.045 160.601 308.784 160.718 308.491 160.718L308.524 160.754Z" fill="#588995"/>
<path d="M308.525 161.241C308.241 161.241 307.987 161.166 307.743 161.013C307.118 160.57 306.962 159.747 307.369 159.128C310.95 154.011 310.738 146.781 306.783 138.76C298.381 121.739 275.809 106.866 256.473 105.606C247.496 104.991 240.588 107.452 237.049 112.523C236.594 113.139 235.78 113.288 235.148 112.878C234.829 112.657 234.634 112.341 234.572 111.983C234.52 111.657 234.592 111.332 234.771 111.055C234.784 111.026 234.797 110.993 234.816 110.971L242.209 100.424C246.343 94.5675 254.117 91.703 264.094 92.3508C284.28 93.6659 307.857 109.216 316.653 127.009C321.086 135.932 321.223 144.132 317.034 150.095L309.615 160.642C309.413 160.935 309.104 161.127 308.736 161.186C308.674 161.222 308.606 161.241 308.531 161.241H308.525ZM253.846 104.538C254.722 104.538 255.617 104.567 256.535 104.633C276.184 105.912 299.117 121.029 307.659 138.327C311.777 146.684 311.959 154.265 308.173 159.675C308.066 159.841 308.108 160.079 308.284 160.203C308.313 160.219 308.342 160.235 308.372 160.245C308.547 160.203 308.717 160.209 308.801 160.089L316.223 149.532C320.198 143.878 320.035 136.033 315.764 127.442C307.108 109.926 283.895 94.6195 264.019 93.3239C254.4 92.6826 246.923 95.4171 243 100.984L235.653 111.465C235.637 111.501 235.62 111.534 235.598 111.56C235.523 111.664 235.52 111.762 235.529 111.83C235.546 111.924 235.598 112.012 235.682 112.071C235.874 112.191 236.105 112.142 236.245 111.954C239.615 107.129 245.806 104.538 253.837 104.538H253.846Z" fill="#588995"/>
<path d="M325.255 128.221C336.225 150.432 324.702 167.128 299.604 165.477C274.441 163.83 245.111 144.419 234.141 122.225C223.171 100.014 234.694 83.3186 259.825 84.969C284.923 86.6194 314.317 106.027 325.255 128.221ZM243.907 122.879C252.501 140.314 275.58 155.533 295.307 156.838C315.033 158.143 324.05 145.021 315.457 127.567C306.863 110.132 283.783 94.9137 264.057 93.6083C244.362 92.303 235.313 105.428 243.907 122.863" fill="#ECF8FF"/>
<path d="M302.993 166.079C301.876 166.079 300.74 166.04 299.571 165.965C274.295 164.311 244.747 144.786 233.702 122.439C228.383 111.665 228.09 101.782 232.885 94.6072C237.791 87.2568 247.38 83.6532 259.858 84.4801C285.154 86.1435 314.685 105.668 325.695 128.006C331.017 138.78 331.31 148.667 326.515 155.844C322.068 162.501 313.79 166.079 302.993 166.079ZM256.433 85.3459C245.958 85.3459 237.957 88.7705 233.695 95.1508C229.106 102.023 229.421 111.564 234.578 122.01C245.486 144.077 274.666 163.357 299.633 164.992C311.727 165.799 320.994 162.348 325.698 155.304C330.291 148.429 329.975 138.891 324.816 128.442C313.947 106.385 284.78 87.1039 259.793 85.46C258.643 85.3851 257.527 85.3459 256.433 85.3459ZM297.983 157.417C297.101 157.417 296.196 157.387 295.275 157.326C275.366 156.007 252.123 140.649 243.468 123.094C243.455 123.068 243.445 123.042 243.438 123.015C239.278 114.539 239.07 106.759 242.852 101.101C246.733 95.3038 254.265 92.4815 264.086 93.1162C283.995 94.4346 307.238 109.793 315.893 127.348C320.086 135.867 320.304 143.68 316.508 149.35C312.999 154.594 306.476 157.414 297.98 157.414L297.983 157.417ZM244.373 122.726C252.914 139.979 275.763 155.057 295.336 156.352C304.783 156.984 312.029 154.301 315.701 148.813C319.295 143.445 319.051 135.978 315.018 127.788C306.502 110.509 283.624 95.3982 264.024 94.0993C254.552 93.4613 247.341 96.1534 243.666 101.651C240.072 107.019 240.317 114.477 244.343 122.651C244.356 122.677 244.366 122.7 244.373 122.726Z" fill="#588995"/>
<path d="M325.646 156.215L318.224 166.762C313.569 173.409 304.422 177.101 291.921 176.293C266.726 174.662 237.331 155.304 226.361 133.145C220.827 121.996 221.023 112.24 225.743 105.525L233.165 94.9775C228.445 101.709 228.249 111.485 233.751 122.598C244.753 144.757 274.18 164.099 299.343 165.746C311.843 166.554 320.991 162.862 325.646 156.215Z" fill="#C4DAE6"/>
<path d="M295.278 176.895C294.174 176.895 293.041 176.856 291.889 176.784C266.557 175.143 236.967 155.664 225.922 133.362C220.492 122.428 220.287 112.441 225.339 105.244L232.761 94.7001C232.917 94.4755 233.223 94.4267 233.441 94.5797C233.663 94.7327 233.715 95.0385 233.562 95.2566C228.721 102.158 228.943 111.79 234.187 122.382C245.111 144.388 274.353 163.62 299.37 165.257C311.255 166.029 320.424 162.741 325.19 156.009L325.242 155.934C325.398 155.709 325.701 155.661 325.923 155.817C326.144 155.97 326.196 156.276 326.043 156.494C326.023 156.52 326.004 156.546 325.988 156.569L318.618 167.041C314.129 173.45 305.916 176.891 295.271 176.891L295.278 176.895ZM230.069 100.227L226.143 105.807C221.303 112.695 221.537 122.327 226.801 132.929C237.706 154.954 266.931 174.19 291.954 175.807C303.875 176.589 313.071 173.268 317.823 166.484L321.707 160.967C316.362 164.987 308.676 166.836 299.311 166.237C273.985 164.58 244.379 145.101 233.315 122.819C229.177 114.466 228.093 106.66 230.069 100.227Z" fill="#588995"/>
<path d="M305.431 168.634C302.274 168.634 298.465 170.564 296.74 173.093C295.991 174.233 295.763 175.304 296.121 176.095L316.238 217.645C316.369 217.309 316.564 216.994 316.792 216.662C319.005 213.432 323.758 211.131 327.632 211.447C328.055 211.482 328.446 211.534 328.804 211.622L308.719 170.056C308.719 170.056 308.719 170.001 308.686 169.969C308.296 169.213 307.319 168.741 305.952 168.634H305.431Z" fill="#C4DAE6"/>
<path d="M316.238 218.131C316.049 218.131 315.88 218.024 315.799 217.858L295.678 176.308C295.245 175.348 295.476 174.114 296.329 172.825C298.152 170.156 302.062 168.147 305.427 168.147H305.948C307.534 168.271 308.644 168.834 309.116 169.746C309.138 169.785 309.155 169.827 309.171 169.869L329.243 211.413C329.324 211.585 329.305 211.787 329.181 211.934C329.064 212.08 328.865 212.142 328.686 212.1C328.393 212.028 328.058 211.976 327.592 211.937C323.859 211.628 319.321 213.835 317.198 216.943C317.016 217.204 316.821 217.51 316.697 217.825C316.629 218.008 316.456 218.128 316.261 218.138H316.241L316.238 218.131ZM305.916 169.121H305.434C302.41 169.121 298.77 170.986 297.146 173.369C296.502 174.349 296.287 175.273 296.567 175.895L316.267 216.572C316.31 216.507 316.349 216.445 316.394 216.383C318.702 213.014 323.696 210.625 327.674 210.957C327.771 210.963 327.869 210.973 327.957 210.983L308.282 170.267C308.266 170.237 308.256 170.205 308.246 170.175C307.934 169.596 307.091 169.212 305.916 169.117V169.121Z" fill="#588995"/>
<path d="M325.679 210.526C322.521 210.526 318.745 212.456 316.987 215.005C316.206 216.135 316.011 217.199 316.369 217.993C316.76 218.791 317.769 219.302 319.169 219.409C322.424 219.641 326.558 217.642 328.413 214.93C329.195 213.801 329.39 212.72 328.999 211.922C328.641 211.144 327.697 210.666 326.395 210.542H326.232C326.037 210.542 325.842 210.526 325.646 210.526H325.679Z" fill="#588995"/>
<path d="M319.679 219.916C319.494 219.916 319.311 219.909 319.132 219.896C317.544 219.776 316.404 219.177 315.932 218.21C315.483 217.217 315.721 215.987 316.587 214.73C318.419 212.067 322.306 210.056 325.636 210.04H325.698C325.783 210.04 325.874 210.043 325.962 210.049L326.395 210.056C327.951 210.199 329.015 210.788 329.445 211.719C329.917 212.673 329.689 213.952 328.82 215.209C326.99 217.888 322.993 219.916 319.682 219.916H319.679ZM325.649 211.013C322.658 211.026 319.035 212.898 317.387 215.28C316.733 216.231 316.522 217.149 316.815 217.79C317.121 218.412 317.993 218.829 319.204 218.92C322.342 219.138 326.248 217.224 328.009 214.649C328.673 213.689 328.875 212.771 328.559 212.133C328.283 211.53 327.475 211.13 326.346 211.026H326.229C326.124 211.026 326.02 211.026 325.913 211.019L325.646 211.013H325.649Z" fill="#588995"/>
<path d="M189.988 117.691C181.333 118.847 176.998 125.629 177.1 134.751L163.344 134.445C163.232 120.249 172.38 107.749 189.143 105.511C204.591 103.448 216.724 111.641 218.633 125.935C220.408 139.232 211.722 148.512 201.77 151.645L203.072 161.396L190.144 163.123L187.644 144.396C199.147 142.86 205.926 137.669 204.713 128.583C203.692 120.937 197.877 116.638 189.988 117.691ZM191.93 187.358L189.785 171.291L205.671 169.17L207.816 185.237L191.93 187.358Z" fill="#C4DAE6"/>
</svg>
