<svg width="411" height="300" viewBox="0 0 411 300" fill="none" xmlns="http://www.w3.org/2000/svg">
<path d="M104.369 197.01C99.5875 199.777 99.5704 204.251 104.318 207.018L167.934 244.009C172.682 246.775 180.418 246.775 185.2 244.009L300.801 177.251C305.583 174.484 305.6 170.009 300.852 167.243L237.237 130.252C232.489 127.485 224.77 127.485 219.988 130.252L104.369 197.01Z" fill="#588995"/>
<path d="M228.625 127.958C225.476 127.958 222.31 128.655 219.878 130.062H219.879L104.26 196.82L103.817 197.09C101.675 198.461 100.56 200.217 100.552 202.013C100.543 203.928 101.794 205.799 104.208 207.206V207.207L167.824 244.197C170.239 245.605 173.4 246.302 176.554 246.302C179.707 246.302 182.878 245.605 185.31 244.198V244.197L300.91 177.439C303.341 176.033 304.61 174.163 304.619 172.248C304.628 170.332 303.377 168.46 300.963 167.054H300.962L237.347 130.062L236.886 129.808C234.537 128.571 231.578 127.958 228.625 127.958ZM228.625 128.396C231.524 128.396 234.409 128.998 236.681 130.193L237.127 130.44L300.742 167.432C303.076 168.792 304.19 170.541 304.182 172.246C304.173 173.951 303.042 175.701 300.691 177.062L185.091 243.819L184.642 244.066C182.354 245.262 179.457 245.865 176.554 245.865C173.457 245.865 170.376 245.179 168.044 243.82L104.428 206.829L104.005 206.569C101.96 205.25 100.981 203.613 100.988 202.015C100.996 200.416 101.99 198.778 104.052 197.459L104.478 197.199L220.097 130.441L220.098 130.44C222.448 129.081 225.533 128.396 228.625 128.396Z" fill="#588995"/>
<path d="M164.671 147.642C160.64 149.965 155.944 154.371 157.378 160.246L173.842 215.579C174.866 220.822 178.914 223.11 182.927 220.788L294.72 155.686C298.768 153.364 300.1 150.204 299.007 145.337L281.758 88.3816C280.904 85.0343 277.71 82.2847 273.458 84.7952L164.671 147.625V147.642Z" fill="#C4DAE6"/>
<path d="M278.989 84.2004C277.475 83.3662 275.531 83.3188 273.349 84.6067L164.562 147.437L164.452 147.499V147.518C162.451 148.686 160.293 150.365 158.797 152.487C157.271 154.652 156.431 157.286 157.166 160.298L157.169 160.309L173.632 215.642C174.156 218.297 175.449 220.236 177.156 221.21C178.766 222.129 180.711 222.171 182.65 221.188L183.037 220.977L294.829 155.875V155.876C296.881 154.699 298.267 153.296 298.994 151.55C299.719 149.806 299.773 147.75 299.22 145.289L299.219 145.281L299.216 145.274L281.97 88.3274C281.532 86.6098 280.49 85.028 278.989 84.2004ZM273.57 84.9836C275.639 83.7622 277.418 83.8337 278.778 84.5832C280.15 85.3397 281.131 86.8065 281.546 88.4358L281.549 88.4456L298.796 145.394C299.335 147.796 299.269 149.751 298.59 151.382C297.912 153.014 296.607 154.352 294.612 155.497H294.611L182.818 220.599L182.453 220.797C180.631 221.723 178.841 221.669 177.372 220.831C175.8 219.934 174.56 218.114 174.056 215.537L174.054 215.527L174.051 215.517L157.588 160.184C156.894 157.326 157.685 154.823 159.154 152.739C160.628 150.647 162.782 148.984 164.781 147.832L164.89 147.769V147.751L273.568 84.9846L273.57 84.9836Z" fill="#588995"/>
<path d="M158.249 153.814C157.258 155.675 156.814 157.844 157.395 160.235L173.841 215.568C174.575 219.035 176.437 220.504 177.752 221.289L110.994 182.471C109.679 181.719 108.876 180.097 108.859 177.791L108.739 131.937C108.739 129.921 109.149 127.787 110.054 125.789L158.249 153.814Z" fill="#C4DAE6"/>
<path d="M109.855 125.699C108.937 127.727 108.521 129.893 108.521 131.937L108.641 177.792V177.792C108.658 180.141 109.478 181.854 110.885 182.659L110.884 182.66L177.621 221.464C177.628 221.468 177.633 221.473 177.64 221.477L177.641 221.476L177.643 221.478L177.864 221.101C176.585 220.337 174.773 218.914 174.055 215.523L174.051 215.505L157.607 160.179C157.043 157.849 157.473 155.737 158.441 153.917L158.54 153.731L158.358 153.625L110.164 125.6L109.955 125.478L109.855 125.699ZM157.961 153.898C157.017 155.758 156.607 157.916 157.183 160.287L157.186 160.297L173.627 215.613L173.701 215.94C174.118 217.672 174.821 218.891 175.582 219.774L111.104 182.282L111.103 182.281L110.878 182.14C109.784 181.388 109.093 179.91 109.077 177.79L108.958 131.937L108.963 131.563C109.009 129.763 109.387 127.88 110.157 126.1L157.961 153.898Z" fill="#588995"/>
<path d="M168.002 149.877C164.228 152.063 159.822 156.162 161.188 161.678L175.414 209.633C176.387 214.535 180.162 216.669 183.936 214.517L288.556 153.583C292.33 151.397 293.594 148.46 292.569 143.9L277.575 94.4245C276.755 91.2821 273.784 88.7204 269.804 91.0601L167.985 149.86L168.002 149.877Z" fill="#588995"/>
<path d="M274.98 90.4953C273.561 89.7122 271.74 89.6681 269.695 90.8703L167.63 149.812L167.65 149.83C165.815 150.925 163.854 152.466 162.488 154.402C161.057 156.43 160.273 158.898 160.975 161.731L160.978 161.739L175.202 209.687C175.699 212.176 176.913 213.994 178.516 214.909C180.128 215.83 182.098 215.816 184.043 214.707L184.045 214.706L288.665 153.772C290.58 152.663 291.881 151.349 292.564 149.715C293.246 148.082 293.3 146.159 292.782 143.852L292.781 143.844L292.778 143.836L277.784 94.3605C277.361 92.7496 276.384 91.2703 274.98 90.4953ZM269.915 91.2482C271.847 90.1118 273.502 90.179 274.768 90.8771C276.046 91.5823 276.964 92.9516 277.363 94.4796L277.365 94.4874L292.358 143.956C292.862 146.205 292.796 148.027 292.161 149.547C291.525 151.068 290.305 152.317 288.446 153.394L183.828 214.327L183.485 214.511C181.775 215.366 180.103 215.312 178.733 214.53C177.265 213.692 176.105 211.996 175.627 209.59L175.625 209.58L175.623 209.57L161.401 161.625C160.736 158.942 161.471 156.602 162.845 154.654C164.223 152.702 166.24 151.149 168.111 150.066L168.356 149.924L168.34 149.906L269.914 91.2492L269.915 91.2482Z" fill="#588995"/>
<path d="M180.999 216.19C182.109 216.19 183.253 215.865 184.363 215.233L288.983 154.299C293.082 151.925 294.5 148.56 293.407 143.693L278.395 94.1498C277.848 92.0662 276.482 90.3755 274.757 89.6582C273.613 89.18 271.735 88.9068 269.378 90.3072L167.558 149.107C167.558 149.107 167.439 149.175 167.405 149.227C164.604 150.883 158.729 155.238 160.368 161.864L174.612 209.854C175.158 212.603 176.644 214.755 178.693 215.677C179.427 216.019 180.213 216.173 181.016 216.173L180.999 216.19ZM272.793 90.9903C273.255 90.9903 273.681 91.0757 274.108 91.2465C275.338 91.7588 276.328 93.0226 276.755 94.6279L291.75 144.137C292.672 148.219 291.579 150.832 288.129 152.83L183.509 213.765C182.075 214.584 180.657 214.721 179.393 214.14C177.856 213.44 176.712 211.732 176.268 209.461L162.025 161.42C160.642 155.819 166.055 151.993 168.446 150.61C168.498 150.576 168.549 150.542 168.6 150.49L270.249 91.793C271.154 91.2636 272.008 90.9903 272.811 90.9903H272.793Z" fill="#588995"/>
<path d="M274.607 89.3657C273.394 88.9271 271.538 88.7709 269.269 90.1177L167.449 148.917L167.447 148.918C167.446 148.919 167.444 148.92 167.442 148.921C167.438 148.924 167.432 148.928 167.425 148.932C167.411 148.941 167.391 148.953 167.37 148.967C167.349 148.981 167.325 149 167.302 149.02C167.291 149.029 167.276 149.042 167.262 149.057C165.849 149.896 163.674 151.409 162.048 153.549C160.406 155.711 159.317 158.523 160.156 161.917L160.158 161.926L174.4 209.908C174.958 212.699 176.474 214.916 178.602 215.875L178.601 215.875C179.211 216.159 179.854 216.316 180.51 216.369L180.471 216.408H180.999C182.152 216.408 183.334 216.071 184.472 215.423L184.474 215.422L289.094 154.488C291.172 153.284 292.591 151.816 293.344 150.015C294.096 148.215 294.173 146.108 293.62 143.645L293.618 143.637L293.615 143.629L278.606 94.0942L278.491 93.6978C277.868 91.7415 276.527 90.1577 274.842 89.4565L274.607 89.3657ZM269.489 90.4946C271.638 89.2178 273.359 89.3779 274.461 89.7769L274.673 89.8599C276.324 90.5466 277.651 92.1763 278.184 94.2056L278.186 94.2134L293.195 143.75C293.733 146.15 293.647 148.157 292.94 149.847C292.233 151.538 290.893 152.94 288.874 154.11L184.255 215.043L183.849 215.26C183.042 215.661 182.226 215.892 181.428 215.954H181.016C180.241 215.954 179.487 215.806 178.785 215.479L178.783 215.478L178.6 215.391C176.725 214.462 175.346 212.428 174.826 209.811L174.824 209.801L174.821 209.792L160.578 161.802C159.783 158.574 160.811 155.899 162.395 153.814C163.985 151.722 166.126 150.236 167.516 149.415L167.559 149.389L167.58 149.357C167.581 149.356 167.582 149.355 167.584 149.353C167.592 149.346 167.605 149.337 167.618 149.328C167.631 149.319 167.644 149.311 167.653 149.305C167.658 149.302 167.662 149.3 167.664 149.298L167.667 149.296L269.487 90.4966L269.489 90.4946ZM272.793 90.772C271.946 90.7759 271.059 91.0655 270.139 91.604L168.466 150.316L168.445 150.335C168.414 150.367 168.383 150.39 168.337 150.42L167.851 150.711C166.644 151.456 164.966 152.669 163.65 154.295C162.144 156.158 161.099 158.584 161.812 161.472L161.815 161.483L176.059 209.523C176.514 211.826 177.685 213.602 179.303 214.339L179.304 214.338C180.645 214.954 182.136 214.801 183.617 213.955L183.619 213.954L288.239 153.019C289.991 152.004 291.168 150.82 291.781 149.349C292.394 147.88 292.43 146.156 291.963 144.089L291.962 144.082L291.959 144.074L276.965 94.5649C276.524 92.9149 275.498 91.5885 274.192 91.0444L274.189 91.0435L274.019 90.98C273.623 90.8415 273.222 90.772 272.793 90.772ZM272.805 91.2085C273.233 91.2099 273.629 91.2903 274.027 91.4497L274.028 91.4487C275.178 91.9296 276.13 93.1284 276.544 94.6841L276.546 94.6909L291.537 144.187C291.992 146.201 291.944 147.824 291.378 149.181C290.813 150.537 289.717 151.658 288.019 152.641L183.401 213.575C182.014 214.367 180.67 214.487 179.484 213.942C178.033 213.281 176.918 211.648 176.482 209.418L176.48 209.409L176.477 209.399L162.238 161.368C161.568 158.655 162.538 156.367 163.99 154.571C165.445 152.771 167.37 151.485 168.556 150.799L168.567 150.792C168.611 150.763 168.668 150.723 168.727 150.668L270.358 91.9819C271.239 91.4668 272.054 91.2098 272.805 91.2085Z" fill="#588995"/>
<path d="M115.999 119.32L224.803 56.4895C226.835 55.3112 228.663 55.2087 229.995 55.9943L278.685 84.2926C277.352 83.5241 275.508 83.6266 273.476 84.7879L164.688 147.618C162.298 148.984 159.702 151.102 158.233 153.8L110.056 125.775C111.217 123.214 113.181 120.874 115.999 119.303V119.32Z" fill="#ECF8FF"/>
<path d="M229.833 55.6603C228.442 54.9875 226.636 55.1743 224.693 56.3009L116.218 118.941V118.931L115.893 119.111C113.031 120.707 111.035 123.084 109.856 125.685L109.775 125.865L109.946 125.964L158.317 154.103L158.425 153.905C159.867 151.256 162.426 149.163 164.797 147.808L273.585 84.9777C275.576 83.8401 277.334 83.7657 278.575 84.4816L278.685 84.2931L278.794 84.1037L230.106 55.8058L229.833 55.6603ZM224.913 56.6789C226.905 55.5241 228.644 55.4514 229.884 56.1828L229.885 56.1838L277.044 83.591C275.937 83.5214 274.681 83.8482 273.367 84.5988L164.579 147.429C162.226 148.773 159.666 150.849 158.154 153.501L110.34 125.687C111.446 123.334 113.245 121.187 115.78 119.683V119.698L224.913 56.6789Z" fill="#588995"/>
<path d="M236.894 106.715C237.185 106.715 237.475 106.562 237.628 106.288C237.868 105.879 237.731 105.366 237.321 105.127L188.973 77.0337C188.563 76.7946 188.051 76.9312 187.812 77.3411C187.573 77.7509 187.709 78.2633 188.119 78.5024L236.467 106.596C236.604 106.681 236.758 106.715 236.894 106.715Z" fill="#588995"/>
<path d="M188.985 76.7938C188.489 76.5672 187.904 76.75 187.623 77.2313C187.323 77.746 187.495 78.3918 188.009 78.6913H188.01L236.357 106.785L236.358 106.784C236.533 106.891 236.725 106.933 236.894 106.933C237.259 106.933 237.625 106.741 237.819 106.395L237.818 106.394C238.116 105.88 237.943 105.237 237.431 104.938H237.43L189.083 76.8446L188.985 76.7938ZM188.001 77.4511C188.157 77.183 188.467 77.0728 188.746 77.1688L188.863 77.2226L237.211 105.316L237.212 105.315C237.479 105.472 237.589 105.781 237.493 106.06L237.439 106.179L237.39 106.252C237.271 106.408 237.083 106.497 236.894 106.497C236.792 106.497 236.68 106.471 236.583 106.41L236.577 106.407L188.229 78.3134L188.124 78.2372C187.902 78.0408 187.845 77.7178 188.001 77.4511Z" fill="#588995"/>
<path d="M134.477 196.941C134.768 196.941 135.058 196.788 135.212 196.514C135.451 196.105 135.314 195.592 134.904 195.353C133.811 194.721 133.214 193.321 133.197 191.408L133.06 145.553C133.06 143.572 133.487 141.574 134.324 139.764C135.502 137.168 137.432 135.05 139.908 133.667L211.756 92.1845C212.166 91.9454 212.302 91.4331 212.063 91.0232C211.824 90.6133 211.312 90.4767 210.902 90.7158L139.071 132.198C136.288 133.753 134.102 136.126 132.77 139.064C131.847 141.079 131.369 143.333 131.369 145.553L131.506 191.408C131.523 193.97 132.428 195.883 134.067 196.839C134.204 196.924 134.358 196.958 134.494 196.958L134.477 196.941Z" fill="#588995"/>
<path d="M131.593 145.142C131.648 143.087 132.117 141.017 132.969 139.155V139.154C134.282 136.259 136.435 133.921 139.178 132.389L139.181 132.387L211.011 90.905H211.012C211.317 90.7271 211.695 90.8272 211.874 91.1335C212.052 91.4385 211.952 91.8171 211.646 91.9958H211.647L139.802 133.476L139.336 133.749C137.042 135.154 135.248 137.2 134.125 139.673L133.971 140.019C133.222 141.765 132.842 143.667 132.842 145.553V145.554L132.979 191.409V191.41C132.996 193.355 133.604 194.854 134.795 195.543C135.062 195.699 135.173 196.008 135.077 196.287L135.023 196.405L135.022 196.408L134.975 196.478C134.855 196.635 134.667 196.723 134.478 196.723H134.357C134.297 196.71 134.238 196.688 134.184 196.654L134.178 196.65L133.895 196.47C132.52 195.516 131.741 193.765 131.725 191.408L131.588 145.553L131.593 145.142ZM131.151 145.554L131.287 191.409V191.41C131.305 194.019 132.229 196.02 133.957 197.028L133.958 197.027C134.133 197.135 134.325 197.177 134.494 197.177H135.018L134.908 197.066C135.109 196.977 135.287 196.828 135.402 196.622V196.621C135.7 196.107 135.527 195.464 135.015 195.165L135.014 195.164C134.019 194.589 133.432 193.287 133.415 191.408L133.278 145.553C133.279 143.603 133.699 141.637 134.522 139.856L134.523 139.854C135.682 137.3 137.58 135.218 140.015 133.858L140.018 133.856L211.865 92.3737H211.866C212.38 92.0743 212.552 91.4284 212.252 90.9138C211.953 90.4005 211.307 90.227 210.792 90.5271L210.793 90.528L138.965 132.008L138.443 132.313C135.866 133.888 133.837 136.18 132.57 138.973H132.571C131.636 141.018 131.151 143.303 131.151 145.553V145.554Z" fill="#588995"/>
<path d="M134.085 158.603C136.066 157.459 138.815 157.613 141.855 159.355C147.884 162.839 152.768 171.275 152.751 178.209C152.751 181.659 151.521 184.067 149.557 185.228L143.921 188.507C145.885 187.363 147.115 184.938 147.115 181.488C147.132 174.554 142.265 166.101 136.219 162.634C133.179 160.875 130.43 160.704 128.449 161.882L134.085 158.603Z" fill="#ECF8FF"/>
<path d="M147.321 180.825C147.186 177.49 145.99 173.874 144.13 170.651C142.145 167.214 139.393 164.201 136.329 162.444L135.754 162.129C133.836 161.131 132.026 160.756 130.455 160.968L134.193 158.792V158.793C136.083 157.701 138.746 157.826 141.746 159.545L141.747 159.544C144.72 161.262 147.423 164.211 149.381 167.597C151.339 170.984 152.541 174.79 152.532 178.209L152.519 178.834C152.379 181.894 151.206 183.998 149.448 185.039H149.447L145.683 187.229C146.734 185.861 147.334 183.911 147.334 181.488L147.321 180.825ZM146.883 182.113C146.743 185.177 145.569 187.294 143.811 188.318L144.031 188.696L149.667 185.417L149.669 185.416C151.592 184.278 152.81 182.014 152.955 178.853L152.97 178.209C152.978 174.694 151.746 170.814 149.76 167.379C147.773 163.943 145.02 160.931 141.965 159.166L141.964 159.165L141.39 158.852C138.628 157.431 136.092 157.299 134.172 158.305L133.976 158.414L133.975 158.415L128.347 161.688C128.343 161.69 128.34 161.692 128.337 161.694L128.559 162.071L128.561 162.07L128.74 161.969C130.616 160.957 133.203 161.141 136.109 162.823H136.11C139.092 164.533 141.795 167.481 143.751 170.87C145.707 174.259 146.905 178.068 146.896 181.487V181.488L146.883 182.113Z" fill="#588995"/>
<path d="M136.219 162.63C130.191 159.146 125.273 161.947 125.255 168.88C125.238 175.814 130.123 184.268 136.151 187.752C142.18 191.235 147.098 188.435 147.115 181.501C147.115 174.567 142.265 166.114 136.219 162.647V162.63Z" fill="#C4DAE6"/>
<path d="M136.329 162.441C133.275 160.676 130.451 160.475 128.375 161.658C126.298 162.842 125.046 165.366 125.037 168.88C125.028 172.395 126.26 176.279 128.247 179.719C130.234 183.159 132.987 186.175 136.042 187.941C139.096 189.706 141.92 189.906 143.996 188.723C146.073 187.539 147.325 185.015 147.334 181.502V181.501L147.319 180.838C147.177 177.503 145.982 173.888 144.124 170.665C142.165 167.268 139.457 164.288 136.438 162.523V162.504L136.329 162.441ZM128.592 162.038C130.463 160.972 133.071 161.099 136.001 162.759V162.774L136.11 162.836C139.092 164.546 141.791 167.494 143.745 170.883C145.699 174.272 146.896 178.081 146.896 181.501C146.888 184.921 145.673 187.264 143.779 188.343C141.885 189.422 139.235 189.281 136.261 187.563C133.287 185.844 130.583 182.891 128.625 179.5C126.667 176.109 125.465 172.3 125.474 168.881C125.482 165.461 126.698 163.117 128.592 162.038Z" fill="#588995"/>
<path d="M136.203 168.366C132.924 166.47 130.277 167.99 130.26 171.764C130.26 175.521 132.89 180.115 136.169 182.011C139.448 183.907 142.095 182.387 142.112 178.612C142.112 174.855 139.482 170.278 136.203 168.383V168.366Z" fill="#C4DAE6"/>
<path d="M136.312 168.177C134.634 167.206 133.065 167.082 131.899 167.749C130.734 168.416 130.05 169.83 130.041 171.763V171.764L130.049 172.128C130.127 173.955 130.782 175.932 131.796 177.694C132.877 179.574 134.379 181.228 136.06 182.2C137.738 183.171 139.307 183.295 140.473 182.628C141.638 181.96 142.322 180.546 142.331 178.613V178.612L142.323 178.249C142.245 176.422 141.59 174.448 140.576 172.69C139.518 170.856 138.058 169.239 136.422 168.26V168.239L136.312 168.177ZM132.117 168.128C133.077 167.578 134.43 167.628 135.984 168.494V168.509L136.094 168.572C137.692 169.496 139.145 171.082 140.198 172.908C141.251 174.734 141.894 176.781 141.894 178.612C141.885 180.453 141.238 181.686 140.256 182.248C139.274 182.81 137.878 182.747 136.278 181.822C134.68 180.898 133.228 179.307 132.175 177.476C131.122 175.646 130.479 173.596 130.479 171.765L130.487 171.427C130.569 169.772 131.197 168.655 132.117 168.128Z" fill="#588995"/>
<path d="M169.573 150.043C165.781 152.229 161.392 156.328 162.741 161.844L176.984 209.799C177.958 214.701 181.732 216.835 185.506 214.683L290.127 153.749C293.901 151.563 295.165 148.626 294.123 144.066L279.128 94.5905C278.326 91.4482 275.354 88.8865 271.375 91.2261L169.555 150.026H169.573V150.043Z" fill="#C4DAE6"/>
<path d="M276.549 90.6618C275.132 89.8787 273.311 89.8346 271.266 91.0368L168.74 150.245H168.814C167.094 151.32 165.317 152.774 164.051 154.569C162.62 156.596 161.837 159.064 162.529 161.896L162.531 161.906L176.775 209.862C177.273 212.347 178.486 214.162 180.087 215.076C181.699 215.996 183.669 215.983 185.614 214.874L185.616 214.873L290.236 153.938C292.151 152.829 293.452 151.516 294.133 149.882C294.814 148.248 294.863 146.324 294.336 144.017L294.334 144.009L294.332 144.003L279.338 94.527C278.924 92.916 277.951 91.4369 276.549 90.6618ZM271.486 91.4147C273.418 90.2783 275.074 90.3456 276.337 91.0436C277.613 91.7486 278.527 93.1177 278.917 94.6452L278.919 94.654L293.912 144.121C294.425 146.37 294.363 148.193 293.73 149.714C293.096 151.234 291.876 152.483 290.017 153.56L185.399 214.494L185.056 214.677C183.346 215.533 181.674 215.479 180.304 214.697C178.836 213.859 177.676 212.163 177.198 209.757L177.196 209.747L177.194 209.737L162.951 161.782C162.299 159.102 163.036 156.766 164.408 154.821C165.786 152.868 167.802 151.316 169.682 150.232L169.791 150.17V150.142L271.485 91.4157L271.486 91.4147Z" fill="#588995"/>
<path d="M255.476 118.656C254.468 121.679 254.52 124.992 255.647 128.595L260.975 145.759C262.085 149.362 263.844 151.839 266.218 153.205C268.609 154.571 271.205 154.554 274.006 153.205C276.824 151.839 278.753 149.635 279.744 146.613C280.769 143.59 280.7 140.277 279.59 136.673L274.262 119.51C273.135 115.906 271.376 113.43 269.002 112.064C266.628 110.697 264.032 110.715 261.197 112.064C258.396 113.43 256.467 115.633 255.459 118.656H255.476ZM268.711 142.633L263.024 124.343C262.717 123.352 262.632 122.481 262.768 121.73C262.905 120.978 263.229 120.449 263.793 120.193C264.339 119.937 264.852 120.022 265.364 120.466C265.876 120.91 266.269 121.627 266.577 122.618L272.264 140.909C272.571 141.899 272.674 142.77 272.52 143.521C272.4 144.273 272.059 144.802 271.512 145.059C270.966 145.315 270.436 145.229 269.924 144.785C269.429 144.341 269.019 143.624 268.711 142.633Z" fill="#588995"/>
<path d="M269.11 111.875C266.815 110.554 264.322 110.495 261.641 111.625L261.103 111.867L261.101 111.868L260.575 112.138C258.004 113.544 256.213 115.701 255.251 118.587L255.154 118.875H255.179C254.251 121.87 254.335 125.134 255.438 128.661L260.766 145.824C261.851 149.347 263.561 151.833 265.882 153.26L266.109 153.394C268.418 154.714 270.912 154.775 273.567 153.644L274.1 153.402C276.971 152.01 278.941 149.76 279.95 146.682V146.683C280.993 143.609 280.919 140.247 279.798 136.609L274.47 119.445L274.249 118.776C273.107 115.496 271.394 113.189 269.11 111.875ZM261.809 112.028C264.387 110.941 266.735 111.012 268.892 112.254C271.203 113.584 272.936 116.004 274.053 119.574L274.052 119.575L279.381 136.738C280.412 140.084 280.531 143.163 279.712 145.982L279.536 146.543L279.535 146.545L279.342 147.092C278.323 149.778 276.501 151.752 273.909 153.009H273.91C271.163 154.332 268.644 154.34 266.326 153.015L265.9 152.754C263.801 151.379 262.214 149.042 261.183 145.695V145.694L255.855 128.531V128.53C254.739 124.963 254.692 121.697 255.683 118.725L255.778 118.437H255.769C256.782 115.619 258.634 113.558 261.29 112.261L261.809 112.028ZM264.627 119.851C264.317 119.798 264.007 119.851 263.701 119.994L263.583 120.053C263.007 120.367 262.688 120.948 262.553 121.691C262.426 122.388 262.481 123.17 262.707 124.033L262.815 124.408L268.502 142.699C268.816 143.709 269.242 144.468 269.777 144.948L269.78 144.951C270.059 145.193 270.355 145.347 270.668 145.4C270.983 145.453 271.297 145.401 271.605 145.257C272.233 144.962 272.605 144.36 272.734 143.564V143.565C272.897 142.764 272.785 141.853 272.472 140.844V140.843L266.784 122.553L266.663 122.187C266.368 121.36 265.993 120.724 265.506 120.302C265.228 120.061 264.936 119.905 264.627 119.851ZM264.554 120.283C264.765 120.319 264.986 120.429 265.22 120.632C265.629 120.986 265.969 121.545 266.25 122.332L266.367 122.683L272.054 140.973C272.318 141.824 272.422 142.567 272.348 143.209L272.305 143.478L272.303 143.487L272.252 143.739C272.111 144.3 271.824 144.671 271.419 144.861C271.18 144.973 270.956 145.006 270.741 144.969C270.526 144.933 270.302 144.823 270.069 144.623C269.615 144.215 269.22 143.54 268.919 142.569L263.233 124.278L263.13 123.922C262.916 123.104 262.87 122.388 262.983 121.769C263.112 121.059 263.408 120.608 263.883 120.392L263.885 120.391C264.124 120.279 264.344 120.247 264.554 120.283Z" fill="#588995"/>
<path d="M232.796 161.063C231.652 161.626 230.832 162.531 230.405 163.795C229.944 165.059 229.961 166.425 230.439 167.894C230.883 169.328 231.617 170.336 232.642 170.9C233.684 171.463 234.743 171.463 235.887 170.934C236.997 170.387 237.834 169.448 238.295 168.15C238.739 166.852 238.739 165.503 238.295 164.068C237.834 162.634 237.1 161.575 236.058 161.028C235.033 160.482 233.94 160.499 232.796 161.028V161.063Z" fill="#588995"/>
<path d="M236.159 160.835C235.066 160.252 233.9 160.277 232.704 160.83L232.577 160.888V160.929C231.447 161.521 230.631 162.449 230.2 163.72H230.199C229.719 165.038 229.741 166.455 230.231 167.962C230.687 169.432 231.45 170.493 232.537 171.091L232.538 171.092C233.647 171.691 234.779 171.687 235.979 171.132L235.983 171.13C237.147 170.557 238.022 169.572 238.501 168.223L238.502 168.22C238.962 166.875 238.96 165.478 238.504 164.004L238.503 164.002L238.411 163.73C237.967 162.487 237.297 161.518 236.363 160.95L236.159 160.835ZM233.015 161.171C234.059 160.722 235.037 160.732 235.955 161.221H235.956C236.929 161.732 237.636 162.732 238.087 164.136C238.518 165.528 238.515 166.828 238.089 168.077L238.002 168.306C237.545 169.434 236.78 170.25 235.79 170.737C234.771 171.207 233.843 171.232 232.929 170.8L232.746 170.707C231.785 170.178 231.08 169.225 230.647 167.829L230.647 167.826L230.564 167.559C230.181 166.232 230.196 165.005 230.61 163.87L230.612 163.865C231.02 162.657 231.799 161.797 232.893 161.259L233.015 161.198V161.171Z" fill="#588995"/>
<path d="M200.519 145.454C199.494 148.477 199.562 151.79 200.673 155.394L206.001 172.557C207.111 176.16 208.887 178.637 211.261 180.003C213.635 181.369 216.231 181.352 219.049 180.003C221.849 178.637 223.779 176.434 224.787 173.411C225.794 170.388 225.726 167.075 224.616 163.471L219.288 146.308C218.178 142.705 216.419 140.211 214.028 138.862C211.637 137.513 209.058 137.513 206.223 138.862C203.422 140.228 201.492 142.431 200.502 145.454H200.519ZM213.72 169.449L208.033 151.158C207.726 150.168 207.658 149.297 207.777 148.545C207.914 147.794 208.255 147.264 208.802 147.008C209.348 146.752 209.861 146.837 210.39 147.281C210.885 147.725 211.295 148.443 211.603 149.433L217.29 167.724C217.597 168.714 217.682 169.585 217.546 170.337C217.409 171.088 217.068 171.618 216.521 171.874C215.975 172.13 215.462 172.045 214.933 171.601C214.438 171.157 214.028 170.439 213.72 169.449Z" fill="#588995"/>
<path d="M214.135 138.671C211.826 137.369 209.349 137.295 206.668 138.423L206.129 138.665L206.127 138.666L205.603 138.937C203.031 140.343 201.24 142.5 200.294 145.386L200.2 145.672H200.221C199.278 148.669 199.378 151.933 200.464 155.458V155.459L205.792 172.622C206.913 176.26 208.716 178.791 211.152 180.193C213.599 181.601 216.272 181.574 219.143 180.2H219.145C221.999 178.807 223.968 176.558 224.994 173.48C226.019 170.406 225.946 167.045 224.825 163.407L219.496 146.244L219.278 145.575C218.15 142.293 216.437 139.97 214.135 138.671ZM206.835 138.827C209.41 137.742 211.746 137.825 213.92 139.052C216.101 140.283 217.76 142.502 218.865 145.716L219.079 146.373L224.407 163.537C225.506 167.105 225.57 170.371 224.579 173.342C223.59 176.309 221.701 178.466 218.955 179.806H218.954C216.189 181.13 213.671 181.138 211.37 179.814C209.059 178.484 207.309 176.062 206.21 172.493L200.882 155.33L200.688 154.664C199.778 151.353 199.782 148.309 200.726 145.524L200.823 145.236H200.811C201.809 142.418 203.66 140.356 206.316 139.059L206.835 138.827ZM209.639 146.667C209.326 146.613 209.016 146.666 208.709 146.81C208.157 147.069 207.804 147.564 207.627 148.217L207.563 148.506L207.562 148.511L207.523 148.813C207.467 149.427 207.526 150.106 207.718 150.847L207.824 151.223L213.512 169.514C213.825 170.524 214.251 171.283 214.787 171.763L214.792 171.768C215.078 172.008 215.373 172.162 215.684 172.215C215.997 172.269 216.307 172.216 216.614 172.072C217.244 171.776 217.616 171.172 217.761 170.376C217.905 169.58 217.812 168.671 217.498 167.659L211.812 149.369L211.689 149.002C211.39 148.173 211.005 147.539 210.536 147.119L210.53 147.114L210.314 146.951C210.096 146.804 209.872 146.706 209.639 146.667ZM209.565 147.098C209.779 147.135 210.005 147.242 210.247 147.445C210.644 147.802 210.993 148.364 211.276 149.148L211.394 149.499L217.081 167.789C217.382 168.757 217.459 169.591 217.331 170.297C217.203 171.004 216.891 171.459 216.429 171.676C216.19 171.788 215.97 171.821 215.758 171.785C215.544 171.748 215.32 171.638 215.077 171.435C214.624 171.027 214.229 170.353 213.929 169.384L208.242 151.093L208.141 150.738C207.93 149.924 207.894 149.207 207.992 148.585L208.049 148.332C208.201 147.768 208.49 147.396 208.895 147.207C209.134 147.094 209.353 147.062 209.565 147.098Z" fill="#588995"/>
<path d="M230.149 152.535C231.293 151.971 232.096 151.049 232.557 149.751C233.001 148.453 233.001 147.104 232.557 145.669C232.096 144.201 231.361 143.176 230.32 142.63C229.312 142.083 228.202 142.1 227.058 142.63C225.913 143.193 225.111 144.098 224.667 145.362C224.24 146.626 224.24 147.992 224.701 149.461C225.145 150.93 225.879 151.903 226.921 152.467C227.945 153.03 229.021 153.03 230.149 152.501V152.535Z" fill="#588995"/>
<path d="M230.221 142.336C229.266 141.89 228.235 141.907 227.189 142.334L226.966 142.431L226.961 142.433L226.741 142.549C225.733 143.104 224.998 143.936 224.552 145.048L224.46 145.29V145.293L224.382 145.54C224.019 146.781 224.049 148.111 224.492 149.523L224.491 149.524C224.948 151.033 225.712 152.061 226.816 152.659L226.817 152.658C227.814 153.205 228.856 153.249 229.93 152.831V152.887L230.245 152.731C231.444 152.141 232.284 151.172 232.763 149.825L232.764 149.822C233.224 148.476 233.222 147.079 232.766 145.605L232.765 145.604L232.673 145.328C232.197 143.969 231.463 142.983 230.424 142.437L230.221 142.336ZM227.154 142.825C228.245 142.322 229.279 142.315 230.215 142.822L230.218 142.823C231.192 143.334 231.897 144.301 232.348 145.735C232.779 147.129 232.777 148.429 232.351 149.679L232.264 149.908C231.858 150.915 231.226 151.66 230.367 152.167V152.157L230.056 152.304C228.985 152.807 227.983 152.801 227.026 152.275L227.024 152.274L226.845 152.171C225.959 151.628 225.315 150.737 224.91 149.398L224.909 149.395L224.83 149.129C224.462 147.801 224.489 146.572 224.874 145.432V145.431C225.3 144.222 226.064 143.363 227.154 142.826V142.825Z" fill="#588995"/>
<path d="M234.76 128.749C233.753 131.771 233.804 135.085 234.931 138.688L240.259 155.852C241.369 159.455 243.128 161.931 245.502 163.298C247.893 164.664 250.489 164.664 253.29 163.298C256.108 161.931 258.038 159.728 259.028 156.705C260.053 153.683 259.984 150.369 258.874 146.766L253.546 129.603C252.419 125.999 250.677 123.506 248.286 122.157C245.912 120.79 243.316 120.79 240.498 122.157C237.698 123.523 235.768 125.726 234.76 128.749ZM247.979 152.726L242.291 134.436C241.984 133.445 241.899 132.574 242.035 131.823C242.172 131.071 242.497 130.542 243.06 130.286C243.607 130.03 244.119 130.115 244.631 130.559C245.144 131.003 245.554 131.72 245.861 132.711L251.548 151.001C251.855 151.992 251.941 152.863 251.804 153.614C251.685 154.366 251.343 154.895 250.797 155.151C250.25 155.408 249.72 155.322 249.208 154.878C248.713 154.434 248.303 153.717 247.996 152.726" fill="#588995"/>
<path d="M248.394 121.966C245.948 120.559 243.275 120.568 240.404 121.96H240.403L239.878 122.232C237.306 123.637 235.515 125.795 234.553 128.68C233.593 131.562 233.581 134.695 234.522 138.075L234.723 138.753L240.051 155.916C241.137 159.44 242.846 161.926 245.167 163.353L245.394 163.488C247.857 164.895 250.53 164.888 253.386 163.495V163.494C256.257 162.101 258.227 159.853 259.236 156.775V156.776C260.278 153.701 260.204 150.34 259.083 146.703V146.702L253.755 129.538V129.537L253.534 128.869C252.432 125.697 250.808 123.422 248.621 122.1L248.394 121.966ZM240.594 122.354C243.358 121.014 245.876 121.022 248.177 122.346L248.179 122.347C250.505 123.659 252.221 126.095 253.338 129.666L253.337 129.667L258.666 146.831C259.697 150.177 259.816 153.256 258.997 156.076L258.822 156.636L258.821 156.638L258.627 157.185C257.676 159.692 256.025 161.578 253.702 162.84L253.195 163.101V163.102C250.62 164.358 248.246 164.429 246.048 163.341L245.611 163.108C243.3 161.778 241.568 159.357 240.468 155.787L235.14 138.623L234.943 137.957C234.022 134.648 234.039 131.604 234.968 128.818C235.957 125.85 237.847 123.693 240.594 122.353V122.354ZM243.896 129.945C243.585 129.891 243.276 129.944 242.97 130.087L242.851 130.146C242.275 130.46 241.956 131.041 241.821 131.784C241.676 132.58 241.769 133.488 242.083 134.5V134.501L247.77 152.791L247.979 152.727L248.188 152.662L242.5 134.371L242.398 134.014C242.183 133.196 242.138 132.48 242.25 131.862C242.379 131.152 242.675 130.701 243.151 130.485L243.154 130.484C243.393 130.372 243.612 130.339 243.822 130.375C244.033 130.412 244.254 130.521 244.489 130.724C244.899 131.08 245.252 131.641 245.535 132.426L245.653 132.776L251.339 151.067C251.602 151.914 251.695 152.659 251.628 153.305L251.589 153.576L251.588 153.58L251.537 153.832C251.397 154.393 251.109 154.764 250.704 154.954C250.466 155.065 250.242 155.098 250.027 155.062C249.81 155.025 249.585 154.915 249.352 154.713C248.898 154.305 248.505 153.63 248.204 152.662L247.996 152.727L247.787 152.791C248.101 153.802 248.527 154.561 249.063 155.041L249.066 155.043C249.345 155.285 249.64 155.441 249.953 155.494C250.268 155.547 250.582 155.494 250.89 155.35C251.521 155.054 251.893 154.449 252.02 153.649V153.648C252.163 152.853 252.071 151.947 251.757 150.937L246.07 132.646L245.947 132.28C245.647 131.451 245.261 130.815 244.775 130.394C244.497 130.153 244.205 129.998 243.896 129.945Z" fill="#588995"/>
<path d="M179.802 155.58C178.777 158.603 178.828 161.916 179.955 165.52L185.284 182.683C186.411 186.287 188.17 188.763 190.544 190.129C192.918 191.495 195.514 191.495 198.331 190.129C201.132 188.763 203.062 186.56 204.07 183.537C205.077 180.514 205.026 177.201 203.899 173.598L198.571 156.434C197.461 152.831 195.719 150.337 193.328 148.988C190.937 147.622 188.341 147.622 185.54 148.988C182.722 150.354 180.792 152.557 179.802 155.58ZM193.02 179.558L187.333 161.267C187.026 160.277 186.94 159.406 187.06 158.654C187.197 157.903 187.538 157.373 188.085 157.117C188.631 156.861 189.144 156.946 189.673 157.39C190.168 157.835 190.595 158.552 190.903 159.542L196.59 177.833C196.897 178.823 196.965 179.694 196.846 180.446C196.709 181.197 196.368 181.727 195.821 181.983C195.275 182.239 194.762 182.154 194.233 181.71C193.738 181.266 193.328 180.548 193.037 179.558" fill="#588995"/>
<path d="M193.436 148.797C190.973 147.391 188.3 147.399 185.445 148.792L184.917 149.063C182.332 150.468 180.541 152.625 179.595 155.51L179.412 156.089C178.62 158.811 178.669 161.752 179.546 164.906L179.747 165.585L185.075 182.748V182.749C186.213 186.385 187.998 188.917 190.435 190.319C192.881 191.727 195.555 191.718 198.427 190.326H198.428C201.282 188.933 203.252 186.684 204.278 183.606C205.302 180.533 205.246 177.172 204.108 173.533L198.78 156.37L198.562 155.701C197.473 152.529 195.85 150.253 193.663 148.931L193.436 148.797ZM185.636 149.184C188.382 147.845 190.901 147.853 193.22 149.178H193.221C195.547 150.491 197.261 152.927 198.362 156.499H198.363L203.691 173.663C204.807 177.23 204.853 180.496 203.863 183.468C202.873 186.435 200.984 188.592 198.238 189.932H198.237C195.473 191.272 192.955 191.264 190.654 189.94C188.343 188.61 186.61 186.189 185.493 182.619L180.164 165.455L179.968 164.789C179.047 161.48 179.065 158.436 180.009 155.65L180.01 155.648C180.982 152.681 182.872 150.525 185.636 149.185V149.184ZM188.922 156.776C188.609 156.723 188.3 156.776 187.992 156.919C187.441 157.178 187.087 157.673 186.91 158.326L186.845 158.615L186.844 158.62L186.807 158.922C186.744 159.641 186.85 160.445 187.125 161.332V161.333L192.812 179.623L193.021 179.558L193.229 179.493L187.542 161.203L187.44 160.845C187.226 160.029 187.178 159.313 187.276 158.693L187.332 158.44C187.484 157.877 187.773 157.505 188.178 157.315C188.417 157.203 188.637 157.17 188.849 157.207C189.063 157.243 189.289 157.354 189.532 157.558C189.93 157.916 190.292 158.478 190.576 159.258L190.695 159.607L196.381 177.898C196.68 178.861 196.743 179.696 196.631 180.407L196.574 180.66C196.423 181.223 196.133 181.595 195.729 181.785C195.49 181.897 195.27 181.929 195.058 181.893C194.845 181.857 194.62 181.748 194.377 181.545C193.924 181.138 193.531 180.463 193.247 179.497L192.827 179.62C193.124 180.633 193.551 181.392 194.087 181.873L194.093 181.877C194.378 182.117 194.673 182.272 194.984 182.325C195.297 182.378 195.607 182.325 195.914 182.181C196.545 181.886 196.916 181.281 197.061 180.485L197.062 180.48C197.187 179.69 197.114 178.784 196.799 177.768L191.112 159.477L190.988 159.11C190.685 158.279 190.287 157.647 189.82 157.228L189.814 157.223L189.598 157.06C189.38 156.913 189.155 156.816 188.922 156.776Z" fill="#588995"/>
<path d="M225.504 74.5057C224.616 75.0181 224.616 75.8549 225.504 76.3502C226.375 76.8454 227.826 76.8625 228.697 76.3502C229.585 75.8378 229.585 75.001 228.697 74.5057C227.826 74.0105 226.375 74.0105 225.504 74.5057Z" fill="#588995"/>
<path d="M227.101 73.9155C226.569 73.9155 226.028 74.0148 225.581 74.2212L225.396 74.3159L225.395 74.3169L225.222 74.4263C224.842 74.6955 224.619 75.0487 224.619 75.4341C224.619 75.8753 224.912 76.2687 225.396 76.5396L225.396 76.5405C225.872 76.8112 226.492 76.9445 227.1 76.9468C227.707 76.949 228.328 76.8196 228.807 76.5386V76.5396C229.291 76.2603 229.582 75.8619 229.582 75.4214C229.582 74.9799 229.289 74.5858 228.804 74.3149C228.327 74.0444 227.707 73.9155 227.101 73.9155ZM227.101 74.353C227.654 74.353 228.195 74.4718 228.589 74.6958L228.591 74.6968C228.993 74.9211 229.144 75.1927 229.145 75.4214C229.145 75.6225 229.028 75.8595 228.728 76.0718L228.588 76.1606L228.587 76.1616L228.433 76.2427C228.059 76.4201 227.586 76.511 227.102 76.5093C226.548 76.5072 226.006 76.3852 225.611 76.1606L225.61 76.1597L225.471 76.0728C225.172 75.8673 225.056 75.6342 225.056 75.4341C225.056 75.2044 225.209 74.9278 225.613 74.6948V74.6938C226.007 74.4705 226.548 74.353 227.101 74.353Z" fill="#588995"/>
<path d="M219.765 71.1766C218.877 71.689 218.877 72.5258 219.765 73.0211C220.636 73.5163 222.088 73.5334 222.959 73.0211C223.847 72.5087 223.847 71.6719 222.959 71.1766C222.071 70.6814 220.636 70.6814 219.765 71.1766Z" fill="#588995"/>
<path d="M221.355 70.5864C220.826 70.5865 220.288 70.6859 219.843 70.8921L219.657 70.9868L219.656 70.9878L219.483 71.0972C219.104 71.3664 218.881 71.7196 218.881 72.105C218.881 72.5462 219.173 72.9396 219.658 73.2104L219.657 73.2114C220.133 73.4821 220.753 73.6154 221.361 73.6177C221.969 73.6199 222.59 73.4905 223.068 73.2095V73.2104C223.552 72.9312 223.844 72.5328 223.844 72.0923C223.844 71.6508 223.551 71.2567 223.065 70.9858C222.581 70.7157 221.961 70.5864 221.355 70.5864ZM221.355 71.0239C221.907 71.0239 222.449 71.1425 222.853 71.3677C223.255 71.592 223.406 71.8636 223.406 72.0923C223.406 72.2934 223.289 72.5304 222.989 72.7427L222.85 72.8315L222.849 72.8325L222.694 72.9136C222.321 73.091 221.848 73.1819 221.363 73.1802C220.81 73.1781 220.268 73.0561 219.873 72.8315L219.872 72.8306L219.732 72.7437C219.434 72.5382 219.317 72.3051 219.317 72.105C219.317 71.8753 219.471 71.5987 219.875 71.3657V71.3647C220.269 71.1413 220.805 71.024 221.355 71.0239Z" fill="#588995"/>
<path d="M220.294 84.1586C219.406 84.6539 219.406 85.5078 220.294 86.0031C221.165 86.4983 222.6 86.5154 223.471 86.0031C224.359 85.4907 224.359 84.6539 223.471 84.1586C222.6 83.6463 221.165 83.6634 220.294 84.1586Z" fill="#588995"/>
<path d="M221.882 83.5616C221.278 83.5638 220.662 83.6974 220.187 83.9678H220.188C219.701 84.2393 219.409 84.6378 219.409 85.0801C219.409 85.5226 219.701 85.9218 220.188 86.1934L220.188 86.1924C220.664 86.4623 221.278 86.5964 221.882 86.5987C222.485 86.6009 223.103 86.4724 223.581 86.1914V86.1905C224.064 85.9113 224.355 85.5143 224.355 85.0742C224.355 84.6339 224.064 84.2405 223.581 83.9698L223.396 83.8711C222.949 83.6582 222.41 83.5596 221.882 83.5616ZM221.883 83.9991C222.432 83.997 222.967 84.1156 223.36 84.3467L223.364 84.3487C223.767 84.5731 223.918 84.8455 223.918 85.0742C223.918 85.2752 223.801 85.5115 223.501 85.7237L223.361 85.8135L223.36 85.8145L223.206 85.8955C222.833 86.073 222.363 86.1639 221.883 86.1621C221.334 86.16 220.797 86.0372 220.402 85.8125L220.4 85.8116L220.262 85.7256C219.964 85.5198 219.847 85.2831 219.847 85.0801C219.847 84.8482 220 84.5722 220.4 84.3487L220.402 84.3477C220.797 84.1231 221.335 84.0011 221.883 83.9991Z" fill="#588995"/>
<path d="M242.667 84.4789C241.779 84.9912 241.779 85.828 242.667 86.3233C243.538 86.8186 244.973 86.8356 245.844 86.3233C246.732 85.828 246.732 84.9741 245.844 84.4789C244.973 83.9836 243.538 83.9836 242.667 84.4789Z" fill="#588995"/>
<path d="M244.256 83.8887C243.728 83.8887 243.19 83.988 242.744 84.1943L242.56 84.2891L242.558 84.29L242.386 84.3994C242.006 84.6687 241.782 85.0218 241.782 85.4072C241.782 85.8486 242.075 86.2419 242.561 86.5127L242.56 86.5137C243.035 86.784 243.651 86.9177 244.255 86.9199C244.859 86.9221 245.476 86.7928 245.954 86.5117V86.5107C246.438 86.2393 246.728 85.8425 246.729 85.4014C246.729 84.9588 246.437 84.5597 245.95 84.2881C245.474 84.0177 244.859 83.8887 244.256 83.8887ZM244.256 84.3262C244.805 84.3262 245.341 84.4449 245.735 84.6689L245.737 84.6699C246.138 84.8936 246.291 85.1694 246.291 85.4014C246.291 85.6043 246.174 85.8402 245.876 86.0459L245.737 86.1328L245.732 86.1348H245.733C245.341 86.3659 244.805 86.4845 244.256 86.4824C243.708 86.4803 243.17 86.3584 242.775 86.1338L242.773 86.1328L242.635 86.0459C242.336 85.8404 242.22 85.6074 242.22 85.4072C242.22 85.1777 242.372 84.9008 242.775 84.668V84.6689C243.17 84.4447 243.707 84.3262 244.256 84.3262Z" fill="#588995"/>
<path d="M231.224 77.8412C230.336 78.3535 230.336 79.1903 231.224 79.6856C232.095 80.1809 233.53 80.1979 234.418 79.6856C235.306 79.1733 235.306 78.3364 234.418 77.8412C233.53 77.3459 232.095 77.3459 231.224 77.8412Z" fill="#588995"/>
<path d="M232.814 77.251C232.285 77.251 231.747 77.3505 231.302 77.5566L231.116 77.6514L231.115 77.6523L230.942 77.7617C230.562 78.031 230.34 78.3842 230.34 78.7695C230.34 79.2108 230.632 79.6042 231.117 79.875L231.116 79.876C231.592 80.1464 232.207 80.2799 232.813 80.2822C233.42 80.2845 234.042 80.1553 234.527 79.875C235.011 79.5957 235.303 79.1974 235.303 78.7568C235.303 78.3153 235.01 77.9212 234.524 77.6504C234.04 77.3803 233.42 77.251 232.814 77.251ZM232.814 77.6885C233.366 77.6885 233.908 77.8071 234.312 78.0322C234.714 78.2566 234.865 78.5282 234.865 78.7568C234.865 78.9866 234.713 79.263 234.309 79.4961C233.906 79.7282 233.366 79.8468 232.815 79.8447C232.265 79.8427 231.727 79.7208 231.332 79.4961L231.331 79.4951L231.191 79.4082C230.893 79.2027 230.776 78.9696 230.776 78.7695C230.776 78.5398 230.93 78.2632 231.334 78.0303V78.0293C231.728 77.8059 232.264 77.6885 232.814 77.6885Z" fill="#588995"/>
<path d="M226.033 80.8295C225.145 81.3418 225.145 82.1786 226.033 82.6739C226.921 83.1691 228.356 83.1862 229.227 82.6739C230.115 82.1615 230.115 81.3247 229.227 80.8295C228.356 80.3342 226.921 80.3342 226.033 80.8295Z" fill="#588995"/>
<path d="M227.636 80.2393C227.106 80.2393 226.565 80.3384 226.114 80.5439L225.927 80.6387L225.924 80.6406L225.751 80.75C225.371 81.0192 225.149 81.3725 225.148 81.7578C225.148 82.1994 225.441 82.5934 225.927 82.8643C226.41 83.1339 227.029 83.2683 227.636 83.2705C228.241 83.2727 228.858 83.1431 229.336 82.8623V82.8633C229.82 82.584 230.111 82.1856 230.111 81.7451C230.111 81.3036 229.819 80.9095 229.333 80.6387C228.857 80.3682 228.241 80.2393 227.636 80.2393ZM227.636 80.6768C228.187 80.6768 228.724 80.7954 229.118 81.0195L229.12 81.0205C229.522 81.2449 229.674 81.5165 229.674 81.7451C229.674 81.9462 229.557 82.1833 229.257 82.3955L229.117 82.4844L229.116 82.4854L228.962 82.5674C228.589 82.7448 228.119 82.8348 227.637 82.833C227.086 82.8309 226.544 82.7089 226.14 82.4834C225.737 82.259 225.585 81.9865 225.585 81.7578C225.585 81.5286 225.738 81.2531 226.14 81.0205L226.297 80.9404C226.678 80.767 227.154 80.6768 227.636 80.6768Z" fill="#588995"/>
<path d="M236.947 81.1698C236.059 81.6821 236.059 82.519 236.947 83.0142C237.818 83.5095 239.253 83.5266 240.141 83.0142C241.029 82.519 241.029 81.6651 240.141 81.1698C239.253 80.6745 237.818 80.6745 236.947 81.1698Z" fill="#588995"/>
<path d="M238.537 80.5796C238.007 80.5796 237.47 80.6791 237.024 80.8853L236.839 80.98L236.838 80.981L236.665 81.0903C236.285 81.3596 236.063 81.7128 236.062 82.0981C236.062 82.5394 236.355 82.9328 236.84 83.2036L236.839 83.2046C237.315 83.475 237.93 83.6085 238.536 83.6108C239.142 83.6131 239.764 83.4839 240.25 83.2036V83.2026C240.735 82.9311 241.025 82.5338 241.025 82.0923C241.025 81.6497 240.734 81.2506 240.247 80.979C239.763 80.7089 239.143 80.5796 238.537 80.5796ZM238.537 81.0171C239.088 81.0171 239.63 81.1357 240.034 81.3608C240.435 81.5845 240.588 81.8603 240.588 82.0923C240.588 82.2952 240.471 82.5311 240.173 82.7368L240.034 82.8237L240.031 82.8247L239.874 82.9067C239.494 83.0848 239.02 83.1751 238.538 83.1733C237.987 83.1713 237.45 83.0494 237.055 82.8247L237.054 82.8237L236.914 82.7368C236.616 82.5313 236.499 82.2982 236.499 82.0981C236.499 81.8684 236.653 81.5918 237.057 81.3589V81.3579C237.451 81.1345 237.987 81.0171 238.537 81.0171Z" fill="#588995"/>
<path d="M231.755 84.1586C230.867 84.6709 230.867 85.5077 231.755 86.003C232.626 86.4983 234.077 86.5153 234.948 86.003C235.836 85.4906 235.836 84.6538 234.948 84.1586C234.077 83.6633 232.626 83.6633 231.755 84.1586Z" fill="#588995"/>
<path d="M233.352 83.5684C232.82 83.5684 232.279 83.6677 231.832 83.874L231.646 83.9688L231.646 83.9697L231.473 84.0791C231.093 84.3483 230.87 84.7016 230.87 85.0869C230.87 85.5282 231.163 85.9216 231.647 86.1924L231.646 86.1934C232.123 86.464 232.743 86.5974 233.351 86.5996C233.958 86.6018 234.579 86.4724 235.058 86.1914V86.1924C235.542 85.9131 235.833 85.5148 235.833 85.0742C235.833 84.6327 235.54 84.2386 235.055 83.9678C234.578 83.6972 233.958 83.5684 233.352 83.5684ZM233.352 84.0059C233.905 84.0059 234.446 84.1247 234.84 84.3486L234.842 84.3496C235.244 84.574 235.395 84.8456 235.396 85.0742C235.396 85.2753 235.279 85.5124 234.979 85.7246L234.839 85.8135L234.838 85.8145L234.684 85.8955C234.31 86.0729 233.837 86.1638 233.353 86.1621C232.799 86.1601 232.257 86.038 231.862 85.8135L231.861 85.8125L231.722 85.7256C231.423 85.5201 231.307 85.287 231.307 85.0869C231.307 84.8572 231.46 84.5806 231.864 84.3477V84.3467C232.258 84.1234 232.799 84.0059 233.352 84.0059Z" fill="#588995"/>
<path d="M220.312 77.494C219.424 78.0063 219.424 78.8432 220.312 79.3384C221.2 79.8337 222.635 79.8508 223.506 79.3384C224.394 78.8261 224.394 77.9893 223.506 77.494C222.635 76.9987 221.2 76.9987 220.312 77.494Z" fill="#588995"/>
<path d="M221.915 76.9038C221.385 76.9039 220.845 77.0029 220.394 77.2085L220.206 77.3032L220.203 77.3052L220.03 77.4146C219.65 77.6838 219.428 78.037 219.428 78.4224C219.428 78.864 219.72 79.258 220.206 79.5288C220.689 79.7984 221.309 79.9328 221.915 79.9351C222.52 79.9372 223.137 79.8076 223.615 79.5269V79.5278C224.099 79.2485 224.391 78.8502 224.391 78.4097C224.391 77.9681 224.098 77.574 223.612 77.3032C223.136 77.0327 222.52 76.9038 221.915 76.9038ZM221.915 77.3413C222.466 77.3413 223.003 77.46 223.397 77.6841L223.399 77.6851C223.802 77.9094 223.953 78.181 223.953 78.4097C223.953 78.6108 223.836 78.8478 223.536 79.0601L223.396 79.1489L223.396 79.1499L223.241 79.2319C222.868 79.4093 222.398 79.4993 221.916 79.4976C221.366 79.4955 220.823 79.3735 220.419 79.1479C220.017 78.9235 219.864 78.6511 219.864 78.4224C219.864 78.1932 220.017 77.9177 220.419 77.6851L220.576 77.605C220.958 77.4315 221.433 77.3414 221.915 77.3413Z" fill="#588995"/>
<path d="M242.137 78.1611C241.249 78.6563 241.249 79.5102 242.137 80.0055C243.025 80.5008 244.442 80.5179 245.313 80.0055C246.202 79.4932 246.202 78.6563 245.313 78.1611C244.442 77.6487 243.008 77.6658 242.137 78.1611Z" fill="#588995"/>
<path d="M243.725 77.5645C243.121 77.5667 242.505 77.7004 242.029 77.9707H242.03C241.544 78.2423 241.252 78.6407 241.252 79.083C241.252 79.5256 241.543 79.9247 242.03 80.1963C242.513 80.4657 243.128 80.5993 243.73 80.6016C244.332 80.6038 244.946 80.4753 245.424 80.1944V80.1934C245.907 79.9142 246.198 79.5172 246.198 79.0772C246.198 78.6368 245.907 78.2435 245.424 77.9727L245.238 77.8741C244.792 77.6612 244.253 77.5626 243.725 77.5645ZM243.726 78.002C244.274 77.9999 244.81 78.1185 245.203 78.3496L245.207 78.3516C245.609 78.576 245.761 78.8485 245.761 79.0772C245.761 79.2782 245.644 79.5145 245.344 79.7266L245.204 79.8164L245.203 79.8174L245.049 79.8985C244.676 80.076 244.21 80.1668 243.732 80.1651C243.187 80.163 242.648 80.0403 242.243 79.8145C241.842 79.5908 241.689 79.315 241.689 79.083C241.69 78.8511 241.842 78.5752 242.243 78.3516L242.245 78.3506C242.64 78.126 243.177 78.0041 243.726 78.002Z" fill="#588995"/>
<path d="M241.182 72.0839C240.294 72.5962 240.294 73.433 241.182 73.9283C242.053 74.4235 243.487 74.4406 244.358 73.9283C245.246 73.4159 245.246 72.5791 244.358 72.0839C243.47 71.5886 242.053 71.5886 241.182 72.0839Z" fill="#588995"/>
<path d="M242.764 71.4937C242.237 71.4937 241.703 71.5931 241.259 71.7993L241.074 71.894L241.072 71.895L240.9 72.0044C240.52 72.2737 240.297 72.6268 240.297 73.0122C240.297 73.4536 240.59 73.8468 241.075 74.1177L241.074 74.1187C241.55 74.389 242.166 74.5227 242.77 74.5249C243.373 74.5271 243.99 74.3975 244.468 74.1167V74.1177C244.952 73.8384 245.243 73.44 245.243 72.9995C245.243 72.558 244.95 72.1639 244.465 71.8931C243.981 71.6231 243.366 71.4937 242.764 71.4937ZM242.764 71.9312C243.31 71.9312 243.848 72.0496 244.252 72.2749C244.654 72.4993 244.806 72.7709 244.806 72.9995C244.806 73.2006 244.689 73.4376 244.389 73.6499L244.249 73.7388L244.248 73.7397L244.094 73.8218C243.721 73.9992 243.251 74.0892 242.771 74.0874C242.222 74.0853 241.685 73.9633 241.29 73.7388L241.288 73.7378L241.149 73.6509C240.851 73.4454 240.734 73.2124 240.734 73.0122C240.734 72.7826 240.887 72.5058 241.29 72.2729V72.2739C241.685 72.0496 242.217 71.9312 242.764 71.9312Z" fill="#588995"/>
<path d="M236.416 74.852C235.528 75.3473 235.528 76.2012 236.416 76.6964C237.304 77.1917 238.722 77.2088 239.593 76.6964C240.481 76.1841 240.481 75.3473 239.593 74.852C238.722 74.3397 237.287 74.3567 236.416 74.852Z" fill="#588995"/>
<path d="M238.004 74.2554C237.4 74.2576 236.784 74.3913 236.309 74.6616H236.31C235.823 74.9332 235.531 75.3316 235.531 75.774C235.531 76.2165 235.823 76.6156 236.31 76.8872C236.793 77.1566 237.407 77.2902 238.01 77.2925C238.612 77.2947 239.225 77.1662 239.703 76.8853V76.8843C240.186 76.6051 240.477 76.2081 240.478 75.7681C240.478 75.3277 240.186 74.9344 239.703 74.6636L239.518 74.565C239.071 74.3521 238.532 74.2535 238.004 74.2554ZM238.005 74.6929C238.554 74.6909 239.09 74.8095 239.482 75.0406L239.486 75.0425C239.889 75.2669 240.04 75.5394 240.04 75.7681C240.04 75.9691 239.923 76.2054 239.623 76.4175L239.483 76.5074L239.482 76.5083L239.328 76.5894C238.956 76.7669 238.49 76.8578 238.012 76.856C237.466 76.854 236.927 76.7312 236.522 76.5054C236.122 76.2818 235.969 76.0059 235.969 75.774C235.969 75.542 236.122 75.2661 236.522 75.0425L236.524 75.0415C236.92 74.817 237.457 74.695 238.005 74.6929Z" fill="#588995"/>
<path d="M230.697 71.5166C229.808 72.0118 229.808 72.8657 230.697 73.361C231.568 73.8562 233.002 73.8733 233.873 73.361C234.761 72.8486 234.761 72.0118 233.873 71.5166C233.002 71.0042 231.568 71.0213 230.697 71.5166Z" fill="#588995"/>
<path d="M232.284 70.9199C231.68 70.9222 231.065 71.0558 230.589 71.3262H230.59C230.103 71.5977 229.812 71.9962 229.812 72.4385C229.812 72.881 230.103 73.2802 230.59 73.5518L230.591 73.5508C231.066 73.8207 231.681 73.9548 232.284 73.9571C232.888 73.9593 233.505 73.8308 233.983 73.5498V73.5489C234.467 73.2697 234.758 72.8726 234.758 72.4326C234.758 71.9923 234.467 71.5989 233.983 71.3282L233.798 71.2295C233.351 71.0166 232.812 70.918 232.284 70.9199ZM232.285 71.3574C232.834 71.3554 233.37 71.474 233.763 71.7051L233.767 71.7071C234.169 71.9315 234.32 72.2039 234.32 72.4326C234.32 72.6336 234.203 72.8699 233.903 73.0821L233.764 73.1719L233.763 73.1729L233.608 73.2539C233.235 73.4314 232.765 73.5223 232.285 73.5205C231.737 73.5184 231.2 73.3956 230.805 73.1709L230.803 73.1699L230.664 73.084C230.366 72.8782 230.249 72.6415 230.249 72.4385C230.249 72.2066 230.402 71.9306 230.803 71.7071L230.805 71.7061C231.2 71.4815 231.737 71.3595 232.285 71.3574Z" fill="#588995"/>
<path d="M188.478 92.8174C185.216 90.9218 179.905 90.9218 176.626 92.8174L144.809 111.193C143.75 111.808 143.016 112.543 142.64 113.345C141.274 111.569 141.855 109.383 144.399 107.914L176.216 89.5384C179.495 87.6428 184.789 87.6428 188.051 89.5384C190.254 90.8193 190.937 92.6296 190.186 94.2349C189.776 93.7226 189.212 93.2102 188.495 92.8004L188.478 92.8174Z" fill="#588995"/>
<path d="M182.14 87.8979C179.97 87.898 177.787 88.3777 176.107 89.3491L144.29 107.725L144.051 107.869C142.884 108.597 142.139 109.494 141.845 110.451C141.53 111.477 141.746 112.54 142.467 113.478L142.686 113.763L142.838 113.438C143.145 112.781 143.717 112.159 144.547 111.612L144.919 111.382L176.736 93.0063C178.334 92.0824 180.442 91.6138 182.559 91.6138C184.676 91.6138 186.779 92.0826 188.368 93.0063L188.515 93.0913L188.531 93.0757C189.154 93.4558 189.65 93.9143 190.016 94.3716L190.235 94.646L190.384 94.3276C190.786 93.4691 190.804 92.5498 190.427 91.6782C190.051 90.8111 189.292 90.0062 188.161 89.3491L187.842 89.1733C186.217 88.3198 184.174 87.8979 182.14 87.8979ZM182.14 88.3354C184.121 88.3354 186.09 88.7463 187.638 89.5591L187.942 89.7271C189.015 90.3508 189.697 91.0925 190.026 91.8521C190.306 92.4993 190.335 93.1708 190.117 93.8198C189.72 93.3837 189.216 92.9607 188.604 92.6108L188.457 92.5269L188.44 92.5454C186.788 91.63 184.669 91.1773 182.559 91.1772C180.385 91.1772 178.197 91.6569 176.517 92.6284L144.7 111.004H144.699C143.755 111.553 143.047 112.203 142.615 112.926C142.136 112.168 142.023 111.357 142.262 110.579C142.517 109.75 143.179 108.929 144.282 108.24L144.509 108.104L176.325 89.728C177.924 88.8039 180.027 88.3355 182.14 88.3354Z" fill="#588995"/>
<path d="M188 96.4007L156.184 114.777C152.905 116.672 147.61 116.672 144.348 114.777C143.597 114.333 143.05 113.854 142.641 113.342C143.016 112.557 143.751 111.805 144.81 111.19L176.626 92.8143C179.905 90.9187 185.216 90.9187 188.478 92.8143C189.213 93.2584 189.759 93.7365 190.169 94.2489C189.793 95.0345 189.076 95.7859 188 96.4007Z" fill="#C4DAE6"/>
<path d="M182.559 91.1738C180.385 91.1738 178.197 91.6535 176.517 92.625L144.7 111.001L144.308 111.244C143.427 111.827 142.793 112.517 142.443 113.248L142.384 113.372L142.47 113.479C142.898 114.014 143.466 114.509 144.237 114.965L144.238 114.966C145.91 115.938 148.09 116.417 150.26 116.417C152.294 116.417 154.339 115.996 155.972 115.143L156.293 114.966L188.108 96.5898V96.5908C189.214 95.9593 189.967 95.1772 190.366 94.3428L190.425 94.2197L190.34 94.1123C189.912 93.5771 189.344 93.0823 188.591 92.627L188.588 92.625L188.269 92.4492C186.643 91.5958 184.596 91.1738 182.559 91.1738ZM182.559 91.6113C184.676 91.6113 186.779 92.0792 188.368 93.0029C189.029 93.4027 189.527 93.8281 189.907 94.2764C189.588 94.8784 189.05 95.4675 188.267 95.9814L187.892 96.2109L187.891 96.2119L156.074 114.588L155.769 114.756C154.213 115.569 152.24 115.979 150.26 115.979C148.147 115.979 146.048 115.512 144.458 114.588C143.782 114.188 143.284 113.763 142.903 113.314C143.272 112.622 143.945 111.945 144.919 111.379V111.38L176.735 93.0039C178.334 92.0798 180.441 91.6113 182.559 91.6113Z" fill="#588995"/>
<path d="M168.719 93.6679V97.7667C168.719 98.5181 169.215 99.2525 170.188 99.816C172.152 100.96 175.346 100.96 177.344 99.816C178.334 99.2354 178.847 98.484 178.847 97.7325V93.6338C178.847 94.3852 178.334 95.1537 177.344 95.7173C175.346 96.8615 172.152 96.8615 170.188 95.7173C169.197 95.1537 168.719 94.4023 168.719 93.6679Z" fill="#C4DAE6"/>
<path d="M179.065 97.7324V93.6338H178.628L178.623 93.7559C178.571 94.3673 178.126 95.0207 177.235 95.5273L177.052 95.6279C176.119 96.1109 174.939 96.3574 173.753 96.3574C172.488 96.3574 171.238 96.0763 170.298 95.5283L170.296 95.5273L170.125 95.4248C169.299 94.9025 168.938 94.2592 168.938 93.668H168.501V97.7666C168.501 98.5705 168.998 99.3193 169.894 99.8926L170.078 100.005C171.101 100.601 172.431 100.893 173.753 100.893C175.075 100.893 176.413 100.601 177.452 100.006L177.454 100.005C178.481 99.403 179.065 98.5914 179.065 97.7324ZM178.628 97.7324C178.628 98.3757 178.189 99.0669 177.236 99.626H177.235C176.277 100.175 175.018 100.456 173.753 100.456C172.488 100.456 171.238 100.175 170.298 99.627L170.128 99.5244C169.311 99.0021 168.938 98.3715 168.938 97.7666V94.9277C169.202 95.2906 169.584 95.6236 170.079 95.9053L170.078 95.9062C171.101 96.5023 172.431 96.7939 173.753 96.7939C174.992 96.7939 176.246 96.5372 177.254 96.0146L177.452 95.9072C177.957 95.6198 178.354 95.2733 178.628 94.8945V97.7324Z" fill="#588995"/>
<path d="M170.223 91.5833C168.225 92.7275 168.225 94.589 170.206 95.7332C172.17 96.8775 175.363 96.8775 177.362 95.7332C179.343 94.589 179.342 92.7275 177.396 91.5833C175.414 90.439 172.221 90.439 170.24 91.5833H170.223Z" fill="#ECF8FF"/>
<path d="M173.817 90.5063C172.518 90.5064 171.207 90.7892 170.184 91.3647H170.165L170.114 91.394C169.075 91.9889 168.506 92.8006 168.504 93.6577C168.501 94.5149 169.066 95.3262 170.097 95.9214L170.096 95.9224C171.119 96.5185 172.449 96.81 173.77 96.8101C175.092 96.8101 176.43 96.5184 177.47 95.9233L177.471 95.9224C178.501 95.327 179.065 94.5153 179.07 93.6597C179.075 92.8038 178.52 91.991 177.506 91.395L177.505 91.394L177.308 91.2856C176.306 90.7629 175.057 90.5063 173.817 90.5063ZM173.817 90.9438C175.083 90.9438 176.336 91.2245 177.286 91.7729L177.287 91.772C178.218 92.3199 178.636 93.0102 178.633 93.6567C178.629 94.3035 178.203 94.9948 177.254 95.5435H177.253C176.294 96.0924 175.036 96.3726 173.77 96.3726C172.505 96.3725 171.256 96.0924 170.315 95.5444L170.143 95.4399C169.313 94.9093 168.939 94.2639 168.94 93.6587C168.942 93.0243 169.358 92.3467 170.282 91.8022H170.299L170.35 91.7729C171.299 91.2245 172.552 90.9439 173.817 90.9438Z" fill="#588995"/>
<path d="M151.061 103.041V107.139C151.061 107.891 151.573 108.625 152.529 109.189C154.511 110.333 157.704 110.333 159.702 109.189C160.693 108.608 161.205 107.857 161.205 107.105V103.006C161.205 103.758 160.693 104.526 159.702 105.09C157.704 106.234 154.511 106.234 152.529 105.09C151.556 104.526 151.061 103.775 151.061 103.041Z" fill="#C4DAE6"/>
<path d="M161.424 107.105V103.006H160.986L160.981 103.128C160.929 103.74 160.484 104.393 159.594 104.9L159.41 105C158.478 105.483 157.297 105.73 156.109 105.73C154.842 105.73 153.588 105.449 152.639 104.901L152.47 104.797C151.654 104.274 151.279 103.63 151.279 103.041H150.843V107.139C150.843 107.998 151.427 108.792 152.419 109.376L152.42 109.377C153.451 109.973 154.785 110.265 156.109 110.265C157.434 110.265 158.771 109.974 159.811 109.378L159.812 109.377C160.839 108.776 161.424 107.964 161.424 107.105ZM160.986 107.105C160.986 107.748 160.547 108.439 159.595 108.999H159.594C158.635 109.547 157.377 109.829 156.109 109.829C154.842 109.829 153.588 109.548 152.639 109C151.719 108.457 151.279 107.782 151.279 107.139V104.292C151.512 104.611 151.833 104.908 152.235 105.167L152.42 105.279C153.451 105.875 154.785 106.166 156.109 106.167C157.351 106.167 158.604 105.91 159.612 105.387L159.811 105.28C160.316 104.992 160.712 104.646 160.986 104.267V107.105Z" fill="#588995"/>
<path d="M152.565 100.963C150.567 102.107 150.567 103.969 152.548 105.113C154.512 106.257 157.705 106.257 159.703 105.113C161.684 103.969 161.684 102.107 159.737 100.963C157.756 99.8189 154.563 99.8189 152.565 100.963Z" fill="#ECF8FF"/>
<path d="M156.157 99.8862C154.833 99.8863 153.496 100.179 152.456 100.774C151.417 101.369 150.848 102.18 150.846 103.038C150.843 103.895 151.408 104.706 152.438 105.301L152.437 105.302C153.461 105.898 154.79 106.19 156.112 106.19C157.434 106.19 158.772 105.898 159.811 105.303L159.812 105.302C160.843 104.707 161.407 103.895 161.412 103.04C161.417 102.184 160.862 101.371 159.849 100.775L159.847 100.774L159.649 100.666C158.648 100.143 157.398 99.8862 156.157 99.8862ZM156.157 100.324C157.425 100.324 158.678 100.604 159.628 101.153L159.629 101.152C160.56 101.7 160.978 102.39 160.975 103.037C160.971 103.683 160.545 104.375 159.596 104.923H159.595C158.636 105.472 157.377 105.752 156.112 105.752C154.847 105.752 153.598 105.472 152.657 104.924L152.484 104.82C151.654 104.289 151.28 103.644 151.282 103.039C151.284 102.393 151.714 101.702 152.673 101.153C153.631 100.604 154.89 100.324 156.157 100.324Z" fill="#588995"/>
<path d="M255.647 128.575C254.52 124.971 254.468 121.658 255.476 118.635C256.501 115.613 258.413 113.409 261.214 112.043C264.032 110.677 266.628 110.677 269.002 112.043C271.376 113.409 273.135 115.903 274.262 119.489L279.59 136.653C280.7 140.256 280.769 143.569 279.744 146.592C279.266 148.027 278.566 149.291 277.677 150.349L259.319 140.393L255.63 128.575H255.647ZM263.007 124.339L268.694 142.63C269.002 143.621 269.412 144.338 269.907 144.782C270.402 145.226 270.949 145.328 271.495 145.055C272.042 144.799 272.383 144.287 272.503 143.518C272.639 142.767 272.554 141.879 272.247 140.905L266.56 122.615C266.252 121.624 265.859 120.924 265.347 120.463C264.852 120.019 264.322 119.916 263.776 120.189C263.212 120.446 262.888 120.958 262.751 121.726C262.615 122.478 262.7 123.366 263.007 124.339Z" fill="#588995"/>
<path d="M269.11 111.854C266.664 110.446 263.991 110.455 261.119 111.847H261.118L260.593 112.118C258.194 113.431 256.487 115.397 255.475 117.998L255.268 118.566V118.567L255.089 119.146C254.278 121.98 254.368 125.052 255.354 128.357H255.332L255.421 128.64L259.11 140.458L259.136 140.543L259.214 140.585L277.573 150.541L277.73 150.627L277.844 150.49C278.751 149.409 279.465 148.121 279.951 146.662L280.132 146.082C280.979 143.166 280.849 139.999 279.798 136.589V136.588L274.47 119.425V119.424L274.249 118.758C273.106 115.491 271.394 113.169 269.11 111.854ZM261.309 112.24C264.073 110.901 266.591 110.908 268.892 112.233C271.203 113.562 272.936 116 274.053 119.553L274.052 119.554L279.381 136.718C280.412 140.064 280.531 143.143 279.713 145.962L279.537 146.523L279.536 146.524L279.35 147.044C278.915 148.18 278.33 149.193 277.621 150.07L259.501 140.243L255.926 128.793H255.944L255.855 128.51C254.739 124.942 254.693 121.676 255.683 118.704V118.703C256.69 115.735 258.563 113.579 261.309 112.239V112.24ZM264.619 119.842C264.307 119.786 263.994 119.839 263.686 119.99H263.685C263.035 120.286 262.68 120.876 262.536 121.688L262.493 121.992C262.418 122.716 262.523 123.533 262.798 124.406L268.485 142.696C268.799 143.706 269.225 144.464 269.76 144.945C270.031 145.187 270.328 145.347 270.643 145.403C270.961 145.458 271.282 145.407 271.592 145.251V145.25C272.219 144.954 272.591 144.369 272.718 143.552V143.551C272.861 142.757 272.769 141.834 272.455 140.84L266.768 122.55L266.646 122.184C266.35 121.358 265.977 120.737 265.493 120.301V120.3C265.223 120.058 264.931 119.898 264.619 119.842ZM264.542 120.273C264.702 120.301 264.866 120.372 265.033 120.49L265.201 120.625C265.614 120.997 265.954 121.548 266.234 122.33L266.35 122.68L272.038 140.97V140.971C272.3 141.802 272.393 142.558 272.326 143.207L272.288 143.48L272.287 143.485L272.235 143.74C272.115 144.227 271.887 144.561 271.569 144.766L271.402 144.858L271.397 144.86L271.222 144.933C271.049 144.99 270.882 145.001 270.719 144.973C270.501 144.934 270.277 144.82 270.052 144.619C269.598 144.212 269.204 143.536 268.903 142.566L263.215 124.275V124.274L263.113 123.922C262.899 123.113 262.853 122.384 262.965 121.766L262.966 121.765C263.095 121.04 263.39 120.606 263.866 120.389L263.874 120.385C264.11 120.267 264.331 120.235 264.542 120.273Z" fill="#588995"/>
<path d="M232.796 161.061C233.94 160.498 235.016 160.498 236.058 161.061C237.082 161.608 237.817 162.615 238.295 164.101C238.705 165.468 238.722 166.765 238.329 168.012L230.456 163.726C230.9 162.513 231.686 161.642 232.813 161.096H232.796V161.061Z" fill="#588995"/>
<path d="M236.16 160.868C235.051 160.269 233.9 160.273 232.699 160.865L232.577 160.926V160.97C231.472 161.545 230.695 162.436 230.251 163.65L230.186 163.827L238.458 168.331L238.537 168.078C238.944 166.785 238.924 165.441 238.503 164.038L238.503 164.034L238.408 163.755C237.917 162.383 237.182 161.413 236.16 160.868ZM232.9 161.254C233.983 160.723 234.982 160.728 235.954 161.254C236.912 161.765 237.619 162.716 238.086 164.168C238.456 165.401 238.493 166.569 238.194 167.689L230.73 163.625C231.165 162.556 231.888 161.786 232.908 161.292L232.9 161.254Z" fill="#588995"/>
<path d="M213.72 169.448C214.028 170.439 214.438 171.156 214.933 171.6C215.446 172.044 215.975 172.147 216.521 171.874C217.068 171.617 217.409 171.105 217.546 170.337C217.665 169.585 217.597 168.697 217.29 167.724L216.111 163.949L225.521 169.056C225.521 170.576 225.265 172.027 224.804 173.411C223.797 176.433 221.884 178.636 219.083 180.003C216.265 181.369 213.669 181.369 211.296 180.003C208.905 178.636 207.145 176.143 206.035 172.557L200.775 155.615L211.227 161.285L213.755 169.466H213.72V169.448Z" fill="#588995"/>
<path d="M205.826 172.621C206.947 176.241 208.733 178.789 211.188 180.191L211.187 180.192C213.48 181.512 215.973 181.588 218.643 180.444L219.179 180.199C222.034 178.807 223.986 176.557 225.012 173.479C225.48 172.075 225.74 170.601 225.74 169.056V168.926L225.626 168.863L215.742 163.5L217.081 167.789C217.38 168.735 217.443 169.589 217.33 170.302C217.218 170.931 216.967 171.345 216.596 171.584L216.429 171.676L216.424 171.678L216.249 171.751C216.077 171.808 215.913 171.819 215.753 171.791C215.538 171.753 215.313 171.64 215.079 171.438C214.673 171.073 214.317 170.495 214.03 169.684H214.051L213.964 169.401L211.436 161.221L211.409 161.136L211.331 161.093L200.407 155.167L205.826 172.621ZM211.046 161.435L213.521 169.445L213.502 169.448V169.684H213.568C213.876 170.609 214.282 171.31 214.787 171.763L214.79 171.766C215.067 172.006 215.363 172.165 215.676 172.221C215.992 172.277 216.309 172.225 216.619 172.069C217.245 171.774 217.616 171.188 217.761 170.375L217.762 170.371C217.887 169.581 217.814 168.658 217.498 167.658L216.481 164.398L225.301 169.185C225.287 170.633 225.038 172.018 224.597 173.342C223.607 176.31 221.734 178.466 218.988 179.806C216.225 181.146 213.706 181.138 211.404 179.813L210.975 179.551C208.862 178.174 207.275 175.823 206.244 172.492L201.145 156.063L211.046 161.435Z" fill="#588995"/>
<path d="M211.585 149.412C211.278 148.421 210.868 147.721 210.373 147.26C209.861 146.816 209.331 146.714 208.785 146.987C208.238 147.243 207.897 147.755 207.76 148.524C207.64 149.275 207.726 150.163 208.033 151.137L208.187 151.632L200.041 147.226C200.16 146.628 200.314 146.03 200.519 145.467C201.526 142.444 203.439 140.241 206.24 138.875C209.058 137.509 211.654 137.509 214.028 138.875C216.419 140.241 218.178 142.734 219.288 146.321L223.54 159.983L213.088 154.313L211.568 149.412H211.585Z" fill="#588995"/>
<path d="M213.906 138.557C211.677 137.362 209.261 137.328 206.681 138.433L206.145 138.678L205.619 138.95C203.05 140.355 201.275 142.51 200.313 145.392L200.166 145.831C200.028 146.273 199.917 146.729 199.826 147.183L199.795 147.341L199.937 147.418L208.555 152.08L208.242 151.072L208.241 151.071L208.14 150.719C207.925 149.91 207.877 149.179 207.976 148.558C208.104 147.84 208.414 147.402 208.877 147.185L208.882 147.182C209.118 147.064 209.34 147.032 209.554 147.07C209.768 147.108 209.991 147.22 210.224 147.42L210.393 147.591C210.735 147.968 211.035 148.492 211.282 149.194H211.271L212.906 154.463L212.984 154.505L223.908 160.432L223.749 159.918L219.496 146.256L219.278 145.59C218.15 142.323 216.437 140 214.137 138.685L213.906 138.557ZM206.335 139.072C209.099 137.732 211.618 137.739 213.919 139.064C216.246 140.394 217.979 142.832 219.079 146.385L223.172 159.535L213.271 154.164L211.865 149.63H211.882L211.794 149.347C211.479 148.334 211.054 147.595 210.521 147.1L210.517 147.095C210.239 146.855 209.943 146.695 209.63 146.639C209.316 146.583 209.001 146.635 208.692 146.789C208.142 147.047 207.787 147.528 207.61 148.191L207.545 148.486L207.544 148.49L207.507 148.792C207.445 149.509 207.549 150.319 207.82 151.185L200.289 147.111C200.402 146.574 200.542 146.043 200.725 145.541L200.727 145.536C201.716 142.568 203.589 140.412 206.335 139.072Z" fill="#588995"/>
<path d="M232.539 149.774C232.078 151.072 231.275 151.994 230.131 152.558C229.004 153.104 227.928 153.087 226.904 152.524C225.862 151.96 225.127 150.953 224.683 149.518C224.222 148.049 224.205 146.666 224.649 145.419C224.854 144.804 225.162 144.275 225.554 143.814L232.881 147.776C232.881 148.459 232.761 149.125 232.539 149.774Z" fill="#588995"/>
<path d="M225.388 143.672C224.977 144.154 224.655 144.708 224.441 145.35C223.98 146.648 224.002 148.08 224.475 149.583C224.93 151.055 225.694 152.116 226.799 152.714L226.798 152.715C227.889 153.315 229.04 153.33 230.227 152.754C231.426 152.164 232.266 151.195 232.745 149.847L232.746 149.845C232.975 149.175 233.1 148.485 233.1 147.776V147.646L232.984 147.583L225.503 143.538L225.388 143.672ZM232.66 147.904C232.646 148.516 232.533 149.114 232.333 149.701L232.246 149.931C231.793 151.057 231.057 151.858 230.036 152.361L229.836 152.452C228.843 152.874 227.907 152.827 227.009 152.333L227.008 152.332L226.827 152.227C225.943 151.681 225.297 150.763 224.892 149.454L224.812 149.185C224.442 147.854 224.456 146.612 224.854 145.493L224.856 145.489C225.032 144.961 225.287 144.5 225.609 144.092L232.66 147.904Z" fill="#588995"/>
<path d="M245.827 132.711C245.519 131.72 245.127 131.02 244.597 130.559C244.102 130.115 243.572 130.012 243.026 130.286C242.667 130.456 242.394 130.747 242.206 131.14L235.307 127.399C236.4 125.077 238.125 123.318 240.498 122.157C243.316 120.79 245.912 120.79 248.286 122.157C250.66 123.523 252.419 126.016 253.546 129.603L256.415 138.825L245.98 133.172L245.827 132.711Z" fill="#588995"/>
<path d="M248.395 121.967C245.948 120.559 243.275 120.568 240.403 121.96L239.957 122.19C237.767 123.37 236.153 125.087 235.108 127.307L235.021 127.493L242.304 131.442L242.403 131.234C242.573 130.879 242.813 130.63 243.12 130.484L243.124 130.482C243.36 130.364 243.581 130.331 243.792 130.368C244.005 130.407 244.226 130.52 244.451 130.722L244.454 130.724C244.94 131.148 245.317 131.805 245.618 132.776L245.619 132.781L245.773 133.241L245.801 133.323L245.876 133.364L256.783 139.273L253.755 129.538L253.533 128.871C252.391 125.604 250.679 123.282 248.395 121.967ZM240.594 122.354C243.357 121.014 245.875 121.022 248.177 122.346C250.487 123.676 252.221 126.113 253.338 129.666L253.337 129.667L256.047 138.376L246.161 133.021L246.034 132.642C245.721 131.636 245.313 130.894 244.743 130.397L244.536 130.231C244.326 130.081 244.103 129.981 243.869 129.939C243.555 129.883 243.238 129.935 242.928 130.09C242.586 130.254 242.319 130.512 242.119 130.843L235.597 127.307C236.672 125.122 238.329 123.462 240.594 122.354Z" fill="#588995"/>
<path d="M245.535 163.296C243.145 161.93 241.386 159.454 240.275 155.85L238.756 150.932L256.79 160.7C255.851 161.759 254.706 162.63 253.323 163.279C250.522 164.645 247.926 164.645 245.535 163.279V163.296Z" fill="#588995"/>
<path d="M240.066 155.915C241.187 159.552 242.973 162.084 245.427 163.486L245.754 163.673V163.646C248.126 164.872 250.689 164.807 253.419 163.476C254.828 162.814 255.995 161.926 256.953 160.846L257.137 160.64L256.895 160.508L238.389 150.484L240.066 155.915ZM256.438 160.758C255.673 161.576 254.777 162.275 253.728 162.833L253.23 163.081L253.228 163.083L252.715 163.318C250.167 164.416 247.818 164.332 245.644 163.09L245.317 162.902V162.907C243.154 161.541 241.532 159.186 240.484 155.786L239.123 151.379L256.438 160.758Z" fill="#588995"/>
<path d="M179.803 155.559C180.811 152.536 182.724 150.333 185.542 148.967C186.122 148.676 186.686 148.472 187.249 148.284L197.616 153.902C197.975 154.654 198.299 155.508 198.589 156.413L203.918 173.576C205.045 177.18 205.096 180.493 204.088 183.516C203.064 186.539 201.151 188.742 198.35 190.108C195.532 191.474 192.936 191.474 190.563 190.108C188.189 188.742 186.43 186.265 185.302 182.662L179.974 165.498C178.864 161.895 178.796 158.582 179.82 155.559H179.803ZM187.335 161.246L193.022 179.537C193.329 180.527 193.722 181.244 194.234 181.688C194.73 182.132 195.259 182.235 195.806 181.962C196.352 181.705 196.694 181.193 196.83 180.425C196.95 179.673 196.882 178.785 196.574 177.812L190.887 159.521C190.58 158.531 190.17 157.83 189.657 157.369C189.145 156.908 188.616 156.823 188.069 157.096C187.523 157.352 187.181 157.864 187.044 158.633C186.925 159.384 187.027 160.272 187.318 161.246H187.335Z" fill="#588995"/>
<path d="M187.181 148.077C186.615 148.265 186.04 148.473 185.447 148.77L184.919 149.042C182.334 150.447 180.558 152.605 179.596 155.49L179.5 155.778H179.523C178.641 158.581 178.671 161.618 179.568 164.884L179.766 165.563L185.094 182.727C186.232 186.364 188.018 188.895 190.454 190.297C192.901 191.705 195.574 191.697 198.446 190.304C201.3 188.912 203.252 186.662 204.295 183.585L204.296 183.584C205.321 180.511 205.265 177.15 204.126 173.511L198.798 156.348L198.797 156.346L198.572 155.672C198.339 155.009 198.087 154.38 197.814 153.808L197.782 153.744L197.72 153.71L187.271 148.046L187.181 148.077ZM197.448 154.059C197.789 154.784 198.101 155.606 198.381 156.48L198.382 156.479L203.709 173.641C204.825 177.209 204.872 180.475 203.881 183.447C202.874 186.416 201.001 188.572 198.254 189.912C195.491 191.251 192.973 191.243 190.672 189.918C188.361 188.588 186.628 186.167 185.511 182.596L180.183 165.434L179.99 164.768C179.08 161.458 179.084 158.414 180.028 155.629L180.125 155.34H180.115C181.128 152.521 182.964 150.46 185.637 149.164L185.64 149.163C186.177 148.894 186.7 148.699 187.23 148.521L197.448 154.059ZM188.912 156.742C188.597 156.688 188.284 156.746 187.978 156.898C187.427 157.156 187.072 157.637 186.895 158.299L186.829 158.595V158.599L186.792 158.903C186.733 159.625 186.85 160.44 187.109 161.308L187.156 161.464H187.174L192.814 179.601C193.126 180.608 193.535 181.371 194.092 181.854L194.093 181.853C194.362 182.093 194.652 182.253 194.962 182.309C195.275 182.365 195.59 182.312 195.899 182.159C196.528 181.864 196.9 181.278 197.045 180.462L197.046 180.458C197.172 179.669 197.099 178.746 196.783 177.747L191.096 159.457L190.973 159.089C190.673 158.262 190.286 157.641 189.804 157.207C189.525 156.956 189.228 156.795 188.912 156.742ZM188.84 157.172C189.054 157.209 189.278 157.322 189.512 157.532C189.985 157.958 190.379 158.618 190.679 159.585L196.365 177.876L196.366 177.877C196.665 178.824 196.728 179.677 196.615 180.39C196.502 181.019 196.251 181.432 195.88 181.671L195.713 181.764L195.708 181.766L195.533 181.839C195.362 181.896 195.197 181.907 195.039 181.878C194.826 181.84 194.605 181.728 194.38 181.526L194.378 181.523L194.206 181.359C193.817 180.945 193.495 180.324 193.231 179.472L187.544 161.181L187.496 161.028H187.485C187.235 160.136 187.154 159.337 187.261 158.667C187.39 157.949 187.7 157.51 188.162 157.293L188.167 157.292C188.406 157.172 188.628 157.136 188.84 157.172Z" fill="#588995"/>
<path d="M258.892 146.752L256.415 138.811L259.302 140.382L260.975 145.71C262.085 149.314 263.844 151.79 266.218 153.156C268.609 154.522 271.205 154.505 274.006 153.156C275.492 152.439 276.704 151.5 277.678 150.321L286.712 155.223L267.414 166.46L256.74 160.688C257.748 159.577 258.499 158.228 259.028 156.657C260.053 153.634 259.985 150.321 258.875 146.718H258.892V146.752Z" fill="#ECF8FF"/>
<path d="M251.53 151C251.838 151.991 251.923 152.862 251.804 153.613C251.667 154.365 251.325 154.894 250.779 155.15C250.232 155.407 249.703 155.321 249.191 154.877C248.695 154.433 248.286 153.716 247.978 152.725L242.291 134.435C241.984 133.444 241.915 132.573 242.035 131.822C242.086 131.566 242.155 131.344 242.223 131.139L245.98 133.171L251.513 151H251.53Z" fill="#ECF8FF"/>
<path d="M242.016 131.069C241.964 131.226 241.91 131.395 241.864 131.584L241.82 131.779L241.819 131.787L241.781 132.089C241.715 132.806 241.806 133.61 242.082 134.499L247.77 152.79C248.083 153.801 248.509 154.56 249.045 155.04L249.048 155.042C249.327 155.284 249.623 155.439 249.936 155.492C250.25 155.545 250.564 155.493 250.872 155.349C251.502 155.053 251.874 154.448 252.019 153.652L252.02 153.647C252.146 152.854 252.054 151.949 251.739 150.936L251.692 150.782H251.674L246.162 133.021L246.084 132.979L242.098 130.822L242.016 131.069ZM245.799 133.32L251.305 151.065L251.353 151.219H251.365C251.627 152.12 251.695 152.903 251.589 153.574L251.532 153.827C251.38 154.391 251.091 154.762 250.687 154.952C250.448 155.064 250.224 155.097 250.009 155.061C249.792 155.024 249.567 154.914 249.334 154.712C248.881 154.304 248.487 153.629 248.187 152.66L242.5 134.37L242.399 134.015C242.187 133.198 242.152 132.48 242.251 131.856C242.28 131.714 242.317 131.582 242.354 131.457L245.799 133.32Z" fill="#588995"/>
<path d="M234.93 138.69L238.738 150.935L232.898 147.758C232.898 147.075 232.778 146.392 232.556 145.658C232.095 144.189 231.361 143.164 230.319 142.618C229.294 142.071 228.201 142.088 227.057 142.618C226.459 142.908 225.981 143.301 225.571 143.762L202.652 131.432L221.985 120.211L235.306 127.333C235.118 127.777 234.93 128.221 234.759 128.682C233.752 131.705 233.803 135.018 234.93 138.622V138.656V138.69Z" fill="#ECF8FF"/>
<path d="M274.023 153.186C271.222 154.552 268.609 154.552 266.235 153.186C263.861 151.82 262.102 149.326 260.992 145.74L259.318 140.412L277.694 150.368C276.704 151.529 275.508 152.486 274.023 153.203V153.186Z" fill="#C4DAE6"/>
<path d="M260.992 145.74C262.102 149.326 263.861 151.82 266.234 153.186L266.458 153.31C268.772 154.551 271.309 154.51 274.022 153.186V153.203C275.508 152.485 276.704 151.529 277.694 150.368L259.318 140.412L260.992 145.74ZM277 150.488C276.255 151.281 275.398 151.963 274.392 152.52L273.831 152.793C271.14 154.106 268.682 154.09 266.453 152.807C264.205 151.513 262.499 149.131 261.409 145.611V145.609L260.059 141.309L277 150.488Z" fill="#588995"/>
<path d="M227.057 142.669C228.201 142.105 229.294 142.105 230.319 142.669C231.344 143.215 232.078 144.24 232.556 145.709C232.778 146.426 232.897 147.126 232.897 147.809L225.571 143.847C225.981 143.386 226.476 142.993 227.057 142.703V142.669Z" fill="#C4DAE6"/>
<path d="M230.422 142.476C229.329 141.875 228.16 141.881 226.96 142.473L226.839 142.533V142.57C226.284 142.867 225.807 143.254 225.408 143.702L225.225 143.908L232.794 148.002L233.116 148.176V147.81C233.116 147.101 232.992 146.379 232.765 145.645L232.764 145.641L232.669 145.364C232.211 144.097 231.541 143.154 230.622 142.591L230.422 142.476ZM227.275 142.808C228.317 142.331 229.294 142.354 230.214 142.86L230.216 142.861C231.174 143.372 231.881 144.34 232.349 145.776C232.524 146.344 232.631 146.896 232.666 147.436L225.926 143.79C226.278 143.436 226.687 143.132 227.154 142.898L227.275 142.838V142.808Z" fill="#588995"/>
<path d="M234.93 138.685C233.82 135.082 233.752 131.768 234.759 128.746C234.93 128.285 235.101 127.823 235.323 127.396L242.222 131.137C242.137 131.324 242.069 131.564 242.034 131.82C241.915 132.571 242 133.459 242.29 134.433L247.978 152.723C248.285 153.714 248.695 154.431 249.19 154.875C249.702 155.319 250.232 155.422 250.778 155.148C251.325 154.892 251.666 154.38 251.803 153.611C251.923 152.86 251.837 151.972 251.53 150.998L245.996 133.169L256.431 138.822L258.908 146.746C260.018 150.349 260.086 153.663 259.061 156.685C258.549 158.239 257.798 159.572 256.773 160.716L238.738 150.947L234.93 138.702V138.685Z" fill="#C4DAE6"/>
<path d="M235.322 127.396C235.1 127.823 234.929 128.285 234.759 128.746C233.751 131.769 233.82 135.082 234.93 138.686V138.702L238.738 150.947L256.772 160.716L256.962 160.499C257.89 159.404 258.581 158.142 259.061 156.686C260.022 153.852 260.022 150.762 259.103 147.418L258.907 146.746L256.43 138.821L245.996 133.169L251.529 150.998L251.635 151.359C251.855 152.192 251.907 152.954 251.803 153.611C251.666 154.38 251.325 154.892 250.778 155.148C250.232 155.422 249.703 155.319 249.19 154.875L248.904 155.205C249.203 155.464 249.533 155.647 249.895 155.711C250.259 155.775 250.619 155.713 250.964 155.543V155.544C251.676 155.21 252.08 154.55 252.233 153.688L252.234 153.68C252.367 152.846 252.268 151.888 251.946 150.867L246.732 134.063L256.067 139.121L258.49 146.876C259.51 150.189 259.625 153.223 258.82 155.994L258.647 156.545L258.646 156.549L258.45 157.102C258.01 158.254 257.419 159.265 256.67 160.161L239.102 150.646L235.367 138.635V138.619L235.347 138.557C234.259 135.022 234.2 131.804 235.174 128.884H235.175C235.289 128.575 235.399 128.28 235.521 128L241.687 131.343C241.651 131.473 241.623 131.611 241.603 131.751H241.602C241.47 132.584 241.569 133.54 241.872 134.558L241.873 134.562L247.56 152.853C247.88 153.883 248.322 154.683 248.898 155.2L248.903 155.205L249.19 154.875C248.757 154.486 248.389 153.889 248.097 153.082L247.977 152.724L242.29 134.433C242.036 133.581 241.939 132.794 241.999 132.107L242.034 131.819C242.06 131.627 242.105 131.445 242.162 131.286L242.222 131.137L235.322 127.396Z" fill="#588995"/>
<path d="M193.327 148.967C191.449 147.891 189.416 147.652 187.265 148.301L180.399 144.304L187.538 140.171L200.039 147.225C199.561 149.769 199.766 152.468 200.671 155.388L200.739 155.593L197.614 153.902C196.538 151.631 195.104 149.974 193.327 148.95V148.967Z" fill="#ECF8FF"/>
<path d="M216.109 163.949L211.191 161.284L208.202 151.652L213.121 154.317L216.109 163.949Z" fill="#ECF8FF"/>
<path d="M207.994 151.717L211.01 161.435L211.088 161.477L216.479 164.396L213.304 154.167L213.226 154.124L208.308 151.46L207.836 151.205L207.994 151.717ZM212.94 154.466L215.743 163.5L211.374 161.134L208.571 152.1L212.94 154.466Z" fill="#588995"/>
<path d="M224.632 163.468L223.556 159.984L230.439 163.724C230.439 163.724 230.404 163.793 230.404 163.827C229.943 165.091 229.96 166.457 230.439 167.926C230.883 169.36 231.617 170.368 232.642 170.931C233.684 171.495 234.742 171.495 235.886 170.966C237.031 170.402 237.833 169.48 238.295 168.182C238.312 168.114 238.312 168.045 238.346 167.994L252.094 175.423L244.972 179.573L225.537 169.053C225.554 167.277 225.264 165.415 224.666 163.485H224.632V163.468Z" fill="#ECF8FF"/>
<path d="M235.869 170.948C234.742 171.495 233.666 171.478 232.625 170.914C231.6 170.35 230.865 169.343 230.421 167.908C229.943 166.44 229.943 165.056 230.387 163.809C230.387 163.775 230.421 163.741 230.421 163.707L238.312 167.994C238.312 167.994 238.277 168.13 238.243 168.181C237.782 169.479 236.98 170.402 235.835 170.965H235.869V170.948Z" fill="#C4DAE6"/>
<path d="M230.203 163.674C230.199 163.683 230.193 163.694 230.188 163.707C230.184 163.72 230.178 163.738 230.174 163.76C229.72 165.05 229.727 166.473 230.214 167.972L230.213 167.973C230.668 169.445 231.432 170.507 232.52 171.105L232.521 171.106C233.601 171.691 234.722 171.718 235.879 171.184H236.088V171.079C237.203 170.483 237.992 169.543 238.449 168.255L238.448 168.254C238.471 168.208 238.489 168.161 238.498 168.134C238.505 168.11 238.512 168.089 238.517 168.073C238.519 168.066 238.52 168.059 238.521 168.055C238.522 168.052 238.522 168.05 238.522 168.049L238.523 168.048L238.564 167.883L238.416 167.802L230.203 163.34V163.674ZM238.042 168.095L238.037 168.108C237.596 169.349 236.837 170.222 235.758 170.76C234.764 171.237 233.826 171.248 232.912 170.814L232.729 170.722C231.768 170.193 231.062 169.24 230.63 167.844L230.629 167.841L230.548 167.574C230.182 166.301 230.194 165.108 230.547 164.023L238.042 168.095Z" fill="#588995"/>
<path d="M200.056 147.229L208.203 151.636L211.191 161.268L200.74 155.598L200.671 155.393C199.766 152.49 199.561 149.757 200.039 147.229H200.056Z" fill="#C4DAE6"/>
<path d="M200.039 147.229C199.561 149.757 199.766 152.489 200.671 155.393L200.739 155.598L211.191 161.268L208.203 151.636L200.057 147.229H200.039ZM207.838 151.935L210.457 160.372L201.101 155.296L201.089 155.263C200.272 152.642 200.043 150.181 200.373 147.897L207.838 151.935Z" fill="#588995"/>
<path d="M213.105 154.311L223.557 159.981L224.633 163.465C225.231 165.412 225.521 167.256 225.504 169.032L216.094 163.926L213.105 154.294V154.311Z" fill="#C4DAE6"/>
<path d="M216.093 163.926L225.503 169.032C225.518 167.478 225.298 165.872 224.842 164.19L224.632 163.465L223.557 159.98L213.112 154.313L216.093 163.926ZM223.192 160.28L224.215 163.594C224.719 165.234 224.997 166.792 225.055 168.291L216.458 163.626L213.847 155.21L223.192 160.28ZM213.105 154.311L213.112 154.313L213.105 154.294V154.311Z" fill="#588995"/>
<path d="M193.33 148.952C195.123 149.977 196.557 151.633 197.616 153.905L187.25 148.286C189.419 147.637 191.434 147.859 193.33 148.952Z" fill="#C4DAE6"/>
<path d="M193.33 148.951C191.435 147.859 189.419 147.637 187.25 148.285L197.616 153.905C196.624 151.775 195.3 150.186 193.661 149.152L193.33 148.951ZM188.476 148.452C190.114 148.193 191.647 148.486 193.111 149.33L193.112 149.331C194.469 150.107 195.621 151.27 196.555 152.831L188.476 148.452Z" fill="#588995"/>
<path d="M276.55 72.6982C277.386 72.6982 278.121 72.0493 278.189 71.1783L279.521 54.7833C279.606 53.8782 278.923 53.0926 278.018 53.0072C277.113 52.9218 276.327 53.6049 276.242 54.5101L274.91 70.905C274.825 71.8102 275.508 72.5958 276.413 72.6811H276.55V72.6982Z" fill="#588995"/>
<path d="M278.039 52.79C277.072 52.6987 276.232 53.3767 276.052 54.3017L276.024 54.4892V54.4921L274.692 70.8847L274.685 71.0761C274.693 72.0031 275.406 72.7712 276.331 72.8886V72.9169H276.55C277.498 72.9168 278.329 72.1827 278.407 71.1962L279.739 54.8007L279.738 54.7997C279.833 53.7701 279.057 52.8861 278.039 52.79ZM277.998 53.2245C278.74 53.2947 279.303 53.9009 279.31 54.6181L279.304 54.7626V54.7656L277.971 71.1601V71.1611L277.953 71.3007C277.844 71.9139 277.348 72.3741 276.757 72.4628H276.427C275.639 72.3849 275.055 71.7022 275.128 70.9257V70.9228L276.46 54.5302L276.48 54.3847C276.62 53.6684 277.268 53.1556 277.998 53.2245Z" fill="#588995"/>
<path d="M285.703 78.7804C286.147 78.7804 286.608 78.5925 286.933 78.2339L300.339 63.0344C300.937 62.3513 300.868 61.3095 300.185 60.7118C299.519 60.114 298.46 60.1823 297.863 60.8655L284.456 76.0649C283.859 76.7481 283.927 77.7898 284.593 78.3876C284.9 78.6608 285.293 78.7974 285.686 78.7974H285.703V78.7804Z" fill="#588995"/>
<path d="M300.329 60.5467C299.571 59.8687 298.375 59.9492 297.699 60.7206L284.293 75.9198L284.292 75.9208L284.174 76.0702C283.627 76.8393 283.74 77.9145 284.447 78.5497L284.448 78.5506C284.798 78.8614 285.243 79.0154 285.686 79.0155H285.922V78.9842C286.354 78.9321 286.78 78.7281 287.095 78.3807L287.097 78.3778L300.503 63.1786H300.504C301.181 62.4048 301.103 61.2241 300.329 60.5467ZM298.027 61.0096C298.546 60.4166 299.465 60.3592 300.039 60.8739L300.041 60.8758C300.633 61.3936 300.693 62.297 300.176 62.8895H300.175L286.771 78.0868L286.66 78.1971C286.39 78.4368 286.04 78.5614 285.703 78.5614H285.484V78.5633C285.213 78.5257 284.952 78.4131 284.739 78.2245L284.637 78.1229C284.157 77.5945 284.135 76.7646 284.621 76.2088V76.2079L298.026 61.0096H298.027Z" fill="#588995"/>
<path d="M292.381 88.0147C292.381 88.0147 292.552 88.0147 292.637 88.0147L307.598 85.7604C308.503 85.6238 309.118 84.7869 308.981 83.8818C308.844 82.9767 308.008 82.3619 307.102 82.4985L292.142 84.7528C291.237 84.8894 290.622 85.7262 290.759 86.6314C290.878 87.4511 291.579 88.0318 292.381 88.0318V88.0147Z" fill="#588995"/>
<path d="M309.197 83.85C309.043 82.8252 308.094 82.1283 307.07 82.2826L292.109 84.5375L291.921 84.5756C291.001 84.811 290.399 85.7033 290.543 86.6625L290.542 86.6635C290.678 87.593 291.473 88.2502 292.381 88.2504H292.6V88.2338H292.653L292.67 88.2309L307.63 85.9769H307.631C308.656 85.8221 309.352 84.8736 309.197 83.85ZM307.135 82.7152C307.921 82.5966 308.646 83.1293 308.765 83.9144C308.883 84.7007 308.351 85.4257 307.566 85.5443L292.624 87.7963H292.167C291.564 87.7052 291.067 87.2358 290.975 86.6V86.599L290.96 86.4525C290.926 85.7732 291.372 85.1667 292.03 84.9984L292.175 84.9691L307.135 82.7152Z" fill="#588995"/>
</svg>
