<svg width="411" height="300" viewBox="0 0 411 300" fill="none" xmlns="http://www.w3.org/2000/svg">
<path d="M243.635 103.029C242.497 102.087 241.312 101.194 240.093 100.352C233.239 95.6285 224.617 93.2282 214.465 93.2061C213.568 93.2061 212.678 93.2208 211.795 93.2541C211.795 93.2541 211.788 93.2541 211.784 93.2541C210.905 93.291 210.034 93.3427 209.166 93.4165C209.162 93.4165 209.155 93.4165 209.151 93.4165C208.287 93.4904 207.43 93.579 206.581 93.6898C206.574 93.6898 206.57 93.6898 206.562 93.6898C205.713 93.8006 204.871 93.9298 204.037 94.0775C204.029 94.0775 204.022 94.0775 204.014 94.0812C203.18 94.229 202.353 94.3951 201.533 94.5798C201.522 94.5798 201.511 94.5835 201.5 94.5872C200.68 94.7718 199.871 94.9749 199.062 95.1965C199.051 95.1965 199.036 95.2038 199.025 95.2075C198.22 95.4291 197.423 95.6691 196.629 95.9276C196.618 95.9313 196.603 95.935 196.592 95.9424C195.802 96.2009 195.015 96.4778 194.236 96.777C194.232 96.777 194.228 96.777 194.225 96.7807C194.184 96.7954 194.147 96.8139 194.107 96.8287C193.7 96.9838 193.294 97.1462 192.888 97.3124C192.744 97.3715 192.596 97.4343 192.452 97.4971C192.142 97.6263 191.836 97.7592 191.529 97.8959C191.374 97.966 191.215 98.0362 191.06 98.1064C190.746 98.2504 190.432 98.3944 190.122 98.5458C189.989 98.6086 189.856 98.6714 189.723 98.7378C189.284 98.952 188.848 99.1699 188.412 99.3988C188.405 99.3988 188.401 99.4062 188.394 99.4062C188.276 99.4653 188.161 99.5318 188.043 99.5945C187.777 99.7349 187.511 99.8752 187.245 100.023C187.09 100.108 186.939 100.196 186.784 100.281C186.551 100.411 186.318 100.544 186.086 100.677C185.92 100.773 185.757 100.872 185.595 100.968C185.373 101.098 185.155 101.227 184.937 101.363C184.767 101.467 184.598 101.574 184.431 101.681C184.221 101.814 184.007 101.947 183.796 102.08C183.759 102.106 183.719 102.128 183.682 102.15C183.637 102.179 183.593 102.209 183.549 102.239C182.884 102.671 182.223 103.117 181.562 103.579C181.503 103.623 181.44 103.668 181.381 103.708C180.716 104.181 180.055 104.665 179.402 105.167C179.383 105.182 179.369 105.193 179.35 105.204C179.287 105.252 179.225 105.304 179.162 105.352C178.778 105.647 178.397 105.95 178.017 106.26C177.891 106.36 177.77 106.463 177.644 106.563C177.19 106.936 176.736 107.312 176.285 107.7C175.894 108.036 175.51 108.376 175.133 108.716C174.967 108.863 174.812 109.018 174.649 109.166C174.354 109.439 174.058 109.713 173.77 109.99C173.416 110.326 173.065 110.665 172.722 111.009C172.441 111.29 172.16 111.567 171.887 111.851C171.747 111.995 171.599 112.135 171.462 112.279C171.255 112.497 171.06 112.715 170.86 112.937C170.624 113.191 170.388 113.442 170.159 113.697C169.808 114.085 169.472 114.48 169.136 114.872C168.929 115.112 168.719 115.352 168.519 115.599C168.46 115.669 168.397 115.739 168.338 115.813C168.032 116.186 167.744 116.563 167.452 116.939C167.293 117.143 167.131 117.342 166.976 117.545C166.484 118.195 166.008 118.849 165.546 119.513C165.543 119.521 165.539 119.528 165.532 119.532C165.436 119.672 165.347 119.816 165.251 119.96C164.878 120.51 164.509 121.064 164.158 121.626C163.995 121.88 163.848 122.146 163.693 122.405C163.445 122.815 163.194 123.221 162.958 123.634C162.924 123.69 162.895 123.749 162.862 123.804C162.814 123.889 162.769 123.974 162.721 124.059C162.341 124.739 161.975 125.425 161.625 126.123C161.625 126.127 161.621 126.134 161.617 126.138C161.266 126.836 160.938 127.541 160.62 128.254C160.58 128.346 160.535 128.439 160.495 128.531C160.465 128.594 160.436 128.657 160.41 128.723C160.122 129.384 159.845 130.053 159.583 130.728C159.531 130.865 159.483 131.002 159.431 131.138C159.202 131.736 158.984 132.338 158.777 132.948C158.693 133.202 158.611 133.457 158.526 133.716C158.364 134.222 158.205 134.728 158.054 135.241C157.972 135.518 157.891 135.798 157.814 136.079C157.758 136.279 157.695 136.474 157.644 136.677C157.526 137.117 157.419 137.56 157.311 138.003C157.293 138.081 157.271 138.154 157.252 138.232C157.075 138.982 156.913 139.739 156.765 140.503C156.728 140.684 156.695 140.865 156.661 141.046C156.517 141.821 156.377 142.601 156.259 143.391C156.167 144.004 156.089 144.606 156.019 145.208C156 145.348 155.986 145.488 155.971 145.629C155.904 146.219 155.845 146.81 155.797 147.394C155.794 147.46 155.79 147.523 155.783 147.589C155.742 148.125 155.709 148.657 155.683 149.185C155.676 149.314 155.668 149.443 155.664 149.573C155.639 150.141 155.624 150.706 155.62 151.267C155.62 151.367 155.62 151.463 155.62 151.559C155.62 152.054 155.62 152.549 155.635 153.036C155.635 153.151 155.639 153.265 155.642 153.38C155.661 153.926 155.687 154.473 155.724 155.012C155.731 155.126 155.742 155.237 155.749 155.352C155.786 155.832 155.831 156.312 155.879 156.788C155.89 156.877 155.897 156.965 155.904 157.05C155.964 157.582 156.037 158.11 156.115 158.631C156.122 158.683 156.126 158.734 156.137 158.782C156.148 158.852 156.163 158.919 156.174 158.989C156.252 159.48 156.337 159.964 156.433 160.448C156.444 160.496 156.451 160.547 156.462 160.595C156.565 161.112 156.684 161.626 156.806 162.135C156.835 162.257 156.865 162.375 156.894 162.494C157.023 163.003 157.156 163.513 157.304 164.019C157.308 164.037 157.315 164.056 157.323 164.074C157.467 164.561 157.622 165.045 157.784 165.529C157.806 165.592 157.821 165.655 157.843 165.717C157.865 165.787 157.895 165.854 157.917 165.92C157.998 166.153 158.083 166.382 158.168 166.611C158.224 166.762 158.279 166.914 158.338 167.065C158.43 167.309 158.53 167.549 158.626 167.789C158.681 167.926 158.737 168.062 158.792 168.195C158.914 168.483 159.04 168.768 159.169 169.052C159.206 169.137 159.243 169.225 159.283 169.31C159.453 169.68 159.627 170.045 159.808 170.407C159.815 170.418 159.819 170.429 159.823 170.44C159.9 170.595 159.981 170.747 160.059 170.898C160.151 171.076 160.24 171.249 160.332 171.426C160.421 171.592 160.513 171.755 160.602 171.917C160.698 172.091 160.79 172.265 160.89 172.434C160.982 172.597 161.082 172.759 161.174 172.918C161.274 173.088 161.374 173.262 161.477 173.431C161.573 173.59 161.676 173.749 161.776 173.908C161.883 174.078 161.99 174.248 162.097 174.417C162.108 174.432 162.116 174.447 162.123 174.462C162.23 174.624 162.341 174.783 162.448 174.946C162.544 175.09 162.64 175.237 162.74 175.381C162.862 175.559 162.987 175.732 163.113 175.909C163.213 176.05 163.312 176.194 163.416 176.334C163.549 176.515 163.685 176.696 163.822 176.877C163.922 177.01 164.018 177.143 164.121 177.272C164.272 177.468 164.431 177.663 164.586 177.859C164.679 177.974 164.767 178.088 164.86 178.203C164.86 178.203 164.863 178.21 164.867 178.214C165.114 178.516 165.365 178.819 165.624 179.122C165.749 179.27 165.879 179.417 166.004 179.562L178.054 193.28C177.925 193.136 177.799 192.988 177.674 192.841C177.411 192.538 177.157 192.231 176.905 191.921C176.821 191.818 176.739 191.711 176.658 191.607C176.492 191.401 176.329 191.197 176.167 190.987C176.075 190.865 175.982 190.743 175.89 190.621C175.746 190.429 175.598 190.241 175.458 190.045C175.358 189.912 175.266 189.776 175.17 189.639C175.041 189.458 174.908 189.277 174.782 189.093C174.686 188.952 174.59 188.808 174.498 188.668C174.376 188.491 174.258 188.31 174.14 188.129C174.032 187.963 173.929 187.793 173.822 187.627C173.722 187.464 173.619 187.305 173.519 187.143C173.416 186.977 173.32 186.807 173.22 186.637C173.124 186.471 173.024 186.308 172.928 186.142C172.832 185.972 172.736 185.799 172.644 185.629C172.552 185.463 172.459 185.3 172.371 185.134C172.278 184.957 172.186 184.779 172.097 184.602C172.013 184.44 171.928 184.277 171.846 184.115C171.665 183.749 171.488 183.384 171.322 183.014C171.285 182.929 171.248 182.844 171.211 182.763C171.082 182.475 170.956 182.191 170.834 181.899C170.779 181.762 170.724 181.629 170.668 181.493C170.569 181.253 170.473 181.013 170.38 180.769C170.321 180.618 170.266 180.466 170.21 180.315C170.125 180.086 170.041 179.857 169.959 179.624C169.915 179.491 169.871 179.362 169.823 179.229C169.66 178.749 169.505 178.265 169.361 177.774C169.357 177.756 169.35 177.737 169.343 177.719C169.195 177.217 169.058 176.707 168.933 176.197C168.903 176.076 168.874 175.957 168.844 175.835C168.722 175.326 168.604 174.813 168.501 174.296C168.49 174.248 168.482 174.196 168.471 174.148C168.375 173.664 168.29 173.18 168.213 172.689C168.194 172.567 168.172 172.449 168.157 172.327C168.08 171.803 168.006 171.279 167.947 170.747C167.936 170.658 167.928 170.57 167.921 170.477C167.869 170.005 167.829 169.525 167.792 169.044C167.784 168.93 167.773 168.816 167.766 168.701C167.729 168.162 167.703 167.615 167.685 167.069C167.681 166.958 167.681 166.844 167.677 166.729C167.666 166.238 167.659 165.747 167.662 165.248C167.662 165.152 167.662 165.053 167.662 164.957C167.67 164.395 167.685 163.83 167.707 163.262C167.71 163.132 167.718 162.999 167.725 162.87C167.751 162.342 167.784 161.814 167.825 161.279C167.829 161.212 167.832 161.149 167.84 161.083C167.888 160.499 167.947 159.909 168.013 159.318C168.028 159.177 168.046 159.037 168.061 158.897C168.135 158.295 168.213 157.689 168.301 157.08C168.419 156.29 168.556 155.51 168.7 154.735C168.733 154.554 168.77 154.369 168.803 154.188C168.955 153.424 169.114 152.667 169.291 151.921C169.309 151.844 169.332 151.766 169.35 151.688C169.505 151.042 169.675 150.403 169.852 149.768C169.93 149.488 170.011 149.207 170.092 148.93C170.244 148.42 170.402 147.911 170.565 147.409C170.65 147.154 170.727 146.895 170.816 146.64C171.023 146.031 171.244 145.429 171.47 144.831C171.521 144.694 171.569 144.554 171.621 144.421C171.909 143.683 172.216 142.948 172.533 142.224C172.574 142.132 172.618 142.039 172.659 141.947C172.976 141.234 173.309 140.529 173.656 139.831C173.656 139.827 173.659 139.824 173.663 139.82C174.014 139.122 174.38 138.435 174.76 137.756C174.808 137.671 174.852 137.586 174.9 137.501C175.166 137.028 175.451 136.563 175.731 136.101C175.886 135.843 176.034 135.581 176.196 135.326C176.547 134.768 176.917 134.218 177.286 133.668C177.382 133.524 177.474 133.376 177.574 133.236C178.039 132.567 178.519 131.903 179.018 131.249C179.169 131.046 179.332 130.85 179.49 130.651C179.841 130.2 180.196 129.75 180.561 129.307C180.761 129.063 180.971 128.823 181.178 128.583C181.514 128.188 181.854 127.793 182.205 127.405C182.434 127.15 182.67 126.899 182.903 126.644C183.242 126.279 183.582 125.917 183.933 125.558C184.206 125.278 184.487 124.997 184.767 124.716C185.111 124.377 185.462 124.037 185.816 123.697C186.108 123.42 186.4 123.147 186.699 122.874C187.234 122.383 187.773 121.891 188.335 121.408C188.785 121.02 189.239 120.64 189.694 120.27C189.819 120.167 189.945 120.067 190.067 119.968C190.447 119.661 190.827 119.358 191.208 119.063C191.289 119 191.37 118.937 191.448 118.875C192.105 118.372 192.762 117.885 193.427 117.416C193.486 117.372 193.549 117.327 193.608 117.287C194.265 116.825 194.926 116.378 195.591 115.946C195.672 115.894 195.754 115.839 195.839 115.784C196.049 115.647 196.259 115.518 196.474 115.385C196.644 115.278 196.813 115.171 196.983 115.067C197.201 114.934 197.423 114.805 197.644 114.672C197.807 114.576 197.969 114.476 198.132 114.38C198.364 114.244 198.601 114.115 198.837 113.982C198.988 113.897 199.14 113.808 199.291 113.723C199.557 113.579 199.823 113.435 200.089 113.295C200.211 113.228 200.333 113.162 200.458 113.099C200.894 112.874 201.33 112.652 201.769 112.438C201.902 112.375 202.035 112.312 202.168 112.25C202.482 112.098 202.796 111.954 203.11 111.81C203.265 111.74 203.42 111.67 203.575 111.603C203.885 111.467 204.192 111.334 204.502 111.201C204.646 111.142 204.79 111.079 204.934 111.02C205.336 110.854 205.743 110.691 206.149 110.536C206.193 110.518 206.237 110.499 206.282 110.485C207.061 110.189 207.844 109.912 208.634 109.654C208.649 109.65 208.664 109.643 208.678 109.639C209.469 109.38 210.27 109.14 211.071 108.919C211.082 108.919 211.097 108.911 211.108 108.908C211.913 108.686 212.726 108.483 213.542 108.298C213.553 108.298 213.564 108.291 213.575 108.291C214.395 108.106 215.222 107.94 216.053 107.792C216.064 107.792 216.071 107.792 216.083 107.789C216.917 107.641 217.759 107.512 218.605 107.401C218.612 107.401 218.619 107.401 218.627 107.401C219.476 107.29 220.337 107.198 221.201 107.128C221.204 107.128 221.208 107.128 221.212 107.128C222.076 107.054 222.951 107.002 223.83 106.965C223.83 106.965 223.837 106.965 223.841 106.965C224.724 106.928 225.614 106.914 226.511 106.914C236.663 106.939 245.285 109.34 252.139 114.059C253.361 114.905 254.543 115.795 255.681 116.736L243.631 103.018L243.635 103.029Z" fill="#588995"/>
<path d="M155.635 153.036C155.627 152.792 155.624 152.547 155.622 152.301L155.62 151.559V151.267C155.624 150.706 155.638 150.141 155.664 149.572C155.668 149.443 155.675 149.314 155.683 149.184C155.696 148.92 155.711 148.655 155.728 148.39L155.782 147.59L155.798 147.393C155.846 146.81 155.904 146.219 155.971 145.629C155.985 145.489 156 145.348 156.019 145.208C156.054 144.907 156.091 144.606 156.131 144.304L156.259 143.391C156.377 142.6 156.517 141.821 156.661 141.046C156.694 140.865 156.728 140.684 156.765 140.503C156.838 140.121 156.916 139.741 156.997 139.362L157.252 138.232L157.312 138.003C157.419 137.56 157.525 137.117 157.644 136.678C157.695 136.475 157.758 136.278 157.813 136.079L158.054 135.241C158.129 134.984 158.207 134.729 158.286 134.476L158.526 133.716L158.777 132.947C158.984 132.338 159.202 131.737 159.431 131.139L159.582 130.728C159.844 130.053 160.122 129.384 160.41 128.723C160.436 128.656 160.465 128.594 160.494 128.531L160.62 128.254C160.858 127.719 161.103 127.189 161.358 126.663L161.617 126.139L161.625 126.123C161.8 125.774 161.979 125.428 162.162 125.084L162.722 124.06L162.861 123.805C162.895 123.749 162.925 123.69 162.958 123.635C163.076 123.428 163.198 123.223 163.321 123.019L163.692 122.405C163.847 122.147 163.996 121.881 164.158 121.626C164.509 121.065 164.878 120.51 165.251 119.96L165.531 119.532L165.547 119.514C166.008 118.849 166.484 118.195 166.976 117.545L167.452 116.939C167.744 116.563 168.032 116.186 168.338 115.813C168.397 115.74 168.46 115.669 168.52 115.599C168.719 115.351 168.929 115.111 169.136 114.871C169.472 114.48 169.808 114.085 170.159 113.697C170.388 113.443 170.624 113.191 170.86 112.936L171.462 112.279C171.599 112.135 171.746 111.995 171.887 111.851L172.722 111.009C172.893 110.837 173.067 110.666 173.242 110.496L173.77 109.989L174.649 109.166C174.812 109.018 174.967 108.863 175.133 108.716C175.321 108.546 175.511 108.376 175.703 108.207L176.285 107.7C176.51 107.506 176.736 107.315 176.963 107.126L177.644 106.562C177.769 106.463 177.891 106.359 178.017 106.26C178.207 106.105 178.397 105.951 178.588 105.8L179.162 105.352L179.351 105.204L179.401 105.167C179.728 104.916 180.058 104.67 180.388 104.427L181.381 103.708L181.562 103.579C182.223 103.118 182.884 102.67 183.549 102.238L183.682 102.15L183.796 102.08C184.006 101.947 184.221 101.814 184.432 101.681C184.598 101.574 184.768 101.467 184.937 101.363L185.595 100.968C185.757 100.872 185.92 100.773 186.086 100.677L186.784 100.281L187.245 100.022L188.043 99.5947L188.394 99.4062C188.401 99.4062 188.405 99.3985 188.412 99.3984C188.848 99.1695 189.284 98.9524 189.724 98.7383C189.856 98.6718 189.989 98.6086 190.122 98.5459C190.432 98.3946 190.746 98.2504 191.06 98.1064C191.215 98.0363 191.374 97.9657 191.529 97.8955C191.836 97.7589 192.142 97.6263 192.452 97.4971C192.596 97.4343 192.744 97.3715 192.888 97.3125C193.091 97.2294 193.294 97.1472 193.497 97.0664L194.106 96.8291C194.147 96.8143 194.184 96.795 194.225 96.7803C194.228 96.7768 194.232 96.7773 194.235 96.7773C195.014 96.4782 195.801 96.2009 196.592 95.9424L196.629 95.9277C197.423 95.6693 198.22 95.4296 199.025 95.208C199.036 95.2043 199.051 95.1963 199.062 95.1963C199.871 94.9747 200.68 94.7715 201.5 94.5869C201.511 94.5833 201.522 94.5801 201.533 94.5801C202.353 94.3955 203.18 94.2287 204.015 94.0811C204.022 94.0776 204.029 94.0771 204.036 94.0771C204.871 93.9294 205.713 93.8002 206.562 93.6895H206.581L207.22 93.6104C207.859 93.5352 208.503 93.4724 209.151 93.417H209.166L209.817 93.3652C210.47 93.3178 211.125 93.2816 211.784 93.2539H211.795L213.125 93.2178C213.57 93.2099 214.016 93.2061 214.465 93.2061L215.412 93.2148C225.153 93.3802 233.453 95.7762 240.093 100.352C241.311 101.194 242.497 102.088 243.635 103.029L243.631 103.018L255.681 116.736C254.543 115.795 253.361 114.905 252.139 114.06C245.285 109.34 236.662 106.94 226.511 106.914C225.838 106.914 225.169 106.922 224.505 106.941L223.841 106.965H223.83C223.171 106.993 222.514 107.029 221.862 107.076L221.212 107.128H221.201C220.553 107.181 219.906 107.245 219.266 107.321L218.627 107.401H218.604C217.759 107.512 216.916 107.641 216.082 107.789C216.071 107.793 216.064 107.793 216.053 107.793C215.222 107.941 214.395 108.106 213.575 108.291L213.542 108.299C212.726 108.483 211.913 108.687 211.108 108.908C211.097 108.912 211.082 108.919 211.071 108.919C210.27 109.14 209.469 109.38 208.679 109.639L208.634 109.653C207.844 109.912 207.061 110.189 206.282 110.484L206.148 110.536L205.54 110.774C205.337 110.855 205.135 110.936 204.934 111.02L204.502 111.201C204.192 111.334 203.885 111.467 203.575 111.603L203.109 111.811C202.796 111.954 202.482 112.099 202.168 112.25L201.769 112.438C201.33 112.653 200.894 112.873 200.458 113.099L200.089 113.295L199.291 113.723C199.14 113.808 198.988 113.896 198.837 113.981L198.132 114.381L197.644 114.672C197.423 114.805 197.201 114.934 196.983 115.067L196.474 115.385L195.839 115.783C195.754 115.839 195.672 115.895 195.591 115.946C194.926 116.378 194.265 116.825 193.608 117.286L193.427 117.416L192.435 118.133C192.105 118.376 191.777 118.623 191.448 118.874C191.371 118.937 191.289 119 191.208 119.062C190.828 119.358 190.447 119.661 190.066 119.968C189.945 120.067 189.819 120.167 189.693 120.27L189.013 120.832C188.786 121.022 188.56 121.214 188.335 121.408L187.507 122.138C187.235 122.382 186.967 122.628 186.699 122.874L185.816 123.697C185.462 124.037 185.111 124.377 184.768 124.717C184.487 124.997 184.206 125.278 183.933 125.559L183.414 126.099C183.243 126.28 183.072 126.462 182.902 126.644C182.67 126.899 182.434 127.151 182.205 127.405L181.686 127.991C181.515 128.188 181.346 128.385 181.178 128.583L180.561 129.307L180.02 129.976C179.842 130.2 179.666 130.425 179.49 130.65L179.018 131.249L178.283 132.236C178.043 132.568 177.807 132.901 177.574 133.235L177.286 133.668L176.734 134.494C176.552 134.77 176.372 135.047 176.196 135.326L175.731 136.102L175.311 136.797C175.171 137.03 175.033 137.265 174.9 137.501L174.76 137.756C174.379 138.435 174.014 139.122 173.663 139.82L173.656 139.831C173.309 140.529 172.977 141.234 172.659 141.947C172.619 142.039 172.574 142.131 172.533 142.224L172.066 143.317C171.914 143.684 171.765 144.052 171.621 144.421C171.569 144.554 171.521 144.694 171.47 144.831C171.244 145.429 171.023 146.031 170.816 146.641L170.564 147.408C170.402 147.91 170.243 148.42 170.092 148.93C170.011 149.207 169.93 149.488 169.853 149.768L169.593 150.725C169.509 151.044 169.427 151.365 169.35 151.688C169.331 151.766 169.309 151.843 169.291 151.921L169.037 153.048C168.956 153.426 168.879 153.806 168.804 154.188C168.77 154.369 168.733 154.554 168.7 154.735L168.491 155.902C168.424 156.293 168.36 156.685 168.301 157.08C168.212 157.689 168.135 158.295 168.062 158.896C168.047 159.037 168.028 159.177 168.014 159.317L167.92 160.203C167.891 160.498 167.864 160.791 167.84 161.083L167.825 161.278L167.77 162.077C167.753 162.342 167.738 162.606 167.726 162.87L167.707 163.262L167.679 164.112C167.671 164.395 167.666 164.676 167.662 164.957V165.248C167.658 165.746 167.666 166.238 167.677 166.729C167.68 166.844 167.681 166.959 167.685 167.069C167.703 167.616 167.729 168.162 167.766 168.701C167.773 168.816 167.785 168.93 167.792 169.045C167.829 169.525 167.869 170.005 167.921 170.477C167.928 170.57 167.935 170.658 167.946 170.747C168.005 171.279 168.08 171.803 168.157 172.327C168.172 172.449 168.194 172.567 168.213 172.689C168.29 173.18 168.375 173.664 168.471 174.147C168.482 174.195 168.49 174.248 168.501 174.296C168.604 174.813 168.722 175.326 168.844 175.836C168.873 175.958 168.903 176.075 168.933 176.197C169.058 176.707 169.195 177.216 169.343 177.719C169.35 177.737 169.358 177.756 169.361 177.774C169.505 178.265 169.66 178.749 169.822 179.229C169.87 179.362 169.915 179.491 169.959 179.624C170.04 179.856 170.125 180.086 170.21 180.314C170.265 180.466 170.321 180.617 170.38 180.768C170.472 181.012 170.568 181.253 170.668 181.493C170.723 181.63 170.78 181.763 170.835 181.899C170.957 182.191 171.082 182.475 171.211 182.763C171.248 182.844 171.285 182.93 171.322 183.015C171.488 183.384 171.666 183.749 171.847 184.114C171.928 184.277 172.013 184.44 172.098 184.602C172.186 184.78 172.279 184.957 172.371 185.134C172.46 185.3 172.551 185.463 172.644 185.629C172.736 185.799 172.833 185.972 172.929 186.141C173.025 186.308 173.124 186.47 173.22 186.637C173.319 186.806 173.416 186.976 173.52 187.142C173.619 187.305 173.723 187.464 173.822 187.627C173.929 187.793 174.033 187.963 174.14 188.129C174.258 188.31 174.376 188.491 174.498 188.668C174.59 188.808 174.686 188.952 174.782 189.093C174.908 189.277 175.041 189.458 175.17 189.639C175.266 189.775 175.358 189.912 175.458 190.045C175.598 190.24 175.746 190.429 175.89 190.621C175.982 190.743 176.075 190.865 176.167 190.987C176.329 191.198 176.492 191.401 176.658 191.607C176.739 191.711 176.82 191.817 176.905 191.921C177.156 192.231 177.412 192.538 177.674 192.841C177.799 192.988 177.924 193.136 178.054 193.28L166.004 179.561C165.878 179.417 165.749 179.27 165.624 179.122C165.366 178.819 165.115 178.516 164.867 178.214C164.863 178.21 164.859 178.202 164.859 178.202L164.586 177.859C164.431 177.664 164.272 177.468 164.121 177.272C164.018 177.143 163.922 177.01 163.822 176.877C163.686 176.696 163.549 176.515 163.416 176.334L163.113 175.909C162.988 175.732 162.862 175.558 162.74 175.381L162.448 174.945L162.123 174.462L162.098 174.417L161.776 173.908C161.677 173.749 161.573 173.59 161.477 173.432L161.174 172.918C161.082 172.759 160.982 172.597 160.89 172.434L160.602 171.917L160.332 171.427L160.059 170.898L159.822 170.44L159.808 170.407C159.627 170.045 159.453 169.68 159.283 169.31C159.243 169.226 159.206 169.137 159.169 169.052L158.792 168.195L158.626 167.789C158.53 167.549 158.43 167.309 158.338 167.065C158.279 166.914 158.223 166.763 158.168 166.611L157.917 165.92C157.895 165.854 157.865 165.788 157.843 165.718L157.784 165.529C157.622 165.045 157.466 164.562 157.322 164.074C157.315 164.056 157.307 164.037 157.304 164.018C157.23 163.766 157.16 163.512 157.092 163.258L156.895 162.493L156.806 162.136C156.684 161.626 156.565 161.113 156.462 160.596L156.433 160.447C156.385 160.205 156.339 159.963 156.296 159.721L156.174 158.989C156.163 158.919 156.148 158.852 156.137 158.782C156.126 158.734 156.123 158.682 156.115 158.631C156.076 158.37 156.038 158.108 156.003 157.845L155.904 157.051L155.879 156.788C155.855 156.55 155.831 156.311 155.81 156.071L155.749 155.351C155.742 155.237 155.731 155.126 155.724 155.012C155.705 154.742 155.689 154.471 155.676 154.198L155.643 153.38L155.635 153.036ZM165.128 178.063C165.127 178.062 165.127 178.062 165.126 178.06C165.125 178.058 165.124 178.054 165.122 178.051L165.128 178.063ZM188.567 99.6562C188.566 99.6573 188.563 99.6584 188.561 99.6601L188.563 99.6592C188.566 99.6575 188.568 99.656 188.569 99.6553L188.57 99.6543C188.57 99.6547 188.569 99.6554 188.567 99.6562ZM155.923 151.559C155.923 152.055 155.923 152.545 155.937 153.027V153.036C155.937 153.145 155.941 153.254 155.944 153.369L155.978 154.184L156.025 154.991L156.038 155.157C156.043 155.212 156.047 155.269 156.051 155.328L156.111 156.044C156.133 156.28 156.155 156.516 156.179 156.751L156.205 157.017L156.303 157.805L156.414 158.586V158.588L156.432 158.714L156.436 158.735C156.44 158.765 156.446 158.794 156.452 158.829C156.458 158.862 156.466 158.902 156.473 158.942C156.549 159.427 156.633 159.904 156.728 160.38L156.744 160.467L156.757 160.527L156.759 160.536L156.922 161.302C156.979 161.556 157.039 161.81 157.1 162.064L157.187 162.419L157.384 163.18L157.594 163.933L157.598 163.946L157.599 163.951L157.604 163.962L157.608 163.975L157.612 163.988C157.755 164.47 157.908 164.949 158.069 165.429L158.128 165.616L158.132 165.626L158.162 165.712C158.174 165.742 158.189 165.781 158.202 165.82L158.451 166.506L158.452 166.507L158.62 166.955L158.621 166.958L158.907 167.677C158.962 167.812 159.016 167.947 159.07 168.077L159.444 168.927L159.446 168.932L159.556 169.18L159.558 169.183L159.814 169.731C159.901 169.912 159.989 170.092 160.078 170.271L160.075 170.272C160.081 170.284 160.087 170.295 160.091 170.305H160.093C160.17 170.459 160.245 170.599 160.327 170.759L160.464 171.023C160.509 171.11 160.553 171.197 160.599 171.284L160.866 171.771L161.15 172.281L161.152 172.285L161.435 172.766L161.735 173.274L162.192 174.001C162.246 174.086 162.3 174.171 162.354 174.256L162.351 174.257C162.36 174.271 162.369 174.284 162.375 174.296C162.427 174.375 162.482 174.454 162.536 174.534C162.59 174.614 162.645 174.696 162.699 174.778L162.988 175.209L162.989 175.21L163.359 175.734L163.659 176.154L164.063 176.694L164.357 177.083L164.36 177.087L164.96 177.844L165.095 178.013L165.115 178.038L165.117 178.042C165.358 178.337 165.602 178.632 165.854 178.926C165.977 179.071 166.105 179.218 166.231 179.362L173.403 187.528C173.357 187.454 173.31 187.379 173.263 187.303L172.959 186.79L172.958 186.788C172.911 186.707 172.864 186.626 172.814 186.544C172.766 186.462 172.716 186.378 172.667 186.293L172.665 186.291C172.568 186.119 172.471 185.944 172.378 185.773C172.288 185.611 172.193 185.444 172.103 185.276L172.103 185.273C172.011 185.098 171.918 184.92 171.829 184.741C171.744 184.579 171.659 184.415 171.576 184.25L171.575 184.249C171.394 183.882 171.214 183.513 171.046 183.139L171.045 183.135C171.008 183.049 170.971 182.967 170.936 182.889V182.887C170.806 182.598 170.679 182.311 170.556 182.016L170.555 182.013C170.527 181.945 170.499 181.878 170.472 181.81C170.444 181.743 170.416 181.675 170.388 181.606C170.288 181.366 170.191 181.124 170.099 180.879L169.927 180.42L169.674 179.724L169.673 179.72C169.629 179.588 169.585 179.462 169.538 179.332L169.536 179.326C169.373 178.843 169.217 178.355 169.071 177.859L169.067 177.847L169.065 177.841C169.064 177.838 169.063 177.835 169.062 177.831L169.057 177.817L169.053 177.804C168.904 177.297 168.766 176.783 168.64 176.269L168.639 176.268C168.624 176.208 168.609 176.149 168.595 176.089L168.55 175.906C168.428 175.395 168.309 174.877 168.204 174.354C168.198 174.326 168.192 174.297 168.188 174.276C168.184 174.25 168.181 174.232 168.177 174.216L168.175 174.207C168.078 173.719 167.992 173.231 167.914 172.736V172.734C167.898 172.63 167.874 172.495 167.858 172.371L167.745 171.58C167.709 171.316 167.676 171.051 167.646 170.784L167.619 170.501C167.567 170.027 167.527 169.545 167.49 169.067V169.063C167.487 169.009 167.482 168.955 167.478 168.897C167.473 168.841 167.468 168.781 167.464 168.722L167.416 167.902L167.383 167.079C167.381 167.021 167.38 166.962 167.379 166.905C167.378 166.848 167.377 166.793 167.375 166.739V166.736C167.364 166.244 167.357 165.749 167.36 165.246V164.952L167.377 164.103C167.384 163.82 167.393 163.535 167.404 163.25C167.408 163.117 167.416 162.98 167.423 162.852C167.449 162.323 167.483 161.793 167.523 161.256C167.527 161.191 167.531 161.123 167.539 161.05C167.587 160.465 167.646 159.874 167.713 159.284C167.72 159.212 167.729 159.14 167.737 159.071C167.746 159.001 167.754 158.933 167.761 158.865V158.86L167.876 157.952C167.916 157.648 167.957 157.342 168.002 157.036L168.193 155.85C168.261 155.458 168.33 155.068 168.402 154.68C168.419 154.588 168.438 154.495 168.455 154.404C168.473 154.313 168.49 154.223 168.506 154.134L168.507 154.13L168.742 152.984C168.823 152.605 168.908 152.227 168.997 151.851L169.028 151.728C169.039 151.689 169.047 151.653 169.056 151.618L169.301 150.647C169.385 150.326 169.472 150.005 169.561 149.686C169.639 149.404 169.72 149.122 169.802 148.845L169.803 148.844L170.036 148.077C170.115 147.822 170.196 147.568 170.277 147.315L170.278 147.312L170.53 146.541C170.738 145.928 170.961 145.323 171.187 144.725L171.339 144.311L171.787 143.201C171.94 142.833 172.097 142.466 172.257 142.102L172.321 141.959C172.343 141.912 172.363 141.869 172.382 141.825L172.383 141.824L172.873 140.755L173.385 139.696C173.39 139.685 173.396 139.675 173.401 139.667C173.752 138.971 174.117 138.286 174.496 137.608L174.497 137.606L174.564 137.484C174.587 137.442 174.611 137.397 174.637 137.352L175.051 136.642C175.191 136.407 175.333 136.174 175.473 135.944C175.621 135.696 175.777 135.421 175.941 135.163C176.295 134.602 176.667 134.048 177.035 133.499C177.124 133.366 177.225 133.205 177.327 133.06C177.794 132.39 178.276 131.722 178.777 131.065C178.932 130.858 179.101 130.655 179.254 130.463C179.605 130.013 179.96 129.56 180.328 129.114C180.53 128.867 180.745 128.623 180.949 128.386C181.285 127.99 181.627 127.593 181.98 127.202C182.209 126.948 182.452 126.689 182.68 126.44L182.681 126.438L183.194 125.891C183.366 125.709 183.54 125.527 183.717 125.347C183.991 125.065 184.274 124.783 184.554 124.503L184.555 124.502L185.607 123.478L185.608 123.477L186.495 122.65C187.031 122.159 187.573 121.666 188.138 121.179L188.818 120.601C189.046 120.41 189.275 120.222 189.503 120.036C189.624 119.936 189.762 119.826 189.875 119.733L189.877 119.732L191.022 118.824L191.258 118.64L191.264 118.634L191.448 118.874L191.265 118.635C191.924 118.131 192.584 117.641 193.253 117.169L193.436 117.037C194.096 116.574 194.76 116.126 195.427 115.692L195.429 115.691L195.674 115.53L196.314 115.128L196.826 114.809C197.044 114.676 197.272 114.543 197.488 114.413L197.49 114.412L197.732 114.268C197.813 114.219 197.895 114.169 197.977 114.12L198.688 113.718C198.763 113.676 198.838 113.633 198.914 113.59C198.989 113.547 199.066 113.502 199.143 113.459L199.147 113.457L199.948 113.027C200.067 112.963 200.191 112.894 200.319 112.83L200.976 112.494C201.195 112.383 201.415 112.274 201.637 112.166L201.64 112.165L201.84 112.07C201.906 112.039 201.973 112.008 202.039 111.977C202.355 111.824 202.671 111.679 202.983 111.535H202.985L203.456 111.325C203.766 111.189 204.073 111.056 204.383 110.923L204.387 110.921L204.6 110.832C204.671 110.802 204.745 110.77 204.818 110.74L205.428 110.493C205.629 110.413 205.83 110.334 206.032 110.257L206.186 110.197C206.966 109.902 207.749 109.625 208.54 109.366L208.551 109.363L208.547 109.364C208.547 109.364 208.549 109.364 208.551 109.363C208.554 109.362 208.561 109.359 208.569 109.356C208.573 109.355 208.578 109.353 208.584 109.352L209.183 109.16C209.782 108.972 210.387 108.794 210.991 108.627L211.013 108.62L211.028 108.616L212.247 108.296C212.655 108.194 213.065 108.097 213.476 108.004L213.478 108.003C213.483 108.002 213.488 108 213.493 107.999L213.508 107.996C214.332 107.81 215.165 107.644 216 107.495L216.026 107.49H216.036C216.873 107.342 217.717 107.213 218.565 107.102L218.585 107.099H218.611C219.458 106.989 220.315 106.896 221.177 106.826L221.188 106.825H221.199C222.064 106.751 222.94 106.7 223.817 106.663H223.828C224.716 106.626 225.61 106.611 226.511 106.611L227.464 106.621C237.252 106.791 245.612 109.198 252.31 113.811C252.667 114.057 253.02 114.308 253.369 114.562L243.446 103.266L243.441 103.262C242.311 102.326 241.132 101.438 239.921 100.601C233.34 96.0659 225.101 93.6822 215.407 93.5176L214.465 93.5088C213.571 93.5088 212.685 93.5236 211.807 93.5566H211.784C210.913 93.5934 210.05 93.6447 209.191 93.7178L209.179 93.7187H209.166C208.309 93.7921 207.46 93.8796 206.62 93.9893L206.601 93.9922H206.581C205.743 94.1018 204.912 94.2293 204.089 94.375L204.063 94.3799C203.235 94.5266 202.413 94.6918 201.6 94.875L201.581 94.8779L201.566 94.8818C200.751 95.0654 199.947 95.2679 199.143 95.4883L199.12 95.4932L199.121 95.4941L199.113 95.4971L199.105 95.499C198.309 95.7183 197.519 95.9552 196.733 96.2109L196.726 96.2168L196.685 96.2295C195.9 96.4866 195.118 96.7625 194.344 97.0596L194.309 97.0723C194.302 97.075 194.295 97.0789 194.285 97.083C194.268 97.0904 194.242 97.1 194.214 97.1103L194.215 97.1113C193.812 97.2653 193.407 97.4252 193.002 97.5908L193.003 97.5918C192.861 97.6499 192.715 97.7124 192.573 97.7744L192.568 97.7764C192.261 97.9044 191.957 98.0361 191.652 98.1719L191.651 98.1709C191.574 98.206 191.496 98.2426 191.418 98.2773C191.339 98.3125 191.261 98.3471 191.185 98.3818C190.871 98.5258 190.561 98.6681 190.255 98.8174L190.251 98.8193C190.118 98.8823 189.988 98.9432 189.858 99.0078L189.855 99.0098C189.418 99.223 188.985 99.439 188.553 99.666L188.487 99.7012H188.483C188.387 99.7511 188.3 99.7998 188.185 99.8613C187.918 100.002 187.655 100.141 187.393 100.287L187.391 100.288C187.315 100.329 187.24 100.371 187.163 100.415C187.087 100.458 187.009 100.502 186.93 100.545L186.931 100.546C186.7 100.674 186.469 100.805 186.236 100.937L186.237 100.938C186.072 101.034 185.917 101.128 185.748 101.229L185.747 101.229C185.527 101.358 185.311 101.485 185.098 101.619L185.095 101.622C184.928 101.724 184.759 101.83 184.595 101.936L184.593 101.937C184.487 102.003 184.38 102.07 184.274 102.137C184.168 102.203 184.062 102.269 183.958 102.335L183.957 102.334C183.918 102.36 183.874 102.386 183.849 102.4L183.85 102.401C183.828 102.416 183.805 102.431 183.783 102.445C183.761 102.46 183.739 102.475 183.717 102.49L183.714 102.492C183.052 102.922 182.394 103.367 181.735 103.827C181.676 103.872 181.613 103.915 181.556 103.954L181.557 103.955C180.896 104.425 180.238 104.904 179.59 105.402L179.591 105.403C179.575 105.416 179.555 105.429 179.533 105.443L179.534 105.444C179.505 105.466 179.476 105.489 179.444 105.515C179.413 105.539 179.38 105.566 179.346 105.592L179.345 105.591C178.964 105.884 178.586 106.186 178.208 106.494L178.205 106.497C178.145 106.545 178.085 106.594 178.022 106.645C177.962 106.695 177.899 106.745 177.835 106.796L177.836 106.797C177.609 106.983 177.383 107.17 177.157 107.358L176.482 107.93C176.093 108.264 175.71 108.602 175.335 108.94L175.334 108.941C175.255 109.012 175.177 109.085 175.098 109.16C175.019 109.235 174.937 109.313 174.853 109.39C174.557 109.663 174.264 109.934 173.979 110.208L173.978 110.209C173.626 110.544 173.277 110.882 172.936 111.223C172.653 111.505 172.375 111.779 172.104 112.061L172.103 112.061L171.682 112.487C171.478 112.702 171.285 112.916 171.085 113.139L171.082 113.143C170.844 113.399 170.611 113.647 170.384 113.899L170.383 113.9C170.035 114.284 169.703 114.675 169.365 115.068C169.156 115.311 168.95 115.547 168.755 115.789L168.75 115.794C168.682 115.874 168.631 115.931 168.574 116.002L168.571 116.005C168.268 116.374 167.984 116.746 167.69 117.125C167.526 117.336 167.37 117.524 167.216 117.727L167.217 117.728C166.728 118.375 166.254 119.025 165.795 119.686C165.792 119.69 165.789 119.694 165.786 119.699C165.783 119.704 165.778 119.708 165.773 119.713C165.678 119.853 165.608 119.97 165.503 120.128L165.501 120.13C165.129 120.679 164.762 121.23 164.414 121.786L164.413 121.788C164.253 122.039 164.115 122.289 163.952 122.561C163.702 122.974 163.454 123.375 163.22 123.784L163.217 123.79C163.204 123.812 163.191 123.836 163.175 123.865C163.161 123.891 163.142 123.921 163.124 123.952L163.125 123.953C163.102 123.993 163.081 124.033 163.058 124.076C163.035 124.118 163.01 124.161 162.984 124.206L162.985 124.207C162.609 124.88 162.246 125.559 161.898 126.249C161.895 126.256 161.894 126.263 161.893 126.266C161.891 126.268 161.888 126.27 161.887 126.273L161.888 126.274C161.54 126.967 161.213 127.667 160.896 128.377C160.875 128.425 160.853 128.473 160.832 128.519C160.811 128.565 160.791 128.61 160.771 128.653L160.769 128.66C160.738 128.724 160.713 128.778 160.691 128.833L160.687 128.844C160.401 129.501 160.125 130.166 159.864 130.838C159.839 130.903 159.816 130.969 159.791 131.037C159.766 131.105 159.74 131.175 159.714 131.245C159.487 131.839 159.269 132.437 159.063 133.042L159.064 133.043C158.98 133.297 158.9 133.546 158.813 133.808L158.814 133.809C158.733 134.061 158.653 134.313 158.574 134.565L158.344 135.326C158.263 135.602 158.182 135.881 158.105 136.159L158.104 136.16C158.044 136.378 157.988 136.55 157.937 136.752L157.936 136.756C157.819 137.191 157.713 137.63 157.605 138.074C157.595 138.117 157.584 138.159 157.574 138.196L157.547 138.302C157.371 139.047 157.208 139.8 157.062 140.56V140.563C157.025 140.741 156.992 140.919 156.959 141.101C156.887 141.488 156.816 141.876 156.748 142.265L156.558 143.435C156.466 144.044 156.389 144.643 156.319 145.242L156.318 145.247C156.3 145.383 156.286 145.519 156.271 145.66V145.662C156.206 146.247 156.146 146.832 156.099 147.409L156.1 147.41C156.096 147.473 156.091 147.54 156.083 147.611L156.084 147.612C156.044 148.145 156.01 148.674 155.984 149.199V149.202C155.977 149.332 155.97 149.457 155.967 149.581V149.586C155.941 150.151 155.927 150.712 155.923 151.269V151.559Z" fill="#588995"/>
<path d="M286.801 65.8203L298.851 79.539L297.47 143.97L285.42 130.255L286.801 65.8203Z" fill="#588995"/>
<path d="M298.851 79.5391L297.47 143.971L285.42 130.256L286.801 65.8203L298.851 79.5391ZM285.724 130.143L297.184 143.187L298.546 79.6504L287.086 66.6025L285.724 130.143Z" fill="#588995"/>
<path d="M285.423 130.255L297.473 143.97L236.634 133.169L224.584 119.454L285.423 130.255Z" fill="#588995"/>
<path d="M285.423 130.256L297.473 143.971L236.634 133.169L224.584 119.454L285.423 130.256ZM236.789 132.889L296.676 143.521L285.266 130.534L225.38 119.902L236.789 132.889Z" fill="#588995"/>
<path d="M283.75 155.743L279.862 164.838C279.419 165.872 278.961 166.892 278.484 167.9C278.418 168.04 278.348 168.177 278.285 168.317C277.908 169.111 277.521 169.898 277.122 170.673C276.981 170.946 276.841 171.216 276.701 171.485C276.328 172.194 275.951 172.9 275.563 173.598C275.449 173.801 275.338 174.011 275.224 174.214C274.744 175.064 274.252 175.902 273.747 176.733C273.643 176.906 273.536 177.076 273.429 177.25C272.908 178.096 272.377 178.934 271.83 179.761C271.778 179.838 271.727 179.916 271.675 179.994C271.243 180.644 270.796 181.279 270.349 181.918C269.969 182.457 269.581 182.992 269.19 183.524C268.887 183.937 268.58 184.347 268.27 184.757C267.864 185.289 267.447 185.813 267.029 186.338C266.712 186.733 266.398 187.132 266.077 187.519C265.689 187.988 265.29 188.45 264.891 188.912C264.544 189.314 264.201 189.72 263.846 190.115C263.436 190.573 263.019 191.024 262.598 191.471C262.24 191.858 261.882 192.246 261.516 192.63C261.088 193.077 260.648 193.509 260.209 193.949C259.836 194.322 259.466 194.695 259.086 195.06C258.632 195.496 258.167 195.921 257.705 196.349C257.325 196.7 256.948 197.058 256.564 197.401C255.98 197.926 255.379 198.435 254.777 198.945C254.474 199.203 254.178 199.466 253.872 199.72C252.982 200.459 252.077 201.183 251.154 201.895C251.128 201.914 251.106 201.936 251.08 201.954C250.43 202.453 249.765 202.937 249.101 203.421C248.831 203.616 248.569 203.823 248.296 204.015C247.35 204.687 246.394 205.348 245.419 205.994C245.009 206.264 244.599 206.53 244.189 206.796C243.602 207.172 243.015 207.542 242.424 207.907C242.339 207.959 242.251 208.011 242.166 208.062C241.656 208.373 241.146 208.679 240.633 208.978C240.452 209.085 240.268 209.189 240.087 209.296C239.632 209.558 239.178 209.816 238.724 210.068C238.565 210.156 238.41 210.245 238.251 210.33C237.653 210.658 237.051 210.98 236.449 211.294C236.368 211.334 236.287 211.375 236.209 211.415C235.548 211.759 234.883 212.091 234.215 212.42C234.078 212.486 233.942 212.553 233.805 212.619C233.1 212.959 232.391 213.291 231.682 213.613C231.538 213.679 231.39 213.742 231.246 213.808C230.559 214.115 229.872 214.414 229.182 214.702C229.126 214.724 229.067 214.75 229.012 214.776C228.284 215.079 227.553 215.367 226.822 215.647C226.637 215.717 226.456 215.788 226.272 215.858C225.88 216.005 225.485 216.15 225.094 216.29C224.902 216.36 224.71 216.43 224.518 216.497C223.99 216.681 223.462 216.866 222.93 217.039C222.878 217.058 222.823 217.076 222.771 217.095C222.188 217.287 221.6 217.472 221.013 217.652C220.832 217.708 220.655 217.76 220.474 217.815C220.064 217.937 219.651 218.059 219.241 218.177C219.026 218.236 218.809 218.299 218.594 218.358C218.207 218.465 217.819 218.568 217.428 218.668C217.213 218.723 216.999 218.779 216.785 218.834C216.36 218.941 215.936 219.045 215.507 219.144C215.334 219.185 215.164 219.226 214.99 219.266C214.396 219.403 213.801 219.532 213.203 219.658C213.103 219.68 213.004 219.698 212.9 219.717C212.402 219.816 211.903 219.916 211.401 220.008C211.198 220.045 210.991 220.082 210.788 220.119C210.385 220.189 209.983 220.26 209.577 220.326C209.355 220.363 209.133 220.396 208.912 220.433C208.509 220.496 208.107 220.555 207.701 220.61C207.494 220.64 207.283 220.669 207.077 220.699C206.593 220.762 206.109 220.821 205.625 220.88C205.5 220.895 205.374 220.909 205.249 220.924C204.639 220.991 204.03 221.053 203.421 221.109C203.258 221.124 203.092 221.135 202.93 221.15C202.479 221.186 202.028 221.223 201.578 221.253C201.36 221.268 201.139 221.282 200.921 221.294C200.518 221.319 200.112 221.342 199.706 221.36C199.48 221.371 199.255 221.382 199.026 221.39C198.602 221.408 198.181 221.419 197.756 221.43C197.556 221.434 197.361 221.441 197.161 221.445C196.545 221.456 195.924 221.463 195.304 221.46C173.967 221.408 156.607 213.926 143.689 199.222L155.739 212.94C168.657 227.645 186.016 235.127 207.354 235.178C207.974 235.178 208.591 235.175 209.211 235.164C209.41 235.164 209.606 235.153 209.806 235.149C210.23 235.138 210.655 235.127 211.076 235.108C211.301 235.101 211.526 235.09 211.755 235.079C212.162 235.06 212.564 235.038 212.97 235.012C213.188 234.997 213.41 234.986 213.628 234.972C214.078 234.942 214.529 234.905 214.979 234.868C215.142 234.853 215.308 234.842 215.47 234.828C216.08 234.772 216.689 234.713 217.298 234.643C217.424 234.628 217.549 234.613 217.675 234.599C218.159 234.543 218.642 234.484 219.126 234.418C219.333 234.392 219.543 234.359 219.75 234.329C220.156 234.274 220.559 234.215 220.965 234.152C221.187 234.119 221.405 234.082 221.626 234.048C222.032 233.982 222.439 233.912 222.845 233.842C223.048 233.805 223.251 233.771 223.454 233.734C223.956 233.642 224.455 233.542 224.957 233.443C225.057 233.424 225.157 233.406 225.256 233.384C225.854 233.262 226.449 233.129 227.044 232.992C227.217 232.952 227.387 232.911 227.557 232.87C227.982 232.771 228.41 232.667 228.835 232.56C229.049 232.505 229.259 232.449 229.473 232.394C229.865 232.291 230.253 232.187 230.644 232.08C230.858 232.021 231.072 231.962 231.283 231.903C231.697 231.785 232.11 231.663 232.52 231.541C232.701 231.486 232.878 231.434 233.059 231.382C233.646 231.201 234.23 231.017 234.817 230.825C234.869 230.806 234.924 230.788 234.976 230.769C235.508 230.592 236.036 230.411 236.564 230.226C236.756 230.16 236.944 230.09 237.132 230.02C237.527 229.876 237.923 229.732 238.314 229.584C238.414 229.547 238.513 229.514 238.609 229.473C238.694 229.44 238.776 229.407 238.861 229.373C239.592 229.093 240.323 228.805 241.05 228.502C241.106 228.48 241.161 228.454 241.22 228.432C241.911 228.144 242.601 227.845 243.288 227.538C243.432 227.472 243.58 227.409 243.724 227.342C244.433 227.021 245.142 226.689 245.851 226.349C245.988 226.282 246.124 226.216 246.261 226.15C246.929 225.825 247.594 225.489 248.255 225.145C248.314 225.116 248.373 225.086 248.429 225.056C248.451 225.045 248.473 225.031 248.495 225.02C249.097 224.706 249.699 224.384 250.297 224.052C250.456 223.967 250.611 223.878 250.766 223.79C251.224 223.535 251.678 223.277 252.133 223.014C252.313 222.911 252.494 222.804 252.675 222.697C253.192 222.394 253.706 222.087 254.219 221.774C254.304 221.722 254.385 221.674 254.47 221.622C255.061 221.26 255.652 220.887 256.239 220.511C256.291 220.477 256.346 220.444 256.398 220.411C256.756 220.182 257.11 219.946 257.469 219.713C258.444 219.067 259.404 218.406 260.345 217.734C260.523 217.608 260.692 217.475 260.87 217.346C261.63 216.796 262.387 216.242 263.13 215.673C263.148 215.658 263.17 215.64 263.189 215.625C264.116 214.912 265.024 214.185 265.918 213.443C266.224 213.188 266.516 212.926 266.819 212.671C267.421 212.161 268.023 211.648 268.606 211.124C268.669 211.068 268.735 211.013 268.802 210.954C269.123 210.666 269.43 210.363 269.747 210.071C270.209 209.643 270.678 209.218 271.128 208.779C271.509 208.413 271.874 208.04 272.247 207.667C272.687 207.228 273.126 206.792 273.558 206.349C273.643 206.26 273.732 206.175 273.817 206.087C274.097 205.791 274.363 205.488 274.64 205.189C275.058 204.739 275.479 204.288 275.888 203.83C276.243 203.435 276.586 203.029 276.933 202.627C277.332 202.165 277.731 201.703 278.119 201.234C278.219 201.113 278.326 200.994 278.429 200.873C278.651 200.603 278.857 200.322 279.075 200.053C279.493 199.528 279.91 199.008 280.316 198.476C280.626 198.07 280.933 197.656 281.236 197.243C281.627 196.711 282.015 196.179 282.395 195.636C282.532 195.44 282.676 195.252 282.812 195.056C283.119 194.613 283.422 194.163 283.721 193.712C283.773 193.635 283.828 193.557 283.88 193.48C284.426 192.652 284.958 191.814 285.479 190.968C285.586 190.799 285.689 190.625 285.796 190.452C286.254 189.698 286.705 188.941 287.14 188.173C287.185 188.096 287.229 188.014 287.273 187.933C287.388 187.73 287.499 187.523 287.613 187.32C288.001 186.622 288.381 185.917 288.754 185.204C288.894 184.935 289.035 184.665 289.175 184.392C289.574 183.613 289.962 182.826 290.338 182.032C290.405 181.892 290.475 181.755 290.538 181.618C290.914 180.821 291.28 180.016 291.635 179.2C291.727 178.985 291.819 178.771 291.912 178.557L295.8 169.462L283.75 155.743Z" fill="#588995"/>
<path d="M295.8 169.462L291.911 178.557L291.635 179.199L291.095 180.416C290.912 180.819 290.726 181.219 290.538 181.618C290.475 181.755 290.404 181.892 290.338 182.032L289.765 183.218C289.571 183.611 289.374 184.002 289.175 184.392L288.754 185.204L288.189 186.268C287.999 186.62 287.807 186.971 287.613 187.32L287.273 187.933C287.229 188.014 287.185 188.095 287.141 188.173C286.705 188.941 286.254 189.698 285.796 190.451L285.479 190.969C284.958 191.814 284.426 192.652 283.88 193.479L283.721 193.712L283.27 194.387C283.118 194.611 282.966 194.835 282.812 195.057L282.396 195.636L281.819 196.443C281.626 196.711 281.431 196.976 281.235 197.242C280.933 197.656 280.627 198.069 280.316 198.476L279.7 199.267C279.493 199.529 279.284 199.79 279.075 200.053L278.754 200.463C278.647 200.6 278.539 200.737 278.429 200.872L278.119 201.234L277.53 201.934C277.332 202.165 277.133 202.396 276.934 202.627L276.414 203.231C276.241 203.433 276.066 203.633 275.889 203.83L275.268 204.513C275.059 204.739 274.849 204.964 274.641 205.189L273.816 206.087L273.559 206.349L271.69 208.226C271.505 208.411 271.318 208.596 271.128 208.778C270.677 209.218 270.209 209.643 269.747 210.071L269.276 210.514C269.12 210.662 268.963 210.81 268.802 210.954L268.606 211.124C268.023 211.648 267.421 212.161 266.819 212.671L265.918 213.442L265.245 213.997C264.569 214.548 263.884 215.09 263.188 215.625C263.17 215.64 263.148 215.658 263.13 215.673L262.007 216.517C261.63 216.795 261.25 217.071 260.87 217.346C260.693 217.475 260.523 217.608 260.346 217.733C259.404 218.405 258.444 219.067 257.469 219.713L256.397 220.411C256.346 220.444 256.291 220.478 256.239 220.511L255.355 221.072C255.061 221.258 254.765 221.441 254.47 221.622L254.219 221.773C253.706 222.087 253.193 222.394 252.676 222.697C252.495 222.804 252.314 222.911 252.133 223.015C251.679 223.277 251.224 223.535 250.767 223.79C250.612 223.879 250.456 223.967 250.297 224.052C249.699 224.384 249.097 224.706 248.495 225.02L248.429 225.057C248.373 225.086 248.314 225.116 248.255 225.146C247.594 225.489 246.929 225.825 246.261 226.149C246.124 226.216 245.988 226.282 245.852 226.349L244.787 226.853C244.433 227.018 244.078 227.182 243.724 227.343C243.58 227.409 243.432 227.472 243.288 227.538L242.256 227.992C241.911 228.141 241.566 228.288 241.221 228.432L241.051 228.502C240.323 228.805 239.592 229.092 238.86 229.373C238.775 229.406 238.694 229.439 238.609 229.473C238.513 229.513 238.414 229.547 238.314 229.584C237.923 229.732 237.528 229.876 237.133 230.02C236.944 230.09 236.756 230.16 236.563 230.227C236.035 230.411 235.507 230.592 234.976 230.77C234.924 230.788 234.869 230.806 234.817 230.824L233.938 231.107C233.646 231.2 233.353 231.291 233.06 231.382L232.521 231.541L231.283 231.903L230.645 232.08L229.474 232.394L228.835 232.561L227.557 232.87C227.387 232.911 227.217 232.952 227.044 232.992L226.151 233.193C225.854 233.259 225.555 233.323 225.256 233.384C225.156 233.406 225.057 233.424 224.957 233.442C224.455 233.542 223.956 233.642 223.454 233.734L222.845 233.842L221.626 234.049L220.965 234.151C220.559 234.214 220.156 234.274 219.75 234.329C219.543 234.359 219.333 234.392 219.126 234.418C218.642 234.484 218.158 234.543 217.675 234.599C217.549 234.613 217.423 234.628 217.298 234.643L216.385 234.741C216.08 234.772 215.775 234.799 215.471 234.827L214.979 234.868L213.628 234.972C213.41 234.986 213.188 234.997 212.971 235.012L211.755 235.079L211.076 235.108C210.655 235.127 210.23 235.137 209.806 235.148L209.211 235.164C208.591 235.175 207.974 235.179 207.354 235.179L206.356 235.171C185.806 234.896 168.996 227.651 156.348 213.624L155.739 212.94L143.689 199.222C156.607 213.926 173.967 221.408 195.304 221.46C195.614 221.462 195.925 221.461 196.234 221.458L197.161 221.445C197.361 221.442 197.556 221.433 197.756 221.43C198.181 221.419 198.602 221.408 199.026 221.39L199.706 221.36L200.921 221.294C201.139 221.283 201.36 221.268 201.578 221.253L202.93 221.149L203.421 221.109C203.726 221.082 204.03 221.051 204.335 221.021L205.249 220.924L205.625 220.88L207.076 220.699C207.283 220.67 207.494 220.64 207.7 220.61L208.912 220.434C209.133 220.397 209.355 220.363 209.576 220.326L210.788 220.119L211.4 220.009C211.903 219.916 212.402 219.816 212.9 219.717C213.004 219.698 213.104 219.679 213.203 219.657C213.502 219.594 213.8 219.531 214.098 219.466L214.99 219.267L215.507 219.145L216.785 218.834C216.999 218.779 217.214 218.723 217.428 218.668L218.595 218.357C218.809 218.298 219.026 218.236 219.24 218.177L220.474 217.815C220.655 217.76 220.833 217.708 221.014 217.652C221.307 217.562 221.601 217.471 221.894 217.378L222.771 217.095L222.93 217.039C223.461 216.866 223.99 216.682 224.518 216.497C224.71 216.431 224.902 216.36 225.094 216.29L226.271 215.857L226.822 215.647C227.553 215.367 228.284 215.078 229.012 214.775C229.067 214.75 229.126 214.724 229.182 214.702C229.872 214.414 230.559 214.115 231.246 213.809C231.39 213.742 231.538 213.679 231.682 213.612C232.036 213.452 232.391 213.289 232.745 213.123L233.805 212.619L234.215 212.42C234.549 212.256 234.882 212.09 235.215 211.923L236.209 211.415C236.286 211.374 236.368 211.335 236.449 211.294C237.051 210.98 237.653 210.659 238.251 210.33C238.41 210.245 238.565 210.156 238.724 210.067L240.087 209.296L240.633 208.979C240.889 208.829 241.145 208.677 241.4 208.524L242.166 208.062C242.251 208.011 242.339 207.959 242.424 207.907C243.015 207.542 243.602 207.173 244.189 206.796C244.599 206.53 245.009 206.264 245.419 205.994C246.394 205.348 247.351 204.687 248.296 204.015C248.432 203.919 248.566 203.819 248.699 203.719L249.101 203.421C249.433 203.179 249.765 202.937 250.096 202.693L251.08 201.954L251.154 201.896C251.847 201.361 252.528 200.82 253.201 200.271L253.872 199.721L254.776 198.945C255.077 198.691 255.378 198.435 255.677 198.179L256.563 197.401L257.705 196.349C257.936 196.134 258.168 195.921 258.398 195.707L259.086 195.061C259.276 194.878 259.464 194.692 259.65 194.507L260.209 193.948C260.648 193.509 261.087 193.077 261.516 192.63L262.598 191.471C262.808 191.247 263.018 191.023 263.227 190.797L263.846 190.115C264.023 189.918 264.198 189.718 264.371 189.517L264.892 188.912C265.091 188.681 265.29 188.45 265.488 188.219L266.076 187.52C266.397 187.132 266.712 186.733 267.029 186.338C267.447 185.814 267.864 185.289 268.271 184.757L269.189 183.523C269.385 183.258 269.58 182.991 269.773 182.724L270.35 181.918C270.573 181.599 270.796 181.28 271.018 180.96L271.675 179.993C271.726 179.916 271.778 179.838 271.83 179.761C272.103 179.347 272.373 178.931 272.64 178.513L273.429 177.25L273.746 176.732C274.252 175.902 274.744 175.064 275.224 174.215C275.338 174.012 275.449 173.801 275.563 173.598C275.951 172.9 276.328 172.194 276.701 171.485L277.122 170.673C277.521 169.898 277.909 169.111 278.285 168.317L278.484 167.899C278.723 167.395 278.956 166.889 279.186 166.379L279.862 164.839L283.75 155.743L295.8 169.462ZM226.086 232.898L226.976 232.697C227.148 232.657 227.317 232.617 227.486 232.576H227.488L228.761 232.267C228.867 232.239 228.973 232.212 229.078 232.185C229.184 232.157 229.29 232.129 229.396 232.102L230.564 231.788L231.201 231.611L232.434 231.251C232.613 231.196 232.788 231.145 232.966 231.094C233.551 230.913 234.137 230.729 234.723 230.537C234.748 230.528 234.774 230.519 234.798 230.511C234.825 230.501 234.85 230.493 234.874 230.484L234.88 230.482L236.464 229.941L236.465 229.94C236.653 229.875 236.838 229.807 237.026 229.736L237.029 229.735L238.207 229.301H238.209L238.491 229.194L238.499 229.191L238.623 229.143C238.664 229.126 238.707 229.109 238.75 229.092L238.752 229.091L239.846 228.665C240.209 228.521 240.573 228.373 240.935 228.223L240.938 228.221L241.104 228.152L242.136 227.714C242.479 227.565 242.823 227.414 243.165 227.262C243.238 227.228 243.312 227.196 243.384 227.164C243.457 227.132 243.528 227.099 243.598 227.067H243.6L244.659 226.579C245.013 226.414 245.367 226.246 245.721 226.076C245.788 226.043 245.856 226.01 245.924 225.978C245.992 225.944 246.061 225.911 246.129 225.878L247.125 225.385C247.456 225.218 247.786 225.048 248.115 224.877L248.12 224.875L248.286 224.79L248.293 224.786C248.293 224.786 248.295 224.785 248.297 224.784C248.3 224.782 248.304 224.781 248.31 224.777L248.36 224.749C248.959 224.437 249.557 224.118 250.15 223.788L250.154 223.785L250.616 223.527L250.619 223.525L251.981 222.753L251.982 222.752L252.521 222.437L252.522 222.436L253.293 221.979C253.549 221.826 253.806 221.672 254.062 221.516L254.189 221.438C254.231 221.414 254.271 221.389 254.312 221.364L255.195 220.816L256.076 220.256C256.104 220.238 256.133 220.22 256.159 220.204C256.186 220.187 256.211 220.171 256.234 220.156C256.591 219.928 256.94 219.696 257.302 219.461C258.274 218.817 259.231 218.157 260.17 217.487L260.691 217.102L260.692 217.101C261.45 216.552 262.203 216.002 262.94 215.438L262.968 215.415C262.978 215.407 262.989 215.397 263 215.389L263.005 215.386L263.694 214.85C264.38 214.311 265.057 213.765 265.725 213.21L266.624 212.439C267.226 211.93 267.825 211.419 268.404 210.898L268.406 210.896L268.506 210.811L268.601 210.728C268.925 210.436 269.209 210.155 269.543 209.849C270.008 209.417 270.471 208.998 270.917 208.562L270.919 208.561L271.477 208.012C271.661 207.827 271.845 207.641 272.033 207.453C272.474 207.012 272.911 206.579 273.342 206.138C273.386 206.091 273.431 206.046 273.474 206.004C273.517 205.96 273.559 205.919 273.599 205.878C273.879 205.583 274.132 205.293 274.418 204.984L275.045 204.308C275.253 204.082 275.459 203.857 275.663 203.629L276.185 203.034C276.357 202.834 276.529 202.632 276.704 202.429C277.103 201.967 277.501 201.508 277.886 201.042C277.986 200.92 278.106 200.786 278.198 200.677C278.305 200.547 278.409 200.414 278.515 200.277L278.84 199.862C279.258 199.337 279.673 198.82 280.076 198.292L280.536 197.682C280.689 197.477 280.84 197.27 280.991 197.063C281.382 196.532 281.769 196.003 282.147 195.463L282.359 195.168C282.43 195.072 282.498 194.978 282.564 194.884C282.869 194.443 283.17 193.994 283.469 193.545C283.496 193.504 283.525 193.462 283.552 193.424C283.579 193.385 283.604 193.348 283.628 193.312C284.172 192.488 284.703 191.653 285.222 190.81L285.223 190.808L285.539 190.293C285.996 189.542 286.445 188.787 286.878 188.023L287.008 187.788L287.01 187.784L287.179 187.48C287.235 187.378 287.292 187.275 287.35 187.172C287.543 186.824 287.734 186.475 287.923 186.124L288.486 185.063C288.627 184.794 288.767 184.526 288.906 184.254L289.494 183.084C289.687 182.692 289.878 182.298 290.065 181.902L290.263 181.492L290.265 181.489L290.819 180.291C291.001 179.89 291.181 179.486 291.357 179.079C291.403 178.972 291.449 178.866 291.495 178.759C291.541 178.652 291.588 178.545 291.634 178.438L295.447 169.518L283.84 156.303L280.14 164.957C279.806 165.735 279.465 166.506 279.113 167.269L278.758 168.029C278.685 168.183 278.622 168.302 278.561 168.44L278.559 168.446C278.37 168.845 278.177 169.241 277.982 169.636L277.391 170.812C277.25 171.086 277.109 171.356 276.969 171.625C276.595 172.335 276.217 173.044 275.828 173.744L275.827 173.746C275.771 173.845 275.716 173.947 275.659 174.051L275.487 174.363C275.006 175.215 274.512 176.056 274.005 176.89L273.687 177.408C273.164 178.256 272.631 179.097 272.082 179.928C272.056 179.967 272.03 180.006 272.004 180.045L271.927 180.161C271.492 180.815 271.043 181.453 270.597 182.091C270.215 182.632 269.826 183.17 269.434 183.703L269.433 183.702C269.129 184.117 268.822 184.529 268.511 184.939C268.102 185.474 267.683 186.002 267.266 186.526L267.265 186.527L266.31 187.712C266.114 187.948 265.917 188.182 265.718 188.415L265.12 189.109C264.948 189.309 264.775 189.512 264.601 189.714L264.071 190.317C263.66 190.777 263.241 191.228 262.819 191.675L262.82 191.676C262.462 192.063 262.103 192.453 261.735 192.839L261.734 192.84C261.303 193.29 260.86 193.725 260.423 194.162C260.051 194.534 259.679 194.91 259.296 195.278C258.839 195.716 258.369 196.144 257.91 196.57C257.535 196.917 257.152 197.282 256.766 197.627L256.765 197.626C256.178 198.154 255.573 198.667 254.972 199.176C254.676 199.428 254.373 199.698 254.065 199.953C253.173 200.694 252.265 201.42 251.339 202.135L251.33 202.142C251.33 202.142 251.328 202.142 251.325 202.145C251.322 202.147 251.319 202.15 251.312 202.155C251.303 202.163 251.284 202.178 251.263 202.193L251.264 202.194C250.937 202.445 250.607 202.692 250.275 202.937L249.278 203.665C249.027 203.847 248.74 204.073 248.47 204.263C247.523 204.936 246.564 205.598 245.586 206.246L245.585 206.247C245.174 206.517 244.763 206.784 244.354 207.05C243.765 207.427 243.175 207.798 242.583 208.164L242.581 208.165C242.537 208.192 242.492 208.218 242.449 208.244C242.406 208.27 242.364 208.295 242.323 208.32C241.813 208.631 241.301 208.937 240.786 209.237L240.787 209.238C240.695 209.293 240.602 209.346 240.511 209.398C240.419 209.451 240.329 209.503 240.24 209.556L240.237 209.558C239.782 209.82 239.326 210.08 238.87 210.332L238.869 210.331C238.714 210.417 238.555 210.51 238.394 210.597L238.393 210.596C237.793 210.925 237.191 211.247 236.589 211.562L236.584 211.563C236.502 211.604 236.424 211.645 236.35 211.684C235.686 212.028 235.018 212.362 234.349 212.691L233.938 212.891L233.937 212.892C233.229 213.232 232.518 213.565 231.807 213.888C231.733 213.922 231.658 213.955 231.586 213.987C231.513 214.02 231.442 214.051 231.373 214.083L231.369 214.084C230.681 214.391 229.991 214.691 229.298 214.98L229.294 214.982C229.245 215.002 229.191 215.026 229.14 215.05L229.128 215.055C228.397 215.359 227.663 215.648 226.931 215.93C226.839 215.965 226.747 216 226.655 216.035L226.379 216.141C225.986 216.289 225.588 216.433 225.196 216.573L225.197 216.574C225.006 216.644 224.811 216.714 224.616 216.781L224.617 216.782C224.09 216.967 223.559 217.152 223.023 217.327L223.022 217.326C222.998 217.335 222.973 217.344 222.949 217.353C222.922 217.362 222.897 217.371 222.873 217.38L222.865 217.382C222.279 217.575 221.691 217.76 221.103 217.941C221.011 217.969 220.919 217.997 220.83 218.023C220.74 218.05 220.652 218.077 220.562 218.104H220.561C220.15 218.226 219.735 218.349 219.324 218.468L219.321 218.469C219.215 218.498 219.108 218.528 219 218.559L218.675 218.649C218.285 218.757 217.895 218.86 217.502 218.96L217.503 218.961L216.86 219.127H216.858L215.576 219.438C215.49 219.459 215.404 219.479 215.318 219.499C215.233 219.519 215.147 219.54 215.06 219.561H215.058C214.462 219.697 213.866 219.826 213.268 219.952L213.269 219.953C213.162 219.977 213.057 219.996 212.953 220.015L212.952 220.014L211.455 220.306C211.353 220.324 211.25 220.343 211.147 220.361C211.045 220.38 210.943 220.399 210.842 220.417H210.84C210.438 220.487 210.033 220.556 209.625 220.623L209.626 220.624C209.514 220.643 209.402 220.66 209.292 220.678C209.181 220.695 209.071 220.713 208.962 220.731H208.958C208.554 220.794 208.149 220.855 207.741 220.91L207.74 220.909C207.638 220.924 207.534 220.939 207.431 220.954C207.326 220.969 207.222 220.983 207.119 220.998L207.115 220.999C206.63 221.062 206.146 221.121 205.662 221.18L205.66 221.181C205.598 221.188 205.535 221.195 205.473 221.202C205.41 221.21 205.347 221.217 205.284 221.225H205.281C204.671 221.291 204.06 221.355 203.448 221.41C203.365 221.418 203.281 221.424 203.199 221.431C203.117 221.437 203.036 221.443 202.957 221.45L202.954 221.451C202.504 221.488 202.051 221.524 201.598 221.554L201.599 221.555C201.382 221.569 201.159 221.584 200.939 221.595L200.94 221.596C200.536 221.622 200.128 221.643 199.72 221.661L199.721 221.662C199.497 221.673 199.269 221.683 199.038 221.69L199.039 221.691C198.611 221.71 198.188 221.721 197.764 221.732H197.762C197.664 221.734 197.566 221.736 197.467 221.739L197.167 221.747C196.549 221.758 195.926 221.764 195.303 221.761C177.254 221.717 162.026 216.374 149.913 205.85L155.966 212.741L156.572 213.422C169.362 227.605 186.427 234.824 207.354 234.875C207.973 234.875 208.588 234.872 209.206 234.861H209.211L209.798 234.847L211.062 234.807L211.066 234.806L211.741 234.776L212.95 234.711L213.281 234.69C213.391 234.684 213.5 234.677 213.607 234.67L214.954 234.566C215.037 234.559 215.12 234.553 215.201 234.547C215.284 234.54 215.364 234.534 215.443 234.526C216.051 234.471 216.657 234.412 217.263 234.343L217.451 234.32C217.514 234.313 217.577 234.306 217.64 234.299L217.641 234.298C218.123 234.243 218.604 234.184 219.085 234.118L219.089 234.117L219.708 234.029L220.919 233.853C221.028 233.836 221.138 233.819 221.248 233.802L221.581 233.749C221.984 233.683 222.387 233.614 222.791 233.544L223.098 233.49C223.199 233.473 223.3 233.456 223.399 233.438L224.898 233.146L224.902 233.146L225.19 233.089L225.196 233.087L226.086 232.898Z" fill="#588995"/>
<path d="M255.261 155.676L283.748 155.742L279.859 164.837C272.592 181.809 261 195.654 245.413 205.99C229.873 216.289 213.016 221.492 195.305 221.448C173.643 221.396 156.084 213.685 143.107 198.538C130.13 183.386 125.182 164.808 128.391 143.323C131.6 121.835 142.095 103.294 159.588 88.2162C177.085 73.1349 196.937 65.513 218.599 65.5647C232.384 65.5979 244.283 68.482 253.969 74.1393C258.459 76.7575 262.614 79.8705 266.384 83.4193L286.802 65.8195L285.421 130.251L224.581 119.45L243.636 103.024C242.499 102.083 241.314 101.189 240.095 100.347C233.241 95.6239 224.618 93.2236 214.467 93.2014C200.135 93.1682 187.65 97.9134 176.287 107.707C164.928 117.5 158.369 129.173 156.246 143.386C154.123 157.6 157.188 169.295 165.615 179.136C174.045 188.977 185.105 193.778 199.437 193.811C210.364 193.837 220.556 190.838 230.582 184.645C240.534 178.497 247.82 170.606 252.854 160.51L255.261 155.676Z" fill="#ECF8FF"/>
<path d="M219.886 65.5764C233.126 65.7811 244.585 68.6593 253.969 74.1399C258.178 76.5944 262.093 79.4834 265.673 82.7591L266.384 83.4192L286.802 65.8196L285.421 130.251L224.581 119.45L243.637 103.025C242.499 102.083 241.313 101.189 240.095 100.347C233.455 95.7716 225.155 93.3756 215.414 93.2102L214.467 93.2014C200.135 93.1682 187.65 97.9141 176.287 107.707L175.236 108.63C164.522 118.232 158.303 129.617 156.246 143.386L156.062 144.711C154.319 158.329 157.45 169.602 165.614 179.136C173.781 188.67 184.417 193.473 198.103 193.794L199.437 193.811C210.023 193.836 219.918 191.023 229.641 185.217L230.582 184.646C240.223 178.689 247.362 171.097 252.375 161.45L252.853 160.51L255.262 155.676L283.748 155.742L279.859 164.838L279.516 165.631C272.229 182.241 260.756 195.815 245.413 205.99L243.952 206.941C228.819 216.609 212.462 221.491 195.304 221.448L195.305 221.146C212.953 221.19 229.753 216.006 245.245 205.738L245.971 205.252C261.144 195.002 272.45 181.372 279.581 164.719L283.289 156.043L255.448 155.978L253.124 160.645C248.223 170.476 241.195 178.228 231.671 184.319L230.741 184.903C220.986 190.928 211.065 193.947 200.465 194.107L199.436 194.114C185.027 194.08 173.879 189.249 165.384 179.333C156.894 169.418 153.812 157.631 155.947 143.342C158.082 129.054 164.678 117.316 176.09 107.478L177.163 106.571C188.291 97.3461 200.51 92.8673 214.468 92.8997L215.419 92.9085C224.891 93.0693 233.027 95.3293 239.613 99.6585L240.266 100.098C241.492 100.945 242.685 101.844 243.829 102.791L244.104 103.02L225.261 119.263L285.125 129.891L286.484 66.4924L266.375 83.8264L266.177 83.6399C262.657 80.3274 258.802 77.396 254.65 74.8948L253.816 74.4007C244.486 68.9515 233.08 66.0832 219.881 65.8792L218.598 65.8674C197.351 65.8167 177.849 73.1729 160.604 87.7464L159.785 88.4456C142.616 103.244 132.216 121.38 128.845 142.367L128.69 143.368C125.493 164.775 130.423 183.263 143.337 198.341L143.945 199.042C156.797 213.654 174.06 221.095 195.305 221.146L195.304 221.448L194.292 221.44C173.431 221.158 156.428 213.692 143.718 199.243L143.107 198.538C130.333 183.624 125.339 165.388 128.247 144.328L128.391 143.324C131.55 122.171 141.769 103.874 158.773 88.9261L159.588 88.2161C177.084 73.1349 196.937 65.513 218.599 65.5647L219.886 65.5764Z" fill="#588995"/>
<path d="M266.385 83.4193C262.615 79.8705 258.46 76.7575 253.97 74.1393C244.284 68.482 232.382 65.5979 218.6 65.5647C196.938 65.513 177.085 73.1349 159.593 88.2125C153.263 93.6704 147.853 99.5825 143.37 105.923C157.757 88.7479 181.162 76.7095 207.599 76.7095C245.306 76.7095 276.854 101.2 284.845 130.151L285.421 130.255L286.803 65.8195L266.385 83.4193Z" fill="#C4DAE6"/>
<path d="M219.887 65.5764C233.123 65.7812 244.586 68.6594 253.97 74.1399C258.46 76.758 262.615 79.8706 266.385 83.4192L266.178 83.6399C262.658 80.3274 258.803 77.396 254.651 74.8948L253.817 74.4007C244.488 68.9515 233.078 66.0833 219.882 65.8792L218.6 65.8674C197.353 65.8167 177.85 73.1728 160.609 87.7424L159.79 88.4417C155.292 92.3203 151.263 96.4297 147.7 100.757C162.274 86.2097 183.704 76.4075 207.6 76.4075C245.348 76.4077 276.97 100.871 285.084 129.887L285.126 129.894L286.485 66.4924L266.582 83.6487L266.385 83.4192L286.803 65.8196L285.422 130.255L284.846 130.152C276.917 101.426 245.798 77.0924 208.481 76.7141L207.6 76.7102C181.163 76.7102 157.757 88.7481 143.37 105.923C147.573 99.9789 152.591 94.4114 158.417 89.2415L159.593 88.2132C177.085 73.1357 196.938 65.5131 218.6 65.5647L219.887 65.5764Z" fill="#588995"/>
<path d="M128.516 142.56C128.483 142.777 128.446 142.995 128.413 143.213C128.406 143.582 128.395 143.948 128.395 144.317L128.516 142.56Z" fill="#C4DAE6"/>
<path d="M128.395 144.317C128.395 143.948 128.406 143.582 128.413 143.213C128.446 142.995 128.483 142.777 128.516 142.56L128.395 144.317Z" fill="#588995"/>
<path d="M279.864 164.838L283.752 155.743L255.292 155.676C252.611 187.353 222.156 210.647 187.255 207.711C152.343 204.776 126.206 176.703 128.872 145.012L128.108 145.422C125.519 166.02 130.56 183.882 143.111 198.538C156.088 213.69 173.647 221.4 195.309 221.448C213.02 221.489 229.878 216.29 245.417 205.99C261.004 195.654 272.596 181.81 279.864 164.838Z" fill="#C4DAE6"/>
<path d="M128.873 145.012C126.207 176.703 152.344 204.775 187.256 207.711C222.156 210.647 252.612 187.353 255.293 155.677L283.753 155.743L279.864 164.838L279.52 165.632C272.233 182.242 260.761 195.816 245.418 205.99L243.957 206.941C228.824 216.61 212.467 221.488 195.31 221.448V221.146C212.958 221.187 229.758 216.006 245.251 205.738L245.976 205.253C261.15 195.003 272.456 181.371 279.587 164.719L283.296 156.043L255.567 155.979C252.739 187.458 222.645 210.587 188.051 208.077L187.231 208.013C152.384 205.082 126.194 177.196 128.528 145.539L128.388 145.613C125.854 166.069 130.881 183.792 143.341 198.342L143.951 199.043C156.803 213.658 174.065 221.099 195.31 221.146V221.448L194.298 221.44C173.437 221.162 156.433 213.696 143.723 199.243L143.112 198.538C130.756 184.11 125.679 166.577 127.993 146.385L128.108 145.422L128.873 145.012Z" fill="#588995"/>
<path d="M189.707 168.882C190.697 167.56 191.154 165.91 190.981 164.266C190.811 162.623 190.024 161.102 188.78 160.012L182.624 154.577L189.234 159.547C190.549 160.537 192.188 160.998 193.824 160.836C195.46 160.673 196.978 159.902 198.075 158.676L203.588 152.505L198.625 159C197.617 160.322 197.148 161.973 197.31 163.628C197.473 165.282 198.256 166.811 199.5 167.911L205.641 173.314L199.057 168.376C197.735 167.383 196.088 166.921 194.441 167.091C192.794 167.261 191.276 168.044 190.183 169.285L184.755 175.455L189.711 168.882H189.707Z" fill="#ECF8FF"/>
<path d="M198.625 159L198.442 159.252C197.561 160.529 197.158 162.077 197.311 163.628C197.473 165.282 198.256 166.811 199.5 167.911L205.642 173.313L199.057 168.376C197.735 167.383 196.088 166.922 194.441 167.092L194.134 167.13C192.606 167.36 191.208 168.122 190.184 169.285L184.755 175.455L189.711 168.883H189.707C190.635 167.643 191.095 166.115 191.006 164.574L190.98 164.267C190.821 162.726 190.12 161.292 189.008 160.222L188.78 160.013L182.624 154.576L189.234 159.547C190.467 160.475 191.985 160.939 193.518 160.859L193.824 160.836C195.358 160.684 196.788 159.996 197.864 158.9L198.075 158.676L203.588 152.505L198.625 159ZM198.3 158.877C197.153 160.159 195.566 160.967 193.854 161.137C192.143 161.307 190.428 160.823 189.053 159.788V159.789L188.588 159.439L188.979 159.785L189.218 160.004C190.381 161.124 191.114 162.623 191.281 164.234L191.308 164.557C191.39 165.974 191.027 167.38 190.278 168.58H190.317L189.952 169.064L189.82 169.238L189.956 169.085L190.176 168.848C191.299 167.688 192.795 166.958 194.41 166.791C196.133 166.613 197.856 167.096 199.238 168.135L199.639 168.435L199.301 168.138H199.3C197.998 166.987 197.18 165.388 197.01 163.657C196.84 161.927 197.33 160.2 198.385 158.817L198.571 158.572L198.3 158.877Z" fill="#588995"/>
<path d="M109.397 147.574C111.196 147.574 112.654 146.115 112.654 144.317C112.654 142.518 111.196 141.06 109.397 141.06C107.598 141.06 106.14 142.518 106.14 144.317C106.14 146.115 107.598 147.574 109.397 147.574Z" fill="#ECF8FF"/>
<path d="M112.352 144.316C112.351 142.685 111.028 141.362 109.396 141.362C107.765 141.362 106.442 142.685 106.442 144.316C106.442 145.948 107.765 147.271 109.396 147.271V147.573L109.229 147.569C107.564 147.485 106.228 146.15 106.144 144.484L106.14 144.316C106.14 142.518 107.598 141.06 109.396 141.06L109.564 141.063C111.285 141.151 112.653 142.574 112.653 144.316L112.649 144.484C112.562 146.205 111.139 147.573 109.396 147.573V147.271C111.028 147.271 112.352 145.948 112.352 144.316Z" fill="#588995"/>
<path d="M276.31 222.855C278.109 222.855 279.567 221.397 279.567 219.598C279.567 217.799 278.109 216.341 276.31 216.341C274.511 216.341 273.053 217.799 273.053 219.598C273.053 221.397 274.511 222.855 276.31 222.855Z" fill="#ECF8FF"/>
<path d="M279.265 219.598C279.265 217.966 277.941 216.644 276.31 216.644C274.678 216.644 273.356 217.966 273.355 219.598C273.355 221.229 274.678 222.553 276.31 222.553V222.854L276.143 222.851C274.477 222.766 273.141 221.431 273.057 219.766L273.053 219.598C273.053 217.799 274.511 216.341 276.31 216.341L276.478 216.345C278.198 216.432 279.566 217.855 279.566 219.598L279.562 219.766C279.475 221.486 278.052 222.854 276.31 222.854V222.553C277.941 222.553 279.265 221.229 279.265 219.598Z" fill="#588995"/>
</svg>
