<svg width="411" height="300" viewBox="0 0 411 300" fill="none" xmlns="http://www.w3.org/2000/svg">
<g clip-path="url(#clip0_2530_13280)">
<path d="M137.892 169.015L177.973 114.025C173.687 119.869 173.03 128.42 177.036 138.303C185.258 158.713 210.066 177.238 232.4 179.722C243.982 180.911 252.633 177.769 257.088 171.502L217.018 226.444C212.471 232.643 203.844 235.914 192.356 234.629C169.999 232.238 145.218 213.677 136.971 193.303C132.99 183.385 133.62 174.869 137.892 169.015Z" fill="#ECF8FF"/>
<path d="M178.127 114.137L178.102 114.17C173.888 119.943 173.229 128.407 177.213 138.232L177.608 139.183C181.824 149.001 189.851 158.339 199.54 165.583C209.541 173.061 221.295 178.296 232.422 179.534L232.421 179.534C243.775 180.7 252.25 177.684 256.713 171.696L256.936 171.39L257.243 171.612C257.167 171.72 257.088 171.826 257.008 171.933L217.171 226.557C212.571 232.828 203.865 236.108 192.336 234.818L192.335 234.817C181.116 233.617 169.301 228.363 159.26 220.862C149.218 213.361 140.935 203.601 136.795 193.374L136.795 193.373C132.799 183.417 133.417 174.827 137.739 168.904L177.821 113.914L178.127 114.137ZM138.045 169.127C133.824 174.912 133.182 183.353 137.147 193.232L137.544 194.182C141.771 203.984 149.798 213.321 159.486 220.558C169.486 228.028 181.239 233.25 192.376 234.441L192.377 234.441C203.823 235.721 212.372 232.458 216.866 226.332L254.692 174.466C249.794 178.869 242.097 180.908 232.381 179.911L232.38 179.911C221.172 178.664 209.355 173.395 199.313 165.887C189.585 158.613 181.507 149.226 177.26 139.332L176.861 138.374C173.514 130.118 173.401 122.76 175.956 117.116L138.045 169.127Z" fill="#588995"/>
<path d="M217.001 201.86C225.039 221.74 213.846 235.963 192.09 233.53C170.288 231.16 146.115 213.063 138.123 193.12C130.13 173.176 141.17 158.939 163.079 161.388C184.943 163.898 209.008 181.917 217.001 201.86Z" fill="#ECF8FF"/>
<path d="M138.641 168.272C143.262 162.371 151.495 159.388 162.146 160.341L163.184 160.446L163.187 160.446L164.232 160.577C175.046 162.053 186.266 167.17 195.81 174.328C205.659 181.715 213.801 191.335 217.878 201.505L217.879 201.505C221.98 211.647 221.251 220.562 216.462 226.649C211.68 232.727 203.065 235.709 191.987 234.471L191.987 234.472C180.88 233.265 169.229 228.064 159.359 220.674C149.798 213.515 141.831 204.244 137.637 194.424L137.243 193.472C133.167 183.303 133.867 174.37 138.641 168.272ZM163.078 161.388C141.169 158.94 130.13 173.177 138.123 193.12C146.115 213.063 170.287 231.161 192.089 233.53C213.845 235.963 225.038 221.74 217 201.86C209.007 181.917 184.942 163.899 163.078 161.388Z" fill="#588995"/>
<path d="M187.338 192.16C183.859 201.827 175.273 202.767 168.126 194.281C160.963 185.811 157.991 171.071 161.467 161.403C164.93 151.753 173.543 150.806 180.7 159.302C187.857 167.798 190.811 182.52 187.348 192.17L187.338 192.16Z" fill="#ECF8FF"/>
<path d="M164.235 155.995C165.62 154.536 167.268 153.605 169.099 153.276C172.956 152.584 177.282 154.697 180.97 159.072C188.174 167.625 191.183 182.523 187.681 192.287C187.67 192.319 187.655 192.344 187.636 192.371C185.994 196.863 183.174 199.674 179.693 200.298C175.848 200.985 171.534 198.872 167.853 194.505C160.631 185.967 157.615 171.062 161.133 161.282C161.911 159.114 162.964 157.332 164.235 155.995ZM187.046 191.958C190.422 182.405 187.464 167.883 180.427 159.53C176.908 155.351 172.824 153.327 169.222 153.972C165.972 154.556 163.337 157.237 161.798 161.522C158.355 171.093 161.313 185.686 168.394 194.051C171.905 198.222 175.978 200.247 179.568 199.603C182.816 199.023 185.456 196.336 187.003 192.04C187.016 192.01 187.028 191.983 187.046 191.958Z" fill="#588995"/>
<path d="M180.241 199.794L174.263 201.39C170.516 202.377 166.106 200.567 162.141 195.839C154.984 187.342 152.004 172.628 155.483 162.961C157.008 158.67 159.567 156.103 162.565 155.314L168.527 153.735C165.539 154.534 162.995 157.082 161.443 161.38C157.982 171.032 160.971 185.754 168.101 194.258C172.068 198.987 176.492 200.78 180.241 199.794Z" fill="#588995"/>
<path d="M158.244 157.562C159.469 156.272 160.897 155.392 162.474 154.974L168.435 153.397C168.622 153.347 168.816 153.46 168.866 153.646C168.916 153.836 168.801 154.029 168.616 154.077C165.601 154.883 163.233 157.455 161.772 161.5C158.358 171.026 161.317 185.62 168.37 194.031C172.091 198.465 176.383 200.444 180.149 199.452C180.336 199.402 180.531 199.515 180.58 199.701C180.63 199.891 180.516 200.084 180.33 200.132L174.352 201.728C170.327 202.789 165.777 200.722 161.867 196.063C154.653 187.497 151.638 172.594 155.148 162.84C155.915 160.683 156.969 158.901 158.244 157.558L158.244 157.562ZM165.336 154.947L162.654 155.656C159.664 156.443 157.234 159.083 155.812 163.08C152.378 172.624 155.337 187.218 162.41 195.611C166.136 200.054 170.423 202.038 174.173 201.049L176.916 200.317C173.842 199.874 170.664 197.863 167.829 194.484C160.634 185.901 157.62 170.998 161.11 161.261C162.12 158.462 163.556 156.329 165.336 154.947Z" fill="#588995"/>
<path d="M162.138 195.84C163.008 196.891 163.939 197.773 164.827 198.549L170.805 196.953C169.873 196.2 168.968 195.31 168.098 194.259C167.123 193.109 166.24 191.819 165.432 190.47L159.47 192.049C160.278 193.398 161.162 194.689 162.138 195.84Z" fill="#C4DAE6"/>
<path d="M159.214 191.807C159.258 191.761 159.315 191.724 159.38 191.708L165.34 190.13C165.492 190.09 165.652 190.157 165.732 190.291C166.607 191.748 167.468 192.972 168.365 194.033C169.189 195.031 170.084 195.92 171.025 196.681C171.129 196.763 171.176 196.899 171.149 197.029C171.122 197.156 171.022 197.262 170.896 197.295L164.918 198.891C164.804 198.923 164.684 198.892 164.595 198.815C163.891 198.2 162.845 197.245 161.866 196.069C160.94 194.974 160.056 193.719 159.167 192.229C159.111 192.134 159.101 192.018 159.144 191.915C159.161 191.873 159.183 191.839 159.214 191.807ZM165.265 190.879L160.016 192.268C160.804 193.549 161.589 194.646 162.407 195.612C163.291 196.673 164.24 197.556 164.917 198.158L170.06 196.785C169.274 196.099 168.526 195.326 167.828 194.479C166.953 193.45 166.114 192.267 165.266 190.877L165.265 190.879Z" fill="#588995"/>
<path d="M161.932 182.65L155.972 184.231C156.38 185.557 156.893 186.854 157.441 188.118L163.418 186.52C162.872 185.258 162.366 183.969 161.932 182.65Z" fill="#C4DAE6"/>
<path d="M155.714 183.988C155.758 183.941 155.815 183.905 155.88 183.888L161.839 182.309C162.019 182.263 162.207 182.363 162.265 182.541C162.666 183.757 163.151 185.013 163.742 186.383C163.782 186.477 163.78 186.585 163.736 186.676C163.685 186.77 163.607 186.839 163.51 186.863L157.533 188.461C157.364 188.505 157.185 188.42 157.116 188.261C156.465 186.76 155.996 185.512 155.632 184.337C155.605 184.243 155.614 184.145 155.663 184.062C155.677 184.037 155.693 184.013 155.714 183.991L155.714 183.988ZM161.701 183.076L156.417 184.478C156.731 185.452 157.128 186.493 157.643 187.7L162.93 186.288C162.452 185.158 162.046 184.103 161.699 183.078L161.701 183.076Z" fill="#588995"/>
<path d="M159.731 221.621C149.333 214.016 140.724 204.006 136.475 193.503C132.559 183.748 132.908 174.938 137.456 168.697L177.476 113.795L177.539 113.709L178.408 114.341L178.345 114.427C174.041 120.37 173.749 128.772 177.531 138.101C185.668 158.291 210.305 176.725 232.461 179.191C243.382 180.31 251.866 177.591 256.408 171.525L256.653 171.185L257.526 171.81L257.269 172.161L217.45 226.758C212.617 233.347 203.449 236.408 192.293 235.16C181.305 233.984 169.695 228.909 159.73 221.62L159.731 221.621ZM174.722 119.395L138.325 169.329C134 175.261 133.694 183.703 137.468 193.102C145.659 213.343 170.311 231.732 192.413 234.096C203.177 235.301 211.984 232.394 216.583 226.126L252.921 176.303C247.895 179.733 240.82 181.126 232.347 180.256C209.833 177.748 184.801 159.019 176.537 138.502C173.674 131.44 173.078 124.864 174.722 119.395Z" fill="#588995"/>
<path opacity="0.4" d="M179.902 144.129C178.818 142.211 177.829 140.269 177.036 138.302C173.03 128.419 173.687 119.868 177.973 114.024L137.893 169.014C133.622 174.869 132.989 183.385 136.971 193.302C137.987 195.818 139.262 198.303 140.748 200.735L179.902 144.129Z" fill="#ECF8FF"/>
<path opacity="0.4" d="M178.126 114.136C173.89 119.91 173.221 128.387 177.212 138.231L177.516 138.963C178.248 140.671 179.12 142.361 180.067 144.036L180.125 144.14L180.058 144.237L140.738 201.081L140.586 200.833C139.095 198.394 137.815 195.9 136.794 193.373C132.798 183.418 133.418 174.827 137.739 168.902L177.82 113.913L178.126 114.136ZM138.045 169.126C133.825 174.911 133.181 183.353 137.146 193.231L137.538 194.169C138.442 196.268 139.526 198.344 140.759 200.385L179.678 144.118C178.75 142.469 177.891 140.801 177.168 139.113L176.86 138.373C173.513 130.117 173.4 122.759 175.955 117.115L138.045 169.126Z" fill="#588995"/>
<path d="M140.721 201.717L140.292 201.015C138.759 198.51 137.476 195.984 136.475 193.504C132.559 183.749 132.908 174.939 137.457 168.697L177.477 113.796L177.54 113.71L178.409 114.342L178.346 114.427C174.042 120.371 173.75 128.773 177.532 138.102C178.237 139.854 179.168 141.74 180.368 143.867L180.535 144.159L180.345 144.435L140.721 201.717ZM174.723 119.396L138.327 169.329C134.002 175.261 133.696 183.705 137.47 193.103C138.354 195.295 139.469 197.527 140.781 199.747L179.271 144.101C178.126 142.051 177.23 140.218 176.538 138.502C173.676 131.441 173.078 124.865 174.723 119.396Z" fill="#588995"/>
<path d="M266.33 158.225C266.054 158.79 265.759 159.396 265.445 159.823C264.947 160.662 264.093 161.954 263.481 162.821C263.43 162.892 263.378 162.964 263.325 163.036C263.273 163.108 263.22 163.178 263.167 163.248L263.193 163.212C262.322 164.364 262.314 164.376 263.167 163.248L257.078 171.549C252.53 177.748 243.919 181.031 232.389 179.769C210.055 177.285 185.247 158.759 177.025 138.35C173.061 128.443 173.661 119.904 177.973 114.026L184.35 105.333C185.392 103.96 186.503 102.638 187.657 101.402C188.448 100.611 189.717 99.4592 190.299 98.9536C190.908 98.4134 191.712 97.7976 192.339 97.3252C193.308 96.6097 194.324 95.9297 195.362 95.3205C195.801 95.0405 196.362 94.7382 196.881 94.4615C197.143 94.3242 197.4 94.184 197.618 94.0699C198.753 93.4773 199.918 92.9603 201.108 92.5163C202.364 92.0124 203.615 91.6122 204.908 91.2448C205.421 91.0721 206.046 90.9276 206.653 90.7692C206.949 90.7121 207.241 90.6522 207.513 90.5771C208.957 90.265 210.422 90.0222 211.876 89.8823C213.74 89.6581 215.579 89.5786 217.44 89.5707C218.987 89.6077 221.115 89.686 222.645 89.8742C223.503 89.9548 224.334 90.0701 225.489 90.2577L225.497 90.2642C226.625 90.4865 228.17 90.7404 229.3 91.0193C230.894 91.4734 233.02 92.0978 234.593 92.6454C235.225 92.8341 235.956 93.15 236.649 93.4378C236.99 93.578 237.323 93.7118 237.628 93.8255C238.908 94.3229 241.535 95.6428 242.623 96.2739C242.75 96.3119 242.859 96.3912 242.972 96.4741C243.658 96.8126 244.462 97.2903 244.977 97.6124C245.15 97.7385 245.381 97.8531 245.599 98.0124C246.142 98.3548 246.758 98.7504 247.166 99.0489L249.276 100.592C250.546 101.521 252.123 102.894 253.299 103.918C253.801 104.338 254.452 104.979 255.026 105.509C255.109 105.569 255.164 105.665 255.242 105.722C255.837 106.321 256.604 107.101 257.157 107.724C258.218 108.938 259.602 110.607 260.594 111.881C261.156 112.62 261.815 113.485 262.36 114.376C262.931 115.23 263.773 116.613 264.175 117.346C264.578 118.078 265.127 119.027 265.489 119.784C266.088 120.825 266.754 122.351 267.244 123.476L267.251 123.536C267.815 125.098 268.589 127.142 269.007 128.761C269.254 129.544 269.489 130.538 269.689 131.45C269.836 132.214 270.006 133.16 270.13 134.017C270.164 134.205 270.194 134.391 270.218 134.573C270.424 136.038 270.557 137.503 270.613 138.968C270.62 140.561 270.58 142.665 270.454 144.216C270.125 147.644 269.366 150.975 268.118 154.222C267.721 155.355 267.23 156.474 266.67 157.542C266.566 157.74 266.447 157.982 266.329 158.223L266.33 158.225Z" fill="#ECF8FF"/>
<path d="M207.473 90.3922C208.923 90.0789 210.395 89.834 211.858 89.6933L211.857 89.6944C213.495 89.4976 215.112 89.4117 216.74 89.388L217.439 89.3808L217.444 89.381L218.697 89.4178C220.023 89.4643 221.513 89.5439 222.668 89.686L222.667 89.6861C223.314 89.7469 223.945 89.8268 224.707 89.9423L225.519 90.0708L225.564 90.0777L225.575 90.0859C226.548 90.2768 227.843 90.4947 228.902 90.7312L229.345 90.8357L229.352 90.8366L230.631 91.2062C231.974 91.5986 233.465 92.0523 234.647 92.4636L235.146 92.6295C235.66 92.8144 236.206 93.0486 236.722 93.2627L236.721 93.2629C236.891 93.3328 237.059 93.4003 237.222 93.4651L237.694 93.6481L237.696 93.6488L238.239 93.8723C239.617 94.468 241.741 95.5441 242.704 96.1017C242.851 96.1513 242.973 96.2403 243.073 96.3135C243.59 96.5693 244.168 96.8993 244.641 97.184L245.078 97.4515L245.09 97.4586L244.977 97.6123L245.09 97.4595C245.168 97.5165 245.26 97.5719 245.369 97.6377C245.473 97.7 245.587 97.7706 245.7 97.8525L246.537 98.3883C246.812 98.5687 247.071 98.7448 247.278 98.8963L249.388 100.439C250.665 101.373 252.247 102.75 253.421 103.773L253.422 103.773C253.927 104.197 254.588 104.847 255.154 105.37L255.153 105.37C255.206 105.412 255.249 105.458 255.278 105.491L255.353 105.568L255.366 105.577L255.377 105.588C255.822 106.037 256.368 106.59 256.848 107.103L257.299 107.599L257.3 107.6L258.147 108.583C258.737 109.279 259.363 110.035 259.936 110.746L260.744 111.764L260.746 111.766L261.182 112.343C261.63 112.94 262.106 113.597 262.518 114.27L262.988 114.995C263.486 115.782 264.038 116.701 264.341 117.254L265.013 118.465C265.245 118.886 265.472 119.311 265.653 119.689L265.883 120.104C266.424 121.119 266.99 122.419 267.418 123.401L267.43 123.427L267.432 123.456L267.436 123.493C267.996 125.043 268.769 127.082 269.188 128.703L269.373 129.332C269.494 129.771 269.61 130.244 269.718 130.713L269.875 131.41L269.876 131.414L270.105 132.667C270.181 133.107 270.256 133.559 270.318 133.989C270.351 134.177 270.381 134.363 270.405 134.546L270.406 134.547C270.613 136.017 270.746 137.49 270.803 138.961L270.803 138.967C270.809 140.562 270.77 142.673 270.643 144.232L270.643 144.234C270.313 147.676 269.55 151.022 268.296 154.284L268.297 154.285C267.897 155.426 267.401 156.554 266.837 157.629L266.838 157.629C266.748 157.803 266.645 158.01 266.54 158.222L266.542 158.224L266.501 158.309C266.227 158.869 265.924 159.492 265.599 159.935C265.096 160.781 264.247 162.066 263.636 162.93L263.635 162.93C263.584 163.003 263.531 163.076 263.478 163.148C263.425 163.221 263.372 163.292 263.319 163.363L257.231 171.661C252.63 177.933 243.94 181.224 232.369 179.958L232.369 179.957C221.16 178.711 209.344 173.442 199.302 165.933C189.574 158.66 181.496 149.273 177.249 139.38L176.85 138.421C172.87 128.476 173.457 119.861 177.821 113.913L184.198 105.221L184.223 105.185L184.224 105.186C185.263 103.82 186.369 102.504 187.519 101.272L187.524 101.267L188.191 100.62C188.912 99.936 189.737 99.1911 190.175 98.8105C190.79 98.2649 191.599 97.6455 192.226 97.1736L192.227 97.1725L192.966 96.6404C193.713 96.1161 194.483 95.6164 195.266 95.1567C195.712 94.8732 196.276 94.5695 196.792 94.2946L196.793 94.2935L197.531 93.9019L197.96 93.6824C198.966 93.1772 199.994 92.7298 201.041 92.339C201.988 91.9593 202.931 91.6386 203.89 91.3467L204.856 91.0621C205.376 90.8879 206.01 90.7409 206.606 90.5854L206.617 90.5827L207.052 90.4948C207.193 90.4638 207.331 90.4313 207.463 90.3948L207.473 90.3912L207.473 90.3922ZM211.895 90.071C210.449 90.2101 208.991 90.4515 207.553 90.7623L207.552 90.7615C207.277 90.837 206.984 90.8972 206.692 90.9535C206.08 91.113 205.471 91.2551 204.969 91.4241L204.96 91.4275C203.67 91.7938 202.426 92.1917 201.179 92.6922L201.174 92.6939C200.139 93.0801 199.123 93.5218 198.13 94.0207L197.706 94.2384C197.484 94.3546 197.238 94.4865 196.969 94.6279L196.97 94.6287C196.45 94.9058 195.896 95.2045 195.464 95.4799L195.458 95.4838C194.427 96.0889 193.416 96.7639 192.452 97.4756L192.453 97.4764C191.826 97.949 191.028 98.5605 190.426 99.0949L190.424 99.0971C189.844 99.6009 188.579 100.749 187.792 101.535C186.644 102.766 185.539 104.081 184.502 105.447L178.126 114.138C173.865 119.946 173.252 128.411 177.201 138.279L177.597 139.231C181.812 149.049 189.84 158.385 199.529 165.63C209.529 173.107 221.284 178.344 232.41 179.581L233.479 179.685C244.427 180.63 252.571 177.372 256.925 171.437L262.379 164.002C262.377 163.991 262.374 163.984 262.375 163.981C262.377 163.978 262.379 163.975 262.379 163.974L262.381 163.973L262.391 163.959C262.397 163.951 262.407 163.938 262.42 163.921L262.538 163.766L263.043 163.098C263.086 163.04 263.129 162.983 263.173 162.924L263.326 162.71C263.937 161.847 264.788 160.56 265.283 159.726L265.292 159.711C265.579 159.321 265.852 158.77 266.117 158.227L266.117 158.225L266.159 158.139C266.277 157.899 266.398 157.655 266.502 157.454L266.502 157.453L266.707 157.054C267.178 156.116 267.594 155.142 267.939 154.159L267.941 154.154L268.168 153.548C269.276 150.51 269.958 147.396 270.265 144.198C270.39 142.656 270.43 140.559 270.424 138.969C270.368 137.513 270.236 136.056 270.031 134.6L270.031 134.598L269.944 134.05L269.842 133.392C269.736 132.733 269.614 132.062 269.504 131.491L269.349 130.797C269.187 130.099 269.01 129.4 268.826 128.819L268.823 128.808C268.409 127.2 267.639 125.169 267.072 123.6L267.065 123.579L267.063 123.556L267.059 123.525C266.568 122.4 265.913 120.9 265.325 119.878L265.321 119.872L265.318 119.865C265.139 119.491 264.914 119.068 264.682 118.647L264.009 117.437C263.61 116.71 262.771 115.332 262.203 114.481L262.198 114.475L262.198 114.474C261.659 113.594 261.007 112.737 260.445 111.997L259.64 110.983C258.784 109.922 257.809 108.757 257.015 107.849L257.014 107.848C256.466 107.229 255.702 106.454 255.108 105.855L255.108 105.854C255.06 105.815 255.02 105.772 254.994 105.742C254.957 105.701 254.936 105.678 254.914 105.662L254.905 105.655L254.898 105.648C254.316 105.111 253.675 104.48 253.178 104.063L253.176 104.061C251.998 103.035 250.426 101.668 249.165 100.745L247.055 99.2016C246.653 98.9075 246.042 98.515 245.498 98.1722L245.487 98.1661L245.487 98.165C245.386 98.0909 245.28 98.0268 245.174 97.9624C245.074 97.9022 244.969 97.8391 244.877 97.773L244.445 97.5087C243.973 97.2243 243.397 96.8953 242.888 96.6444L242.874 96.6367L242.861 96.6269C242.742 96.5403 242.66 96.4826 242.569 96.4555L242.548 96.449L242.528 96.4382C241.447 95.8105 238.828 94.4949 237.559 94.002L237.559 94.001C237.252 93.8865 236.918 93.7531 236.577 93.6131L236.576 93.6133C235.878 93.3232 235.159 93.0123 234.539 92.8271L234.53 92.8245C232.966 92.2796 230.848 91.6574 229.254 91.2035L228.815 91.1003C227.754 90.8632 226.457 90.6466 225.461 90.4503L225.419 90.4419L225.413 90.437C224.284 90.2542 223.468 90.1417 222.628 90.0628L222.622 90.0627C221.104 89.876 218.988 89.7971 217.441 89.76L216.746 89.7665C215.127 89.79 213.522 89.8752 211.9 90.0703L211.895 90.071Z" fill="#588995"/>
<path d="M199.819 166.722C189.386 159.092 180.762 149.057 176.529 138.549C172.611 128.762 172.969 119.94 177.541 113.708L183.919 105.015L184.046 105.1L183.924 105.008C184.991 103.606 186.115 102.269 187.263 101.034C188.057 100.242 189.33 99.0837 189.948 98.5481C190.588 97.983 191.436 97.3342 192.018 96.895C193.042 96.1421 194.072 95.4564 195.09 94.859C195.525 94.5797 196.099 94.2693 196.633 93.9885L197.378 93.5932C198.503 93.0028 199.699 92.4706 200.924 92.0141C202.052 91.5623 203.275 91.1508 204.762 90.7281C205.125 90.6048 205.575 90.4925 206.03 90.3743L206.518 90.2517C206.837 90.1884 207.112 90.1329 207.369 90.0591C208.953 89.7177 210.442 89.4798 211.827 89.3498C213.54 89.1438 215.327 89.0434 217.439 89.0359C219.724 89.0883 221.495 89.1928 222.709 89.3416C223.524 89.4167 224.335 89.5255 225.576 89.7267L225.721 89.7603C226.039 89.8221 226.39 89.8867 226.751 89.954C227.658 90.1204 228.644 90.3035 229.432 90.4989C231.73 91.1527 233.521 91.7023 234.771 92.1371C235.335 92.3058 235.992 92.58 236.627 92.8461L236.858 92.9422C237.191 93.0795 237.517 93.2126 237.818 93.3215C239.184 93.8537 241.837 95.1958 242.893 95.81C242.992 95.8218 243.159 95.9436 243.291 96.0402C244.054 96.4087 244.995 96.99 245.264 97.1598C245.364 97.2309 245.446 97.2776 245.53 97.3284C245.656 97.405 245.788 97.4842 245.917 97.5795C246.441 97.909 247.068 98.3109 247.484 98.616L249.596 100.16C250.883 101.101 252.483 102.494 253.65 103.511C253.992 103.799 254.412 104.195 254.826 104.586L255.392 105.116C255.437 105.144 255.497 105.215 255.54 105.263C256.226 105.949 257.002 106.739 257.56 107.369C258.641 108.603 260.031 110.283 261.021 111.551C261.626 112.349 262.271 113.198 262.819 114.096C263.377 114.929 264.236 116.336 264.648 117.089L264.975 117.676C265.32 118.296 265.701 118.979 265.976 119.554C266.581 120.6 267.278 122.204 267.737 123.264L267.996 124.014C268.543 125.509 269.161 127.204 269.527 128.628C269.731 129.27 269.96 130.166 270.216 131.339C270.367 132.123 270.538 133.076 270.663 133.944C270.694 134.12 270.725 134.313 270.75 134.502C270.962 135.99 271.095 137.488 271.148 138.949C271.152 139.703 271.154 142.267 270.989 144.261C270.649 147.798 269.852 151.213 268.619 154.416C268.224 155.538 267.728 156.681 267.145 157.793C267.047 157.986 266.926 158.221 266.813 158.459C266.536 159.026 266.223 159.671 265.878 160.141C265.37 160.999 264.502 162.306 263.922 163.132L257.513 171.869C252.612 178.549 243.668 181.545 232.33 180.305C221.346 179.083 209.764 173.999 199.818 166.725L199.819 166.722ZM184.783 105.654L178.409 114.342C174.065 120.264 173.75 128.72 177.524 138.149C185.658 158.342 210.296 176.769 232.45 179.238C243.389 180.434 251.982 177.591 256.646 171.231L262.42 163.349C262.525 163.211 262.636 163.06 262.764 162.893L263.05 162.503C263.6 161.724 264.467 160.417 264.984 159.548C265.299 159.112 265.593 158.518 265.849 157.992C265.968 157.746 266.09 157.498 266.194 157.298C266.754 156.227 267.231 155.135 267.615 154.045C268.818 150.919 269.592 147.599 269.922 144.165C270.03 142.856 270.089 140.911 270.08 138.972C270.025 137.56 269.893 136.1 269.69 134.649C269.664 134.473 269.638 134.296 269.604 134.112C269.479 133.245 269.313 132.309 269.167 131.552C268.918 130.423 268.7 129.559 268.496 128.922C268.135 127.521 267.525 125.852 266.987 124.379L266.719 123.584C266.304 122.652 265.62 121.082 265.027 120.052C264.74 119.458 264.372 118.798 264.037 118.198L263.708 117.602C263.306 116.872 262.471 115.503 261.917 114.671C261.385 113.803 260.755 112.975 260.203 112.247C259.196 110.955 257.819 109.293 256.752 108.075C256.212 107.461 255.45 106.69 254.863 106.097C254.844 106.094 254.785 106.027 254.738 105.973L254.09 105.363C253.691 104.987 253.288 104.605 252.955 104.327C251.792 103.312 250.213 101.937 248.963 101.022L246.851 99.4779C246.451 99.1851 245.847 98.7998 245.313 98.4605C245.182 98.3671 245.077 98.3049 244.977 98.2451C244.863 98.1764 244.755 98.1108 244.663 98.043C244.436 97.9033 243.531 97.3446 242.734 96.9506C242.592 96.8555 242.511 96.7955 242.472 96.7842C241.321 96.1348 238.707 94.8155 237.437 94.3226C237.132 94.2072 236.798 94.0737 236.448 93.9303L236.212 93.8332C235.603 93.5779 234.974 93.3144 234.439 93.1543C233.184 92.7184 231.415 92.1741 229.154 91.5296C228.405 91.3456 227.441 91.1678 226.555 91.0035C226.143 90.9273 225.75 90.8562 225.395 90.7843L225.278 90.7614C224.132 90.5767 223.372 90.4759 222.594 90.4039C221.395 90.2562 219.664 90.1568 217.428 90.103C215.372 90.1114 213.622 90.2069 211.941 90.4106C210.584 90.5391 209.137 90.7712 207.626 91.0971C207.371 91.1679 207.065 91.2308 206.756 91.2926L206.293 91.4104C205.866 91.5209 205.442 91.6283 205.075 91.7495C203.604 92.1688 202.415 92.5681 201.308 93.0098C200.114 93.457 198.96 93.9698 197.869 94.5426L197.133 94.9331C196.623 95.2022 196.079 95.4958 195.649 95.7692C194.649 96.3603 193.646 97.0252 192.658 97.7542C192.093 98.1759 191.27 98.8076 190.655 99.3516C190.045 99.8824 188.799 101.015 188.036 101.778C186.924 102.969 185.825 104.278 184.782 105.652L184.783 105.654Z" fill="#588995"/>
<path opacity="0.4" d="M256.911 107.46C256.387 106.887 255.761 106.241 255.243 105.722C255.164 105.664 255.11 105.569 255.027 105.508C254.453 104.978 253.802 104.338 253.3 103.919C252.126 102.893 250.548 101.521 249.278 100.592L247.168 99.049C246.759 98.7497 246.142 98.355 245.601 98.0125C245.383 97.8531 245.151 97.7396 244.978 97.6134C244.463 97.2904 243.66 96.8119 242.974 96.4734C242.86 96.3904 242.752 96.3111 242.624 96.2741C241.537 95.642 238.908 94.3241 237.628 93.8267C237.324 93.712 236.992 93.5781 236.65 93.4379C235.957 93.1503 235.227 92.8351 234.593 92.6474C233.02 92.099 230.894 91.4746 229.3 91.0195C228.17 90.7408 226.625 90.4877 225.497 90.2645L225.489 90.258C224.333 90.0706 223.503 89.9551 222.644 89.8756C221.114 89.6865 218.986 89.609 217.438 89.5722C215.577 89.5801 213.739 89.6578 211.875 89.8827C210.42 90.0237 208.956 90.2655 207.512 90.5775C207.239 90.6537 206.949 90.7134 206.652 90.7697C206.044 90.9291 205.42 91.0736 204.907 91.2462C203.614 91.6127 202.363 92.0137 201.107 92.5168C199.916 92.9609 198.752 93.4778 197.618 94.0704C197.399 94.1854 197.141 94.3257 196.88 94.462C196.36 94.7388 195.8 95.0409 195.359 95.3221C194.322 95.9321 193.306 96.6112 192.337 97.3268C191.709 97.7984 190.906 98.4132 190.298 98.9543C189.716 99.4589 188.447 100.611 187.656 101.401C186.502 102.639 185.391 103.96 184.349 105.334L177.972 114.026C173.661 119.904 173.06 128.443 177.024 138.351C177.814 140.311 178.8 142.245 179.88 144.161L182.085 140.973C202.66 108.012 233.712 97.1386 256.909 107.462L256.911 107.46Z" fill="#ECF8FF"/>
<path opacity="0.4" d="M208.563 90.1712C209.657 89.964 210.76 89.8004 211.857 89.6941L211.857 89.6952C213.261 89.5259 214.649 89.4385 216.042 89.4027L217.438 89.3828L217.443 89.383L218.695 89.4188C220.019 89.465 221.506 89.5447 222.661 89.6869C223.309 89.747 223.942 89.8275 224.706 89.9431L225.519 90.0705L225.564 90.0784L225.575 90.0866C226.548 90.2781 227.842 90.4957 228.902 90.7319L229.346 90.8353L229.353 90.8372L230.631 91.2069C231.974 91.5997 233.464 92.0535 234.646 92.4654C235.292 92.6565 236.034 92.9773 236.722 93.2625L237.695 93.6496L237.696 93.6505L238.239 93.874C239.619 94.4701 241.749 95.5467 242.71 96.1045C242.855 96.1539 242.976 96.2407 243.075 96.3129C243.592 96.5688 244.17 96.899 244.643 97.1844L245.079 97.453L245.091 97.4601L245.371 97.6383C245.474 97.7002 245.589 97.77 245.702 97.8519L246.538 98.3888C246.813 98.5691 247.073 98.7439 247.28 98.8957L249.39 100.439C250.667 101.373 252.249 102.75 253.422 103.773C253.927 104.197 254.59 104.847 255.156 105.369C255.209 105.411 255.251 105.459 255.28 105.491L255.355 105.569L255.367 105.578L255.378 105.588C255.896 106.108 256.525 106.757 257.051 107.331L257.156 107.447L256.972 107.697L256.832 107.635C233.75 97.3633 202.79 108.163 182.246 141.073L182.242 141.081L179.864 144.517L179.715 144.253C178.768 142.574 177.892 140.878 177.155 139.16L176.848 138.422C172.869 128.476 173.457 119.861 177.82 113.914L184.199 105.219L184.594 104.705C185.523 103.51 186.503 102.359 187.518 101.272L187.523 101.267L188.191 100.62C188.911 99.9361 189.736 99.1914 190.174 98.8115C190.788 98.2649 191.596 97.6459 192.223 97.1748L192.225 97.1745L192.964 96.6424C193.462 96.293 193.97 95.9548 194.486 95.6317L195.264 95.1588C195.711 94.874 196.275 94.5696 196.792 94.2943L197.53 93.9027L197.959 93.6822C198.965 93.1771 199.992 92.7298 201.041 92.3389C202.301 91.8343 203.554 91.4328 204.847 91.0663L205.257 90.9397C205.684 90.8168 206.156 90.7041 206.605 90.5863L206.617 90.5834L207.051 90.4956C207.192 90.4648 207.33 90.4316 207.462 90.3947L207.472 90.3921L208.563 90.1712ZM211.894 90.0719C210.447 90.212 208.99 90.4514 207.553 90.762C207.277 90.8385 206.986 90.8985 206.694 90.9539C206.08 91.1148 205.471 91.2568 204.968 91.4261L204.958 91.4285C203.67 91.7938 202.426 92.1933 201.178 92.6931L201.174 92.6948C199.99 93.1362 198.833 93.6484 197.705 94.2373L197.706 94.2381C197.495 94.3496 197.226 94.4942 196.968 94.6288L196.969 94.6296C196.448 94.9068 195.895 95.2055 195.462 95.482L195.456 95.4858C194.425 96.092 193.415 96.7675 192.45 97.4797L192.449 97.4789C191.821 97.9504 191.025 98.5611 190.424 99.0959L190.422 99.0972C189.843 99.5999 188.578 100.749 187.791 101.535C186.642 102.767 185.538 104.081 184.501 105.448L178.125 114.138C173.865 119.946 173.251 128.411 177.2 138.28L177.504 139.01C178.195 140.621 179.012 142.217 179.897 143.801L181.924 140.873C202.285 108.254 232.935 97.1785 256.151 106.928C255.795 106.554 255.432 106.18 255.109 105.856C255.061 105.816 255.021 105.771 254.994 105.741C254.959 105.7 254.937 105.677 254.916 105.661L254.907 105.655L254.899 105.647C254.317 105.111 253.676 104.481 253.179 104.065L253.176 104.061C252 103.035 250.428 101.668 249.167 100.745L247.057 99.202C246.654 98.9072 246.042 98.5159 245.5 98.1727L245.489 98.1655C245.388 98.0918 245.282 98.0268 245.176 97.9628C245.076 97.9027 244.97 97.8402 244.878 97.7737L244.446 97.5083C243.974 97.2234 243.398 96.8936 242.89 96.6429L242.875 96.6363L242.863 96.6264C242.744 96.5395 242.662 96.482 242.571 96.4559L242.549 96.4496L242.529 96.4378C241.449 95.8093 238.828 94.4967 237.559 94.0037C237.254 93.8883 236.92 93.7535 236.579 93.6135L236.578 93.6127C235.879 93.3228 235.161 93.0128 234.539 92.8288L234.531 92.8261C232.964 92.2798 230.843 91.6571 229.249 91.202C228.125 90.9252 226.597 90.6749 225.461 90.45L225.42 90.4426L225.414 90.4376C224.284 90.2547 223.469 90.1426 222.627 90.0646L222.621 90.0636C221.103 89.876 218.987 89.7989 217.439 89.762L216.051 89.7817C214.666 89.8174 213.289 89.9033 211.899 90.0711L211.894 90.0719Z" fill="#588995"/>
<path d="M179.832 145.169L179.414 144.424C178.191 142.252 177.246 140.332 176.528 138.55C172.611 128.762 172.97 119.938 177.541 113.708L183.918 105.014C184.99 103.607 186.114 102.269 187.263 101.032C188.06 100.242 189.329 99.0838 189.947 98.5474C190.591 97.9764 191.435 97.3326 192.015 96.8963C193.039 96.1434 194.069 95.4578 195.088 94.8593C195.523 94.5801 196.095 94.2707 196.632 93.9878L197.37 93.5961C198.494 93.0069 199.689 92.4747 200.922 92.0153C202.05 91.5635 203.273 91.1519 204.76 90.7293C205.123 90.606 205.573 90.4937 206.028 90.3754L206.516 90.2529C206.835 90.1896 207.11 90.1341 207.367 90.0603C208.946 89.7178 210.435 89.4818 211.826 89.349C213.525 89.1443 215.312 89.0438 217.438 89.0361C219.723 89.0885 221.494 89.193 222.708 89.3418C223.624 89.4257 224.519 89.5573 225.575 89.7269L225.719 89.7605C226.038 89.8223 226.389 89.8869 226.75 89.9542C227.657 90.1206 228.643 90.3037 229.431 90.4991C231.732 91.1541 233.522 91.7039 234.77 92.1391C235.338 92.3081 235.993 92.5824 236.63 92.8474L236.858 92.9431C237.194 93.0807 237.521 93.2127 237.822 93.3279C239.103 93.8235 241.723 95.1287 242.894 95.8099C242.992 95.8235 243.158 95.9447 243.291 96.042C244.013 96.3897 244.915 96.9422 245.264 97.1616C245.364 97.2327 245.446 97.2793 245.53 97.3301C245.656 97.4068 245.788 97.486 245.917 97.5813C246.441 97.9108 247.068 98.3126 247.484 98.6177L249.596 100.162C250.883 101.103 252.483 102.496 253.649 103.513C253.988 103.795 254.394 104.179 254.804 104.565L255.391 105.115C255.41 105.129 255.496 105.213 255.546 105.269C256.147 105.871 256.778 106.521 257.305 107.099L259.036 108.993L256.691 107.948C232.104 97.0071 201.613 110.705 182.541 141.255L179.833 145.17L179.832 145.169ZM225.277 90.7641C224.108 90.5771 223.347 90.4762 222.593 90.4067C221.395 90.259 219.663 90.1596 217.427 90.1057C215.361 90.1158 213.611 90.2122 211.941 90.4134C210.582 90.5438 209.133 90.7736 207.626 91.0998C207.371 91.1706 207.065 91.2336 206.755 91.2954L206.292 91.4131C205.865 91.5237 205.441 91.6311 205.075 91.7522C203.604 92.1715 202.415 92.5708 201.307 93.0126C200.107 93.4634 198.952 93.9762 197.868 94.5453L197.132 94.9359C196.624 95.2038 196.078 95.4986 195.648 95.7719C194.646 96.3642 193.644 97.0289 192.655 97.7581C192.096 98.1789 191.273 98.8046 190.654 99.3543C190.045 99.8833 188.798 101.016 188.035 101.779C186.92 102.974 185.821 104.285 184.779 105.658L178.408 114.343C174.063 120.265 173.749 128.721 177.522 138.151C178.139 139.681 178.93 141.322 179.93 143.148L181.642 140.667C200.386 110.64 230.107 96.6876 254.756 105.995C254.749 105.987 254.739 105.976 254.732 105.969L254.063 105.341C253.675 104.973 253.281 104.602 252.953 104.329C251.79 103.314 250.211 101.939 248.961 101.024L246.849 99.4799C246.449 99.1872 245.846 98.8018 245.311 98.4625C245.181 98.3692 245.075 98.3069 244.975 98.2471C244.861 98.1784 244.754 98.1129 244.661 98.0451C244.357 97.8579 243.492 97.3262 242.735 96.9547C242.59 96.8575 242.509 96.7976 242.47 96.7862C241.332 96.1427 238.724 94.8268 237.434 94.3266C237.127 94.2081 236.791 94.0756 236.446 93.9333L236.214 93.8372C235.605 93.5819 234.973 93.3181 234.44 93.1593C233.186 92.7217 231.416 92.1792 229.152 91.5333C228.404 91.3493 227.44 91.1716 226.553 91.0073C226.141 90.9311 225.748 90.8599 225.394 90.7881L225.276 90.7651L225.277 90.7641Z" fill="#588995"/>
<path d="M202.31 85.6724L217.416 65.0807C213.385 70.5753 212.832 78.5378 216.485 87.9782C224.253 107.12 247.551 124.539 268.528 126.875C279.367 128.032 287.477 124.989 291.74 119.133L276.635 139.723C272.313 145.614 264.261 148.624 253.423 147.466C232.304 145.102 209.148 127.711 201.38 108.569C197.655 99.227 198.301 91.182 202.31 85.6724Z" fill="#ECF8FF"/>
<path d="M237.647 114.799C227.814 107.611 219.69 98.1596 215.705 88.2684C211.979 79.0646 212.342 70.68 216.721 64.6531C217.44 63.6721 218.476 62.5472 219.03 61.9648C219.792 61.1887 220.618 60.4637 221.431 59.8474C223.562 58.2294 225.888 56.9759 228.337 56.1199C229.516 55.6846 230.75 55.323 231.997 55.056C233.337 54.7628 235.184 54.4897 236.601 54.3784C237.935 54.2728 239.282 54.2376 240.604 54.2797C241.712 54.3094 242.995 54.3559 244.244 54.5367L244.867 54.6047C245.644 54.6926 246.527 54.792 247.283 54.9662C247.647 55.0523 248.098 55.1416 248.57 55.2354C249.298 55.3746 250.079 55.5307 250.693 55.7014C252.333 56.1294 254.658 56.8357 256.607 57.498C257.445 57.7807 258.487 58.2128 259.373 58.5782L259.814 58.7633C262.351 59.8439 265.249 61.3507 265.781 61.659C266.292 61.9548 267.791 62.8262 268.624 63.3543C268.93 63.5515 269.28 63.7551 269.632 63.9646C270.246 64.3238 270.874 64.6957 271.378 65.065L274.015 66.9931C275.184 67.8483 276.565 69.0236 277.783 70.058L279.083 71.155L279.091 71.1608C279.611 71.5415 280.171 72.1223 280.71 72.6818C280.962 72.9441 281.208 73.1996 281.435 73.4134C282.217 74.159 284.318 76.326 285.851 78.1861L286.183 78.5942C286.741 79.2756 287.431 80.1219 287.889 80.8572C289.002 82.3882 290.376 84.5226 291.204 85.8689C291.781 86.8102 292.422 88.0508 292.753 88.7072C292.909 89.0673 293.083 89.4447 293.264 89.8377C293.584 90.5402 293.932 91.2961 294.182 91.9203L294.131 91.9404C294.28 92.3436 294.435 92.7457 294.59 93.1498C294.762 93.5947 294.931 94.0358 295.064 94.4127C295.414 95.6301 295.768 97.0662 296.09 98.3639L296.311 99.2581C296.765 101.598 296.932 103.927 296.811 106.214C296.746 107.4 296.605 108.682 296.391 110.022C296.175 111.078 295.929 112.078 295.645 113.013C295.358 113.887 294.994 114.786 294.557 115.701C294.362 115.991 294.227 116.282 294.097 116.566C293.987 116.813 293.878 117.054 293.765 117.247C293.461 117.745 292.77 118.873 292.213 119.634C287.62 125.894 278.921 128.805 268.349 127.623C257.974 126.466 247.03 121.662 237.645 114.799L237.647 114.799ZM270.498 66.2646C270.029 65.9214 269.444 65.5804 268.876 65.2471C268.502 65.028 268.141 64.8148 267.822 64.6108C267.008 64.0903 265.531 63.2355 265.033 62.9464C264.578 62.6823 261.711 61.1897 259.239 60.135L258.801 59.9528C257.943 59.5981 256.934 59.1792 256.125 58.905C254.206 58.2521 251.921 57.5562 250.301 57.1348C249.711 56.9708 248.969 56.8278 248.28 56.6931C247.786 56.5966 247.318 56.5055 246.94 56.4147C246.272 56.2593 245.438 56.1662 244.704 56.0857L244.04 56.0084C242.867 55.8376 241.63 55.7946 240.558 55.7645C239.289 55.7247 237.996 55.7584 236.714 55.8594C235.366 55.969 233.595 56.2267 232.313 56.5077C231.134 56.7622 229.966 57.1007 228.842 57.5188C226.524 58.3273 224.339 59.5101 222.329 61.03C221.576 61.6056 220.803 62.2831 220.099 62.9961C219.583 63.5438 218.596 64.6175 217.926 65.5323C213.86 71.1241 213.558 79.0007 217.086 87.712C224.692 106.589 247.765 123.833 268.52 126.146C278.543 127.265 286.741 124.572 291.009 118.752C291.541 118.028 292.204 116.951 292.483 116.489C292.565 116.345 292.653 116.151 292.744 115.954C292.901 115.6 293.067 115.235 293.284 114.94C293.625 114.205 293.963 113.366 294.226 112.567C294.489 111.691 294.728 110.743 294.927 109.759C295.126 108.496 295.262 107.269 295.324 106.138C295.435 103.97 295.28 101.764 294.861 99.5816L294.644 98.7226C294.328 97.4405 293.975 96.0209 293.65 94.8669C293.531 94.5455 293.366 94.1152 293.2 93.6858C293.042 93.27 292.883 92.8562 292.753 92.5008C292.543 92.0416 292.147 91.6048 291.599 91.279C291.427 91.1528 291.244 91.0587 291.062 90.9874C293.683 98.2545 293.183 104.788 289.616 109.486C285.732 114.599 278.766 116.876 270.003 115.901C252.48 113.951 232.974 99.3666 226.501 83.3866C223.373 75.5891 223.724 68.5633 227.493 63.6061C231.372 58.5079 238.341 56.2274 247.118 57.1826C264.516 59.1306 283.821 73.4982 290.41 89.3117C290.786 89.3489 291.151 89.4244 291.491 89.5343C291.461 89.4681 291.43 89.4031 291.404 89.3416C291.1 88.7406 290.482 87.5417 289.937 86.647C289.118 85.3212 287.769 83.2275 286.656 81.6868C286.217 80.9904 285.558 80.184 285.03 79.5364L284.698 79.1282C283.206 77.3195 281.167 75.2154 280.406 74.491C280.17 74.2638 279.906 73.9928 279.635 73.7141C279.137 73.1962 278.623 72.6609 278.165 72.3264L276.821 71.1926C275.622 70.1716 274.259 69.0137 273.137 68.1923L270.501 66.2642L270.498 66.2646ZM271.567 68.9466C264.043 63.4443 255.274 59.5927 246.952 58.6614C238.72 57.7652 232.227 59.8386 228.679 64.5031C225.24 69.0279 224.955 75.5359 227.883 82.8292C234.163 98.3507 253.129 112.524 270.17 114.425C278.391 115.339 284.876 113.267 288.428 108.588C291.835 104.099 292.141 97.684 289.286 90.5053L289.205 90.3048L289.12 90.0995C285.9 82.214 279.409 74.6834 271.565 68.9468L271.567 68.9466Z" fill="#588995"/>
<path d="M289.869 90.0047C296.254 105.778 287.353 117.066 270.058 115.141C252.727 113.266 233.514 98.911 227.165 83.0874C220.816 67.2639 229.596 55.9639 247.012 57.9019C264.393 59.8891 283.519 74.1813 289.869 90.0047Z" fill="#C4DAE6"/>
<path d="M222.672 135.375C212.84 128.185 204.701 118.738 200.687 108.846C196.999 99.5915 197.362 91.2069 201.707 85.2333L216.813 64.6406L218.018 65.5217C214.04 70.9444 213.742 78.8231 217.179 87.7073C224.844 106.593 247.917 123.83 268.61 126.137C278.795 127.223 286.764 124.612 291.071 118.782L291.137 118.693L292.343 119.572L292.273 119.667L277.237 140.164C272.588 146.501 264.098 149.356 253.341 148.205C242.993 147.046 232.062 142.241 222.672 135.375ZM202.914 86.1104C198.879 91.6529 198.577 99.5287 202.071 108.293C209.731 127.162 232.803 144.408 253.506 146.726C263.71 147.82 271.71 145.174 276.032 139.283L286.87 124.509C282.145 127.313 275.837 128.405 268.446 127.615C247.259 125.252 223.643 107.6 215.792 88.2542C213.357 81.9617 212.719 76.1201 213.859 71.1916L202.914 86.1104Z" fill="#588995"/>
<path d="M202.31 85.6721L217.416 65.0805C213.385 70.5751 212.832 78.5376 216.485 87.9779C224.253 107.119 247.551 124.539 268.528 126.875C279.367 128.032 287.477 124.989 291.74 119.132L276.635 139.723C272.313 145.614 264.261 148.624 253.423 147.465C232.304 145.102 209.148 127.711 201.38 108.569C197.655 99.2267 198.301 91.1817 202.31 85.6721Z" fill="#588995"/>
<path d="M217.263 64.9687C217.325 64.8843 217.443 64.866 217.528 64.9278C217.612 64.9897 217.63 65.1079 217.568 65.1923C213.589 70.6162 213.023 78.5035 216.661 87.9064L217.035 88.7992C221.014 98.0055 228.563 106.772 237.667 113.576C247.064 120.601 258.101 125.522 268.549 126.686L269.553 126.782C279.512 127.619 287.012 124.814 291.181 119.554L291.586 119.02L291.587 119.02C291.649 118.936 291.767 118.918 291.852 118.98C291.936 119.041 291.954 119.16 291.892 119.244L291.892 119.244L291.893 119.245L276.787 139.835C272.412 145.798 264.281 148.817 253.403 147.654L253.402 147.653C242.802 146.467 231.702 141.512 222.281 134.46C212.861 127.409 205.104 118.25 201.205 108.64L201.205 108.639C197.464 99.2578 198.097 91.1387 202.157 85.5603L202.158 85.5602L217.263 64.9687ZM202.463 85.7828L202.464 85.7837C198.505 91.2243 197.847 99.1949 201.556 108.497L201.929 109.39C205.906 118.596 213.422 127.356 222.508 134.157C231.887 141.177 242.924 146.099 253.442 147.277L253.443 147.276C264.239 148.431 272.214 145.429 276.481 139.611L289.456 121.925C284.812 126.06 277.6 128.034 268.508 127.063L268.507 127.063C257.978 125.89 246.878 120.935 237.44 113.88C228.002 106.826 220.209 97.6598 216.31 88.0496L216.308 88.0459C213.266 80.1838 213.121 73.3136 215.491 68.023L202.463 85.7828Z" fill="#588995"/>
<path d="M222.672 135.375C212.84 128.185 204.701 118.738 200.687 108.846C196.999 99.5915 197.362 91.2069 201.707 85.2333L216.813 64.6406L218.018 65.5217C214.04 70.9444 213.742 78.8231 217.179 87.7073C224.844 106.593 247.917 123.83 268.61 126.137C278.795 127.223 286.764 124.612 291.071 118.782L291.137 118.693L292.343 119.572L292.273 119.667L277.237 140.164C272.588 146.501 264.098 149.356 253.341 148.205C242.993 147.046 232.062 142.241 222.672 135.375ZM202.914 86.1104C198.879 91.6529 198.577 99.5287 202.071 108.293C209.731 127.162 232.803 144.408 253.506 146.726C263.71 147.82 271.71 145.174 276.032 139.283L286.87 124.509C282.145 127.313 275.837 128.405 268.446 127.615C247.259 125.252 223.643 107.6 215.792 88.2542C213.357 81.9617 212.719 76.1201 213.859 71.1916L202.914 86.1104Z" fill="#588995"/>
<path d="M244.148 55.2747C245.019 55.3795 246.189 55.4748 247.108 55.69C248.026 55.9062 249.489 56.1389 250.493 56.4161C252.273 56.8818 254.616 57.6055 256.366 58.2015C257.334 58.5289 258.578 59.0581 259.531 59.4507C262.019 60.51 264.902 62.0096 265.405 62.3012C265.91 62.5936 267.399 63.4561 268.221 63.9807C269.044 64.5059 270.152 65.0885 270.938 65.6632C271.723 66.2378 272.766 67 273.572 67.5898C275.145 68.7399 277.103 70.4765 278.603 71.7252C279.368 72.2847 280.228 73.2933 280.92 73.9523C281.612 74.6113 283.701 76.747 285.272 78.6562C285.87 79.3979 286.73 80.4073 287.256 81.2483C288.311 82.7036 289.629 84.7331 290.569 86.256C291.073 87.082 291.661 88.1955 292.086 89.039C292.475 89.9324 293.096 91.2225 293.491 92.1963C293.172 91.5068 292.649 90.9719 292.019 90.5872C291.388 90.2025 290.636 90.0331 289.894 90.0227C283.545 74.1993 264.354 59.8594 247.037 57.9192C229.684 56.028 220.841 67.2821 227.19 83.1047C233.575 98.878 252.788 113.233 270.084 115.158C287.378 117.084 296.28 105.797 289.894 90.0227C290.64 90.036 291.393 90.2053 291.987 90.6401C292.618 91.0248 293.139 91.559 293.454 92.2457C293.71 92.9652 294.106 93.9388 294.362 94.6591C294.774 96.1002 295.215 97.9454 295.591 99.4366C296.016 101.649 296.184 103.902 296.067 106.175C295.998 107.417 295.848 108.676 295.652 109.902C295.453 110.897 295.213 111.863 294.932 112.798C294.651 113.658 294.29 114.535 293.886 115.38C293.596 115.776 293.366 116.445 293.119 116.872C292.835 117.348 292.157 118.45 291.612 119.193C287.364 124.984 279.239 128.093 268.436 126.885C247.459 124.549 224.124 107.179 216.394 87.9883C212.632 78.6957 213.242 70.6999 217.323 65.091C217.94 64.2499 218.846 63.2385 219.569 62.4745C220.266 61.7677 221.062 61.0554 221.879 60.4375C223.92 58.8875 226.189 57.6568 228.581 56.8203C229.753 56.3842 230.944 56.0387 232.151 55.7808C233.512 55.4832 235.337 55.2206 236.653 55.1186C237.965 55.0131 239.274 54.9811 240.577 55.0219C241.762 55.0528 242.977 55.1045 244.146 55.2741L244.148 55.2747Z" fill="#C4DAE6"/>
<path d="M244.594 105.321C236.472 99.3813 229.76 91.5607 226.474 83.365C223.332 75.5373 223.689 68.4958 227.468 63.5326C231.343 58.4463 238.317 56.1843 247.095 57.1647C264.659 59.1656 284.157 73.7767 290.562 89.728C293.704 97.4902 293.358 104.5 289.589 109.465C285.706 114.578 278.74 116.855 269.972 115.877C261.395 114.951 252.352 110.995 244.595 105.322L244.594 105.321ZM271.548 68.956C264.024 63.4537 255.254 59.5953 246.925 58.6407C238.689 57.724 232.197 59.7798 228.652 64.4344C225.202 68.9642 224.919 75.4878 227.855 82.8093C234.103 98.3839 253.07 112.557 270.135 114.4C278.36 115.316 284.845 113.244 288.401 108.568C291.84 104.036 292.118 97.5438 289.178 90.2848C285.993 82.3441 279.457 74.7419 271.547 68.957L271.548 68.956Z" fill="#588995"/>
<path opacity="0.6" d="M233.234 161.602C230.654 160.5 227.457 158.738 225.632 160.868C224.327 162.391 224.816 164.556 225.517 166.238C227.229 170.342 229.148 174.4 228.462 178.963C228.288 180.119 227.977 181.25 227.622 182.364C223.986 193.79 215.943 203.195 209.929 213.573C209.163 214.893 208.407 216.334 208.534 217.853C209.002 223.451 214.59 219.16 216.247 217.267C225.533 206.655 234.981 196.185 243.506 184.944C246.762 180.651 250.012 176.283 252.905 171.734C256.005 166.859 251.034 166.98 247.028 166.107C242.28 165.074 237.701 163.511 233.234 161.602Z" fill="#ECF8FF"/>
<path opacity="0.6" d="M225.677 160.543C226.637 159.593 227.899 159.54 229.192 159.839C230.564 160.156 232.034 160.884 233.308 161.428L234.145 161.781C238.339 163.526 242.631 164.956 247.068 165.922L247.825 166.075C248.588 166.219 249.362 166.341 250.108 166.483C251.089 166.671 252.013 166.893 252.717 167.25C253.426 167.61 253.941 168.123 254.045 168.896C254.147 169.651 253.847 170.606 253.065 171.836C250.529 175.823 247.721 179.669 244.877 183.445L243.657 185.058C237.259 193.494 230.342 201.496 223.367 209.446L216.389 217.392C215.55 218.352 213.713 219.923 212.01 220.547C211.16 220.859 210.298 220.951 209.609 220.553C208.915 220.153 208.465 219.294 208.346 217.869L208.332 217.573C208.312 216.097 209.05 214.711 209.764 213.478L210.335 212.508C213.213 207.666 216.499 203.008 219.507 198.26C222.721 193.188 225.631 187.996 227.442 182.306L227.697 181.472C227.941 180.636 228.145 179.791 228.274 178.935L228.33 178.515C228.769 174.744 227.44 171.313 225.989 167.852L225.342 166.312C224.987 165.461 224.681 164.476 224.633 163.503C224.584 162.528 224.796 161.553 225.488 160.745L225.677 160.543ZM229.107 160.208C227.87 159.922 226.768 159.994 225.938 160.817L225.777 160.992C225.164 161.706 224.966 162.576 225.011 163.484C225.056 164.396 225.346 165.335 225.692 166.166L226.337 167.7C227.789 171.16 229.157 174.682 228.707 178.559L228.649 178.992C228.517 179.87 228.307 180.731 228.06 181.579L227.803 182.421C225.978 188.157 223.047 193.381 219.827 198.463C216.803 203.235 213.535 207.866 210.662 212.699L210.092 213.669C209.372 214.911 208.692 216.212 208.71 217.566L208.723 217.837C208.838 219.211 209.262 219.915 209.798 220.225C210.341 220.538 211.066 220.489 211.879 220.191C213.501 219.596 215.288 218.075 216.104 217.142L223.083 209.195C230.057 201.247 236.965 193.255 243.355 184.829L244.575 183.216C247.417 179.443 250.218 175.607 252.745 171.632C253.512 170.425 253.753 169.566 253.67 168.946C253.589 168.343 253.192 167.917 252.545 167.589C251.893 167.258 251.017 167.042 250.037 166.855C249.311 166.716 248.523 166.592 247.751 166.447L246.987 166.293C242.523 165.321 238.21 163.882 234 162.131L233.16 161.776C231.854 161.219 230.435 160.515 229.107 160.208Z" fill="#588995"/>
<path opacity="0.6" d="M203.276 220.704C201.636 221.001 200.106 222.065 199.469 223.769C198.404 226.616 200.957 229.79 203.919 229.756C207.26 229.718 209.713 226.467 208.361 223.276C207.449 221.121 205.28 220.341 203.276 220.704Z" fill="#ECF8FF"/>
<path opacity="0.6" d="M203.633 220.461C205.591 220.249 207.641 221.089 208.537 223.202L208.657 223.514C209.749 226.635 207.431 229.703 204.244 229.932L203.922 229.946C202.372 229.963 200.94 229.143 200.034 227.958C199.127 226.772 198.732 225.199 199.292 223.702L199.427 223.377C200.155 221.792 201.654 220.806 203.243 220.518L203.633 220.461ZM203.014 220.953C201.642 221.285 200.396 222.176 199.771 223.536L199.647 223.835C199.142 225.186 199.491 226.624 200.335 227.728C201.18 228.833 202.505 229.583 203.918 229.567L204.217 229.554C207.184 229.341 209.299 226.499 208.297 223.636L208.187 223.35C207.316 221.295 205.247 220.54 203.31 220.891L203.014 220.953Z" fill="#588995"/>
<path d="M263.928 93.1823L246.783 75.3415C245.071 73.5606 245.815 70.6032 248.166 69.8392C251.726 68.6817 255.634 69.6597 258.225 72.3564L275.369 90.1972C277.081 91.9781 276.338 94.9354 273.986 95.6995C270.427 96.8569 266.519 95.8789 263.928 93.1823Z" fill="#588995"/>
<path d="M248.449 69.5544C251.984 68.5429 255.803 69.5621 258.361 72.2252L275.506 90.0657L275.668 90.2452C277.213 92.0792 276.501 94.9085 274.272 95.7977L274.045 95.8792C270.53 97.0223 266.68 96.1229 264.042 93.5662L263.791 93.3135L246.646 75.473C244.837 73.5911 245.623 70.4658 248.107 69.6585L248.449 69.5544ZM258.088 72.4878C255.547 69.8437 251.715 68.8849 248.225 70.0198L248.224 70.0199C246.006 70.7411 245.305 73.5308 246.92 75.2104L264.064 93.0509L264.307 93.2942C266.844 95.753 270.546 96.6184 273.927 95.519L274.131 95.446C276.122 94.6517 276.756 92.1258 275.376 90.4888L275.232 90.3283L258.088 72.4878Z" fill="#588995"/>
<path d="M275.369 90.1973L258.225 72.3565C255.634 69.6607 251.726 68.6827 248.167 69.8393C247.275 70.129 246.616 70.7346 246.233 71.4714C249.686 70.5041 253.406 71.5008 255.903 74.0991L273.048 91.94C274.111 93.0456 274.226 94.6042 273.598 95.8101C273.727 95.7736 273.858 95.7403 273.986 95.6987C276.338 94.9338 277.081 91.9773 275.369 90.1964L275.369 90.1973Z" fill="#ECF8FF"/>
<path d="M248.449 69.555C251.984 68.5441 255.803 69.5626 258.361 72.2248L275.505 90.0653C277.258 91.8884 276.575 94.8763 274.273 95.7962L274.044 95.8789C273.912 95.9219 273.772 95.9575 273.65 95.9922L273.228 96.1117L273.43 95.7227C273.986 94.6542 273.924 93.296 273.088 92.2716L272.911 92.0717L255.767 74.2302C253.318 71.6826 249.67 70.7056 246.284 71.6541L245.863 71.7715L246.064 71.3837C246.469 70.6051 247.166 69.9648 248.108 69.659L248.449 69.555ZM258.087 72.4875C255.627 69.9271 251.954 68.9471 248.553 69.9193L248.225 70.0194C247.545 70.2401 247.012 70.6562 246.641 71.173C250.028 70.3953 253.603 71.4338 256.039 73.9678L273.185 91.8091L273.383 92.0333C274.223 93.063 274.36 94.392 273.934 95.5155C276.142 94.7919 276.842 92.0192 275.243 90.34L275.233 90.3288L258.087 72.4875Z" fill="#588995"/>
</g>
<path d="M186.01 104.683L185.831 105.122C175.747 100.979 166.347 98.9373 158.491 99.1978C150.637 99.4582 144.37 102.014 140.457 107.017L140.456 107.017C134.148 115.07 134.95 128.12 141.638 142.874C148.31 157.593 160.777 173.848 177.492 188.145C194.208 202.443 211.908 212.008 227.015 215.944C242.158 219.889 254.517 218.145 260.804 210.119C264.228 205.744 265.548 199.893 264.955 193.068C264.363 186.241 261.858 178.472 257.671 170.32L258.092 170.103L258.514 169.887C262.738 178.112 265.294 186.001 265.9 192.986C266.488 199.754 265.246 205.703 261.882 210.267L261.55 210.704C254.897 219.195 242.017 220.832 226.776 216.861C211.5 212.881 193.674 203.233 176.876 188.865C160.078 174.497 147.514 158.135 140.774 143.266C134.05 128.433 133.058 114.925 139.71 106.433L140.104 105.945C144.261 100.979 150.675 98.5088 158.459 98.2507C166.491 97.9844 176.029 100.069 186.191 104.244L186.01 104.683Z" fill="#588995"/>
<path d="M236.354 223.127C239.148 225.189 243.08 224.601 245.138 221.813C247.195 219.025 246.598 215.094 243.805 213.032C241.011 210.97 237.078 211.559 235.021 214.346C232.963 217.134 233.56 221.065 236.354 223.127Z" fill="#C4DAE6"/>
<path d="M244.832 221.588C246.765 218.969 246.205 215.275 243.58 213.337C240.954 211.399 237.258 211.953 235.326 214.571C233.393 217.19 233.953 220.884 236.579 222.822L236.354 223.127L236.099 222.929C233.608 220.889 233.062 217.289 234.835 214.611L235.021 214.346C237.078 211.559 241.011 210.97 243.805 213.032L244.06 213.23C246.633 215.338 247.131 219.112 245.138 221.813L244.939 222.068C242.835 224.635 239.06 225.125 236.354 223.127L236.579 222.822C239.205 224.76 242.9 224.206 244.832 221.588Z" fill="#588995"/>
<path d="M288.942 174.18C290.139 175.063 291.824 174.811 292.705 173.617C293.587 172.423 293.331 170.738 292.134 169.855C290.937 168.972 289.252 169.224 288.371 170.418C287.489 171.612 287.745 173.297 288.942 174.18Z" fill="#ECF8FF"/>
<path d="M292.4 173.392C293.157 172.366 292.938 170.919 291.909 170.16C290.88 169.4 289.432 169.618 288.676 170.643C287.919 171.668 288.138 173.115 289.167 173.875L288.942 174.18L288.729 174.005C287.785 173.149 287.571 171.742 288.218 170.648L288.371 170.418C289.252 169.224 290.937 168.972 292.134 169.855L292.347 170.029C293.358 170.947 293.531 172.497 292.705 173.617L292.531 173.83C291.615 174.838 290.064 175.008 288.942 174.18L289.167 173.875C290.196 174.634 291.644 174.417 292.4 173.392Z" fill="#588995"/>
<path d="M112.06 158.787C114.101 160.293 116.974 159.864 118.478 157.827C119.981 155.79 119.545 152.917 117.504 151.411C115.462 149.904 112.589 150.334 111.086 152.371C109.582 154.408 110.018 157.28 112.06 158.787Z" fill="#ECF8FF"/>
<path d="M118.173 157.602C119.551 155.734 119.152 153.098 117.279 151.716C115.405 150.333 112.769 150.728 111.39 152.596C110.012 154.464 110.412 157.099 112.285 158.482L112.06 158.787L111.874 158.642C110.054 157.151 109.654 154.521 110.951 152.564L111.086 152.371C112.589 150.334 115.462 149.904 117.504 151.411L117.69 151.556C119.57 153.096 119.934 155.854 118.478 157.827L118.333 158.013C116.796 159.889 114.037 160.247 112.06 158.787L112.285 158.482C114.159 159.864 116.794 159.47 118.173 157.602Z" fill="#588995"/>
<path d="M153.5 255C125.61 255 103 252.538 103 249.5C103 246.462 125.61 244 153.5 244C181.39 244 204 246.462 204 249.5C204 252.538 181.39 255 153.5 255Z" fill="#588995"/>
<defs>
<clipPath id="clip0_2530_13280">
<rect width="173.424" height="173.424" fill="white" transform="translate(116.769 72.7925) rotate(-8.77871)"/>
</clipPath>
</defs>
</svg>
