<svg width="411" height="300" viewBox="0 0 411 300" fill="none" xmlns="http://www.w3.org/2000/svg">
<path d="M259 106.854C259.045 103.873 256.339 102.526 256.339 102.526L235.216 90.8043L226.092 85.6392L147.361 131.138C143.514 133.36 141.145 137.467 141.145 141.91V223.286C141.145 226.87 143.055 230.182 146.159 231.971L172.472 247.175C172.472 247.175 174.364 248.252 176.602 247.316L259 106.861V106.854Z" fill="#0B4D5E"/>
<path d="M141.343 141.911C141.343 137.674 143.531 133.749 147.11 131.52L147.46 131.309L226.093 85.8667L235.118 90.9771L235.12 90.978L256.243 102.7L256.25 102.704H256.251C256.252 102.704 256.253 102.706 256.255 102.707C256.259 102.709 256.267 102.712 256.276 102.716C256.294 102.726 256.321 102.741 256.356 102.761C256.426 102.802 256.527 102.864 256.649 102.947C256.893 103.114 257.219 103.366 257.542 103.708C258.182 104.385 258.809 105.405 258.801 106.807L176.466 247.156C175.415 247.58 174.448 247.546 173.737 247.402C173.375 247.329 173.08 247.228 172.877 247.145C172.776 247.104 172.697 247.067 172.645 247.042C172.619 247.029 172.6 247.019 172.587 247.012C172.581 247.009 172.576 247.006 172.574 247.004C172.572 247.004 172.571 247.003 172.571 247.002H172.57L146.258 231.799L145.976 231.63C143.101 229.842 141.343 226.689 141.343 223.286V141.911ZM140.947 223.286C140.947 226.827 142.775 230.107 145.767 231.967L146.06 232.143L172.372 247.346L172.374 247.347V247.348L172.382 247.352C172.387 247.354 172.393 247.358 172.401 247.362C172.417 247.37 172.44 247.382 172.47 247.397C172.53 247.426 172.617 247.467 172.728 247.512C172.949 247.602 173.268 247.712 173.659 247.791C174.44 247.949 175.514 247.986 176.678 247.499L176.739 247.473L176.773 247.417L259.171 106.961L259.198 106.915V106.854C259.22 105.299 258.525 104.17 257.83 103.436C257.483 103.069 257.134 102.799 256.872 102.62C256.741 102.53 256.632 102.462 256.554 102.417C256.515 102.395 256.484 102.378 256.462 102.367C256.452 102.361 256.443 102.357 256.437 102.354C256.434 102.353 256.432 102.351 256.43 102.35L256.428 102.349L235.314 90.6313L226.19 85.4663L226.091 85.4106L225.993 85.4673L147.262 130.966L146.9 131.183C143.205 133.484 140.947 137.537 140.947 141.911V223.286Z" fill="#0B4D5E"/>
<path d="M259.225 108.246V192.613C259.225 197.566 256.564 202.132 252.255 204.575L177.472 246.938C174.525 248.605 170.873 246.479 170.873 243.09V155.995C170.873 152.199 172.903 148.691 176.192 146.8L251.277 103.648C254.814 101.615 259.229 104.171 259.229 108.249L259.225 108.246Z" fill="#8AE5CC"/>
<path d="M171.071 155.995C171.072 152.386 172.941 149.043 175.992 147.15L176.291 146.973L251.376 103.82C254.756 101.878 258.967 104.288 259.028 108.165V192.613C259.027 197.495 256.404 201.994 252.157 204.402L177.374 246.765L177.109 246.904C174.345 248.23 171.071 246.226 171.071 243.091V155.995ZM170.675 243.091C170.675 246.521 174.256 248.712 177.279 247.263L177.57 247.11L252.353 204.748C256.724 202.27 259.424 197.638 259.424 192.613V108.725L259.427 108.728V108.249C259.427 104.019 254.847 101.368 251.179 103.476L176.094 146.628V146.629C172.743 148.556 170.675 152.128 170.675 155.995V243.091Z" fill="#0B4D5E"/>
<path d="M170.875 166.869L192.35 154.439C192.895 154.125 193.572 154.516 193.572 155.144V164.173C193.572 164.731 193.274 165.247 192.793 165.526L170.875 178.235L141.141 160.986V149.835L170.875 166.872V166.869Z" fill="#0B4D5E"/>
<path d="M140.943 161.101L141.041 161.157L170.776 178.406L170.875 178.464L170.975 178.406L192.892 165.697C193.434 165.383 193.77 164.801 193.77 164.173V155.145C193.77 154.364 192.929 153.877 192.251 154.268L170.872 166.642L140.943 149.493V161.101ZM193.373 164.173C193.373 164.66 193.113 165.111 192.693 165.354L170.876 178.005L141.339 160.871V150.177L171.074 167.215V166.983L192.45 154.61C192.862 154.373 193.373 154.669 193.373 155.145V164.173Z" fill="#0B4D5E"/>
<path d="M170.875 193.63L192.35 181.2C192.895 180.886 193.572 181.28 193.572 181.905V190.934C193.572 191.491 193.274 192.008 192.793 192.287L170.875 204.996L141.141 187.747V176.596L170.875 193.633V193.63Z" fill="#0B4D5E"/>
<path d="M140.943 187.861L141.041 187.918L170.776 205.167L170.875 205.225L170.975 205.167L192.892 192.458C193.434 192.144 193.77 191.562 193.77 190.934V181.905C193.77 181.128 192.929 180.638 192.251 181.028L170.872 193.402L140.943 176.254V187.861ZM193.373 190.934C193.373 191.421 193.113 191.872 192.693 192.115L170.876 204.766L141.339 187.632V176.938L171.074 193.976V193.744L192.45 181.371C192.862 181.134 193.373 181.432 193.373 181.905V190.934Z" fill="#0B4D5E"/>
<path d="M170.875 220.304L192.35 207.874C192.895 207.559 193.572 207.954 193.572 208.579V217.607C193.572 218.165 193.274 218.682 192.793 218.96L170.875 231.67L141.141 214.421V203.27L170.875 220.307V220.304Z" fill="#0B4D5E"/>
<path d="M140.943 214.535L141.041 214.592L170.776 231.841L170.875 231.898L170.975 231.841L192.892 219.132C193.434 218.817 193.77 218.236 193.77 217.607V208.579C193.77 207.802 192.929 207.311 192.251 207.702L170.872 220.076L140.943 202.928V214.535ZM193.373 217.607C193.373 218.095 193.113 218.546 192.693 218.789L170.876 231.439L141.339 214.306V203.611L171.074 220.649V220.418L192.45 208.045C192.862 207.808 193.373 208.106 193.373 208.579V217.607Z" fill="#0B4D5E"/>
<path d="M193.572 165.074L189.413 163.125L187.701 168.559L193.572 165.078V165.074Z" fill="#F0F4FF"/>
<path d="M189.224 163.065L187.512 168.5L187.356 168.994L187.802 168.73L193.673 165.248L193.77 165.19V164.948L193.656 164.895L189.497 162.945L189.292 162.85L189.224 163.065ZM193.152 165.096L188.046 168.124L189.535 163.4L193.152 165.096Z" fill="#0B4D5E"/>
<path d="M193.572 191.837L189.413 189.887L187.701 195.322L193.572 191.84V191.837Z" fill="#F0F4FF"/>
<path d="M189.224 189.828L187.512 195.262L187.356 195.756L187.802 195.493L193.673 192.01L193.77 191.953V191.71L193.656 191.657L189.497 189.708L189.292 189.612L189.224 189.828ZM193.152 191.858L188.046 194.886L189.535 190.163L193.152 191.858Z" fill="#0B4D5E"/>
<path d="M193.572 218.515L189.413 216.565L187.701 222L193.572 218.518V218.515Z" fill="#F0F4FF"/>
<path d="M189.224 216.506L187.512 221.94L187.356 222.435L187.802 222.171L193.673 218.688L193.77 218.631V218.389L193.656 218.335L189.497 216.386L189.292 216.29L189.224 216.506ZM193.152 218.536L188.046 221.564L189.535 216.841L193.152 218.536Z" fill="#0B4D5E"/>
<path d="M188.817 167.897C188.817 167.897 174.302 184.425 141.141 171.559V173.915C143.623 178.237 157.352 182.893 170.875 181.062C170.875 181.062 186.669 179.26 188.814 167.897H188.817Z" fill="#0B4D5E"/>
<path d="M188.649 167.699L188.628 167.811L188.503 167.941C188.391 168.057 188.222 168.226 187.994 168.437C187.537 168.858 186.848 169.449 185.915 170.118C184.051 171.456 181.218 173.11 177.353 174.364C169.627 176.872 157.755 177.792 141.213 171.374L140.943 171.27V173.969L140.969 174.014C141.617 175.141 142.978 176.265 144.836 177.286C146.7 178.311 149.088 179.247 151.816 179.987C157.271 181.469 164.111 182.178 170.902 181.259V181.258C170.904 181.258 170.907 181.258 170.911 181.258C170.918 181.257 170.93 181.255 170.945 181.253C170.975 181.249 171.022 181.243 171.08 181.235C171.198 181.219 171.371 181.194 171.59 181.158C172.03 181.086 172.659 180.97 173.42 180.796C174.943 180.448 176.997 179.864 179.12 178.922C183.345 177.047 187.884 173.733 188.994 167.994L189.255 167.699H188.649ZM188.472 168.53C187.204 173.709 182.982 176.775 178.959 178.56C176.866 179.488 174.838 180.065 173.332 180.409C172.58 180.581 171.958 180.696 171.526 180.767C171.31 180.802 171.14 180.827 171.026 180.843C170.969 180.851 170.925 180.856 170.896 180.859C170.881 180.861 170.87 180.862 170.863 180.863C170.859 180.864 170.857 180.864 170.855 180.864L170.853 180.865H170.848L170.217 180.946C163.693 181.732 157.16 181.028 151.919 179.604C149.214 178.87 146.858 177.946 145.028 176.939C143.217 175.944 141.943 174.879 141.339 173.859V171.847C157.818 178.181 169.697 177.266 177.476 174.741C181.384 173.472 184.254 171.799 186.147 170.44C187.093 169.761 187.796 169.16 188.263 168.729C188.339 168.658 188.408 168.591 188.472 168.53Z" fill="#0B4D5E"/>
<path d="M188.817 194.648C188.817 194.648 174.302 211.176 141.141 198.309V200.666C143.623 204.988 157.352 209.643 170.875 207.812C170.875 207.812 186.669 206.011 188.814 194.648H188.817Z" fill="#0B4D5E"/>
<path d="M188.649 194.45L188.628 194.561L188.503 194.692C188.391 194.807 188.222 194.976 187.994 195.187C187.537 195.609 186.848 196.2 185.915 196.869C184.051 198.207 181.218 199.86 177.353 201.115C169.627 203.623 157.755 204.543 141.213 198.125L140.943 198.02V200.719L140.969 200.764C141.617 201.892 142.978 203.015 144.836 204.037C146.7 205.061 149.088 205.997 151.816 206.738C157.271 208.219 164.111 208.929 170.902 208.009V208.008C170.904 208.008 170.907 208.009 170.911 208.008C170.918 208.007 170.93 208.005 170.945 208.003C170.975 208 171.022 207.994 171.08 207.986C171.198 207.97 171.371 207.945 171.59 207.909C172.03 207.837 172.659 207.721 173.42 207.546C174.943 207.198 176.997 206.614 179.12 205.672C183.345 203.798 187.884 200.484 188.994 194.745L189.255 194.45H188.649ZM188.472 195.281C187.204 200.459 182.982 203.525 178.959 205.31C176.866 206.239 174.838 206.815 173.332 207.16C172.58 207.332 171.958 207.446 171.526 207.517C171.31 207.553 171.14 207.578 171.026 207.593C170.969 207.601 170.925 207.606 170.896 207.61C170.881 207.612 170.87 207.613 170.863 207.614C170.859 207.614 170.857 207.615 170.855 207.615L170.853 207.616H170.848L170.217 207.697C163.693 208.483 157.16 207.778 151.919 206.355C149.214 205.62 146.858 204.696 145.028 203.69C143.217 202.694 141.943 201.63 141.339 200.61V198.597C157.818 204.931 169.697 204.017 177.476 201.492C181.384 200.223 184.254 198.55 186.147 197.191C187.093 196.512 187.796 195.911 188.263 195.479C188.339 195.409 188.408 195.342 188.472 195.281Z" fill="#0B4D5E"/>
<path d="M188.817 221.334C188.817 221.334 174.492 238.042 141.327 225.175L142.449 227.304C145.934 231.415 158.967 236.362 170.875 234.499C170.875 234.499 186.669 232.697 188.814 221.334H188.817Z" fill="#0B4D5E"/>
<path d="M188.649 221.136L188.628 221.25C188.601 221.279 188.559 221.324 188.504 221.382C188.394 221.499 188.226 221.67 188 221.883C187.549 222.31 186.866 222.907 185.943 223.584C184.096 224.939 181.287 226.615 177.446 227.892C169.767 230.445 157.942 231.409 141.399 224.991L140.905 224.798L142.274 227.397L142.284 227.417L142.298 227.432C143.192 228.487 144.685 229.581 146.593 230.599C148.504 231.619 150.845 232.569 153.448 233.332C158.649 234.855 164.912 235.631 170.899 234.696H170.901C170.903 234.696 170.907 234.695 170.911 234.695C170.918 234.694 170.93 234.692 170.945 234.69C170.975 234.686 171.022 234.68 171.08 234.672C171.198 234.656 171.371 234.631 171.59 234.595C172.03 234.523 172.659 234.407 173.42 234.233C174.943 233.885 176.997 233.301 179.12 232.359C183.346 230.484 187.885 227.17 188.995 221.429L189.248 221.136H188.649ZM188.468 221.982C187.196 227.151 182.978 230.213 178.959 231.997C176.866 232.925 174.838 233.502 173.332 233.846C172.58 234.018 171.958 234.133 171.526 234.204C171.31 234.239 171.14 234.264 171.026 234.28C170.969 234.288 170.925 234.293 170.896 234.296C170.881 234.298 170.87 234.299 170.863 234.3C170.859 234.301 170.857 234.301 170.855 234.301L170.853 234.302L170.844 234.303L170.288 234.385C164.539 235.181 158.56 234.416 153.56 232.952C150.98 232.196 148.664 231.255 146.78 230.25C144.901 229.247 143.464 228.186 142.614 227.19L141.748 225.548C158.113 231.788 169.874 230.827 177.572 228.268C181.457 226.977 184.302 225.28 186.177 223.904C187.115 223.216 187.811 222.608 188.273 222.171C188.344 222.104 188.408 222.041 188.468 221.982Z" fill="#0B4D5E"/>
<path d="M138.038 155.332V164.896C138.038 172.606 149.538 178.858 163.725 178.858C177.913 178.858 189.416 172.606 189.416 164.896L189.371 156.159C189.371 156.159 187.874 167.941 163.821 169.092C163.821 169.092 139.762 169.294 138.034 155.335L138.038 155.332Z" fill="#8AE5CC"/>
<path d="M138.236 157.284C139.959 163.113 145.875 166.104 151.524 167.64C154.654 168.491 157.728 168.903 160.018 169.103C161.163 169.203 162.113 169.25 162.778 169.272C163.11 169.283 163.371 169.288 163.549 169.29C163.638 169.291 163.706 169.29 163.752 169.291H163.822L163.821 169.092L163.823 169.291H163.831C175.889 168.713 182.326 165.47 185.75 162.34C187.461 160.777 188.415 159.246 188.942 158.101C189.035 157.899 189.113 157.707 189.181 157.531L189.218 164.897C189.217 168.645 186.418 172.082 181.796 174.594C177.181 177.102 170.792 178.66 163.725 178.66C156.658 178.66 150.27 177.102 145.655 174.594C141.034 172.082 138.236 168.644 138.236 164.896V157.284ZM137.839 164.896C137.839 168.858 140.791 172.402 145.466 174.943C150.149 177.488 156.605 179.056 163.725 179.056C170.845 179.056 177.302 177.488 181.986 174.943C186.661 172.402 189.614 168.858 189.614 164.896V164.894L189.57 156.158L189.175 156.133V156.134C189.175 156.135 189.174 156.137 189.174 156.139C189.173 156.144 189.172 156.152 189.17 156.162C189.167 156.182 189.161 156.213 189.154 156.253C189.138 156.336 189.111 156.458 189.069 156.616C188.983 156.93 188.834 157.385 188.581 157.935C188.075 159.035 187.152 160.522 185.483 162.047C182.145 165.097 175.807 168.32 163.812 168.894H163.752C163.707 168.894 163.64 168.894 163.553 168.893C163.378 168.891 163.12 168.886 162.791 168.875C162.133 168.854 161.19 168.808 160.053 168.708C157.778 168.51 154.728 168.1 151.628 167.257C145.417 165.568 139.1 162.169 138.236 155.345V154.853L137.825 155.263L137.837 155.359C137.838 155.363 137.839 155.368 137.839 155.373V164.896Z" fill="#0B4D5E"/>
<path d="M189.371 156.156C188.585 163.482 177.402 169.292 163.725 169.292C150.047 169.292 138.037 163.04 138.037 155.329C138.037 152.915 139.162 150.648 141.144 148.667C141.144 149.385 141.525 150.045 142.147 150.401L169.262 165.935C170.262 166.506 171.49 166.506 172.487 165.928L189.371 156.156Z" fill="#F0F4FF"/>
<path d="M138.235 155.329C138.235 153.101 139.221 150.99 140.992 149.11C141.107 149.673 141.438 150.173 141.923 150.496L142.048 150.573L169.163 166.107C170.157 166.674 171.366 166.71 172.385 166.208L172.586 166.1L189.12 156.53C188.571 159.939 185.7 163.027 181.291 165.294C176.721 167.646 170.537 169.093 163.724 169.093C156.913 169.093 150.524 167.536 145.845 165.027C141.156 162.512 138.235 159.074 138.235 155.329ZM137.838 155.329C137.838 159.294 140.922 162.837 145.658 165.376C150.403 167.921 156.858 169.49 163.724 169.49C170.589 169.49 176.837 168.033 181.473 165.648C186.102 163.267 189.165 159.937 189.568 156.177L189.61 155.789L172.388 165.756C171.511 166.264 170.443 166.296 169.539 165.857L169.36 165.762L142.246 150.229L142.143 150.166C141.644 149.834 141.342 149.273 141.342 148.667V148.188L141.003 148.526C138.996 150.534 137.838 152.848 137.838 155.329Z" fill="#0B4D5E"/>
<path d="M138.038 182.092V191.656C138.038 199.367 149.538 205.615 163.725 205.615C177.913 205.615 189.416 199.363 189.416 191.656L189.371 182.916C189.371 182.916 187.781 194.904 163.725 196.051C163.725 196.051 139.759 196.051 138.038 182.092Z" fill="#8AE5CC"/>
<path d="M138.236 184.035C139.949 189.876 145.844 192.914 151.474 194.497C154.592 195.374 157.654 195.811 159.935 196.03C161.076 196.14 162.022 196.195 162.684 196.223C163.015 196.236 163.275 196.243 163.452 196.246C163.541 196.248 163.609 196.249 163.654 196.249C163.678 196.249 163.695 196.25 163.707 196.25H163.735V196.249C175.794 195.674 182.255 192.38 185.703 189.199C187.426 187.61 188.392 186.053 188.927 184.89C189.026 184.674 189.109 184.471 189.181 184.285L189.218 191.657C189.217 195.403 186.418 198.84 181.796 201.352C177.181 203.859 170.792 205.417 163.725 205.417C156.658 205.417 150.27 203.86 145.655 201.353C141.034 198.841 138.236 195.404 138.236 191.655V184.035ZM137.839 191.655C137.839 195.618 140.792 199.161 145.467 201.701C150.15 204.246 156.605 205.813 163.725 205.813C170.845 205.813 177.302 204.245 181.986 201.7C186.661 199.159 189.614 195.616 189.614 191.655V191.654L189.57 182.915L189.175 182.89V182.891C189.175 182.892 189.174 182.893 189.174 182.896C189.173 182.9 189.172 182.908 189.17 182.918C189.167 182.939 189.162 182.97 189.154 183.012C189.137 183.095 189.109 183.221 189.065 183.381C188.977 183.701 188.824 184.164 188.567 184.724C188.052 185.844 187.116 187.356 185.435 188.907C182.074 192.008 175.711 195.281 163.716 195.854C163.714 195.854 163.712 195.854 163.709 195.854C163.698 195.853 163.681 195.853 163.658 195.853C163.614 195.852 163.546 195.851 163.459 195.85C163.285 195.846 163.028 195.84 162.7 195.826C162.045 195.799 161.106 195.744 159.973 195.636C157.706 195.418 154.669 194.984 151.58 194.115C145.383 192.373 139.079 188.916 138.235 182.067L137.839 182.092V191.655Z" fill="#0B4D5E"/>
<path d="M189.371 182.916C188.585 190.242 177.402 196.052 163.725 196.052C150.047 196.052 138.034 189.8 138.034 182.092C138.034 179.678 139.162 177.411 141.14 175.43C141.14 176.148 141.525 176.808 142.144 177.167L169.258 192.701C170.259 193.275 171.487 193.272 172.484 192.695L189.367 182.919" fill="#F0F4FF"/>
<path d="M138.232 182.092C138.232 179.864 139.22 177.753 140.989 175.873C141.115 176.484 141.495 177.02 142.044 177.339L142.045 177.34L169.16 192.873C170.155 193.444 171.363 193.478 172.382 192.975L172.583 192.866L189.12 183.291C188.571 186.7 185.7 189.787 181.291 192.055C176.721 194.406 170.537 195.854 163.724 195.854C156.913 195.853 150.523 194.296 145.843 191.787C141.154 189.273 138.232 185.835 138.232 182.092ZM137.835 182.092C137.835 186.056 140.921 189.598 145.657 192.137C150.403 194.681 156.858 196.25 163.724 196.25C170.589 196.25 176.837 194.792 181.473 192.407C186.102 190.026 189.165 186.697 189.568 182.938L189.371 182.916L189.366 182.915L189.268 182.748L172.384 192.523L172.207 192.618C171.305 193.063 170.237 193.034 169.357 192.529L142.243 176.995C141.685 176.671 141.338 176.076 141.338 175.43V174.95L141 175.29C138.996 177.298 137.836 179.612 137.835 182.092Z" fill="#0B4D5E"/>
<path d="M138.038 208.766V218.33C138.038 226.041 149.538 232.29 163.725 232.29C177.913 232.29 189.416 226.038 189.416 218.33L189.371 209.59C189.371 209.59 188.005 221.632 163.725 222.581C163.725 222.581 140.144 222.392 138.038 208.766Z" fill="#8AE5CC"/>
<path d="M138.236 210.506C140.034 216.321 145.979 219.371 151.617 220.974C154.711 221.854 157.737 222.305 159.987 222.537C161.113 222.652 162.047 222.713 162.698 222.745C163.024 222.761 163.28 222.769 163.454 222.774C163.542 222.776 163.609 222.778 163.654 222.779C163.677 222.779 163.694 222.78 163.705 222.78H163.723C163.723 222.78 163.723 222.78 163.725 222.582L163.724 222.78H163.733C175.905 222.304 182.367 219.046 185.788 215.875C187.498 214.291 188.443 212.733 188.96 211.567C189.046 211.374 189.117 211.192 189.181 211.022L189.218 218.332C189.217 222.078 186.418 225.514 181.796 228.026C177.181 230.534 170.792 232.091 163.725 232.091C156.658 232.091 150.27 230.534 145.655 228.027C141.034 225.515 138.236 222.078 138.236 218.33V210.506ZM137.839 218.33C137.839 222.292 140.792 225.835 145.467 228.375C150.15 230.92 156.605 232.488 163.725 232.488C170.845 232.488 177.302 230.92 181.986 228.375C186.661 225.834 189.614 222.29 189.614 218.33V218.329L189.57 209.589L189.174 209.568V209.574C189.173 209.578 189.172 209.586 189.17 209.596C189.167 209.617 189.162 209.648 189.154 209.69C189.139 209.774 189.115 209.899 189.073 210.06C188.991 210.381 188.846 210.845 188.597 211.406C188.099 212.527 187.186 214.04 185.519 215.584C182.187 218.672 175.826 221.91 163.718 222.383C163.716 222.383 163.714 222.383 163.711 222.383C163.7 222.383 163.683 222.383 163.661 222.382C163.617 222.382 163.551 222.38 163.465 222.377C163.293 222.373 163.041 222.365 162.718 222.349C162.072 222.317 161.146 222.257 160.029 222.142C157.792 221.912 154.79 221.464 151.726 220.593C145.576 218.845 139.267 215.422 138.234 208.736L137.839 208.766V218.33Z" fill="#0B4D5E"/>
<path d="M189.371 209.592C188.585 216.918 177.402 222.727 163.725 222.727C150.047 222.727 138.034 216.475 138.034 208.768C138.034 206.354 139.162 204.087 141.14 202.105C141.14 202.824 141.525 203.484 142.144 203.843L169.258 219.377C170.259 219.951 171.487 219.948 172.484 219.371L189.367 209.595" fill="#F0F4FF"/>
<path d="M138.232 208.768C138.232 206.54 139.22 204.429 140.989 202.549C141.115 203.16 141.495 203.696 142.044 204.015L142.045 204.016L169.16 219.549C170.155 220.12 171.363 220.153 172.382 219.65L172.583 219.542L189.12 209.967C188.571 213.376 185.7 216.463 181.291 218.73C176.721 221.082 170.537 222.529 163.724 222.529C156.913 222.529 150.523 220.972 145.843 218.463C141.154 215.949 138.232 212.511 138.232 208.768ZM137.835 208.768C137.835 212.732 140.921 216.274 145.657 218.812C150.403 221.357 156.858 222.926 163.724 222.926C170.589 222.926 176.837 221.468 181.473 219.083C186.102 216.702 189.165 213.373 189.568 209.613L189.371 209.592L189.366 209.591L189.268 209.424L172.384 219.199L172.207 219.294C171.305 219.739 170.237 219.71 169.357 219.205L142.243 203.671C141.685 203.347 141.338 202.752 141.338 202.105V201.626L141 201.966C138.996 203.973 137.836 206.287 137.835 208.768Z" fill="#0B4D5E"/>
<path d="M203.96 185.966C203.96 205.219 217.467 213.019 234.142 203.382C250.837 193.734 264.386 170.265 264.386 150.974C264.386 131.682 250.837 123.907 234.142 133.593C217.464 143.269 203.96 166.713 203.96 185.966Z" fill="#F0F4FF"/>
<path d="M264.584 150.974C264.584 141.286 261.181 134.437 255.623 131.245C250.066 128.053 242.426 128.558 234.043 133.422L233.26 133.888C225.196 138.802 217.927 146.887 212.624 156.089C207.151 165.588 203.761 176.296 203.761 185.966C203.761 195.634 207.154 202.48 212.699 205.68C218.07 208.78 225.394 208.42 233.459 203.994L234.242 203.554C242.626 198.709 250.21 190.4 255.697 180.894C261.184 171.387 264.584 160.662 264.584 150.974ZM264.188 150.974C264.188 160.576 260.814 171.233 255.353 180.695C249.892 190.158 242.353 198.408 234.043 203.21L233.267 203.648C225.277 208.032 218.107 208.343 212.897 205.336C207.519 202.232 204.158 195.551 204.158 185.966C204.158 176.382 207.52 165.742 212.968 156.287C218.246 147.128 225.472 139.098 233.466 134.227L234.242 133.765C242.553 128.943 250.035 128.492 255.426 131.589C260.817 134.685 264.188 141.37 264.188 150.974Z" fill="#0B4D5E"/>
<path d="M186.487 171.378L186.718 171.134V161.574L186.487 161.817V171.378Z" fill="#0B4D5E"/>
<path d="M186.575 161.437L186.343 161.681L186.289 161.739V171.875L186.916 171.213V161.076L186.575 161.437Z" fill="#0B4D5E"/>
<path d="M178.607 176.276L178.838 176.187V166.623L178.607 166.709V176.276Z" fill="#0B4D5E"/>
<path d="M178.537 166.524L178.409 166.572V176.566L178.91 176.372L179.036 176.322V166.336L178.537 166.524Z" fill="#0B4D5E"/>
<path d="M168.79 178.582L169.021 178.559V168.995L168.79 169.021V178.585V178.582Z" fill="#0B4D5E"/>
<path d="M168.999 168.798L168.768 168.823L168.592 168.844V178.585H168.79L168.809 178.779L169.04 178.757L169.219 178.739V168.773L168.999 168.798Z" fill="#0B4D5E"/>
<path d="M158.947 178.614L159.178 178.639V169.072L158.947 169.05V178.614Z" fill="#0B4D5E"/>
<path d="M158.749 178.791L158.925 178.811L159.156 178.837L159.376 178.861V168.893L159.197 168.875L158.966 168.853L158.749 168.831V178.791Z" fill="#0B4D5E"/>
<path d="M149.961 176.686L150.192 176.763V167.199L149.961 167.122V176.686Z" fill="#0B4D5E"/>
<path d="M149.763 176.829L150.39 177.038V167.056L150.254 167.011L150.024 166.934L149.763 166.847V176.829Z" fill="#0B4D5E"/>
<path d="M142.159 172.49L142.389 172.673V163.115L142.159 162.926V172.49Z" fill="#0B4D5E"/>
<path d="M141.961 172.586L142.266 172.829L142.588 173.083V163.022L142.515 162.962L142.284 162.773L141.961 162.507V172.586Z" fill="#0B4D5E"/>
<path d="M186.487 198.144L186.718 197.903V188.339L186.487 188.583V198.144Z" fill="#0B4D5E"/>
<path d="M186.575 188.203L186.343 188.447L186.289 188.504V198.636L186.861 198.041L186.916 197.983V187.841L186.575 188.203Z" fill="#0B4D5E"/>
<path d="M178.607 203.042L178.838 202.955V193.388L178.607 193.478V203.042Z" fill="#0B4D5E"/>
<path d="M178.535 193.293L178.409 193.342V203.328L178.677 203.228L178.907 203.141L179.036 203.093V193.098L178.535 193.293Z" fill="#0B4D5E"/>
<path d="M168.79 205.355L169.021 205.329V195.762L168.79 195.788V205.355Z" fill="#0B4D5E"/>
<path d="M168.999 195.565L168.768 195.59L168.592 195.611V205.577L169.219 205.507V195.541L168.999 195.565Z" fill="#0B4D5E"/>
<path d="M158.947 205.383L159.178 205.405V195.841L158.947 195.815V205.383Z" fill="#0B4D5E"/>
<path d="M158.749 205.562L159.158 205.603L159.376 205.624V195.664L159.199 195.644L158.749 195.594V205.562Z" fill="#0B4D5E"/>
<path d="M149.961 203.455L150.192 203.532V193.968L149.961 193.891V203.455Z" fill="#0B4D5E"/>
<path d="M149.763 203.598L150.39 203.807V193.825L150.254 193.78L150.024 193.703L149.763 193.616V203.598Z" fill="#0B4D5E"/>
<path d="M142.159 199.257L142.389 199.44V189.883L142.159 189.693V199.257Z" fill="#0B4D5E"/>
<path d="M141.961 199.354L142.266 199.596L142.588 199.85V189.789L142.515 189.729L142.284 189.54L141.961 189.274V199.354Z" fill="#0B4D5E"/>
<path d="M186.487 224.812L186.718 224.571V215.007L186.487 215.251V224.812Z" fill="#0B4D5E"/>
<path d="M186.575 214.871L186.343 215.115L186.289 215.172V225.304L186.861 224.708L186.916 224.651V214.509L186.575 214.871Z" fill="#0B4D5E"/>
<path d="M178.607 229.712L178.838 229.625V220.058L178.607 220.148V229.712Z" fill="#0B4D5E"/>
<path d="M178.535 219.963L178.409 220.012V229.998L178.677 229.898L178.907 229.811L179.036 229.763V219.768L178.535 219.963Z" fill="#0B4D5E"/>
<path d="M168.79 232.022L169.021 231.997V222.433L168.79 222.455V232.022Z" fill="#0B4D5E"/>
<path d="M169.001 222.235L168.592 222.275V232.244L168.812 232.22L169.042 232.193L169.219 232.174V222.214L169.001 222.235Z" fill="#0B4D5E"/>
<path d="M158.947 232.053L159.178 232.075V222.511L158.947 222.485V232.053Z" fill="#0B4D5E"/>
<path d="M158.749 232.232L159.158 232.272L159.376 232.293V222.334L159.199 222.313L158.749 222.264V232.232Z" fill="#0B4D5E"/>
<path d="M149.961 230.123L150.192 230.2V220.636L149.961 220.559V230.123Z" fill="#0B4D5E"/>
<path d="M149.763 230.266L150.39 230.475V220.493L150.254 220.448L150.024 220.371L149.763 220.284V230.266Z" fill="#0B4D5E"/>
<path d="M142.159 225.924L142.389 226.107V216.55L142.159 216.36V225.924Z" fill="#0B4D5E"/>
<path d="M141.961 226.021L142.266 226.263L142.588 226.517V216.456L142.515 216.396L142.284 216.207L141.961 215.941V226.021Z" fill="#0B4D5E"/>
<path d="M260.522 131.971L252.183 127.197V127.203C246.479 124.388 238.839 125.077 230.442 129.944C212.831 140.162 198.573 164.911 198.573 185.241C198.573 195.488 202.199 202.666 208.05 205.956L214.966 209.935L260.522 131.971Z" fill="#0B4D5E"/>
<path d="M198.771 185.241C198.771 175.119 202.322 163.883 208.075 153.9C213.649 144.228 221.279 135.749 229.723 130.603L230.542 130.116C238.904 125.269 246.472 124.605 252.096 127.38L252.168 127.415L260.251 132.043L214.894 209.664L208.149 205.784L208.147 205.783L207.613 205.468C202.159 202.095 198.771 195.127 198.771 185.241ZM198.375 185.241C198.375 195.528 202.017 202.789 207.952 206.126L207.951 206.127L214.867 210.107L215.038 210.204L215.138 210.035L260.693 132.071L260.795 131.898L251.985 126.855V126.89C246.234 124.197 238.636 124.966 230.343 129.773L229.517 130.264C221.003 135.452 213.33 143.987 207.731 153.701C201.953 163.729 198.375 175.033 198.375 185.241Z" fill="#0B4D5E"/>
<path d="M205.697 189.009C205.665 209.343 219.887 217.643 237.47 207.525C255.065 197.403 269.336 172.693 269.336 152.356C269.336 132.02 255.091 123.802 237.528 133.928C219.977 144.046 205.726 168.698 205.694 189.009H205.697Z" fill="#8AE5CC"/>
<path d="M260.117 131.547C254.278 128.169 246.246 128.673 237.429 133.756L236.605 134.242C228.12 139.383 220.462 147.87 214.869 157.547C209.096 167.536 205.511 178.811 205.495 189.009V189.208H205.501C205.531 199.311 209.084 206.48 214.878 209.858C220.528 213.152 228.241 212.803 236.743 208.159L237.568 207.697C246.404 202.614 254.393 193.877 260.173 183.87C265.953 173.863 269.534 162.568 269.534 152.357C269.534 142.147 265.957 134.926 260.117 131.547ZM269.138 152.357C269.138 162.482 265.583 173.71 259.829 183.672C254.075 193.635 246.131 202.313 237.371 207.353L236.553 207.812C228.126 212.414 220.568 212.716 215.078 209.516C209.411 206.212 205.88 199.135 205.896 189.01V188.811H205.895C205.957 178.75 209.503 167.625 215.213 157.745C220.781 148.112 228.395 139.68 236.81 134.582L237.627 134.1C246.372 129.058 254.245 128.608 259.919 131.891C265.593 135.174 269.138 142.23 269.138 152.357Z" fill="#0B4D5E"/>
<path d="M254.292 186.107L234.516 136.441L228.649 141.224L249.511 192.247C251.242 190.529 253.394 187.848 254.295 186.111L254.292 186.107Z" fill="#F0F4FF"/>
<path d="M228.523 141.071L228.41 141.164L228.466 141.299L249.44 192.597L249.651 192.388C251.39 190.662 253.557 187.965 254.471 186.202L254.538 186.073L254.46 185.996L234.7 136.368L234.6 136.117L228.523 141.071ZM254.075 186.099C253.201 187.743 251.238 190.209 249.582 191.894L228.889 141.286L234.432 136.765L254.075 186.099Z" fill="#0B4D5E"/>
<path d="M247.644 194.368L226.448 143.567C221.712 148.059 217.509 153.843 213.806 160.835L232.825 205.638C238.115 203.371 243.95 198.511 247.644 194.368Z" fill="#F0F4FF"/>
<path d="M226.311 143.423C221.557 147.933 217.342 153.736 213.631 160.743L213.586 160.826L213.623 160.913L232.643 205.715L232.72 205.899L232.902 205.821C238.228 203.539 244.087 198.656 247.792 194.5L247.875 194.408L247.826 194.292L226.631 143.491L226.519 143.225L226.311 143.423ZM247.412 194.328C243.769 198.389 238.096 203.107 232.929 205.375L214.026 160.845C217.657 154.007 221.764 148.337 226.377 143.91L247.412 194.328Z" fill="#0B4D5E"/>
<path d="M237.602 133.887C255.207 123.736 269.484 131.995 269.484 152.361C269.484 172.726 255.178 197.513 237.541 207.661C219.913 217.802 205.659 209.482 205.691 189.103C205.723 168.744 220.003 144.034 237.598 133.89L237.602 133.887ZM237.547 205.926C254.421 196.218 268.111 172.518 268.111 153.012C268.111 133.505 254.45 125.625 237.602 135.336C220.766 145.044 207.101 168.687 207.069 188.17C207.037 207.67 220.679 215.634 237.547 205.929V205.926Z" fill="#F0F4FF"/>
<path d="M269.682 152.36C269.682 142.136 266.096 134.898 260.243 131.509C254.574 128.225 246.842 128.592 238.329 133.251L237.502 133.715L237.48 133.728L237.476 133.732C228.65 138.828 220.668 147.564 214.887 157.567C209.101 167.58 205.508 178.881 205.492 189.103C205.476 199.334 209.048 206.59 214.894 209.998C220.557 213.299 228.289 212.95 236.813 208.296L237.64 207.832C246.496 202.737 254.504 193.974 260.298 183.941C266.092 173.908 269.682 162.586 269.682 152.36ZM259.274 133.046C253.669 129.803 245.962 130.287 237.502 135.164L236.712 135.632C228.571 140.564 221.227 148.706 215.862 157.988C210.325 167.57 206.887 178.385 206.871 188.17C206.855 197.961 210.274 204.909 215.871 208.173C221.469 211.436 229.176 210.975 237.646 206.101L237.745 206.044V206.038C246.18 201.154 253.806 192.803 259.328 183.242C264.873 173.643 268.31 162.808 268.31 153.012C268.31 143.217 264.878 136.288 259.274 133.046ZM267.913 153.012C267.913 162.722 264.504 173.489 258.986 183.044C253.467 192.598 245.848 200.921 237.448 205.754L237.349 205.811V205.813C228.991 210.591 221.481 210.985 216.07 207.83C210.638 204.663 207.252 197.879 207.268 188.171C207.284 178.472 210.694 167.724 216.206 158.186C221.546 148.947 228.847 140.86 236.917 135.971L237.7 135.508C246.088 130.673 253.637 130.242 259.075 133.389C264.514 136.535 267.913 143.3 267.913 153.012ZM269.285 152.36C269.285 162.5 265.723 173.754 259.954 183.743C254.186 193.732 246.223 202.436 237.442 207.488L236.621 207.948C228.173 212.561 220.596 212.863 215.093 209.655C209.413 206.344 205.873 199.251 205.889 189.103C205.905 178.967 209.469 167.734 215.23 157.766C220.99 147.797 228.937 139.112 237.697 134.061L237.72 134.049L237.723 134.046C246.48 129.003 254.363 128.561 260.045 131.851C265.732 135.145 269.285 142.219 269.285 152.36Z" fill="#0B4D5E"/>
<path d="M235.873 205.034C252.757 195.322 266.453 171.606 266.453 152.094C266.453 142.591 263.202 135.842 257.919 132.542C264.177 135.396 268.114 142.517 268.114 152.982C268.114 172.494 254.421 196.21 237.534 205.922C228.906 210.885 221.125 211.228 215.581 207.769C220.971 210.224 228.076 209.513 235.87 205.027L235.873 205.034Z" fill="#0B4D5E"/>
<path d="M266.651 152.093C266.651 144.104 264.361 138.02 260.471 134.286C265.092 137.737 267.916 144.137 267.916 152.982C267.916 162.695 264.507 173.468 258.985 183.028C253.464 192.587 245.841 200.915 237.436 205.75H237.435C230.216 209.902 223.628 210.787 218.469 208.943C223.409 210.062 229.374 208.948 235.786 205.301L235.79 205.31L235.972 205.206C244.451 200.328 252.119 191.942 257.666 182.338C263.213 172.734 266.651 161.893 266.651 152.093ZM266.255 152.093C266.255 161.807 262.845 172.58 257.323 182.14C251.841 191.631 244.288 199.905 235.956 204.754L235.953 204.75L235.771 204.855C228.011 209.321 220.976 210.009 215.664 207.588L215.477 207.937C220.928 211.339 228.479 211.098 236.823 206.547L237.633 206.093C246.114 201.216 253.781 192.83 259.328 183.226C264.875 173.622 268.312 162.781 268.312 152.982C268.312 142.472 264.356 135.259 258.001 132.362L257.813 132.71C263.019 135.961 266.255 142.631 266.255 152.093Z" fill="#0B4D5E"/>
<path d="M216.804 202.42C215.605 190.692 220.732 175.854 227.429 168.98C227.737 168.666 228.189 168.551 228.625 168.618C230.074 168.836 233.646 169.054 237.897 166.992C241.665 165.165 244.002 162.238 244.948 160.862C245.255 160.416 245.797 160.163 246.32 160.298C252.117 161.779 254.948 166.319 255.063 172.763C255.063 172.914 255.044 173.058 254.986 173.196C254.387 174.71 250.315 184.302 240.257 193.071C240.196 193.126 240.145 193.177 240.094 193.241C239.189 194.376 229.568 206.13 220.453 204.674C220.292 204.649 220.138 204.588 220.004 204.501C219.305 204.052 217.054 202.603 216.801 202.424C216.801 202.424 216.801 202.424 216.801 202.42H216.804Z" fill="#0B4D5E"/>
<path d="M246.37 160.106C245.753 159.947 245.131 160.248 244.785 160.749L244.784 160.75L244.369 161.327C243.248 162.818 241.069 165.233 237.811 166.814L237.419 166.999C233.388 168.84 230.034 168.629 228.656 168.422L228.471 168.403C228.04 168.382 227.603 168.52 227.288 168.842H227.287C223.91 172.308 220.941 177.766 218.966 183.818C216.997 189.855 216.01 196.503 216.602 202.388V202.527L216.686 202.585C216.944 202.768 219.202 204.221 219.897 204.667L219.896 204.668C220.013 204.744 220.144 204.802 220.282 204.84L220.421 204.87C225.067 205.612 229.81 202.989 233.475 200.085C237.15 197.173 239.793 193.937 240.249 193.364V193.365C240.291 193.313 240.333 193.27 240.387 193.221L241.316 192.394C250.723 183.836 254.578 174.764 255.17 173.273L255.213 173.146C255.249 173.018 255.261 172.889 255.261 172.764V172.76L255.243 172.156C255.108 169.165 254.368 166.588 252.986 164.558C251.51 162.389 249.31 160.858 246.37 160.107V160.106ZM246.27 160.49H246.271C249.127 161.22 251.241 162.699 252.658 164.781C254.077 166.867 254.808 169.572 254.865 172.767C254.865 172.866 254.855 172.955 254.832 173.038L254.803 173.12L254.801 173.123L254.649 173.496C253.71 175.735 249.799 184.141 241.049 192.101L240.127 192.922L240.125 192.924L240.03 193.015C239.999 193.046 239.969 193.08 239.939 193.117H239.938C239.49 193.68 236.87 196.889 233.229 199.774C229.579 202.666 224.953 205.192 220.484 204.479L220.386 204.457C220.289 204.431 220.196 204.389 220.111 204.334L218.342 203.195C217.755 202.815 217.211 202.459 216.994 202.313C216.416 196.504 217.391 189.927 219.343 183.942C221.306 177.925 224.25 172.527 227.571 169.118V169.119C227.794 168.891 228.116 168.783 228.451 168.799L228.595 168.814C230.026 169.029 233.463 169.241 237.583 167.36L237.984 167.171C241.557 165.438 243.855 162.73 244.916 161.253L245.111 160.975C245.38 160.585 245.842 160.38 246.27 160.49Z" fill="#0B4D5E"/>
<path d="M221.149 205.065C220.642 204.969 220.28 204.533 220.241 204.02C219.363 192.43 224.393 178.04 230.931 171.327C231.238 171.012 231.69 170.897 232.126 170.964C233.576 171.182 237.147 171.4 241.399 169.336C245.166 167.508 247.503 164.581 248.449 163.205C248.757 162.76 249.299 162.506 249.821 162.641C255.618 164.122 258.449 168.662 258.564 175.107C258.564 175.257 258.545 175.402 258.487 175.539C257.888 177.056 253.794 186.7 243.669 195.495C243.669 195.495 243.669 195.495 243.662 195.501C243.563 195.588 230.757 206.893 221.145 205.065H221.149Z" fill="#F0F4FF"/>
<path d="M249.871 162.449C249.254 162.29 248.632 162.591 248.286 163.092V163.093L247.87 163.671C246.749 165.162 244.571 167.576 241.312 169.157L240.92 169.342C236.889 171.186 233.535 170.975 232.157 170.768L231.973 170.75C231.542 170.729 231.104 170.866 230.789 171.188H230.788L230.48 171.511C227.311 174.906 224.526 180.064 222.617 185.782C220.707 191.502 219.668 197.801 220.007 203.487L220.044 204.035C220.089 204.63 220.509 205.144 221.109 205.259L221.108 205.26C223.555 205.726 226.193 205.352 228.765 204.543C231.337 203.732 233.857 202.48 236.072 201.172C240.493 198.56 243.725 195.71 243.792 195.651L243.803 195.641C243.803 195.64 243.804 195.639 243.805 195.638C253.951 186.823 258.06 177.159 258.671 175.616L258.715 175.489C258.751 175.361 258.763 175.233 258.763 175.107V175.103L258.744 174.5C258.609 171.508 257.869 168.932 256.487 166.901C255.011 164.732 252.811 163.201 249.871 162.45V162.449ZM249.771 162.834H249.772C252.628 163.563 254.742 165.043 256.159 167.125C257.578 169.21 258.309 171.915 258.366 175.11C258.366 175.209 258.356 175.299 258.333 175.381L258.305 175.464L258.303 175.466L258.15 175.84C257.209 178.087 253.275 186.536 244.467 194.521L243.539 195.345L243.532 195.351L242.934 195.859C241.803 196.796 239.17 198.881 235.87 200.831C233.67 202.13 231.18 203.367 228.645 204.165C226.111 204.963 223.544 205.318 221.185 204.871L221.036 204.829C220.702 204.702 220.468 204.382 220.439 204.006V204.005C220.003 198.241 221.035 191.774 222.993 185.908C224.891 180.223 227.652 175.122 230.769 171.783L231.072 171.465C231.296 171.238 231.617 171.13 231.952 171.146L232.097 171.161C233.527 171.376 236.965 171.587 241.085 169.703L241.485 169.514C245.058 167.781 247.356 165.073 248.417 163.596L248.612 163.318C248.882 162.928 249.344 162.723 249.771 162.834Z" fill="#0B4D5E"/>
<path d="M227.409 157.399C226.928 163.728 232.901 169.332 238.611 166.591C244.325 163.846 250.971 154.757 251.449 148.425C251.923 142.099 244.318 138.229 238.611 140.974C232.904 143.718 227.89 151.07 227.412 157.395L227.409 157.399Z" fill="#0B4D5E"/>
<path d="M247.445 141.124C244.839 139.681 241.443 139.392 238.526 140.795C235.634 142.185 232.928 144.736 230.887 147.729C228.862 150.699 227.48 154.121 227.222 157.305L227.217 157.31L227.211 157.383C226.966 160.613 228.367 163.657 230.559 165.545C232.686 167.378 235.572 168.132 238.421 166.895L238.698 166.769C241.596 165.377 244.709 162.39 247.155 158.968C249.523 155.655 251.291 151.9 251.619 148.743L251.647 148.439C251.891 145.184 250.053 142.568 247.445 141.124ZM238.698 141.152C241.488 139.81 244.748 140.084 247.252 141.471C249.754 142.857 251.482 145.34 251.251 148.41L251.225 148.704C250.906 151.762 249.182 155.45 246.832 158.737C244.407 162.129 241.341 165.059 238.526 166.412L238.266 166.531C235.577 167.699 232.85 166.996 230.818 165.246C228.733 163.449 227.393 160.557 227.603 157.485L227.605 157.483L227.61 157.41C227.845 154.29 229.203 150.903 231.215 147.953C233.227 145.002 235.883 142.505 238.698 141.152Z" fill="#0B4D5E"/>
<path d="M230.074 160.24C229.568 166.921 234.044 169.993 240.074 167.094C246.105 164.196 251.402 156.424 251.908 149.743C252.408 143.061 247.929 139.999 241.905 142.898C235.881 145.796 230.587 153.558 230.081 160.236L230.074 160.24Z" fill="#F0F4FF"/>
<path d="M249.465 142.564C247.576 141.271 244.869 141.252 241.819 142.719C238.769 144.187 235.914 146.879 233.76 150.037C231.63 153.161 230.175 156.758 229.895 160.108L229.885 160.113L229.877 160.225C229.621 163.607 230.623 166.128 232.511 167.423C234.399 168.718 237.107 168.74 240.16 167.273C243.214 165.805 246.071 163.11 248.227 159.949C250.248 156.985 251.664 153.595 252.044 150.395L252.106 149.757C252.359 146.375 251.354 143.856 249.465 142.564ZM241.991 143.076C244.966 141.645 247.51 141.707 249.241 142.891C250.973 144.075 251.957 146.428 251.71 149.728L251.65 150.349C251.278 153.471 249.894 156.802 247.9 159.726C245.773 162.845 242.965 165.485 239.988 166.915C237.011 168.346 234.466 168.282 232.735 167.096C231.024 165.923 230.046 163.607 230.266 160.366L230.27 160.364L230.278 160.251C230.528 156.955 231.963 153.378 234.088 150.261C236.213 147.145 239.018 144.507 241.991 143.076Z" fill="#0B4D5E"/>
<path d="M164.073 130.08C164.073 133.546 169.245 136.357 175.625 136.357C182.005 136.357 187.18 133.539 187.18 130.073L187.231 92.3497C187.231 70.301 201.111 71.3141 201.111 71.3141C209.777 71.3141 209.69 81.6347 209.69 81.6347L209.639 104.1C209.639 107.573 214.82 110.388 221.21 110.388C227.6 110.388 232.781 107.573 232.781 104.1L232.832 71.5546C232.832 71.5546 233.698 43.9271 200.713 46.1234C200.713 46.1234 164.124 48.7267 164.124 88.3709L164.073 130.077V130.08Z" fill="#8AE5CC"/>
<path d="M164.33 87.4519C164.607 68.2975 173.57 58.0364 182.522 52.5496C187.074 49.7596 191.628 48.2016 195.044 47.3416C196.752 46.9116 198.176 46.6564 199.17 46.5086C199.668 46.4347 200.058 46.3876 200.324 46.3592C200.456 46.3449 200.557 46.3349 200.625 46.3289C200.659 46.3259 200.686 46.3244 200.703 46.323C200.711 46.3224 200.717 46.3214 200.721 46.3211H200.727V46.3201C208.945 45.773 215.039 47.0853 219.558 49.3474C224.077 51.6094 227.035 54.8283 228.971 58.116C230.909 61.4055 231.825 64.7658 232.256 67.3054C232.472 68.5747 232.567 69.6379 232.607 70.3826C232.627 70.7545 232.634 71.0469 232.635 71.2459C232.636 71.3451 232.636 71.4215 232.635 71.4724C232.635 71.4979 232.635 71.5174 232.634 71.5301V71.5476C232.634 71.5477 232.634 71.5483 232.833 71.5545L232.634 71.5486V71.5545L232.583 104.099V104.1L232.569 104.404C232.427 105.917 231.235 107.319 229.297 108.372C227.238 109.491 224.379 110.189 221.21 110.189C218.042 110.189 215.182 109.491 213.123 108.372C211.184 107.319 209.992 105.917 209.851 104.404L209.837 104.1L209.888 81.6345V81.6043C209.888 81.5838 209.888 81.5532 209.887 81.5144C209.886 81.4369 209.883 81.3236 209.875 81.1804C209.861 80.8938 209.83 80.4854 209.765 79.9959C209.636 79.0176 209.373 77.7099 208.833 76.3992C208.294 75.0885 207.475 73.7659 206.231 72.7713C204.986 71.7764 203.327 71.1187 201.124 71.116H201.122C201.12 71.1159 201.116 71.1152 201.113 71.115C201.105 71.1146 201.094 71.1147 201.081 71.114C201.053 71.1127 201.011 71.1112 200.958 71.1101C200.853 71.108 200.7 71.1072 200.506 71.115C200.118 71.1307 199.566 71.1786 198.905 71.3054C197.582 71.5591 195.818 72.1305 194.055 73.4021C190.519 75.9527 187.033 81.2817 187.033 92.3494L186.982 130.073L186.967 130.377C186.826 131.887 185.635 133.287 183.7 134.341C181.643 135.46 178.788 136.159 175.624 136.159C172.461 136.159 169.607 135.461 167.551 134.344C165.488 133.222 164.271 131.706 164.271 130.08V130.077L164.323 88.3709L164.33 87.4519ZM163.874 130.076V130.08C163.875 131.92 165.245 133.542 167.362 134.692C169.486 135.847 172.408 136.555 175.624 136.555C178.841 136.555 181.765 135.846 183.89 134.689C185.942 133.573 187.292 132.014 187.374 130.245L187.378 130.073L187.429 92.3494C187.429 81.3687 190.883 76.1795 194.287 73.7244C195.993 72.4935 197.7 71.9405 198.979 71.6951C199.618 71.5725 200.151 71.5265 200.522 71.5115C200.707 71.504 200.853 71.5047 200.951 71.5066C200.999 71.5076 201.036 71.5084 201.061 71.5095C201.073 71.5101 201.083 71.5111 201.088 71.5115H201.096L201.103 71.5125H201.111C203.235 71.5125 204.81 72.1438 205.984 73.0818C207.16 74.0222 207.945 75.2803 208.467 76.5496C208.989 77.8188 209.246 79.0909 209.372 80.0476C209.434 80.5253 209.465 80.9232 209.479 81.2009C209.486 81.3396 209.489 81.4486 209.491 81.5222C209.491 81.559 209.492 81.5876 209.492 81.6062V81.6345L209.441 104.099V104.1L209.445 104.272C209.527 106.044 210.88 107.604 212.934 108.72C215.062 109.877 217.989 110.586 221.21 110.586C224.432 110.586 227.359 109.877 229.487 108.72C231.541 107.604 232.893 106.044 232.975 104.272L232.979 104.1L233.031 71.5545C233.031 71.5508 233.031 71.5456 233.031 71.5388C233.031 71.5249 233.031 71.5041 233.032 71.4773C233.032 71.4238 233.034 71.3451 233.033 71.2429C233.031 71.0384 233.024 70.7397 233.003 70.3611C232.962 69.6037 232.866 68.5252 232.648 67.239C232.211 64.6673 231.282 61.2575 229.313 57.9148C227.343 54.5702 224.332 51.2935 219.736 48.9929C215.141 46.6929 208.973 45.3747 200.7 45.9256H200.692C200.687 45.9259 200.679 45.9268 200.67 45.9275C200.652 45.929 200.625 45.9312 200.59 45.9343C200.52 45.9406 200.416 45.9501 200.281 45.9646C200.01 45.9936 199.615 46.0413 199.112 46.116C198.106 46.2654 196.67 46.5233 194.948 46.9568C191.504 47.8238 186.91 49.3953 182.315 52.2117C173.115 57.8506 163.926 68.4734 163.926 88.3709L163.874 130.076Z" fill="#0B4D5E"/>
<path d="M185.499 91.3462L185.701 133.142C187.32 131.612 187.172 130.07 187.172 130.07C187.272 130.064 187.262 115.896 187.243 91.8432C187.435 72.587 198.413 71.1539 201.106 71.311C210.023 71.84 209.657 82.7698 209.657 82.7698L209.567 103.549C209.513 109.75 218.734 110.243 218.734 110.243L218.785 83.0263C218.785 83.0263 219.327 65.2129 200.722 67.4796C200.722 67.4796 185.495 69.2911 185.495 91.3398L185.499 91.3462Z" fill="#0B4D5E"/>
<path d="M211.486 68.7774C208.878 67.4037 205.38 66.7128 200.698 67.2833H200.694C200.692 67.2836 200.689 67.2838 200.685 67.2843C200.677 67.2853 200.665 67.287 200.65 67.2892C200.62 67.2935 200.575 67.3001 200.518 67.3097C200.403 67.3289 200.236 67.3602 200.024 67.4073C199.6 67.5015 198.997 67.6607 198.275 67.921C196.83 68.4416 194.905 69.3679 192.981 70.9903C189.125 74.2413 185.297 80.2642 185.297 91.3399V91.3868L185.301 91.3927L185.504 133.6L185.836 133.286C186.674 132.495 187.059 131.695 187.234 131.087C187.321 130.784 187.355 130.529 187.368 130.349C187.374 130.258 187.375 130.186 187.374 130.136C187.373 130.118 187.373 130.103 187.373 130.091C187.375 130.076 187.377 130.062 187.378 130.049C187.382 130.016 187.385 129.97 187.388 129.914C187.394 129.801 187.398 129.635 187.403 129.417C187.412 128.981 187.42 128.331 187.426 127.479C187.439 125.773 187.447 123.249 187.451 119.975C187.458 113.425 187.451 103.87 187.441 91.8448L187.458 90.9591C187.711 81.9379 190.412 77.059 193.368 74.4454C196.233 71.912 199.367 71.4812 200.826 71.5001L201.094 71.5089C203.279 71.6385 204.885 72.4036 206.071 73.4718C207.259 74.5427 208.034 75.9275 208.539 77.3067C209.043 78.6858 209.273 80.0519 209.377 81.0743C209.429 81.5847 209.45 82.0083 209.458 82.3038C209.461 82.4515 209.461 82.5673 209.46 82.6456C209.46 82.6847 209.46 82.7147 209.459 82.7345C209.459 82.7444 209.46 82.7521 209.459 82.7569C209.459 82.7591 209.459 82.7608 209.459 82.7618V82.7686L209.369 103.547L209.374 103.846C209.491 106.881 211.808 108.527 214.058 109.406C215.224 109.862 216.389 110.12 217.261 110.265C217.698 110.337 218.062 110.381 218.318 110.407C218.445 110.42 218.546 110.428 218.615 110.434C218.649 110.436 218.677 110.438 218.695 110.44C218.704 110.44 218.711 110.44 218.715 110.441C218.718 110.441 218.72 110.441 218.721 110.442H218.723L218.931 110.452L218.932 110.244L218.983 83.0265C218.983 83.0242 218.984 83.0212 218.984 83.0177C218.984 83.0086 218.984 82.9949 218.984 82.9776C218.984 82.9429 218.985 82.8921 218.985 82.8263C218.984 82.694 218.981 82.5009 218.97 82.2569C218.948 81.7688 218.896 81.0748 218.775 80.2501C218.533 78.6016 218.015 76.4217 216.906 74.3106C215.796 72.1981 214.094 70.1511 211.486 68.7774ZM200.746 67.6769C205.365 67.114 208.777 67.7994 211.3 69.128C213.823 70.4568 215.475 72.4379 216.555 74.4952C217.637 76.5541 218.144 78.6871 218.382 80.3077C218.501 81.1172 218.552 81.7975 218.574 82.2745C218.584 82.5129 218.588 82.7008 218.588 82.8282C218.589 82.8917 218.588 82.9403 218.587 82.9728C218.587 82.9888 218.588 83.0009 218.587 83.0089C218.587 83.0127 218.586 83.0158 218.586 83.0177V83.0265L218.537 110.028C218.486 110.024 218.426 110.02 218.358 110.013C218.11 109.988 217.754 109.945 217.327 109.874C216.472 109.732 215.335 109.48 214.203 109.037C211.929 108.148 209.739 106.525 209.765 103.551L209.855 82.7706L209.856 82.7423C209.856 82.7207 209.857 82.6893 209.857 82.6485C209.857 82.5664 209.858 82.4462 209.854 82.294C209.846 81.9899 209.825 81.5554 209.772 81.0333C209.666 79.99 209.43 78.5902 208.912 77.171C208.393 75.7518 207.587 74.3049 206.336 73.1778C205.083 72.048 203.391 71.2482 201.118 71.1134L200.834 71.1036C199.301 71.0832 196.062 71.5338 193.105 74.1485C189.946 76.942 187.141 82.1754 187.044 91.8409V91.8438C187.054 103.87 187.062 113.425 187.054 119.974C187.05 123.248 187.043 125.771 187.03 127.476C187.023 128.328 187.016 128.975 187.006 129.408C187.002 129.618 186.998 129.776 186.993 129.883L186.956 129.886L186.975 130.089C186.975 130.091 186.976 130.095 186.976 130.1C186.977 130.109 186.977 130.124 186.977 130.144C186.978 130.183 186.977 130.244 186.972 130.321C186.962 130.478 186.931 130.704 186.853 130.978C186.721 131.438 186.449 132.033 185.897 132.652L185.697 91.3458V91.2989L185.695 91.2931C185.706 80.3503 189.485 74.4556 193.236 71.2931C195.118 69.7067 197 68.8021 198.41 68.294C199.114 68.0401 199.701 67.885 200.11 67.794C200.314 67.7485 200.475 67.7194 200.584 67.7013C200.637 67.6923 200.678 67.6856 200.706 67.6817C200.719 67.6798 200.729 67.6787 200.736 67.6778C200.739 67.6774 200.742 67.677 200.744 67.6769H200.746Z" fill="#0B4D5E"/>
<path d="M209.481 48.595C209.796 48.595 209.828 48.1365 209.517 48.0949C202.45 47.1138 184.377 46.8284 171.514 66.0461C171.514 66.0461 166.298 73.6576 166.304 87.0497L166.253 127.136C166.253 127.806 166.618 128.425 167.205 128.749C168.103 129.246 169.202 128.595 169.202 127.569L169.254 87.1426C169.254 87.1426 168.847 76.1295 174.008 67.0112C174.008 67.0112 184.839 48.7297 209.481 48.595Z" fill="#F0F4FF"/>
<path d="M209.516 48.0953C202.45 47.1143 184.377 46.829 171.514 66.0465C171.506 66.0584 166.298 73.6681 166.304 87.0494L166.253 127.136L166.257 127.261C166.299 127.883 166.655 128.445 167.205 128.749C168.046 129.214 169.066 128.672 169.19 127.757L169.203 127.569L169.254 87.1432C169.254 87.1432 168.847 76.1297 174.009 67.0114C174.021 66.9899 184.853 48.73 209.481 48.5953C209.776 48.5953 209.823 48.1917 209.571 48.1071L209.516 48.0953ZM168.797 127.702C168.709 128.348 167.99 128.73 167.397 128.402H167.396C166.936 128.148 166.65 127.662 166.649 127.137L166.701 87.0504V87.0494L166.715 85.8209C166.859 79.7618 168.07 74.9798 169.279 71.6617C169.924 69.892 170.568 68.5387 171.05 67.6305C171.29 67.1766 171.49 66.834 171.629 66.6061C171.698 66.4921 171.753 66.4062 171.789 66.3502C171.807 66.3226 171.82 66.302 171.829 66.2887L171.841 66.2711L171.842 66.2701L171.844 66.2672C183.449 48.9287 199.318 47.6193 207.342 48.2574C196.02 48.8092 187.76 53.1816 182.258 57.5426C179.337 59.8571 177.193 62.1681 175.778 63.902C175.071 64.769 174.545 65.4925 174.195 66.0006C174.02 66.2545 173.889 66.4547 173.802 66.5924C173.758 66.6613 173.724 66.7152 173.702 66.7516C173.691 66.7696 173.682 66.784 173.677 66.7936C173.674 66.7983 173.671 66.8017 173.67 66.8043C173.669 66.8056 173.668 66.8065 173.668 66.8072V66.8082C173.668 66.8085 173.667 66.8092 174.009 67.0114L173.667 66.8092L173.663 66.816L173.423 67.2506C170.975 71.7517 169.833 76.6444 169.303 80.442C169.029 82.4041 168.918 84.0794 168.875 85.2653C168.853 85.8583 168.848 86.3292 168.849 86.653C168.85 86.8148 168.852 86.9399 168.854 87.025C168.855 87.0676 168.856 87.1005 168.856 87.1227C168.857 87.1336 168.857 87.1423 168.857 87.1481V87.1569L168.805 127.569L168.797 127.702Z" fill="#0B4D5E"/>
</svg>
