<svg width="411" height="300" viewBox="0 0 411 300" fill="none" xmlns="http://www.w3.org/2000/svg">
<g clip-path="url(#clip0_2530_13143)">
<path d="M128.343 206.141C147.326 206.141 162.716 198.488 162.716 189.049C162.716 179.609 147.326 171.957 128.343 171.957C109.359 171.957 93.9697 179.609 93.9697 189.049C93.9697 198.488 109.359 206.141 128.343 206.141Z" fill="#588995"/>
<path d="M275.146 194.442C299.214 194.442 318.724 185.797 318.724 175.132C318.724 164.468 299.214 155.822 275.146 155.822C251.079 155.822 231.568 164.468 231.568 175.132C231.568 185.797 251.079 194.442 275.146 194.442Z" fill="#588995"/>
<path d="M123.635 189.78L197.09 232.862L312.781 166.254L238.913 123.172L123.635 189.78Z" fill="#ECF8FF"/>
<path d="M197.165 232.992L197.089 233.035L197.014 232.991L197.09 232.863L197.165 232.992ZM312.856 166.124L312.78 166.254L312.855 166.384L197.165 232.992L197.09 232.863L197.014 232.991L123.337 189.78L238.838 123.042L238.913 122.998L312.856 166.124ZM123.933 189.781L197.09 232.688L312.48 166.253L238.912 123.345L123.933 189.781ZM313.08 166.255L312.855 166.384L312.78 166.254L312.856 166.124L313.08 166.255Z" fill="#588995"/>
<path d="M196.927 237.514L312.617 170.693V166.574L196.927 233.179V237.514Z" fill="#C4DAE6"/>
<path d="M197.077 233.266V237.254L312.467 170.606V166.833L197.077 233.266ZM197.002 237.645L196.776 237.774V233.093L196.852 233.049L312.542 166.444L312.767 166.314V170.78L312.691 170.823L197.002 237.645Z" fill="#588995"/>
<path d="M197.091 232.862L123.576 189.774V193.896L196.927 237.515" fill="#588995"/>
<path d="M123.652 189.644L197.167 232.733L197.016 232.992L123.727 190.036V193.81L197.004 237.386L196.851 237.644L123.499 194.025L123.426 193.981V189.512L123.652 189.644Z" fill="#588995"/>
<path d="M225.505 178.452C225.505 187.534 239.657 195.147 258.72 197.208L306.717 169.574L295.779 163.194C288.403 160.656 279.145 159.141 269.083 159.141C245.016 159.141 225.505 167.787 225.505 178.452Z" fill="#588995"/>
<path d="M148.423 188.184L199.906 218.379L239.167 195.602L187.395 165.407L148.423 188.184Z" fill="#ECF8FF"/>
<path d="M187.471 165.277L239.242 195.473L239.166 195.602L239.167 195.603L239.242 195.473L239.465 195.603L239.242 195.732L199.981 218.509L199.905 218.553L199.83 218.509L199.906 218.379L199.905 218.378L199.83 218.509L148.347 188.313L148.126 188.184L187.395 165.233L187.471 165.277ZM148.72 188.184L199.905 218.205L238.868 195.602L187.395 165.581L148.72 188.184Z" fill="#588995"/>
<path d="M186.988 190.892C190.892 188.973 190.284 185.145 185.627 182.37C180.97 179.595 174.154 178.965 170.354 180.905C166.585 182.829 167.205 186.589 171.736 189.329C176.289 192.083 183.116 192.794 186.987 190.891L186.988 190.892Z" fill="#588995"/>
<path d="M170.658 180.594C172.557 179.746 175.08 179.473 177.684 179.72C180.464 179.984 183.354 180.841 185.705 182.241C188.05 183.639 189.41 185.321 189.666 186.928C189.926 188.556 189.047 190.048 187.055 191.027L186.958 191.074L186.956 191.071C184.995 192.002 182.333 192.287 179.603 192.006C176.998 191.737 174.315 190.955 172.096 189.713L171.66 189.458C169.377 188.077 168.046 186.421 167.786 184.836C167.522 183.231 168.361 181.754 170.287 180.771L170.658 180.594ZM177.656 180.019C175.083 179.775 172.617 180.048 170.782 180.868L170.423 181.039C168.58 181.98 167.845 183.345 168.081 184.787C168.322 186.248 169.567 187.841 171.815 189.201L172.244 189.451C174.422 190.67 177.063 191.443 179.633 191.708C182.377 191.99 185.02 191.691 186.921 190.757L186.97 190.732C188.846 189.793 189.601 188.424 189.371 186.976C189.135 185.496 187.863 183.876 185.551 182.499C183.244 181.124 180.398 180.279 177.656 180.019Z" fill="#588995"/>
<path d="M199.905 218.379C185.614 210.274 180.783 197.447 191.123 191.48C201.847 185.249 223.435 187.432 238.621 195.682" fill="#588995"/>
<path d="M191.048 191.35C196.448 188.212 204.563 187.202 213.212 188.001C221.595 188.776 230.504 191.253 237.973 195.167L238.692 195.55L238.926 195.677L199.98 218.509L199.905 218.552L199.83 218.51C192.666 214.447 187.852 209.189 186.135 204.177C185.275 201.669 185.19 199.216 185.981 197.01C186.724 194.941 188.233 193.101 190.569 191.638L191.048 191.35ZM213.184 188.3C204.563 187.503 196.521 188.517 191.198 191.61L191.138 191.509L191.147 191.523L191.198 191.61L190.728 191.892C188.44 193.325 186.98 195.115 186.263 197.112C185.499 199.242 185.577 201.622 186.419 204.079C188.098 208.981 192.819 214.169 199.903 218.204L238.313 195.688C230.786 191.647 221.713 189.088 213.184 188.3Z" fill="#588995"/>
<path d="M214.018 149.96L190.821 163.455L193.332 165.035L216.529 151.453L214.018 149.96Z" fill="#588995"/>
<path d="M214.095 149.831L216.605 151.324L216.824 151.454L193.408 165.164L193.329 165.21L193.252 165.162L190.741 163.582L190.531 163.45L213.942 149.83L214.02 149.786L214.095 149.831ZM191.11 163.46L193.334 164.86L216.232 151.451L214.017 150.134L191.11 163.46Z" fill="#588995"/>
<path d="M244.151 132.429L217.637 147.854L220.155 149.33L246.583 133.856L244.151 132.429Z" fill="#588995"/>
<path d="M244.227 132.3L246.658 133.727L246.879 133.856L246.658 133.986L220.23 149.459L220.154 149.504L220.079 149.459L217.339 147.854L217.562 147.724L244.075 132.299L244.151 132.255L244.227 132.3ZM217.934 147.854L220.154 149.156L246.286 133.856L244.15 132.602L217.934 147.854Z" fill="#588995"/>
<path d="M249.763 135.721L197.276 166.256L199.787 167.835L252.198 137.149L249.763 135.721Z" fill="#588995"/>
<path d="M249.839 135.592L252.274 137.02L252.495 137.149L252.274 137.279L199.863 167.964L199.784 168.01L199.707 167.962L196.986 166.251L249.688 135.591L249.764 135.547L249.839 135.592ZM197.565 166.261L199.789 167.66L251.901 137.149L249.764 135.894L197.565 166.261Z" fill="#588995"/>
<path d="M140.74 200C154.482 197.541 163 190.066 163 182.218C163 177.501 159.434 173.208 153.608 170L122 188.728L140.74 200Z" fill="#588995"/>
<path d="M273.478 123.198C273.381 121.118 277.224 119.308 282.069 119.082C286.914 118.855 290.688 120.525 290.545 122.4C290.566 122.855 290.468 122.972 290.358 123.319C289.881 124.755 288.261 125.789 286.646 126.8C284.828 127.963 283.016 129.127 282.852 130.836C282.873 131.289 282.909 134.499 282.942 137.684C283.793 138.842 286.622 140.34 290.161 142.259C298.234 146.578 309.998 152.881 310.387 161.201C310.776 169.52 299.317 176.527 284.797 177.422L284.336 177.444C269.798 177.908 257.735 172.004 257.357 163.922L257.346 163.682C256.943 155.074 268.405 147.566 276.045 142.536C279.233 140.445 281.756 138.795 282.474 137.682C282.211 134.507 281.949 131.333 281.927 130.878C281.719 129.14 279.784 128.15 277.81 127.14C276.143 126.307 274.166 124.719 273.752 124.096C273.554 123.747 273.49 123.413 273.48 123.198H273.478Z" fill="#F35F5F"/>
<path d="M284.351 177.746C269.424 178.222 257.435 172.155 257.051 163.934L257.04 163.694C256.631 154.95 268.154 147.363 275.78 142.343L275.879 142.279C278.981 140.243 281.41 138.652 282.164 137.598C281.895 134.367 281.645 131.341 281.624 130.891C281.439 129.339 279.619 128.407 277.692 127.42C276.023 126.587 273.965 124.964 273.5 124.262C273.238 123.798 273.183 123.405 273.174 123.21C273.069 120.962 276.971 119.012 282.056 118.775C285.557 118.611 288.827 119.446 290.195 120.856C290.666 121.339 290.891 121.881 290.849 122.421C290.871 122.797 290.798 122.99 290.717 123.214C290.695 123.272 290.674 123.336 290.649 123.409C290.128 124.98 288.362 126.083 286.806 127.057C285.087 128.156 283.306 129.295 283.154 130.863C283.178 131.292 283.213 134.656 283.246 137.576C284.081 138.615 286.617 139.988 289.805 141.713L290.307 141.987C298.267 146.246 310.296 152.682 310.693 161.184C311.084 169.54 299.719 176.805 284.817 177.725L284.351 177.747L284.353 177.749L284.351 177.746ZM282.706 137.882C281.929 139.041 279.424 140.682 276.263 142.756L276.113 142.855C268.604 147.799 257.258 155.269 257.651 163.668L257.662 163.908C258.031 171.792 269.743 177.605 284.326 177.139L284.783 177.118C299.342 176.221 310.455 169.234 310.08 161.216C309.699 153.061 297.853 146.723 290.015 142.53L289.511 142.256C286.193 140.459 283.572 139.04 282.707 137.886L282.705 137.884L282.706 137.882ZM282.082 119.387C277.418 119.605 273.696 121.308 273.784 123.184C273.789 123.298 273.822 123.598 274.019 123.945C274.389 124.5 276.303 126.047 277.947 126.866C279.953 127.893 282.005 128.944 282.23 130.841C282.247 131.209 282.41 133.216 282.612 135.658C282.587 133.424 282.559 131.211 282.542 130.849C282.726 128.941 284.635 127.721 286.477 126.543C287.95 125.625 289.615 124.583 290.066 123.223C290.091 123.142 290.116 123.072 290.141 123.008C290.211 122.813 290.251 122.706 290.238 122.415C290.266 122.012 290.104 121.645 289.753 121.285C288.713 120.211 285.935 119.208 282.081 119.388L282.082 119.387Z" fill="#588995"/>
<path d="M309.302 165.947C309.114 168.065 308.527 169.938 307.608 171.587C311.25 168.517 313.33 164.802 313.145 160.857C312.028 143.945 298.315 137.877 290.258 134.3C286.889 132.805 284.512 131.765 284.454 130.523C284.409 129.568 286.716 128.141 289.957 126.119C297.606 121.328 310.458 113.322 309.867 100.675C309.169 101.355 308.403 102.013 307.574 102.651C305.676 112.732 296.323 119.591 289.858 124.35C289.8 124.377 289.746 124.426 289.691 124.478C288.95 125.35 287.796 126.076 286.646 126.801C286.544 126.877 286.439 126.955 286.336 127.007C284.585 128.432 283.489 129.608 283.534 130.565C283.626 132.525 286.751 134.873 290.797 137.917C295.68 141.594 301.908 146.287 305.766 152.504C308.415 155.112 310.24 158.022 310.388 161.202C310.465 162.851 310.08 164.428 309.302 165.949V165.947Z" fill="#C4DAE6"/>
<path d="M301.466 173.07C297.007 175.434 291.201 177.024 284.797 177.419L284.336 177.441C269.798 177.905 257.735 172 257.357 163.919L257.346 163.679C256.943 155.071 268.405 147.563 276.045 142.533C279.233 140.442 281.756 138.792 282.474 137.678C282.211 134.504 281.949 131.329 281.927 130.874C281.719 129.136 279.784 128.146 277.81 127.136C276.143 126.303 274.451 125.447 273.752 124.092C273.511 123.863 273.49 123.409 273.48 123.194C273.383 121.114 277.226 119.305 282.071 119.078C286.916 118.851 290.69 120.521 290.547 122.396C290.55 122.467 290.555 122.563 290.558 122.636C295.101 118.78 300.391 113.718 301.993 106.07C296.412 108.798 289.374 110.662 281.695 111.021C269.702 111.582 258.92 108.372 252.677 103.344C253.28 116.231 266.642 122.77 274.715 126.706C278.213 128.435 280.717 129.661 280.765 130.687C280.823 131.931 278.552 133.211 275.351 135.038C267.694 139.398 254.707 146.786 255.491 163.546C255.933 172.991 269.203 180.013 285.116 179.269C289.656 179.056 293.923 178.234 297.692 176.932C299.191 175.831 300.47 174.549 301.466 173.066V173.068V173.07Z" fill="#C4DAE6"/>
<path d="M284.032 128.694C283.383 129.323 282.928 130.015 282.851 130.834C282.872 131.287 282.908 134.497 282.941 137.682C283.792 138.84 286.62 140.338 290.16 142.257C291.821 143.139 293.639 144.107 295.482 145.17C293.507 142.891 291.435 140.901 289.571 139.12C286.144 135.806 283.424 133.201 283.312 130.811C283.28 130.118 283.544 129.412 284.032 128.694Z" fill="#C4DAE6"/>
<path d="M296.9 146.342L295.329 145.435C293.541 144.402 291.796 143.469 290.018 142.525L289.512 142.251C286.178 140.447 283.546 139.019 282.695 137.861L282.638 137.782L282.633 137.685C282.608 134.976 282.566 131.321 282.543 130.847C282.625 129.989 283.04 129.226 283.822 128.473L285.974 126.392L284.287 128.865C283.816 129.555 283.592 130.206 283.62 130.797C283.725 133.041 286.35 135.58 289.677 138.794L289.788 138.901C291.627 140.663 293.715 142.66 295.718 144.97L296.905 146.341H296.901L296.9 146.342ZM283.244 137.578C284.079 138.617 286.615 139.99 289.802 141.715L290.304 141.989C291.547 142.648 292.774 143.302 294.01 143.99C292.418 142.272 290.812 140.733 289.359 139.344L289.246 139.235C286.263 136.351 283.824 133.994 283.17 131.789C283.192 133.08 283.217 135.448 283.239 137.578H283.244Z" fill="#C4DAE6"/>
<path d="M281.051 102.261C300.029 101.373 314.998 91.7833 314.486 80.8333C313.974 69.8833 298.174 61.7083 279.196 62.5963C260.218 63.4843 245.249 73.0733 245.762 84.0483C246.275 95.0223 262.073 103.149 281.051 102.261Z" fill="#ECF8FF"/>
<path d="M279.188 62.4463C288.698 62.0013 297.42 63.827 303.833 67.1426C310.243 70.4561 314.375 75.275 314.635 80.8262C314.895 86.3774 311.23 91.5559 305.158 95.4473C299.081 99.3411 290.567 101.966 281.057 102.411C271.547 102.856 262.826 101.043 256.412 97.7363C250.203 94.535 246.131 89.9176 245.647 84.5742L245.612 84.0557C245.352 78.492 249.016 73.3074 255.088 69.4131C261.164 65.5165 269.678 62.8913 279.188 62.4463ZM303.696 67.4092C297.337 64.1219 288.67 62.3032 279.202 62.7461C269.735 63.1891 261.275 65.8026 255.25 69.666C249.222 73.5319 245.659 78.6297 245.911 84.041L245.946 84.5469C246.418 89.7469 250.387 94.2918 256.55 97.4697C262.909 100.748 271.576 102.554 281.043 102.111C290.511 101.668 298.971 99.055 304.995 95.1943C311.024 91.3312 314.588 86.2386 314.335 80.8398C314.083 75.4412 310.058 70.6986 303.696 67.4092Z" fill="#588995"/>
<path d="M281.064 102.566C261.949 103.46 245.974 95.1592 245.455 84.0632C244.936 72.9672 260.063 63.1862 279.18 62.2922C298.297 61.3982 314.272 69.7092 314.792 80.8192C315.312 91.9302 300.181 101.672 281.064 102.566ZM279.209 62.9002C260.432 63.7782 245.564 73.2602 246.068 84.0332C246.572 94.8062 262.259 102.835 281.036 101.957C299.813 101.079 314.684 91.6082 314.18 80.8472C313.677 70.0862 297.988 62.0212 279.209 62.9002Z" fill="#588995"/>
<path fill-rule="evenodd" clip-rule="evenodd" d="M307.606 171.585C305.132 173.276 297.411 177.166 297.691 176.937C293.921 178.24 289.655 179.061 285.115 179.274C269.202 180.018 255.932 172.994 255.49 163.551C255.287 159.225 256.004 155.499 257.314 152.325C252.28 156.034 249.349 160.725 249.581 165.673C250.093 176.623 265.892 184.773 284.871 183.886C303.849 182.998 318.818 173.408 318.306 162.458C318.091 157.867 315.195 153.761 310.507 150.627C311.925 153.509 312.883 156.864 313.145 160.854C313.33 164.8 311.25 168.514 307.608 171.584L307.606 171.585Z" fill="#ECF8FF"/>
<path d="M310.408 150.514C310.46 150.469 310.535 150.464 310.591 150.502C315.303 153.652 318.238 157.797 318.456 162.451L318.469 162.971C318.484 168.325 314.861 173.302 308.979 177.071C303.092 180.844 294.918 183.425 285.767 183.987L284.878 184.036C275.367 184.481 266.646 182.661 260.233 179.352C254.024 176.148 249.952 171.531 249.467 166.198L249.432 165.68C249.197 160.663 252.169 155.93 257.226 152.204L257.269 152.182C257.315 152.167 257.367 152.176 257.407 152.207C257.459 152.249 257.479 152.32 257.453 152.382L257.216 152.98C256.066 156 255.451 159.508 255.64 163.544L255.67 163.978C256.071 168.445 259.401 172.358 264.572 175.1C269.906 177.929 277.174 179.495 285.109 179.124L285.953 179.077C290.164 178.808 294.122 178.012 297.643 176.795C297.657 176.79 297.671 176.789 297.685 176.788C297.723 176.773 297.786 176.746 297.872 176.706C298.06 176.619 298.347 176.48 298.708 176.301C299.43 175.943 300.445 175.425 301.546 174.848C303.752 173.692 306.293 172.301 307.522 171.461C311.134 168.412 313.176 164.744 312.995 160.864L312.939 160.127C312.614 156.478 311.694 153.378 310.373 150.694C310.343 150.633 310.357 150.559 310.408 150.514ZM310.882 151.066C312.09 153.666 312.93 156.641 313.238 160.1L313.295 160.844V160.847L313.306 161.222C313.349 165.089 311.255 168.706 307.705 171.698C307.701 171.702 307.695 171.705 307.69 171.708L307.691 171.709C306.445 172.56 303.889 173.96 301.686 175.114C300.583 175.692 299.565 176.21 298.841 176.569C298.479 176.749 298.189 176.89 297.998 176.979C297.904 177.022 297.831 177.055 297.784 177.073C297.773 177.078 297.761 177.082 297.75 177.085C297.743 177.088 297.724 177.094 297.704 177.096C297.703 177.096 297.697 177.096 297.689 177.096C294.154 178.312 290.188 179.107 285.973 179.377L285.122 179.424C277.144 179.797 269.82 178.223 264.431 175.365C259.213 172.598 255.785 168.612 255.371 164.006L255.341 163.558C255.148 159.434 255.786 155.85 256.978 152.766C252.229 156.405 249.51 160.927 249.732 165.666L249.766 166.17C250.237 171.359 254.206 175.904 260.37 179.085C266.729 182.366 275.397 184.179 284.865 183.736L285.749 183.689C294.858 183.129 302.98 180.559 308.817 176.819C314.657 173.077 318.184 168.181 318.169 162.97L318.157 162.465C317.951 158.088 315.274 154.14 310.882 151.066ZM297.786 177.053C297.787 177.052 297.791 177.05 297.795 177.045C297.795 177.045 297.796 177.041 297.799 177.037C297.795 177.042 297.792 177.049 297.786 177.053Z" fill="#588995"/>
<path d="M284.884 184.192C265.769 185.086 249.795 176.785 249.275 165.689C249.047 160.816 251.836 155.981 257.133 152.08L258.011 151.432L257.594 152.442C256.213 155.797 255.607 159.532 255.795 163.539C256.228 172.785 269.373 179.709 285.101 178.973C289.529 178.766 293.73 177.985 297.592 176.651L297.726 176.604C298.741 176.141 305.195 172.858 307.421 171.344C311.137 168.206 313.009 164.585 312.836 160.871C312.592 157.14 311.739 153.832 310.228 150.765L309.724 149.743L310.671 150.377C315.578 153.66 318.397 157.945 318.607 162.446C319.126 173.542 303.996 183.299 284.879 184.193H284.885L284.884 184.192ZM256.64 153.226C252.072 156.879 249.681 161.261 249.887 165.659C250.39 176.42 266.078 184.461 284.855 183.583C303.632 182.704 318.503 173.233 317.999 162.473C317.808 158.395 315.485 154.63 311.259 151.529C312.492 154.358 313.229 157.482 313.449 160.836C313.633 164.756 311.679 168.553 307.804 171.821L307.781 171.838C306.395 172.787 303.499 174.339 301.896 175.18C299.191 176.6 298.2 177.105 297.79 177.22V177.228C293.879 178.58 289.616 179.371 285.132 179.581C269.069 180.333 255.634 173.149 255.186 163.568C255.013 159.872 255.503 156.4 256.64 153.229L256.642 153.227L256.64 153.226Z" fill="#588995"/>
<path d="M306.53 172.892L307.34 171.436C308.261 169.783 308.818 167.928 308.995 165.921L309.028 165.807C309.81 164.279 310.154 162.775 310.081 161.214C309.95 158.408 308.424 155.552 305.55 152.722C301.67 146.487 295.54 141.87 290.613 138.16C286.37 134.966 283.327 132.678 283.229 130.578C283.184 129.604 284.055 128.465 286.144 126.77C286.283 126.69 286.363 126.629 286.448 126.566C287.61 125.833 288.753 125.111 289.46 124.28C289.556 124.19 289.632 124.119 289.729 124.074C296.347 119.195 305.403 112.528 307.273 102.593L307.294 102.478L307.386 102.407C308.212 101.773 308.976 101.116 309.654 100.455L310.141 99.9822L310.173 100.659C310.771 113.443 297.893 121.506 290.196 126.326L289.986 126.46C287.161 128.22 284.724 129.742 284.76 130.506C284.808 131.543 287.203 132.606 290.235 133.954L290.381 134.018C298.604 137.67 312.32 143.758 313.449 160.834C313.632 164.754 311.679 168.551 307.804 171.82L306.532 172.894L306.53 172.892ZM309.598 166.031C309.457 167.545 309.11 168.978 308.563 170.307C311.523 167.418 312.993 164.179 312.838 160.867C311.735 144.164 298.231 138.17 290.162 134.589L289.989 134.512C286.512 132.967 284.215 131.948 284.149 130.535C284.097 129.413 286.193 128.104 289.664 125.941L289.876 125.809C297.319 121.147 309.685 113.403 309.582 101.364C309.045 101.858 308.465 102.345 307.851 102.82C305.885 112.928 296.387 119.921 290.094 124.553L289.987 124.625C289.969 124.634 289.924 124.675 289.895 124.703C289.154 125.579 287.97 126.325 286.822 127.047C286.696 127.14 286.584 127.221 286.468 127.277C285.348 128.197 283.791 129.58 283.836 130.548C283.921 132.36 287.019 134.692 290.942 137.644C295.943 141.409 302.127 146.065 306.018 152.34C308.963 155.226 310.549 158.22 310.688 161.184C310.764 162.814 310.394 164.445 309.594 166.031L309.596 166.029L309.598 166.031Z" fill="#ECF8FF"/>
<path d="M285.13 179.58C269.067 180.332 255.632 173.148 255.184 163.567C254.392 146.628 267.41 139.214 275.188 134.785L275.315 134.712C278.214 133.056 280.502 131.749 280.454 130.708C280.415 129.873 277.772 128.566 274.715 127.054L274.577 126.985C266.5 123.047 252.98 116.459 252.368 103.364L252.336 102.687L252.865 103.113C259.35 108.333 270.391 111.25 281.676 110.722C288.997 110.38 295.971 108.678 301.855 105.801L302.417 105.526L302.289 106.137C300.729 113.563 295.823 118.571 290.751 122.873L290.261 123.289L290.238 122.416C290.266 122.013 290.104 121.646 289.753 121.286C288.713 120.212 285.935 119.209 282.081 119.389C277.417 119.607 273.695 121.31 273.783 123.186C273.79 123.335 273.809 123.731 273.96 123.875L274.023 123.958C274.682 125.239 276.341 126.068 277.945 126.869C279.951 127.896 282.003 128.947 282.228 130.843C282.25 131.309 282.506 134.391 282.775 137.657L282.784 137.761L282.729 137.849C281.976 139.009 279.456 140.663 276.261 142.756L276.111 142.855C268.602 147.799 257.256 155.269 257.649 163.668L257.66 163.908C258.029 171.792 269.741 177.605 284.324 177.139L284.782 177.118C290.915 176.739 296.791 175.207 301.322 172.803L302.397 172.233L301.719 173.243C300.738 174.705 299.443 176.031 297.871 177.186L297.789 177.229C293.875 178.581 289.613 179.372 285.128 179.582L285.13 179.58ZM253.023 104.008C254.048 116.297 267.032 122.627 274.846 126.434L274.986 126.505C278.745 128.363 281.012 129.483 281.067 130.679C281.133 132.094 278.94 133.346 275.621 135.241L275.502 135.31C267.836 139.676 255.021 146.973 255.796 163.538C256.229 172.784 269.374 179.708 285.102 178.972C289.514 178.766 293.699 177.989 297.547 176.666C298.67 175.837 299.643 174.916 300.454 173.922C296.026 176.032 290.53 177.375 284.813 177.728L284.348 177.75C269.421 178.226 257.432 172.159 257.048 163.938L257.037 163.698C256.628 154.954 268.151 147.367 275.777 142.347L275.876 142.283C278.978 140.247 281.407 138.656 282.161 137.602C281.892 134.371 281.642 131.345 281.621 130.895C281.437 129.343 279.616 128.411 277.689 127.424C275.995 126.578 274.263 125.714 273.502 124.28C273.206 123.964 273.182 123.462 273.171 123.216C273.066 120.967 276.968 119.018 282.053 118.78C285.554 118.616 288.824 119.451 290.192 120.861C290.539 121.22 290.755 121.609 290.824 122.007C295.503 117.986 299.949 113.316 301.551 106.626C295.716 109.372 288.871 110.999 281.702 111.334C270.579 111.854 259.676 109.058 253.02 104.013L253.024 104.009L253.023 104.008Z" fill="#C4DAE6"/>
<path d="M296.354 182.34L296.769 191.202C310.147 187.768 319.116 179.871 318.712 171.249L318.299 162.409C318.946 171.238 309.733 178.904 296.354 182.337V182.34Z" fill="#C4DAE6"/>
<path d="M318.261 165.791C317.584 168.99 315.631 171.961 312.716 174.543C308.822 177.992 303.199 180.76 296.556 182.485L296.952 190.951C303.515 189.234 308.987 186.441 312.777 183.026C316.493 179.679 318.582 175.748 318.528 171.655L318.517 171.259L318.261 165.791ZM296.158 182.186L296.305 182.147C302.973 180.436 308.591 177.673 312.456 174.25C316.161 170.969 318.242 167.094 318.128 162.959L318.104 162.418L318.493 162.395C318.493 162.397 318.493 162.399 318.493 162.401L318.494 162.4L318.495 162.424C318.507 162.598 318.515 162.773 318.52 162.946L318.907 171.24L318.919 171.65C318.974 175.887 316.81 179.919 313.039 183.316C309.146 186.824 303.529 189.669 296.817 191.392L296.584 191.451L296.573 191.211L296.158 182.35V182.186Z" fill="#588995"/>
<path d="M292.528 100.573L292.937 109.323C306.183 105.949 315.064 98.1293 314.664 89.5923L314.255 80.8423C314.894 89.5823 305.775 97.1743 292.528 100.573Z" fill="#C4DAE6"/>
<path d="M314.45 80.8276C314.464 81.0218 314.472 81.2158 314.477 81.4087L314.859 89.5835L314.872 89.9897C314.927 94.1856 312.783 98.1781 309.049 101.54C305.194 105.009 299.631 107.82 292.985 109.513L292.753 109.572L292.742 109.333L292.937 109.324V109.323L292.742 109.333L292.333 100.583L292.325 100.423L292.479 100.384C299.082 98.6902 304.643 95.9534 308.47 92.564C312.128 89.3238 314.186 85.4995 314.086 81.4194L314.06 80.8511L314.45 80.8276ZM314.216 84.2065C313.542 87.368 311.611 90.3041 308.729 92.8569C304.874 96.2716 299.308 99.0124 292.73 100.72L293.121 109.073C299.618 107.386 305.035 104.626 308.787 101.249C312.466 97.9374 314.534 94.0456 314.48 89.9937L314.469 89.6011L314.216 84.2065Z" fill="#588995"/>
<path d="M305.506 103.992C299.557 107.913 291.104 110.585 281.461 111.036C262.32 111.932 246.688 103.869 246.17 92.7991L245.761 84.0491C246.268 94.8811 261.91 103.157 281.051 102.261C285.107 102.071 288.968 101.508 292.53 100.597L292.938 109.323C293.766 109.117 294.576 108.888 295.366 108.659C299.225 107.448 302.652 105.874 305.506 103.992Z" fill="#588995"/>
<path d="M303.825 105.026C298.013 108.378 290.229 110.626 281.461 111.036L280.566 111.072C262.132 111.67 247.162 103.947 246.205 93.3157L246.17 92.7991L245.761 84.0491C246.26 94.7118 261.425 102.898 280.156 102.296L281.051 102.261C285.107 102.071 288.967 101.508 292.529 100.597L292.937 109.323C293.765 109.117 294.576 108.888 295.366 108.659C298.495 107.677 301.339 106.456 303.825 105.026ZM247.169 92.7522L247.201 93.2229C247.637 98.0669 251.282 102.413 257.29 105.516C263.471 108.708 271.983 110.479 281.414 110.037L282.301 109.989C285.684 109.781 288.904 109.293 291.901 108.575L291.587 101.854C288.522 102.56 285.262 103.02 281.867 103.219L281.098 103.26C271.383 103.715 262.506 101.847 255.957 98.4407C252.135 96.4532 249.045 93.9015 247.084 90.9387L247.169 92.7522ZM305.506 103.992C305.322 104.113 305.136 104.232 304.948 104.35C305.136 104.231 305.323 104.113 305.506 103.992ZM304.948 104.35C304.793 104.447 304.636 104.543 304.478 104.639C304.636 104.543 304.793 104.447 304.948 104.35ZM304.391 104.693C304.213 104.8 304.033 104.906 303.851 105.011C304.033 104.906 304.213 104.8 304.391 104.693Z" fill="#588995"/>
<path d="M296.478 191.59L296.034 182.106L296.276 182.044C309.741 178.588 318.184 171.178 318.019 163.046L317.99 162.424L318.602 162.387C318.616 162.6 318.626 162.812 318.632 163.023L319.016 171.232C319.419 179.844 310.507 187.987 296.84 191.495L296.476 191.588L296.478 191.59ZM296.669 182.573L297.054 190.811C310.225 187.33 318.791 179.505 318.405 171.263L318.185 166.556C316.27 173.495 308.345 179.522 296.669 182.573Z" fill="#588995"/>
<path d="M296.919 191.164L296.502 182.255C292.927 183.144 289.054 183.71 284.986 183.9C265.782 184.799 250.088 176.492 249.579 165.626L249.99 174.407C250.509 185.513 266.191 193.602 285.397 192.704C290.516 192.465 294.722 191.689 296.918 191.165L296.919 191.164Z" fill="#588995"/>
<path d="M285.412 193.008C265.907 193.921 250.216 185.755 249.685 174.421L249.274 165.64L249.886 165.611C250.391 176.408 266.131 184.476 284.973 183.594C288.96 183.407 292.813 182.857 296.431 181.958L296.793 181.868L297.239 191.401L296.993 191.459C295.413 191.835 291.126 192.738 285.413 193.005L285.411 193.007L285.412 193.008ZM250.061 169.387L250.295 174.39C250.809 185.385 266.222 193.294 285.383 192.398C290.769 192.146 294.872 191.325 296.602 190.926L296.214 182.639C292.664 183.496 288.893 184.021 285 184.203C268.044 184.996 253.551 178.58 250.061 169.387Z" fill="#588995"/>
<path d="M301.999 106C304.09 104.967 305.968 103.777 307.599 102.503C305.763 112.652 296.352 119.563 289.858 124.347C286.196 127.035 283.459 129.031 283.531 130.562C283.623 132.522 286.748 134.869 290.794 137.914C298.231 143.532 308.778 151.474 309.343 163.572C309.488 166.681 309.075 168.904 307.849 171.129C306 174.5 296.5 178 296.5 178C301.466 175.357 304.109 170.285 303.817 164.046C303.267 152.283 295.397 144.719 289.571 139.122C286.144 135.808 283.424 133.203 283.312 130.813C283.216 128.756 285.722 126.674 288.95 123.985C293.777 119.973 300.219 114.615 302 106.003L301.998 106.001L301.999 106Z" fill="#ECF8FF"/>
<path d="M292.647 109.714L292.209 100.342L292.45 100.28C305.778 96.8592 314.135 89.5262 313.975 81.4822L313.946 80.8602L314.558 80.8232C314.572 81.0362 314.582 81.2482 314.588 81.4592L314.968 89.5812C315.367 98.1202 306.543 106.173 293.013 109.622L292.648 109.714H292.647ZM292.844 100.807L293.224 108.935C306.262 105.511 314.737 97.7742 314.355 89.6092L314.138 84.9702C312.234 91.8302 304.392 97.7892 292.844 100.807Z" fill="#588995"/>
<path d="M281.475 111.341C262.035 112.25 246.394 104.111 245.865 92.8132L245.456 84.0632L246.068 84.0342C246.571 94.7952 262.259 102.836 281.036 101.958C285.047 101.77 288.888 101.214 292.454 100.303L292.819 100.211L293.227 108.937C293.925 108.755 294.611 108.562 295.281 108.368C298.946 107.219 302.194 105.748 304.942 103.996C305.067 103.915 305.193 103.834 305.318 103.752C305.324 103.748 305.332 103.743 305.34 103.739L305.674 104.249C305.674 104.249 305.668 104.253 305.664 104.255C305.528 104.345 305.387 104.435 305.247 104.525C299.009 108.499 290.591 110.914 281.477 111.34L281.475 111.341ZM246.244 87.8032L246.477 92.7842C246.99 103.742 262.348 111.624 281.446 110.73C285.341 110.548 289.105 109.999 292.619 109.117L292.239 100.983C288.738 101.85 284.98 102.382 281.064 102.565C264.167 103.355 249.726 96.9622 246.244 87.8032Z" fill="#588995"/>
<path d="M142.378 190.915L142.757 198.015C155.019 194.891 163.24 187.653 162.87 179.75L162.491 172.65C163.083 180.74 154.641 187.768 142.378 190.915Z" fill="#ECF8FF"/>
<path d="M162.641 172.639C162.651 172.779 162.657 172.918 162.662 173.057L163.02 179.742L162.918 179.747L162.869 179.75L163.02 179.742C163.207 183.752 161.214 187.578 157.65 190.786C154.086 193.994 148.942 196.594 142.794 198.161L142.617 198.206L142.229 190.924L142.222 190.801L142.341 190.77C148.456 189.201 153.608 186.666 157.155 183.524C160.578 180.493 162.495 176.906 162.362 173.078L162.341 172.658L162.641 172.639ZM162.488 175.431C161.933 178.474 160.118 181.301 157.354 183.749C153.786 186.91 148.629 189.448 142.533 191.028L142.896 197.822C148.931 196.26 153.964 193.701 157.45 190.563C160.969 187.396 162.901 183.651 162.72 179.759L162.488 175.431Z" fill="#588995"/>
<path d="M129.404 199.643C121.804 199.643 114.739 198.141 109.272 195.335C103.071 192.153 99.5245 187.603 99.2865 182.525L98.9355 176.018L99.9655 178.728C103.182 187.185 116.544 192.804 131.745 192.096C135.339 191.927 138.789 191.439 142 190.644L142.547 190.508L142.943 197.98L142.576 198.072C139.266 198.903 135.755 199.409 132.142 199.577C131.223 199.62 130.309 199.642 129.404 199.642V199.643Z" fill="#C4DAE6"/>
<path d="M100.105 178.674L100.262 179.064C101.951 183.067 105.972 186.419 111.419 188.71C117.038 191.074 124.156 192.299 131.737 191.946L132.408 191.911C135.752 191.715 138.962 191.241 141.963 190.499L142.511 190.363L142.687 190.319L143.093 197.972L143.099 198.095L142.979 198.125L142.612 198.217C139.499 198.999 136.21 199.493 132.826 199.691L132.148 199.727C131.278 199.768 130.412 199.788 129.554 199.791V199.793H129.403C122.023 199.793 115.139 198.38 109.723 195.729L109.203 195.468C102.975 192.272 99.3784 187.683 99.1367 182.533L98.7344 175.065L100.105 178.674ZM99.4365 182.517L99.2891 182.524L99.2861 182.525L99.4365 182.517C99.6711 187.522 103.167 192.034 109.34 195.202L109.854 195.459C115.185 198.069 121.966 199.473 129.254 199.492H129.403C130.306 199.492 131.218 199.47 132.135 199.427L132.809 199.392C136.175 199.196 139.445 198.703 142.539 197.926L142.786 197.864L142.405 190.697L142.036 190.79L142.002 190.654L141.999 190.644L142.036 190.79C139.016 191.537 135.786 192.014 132.426 192.21L131.752 192.246C124.132 192.6 116.969 191.37 111.303 188.987C105.817 186.679 101.717 183.283 99.9854 179.18L99.8252 178.782L99.1367 176.971L99.4365 182.517Z" fill="#588995"/>
<path d="M131.753 194.276C149.321 193.454 163.178 184.577 162.704 174.44C162.23 164.304 147.604 156.736 130.036 157.558C112.468 158.38 98.6111 167.257 99.0861 177.416C99.5611 187.575 114.185 195.097 131.754 194.275L131.753 194.276Z" fill="#F35F5F"/>
<path d="M130.03 157.408C138.835 156.996 146.911 158.686 152.85 161.757C158.785 164.825 162.613 169.289 162.854 174.434L162.867 174.914C162.881 179.876 159.523 184.487 154.075 187.978C148.449 191.583 140.566 194.014 131.76 194.426C131.758 194.426 131.756 194.425 131.753 194.425C122.951 194.835 114.879 193.157 108.942 190.097C103.007 187.037 99.1779 182.579 98.9368 177.423C98.6959 172.267 102.091 167.465 107.714 163.859C113.341 160.251 121.224 157.82 130.03 157.408ZM152.712 162.023C146.828 158.981 138.806 157.298 130.043 157.708C121.281 158.118 113.451 160.537 107.876 164.112C102.298 167.69 99.0027 172.406 99.2366 177.409C99.4706 182.412 103.191 186.794 109.078 189.83C114.963 192.864 122.984 194.535 131.747 194.125H131.752C140.512 193.714 148.34 191.296 153.913 187.725C159.318 184.261 162.58 179.733 162.566 174.914L162.555 174.447C162.322 169.456 158.6 165.068 152.712 162.023Z" fill="#588995"/>
<path d="M115.411 167.351L115.231 167.472C114.354 168.064 114.448 169.383 115.4 169.845L134.199 178.963C136.233 179.95 138.639 179.778 140.513 178.513L140.693 178.392C141.57 177.8 141.476 176.481 140.524 176.019L121.725 166.901C119.691 165.914 117.285 166.086 115.411 167.351Z" fill="#ECF8FF"/>
<path d="M115.147 167.348L115.23 167.473L115.314 167.597C114.533 168.124 114.618 169.298 115.466 169.71L134.264 178.828L134.64 178.996C136.541 179.767 138.713 179.546 140.429 178.389H140.43L140.513 178.514L140.597 178.638C138.798 179.851 136.521 180.082 134.528 179.273L134.134 179.099L115.334 169.98C114.278 169.468 114.174 168.004 115.146 167.348H115.147ZM115.327 167.226C117.245 165.932 119.708 165.756 121.79 166.767L140.589 175.884H140.59C141.58 176.364 141.733 177.681 140.946 178.385L140.776 178.517L140.597 178.638L140.43 178.389L140.609 178.267L140.745 178.162C141.377 177.597 141.253 176.54 140.458 176.154L121.659 167.036C119.673 166.073 117.325 166.241 115.495 167.475L115.327 167.226ZM115.494 167.475L115.314 167.597L115.147 167.348L115.327 167.226L115.494 167.475Z" fill="#588995"/>
<path d="M142.439 182.96C144.473 183.947 146.879 183.775 148.753 182.51L148.933 182.389C149.81 181.797 149.716 180.478 148.764 180.016C146.73 179.029 144.324 179.201 142.45 180.466L142.27 180.587C141.393 181.179 141.487 182.498 142.439 182.96Z" fill="#ECF8FF"/>
<path d="M142.366 180.341C144.284 179.047 146.747 178.871 148.829 179.881L149.016 179.988C149.894 180.573 149.928 181.898 149.016 182.513L148.837 182.634C147.038 183.848 144.762 184.078 142.768 183.27L142.373 183.095C141.317 182.583 141.213 181.119 142.185 180.463L142.248 180.555L142.269 180.588L142.353 180.712C141.573 181.239 141.657 182.413 142.505 182.825L142.881 182.993C144.782 183.764 146.953 183.543 148.669 182.385L148.848 182.264L148.985 182.159C149.575 181.632 149.506 180.676 148.848 180.237L148.698 180.151C146.712 179.188 144.364 179.356 142.534 180.59L142.366 180.341ZM142.533 180.59L142.353 180.712L142.186 180.463L142.366 180.341L142.533 180.59Z" fill="#588995"/>
</g>
<defs>
<clipPath id="clip0_2530_13143">
<rect width="227.06" height="175.548" fill="white" transform="translate(91.9697 62.2261)"/>
</clipPath>
</defs>
</svg>
