<svg width="411" height="300" viewBox="0 0 411 300" fill="none" xmlns="http://www.w3.org/2000/svg">
<path d="M265.604 181.281L270.674 196.5L255.092 187.209L265.604 181.281Z" fill="#588995"/>
<path d="M270.674 196.981C270.592 196.981 270.505 196.959 270.429 196.914L254.847 187.623C254.7 187.537 254.614 187.377 254.614 187.205C254.614 187.036 254.71 186.877 254.86 186.794L265.372 180.867C265.493 180.796 265.643 180.787 265.777 180.838C265.911 180.889 266.013 180.997 266.061 181.134L271.13 196.353C271.194 196.544 271.13 196.751 270.974 196.876C270.888 196.946 270.78 196.981 270.674 196.981ZM256.046 187.221L269.814 195.431L265.334 181.986L256.046 187.221Z" fill="#588995"/>
<path d="M279.996 202.398L197.912 247.512C196.245 248.503 194.355 249 192.429 249C190.503 249 188.613 248.503 186.946 247.512L114.36 204.708C112.55 203.642 112.546 201.049 114.352 199.972L194.857 155.845C195.783 155.3 196.835 155 197.912 155C198.988 155 200.041 155.296 200.966 155.845L280 202.394L279.996 202.398Z" fill="#588995"/>
<path d="M252.264 157.492V148.041L213.93 125.174L262.923 95.5752V163.862L252.264 157.495V157.492Z" fill="#588995"/>
<path d="M262.92 164.337C262.837 164.337 262.748 164.315 262.675 164.27L252.016 157.9C251.872 157.814 251.783 157.658 251.783 157.489V148.309L213.681 125.582C213.538 125.496 213.451 125.34 213.448 125.174C213.448 125.005 213.534 124.848 213.681 124.762L262.675 95.164C262.818 95.0779 263.006 95.0716 263.153 95.1577C263.306 95.2437 263.398 95.4032 263.398 95.5753V163.862C263.398 164.034 263.306 164.194 263.156 164.277C263.083 164.318 263 164.341 262.92 164.341V164.337ZM252.743 157.221L262.442 163.017V96.4203L214.854 125.167L252.51 147.627C252.653 147.713 252.743 147.869 252.743 148.038V157.218V157.221Z" fill="#588995"/>
<path d="M279.496 163.343L209.48 202.218C208.058 203.071 206.446 203.5 204.803 203.5C203.16 203.5 201.548 203.071 200.126 202.218L138.211 165.333C136.667 164.415 136.663 162.181 138.204 161.252L206.874 123.228C207.663 122.758 208.561 122.5 209.48 122.5C210.398 122.5 211.296 122.755 212.085 123.228L279.5 163.339L279.496 163.343Z" fill="#C4DAE6"/>
<path d="M140.972 194.083L136.648 207.901L149.431 199.13L140.972 194.083Z" fill="#C4DAE6"/>
<path d="M136.651 208.376C136.552 208.376 136.454 208.345 136.367 208.284C136.202 208.163 136.135 207.952 136.192 207.755L140.512 193.939C140.557 193.802 140.662 193.687 140.799 193.636C140.936 193.585 141.093 193.595 141.217 193.671L149.676 198.719C149.816 198.802 149.902 198.951 149.909 199.114C149.909 199.277 149.835 199.433 149.702 199.522L136.919 208.294C136.839 208.351 136.744 208.376 136.651 208.376ZM141.246 194.803L137.518 206.722L148.544 199.155L141.246 194.803Z" fill="#588995"/>
<path fill-rule="evenodd" clip-rule="evenodd" d="M130.476 88.6949L189.87 124.45C191.177 125.212 192.657 125.611 194.162 125.611C195.667 125.611 197.149 125.209 198.453 124.45L277.791 76.5884V192.134L270.64 196.461L265.602 181.243L210.368 212.521L205.516 235.711L194.165 242.518L184.494 236.792L180.7 218.21L140.994 194.15L136.703 207.927L130.482 204.241V88.6949H130.476ZM269.336 94.2524V166.866C269.336 167.105 269.272 167.386 269.144 167.587C269.02 167.826 268.838 168.027 268.618 168.148L208.251 202.991C208.035 203.112 207.789 203.151 207.544 203.151C207.298 203.151 207.056 203.071 206.842 202.95C206.628 202.829 206.453 202.631 206.329 202.43C206.204 202.191 206.141 201.949 206.137 201.668V130.696C206.137 130.457 206.204 130.215 206.332 129.976C206.456 129.775 206.638 129.574 206.855 129.456L267.222 92.9706C267.435 92.8495 267.678 92.7697 267.926 92.7697C268.175 92.7697 268.417 92.8495 268.634 92.9706C268.851 93.0918 269.026 93.2894 269.151 93.4903C269.275 93.7295 269.339 93.9718 269.336 94.2524Z" fill="#ECF8FF"/>
<path d="M194.161 243C194.078 243 193.992 242.978 193.919 242.933L184.248 237.207C184.13 237.14 184.051 237.022 184.025 236.891L180.269 218.513L141.265 194.874L137.158 208.067C137.113 208.208 137.008 208.319 136.871 208.374C136.734 208.425 136.584 208.415 136.457 208.338L130.236 204.653C130.089 204.567 130 204.41 130 204.241V88.6952C130 88.523 130.092 88.3636 130.242 88.2807C130.392 88.1946 130.574 88.1978 130.724 88.2871L190.118 124.042C192.567 125.468 195.755 125.471 198.214 124.042L277.549 76.1837C277.695 76.0945 277.88 76.0913 278.03 76.1774C278.18 76.2603 278.272 76.4197 278.272 76.5919V192.138C278.272 192.307 278.183 192.46 278.04 192.546L270.888 196.87C270.767 196.943 270.614 196.962 270.477 196.908C270.339 196.857 270.234 196.748 270.186 196.611L265.33 181.945L210.792 212.831L205.984 235.81C205.958 235.941 205.879 236.052 205.764 236.123L194.41 242.93C194.336 242.978 194.247 242.997 194.164 242.997L194.161 243ZM184.918 236.489L194.161 241.964L205.088 235.412L209.899 212.426C209.928 212.292 210.011 212.174 210.129 212.107L265.362 180.829C265.49 180.755 265.633 180.749 265.77 180.797C265.904 180.848 266.006 180.956 266.054 181.093L270.904 195.744L277.313 191.87V77.44L198.698 124.865C195.94 126.478 192.379 126.475 189.63 124.865L130.957 89.5433V203.97L136.422 207.21L140.531 194.01C140.576 193.869 140.681 193.755 140.822 193.704C140.952 193.646 141.109 193.665 141.239 193.742L180.945 217.805C181.057 217.875 181.139 217.99 181.162 218.121L184.918 236.496V236.489ZM207.543 203.629C207.234 203.629 206.912 203.54 206.606 203.365C206.277 203.18 206.054 202.893 205.923 202.682C205.735 202.325 205.659 202.016 205.659 201.668V130.697C205.659 130.378 205.742 130.062 205.907 129.753C206.108 129.431 206.354 129.188 206.615 129.039L266.976 92.5596C267.597 92.2057 268.254 92.2121 268.866 92.5532C269.201 92.7445 269.428 93.0315 269.558 93.2387C269.737 93.5831 269.817 93.9019 269.817 94.2526V166.863C269.817 167.214 269.714 167.581 269.546 167.842C269.396 168.135 269.15 168.397 268.854 168.563L208.493 203.403C208.216 203.556 207.906 203.629 207.543 203.629ZM267.926 93.2483C267.779 93.2483 267.617 93.2962 267.46 93.3854L207.1 129.864C206.966 129.941 206.838 130.072 206.74 130.231C206.666 130.371 206.622 130.54 206.622 130.697V201.668C206.622 201.86 206.663 202.025 206.755 202.21C206.835 202.338 206.963 202.469 207.084 202.536C207.463 202.752 207.814 202.692 208.028 202.574L268.385 167.734C268.522 167.657 268.64 167.53 268.723 167.367C268.812 167.22 268.86 167.032 268.86 166.866V94.2559C268.86 94.0582 268.819 93.8924 268.729 93.717C268.65 93.5895 268.522 93.4587 268.398 93.3886C268.241 93.3025 268.072 93.2515 267.929 93.2515L267.926 93.2483Z" fill="#588995"/>
<path d="M275.205 132.54L281.611 128.695L269.325 91.4854L262.92 95.3689L275.205 132.537V132.54Z" fill="#ECF8FF"/>
<path d="M275.205 133.018C275.148 133.018 275.094 133.008 275.04 132.989C274.903 132.938 274.797 132.83 274.749 132.689L262.464 95.5217C262.397 95.3112 262.48 95.0785 262.668 94.9637L269.077 91.0802C269.208 91.0068 269.358 90.9909 269.492 91.0419C269.629 91.0929 269.734 91.2013 269.782 91.3416L282.067 128.548C282.134 128.758 282.051 128.994 281.86 129.106L275.451 132.951C275.378 132.995 275.291 133.018 275.205 133.018ZM263.494 95.5854L275.473 131.822L281.04 128.484L269.064 92.212L263.494 95.5886V95.5854Z" fill="#588995"/>
<path d="M281.614 128.723V203.658C281.614 204.098 281.486 204.538 281.25 204.898C281.014 205.3 280.676 205.58 280.278 205.778L275.208 208.182V132.565L281.614 128.723Z" fill="#C4DAE6"/>
<path d="M275.206 208.663C275.117 208.663 275.027 208.638 274.951 208.59C274.81 208.501 274.728 208.348 274.728 208.185V132.568C274.728 132.399 274.817 132.243 274.96 132.16L281.369 128.314C281.516 128.222 281.701 128.222 281.851 128.308C282 128.391 282.093 128.55 282.093 128.722V203.657C282.093 204.19 281.933 204.725 281.647 205.162C281.395 205.593 280.999 205.953 280.489 206.208L275.41 208.615C275.343 208.644 275.273 208.66 275.206 208.66V208.663ZM275.684 132.839V207.429L280.068 205.35C280.406 205.178 280.664 204.952 280.837 204.658C281.034 204.359 281.133 204.008 281.133 203.661V129.571L275.684 132.842V132.839Z" fill="#588995"/>
<path d="M277.823 76.7483L198.548 124.447C197.216 125.248 195.704 125.649 194.164 125.649C192.624 125.649 191.113 125.248 189.78 124.447L131.741 89.8656C130.293 89.0047 130.29 86.9099 131.735 86.0395L209.746 39.1374C210.486 38.6974 211.328 38.4551 212.189 38.4551C213.05 38.4551 213.891 38.6942 214.631 39.1374L277.826 76.7451L277.823 76.7483Z" fill="#ECF8FF"/>
<path d="M194.162 126.131C192.517 126.131 190.913 125.691 189.532 124.862L131.493 90.283C130.667 89.7919 130.176 88.9247 130.173 87.9618C130.17 86.9989 130.661 86.1316 131.486 85.6374L209.498 38.7353C211.153 37.7533 213.238 37.7565 214.874 38.7353L278.069 76.3431C278.212 76.4291 278.298 76.5854 278.302 76.7512C278.302 76.9202 278.212 77.0764 278.069 77.1625L198.795 124.862C197.414 125.694 195.807 126.131 194.162 126.131ZM212.183 38.9394C211.421 38.9394 210.659 39.1498 209.989 39.5516L131.978 86.4536C131.445 86.7756 131.126 87.3368 131.126 87.9586C131.126 88.5803 131.448 89.1415 131.984 89.4571L190.023 124.039C192.497 125.525 195.836 125.522 198.3 124.039L276.889 76.748L214.38 39.5484C213.71 39.1467 212.951 38.9362 212.186 38.9362L212.183 38.9394Z" fill="#588995"/>
<path d="M262.924 171.391V95.3716L275.206 132.284V207.898L262.924 171.391Z" fill="#588995"/>
<path d="M275.205 208.377C275.004 208.377 274.819 208.249 274.749 208.051L262.464 171.54C262.448 171.489 262.438 171.438 262.438 171.387V95.3717C262.438 95.1357 262.611 94.938 262.84 94.8997C263.098 94.8551 263.303 94.9986 263.373 95.2218L275.658 132.131C275.674 132.179 275.683 132.23 275.683 132.281V207.898C275.683 208.134 275.511 208.332 275.282 208.37C275.253 208.373 275.227 208.377 275.205 208.377ZM263.401 171.311L274.727 204.978V132.361L263.401 98.3241V171.311Z" fill="#588995"/>
<path fill-rule="evenodd" clip-rule="evenodd" d="M193.138 125.474C191.993 125.334 190.874 125.037 189.87 124.451L130.476 88.6953V204.245L136.696 207.93L140.988 194.153L180.694 218.213L184.488 236.799L193.138 241.919V125.48V125.474Z" fill="#C4DAE6"/>
<path d="M193.141 242.394C193.058 242.394 192.972 242.372 192.899 242.327L184.248 237.206C184.13 237.139 184.051 237.021 184.025 236.891L180.269 218.512L141.265 194.876L137.158 208.07C137.113 208.211 137.008 208.322 136.871 208.376C136.734 208.427 136.584 208.418 136.457 208.341L130.236 204.659C130.089 204.573 130 204.416 130 204.247V88.698C130 88.5259 130.092 88.3664 130.242 88.2835C130.392 88.1974 130.574 88.1974 130.724 88.2899L190.118 124.045C190.973 124.543 191.98 124.855 193.198 125.005C193.441 125.034 193.622 125.238 193.622 125.48V241.922C193.622 242.094 193.53 242.254 193.38 242.336C193.307 242.378 193.224 242.4 193.144 242.4L193.141 242.394ZM184.918 236.489L192.663 241.074V125.891C191.499 125.706 190.501 125.368 189.634 124.861L130.96 89.5398V203.97L136.425 207.206L140.535 194.006C140.579 193.866 140.684 193.751 140.825 193.7C140.955 193.643 141.112 193.662 141.242 193.738L180.948 217.798C181.06 217.868 181.143 217.983 181.165 218.114L184.918 236.489Z" fill="#588995"/>
<path d="M240.929 172.632C240.935 169.659 236.071 167.238 230.064 167.224C224.057 167.21 219.182 169.61 219.175 172.583C219.169 175.556 224.033 177.977 230.04 177.991C236.047 178.004 240.922 175.605 240.929 172.632Z" fill="#588995"/>
<path d="M230.063 167.474C227.09 167.467 224.409 168.058 222.48 169.007C220.535 169.964 219.428 171.244 219.425 172.583C219.422 173.923 220.523 175.206 222.464 176.172C224.388 177.13 227.067 177.733 230.04 177.74C233.014 177.747 235.695 177.156 237.624 176.207C239.568 175.25 240.675 173.971 240.679 172.631C240.682 171.292 239.58 170.007 237.64 169.042C235.715 168.083 233.037 167.48 230.063 167.474ZM230.065 166.974C233.098 166.98 235.855 167.595 237.863 168.594C239.854 169.585 241.182 170.999 241.179 172.633C241.175 174.266 239.84 175.673 237.844 176.655C235.833 177.645 233.073 178.247 230.039 178.24C227.006 178.233 224.248 177.619 222.241 176.62C220.249 175.629 218.921 174.215 218.925 172.582C218.929 170.948 220.263 169.541 222.259 168.558C224.271 167.568 227.031 166.967 230.065 166.974Z" fill="#588995"/>
<path d="M240.932 169.311C240.938 166.402 236.684 164.034 231.429 164.022C226.174 164.01 221.908 166.359 221.902 169.268C221.895 172.178 226.15 174.546 231.405 174.558C236.66 174.57 240.925 172.221 240.932 169.311Z" fill="#ECF8FF"/>
<path d="M231.428 164.271C228.835 164.265 226.499 164.844 224.818 165.769C223.129 166.699 222.155 167.946 222.152 169.269C222.149 170.591 223.118 171.844 224.802 172.782C226.478 173.715 228.812 174.302 231.405 174.308C233.999 174.314 236.336 173.737 238.016 172.812C239.705 171.881 240.679 170.633 240.682 169.311C240.685 167.989 239.717 166.737 238.032 165.799C236.356 164.866 234.022 164.277 231.428 164.271ZM231.429 163.771C234.091 163.777 236.512 164.38 238.275 165.362C240.03 166.339 241.186 167.725 241.182 169.312C241.179 170.899 240.017 172.281 238.257 173.25C236.49 174.223 234.066 174.814 231.404 174.808C228.743 174.802 226.322 174.2 224.559 173.219C222.805 172.242 221.649 170.855 221.652 169.268C221.656 167.68 222.818 166.3 224.577 165.331C226.345 164.357 228.768 163.765 231.429 163.771Z" fill="#588995"/>
<path d="M221.97 172.26C221.965 175.171 226.219 177.54 231.474 177.551C236.729 177.562 240.995 175.215 241 172.304L240.951 169.317C240.957 166.407 236.702 164.038 231.447 164.027C226.192 164.016 221.926 166.363 221.921 169.273L221.97 172.26Z" fill="#C4DAE6"/>
<path d="M231.447 163.777C234.109 163.782 236.53 164.385 238.293 165.367C240.046 166.343 241.202 167.727 241.201 169.313L241.25 172.3V172.304L241.236 172.6C241.1 174.064 239.975 175.334 238.326 176.242C236.559 177.215 234.135 177.806 231.474 177.8C228.812 177.795 226.391 177.193 224.628 176.211C222.875 175.235 221.719 173.85 221.72 172.264L221.671 169.278L221.921 169.273H221.898L221.671 169.278V169.273C221.674 167.685 222.836 166.304 224.595 165.335C226.362 164.362 228.786 163.771 231.447 163.777ZM231.446 164.277C228.853 164.272 226.516 164.849 224.836 165.774C223.147 166.704 222.173 167.951 222.171 169.274L222.22 172.256V172.261L221.97 172.26H221.941L222.22 172.261C222.217 173.584 223.186 174.836 224.871 175.774C226.547 176.707 228.881 177.295 231.475 177.3C234.068 177.306 236.405 176.729 238.085 175.804C239.772 174.875 240.745 173.629 240.75 172.308L240.701 169.321V169.317C240.704 167.994 239.735 166.741 238.05 165.803C236.374 164.87 234.04 164.282 231.446 164.277Z" fill="#588995"/>
<path d="M240.932 169.311C240.938 166.402 236.684 164.034 231.429 164.022C226.174 164.01 221.908 166.359 221.902 169.268C221.895 172.178 226.15 174.546 231.405 174.558C236.66 174.57 240.925 172.221 240.932 169.311Z" fill="#ECF8FF"/>
<path d="M231.428 164.271C228.835 164.265 226.499 164.844 224.818 165.769C223.129 166.699 222.155 167.946 222.152 169.269C222.149 170.591 223.118 171.844 224.802 172.782C226.478 173.715 228.812 174.302 231.405 174.308C233.999 174.314 236.336 173.737 238.016 172.812C239.705 171.881 240.679 170.633 240.682 169.311C240.685 167.989 239.717 166.737 238.032 165.799C236.356 164.866 234.022 164.277 231.428 164.271ZM231.429 163.771C234.091 163.777 236.512 164.38 238.275 165.362C240.03 166.339 241.186 167.725 241.182 169.312C241.179 170.899 240.017 172.281 238.257 173.25C236.49 174.223 234.066 174.814 231.404 174.808C228.743 174.802 226.322 174.2 224.559 173.219C222.805 172.242 221.649 170.855 221.652 169.268C221.656 167.68 222.818 166.3 224.577 165.331C226.345 164.357 228.768 163.765 231.429 163.771Z" fill="#588995"/>
<path d="M235.752 174.002L235.741 177.005C236.616 176.764 237.409 176.452 238.104 176.08L238.115 173.061C237.42 173.438 236.627 173.755 235.752 174.002Z" fill="#ECF8FF"/>
<path d="M238.364 173.062L238.354 176.081V176.23L238.222 176.301L238.104 176.08L238.103 176.079L238.222 176.301C237.509 176.683 236.698 177.001 235.808 177.246L235.49 177.333L235.502 174.001L235.503 173.812L235.685 173.761C236.544 173.519 237.319 173.208 237.995 172.841L238.366 172.64L238.364 173.062ZM237.862 173.471C237.294 173.749 236.671 173.99 236.001 174.188L235.992 176.672C236.672 176.466 237.295 176.216 237.854 175.928L237.862 173.471Z" fill="#588995"/>
<path d="M187.766 256.173C187.772 253.2 182.908 250.779 176.901 250.765C170.894 250.751 166.019 253.151 166.012 256.124C166.005 259.097 170.87 261.518 176.877 261.532C182.884 261.545 187.759 259.146 187.766 256.173Z" fill="#588995"/>
<path d="M176.9 251.015C173.927 251.008 171.246 251.599 169.317 252.548C167.372 253.505 166.265 254.785 166.262 256.124C166.259 257.464 167.36 258.747 169.301 259.713C171.225 260.671 173.904 261.274 176.877 261.281C179.85 261.288 182.532 260.697 184.461 259.748C186.405 258.791 187.512 257.512 187.516 256.172C187.519 254.833 186.417 253.548 184.477 252.583C182.552 251.624 179.874 251.021 176.9 251.015ZM176.902 250.515C179.935 250.521 182.692 251.136 184.7 252.135C186.691 253.126 188.019 254.54 188.016 256.174C188.012 257.807 186.677 259.214 184.681 260.196C182.67 261.186 179.909 261.788 176.876 261.781C173.843 261.774 171.085 261.16 169.078 260.161C167.086 259.17 165.758 257.756 165.762 256.123C165.766 254.489 167.1 253.082 169.096 252.099C171.108 251.109 173.868 250.508 176.902 250.515Z" fill="#588995"/>
<path d="M187.769 252.853C187.775 249.943 183.521 247.575 178.266 247.563C173.01 247.551 168.745 249.9 168.739 252.809C168.732 255.719 172.987 258.087 178.242 258.099C183.497 258.111 187.762 255.762 187.769 252.853Z" fill="#ECF8FF"/>
<path d="M178.265 247.812C175.672 247.806 173.336 248.385 171.655 249.31C169.966 250.24 168.992 251.487 168.989 252.81C168.986 254.132 169.955 255.385 171.639 256.323C173.315 257.256 175.649 257.843 178.242 257.849C180.836 257.855 183.173 257.278 184.853 256.353C186.542 255.422 187.516 254.174 187.519 252.852C187.522 251.53 186.554 250.278 184.869 249.34C183.193 248.407 180.858 247.818 178.265 247.812ZM178.266 247.312C180.928 247.318 183.349 247.921 185.112 248.903C186.867 249.88 188.023 251.266 188.019 252.853C188.016 254.44 186.853 255.822 185.094 256.791C183.327 257.764 180.903 258.355 178.241 258.349C175.58 258.343 173.159 257.741 171.396 256.76C169.641 255.783 168.485 254.396 168.489 252.809C168.493 251.221 169.655 249.841 171.414 248.872C173.182 247.898 175.605 247.306 178.266 247.312Z" fill="#588995"/>
<path d="M168.807 255.801C168.802 258.712 173.056 261.081 178.311 261.092C183.566 261.103 187.832 258.756 187.837 255.845L187.788 252.858C187.793 249.948 183.539 247.579 178.284 247.568C173.029 247.557 168.763 249.904 168.758 252.814L168.807 255.801Z" fill="#C4DAE6"/>
<path d="M178.284 247.318C180.946 247.323 183.366 247.926 185.13 248.908C186.883 249.884 188.039 251.268 188.038 252.854L188.087 255.841V255.845L188.073 256.141C187.937 257.605 186.812 258.875 185.163 259.783C183.395 260.756 180.972 261.347 178.311 261.341C175.649 261.336 173.228 260.734 171.465 259.752C169.712 258.777 168.556 257.391 168.557 255.805L168.508 252.819L168.758 252.814H168.735L168.508 252.819V252.814C168.511 251.226 169.673 249.845 171.432 248.877C173.199 247.903 175.623 247.312 178.284 247.318ZM178.283 247.818C175.69 247.813 173.353 248.39 171.673 249.315C169.984 250.245 169.01 251.492 169.008 252.815L169.057 255.797V255.802L168.807 255.801H168.778L169.057 255.802C169.054 257.125 170.023 258.377 171.708 259.315C173.384 260.248 175.718 260.836 178.312 260.841C180.905 260.847 183.242 260.27 184.922 259.345C186.609 258.416 187.582 257.17 187.587 255.849L187.538 252.862V252.858C187.541 251.535 186.572 250.282 184.887 249.344C183.21 248.411 180.876 247.823 178.283 247.818Z" fill="#588995"/>
<path d="M187.769 252.853C187.775 249.943 183.521 247.575 178.266 247.563C173.01 247.551 168.745 249.9 168.739 252.809C168.732 255.719 172.987 258.087 178.242 258.099C183.497 258.111 187.762 255.762 187.769 252.853Z" fill="#ECF8FF"/>
<path d="M178.265 247.812C175.672 247.806 173.336 248.385 171.655 249.31C169.966 250.24 168.992 251.487 168.989 252.81C168.986 254.132 169.955 255.385 171.639 256.323C173.315 257.256 175.649 257.843 178.242 257.849C180.836 257.855 183.173 257.278 184.853 256.353C186.542 255.422 187.516 254.174 187.519 252.852C187.522 251.53 186.554 250.278 184.869 249.34C183.193 248.407 180.858 247.818 178.265 247.812ZM178.266 247.312C180.928 247.318 183.349 247.921 185.112 248.903C186.867 249.88 188.023 251.266 188.019 252.853C188.016 254.44 186.853 255.822 185.094 256.791C183.327 257.764 180.903 258.355 178.241 258.349C175.58 258.343 173.159 257.741 171.396 256.76C169.641 255.783 168.485 254.396 168.489 252.809C168.493 251.221 169.655 249.841 171.414 248.872C173.182 247.898 175.605 247.306 178.266 247.312Z" fill="#588995"/>
<path d="M182.589 257.543L182.578 260.546C183.453 260.305 184.246 259.993 184.94 259.621L184.951 256.602C184.257 256.979 183.464 257.296 182.589 257.543Z" fill="#ECF8FF"/>
<path d="M185.201 256.603L185.19 259.622V259.771L185.059 259.842L184.94 259.621L184.939 259.62L185.059 259.842C184.346 260.224 183.535 260.542 182.645 260.787L182.327 260.874L182.339 257.542L182.34 257.353L182.521 257.302C183.381 257.06 184.156 256.749 184.832 256.382L185.203 256.181L185.201 256.603ZM184.699 257.012C184.131 257.29 183.508 257.531 182.838 257.729L182.829 260.213C183.509 260.007 184.132 259.757 184.69 259.469L184.699 257.012Z" fill="#588995"/>
</svg>
