<svg width="413" height="200" viewBox="0 0 413 200" fill="none" xmlns="http://www.w3.org/2000/svg">
<path d="M228.558 164.074L133.495 176.83L136.904 181.725C138.345 183.802 140.754 185.013 143.311 184.961H228.327L229.316 184.857C233.598 184.387 237.175 181.422 238.406 177.351L264.233 95.3689C265.885 89.9201 268.726 84.9097 272.566 80.6613C277.352 75.3377 279.888 67.7804 279.078 60.484C278.268 53.1876 274.47 46.9351 269.031 42.7806L262.571 37.8642L260.709 36.3193C259.078 35.8705 257.49 35.2233 256.006 35.86L228.558 164.063V164.074Z" fill="#A9D2FF"/>
<path d="M266.59 54.148L266.391 53.9914C266.391 53.9914 266.443 54.0332 266.464 54.0436L266.59 54.148Z" fill="#5462FF"/>
<path d="M258.247 35.599C261.151 35.5259 262.897 37.9998 262.15 41.1104L231.083 172.456C230.336 175.566 227.39 178.145 224.487 178.207L136.977 178.489C134.073 178.562 132.327 176.088 133.074 172.978L164.204 41.3609C164.951 38.2503 167.897 35.672 170.8 35.6094H258.257L258.247 35.599Z" fill="#E2F3FF"/>
<path d="M257.574 87.342L256.606 87.5298C256.754 86.9453 257.143 86.5591 257.595 86.4651L258.563 86.2773C258.121 86.3712 257.732 86.7365 257.574 87.342Z" fill="#5462FF"/>
<path d="M253.734 101.705L252.767 101.893L256.596 87.5192L257.564 87.3313L253.734 101.705Z" fill="#5462FF"/>
<path d="M253.745 104.388C253.745 104.388 253.693 104.367 253.672 104.346C252.935 103.918 252.525 102.822 252.767 101.893L253.735 101.705C253.493 102.634 253.903 103.719 254.639 104.158C254.671 104.158 254.692 104.179 254.713 104.2C254.955 104.325 255.208 104.356 255.46 104.314L254.492 104.502C254.261 104.555 254.008 104.502 253.745 104.388Z" fill="#5462FF"/>
<path d="M259.299 86.3918C259.299 86.3918 259.352 86.4127 259.373 86.4336C260.12 86.8615 260.52 87.9575 260.278 88.8866L256.448 103.26C256.206 104.158 255.438 104.575 254.723 104.21C254.702 104.21 254.67 104.189 254.649 104.168C253.902 103.74 253.502 102.644 253.744 101.715L255.659 94.5285L257.574 87.3417C257.805 86.444 258.584 86.0265 259.299 86.3918Z" fill="#E2F3FF"/>
<path d="M251.535 108.813L250.567 109.001C250.715 108.417 251.104 108.03 251.556 107.936L252.524 107.749C252.072 107.843 251.693 108.208 251.535 108.813Z" fill="#5462FF"/>
<path d="M247.717 123.187L246.749 123.375L250.578 109.001L251.546 108.814L247.717 123.187Z" fill="#5462FF"/>
<path d="M247.717 125.859C247.717 125.859 247.664 125.838 247.643 125.818C246.896 125.39 246.497 124.294 246.739 123.365L247.706 123.177C247.464 124.106 247.864 125.191 248.611 125.63C248.632 125.63 248.664 125.651 248.685 125.671C248.937 125.797 249.19 125.828 249.432 125.786L248.464 125.974C248.232 126.026 247.98 125.985 247.717 125.859Z" fill="#5462FF"/>
<path d="M253.271 107.864C253.271 107.864 253.313 107.885 253.345 107.905C254.091 108.333 254.491 109.429 254.249 110.358L250.42 124.732C250.178 125.63 249.41 126.047 248.694 125.682C248.673 125.671 248.642 125.661 248.621 125.64C247.874 125.212 247.474 124.116 247.716 123.187L251.546 108.814C251.787 107.916 252.555 107.498 253.271 107.864Z" fill="#E2F3FF"/>
<path d="M169.098 50.8806H252.473C253.819 50.8806 254.629 52.0288 254.282 53.4693L228.518 160.274C228.181 161.694 226.824 162.873 225.456 162.894H142.628C141.282 162.894 140.471 161.746 140.819 160.306L166.047 53.5111C166.383 52.0915 167.741 50.9224 169.108 50.8911L169.098 50.8806Z" fill="#A9D2FF"/>
<path d="M169.917 51.8203H253.292C253.649 51.8203 253.965 51.9038 254.239 52.0395C253.976 51.3297 253.334 50.86 252.482 50.8704H169.107C167.728 50.9017 166.392 52.0708 166.045 53.4904L140.807 160.316C140.554 161.381 140.933 162.289 141.68 162.686C141.522 162.268 141.501 161.788 141.617 161.266L166.845 54.4612C167.181 53.0416 168.528 51.8725 169.906 51.8412L169.917 51.8203Z" fill="#121212"/>
<path d="M149.2 148.861C149.056 149.521 149.503 150.172 150.108 150.172H174.188C175.013 150.172 175.724 149.529 175.921 148.635C176.065 147.967 175.618 147.315 175.013 147.315H150.941C150.116 147.315 149.404 147.958 149.2 148.861Z" fill="white"/>
<path d="M154.941 155.53C154.777 156.188 155.287 156.837 155.979 156.837H183.499C184.442 156.837 185.255 156.196 185.48 155.296C185.644 154.63 185.134 153.98 184.442 153.98H156.93C155.988 153.98 155.175 154.621 154.941 155.521V155.53Z" fill="white"/>
<path d="M147.296 155.53C147.117 156.188 147.655 156.837 148.382 156.837H150.883C151.869 156.837 152.726 156.196 152.965 155.296C153.144 154.63 152.606 153.98 151.879 153.98H149.378C148.392 153.98 147.536 154.621 147.286 155.521L147.296 155.53Z" fill="white"/>
<path d="M233.262 56.8768C232.995 57.9306 231.95 58.7719 230.928 58.7626C229.906 58.7534 229.302 57.9029 229.558 56.8583C229.813 55.8137 230.846 54.954 231.88 54.954C232.913 54.954 233.529 55.8137 233.262 56.8675V56.8768Z" fill="white"/>
<path d="M240.911 56.8768C240.644 57.9306 239.599 58.7719 238.577 58.7626C237.555 58.7534 236.951 57.9029 237.207 56.8583C237.462 55.8137 238.496 54.954 239.529 54.954C240.563 54.954 241.178 55.8137 240.911 56.8675V56.8768Z" fill="white"/>
<path d="M248.563 56.8768C248.295 57.9306 247.25 58.7719 246.229 58.7626C245.207 58.7534 244.603 57.9029 244.858 56.8583C245.114 55.8137 246.147 54.954 247.181 54.954C248.214 54.954 248.83 55.8137 248.563 56.8675V56.8768Z" fill="white"/>
<path d="M230.169 99.7739C225.939 117.07 209.306 130.943 193.031 130.828C176.819 130.713 166.982 116.726 171.054 99.5233C175.146 82.2375 191.706 68.1875 208.086 68.1979C224.466 68.2188 234.419 82.3836 230.169 99.7739Z" fill="white"/>
<path d="M234.24 99.8052C229.421 119.408 210.495 135.139 191.979 135.003C173.526 134.868 162.343 119.022 166.972 99.5234C171.622 79.9307 190.464 64.0018 209.117 64.0227C227.759 64.0435 239.079 80.1081 234.25 99.8052H234.24Z" stroke="white" stroke-width="0.96632" stroke-miterlimit="10"/>
<path d="M212.872 90.9121C217.69 90.9121 220.689 94.7847 219.563 99.555C218.437 104.325 213.64 108.177 208.822 108.177C204.003 108.177 201.015 104.315 202.12 99.555C203.235 94.7847 208.043 90.9121 212.862 90.9121H212.872Z" fill="#00B386"/>
<path d="M208.611 109.148C208.138 109.148 207.696 109.106 207.254 109.043L205.634 115.985H186.276L193.904 83.0727H213.335L211.704 90.056C212.178 89.9933 212.641 89.9411 213.114 89.9411C213.588 89.9411 214.04 89.9829 214.471 90.056L216.112 83.0727C216.47 81.5487 215.513 80.317 213.977 80.317H194.535C192.999 80.317 191.473 81.5487 191.116 83.0727L183.499 115.985C183.152 117.488 184.109 118.72 185.635 118.72H204.982C206.507 118.72 208.033 117.498 208.39 115.985L210.021 109.043C209.548 109.106 209.085 109.148 208.611 109.148Z" fill="#50DDB6"/>
<path d="M209.389 105.056L214.47 98.5317C214.576 98.4065 214.502 98.2499 214.355 98.2499H212.04C211.945 98.2499 211.882 98.1768 211.903 98.0829L212.819 94.1581C212.871 93.9493 212.587 93.8762 212.45 94.0641L207.222 100.619C207.117 100.745 207.18 100.912 207.337 100.912H209.778C209.873 100.912 209.936 100.985 209.915 101.079L209 104.972C208.947 105.181 209.231 105.254 209.378 105.066L209.389 105.056Z" fill="white"/>
<path d="M241.648 35.7385H253.064L250.989 43.9449C250.989 43.9449 239.774 45.0125 241.648 35.7385Z" fill="#A9D2FF"/>
<path d="M168.349 44.7642C168.086 45.7871 168.875 46.7787 169.927 46.7787H252.565C254.007 46.7787 255.248 45.7975 255.606 44.4092C255.869 43.3759 255.09 42.3947 254.028 42.3947H171.389C169.948 42.3947 168.696 43.3759 168.349 44.7642Z" fill="#5462FF"/>
<path d="M253.302 14.9626H246.632C246.611 15.1296 246.579 15.3175 246.527 15.4949C246.116 17.0085 244.686 18.2611 243.329 18.2715C241.992 18.2715 241.277 17.0502 241.729 15.5576C241.793 15.3592 241.877 15.1609 241.971 14.9626H237.921C237.9 15.1296 237.868 15.3175 237.816 15.4949C237.405 17.0085 235.975 18.2611 234.618 18.2715C233.281 18.2715 232.566 17.0502 233.018 15.5576C233.082 15.3592 233.155 15.1609 233.26 14.9626H229.199C229.178 15.1296 229.147 15.3175 229.094 15.4949C228.684 17.0085 227.253 18.2611 225.896 18.2715C224.56 18.2715 223.845 17.0502 224.297 15.5576C224.36 15.3592 224.434 15.1609 224.539 14.9626H220.478C220.457 15.1296 220.425 15.3175 220.373 15.4949C219.962 17.0085 218.532 18.2611 217.175 18.2715C215.838 18.2715 215.123 17.0502 215.575 15.5576C215.639 15.3592 215.712 15.1609 215.817 14.9626H211.757C211.735 15.1296 211.704 15.3175 211.651 15.4949C211.241 17.0085 209.81 18.2611 208.453 18.2715C207.117 18.2715 206.402 17.0502 206.854 15.5576C206.917 15.3592 206.991 15.1609 207.096 14.9626H203.035C203.014 15.1296 202.982 15.3175 202.93 15.4949C202.52 17.0085 201.089 18.2611 199.732 18.2715C198.395 18.2715 197.68 17.0502 198.132 15.5576C198.196 15.3592 198.269 15.1609 198.374 14.9626H194.314C194.292 15.1296 194.261 15.3175 194.208 15.4949C193.798 17.0085 192.367 18.2611 191.01 18.2715C189.674 18.2715 188.959 17.0502 189.411 15.5576C189.474 15.3592 189.548 15.1609 189.653 14.9626H185.592C185.571 15.1296 185.539 15.3175 185.487 15.4949C185.077 17.0085 183.646 18.2611 182.289 18.2715C180.952 18.2715 180.237 17.0502 180.689 15.5576C180.753 15.3592 180.826 15.1609 180.931 14.9626H176.124C153.178 44.0437 171.8 44.0437 171.8 44.0437H250.419C248.589 43.9394 231.956 44.0437 253.134 14.9626H253.218H253.302Z" fill="#E2F3FF"/>
<path d="M211.827 21.6277H178.297C177.639 21.6277 177.024 21.9531 176.654 22.4968C176.355 22.9366 176.67 23.5321 177.202 23.5321H210.743C211.377 23.5321 211.977 23.2408 212.368 22.7421C212.723 22.2901 212.401 21.6277 211.827 21.6277Z" fill="white"/>
<path d="M174.28 28.2929C173.763 28.2929 173.451 27.7196 173.732 27.2848C174.093 26.726 174.713 26.3885 175.378 26.3885H181.408C181.935 26.3885 182.249 26.9764 181.956 27.4146C181.589 27.9634 180.972 28.2929 180.312 28.2929H174.28Z" fill="white"/>
<path d="M184.836 28.2929C184.308 28.2929 183.993 27.7034 184.288 27.2649C184.656 26.7172 185.272 26.3885 185.932 26.3885H201.449C201.987 26.3885 202.303 26.9931 201.996 27.4348C201.622 27.9724 201.009 28.2929 200.355 28.2929H184.836Z" fill="white"/>
<path d="M265.834 55.3839L265.011 55.5965C265.486 55.3066 265.999 55.1037 266.503 54.9684L267.326 54.7558C266.823 54.8911 266.309 55.094 265.834 55.3839Z" fill="#5462FF"/>
<path d="M262.734 65.6751C260.844 61.9838 261.862 57.4711 265.011 55.5964L265.834 55.3838C262.695 57.2585 261.668 61.7712 263.557 65.4625C265.156 68.5934 268.325 70.1202 271.163 69.3858L270.34 69.5984C267.501 70.3424 264.333 68.806 262.734 65.6751Z" fill="#5462FF"/>
<path d="M268.731 54.5817C272.413 54.5914 275.62 57.9735 275.891 62.1287C276.163 66.2838 273.401 69.6466 269.719 69.637C266.037 69.6273 262.83 66.2452 262.559 62.09C262.278 57.9348 265.039 54.5721 268.731 54.5817Z" fill="#E2F3FF"/>
<path d="M274.167 60.4858C274.322 60.9303 274.438 61.3941 274.496 61.8676C274.564 62.3314 274.574 62.8049 274.545 63.2398C274.351 65.9455 272.51 68.0231 269.971 68.1197C269.545 68.139 269.128 68.0907 268.721 67.9941C266.745 67.5496 265.01 65.9358 264.216 63.8099C264.284 63.7809 266.687 62.3121 267.636 61.7323C267.762 61.655 267.917 61.6357 268.053 61.6744C268.169 61.6937 268.285 61.7613 268.382 61.8483L269.758 63.1045C269.855 63.1915 269.971 63.2591 270.088 63.2784C270.252 63.3074 270.407 63.2784 270.543 63.1818L274.176 60.4858H274.167Z" fill="#00E1B4"/>
<path d="M274.167 60.5148L270.524 63.2012C270.398 63.2978 270.233 63.3268 270.068 63.2978C269.952 63.2785 269.836 63.2108 269.739 63.1239L268.373 61.8677C268.276 61.7807 268.16 61.7131 268.043 61.6937C267.898 61.6647 267.753 61.6744 267.627 61.7517C266.687 62.3218 264.274 63.781 264.216 63.8196C264.032 63.3171 263.896 62.7953 263.819 62.2445C263.363 58.8914 265.389 56.1084 268.324 56.0118C268.741 55.9924 269.167 56.0408 269.574 56.1374H269.594C271.628 56.6109 273.402 58.3116 274.157 60.5245" fill="#5462FF"/>
</svg>
