<svg width="411" height="300" viewBox="0 0 411 300" fill="none" xmlns="http://www.w3.org/2000/svg">
<path d="M207.087 163.498L160.373 78.059C159.063 75.6983 155.634 75.8145 154.492 78.2535L122.254 147.988C121.658 149.282 121.706 150.775 122.373 152.031L136.515 178.443L207.087 163.498Z" fill="#F0F4FF"/>
<path d="M135.665 178.442L121.385 151.691C120.637 150.277 120.585 148.572 121.25 147.122L153.315 77.5459C153.938 76.2121 155.236 75.3537 156.702 75.304C158.146 75.2544 159.524 76.0254 160.237 77.3142L207.086 163.269L135.665 178.442ZM156.839 76.503C156.806 76.503 156.775 76.503 156.742 76.503C155.714 76.5385 154.84 77.1155 154.407 78.0496L122.342 147.621C121.833 148.733 121.873 150.04 122.446 151.124L136.3 177.075L205.261 162.425L159.183 77.8865C158.7 77.0139 157.829 76.4983 156.841 76.4983L156.839 76.503Z" fill="#0B4D5E"/>
<path d="M198.667 148.618L159.98 77.2999C159.267 75.9921 157.366 76.0542 156.748 77.405L123.978 148.411C123.859 148.676 124.049 148.976 124.358 148.974L198.667 148.618Z" fill="#8AE5CC"/>
<path d="M123.912 148.972C123.56 148.972 123.24 148.803 123.051 148.519C122.864 148.234 122.838 147.882 122.981 147.575L155.962 77.7304C156.345 76.9135 157.156 76.3853 158.076 76.3548C159.047 76.3407 159.853 76.7961 160.298 77.5918L199.719 148.619L123.921 148.974H123.914L123.912 148.972ZM158.162 77.5425C158.148 77.5425 158.131 77.5425 158.114 77.5425C157.651 77.559 157.256 77.8148 157.062 78.228L124.223 147.779L197.676 147.436L159.231 78.1624C159.014 77.7727 158.617 77.5425 158.165 77.5425H158.162Z" fill="#0B4D5E"/>
<path d="M181.602 148.777L194.115 121.552C194.614 120.455 194.567 119.184 193.973 118.132L169.089 74.0354C168.448 72.8763 166.762 72.9309 166.216 74.128L131.337 148.473C131.242 148.708 131.408 148.974 131.669 148.974L181.602 148.777Z" fill="#0B4D5E"/>
<path d="M131.221 148.971C130.898 148.971 130.6 148.815 130.422 148.549C130.242 148.281 130.207 147.942 130.328 147.644L165.14 73.4202C165.481 72.6712 166.21 72.1805 167.044 72.1473C167.904 72.1047 168.669 72.5528 169.074 73.2923L193.897 117.295C194.579 118.504 194.641 119.983 194.065 121.254L181.418 148.777L131.221 148.974V148.971ZM167.139 73.3469H167.094C166.712 73.3611 166.39 73.5768 166.234 73.9229L131.6 147.765L180.648 147.57L192.973 120.749C193.39 119.829 193.345 118.757 192.85 117.883L168.027 73.8779C167.84 73.5413 167.513 73.3469 167.139 73.3469Z" fill="#0B4D5E"/>
<path d="M182.633 148.777L195.168 121.552C195.667 120.455 195.619 119.184 195.026 118.132L170.122 74.0354C169.505 72.8763 167.819 72.9309 167.25 74.128L132.399 148.473C132.28 148.708 132.47 148.974 132.707 148.974L182.633 148.777Z" fill="#F0F4FF"/>
<path d="M132.259 148.974C131.933 148.974 131.622 148.798 131.452 148.516C131.279 148.234 131.262 147.893 131.409 147.601L166.174 73.4198C166.536 72.6517 167.289 72.1659 168.133 72.1445C169.035 72.1516 169.727 72.5665 170.115 73.2989L194.951 117.295C195.633 118.501 195.692 119.981 195.117 121.253L182.448 148.775L132.257 148.971L132.259 148.974ZM132.496 148.118L132.492 148.127C132.492 148.127 132.496 148.12 132.496 148.118ZM168.187 73.351H168.161C167.768 73.3605 167.429 73.5786 167.261 73.9366L132.66 147.772L181.678 147.578L194.025 120.756C194.442 119.836 194.397 118.764 193.907 117.892L169.061 73.8843C168.881 73.5454 168.557 73.351 168.187 73.351Z" fill="#0B4D5E"/>
<path d="M179.522 104.34L174.811 114.86C174.567 115.41 173.81 115.447 173.517 114.921L168.44 105.913C168.074 105.275 168.049 104.501 168.367 103.836L173.127 93.6178C173.371 93.0774 174.152 93.0459 174.445 93.5643L179.424 102.283C179.791 102.914 179.815 103.676 179.522 104.34Z" fill="#8AE5CC"/>
<path d="M174.671 115.295C174.189 115.295 173.752 115.048 173.516 114.64L168.511 106.11C168.059 105.35 168.023 104.411 168.42 103.607L173.109 93.9337C173.314 93.5003 173.761 93.2144 174.269 93.1936C174.736 93.1844 175.248 93.4219 175.496 93.8438L180.401 102.099C180.851 102.837 180.897 103.764 180.527 104.57L175.883 114.539C175.681 114.981 175.238 115.272 174.733 115.295C174.711 115.295 174.69 115.295 174.673 115.295H174.671ZM174.43 94.4178L174.216 94.4247L169.524 104.102C169.296 104.566 169.315 105.098 169.575 105.532L174.582 114.068L174.767 114.059L179.408 104.098C179.622 103.63 179.598 103.1 179.343 102.68L174.43 94.4178Z" fill="#0B4D5E"/>
<path d="M248.658 173.18C252.426 173.18 255.499 170.117 255.499 166.34C255.499 162.564 252.426 159.498 248.658 159.498C244.866 159.498 241.817 162.561 241.817 166.34C241.817 170.119 244.866 173.18 248.658 173.18Z" fill="#F0F4FF"/>
<path d="M265.139 218.795C280.844 218.399 293.464 213.675 293.328 208.243C293.191 202.811 280.349 198.729 264.644 199.125C248.939 199.52 236.319 204.244 236.456 209.676C236.593 215.108 249.435 219.19 265.139 218.795Z" fill="#F0F4FF"/>
<path d="M292.987 208.252C292.957 207.037 292.215 205.848 290.788 204.74C289.363 203.633 287.295 202.641 284.72 201.823C279.574 200.187 272.477 199.267 264.653 199.464C256.828 199.661 249.785 200.937 244.728 202.83C242.198 203.778 240.183 204.872 238.815 206.049C237.445 207.228 236.765 208.453 236.795 209.667C236.826 210.882 237.567 212.071 238.995 213.179C240.42 214.286 242.488 215.278 245.062 216.097C250.208 217.733 257.306 218.652 265.131 218.454C272.956 218.257 279.998 216.982 285.055 215.089C287.585 214.142 289.6 213.047 290.968 211.87C292.337 210.691 293.018 209.466 292.987 208.252ZM293.667 208.235C293.705 209.736 292.86 211.139 291.411 212.385C289.96 213.634 287.864 214.764 285.293 215.726C280.148 217.652 273.028 218.936 265.148 219.135C257.268 219.333 250.091 218.409 244.856 216.745C242.24 215.913 240.09 214.89 238.578 213.716C237.069 212.544 236.154 211.186 236.116 209.684C236.078 208.183 236.924 206.78 238.372 205.533C239.823 204.285 241.919 203.156 244.489 202.194C249.634 200.268 256.756 198.983 264.635 198.785C272.515 198.586 279.691 199.511 284.927 201.175C287.543 202.007 289.693 203.028 291.205 204.202C292.714 205.374 293.629 206.733 293.667 208.235Z" fill="#0B4D5E"/>
<path d="M264.641 199.116C248.937 199.512 236.317 204.236 236.453 209.668C236.545 213.287 242.279 216.305 250.739 217.801C251.456 217.807 252.178 217.806 252.908 217.788C268.613 217.392 281.197 211.227 281.015 204.018C280.982 202.685 280.511 201.409 279.672 200.218C275.295 199.391 270.145 198.978 264.641 199.116Z" fill="#0B4D5E"/>
<path d="M265.665 198.757C270.46 198.695 274.965 199.052 278.901 199.733L279.735 199.884L279.87 199.91L279.949 200.022C280.821 201.259 281.32 202.599 281.356 204.01L281.355 204.366C281.246 208.041 278.02 211.338 273.069 213.764C268.09 216.203 261.25 217.826 253.655 218.105L252.917 218.128C252.182 218.146 251.456 218.148 250.737 218.142L250.708 218.141L250.68 218.136C246.43 217.384 242.841 216.247 240.293 214.828C237.844 213.464 236.266 211.785 236.123 209.864L236.114 209.677C236.076 208.175 236.922 206.773 238.37 205.526C239.821 204.278 241.917 203.148 244.488 202.186C249.633 200.26 256.753 198.976 264.633 198.777L265.665 198.757ZM265.674 199.438L264.651 199.457C256.826 199.654 249.784 200.929 244.727 202.822C242.197 203.769 240.181 204.865 238.814 206.042C237.444 207.221 236.763 208.446 236.793 209.66L236.816 209.963C237.003 211.476 238.302 212.941 240.623 214.234C243.075 215.6 246.572 216.717 250.767 217.461C251.473 217.467 252.183 217.466 252.9 217.448L253.63 217.426C261.152 217.149 267.894 215.542 272.77 213.153C277.674 210.751 280.576 207.621 280.675 204.345L280.676 204.027C280.645 202.813 280.229 201.64 279.471 200.527C275.423 199.774 270.713 199.373 265.674 199.438Z" fill="#0B4D5E"/>
<path d="M236.457 209.672C236.594 215.104 249.436 219.187 265.141 218.791C280.845 218.395 293.466 213.671 293.329 208.239L293.329 215.125C293.466 220.556 280.846 225.281 265.141 225.676C249.436 226.072 236.594 221.989 236.457 216.558L236.457 209.672Z" fill="#8AE5CC"/>
<path d="M293.669 215.116L293.666 215.396C293.599 216.792 292.77 218.098 291.412 219.267C289.961 220.515 287.866 221.645 285.295 222.607C280.472 224.413 273.911 225.655 266.617 225.967L265.15 226.017C257.27 226.215 250.094 225.291 244.859 223.627C242.243 222.795 240.092 221.773 238.58 220.599C237.165 219.5 236.272 218.236 236.135 216.846L236.117 216.566L236.117 209.672L236.797 209.664L236.811 209.891C236.922 211.026 237.658 212.136 238.997 213.176C240.422 214.282 242.49 215.274 245.065 216.093C250.21 217.729 257.307 218.648 265.132 218.451C272.957 218.254 279.999 216.978 285.056 215.085C287.586 214.138 289.601 213.043 290.969 211.866C292.253 210.761 292.932 209.615 292.986 208.476L292.989 208.248L292.989 208.239L293.669 208.23L293.669 215.116ZM292.989 210.584C292.606 211.212 292.072 211.814 291.412 212.382C289.961 213.631 287.865 214.76 285.294 215.723C280.149 217.648 273.029 218.932 265.15 219.131C257.27 219.329 250.094 218.406 244.858 216.741C242.243 215.91 240.092 214.887 238.58 213.713C237.825 213.127 237.219 212.494 236.797 211.82L236.797 216.549L236.811 216.776C236.922 217.912 237.659 219.022 238.997 220.062C240.422 221.168 242.49 222.16 245.065 222.979C250.21 224.614 257.307 225.534 265.132 225.337L266.59 225.287C273.83 224.978 280.316 223.745 285.057 221.971C287.587 221.024 289.601 219.929 290.969 218.752C292.253 217.647 292.932 216.501 292.986 215.361L292.989 215.134L292.988 215.125L292.989 215.125L292.989 210.584Z" fill="#0B4D5E"/>
<path d="M289.454 220.169L290.521 212.633C289.417 213.452 288.012 214.218 286.359 214.914L285.384 222.103C286.94 221.513 288.309 220.865 289.454 220.169Z" fill="#F0F4FF"/>
<path d="M290.858 212.681L289.769 220.376L289.631 220.46C288.464 221.168 287.075 221.825 285.504 222.421L284.97 222.624L286.022 214.868L286.048 214.676L286.227 214.601L286.828 214.339C288.203 213.723 289.376 213.058 290.318 212.359L290.972 211.875L290.858 212.681ZM290.075 213.355C289.107 213.994 287.963 214.595 286.67 215.148L285.798 221.576C287.058 221.073 288.178 220.531 289.14 219.959L290.075 213.355Z" fill="#0B4D5E"/>
<path d="M273.585 224.909C275.895 224.604 278.074 224.202 280.085 223.72L281.015 216.702C279.011 217.225 276.817 217.664 274.485 218.005L273.585 224.909L273.585 224.909Z" fill="#F0F4FF"/>
<path d="M280.422 223.765L280.392 223.996L280.164 224.051C278.394 224.475 276.495 224.838 274.493 225.127L273.63 225.246L273.245 225.297L273.245 224.887L273.248 224.864L274.181 217.705L274.436 217.668C276.757 217.329 278.938 216.892 280.929 216.373L281.418 216.245L280.422 223.765ZM280.611 217.154C278.802 217.607 276.85 217.993 274.788 218.302L273.979 224.511C276.029 224.227 277.971 223.867 279.778 223.441L280.611 217.154Z" fill="#0B4D5E"/>
<path d="M253.366 224.965L254.198 218.316C253.014 218.176 251.872 218.007 250.774 217.813L249.955 224.413C251.045 224.623 252.184 224.809 253.366 224.965Z" fill="#F0F4FF"/>
<path d="M250.832 217.479C251.924 217.671 253.06 217.839 254.237 217.978L254.578 218.018L254.535 218.357L253.703 225.008L253.661 225.348L253.321 225.302C252.43 225.184 251.563 225.05 250.723 224.9L249.891 224.747L249.578 224.687L250.48 217.417L250.832 217.479ZM250.332 224.137C251.214 224.302 252.128 224.45 253.07 224.58L253.817 218.61C252.873 218.494 251.957 218.358 251.067 218.207L250.332 224.137Z" fill="#0B4D5E"/>
<path d="M248.243 224.052L249.053 217.482C246.912 217.032 244.979 216.479 243.303 215.841L242.531 222.265C244.168 222.955 246.09 223.557 248.243 224.052Z" fill="#F0F4FF"/>
<path d="M243.425 215.523C245.081 216.154 246.996 216.702 249.123 217.148L249.429 217.213L248.534 224.468L248.166 224.383C246.27 223.947 244.546 223.427 243.034 222.836L242.399 222.578L242.163 222.479L242.193 222.224L243.018 215.368L243.425 215.523ZM242.899 222.047C244.368 222.648 246.064 223.182 247.951 223.632L248.678 217.747C246.812 217.343 245.105 216.859 243.589 216.308L242.899 222.047Z" fill="#0B4D5E"/>
<path d="M265.046 215.189C275.009 214.938 283.015 211.941 282.928 208.495C282.842 205.049 274.694 202.459 264.731 202.71C254.768 202.961 246.762 205.958 246.849 209.404C246.935 212.85 255.083 215.44 265.046 215.189Z" fill="#F0F4FF"/>
<path d="M282.588 208.503C282.57 207.785 282.132 207.062 281.241 206.37C280.353 205.681 279.056 205.057 277.43 204.54C274.182 203.507 269.694 202.925 264.74 203.049C259.786 203.174 255.332 203.982 252.14 205.177C250.543 205.775 249.279 206.463 248.427 207.197C247.572 207.933 247.17 208.677 247.188 209.395C247.206 210.113 247.645 210.837 248.536 211.529C249.424 212.218 250.721 212.842 252.346 213.359C255.594 214.392 260.083 214.973 265.037 214.848C269.991 214.724 274.444 213.917 277.636 212.722C279.234 212.124 280.498 211.436 281.35 210.702C282.205 209.966 282.606 209.221 282.588 208.503ZM283.268 208.486C283.294 209.491 282.727 210.414 281.794 211.217C280.858 212.023 279.513 212.745 277.875 213.359C274.595 214.586 270.063 215.403 265.054 215.529C260.045 215.655 255.478 215.068 252.14 214.007C250.473 213.477 249.094 212.823 248.119 212.066C247.146 211.31 246.534 210.417 246.509 209.412C246.483 208.407 247.05 207.485 247.983 206.682C248.919 205.876 250.263 205.154 251.901 204.54C255.181 203.312 259.714 202.496 264.723 202.37C269.732 202.244 274.298 202.831 277.636 203.892C279.303 204.422 280.683 205.076 281.658 205.833C282.63 206.588 283.243 207.481 283.268 208.486Z" fill="#0B4D5E"/>
<path d="M277.04 204.067C273.795 203.116 269.471 202.592 264.735 202.711C254.772 202.962 246.766 205.959 246.852 209.405C246.934 212.644 254.137 215.127 263.276 215.205C271.351 212.808 276.794 208.677 277.04 204.067Z" fill="#0B4D5E"/>
<path d="M265.614 202.356C270.03 202.319 274.055 202.838 277.136 203.741L277.393 203.816L277.38 204.085C277.25 206.524 275.748 208.791 273.306 210.732C270.861 212.676 267.438 214.324 263.373 215.53L263.324 215.545L263.273 215.545C258.679 215.506 254.554 214.862 251.556 213.811C250.058 213.286 248.822 212.653 247.95 211.929C247.133 211.25 246.605 210.464 246.522 209.59L246.513 209.414C246.487 208.409 247.054 207.486 247.987 206.683C248.923 205.877 250.267 205.155 251.905 204.542C255.185 203.314 259.717 202.497 264.726 202.371L265.614 202.356ZM265.621 203.036L264.743 203.051C259.789 203.176 255.336 203.984 252.144 205.179C250.547 205.777 249.283 206.465 248.431 207.198C247.576 207.934 247.174 208.678 247.192 209.396L247.2 209.523C247.26 210.156 247.646 210.791 248.385 211.405C249.172 212.059 250.325 212.659 251.78 213.169C254.678 214.185 258.706 214.82 263.229 214.863C267.217 213.674 270.536 212.065 272.883 210.199C275.144 208.401 276.468 206.393 276.676 204.318C273.707 203.485 269.856 203 265.621 203.036Z" fill="#0B4D5E"/>
<path d="M246.837 208.776C246.75 205.33 254.756 202.333 264.719 202.082C274.682 201.831 282.83 204.421 282.916 207.867L282.916 210.591C282.83 207.145 274.683 204.555 264.719 204.806C254.756 205.057 246.75 208.054 246.837 211.5L246.837 208.776Z" fill="#0B4D5E"/>
<path d="M264.711 201.742C269.719 201.616 274.286 202.204 277.624 203.265C279.291 203.795 280.671 204.449 281.646 205.206C282.618 205.961 283.23 206.854 283.256 207.859L283.257 207.867L283.256 207.867L283.256 210.591L282.576 210.6C282.558 209.882 282.119 209.158 281.228 208.466C280.34 207.776 279.043 207.153 277.418 206.636C274.169 205.603 269.681 205.021 264.727 205.146C259.773 205.271 255.321 206.079 252.129 207.274C250.531 207.872 249.267 208.56 248.415 209.293C247.56 210.029 247.158 210.773 247.176 211.492L247.176 211.5L246.497 211.509L246.497 208.777C246.475 207.775 247.041 206.855 247.971 206.054C248.907 205.249 250.251 204.527 251.889 203.913C255.169 202.686 259.702 201.869 264.711 201.742ZM264.727 202.422C259.773 202.547 255.321 203.355 252.129 204.55C250.531 205.148 249.267 205.836 248.415 206.57C247.56 207.305 247.158 208.05 247.176 208.768L247.176 209.61C247.396 209.32 247.664 209.042 247.971 208.778C248.907 207.972 250.251 207.249 251.889 206.636C255.169 205.408 259.702 204.592 264.711 204.466C269.719 204.34 274.286 204.927 277.624 205.988C279.291 206.518 280.671 207.172 281.646 207.929C282.011 208.212 282.325 208.515 282.576 208.835L282.576 207.876L282.568 207.742C282.502 207.068 282.063 206.392 281.228 205.743C280.34 205.054 279.043 204.429 277.418 203.912C274.169 202.88 269.681 202.297 264.727 202.422Z" fill="#0B4D5E"/>
<path d="M261.182 77.554L257.674 80.2673C235.595 97.3456 204.542 115.165 176.633 126.771C165.818 131.268 156.162 134.546 147.932 136.515L142.546 137.803L145.491 142.492L180.492 198.228L181.825 200.35L184.314 200.062C195.427 198.775 207.88 195.286 221.327 189.694C252.596 176.691 281.849 155.6 296.503 144.185C296.89 143.883 297.171 143.664 297.34 143.536L300.202 141.363L298.328 138.298L263.495 81.3364L261.182 77.554Z" fill="#F0F4FF"/>
<path d="M300.202 141.363L297.34 143.536L295.087 145.283C280.019 156.91 251.619 177.098 221.328 189.694L221.107 189.162C252.302 176.19 281.507 155.136 296.149 143.731L296.991 143.077L299.437 141.219L261.025 78.4028L258.026 80.7234C235.904 97.8352 204.806 115.679 176.854 127.303C166.699 131.526 157.55 134.681 149.633 136.688L148.066 137.075L143.461 138.175L182.119 199.736L184.247 199.49L185.287 199.363C196.07 197.991 208.113 194.566 221.107 189.162L221.328 189.694L220.07 190.212C207.521 195.332 195.856 198.599 185.36 199.935L184.314 200.062L181.825 200.35L142.546 137.803L147.932 136.515C155.648 134.669 164.617 131.673 174.618 127.6L176.633 126.771C203.67 115.528 233.657 98.4534 255.578 81.8706L257.674 80.2672L261.182 77.5539L300.202 141.363Z" fill="#0B4D5E"/>
<path d="M254.947 84.8262C256.219 87.3724 258.718 88.9933 261.412 88.7257C262.69 88.5988 263.841 88.0641 264.778 87.2439L292.795 133.061C289.946 134.104 288.058 137.299 288.411 140.858C288.618 142.941 289.553 144.751 290.895 145.987C275.333 157.767 248.761 176.135 220.57 187.859L220.565 187.861C209.642 192.403 199.4 195.537 190.027 197.211C189.523 193.199 186.308 190.263 182.752 190.616C181.357 190.754 180.113 191.379 179.134 192.331L149.69 145.445C151.649 143.986 152.821 141.353 152.536 138.483C152.501 138.123 152.443 137.77 152.365 137.427C159.774 135.4 168.17 132.442 177.388 128.608L177.395 128.606C203.833 117.61 233.081 101.068 254.947 84.8262Z" fill="#8AE5CC"/>
<path d="M254.947 84.8262C256.18 87.2929 258.563 88.8911 261.16 88.7451L261.412 88.7256C262.69 88.5986 263.841 88.0641 264.777 87.2441L292.795 133.061C289.946 134.104 288.058 137.299 288.411 140.857C288.618 142.941 289.554 144.752 290.896 145.987C275.333 157.768 248.761 176.135 220.57 187.858L220.349 187.327C248.159 175.762 274.406 157.704 290.021 145.923C288.837 144.623 288.033 142.878 287.838 140.915L287.81 140.562C287.605 137.184 289.289 134.109 291.957 132.795L264.624 88.0977C263.778 88.7042 262.799 89.1173 261.73 89.2676L261.469 89.2988C258.717 89.5721 256.198 88.0589 254.761 85.6787C233.602 101.315 205.706 117.181 180.106 128.089L177.616 129.138L177.609 129.141C168.588 132.892 160.343 135.808 153.031 137.839C153.063 138.032 153.09 138.229 153.109 138.427L153.134 138.712C153.32 141.453 152.264 143.99 150.45 145.57L179.262 191.452C180.234 190.678 181.404 190.17 182.695 190.042L183.062 190.017C186.653 189.863 189.756 192.716 190.499 196.535C199.666 194.846 209.674 191.766 220.344 187.329L220.349 187.326L220.57 187.858L220.564 187.861C209.642 192.403 199.4 195.537 190.027 197.211C189.523 193.199 186.308 190.262 182.752 190.615L182.492 190.647C181.203 190.834 180.052 191.438 179.134 192.33L149.69 145.445C151.588 144.032 152.747 141.517 152.559 138.752L152.536 138.483C152.509 138.213 152.471 137.947 152.42 137.687L152.365 137.428C159.311 135.527 167.124 132.807 175.669 129.316L177.388 128.608L177.395 128.605C203.833 117.61 233.081 101.068 254.947 84.8262Z" fill="#0B4D5E"/>
<path d="M240.321 144.046C239.313 133.886 231.268 126.369 222.352 127.254C213.435 128.14 207.024 137.093 208.032 147.252C209.04 157.412 217.086 164.93 226.002 164.044C234.919 163.159 241.33 154.205 240.321 144.046Z" fill="#F0F4FF"/>
<path d="M222.379 127.54C213.655 128.407 207.322 137.186 208.318 147.223C209.314 157.26 217.249 164.623 225.973 163.757C234.697 162.89 241.03 154.111 240.034 144.073C239.038 134.036 231.103 126.674 222.379 127.54ZM222.322 126.967C231.431 126.062 239.588 133.735 240.608 144.017C241.628 154.298 235.138 163.426 226.03 164.33C216.921 165.234 208.765 157.561 207.745 147.28C206.725 136.999 213.214 127.872 222.322 126.967Z" fill="#0B4D5E"/>
<path d="M123.942 149.309L199.719 148.974L198.191 151.839L124.468 152.131" fill="#F0F4FF"/>
<path d="M230.864 196.986L242.646 219.36C244.184 222.283 242.078 225.803 238.79 225.803H164.805C163.077 225.803 161.516 224.847 160.688 223.32L121.838 150.026L121.862 150.053C122.524 151.303 123.825 152.079 125.221 152.072L198.26 151.699C203.654 151.699 208.623 154.71 211.155 159.529L222.583 181.229C227.906 182.62 232.969 176.177 234.247 175.018C236.376 173.084 239.097 172.293 241.534 173.187C245.414 174.614 247.118 179.807 245.296 184.788C244.894 185.935 244.326 186.97 243.664 187.868C241.416 190.865 234.105 196.429 230.864 196.986Z" fill="#0B4D5E"/>
<path d="M239.178 226.851H164.619C162.676 226.851 160.88 225.777 159.939 224.051L120.785 150.71L121.775 150.026L121.875 150.165C122.435 151.215 123.518 151.865 124.705 151.865H124.724L198.332 151.492C204.016 151.492 209.202 154.618 211.865 159.649L223.25 181.118C227.428 181.983 231.612 177.641 233.415 175.766C233.746 175.422 234.009 175.149 234.195 174.979C236.593 172.818 239.567 172.088 242.151 173.03C243.892 173.666 245.325 175.037 246.181 176.892C247.335 179.389 247.38 182.497 246.302 185.42C245.899 186.563 245.318 187.653 244.576 188.653C242.523 191.369 235.857 196.608 232.087 197.814L243.601 219.517C244.426 221.076 244.376 222.91 243.47 224.426C242.557 225.947 240.952 226.856 239.176 226.856L239.178 226.851ZM123.301 152.848L161.002 223.472C161.729 224.806 163.117 225.636 164.619 225.636H239.178C240.523 225.636 241.741 224.947 242.433 223.795C243.119 222.649 243.157 221.26 242.53 220.081L230.26 196.953L231.088 196.812C234.114 196.295 241.348 190.912 243.608 187.921C244.273 187.022 244.798 186.039 245.163 185.004C246.131 182.376 246.102 179.606 245.082 177.399C244.35 175.819 243.193 174.702 241.736 174.169C239.588 173.387 237.065 174.025 235.005 175.881C234.834 176.034 234.59 176.287 234.288 176.605C232.301 178.674 227.664 183.516 222.695 182.234L222.437 182.167L210.795 160.218C208.343 155.584 203.57 152.707 198.334 152.707L124.731 153.08H124.705C124.221 153.08 123.747 152.999 123.301 152.848Z" fill="#0B4D5E"/>
<path d="M199.165 148.974C204.688 148.974 209.775 151.917 212.368 156.624L226.031 181.333C224.892 181.637 223.705 181.707 222.518 181.408L210.817 160.195C208.225 155.489 203.138 152.545 197.614 152.545L199.165 148.974Z" fill="#F0F4FF"/>
<path d="M224.305 182.652C223.732 182.652 223.172 182.58 222.627 182.436L222.375 182.369L210.85 160.342C208.424 155.695 203.696 152.809 198.516 152.809H197.614L199.628 147.921H200.026C205.653 147.921 210.786 151.057 213.42 156.103L227.083 182.153L226.363 182.354C225.662 182.553 224.975 182.652 224.305 182.652ZM223.179 181.318C223.857 181.462 224.565 181.471 225.301 181.349L212.361 156.676C209.996 152.146 205.448 149.289 200.421 149.147L199.403 151.616C204.673 151.928 209.408 154.992 211.907 159.771L223.177 181.315L223.179 181.318Z" fill="#0B4D5E"/>
<path d="M234.104 196.334C233.021 196.919 232.053 197.328 231.293 197.456L242.743 219.199C243.342 220.339 243.388 221.575 242.996 222.645L244.471 219.889C245.139 218.66 245.139 217.183 244.494 215.953L234.104 196.334Z" fill="#F0F4FF"/>
<path d="M243.893 222.643L242.785 222.16C243.152 221.193 243.071 220.142 242.553 219.198L230.24 196.757L231.075 196.622C231.744 196.513 232.667 196.158 233.813 195.562L234.352 195.281L245.454 215.401C246.229 216.82 246.217 218.497 245.425 219.894L243.893 222.643ZM232.079 197.589L243.629 218.644C243.836 219.019 243.987 219.409 244.087 219.803L244.351 219.328C244.948 218.277 244.955 217.015 244.375 215.95L233.844 196.868C233.18 197.19 232.595 197.429 232.077 197.587L232.079 197.589Z" fill="#0B4D5E"/>
<path d="M244.381 183.911C245.791 180.264 244.603 176.509 241.734 175.524C238.864 174.537 235.401 176.694 233.991 180.341C232.581 183.988 233.769 187.743 236.638 188.728C239.508 189.715 242.971 187.558 244.381 183.911Z" fill="#0B4D5E"/>
<path d="M243.945 184.758C244.121 184.431 244.296 184.102 244.422 183.745C244.749 182.935 244.925 182.123 244.975 181.333L236.786 176.338C235.882 176.998 235.078 177.883 234.45 178.968L243.945 184.758Z" fill="#F0F4FF"/>
<path d="M252.563 171.582C256.87 174.895 268.126 167.484 277.702 155.031C287.279 142.579 291.551 129.798 287.244 126.486L292.594 130.819C296.901 134.132 292.63 146.912 283.053 159.365C273.476 171.818 262.221 179.228 257.914 175.916L252.563 171.582Z" fill="#8AE5CC"/>
<path d="M287.458 126.221L292.809 130.555L292.808 130.555C293.994 131.471 294.55 133.009 294.607 134.915C294.664 136.829 294.223 139.169 293.353 141.772C291.612 146.982 288.128 153.324 283.323 159.572C278.518 165.82 273.283 170.816 268.695 173.837C266.402 175.346 264.254 176.374 262.39 176.81C260.529 177.245 258.898 177.101 257.707 176.185L257.7 176.18L252.349 171.846L252.771 171.313C253.734 172.053 255.124 172.225 256.884 171.814C258.641 171.403 260.714 170.42 262.97 168.934C267.48 165.965 272.662 161.029 277.433 154.824L277.433 154.823L278.312 153.66C282.628 147.84 285.752 142.024 287.357 137.223C288.213 134.661 288.631 132.406 288.577 130.602C288.523 128.796 288 127.496 287.037 126.755L287.037 126.754L287.03 126.75L287.451 126.215C287.453 126.217 287.456 126.219 287.458 126.221ZM288.852 128.225C289.099 128.918 289.231 129.711 289.257 130.582C289.314 132.495 288.872 134.835 288.002 137.439C286.369 142.323 283.206 148.202 278.858 154.066L277.972 155.238C273.167 161.487 267.932 166.481 263.344 169.502C261.051 171.012 258.903 172.039 257.039 172.476C256.109 172.693 255.236 172.766 254.447 172.67L258.121 175.646L258.307 175.779C259.26 176.406 260.585 176.533 262.235 176.147C263.992 175.736 266.064 174.754 268.321 173.269C272.831 170.3 278.013 165.362 282.784 159.158C287.556 152.953 290.996 146.678 292.708 141.557C293.564 138.994 293.981 136.739 293.927 134.936C293.873 133.129 293.35 131.83 292.387 131.089L292.38 131.083L288.852 128.225Z" fill="#0B4D5E"/>
<path d="M294.086 137.008L288.901 131.435C288.842 132.809 288.553 134.383 288.054 136.106L293.027 141.388C293.547 139.808 293.905 138.335 294.086 137.008Z" fill="#F0F4FF"/>
<path d="M289.149 131.204L294.334 136.777L294.444 136.895L294.421 137.055C294.238 138.407 293.875 139.9 293.349 141.495L293.17 142.038L287.805 136.34L287.672 136.198L287.726 136.011C288.221 134.307 288.503 132.76 288.561 131.422L288.594 130.609L289.149 131.204ZM289.181 132.238C289.068 133.393 288.814 134.659 288.431 136.012L292.877 140.734C293.279 139.438 293.563 138.226 293.724 137.119L289.181 132.238Z" fill="#0B4D5E"/>
<path d="M287.772 152.312C288.989 150.325 290.048 148.379 290.939 146.512L286.07 141.373C285.216 143.26 284.176 145.24 282.973 147.267L287.772 152.312Z" fill="#F0F4FF"/>
<path d="M291.346 146.448L291.246 146.659C290.35 148.537 289.284 150.494 288.062 152.49L287.831 152.868L287.525 152.547L282.726 147.503L282.549 147.316L282.68 147.095C283.878 145.077 284.912 143.107 285.761 141.234L285.97 140.773L291.346 146.448ZM286.168 141.971C285.381 143.662 284.452 145.422 283.395 147.218L287.71 151.755C288.78 149.983 289.723 148.247 290.529 146.574L286.168 141.971Z" fill="#0B4D5E"/>
<path d="M275.082 168.056L270.438 163.224C269.584 164.056 268.734 164.837 267.892 165.569L272.505 170.359C273.355 169.644 274.216 168.875 275.082 168.056Z" fill="#F0F4FF"/>
<path d="M270.683 162.989L275.564 168.067L275.316 168.303C274.446 169.127 273.579 169.9 272.724 170.619L272.481 170.824L272.26 170.595L267.399 165.547L267.669 165.313C268.505 164.585 269.351 163.808 270.2 162.981L270.446 162.741L270.683 162.989ZM270.428 163.704C269.743 164.365 269.06 164.993 268.383 165.589L272.528 169.892C273.212 169.31 273.902 168.692 274.596 168.042L270.428 163.704Z" fill="#0B4D5E"/>
<path d="M271.156 171.457L266.56 166.692C264.863 168.073 263.217 169.227 261.666 170.128L266.172 174.771C267.739 173.933 269.416 172.819 271.155 171.458L271.156 171.457Z" fill="#F0F4FF"/>
<path d="M271.597 171.427L271.431 171.657L271.403 171.697L271.365 171.727C269.614 173.098 267.919 174.223 266.332 175.072L266.106 175.192L261.421 170.366L261.119 170.053L261.495 169.835C263.027 168.944 264.659 167.801 266.345 166.43L266.588 166.232L271.597 171.427ZM266.529 167.152C265.041 168.347 263.591 169.369 262.209 170.2L266.234 174.349C267.626 173.586 269.109 172.604 270.646 171.42L266.529 167.152Z" fill="#0B4D5E"/>
<path d="M277.703 155.039C287.28 142.586 291.552 129.806 287.245 126.493C282.938 123.181 271.683 130.591 262.106 143.044C252.529 155.498 248.257 168.278 252.564 171.59C256.872 174.903 268.127 167.492 277.703 155.039Z" fill="#F0F4FF"/>
<path d="M287.037 126.762C286.074 126.022 284.684 125.849 282.924 126.261C281.167 126.672 279.095 127.655 276.838 129.14C272.328 132.11 267.147 137.046 262.375 143.251C257.604 149.455 254.163 155.731 252.451 160.852C251.595 163.415 251.177 165.669 251.231 167.473C251.285 169.28 251.808 170.579 252.771 171.32C253.734 172.061 255.125 172.233 256.885 171.821C258.642 171.41 260.714 170.428 262.971 168.942C267.481 165.973 272.662 161.036 277.434 154.831C282.205 148.626 285.646 142.351 287.358 137.23C288.214 134.668 288.632 132.413 288.578 130.609C288.524 128.802 288 127.503 287.037 126.762ZM287.451 126.223C288.642 127.139 289.2 128.679 289.258 130.589C289.315 132.502 288.873 134.842 288.003 137.446C286.262 142.656 282.778 148.997 277.973 155.246C273.168 161.494 267.933 166.49 263.344 169.511C261.052 171.02 258.904 172.047 257.04 172.483C255.179 172.918 253.548 172.774 252.357 171.859C251.167 170.943 250.609 169.403 250.552 167.493C250.494 165.579 250.936 163.24 251.806 160.637C253.548 155.427 257.032 149.085 261.837 142.836C266.642 136.588 271.876 131.593 276.465 128.572C278.757 127.063 280.905 126.035 282.769 125.599C284.63 125.163 286.261 125.308 287.451 126.223Z" fill="#0B4D5E"/>
<path d="M274.85 152.828C280.926 144.928 283.636 136.82 280.903 134.719C278.171 132.617 271.03 137.318 264.955 145.219C258.879 153.119 256.169 161.227 258.902 163.328C261.634 165.43 268.775 160.729 274.85 152.828Z" fill="#F0F4FF"/>
<path d="M280.695 134.989C280.126 134.551 279.288 134.436 278.19 134.693C277.095 134.949 275.794 135.564 274.369 136.503C271.523 138.377 268.245 141.498 265.224 145.426C262.203 149.354 260.028 153.324 258.948 156.556C258.407 158.174 258.147 159.589 258.18 160.713C258.214 161.84 258.539 162.621 259.109 163.059C259.678 163.497 260.516 163.611 261.615 163.354C262.71 163.098 264.011 162.484 265.436 161.546C268.282 159.671 271.559 156.549 274.58 152.621C277.601 148.693 279.777 144.724 280.857 141.492C281.398 139.874 281.658 138.458 281.624 137.334C281.591 136.207 281.265 135.426 280.695 134.989ZM281.11 134.449C281.907 135.062 282.268 136.083 282.305 137.314C282.342 138.548 282.057 140.048 281.502 141.707C280.392 145.029 278.174 149.064 275.12 153.036C272.065 157.008 268.735 160.188 265.809 162.114C264.348 163.076 262.972 163.735 261.77 164.017C260.571 164.297 259.491 164.211 258.694 163.598C257.898 162.985 257.538 161.964 257.501 160.733C257.464 159.5 257.748 158 258.303 156.341C259.413 153.019 261.631 148.983 264.686 145.012C267.74 141.04 271.07 137.86 273.996 135.934C275.457 134.972 276.833 134.312 278.036 134.031C279.234 133.75 280.314 133.836 281.11 134.449Z" fill="#0B4D5E"/>
<path d="M258.398 162.944C255.666 160.843 258.376 152.734 264.451 144.834C270.527 136.934 277.667 132.233 280.4 134.334L282.516 136.048C279.784 133.947 272.643 138.648 266.568 146.548C260.492 154.448 257.782 162.556 260.515 164.658L258.398 162.944Z" fill="#0B4D5E"/>
<path d="M277.532 133.646C278.656 133.384 279.675 133.442 280.455 133.956L280.608 134.064L280.614 134.07L282.73 135.783L282.779 135.832C282.879 135.953 282.884 136.131 282.783 136.259C282.682 136.386 282.508 136.423 282.367 136.354L282.309 136.318C281.74 135.88 280.902 135.765 279.804 136.022C278.709 136.278 277.407 136.893 275.983 137.831C273.136 139.705 269.858 142.827 266.837 146.755C263.816 150.683 261.642 154.653 260.561 157.885C260.021 159.503 259.76 160.918 259.794 162.042C259.827 163.17 260.153 163.95 260.723 164.388L260.73 164.394L260.778 164.442C260.878 164.563 260.883 164.741 260.782 164.869C260.681 164.997 260.506 165.032 260.366 164.963L260.308 164.927C260.305 164.925 260.303 164.923 260.301 164.921L260.301 164.922L258.191 163.214L258.047 163.094C257.35 162.473 257.031 161.502 256.997 160.349C256.96 159.115 257.245 157.615 257.8 155.956C258.91 152.634 261.128 148.598 264.183 144.627C267.237 140.655 270.567 137.475 273.492 135.549C274.954 134.587 276.33 133.928 277.532 133.646ZM277.687 134.308C276.592 134.564 275.291 135.18 273.866 136.118C271.019 137.992 267.742 141.114 264.722 145.042C261.701 148.97 259.525 152.938 258.445 156.171C257.904 157.789 257.643 159.205 257.677 160.329C257.709 161.386 257.997 162.138 258.502 162.589L258.606 162.675L258.613 162.68L259.26 163.204C259.174 162.851 259.126 162.468 259.114 162.063C259.077 160.829 259.362 159.329 259.916 157.67C261.027 154.348 263.244 150.313 266.298 146.341C269.353 142.369 272.684 139.189 275.609 137.263C277.07 136.301 278.447 135.641 279.649 135.36C280.098 135.255 280.53 135.2 280.937 135.207L280.186 134.599L280.185 134.599C279.616 134.165 278.781 134.052 277.687 134.308Z" fill="#0B4D5E"/>
<path d="M243.072 185.981L234.08 180C234.056 180.064 234.032 180.12 234.008 180.186C233.816 180.721 233.696 181.256 233.6 181.789L241.966 187.367C242.374 186.965 242.735 186.491 243.072 185.981Z" fill="#F0F4FF"/>
<path d="M243.494 183.636C244.512 180.552 243.656 177.375 241.574 176.539C239.47 175.707 236.949 177.53 235.931 180.616C234.914 183.702 235.77 186.877 237.851 187.713C239.956 188.548 242.453 186.722 243.494 183.636Z" fill="#8AE5CC"/>
<path d="M124.473 153.183L124.469 151.966L197.922 151.598L198.946 149.15L123.947 149.571L123.942 148.357L200.772 147.921L198.735 152.807L124.473 153.183Z" fill="#0B4D5E"/>
</svg>
