<svg width="411" height="300" viewBox="0 0 411 300" fill="none" xmlns="http://www.w3.org/2000/svg">
<path fill-rule="evenodd" clip-rule="evenodd" d="M185.748 77.28C183.824 77.28 182.127 78.5344 181.563 80.372L181.563 80.3723L152.479 175.029C152.479 175.029 152.479 175.029 152.478 175.029C151.233 179.084 147.485 181.851 143.246 181.851H85.64C84.182 181.851 83 180.669 83 179.211C83 177.753 84.182 176.571 85.64 176.571H143.246C145.168 176.571 146.867 175.316 147.431 173.479L147.431 173.478L176.515 78.8219C177.761 74.7667 181.506 72 185.748 72H224.548C228.787 72 232.535 74.7661 233.781 78.8216C233.781 78.8217 233.781 78.8218 233.781 78.8219L262.865 173.478L262.865 173.479C263.429 175.316 265.127 176.571 267.051 176.571H324.656C326.114 176.571 327.296 177.753 327.296 179.211C327.296 180.669 326.114 181.851 324.656 181.851H267.051C262.809 181.851 259.063 179.084 257.818 175.029C257.818 175.029 257.818 175.029 257.818 175.029L228.734 80.3723L228.734 80.372C228.169 78.5349 226.47 77.28 224.548 77.28H185.748Z" fill="#0B4D5E"/>
<path d="M224.548 77.0801C226.495 77.0801 228.224 78.3113 228.866 80.1348L228.925 80.3135L258.009 174.97V174.971L258.131 175.339C259.459 179.108 263.026 181.65 267.051 181.65H324.656C326.004 181.65 327.096 180.558 327.097 179.211C327.097 177.863 326.004 176.771 324.656 176.771H267.051C265.102 176.771 263.375 175.54 262.732 173.716L262.674 173.537L233.59 78.8809L233.589 78.8789V78.877C232.368 74.9073 228.698 72.2002 224.548 72.2002H185.748C181.724 72.2004 178.156 74.7427 176.828 78.5117L176.707 78.8809L147.622 173.537L147.563 173.716C146.921 175.539 145.192 176.771 143.245 176.771H85.6396C84.2922 176.771 83.2002 177.863 83.2002 179.211C83.2004 180.558 84.2924 181.65 85.6396 181.65H143.245C147.397 181.65 151.067 178.942 152.287 174.971V174.97L181.371 80.3135L181.372 80.3115C181.963 78.391 183.737 77.0802 185.748 77.0801H224.548ZM257.792 175.035L257.769 175.043L257.818 175.029L257.843 175.021L257.792 175.035ZM152.479 175.029L152.522 175.042L152.503 175.035L152.453 175.021L152.479 175.029ZM152.453 175.021L152.503 175.035L152.479 175.028L152.434 175.015L152.453 175.021ZM257.823 175.026L257.792 175.035L257.843 175.021L257.866 175.014L257.823 175.026ZM179.057 79.3975L179.096 79.4053H179.098L179.135 79.4219C179.216 79.4664 179.259 79.563 179.23 79.6553C179.202 79.7475 179.113 79.8046 179.021 79.7959L178.98 79.7881L178.979 79.7871C178.873 79.7546 178.814 79.6435 178.846 79.5381C178.874 79.4456 178.964 79.3884 179.057 79.3975ZM233.697 78.8467L233.69 78.8486L233.738 78.834L233.746 78.832L233.697 78.8467ZM327.496 179.211C327.496 180.779 326.225 182.051 324.656 182.051H267.051C262.856 182.051 259.137 179.4 257.753 175.472L257.627 175.088L257.626 175.084V175.083L228.543 80.4307L228.542 80.4297V80.4307C228.004 78.6777 226.382 77.4795 224.548 77.4795H185.748C184.027 77.4796 182.496 78.5322 181.867 80.1084L181.754 80.4307L152.67 175.083L152.671 175.084L152.67 175.088C151.398 179.227 147.572 182.051 143.245 182.051H85.6396C84.0714 182.051 82.8 180.779 82.7998 179.211C82.7998 177.643 84.0713 176.37 85.6396 176.37H143.245C145.08 176.37 146.702 175.173 147.24 173.42L176.324 78.7627L176.451 78.3789C177.835 74.4504 181.554 71.8 185.748 71.7998H224.548C228.74 71.7998 232.461 74.4497 233.846 78.3789L233.972 78.7627L263.057 173.42L263.17 173.742C263.798 175.318 265.329 176.37 267.051 176.37H324.656C326.225 176.37 327.496 177.642 327.496 179.211Z" fill="#0B4D5E"/>
<path fill-rule="evenodd" clip-rule="evenodd" d="M176.501 78.8218C177.746 74.7663 181.494 72.0002 185.733 72.0002H224.533C228.775 72.0002 232.52 74.7668 233.766 78.8218C233.766 78.8217 233.766 78.8219 233.766 78.8218L248.974 128.319C249.403 129.712 248.62 131.189 247.226 131.617C245.833 132.046 244.356 131.263 243.927 129.869L228.719 80.3726C228.154 78.535 226.457 77.2802 224.533 77.2802H185.733C183.811 77.2802 182.112 78.5352 181.548 80.3722L166.339 129.869C165.911 131.263 164.434 132.046 163.04 131.617C161.646 131.189 160.864 129.712 161.292 128.319L176.501 78.8218C176.501 78.8217 176.501 78.8219 176.501 78.8218Z" fill="#8AE5CC"/>
<path d="M224.533 71.8C228.863 71.8002 232.686 74.6241 233.957 78.7629L249.166 128.26L249.237 128.541C249.519 129.953 248.691 131.377 247.285 131.809C245.786 132.27 244.197 131.427 243.736 129.928L228.527 80.4309C227.989 78.6776 226.369 77.4798 224.533 77.4797H185.733C184.013 77.4798 182.481 78.5328 181.852 80.1086L181.739 80.4309L166.53 129.928C166.098 131.333 164.675 132.161 163.264 131.88L162.981 131.809C161.482 131.348 160.64 129.759 161.101 128.26L176.31 78.7629L176.435 78.3792C177.82 74.45 181.541 71.8001 185.733 71.8H224.533ZM185.733 72.2004C181.711 72.2005 178.142 74.7425 176.813 78.512L176.691 78.8801L161.483 128.377C161.088 129.665 161.811 131.03 163.099 131.426L163.341 131.488C164.554 131.73 165.776 131.018 166.147 129.811L181.356 80.3137L181.415 80.135C182.058 78.3115 183.786 77.0804 185.733 77.0803H224.533C226.545 77.0804 228.32 78.3923 228.91 80.3137L244.118 129.811C244.514 131.099 245.88 131.822 247.168 131.426C248.456 131.03 249.179 129.665 248.783 128.377L233.575 78.8801L233.771 78.8196L233.766 78.8215L233.574 78.8801C232.354 74.9095 228.687 72.2005 224.533 72.2004H185.733Z" fill="#0B4D5E"/>
<path d="M246.238 135.013C249.508 135.013 252.158 132.362 252.158 129.092C252.158 125.822 249.508 123.172 246.238 123.172C242.968 123.172 240.317 125.822 240.317 129.092C240.317 132.362 242.968 135.013 246.238 135.013Z" fill="#F0F4FF"/>
<path d="M239.917 129.093C239.917 125.602 242.748 122.771 246.238 122.771V123.172C242.968 123.172 240.317 125.823 240.317 129.093L240.325 129.397C240.479 132.424 242.906 134.851 245.934 135.005L246.238 135.012C249.406 135.012 251.992 132.525 252.15 129.397L252.158 129.093C252.158 125.925 249.671 123.338 246.543 123.179L246.238 123.172V122.771C249.729 122.771 252.559 125.602 252.559 129.093C252.558 132.583 249.729 135.413 246.238 135.413C242.748 135.413 239.917 132.583 239.917 129.093Z" fill="#0B4D5E"/>
<path d="M163.83 133.077C166.031 133.077 167.816 131.292 167.816 129.091C167.816 126.89 166.031 125.105 163.83 125.105C161.628 125.105 159.844 126.89 159.844 129.091C159.844 131.292 161.628 133.077 163.83 133.077Z" fill="#8AE5CC"/>
<path d="M167.595 129.092C167.595 127.012 165.909 125.326 163.83 125.326C161.751 125.326 160.064 127.012 160.064 129.092C160.065 131.171 161.751 132.856 163.83 132.856V133.077L163.625 133.072C161.587 132.969 159.952 131.335 159.849 129.297L159.844 129.092C159.844 126.89 161.629 125.105 163.83 125.105L164.035 125.11C166.141 125.217 167.816 126.959 167.816 129.092L167.811 129.297C167.704 131.402 165.962 133.077 163.83 133.077V132.856C165.909 132.856 167.595 131.171 167.595 129.092Z" fill="#8AE5CC"/>
<path d="M155.055 226.028C181.833 225.156 203.39 219.85 203.205 214.176C203.021 208.503 181.164 204.611 154.386 205.483C127.609 206.355 106.051 211.661 106.236 217.335C106.421 223.008 128.278 226.9 155.055 226.028Z" fill="#0B4D5E"/>
<path d="M203.006 214.183C202.986 213.542 202.659 212.907 202.014 212.282C201.369 211.656 200.418 211.053 199.182 210.483C196.711 209.344 193.144 208.357 188.734 207.572C179.917 206.002 167.772 205.247 154.393 205.683C141.014 206.118 128.945 207.662 120.249 209.802C115.899 210.873 112.403 212.09 110.011 213.387C108.815 214.036 107.906 214.7 107.303 215.366C106.7 216.032 106.416 216.687 106.437 217.328C106.457 217.969 106.784 218.604 107.429 219.229C108.074 219.855 109.025 220.458 110.26 221.028C112.731 222.167 116.299 223.154 120.709 223.939C129.526 225.509 141.671 226.264 155.05 225.828C168.429 225.392 180.498 223.849 189.194 221.709C193.544 220.638 197.039 219.421 199.431 218.124C200.627 217.475 201.537 216.811 202.14 216.145C202.743 215.479 203.027 214.824 203.006 214.183ZM203.406 214.17C203.431 214.947 203.083 215.699 202.437 216.413C201.792 217.125 200.838 217.815 199.621 218.475C197.186 219.796 193.653 221.023 189.289 222.097C180.559 224.246 168.461 225.792 155.063 226.228C141.664 226.665 129.491 225.91 120.639 224.333C116.215 223.545 112.609 222.55 110.093 221.391C108.836 220.811 107.84 220.185 107.15 219.516C106.459 218.846 106.062 218.119 106.036 217.341C106.011 216.564 106.36 215.812 107.006 215.098C107.651 214.385 108.604 213.696 109.821 213.036C112.256 211.715 115.789 210.488 120.153 209.414C128.884 207.265 140.982 205.719 154.38 205.283C167.778 204.846 179.951 205.601 188.803 207.178C193.227 207.965 196.833 208.961 199.349 210.12C200.606 210.7 201.603 211.325 202.293 211.995C202.984 212.665 203.38 213.392 203.406 214.17Z" fill="#0B4D5E"/>
<path d="M149.586 207.968C148.233 207.968 147.107 206.841 147.107 205.265L149.586 179.802H154.318L151.839 205.717C151.839 207.07 150.939 207.971 149.586 207.971V207.968Z" fill="#0B4D5E"/>
<path d="M154.538 179.602L154.517 179.821L152.038 205.736C152.034 206.45 151.794 207.06 151.361 207.493C150.925 207.93 150.308 208.171 149.586 208.171H149.386V208.158C148.004 208.052 146.907 206.862 146.907 205.264V205.255L146.908 205.246L149.404 179.602H154.538ZM147.308 205.27C147.31 206.744 148.356 207.768 149.586 207.768H149.632C150.242 207.758 150.735 207.553 151.078 207.21C151.43 206.858 151.64 206.348 151.64 205.718V205.708L151.641 205.698L151.839 205.718H151.845L151.641 205.698L154.099 180.003H149.768L147.308 205.27Z" fill="#0B4D5E"/>
<path d="M166.724 216.53C168.077 216.53 168.977 215.403 168.527 214.052L159.964 180.251H155.907L164.696 214.955C164.921 215.855 165.823 216.533 166.724 216.533V216.53Z" fill="#A0CDFF"/>
<path d="M160.119 180.051L160.157 180.203L168.717 213.989L168.758 214.125C168.944 214.806 168.819 215.441 168.462 215.917C168.118 216.377 167.57 216.669 166.924 216.719V216.733H166.724C165.796 216.733 164.873 216.084 164.557 215.186L164.502 215.003L155.713 180.3L155.65 180.051H160.119ZM164.89 214.906L164.935 215.055C165.189 215.776 165.934 216.311 166.681 216.331H166.724C167.344 216.331 167.845 216.073 168.142 215.677C168.4 215.333 168.514 214.868 168.4 214.343L168.337 214.115L168.333 214.101L168.519 214.054L168.526 214.051L168.333 214.101L159.808 180.452H156.165L164.89 214.906Z" fill="#0B4D5E"/>
<path d="M140.127 216.53C138.774 216.53 137.874 215.403 138.324 214.052L146.887 180.251H150.944L142.156 214.955C141.93 215.855 141.03 216.533 140.127 216.533V216.53Z" fill="#A0CDFF"/>
<path d="M151.201 180.051L151.138 180.3L142.35 215.003C142.102 215.995 141.119 216.733 140.127 216.733H139.928V216.719C139.281 216.669 138.734 216.377 138.39 215.917C138.011 215.413 137.893 214.73 138.131 214.002H138.13L146.693 180.203L146.731 180.051H151.201ZM138.518 214.101L138.325 214.052L138.33 214.053L138.518 214.101L138.517 214.108L138.514 214.115L138.451 214.343C138.337 214.869 138.452 215.333 138.71 215.677C139.006 216.073 139.507 216.33 140.127 216.331H140.171C140.97 216.309 141.763 215.701 141.962 214.906L150.687 180.452H147.043L138.518 214.101Z" fill="#0B4D5E"/>
<path d="M161.083 176.197V178.901C161.083 180.028 160.407 181.154 158.829 182.054C155.675 183.858 150.716 183.858 147.788 182.054C146.21 181.154 145.534 180.026 145.534 178.901V176.197C145.534 177.325 146.21 178.45 147.788 179.351C150.941 181.154 155.901 181.154 158.829 179.351C160.407 178.676 161.083 177.548 161.083 176.197Z" fill="#A0CDFF"/>
<path d="M160.883 177.857C160.831 177.953 160.776 178.049 160.713 178.14C160.324 178.709 159.731 179.179 158.922 179.528C157.419 180.449 155.413 180.903 153.393 180.903C151.493 180.903 149.56 180.502 147.996 179.692L147.688 179.524C146.748 178.988 146.107 178.363 145.734 177.695V178.9C145.734 179.868 146.276 180.87 147.609 181.714L147.887 181.881L147.893 181.885L148.165 182.044C149.558 182.815 151.373 183.207 153.224 183.207C155.197 183.207 157.19 182.761 158.73 181.881L159.008 181.715C160.342 180.871 160.883 179.87 160.883 178.9V177.857ZM161.282 178.9C161.282 180.045 160.637 181.156 159.222 182.052L158.929 182.228C157.315 183.151 155.251 183.607 153.224 183.607C151.2 183.607 149.192 183.151 147.688 182.227V182.228C146.069 181.304 145.334 180.119 145.334 178.9V176.197H145.734L145.741 176.391C145.814 177.364 146.446 178.355 147.887 179.177L148.181 179.338C149.676 180.112 151.543 180.504 153.393 180.504C155.367 180.504 157.3 180.058 158.725 179.18L158.737 179.173L158.751 179.167C159.512 178.841 160.042 178.412 160.383 177.914C160.723 177.416 160.883 176.838 160.883 176.197H161.282V178.9Z" fill="#0B4D5E"/>
<path d="M161.19 176.233C161.197 173.744 157.671 171.717 153.314 171.704C148.958 171.692 145.421 173.7 145.414 176.189C145.407 178.678 148.933 180.706 153.289 180.718C157.646 180.73 161.183 178.722 161.19 176.233Z" fill="#F0F4FF"/>
<path d="M153.313 171.904C151.163 171.898 149.225 172.392 147.831 173.183C146.431 173.978 145.617 175.048 145.614 176.19C145.611 177.331 146.419 178.407 147.814 179.209C149.204 180.009 151.139 180.512 153.289 180.518C155.439 180.524 157.377 180.031 158.771 179.24C160.171 178.445 160.986 177.374 160.99 176.233C160.993 175.091 160.184 174.016 158.788 173.214C157.398 172.414 155.463 171.91 153.313 171.904ZM153.314 171.504C155.521 171.51 157.527 172.027 158.987 172.867C160.442 173.703 161.393 174.886 161.389 176.234C161.385 177.581 160.428 178.759 158.969 179.587C157.503 180.419 155.495 180.924 153.288 180.918C151.082 180.912 149.075 180.395 147.615 179.556C146.16 178.719 145.21 177.536 145.213 176.188C145.217 174.841 146.174 173.663 147.634 172.835C149.099 172.003 151.108 171.498 153.314 171.504Z" fill="#0B4D5E"/>
<path d="M153.682 136.395C154.696 136.395 156.506 137.115 156.506 138.129L156.506 174.366C156.506 176.419 154.841 178.084 152.788 178.084C150.735 178.084 149.07 176.419 149.07 174.366L149.07 139.142C149.07 137.622 150.134 136.395 151.655 136.395L153.682 136.395Z" fill="#A0CDFF"/>
<path d="M149.271 139.142L149.271 174.366C149.271 176.309 150.845 177.884 152.788 177.884C154.731 177.884 156.306 176.309 156.306 174.366L156.306 138.129C156.306 137.938 156.222 137.748 156.058 137.562C155.893 137.376 155.657 137.204 155.381 137.058C154.826 136.765 154.152 136.596 153.683 136.595L151.655 136.595C150.261 136.595 149.271 137.716 149.271 139.142ZM148.87 139.142C148.87 137.528 150.008 136.195 151.655 136.195L153.683 136.195C154.227 136.195 154.964 136.386 155.567 136.705C155.87 136.865 156.151 137.064 156.357 137.298C156.564 137.532 156.706 137.812 156.706 138.129L156.706 174.366C156.706 176.53 154.952 178.284 152.788 178.284C150.624 178.284 148.87 176.53 148.87 174.366L148.87 139.142Z" fill="#0B4D5E"/>
<path fill-rule="evenodd" clip-rule="evenodd" d="M150.8 177.546C149.784 176.882 149.113 175.735 149.113 174.432L149.113 147.229C149.966 147.513 150.8 148.066 150.8 148.754L150.8 177.546Z" fill="#F0F4FF"/>
<path d="M150.6 148.754C150.6 148.496 150.443 148.236 150.149 147.994C149.922 147.806 149.627 147.645 149.313 147.518V174.432C149.313 175.527 149.815 176.504 150.6 177.149V148.754ZM151 177.916L150.69 177.713C149.621 177.014 148.913 175.806 148.913 174.432V146.952L149.177 147.04C149.618 147.187 150.064 147.406 150.403 147.686C150.74 147.963 151 148.324 151 148.754V177.916Z" fill="#0B4D5E"/>
<path d="M153.699 142.178C154.707 142.178 156.506 142.687 156.506 143.403L156.506 157.49C156.506 159.532 154.851 161.186 152.81 161.186C150.769 161.186 149.114 159.532 149.114 157.49L149.114 144.119C149.114 143.045 150.171 142.178 151.683 142.178L153.699 142.178Z" fill="#0B4D5E"/>
<path d="M149.313 144.119L149.313 157.49C149.313 159.421 150.879 160.986 152.81 160.986C154.74 160.986 156.306 159.421 156.306 157.49L156.306 143.403C156.306 143.313 156.249 143.198 156.084 143.065C155.923 142.935 155.688 142.813 155.41 142.709C154.855 142.5 154.177 142.379 153.699 142.379L151.684 142.379C150.232 142.379 149.314 143.2 149.313 144.119ZM148.914 144.119C148.914 142.89 150.112 141.978 151.684 141.978L153.699 141.978C154.229 141.978 154.955 142.11 155.551 142.335C155.849 142.447 156.127 142.587 156.334 142.754C156.538 142.918 156.706 143.135 156.706 143.403L156.706 157.49C156.706 159.642 154.961 161.386 152.81 161.386C150.658 161.386 148.914 159.642 148.914 157.49L148.914 144.119Z" fill="#0B4D5E"/>
<path d="M163.068 120.299L174.627 111.672C176.26 110.312 178.747 110.2 181.638 111.398L170.08 120.025C167.187 118.827 164.702 118.939 163.068 120.299Z" fill="#F0F4FF"/>
<path d="M174.507 111.512C176.221 110.091 178.794 110.003 181.715 111.214L181.638 111.398L181.758 111.558L170.2 120.185L170.108 120.254L170.004 120.21C167.354 119.112 165.102 119.148 163.551 120.187L163.188 120.459L162.94 120.145L162.949 120.139H162.948L162.973 120.12C163.084 120.029 163.198 119.943 163.316 119.863L174.507 111.512ZM181.229 111.453C178.519 110.413 176.247 110.584 174.755 111.825L174.746 111.832L174.627 111.672L174.622 111.666L174.746 111.832L164.924 119.163C166.384 118.81 168.138 119.026 170.048 119.799L181.229 111.453ZM182.04 111.347L181.758 111.558L181.639 111.398L181.715 111.214L182.04 111.347Z" fill="#0B4D5E"/>
<path d="M191.724 133.666L180.165 142.293C181.799 140.934 182.642 138.771 182.216 135.646C181.362 129.393 175.862 122.413 170.077 120.018L181.635 111.391C187.42 113.785 192.922 120.766 193.774 127.019C194.2 130.144 193.388 132.53 191.724 133.666Z" fill="#A0CDFF"/>
<path d="M191.705 133.64L191.611 133.501C193.088 132.492 193.893 130.415 193.641 127.615L193.576 127.046C193.156 123.964 191.586 120.687 189.396 117.881C187.233 115.109 184.478 112.814 181.661 111.62L170.471 119.973C173.29 121.222 176.013 123.519 178.153 126.262C180.374 129.108 181.981 132.449 182.414 135.618V135.619L182.216 135.646L182.018 135.673C181.596 132.591 180.027 129.314 177.838 126.508C175.649 123.702 172.854 121.384 170.001 120.203L169.676 120.069L169.957 119.858L181.516 111.231L181.606 111.162L181.712 111.206L182.261 111.447C184.997 112.717 187.63 114.967 189.712 117.635C191.933 120.481 193.54 123.822 193.972 126.991L194.038 127.576C194.297 130.455 193.481 132.701 191.843 133.825L191.844 133.826L180.285 142.453L180.173 142.303L180.165 142.293L180.285 142.453L180.037 142.14C181.605 140.834 182.436 138.747 182.018 135.673L182.414 135.619C182.723 137.885 182.372 139.671 181.532 141.023L191.604 133.506L191.61 133.501L191.705 133.64ZM191.718 133.657L191.724 133.666L191.705 133.64L191.718 133.657Z" fill="#0B4D5E"/>
<path d="M180.26 142.319C183.901 139.482 182.98 132.214 178.204 126.085C173.428 119.957 166.605 117.289 162.964 120.126C159.323 122.963 160.244 130.232 165.02 136.36C169.796 142.489 176.619 145.157 180.26 142.319Z" fill="#0B4D5E"/>
<path d="M178.046 126.208C175.676 123.168 172.804 120.993 170.085 119.93C167.361 118.865 164.829 118.926 163.087 120.284C161.345 121.642 160.667 124.082 161.034 126.983C161.401 129.88 162.808 133.196 165.178 136.237C167.547 139.278 170.419 141.452 173.138 142.515C175.862 143.58 178.394 143.519 180.136 142.161C181.879 140.803 182.557 138.363 182.189 135.462C181.822 132.566 180.416 129.249 178.046 126.208ZM178.362 125.962C180.768 129.05 182.209 132.432 182.587 135.411C182.963 138.385 182.281 140.998 180.383 142.477C178.484 143.956 175.785 143.979 172.993 142.888C170.196 141.794 167.268 139.571 164.862 136.483C162.455 133.395 161.015 130.013 160.638 127.034C160.261 124.06 160.942 121.448 162.841 119.968C164.739 118.489 167.439 118.465 170.231 119.557C173.028 120.651 175.955 122.875 178.362 125.962Z" fill="#0B4D5E"/>
<path d="M122.392 157.237L165.146 123.884C166.395 123.033 167.958 122.818 170.119 123.662L127.364 157.014C125.201 156.171 123.416 156.416 122.392 157.237Z" fill="#F0F4FF"/>
<path d="M122.392 157.237L122.515 157.394L122.267 157.081L122.392 157.237ZM165.033 123.719C166.266 122.878 167.78 122.642 169.784 123.326L170.191 123.476L170.519 123.603L170.241 123.819L127.487 157.172L127.397 157.241L127.291 157.2L127.364 157.014L127.363 157.013L127.291 157.2C125.176 156.376 123.477 156.63 122.525 157.386L122.515 157.394L122.392 157.236L122.267 157.081C122.268 157.08 122.269 157.08 122.27 157.079H122.269L165.023 123.727L165.033 123.719ZM169.711 123.725C167.776 123.05 166.382 123.285 165.263 124.047L123.806 156.387C124.788 156.185 125.994 156.287 127.328 156.788L169.711 123.725ZM165.14 123.875L165.142 123.879L165.117 123.848L165.14 123.875Z" fill="#0B4D5E"/>
<path d="M127.364 157.012C131.465 158.727 135.321 163.66 135.901 167.902C136.51 172.366 133.597 174.357 129.527 172.865C125.427 171.15 121.571 166.218 120.99 161.976C120.381 157.511 123.264 155.297 127.364 157.012Z" fill="#0B4D5E"/>
<path d="M122.289 157.019C123.523 156.062 125.352 155.954 127.441 156.828C129.531 157.701 131.546 159.389 133.11 161.386C134.674 163.383 135.803 165.709 136.1 167.874L136.147 168.294C136.335 170.359 135.751 171.908 134.589 172.778C133.431 173.645 131.755 173.795 129.844 173.185L129.458 173.053L129.45 173.05C127.361 172.176 125.346 170.489 123.781 168.492C122.315 166.619 121.231 164.458 120.857 162.411L120.792 162.003C120.482 159.73 121.055 157.975 122.289 157.019ZM127.287 157.197C125.276 156.356 123.614 156.497 122.534 157.334C121.454 158.172 120.89 159.758 121.188 161.949L121.251 162.34C121.61 164.307 122.659 166.409 124.097 168.244C125.628 170.2 127.587 171.835 129.596 172.677L129.967 172.805C131.801 173.391 133.33 173.22 134.349 172.457C135.363 171.698 135.928 170.307 135.749 168.331L135.703 167.929C135.419 165.853 134.329 163.591 132.795 161.632C131.261 159.674 129.298 158.038 127.287 157.197Z" fill="#0B4D5E"/>
<path d="M177.04 139.318L134.286 172.67C135.535 171.818 135.99 170.163 135.685 167.932C135.076 163.467 131.249 158.757 127.148 157.042L169.903 123.69C174.004 125.405 177.859 130.337 178.44 134.579C178.744 136.813 178.287 138.466 177.04 139.318Z" fill="#A0CDFF"/>
<path d="M169.98 123.505C172.07 124.379 174.084 126.066 175.648 128.064C177.115 129.936 178.198 132.097 178.572 134.144L178.638 134.552L178.687 134.97C178.886 137.03 178.41 138.624 177.153 139.483L134.687 172.611C134.595 172.689 134.5 172.766 134.398 172.835L134.163 172.512L134.281 172.664L134.279 172.66L134.163 172.512L134.433 172.301C135.329 171.521 135.711 170.185 135.534 168.364L135.487 167.958C135.189 165.77 134.098 163.508 132.569 161.579C131.041 159.651 129.084 158.069 127.071 157.227L126.756 157.095L127.025 156.884L127.148 157.042V157.041L127.025 156.884L169.78 123.532L169.872 123.46L169.98 123.505ZM127.534 156.993C129.51 157.893 131.398 159.458 132.883 161.331C134.445 163.302 135.573 165.629 135.884 167.905L135.933 168.323C136.05 169.536 135.932 170.587 135.559 171.423L176.917 139.159L176.928 139.152C178.081 138.364 178.542 136.811 178.241 134.607L178.179 134.215C177.819 132.248 176.772 130.146 175.334 128.31C173.827 126.386 171.905 124.774 169.931 123.92L127.534 156.993Z" fill="#0B4D5E"/>
<path d="M101.727 178.987L123.565 162.362C124.174 161.823 125.291 161.671 126.498 162.19L104.66 178.815C103.452 178.299 102.559 178.42 101.727 178.987Z" fill="#F0F4FF"/>
<path d="M123.433 162.212C124.117 161.607 125.323 161.467 126.577 162.006L126.892 162.142L104.781 178.975L104.688 179.045L104.581 178.999L104.66 178.815L104.659 178.814L104.581 178.999C103.999 178.75 103.506 178.661 103.067 178.694C102.63 178.728 102.232 178.885 101.839 179.152L101.605 178.828L123.433 162.212ZM126.088 162.249C125.065 161.911 124.18 162.085 123.697 162.512L123.692 162.517L123.687 162.52L102.952 178.305C102.98 178.302 103.009 178.298 103.037 178.296C103.525 178.258 104.048 178.353 104.629 178.587L126.088 162.249Z" fill="#0B4D5E"/>
<path d="M130.656 171.115L108.817 187.74C109.426 187.202 109.751 186.248 109.598 185.131C109.263 182.675 107.051 179.793 104.635 178.758L126.473 162.132C128.888 163.167 131.071 165.827 131.437 168.506C131.589 169.623 131.265 170.576 130.656 171.115Z" fill="#A0CDFF"/>
<path d="M126.552 161.948L126.783 162.052C129.164 163.178 131.27 165.81 131.635 168.479L131.659 168.696C131.751 169.771 131.417 170.709 130.788 171.265L130.654 171.114L130.655 171.115L130.788 171.265L130.782 171.27L130.776 171.274L108.938 187.9L108.685 187.59C109.198 187.137 109.505 186.335 109.422 185.357L109.4 185.158C109.239 183.974 108.621 182.672 107.739 181.534C106.858 180.397 105.726 179.443 104.556 178.942L104.24 178.806L104.514 178.599L126.353 161.973L126.445 161.903L126.552 161.948ZM105.019 178.715C106.152 179.274 107.217 180.209 108.055 181.289C108.967 182.466 109.623 183.833 109.797 185.105L109.82 185.322C109.869 185.888 109.798 186.416 109.629 186.87L130.531 170.957C131.039 170.502 131.344 169.704 131.261 168.731L131.238 168.533C130.887 165.968 128.812 163.404 126.499 162.363L105.019 178.715Z" fill="#0B4D5E"/>
<path d="M104.595 178.54C107.009 179.575 109.192 182.234 109.559 184.914C109.925 187.593 108.261 188.729 105.844 187.694C103.43 186.659 101.247 184 100.881 181.321C100.545 178.864 102.178 177.505 104.595 178.54Z" fill="#F0F4FF"/>
<path d="M101.583 178.462C102.329 177.885 103.425 177.821 104.674 178.356L104.906 178.46C107.286 179.586 109.392 182.218 109.757 184.886C109.946 186.263 109.619 187.308 108.863 187.859C108.157 188.373 107.142 188.407 105.997 187.972L105.766 187.878C103.37 186.851 101.199 184.27 100.723 181.606L100.683 181.348C100.509 180.076 100.84 179.038 101.583 178.462ZM104.517 178.724C103.35 178.224 102.42 178.321 101.829 178.779C101.235 179.238 100.918 180.109 101.08 181.293L101.118 181.537C101.569 184.059 103.642 186.533 105.923 187.511L106.141 187.599C107.215 188.007 108.073 187.939 108.627 187.535C109.216 187.107 109.539 186.243 109.361 184.941C109.016 182.418 107.003 179.896 104.737 178.822L104.517 178.724Z" fill="#0B4D5E"/>
<path d="M96.6416 180.082L101.603 176.449C102.658 175.851 103.998 175.668 105.49 176.602L100.528 180.234C98.8442 179.554 97.4736 179.515 96.6416 180.082Z" fill="#F0F4FF"/>
<path d="M101.504 176.275C102.546 175.684 103.858 175.48 105.305 176.262L105.596 176.432L105.846 176.588L105.607 176.762L100.646 180.395L100.557 180.461L100.453 180.419C98.7856 179.746 97.4997 179.738 96.7539 180.247L96.5234 179.92L101.484 176.288L101.494 176.281L101.504 176.275ZM105.125 176.62C103.812 175.906 102.645 176.089 101.709 176.618L97.7695 179.502C98.5439 179.432 99.475 179.607 100.498 180.007L105.125 176.62Z" fill="#0B4D5E"/>
<path d="M110.366 189.124L105.405 192.757C106.237 192.188 106.755 190.981 106.733 189.164C106.499 185.785 103.688 181.848 100.512 180.235L105.473 176.602C108.62 177.992 111.461 182.152 111.695 185.531C111.715 187.348 111.198 188.555 110.366 189.124Z" fill="#A0CDFF"/>
<path d="M105.554 176.419C107.17 177.133 108.694 178.55 109.841 180.207C110.916 181.761 111.675 183.544 111.864 185.191L111.895 185.518L111.896 185.53H111.894C111.914 187.375 111.392 188.665 110.479 189.289L105.522 192.918C105.521 192.919 105.519 192.921 105.518 192.922L105.286 192.596L105.312 192.576C106.052 192.055 106.555 190.937 106.533 189.166C106.417 187.526 105.674 185.736 104.562 184.153C103.448 182.566 101.974 181.202 100.421 180.413L100.131 180.266L105.354 176.441L105.448 176.372L105.554 176.419ZM100.886 180.207C102.401 181.047 103.812 182.388 104.89 183.922C106.033 185.551 106.812 187.415 106.933 189.151L106.934 189.161L106.931 189.501C106.908 190.384 106.752 191.127 106.483 191.718L110.248 188.963L110.253 188.959L110.392 188.856C111.065 188.303 111.511 187.214 111.495 185.545L111.467 185.235C111.286 183.671 110.56 181.949 109.512 180.435C108.418 178.856 106.988 177.523 105.495 176.832L100.886 180.207Z" fill="#0B4D5E"/>
<path d="M100.517 180.237C103.664 181.627 106.504 185.788 106.738 189.167C106.972 192.545 104.699 194.221 101.523 192.607C98.3759 191.217 95.5354 187.057 95.3015 183.678C95.0676 180.299 97.3717 178.847 100.517 180.237Z" fill="#F0F4FF"/>
<path d="M96.5333 180.001C97.5509 179.339 98.9908 179.344 100.598 180.054L100.9 180.196C102.403 180.946 103.81 182.289 104.885 183.843C106.032 185.499 106.818 187.418 106.938 189.153C107.057 190.884 106.538 192.231 105.523 192.925C104.505 193.62 103.059 193.612 101.433 192.786V192.785C99.8198 192.069 98.3 190.655 97.1554 189.002C96.0085 187.345 95.2218 185.426 95.1017 183.691C94.9818 181.958 95.5117 180.665 96.5333 180.001ZM100.436 180.42C98.898 179.74 97.6133 179.776 96.7511 180.337C95.893 180.895 95.3872 182.018 95.5011 183.664C95.6149 185.308 96.366 187.159 97.4845 188.774C98.6029 190.39 100.073 191.748 101.604 192.425L101.521 192.61L101.524 192.607L101.604 192.425L101.614 192.428L101.613 192.429L101.901 192.567C103.322 193.209 104.496 193.141 105.297 192.593C106.153 192.008 106.653 190.828 106.539 189.18C106.425 187.536 105.674 185.686 104.556 184.07C103.507 182.555 102.149 181.267 100.722 180.554L100.436 180.42Z" fill="#0B4D5E"/>
<path d="M100.667 182.104C102.87 183.077 104.858 185.989 105.022 188.354C105.186 190.72 103.595 191.892 101.371 190.763C99.1684 189.79 97.1801 186.877 97.0163 184.512C96.8526 182.147 98.4655 181.13 100.667 182.104Z" fill="#0B4D5E"/>
<path d="M97.8458 181.888C98.5814 181.409 99.6128 181.419 100.748 181.921L100.962 182.021C102.026 182.552 103.017 183.5 103.774 184.593C104.581 185.759 105.137 187.112 105.222 188.34C105.307 189.564 104.94 190.532 104.205 191.034C103.47 191.536 102.437 191.525 101.291 190.945L101.077 190.845C100.013 190.314 99.0215 189.367 98.2647 188.274C97.4575 187.108 96.9015 185.754 96.8165 184.526C96.7317 183.3 97.1062 182.369 97.8458 181.888ZM100.586 182.286C99.5201 181.815 98.6438 181.846 98.0636 182.224C97.4876 182.599 97.1371 183.359 97.2159 184.498C97.2947 185.635 97.8153 186.92 98.5939 188.045C99.3238 189.099 100.267 189.994 101.254 190.487L101.452 190.58L101.462 190.584L101.374 190.755L101.373 190.759L101.462 190.584C102.535 191.129 103.406 191.096 103.98 190.704C104.555 190.311 104.901 189.509 104.822 188.368C104.744 187.231 104.223 185.945 103.444 184.82C102.715 183.766 101.771 182.873 100.784 182.38L100.586 182.286Z" fill="#0B4D5E"/>
<mask id="mask0_2530_12910" style="mask-type:alpha" maskUnits="userSpaceOnUse" x="171" y="112" width="24" height="30">
<path d="M192.071 133.463L180.975 141.746C182.543 140.44 183.352 138.364 182.943 135.364C182.123 129.362 176.843 122.66 171.29 120.361L182.386 112.079C187.939 114.378 193.221 121.079 194.039 127.082C194.448 130.082 193.668 132.372 192.071 133.463Z" fill="#8AE5CC"/>
</mask>
<g mask="url(#mask0_2530_12910)">
<path d="M188.59 101.377L103.595 204.335L101.967 202.991L186.962 100.033L188.59 101.377Z" fill="#D9EBFF"/>
<path d="M191.965 105.39L106.971 208.348L104.528 206.331L189.522 103.372L191.965 105.39Z" fill="#D9EBFF"/>
</g>
<mask id="mask1_2530_12910" style="mask-type:alpha" maskUnits="userSpaceOnUse" x="127" y="123" width="52" height="50">
<path d="M176.797 139.404L134.47 172.423C135.707 171.58 136.157 169.941 135.856 167.732C135.253 163.312 131.464 158.649 127.404 156.952L169.731 123.933C173.791 125.631 177.608 130.514 178.183 134.713C178.484 136.925 178.032 138.561 176.797 139.404Z" fill="#8AE5CC"/>
</mask>
<g mask="url(#mask1_2530_12910)">
<path d="M190.655 100.93L105.66 203.888L104.031 202.543L189.026 99.585L190.655 100.93Z" fill="#D9EBFF"/>
<path d="M194.03 104.942L109.036 207.9L106.592 205.883L191.587 102.924L194.03 104.942Z" fill="#D9EBFF"/>
</g>
<path d="M279.037 147.06C278.776 148.831 280 150.475 281.771 150.736C283.542 150.996 285.186 149.772 285.447 148.001C285.707 146.231 284.483 144.586 282.712 144.326C280.942 144.066 279.297 145.289 279.037 147.06Z" fill="#F0F4FF"/>
<path d="M278.839 147.031C279.115 145.151 280.861 143.852 282.741 144.128C284.621 144.404 285.921 146.15 285.644 148.03C285.368 149.91 283.622 151.21 281.742 150.934C279.862 150.657 278.562 148.911 278.839 147.031ZM282.684 144.523C281.022 144.279 279.479 145.427 279.234 147.089C278.99 148.75 280.138 150.293 281.8 150.538C283.461 150.782 285.004 149.634 285.249 147.973C285.493 146.311 284.345 144.768 282.684 144.523Z" fill="#0B4D5E"/>
<path d="M155.474 76.4642C155.298 77.6578 156.123 78.7662 157.317 78.9417C158.51 79.1172 159.619 78.2922 159.794 77.0986C159.97 75.9051 159.145 74.7967 157.951 74.6212C156.758 74.4457 155.649 75.2707 155.474 76.4642Z" fill="#F0F4FF"/>
<path d="M157.981 74.4229C159.283 74.6145 160.184 75.825 159.992 77.128C159.801 78.4305 158.591 79.3311 157.288 79.1397C155.986 78.9481 155.084 77.7384 155.276 76.4356C155.467 75.1328 156.678 74.2313 157.981 74.4229ZM157.922 74.8194C156.838 74.6601 155.832 75.409 155.672 76.4932C155.513 77.5774 156.262 78.5846 157.346 78.7442C158.43 78.9036 159.437 78.1538 159.597 77.0694C159.756 75.9853 159.006 74.9788 157.922 74.8194Z" fill="#0B4D5E"/>
<path d="M256.826 101.623C269.921 100.891 270.432 100.37 270.979 87.2664C271.71 100.361 272.231 100.872 285.335 101.422C272.241 102.153 271.729 102.674 271.18 115.778C270.448 102.684 269.927 102.172 256.826 101.623Z" fill="#F0F4FF"/>
<path d="M270.978 87.0662C271.084 87.0656 271.173 87.1492 271.179 87.2556C271.362 90.5319 271.53 93.0057 271.884 94.8884C272.237 96.7699 272.77 98.0312 273.657 98.906C274.545 99.7808 275.814 100.296 277.7 100.623C279.588 100.95 282.065 101.085 285.344 101.222C285.45 101.227 285.534 101.314 285.535 101.421C285.536 101.527 285.452 101.616 285.346 101.622L285.335 101.422V101.421L285.346 101.622C282.069 101.805 279.596 101.974 277.713 102.328C275.832 102.681 274.57 103.213 273.695 104.1C272.821 104.988 272.306 106.258 271.979 108.144C271.651 110.032 271.516 112.508 271.379 115.787L271.361 115.861C271.33 115.93 271.261 115.978 271.181 115.978C271.101 115.979 271.031 115.932 270.999 115.864L270.979 115.79L270.842 113.479C270.7 111.313 270.54 109.568 270.274 108.156C269.921 106.274 269.388 105.013 268.501 104.138C267.614 103.264 266.345 102.749 264.459 102.422C262.572 102.094 260.095 101.96 256.817 101.823C256.711 101.818 256.627 101.73 256.626 101.624C256.625 101.517 256.709 101.429 256.815 101.423C260.092 101.24 262.566 101.071 264.448 100.718C266.33 100.364 267.591 99.8314 268.466 98.9441C269.34 98.0568 269.854 96.7876 270.181 94.9011C270.507 93.0133 270.642 90.5365 270.778 87.2576L270.797 87.1834C270.828 87.1146 270.898 87.0667 270.978 87.0662ZM271.004 90.8152C270.904 92.4398 270.776 93.8107 270.575 94.9685C270.243 96.8878 269.708 98.252 268.75 99.2244C267.792 100.197 266.436 100.751 264.521 101.11C263.365 101.327 261.994 101.474 260.368 101.597C261.995 101.698 263.368 101.827 264.527 102.028C266.446 102.361 267.809 102.895 268.781 103.853C269.753 104.812 270.308 106.169 270.667 108.083C270.884 109.239 271.031 110.61 271.154 112.236C271.255 110.608 271.384 109.235 271.585 108.076C271.918 106.157 272.452 104.792 273.41 103.82C274.369 102.848 275.725 102.294 277.64 101.934C278.796 101.717 280.167 101.57 281.793 101.446C280.165 101.345 278.792 101.217 277.633 101.016C275.714 100.684 274.349 100.15 273.377 99.1912C272.405 98.2326 271.851 96.8759 271.491 94.9617C271.274 93.807 271.127 92.4381 271.004 90.8152Z" fill="#0B4D5E"/>
<path d="M131.162 110.129C137.568 109.771 137.818 109.516 138.086 103.105C138.444 109.511 138.698 109.762 145.109 110.03C138.703 110.388 138.453 110.643 138.184 117.054C137.826 110.648 137.571 110.397 131.162 110.129Z" fill="#F0F4FF"/>
<path d="M138.084 102.905C138.164 102.904 138.234 102.951 138.267 103.019L138.285 103.094L138.353 104.224C138.422 105.282 138.5 106.13 138.629 106.815C138.8 107.727 139.056 108.32 139.468 108.726C139.88 109.133 140.477 109.38 141.392 109.539C142.307 109.698 143.512 109.764 145.117 109.831C145.224 109.835 145.309 109.922 145.31 110.029C145.31 110.136 145.227 110.224 145.12 110.23L145.109 110.03H145.108L145.12 110.23C143.516 110.32 142.313 110.402 141.399 110.574C140.487 110.745 139.894 111 139.487 111.413C139.081 111.825 138.834 112.422 138.676 113.337C138.517 114.252 138.451 115.457 138.384 117.062L138.366 117.136C138.335 117.205 138.266 117.253 138.186 117.254C138.106 117.254 138.035 117.208 138.003 117.139L137.984 117.065L137.917 115.935C137.848 114.877 137.769 114.029 137.641 113.344C137.469 112.431 137.214 111.839 136.802 111.432C136.389 111.026 135.793 110.778 134.879 110.62C133.963 110.461 132.759 110.396 131.153 110.329C131.047 110.324 130.963 110.236 130.962 110.13C130.961 110.023 131.045 109.934 131.151 109.928C132.756 109.839 133.959 109.756 134.872 109.585C135.784 109.413 136.377 109.158 136.783 108.746C137.19 108.334 137.436 107.737 137.595 106.823C137.753 105.907 137.819 104.702 137.886 103.096C137.89 102.99 137.978 102.906 138.084 102.905ZM138.105 106.011C138.072 106.329 138.036 106.622 137.989 106.891C137.825 107.838 137.559 108.53 137.068 109.027C136.578 109.525 135.89 109.801 134.945 109.978C134.676 110.029 134.384 110.071 134.066 110.108C134.384 110.141 134.678 110.18 134.947 110.226C135.894 110.391 136.586 110.657 137.083 111.147C137.58 111.638 137.857 112.326 138.034 113.27C138.085 113.539 138.126 113.832 138.163 114.149C138.196 113.831 138.235 113.538 138.281 113.268C138.445 112.321 138.713 111.629 139.203 111.132C139.693 110.634 140.381 110.358 141.325 110.18C141.595 110.13 141.888 110.088 142.206 110.051C141.887 110.017 141.594 109.979 141.323 109.932C140.376 109.768 139.685 109.502 139.188 109.011C138.69 108.521 138.414 107.833 138.236 106.888C138.186 106.62 138.143 106.328 138.105 106.011Z" fill="#0B4D5E"/>
</svg>
