<svg width="411" height="300" viewBox="0 0 411 300" fill="none" xmlns="http://www.w3.org/2000/svg">
<path d="M272.653 201.965C297.391 201.965 317.445 191.092 317.445 177.68C317.445 164.268 297.391 153.395 272.653 153.395C247.915 153.395 227.861 164.268 227.861 177.68C227.861 191.092 247.915 201.965 272.653 201.965Z" fill="#07303A"/>
<path d="M317.196 177.68C317.196 171.109 312.28 165.103 304.207 160.726C296.144 156.355 284.989 153.643 272.653 153.643C260.318 153.643 249.162 156.355 241.099 160.726C233.026 165.103 228.109 171.109 228.109 177.68C228.11 184.252 233.027 190.257 241.099 194.634C249.162 199.005 260.318 201.717 272.653 201.717C284.989 201.717 296.144 199.005 304.207 194.634C312.279 190.257 317.196 184.252 317.196 177.68ZM317.693 177.68C317.693 184.52 312.583 190.658 304.444 195.07C296.296 199.488 285.055 202.213 272.653 202.213C260.251 202.213 249.011 199.488 240.862 195.07C232.724 190.657 227.614 184.521 227.613 177.68C227.613 170.84 232.724 164.702 240.862 160.29C249.011 155.872 260.251 153.147 272.653 153.147C285.055 153.147 296.296 155.872 304.444 160.29C312.583 164.702 317.693 170.84 317.693 177.68Z" fill="#07303A"/>
<path d="M99.0677 227.307C96.0267 225.349 96.1366 220.866 99.2699 219.059L210.592 154.851L245.983 173.633L127.817 241.475C125.624 242.734 122.912 242.665 120.786 241.295L99.0677 227.307Z" fill="#07303A"/>
<path d="M210.526 154.612C210.587 154.595 210.652 154.602 210.709 154.632L246.099 173.414L246.153 173.452C246.201 173.498 246.23 173.561 246.231 173.628C246.233 173.719 246.185 173.803 246.107 173.848L127.941 241.69C125.668 242.995 122.855 242.924 120.651 241.504L98.9335 227.516C95.7362 225.457 95.8515 220.744 99.1458 218.844L210.467 154.635L210.526 154.612ZM99.3945 219.274C96.4222 220.989 96.3176 225.241 99.2023 227.099L120.921 241.087C122.969 242.406 125.581 242.472 127.694 241.259L245.468 173.641L210.597 155.134L99.3945 219.274Z" fill="#07303A"/>
<path d="M107.184 216.469C107.419 216.605 107.419 216.827 107.184 216.963C106.95 217.098 106.567 217.098 106.333 216.963C106.099 216.828 106.099 216.606 106.333 216.469C106.568 216.334 106.95 216.334 107.184 216.469Z" fill="#2B545E"/>
<path d="M106.759 216.12C106.945 216.12 107.145 216.16 107.309 216.255L107.308 216.256C107.471 216.35 107.608 216.507 107.608 216.716C107.608 216.924 107.471 217.084 107.308 217.178L107.307 217.177C107.143 217.272 106.944 217.313 106.759 217.313C106.573 217.313 106.373 217.273 106.209 217.178L106.457 216.748C106.528 216.788 106.636 216.816 106.759 216.816C106.881 216.816 106.99 216.788 107.06 216.748L107.098 216.716L107.06 216.684L107 216.657C106.934 216.632 106.85 216.616 106.759 216.616C106.637 216.616 106.528 216.643 106.457 216.683L106.458 216.684C106.438 216.696 106.426 216.708 106.418 216.716C106.426 216.723 106.437 216.736 106.457 216.748L106.208 217.177C106.045 217.083 105.909 216.925 105.909 216.717C105.909 216.508 106.045 216.35 106.208 216.255H106.209C106.373 216.16 106.573 216.12 106.759 216.12Z" fill="#07303A"/>
<path d="M100.388 218.306L219.198 149.712L249.714 167.45L125.933 238.906C124.861 239.535 123.109 239.535 122.035 238.906L100.339 226.3C96.5517 224.092 96.576 220.527 100.388 218.319V218.307L100.388 218.306Z" fill="#94B2C9"/>
<path d="M219.135 149.472C219.197 149.456 219.266 149.464 219.323 149.497L249.839 167.236C249.915 167.28 249.962 167.362 249.962 167.451C249.962 167.539 249.915 167.621 249.838 167.665L126.058 239.12L126.059 239.121C125.475 239.462 124.723 239.626 123.985 239.626C123.247 239.626 122.494 239.462 121.91 239.121V239.12L100.214 226.515L99.8603 226.298C98.1508 225.195 97.2562 223.773 97.2655 222.308C97.2754 220.761 98.2924 219.264 100.206 218.138L100.214 218.13C100.229 218.115 100.246 218.102 100.265 218.091L219.074 149.497L219.135 149.472ZM100.567 218.49C100.551 218.507 100.533 218.522 100.513 218.534L100.175 218.74C98.5446 219.784 97.7696 221.07 97.7616 222.311C97.7532 223.634 98.616 225.008 100.464 226.085H100.463L122.16 238.691L122.161 238.692L122.101 238.792L122.05 238.881L122.161 238.692C122.651 238.979 123.312 239.129 123.985 239.129C124.659 239.129 125.319 238.979 125.808 238.692L125.963 238.956L125.934 238.906L125.808 238.692L125.809 238.691L249.217 167.45L219.197 149.998L100.567 218.49Z" fill="#07303A"/>
<path d="M93.1588 148.626L104.975 143.076L172.151 155.213L222.263 69.7425L219.468 69.2684C217.942 69.0747 216.989 69.3503 216.075 69.8682C215.636 70.1368 95.4655 137.241 95.4655 137.241C92.5541 138.918 91.197 142.397 92.1959 145.604L93.1456 148.614L93.1588 148.626Z" fill="#2B545E"/>
<path d="M215.952 69.6517C216.911 69.1081 217.919 68.8212 219.499 69.0218L219.469 69.2562V69.2552L219.499 69.0218L219.509 69.0238L222.305 69.4974L222.362 69.515C222.417 69.5389 222.462 69.5826 222.488 69.6381C222.523 69.712 222.519 69.7982 222.478 69.8685L172.365 155.338L172.317 155.397C172.261 155.447 172.184 155.471 172.107 155.457L105.009 143.334L93.2647 148.851L93.1583 148.625V148.626L93.2647 148.851C93.1954 148.883 93.1163 148.881 93.0499 148.849L92.9884 148.806L92.9747 148.794C92.9441 148.765 92.921 148.729 92.9083 148.689L91.9591 145.679L92.1954 145.604L92.1348 145.622L91.9591 145.679V145.678L91.8692 145.367C91.0148 142.137 92.4236 138.707 95.3419 137.026L95.3448 137.024L95.4659 137.241C95.3448 137.024 95.3449 137.023 95.3458 137.023C95.3466 137.022 95.348 137.022 95.3497 137.021C95.3533 137.019 95.3591 137.016 95.3663 137.012C95.3808 137.004 95.4028 136.991 95.4317 136.975C95.4895 136.943 95.576 136.895 95.6895 136.831C95.9169 136.704 96.2544 136.516 96.6944 136.27C97.5747 135.778 98.8657 135.058 100.509 134.14C103.796 132.305 108.492 129.682 114.128 126.535C125.401 120.239 140.436 111.844 155.484 103.439C170.533 95.0341 185.596 86.6201 196.924 80.2914C202.588 77.1271 207.318 74.4839 210.646 72.6234C212.309 71.6932 213.623 70.9587 214.527 70.4525C214.979 70.1995 215.329 70.0033 215.569 69.8685C215.689 69.8013 215.782 69.7494 215.846 69.7133C215.878 69.6953 215.902 69.6812 215.92 69.6713C215.937 69.6617 215.944 69.6573 215.945 69.6566L215.952 69.6517ZM219.437 69.515C217.969 69.3288 217.07 69.5899 216.204 70.0795L216.205 70.0804C215.98 70.2182 185.818 87.0661 155.727 103.872C140.678 112.277 125.643 120.673 114.37 126.968C108.734 130.116 104.038 132.738 100.751 134.574C99.1079 135.491 97.8168 136.212 96.9366 136.703C96.4966 136.949 96.1591 137.138 95.9317 137.265C95.8182 137.328 95.7317 137.376 95.6739 137.409C95.645 137.425 95.623 137.438 95.6085 137.446C95.6013 137.45 95.5955 137.452 95.5919 137.454C95.5908 137.455 95.5897 137.455 95.5889 137.455L95.5899 137.456C92.7797 139.075 91.4687 142.433 92.4327 145.53L93.3018 148.284L104.869 142.851C104.893 142.84 104.918 142.833 104.943 142.829L105.02 142.831L172.024 154.937L221.866 69.9271L219.437 69.514V69.515Z" fill="#07303A"/>
<path d="M123.699 234.504L125.734 234.603L172.126 155.204L104.95 143.066L93.1333 148.616L118.987 230.976C119.036 231.124 119.086 231.272 119.148 231.408C119.9 233.246 121.738 234.393 123.712 234.491L123.699 234.504Z" fill="#2B545E"/>
<path d="M104.995 142.822L172.169 154.959L172.124 155.203L172.34 155.329L125.949 234.728L125.907 234.782C125.858 234.828 125.792 234.854 125.722 234.851L123.687 234.752C123.657 234.751 123.629 234.742 123.603 234.731C121.586 234.596 119.706 233.414 118.922 231.511L118.83 231.282C118.801 231.205 118.776 231.128 118.751 231.054L118.995 230.973L118.987 230.976L118.751 231.054L118.749 231.05L92.896 148.691C92.8589 148.572 92.9154 148.445 93.0278 148.392L104.845 142.841L104.918 142.82C104.944 142.816 104.969 142.817 104.995 142.822ZM93.435 148.748L119.223 230.898L119.296 231.112L119.374 231.304L119.378 231.314H119.377C120.089 233.051 121.834 234.149 123.724 234.243C123.75 234.245 123.775 234.251 123.799 234.26L125.595 234.347L171.732 155.384L104.984 143.324L93.435 148.748ZM172.169 154.959C172.249 154.974 172.317 155.026 172.351 155.1C172.385 155.174 172.381 155.259 172.34 155.329L172.125 155.203L172.169 154.959Z" fill="#07303A"/>
<path d="M247.974 169.237L246.259 165.08L251.502 162.095C252.291 161.787 253.315 162.465 253.783 163.613C254.253 164.76 254.005 165.943 253.216 166.252L247.974 169.237Z" fill="#2B545E"/>
<path d="M251.411 161.864C251.904 161.672 252.442 161.797 252.9 162.101C253.359 162.406 253.762 162.905 254.013 163.519L253.553 163.706C253.335 163.173 252.992 162.759 252.625 162.515C252.261 162.273 251.897 162.212 251.602 162.323L246.572 165.188L248.095 168.881L253.093 166.036L253.125 166.021C253.419 165.906 253.639 165.618 253.729 165.195C253.819 164.772 253.772 164.24 253.554 163.706H253.553L253.783 163.613L254.013 163.519C254.264 164.132 254.329 164.765 254.215 165.298C254.104 165.819 253.814 166.267 253.339 166.468L248.097 169.452C248.035 169.488 247.96 169.495 247.893 169.472C247.825 169.449 247.772 169.397 247.744 169.331L246.03 165.175C245.982 165.06 246.027 164.927 246.136 164.865L251.378 161.879C251.389 161.873 251.4 161.868 251.411 161.864L251.501 162.095L251.502 162.097L251.411 161.864Z" fill="#07303A"/>
<path d="M130.672 236.778L125.454 239.689L123.788 235.557L129.007 232.646C129.783 232.338 130.795 233.028 131.252 234.163C131.708 235.298 131.449 236.47 130.672 236.766V236.778Z" fill="#2B545E"/>
<path d="M128.915 232.415C129.404 232.222 129.938 232.353 130.388 232.658C130.841 232.964 131.237 233.463 131.482 234.071L131.565 234.299C131.738 234.834 131.769 235.372 131.666 235.833C131.556 236.33 131.28 236.759 130.836 236.962C130.823 236.974 130.809 236.986 130.793 236.995L125.575 239.906C125.512 239.94 125.439 239.947 125.371 239.923C125.304 239.899 125.25 239.848 125.223 239.782L123.558 235.65C123.511 235.534 123.558 235.401 123.667 235.34L128.886 232.429L128.915 232.415L129.004 232.642L129.005 232.644L128.915 232.415ZM130.11 233.069C129.749 232.824 129.392 232.764 129.105 232.874L124.1 235.666L125.578 239.334L130.502 236.587C130.526 236.565 130.552 236.546 130.583 236.535L130.688 236.485C130.923 236.352 131.101 236.091 131.182 235.725C131.263 235.361 131.242 234.913 131.093 234.454L131.021 234.255C130.809 233.728 130.471 233.314 130.11 233.069Z" fill="#07303A"/>
<path d="M125.48 239.653C126.252 239.33 126.495 238.15 126.021 237.02C125.547 235.889 124.537 235.233 123.764 235.557C122.992 235.881 122.748 237.061 123.222 238.191C123.696 239.322 124.706 239.977 125.48 239.653Z" fill="#94B2C9"/>
<path d="M123.851 235.266C124.284 235.156 124.743 235.277 125.14 235.535C125.596 235.83 125.997 236.318 126.251 236.923C126.504 237.529 126.571 238.158 126.461 238.689C126.352 239.219 126.059 239.68 125.576 239.882L125.392 239.944C124.959 240.054 124.502 239.934 124.104 239.676C123.648 239.381 123.247 238.893 122.993 238.288C122.739 237.682 122.673 237.053 122.783 236.521C122.892 235.991 123.184 235.531 123.668 235.328L123.851 235.266ZM124.87 235.951C124.553 235.745 124.238 235.681 123.971 235.749L123.86 235.786C123.572 235.907 123.356 236.198 123.269 236.622C123.182 237.043 123.231 237.57 123.452 238.095C123.672 238.621 124.012 239.025 124.374 239.259C124.736 239.494 125.095 239.545 125.383 239.424L125.488 239.371C125.723 239.228 125.898 238.96 125.974 238.589C126.061 238.168 126.013 237.641 125.793 237.116C125.572 236.59 125.231 236.185 124.87 235.951Z" fill="#07303A"/>
<path d="M248.008 169.228C248.785 168.896 249.018 167.702 248.53 166.562C248.041 165.423 247.016 164.768 246.24 165.101C245.463 165.434 245.23 166.627 245.718 167.766C246.206 168.907 247.232 169.561 248.008 169.228Z" fill="#94B2C9"/>
<path d="M246.142 164.873C246.627 164.664 247.166 164.776 247.626 165.07C248.088 165.364 248.496 165.854 248.758 166.464L248.302 166.66C248.074 166.13 247.726 165.723 247.359 165.489C246.991 165.254 246.628 165.205 246.338 165.33L246.232 165.384C245.995 165.53 245.821 165.804 245.748 166.179C245.665 166.607 245.719 167.139 245.946 167.669L246.037 167.862C246.261 168.298 246.567 168.636 246.889 168.84C247.257 169.076 247.62 169.124 247.91 169L248.016 168.945C248.252 168.799 248.427 168.525 248.5 168.15C248.584 167.723 248.529 167.19 248.302 166.66L248.53 166.562L248.758 166.464L248.759 166.465C249.02 167.074 249.092 167.708 248.987 168.246C248.895 168.715 248.662 169.131 248.279 169.367L248.105 169.457C247.62 169.665 247.081 169.553 246.621 169.259C246.217 169.002 245.853 168.593 245.594 168.087L245.489 167.864C245.228 167.255 245.156 166.621 245.261 166.084C245.366 165.548 245.656 165.082 246.142 164.874V164.873Z" fill="#07303A"/>
<path d="M243.675 170.906L242.49 168.033L246.114 165.97C246.66 165.757 247.367 166.225 247.691 167.019C248.016 167.812 247.845 168.63 247.3 168.843L243.676 170.906H243.675Z" fill="#2B545E"/>
<path d="M246.024 165.739C246.394 165.594 246.793 165.69 247.123 165.91C247.455 166.13 247.742 166.487 247.921 166.924L247.982 167.089C248.109 167.473 248.136 167.862 248.065 168.2C247.985 168.573 247.775 168.905 247.422 169.058L247.423 169.059L243.799 171.122L243.675 170.906L243.676 170.907L243.799 171.122C243.762 171.144 243.719 171.155 243.676 171.155C243.576 171.155 243.484 171.093 243.446 171L243.676 170.907L243.675 170.906L243.446 171L242.261 168.127C242.213 168.012 242.259 167.879 242.367 167.817L245.991 165.754C246.002 165.748 246.013 165.743 246.024 165.739ZM246.848 166.324C246.611 166.167 246.388 166.134 246.214 166.198L242.803 168.14L243.797 170.55L247.177 168.627L247.272 168.581C247.414 168.5 247.527 168.338 247.578 168.096C247.629 167.856 247.613 167.556 247.511 167.247L247.461 167.113L247.404 166.983C247.259 166.69 247.057 166.463 246.848 166.324Z" fill="#07303A"/>
<path d="M249.751 165.457L129.597 234.667C126.711 236.32 123.047 234.889 122.048 231.719L95.2576 146.35C94.2455 143.143 95.6151 139.664 98.5258 137.986L219.689 70.3619C222.254 68.8944 225.304 70.1002 226.229 72.9124L253.847 154.737C255.191 158.833 253.489 163.31 249.751 165.457Z" fill="#07303A"/>
<path d="M219.568 70.1449C222.272 68.6003 225.491 69.8773 226.464 72.8333L254.083 154.658V154.66L254.203 155.055C255.352 159.152 253.596 163.535 249.875 165.671L249.876 165.672L129.721 234.882L129.473 234.452L249.628 165.242L249.963 165.039C253.364 162.882 254.878 158.675 253.611 154.815L225.994 72.9916L226.228 72.9124L226.213 72.9173L225.994 72.9916L225.993 72.9896L225.905 72.7445C224.937 70.2555 222.163 69.2332 219.812 70.5775L219.81 70.5785L98.6471 138.203C95.9262 139.773 94.6021 142.973 95.4098 145.985L95.4948 146.276L122.286 231.645C123.237 234.663 126.724 236.026 129.473 234.452L129.721 234.882C126.698 236.614 122.858 235.115 121.811 231.794L95.0202 146.424C93.9737 143.105 95.3916 139.505 98.402 137.771L98.405 137.77L219.568 70.1449Z" fill="#07303A"/>
<path d="M136.323 230.564L197.927 88.1052L204.857 81.9448L141.713 227.484L136.323 230.564Z" fill="#2B545E"/>
<path d="M147.874 223.631L209.478 81.1717L219.488 73.4712L156.344 219.011L147.874 223.631Z" fill="#2B545E"/>
<path d="M227.611 77.0997L226.229 72.9193C225.425 70.4771 222.845 69.2185 220.5 69.8905L120.316 125.451L98.5258 137.993C95.6151 139.67 94.2455 143.15 95.2576 146.357L96.5023 150.453L227.611 77.0997Z" fill="#94B2C9"/>
<path d="M220.431 69.6512C222.9 68.9439 225.618 70.2677 226.465 72.8407L227.847 77.0214L227.857 77.0643C227.872 77.1644 227.824 77.2654 227.733 77.3163L96.6237 150.67L96.572 150.691C96.519 150.707 96.462 150.704 96.4099 150.683C96.3401 150.655 96.2862 150.597 96.2643 150.525L95.0202 146.429V146.428C93.9749 143.109 95.3922 139.512 98.402 137.778L120.192 125.236L120.195 125.234L220.38 69.6727L220.431 69.6512ZM225.917 72.7831C225.083 70.621 222.738 69.5203 220.592 70.1219L120.436 125.669L98.6501 138.209L98.6491 138.208C95.9266 139.777 94.602 142.979 95.4099 145.991L95.4948 146.282V146.284L96.6501 150.085L227.31 76.9823L225.993 72.9969L225.917 72.7831Z" fill="#07303A"/>
<path d="M102.587 140.842C102.22 139.96 101.203 139.61 100.286 140.081C99.3319 140.57 98.8577 141.75 99.2604 142.693C99.6609 143.632 100.756 143.926 101.674 143.375C102.556 142.845 102.953 141.721 102.587 140.842Z" fill="#2B545E"/>
<path d="M100.367 139.771C101.351 139.381 102.415 139.783 102.817 140.747H102.816C103.207 141.687 102.833 142.845 101.979 143.47L101.802 143.588C100.838 144.167 99.6584 143.923 99.1291 142.987L99.0315 142.791C98.5725 141.716 99.1147 140.403 100.172 139.86L100.367 139.771ZM102.294 140.805C101.969 140.208 101.254 139.952 100.55 140.233L100.399 140.302C99.5488 140.738 99.1424 141.784 99.4885 142.596L99.5579 142.736C99.9362 143.407 100.79 143.616 101.546 143.162L101.689 143.067C102.327 142.599 102.613 141.766 102.409 141.082L102.358 140.937L102.294 140.805Z" fill="#07303A"/>
<path d="M108.641 137.687C108.275 136.815 107.273 136.466 106.373 136.927C105.437 137.408 104.977 138.571 105.378 139.504C105.778 140.433 106.856 140.727 107.757 140.186C108.622 139.665 109.006 138.556 108.641 137.687Z" fill="#2B545E"/>
<path d="M106.453 136.62C107.421 136.236 108.47 136.639 108.87 137.591L108.938 137.78C109.21 138.671 108.843 139.707 108.059 140.283L107.884 140.399C106.934 140.97 105.772 140.722 105.247 139.796L105.15 139.602C104.693 138.539 105.218 137.241 106.259 136.706L106.453 136.62ZM108.412 137.784C108.125 137.1 107.37 136.788 106.633 137.081L106.487 137.148C105.657 137.574 105.262 138.603 105.607 139.406L105.675 139.545C106.051 140.211 106.89 140.417 107.628 139.973L107.767 139.88C108.391 139.422 108.668 138.603 108.463 137.926L108.412 137.784Z" fill="#07303A"/>
<path d="M114.288 134.674C113.923 133.81 112.935 133.461 112.052 133.914C111.132 134.386 110.685 135.534 111.085 136.458C111.482 137.377 112.546 137.672 113.429 137.14C114.279 136.628 114.651 135.534 114.288 134.674Z" fill="#2B545E"/>
<path d="M111.938 133.694C112.942 133.178 114.092 133.573 114.517 134.576V134.577L114.585 134.764C114.857 135.646 114.501 136.67 113.73 137.239L113.558 137.353C112.621 137.916 111.474 137.665 110.952 136.748L110.857 136.556C110.401 135.503 110.912 134.221 111.938 133.695V133.694ZM113.996 134.64C113.651 134.012 112.88 133.768 112.165 134.135L112.018 134.22C111.308 134.677 110.99 135.613 111.313 136.359L111.381 136.497C111.755 137.156 112.581 137.36 113.301 136.927L113.437 136.837C114.089 136.356 114.352 135.464 114.06 134.771L113.996 134.64Z" fill="#07303A"/>
<path d="M215.846 96.5117L215.776 96.75H215.777L215.846 96.5117C215.919 96.5331 215.978 96.5876 216.007 96.6582C216.035 96.7287 216.03 96.8081 215.992 96.874L214.689 99.1357L214.259 98.8877L215.403 96.9004L213.3 96.2891L213.439 95.8125L215.846 96.5117Z" fill="#94B2C9"/>
<path d="M207.794 99.1917L206.554 101.061L208.713 101.777L208.557 102.248L206.09 101.431L206.039 101.406C205.99 101.377 205.953 101.331 205.934 101.277C205.909 101.204 205.919 101.122 205.961 101.058L207.379 98.9182L207.794 99.1917Z" fill="#94B2C9"/>
<path d="M165.792 127.819L115.331 156.205C114.525 156.658 113.507 156.235 113.26 155.344C112.986 154.352 113.424 153.301 114.322 152.799L164.199 124.868C165.13 124.347 166.304 124.83 166.598 125.855C166.816 126.617 166.482 127.43 165.792 127.819Z" fill="#94B2C9"/>
<path d="M164.282 124.553C165.314 124.124 166.52 124.681 166.837 125.787L166.876 125.951C167.026 126.719 166.704 127.506 166.057 127.946L165.914 128.035L115.452 156.422C114.565 156.921 113.459 156.515 113.086 155.6L113.021 155.41C112.717 154.309 113.203 153.141 114.201 152.582L164.078 124.651L164.282 124.553ZM166.359 125.924C166.125 125.107 165.234 124.695 164.471 125.012L164.321 125.085L114.443 153.016C113.645 153.462 113.256 154.396 113.5 155.277L113.546 155.411C113.808 156.054 114.585 156.339 115.209 155.988L165.67 127.603L165.777 127.536C166.26 127.207 166.501 126.62 166.388 126.046L166.359 125.924Z" fill="#07303A"/>
<path d="M309.142 126.812C305.896 134.724 293.523 140.607 279.12 140.607C264.717 140.607 252.343 134.724 249.098 126.812C245.041 130.261 242.809 134.318 242.809 138.781V171.845C242.809 183.61 259.038 193.144 279.12 193.144C299.202 193.144 315.43 183.61 315.43 171.845V138.781C315.43 134.318 312.997 130.261 309.142 126.812Z" fill="#94B2C9"/>
<path d="M315.182 138.78C315.181 134.512 312.907 130.6 309.232 127.23C307.501 131.128 303.606 134.494 298.419 136.901C293.083 139.378 286.353 140.854 279.12 140.854C271.886 140.854 265.156 139.378 259.82 136.901C254.629 134.492 250.732 131.123 249.003 127.222C245.148 130.587 243.058 134.503 243.057 138.78V171.845C243.057 177.603 247.031 182.861 253.559 186.692C260.082 190.52 269.115 192.896 279.12 192.896C289.125 192.895 298.157 190.52 304.68 186.692C311.208 182.861 315.182 177.603 315.182 171.845V138.78ZM315.679 171.845C315.679 177.851 311.537 183.243 304.932 187.12C298.32 191 289.197 193.393 279.12 193.393C269.043 193.393 259.92 191 253.308 187.12C246.703 183.243 242.561 177.851 242.561 171.845V138.78C242.562 134.226 244.84 130.104 248.936 126.623C248.997 126.572 249.079 126.553 249.156 126.571C249.233 126.59 249.297 126.644 249.327 126.718C250.917 130.594 254.761 134.006 260.029 136.451C265.292 138.894 271.951 140.358 279.12 140.358C286.289 140.358 292.947 138.894 298.21 136.451C303.478 134.006 307.322 130.594 308.912 126.718L308.941 126.666C308.976 126.618 309.027 126.584 309.086 126.57C309.164 126.552 309.247 126.573 309.307 126.627C313.192 130.102 315.678 134.221 315.679 138.78V171.845Z" fill="#07303A"/>
<path d="M279.122 189.092C297.272 189.092 311.984 180.464 311.984 169.821C311.984 159.178 297.272 150.55 279.122 150.55C260.973 150.55 246.26 159.178 246.26 169.821C246.26 180.464 260.973 189.092 279.122 189.092Z" fill="#07303A"/>
<path d="M311.736 169.822C311.736 164.624 308.142 159.873 302.234 156.408C296.331 152.947 288.161 150.798 279.122 150.798C270.084 150.798 261.914 152.947 256.011 156.408C250.103 159.873 246.508 164.624 246.508 169.822C246.508 175.019 250.103 179.769 256.011 183.234C261.914 186.695 270.084 188.844 279.122 188.844C288.161 188.844 296.331 186.695 302.234 183.234C308.142 179.769 311.736 175.019 311.736 169.822ZM312.233 169.822C312.233 175.267 308.47 180.152 302.485 183.662C296.494 187.176 288.233 189.34 279.122 189.34C270.012 189.34 261.75 187.176 255.759 183.662C249.774 180.153 246.012 175.267 246.012 169.822C246.012 164.376 249.774 159.49 255.759 155.98C261.75 152.466 270.012 150.302 279.122 150.302C288.233 150.302 296.494 152.466 302.485 155.98C308.47 159.49 312.233 164.376 312.233 169.822Z" fill="#07303A"/>
<path d="M279.123 136.957C293.911 136.957 305.899 130.418 305.899 122.351C305.899 114.285 293.911 107.746 279.123 107.746C264.335 107.746 252.347 114.285 252.347 122.351C252.347 130.418 264.335 136.957 279.123 136.957Z" fill="#2B545E"/>
<path d="M305.651 122.352C305.651 118.452 302.75 114.867 297.938 112.242C293.135 109.623 286.484 107.994 279.123 107.994C271.763 107.994 265.111 109.623 260.309 112.242C255.497 114.867 252.595 118.452 252.595 122.352C252.595 126.251 255.497 129.837 260.309 132.461C265.111 135.081 271.763 136.708 279.123 136.708C286.484 136.708 293.135 135.081 297.938 132.461C302.749 129.837 305.65 126.251 305.651 122.352ZM306.148 122.352C306.148 126.518 303.055 130.235 298.176 132.897C293.287 135.563 286.551 137.205 279.123 137.205C271.696 137.205 264.959 135.563 260.071 132.897C255.192 130.235 252.099 126.518 252.099 122.352C252.099 118.185 255.191 114.467 260.071 111.806C264.959 109.139 271.696 107.498 279.123 107.498C286.551 107.498 293.287 109.139 298.176 111.806C303.055 114.467 306.148 118.185 306.148 122.352Z" fill="#07303A"/>
<path d="M279.123 112.614C292.308 112.614 303.262 117.888 305.493 124.785C305.696 123.974 305.899 123.163 305.899 122.351C305.899 114.237 293.931 107.746 279.123 107.746C264.315 107.746 252.347 114.237 252.347 122.351C252.347 123.163 252.55 124.177 252.753 124.785C254.781 117.888 265.938 112.614 279.123 112.614Z" fill="#07303A"/>
<path d="M279.123 112.366C285.747 112.366 291.818 113.691 296.521 115.889C300.871 117.922 304.08 120.719 305.44 123.936C305.56 123.399 305.651 122.874 305.651 122.352C305.651 118.428 302.754 114.842 297.946 112.224C293.146 109.61 286.494 107.994 279.123 107.994C271.752 107.994 265.101 109.611 260.301 112.224C255.492 114.842 252.595 118.428 252.595 122.352C252.595 122.849 252.675 123.43 252.783 123.939C254.063 120.718 257.278 117.92 261.65 115.888C266.378 113.69 272.5 112.366 279.123 112.366ZM306.148 122.352C306.148 123.199 305.936 124.041 305.735 124.846C305.708 124.953 305.612 125.03 305.501 125.033C305.391 125.037 305.291 124.967 305.257 124.862C304.172 121.506 300.946 118.505 296.311 116.338C291.683 114.175 285.685 112.863 279.123 112.863C272.562 112.863 266.512 114.176 261.859 116.339C257.197 118.506 253.976 121.506 252.991 124.856C252.961 124.96 252.866 125.031 252.757 125.033C252.676 125.035 252.601 124.997 252.554 124.935L252.517 124.865L252.439 124.611C252.258 123.978 252.099 123.089 252.099 122.352C252.099 118.162 255.186 114.444 260.063 111.788C264.949 109.128 271.686 107.498 279.123 107.498C286.56 107.498 293.297 109.128 298.183 111.788C303.06 114.444 306.148 118.162 306.148 122.352Z" fill="#07303A"/>
<path d="M247.196 153.965C243.736 151.857 244.12 145.114 248.142 138.818C251.957 132.629 258.003 129.194 261.367 131.615L264.935 133.928C268.396 136.036 268.011 142.779 263.99 149.075C259.97 155.371 254.129 158.699 250.765 156.278L247.196 153.965Z" fill="#2B545E"/>
<path d="M267.516 139.946C267.685 137.172 266.911 134.845 265.071 133.72L261.512 131.413L261.341 131.297C259.561 130.14 257.171 130.464 254.804 131.77C252.351 133.124 249.856 135.564 247.93 138.687L247.931 138.688C245.904 141.863 244.784 145.161 244.615 147.946C244.446 150.723 245.223 153.053 247.067 154.177L250.63 156.487C252.424 157.77 254.835 157.497 257.251 156.163C259.679 154.822 262.172 152.383 264.199 149.209L264.569 148.612C266.364 145.622 267.358 142.558 267.516 139.946ZM267.021 139.916C266.868 142.434 265.905 145.421 264.143 148.356L263.781 148.942C261.787 152.064 259.35 154.436 257.012 155.728C254.666 157.024 252.479 157.205 250.91 156.076L250.901 156.07L247.325 153.752L247.177 153.657C245.663 152.637 244.953 150.588 245.111 147.977C245.274 145.291 246.358 142.072 248.35 138.952L248.119 138.804L248.353 138.948C250.242 135.883 252.679 133.51 255.043 132.205C257.417 130.895 259.654 130.689 261.221 131.817L261.37 131.612L261.367 131.615L261.221 131.817L261.232 131.824L264.801 134.137L264.806 134.141C266.422 135.126 267.185 137.222 267.021 139.916ZM248.142 138.818L248.35 138.952L248.353 138.948L248.142 138.818Z" fill="#07303A"/>
<path d="M251.432 141.195C255.313 135.022 261.269 131.783 264.735 133.962C268.201 136.141 267.865 142.912 263.984 149.086C260.103 155.26 254.147 158.498 250.681 156.319C247.215 154.14 247.551 147.369 251.432 141.195Z" fill="#94B2C9"/>
<path d="M264.603 134.172C266.226 135.192 267.001 137.318 266.867 140.013C266.733 142.7 265.696 145.896 263.774 148.954C261.852 152.011 259.422 154.331 257.058 155.616C254.687 156.906 252.436 157.129 250.813 156.109C249.19 155.089 248.416 152.964 248.55 150.268C248.684 147.581 249.721 144.385 251.643 141.328C253.565 138.27 255.995 135.95 258.359 134.665C260.73 133.376 262.98 133.151 264.603 134.172ZM264.867 133.752C263.024 132.593 260.564 132.9 258.121 134.228C255.67 135.561 253.181 137.947 251.222 141.063C249.263 144.179 248.192 147.456 248.054 150.243C247.916 153.021 248.706 155.371 250.549 156.529C252.392 157.688 254.852 157.381 257.295 156.052C259.747 154.72 262.235 152.334 264.194 149.218C266.153 146.102 267.224 142.825 267.362 140.038C267.5 137.26 266.71 134.91 264.867 133.752Z" fill="#07303A"/>
<path d="M309.577 166.226C313.038 164.118 312.653 157.375 308.632 151.079C304.816 144.89 298.771 141.455 295.407 143.876L291.838 146.19C288.377 148.298 288.762 155.04 292.783 161.336C296.804 167.632 302.644 170.96 306.008 168.539L309.577 166.226Z" fill="#2B545E"/>
<path d="M289.257 152.207C289.089 149.433 289.862 147.106 291.703 145.981L295.261 143.675L295.432 143.558C297.213 142.401 299.603 142.725 301.97 144.031C304.423 145.385 306.917 147.825 308.843 150.949L308.842 150.95C310.869 154.125 311.989 157.422 312.158 160.208C312.327 162.985 311.551 165.315 309.706 166.438L306.144 168.748C304.35 170.031 301.938 169.759 299.522 168.424C297.094 167.083 294.601 164.644 292.574 161.47L292.204 160.873C290.409 157.883 289.416 154.82 289.257 152.207ZM289.752 152.178C289.905 154.696 290.868 157.683 292.63 160.617L292.992 161.203C294.986 164.325 297.423 166.698 299.762 167.989C302.108 169.285 304.295 169.466 305.863 168.337L305.873 168.331L309.448 166.014L309.596 165.918C311.11 164.898 311.821 162.85 311.662 160.238C311.499 157.553 310.416 154.333 308.423 151.213L308.654 151.065L308.421 151.209C306.531 148.144 304.095 145.772 301.73 144.466C299.356 143.156 297.119 142.95 295.552 144.078L295.404 143.873L295.407 143.877L295.552 144.078L295.542 144.085L291.973 146.398L291.967 146.402C290.352 147.387 289.589 149.483 289.752 152.178ZM308.631 151.079L308.423 151.213L308.421 151.209L308.631 151.079Z" fill="#07303A"/>
<path d="M305.341 153.457C301.46 147.283 295.504 144.044 292.038 146.223C288.572 148.402 288.908 155.173 292.789 161.347C296.67 167.521 302.626 170.759 306.092 168.58C309.558 166.402 309.222 159.63 305.341 153.457Z" fill="#94B2C9"/>
<path d="M292.17 146.433C290.547 147.453 289.773 149.579 289.907 152.275C290.04 154.962 291.077 158.157 292.999 161.215C294.921 164.272 297.352 166.592 299.715 167.878C302.086 169.167 304.337 169.391 305.961 168.37C307.584 167.35 308.357 165.225 308.223 162.529C308.09 159.842 307.053 156.646 305.13 153.589C303.208 150.531 300.778 148.211 298.415 146.926C296.044 145.637 293.793 145.413 292.17 146.433ZM291.906 146.013C293.749 144.854 296.209 145.161 298.652 146.489C301.104 147.822 303.592 150.208 305.551 153.324C307.51 156.44 308.581 159.717 308.72 162.504C308.858 165.282 308.067 167.632 306.225 168.79C304.382 169.949 301.921 169.642 299.478 168.314C297.027 166.981 294.538 164.595 292.579 161.479C290.62 158.363 289.549 155.086 289.411 152.299C289.273 149.521 290.063 147.171 291.906 146.013Z" fill="#07303A"/>
<path d="M279.796 151.273L274.895 169.364L281.555 186.904L297.606 167.183L290.946 149.642L279.796 151.273Z" fill="#07303A"/>
<path d="M290.994 149.398C291.076 149.415 291.147 149.472 291.178 149.553L297.838 167.095C297.869 167.177 297.855 167.271 297.799 167.34L281.748 187.061C281.692 187.13 281.604 187.164 281.516 187.15C281.428 187.135 281.354 187.076 281.323 186.993L274.663 169.452C274.644 169.403 274.642 169.35 274.656 169.299L279.556 151.208L279.585 151.142C279.623 151.081 279.687 151.038 279.76 151.027L279.795 151.272L279.795 151.273L279.76 151.027L290.91 149.396L290.994 149.398ZM279.993 151.496L275.155 169.35L281.635 186.413L297.322 167.137L290.783 149.916L279.993 151.496Z" fill="#07303A"/>
<path d="M274.896 169.367L251.496 165.491L258.156 183.032L281.556 186.908L274.896 169.367Z" fill="#2B545E"/>
<path d="M274.936 169.122L274.895 169.367L274.896 169.367L274.936 169.122C275.024 169.136 275.096 169.196 275.128 169.279L281.788 186.82C281.819 186.903 281.805 186.996 281.749 187.065C281.692 187.134 281.603 187.167 281.515 187.152L281.556 186.907L281.555 186.907L281.515 187.152L258.116 183.277L258.156 183.031L258.156 183.032L258.116 183.277C258.029 183.263 257.955 183.203 257.924 183.12L251.264 165.579C251.232 165.496 251.248 165.403 251.304 165.334C251.36 165.265 251.449 165.231 251.537 165.246L274.936 169.122ZM258.337 182.81L281.17 186.591L274.715 169.588L251.881 165.806L258.337 182.81Z" fill="#07303A"/>
<path d="M293.095 148.463L269.539 146.133L255.843 148.236L279.399 150.566L293.095 148.463Z" fill="#2B545E"/>
<path d="M293.164 148.224C293.266 148.254 293.34 148.347 293.343 148.456C293.347 148.581 293.257 148.689 293.133 148.708L279.436 150.812L279.374 150.814L279.399 150.568L279.398 150.566L279.374 150.814L255.818 148.484L255.773 148.474C255.671 148.445 255.597 148.352 255.594 148.242C255.591 148.118 255.682 148.01 255.805 147.991L269.502 145.888L269.564 145.886L293.119 148.216L293.164 148.224ZM269.546 146.382L257.827 148.183L279.391 150.315L291.113 148.516L269.546 146.382Z" fill="#07303A"/>
<path d="M279.401 150.565L255.845 148.235L249.863 170.329L273.31 172.7L279.401 150.565Z" fill="#94B2C9"/>
<path d="M279.425 150.318C279.498 150.325 279.564 150.364 279.606 150.424C279.647 150.485 279.66 150.56 279.641 150.631L273.55 172.765L273.534 172.808C273.489 172.9 273.39 172.958 273.285 172.947L273.311 172.699L273.31 172.699L273.285 172.947L249.839 170.576L249.785 170.564C249.734 170.547 249.689 170.515 249.658 170.47C249.617 170.41 249.605 170.334 249.624 170.263L255.605 148.17C255.637 148.053 255.75 147.976 255.87 147.988L279.425 150.318ZM256.029 148.502L250.178 170.11L273.126 172.431L279.083 150.782L256.029 148.502Z" fill="#07303A"/>
<path d="M279.4 150.569L279.77 151.544L293.425 149.332L293.097 148.466L279.4 150.569Z" fill="#07303A"/>
<path d="M279.81 151.788C279.694 151.807 279.58 151.742 279.538 151.631L279.77 151.544L279.81 151.788ZM293.145 148.221C293.227 148.238 293.298 148.295 293.329 148.377L293.657 149.244C293.683 149.314 293.677 149.392 293.64 149.456C293.603 149.521 293.538 149.565 293.465 149.577L279.81 151.788L279.77 151.543L279.538 151.631L279.168 150.657C279.141 150.587 279.148 150.508 279.186 150.443C279.223 150.379 279.289 150.335 279.363 150.323L293.059 148.22L293.145 148.221ZM279.741 150.767L279.93 151.266L293.085 149.135L292.935 148.741L279.741 150.767Z" fill="#07303A"/>
<path d="M279.403 150.564L279.773 151.539L273.925 173.333L273.312 172.698L279.403 150.564Z" fill="#07303A"/>
<path d="M279.391 150.315C279.498 150.31 279.596 150.375 279.635 150.475L280.005 151.45C280.023 151.499 280.026 151.553 280.013 151.603L279.772 151.538L279.771 151.538L280.013 151.603L274.165 173.397L273.925 173.332L273.925 173.333L274.165 173.397C274.142 173.483 274.074 173.55 273.988 173.573C273.922 173.59 273.854 173.58 273.798 173.546L273.747 173.505L273.134 172.871C273.073 172.808 273.05 172.717 273.073 172.633L279.163 150.497C279.192 150.394 279.283 150.321 279.391 150.315ZM273.589 172.626L273.798 172.844L279.511 151.552L279.44 151.363L273.589 172.626Z" fill="#07303A"/>
<path d="M273.312 172.703L273.925 173.338L250.369 171.008L249.865 170.332L273.312 172.703Z" fill="#07303A"/>
<path d="M250.345 171.255C250.276 171.248 250.212 171.212 250.171 171.156L250.37 171.008L250.345 171.255ZM273.336 172.456C273.395 172.462 273.449 172.488 273.49 172.53L274.104 173.165L274.148 173.227C274.181 173.295 274.182 173.375 274.148 173.446C274.103 173.539 274.004 173.595 273.9 173.585L250.345 171.255L250.37 171.007L250.171 171.156L249.666 170.482C249.607 170.403 249.6 170.296 249.649 170.21C249.697 170.125 249.791 170.076 249.889 170.086L273.336 172.456L273.311 172.703L273.312 172.703L273.336 172.456ZM250.402 170.635L250.502 170.771L273.276 173.024L273.196 172.941L250.402 170.635Z" fill="#07303A"/>
<path d="M254.308 147.459L258.812 148.227L262.265 143.943L257.91 143.242L254.308 147.459Z" fill="#94B2C9"/>
<path d="M262.304 143.698C262.391 143.712 262.464 143.771 262.496 143.854C262.528 143.936 262.514 144.03 262.458 144.099L259.006 148.384C258.949 148.454 258.859 148.488 258.77 148.473L258.812 148.228L258.811 148.227L258.77 148.473L254.266 147.704C254.178 147.689 254.105 147.627 254.074 147.543C254.044 147.459 254.061 147.366 254.119 147.298L257.721 143.08C257.778 143.014 257.865 142.983 257.95 142.997L262.304 143.698ZM254.78 147.288L258.71 147.957L261.803 144.12L258.008 143.509L254.78 147.288Z" fill="#07303A"/>
<path d="M254.31 147.46L257.106 154.823L261.568 155.483L258.814 148.228L254.31 147.46Z" fill="#2B545E"/>
<path d="M258.855 147.983L258.918 148.002C258.976 148.029 259.022 148.078 259.045 148.14L261.8 155.394C261.831 155.477 261.816 155.569 261.761 155.638C261.706 155.706 261.619 155.741 261.532 155.728L257.07 155.069C256.981 155.055 256.906 154.995 256.874 154.911L257.106 154.823L257.106 154.822L256.874 154.911L254.078 147.548C254.046 147.465 254.061 147.371 254.118 147.302C254.174 147.233 254.264 147.2 254.352 147.215L258.855 147.983ZM257.286 154.598L261.185 155.175L258.631 148.449L254.696 147.778L257.286 154.598Z" fill="#07303A"/>
<path d="M258.813 148.222L261.567 155.477L265.02 151.192L262.266 143.938L258.813 148.222Z" fill="#07303A"/>
<path d="M262.305 143.693C262.392 143.707 262.466 143.767 262.498 143.85L265.253 151.104C265.284 151.187 265.269 151.28 265.214 151.348L261.76 155.633C261.705 155.702 261.616 155.736 261.529 155.722C261.463 155.712 261.404 155.676 261.366 155.623L261.336 155.565L258.581 148.31L258.566 148.248C258.56 148.183 258.578 148.118 258.62 148.067L262.072 143.782L262.12 143.737C262.172 143.699 262.239 143.682 262.305 143.693ZM259.095 148.266L261.645 154.983L264.737 151.147L262.187 144.431L259.095 148.266Z" fill="#07303A"/>
<path d="M304.711 154.058C306.125 153.354 306.817 152.595 307.154 151.957L307.156 151.949C307.26 151.748 307.33 151.562 307.374 151.389C307.731 150.39 308.462 147.999 309.099 143.713C310.907 138.077 309.731 132.19 308.692 129.987C307.638 127.755 297.357 120.034 293.983 117.752C290.608 115.473 275.803 111.335 272.943 110.54C270.082 109.748 268.296 109.673 264.653 111.342C261.048 112.993 261.203 123.441 261.66 128.342C262.115 133.247 265.278 134.61 265.278 134.61L272.774 138.612L273.067 139.83L289.6 150.63L296.533 154.812L296.726 155.822C297.095 156.022 297.433 156.179 297.698 156.268C299.269 156.795 301.425 155.691 304.713 154.053L304.711 154.058Z" fill="#07303A"/>
<path d="M308.079 128.748C307.684 128.311 307.177 127.811 306.592 127.272C305.421 126.193 303.926 124.944 302.362 123.695C299.625 121.509 296.666 119.318 294.835 118.037L294.122 117.546L293.763 117.321C292.85 116.785 291.429 116.174 289.762 115.543C287.848 114.82 285.587 114.063 283.345 113.353C278.86 111.933 274.44 110.698 273.01 110.301L272.48 110.159C271.269 109.851 270.212 109.689 269.073 109.771C267.773 109.865 266.385 110.275 264.549 111.116L264.367 111.207C263.472 111.7 262.83 112.691 262.367 113.918C261.871 115.235 261.564 116.872 261.386 118.598C261.074 121.619 261.153 124.947 261.331 127.38L261.412 128.365C261.645 130.872 262.573 132.488 263.454 133.48C263.894 133.975 264.32 134.312 264.638 134.526C264.797 134.633 264.93 134.71 265.024 134.761C265.071 134.786 265.109 134.804 265.135 134.817C265.145 134.822 265.154 134.826 265.161 134.829L272.559 138.778L272.826 139.888C272.837 139.934 272.861 139.976 272.895 140.009L272.932 140.038L289.464 150.837L289.607 150.618L289.6 150.63L289.464 150.837L289.471 150.842L289.472 150.842L296.31 154.966L296.482 155.869C296.496 155.942 296.542 156.004 296.608 156.04L296.726 155.822L296.727 155.822L296.608 156.04C296.983 156.244 297.335 156.409 297.619 156.504L297.62 156.503C298.488 156.794 299.487 156.625 300.646 156.206C301.804 155.787 303.174 155.098 304.803 154.286C304.809 154.284 304.816 154.283 304.822 154.28C306.271 153.559 307.007 152.767 307.374 152.073C307.376 152.068 307.378 152.062 307.38 152.057C307.487 151.85 307.561 151.654 307.61 151.47C307.974 150.452 308.705 148.051 309.342 143.767C310.252 140.918 310.409 138.012 310.21 135.543C310.01 133.07 309.453 131.017 308.917 129.881L308.855 129.76C308.693 129.469 308.422 129.126 308.079 128.748ZM307.712 129.081C308.001 129.401 308.217 129.674 308.355 129.893L308.468 130.093C308.971 131.161 309.519 133.152 309.715 135.583C309.911 138.01 309.754 140.857 308.862 143.637L308.853 143.676L309.099 143.713L309.101 143.713L308.853 143.676C308.219 147.948 307.491 150.323 307.139 151.306L307.133 151.328L307.37 151.388L307.374 151.389L307.133 151.328C307.094 151.48 307.031 151.65 306.935 151.836L306.932 151.845C306.626 152.424 305.981 153.144 304.619 153.825C304.614 153.828 304.608 153.828 304.602 153.831C302.953 154.653 301.607 155.33 300.478 155.739C299.345 156.148 298.48 156.268 297.777 156.033L297.698 156.268L297.697 156.267L297.777 156.033L297.776 156.032L297.578 155.958C297.394 155.883 297.181 155.781 296.948 155.658L296.777 154.765L296.762 154.715C296.742 154.667 296.706 154.627 296.661 154.599L289.736 150.422L289.735 150.421L273.286 139.676L273.015 138.554C273.003 138.503 272.975 138.457 272.935 138.423L272.891 138.393L265.395 134.391L265.378 134.382L265.377 134.382L265.376 134.382C265.375 134.382 265.374 134.381 265.371 134.38C265.367 134.378 265.36 134.374 265.35 134.37C265.33 134.36 265.299 134.345 265.259 134.323C265.178 134.28 265.06 134.211 264.916 134.114C264.627 133.92 264.233 133.61 263.825 133.15C263.011 132.234 262.13 130.717 261.907 128.319L261.826 127.342C261.65 124.929 261.572 121.632 261.881 118.649C262.057 116.943 262.358 115.353 262.833 114.093C263.28 112.905 263.866 112.051 264.606 111.643L264.756 111.567C266.563 110.74 267.891 110.354 269.109 110.266C270.175 110.189 271.173 110.339 272.357 110.641L272.876 110.779C274.306 111.176 278.718 112.409 283.194 113.826C285.433 114.535 287.685 115.29 289.586 116.008C291.495 116.73 293.028 117.407 293.845 117.958L293.845 117.957C295.526 119.094 298.933 121.591 302.053 124.082C303.612 125.328 305.097 126.569 306.255 127.637C306.835 128.171 307.33 128.659 307.712 129.081Z" fill="#07303A"/>
<path d="M296.547 139.319C292.453 137.159 287.023 134.167 282.765 134.122C278.503 134.076 280.642 135.661 283.28 137.381C285.831 139.045 298.109 148.836 303.734 145.509C304.029 145.334 304.074 144.922 303.824 144.686C302.737 143.657 299.832 141.051 296.547 139.319Z" fill="#94B2C9"/>
<path d="M303.994 144.505L303.994 144.506C302.903 143.473 299.978 140.848 296.662 139.099L295.07 138.258C293.423 137.391 291.625 136.471 289.815 135.699C287.405 134.672 284.946 133.896 282.767 133.873L282.384 133.874C281.528 133.886 280.932 133.974 280.57 134.146C280.356 134.246 280.186 134.395 280.121 134.608C280.058 134.819 280.118 135.028 280.217 135.209C280.411 135.562 280.832 135.947 281.336 136.336C281.593 136.534 281.88 136.74 282.185 136.95L283.144 137.589C284.393 138.403 288.135 141.289 292.235 143.534C294.289 144.659 296.453 145.635 298.466 146.118C300.348 146.57 302.135 146.6 303.576 145.877L303.861 145.723L303.938 145.669C304.304 145.387 304.341 144.832 303.994 144.505ZM303.695 144.916C303.776 145.042 303.74 145.216 303.608 145.295L303.354 145.433C302.064 146.08 300.416 146.075 298.582 145.635C296.631 145.166 294.511 144.214 292.473 143.099C288.391 140.864 284.718 138.023 283.415 137.173L282.466 136.54C282.167 136.335 281.887 136.135 281.639 135.944C281.133 135.553 280.791 135.222 280.653 134.97C280.586 134.849 280.588 134.783 280.597 134.752C280.606 134.724 280.639 134.663 280.783 134.594C281.046 134.47 281.548 134.383 282.383 134.371L282.762 134.371C284.841 134.393 287.227 135.136 289.62 136.156C291.413 136.92 293.194 137.832 294.838 138.697L296.431 139.539C299.685 141.255 302.57 143.841 303.653 144.866L303.695 144.916Z" fill="#07303A"/>
<path d="M275.708 138.133C279.526 134.775 274.353 131.97 269.174 130.891C264.832 129.986 264.877 119.859 265.735 115.707C266.375 112.605 268.371 110.783 270.887 110.085C269.035 109.82 267.354 110.101 264.656 111.336C261.051 112.988 261.206 123.435 261.663 128.337C262.118 133.241 265.281 134.604 265.281 134.604L272.777 138.607L273.069 139.822C274.196 139.364 275.014 138.741 275.71 138.13L275.708 138.131L275.708 138.133Z" fill="#2B545E"/>
<path d="M271.135 110.069C271.127 109.951 271.038 109.855 270.922 109.839C269.008 109.565 267.278 109.863 264.552 111.11L264.37 111.202C263.475 111.695 262.832 112.685 262.37 113.912C261.874 115.229 261.567 116.866 261.389 118.592C261.077 121.613 261.156 124.942 261.334 127.375L261.415 128.359C261.648 130.866 262.576 132.482 263.457 133.474C263.896 133.969 264.322 134.306 264.64 134.521C264.799 134.628 264.932 134.704 265.027 134.755C265.073 134.78 265.111 134.798 265.138 134.811C265.151 134.817 265.162 134.823 265.169 134.827C265.17 134.827 265.171 134.827 265.172 134.828L272.562 138.773L272.827 139.879C272.844 139.95 272.891 140.009 272.955 140.043C273.003 140.067 273.058 140.075 273.111 140.066L273.162 140.052L273.584 139.867C274.531 139.421 275.252 138.862 275.868 138.321C275.869 138.32 275.871 138.32 275.872 138.319L276.05 138.157C276.911 137.344 277.305 136.529 277.274 135.727C277.241 134.877 276.734 134.118 275.977 133.469C274.466 132.172 271.827 131.19 269.225 130.648L269.042 130.603C268.145 130.35 267.443 129.642 266.905 128.606C266.331 127.5 265.961 126.051 265.751 124.483C265.33 121.348 265.554 117.806 265.978 115.757L266.04 115.479C266.676 112.826 268.361 111.198 270.504 110.463L270.954 110.324L271.031 110.288C271.099 110.239 271.141 110.157 271.135 110.069ZM269.705 110.245C267.716 111.124 266.171 112.802 265.558 115.36L265.492 115.656C265.057 117.759 264.83 121.357 265.259 124.549C265.473 126.145 265.852 127.658 266.464 128.835C267.037 129.939 267.83 130.777 268.905 131.081L269.123 131.134C271.699 131.67 274.238 132.631 275.653 133.846C276.359 134.452 276.752 135.092 276.777 135.746C276.802 136.392 276.47 137.128 275.554 137.937C275.552 137.938 275.55 137.939 275.548 137.941L275.547 137.942L275.547 137.943L275.545 137.943C274.918 138.495 274.197 139.046 273.241 139.476L273.018 138.549C273.001 138.48 272.956 138.421 272.894 138.388L265.398 134.385L265.379 134.376C265.378 134.376 265.376 134.375 265.374 134.374C265.37 134.372 265.363 134.369 265.353 134.364C265.333 134.354 265.302 134.339 265.262 134.317C265.181 134.274 265.063 134.205 264.919 134.108C264.63 133.914 264.236 133.604 263.828 133.145C263.015 132.229 262.132 130.711 261.91 128.313L261.829 127.336C261.652 124.923 261.575 121.626 261.883 118.644C262.059 116.938 262.361 115.347 262.836 114.087C263.283 112.899 263.869 112.046 264.609 111.638L264.759 111.562C266.855 110.603 268.311 110.236 269.705 110.245Z" fill="#07303A"/>
<path d="M291.293 117.516C288.894 122.173 289.123 127.873 290.676 133.62C290.751 133.898 290.492 134.151 290.215 134.068C288.781 133.639 285.244 132.633 282.817 132.394C279.71 132.088 277.685 131.654 276.454 127.067C275.3 122.774 275.724 116.481 278.633 113.877C278.985 113.561 279.467 113.436 279.931 113.535C281.713 113.919 286.748 115.098 291.114 117.013C291.308 117.097 291.39 117.329 291.29 117.516L291.292 117.515L291.293 117.516Z" fill="#94B2C9"/>
<path d="M291.527 117.591C291.663 117.283 291.526 116.92 291.213 116.785L291.213 116.786C286.823 114.861 281.769 113.677 279.983 113.292L279.982 113.292L279.779 113.261C279.305 113.217 278.829 113.369 278.469 113.692L278.468 113.692C276.949 115.052 276.102 117.346 275.774 119.806C275.465 122.119 275.607 124.618 276.109 126.717L276.214 127.132C276.837 129.452 277.673 130.773 278.791 131.54C279.76 132.206 280.912 132.432 282.222 132.581L282.793 132.642C285.193 132.877 288.707 133.876 290.144 134.306L290.145 134.305C290.579 134.435 290.987 134.072 290.933 133.642L290.916 133.555C289.37 127.834 289.157 122.207 291.514 117.629L291.527 117.591ZM291.016 117.24C291.077 117.267 291.103 117.341 291.072 117.399L291.216 117.476L291.193 117.464L291.072 117.399C291.068 117.405 291.067 117.412 291.064 117.419C288.634 122.153 288.878 127.918 290.436 133.685L290.441 133.718C290.44 133.783 290.385 133.836 290.319 133.835L290.287 133.83L288.864 133.42C287.144 132.943 284.682 132.328 282.842 132.147L282.273 132.087C280.981 131.94 279.938 131.725 279.073 131.131C278.093 130.458 277.301 129.268 276.693 127.003L276.592 126.6C276.106 124.563 275.965 122.125 276.266 119.871C276.589 117.46 277.409 115.306 278.798 114.062L278.799 114.061C279.09 113.8 279.492 113.696 279.879 113.778L279.88 113.777C281.548 114.137 286.059 115.193 290.194 116.892L291.014 117.24L291.016 117.24L291.107 117.029L291.198 116.821L291.016 117.24Z" fill="#07303A"/>
<path d="M293.262 133.97C293.262 133.97 302.321 138.267 307.34 144.111C307.757 143.789 308.096 143.275 308.301 142.696C309.917 137.649 308.865 132.373 307.934 130.401C306.99 128.403 297.781 121.485 294.756 119.442C294.631 119.358 294.486 119.269 294.327 119.179L293.72 119.481C291.76 124.2 291.728 129.637 293.262 133.97Z" fill="#07303A"/>
<path d="M307.404 129.273C307.05 128.881 306.594 128.434 306.07 127.95C305.02 126.983 303.681 125.863 302.28 124.744C299.478 122.506 296.415 120.262 294.896 119.236L294.798 119.38L294.853 119.299L294.896 119.236L294.894 119.236L294.684 119.101C294.61 119.055 294.531 119.009 294.449 118.963C294.395 118.933 294.333 118.924 294.274 118.937L294.217 118.957L293.609 119.259C293.556 119.286 293.513 119.331 293.49 119.386L293.719 119.481L293.72 119.482L293.49 119.386C291.507 124.162 291.474 129.663 293.029 134.053L293.049 134.097C293.066 134.125 293.088 134.149 293.114 134.169L293.157 134.194L293.157 134.195C293.158 134.195 293.16 134.196 293.162 134.197C293.166 134.199 293.173 134.202 293.181 134.206C293.198 134.215 293.224 134.226 293.257 134.242C293.324 134.275 293.423 134.324 293.551 134.388C293.807 134.516 294.178 134.706 294.639 134.952C295.563 135.444 296.847 136.161 298.288 137.059C300.992 138.747 304.233 141.067 306.675 143.735L307.152 144.272L307.186 144.306C307.261 144.365 307.365 144.376 307.451 144.333L307.491 144.307L307.661 144.164C308.044 143.809 308.345 143.314 308.535 142.779L308.538 142.772L308.683 142.291C309.373 139.885 309.488 137.458 309.32 135.376C309.141 133.159 308.64 131.315 308.158 130.295L308.102 130.185C307.955 129.922 307.711 129.612 307.404 129.273ZM307.037 129.607C307.382 129.988 307.609 130.293 307.71 130.507L307.709 130.507C308.158 131.459 308.649 133.24 308.824 135.415C309 137.588 308.86 140.135 308.064 142.62C307.902 143.075 307.655 143.475 307.362 143.761C304.841 140.891 301.388 138.409 298.551 136.638C297.099 135.732 295.805 135.009 294.873 134.513C294.407 134.265 294.032 134.074 293.773 133.944C293.643 133.879 293.542 133.829 293.474 133.796C293.471 133.794 293.468 133.792 293.465 133.791C291.993 129.557 292.028 124.269 293.915 119.662L294.318 119.462C294.427 119.526 294.528 119.587 294.618 119.647L294.617 119.648C296.123 120.665 299.176 122.9 301.97 125.132C303.367 126.247 304.696 127.36 305.733 128.316C306.252 128.794 306.696 129.23 307.037 129.607Z" fill="#07303A"/>
<path d="M270.448 125.728C269.241 119.021 269.687 117.153 272.117 112.089L272.208 112.132C269.75 117.253 269.337 118.987 270.546 125.71L270.446 125.728L270.447 125.727L270.448 125.728Z" fill="#94B2C9"/>
<path d="M272.443 112.05C272.421 111.988 272.375 111.936 272.316 111.908L272.225 111.864L272.119 112.089L272.118 112.088L272.225 111.864C272.101 111.805 271.952 111.858 271.893 111.981L271.46 112.897C270.501 114.959 269.908 116.526 269.672 118.258C269.403 120.233 269.599 122.403 270.2 125.749C270.203 125.778 270.208 125.807 270.221 125.835C270.242 125.878 270.276 125.91 270.314 125.934C270.317 125.937 270.32 125.94 270.324 125.942C270.345 125.954 270.366 125.962 270.389 125.967C270.392 125.968 270.394 125.969 270.397 125.97C270.414 125.973 270.431 125.973 270.449 125.972C270.461 125.972 270.472 125.973 270.483 125.972L270.49 125.972L270.591 125.954C270.725 125.93 270.814 125.801 270.79 125.666L270.583 124.465C270.145 121.791 270.026 119.992 270.248 118.353C270.502 116.482 271.204 114.8 272.433 112.24L272.449 112.194C272.461 112.147 272.459 112.096 272.443 112.05Z" fill="#07303A"/>
<path d="M270.53 125.72C269.322 119.013 269.768 117.145 272.199 112.081L272.29 112.124C269.831 117.245 269.418 118.98 270.627 125.702L270.527 125.72L270.53 125.72Z" fill="#2B545E"/>
<path d="M272.524 112.042C272.502 111.98 272.457 111.929 272.397 111.9L272.306 111.857L272.2 112.081L272.2 112.081L272.306 111.857C272.183 111.798 272.034 111.85 271.975 111.974L271.542 112.889C270.583 114.951 269.99 116.518 269.754 118.251C269.484 120.226 269.68 122.397 270.281 125.744C270.282 125.754 270.283 125.764 270.285 125.774C270.31 125.888 270.41 125.967 270.523 125.969L270.572 125.965L270.672 125.947C270.807 125.922 270.895 125.793 270.871 125.658L270.664 124.457C270.226 121.784 270.107 119.985 270.329 118.346C270.583 116.474 271.285 114.792 272.514 112.232L272.53 112.186C272.542 112.139 272.54 112.089 272.524 112.042Z" fill="#07303A"/>
<path d="M273.568 134.214C275.475 135.476 275.37 137.329 273.338 138.346C271.305 139.368 268.111 139.17 266.204 137.908C264.297 136.647 264.4 134.794 266.437 133.775C268.47 132.754 271.664 132.952 273.57 134.214L273.569 134.215L273.568 134.214Z" fill="#94B2C9"/>
<path d="M275.178 136.386C275.226 135.525 274.709 134.68 273.726 134.023L273.708 134.006L273.517 133.886C272.544 133.3 271.307 132.966 270.066 132.89C268.744 132.808 267.391 133.018 266.326 133.553L266.131 133.655C265.185 134.184 264.639 134.923 264.594 135.736C264.545 136.603 265.07 137.456 266.067 138.115C267.065 138.775 268.385 139.149 269.708 139.231C270.948 139.308 272.215 139.128 273.246 138.665L273.449 138.568C274.512 138.036 275.129 137.253 275.178 136.386ZM273.431 134.422C274.341 135.023 274.717 135.728 274.682 136.357C274.647 136.986 274.194 137.639 273.226 138.124L273.042 138.212C272.101 138.635 270.919 138.808 269.739 138.736C268.48 138.658 267.249 138.302 266.341 137.701C265.431 137.099 265.054 136.394 265.089 135.765C265.125 135.136 265.577 134.483 266.547 133.997L266.425 133.75L266.47 133.838L266.547 133.997L266.549 133.997L266.733 133.909C267.674 133.486 268.855 133.313 270.036 133.386C271.286 133.463 272.507 133.814 273.414 134.408C273.42 134.412 273.426 134.416 273.432 134.42L273.431 134.422Z" fill="#07303A"/>
<path d="M298.067 150.701C299.974 151.963 299.868 153.816 297.836 154.834C295.803 155.855 292.609 155.657 290.703 154.395C288.796 153.134 288.899 151.281 290.936 150.262C292.969 149.241 296.163 149.439 298.069 150.701L298.067 150.701Z" fill="#94B2C9"/>
<path d="M299.676 152.873C299.725 152.011 299.206 151.165 298.221 150.507L298.207 150.493L298.015 150.373C297.043 149.788 295.806 149.453 294.565 149.377C293.242 149.295 291.89 149.505 290.825 150.04L290.63 150.143C289.684 150.671 289.138 151.41 289.092 152.223C289.044 153.091 289.569 153.943 290.565 154.602C291.563 155.263 292.884 155.637 294.207 155.718C295.447 155.795 296.714 155.616 297.745 155.152L297.948 155.056C299.011 154.523 299.628 153.741 299.676 152.873ZM298.095 151.022C298.885 151.598 299.214 152.255 299.181 152.844C299.145 153.473 298.693 154.126 297.725 154.612L297.54 154.7C296.6 155.122 295.418 155.295 294.238 155.223C292.979 155.145 291.748 154.789 290.84 154.188C289.93 153.586 289.553 152.881 289.588 152.252C289.623 151.624 290.076 150.97 291.046 150.484L290.924 150.238L290.969 150.326L291.046 150.484L291.048 150.484L291.232 150.396C292.173 149.973 293.354 149.8 294.535 149.873C295.788 149.95 297.013 150.303 297.92 150.899L297.93 150.909L298.095 151.022Z" fill="#07303A"/>
<path d="M282.916 146.261L282.818 146.198L287.972 143.63C288.699 143.269 289.627 142.542 289.942 141.81L290.035 141.851C289.711 142.607 288.761 143.353 288.018 143.723L282.917 146.263L282.915 146.262L282.916 146.261Z" fill="#94B2C9"/>
<path d="M290.179 141.648L290.135 141.624L290.043 141.583L289.944 141.81L289.942 141.81L290.043 141.583C289.982 141.557 289.913 141.555 289.852 141.58C289.79 141.604 289.741 141.651 289.715 141.712C289.577 142.03 289.296 142.366 288.947 142.672C288.601 142.976 288.205 143.237 287.861 143.408L282.707 145.975C282.627 146.015 282.575 146.095 282.57 146.184C282.565 146.273 282.608 146.359 282.683 146.407L282.781 146.469C282.831 146.502 282.889 146.517 282.948 146.51L283.027 146.486L288.129 143.945C288.519 143.75 288.961 143.46 289.348 143.119C289.732 142.78 290.081 142.374 290.263 141.948C290.31 141.839 290.272 141.714 290.179 141.648Z" fill="#07303A"/>
<path d="M282.997 146.314L282.899 146.25L288.014 143.703C288.741 143.341 289.668 142.614 289.984 141.883L290.076 141.923C289.753 142.679 288.803 143.425 288.06 143.795L282.998 146.317L282.997 146.315L282.997 146.314Z" fill="#2B545E"/>
<path d="M290.22 141.72L290.177 141.696L290.084 141.656L289.985 141.883L289.984 141.883L290.084 141.656C290.024 141.629 289.955 141.628 289.893 141.652C289.832 141.676 289.782 141.724 289.756 141.784C289.619 142.102 289.338 142.438 288.989 142.745C288.643 143.049 288.247 143.309 287.903 143.48L282.788 146.028L282.734 146.064C282.685 146.108 282.655 146.17 282.651 146.237C282.647 146.304 282.671 146.368 282.714 146.416L282.764 146.459L282.862 146.523L282.863 146.522C282.935 146.57 283.028 146.579 283.109 146.539L288.17 144.017C288.561 143.823 289.003 143.532 289.39 143.191C289.774 142.852 290.122 142.447 290.305 142.021C290.352 141.911 290.314 141.787 290.22 141.72Z" fill="#07303A"/>
<path d="M289.009 150.246L288.911 150.183C291.204 149.04 293.408 148.568 295.351 148.833C295.57 148.862 295.788 148.828 295.979 148.733L298.876 147.29C299.81 146.825 299.871 146.091 299.873 146.084L299.973 146.091C299.972 146.124 299.912 146.889 298.922 147.382L296.024 148.825C295.815 148.929 295.578 148.967 295.338 148.935C293.415 148.672 291.284 149.116 289.009 150.249L289.007 150.247L289.009 150.246Z" fill="#94B2C9"/>
<path d="M300.218 146.05C300.2 145.94 300.108 145.852 299.992 145.844L299.89 145.836L299.874 146.084L299.634 146.017C299.631 146.027 299.629 146.034 299.629 146.037L299.626 146.052L299.625 146.061C299.625 146.065 299.624 146.071 299.623 146.078C299.62 146.093 299.616 146.116 299.608 146.146C299.591 146.207 299.561 146.295 299.506 146.396C299.396 146.597 299.184 146.859 298.765 147.068L295.868 148.511L295.757 148.556C295.641 148.593 295.514 148.604 295.385 148.587C293.378 148.314 291.123 148.803 288.8 149.96C288.72 150 288.667 150.08 288.662 150.169C288.657 150.258 288.701 150.343 288.776 150.391L288.865 150.449C288.939 150.501 289.035 150.512 289.119 150.471C291.364 149.353 293.444 148.926 295.304 149.18L295.305 149.18L295.338 148.934L295.348 148.862L295.305 149.18C295.557 149.214 295.808 149.185 296.038 149.091L296.135 149.047L299.032 147.604C300.128 147.058 300.219 146.192 300.222 146.099L300.218 146.05ZM299.89 145.836C299.773 145.828 299.666 145.904 299.634 146.017L299.872 146.084L299.89 145.836Z" fill="#07303A"/>
<path d="M289.063 150.284L288.965 150.221C291.258 149.078 293.434 148.62 295.376 148.886C295.594 148.915 295.812 148.881 296.003 148.786L298.901 147.344C299.834 146.878 299.895 146.145 299.897 146.138L299.998 146.145C299.997 146.177 299.936 146.942 298.946 147.435L296.049 148.878C295.84 148.982 295.603 149.02 295.362 148.988C293.44 148.725 291.338 149.154 289.063 150.288L289.062 150.286L289.063 150.284Z" fill="#2B545E"/>
<path d="M300.243 146.104C300.224 145.993 300.132 145.905 300.016 145.897L299.915 145.89L299.898 146.138L299.658 146.071C299.655 146.08 299.654 146.088 299.653 146.09L299.651 146.105L299.65 146.115C299.649 146.118 299.648 146.124 299.647 146.131C299.645 146.146 299.639 146.17 299.631 146.2C299.615 146.261 299.585 146.349 299.53 146.45C299.421 146.65 299.208 146.912 298.79 147.121L295.893 148.564L295.781 148.609C295.665 148.646 295.538 148.657 295.41 148.64L295.031 148.598C293.126 148.428 291.033 148.913 288.854 149.999L288.966 150.222L288.955 150.237L288.964 150.221L288.854 149.999C288.774 150.038 288.722 150.118 288.717 150.207C288.712 150.296 288.755 150.381 288.83 150.43L288.919 150.487C288.993 150.54 289.09 150.552 289.174 150.51C291.417 149.392 293.468 148.98 295.328 149.234L295.33 149.234L295.362 148.988L295.372 148.915L295.33 149.234C295.581 149.268 295.833 149.238 296.063 149.145L296.16 149.1L299.056 147.657C300.152 147.112 300.243 146.246 300.246 146.153L300.243 146.104ZM299.915 145.89C299.797 145.881 299.69 145.957 299.658 146.071L299.897 146.138L299.915 145.89Z" fill="#07303A"/>
<path d="M308.775 145.723C308.775 145.723 308.237 145.767 307.243 145.559C306.514 145.405 305.783 145.832 305.582 146.549C305.292 147.593 305.168 149.091 306.182 150.366C306.691 151.006 307.315 151.597 307.315 151.597C307.315 151.597 308.355 148.571 308.777 145.722L308.775 145.723Z" fill="#07303A"/>
<path d="M308.897 145.504C308.85 145.479 308.798 145.47 308.748 145.476C308.745 145.476 308.742 145.476 308.738 145.477C308.724 145.477 308.703 145.478 308.673 145.478C308.613 145.479 308.52 145.478 308.397 145.471C308.15 145.456 307.779 145.417 307.294 145.316L307.134 145.289C306.336 145.199 305.565 145.688 305.343 146.482L305.821 146.616C305.975 146.066 306.513 145.719 307.078 145.783L307.192 145.801C307.701 145.908 308.096 145.951 308.367 145.967C308.41 145.969 308.45 145.969 308.486 145.971C308.273 147.29 307.939 148.628 307.648 149.661C307.493 150.214 307.351 150.678 307.247 151.004C307.232 151.051 307.219 151.095 307.206 151.136C307.178 151.108 307.148 151.08 307.118 151.049C306.902 150.824 306.624 150.523 306.377 150.211L306.212 149.987C305.449 148.853 305.558 147.563 305.821 146.616L305.582 146.549L305.343 146.482L305.342 146.483C305.043 147.559 304.902 149.154 305.989 150.52L305.987 150.52C306.248 150.849 306.538 151.163 306.76 151.393C306.872 151.509 306.967 151.605 307.035 151.671C307.069 151.704 307.095 151.731 307.114 151.749C307.123 151.758 307.131 151.765 307.136 151.77C307.138 151.772 307.14 151.774 307.142 151.775L307.144 151.776L307.144 151.777C307.206 151.835 307.292 151.858 307.374 151.838C307.456 151.817 307.522 151.757 307.55 151.677L307.551 151.675C307.551 151.673 307.552 151.671 307.553 151.668L307.596 151.538C307.626 151.449 307.669 151.319 307.721 151.154C307.826 150.824 307.97 150.354 308.127 149.795C308.441 148.678 308.809 147.197 309.022 145.758C309.037 145.656 308.987 145.554 308.897 145.504Z" fill="#07303A"/>
<path d="M279.121 104.296C262.082 104.296 248.288 112.41 248.288 122.35C248.288 132.29 262.082 140.404 279.121 140.404C296.16 140.404 309.954 132.29 309.954 122.35C309.954 112.41 295.957 104.296 279.121 104.296ZM279.121 136.955C264.313 136.955 252.345 130.464 252.345 122.35C252.345 114.236 264.313 107.745 279.121 107.745C293.929 107.745 305.897 114.236 305.897 122.35C305.897 130.464 293.929 136.955 279.121 136.955Z" fill="#94B2C9"/>
<path d="M309.706 122.35C309.705 117.506 306.293 113.059 300.726 109.81C295.166 106.564 287.502 104.544 279.121 104.544C270.637 104.544 262.974 106.565 257.44 109.81C251.9 113.058 248.536 117.504 248.536 122.35C248.536 127.195 251.9 131.642 257.44 134.891C262.974 138.136 270.637 140.155 279.121 140.155C287.604 140.155 295.267 138.136 300.801 134.891C306.341 131.642 309.706 127.195 309.706 122.35ZM305.649 122.35C305.649 118.426 302.751 114.841 297.943 112.223C293.143 109.609 286.492 107.993 279.121 107.993C271.75 107.993 265.098 109.609 260.298 112.223C255.49 114.841 252.593 118.426 252.593 122.35C252.593 126.274 255.49 129.859 260.298 132.478C265.098 135.091 271.75 136.707 279.121 136.707C286.491 136.707 293.143 135.091 297.943 132.478C302.752 129.859 305.649 126.274 305.649 122.35ZM306.145 122.35C306.145 126.54 303.058 130.257 298.18 132.913C293.294 135.574 286.558 137.203 279.121 137.203C271.684 137.203 264.947 135.574 260.061 132.913C255.184 130.257 252.096 126.54 252.096 122.35C252.096 118.16 255.184 114.442 260.061 111.786C264.947 109.126 271.684 107.496 279.121 107.496C286.557 107.496 293.294 109.126 298.18 111.786C303.057 114.442 306.145 118.16 306.145 122.35ZM310.203 122.35C310.203 127.444 306.669 132.025 301.052 135.318C295.43 138.615 287.676 140.652 279.121 140.652C270.565 140.652 262.812 138.615 257.189 135.318C251.572 132.025 248.04 127.444 248.04 122.35C248.04 117.255 251.572 112.674 257.189 109.381C262.812 106.084 270.565 104.048 279.121 104.048C287.575 104.048 295.329 106.084 300.976 109.381C306.617 112.673 310.202 117.254 310.203 122.35Z" fill="#07303A"/>
<path d="M248.288 122.553C248.288 132.493 262.082 140.607 279.121 140.607C296.16 140.607 309.954 132.493 309.954 122.553V129.45C309.954 139.39 296.16 147.504 279.121 147.504C262.082 147.504 248.288 139.39 248.288 129.45V122.553Z" fill="#2B545E"/>
<path d="M309.706 125.83C308.549 129.599 305.434 132.952 301.052 135.522C295.43 138.819 287.676 140.856 279.121 140.856C270.565 140.856 262.812 138.819 257.189 135.522C252.806 132.952 249.692 129.597 248.536 125.827V129.451C248.536 134.296 251.9 138.742 257.44 141.991C262.974 145.236 270.637 147.256 279.121 147.256C287.604 147.256 295.267 145.236 300.801 141.991C306.341 138.742 309.705 134.296 309.706 129.451V125.83ZM310.203 129.451C310.202 134.545 306.669 139.126 301.052 142.419C295.43 145.716 287.676 147.752 279.121 147.752C270.565 147.752 262.812 145.716 257.189 142.419C251.573 139.126 248.04 134.545 248.04 129.451V122.553C248.04 122.416 248.15 122.305 248.288 122.305C248.408 122.305 248.508 122.39 248.531 122.503L248.536 122.553L248.545 123.006C248.748 127.675 252.073 131.946 257.44 135.093C262.974 138.338 270.637 140.359 279.121 140.359C287.604 140.359 295.267 138.338 300.801 135.093C306.341 131.845 309.706 127.399 309.706 122.553C309.706 122.416 309.817 122.305 309.954 122.305C310.074 122.305 310.174 122.39 310.197 122.503L310.203 122.553V129.451Z" fill="#07303A"/>
<g clip-path="url(#clip0_9503_7704)">
<path d="M199.205 137.382C200.338 134.886 199.232 131.944 196.736 130.812C194.24 129.679 191.299 130.784 190.166 133.28L179.831 156.055L158.488 150.559C155.833 149.875 153.127 151.473 152.444 154.127C151.76 156.781 153.358 159.487 156.012 160.171L175.667 165.233L165.162 188.382C164.029 190.878 165.134 193.82 167.63 194.953C170.126 196.085 173.068 194.98 174.2 192.484L185.426 167.746L206.911 173.279C209.565 173.963 212.271 172.365 212.955 169.711C213.638 167.056 212.041 164.351 209.386 163.667L189.591 158.569L199.205 137.382Z" fill="#F35F5F"/>
<path d="M189.833 132.821C191.159 130.253 194.281 129.148 196.943 130.356L197.196 130.479C199.764 131.805 200.868 134.927 199.661 137.589L190.291 158.232L209.511 163.182C212.433 163.935 214.191 166.914 213.439 169.836C212.686 172.757 209.707 174.516 206.786 173.763L185.708 168.335L174.656 192.691C173.409 195.438 170.171 196.655 167.423 195.408C164.676 194.161 163.46 190.923 164.707 188.176L174.965 165.568L155.887 160.655C152.966 159.903 151.207 156.924 151.959 154.003L152.037 153.732C152.898 150.973 155.781 149.345 158.612 150.074L179.548 155.466L189.71 133.074L189.833 132.821ZM196.53 131.267C194.355 130.281 191.804 131.182 190.721 133.28L190.622 133.487L180.287 156.262L180.243 156.34C180.126 156.509 179.912 156.593 179.707 156.54L179.832 156.055H179.831L179.707 156.54L158.363 151.043C156.05 150.447 153.694 151.777 152.991 154.031L152.928 154.252C152.314 156.639 153.75 159.072 156.137 159.686L175.792 164.749C175.934 164.786 176.054 164.883 176.118 165.016C176.181 165.15 176.183 165.305 176.122 165.439L165.617 188.589C164.598 190.833 165.592 193.479 167.836 194.498C170.081 195.516 172.726 194.522 173.745 192.277L184.971 167.54L185.425 167.746H185.426L184.971 167.54C185.071 167.319 185.315 167.201 185.55 167.261L207.036 172.795C209.423 173.409 211.856 171.973 212.47 169.586C213.085 167.199 211.648 164.766 209.261 164.151L189.466 159.053L189.59 158.568L189.135 158.362L198.75 137.176C199.736 135.001 198.835 132.45 196.737 131.367L196.53 131.267ZM189.59 158.569L189.466 159.053C189.323 159.017 189.203 158.918 189.139 158.785C189.075 158.652 189.074 158.497 189.135 158.362L189.59 158.569Z" fill="#07303A"/>
</g>
<defs>
<clipPath id="clip0_9503_7704">
<rect width="68.7063" height="74.2943" fill="white" transform="translate(145.079 125.372)"/>
</clipPath>
</defs>
</svg>
