<svg width="411" height="300" viewBox="0 0 411 300" fill="none" xmlns="http://www.w3.org/2000/svg">
<path d="M101.993 150C101.993 206.885 148.22 253 205.244 253C262.268 253 308.495 206.885 308.495 150C308.495 93.1147 262.268 47 205.244 47C148.22 47 101.993 93.1147 101.993 150Z" fill="#C8DAE8"/>
<path d="M102.429 150C102.429 93.3567 148.46 47.4365 205.244 47.4365C262.028 47.4367 308.059 93.3568 308.059 150C308.059 206.643 262.028 252.563 205.244 252.563V253L206.578 252.991C262.543 252.284 307.778 207.16 308.486 151.331L308.495 150C308.495 93.1148 262.268 47.0001 205.244 47L203.909 47.0088C147.5 47.7217 101.993 93.5592 101.993 150L102.001 151.331C102.715 207.603 148.665 253 205.244 253V252.563C148.46 252.563 102.429 206.643 102.429 150Z" fill="#155C6D"/>
<mask id="mask0_2530_11358" style="mask-type:alpha" maskUnits="userSpaceOnUse" x="101" y="47" width="208" height="206">
<path d="M205.244 47.2178C148.34 47.2178 102.211 93.2357 102.211 150C102.211 206.764 148.34 252.782 205.244 252.782C262.148 252.782 308.277 206.764 308.277 150C308.277 93.2358 262.148 47.2179 205.244 47.2178Z" fill="#D9D9D9" stroke="#0B4D5E" stroke-width="0.436441"/>
</mask>
<g mask="url(#mask0_2530_11358)">
<path d="M271.128 215.353C289.544 224.921 304.974 239.348 315.739 257.061C326.503 274.774 332.189 295.094 332.177 315.809H78.0853C78.0882 295.093 83.7917 274.776 94.5741 257.072C105.356 239.368 120.804 224.957 139.232 215.41C154.59 224.059 178.471 229.555 205.283 229.555C232.094 229.555 255.885 224.091 271.276 215.442" fill="#70C5AD"/>
<path d="M139.232 215.409C120.804 224.956 105.357 239.368 94.5742 257.072C83.7919 274.776 78.0878 295.093 78.0849 315.809H332.177C332.189 295.418 326.68 275.409 316.24 257.893L315.739 257.061C305.143 239.624 290.025 225.373 271.989 215.805L271.275 215.442C256.125 223.956 232.835 229.383 206.537 229.551L205.282 229.555C178.471 229.555 154.591 224.058 139.232 215.409ZM139.226 215.905C154.676 224.535 178.542 229.991 205.282 229.991C232.029 229.991 255.812 224.565 271.293 215.932C289.476 225.464 304.715 239.76 315.366 257.287C326.014 274.808 331.671 294.889 331.738 315.372H78.5234C78.6058 294.888 84.2823 274.81 94.9473 257.299C105.647 239.73 120.96 225.416 139.226 215.905Z" fill="#155C6D"/>
<path d="M268.913 315.777H78.0807C78.0836 295.061 83.7871 274.744 94.5694 257.04C105.352 239.336 120.799 224.925 139.227 215.378C154.586 224.027 178.466 229.523 205.278 229.523C231.123 229.523 254.226 224.452 269.609 216.342C278.45 229.668 284.827 244.467 288.439 260.036C288.983 262.45 288.94 264.958 288.315 267.352C287.69 269.746 286.5 271.956 284.845 273.798C274.605 285.399 268.942 300.319 268.913 315.777Z" fill="#155C6D"/>
<path d="M139.227 215.378C120.799 224.925 105.352 239.336 94.5692 257.04C83.787 274.744 78.0839 295.061 78.0809 315.776H268.913C268.942 300.319 274.605 285.399 284.845 273.798C286.396 272.071 287.539 270.021 288.191 267.799L288.314 267.352C288.9 265.107 288.975 262.762 288.534 260.489L288.438 260.036C284.827 244.467 278.45 229.669 269.609 216.342C254.707 224.198 232.559 229.204 207.692 229.509L205.278 229.523C178.467 229.523 154.586 224.027 139.227 215.378ZM139.223 215.873C154.673 224.503 178.539 229.96 205.278 229.96C230.976 229.96 253.999 224.955 269.461 216.91C278.16 230.107 284.443 244.741 288.014 260.131L288.013 260.132C288.541 262.477 288.5 264.915 287.892 267.241C287.323 269.422 286.271 271.446 284.816 273.166L284.52 273.506L284.517 273.509L284.037 274.059C274.125 285.549 268.612 300.175 268.48 315.341H78.5194C78.6017 294.857 84.2773 274.779 94.9423 257.268C105.643 239.698 120.956 225.384 139.223 215.873Z" fill="#155C6D"/>
<path d="M143.547 201.02C157.882 209.089 180.125 214.177 205.144 214.177C230.163 214.177 252.389 209.089 266.724 201.028V135.535C266.818 127.411 265.295 119.349 262.244 111.816C259.192 104.282 254.673 97.4282 248.947 91.6499C243.221 85.8716 236.403 81.2842 228.888 78.1533C221.372 75.0223 213.309 73.4102 205.164 73.4102C197.02 73.4102 188.956 75.0223 181.441 78.1533C173.925 81.2842 167.107 85.8716 161.382 91.6499C155.656 97.4282 151.136 104.282 148.085 111.816C145.033 119.349 143.51 127.411 143.604 135.535L143.547 201.02Z" fill="#70C5AD"/>
<path d="M204.396 72.9785C196.455 73.0767 188.605 74.6956 181.273 77.75C173.705 80.9031 166.838 85.5235 161.071 91.3428C155.305 97.1619 150.754 104.065 147.681 111.651C144.607 119.238 143.073 127.358 143.168 135.54L143.11 201.274L143.333 201.4C157.754 209.518 180.078 214.613 205.144 214.613C229.818 214.613 251.82 209.675 266.257 201.786L266.938 201.408L267.161 201.283V135.54L267.165 134.773C267.158 126.851 265.626 119.001 262.648 111.651C259.575 104.065 255.023 97.162 249.257 91.3428C243.491 85.5235 236.624 80.9031 229.056 77.75C221.487 74.5969 213.366 72.9736 205.164 72.9736L204.396 72.9785ZM205.164 73.4102C213.308 73.4102 221.372 75.0224 228.888 78.1533L229.59 78.4512C236.828 81.5722 243.4 86.0526 248.947 91.6504L249.48 92.1943C254.954 97.8568 259.288 104.518 262.244 111.815L262.525 112.523C265.389 119.853 266.816 127.665 266.725 135.535V201.027C252.838 208.836 231.544 213.856 207.481 214.162L205.144 214.177C180.125 214.177 157.882 209.089 143.547 201.02L143.604 135.535C143.514 127.665 144.94 119.853 147.804 112.523L148.085 111.815C151.041 104.518 155.375 97.8568 160.849 92.1943L161.382 91.6504C166.929 86.0527 173.5 81.5722 180.738 78.4512L181.44 78.1533C188.721 75.1202 196.517 73.5125 204.401 73.415L205.164 73.4102Z" fill="#155C6D"/>
<path d="M152.354 135.258C152.354 94.2101 257.963 94.8717 257.963 135.258V150.776C257.963 164.747 252.4 178.146 242.497 188.025C232.594 197.904 219.163 203.454 205.159 203.454C191.154 203.454 177.723 197.904 167.82 188.025C157.917 178.146 152.354 164.747 152.354 150.776V135.258Z" fill="#155C6D"/>
<path d="M152.354 135.257C152.355 94.2098 257.962 94.8713 257.963 135.257V150.775L257.959 151.43C257.788 165.164 252.245 178.299 242.497 188.024C232.749 197.749 219.582 203.279 205.814 203.45L205.158 203.454C191.372 203.454 178.143 198.075 168.287 188.484L167.82 188.024C158.073 178.299 152.529 165.164 152.358 151.43L152.354 150.775V135.257ZM151.045 150.775C151.045 165.094 156.747 178.827 166.896 188.952C177.044 199.076 190.808 204.763 205.158 204.763C219.509 204.763 233.273 199.076 243.422 188.952C253.57 178.827 259.272 165.094 259.272 150.775V135.257C259.272 124.48 252.197 116.505 242.062 111.284C231.926 106.063 218.506 103.453 205.163 103.411C191.821 103.369 178.397 105.895 168.258 111.096C158.111 116.301 151.045 124.321 151.045 135.257V150.775Z" fill="#155C6D"/>
<path d="M141.17 211.662C156.013 220.008 179.157 225.317 205.133 225.317C231.11 225.317 254.253 220.009 269.112 211.67L267.409 204.687C252.919 212.854 230.422 217.975 205.149 217.975C179.877 217.975 157.364 212.838 142.873 204.679L141.17 211.662Z" fill="#70C5AD"/>
<path d="M141.17 211.662L141.872 212.051C156.737 220.173 179.562 225.317 205.133 225.317V224.881C179.372 224.881 156.441 219.647 141.673 211.44L143.162 205.337C157.752 213.381 180.118 218.411 205.149 218.411C230.181 218.411 252.532 213.398 267.122 205.346L268.61 211.448C253.826 219.647 230.894 224.881 205.133 224.881V225.317L206.349 225.313C231.426 225.153 253.766 220.044 268.41 212.059L269.112 211.67L267.409 204.687C253.372 212.598 231.82 217.652 207.511 217.96L205.149 217.975C179.877 217.975 157.364 212.838 142.873 204.679L141.17 211.662Z" fill="#155C6D"/>
<path d="M142.864 204.679C157.355 212.846 179.844 217.975 205.141 217.975C211.98 217.982 218.813 217.595 225.607 216.815C240.27 220.531 255.804 218.484 268.997 211.098L269.128 211.645C254.244 220.008 231.109 225.317 205.124 225.317C179.139 225.317 156.004 220.041 141.145 211.662L142.864 204.679Z" fill="#155C6D"/>
<path d="M141.145 211.662L141.848 212.052C156.728 220.204 179.545 225.317 205.124 225.317V224.881C179.355 224.881 156.432 219.679 141.648 211.441L143.152 205.337C157.742 213.389 180.085 218.41 205.141 218.41C211.97 218.418 218.794 218.033 225.579 217.257C236.202 219.933 247.274 219.61 257.596 216.443C243.477 221.716 225.16 224.881 205.124 224.881V225.317L206.34 225.313C231.425 225.153 253.757 220.044 268.424 212.035L269.128 211.646L268.997 211.098C255.804 218.484 240.27 220.531 225.607 216.815C218.813 217.596 211.98 217.982 205.141 217.975C179.844 217.975 157.355 212.846 142.864 204.679L141.145 211.662Z" fill="#155C6D"/>
<path d="M241.818 159.956C241.817 169.059 238.417 177.836 232.281 184.573C226.145 191.311 217.713 195.527 208.629 196.398V186.777C208.628 186.706 208.642 186.636 208.671 186.571C208.699 186.507 208.741 186.449 208.793 186.401C209.317 185.903 211.028 184.294 212.174 183.257C212.255 183.188 212.313 183.096 212.34 182.993C212.366 182.89 212.36 182.782 212.323 182.683C212.285 182.583 212.217 182.498 212.129 182.439C212.041 182.379 211.937 182.348 211.83 182.35H202.416C201.748 182.351 201.087 182.221 200.471 181.967C199.854 181.713 199.293 181.34 198.821 180.87C198.349 180.4 197.974 179.841 197.719 179.226C197.463 178.611 197.332 177.952 197.332 177.287H220.811L222.956 180.554V174.485L220.77 176.658L214.982 173.775C213.952 173.26 212.787 173.076 211.648 173.249C210.509 173.422 209.452 173.942 208.621 174.738V167.053H217.258V164.701C217.259 164.396 217.178 164.097 217.025 163.834C216.871 163.571 216.65 163.353 216.384 163.203C216.118 163.054 215.817 162.977 215.511 162.982C215.206 162.987 214.908 163.073 214.647 163.231L214.106 163.558C212.43 164.578 210.503 165.118 208.539 165.118V141.719H209.456C210.19 141.719 210.894 142.01 211.413 142.527C211.932 143.045 212.223 143.747 212.223 144.479C212.223 145.716 212.716 146.902 213.592 147.777C214.469 148.651 215.658 149.143 216.898 149.143H230.905C233.782 149.143 236.542 150.281 238.579 152.308C240.615 154.336 241.763 157.086 241.769 159.956" fill="#C8DAE8"/>
<path d="M212.224 144.479C212.224 143.839 212 143.221 211.597 142.729L211.413 142.527C210.959 142.074 210.363 141.795 209.729 141.732L209.456 141.719H208.539V165.117L208.907 165.111C210.743 165.049 212.535 164.514 214.106 163.558L214.646 163.231C214.875 163.093 215.132 163.009 215.397 162.987L215.512 162.982C215.817 162.978 216.118 163.054 216.384 163.203L216.481 163.263C216.704 163.408 216.89 163.604 217.024 163.834L217.079 163.935C217.197 164.172 217.258 164.435 217.258 164.701V167.054H208.621V174.738C209.4 173.991 210.378 173.487 211.436 173.285L211.648 173.249C212.787 173.076 213.952 173.26 214.982 173.774L220.771 176.658L222.956 174.485V180.554L220.812 177.287H197.332C197.332 177.953 197.463 178.612 197.719 179.227L197.82 179.454C198.07 179.979 198.408 180.459 198.821 180.87L199.002 181.042C199.434 181.432 199.931 181.745 200.471 181.967L200.704 182.057C201.175 182.224 201.667 182.321 202.166 182.345L202.416 182.351H211.83L211.909 182.354C211.988 182.365 212.063 182.394 212.129 182.438L212.191 182.488C212.249 182.542 212.294 182.608 212.322 182.683L212.345 182.759C212.361 182.836 212.36 182.916 212.34 182.993C212.313 183.096 212.255 183.188 212.174 183.257C211.028 184.294 209.317 185.903 208.793 186.401C208.741 186.449 208.699 186.507 208.671 186.571C208.643 186.636 208.628 186.707 208.629 186.777V196.397C217.428 195.554 225.617 191.571 231.699 185.197L232.281 184.573C238.226 178.046 241.603 169.606 241.809 160.809L241.77 159.956C241.763 157.265 240.755 154.679 238.95 152.696L238.579 152.309C236.67 150.408 234.125 149.289 231.443 149.156L230.905 149.143H216.898L216.666 149.137C215.588 149.083 214.561 148.659 213.761 147.937L213.593 147.776C212.771 146.957 212.287 145.863 212.229 144.711L212.224 144.479ZM211.787 144.479C211.787 145.832 212.326 147.13 213.284 148.086C214.183 148.982 215.382 149.511 216.645 149.573L216.898 149.579H230.905C233.667 149.579 236.316 150.672 238.271 152.617C240.225 154.563 241.327 157.203 241.333 159.957L241.382 159.956C241.381 168.95 238.021 177.622 231.958 184.279C226.003 190.818 217.858 194.95 209.065 195.911V186.771L209.071 186.746C209.075 186.738 209.079 186.731 209.086 186.725L209.094 186.718C209.617 186.221 211.324 184.614 212.467 183.58C212.611 183.454 212.715 183.288 212.763 183.103C212.812 182.912 212.8 182.712 212.73 182.528C212.661 182.345 212.536 182.187 212.374 182.077C212.214 181.969 212.024 181.912 211.83 181.914H202.415L202.187 181.908C201.655 181.883 201.13 181.767 200.637 181.563C200.073 181.331 199.56 180.99 199.129 180.561C198.698 180.131 198.356 179.62 198.122 179.059C197.945 178.632 197.834 178.181 197.79 177.723H220.575L223.393 182.014V173.437L220.686 176.128L215.177 173.384C214.066 172.829 212.811 172.631 211.583 172.817C210.672 172.955 209.808 173.3 209.058 173.819V167.489H217.694V164.701C217.695 164.319 217.594 163.944 217.401 163.614C217.209 163.284 216.931 163.011 216.598 162.823C216.264 162.636 215.887 162.54 215.505 162.546C215.122 162.552 214.748 162.659 214.421 162.857L213.881 163.185H213.879L213.575 163.363C212.167 164.156 210.59 164.602 208.976 164.67V142.155H209.456C210.074 142.155 210.668 142.4 211.104 142.836C211.541 143.272 211.787 143.863 211.787 144.479Z" fill="#155C6D"/>
<path d="M224.658 213.124L241.676 194.56C231.959 203.718 219.135 208.879 205.769 209.013C176.241 209.309 152.078 184.653 152.078 155.196V134.732C152.078 116.752 172.186 106.722 194.932 104.477C198.686 104.105 202.458 103.943 206.23 103.992C206.626 103.992 206.75 103.318 206.354 103.318C202.234 103.318 194.627 98.0976 194.627 88.6182C194.627 80.0432 200.396 73.6798 212.486 73.6798C210.082 73.3823 207.663 73.2177 205.242 73.1865C188.805 73.1865 173.042 79.7003 161.42 91.2948C149.797 102.889 143.268 118.615 143.268 135.012V200.932C157.698 209.055 180.09 214.176 205.275 214.176C211.75 214.182 218.221 213.831 224.658 213.124Z" fill="#155C6D"/>
<path d="M205.133 203.422C212.065 203.422 218.929 202.059 225.334 199.413C231.739 196.766 237.558 192.887 242.46 187.997C247.361 183.107 251.25 177.302 253.903 170.913C256.556 164.523 257.921 157.675 257.921 150.76V156.379C257.921 170.35 252.358 183.749 242.455 193.628C232.552 203.507 219.121 209.057 205.117 209.057C191.112 209.057 177.681 203.507 167.778 193.628C157.876 183.749 152.312 170.35 152.312 156.379V150.76C152.312 157.678 153.679 164.529 156.334 170.92C158.988 177.311 162.88 183.118 167.785 188.009C172.69 192.899 178.513 196.778 184.922 199.422C191.33 202.067 198.198 203.426 205.133 203.422Z" fill="#70C5AD"/>
<path d="M152.312 156.379C152.313 170.35 157.876 183.749 167.778 193.628L168.245 194.088C178.101 203.679 191.331 209.057 205.116 209.057V208.62C191.227 208.62 177.908 203.116 168.087 193.318C159.54 184.792 154.254 173.623 153.026 161.736C153.702 164.928 154.673 168.06 155.931 171.088C158.608 177.532 162.531 183.387 167.477 188.317C172.422 193.248 178.294 197.16 184.755 199.826C191.014 202.409 197.708 203.775 204.478 203.854L205.133 203.858C212.122 203.858 219.044 202.485 225.501 199.816C231.958 197.148 237.825 193.237 242.768 188.307C247.71 183.376 251.631 177.522 254.306 171.08C255.563 168.052 256.533 164.922 257.209 161.73C255.982 173.619 250.694 184.791 242.146 193.318C232.326 203.116 219.005 208.62 205.116 208.62V209.057L205.772 209.053C219.321 208.885 232.289 203.527 241.988 194.088L242.455 193.628C252.358 183.749 257.921 170.35 257.921 156.379V150.76C257.921 157.675 256.555 164.523 253.902 170.912C251.25 177.301 247.362 183.107 242.46 187.997C237.558 192.887 231.739 196.767 225.334 199.413C219.129 201.977 212.493 203.336 205.782 203.418L205.133 203.422C198.414 203.426 191.759 202.15 185.523 199.666L184.922 199.422C178.714 196.86 173.054 193.14 168.247 188.464L167.785 188.009C163.033 183.271 159.233 177.674 156.586 171.518L156.334 170.92C153.679 164.529 152.312 157.678 152.312 150.76V156.379Z" fill="#155C6D"/>
<path d="M257.925 156.378C257.818 166.748 254.656 176.857 248.833 185.448C243.011 194.039 234.784 200.732 225.178 204.695C212.323 209.941 197.917 209.941 185.063 204.695C175.457 200.731 167.231 194.038 161.409 185.447C155.586 176.856 152.424 166.748 152.316 156.378C152.316 170.349 157.879 183.748 167.782 193.627C177.685 203.506 191.116 209.056 205.12 209.056C219.125 209.056 232.556 203.506 242.459 193.627C252.362 183.748 257.925 170.349 257.925 156.378Z" fill="#155C6D"/>
<path d="M151.88 156.378C151.88 170.465 157.489 183.975 167.474 193.936C177.458 203.896 191 209.492 205.12 209.492C219.24 209.492 232.782 203.896 242.767 193.936C252.751 183.975 258.361 170.465 258.361 156.378H257.925L257.488 156.373C257.382 166.657 254.246 176.683 248.472 185.203C242.697 193.723 234.539 200.361 225.012 204.291H225.013C212.264 209.494 197.978 209.494 185.229 204.291L184.34 203.915C175.195 199.944 167.364 193.456 161.771 185.202C155.996 176.682 152.86 166.657 152.753 156.373L151.88 156.378ZM152.316 156.378C152.425 166.748 155.587 176.856 161.409 185.447C167.231 194.038 175.457 200.731 185.062 204.694C197.917 209.941 212.323 209.941 225.178 204.694C234.784 200.732 243.01 194.039 248.833 185.448C254.656 176.857 257.818 166.748 257.925 156.378C257.925 170.349 252.362 183.748 242.459 193.627C232.556 203.506 219.125 209.056 205.12 209.056C191.116 209.056 177.685 203.506 167.782 193.627C157.879 183.748 152.316 170.349 152.316 156.378Z" fill="#155C6D"/>
<path d="M268.365 132.04C268.374 131.905 268.415 131.775 268.487 131.66C268.559 131.545 268.658 131.45 268.776 131.382C268.893 131.315 269.026 131.278 269.161 131.275C269.297 131.271 269.431 131.301 269.552 131.363C275.389 134.809 279.434 142.258 279.434 150.89C279.434 159.523 275.389 166.98 269.552 170.426C269.431 170.487 269.297 170.517 269.161 170.514C269.026 170.51 268.893 170.474 268.776 170.406C268.658 170.339 268.559 170.244 268.487 170.129C268.415 170.014 268.374 169.883 268.365 169.748V132.04Z" fill="#155C6D"/>
<path d="M279.434 150.891C279.434 142.528 275.638 135.276 270.094 131.698L269.552 131.363C269.431 131.302 269.297 131.271 269.161 131.275L269.061 131.283C268.96 131.298 268.864 131.333 268.775 131.383C268.658 131.45 268.559 131.546 268.487 131.66C268.416 131.775 268.374 131.906 268.365 132.04V169.748C268.374 169.883 268.416 170.014 268.487 170.129L268.546 170.211C268.609 170.29 268.687 170.356 268.775 170.407L268.866 170.451C268.959 170.49 269.06 170.511 269.161 170.514L269.173 170.078C269.109 170.077 269.047 170.059 268.992 170.028C268.937 169.996 268.891 169.952 268.857 169.899C268.825 169.846 268.806 169.786 268.802 169.725V132.062C268.807 132.001 268.825 131.943 268.857 131.891C268.891 131.837 268.937 131.793 268.992 131.762C269.047 131.731 269.109 131.713 269.173 131.711C269.234 131.71 269.294 131.723 269.349 131.749C275.02 135.108 278.997 142.392 278.997 150.891C278.997 159.389 275.019 166.679 269.348 170.038C269.293 170.065 269.234 170.08 269.173 170.078L269.161 170.514L269.263 170.511C269.33 170.504 269.396 170.489 269.459 170.466L269.552 170.426C275.206 167.087 279.179 159.985 279.422 151.697L279.434 150.891Z" fill="#155C6D"/>
<path d="M142.216 132.04C142.207 131.905 142.166 131.775 142.094 131.66C142.022 131.545 141.923 131.45 141.805 131.382C141.688 131.315 141.555 131.278 141.42 131.275C141.284 131.271 141.15 131.301 141.029 131.363C135.192 134.809 131.147 142.258 131.147 150.89C131.147 159.523 135.192 166.98 141.029 170.426C141.15 170.487 141.284 170.517 141.42 170.514C141.555 170.51 141.688 170.474 141.805 170.406C141.923 170.339 142.022 170.244 142.094 170.129C142.166 170.014 142.207 169.883 142.216 169.748V132.04Z" fill="#155C6D"/>
<path d="M131.584 150.891C131.584 142.392 135.562 135.108 141.233 131.749C141.288 131.723 141.348 131.709 141.408 131.711C141.472 131.713 141.534 131.73 141.589 131.762C141.644 131.793 141.69 131.837 141.724 131.891C141.756 131.942 141.775 132.001 141.779 132.062V169.725C141.775 169.786 141.756 169.846 141.724 169.898C141.69 169.952 141.644 169.996 141.589 170.027C141.534 170.059 141.472 170.077 141.408 170.078L141.42 170.514L141.521 170.505C141.587 170.495 141.653 170.477 141.715 170.451L141.806 170.406C141.894 170.356 141.972 170.289 142.035 170.211L142.094 170.129C142.165 170.014 142.207 169.883 142.216 169.748V132.04C142.209 131.939 142.184 131.84 142.142 131.749L142.094 131.66C142.04 131.574 141.971 131.498 141.89 131.438L141.806 131.383C141.688 131.316 141.555 131.278 141.42 131.274L141.318 131.278C141.218 131.288 141.119 131.316 141.028 131.362C135.191 134.809 131.147 142.258 131.147 150.891L131.159 151.696C131.402 159.985 135.374 167.087 141.028 170.426L141.122 170.466C141.217 170.5 141.318 170.516 141.42 170.514L141.408 170.078C141.348 170.08 141.289 170.064 141.234 170.038C135.563 166.679 131.584 159.39 131.584 150.891Z" fill="#155C6D"/>
<path d="M269.544 131.672C269.545 131.641 269.555 131.611 269.571 131.585C269.588 131.559 269.611 131.538 269.638 131.523C269.665 131.508 269.695 131.501 269.726 131.501C269.757 131.501 269.787 131.51 269.814 131.525C275.545 135.037 279.434 142.387 279.434 150.889V151.469C279.434 152.289 279.108 153.075 278.528 153.655C277.948 154.235 277.16 154.563 276.339 154.565C274.54 154.565 272.815 153.852 271.543 152.584C270.27 151.317 269.554 149.597 269.552 147.802L269.544 131.672Z" fill="#70C5AD"/>
<path d="M269.727 131.501C269.696 131.501 269.665 131.508 269.638 131.522C269.611 131.537 269.588 131.559 269.571 131.585C269.555 131.611 269.546 131.641 269.544 131.672L269.552 147.803L269.561 148.138C269.646 149.81 270.35 151.396 271.543 152.585L271.787 152.816C273.032 153.939 274.653 154.565 276.339 154.565L276.492 154.561C277.207 154.524 277.887 154.241 278.417 153.761L278.527 153.655C279.071 153.112 279.392 152.387 279.43 151.623L279.434 151.47V150.89C279.434 142.388 275.545 135.037 269.815 131.525C269.788 131.51 269.757 131.501 269.727 131.501ZM278.997 151.47C278.997 152.173 278.717 152.848 278.219 153.347C277.721 153.845 277.045 154.125 276.339 154.127C274.656 154.127 273.041 153.462 271.851 152.276C270.66 151.089 269.99 149.48 269.988 147.802L269.982 132.149C275.344 135.661 278.997 142.71 278.997 150.89V151.47Z" fill="#155C6D"/>
</g>
</svg>
