<svg width="411" height="200" viewBox="0 0 411 200" fill="none" xmlns="http://www.w3.org/2000/svg">
<g clip-path="url(#clip0_2530_13500)">
<path d="M251.017 20.0007L267.232 168.7L259.452 169.511C259.043 165.781 255.757 163.065 252.104 163.45C248.452 163.834 245.826 167.169 246.229 170.893L233.012 172.275C232.604 168.544 229.318 165.829 225.665 166.213C222.012 166.598 219.381 169.932 219.79 173.657L206.573 175.038C206.164 171.308 202.878 168.592 199.226 168.977C195.573 169.361 192.948 172.695 193.35 176.42L180.134 177.802C179.725 174.071 176.433 171.356 172.786 171.74C169.14 172.125 166.508 175.459 166.911 179.184L158.993 180.013L142.778 31.301L150.696 30.4719C151.105 34.2087 154.391 36.9241 158.044 36.5396C161.696 36.1551 164.328 32.8209 163.919 29.0902L177.136 27.7085C177.544 31.4452 180.83 34.1606 184.483 33.7761C188.136 33.3916 190.767 30.0574 190.358 26.3267L203.575 24.945C203.984 28.6817 207.27 31.3971 210.922 31.0126C214.575 30.6281 217.2 27.2939 216.798 23.5632L230.015 22.1815C230.423 25.9182 233.709 28.6336 237.362 28.2491C241.014 27.8707 243.646 24.5304 243.237 20.7997L251.017 19.9887V20.0007Z" fill="#C8DAE8"/>
<path d="M201.282 50.2537C205.559 49.7851 211.531 52.6027 214.523 56.5136L229.992 76.639C232.996 80.5499 234.408 87.3205 233.128 91.688L226.55 114.228C225.27 118.596 220.728 122.561 216.445 123.018L194.385 125.427C190.108 125.895 184.142 123.09 181.156 119.185L165.669 99.0533C162.671 95.1544 161.253 88.3838 162.533 84.0043L169.129 61.4759C170.391 57.0963 174.939 53.1433 179.222 52.6687L201.282 50.2597V50.2537Z" fill="#155C6D"/>
<path d="M185.492 98.8526L180.205 91.974C177.201 88.063 175.79 81.2925 177.069 76.925L183.647 54.3845C184.549 51.3206 187.042 48.461 189.937 46.857C186.741 48.6232 185.654 49.206 182.452 50.9722C179.568 52.5702 177.063 55.4358 176.156 58.4877L169.578 81.0281C168.298 85.3956 169.71 92.1722 172.714 96.0771V96.0891L174.504 98.4261C178.865 99.934 182.542 99.7358 185.486 98.8466L185.492 98.8526Z" fill="#0B4D5E"/>
<path d="M172.715 96.0952L188.185 116.221C191.189 120.132 197.148 122.949 201.438 122.474L223.498 120.065C224.771 119.927 226.075 119.471 227.312 118.792C230.509 117.026 231.596 116.443 234.798 114.677C233.566 115.355 232.263 115.812 230.983 115.95L208.923 118.359C204.646 118.828 198.674 116.01 195.683 112.099L180.213 91.974C177.209 88.063 175.797 81.2925 177.077 76.925L183.655 54.3845C184.556 51.3206 187.05 48.461 189.945 46.857C186.749 48.6232 185.662 49.206 182.46 50.9722C179.576 52.5702 177.071 55.4358 176.164 58.4877L169.586 81.0281C168.306 85.3957 169.718 92.1722 172.721 96.0771V96.0891L172.715 96.0952Z" fill="#155C6D"/>
<path d="M215.626 43.4018C219.903 42.9332 225.875 45.7508 228.866 49.6617L244.336 69.7871C247.34 73.6981 248.751 80.4686 247.472 84.8361L240.894 107.377C239.614 111.744 235.072 115.709 230.789 116.166L208.729 118.575C204.452 119.043 198.486 116.238 195.5 112.333L180.013 92.2014C177.015 88.3025 175.597 81.532 176.877 77.1524L183.473 54.624C184.735 50.2445 189.282 46.2915 193.566 45.8169L215.626 43.4078V43.4018Z" fill="#70C5AD"/>
<path d="M241.006 73.8379C241.042 73.922 241.084 74.0001 241.12 74.0842C241.084 74.0001 241.048 73.922 241.006 73.8379Z" fill="#8AE5CC"/>
<path d="M241.429 74.824C241.447 74.872 241.465 74.9201 241.489 74.9682C241.471 74.9201 241.453 74.872 241.429 74.824Z" fill="#8AE5CC"/>
<path d="M241.482 74.968C241.969 76.2536 242.317 77.6293 242.498 78.987C242.311 77.6293 241.969 76.2476 241.482 74.968Z" fill="#F0F4FF"/>
<path d="M239.584 71.449C239.758 71.6773 239.932 71.9236 240.095 72.1759C239.932 71.9236 239.764 71.6773 239.584 71.449Z" fill="#F0F4FF"/>
<path d="M242.504 78.9908C242.323 77.6331 241.975 76.2514 241.488 74.9717C241.47 74.9237 241.452 74.8756 241.428 74.8276C241.332 74.5753 241.23 74.3289 241.122 74.0886C241.086 74.0045 241.05 73.9264 241.008 73.8423C240.912 73.6381 240.809 73.4338 240.707 73.2356C240.659 73.1454 240.611 73.0553 240.563 72.9652C240.455 72.773 240.347 72.5867 240.233 72.4005C240.185 72.3224 240.137 72.2443 240.088 72.1662C239.926 71.9139 239.758 71.6676 239.578 71.4393L226.397 54.2936C223.844 50.9594 218.762 48.5624 215.115 48.9589L196.317 51.0075C192.665 51.41 188.79 54.7803 187.714 58.511L187.696 58.5771C189.396 55.9638 192.316 53.9152 195.116 53.6028L213.913 51.5542C217.56 51.1577 222.642 53.5547 225.196 56.8889L238.376 74.0346C239.518 75.5184 240.389 77.4889 240.906 79.5495C241.548 82.1088 241.65 84.8002 241.05 86.8608L235.475 105.971C235.991 105.178 236.4 104.337 236.652 103.472L242.257 84.2655C242.702 82.7456 242.762 80.8832 242.504 78.9848V78.9908Z" fill="#0B4D5E"/>
<path d="M228.124 95.8476L225.282 84.7877L227.265 80.6545L229.734 75.4699C230.827 73.187 229.674 70.9582 227.168 70.5137H227.199L216.992 68.6934L213.711 64.8065L209.608 59.9523C208.719 58.889 207.716 58.4084 206.851 58.5045C206.136 58.5886 205.499 59.0572 205.061 59.8923C205.793 59.9944 206.586 60.463 207.301 61.3221L211.405 66.1762L214.685 70.0631L224.892 71.8894H224.862C227.367 72.328 228.52 74.5628 227.427 76.8397L224.958 82.0242L222.975 86.1574L225.817 97.2174C226.063 98.1606 226.045 98.9716 225.805 99.6024C225.985 99.6144 226.159 99.6144 226.321 99.6024C227.895 99.4282 228.682 97.9743 228.13 95.8537L228.124 95.8476Z" fill="#0B4D5E"/>
<path d="M227.274 80.6544L229.743 75.4699C230.836 73.187 229.683 70.9582 227.178 70.5136H227.208L217.001 68.6933L213.721 64.8064L209.618 59.9523C208.728 58.8889 207.725 58.4083 206.86 58.5044C205.989 58.6066 205.232 59.2614 204.811 60.4689L202.871 65.9839L201.327 70.4055L200.498 70.7659C205.568 79.6271 214.316 86.2114 226.451 89.3354L225.285 84.7936L227.268 80.6604L227.274 80.6544Z" fill="#8AE5CC"/>
<path d="M244.337 69.7872L228.868 49.6618C225.87 45.7449 219.904 42.9333 215.627 43.4019L195.52 45.5947C193.225 72.2984 211.013 92.1234 245.581 91.3304L247.473 84.8362C248.753 80.4687 247.341 73.6922 244.337 69.7872Z" fill="#F0F4FF"/>
<path d="M215.121 48.965C218.767 48.5685 223.85 50.9655 226.403 54.2998L239.584 71.4454C242.143 74.7736 243.344 80.5469 242.257 84.2716L236.652 103.478C235.559 107.203 231.69 110.579 228.037 110.969L209.239 113.018C205.593 113.414 200.51 111.023 197.963 107.695L184.764 90.5375C182.211 87.2153 180.998 81.448 182.091 77.7113L187.708 58.5111C188.784 54.7804 192.658 51.4101 196.311 51.0076L215.109 48.959L215.121 48.965Z" fill="#155C6D"/>
<path d="M187.719 58.5205L187.701 58.5866C189.401 55.9733 192.321 53.9247 195.121 53.6123L195.475 53.5763C195.421 52.7893 195.379 51.9963 195.361 51.1973C192.015 52.0263 188.704 55.1202 187.725 58.5205H187.719Z" fill="#155C6D"/>
<path d="M235.475 105.978C235.991 105.185 236.4 104.344 236.652 103.479L240.227 91.2232C240.076 91.2172 239.932 91.2112 239.788 91.2052L235.475 105.984V105.978Z" fill="#155C6D"/>
<path d="M242.506 78.9908C242.326 77.6331 241.977 76.2514 241.491 74.9718C241.473 74.9237 241.455 74.8756 241.431 74.8276C241.335 74.5753 241.232 74.3289 241.124 74.0886C241.088 74.0045 241.052 73.9264 241.01 73.8423C240.914 73.6381 240.812 73.4338 240.71 73.2356C240.662 73.1454 240.614 73.0553 240.566 72.9652C240.458 72.773 240.349 72.5867 240.235 72.4005C240.187 72.3224 240.139 72.2443 240.091 72.1662C239.929 71.9139 239.761 71.6676 239.58 71.4393L226.4 54.2936C223.847 50.9594 218.764 48.5624 215.118 48.9589L196.32 51.0075C195.995 51.0435 195.677 51.1096 195.353 51.1877C195.371 51.9867 195.413 52.7797 195.467 53.5667L213.916 51.5542C217.563 51.1577 222.645 53.5547 225.198 56.8889L238.379 74.0346C239.52 75.5184 240.391 77.4889 240.908 79.5495C241.551 82.1088 241.653 84.8002 241.052 86.8608L239.791 91.1922C239.935 91.1982 240.085 91.2042 240.229 91.2103L242.26 84.2595C242.704 82.7396 242.764 80.8772 242.506 78.9788V78.9908Z" fill="#155C6D"/>
<path d="M227.202 70.5196L216.995 68.6933L213.715 64.8064L209.612 59.9523C208.723 58.8889 207.719 58.4083 206.854 58.5044C205.983 58.6066 205.226 59.2614 204.806 60.4689L202.865 65.9839L201.321 70.4055L192.31 74.3284C190.111 75.2836 189.901 77.6626 191.883 79.6031L196.365 84.0307L199.946 87.5571L201.736 98.7312C202.072 100.87 203.424 102.101 204.986 101.933C205.412 101.891 205.857 101.741 206.296 101.477L214.76 96.4664L224.871 99.4461C225.406 99.6023 225.88 99.6444 226.307 99.6023C227.881 99.4281 228.668 97.9743 228.115 95.8536L225.274 84.7936L227.256 80.6604L229.725 75.4759C230.819 73.193 229.665 70.9642 227.16 70.5196H227.19H227.202Z" fill="#8AE5CC"/>
<path d="M200.444 70.7815L192.31 74.32C190.111 75.2752 189.901 77.6542 191.883 79.5946L196.365 84.0222L199.946 87.5487L201.736 98.7228C202.072 100.861 203.424 102.093 204.986 101.925C205.412 101.883 205.857 101.733 206.296 101.468L214.76 96.4579L224.871 99.4377C225.406 99.5939 225.88 99.6359 226.307 99.5939C227.881 99.4196 228.668 97.9658 228.115 95.8451L226.499 89.5432C214.28 86.3892 205.491 79.7388 200.444 70.7815Z" fill="#70C5AD"/>
<path d="M227.268 80.6545L229.737 75.4699C230.831 73.187 229.677 70.9582 227.172 70.5137H227.202L216.995 68.6934L213.715 64.8065L209.612 59.9523C208.723 58.889 207.72 58.4084 206.854 58.5045C205.983 58.6066 205.226 59.2615 204.806 60.469L202.865 65.9839L201.321 70.4055L200.444 70.784C205.497 79.7473 214.28 86.3977 226.499 89.5457L225.28 84.7877L227.262 80.6545H227.268Z" fill="#70C5AD"/>
<path d="M225.812 97.2209C226.059 98.1641 226.035 98.9751 225.8 99.6059C225.981 99.6179 226.155 99.6179 226.317 99.6059C227.891 99.4317 228.678 97.9778 228.125 95.8571L226.431 89.2668C225.452 89.0145 224.491 88.7382 223.56 88.4438L225.812 97.2269V97.2209Z" fill="#155C6D"/>
<path d="M227.265 80.6545L229.734 75.4699C230.827 73.187 229.674 70.9582 227.168 70.5137H227.199L216.992 68.6934L213.711 64.8065L209.608 59.9523C208.719 58.889 207.716 58.4084 206.851 58.5045C206.136 58.5886 205.499 59.0572 205.061 59.8923C205.793 59.9944 206.586 60.463 207.301 61.3221L211.405 66.1762L214.685 70.0631L224.892 71.8894H224.862C227.367 72.328 228.52 74.5628 227.421 76.8397L224.952 82.0242L222.969 86.1574L223.552 88.4283C224.489 88.7287 225.444 88.999 226.424 89.2513L225.276 84.7817L227.259 80.6485L227.265 80.6545Z" fill="#155C6D"/>
<path d="M167.166 116.534C179.716 115.117 181.128 113.771 183.116 101.299C184.534 113.849 185.88 115.261 198.351 117.249C185.802 118.667 184.39 120.013 182.401 132.485C180.983 119.935 179.638 118.523 167.166 116.534Z" fill="#70C5AD"/>
<path d="M248.212 131.836L248.374 133.626L179.762 139.628L179.6 137.838L248.212 131.836Z" fill="#70C5AD"/>
<path d="M249.491 142.464L249.654 144.26L181.047 150.261L180.885 148.465L249.491 142.464Z" fill="#70C5AD"/>
</g>
<defs>
<clipPath id="clip0_2530_13500">
<rect width="124.453" height="160" fill="white" transform="translate(142.778 20)"/>
</clipPath>
</defs>
</svg>
