<svg width="411" height="200" viewBox="0 0 411 200" fill="none" xmlns="http://www.w3.org/2000/svg">
<path d="M249.153 42.8068L153.788 49.1242L162.458 180L257.823 173.683L249.153 42.8068Z" fill="#C8DAE8"/>
<path d="M267.003 40.4457L171.451 38.349L168.571 169.481L248.065 171.224L264.477 155.519L267.003 40.4457Z" fill="#C8DAE8"/>
<path d="M177.749 142.474L177.73 143.316L216.383 144.166L216.402 143.324L177.749 142.474Z" fill="#70C5AD"/>
<path d="M232.011 150.998L231.992 151.84L256.019 152.369L256.037 151.527L232.011 150.998Z" fill="#70C5AD"/>
<path d="M177.589 149.801L177.57 150.643L203.281 151.209L203.299 150.367L177.589 149.801Z" fill="#70C5AD"/>
<path d="M240.284 147.211C240.141 147.208 240.009 147.132 239.933 147.006C239.515 146.31 238.866 145.762 238.111 145.468C237.777 145.336 237.289 145.212 236.874 145.367C236.576 145.476 236.301 145.802 236.365 146.108C236.413 146.335 236.267 146.559 236.04 146.604C235.813 146.649 235.591 146.506 235.543 146.279C235.383 145.513 235.947 144.811 236.584 144.575C237.112 144.379 237.749 144.418 238.423 144.682C239.038 144.923 239.593 145.299 240.048 145.774L240.18 145.021C240.217 144.805 240.27 144.508 240.455 144.258C240.702 143.927 241.137 143.741 241.656 143.747C242.103 143.753 242.538 143.887 242.945 144.016C243.057 144.053 243.169 144.087 243.284 144.12C243.829 144.278 244.219 144.286 244.511 144.143C244.713 144.045 244.898 143.854 245.075 143.668L247.144 141.518C247.815 140.819 248.575 140.031 249.577 139.612C250.535 139.217 251.944 139.208 252.777 140.135C252.935 140.306 252.92 140.572 252.746 140.73C252.575 140.884 252.309 140.873 252.151 140.699C251.59 140.078 250.591 140.104 249.897 140.39C249.058 140.738 248.362 141.462 247.747 142.102L245.679 144.252C245.46 144.48 245.213 144.738 244.876 144.901C244.233 145.215 243.526 145.069 243.049 144.932C242.928 144.898 242.807 144.859 242.689 144.822C242.325 144.707 241.982 144.609 241.642 144.592C241.407 144.589 241.21 144.654 241.132 144.76C241.064 144.853 241.033 145.019 241.008 145.167L240.713 146.863C240.682 147.037 240.548 147.171 240.377 147.205C240.348 147.211 240.318 147.214 240.29 147.214L240.284 147.211Z" fill="#70C5AD"/>
<path d="M240.284 147.211C240.141 147.208 240.009 147.132 239.933 147.006C239.515 146.31 238.866 145.762 238.111 145.468C237.777 145.336 237.289 145.212 236.874 145.367C236.576 145.476 236.301 145.802 236.365 146.108C236.413 146.335 236.267 146.559 236.04 146.604C235.813 146.649 235.591 146.506 235.543 146.279C235.383 145.513 235.947 144.811 236.584 144.575C237.112 144.379 237.749 144.418 238.423 144.682C239.038 144.923 239.593 145.299 240.048 145.774L240.18 145.021C240.217 144.805 240.27 144.508 240.455 144.258C240.702 143.927 241.137 143.741 241.656 143.747C242.103 143.753 242.538 143.887 242.945 144.016C243.057 144.053 243.169 144.087 243.284 144.12C243.829 144.278 244.219 144.286 244.511 144.143C244.713 144.045 244.898 143.854 245.075 143.668L247.144 141.518C247.815 140.819 248.575 140.031 249.577 139.612C250.535 139.217 251.944 139.208 252.777 140.135C252.935 140.306 252.92 140.572 252.746 140.73C252.575 140.884 252.309 140.873 252.151 140.699C251.59 140.078 250.591 140.104 249.897 140.39C249.058 140.738 248.362 141.462 247.747 142.102L245.679 144.252C245.46 144.48 245.213 144.738 244.876 144.901C244.233 145.215 243.526 145.069 243.049 144.932C242.928 144.898 242.807 144.859 242.689 144.822C242.325 144.707 241.982 144.609 241.642 144.592C241.407 144.589 241.21 144.654 241.132 144.76C241.064 144.853 241.033 145.019 241.008 145.167L240.713 146.863C240.682 147.037 240.548 147.171 240.377 147.205C240.348 147.211 240.318 147.214 240.29 147.214L240.284 147.211Z" fill="#70C5AD"/>
<path d="M256.965 89.8467L256.294 120.411L257.12 121.157L257.824 89.0243L220.661 88.2075L221.618 89.072L256.965 89.8467Z" fill="#70C5AD"/>
<path d="M248.064 171.223L264.476 155.519L248.418 155.165L248.064 171.223Z" fill="#70C5AD"/>
<path d="M121.756 57.0243C134.377 55.5989 135.53 54.4456 136.955 41.8247C138.378 54.4456 139.534 55.5989 152.155 57.0243C139.534 58.4473 138.381 59.6029 136.955 72.2239C135.532 59.6029 134.377 58.4496 121.756 57.0243Z" fill="#C8DAE8"/>
<path d="M274.982 114.721C283.114 113.803 283.858 113.059 284.776 104.928C285.693 113.059 286.437 113.803 294.569 114.721C286.437 115.639 285.693 116.383 284.776 124.514C283.858 116.383 283.114 115.639 274.982 114.721Z" fill="#C8DAE8"/>
<path d="M182.455 114.728L182.437 115.57L204.765 116.061L204.784 115.22L182.455 114.728Z" fill="#70C5AD"/>
<path d="M182.644 106.087L182.626 106.929L213.087 107.599L213.106 106.757L182.644 106.087Z" fill="#70C5AD"/>
<path d="M177.514 133.779L256.805 135.52L257.139 120.315L257.218 116.761C256.937 116.739 256.656 116.713 256.376 116.688L256.3 120.197L255.983 134.658L237.811 134.259L238.238 114.85L238.28 112.994C237.999 112.899 237.721 112.798 237.443 112.7L237.404 114.46L236.969 134.24L218.211 133.827L218.912 101.806C218.376 101.323 217.846 100.835 217.326 100.33L179.111 99.4904L179.361 88.1394L208.3 88.7738C208.131 88.4931 207.968 88.2068 207.806 87.9205L178.538 87.2777L177.516 133.774L177.514 133.779ZM218.081 101.191L217.366 133.81L178.375 132.954L179.091 100.335L218.081 101.191Z" fill="#70C5AD"/>
<path d="M200.962 71.1752L179.447 70.8047L179.371 74.2038L201.989 74.594L205.178 74.6501L205.253 71.251L200.962 71.1752Z" fill="#70C5AD"/>
<path d="M179.742 57.6609L179.627 62.8776L206.221 63.4625L206.336 58.2458L179.742 57.6609Z" fill="#70C5AD"/>
<path d="M210.843 88.8363L218.348 89.0019L218.118 99.4884L218.098 100.353L217.324 100.336C217.84 100.841 218.371 101.33 218.91 101.813L218.924 101.215L219.654 101.231L237.685 101.627L237.441 112.706C237.719 112.804 237.996 112.905 238.277 113.001L238.527 101.644L256.699 102.043L256.376 116.692C256.657 116.717 256.934 116.742 257.218 116.765L257.827 89.0272L210.38 87.9858L207.806 87.9297C207.968 88.216 208.131 88.5023 208.3 88.783L210.846 88.8391L210.843 88.8363ZM238.791 89.451L256.963 89.8496L256.713 101.201L238.541 100.802L238.791 89.451ZM219.19 89.0216L237.949 89.4342L237.699 100.785L218.941 100.373L219.19 89.0216Z" fill="#70C5AD"/>
<path d="M256.716 101.197L238.544 100.799L238.676 94.8117C238.398 94.6742 238.12 94.5366 237.842 94.3935L237.702 100.779L218.943 100.367L219.193 89.0155L229.567 89.2428C229.183 88.9565 228.804 88.6674 228.428 88.3755L210.38 87.9798L207.806 87.9236C207.968 88.2099 208.131 88.4962 208.3 88.7769L210.846 88.833L218.351 88.9986L218.121 99.4851L218.101 100.35L217.327 100.333C217.843 100.838 218.374 101.326 218.912 101.809L218.927 101.211L219.656 101.228L237.688 101.624L237.443 112.703C237.721 112.801 237.999 112.902 238.28 112.997L238.53 101.641L256.701 102.039L256.379 116.689C256.659 116.714 256.937 116.739 257.221 116.761L257.58 100.445C257.299 100.411 257.019 100.378 256.741 100.338L256.721 101.197H256.716Z" fill="#70C5AD"/>
<path d="M228.425 88.3785C228.801 88.6704 229.183 88.9595 229.564 89.2458L237.948 89.4311L237.839 94.3964C238.114 94.5368 238.392 94.6771 238.673 94.8146L238.79 89.4507L256.962 89.8493L256.732 100.341C257.01 100.381 257.291 100.412 257.571 100.448L257.821 89.0269L228.422 88.3813L228.425 88.3785Z" fill="#70C5AD"/>
<path d="M249.4 54.7526L244.71 54.6487C245.417 55.7406 245.863 57.0121 246.046 58.4661L250.391 58.5615L249.229 62.4518L245.981 62.3817C245.614 64.7423 244.628 66.5302 243.023 67.7512C241.417 68.9722 239.172 69.6711 236.283 69.8536L246.051 81.7968L246.046 82.0775L239.871 81.9428L229.202 68.947L229.252 65.6545L234.695 65.7752C236.3 65.8117 237.58 65.5057 238.535 64.8573C239.489 64.2118 240.134 63.3472 240.474 62.2638L228.901 62.0112L230.083 58.1208L240.474 58.3482C239.82 56.1111 237.945 54.9575 234.846 54.8901L229.059 54.7638L230.316 50.4019L250.579 50.8454L249.394 54.7582L249.4 54.7526Z" fill="#70C5AD"/>
<path d="M245.981 62.3803L249.229 62.4505L250.391 58.5602L246.046 58.4647C245.863 57.0108 245.417 55.7393 244.709 54.6474L249.4 54.7512L250.584 50.8385L230.321 50.395L229.364 53.7183L230.248 54.7849L234.849 54.886C237.948 54.9533 239.823 56.107 240.477 58.344L233.069 58.1812L236.381 62.1698L240.477 62.2596C240.143 63.3263 239.511 64.1767 238.582 64.8195L241.695 68.5695C242.178 68.3281 242.621 68.0558 243.025 67.7499C244.631 66.5289 245.616 64.7409 245.984 62.3803H245.981Z" fill="#70C5AD"/>
<path d="M171.237 47.9679L168.57 169.48L248.064 171.224H166.911L164.48 48.4142L171.237 47.9679Z" fill="#121212"/>
<path d="M166.8 145.919L187.958 139.719C192.067 138.523 195.82 133.855 196.311 129.359L198.812 106.165C199.303 101.669 196.741 95.2887 193.123 91.9906L191.273 90.3065L155.28 84.4878L160.142 145.846C162.508 146.41 164.891 146.478 166.797 145.919H166.8Z" fill="#121212"/>
<path d="M141.873 121.562L157.215 134.953C160.196 137.555 165.33 138.832 168.625 137.782L185.601 132.407C186.583 132.096 187.535 131.534 188.399 130.805C190.636 128.913 192.868 127.015 195.105 125.123C194.24 125.853 193.289 126.415 192.307 126.726L175.331 132.101C172.038 133.146 166.899 131.871 163.926 129.266L148.584 115.875C145.603 113.273 143.425 108.167 143.742 104.529L145.359 85.757C145.58 83.2027 147.093 80.5614 149.12 78.8436C146.883 80.7355 144.651 82.6329 142.414 84.5248C140.396 86.237 138.878 88.8838 138.647 91.4325L137.031 110.205C136.714 113.843 138.892 118.951 141.873 121.55V121.562Z" fill="#70C5AD"/>
<path d="M168.796 72.0758C172.088 71.0316 177.228 72.306 180.2 74.9108L195.543 88.3024C198.524 90.9044 200.702 96.0101 200.385 99.6478L198.768 118.42C198.451 122.058 195.501 125.892 192.205 126.931L175.229 132.306C171.937 133.35 166.803 132.081 163.836 129.482L148.477 116.085C145.502 113.489 143.318 108.388 143.635 104.739L145.269 85.9727C145.569 82.3293 148.525 78.5008 151.82 77.451L168.796 72.0758Z" fill="#C8DAE8"/>
<path d="M195.545 88.3019L180.202 74.9102C177.227 72.3027 172.09 71.0311 168.798 72.0753L151.822 77.4505C148.524 78.5002 145.571 82.3288 145.271 85.9722L145.052 88.4983C156.181 101.837 174.948 107.254 190.661 100.568C194.068 99.1168 197.094 97.1969 199.705 94.9149C198.865 92.3803 197.355 89.8793 195.548 88.3019H195.545Z" fill="#70C5AD"/>
<path d="M169.27 76.5279C172.074 75.6381 176.453 76.7244 178.988 78.9446L192.062 90.3546C194.602 92.572 196.458 96.9227 196.188 100.021L194.81 116.018C194.541 119.119 192.026 122.387 189.216 123.271L174.749 127.852C171.945 128.741 167.569 127.661 165.04 125.443L151.952 114.028C149.417 111.816 147.556 107.471 147.826 104.361L149.218 88.3701C149.473 85.2657 151.991 82.0013 154.801 81.1087L169.267 76.5279H169.27Z" fill="#C8DAE8"/>
<path d="M163.844 94.1572L164.313 90.7889L164.832 87.1007C164.35 87.3589 164.002 87.8838 163.892 88.6725L163.3 92.8744L162.831 96.2427L163.844 94.1572Z" fill="#155C6D"/>
<path d="M193.563 92.0165C193.606 92.0754 193.648 92.1316 193.69 92.1905C193.648 92.1316 193.606 92.0726 193.563 92.0165Z" fill="#F0F4FF"/>
<path d="M193.078 91.3984C193.131 91.4602 193.182 91.5247 193.233 91.5865C193.182 91.5219 193.131 91.4602 193.078 91.3984Z" fill="#F0F4FF"/>
<path d="M194.05 92.7231C194.072 92.7568 194.095 92.7933 194.117 92.8269C194.095 92.7905 194.072 92.7568 194.05 92.7231Z" fill="#F0F4FF"/>
<path d="M191.526 92.5915L178.452 81.1815C175.917 78.9613 171.538 77.875 168.734 78.7648L154.268 83.3456C152.118 84.0305 150.142 86.102 149.218 88.426L149.224 88.3699L149.047 90.3881C160.333 100.664 176.737 104.302 190.721 98.3512C191.998 97.8094 193.219 97.1975 194.386 96.5295C193.654 94.9913 192.66 93.5795 191.526 92.5915Z" fill="#70C5AD"/>
<path d="M194.116 92.8273C194.7 93.7619 195.191 94.7893 195.551 95.8306C195.191 94.7893 194.703 93.7619 194.116 92.8273Z" fill="#C8DAE8"/>
<path d="M192.065 90.3575C192.242 90.5119 192.413 90.6747 192.582 90.8487C192.413 90.6775 192.242 90.5119 192.065 90.3575Z" fill="#C8DAE8"/>
<path d="M192.729 91.0087C192.847 91.135 192.965 91.2641 193.08 91.3988C192.965 91.2641 192.85 91.135 192.729 91.0087Z" fill="#C8DAE8"/>
<path d="M193.691 92.1927C193.815 92.3667 193.933 92.5436 194.051 92.7232C193.936 92.5408 193.815 92.3639 193.691 92.1927Z" fill="#C8DAE8"/>
<path d="M194.386 96.529C195.296 98.4405 195.801 100.54 195.652 102.258L194.282 118.17C194.563 117.465 194.751 116.736 194.813 116.017L196.191 100.021C196.3 98.7548 196.053 97.2812 195.551 95.8273C195.169 96.0658 194.782 96.2988 194.386 96.5262V96.529Z" fill="#70C5AD"/>
<path d="M193.232 91.5868C193.345 91.7272 193.457 91.8703 193.564 92.0163C193.454 91.8703 193.345 91.7272 193.232 91.5868Z" fill="#C8DAE8"/>
<path d="M194.116 92.8279C194.093 92.7914 194.071 92.7577 194.048 92.724C193.933 92.5416 193.812 92.3648 193.689 92.1935C193.647 92.1346 193.605 92.0756 193.563 92.0195C193.453 91.8735 193.344 91.7304 193.231 91.5901C193.181 91.5283 193.13 91.4637 193.077 91.402C192.962 91.2673 192.847 91.1381 192.726 91.0118C192.676 90.9585 192.628 90.9024 192.577 90.8518C192.409 90.6806 192.238 90.515 192.061 90.3606L178.986 78.9507C176.452 76.7304 172.073 75.6442 169.269 76.534L154.802 81.1148C151.993 82.0074 149.475 85.2718 149.219 88.3762L149.214 88.4323C150.14 86.1054 152.113 84.0339 154.263 83.3519L168.73 78.771C171.534 77.8813 175.916 78.9675 178.448 81.1878L191.522 92.5977C192.653 93.5858 193.65 95.0004 194.382 96.5358C194.778 96.3084 195.165 96.0754 195.547 95.8369C195.188 94.7955 194.699 93.7682 194.113 92.8335L194.116 92.8279Z" fill="#121212"/>
<path d="M161.684 98.7257L161.642 99.0345L156.129 101.49C154.701 102.487 155.18 106.243 156.87 107.34L160.062 109.44L163.116 111.438L165.987 119.137C166.532 120.611 167.671 121.293 168.76 120.953C169.058 120.861 169.355 120.692 169.63 120.443L174.941 115.668L181.172 116.221C181.576 116.255 182.626 116.28 182.935 116.291C184.501 116.342 185.969 113.644 185.273 112.213L180.757 105.858L181.579 102.633L182.034 100.822C175.219 101.987 168.185 101.19 161.69 98.7285L161.684 98.7257Z" fill="#121212"/>
<path d="M181.27 92.6306L173.742 92.7878L170.851 90.489L167.235 87.6176C166.449 86.986 165.669 86.7867 165.063 86.9832C164.457 87.1769 164.013 87.7551 163.887 88.6729L163.295 92.8748L162.826 96.2431L156.973 100.319C155.545 101.315 155.736 103.039 157.425 104.133L161.246 106.645L164.299 108.644L167.171 116.343C167.715 117.817 168.855 118.499 169.944 118.159C170.242 118.067 170.539 117.898 170.814 117.648L176.125 112.874L183.748 113.55C184.152 113.584 184.495 113.55 184.792 113.458C185.887 113.11 186.238 111.962 185.542 110.533L181.943 103.067L182.766 99.8415L183.785 95.7968C184.237 94.0172 183.1 92.5941 181.253 92.6334H181.275L181.27 92.6306Z" fill="#70C5AD"/>
<path d="M162.87 95.9348L162.828 96.2436L156.975 100.319C155.547 101.316 155.738 103.039 157.427 104.134L161.247 106.646L164.301 108.644L167.173 116.344C167.717 117.817 168.857 118.499 169.946 118.16C170.244 118.067 170.541 117.899 170.816 117.649L176.127 112.874L183.75 113.551C184.154 113.584 184.497 113.551 184.794 113.458C185.889 113.11 186.24 111.962 185.544 110.533L181.945 103.067L182.768 99.842L183.223 98.0315C176.407 99.1964 169.373 98.3992 162.878 95.9376L162.87 95.9348Z" fill="#155C6D"/>
<path d="M181.247 92.6306H181.269L173.741 92.7878L170.85 90.489L167.235 87.6176C166.449 86.986 165.668 86.7867 165.062 86.9832C164.456 87.1769 164.012 87.7551 163.886 88.6729L163.294 92.8748L162.867 95.9343C169.362 98.396 176.399 99.1959 183.211 98.0283L183.776 95.794C184.228 94.0144 183.091 92.5913 181.244 92.6306H181.247Z" fill="#155C6D"/>
<path d="M185.817 111.37C185.519 111.462 185.165 111.499 184.772 111.462L177.149 110.786L171.838 115.56C171.563 115.807 171.266 115.979 170.968 116.071C169.873 116.419 168.742 115.74 168.195 114.255L165.324 106.556L162.272 104.557L158.452 102.045C157.672 101.532 157.217 100.886 157.094 100.24L156.987 100.316C155.558 101.313 155.749 103.036 157.439 104.131L161.259 106.643L164.313 108.641L167.185 116.341C167.729 117.814 168.869 118.496 169.958 118.157C170.255 118.064 170.553 117.896 170.828 117.646L176.138 112.871L183.762 113.548C184.166 113.582 184.509 113.548 184.806 113.455C185.676 113.18 186.066 112.386 185.842 111.359C185.842 111.359 185.831 111.37 185.819 111.37H185.817Z" fill="#155C6D"/>
<path d="M128.677 152.358C129.581 152.358 129.581 150.955 128.677 150.955C127.773 150.955 127.773 152.358 128.677 152.358Z" fill="#70C5AD"/>
<path d="M188.804 111.579C197.536 110.594 198.336 109.796 199.318 101.064C200.303 109.796 201.101 110.596 209.833 111.579C201.101 112.564 200.301 113.361 199.318 122.093C198.333 113.361 197.536 112.561 188.804 111.579Z" fill="#70C5AD"/>
</svg>
