<svg width="411" height="300" viewBox="0 0 411 300" fill="none" xmlns="http://www.w3.org/2000/svg">
<path d="M235.416 83.1978L235.616 83.1987L235.517 115.92L235.217 115.747L207.63 99.7114L235.314 83.0269L235.416 83.1978ZM208.415 99.7056L235.118 115.226L235.215 83.5513L208.415 99.7056ZM235.616 83.1987L235.416 83.1978L235.314 83.0269L235.618 82.8433L235.616 83.1987Z" fill="#07303A"/>
<path d="M284.585 170.496L248.621 66.1994C247.856 63.9818 245.655 62.7516 243.492 63.0421L243.506 63.0318L225.631 64.5387C223.899 64.6959 222.218 65.2221 220.704 66.0798L149.678 106.383L151.086 105.976L164.535 106.3C166.619 106.35 168.453 107.688 169.138 109.657L205.532 214.37C206.51 217.203 209.831 218.436 212.421 216.929L282.487 176.158C284.452 175.017 285.33 172.645 284.592 170.496H284.585Z" fill="#94B2C9"/>
<path d="M205.91 214.238V214.239L206 214.479C206.995 216.902 209.922 217.921 212.22 216.584L282.285 175.813L282.286 175.812L282.487 176.158L212.421 216.93L212.176 217.063C209.626 218.357 206.479 217.114 205.532 214.37L169.138 109.657L169.137 109.656L169.516 109.525L205.91 214.238ZM284.592 170.496C285.33 172.645 284.451 175.016 282.487 176.157L282.286 175.812C284.021 174.804 284.831 172.749 284.279 170.837L284.207 170.626L284.585 170.496H284.592ZM243.492 63.042C245.588 62.7609 247.718 63.9064 248.545 65.9942L248.621 66.1993L284.584 170.495L284.207 170.626L248.242 66.3301C247.542 64.301 245.528 63.1722 243.545 63.4385L242.023 63.6426L242.149 63.5479L225.666 64.9366L225.667 64.9375C223.992 65.0896 222.366 65.5983 220.902 66.4278L220.704 66.0791C222.123 65.2753 223.689 64.7628 225.307 64.5723L225.631 64.5391L225.635 64.5772L225.631 64.5381L243.506 63.0323L243.492 63.042ZM164.545 105.899C166.796 105.954 168.777 107.399 169.516 109.525L169.137 109.656C168.452 107.688 166.619 106.35 164.535 106.3L164.534 106.299L164.545 105.899ZM220.703 66.0801L220.902 66.4278L151.877 105.595L164.545 105.899L164.534 106.299L151.086 105.977L149.678 106.383L220.703 66.0801Z" fill="#07303A"/>
<path d="M176.484 106.576L240.888 69.5431C243.468 68.0602 246.766 69.2937 247.736 72.1093L280.796 167.98C281.534 170.122 280.655 172.483 278.698 173.624L214.451 211.01C211.868 212.513 208.56 211.283 207.583 208.457L174.366 112.235C173.624 110.086 174.513 107.711 176.484 106.576Z" fill="#121212"/>
<path d="M240.888 69.5437C243.388 68.107 246.56 69.2195 247.638 71.8503L247.736 72.1091L280.796 167.98C281.533 170.122 280.656 172.483 278.698 173.625L214.451 211.01L214.207 211.142C211.663 212.434 208.53 211.195 207.583 208.458L207.582 208.457L207.961 208.327C208.856 210.915 211.885 212.04 214.25 210.664L278.496 173.279L278.662 173.177C280.284 172.133 281.023 170.144 280.476 168.295L280.418 168.11L247.358 72.24C246.497 69.7426 243.637 68.6045 241.311 69.7702L241.088 69.8904L176.684 106.924C174.879 107.962 174.065 110.136 174.744 112.104L207.961 208.327L207.582 208.457L174.366 112.235C173.624 110.086 174.513 107.711 176.484 106.577V106.576L240.888 69.5437Z" fill="#07303A"/>
<path d="M180.096 114.246C180.793 114.178 181.293 113.462 181.213 112.646C181.133 111.831 180.503 111.226 179.806 111.295C179.109 111.363 178.609 112.079 178.689 112.894C178.769 113.709 179.399 114.315 180.096 114.246Z" fill="#94B2C9"/>
<path d="M180.815 112.686C180.75 112.03 180.266 111.652 179.845 111.693C179.424 111.734 179.023 112.2 179.088 112.856C179.152 113.511 179.636 113.89 180.057 113.849L180.096 114.246L179.966 114.251C179.365 114.239 178.84 113.733 178.711 113.045L178.689 112.895C178.609 112.08 179.109 111.363 179.806 111.295L179.936 111.29C180.579 111.303 181.137 111.883 181.212 112.647L181.221 112.798C181.23 113.549 180.749 114.182 180.096 114.246L180.057 113.849C180.477 113.807 180.879 113.342 180.815 112.686Z" fill="#07303A"/>
<path d="M184.324 111.811C185.02 111.742 185.52 111.026 185.44 110.211C185.36 109.396 184.731 108.791 184.034 108.859C183.337 108.927 182.837 109.644 182.917 110.459C182.997 111.274 183.627 111.879 184.324 111.811Z" fill="#94B2C9"/>
<path d="M185.043 110.25C184.978 109.594 184.493 109.216 184.073 109.257C183.652 109.299 183.251 109.764 183.316 110.42C183.38 111.076 183.864 111.454 184.285 111.413L184.324 111.811L184.194 111.816C183.593 111.803 183.067 111.298 182.939 110.609L182.917 110.459C182.837 109.644 183.337 108.928 184.034 108.859L184.164 108.854C184.807 108.867 185.365 109.447 185.44 110.211L185.449 110.363C185.458 111.113 184.977 111.746 184.324 111.811L184.285 111.413C184.705 111.372 185.107 110.906 185.043 110.25Z" fill="#07303A"/>
<path d="M188.5 109.422C189.197 109.354 189.697 108.637 189.617 107.822C189.537 107.007 188.907 106.402 188.211 106.47C187.514 106.539 187.014 107.255 187.094 108.07C187.174 108.885 187.804 109.49 188.5 109.422Z" fill="#94B2C9"/>
<path d="M189.219 107.862C189.155 107.206 188.67 106.827 188.25 106.869C187.829 106.91 187.428 107.375 187.492 108.031C187.557 108.687 188.041 109.066 188.461 109.024L188.5 109.422L188.37 109.427C187.77 109.414 187.244 108.909 187.116 108.221L187.094 108.071C187.014 107.255 187.514 106.539 188.21 106.47L188.34 106.465C188.984 106.479 189.542 107.059 189.617 107.823L189.626 107.974C189.634 108.724 189.154 109.358 188.5 109.422L188.461 109.024C188.882 108.983 189.284 108.518 189.219 107.862Z" fill="#07303A"/>
<path d="M207.768 90.261L217.588 205.133L238.456 192.969L229.619 77.6079L207.768 90.261Z" fill="#07303A"/>
<path d="M234.417 74.8238L244.965 189.238L249.646 186.525L240.072 71.5435L234.417 74.8238Z" fill="#07303A"/>
<path d="M232.188 143.197C230.832 143.976 229.513 144.734 228.163 145.51C226.031 139.356 223.909 133.233 221.773 127.069C223.095 126.307 224.421 125.545 225.791 124.755C227.913 130.875 230.042 137.009 232.192 143.197H232.188Z" fill="#F35F5F"/>
<path d="M232.192 143.197H232.188C230.832 143.976 229.512 144.735 228.163 145.51L221.773 127.069C223.095 126.307 224.421 125.545 225.792 124.755C227.914 130.875 230.043 137.009 232.192 143.197ZM222.258 127.25C224.305 133.156 226.338 139.026 228.381 144.922C229.492 144.284 230.588 143.655 231.705 143.013C229.646 137.085 227.606 131.207 225.572 125.342C224.447 125.99 223.351 126.62 222.258 127.25Z" fill="#07303A"/>
<path d="M231.364 154.794C230.831 153.26 230.315 151.77 229.789 150.246C231.138 149.471 232.467 148.709 233.838 147.923C234.357 149.419 234.88 150.923 235.416 152.471C234.087 153.233 232.744 154.005 231.367 154.794H231.364Z" fill="#F35F5F"/>
<path d="M235.416 152.471L231.368 154.794H231.364C230.831 153.26 230.315 151.77 229.789 150.246C231.138 149.471 232.467 148.709 233.837 147.923C234.357 149.419 234.88 150.923 235.416 152.471ZM230.274 150.428C230.711 151.693 231.142 152.938 231.583 154.208C232.719 153.557 233.825 152.921 234.929 152.288C234.485 151.007 234.05 149.755 233.618 148.51C232.491 149.156 231.388 149.788 230.274 150.428Z" fill="#07303A"/>
<path d="M247.131 129.103C248.546 128.289 249.879 127.524 251.273 126.721C252.356 129.83 253.426 132.889 254.512 136.005C255.906 135.205 257.242 134.436 258.609 133.654C260.232 138.301 261.838 142.897 263.461 147.544C245.573 157.798 227.723 168.032 209.869 178.269C208.283 173.663 206.695 169.054 205.092 164.393C206.435 163.621 207.767 162.859 209.155 162.063C208.082 158.95 207.026 155.892 205.956 152.782C207.344 151.986 208.673 151.221 210.064 150.421C208.991 147.315 207.938 144.264 206.869 141.161C208.26 140.362 209.585 139.596 210.976 138.797C209.903 135.694 208.851 132.646 207.778 129.54C209.165 128.74 210.491 127.978 211.885 127.175C211.345 125.614 210.822 124.107 210.282 122.542C211.677 121.739 213.002 120.974 214.396 120.171C213.324 117.068 212.268 114.023 211.205 110.958C215.333 108.577 219.396 106.233 223.527 103.851C224.589 106.913 225.649 109.954 226.725 113.056C228.119 112.253 229.452 111.485 230.829 110.692C231.369 112.243 231.888 113.74 232.435 115.312C233.826 114.512 235.168 113.736 236.552 112.94C237.636 116.05 238.691 119.087 239.775 122.197C241.162 121.397 242.508 120.625 243.896 119.825C244.979 122.935 246.038 125.976 247.131 129.106V129.103ZM213.46 131.778C214.54 134.894 215.589 137.935 216.665 141.045C215.278 141.844 213.935 142.613 212.551 143.409C213.628 146.522 214.68 149.567 215.753 152.683C214.366 153.479 213.023 154.252 211.625 155.055C212.705 158.184 213.761 161.246 214.837 164.362C213.447 165.162 212.114 165.924 210.781 166.689C211.325 168.261 211.847 169.778 212.37 171.295C227.487 162.623 242.59 153.961 257.724 145.279C257.181 143.724 256.655 142.21 256.105 140.638C254.731 141.428 253.395 142.193 251.997 142.996C250.911 139.876 249.841 136.815 248.758 133.702C247.364 134.501 246.028 135.27 244.634 136.073C243.55 132.964 242.484 129.906 241.405 126.796C240.01 127.599 238.678 128.364 237.28 129.167C236.2 126.061 235.138 123.007 234.058 119.901C232.664 120.704 231.331 121.469 229.934 122.275C229.39 120.71 228.868 119.204 228.324 117.642C226.927 118.448 225.597 119.214 224.217 120.01C223.144 116.918 222.652 113.887 221.589 110.818C220.195 111.621 218.292 112.394 216.881 113.21C217.947 116.285 219.003 119.33 220.076 122.433C218.678 123.239 217.349 124.001 215.955 124.807C216.498 126.372 217.017 127.879 217.554 129.424C216.17 130.22 214.851 130.978 213.457 131.781L213.46 131.778Z" fill="#F35F5F"/>
<path d="M226.725 113.056C228.119 112.253 229.452 111.485 230.829 110.692C231.369 112.243 231.888 113.74 232.435 115.312C233.825 114.512 235.168 113.736 236.552 112.94C237.635 116.049 238.691 119.087 239.775 122.197C241.162 121.397 242.508 120.625 243.896 119.826C244.979 122.935 246.038 125.976 247.131 129.106V129.103C248.546 128.29 249.879 127.524 251.273 126.721C252.356 129.83 253.425 132.888 254.512 136.004C255.906 135.205 257.243 134.436 258.61 133.654L263.461 147.544C245.573 157.799 227.723 168.032 209.869 178.269L205.092 164.393C206.435 163.621 207.767 162.859 209.154 162.063L209.533 161.932L209.641 162.245L209.354 162.41C208.064 163.15 206.823 163.859 205.577 164.575C207.09 168.975 208.591 173.33 210.089 177.681C227.707 167.579 245.322 157.481 262.974 147.362C262.199 145.144 261.428 142.938 260.657 140.731C259.903 138.571 259.148 136.411 258.39 134.241C257.168 134.941 255.963 135.634 254.711 136.352L254.293 136.591L254.135 136.136L251.054 127.308C249.809 128.025 248.604 128.718 247.331 129.45L247.168 129.167L246.754 129.238L243.676 120.413C243.125 120.73 242.58 121.044 242.034 121.358C241.351 121.751 240.668 122.144 239.975 122.543L239.556 122.785L239.397 122.329C238.855 120.774 238.32 119.236 237.785 117.7C237.303 116.313 236.821 114.927 236.333 113.527C235.097 114.239 233.883 114.94 232.634 115.659L232.216 115.899L232.057 115.443L232.435 115.312L232.434 115.311L232.057 115.443C231.564 114.025 231.093 112.669 230.61 111.279C229.38 111.987 228.178 112.681 226.925 113.403L226.506 113.644L226.347 113.188L223.307 104.439C219.415 106.683 215.58 108.895 211.691 111.139C212.717 114.099 213.738 117.042 214.775 120.04L214.883 120.352L214.596 120.517C213.899 120.918 213.219 121.311 212.539 121.703C211.953 122.041 211.365 122.378 210.768 122.722C211.27 124.176 211.759 125.586 212.263 127.044L212.371 127.357L212.084 127.522C210.786 128.27 209.547 128.981 208.263 129.721C209.299 132.72 210.317 135.667 211.354 138.666L211.462 138.978L211.175 139.143C210.48 139.543 209.801 139.934 209.122 140.326C208.537 140.663 207.951 141 207.355 141.343C208.387 144.338 209.405 147.289 210.442 150.291L210.063 150.42C208.99 147.315 207.938 144.263 206.868 141.161C208.259 140.361 209.585 139.596 210.976 138.796C209.903 135.694 208.85 132.646 207.777 129.54C209.165 128.74 210.491 127.978 211.885 127.175C211.345 125.614 210.822 124.106 210.282 122.542C211.677 121.739 213.002 120.973 214.397 120.17C213.324 117.068 212.268 114.023 211.205 110.958C215.333 108.577 219.395 106.233 223.527 103.851C224.589 106.913 225.648 109.954 226.725 113.056ZM221.967 110.687C222.505 112.24 222.898 113.781 223.287 115.306C223.639 116.682 223.987 118.046 224.44 119.418C225.671 118.709 226.87 118.019 228.124 117.295L228.543 117.054L228.702 117.51C229.193 118.919 229.666 120.284 230.152 121.687C231.399 120.968 232.605 120.276 233.859 119.554L234.277 119.313L236.047 124.403C236.53 125.792 237.013 127.181 237.499 128.58C238.746 127.863 239.951 127.172 241.205 126.45L241.624 126.208L244.852 135.486C246.097 134.769 247.304 134.074 248.559 133.355L248.978 133.115L249.136 133.571C250.166 136.532 251.184 139.446 252.216 142.409C253.466 141.691 254.665 141.004 255.905 140.292L256.322 140.051L258.211 145.46L212.15 171.883L211.992 171.425C211.47 169.908 210.947 168.391 210.403 166.82L210.781 166.689C211.325 168.261 211.847 169.778 212.37 171.295C227.487 162.623 242.59 153.961 257.724 145.279C257.18 143.724 256.655 142.21 256.105 140.638C254.731 141.427 253.395 142.193 251.997 142.996C250.911 139.876 249.841 136.814 248.758 133.702C247.364 134.501 246.028 135.27 244.634 136.073C243.551 132.963 242.484 129.906 241.404 126.796C240.01 127.599 238.678 128.365 237.28 129.167C236.201 126.062 235.138 123.007 234.058 119.901C232.664 120.704 231.331 121.47 229.934 122.276C229.39 120.711 228.868 119.204 228.324 117.642C226.927 118.448 225.597 119.214 224.217 120.01C223.144 116.918 222.652 113.886 221.589 110.818C220.195 111.621 218.292 112.394 216.881 113.21C217.947 116.285 219.003 119.33 220.075 122.432C218.678 123.239 217.347 124.001 215.953 124.807L215.754 124.461C217.052 123.71 218.297 122.996 219.589 122.25C218.553 119.256 217.533 116.313 216.503 113.341L216.395 113.03L216.68 112.864L217.242 112.553C217.823 112.245 218.451 111.943 219.069 111.648C219.899 111.251 220.709 110.864 221.39 110.472L221.809 110.23L221.967 110.687ZM214.837 164.363C213.447 165.162 212.114 165.924 210.781 166.689L210.403 166.82L210.295 166.507L214.351 164.179C213.312 161.171 212.291 158.21 211.247 155.185L211.625 155.054C212.705 158.184 213.761 161.247 214.837 164.363ZM210.55 150.603L210.263 150.768C208.969 151.512 207.727 152.226 206.443 152.963C207.475 155.966 208.496 158.923 209.533 161.932L209.153 162.062C208.081 158.95 207.026 155.892 205.956 152.783C207.343 151.987 208.673 151.221 210.064 150.421L210.442 150.291L210.55 150.603ZM217.554 129.423C216.171 130.219 214.853 130.977 213.46 131.779C214.54 134.895 215.589 137.935 216.665 141.044C215.278 141.844 213.935 142.614 212.551 143.41C213.627 146.523 214.68 149.567 215.753 152.683L211.625 155.054L211.247 155.185L211.14 154.873L211.426 154.708C212.727 153.96 213.98 153.239 215.267 152.5C214.231 149.493 213.213 146.549 212.173 143.541L212.066 143.228L212.352 143.063C213.641 142.321 214.893 141.604 216.179 140.863C215.14 137.861 214.126 134.921 213.082 131.909L213.402 131.797L213.174 131.499L213.629 131.043L213.68 131.191C214.824 130.532 215.926 129.898 217.067 129.242C216.569 127.808 216.081 126.393 215.576 124.939L215.953 124.807C216.497 126.372 217.017 127.879 217.554 129.423ZM215.953 124.807L215.576 124.939L215.468 124.626L215.754 124.461L215.953 124.807Z" fill="#07303A"/>
<path d="M273.353 156.969L276.821 166.974C277.453 168.795 276.705 170.808 275.041 171.775L267.011 176.446C271.754 171.077 274.06 164.667 273.353 156.965V156.969Z" fill="#07303A"/>
<path d="M280.79 167.977L247.73 72.1068C247.036 70.0942 245.15 68.8948 243.189 68.9153C243.934 69.462 244.535 70.2308 244.867 71.1842L277.926 167.054C278.664 169.197 277.786 171.558 275.828 172.699L211.581 210.084C210.84 210.515 210.04 210.713 209.254 210.723C210.714 211.793 212.736 212.001 214.445 211.007L278.692 173.622C280.649 172.484 281.528 170.119 280.79 167.977Z" fill="#07303A"/>
<path d="M211.581 210.084L211.783 210.43C211.371 210.669 210.942 210.84 210.508 210.954C211.683 211.407 213.048 211.357 214.244 210.661L278.491 173.276L278.656 173.175C280.278 172.133 281.018 170.142 280.47 168.292L280.412 168.107L247.352 72.2371C246.855 70.7958 245.689 69.8112 244.342 69.4597C244.723 69.9181 245.035 70.4502 245.245 71.0525V71.0535L278.304 166.924L277.925 167.053L244.867 71.1843C244.535 70.231 243.934 69.4615 243.189 68.9148C245.089 68.895 246.919 70.0204 247.662 71.9207L247.73 72.1062L280.79 167.976C281.528 170.119 280.65 172.484 278.692 173.622L214.445 211.007L214.121 211.179C212.485 211.972 210.622 211.726 209.254 210.723C210.04 210.713 210.839 210.514 211.581 210.084ZM275.828 172.699L276.03 173.045H276.029L211.783 210.429V210.43L211.582 210.084L275.828 172.699ZM278.304 166.924C279.105 169.247 278.152 171.807 276.03 173.045L275.828 172.698C277.785 171.557 278.664 169.197 277.926 167.054L277.925 167.053L278.304 166.924Z" fill="#07303A"/>
<path d="M129.263 185.503L206.983 232.237L200.727 235.767C198.263 237.157 195.311 237.383 192.663 236.389L109.257 201.58C107.101 200.681 106.944 197.688 108.994 196.567L129.26 185.503" fill="#07303A"/>
<path d="M129.26 185.503L129.262 185.506V185.504L206.984 232.237L200.727 235.767C198.263 237.157 195.311 237.383 192.663 236.389L192.662 236.388L109.257 201.58C107.101 200.681 106.944 197.688 108.994 196.567H108.993L129.26 185.503ZM109.186 196.918C107.43 197.878 107.565 200.442 109.411 201.211L192.803 236.014H192.804C195.342 236.967 198.17 236.75 200.53 235.418L206.189 232.226L129.253 185.963L109.186 196.918Z" fill="#07303A"/>
<path d="M129.96 165.657L154.392 150.933L154.293 183.309L129.987 169.183C128.641 168.401 128.624 166.46 129.96 165.657Z" fill="#94B2C9"/>
<path d="M154.293 183.309L129.987 169.183C128.641 168.401 128.624 166.46 129.96 165.657L130.167 165.999H130.166C129.092 166.645 129.105 168.207 130.189 168.837L153.895 182.615L153.988 151.643L130.167 165.999L129.96 165.656L154.392 150.933L154.293 183.309Z" fill="#07303A"/>
<path d="M169.396 109.691L205.504 214.285C206.498 217.162 209.871 218.412 212.499 216.885L281.813 176.551C283.238 175.731 284.061 174.805 284.526 173.814L278.129 189.829C277.606 191.135 276.66 192.228 275.44 192.928L202.76 234.67C200.091 236.205 196.808 236.198 194.142 234.66L131.297 197.784C129.855 196.94 128.973 195.392 128.977 193.721L128.97 167.482C128.97 167.482 128.97 168.6 130.06 169.204L146.424 178.741C147.493 179.366 148.836 178.594 148.836 177.354V163.983L148.457 112.91V108.608C148.457 107.155 149.636 105.977 151.088 105.977H164.182C166.533 105.977 168.628 107.47 169.396 109.691Z" fill="#2B545E"/>
<path d="M131.499 197.439L194.342 234.313L194.582 234.447C197.079 235.78 200.095 235.74 202.561 234.323L202.759 234.67C200.09 236.204 196.808 236.198 194.143 234.66L131.297 197.784L131.499 197.439ZM278.129 189.829L278.026 190.071C277.487 191.27 276.583 192.272 275.439 192.929L202.759 234.67L202.561 234.323L275.241 192.582L275.452 192.454C276.492 191.797 277.299 190.826 277.758 189.681L278.129 189.829ZM205.504 214.284C206.498 217.161 209.87 218.412 212.498 216.885L212.699 217.23C209.943 218.833 206.43 217.612 205.234 214.702L205.126 214.415L169.019 109.821L169.396 109.69L205.504 214.284ZM284.524 173.813L278.129 189.829L277.758 189.681L283.18 176.104C282.839 176.378 282.452 176.642 282.013 176.896L282.014 176.896L212.699 217.23L212.498 216.885L281.812 176.551C283.237 175.731 284.06 174.804 284.524 173.813ZM128.97 167.482C128.97 167.499 128.978 168.604 130.06 169.204L146.424 178.741C147.46 179.347 148.752 178.641 148.832 177.469L148.836 177.354V163.983L148.457 112.909V108.607C148.457 107.246 149.493 106.125 150.819 105.99L151.088 105.977H164.182L164.401 105.98C166.662 106.07 168.652 107.539 169.396 109.69L169.019 109.821C168.305 107.761 166.362 106.377 164.182 106.377H151.088C149.857 106.377 148.858 107.376 148.857 108.607V112.909L149.236 163.98V177.354C149.236 178.902 147.559 179.869 146.222 179.087L129.858 169.55C129.669 169.444 129.508 169.322 129.37 169.195L129.377 193.721L129.386 194.007C129.476 195.425 130.263 196.716 131.499 197.439L131.296 197.783C129.855 196.939 128.973 195.392 128.977 193.722L128.97 167.482Z" fill="#07303A"/>
<path d="M228.382 212.185L266.885 189.763C267.473 189.421 268.16 190.016 267.907 190.645L266.294 194.68C266.075 195.223 265.682 195.678 265.177 195.968L227.743 217.468C227.156 217.806 226.448 217.277 226.605 216.617L227.344 213.573C227.484 212.988 227.859 212.489 228.375 212.185H228.382Z" fill="#94B2C9"/>
<path d="M266.885 189.763C267.473 189.421 268.159 190.016 267.906 190.645L266.294 194.68L266.204 194.88C265.976 195.335 265.618 195.714 265.176 195.968L264.978 195.621C265.404 195.376 265.737 194.992 265.923 194.531L267.535 190.496V190.495L267.552 190.445C267.605 190.207 267.365 189.997 267.135 190.085L267.086 190.109L228.583 212.532L228.528 212.563C228.13 212.815 227.842 213.209 227.733 213.666V213.667L227.492 213.609L227.385 213.582L227.733 213.667L226.994 216.711C226.919 217.03 227.262 217.284 227.544 217.121L264.978 195.621L265.176 195.968H265.177L227.743 217.468L227.632 217.522C227.071 217.74 226.458 217.236 226.605 216.617L226.754 216.653L226.606 216.616L227.344 213.573C227.484 212.988 227.859 212.49 228.375 212.186H228.382L266.885 189.763Z" fill="#07303A"/>
<path d="M267.454 189.7C267.519 189.857 267.529 190.045 267.454 190.236L265.841 194.272C265.622 194.815 265.229 195.269 264.724 195.56L227.29 217.059C227.078 217.182 226.849 217.189 226.651 217.118C226.825 217.504 227.314 217.716 227.741 217.473L265.175 195.973C265.68 195.683 266.077 195.228 266.292 194.685L267.905 190.65C268.076 190.226 267.819 189.819 267.454 189.703V189.7Z" fill="#07303A"/>
<path d="M267.455 189.704C267.82 189.82 268.076 190.227 267.905 190.65L266.292 194.685C266.077 195.228 265.68 195.683 265.175 195.973L227.741 217.473L227.661 217.513C227.255 217.689 226.815 217.48 226.651 217.118C226.849 217.189 227.078 217.182 227.29 217.059L264.723 195.56C265.166 195.306 265.522 194.926 265.751 194.471L265.841 194.272L266.001 194.335L265.841 194.271L267.454 190.236C267.528 190.046 267.518 189.86 267.455 189.704ZM267.534 190.267H267.533L267.517 190.261L267.48 190.247L267.534 190.267Z" fill="#07303A"/>
<path d="M132.033 177.744V174.789L140.784 179.87L140.801 182.378C140.801 182.805 140.343 183.075 139.971 182.859L132.508 178.568C132.214 178.397 132.033 178.086 132.033 177.748V177.744Z" fill="#94B2C9"/>
<path d="M140.784 179.87L140.801 182.377C140.801 182.805 140.343 183.075 139.971 182.86L132.508 178.568C132.25 178.418 132.08 178.161 132.042 177.873L132.033 177.748V174.789L140.784 179.87ZM132.433 177.748C132.433 177.94 132.535 178.121 132.707 178.221H132.708L140.17 182.513H140.171L140.21 182.529C140.302 182.553 140.4 182.488 140.401 182.38L140.385 180.1L132.433 175.483V177.748Z" fill="#07303A"/>
<path d="M140.543 182.443L133.08 178.151C132.786 177.983 132.605 177.669 132.605 177.331V175.117L132.042 174.789V177.744C132.042 178.083 132.223 178.397 132.516 178.564L139.979 182.856C140.307 183.044 140.707 182.856 140.789 182.511C140.707 182.508 140.622 182.487 140.543 182.443Z" fill="#07303A"/>
<path d="M132.605 175.117V177.331L132.614 177.457C132.652 177.745 132.823 178.003 133.08 178.15L133.065 178.177L133.081 178.151L140.543 182.443C140.622 182.487 140.707 182.508 140.789 182.511C140.706 182.856 140.307 183.044 139.979 182.856L132.516 178.564C132.259 178.417 132.089 178.159 132.05 177.87L132.042 177.745V174.789L132.605 175.117Z" fill="#07303A"/>
<path d="M132.033 185.506V182.551L140.784 187.632L140.801 190.14C140.801 190.567 140.343 190.837 139.971 190.622L132.508 186.33C132.214 186.159 132.033 185.848 132.033 185.51V185.506Z" fill="#94B2C9"/>
<path d="M140.784 187.632L140.801 190.14C140.801 190.567 140.343 190.837 139.971 190.622L132.508 186.33C132.25 186.18 132.08 185.923 132.042 185.635L132.033 185.51V182.551L140.784 187.632ZM132.433 185.51C132.433 185.703 132.535 185.883 132.707 185.983H132.708L140.17 190.275H140.171L140.21 190.291C140.302 190.315 140.4 190.25 140.401 190.143L140.385 187.862L132.433 183.245V185.51Z" fill="#07303A"/>
<path d="M140.543 190.205L133.08 185.913C132.786 185.746 132.605 185.431 132.605 185.093V182.879L132.042 182.551V185.506C132.042 185.845 132.223 186.159 132.516 186.327L139.979 190.618C140.307 190.806 140.707 190.618 140.789 190.273C140.707 190.27 140.622 190.249 140.543 190.205Z" fill="#07303A"/>
<path d="M132.605 182.879V185.093L132.614 185.219C132.652 185.507 132.823 185.766 133.08 185.912L133.065 185.939L133.081 185.913L140.543 190.205C140.622 190.249 140.707 190.27 140.789 190.273C140.706 190.618 140.307 190.806 139.979 190.618L132.516 186.326C132.259 186.18 132.089 185.921 132.05 185.632L132.042 185.507V182.551L132.605 182.879Z" fill="#07303A"/>
<path d="M132.033 193.204V190.249L140.784 195.33L140.801 197.838C140.801 198.265 140.343 198.535 139.971 198.319L132.508 194.028C132.214 193.857 132.033 193.546 132.033 193.208V193.204Z" fill="#94B2C9"/>
<path d="M140.784 195.33L140.801 197.837C140.801 198.265 140.343 198.535 139.971 198.32L132.508 194.028C132.25 193.878 132.08 193.621 132.042 193.333L132.033 193.208V190.249L140.784 195.33ZM132.433 193.208C132.433 193.4 132.535 193.581 132.707 193.681H132.708L140.17 197.973H140.171L140.21 197.989C140.302 198.013 140.4 197.948 140.401 197.84L140.385 195.56L132.433 190.943V193.208Z" fill="#07303A"/>
<path d="M140.543 197.903L133.08 193.611C132.786 193.443 132.605 193.129 132.605 192.791V190.577L132.041 190.249V193.204C132.041 193.543 132.223 193.857 132.516 194.024L139.979 198.316C140.307 198.504 140.707 198.316 140.789 197.971C140.707 197.968 140.622 197.947 140.543 197.903Z" fill="#07303A"/>
<path d="M132.605 190.577V192.791L132.614 192.917C132.652 193.205 132.823 193.463 133.08 193.61L133.065 193.637L133.081 193.611L140.543 197.903C140.622 197.947 140.707 197.968 140.789 197.971C140.706 198.316 140.307 198.504 139.979 198.316L132.516 194.024C132.259 193.877 132.089 193.619 132.05 193.33L132.041 193.205V190.249L132.605 190.577Z" fill="#07303A"/>
<path d="M128.965 173.025L128.968 172.358L149.026 184.103L149.022 184.769L128.965 173.025Z" fill="#94B2C9"/>
<path d="M149.026 184.103H149.025L149.022 184.769L128.965 173.024L128.968 172.358L149.026 184.103Z" fill="#07303A"/>
<path d="M128.965 181.068L128.968 180.401L150.393 192.945L150.399 193.615L128.965 181.068Z" fill="#94B2C9"/>
<path d="M150.391 192.944V192.945H150.392L150.399 193.615L128.965 181.067L128.968 180.401L150.391 192.944Z" fill="#07303A"/>
<path d="M128.97 188.531V187.864L153.435 202.222L153.442 202.872L128.97 188.531Z" fill="#94B2C9"/>
<path d="M153.436 202.223L153.442 202.872L128.97 188.53V187.864L153.436 202.223Z" fill="#07303A"/>
<path d="M193.381 225.133C193.381 227.559 190.757 229.072 188.655 227.856L169.906 217.007C168.276 216.064 167.271 214.325 167.271 212.442C167.271 209.869 170.06 208.266 172.284 209.561L190.541 220.199C192.298 221.22 193.377 223.1 193.377 225.129L193.381 225.133Z" fill="#07303A"/>
<path d="M189.222 227.191L170.473 216.342C168.843 215.399 167.839 213.66 167.839 211.777C167.839 211.1 168.037 210.492 168.362 209.986C167.705 210.581 167.271 211.435 167.271 212.447C167.271 214.329 168.276 216.069 169.906 217.012L188.655 227.861C190.21 228.759 192.052 228.161 192.902 226.801C191.946 227.659 190.49 227.925 189.222 227.191Z" fill="#07303A"/>
<path d="M168.361 209.986C168.037 210.492 167.839 211.1 167.839 211.776L167.851 212.128C167.967 213.874 168.946 215.458 170.474 216.342L189.223 227.19C190.49 227.925 191.946 227.659 192.902 226.802C192.078 228.119 190.324 228.721 188.802 227.94L188.655 227.86L169.906 217.012L169.905 217.011L170.106 216.665L188.856 227.515L189.112 227.646C189.29 227.726 189.472 227.784 189.653 227.823C189.44 227.749 189.228 227.657 189.022 227.537V227.536L170.272 216.688C169.314 216.134 168.558 215.321 168.068 214.369C168.477 215.318 169.182 216.13 170.106 216.665L169.905 217.011C168.378 216.127 167.4 214.543 167.283 212.798L167.271 212.446C167.272 211.435 167.705 210.581 168.361 209.986Z" fill="#07303A"/>
<path d="M174.43 215.785C174.43 217.631 173.135 218.375 171.542 217.449C169.95 216.523 168.658 214.282 168.658 212.44C168.658 210.598 169.95 209.85 171.542 210.773C173.135 211.695 174.433 213.94 174.433 215.785H174.43Z" fill="#2B545E"/>
<path d="M168.658 212.44C168.658 210.599 169.95 209.851 171.542 210.773C173.134 211.696 174.433 213.941 174.433 215.786H174.43L174.426 215.955C174.351 217.62 173.165 218.303 171.69 217.532L171.542 217.45C170.049 216.582 168.821 214.557 168.673 212.79L168.658 212.44ZM169.059 212.44C169.059 213.274 169.353 214.227 169.85 215.089C170.346 215.95 171.022 216.685 171.743 217.104C172.467 217.525 173.029 217.515 173.384 217.31C173.739 217.106 174.029 216.624 174.029 215.786V215.694C174.009 214.881 173.718 213.965 173.238 213.134C172.74 212.271 172.063 211.537 171.342 211.119C170.619 210.7 170.057 210.711 169.703 210.916C169.349 211.121 169.059 211.603 169.059 212.44Z" fill="#07303A"/>
<path d="M172.269 210.284C171.237 209.69 170.068 209.888 169.556 210.53C170.071 210.264 170.769 210.315 171.537 210.759C173.133 211.682 174.428 213.927 174.428 215.772C174.428 216.425 174.264 216.934 173.984 217.286C174.541 216.999 175.101 216.117 175.101 215.164C175.101 213.319 173.864 211.203 172.269 210.281V210.284Z" fill="#94B2C9"/>
</svg>
