<svg width="411" height="300" viewBox="0 0 411 300" fill="none" xmlns="http://www.w3.org/2000/svg">
<g clip-path="url(#clip0_9503_10535)">
<path d="M121.057 17.9888C137.585 17.1837 138.24 16.5312 139.045 0C139.851 16.5285 140.503 17.1837 157.034 17.9888C140.506 18.7939 139.851 19.4464 139.045 35.9776C138.24 19.449 137.588 18.7939 121.057 17.9888Z" fill="#C8DAE8" stroke="#155C6D" stroke-width="0.4" stroke-linejoin="round"/>
<path d="M257.668 149.837C268.124 149.327 268.537 148.914 269.047 138.458C269.558 148.914 269.971 149.327 280.427 149.837C269.971 150.348 269.558 150.761 269.047 161.217C268.537 150.761 268.124 150.348 257.668 149.837Z" fill="#C8DAE8" stroke="#155C6D" stroke-width="0.4" stroke-linejoin="round"/>
<path opacity="0.31" d="M128.784 134.428C130.499 134.428 131.889 133.038 131.889 131.323C131.889 129.609 130.499 128.219 128.784 128.219C127.07 128.219 125.68 129.609 125.68 131.323C125.68 133.038 127.07 134.428 128.784 134.428Z" fill="#C8DAE8" stroke="#155C6D" stroke-width="0.4" stroke-linejoin="round"/>
<path d="M262.712 43.9047C264.427 43.9047 265.817 42.5147 265.817 40.8C265.817 39.0853 264.427 37.6953 262.712 37.6953C260.997 37.6953 259.607 39.0853 259.607 40.8C259.607 42.5147 260.997 43.9047 262.712 43.9047Z" fill="#C8DAE8" stroke="#155C6D" stroke-width="0.4" stroke-linejoin="round"/>
<path d="M129.661 66.4143C139.278 58.842 188.385 31.5312 188.385 31.5312L195.115 33.8098L170.619 53.4351L221.678 57.7027L215.406 34.9464C216.882 33.1494 233.65 36.8697 236.849 38.2984C240.128 39.7613 284.07 84.6267 284.07 84.6267L129.661 66.4143Z" fill="#C8DAE8" stroke="#155C6D" stroke-width="0.4" stroke-linejoin="round"/>
<path d="M273.698 105.462L119.003 87.0553L119.753 77.5702C121.597 62.081 161.492 54.093 208.863 59.7288C210.339 59.905 211.807 60.0919 213.262 60.2892L213.872 78.7726L273.695 105.462H273.698Z" fill="#70C5AD" stroke="#155C6D" stroke-width="0.4" stroke-linejoin="round"/>
<path d="M291.302 97.9821L289.812 107.38L273.702 105.462L213.879 78.7725L213.269 60.2891C258.505 66.4327 293.091 82.9744 291.304 97.9821H291.302Z" fill="#70C5AD" stroke="#155C6D" stroke-width="0.4" stroke-linejoin="round"/>
<path d="M190.792 76.4256C189.077 76.2914 187.401 76.173 185.762 76.0704L186.79 67.4141C188.459 67.493 190.14 67.5851 191.829 67.6956L190.79 76.4256H190.792Z" fill="#155C6D" stroke="#155C6D" stroke-width="0.4" stroke-linejoin="round"/>
<path d="M185.264 54.663L198.809 40.7998L212.898 42.4758L214.627 57.1152L185.264 54.663Z" fill="#C8DAE8" stroke="#155C6D" stroke-width="0.4" stroke-linejoin="round"/>
<path d="M215.407 34.9512L221.679 57.7075L214.625 57.1181L212.896 42.4787C212.896 42.4787 214.594 37.2165 215.322 35.0933C215.341 35.0433 215.37 34.9959 215.407 34.9512Z" fill="#155C6D" stroke="#155C6D" stroke-width="0.4" stroke-linejoin="round"/>
<path d="M120.425 75.0207C121.301 74.5129 122.241 74.0209 123.246 73.5473C128.666 70.9873 135.796 68.9797 144.434 67.5826C145.318 67.4405 146.218 67.3037 147.125 67.1748L147.362 68.8876C146.468 69.0139 145.581 69.1481 144.707 69.2902C136.227 70.6636 129.255 72.6238 123.98 75.1128C122.398 75.86 120.993 76.6441 119.765 77.4624C119.875 76.6283 120.094 75.8153 120.42 75.026L120.425 75.0207Z" fill="#155C6D" stroke="#155C6D" stroke-width="0.4" stroke-linejoin="round"/>
<path d="M186.995 65.6956L186.79 67.4163C181.625 67.1769 176.568 67.0874 171.669 67.1453L171.427 65.4219C176.468 65.3561 181.675 65.4482 186.992 65.6982L186.995 65.6956Z" fill="#155C6D" stroke="#155C6D" stroke-width="0.4" stroke-linejoin="round"/>
<path d="M171.432 65.4196L171.674 67.143C162.973 67.2482 154.774 67.8297 147.368 68.8821L147.131 67.1693C154.545 66.1142 162.741 65.5301 171.434 65.417L171.432 65.4196Z" fill="#70C5AD" stroke="#155C6D" stroke-width="0.4" stroke-linejoin="round"/>
<path d="M170.618 53.4378L195.114 33.8125L198.808 40.8007L185.263 54.6639L170.618 53.4378Z" fill="#155C6D" stroke="#155C6D" stroke-width="0.4" stroke-linejoin="round"/>
<path d="M201.565 121.096C165.49 116.805 136.103 108.028 130.665 100.416C130.665 100.416 121.161 90.073 119.183 87.5577C117.201 85.0423 130.375 66.4984 206.98 75.6151C214.754 76.5413 221.827 77.5885 228.255 78.7277L220.809 122.872C214.654 122.475 208.203 121.886 201.567 121.096H201.565Z" fill="#70C5AD" stroke="#155C6D" stroke-width="0.4" stroke-linejoin="round"/>
<path d="M289.518 107.827C287.002 109.809 275.339 117.631 275.339 117.631C269.566 122.627 248.11 124.635 220.807 122.872L228.253 78.7275C285.182 88.8178 291.778 106.046 289.518 107.827Z" fill="#C8DAE8" stroke="#155C6D" stroke-width="0.4" stroke-linejoin="round"/>
<path d="M198.477 55.766C198.39 55.4108 198.361 55.0372 198.408 54.653C198.611 52.9533 200.153 51.7404 201.85 51.943C203.55 52.1456 204.762 53.6874 204.56 55.3845C204.523 55.6923 204.441 55.9844 204.326 56.2554L198.477 55.766Z" fill="#70C5AD" stroke="#155C6D" stroke-width="0.4" stroke-linejoin="round"/>
<path d="M186.79 67.4141L186.995 65.6934C188.663 65.7723 190.345 65.867 192.034 65.9749L191.829 67.693C190.139 67.5851 188.458 67.4904 186.79 67.4115V67.4141Z" fill="#70C5AD" stroke="#155C6D" stroke-width="0.4" stroke-linejoin="round"/>
<path d="M251.565 123.145L268.17 89.6016C269.233 90.0462 270.249 90.4935 271.217 90.9382L255.417 122.856C254.175 122.966 252.892 123.064 251.565 123.148V123.145Z" fill="#155C6D" stroke="#155C6D" stroke-width="0.4" stroke-linejoin="round"/>
<path d="M220.806 122.872L228.252 78.7275C240.497 80.8982 250.414 83.3977 258.413 86.0051L239.853 123.501C233.959 123.514 227.56 123.309 220.804 122.872H220.806Z" fill="#155C6D" stroke="#155C6D" stroke-width="0.4" stroke-linejoin="round"/>
<path d="M289.516 107.827C287.001 109.809 275.337 117.631 275.337 117.631C273.151 119.523 268.712 120.986 262.563 121.98L276.59 93.6406C289.174 100.621 290.824 106.799 289.516 107.827Z" fill="#155C6D" stroke="#155C6D" stroke-width="0.4" stroke-linejoin="round"/>
<path d="M130.156 97.0924C131.329 87.2284 165.065 83.1318 205.508 87.9441C245.95 92.7564 277.784 104.654 276.61 114.518C276.429 116.055 275.455 117.449 273.793 118.694C264.526 123.927 235.45 125.127 201.564 121.093C167.681 117.062 139.696 109.074 131.916 101.81C130.59 100.21 129.972 98.6237 130.156 97.0898V97.0924Z" fill="#70C5AD" stroke="#155C6D" stroke-width="0.4" stroke-linejoin="round"/>
<path d="M130.156 97.0924C131.329 87.2284 165.065 83.1318 205.508 87.9441C245.95 92.7564 277.784 104.654 276.61 114.518C276.429 116.055 275.455 117.449 273.793 118.694C264.526 123.927 235.45 125.127 201.564 121.093C167.681 117.062 139.696 109.074 131.916 101.81C130.59 100.21 129.972 98.6237 130.156 97.0898V97.0924Z" fill="#70C5AD" stroke="#155C6D" stroke-width="0.4" stroke-linejoin="round"/>
<path d="M264.79 96.4272L251.564 123.146C247.951 123.372 244.028 123.491 239.853 123.501L255.147 92.6016C258.628 93.825 261.854 95.1064 264.787 96.4272H264.79Z" fill="#70C5AD" stroke="#155C6D" stroke-width="0.4" stroke-linejoin="round"/>
<path d="M255.277 92.3379L258.414 86.0049C262.047 87.1889 265.286 88.3939 268.167 89.599L264.915 96.1688C264.076 95.7899 263.213 95.4163 262.321 95.0427C260.092 94.1087 257.737 93.2062 255.277 92.3379Z" fill="#70C5AD" stroke="#155C6D" stroke-width="0.4" stroke-linejoin="round"/>
<path d="M262.564 121.98C260.388 122.33 257.999 122.622 255.418 122.853L267.797 97.8447C269.713 98.7946 271.478 99.7602 273.078 100.739L262.564 121.977V121.98Z" fill="#70C5AD" stroke="#155C6D" stroke-width="0.4" stroke-linejoin="round"/>
<path d="M271.216 90.9355C273.198 91.8433 274.984 92.7484 276.592 93.6403L273.205 100.481C271.614 99.5103 269.851 98.5447 267.925 97.5896L271.219 90.9355H271.216Z" fill="#70C5AD" stroke="#155C6D" stroke-width="0.4" stroke-linejoin="round"/>
<path d="M283.653 112.132C283.566 112.192 283.479 112.25 283.392 112.311C282.753 108.546 279.046 104.662 272.979 100.952L273.107 100.694C279.335 104.496 282.948 108.396 283.653 112.134V112.132Z" fill="#70C5AD" stroke="#155C6D" stroke-width="0.4" stroke-linejoin="round"/>
<path d="M283.75 111.922C283.663 111.982 283.576 112.04 283.489 112.101C282.85 108.336 279.142 104.452 273.075 100.742L273.204 100.484C279.432 104.286 283.044 108.186 283.75 111.924V111.922Z" fill="#C8DAE8" stroke="#155C6D" stroke-width="0.4" stroke-linejoin="round"/>
<path d="M264.664 96.6585L264.79 96.4033C265.832 96.8743 266.835 97.3453 267.798 97.8215L267.671 98.0767C266.706 97.5978 265.706 97.1242 264.667 96.6585H264.664Z" fill="#70C5AD" stroke="#155C6D" stroke-width="0.4" stroke-linejoin="round"/>
<path d="M264.79 96.4271L264.916 96.1719C265.958 96.6428 266.961 97.1138 267.924 97.59L267.797 97.8453C266.832 97.3664 265.832 96.8928 264.793 96.4271H264.79Z" fill="#C8DAE8" stroke="#155C6D" stroke-width="0.4" stroke-linejoin="round"/>
<path d="M227.17 85.3503L227.217 85.0635C237.473 87.0789 246.993 89.61 255.281 92.5332L255.152 92.7936C247.053 89.9442 237.573 87.3999 227.17 85.3503Z" fill="#70C5AD" stroke="#155C6D" stroke-width="0.4" stroke-linejoin="round"/>
<path d="M227.17 85.1579L227.217 84.8711C237.473 86.8865 246.993 89.4176 255.281 92.3408L255.152 92.6012C247.053 89.7518 237.573 87.2075 227.17 85.1579Z" fill="#C8DAE8" stroke="#155C6D" stroke-width="0.4" stroke-linejoin="round"/>
<path d="M255.148 92.6013L255.277 92.3408C257.737 93.2091 260.092 94.1115 262.321 95.0456C263.213 95.4192 264.076 95.7954 264.915 96.1717L264.789 96.4269C261.855 95.1061 258.629 93.8248 255.148 92.6013Z" fill="#C8DAE8" stroke="#155C6D" stroke-width="0.4" stroke-linejoin="round"/>
<path d="M267.796 97.8451L267.922 97.5898C269.85 98.5449 271.613 99.5105 273.202 100.481L273.074 100.739C271.474 99.7605 269.708 98.7949 267.793 97.8451H267.796Z" fill="#C8DAE8" stroke="#155C6D" stroke-width="0.4" stroke-linejoin="round"/>
<path d="M261.941 111.246C262.751 104.437 237.275 95.8052 205.037 91.9668C172.799 88.1284 146.008 90.5366 145.197 97.3458C144.387 104.155 169.863 112.786 202.101 116.625C234.339 120.463 261.13 118.055 261.941 111.246Z" fill="#155C6D" stroke="#155C6D" stroke-width="0.4" stroke-linejoin="round"/>
<path d="M180.703 117.999C172.089 116.452 164.18 114.671 157.294 112.76L162.953 108.653C168.174 110.329 174.336 111.905 181.166 113.289L180.7 117.999H180.703Z" fill="#155C6D" stroke="#155C6D" stroke-width="0.4" stroke-linejoin="round"/>
<path d="M236.266 99.4841C234.261 103.149 221.471 108.556 221.471 108.556L185.154 104.236C185.154 104.236 173.99 95.9795 172.901 91.946C172.725 91.2935 172.835 90.6963 173.101 90.1648C182.376 90.0016 193.345 90.5726 205.029 91.9618C216.714 93.351 227.509 95.3717 236.489 97.7081C236.623 98.287 236.589 98.8947 236.266 99.4867V99.4841Z" fill="#C8DAE8" stroke="#155C6D" stroke-width="0.4" stroke-linejoin="round"/>
<path d="M230.788 112.305L231.34 107.653C231.882 107.635 232.416 107.611 232.943 107.585L232.387 112.245C231.861 112.268 231.327 112.287 230.785 112.305H230.788Z" fill="#70C5AD" stroke="#155C6D" stroke-width="0.4" stroke-linejoin="round"/>
<path d="M203.539 110.943C199.418 110.453 195.432 109.859 191.633 109.185L192.209 104.344C196.419 105.149 200.907 105.846 205.583 106.401C214.376 107.448 222.653 107.854 229.726 107.696L229.173 112.345C221.63 112.492 212.853 112.05 203.539 110.943Z" fill="#70C5AD" stroke="#155C6D" stroke-width="0.4" stroke-linejoin="round"/>
<path d="M235.534 112.061L236.092 107.378C244.301 106.704 250.044 105.091 251.755 102.702C252.349 102.955 252.92 103.21 253.467 103.465C253.894 104.17 254.078 104.865 253.996 105.544C253.586 108.99 246.442 111.269 235.531 112.061H235.534Z" fill="#70C5AD" stroke="#155C6D" stroke-width="0.4" stroke-linejoin="round"/>
<path d="M155.754 93.8536C155.862 92.9485 156.436 92.1249 157.417 91.3882C158.649 91.1883 159.962 91.012 161.348 90.8594C161.306 92.6985 163.329 94.6666 166.923 96.5873L162.716 100.81C158.062 98.4869 155.491 96.0795 155.757 93.8562L155.754 93.8536Z" fill="#70C5AD" stroke="#155C6D" stroke-width="0.4" stroke-linejoin="round"/>
<path d="M229.174 112.348L229.726 107.699C230.274 107.686 230.813 107.67 231.344 107.651L230.792 112.303C230.258 112.319 229.721 112.335 229.176 112.345L229.174 112.348Z" fill="#70C5AD" stroke="#155C6D" stroke-width="0.4" stroke-linejoin="round"/>
<path d="M232.391 112.245L232.946 107.585C234.03 107.53 235.08 107.461 236.09 107.38L235.532 112.063C234.517 112.137 233.469 112.197 232.391 112.247V112.245Z" fill="#70C5AD" stroke="#155C6D" stroke-width="0.4" stroke-linejoin="round"/>
<path d="M207.726 69.1559C202.37 68.5192 197.057 68.0324 191.832 67.6956L192.037 65.9775C197.263 66.317 202.577 66.8037 207.932 67.4404C209.808 67.6641 211.67 67.9061 213.525 68.1613L213.583 69.9137C211.642 69.6453 209.689 69.3901 207.726 69.1559Z" fill="#155C6D" stroke="#155C6D" stroke-width="0.4" stroke-linejoin="round"/>
<path d="M287.854 94.6928C283.332 91.0224 277.02 87.4678 269.092 84.1289C254.105 77.817 234.575 72.8284 213.581 69.9105L213.523 68.1582C234.775 71.0892 254.571 76.1383 269.763 82.5371C277.841 85.9391 284.295 89.5779 288.944 93.3509C289.775 94.0271 290.543 94.7033 291.251 95.3795C291.38 96.2215 291.401 97.0634 291.309 97.8975C290.33 96.8345 289.181 95.7663 287.857 94.6928H287.854Z" fill="#C8DAE8" stroke="#155C6D" stroke-width="0.4" stroke-linejoin="round"/>
<path d="M206.704 82.1374C164.291 77.091 128.397 82.4505 124.737 94.0957C124.664 94.0142 124.59 93.93 124.514 93.8484C126.376 88.381 135.159 84.1423 149.562 81.819C165.135 79.3063 185.439 79.3169 206.735 81.8506C213.776 82.6873 220.646 83.7713 227.213 85.0606L227.166 85.3473C220.667 84.066 213.808 82.9794 206.701 82.1348L206.704 82.1374Z" fill="#70C5AD" stroke="#155C6D" stroke-width="0.4" stroke-linejoin="round"/>
<path d="M206.704 81.945C164.291 76.8986 128.397 82.2581 124.737 93.9033C124.664 93.8218 124.59 93.7376 124.514 93.656C126.376 88.1886 135.159 83.9499 149.562 81.6267C165.135 79.114 185.439 79.1245 206.735 81.6582C213.776 82.4949 220.646 83.5789 227.213 84.8682L227.166 85.155C220.667 83.8736 213.808 82.787 206.701 81.9424L206.704 81.945Z" fill="#155C6D" stroke="#155C6D" stroke-width="0.4" stroke-linejoin="round"/>
<path d="M231.673 47.6388C231.115 47.0942 230.265 47.031 229.642 47.4441C229.702 47.3468 229.773 47.2547 229.857 47.1705C230.486 46.5285 231.515 46.518 232.157 47.1442C232.799 47.773 232.809 48.8017 232.183 49.4437C232.099 49.5279 232.01 49.6016 231.915 49.6647C232.315 49.0306 232.233 48.1834 231.675 47.6362L231.673 47.6388Z" fill="#70C5AD" stroke="#155C6D" stroke-width="0.4" stroke-linejoin="round"/>
<path d="M229.879 49.4722C230.437 50.0169 231.287 50.08 231.91 49.6669C231.85 49.7643 231.779 49.8564 231.695 49.9406C231.066 50.5826 230.037 50.5931 229.395 49.9669C228.753 49.338 228.743 48.3093 229.369 47.6673C229.453 47.5831 229.542 47.5094 229.637 47.4463C229.237 48.0804 229.319 48.9276 229.877 49.4749L229.879 49.4722Z" fill="#C8DAE8" stroke="#155C6D" stroke-width="0.4" stroke-linejoin="round"/>
<path d="M251.469 63.1857C250.911 62.641 250.061 62.5779 249.437 62.991C249.498 62.8936 249.569 62.8015 249.653 62.7173C250.282 62.0754 251.311 62.0648 251.953 62.691C252.595 63.3199 252.605 64.3486 251.979 64.9906C251.895 65.0748 251.805 65.1485 251.711 65.2116C252.111 64.5775 252.029 63.7303 251.471 63.183L251.469 63.1857Z" fill="#70C5AD" stroke="#155C6D" stroke-width="0.4" stroke-linejoin="round"/>
<path d="M249.678 65.0201C250.236 65.5647 251.086 65.6279 251.709 65.2148C251.649 65.3121 251.578 65.4042 251.493 65.4884C250.865 66.1304 249.836 66.1409 249.194 65.5147C248.552 64.8859 248.541 63.8571 249.168 63.2152C249.252 63.131 249.341 63.0573 249.436 62.9941C249.036 63.6282 249.118 64.4754 249.675 65.0227L249.678 65.0201Z" fill="#C8DAE8" stroke="#155C6D" stroke-width="0.4" stroke-linejoin="round"/>
<path d="M246.3 80.0374C246.91 79.7848 247.244 79.1428 247.131 78.5166C247.187 78.5955 247.234 78.6824 247.273 78.7744C247.565 79.4796 247.229 80.2847 246.524 80.5767C245.818 80.8688 245.011 80.532 244.721 79.8269C244.682 79.7348 244.655 79.6401 244.64 79.5427C245 80.0663 245.689 80.2847 246.3 80.0321V80.0374Z" fill="#C8DAE8" stroke="#155C6D" stroke-width="0.4" stroke-linejoin="round"/>
<path d="M245.472 78.0273C244.862 78.2799 244.528 78.9219 244.641 79.5481C244.586 79.4692 244.538 79.3823 244.499 79.2902C244.207 78.5851 244.544 77.7774 245.249 77.4879C245.954 77.1985 246.759 77.5327 247.051 78.2378C247.09 78.3299 247.117 78.4246 247.133 78.522C246.772 77.9984 246.083 77.78 245.472 78.0326V78.0273Z" fill="#C8DAE8" stroke="#155C6D" stroke-width="0.4" stroke-linejoin="round"/>
<path d="M197.742 83.4186C197.49 82.8082 196.848 82.474 196.222 82.5872C196.301 82.5319 196.387 82.4846 196.48 82.4451C197.185 82.153 197.99 82.4898 198.282 83.195C198.574 83.9001 198.237 84.7078 197.532 84.9973C197.44 85.0367 197.345 85.063 197.248 85.0788C197.771 84.7184 197.99 84.029 197.737 83.4186H197.742Z" fill="#C8DAE8" stroke="#155C6D" stroke-width="0.4" stroke-linejoin="round"/>
<path d="M195.733 84.2501C195.985 84.8605 196.627 85.1946 197.253 85.0815C197.174 85.1367 197.088 85.1841 196.995 85.2236C196.29 85.5156 195.483 85.1788 195.193 84.4737C194.901 83.7686 195.238 82.9635 195.943 82.6714C196.035 82.6319 196.13 82.6056 196.227 82.5898C195.704 82.9503 195.485 83.6396 195.738 84.2501H195.733Z" fill="#155C6D" stroke="#155C6D" stroke-width="0.4" stroke-linejoin="round"/>
<path d="M220.844 80.612C220.591 80.0015 219.949 79.6674 219.323 79.7805C219.402 79.7253 219.489 79.6779 219.581 79.6385C220.286 79.3464 221.091 79.6832 221.383 80.3883C221.675 81.0935 221.339 81.9012 220.633 82.1906C220.541 82.2301 220.447 82.2564 220.349 82.2722C220.873 81.9117 221.091 81.2224 220.839 80.612H220.844Z" fill="#C8DAE8" stroke="#155C6D" stroke-width="0.4" stroke-linejoin="round"/>
<path d="M218.834 81.4434C219.087 82.0538 219.729 82.388 220.355 82.2748C220.276 82.3301 220.189 82.3775 220.097 82.4169C219.392 82.709 218.584 82.3722 218.295 81.6671C218.003 80.9619 218.339 80.1568 219.045 79.8648C219.137 79.8253 219.231 79.799 219.329 79.7832C218.805 80.1437 218.587 80.833 218.839 81.4434H218.834Z" fill="#155C6D" stroke="#155C6D" stroke-width="0.4" stroke-linejoin="round"/>
<path d="M173.714 45.1386C173.443 44.4808 172.751 44.123 172.077 44.244C172.164 44.1835 172.256 44.1335 172.356 44.0914C173.114 43.7783 173.985 44.1387 174.298 44.8991C174.611 45.6595 174.25 46.5278 173.49 46.8409C173.39 46.883 173.287 46.9119 173.185 46.9303C173.748 46.5409 173.985 45.799 173.714 45.1412V45.1386Z" fill="#70C5AD" stroke="#155C6D" stroke-width="0.4" stroke-linejoin="round"/>
<path d="M171.55 46.034C171.821 46.6917 172.512 47.0496 173.186 46.9285C173.099 46.9891 173.007 47.039 172.907 47.0811C172.149 47.3942 171.279 47.0338 170.965 46.2734C170.652 45.5156 171.013 44.6447 171.773 44.3316C171.873 44.2896 171.976 44.2606 172.078 44.2422C171.515 44.6316 171.279 45.3736 171.55 46.0313V46.034Z" fill="#C8DAE8" stroke="#155C6D" stroke-width="0.4" stroke-linejoin="round"/>
<path d="M158.429 84.2928C160.515 84.2928 162.207 82.6013 162.207 80.5146C162.207 78.4279 160.515 76.7363 158.429 76.7363C156.342 76.7363 154.65 78.4279 154.65 80.5146C154.65 82.6013 156.342 84.2928 158.429 84.2928Z" fill="#C8DAE8" stroke="#155C6D" stroke-width="0.4" stroke-linejoin="round"/>
<path d="M158.437 84.5556C158.24 84.5556 158.042 84.5424 157.842 84.5108C156.774 84.3556 155.832 83.7925 155.187 82.9269C154.543 82.0613 154.274 80.9957 154.43 79.9301C154.585 78.8619 155.148 77.9199 156.014 77.2753C156.879 76.6307 157.945 76.3623 159.013 76.5176C160.081 76.6728 161.023 77.2359 161.668 78.1015C162.312 78.9671 162.581 80.0327 162.426 81.1009C162.27 82.1692 161.707 83.1111 160.842 83.7557C160.137 84.2819 159.3 84.5556 158.437 84.5556ZM158.421 76.9991C157.671 76.9991 156.942 77.2385 156.329 77.6963C155.577 78.2567 155.087 79.0776 154.951 80.0064C154.814 80.9352 155.048 81.8613 155.608 82.6138C156.169 83.3663 156.99 83.8557 157.919 83.9925C158.847 84.1267 159.773 83.8952 160.526 83.3347C161.278 82.7743 161.768 81.9534 161.905 81.0246C162.041 80.0959 161.807 79.1697 161.247 78.4172C160.686 77.6647 159.866 77.1753 158.937 77.0385C158.763 77.0122 158.592 77.0017 158.421 77.0017V76.9991Z" fill="#70C5AD" stroke="#155C6D" stroke-width="0.4" stroke-linejoin="round"/>
<path d="M158.429 82.5721C159.565 82.5721 160.486 81.6509 160.486 80.5145C160.486 79.3782 159.565 78.457 158.429 78.457C157.292 78.457 156.371 79.3782 156.371 80.5145C156.371 81.6509 157.292 82.5721 158.429 82.5721Z" fill="#70C5AD" stroke="#155C6D" stroke-width="0.4" stroke-linejoin="round"/>
<path d="M270.573 112.36C271.552 104.276 242.326 94.084 205.294 89.5961C168.262 85.1082 137.448 88.0235 136.468 96.1076C135.489 104.192 164.715 114.383 201.747 118.871C238.778 123.359 269.593 120.444 270.573 112.36Z" stroke="#155C6D" stroke-width="0.4" stroke-miterlimit="10" stroke-linejoin="round"/>
<path d="M168.609 50.5165C161.608 51.3927 154.933 52.7082 148.634 54.4526C149.242 54.0922 149.855 53.7291 150.47 53.3633C156.206 51.8741 162.239 50.7296 168.538 49.9429C171.006 49.6351 173.492 49.3851 176 49.1904L175.197 49.8324C172.987 50.014 170.788 50.2429 168.609 50.5139V50.5165Z" fill="#70C5AD" stroke="#155C6D" stroke-width="0.4" stroke-linejoin="round"/>
<path d="M251.228 60.5753C241.372 56.8023 230.906 53.9449 220.005 52.0505L219.837 51.4375C230.872 53.3398 241.465 56.2208 251.436 60.0385C256.391 61.9356 261.111 64.0325 265.571 66.3137C266.021 66.7663 266.468 67.2162 266.912 67.6635C262 65.0639 256.767 62.696 251.231 60.5779L251.228 60.5753Z" fill="#70C5AD" stroke="#155C6D" stroke-width="0.4" stroke-linejoin="round"/>
<path d="M223.017 106.965C223.336 104.291 214.87 101.085 204.109 99.8036C193.347 98.5223 184.365 99.6511 184.047 102.325C183.729 104.999 192.194 108.205 202.956 109.486C213.717 110.767 222.699 109.639 223.017 106.965Z" fill="#70C5AD" stroke="#155C6D" stroke-width="0.4" stroke-linejoin="round"/>
<path d="M216.983 106.236C216.762 108.083 210.558 108.861 203.125 107.977C195.824 107.109 190.051 104.957 190.057 103.131C192.125 104.496 196.613 105.801 201.907 106.43C209.34 107.314 215.547 106.535 215.765 104.688C215.768 104.657 215.77 104.623 215.77 104.591C216.607 105.144 217.046 105.704 216.983 106.238V106.236Z" fill="#C8DAE8" stroke="#155C6D" stroke-width="0.4" stroke-linejoin="round"/>
<path d="M238.941 242.021C238.531 242.021 238.184 241.708 238.147 241.292L228.307 126.195C228.27 125.756 228.593 125.369 229.033 125.332C229.472 125.295 229.859 125.621 229.896 126.058L239.736 241.155C239.773 241.595 239.449 241.981 239.01 242.018C238.986 242.018 238.962 242.021 238.941 242.021Z" fill="#70C5AD" stroke="#155C6D" stroke-width="0.4" stroke-linejoin="round"/>
<path d="M131.95 244.761C131.866 244.761 131.779 244.747 131.695 244.718C131.277 244.576 131.053 244.124 131.195 243.706L165.499 142.448C165.641 142.03 166.094 141.809 166.512 141.948C166.931 142.09 167.154 142.543 167.012 142.961L132.705 244.219C132.592 244.55 132.282 244.761 131.95 244.761Z" fill="#70C5AD" stroke="#155C6D" stroke-width="0.4" stroke-linejoin="round"/>
<path opacity="0.69" d="M214.625 119.828C215.635 119.828 216.454 119.009 216.454 118C216.454 116.99 215.635 116.171 214.625 116.171C213.616 116.171 212.797 116.99 212.797 118C212.797 119.009 213.616 119.828 214.625 119.828Z" fill="#70C5AD" stroke="#155C6D" stroke-width="0.4" stroke-linejoin="round"/>
<path d="M156.369 219.726C157.379 219.726 158.197 218.907 158.197 217.897C158.197 216.887 157.379 216.068 156.369 216.068C155.359 216.068 154.54 216.887 154.54 217.897C154.54 218.907 155.359 219.726 156.369 219.726Z" fill="#70C5AD" stroke="#155C6D" stroke-width="0.4" stroke-linejoin="round"/>
<path d="M251.228 60.1681C241.372 56.3951 230.906 53.5377 220.005 51.6433L219.837 51.0303C230.872 52.9326 241.465 55.8136 251.436 59.6313C256.391 61.5283 261.111 63.6253 265.571 65.9065C266.021 66.359 266.468 66.8089 266.912 67.2562C262 64.6567 256.767 62.2887 251.231 60.1707L251.228 60.1681Z" fill="#C8DAE8" stroke="#155C6D" stroke-width="0.4" stroke-linejoin="round"/>
<path d="M168.94 50.1884C161.939 51.0645 155.264 52.3801 148.965 54.1245C149.573 53.764 150.186 53.4009 150.801 53.0352C156.537 51.546 162.57 50.4015 168.869 49.6148C171.337 49.307 173.823 49.057 176.331 48.8623L175.528 49.5043C173.318 49.6858 171.119 49.9147 168.94 50.1857V50.1884Z" fill="#C8DAE8" stroke="#155C6D" stroke-width="0.4" stroke-linejoin="round"/>
<path d="M182.322 130.295C183.409 130.295 184.29 129.413 184.29 128.326C184.29 127.24 183.409 126.358 182.322 126.358C181.235 126.358 180.354 127.24 180.354 128.326C180.354 129.413 181.235 130.295 182.322 130.295Z" fill="#70C5AD" stroke="#155C6D" stroke-width="0.4" stroke-linejoin="round"/>
<path d="M168.822 169.477C175.297 169.161 175.553 168.906 175.868 162.431C176.184 168.906 176.439 169.161 182.914 169.477C176.439 169.792 176.184 170.048 175.868 176.523C175.553 170.048 175.297 169.792 168.822 169.477Z" fill="#70C5AD" stroke="#155C6D" stroke-width="0.4" stroke-linejoin="round"/>
<path d="M223.44 106.123C223.73 103.741 215.16 100.742 204.252 99.4186C193.34 98.0952 184.305 98.9582 184.016 101.339L125.34 286.942L180.695 293.654L233.02 300L223.44 106.123Z" fill="url(#paint0_linear_9503_10535)"/>
<path d="M160.439 152.127C160.439 152.127 161.944 148.901 166.017 145.868C170.093 142.834 173.329 142.871 176.736 142.997C180.096 143.123 183.488 143.429 186.524 135.243L185.503 134.735L191.542 127.129L192.831 135.206L191.405 135.301C191.405 135.301 190.842 138.732 189.537 140.379C188.232 142.026 186.132 144.46 181.486 143.897C176.839 143.334 169.477 145.22 164.902 153.198L160.442 152.127H160.439Z" fill="#C8DAE8" stroke="#155C6D" stroke-width="0.4" stroke-linejoin="round"/>
<path d="M191.544 127.129L193.512 128.105L194.951 136.354L192.833 135.206L191.544 127.129Z" fill="#155C6D" stroke="#155C6D" stroke-width="0.4" stroke-linejoin="round"/>
<path d="M194.95 136.353L193.716 136.74L191.406 135.301L192.832 135.206L194.95 136.353Z" fill="#70C5AD" stroke="#155C6D" stroke-width="0.4" stroke-linejoin="round"/>
<path d="M191.413 135.304C191.413 135.304 190.85 138.735 189.545 140.382C188.24 142.029 186.14 144.463 181.494 143.899C176.847 143.336 169.486 145.223 164.91 153.2L167.652 155.25C170.151 151.19 172.822 147.17 180.194 147.767C187.522 148.362 192.158 145.404 193.715 136.74L191.413 135.304Z" fill="#155C6D" stroke="#155C6D" stroke-width="0.4" stroke-linejoin="round"/>
<path d="M167.65 155.25L162.501 154.101L160.428 152.122L164.908 153.201L167.65 155.25Z" fill="#70C5AD" stroke="#155C6D" stroke-width="0.4" stroke-linejoin="round"/>
<path d="M208.971 152.74C214.714 154.64 219.116 160.381 218.806 165.567C218.495 170.753 213.586 173.415 207.845 171.516C202.101 169.616 197.699 163.875 198.01 158.689C198.32 153.503 203.23 150.841 208.971 152.738V152.74Z" fill="#C8DAE8" stroke="#155C6D" stroke-width="0.4" stroke-linejoin="round"/>
<path d="M208.981 154.293C205.332 153.085 202.098 154.14 200.728 156.663C202.367 155.069 205.066 154.551 208.039 155.535C212.723 157.082 216.311 161.765 216.059 165.993C216.004 166.927 215.764 167.759 215.375 168.474C216.317 167.559 216.909 166.293 217.001 164.751C217.253 160.523 213.665 155.84 208.981 154.293Z" fill="#155C6D" stroke="#155C6D" stroke-width="0.4" stroke-linejoin="round"/>
<path d="M198.01 158.692C198.11 157.008 198.697 155.59 199.639 154.506L197.366 157.116C196.424 158.197 195.837 159.615 195.737 161.302C195.653 162.715 195.919 164.17 196.468 165.578L198.755 162.999C198.2 161.581 197.926 160.115 198.013 158.692H198.01Z" fill="#155C6D" stroke="#155C6D" stroke-width="0.4" stroke-linejoin="round"/>
<path d="M207.844 171.518C205.392 170.708 203.184 169.195 201.485 167.324L199.19 169.913C200.895 171.794 203.108 173.315 205.571 174.131C209.449 175.412 212.946 174.615 214.903 172.365L217.177 169.755C215.219 172.005 211.722 172.802 207.844 171.521V171.518Z" fill="#155C6D" stroke="#155C6D" stroke-width="0.4" stroke-linejoin="round"/>
<path d="M200.064 165.509L197.772 168.093C197.983 168.414 198.209 168.727 198.449 169.034L200.74 166.448C200.501 166.143 200.275 165.83 200.061 165.509H200.064Z" fill="#155C6D" stroke="#155C6D" stroke-width="0.4" stroke-linejoin="round"/>
<path d="M198.752 163.002L196.466 165.58C196.803 166.443 197.242 167.288 197.773 168.096L200.065 165.512C199.531 164.707 199.089 163.865 198.752 163.005V163.002Z" fill="#70C5AD" stroke="#155C6D" stroke-width="0.4" stroke-linejoin="round"/>
<path d="M200.744 166.448L198.452 169.035C198.686 169.335 198.931 169.627 199.191 169.913L201.486 167.324C201.228 167.04 200.981 166.748 200.746 166.448H200.744Z" fill="#70C5AD" stroke="#155C6D" stroke-width="0.4" stroke-linejoin="round"/>
<path d="M180.99 196.951L178.243 195.456L190.915 193.675L193.661 195.169L180.99 196.951Z" fill="#70C5AD" stroke="#155C6D" stroke-width="0.4" stroke-linejoin="round"/>
<path d="M182.494 181.477C189.493 180.493 195.153 185.819 195.139 193.37L182.471 195.154L182.497 181.48L182.494 181.477Z" fill="#C8DAE8" stroke="#155C6D" stroke-width="0.4" stroke-linejoin="round"/>
<path d="M186.513 181.146L189.26 182.64C187.302 181.578 184.982 181.128 182.49 181.478L179.743 179.983C182.235 179.633 184.555 180.083 186.513 181.146Z" fill="#70C5AD" stroke="#155C6D" stroke-width="0.4" stroke-linejoin="round"/>
<path d="M182.467 195.152L179.72 193.657L179.746 179.983L182.493 181.478L182.467 195.152Z" fill="#155C6D" stroke="#155C6D" stroke-width="0.4" stroke-linejoin="round"/>
<path d="M181.016 183.274L180.989 196.951L193.661 195.17C193.645 202.721 187.962 209.638 180.966 210.622C173.97 211.606 168.31 206.281 168.323 198.729C168.336 191.178 174.02 184.261 181.016 183.274Z" fill="#C8DAE8" stroke="#155C6D" stroke-width="0.4" stroke-linejoin="round"/>
<path d="M174.2 209.459L171.453 207.965C167.915 206.039 165.568 202.1 165.578 197.235C165.591 189.684 171.274 182.767 178.271 181.78L181.017 183.275C174.021 184.259 168.341 191.179 168.325 198.73C168.317 203.595 170.661 207.533 174.2 209.459Z" fill="#155C6D" stroke="#155C6D" stroke-width="0.4" stroke-linejoin="round"/>
<path d="M187.154 240.2C197.881 238.719 209.368 233.191 212.81 227.855C216.251 222.519 210.344 219.396 199.615 220.88C188.888 222.361 177.401 227.889 173.959 233.225C170.518 238.561 176.424 241.684 187.151 240.2H187.154Z" fill="#C8DAE8" stroke="#155C6D" stroke-width="0.4" stroke-linejoin="round"/>
<path d="M178.834 233.12C181.412 229.123 190.018 224.982 198.056 223.871C204.676 222.956 208.844 224.382 208.67 227.147C207.05 225.889 203.658 225.41 199.109 226.039C191.071 227.15 182.465 231.291 179.886 235.288C179.431 235.993 179.194 236.648 179.157 237.24C177.915 236.277 177.715 234.853 178.834 233.12Z" fill="#155C6D" stroke="#155C6D" stroke-width="0.4" stroke-linejoin="round"/>
<path d="M212.81 227.852C213.736 226.415 213.986 225.137 213.644 224.068L216.289 232.346C216.631 233.417 216.381 234.693 215.455 236.129C214.6 237.455 213.244 238.795 211.529 240.079L208.885 231.801C210.6 230.515 211.953 229.178 212.81 227.852Z" fill="#155C6D" stroke="#155C6D" stroke-width="0.4" stroke-linejoin="round"/>
<path d="M187.154 240.2C191.406 239.613 195.776 238.389 199.718 236.795L202.362 245.072C198.421 246.667 194.05 247.89 189.799 248.477C181.961 249.561 176.698 248.185 175.772 245.285L173.128 237.008C174.054 239.908 179.319 241.281 187.154 240.2Z" fill="#155C6D" stroke="#155C6D" stroke-width="0.4" stroke-linejoin="round"/>
<path d="M204.624 234.496L207.268 242.774C206.526 243.173 205.755 243.563 204.958 243.939L202.313 235.662C203.111 235.288 203.882 234.899 204.624 234.496Z" fill="#155C6D" stroke="#155C6D" stroke-width="0.4" stroke-linejoin="round"/>
<path d="M208.887 231.804L211.532 240.081C210.284 241.015 208.845 241.92 207.269 242.775L204.625 234.498C206.204 233.645 207.64 232.74 208.887 231.804Z" fill="#70C5AD" stroke="#155C6D" stroke-width="0.4" stroke-linejoin="round"/>
<path d="M202.312 235.661L204.956 243.939C204.117 244.333 203.251 244.709 202.362 245.07L199.718 236.793C200.607 236.432 201.473 236.056 202.312 235.661Z" fill="#70C5AD" stroke="#155C6D" stroke-width="0.4" stroke-linejoin="round"/>
</g>
<defs>
<linearGradient id="paint0_linear_9503_10535" x1="179.18" y1="98.7979" x2="179.18" y2="300" gradientUnits="userSpaceOnUse">
<stop stop-color="#121212"/>
<stop offset="1" stop-color="#121212" stop-opacity="0"/>
</linearGradient>
<clipPath id="clip0_9503_10535">
<rect width="411" height="300" fill="white"/>
</clipPath>
</defs>
</svg>
