<svg width="413" height="200" viewBox="0 0 413 200" fill="none" xmlns="http://www.w3.org/2000/svg">
<path d="M228.403 164.074L133.49 176.83L136.893 181.725C138.333 183.802 140.738 185.013 143.29 184.961H228.172L229.159 184.857C233.434 184.387 237.006 181.422 238.235 177.351L264.022 95.3689C265.671 89.9201 268.507 84.9097 272.341 80.6613C277.12 75.3377 279.651 67.7804 278.842 60.484C278.034 53.1876 274.242 46.9351 268.811 42.7806L262.362 37.8642L260.503 36.3193C258.875 35.8705 257.289 35.2233 255.808 35.86L228.403 164.063V164.074Z" fill="#3342B2"/>
<path d="M266.374 54.148L266.175 53.9914C266.175 53.9914 266.227 54.0332 266.248 54.0436L266.374 54.148Z" fill="#5462FF"/>
<path d="M258.045 35.599C260.944 35.5259 262.687 37.9998 261.942 41.1104L230.924 172.456C230.178 175.566 227.237 178.145 224.338 178.207L136.967 178.489C134.068 178.562 132.324 176.088 133.07 172.978L164.151 41.3609C164.896 38.2503 167.838 35.672 170.737 35.6094H258.055L258.045 35.599Z" fill="#A5ACFC"/>
<path d="M257.373 87.342L256.406 87.5298C256.553 86.9453 256.942 86.5591 257.394 86.4651L258.36 86.2773C257.919 86.3712 257.53 86.7365 257.373 87.342Z" fill="#121212"/>
<path d="M253.539 101.705L252.572 101.893L256.396 87.5192L257.362 87.3313L253.539 101.705Z" fill="#121212"/>
<path d="M253.55 104.388C253.55 104.388 253.498 104.367 253.477 104.346C252.741 103.918 252.332 102.822 252.573 101.893L253.54 101.705C253.298 102.634 253.708 103.719 254.443 104.158C254.475 104.158 254.496 104.179 254.517 104.2C254.758 104.325 255.01 104.356 255.262 104.314L254.296 104.502C254.065 104.555 253.813 104.502 253.55 104.388Z" fill="#121212"/>
<path d="M259.095 86.3918C259.095 86.3918 259.147 86.4127 259.169 86.4336C259.914 86.8615 260.313 87.9575 260.072 88.8866L256.248 103.26C256.007 104.158 255.24 104.575 254.526 104.21C254.505 104.21 254.473 104.189 254.452 104.168C253.707 103.74 253.307 102.644 253.549 101.715L255.461 94.5285L257.372 87.3417C257.603 86.444 258.381 86.0265 259.095 86.3918Z" fill="#A5ACFC"/>
<path d="M251.343 108.813L250.377 109.001C250.524 108.417 250.913 108.03 251.364 107.936L252.331 107.749C251.879 107.843 251.501 108.208 251.343 108.813Z" fill="#121212"/>
<path d="M247.532 123.187L246.565 123.375L250.389 109.001L251.355 108.814L247.532 123.187Z" fill="#121212"/>
<path d="M247.531 125.859C247.531 125.859 247.478 125.838 247.457 125.818C246.711 125.39 246.312 124.294 246.554 123.365L247.52 123.177C247.279 124.106 247.678 125.191 248.424 125.63C248.445 125.63 248.476 125.651 248.497 125.671C248.749 125.797 249.001 125.828 249.243 125.786L248.276 125.974C248.045 126.026 247.793 125.985 247.531 125.859Z" fill="#121212"/>
<path d="M253.076 107.864C253.076 107.864 253.118 107.885 253.15 107.905C253.896 108.333 254.295 109.429 254.053 110.358L250.23 124.732C249.988 125.63 249.222 126.047 248.507 125.682C248.486 125.671 248.455 125.661 248.434 125.64C247.688 125.212 247.289 124.116 247.53 123.187L251.354 108.814C251.595 107.916 252.362 107.498 253.076 107.864Z" fill="#A5ACFC"/>
<path d="M169.035 50.8806H252.278C253.623 50.8806 254.432 52.0288 254.085 53.4693L228.361 160.274C228.025 161.694 226.67 162.873 225.304 162.894H142.608C141.263 162.894 140.454 161.746 140.801 160.306L165.989 53.5111C166.325 52.0915 167.68 50.9224 169.046 50.8911L169.035 50.8806Z" fill="#3342B2"/>
<path d="M169.855 51.8203H253.098C253.455 51.8203 253.77 51.9038 254.043 52.0395C253.781 51.3297 253.14 50.86 252.289 50.8704H169.046C167.67 50.9017 166.336 52.0708 165.989 53.4904L140.791 160.316C140.539 161.381 140.917 162.289 141.663 162.686C141.505 162.268 141.484 161.788 141.6 161.266L166.788 54.4612C167.124 53.0416 168.468 51.8725 169.844 51.8412L169.855 51.8203Z" fill="#121212"/>
<path d="M149.172 148.861C149.028 149.521 149.474 150.172 150.078 150.172H174.12C174.944 150.172 175.654 149.529 175.851 148.635C175.994 147.967 175.548 147.315 174.944 147.315H150.909C150.086 147.315 149.376 147.958 149.172 148.861Z" fill="#A5ACFC"/>
<path d="M154.903 155.53C154.739 156.188 155.248 156.837 155.939 156.837H183.416C184.357 156.837 185.169 156.196 185.393 155.296C185.557 154.63 185.048 153.98 184.357 153.98H156.889C155.948 153.98 155.136 154.621 154.903 155.521V155.53Z" fill="#A5ACFC"/>
<path d="M147.269 155.53C147.09 156.188 147.627 156.837 148.353 156.837H150.85C151.834 156.837 152.69 156.196 152.928 155.296C153.107 154.63 152.57 153.98 151.844 153.98H149.348C148.363 153.98 147.508 154.621 147.259 155.521L147.269 155.53Z" fill="#A5ACFC"/>
<path d="M233.099 56.8768C232.832 57.9306 231.788 58.7719 230.768 58.7626C229.748 58.7534 229.145 57.9029 229.4 56.8583C229.655 55.8137 230.687 54.954 231.719 54.954C232.751 54.954 233.365 55.8137 233.099 56.8675V56.8768Z" fill="#A5ACFC"/>
<path d="M240.736 56.8768C240.47 57.9306 239.426 58.7719 238.406 58.7626C237.386 58.7534 236.783 57.9029 237.038 56.8583C237.293 55.8137 238.325 54.954 239.357 54.954C240.388 54.954 241.003 55.8137 240.736 56.8675V56.8768Z" fill="#A5ACFC"/>
<path d="M248.375 56.8768C248.108 57.9306 247.065 58.7719 246.045 58.7626C245.024 58.7534 244.422 57.9029 244.677 56.8583C244.932 55.8137 245.963 54.954 246.995 54.954C248.027 54.954 248.642 55.8137 248.375 56.8675V56.8768Z" fill="#A5ACFC"/>
<path d="M230.009 99.7739C225.786 117.07 209.18 130.943 192.93 130.828C176.744 130.713 166.923 116.726 170.988 99.5233C175.074 82.2375 191.607 68.1875 207.961 68.1979C224.316 68.2188 234.253 82.3836 230.009 99.7739Z" fill="#121212"/>
<path d="M234.074 99.8052C229.263 119.408 210.367 135.139 191.88 135.003C173.456 134.868 162.291 119.022 166.912 99.5234C171.555 79.9307 190.367 64.0018 208.991 64.0227C227.604 64.0435 238.906 80.1081 234.084 99.8052H234.074Z" stroke="#121212" stroke-width="0.96632" stroke-miterlimit="10"/>
<path d="M168.29 44.7642C168.028 45.7871 168.815 46.7787 169.866 46.7787H252.373C253.812 46.7787 255.052 45.7975 255.409 44.4092C255.672 43.3759 254.894 42.3947 253.834 42.3947H171.326C169.887 42.3947 168.637 43.3759 168.29 44.7642Z" fill="#121212"/>
<path d="M212.742 90.9121C217.553 90.9121 220.547 94.7847 219.423 99.555C218.299 104.325 213.509 108.177 208.698 108.177C203.888 108.177 200.905 104.315 202.007 99.555C203.121 94.7847 207.921 90.9121 212.732 90.9121H212.742Z" fill="#00B386"/>
<path d="M208.488 109.148C208.016 109.148 207.575 109.106 207.133 109.043L205.516 115.985H186.189L193.804 83.0727H213.205L211.577 90.056C212.049 89.9933 212.511 89.9411 212.984 89.9411C213.457 89.9411 213.908 89.9829 214.339 90.056L215.978 83.0727C216.335 81.5487 215.379 80.317 213.845 80.317H194.434C192.901 80.317 191.378 81.5487 191.021 83.0727L183.416 115.985C183.069 117.488 184.025 118.72 185.548 118.72H204.865C206.388 118.72 207.911 117.498 208.268 115.985L209.896 109.043C209.423 109.106 208.961 109.148 208.488 109.148Z" fill="#50DDB6"/>
<path d="M209.264 105.056L214.338 98.5317C214.443 98.4065 214.369 98.2499 214.222 98.2499H211.911C211.817 98.2499 211.754 98.1768 211.775 98.0829L212.689 94.1581C212.741 93.9493 212.458 93.8762 212.321 94.0641L207.101 100.619C206.996 100.745 207.059 100.912 207.216 100.912H209.653C209.748 100.912 209.811 100.985 209.79 101.079L208.876 104.972C208.823 105.181 209.107 105.254 209.254 105.066L209.264 105.056Z" fill="white"/>
<path d="M241.311 34.7953H252.656L250.594 44.1818C250.594 44.1818 239.45 44.8132 241.311 34.7953Z" fill="#121212"/>
<path d="M253.109 14.9626H246.449C246.428 15.1296 246.397 15.3175 246.344 15.4949C245.935 17.0085 244.506 18.2611 243.151 18.2715C241.817 18.2715 241.103 17.0502 241.555 15.5576C241.618 15.3592 241.702 15.1609 241.796 14.9626H237.752C237.731 15.1296 237.7 15.3175 237.647 15.4949C237.238 17.0085 235.809 18.2611 234.454 18.2715C233.12 18.2715 232.406 17.0502 232.858 15.5576C232.921 15.3592 232.994 15.1609 233.099 14.9626H229.045C229.024 15.1296 228.992 15.3175 228.94 15.4949C228.53 17.0085 227.101 18.2611 225.746 18.2715C224.412 18.2715 223.698 17.0502 224.15 15.5576C224.213 15.3592 224.286 15.1609 224.391 14.9626H220.337C220.316 15.1296 220.284 15.3175 220.232 15.4949C219.822 17.0085 218.394 18.2611 217.039 18.2715C215.705 18.2715 214.99 17.0502 215.442 15.5576C215.505 15.3592 215.579 15.1609 215.684 14.9626H211.629C211.608 15.1296 211.577 15.3175 211.524 15.4949C211.115 17.0085 209.686 18.2611 208.331 18.2715C206.997 18.2715 206.283 17.0502 206.734 15.5576C206.797 15.3592 206.871 15.1609 206.976 14.9626H202.922C202.901 15.1296 202.869 15.3175 202.817 15.4949C202.407 17.0085 200.978 18.2611 199.623 18.2715C198.289 18.2715 197.575 17.0502 198.027 15.5576C198.09 15.3592 198.163 15.1609 198.268 14.9626H194.214C194.193 15.1296 194.161 15.3175 194.109 15.4949C193.699 17.0085 192.271 18.2611 190.916 18.2715C189.582 18.2715 188.867 17.0502 189.319 15.5576C189.382 15.3592 189.456 15.1609 189.561 14.9626H185.506C185.485 15.1296 185.454 15.3175 185.401 15.4949C184.991 17.0085 183.563 18.2611 182.208 18.2715C180.874 18.2715 180.16 17.0502 180.611 15.5576C180.674 15.3592 180.748 15.1609 180.853 14.9626H176.053C153.144 44.0437 171.736 44.0437 171.736 44.0437H250.231C248.403 43.9394 231.797 44.0437 252.941 14.9626H253.025H253.109Z" fill="#A5ACFC"/>
<path d="M211.697 21.6277H178.223C177.565 21.6277 176.95 21.9535 176.58 22.4977C176.281 22.9373 176.596 23.5321 177.128 23.5321H210.614C211.248 23.5321 211.848 23.2405 212.239 22.7412C212.593 22.2893 212.272 21.6277 211.697 21.6277Z" fill="#121212"/>
<path d="M174.211 28.2929C173.693 28.2929 173.381 27.7202 173.662 27.2856C174.023 26.7264 174.643 26.3885 175.308 26.3885H181.326C181.853 26.3885 182.167 26.9758 181.875 27.4137C181.508 27.9631 180.891 28.2929 180.23 28.2929H174.211Z" fill="#121212"/>
<path d="M184.751 28.2929C184.224 28.2929 183.909 27.7041 184.203 27.2658C184.571 26.7175 185.187 26.3885 185.847 26.3885H201.337C201.875 26.3885 202.191 26.9924 201.884 27.434C201.511 27.972 200.898 28.2929 200.243 28.2929H184.751Z" fill="#121212"/>
<path d="M264.84 58.6007L264.028 58.8101C264.496 58.5245 265.002 58.3245 265.499 58.1912L266.31 57.9818C265.814 58.1151 265.308 58.315 264.84 58.6007Z" fill="#A5ACFC"/>
<path d="M261.785 68.7415C259.924 65.1042 260.926 60.6575 264.029 58.8103L264.841 58.6008C261.747 60.448 260.735 64.8947 262.597 68.532C264.172 71.6171 267.294 73.1215 270.092 72.3979L269.28 72.6073C266.483 73.3405 263.361 71.8266 261.785 68.7415Z" fill="#A5ACFC"/>
<path d="M267.694 57.8105C271.322 57.82 274.482 61.1526 274.75 65.247C275.017 69.3414 272.296 72.6549 268.668 72.6454C265.04 72.6359 261.879 69.3033 261.612 65.2089C261.335 61.1145 264.056 57.801 267.694 57.8105Z" fill="#121212"/>
<path d="M273.05 63.6282C273.203 64.0662 273.318 64.5233 273.375 64.9898C273.442 65.4469 273.451 65.9134 273.423 66.3419C273.232 69.008 271.418 71.0552 268.916 71.1504C268.496 71.1695 268.086 71.1218 267.685 71.0266C265.737 70.5886 264.028 68.9985 263.245 66.9037C263.312 66.8751 265.68 65.4278 266.615 64.8565C266.74 64.7803 266.892 64.7613 267.026 64.7994C267.141 64.8184 267.255 64.8851 267.351 64.9708L268.706 66.2086C268.802 66.2943 268.916 66.361 269.031 66.38C269.193 66.4086 269.346 66.38 269.48 66.2848L273.06 63.6282H273.05Z" fill="#00E1B4"/>
<path d="M273.051 63.6569L269.461 66.3039C269.337 66.3991 269.175 66.4277 269.012 66.3991C268.898 66.3801 268.783 66.3134 268.688 66.2277L267.341 64.9899C267.246 64.9042 267.131 64.8376 267.017 64.8185C266.874 64.79 266.73 64.7995 266.606 64.8757C265.68 65.4374 263.303 66.8752 263.246 66.9133C263.064 66.4182 262.93 65.904 262.854 65.3613C262.405 62.0572 264.401 59.3149 267.294 59.2197C267.704 59.2007 268.124 59.2483 268.525 59.3435H268.544C270.549 59.8101 272.297 61.4859 273.041 63.6664" fill="#5462FF"/>
</svg>
