<svg width="411" height="300" viewBox="0 0 411 300" fill="none" xmlns="http://www.w3.org/2000/svg">
<path d="M305.363 41.5315C314.854 40.963 315.319 40.4981 315.894 31.0547C316.467 40.4981 316.933 40.963 326.428 41.5315C316.933 42.1 316.468 42.5649 315.894 52.0052C315.32 42.5649 314.854 42.1 305.363 41.5315Z" fill="#C8DAE8"/>
<path d="M315.892 52.5765C315.59 52.5765 315.34 52.3425 315.321 52.0394C314.767 42.9289 314.488 42.6493 305.328 42.1012C305.027 42.0824 304.788 41.8327 304.788 41.5296C304.788 41.2264 305.027 40.9767 305.328 40.9579C314.488 40.4098 314.767 40.1302 315.321 31.0166C315.34 30.7151 315.59 30.4795 315.892 30.4795C316.193 30.4795 316.443 30.7135 316.462 31.0166C317.016 40.1302 317.296 40.4098 326.459 40.9579C326.761 40.9767 327 41.2264 327 41.5296C327 41.8327 326.761 42.0824 326.459 42.1012C317.297 42.6493 317.018 42.9289 316.462 52.0394C316.443 52.3409 316.193 52.5765 315.892 52.5765ZM311.004 41.5311C314.07 42.1342 315.287 43.3513 315.892 46.4107C316.495 43.3513 317.713 42.1342 320.779 41.5311C317.713 40.9265 316.496 39.7109 315.892 36.65C315.288 39.7125 314.07 40.9265 311.004 41.5311Z" fill="#155C6D"/>
<path d="M82.5752 230.686C105.041 229.34 106.144 228.237 107.502 205.886C108.861 228.236 109.963 229.338 132.442 230.686C109.962 232.031 108.861 233.134 107.502 255.485C106.144 233.136 105.041 232.033 82.5752 230.686Z" fill="#C8DAE8"/>
<path d="M107.503 256.057C107.202 256.057 106.952 255.823 106.933 255.52C105.592 233.491 104.68 232.583 82.5403 231.258C82.2387 231.239 82 230.989 82 230.686C82 230.383 82.2387 230.133 82.5403 230.114C104.68 228.789 105.592 227.881 106.933 205.852C106.952 205.55 107.202 205.314 107.503 205.314C107.805 205.314 108.055 205.548 108.074 205.852C109.41 227.881 110.322 228.789 132.478 230.114C132.779 230.133 133.018 230.383 133.018 230.686C133.018 230.989 132.779 231.239 132.478 231.258C110.322 232.583 109.41 233.491 108.074 255.52C108.055 255.822 107.805 256.057 107.503 256.057ZM90.3362 230.686C103.398 231.967 106.214 234.782 107.503 247.806C108.788 234.78 111.604 231.967 124.678 230.686C111.604 229.404 108.788 226.59 107.503 213.566C106.214 226.592 103.398 229.404 90.3362 230.686Z" fill="#155C6D"/>
<path d="M204 268.848C240.451 268.848 270 264.818 270 259.848C270 254.877 240.451 250.848 204 250.848C167.549 250.848 138 254.877 138 259.848C138 264.818 167.549 268.848 204 268.848Z" fill="#155C6D"/>
<g clip-path="url(#clip0_2530_10907)">
<path d="M203.009 77.9086C204.73 79.2069 207.094 80.0772 209.492 80.3676C211.889 80.6557 214.363 80.4228 216.37 79.602C218.376 78.7812 219.637 77.5766 219.824 75.9502L220.296 72.2046C220.465 70.8701 219.607 69.1232 217.863 67.8445C216.12 66.5155 213.778 65.6759 211.38 65.3854C208.961 65.0668 206.509 65.3302 204.502 66.151C202.496 66.9718 201.196 68.4401 201.027 69.7746L200.578 73.5508C200.369 75.1466 201.267 76.6322 203.01 77.9109L203.009 77.9086Z" fill="#70C5AD"/>
<path d="M218.387 78.9985C217.872 79.3771 217.256 79.7131 216.534 80.0078C214.525 80.8303 212.005 81.1106 209.438 80.8027C206.921 80.4982 204.483 79.5705 202.747 78.2574C200.817 76.8436 199.919 75.1949 200.14 73.4923L200.589 69.7202C200.788 68.15 202.26 66.5911 204.335 65.7453C206.395 64.9035 208.917 64.6215 211.434 64.9511C214.003 65.2614 216.381 66.1651 218.126 67.4964C219.909 68.8041 220.932 70.6766 220.729 72.2608L220.257 76.0064C220.124 77.1835 219.496 78.1843 218.387 78.9985ZM203.165 67.3903C202.207 68.0939 201.565 68.9818 201.456 69.8302L201.007 73.6023C200.825 74.9933 201.585 76.3238 203.264 77.5551L203.267 77.5599C204.886 78.7818 207.173 79.6466 209.54 79.9343C211.961 80.2262 214.327 79.9641 216.198 79.1998C218.156 78.3967 219.228 77.2905 219.383 75.9016L219.857 72.1502C220.016 70.8957 219.108 69.3083 217.598 68.1991C215.973 66.9572 213.743 66.1158 211.324 65.8223C208.947 65.5122 206.584 65.7725 204.666 66.5568C204.114 66.7813 203.606 67.0671 203.165 67.3903Z" fill="#155C6D"/>
<path d="M200.703 72.4769L201.024 69.7739C201.193 68.4394 202.494 66.9734 204.499 66.1503C206.503 65.3313 208.955 65.0678 211.376 65.3847C213.773 65.6728 216.116 66.5148 217.86 67.8437C219.605 69.1248 220.464 70.8677 220.292 72.2039L219.937 75.0269C224.262 72.7833 224.503 68.6492 220.331 65.5186C215.881 62.1719 208.004 61.1563 202.865 63.2981C198.096 65.2626 197.283 69.2588 200.703 72.4769Z" fill="#155C6D"/>
<path d="M221.345 74.6742C220.982 74.9404 220.581 75.1881 220.14 75.4173L219.4 75.8012L219.86 72.1519C220.021 70.8957 219.113 69.3083 217.603 68.199C215.977 66.9572 213.747 66.1158 211.328 65.8222C208.952 65.5121 206.588 65.7724 204.671 66.5567C202.912 67.2755 201.619 68.5943 201.46 69.8302L201.038 73.391L200.406 72.7967C198.688 71.1771 197.921 69.2978 198.254 67.5017C198.607 65.5685 200.188 63.926 202.703 62.8949C207.974 60.696 216.005 61.7184 220.6 65.1688C222.796 66.8179 223.918 68.8142 223.752 70.7908C223.63 72.2724 222.788 73.6186 221.349 74.6748L221.345 74.6742ZM220.483 74.2056C221.916 73.2697 222.763 72.0496 222.873 70.7187C223.009 69.0532 222.015 67.3334 220.068 65.8709C215.695 62.584 208.053 61.6129 203.035 63.7063C200.795 64.6292 199.414 66.0308 199.109 67.6641C198.878 68.9285 199.324 70.2716 200.376 71.507L200.586 69.7254C200.785 68.1552 202.257 66.5963 204.332 65.7505C206.392 64.9086 208.914 64.6266 211.432 64.9562C214 65.2665 216.378 66.1702 218.123 67.5015C219.906 68.8092 220.929 70.6818 220.726 72.266L220.482 74.2096L220.483 74.2056Z" fill="#155C6D"/>
<path d="M198.658 67.7852C198.656 67.739 198.655 67.6929 198.656 67.645L199.282 62.8552C199.473 61.1312 201.131 59.2622 203.696 58.2158C206.244 57.1394 209.436 56.8432 212.501 57.2024C215.561 57.6089 218.585 58.6974 220.809 60.3696C223.033 62.0417 224.13 64.2662 223.937 65.9878L223.311 70.6397C223.416 68.9318 222.43 67.0941 220.331 65.5184C215.881 62.1717 208.004 61.1562 202.865 63.298C200.304 64.3409 198.89 65.984 198.658 67.7852Z" fill="#C8DAE8"/>
<path d="M223.75 70.6982L222.876 70.6145C222.975 68.9872 221.98 67.3007 220.07 65.869C215.697 62.5821 208.055 61.611 203.037 63.7044C200.713 64.6457 199.312 66.1195 199.092 67.8431L198.22 67.8056C198.218 67.7489 198.217 67.6922 198.219 67.6361L198.846 62.7984C199.06 60.8399 200.912 58.8753 203.531 57.8119C206.036 56.752 209.242 56.3806 212.551 56.7668C215.84 57.2083 218.864 58.3617 221.072 60.0209C223.297 61.6954 224.592 64.0568 224.372 66.0416L223.75 70.6982ZM200.58 64.0549C201.183 63.6123 201.892 63.2217 202.702 62.8923C207.97 60.6952 216.001 61.7176 220.596 65.168C221.802 66.076 222.686 67.0871 223.21 68.1412L223.504 65.9357C223.692 64.2614 222.528 62.2127 220.548 60.7242C218.458 59.1562 215.58 58.0587 212.445 57.6386C209.289 57.2697 206.241 57.6194 203.872 58.6228C201.565 59.5667 199.9 61.282 199.719 62.9073L199.434 65.11C199.757 64.7312 200.141 64.3805 200.582 64.0572L200.58 64.0549Z" fill="#155C6D"/>
<path d="M153.868 163.9C151.494 142.175 154.174 121.02 161.453 104.453C165.916 94.2378 171.801 86.4281 178.903 81.2145C184.109 77.3925 189.658 75.1818 195.337 74.5062L195.841 74.4623C196.179 74.3992 196.541 74.369 196.898 74.3382L225.004 71.7266C219.047 72.2802 213.21 74.5177 207.754 78.523C200.652 83.7366 194.772 91.5469 190.305 101.762C183.024 118.377 180.321 139.451 182.742 161.239C185.161 183.025 192.369 202.974 203.077 217.511C213.944 232.211 227.32 239.67 240.349 239.139L213.156 241.686C213.156 241.686 212.818 241.749 212.652 241.73L212.602 241.766L212.58 241.736C199.189 242.717 185.338 235.237 174.205 220.174C163.47 205.656 156.266 185.658 153.847 163.872L153.87 163.903L153.868 163.9Z" fill="#155C6D"/>
<path d="M240.393 239.575L213.198 242.123C213.157 242.131 212.972 242.162 212.793 242.17L212.556 242.344L212.404 242.187C198.596 243.113 184.912 235.397 173.852 220.434C163.105 205.899 155.845 185.83 153.412 163.92L153.231 162.292L153.267 162.341C151.179 141.055 153.929 120.49 161.054 104.279C165.534 94.0184 171.455 86.139 178.644 80.8615C183.831 77.0533 189.431 74.769 195.286 74.0724L195.803 74.0262C196.098 73.9691 196.454 73.94 196.817 73.9058L224.964 71.2923L225.046 72.1637L225.029 72.1653C219.039 72.7284 213.314 74.9852 208.014 78.8764C200.952 84.0606 195.129 91.8212 190.709 101.937C183.45 118.503 180.775 139.546 183.18 161.19C185.59 182.885 192.783 202.793 203.433 217.25C214.056 231.618 227.161 239.236 240.335 238.701L240.393 239.575ZM212.801 241.291C212.879 241.284 212.988 241.27 213.078 241.254L234.301 239.263C222.932 237.637 211.903 230.18 202.726 217.769C191.984 203.191 184.736 183.128 182.309 161.282C179.888 139.487 182.585 118.286 189.904 101.581C194.389 91.3211 200.307 83.4434 207.496 78.1658C210.715 75.8028 214.088 74.0256 217.584 72.8543L196.941 74.7712C196.56 74.8046 196.231 74.8357 195.92 74.8904L195.374 74.9427C189.685 75.6187 184.226 77.8472 179.163 81.5638C172.101 86.748 166.278 94.5087 161.86 104.627C154.616 121.109 151.932 142.14 154.306 163.851L154.483 165.474L154.475 165.462C157.067 186.581 164.168 205.865 174.559 219.911C185.486 234.698 198.978 242.296 212.549 241.298L212.801 241.291Z" fill="#155C6D"/>
<path d="M203.054 217.481C213.922 232.181 227.297 239.64 240.326 239.109L243.785 238.806C243.785 238.806 243.835 238.77 243.883 238.781C249.233 237.974 254.444 235.826 259.352 232.224C266.453 227.01 272.336 219.198 276.801 208.985C284.104 192.401 286.784 171.296 284.364 149.507C281.968 127.752 274.737 107.773 264.051 93.2662C252.918 78.2037 239.091 70.7026 225.774 71.6803C225.774 71.6803 225.702 71.686 225.654 71.6744L225.052 71.743C219.095 72.2965 213.258 74.534 207.802 78.5393C200.7 83.7529 194.817 91.5649 190.352 101.778C183.049 118.362 180.369 139.467 182.789 161.256C185.186 183.011 192.416 202.99 203.124 217.527L203.054 217.481Z" fill="#C8DAE8"/>
<path fill-rule="evenodd" clip-rule="evenodd" d="M199.303 201.861C192.34 192.39 187.21 180.285 184.376 167.132L193.001 165.274C195.625 177.456 200.326 188.373 206.44 196.674L206.425 196.69C214.071 207.009 222.734 211.584 230.309 211.431L230.487 220.252C219.057 220.482 207.965 213.616 199.289 201.877L199.303 201.861Z" fill="#70C5AD"/>
<path d="M187.694 111.718C191.024 103.683 195.635 97.2623 201.544 92.9244L206.765 100.036C202.461 103.196 198.719 108.156 195.842 115.1L195.838 115.112C191.122 126.406 189.508 141.175 191.537 156.752L182.788 157.891C180.607 141.14 182.255 124.749 187.694 111.718Z" fill="#F7CC69"/>
<path d="M216.235 87.3249L216.674 87.2835L216.918 87.3034L216.917 87.2778C216.917 87.2778 216.917 87.2777 216.918 87.3034L218.21 87.4087C217.727 87.2819 217.339 87.2736 217.251 87.2717L217.251 87.2717L217.245 87.2716C217.167 87.2699 217.101 87.2707 217.051 87.272L216.979 87.2745L216.947 87.2761L216.942 87.2763C228.657 86.6521 240.137 93.6084 249.02 105.631L249.025 105.636C257.579 117.251 263.392 132.895 265.556 149.632L256.807 150.763C254.797 135.22 249.429 121.063 241.923 110.87C234.075 100.251 225.122 95.6752 217.412 96.0861L217.405 96.0865L217.37 96.0882L217.285 96.0912C217.269 96.0916 217.251 96.092 217.232 96.0923L217.065 96.108L217.064 96.092L217.048 96.0917L217.045 96.0916C216.93 96.089 216.493 96.0793 215.968 95.9413L216.763 92.9136L216.235 87.3249Z" fill="#F35F5F"/>
<path d="M259.61 232.575C254.754 236.139 249.495 238.369 243.974 239.211L243.946 239.232L240.364 239.546C226.875 240.095 213.505 232.353 202.701 217.744L201.384 215.961L201.523 216.047C191.448 201.606 184.663 182.268 182.35 161.303C179.924 139.442 182.623 118.24 189.949 101.603C194.433 91.3429 200.352 83.4652 207.541 78.1877C212.978 74.1962 218.854 71.8832 225.01 71.3101L225.761 71.2517C239.349 70.2488 253.438 78.1809 264.403 93.0085C275.153 107.598 282.393 127.65 284.797 149.465C287.224 171.321 284.526 192.526 277.202 209.165C272.718 219.426 266.8 227.303 259.611 232.581L259.61 232.575ZM243.844 238.343C249.223 237.525 254.353 235.346 259.093 231.866C266.155 226.682 271.978 218.921 276.398 208.806C283.666 192.302 286.341 171.259 283.927 149.553C281.54 127.889 274.353 107.99 263.697 93.523C252.918 78.9432 239.106 71.1373 225.804 72.111C225.775 72.1148 225.714 72.116 225.646 72.1117L225.103 72.1728C219.097 72.7335 213.366 74.9913 208.063 78.8842C201.001 84.0684 195.178 91.8291 190.758 101.945C183.491 118.444 180.816 139.487 183.225 161.197C185.616 182.862 192.811 202.772 203.48 217.256L204.669 218.876C215.061 232.167 227.655 239.179 240.31 238.662L243.843 238.336L243.844 238.343Z" fill="#155C6D"/>
<path d="M203.054 217.481C213.922 232.181 227.297 239.64 240.326 239.109L243.785 238.806C243.785 238.806 243.835 238.77 243.883 238.781C249.233 237.974 254.444 235.826 259.352 232.224C266.453 227.01 272.336 219.198 276.801 208.985C284.104 192.401 286.784 171.296 284.364 149.507C281.968 127.752 274.737 107.773 264.051 93.2662C252.918 78.2037 239.091 70.7026 225.774 71.6803C225.774 71.6803 225.702 71.686 225.654 71.6744L225.052 71.743C219.095 72.2965 213.258 74.534 207.802 78.5393C200.7 83.7529 194.817 91.5649 190.352 101.778C183.049 118.362 180.369 139.467 182.789 161.256C185.186 183.011 192.416 202.99 203.124 217.527L203.054 217.481ZM226.271 230.196C219.846 227.136 213.525 221.764 207.79 214.005C186.9 185.706 181.465 136.517 195.693 104.141C199.878 94.6439 205.282 87.6946 211.336 83.2502C225.981 72.5938 244.507 76.7825 259.286 96.8047C280.176 125.103 285.61 174.292 271.382 206.668C261.065 230.169 243.263 238.302 226.266 230.243L226.271 230.196Z" fill="#C8DAE8"/>
<path d="M259.61 232.575C254.754 236.139 249.495 238.369 243.974 239.211L243.946 239.232L240.364 239.546C226.875 240.095 213.505 232.353 202.701 217.744L201.384 215.961L201.523 216.047C191.448 201.606 184.663 182.268 182.35 161.303C179.924 139.442 182.623 118.24 189.949 101.603C194.433 91.3429 200.352 83.4652 207.541 78.1877C212.978 74.1962 218.854 71.8832 225.01 71.3101L225.761 71.2517C239.349 70.2488 253.438 78.1809 264.403 93.0085C275.153 107.598 282.393 127.65 284.797 149.465C287.224 171.321 284.526 192.526 277.202 209.165C272.718 219.426 266.8 227.303 259.611 232.581L259.61 232.575ZM243.844 238.343C249.223 237.525 254.353 235.346 259.093 231.866C266.155 226.682 271.978 218.921 276.398 208.806C283.666 192.302 286.341 171.259 283.927 149.553C281.54 127.889 274.353 107.99 263.697 93.523C252.918 78.9432 239.106 71.1373 225.804 72.111C225.775 72.1148 225.714 72.116 225.646 72.1117L225.103 72.1728C219.097 72.7335 213.366 74.9913 208.063 78.8842C201.001 84.0684 195.178 91.8291 190.758 101.945C183.491 118.444 180.816 139.487 183.225 161.197C185.616 182.862 192.811 202.772 203.48 217.256L204.669 218.876C215.061 232.167 227.655 239.179 240.31 238.662L243.843 238.336L243.844 238.343ZM256.144 227.849C253.752 229.605 251.226 230.988 248.585 231.971C241.372 234.664 233.59 234.202 226.08 230.641L225.809 230.514L225.812 230.464C219.175 227.238 212.996 221.787 207.439 214.266C186.486 185.883 181.038 136.403 195.294 103.967C199.392 94.6674 204.702 87.5804 211.079 82.8992C226.526 71.6575 245.133 76.8886 259.643 96.5459C280.593 124.931 286.042 174.411 271.786 206.847C267.698 216.157 262.373 223.277 256.144 227.849ZM226.723 229.977C233.93 233.318 241.378 233.724 248.276 231.15C257.579 227.676 265.42 219.155 270.979 206.493C285.121 174.311 279.717 125.223 258.933 97.0638C244.743 77.8381 226.606 72.679 211.592 83.6027C205.342 88.1905 200.128 95.1604 196.093 104.315C181.951 136.498 187.355 185.586 208.142 213.743C213.686 221.251 219.848 226.653 226.457 229.802L226.728 229.93L226.723 229.977Z" fill="#155C6D"/>
<path d="M221.33 78.4298C244.233 80.4746 265.153 111.45 269.436 151.335C273.805 191.994 259.286 227.286 236.617 233.172C250.164 234.403 263.156 225.424 271.385 206.671C285.615 174.293 280.178 125.106 259.288 96.8072C247.72 81.1326 233.841 75.1594 221.33 78.4298Z" fill="#155C6D"/>
<path d="M256.08 227.929C250.188 232.254 243.564 234.244 236.575 233.609L234.067 233.381L236.504 232.747C258.99 226.902 273.272 191.17 268.998 151.381C264.779 112.091 244.267 80.9165 221.283 78.8656L218.779 78.6424L221.213 78.0043C234.392 74.5584 248.398 81.3159 259.636 96.5407C280.586 124.926 286.035 174.405 271.778 206.842C267.66 216.232 262.274 223.375 256.076 227.924L256.08 227.929ZM239.147 232.847C252.075 232.826 263.581 223.358 270.979 206.493C285.121 174.311 279.717 125.223 258.933 97.064C248.621 83.0908 235.983 76.3801 223.893 78.3338C246.244 82.3712 265.759 113.027 269.87 151.285C271.982 170.94 269.743 190.178 263.57 205.453C257.861 219.584 249.26 229.207 239.147 232.847Z" fill="#155C6D"/>
<path d="M241.982 118.41L234.424 150.954C236.691 148.13 223.791 149.365 227.68 149.778C232.8 150.313 235.866 154.386 234.527 158.837C233.191 163.29 234.128 164.083 228.992 163.536C225.103 163.123 223.652 152.11 223.17 148.983L241.569 118.967L241.982 118.41Z" fill="#155C6D"/>
<path d="M233.566 163.276C232.89 164.189 231.726 164.276 228.944 163.977C225.374 163.597 223.792 156.091 222.813 149.597L222.707 148.887L222.792 148.747L241.192 118.732L241.628 118.143L242.418 118.506L235.095 150.041C235.186 150.326 235.2 150.712 234.772 151.23L233.991 150.85L234.145 150.183C233.517 149.626 231.133 149.537 229.325 149.627C231.366 150.17 233.069 151.323 234.125 152.912C235.301 154.679 235.595 156.83 234.953 158.963C234.719 159.742 234.556 160.407 234.419 160.97C234.159 162.036 233.935 162.777 233.566 163.276ZM223.63 149.076L223.689 149.466C224.183 152.746 225.691 162.739 229.033 163.094C232.879 163.501 232.926 163.293 233.552 160.757C233.692 160.178 233.861 159.502 234.098 158.707C234.664 156.831 234.408 154.948 233.382 153.407C232.207 151.641 230.109 150.476 227.633 150.219C227.133 150.166 226.567 150.109 226.503 149.652C226.487 149.563 226.482 149.246 226.886 149.079C227.724 148.729 232.491 148.379 234.354 149.293L240.973 120.788L223.63 149.076Z" fill="#155C6D"/>
<path d="M234.519 152.782C232.977 145.421 228.705 140.087 224.978 140.867C221.25 141.648 219.478 148.248 221.019 155.609C222.561 162.97 226.833 168.305 230.56 167.524C234.288 166.743 236.06 160.143 234.519 152.782Z" fill="#155C6D"/>
<path d="M233.138 168.375C232.494 168.848 231.773 169.175 230.977 169.357C229.434 169.684 227.781 169.332 226.22 168.324C223.057 166.275 220.354 161.58 219.192 156.048C217.361 147.411 219.7 140.146 224.551 139.049C226.104 138.715 227.747 139.074 229.308 140.082C232.478 142.141 235.173 146.827 236.336 152.358C237.871 159.6 236.502 165.906 233.138 168.375ZM224.607 143.053C222.714 144.443 221.629 149.424 222.868 155.271C223.821 159.779 225.95 163.671 228.266 165.179C228.974 165.636 229.626 165.808 230.2 165.681C232.446 165.257 234.074 159.706 232.68 153.12C231.727 148.613 229.615 144.723 227.289 143.223C226.574 142.756 225.922 142.584 225.348 142.71C225.09 142.76 224.839 142.883 224.607 143.053Z" fill="#155C6D"/>
<path d="M225.866 156.779L225.157 157.299L225.844 156.748L225.866 156.779Z" fill="#155C6D"/>
<path d="M154.232 81.8014L153.661 81.1371C154.018 80.8281 154.399 80.5481 154.781 80.2681L155.299 80.9745C154.977 81.2218 154.572 81.5086 154.232 81.8014Z" fill="#155C6D"/>
<path d="M196.898 74.3385C196.536 74.3686 196.176 74.4012 195.841 74.4626L195.337 74.5065C189.658 75.1821 184.111 77.391 178.903 81.2148C171.803 86.4266 165.918 94.2404 161.455 104.456C154.178 121.021 151.496 142.178 153.869 163.903L153.847 163.872C154.757 172.068 156.348 180.01 158.545 187.504C168.4 190.662 178.896 191.77 189.384 190.818C186.177 181.631 183.899 171.657 182.74 161.237C180.321 139.451 183.024 118.377 190.303 101.76C194.768 91.5465 200.651 83.7345 207.753 78.5209C213.209 74.5156 219.043 72.2799 225.002 71.7246L196.898 74.3385Z" fill="#70C5AD"/>
<path d="M189.983 191.205L189.426 191.255C178.77 192.225 168.337 191.1 158.412 187.921L158.191 187.852L158.125 187.628C155.903 180.055 154.317 172.08 153.411 163.925L153.23 162.296L153.266 162.346C151.178 141.06 153.93 120.497 161.053 104.284C165.537 94.0237 171.455 86.146 178.645 80.8685C183.832 77.0603 189.432 74.776 195.287 74.0794L195.804 74.0333C196.114 73.9762 196.485 73.9432 196.86 73.9109L224.931 71.3025L224.963 71.301L225.045 72.1724L225.019 72.1768C219.034 72.7365 213.313 74.9939 208.012 78.8851C200.95 84.0693 195.128 91.8299 190.707 101.946C183.45 118.514 180.775 139.557 183.179 161.198C184.316 171.43 186.544 181.351 189.8 190.684L189.984 191.216L189.983 191.205ZM158.899 187.158C168.472 190.193 178.524 191.293 188.785 190.432C185.609 181.193 183.428 171.39 182.306 161.288C179.884 139.497 182.581 118.293 189.901 101.588C194.385 91.3275 200.304 83.4498 207.493 78.1722C210.712 75.8092 214.083 74.0337 217.575 72.8618L196.935 74.7793C196.586 74.8113 196.243 74.8382 195.918 74.8991L195.373 74.9514C189.684 75.6275 184.224 77.856 179.161 81.5725C172.099 86.7568 166.277 94.5174 161.856 104.633C154.614 121.118 151.931 142.149 154.303 163.857L154.48 165.481L154.473 165.471C155.389 172.924 156.875 180.21 158.899 187.158Z" fill="#155C6D"/>
<path d="M177.992 116.059C185.369 110.644 188.878 102.886 185.829 98.7328C182.779 94.5791 174.327 95.602 166.95 101.018C159.573 106.433 156.065 114.19 159.114 118.344C162.163 122.498 170.615 121.475 177.992 116.059Z" fill="#155C6D"/>
<path d="M184.829 98.7307C187.375 102.199 184.556 108.596 178.532 113.018C172.509 117.44 165.561 118.213 163.015 114.745L149.087 95.7725C151.633 99.241 158.581 98.4674 164.604 94.0455C170.628 89.6237 173.448 83.2269 170.901 79.7583L184.829 98.7307Z" fill="#70C5AD"/>
<path d="M178.794 113.369C172.585 117.927 165.349 118.659 162.664 115.002L148.736 96.0293L149.445 95.509C151.844 98.7774 158.529 97.9614 164.348 93.6899C170.166 89.4184 172.946 83.287 170.546 80.0186L171.255 79.4983L185.183 98.4706C187.867 102.128 184.999 108.814 178.794 113.369ZM151.142 97.8254L163.372 114.485C165.772 117.754 172.456 116.938 178.275 112.666C184.094 108.395 186.873 102.263 184.473 98.995L172.243 82.3351C172.496 86.0267 169.689 90.856 164.864 94.398C160.039 97.94 154.586 99.1748 151.142 97.8254Z" fill="#155C6D"/>
<path d="M164.605 94.0454C170.629 89.6233 173.449 83.2266 170.902 79.7582C168.356 76.2898 161.409 77.0629 155.385 81.4851C149.361 85.9073 146.542 92.3039 149.088 95.7724C151.634 99.2408 158.581 98.4676 164.605 94.0454Z" fill="#C8DAE8"/>
<path d="M164.867 94.3969C158.657 98.9553 151.421 99.6868 148.737 96.0299C146.052 92.3729 148.921 85.6868 155.128 81.1301C161.335 76.5734 168.571 75.8419 171.255 79.4988C173.94 83.1558 171.072 89.8419 164.867 94.3969ZM155.646 81.8365C149.825 86.1097 147.046 92.2411 149.446 95.5095C151.845 98.778 158.53 97.9619 164.348 93.6904C170.167 89.419 172.946 83.2876 170.547 80.0192C168.147 76.7507 161.463 77.5668 155.646 81.8365Z" fill="#155C6D"/>
<path d="M181.003 82.6132C184.763 87.7349 180.599 97.1835 171.705 103.713C162.811 110.242 152.551 111.385 148.79 106.261L143.77 99.4229C147.529 104.544 157.791 103.403 166.685 96.8744C175.579 90.3453 179.744 80.899 175.983 75.775L181.003 82.6132Z" fill="#155C6D"/>
<path d="M171.965 104.066C162.889 110.728 152.332 111.832 148.434 106.522L143.414 99.6836L144.123 99.1633C147.734 104.082 157.739 102.898 166.426 96.5209C175.113 90.1439 179.238 80.9549 175.627 76.0357L176.336 75.5154L181.356 82.3537C185.254 87.6637 181.04 97.4033 171.965 104.066ZM146.171 101.958L149.14 106.003C152.752 110.922 162.757 109.738 171.444 103.361C180.13 96.9839 184.256 87.7948 180.645 82.8757L177.675 78.8302C178.525 84.2872 174.356 91.7832 166.941 97.2267C159.525 102.67 151.121 104.401 146.171 101.958Z" fill="#155C6D"/>
<path d="M161.677 73.7275C163.384 73.1262 165.094 72.6612 166.813 72.4252C171.348 71.8898 174.685 73.1182 176.431 75.5614C176.476 75.6226 176.522 75.6798 176.567 75.741L181.232 82.0965C182.876 84.3359 183.057 88.3925 181.225 92.5313C179.393 96.6702 175.974 100.578 171.889 103.578L166.869 96.7393C162.687 99.8093 157.837 101.97 153.355 102.514C144.337 103.547 140.005 97.6458 143.715 89.3815C145.567 85.1809 149.041 81.2354 153.251 78.1884C155.869 76.2661 158.744 74.7134 161.673 73.7269L161.677 73.7275Z" fill="#C8DAE8"/>
<path d="M172.15 103.929L171.797 104.188L166.775 97.3478C162.46 100.439 157.73 102.422 153.414 102.945C148.882 103.464 145.325 102.307 143.404 99.6801C141.49 97.0629 141.459 93.3385 143.318 89.1976C145.141 85.0657 148.599 81.0049 152.996 77.8318C155.701 75.8456 158.656 74.282 161.536 73.3131C163.424 72.6477 165.133 72.2159 166.751 71.9918C171.312 71.4519 174.872 72.6289 176.79 75.3052L176.92 75.4818L181.585 81.8373C183.425 84.3428 183.441 88.6104 181.626 92.7079C179.822 96.7822 176.457 100.767 172.15 103.929ZM153.312 78.6869C149.113 81.7691 145.852 85.6198 144.12 89.5546C142.392 93.4 142.391 96.8104 144.112 99.1639C145.841 101.519 149.104 102.558 153.309 102.077C157.596 101.557 162.319 99.5357 166.612 96.3844L166.965 96.1251L171.983 102.961C176 99.9325 179.133 96.1792 180.828 92.3515C182.491 88.5942 182.511 84.5788 180.879 82.3559L176.091 75.8332C174.356 73.4106 171.083 72.3634 166.865 72.8617C165.311 73.0748 163.658 73.4943 161.824 74.141L161.82 74.1445C158.953 75.1071 155.994 76.7285 153.312 78.6869Z" fill="#155C6D"/>
<path d="M166.683 96.8754C175.578 90.3452 179.741 80.8987 175.98 75.776C172.22 70.6533 161.96 71.7943 153.065 78.3245C144.169 84.8547 140.007 94.3012 143.767 99.4239C147.528 104.547 157.787 103.406 166.683 96.8754Z" fill="#70C5AD"/>
<path d="M166.945 97.227C157.869 103.889 147.312 104.993 143.414 99.6833C139.516 94.3733 143.73 84.6337 152.808 77.9697C161.886 71.3058 172.438 70.2052 176.334 75.5128C180.231 80.8205 176.018 90.5625 166.943 97.2247L166.945 97.227ZM153.326 78.6762C144.64 85.0531 140.512 94.2439 144.123 99.163C147.734 104.082 157.739 102.898 166.426 96.5206C175.113 90.1436 179.238 80.9546 175.627 76.0355C172.016 71.1164 162.011 72.3009 153.326 78.6762Z" fill="#155C6D"/>
<path d="M173.827 154.247C174.907 147.541 172.243 141.535 167.877 140.832C163.511 140.129 159.096 144.995 158.016 151.7C156.936 158.406 159.6 164.412 163.966 165.115C168.332 165.818 172.747 160.952 173.827 154.247Z" fill="#155C6D"/>
<path d="M165.089 161.204C168.118 161.658 171.237 157.796 172.057 152.58C172.878 147.365 171.085 142.771 168.056 142.317L151.486 139.841C154.515 140.295 156.308 144.889 155.487 150.104C154.667 155.32 151.548 159.182 148.519 158.728L165.089 161.204Z" fill="#70C5AD"/>
<path d="M168.27 160.694C167.244 161.448 166.13 161.802 165.023 161.636L148.453 159.156L148.582 158.29C151.365 158.704 154.27 155.006 155.054 150.031C155.564 146.787 155.038 143.622 153.681 141.773C153.051 140.916 152.27 140.395 151.423 140.267L151.551 139.401L168.119 141.879C169.206 142.041 170.184 142.682 170.956 143.735C172.469 145.795 173.041 149.126 172.486 152.646C171.92 156.243 170.268 159.225 168.268 160.692L168.27 160.694ZM151.01 158.656L165.151 160.77C167.936 161.182 170.839 157.486 171.623 152.511C172.133 149.267 171.609 146.104 170.252 144.256C169.621 143.396 168.84 142.875 167.992 142.747L153.861 140.637C154.048 140.822 154.223 141.031 154.389 141.257C155.901 143.317 156.473 146.648 155.92 150.17C155.294 154.174 153.31 157.421 151.01 158.656Z" fill="#155C6D"/>
<path d="M155.476 150.163C156.315 144.951 154.545 140.331 151.522 139.845C148.499 139.358 145.368 143.188 144.528 148.399C143.689 153.611 145.46 158.231 148.483 158.717C151.506 159.204 154.637 155.374 155.476 150.163Z" fill="#C8DAE8"/>
<path d="M151.701 158.218C150.675 158.972 149.561 159.325 148.454 159.16C147.369 159 146.389 158.356 145.618 157.306C144.128 155.276 143.539 151.863 144.088 148.395C144.941 142.953 148.285 138.918 151.553 139.407C152.639 139.567 153.618 140.21 154.389 141.26C155.902 143.321 156.473 146.652 155.921 150.174C155.355 153.771 153.702 156.753 151.703 158.22L151.701 158.218ZM148.78 141.048C146.99 142.362 145.48 145.152 144.951 148.529C144.441 151.774 144.966 154.937 146.323 156.785C146.954 157.645 147.735 158.166 148.582 158.293C151.365 158.708 154.27 155.009 155.054 150.035C155.564 146.79 155.038 143.625 153.681 141.777C153.052 140.919 152.271 140.398 151.423 140.271C150.528 140.138 149.625 140.427 148.78 141.048Z" fill="#155C6D"/>
<path d="M153.638 164.101C158.112 164.77 162.721 159.068 163.931 151.367C165.141 143.666 162.495 136.878 158.022 136.209L152.05 135.316C156.524 135.986 159.168 142.771 157.959 150.474C156.749 158.175 152.141 163.878 147.667 163.208L153.638 164.101Z" fill="#C8DAE8"/>
<path d="M158.224 163.185C156.752 164.265 155.155 164.771 153.574 164.537L147.602 163.644L147.731 162.778C151.96 163.409 156.352 157.866 157.525 150.406C158.284 145.561 157.495 140.828 155.46 138.057C154.496 136.743 153.295 135.946 151.986 135.748L152.115 134.881C152.115 134.881 152.125 134.881 152.129 134.882L158.086 135.774C159.633 136.005 161.034 136.926 162.138 138.431C164.306 141.384 165.159 146.367 164.36 151.433C163.532 156.693 161.123 161.053 158.222 163.183L158.224 163.185ZM150.657 163.21L153.703 163.666C157.932 164.298 162.324 158.754 163.497 151.294C164.258 146.452 163.469 141.719 161.434 138.948C160.47 137.634 159.267 136.835 157.96 136.639L154.92 136.185C155.368 136.559 155.786 137.014 156.168 137.534C158.335 140.487 159.189 145.47 158.391 150.539C157.417 156.74 154.218 161.697 150.657 163.21Z" fill="#155C6D"/>
<path d="M141.677 154.941C141.855 156.206 142.125 157.428 142.538 158.578C143.69 161.588 145.561 163.269 147.677 163.56C147.73 163.568 147.781 163.578 147.834 163.586L153.383 164.416C155.338 164.709 157.963 163.488 159.979 160.987C161.995 158.485 163.343 155.064 163.899 151.528L157.928 150.635C158.496 147.015 158.273 143.276 157.146 140.295C154.84 134.32 149.686 133.548 145.675 138.58C143.627 141.116 142.271 144.58 141.726 148.212C141.368 150.478 141.332 152.784 141.668 154.94L141.677 154.941Z" fill="#155C6D"/>
<path d="M158.183 163.328C156.579 164.505 154.832 165.077 153.322 164.852L147.605 163.994C145.255 163.671 143.304 161.803 142.132 158.735C141.736 157.638 141.446 156.419 141.247 155.007C140.916 152.873 140.932 150.501 141.304 148.145C141.877 144.314 143.311 140.819 145.344 138.305C147.388 135.739 149.8 134.523 152.14 134.882C154.463 135.238 156.392 137.105 157.561 140.139C158.643 143.001 158.949 146.581 158.432 150.27L164.409 151.161L164.341 151.596C163.752 155.35 162.325 158.782 160.328 161.264C159.675 162.073 158.947 162.77 158.187 163.328L158.183 163.328ZM147.998 136.911C147.318 137.411 146.654 138.061 146.023 138.85C144.085 141.251 142.718 144.596 142.164 148.275C141.807 150.548 141.788 152.827 142.105 154.873L142.109 154.878C142.3 156.234 142.575 157.394 142.947 158.43C144 161.176 145.701 162.847 147.736 163.126L147.901 163.153L153.447 163.985C155.349 164.266 157.835 162.952 159.641 160.713C161.466 158.446 162.794 155.329 163.398 151.896L157.428 151.006L157.497 150.571C158.078 146.88 157.81 143.286 156.737 140.454C155.686 137.728 154.005 136.056 152.002 135.751C150.679 135.548 149.304 135.956 147.995 136.917L147.998 136.911Z" fill="#155C6D"/>
<path d="M157.944 150.565C159.184 142.867 156.569 136.043 152.102 135.324C147.636 134.605 143.011 140.262 141.771 147.96C140.531 155.658 143.147 162.481 147.613 163.201C152.079 163.92 156.705 158.263 157.944 150.565Z" fill="#70C5AD"/>
<path d="M152.255 162.291C150.783 163.371 149.186 163.876 147.605 163.642C146.058 163.411 144.657 162.494 143.55 160.987C141.383 158.034 140.531 153.054 141.327 147.983C142.571 140.061 147.409 134.177 152.117 134.88C153.664 135.111 155.063 136.029 156.17 137.537C158.337 140.489 159.191 145.473 158.393 150.541C157.565 155.801 155.156 160.161 152.255 162.291ZM147.943 136.933C145.249 138.911 142.984 143.077 142.19 148.121C141.431 152.966 142.22 157.699 144.254 160.47C145.219 161.784 146.422 162.579 147.731 162.778C151.961 163.405 156.352 157.866 157.525 150.406C158.285 145.561 157.495 140.828 155.461 138.057C154.496 136.743 153.295 135.946 151.986 135.748C150.616 135.544 149.229 135.99 147.943 136.933Z" fill="#155C6D"/>
<path fill-rule="evenodd" clip-rule="evenodd" d="M226.204 157.006C225.075 155.455 224.776 152.731 225.547 150.912C225.879 150.103 226.422 149.646 227.008 149.528L227.074 149.479C227.115 149.449 227.144 149.428 227.203 149.448C227.222 149.434 227.274 149.459 227.299 149.44L232.697 148.924C233.345 148.824 234.068 149.171 234.665 149.985C235.8 151.531 236.099 154.256 235.322 156.079C234.919 157.004 234.31 157.51 233.604 157.531L228.009 158.064C227.401 158.072 226.747 157.739 226.203 157.011L226.204 157.006Z" fill="#70C5AD"/>
<path d="M234.827 157.696C234.466 157.961 234.059 158.104 233.615 158.117L228.063 158.649C227.172 158.664 226.361 158.202 225.728 157.36L225.723 157.354C224.471 155.621 224.153 152.691 225 150.684C225.378 149.778 226.001 149.179 226.766 148.979C226.837 148.936 226.906 148.905 226.977 148.882L227.037 148.838L227.246 148.85L232.647 148.332C233.516 148.201 234.437 148.671 235.144 149.634C236.411 151.36 236.726 154.293 235.866 156.309C235.6 156.923 235.247 157.392 234.829 157.699L234.827 157.696ZM226.677 156.654C227.07 157.189 227.543 157.476 227.999 157.472L233.546 156.94C234.212 156.918 234.602 156.247 234.78 155.839C235.468 154.227 235.197 151.705 234.188 150.331C233.751 149.735 233.241 149.432 232.789 149.5L227.121 150.107C226.689 150.19 226.329 150.562 226.094 151.139C225.411 152.752 225.677 155.272 226.677 156.654Z" fill="#155C6D"/>
<path d="M235.602 152.658C235.117 150.342 233.773 148.664 232.601 148.91C231.428 149.155 230.87 151.231 231.355 153.547C231.84 155.862 233.184 157.54 234.357 157.295C235.529 157.049 236.087 154.973 235.602 152.658Z" fill="#C8DAE8"/>
<path d="M235.168 157.563C234.965 157.712 234.739 157.815 234.488 157.872C234.003 157.975 233.483 157.864 232.992 157.547C231.997 156.903 231.147 155.426 230.781 153.686C230.205 150.969 230.941 148.684 232.467 148.339C232.955 148.233 233.472 148.346 233.963 148.664C234.96 149.311 235.808 150.785 236.174 152.525C236.657 154.803 236.226 156.786 235.168 157.563ZM232.485 149.598C231.889 150.035 231.548 151.602 231.938 153.441C232.237 154.859 232.907 156.083 233.636 156.558C233.858 156.702 234.063 156.755 234.244 156.716C234.95 156.582 235.463 154.836 235.024 152.765C234.724 151.347 234.06 150.123 233.328 149.651C233.103 149.504 232.898 149.45 232.718 149.49C232.637 149.506 232.558 149.544 232.485 149.598Z" fill="#155C6D"/>
</g>
<defs>
<clipPath id="clip0_2530_10907">
<rect width="148.403" height="187.83" fill="white" transform="translate(98.5225 117.82) rotate(-36.2825)"/>
</clipPath>
</defs>
</svg>
