<svg width="411" height="300" viewBox="0 0 411 300" fill="none" xmlns="http://www.w3.org/2000/svg">
<path d="M120.734 220.93C117.882 219.051 117.996 214.83 120.946 213.108L240.684 143.21L272.956 162.051L148.125 234.688C146.01 235.919 143.381 235.846 141.337 234.5L120.734 220.93Z" fill="#155C6D"/>
<path d="M255.792 171.285C255.316 171.003 255.312 170.315 255.785 170.028L274.169 158.87C274.392 158.735 274.67 158.728 274.9 158.853L298.476 171.699C298.736 171.842 298.742 172.214 298.486 172.364L278.341 184.186C278.111 184.321 277.826 184.321 277.597 184.185L255.792 171.285Z" fill="#155C6D"/>
<path d="M127.888 210.396C128.123 210.531 128.123 210.753 127.888 210.889C127.654 211.025 127.271 211.025 127.037 210.889C126.803 210.754 126.803 210.532 127.037 210.396C127.272 210.26 127.654 210.26 127.888 210.396Z" fill="#70C5AD"/>
<path d="M127.463 210.046C127.649 210.046 127.849 210.086 128.013 210.181L128.012 210.182C128.175 210.276 128.312 210.433 128.312 210.642C128.312 210.851 128.175 211.01 128.012 211.105L128.011 211.104C127.847 211.198 127.648 211.239 127.463 211.24C127.277 211.24 127.077 211.199 126.913 211.105L127.161 210.674C127.232 210.715 127.341 210.742 127.463 210.742C127.585 210.742 127.694 210.715 127.764 210.674L127.802 210.642L127.764 210.611L127.704 210.583C127.638 210.558 127.555 210.542 127.463 210.542C127.341 210.542 127.232 210.569 127.161 210.61L127.162 210.611C127.142 210.622 127.13 210.634 127.122 210.642C127.13 210.65 127.141 210.662 127.161 210.674L126.912 211.104C126.749 211.009 126.613 210.851 126.613 210.643C126.613 210.435 126.749 210.276 126.912 210.181H126.913C127.077 210.086 127.277 210.046 127.463 210.046Z" fill="#155C6D"/>
<path d="M121.093 212.233L239.902 143.638L270.418 161.376L146.637 232.832C145.565 233.461 143.813 233.461 142.74 232.832L121.043 220.226C117.256 218.018 117.28 214.453 121.092 212.245L121.093 212.233Z" fill="#70C5AD"/>
<path d="M239.839 143.398C239.902 143.382 239.97 143.39 240.027 143.424L270.543 161.162C270.62 161.207 270.666 161.288 270.666 161.377C270.666 161.465 270.619 161.547 270.542 161.592L146.762 233.046L146.763 233.047C146.18 233.389 145.428 233.553 144.69 233.553C143.951 233.553 143.198 233.389 142.614 233.047V233.046L120.918 220.441L120.565 220.225C118.855 219.121 117.96 217.7 117.97 216.234C117.98 214.687 118.997 213.19 120.911 212.063C120.928 212.046 120.947 212.03 120.969 212.017L239.778 143.424L239.839 143.398ZM121.27 212.417C121.254 212.433 121.237 212.448 121.217 212.46L120.879 212.666C119.249 213.71 118.474 214.996 118.466 216.237C118.457 217.561 119.32 218.934 121.168 220.012H121.167L142.864 232.617L142.865 232.618L142.806 232.719L142.754 232.808L142.865 232.618C143.355 232.905 144.016 233.056 144.69 233.056C145.363 233.056 146.023 232.905 146.512 232.618L146.667 232.883L146.638 232.832L146.512 232.618L146.514 232.617L269.921 161.376L239.901 143.925L121.27 212.417Z" fill="#155C6D"/>
<path d="M113.863 142.552L125.679 137.002L192.855 149.139L242.967 63.6688L240.172 63.1947C238.646 63.001 237.693 63.2766 236.779 63.7945C236.34 64.0631 116.17 131.167 116.17 131.167C113.258 132.844 111.901 136.323 112.9 139.531L113.85 142.54L113.863 142.552Z" fill="#70C5AD"/>
<path d="M236.656 63.578C237.615 63.0344 238.623 62.7475 240.203 62.9481L240.173 63.1825V63.1815L240.203 62.9481L240.213 62.9501L243.009 63.4237L243.067 63.4413C243.121 63.4652 243.167 63.5088 243.193 63.5643C243.227 63.6382 243.223 63.7245 243.182 63.7948L193.07 149.265L193.022 149.323C192.966 149.374 192.888 149.398 192.811 149.384L125.713 137.261L113.969 142.777L113.862 142.552V142.553L113.969 142.777C113.9 142.81 113.821 142.808 113.754 142.775L113.693 142.732L113.679 142.721C113.648 142.692 113.625 142.655 113.612 142.615L112.663 139.605L112.9 139.53L112.839 139.549L112.663 139.605V139.604L112.573 139.293C111.719 136.064 113.128 132.633 116.046 130.952L116.049 130.95L116.17 131.167C116.049 130.95 116.049 130.95 116.05 130.949C116.051 130.949 116.052 130.948 116.054 130.947C116.058 130.945 116.063 130.942 116.071 130.938C116.085 130.93 116.107 130.917 116.136 130.901C116.194 130.869 116.28 130.821 116.394 130.758C116.621 130.631 116.959 130.442 117.399 130.196C118.279 129.705 119.57 128.984 121.213 128.066C124.5 126.231 129.196 123.608 134.832 120.461C146.105 114.166 161.14 105.77 176.189 97.3651C191.237 88.9603 206.3 80.5464 217.628 74.2177C223.292 71.0534 228.022 68.4102 231.35 66.5497C233.014 65.6194 234.327 64.885 235.232 64.3788C235.684 64.1258 236.034 63.9295 236.274 63.7948C236.393 63.7275 236.486 63.6757 236.55 63.6395C236.582 63.6215 236.607 63.6075 236.624 63.5975C236.641 63.588 236.648 63.5836 236.65 63.5829L236.656 63.578ZM240.141 63.4413C238.674 63.255 237.774 63.5162 236.908 64.0057L236.909 64.0067C236.684 64.1445 206.523 80.9924 176.431 97.7987C161.382 106.203 146.347 114.599 135.074 120.894C129.438 124.042 124.742 126.664 121.455 128.5C119.812 129.417 118.521 130.138 117.641 130.63C117.201 130.875 116.863 131.064 116.636 131.191C116.522 131.255 116.436 131.303 116.378 131.335C116.349 131.351 116.327 131.364 116.313 131.372C116.305 131.376 116.3 131.379 116.296 131.381C116.295 131.381 116.294 131.381 116.293 131.382L116.294 131.383C113.484 133.002 112.173 136.36 113.137 139.456L114.006 142.21L125.573 136.777C125.597 136.766 125.622 136.759 125.648 136.756L125.724 136.758L192.729 148.863L242.571 63.8534L240.141 63.4403V63.4413Z" fill="#155C6D"/>
<path d="M144.404 228.431L146.439 228.529L192.83 149.13L125.655 136.992L113.838 142.543L139.692 224.902C139.741 225.051 139.791 225.198 139.853 225.334C140.605 227.172 142.443 228.319 144.416 228.417L144.404 228.431Z" fill="#155C6D"/>
<path d="M125.699 136.748L192.874 148.886L192.829 149.13L193.045 149.256L146.653 228.654L146.611 228.708C146.562 228.755 146.496 228.781 146.426 228.777L144.391 228.679C144.361 228.677 144.334 228.668 144.307 228.657C142.29 228.523 140.41 227.34 139.627 225.437L139.534 225.208C139.506 225.131 139.48 225.054 139.456 224.98L139.699 224.899L139.691 224.902L139.456 224.98L139.454 224.976L113.6 142.617C113.563 142.499 113.62 142.371 113.732 142.318L125.549 136.767L125.623 136.746C125.648 136.743 125.674 136.743 125.699 136.748ZM114.139 142.675L139.927 224.824L140.001 225.038L140.078 225.23L140.083 225.24H140.082C140.793 226.978 142.538 228.075 144.428 228.17C144.455 228.171 144.48 228.177 144.504 228.186L146.299 228.273L192.436 149.31L125.688 137.25L114.139 142.675ZM192.874 148.886C192.953 148.9 193.021 148.953 193.055 149.026C193.089 149.1 193.085 149.186 193.045 149.256L192.83 149.13L192.874 148.886Z" fill="#155C6D"/>
<path d="M268.678 163.163L266.963 159.007L272.205 156.022C272.995 155.713 274.019 156.392 274.487 157.539C274.956 158.686 274.709 159.869 273.92 160.178L268.678 163.163Z" fill="#70C5AD"/>
<path d="M272.115 155.79C272.608 155.598 273.146 155.723 273.604 156.027C274.063 156.332 274.466 156.831 274.717 157.445L274.257 157.633C274.039 157.1 273.696 156.685 273.329 156.441C272.965 156.199 272.601 156.138 272.306 156.249L267.276 159.114L268.799 162.807L273.797 159.963L273.829 159.947C274.124 159.832 274.343 159.544 274.433 159.121C274.523 158.699 274.477 158.167 274.258 157.633H274.257L274.488 157.539L274.717 157.445C274.968 158.058 275.033 158.691 274.919 159.224C274.808 159.745 274.519 160.193 274.043 160.394L268.801 163.379C268.739 163.414 268.664 163.421 268.597 163.398C268.53 163.375 268.476 163.324 268.448 163.258L266.734 159.101C266.686 158.986 266.732 158.853 266.84 158.791L272.082 155.806C272.093 155.8 272.104 155.794 272.115 155.79L272.205 156.021L272.206 156.023L272.115 155.79Z" fill="#155C6D"/>
<path d="M151.376 230.704L146.158 233.615L144.492 229.483L149.71 226.572C150.487 226.264 151.499 226.954 151.955 228.089C152.411 229.224 152.153 230.396 151.376 230.692V230.704Z" fill="#70C5AD"/>
<path d="M149.62 226.342C150.108 226.148 150.642 226.279 151.092 226.584C151.545 226.891 151.941 227.389 152.186 227.997L152.269 228.225C152.442 228.76 152.473 229.299 152.371 229.76C152.26 230.257 151.984 230.685 151.54 230.889C151.527 230.9 151.513 230.912 151.497 230.921L146.279 233.832C146.217 233.867 146.143 233.873 146.076 233.85C146.008 233.826 145.954 233.774 145.927 233.708L144.262 229.576C144.215 229.46 144.262 229.327 144.372 229.266L149.59 226.355L149.62 226.342L149.708 226.568L149.709 226.57L149.62 226.342ZM150.814 226.995C150.453 226.751 150.096 226.69 149.809 226.801L144.804 229.593L146.283 233.261L151.206 230.514C151.23 230.492 151.256 230.473 151.288 230.461L151.392 230.411C151.627 230.278 151.805 230.017 151.886 229.651C151.967 229.287 151.946 228.839 151.797 228.38L151.725 228.182C151.513 227.655 151.175 227.24 150.814 226.995Z" fill="#155C6D"/>
<path d="M146.184 233.58C146.956 233.256 147.2 232.077 146.726 230.946C146.252 229.815 145.242 229.16 144.468 229.483C143.696 229.807 143.453 230.987 143.927 232.118C144.401 233.249 145.411 233.903 146.184 233.58Z" fill="#155C6D"/>
<path d="M144.555 229.193C144.988 229.083 145.446 229.203 145.844 229.461C146.299 229.756 146.701 230.245 146.954 230.85C147.208 231.455 147.275 232.084 147.165 232.615C147.056 233.146 146.763 233.606 146.279 233.809L146.096 233.87C145.663 233.98 145.205 233.86 144.808 233.603C144.352 233.308 143.95 232.819 143.696 232.214C143.443 231.608 143.377 230.979 143.487 230.447C143.596 229.917 143.888 229.457 144.371 229.254L144.555 229.193ZM145.573 229.877C145.256 229.672 144.942 229.607 144.675 229.675L144.564 229.712C144.275 229.833 144.06 230.125 143.973 230.548C143.886 230.97 143.935 231.496 144.155 232.022C144.376 232.547 144.716 232.952 145.077 233.186C145.44 233.42 145.798 233.471 146.087 233.351L146.192 233.297C146.427 233.155 146.602 232.886 146.678 232.516C146.765 232.094 146.716 231.567 146.496 231.042C146.276 230.517 145.935 230.111 145.573 229.877Z" fill="#155C6D"/>
<path d="M268.712 163.155C269.489 162.822 269.722 161.628 269.234 160.488C268.745 159.349 267.72 158.694 266.944 159.028C266.167 159.36 265.934 160.553 266.422 161.693C266.91 162.833 267.936 163.487 268.712 163.155Z" fill="#155C6D"/>
<path d="M266.846 158.799C267.332 158.59 267.87 158.703 268.331 158.996C268.792 159.291 269.201 159.781 269.462 160.39L269.006 160.586C268.779 160.056 268.431 159.649 268.064 159.415C267.695 159.18 267.333 159.131 267.042 159.256L266.937 159.311C266.7 159.457 266.526 159.731 266.453 160.106C266.369 160.533 266.424 161.065 266.651 161.595L266.742 161.788C266.965 162.224 267.272 162.562 267.593 162.767C267.962 163.002 268.325 163.05 268.615 162.926L268.72 162.871C268.957 162.725 269.131 162.452 269.205 162.076C269.288 161.649 269.233 161.116 269.006 160.586L269.235 160.488L269.462 160.39L269.463 160.391C269.724 161 269.797 161.635 269.692 162.172C269.6 162.641 269.366 163.057 268.984 163.293L268.81 163.383C268.324 163.591 267.786 163.479 267.326 163.186C266.921 162.928 266.558 162.52 266.298 162.013L266.194 161.79C265.933 161.181 265.86 160.547 265.965 160.01C266.07 159.474 266.36 159.008 266.846 158.8V158.799Z" fill="#155C6D"/>
<path d="M264.379 164.833L263.194 161.959L266.818 159.896C267.364 159.683 268.071 160.152 268.395 160.945C268.719 161.738 268.549 162.556 268.004 162.769L264.38 164.833H264.379Z" fill="#70C5AD"/>
<path d="M266.728 159.665C267.098 159.52 267.497 159.617 267.827 159.836C268.159 160.056 268.447 160.413 268.625 160.851L268.686 161.016C268.813 161.399 268.84 161.789 268.769 162.126C268.689 162.499 268.479 162.831 268.126 162.984L268.127 162.985L264.503 165.049L264.379 164.832L264.38 164.833L264.503 165.049C264.466 165.07 264.423 165.081 264.38 165.081C264.28 165.081 264.188 165.02 264.15 164.927L264.38 164.833L264.379 164.832L264.15 164.927L262.965 162.054C262.918 161.938 262.963 161.805 263.072 161.743L266.696 159.681C266.706 159.675 266.717 159.669 266.728 159.665ZM267.552 160.25C267.315 160.093 267.092 160.06 266.918 160.124L263.507 162.066L264.501 164.476L267.881 162.554L267.976 162.508C268.118 162.426 268.231 162.264 268.282 162.022C268.334 161.782 268.318 161.483 268.215 161.173L268.165 161.039L268.108 160.909C267.963 160.616 267.761 160.389 267.552 160.25Z" fill="#155C6D"/>
<path d="M270.456 159.383L150.301 228.593C147.415 230.247 143.752 228.815 142.753 225.646L115.962 140.276C114.95 137.069 116.319 133.59 119.23 131.913L240.393 64.2882C242.959 62.8207 246.008 64.0265 246.933 66.8387L274.551 148.663C275.895 152.759 274.194 157.237 270.456 159.383Z" fill="#121212"/>
<path d="M240.272 64.0711C242.976 62.5266 246.194 63.8036 247.167 66.7596L274.786 148.584V148.586L274.907 148.981C276.056 153.078 274.299 157.461 270.578 159.598L270.579 159.598L150.425 228.808L150.177 228.378L270.331 159.168L270.666 158.966C274.067 156.809 275.581 152.601 274.315 148.741L246.698 66.9178L246.932 66.8387L246.916 66.8436L246.698 66.9178L246.697 66.9159L246.609 66.6707C245.641 64.1818 242.866 63.1595 240.516 64.5038L240.514 64.5047L119.351 132.13C116.63 133.699 115.306 136.899 116.114 139.911L116.199 140.202L142.99 225.571C143.941 228.589 147.428 229.952 150.177 228.378L150.425 228.808C147.401 230.541 143.562 229.041 142.515 225.721L115.724 140.35C114.677 137.032 116.095 133.432 119.106 131.697L119.109 131.696L240.272 64.0711Z" fill="#155C6D"/>
<path d="M157.027 224.491L218.631 82.0315L225.562 75.8711L162.418 221.41L157.027 224.491Z" fill="#155C6D"/>
<path d="M168.578 217.557L230.182 75.098L240.193 67.3975L177.049 212.937L168.578 217.557Z" fill="#155C6D"/>
<path d="M248.316 71.0259L246.933 66.8455C246.13 64.4034 243.55 63.1448 241.205 63.8168L141.02 119.378L119.23 131.92C116.319 133.597 114.95 137.076 115.962 140.283L117.207 144.38L248.316 71.0259Z" fill="#70C5AD"/>
<path d="M241.136 63.5775C243.604 62.8702 246.322 64.194 247.169 66.767L248.552 70.9476L248.561 70.9906C248.576 71.0906 248.528 71.1917 248.437 71.2426L117.328 144.596L117.276 144.618C117.223 144.633 117.166 144.631 117.114 144.61C117.044 144.582 116.99 144.523 116.969 144.452L115.724 140.355V140.354C114.679 137.036 116.096 133.439 119.106 131.704L140.896 119.162L140.899 119.161L241.084 63.599L241.136 63.5775ZM246.621 66.7094C245.788 64.5473 243.442 63.4465 241.297 64.0482L141.14 119.595L119.354 132.135L119.353 132.134C116.631 133.703 115.306 136.905 116.114 139.917L116.199 140.208V140.21L117.354 144.011L248.014 70.9086L246.697 66.9232L246.621 66.7094Z" fill="#155C6D"/>
<path d="M152.182 175.286C150.142 176.202 147.741 175.916 145.97 174.337C143.452 172.093 143.173 168.085 145.283 165.358L145.474 165.112C147.568 162.404 151.31 161.891 153.889 163.999C156.524 166.154 156.963 170.23 154.808 173.076L154.612 173.334C153.941 174.218 153.102 174.874 152.182 175.286Z" fill="#70C5AD"/>
<path d="M145.278 164.96C147.452 162.149 151.352 161.604 154.046 163.807L154.297 164.023C156.734 166.241 157.143 170.112 155.207 172.946L155.006 173.226L154.811 173.484C154.202 174.287 153.457 174.909 152.639 175.34L152.284 175.513C150.159 176.467 147.652 176.169 145.805 174.521V174.522C143.184 172.186 142.902 168.03 145.087 165.206L145.278 164.96ZM153.732 164.191C151.268 162.177 147.685 162.659 145.67 165.265L145.48 165.51C143.508 168.058 143.706 171.759 145.915 173.944L146.136 174.151L146.296 174.289C147.973 175.678 150.188 175.91 152.081 175.059L152.407 174.9C153.161 174.504 153.849 173.929 154.414 173.184L154.611 172.926L154.798 172.665C156.6 170.025 156.207 166.433 153.962 164.391L153.732 164.191Z" fill="#155C6D"/>
<path d="M184.104 159.064C182.228 159.905 180.008 159.63 178.361 158.16C176.017 156.07 175.726 152.354 177.653 149.832L177.826 149.606C179.738 147.102 183.19 146.639 185.589 148.605C188.04 150.614 188.478 154.396 186.511 157.025L186.333 157.264C185.721 158.081 184.951 158.686 184.105 159.065L184.104 159.064Z" fill="#C8DAE8"/>
<path d="M177.821 149.216C179.847 146.817 183.312 146.418 185.746 148.413H185.747C188.224 150.443 188.725 154.198 186.895 156.915L186.711 157.173L186.533 157.412V157.413L186.334 157.263L186.214 157.173L186.533 157.413C185.896 158.264 185.092 158.894 184.208 159.291C184.204 159.292 184.2 159.292 184.197 159.294C182.297 160.142 180.06 159.896 178.359 158.485L178.196 158.345C175.751 156.165 175.454 152.302 177.456 149.681L177.63 149.455L177.821 149.216ZM185.214 148.629C183.016 147.007 180 147.405 178.2 149.537L178.024 149.756L177.85 149.982L177.851 149.983C176 152.406 176.284 155.974 178.527 157.974L178.828 158.224C180.362 159.406 182.326 159.589 184.004 158.837L184.009 158.835C184.814 158.473 185.549 157.897 186.134 157.115L186.313 156.877L186.483 156.636C188.12 154.206 187.732 150.881 185.646 148.982L185.431 148.797L185.214 148.629Z" fill="#155C6D"/>
<path d="M175.605 146.849C178.763 143.082 184.16 142.46 187.948 145.588L188.313 145.905C191.856 149.152 192.5 154.81 189.737 158.941L189.45 159.348L189.168 159.728L188.77 159.432L189.051 159.052L189.325 158.663C191.956 154.73 191.333 149.348 187.977 146.271L187.632 145.971C184.064 143.026 178.977 143.599 175.985 147.169L175.702 147.524L175.427 147.885C172.545 151.684 172.883 157.223 176.188 160.512L176.517 160.824L176.756 161.032C179.26 163.124 182.547 163.484 185.339 162.223C185.341 162.222 185.344 162.221 185.346 162.22C186.642 161.633 187.827 160.7 188.77 159.432L188.969 159.58L189.168 159.728V159.729C188.174 161.065 186.922 162.055 185.545 162.677C185.541 162.679 185.536 162.678 185.532 162.68C182.477 164.055 178.863 163.6 176.185 161.193V161.194C172.375 157.772 171.908 151.703 175.031 147.585L175.306 147.223L175.605 146.849Z" fill="#C8DAE8"/>
<path d="M216.866 142.948C215.154 143.715 213.119 143.452 211.599 142.094C209.435 140.162 209.137 136.744 210.879 134.432L211.035 134.224C212.765 131.927 215.923 131.514 218.136 133.332C220.399 135.189 220.832 138.671 219.052 141.082L218.891 141.301C218.338 142.05 217.637 142.603 216.866 142.948Z" fill="#70C5AD"/>
<path d="M211.011 133.855C212.855 131.643 216.041 131.29 218.294 133.14L218.51 133.327C220.686 135.308 221.052 138.792 219.252 141.23L219.251 141.229L219.091 141.448C218.512 142.231 217.778 142.813 216.967 143.175L216.966 143.174C215.166 143.98 213.026 143.703 211.433 142.278V142.277C209.171 140.258 208.863 136.694 210.681 134.282L210.837 134.074L211.011 133.855ZM217.978 133.523C215.942 131.852 213.066 132.164 211.392 134.173L211.233 134.373L211.077 134.581C209.463 136.723 209.682 139.861 211.575 141.731L211.764 141.908L212.041 142.139C213.451 143.228 215.243 143.403 216.765 142.721L217.036 142.589C217.661 142.26 218.229 141.779 218.691 141.153L218.851 140.935H218.852C220.502 138.7 220.162 135.503 218.176 133.694L217.978 133.524V133.523Z" fill="#155C6D"/>
<path d="M248.083 127.684C246.414 128.431 244.419 128.165 242.919 126.823C240.783 124.915 240.462 121.554 242.148 119.288L242.3 119.084C243.974 116.833 247.062 116.44 249.246 118.236C251.477 120.071 251.931 123.495 250.209 125.859L250.053 126.073C249.517 126.808 248.836 127.348 248.084 127.684H248.083Z" fill="#70C5AD"/>
<path d="M242.102 118.935C243.86 116.571 247.11 116.158 249.404 118.044L249.617 118.229C251.695 120.121 252.126 123.392 250.572 125.77L250.409 126.004L250.254 126.219L250.036 126.498C249.513 127.127 248.878 127.601 248.186 127.911C248.184 127.911 248.182 127.911 248.18 127.912C246.531 128.647 244.586 128.445 243.054 127.258L242.753 127.008C240.522 125.015 240.187 121.508 241.949 119.139L242.102 118.935ZM249.088 118.428C247.015 116.723 244.09 117.094 242.5 119.232L242.499 119.233L242.345 119.117L242.238 119.037L242.499 119.233L242.348 119.436C240.738 121.599 241.045 124.816 243.084 126.638L243.358 126.866C244.747 127.942 246.501 128.119 247.982 127.457L247.984 127.456C248.695 127.138 249.343 126.626 249.853 125.926L250.008 125.712L250.157 125.497C251.577 123.325 251.181 120.325 249.283 118.596L249.088 118.428Z" fill="#155C6D"/>
<path d="M160.552 201.272C158.508 202.213 156.1 201.939 154.321 200.353C151.791 198.1 151.501 194.046 153.612 191.271L153.802 191.021C155.897 188.265 159.648 187.721 162.238 189.837C164.885 192 165.335 196.123 163.18 199.017L162.985 199.279C162.315 200.179 161.472 200.848 160.552 201.272Z" fill="#70C5AD"/>
<path d="M153.814 190.609C156.021 187.978 159.773 187.502 162.396 189.645L162.648 189.862C165.178 192.163 165.539 196.265 163.38 199.165L162.982 198.869C164.997 196.161 164.644 192.35 162.313 190.229L162.081 190.03C159.686 188.072 156.24 188.489 154.194 190.929L154 191.171L153.81 191.421C151.772 194.1 152.06 198.006 154.487 200.168L154.648 200.306C156.332 201.7 158.552 201.919 160.448 201.046L160.776 200.883C161.53 200.476 162.221 199.889 162.785 199.131L162.982 198.869L163.181 199.017L163.38 199.165V199.166L163.184 199.428C162.576 200.244 161.83 200.879 161.011 201.32L160.656 201.497C158.594 202.447 156.169 202.21 154.332 200.69L154.156 200.539C151.522 198.193 151.231 193.991 153.414 191.12L153.605 190.87L153.814 190.609Z" fill="#155C6D"/>
<path d="M192.358 184.139C190.478 185.003 188.253 184.739 186.598 183.262C184.244 181.163 183.944 177.406 185.869 174.842L186.043 174.611C187.954 172.065 191.413 171.574 193.823 173.547C196.285 175.562 196.733 179.386 194.767 182.059L194.589 182.301C193.978 183.132 193.205 183.749 192.359 184.138L192.358 184.139Z" fill="#70C5AD"/>
<path d="M186.035 174.219C188.06 171.78 191.534 171.351 193.98 173.354L194.215 173.557C196.499 175.636 196.918 179.274 195.15 181.943L194.967 182.207L194.789 182.448C194.155 183.31 193.351 183.952 192.469 184.359C192.466 184.36 192.464 184.363 192.462 184.364C190.495 185.268 188.163 184.992 186.433 183.447V183.448C183.977 181.259 183.672 177.354 185.671 174.693L185.869 174.842L186.067 174.991V174.992C184.216 177.457 184.51 181.068 186.763 183.077H186.764C188.341 184.485 190.457 184.736 192.249 183.915C192.251 183.914 192.253 183.913 192.255 183.912C193.062 183.541 193.802 182.951 194.389 182.154L194.566 181.912L194.737 181.668C196.374 179.194 195.976 175.831 193.881 173.924L193.665 173.739C191.443 171.92 188.278 172.294 186.417 174.537L186.241 174.76L186.067 174.991L185.671 174.693L185.844 174.462L186.035 174.219Z" fill="#155C6D"/>
<path d="M224.923 166.907C223.209 167.693 221.169 167.441 219.641 166.076C217.469 164.137 217.162 160.682 218.903 158.332L219.06 158.12C220.788 155.787 223.953 155.349 226.176 157.173C228.447 159.037 228.891 162.555 227.111 165.005L226.95 165.228C226.397 165.989 225.695 166.552 224.923 166.907Z" fill="#70C5AD"/>
<path d="M219.034 157.749C220.877 155.503 224.069 155.124 226.333 156.982L226.55 157.169C228.735 159.158 229.107 162.675 227.311 165.149L227.312 165.15L227.151 165.373L227.15 165.374L226.95 165.228L226.749 165.082L226.91 164.859L227.063 164.637C228.536 162.379 228.146 159.295 226.216 157.537L226.018 157.365C223.975 155.689 221.092 156.021 219.417 158.065L219.258 158.268L219.102 158.48L218.952 158.693C217.455 160.935 217.797 164.097 219.806 165.891V165.892C221.259 167.19 223.194 167.426 224.819 166.681L225.09 166.545C225.716 166.207 226.286 165.719 226.749 165.082L227.15 165.374C226.644 166.07 226.019 166.609 225.327 166.982L225.026 167.132C223.224 167.959 221.077 167.693 219.475 166.262L219.268 166.067C217.253 164.077 216.962 160.779 218.539 158.417L218.703 158.184L218.86 157.973L219.034 157.749Z" fill="#155C6D"/>
<path d="M256.006 150.757C254.335 151.522 252.334 151.266 250.828 149.919C248.684 148.004 248.354 144.607 250.039 142.305L250.191 142.098C251.864 139.812 254.957 139.395 257.15 141.198C259.39 143.038 259.853 146.498 258.132 148.898L257.976 149.116C257.441 149.861 256.758 150.412 256.006 150.757Z" fill="#70C5AD"/>
<path d="M250.159 141.732C251.948 139.527 255.075 139.17 257.308 141.006L257.521 141.191C259.608 143.091 260.047 146.394 258.496 148.805L258.334 149.043L258.178 149.26C257.687 149.943 257.078 150.472 256.402 150.837L256.109 150.983C254.348 151.79 252.242 151.517 250.662 150.104V150.103C248.422 148.102 248.079 144.562 249.839 142.159V142.158L250.039 142.305L250.239 142.452C248.679 144.583 248.928 147.703 250.807 149.558L250.993 149.734L251.268 149.962C252.662 151.041 254.42 151.21 255.902 150.531L256.166 150.399C256.775 150.07 257.327 149.593 257.774 148.97L257.931 148.754L258.078 148.536C259.498 146.327 259.093 143.295 257.187 141.558L256.992 141.389C254.912 139.679 251.981 140.072 250.392 142.245L250.239 142.452L249.839 142.158L249.99 141.951L250.159 141.732Z" fill="#155C6D"/>
<path d="M123.291 134.769C122.924 133.886 121.907 133.537 120.99 134.007C120.036 134.497 119.562 135.676 119.964 136.619C120.365 137.558 121.46 137.852 122.378 137.301C123.26 136.771 123.657 135.647 123.291 134.769Z" fill="#C8DAE8"/>
<path d="M121.071 133.698C122.055 133.307 123.119 133.709 123.521 134.673H123.52C123.911 135.613 123.537 136.771 122.683 137.396L122.506 137.514C121.542 138.093 120.362 137.849 119.833 136.914L119.736 136.717C119.277 135.642 119.819 134.329 120.876 133.787L121.071 133.698ZM122.998 134.731C122.673 134.135 121.958 133.878 121.254 134.16L121.103 134.228C120.253 134.664 119.846 135.711 120.193 136.522L120.262 136.663C120.64 137.334 121.494 137.543 122.25 137.088L122.393 136.994C123.031 136.526 123.317 135.692 123.113 135.008L123.062 134.864L122.998 134.731Z" fill="#155C6D"/>
<path d="M129.346 131.614C128.98 130.741 127.977 130.392 127.078 130.853C126.142 131.334 125.682 132.497 126.083 133.43C126.482 134.359 127.561 134.653 128.461 134.112C129.327 133.591 129.71 132.483 129.346 131.614Z" fill="#C8DAE8"/>
<path d="M127.157 130.546C128.126 130.162 129.175 130.565 129.574 131.518L129.642 131.706C129.914 132.597 129.548 133.633 128.764 134.209L128.589 134.325C127.639 134.896 126.476 134.649 125.951 133.723L125.854 133.528C125.397 132.465 125.923 131.167 126.964 130.633L127.157 130.546ZM129.116 131.71C128.83 131.026 128.075 130.714 127.338 131.008L127.191 131.074C126.361 131.5 125.966 132.53 126.311 133.332L126.38 133.472C126.756 134.137 127.595 134.343 128.333 133.899L128.472 133.807C129.095 133.348 129.372 132.529 129.168 131.852L129.116 131.71Z" fill="#155C6D"/>
<path d="M134.992 128.6C134.627 127.736 133.638 127.387 132.755 127.84C131.836 128.312 131.389 129.46 131.788 130.384C132.186 131.303 133.25 131.598 134.133 131.066C134.983 130.555 135.355 129.46 134.992 128.6Z" fill="#C8DAE8"/>
<path d="M132.642 127.62C133.646 127.105 134.796 127.499 135.221 128.503V128.504L135.29 128.69C135.561 129.572 135.206 130.597 134.434 131.165L134.262 131.279C133.326 131.843 132.178 131.591 131.657 130.675L131.561 130.482C131.106 129.43 131.616 128.148 132.642 127.621V127.62ZM134.701 128.566C134.355 127.939 133.584 127.695 132.87 128.061L132.722 128.146C132.012 128.603 131.695 129.54 132.017 130.285L132.085 130.424C132.459 131.083 133.285 131.287 134.005 130.853L134.141 130.763C134.794 130.282 135.056 129.39 134.764 128.697L134.701 128.566Z" fill="#155C6D"/>
<path d="M236.551 90.438L236.48 90.6763H236.481L236.551 90.438C236.624 90.4593 236.683 90.5139 236.711 90.5845C236.739 90.655 236.734 90.7344 236.696 90.8003L235.394 93.062L234.964 92.814L236.107 90.8267L234.005 90.2153L234.144 89.7388L236.551 90.438Z" fill="#155C6D"/>
<path d="M228.498 93.1179L227.259 94.9871L229.418 95.7029L229.262 96.1746L226.795 95.3572L226.743 95.3328C226.695 95.3031 226.658 95.2575 226.639 95.2029C226.613 95.1298 226.623 95.0486 226.666 94.9841L228.084 92.8445L228.498 93.1179Z" fill="#155C6D"/>
<path d="M186.496 121.745L136.035 150.131C135.229 150.585 134.211 150.161 133.965 149.27C133.691 148.279 134.129 147.228 135.026 146.725L184.904 118.794C185.835 118.273 187.008 118.756 187.302 119.781C187.521 120.544 187.187 121.357 186.496 121.745Z" fill="#70C5AD"/>
<path d="M184.987 118.479C186.018 118.05 187.225 118.608 187.541 119.713L187.58 119.877C187.731 120.646 187.408 121.432 186.762 121.873L186.618 121.961L136.156 150.348C135.269 150.847 134.163 150.441 133.79 149.526L133.726 149.336C133.421 148.235 133.908 147.067 134.905 146.508L184.782 118.578L184.987 118.479ZM187.064 119.85C186.83 119.033 185.938 118.621 185.176 118.938L185.026 119.011L135.148 146.942C134.35 147.389 133.961 148.323 134.204 149.204L134.25 149.337C134.513 149.981 135.29 150.265 135.913 149.915L186.374 121.529L186.482 121.462C186.965 121.133 187.206 120.546 187.093 119.972L187.064 119.85Z" fill="#155C6D"/>
<path d="M263.026 171.586L280.311 181.548V171.106L263.026 161.144V171.586Z" fill="#155C6D"/>
<path d="M262.776 171.731L262.901 171.802L280.561 181.981V170.961L280.436 170.889L262.776 160.711V171.731ZM280.061 171.25V181.115L263.276 171.441V161.577L280.061 171.25Z" fill="#155C6D"/>
<path d="M263.026 171.586L280.311 181.548V171.106L263.026 161.144V171.586Z" fill="#155C6D"/>
<path d="M262.776 171.731L262.901 171.802L280.561 181.981V170.961L280.436 170.889L262.776 160.711V171.731ZM280.061 171.25V181.115L263.276 171.441V161.577L280.061 171.25Z" fill="#155C6D"/>
<path d="M297.595 171.586L280.311 181.548V171.106L297.595 161.144V171.586Z" fill="#155C6D"/>
<path d="M280.186 170.889L280.061 170.961V181.981L297.72 171.802L297.845 171.731V160.711L280.186 170.889ZM297.345 171.441L280.561 181.115V171.25L297.345 161.577V171.441Z" fill="#155C6D"/>
<path d="M297.595 171.586L280.311 181.548V171.106L297.595 161.144V171.586Z" fill="#70C5AD"/>
<path d="M280.186 170.889L280.061 170.961V181.981L297.72 171.802L297.845 171.731V160.711L280.186 170.889ZM297.345 171.441L280.561 181.115V171.25L297.345 161.577V171.441Z" fill="#155C6D"/>
<path d="M263.026 161.157L280.311 151.075L297.595 161.157L280.311 171.119L263.026 161.157Z" fill="#C8DAE8"/>
<path d="M280.185 150.859L262.528 161.158L262.901 161.374L280.186 171.335L280.311 171.407L280.436 171.335L297.72 161.374L298.093 161.158L280.437 150.859L280.311 150.786L280.185 150.859ZM297.097 161.155L280.311 170.83L263.525 161.155L280.311 151.364L297.097 161.155Z" fill="#155C6D"/>
<path d="M275.99 155.034C275.99 154.434 276.47 153.713 277.31 153.233C278.991 152.273 281.751 152.273 283.432 153.233C284.272 153.713 284.752 154.314 284.752 155.034V156.714C284.752 157.314 284.272 158.034 283.432 158.514C281.751 159.475 278.991 159.475 277.31 158.514C276.47 158.034 275.99 157.434 275.99 156.714V155.034Z" fill="#155C6D"/>
<path d="M276.24 155.034C276.24 154.557 276.638 153.906 277.435 153.451C278.228 152.998 279.292 152.763 280.371 152.763C281.45 152.763 282.515 152.998 283.308 153.451C284.113 153.911 284.502 154.444 284.502 155.034V156.714C284.502 157.191 284.104 157.842 283.308 158.297C282.515 158.751 281.45 158.985 280.371 158.985C279.292 158.985 278.228 158.75 277.435 158.297C276.629 157.837 276.24 157.304 276.24 156.714V155.034ZM275.74 156.714C275.74 157.565 276.312 158.231 277.187 158.731C278.074 159.238 279.23 159.485 280.371 159.485C281.513 159.485 282.668 159.238 283.556 158.731C284.439 158.226 285.002 157.437 285.002 156.714V155.034C285.002 154.183 284.43 153.516 283.556 153.016C282.668 152.509 281.513 152.263 280.371 152.263C279.23 152.263 278.074 152.509 277.187 153.016C276.303 153.521 275.74 154.31 275.74 155.034V156.714Z" fill="#155C6D"/>
<path d="M277.19 153.354C276.349 153.835 275.869 154.435 275.869 155.155V156.835C275.869 157.435 276.349 158.155 277.19 158.635C278.03 159.116 279.11 159.356 280.19 159.356V152.634C279.23 152.634 278.03 152.874 277.19 153.354Z" fill="#155C6D"/>
<path d="M276.119 155.155C276.119 154.565 276.508 154.032 277.313 153.572C278.036 153.159 279.061 152.929 279.94 152.891V159.098C278.98 159.064 278.045 158.836 277.313 158.418C276.517 157.963 276.119 157.312 276.119 156.835V155.155ZM275.619 156.835C275.619 157.558 276.182 158.347 277.065 158.852C277.951 159.358 279.077 159.606 280.19 159.606H280.44V152.384H280.19C279.2 152.384 277.953 152.63 277.065 153.137C276.191 153.637 275.619 154.304 275.619 155.155V156.835Z" fill="#155C6D"/>
<path d="M283.312 153.354C284.152 153.835 284.632 154.435 284.632 155.155V156.835C284.632 157.435 284.152 158.155 283.312 158.635C282.471 159.116 281.391 159.356 280.311 159.356V152.634C281.391 152.634 282.471 152.874 283.312 153.354Z" fill="#70C5AD"/>
<path d="M280.061 152.384V159.606H280.311C281.424 159.606 282.549 159.358 283.436 158.852C284.319 158.347 284.882 157.559 284.882 156.835V155.155C284.882 154.304 284.31 153.637 283.436 153.137C282.55 152.631 281.424 152.384 280.311 152.384H280.061ZM284.382 156.835C284.382 157.312 283.984 157.963 283.188 158.418C282.456 158.836 281.521 159.064 280.561 159.098V152.891C281.521 152.925 282.456 153.154 283.188 153.572C283.993 154.032 284.382 154.565 284.382 155.155V156.835Z" fill="#155C6D"/>
<path d="M283.312 153.354C284.992 154.315 284.992 155.875 283.312 156.835C281.632 157.795 278.871 157.795 277.19 156.835C275.51 155.875 275.51 154.315 277.19 153.354C278.871 152.394 281.632 152.394 283.312 153.354Z" fill="#C8DAE8"/>
<path d="M280.251 152.384C279.109 152.384 277.954 152.63 277.066 153.137C276.181 153.643 275.68 154.343 275.68 155.095C275.68 155.847 276.181 156.546 277.066 157.052C277.954 157.559 279.109 157.805 280.251 157.805C281.392 157.805 282.548 157.559 283.436 157.052C284.321 156.546 284.822 155.847 284.822 155.095C284.822 154.343 284.321 153.643 283.436 153.137C282.548 152.63 281.392 152.384 280.251 152.384ZM280.251 152.884C281.33 152.884 282.394 153.119 283.188 153.572C283.983 154.026 284.322 154.587 284.322 155.095C284.322 155.603 283.982 156.164 283.188 156.618C282.394 157.071 281.33 157.305 280.251 157.305C279.172 157.305 278.107 157.071 277.314 156.618C276.52 156.164 276.18 155.603 276.18 155.095C276.18 154.587 276.52 154.026 277.314 153.572C278.107 153.119 279.172 152.884 280.251 152.884Z" fill="#155C6D"/>
<path d="M275.99 164.764C275.99 164.164 276.47 163.444 277.31 162.964C278.991 162.004 281.751 162.004 283.432 162.964C284.272 163.444 284.752 164.044 284.752 164.764V166.444C284.752 167.045 284.272 167.765 283.432 168.245C281.751 169.205 278.991 169.205 277.31 168.245C276.47 167.765 275.99 167.165 275.99 166.444V164.764Z" fill="#155C6D"/>
<path d="M276.24 164.764C276.24 164.287 276.638 163.636 277.435 163.181C278.228 162.728 279.292 162.494 280.371 162.494C281.45 162.494 282.515 162.728 283.308 163.181C284.113 163.641 284.502 164.174 284.502 164.764V166.445C284.502 166.922 284.104 167.573 283.308 168.028C282.515 168.481 281.45 168.715 280.371 168.715C279.292 168.715 278.228 168.481 277.435 168.028C276.629 167.568 276.24 167.034 276.24 166.445V164.764ZM275.74 166.445C275.74 167.295 276.312 167.962 277.187 168.461C278.074 168.968 279.23 169.215 280.371 169.215C281.513 169.215 282.668 168.968 283.556 168.461C284.439 167.956 285.002 167.168 285.002 166.445V164.764C285.002 163.914 284.43 163.246 283.556 162.747C282.668 162.24 281.513 161.994 280.371 161.994C279.23 161.994 278.074 162.24 277.187 162.747C276.303 163.252 275.74 164.041 275.74 164.764V166.445Z" fill="#155C6D"/>
<path d="M277.19 163.077C276.349 163.557 275.869 164.157 275.869 164.877V166.558C275.869 167.158 276.349 167.878 277.19 168.358C278.03 168.838 279.11 169.078 280.19 169.078V162.357C279.23 162.357 278.03 162.597 277.19 163.077Z" fill="#155C6D"/>
<path d="M276.119 164.877C276.119 164.288 276.508 163.755 277.313 163.294C278.036 162.881 279.061 162.651 279.94 162.614V168.821C278.98 168.787 278.045 168.559 277.313 168.141C276.517 167.686 276.119 167.035 276.119 166.558V164.877ZM275.619 166.558C275.619 167.281 276.182 168.07 277.065 168.575C277.951 169.081 279.077 169.329 280.19 169.329H280.44V162.107H280.19C279.2 162.107 277.953 162.353 277.065 162.86C276.191 163.36 275.619 164.027 275.619 164.877V166.558Z" fill="#155C6D"/>
<path d="M283.312 163.077C284.152 163.557 284.632 164.157 284.632 164.877V166.558C284.632 167.158 284.152 167.878 283.312 168.358C282.471 168.838 281.391 169.078 280.311 169.078V162.357C281.391 162.357 282.471 162.597 283.312 163.077Z" fill="#70C5AD"/>
<path d="M280.061 162.107V169.329H280.311C281.424 169.329 282.549 169.081 283.436 168.575C284.319 168.07 284.882 167.281 284.882 166.558V164.877C284.882 164.027 284.31 163.36 283.436 162.86C282.55 162.354 281.424 162.107 280.311 162.107H280.061ZM284.382 166.558C284.382 167.035 283.984 167.686 283.188 168.141C282.456 168.559 281.521 168.787 280.561 168.821V162.614C281.521 162.648 282.456 162.877 283.188 163.294C283.993 163.755 284.382 164.288 284.382 164.877V166.558Z" fill="#155C6D"/>
<path d="M283.312 163.077C284.992 164.037 284.992 165.598 283.312 166.558C281.632 167.518 278.871 167.518 277.19 166.558C275.51 165.598 275.51 164.037 277.19 163.077C278.871 162.117 281.632 162.117 283.312 163.077Z" fill="#C8DAE8"/>
<path d="M280.251 162.107C279.109 162.107 277.954 162.353 277.066 162.86C276.181 163.366 275.68 164.066 275.68 164.818C275.68 165.57 276.181 166.269 277.066 166.775C277.954 167.282 279.109 167.528 280.251 167.528C281.392 167.528 282.548 167.282 283.436 166.775C284.321 166.269 284.822 165.57 284.822 164.818C284.822 164.066 284.321 163.366 283.436 162.86C282.548 162.353 281.392 162.107 280.251 162.107ZM280.251 162.607C281.33 162.607 282.394 162.841 283.188 163.294C283.983 163.749 284.322 164.31 284.322 164.818C284.322 165.326 283.982 165.886 283.188 166.34C282.394 166.793 281.33 167.028 280.251 167.028C279.172 167.028 278.107 166.793 277.314 166.34C276.52 165.886 276.18 165.326 276.18 164.818C276.18 164.31 276.52 163.749 277.314 163.294C278.107 162.841 279.172 162.607 280.251 162.607Z" fill="#155C6D"/>
<path d="M284.391 159.956C284.391 159.355 284.871 158.635 285.712 158.155C287.392 157.195 290.153 157.195 291.833 158.155C292.673 158.635 293.153 159.235 293.153 159.956V161.636C293.153 162.236 292.673 162.956 291.833 163.436C290.153 164.396 287.392 164.396 285.712 163.436C284.871 162.956 284.391 162.356 284.391 161.636V159.956Z" fill="#155C6D"/>
<path d="M284.642 159.956C284.642 159.479 285.04 158.828 285.836 158.373C286.629 157.919 287.694 157.685 288.772 157.685C289.851 157.685 290.916 157.919 291.709 158.373C292.514 158.833 292.903 159.366 292.903 159.956V161.636C292.903 162.113 292.505 162.764 291.709 163.219C290.916 163.672 289.851 163.907 288.772 163.907C287.694 163.907 286.629 163.672 285.836 163.219C285.031 162.759 284.642 162.226 284.642 161.636V159.956ZM284.142 161.636C284.142 162.487 284.713 163.153 285.588 163.653C286.475 164.16 287.631 164.407 288.772 164.407C289.914 164.407 291.07 164.16 291.957 163.653C292.841 163.148 293.403 162.359 293.403 161.636V159.956C293.403 159.105 292.832 158.438 291.957 157.938C291.07 157.431 289.914 157.185 288.772 157.185C287.631 157.185 286.475 157.431 285.588 157.938C284.704 158.443 284.142 159.232 284.142 159.956V161.636Z" fill="#155C6D"/>
<path d="M285.711 158.155C284.871 158.635 284.391 159.235 284.391 159.956V161.636C284.391 162.236 284.871 162.956 285.711 163.436C286.551 163.916 287.632 164.156 288.712 164.156V157.435C287.632 157.435 286.551 157.675 285.711 158.155Z" fill="#155C6D"/>
<path d="M284.641 159.956C284.641 159.366 285.03 158.833 285.835 158.373C286.566 157.955 287.501 157.726 288.462 157.692V163.899C287.501 163.865 286.566 163.637 285.835 163.219C285.039 162.764 284.641 162.113 284.641 161.636V159.956ZM284.141 161.636C284.141 162.359 284.703 163.148 285.587 163.653C286.473 164.159 287.598 164.407 288.712 164.407H288.962V157.185H288.712C287.598 157.185 286.473 157.432 285.587 157.938C284.712 158.438 284.141 159.105 284.141 159.956V161.636Z" fill="#155C6D"/>
<path d="M291.713 158.155C292.553 158.635 293.033 159.235 293.033 159.956V161.636C293.033 162.236 292.553 162.956 291.713 163.436C290.873 163.916 289.792 164.156 288.712 164.156V157.435C289.792 157.435 290.873 157.675 291.713 158.155Z" fill="#70C5AD"/>
<path d="M288.462 157.185V164.407H288.712C289.825 164.407 290.951 164.159 291.837 163.653C292.721 163.148 293.283 162.359 293.283 161.636V159.956C293.283 159.105 292.712 158.438 291.837 157.938C290.951 157.432 289.825 157.185 288.712 157.185H288.462ZM292.783 161.636C292.783 162.113 292.385 162.764 291.589 163.219C290.858 163.637 289.923 163.865 288.962 163.899V157.692C289.923 157.726 290.858 157.955 291.589 158.373C292.394 158.833 292.783 159.366 292.783 159.956V161.636Z" fill="#155C6D"/>
<path d="M291.713 158.155C293.394 159.115 293.394 160.676 291.713 161.636C290.033 162.596 287.272 162.596 285.592 161.636C283.911 160.676 283.911 159.115 285.592 158.155C287.392 157.195 290.033 157.195 291.713 158.155Z" fill="#C8DAE8"/>
<path d="M288.697 157.185C287.71 157.185 286.704 157.374 285.837 157.758L285.475 157.935L285.468 157.938L285.589 158.148L285.592 158.155L285.468 157.938C284.582 158.444 284.081 159.144 284.081 159.896C284.081 160.648 284.583 161.347 285.468 161.853C286.355 162.36 287.511 162.606 288.652 162.606C289.794 162.606 290.95 162.36 291.837 161.853C292.722 161.347 293.223 160.648 293.224 159.896C293.224 159.144 292.722 158.444 291.837 157.938C290.951 157.432 289.825 157.185 288.697 157.185ZM288.697 157.685C289.76 157.685 290.795 157.919 291.589 158.373C292.384 158.827 292.724 159.388 292.724 159.896C292.723 160.404 292.384 160.964 291.589 161.418C290.796 161.872 289.731 162.106 288.652 162.106C287.573 162.106 286.509 161.872 285.716 161.418C284.921 160.964 284.581 160.404 284.581 159.896C284.581 159.388 284.921 158.827 285.716 158.373V158.372C286.572 157.916 287.638 157.685 288.697 157.685Z" fill="#155C6D"/>
<path d="M267.586 159.956C267.586 159.355 268.067 158.635 268.907 158.155C270.587 157.195 273.348 157.195 275.028 158.155C275.869 158.635 276.349 159.235 276.349 159.956V161.636C276.349 162.236 275.869 162.956 275.028 163.436C273.348 164.396 270.587 164.396 268.907 163.436C268.067 162.956 267.586 162.356 267.586 161.636V159.956Z" fill="#155C6D"/>
<path d="M267.837 159.956C267.837 159.479 268.235 158.828 269.031 158.373C269.824 157.919 270.889 157.685 271.968 157.685C273.047 157.685 274.111 157.919 274.904 158.373C275.71 158.833 276.099 159.366 276.099 159.956V161.636C276.098 162.113 275.701 162.764 274.904 163.219C274.111 163.672 273.047 163.907 271.968 163.907C270.889 163.907 269.824 163.672 269.031 163.219C268.226 162.759 267.837 162.226 267.837 161.636V159.956ZM267.337 161.636C267.337 162.487 267.909 163.153 268.783 163.653C269.671 164.16 270.826 164.407 271.968 164.407C273.109 164.407 274.265 164.16 275.152 163.653C276.036 163.148 276.598 162.359 276.599 161.636V159.956C276.599 159.105 276.027 158.438 275.152 157.938C274.265 157.431 273.109 157.185 271.968 157.185C270.826 157.185 269.67 157.431 268.783 157.938C267.899 158.443 267.337 159.232 267.337 159.956V161.636Z" fill="#155C6D"/>
<path d="M268.787 158.155C267.947 158.635 267.467 159.235 267.467 159.956V161.636C267.467 162.236 267.947 162.956 268.787 163.436C269.628 163.916 270.708 164.156 271.788 164.156V157.435C270.708 157.435 269.628 157.675 268.787 158.155Z" fill="#155C6D"/>
<path d="M267.717 159.956C267.717 159.366 268.106 158.833 268.911 158.373C269.642 157.955 270.578 157.726 271.538 157.692V163.899C270.578 163.865 269.642 163.637 268.911 163.219C268.115 162.764 267.717 162.113 267.717 161.636V159.956ZM267.217 161.636C267.217 162.359 267.779 163.148 268.663 163.653C269.549 164.159 270.675 164.407 271.788 164.407H272.038V157.185H271.788C270.675 157.185 269.549 157.432 268.663 157.938C267.788 158.438 267.217 159.105 267.217 159.956V161.636Z" fill="#155C6D"/>
<path d="M274.909 158.155C275.749 158.635 276.229 159.235 276.229 159.956V161.636C276.229 162.236 275.749 162.956 274.909 163.436C274.069 163.916 272.989 164.156 271.908 164.156V157.435C272.989 157.435 274.069 157.675 274.909 158.155Z" fill="#70C5AD"/>
<path d="M271.658 157.185V164.407H271.908C273.022 164.407 274.147 164.159 275.033 163.653C275.917 163.148 276.479 162.359 276.479 161.636V159.956C276.479 159.105 275.908 158.438 275.033 157.938C274.147 157.432 273.022 157.185 271.908 157.185H271.658ZM275.979 161.636C275.979 162.113 275.581 162.764 274.785 163.219C274.054 163.637 273.119 163.865 272.158 163.899V157.692C273.119 157.726 274.054 157.955 274.785 158.373C275.591 158.833 275.979 159.366 275.979 159.956V161.636Z" fill="#155C6D"/>
<path d="M274.91 158.155C276.59 159.115 276.59 160.676 274.91 161.636C273.229 162.596 270.469 162.596 268.788 161.636C267.108 160.676 267.108 159.115 268.788 158.155C270.469 157.195 273.229 157.195 274.91 158.155Z" fill="#C8DAE8"/>
<path d="M271.849 157.185C270.707 157.185 269.551 157.431 268.664 157.938C267.779 158.444 267.277 159.144 267.277 159.896C267.278 160.648 267.779 161.347 268.664 161.853C269.551 162.36 270.707 162.606 271.849 162.606C272.99 162.606 274.146 162.36 275.033 161.853C275.918 161.347 276.42 160.648 276.42 159.896C276.42 159.144 275.919 158.444 275.033 157.938C274.146 157.431 272.99 157.185 271.849 157.185ZM271.849 157.685C272.928 157.685 273.992 157.919 274.785 158.373C275.58 158.827 275.92 159.388 275.92 159.896C275.92 160.404 275.58 160.964 274.785 161.418C273.992 161.872 272.928 162.106 271.849 162.106C270.77 162.106 269.705 161.872 268.912 161.418C268.117 160.964 267.778 160.404 267.777 159.896C267.777 159.388 268.117 158.827 268.912 158.373C269.705 157.919 270.77 157.685 271.849 157.685Z" fill="#155C6D"/>
<path d="M263.025 160.886L280.31 170.848V160.286L263.025 150.324V160.886Z" fill="#155C6D"/>
<path d="M280.56 160.141L280.435 160.069L262.775 149.891V161.03L262.9 161.102L280.185 171.064L280.56 171.281V160.141ZM280.06 160.43V170.415L263.275 160.741V150.756L280.06 160.43Z" fill="#155C6D"/>
<path d="M263.025 160.886L280.31 170.848V160.286L263.025 150.324V160.886Z" fill="#155C6D"/>
<path d="M280.56 160.141L280.435 160.069L262.775 149.891V161.03L262.9 161.102L280.185 171.064L280.56 171.281V160.141ZM280.06 160.43V170.415L263.275 160.741V150.756L280.06 160.43Z" fill="#155C6D"/>
<path d="M297.594 160.886L280.31 170.848V160.286L297.594 150.324V160.886Z" fill="#155C6D"/>
<path d="M297.719 161.102L297.844 161.03V149.891L280.185 160.069L280.06 160.141V171.281L280.435 171.064L297.719 161.102ZM297.344 160.741L280.56 170.415V160.43L297.344 150.756V160.741Z" fill="#155C6D"/>
<path d="M297.594 160.886L280.31 170.848V160.286L297.594 150.324V160.886Z" fill="#70C5AD"/>
<path d="M297.719 161.102L297.844 161.03V149.891L280.185 160.069L280.06 160.141V171.281L280.435 171.064L297.719 161.102ZM297.344 160.741L280.56 170.415V160.43L297.344 150.756V160.741Z" fill="#155C6D"/>
<path d="M263.025 150.326L280.31 140.364L297.594 150.326L280.31 160.288L263.025 150.326Z" fill="#C8DAE8"/>
<path d="M280.185 140.147L262.524 150.326L280.185 160.504L280.31 160.577L280.435 160.504L298.095 150.326L280.435 140.147L280.31 140.076L280.185 140.147ZM297.093 150.326L280.31 159.999L263.527 150.326L280.31 140.652L297.093 150.326Z" fill="#155C6D"/>
<path d="M275.989 144.338C275.989 143.738 276.469 143.018 277.309 142.538C278.99 141.578 281.75 141.578 283.431 142.538C284.271 143.018 284.751 143.618 284.751 144.338V146.019C284.751 146.619 284.271 147.339 283.431 147.819C281.75 148.779 278.99 148.779 277.309 147.819C276.469 147.339 275.989 146.739 275.989 146.019V144.338Z" fill="#155C6D"/>
<path d="M276.239 144.338C276.239 143.861 276.637 143.21 277.434 142.755C278.227 142.302 279.291 142.068 280.37 142.068C281.449 142.068 282.514 142.302 283.307 142.755C284.112 143.216 284.501 143.749 284.501 144.338V146.019C284.501 146.496 284.103 147.147 283.307 147.602C282.514 148.055 281.449 148.29 280.37 148.29C279.291 148.29 278.227 148.055 277.434 147.602C276.628 147.142 276.239 146.609 276.239 146.019V144.338ZM275.739 146.019C275.739 146.869 276.311 147.536 277.186 148.036C278.073 148.543 279.229 148.79 280.37 148.79C281.512 148.79 282.667 148.543 283.555 148.036C284.438 147.531 285.001 146.742 285.001 146.019V144.338C285.001 143.488 284.43 142.821 283.555 142.321C282.667 141.814 281.512 141.568 280.37 141.568C279.229 141.568 278.073 141.814 277.186 142.321C276.302 142.826 275.739 143.615 275.739 144.338V146.019Z" fill="#155C6D"/>
<path d="M277.189 142.538C276.349 143.018 275.868 143.618 275.868 144.338V146.019C275.868 146.619 276.349 147.339 277.189 147.819C278.029 148.299 279.109 148.539 280.189 148.539V141.818C279.229 141.818 278.029 142.058 277.189 142.538Z" fill="#155C6D"/>
<path d="M276.118 144.338C276.118 143.749 276.507 143.216 277.312 142.755C278.035 142.342 279.06 142.112 279.939 142.075V148.282C278.979 148.248 278.044 148.02 277.312 147.602C276.516 147.147 276.118 146.496 276.118 146.019V144.338ZM275.618 146.019C275.618 146.742 276.181 147.531 277.064 148.036C277.951 148.542 279.076 148.79 280.189 148.79H280.439V141.568H280.189C279.199 141.568 277.952 141.814 277.064 142.321C276.19 142.821 275.618 143.488 275.618 144.338V146.019Z" fill="#155C6D"/>
<path d="M283.311 142.538C284.151 143.018 284.631 143.618 284.631 144.338V146.019C284.631 146.619 284.151 147.339 283.311 147.819C282.47 148.299 281.39 148.539 280.31 148.539V141.818C281.39 141.818 282.47 142.058 283.311 142.538Z" fill="#70C5AD"/>
<path d="M280.06 141.568V148.79H280.31C281.423 148.79 282.549 148.542 283.435 148.036C284.318 147.531 284.881 146.742 284.881 146.019V144.338C284.881 143.488 284.309 142.821 283.435 142.321C282.549 141.815 281.423 141.568 280.31 141.568H280.06ZM284.381 146.019C284.381 146.496 283.983 147.147 283.187 147.602C282.455 148.02 281.52 148.248 280.56 148.282V142.075C281.52 142.109 282.455 142.338 283.187 142.755C283.992 143.216 284.381 143.749 284.381 144.338V146.019Z" fill="#155C6D"/>
<path d="M283.311 142.538C284.991 143.498 284.991 145.059 283.311 146.019C281.631 146.979 278.87 146.979 277.189 146.019C275.509 145.059 275.509 143.498 277.189 142.538C278.87 141.578 281.631 141.578 283.311 142.538Z" fill="#C8DAE8"/>
<path d="M280.25 141.568C279.109 141.568 277.953 141.814 277.065 142.321C276.18 142.827 275.679 143.527 275.679 144.279C275.679 145.031 276.18 145.73 277.065 146.236C277.953 146.743 279.109 146.989 280.25 146.989C281.391 146.989 282.547 146.743 283.435 146.236C284.32 145.73 284.821 145.031 284.821 144.279C284.821 143.527 284.32 142.827 283.435 142.321C282.547 141.814 281.391 141.568 280.25 141.568ZM280.25 142.068C281.329 142.068 282.393 142.302 283.187 142.755C283.982 143.21 284.321 143.771 284.321 144.279C284.321 144.787 283.981 145.347 283.187 145.801C282.393 146.254 281.329 146.489 280.25 146.489C279.171 146.489 278.107 146.254 277.313 145.801C276.519 145.347 276.179 144.787 276.179 144.279C276.179 143.771 276.519 143.21 277.313 142.755C278.107 142.302 279.171 142.068 280.25 142.068Z" fill="#155C6D"/>
<path d="M275.989 154.057C275.989 153.457 276.469 152.737 277.309 152.257C278.99 151.297 281.75 151.297 283.431 152.257C284.271 152.737 284.751 153.337 284.751 154.057V155.737C284.751 156.338 284.271 157.058 283.431 157.538C281.75 158.498 278.99 158.498 277.309 157.538C276.469 157.058 275.989 156.458 275.989 155.737V154.057Z" fill="#155C6D"/>
<path d="M276.239 154.057C276.239 153.58 276.637 152.929 277.434 152.474C278.227 152.021 279.291 151.787 280.37 151.787C281.449 151.787 282.514 152.021 283.307 152.474C284.112 152.934 284.501 153.467 284.501 154.057V155.738C284.501 156.215 284.103 156.866 283.307 157.321C282.514 157.774 281.449 158.008 280.37 158.008C279.291 158.008 278.227 157.774 277.434 157.321C276.628 156.861 276.239 156.327 276.239 155.738V154.057ZM275.739 155.738C275.739 156.588 276.311 157.255 277.186 157.754C278.073 158.261 279.229 158.508 280.37 158.508C281.512 158.508 282.667 158.261 283.555 157.754C284.438 157.249 285.001 156.461 285.001 155.738V154.057C285.001 153.207 284.43 152.539 283.555 152.04C282.667 151.533 281.512 151.287 280.37 151.287C279.229 151.287 278.073 151.533 277.186 152.04C276.302 152.545 275.739 153.334 275.739 154.057V155.738Z" fill="#155C6D"/>
<path d="M277.189 152.257C276.349 152.737 275.868 153.337 275.868 154.057V155.737C275.868 156.338 276.349 157.058 277.189 157.538C278.029 158.018 279.109 158.258 280.189 158.258V151.537C279.229 151.537 278.029 151.777 277.189 152.257Z" fill="#155C6D"/>
<path d="M276.118 154.057C276.118 153.467 276.507 152.934 277.312 152.474C278.035 152.061 279.06 151.831 279.939 151.793V158C278.979 157.966 278.044 157.739 277.312 157.321C276.516 156.866 276.118 156.215 276.118 155.738V154.057ZM275.618 155.738C275.618 156.461 276.181 157.249 277.064 157.754C277.951 158.261 279.076 158.508 280.189 158.508H280.439V151.287H280.189C279.199 151.287 277.952 151.532 277.064 152.04C276.19 152.539 275.618 153.207 275.618 154.057V155.738Z" fill="#155C6D"/>
<path d="M283.311 152.257C284.151 152.737 284.631 153.337 284.631 154.057V155.737C284.631 156.338 284.151 157.058 283.311 157.538C282.47 158.018 281.39 158.258 280.31 158.258V151.537C281.39 151.537 282.47 151.777 283.311 152.257Z" fill="#70C5AD"/>
<path d="M280.06 151.287V158.508H280.31C281.423 158.508 282.549 158.261 283.435 157.754C284.318 157.249 284.881 156.461 284.881 155.738V154.057C284.881 153.207 284.309 152.539 283.435 152.04C282.549 151.533 281.423 151.287 280.31 151.287H280.06ZM284.381 155.738C284.381 156.215 283.983 156.866 283.187 157.321C282.455 157.739 281.52 157.966 280.56 158V151.793C281.52 151.828 282.455 152.056 283.187 152.474C283.992 152.934 284.381 153.467 284.381 154.057V155.738Z" fill="#155C6D"/>
<path d="M283.311 152.257C284.991 153.217 284.991 154.777 283.311 155.737C281.631 156.698 278.87 156.698 277.189 155.737C275.509 154.777 275.509 153.217 277.189 152.257C278.87 151.297 281.631 151.297 283.311 152.257Z" fill="#C8DAE8"/>
<path d="M280.25 151.287C279.109 151.287 277.953 151.533 277.065 152.04C276.18 152.545 275.679 153.245 275.679 153.998C275.679 154.749 276.18 155.449 277.065 155.955C277.953 156.462 279.109 156.707 280.25 156.708C281.391 156.708 282.547 156.461 283.435 155.955C284.32 155.449 284.821 154.749 284.821 153.998C284.821 153.245 284.32 152.545 283.435 152.04C282.547 151.533 281.391 151.287 280.25 151.287ZM280.25 151.787C281.329 151.787 282.393 152.021 283.187 152.474C283.982 152.928 284.321 153.489 284.321 153.998C284.321 154.506 283.981 155.066 283.187 155.52C282.393 155.973 281.329 156.208 280.25 156.208C279.171 156.207 278.107 155.973 277.313 155.52C276.519 155.066 276.179 154.506 276.179 153.998C276.179 153.489 276.519 152.928 277.313 152.474C278.107 152.021 279.171 151.787 280.25 151.787Z" fill="#155C6D"/>
<path d="M284.39 149.249C284.39 148.648 284.87 147.928 285.711 147.448C287.391 146.488 290.152 146.488 291.832 147.448C292.672 147.928 293.152 148.528 293.152 149.249V150.929C293.152 151.529 292.672 152.249 291.832 152.729C290.152 153.689 287.391 153.689 285.711 152.729C284.87 152.249 284.39 151.649 284.39 150.929V149.249Z" fill="#155C6D"/>
<path d="M284.641 149.249C284.641 148.772 285.039 148.121 285.835 147.666C286.628 147.212 287.693 146.978 288.771 146.978C289.85 146.978 290.915 147.212 291.708 147.666C292.513 148.126 292.902 148.659 292.902 149.249V150.929C292.902 151.406 292.504 152.057 291.708 152.512C290.915 152.965 289.85 153.2 288.771 153.2C287.693 153.2 286.628 152.965 285.835 152.512C285.03 152.052 284.641 151.519 284.641 150.929V149.249ZM284.141 150.929C284.141 151.78 284.712 152.446 285.587 152.946C286.474 153.453 287.63 153.7 288.771 153.7C289.913 153.7 291.069 153.453 291.956 152.946C292.84 152.441 293.402 151.652 293.402 150.929V149.249C293.402 148.398 292.831 147.731 291.956 147.231C291.069 146.724 289.913 146.478 288.771 146.478C287.63 146.478 286.474 146.724 285.587 147.231C284.703 147.736 284.141 148.525 284.141 149.249V150.929Z" fill="#155C6D"/>
<path d="M285.711 147.448C284.871 147.928 284.391 148.528 284.391 149.249V150.929C284.391 151.529 284.871 152.249 285.711 152.729C286.551 153.209 287.632 153.449 288.712 153.449V146.728C287.632 146.728 286.551 146.968 285.711 147.448Z" fill="#155C6D"/>
<path d="M284.641 149.249C284.641 148.659 285.03 148.126 285.835 147.666C286.566 147.248 287.501 147.019 288.462 146.985V153.192C287.501 153.158 286.566 152.93 285.835 152.512C285.039 152.057 284.641 151.406 284.641 150.929V149.249ZM284.141 150.929C284.141 151.652 284.703 152.441 285.587 152.946C286.473 153.452 287.598 153.7 288.712 153.7H288.962V146.478H288.712C287.598 146.478 286.473 146.725 285.587 147.231C284.712 147.731 284.141 148.398 284.141 149.249V150.929Z" fill="#155C6D"/>
<path d="M291.713 147.448C292.553 147.928 293.033 148.528 293.033 149.249V150.929C293.033 151.529 292.553 152.249 291.713 152.729C290.873 153.209 289.792 153.449 288.712 153.449V146.728C289.792 146.728 290.873 146.968 291.713 147.448Z" fill="#70C5AD"/>
<path d="M288.462 146.478V153.7H288.712C289.825 153.7 290.951 153.452 291.837 152.946C292.721 152.441 293.283 151.652 293.283 150.929V149.249C293.283 148.398 292.712 147.731 291.837 147.231C290.951 146.725 289.825 146.478 288.712 146.478H288.462ZM292.783 150.929C292.783 151.406 292.385 152.057 291.589 152.512C290.858 152.93 289.923 153.158 288.962 153.192V146.985C289.923 147.019 290.858 147.248 291.589 147.666C292.394 148.126 292.783 148.659 292.783 149.249V150.929Z" fill="#155C6D"/>
<path d="M291.712 147.448C293.393 148.408 293.393 149.969 291.712 150.929C290.032 151.889 287.271 151.889 285.591 150.929C283.91 149.969 283.91 148.408 285.591 147.448C287.391 146.488 290.032 146.488 291.712 147.448Z" fill="#C8DAE8"/>
<path d="M288.696 146.478C287.709 146.478 286.703 146.667 285.836 147.051L285.474 147.228L285.467 147.231L285.588 147.441L285.591 147.448L285.467 147.231C284.581 147.737 284.08 148.437 284.08 149.189C284.08 149.941 284.582 150.64 285.467 151.146C286.354 151.653 287.51 151.899 288.651 151.899C289.793 151.899 290.949 151.653 291.836 151.146C292.721 150.64 293.222 149.941 293.223 149.189C293.223 148.437 292.721 147.737 291.836 147.231C290.95 146.725 289.824 146.478 288.696 146.478ZM288.696 146.978C289.759 146.978 290.794 147.212 291.588 147.666C292.383 148.12 292.723 148.681 292.723 149.189C292.722 149.697 292.383 150.257 291.588 150.711C290.795 151.165 289.73 151.399 288.651 151.399C287.572 151.399 286.508 151.165 285.715 150.711C284.92 150.257 284.58 149.697 284.58 149.189C284.58 148.681 284.92 148.12 285.715 147.666V147.665C286.572 147.209 287.637 146.978 288.696 146.978Z" fill="#155C6D"/>
<path d="M267.586 149.249C267.586 148.648 268.067 147.928 268.907 147.448C270.587 146.488 273.348 146.488 275.028 147.448C275.869 147.928 276.349 148.528 276.349 149.249V150.929C276.349 151.529 275.869 152.249 275.028 152.729C273.348 153.689 270.587 153.689 268.907 152.729C268.067 152.249 267.586 151.649 267.586 150.929V149.249Z" fill="#155C6D"/>
<path d="M267.837 149.249C267.837 148.772 268.235 148.121 269.031 147.666C269.824 147.212 270.889 146.978 271.968 146.978C273.047 146.978 274.111 147.212 274.904 147.666C275.71 148.126 276.099 148.659 276.099 149.249V150.929C276.098 151.406 275.701 152.057 274.904 152.512C274.111 152.965 273.047 153.2 271.968 153.2C270.889 153.2 269.824 152.965 269.031 152.512C268.226 152.052 267.837 151.519 267.837 150.929V149.249ZM267.337 150.929C267.337 151.78 267.909 152.446 268.783 152.946C269.671 153.453 270.826 153.7 271.968 153.7C273.109 153.7 274.265 153.453 275.152 152.946C276.036 152.441 276.598 151.652 276.599 150.929V149.249C276.599 148.398 276.027 147.731 275.152 147.231C274.265 146.724 273.109 146.478 271.968 146.478C270.826 146.478 269.67 146.724 268.783 147.231C267.899 147.736 267.337 148.525 267.337 149.249V150.929Z" fill="#155C6D"/>
<path d="M268.786 147.448C267.946 147.928 267.466 148.528 267.466 149.249V150.929C267.466 151.529 267.946 152.249 268.786 152.729C269.627 153.209 270.707 153.449 271.787 153.449V146.728C270.707 146.728 269.627 146.968 268.786 147.448Z" fill="#155C6D"/>
<path d="M267.716 149.249C267.716 148.659 268.105 148.126 268.91 147.666C269.641 147.248 270.577 147.019 271.537 146.985V153.192C270.577 153.158 269.641 152.93 268.91 152.512C268.114 152.057 267.716 151.406 267.716 150.929V149.249ZM267.216 150.929C267.216 151.652 267.778 152.441 268.662 152.946C269.548 153.452 270.674 153.7 271.787 153.7H272.037V146.478H271.787C270.674 146.478 269.548 146.725 268.662 147.231C267.787 147.731 267.216 148.398 267.216 149.249V150.929Z" fill="#155C6D"/>
<path d="M274.908 147.448C275.748 147.928 276.229 148.528 276.229 149.249V150.929C276.229 151.529 275.748 152.249 274.908 152.729C274.068 153.209 272.988 153.449 271.907 153.449V146.728C272.988 146.728 274.068 146.968 274.908 147.448Z" fill="#70C5AD"/>
<path d="M271.657 146.478V153.7H271.907C273.021 153.7 274.146 153.452 275.032 152.946C275.916 152.441 276.478 151.652 276.479 150.929V149.249C276.479 148.398 275.907 147.731 275.032 147.231C274.146 146.725 273.021 146.478 271.907 146.478H271.657ZM275.979 150.929C275.978 151.406 275.58 152.057 274.784 152.512C274.053 152.93 273.118 153.158 272.157 153.192V146.985C273.118 147.019 274.053 147.248 274.784 147.666C275.59 148.126 275.979 148.659 275.979 149.249V150.929Z" fill="#155C6D"/>
<path d="M274.909 147.448C276.589 148.408 276.589 149.969 274.909 150.929C273.228 151.889 270.468 151.889 268.787 150.929C267.107 149.969 267.107 148.408 268.787 147.448C270.468 146.488 273.228 146.488 274.909 147.448Z" fill="#C8DAE8"/>
<path d="M271.848 146.478C270.706 146.478 269.55 146.724 268.663 147.231C267.778 147.737 267.276 148.437 267.276 149.189C267.277 149.941 267.778 150.64 268.663 151.146C269.55 151.653 270.706 151.899 271.848 151.899C272.989 151.899 274.145 151.653 275.032 151.146C275.917 150.64 276.419 149.941 276.419 149.189C276.419 148.437 275.918 147.737 275.032 147.231C274.145 146.724 272.989 146.478 271.848 146.478ZM271.848 146.978C272.927 146.978 273.991 147.212 274.784 147.666C275.579 148.12 275.919 148.681 275.919 149.189C275.919 149.697 275.579 150.257 274.784 150.711C273.991 151.165 272.927 151.399 271.848 151.399C270.769 151.399 269.704 151.165 268.911 150.711C268.116 150.257 267.777 149.697 267.776 149.189C267.776 148.681 268.116 148.12 268.911 147.666C269.704 147.212 270.769 146.978 271.848 146.978Z" fill="#155C6D"/>
<path d="M262.906 150.038L280.19 160V149.438L262.906 139.476V150.038Z" fill="#155C6D"/>
<path d="M280.44 149.293L280.315 149.221L262.656 139.043V150.182L262.781 150.254L280.065 160.216L280.44 160.433V149.293ZM279.94 149.583V159.567L263.156 149.893V139.909L279.94 149.583Z" fill="#155C6D"/>
<path d="M262.906 150.038L280.19 160V149.438L262.906 139.476V150.038Z" fill="#155C6D"/>
<path d="M280.44 149.293L280.315 149.221L262.656 139.043V150.182L262.781 150.254L280.065 160.216L280.44 160.433V149.293ZM279.94 149.583V159.567L263.156 149.893V139.909L279.94 149.583Z" fill="#155C6D"/>
<path d="M297.596 150.038L280.191 160V149.438L297.596 139.476V150.038Z" fill="#155C6D"/>
<path d="M297.846 150.183V139.044L297.472 139.259L279.941 149.293V160.431L297.846 150.183ZM297.346 149.892L280.441 159.568V149.583L297.346 139.907V149.892Z" fill="#155C6D"/>
<path d="M297.596 150.038L280.191 160V149.438L297.596 139.476V150.038Z" fill="#70C5AD"/>
<path d="M297.846 150.183V139.044L297.472 139.259L279.941 149.293V160.431L297.846 150.183ZM297.346 149.892L280.441 159.568V149.583L297.346 139.907V149.892Z" fill="#155C6D"/>
<path d="M262.906 139.478L280.19 129.516L297.595 139.478L280.19 149.44L262.906 139.478Z" fill="#C8DAE8"/>
<path d="M280.065 129.299L262.405 139.478L280.065 149.657L280.19 149.728L280.314 149.657L298.098 139.478L280.314 129.299L280.19 129.228L280.065 129.299ZM297.093 139.478L280.191 149.151L263.408 139.478L280.191 129.804L297.093 139.478Z" fill="#155C6D"/>
<path d="M275.99 133.479C275.99 132.879 276.47 132.159 277.31 131.679C278.991 130.718 281.751 130.718 283.432 131.679C284.272 132.159 284.752 132.759 284.752 133.479V135.159C284.752 135.759 284.272 136.48 283.432 136.96C281.751 137.92 278.991 137.92 277.31 136.96C276.47 136.48 275.99 135.879 275.99 135.159V133.479Z" fill="#155C6D"/>
<path d="M276.24 133.479C276.24 133.002 276.638 132.351 277.435 131.896C278.228 131.443 279.292 131.208 280.371 131.208C281.45 131.209 282.515 131.443 283.308 131.896C284.113 132.356 284.502 132.889 284.502 133.479V135.16C284.502 135.637 284.104 136.288 283.308 136.743C282.515 137.196 281.45 137.43 280.371 137.43C279.292 137.43 278.228 137.196 277.435 136.743C276.629 136.282 276.24 135.749 276.24 135.16V133.479ZM275.74 135.16C275.74 136.01 276.312 136.676 277.187 137.176C278.074 137.683 279.23 137.93 280.371 137.93C281.513 137.93 282.668 137.683 283.556 137.176C284.439 136.671 285.002 135.883 285.002 135.16V133.479C285.002 132.628 284.43 131.961 283.556 131.461C282.668 130.954 281.513 130.709 280.371 130.708C279.23 130.708 278.074 130.955 277.187 131.461C276.303 131.967 275.74 132.756 275.74 133.479V135.16Z" fill="#155C6D"/>
<path d="M277.19 131.679C276.349 132.159 275.869 132.759 275.869 133.479V135.159C275.869 135.759 276.349 136.48 277.19 136.96C278.03 137.44 279.11 137.68 280.19 137.68V130.958C279.11 130.958 278.03 131.199 277.19 131.679Z" fill="#155C6D"/>
<path d="M276.119 133.479C276.119 132.889 276.508 132.356 277.313 131.896C278.045 131.478 278.98 131.249 279.94 131.215V137.422C278.98 137.388 278.045 137.16 277.313 136.743C276.517 136.288 276.119 135.637 276.119 135.16V133.479ZM275.619 135.16C275.619 135.883 276.182 136.671 277.065 137.176C277.951 137.683 279.077 137.93 280.19 137.93H280.44V130.708H280.19C279.077 130.708 277.951 130.955 277.065 131.461C276.191 131.961 275.619 132.629 275.619 133.479V135.16Z" fill="#155C6D"/>
<path d="M283.312 131.679C284.152 132.159 284.632 132.759 284.632 133.479V135.159C284.632 135.759 284.152 136.48 283.312 136.96C282.471 137.44 281.391 137.68 280.311 137.68V130.958C281.391 130.958 282.471 131.199 283.312 131.679Z" fill="#70C5AD"/>
<path d="M280.061 130.708V137.93H280.311C281.424 137.93 282.549 137.683 283.436 137.176C284.319 136.671 284.882 135.883 284.882 135.16V133.479C284.882 132.628 284.31 131.961 283.436 131.461C282.55 130.955 281.424 130.708 280.311 130.708H280.061ZM284.382 135.16C284.382 135.637 283.984 136.288 283.188 136.743C282.456 137.16 281.521 137.388 280.561 137.422V131.215C281.521 131.249 282.456 131.478 283.188 131.896C283.993 132.356 284.382 132.889 284.382 133.479V135.16Z" fill="#155C6D"/>
<path d="M283.312 131.679C284.992 132.639 284.992 134.199 283.312 135.159C281.632 136.12 278.871 136.12 277.19 135.159C275.51 134.199 275.51 132.639 277.19 131.679C278.871 130.718 281.632 130.718 283.312 131.679Z" fill="#C8DAE8"/>
<path d="M280.251 130.708C279.109 130.709 277.954 130.954 277.066 131.461C276.181 131.967 275.68 132.667 275.68 133.419C275.68 134.171 276.181 134.871 277.066 135.376C277.954 135.883 279.109 136.129 280.251 136.129C281.392 136.129 282.548 135.883 283.436 135.376C284.321 134.871 284.822 134.171 284.822 133.419C284.822 132.667 284.321 131.967 283.436 131.461C282.548 130.955 281.392 130.708 280.251 130.708ZM280.251 131.208C281.33 131.208 282.394 131.443 283.188 131.896C283.983 132.35 284.322 132.911 284.322 133.419C284.322 133.927 283.982 134.488 283.188 134.942C282.394 135.395 281.33 135.629 280.251 135.629C279.172 135.629 278.107 135.395 277.314 134.942C276.52 134.488 276.18 133.927 276.18 133.419C276.18 132.911 276.52 132.35 277.314 131.896C278.107 131.443 279.172 131.209 280.251 131.208Z" fill="#155C6D"/>
<path d="M275.99 143.202C275.99 142.602 276.47 141.881 277.31 141.401C278.991 140.441 281.751 140.441 283.432 141.401C284.272 141.881 284.752 142.482 284.752 143.202V144.882C284.752 145.482 284.272 146.202 283.432 146.682C281.751 147.643 278.991 147.643 277.31 146.682C276.47 146.202 275.99 145.602 275.99 144.882V143.202Z" fill="#155C6D"/>
<path d="M276.24 143.202C276.24 142.725 276.638 142.074 277.435 141.619C278.228 141.166 279.292 140.931 280.371 140.931C281.45 140.931 282.515 141.166 283.308 141.619C284.113 142.079 284.502 142.612 284.502 143.202V144.882C284.502 145.359 284.104 146.01 283.308 146.465C282.515 146.918 281.45 147.153 280.371 147.153C279.292 147.153 278.228 146.918 277.435 146.465C276.629 146.005 276.24 145.472 276.24 144.882V143.202ZM275.74 144.882C275.74 145.733 276.312 146.399 277.187 146.899C278.074 147.406 279.23 147.653 280.371 147.653C281.513 147.653 282.668 147.406 283.556 146.899C284.439 146.394 285.002 145.605 285.002 144.882V143.202C285.002 142.351 284.43 141.684 283.556 141.184C282.668 140.677 281.513 140.431 280.371 140.431C279.23 140.431 278.074 140.677 277.187 141.184C276.303 141.689 275.74 142.478 275.74 143.202V144.882Z" fill="#155C6D"/>
<path d="M277.19 141.401C276.349 141.881 275.869 142.482 275.869 143.202V144.882C275.869 145.482 276.349 146.202 277.19 146.682C278.03 147.162 279.11 147.402 280.19 147.402V140.681C279.11 140.681 278.03 140.921 277.19 141.401Z" fill="#155C6D"/>
<path d="M276.119 143.202C276.119 142.612 276.508 142.079 277.313 141.619C278.045 141.201 278.98 140.972 279.94 140.938V147.145C278.98 147.111 278.045 146.883 277.313 146.465C276.517 146.01 276.119 145.359 276.119 144.882V143.202ZM275.619 144.882C275.619 145.605 276.182 146.394 277.065 146.899C277.951 147.405 279.077 147.653 280.19 147.653H280.44V140.431H280.19C279.077 140.431 277.951 140.678 277.065 141.184C276.191 141.684 275.619 142.351 275.619 143.202V144.882Z" fill="#155C6D"/>
<path d="M283.312 141.401C284.152 141.881 284.632 142.482 284.632 143.202V144.882C284.632 145.482 284.152 146.202 283.312 146.682C282.471 147.162 281.391 147.402 280.311 147.402V140.681C281.391 140.681 282.471 140.921 283.312 141.401Z" fill="#70C5AD"/>
<path d="M280.061 140.431V147.653H280.311C281.424 147.653 282.549 147.405 283.436 146.899C284.319 146.394 284.882 145.605 284.882 144.882V143.202C284.882 142.351 284.31 141.684 283.436 141.184C282.55 140.678 281.424 140.431 280.311 140.431H280.061ZM284.382 144.882C284.382 145.359 283.984 146.01 283.188 146.465C282.456 146.883 281.521 147.111 280.561 147.145V140.938C281.521 140.972 282.456 141.201 283.188 141.619C283.993 142.079 284.382 142.612 284.382 143.202V144.882Z" fill="#155C6D"/>
<path d="M283.312 141.401C284.992 142.361 284.992 143.922 283.312 144.882C281.632 145.842 278.871 145.842 277.19 144.882C275.51 143.922 275.51 142.361 277.19 141.401C278.871 140.441 281.632 140.441 283.312 141.401Z" fill="#C8DAE8"/>
<path d="M280.251 140.431C279.109 140.431 277.954 140.677 277.066 141.184C276.181 141.69 275.68 142.39 275.68 143.142C275.68 143.894 276.181 144.593 277.066 145.099C277.954 145.606 279.109 145.852 280.251 145.852C281.392 145.852 282.548 145.606 283.436 145.099C284.321 144.593 284.822 143.894 284.822 143.142C284.822 142.39 284.321 141.69 283.436 141.184C282.548 140.677 281.392 140.431 280.251 140.431ZM280.251 140.931C281.33 140.931 282.394 141.166 283.188 141.619C283.983 142.073 284.322 142.634 284.322 143.142C284.322 143.65 283.982 144.21 283.188 144.665C282.394 145.118 281.33 145.352 280.251 145.352C279.172 145.352 278.107 145.118 277.314 144.665C276.52 144.21 276.18 143.65 276.18 143.142C276.18 142.634 276.52 142.073 277.314 141.619C278.107 141.166 279.172 140.931 280.251 140.931Z" fill="#155C6D"/>
<path d="M284.391 138.409C284.391 137.809 284.871 137.088 285.711 136.608C287.392 135.648 290.153 135.648 291.833 136.608C292.673 137.088 293.153 137.689 293.153 138.409V140.089C293.153 140.689 292.673 141.409 291.833 141.889C290.153 142.85 287.392 142.85 285.711 141.889C284.871 141.409 284.391 140.809 284.391 140.089V138.409Z" fill="#155C6D"/>
<path d="M284.642 138.409C284.642 137.932 285.04 137.281 285.836 136.826C286.629 136.373 287.694 136.138 288.772 136.138C289.851 136.138 290.916 136.373 291.709 136.826C292.514 137.286 292.903 137.819 292.903 138.409V140.089C292.903 140.566 292.505 141.217 291.709 141.672C290.916 142.126 289.851 142.36 288.772 142.36C287.694 142.36 286.629 142.125 285.836 141.672C285.031 141.212 284.642 140.679 284.642 140.089V138.409ZM284.142 140.089C284.142 140.94 284.713 141.606 285.588 142.106C286.475 142.613 287.631 142.86 288.772 142.86C289.914 142.86 291.07 142.613 291.957 142.106C292.841 141.601 293.403 140.812 293.403 140.089V138.409C293.403 137.558 292.832 136.891 291.957 136.391C291.07 135.884 289.914 135.638 288.772 135.638C287.631 135.638 286.475 135.884 285.588 136.391C284.704 136.896 284.142 137.685 284.142 138.409V140.089Z" fill="#155C6D"/>
<path d="M285.592 136.608C284.752 137.088 284.272 137.689 284.272 138.409V140.089C284.272 140.689 284.752 141.409 285.592 141.889C286.432 142.369 287.513 142.61 288.593 142.61V135.888C287.633 135.888 286.432 136.128 285.592 136.608Z" fill="#155C6D"/>
<path d="M284.521 138.409C284.521 137.819 284.91 137.286 285.716 136.826C286.439 136.413 287.463 136.182 288.343 136.145V142.352C287.382 142.318 286.447 142.09 285.716 141.672C284.92 141.217 284.522 140.566 284.521 140.089V138.409ZM284.021 140.089C284.022 140.812 284.584 141.601 285.468 142.106C286.354 142.612 287.479 142.86 288.593 142.86H288.843V135.638H288.593C287.602 135.638 286.356 135.884 285.468 136.391C284.593 136.891 284.021 137.558 284.021 138.409V140.089Z" fill="#155C6D"/>
<path d="M291.713 136.608C292.553 137.088 293.033 137.689 293.033 138.409V140.089C293.033 140.689 292.553 141.409 291.713 141.889C290.873 142.369 289.792 142.61 288.712 142.61V135.888C289.792 135.888 290.873 136.128 291.713 136.608Z" fill="#70C5AD"/>
<path d="M288.462 135.638V142.86H288.712C289.825 142.86 290.951 142.612 291.837 142.106C292.721 141.601 293.283 140.812 293.283 140.089V138.409C293.283 137.558 292.712 136.891 291.837 136.391C290.951 135.885 289.825 135.638 288.712 135.638H288.462ZM292.783 140.089C292.783 140.566 292.385 141.217 291.589 141.672C290.858 142.09 289.923 142.318 288.962 142.352V136.145C289.923 136.179 290.858 136.408 291.589 136.826C292.394 137.286 292.783 137.819 292.783 138.409V140.089Z" fill="#155C6D"/>
<path d="M291.712 136.608C293.393 137.569 293.393 139.129 291.712 140.089C290.032 141.049 287.271 141.049 285.591 140.089C283.91 139.129 283.91 137.569 285.591 136.608C287.271 135.648 290.032 135.648 291.712 136.608Z" fill="#C8DAE8"/>
<path d="M288.651 135.638C287.51 135.638 286.354 135.884 285.467 136.391C284.581 136.897 284.08 137.597 284.08 138.349C284.08 139.101 284.582 139.8 285.467 140.306C286.354 140.813 287.51 141.059 288.651 141.059C289.793 141.059 290.949 140.813 291.836 140.306C292.721 139.8 293.222 139.101 293.223 138.349C293.223 137.597 292.721 136.897 291.836 136.391C290.949 135.884 289.793 135.638 288.651 135.638ZM288.651 136.138C289.73 136.138 290.795 136.373 291.588 136.826C292.383 137.28 292.723 137.841 292.723 138.349C292.722 138.857 292.383 139.417 291.588 139.872C290.795 140.325 289.73 140.559 288.651 140.559C287.572 140.559 286.508 140.325 285.715 139.872C284.92 139.417 284.58 138.857 284.58 138.349C284.58 137.841 284.92 137.28 285.715 136.826C286.508 136.373 287.572 136.138 288.651 136.138Z" fill="#155C6D"/>
<path d="M267.467 138.409C267.467 137.809 267.947 137.088 268.788 136.608C270.468 135.648 273.229 135.648 274.909 136.608C275.749 137.088 276.229 137.689 276.229 138.409V140.089C276.229 140.689 275.749 141.409 274.909 141.889C273.229 142.85 270.468 142.85 268.788 141.889C267.947 141.409 267.467 140.809 267.467 140.089V138.409Z" fill="#155C6D"/>
<path d="M267.718 138.409C267.718 137.932 268.116 137.281 268.912 136.826C269.705 136.373 270.77 136.138 271.849 136.138C272.928 136.138 273.992 136.373 274.785 136.826C275.591 137.286 275.979 137.819 275.979 138.409V140.089C275.979 140.566 275.581 141.217 274.785 141.672C273.992 142.126 272.928 142.36 271.849 142.36C270.77 142.36 269.705 142.125 268.912 141.672C268.107 141.212 267.718 140.679 267.718 140.089V138.409ZM267.218 140.089C267.218 140.94 267.789 141.606 268.664 142.106C269.551 142.613 270.707 142.86 271.849 142.86C272.99 142.86 274.146 142.613 275.033 142.106C275.917 141.601 276.479 140.812 276.479 140.089V138.409C276.479 137.558 275.908 136.891 275.033 136.391C274.146 135.884 272.99 135.638 271.849 135.638C270.707 135.638 269.551 135.884 268.664 136.391C267.78 136.896 267.218 137.685 267.218 138.409V140.089Z" fill="#155C6D"/>
<path d="M268.787 136.608C267.947 137.088 267.467 137.689 267.467 138.409V140.089C267.467 140.689 267.947 141.409 268.787 141.889C269.628 142.369 270.708 142.61 271.788 142.61V135.888C270.708 135.888 269.628 136.128 268.787 136.608Z" fill="#155C6D"/>
<path d="M267.717 138.409C267.717 137.819 268.106 137.286 268.911 136.826C269.642 136.408 270.578 136.179 271.538 136.145V142.352C270.578 142.318 269.642 142.09 268.911 141.672C268.115 141.217 267.717 140.566 267.717 140.089V138.409ZM267.217 140.089C267.217 140.812 267.779 141.601 268.663 142.106C269.549 142.612 270.675 142.86 271.788 142.86H272.038V135.638H271.788C270.675 135.638 269.549 135.885 268.663 136.391C267.788 136.891 267.217 137.558 267.217 138.409V140.089Z" fill="#155C6D"/>
<path d="M274.909 136.608C275.749 137.088 276.229 137.689 276.229 138.409V140.089C276.229 140.689 275.749 141.409 274.909 141.889C274.069 142.369 272.989 142.61 271.908 142.61V135.888C272.869 135.888 274.069 136.128 274.909 136.608Z" fill="#70C5AD"/>
<path d="M271.658 135.638V142.86H271.908C273.022 142.86 274.147 142.612 275.033 142.106C275.917 141.601 276.479 140.812 276.479 140.089V138.409C276.479 137.558 275.908 136.891 275.033 136.391C274.145 135.884 272.899 135.638 271.908 135.638H271.658ZM275.979 140.089C275.979 140.566 275.581 141.217 274.785 141.672C274.054 142.09 273.119 142.318 272.158 142.352V136.145C273.038 136.182 274.062 136.413 274.785 136.826C275.591 137.286 275.979 137.819 275.979 138.409V140.089Z" fill="#155C6D"/>
<path d="M274.91 136.608C276.59 137.569 276.59 139.129 274.91 140.089C273.229 141.049 270.469 141.049 268.788 140.089C267.108 139.129 267.108 137.569 268.788 136.608C270.469 135.648 273.229 135.648 274.91 136.608Z" fill="#C8DAE8"/>
<path d="M271.849 135.638C270.707 135.638 269.551 135.884 268.664 136.391C267.779 136.897 267.277 137.597 267.277 138.349C267.278 139.101 267.779 139.8 268.664 140.306C269.551 140.813 270.707 141.059 271.849 141.059C272.99 141.059 274.146 140.813 275.033 140.306C275.918 139.8 276.42 139.101 276.42 138.349C276.42 137.597 275.919 136.897 275.033 136.391C274.146 135.884 272.99 135.638 271.849 135.638ZM271.849 136.138C272.928 136.138 273.992 136.373 274.785 136.826C275.58 137.28 275.92 137.841 275.92 138.349C275.92 138.857 275.58 139.417 274.785 139.872C273.992 140.325 272.928 140.559 271.849 140.559C270.77 140.559 269.705 140.325 268.912 139.872C268.117 139.417 267.778 138.857 267.777 138.349C267.777 137.841 268.117 137.28 268.912 136.826C269.705 136.373 270.77 136.138 271.849 136.138Z" fill="#155C6D"/>
<path d="M263.027 119.968L280.312 129.93V119.368L263.027 109.406V119.968Z" fill="#155C6D"/>
<path d="M280.562 119.223L280.437 119.151L262.777 108.973V120.112L262.902 120.184L280.187 130.146L280.562 130.363V119.223ZM280.062 119.512V129.497L263.277 119.823V109.838L280.062 119.512Z" fill="#155C6D"/>
<path d="M263.027 119.968L280.312 129.93V119.368L263.027 109.406V119.968Z" fill="#155C6D"/>
<path d="M280.562 119.223L280.437 119.151L262.777 108.973V120.112L262.902 120.184L280.187 130.146L280.562 130.363V119.223ZM280.062 119.512V129.497L263.277 119.823V109.838L280.062 119.512Z" fill="#155C6D"/>
<path d="M297.596 119.968L280.312 129.93V119.368L297.596 109.406V119.968Z" fill="#155C6D"/>
<path d="M297.721 120.184L297.846 120.112V108.973L280.187 119.151L280.062 119.223V130.363L280.437 130.146L297.721 120.184ZM297.346 119.823L280.562 129.497V119.512L297.346 109.838V119.823Z" fill="#155C6D"/>
<path d="M297.596 119.968L280.312 129.93V119.368L297.596 109.406V119.968Z" fill="#70C5AD"/>
<path d="M297.721 120.184L297.846 120.112V108.973L280.187 119.151L280.062 119.223V130.363L280.437 130.146L297.721 120.184ZM297.346 119.823L280.562 129.497V119.512L297.346 109.838V119.823Z" fill="#155C6D"/>
<path d="M263.027 109.404L280.312 99.4419L297.596 109.404L280.312 119.366L263.027 109.404Z" fill="#C8DAE8"/>
<path d="M280.187 99.2251L262.526 109.404L280.187 119.583L280.312 119.655L280.437 119.583L298.097 109.404L280.437 99.2251L280.312 99.1538L280.187 99.2251ZM297.095 109.404L280.312 119.077L263.529 109.404L280.312 99.73L297.095 109.404Z" fill="#155C6D"/>
<path d="M275.99 103.409C275.99 102.809 276.47 102.088 277.31 101.608C278.991 100.648 281.751 100.648 283.432 101.608C284.272 102.088 284.752 102.689 284.752 103.409V105.089C284.752 105.689 284.272 106.409 283.432 106.889C281.751 107.85 278.991 107.85 277.31 106.889C276.47 106.409 275.99 105.809 275.99 105.089V103.409Z" fill="#155C6D"/>
<path d="M276.24 103.409C276.24 102.932 276.638 102.281 277.435 101.826C278.228 101.373 279.292 101.138 280.371 101.138C281.45 101.138 282.515 101.373 283.308 101.826C284.113 102.286 284.502 102.819 284.502 103.409V105.089C284.502 105.566 284.104 106.217 283.308 106.672C282.515 107.126 281.45 107.36 280.371 107.36C279.292 107.36 278.228 107.125 277.435 106.672C276.629 106.212 276.24 105.679 276.24 105.089V103.409ZM275.74 105.089C275.74 105.94 276.312 106.606 277.187 107.106C278.074 107.613 279.23 107.86 280.371 107.86C281.513 107.86 282.668 107.613 283.556 107.106C284.439 106.601 285.002 105.812 285.002 105.089V103.409C285.002 102.558 284.43 101.891 283.556 101.391C282.668 100.884 281.513 100.638 280.371 100.638C279.23 100.638 278.074 100.884 277.187 101.391C276.303 101.896 275.74 102.685 275.74 103.409V105.089Z" fill="#155C6D"/>
<path d="M277.31 101.608C276.47 102.088 275.989 102.689 275.989 103.409V105.089C275.989 105.689 276.47 106.409 277.31 106.889C278.15 107.369 279.23 107.61 280.311 107.61V100.888C279.23 100.888 278.15 101.128 277.31 101.608Z" fill="#155C6D"/>
<path d="M276.239 103.409C276.239 102.819 276.628 102.286 277.434 101.826C278.165 101.408 279.1 101.179 280.061 101.145V107.352C279.1 107.318 278.165 107.09 277.434 106.672C276.637 106.217 276.239 105.566 276.239 105.089V103.409ZM275.739 105.089C275.739 105.812 276.302 106.601 277.186 107.106C278.072 107.612 279.197 107.86 280.311 107.86H280.561V100.638H280.311C279.197 100.638 278.072 100.885 277.186 101.391C276.311 101.891 275.739 102.558 275.739 103.409V105.089Z" fill="#155C6D"/>
<path d="M283.312 101.608C284.152 102.088 284.632 102.689 284.632 103.409V105.089C284.632 105.689 284.152 106.409 283.312 106.889C282.471 107.369 281.391 107.61 280.311 107.61V100.888C281.391 100.888 282.471 101.128 283.312 101.608Z" fill="#70C5AD"/>
<path d="M280.061 100.638V107.86H280.311C281.424 107.86 282.549 107.612 283.436 107.106C284.319 106.601 284.882 105.812 284.882 105.089V103.409C284.882 102.558 284.31 101.891 283.436 101.391C282.55 100.885 281.424 100.638 280.311 100.638H280.061ZM284.382 105.089C284.382 105.566 283.984 106.217 283.188 106.672C282.456 107.09 281.521 107.318 280.561 107.352V101.145C281.521 101.179 282.456 101.408 283.188 101.826C283.993 102.286 284.382 102.819 284.382 103.409V105.089Z" fill="#155C6D"/>
<path d="M283.312 101.608C284.992 102.569 284.992 104.129 283.312 105.089C281.632 106.049 278.871 106.049 277.19 105.089C275.51 104.129 275.51 102.569 277.19 101.608C278.991 100.648 281.632 100.648 283.312 101.608Z" fill="#C8DAE8"/>
<path d="M280.296 100.638C279.308 100.638 278.303 100.827 277.436 101.211L277.073 101.388L277.066 101.391L277.188 101.601L277.19 101.608L277.066 101.391C276.181 101.897 275.68 102.597 275.68 103.349C275.68 104.101 276.181 104.8 277.066 105.306C277.954 105.813 279.109 106.059 280.251 106.059C281.392 106.059 282.548 105.813 283.436 105.306C284.321 104.8 284.822 104.101 284.822 103.349C284.822 102.597 284.321 101.897 283.436 101.391C282.549 100.885 281.424 100.638 280.296 100.638ZM280.296 101.138C281.358 101.138 282.393 101.372 283.188 101.826C283.983 102.28 284.322 102.841 284.322 103.349C284.322 103.857 283.982 104.417 283.188 104.872C282.394 105.325 281.33 105.559 280.251 105.559C279.172 105.559 278.107 105.325 277.314 104.872C276.52 104.417 276.18 103.857 276.18 103.349C276.18 102.841 276.52 102.28 277.314 101.826V101.825C278.171 101.37 279.237 101.138 280.296 101.138Z" fill="#155C6D"/>
<path d="M275.99 113.116C275.99 112.516 276.47 111.795 277.31 111.315C278.991 110.355 281.751 110.355 283.432 111.315C284.272 111.795 284.752 112.396 284.752 113.116V114.796C284.752 115.396 284.272 116.116 283.432 116.596C281.751 117.557 278.991 117.557 277.31 116.596C276.47 116.116 275.99 115.516 275.99 114.796V113.116Z" fill="#155C6D"/>
<path d="M276.24 113.116C276.24 112.639 276.638 111.988 277.435 111.533C278.228 111.08 279.292 110.845 280.371 110.845C281.45 110.845 282.515 111.08 283.308 111.533C284.113 111.993 284.502 112.526 284.502 113.116V114.796C284.502 115.273 284.104 115.924 283.308 116.379C282.515 116.833 281.45 117.067 280.371 117.067C279.292 117.067 278.228 116.832 277.435 116.379C276.629 115.919 276.24 115.386 276.24 114.796V113.116ZM275.74 114.796C275.74 115.647 276.312 116.313 277.187 116.813C278.074 117.32 279.23 117.567 280.371 117.567C281.513 117.567 282.668 117.32 283.556 116.813C284.439 116.308 285.002 115.519 285.002 114.796V113.116C285.002 112.265 284.43 111.598 283.556 111.098C282.668 110.591 281.513 110.345 280.371 110.345C279.23 110.345 278.074 110.591 277.187 111.098C276.303 111.603 275.74 112.393 275.74 113.116V114.796Z" fill="#155C6D"/>
<path d="M277.31 111.315C276.47 111.795 275.989 112.396 275.989 113.116V114.796C275.989 115.396 276.47 116.116 277.31 116.596C278.15 117.076 279.23 117.317 280.311 117.317V110.595C279.23 110.595 278.15 110.835 277.31 111.315Z" fill="#155C6D"/>
<path d="M276.239 113.116C276.239 112.526 276.628 111.993 277.434 111.533C278.165 111.115 279.1 110.886 280.061 110.852V117.059C279.1 117.025 278.165 116.797 277.434 116.379C276.637 115.924 276.239 115.273 276.239 114.796V113.116ZM275.739 114.796C275.739 115.519 276.302 116.308 277.186 116.813C278.072 117.319 279.197 117.567 280.311 117.567H280.561V110.345H280.311C279.197 110.345 278.072 110.592 277.186 111.098C276.311 111.598 275.739 112.265 275.739 113.116V114.796Z" fill="#155C6D"/>
<path d="M283.312 111.315C284.152 111.795 284.632 112.396 284.632 113.116V114.796C284.632 115.396 284.152 116.116 283.312 116.596C282.471 117.076 281.391 117.317 280.311 117.317V110.595C281.391 110.595 282.471 110.835 283.312 111.315Z" fill="#70C5AD"/>
<path d="M280.061 110.345V117.567H280.311C281.424 117.567 282.549 117.319 283.436 116.813C284.319 116.308 284.882 115.519 284.882 114.796V113.116C284.882 112.265 284.31 111.598 283.436 111.098C282.55 110.592 281.424 110.345 280.311 110.345H280.061ZM284.382 114.796C284.382 115.273 283.984 115.924 283.188 116.379C282.456 116.797 281.521 117.025 280.561 117.059V110.852C281.521 110.886 282.456 111.115 283.188 111.533C283.993 111.993 284.382 112.526 284.382 113.116V114.796Z" fill="#155C6D"/>
<path d="M283.312 111.315C284.992 112.276 284.992 113.836 283.312 114.796C281.632 115.756 278.871 115.756 277.19 114.796C275.51 113.836 275.51 112.276 277.19 111.315C278.991 110.355 281.632 110.355 283.312 111.315Z" fill="#C8DAE8"/>
<path d="M280.296 110.345C279.308 110.345 278.303 110.534 277.436 110.918L277.073 111.095L277.066 111.098L277.188 111.308L277.19 111.315L277.066 111.098C276.181 111.604 275.68 112.304 275.68 113.056C275.68 113.808 276.181 114.507 277.066 115.013C277.954 115.52 279.109 115.766 280.251 115.766C281.392 115.766 282.548 115.52 283.436 115.013C284.321 114.507 284.822 113.808 284.822 113.056C284.822 112.304 284.321 111.604 283.436 111.098C282.549 110.592 281.424 110.345 280.296 110.345ZM280.296 110.845C281.358 110.845 282.393 111.079 283.188 111.533C283.983 111.987 284.322 112.548 284.322 113.056C284.322 113.564 283.982 114.124 283.188 114.579C282.394 115.032 281.33 115.266 280.251 115.266C279.172 115.266 278.107 115.032 277.314 114.579C276.52 114.124 276.18 113.564 276.18 113.056C276.18 112.548 276.52 111.987 277.314 111.533V111.532C278.171 111.077 279.237 110.845 280.296 110.845Z" fill="#155C6D"/>
<path d="M284.392 108.209C284.392 107.609 284.872 106.889 285.712 106.409C287.393 105.449 290.154 105.449 291.834 106.409C292.674 106.889 293.154 107.489 293.154 108.209V109.89C293.154 110.49 292.674 111.21 291.834 111.69C290.154 112.65 287.393 112.65 285.712 111.69C284.872 111.21 284.392 110.61 284.392 109.89V108.209Z" fill="#155C6D"/>
<path d="M284.643 108.209C284.643 107.732 285.04 107.082 285.837 106.626C286.63 106.173 287.695 105.939 288.773 105.939C289.852 105.939 290.917 106.173 291.71 106.626C292.515 107.087 292.904 107.62 292.904 108.209V109.89C292.904 110.367 292.506 111.018 291.71 111.473C290.917 111.926 289.852 112.161 288.773 112.161C287.695 112.161 286.63 111.926 285.837 111.473C285.031 111.013 284.643 110.48 284.643 109.89V108.209ZM284.143 109.89C284.143 110.74 284.714 111.407 285.589 111.907C286.476 112.414 287.632 112.661 288.773 112.661C289.915 112.661 291.071 112.414 291.958 111.907C292.842 111.402 293.404 110.613 293.404 109.89V108.209C293.404 107.359 292.833 106.692 291.958 106.192C291.071 105.685 289.915 105.439 288.773 105.439C287.632 105.439 286.476 105.685 285.589 106.192C284.705 106.697 284.143 107.486 284.143 108.209V109.89Z" fill="#155C6D"/>
<path d="M285.712 106.511C284.872 106.991 284.392 107.591 284.392 108.311V109.991C284.392 110.591 284.872 111.312 285.712 111.792C286.552 112.272 287.633 112.512 288.713 112.512V105.791C287.633 105.791 286.552 106.031 285.712 106.511Z" fill="#155C6D"/>
<path d="M284.642 108.311C284.642 107.721 285.031 107.188 285.836 106.728C286.567 106.31 287.502 106.082 288.463 106.047V112.254C287.502 112.22 286.567 111.992 285.836 111.575C285.04 111.12 284.642 110.469 284.642 109.992V108.311ZM284.142 109.992C284.142 110.715 284.704 111.503 285.588 112.008C286.474 112.515 287.599 112.762 288.713 112.762H288.963V105.541H288.713C287.599 105.541 286.474 105.787 285.588 106.293C284.713 106.793 284.142 107.461 284.142 108.311V109.992Z" fill="#155C6D"/>
<path d="M291.834 106.511C292.674 106.991 293.154 107.591 293.154 108.311V109.991C293.154 110.591 292.674 111.312 291.834 111.792C290.994 112.272 289.914 112.512 288.833 112.512V105.791C289.793 105.791 290.994 106.031 291.834 106.511Z" fill="#70C5AD"/>
<path d="M288.583 105.541V112.762H288.833C289.946 112.762 291.072 112.515 291.958 112.008C292.842 111.503 293.404 110.715 293.404 109.992V108.311C293.404 107.461 292.833 106.793 291.958 106.293C291.07 105.786 289.824 105.541 288.833 105.541H288.583ZM292.904 109.992C292.904 110.469 292.506 111.12 291.71 111.575C290.979 111.992 290.044 112.22 289.083 112.254V106.047C289.963 106.085 290.987 106.315 291.71 106.728C292.515 107.188 292.904 107.721 292.904 108.311V109.992Z" fill="#155C6D"/>
<path d="M291.834 106.511C293.515 107.471 293.515 109.031 291.834 109.991C290.154 110.952 287.393 110.952 285.713 109.991C284.033 109.031 284.033 107.471 285.713 106.511C287.393 105.55 290.154 105.55 291.834 106.511Z" fill="#C8DAE8"/>
<path d="M288.773 105.541C287.632 105.541 286.476 105.786 285.589 106.293C284.703 106.799 284.202 107.499 284.202 108.251C284.202 109.003 284.704 109.703 285.589 110.208C286.476 110.715 287.632 110.961 288.773 110.961C289.915 110.961 291.071 110.715 291.958 110.208C292.843 109.703 293.345 109.003 293.345 108.251C293.345 107.499 292.843 106.799 291.958 106.293C291.071 105.787 289.915 105.541 288.773 105.541ZM288.773 106.041C289.852 106.041 290.917 106.275 291.71 106.728C292.505 107.182 292.845 107.743 292.845 108.251C292.845 108.76 292.505 109.32 291.71 109.774C290.917 110.227 289.852 110.461 288.773 110.461C287.695 110.461 286.63 110.227 285.837 109.774C285.042 109.32 284.702 108.759 284.702 108.251C284.702 107.743 285.042 107.182 285.837 106.728C286.63 106.275 287.695 106.041 288.773 106.041Z" fill="#155C6D"/>
<path d="M267.587 108.209C267.587 107.609 268.068 106.889 268.908 106.409C270.588 105.449 273.349 105.449 275.029 106.409C275.869 106.889 276.35 107.489 276.35 108.209V109.89C276.35 110.49 275.869 111.21 275.029 111.69C273.349 112.65 270.588 112.65 268.908 111.69C268.068 111.21 267.587 110.61 267.587 109.89V108.209Z" fill="#155C6D"/>
<path d="M267.838 108.209C267.838 107.732 268.236 107.082 269.032 106.626C269.825 106.173 270.89 105.939 271.969 105.939C273.048 105.939 274.112 106.173 274.905 106.626C275.711 107.087 276.1 107.62 276.1 108.209V109.89C276.099 110.367 275.702 111.018 274.905 111.473C274.112 111.926 273.048 112.161 271.969 112.161C270.89 112.161 269.825 111.926 269.032 111.473C268.227 111.013 267.838 110.48 267.838 109.89V108.209ZM267.338 109.89C267.338 110.74 267.909 111.407 268.784 111.907C269.671 112.414 270.827 112.661 271.969 112.661C273.11 112.661 274.266 112.414 275.153 111.907C276.037 111.402 276.599 110.613 276.6 109.89V108.209C276.6 107.359 276.028 106.692 275.153 106.192C274.266 105.685 273.11 105.439 271.969 105.439C270.827 105.439 269.671 105.685 268.784 106.192C267.9 106.697 267.338 107.486 267.338 108.209V109.89Z" fill="#155C6D"/>
<path d="M268.788 106.511C267.948 106.991 267.468 107.591 267.468 108.311V109.991C267.468 110.591 267.948 111.312 268.788 111.792C269.629 112.272 270.709 112.512 271.789 112.512V105.791C270.829 105.791 269.629 106.031 268.788 106.511Z" fill="#155C6D"/>
<path d="M267.718 108.311C267.718 107.721 268.107 107.188 268.912 106.728C269.635 106.315 270.659 106.085 271.539 106.047V112.254C270.579 112.22 269.643 111.992 268.912 111.575C268.116 111.12 267.718 110.469 267.718 109.992V108.311ZM267.218 109.992C267.218 110.715 267.78 111.503 268.664 112.008C269.55 112.515 270.676 112.762 271.789 112.762H272.039V105.541H271.789C270.798 105.541 269.552 105.786 268.664 106.293C267.789 106.793 267.218 107.461 267.218 108.311V109.992Z" fill="#155C6D"/>
<path d="M274.91 106.511C275.75 106.991 276.23 107.591 276.23 108.311V109.991C276.23 110.591 275.75 111.312 274.91 111.792C274.07 112.272 272.99 112.512 271.909 112.512V105.791C272.99 105.791 274.07 106.031 274.91 106.511Z" fill="#70C5AD"/>
<path d="M271.659 105.541V112.762H271.909C273.023 112.762 274.148 112.515 275.034 112.008C275.918 111.503 276.48 110.715 276.48 109.992V108.311C276.48 107.461 275.909 106.793 275.034 106.293C274.148 105.787 273.023 105.541 271.909 105.541H271.659ZM275.98 109.992C275.98 110.469 275.582 111.12 274.786 111.575C274.055 111.992 273.12 112.22 272.159 112.254V106.047C273.12 106.081 274.055 106.31 274.786 106.728C275.592 107.188 275.98 107.721 275.98 108.311V109.992Z" fill="#155C6D"/>
<path d="M274.91 106.511C276.59 107.471 276.59 109.031 274.91 109.991C273.229 110.952 270.469 110.952 268.788 109.991C267.108 109.031 267.108 107.471 268.788 106.511C270.469 105.55 273.229 105.55 274.91 106.511Z" fill="#C8DAE8"/>
<path d="M271.849 105.541C270.707 105.541 269.551 105.786 268.664 106.293C267.779 106.799 267.277 107.499 267.277 108.251C267.278 109.003 267.779 109.703 268.664 110.208C269.551 110.715 270.707 110.961 271.849 110.961C272.99 110.961 274.146 110.715 275.033 110.208C275.918 109.703 276.42 109.003 276.42 108.251C276.42 107.499 275.919 106.799 275.033 106.293C274.146 105.787 272.99 105.541 271.849 105.541ZM271.849 106.041C272.928 106.041 273.992 106.275 274.785 106.728C275.58 107.182 275.92 107.743 275.92 108.251C275.92 108.76 275.58 109.32 274.785 109.774C273.992 110.227 272.928 110.461 271.849 110.461C270.77 110.461 269.705 110.227 268.912 109.774C268.117 109.32 267.778 108.759 267.777 108.251C267.777 107.743 268.117 107.182 268.912 106.728C269.705 106.275 270.77 106.041 271.849 106.041Z" fill="#155C6D"/>
</svg>
