<svg width="411" height="300" viewBox="0 0 411 300" fill="none" xmlns="http://www.w3.org/2000/svg">
<path d="M224.921 233.842C255.193 220.564 263.382 173.701 243.434 129.482C223.655 85.6357 183.56 60.7783 153.661 73.6561L144.2 77.8815C111.277 92.0806 100.209 138.791 120.001 183.915C139.961 229.424 183.041 252.661 216.384 238.037L224.921 233.842L224.921 233.842Z" fill="#C8DAE8"/>
<path d="M202.497 80.0489C186.465 70.0884 169.159 66.995 154.254 73.0897L153.545 73.3872L153.542 73.3886L144.084 77.6123L143.312 77.9536C127.175 85.2366 116.403 100.373 112.047 119.236C107.623 138.397 109.815 161.42 119.733 184.032C139.727 229.617 182.948 253.022 216.502 238.305L216.514 238.299L216.515 238.298L225.051 234.104L225.064 234.098C240.302 227.403 249.952 212.271 253.299 193.315C256.649 174.347 253.696 151.517 243.702 129.361C233.791 107.392 218.786 90.1686 202.497 80.0489ZM154.475 73.6318C169.155 67.629 186.261 70.651 202.188 80.546C218.366 90.597 233.299 107.725 243.168 129.602C253.121 151.665 256.049 174.377 252.722 193.214C249.396 212.053 239.823 226.986 224.804 233.573L223.93 233.956L223.998 233.969L216.268 237.768L216.267 237.768C183.135 252.3 140.197 229.23 120.269 183.797C110.395 161.286 108.225 138.392 112.618 119.367C117.01 100.344 127.958 85.2054 144.316 78.1505L144.319 78.1481L153.778 73.9246L154.475 73.6318Z" fill="#155C6D"/>
<path d="M145.899 77.1227C183.091 124.953 188.399 182.408 156.954 211.459C156.954 211.459 140.55 212.772 130.707 202.929C130.559 202.781 130.397 202.648 130.219 202.528C152.439 235.45 187.95 250.508 216.381 238.038L224.918 233.843C255.19 220.565 263.379 173.702 243.431 129.483C223.652 85.637 183.556 60.7797 153.658 73.6574L145.899 77.1227Z" fill="#70C5AD"/>
<path d="M202.494 80.0498C186.461 70.0893 169.155 66.9963 154.25 73.0908L153.542 73.3887L153.539 73.3896L145.438 77.0078L145.668 77.3027C164.235 101.18 174.834 127.449 176.874 151.357C178.91 175.228 172.415 196.725 156.83 211.174C156.807 211.175 156.781 211.178 156.751 211.18C156.63 211.187 156.451 211.196 156.219 211.204C155.756 211.221 155.083 211.233 154.243 211.218C152.562 211.187 150.218 211.045 147.57 210.597C142.268 209.699 135.774 207.582 130.914 202.722L130.79 202.604C130.663 202.489 130.527 202.383 130.383 202.285L129.975 202.691C152.241 235.68 187.889 250.855 216.499 238.307L216.51 238.301L225.036 234.11C240.288 227.421 249.947 212.284 253.296 193.317C256.645 174.349 253.693 151.518 243.698 129.362L243.229 128.336C233.318 106.857 218.528 90.0114 202.494 80.0498ZM153.774 73.9268C168.609 67.5373 186.004 70.4958 202.184 80.5479C218.11 90.4417 232.829 107.193 242.698 128.581L243.164 129.604C253.117 151.667 256.045 174.377 252.719 193.215C249.444 211.759 240.118 226.519 225.501 233.26L224.801 233.575L224.789 233.58L216.263 237.77L215.599 238.056C188.051 249.677 153.937 235.58 131.871 204.401C136.655 208.49 142.59 210.348 147.472 211.174C150.156 211.628 152.529 211.773 154.232 211.804C155.084 211.819 155.769 211.806 156.241 211.789C156.477 211.781 156.66 211.771 156.785 211.764C156.847 211.76 156.895 211.757 156.927 211.755C156.944 211.754 156.956 211.753 156.965 211.752C156.968 211.752 156.971 211.752 156.973 211.752C156.974 211.752 156.976 211.751 156.976 211.751L157.079 211.743L157.153 211.675C172.958 197.073 179.508 175.347 177.457 151.308C175.414 127.367 164.841 101.111 146.357 77.2373L153.774 73.9268Z" fill="#155C6D"/>
<path d="M243.434 129.482C263.382 173.701 255.193 220.564 224.921 233.842C194.573 247.152 153.926 221.513 134.354 176.891C114.948 132.646 123.689 86.5656 153.661 73.656C183.56 60.7784 223.655 85.6357 243.434 129.482Z" fill="#155C6D"/>
<path d="M202.497 80.0487C186.21 69.9301 168.609 66.8989 153.545 73.387L152.842 73.6973C138.142 80.3558 128.666 95.0327 125.203 113.469C121.685 132.198 124.363 154.84 134.086 177.008C143.892 199.366 158.983 216.979 175.441 227.338C191.896 237.696 209.75 240.815 225.04 234.109C240.292 227.419 249.95 212.282 253.299 193.315C256.649 174.347 253.696 151.517 243.702 129.361C233.791 107.392 218.786 90.1684 202.497 80.0487ZM153.777 73.9242C168.612 67.5346 186.008 70.4937 202.188 80.5458C218.366 90.5968 233.299 107.725 243.168 129.601C253.121 151.665 256.049 174.376 252.722 193.214C249.396 212.053 239.823 226.985 224.804 233.573C209.745 240.177 192.1 237.132 175.752 226.842C159.406 216.554 144.388 199.036 134.623 176.772C124.94 154.697 122.286 132.175 125.779 113.577C129.219 95.2667 138.607 80.7878 153.084 74.2305L153.777 73.9242Z" fill="#155C6D"/>
<path d="M157.083 211.665C148.155 202.185 140.287 190.41 134.357 176.889C114.951 132.645 123.691 86.5638 153.664 73.6542C178.563 62.9293 210.533 78.3799 231.952 109.171C231.952 109.171 223.4 127.908 207.317 150.795C191.235 173.681 157.083 211.665 157.083 211.665Z" fill="#70C5AD"/>
<path d="M232.193 109.004C210.742 78.1689 178.64 62.5781 153.548 73.3856C138.446 79.8902 128.724 94.7388 125.206 113.467C121.687 132.197 124.365 154.838 134.088 177.006C140.032 190.558 147.918 202.36 156.87 211.866L157.089 212.097L157.301 211.861L157.083 211.664L157.301 211.86L157.302 211.859C157.303 211.858 157.305 211.856 157.307 211.854C157.311 211.849 157.318 211.842 157.326 211.832C157.343 211.814 157.367 211.787 157.4 211.751C157.465 211.678 157.562 211.569 157.689 211.427C157.943 211.144 158.318 210.724 158.801 210.183C159.766 209.099 161.163 207.525 162.89 205.566C166.344 201.646 171.117 196.182 176.392 190.002C186.94 177.645 199.507 162.419 207.557 150.963C215.606 139.509 221.77 129.094 225.922 121.541C227.999 117.765 229.572 114.704 230.627 112.586C231.154 111.528 231.552 110.705 231.818 110.147C231.951 109.867 232.051 109.654 232.118 109.511C232.152 109.439 232.176 109.384 232.193 109.348C232.201 109.329 232.208 109.316 232.212 109.307C232.214 109.302 232.216 109.299 232.217 109.297C232.218 109.295 232.218 109.294 232.219 109.294L232.219 109.293L232.288 109.141L232.193 109.004ZM153.78 73.9238C178.45 63.2976 210.228 78.5466 231.616 109.202C231.607 109.22 231.597 109.241 231.587 109.263C231.521 109.405 231.421 109.617 231.289 109.895C231.024 110.451 230.628 111.271 230.102 112.326C229.051 114.437 227.481 117.491 225.409 121.259C221.265 128.797 215.112 139.194 207.078 150.626C199.045 162.057 186.494 177.266 175.947 189.622C170.674 195.799 165.903 201.261 162.451 205.179C160.725 207.138 159.329 208.71 158.364 209.793C157.882 210.335 157.507 210.754 157.253 211.037C157.187 211.111 157.13 211.176 157.08 211.231C148.266 201.816 140.494 190.154 134.624 176.772C124.942 154.696 122.287 132.174 125.781 113.575C129.22 95.2655 138.609 80.7874 153.086 74.2299L153.78 73.9238Z" fill="#155C6D"/>
<path d="M225.219 220.703C199.68 231.915 165.356 210.051 148.742 172.137C132.269 134.545 139.511 95.4697 164.735 84.5971C189.896 73.7514 223.753 94.9502 240.54 132.206C257.47 169.779 250.695 209.519 225.219 220.703ZM232.087 134.729C219.456 106.693 194.527 90.4925 176.271 98.3488C157.97 106.224 153.081 135.377 165.487 163.662C177.999 192.188 203.275 208.891 221.803 200.764C240.284 192.658 244.826 163.003 232.087 134.729Z" fill="#C8DAE8"/>
<path d="M205.933 90.1153C192.173 81.4813 177.315 78.8555 164.618 84.3281C151.89 89.8149 143.729 102.404 140.814 118.295C137.897 134.187 140.217 153.413 148.474 172.255C156.801 191.258 169.571 206.251 183.477 215.09C197.163 223.789 211.979 226.542 224.731 221.23L225.336 220.971C238.191 215.328 246.297 202.493 249.07 186.4C251.843 170.305 249.292 150.917 240.807 132.085C232.393 113.412 219.696 98.7507 205.933 90.1153ZM164.851 84.8665C177.316 79.4935 191.968 82.0434 205.623 90.6112C219.275 99.1776 231.9 113.744 240.273 132.326C248.717 151.067 251.244 170.336 248.493 186.301C245.742 202.267 237.722 214.895 225.101 220.435L224.506 220.689C211.984 225.906 197.372 223.228 183.79 214.595C169.996 205.827 157.297 190.93 149.011 172.02C140.794 153.27 138.498 134.161 141.39 118.4C144.283 102.636 152.356 90.2524 164.851 84.8665ZM206.448 102.834C196.305 96.229 185.404 94.1005 176.156 98.0803L175.724 98.2708C166.702 102.363 161.014 111.62 159.075 123.304C157.167 134.805 158.882 148.695 164.649 162.449L165.219 163.78C171.494 178.087 180.975 189.442 191.228 196.203C201.477 202.961 212.535 205.149 221.92 201.032C231.283 196.926 237.079 187.377 238.942 175.355C240.805 163.33 238.743 148.79 232.354 134.608L231.751 133.299C225.429 119.857 216.278 109.235 206.448 102.834ZM176.388 98.6175C185.395 94.7414 196.086 96.7847 206.129 103.324C215.855 109.658 224.939 120.191 231.221 133.548L231.82 134.849C238.17 148.942 240.206 163.368 238.363 175.265C236.519 187.166 230.804 196.497 221.685 200.496L221.255 200.679C212.204 204.439 201.54 202.302 191.55 195.714C181.405 189.024 171.992 177.763 165.756 163.544C159.572 149.446 157.704 135.144 159.653 123.4C161.602 111.653 167.359 102.503 176.388 98.6175Z" fill="#155C6D"/>
<path d="M218.385 188.661C203.871 195.299 184.487 182.636 175.197 160.533C165.985 138.617 170.221 115.755 184.556 109.316C198.855 102.893 217.976 115.169 227.367 136.887C236.838 158.79 232.864 182.039 218.385 188.661ZM221.698 138.972C214.735 122.852 200.861 113.597 190.634 118.188C180.381 122.791 177.55 139.614 184.387 155.878C191.281 172.281 205.348 181.824 215.728 177.077C226.082 172.341 228.721 155.23 221.698 138.972Z" fill="#C8DAE8"/>
<path d="M207.961 112.303C200.165 107.287 191.703 105.784 184.436 109.049L183.761 109.368C176.863 112.787 172.415 120.04 170.758 129.068C169.101 138.1 170.227 148.942 174.504 159.614L174.927 160.647C179.591 171.744 186.795 180.485 194.672 185.62C202.302 190.594 210.595 192.201 217.812 189.229L218.507 188.927C225.863 185.563 230.516 177.991 232.145 168.554C233.776 159.113 232.391 147.768 227.636 136.771L227.187 135.756C222.473 125.336 215.514 117.163 207.961 112.303ZM184.676 109.583C191.708 106.425 199.957 107.849 207.644 112.794C215.33 117.739 222.422 126.189 227.098 137.003C231.813 147.909 233.177 159.14 231.569 168.455C229.96 177.773 225.386 185.136 218.264 188.394L217.59 188.687C210.603 191.564 202.516 190.035 194.992 185.13C187.226 180.068 180.092 171.425 175.466 160.419L175.046 159.396C170.806 148.813 169.7 138.083 171.335 129.173C172.971 120.261 177.34 113.204 184.022 109.892L184.676 109.583ZM207.553 120.571C201.884 116.781 195.75 115.571 190.514 117.922L190.028 118.151C185.062 120.619 181.922 125.955 180.813 132.611C179.704 139.272 180.62 147.296 183.802 155.224L184.117 155.991C187.582 164.237 192.856 170.772 198.586 174.652C204.135 178.408 210.148 179.693 215.349 177.56L215.85 177.343C221.148 174.92 224.434 169.349 225.519 162.39C226.604 155.427 225.497 147.029 221.967 138.856L221.634 138.102C218.139 130.356 213.047 124.243 207.553 120.571ZM190.753 118.455C195.744 116.215 201.661 117.336 207.227 121.057C212.79 124.775 217.966 131.071 221.429 139.088C224.921 147.173 226.007 155.46 224.94 162.301C223.873 169.145 220.662 174.498 215.607 176.811L215.129 177.018C210.166 179.053 204.363 177.855 198.915 174.166C193.293 170.36 188.086 163.922 184.657 155.764L184.345 155.006C181.197 147.164 180.301 139.249 181.39 132.708C182.48 126.162 185.548 121.032 190.29 118.675L190.753 118.455Z" fill="#155C6D"/>
<path d="M212.284 162.606C206.922 165.396 199.11 160.174 195.201 151.027C191.395 142.12 193.031 133.489 198.504 131.629C203.708 129.862 210.676 134.857 214.375 142.88C218.164 151.1 217.37 159.96 212.284 162.606Z" fill="#C8DAE8"/>
<path d="M207.174 133.345C204.277 131.284 201.136 130.427 198.411 131.352L198.144 131.449C195.425 132.501 193.695 135.18 193.086 138.635C192.496 141.981 192.947 146.094 194.589 150.299L194.933 151.142C196.905 155.759 199.869 159.399 203.035 161.536C206.097 163.603 209.395 164.286 212.155 162.996L212.421 162.866C215.085 161.479 216.584 158.489 216.95 154.862C217.317 151.23 216.555 146.908 214.642 142.758L214.282 142.007C212.436 138.299 209.895 135.28 207.174 133.345ZM198.599 131.907C201.078 131.065 204.022 131.821 206.835 133.821C209.467 135.694 211.949 138.634 213.757 142.267L214.109 143.003C215.985 147.073 216.722 151.29 216.367 154.804C216.012 158.324 214.572 161.086 212.15 162.346L211.909 162.466C209.402 163.637 206.329 163.052 203.362 161.05C200.305 158.986 197.408 155.442 195.472 150.912L195.134 150.086C193.525 145.963 193.094 141.959 193.662 138.736C194.25 135.402 195.893 132.947 198.359 131.994L198.599 131.907Z" fill="#155C6D"/>
<path d="M206.541 147.96C205.976 148.254 205.152 147.703 204.739 146.738C204.338 145.799 204.51 144.889 205.088 144.693C205.636 144.506 206.371 145.033 206.761 145.879C207.161 146.746 207.077 147.68 206.541 147.96L206.541 147.96Z" fill="#155C6D"/>
<path d="M206.154 144.66C205.811 144.416 205.39 144.281 204.993 144.415L204.843 144.481C204.512 144.659 204.325 145.008 204.258 145.386C204.191 145.767 204.236 146.213 204.395 146.662L204.47 146.853C204.694 147.378 205.036 147.806 205.418 148.064C205.796 148.318 206.262 148.435 206.676 148.22L207.432 147.826L207.119 147.768C207.216 147.587 207.272 147.38 207.293 147.17C207.337 146.733 207.245 146.231 207.027 145.757L206.942 145.587C206.735 145.2 206.458 144.877 206.154 144.66ZM205.182 144.971C205.333 144.919 205.555 144.953 205.814 145.138C206.036 145.296 206.256 145.545 206.426 145.862L206.495 146.002C206.677 146.395 206.742 146.794 206.71 147.111C206.681 147.394 206.583 147.574 206.46 147.666L206.406 147.7L206.346 147.725C206.196 147.773 205.99 147.744 205.746 147.579C205.472 147.394 205.196 147.063 205.008 146.624L204.946 146.464C204.816 146.096 204.788 145.753 204.834 145.487C204.882 145.219 204.996 145.064 205.126 144.995L205.182 144.971Z" fill="#155C6D"/>
<path d="M213.488 139.406L306.928 92.3204L308.227 87.7995C310.32 80.5208 301.418 79.6136 288.492 86.3682C282.427 89.5376 276.639 93.8616 272.493 98.2554L255.707 116.044C255.707 116.044 213.827 138.982 213.489 139.406L213.488 139.406Z" fill="#155C6D"/>
<path d="M308.08 83.3813C307.268 82.2835 305.849 81.6791 304.016 81.5294C300.353 81.2304 294.836 82.7223 288.357 86.1083L287.218 86.7188C281.545 89.8348 276.191 93.9113 272.281 98.0549L255.526 115.809C255.506 115.82 255.48 115.835 255.446 115.853C255.367 115.897 255.249 115.961 255.096 116.045C254.789 116.213 254.339 116.46 253.766 116.774C252.62 117.402 250.983 118.3 249.018 119.379C245.086 121.536 239.84 124.416 234.583 127.309C229.327 130.203 224.061 133.111 220.086 135.322C218.099 136.427 216.434 137.358 215.256 138.026C214.667 138.36 214.198 138.629 213.871 138.822C213.707 138.918 213.577 138.996 213.485 139.054C213.439 139.082 213.399 139.107 213.369 139.129C213.354 139.138 213.34 139.15 213.326 139.16L213.058 139.296L213.472 139.897L213.679 139.639L307.06 92.5821L307.175 92.5248L307.209 92.4011L308.51 87.8802C309.047 86.0106 308.896 84.4839 308.08 83.3813ZM303.969 82.1135C305.714 82.2561 306.937 82.8213 307.609 83.7294C308.278 84.6329 308.455 85.9495 307.947 87.7189L306.683 92.1164L224.811 133.373C227.917 131.654 231.393 129.735 234.866 127.823C240.122 124.93 245.368 122.049 249.299 119.892C251.265 118.813 252.902 117.916 254.048 117.288C254.621 116.974 255.071 116.727 255.378 116.559C255.531 116.475 255.649 116.41 255.728 116.367C255.767 116.345 255.797 116.329 255.817 116.318C255.827 116.312 255.835 116.308 255.841 116.305C255.843 116.304 255.845 116.303 255.846 116.302L255.847 116.302L255.707 116.044L255.848 116.302L255.888 116.279L255.92 116.246L272.707 98.456C276.571 94.3613 281.875 90.3215 287.499 87.2323L288.628 86.628C295.075 83.2594 300.472 81.828 303.969 82.1135Z" fill="#155C6D"/>
<path d="M204.991 145.721L306.951 92.5496L302.943 84.8638C297.055 73.5747 283.131 69.1955 271.841 75.0829C266.42 77.9102 262.344 82.7752 260.509 88.6076L252.065 115.458C252.065 115.458 205.271 144.83 204.991 145.721L204.991 145.721Z" fill="#C8DAE8"/>
<path d="M302.916 84.1978C296.799 73.16 282.96 68.9543 271.705 74.8233L271.195 75.0977C265.96 77.9953 262.029 82.7979 260.23 88.5199L251.819 115.266C251.805 115.274 251.791 115.283 251.775 115.293C251.686 115.349 251.555 115.433 251.384 115.54C251.041 115.756 250.538 116.072 249.898 116.474C248.618 117.279 246.789 118.43 244.593 119.813C240.201 122.581 234.343 126.28 228.476 130.008C222.609 133.735 216.732 137.491 212.304 140.371C210.091 141.81 208.238 143.032 206.929 143.923C206.275 144.367 205.754 144.731 205.392 144.999C205.211 145.132 205.066 145.245 204.962 145.333C204.91 145.376 204.864 145.417 204.827 145.455C204.809 145.473 204.789 145.495 204.772 145.519C204.757 145.538 204.729 145.579 204.712 145.633L204.612 145.949L205.037 146.028L205.126 145.981L307.086 92.8096L307.346 92.6737L307.21 92.4143L303.202 84.7281L302.916 84.1978ZM271.976 75.3429C282.948 69.6211 296.441 73.7209 302.404 84.4818L302.682 84.9988L306.556 92.425L208.578 143.52C209.708 142.768 211.077 141.868 212.624 140.861C217.049 137.983 222.923 134.229 228.79 130.502C234.656 126.775 240.514 123.076 244.905 120.309C247.1 118.925 248.93 117.774 250.21 116.969C250.85 116.567 251.353 116.251 251.696 116.036C251.867 115.928 251.998 115.845 252.086 115.79C252.131 115.762 252.164 115.741 252.186 115.727C252.198 115.72 252.207 115.714 252.212 115.711C252.215 115.709 252.217 115.708 252.219 115.707L252.22 115.706L252.065 115.458L252.221 115.705L252.312 115.649L252.344 115.545L260.788 88.6952C262.543 83.1169 266.374 78.4346 271.478 75.6096L271.976 75.3429Z" fill="#155C6D"/>
<path d="M204.992 145.73L306.952 92.5583L310.96 100.244C316.848 111.533 312.468 125.458 301.179 131.345C295.758 134.172 289.435 134.73 283.603 132.896L256.753 124.452C256.753 124.452 205.884 146.011 204.993 145.731L204.992 145.73Z" fill="#155C6D"/>
<path d="M306.816 92.2987L204.857 145.47L204.644 145.58L204.755 145.962L204.905 146.01C204.959 146.027 205.009 146.026 205.033 146.025C205.062 146.024 205.091 146.021 205.117 146.017C205.169 146.009 205.229 145.995 205.294 145.977C205.426 145.942 205.602 145.887 205.815 145.815C206.241 145.671 206.838 145.452 207.577 145.17C209.056 144.607 211.118 143.786 213.566 142.795C218.462 140.813 224.905 138.144 231.319 135.466C237.734 132.789 244.121 130.102 248.904 128.085C251.296 127.077 253.286 126.236 254.679 125.647C255.375 125.352 255.923 125.121 256.295 124.963C256.482 124.885 256.625 124.823 256.721 124.783C256.738 124.775 256.754 124.769 256.768 124.763L283.515 133.175C289.237 134.974 295.424 134.5 300.797 131.866L301.315 131.605C312.747 125.642 317.182 111.541 311.219 100.108L307.211 92.4222L307.076 92.1628L306.816 92.2987ZM310.7 100.379C316.512 111.525 312.189 125.272 301.044 131.085L300.539 131.341C295.301 133.909 289.269 134.371 283.69 132.616L256.84 124.172L256.737 124.14L256.638 124.181L256.752 124.452C256.649 124.209 256.639 124.185 256.638 124.182L256.636 124.183C256.634 124.184 256.632 124.185 256.629 124.186C256.623 124.188 256.613 124.192 256.601 124.198C256.577 124.208 256.54 124.224 256.492 124.244L254.451 125.107C253.058 125.696 251.067 126.537 248.676 127.546C243.893 129.562 237.508 132.249 231.094 134.926C224.68 137.603 218.239 140.271 213.346 142.252C211.636 142.945 210.115 143.552 208.851 144.048L306.828 92.9522L310.7 100.379Z" fill="#155C6D"/>
<path d="M204.997 145.743L306.957 92.5712L310.114 95.0366C314.92 98.7901 308.736 107.204 296.266 113.601C290.339 116.642 283.882 118.727 278.37 119.403L254.293 122.353C254.293 122.353 205.671 145.683 204.997 145.743Z" fill="#70C5AD"/>
<path d="M306.82 92.3117L204.861 145.483L205.022 146.035C205.058 146.031 205.091 146.022 205.104 146.018C205.123 146.013 205.143 146.006 205.162 145.999C205.202 145.985 205.251 145.965 205.308 145.941C205.423 145.894 205.582 145.826 205.779 145.738C206.175 145.563 206.734 145.309 207.431 144.987C208.826 144.343 210.782 143.426 213.108 142.328C217.762 140.132 223.903 137.209 230.023 134.289C236.143 131.369 242.243 128.452 246.811 126.263C249.096 125.169 250.998 124.258 252.329 123.62C252.994 123.301 253.517 123.05 253.873 122.879C254.051 122.794 254.188 122.728 254.28 122.684C254.322 122.664 254.355 122.648 254.378 122.637L278.405 119.693C283.61 119.056 289.638 117.172 295.277 114.423L296.399 113.861C302.656 110.652 307.362 106.924 309.902 103.503C311.172 101.793 311.918 100.135 312.022 98.6411C312.127 97.1285 311.572 95.8041 310.293 94.8053L306.987 92.2243L306.82 92.3117ZM309.933 95.2673C311.057 96.1451 311.531 97.2806 311.439 98.6011C311.345 99.94 310.667 101.49 309.433 103.153C306.965 106.476 302.344 110.154 296.132 113.341L295.019 113.897C289.43 116.622 283.463 118.483 278.334 119.111L254.257 122.062L254.209 122.068L254.166 122.089L254.293 122.353C254.166 122.089 254.166 122.089 254.166 122.089L254.164 122.09C254.162 122.09 254.16 122.092 254.157 122.093C254.151 122.096 254.143 122.1 254.131 122.105C254.108 122.117 254.072 122.134 254.027 122.156C253.935 122.2 253.798 122.266 253.62 122.351C253.264 122.522 252.741 122.772 252.076 123.091C250.745 123.729 248.843 124.641 246.558 125.735C241.989 127.923 235.891 130.841 229.771 133.761C225.154 135.964 220.524 138.166 216.531 140.058L306.924 92.9167L309.933 95.2673Z" fill="#155C6D"/>
<path d="M307.228 93.0656C295.22 100.821 282.74 108.489 270.502 115.898C262.46 120.671 253.701 125.783 245.881 130.855C235.619 137.228 224.264 141.618 212.595 144.743C210.176 145.344 207.763 145.901 205.269 146.237L204.735 145.213C208.114 141.596 211.958 138.452 215.858 135.457C223.593 129.667 231.698 124.478 240.593 120.716C249.22 117.21 258.445 112.944 266.951 109.087C280.032 103.293 293.457 97.4513 306.694 92.0411L307.229 93.0653L307.228 93.0656Z" fill="#70C5AD"/>
<path d="M306.584 91.7704C294.997 96.5057 283.268 101.571 271.753 106.645L266.832 108.819L266.83 108.821L260.336 111.772C254.298 114.514 248.08 117.309 242.106 119.779L240.483 120.444L240.479 120.446L239.645 120.804C231.602 124.305 224.204 128.958 217.14 134.142L215.683 135.222L215.679 135.225L214.218 136.357C210.819 139.019 207.493 141.832 204.521 145.013L204.379 145.164L205.009 146.373L205.104 146.555L205.308 146.527C207.818 146.188 210.245 145.63 212.666 145.028L212.671 145.026C224.36 141.895 235.743 137.496 246.035 131.104L246.04 131.101C253.854 126.032 262.606 120.924 270.652 116.15L270.654 116.148C282.892 108.739 295.375 101.069 307.387 93.3115L307.395 93.307L307.609 93.1597L307.488 92.93L306.831 91.6689L306.584 91.7704ZM306.846 92.9626C294.91 100.666 282.513 108.284 270.353 115.646L264.214 119.283C257.992 122.972 251.595 126.8 245.726 130.607L244.764 131.196C234.789 137.232 223.809 141.436 212.526 144.459C210.175 145.043 207.838 145.58 205.433 145.917L205.092 145.262C208.42 141.726 212.195 138.64 216.036 135.69C223.759 129.909 231.841 124.736 240.704 120.987L242.329 120.32C250.488 116.947 259.1 112.968 267.07 109.354C280.069 103.596 293.405 97.7938 306.559 92.4134L306.846 92.9626Z" fill="#155C6D"/>
<path d="M270.503 115.898C282.74 108.489 295.22 100.821 307.229 93.0653L306.694 92.0411C293.457 97.4513 280.033 103.293 266.951 109.087C258.445 112.944 249.22 117.21 240.593 120.716C234.379 123.344 228.552 126.67 222.965 130.409C223.527 132.152 224.234 133.86 225.1 135.52C225.889 137.034 226.786 138.463 227.778 139.809C234.063 137.36 240.143 134.418 245.88 130.855C253.701 125.782 262.46 120.671 270.502 115.898L270.503 115.898Z" fill="#C8DAE8"/>
<path d="M306.584 91.7705C294.997 96.5058 283.269 101.571 271.753 106.645L266.833 108.819L266.83 108.821L260.336 111.772C254.298 114.514 248.08 117.309 242.106 119.779L240.483 120.444L240.479 120.446L239.315 120.949C233.515 123.502 228.05 126.653 222.802 130.166L222.619 130.289L222.686 130.499C223.182 132.038 223.79 133.549 224.52 135.025L224.84 135.655C225.636 137.182 226.542 138.625 227.543 139.983L227.676 140.163L227.885 140.082C234.184 137.627 240.281 134.678 246.035 131.104L246.04 131.101C253.824 126.052 262.538 120.964 270.557 116.206L270.559 116.206L270.655 116.149C282.894 108.739 295.376 101.069 307.388 93.3118L307.612 93.1665L307.488 92.9301L306.831 91.669L306.584 91.7705ZM306.846 92.9627C294.91 100.666 282.514 108.284 270.353 115.646L264.214 119.283C257.992 122.971 251.595 126.799 245.726 130.606L244.649 131.265C239.312 134.484 233.687 137.179 227.883 139.453C226.952 138.172 226.106 136.816 225.359 135.384L225.045 134.765C224.362 133.383 223.788 131.969 223.314 130.529C228.832 126.849 234.581 123.577 240.704 120.987L242.329 120.321C250.488 116.947 259.1 112.968 267.07 109.354C280.07 103.597 293.406 97.7939 306.56 92.4135L306.846 92.9627Z" fill="#155C6D"/>
<path d="M231.945 229.891C237.492 226.019 242.056 220.816 245.583 214.609L205.262 146.248L231.945 229.891Z" fill="#155C6D"/>
<path d="M204.985 146.336L231.788 230.359L232.113 230.131C237.7 226.231 242.292 220.994 245.838 214.754L245.922 214.606L245.835 214.46L205.516 146.099L204.985 146.336ZM245.246 214.61C241.819 220.597 237.421 225.632 232.104 229.421L206.334 148.638L245.246 214.61Z" fill="#155C6D"/>
<path d="M214.086 161.227C213.56 161.786 212.96 162.254 212.28 162.608C211.761 162.878 211.219 163.071 210.66 163.195L205.256 146.255L214.086 161.227L214.086 161.227Z" fill="#155C6D"/>
<path d="M204.977 146.344L210.461 163.538L210.722 163.481C211.232 163.368 211.73 163.2 212.209 162.97L212.414 162.868C213.01 162.558 213.546 162.163 214.026 161.701L214.232 162.051L214.554 160.3L214.14 160.742L205.508 146.106L204.977 146.344ZM213.72 161.182C213.253 161.651 212.728 162.044 212.143 162.348L211.769 162.528C211.472 162.658 211.166 162.761 210.856 162.843L206.326 148.646L213.72 161.182Z" fill="#155C6D"/>
<path d="M215.722 177.069C217.783 176.126 219.532 174.687 220.966 172.868L226.383 182.052C224.325 184.821 221.766 187.02 218.735 188.481L215.17 177.305C215.355 177.23 215.539 177.152 215.722 177.069Z" fill="#155C6D"/>
<path d="M220.736 172.687C219.328 174.473 217.614 175.881 215.6 176.802L215.06 177.034L214.808 177.135L214.89 177.395L218.456 188.57L218.557 188.892L218.861 188.745C221.939 187.261 224.534 185.03 226.617 182.226L226.733 182.07L226.634 181.903L221 172.352L220.736 172.687ZM226.03 182.03C224.088 184.6 221.706 186.656 218.91 188.065L215.53 177.469L215.843 177.335C217.824 176.429 219.52 175.076 220.928 173.38L226.03 182.03Z" fill="#155C6D"/>
<path d="M232.285 192.05L241.067 206.94C237.763 212.009 233.556 216.144 228.491 219.047L222.548 200.417C226.457 198.542 229.713 195.676 232.285 192.05Z" fill="#155C6D"/>
<path d="M232.046 191.881C229.501 195.47 226.281 198.302 222.421 200.153L222.192 200.264L228.322 219.482L228.637 219.301C233.746 216.372 237.986 212.204 241.312 207.101L241.411 206.948L241.319 206.792L232.537 191.901L232.307 191.512L232.046 191.881ZM240.721 206.929C237.524 211.79 233.49 215.771 228.659 218.609L222.903 200.567C226.628 198.731 229.755 196.002 232.258 192.583L240.721 206.929Z" fill="#155C6D"/>
<path d="M220.435 107.388L234.244 80.5182L233.648 68.3596L220.435 107.388Z" fill="#155C6D"/>
<path d="M233.371 68.2655L220.157 107.294L220.695 107.522L234.504 80.6514L234.54 80.5815L234.536 80.5034L233.941 68.3448L233.371 68.2655ZM233.948 80.4536L221.977 103.748L233.432 69.9123L233.948 80.4536Z" fill="#155C6D"/>
<path d="M256.972 154.007L278.213 156.522L283.66 163.013L256.972 154.007Z" fill="#155C6D"/>
<path d="M278.247 156.231L257.007 153.715L256.878 154.283L284.555 163.624L278.437 156.333L278.363 156.244L278.247 156.231ZM282.766 162.401L259.73 154.627L278.064 156.797L282.766 162.401Z" fill="#155C6D"/>
<path d="M262.382 61.0994C250.806 60.406 250.238 59.8381 249.538 48.3218C248.838 59.8381 248.27 60.406 236.688 61.0994C248.27 61.7927 248.838 62.3606 249.538 73.877C250.238 62.3606 250.806 61.7927 262.382 61.0994Z" fill="#C8DAE8"/>
<path d="M249.538 74.2151C249.71 74.2151 249.855 74.0764 249.868 73.9047C250.555 62.5865 251.024 62.1176 262.402 61.4375C262.573 61.4243 262.712 61.2856 262.712 61.1073C262.712 60.929 262.573 60.7903 262.402 60.7771C251.024 60.0904 250.555 59.6281 249.868 48.3099C249.855 48.1382 249.716 47.9995 249.538 47.9995C249.36 47.9995 249.221 48.1382 249.208 48.3099C248.521 59.6281 248.052 60.097 236.668 60.7771C236.496 60.7903 236.358 60.929 236.358 61.1073C236.358 61.2856 236.496 61.4243 236.668 61.4375C248.052 62.1242 248.521 62.5865 249.208 73.9047C249.221 74.0764 249.36 74.2151 249.538 74.2151ZM258.037 61.1007C251.684 61.7676 250.205 63.2402 249.538 69.5729C248.871 63.2402 247.392 61.7676 241.033 61.1007C247.392 60.4337 248.871 58.9546 249.538 52.6285C250.205 58.9612 251.684 60.4337 258.037 61.1007Z" fill="#155C6D"/>
</svg>
