<svg width="64" height="64" viewBox="0 0 64 64" fill="none" xmlns="http://www.w3.org/2000/svg">
<path d="M28.48 62.8719C34.929 62.8719 41.3882 61.8748 46.3198 59.8756C51.1693 57.9078 53.835 55.2775 53.8452 52.4664C53.8452 49.6779 51.2205 47.065 46.4325 45.1067C36.6412 41.1083 20.6572 41.1083 10.8044 45.1067C5.95484 47.0738 3.27886 49.7049 3.27886 52.5159C3.27886 55.3044 5.90359 57.9173 10.6916 59.8756C15.5821 61.8748 22.0311 62.8719 28.48 62.8719Z" fill="#0B4D5E"/>
<path d="M28.48 62.9811C35.2447 62.9811 41.6075 61.9119 46.3966 59.9711C51.2892 57.985 53.9887 55.3204 54 52.467C54 49.6348 51.3395 46.9877 46.5094 45.0119C36.675 40.996 20.6244 40.996 10.7284 45.0119C5.82559 47.0009 3.12508 49.6662 3.12508 52.5159C3.12508 55.3474 5.78562 57.9952 10.6157 59.9703C15.3647 61.9119 21.7081 62.9811 28.48 62.9811ZM28.6409 42.2161C35.0653 42.2161 41.4805 43.2117 46.3546 45.2021C51.0852 47.1371 53.6904 49.7172 53.6904 52.467C53.6811 55.2388 51.036 57.8363 46.2428 59.7816C41.4989 61.7042 35.1914 62.7632 28.479 62.7632C21.7666 62.7632 15.4703 61.7042 10.7684 59.7816C6.03783 57.8465 3.43265 55.2665 3.43265 52.5166C3.43265 49.7485 6.07679 47.151 10.8802 45.2021C15.7861 43.2117 22.2187 42.2161 28.6409 42.2161Z" fill="#0B4D5E"/>
<path d="M14.1317 20.2112C14.4763 20.1604 14.7211 19.8403 14.6667 19.4984C14.6123 19.1557 14.2949 18.9145 13.9503 18.9589C13.2521 19.0605 12.4904 18.7794 12.028 18.2462C11.8194 18.0158 11.6743 17.7293 11.5837 17.4264C11.6834 17.4264 11.7922 17.4264 11.8919 17.4156C12.4632 17.3593 12.962 17.1399 13.2884 16.7862C13.7509 16.3093 13.8688 15.5965 13.5877 15.0516C13.225 14.3669 12.2728 14.0858 11.5202 14.4395C11.0305 14.6698 10.6406 15.1132 10.432 15.6972C10.2416 15.5285 10.0875 15.3272 9.99678 15.0969C9.71567 14.4232 9.93329 13.5699 10.4955 13.1038C10.7675 12.8843 10.8038 12.4863 10.5862 12.217C10.3686 11.9467 9.96048 11.9132 9.68845 12.1272C8.70005 12.9351 8.32831 14.3896 8.81797 15.5684C9.09 16.2249 9.61595 16.7527 10.2416 17.0728C10.296 17.7973 10.5862 18.4992 11.0668 19.055C11.8194 19.9083 12.9982 20.3463 14.1317 20.1831V20.2112ZM12.164 15.5566C12.3 15.5403 12.4269 15.5793 12.4632 15.6355C12.4904 15.6972 12.4632 15.8377 12.3725 15.9275C12.2547 16.0508 12.0371 16.1406 11.7741 16.1633C11.7197 16.1633 11.6743 16.1687 11.6108 16.1687C11.7196 15.8831 11.8829 15.6636 12.0733 15.5793C12.1005 15.5684 12.1368 15.5566 12.164 15.5512V15.5566Z" fill="#0B4D5E"/>
<path d="M13.6565 20.3537C13.7971 20.3537 13.9386 20.3446 14.0791 20.3274C14.1018 20.341 14.1253 20.3491 14.1507 20.3464C14.3547 20.3165 14.5415 20.204 14.6631 20.039C14.7837 19.8749 14.8326 19.6763 14.8009 19.4786C14.7338 19.0588 14.3557 18.775 13.9313 18.8248C13.2866 18.9191 12.5584 18.6525 12.1304 18.1583C11.9808 17.9924 11.8602 17.7929 11.7713 17.5617C11.8175 17.5599 11.8629 17.5571 11.9055 17.5517C12.5158 17.4919 13.0417 17.2534 13.3872 16.8798C13.8832 16.3684 14.0156 15.5903 13.7082 14.9909C13.3092 14.241 12.2818 13.9327 11.4612 14.3181C10.9897 14.5394 10.6116 14.9402 10.3812 15.4588C10.2661 15.331 10.179 15.1941 10.1228 15.049C9.86434 14.4296 10.0621 13.6407 10.5816 13.21C10.9072 12.9471 10.9579 12.4628 10.6922 12.1328C10.4293 11.8072 9.94054 11.7555 9.60413 12.0212C8.56223 12.8727 8.17953 14.3861 8.69186 15.6212C8.95846 16.2632 9.46082 16.8081 10.111 17.1591C10.1826 17.8872 10.4828 18.5891 10.9625 19.144C11.6408 19.913 12.64 20.3528 13.6556 20.3528L13.6565 20.3537ZM14.1317 20.0481C14.1253 20.0481 14.1181 20.0481 14.1126 20.049C13.029 20.204 11.8973 19.7906 11.1692 18.9654C10.7122 18.4358 10.4311 17.7594 10.3776 17.0629C10.374 17.0158 10.3468 16.9732 10.3041 16.9523C9.67846 16.6313 9.19512 16.1217 8.94485 15.5169C8.47604 14.3906 8.82607 13.0096 9.77548 12.2334C9.98948 12.0647 10.3132 12.0956 10.481 12.3032C10.6524 12.5163 10.6215 12.8283 10.4102 12.9987C9.80088 13.5038 9.57056 14.4287 9.87161 15.1505C9.96501 15.3872 10.1228 15.6066 10.3432 15.7998C10.3776 15.8297 10.4284 15.8406 10.4674 15.8297C10.5118 15.8188 10.5472 15.7862 10.5617 15.7436C10.7548 15.1995 11.1157 14.7806 11.5782 14.5639C12.2737 14.2392 13.1369 14.4913 13.4679 15.1161C13.7236 15.6121 13.6094 16.2604 13.1914 16.6921C12.8894 17.0185 12.4242 17.2271 11.8792 17.2806C11.7876 17.2906 11.6897 17.2915 11.599 17.2915C11.5437 17.2915 11.5038 17.3087 11.4748 17.3459C11.4494 17.3803 11.4413 17.4248 11.4539 17.4665C11.5564 17.812 11.716 18.1058 11.9273 18.3379C12.4187 18.9055 13.2204 19.2048 13.9694 19.0941C14.2514 19.0597 14.4899 19.2465 14.5325 19.5212C14.5524 19.6464 14.5207 19.7733 14.4436 19.8776C14.3792 19.9656 14.2895 20.029 14.1879 20.0599C14.1698 20.0517 14.1507 20.0481 14.1317 20.0481ZM11.6108 16.3049C11.6462 16.3049 11.6761 16.304 11.7051 16.3021C11.7278 16.3021 11.7495 16.3003 11.7731 16.3003C12.076 16.2749 12.3253 16.1734 12.4704 16.022C12.5892 15.905 12.6419 15.7055 12.5865 15.5813C12.5058 15.4525 12.3471 15.4072 12.1893 15.4189C12.1712 15.4153 12.1549 15.4162 12.1367 15.4189C12.1014 15.4262 12.056 15.4398 12.0216 15.4543C11.7994 15.5531 11.6099 15.7889 11.4821 16.1217C11.4657 16.1634 11.4721 16.2106 11.4984 16.2468C11.5229 16.284 11.5646 16.3058 11.6099 16.3058L11.6108 16.3049ZM12.3363 15.7082C12.3317 15.7409 12.3154 15.7944 12.2773 15.8315C12.1866 15.9258 12.0234 15.9948 11.8294 16.021C11.9164 15.8642 12.0207 15.7526 12.1286 15.7046C12.1377 15.701 12.1485 15.6973 12.1603 15.6937C12.1667 15.6937 12.1739 15.6937 12.1794 15.6937C12.2564 15.6855 12.3082 15.6973 12.3363 15.7091V15.7082Z" fill="#0B4D5E"/>
<path d="M22.6284 51.8116C22.8279 50.9021 23.0092 49.9926 23.2087 49.0776C23.0818 49.667 22.6284 50.2447 21.8576 50.7053C19.9534 51.8279 16.8341 51.856 14.8845 50.7724C14.0502 50.3127 13.5605 49.7169 13.4336 49.0994C13.624 50.0089 13.8235 50.9184 14.023 51.8279C14.1409 52.3729 14.5671 52.8889 15.3016 53.2987C17.0244 54.2536 19.772 54.22 21.4405 53.2371C22.1297 52.8326 22.5196 52.3275 22.6375 51.8052H22.6284V51.8116Z" fill="#8AE5CC"/>
<path d="M18.31 54.1286C19.4725 54.1286 20.635 53.8692 21.5091 53.3551C22.201 52.9488 22.6363 52.4238 22.7696 51.8362C22.7732 51.8208 22.7741 51.8054 22.7723 51.7909C22.8711 51.3384 22.9663 50.885 23.0606 50.4316C23.1522 49.9936 23.2438 49.5538 23.3399 49.114C23.3399 49.1113 23.3417 49.1095 23.3417 49.1068C23.3581 49.0333 23.3109 48.9608 23.2384 48.9454C23.1667 48.9291 23.0924 48.9762 23.0761 49.0487C23.0761 49.0487 23.0761 49.0533 23.0743 49.0551C22.9491 49.6227 22.4921 50.1677 21.7875 50.5885C19.9268 51.6857 16.8583 51.7156 14.9504 50.6538C14.1842 50.2321 13.6945 49.6744 13.5693 49.0832C13.5693 49.0805 13.5693 49.0768 13.5675 49.0732C13.5675 49.0732 13.5675 49.0732 13.5675 49.0723C13.5521 48.998 13.4786 48.9535 13.407 48.9662C13.3336 48.9817 13.2864 49.0533 13.3019 49.1267C13.3019 49.1313 13.3037 49.1358 13.3046 49.1403C13.4941 50.0462 13.6927 50.9521 13.8903 51.858C14.0218 52.461 14.4861 53.0005 15.2351 53.4185C16.0911 53.8928 17.2001 54.1286 18.3109 54.1286H18.31ZM22.4921 51.8226C22.3642 52.3168 21.978 52.7648 21.3713 53.1202C19.7391 54.0823 17.045 54.1104 15.3666 53.18C14.6883 52.8019 14.2694 52.3241 14.1551 51.7999C14.0282 51.2223 13.903 50.6456 13.7779 50.068C14.0372 50.3754 14.3882 50.6547 14.818 50.8922C16.802 51.9949 19.9912 51.964 21.9263 50.8233C22.3089 50.5948 22.6254 50.33 22.8639 50.0435C22.8403 50.155 22.8167 50.2657 22.794 50.3763C22.6979 50.8396 22.6 51.3021 22.4984 51.7655C22.4939 51.7791 22.4912 51.7927 22.4912 51.8063C22.4912 51.8117 22.4921 51.8172 22.4921 51.8226Z" fill="#0B4D5E"/>
<path d="M11.7377 41.1064C11.7377 41.1572 11.7378 41.2134 11.7559 41.2696V41.3032C11.7559 41.3539 11.7559 41.4038 11.765 41.46C11.765 41.4999 11.7831 41.5335 11.7831 41.5725C11.7831 41.5725 11.7921 41.606 11.7921 41.6178C11.7921 41.6287 11.8012 41.6514 11.8103 41.6622C11.9735 42.4593 12.1458 43.2564 12.3181 44.0543C12.6536 45.5977 12.9528 47.6978 13.4425 49.2076C13.4425 49.2185 13.4425 49.2303 13.4516 49.2529C13.4516 49.2584 13.4607 49.2693 13.4607 49.2747C13.4607 49.2747 13.4607 49.2974 13.4697 49.3146C13.4788 49.3309 13.4878 49.359 13.4969 49.3817C13.506 49.4207 13.5332 49.4552 13.5422 49.4942C13.5422 49.4942 13.5604 49.5331 13.5604 49.5504C13.5695 49.5612 13.5785 49.5667 13.5876 49.5839V49.5948C13.6058 49.6175 13.6239 49.6456 13.6329 49.6737C13.6329 49.6737 13.633 49.6846 13.642 49.6846C13.6511 49.6964 13.6601 49.7073 13.6692 49.7245V49.7354C13.6964 49.7689 13.7145 49.797 13.7418 49.8306C13.7418 49.8369 13.7508 49.8478 13.7599 49.8532C13.769 49.8705 13.778 49.8922 13.7962 49.9094C13.8052 49.9203 13.8143 49.9321 13.8233 49.9484C13.8233 49.9484 13.8324 49.9548 13.8324 49.9602C13.8505 49.9711 13.8596 49.9938 13.8777 50.0047C13.8777 50.0101 13.8868 50.0219 13.8868 50.0273C13.914 50.05 13.9322 50.0727 13.9594 50.0944C13.9594 50.0944 13.9866 50.1344 14.0138 50.1507L14.0229 50.1679C14.0229 50.1679 14.05 50.1906 14.0682 50.2069C14.0863 50.235 14.1226 50.2577 14.1407 50.2803C14.1498 50.2858 14.1588 50.2912 14.1588 50.2966C14.177 50.3084 14.1861 50.3139 14.1861 50.3193C14.2949 50.4145 14.4309 50.5043 14.5578 50.5941H14.5669C14.6032 50.6113 14.6213 50.634 14.6485 50.6503C14.6848 50.673 14.7302 50.6956 14.7755 50.7183C14.7936 50.7346 14.8117 50.7464 14.8389 50.7627C14.8571 50.7736 14.8843 50.7854 14.9024 50.7963C14.9477 50.819 14.9931 50.8471 15.0475 50.8698C15.0747 50.8861 15.111 50.9033 15.1382 50.9142C15.1926 50.9368 15.2561 50.9649 15.3105 50.9876C15.3558 51.0039 15.4102 51.0266 15.4556 51.0438C15.5281 51.0656 15.5916 51.0937 15.6641 51.1164C15.7004 51.1282 15.7276 51.1391 15.7548 51.1554C15.7911 51.1672 15.8273 51.1781 15.8636 51.1898C15.8727 51.1898 15.8999 51.2007 15.909 51.2062C16.2173 51.3014 16.5437 51.3748 16.8702 51.431H16.8792C16.8792 51.431 16.9064 51.4311 16.9246 51.4365C17.115 51.4646 17.3235 51.4927 17.5321 51.5099H17.6409C17.6681 51.5099 17.7044 51.5099 17.7406 51.5154H17.777C17.8314 51.5154 17.8948 51.5208 17.9492 51.5208H18.2122C18.584 51.5208 18.9557 51.5036 19.3184 51.4537C19.4001 51.4419 19.4817 51.4365 19.5542 51.4193C19.5905 51.4138 19.6358 51.4084 19.6721 51.4029C19.7174 51.3975 19.7446 51.3921 19.7809 51.3857C19.79 51.3857 19.8082 51.3803 19.8172 51.3803C19.9714 51.3576 20.1164 51.3186 20.2525 51.2796H20.2706C20.325 51.2624 20.3975 51.2515 20.461 51.2288C20.7512 51.1499 21.0323 51.0438 21.2953 50.926C21.3134 50.9196 21.3316 50.9087 21.3497 50.9033C21.4313 50.8643 21.5219 50.819 21.6036 50.78C21.6126 50.7736 21.6217 50.7682 21.6308 50.7627C21.6761 50.7401 21.7305 50.7065 21.7849 50.6838C21.8121 50.673 21.8212 50.6621 21.8393 50.6449C21.8847 50.6222 21.9391 50.5832 22.0025 50.5379C22.0207 50.5324 22.0297 50.5215 22.0479 50.5161C22.0479 50.5097 22.057 50.5043 22.066 50.5043C22.0751 50.4934 22.0932 50.488 22.1023 50.4708C22.1023 50.4708 22.1114 50.4708 22.1114 50.4653C22.1295 50.4544 22.1385 50.4426 22.1567 50.4263C22.1839 50.4091 22.2111 50.3864 22.2292 50.3701C22.2383 50.3583 22.2564 50.3529 22.2746 50.3366C22.2746 50.3302 22.2836 50.3302 22.2836 50.3248C22.329 50.2858 22.3743 50.2577 22.4106 50.2187C22.4378 50.196 22.465 50.1679 22.4922 50.1452C22.4922 50.1398 22.5103 50.1343 22.5103 50.128C22.5285 50.1171 22.5375 50.1062 22.5466 50.089C22.5738 50.0663 22.601 50.0382 22.6192 50.0165C22.6373 49.9992 22.6554 49.9766 22.6736 49.9548C22.6826 49.9376 22.7008 49.9203 22.7008 49.904C22.7008 49.8986 22.7008 49.8922 22.7189 49.8922C22.7461 49.8478 22.7824 49.8088 22.8096 49.7689C22.8368 49.7245 22.864 49.6846 22.8912 49.6456C22.9093 49.612 22.9274 49.5839 22.9456 49.5504C22.9456 49.5386 22.9547 49.5331 22.9547 49.5222C22.9547 49.5222 22.9547 49.505 22.9637 49.4996C22.9728 49.4824 22.991 49.4606 22.991 49.4434C23.0182 49.3817 23.0453 49.3146 23.0635 49.2529C23.0816 49.2248 23.0816 49.1913 23.0907 49.1568V49.1351L23.1089 49.0897V49.0507L23.1814 48.7189C23.2086 48.5457 23.2448 48.3652 23.2902 48.192L23.7708 45.8951C23.8433 45.5641 23.9158 45.2386 23.9703 44.9294L24.1607 44.0263C24.333 43.212 24.5144 42.3977 24.6776 41.5897V41.4936C24.6776 41.4936 24.6957 41.4374 24.6957 41.4156C24.7048 41.3703 24.7048 41.3258 24.7138 41.2859V41.275C24.7138 41.2188 24.7229 41.1626 24.7229 41.1064C24.7229 40.1298 24.0609 39.1468 22.737 38.4232C20.1436 36.9805 15.9997 37.025 13.4697 38.5184C12.2365 39.2484 11.6199 40.1969 11.6199 41.1345L11.7377 41.1236V41.1064Z" fill="#F0F4FF"/>
<path d="M17.9494 51.6577H18.2123C18.6349 51.6577 19.0031 51.6359 19.3377 51.5888L19.4174 51.5788C19.4755 51.5715 19.5335 51.5643 19.587 51.5525L19.694 51.538C19.7339 51.5334 19.762 51.528 19.7974 51.5217L19.8092 51.382L19.8309 51.5162C19.9923 51.4935 20.1392 51.4545 20.2743 51.4156C20.2888 51.4156 20.3043 51.4128 20.3124 51.4101C20.3324 51.4038 20.3569 51.3983 20.3804 51.392C20.4221 51.382 20.4657 51.372 20.5065 51.3575C20.7712 51.2859 21.0578 51.1816 21.3516 51.0501L21.3426 50.9059L21.3906 51.0329L21.6626 50.9023C21.6681 50.8996 21.7007 50.8797 21.7062 50.8769L21.7479 50.8552C21.776 50.8397 21.8059 50.8225 21.8376 50.8098C21.8793 50.7935 21.9038 50.7726 21.922 50.7554C21.9655 50.7309 22.0163 50.6956 22.0743 50.6548C22.0843 50.6502 22.0934 50.6457 22.0961 50.643C22.1151 50.6375 22.1314 50.6276 22.1441 50.6158C22.1541 50.6094 22.1623 50.6022 22.1686 50.594C22.1722 50.5922 22.1759 50.5895 22.1786 50.5868C22.1895 50.5804 22.1976 50.5731 22.2058 50.5659C22.2194 50.5559 22.2285 50.5469 22.2366 50.5396C22.2638 50.5206 22.2974 50.4924 22.321 50.4734C22.3364 50.4625 22.35 50.4535 22.3663 50.4399C22.3726 50.4335 22.379 50.4263 22.3853 50.4199C22.3971 50.4108 22.4071 50.4018 22.4189 50.3936C22.4533 50.3673 22.4851 50.3419 22.5132 50.312L22.5812 50.2522C22.5866 50.2476 22.5912 50.2431 22.5957 50.2376C22.6184 50.2213 22.6374 50.2032 22.6528 50.1796C22.6809 50.1551 22.7072 50.127 22.7254 50.1043C22.7326 50.0989 22.7508 50.0781 22.7689 50.0563C22.7762 50.0481 22.7907 50.0282 22.7961 50.0191C22.8006 50.0128 22.807 50.0037 22.8124 49.9946C22.8224 49.9855 22.8306 49.9756 22.8369 49.9647C22.8496 49.9438 22.865 49.9239 22.8805 49.9048C22.8959 49.8858 22.9094 49.8677 22.9221 49.8486C22.9521 49.8006 22.9775 49.7634 23.0038 49.7262L23.0654 49.6183C23.0718 49.6074 23.0763 49.5957 23.079 49.5839C23.0818 49.5775 23.0836 49.5711 23.0854 49.5648C23.099 49.5439 23.1144 49.5177 23.1225 49.485C23.147 49.4279 23.1724 49.3671 23.1897 49.31C23.2078 49.2746 23.2133 49.2411 23.2178 49.2157C23.2178 49.2094 23.2241 49.1803 23.2259 49.1658L23.2359 49.1423C23.2422 49.1259 23.2459 49.1096 23.2459 49.0924V49.0534L23.3148 48.7505C23.3456 48.5556 23.3819 48.3824 23.4218 48.2291L23.9215 45.8452C23.9886 45.5405 24.0538 45.2404 24.1046 44.9556L24.2941 44.0561C24.3558 43.7623 24.4201 43.4694 24.4827 43.1756C24.5943 42.6551 24.7067 42.1355 24.811 41.6186L24.8137 41.5162C24.8264 41.4754 24.8328 41.4418 24.8328 41.4174C24.8328 41.4174 24.8373 41.3938 24.84 41.3702C24.8418 41.353 24.8437 41.3357 24.8473 41.3203C24.85 41.3094 24.8518 41.2877 24.8518 41.2768C24.8518 41.2523 24.8536 41.2278 24.8554 41.2034C24.8581 41.1716 24.8608 41.1399 24.8608 41.1081C24.8608 40.0418 24.1109 39.0207 22.8034 38.3053C20.1791 36.8472 15.9635 36.8907 13.4018 38.4023C12.1659 39.1341 11.4849 40.1043 11.4849 41.1362C11.4849 41.1743 11.5021 41.2115 11.5302 41.2369C11.5538 41.2587 11.5846 41.2714 11.6164 41.2723C11.6182 41.2786 11.62 41.284 11.6209 41.2904C11.6209 41.3711 11.6227 41.4246 11.6336 41.4845C11.6309 41.4981 11.6391 41.528 11.6445 41.5507C11.6445 41.5633 11.6508 41.5996 11.6545 41.6114C11.6581 41.6495 11.6699 41.6848 11.6844 41.713C11.8295 42.4239 11.9827 43.1339 12.136 43.8457L12.1877 44.0842C12.2938 44.5748 12.3953 45.1161 12.5041 45.6892C12.7372 46.9233 12.9765 48.1992 13.3102 49.2329C13.3121 49.252 13.3166 49.2747 13.3284 49.3028C13.3284 49.3028 13.3302 49.3073 13.3311 49.31C13.3347 49.3291 13.3411 49.3535 13.352 49.3771C13.352 49.3771 13.3728 49.4306 13.3728 49.4315C13.3756 49.4488 13.39 49.476 13.4 49.4977C13.4027 49.5068 13.4182 49.5421 13.4209 49.5503C13.4209 49.5811 13.4372 49.611 13.4562 49.6355L13.4617 49.6337C13.4671 49.6519 13.4753 49.6691 13.4844 49.6818C13.498 49.6972 13.5034 49.7099 13.5043 49.7153C13.5106 49.7353 13.5224 49.7543 13.5369 49.7716C13.5369 49.7716 13.5397 49.7743 13.5415 49.7761C13.5469 49.7933 13.5551 49.8106 13.5642 49.8223L13.5959 49.864C13.6086 49.8813 13.6213 49.8985 13.6367 49.9175C13.6367 49.9175 13.6421 49.9248 13.6449 49.9284C13.6576 49.9529 13.673 49.9819 13.7011 50.0082C13.7056 50.0164 13.711 50.0255 13.7174 50.0336C13.7282 50.0509 13.7419 50.0654 13.76 50.0762C13.7682 50.0989 13.7818 50.1189 13.8008 50.1343L13.8262 50.1579C13.8371 50.1687 13.848 50.1787 13.8598 50.1896C13.8725 50.2059 13.8897 50.2267 13.9123 50.2449C13.9205 50.2567 13.9296 50.2685 13.9359 50.2739L13.9676 50.3011C13.9867 50.3238 14.0067 50.3419 14.023 50.3564C14.0302 50.3646 14.0438 50.3782 14.0574 50.3891C14.0656 50.3982 14.0756 50.4063 14.0846 50.4127C14.0846 50.4127 14.0919 50.4199 14.0964 50.4235C14.1889 50.5042 14.2987 50.5804 14.4075 50.6566L14.48 50.7074C14.4918 50.7155 14.5045 50.7228 14.519 50.7264C14.5489 50.75 14.5634 50.7599 14.5779 50.769C14.6115 50.7899 14.655 50.8116 14.6994 50.8343C14.7194 50.8506 14.7402 50.8651 14.7702 50.8824C14.7792 50.8878 14.7965 50.8969 14.8137 50.905L14.8835 50.9422C14.918 50.9613 14.9542 50.9803 14.996 50.9975C15.0096 51.0084 15.054 51.0302 15.0893 51.0429L15.4067 51.1734C15.4521 51.187 15.4847 51.1997 15.5174 51.2115C15.5518 51.2242 15.5872 51.2369 15.6235 51.2487C15.6534 51.2587 15.6697 51.2659 15.6824 51.2732L15.8202 51.3212C15.8338 51.3258 15.8483 51.3276 15.8628 51.3276C16.1612 51.4291 16.4904 51.5062 16.8467 51.567L16.8893 51.5697C17.097 51.6015 17.3092 51.6296 17.5196 51.6468H17.6402C17.6665 51.6468 17.6927 51.6468 17.7209 51.6513H17.7771C17.8016 51.6522 17.8296 51.654 17.8568 51.655C17.8877 51.6568 17.9195 51.6577 17.9494 51.6577ZM20.248 51.1453C20.2354 51.1453 20.2226 51.1472 20.2154 51.1499C20.064 51.1934 19.9343 51.226 19.7983 51.246C19.7892 51.246 19.7647 51.2505 19.7566 51.2523C19.7185 51.2596 19.6949 51.2641 19.6568 51.2687L19.5353 51.2859C19.48 51.2986 19.4338 51.304 19.3857 51.3095L19.2995 51.3203C18.9785 51.3648 18.6222 51.3865 18.2123 51.3865H17.9494C17.9249 51.3865 17.8968 51.3856 17.8696 51.3838C17.8387 51.382 17.807 51.3811 17.7771 51.3811H17.7408C17.7172 51.3766 17.6737 51.3757 17.641 51.3757H17.5322C17.3382 51.3584 17.1333 51.3312 16.9456 51.3031C16.9311 51.2977 16.8939 51.2968 16.8803 51.2968C16.5529 51.2405 16.2374 51.1662 15.9563 51.0801C15.9535 51.0782 15.9272 51.0646 15.8955 51.0592L15.7985 51.0284C15.7894 51.0184 15.7522 51.0039 15.7078 50.9894C15.6733 50.9785 15.6434 50.9676 15.6135 50.9558C15.5745 50.9413 15.5364 50.9277 15.4956 50.9159L15.4539 50.8987C15.4212 50.886 15.3877 50.8724 15.3569 50.8615L15.1918 50.7908C15.1683 50.7808 15.1401 50.7681 15.1211 50.7563C15.0694 50.7337 15.0422 50.7182 15.0159 50.7037L14.9651 50.6765C14.9651 50.6765 14.9098 50.6475 14.9089 50.6466C14.8908 50.6366 14.879 50.6285 14.8672 50.6176C14.8581 50.6103 14.8481 50.6031 14.8382 50.5985C14.7965 50.5786 14.7557 50.5577 14.7221 50.5369C14.6877 50.5097 14.6632 50.4897 14.6269 50.4725C14.6224 50.4707 14.6178 50.4689 14.6142 50.468L14.5643 50.4335C14.4646 50.3628 14.3621 50.293 14.2778 50.2186H14.276C14.266 50.2086 14.2551 50.1977 14.2443 50.1905C14.2443 50.1905 14.2424 50.1887 14.2415 50.1878C14.2297 50.176 14.217 50.1642 14.2034 50.1515C14.1962 50.1406 14.1708 50.1152 14.1608 50.1071L14.1273 50.079C14.1146 50.0617 14.1 50.0454 14.0873 50.0373C14.0792 50.0255 14.0565 49.9983 14.0456 49.9901C14.0356 49.9819 14.0275 49.9738 14.0193 49.9656C14.0148 49.9602 14.0094 49.9556 14.0039 49.9502C13.9922 49.9248 13.9731 49.903 13.9477 49.8894C13.9504 49.8876 13.945 49.8795 13.935 49.8695C13.9223 49.8496 13.9106 49.8341 13.8997 49.8223C13.8933 49.8087 13.8797 49.7888 13.8652 49.7716C13.8607 49.7634 13.8552 49.7552 13.8489 49.748L13.8172 49.7063C13.8108 49.6972 13.8045 49.689 13.7981 49.6809C13.7963 49.6745 13.7945 49.6691 13.7917 49.6646C13.7791 49.641 13.7682 49.6246 13.7546 49.6083C13.7437 49.5829 13.731 49.5612 13.7174 49.5421C13.7155 49.5358 13.7129 49.5303 13.7111 49.5258C13.7029 49.5104 13.6938 49.4986 13.6875 49.4886C13.6829 49.475 13.6766 49.4596 13.6684 49.4415C13.6684 49.4315 13.6539 49.4025 13.643 49.3798C13.6412 49.3744 13.6267 49.3417 13.6249 49.3363C13.6086 49.2937 13.6004 49.2701 13.5913 49.2547C13.5913 49.2338 13.5886 49.223 13.5796 49.2075C13.5796 49.1939 13.5777 49.1831 13.5732 49.1695C13.2422 48.1493 13.0019 46.8744 12.7698 45.6411C12.6619 45.0662 12.5594 44.5231 12.4515 44.0289L12.3999 43.7904C12.2457 43.0722 12.0906 42.355 11.9437 41.6377C11.941 41.6223 11.9346 41.6078 11.9265 41.5951C11.9265 41.5851 11.9229 41.5715 11.9184 41.5543C11.9156 41.528 11.9102 41.5053 11.9056 41.4881C11.9056 41.4799 11.9002 41.4482 11.8984 41.44C11.8902 41.392 11.8911 41.3493 11.8911 41.3067C11.8911 41.2931 11.8884 41.246 11.8848 41.2324C11.873 41.1961 11.873 41.1544 11.873 41.11C11.873 41.0429 11.824 40.9875 11.7614 40.9767C11.8304 40.1052 12.4551 39.2801 13.5378 38.639C16.026 37.1709 20.1238 37.1301 22.6691 38.5456C23.8879 39.2121 24.5852 40.146 24.5852 41.11C24.5852 41.1344 24.5834 41.1589 24.5816 41.1834C24.5788 41.2151 24.5761 41.2469 24.5761 41.2786C24.5734 41.284 24.5698 41.3131 24.5671 41.343C24.5653 41.3593 24.5634 41.3765 24.5598 41.3929C24.5553 41.4264 24.5462 41.4527 24.5453 41.4545C24.5408 41.4681 24.5381 41.4827 24.5381 41.4972V41.5933C24.4374 42.0829 24.3259 42.6007 24.2143 43.1203C24.1509 43.4141 24.0874 43.7079 24.0257 44.0017L23.8353 44.9049C23.7836 45.1905 23.7192 45.487 23.653 45.7881L23.6349 45.8697L23.1552 48.1675C23.1135 48.3225 23.0754 48.5048 23.0446 48.7007L22.963 49.0842C22.9557 49.1014 22.9512 49.1196 22.9512 49.1386L22.9467 49.1695C22.9403 49.1794 22.934 49.2066 22.9303 49.2175C22.9131 49.2746 22.8877 49.3363 22.8632 49.3934C22.8605 49.3998 22.8578 49.4061 22.8559 49.4125C22.8559 49.4143 22.8532 49.417 22.8523 49.4188C22.8333 49.4406 22.8224 49.4678 22.8179 49.4977L22.7689 49.582C22.7481 49.6111 22.719 49.6537 22.69 49.7008L22.6628 49.7371C22.6456 49.7579 22.6302 49.7788 22.6147 49.8015C22.5948 49.8187 22.5794 49.8405 22.5694 49.8631C22.5631 49.8731 22.5504 49.8931 22.5495 49.8958C22.5495 49.8958 22.5323 49.9103 22.5214 49.9221C22.4978 49.9493 22.4769 49.9701 22.457 49.9874C22.4443 49.9982 22.4334 50.011 22.4252 50.0255C22.4171 50.0309 22.4098 50.0373 22.4035 50.0445C22.3863 50.0581 22.3708 50.0726 22.3545 50.0871L22.32 50.1179C22.291 50.1488 22.2702 50.1633 22.2502 50.1787C22.2312 50.1932 22.2113 50.2077 22.1931 50.224C22.1868 50.2295 22.1804 50.2358 22.175 50.2422C22.1568 50.2549 22.1269 50.2803 22.1187 50.292C22.1215 50.2866 22.1042 50.3002 22.0807 50.3147C22.0734 50.3193 22.0526 50.3383 22.0462 50.3446C22.039 50.3483 22.0317 50.3537 22.0263 50.3591C22.0145 50.3664 22.0054 50.3755 21.9963 50.3854C21.9836 50.3918 21.9728 50.3991 21.9619 50.4081C21.9583 50.4099 21.9546 50.4118 21.9528 50.4127C21.9392 50.4172 21.9329 50.4217 21.922 50.4299C21.8658 50.4698 21.8168 50.5051 21.7769 50.5242C21.7642 50.5305 21.7533 50.5387 21.7433 50.5487C21.6916 50.5759 21.6518 50.5976 21.6146 50.6176L21.5683 50.6421C21.5629 50.6448 21.5293 50.6656 21.5239 50.6693L21.289 50.7817L21.2972 50.9259L21.25 50.798C20.958 50.9286 20.6842 51.0275 20.424 51.0991C20.3823 51.1127 20.3487 51.1208 20.317 51.1281C20.2925 51.1344 20.268 51.1399 20.2462 51.1462L20.248 51.1453ZM22.5685 49.8758C22.5658 49.8849 22.564 49.8949 22.564 49.904C22.564 49.8931 22.5658 49.884 22.5685 49.8758ZM13.8262 49.7335C13.8389 49.7407 13.848 49.7498 13.8561 49.7607C13.8452 49.7489 13.8353 49.7389 13.8262 49.7335ZM23.0908 49.5231C23.0908 49.5231 23.0908 49.5313 23.0908 49.5349C23.0908 49.5313 23.0908 49.5267 23.0908 49.5231ZM11.9165 41.5779C11.9165 41.5779 11.9192 41.5806 11.9201 41.5824C11.9201 41.5806 11.9174 41.5797 11.9165 41.5779Z" fill="#0B4D5E"/>
<path d="M38.4243 58.3196C38.6147 57.4101 38.8051 56.5006 39.0046 55.5857C38.8777 56.1751 38.4243 56.7536 37.6445 57.2143C35.7493 58.3369 32.63 58.365 30.6804 57.2814C29.8371 56.8207 29.3565 56.2259 29.2295 55.6084C29.42 56.5179 29.6194 57.4274 29.8189 58.3369C29.9368 58.8819 30.363 59.3978 31.0975 59.8077C32.8113 60.7625 35.5588 60.7281 37.2364 59.746C37.9165 59.3416 38.3155 58.8365 38.4334 58.3142H38.4243V58.3196Z" fill="#8AE5CC"/>
<path d="M34.0981 60.6366C35.2606 60.6366 36.4258 60.3782 37.3054 59.864C38 59.4505 38.4353 58.9255 38.5659 58.3442C38.5695 58.3288 38.5704 58.3125 38.5677 58.2971C38.7545 57.4066 38.9413 56.5162 39.1371 55.6194C39.1371 55.6194 39.1371 55.6166 39.1371 55.6157C39.1535 55.5414 39.1063 55.4698 39.0338 55.4534C38.963 55.4371 38.8878 55.4842 38.8715 55.5568C38.8715 55.5595 38.8715 55.5622 38.8697 55.565C38.7427 56.1344 38.2839 56.6785 37.5748 57.0974C35.7204 58.1955 32.6555 58.2255 30.7458 57.1627C29.9805 56.7456 29.4917 56.1879 29.3648 55.5931C29.3648 55.5894 29.3647 55.5858 29.3629 55.5822C29.3475 55.5078 29.2732 55.4598 29.2024 55.4761C29.129 55.4915 29.0819 55.5631 29.0973 55.6366V55.6384C29.0973 55.6384 29.0991 55.6457 29.1 55.6493C29.2895 56.5552 29.4881 57.4611 29.6858 58.366C29.8172 58.969 30.2824 59.5086 31.0305 59.9266C31.8811 60.4008 32.9882 60.6366 34.0981 60.6366ZM38.2893 58.3307C38.1624 58.8194 37.7761 59.2673 37.1676 59.6292C35.5236 60.5913 32.8305 60.6176 31.1638 59.689C30.4846 59.3109 30.0657 58.833 29.9514 58.308C29.8254 57.734 29.7003 57.1609 29.5769 56.5878C29.8336 56.8898 30.1817 57.1645 30.6152 57.4012C32.5992 58.5039 35.7857 58.4739 37.7144 57.3314C38.0998 57.1047 38.4172 56.8399 38.6575 56.5533C38.5351 57.1282 38.4144 57.7023 38.2947 58.2763C38.2911 58.288 38.2884 58.3007 38.2884 58.3143C38.2884 58.3198 38.2884 58.3252 38.2902 58.3307H38.2893Z" fill="#0B4D5E"/>
<path d="M27.5427 47.6144V47.8112C27.5427 47.862 27.5518 47.9118 27.5699 47.9681C27.5699 48.008 27.579 48.0415 27.5881 48.0805V48.1259C27.5881 48.1367 27.5971 48.1539 27.6062 48.1703C27.7785 48.9673 27.9417 49.7653 28.1231 50.5624C28.4495 52.1057 28.7487 54.2113 29.2384 55.7156C29.2384 55.7274 29.2384 55.7437 29.2475 55.761C29.2475 55.7664 29.2566 55.7773 29.2566 55.7836C29.2566 55.7836 29.2566 55.8054 29.2656 55.8226C29.2747 55.8389 29.2837 55.8671 29.2928 55.8897C29.3019 55.9287 29.3291 55.9632 29.3382 56.0022C29.3382 56.0022 29.3563 56.0412 29.3654 56.0584C29.3654 56.0693 29.3744 56.0747 29.3835 56.0865C29.3835 56.0865 29.3926 56.0919 29.3926 56.0974C29.4017 56.1201 29.4198 56.1482 29.4379 56.1763V56.1872C29.447 56.1989 29.456 56.2098 29.4651 56.2271V56.2379C29.4923 56.2715 29.5104 56.2996 29.5286 56.3332C29.5286 56.3386 29.5467 56.3504 29.5558 56.3558C29.5649 56.3731 29.5739 56.3948 29.6011 56.4121C29.6011 56.4229 29.6193 56.4347 29.6193 56.451L29.6284 56.4628C29.6284 56.4628 29.6556 56.4964 29.6737 56.5072C29.6737 56.5127 29.6827 56.5245 29.6918 56.5299C29.7099 56.5526 29.7281 56.5743 29.7553 56.597C29.7553 56.597 29.7825 56.6369 29.8006 56.6532L29.8278 56.6705C29.8278 56.6705 29.8459 56.6923 29.8641 56.7095C29.8822 56.7322 29.9185 56.7603 29.9457 56.7829C29.9457 56.7884 29.9548 56.7938 29.9548 56.7993C29.9729 56.811 29.982 56.8165 29.991 56.8219C30.0908 56.9171 30.2268 57.0069 30.3629 57.0967C30.3901 57.1139 30.4263 57.1366 30.4444 57.1529C30.4807 57.1756 30.5261 57.1982 30.5714 57.22C30.5895 57.2372 30.6077 57.2481 30.6349 57.2653C30.653 57.2762 30.6802 57.2934 30.6984 57.2989C30.7437 57.3216 30.7981 57.3497 30.8434 57.3723C30.8706 57.3887 30.9069 57.4059 30.9341 57.4168C30.9885 57.4394 31.052 57.4675 31.1064 57.4902C31.1517 57.5065 31.1971 57.5292 31.2515 57.5464C31.324 57.5682 31.3966 57.5963 31.46 57.619C31.4963 57.6299 31.5235 57.6416 31.5598 57.658C31.587 57.6698 31.6233 57.6806 31.6596 57.6861C31.6777 57.6861 31.6958 57.6979 31.7049 57.7033C32.0223 57.7985 32.3396 57.872 32.6661 57.9282H32.6751C32.6751 57.9282 32.7023 57.9282 32.7205 57.9336C32.92 57.9617 33.1285 57.9899 33.3371 58.0062H33.4368C33.4731 58.0062 33.5003 58.0062 33.5366 58.0116H33.5729C33.6363 58.0116 33.6907 58.018 33.7451 58.018H34.0081C34.3799 58.018 34.7517 58.0007 35.1144 57.9499C35.196 57.9391 35.2776 57.9336 35.3502 57.9164C35.3864 57.911 35.4317 57.9055 35.468 57.9001C35.5133 57.8937 35.5497 57.8883 35.5769 57.8828C35.595 57.8828 35.6041 57.8774 35.6222 57.8774C35.7673 57.8547 35.9123 57.8158 36.0574 57.7759H36.0665C36.13 57.7595 36.1934 57.7423 36.266 57.726C36.5471 57.6471 36.8282 57.5401 37.0912 57.4222C37.1093 57.4168 37.1275 57.4059 37.1456 57.4004C37.2363 57.3605 37.3178 57.3161 37.3995 57.2762C37.4085 57.2708 37.4176 57.2653 37.4267 57.2599C37.472 57.2372 37.5355 57.2037 37.5808 57.181C37.599 57.1701 37.6262 57.1583 37.6352 57.142C37.6806 57.1193 37.735 57.0803 37.7984 57.035C37.8166 57.0296 37.8348 57.0187 37.8438 57.0123C37.8438 57.0069 37.8529 57.0015 37.8619 57.0015C37.8801 56.9906 37.8892 56.9842 37.8982 56.9679C37.8982 56.9679 37.9073 56.9679 37.9073 56.9625C37.9254 56.9507 37.9345 56.9398 37.9526 56.9226C37.9798 56.9062 38.007 56.8836 38.0251 56.8663C38.0433 56.8554 38.0615 56.85 38.0705 56.8328C38.0705 56.8274 38.0795 56.8274 38.0795 56.8219C38.1249 56.7829 38.1702 56.7548 38.2065 56.7149C38.2337 56.6922 38.27 56.665 38.2881 56.6424C38.2972 56.6369 38.3063 56.6306 38.3153 56.6251C38.3244 56.6143 38.3335 56.597 38.3425 56.5861C38.3698 56.5635 38.3969 56.5354 38.4151 56.5127C38.4332 56.4964 38.4514 56.4737 38.4695 56.451C38.4786 56.4347 38.4967 56.4175 38.5058 56.4011C38.5058 56.3948 38.5058 56.3894 38.5148 56.3894C38.5511 56.3449 38.5783 56.305 38.6055 56.2661C38.6418 56.2207 38.6599 56.1872 38.6871 56.1427C38.7053 56.1092 38.7234 56.0811 38.7415 56.0475C38.7415 56.0357 38.7506 56.0303 38.7596 56.0131V55.9913C38.7778 55.9741 38.7778 55.9514 38.7869 55.9351C38.8231 55.8734 38.8504 55.8054 38.8594 55.7438C38.8776 55.7102 38.8775 55.6821 38.8866 55.6485V55.6259C38.8866 55.6259 38.8957 55.6032 38.9048 55.5814V55.5415L38.9773 55.2106C39.0136 55.0364 39.0408 54.8569 39.0861 54.6828L39.5667 52.3868C39.6392 52.0558 39.7118 51.7294 39.7752 51.4211L39.9566 50.517C40.138 49.6973 40.3102 48.8894 40.4735 48.0805V47.9853C40.4735 47.9853 40.4916 47.9291 40.4916 47.901C40.4916 47.8565 40.5098 47.8166 40.5098 47.7722V47.7604C40.5098 47.7042 40.5188 47.648 40.5188 47.5927C40.5188 46.6151 39.8478 45.6331 38.5329 44.9086C35.9395 43.4659 31.7956 43.5103 29.2747 45.0038C28.0324 45.7337 27.4158 46.6831 27.4158 47.6199L27.5336 47.609L27.5427 47.6144Z" fill="#F0F4FF"/>
<path d="M33.7445 58.1549H34.0083C34.4318 58.1549 34.7999 58.1322 35.1327 58.0851L35.2044 58.0769C35.2651 58.0696 35.3259 58.0624 35.3812 58.0497L35.4882 58.0352C35.5344 58.0288 35.5743 58.0234 35.6042 58.017C35.6106 58.017 35.6351 58.0143 35.6423 58.0134C35.7856 57.9907 35.9252 57.9545 36.0794 57.9128C36.0866 57.9128 36.0939 57.9109 36.0984 57.91L36.1465 57.8973C36.1937 57.8847 36.2408 57.8728 36.2943 57.8602C36.5672 57.784 36.8511 57.6788 37.1449 57.5473L37.1358 57.404L37.1839 57.5319C37.2609 57.4993 37.3199 57.4693 37.3779 57.4394L37.4568 57.3995C37.4623 57.3968 37.494 57.3777 37.4994 57.375L37.64 57.3034C37.6672 57.288 37.6953 57.2726 37.7179 57.2517C37.7597 57.2281 37.8077 57.1955 37.8612 57.1574C37.883 57.1474 37.9038 57.1365 37.9183 57.1257C37.9229 57.1238 37.9274 57.1211 37.932 57.1184C37.9519 57.1057 37.9718 57.0921 37.99 57.0703C38.0054 57.0595 38.0163 57.0495 38.029 57.0368C38.0553 57.0187 38.0897 56.9905 38.1142 56.9688C38.1215 56.9688 38.1514 56.9525 38.1759 56.918L38.2094 56.8917C38.2439 56.8645 38.2766 56.8382 38.3047 56.8074C38.331 56.7874 38.3563 56.7666 38.3745 56.7485C38.3908 56.7367 38.4125 56.7203 38.4189 56.7122C38.4261 56.7031 38.4334 56.6922 38.4398 56.6804C38.4588 56.665 38.4941 56.6297 38.5186 56.5988C38.5259 56.5943 38.5486 56.5671 38.5721 56.5399C38.593 56.51 38.6057 56.4936 38.6139 56.4819L38.6175 56.4782C38.6492 56.4392 38.6737 56.403 38.6991 56.3685C38.7426 56.3123 38.7617 56.2787 38.7852 56.2415L38.8034 56.2116L38.8587 56.1164C38.8623 56.1101 38.8659 56.1037 38.8677 56.0974C38.8714 56.0919 38.875 56.0847 38.8795 56.0783C38.8859 56.0656 38.8904 56.0529 38.8932 56.0393C38.9013 56.0221 38.9059 56.0076 38.9095 55.9985C38.9349 55.955 38.9729 55.877 38.9902 55.7891C39.0038 55.7573 39.0092 55.7301 39.0119 55.7093C39.0137 55.7011 39.0219 55.6612 39.0219 55.653L39.0301 55.6376C39.0373 55.6213 39.0409 55.6041 39.0409 55.5859V55.546L39.1099 55.2441C39.1235 55.1815 39.1344 55.1199 39.1461 55.0582C39.167 54.9448 39.1887 54.8324 39.2178 54.7209L39.7337 52.2571C39.7945 51.9815 39.8543 51.7104 39.9069 51.4519L40.0892 50.5469C40.2778 49.6946 40.4474 48.8966 40.6052 48.1104L40.6079 48.0089C40.6169 47.9789 40.6269 47.9381 40.6269 47.9036C40.6269 47.8964 40.6296 47.8828 40.6323 47.8683C40.6387 47.8429 40.646 47.8121 40.646 47.774C40.646 47.7377 40.6478 47.7132 40.6496 47.6887C40.6523 47.657 40.655 47.6262 40.655 47.5945C40.655 46.5335 39.9051 45.5116 38.5976 44.7916C35.9742 43.3308 31.7595 43.3752 29.205 44.8886C27.9637 45.6177 27.2791 46.5888 27.2791 47.6217C27.2791 47.6597 27.2963 47.6969 27.3235 47.7223C27.3461 47.7432 27.3761 47.7559 27.406 47.7577V47.7794C27.406 47.8692 27.416 47.93 27.4341 47.9934C27.4368 48.037 27.4459 48.0741 27.4541 48.1095L27.4514 48.1276C27.4514 48.1621 27.4631 48.1911 27.4758 48.2183L27.6327 48.9519C27.7487 49.4996 27.8658 50.0473 27.99 50.5941C28.0879 51.0575 28.184 51.5743 28.2829 52.1102C28.5069 53.3181 28.7607 54.6855 29.1017 55.741C29.1035 55.7609 29.108 55.7882 29.1216 55.8172C29.1244 55.8362 29.1307 55.8616 29.1425 55.8861C29.1425 55.8879 29.1652 55.9432 29.1661 55.945C29.1661 55.9568 29.1806 55.9849 29.1914 56.0076C29.1932 56.0167 29.2087 56.0511 29.2114 56.0602L29.2404 56.1219C29.2495 56.1409 29.2604 56.1599 29.2722 56.1717C29.2822 56.1908 29.293 56.2098 29.3057 56.2298C29.3112 56.2479 29.3193 56.2642 29.3293 56.276H29.3311C29.3366 56.2941 29.3447 56.3123 29.3547 56.325C29.3737 56.3485 29.3873 56.3694 29.4009 56.3921C29.4127 56.4175 29.4308 56.4365 29.4481 56.451C29.4571 56.4664 29.469 56.4827 29.4871 56.4991C29.4925 56.5136 29.5007 56.5281 29.5107 56.5399C29.5279 56.5607 29.5487 56.5861 29.5732 56.6061C29.5759 56.6097 29.5787 56.6133 29.5823 56.617C29.6031 56.6423 29.6231 56.6659 29.6503 56.6895C29.6639 56.7086 29.6839 56.7348 29.7047 56.7539C29.7083 56.7566 29.7219 56.7666 29.7337 56.7747C29.7428 56.7847 29.7546 56.7983 29.7673 56.8101C29.7772 56.8246 29.8072 56.8491 29.8353 56.8727C29.8462 56.889 29.8598 56.9035 29.877 56.9144L29.9169 56.9389C30.004 57.0268 30.1527 57.1247 30.2832 57.2109C30.3095 57.2272 30.3349 57.2417 30.3476 57.2535C30.402 57.2898 30.4465 57.3134 30.4909 57.3351C30.5072 57.3487 30.5244 57.3596 30.5453 57.3732C30.597 57.4041 30.6251 57.4213 30.6568 57.4294L30.7792 57.4947C30.8001 57.5083 30.8445 57.5301 30.879 57.5437L31.1084 57.6398C31.1383 57.6525 31.1701 57.6652 31.2045 57.677C31.2589 57.6933 31.3106 57.7124 31.3587 57.7296L31.4104 57.7486C31.4466 57.7595 31.4693 57.7704 31.501 57.784C31.54 57.8021 31.5899 57.8157 31.6352 57.8221C31.9807 57.9309 32.2999 58.0052 32.6381 58.0642L32.6808 58.0669C32.8993 58.0986 33.1106 58.1268 33.3219 58.1431H33.4316C33.4561 58.1449 33.4824 58.1431 33.5123 58.1476H33.5685C33.5984 58.1485 33.6265 58.1503 33.6537 58.1521C33.6837 58.1539 33.7118 58.1549 33.7408 58.1549H33.7445ZM36.045 57.6416C36.0368 57.6416 36.0277 57.6434 36.0223 57.6452C35.8717 57.6861 35.7366 57.7223 35.6015 57.7432C35.5925 57.7432 35.5589 57.7477 35.5489 57.7495C35.5245 57.755 35.4918 57.7595 35.4501 57.7658L35.3313 57.7822C35.2742 57.7949 35.2252 57.8003 35.1744 57.8057L35.0964 57.8157C34.7754 57.8601 34.42 57.8828 34.0092 57.8828H33.7453C33.7227 57.8828 33.6982 57.8819 33.6746 57.8801C33.6429 57.8783 33.6102 57.8765 33.5739 57.8765H33.5377C33.5141 57.8719 33.4815 57.871 33.4379 57.871H33.3391C33.1432 57.8547 32.9383 57.8275 32.7415 57.7994C32.7279 57.794 32.6908 57.793 32.6772 57.793C32.3634 57.7386 32.0542 57.6661 31.7459 57.5736C31.754 57.5736 31.7141 57.5509 31.6606 57.5509C31.6543 57.5491 31.6307 57.5401 31.6171 57.5346C31.5745 57.5156 31.5427 57.502 31.501 57.4893L31.4575 57.4739C31.404 57.4548 31.3478 57.434 31.2906 57.4176C31.2662 57.4095 31.2417 57.3995 31.219 57.3895C31.1964 57.3805 31.1746 57.3714 31.1528 57.3632L30.986 57.2925C30.9651 57.2834 30.9361 57.2707 30.9162 57.258L30.7176 57.1574C30.6849 57.1375 30.674 57.1311 30.6641 57.122C30.6532 57.113 30.6423 57.1048 30.6305 57.0994C30.5897 57.0803 30.5489 57.0604 30.5162 57.0395C30.5162 57.0359 30.4728 57.0078 30.4392 56.986C30.3159 56.9053 30.1781 56.8146 30.0847 56.7249L30.0565 56.7058C30.0502 56.6958 30.0411 56.6868 30.033 56.6795C30.0039 56.6559 29.9822 56.6405 29.9722 56.6269C29.9468 56.6006 29.935 56.5879 29.9341 56.5861C29.9241 56.5752 29.9142 56.5653 29.9015 56.5571C29.8833 56.5444 29.8679 56.5218 29.8679 56.5218C29.8607 56.5109 29.8525 56.5018 29.8435 56.4936C29.8244 56.4773 29.8117 56.4619 29.799 56.4465C29.7963 56.4438 29.7936 56.441 29.7899 56.4374C29.7791 56.4193 29.7637 56.4039 29.7446 56.3921C29.7392 56.3794 29.7328 56.3694 29.7283 56.3613C29.7165 56.3359 29.6983 56.3132 29.6729 56.2978C29.663 56.2787 29.653 56.2606 29.6367 56.2479C29.6231 56.2252 29.6095 56.2035 29.5922 56.1808C29.5904 56.1754 29.5886 56.1708 29.5868 56.1663C29.5787 56.1518 29.5714 56.14 29.5641 56.1291C29.5614 56.12 29.5578 56.111 29.5533 56.1046C29.5388 56.0838 29.5252 56.062 29.5179 56.0448C29.5098 56.0285 29.4997 56.013 29.4889 55.9994V55.9985L29.4653 55.9477C29.4653 55.9387 29.4517 55.9097 29.4408 55.8879C29.439 55.8797 29.4245 55.8462 29.4218 55.838C29.4046 55.7945 29.3973 55.7745 29.3891 55.76C29.3891 55.741 29.3873 55.7319 29.3792 55.7165C29.3774 55.7093 29.3737 55.7029 29.3701 55.6966C29.0319 54.6347 28.7889 53.3272 28.5549 52.0622C28.4561 51.5236 28.359 51.0049 28.2602 50.537C28.135 49.9893 28.019 49.4425 27.9029 48.8966L27.7424 48.144C27.7397 48.1313 27.7352 48.1195 27.7288 48.1077V48.105V48.0823C27.7288 48.0714 27.7252 48.0542 27.7224 48.0433C27.7143 48.0089 27.7098 47.9898 27.7098 47.9699C27.7098 47.9554 27.7071 47.9408 27.7025 47.9272C27.688 47.8837 27.6825 47.8493 27.6825 47.813V47.6162C27.6825 47.5682 27.6572 47.5237 27.6163 47.5002L27.6073 47.4947C27.5928 47.4856 27.5774 47.4802 27.5602 47.4766C27.6227 46.597 28.252 45.7664 29.3474 45.1226C31.8284 43.6527 35.9216 43.61 38.4706 45.0282C39.6893 45.6993 40.3866 46.6342 40.3866 47.5935C40.3866 47.6171 40.3848 47.6416 40.383 47.6661C40.3803 47.6978 40.3775 47.7296 40.3775 47.7613C40.3775 47.7803 40.3748 47.7939 40.3712 47.8085C40.3658 47.8338 40.3585 47.8647 40.3585 47.9019C40.3585 47.9046 40.3521 47.9272 40.3467 47.9436C40.3422 47.9572 40.3394 47.9717 40.3394 47.9862V48.0814C40.1844 48.8386 40.0157 49.6347 39.8271 50.4889L39.6449 51.3957C39.5923 51.6523 39.5324 51.9216 39.4726 52.1964L39.4372 52.3587L38.9575 54.6565C38.9285 54.7671 38.9059 54.8859 38.8832 55.0047C38.8714 55.0645 38.8614 55.1244 38.8487 55.1842L38.7653 55.5732C38.7581 55.5905 38.7535 55.6086 38.7535 55.6276L38.7499 55.6558C38.7417 55.6694 38.7308 55.7111 38.729 55.7265C38.7227 55.7673 38.7036 55.819 38.6737 55.868C38.6683 55.877 38.6564 55.906 38.6537 55.9151C38.6302 55.9378 38.6283 55.9523 38.6274 55.9804C38.6274 55.9822 38.6275 55.984 38.6257 55.9858L38.5721 56.0783C38.5422 56.1282 38.5277 56.1527 38.5032 56.1835C38.5014 56.1853 38.4842 56.2098 38.4833 56.2116C38.4633 56.2415 38.4416 56.2715 38.4144 56.305C38.4053 56.3159 38.3971 56.3268 38.3908 56.3395C38.3853 56.3449 38.359 56.3821 38.3554 56.3893C38.3554 56.3875 38.3473 56.3984 38.3282 56.4157C38.3028 56.4456 38.282 56.4664 38.2611 56.4846C38.252 56.4918 38.2357 56.5136 38.2249 56.5281C38.2131 56.5353 38.1976 56.548 38.1885 56.5589C38.1786 56.5698 38.1623 56.5825 38.1469 56.5952C38.1414 56.5997 38.1151 56.6224 38.1097 56.6278C38.0924 56.6469 38.0725 56.6614 38.0526 56.6768C38.0335 56.6913 38.0154 56.7058 37.9963 56.7212C37.9882 56.7276 37.9818 56.7357 37.9764 56.743L37.9736 56.7457C37.9609 56.753 37.9446 56.7639 37.9401 56.7675C37.9265 56.7802 37.9066 56.7974 37.8866 56.8092C37.8785 56.8137 37.8549 56.8346 37.8476 56.8418C37.8431 56.8446 37.8377 56.8491 37.8331 56.8536C37.8195 56.8618 37.8086 56.8718 37.7986 56.8836C37.785 56.8899 37.7733 56.8981 37.7624 56.9071C37.7488 56.9117 37.7361 56.9189 37.7252 56.9262C37.6653 56.9688 37.6191 57.0023 37.5801 57.0223C37.5575 57.0341 37.5375 57.0522 37.5239 57.0749L37.3706 57.1402C37.3706 57.1402 37.3407 57.1583 37.3389 57.1592L37.261 57.1982C37.2084 57.2245 37.1539 57.2526 37.0959 57.278L37.1032 57.4222L37.0569 57.2943C36.7595 57.4267 36.4874 57.5264 36.2345 57.5972C36.1846 57.6081 36.1338 57.6217 36.0839 57.6344L36.0495 57.6434L36.045 57.6416ZM37.9591 56.7566C37.9555 56.7611 37.9528 56.7666 37.9501 56.772C37.9537 56.7657 37.9565 56.7611 37.9601 56.7566H37.9591ZM29.303 56.1953C29.2976 56.1917 29.2921 56.1872 29.2876 56.1817C29.293 56.1862 29.2985 56.1917 29.303 56.1953Z" fill="#0B4D5E"/>
<path d="M38.0434 57.2199C38.0434 57.2199 38.0162 57.2371 37.9981 57.248C38.0072 57.2425 38.0253 57.2308 38.0343 57.2253L38.0434 57.2199ZM38.252 56.2823C38.252 56.2823 38.2429 56.3104 38.2339 56.3222C38.2339 56.3222 38.252 56.2877 38.252 56.2823ZM29.6738 56.0465H29.6647C29.6647 56.0465 29.6647 56.0238 29.6557 56.0129C29.6557 56.0238 29.6738 56.0356 29.6738 56.0465Z" fill="#0B4D5E"/>
<path d="M52.1348 53.1774C52.3252 52.2679 52.5156 51.3584 52.7061 50.438C52.5882 51.0274 52.1348 51.605 51.355 52.0657C49.4598 53.1883 46.3404 53.2164 44.3909 52.1328C43.5475 51.673 43.067 51.0773 42.9309 50.4597C43.1304 51.3692 43.3299 52.2788 43.5294 53.1883C43.6473 53.7332 44.0735 54.2492 44.808 54.6591C46.5218 55.6139 49.2694 55.5804 50.9379 54.5974C51.627 54.193 52.026 53.6879 52.1439 53.1656H52.1348V53.1774Z" fill="#8AE5CC"/>
<path d="M47.8085 55.4887C48.9692 55.4887 50.1317 55.2294 51.0068 54.7143C51.705 54.3045 52.1439 53.7794 52.2762 53.1955C52.2799 53.1801 52.2808 53.1646 52.2781 53.1492C52.4631 52.2651 52.648 51.381 52.833 50.486C52.8348 50.4787 52.8366 50.4715 52.8384 50.4642C52.853 50.3908 52.8058 50.3191 52.7323 50.3046C52.6553 50.2901 52.5873 50.3373 52.5719 50.4107C52.5701 50.418 52.5683 50.4243 52.5674 50.4316C52.4468 50.9929 51.9915 51.5306 51.2842 51.9486C49.4289 53.0477 46.3659 53.0767 44.4562 52.0139C43.6791 51.5905 43.1975 51.0428 43.0633 50.4307C43.0461 50.3572 42.9717 50.3119 42.901 50.3273C42.8276 50.3436 42.7813 50.4162 42.7976 50.4896L43.3961 53.2181C43.5258 53.8193 43.9901 54.3598 44.74 54.7787C45.5924 55.2529 46.6986 55.4896 47.8076 55.4896L47.8085 55.4887ZM51.9997 53.1846C51.87 53.6751 51.481 54.1222 50.8689 54.4804C49.234 55.4434 46.5445 55.4715 44.8742 54.5411C44.1941 54.1612 43.7752 53.6842 43.6627 53.161L43.2855 51.439C43.5439 51.7428 43.893 52.0176 44.3247 52.2533C46.3123 53.3569 49.4952 53.326 51.423 52.1835C51.8093 51.9559 52.1266 51.692 52.3651 51.4064C52.2454 51.9795 52.1266 52.5507 52.0069 53.1211C52.0006 53.1356 51.997 53.151 51.997 53.1664C51.997 53.1728 51.9979 53.1791 51.9997 53.1846Z" fill="#0B4D5E"/>
<path d="M41.2355 42.4728C41.2355 42.5235 41.2356 42.5797 41.2446 42.636V42.6695C41.2446 42.7194 41.2537 42.7702 41.2718 42.8264C41.2718 42.8654 41.2809 42.8999 41.2809 42.9388C41.2809 42.9388 41.2899 42.9724 41.2899 42.9833C41.2899 42.995 41.299 43.0114 41.299 43.0286C41.4713 43.8257 41.6436 44.6227 41.8249 45.4198C42.1514 46.9641 42.4416 49.0696 42.9403 50.574C42.9403 50.5848 42.9403 50.5966 42.9493 50.6184V50.6411C42.9493 50.6411 42.9493 50.6637 42.9584 50.681C42.9675 50.6973 42.9766 50.7254 42.9856 50.7481C43.0038 50.7871 43.0128 50.8206 43.031 50.8605C43.031 50.8605 43.0491 50.8995 43.0582 50.9167C43.0582 50.9276 43.0672 50.9331 43.0763 50.9503V50.9612C43.0944 50.9838 43.1125 51.0119 43.1216 51.04C43.1216 51.04 43.1216 51.0509 43.1307 51.0509C43.1398 51.0627 43.1489 51.0736 43.1579 51.0908C43.1579 51.0908 43.1579 51.0963 43.167 51.1017C43.1851 51.1298 43.2033 51.1634 43.2305 51.1969C43.2305 51.2024 43.2395 51.2142 43.2395 51.2196C43.2576 51.2368 43.2667 51.2586 43.2849 51.2758C43.294 51.2867 43.3121 51.2985 43.3121 51.3148C43.3121 51.3148 43.3211 51.3203 43.3302 51.3266C43.3393 51.3375 43.3483 51.3547 43.3665 51.371C43.3665 51.3765 43.3755 51.3883 43.3846 51.3937C43.4028 51.4164 43.4209 51.4381 43.4481 51.4608C43.4481 51.4608 43.4844 51.5007 43.4934 51.517L43.5206 51.5343C43.5206 51.5343 43.5388 51.556 43.5569 51.5733C43.5841 51.5959 43.6113 51.624 43.6385 51.6458C43.6476 51.6521 43.6476 51.6576 43.6566 51.663C43.6566 51.6739 43.6748 51.6802 43.6839 51.6857C43.7927 51.7809 43.9196 51.8707 44.0556 51.9604H44.0647C44.0647 51.9604 44.1191 52.0003 44.1373 52.0167C44.1826 52.0448 44.2188 52.062 44.2551 52.0838C44.2914 52.101 44.3004 52.1182 44.3277 52.1291C44.3458 52.14 44.373 52.1518 44.3911 52.1627C44.4365 52.1853 44.4909 52.2134 44.5453 52.2361C44.5725 52.2524 44.5997 52.2642 44.6269 52.2805C44.6813 52.3032 44.7448 52.3313 44.7992 52.354C44.8445 52.3703 44.8989 52.393 44.9443 52.4102C45.0168 52.432 45.0894 52.4601 45.1529 52.4827C45.1891 52.4936 45.2163 52.5054 45.2526 52.5217C45.2798 52.5335 45.3161 52.5444 45.3523 52.5499C45.3705 52.5499 45.3886 52.5616 45.4067 52.5671C45.706 52.6623 46.0324 52.7357 46.3588 52.792H46.3679C46.3679 52.792 46.3952 52.7919 46.4042 52.7974C46.6128 52.8309 46.8213 52.8536 47.0299 52.8699H47.1296C47.1568 52.8699 47.2022 52.8699 47.2294 52.8754H47.2656C47.32 52.8754 47.3835 52.8817 47.4379 52.8817H47.7009C48.0727 52.8817 48.4445 52.8645 48.8162 52.8137C48.8888 52.8028 48.9704 52.7974 49.0429 52.7802C49.0792 52.7747 49.1246 52.7693 49.1699 52.7638C49.2062 52.7575 49.2424 52.752 49.2787 52.7466C49.2878 52.7466 49.2968 52.7412 49.3059 52.7412C49.46 52.7185 49.6052 52.6795 49.7412 52.6396H49.7593C49.8228 52.6233 49.8863 52.6061 49.9497 52.5898C50.249 52.5109 50.521 52.4038 50.784 52.286C50.8021 52.2805 50.8202 52.2697 50.8474 52.2642C50.92 52.2243 51.0107 52.1853 51.0832 52.14C51.1013 52.1346 51.1104 52.1291 51.1195 52.1237C51.1739 52.101 51.2283 52.0674 51.2827 52.0448C51.2917 52.0339 51.3189 52.0167 51.3371 52.0058C51.3824 51.9831 51.4278 51.9441 51.5003 51.8988C51.5094 51.8933 51.5185 51.8825 51.5366 51.8761C51.5457 51.8707 51.5457 51.8652 51.5548 51.8652C51.5638 51.8543 51.5819 51.848 51.591 51.8317C51.591 51.8317 51.6001 51.8317 51.6001 51.8262C51.6182 51.8144 51.6273 51.8036 51.6545 51.7863C51.6726 51.77 51.6998 51.7473 51.718 51.7301C51.727 51.7192 51.7542 51.7138 51.7633 51.6966C51.7633 51.6911 51.7724 51.6911 51.7724 51.6857C51.8177 51.6458 51.8631 51.6186 51.8993 51.5787C51.9356 51.556 51.9628 51.5279 51.9809 51.5061C51.99 51.5007 51.9991 51.4943 51.9991 51.4889C52.0172 51.478 52.0263 51.4662 52.0444 51.4499C52.0716 51.4272 52.0897 51.3991 52.1079 51.3765C52.1351 51.3601 52.1441 51.3375 52.1623 51.3148C52.1714 51.2985 52.1895 51.2813 52.1985 51.264C52.1985 51.2586 52.2076 51.2531 52.2076 51.2531C52.2439 51.2087 52.2711 51.1688 52.2983 51.1298C52.3255 51.0845 52.3527 51.0509 52.3799 51.0065C52.398 50.9784 52.4162 50.9448 52.4252 50.9104C52.4343 50.8995 52.4434 50.8941 52.4525 50.8768C52.4525 50.8768 52.4525 50.8605 52.4615 50.8551C52.4706 50.8378 52.4706 50.8152 52.4796 50.7989C52.5159 50.7372 52.5341 50.6692 52.5613 50.6075C52.5703 50.574 52.5794 50.5459 52.5794 50.5123V50.4896C52.5794 50.4896 52.5885 50.4615 52.5975 50.4452V50.4053L52.6701 50.0743C52.6973 49.9002 52.7426 49.7207 52.7789 49.5466L53.2685 47.2506C53.332 46.9187 53.4046 46.5932 53.4681 46.2849L53.6585 45.3808C53.8217 44.5665 54.0031 43.7531 54.1663 42.9443C54.1663 42.9334 54.1663 42.9216 54.1753 42.9053V42.8491C54.1753 42.8491 54.1935 42.7928 54.1935 42.7702C54.1935 42.7257 54.2026 42.6804 54.2116 42.6414V42.6296C54.2116 42.5734 54.2207 42.5181 54.2207 42.4619C54.2207 41.4844 53.5497 40.5023 52.2348 39.7723C49.6324 38.3297 45.4883 38.3741 42.9675 39.8675C41.7342 40.5975 41.1177 41.546 41.1177 42.4836L41.2355 42.4728Z" fill="#F0F4FF"/>
<path d="M47.4379 53.0186H47.7009C48.1235 53.0186 48.4935 52.9959 48.8344 52.9488L48.9097 52.9388C48.9659 52.9324 49.0221 52.9252 49.0747 52.9125L49.3005 52.8807C49.4827 52.8526 49.6296 52.8136 49.7638 52.7747C49.7756 52.7747 49.7865 52.7728 49.7929 52.7719L49.9842 52.7212C50.2526 52.6504 50.5165 52.5543 50.8402 52.4101C50.8538 52.4074 50.9001 52.3902 50.9127 52.3829C50.9381 52.3684 50.968 52.3548 50.997 52.3403C51.046 52.3158 51.0959 52.2904 51.1403 52.2641C51.1612 52.2569 51.1766 52.2478 51.1893 52.2406C51.2029 52.2369 51.2337 52.2215 51.2636 52.2052C51.2872 52.1925 51.3117 52.1807 51.3353 52.1698C51.3553 52.1617 51.3734 52.149 51.3879 52.1318C51.3879 52.1318 51.4015 52.1263 51.4088 52.1209C51.4278 52.1118 51.4595 52.091 51.4958 52.0656C51.5176 52.0501 51.542 52.0329 51.572 52.0139C51.5783 52.0121 51.5956 51.9976 51.6019 51.9948C51.6046 51.993 51.6082 51.9912 51.6128 51.9885C51.6318 51.9794 51.6481 51.9667 51.6617 51.9504C51.6617 51.9513 51.6672 51.9504 51.6826 51.935C51.6917 51.9286 51.6998 51.9223 51.7071 51.9159C51.7134 51.9123 51.7388 51.8933 51.7443 51.8887C51.7796 51.8579 51.7996 51.8416 51.8123 51.828C51.8177 51.828 51.8458 51.8126 51.8685 51.7817C51.8821 51.7708 51.8939 51.7609 51.9075 51.7509C51.9347 51.7291 51.9619 51.7083 51.9855 51.6838C52.0272 51.6548 52.058 51.624 52.0789 51.5995C52.0789 51.5995 52.0807 51.5985 52.0816 51.5976C52.0997 51.5849 52.1115 51.5732 52.1215 51.5632C52.1641 51.5269 52.1868 51.497 52.2031 51.4743C52.2221 51.4662 52.2457 51.4317 52.2602 51.4109C52.2629 51.4072 52.2784 51.3846 52.2802 51.38C52.2838 51.3755 52.2956 51.361 52.3038 51.3474C52.3065 51.3446 52.3083 51.3428 52.311 51.3401C52.3455 51.2975 52.3727 51.2585 52.4008 51.2204C52.4271 51.1778 52.4397 51.1597 52.4533 51.1415C52.467 51.1216 52.4806 51.1016 52.4951 51.079C52.5168 51.0445 52.5332 51.0128 52.5449 50.9819C52.5531 50.9729 52.5612 50.962 52.5694 50.9466C52.5749 50.9375 52.5794 50.9275 52.5821 50.9176C52.5948 50.894 52.5993 50.8722 52.6021 50.8577C52.6229 50.8205 52.6429 50.7698 52.6619 50.7199L52.6837 50.6619C52.7018 50.6038 52.7136 50.5639 52.7136 50.5131C52.7263 50.4923 52.7326 50.4705 52.7326 50.446V50.4061L52.8006 50.1042C52.8197 49.9799 52.8469 49.8612 52.8732 49.7433L53.3992 47.2805C53.44 47.0719 53.4826 46.8679 53.5252 46.6693L53.7899 45.4107C53.8752 44.9872 53.9641 44.5664 54.053 44.1457C54.1364 43.7531 54.2198 43.3622 54.2987 42.9723C54.3096 42.9524 54.3105 42.9297 54.3105 42.9061V42.8608C54.3205 42.8417 54.3295 42.8009 54.3295 42.771C54.3295 42.7402 54.3368 42.7039 54.344 42.6731C54.3458 42.6631 54.3476 42.6413 54.3476 42.6314C54.3476 42.6069 54.3495 42.5824 54.3513 42.5579C54.354 42.5262 54.3567 42.4953 54.3567 42.4636C54.3567 41.4036 53.6077 40.3798 52.301 39.6553C49.6695 38.1963 45.4512 38.2398 42.8977 39.7523C41.6626 40.4832 40.9816 41.4535 40.9816 42.4854C40.9816 42.5235 40.9989 42.5606 41.0261 42.586C41.0478 42.606 41.0769 42.6187 41.1059 42.6214C41.1059 42.6341 41.1086 42.6468 41.1104 42.6595C41.1104 42.7293 41.1186 42.7891 41.1367 42.8517C41.1367 42.8689 41.1394 42.8853 41.1421 42.9016C41.1421 42.9143 41.1448 42.9279 41.1448 42.9415C41.1448 42.9533 41.1467 42.9651 41.1494 42.9759C41.1494 42.9886 41.1602 43.0303 41.1639 43.0421C41.3389 43.8573 41.5121 44.6544 41.6925 45.4524C41.7914 45.9203 41.8875 46.4408 41.9872 46.9821C42.2194 48.2444 42.4597 49.5501 42.8061 50.6011C42.8061 50.6147 42.8088 50.6283 42.8142 50.6446C42.8142 50.6773 42.8206 50.7117 42.8369 50.7453C42.8433 50.7571 42.8478 50.7698 42.8532 50.7834C42.8723 50.8269 42.8768 50.8423 42.8831 50.8586C42.8904 50.8777 42.8976 50.8976 42.9067 50.9185L42.9367 50.981C42.9412 50.9901 42.9448 50.9983 42.9493 51.0055C42.9539 51.0218 42.9611 51.0363 42.9693 51.0472C42.9829 51.0645 42.9902 51.079 42.9929 51.0862C43.0001 51.1044 43.0101 51.1207 43.0219 51.1352C43.0264 51.1397 43.031 51.1443 43.0355 51.1488C43.0409 51.1606 43.0473 51.1715 43.0545 51.1814C43.0745 51.2159 43.0917 51.2413 43.1108 51.2667C43.118 51.2857 43.1298 51.3048 43.1443 51.3193C43.157 51.3383 43.1697 51.3573 43.1888 51.3755C43.2005 51.3991 43.2178 51.4199 43.2423 51.4335C43.2423 51.4335 43.2504 51.4498 43.2686 51.468C43.2722 51.4716 43.2749 51.4761 43.2785 51.4807C43.2985 51.507 43.3229 51.5351 43.3574 51.5641C43.3574 51.5659 43.3719 51.5804 43.3774 51.5904C43.3882 51.6058 43.4055 51.6249 43.4209 51.6339V51.6321C43.4209 51.6321 43.4436 51.6539 43.4626 51.672L43.5043 51.7101C43.5197 51.7237 43.5333 51.7373 43.5487 51.7491C43.5632 51.77 43.5859 51.7899 43.6195 51.8062C43.7174 51.8978 43.8589 51.9948 43.9804 52.0755C43.9894 52.0819 43.9994 52.0864 44.0094 52.09C44.0239 52.1009 44.0393 52.1127 44.0475 52.1209C44.0946 52.1517 44.1191 52.1653 44.1417 52.178L44.1853 52.2025C44.2252 52.2288 44.2442 52.2442 44.2751 52.2569C44.2787 52.2587 44.3277 52.285 44.3313 52.2868C44.4011 52.3213 44.4473 52.3439 44.4936 52.363L44.5553 52.3983L44.8962 52.5398C44.9633 52.5597 45.0214 52.5815 45.0731 52.6006L45.1057 52.6124C45.1447 52.6241 45.1664 52.6341 45.1972 52.6477C45.2426 52.6668 45.2898 52.6794 45.3333 52.6858C45.3378 52.6876 45.3623 52.6976 45.3678 52.6985C45.6489 52.7883 45.9744 52.8653 46.3353 52.927L46.3679 52.7928L46.3716 52.9288C46.3716 52.9288 46.3571 52.927 46.3407 52.9179C46.3543 52.9252 46.3679 52.9297 46.3824 52.9324C46.5774 52.9642 46.7851 52.9887 47.019 53.0068H47.1296C47.1478 53.0068 47.1822 53.0068 47.2021 53.0095L47.2647 53.0122C47.2892 53.0122 47.3173 53.0141 47.3446 53.015C47.3763 53.0168 47.408 53.0186 47.4379 53.0186ZM49.2515 52.6141L49.023 52.6459C48.9677 52.6586 48.9224 52.664 48.877 52.6686L48.7954 52.6795C48.4698 52.7239 48.1108 52.7465 47.7009 52.7465H47.4379C47.4134 52.7465 47.3862 52.7447 47.3599 52.7438C47.3273 52.742 47.2956 52.7402 47.2656 52.7402H47.2294C47.2221 52.7366 47.165 52.7347 47.1305 52.7347H47.0308C46.8204 52.7175 46.6228 52.6949 46.4396 52.6658C46.4224 52.6613 46.3997 52.6568 46.3689 52.6568C46.0343 52.5987 45.7196 52.5244 45.4493 52.4382C45.424 52.4274 45.3931 52.4147 45.3542 52.4147C45.3523 52.4128 45.327 52.4056 45.3061 52.3974C45.2671 52.3793 45.2344 52.3657 45.1918 52.353L45.1682 52.3439C45.1111 52.3231 45.0477 52.2995 44.9851 52.2805L44.6795 52.1553C44.6795 52.1553 44.665 52.1462 44.6487 52.1372L44.6169 52.1191C44.5598 52.0937 44.519 52.0737 44.4827 52.0556C44.4528 52.0393 44.4347 52.0311 44.4184 52.022C44.4156 52.0211 44.3848 52.0048 44.3821 52.003C44.3685 51.9912 44.3485 51.9758 44.3168 51.9604L44.2751 51.9368C44.256 51.9259 44.2351 51.915 44.2125 51.9005C44.2098 51.896 44.1491 51.8507 44.1491 51.8507C44.1364 51.8416 44.1237 51.8343 44.1091 51.8307C44.0012 51.7582 43.8797 51.6738 43.7781 51.5841C43.7727 51.5804 43.7673 51.5759 43.76 51.5714C43.7555 51.5659 43.7491 51.5605 43.7437 51.5559C43.7364 51.5487 43.7274 51.5405 43.7228 51.5369L43.6476 51.4689C43.6412 51.4625 43.6285 51.4462 43.6276 51.4453C43.6186 51.4353 43.6086 51.4263 43.5968 51.419H43.595C43.5841 51.4054 43.5705 51.3891 43.5524 51.3691C43.5215 51.3419 43.5097 51.3283 43.4961 51.3093C43.4925 51.3048 43.488 51.3002 43.4835 51.2957C43.478 51.2866 43.4708 51.2785 43.4626 51.2703C43.4626 51.2685 43.4427 51.2431 43.4409 51.2404C43.4363 51.2349 43.4309 51.2286 43.4245 51.2241C43.4127 51.2059 43.4 51.1932 43.3919 51.186C43.3792 51.1697 43.371 51.1578 43.3629 51.1479C43.3574 51.1343 43.3492 51.1216 43.3402 51.1098C43.3229 51.0889 43.3112 51.0681 43.2994 51.0491C43.2949 51.0418 43.2885 51.0327 43.2812 51.0237C43.2676 51.0019 43.2568 50.9856 43.245 50.9711C43.2341 50.9466 43.2214 50.9239 43.2087 50.9058C43.206 50.8976 43.2032 50.8895 43.1996 50.884C43.1978 50.8813 43.1933 50.874 43.1888 50.8668C43.1869 50.8631 43.1851 50.8586 43.1833 50.855L43.1416 50.7616C43.1325 50.738 43.1235 50.7154 43.1126 50.69C43.1008 50.66 43.0917 50.6337 43.0818 50.6165C43.0818 50.5984 43.0863 50.5839 43.079 50.5675C43.079 50.553 43.079 50.5458 43.0736 50.5313C42.7299 49.4948 42.4896 48.1908 42.2584 46.9304C42.1586 46.3873 42.0616 45.8631 41.9618 45.3916C41.7814 44.5927 41.6082 43.7966 41.436 42.9995C41.436 42.9968 41.4314 42.975 41.4296 42.966C41.4296 42.966 41.4278 42.9497 41.4205 42.9197C41.4205 42.9016 41.4178 42.8834 41.4151 42.8653C41.4151 42.8526 41.4124 42.839 41.4124 42.8254C41.4124 42.8109 41.4097 42.7964 41.4051 42.7828C41.3906 42.7402 41.3851 42.7039 41.3851 42.6685C41.3851 42.6613 41.3851 42.6205 41.3833 42.6132C41.3752 42.5643 41.3761 42.5153 41.3761 42.4718C41.3761 42.4337 41.3588 42.3965 41.3316 42.3711C41.3126 42.353 41.2881 42.3421 41.2627 42.3376C41.3244 41.4598 41.951 40.6283 43.04 39.9836C45.5201 38.5146 49.617 38.4729 52.1732 39.8902C53.3901 40.5657 54.0874 41.5024 54.0874 42.46C54.0874 42.4845 54.0856 42.5089 54.0838 42.5334C54.0811 42.5652 54.0783 42.596 54.0783 42.6277C54.071 42.6558 54.0602 42.7102 54.0602 42.7683C54.0584 42.7764 54.0493 42.8037 54.0484 42.8055C54.0439 42.8191 54.0412 42.8336 54.0412 42.8481V42.8789C54.0321 42.9079 54.0321 42.9315 54.0321 42.9433C53.9568 43.3051 53.8734 43.6959 53.7909 44.0868C53.7011 44.5084 53.6122 44.9301 53.527 45.3526L53.2622 46.6094C53.2196 46.8098 53.176 47.0147 53.1361 47.2233L52.6111 49.6807C52.5839 49.8049 52.5559 49.9292 52.5368 50.0507L52.4651 50.4088C52.4588 50.4243 52.4533 50.4388 52.4515 50.446C52.447 50.4596 52.4443 50.4733 52.4443 50.4869C52.4443 50.5213 52.4407 50.5349 52.4334 50.5594C52.4271 50.5739 52.418 50.5975 52.4098 50.621C52.3962 50.6564 52.3835 50.6927 52.3636 50.7271C52.3563 50.738 52.3445 50.7734 52.34 50.7897C52.3355 50.7988 52.331 50.8078 52.3273 50.8169C52.3146 50.8341 52.2992 50.8577 52.2947 50.8731C52.291 50.8867 52.2811 50.9058 52.2666 50.9293C52.2548 50.9493 52.2439 50.9656 52.2321 50.981C52.2158 51.0055 52.1994 51.0291 52.1822 51.0572C52.1577 51.0917 52.1342 51.1261 52.1033 51.1624C52.0943 51.1733 52.0861 51.1851 52.0807 51.1987H52.0789C52.0734 51.2041 52.048 51.2386 52.0444 51.2467C52.0299 51.2549 52.0127 51.2757 52.0018 51.2884C51.9773 51.322 51.9682 51.3347 51.9592 51.341L52.0136 51.4761L51.9274 51.3701C51.9156 51.3773 51.9057 51.3864 51.8975 51.3963C51.8894 51.4027 51.8821 51.409 51.8775 51.4154C51.8694 51.4254 51.8531 51.4435 51.8286 51.4589C51.8177 51.4653 51.8096 51.4734 51.8005 51.4816C51.7842 51.4997 51.7651 51.5142 51.7443 51.5296C51.7252 51.5451 51.7044 51.5605 51.6844 51.5786C51.679 51.5831 51.6735 51.5895 51.6681 51.5958C51.6681 51.5958 51.6663 51.5976 51.6654 51.5986C51.6473 51.6103 51.6218 51.6294 51.6128 51.6403L51.5865 51.6611C51.5629 51.6802 51.5493 51.6892 51.5384 51.6983C51.5339 51.701 51.5293 51.7047 51.5248 51.7083C51.5085 51.7173 51.4958 51.7291 51.484 51.7436C51.4795 51.7464 51.4741 51.7491 51.4695 51.7527C51.4487 51.7627 51.4341 51.7736 51.426 51.7799C51.3942 51.7999 51.3652 51.8198 51.3389 51.838C51.3162 51.8543 51.2963 51.8688 51.2764 51.8787C51.2492 51.896 51.2265 51.9096 51.2092 51.9232C51.1866 51.9341 51.1621 51.9459 51.1394 51.9586C51.1159 51.9712 51.0913 51.983 51.0678 51.9939C51.0542 51.9975 51.0216 52.013 51.0116 52.0202C50.9708 52.0456 50.9227 52.0692 50.8783 52.0919C50.8511 52.1055 50.8248 52.1182 50.8003 52.1318C50.7803 52.1372 50.7649 52.1435 50.7531 52.1481C50.4203 52.2959 50.1692 52.3865 49.9162 52.4536L49.7402 52.4999C49.7266 52.4999 49.713 52.5017 49.7049 52.5044C49.5752 52.5425 49.4356 52.5797 49.2878 52.6014L49.2941 52.7384L49.2533 52.6087L49.2515 52.6141ZM51.4677 51.7963C51.465 51.8062 51.4632 51.8162 51.4632 51.8262C51.4632 51.8153 51.465 51.8053 51.4677 51.7963ZM51.4958 51.7427C51.4958 51.7427 51.4958 51.7427 51.494 51.7427C51.4976 51.7382 51.5031 51.7328 51.5076 51.7282C51.504 51.7328 51.4994 51.7373 51.4958 51.7418V51.7427ZM51.6545 51.6149C51.65 51.6212 51.6454 51.6285 51.6418 51.6348C51.6463 51.6267 51.65 51.6194 51.6545 51.6149ZM43.2504 50.9946C43.2586 51.0019 43.2667 51.0101 43.2722 51.02C43.2649 51.011 43.2568 51.0028 43.2504 50.9964V50.9946Z" fill="#0B4D5E"/>
<path d="M43.2124 51.3139L43.0673 51.381L43.2668 51.2468L43.2033 51.3139H43.2124ZM52.7336 50.9548C52.7336 50.9548 52.7155 50.9938 52.7064 51.011C52.7064 51.011 52.7246 50.9711 52.7336 50.9603V50.9548Z" fill="#0B4D5E"/>
<path d="M43.0671 51.5171C43.0861 51.5171 43.1052 51.5135 43.1233 51.5044L43.2684 51.4373C43.2984 51.4237 43.3219 51.4001 43.3346 51.372L43.3645 51.3394C43.4126 51.2886 43.4144 51.2106 43.369 51.158C43.3246 51.1054 43.2466 51.0954 43.1895 51.1335L42.99 51.2677C42.932 51.3076 42.913 51.3856 42.9474 51.4473C42.9719 51.4908 43.0181 51.5162 43.0662 51.5162L43.0671 51.5171ZM52.7062 51.148C52.7561 51.148 52.8033 51.1208 52.8277 51.0737L52.8296 51.0692C52.8495 51.0447 52.8704 50.993 52.8704 50.9612C52.8704 50.8978 52.8259 50.8397 52.7643 50.8261C52.7026 50.8134 52.6382 50.8397 52.611 50.8977L52.5983 50.9232C52.5938 50.9322 52.5883 50.9422 52.5829 50.9549C52.5521 51.022 52.5802 51.1018 52.6464 51.1344C52.6654 51.1435 52.6863 51.148 52.7062 51.148Z" fill="#0B4D5E"/>
<path d="M5.87095 31.6396C5.89816 32.1447 6.02509 33.2283 6.1339 33.7171C6.1883 34.0199 6.26992 34.4353 6.3606 34.739C6.52382 35.323 6.75053 36.1028 6.94095 36.6759C7.17672 37.3379 7.58477 38.2927 7.72985 38.5847C7.87494 38.8595 8.04724 39.2412 8.19232 39.5051C8.34647 39.7744 8.53689 40.1398 8.69104 40.4091C8.85426 40.6785 9.07191 41.0266 9.22607 41.2905C9.50717 41.7448 9.5978 41.8627 10.423 42.969C10.6043 43.2102 10.8673 43.5248 11.0668 43.7606C11.493 44.2829 12.1549 44.934 12.4723 45.2423C12.6446 45.4164 13.3247 46.0403 14.0501 46.5898C14.4763 46.9099 15.0114 47.2971 15.8003 47.7523L17.0153 48.4424L18.2304 49.1333L19.4455 49.8243L20.6515 50.5144L21.8666 51.2053L23.0726 51.8954L24.2877 52.5863L25.5028 53.2764L26.7179 53.9674L27.8967 54.6466C27.8967 54.6466 27.9148 54.6574 27.933 54.6629C28.4317 54.9331 29.1118 55.2804 29.6468 55.4999C30.1546 55.7075 30.8619 55.9433 31.3969 56.072C31.9228 56.1899 32.612 56.3359 33.1289 56.3758C33.5914 56.4148 34.1989 56.4429 34.6614 56.4483C34.9243 56.4483 35.278 56.4375 35.5409 56.4148C36.8648 56.3359 38.3429 56.0503 39.7303 55.6069C40.8093 55.2587 41.5257 54.944 41.5982 54.9159C41.8703 54.798 42.2149 54.652 42.4778 54.5232C42.9584 54.2875 43.5932 53.9502 44.0647 53.6863L46.1231 52.502C46.1866 52.4621 46.2591 52.4231 46.3226 52.3787C46.5402 52.249 46.776 52.1085 46.9664 51.9906C47.2385 51.8165 47.6012 51.5871 47.8641 51.3903C48.3266 51.053 48.9251 50.5932 49.3603 50.2396C49.6142 50.0374 49.9044 49.7681 50.1492 49.5486C50.3759 49.3355 50.6751 49.049 50.8837 48.8187C51.2373 48.426 51.718 47.8874 52.0444 47.4775C52.253 47.2354 52.4887 46.8881 52.6701 46.6242C52.8152 46.4102 52.9965 46.1183 53.1326 45.8997C53.1326 45.8879 53.7038 44.9394 54.0303 44.097C54.1844 43.7044 54.3567 43.1766 54.4837 42.7722C54.5653 42.5083 54.6287 42.1493 54.6922 41.88C54.8282 41.335 54.9008 40.5887 54.9371 40.0328C54.9643 39.5051 54.9461 38.7923 54.928 38.2592C54.9098 37.765 54.7648 36.6533 54.665 36.1699C54.6016 35.8616 54.5199 35.4409 54.4383 35.1371C54.2751 34.5423 54.0484 33.7615 53.8489 33.1784C53.6131 32.5101 53.196 31.5499 53.0509 31.247C52.9149 30.9659 52.7426 30.5896 52.5885 30.3203C52.4343 30.0455 52.2439 29.6801 52.0897 29.4108C51.9265 29.1414 51.6998 28.7878 51.5457 28.5239C51.2555 28.0633 51.1739 27.9454 50.3397 26.8282C50.1492 26.5816 49.8772 26.2669 49.6868 26.0257C49.2515 25.498 48.5896 24.8469 48.2631 24.5268C48.0818 24.3527 47.4108 23.7243 46.6672 23.1684C46.241 22.8484 45.6969 22.4548 44.908 22.0005C44.899 22.0005 44.8899 21.9951 44.8808 21.9887L43.7111 21.3213L42.5141 20.6421L41.3171 19.9566L40.1202 19.2774L38.9233 18.5983L37.7353 17.9136L36.5384 17.2335L35.3415 16.5544L34.1445 15.8697L32.9475 15.1906C32.4488 14.9212 31.7687 14.5676 31.2337 14.3536C30.7078 14.1405 29.9914 13.9047 29.4474 13.776C28.9305 13.6517 28.2413 13.523 27.7244 13.4722C27.4524 13.4504 27.0988 13.416 26.8358 13.4051C26.4187 13.3942 25.8655 13.3942 25.4575 13.416C24.6867 13.4613 24.1245 13.5339 23.4172 13.6581C22.4016 13.8376 21.4948 14.1178 21.4767 14.1178C21.1684 14.2139 20.7603 14.3373 20.4611 14.4497C19.9261 14.6456 19.2188 14.9267 18.7019 15.1507C18.6929 15.1507 17.8768 15.5052 16.7524 16.1508L14.6849 17.3351C14.44 17.492 14.0864 17.6833 13.8416 17.8456C13.4154 18.1267 12.8441 18.5139 12.427 18.8168C11.765 19.2883 10.8945 20.0745 10.8854 20.0799C10.4865 20.4562 9.96961 20.9677 9.59783 21.3658C9.38927 21.5906 9.11723 21.9162 8.91774 22.1519C8.90867 22.1574 8.3646 22.8148 7.78426 23.7406C7.22205 24.6556 6.91375 25.3747 6.83214 25.5769C6.65985 25.9922 6.46036 26.5698 6.32434 26.9969C6.24273 27.2608 6.1702 27.6253 6.10672 27.8955C5.97071 28.445 5.89814 29.1922 5.8528 29.7535C5.81653 30.3148 5.83466 31.0674 5.8528 31.6287H5.87095V31.6396Z" fill="#F0F4FF"/>
<path d="M34.6593 56.5843C34.8915 56.5843 35.2623 56.5752 35.5516 56.5507C36.8764 56.4719 38.3753 56.1826 39.7709 55.7374C40.402 55.5333 41.0149 55.3075 41.5935 55.0654L41.7595 54.9947C42.0125 54.885 42.3062 54.7589 42.5366 54.6465C42.9891 54.4243 43.6147 54.0943 44.1307 53.8059L46.2653 52.5754C46.3106 52.5482 46.3577 52.5201 46.3985 52.4911C46.608 52.3668 46.8447 52.2263 47.036 52.1075L47.0813 52.0785C47.3525 51.9053 47.6907 51.6904 47.9437 51.5009C48.4089 51.1617 49.0119 50.6974 49.4444 50.3474C49.6476 50.1851 49.877 49.9775 50.0792 49.7952L50.2379 49.6519C50.5716 49.3391 50.8146 49.0979 50.9823 48.912C51.3215 48.5357 51.812 47.9862 52.1485 47.5645C52.3434 47.3378 52.5629 47.0177 52.7397 46.7611L52.7796 46.7031C52.921 46.4936 53.0978 46.2116 53.233 45.994C53.2393 45.9849 53.2457 45.9722 53.2521 45.9577H53.2538C53.2593 45.9486 53.2738 45.9223 53.2964 45.8824C53.4415 45.6276 53.8823 44.8523 54.1543 44.1477C54.2794 43.8304 54.4336 43.3815 54.6113 42.8139C54.6675 42.6316 54.7138 42.4131 54.7591 42.2018C54.78 42.1002 54.8017 42.0014 54.8217 41.9125C54.9631 41.3458 55.0339 40.5832 55.0692 40.0427C55.091 39.6265 55.0883 39.0426 55.0611 38.2555C55.042 37.7395 54.8951 36.6287 54.7945 36.1436L54.7582 35.9668C54.7011 35.6802 54.634 35.3556 54.566 35.1026C54.468 34.7435 54.2123 33.8322 53.9738 33.1358C53.7417 32.4765 53.3282 31.519 53.1713 31.1898L53.0743 30.9876C52.9573 30.7436 52.8258 30.4671 52.7034 30.254C52.6354 30.1316 52.5592 29.9901 52.4821 29.8478C52.3869 29.6718 52.2908 29.4932 52.2047 29.3445C52.1376 29.233 52.0623 29.1114 51.9852 28.9872C51.8701 28.8031 51.7522 28.6136 51.6615 28.4567C51.3677 27.9907 51.2807 27.8664 50.4464 26.7484C50.3385 26.6078 50.2052 26.4473 50.0755 26.2913C49.9749 26.1689 49.8743 26.0492 49.7908 25.9431C49.3492 25.4072 48.6782 24.7489 48.3572 24.4315C48.2248 24.3055 47.5357 23.6508 46.7468 23.0614C46.2843 22.7141 45.7493 22.3305 44.9749 21.8844C44.9649 21.8789 44.955 21.8744 44.945 21.8717L33.0135 15.0735C32.2772 14.6763 31.7122 14.4007 31.2833 14.2284C30.7266 14.0026 30.0012 13.7686 29.478 13.6444C28.8967 13.5048 28.213 13.3842 27.7369 13.3379L27.5238 13.3198C27.2944 13.2998 27.0414 13.2781 26.841 13.2699C26.4556 13.259 25.8871 13.2572 25.45 13.2808C24.7191 13.3234 24.1624 13.3896 23.3925 13.5247C22.5501 13.6744 21.7812 13.892 21.5282 13.9636C21.4855 13.9754 21.4592 13.9827 21.4483 13.9854L21.2933 14.0325C21.0022 14.1232 20.6704 14.2257 20.4119 14.3227C19.8588 14.5258 19.1479 14.8087 18.6464 15.0264L18.6482 15.03C18.4179 15.1134 17.5374 15.5432 16.6832 16.0338L14.6166 17.2181C14.5006 17.2924 14.3682 17.3695 14.2331 17.4484C14.0681 17.5445 13.9003 17.6433 13.7652 17.7331C13.359 18.0006 12.7723 18.3969 12.3461 18.707C12.0813 18.8956 11.6052 19.2629 10.8399 19.9393L10.7991 19.9747C10.3475 20.4 9.83879 20.9069 9.49693 21.2732C9.31921 21.4654 9.09707 21.7284 8.91027 21.9497L8.81325 22.0648L8.81507 22.0666C8.67452 22.219 8.15039 22.9009 7.66798 23.6698C7.09126 24.6075 6.78476 25.3284 6.70496 25.5269C6.52361 25.964 6.32231 26.5525 6.19445 26.9569C6.1337 27.1519 6.07838 27.4003 6.02942 27.6189L5.97318 27.8646C5.83626 28.415 5.76372 29.1577 5.71566 29.7426C5.68029 30.2921 5.69571 31.0075 5.71566 31.6332C5.71566 31.6586 5.72472 31.6831 5.73741 31.703C5.77187 32.258 5.89613 33.2772 6.00041 33.746C6.0784 34.1813 6.15546 34.5304 6.22982 34.777C6.32866 35.1343 6.58709 36.042 6.81106 36.7185C7.0432 37.3704 7.45396 38.3362 7.60721 38.6454C7.67431 38.7723 7.74502 38.9174 7.81575 39.0634C7.90371 39.2429 7.99171 39.4243 8.07151 39.5703C8.14949 39.7063 8.2356 39.8641 8.32084 40.0219C8.40698 40.1815 8.49313 40.3411 8.57111 40.4762L8.74611 40.7636C8.87216 40.9667 9.00367 41.1817 9.10614 41.3585C9.38089 41.8019 9.47519 41.9298 10.2142 42.92L10.3112 43.0505C10.4917 43.2908 10.7528 43.6028 10.9605 43.8485C11.267 44.2248 11.7576 44.7408 12.376 45.3402C12.5356 45.5007 13.2121 46.1264 13.9656 46.6985C14.4226 47.0413 14.9522 47.4212 15.7302 47.8701L27.8267 54.7644C27.8267 54.7644 27.8593 54.7834 27.8938 54.7934C28.1758 54.9494 28.962 55.3665 29.5931 55.6249C30.139 55.848 30.8499 56.0801 31.3623 56.2034C31.9054 56.325 32.5927 56.47 33.1159 56.5108C33.5739 56.5489 34.1796 56.578 34.6575 56.5834L34.6593 56.5843ZM53.0136 45.8325C52.8685 46.0665 52.6953 46.3431 52.5565 46.548L52.5166 46.6051C52.3443 46.8563 52.1285 47.1701 51.9399 47.3895C51.6053 47.8093 51.1192 48.3543 50.7819 48.7279C50.6187 48.9075 50.3812 49.1441 50.0556 49.4497L49.8978 49.5912C49.6974 49.7716 49.4716 49.9757 49.274 50.1334C48.8432 50.4825 48.2448 50.9432 47.7814 51.2805C47.5357 51.4646 47.202 51.6777 46.9345 51.8473L46.89 51.8754C46.7023 51.9923 46.4675 52.132 46.2498 52.2616C46.2045 52.2934 46.1646 52.317 46.1247 52.3405L46.0476 52.3868L43.9938 53.5683C43.4842 53.8531 42.863 54.1813 42.415 54.4008C42.1883 54.5123 41.8991 54.6365 41.6488 54.7435L41.4856 54.8124C40.9143 55.0518 40.3086 55.2749 39.6856 55.4762C38.3118 55.9151 36.8356 56.1998 35.5299 56.2778C35.2451 56.3023 34.8833 56.3113 34.6584 56.3113C34.1869 56.3059 33.5893 56.2778 33.1368 56.2397C32.6308 56.2007 31.9553 56.0575 31.423 55.9378C30.9233 55.8181 30.2288 55.5904 29.6947 55.3728C29.0754 55.1189 28.3001 54.7073 27.9945 54.5422C27.9945 54.5422 27.9627 54.5286 27.9618 54.5277L15.8644 47.6325C15.0991 47.1909 14.5776 46.8173 14.1279 46.48C13.3952 45.9251 12.717 45.2985 12.5655 45.1452C11.9525 44.5513 11.4701 44.0426 11.1682 43.6735C10.9614 43.4287 10.7039 43.1203 10.528 42.8855L10.4318 42.7558C9.69915 41.7738 9.60489 41.6477 9.3392 41.2179C9.23673 41.042 9.10339 40.8253 8.97735 40.6204L8.80417 40.3374C8.72982 40.2069 8.64367 40.0491 8.55844 39.8913C8.47229 39.7317 8.38615 39.5721 8.30816 39.437C8.23109 39.2974 8.14493 39.1196 8.0606 38.9446C7.98806 38.795 7.91554 38.6463 7.84935 38.5202C7.69973 38.2201 7.29619 37.2707 7.06858 36.6296C6.84642 35.9622 6.59069 35.059 6.49094 34.7018C6.41931 34.4624 6.34409 34.1241 6.26701 33.6925C6.16273 33.2219 6.03483 32.1546 6.00672 31.635V31.6278C6.00672 31.6015 5.99861 31.5761 5.98591 31.5552C5.96687 30.9513 5.95504 30.2776 5.98768 29.7607C6.03484 29.1885 6.10647 28.4595 6.23796 27.9272L6.29419 27.676C6.34225 27.462 6.39577 27.2199 6.4538 27.0367C6.57985 26.6386 6.77843 26.0583 6.95706 25.6276C7.01328 25.4888 7.31978 24.7525 7.89922 23.8113C8.43512 22.9571 8.95381 22.3142 9.01366 22.2471C9.01638 22.2444 9.01909 22.2417 9.0209 22.2389L9.11881 22.1238C9.30198 21.9061 9.52233 21.6459 9.69734 21.4573C10.0347 21.0955 10.5389 20.5931 10.9786 20.1778C10.9732 20.1814 10.9705 20.1842 10.9705 20.1842C10.9705 20.1842 10.9904 20.1669 11.0203 20.1415C11.7766 19.4732 12.2463 19.1114 12.5056 18.9264C12.93 18.619 13.5122 18.2246 13.9166 17.9589C14.049 17.8709 14.2113 17.7757 14.3718 17.6814C14.5097 17.6007 14.6466 17.5209 14.759 17.4493L16.8202 16.2687C17.9401 15.6258 18.7054 15.2957 18.7453 15.2794C18.7489 15.2794 18.7525 15.2766 18.7561 15.2757C19.2548 15.0599 19.9585 14.7797 20.509 14.5775C20.7611 14.4832 21.0884 14.3816 21.3758 14.2928L21.5109 14.2511C21.5264 14.2474 21.5526 14.2402 21.6034 14.2257C21.8528 14.1549 22.6127 13.94 23.4415 13.7922C24.1996 13.6598 24.7473 13.5945 25.4655 13.5528C25.8953 13.5293 26.452 13.532 26.8329 13.542C27.0269 13.5501 27.2754 13.5719 27.5012 13.5909L27.7134 13.6091C28.1758 13.6544 28.845 13.7723 29.4154 13.9101C29.9268 14.0307 30.6368 14.2601 31.1818 14.4814C31.5962 14.6473 32.1684 14.9266 32.882 15.312L44.8126 22.1093C44.8199 22.1129 44.8316 22.1183 44.8425 22.1229C45.6033 22.5608 46.1292 22.9372 46.5844 23.2799C47.377 23.872 48.0897 24.5521 48.1686 24.6274C48.486 24.9402 49.1498 25.5913 49.5805 26.1145C49.6648 26.2197 49.7654 26.3412 49.867 26.4654C49.9958 26.6196 50.1254 26.7774 50.2306 26.9143C51.0748 28.0442 51.1438 28.1457 51.4294 28.5991C51.5201 28.7542 51.6389 28.9455 51.755 29.1323C51.8311 29.2556 51.9063 29.3771 51.9716 29.4841C52.0541 29.6283 52.1485 29.8051 52.2428 29.9783C52.3208 30.1225 52.3978 30.2649 52.4676 30.3891C52.5855 30.595 52.7143 30.8661 52.8295 31.1064L52.9265 31.3095C53.0807 31.6332 53.4887 32.5781 53.7172 33.2273C53.9539 33.9156 54.2069 34.8197 54.3039 35.176C54.3692 35.42 54.4345 35.74 54.4916 36.023L54.5288 36.2007C54.624 36.6659 54.7709 37.7731 54.789 38.2673C54.8153 39.0462 54.818 39.622 54.7981 40.0282C54.7636 40.556 54.6938 41.3013 54.5569 41.8499C54.5351 41.9424 54.5133 42.0431 54.4916 42.1465C54.4481 42.3523 54.4028 42.5645 54.3502 42.7341C54.1752 43.2963 54.0237 43.7388 53.9004 44.0498C53.6347 44.7371 53.2013 45.4989 53.0589 45.7491C53.0362 45.7899 53.0208 45.8162 53.0108 45.8353L53.0136 45.8325Z" fill="#0B4D5E"/>
<path d="M23.3901 18.1828L35.3506 25.0091L37.3999 23.8248L25.4485 16.9985L23.3901 18.1828Z" fill="#0B4D5E"/>
<path d="M35.3506 25.145C35.3741 25.145 35.3977 25.1387 35.4185 25.1269L37.4679 23.9426C37.5096 23.9181 37.5359 23.8728 37.5359 23.8247C37.5359 23.7758 37.5096 23.7313 37.467 23.7068L25.5156 16.8806C25.4748 16.857 25.4221 16.8561 25.3804 16.8806L23.3211 18.0648C23.2794 18.0893 23.2531 18.1338 23.2531 18.1827C23.2531 18.2317 23.2794 18.2761 23.3221 18.3006L35.2825 25.1269C35.3025 25.1387 35.327 25.145 35.3496 25.145H35.3506ZM37.1269 23.8266L35.3506 24.853L23.663 18.1836L25.4484 17.1562L37.1269 23.8266Z" fill="#0B4D5E"/>
<path d="M31.2335 29.5222C31.5146 29.1848 31.8229 28.9382 32.1312 28.7641C33.3372 28.0731 34.6068 28.4494 35.5589 28.9999L36.248 29.3762C35.2959 28.8258 34.0264 28.4494 32.8113 29.1404C32.5121 29.3136 32.2038 29.5666 31.9136 29.9039C29.4109 32.7948 31.1066 38.0324 31.1882 38.308L28.0688 36.5117C27.9872 36.236 28.7217 32.4239 31.2335 29.5276V29.5222Z" fill="#8AE5CC"/>
<path d="M31.1884 38.4439C31.2183 38.4439 31.2474 38.4339 31.2727 38.4149C31.3163 38.3804 31.3344 38.3224 31.319 38.2698L31.3081 38.2344C31.0279 37.3186 29.7466 32.6151 32.0163 29.9927C32.2847 29.6817 32.574 29.4341 32.8795 29.2582C33.9758 28.6343 35.112 28.9381 35.9399 29.3634L36.183 29.4958C36.2492 29.532 36.3308 29.5085 36.367 29.4423C36.4033 29.3779 36.3816 29.2954 36.3163 29.2582C36.2365 29.2119 36.1522 29.1657 36.066 29.1222L35.6244 28.8801C34.7249 28.3605 33.3737 27.8953 32.0644 28.6461C31.7171 28.842 31.4033 29.1077 31.1295 29.435C31.1231 29.4423 31.1177 29.4504 31.1131 29.4586C28.6512 32.3123 27.8242 36.1652 27.9385 36.5505C27.9485 36.5841 27.9702 36.6122 28.0001 36.6294L31.1195 38.4258C31.1403 38.4385 31.1657 38.4439 31.1884 38.4439ZM34.2207 28.6307C33.741 28.6307 33.2405 28.7413 32.7444 29.0233C32.4126 29.2156 32.0979 29.4822 31.8114 29.8168C29.655 32.3068 30.5128 36.4209 30.9626 38.0223L28.196 36.4299C28.1978 35.9067 28.9659 32.3521 31.3362 29.6182C31.3435 29.61 31.3498 29.601 31.3553 29.591C31.6028 29.2981 31.8875 29.0605 32.1995 28.8846C32.9249 28.4684 33.6703 28.4648 34.334 28.6334C34.2968 28.6325 34.2587 28.6316 34.2216 28.6316L34.2207 28.6307Z" fill="#0B4D5E"/>
<path d="M31.9225 29.8895C32.2036 29.5521 32.5119 29.3055 32.8202 29.126C35.1597 27.7839 37.6987 30.4671 37.8347 30.6077L37.0639 31.489L31.9406 37.423L31.188 38.2881C31.1064 38.0125 29.4107 32.7749 31.9225 29.8831V29.8895Z" fill="#0B4D5E"/>
<path d="M31.2054 38.4114C31.238 38.4114 31.2698 38.4023 31.2916 38.3778L32.0442 37.5127L37.9383 30.6974C37.9846 30.6439 37.9827 30.5641 37.9328 30.5133C37.4631 30.0263 35.0357 27.6959 32.7533 29.008C32.4124 29.2066 32.1068 29.4632 31.8438 29.7724C31.8347 29.7788 31.8266 29.786 31.8202 29.7942C29.5079 32.4565 30.645 36.9732 31.0486 38.2944C31.0631 38.3424 31.1057 38.3941 31.1547 38.405C31.171 38.4087 31.1882 38.4104 31.2054 38.4104V38.4114ZM37.6499 30.6139L36.9608 31.4001L31.248 38.0124C30.8889 36.7501 29.8906 32.4719 31.9998 30.0009C32.0098 29.9946 32.0188 29.9864 32.0261 29.9774C32.2745 29.679 32.5647 29.4324 32.8875 29.2438C34.8924 28.0949 37.0596 30.0263 37.6499 30.6139Z" fill="#0B4D5E"/>
<path d="M48.6257 21.2811C48.934 21.107 49.2423 21.0054 49.5324 21.0118C49.7319 21.0118 49.9042 21.0616 50.0584 21.146L50.811 21.5894C50.6569 21.4996 50.4846 21.4552 50.2851 21.4552C49.9949 21.4552 49.6866 21.5504 49.3783 21.7245C47.0297 23.0665 44.5179 28.6242 44.391 28.9162L41.2716 27.1199C41.3986 26.8279 46.2861 22.6168 48.6257 21.2811Z" fill="#8AE5CC"/>
<path d="M44.3911 29.0523C44.4056 29.0523 44.4192 29.0505 44.4337 29.0459C44.4709 29.0333 44.4999 29.007 44.5162 28.9707C44.5407 28.9136 47.0933 23.1872 49.4464 21.8425C49.9388 21.5641 50.4103 21.5124 50.744 21.7064C50.8093 21.7445 50.8918 21.7219 50.9299 21.6575C50.9671 21.5931 50.9462 21.5097 50.8809 21.4716L50.1283 21.0282C49.9307 20.9194 49.7329 20.8695 49.5044 20.8749C49.2161 20.8749 48.8978 20.971 48.5596 21.1624C46.201 22.5089 41.2999 26.7164 41.1484 27.0655C41.1212 27.129 41.1457 27.2025 41.2047 27.2369L44.3231 29.0332C44.3439 29.045 44.3675 29.0514 44.3911 29.0514V29.0523ZM50.102 21.3301C49.8481 21.3609 49.5824 21.4525 49.3104 21.6067C47.0915 22.8744 44.7393 27.83 44.3285 28.7241L41.4767 27.081C42.135 26.4009 46.4513 22.6785 48.6919 21.399C48.9876 21.2322 49.2614 21.1479 49.5044 21.1479C49.693 21.1451 49.8418 21.1832 49.9914 21.2648L50.1011 21.3292L50.102 21.3301Z" fill="#0B4D5E"/>
<path d="M49.3781 21.7256C49.6864 21.5515 49.9856 21.4508 50.2849 21.4563C52.7967 21.4898 51.1372 28.6307 51.0556 29.0071L50.303 28.9962L45.1615 28.9282L44.3998 28.9173C44.5268 28.6253 47.0386 23.0622 49.3781 21.7256Z" fill="#0B4D5E"/>
<path d="M51.0559 29.1431C51.1194 29.1431 51.1756 29.0986 51.1883 29.0361L51.1992 28.9889C51.5773 27.2878 52.3372 23.181 51.2373 21.7909C50.9933 21.4835 50.6741 21.3248 50.286 21.3193C50.2779 21.3193 50.2688 21.3193 50.2616 21.3193C49.9642 21.3193 49.6522 21.4136 49.3104 21.6059C46.853 23.0105 44.3004 28.8039 44.2741 28.862C44.256 28.9037 44.2596 28.9518 44.285 28.9898C44.3094 29.0279 44.3512 29.0515 44.3974 29.0524L51.0541 29.1422L51.0559 29.1431ZM50.2625 21.5923H50.2816C50.589 21.5959 50.8311 21.7165 51.0233 21.9604C52.0634 23.2753 51.2463 27.5036 50.9462 28.8701L44.6087 28.7849C45.0729 27.7802 47.3445 23.0449 49.4446 21.8444C49.7438 21.6748 50.0122 21.5923 50.2625 21.5923Z" fill="#0B4D5E"/>
<path d="M52.6699 43.2637C52.2437 43.4994 51.9082 44.0888 51.9082 44.5604C51.9082 45.0319 52.2528 45.2286 52.6699 44.9929C53.0961 44.7571 53.4316 44.1677 53.4316 43.6962C53.4316 43.2247 53.087 43.0279 52.6699 43.2637Z" fill="#0B4D5E"/>
<path d="M52.3326 45.2286C52.4604 45.2286 52.5983 45.1896 52.7361 45.1116C53.194 44.8595 53.5676 44.2239 53.5676 43.6961C53.5676 43.4195 53.4652 43.2074 53.2793 43.0995C53.0934 42.9916 52.8459 43.007 52.6028 43.1448C52.144 43.3987 51.7713 44.0334 51.7713 44.5603C51.7713 44.8369 51.8738 45.049 52.0597 45.1579C52.1413 45.205 52.2328 45.2286 52.3326 45.2286ZM53.0054 43.3008C53.0571 43.3008 53.1034 43.3116 53.1424 43.3352C53.2412 43.3923 53.2956 43.522 53.2956 43.697C53.2956 44.1287 52.9782 44.6673 52.6037 44.8749C52.4441 44.9647 52.2981 44.981 52.1975 44.9239C52.0986 44.8668 52.0442 44.7371 52.0442 44.5621C52.0442 44.1314 52.3607 43.5918 52.7352 43.3842H52.737C52.8322 43.3289 52.9247 43.3017 53.0054 43.3017V43.3008Z" fill="#0B4D5E"/>
<path d="M52.3253 45.368C52.4794 45.368 52.6427 45.3227 52.8059 45.2329C53.3137 44.9518 53.7036 44.2726 53.7036 43.6887C53.7036 43.3631 53.5766 43.0992 53.3409 42.965C53.1142 42.8299 52.815 42.8471 52.5157 43.0149C52.017 43.296 51.618 43.9752 51.618 44.5592C51.618 44.8847 51.754 45.1486 51.9807 45.2837C52.0804 45.3454 52.1983 45.3735 52.3253 45.3735V45.368ZM53.0054 43.442C53.0054 43.442 53.0507 43.442 53.0689 43.4592C53.1142 43.4874 53.1504 43.5771 53.1504 43.695C53.1504 44.0704 52.8603 44.5646 52.5338 44.7442C52.3978 44.8176 52.3162 44.8176 52.28 44.7949C52.2255 44.7668 52.1983 44.677 52.1983 44.5592C52.1983 44.1828 52.4885 43.6886 52.8059 43.5037C52.8784 43.4592 52.951 43.4366 53.0054 43.4366V43.442Z" fill="#0B4D5E"/>
<path d="M52.3253 45.5096C52.3398 45.5096 52.3525 45.5078 52.3661 45.5032C52.533 45.496 52.7026 45.4461 52.8721 45.3518C53.4244 45.0462 53.8406 44.3307 53.8406 43.6887C53.8406 43.3106 53.6828 43.0032 53.408 42.8472C53.1396 42.6876 52.7896 42.7058 52.4486 42.8962C51.9064 43.2018 51.482 43.9327 51.482 44.5592C51.482 44.9319 51.6389 45.2384 51.9109 45.4007C52.027 45.4724 52.1675 45.5096 52.3253 45.5096ZM53.0009 43.0114C53.0997 43.0114 53.1922 43.0349 53.2711 43.0821C53.4634 43.1918 53.5676 43.4067 53.5676 43.6887C53.5676 44.231 53.2049 44.8567 52.7406 45.1142C52.601 45.1913 52.4568 45.2321 52.3253 45.2321C52.3126 45.2321 52.3017 45.233 52.2908 45.2366C52.1983 45.2321 52.1195 45.2094 52.0524 45.1677C51.8619 45.0543 51.755 44.8331 51.755 44.5592C51.755 44.0306 52.1258 43.3904 52.582 43.1338C52.7261 43.0531 52.8703 43.0114 53.0009 43.0114ZM52.3326 44.9455C52.3979 44.9455 52.4849 44.9256 52.5983 44.8639C52.9719 44.6581 53.2865 44.1231 53.2865 43.6951C53.2865 43.5319 53.2312 43.4004 53.1405 43.3442C53.1224 43.3242 53.0861 43.3142 53.0526 43.3097C52.9628 43.278 52.8449 43.3206 52.7343 43.3877C52.3716 43.599 52.0614 44.1367 52.0614 44.5592C52.0614 44.7868 52.1458 44.8793 52.2165 44.9156C52.241 44.9319 52.2791 44.9455 52.3326 44.9455ZM52.99 43.5772C53.0036 43.5999 53.0136 43.6379 53.0136 43.6951C53.0136 44.0179 52.7488 44.4704 52.4677 44.6254C52.3879 44.6681 52.3471 44.6726 52.3362 44.6726C52.3462 44.6699 52.3335 44.6318 52.3335 44.5592C52.3335 44.2382 52.5955 43.783 52.873 43.6207C52.9147 43.5962 52.9528 43.5817 52.98 43.5754C52.9827 43.5754 52.9855 43.5754 52.9891 43.5763L52.99 43.5772Z" fill="#0B4D5E"/>
<path d="M47.7915 46.0173C47.3744 46.2531 47.0389 46.8371 47.0389 47.3149C47.0389 47.7928 47.3744 47.9823 47.8006 47.7466C48.2177 47.5108 48.5532 46.9214 48.5532 46.4498C48.5532 45.9783 48.2177 45.7816 47.7915 46.0173Z" fill="#0B4D5E"/>
<path d="M47.4578 47.9841C47.5857 47.9841 47.7244 47.9451 47.8659 47.8663C48.3202 47.6096 48.6892 46.9749 48.6892 46.4499C48.6892 46.1733 48.5886 45.9611 48.4054 45.8532C48.2213 45.7426 47.9765 45.7589 47.7262 45.8976H47.7244C47.2638 46.1588 46.9029 46.7808 46.9029 47.314C46.9029 47.5915 47.0035 47.8037 47.1858 47.9116C47.2674 47.9596 47.3581 47.9832 47.4578 47.9832V47.9841ZM48.1307 46.0536C48.1823 46.0536 48.2277 46.0654 48.2666 46.0881C48.3628 46.1452 48.4163 46.2739 48.4163 46.4499C48.4163 46.8797 48.1034 47.4192 47.7326 47.6287C47.5702 47.7176 47.4215 47.7357 47.3236 47.6776C47.2275 47.6214 47.1749 47.4927 47.1749 47.3149C47.1749 46.8851 47.4877 46.3456 47.8577 46.1361C47.9574 46.0808 48.0509 46.0536 48.1307 46.0536Z" fill="#0B4D5E"/>
<path d="M47.4564 48.1239C47.6105 48.1239 47.7737 48.0795 47.937 47.9897C48.4357 47.7086 48.8347 47.0294 48.8347 46.4455C48.8347 46.1199 48.6987 45.856 48.472 45.7209C48.2453 45.5867 47.946 45.603 47.6559 45.7663C47.1481 46.0528 46.7581 46.7265 46.7581 47.3096C46.7581 47.636 46.8851 47.8999 47.1118 48.0341C47.2116 48.0958 47.3294 48.1239 47.4564 48.1239ZM48.1274 46.1988C48.1274 46.1988 48.1727 46.1988 48.1909 46.2097C48.2453 46.2378 48.2725 46.3276 48.2725 46.4455C48.2725 46.8218 47.9823 47.316 47.6649 47.4955C47.538 47.568 47.4473 47.568 47.402 47.5463C47.3566 47.5182 47.3294 47.4284 47.3294 47.3096C47.3294 46.9278 47.6105 46.4454 47.937 46.255C48.0276 46.2097 48.0911 46.187 48.1456 46.187L48.1274 46.1988Z" fill="#0B4D5E"/>
<path d="M47.4562 48.26C47.6357 48.26 47.8198 48.2092 48.003 48.1086C48.5471 47.8021 48.9714 47.0712 48.9714 46.4456C48.9714 46.0738 48.8146 45.7664 48.5416 45.604C48.2723 45.4435 47.9231 45.4581 47.5895 45.6476C47.0381 45.9586 46.622 46.6731 46.622 47.3097C46.622 47.6869 46.7752 47.9934 47.0427 48.1512C47.1597 48.2237 47.2993 48.26 47.4562 48.26ZM48.1299 45.7663C48.2287 45.7663 48.3222 45.7899 48.4029 45.838C48.5906 45.9504 48.6985 46.1717 48.6985 46.4456C48.6985 46.9742 48.3276 47.6135 47.8706 47.871C47.6185 48.0097 47.3537 48.0224 47.1823 47.9182C46.9992 47.8093 46.8949 47.5881 46.8949 47.3097C46.8949 46.7729 47.2585 46.1463 47.7228 45.8851C47.8624 45.8063 48.002 45.7663 48.1299 45.7663ZM47.4698 47.6933C47.5523 47.6933 47.6403 47.6661 47.7319 47.6144C48.0919 47.4103 48.4083 46.8636 48.4083 46.4456C48.4083 46.2179 48.324 46.1255 48.2533 46.0892C48.2442 46.0837 48.2342 46.0801 48.2242 46.0765C48.1453 46.0194 48.0374 46.052 47.8751 46.1336C47.4951 46.3549 47.1923 46.8808 47.1923 47.3097C47.1923 47.482 47.2413 47.6071 47.3292 47.6615C47.3727 47.6824 47.4199 47.6933 47.4689 47.6933H47.4698ZM48.1372 46.3358C48.1254 46.3395 48.1372 46.3775 48.1372 46.4456C48.1372 46.7675 47.876 47.2199 47.5985 47.3777C47.5414 47.4104 47.5024 47.4194 47.4798 47.4222C47.4734 47.4013 47.4661 47.3641 47.4661 47.3097C47.4661 46.9787 47.7183 46.5407 48.0057 46.3721C48.0193 46.3657 48.0619 46.344 48.1009 46.3313C48.11 46.3331 48.1181 46.334 48.1263 46.334H48.1372V46.3358Z" fill="#0B4D5E"/>
<path d="M49.9227 41.8473C47.2295 43.3861 45.0533 46.3386 45.0533 48.4441C45.0533 50.5497 47.2477 51.0158 49.9408 49.4715C52.634 47.9336 54.8193 44.9856 54.8103 42.8747C54.8103 40.77 52.6158 40.3039 49.9227 41.8473ZM52.6703 44.9802C52.2532 45.216 51.9086 45.031 51.9086 44.5477C51.9086 44.0644 52.2532 43.4867 52.6703 43.251C53.0874 43.0152 53.432 43.2002 53.432 43.6835C53.432 44.1668 53.0874 44.7444 52.6703 44.9802ZM47.8008 47.7423C47.3837 47.978 47.0391 47.7876 47.0391 47.3097C47.0391 46.8382 47.3747 46.2488 47.7918 46.013C48.218 45.7773 48.5535 45.9632 48.5535 46.4456C48.5535 46.928 48.218 47.5065 47.8008 47.7423Z" fill="#8AE5CC"/>
<path d="M47.0606 50.5188C47.9121 50.5188 48.9395 50.2023 50.0077 49.5902C52.7398 48.0305 54.9551 45.0182 54.946 42.8755C54.946 42.0576 54.6305 41.4428 54.0347 41.0973C53.0789 40.5432 51.5165 40.779 49.8553 41.7302C47.1322 43.2853 44.917 46.2977 44.917 48.4449C44.917 49.2638 45.2325 49.8786 45.8283 50.2241C46.1702 50.4217 46.5882 50.5188 47.0606 50.5188ZM52.7988 41.071C53.2231 41.071 53.5967 41.1571 53.8987 41.3321C54.4065 41.6259 54.6731 42.16 54.6731 42.8755C54.6821 44.9321 52.5285 47.8374 49.8725 49.3544C48.2984 50.2576 46.8375 50.4943 45.9634 49.9892C45.4556 49.6954 45.189 49.1613 45.189 48.4459C45.189 46.3856 47.3426 43.4794 49.9895 41.9669C51.0187 41.3775 51.999 41.071 52.7988 41.071ZM47.4605 47.9789C47.5893 47.9789 47.728 47.939 47.8667 47.861C48.3274 47.6007 48.6883 46.9796 48.6883 46.4455C48.6883 46.1662 48.5885 45.954 48.4063 45.8461C48.2186 45.7355 47.9774 45.7536 47.7244 45.8933C47.2701 46.1508 46.901 46.7855 46.901 47.3096C46.901 47.588 47.0035 47.8002 47.1885 47.9081C47.2692 47.9553 47.3617 47.9789 47.4605 47.9789ZM48.1361 46.0483C48.1868 46.0483 48.2312 46.0592 48.2693 46.0819C48.3636 46.1381 48.4163 46.2677 48.4163 46.4464C48.4163 46.8835 48.1098 47.4121 47.7325 47.6252C47.5757 47.7141 47.426 47.7331 47.3272 47.6742C47.2292 47.617 47.1749 47.4874 47.1749 47.3106C47.1749 46.8816 47.4877 46.3421 47.8586 46.1317C47.9583 46.0764 48.0544 46.0483 48.1361 46.0483ZM52.329 45.2186C52.4569 45.2186 52.5956 45.1787 52.7371 45.098C53.2031 44.835 53.5686 44.213 53.5686 43.6834C53.5686 43.4041 53.467 43.191 53.282 43.0831C53.0943 42.9734 52.8532 42.9906 52.6029 43.1321C52.1368 43.3951 51.7723 44.0162 51.7723 44.5467C51.7723 44.826 51.8738 45.0391 52.0579 45.147C52.1395 45.1941 52.2311 45.2186 52.329 45.2186ZM53.0109 43.2853C53.0617 43.2853 53.107 43.2962 53.1451 43.3189C53.2421 43.376 53.2957 43.5057 53.2957 43.6843C53.2957 44.1105 52.9783 44.6501 52.602 44.8623C52.4424 44.9529 52.2928 44.972 52.1948 44.913C52.0978 44.8568 52.0443 44.7262 52.0443 44.5476C52.0443 44.1214 52.3616 43.5818 52.7371 43.3697C52.835 43.3134 52.9293 43.2853 53.0109 43.2853Z" fill="#0B4D5E"/>
<path d="M48.1997 40.8523C49.8773 39.8975 51.3553 39.7125 52.2349 40.223L53.9578 41.2169C53.0782 40.7118 51.6001 40.8913 49.9226 41.8462C47.2294 43.3841 45.0531 46.3429 45.0531 48.4421C45.0531 49.2401 45.3705 49.8014 45.9055 50.1097L44.1827 49.1159C43.6477 48.813 43.3303 48.2517 43.3303 47.4546C43.3303 45.3491 45.4975 42.3902 48.1997 40.8578V40.8523Z" fill="#8AE5CC"/>
<path d="M45.9053 50.2458C45.9525 50.2458 45.9987 50.2213 46.0232 50.1778C46.0604 50.1134 46.0386 50.0299 45.9733 49.9919L45.9697 49.9901C45.4592 49.6944 45.1899 49.1585 45.1899 48.4422C45.1899 46.382 47.3435 43.4757 49.9904 41.9641C51.5618 41.07 53.019 40.8351 53.8914 41.3348C53.9567 41.3729 54.0401 41.3502 54.0764 41.2849C54.1136 41.2196 54.0918 41.1371 54.0265 41.099L52.3036 40.1052C51.3515 39.5548 49.7918 39.7887 48.1324 40.7336C48.1215 40.739 48.1134 40.7472 48.1043 40.7545C45.3948 42.3032 43.194 45.3029 43.194 47.4538C43.194 48.2771 43.5133 48.8919 44.1163 49.2329L45.8373 50.2267C45.8582 50.2394 45.8826 50.2448 45.9053 50.2448V50.2458ZM52.7978 40.8079C51.9472 40.8079 50.9217 41.1217 49.8553 41.7283C47.1322 43.2835 44.9169 46.2958 44.9169 48.4431C44.9169 48.8575 44.9986 49.2184 45.1554 49.5203L44.2514 48.998C43.7381 48.7078 43.467 48.1737 43.467 47.4547C43.467 45.3836 45.6206 42.4773 48.2675 40.9757C48.2784 40.9703 48.2866 40.963 48.2956 40.9548C49.8589 40.0725 51.3052 39.8404 52.1676 40.3409L52.9855 40.8125C52.9248 40.8098 52.8613 40.8079 52.7987 40.8079H52.7978Z" fill="#0B4D5E"/>
<path d="M28.6766 3.64259C25.0494 2.04846 22.5105 4.19845 22.9911 8.44855C23.4626 12.6987 26.7995 17.442 30.4266 19.0371C34.0447 20.6312 36.5928 18.4758 36.1122 14.2202C35.6316 9.9647 32.2946 5.23128 28.6766 3.63715V3.64259Z" fill="#8AE5CC"/>
<path d="M32.6737 19.6989C33.449 19.6989 34.1463 19.4858 34.7239 19.0615C35.9399 18.1674 36.4949 16.3973 36.2482 14.2056C35.764 9.92198 32.3926 5.126 28.7319 3.51283C28.7201 3.50739 28.7092 3.50467 28.6965 3.50285C27.0045 2.76926 25.4702 2.81098 24.373 3.61801C23.1615 4.51029 22.6092 6.27671 22.8559 8.46478C23.331 12.7493 26.7025 17.5489 30.3722 19.1621C31.1847 19.5203 31.9627 19.6989 32.6737 19.6989ZM28.6557 3.7776C32.2239 5.36992 35.5038 10.0516 35.9762 14.2356C36.2129 16.3284 35.6969 18.0069 34.5616 18.842C33.5369 19.5956 32.0879 19.62 30.481 18.9128C26.8902 17.334 23.5904 12.6333 23.1261 8.43394C22.8895 6.34561 23.4027 4.66989 24.5344 3.83746C25.5572 3.08392 27.009 3.05943 28.6213 3.76763C28.633 3.77216 28.6439 3.77579 28.6557 3.7776Z" fill="#0B4D5E"/>
<path d="M24.6596 3.59814L22.6284 4.84497C21.3589 5.63025 20.697 7.34316 20.969 9.70624C21.4496 13.9618 24.7775 18.7006 28.4046 20.2948C30.0096 21.0075 31.4061 20.9739 32.4217 20.3455L34.4438 19.0987C33.4282 19.7217 32.0408 19.7561 30.4267 19.0488C26.8087 17.4538 23.4808 12.7104 22.9912 8.46032C22.7191 6.09634 23.3901 4.38433 24.6596 3.59814Z" fill="#0B4D5E"/>
<path d="M30.6479 20.9566C31.3335 20.9566 31.9583 20.7916 32.4933 20.4615L34.5145 19.2147C34.578 19.1757 34.5979 19.0914 34.5589 19.0279C34.519 18.9635 34.4347 18.9445 34.3721 18.9834C33.3474 19.6118 31.9999 19.591 30.4811 18.9254C26.9102 17.3503 23.6104 12.6496 23.1262 8.4457C22.8714 6.22862 23.4554 4.50392 24.7312 3.71501C24.7947 3.67602 24.8146 3.5917 24.7756 3.52822C24.7357 3.46384 24.6514 3.44479 24.5888 3.48378L22.5576 4.73061C21.1938 5.57392 20.5663 7.39384 20.8338 9.72337C21.319 14.0134 24.6904 18.8121 28.3502 20.4207C29.1572 20.7789 29.9353 20.9575 30.6489 20.9575L30.6479 20.9566ZM33.2595 19.669L32.35 20.2303C31.3371 20.8569 29.9543 20.8351 28.459 20.1713C24.8781 18.5972 21.5783 13.8964 21.1041 9.69163C20.8484 7.47092 21.4296 5.74622 22.7 4.96094L23.6322 4.38875C22.9412 5.36536 22.6619 6.78721 22.8559 8.47654C23.351 12.7656 26.7225 17.5643 30.3723 19.1739C31.4232 19.6345 32.4008 19.7996 33.2595 19.669Z" fill="#0B4D5E"/>
<path d="M20.969 9.70689C20.9055 9.18458 20.9055 8.69039 20.9236 8.23609L22.9548 6.98926C22.9185 7.4499 22.9276 7.93866 22.9911 8.46097C23.0546 9.03859 23.1815 9.628 23.3447 10.212L21.3226 11.4588C21.1594 10.8748 21.0324 10.2854 20.969 9.70689Z" fill="#8AE5CC"/>
<path d="M21.3226 11.5949C21.3471 11.5949 21.3724 11.5885 21.3942 11.5749L23.4154 10.3281C23.4671 10.2963 23.4907 10.2338 23.4744 10.1757C23.2985 9.54462 23.1842 8.97879 23.1253 8.44651C23.0645 7.95141 23.0527 7.46537 23.089 7.00019C23.0935 6.94941 23.0682 6.90044 23.0246 6.87324C22.982 6.84694 22.9258 6.84694 22.8832 6.87324L20.852 8.12007C20.813 8.14364 20.7894 8.18535 20.7876 8.23069C20.7731 8.59068 20.7631 9.13657 20.8329 9.72235C20.8937 10.2719 21.0107 10.8522 21.192 11.496C21.2038 11.5368 21.2337 11.5704 21.2736 11.5858C21.2899 11.5922 21.3054 11.5949 21.3226 11.5949ZM23.186 10.1504L21.406 11.2485C21.2564 10.6881 21.1576 10.1776 21.1041 9.69243C21.0415 9.16377 21.0461 8.66413 21.0569 8.31502L22.8043 7.2423C22.788 7.644 22.8061 8.05841 22.8578 8.47825C22.914 8.99602 23.0228 9.54462 23.187 10.1504H23.186Z" fill="#0B4D5E"/>
<path d="M24.6052 13.2664L22.5831 14.5123C22.3201 14.0463 22.0934 13.5584 21.8849 13.0697L23.9161 11.8237C24.1246 12.3116 24.3513 12.7949 24.6052 13.2664Z" fill="#8AE5CC"/>
<path d="M22.583 14.6492C22.6075 14.6492 22.6328 14.6428 22.6546 14.6292L24.6758 13.3833C24.7366 13.3452 24.7583 13.2663 24.7239 13.2029C24.4899 12.7676 24.2669 12.2988 24.0402 11.7701C24.0248 11.7339 23.9939 11.7058 23.9568 11.694C23.9169 11.6831 23.8769 11.6867 23.8443 11.7076L21.8131 12.9535C21.756 12.9889 21.7324 13.0614 21.7587 13.1231C22.0063 13.7034 22.2311 14.1659 22.4633 14.5794C22.4823 14.612 22.5122 14.6356 22.5485 14.6437C22.5594 14.6465 22.5702 14.6483 22.582 14.6483L22.583 14.6492ZM24.4247 13.2183L22.632 14.3227C22.4424 13.9764 22.2565 13.5892 22.0552 13.1249L23.8516 12.0222C24.0411 12.4557 24.2288 12.8492 24.4237 13.2183H24.4247Z" fill="#0B4D5E"/>
</svg>
