<svg width="64" height="64" viewBox="0 0 64 64" fill="none" xmlns="http://www.w3.org/2000/svg">
<path d="M50.4982 34.4615L21.9527 18.1223L18.0447 24.4738L47.8644 41.9876L50.4982 34.4615Z" fill="#0B4D5E"/>
<path d="M47.8655 42.1225C47.8419 42.1225 47.8175 42.1161 47.7966 42.1035L17.9768 24.5906C17.946 24.5716 17.9225 24.5417 17.9143 24.5063C17.9062 24.471 17.9116 24.4329 17.9306 24.4021L21.8387 18.0506C21.8768 17.9881 21.9574 17.9681 22.0218 18.0035L50.5672 34.3426C50.6243 34.3753 50.6497 34.4441 50.628 34.5058L47.9951 42.0319C47.9815 42.0699 47.9516 42.1008 47.9135 42.1143C47.8981 42.1198 47.8818 42.1225 47.8655 42.1225ZM18.2342 24.4266L47.7921 41.7853L50.3334 34.5221L22 18.3044L18.2342 24.4257V24.4266Z" fill="#0B4D5E"/>
<path d="M47.8654 45.3773L18.0457 28.1907V24.4739L47.8654 41.9877V45.3773Z" fill="#0B4D5E"/>
<path d="M47.8654 45.514C47.8427 45.514 47.8183 45.5086 47.7974 45.4959L17.9776 28.3094C17.936 28.2849 17.9097 28.2405 17.9097 28.1915V24.4747C17.9097 24.4258 17.936 24.3804 17.9785 24.3569C18.0193 24.3324 18.0728 24.3333 18.1145 24.3569L47.9343 41.8697C47.976 41.8942 48.0013 41.9386 48.0013 41.9867V45.3772C48.0013 45.4261 47.975 45.4705 47.9334 45.495C47.9125 45.5068 47.889 45.514 47.8654 45.514ZM18.1816 28.1118L47.7294 45.1425V42.0646L18.1816 24.7112V28.1118Z" fill="#0B4D5E"/>
<path d="M47.8655 45.3773L60.8639 37.6772V33.9495L47.8655 41.9858V45.3773Z" fill="#8AE5CC"/>
<path d="M47.8657 45.5143C47.843 45.5143 47.8195 45.5088 47.7986 45.4961C47.756 45.4717 47.7297 45.4263 47.7297 45.3783V41.9878C47.7297 41.9407 47.7542 41.8972 47.7941 41.8727L60.7925 33.8363C60.8351 33.81 60.8877 33.8091 60.9303 33.8336C60.9729 33.8581 61.0001 33.9034 61.0001 33.9523V37.6791C61.0001 37.7272 60.9747 37.7716 60.933 37.7961L47.9346 45.4961C47.9137 45.5088 47.8893 45.5143 47.8657 45.5143ZM48.0016 42.063V45.1399L60.7273 37.6012V34.1952L48.0016 42.063Z" fill="#0B4D5E"/>
<path d="M29.2595 13.7214L21.9536 18.1225L50.4991 34.4617L57.7207 30.1421L29.2595 13.7214Z" fill="#0B4D5E"/>
<path d="M50.4983 34.5976C50.4757 34.5976 50.4512 34.5921 50.4313 34.5794L21.8858 18.2403C21.8432 18.2158 21.8178 18.1714 21.8169 18.1234C21.8169 18.0753 21.8414 18.03 21.8831 18.0056L29.1898 13.6044C29.2315 13.5791 29.2841 13.5782 29.3276 13.6036L57.7879 30.0243C57.8296 30.0478 57.8549 30.0932 57.8558 30.1412C57.8558 30.1892 57.8314 30.2346 57.7897 30.259L50.5681 34.5785C50.5473 34.5912 50.5219 34.5976 50.4983 34.5976ZM22.2211 18.1197L50.4965 34.3039L57.4516 30.1439L29.2614 13.8791L22.2211 18.1197Z" fill="#0B4D5E"/>
<path d="M57.7198 30.1421L50.4983 34.4616L47.8645 41.9877L60.863 33.9514L57.7198 30.1421Z" fill="#8AE5CC"/>
<path d="M47.8657 42.1227C47.8358 42.1227 47.8059 42.1128 47.7805 42.0928C47.7352 42.0566 47.7189 41.9968 47.737 41.9424L50.3699 34.4163C50.3807 34.3864 50.4007 34.3601 50.4279 34.3438L57.6494 30.0243C57.7074 29.9907 57.7808 30.0034 57.8234 30.0542L60.9675 33.8635C60.9928 33.8943 61.0037 33.9332 60.9974 33.9722C60.9901 34.0112 60.9684 34.0456 60.9348 34.0655L47.9364 42.1019C47.9146 42.1155 47.8893 42.1219 47.8648 42.1219L47.8657 42.1227ZM50.6109 34.5523L48.1204 41.6696L60.6593 33.9169L57.6902 30.3179L50.6109 34.5523Z" fill="#0B4D5E"/>
<path d="M33.2562 24.5236L32.2593 23.8919V15.5447L33.2336 16.1003L33.2562 24.5236Z" fill="#8AE5CC"/>
<path d="M33.2564 24.6588C33.231 24.6588 33.2056 24.6515 33.1839 24.6379L32.186 24.0062C32.1461 23.9808 32.1226 23.9373 32.1226 23.8911V15.5448C32.1226 15.4967 32.1488 15.4514 32.1905 15.427C32.2322 15.4034 32.2848 15.4025 32.3256 15.427L33.2999 15.9826C33.3425 16.007 33.3678 16.0514 33.3687 16.1004L33.3914 24.5228C33.3914 24.5726 33.3642 24.618 33.3207 24.6424C33.3008 24.6533 33.2781 24.6597 33.2555 24.6597L33.2564 24.6588ZM32.3954 23.8168L33.1204 24.2763L33.0987 16.1801L32.3963 15.7795V23.8177L32.3954 23.8168Z" fill="#0B4D5E"/>
<path d="M47.6705 32.7938L44.5881 31.0283V22.605L47.6705 24.3596V32.7938Z" fill="#8AE5CC"/>
<path d="M47.6706 32.9297C47.6479 32.9297 47.6234 32.9243 47.6035 32.9116L44.522 31.146C44.4794 31.1216 44.4531 31.0763 44.4531 31.0283V22.6058C44.4531 22.5578 44.4785 22.5125 44.5211 22.488C44.5628 22.4644 44.6135 22.4635 44.6561 22.488L47.7376 24.2427C47.7802 24.2671 47.8065 24.3124 47.8065 24.3604V32.7947C47.8065 32.8436 47.7802 32.888 47.7385 32.9125C47.7177 32.9243 47.6941 32.9306 47.6706 32.9306V32.9297ZM44.725 30.9494L47.5346 32.559V24.4393L44.725 22.8396V30.9503V30.9494Z" fill="#0B4D5E"/>
<path d="M33.8906 24.839L36.973 26.6481V18.2465L33.8906 16.481V24.839Z" fill="#8AE5CC"/>
<path d="M36.9723 26.7838C36.9488 26.7838 36.9243 26.7775 36.9034 26.7648L33.822 24.9558C33.7803 24.9314 33.7549 24.8869 33.7549 24.8389V16.4808C33.7549 16.4319 33.7812 16.3875 33.8229 16.363C33.8645 16.3394 33.9171 16.3385 33.9579 16.363L37.0394 18.1285C37.082 18.153 37.1083 18.1983 37.1083 18.2463V26.6479C37.1083 26.6969 37.082 26.7422 37.0394 26.7658C37.0195 26.7775 36.995 26.7838 36.9723 26.7838ZM34.0268 24.7619L36.8364 26.4113V18.3261L34.0268 16.7165V24.7619Z" fill="#0B4D5E"/>
<path d="M50.44 34.3997L49.2437 33.7136L49.2609 25.2903L51.3246 26.4667L51.3463 33.855L50.44 34.3997Z" fill="#8AE5CC"/>
<path d="M50.4403 34.5348C50.4176 34.5348 50.3931 34.5294 50.3732 34.5167L49.1778 33.8306C49.1352 33.8071 49.1089 33.7617 49.1089 33.7128L49.1261 25.2894C49.1261 25.2414 49.1524 25.1961 49.1941 25.1726C49.2367 25.149 49.2883 25.1481 49.3291 25.1726L51.3928 26.3498C51.4354 26.3743 51.4608 26.4187 51.4617 26.4676L51.4825 33.8551C51.4825 33.9031 51.4572 33.9475 51.4164 33.972L50.5101 34.5167C50.4892 34.5303 50.4638 34.5358 50.4403 34.5358V34.5348ZM49.3808 33.634L50.4385 34.2412L51.2106 33.7771L51.1907 26.5456L49.3971 25.5233L49.3808 33.634Z" fill="#0B4D5E"/>
<path d="M35.5885 43.3462L7.04307 27.0071L3.13501 33.3586L32.9548 50.8723L35.5885 43.3462Z" fill="#8AE5CC"/>
<path d="M32.9556 51.0084C32.932 51.0084 32.9076 51.0021 32.8867 50.9894L3.06694 33.4756C3.03612 33.4566 3.01256 33.4267 3.0044 33.3914C2.99625 33.356 3.00168 33.3179 3.02072 33.2871L6.92877 26.9356C6.96684 26.8731 7.04841 26.8531 7.11185 26.8885L35.6573 43.2276C35.7144 43.2603 35.7398 43.3291 35.7181 43.3908L33.0852 50.9169C33.0716 50.9549 33.0417 50.9858 33.0036 50.9994C32.9882 51.0048 32.9728 51.0075 32.9565 51.0075L32.9556 51.0084ZM3.32343 33.3116L32.8813 50.6713L35.4226 43.408L7.08919 27.1903L3.32343 33.3116Z" fill="#0B4D5E"/>
<path d="M32.9548 54.262L3.13501 37.0755V33.3586L32.9548 50.8724V54.2629V54.262Z" fill="#0B4D5E"/>
<path d="M32.9557 54.398C32.9331 54.398 32.9086 54.3925 32.8877 54.3798L3.06797 37.1933C3.02628 37.1688 3 37.1244 3 37.0755V33.3577C3 33.3088 3.02628 33.2635 3.06888 33.2399C3.11057 33.2155 3.16314 33.2164 3.20483 33.2399L33.0246 50.7537C33.0663 50.7781 33.0917 50.8225 33.0917 50.8705V54.2611C33.0917 54.3101 33.0654 54.3545 33.0237 54.3789C33.0028 54.3907 32.9793 54.398 32.9557 54.398ZM3.2719 36.9975L32.8198 54.0273V50.9503L3.2719 33.597V36.9975Z" fill="#0B4D5E"/>
<path d="M32.9548 54.2622L45.9533 46.5621V42.8345L32.9548 50.8708V54.2622Z" fill="#8AE5CC"/>
<path d="M32.9558 54.398C32.9331 54.398 32.9096 54.3925 32.8887 54.3798C32.8461 54.3554 32.8198 54.31 32.8198 54.262V50.8715C32.8198 50.8244 32.8443 50.7808 32.8842 50.7564L45.8826 42.7191C45.9252 42.6929 45.9778 42.692 46.0204 42.7164C46.063 42.7409 46.0902 42.7862 46.0902 42.8351V46.5628C46.0902 46.6109 46.0648 46.6553 46.0231 46.6798L33.0247 54.3798C33.0038 54.3925 32.9793 54.398 32.9558 54.398ZM33.0917 50.9476V54.0236L45.8174 46.4849V43.0789L33.0917 50.9476Z" fill="#0B4D5E"/>
<path d="M14.3498 22.6062L7.04395 27.0073L35.5894 43.3465L42.811 39.0269L14.3498 22.6062Z" fill="#0B4D5E"/>
<path d="M35.5887 43.4815C35.566 43.4815 35.5415 43.4761 35.5216 43.4634L6.97611 27.1242C6.93351 27.0997 6.90813 27.0554 6.90723 27.0073C6.90723 26.9593 6.9317 26.914 6.97339 26.8895L14.2801 22.4884C14.3218 22.4639 14.3744 22.4621 14.4179 22.4875L42.8782 38.9082C42.9199 38.9318 42.9453 38.9771 42.9462 39.0251C42.9462 39.0732 42.9217 39.1185 42.88 39.143L35.6584 43.4625C35.6376 43.4752 35.6122 43.4815 35.5887 43.4815ZM7.31145 27.0037L35.5868 43.1878L42.542 39.0279L14.3517 22.763L7.31145 27.0037Z" fill="#0B4D5E"/>
<path d="M42.8102 39.0269L35.5886 43.3464L32.9548 50.8725L45.9533 42.8361L42.8102 39.0269Z" fill="#8AE5CC"/>
<path d="M32.9558 51.0085C32.9259 51.0085 32.896 50.9985 32.8706 50.9786C32.8253 50.9423 32.809 50.8825 32.8271 50.8281L35.4599 43.302C35.4708 43.2721 35.4908 43.2458 35.5179 43.2295L42.7395 38.91C42.7966 38.8765 42.8718 38.8883 42.9135 38.9399L46.0576 42.7491C46.0829 42.78 46.0938 42.819 46.0875 42.858C46.0802 42.8969 46.0585 42.9313 46.0249 42.9513L33.0265 50.9885C33.0047 51.0021 32.9802 51.0085 32.9558 51.0085ZM35.701 43.4371L33.2105 50.5544L45.7494 42.8018L42.7803 39.2027L35.701 43.4371Z" fill="#0B4D5E"/>
<path d="M18.3466 33.4086L17.3496 32.7769V24.4297L18.3239 24.9852L18.3466 33.4086Z" fill="#8AE5CC"/>
<path d="M18.3465 33.5445C18.3211 33.5445 18.2957 33.5372 18.2739 33.5237L17.2761 32.8919C17.2362 32.8666 17.2126 32.823 17.2126 32.7768V24.4305C17.2126 24.3825 17.2389 24.3372 17.2806 24.3127C17.3223 24.2891 17.3731 24.2882 17.4157 24.3127L18.39 24.8683C18.4326 24.8928 18.4579 24.9371 18.4588 24.9861L18.4815 33.4094C18.4815 33.4593 18.4543 33.5046 18.4108 33.5291C18.3909 33.54 18.3682 33.5463 18.3455 33.5463L18.3465 33.5445ZM17.4845 32.7016L18.2096 33.1611L18.1878 25.064L17.4854 24.6635L17.4845 32.7016Z" fill="#0B4D5E"/>
<path d="M32.7609 41.6786L29.6785 39.9131V31.4897L32.7609 33.2444V41.6786Z" fill="#8AE5CC"/>
<path d="M32.7609 41.8147C32.7382 41.8147 32.7138 41.8092 32.6938 41.7965L29.6123 40.031C29.5697 40.0066 29.5435 39.9612 29.5435 39.9132V31.4898C29.5435 31.4418 29.5688 31.3965 29.6114 31.372C29.6531 31.3485 29.7039 31.3475 29.7465 31.372L32.828 33.1267C32.8706 33.1512 32.8968 33.1964 32.8968 33.2445V41.6787C32.8968 41.7276 32.8706 41.7721 32.8289 41.7965C32.808 41.8083 32.7845 41.8147 32.7609 41.8147ZM29.8154 39.8344L32.6249 41.4439V33.3242L29.8154 31.7237V39.8344Z" fill="#0B4D5E"/>
<path d="M18.981 33.7239L22.0634 35.5328V27.1312L18.981 25.3657V33.7239Z" fill="#8AE5CC"/>
<path d="M22.0624 35.6689C22.0388 35.6689 22.0144 35.6626 21.9935 35.6499L18.912 33.8408C18.8703 33.8164 18.845 33.772 18.845 33.724V25.3658C18.845 25.3169 18.8713 25.2725 18.9129 25.248C18.9546 25.2244 19.0072 25.2235 19.048 25.248L22.1295 27.0135C22.1721 27.038 22.1984 27.0833 22.1984 27.1313V35.5329C22.1984 35.5819 22.1721 35.6272 22.1295 35.6508C22.1095 35.6626 22.0851 35.6689 22.0624 35.6689ZM19.1169 33.646L21.9265 35.2955V27.2102L19.1169 25.6006V33.646Z" fill="#0B4D5E"/>
<path d="M35.5757 43.3463L34.3794 42.6602L34.3966 34.2368L36.4603 35.4132L36.4821 42.8016L35.5757 43.3463Z" fill="#8AE5CC"/>
<path d="M35.5748 43.4814C35.5521 43.4814 35.5277 43.4759 35.5077 43.4633L34.3123 42.7772C34.2697 42.7536 34.2434 42.7083 34.2434 42.6593L34.2615 34.236C34.2615 34.188 34.2878 34.1427 34.3295 34.1191C34.3712 34.0955 34.4238 34.0946 34.4646 34.1191L36.5273 35.2955C36.5699 35.3199 36.5953 35.3644 36.5962 35.4133L36.6171 42.8017C36.6171 42.8497 36.5917 42.8941 36.5509 42.9185L35.6446 43.4633C35.6237 43.4768 35.5984 43.4814 35.5748 43.4814ZM34.5153 42.5805L35.573 43.1877L36.3452 42.7237L36.3252 35.4912L34.5325 34.4689L34.5153 42.5805Z" fill="#0B4D5E"/>
<path d="M43.1943 41.7095H25.3489V44.7013H43.1943V41.7095Z" fill="#8AE5CC"/>
<path d="M43.1944 44.8372H25.3498C25.2746 44.8372 25.2139 44.7765 25.2139 44.7012V41.7095C25.2139 41.6342 25.2746 41.5735 25.3498 41.5735H43.1944C43.2696 41.5735 43.3303 41.6342 43.3303 41.7095V44.7012C43.3303 44.7765 43.2696 44.8372 43.1944 44.8372ZM25.4849 44.5653H43.0575V41.8454H25.4849V44.5653Z" fill="#0B4D5E"/>
<path d="M43.1953 16.1288L38.9755 13.137H29.7455L25.3499 16.2103V41.7096H43.1953V16.1288Z" fill="#0B4D5E"/>
<path d="M43.1953 41.8446H25.3508C25.2756 41.8446 25.2148 41.7839 25.2148 41.7086V16.2102C25.2148 16.1658 25.2366 16.1241 25.2728 16.0987L29.6685 13.0245C29.6912 13.0081 29.7193 13 29.7464 13H38.9773C39.0054 13 39.0335 13.009 39.0562 13.0245L43.2751 16.0162C43.3104 16.0416 43.3322 16.0833 43.3322 16.1277V41.7086C43.3322 41.7839 43.2706 41.8446 43.1953 41.8446ZM25.4858 41.5727H43.0585V16.1984L38.932 13.2719H29.7872L25.4858 16.2809V41.5727Z" fill="#0B4D5E"/>
<path d="M38.9744 34.3156H29.7436L25.3479 41.6985L43.1934 41.7085L38.9735 34.3147L38.9744 34.3156Z" fill="#0B4D5E"/>
<path d="M43.1943 41.8444L25.3497 41.8345C25.3008 41.8345 25.2555 41.8082 25.231 41.7656C25.2074 41.723 25.2083 41.6713 25.2328 41.6287L29.6285 34.2458C29.6529 34.2051 29.6973 34.1797 29.7454 34.1797H38.9763C39.0252 34.1797 39.0705 34.206 39.0941 34.2486L43.313 41.6414C43.3375 41.6831 43.3366 41.7356 43.313 41.7764C43.2885 41.8181 43.2432 41.8444 43.1943 41.8444ZM25.5881 41.5626L42.9595 41.5725L38.8965 34.4516H29.8215L25.5881 41.5626Z" fill="#0B4D5E"/>
<path d="M38.9753 13.136H29.7454V34.2333H38.9744V13.136H38.9753Z" fill="#8AE5CC"/>
<path d="M38.9745 34.37H29.7436C29.7074 34.37 29.6729 34.3555 29.6475 34.3301C29.6231 34.3047 29.6077 34.2703 29.6077 34.2341V13.1367C29.6077 13.0615 29.6693 13.0007 29.7445 13.0007H38.9754C39.0117 13.0007 39.0461 13.0152 39.0715 13.0406C39.0959 13.066 39.1113 13.1004 39.1113 13.1367V34.2341C39.1113 34.3093 39.0497 34.37 38.9745 34.37ZM29.8805 34.0981H38.8385V13.2717H29.8814L29.8805 34.0981Z" fill="#0B4D5E"/>
<path d="M43.1942 41.7093V16.21L38.9744 13.2183V34.408L43.1942 41.7093Z" fill="#F0F4FF"/>
<path d="M43.1944 41.8445C43.1464 41.8445 43.101 41.8191 43.0766 41.7765L38.8577 34.4752C38.8459 34.4544 38.8386 34.4308 38.8386 34.4072V13.2174C38.8386 13.1667 38.8658 13.1205 38.9111 13.0969C38.9583 13.0733 39.0099 13.0778 39.0525 13.1069L43.2723 16.0986C43.3077 16.124 43.3294 16.1657 43.3294 16.2101V41.7086C43.3294 41.7702 43.2878 41.8236 43.2288 41.8399C43.2171 41.8427 43.2062 41.8445 43.1944 41.8445ZM39.1114 34.3719L43.0575 41.2019V16.2808L39.1105 13.4812L39.1114 34.3719Z" fill="#0B4D5E"/>
<path d="M29.7444 34.1534L38.9762 26.7877V24.1775L29.7444 31.5432V34.1534Z" fill="#F0F4FF"/>
<path d="M29.7443 34.2895C29.7244 34.2895 29.7045 34.2849 29.6854 34.2758C29.6383 34.2532 29.6084 34.2052 29.6084 34.1535V31.5433C29.6084 31.5025 29.6274 31.4627 29.6601 31.4373L38.8918 24.0716C38.9335 24.039 38.9879 24.0335 39.0359 24.0553C39.0831 24.0779 39.113 24.126 39.113 24.1776V26.7879C39.113 26.8286 39.094 26.8685 39.0613 26.8939L29.8295 34.2596C29.8051 34.2786 29.7743 34.2895 29.7443 34.2895ZM29.8803 31.6085V33.8716L38.8393 26.7226V24.4595L29.8803 31.6085Z" fill="#0B4D5E"/>
<path d="M29.7444 29.756L38.9762 22.3903V18.2847L29.7444 25.6504V29.756Z" fill="#F0F4FF"/>
<path d="M29.7443 29.8918C29.7244 29.8918 29.7045 29.8873 29.6854 29.8782C29.6383 29.8556 29.6084 29.8075 29.6084 29.7559V25.6503C29.6084 25.6095 29.6274 25.5696 29.6601 25.5442L38.8918 18.1785C38.9335 18.1459 38.9879 18.1405 39.0359 18.1622C39.0831 18.1849 39.113 18.2329 39.113 18.2846V22.3902C39.113 22.431 39.094 22.4709 39.0613 22.4963L29.8295 29.8619C29.8051 29.8809 29.7743 29.8918 29.7443 29.8918ZM29.8803 25.7155V29.4731L38.8393 22.3241V18.5665L29.8803 25.7155Z" fill="#0B4D5E"/>
<path d="M29.7444 21.0664L38.9762 13.6028V13.137H36.8318L29.7444 18.8241V21.0664Z" fill="#F0F4FF"/>
<path d="M29.7443 21.2013C29.7244 21.2013 29.7045 21.1968 29.6863 21.1877C29.6383 21.165 29.6084 21.117 29.6084 21.0653V18.8231C29.6084 18.7823 29.6274 18.7433 29.6601 18.7171L36.7466 13.0299C36.7701 13.0109 36.801 13 36.8318 13H38.9761C39.0514 13 39.1121 13.0607 39.1121 13.136V13.6018C39.1121 13.6426 39.093 13.6816 39.0613 13.7078L29.8295 21.1714C29.8051 21.1913 29.7743 21.2013 29.7443 21.2013ZM29.8803 18.8884V20.7808L38.8393 13.5365V13.2719H36.8789L29.8803 18.8884Z" fill="#0B4D5E"/>
<path d="M49.0056 15.6919C53.2793 15.4543 53.4477 15.2822 53.6234 11.0049C53.861 15.2785 54.0331 15.4469 58.3104 15.6263C54.0368 15.8639 53.8684 16.036 53.6889 20.3133C53.4513 16.0397 53.2793 15.8713 49.0056 15.6919Z" fill="#F0F4FF"/>
<path d="M53.5976 20.3182C53.3619 16.0881 53.2326 15.9613 49.0019 15.7837L49 15.6C53.2302 15.3649 53.3569 15.2357 53.5315 11.0012L53.7146 11C53.9503 15.2302 54.0795 15.3569 58.314 15.5345L58.3158 15.7182C54.0856 15.9534 53.9589 16.082 53.7807 20.317L53.5976 20.3182ZM50.4948 15.6815C52.9448 15.8737 53.4537 16.3753 53.6791 18.8241C53.8707 16.371 54.3729 15.8621 56.8205 15.6362C54.371 15.4445 53.8603 14.943 53.6344 12.5009C53.4439 14.9479 52.9412 15.4561 50.4948 15.6815Z" fill="#0B4D5E"/>
</svg>
