<svg width="64" height="64" viewBox="0 0 64 64" fill="none" xmlns="http://www.w3.org/2000/svg">
<path d="M49.3645 43.5381L50.7987 47.8436L46.3904 45.215L49.3645 43.5381Z" fill="#0B4D5E"/>
<path d="M50.7978 47.9789C50.7744 47.9789 50.75 47.9726 50.7284 47.96L46.32 45.3314C46.2785 45.307 46.2542 45.2619 46.2542 45.2132C46.2542 45.1654 46.2812 45.1203 46.3236 45.0969L49.2977 43.4199C49.332 43.4001 49.3744 43.3983 49.4123 43.4118C49.4501 43.4262 49.479 43.4569 49.4925 43.4957L50.9268 47.8012C50.9449 47.8554 50.9268 47.914 50.8826 47.9492C50.8583 47.969 50.8276 47.9789 50.7978 47.9789ZM46.6592 45.2177L50.5543 47.5405L49.2869 43.7365L46.6592 45.2177Z" fill="#0B4D5E"/>
<path d="M14.1038 47.1587L12.8806 51.0683L16.497 48.5867L14.1038 47.1587Z" fill="#8AE5CC"/>
<path d="M12.8805 51.2036C12.8525 51.2036 12.8246 51.1946 12.8002 51.1775C12.7533 51.1432 12.7343 51.0836 12.7506 51.0277L13.9738 47.1191C13.9864 47.0794 14.0162 47.0478 14.055 47.0334C14.0938 47.019 14.138 47.0217 14.1731 47.0433L16.5654 48.4713C16.6051 48.4947 16.6294 48.5372 16.6312 48.5832C16.6312 48.6292 16.6105 48.6734 16.5726 48.6986L12.9563 51.1802C12.9337 51.1964 12.9057 51.2036 12.8796 51.2036H12.8805ZM14.1812 47.3626L13.1258 50.7346L16.2452 48.5939L14.1812 47.3626Z" fill="#0B4D5E"/>
<path fill-rule="evenodd" clip-rule="evenodd" d="M11.1343 17.3431L27.9378 27.4588C28.3077 27.6743 28.7262 27.7871 29.152 27.7871C29.5778 27.7871 29.9972 27.6734 30.3662 27.4588L52.8121 13.918V46.6077L50.7888 47.8318L49.3635 43.5262L33.7372 52.3754L32.3642 58.9361L29.1529 60.862L26.417 59.2419L25.3435 53.9847L14.1102 47.1777L12.896 51.0756L11.1361 50.0328V17.3431H11.1343Z" fill="#8AE5CC"/>
<path d="M29.1521 60.9982C29.1287 60.9982 29.1043 60.9919 29.0836 60.9793L26.3476 59.3592C26.3142 59.3402 26.2917 59.3069 26.2845 59.2699L25.2219 54.0704L14.187 47.3834L13.0242 51.1162C13.0116 51.1558 12.9818 51.1874 12.943 51.2028C12.9051 51.2172 12.8618 51.2145 12.8258 51.1929L11.0668 50.1509C11.0253 50.1266 11 50.0824 11 50.0346V17.344C11 17.2953 11.0262 17.2502 11.0686 17.2267C11.1119 17.2023 11.1633 17.2024 11.2048 17.2285L28.0074 27.3442C28.702 27.7474 29.6032 27.7483 30.2986 27.3442L52.7428 13.8043C52.7842 13.7791 52.8366 13.7791 52.879 13.8025C52.9214 13.8269 52.9475 13.872 52.9475 13.9207V46.6104C52.9475 46.6582 52.9223 46.7015 52.8826 46.7258L50.8593 47.9499C50.8232 47.9707 50.7808 47.9752 50.742 47.9608C50.7032 47.9463 50.6734 47.9157 50.6599 47.8769L49.287 43.7274L33.8573 52.4656L32.497 58.9668C32.4897 59.0038 32.4672 59.0354 32.4347 59.0552L29.2225 60.981C29.2017 60.9946 29.1765 61 29.153 61L29.1521 60.9982ZM26.5371 59.1571L29.1521 60.705L32.2435 58.8513L33.6047 52.3483C33.6128 52.3105 33.6363 52.2771 33.6696 52.2582L49.296 43.4081C49.3321 43.3873 49.3736 43.3855 49.4115 43.3991C49.4493 43.4135 49.4782 43.4442 49.4917 43.483L50.8638 47.6279L52.6769 46.531V14.157L30.4367 27.5742C29.6564 28.0307 28.6497 28.0298 27.8703 27.5742L11.2715 17.5812V49.9552L12.8167 50.8708L13.9804 47.1363C13.993 47.0966 14.0228 47.0641 14.0625 47.0497C14.1004 47.0334 14.1446 47.0388 14.1807 47.0605L25.414 53.8674C25.4456 53.8873 25.469 53.9197 25.4753 53.9567L26.538 59.1553L26.5371 59.1571Z" fill="#0B4D5E"/>
<path d="M52.821 13.9641L30.3931 27.4589C30.0161 27.6853 29.5885 27.799 29.1528 27.799C28.7171 27.799 28.2895 27.6853 27.9125 27.4589L11.4923 17.6751C11.0828 17.4316 11.0818 16.8389 11.4905 16.5926L33.5611 3.3234C33.7704 3.19892 34.0086 3.13037 34.2521 3.13037C34.4957 3.13037 34.7338 3.19802 34.9431 3.3234L52.8219 13.9632L52.821 13.9641Z" fill="#F0F4FF"/>
<path d="M29.152 27.9342C28.6847 27.9342 28.231 27.8097 27.8413 27.5751L11.422 17.7923C11.1884 17.6534 11.0495 17.408 11.0486 17.1356C11.0477 16.8632 11.1857 16.6178 11.4193 16.478L33.4909 3.20871C33.9582 2.92998 34.5445 2.93088 35.0118 3.20871L52.8906 13.8485C52.9312 13.8728 52.9555 13.9171 52.9564 13.964C52.9564 14.0118 52.9312 14.056 52.8906 14.0803L30.4627 27.5751C30.0721 27.8106 29.6175 27.9342 29.152 27.9342ZM34.2504 3.26647C34.0357 3.26647 33.8202 3.3269 33.6298 3.44056L11.5583 16.7089C11.4076 16.8 11.3183 16.9588 11.3183 17.1347C11.3183 17.3106 11.4094 17.4694 11.561 17.5587L27.9802 27.3424C28.6775 27.7619 29.6247 27.7628 30.3229 27.3424L52.5568 13.9631L34.872 3.43874C34.6807 3.32508 34.466 3.26465 34.2513 3.26465L34.2504 3.26647Z" fill="#0B4D5E"/>
<path fill-rule="evenodd" clip-rule="evenodd" d="M28.8624 27.7493C28.5386 27.7096 28.222 27.6257 27.9378 27.4597L11.1343 17.344V50.0346L12.8942 51.0774L14.1084 47.1796L25.3417 53.9865L26.4151 59.2446L28.8624 60.6933V27.7511V27.7493Z" fill="#0B4D5E"/>
<path d="M28.8626 60.8268C28.8391 60.8268 28.8148 60.8205 28.794 60.8079L26.3476 59.3592C26.3142 59.3402 26.2917 59.3068 26.2845 59.2699L25.2219 54.0704L14.187 47.3834L13.0242 51.1161C13.0116 51.1558 12.9818 51.1874 12.943 51.2028C12.9051 51.2172 12.8618 51.2145 12.8258 51.1928L11.0668 50.1501C11.0253 50.1257 11 50.0815 11 50.0337V17.3431C11 17.2944 11.0262 17.2493 11.0686 17.2258C11.1119 17.2014 11.1633 17.2015 11.2048 17.2276L28.0074 27.3433C28.2483 27.4831 28.5333 27.5724 28.8797 27.6148C28.9474 27.623 28.9988 27.6807 28.9988 27.7492V60.6915C28.9988 60.7402 28.9726 60.7853 28.9302 60.8088C28.9095 60.8205 28.886 60.8268 28.8635 60.8268H28.8626ZM26.5371 59.1562L28.7273 60.4534V27.8665C28.3971 27.8142 28.1148 27.7186 27.8703 27.5751L11.2715 17.5821V49.9561L12.8167 50.8726L13.9804 47.1381C13.993 47.0984 14.0228 47.0659 14.0625 47.0515C14.1004 47.0353 14.1446 47.0406 14.1807 47.0623L25.414 53.8692C25.4456 53.8891 25.469 53.9216 25.4753 53.9585L26.538 59.1571L26.5371 59.1562Z" fill="#0B4D5E"/>
<path d="M45.4711 29.3208C44.9056 29.3208 44.34 29.5129 43.9629 29.6951C42.5584 30.3744 41.3127 31.7121 40.481 33.3439L43.8971 34.6132L45.9123 29.356C45.7607 29.3334 45.6119 29.3208 45.4711 29.3208Z" fill="#0B4D5E"/>
<path d="M43.9755 34.7853L40.2915 33.4169L40.3601 33.2816C41.217 31.6002 42.5097 30.248 43.9042 29.5732C44.1469 29.4569 44.7838 29.1863 45.4711 29.1863C45.6209 29.1863 45.776 29.198 45.9321 29.2214L46.099 29.2467L43.9755 34.7853ZM40.6713 33.2699L43.8186 34.439L45.7228 29.4686C44.993 29.4001 44.2759 29.6941 44.0215 29.8177C42.7162 30.4491 41.5012 31.703 40.6704 33.2708L40.6713 33.2699Z" fill="#0B4D5E"/>
<path d="M43.5263 35.5872L41.3839 41.1845C41.2703 41.1276 41.1566 41.0717 41.0421 41.0031C39.8171 40.1642 39.2515 38.3746 39.5338 36.1988C39.6421 35.5529 39.8207 34.907 40.0579 34.2954L43.5263 35.5872Z" fill="#0B4D5E"/>
<path d="M41.456 41.3715L41.3234 41.3056C41.2061 41.2479 41.0898 41.1892 40.9725 41.1197C39.697 40.2466 39.1116 38.4019 39.4002 36.181C39.5103 35.5225 39.6889 34.873 39.9324 34.2461L39.9812 34.1216L43.7021 35.5072L43.6525 35.6353L41.456 41.3715ZM40.1363 34.4689C39.9243 35.0399 39.7665 35.6289 39.6663 36.2207C39.3921 38.3333 39.9342 40.0815 41.1177 40.8907C41.1791 40.9276 41.244 40.9619 41.309 40.9953L43.3503 35.665L40.1363 34.4689Z" fill="#0B4D5E"/>
<path d="M44.4979 35.9497L47.7209 37.1395C46.9154 38.9066 45.5948 40.4031 44.0577 41.1049C43.613 41.2745 43.0356 41.4333 42.406 41.4107L44.4979 35.9497Z" fill="#0B4D5E"/>
<path d="M42.5233 41.548C42.4818 41.548 42.4412 41.548 42.4006 41.5462L42.2112 41.5398L44.4185 35.7766L47.9032 37.063L47.8436 37.1955C46.9912 39.0646 45.6309 40.535 44.1127 41.2287C43.5534 41.4424 43.0212 41.5489 42.5224 41.5489L42.5233 41.548ZM44.5764 36.1221L42.6027 41.2764C43.0456 41.2656 43.5183 41.1664 44.0099 40.9788C45.4261 40.3311 46.7088 38.9627 47.5369 37.2154L44.5764 36.1221Z" fill="#0B4D5E"/>
<path d="M48.0998 36.1765L44.8687 34.975L46.8811 29.7178C46.9145 29.7403 46.947 29.7628 46.9795 29.7971C48.2045 30.6468 48.7701 32.4374 48.4877 34.5113C48.4128 35.066 48.2802 35.6334 48.0998 36.1765Z" fill="#0B4D5E"/>
<path d="M48.1846 36.3525L44.6936 35.0554L44.7432 34.9273L46.8161 29.5095L46.9578 29.606C46.9921 29.6295 47.0353 29.6602 47.0777 29.7044C48.3298 30.5685 48.9143 32.379 48.6212 34.5295C48.5445 35.0969 48.4128 35.6661 48.2288 36.22L48.1846 36.3525ZM45.0436 34.8957L48.0141 35.9998C48.1701 35.5046 48.2838 34.9976 48.3524 34.4925C48.6239 32.4998 48.0835 30.7598 46.9415 29.9362L45.0436 34.8957Z" fill="#0B4D5E"/>
<path d="M46.7819 28.516C45.7806 28.1877 44.607 28.2328 43.4921 28.7542C41.0421 29.8872 38.9683 32.901 38.4974 36.1078C38.1348 38.5551 38.8203 40.7425 40.3033 41.8304C40.0435 41.7393 39.7892 41.6266 39.5357 41.4795C37.9336 40.4485 37.1795 38.1825 37.5566 35.6324C38.0274 32.4373 40.1013 29.4118 42.5513 28.2896C43.9648 27.6212 45.473 27.7231 46.6033 28.3798C46.6637 28.4249 46.7233 28.4709 46.7819 28.516Z" fill="#F0F4FF"/>
<path d="M40.3023 41.966C40.2869 41.966 40.2725 41.9642 40.2572 41.9588C39.9739 41.8596 39.7141 41.7414 39.4661 41.5971C37.8135 40.5335 37.0323 38.2423 37.4202 35.6137C37.8974 32.3789 39.9829 29.3173 42.4925 28.1681C43.878 27.5141 45.4395 27.5502 46.669 28.2637L46.8638 28.4099C46.9162 28.4504 46.9315 28.5226 46.9008 28.5803C46.8702 28.638 46.8016 28.6651 46.7385 28.6453C45.7164 28.3106 44.5834 28.3927 43.5479 28.8771C41.1141 30.0038 39.0917 32.9851 38.6299 36.1288C38.2744 38.5255 38.9465 40.6688 40.3817 41.7224C40.4358 41.7621 40.452 41.8352 40.4213 41.8947C40.3979 41.9398 40.351 41.9669 40.3014 41.9669L40.3023 41.966ZM44.541 27.9706C43.8952 27.9706 43.2331 28.1176 42.6079 28.4126C40.176 29.5257 38.1536 32.5034 37.689 35.6525C37.3183 38.1584 38.0426 40.336 39.5779 41.3463C38.5108 40.1276 38.0507 38.199 38.3628 36.0882C38.8373 32.8597 40.9229 29.7927 43.4351 28.6309C44.2181 28.2646 45.0516 28.1158 45.8698 28.1897C45.4476 28.0427 44.9975 27.9697 44.5401 27.9697L44.541 27.9706Z" fill="#0B4D5E"/>
<path d="M44.7839 29.4002C45.004 29.3551 45.2377 29.3208 45.4704 29.3208C45.6102 29.3208 45.7591 29.3325 45.9115 29.355L43.8963 34.6122L40.4802 33.3431C40.4947 33.3205 40.5091 33.2862 40.5235 33.2637L42.96 34.1702L44.7839 29.4002Z" fill="#8AE5CC"/>
<path d="M43.9756 34.7854L40.2781 33.4125L40.3665 33.2717C40.3908 33.2248 40.4017 33.2059 40.4116 33.1905L40.4711 33.1003L42.8832 33.9979L44.6846 29.2837L44.7568 29.2684C45.2132 29.1745 45.5551 29.1655 45.9322 29.2214L46.0991 29.2467L43.9756 34.7854ZM43.1051 34.1738L43.8187 34.439L45.7229 29.4686C45.4595 29.4443 45.2069 29.4569 44.8831 29.5191L43.1042 34.1747L43.1051 34.1738Z" fill="#0B4D5E"/>
<path d="M41.0413 41.0033C40.8509 40.8789 40.6759 40.7201 40.5181 40.5496L42.5558 35.2239L43.5255 35.5865L41.3831 41.1838C41.2695 41.1269 41.1558 41.0719 41.0413 41.0033Z" fill="#8AE5CC"/>
<path d="M41.4561 41.3714L41.3235 41.3056C41.2062 41.2478 41.0899 41.1892 40.9726 41.1197L40.9681 41.117C40.7841 40.997 40.6045 40.8419 40.4196 40.6425L40.3628 40.5812L40.3935 40.5027L42.479 35.0525L43.7022 35.5098L43.6526 35.637L41.4561 41.3732V41.3714ZM41.1133 40.8879C41.1792 40.9267 41.245 40.9628 41.31 40.9961L43.3513 35.6659L42.6351 35.398L40.6758 40.519C40.8237 40.6714 40.9672 40.7923 41.1133 40.8879Z" fill="#0B4D5E"/>
<path d="M42.6441 40.7876L42.406 41.4109C43.0365 41.4335 43.613 41.2747 44.0577 41.1052C45.5957 40.4024 46.9154 38.9068 47.7209 37.1397L46.7314 36.7771C45.9213 38.4991 44.6233 39.9388 43.1159 40.6298C42.9716 40.6866 42.8128 40.7435 42.6441 40.7886V40.7876Z" fill="#8AE5CC"/>
<path d="M42.5233 41.5481C42.4818 41.5481 42.4412 41.5481 42.4006 41.5463L42.2112 41.5399L42.5413 40.6758L42.6072 40.6578C42.7488 40.6199 42.894 40.5712 43.0654 40.5044C44.4916 39.8504 45.786 38.4703 46.6078 36.7203L46.661 36.6084L47.905 37.0639L47.8445 37.1965C46.9921 39.0656 45.6318 40.5359 44.1136 41.2296C43.5543 41.4434 43.0221 41.5499 42.5233 41.5499V41.5481ZM42.7452 40.9004L42.6018 41.2765C43.0447 41.2666 43.5174 41.1665 44.009 40.9789C45.4252 40.3312 46.7079 38.9628 47.536 37.2155L46.8 36.9458C45.9493 38.6994 44.6323 40.0831 43.1728 40.7516C43.0122 40.8147 42.8769 40.8616 42.7461 40.8995L42.7452 40.9004Z" fill="#0B4D5E"/>
<path d="M47.1515 35.7228L44.9027 34.8839L44.8684 34.975L48.0996 36.1765C48.28 35.6325 48.4117 35.066 48.4866 34.5113C48.7689 32.4374 48.2042 30.6468 46.9783 29.7971C46.9458 29.7637 46.9134 29.7403 46.88 29.7178L46.7609 30.0353C47.4727 30.987 47.7631 32.4258 47.5439 34.035C47.4681 34.6015 47.3337 35.168 47.1506 35.7236L47.1515 35.7228Z" fill="#8AE5CC"/>
<path d="M48.1845 36.3525L44.6953 35.0554L44.8225 34.7108L47.0668 35.5479C47.2283 35.0346 47.3438 34.5205 47.4114 34.0171C47.6225 32.4647 47.3474 31.043 46.6537 30.1166L46.6095 30.0579L46.8151 29.5095L46.9577 29.6069C46.992 29.6304 47.0353 29.661 47.0776 29.7053C48.3297 30.5694 48.9142 32.3799 48.6211 34.5304C48.5444 35.0978 48.4127 35.667 48.2287 36.2208L48.1845 36.3525ZM47.2914 35.7319L48.014 36.0007C48.17 35.5055 48.2837 34.9986 48.3523 34.4934C48.6238 32.5008 48.0843 30.7616 46.9432 29.938L46.9144 30.0147C47.6171 30.9979 47.8958 32.4638 47.6793 34.0532C47.6054 34.6052 47.4746 35.1699 47.2914 35.7319Z" fill="#0B4D5E"/>
<path fill-rule="evenodd" clip-rule="evenodd" d="M42.5476 42.5108C41.7934 42.5108 41.134 42.3177 40.4746 41.9442C38.8726 40.9132 38.1185 38.6463 38.4955 36.0971C38.9664 32.902 41.0402 29.8766 43.4902 28.7544C44.9037 28.086 46.412 28.1879 47.5423 28.8455C49.0505 29.8765 49.8984 32.0523 49.5214 34.5907C49.1443 37.7975 47.0714 40.9132 44.5267 42.0354C43.8673 42.3186 43.207 42.5108 42.5476 42.5108ZM45.4693 29.3209C44.9037 29.3209 44.3382 29.5022 43.9611 29.6952C42.5566 30.3636 41.3108 31.7122 40.4791 33.344L43.8943 34.6133L45.9095 29.3443C45.758 29.3218 45.6092 29.3209 45.4693 29.3209ZM43.5236 35.5757L41.3812 41.173C41.2675 41.1279 41.1539 41.0711 41.0393 41.0034C39.8143 40.1537 39.2487 38.3631 39.5311 36.1991C39.6393 35.5415 39.8179 34.9073 40.0552 34.284L43.5236 35.5757ZM44.496 35.9384L47.7191 37.1282C46.9126 38.907 45.5929 40.3918 44.0558 41.0936C43.6111 41.2632 43.0338 41.4337 42.4041 41.3994L44.496 35.9384ZM48.0979 36.1648L44.8668 34.9633L46.8793 29.7169C46.9126 29.7394 46.9451 29.762 46.9776 29.7845C48.2026 30.6343 48.7682 32.4249 48.4858 34.4987C48.4109 35.0652 48.2792 35.6209 48.0988 36.1639L48.0979 36.1648Z" fill="#8AE5CC"/>
<path d="M42.5476 42.6459C41.7916 42.6459 41.1115 42.46 40.4079 42.0613C38.7544 40.9978 37.9732 38.7057 38.3611 36.0771C38.8383 32.8423 40.9239 29.7807 43.4334 28.6315C44.8171 27.9775 46.3786 28.0126 47.6099 28.728C49.2228 29.8303 50.0229 32.1369 49.6558 34.6104C49.2742 37.8542 47.1399 41.0312 44.5817 42.1588C43.8068 42.4916 43.1601 42.6468 42.5476 42.6468V42.6459ZM45.4783 28.4349C44.8334 28.4349 44.1722 28.5819 43.5479 28.8769C41.116 29.99 39.0936 32.9677 38.629 36.1168C38.2556 38.6389 38.9907 40.8282 40.5477 41.8295C41.2026 42.2003 41.8403 42.3744 42.5476 42.3744C43.1222 42.3744 43.7338 42.2264 44.4735 41.9089C46.9487 40.8174 49.0162 37.7314 49.387 34.5724C49.7406 32.1973 48.9855 29.9945 47.4656 28.9553C46.8684 28.608 46.1829 28.433 45.4783 28.433V28.4349ZM42.5683 41.539C42.5115 41.539 42.4537 41.5381 42.3969 41.5345L42.2111 41.5246L44.4175 35.765L47.9022 37.0513L47.8426 37.1839C46.9965 39.0494 45.6371 40.5197 44.1117 41.217C43.7374 41.3604 43.1916 41.539 42.5683 41.539ZM44.5745 36.1113L42.599 41.2684C43.1664 41.263 43.6679 41.0979 44.008 40.968C45.4314 40.3177 46.7133 38.9492 47.5359 37.2047L44.5754 36.1123L44.5745 36.1113ZM41.4588 41.3496L41.3307 41.2982C41.2116 41.2504 41.0898 41.1899 40.9708 41.1187C39.6943 40.2338 39.1098 38.39 39.3985 36.1799C39.5058 35.5286 39.6799 34.8936 39.9298 34.2351L39.9785 34.1097L43.7004 35.4952L43.6508 35.6234L41.4588 41.3496ZM40.1355 34.4579C39.9163 35.0551 39.7629 35.6333 39.6655 36.2205C39.3904 38.3232 39.9334 40.0714 41.1169 40.8923C41.1764 40.9284 41.2405 40.9617 41.3045 40.9924L43.3486 35.6549L40.1355 34.4579ZM48.1827 36.3405L44.6918 35.0433L46.8143 29.5092L47.056 29.6752C48.3279 30.5583 48.9134 32.3678 48.6193 34.5174C48.5462 35.0731 48.4136 35.6423 48.2269 36.2079L48.1827 36.3405ZM45.0417 34.8845L48.0122 35.9887C48.1719 35.4826 48.2846 34.9766 48.3505 34.4814C48.622 32.4896 48.0826 30.7522 46.9424 29.9277L45.0417 34.8845ZM43.9728 34.7853L40.2897 33.4169L40.3583 33.2816C41.2233 31.5848 42.516 30.2335 43.9034 29.5732C44.3751 29.3315 44.9624 29.1863 45.4693 29.1863C45.6091 29.1863 45.767 29.1863 45.9294 29.2097L46.0972 29.2341L43.9737 34.7853H43.9728ZM40.6695 33.2699L43.8159 34.439L45.7201 29.4614C45.6344 29.4569 45.5505 29.4569 45.4693 29.4569C45.003 29.4569 44.4626 29.5913 44.0224 29.8159C42.7208 30.4356 41.5057 31.6894 40.6686 33.2708L40.6695 33.2699Z" fill="#0B4D5E"/>
<path d="M40.6867 45.7075C39.9416 45.7075 39.2073 45.5758 38.5055 45.3006C34.3172 43.6571 32.8 37.5032 35.1228 31.5821C36.2449 28.7217 38.0851 26.3394 40.306 24.8726C42.5422 23.3969 44.8939 23.0252 46.9316 23.8236C48.9694 24.6228 50.4415 26.4954 51.0766 29.0979C51.7071 31.6823 51.4365 34.6807 50.3143 37.5411C48.3803 42.4691 44.3869 45.7075 40.6867 45.7075ZM44.7324 23.6828C43.3405 23.6828 41.8756 24.1609 40.4557 25.0981C38.2818 26.5342 36.4776 28.8714 35.3753 31.6805C33.1067 37.4627 34.5563 43.4596 38.6047 45.0481C42.6513 46.6366 47.794 43.2241 50.0626 37.4428C51.165 34.6338 51.432 31.6931 50.8132 29.1619C50.1998 26.6479 48.7862 24.8411 46.8333 24.0752C46.164 23.8127 45.4585 23.6828 44.7324 23.6828Z" fill="#0B4D5E"/>
<path d="M38.5552 45.1744C34.4301 43.5561 32.9498 37.4924 35.2492 31.6308C37.5485 25.7693 42.757 22.3306 46.8821 23.9489L45.6219 23.4546C41.4968 21.8363 36.2883 25.275 33.989 31.1365C31.6896 36.9981 33.1699 43.0608 37.295 44.68L38.5552 45.1744Z" fill="#F0F4FF"/>
<path d="M38.555 45.3096C38.5379 45.3096 38.5216 45.3069 38.5054 45.3006L37.2452 44.8063C33.057 43.1627 31.5397 37.0089 33.8625 31.0878C36.1862 25.1676 41.4849 21.6865 45.6714 23.3292L46.9315 23.8235C47.001 23.8506 47.0353 23.929 47.0082 23.9985C46.9811 24.0679 46.9 24.1004 46.8332 24.0752C44.8802 23.3093 42.6152 23.6719 40.4557 25.0981C38.2817 26.5342 36.4776 28.8714 35.3753 31.6804C33.1066 37.4626 34.5562 43.4595 38.6046 45.048C38.6741 45.0751 38.7084 45.1536 38.6813 45.223C38.6606 45.2762 38.6091 45.3096 38.555 45.3096ZM43.483 23.1911C39.8946 23.1911 36.0067 26.3646 34.1142 31.1861C31.9276 36.759 33.1941 42.5313 36.9142 44.3643C33.969 41.9477 33.1237 36.6778 35.1227 31.5821C36.2448 28.7216 38.085 26.3393 40.3059 24.8726C41.9017 23.819 43.5596 23.3283 45.113 23.4239C44.5826 23.267 44.0368 23.1911 43.483 23.1911Z" fill="#0B4D5E"/>
</svg>
