<svg width="64" height="64" viewBox="0 0 64 64" fill="none" xmlns="http://www.w3.org/2000/svg">
<mask id="mask0_15036_317" style="mask-type:alpha" maskUnits="userSpaceOnUse" x="0" y="0" width="64" height="64">
<rect width="64" height="64" fill="#D9D9D9"/>
</mask>
<g mask="url(#mask0_15036_317)">
<path d="M39.2211 8.12016L39.145 48.7322C39.145 49.9206 38.3552 51.109 36.7755 52.0144C33.6068 53.8347 28.4492 53.8347 25.2614 52.0144C23.6532 51.0995 22.8538 49.8923 22.8634 48.6851L22.9395 8.073C22.9395 9.28023 23.7388 10.4875 25.347 11.4023C28.5348 13.2226 33.6924 13.2226 36.8612 11.4023C38.4408 10.4969 39.2306 9.30853 39.2306 8.12016H39.2211Z" fill="#8AE5CC" stroke="#0B4D5E" stroke-width="0.25" stroke-linecap="round" stroke-linejoin="round"/>
<path d="M36.8137 4.80026C40.0015 6.62054 40.0206 9.58204 36.8423 11.4118C33.664 13.2415 28.5159 13.232 25.3281 11.4118C22.1403 9.59147 22.1213 6.62998 25.29 4.80026C28.4588 2.97055 33.6164 2.97055 36.8042 4.80026H36.8137Z" fill="#F0F4FF" stroke="#0B4D5E" stroke-width="0.25" stroke-linecap="round" stroke-linejoin="round"/>
<path d="M37.9079 7.77112C37.9079 8.77086 37.2513 9.78003 35.9191 10.544C33.2642 12.0719 28.9345 12.0719 26.2605 10.544C24.9188 9.78003 24.2527 8.77086 24.2432 7.77112V7.0166H37.9079V7.77112Z" fill="#8AE5CC" stroke="#0B4D5E" stroke-width="0.25" stroke-linecap="round" stroke-linejoin="round"/>
<path d="M35.8906 4.14947C38.5646 5.67737 38.5836 8.16729 35.9192 9.6952C33.2547 11.2231 28.9345 11.2231 26.2606 9.6952C23.5866 8.16729 23.5676 5.67737 26.232 4.14947C28.8965 2.62156 33.2167 2.61213 35.9001 4.14947H35.8906Z" fill="#F0F4FF" stroke="#0B4D5E" stroke-width="0.25" stroke-linecap="round" stroke-linejoin="round"/>
<path d="M25.3374 11.4118C23.7292 10.497 22.9299 9.28975 22.9394 8.08252L22.8633 48.6946C22.8633 49.9018 23.6626 51.1091 25.2708 52.0239C26.2319 52.5804 27.3928 52.9388 28.6013 53.1557V12.5342C27.4119 12.3173 26.289 11.9494 25.3469 11.4118H25.3374Z" fill="#0B4D5E"/>
<path d="M37.651 14.7506C37.3846 14.9675 37.1086 15.175 36.7661 15.373C33.5973 17.1933 28.4397 17.1933 25.2519 15.373C24.8998 15.175 24.6143 14.958 24.3384 14.7317V16.1276C24.6143 16.3539 24.9093 16.5708 25.2519 16.7689C28.4397 18.5892 33.5973 18.5892 36.7661 16.7689C37.0991 16.5803 37.3846 16.3633 37.651 16.1464V14.7506Z" fill="#F0F4FF" stroke="#0B4D5E" stroke-width="0.25" stroke-linecap="round" stroke-linejoin="round"/>
<path d="M37.651 19.834C37.3846 20.051 37.1086 20.2585 36.7661 20.4565C33.5973 22.2768 28.4397 22.2768 25.2519 20.4565C24.8998 20.2585 24.6143 20.0415 24.3384 19.8152V21.211C24.6143 21.4374 24.9093 21.6543 25.2519 21.8524C28.4397 23.6727 33.5973 23.6727 36.7661 21.8524C37.0991 21.6638 37.3846 21.4468 37.651 21.2299V19.834Z" fill="#F0F4FF" stroke="#0B4D5E" stroke-width="0.25" stroke-linecap="round" stroke-linejoin="round"/>
<path d="M37.651 25.2855C37.3846 25.5024 37.1086 25.7099 36.7661 25.9079C33.5973 27.7282 28.4397 27.7282 25.2519 25.9079C24.8998 25.7099 24.6143 25.493 24.3384 25.2666V26.6625C24.6143 26.8888 24.9093 27.1057 25.2519 27.3038C28.4397 29.1241 33.5973 29.1241 36.7661 27.3038C37.0991 27.1152 37.3846 26.8983 37.651 26.6813V25.2855Z" fill="#F0F4FF" stroke="#0B4D5E" stroke-width="0.25" stroke-linecap="round" stroke-linejoin="round"/>
<path d="M37.651 31.482C37.3846 31.6989 37.1086 31.9064 36.7661 32.1045C33.5973 33.9248 28.4397 33.9248 25.2519 32.1045C24.8998 31.9064 24.6143 31.6895 24.3384 31.4631V32.859C24.6143 33.0854 24.9093 33.3023 25.2519 33.5003C28.4397 35.3206 33.5973 35.3206 36.7661 33.5003C37.0991 33.3117 37.3846 33.0948 37.651 32.8779V31.482Z" fill="#F0F4FF" stroke="#0B4D5E" stroke-width="0.25" stroke-linecap="round" stroke-linejoin="round"/>
<path d="M30.4806 25.686L18.2448 32.7307L10.0315 28.0447L22.2672 21L30.4806 25.686Z" fill="#F0F4FF" stroke="#0B4D5E" stroke-width="0.25" stroke-linecap="round" stroke-linejoin="round"/>
<path d="M30.4807 25.686L30.4491 53.3638L18.2134 60.419L18.245 32.7307L30.4807 25.686Z" fill="#8AE5CC" stroke="#0B4D5E" stroke-width="0.25" stroke-linecap="round" stroke-linejoin="round"/>
<path d="M18.2449 32.7307L18.2133 60.4189L10 55.7225L10.0316 28.0447L18.2449 32.7307Z" fill="#0B4D5E" stroke="#0B4D5E" stroke-width="0.25" stroke-linecap="round" stroke-linejoin="round"/>
<path d="M22.3517 34.7449L22.3727 40.1823L20.7195 41.1321L20.6985 35.6946L22.3517 34.7449Z" fill="#F0F4FF" stroke="#0B4D5E" stroke-width="0.25" stroke-linecap="round" stroke-linejoin="round"/>
<path d="M25.7001 32.8142L25.7211 38.2517L24.0574 39.2014L24.0469 33.7535L25.7001 32.8142Z" fill="#F0F4FF" stroke="#0B4D5E" stroke-width="0.25" stroke-linecap="round" stroke-linejoin="round"/>
<path d="M29.0487 30.873L29.0698 36.3105L27.406 37.2602L27.3955 31.8228L29.0487 30.873Z" fill="#F0F4FF" stroke="#0B4D5E" stroke-width="0.25" stroke-linecap="round" stroke-linejoin="round"/>
<path d="M22.3517 42.9792L22.3727 48.4167L20.7195 49.3664L20.6985 43.9185L22.3517 42.9792Z" fill="#F0F4FF" stroke="#0B4D5E" stroke-width="0.25" stroke-linecap="round" stroke-linejoin="round"/>
<path d="M25.7001 41.0381L25.7211 46.4755L24.0574 47.4253L24.0469 41.9878L25.7001 41.0381Z" fill="#F0F4FF" stroke="#0B4D5E" stroke-width="0.25" stroke-linecap="round" stroke-linejoin="round"/>
<path d="M29.0487 39.0969L29.0698 44.5344L27.406 45.4841L27.3955 40.0467L29.0487 39.0969Z" fill="#F0F4FF" stroke="#0B4D5E" stroke-width="0.25" stroke-linecap="round" stroke-linejoin="round"/>
<path d="M55.33 39.9775L55.3125 50.8843L40.2964 59.6166L40.3226 48.7099L46.6595 39.9775H55.33Z" fill="#8AE5CC" stroke="#0B4D5E" stroke-width="0.25" stroke-linecap="round" stroke-linejoin="round"/>
<path d="M40.3225 48.7099L40.2963 59.6166L30 53.6391L30.0175 42.7324L40.3225 48.7099Z" fill="#0B4D5E" stroke="#0B4D5E" stroke-width="0.25" stroke-linecap="round" stroke-linejoin="round"/>
<path d="M36.3632 34L46.6594 39.9775L40.3226 48.7098L30.0176 42.7323L36.3632 34Z" fill="#8AE5CC" stroke="#0B4D5E" stroke-width="0.25" stroke-linecap="round" stroke-linejoin="round"/>
<path d="M36.363 34L46.6593 39.9775H55.3299L45.0336 34H36.363Z" fill="#F0F4FF" stroke="#0B4D5E" stroke-width="0.25" stroke-linecap="round" stroke-linejoin="round"/>
<path d="M46.6594 55.9087V47.93L51.1783 45.2532V53.2405L46.6594 55.9087Z" fill="#F0F4FF" stroke="#0B4D5E" stroke-width="0.25" stroke-linecap="round" stroke-linejoin="round"/>
</g>
</svg>
