<svg width="64" height="64" viewBox="0 0 64 64" fill="none" xmlns="http://www.w3.org/2000/svg">
<path d="M32.1664 58.5812C39.4961 58.5812 45.4378 55.3136 45.4378 51.2731C45.4378 47.2326 39.4961 43.9767 32.1664 43.9767C24.8367 43.9767 18.895 47.2443 18.895 51.2731C18.895 55.3019 24.8367 58.5812 32.1664 58.5812Z" fill="#8AE5CC"/>
<path d="M32.1656 58.7164C24.7736 58.7164 18.7598 55.3776 18.7598 51.2731C18.7598 47.1685 24.7736 43.8414 32.1656 43.8414C39.5575 43.8414 45.5723 47.1748 45.5723 51.2731C45.5723 55.3713 39.5575 58.7164 32.1656 58.7164ZM32.1656 44.112C24.9233 44.112 19.0312 47.3246 19.0312 51.2731C19.0312 55.2216 24.9233 58.4459 32.1656 58.4459C39.4078 58.4459 45.3008 55.2279 45.3008 51.2731C45.3008 47.3182 39.4087 44.112 32.1656 44.112Z" fill="#0B4D5E"/>
<path d="M18.895 53.5674C18.895 57.5962 24.8349 60.8637 32.1664 60.8637C39.4979 60.8637 45.4378 57.5962 45.4378 53.5674V51.2729C45.4378 55.3017 39.4916 58.5693 32.1664 58.5693C24.8412 58.5693 18.895 55.3017 18.895 51.2729V53.5674Z" fill="#0B4D5E"/>
<path d="M32.1665 61C24.7745 61 18.7598 57.6665 18.7598 53.5683V51.2739C18.7598 51.199 18.8202 51.1386 18.8951 51.1386C18.9699 51.1386 19.0303 51.199 19.0303 51.2739C19.0303 55.2224 24.9224 58.435 32.1656 58.435C39.4087 58.435 45.3008 55.2224 45.3008 51.2739C45.3008 51.199 45.3612 51.1386 45.4361 51.1386C45.5109 51.1386 45.5713 51.199 45.5713 51.2739V53.5683C45.5713 57.6665 39.5566 61 32.1647 61H32.1665ZM19.0312 52.7629V53.5674C19.0312 57.5159 24.9233 60.7285 32.1665 60.7285C39.4096 60.7285 45.3017 57.5159 45.3017 53.5674V52.7629C44.0544 56.1496 38.6385 58.7046 32.1665 58.7046C25.6945 58.7046 20.2777 56.1496 19.0312 52.7629Z" fill="#0B4D5E"/>
<path d="M30.9578 48.0505C30.9578 48.5655 31.498 48.9903 32.132 48.9903C32.7661 48.9903 33.3063 48.5646 33.3063 48.0505V52.2696C33.3063 52.7846 32.7724 53.1986 32.132 53.1986C31.4917 53.1986 30.9578 52.7846 30.9578 52.2696V48.0505Z" fill="#8AE5CC"/>
<path d="M32.1311 53.3338C31.4087 53.3338 30.8215 52.8567 30.8215 52.2696V48.0505C30.8215 47.9756 30.882 47.9152 30.9568 47.9152C31.0317 47.9152 31.0921 47.9756 31.0921 48.0505C31.0921 48.487 31.5674 48.8559 32.1302 48.8559C32.693 48.8559 33.1683 48.487 33.1683 48.0505C33.1683 47.9756 33.2287 47.9152 33.3036 47.9152C33.3784 47.9152 33.4388 47.9756 33.4388 48.0505V52.2696C33.4388 52.8558 32.8517 53.3338 32.1293 53.3338H32.1311ZM31.093 48.6963V52.2696C31.093 52.707 31.5593 53.0632 32.1311 53.0632C32.7029 53.0632 33.1692 52.707 33.1692 52.2696V48.6963C32.9275 48.956 32.5487 49.1265 32.1311 49.1265C31.7135 49.1265 31.3338 48.956 31.093 48.6963Z" fill="#0B4D5E"/>
<path fill-rule="evenodd" clip-rule="evenodd" d="M38.3488 13.3572C38.2956 12.7196 37.9123 12.1153 37.2909 11.6229C37.584 11.6563 37.8744 11.7014 38.1621 11.7798C39.0902 12.0035 39.9632 12.4292 40.7244 13.0217L41.1528 13.369C42.0799 14.1184 42.1683 15.2602 41.3584 15.943L41.0824 16.1666C40.3763 16.7484 39.533 17.1182 38.6401 17.2408C37.8158 17.3635 36.9788 17.3193 36.1752 17.1182C35.1245 17.5998 33.7726 17.8902 32.298 17.8902C32.086 17.8902 31.8768 17.8793 31.6712 17.8676C32.7516 18.4493 35.0722 19.9041 34.9757 21.5943C34.9288 22.4898 34.2479 23.2285 33.456 24.079C32.5757 25.0305 31.5719 26.1155 31.5016 27.3249C31.5016 27.5711 31.4403 27.7948 31.3239 27.9959C31.2076 28.197 31.0398 28.3657 30.8387 28.4775C30.1406 28.8581 29.4471 28.4216 28.8293 28.041L28.8139 28.0302C28.5957 27.8733 28.3639 27.7506 28.1213 27.6388H28.0861C27.8038 27.6054 27.719 27.6947 27.683 27.7398H27.6812C27.4512 28.1312 27.3484 28.6011 27.388 29.0602C27.388 29.0935 27.3953 29.1269 27.4106 29.1495C27.4259 29.1828 27.4485 29.2054 27.4755 29.2171C27.8805 29.4967 28.28 29.788 28.6498 30.0568C29.0475 30.3697 29.4633 30.6502 29.8944 30.9073H29.9882C30.9334 30.6944 34.5428 30.0008 36.8444 31.4222C37.3107 31.7018 37.7175 32.0716 38.0385 32.5298C38.3596 32.9771 38.5887 33.4813 38.7114 34.0296C39.2399 36.2681 35.6828 46.1277 33.3703 47.7835C33.2215 47.8845 33.0601 47.9738 32.8887 48.0298C32.5604 48.0749 32.2799 48.0748 31.9751 48.0748H31.9733C31.8146 48.0298 31.6639 47.963 31.5268 47.8737C29.7546 46.6093 30.0414 43.2407 30.4879 39.9055C30.5005 39.8162 30.514 39.726 30.5266 39.6367C30.5717 39.3346 30.6114 39.0775 30.6114 38.8872C30.6646 38.4399 30.5113 38.2379 30.0243 37.6787C29.5355 37.1529 29.1296 36.5486 28.8212 35.8992C28.4379 34.9035 28.4379 33.7951 28.8212 32.7994C28.8356 32.7543 28.8338 32.7101 28.8176 32.665C28.8013 32.6199 28.7715 32.5866 28.7328 32.564C28.3693 32.3178 27.9698 32.0491 27.5179 31.7135C26.782 31.1426 25.9955 30.6394 25.1703 30.2137C23.4738 29.4299 22.4646 27.3709 21.8017 25.9946C21.7674 25.927 21.7332 25.8602 21.6998 25.7935C21.5681 25.5247 21.4482 25.2902 21.3733 25.1775C21.1469 24.8645 20.8123 24.226 20.291 23.2529L20.2288 23.1302C19.8292 22.3807 19.2187 21.2497 18.8615 20.6455C18.8408 20.6229 18.8119 20.5896 18.7794 20.5778C18.7461 20.567 18.71 20.5553 18.6739 20.567C17.3644 20.7465 16.0656 21.0035 14.7822 21.3282C17.2417 15.9899 22.4989 12.0838 28.3278 10.9988C27.0516 11.6139 26.2453 12.5095 26.2453 13.5169M38.3488 13.3572C38.3533 13.4023 38.3551 13.4583 38.3551 13.5142C38.3551 13.525 38.3551 13.5367 38.3551 13.5475" fill="#8AE5CC"/>
<path d="M31.9723 48.2084C31.9597 48.2084 31.9453 48.2066 31.9326 48.2039C31.7586 48.1543 31.5953 48.0812 31.4492 47.9856C29.6102 46.6734 29.898 43.2651 30.3507 39.8866L30.3958 39.5773C30.4373 39.2986 30.4725 39.0587 30.4725 38.8864C30.5185 38.495 30.4156 38.3381 29.9187 37.7672C29.4263 37.2368 29.0141 36.6263 28.6957 35.957C28.2953 34.9163 28.2953 33.7808 28.6921 32.7508C28.6939 32.7418 28.6939 32.7274 28.6876 32.7102C28.6831 32.6985 28.675 32.6886 28.6623 32.6814L28.6073 32.6444C28.2619 32.4108 27.8696 32.1447 27.434 31.8218C26.6989 31.2518 25.9152 30.7513 25.1053 30.3337C23.3484 29.5229 22.3022 27.3511 21.6763 26.0533L21.5743 25.8531C21.467 25.633 21.3326 25.367 21.256 25.2515C21.0494 24.9638 20.7518 24.4101 20.3036 23.5713L20.1034 23.1898C19.8247 22.6685 19.1338 21.3788 18.7397 20.7132V20.715C18.7397 20.715 18.7271 20.7051 18.7225 20.7024C18.718 20.7051 18.6973 20.6997 18.6883 20.6997H18.6865C17.4139 20.8737 16.1098 21.129 14.8092 21.4582C14.7578 21.469 14.7046 21.4536 14.6721 21.4131C14.6388 21.3734 14.6315 21.3175 14.6532 21.2697C17.0982 15.9629 22.3256 11.9756 28.2962 10.8636C28.362 10.8491 28.4279 10.8897 28.4495 10.9547C28.4702 11.0196 28.4405 11.089 28.3801 11.1188C27.1048 11.7339 26.3733 12.6069 26.3733 13.5151C26.3733 13.59 26.3129 13.6504 26.2381 13.6504C26.1632 13.6504 26.1028 13.59 26.1028 13.5151C26.1028 12.7025 26.6078 11.9233 27.5124 11.3055C22.0731 12.5799 17.3589 16.2731 15.0194 21.1272C16.2378 20.8286 17.4572 20.595 18.6486 20.4318C18.7072 20.4101 18.7776 20.4363 18.8163 20.4489C18.8777 20.4688 18.9192 20.5148 18.948 20.5445C18.9543 20.5517 18.967 20.5671 18.9715 20.5752C19.3674 21.2453 20.0619 22.5395 20.3433 23.0644L20.5417 23.4432C20.9845 24.2721 21.2776 24.8195 21.4778 25.0964C21.5473 25.2019 21.6474 25.3904 21.8161 25.7313L21.9171 25.9316C22.5277 27.1996 23.5486 29.3155 25.2216 30.0893C26.0532 30.5177 26.8504 31.0264 27.5963 31.6054C28.0247 31.9238 28.4134 32.1871 28.7571 32.4189L28.804 32.4505C28.8635 32.4847 28.9131 32.5434 28.9401 32.6164C28.9663 32.6913 28.9681 32.7652 28.9455 32.8383C28.5695 33.8141 28.5695 34.8811 28.9419 35.8488C29.245 36.4846 29.6409 37.0718 30.1189 37.585C30.6068 38.1459 30.8017 38.3922 30.7412 38.9008C30.7412 39.0767 30.7042 39.3265 30.6619 39.616L30.6168 39.9218C30.1757 43.2182 29.8871 46.539 31.5998 47.7611C31.7144 47.835 31.8451 47.8954 31.9876 47.9369C32.279 47.9369 32.5531 47.9369 32.8661 47.8937C32.9842 47.8531 33.1303 47.7782 33.2891 47.6691C35.5754 46.0321 39.0973 36.2727 38.5751 34.0577C38.457 33.5318 38.2387 33.0439 37.9239 32.6065C37.62 32.1727 37.2313 31.8119 36.7704 31.5359C34.549 30.1633 31.0379 30.8063 30.0143 31.0372L29.8907 31.0399C29.8664 31.0399 29.842 31.0336 29.8213 31.021C29.3568 30.7432 28.9455 30.4618 28.5622 30.1606L28.4793 30.101C28.1347 29.8512 27.7677 29.5842 27.3952 29.3272C27.3609 29.3164 27.314 29.2695 27.2842 29.2064C27.2653 29.1793 27.2482 29.1207 27.2482 29.0584C27.2067 28.5804 27.3176 28.0835 27.5611 27.6686C27.5693 27.6551 27.5801 27.6425 27.5918 27.6325C27.6982 27.5171 27.8642 27.4756 28.0987 27.5018H28.1176C28.1365 27.5018 28.1564 27.5045 28.1735 27.5135C28.4612 27.6461 28.6885 27.775 28.8887 27.9184L28.9185 27.9374C29.5219 28.3099 30.1469 28.6968 30.771 28.3568C30.9469 28.2585 31.0966 28.1096 31.203 27.9266C31.3085 27.7435 31.3626 27.5405 31.3626 27.3232C31.4366 26.056 32.4548 24.9557 33.3531 23.9853C34.126 23.1564 34.7934 22.4403 34.8376 21.5853C34.9314 19.9574 32.6063 18.5252 31.6034 17.9849C31.5475 17.9552 31.5205 17.8903 31.5376 17.8298C31.5556 17.7694 31.6152 17.7306 31.6747 17.7315C31.8875 17.7432 32.0905 17.7541 32.2952 17.7541C33.6886 17.7541 35.046 17.4844 36.1156 16.9938C36.1436 16.9802 36.1751 16.9775 36.2049 16.9856C37.0031 17.185 37.8148 17.2265 38.6175 17.1065C39.4896 16.9866 40.3103 16.6249 40.994 16.0612L41.2709 15.8366C41.5992 15.5597 41.7786 15.1855 41.775 14.7841C41.7696 14.3115 41.5117 13.8335 41.0661 13.4737L40.6368 13.1264C39.8856 12.5402 39.0405 12.1307 38.1287 11.9107C37.988 11.8719 37.8473 11.8421 37.7138 11.8187C38.1729 12.2805 38.4362 12.8008 38.4822 13.3438C38.4867 13.3925 38.4903 13.4529 38.4903 13.5133C38.4903 13.5882 38.429 13.6658 38.355 13.6658C38.2802 13.6658 38.2188 13.6225 38.2188 13.5476V13.5133C38.2188 13.4619 38.2189 13.4105 38.2134 13.3699V13.3672C38.1638 12.7783 37.8166 12.211 37.2069 11.7285C37.1591 11.6906 37.1429 11.6266 37.1654 11.5707C37.188 11.5147 37.2502 11.4769 37.3061 11.4886C37.5506 11.5165 37.8734 11.5607 38.1963 11.6491C39.1424 11.8773 40.0217 12.3039 40.8064 12.9154L41.2384 13.2635C41.7462 13.6748 42.042 14.2276 42.0465 14.7814C42.0519 15.2657 41.8382 15.7149 41.4449 16.0459L41.1671 16.2713C40.4456 16.8657 39.5771 17.2481 38.6581 17.3744C37.8364 17.497 37.0031 17.4582 36.1878 17.2598C35.0902 17.7532 33.7112 18.0246 32.2979 18.0246C32.2726 18.0246 32.2474 18.0246 32.2221 18.0246C33.3901 18.7218 35.1993 20.0575 35.11 21.6016C35.0604 22.5531 34.329 23.3386 33.5533 24.1702C32.6866 25.1072 31.7026 26.1688 31.635 27.3313C31.635 27.5883 31.5701 27.8373 31.4393 28.0627C31.3076 28.2882 31.1227 28.4722 30.9027 28.594C30.1406 29.0079 29.4172 28.5615 28.7778 28.1683C28.7751 28.1674 28.7345 28.1403 28.7318 28.1385C28.5532 28.0095 28.3476 27.8932 28.0888 27.7714H28.0833C27.8479 27.7453 27.8019 27.803 27.7866 27.8219L27.7839 27.8255C27.5774 28.1872 27.4827 28.6201 27.5196 29.0467C27.5233 29.0521 27.5278 29.0837 27.5305 29.0891C27.9246 29.3615 28.2944 29.6302 28.6398 29.881L28.7264 29.9441C29.0953 30.2345 29.4885 30.5033 29.9295 30.7693H29.9854C31.0037 30.5366 34.604 29.8774 36.9129 31.3042C37.4053 31.5991 37.8211 31.9851 38.1467 32.4496C38.4804 32.9158 38.7149 33.4371 38.8412 33.9972C39.3742 36.2574 35.781 46.2179 33.446 47.8909C33.2638 48.0154 33.0943 48.102 32.9283 48.1552C32.5676 48.2066 32.279 48.2066 31.9732 48.2066L31.9723 48.2084Z" fill="#0B4D5E"/>
<path d="M29.1159 10.6714C24.9032 11.2983 20.97 13.3122 17.9261 16.4463C14.222 20.2739 12.1395 25.4553 12.135 30.8721C12.1413 36.2772 14.2247 41.4595 17.9288 45.2862C21.6329 49.1022 26.6537 51.2514 31.892 51.2622C37.1311 51.2622 42.1546 49.113 45.8596 45.2862C49.5646 41.4586 51.6489 36.2772 51.6552 30.8721C51.6507 25.4553 49.5664 20.2739 45.8614 16.4463C43.19 13.6937 39.8332 11.8015 36.2048 10.9628C36.6179 11.1531 36.9832 11.3767 37.2898 11.6229C37.5829 11.6563 37.8733 11.7014 38.1611 11.7799C39.0891 12.0035 39.9621 12.4292 40.7233 13.0218L41.1517 13.369C42.0789 14.1185 42.1673 15.2603 41.3574 15.943L41.0814 16.1667C40.3752 16.7484 39.5319 17.1182 38.6391 17.2409C37.8147 17.3635 36.9778 17.3193 36.1742 17.1182C35.1235 17.5998 33.7715 17.8902 32.2969 17.8902C32.085 17.8902 31.8757 17.8794 31.6701 17.8677C32.7506 18.4494 35.0712 19.9042 34.9746 21.5943C34.9277 22.4899 34.2468 23.2286 33.455 24.079C32.5747 25.0306 31.5709 26.1155 31.5005 27.325C31.5005 27.5712 31.4392 27.7949 31.3229 27.996C31.2065 28.1971 31.0388 28.3658 30.8376 28.4776C30.1396 28.8582 29.446 28.4217 28.8282 28.0411L28.8129 28.0303C28.5946 27.8733 28.3628 27.7507 28.1202 27.6388H28.0851C27.8028 27.6055 27.718 27.6947 27.6819 27.7398H27.6801C27.4501 28.1313 27.3473 28.6012 27.387 29.0602C27.387 29.0936 27.3942 29.127 27.4095 29.1495C27.4249 29.1829 27.4474 29.2054 27.4745 29.2171C27.8794 29.4967 28.279 29.788 28.6487 30.0568C29.0465 30.3698 29.4623 30.6503 29.8934 30.9073H29.9872C30.9323 30.6945 34.5417 30.0009 36.8434 31.4223C37.3097 31.7019 37.7164 32.0717 38.0375 32.5298C38.3586 32.9772 38.5876 33.4813 38.7103 34.0297C39.2388 36.2682 35.6817 46.1277 33.3693 47.7836C33.2205 47.8846 33.059 47.9739 32.8877 48.0298C32.5594 48.0749 32.2789 48.0749 31.974 48.0749H31.9722C31.8135 48.0298 31.6629 47.9631 31.5258 47.8738C29.7536 46.6093 30.0404 43.2407 30.4868 39.9055C30.4994 39.8162 30.513 39.7261 30.5256 39.6368C30.5707 39.3346 30.6104 39.0776 30.6104 38.8873C30.6636 38.4399 30.5103 38.2379 30.0232 37.6787C29.5344 37.1529 29.1285 36.5487 28.8201 35.8993C28.4368 34.9036 28.4368 33.7952 28.8201 32.7995C28.8345 32.7544 28.8327 32.7102 28.8165 32.6651C28.8003 32.62 28.7705 32.5866 28.7317 32.5641C28.3683 32.3179 27.9687 32.0491 27.5169 31.7136C26.7809 31.1427 25.9945 30.6394 25.1692 30.2138C23.4728 29.43 22.4635 27.371 21.8006 25.9947C21.7664 25.927 21.7321 25.8603 21.6987 25.7936C21.567 25.5248 21.4471 25.2903 21.3722 25.1775C21.1459 24.8646 20.8113 24.2261 20.29 23.2529L20.2277 23.1303C19.8282 22.3808 19.2176 21.2498 18.8605 20.6455C18.8397 20.623 18.8108 20.5896 18.7784 20.5779C18.745 20.5671 18.7089 20.5553 18.6729 20.5671C17.3633 20.7465 16.0646 21.0036 14.7812 21.3283C17.2407 15.9899 22.4978 12.0838 28.3268 10.9988C28.5739 10.8762 28.839 10.7752 29.1195 10.6742L29.1159 10.6714Z" fill="#F0F4FF"/>
<path d="M31.8931 51.3975C26.5801 51.3858 21.5872 49.2492 17.8326 45.38C14.078 41.5001 12.0063 36.3475 12 30.8721C12.0045 25.3886 14.0753 20.2324 17.8299 16.3516C20.8593 13.2328 24.861 11.1675 29.0963 10.5371L29.1622 10.7986C28.9042 10.8915 28.631 10.9943 28.3829 11.117L28.3478 11.1287C22.5594 12.2065 17.479 16.0251 15.0223 21.1253C16.2407 20.8268 17.4601 20.5932 18.6515 20.43C18.7101 20.4083 18.7805 20.4345 18.8192 20.4471C18.8806 20.4669 18.9221 20.5129 18.9509 20.5427L18.9744 20.5734C19.3703 21.2435 20.0648 22.5377 20.3462 23.0626L20.5446 23.4414C20.9874 24.2702 21.2805 24.8177 21.4807 25.0946C21.5502 25.2001 21.6503 25.3886 21.8189 25.7295L21.92 25.9297C22.5305 27.1978 23.5515 29.3136 25.2245 30.0875C26.0561 30.5159 26.8533 31.0245 27.5992 31.6036C28.0276 31.9219 28.4163 32.1853 28.7599 32.4171L28.8068 32.4486C28.8664 32.4829 28.916 32.5415 28.943 32.6146C28.9692 32.6894 28.971 32.7634 28.9484 32.8365C28.5723 33.8123 28.5723 34.8792 28.9448 35.847C29.2479 36.4828 29.6438 37.07 30.1218 37.5831C30.6097 38.1441 30.8046 38.3903 30.7441 38.899C30.7441 39.0749 30.7071 39.3247 30.6647 39.6142L30.6197 39.92C30.1786 43.2164 29.89 46.5372 31.6027 47.7592C31.7173 47.8332 31.848 47.8936 31.9905 47.9351C32.2818 47.9351 32.556 47.9351 32.869 47.8918C32.9871 47.8512 33.1332 47.7764 33.292 47.6672C35.5783 46.0303 39.1002 36.2709 38.578 34.0558C38.4598 33.53 38.2416 33.0421 37.9268 32.6047C37.6229 32.1708 37.2342 31.8101 36.7733 31.5341C34.5501 30.1605 31.039 30.8045 30.0172 31.0354L29.8566 31.0381L29.8242 31.0191C29.3597 30.7413 28.9484 30.46 28.5651 30.1587L28.4822 30.0992C28.1376 29.8494 27.7706 29.5824 27.3981 29.3254C27.3638 29.3146 27.3169 29.2677 27.2871 29.2045C27.2682 29.1775 27.2511 29.1188 27.2511 29.0566C27.2096 28.5786 27.3205 28.0817 27.564 27.6668L27.6028 27.6H27.6254C27.7318 27.508 27.8878 27.4747 28.1007 27.4999H28.1503L28.1764 27.5117C28.4641 27.6442 28.6914 27.7732 28.8916 27.9166L28.9214 27.9356C29.5247 28.308 30.1498 28.6949 30.7739 28.3549C30.9497 28.2566 31.0995 28.1078 31.2059 27.9247C31.3114 27.7416 31.3655 27.5387 31.3655 27.3214C31.4395 26.0542 32.4577 24.9539 33.356 23.9834C34.1289 23.1546 34.7963 22.4385 34.8405 21.5835C34.9343 19.9556 32.6092 18.5234 31.6063 17.9831L31.0742 17.6963L31.6776 17.7288C31.8904 17.7405 32.0934 17.7513 32.2981 17.7513C33.6924 17.7513 35.0489 17.4817 36.1185 16.991L36.1618 16.9712L36.2078 16.9829C37.006 17.1822 37.8177 17.2237 38.6204 17.1038C39.4925 16.9838 40.3132 16.6222 40.9969 16.0585L41.2738 15.8339C41.602 15.557 41.7815 15.1827 41.7779 14.7814C41.7725 14.3088 41.5146 13.8308 41.069 13.4709L40.6397 13.1237C39.8885 12.5375 39.0434 12.128 38.1316 11.9079C37.8213 11.8232 37.512 11.7808 37.2766 11.7537L37.2378 11.7492L37.208 11.7249C36.905 11.4813 36.5487 11.2658 36.1501 11.0818L34.9515 10.5298L36.2376 10.8275C39.9209 11.6798 43.2832 13.5891 45.96 16.3489C49.7164 20.2297 51.7881 25.3859 51.7926 30.8694C51.7863 36.3457 49.7137 41.4983 45.9582 45.3773C42.2018 49.2573 37.2071 51.3948 31.894 51.3948L31.8931 51.3975ZM15.0511 20.466C13.2419 23.5785 12.2742 27.1491 12.2715 30.8721C12.2778 36.2772 14.3206 41.363 18.0265 45.1915C21.7297 49.0075 26.654 51.1152 31.8931 51.1269C37.1322 51.1269 42.0584 49.0192 45.7634 45.1915C49.4693 41.363 51.5139 36.2772 51.5202 30.8721C51.5157 25.4598 49.472 20.3695 45.7652 16.5401C44.177 14.9031 42.3443 13.5692 40.3457 12.5835C40.5035 12.6872 40.6578 12.7972 40.8075 12.9154L41.2395 13.2635C41.7473 13.6748 42.0431 14.2276 42.0476 14.7814C42.053 15.2657 41.8393 15.7148 41.446 16.0458L41.1682 16.2713C40.4467 16.8657 39.5782 17.2481 38.6592 17.3743C37.8375 17.497 37.0042 17.4582 36.1889 17.2598C35.0913 17.7531 33.7123 18.0246 32.299 18.0246C32.2737 18.0246 32.2485 18.0246 32.2232 18.0246C33.3912 18.7218 35.2004 20.0575 35.1111 21.6015C35.0615 22.553 34.3301 23.3386 33.5544 24.1701C32.6877 25.1072 31.7037 26.1687 31.6361 27.3313C31.6361 27.5883 31.5712 27.8372 31.4404 28.0627C31.3087 28.2882 31.1238 28.4722 30.9037 28.5939C30.1416 29.0079 29.4183 28.5615 28.7789 28.1682L28.7329 28.1385C28.5543 28.0095 28.3487 27.8932 28.0898 27.7714H28.0844C27.849 27.7452 27.803 27.803 27.7877 27.8219L27.7841 27.8255C27.5776 28.1872 27.4838 28.6201 27.5207 29.0467L27.5316 29.09C27.9257 29.3624 28.2955 29.6302 28.6409 29.8818L28.7275 29.945C29.0964 30.2354 29.4896 30.5041 29.9306 30.7702H29.9865C31.0048 30.5375 34.6051 29.8782 36.914 31.305C37.4064 31.6 37.8222 31.986 38.1478 32.4504C38.4815 32.9167 38.716 33.438 38.8422 33.9981C39.3753 36.2583 35.7821 46.2188 33.4471 47.8918C33.2649 48.0163 33.0954 48.1029 32.9294 48.1561C32.5687 48.2075 32.2801 48.2075 31.9743 48.2075L31.9346 48.203C31.7606 48.1534 31.5973 48.0803 31.4512 47.9847C29.6122 46.6725 29.8999 43.2642 30.3527 39.8857L30.3978 39.5763C30.4393 39.2976 30.4744 39.0577 30.4744 38.8855C30.5204 38.4941 30.4176 38.3371 29.9207 37.7662C29.4282 37.2359 29.0161 36.6253 28.6977 35.9561C28.2973 34.9153 28.2973 33.7798 28.6941 32.7499C28.6959 32.7409 28.6959 32.7264 28.6896 32.7093C28.6851 32.6976 28.677 32.6876 28.6644 32.6804L28.6093 32.6435C28.2639 32.4099 27.8716 32.1438 27.436 31.8209C26.7009 31.2509 25.9172 30.7504 25.1073 30.3328C23.3504 29.522 22.3042 27.3502 21.6783 26.0524L21.5763 25.8522C21.469 25.6321 21.3346 25.366 21.258 25.2506C21.0514 24.9629 20.7538 24.4091 20.3056 23.5704L20.1053 23.1889C19.8267 22.6676 19.1358 21.3779 18.7417 20.7123V20.7141C18.7417 20.7141 18.729 20.7041 18.7245 20.7014L18.7137 20.705L18.6885 20.6987C17.4159 20.8728 16.1118 21.128 14.8112 21.4572L14.5361 21.5267L14.6552 21.2687C14.7796 20.9982 14.9122 20.7303 15.0511 20.466ZM37.3442 11.4931C37.5047 11.512 37.695 11.5382 37.8944 11.5787C37.6481 11.4967 37.3992 11.4191 37.1485 11.3479C37.2152 11.3957 37.2811 11.4426 37.3442 11.4931Z" fill="#0B4D5E"/>
<path d="M38.3552 13.5142C38.3552 13.4583 38.3534 13.4023 38.3489 13.3572L38.3552 13.5142Z" fill="#0B4D5E"/>
<path d="M38.3561 13.6495C38.284 13.6495 38.2245 13.5927 38.2217 13.5205L38.2145 13.3636C38.2109 13.2896 38.2668 13.2274 38.3399 13.2229C38.4057 13.2148 38.477 13.2716 38.4842 13.3446C38.4887 13.3933 38.4923 13.4538 38.4923 13.5142C38.4923 13.5881 38.4337 13.6477 38.3597 13.6495H38.357H38.3561Z" fill="#0B4D5E"/>
<path d="M30.9579 10.2574C28.2576 10.5929 26.241 11.925 26.241 13.5142C26.241 15.3495 28.953 16.8377 32.2981 16.8377C35.6432 16.8377 38.3553 15.3495 38.3553 13.5142C38.3553 11.8583 36.1709 10.4928 33.3055 10.2241V13.268C33.3055 13.7829 32.7716 14.1969 32.1322 14.1969C31.4927 14.1969 30.9579 13.7829 30.9579 13.268V10.2574Z" fill="#F0F4FF"/>
<path d="M32.2978 16.973C28.8832 16.973 26.1045 15.4208 26.1045 13.5142C26.1045 11.8718 28.0932 10.4775 30.9405 10.1231L31.0929 10.1041V13.268C31.0929 13.7054 31.5592 14.0616 32.131 14.0616C32.7028 14.0616 33.1691 13.7054 33.1691 13.268V10.0753L33.317 10.0888C36.3149 10.3702 38.4902 11.8105 38.4902 13.5133C38.4902 15.4208 35.7115 16.9721 32.2969 16.9721L32.2978 16.973ZM30.8214 10.4117C28.2357 10.7733 26.3751 12.0648 26.3751 13.5142C26.3751 15.2729 29.0312 16.7033 32.2969 16.7033C35.5627 16.7033 38.2188 15.2729 38.2188 13.5142C38.2188 11.9801 36.2184 10.6723 33.4396 10.3738V13.268C33.4396 13.8542 32.8525 14.3322 32.1301 14.3322C31.4076 14.3322 30.8205 13.8551 30.8205 13.268V10.4117H30.8214Z" fill="#0B4D5E"/>
<path d="M15.2069 20.3633C16.4118 18.3268 17.9558 16.5356 19.7678 15.0583C19.5333 11.5887 20.0906 9.03725 21.1883 7.31372C16.8213 7.81698 13.6872 11.5553 15.1897 20.2848L15.2069 20.3633Z" fill="#0B4D5E"/>
<path d="M15.207 20.4985C15.1998 20.4985 15.1926 20.4985 15.1863 20.4967C15.1313 20.4886 15.088 20.4471 15.0753 20.393L15.0573 20.3145C14.2492 15.6165 14.7065 12.0784 16.4192 9.7921C17.5267 8.3139 19.17 7.41109 21.1731 7.18021C21.2281 7.17299 21.2759 7.19915 21.3038 7.24244C21.3318 7.28663 21.3309 7.34255 21.3038 7.38675C20.153 9.19324 19.6822 11.7718 19.9041 15.0493C19.9077 15.0934 19.8888 15.1358 19.8545 15.1629C18.0435 16.6393 16.5202 18.4124 15.3243 20.4318C15.2999 20.4733 15.2548 20.4985 15.207 20.4985ZM20.925 7.48505C19.1023 7.75652 17.6602 8.58627 16.6347 9.95445C15.0023 12.1343 14.5459 15.5092 15.2756 19.9871C16.4462 18.0878 17.9082 16.4111 19.6272 14.9987C19.4216 11.8385 19.8581 9.3132 20.9241 7.48595L20.925 7.48505Z" fill="#0B4D5E"/>
<path d="M38.3288 10.1908V8.60162L34.2026 11.5003V13.2347L38.3288 10.1908Z" fill="#8AE5CC"/>
<path d="M34.2029 13.3699C34.1822 13.3699 34.1614 13.3654 34.1425 13.3555C34.0965 13.3329 34.0676 13.286 34.0676 13.2346V11.5003C34.0676 11.4561 34.0893 11.4146 34.1253 11.3893L38.2515 8.49065C38.293 8.46179 38.3462 8.45728 38.3913 8.48073C38.4364 8.50417 38.4644 8.55017 38.4644 8.60068V10.1898C38.4644 10.2331 38.4436 10.2728 38.4085 10.2989L34.2823 13.3428C34.2588 13.3609 34.23 13.369 34.202 13.369L34.2029 13.3699ZM34.3382 11.5697V12.9659L38.1929 10.1213V8.86042L34.3382 11.5697Z" fill="#0B4D5E"/>
<path d="M30.9578 9.67847C30.9578 10.1934 31.498 10.6074 32.132 10.6074C32.7661 10.6074 33.3063 10.1934 33.3063 9.67847V13.1923C33.3063 13.7072 32.7724 14.1212 32.132 14.1212C31.4917 14.1212 30.9578 13.7072 30.9578 13.1923V9.67847Z" fill="#8AE5CC"/>
<path d="M32.1311 14.2565C31.4087 14.2565 30.8215 13.7794 30.8215 13.1922V9.67844C30.8215 9.60358 30.882 9.54315 30.9568 9.54315C31.0317 9.54315 31.0921 9.60358 31.0921 9.67844C31.0921 10.1086 31.5674 10.4721 32.1302 10.4721C32.693 10.4721 33.1683 10.1086 33.1683 9.67844C33.1683 9.60358 33.2287 9.54315 33.3036 9.54315C33.3784 9.54315 33.4388 9.60358 33.4388 9.67844V13.1922C33.4388 13.7785 32.8517 14.2565 32.1293 14.2565H32.1311ZM31.093 10.3251V13.1922C31.093 13.6296 31.5593 13.9859 32.1311 13.9859C32.7029 13.9859 33.1692 13.6296 33.1692 13.1922V10.3251C32.9293 10.5785 32.5532 10.7418 32.1311 10.7418C31.709 10.7418 31.332 10.5785 31.093 10.3251Z" fill="#0B4D5E"/>
<path d="M16.1242 8.33285C16.0881 8.37795 16.0521 8.43387 16.0178 8.48979C20.6463 3.6439 30.4517 6.94574 34.2072 11.5111V13.2347C27.0579 5.19967 12.2605 3.12892 15.1953 20.2848C14.7993 20.8665 14.4782 21.4825 14.2383 22.1427C12.8215 15.0141 13.8731 10.6832 16.1242 8.33285Z" fill="#8AE5CC"/>
<path d="M14.2385 22.2779C14.2385 22.2779 14.2313 22.2779 14.2277 22.2779C14.1681 22.2734 14.1176 22.2292 14.105 22.1697C12.8027 15.6165 13.4484 10.9303 16.026 8.23992C16.0504 8.21467 16.082 8.20024 16.1162 8.19844C17.7225 6.64176 20.0007 5.86883 22.7479 5.97526C26.9796 6.13219 31.8435 8.42481 34.312 11.4263C34.3309 11.4507 34.3427 11.4813 34.3427 11.512V13.2355C34.3427 13.2914 34.3075 13.342 34.2552 13.3618C34.2002 13.3825 34.1433 13.3672 34.1055 13.3248C29.7827 8.4672 22.958 6.10242 18.8941 8.05954C16.5113 9.20585 13.958 12.2525 15.328 20.2631C15.3343 20.2983 15.3262 20.3335 15.3072 20.3623C14.9104 20.9467 14.5929 21.5618 14.3657 22.1896C14.3467 22.2437 14.2953 22.2788 14.2385 22.2788V22.2779ZM16.0414 8.62232C13.7713 11.1828 13.1661 15.677 14.2836 21.6611C14.4901 21.1794 14.748 20.7077 15.0529 20.2541C13.6757 12.1181 16.3155 8.99842 18.7777 7.81513C22.9382 5.81292 29.5987 8.0379 34.0721 12.8847V11.5607C31.6388 8.63134 26.8813 6.39915 22.7389 6.24493C19.97 6.1367 17.6756 6.95021 16.1153 8.58354C16.0955 8.60519 16.0693 8.61871 16.0423 8.62322L16.0414 8.62232Z" fill="#0B4D5E"/>
<path d="M23.014 3.44183C28.8781 2.10973 35.8218 5.47832 38.3336 8.61241L34.2129 11.5111C30.4619 6.95652 20.6483 3.64386 16.0171 8.48975C17.7307 5.85982 21.3112 3.72142 23.014 3.44183Z" fill="#F0F4FF"/>
<path d="M34.2137 11.6455C34.175 11.6455 34.1362 11.6284 34.1091 11.5959C31.6839 8.6494 26.8994 6.40007 22.7344 6.24585C22.5775 6.24044 22.4223 6.23773 22.2699 6.23773C19.7067 6.23773 17.5864 7.04402 16.1154 8.58266C16.0676 8.63316 15.9882 8.63858 15.9341 8.59528C15.8782 8.55199 15.8664 8.47353 15.9043 8.41491C17.6594 5.72184 21.2697 3.59337 22.9878 3.30837C29.127 1.91764 36.0211 5.509 38.44 8.52674C38.4626 8.5556 38.4734 8.59348 38.468 8.63046C38.4626 8.66744 38.4427 8.70081 38.4121 8.72245L34.2922 11.6212C34.2697 11.6383 34.2408 11.6455 34.2137 11.6455ZM22.269 5.96716C22.426 5.96716 22.5847 5.96986 22.7434 5.97618C26.9336 6.1313 31.7425 8.37522 34.2372 11.3289L38.1361 8.58536C35.6297 5.58565 28.7753 2.27209 23.0437 3.57442H23.0356C21.6305 3.80621 18.7742 5.417 16.9298 7.51842C18.3512 6.49747 20.1667 5.96806 22.2681 5.96806L22.269 5.96716Z" fill="#0B4D5E"/>
<path d="M32.1309 7.44266C32.7904 7.44266 33.325 7.116 33.325 6.71303C33.325 6.31007 32.7904 5.9834 32.1309 5.9834C31.4714 5.9834 30.9368 6.31007 30.9368 6.71303C30.9368 7.116 31.4714 7.44266 32.1309 7.44266Z" fill="#0B4D5E"/>
<path d="M32.1312 7.57884C31.3862 7.57884 30.8018 7.19914 30.8018 6.71392C30.8018 6.2287 31.3853 5.849 32.1312 5.849C32.877 5.849 33.4615 6.2287 33.4615 6.71392C33.4615 7.19914 32.877 7.57884 32.1312 7.57884ZM32.1312 6.11866C31.5575 6.11866 31.0732 6.39104 31.0732 6.71392C31.0732 7.0368 31.5575 7.30826 32.1312 7.30826C32.7048 7.30826 33.19 7.03589 33.19 6.71392C33.19 6.39194 32.7057 6.11866 32.1312 6.11866Z" fill="#0B4D5E"/>
<path d="M32.1309 7.1234C32.7904 7.1234 33.325 6.79672 33.325 6.39376C33.325 5.99079 32.7904 5.66412 32.1309 5.66412C31.4714 5.66412 30.9368 5.99079 30.9368 6.39376C30.9368 6.79672 31.4714 7.1234 32.1309 7.1234Z" fill="#F0F4FF"/>
<path d="M32.1312 7.25957C31.3862 7.25957 30.8018 6.87987 30.8018 6.39465C30.8018 5.90943 31.3853 5.52972 32.1312 5.52972C32.877 5.52972 33.4615 5.90943 33.4615 6.39465C33.4615 6.87987 32.877 7.25957 32.1312 7.25957ZM32.1312 5.79939C31.5575 5.79939 31.0732 6.07177 31.0732 6.39465C31.0732 6.71753 31.5575 6.989 32.1312 6.989C32.7048 6.989 33.19 6.71663 33.19 6.39465C33.19 6.07267 32.7057 5.79939 32.1312 5.79939Z" fill="#0B4D5E"/>
</svg>
