<svg width="64" height="64" viewBox="0 0 64 64" fill="none" xmlns="http://www.w3.org/2000/svg">
<mask id="mask0_15036_1246" style="mask-type:alpha" maskUnits="userSpaceOnUse" x="0" y="0" width="64" height="64">
<rect width="64" height="64" fill="#D9D9D9"/>
</mask>
<g mask="url(#mask0_15036_1246)">
</g>
<g clip-path="url(#clip0_15036_1246)">
<path d="M59.7199 12.8401L44.9699 21.4001L28.1499 11.6901L42.8999 3.12012L59.7199 12.8401Z" fill="#F0F4FF" stroke="#155C6D" stroke-width="0.25" stroke-linecap="round" stroke-linejoin="round"/>
<path d="M31.5901 11.82L44.5001 19.27L55.9401 12.62V11.78L44.5001 18.43L31.5901 10.98V11.82Z" fill="#155C6D" stroke="#155C6D" stroke-width="0.25" stroke-linecap="round" stroke-linejoin="round"/>
<path d="M55.9401 11.7801L44.5001 18.4301L31.5901 10.9801L43.0301 4.33008L55.9401 11.7801Z" fill="#F0F4FF" stroke="#155C6D" stroke-width="0.25" stroke-linecap="round" stroke-linejoin="round"/>
<path d="M44.9701 21.3999L44.9101 44.6499L28.0901 34.9399L28.1501 11.6899L44.9701 21.3999Z" fill="#155C6D" stroke="#155C6D" stroke-width="0.25" stroke-linecap="round" stroke-linejoin="round"/>
<path d="M44.97 30.67L32.58 37.87L15.76 28.16L28.15 20.96L44.97 30.67Z" fill="#F0F4FF" stroke="#155C6D" stroke-width="0.25" stroke-linecap="round" stroke-linejoin="round"/>
<path d="M32.58 37.8702L32.54 51.8202L15.72 42.1002L15.76 28.1602L32.58 37.8702Z" fill="#155C6D" stroke="#155C6D" stroke-width="0.25" stroke-linecap="round" stroke-linejoin="round"/>
<path d="M32.6199 44.8199L21.9699 51.0199L5.13989 41.2999L15.7999 35.1099L32.6199 44.8199Z" fill="#F0F4FF" stroke="#155C6D" stroke-width="0.25" stroke-linecap="round" stroke-linejoin="round"/>
<path d="M30.4601 44.6801L21.7201 49.7601L7.31006 41.4501L16.0401 36.3701L30.4601 44.6801Z" fill="#F0F4FF" stroke="#155C6D" stroke-width="0.25" stroke-linecap="round" stroke-linejoin="round"/>
<path d="M30.4601 44.6801L21.7201 49.7601L7.31006 41.4501L16.0401 36.3701L30.4601 44.6801Z" fill="#F0F4FF" stroke="#155C6D" stroke-width="0.25" stroke-linecap="round" stroke-linejoin="round"/>
<path d="M16.0401 36.8701L30.0201 44.9301L30.4601 44.6801L16.0401 36.3701L7.31006 41.4501L7.74006 41.7001L16.0401 36.8701Z" fill="#155C6D" stroke="#155C6D" stroke-width="0.25" stroke-linecap="round" stroke-linejoin="round"/>
<path d="M44.97 21.3998L44.95 30.6798L32.58 37.8698L32.5599 44.8598L21.9699 51.0198L21.95 61.9798L59.65 40.0798L59.72 12.8398L44.97 21.3998Z" fill="#8AE5CC" stroke="#155C6D" stroke-width="0.25" stroke-linecap="round" stroke-linejoin="round"/>
<path d="M21.9701 51.0198L21.9501 61.9798L5.12012 52.2698L5.14012 41.2998L21.9701 51.0198Z" fill="#155C6D" stroke="#155C6D" stroke-width="0.25" stroke-linecap="round" stroke-linejoin="round"/>
<path d="M55.3301 39.75L55.3801 18.47L57.0201 17.52L56.9601 38.8L55.3301 39.75Z" fill="#F0F4FF" stroke="#155C6D" stroke-width="0.25" stroke-linecap="round" stroke-linejoin="round"/>
<path d="M52.1399 41.5801L52.1999 20.3001L53.8299 19.3501L53.7799 40.6301L52.1399 41.5801Z" fill="#F0F4FF" stroke="#155C6D" stroke-width="0.25" stroke-linecap="round" stroke-linejoin="round"/>
<path d="M48.96 43.44L49.01 22.16L50.64 21.21L50.59 42.49L48.96 43.44Z" fill="#F0F4FF" stroke="#155C6D" stroke-width="0.25" stroke-linecap="round" stroke-linejoin="round"/>
<path d="M41.3599 47.8299L41.4099 35.5899L43.0399 34.6499L42.9899 46.8799L41.3599 47.8299Z" fill="#F0F4FF" stroke="#155C6D" stroke-width="0.25" stroke-linecap="round" stroke-linejoin="round"/>
<path d="M38.1699 49.6998L38.2199 37.4598L39.8599 36.5098L39.7999 48.7498L38.1699 49.6998Z" fill="#F0F4FF" stroke="#155C6D" stroke-width="0.25" stroke-linecap="round" stroke-linejoin="round"/>
<path d="M34.98 51.5599L35.04 39.3199L36.67 38.3799L36.62 50.6099L34.98 51.5599Z" fill="#F0F4FF" stroke="#155C6D" stroke-width="0.25" stroke-linecap="round" stroke-linejoin="round"/>
<path d="M42.0601 30.2699L31.8201 36.2199L18.1101 28.3099L28.3501 22.3599L42.0601 30.2699Z" fill="#F0F4FF" stroke="#155C6D" stroke-width="0.25" stroke-linecap="round" stroke-linejoin="round"/>
<path d="M28.3501 22.8799L41.6101 30.5299L42.0601 30.2699L28.3501 22.3599L18.1101 28.3099L18.5601 28.5699L28.3501 22.8799Z" fill="#155C6D" stroke="#155C6D" stroke-width="0.25" stroke-linecap="round" stroke-linejoin="round"/>
<path d="M30.73 24.7598L25.06 28.0598L21.22 25.8398L26.89 22.5498L30.73 24.7598Z" fill="#F0F4FF" stroke="#155C6D" stroke-width="0.25" stroke-linecap="round" stroke-linejoin="round"/>
<path d="M30.73 24.7598L30.72 27.0498L25.05 30.3398L25.06 28.0598L30.73 24.7598Z" fill="#F0F4FF" stroke="#155C6D" stroke-width="0.25" stroke-linecap="round" stroke-linejoin="round"/>
<path d="M25.06 28.0598L25.05 30.3398L21.21 28.1298L21.22 25.8398L25.06 28.0598Z" fill="#155C6D" stroke="#155C6D" stroke-width="0.25" stroke-linecap="round" stroke-linejoin="round"/>
<path d="M24.3401 54.2401V51.6801L25.8001 50.8301V53.3901L24.3401 54.2401Z" fill="#F0F4FF" stroke="#155C6D" stroke-width="0.25" stroke-linecap="round" stroke-linejoin="round"/>
<path d="M27.0901 52.7401V50.1801L28.5501 49.3301V51.8901L27.0901 52.7401Z" fill="#F0F4FF" stroke="#155C6D" stroke-width="0.25" stroke-linecap="round" stroke-linejoin="round"/>
<path d="M29.8301 51.2401V48.6801L31.3001 47.8301V50.3901L29.8301 51.2401Z" fill="#F0F4FF" stroke="#155C6D" stroke-width="0.25" stroke-linecap="round" stroke-linejoin="round"/>
<path d="M24.3401 58.2899V55.7299L25.8001 54.8799V57.4399L24.3401 58.2899Z" fill="#F0F4FF" stroke="#155C6D" stroke-width="0.25" stroke-linecap="round" stroke-linejoin="round"/>
<path d="M27.0901 56.7899V54.2299L28.5501 53.3799V55.9399L27.0901 56.7899Z" fill="#F0F4FF" stroke="#155C6D" stroke-width="0.25" stroke-linecap="round" stroke-linejoin="round"/>
<path d="M29.8301 55.2899V52.7299L31.3001 51.8799V54.4399L29.8301 55.2899Z" fill="#F0F4FF" stroke="#155C6D" stroke-width="0.25" stroke-linecap="round" stroke-linejoin="round"/>
</g>
<defs>
<clipPath id="clip0_15036_1246">
<rect width="54.84" height="59.11" fill="white" transform="translate(5 3)"/>
</clipPath>
</defs>
</svg>
