<svg width="64" height="64" viewBox="0 0 64 64" fill="none" xmlns="http://www.w3.org/2000/svg">
<path d="M30.0708 43.824C30.0893 46.0965 31.6129 48.3689 34.6785 50.1003C40.7914 53.5695 50.6717 53.5695 56.7291 50.1003C59.7671 48.3625 61.2722 46.0965 61.263 43.824V40.0593H30.0708V43.824Z" fill="#8AE5CC"/>
<path d="M45.7249 52.8363C41.7063 52.8363 37.6822 51.9646 34.6101 50.2203C31.6137 48.5277 29.9525 46.2562 29.9331 43.8249V40.0593C29.9331 39.9826 29.995 39.9208 30.0716 39.9208H61.2638C61.3404 39.9208 61.4023 39.9826 61.4023 40.0593V43.8239C61.4116 46.2442 59.7762 48.5166 56.7983 50.2203C53.7538 51.9636 49.7417 52.8363 45.7249 52.8363ZM30.2101 43.8239C30.2286 46.1518 31.8399 48.3384 34.7468 49.9802C40.8162 53.4245 50.6476 53.4245 56.6607 49.9802C59.5481 48.3283 61.1345 46.1417 61.1244 43.8249V40.1978H30.2101V43.8239Z" fill="#0B4D5E"/>
<path d="M56.6643 33.5041C62.7772 36.9733 62.8048 42.5884 56.7382 46.0576C50.6622 49.5259 40.8004 49.5259 34.6783 46.0576C28.5747 42.5884 28.5378 36.9733 34.6137 33.5041C40.6804 30.0349 50.5515 30.0349 56.6643 33.5041Z" fill="#F0F4FF"/>
<path d="M45.7248 48.7881C41.7053 48.7881 37.6812 47.9183 34.6091 46.1786C31.6006 44.4685 29.9422 42.1886 29.9395 39.7582C29.9367 37.3445 31.5729 35.0813 34.5444 33.3841C40.6388 29.9001 50.5911 29.8992 56.7317 33.3841C59.7419 35.0933 61.4031 37.3722 61.4059 39.8016C61.4095 42.2154 59.7751 44.4795 56.8055 46.1786C53.7574 47.9183 49.7453 48.7881 45.7248 48.7881ZM45.6214 31.0433C41.6536 31.0433 37.6913 31.9039 34.682 33.6242C31.8001 35.2696 30.2146 37.4479 30.2165 39.7573C30.2192 42.0833 31.8278 44.2783 34.7457 45.9367C40.8124 49.3735 50.6474 49.3726 56.6688 45.9367C59.5489 44.2903 61.1335 42.111 61.1298 39.8007C61.1252 37.4747 59.5157 35.2807 56.595 33.6232C53.5626 31.902 49.5883 31.0423 45.6205 31.0423L45.6214 31.0433Z" fill="#0B4D5E"/>
<path d="M27.5403 37.2754C27.5588 39.5479 29.0823 41.8203 32.148 43.5517C38.2609 47.0209 48.1319 47.0209 54.1986 43.5517C57.2366 41.8139 58.7417 39.5479 58.7325 37.2754V33.5107H27.5403V37.2754Z" fill="#8AE5CC"/>
<path d="M43.1909 46.2858C39.1723 46.2858 35.15 45.415 32.0797 43.6726C29.0833 41.98 27.4222 39.7094 27.4019 37.2771V33.5116C27.4019 33.4349 27.4637 33.373 27.5403 33.373H58.7325C58.8092 33.373 58.871 33.4349 58.871 33.5116V37.2762C58.8802 39.6973 57.245 41.9689 54.267 43.6735C51.2198 45.4159 47.2077 46.2867 43.1909 46.2867V46.2858ZM27.6798 37.2744C27.6992 39.6032 29.3105 41.7907 32.2173 43.4315C38.2794 46.8721 48.1117 46.874 54.1303 43.4315C57.0178 41.7796 58.6042 39.593 58.594 37.2753V33.6491H27.6798V37.2744Z" fill="#0B4D5E"/>
<path d="M54.1342 26.9481C60.2378 30.4173 60.2748 36.0334 54.2081 39.5016C48.1322 42.9708 38.2611 42.9708 32.1482 39.5016C26.0446 36.0334 26.0077 30.4173 32.0744 26.9481C38.1503 23.4799 48.0213 23.4799 54.1342 26.9481Z" fill="#F0F4FF"/>
<path d="M43.192 42.2349C39.1725 42.2349 35.1493 41.3641 32.0799 39.6226C29.0706 37.9125 27.4121 35.6326 27.4085 33.2022C27.4048 30.7894 29.0382 28.5262 32.006 26.829C38.1069 23.3469 48.0638 23.3469 54.2025 26.829C57.2119 28.5391 58.8712 30.8199 58.8739 33.2512C58.8767 35.664 57.2442 37.9263 54.2764 39.6235C51.2255 41.365 47.2115 42.2349 43.192 42.2349ZM43.0904 24.4891C39.1208 24.4891 35.1557 25.3488 32.1436 27.0691C29.2663 28.7146 27.6836 30.8919 27.6864 33.2013C27.6901 35.5283 29.2986 37.7232 32.2175 39.3816C38.2786 42.8221 48.1146 42.8221 54.1398 39.3816C57.017 37.737 58.5997 35.5597 58.5969 33.2503C58.5942 30.9224 56.9847 28.7275 54.0659 27.0691C51.0353 25.3488 47.0601 24.4891 43.0904 24.4891Z" fill="#0B4D5E"/>
<path d="M15.9704 6.04974L17.9464 9.35456C17.8079 9.12186 17.2539 9.14126 16.3674 9.43028C16.2659 9.46167 16.1828 9.49307 16.072 9.53739C14.3637 10.1856 12.2583 11.5208 11.3811 12.5153C11.0487 12.8995 10.9471 13.1829 11.0395 13.3464L9.06339 10.0416C8.97105 9.8772 9.07262 9.59464 9.41428 9.2105C10.2823 8.20955 12.3876 6.86787 14.1051 6.23257C14.1975 6.19472 14.299 6.16331 14.3821 6.12545C15.2686 5.82904 15.8227 5.81705 15.9704 6.04974Z" fill="#0B4D5E"/>
<path d="M11.0397 13.4859C10.9926 13.4859 10.9465 13.4619 10.9206 13.4185L8.94453 10.1137C8.80971 9.87543 8.93437 9.54208 9.31019 9.11917C10.1957 8.09698 12.326 6.74329 14.0573 6.10338C14.0933 6.08768 14.1368 6.07198 14.1792 6.05721C14.23 6.03874 14.2799 6.02028 14.3242 5.99996C15.303 5.67216 15.8893 5.66662 16.087 5.97595C16.087 5.97688 16.087 5.97779 16.0888 5.97871L18.0658 9.28354C18.1046 9.3491 18.0843 9.43497 18.0178 9.47376C17.9513 9.51162 17.8673 9.4913 17.8276 9.42574C17.7694 9.32416 17.3991 9.23922 16.4101 9.56148C16.3113 9.59288 16.231 9.62243 16.123 9.66583C14.4285 10.3085 12.3491 11.6271 11.4848 12.6068C11.1708 12.9697 11.1136 13.196 11.1597 13.2791C11.1967 13.3455 11.1745 13.4286 11.108 13.4674C11.0868 13.4804 11.0628 13.4859 11.0397 13.4859ZM15.5172 6.02766C15.2928 6.02766 14.9429 6.08491 14.4267 6.25758C14.3898 6.27605 14.3325 6.29637 14.2753 6.3176C14.2356 6.33238 14.1959 6.34623 14.158 6.36193C12.459 6.99076 10.3804 8.30844 9.51979 9.30293C9.1966 9.66582 9.1375 9.89113 9.18552 9.97516L10.9427 12.9162C11.0092 12.7703 11.121 12.6068 11.277 12.4268C12.1672 11.4184 14.2965 10.0647 16.0242 9.41004C16.1359 9.3648 16.2217 9.33247 16.3261 9.30016C16.881 9.12009 17.3059 9.037 17.6106 9.06285L15.8533 6.12461C15.821 6.07475 15.7185 6.02858 15.5181 6.02858L15.5172 6.02766Z" fill="#0B4D5E"/>
<path d="M15.5273 6.0933C15.3241 6.0933 14.9917 6.14409 14.4654 6.32046C14.3731 6.35186 14.2807 6.38324 14.1791 6.4211C12.4893 7.05732 10.421 8.36669 9.57143 9.34179C9.23901 9.71945 9.22051 9.90229 9.24821 9.93369L10.9473 12.7602C11.0211 12.6411 11.1135 12.5155 11.2335 12.3705C12.12 11.3502 14.2715 9.98448 16.0074 9.32333C16.1183 9.28547 16.2106 9.25406 16.3029 9.2162C16.7923 9.05276 17.1894 8.97059 17.4941 8.96412L15.8043 6.13762C15.8043 6.13762 15.712 6.0813 15.5365 6.0813H15.5273V6.0933Z" fill="#0B4D5E"/>
<path d="M10.9474 12.8987C10.8984 12.8987 10.8541 12.8728 10.8292 12.8313L9.13012 10.0048C9.02947 9.89394 9.14394 9.61877 9.46805 9.25034C10.3277 8.26323 12.4193 6.93632 14.1312 6.2918C14.2254 6.25671 14.3122 6.22716 14.399 6.19669C14.8514 6.04433 15.2051 5.96584 15.4692 5.95568C15.4877 5.94737 15.507 5.94275 15.5274 5.94275C15.7453 5.94275 15.8635 6.01201 15.8764 6.0194C15.8958 6.0314 15.9115 6.04709 15.9235 6.06649L17.6133 8.89299C17.6383 8.93547 17.6392 8.9881 17.6152 9.0315C17.5921 9.0749 17.5468 9.10168 17.4969 9.10261C17.2024 9.10907 16.8155 9.19125 16.3473 9.34731C16.2642 9.38147 16.1738 9.41194 16.0667 9.44888C14.3214 10.1128 12.205 11.4628 11.3379 12.461C11.2262 12.5958 11.1357 12.7186 11.0646 12.8331C11.0397 12.8737 10.9954 12.8987 10.9474 12.8987ZM9.37945 9.88748L10.9548 12.5035C11.0055 12.4333 11.0628 12.3594 11.1274 12.2828C12.0213 11.2532 14.1875 9.86902 15.9577 9.19402C16.0786 9.15247 16.1645 9.12385 16.2504 9.08876C16.641 8.95764 16.9771 8.87637 17.2597 8.84313L15.7074 6.24655C15.6825 6.23824 15.6382 6.22624 15.5763 6.22255C15.5606 6.22901 15.544 6.2327 15.5265 6.2327C15.3612 6.2327 15.0509 6.27148 14.5079 6.45246C14.4027 6.48848 14.3177 6.5171 14.2263 6.55219C12.5522 7.18287 10.5097 8.47562 9.67398 9.4341C9.43021 9.70927 9.3859 9.85148 9.37759 9.88841L9.37945 9.88748ZM9.35262 9.84224L9.37387 9.87825C9.37018 9.8681 9.36278 9.85517 9.35262 9.84224Z" fill="#0B4D5E"/>
<path d="M12.6185 13.2643C11.1226 13.7675 10.5593 13.4591 11.3812 12.5145C12.2584 11.5135 14.3637 10.1728 16.0812 9.53746C16.1736 9.4996 16.2752 9.46821 16.3675 9.43035C17.8634 8.92618 18.4266 9.23459 17.6048 10.1792C16.7276 11.1802 14.6223 12.5209 12.9048 13.1572C12.8124 13.195 12.7201 13.2264 12.6185 13.2643Z" fill="#8AE5CC"/>
<path d="M11.4829 13.642C11.2335 13.642 11.0314 13.5838 10.9279 13.4305C10.7756 13.2034 10.8928 12.8654 11.276 12.425C12.1754 11.4 14.3084 10.0472 16.0324 9.40917C16.0758 9.39163 16.1248 9.37315 16.1737 9.3556C16.2217 9.33806 16.2688 9.32145 16.3131 9.30298C16.9743 9.07952 17.809 8.89484 18.0565 9.26512C18.2089 9.49227 18.0916 9.83024 17.7084 10.2707C16.8099 11.2957 14.676 12.6484 12.9511 13.2874C12.892 13.3123 12.8273 13.3354 12.7599 13.3604L12.6657 13.3945C12.6657 13.3945 12.662 13.3945 12.6611 13.3954C12.2779 13.5247 11.8338 13.6411 11.482 13.6411L11.4829 13.642ZM17.5062 9.32883C17.2836 9.32883 16.9337 9.38608 16.411 9.56153C16.3704 9.57907 16.3196 9.59661 16.2688 9.61508C16.2227 9.6317 16.1774 9.64833 16.134 9.66588C14.4424 10.2919 12.3592 11.6096 11.4866 12.6059C11.1625 12.9781 11.108 13.1997 11.1597 13.2754C11.228 13.377 11.6011 13.461 12.5734 13.1341L12.6676 13.1C12.7313 13.0769 12.7922 13.0547 12.8532 13.0298C14.5458 12.4028 16.6298 11.0842 17.5015 10.0879C17.8256 9.71665 17.8801 9.49504 17.8284 9.4184C17.797 9.37131 17.6991 9.3279 17.5062 9.3279V9.32883Z" fill="#0B4D5E"/>
<path d="M16.7277 10.7205L18.9623 14.4353C18.8885 14.3152 18.6115 14.3217 18.1682 14.4796C18.1221 14.4981 18.0666 14.511 18.0205 14.523C17.1525 14.8443 16.1091 15.5175 15.6658 16.0217C15.4996 16.2165 15.4442 16.355 15.4811 16.4372L13.265 12.7224C13.2096 12.6411 13.265 12.5026 13.4404 12.3068C13.8744 11.8101 14.9364 11.136 15.8044 10.8091C15.8413 10.7897 15.8874 10.7713 15.9428 10.7583C16.3861 10.6134 16.6631 10.6013 16.7277 10.7149V10.7205Z" fill="#0B4D5E"/>
<path d="M15.4839 16.5775C15.435 16.5775 15.3879 16.5526 15.3621 16.5082L13.1459 12.7934C13.0037 12.5875 13.2539 12.3068 13.3361 12.2154C13.7849 11.702 14.8708 11.0131 15.7554 10.6807C15.7923 10.6604 15.8505 10.6392 15.9115 10.6244C16.4313 10.4536 16.7425 10.46 16.8478 10.6475C16.8524 10.6549 16.8561 10.6622 16.8589 10.6696L19.0814 14.365C19.1202 14.4297 19.0999 14.5146 19.0344 14.5543C18.9697 14.594 18.8848 14.5737 18.8442 14.5091C18.8211 14.4888 18.6502 14.4565 18.2135 14.6107C18.1747 14.6264 18.1239 14.6402 18.0777 14.6522C17.2393 14.9606 16.2088 15.6153 15.7693 16.1139C15.6003 16.3115 15.6086 16.3836 15.6086 16.3836C15.639 16.4501 15.6123 16.5276 15.5467 16.5618C15.5273 16.5719 15.5052 16.5775 15.4849 16.5775H15.4839ZM16.5329 10.7749C16.4442 10.7749 16.2743 10.7961 15.9862 10.8903C15.9355 10.9023 15.9004 10.9152 15.8681 10.9319C15.0038 11.2587 13.9686 11.9125 13.5439 12.3973C13.3767 12.5838 13.3813 12.6512 13.3823 12.6522L15.4369 16.0927C15.4747 16.0345 15.519 15.9791 15.5597 15.932C16.0334 15.3937 17.0915 14.7187 17.9725 14.3927C17.9771 14.3909 18.003 14.3835 18.0076 14.3826C18.0427 14.3733 18.0824 14.3632 18.1156 14.3503C18.3354 14.2718 18.5201 14.2275 18.6687 14.2164L16.6086 10.7915L16.6031 10.7823C16.5929 10.7786 16.5707 10.7749 16.5329 10.7749Z" fill="#0B4D5E"/>
<path d="M41.3453 52.503C50.2376 47.1205 52.029 34.1136 45.3436 23.4429C38.6675 12.7657 26.0447 8.47286 17.1432 13.8553C8.25091 19.2313 6.45957 32.2447 13.1449 42.9154C19.8211 53.5926 32.453 57.8799 41.3453 52.5094V52.503Z" fill="#F0F4FF"/>
<path d="M32.838 54.9582C25.5321 54.9582 17.7701 50.5758 13.0276 42.9902C9.38204 37.1719 8.10774 30.4071 9.52976 24.43C10.6295 19.8103 13.3083 16.0133 17.0721 13.7371C26.0197 8.32604 38.756 12.6475 45.4608 23.3699C49.1045 29.1855 50.3797 35.9475 48.9595 41.9209C47.8634 46.5305 45.1967 50.3228 41.4468 52.6036C41.4376 52.6128 41.4275 52.6221 41.4164 52.6285C38.7995 54.2094 35.8566 54.9582 32.838 54.9582ZM25.6587 11.6798C22.6854 11.6798 19.7914 12.4167 17.2143 13.9744C13.5151 16.2109 10.8816 19.9469 9.79939 24.4946C8.39398 30.3997 9.65626 37.0869 13.2621 42.8434C19.8782 53.4245 32.4244 57.7118 41.2464 52.4088C41.2548 52.3995 41.264 52.3921 41.2732 52.3857C44.9751 50.1455 47.6086 46.4058 48.6908 41.8572C50.0935 35.9549 48.8303 29.2704 45.2263 23.5177C40.5354 16.017 32.8667 11.6798 25.6587 11.6798Z" fill="#0B4D5E"/>
<path d="M39.2491 49.1667C46.6178 44.716 48.0952 33.9511 42.5733 25.1244C37.0422 16.2986 26.5986 12.7417 19.23 17.1924C11.8705 21.6432 10.3839 32.4081 15.915 41.2348C21.4369 50.0615 31.8897 53.6184 39.2491 49.1667Z" fill="#8AE5CC"/>
<path d="M32.2065 51.2203C26.1564 51.2203 19.7278 47.5913 15.7978 41.3086C12.7802 36.494 11.7248 30.8936 12.9021 25.9452C13.8135 22.114 16.0351 18.9625 19.158 17.0742C26.5682 12.5975 37.1272 16.1748 42.6898 25.0513C45.7065 29.8733 46.7582 35.4774 45.5781 40.4258C44.6649 44.2533 42.4423 47.4002 39.3193 49.2858C37.1494 50.5979 34.7107 51.2203 32.2065 51.2203ZM26.2709 15.4194C23.8165 15.4194 21.4277 16.027 19.3012 17.3115C16.2429 19.161 14.0655 22.2507 13.1717 26.0089C12.011 30.8862 13.0544 36.4091 16.0323 41.1618C21.5099 49.9174 31.8925 53.4549 39.1772 49.0494C42.2354 47.2026 44.4128 44.1166 45.3094 40.3621C46.4729 35.4847 45.4332 29.9573 42.4561 25.1991C38.5733 19.0031 32.2296 15.4204 26.2709 15.4204V15.4194Z" fill="#0B4D5E"/>
<path d="M42.804 25.4761C37.4391 16.5497 27.0232 12.7527 19.5438 16.9966C19.1098 17.2422 18.7035 17.5063 18.3064 17.7962C18.3249 17.7962 18.3433 17.7704 18.3618 17.7584C25.8413 13.5089 36.2571 17.305 41.622 26.2379C46.6638 34.6555 45.4264 44.6272 38.9996 49.3051C46.4422 45.0428 48.1412 34.3841 42.7948 25.4761H42.804Z" fill="#0B4D5E"/>
<path d="M38.9999 49.4437C38.9547 49.4437 38.9094 49.4216 38.8835 49.3809C38.8438 49.3191 38.8595 49.2369 38.9186 49.1935C45.3861 44.4851 46.4979 34.6473 41.5032 26.3091C36.1863 17.4537 25.8333 13.6706 18.4304 17.8785C18.4166 17.8951 18.3732 17.9348 18.3067 17.9348C18.2476 17.9348 18.194 17.896 18.1746 17.8388C18.1552 17.7815 18.1765 17.7197 18.2245 17.6846C18.6345 17.3854 19.0445 17.1204 19.4748 16.8766C27.006 12.6032 37.5271 16.4278 42.9234 25.4051C42.9317 25.4189 42.9372 25.4328 42.94 25.4485C45.8367 30.2981 46.7684 35.8726 45.4969 40.7491C44.5097 44.5359 42.2271 47.6173 39.0691 49.4253C39.0479 49.4373 39.023 49.4437 38.9999 49.4437ZM25.0992 15.8867C31.285 15.8867 37.8484 19.6837 41.7415 26.1678C46.2522 33.699 45.8432 42.4444 41.0563 47.656C43.0499 45.8831 44.4996 43.4777 45.2291 40.6798C46.4858 35.8597 45.556 30.3452 42.6769 25.5482C42.6685 25.5343 42.663 25.5205 42.6602 25.5057C37.5733 17.0853 27.9293 13.2754 20.6327 16.5977C22.0686 16.1185 23.5728 15.8867 25.0992 15.8867Z" fill="#0B4D5E"/>
<path d="M25.0938 15.8202C31.3174 15.8202 37.9012 19.6292 41.8071 26.1382C46.0271 33.1708 45.9624 41.2541 42.0565 46.5609C43.497 44.956 44.5589 42.9661 45.1498 40.725C46.4241 35.9086 45.5007 30.3941 42.6197 25.5906C37.8366 17.6273 28.9812 13.7805 21.8711 16.185C22.9145 15.9458 23.9949 15.8267 25.0938 15.8267V15.8138V15.8202Z" fill="#0B4D5E"/>
<path d="M42.0565 46.6994C42.026 46.6994 41.9946 46.6893 41.9687 46.6681C41.9115 46.6219 41.9013 46.5379 41.9447 46.4788C45.8682 41.1489 45.7657 33.0028 41.689 26.2094C37.9594 19.995 31.4642 15.9754 25.1316 15.9588C25.1196 15.9625 25.1076 15.9653 25.0938 15.9653C24.0042 15.9653 22.9311 16.0844 21.9025 16.3199C21.8341 16.3392 21.7584 16.2931 21.7381 16.2229C21.7187 16.1518 21.7575 16.077 21.8277 16.0539C29.1594 13.5737 37.9538 17.5544 42.7388 25.5196C45.6392 30.3554 46.5672 35.9105 45.2837 40.7611C44.6937 42.9966 43.6133 45.0346 42.1589 46.6533C42.1322 46.6838 42.0943 46.6994 42.0565 46.6994ZM25.1353 15.6818C31.5612 15.6993 38.1487 19.7715 41.9272 26.0672C45.4564 31.9492 46.0861 38.5948 43.7887 43.8342C44.3105 42.8544 44.7251 41.7972 45.0169 40.6909C46.281 35.9124 45.365 30.4357 42.5015 25.6627C38.3777 18.7973 31.2398 14.9292 24.6967 15.6938C24.8093 15.691 24.9229 15.6892 25.0365 15.6892C25.0661 15.6753 25.1048 15.6716 25.1353 15.6818Z" fill="#0B4D5E"/>
<path d="M14.1515 15.9016L11.7045 17.3809C7.54003 19.9054 4.79753 24.2177 4.00341 29.5309C3.20006 34.8699 4.43739 40.6107 7.51229 45.717C13.9206 56.3997 26.3957 60.9641 35.3341 55.8965C35.4541 55.8272 35.5834 55.7515 35.7035 55.6823L38.1504 54.203C29.3874 57.0673 18.5468 52.3396 12.6925 42.5812C9.58067 37.4 8.31564 31.5577 9.12822 26.1254C9.7469 22.0265 11.4921 18.5074 14.1515 15.9136V15.9016Z" fill="#0B4D5E"/>
<path d="M27.2997 58.1015C19.9042 58.1015 12.0498 53.5529 7.39225 45.789C4.30905 40.6688 3.05696 34.8874 3.86585 29.5114C4.6655 24.1641 7.42365 19.8149 11.6315 17.2636L14.0795 15.7843C14.1219 15.7594 14.1755 15.7575 14.218 15.7824C14.2623 15.8074 14.2891 15.8535 14.2891 15.9034V15.9154C14.2891 15.9533 14.2734 15.9884 14.2466 16.0142C11.5974 18.5988 9.87437 22.1031 9.264 26.1475C8.45604 31.5475 9.71555 37.3593 12.8108 42.511C18.5736 52.117 29.2157 56.9787 38.107 54.0727C38.1744 54.0506 38.2456 54.082 38.277 54.1466C38.3056 54.2103 38.2825 54.2861 38.2216 54.323L35.4034 56.0174C32.9074 57.433 30.1373 58.1015 27.2997 58.1015ZM13.3481 16.5489L11.7756 17.499C7.63973 20.007 4.92775 24.2869 4.14009 29.5511C3.34043 34.8643 4.58052 40.5801 7.63048 45.6459C13.9982 56.2603 26.3957 60.8052 35.2658 55.7764L35.6333 55.5631L37.1698 54.6342C28.3754 56.9076 18.1831 52.0043 12.5725 42.6532C9.445 37.4462 8.17256 31.5697 8.98976 26.106C9.55303 22.3718 11.0526 19.0891 13.3472 16.5498L13.3481 16.5489Z" fill="#0B4D5E"/>
<path d="M41.3547 52.4919L35.8051 55.8475C35.685 55.9232 35.5558 55.9925 35.4265 56.0682C26.3773 61.1986 13.7914 56.6158 7.31847 45.8195C0.9286 35.1801 2.85844 22.4752 11.5937 17.2063L17.1341 13.8507C8.41726 19.126 6.47814 31.8245 12.868 42.4639C19.2486 53.1032 31.9269 57.8439 40.9669 52.7126C41.0961 52.6369 41.2162 52.5676 41.3547 52.4919Z" fill="#8AE5CC"/>
<path d="M27.2839 58.3018C19.8145 58.3018 11.8928 53.719 7.19919 45.8914C4.09567 40.7232 2.83341 34.8938 3.64691 29.4791C4.46135 24.0615 7.25739 19.6606 11.5216 17.089L17.061 13.7334C17.1256 13.6937 17.2124 13.7149 17.2512 13.7805C17.2909 13.846 17.2706 13.931 17.2051 13.9707L17.1912 13.979C13.0128 16.5128 10.2722 20.8407 9.47256 26.1678C8.66921 31.5198 9.91581 37.2827 12.987 42.3936C16.0665 47.5295 20.6761 51.4281 25.968 53.3737C31.2739 55.3239 36.576 55.0469 40.8984 52.5934C41.0276 52.5177 41.1486 52.4475 41.288 52.3709C41.3554 52.3358 41.4377 52.358 41.4746 52.4235C41.5124 52.4891 41.4912 52.5722 41.4256 52.611L35.8761 55.9666C35.8013 56.0137 35.72 56.0607 35.6369 56.1069L35.4966 56.1882C32.9665 57.6222 30.1593 58.3018 27.2839 58.3018ZM14.6759 15.5017L11.6656 17.3254C7.47249 19.8546 4.72174 24.1853 3.92116 29.5206C3.11689 34.8726 4.3653 40.6364 7.43742 45.7492C13.8596 56.4606 26.3863 61.0341 35.358 55.9481L35.5012 55.8659C35.5797 55.8216 35.6572 55.7773 35.7311 55.7311L38.77 53.8935C29.9331 57.2104 18.7259 52.5029 12.7488 42.5358C9.64619 37.3695 8.3848 31.5419 9.19831 26.1262C9.84838 21.7992 11.7608 18.1204 14.675 15.5026L14.6759 15.5017Z" fill="#0B4D5E"/>
<path d="M21.843 20.4602L29.9873 32.3018C31.04 32.3461 32.1389 32.9565 32.7114 33.926C33.4778 35.1975 33.053 36.602 31.7787 37.0554C30.5044 37.5088 28.8423 36.8412 28.0852 35.5697C27.5034 34.6001 27.605 33.5613 28.2514 32.9186L21.843 20.4602Z" fill="#0B4D5E"/>
<path d="M30.9258 37.3362C29.7909 37.3362 28.5886 36.6842 27.9663 35.6408C27.3855 34.6731 27.4353 33.6066 28.0836 32.8946L21.7195 20.524C21.6863 20.4584 21.7094 20.379 21.7722 20.3411C21.8359 20.3051 21.9162 20.3217 21.9577 20.3818L30.0624 32.167C31.1825 32.239 32.2628 32.8956 32.8298 33.8559C33.2379 34.5327 33.3404 35.2927 33.1096 35.9391C32.9009 36.5226 32.4447 36.9659 31.8251 37.1866C31.538 37.2881 31.2342 37.3371 30.9249 37.3371L30.9258 37.3362ZM22.9606 22.3292L28.3753 32.8549C28.4021 32.9094 28.3929 32.9741 28.3495 33.0165C27.7281 33.6343 27.6708 34.6085 28.2045 35.4986C28.9312 36.7184 30.5111 37.3583 31.7319 36.9253C32.2721 36.7332 32.6691 36.3491 32.8492 35.8458C33.0523 35.2779 32.9581 34.6048 32.5925 33.9981C32.0597 33.096 31.0347 32.4847 29.982 32.4403C29.9377 32.4385 29.898 32.4163 29.8731 32.3803L22.9606 22.3292Z" fill="#0B4D5E"/>
<path d="M30.9386 37.4008C29.7751 37.4008 28.5471 36.7341 27.9099 35.6695C27.3189 34.6879 27.3651 33.6177 28.0022 32.8808L21.6585 20.548C21.6124 20.4473 21.6493 20.3337 21.7324 20.271C21.834 20.2211 21.9633 20.2396 22.0187 20.3338L30.1076 32.0941C31.2341 32.1762 32.3237 32.8429 32.9054 33.819C33.3302 34.5244 33.4318 35.3112 33.1824 35.9779C32.9701 36.5762 32.4991 37.0296 31.862 37.2503C31.5758 37.3574 31.2618 37.4008 30.9386 37.4008ZM23.5422 23.2932L28.4363 32.818C28.4824 32.8937 28.4639 32.9944 28.4085 33.0572C27.8083 33.6555 27.7437 34.5992 28.2701 35.4561C28.9811 36.6455 30.5231 37.2752 31.7143 36.8597C32.2314 36.6769 32.6099 36.3121 32.7762 35.8393C32.9885 35.2862 32.8962 34.6306 32.5361 34.0332C32.0098 33.1449 31.0033 32.5475 29.9783 32.5096C29.9137 32.5096 29.849 32.4717 29.8121 32.4154L23.533 23.2932H23.5422Z" fill="#0B4D5E"/>
<path d="M30.9388 37.5394C29.7006 37.5394 28.4355 36.8164 27.791 35.7406C27.1917 34.7434 27.2111 33.6501 27.8381 32.8624L21.5359 20.6108C21.4621 20.4492 21.5101 20.2655 21.6495 20.1602C21.8508 20.0596 22.0484 20.1113 22.1389 20.2627L30.1854 31.9612C31.3294 32.0674 32.4375 32.7636 33.0248 33.7479C33.4717 34.4885 33.577 35.3196 33.3129 36.0259C33.0858 36.664 32.5862 37.146 31.9075 37.3806C31.6286 37.4849 31.3026 37.5394 30.9388 37.5394ZM21.8443 20.3837C21.8268 20.3837 21.8093 20.3883 21.7927 20.3957C21.7871 20.404 21.7649 20.4474 21.7843 20.4908L28.1253 32.8181C28.1502 32.8689 28.1437 32.9298 28.1059 32.9723C27.5029 33.6694 27.4715 34.6769 28.0274 35.5993C28.6239 36.5948 29.7929 37.2633 30.937 37.2633C31.2666 37.2633 31.5612 37.2153 31.8114 37.1211C32.4126 36.9133 32.8521 36.4913 33.0506 35.9318C33.2861 35.3029 33.1882 34.5596 32.7847 33.8911C32.2316 32.9621 31.1762 32.3111 30.0967 32.2327C30.0542 32.2299 30.0164 32.2077 29.9924 32.1736L21.9035 20.4132C21.8915 20.3938 21.8693 20.3837 21.8443 20.3837ZM30.9398 37.1257C29.8733 37.1257 28.7384 36.5098 28.1511 35.5282C27.5934 34.6215 27.6562 33.6122 28.3118 32.9594C28.3238 32.9446 28.3302 32.9104 28.3182 32.892L23.4187 23.3727C23.3901 23.3302 23.3865 23.2758 23.4105 23.2296C23.4603 23.1382 23.6182 23.1391 23.6653 23.2305L23.6875 23.2739L29.9259 32.337C29.9407 32.3591 29.9628 32.3712 29.9776 32.3712C31.0561 32.4109 32.106 33.0351 32.6545 33.9622C33.0387 34.5993 33.1301 35.302 32.9048 35.8884C32.7256 36.3999 32.3184 36.7924 31.7607 36.99C31.4993 37.0814 31.2214 37.1248 30.9388 37.1248L30.9398 37.1257ZM24.6792 25.2019L28.5602 32.7562C28.6304 32.8698 28.6146 33.0351 28.5131 33.1496C27.947 33.7147 27.9 34.5891 28.3885 35.3842C29.0671 36.5209 30.5409 37.1229 31.6692 36.7296C32.1466 36.5606 32.4938 36.2282 32.6462 35.7942C32.8419 35.2835 32.7579 34.6695 32.4181 34.1053C31.9148 33.2567 30.9555 32.6851 29.9739 32.6491C29.8686 32.6491 29.7615 32.5891 29.6978 32.493L24.6792 25.2019Z" fill="#0B4D5E"/>
<path d="M39.6738 13.1766C39.6092 13.1766 39.5353 13.1581 39.4615 13.1267C39.2583 13.0131 39.1844 12.761 39.286 12.5597L42.6564 6.61681C42.7672 6.41551 43.0257 6.33979 43.2289 6.45337C43.432 6.56602 43.5059 6.8181 43.3951 7.0194L40.034 12.9624C39.9509 13.0944 39.8123 13.1766 39.6646 13.1766H39.6738Z" fill="#0B4D5E"/>
<path d="M39.674 13.316H39.6647C39.6647 13.316 39.6573 13.316 39.6536 13.316C39.5779 13.3132 39.493 13.292 39.4071 13.2559C39.1273 13.0999 39.0258 12.7712 39.1615 12.4997L42.5347 6.55027C42.6058 6.421 42.7249 6.32681 42.8698 6.28526C43.0157 6.2437 43.1662 6.26126 43.2955 6.33421C43.5633 6.48287 43.6612 6.82083 43.5153 7.08769L40.1532 13.0325C40.0433 13.207 39.8688 13.3104 39.6805 13.3169H39.6712L39.674 13.316ZM43.0268 6.5392C43.0009 6.5392 42.9732 6.54289 42.9474 6.55027C42.8744 6.57151 42.8135 6.61861 42.7784 6.68417L39.4071 12.629C39.3406 12.761 39.3923 12.93 39.5299 13.0066C39.5742 13.0251 39.6278 13.038 39.6694 13.039C39.7663 13.0371 39.8596 12.9817 39.9177 12.8894L43.2752 6.95195C43.3482 6.8199 43.2974 6.65001 43.1626 6.57521C43.121 6.5512 43.0739 6.5392 43.0278 6.5392H43.0268Z" fill="#0B4D5E"/>
<path d="M35.0384 11.3123H34.9923C34.7614 11.2809 34.5952 11.0796 34.6229 10.8469L35.3154 5.70267C35.3524 5.47644 35.5555 5.31947 35.7864 5.3444C36.0265 5.37579 36.1835 5.57709 36.1558 5.80978L35.454 10.9531C35.4355 11.1608 35.2508 11.3123 35.0384 11.3123Z" fill="#0B4D5E"/>
<path d="M35.0384 11.4508H34.9922C34.6635 11.4074 34.4484 11.135 34.4844 10.8302L35.1778 5.68419C35.2277 5.38316 35.4825 5.16986 35.8011 5.20679C36.1206 5.24742 36.3302 5.51429 36.2933 5.82639L35.5906 10.9715C35.5666 11.2412 35.3293 11.4508 35.0384 11.4508ZM35.7356 5.48104C35.5961 5.48104 35.4761 5.58076 35.4521 5.72574L34.7595 10.8663C34.7411 11.0177 34.8519 11.1544 35.0107 11.1756H35.0375C35.1816 11.1747 35.3034 11.0713 35.3154 10.9411L36.0182 5.7913C36.0375 5.63432 35.9314 5.5032 35.7679 5.48288C35.7568 5.48196 35.7467 5.48104 35.7356 5.48104Z" fill="#0B4D5E"/>
<path d="M43.1088 15.9219C42.9888 15.9219 42.8688 15.872 42.7857 15.7705C42.6287 15.595 42.6564 15.33 42.8411 15.185L46.4515 12.3336C46.6362 12.1886 46.8947 12.2136 47.0517 12.3964C47.1995 12.5728 47.1625 12.8368 46.9778 12.9818L43.3766 15.8342C43.3028 15.897 43.2012 15.9284 43.1181 15.9284H43.1088V15.9219Z" fill="#0B4D5E"/>
<path d="M43.1183 16.0669C43.1016 16.0669 43.0859 16.0641 43.0702 16.0586C42.916 16.0484 42.7757 15.9764 42.6778 15.8582C42.5818 15.7502 42.5338 15.607 42.5458 15.4584C42.5596 15.3097 42.6362 15.1703 42.7554 15.0761L46.3649 12.2256C46.6105 12.0317 46.9513 12.0677 47.1553 12.3068C47.2504 12.4186 47.292 12.5598 47.2781 12.7048C47.2615 12.8553 47.1831 12.9966 47.063 13.0917L43.4618 15.9431C43.3731 16.0198 43.2429 16.0669 43.1183 16.0669ZM46.7195 12.3789C46.6558 12.3789 46.5911 12.3992 46.5376 12.4426L42.928 15.2931C42.868 15.3411 42.8311 15.4085 42.8237 15.4824C42.8173 15.5544 42.8412 15.6237 42.8902 15.6781C42.9474 15.7474 43.0241 15.7834 43.11 15.7834C43.122 15.7834 43.1339 15.7843 43.145 15.788C43.194 15.7816 43.2466 15.7631 43.2863 15.7298L46.8922 12.8738C46.9541 12.8249 46.9947 12.7528 47.003 12.6762C47.0104 12.606 46.9891 12.5386 46.9457 12.4851C46.8857 12.4149 46.8026 12.3789 46.7195 12.3789Z" fill="#0B4D5E"/>
<path d="M20.9475 18.7031C20.8737 18.7031 20.809 18.6671 20.7721 18.6053L20.0057 17.4058C19.9503 17.3134 19.978 17.1915 20.0704 17.1241C20.1627 17.0687 20.292 17.0872 20.3566 17.1851L21.1138 18.3846C21.1877 18.4769 21.1507 18.5988 21.0492 18.6662C21.0215 18.6911 20.9845 18.7031 20.9475 18.7031Z" fill="#0B4D5E"/>
<path d="M20.9475 18.8417C20.8247 18.8417 20.7149 18.7798 20.653 18.6764L19.8893 17.4806C19.7933 17.3218 19.8376 17.1214 19.9891 17.0124C20.1636 16.909 20.3695 16.9552 20.4711 17.1085L21.2301 18.3107C21.2772 18.368 21.3003 18.4538 21.2864 18.5406C21.2716 18.6367 21.2125 18.7244 21.1248 18.7817C21.0907 18.8149 21.0205 18.8417 20.9475 18.8417ZM20.1829 17.2322C20.1682 17.2322 20.1543 17.2359 20.1414 17.2433C20.1174 17.2617 20.1054 17.3042 20.1239 17.3356L20.8875 18.5314C20.9097 18.5674 20.9512 18.5656 20.9559 18.5637C20.9983 18.5333 21.0113 18.512 21.0131 18.4982C21.0094 18.4945 20.9983 18.464 20.9955 18.4594L20.2383 17.2599C20.2254 17.2405 20.2051 17.2322 20.1829 17.2322Z" fill="#0B4D5E"/>
<path d="M38.9166 48.5047C38.852 48.5047 38.7874 48.4678 38.7412 48.4068L37.9932 47.2064C37.9286 47.1141 37.9563 46.9922 38.0486 46.9248C38.141 46.8694 38.2702 46.8888 38.3349 46.9857L39.0921 48.1862C39.1567 48.2776 39.129 48.4004 39.0367 48.4678C38.9997 48.4918 38.9628 48.5038 38.9259 48.5038L38.9166 48.5047Z" fill="#0B4D5E"/>
<path d="M38.9168 48.6432C38.8088 48.6432 38.7045 48.5878 38.6297 48.4899L37.8762 47.2793C37.7737 47.1343 37.8115 46.9266 37.9667 46.813C38.1393 46.7087 38.3471 46.7548 38.4505 46.909L39.2086 48.1131C39.312 48.2581 39.2742 48.4659 39.1181 48.5804C39.0517 48.6238 38.9888 48.6432 38.9251 48.6432H38.9168ZM38.1615 47.0328C38.1467 47.0328 38.1329 47.0365 38.12 47.0438C38.1015 47.0577 38.0848 47.0956 38.107 47.127L38.8577 48.3338C38.8725 48.3514 38.8956 48.3643 38.9131 48.3662C38.9371 48.3662 38.9519 48.3578 38.9621 48.3514C38.9824 48.3357 39.0009 48.2969 38.9796 48.2664L38.2188 47.0595C38.2058 47.0411 38.1846 47.0328 38.1615 47.0328Z" fill="#0B4D5E"/>
<path d="M16.1367 40.8101C16.0628 40.8101 15.9982 40.7732 15.9612 40.7122C15.8966 40.6199 15.9335 40.498 16.0259 40.4306L17.6141 39.4573C17.7157 39.4019 17.8449 39.4259 17.9096 39.5183C17.965 39.6097 17.9373 39.7325 17.8449 39.7999L16.2382 40.7732C16.2105 40.7972 16.1736 40.8092 16.1459 40.8092H16.1367V40.8101Z" fill="#0B4D5E"/>
<path d="M16.1366 40.9487C16.0157 40.9487 15.9058 40.8877 15.8439 40.7843C15.7442 40.643 15.7866 40.4353 15.9455 40.3189L17.542 39.3392C17.7156 39.2441 17.9188 39.2893 18.0231 39.438C18.1201 39.6005 18.0776 39.8009 17.9271 39.9108L16.3102 40.8914C16.2779 40.9219 16.2096 40.9477 16.1459 40.9477H16.1357L16.1366 40.9487ZM17.7332 39.5663C17.7156 39.5663 17.6971 39.57 17.6796 39.5802L16.0979 40.5498C16.0766 40.5664 16.0544 40.607 16.0748 40.6338C16.0914 40.6596 16.1089 40.6716 16.132 40.6726H16.1339C16.1394 40.6679 16.1597 40.6596 16.1662 40.6559L17.7729 39.6827C17.7969 39.6642 17.8098 39.6217 17.7914 39.5904C17.7803 39.5756 17.7581 39.5663 17.7332 39.5663Z" fill="#0B4D5E"/>
<path d="M39.6184 27.8013C39.5538 27.8013 39.4799 27.7653 39.443 27.7035C39.3876 27.6111 39.4153 27.4892 39.5076 27.4218L41.1051 26.4486C41.1974 26.3932 41.3267 26.4181 41.3913 26.5095C41.456 26.6019 41.419 26.7237 41.3267 26.7911L39.7292 27.7644C39.6923 27.7884 39.6554 27.8004 39.6277 27.8004H39.6184V27.8013Z" fill="#0B4D5E"/>
<path d="M39.6185 27.9399C39.4994 27.9399 39.384 27.8752 39.3239 27.7746C39.2316 27.6204 39.276 27.42 39.4256 27.3101L41.0332 26.3304C41.1883 26.2353 41.3988 26.2815 41.5041 26.4292C41.6094 26.5797 41.5669 26.7875 41.4081 26.9029L39.8023 27.8826C39.7469 27.9187 39.6841 27.939 39.6287 27.939H39.6194L39.6185 27.9399ZM41.2141 26.5585C41.2003 26.5585 41.1883 26.5613 41.1772 26.5677L39.5807 27.5401C39.5567 27.5594 39.5437 27.6019 39.5622 27.6333C39.5723 27.6499 39.5964 27.661 39.6148 27.6629C39.6167 27.6629 39.6573 27.6472 39.6582 27.6463L41.2548 26.673C41.2769 26.6564 41.2982 26.6167 41.2779 26.5899C41.2631 26.5686 41.2372 26.5585 41.2141 26.5585Z" fill="#0B4D5E"/>
<path d="M32.3883 20.4483C32.3883 20.4483 32.3329 20.4483 32.3236 20.4363C32.2221 20.3993 32.1667 20.2895 32.1852 20.1851L32.7853 18.4399C32.813 18.3365 32.9331 18.2811 33.0347 18.3116C33.1362 18.3485 33.2009 18.4584 33.1732 18.5627L32.573 20.3079C32.5545 20.3929 32.4714 20.4418 32.3883 20.4418V20.4483Z" fill="#0B4D5E"/>
<path d="M32.3882 20.5878C32.3328 20.5878 32.2904 20.5786 32.2571 20.5601C32.1075 20.4955 32.0179 20.3274 32.0484 20.1612L32.6532 18.3957C32.6726 18.3218 32.728 18.2535 32.8056 18.2101C32.8869 18.1648 32.9838 18.1537 33.0734 18.1805C33.2525 18.2461 33.3513 18.4289 33.3051 18.5997L32.7031 20.3542C32.6791 20.4678 32.571 20.5601 32.4371 20.5786C32.4214 20.585 32.4058 20.5887 32.3873 20.5887L32.3882 20.5878ZM32.9792 18.4418C32.969 18.4418 32.9542 18.4446 32.9413 18.452C32.9413 18.4548 32.9173 18.4825 32.9164 18.4861L32.3171 20.2314C32.3153 20.2507 32.3365 20.2914 32.3688 20.3062C32.3937 20.3025 32.4344 20.2997 32.439 20.2794L33.0429 18.5194C33.0484 18.4963 33.0235 18.4566 32.9875 18.4428C32.9856 18.4428 32.9829 18.4418 32.9792 18.4418Z" fill="#0B4D5E"/>
<path d="M24.9458 48.7808C24.9458 48.7808 24.8996 48.7808 24.8812 48.7688C24.7704 48.7328 24.7149 48.622 24.7519 48.5176L25.3336 46.7733C25.3705 46.669 25.4906 46.6136 25.5922 46.645C25.703 46.681 25.7584 46.7918 25.7307 46.8962L25.1397 48.6404C25.1028 48.7263 25.0289 48.7752 24.9458 48.7752V48.7817V48.7808Z" fill="#0B4D5E"/>
<path d="M24.9467 48.9212C24.9384 48.9212 24.9302 48.9212 24.9228 48.9194C24.8932 48.9175 24.859 48.912 24.8276 48.8981C24.7427 48.8677 24.6752 48.8076 24.6365 48.7301C24.5968 48.6507 24.5912 48.5593 24.6208 48.4734L25.2025 46.7309C25.2616 46.5592 25.4611 46.4595 25.6328 46.5139C25.8111 46.5721 25.9126 46.7559 25.8646 46.9341L25.2699 48.6867C25.2173 48.8123 25.1185 48.8926 25.0003 48.9111C24.9837 48.9175 24.9652 48.9221 24.9458 48.9221L24.9467 48.9212ZM25.5331 46.7743C25.5072 46.7743 25.4749 46.791 25.4648 46.8187L24.883 48.5611C24.8756 48.5814 24.8793 48.5962 24.883 48.6045C24.8886 48.6147 24.8997 48.6285 24.9228 48.6368C24.9375 48.6405 24.9385 48.6368 24.9449 48.6368C24.9819 48.6368 25.0013 48.61 25.0096 48.587L25.5987 46.8519C25.6042 46.8297 25.5903 46.791 25.5478 46.7762C25.5423 46.7753 25.5368 46.7743 25.5313 46.7743H25.5331Z" fill="#0B4D5E"/>
<path d="M44.1247 39.616C44.1247 39.616 44.0692 39.616 44.0415 39.5976L42.4626 38.9059C42.361 38.857 42.3148 38.7407 42.3609 38.6363C42.4071 38.5329 42.5272 38.496 42.638 38.5329L44.2077 39.2245C44.3185 39.2734 44.3555 39.3898 44.3185 39.4941C44.2816 39.568 44.2078 39.616 44.1247 39.616Z" fill="#0B4D5E"/>
<path d="M44.1248 39.7546C44.0952 39.7546 44.0205 39.7509 43.9632 39.7121L42.4063 39.0325C42.2327 38.9494 42.158 38.7518 42.2328 38.5801C42.3066 38.4148 42.4931 38.3381 42.6806 38.4019L44.2624 39.0981C44.4341 39.1738 44.5126 39.3594 44.448 39.5404C44.3806 39.6789 44.2587 39.7546 44.1229 39.7546H44.1248ZM42.5559 38.6567C42.5291 38.6567 42.4987 38.6669 42.4876 38.6936C42.4728 38.7278 42.4876 38.7648 42.5227 38.7823L44.1248 39.4785C44.1534 39.4785 44.1811 39.461 44.195 39.4333C44.195 39.4333 44.2088 39.3769 44.1525 39.352L42.5827 38.6604C42.5754 38.6586 42.5652 38.6567 42.5569 38.6567H42.5559Z" fill="#0B4D5E"/>
<path d="M14.7699 29.3738C14.7699 29.3738 14.7145 29.3738 14.696 29.3563L13.1078 28.6637C13.0062 28.6213 12.9601 28.4984 13.0062 28.395C13.0524 28.2907 13.1724 28.2538 13.2832 28.2907L14.853 28.9823C14.9638 29.0322 15.01 29.1485 14.9638 29.2519C14.9269 29.3258 14.853 29.3738 14.7699 29.3738Z" fill="#0B4D5E"/>
<path d="M14.7699 29.5132C14.7284 29.5132 14.6739 29.5068 14.6287 29.4781L13.0534 28.7911C12.9721 28.757 12.9084 28.6923 12.8751 28.6074C12.841 28.5215 12.8428 28.4236 12.8807 28.3387C12.9518 28.1752 13.1439 28.0967 13.3276 28.1595L14.9094 28.8558C15.0885 28.9361 15.1679 29.1355 15.0904 29.3082C15.0267 29.4366 14.9047 29.5132 14.7699 29.5132ZM14.7616 29.2353H14.7699C14.7985 29.2353 14.8263 29.2187 14.8401 29.191C14.8531 29.1623 14.8355 29.1272 14.7958 29.1097L13.227 28.4181C13.1993 28.4098 13.1485 28.4162 13.1328 28.4522C13.1245 28.4698 13.1245 28.4892 13.1309 28.5058C13.1346 28.5141 13.1429 28.5298 13.1605 28.5372L14.7505 29.2307L14.7616 29.2362V29.2353Z" fill="#0B4D5E"/>
</svg>
