<svg width="64" height="64" viewBox="0 0 64 64" fill="none" xmlns="http://www.w3.org/2000/svg">
<g clip-path="url(#clip0_9503_14931)">
<path fill-rule="evenodd" clip-rule="evenodd" d="M45.9904 26.4448L22.0139 50.1316L22.0314 25.9689L46.0067 11.9742L45.9893 26.446L45.9904 26.4448ZM35.8097 23.9421V32.9779L40.4975 30.2344V21.2067L35.8097 23.9421ZM35.3292 24.2225L29.9561 27.3593L29.9444 36.4115L35.3292 33.2595V24.2225Z" fill="#8AE5CC"/>
<path d="M22.0141 50.3061C21.9908 50.3061 21.9687 50.3015 21.9466 50.2922C21.8814 50.2654 21.8384 50.2014 21.8384 50.1316L21.8558 25.9689C21.8558 25.9073 21.8884 25.8491 21.9431 25.8188L45.9185 11.8229C45.9697 11.7927 46.0383 11.7892 46.093 11.8229C46.1465 11.8543 46.1803 11.9114 46.1803 11.9742L46.1628 26.446C46.1628 26.4925 46.143 26.5379 46.1104 26.5705L22.1351 50.2573C22.1025 50.2899 22.0583 50.3073 22.0129 50.3073L22.0141 50.3061ZM22.206 26.069L22.1886 49.7127L45.8149 26.3715L45.8324 12.2767L22.206 26.069ZM29.9457 36.586C29.9167 36.586 29.8852 36.579 29.8596 36.5627C29.805 36.5325 29.7712 36.4743 29.7712 36.4115L29.7829 27.3593C29.7829 27.2977 29.8154 27.2395 29.8701 27.2092L35.2432 24.0724C35.2944 24.041 35.3642 24.0398 35.4166 24.0724C35.4713 24.1026 35.505 24.1608 35.505 24.2237V33.2607C35.505 33.3223 35.4724 33.3805 35.4189 33.4108L30.0342 36.5627C30.0074 36.579 29.976 36.5872 29.9457 36.5872V36.586ZM30.1307 27.4605L30.1203 36.1078L35.1548 33.1606V24.5273L30.1307 27.4605ZM35.811 33.1525C35.7819 33.1525 35.7505 33.1455 35.7249 33.1292C35.6702 33.0989 35.6365 33.0408 35.6365 32.9779V23.9421C35.6365 23.8804 35.6691 23.8222 35.7238 23.792L40.4116 21.0566C40.4651 21.0252 40.5326 21.024 40.5849 21.0566C40.6396 21.0868 40.6733 21.145 40.6733 21.2078V30.2355C40.6733 30.2972 40.6408 30.3554 40.5872 30.3856L35.8994 33.1292C35.8727 33.1455 35.8413 33.1525 35.811 33.1525ZM35.9855 24.0421V32.6731L40.3243 30.1343V21.5103L35.9855 24.0421Z" fill="#0B4D5E"/>
<path d="M35.8098 32.9779V23.9421L40.4988 21.2067V30.2344L35.8098 32.9779Z" fill="#0B4D5E"/>
<path d="M35.811 33.1525C35.7819 33.1525 35.7505 33.1455 35.7249 33.1292C35.6702 33.0989 35.6365 33.0408 35.6365 32.9779V23.9421C35.6365 23.8804 35.6691 23.8222 35.7237 23.792L40.4115 21.0566C40.4651 21.0252 40.5325 21.024 40.5849 21.0566C40.6396 21.0868 40.6733 21.145 40.6733 21.2078V30.2355C40.6733 30.2972 40.6407 30.3554 40.5872 30.3856L35.8994 33.1292C35.8727 33.1455 35.8413 33.1525 35.811 33.1525ZM35.9855 24.0421V32.6731L40.3243 30.1343V21.5103L35.9855 24.0421Z" fill="#0B4D5E"/>
<path d="M29.9562 27.3593L35.3293 24.2225V33.2607L29.9446 36.4126L29.9562 27.3593Z" fill="#0B4D5E"/>
<path d="M29.9458 36.586C29.9167 36.586 29.8853 36.579 29.8597 36.5627C29.805 36.5325 29.7712 36.4743 29.7712 36.4115L29.7829 27.3593C29.7829 27.2977 29.8155 27.2395 29.8701 27.2092L35.2432 24.0724C35.2944 24.041 35.3643 24.0398 35.4166 24.0724C35.4713 24.1027 35.505 24.1608 35.505 24.2237V33.2607C35.505 33.3223 35.4725 33.3805 35.4189 33.4108L30.0342 36.5627C30.0074 36.579 29.976 36.5872 29.9458 36.5872V36.586ZM30.1308 27.4606L30.1203 36.1078L35.1548 33.1606V24.5273L30.1308 27.4606Z" fill="#0B4D5E"/>
<path d="M45.965 11.9986L22.0315 25.9689V26.0527L7.19556 17.2577L31.1523 3.17453L45.965 11.9986Z" fill="#F0F4FF"/>
<path d="M22.0315 26.2272C22.0012 26.2272 21.9698 26.2191 21.9431 26.2028L7.1071 17.4066C7.05357 17.3752 7.021 17.3182 7.021 17.2565C7.021 17.1949 7.05357 17.1379 7.1071 17.1064L31.0638 3.02443C31.1185 2.99302 31.1848 2.99186 31.2419 3.02443L46.0546 11.8485C46.1069 11.8799 46.1395 11.9381 46.1395 11.9986C46.1395 12.0603 46.1057 12.1173 46.0522 12.1487L22.2049 26.069C22.199 26.1248 22.1665 26.1749 22.1176 26.2028C22.0908 26.2179 22.0606 26.2272 22.0315 26.2272ZM7.53876 17.2577L21.9617 25.8084L45.6217 11.9975L31.1511 3.37698L7.53876 17.2577Z" fill="#0B4D5E"/>
<path d="M22.6004 21.7582L11.7821 15.3449L11.7693 17.2286L22.5841 23.6628L22.6004 21.7582Z" fill="#0B4D5E"/>
<path d="M22.5853 23.8374C22.555 23.8374 22.5236 23.8292 22.4957 23.8129L11.6797 17.3787C11.6273 17.3473 11.5947 17.2891 11.5947 17.2274L11.6087 15.3437C11.6087 15.2809 11.6436 15.2239 11.6971 15.1936C11.753 15.1622 11.8181 15.1634 11.8716 15.1948L22.6888 21.6081C22.7424 21.6395 22.7749 21.6977 22.7749 21.7593L22.7598 23.664C22.7598 23.7268 22.7249 23.785 22.6702 23.8153C22.6446 23.8304 22.6144 23.8374 22.5853 23.8374ZM11.9438 17.1297L22.4119 23.358L22.4247 21.8571L11.9554 15.6497L11.9438 17.1297Z" fill="#0B4D5E"/>
<path d="M22.5842 23.6303L41.8892 12.3302L41.9044 10.4465L22.6005 21.7105L22.5842 23.6303Z" fill="#8AE5CC"/>
<path d="M22.5854 23.8048C22.5552 23.8048 22.5249 23.7966 22.4982 23.7815C22.4435 23.7501 22.4109 23.6919 22.4109 23.6291L22.426 21.7093C22.426 21.6476 22.4598 21.5906 22.5133 21.5604L41.8171 10.2964C41.8718 10.265 41.9381 10.265 41.9917 10.2964C42.0463 10.3278 42.0789 10.386 42.0789 10.4488L42.0638 12.3325C42.0638 12.3942 42.0301 12.4512 41.9777 12.4815L22.6727 23.7815C22.6459 23.7978 22.6145 23.806 22.5843 23.806L22.5854 23.8048ZM22.7739 21.8105L22.7623 23.3243L41.7159 12.229L41.7275 10.7513L22.7739 21.8105Z" fill="#0B4D5E"/>
<path d="M22.0315 26.0294L7.19434 17.2577L7.17456 47.3927L29.8003 60.7999V50.17L32.0738 47.1158V42.7096L22.0257 36.778L22.0315 26.0294Z" fill="#0B4D5E"/>
<path d="M29.8002 60.9744C29.77 60.9744 29.7386 60.9663 29.7118 60.95L7.0861 47.5428C7.03258 47.5114 7 47.4544 7 47.3927L7.01978 17.2577C7.01978 17.1949 7.05352 17.1367 7.10821 17.1064C7.16406 17.075 7.22921 17.075 7.28273 17.1076L22.1199 25.8805C22.1734 25.9119 22.206 25.9689 22.206 26.0306L22.2001 36.6791L32.1622 42.5606C32.2157 42.592 32.2483 42.6491 32.2483 42.7107V47.117C32.2483 47.1542 32.2355 47.1903 32.2133 47.2205L29.9747 50.227V60.7987C29.9747 60.8615 29.941 60.9197 29.8863 60.95C29.8596 60.9651 29.8293 60.9744 29.8002 60.9744ZM7.35022 47.2938L29.6257 60.4939V50.17C29.6257 50.1328 29.6385 50.0967 29.6606 50.0665L31.8992 47.0599V42.8108L21.9372 36.9292C21.8837 36.8978 21.8511 36.8408 21.8511 36.7791L21.8569 26.1307L7.36767 17.5625L7.35022 47.2938Z" fill="#0B4D5E"/>
<path d="M43.4773 52.7926V43.7567L48.1663 41.0201V50.0467L43.4773 52.7926Z" fill="#0B4D5E"/>
<path d="M43.4785 52.9671C43.4494 52.9671 43.418 52.9601 43.3924 52.9438C43.3377 52.9124 43.304 52.8542 43.304 52.7926V43.7567C43.304 43.6951 43.3365 43.6369 43.3912 43.6066L48.079 40.8689C48.1314 40.8375 48.2 40.8363 48.2524 40.8689C48.3071 40.8991 48.3408 40.9573 48.3408 41.0201V50.0478C48.3408 50.1095 48.3082 50.1677 48.2547 50.1979L43.5669 52.9427C43.5401 52.959 43.5087 52.9671 43.4785 52.9671ZM43.653 43.8568V52.4877L47.9918 49.9466V41.3227L43.653 43.8568Z" fill="#0B4D5E"/>
<path d="M37.6261 47.1716L42.9992 44.036V53.073L37.6145 56.2273L37.6261 47.1716Z" fill="#0B4D5E"/>
<path d="M37.6147 56.4018C37.5856 56.4018 37.5542 56.3948 37.5286 56.3785C37.4739 56.3483 37.4402 56.2901 37.4402 56.2273L37.4518 47.1728C37.4518 47.1111 37.4844 47.053 37.5391 47.0227L42.9122 43.8859C42.9634 43.8545 43.0332 43.8533 43.0856 43.8859C43.1402 43.9161 43.174 43.9743 43.174 44.0371V53.0753C43.174 53.137 43.1414 53.1952 43.0879 53.2254L37.7031 56.3785C37.6764 56.3948 37.645 56.4018 37.6147 56.4018ZM37.8009 47.2729L37.7904 55.9224L42.8249 52.9729V44.3396L37.8009 47.2729Z" fill="#0B4D5E"/>
<path d="M29.7981 50.1514L53.8072 36.0985V31.7109L32.0739 47.1216L29.7981 50.1514Z" fill="#0B4D5E"/>
<path d="M29.7992 50.3259C29.7503 50.3259 29.7026 50.3061 29.6689 50.2677C29.6142 50.2061 29.6095 50.1142 29.6595 50.0478L31.9342 47.0181C31.9458 47.0029 31.9586 46.9913 31.9726 46.9797L53.7059 31.5689C53.7606 31.5317 53.8269 31.5259 53.8874 31.5561C53.9456 31.5864 53.9816 31.6457 53.9816 31.7109V36.0985C53.9816 36.1601 53.9491 36.2183 53.8955 36.2486L29.8876 50.3027C29.8597 50.3189 29.8294 50.3259 29.7992 50.3259ZM32.196 47.2484L30.4589 49.5627L53.6314 35.9973V32.0471L32.196 47.2484Z" fill="#0B4D5E"/>
<path fill-rule="evenodd" clip-rule="evenodd" d="M29.7932 60.8255L53.8069 46.747V36.0985L29.7978 50.1514L29.792 60.8243L29.7932 60.8255ZM43.4772 43.7567V52.7914L48.1662 50.0467V41.019L43.4772 43.7567ZM42.999 44.036L37.6259 47.1728L37.6143 56.2273L42.999 53.073V44.036Z" fill="#8AE5CC"/>
<path d="M29.7932 61C29.7641 61 29.7327 60.993 29.7071 60.9767C29.6524 60.9453 29.6187 60.8871 29.6187 60.8255L29.6245 50.1526C29.6245 50.0909 29.657 50.0327 29.7106 50.0025L53.7185 35.9484C53.772 35.917 53.8395 35.9158 53.893 35.9484C53.9477 35.9786 53.9815 36.0368 53.9815 36.0996V46.7481C53.9815 46.8098 53.9489 46.868 53.8954 46.8982L29.8816 60.9767C29.8548 60.993 29.8234 61 29.7932 61ZM29.9735 50.2515L29.9677 60.5206L37.4398 56.1388L37.4514 47.1716C37.4514 47.11 37.484 47.0518 37.5387 47.0215L42.9118 43.8847C42.963 43.8533 43.0328 43.8521 43.0852 43.8847C43.1398 43.915 43.1736 43.9731 43.1736 44.036V52.7786L43.3016 52.703V43.7579C43.3016 43.6962 43.3342 43.638 43.3888 43.6078L48.0766 40.87C48.129 40.8386 48.1976 40.8375 48.25 40.87C48.3047 40.9003 48.3384 40.9585 48.3384 41.0213V49.75L53.6289 46.6481V36.4045L29.9712 50.2538L29.9735 50.2515ZM37.8005 47.2729L37.79 55.9224L42.8245 52.9729V44.3396L37.8005 47.2729ZM43.653 43.8568V52.4877L47.9917 49.9466V41.3227L43.653 43.8568Z" fill="#0B4D5E"/>
<path d="M32.0735 47.1216L56.0419 33.0652V28.6776L32.0735 42.6863V47.1216Z" fill="#8AE5CC"/>
<path d="M32.0737 47.2961C32.0446 47.2961 32.0132 47.2892 31.9876 47.2729C31.9329 47.2414 31.8992 47.1833 31.8992 47.1216V42.6863C31.8992 42.6246 31.9317 42.5665 31.9853 42.5362L55.9548 28.5263C56.0083 28.4949 56.0758 28.4938 56.1293 28.5263C56.184 28.5566 56.2178 28.6148 56.2178 28.6776V33.0652C56.2178 33.1269 56.1852 33.185 56.1317 33.2153L32.1621 47.2729C32.1354 47.2892 32.1039 47.2961 32.0737 47.2961ZM32.2482 42.7864V46.8168L55.8676 32.964V28.9813L32.2482 42.7864Z" fill="#0B4D5E"/>
<path d="M46.0393 22.7285L56.0397 28.6776L50.9831 31.6341H50.9843L32.0737 42.6863L22.0442 36.7919L23.3206 36.0438L27.0252 38.2091L44.6652 27.8247V27.8934L49.6544 30.8475L53.3834 28.6683L44.6873 23.5197L46.0393 22.7285Z" fill="#F0F4FF"/>
<path d="M32.0739 42.8608C32.0437 42.8608 32.0123 42.8527 31.9855 42.8364L21.9572 36.9409C21.9037 36.9094 21.8711 36.8524 21.8711 36.7908C21.8711 36.7291 21.9037 36.6709 21.9572 36.6407L23.2336 35.8937C23.2883 35.8623 23.3569 35.8623 23.4093 35.8937L27.0255 38.0066L44.5771 27.6746C44.6306 27.6432 44.6981 27.6421 44.7516 27.6746C44.797 27.7002 44.8272 27.7444 44.8365 27.7945L49.6558 30.6474L53.0393 28.6683L44.598 23.6722C44.5445 23.6407 44.5119 23.5837 44.5119 23.5221C44.5119 23.4604 44.5445 23.4034 44.598 23.372L45.9512 22.5796C46.0059 22.5482 46.0722 22.547 46.1292 22.5796L56.1296 28.5287C56.1819 28.5601 56.2145 28.6171 56.2145 28.6788C56.2145 28.7404 56.1808 28.7974 56.1284 28.8288L51.0881 31.776C51.0881 31.776 51.0765 31.783 51.0718 31.7865L32.1612 42.8387C32.1344 42.855 32.103 42.8631 32.0728 42.8631L32.0739 42.8608ZM22.3912 36.7919L32.0739 42.485L50.8787 31.4945C50.8787 31.4945 50.8903 31.4875 50.8949 31.484L55.6979 28.6764L46.0396 22.931L45.032 23.5209L53.4733 28.517C53.5268 28.5484 53.5594 28.6054 53.5594 28.6671C53.5594 28.7288 53.5268 28.7858 53.4733 28.8172L49.7442 30.9976C49.6895 31.029 49.6221 31.0302 49.5674 30.9976L44.6085 28.0621L27.1151 38.3604C27.0604 38.3918 26.9917 38.3918 26.9394 38.3604L23.3232 36.2474L22.3923 36.7931L22.3912 36.7919Z" fill="#0B4D5E"/>
<path d="M44.6909 23.5186L44.6664 23.5046L44.6653 27.8934L49.6544 30.8475L53.3835 28.6683L44.6874 23.5197L44.6909 23.5186Z" fill="#0B4D5E"/>
<path d="M49.6544 31.0221C49.6241 31.0221 49.5927 31.0139 49.566 30.9976L44.5768 28.0435C44.5233 28.0121 44.4907 27.955 44.4907 27.8934V23.5046C44.4907 23.4418 44.5256 23.3836 44.5803 23.3533C44.6362 23.3219 44.7013 23.3231 44.756 23.3545C44.7653 23.3603 44.7746 23.3673 44.7828 23.3755L53.4719 28.5182C53.5254 28.5496 53.558 28.6066 53.558 28.6683C53.558 28.7299 53.5254 28.787 53.4719 28.8184L49.7428 30.9988C49.7161 31.0151 49.6846 31.0221 49.6544 31.0221ZM44.8398 27.7945L49.6544 30.6463L53.0391 28.6671L44.8409 23.8141L44.8398 27.7945Z" fill="#0B4D5E"/>
<path d="M41.9041 10.4151L22.6002 21.7849L11.7842 15.3728L31.1055 3.98201L41.9041 10.4151Z" fill="#F0F4FF"/>
<path d="M22.5992 21.9595C22.5689 21.9595 22.5375 21.9513 22.5108 21.935L11.6947 15.5229C11.6412 15.4915 11.6086 15.4345 11.6086 15.3728C11.6086 15.3111 11.6412 15.2541 11.6947 15.2227L31.0172 3.83075C31.0719 3.79933 31.1382 3.79817 31.1952 3.83075L41.9938 10.2638C42.0462 10.2952 42.0787 10.3522 42.0787 10.4139C42.0787 10.4756 42.0462 10.5326 41.9926 10.564L22.6876 21.9339C22.6609 21.9501 22.6294 21.9595 22.5992 21.9595ZM12.1264 15.3728L22.5992 21.5813L41.5621 10.4139L31.1056 4.18446L12.1264 15.3728Z" fill="#0B4D5E"/>
<path d="M32.2448 41.5088C32.2146 41.5088 32.1832 41.5007 32.1564 41.4844L23.2322 36.1951C23.1496 36.1462 23.1217 36.0391 23.1706 35.9554C23.2206 35.8728 23.33 35.8472 23.4091 35.8949L32.2448 41.1307L53.0426 28.6694L44.5978 23.671C44.5152 23.6221 44.4873 23.5151 44.5362 23.4325C44.5839 23.3487 44.6944 23.3231 44.7747 23.3708L53.472 28.5182C53.5255 28.5496 53.5569 28.6066 53.5581 28.6671C53.5581 28.7288 53.5255 28.7858 53.4731 28.8172L32.3344 41.4832C32.3076 41.4995 32.2751 41.5088 32.2448 41.5088Z" fill="#0B4D5E"/>
</g>
<defs>
<clipPath id="clip0_9503_14931">
<rect width="49.2178" height="58" fill="white" transform="translate(7 3)"/>
</clipPath>
</defs>
</svg>
