<svg width="64" height="64" viewBox="0 0 64 64" fill="none" xmlns="http://www.w3.org/2000/svg">
<mask id="mask0_15036_1434" style="mask-type:alpha" maskUnits="userSpaceOnUse" x="0" y="0" width="64" height="64">
<rect width="64" height="64" fill="#D9D9D9"/>
</mask>
<g mask="url(#mask0_15036_1434)">
<path d="M36.1797 15.6654L45.4233 21.0426L55.7512 15.0965L46.4721 9.71924L36.1797 15.6654Z" fill="#8AE5CC"/>
<path d="M45.4321 21.176L45.3698 21.1404L35.9485 15.6654L46.4808 9.58594L56 15.0965L45.4321 21.176ZM36.4196 15.6654L45.4232 20.9004L55.5111 15.0965L46.472 9.86147L36.4196 15.6654Z" fill="#0B4D5E"/>
<path d="M45.4143 44.9424L55.7422 38.9785V15.1318L45.4143 21.078V44.9424Z" fill="#F0F4FF"/>
<path d="M45.29 45.1473V21.0073L45.3523 20.9717L55.8579 14.9189V39.0412L45.29 45.1473ZM45.53 21.1406V44.7295L55.618 38.9078V15.3367L45.53 21.1406Z" fill="#0B4D5E"/>
<path d="M45.4766 21.0518L36.2063 15.6567V39.5034L45.3966 44.8718" fill="#0B4D5E"/>
<path d="M45.3344 44.9783L36.0908 39.5744V15.4521L45.5388 20.9539L45.4144 21.1583L36.3308 15.8699V39.441L45.4588 44.7739L45.3433 44.9783H45.3344Z" fill="#0B4D5E"/>
<path d="M22.2876 32.4905L31.5312 37.8678L41.8591 31.9217L32.58 26.5444L22.2876 32.4905Z" fill="#8AE5CC"/>
<path d="M31.5312 38.0007L31.469 37.9651L22.0476 32.4901L32.5711 26.4106L42.0902 31.9212L31.5223 38.0007H31.5312ZM22.5276 32.4901L31.5312 37.7252L41.6191 31.9212L32.58 26.6862L22.5276 32.4901Z" fill="#0B4D5E"/>
<path d="M31.5134 52.9507L41.8414 46.978V31.9482L31.5134 37.8944V52.9596V52.9507Z" fill="#F0F4FF"/>
<path d="M31.3979 53.164V37.8232L31.4602 37.7876L41.9659 31.7349V47.0401L31.3979 53.1551V53.164ZM31.6379 37.9654V52.7462L41.7259 46.9157V32.1615L31.6379 37.9654Z" fill="#0B4D5E"/>
<path d="M31.5757 37.8858L22.3054 32.4907V47.5204L31.4957 52.8799" fill="#0B4D5E"/>
<path d="M31.4333 52.9776L22.1897 47.5826V32.2773L22.3675 32.384L31.6377 37.7791L31.5133 37.9835L22.4297 32.6951V47.4493L31.5577 52.7732L31.4333 52.9776Z" fill="#0B4D5E"/>
<path d="M8.28003 50.0091L17.5236 55.3953L27.8515 49.4492L18.5724 44.063L8.28003 50.0091Z" fill="#8AE5CC"/>
<path d="M17.5236 55.537L17.4614 55.5015L8.04004 50.0086L18.5635 43.9292L18.6257 43.9648L28.0915 49.4576L17.5236 55.537ZM8.51999 50.0086L17.5236 55.2526L27.6116 49.4487L18.5724 44.2047L8.51999 50.0086Z" fill="#0B4D5E"/>
<path d="M17.5059 60.9233L27.8338 54.9594V49.4844L17.5059 55.4305V60.9322V60.9233Z" fill="#F0F4FF"/>
<path d="M17.3904 61.1278V55.3505L17.4526 55.315L27.9583 49.2622V55.0217L17.3904 61.1278ZM17.6304 55.4927V60.71L27.7183 54.8884V49.6888L17.6304 55.4927Z" fill="#0B4D5E"/>
<path d="M17.5681 55.4038L8.29785 50.0088V55.4927L17.4881 60.8522" fill="#0B4D5E"/>
<path d="M17.4257 60.9499L8.18213 55.5549V49.7954L17.6301 55.2971L17.5146 55.5016L8.42211 50.222V55.4216L17.5501 60.7455L17.4257 60.9499Z" fill="#0B4D5E"/>
<path d="M24.3852 22.1266C19.1946 22.1266 14.9905 17.9225 14.9905 12.7319C14.9905 11.2565 15.3371 9.86103 15.9504 8.6167C12.8218 10.1454 10.6709 13.3451 10.6709 17.0515C10.6709 22.2421 14.875 26.4462 20.0656 26.4462C23.7808 26.4462 26.9805 24.2864 28.5004 21.1666C27.256 21.771 25.8606 22.1266 24.3852 22.1266Z" fill="#F0F4FF" stroke="#0B4D5E" stroke-width="0.25" stroke-linecap="round" stroke-linejoin="round"/>
<path d="M8.29785 38.0007C11.1776 37.7607 11.3642 37.5741 11.6042 34.6943C11.8442 37.5741 12.0308 37.7607 14.9106 38.0007C12.0308 38.2407 11.8442 38.4273 11.6042 41.3071C11.3642 38.4273 11.1776 38.2407 8.29785 38.0007Z" fill="#F0F4FF"/>
<path d="M8.29785 38.0007C11.1776 37.7607 11.3642 37.5741 11.6042 34.6943C11.8442 37.5741 12.0308 37.7607 14.9106 38.0007C12.0308 38.2407 11.8442 38.4273 11.6042 41.3071C11.3642 38.4273 11.1776 38.2407 8.29785 38.0007Z" stroke="#0B4D5E" stroke-width="0.25" stroke-linecap="round" stroke-linejoin="round"/>
<path d="M25.8872 7.63904C30.2601 7.27463 30.5534 6.98133 30.9179 2.6084C31.2823 6.98133 31.5756 7.27463 35.9485 7.63904C31.5756 8.00345 31.2823 8.29676 30.9179 12.6697C30.5534 8.29676 30.2601 8.00345 25.8872 7.63904Z" fill="#F0F4FF"/>
<path d="M25.8872 7.63904C30.2601 7.27463 30.5534 6.98133 30.9179 2.6084C31.2823 6.98133 31.5756 7.27463 35.9485 7.63904C31.5756 8.00345 31.2823 8.29676 30.9179 12.6697C30.5534 8.29676 30.2601 8.00345 25.8872 7.63904Z" stroke="#0B4D5E" stroke-width="0.25" stroke-linecap="round" stroke-linejoin="round"/>
</g>
</svg>
