<svg width="64" height="64" viewBox="0 0 64 64" fill="none" xmlns="http://www.w3.org/2000/svg">
<path d="M54.4242 49.4799C58.7341 52.1562 58.5827 56.4083 54.0947 58.9873C49.6067 61.5663 42.5187 61.4965 38.1821 58.8203C33.8456 56.144 34.0144 51.8919 38.5024 49.3129C42.9904 46.7339 50.1143 46.8037 54.4242 49.4799Z" fill="#0B4D5E"/>
<path d="M46.2794 61C43.3048 61 40.333 60.3098 38.1102 58.9368C36.0075 57.6391 34.8658 55.9246 34.8933 54.1074C34.9227 52.2333 36.18 50.4886 38.4332 49.1936C42.9579 46.5944 50.1616 46.6715 54.4963 49.3634C56.5916 50.6648 57.7288 52.3829 57.6976 54.201C57.6655 56.0733 56.4099 57.8153 54.1623 59.1066C51.9623 60.3713 49.119 61 46.2794 61ZM46.3345 47.5645C43.5425 47.5645 40.7424 48.1849 38.5718 49.4322C36.4058 50.6767 35.1962 52.3389 35.1696 54.1129C35.1429 55.8283 36.2379 57.4592 38.2552 58.7037C42.5238 61.3387 49.5981 61.413 54.0255 58.8689C56.186 57.6271 57.3929 55.9687 57.4232 54.1974C57.4525 52.4793 56.3622 50.8465 54.3513 49.5983C52.1743 48.2455 49.2576 47.5654 46.3345 47.5654V47.5645Z" fill="#0B4D5E"/>
<path d="M36.6564 43.3096C43.2158 47.3837 42.9864 53.855 36.1553 57.7804C29.3242 61.7057 18.5356 61.6002 11.9349 57.5261C5.33414 53.4521 5.59204 46.9808 12.4231 43.0554C19.2542 39.13 30.097 39.2355 36.6564 43.3096Z" fill="#0B4D5E"/>
<path d="M24.2598 60.7733C19.7452 60.7733 15.237 59.7261 11.8623 57.6427C8.68493 55.6814 6.95765 53.0932 7.00079 50.3546C7.04484 47.5287 8.94558 44.8937 12.3533 42.9352C19.2175 38.9914 30.1501 39.108 36.7288 43.1922C39.8961 45.159 41.6142 47.7517 41.5674 50.4932C41.5188 53.3172 39.6217 55.9467 36.2241 57.8988C32.8842 59.8179 28.5688 60.7733 24.2598 60.7733ZM24.3424 40.3231C20.0783 40.3231 15.8051 41.2703 12.4919 43.1738C9.17136 45.0819 7.31926 47.6333 7.27613 50.3591C7.23482 52.9969 8.91529 55.5006 12.0073 57.4087C18.5254 61.4313 29.3278 61.5442 36.0855 57.6611C39.3959 55.7585 41.2453 53.2116 41.2921 50.4895C41.3371 47.849 39.6649 45.3407 36.5829 43.4271C33.2578 41.3621 28.8056 40.3231 24.3424 40.3231Z" fill="#0B4D5E"/>
<path d="M20.3381 12.6151V7.8922C20.3381 9.15232 21.1265 10.4014 22.7042 11.4119C25.9559 13.421 31.3351 13.4779 34.719 11.5367C36.4618 10.5262 37.3383 9.18628 37.3328 7.84723V12.5692C37.3328 13.9202 36.4618 15.2483 34.719 16.2587C31.3112 18.2118 25.9568 18.143 22.7042 16.1339C21.1265 15.1464 20.3427 13.8753 20.3381 12.6151Z" fill="#F0F4FF"/>
<path d="M28.8112 17.8117C26.5589 17.8117 24.3122 17.2904 22.6317 16.2515C21.0696 15.2731 20.206 13.9818 20.2014 12.6161V7.8932H20.4777C20.4777 9.13681 21.2954 10.3455 22.7795 11.2964C25.9881 13.2788 31.314 13.3329 34.652 11.4184C36.2893 10.4685 37.1924 9.20932 37.1961 7.86843V7.84824H37.4723V12.5712C37.4723 14.024 36.5188 15.3778 34.7887 16.38C33.1193 17.3363 30.9634 17.8127 28.8121 17.8127L28.8112 17.8117ZM20.4768 12.6152C20.4813 13.8827 21.2982 15.0914 22.7776 16.0184C25.9835 17.999 31.3103 18.054 34.6511 16.1404C36.2921 15.1896 37.1952 13.9222 37.1952 12.5703V9.18178C36.7969 10.1161 35.9764 10.9678 34.7878 11.6561C31.37 13.6165 25.9183 13.5596 22.6317 11.5286C21.5799 10.8549 20.8466 10.0528 20.4768 9.19279V12.6152Z" fill="#0B4D5E"/>
<path d="M20.2922 53.9835C20.1068 53.8587 19.8489 53.7109 19.6736 53.5751C19.3056 53.3025 18.9531 53.0079 18.6172 52.7014C18.3896 52.4857 18.173 52.259 17.9693 52.0204C17.7453 51.7478 17.4828 51.3504 17.2782 51.0558C17.1203 50.8061 16.9836 50.5335 16.8688 50.2499C16.7504 49.9664 16.6476 49.6708 16.5623 49.3762C16.5146 49.2174 16.4788 49.0467 16.4549 48.8769C16.4164 48.5933 16.387 48.2299 16.3723 47.9463C16.3723 49.8195 17.5407 51.6817 19.8728 53.1226C24.6774 56.1082 32.6318 56.199 37.6365 53.3154C40.2164 51.8056 41.5307 49.8525 41.5013 47.8665C41.5105 48.0372 41.5105 48.2069 41.5013 48.3657C41.4573 48.6833 41.3848 49.1036 41.3114 49.4102C41.2572 49.6148 41.1902 49.8076 41.1113 50.0122C41.048 50.171 40.9553 50.3637 40.8873 50.5115C40.7524 50.807 40.5891 51.0906 40.4009 51.3513C40.2357 51.578 40.0017 51.8845 39.8163 52.1002C39.6309 52.3269 39.5097 52.4407 39.373 52.5775C38.9692 52.9638 38.5323 53.3264 38.0679 53.6448C37.8247 53.8036 37.4934 54.0193 37.2401 54.1441C36.9867 54.28 36.7527 54.4167 36.5297 54.5305C36.3057 54.6324 35.9258 54.8141 35.6633 54.9169C35.4008 55.0307 35.1181 55.1326 34.8795 55.2234C34.316 55.4162 33.7424 55.5869 33.1614 55.7227C31.9977 55.9953 30.8137 56.1431 29.6224 56.188C28.7413 56.211 28.0649 56.188 27.841 56.188C27.194 56.1541 26.8672 56.1082 26.0788 56.0063C25.5006 55.9154 24.927 55.8016 24.3607 55.6548C24.112 55.5979 23.7816 55.507 23.5384 55.4281C23.2952 55.3483 22.9538 55.2354 22.706 55.1445C22.4572 55.0647 22.1709 54.9398 21.9414 54.838C21.7129 54.7361 21.3816 54.5654 21.143 54.4516C20.9044 54.3378 20.5299 54.134 20.2913 53.9863L20.2922 53.9835Z" fill="#0B4D5E"/>
<path d="M28.8193 56.334C28.5128 56.334 28.2595 56.3303 28.075 56.3266C27.974 56.3248 27.8951 56.3239 27.8419 56.3239C27.2178 56.2917 26.8975 56.2495 26.1926 56.1587L26.0614 56.1412C25.4299 56.0421 24.8627 55.9255 24.3249 55.786C24.0744 55.7291 23.7375 55.6355 23.4943 55.5566C23.2502 55.4767 22.9079 55.3629 22.6582 55.2712C22.4095 55.1913 22.113 55.0628 21.8845 54.961C21.7413 54.8967 21.5578 54.8058 21.3807 54.7186C21.2751 54.6663 21.1723 54.6159 21.0833 54.5727C20.8382 54.4571 20.4583 54.2487 20.2187 54.1001L20.2141 54.0973C20.149 54.0533 20.0737 54.0055 19.9957 53.9569C19.8535 53.867 19.7066 53.7743 19.5891 53.6834C19.2431 53.4282 18.8843 53.13 18.5236 52.8023C18.2914 52.582 18.0702 52.3489 17.8646 52.1085C17.6792 51.8827 17.4727 51.5817 17.291 51.3155L17.1653 51.1329C17.0019 50.8768 16.8605 50.5978 16.7403 50.2995C16.6247 50.0214 16.5201 49.7231 16.4301 49.4129C16.3805 49.2496 16.3438 49.0752 16.3191 48.8934C16.3099 48.8301 16.3007 48.7604 16.2934 48.6851C16.2548 48.4401 16.2346 48.1923 16.2346 47.9435L16.51 47.9362C16.5237 48.1822 16.5439 48.4336 16.5669 48.6447C16.8303 50.2766 18.0069 51.8028 19.9471 53.0033C24.7086 55.9623 32.6135 56.0485 37.5686 53.1942C40.0457 51.7441 41.3939 49.8516 41.3646 47.8665L41.6399 47.8573C41.65 48.0335 41.65 48.2069 41.6399 48.3712C41.5913 48.7347 41.516 49.1495 41.4472 49.4405C41.3949 49.6359 41.3306 49.8314 41.2416 50.06C41.1883 50.193 41.1168 50.3463 41.0544 50.4803L41.014 50.5675C40.8717 50.8786 40.7028 51.1696 40.5138 51.4302C40.3541 51.6496 40.1145 51.9644 39.9227 52.1883C39.7612 52.3866 39.6428 52.504 39.5281 52.6169L39.4721 52.6729C39.038 53.0868 38.5938 53.4503 38.1477 53.7559C37.8687 53.9385 37.5539 54.1423 37.3034 54.2653C37.2134 54.3139 37.1216 54.3644 37.0326 54.4149C36.8803 54.4984 36.7352 54.5792 36.593 54.6507L36.4204 54.7306C36.1993 54.8334 35.923 54.96 35.7147 55.0417C35.5054 55.1326 35.2796 55.217 35.074 55.2941L34.9309 55.3483C34.3196 55.5584 33.7524 55.7227 33.1935 55.853C32.0646 56.1174 30.8651 56.2743 29.6288 56.322C29.3324 56.3294 29.0598 56.3321 28.8184 56.3321L28.8193 56.334ZM27.8584 56.0476C27.907 56.0476 27.9832 56.0485 28.0796 56.0504C28.4045 56.055 28.9524 56.0641 29.6206 56.0476C30.8375 56.0017 32.0187 55.8457 33.1311 55.586C33.6808 55.4575 34.2389 55.295 34.8363 55.0894L34.9768 55.0362C35.1787 54.96 35.4008 54.8774 35.6091 54.7866C35.8147 54.7067 36.0864 54.581 36.3039 54.48L36.4737 54.402C36.6077 54.3341 36.7499 54.2552 36.8986 54.1735C36.9886 54.123 37.0813 54.0716 37.1767 54.0202C37.4364 53.8908 37.7852 53.6632 37.9944 53.5264C38.4267 53.2309 38.859 52.8767 39.2794 52.4747L39.3344 52.4205C39.4482 52.3067 39.5565 52.2002 39.7107 52.0103C39.8016 51.9038 39.9025 51.7781 40.0007 51.6514C39.3932 52.2939 38.625 52.8923 37.7063 53.4301C32.6722 56.3312 24.6388 56.2422 19.8002 53.2355C19.0871 52.795 18.474 52.3095 17.9656 51.7909C18.0032 51.8396 18.0399 51.8864 18.0757 51.9295C18.273 52.1599 18.4869 52.3866 18.7108 52.5986C19.0623 52.9189 19.4138 53.2107 19.7543 53.4622C19.8636 53.5466 20.0049 53.6357 20.1426 53.7219C20.2215 53.7715 20.2986 53.8201 20.3656 53.866C20.5987 54.0101 20.9649 54.2102 21.2017 54.3231C21.2925 54.3662 21.3963 54.4176 21.5027 54.4699C21.6753 54.5553 21.8561 54.6443 21.9974 54.7076C22.2195 54.8068 22.5059 54.9307 22.7472 55.0087C22.9987 55.1005 23.3383 55.2133 23.5797 55.2923C23.8165 55.3694 24.1414 55.4593 24.3901 55.5162C24.9233 55.6539 25.4804 55.7686 26.0999 55.8659L26.2275 55.8824C26.9241 55.9733 27.2416 56.0146 27.8483 56.0458H27.8575L27.8584 56.0476Z" fill="#0B4D5E"/>
<path d="M16.373 47.9215V40.7242C16.373 42.5864 17.5414 44.4477 19.8735 45.9005C24.6781 48.8861 32.6326 48.9659 37.6373 46.0822C40.2126 44.6064 41.5314 42.6194 41.5021 40.6443V47.8527C41.5021 49.8277 40.2172 51.8147 37.6373 53.2905C32.6326 56.1742 24.6781 56.0944 19.8735 53.1088C17.5414 51.656 16.3831 49.7938 16.373 47.9206V47.9215Z" fill="#8AE5CC"/>
<path d="M28.8964 55.5346C25.5805 55.5346 22.2727 54.7627 19.8011 53.2263C17.5122 51.8001 16.2456 49.9168 16.2346 47.9224V40.7242H16.5109C16.5109 42.6066 17.7306 44.4036 19.9462 45.784C24.703 48.7411 32.608 48.8219 37.5677 45.9639C39.9576 44.5936 41.3343 42.7085 41.3636 40.7729V40.6453L41.6399 40.6435V47.8545C41.6399 49.9553 40.2063 51.9809 37.7053 53.4117C35.2429 54.8297 32.0655 55.5346 28.8964 55.5346ZM16.5109 47.9206C16.521 49.8168 17.7416 51.6175 19.9462 52.9914C24.703 55.9485 32.608 56.0293 37.5677 53.1713C39.9805 51.7909 41.3636 49.8526 41.3636 47.8527V42.2707C40.8368 43.7548 39.5675 45.1333 37.7053 46.2007C32.6676 49.1036 24.636 49.0201 19.8011 46.0162C18.1262 44.9727 16.9991 43.6914 16.5109 42.3065V47.9206Z" fill="#0B4D5E"/>
<path d="M21.7652 46.8633C21.0953 46.5852 20.4601 46.2649 19.8728 45.9006C17.5407 44.4477 16.3723 42.5855 16.3723 40.7242V47.9215C16.3824 49.7947 17.5407 51.6569 19.8728 53.1098C20.518 53.5109 21.2237 53.855 21.9671 54.1506L21.7652 46.8633Z" fill="#0B4D5E"/>
<path d="M22.1112 54.3552L21.9166 54.2781C21.1337 53.967 20.4224 53.6136 19.8002 53.2263C17.5112 51.8001 16.2447 49.9168 16.2336 47.9224V40.7233H16.5099C16.5099 42.6057 17.7296 44.4027 19.9452 45.7831C20.5105 46.1346 21.1401 46.4549 21.8175 46.7357L21.9001 46.7706L21.9028 46.8596L22.1112 54.3552ZM16.5108 42.3074V47.9215C16.5209 49.8167 17.7406 51.6184 19.9461 52.9923C20.5023 53.3383 21.1337 53.6586 21.8248 53.944L21.6302 46.9569C20.9703 46.6779 20.3554 46.3631 19.8011 46.018C18.1261 44.9745 16.9991 43.6933 16.5108 42.3083V42.3074Z" fill="#0B4D5E"/>
<path d="M16.3533 40.7242L16.3 23.2413C16.3 25.1035 17.4638 26.9767 19.795 28.4176C24.5996 31.4032 32.5541 31.483 37.5588 28.6103C40.1387 27.1006 41.4529 25.1365 41.4236 23.1614L41.4722 40.6324C41.4722 42.6075 40.1818 44.5945 37.6074 46.0703C32.6128 48.965 24.6583 48.8742 19.8537 45.9005C17.5216 44.4477 16.3588 42.5855 16.3533 40.7242Z" fill="#F0F4FF"/>
<path d="M28.8718 48.3217C25.5623 48.3217 22.2573 47.5517 19.7811 46.0181C17.4876 44.5891 16.221 42.7095 16.2146 40.7252L16.1614 23.2698V23.2423H16.4376V23.2698C16.4496 25.1549 17.6656 26.9419 19.8665 28.3029C24.6206 31.2555 32.5255 31.3427 37.4898 28.4938C39.922 27.0694 41.2665 25.2192 41.2858 23.2725V23.1652L41.5612 23.1624V23.2744L41.6098 40.6362C41.6098 42.7361 40.1762 44.7607 37.6752 46.1943C35.2202 47.6169 32.0437 48.3254 28.8718 48.3254V48.3217ZM16.4422 24.8484L16.4909 40.7234C16.4964 42.6094 17.7161 44.4065 19.9261 45.7831C24.6986 48.7384 32.6008 48.8127 37.5376 45.9511C39.9504 44.5689 41.3335 42.6296 41.3335 40.6325L41.2895 24.7887C40.77 26.2618 39.5154 27.6238 37.6284 28.7288C32.5834 31.6235 24.5518 31.5363 19.7215 28.5342C18.0557 27.5035 16.9323 26.2306 16.4422 24.8475V24.8484Z" fill="#0B4D5E"/>
<path d="M21.2745 29.1922C20.7587 28.9591 20.2585 28.7058 19.795 28.4185C17.4629 26.9767 16.3 25.1035 16.3 23.2422L16.3533 40.7242C16.3579 42.5864 17.5216 44.4477 19.8537 45.9005C20.4466 46.2676 21.0881 46.5898 21.7655 46.8688L21.2745 29.1922Z" fill="#8AE5CC"/>
<path d="M21.9095 47.0771L21.7141 46.9964C21.0156 46.71 20.3658 46.3805 19.7821 46.018C17.4886 44.589 16.222 42.7094 16.2156 40.7242L16.1624 23.2688V23.2412H16.4386V23.2688C16.4505 25.1539 17.6666 26.9409 19.8675 28.3019C20.2796 28.558 20.7596 28.8085 21.3313 29.0674L21.4103 29.1032L21.413 29.1894L21.9095 47.0771ZM16.4423 24.8483L16.4909 40.7233C16.4964 42.6093 17.7162 44.4073 19.9262 45.7839C20.442 46.1042 21.0129 46.398 21.6223 46.6595L21.1395 29.2821C20.5907 29.0306 20.1263 28.7865 19.7225 28.536C18.0567 27.5053 16.9333 26.2323 16.4432 24.8492L16.4423 24.8483Z" fill="#0B4D5E"/>
<path d="M41.3208 19.0066C41.3492 19.1654 41.3804 19.3361 41.3804 19.4719C41.4043 19.7216 41.4245 20.119 41.4291 20.3916C41.4291 20.4145 41.4291 20.4375 41.4291 20.4595C41.4291 20.4815 41.4291 20.5054 41.4291 20.5274V20.5164C41.4236 20.8872 41.4236 20.8908 41.4291 20.5274V23.1725C41.4291 25.1475 40.1442 27.1345 37.5643 28.6214C32.5596 31.4931 24.6051 31.4142 19.8005 28.4286C17.4739 26.9758 16.3 25.1136 16.3 23.2404V20.4595V20.4705C16.3074 20.0281 16.3368 19.5848 16.3872 19.1535C16.4313 18.8699 16.5185 18.4385 16.5625 18.2448C16.6066 18.0402 16.6791 17.7905 16.7378 17.5978C16.8296 17.3023 16.937 17.0077 17.0591 16.7241C17.1077 16.5993 17.1775 16.4515 17.2435 16.3157C17.2766 16.2478 17.3087 16.1798 17.3371 16.1229C17.4822 15.8283 17.6446 15.5438 17.8236 15.2712C18.0071 14.9766 18.2054 14.704 18.4174 14.4314C18.4972 14.3176 18.6046 14.1928 18.7065 14.068C18.7597 14.0111 18.8102 13.9542 18.8552 13.8973C19.1066 13.6137 19.3737 13.3411 19.6536 13.0915C20.0061 12.762 20.3741 12.4674 20.7587 12.1829C21.0845 11.9562 21.5379 11.6496 21.883 11.456C22.0729 11.3422 22.2629 11.2403 22.53 11.1045H22.5327C22.7998 10.9796 23.1587 10.7979 23.4349 10.6841C23.8342 10.5363 24.3692 10.3436 24.7786 10.2188C24.9383 10.1619 25.1374 10.1169 25.3247 10.071C25.4164 10.0481 25.5064 10.0251 25.5862 10.0031C25.9267 9.91226 26.672 9.78743 26.9932 9.75348C27.0253 9.74246 27.0602 9.74247 27.096 9.74247C27.2896 9.70851 27.5283 9.68556 27.6843 9.67455C27.7394 9.67455 27.8045 9.66353 27.8743 9.66353C28.0386 9.65252 28.2267 9.64059 28.3561 9.64059H29.0279C29.4318 9.64059 29.9677 9.68648 30.367 9.72044C30.5349 9.73145 30.7671 9.76541 30.9663 9.78835C30.9929 9.78835 31.0186 9.79937 31.0434 9.79937C31.2572 9.83333 31.5353 9.87922 31.7446 9.92419C32.1484 10.0151 32.689 10.1509 33.0882 10.2647C33.3168 10.3326 33.5847 10.4125 33.8335 10.5143C34.0822 10.6052 34.4658 10.764 34.6613 10.8548C34.8559 10.9457 35.1138 11.0595 35.3038 11.1614C35.5864 11.2862 35.9563 11.5019 36.2289 11.6606L36.239 11.6717C36.5933 11.9103 37.0641 12.2168 37.3972 12.4894C37.5679 12.6142 37.7671 12.7849 37.947 12.9437C38.0938 13.0795 38.2719 13.2502 38.4279 13.409C38.4637 13.443 38.4977 13.477 38.5307 13.5109C38.7959 13.7835 39.0465 14.0671 39.2805 14.3626C39.5238 14.6921 39.8358 15.1345 40.0451 15.475C40.4975 16.2358 40.8472 17.0416 41.0822 17.9043C41.1721 18.1999 41.24 18.5064 41.2868 18.8121C41.296 18.869 41.3079 18.9369 41.3199 19.0048L41.3208 19.0066Z" fill="#8AE5CC"/>
<path d="M28.8333 30.8561C25.5127 30.8561 22.2004 30.0834 19.727 28.5461C17.4279 27.1106 16.1614 25.2264 16.1614 23.2413V20.4714L16.2008 20.4695H16.1614C16.1696 20.0162 16.199 19.5692 16.2495 19.1387C16.2935 18.8542 16.3816 18.421 16.4275 18.2164C16.4743 18.0025 16.5514 17.7391 16.6047 17.5601C16.702 17.249 16.8121 16.9498 16.9314 16.6717C16.9791 16.5478 17.0507 16.3964 17.1186 16.2569L17.2132 16.0623C17.3563 15.7696 17.5234 15.4777 17.7078 15.1968C17.8731 14.9316 18.064 14.6618 18.3072 14.3479C18.3641 14.2671 18.4402 14.1754 18.5164 14.0817L18.599 13.9826C18.6559 13.9211 18.7036 13.8679 18.7459 13.8137C19.0221 13.5026 19.2947 13.2273 19.5618 12.9905C19.8858 12.6876 20.24 12.3967 20.6769 12.0736C21.1578 11.7377 21.5405 11.4908 21.8149 11.3376C21.9948 11.2293 22.1793 11.1292 22.4675 10.9824L22.5024 10.9677C22.5776 10.9319 22.6602 10.8924 22.7456 10.852C22.9585 10.7493 23.1907 10.6373 23.3834 10.5584C23.9589 10.3454 24.4132 10.1876 24.739 10.0884C24.8813 10.038 25.0593 9.99483 25.231 9.95445L25.2934 9.93885C25.3833 9.91682 25.4705 9.89479 25.5494 9.87185C25.9129 9.77548 26.6673 9.65066 26.9793 9.61854C27.0014 9.60569 27.0546 9.60569 27.0968 9.60569C27.3107 9.56622 27.5943 9.5442 27.6759 9.53869C27.7071 9.53869 27.7319 9.53594 27.7567 9.53318C27.7943 9.53043 27.8338 9.52676 27.8751 9.52676C28.0339 9.51575 28.2248 9.50381 28.3569 9.50381H29.0288C29.4381 9.50381 29.9814 9.5497 30.3779 9.58366C30.4926 9.591 30.6395 9.60936 30.7845 9.62772L30.9827 9.65157C30.9965 9.65066 31.0194 9.65617 31.036 9.65984C31.2828 9.69838 31.5628 9.74427 31.7748 9.79016C32.1859 9.88194 32.7293 10.0196 33.1276 10.1325C33.3745 10.2059 33.637 10.2848 33.8866 10.3876C34.1289 10.4757 34.5199 10.6373 34.72 10.7309L34.8769 10.8034C35.043 10.8796 35.2257 10.9631 35.3698 11.0411C35.6543 11.1668 36.0416 11.3935 36.2986 11.5431L36.4665 11.6588C36.807 11.8864 37.1925 12.1434 37.4843 12.3838C37.6238 12.4857 37.8083 12.6371 38.0387 12.8418C38.1892 12.9813 38.3691 13.1529 38.5269 13.3145C38.56 13.3466 38.5958 13.3815 38.6297 13.4173C38.8996 13.6935 39.1547 13.9844 39.3878 14.2791C39.5035 14.4351 39.8935 14.9665 40.1624 15.4052C40.6296 16.1899 40.9839 17.0196 41.2142 17.8704C41.3033 18.1631 41.3739 18.4752 41.4226 18.7946C41.4317 18.8496 41.4418 18.9166 41.4547 18.9827C41.4831 19.1424 41.5162 19.3241 41.5162 19.4737C41.541 19.7289 41.5602 20.1318 41.5657 20.3906V23.1743C41.5657 25.3026 40.1689 27.2804 37.6312 28.7425C35.1697 30.155 31.9978 30.8571 28.8324 30.8571L28.8333 30.8561ZM16.4385 20.4723V23.2413C16.4385 25.1282 17.6583 26.9299 19.8729 28.312C24.627 31.2664 32.531 31.3508 37.4954 28.5029C39.9431 27.0914 41.2913 25.1989 41.2913 23.1724L41.2895 20.6623C41.2895 20.6182 41.2895 20.5696 41.2913 20.5154V20.3915C41.2867 20.1465 41.2684 19.7436 41.2427 19.4857C41.2427 19.3471 41.2124 19.1801 41.1858 19.0314C41.1729 18.9625 41.161 18.8928 41.1518 18.835C41.105 18.5284 41.038 18.2292 40.9517 17.9447C40.726 17.1141 40.3818 16.3083 39.9284 15.5456C39.7522 15.2583 39.4686 14.8453 39.1722 14.4452C38.9464 14.1607 38.6967 13.878 38.4342 13.6072C38.4021 13.5742 38.37 13.5421 38.3351 13.509C38.1773 13.3484 38.0011 13.1796 37.856 13.0446C37.633 12.8482 37.4559 12.7023 37.3173 12.6013C37.03 12.3655 36.6492 12.1122 36.3142 11.8882L36.1379 11.7643C35.9103 11.634 35.5304 11.4119 35.2504 11.288C35.1008 11.2081 34.9246 11.1274 34.764 11.054L34.6052 10.9805C34.4107 10.8897 34.0298 10.7327 33.7884 10.6446C33.5461 10.5455 33.2901 10.4693 33.0652 10.4014C32.6604 10.2867 32.1226 10.1509 31.716 10.0591C31.5105 10.0141 31.236 9.96913 31.024 9.93518C31.0194 9.93701 30.9974 9.93242 30.9791 9.92875L30.7524 9.9003C30.6129 9.88286 30.4706 9.86451 30.3596 9.85808C29.964 9.82412 29.428 9.77823 29.0306 9.77823H28.3588C28.2312 9.77823 28.0476 9.79016 27.8852 9.80026C27.8439 9.80026 27.8127 9.80393 27.7833 9.80669C27.7494 9.80944 27.7172 9.81219 27.6879 9.81219C27.62 9.8177 27.3474 9.8388 27.1225 9.87827C27.0785 9.88011 27.0528 9.88011 27.0427 9.88378C26.7058 9.92325 25.9633 10.0462 25.6256 10.1371C25.5448 10.1591 25.4549 10.1821 25.3613 10.2059L25.298 10.2215C25.1328 10.261 24.963 10.3014 24.8271 10.35C24.5013 10.4501 24.0516 10.6052 23.4853 10.8144C23.3027 10.8897 23.076 10.9989 22.8667 11.0998C22.7704 11.1467 22.6777 11.1916 22.5932 11.2302L22.5657 11.243C22.3005 11.3779 22.127 11.4725 21.9554 11.5762C21.6846 11.7276 21.3111 11.969 20.8393 12.2976C20.4144 12.6114 20.0666 12.896 19.749 13.1933C19.4874 13.4255 19.2231 13.6935 18.9597 13.99C18.9175 14.0432 18.8643 14.1028 18.8092 14.1625L18.7312 14.257C18.6596 14.3451 18.588 14.4314 18.5302 14.5122C18.2888 14.8224 18.1034 15.0858 17.941 15.3446C17.762 15.6181 17.6005 15.8999 17.4619 16.1844L17.3683 16.3771C17.304 16.5102 17.2352 16.6534 17.1884 16.7754C17.0709 17.0499 16.9644 17.3399 16.8699 17.6409C16.8167 17.8135 16.7423 18.0695 16.6974 18.276C16.6515 18.4789 16.5652 18.9029 16.5239 19.1764C16.4743 19.5921 16.4459 20.0299 16.4385 20.4732V20.4723Z" fill="#0B4D5E"/>
<path d="M31.6547 9.90767C31.4592 9.86821 31.2316 9.82966 31.0453 9.80029C31.0205 9.80029 30.9948 9.78835 30.9682 9.78835C30.769 9.76541 30.5368 9.73145 30.3689 9.72044C29.9696 9.68648 29.4346 9.64059 29.0298 9.64059H28.358C28.2277 9.64059 28.0404 9.65252 27.8762 9.66353C27.8064 9.66353 27.7413 9.67547 27.6862 9.67547C27.5302 9.68648 27.2915 9.70943 27.0979 9.74339C27.0621 9.74339 27.0272 9.74339 26.9951 9.75532C26.6739 9.78928 25.9286 9.91409 25.5881 10.005C25.5083 10.027 25.4183 10.0499 25.3266 10.0729C25.1393 10.1188 24.9402 10.1637 24.7805 10.2206C24.3711 10.3455 23.8361 10.5382 23.4368 10.686C23.1606 10.7998 22.8017 10.9815 22.5346 11.1063H22.5319C22.2639 11.2431 22.0748 11.3449 21.8848 11.4587C21.5388 11.6515 21.0864 11.958 20.7606 12.1856C20.376 12.4692 20.0071 12.7647 19.6555 13.0933C19.3756 13.3429 19.1085 13.6155 18.8571 13.8991C18.8121 13.956 18.7607 14.0129 18.7084 14.0689C18.6065 14.1937 18.4991 14.3186 18.4193 14.4324C18.2073 14.7049 18.009 14.9775 17.8255 15.2721C17.6465 15.5447 17.4841 15.8283 17.339 16.1238C17.3115 16.1808 17.2794 16.2487 17.2454 16.3166C17.1793 16.4533 17.1096 16.6002 17.061 16.7259C16.9389 17.0095 16.8315 17.305 16.7397 17.5996C16.681 17.7924 16.6085 18.042 16.5644 18.2467C16.5204 18.4394 16.4332 18.8708 16.3891 19.1544C16.3377 19.5857 16.3084 20.0281 16.301 20.4714V23.2413C16.301 25.1145 17.474 26.9767 19.8015 28.4295C20.2631 28.7159 20.7615 28.9674 21.2764 29.2014L21.2488 28.2056C20.5017 18.2494 25.2825 11.2853 31.6565 9.90767H31.6547Z" fill="#0B4D5E"/>
<path d="M21.4175 29.418L21.2175 29.3271C20.6338 29.0619 20.1464 28.8077 19.727 28.547C17.4279 27.1116 16.1614 25.2265 16.1614 23.2413V20.4714C16.1696 20.0171 16.199 19.5692 16.2495 19.1379C16.2945 18.8533 16.3816 18.4201 16.4275 18.2155C16.4743 17.9998 16.5514 17.7373 16.6047 17.5593C16.702 17.2481 16.8121 16.9489 16.9314 16.6708C16.9791 16.5469 17.0507 16.3964 17.1186 16.256L17.2122 16.0633C17.3554 15.7705 17.5225 15.4786 17.7078 15.1969C17.8731 14.9316 18.064 14.6618 18.3072 14.3479C18.3641 14.2672 18.4402 14.1754 18.5164 14.0818L18.599 13.9826C18.6559 13.9212 18.7036 13.8679 18.7459 13.8138C19.0212 13.5036 19.2938 13.2282 19.5618 12.9905C19.883 12.6904 20.2373 12.3985 20.6769 12.0746C21.1578 11.7387 21.5405 11.4918 21.8149 11.3385C22.0178 11.2174 22.2224 11.1091 22.4675 10.9833L22.5024 10.9686C22.5776 10.9328 22.6602 10.8934 22.7456 10.853C22.9585 10.7502 23.1907 10.6382 23.3834 10.5593C23.9598 10.3464 24.4141 10.1885 24.739 10.0894C24.8822 10.038 25.0602 9.99577 25.2319 9.95447L25.2934 9.93979C25.3842 9.91776 25.4714 9.89482 25.5513 9.87371C25.8918 9.78193 26.6333 9.65528 26.9793 9.61948C27.0014 9.60755 27.0546 9.60755 27.0968 9.60755C27.2996 9.56992 27.5704 9.5479 27.6759 9.54055C27.7071 9.54055 27.7319 9.5378 27.7567 9.53504C27.7943 9.53229 27.8338 9.52862 27.8751 9.52862C28.0339 9.51761 28.2248 9.50568 28.3569 9.50568H29.0288C29.4381 9.50568 29.9814 9.55156 30.3779 9.58552C30.4908 9.59286 30.6331 9.61031 30.7771 9.62866L30.9827 9.65344C30.9892 9.65344 31.0194 9.65803 31.0387 9.6617C31.2544 9.69566 31.4838 9.7342 31.6812 9.77459L32.3273 9.90491L31.683 10.0435C24.9272 11.5037 20.6916 18.969 21.3836 28.1964L21.4175 29.418ZM22.5639 11.243C22.2931 11.3816 22.1206 11.4762 21.9535 11.5762C21.6828 11.7276 21.3092 11.969 20.8375 12.2976C20.4107 12.6133 20.0629 12.8987 19.7472 13.1933C19.4856 13.4265 19.2204 13.6935 18.9579 13.99C18.9157 14.0432 18.8624 14.1029 18.8074 14.1625L18.7293 14.2571C18.6578 14.3452 18.5862 14.4314 18.5284 14.5122C18.287 14.8224 18.1016 15.0858 17.9391 15.3446C17.7592 15.62 17.5977 15.9017 17.46 16.1844L17.3664 16.3772C17.3022 16.5102 17.2334 16.6534 17.1865 16.7755C17.0691 17.0499 16.9626 17.3399 16.8681 17.641C16.8158 17.8135 16.7405 18.0677 16.6955 18.2751C16.6496 18.4771 16.5634 18.9011 16.5221 19.1746C16.4725 19.5922 16.4441 20.03 16.4367 20.4732V23.2413C16.4367 25.1283 17.6565 26.9299 19.8711 28.313C20.2318 28.5369 20.6448 28.7572 21.1294 28.9839L21.1073 28.2102C20.4273 19.1406 24.4637 11.7396 30.9846 9.93061C30.9818 9.93061 30.9781 9.92969 30.9754 9.92878L30.7414 9.90033C30.6055 9.88289 30.4669 9.86545 30.3577 9.85903C29.9622 9.82507 29.4262 9.77917 29.0288 9.77917H28.3569C28.2294 9.77917 28.0458 9.79111 27.8834 9.8012C27.8421 9.8012 27.8109 9.80488 27.7815 9.80763C27.7475 9.81038 27.7154 9.81313 27.686 9.81313C27.5943 9.82048 27.3345 9.84158 27.1216 9.87921C27.0766 9.88105 27.0509 9.88105 27.0408 9.88472C26.7077 9.92327 25.967 10.0463 25.6238 10.138C25.5421 10.1601 25.4521 10.183 25.3594 10.2059L25.297 10.2215C25.1318 10.261 24.9611 10.3023 24.8262 10.35C24.5004 10.4492 24.0507 10.6052 23.4835 10.8144C23.3008 10.8897 23.0742 10.9989 22.8649 11.0999C22.7685 11.1467 22.6758 11.1917 22.5914 11.2302L22.5639 11.243Z" fill="#0B4D5E"/>
<path d="M20.3381 12.6151V7.8922C20.3381 9.15232 21.1265 10.4014 22.7042 11.4119C25.9559 13.421 31.3351 13.4779 34.719 11.5367C36.4618 10.5262 37.3383 9.18628 37.3328 7.84723V12.5692C37.3328 13.9202 36.4618 15.2483 34.719 16.2587C31.3112 18.2118 25.9568 18.143 22.7042 16.1339C21.1265 15.1464 20.3427 13.8753 20.3381 12.6151Z" fill="#F0F4FF"/>
<path d="M28.8112 17.8117C26.5589 17.8117 24.3122 17.2904 22.6317 16.2515C21.0696 15.2731 20.206 13.9818 20.2014 12.6161V7.8932H20.4777C20.4777 9.13681 21.2954 10.3455 22.7795 11.2964C25.9881 13.2788 31.314 13.3329 34.652 11.4184C36.2893 10.4685 37.1924 9.20932 37.1961 7.86843V7.84824H37.4723V12.5712C37.4723 14.024 36.5188 15.3778 34.7887 16.38C33.1193 17.3363 30.9634 17.8127 28.8121 17.8127L28.8112 17.8117ZM20.4768 12.6152C20.4813 13.8827 21.2982 15.0914 22.7776 16.0184C25.9835 17.999 31.3103 18.054 34.6511 16.1404C36.2921 15.1896 37.1952 13.9222 37.1952 12.5703V9.18178C36.7969 10.1161 35.9764 10.9678 34.7878 11.6561C31.37 13.6165 25.9183 13.5596 22.6317 11.5286C21.5799 10.8549 20.8466 10.0528 20.4768 9.19279V12.6152Z" fill="#0B4D5E"/>
<path d="M23.252 3.51068C23.3934 3.43083 23.5778 3.31794 23.7384 3.25002C23.8991 3.18211 24.1423 3.05729 24.3231 2.98937C24.6397 2.86455 25.0683 2.71679 25.3941 2.61491C25.574 2.55801 25.8172 2.50111 26.0026 2.45614C26.489 2.34233 27.0838 2.25147 27.1902 2.24046C27.2976 2.22944 27.6133 2.19549 27.7941 2.18356C27.974 2.17254 28.2035 2.13766 28.3834 2.13766H28.9873C29.348 2.13766 29.8298 2.18355 30.1896 2.20558C30.3649 2.20558 30.6035 2.26249 30.7788 2.28543C30.9541 2.30838 31.4993 2.39923 31.9425 2.51212C32.1133 2.55801 32.3519 2.614 32.5217 2.68283C32.8383 2.78471 33.2568 2.94348 33.5634 3.06922C33.7286 3.13714 33.9378 3.23993 34.0938 3.31886C34.2499 3.40972 34.483 3.53454 34.6491 3.63642C34.5261 3.5685 34.3894 3.54555 34.2535 3.55656C34.1177 3.56758 33.9865 3.62448 33.8754 3.70433C31.1982 2.03579 26.7681 1.9899 23.9734 3.59052C21.1787 5.20216 21.0915 7.84722 23.7687 9.51668C26.4459 11.1742 30.8807 11.2192 33.6707 9.61855C36.4599 8.01793 36.5526 5.36185 33.8754 3.70433C33.9883 3.62448 34.1186 3.56849 34.2554 3.56849C34.3912 3.55748 34.528 3.57951 34.65 3.64834C34.7666 3.72819 34.9327 3.83007 35.0493 3.90991C35.2686 4.0797 35.5357 4.30731 35.755 4.48903C36.0607 4.77263 36.3323 5.0911 36.5627 5.44262C36.6884 5.63535 36.8041 5.84002 36.9087 6.04377C36.9876 6.21448 37.0574 6.38427 37.1179 6.55497C37.1703 6.71375 37.2125 6.88447 37.2446 7.05426C37.2446 7.14512 37.2832 7.26994 37.2932 7.3608C37.3033 7.46267 37.3226 7.7013 37.3226 7.872C37.3226 9.20004 36.4516 10.551 34.7088 11.5505C31.3258 13.4916 25.9466 13.4466 22.6949 11.4257C21.1172 10.4492 20.3334 9.18903 20.3289 7.90596C20.3289 7.71322 20.3536 7.46359 20.3775 7.26994C20.4041 7.08821 20.4445 6.89548 20.4996 6.71376C20.6345 6.25945 20.8382 5.82809 21.1035 5.44262C21.231 5.24988 21.3705 5.06816 21.522 4.89745C21.6927 4.70471 21.9359 4.46609 22.1204 4.30731C22.3049 4.14854 22.4958 4.00077 22.6949 3.86494C22.8748 3.74012 23.062 3.6153 23.2548 3.51251L23.252 3.51068Z" fill="#8AE5CC"/>
<path d="M28.7927 13.1052C26.5404 13.1052 24.2955 12.5821 22.6187 11.5404C21.0566 10.5731 20.193 9.28264 20.1875 7.90504C20.1875 7.68019 20.2187 7.39935 20.238 7.25158C20.2664 7.05242 20.3105 6.85418 20.3646 6.67338C20.5051 6.19888 20.7152 5.75834 20.9869 5.36278C21.1154 5.16912 21.2595 4.98006 21.4164 4.80476C21.5844 4.61478 21.8294 4.37248 22.0286 4.20086C22.2158 4.03933 22.4131 3.88697 22.615 3.7493C22.7839 3.63274 22.9794 3.49966 23.1859 3.39045L23.286 3.33263C23.4117 3.26104 23.5539 3.17936 23.6861 3.12245C23.7494 3.09584 23.8265 3.06004 23.9073 3.02241C24.0312 2.96368 24.1643 2.90219 24.2744 2.85997C24.5653 2.74525 24.9894 2.59656 25.3528 2.48276C25.5088 2.4332 25.7117 2.38455 25.8833 2.34234L25.9696 2.32214C26.4661 2.2065 27.0626 2.11472 27.1755 2.10279C27.2838 2.09086 27.6032 2.05782 27.7849 2.04589C27.8519 2.04222 27.9263 2.03396 28.0015 2.02662C28.1328 2.01285 28.2668 2 28.3824 2H28.9863C29.2543 2 29.5884 2.02478 29.8839 2.04589L30.1978 2.06791H30.1996C30.319 2.06791 30.4658 2.09361 30.6071 2.11839C30.6732 2.13032 30.7384 2.14134 30.7953 2.14868C30.9935 2.17438 31.5433 2.26891 31.9756 2.37905L32.0701 2.40383C32.228 2.44421 32.4234 2.49561 32.5721 2.55526C32.9053 2.66265 33.344 2.8306 33.6147 2.94165C33.8038 3.01875 34.0351 3.13439 34.1562 3.19588C34.2186 3.23259 34.2866 3.27022 34.3563 3.30877C34.4811 3.37852 34.6151 3.45377 34.7207 3.51894L34.7152 3.5272C34.7812 3.57125 34.8492 3.61439 34.9162 3.65752C34.9905 3.70525 35.0639 3.75298 35.1254 3.79428C35.3108 3.93745 35.521 4.11366 35.711 4.27244L35.8422 4.38166C36.1662 4.68178 36.4452 5.01126 36.6774 5.36553C36.7976 5.55 36.9169 5.7565 37.0317 5.97953C37.1152 6.16033 37.1877 6.33655 37.2473 6.50726C37.3006 6.66879 37.3437 6.84317 37.3795 7.02673C37.3823 7.09097 37.3942 7.14971 37.4052 7.2057C37.4162 7.25434 37.4254 7.30206 37.43 7.34336C37.4392 7.45074 37.4593 7.69488 37.4593 7.86926C37.4593 9.30468 36.481 10.6896 34.7748 11.6671C33.1017 12.6271 30.944 13.1043 28.7936 13.1043L28.7927 13.1052ZM28.3824 2.27534C28.275 2.27534 28.1502 2.28819 28.0291 2.30012C27.9492 2.30838 27.8721 2.31572 27.8024 2.32031C27.6243 2.33132 27.3105 2.36528 27.2049 2.3763C27.1085 2.38639 26.5175 2.47633 26.0338 2.58922L25.9485 2.60941C25.7814 2.6498 25.585 2.69752 25.4345 2.74525C25.0766 2.85722 24.6599 3.00314 24.3726 3.11695C24.2671 3.15642 24.1404 3.21607 24.0229 3.27114C23.9385 3.3106 23.8587 3.34823 23.7926 3.37576C23.676 3.42532 23.542 3.50242 23.4236 3.57033L23.3162 3.63091C23.1226 3.7337 22.9335 3.86219 22.7702 3.97508C22.5765 4.10816 22.3874 4.25409 22.2076 4.40919C22.0185 4.57256 21.7826 4.80476 21.622 4.98648C21.4742 5.15352 21.3366 5.33065 21.2154 5.51605C20.9584 5.88959 20.762 6.30443 20.628 6.75139C20.5785 6.91934 20.5372 7.10474 20.5106 7.28829C20.4931 7.42596 20.4638 7.69395 20.4638 7.90413C20.4693 9.18261 21.2861 10.3913 22.7646 11.3064C25.9631 13.2943 31.29 13.3494 34.6381 11.4284C36.2552 10.5015 37.1822 9.20464 37.1822 7.87017C37.1822 7.70405 37.1629 7.47094 37.1546 7.37182C37.151 7.34153 37.1427 7.30298 37.1354 7.26351C37.1198 7.19376 37.1051 7.12126 37.1051 7.05334C37.0757 6.9065 37.0344 6.74405 36.9858 6.59628C36.9289 6.43659 36.861 6.26955 36.7829 6.10068C36.6746 5.8905 36.5608 5.69226 36.4461 5.51696C36.2258 5.18105 35.9615 4.869 35.6605 4.58908L35.5338 4.48445C35.3466 4.32751 35.1383 4.15405 34.9639 4.0173C34.9107 3.98242 34.8391 3.93653 34.7675 3.88972C34.6986 3.84475 34.6298 3.8007 34.5711 3.76123C34.4894 3.71534 34.3829 3.69332 34.2654 3.70433C34.226 3.70433 34.1884 3.70984 34.1535 3.71993C35.3393 4.51841 35.979 5.54817 35.9615 6.63942C35.9422 7.82612 35.152 8.92654 33.7386 9.73787C30.9128 11.3596 26.4092 11.3119 23.6962 9.63324C22.3764 8.8109 21.6606 7.72333 21.6807 6.57242C21.7009 5.38756 22.4911 4.28713 23.9045 3.47122C26.7121 1.86325 31.1615 1.89996 33.8736 3.54097C33.9332 3.50517 33.9965 3.47672 34.0589 3.45653C34.047 3.4501 34.036 3.44368 34.025 3.43726C33.9139 3.38035 33.6909 3.2693 33.511 3.19496C33.2439 3.08666 32.8135 2.92146 32.4794 2.81224C32.3381 2.75626 32.1518 2.70762 32.0013 2.66907L31.9067 2.64429C31.4864 2.53691 30.9522 2.44605 30.7595 2.42035C30.6998 2.41209 30.6301 2.40108 30.5594 2.38823C30.4282 2.36528 30.2933 2.34142 30.1886 2.34142L29.8637 2.31939C29.5737 2.29828 29.2433 2.2735 28.9863 2.2735H28.3824V2.27534ZM28.8349 2.55893C27.1113 2.55893 25.3822 2.94165 24.0395 3.71075C22.7142 4.47527 21.9726 5.49402 21.9542 6.57792C21.9359 7.62879 22.6059 8.63102 23.8403 9.40013C26.4743 11.031 30.8531 11.0769 33.6019 9.50017C34.9272 8.73932 35.6678 7.72149 35.6862 6.63575C35.7036 5.59406 35.0474 4.60285 33.8359 3.84292L33.802 3.82181L33.7671 3.8007C32.4244 2.97561 30.6328 2.55985 28.8358 2.55985L28.8349 2.55893Z" fill="#0B4D5E"/>
<path d="M39.2195 42.7562V38.6463C39.2195 40.0083 40.0675 41.3713 41.7719 42.4157C45.2741 44.5954 51.0828 44.6634 54.7374 42.5515C56.6152 41.4731 57.5578 40.0313 57.5578 38.5894V42.6993C57.5578 44.1411 56.6226 45.583 54.7374 46.6724C51.1122 48.7723 45.3108 48.7163 41.7719 46.5366C40.0749 45.4692 39.2268 44.1182 39.2195 42.7562Z" fill="#0B4D5E"/>
<path d="M48.3829 48.3418C45.9544 48.3418 43.5241 47.7765 41.6996 46.6531C40.02 45.5958 39.0903 44.2127 39.082 42.7562V38.6454H39.3583C39.3583 40.0175 40.2412 41.3143 41.8437 42.2973C45.3092 44.4541 51.0637 44.5156 54.6688 42.4313C56.4438 41.4125 57.4203 40.0478 57.4203 38.5885H57.6966V42.6984C57.6966 44.2604 56.6705 45.7133 54.8074 46.7908C53.0196 47.826 50.7012 48.3409 48.3838 48.3409L48.3829 48.3418ZM39.3583 42.7562C39.3656 44.1145 40.2485 45.4159 41.8455 46.42C45.3331 48.5685 51.0858 48.6282 54.6688 46.554C56.4438 45.5279 57.4203 44.1595 57.4203 42.7002V39.9661C57 40.9922 56.107 41.9237 54.8056 42.6708C51.1225 44.8001 45.2422 44.7368 41.6996 42.5322C40.5477 41.8265 39.7493 40.9592 39.3583 40.012V42.7562Z" fill="#0B4D5E"/>
<path d="M40.0264 44.9919V53.665C40.0337 54.9141 40.8092 56.1513 42.3612 57.1159C45.5661 59.1139 50.8737 59.1708 54.2099 57.2407C55.9289 56.2532 56.7916 54.9361 56.7916 53.6191V44.912C56.3226 45.5481 55.6389 46.1492 54.7376 46.6715C51.1123 48.7714 45.311 48.7154 41.772 46.5356C41.0258 46.0703 40.4449 45.5481 40.0264 44.9919Z" fill="#F0F4FF"/>
<path d="M48.3855 58.7872C46.1635 58.7872 43.9462 58.2677 42.2877 57.2343C40.7477 56.2761 39.896 55.0096 39.8877 53.6669V44.5808L40.1364 44.9093C40.5531 45.4637 41.1285 45.9721 41.8444 46.4191C45.3338 48.5685 51.0856 48.6273 54.6687 46.5531C55.5286 46.0556 56.205 45.4756 56.6795 44.8313L56.9283 44.4945V53.62C56.9283 55.05 55.9866 56.378 54.2777 57.361C52.6312 58.3136 50.5074 58.7872 48.3855 58.7872ZM40.1639 45.3792V53.6659C40.1713 54.9095 40.9771 56.0944 42.4336 57.0003C45.5963 58.9717 50.8488 59.0276 54.1409 57.1223C55.7618 56.1908 56.6529 54.9472 56.6529 53.62V45.3058C56.1784 45.8565 55.5598 46.3548 54.8063 46.7917C51.1444 48.9127 45.265 48.8494 41.6994 46.654C41.0854 46.2704 40.5714 45.8427 40.1639 45.3792Z" fill="#0B4D5E"/>
<path d="M55.0065 34.8091C58.5161 36.9888 58.3931 40.4507 54.7385 42.5515C51.0838 44.6514 45.3119 44.5955 41.7802 42.4157C38.2486 40.236 38.3862 36.7741 42.0409 34.6733C45.6955 32.5734 51.4968 32.6293 55.0065 34.8091Z" fill="#8AE5CC"/>
<path d="M48.3747 44.2154C45.9463 44.2154 43.5224 43.6519 41.707 42.5322C39.9871 41.4713 39.0528 40.0661 39.0766 38.5775C39.1005 37.042 40.1284 35.613 41.9713 34.5539C45.6617 32.4329 51.5411 32.4962 55.0782 34.6925C56.7927 35.7571 57.7224 37.1632 57.6976 38.6536C57.6719 40.1882 56.6449 41.6144 54.8075 42.6708C53.0114 43.7033 50.6921 44.2164 48.3747 44.2164V44.2154ZM48.4188 33.2745C46.1482 33.2745 43.8739 33.7784 42.1099 34.7925C40.3542 35.8021 39.3749 37.1476 39.352 38.5821C39.3308 39.9698 40.2174 41.2895 41.8529 42.2982C45.3231 44.4394 51.073 44.499 54.6698 42.4322C56.421 41.4254 57.3993 40.0817 57.4232 38.6491C57.4461 37.2595 56.5623 35.9379 54.9342 34.9265C53.1647 33.8279 50.794 33.2745 48.4188 33.2745Z" fill="#0B4D5E"/>
<path d="M33.8673 3.70431C36.5445 5.36184 36.4518 8.01792 33.6626 9.61854C30.8735 11.2302 26.4387 11.1852 23.7606 9.51666C21.0834 7.84813 21.1559 5.20306 23.9653 3.59051C26.7746 1.98989 31.1892 2.03486 33.8673 3.70431Z" fill="#F0F4FF"/>
<path d="M28.7927 10.9328C26.9324 10.9328 25.0757 10.4978 23.6889 9.63324C22.3645 8.80815 21.6468 7.71781 21.6679 6.56415C21.689 5.38204 22.482 4.28346 23.8982 3.47121C26.736 1.85224 31.2414 1.90455 33.9406 3.58686C35.2585 4.40277 35.9735 5.48667 35.9542 6.63941C35.9349 7.82611 35.1447 8.92654 33.7304 9.73786C32.3501 10.5363 30.5705 10.9328 28.7927 10.9328ZM28.8331 2.5626C27.1095 2.5626 25.3795 2.9444 24.034 3.71075C22.706 4.47343 21.9625 5.48851 21.9433 6.57058C21.924 7.62328 22.5958 8.62826 23.8348 9.40012C26.4698 11.043 30.8486 11.0879 33.5946 9.50016C34.9208 8.73932 35.6614 7.72149 35.6798 6.63574C35.6972 5.58396 35.0282 4.58449 33.7956 3.82181C32.4519 2.98387 30.6448 2.5626 28.8331 2.5626Z" fill="#0B4D5E"/>
</svg>
