<svg width="64" height="64" viewBox="0 0 64 64" fill="none" xmlns="http://www.w3.org/2000/svg">
<mask id="mask0_15036_610" style="mask-type:alpha" maskUnits="userSpaceOnUse" x="0" y="0" width="64" height="64">
<rect width="64" height="64" fill="#D9D9D9"/>
</mask>
<g mask="url(#mask0_15036_610)">
</g>
<g clip-path="url(#clip0_15036_610)">
<path d="M23.6081 40.6132L23.5667 59.8996L6.69189 49.9758L6.7416 30.6895L23.6081 40.6132Z" fill="#0B4D5E" stroke="#0B4D5E" stroke-width="0.25" stroke-linecap="round" stroke-linejoin="round"/>
<path d="M23.6081 40.6131L57.2996 20.8159L57.2582 40.1023L23.5667 59.8995L23.6081 40.6131Z" fill="#8AE5CC" stroke="#0B4D5E" stroke-width="0.25" stroke-linecap="round" stroke-linejoin="round"/>
<path d="M6.7417 30.6893L40.4332 10.8921L57.2997 20.8158L23.6082 40.613L6.7417 30.6893Z" fill="#F0F4FF" stroke="#0B4D5E" stroke-width="0.25" stroke-linecap="round" stroke-linejoin="round"/>
<path d="M9.55835 30.3877L40.2013 12.458L54.6985 21L24.0473 38.9297L9.55835 30.3877Z" fill="#F0F4FF" stroke="#0B4D5E" stroke-width="0.25" stroke-linecap="round" stroke-linejoin="round"/>
<path d="M40.2013 14.4679L52.9837 22.0049L54.6985 21L40.2013 12.458L9.55835 30.3877L11.2649 31.401L40.2013 14.4679Z" fill="#0B4D5E" stroke="#0B4D5E" stroke-width="0.25" stroke-linecap="round" stroke-linejoin="round"/>
<path d="M31.1633 38.2852L31.1715 44.1473L28.2307 45.864L28.2141 40.0019L31.1633 38.2852Z" fill="#F0F4FF" stroke="#0B4D5E" stroke-width="0.25" stroke-linecap="round" stroke-linejoin="round"/>
<path d="M38.3207 34.1982L38.329 40.0687L35.3881 41.7855L35.3716 35.915L38.3207 34.1982Z" fill="#F0F4FF" stroke="#0B4D5E" stroke-width="0.25" stroke-linecap="round" stroke-linejoin="round"/>
<path d="M45.4782 30.1201L45.4865 35.9822L42.5456 37.699L42.5374 31.8369L45.4782 30.1201Z" fill="#F0F4FF" stroke="#0B4D5E" stroke-width="0.25" stroke-linecap="round" stroke-linejoin="round"/>
<path d="M52.6357 26.0332L52.6523 31.9037L49.7031 33.6205L49.6948 27.75L52.6357 26.0332Z" fill="#F0F4FF" stroke="#0B4D5E" stroke-width="0.25" stroke-linecap="round" stroke-linejoin="round"/>
<path d="M31.1633 47.5977L31.1715 53.4681L28.2307 55.1849L28.2141 49.3228L31.1633 47.5977Z" fill="#F0F4FF" stroke="#0B4D5E" stroke-width="0.25" stroke-linecap="round" stroke-linejoin="round"/>
<path d="M38.3207 43.519L38.329 49.3895L35.3881 51.1063L35.3716 45.2358L38.3207 43.519Z" fill="#F0F4FF" stroke="#0B4D5E" stroke-width="0.25" stroke-linecap="round" stroke-linejoin="round"/>
<path d="M45.4782 39.4409L45.4865 45.303L42.5456 47.0198L42.5374 41.1577L45.4782 39.4409Z" fill="#F0F4FF" stroke="#0B4D5E" stroke-width="0.25" stroke-linecap="round" stroke-linejoin="round"/>
<path d="M52.6357 35.354L52.6523 41.2245L49.7031 42.9413L49.6948 37.0708L52.6357 35.354Z" fill="#F0F4FF" stroke="#0B4D5E" stroke-width="0.25" stroke-linecap="round" stroke-linejoin="round"/>
<path d="M24.4614 25.9912C24.4697 27.2139 25.2733 28.4282 26.8638 29.3578C30.0449 31.2169 35.2059 31.2253 38.3705 29.3578C39.961 28.4282 40.748 27.2055 40.7397 25.9828V21.0503H24.4614V25.9828V25.9912Z" fill="#8AE5CC" stroke="#0B4D5E" stroke-width="0.25" stroke-linecap="round" stroke-linejoin="round"/>
<path d="M23.9146 20.4556C23.9228 21.762 24.7844 23.0601 26.4826 24.0566C29.8791 26.0414 35.3963 26.0497 38.768 24.0566C40.4662 23.0601 41.3029 21.7536 41.2946 20.4556V19.3418H23.9146V20.4556Z" fill="#8AE5CC" stroke="#0B4D5E" stroke-width="0.25" stroke-linecap="round" stroke-linejoin="round"/>
<path d="M31.1632 19.3252H23.9146V20.439C23.9228 21.7454 24.7844 23.0435 26.4826 24.04C27.8081 24.8105 29.4483 25.2794 31.1632 25.4553V19.3252Z" fill="#0B4D5E" stroke="#0B4D5E" stroke-width="0.25" stroke-linecap="round" stroke-linejoin="round"/>
<path d="M38.7267 15.5151C42.1232 17.4998 42.1563 20.724 38.7681 22.7171C35.3799 24.7102 29.8793 24.6935 26.4828 22.7171C23.078 20.7324 23.0531 17.5082 26.4331 15.5234C29.8213 13.5303 35.3302 13.5387 38.735 15.5234L38.7267 15.5151Z" fill="#F0F4FF" stroke="#0B4D5E" stroke-width="0.25" stroke-linecap="round" stroke-linejoin="round"/>
<path d="M40.3171 18.2282C40.3171 19.3839 39.5798 20.5395 38.0721 21.4272C35.0733 23.1859 30.1856 23.1859 27.1619 21.4272C25.6542 20.5479 24.8921 19.3922 24.8838 18.2366C24.8838 13.9321 28.3383 10.4399 32.5963 10.4399C36.8543 10.4399 40.3088 13.9321 40.3088 18.2366" fill="#8AE5CC"/>
<path d="M40.3171 18.2282C40.3171 19.3839 39.5798 20.5395 38.0721 21.4272C35.0733 23.1859 30.1856 23.1859 27.1619 21.4272C25.6542 20.5479 24.8921 19.3922 24.8838 18.2366C24.8838 13.9321 28.3383 10.4399 32.5963 10.4399C36.8543 10.4399 40.3088 13.9321 40.3088 18.2366" stroke="#0B4D5E" stroke-width="0.25" stroke-linecap="round" stroke-linejoin="round"/>
<path d="M40.3171 18.2282C40.3171 19.3839 39.5798 20.5395 38.0721 21.4272C35.0733 23.1859 30.1856 23.1859 27.1619 21.4272C25.6542 20.5479 24.8921 19.3922 24.8838 18.2366C24.8838 13.9321 28.3383 10.4399 32.5963 10.4399C36.8543 10.4399 40.3088 13.9321 40.3088 18.2366" fill="#8AE5CC"/>
<path d="M40.3171 18.2282C40.3171 19.3839 39.5798 20.5395 38.0721 21.4272C35.0733 23.1859 30.1856 23.1859 27.1619 21.4272C25.6542 20.5479 24.8921 19.3922 24.8838 18.2366C24.8838 13.9321 28.3383 10.4399 32.5963 10.4399C36.8543 10.4399 40.3088 13.9321 40.3088 18.2366" stroke="#0B4D5E" stroke-width="0.25" stroke-linecap="round" stroke-linejoin="round"/>
<path d="M30.7241 10.6661C27.369 11.5119 24.8838 14.5686 24.8838 18.2199C24.8921 19.3755 25.6542 20.5312 27.1619 21.4105C27.7832 21.7706 28.4957 22.0637 29.2412 22.2731C27.1702 18.8061 27.601 13.2957 30.7241 10.6577V10.6661Z" fill="#0B4D5E" stroke="#0B4D5E" stroke-width="0.25" stroke-linecap="round" stroke-linejoin="round"/>
<path d="M32.6047 14.1413C34.5034 14.1413 36.0426 13.279 36.0426 12.2152C36.0426 11.1514 34.5034 10.2891 32.6047 10.2891C30.706 10.2891 29.1667 11.1514 29.1667 12.2152C29.1667 13.279 30.706 14.1413 32.6047 14.1413Z" fill="#F0F4FF" stroke="#0B4D5E" stroke-width="0.25" stroke-linecap="round" stroke-linejoin="round"/>
<path d="M30.7739 11.8803C30.7739 12.1566 30.9562 12.4246 31.3124 12.634C32.0248 13.0527 33.1846 13.0527 33.897 12.634C34.2532 12.4246 34.4272 12.1482 34.4272 11.8719V9.28418H30.7656V11.8719L30.7739 11.8803Z" fill="#8AE5CC" stroke="#0B4D5E" stroke-width="0.25" stroke-linecap="round" stroke-linejoin="round"/>
<path d="M33.8888 8.48885C34.6012 8.90757 34.6095 9.5859 33.8971 10.0046C33.1846 10.4233 32.0248 10.4233 31.3124 10.0046C30.6 9.5859 30.5917 8.90757 31.3041 8.48885C32.0166 8.07012 33.1763 8.07012 33.8888 8.48885Z" fill="#F0F4FF" stroke="#0B4D5E" stroke-width="0.25" stroke-linecap="round" stroke-linejoin="round"/>
<path d="M31.9087 9.10043C31.9087 9.20093 31.975 9.30979 32.1158 9.38516C32.3892 9.54428 32.8282 9.54428 33.0933 9.38516C33.2259 9.30979 33.2921 9.20093 33.2921 9.10043V4.51123H31.9087V9.10043Z" fill="#8AE5CC" stroke="#0B4D5E" stroke-width="0.25" stroke-linecap="round" stroke-linejoin="round"/>
<path d="M33.0932 4.22627C33.3666 4.38538 33.3666 4.63662 33.0932 4.79573C32.8198 4.95485 32.3891 4.95485 32.1157 4.79573C31.8423 4.63662 31.8423 4.38538 32.1157 4.22627C32.3891 4.06715 32.8198 4.06715 33.0932 4.22627Z" fill="#F0F4FF" stroke="#0B4D5E" stroke-width="0.25" stroke-linecap="round" stroke-linejoin="round"/>
<path d="M26.4165 25.2208C25.7621 24.8356 25.2236 25.1538 25.2236 25.9075V28.0012C25.613 28.4869 26.1266 28.9558 26.8142 29.3578C27.0627 29.5002 27.3361 29.6091 27.6012 29.7347V27.3061C27.6095 26.544 27.071 25.6061 26.4165 25.2292V25.2208Z" fill="#F0F4FF" stroke="#0B4D5E" stroke-width="0.25" stroke-linecap="round" stroke-linejoin="round"/>
<path d="M38.8012 25.2209C38.1385 25.6061 37.6083 26.544 37.6166 27.2977V29.7012C37.8568 29.5923 38.1053 29.4918 38.3207 29.3662C39.058 28.9308 39.6047 28.4367 39.9941 27.9091V25.916C39.9941 25.1539 39.4556 24.844 38.8012 25.2209Z" fill="#F0F4FF" stroke="#0B4D5E" stroke-width="0.25" stroke-linecap="round" stroke-linejoin="round"/>
<path d="M32.5467 26.3765C31.6189 26.3765 30.8733 27.1385 30.8733 28.0681V30.6391C31.9834 30.7814 33.1183 30.7814 34.2284 30.6474V28.0681C34.2284 27.1302 33.4745 26.3765 32.555 26.3765H32.5467Z" fill="#F0F4FF" stroke="#0B4D5E" stroke-width="0.25" stroke-linecap="round" stroke-linejoin="round"/>
</g>
<defs>
<clipPath id="clip0_15036_610">
<rect width="50.8148" height="56" fill="white" transform="translate(6.59253 4)"/>
</clipPath>
</defs>
</svg>
