<svg width="64" height="64" viewBox="0 0 64 64" fill="none" xmlns="http://www.w3.org/2000/svg">
<mask id="mask0_15036_386" style="mask-type:alpha" maskUnits="userSpaceOnUse" x="0" y="0" width="64" height="64">
<rect width="64" height="64" fill="#D9D9D9"/>
</mask>
<g mask="url(#mask0_15036_386)">
<mask id="mask1_15036_386" style="mask-type:alpha" maskUnits="userSpaceOnUse" x="0" y="0" width="64" height="64">
<rect width="64" height="64" fill="#D9D9D9"/>
</mask>
<g mask="url(#mask1_15036_386)">
<path d="M42.3318 46.6401L43.5352 47.3318V6.4063L42.3318 5.7051L42.3318 46.6401Z" fill="#0B4D5E" stroke="#0B4D5E" stroke-width="0.25" stroke-linecap="round" stroke-linejoin="round"/>
<path d="M43.5354 47.3317L44.7388 46.621V4.98486L43.5354 5.67659L43.5354 47.3317Z" fill="#8AE5CC" stroke="#0B4D5E" stroke-width="0.25" stroke-linecap="round" stroke-linejoin="round"/>
<path d="M16.918 27.7266L25.3798 32.6634C26.0146 33.033 26.8011 33.033 27.4455 32.6634L36.3526 27.5181C36.7411 27.2907 36.7506 26.7222 36.3526 26.4948L27.8624 21.5579C27.2275 21.1884 26.441 21.1884 25.8062 21.5579L16.918 26.7032C16.5295 26.9306 16.52 27.4992 16.918 27.7266Z" fill="#8AE5CC"/>
<path d="M26.4127 33.0329C26.0336 33.0329 25.6641 32.9381 25.323 32.7391L16.8707 27.8023C16.6527 27.6791 16.5295 27.4612 16.5295 27.2148C16.5295 26.9684 16.6527 26.741 16.8707 26.6178L25.7589 21.4725C26.4222 21.084 27.2465 21.084 27.9098 21.4725L36.4 26.4094C36.6085 26.5325 36.7412 26.7505 36.7412 26.9969C36.7412 27.2432 36.618 27.4706 36.4 27.5938L27.4929 32.7391C27.1613 32.9286 26.7917 33.0234 26.4222 33.0234L26.4127 33.0329ZM26.8296 21.3778C26.4885 21.3778 26.1474 21.4631 25.8441 21.6431L16.9559 26.7884C16.7949 26.8831 16.7096 27.0442 16.7096 27.2243C16.7096 27.4043 16.8043 27.5654 16.9559 27.6507L25.4083 32.5875C26.0147 32.9381 26.7728 32.9381 27.3792 32.5875L36.2863 27.4422C36.4474 27.3475 36.5327 27.1864 36.5327 27.0063C36.5327 26.8263 36.4379 26.6652 36.2863 26.5799L27.7961 21.6431C27.4929 21.4631 27.1518 21.3778 26.8107 21.3778H26.8296Z" fill="#0B4D5E"/>
<path d="M27.436 59.5933L36.3432 54.448V27.5276L27.436 32.6729V59.5933Z" fill="#F0F4FF"/>
<path d="M27.3413 59.7544V32.6255L36.438 27.376V54.5048L27.3413 59.7544ZM27.5308 32.7203V59.4322L36.2579 54.3911V27.6792L27.5308 32.7203Z" fill="#0B4D5E"/>
<path d="M25.38 59.5931L16.9182 54.6657V27.7358L25.38 32.6727V59.6026V59.5931Z" fill="#0B4D5E"/>
<path d="M25.4651 59.7544L16.8232 54.7133V27.575L25.4651 32.616V59.7544ZM17.0128 54.6091L25.285 59.4322V32.7202L17.0128 27.8971V54.6091Z" fill="#0B4D5E"/>
<path d="M29.2458 56.7884L29.9944 56.362V33.3645L29.2458 33.7909V56.7979V56.7884Z" fill="#8AE5CC"/>
<path d="M31.6528 55.3765L32.3919 54.9406V31.9526L31.6528 32.379V55.367V55.3765Z" fill="#8AE5CC"/>
<path d="M34.0408 53.9835L34.7799 53.5571V30.5691L34.0408 30.9955V53.9835Z" fill="#8AE5CC"/>
<path d="M25.3799 32.6633C26.0148 33.0329 26.8012 33.0329 27.4456 32.6633V59.5932C26.8012 59.9628 26.0242 59.9628 25.3799 59.5932V32.6633Z" fill="#F0F4FF"/>
<path d="M26.4128 59.9627C26.0337 59.9627 25.6642 59.868 25.3325 59.669L25.2852 59.6405V32.5022L25.4273 32.578C26.0243 32.9286 26.7823 32.9381 27.3982 32.578L27.5404 32.5022V59.6405L27.493 59.669C27.1613 59.8585 26.7918 59.9532 26.4222 59.9532L26.4128 59.9627ZM25.4652 59.5363C26.0432 59.8585 26.7539 59.8585 27.3414 59.5363V32.8149C26.7444 33.0992 26.0527 33.0992 25.4652 32.8149V59.5363Z" fill="#0B4D5E"/>
<path d="M36.6465 26.9685C36.6655 27.1864 36.5707 27.4044 36.3528 27.5276V54.4575C36.5518 54.3343 36.656 54.1258 36.6465 53.9173V26.9685Z" fill="#F0F4FF"/>
<path d="M36.258 54.609V27.4612L36.3054 27.4328C36.4475 27.3475 36.5328 27.2148 36.5518 27.0537V26.959H36.7318C36.7318 26.959 36.7318 27.0253 36.7318 27.0632V53.8983C36.7413 54.1447 36.6181 54.3816 36.3907 54.5143L36.2485 54.5995L36.258 54.609ZM36.438 27.5749V54.2489C36.5139 54.1542 36.5518 54.0405 36.5518 53.9173V27.4801C36.5518 27.4801 36.4854 27.5465 36.438 27.5749Z" fill="#0B4D5E"/>
<path d="M16.6149 27.1675C16.6054 27.3854 16.7002 27.6034 16.9181 27.7265V54.6564C16.7097 54.5332 16.6149 54.3248 16.6149 54.1163V27.1675Z" fill="#0B4D5E"/>
<path d="M17.0128 54.8175L16.8707 54.7322C16.6433 54.5996 16.5201 54.3722 16.5296 54.1163V27.2433C16.5296 27.2433 16.5296 27.1959 16.5296 27.1675H16.7096V27.2433C16.7191 27.4138 16.8138 27.5655 16.9654 27.6507L17.0128 27.6792V54.8175ZM16.7096 27.6792V54.1163C16.7096 54.249 16.7475 54.3627 16.8233 54.4574V27.7739C16.8233 27.7739 16.738 27.7076 16.7096 27.6697V27.6792Z" fill="#0B4D5E"/>
<path d="M15.3926 49.2551L16.6149 48.4876V46.8767L15.3926 47.5779V49.2456V49.2551Z" fill="#F0F4FF"/>
<path d="M15.2979 49.4162V47.5305L16.7097 46.7251V48.5444L15.2979 49.4257V49.4162ZM15.4779 47.6348V49.0845L16.5202 48.4307V47.0283L15.4779 47.6253V47.6348Z" fill="#0B4D5E"/>
<path d="M13.3457 48.1846V54.3627L25.7588 61.6211V55.424L13.3457 48.1846Z" fill="#0B4D5E"/>
<path d="M25.8536 61.7916L25.7115 61.7158L13.2415 54.4195V48.0234L13.3931 48.0992L25.8536 55.3671V61.7727V61.7916ZM13.431 54.3153L25.6735 61.4694V55.4903L13.4404 48.3456V54.3153H13.431Z" fill="#0B4D5E"/>
<path d="M32.2498 52.8845L30.6484 51.9274L27.1613 53.9931C26.9055 54.1448 26.5928 54.1448 26.3369 53.9931L15.4967 47.6634L16.6149 47.019V45.3513L13.3268 47.2559C12.9762 47.4644 12.9667 47.9761 13.3268 48.1845L25.8158 55.4713C26.4317 55.8314 27.1897 55.8314 27.8057 55.4713L28.3363 55.1681L32.2687 52.894L32.2498 52.8845Z" fill="#8AE5CC"/>
<path d="M26.7918 55.8124C26.4317 55.8124 26.0716 55.7176 25.7494 55.5281L13.27 48.2508C13.0805 48.1371 12.9573 47.9381 12.9573 47.7107C12.9573 47.4833 13.071 47.2843 13.27 47.1611L16.7002 45.1807V47.0663L15.6768 47.6633L26.3748 53.9172C26.6023 54.0499 26.8771 54.0499 27.1045 53.9172L30.6389 51.8231L32.4203 52.8844L27.8246 55.5376C27.5024 55.7271 27.1424 55.8124 26.7823 55.8124H26.7918ZM16.5201 45.5028L13.3647 47.3222C13.2226 47.4075 13.1373 47.5496 13.1373 47.7107C13.1373 47.8718 13.2226 48.0044 13.3553 48.0897L25.8347 55.3765C26.4127 55.7176 27.1424 55.7176 27.7299 55.3765L32.0602 52.8749L30.6484 52.0316L27.2087 54.0689C26.9244 54.2299 26.5738 54.2299 26.2896 54.0689L15.3167 47.6538L16.5201 46.9526V45.4934V45.5028Z" fill="#0B4D5E"/>
<path d="M36.6465 45.0291V46.7915L37.6604 47.3695C37.8689 47.4927 37.8689 47.7865 37.6604 47.9097L34.0786 49.9848L35.6895 50.9135L40.4273 48.175C40.7779 47.9665 40.7779 47.4548 40.4273 47.2464L36.656 45.0291H36.6465Z" fill="#8AE5CC"/>
<path d="M35.6801 51.0176L33.8892 49.9848L37.6131 47.8338C37.6794 47.7959 37.7268 47.7201 37.7268 47.6443C37.7268 47.5685 37.6889 47.4927 37.6131 47.4548L36.5613 46.8483V44.8679L40.4653 47.1705C40.6548 47.2842 40.778 47.4832 40.778 47.7106C40.778 47.938 40.6643 48.137 40.4653 48.2602L35.6801 51.0271V51.0176ZM34.2587 49.9848L35.6801 50.7997L40.3705 48.0897C40.5032 48.0044 40.5885 47.8622 40.5885 47.7011C40.5885 47.5401 40.5032 47.3979 40.3705 47.3221L36.7319 45.1806V46.7252L37.6984 47.2842C37.8216 47.36 37.8974 47.4927 37.8974 47.6348C37.8974 47.777 37.8216 47.9096 37.6984 47.9854L34.2492 49.9848H34.2587Z" fill="#0B4D5E"/>
<path d="M35.68 57.0726L34.0691 56.144V49.9753L35.68 50.9134V57.0726Z" fill="#0B4D5E"/>
<path d="M35.7748 57.2337L33.9839 56.2009V49.8237L35.7748 50.8661V57.2337ZM34.1639 56.0966L35.5853 56.9115V50.9703L34.1639 50.1459V56.0966Z" fill="#0B4D5E"/>
<path d="M36.6655 48.4971L37.6699 47.9191C37.8689 47.8054 37.8784 47.5022 37.6699 47.3885L36.6655 46.7915V48.4971Z" fill="#0B4D5E"/>
<path d="M36.5706 48.6582V46.6304L37.7171 47.3031C37.8403 47.3695 37.9161 47.5021 37.9161 47.6443C37.9161 47.7864 37.8403 47.9285 37.7171 47.9949L36.58 48.6582H36.5706ZM36.7506 46.9525V48.336L37.6129 47.8338C37.6792 47.7959 37.7266 47.7201 37.7171 47.6443C37.7171 47.5685 37.6792 47.5021 37.6129 47.4642L36.7506 46.9525Z" fill="#0B4D5E"/>
<path d="M27.8152 61.6303L32.2593 59.0624V52.8843L27.8247 55.4427V61.6303H27.8152Z" fill="#F0F4FF"/>
<path d="M27.7297 61.7914V55.3953L27.7771 55.3669L32.3539 52.7327V59.1193L27.7297 61.8009V61.7914ZM27.9192 55.4996V61.4787L32.1738 59.015V53.0548L27.9192 55.509V55.4996Z" fill="#0B4D5E"/>
<path d="M40.3893 48.1846L35.6799 50.9041V57.0633L40.3893 54.3438V48.1846Z" fill="#F0F4FF"/>
<path d="M35.5852 57.2243V50.8567L40.4841 48.0234V54.4006L35.5852 57.2243ZM35.7747 50.9704V56.9116L40.3041 54.2963V48.3456L35.7747 50.9609V50.9704Z" fill="#0B4D5E"/>
<path d="M25.759 55.4428C26.3939 55.8124 27.1804 55.8124 27.8247 55.4428V61.621C27.1804 61.9905 26.4034 61.9905 25.759 61.621V55.4333V55.4428Z" fill="#F0F4FF"/>
<path d="M26.7917 62C26.4221 62 26.0431 61.9053 25.7114 61.7158L25.6641 61.6873V55.2913L25.8062 55.3671C26.4126 55.7177 27.1612 55.7271 27.7771 55.3671L27.9193 55.2913V61.6873L27.8719 61.7158C27.5402 61.9053 27.1707 62 26.7917 62ZM25.8536 61.5736C26.4411 61.8863 27.1517 61.8863 27.7298 61.5736V55.5945C27.1328 55.8788 26.4411 55.8788 25.8536 55.5945V61.5736Z" fill="#0B4D5E"/>
<path d="M40.6927 47.6348C40.7021 47.8432 40.6074 48.0706 40.3989 48.1938V54.372C40.5979 54.2583 40.7021 54.0498 40.6927 53.8413V47.6442V47.6348Z" fill="#F0F4FF"/>
<path d="M40.3042 54.5236V48.137L40.3515 48.1085C40.4937 48.0233 40.5884 47.8622 40.5979 47.7011V47.6348H40.7779C40.7779 47.6348 40.7779 47.6821 40.7779 47.7011V53.8319C40.7779 54.0877 40.6548 54.3151 40.4368 54.4478L40.2947 54.5236H40.3042ZM40.4842 48.2412V54.173C40.56 54.0782 40.5979 53.9645 40.5979 53.8413V48.1465C40.5979 48.1465 40.5316 48.2128 40.4842 48.2412Z" fill="#0B4D5E"/>
<path d="M13.0519 47.6348C13.0424 47.8527 13.1372 48.0706 13.3457 48.1938V54.372C13.1467 54.2583 13.0424 54.0498 13.0519 53.8413V47.6348Z" fill="#0B4D5E"/>
<path d="M13.4405 54.5331L13.2984 54.4573C13.0804 54.3341 12.9478 54.0972 12.9573 53.8413V47.7106C12.9573 47.7106 12.9573 47.6537 12.9573 47.6348H13.1373V47.7106C13.1468 47.8811 13.2415 48.0422 13.3837 48.1275L13.431 48.1559V54.5425L13.4405 54.5331ZM13.1468 48.1465V53.8319C13.1468 53.955 13.1847 54.0782 13.2605 54.1635V48.2317C13.2605 48.2317 13.1847 48.1749 13.1468 48.137V48.1465Z" fill="#0B4D5E"/>
<path d="M29.1249 21.629L27.0693 20.4342L31.0082 18.166L33.0638 19.3507L29.1249 21.629Z" fill="#F0F4FF" stroke="#0B4D5E" stroke-width="0.25" stroke-linecap="round" stroke-linejoin="round"/>
<path d="M24.7406 31.1471L22.6851 29.9523L23.89 24.9502L25.9455 26.1349L24.7406 31.1471Z" fill="#0B4D5E" stroke="#0B4D5E" stroke-width="0.25" stroke-linecap="round" stroke-linejoin="round"/>
<path d="M26.6846 23.0364L24.6392 21.8416L25.8441 16.8293L27.8895 18.0242L26.6846 23.0364Z" fill="#0B4D5E" stroke="#0B4D5E" stroke-width="0.25" stroke-linecap="round" stroke-linejoin="round"/>
<path d="M33.0638 19.3506L29.8843 23.8667L31.1096 27.4613L27.92 26.6513L24.7405 31.1471L25.9454 26.1349L22.7356 25.3147L26.6846 23.0364L27.8896 18.0242L29.1249 21.6289L33.0638 19.3506Z" fill="#F0F4FF" stroke="#0B4D5E" stroke-width="0.25" stroke-linecap="round" stroke-linejoin="round"/>
<path d="M22.7356 25.3147L20.6902 24.1198L24.6392 21.8416L26.6846 23.0364L22.7356 25.3147Z" fill="#F0F4FF" stroke="#0B4D5E" stroke-width="0.25" stroke-linecap="round" stroke-linejoin="round"/>
<path d="M40.1904 5.55337L41.2517 6.16929L47.5436 2.61591L46.4823 1.99999L40.1999 5.54389L40.1904 5.55337Z" fill="#F0F4FF" stroke="#0B4D5E" stroke-width="0.25" stroke-linecap="round" stroke-linejoin="round"/>
<path d="M41.1284 6.24518V8.73728L47.5435 5.07964V2.61597L41.1284 6.24518Z" fill="#8AE5CC" stroke="#0B4D5E" stroke-width="0.25" stroke-linecap="round" stroke-linejoin="round"/>
<path d="M39.7451 7.12629V10.765L41.7066 9.6184V5.97974L39.7451 7.12629Z" fill="#8AE5CC" stroke="#0B4D5E" stroke-width="0.25" stroke-linecap="round" stroke-linejoin="round"/>
<path d="M37.6794 5.91357V9.55224L39.7451 10.7651V7.12646L37.6794 5.91357Z" fill="#0B4D5E" stroke="#0B4D5E" stroke-width="0.25" stroke-linecap="round" stroke-linejoin="round"/>
<path d="M37.6794 5.9134L39.7451 7.12629L41.7066 5.97973L39.6314 4.76685L37.6794 5.9134Z" fill="#F0F4FF" stroke="#0B4D5E" stroke-width="0.25" stroke-linecap="round" stroke-linejoin="round"/>
<path d="M26.716 13.2476C26.4696 13.0866 26.1096 13.096 25.7116 13.3329C24.9535 13.7688 24.3281 14.8396 24.3281 15.7208C24.3281 16.1756 24.4892 16.4883 24.7545 16.6305L25.1336 16.8295C24.8777 16.6873 24.7261 16.3746 24.7261 15.9387C24.7261 15.0575 25.342 13.9867 26.1096 13.5509C26.4791 13.3329 26.8202 13.314 27.0666 13.4466L26.7255 13.2666L26.716 13.2476Z" fill="#0B4D5E" stroke="#0B4D5E" stroke-width="0.25" stroke-linecap="round" stroke-linejoin="round"/>
<path d="M27.057 13.4276C26.8107 13.2949 26.4696 13.3234 26.1 13.5318C25.3419 13.9677 24.7166 15.0385 24.7166 15.9197C24.7166 16.365 24.8776 16.6777 25.124 16.8104C25.3704 16.9525 25.7115 16.9241 26.0905 16.7062C26.8486 16.2703 27.474 15.1995 27.474 14.3183C27.474 13.8635 27.3129 13.5508 27.0476 13.4181L27.057 13.4276Z" fill="#0B4D5E" stroke="#0B4D5E" stroke-width="0.25" stroke-linecap="round" stroke-linejoin="round"/>
<path d="M27.9478 13.9488L26.4412 15.844V17.3032L39.2333 9.81744V7.35376L27.9478 13.9394V13.9488Z" fill="#8AE5CC" stroke="#0B4D5E" stroke-width="0.25" stroke-linecap="round" stroke-linejoin="round"/>
<path d="M38.1721 6.74731L27.5688 12.9444C27.114 13.2097 26.7255 13.5414 26.3938 13.9583L25.8727 14.6216C25.56 15.0101 25.3894 15.5028 25.3894 16.0051C25.3894 16.4315 25.6073 16.82 25.9769 17.0379L26.4507 17.3222V16.9526C26.4507 16.2419 26.6876 15.5597 27.1235 15.0101L27.5783 14.4321C27.8247 14.1194 28.1279 13.8635 28.469 13.6646L39.2334 7.37271L38.1721 6.75679V6.74731Z" fill="#F0F4FF" stroke="#0B4D5E" stroke-width="0.25" stroke-linecap="round" stroke-linejoin="round"/>
<path d="M28.2132 14.072C27.9669 13.9109 27.6068 13.9203 27.2088 14.1478C26.4507 14.5836 25.8253 15.6544 25.8348 16.5356C25.8348 16.9905 25.9959 17.3032 26.2612 17.4453L26.6403 17.6443C26.3844 17.5021 26.2328 17.1894 26.2328 16.7536C26.2328 15.8723 26.8487 14.8111 27.6163 14.3657C27.9858 14.1478 28.3175 14.1288 28.5733 14.2615L28.2322 14.0814L28.2132 14.072Z" fill="#0B4D5E" stroke="#0B4D5E" stroke-width="0.25" stroke-linecap="round" stroke-linejoin="round"/>
<path d="M27.7204 15.5976C27.5214 15.7113 27.3508 15.9955 27.3508 16.2324C27.3508 16.3461 27.3887 16.4314 27.4551 16.4693C27.5214 16.5072 27.6067 16.4977 27.7109 16.4409C27.9099 16.3272 28.071 16.0429 28.071 15.806C28.071 15.6828 28.0236 15.607 27.9573 15.5691C27.8909 15.5312 27.8057 15.5407 27.7109 15.5976H27.7204Z" fill="#0B4D5E" stroke="#0B4D5E" stroke-width="0.25" stroke-linecap="round" stroke-linejoin="round"/>
<path d="M28.5544 14.252C28.308 14.1194 27.9763 14.1478 27.5973 14.3563C26.8393 14.7922 26.2139 15.8629 26.2139 16.7441C26.2139 17.1895 26.375 17.5022 26.6213 17.6349C26.8677 17.777 27.2088 17.7486 27.5878 17.5306C28.3459 17.0947 28.9618 16.024 28.9618 15.1428C28.9618 14.6879 28.8007 14.3752 28.5354 14.2426L28.5544 14.252Z" fill="#F0F4FF" stroke="#0B4D5E" stroke-width="0.25" stroke-linecap="round" stroke-linejoin="round"/>
</g>
</g>
</svg>
