<svg width="64" height="64" viewBox="0 0 64 64" fill="none" xmlns="http://www.w3.org/2000/svg">
<path d="M38.3146 37.2187L20.7538 4.95489C20.2615 4.06343 18.9726 4.10731 18.543 5.02832L6.42412 31.3615C6.20036 31.8502 6.21825 32.414 6.46886 32.8884L11.7854 42.8619L38.3146 37.2187Z" fill="#F0F4FF"/>
<path d="M11.6666 43.1206L6.26949 32.9958C5.98666 32.4606 5.96696 31.8153 6.21847 31.2666L18.3374 4.93343C18.5728 4.42863 19.0633 4.10373 19.6173 4.08493C20.1633 4.06614 20.6842 4.35795 20.9536 4.84575L38.6603 37.378L11.6666 43.1206ZM19.6692 4.53874C19.6567 4.53874 19.6451 4.53874 19.6325 4.53874C19.2441 4.55216 18.9138 4.77055 18.75 5.12409L6.63108 31.4555C6.43865 31.8761 6.45387 32.3711 6.67047 32.781L11.9065 42.6033L37.9702 37.0584L20.5553 5.06236C20.3727 4.73209 20.0434 4.53693 19.6702 4.53693L19.6692 4.53874Z" fill="#0B4D5E"/>
<path d="M35.2893 31.6497L20.7179 4.90213C20.4494 4.41164 19.7334 4.43492 19.5007 4.94151L7.158 31.5718C7.11325 31.6712 7.18483 31.7839 7.30119 31.783L35.2893 31.6497Z" fill="#8AE5CC"/>
<path d="M7.30049 32.0104C7.16892 32.0104 7.04894 31.9459 6.97823 31.8376C6.90842 31.7293 6.89858 31.5951 6.95228 31.4779L19.2959 4.84664C19.4391 4.53516 19.7425 4.33378 20.0871 4.32214C20.4505 4.31677 20.7521 4.49039 20.9186 4.79381L35.6725 31.8761L7.30404 32.0113H7.30136L7.30049 32.0104ZM20.1193 4.77502C20.1139 4.77502 20.1077 4.77502 20.1014 4.77502C19.9278 4.78128 19.7801 4.87884 19.7076 5.03637L7.41685 31.5557L34.9082 31.425L20.5194 5.01135C20.438 4.86277 20.2894 4.77502 20.1202 4.77502H20.1193Z" fill="#0B4D5E"/>
<path d="M28.7378 31.706L33.4547 21.4471C33.6427 21.0335 33.6248 20.5547 33.401 20.1582L24.0209 3.54166C23.7793 3.10488 23.1438 3.12546 22.9379 3.57657L9.78972 31.5915C9.75392 31.6801 9.81653 31.7803 9.91499 31.7803L28.7378 31.706Z" fill="#0B4D5E"/>
<path d="M9.91593 32.0086C9.7942 32.0086 9.68139 31.9495 9.61427 31.8493C9.54624 31.7482 9.53284 31.6201 9.57848 31.5074L22.7321 3.48169C22.8609 3.19885 23.1366 3.01359 23.4517 3.00106C23.7766 2.98495 24.0657 3.15414 24.2187 3.43339L33.5979 20.0481C33.8557 20.5046 33.879 21.0631 33.6615 21.5428L28.8828 31.9352L9.91593 32.0095V32.0086ZM23.4875 3.45399H23.4705C23.3264 3.45936 23.2047 3.54079 23.1456 3.67147L10.0591 31.553L28.5919 31.4796L33.2489 21.3522C33.4064 21.0049 33.3894 20.6003 33.2023 20.2701L23.8231 3.65448C23.7524 3.52738 23.6289 3.45399 23.4875 3.45399Z" fill="#0B4D5E"/>
<path d="M29.1851 31.7097L33.9109 21.4507C34.0989 21.0371 34.081 20.5583 33.8572 20.1618L24.4682 3.54526C24.2355 3.10848 23.6 3.12906 23.3852 3.58017L10.2459 31.5951C10.2011 31.6837 10.2727 31.7839 10.3622 31.7839L29.1851 31.7097Z" fill="#8AE5CC"/>
<path d="M10.3634 32.0112C10.2398 32.0112 10.1226 31.945 10.0582 31.8385C9.99281 31.732 9.98654 31.6031 10.042 31.493L23.1795 3.48346C23.3164 3.19346 23.6011 3.01001 23.9197 3.00195C24.2607 3.00464 24.5221 3.16127 24.6689 3.43784L34.0543 20.0499C34.3121 20.5055 34.3345 21.064 34.117 21.5446L29.3294 31.9361L10.3624 32.0104L10.3634 32.0112ZM10.4528 31.6882L10.451 31.6917C10.451 31.6917 10.4528 31.6891 10.4528 31.6882ZM23.9403 3.45751H23.9304C23.7819 3.46109 23.6539 3.54344 23.5904 3.67859L10.5146 31.5575L29.0385 31.4841L33.7044 21.3566C33.8619 21.0093 33.8449 20.6048 33.6596 20.2754L24.2706 3.65887C24.2025 3.53088 24.0799 3.45751 23.9403 3.45751Z" fill="#0B4D5E"/>
<path d="M28.138 14.9759L26.4105 18.8442C26.321 19.0465 26.0435 19.06 25.9361 18.8666L24.0744 15.5541C23.9402 15.3196 23.9312 15.0349 24.0476 14.7906L25.7929 11.0332C25.8825 10.8345 26.1688 10.8229 26.2763 11.0135L28.1021 14.2195C28.2364 14.4514 28.2454 14.7315 28.138 14.9759Z" fill="#0B4D5E"/>
<path d="M26.1679 19.2318C25.9889 19.2318 25.826 19.1361 25.7383 18.9776L23.8766 15.6659C23.7083 15.3706 23.695 15.0063 23.8426 14.6939L25.5871 10.9383C25.6631 10.7701 25.8296 10.659 26.0185 10.651C26.1921 10.6474 26.3828 10.7396 26.4749 10.9034L28.2999 14.1086C28.4673 14.395 28.4843 14.7548 28.3465 15.068L26.6191 18.9382C26.5439 19.1101 26.3792 19.2229 26.1912 19.2318C26.1831 19.2318 26.1751 19.2318 26.1689 19.2318H26.1679ZM26.0784 11.1263L25.9988 11.1289L24.2534 14.8863C24.1684 15.0662 24.1756 15.273 24.2722 15.4413L26.1348 18.7556L26.2038 18.7521L27.9303 14.8846C28.01 14.7029 28.001 14.497 27.9061 14.3341L26.0784 11.1263Z" fill="#0B4D5E"/>
<path d="M33.6961 28.8124L22.8034 52.864L12.2687 31.2066C12.0897 30.8468 12.0897 30.4288 12.2597 30.0663L21.3355 10.4182C21.6667 9.7031 22.6691 9.65835 23.063 10.3413L33.6961 28.8124Z" fill="#F0F4FF"/>
<path d="M22.8108 53.3993L12.0649 31.306C11.8573 30.888 11.8528 30.4011 12.0533 29.9706L21.13 10.3235C21.3188 9.91442 21.7162 9.64859 22.1664 9.6289C22.6336 9.60474 23.0364 9.83924 23.2602 10.2277L33.9515 28.7999L22.8108 53.3993ZM22.2219 10.0818C22.2094 10.0818 22.1986 10.0818 22.1861 10.0818C21.9024 10.0943 21.6607 10.2554 21.5417 10.5132L12.465 30.1613C12.3227 30.4665 12.3254 30.8101 12.4721 31.1046L22.7957 52.328L33.4404 28.8232L22.8663 10.4532C22.7312 10.2178 22.4913 10.08 22.2219 10.08V10.0818Z" fill="#0B4D5E"/>
<path d="M33.41 30.4181L23.0275 53.3429L12.9851 32.6996C12.815 32.3577 12.815 31.9585 12.9672 31.613L22.3831 11.2606L33.41 30.4181Z" fill="#0B4D5E"/>
<path d="M23.0346 53.8782L12.7809 32.7998C12.584 32.4042 12.5759 31.9379 12.7603 31.5217L22.3624 10.7674L33.6668 30.4065L23.0346 53.8782ZM22.4053 11.7546L13.1747 31.7088C13.0468 31.997 13.0512 32.3227 13.1899 32.5984L23.0211 52.8086L33.1557 30.4306L22.4053 11.7546Z" fill="#0B4D5E"/>
<path d="M56.7797 40.3853L25.1935 53.4924C24.2179 53.8942 23.0991 53.4718 22.6426 52.5284L12.1348 30.931C12.4212 31.5217 13.1193 31.7866 13.7279 31.5351L45.9227 18.2535C46.9073 17.8472 48.035 18.2884 48.4826 19.2524L57.4598 38.6444C57.7731 39.3121 57.4599 40.1025 56.7797 40.3853Z" fill="#F0F4FF"/>
<path d="M24.4308 53.871C23.6046 53.871 22.8161 53.4091 22.4375 52.6268L11.9315 31.0339C11.9315 31.0339 11.9315 31.0312 11.9297 31.0303L12.3387 30.8316V30.8342C12.5759 31.3149 13.1487 31.5297 13.641 31.3248L45.8358 18.0432C46.9331 17.5912 48.1889 18.0781 48.6892 19.1566L57.6656 38.5496C57.842 38.9246 57.8571 39.3462 57.7068 39.7346C57.5546 40.1275 57.2566 40.4327 56.8672 40.5948L25.2811 53.7018C25.0027 53.8163 24.7154 53.87 24.4316 53.87L24.4308 53.871ZM12.8033 31.7866L22.8475 52.4282C23.2511 53.2632 24.241 53.6382 25.1065 53.282L56.6918 40.175C56.9666 40.0613 57.176 39.8465 57.2825 39.5699C57.3872 39.2978 57.3765 39.0033 57.2539 38.7402L48.2766 19.3472C47.8792 18.4907 46.883 18.1005 46.0094 18.463L13.8146 31.7445C13.4826 31.8815 13.1255 31.8886 12.8033 31.7866Z" fill="#0B4D5E"/>
<path d="M22.5174 52.2671L12.9136 32.5411L13.0568 32.8356C13.2716 33.2616 13.7817 33.4505 14.2203 33.2688L46.621 19.9398C46.6389 19.9317 46.6568 19.9272 46.6836 19.9272C46.6926 19.9272 46.7821 19.9299 46.8269 20.0177L55.5714 38.9112L24.4865 51.807C24.4686 51.8159 23.4035 52.336 22.5174 52.2671Z" fill="#0B4D5E"/>
<path d="M46.3969 23.2953C47.7663 23.2953 48.8851 22.1801 48.8851 20.8053C48.8851 19.4305 47.7663 18.3152 46.3969 18.3152C45.0275 18.3152 43.9087 19.4305 43.9087 20.8053C43.9087 22.1801 45.0275 23.2953 46.3969 23.2953Z" fill="#F0F4FF"/>
<path d="M22.2757 14.1927C22.9918 14.1927 23.5736 13.2493 23.5736 12.0858C23.5736 10.9222 22.9918 9.97882 22.2757 9.97882C21.5507 9.97882 20.969 10.9222 20.969 12.0858C20.969 13.2493 21.5507 14.1927 22.2757 14.1927Z" fill="#F0F4FF"/>
<path d="M54.1302 40.9241C55.4907 40.9241 56.6006 39.8134 56.6006 38.444C56.6006 37.0745 55.4907 35.9629 54.1302 35.9629C52.7608 35.9629 51.6599 37.0736 51.6599 38.444C51.6599 39.8143 52.7608 40.9241 54.1302 40.9241Z" fill="#F0F4FF"/>
<path d="M23.1527 18.2078L21.8906 21.0299C21.6848 21.4989 21.0135 21.4945 20.8166 21.0219L20.7808 20.9511C20.5928 20.5036 20.6018 19.9953 20.8077 19.554L22.0786 16.8098C22.2934 16.3506 22.9468 16.3578 23.1527 16.8214C23.3496 17.2636 23.3496 17.7675 23.1527 18.2078Z" fill="#F0F4FF"/>
<path d="M21.3555 21.6063H21.3465C21.0162 21.6028 20.7325 21.413 20.6072 21.1096L20.5785 21.0541C20.3583 20.5323 20.37 19.9559 20.6018 19.4583L21.8728 16.7149C22.0088 16.4232 22.2926 16.2432 22.6121 16.2432H22.6211C22.9451 16.2468 23.2288 16.433 23.3604 16.7301C23.5832 17.2305 23.5832 17.8033 23.3604 18.3019L22.0992 21.123C21.9686 21.4211 21.6839 21.6073 21.3563 21.6073L21.3555 21.6063ZM22.6121 16.697C22.4689 16.697 22.3463 16.7749 22.2854 16.9065L21.0144 19.6498C20.8363 20.032 20.8273 20.4742 20.9911 20.8635L21.0198 20.9189C21.0825 21.0684 21.2042 21.1499 21.351 21.1517H21.3555C21.5023 21.1517 21.6248 21.072 21.683 20.9387L22.9451 18.1148C23.1151 17.7344 23.1151 17.2958 22.9451 16.9136C22.8851 16.7794 22.7625 16.6979 22.6166 16.6962L22.6121 16.697Z" fill="#0B4D5E"/>
<path d="M47.4444 49.9784L51.9017 58.3579C52.4835 59.4525 51.6869 60.7709 50.4428 60.7709H22.4547C21.8013 60.7709 21.2106 60.4129 20.8973 59.8409L6.20068 32.3917L6.20964 32.4015C6.46026 32.8696 6.95252 33.1605 7.48059 33.1578L35.1107 33.0182C37.1514 33.0182 39.031 34.1459 39.9887 35.9504L44.3118 44.0774C46.3256 44.5983 48.241 42.1853 48.7243 41.7512C49.5299 41.0271 50.5591 40.7308 51.481 41.0656C52.9489 41.5999 53.5934 43.5448 52.9042 45.4101C52.752 45.8397 52.5372 46.2273 52.2866 46.5638C51.4363 47.6862 48.6706 49.7699 47.4444 49.9784Z" fill="#8AE5CC"/>
<path d="M50.4426 60.9983H22.4545C21.725 60.9983 21.0511 60.5964 20.6975 59.9501L6 32.4991L6.37142 32.2431L6.40901 32.295C6.61935 32.6879 7.02571 32.9314 7.47144 32.9314H7.4786L35.1096 32.7917C37.2434 32.7917 39.1901 33.9616 40.1898 35.8448L44.4637 43.8805C46.0318 44.2045 47.6026 42.5791 48.2793 41.8774C48.4037 41.7485 48.5021 41.6465 48.5719 41.5829C49.4723 40.7738 50.5885 40.5008 51.5587 40.8534C52.2121 41.0915 52.75 41.6044 53.0714 42.2989C53.5046 43.2334 53.5215 44.3969 53.117 45.4906C52.9657 45.9185 52.7473 46.3267 52.469 46.7008C51.6983 47.7176 49.1958 49.6786 47.7807 50.1297L52.1029 58.2531C52.4126 58.8367 52.3938 59.5232 52.0537 60.0906C51.7109 60.6599 51.1085 61 50.4417 61L50.4426 60.9983ZM6.94427 33.2993L21.0967 59.7335C21.3697 60.233 21.8906 60.5436 22.4545 60.5436H50.4426C50.9474 60.5436 51.4048 60.2858 51.6643 59.8544C51.9221 59.4256 51.9364 58.9056 51.701 58.4644L47.0951 49.8074L47.4057 49.7547C48.5415 49.5613 51.2571 47.5466 52.1056 46.4269C52.3553 46.0903 52.5522 45.7225 52.6892 45.335C53.0526 44.3513 53.0418 43.3148 52.6587 42.4887C52.384 41.8971 51.9499 41.4791 51.403 41.2795C50.5965 40.9868 49.6496 41.2258 48.8763 41.9203C48.8118 41.9776 48.7205 42.0725 48.6068 42.1915C47.8613 42.9657 46.1204 44.7782 44.2551 44.2985L44.1585 44.2734L39.788 36.0578C38.8679 34.3232 37.076 33.2464 35.1105 33.2464L7.48127 33.3861H7.47144C7.28974 33.3861 7.11164 33.3556 6.94427 33.2993Z" fill="#0B4D5E"/>
<path d="M35.6834 31.6488C37.7241 31.6488 39.6038 32.7765 40.5614 34.58L45.6095 44.0478C45.1888 44.1642 44.7503 44.1911 44.3117 44.0765L39.9886 35.9486C39.0309 34.1451 37.1513 33.0173 35.1106 33.0173L35.6834 31.6488Z" fill="#F0F4FF"/>
<path d="M44.8906 44.3772C44.6732 44.3772 44.461 44.3504 44.2543 44.2967L44.1585 44.2716L39.788 36.0551C38.8679 34.3214 37.0751 33.2447 35.1105 33.2447H34.7686L35.5321 31.4214H35.6833C37.8171 31.4214 39.7638 32.5913 40.7627 34.4736L45.9441 44.1911L45.6711 44.2662C45.4053 44.3405 45.1448 44.3772 44.8906 44.3772ZM44.4637 43.8796C44.7206 43.9333 44.9891 43.9368 45.2684 43.8912L40.3608 34.6875C39.464 32.9976 37.7392 31.9316 35.8328 31.8788L35.447 32.7998C37.4456 32.9162 39.2411 34.0591 40.189 35.8421L44.4628 43.8787L44.4637 43.8796Z" fill="#0B4D5E"/>
<path d="M48.5363 49.5461C48.1156 49.7717 47.7397 49.9292 47.4443 49.9784L51.8927 58.3587C52.1254 58.7982 52.1433 59.2744 51.9911 59.687L52.564 58.6246C52.8235 58.1511 52.8235 57.5818 52.5729 57.1075L48.5363 49.5461Z" fill="#F0F4FF"/>
<path d="M52.1916 59.7953L51.7781 59.6091C51.915 59.2359 51.8846 58.8304 51.6913 58.4661L47.0952 49.8075L47.4067 49.7556C47.6564 49.7135 48.001 49.5766 48.4288 49.3466L48.6302 49.2382L52.7743 57.001C53.0634 57.5488 53.0589 58.1958 52.7635 58.7346L52.1916 59.7953ZM47.7817 50.1288L52.0931 58.2523C52.1701 58.3973 52.2265 58.5476 52.2641 58.6998L52.3626 58.5163C52.5854 58.1108 52.5881 57.6239 52.3715 57.2131L48.4405 49.8505C48.1925 49.9749 47.9741 50.067 47.7808 50.1279L47.7817 50.1288Z" fill="#0B4D5E"/>
<path d="M52.3847 44.9492C52.8949 43.5538 52.4653 42.1172 51.427 41.7404C50.3888 41.3627 49.1357 42.1879 48.6255 43.5833C48.1153 44.9787 48.545 46.4153 49.5832 46.7921C50.6215 47.1698 51.8745 46.3445 52.3847 44.9492Z" fill="#0B4D5E"/>
<path d="M52.2148 45.3322C52.2774 45.2078 52.3401 45.0825 52.3848 44.9465C52.5012 44.6377 52.5639 44.328 52.5818 44.0273L49.6639 42.1235C49.3417 42.375 49.0553 42.7124 48.8315 43.126L52.2148 45.3322Z" fill="#F0F4FF"/>
<path d="M52.0001 45.6966L48.6527 43.5153C48.6437 43.5386 48.6347 43.5592 48.6258 43.5833C48.5542 43.7785 48.5094 43.9736 48.4736 44.1678L51.5884 46.2023C51.7405 46.0555 51.8748 45.8827 52.0001 45.6966Z" fill="#F0F4FF"/>
<path d="M52.2238 44.8856C52.6176 43.8017 52.2864 42.6847 51.4809 42.3911C50.6664 42.0984 49.6908 42.7392 49.297 43.824C48.9031 44.9088 49.2343 46.025 50.0399 46.3186C50.8544 46.6122 51.821 45.9704 52.2238 44.8856Z" fill="#8AE5CC"/>
<path d="M7.28369 31.8072L35.6835 31.647L35.1107 33.0173L7.48063 33.1569" fill="#F0F4FF"/>
<path d="M7.4814 33.3843L7.47965 32.9296L34.9584 32.7917L35.3415 31.877L7.28452 32.0345L7.28271 31.5808L36.0244 31.4179L35.2627 33.2438L7.4814 33.3843Z" fill="#0B4D5E"/>
</svg>
