<svg width="64" height="64" viewBox="0 0 64 64" fill="none" xmlns="http://www.w3.org/2000/svg">
<path d="M6.28027 44.1482L19.6634 51.8707L31.2847 45.1641L42.9059 38.4576V18.9763L6.28027 24.667V44.1482Z" fill="#F0F4FF" stroke="#0B4D5E" stroke-width="0.25" stroke-linecap="round" stroke-linejoin="round"/>
<path d="M6.28027 24.666L19.6634 32.396V51.8698L6.28027 44.1473L6.28027 24.666Z" fill="#0B4D5E" stroke="#0B4D5E" stroke-width="0.30181" stroke-linecap="round" stroke-linejoin="round"/>
<path d="M6.28027 24.6671L19.6634 32.3971L42.9059 18.9764L29.5752 11.2839L6.28027 24.6671Z" fill="#8AE5CC" stroke="#0B4D5E" stroke-width="0.25" stroke-linecap="round" stroke-linejoin="round"/>
<path d="M24.5941 25.8074C27.7991 25.8074 30.3973 24.0317 30.3973 21.8412C30.3973 19.6507 27.7991 17.875 24.5941 17.875C21.3892 17.875 18.791 19.6507 18.791 21.8412C18.791 24.0317 21.3892 25.8074 24.5941 25.8074Z" fill="#F0F4FF" stroke="#0B4D5E" stroke-width="0.25" stroke-linecap="round" stroke-linejoin="round"/>
<path d="M24.593 48.9765L37.9762 56.699L49.5974 49.9924L61.2186 43.2858V31.8521L24.593 37.5427V48.9765Z" fill="#F0F4FF" stroke="#0B4D5E" stroke-width="0.25" stroke-linecap="round" stroke-linejoin="round"/>
<path d="M24.593 37.542L37.9762 45.272V56.6983L24.593 48.9758L24.593 37.542Z" fill="#0B4D5E" stroke="#0B4D5E" stroke-width="0.30181" stroke-linecap="round" stroke-linejoin="round"/>
<path d="M24.593 37.5431L37.9762 45.273L61.2186 31.8524L47.888 24.1599L24.593 37.5431Z" fill="#8AE5CC" stroke="#0B4D5E" stroke-width="0.25" stroke-linecap="round" stroke-linejoin="round"/>
<path d="M43.3453 38.0203C46.5503 38.0203 49.1485 36.2446 49.1485 34.0541C49.1485 31.8636 46.5503 30.0879 43.3453 30.0879C40.1404 30.0879 37.5422 31.8636 37.5422 34.0541C37.5422 36.2446 40.1404 38.0203 43.3453 38.0203Z" fill="#F0F4FF" stroke="#0B4D5E" stroke-width="0.25" stroke-linecap="round" stroke-linejoin="round"/>
<path d="M23.7207 11.5387C31.1871 11.057 31.5785 10.6657 32.0602 3.19922C32.5419 10.6657 32.9333 11.057 40.3998 11.5387C32.9333 12.0205 32.5419 12.4118 32.0602 19.8783C31.5785 12.4118 31.1871 12.0205 23.7207 11.5387Z" fill="#F0F4FF" stroke="#0B4D5E" stroke-width="0.303328" stroke-linecap="round" stroke-linejoin="round"/>
</svg>
