<svg width="64" height="64" viewBox="0 0 64 64" fill="none" xmlns="http://www.w3.org/2000/svg">
<path d="M31.355 61.8907C37.804 61.8907 44.2632 60.8936 49.1948 58.8944C54.0443 56.9266 56.71 54.2963 56.7202 51.4852C56.7202 48.6967 54.0955 46.0838 49.3075 44.1255C39.5162 40.1271 23.5322 40.1271 13.6794 44.1255C8.82984 46.0926 6.15386 48.7237 6.15386 51.5347C6.15386 54.3232 8.77859 56.9361 13.5666 58.8944C18.4571 60.8936 24.9061 61.8907 31.355 61.8907Z" fill="#0B4D5E"/>
<path d="M31.355 62C38.1197 62 44.4825 60.9308 49.2716 58.9899C54.1642 57.0039 56.8637 54.3393 56.875 51.4859C56.875 48.6537 54.2145 46.0066 49.3844 44.0307C39.55 40.0149 23.4994 40.0149 13.6034 44.0307C8.70059 46.0197 6.00008 48.685 6.00008 51.5347C6.00008 54.3662 8.66062 57.0141 13.4907 58.9892C18.2397 60.9308 24.5831 62 31.355 62ZM31.5159 41.2349C37.9403 41.2349 44.3555 42.2305 49.2296 44.221C53.9602 46.156 56.5654 48.736 56.5654 51.4859C56.5561 54.2576 53.911 56.8552 49.1178 58.8004C44.3739 60.7231 38.0664 61.7821 31.354 61.7821C24.6416 61.7821 18.3453 60.7231 13.6434 58.8004C8.91283 56.8654 6.30765 54.2853 6.30765 51.5355C6.30765 48.7674 8.95179 46.1698 13.7552 44.221C18.6611 42.2305 25.0937 41.2349 31.5159 41.2349Z" fill="#0B4D5E"/>
<path d="M17.0067 19.23C17.3513 19.1792 17.5961 18.8592 17.5417 18.5173C17.4873 18.1745 17.1699 17.9333 16.8253 17.9778C16.1271 18.0793 15.3654 17.7982 14.903 17.265C14.6944 17.0347 14.5493 16.7482 14.4587 16.4453C14.5584 16.4453 14.6672 16.4453 14.7669 16.4344C15.3382 16.3782 15.837 16.1588 16.1634 15.8051C16.6259 15.3281 16.7438 14.6154 16.4627 14.0704C16.1 13.3858 15.1478 13.1047 14.3952 13.4583C13.9055 13.6887 13.5156 14.1321 13.307 14.7161C13.1166 14.5474 12.9625 14.3461 12.8718 14.1158C12.5907 13.442 12.8083 12.5887 13.3705 12.1227C13.6425 11.9032 13.6788 11.5051 13.4612 11.2358C13.2436 10.9656 12.8355 10.932 12.5634 11.146C11.5751 11.954 11.2033 13.4085 11.693 14.5873C11.965 15.2438 12.4909 15.7716 13.1166 16.0916C13.171 16.8162 13.4612 17.518 13.9418 18.0739C14.6944 18.9272 15.8732 19.3651 17.0067 19.2019V19.23ZM15.039 14.5755C15.175 14.5592 15.3019 14.5982 15.3382 14.6544C15.3654 14.716 15.3382 14.8566 15.2475 14.9464C15.1297 15.0697 14.9121 15.1595 14.6491 15.1821C14.5947 15.1821 14.5493 15.1876 14.4858 15.1876C14.5946 14.902 14.7579 14.6825 14.9483 14.5982C14.9755 14.5873 15.0118 14.5755 15.039 14.5701V14.5755Z" fill="#0B4D5E"/>
<path d="M16.5315 19.3724C16.6721 19.3724 16.8136 19.3633 16.9541 19.3461C16.9768 19.3597 17.0003 19.3679 17.0257 19.3652C17.2297 19.3352 17.4165 19.2228 17.5381 19.0577C17.6587 18.8936 17.7076 18.695 17.6759 18.4974C17.6088 18.0775 17.2307 17.7937 16.8063 17.8436C16.1616 17.9379 15.4334 17.6713 15.0054 17.1771C14.8558 17.0111 14.7352 16.8116 14.6463 16.5804C14.6925 16.5786 14.7379 16.5759 14.7805 16.5704C15.3908 16.5106 15.9167 16.2721 16.2622 15.8985C16.7582 15.3871 16.8906 14.6091 16.5832 14.0097C16.1842 13.2598 15.1568 12.9515 14.3362 13.3369C13.8647 13.5581 13.4866 13.9589 13.2562 14.4776C13.1411 14.3497 13.054 14.2128 12.9978 14.0677C12.7393 13.4484 12.9371 12.6595 13.4566 12.2288C13.7822 11.9658 13.8329 11.4816 13.5672 11.1515C13.3043 10.826 12.8155 10.7743 12.4791 11.04C11.4372 11.8914 11.0545 13.4049 11.5669 14.6399C11.8335 15.2819 12.3358 15.8269 12.986 16.1778C13.0576 16.906 13.3578 17.6078 13.8375 18.1628C14.5158 18.9317 15.515 19.3715 16.5306 19.3715L16.5315 19.3724ZM17.0067 19.0668C17.0003 19.0668 16.9931 19.0668 16.9876 19.0677C15.904 19.2228 14.7723 18.8093 14.0442 17.9841C13.5872 17.4546 13.3061 16.7781 13.2526 16.0817C13.249 16.0345 13.2218 15.9919 13.1791 15.9711C12.5535 15.6501 12.0701 15.1404 11.8198 14.5356C11.351 13.4094 11.7011 12.0284 12.6505 11.2521C12.8645 11.0835 13.1882 11.1143 13.356 11.322C13.5274 11.5351 13.4965 11.847 13.2852 12.0175C12.6759 12.5226 12.4456 13.4475 12.7466 14.1693C12.84 14.406 12.9978 14.6254 13.2182 14.8185C13.2526 14.8485 13.3034 14.8593 13.3424 14.8485C13.3868 14.8376 13.4222 14.8049 13.4367 14.7623C13.6298 14.2182 13.9907 13.7993 14.4532 13.5826C15.1487 13.258 16.0119 13.51 16.3429 14.1348C16.5986 14.6308 16.4844 15.2792 16.0664 15.7108C15.7644 16.0373 15.2992 16.2458 14.7542 16.2993C14.6626 16.3093 14.5647 16.3102 14.474 16.3102C14.4187 16.3102 14.3788 16.3274 14.3498 16.3646C14.3244 16.3991 14.3163 16.4435 14.3289 16.4852C14.4314 16.8307 14.591 17.1245 14.8023 17.3566C15.2937 17.9243 16.0954 18.2235 16.8444 18.1129C17.1264 18.0784 17.3649 18.2652 17.4075 18.54C17.4274 18.6651 17.3957 18.7921 17.3186 18.8963C17.2542 18.9843 17.1645 19.0478 17.0629 19.0786C17.0448 19.0705 17.0257 19.0668 17.0067 19.0668ZM14.4858 15.3236C14.5212 15.3236 14.5511 15.3227 14.5801 15.3209C14.6028 15.3209 14.6245 15.3191 14.6481 15.3191C14.951 15.2937 15.2003 15.1921 15.3454 15.0407C15.4642 14.9237 15.5169 14.7242 15.4615 14.6C15.3808 14.4712 15.2221 14.4259 15.0643 14.4377C15.0462 14.4341 15.0299 14.435 15.0117 14.4377C14.9764 14.4449 14.931 14.4585 14.8966 14.473C14.6744 14.5719 14.4849 14.8077 14.3571 15.1404C14.3407 15.1822 14.3471 15.2293 14.3734 15.2656C14.3979 15.3028 14.4396 15.3245 14.4849 15.3245L14.4858 15.3236ZM15.2113 14.7269C15.2067 14.7596 15.1904 14.8131 15.1523 14.8503C15.0616 14.9446 14.8984 15.0135 14.7044 15.0398C14.7914 14.8829 14.8957 14.7714 15.0036 14.7233C15.0127 14.7197 15.0235 14.7161 15.0353 14.7124C15.0417 14.7124 15.0489 14.7124 15.0544 14.7124C15.1314 14.7043 15.1832 14.7161 15.2113 14.7279V14.7269Z" fill="#0B4D5E"/>
<path d="M25.5034 50.8305C25.7029 49.921 25.8842 49.0115 26.0837 48.0966C25.9568 48.686 25.5034 49.2636 24.7326 49.7242C22.8284 50.8468 19.7091 50.8749 17.7595 49.7913C16.9252 49.3316 16.4355 48.7358 16.3086 48.1183C16.499 49.0278 16.6985 49.9373 16.898 50.8468C17.0159 51.3918 17.4421 51.9078 18.1766 52.3176C19.8994 53.2725 22.647 53.2389 24.3155 52.256C25.0047 51.8516 25.3946 51.3465 25.5125 50.8242H25.5034V50.8305Z" fill="#8AE5CC"/>
<path d="M21.185 53.1474C22.3475 53.1474 23.51 52.8881 24.3841 52.3739C25.076 51.9677 25.5113 51.4426 25.6446 50.8551C25.6482 50.8396 25.6491 50.8242 25.6473 50.8097C25.7461 50.3572 25.8413 49.9039 25.9356 49.4505C26.0272 49.0125 26.1188 48.5727 26.2149 48.1329C26.2149 48.1302 26.2167 48.1284 26.2167 48.1256C26.2331 48.0522 26.1859 47.9796 26.1134 47.9642C26.0417 47.9479 25.9674 47.995 25.9511 48.0676C25.9511 48.0676 25.9511 48.0721 25.9493 48.074C25.8241 48.6416 25.3671 49.1866 24.6625 49.6073C22.8018 50.7045 19.7333 50.7345 17.8254 49.6726C17.0592 49.251 16.5695 48.6933 16.4443 48.1021C16.4443 48.0994 16.4443 48.0957 16.4425 48.0921C16.4425 48.0921 16.4425 48.0921 16.4425 48.0912C16.4271 48.0168 16.3536 47.9724 16.282 47.9851C16.2086 48.0005 16.1614 48.0722 16.1769 48.1456C16.1769 48.1501 16.1787 48.1547 16.1796 48.1592C16.3691 49.0651 16.5677 49.971 16.7653 50.8768C16.8968 51.4798 17.3611 52.0194 18.1101 52.4374C18.9661 52.9116 20.0751 53.1474 21.1859 53.1474H21.185ZM25.3671 50.8415C25.2392 51.3357 24.853 51.7836 24.2463 52.1391C22.6141 53.1012 19.92 53.1293 18.2416 52.1989C17.5633 51.8208 17.1444 51.3429 17.0301 50.8188C16.9032 50.2412 16.778 49.6645 16.6529 49.0868C16.9122 49.3942 17.2632 49.6735 17.693 49.9111C19.677 51.0138 22.8662 50.9829 24.8013 49.8422C25.1839 49.6137 25.5004 49.3489 25.7389 49.0623C25.7153 49.1739 25.6917 49.2845 25.669 49.3951C25.5729 49.8585 25.475 50.321 25.3734 50.7843C25.3689 50.7979 25.3662 50.8115 25.3662 50.8251C25.3662 50.8306 25.3671 50.836 25.3671 50.8415Z" fill="#0B4D5E"/>
<path d="M14.6127 40.1251C14.6127 40.1759 14.6128 40.2321 14.6309 40.2883V40.3218C14.6309 40.3726 14.6309 40.4225 14.64 40.4787C14.64 40.5186 14.6581 40.5522 14.6581 40.5911C14.6581 40.5911 14.6671 40.6247 14.6671 40.6365C14.6671 40.6474 14.6762 40.67 14.6853 40.6809C14.8485 41.478 15.0208 42.275 15.1931 43.073C15.5286 44.6164 15.8278 46.7165 16.3175 48.2263C16.3175 48.2372 16.3175 48.2489 16.3266 48.2716C16.3266 48.2771 16.3357 48.288 16.3357 48.2934C16.3357 48.2934 16.3357 48.316 16.3447 48.3333C16.3538 48.3496 16.3628 48.3777 16.3719 48.4004C16.381 48.4394 16.4082 48.4738 16.4172 48.5128C16.4172 48.5128 16.4354 48.5518 16.4354 48.569C16.4445 48.5799 16.4535 48.5854 16.4626 48.6026V48.6135C16.4808 48.6362 16.4989 48.6643 16.5079 48.6924C16.5079 48.6924 16.508 48.7033 16.517 48.7033C16.5261 48.715 16.5351 48.7259 16.5442 48.7432V48.754C16.5714 48.7876 16.5895 48.8157 16.6168 48.8492C16.6168 48.8556 16.6258 48.8665 16.6349 48.8719C16.644 48.8892 16.653 48.9109 16.6712 48.9281C16.6802 48.939 16.6893 48.9508 16.6983 48.9671C16.6983 48.9671 16.7074 48.9735 16.7074 48.9789C16.7255 48.9898 16.7346 49.0125 16.7527 49.0233C16.7527 49.0288 16.7618 49.0406 16.7618 49.046C16.789 49.0687 16.8072 49.0914 16.8344 49.1131C16.8344 49.1131 16.8616 49.153 16.8888 49.1693L16.8979 49.1866C16.8979 49.1866 16.925 49.2092 16.9432 49.2256C16.9613 49.2537 16.9976 49.2763 17.0157 49.299C17.0248 49.3044 17.0338 49.3099 17.0338 49.3153C17.052 49.3271 17.0611 49.3325 17.0611 49.338C17.1699 49.4332 17.3059 49.523 17.4328 49.6128H17.4419C17.4782 49.63 17.4963 49.6527 17.5235 49.669C17.5598 49.6917 17.6052 49.7143 17.6505 49.737C17.6686 49.7533 17.6867 49.7651 17.7139 49.7814C17.7321 49.7923 17.7593 49.8041 17.7774 49.815C17.8227 49.8376 17.8681 49.8658 17.9225 49.8884C17.9497 49.9048 17.986 49.922 18.0132 49.9328C18.0676 49.9555 18.1311 49.9836 18.1855 50.0063C18.2308 50.0226 18.2852 50.0453 18.3306 50.0625C18.4031 50.0843 18.4666 50.1124 18.5391 50.1351C18.5754 50.1469 18.6026 50.1577 18.6298 50.1741C18.6661 50.1859 18.7023 50.1967 18.7386 50.2085C18.7477 50.2085 18.7749 50.2194 18.784 50.2248C19.0923 50.3201 19.4187 50.3935 19.7452 50.4497H19.7542C19.7542 50.4497 19.7814 50.4497 19.7996 50.4552C19.99 50.4833 20.1985 50.5114 20.4071 50.5286H20.5159C20.5431 50.5286 20.5794 50.5286 20.6156 50.534H20.652C20.7064 50.534 20.7698 50.5395 20.8242 50.5395H21.0872C21.459 50.5395 21.8307 50.5223 22.1934 50.4724C22.2751 50.4606 22.3567 50.4552 22.4292 50.4379C22.4655 50.4325 22.5108 50.427 22.5471 50.4216C22.5924 50.4162 22.6196 50.4107 22.6559 50.4044C22.665 50.4044 22.6832 50.3989 22.6922 50.3989C22.8464 50.3763 22.9914 50.3373 23.1275 50.2983H23.1456C23.2 50.2811 23.2725 50.2702 23.336 50.2475C23.6262 50.1686 23.9073 50.0625 24.1703 49.9446C24.1884 49.9383 24.2066 49.9274 24.2247 49.922C24.3063 49.883 24.3969 49.8377 24.4786 49.7987C24.4876 49.7923 24.4967 49.7869 24.5058 49.7814C24.5511 49.7587 24.6055 49.7252 24.6599 49.7025C24.6871 49.6916 24.6962 49.6808 24.7143 49.6635C24.7597 49.6409 24.8141 49.6019 24.8775 49.5565C24.8957 49.5511 24.9047 49.5402 24.9229 49.5348C24.9229 49.5284 24.932 49.523 24.941 49.523C24.9501 49.5121 24.9682 49.5067 24.9773 49.4894C24.9773 49.4894 24.9864 49.4894 24.9864 49.484C25.0045 49.4731 25.0135 49.4613 25.0317 49.445C25.0589 49.4278 25.0861 49.4051 25.1042 49.3888C25.1133 49.377 25.1314 49.3716 25.1496 49.3552C25.1496 49.3489 25.1586 49.3489 25.1586 49.3434C25.204 49.3044 25.2493 49.2763 25.2856 49.2373C25.3128 49.2147 25.34 49.1866 25.3672 49.1639C25.3672 49.1585 25.3853 49.153 25.3853 49.1467C25.4035 49.1358 25.4125 49.1249 25.4216 49.1077C25.4488 49.085 25.476 49.0569 25.4942 49.0351C25.5123 49.0179 25.5304 48.9952 25.5486 48.9735C25.5576 48.9563 25.5758 48.939 25.5758 48.9227C25.5758 48.9173 25.5758 48.9109 25.5939 48.9109C25.6211 48.8665 25.6574 48.8275 25.6846 48.7876C25.7118 48.7431 25.739 48.7033 25.7662 48.6643C25.7843 48.6307 25.8024 48.6026 25.8206 48.569C25.8206 48.5573 25.8297 48.5518 25.8297 48.5409C25.8297 48.5409 25.8297 48.5237 25.8387 48.5183C25.8478 48.501 25.866 48.4793 25.866 48.4621C25.8932 48.4004 25.9203 48.3333 25.9385 48.2716C25.9566 48.2435 25.9566 48.21 25.9657 48.1755V48.1537L25.9839 48.1084V48.0694L26.0564 47.7375C26.0836 47.5643 26.1198 47.3839 26.1652 47.2107L26.6458 44.9138C26.7183 44.5828 26.7908 44.2573 26.8453 43.9481L27.0357 43.0449C27.208 42.2306 27.3894 41.4163 27.5526 40.6084V40.5123C27.5526 40.5123 27.5707 40.456 27.5707 40.4343C27.5798 40.3889 27.5798 40.3445 27.5888 40.3046V40.2937C27.5888 40.2375 27.5979 40.1813 27.5979 40.1251C27.5979 39.1485 26.9359 38.1655 25.612 37.4419C23.0186 35.9992 18.8747 36.0436 16.3447 37.5371C15.1115 38.2671 14.4949 39.2156 14.4949 40.1532L14.6127 40.1423V40.1251Z" fill="#F0F4FF"/>
<path d="M20.8244 50.6764H21.0873C21.5099 50.6764 21.8781 50.6547 22.2127 50.6075L22.2924 50.5975C22.3505 50.5903 22.4085 50.583 22.462 50.5712L22.569 50.5567C22.6089 50.5522 22.637 50.5467 22.6724 50.5404L22.6842 50.4008L22.7059 50.5349C22.8673 50.5123 23.0142 50.4733 23.1493 50.4343C23.1638 50.4343 23.1793 50.4316 23.1874 50.4288C23.2074 50.4225 23.2319 50.4171 23.2554 50.4107C23.2971 50.4007 23.3407 50.3908 23.3815 50.3763C23.6462 50.3046 23.9328 50.2003 24.2266 50.0688L24.2176 49.9247L24.2656 50.0516L24.5376 49.921C24.5431 49.9183 24.5757 49.8984 24.5812 49.8957L24.6229 49.8739C24.651 49.8585 24.6809 49.8413 24.7126 49.8286C24.7543 49.8122 24.7788 49.7914 24.797 49.7742C24.8405 49.7497 24.8913 49.7143 24.9493 49.6735C24.9593 49.669 24.9684 49.6644 24.9711 49.6617C24.9901 49.6563 25.0064 49.6463 25.0191 49.6345C25.0291 49.6282 25.0373 49.6209 25.0436 49.6127C25.0472 49.6109 25.0509 49.6082 25.0536 49.6055C25.0645 49.5991 25.0726 49.5919 25.0808 49.5846C25.0944 49.5747 25.1035 49.5656 25.1116 49.5583C25.1388 49.5393 25.1724 49.5112 25.196 49.4921C25.2114 49.4813 25.225 49.4722 25.2413 49.4586C25.2476 49.4523 25.254 49.445 25.2603 49.4387C25.2721 49.4296 25.2821 49.4205 25.2939 49.4123C25.3283 49.386 25.3601 49.3607 25.3882 49.3307L25.4562 49.2709C25.4616 49.2664 25.4662 49.2618 25.4707 49.2564C25.4934 49.24 25.5124 49.2219 25.5278 49.1983C25.5559 49.1739 25.5822 49.1457 25.6004 49.1231C25.6076 49.1176 25.6258 49.0968 25.6439 49.075C25.6512 49.0669 25.6657 49.0469 25.6711 49.0378C25.6756 49.0315 25.682 49.0224 25.6874 49.0133C25.6974 49.0043 25.7056 48.9943 25.7119 48.9834C25.7246 48.9626 25.74 48.9426 25.7555 48.9236C25.7709 48.9045 25.7844 48.8864 25.7971 48.8674C25.8271 48.8193 25.8525 48.7821 25.8788 48.7449L25.9404 48.6371C25.9468 48.6262 25.9513 48.6144 25.954 48.6026C25.9568 48.5963 25.9586 48.5899 25.9604 48.5835C25.974 48.5627 25.9894 48.5364 25.9975 48.5038C26.022 48.4466 26.0474 48.3859 26.0647 48.3287C26.0828 48.2934 26.0883 48.2598 26.0928 48.2344C26.0928 48.2281 26.0991 48.1991 26.1009 48.1846L26.1109 48.161C26.1172 48.1447 26.1209 48.1283 26.1209 48.1111V48.0721L26.1898 47.7693C26.2206 47.5743 26.2569 47.4011 26.2968 47.2478L26.7965 44.8639C26.8636 44.5592 26.9288 44.2591 26.9796 43.9744L27.1691 43.0748C27.2308 42.781 27.2951 42.4881 27.3577 42.1943C27.4693 41.6738 27.5817 41.1542 27.686 40.6374L27.6887 40.5349C27.7014 40.4941 27.7078 40.4606 27.7078 40.4361C27.7078 40.4361 27.7123 40.4125 27.715 40.3889C27.7168 40.3717 27.7187 40.3545 27.7223 40.3391C27.725 40.3282 27.7268 40.3064 27.7268 40.2955C27.7268 40.2711 27.7286 40.2466 27.7304 40.2221C27.7331 40.1904 27.7358 40.1586 27.7358 40.1269C27.7358 39.0605 26.9859 38.0395 25.6784 37.324C23.0541 35.8659 18.8385 35.9094 16.2768 37.421C15.0409 38.1528 14.3599 39.1231 14.3599 40.155C14.3599 40.1931 14.3771 40.2302 14.4052 40.2556C14.4288 40.2774 14.4596 40.2901 14.4914 40.291C14.4932 40.2973 14.495 40.3028 14.4959 40.3091C14.4959 40.3898 14.4977 40.4433 14.5086 40.5032C14.5059 40.5168 14.5141 40.5467 14.5195 40.5694C14.5195 40.5821 14.5258 40.6183 14.5295 40.6301C14.5331 40.6682 14.5449 40.7036 14.5594 40.7317C14.7045 41.4426 14.8577 42.1526 15.011 42.8645L15.0627 43.103C15.1688 43.5935 15.2703 44.1349 15.3791 44.7079C15.6122 45.9421 15.8515 47.2179 16.1852 48.2517C16.1871 48.2707 16.1916 48.2934 16.2034 48.3215C16.2034 48.3215 16.2052 48.326 16.2061 48.3287C16.2097 48.3478 16.2161 48.3723 16.227 48.3958C16.227 48.3958 16.2478 48.4494 16.2478 48.4503C16.2506 48.4675 16.265 48.4947 16.275 48.5165C16.2777 48.5255 16.2932 48.5609 16.2959 48.569C16.2959 48.5999 16.3122 48.6298 16.3312 48.6543L16.3367 48.6525C16.3421 48.6706 16.3503 48.6878 16.3594 48.7005C16.373 48.716 16.3784 48.7286 16.3793 48.7341C16.3856 48.754 16.3974 48.7731 16.4119 48.7903C16.4119 48.7903 16.4147 48.793 16.4165 48.7948C16.4219 48.812 16.4301 48.8293 16.4392 48.8411L16.4709 48.8828C16.4836 48.9 16.4963 48.9172 16.5117 48.9363C16.5117 48.9363 16.5171 48.9435 16.5199 48.9472C16.5326 48.9716 16.548 49.0007 16.5761 49.027C16.5806 49.0351 16.586 49.0442 16.5924 49.0524C16.6032 49.0696 16.6169 49.0841 16.635 49.095C16.6432 49.1177 16.6568 49.1376 16.6758 49.153L16.7012 49.1766C16.7121 49.1875 16.723 49.1975 16.7348 49.2083C16.7475 49.2247 16.7647 49.2455 16.7873 49.2636C16.7955 49.2754 16.8046 49.2872 16.8109 49.2927L16.8426 49.3199C16.8617 49.3425 16.8817 49.3607 16.898 49.3752C16.9052 49.3833 16.9188 49.3969 16.9324 49.4078C16.9406 49.4169 16.9506 49.4251 16.9596 49.4314C16.9596 49.4314 16.9669 49.4387 16.9714 49.4423C17.0639 49.523 17.1737 49.5991 17.2825 49.6753L17.355 49.7261C17.3668 49.7343 17.3795 49.7415 17.394 49.7451C17.4239 49.7687 17.4384 49.7787 17.4529 49.7877C17.4865 49.8086 17.53 49.8304 17.5744 49.8531C17.5944 49.8694 17.6152 49.8839 17.6452 49.9011C17.6542 49.9065 17.6715 49.9156 17.6887 49.9238L17.7585 49.961C17.793 49.98 17.8292 49.999 17.871 50.0163C17.8846 50.0272 17.929 50.0489 17.9643 50.0616L18.2817 50.1922C18.3271 50.2058 18.3597 50.2185 18.3924 50.2303C18.4268 50.243 18.4622 50.2557 18.4985 50.2675C18.5284 50.2774 18.5447 50.2847 18.5574 50.2919L18.6952 50.34C18.7088 50.3445 18.7233 50.3463 18.7378 50.3463C19.0362 50.4479 19.3654 50.525 19.7217 50.5857L19.7643 50.5885C19.972 50.6202 20.1842 50.6483 20.3946 50.6655H20.5152C20.5415 50.6655 20.5677 50.6655 20.5959 50.6701H20.6521C20.6766 50.671 20.7046 50.6728 20.7318 50.6737C20.7627 50.6755 20.7945 50.6764 20.8244 50.6764ZM23.123 50.1641C23.1104 50.1641 23.0976 50.1659 23.0904 50.1686C22.939 50.2121 22.8093 50.2448 22.6733 50.2647C22.6642 50.2647 22.6397 50.2693 22.6316 50.2711C22.5935 50.2783 22.5699 50.2829 22.5318 50.2874L22.4103 50.3046C22.355 50.3173 22.3088 50.3228 22.2607 50.3282L22.1745 50.3391C21.8535 50.3835 21.4972 50.4053 21.0873 50.4053H20.8244C20.7999 50.4053 20.7718 50.4044 20.7446 50.4026C20.7137 50.4007 20.682 50.3998 20.6521 50.3998H20.6158C20.5922 50.3953 20.5487 50.3944 20.516 50.3944H20.4072C20.2132 50.3772 20.0083 50.35 19.8206 50.3219C19.8061 50.3164 19.7689 50.3155 19.7553 50.3155C19.4279 50.2593 19.1124 50.1849 18.8313 50.0988C18.8285 50.097 18.8022 50.0834 18.7705 50.0779L18.6735 50.0471C18.6644 50.0371 18.6272 50.0226 18.5828 50.0081C18.5483 49.9972 18.5184 49.9864 18.4885 49.9746C18.4495 49.9601 18.4114 49.9464 18.3706 49.9347L18.3289 49.9174C18.2962 49.9047 18.2627 49.8911 18.2319 49.8803L18.0668 49.8095C18.0433 49.7996 18.0151 49.7869 17.9961 49.7751C17.9444 49.7524 17.9172 49.737 17.8909 49.7225L17.8401 49.6953C17.8401 49.6953 17.7848 49.6663 17.7839 49.6653C17.7658 49.6554 17.754 49.6472 17.7422 49.6363C17.7331 49.6291 17.7231 49.6218 17.7132 49.6173C17.6715 49.5973 17.6307 49.5765 17.5971 49.5556C17.5627 49.5284 17.5382 49.5085 17.5019 49.4912C17.4974 49.4894 17.4928 49.4876 17.4892 49.4867L17.4393 49.4522C17.3396 49.3815 17.2371 49.3117 17.1528 49.2373H17.151C17.141 49.2274 17.1301 49.2165 17.1193 49.2092C17.1193 49.2092 17.1174 49.2074 17.1165 49.2065C17.1047 49.1947 17.092 49.1829 17.0784 49.1702C17.0712 49.1593 17.0458 49.134 17.0358 49.1258L17.0023 49.0977C16.9896 49.0805 16.975 49.0642 16.9623 49.056C16.9542 49.0442 16.9315 49.017 16.9206 49.0088C16.9106 49.0007 16.9025 48.9925 16.8943 48.9843C16.8898 48.9789 16.8844 48.9744 16.8789 48.9689C16.8672 48.9435 16.8481 48.9218 16.8227 48.9082C16.8254 48.9064 16.82 48.8982 16.81 48.8882C16.7973 48.8683 16.7856 48.8529 16.7747 48.8411C16.7683 48.8275 16.7547 48.8075 16.7402 48.7903C16.7357 48.7821 16.7302 48.774 16.7239 48.7667L16.6922 48.725C16.6858 48.7159 16.6795 48.7078 16.6731 48.6996C16.6713 48.6933 16.6695 48.6878 16.6667 48.6833C16.6541 48.6597 16.6432 48.6434 16.6296 48.6271C16.6187 48.6017 16.606 48.5799 16.5924 48.5609C16.5905 48.5545 16.5879 48.5491 16.5861 48.5445C16.5779 48.5291 16.5688 48.5174 16.5625 48.5074C16.5579 48.4938 16.5516 48.4784 16.5434 48.4602C16.5434 48.4502 16.5289 48.4212 16.518 48.3986C16.5162 48.3931 16.5017 48.3605 16.4999 48.355C16.4836 48.3124 16.4754 48.2888 16.4663 48.2734C16.4663 48.2526 16.4636 48.2417 16.4546 48.2263C16.4546 48.2127 16.4527 48.2018 16.4482 48.1882C16.1172 47.1681 15.8769 45.8931 15.6448 44.6599C15.5369 44.085 15.4344 43.5418 15.3265 43.0476L15.2749 42.8091C15.1207 42.091 14.9656 41.3737 14.8187 40.6564C14.816 40.641 14.8096 40.6265 14.8015 40.6138C14.8015 40.6039 14.7979 40.5902 14.7934 40.573C14.7906 40.5467 14.7852 40.524 14.7806 40.5068C14.7806 40.4987 14.7752 40.4669 14.7734 40.4588C14.7652 40.4107 14.7661 40.3681 14.7661 40.3255C14.7661 40.3119 14.7634 40.2647 14.7598 40.2511C14.748 40.2148 14.748 40.1731 14.748 40.1287C14.748 40.0616 14.699 40.0063 14.6364 39.9954C14.7054 39.124 15.3301 38.2988 16.4128 37.6577C18.901 36.1896 22.9988 36.1488 25.5441 37.5643C26.7629 38.2308 27.4602 39.1648 27.4602 40.1287C27.4602 40.1532 27.4584 40.1777 27.4566 40.2021C27.4538 40.2339 27.4511 40.2656 27.4511 40.2973C27.4484 40.3028 27.4448 40.3318 27.4421 40.3617C27.4403 40.3781 27.4384 40.3953 27.4348 40.4116C27.4303 40.4451 27.4212 40.4714 27.4203 40.4733C27.4158 40.4869 27.4131 40.5014 27.4131 40.5159V40.612C27.3124 41.1017 27.2009 41.6194 27.0893 42.139C27.0259 42.4328 26.9624 42.7266 26.9007 43.0204L26.7103 43.9236C26.6586 44.2092 26.5942 44.5057 26.528 44.8068L26.5099 44.8884L26.0302 47.1862C25.9885 47.3413 25.9504 47.5235 25.9196 47.7194L25.838 48.1029C25.8307 48.1202 25.8262 48.1383 25.8262 48.1573L25.8217 48.1882C25.8153 48.1982 25.809 48.2254 25.8053 48.2362C25.7881 48.2934 25.7627 48.355 25.7382 48.4122C25.7355 48.4185 25.7328 48.4248 25.7309 48.4312C25.7309 48.433 25.7282 48.4357 25.7273 48.4376C25.7083 48.4593 25.6974 48.4865 25.6929 48.5165L25.6439 48.6008C25.6231 48.6298 25.594 48.6724 25.565 48.7196L25.5378 48.7558C25.5206 48.7767 25.5052 48.7976 25.4897 48.8202C25.4698 48.8374 25.4544 48.8592 25.4444 48.8819C25.4381 48.8918 25.4254 48.9118 25.4245 48.9145C25.4245 48.9145 25.4073 48.929 25.3964 48.9408C25.3728 48.968 25.3519 48.9889 25.332 49.0061C25.3193 49.017 25.3084 49.0297 25.3002 49.0442C25.2921 49.0496 25.2848 49.056 25.2785 49.0632C25.2613 49.0768 25.2458 49.0914 25.2295 49.1059L25.195 49.1367C25.166 49.1675 25.1452 49.182 25.1252 49.1974C25.1062 49.2119 25.0863 49.2265 25.0681 49.2428C25.0618 49.2482 25.0554 49.2546 25.05 49.2609C25.0318 49.2736 25.0019 49.299 24.9937 49.3108C24.9965 49.3053 24.9792 49.319 24.9557 49.3335C24.9484 49.338 24.9276 49.357 24.9212 49.3634C24.914 49.367 24.9067 49.3724 24.9013 49.3779C24.8895 49.3851 24.8804 49.3942 24.8713 49.4042C24.8586 49.4105 24.8478 49.4178 24.8369 49.4269C24.8333 49.4287 24.8296 49.4305 24.8278 49.4314C24.8142 49.4359 24.8079 49.4405 24.797 49.4486C24.7408 49.4885 24.6918 49.5239 24.6519 49.5429C24.6392 49.5493 24.6283 49.5574 24.6183 49.5674C24.5666 49.5946 24.5268 49.6164 24.4896 49.6363L24.4433 49.6608C24.4379 49.6635 24.4043 49.6844 24.3989 49.688L24.164 49.8004L24.1722 49.9446L24.125 49.8168C23.833 49.9474 23.5592 50.0462 23.299 50.1178C23.2573 50.1314 23.2237 50.1396 23.192 50.1468C23.1675 50.1532 23.143 50.1586 23.1212 50.165L23.123 50.1641ZM25.4435 48.8946C25.4408 48.9036 25.439 48.9136 25.439 48.9227C25.439 48.9118 25.4408 48.9027 25.4435 48.8946ZM16.7012 48.7522C16.7139 48.7595 16.723 48.7685 16.7311 48.7794C16.7202 48.7676 16.7103 48.7576 16.7012 48.7522ZM25.9658 48.5418C25.9658 48.5418 25.9658 48.55 25.9658 48.5536C25.9658 48.55 25.9658 48.5455 25.9658 48.5418ZM14.7915 40.5966C14.7915 40.5966 14.7942 40.5993 14.7951 40.6011C14.7951 40.5993 14.7924 40.5984 14.7915 40.5966Z" fill="#0B4D5E"/>
<path d="M41.2993 57.3385C41.4897 56.429 41.6801 55.5195 41.8796 54.6046C41.7527 55.194 41.2993 55.7725 40.5195 56.2331C38.6243 57.3557 35.505 57.3838 33.5554 56.3002C32.7121 55.8396 32.2315 55.2447 32.1045 54.6272C32.295 55.5367 32.4944 56.4462 32.6939 57.3557C32.8118 57.9007 33.238 58.4167 33.9725 58.8265C35.6863 59.7814 38.4338 59.7469 40.1114 58.7649C40.7915 58.3605 41.1905 57.8554 41.3084 57.3331H41.2993V57.3385Z" fill="#8AE5CC"/>
<path d="M36.9731 59.6554C38.1356 59.6554 39.3008 59.397 40.1804 58.8828C40.875 58.4693 41.3103 57.9443 41.4409 57.363C41.4445 57.3476 41.4454 57.3313 41.4427 57.3159C41.6295 56.4254 41.8163 55.535 42.0121 54.6382C42.0121 54.6382 42.0121 54.6354 42.0121 54.6345C42.0285 54.5602 41.9813 54.4886 41.9088 54.4722C41.838 54.4559 41.7628 54.503 41.7465 54.5756C41.7465 54.5783 41.7465 54.581 41.7447 54.5838C41.6177 55.1532 41.1589 55.6973 40.4498 56.1162C38.5954 57.2143 35.5305 57.2443 33.6208 56.1815C32.8555 55.7644 32.3667 55.2067 32.2398 54.6119C32.2398 54.6082 32.2397 54.6046 32.2379 54.601C32.2225 54.5266 32.1482 54.4786 32.0774 54.4949C32.004 54.5103 31.9569 54.5819 31.9723 54.6554V54.6572C31.9723 54.6572 31.9741 54.6645 31.975 54.6681C32.1645 55.574 32.3631 56.4799 32.5608 57.3848C32.6922 57.9878 33.1574 58.5274 33.9055 58.9454C34.7561 59.4196 35.8632 59.6554 36.9731 59.6554ZM41.1643 57.3495C41.0374 57.8382 40.6511 58.2861 40.0426 58.648C38.3986 59.6101 35.7055 59.6364 34.0388 58.7078C33.3596 58.3297 32.9407 57.8518 32.8264 57.3268C32.7004 56.7528 32.5753 56.1797 32.4519 55.6066C32.7086 55.9086 33.0567 56.1833 33.4902 56.42C35.4742 57.5227 38.6607 57.4927 40.5894 56.3502C40.9748 56.1235 41.2922 55.8587 41.5325 55.5721C41.4101 56.147 41.2894 56.7211 41.1697 57.2951C41.1661 57.3068 41.1634 57.3195 41.1634 57.3331C41.1634 57.3386 41.1634 57.344 41.1652 57.3495H41.1643Z" fill="#0B4D5E"/>
<path d="M30.4177 46.6331V46.8299C30.4177 46.8806 30.4268 46.9305 30.4449 46.9867C30.4449 47.0266 30.454 47.0602 30.4631 47.0992V47.1445C30.4631 47.1554 30.4721 47.1726 30.4812 47.1889C30.6535 47.986 30.8167 48.784 30.9981 49.581C31.3245 51.1244 31.6237 53.23 32.1134 54.7343C32.1134 54.7461 32.1134 54.7624 32.1225 54.7796C32.1225 54.7851 32.1316 54.796 32.1316 54.8023C32.1316 54.8023 32.1316 54.8241 32.1406 54.8413C32.1497 54.8576 32.1587 54.8857 32.1678 54.9084C32.1769 54.9474 32.2041 54.9818 32.2132 55.0208C32.2132 55.0208 32.2313 55.0598 32.2404 55.0771C32.2404 55.088 32.2494 55.0934 32.2585 55.1052C32.2585 55.1052 32.2676 55.1106 32.2676 55.1161C32.2767 55.1387 32.2948 55.1668 32.3129 55.195V55.2058C32.322 55.2176 32.331 55.2285 32.3401 55.2457V55.2566C32.3673 55.2902 32.3854 55.3183 32.4036 55.3518C32.4036 55.3573 32.4217 55.3691 32.4308 55.3745C32.4399 55.3917 32.4489 55.4135 32.4761 55.4307C32.4761 55.4416 32.4943 55.4534 32.4943 55.4697L32.5034 55.4815C32.5034 55.4815 32.5306 55.515 32.5487 55.5259C32.5487 55.5314 32.5577 55.5431 32.5668 55.5486C32.5849 55.5713 32.6031 55.593 32.6303 55.6157C32.6303 55.6157 32.6575 55.6556 32.6756 55.6719L32.7028 55.6892C32.7028 55.6892 32.7209 55.7109 32.7391 55.7282C32.7572 55.7508 32.7935 55.7789 32.8207 55.8016C32.8207 55.807 32.8298 55.8125 32.8298 55.8179C32.8479 55.8297 32.857 55.8352 32.866 55.8406C32.9658 55.9358 33.1018 56.0256 33.2379 56.1153C33.2651 56.1326 33.3013 56.1552 33.3194 56.1716C33.3557 56.1942 33.4011 56.2169 33.4464 56.2387C33.4645 56.2559 33.4827 56.2668 33.5099 56.284C33.528 56.2949 33.5552 56.3121 33.5734 56.3176C33.6187 56.3402 33.6731 56.3683 33.7184 56.391C33.7456 56.4073 33.7819 56.4246 33.8091 56.4354C33.8635 56.4581 33.927 56.4862 33.9814 56.5089C34.0267 56.5252 34.0721 56.5479 34.1265 56.5651C34.199 56.5869 34.2716 56.615 34.335 56.6377C34.3713 56.6485 34.3985 56.6603 34.4348 56.6766C34.462 56.6884 34.4983 56.6993 34.5346 56.7048C34.5527 56.7048 34.5708 56.7165 34.5799 56.722C34.8973 56.8172 35.2146 56.8907 35.5411 56.9469H35.5501C35.5501 56.9469 35.5773 56.9469 35.5955 56.9523C35.795 56.9804 36.0035 57.0085 36.2121 57.0249H36.3118C36.3481 57.0249 36.3753 57.0248 36.4116 57.0303H36.4479C36.5113 57.0303 36.5657 57.0366 36.6201 57.0366H36.8831C37.2549 57.0366 37.6267 57.0194 37.9894 56.9686C38.071 56.9577 38.1526 56.9523 38.2252 56.9351C38.2614 56.9296 38.3067 56.9242 38.343 56.9188C38.3883 56.9124 38.4247 56.907 38.4519 56.9015C38.47 56.9015 38.4791 56.8961 38.4972 56.8961C38.6423 56.8734 38.7873 56.8344 38.9324 56.7945H38.9415C39.005 56.7782 39.0684 56.761 39.141 56.7446C39.4221 56.6657 39.7032 56.5588 39.9662 56.4409C39.9843 56.4354 40.0025 56.4246 40.0206 56.4191C40.1113 56.3792 40.1928 56.3348 40.2745 56.2949C40.2835 56.2895 40.2926 56.284 40.3017 56.2786C40.347 56.2559 40.4105 56.2223 40.4558 56.1997C40.474 56.1888 40.5012 56.177 40.5102 56.1607C40.5556 56.138 40.61 56.099 40.6734 56.0537C40.6916 56.0482 40.7098 56.0374 40.7188 56.031C40.7188 56.0256 40.7279 56.0201 40.7369 56.0201C40.7551 56.0093 40.7642 56.0029 40.7732 55.9866C40.7732 55.9866 40.7823 55.9866 40.7823 55.9811C40.8004 55.9694 40.8095 55.9585 40.8276 55.9412C40.8548 55.9249 40.882 55.9022 40.9001 55.885C40.9183 55.8741 40.9365 55.8687 40.9455 55.8515C40.9455 55.846 40.9545 55.846 40.9545 55.8406C40.9999 55.8016 41.0452 55.7735 41.0815 55.7336C41.1087 55.7109 41.145 55.6837 41.1631 55.6611C41.1722 55.6556 41.1813 55.6493 41.1903 55.6438C41.1994 55.6329 41.2085 55.6157 41.2175 55.6048C41.2448 55.5822 41.2719 55.554 41.2901 55.5314C41.3082 55.5151 41.3264 55.4924 41.3445 55.4697C41.3536 55.4534 41.3717 55.4361 41.3808 55.4198C41.3808 55.4135 41.3808 55.408 41.3898 55.408C41.4261 55.3636 41.4533 55.3237 41.4805 55.2847C41.5168 55.2394 41.5349 55.2058 41.5621 55.1614C41.5803 55.1279 41.5984 55.0997 41.6165 55.0662C41.6165 55.0544 41.6256 55.049 41.6346 55.0317V55.01C41.6528 54.9927 41.6528 54.9701 41.6619 54.9538C41.6981 54.8921 41.7254 54.8241 41.7344 54.7624C41.7526 54.7289 41.7525 54.7008 41.7616 54.6672V54.6445C41.7616 54.6445 41.7707 54.6219 41.7798 54.6001V54.5602L41.8523 54.2292C41.8886 54.0551 41.9158 53.8756 41.9611 53.7015L42.4417 51.4055C42.5142 51.0745 42.5868 50.7481 42.6502 50.4398L42.8316 49.5357C43.013 48.716 43.1852 47.908 43.3485 47.0992V47.004C43.3485 47.004 43.3666 46.9477 43.3666 46.9196C43.3666 46.8752 43.3848 46.8353 43.3848 46.7909V46.7791C43.3848 46.7229 43.3938 46.6666 43.3938 46.6113C43.3938 45.6338 42.7228 44.6518 41.4079 43.9273C38.8145 42.4846 34.6706 42.529 32.1497 44.0225C30.9074 44.7524 30.2908 45.7018 30.2908 46.6385L30.4086 46.6277L30.4177 46.6331Z" fill="#F0F4FF"/>
<path d="M36.6195 57.1735H36.8833C37.3068 57.1735 37.6749 57.1509 38.0077 57.1037L38.0794 57.0956C38.1401 57.0883 38.2009 57.0811 38.2562 57.0684L38.3632 57.0538C38.4094 57.0475 38.4493 57.0421 38.4792 57.0357C38.4856 57.0357 38.5101 57.033 38.5173 57.0321C38.6606 57.0094 38.8002 56.9731 38.9544 56.9314C38.9616 56.9314 38.9689 56.9296 38.9734 56.9287L39.0215 56.916C39.0687 56.9033 39.1158 56.8915 39.1693 56.8788C39.4422 56.8027 39.7261 56.6975 40.0199 56.566L40.0108 56.4227L40.0589 56.5506C40.1359 56.5179 40.1949 56.488 40.2529 56.4581L40.3318 56.4182C40.3373 56.4155 40.369 56.3964 40.3744 56.3937L40.515 56.3221C40.5422 56.3067 40.5703 56.2912 40.5929 56.2704C40.6347 56.2468 40.6827 56.2142 40.7362 56.1761C40.758 56.1661 40.7788 56.1552 40.7933 56.1443C40.7979 56.1425 40.8024 56.1398 40.807 56.1371C40.8269 56.1244 40.8468 56.1108 40.865 56.089C40.8804 56.0781 40.8913 56.0682 40.904 56.0555C40.9303 56.0373 40.9647 56.0092 40.9892 55.9875C40.9965 55.9875 41.0264 55.9711 41.0509 55.9367L41.0844 55.9104C41.1189 55.8832 41.1516 55.8569 41.1797 55.826C41.206 55.8061 41.2313 55.7853 41.2495 55.7671C41.2658 55.7553 41.2875 55.739 41.2939 55.7308C41.3011 55.7218 41.3084 55.7109 41.3148 55.6991C41.3338 55.6837 41.3691 55.6483 41.3936 55.6175C41.4009 55.613 41.4236 55.5858 41.4471 55.5586C41.468 55.5286 41.4807 55.5123 41.4889 55.5005L41.4925 55.4969C41.5242 55.4579 41.5487 55.4216 41.5741 55.3872C41.6176 55.331 41.6367 55.2974 41.6602 55.2602L41.6784 55.2303L41.7337 55.1351C41.7373 55.1287 41.7409 55.1224 41.7427 55.116C41.7464 55.1106 41.75 55.1033 41.7545 55.097C41.7609 55.0843 41.7654 55.0716 41.7682 55.058C41.7763 55.0408 41.7809 55.0263 41.7845 55.0172C41.8099 54.9737 41.8479 54.8957 41.8652 54.8077C41.8788 54.776 41.8842 54.7488 41.8869 54.7279C41.8887 54.7198 41.8969 54.6799 41.8969 54.6717L41.9051 54.6563C41.9123 54.64 41.9159 54.6228 41.9159 54.6046V54.5647L41.9849 54.2627C41.9985 54.2002 42.0094 54.1385 42.0211 54.0769C42.042 53.9635 42.0637 53.8511 42.0928 53.7395L42.6087 51.2758C42.6695 51.0002 42.7293 50.729 42.7819 50.4706L42.9642 49.5656C43.1528 48.7132 43.3224 47.9153 43.4802 47.1291L43.4829 47.0275C43.4919 46.9976 43.5019 46.9568 43.5019 46.9223C43.5019 46.9151 43.5046 46.9015 43.5073 46.887C43.5137 46.8616 43.521 46.8308 43.521 46.7927C43.521 46.7564 43.5228 46.7319 43.5246 46.7074C43.5273 46.6757 43.53 46.6449 43.53 46.6131C43.53 45.5522 42.7801 44.5302 41.4726 43.8103C38.8492 42.3494 34.6345 42.3939 32.08 43.9073C30.8387 44.6363 30.1541 45.6075 30.1541 46.6403C30.1541 46.6784 30.1713 46.7156 30.1985 46.741C30.2211 46.7618 30.2511 46.7745 30.281 46.7764V46.7981C30.281 46.8879 30.291 46.9486 30.3091 47.0121C30.3118 47.0556 30.3209 47.0928 30.3291 47.1282L30.3264 47.1463C30.3264 47.1808 30.3381 47.2098 30.3508 47.237L30.5077 47.9706C30.6237 48.5183 30.7408 49.066 30.865 49.6128C30.9629 50.0761 31.059 50.593 31.1579 51.1289C31.3819 52.3367 31.6357 53.7042 31.9767 54.7597C31.9785 54.7796 31.983 54.8068 31.9966 54.8359C31.9994 54.8549 32.0057 54.8803 32.0175 54.9048C32.0175 54.9066 32.0402 54.9619 32.0411 54.9637C32.0411 54.9755 32.0556 55.0036 32.0664 55.0263C32.0682 55.0353 32.0837 55.0698 32.0864 55.0789L32.1154 55.1405C32.1245 55.1596 32.1354 55.1786 32.1472 55.1904C32.1572 55.2094 32.168 55.2285 32.1807 55.2484C32.1862 55.2666 32.1943 55.2829 32.2043 55.2947H32.2061C32.2116 55.3128 32.2197 55.331 32.2297 55.3437C32.2487 55.3672 32.2623 55.3881 32.2759 55.4108C32.2877 55.4361 32.3058 55.4552 32.3231 55.4697C32.3321 55.4851 32.344 55.5014 32.3621 55.5177C32.3675 55.5322 32.3757 55.5468 32.3857 55.5586C32.4029 55.5794 32.4237 55.6048 32.4482 55.6248C32.4509 55.6284 32.4537 55.632 32.4573 55.6356C32.4781 55.661 32.4981 55.6846 32.5253 55.7082C32.5389 55.7272 32.5589 55.7535 32.5797 55.7726C32.5833 55.7753 32.5969 55.7853 32.6087 55.7934C32.6178 55.8034 32.6296 55.817 32.6423 55.8288C32.6522 55.8433 32.6822 55.8678 32.7103 55.8914C32.7212 55.9077 32.7348 55.9222 32.752 55.9331L32.7919 55.9575C32.879 56.0455 33.0277 56.1434 33.1582 56.2296C33.1845 56.2459 33.2099 56.2604 33.2226 56.2722C33.277 56.3085 33.3215 56.332 33.3659 56.3538C33.3822 56.3674 33.3994 56.3783 33.4203 56.3919C33.472 56.4227 33.5001 56.4399 33.5318 56.4481L33.6542 56.5134C33.6751 56.527 33.7195 56.5488 33.754 56.5624L33.9834 56.6585C34.0133 56.6712 34.0451 56.6839 34.0795 56.6957C34.1339 56.712 34.1856 56.731 34.2337 56.7483L34.2854 56.7673C34.3216 56.7782 34.3443 56.7891 34.376 56.8027C34.415 56.8208 34.4649 56.8344 34.5102 56.8408C34.8557 56.9496 35.1749 57.0239 35.5131 57.0829L35.5558 57.0856C35.7743 57.1173 35.9856 57.1454 36.1969 57.1618H36.3066C36.3311 57.1636 36.3574 57.1618 36.3873 57.1663H36.4435C36.4734 57.1672 36.5015 57.169 36.5287 57.1708C36.5587 57.1726 36.5868 57.1735 36.6158 57.1735H36.6195ZM38.92 56.6603C38.9118 56.6603 38.9027 56.6621 38.8973 56.6639C38.7467 56.7047 38.6116 56.741 38.4765 56.7619C38.4675 56.7619 38.4339 56.7664 38.4239 56.7682C38.3995 56.7736 38.3668 56.7782 38.3251 56.7845L38.2063 56.8008C38.1492 56.8135 38.1002 56.819 38.0494 56.8244L37.9714 56.8344C37.6504 56.8788 37.295 56.9015 36.8842 56.9015H36.6203C36.5977 56.9015 36.5732 56.9006 36.5496 56.8988C36.5179 56.897 36.4852 56.8952 36.4489 56.8952H36.4127C36.3891 56.8906 36.3565 56.8897 36.3129 56.8897H36.2141C36.0182 56.8734 35.8133 56.8462 35.6165 56.8181C35.6029 56.8126 35.5658 56.8117 35.5522 56.8117C35.2384 56.7573 34.9292 56.6848 34.6209 56.5923C34.629 56.5923 34.5891 56.5696 34.5356 56.5696C34.5293 56.5678 34.5057 56.5587 34.4921 56.5533C34.4495 56.5342 34.4177 56.5207 34.376 56.508L34.3325 56.4925C34.279 56.4735 34.2228 56.4526 34.1656 56.4363C34.1412 56.4282 34.1167 56.4182 34.094 56.4082C34.0714 56.3992 34.0496 56.3901 34.0278 56.3819L33.861 56.3112C33.8401 56.3021 33.8111 56.2894 33.7912 56.2767L33.5926 56.1761C33.5599 56.1561 33.549 56.1498 33.5391 56.1407C33.5282 56.1316 33.5173 56.1235 33.5055 56.118C33.4647 56.099 33.4239 56.079 33.3912 56.0582C33.3912 56.0546 33.3478 56.0265 33.3142 56.0047C33.1909 55.924 33.0531 55.8333 32.9597 55.7436L32.9315 55.7245C32.9252 55.7145 32.9161 55.7054 32.908 55.6982C32.8789 55.6746 32.8572 55.6592 32.8472 55.6456C32.8218 55.6193 32.81 55.6066 32.8091 55.6048C32.7991 55.5939 32.7892 55.584 32.7765 55.5758C32.7583 55.5631 32.7429 55.5404 32.7429 55.5404C32.7357 55.5296 32.7275 55.5205 32.7185 55.5123C32.6994 55.496 32.6867 55.4806 32.674 55.4652C32.6713 55.4624 32.6686 55.4597 32.6649 55.4561C32.6541 55.4379 32.6387 55.4225 32.6196 55.4108C32.6142 55.3981 32.6078 55.3881 32.6033 55.3799C32.5915 55.3545 32.5733 55.3319 32.5479 55.3164C32.538 55.2974 32.528 55.2793 32.5117 55.2666C32.4981 55.2439 32.4845 55.2221 32.4672 55.1995C32.4654 55.194 32.4636 55.1895 32.4618 55.1849C32.4537 55.1704 32.4464 55.1587 32.4391 55.1478C32.4364 55.1387 32.4328 55.1296 32.4283 55.1233C32.4138 55.1024 32.4002 55.0807 32.3929 55.0635C32.3848 55.0471 32.3747 55.0317 32.3639 55.0181V55.0172L32.3403 54.9664C32.3403 54.9573 32.3267 54.9283 32.3158 54.9066C32.314 54.8984 32.2995 54.8649 32.2968 54.8567C32.2796 54.8132 32.2723 54.7932 32.2641 54.7787C32.2641 54.7597 32.2623 54.7506 32.2542 54.7352C32.2524 54.728 32.2487 54.7216 32.2451 54.7153C31.9069 53.6534 31.6639 52.3458 31.4299 51.0809C31.3311 50.5422 31.234 50.0235 31.1352 49.5556C31.01 49.008 30.894 48.4611 30.7779 47.9153L30.6174 47.1626C30.6147 47.1499 30.6102 47.1381 30.6038 47.1264V47.1236V47.101C30.6038 47.0901 30.6002 47.0729 30.5974 47.062C30.5893 47.0275 30.5848 47.0085 30.5848 46.9885C30.5848 46.974 30.5821 46.9595 30.5775 46.9459C30.563 46.9024 30.5575 46.8679 30.5575 46.8317V46.6349C30.5575 46.5868 30.5322 46.5424 30.4913 46.5188L30.4823 46.5134C30.4678 46.5043 30.4524 46.4989 30.4352 46.4953C30.4977 45.6157 31.127 44.785 32.2224 44.1412C34.7034 42.6713 38.7966 42.6287 41.3456 44.0469C42.5643 44.7179 43.2616 45.6528 43.2616 46.6122C43.2616 46.6358 43.2598 46.6603 43.258 46.6848C43.2553 46.7165 43.2525 46.7482 43.2525 46.78C43.2525 46.799 43.2498 46.8126 43.2462 46.8271C43.2408 46.8525 43.2335 46.8833 43.2335 46.9205C43.2335 46.9232 43.2271 46.9459 43.2217 46.9622C43.2172 46.9758 43.2144 46.9903 43.2144 47.0048V47.1001C43.0594 47.8572 42.8907 48.6534 42.7021 49.5076L42.5199 50.4144C42.4673 50.671 42.4074 50.9403 42.3476 51.2151L42.3122 51.3774L41.8325 53.6752C41.8035 53.7858 41.7809 53.9046 41.7582 54.0234C41.7464 54.0832 41.7364 54.1431 41.7237 54.2029L41.6403 54.5919C41.6331 54.6091 41.6285 54.6273 41.6285 54.6463L41.6249 54.6744C41.6167 54.688 41.6058 54.7298 41.604 54.7452C41.5977 54.786 41.5786 54.8377 41.5487 54.8866C41.5433 54.8957 41.5314 54.9247 41.5287 54.9338C41.5052 54.9565 41.5033 54.971 41.5024 54.9991C41.5024 55.0009 41.5025 55.0027 41.5007 55.0045L41.4471 55.097C41.4172 55.1469 41.4027 55.1714 41.3782 55.2022C41.3764 55.204 41.3592 55.2285 41.3583 55.2303C41.3383 55.2602 41.3166 55.2901 41.2894 55.3237C41.2803 55.3346 41.2721 55.3455 41.2658 55.3582C41.2603 55.3636 41.234 55.4008 41.2304 55.408C41.2304 55.4062 41.2223 55.4171 41.2032 55.4343C41.1778 55.4643 41.157 55.4851 41.1361 55.5032C41.127 55.5105 41.1107 55.5323 41.0999 55.5468C41.0881 55.554 41.0726 55.5667 41.0635 55.5776C41.0536 55.5885 41.0373 55.6012 41.0219 55.6139C41.0164 55.6184 40.9901 55.6411 40.9847 55.6465C40.9674 55.6655 40.9475 55.6801 40.9276 55.6955C40.9085 55.71 40.8904 55.7245 40.8713 55.7399C40.8632 55.7463 40.8568 55.7544 40.8514 55.7617L40.8486 55.7644C40.8359 55.7716 40.8196 55.7825 40.8151 55.7862C40.8015 55.7989 40.7816 55.8161 40.7616 55.8279C40.7535 55.8324 40.7299 55.8533 40.7226 55.8605C40.7181 55.8632 40.7127 55.8678 40.7081 55.8723C40.6945 55.8805 40.6836 55.8904 40.6736 55.9022C40.66 55.9086 40.6483 55.9167 40.6374 55.9258C40.6238 55.9303 40.6111 55.9376 40.6002 55.9448C40.5403 55.9875 40.4941 56.021 40.4551 56.041C40.4325 56.0527 40.4125 56.0709 40.3989 56.0936L40.2456 56.1588C40.2456 56.1588 40.2157 56.177 40.2139 56.1779L40.136 56.2169C40.0834 56.2432 40.0289 56.2713 39.9709 56.2967L39.9782 56.4409L39.9319 56.313C39.6345 56.4454 39.3624 56.5451 39.1095 56.6159C39.0596 56.6267 39.0088 56.6404 38.9589 56.653L38.9245 56.6621L38.92 56.6603ZM40.8341 55.7753C40.8305 55.7798 40.8278 55.7853 40.8251 55.7907C40.8287 55.7844 40.8315 55.7798 40.8351 55.7753H40.8341ZM32.178 55.214C32.1726 55.2103 32.1671 55.2058 32.1626 55.2004C32.168 55.2049 32.1735 55.2103 32.178 55.214Z" fill="#0B4D5E"/>
<path d="M40.9184 56.2387C40.9184 56.2387 40.8912 56.2559 40.8731 56.2668C40.8822 56.2613 40.9003 56.2496 40.9093 56.2441L40.9184 56.2387ZM41.127 55.3011C41.127 55.3011 41.1179 55.3292 41.1089 55.341C41.1089 55.341 41.127 55.3065 41.127 55.3011ZM32.5488 55.0653H32.5397C32.5397 55.0653 32.5397 55.0426 32.5307 55.0317C32.5307 55.0426 32.5488 55.0544 32.5488 55.0653Z" fill="#0B4D5E"/>
<path d="M55.0098 52.1962C55.2002 51.2867 55.3906 50.3772 55.5811 49.4568C55.4632 50.0462 55.0098 50.6238 54.23 51.0845C52.3348 52.2071 49.2154 52.2352 47.2659 51.1516C46.4225 50.6918 45.942 50.0961 45.8059 49.4785C46.0054 50.388 46.2049 51.2976 46.4044 52.2071C46.5223 52.752 46.9485 53.268 47.683 53.6779C49.3968 54.6327 52.1444 54.5992 53.8129 53.6162C54.502 53.2118 54.901 52.7067 55.0189 52.1844H55.0098V52.1962Z" fill="#8AE5CC"/>
<path d="M50.6835 54.5076C51.8442 54.5076 53.0067 54.2482 53.8818 53.7332C54.58 53.3233 55.0189 52.7983 55.1512 52.2143C55.1549 52.1989 55.1558 52.1835 55.1531 52.1681C55.3381 51.2839 55.523 50.3998 55.708 49.5049C55.7098 49.4976 55.7116 49.4903 55.7134 49.4831C55.728 49.4096 55.6808 49.338 55.6073 49.3235C55.5303 49.309 55.4623 49.3561 55.4469 49.4296C55.4451 49.4368 55.4433 49.4432 55.4424 49.4504C55.3218 50.0117 54.8665 50.5495 54.1592 50.9675C52.3039 52.0665 49.2409 52.0955 47.3312 51.0328C46.5541 50.6093 46.0725 50.0616 45.9383 49.4495C45.9211 49.3761 45.8467 49.3307 45.776 49.3461C45.7026 49.3625 45.6563 49.435 45.6726 49.5085L46.2711 52.237C46.4008 52.8382 46.8651 53.3786 47.615 53.7975C48.4674 54.2718 49.5736 54.5085 50.6826 54.5085L50.6835 54.5076ZM54.8747 52.2034C54.745 52.694 54.356 53.1411 53.7439 53.4992C52.109 54.4622 49.4195 54.4903 47.7492 53.56C47.0691 53.18 46.6502 52.7031 46.5377 52.1798L46.1605 50.4579C46.4189 50.7616 46.768 51.0364 47.1997 51.2722C49.1873 52.3757 52.3702 52.3449 54.298 51.2023C54.6843 50.9747 55.0016 50.7109 55.2401 50.4252C55.1204 50.9983 55.0016 51.5696 54.8819 52.14C54.8756 52.1545 54.872 52.1699 54.872 52.1853C54.872 52.1916 54.8729 52.198 54.8747 52.2034Z" fill="#0B4D5E"/>
<path d="M44.1105 41.4915C44.1105 41.5423 44.1106 41.5985 44.1196 41.6548V41.6883C44.1196 41.7382 44.1287 41.789 44.1468 41.8452C44.1468 41.8842 44.1559 41.9187 44.1559 41.9576C44.1559 41.9576 44.1649 41.9912 44.1649 42.0021C44.1649 42.0138 44.174 42.0302 44.174 42.0474C44.3463 42.8445 44.5186 43.6415 44.6999 44.4386C45.0264 45.9829 45.3166 48.0884 45.8153 49.5928C45.8153 49.6036 45.8153 49.6154 45.8243 49.6372V49.6599C45.8243 49.6599 45.8243 49.6825 45.8334 49.6998C45.8425 49.7161 45.8516 49.7442 45.8606 49.7669C45.8788 49.8059 45.8878 49.8394 45.906 49.8793C45.906 49.8793 45.9241 49.9183 45.9332 49.9355C45.9332 49.9464 45.9422 49.9518 45.9513 49.9691V49.98C45.9694 50.0026 45.9875 50.0307 45.9966 50.0588C45.9966 50.0588 45.9966 50.0697 46.0057 50.0697C46.0148 50.0815 46.0239 50.0924 46.0329 50.1096C46.0329 50.1096 46.0329 50.1151 46.042 50.1205C46.0601 50.1486 46.0783 50.1822 46.1055 50.2157C46.1055 50.2212 46.1145 50.2329 46.1145 50.2384C46.1326 50.2556 46.1417 50.2774 46.1599 50.2946C46.169 50.3055 46.1871 50.3173 46.1871 50.3336C46.1871 50.3336 46.1961 50.3391 46.2052 50.3454C46.2143 50.3563 46.2233 50.3735 46.2415 50.3898C46.2415 50.3953 46.2505 50.4071 46.2596 50.4125C46.2778 50.4352 46.2959 50.4569 46.3231 50.4796C46.3231 50.4796 46.3594 50.5195 46.3684 50.5358L46.3956 50.5531C46.3956 50.5531 46.4138 50.5748 46.4319 50.592C46.4591 50.6147 46.4863 50.6428 46.5135 50.6646C46.5226 50.6709 46.5226 50.6764 46.5316 50.6818C46.5316 50.6927 46.5498 50.699 46.5589 50.7045C46.6677 50.7997 46.7946 50.8895 46.9306 50.9792H46.9397C46.9397 50.9792 46.9941 51.0191 47.0123 51.0355C47.0576 51.0636 47.0938 51.0808 47.1301 51.1026C47.1664 51.1198 47.1754 51.137 47.2027 51.1479C47.2208 51.1588 47.248 51.1706 47.2661 51.1815C47.3115 51.2041 47.3659 51.2322 47.4203 51.2549C47.4475 51.2712 47.4747 51.283 47.5019 51.2993C47.5563 51.322 47.6198 51.3501 47.6742 51.3728C47.7195 51.3891 47.7739 51.4118 47.8193 51.429C47.8918 51.4508 47.9644 51.4789 48.0279 51.5015C48.0641 51.5124 48.0913 51.5242 48.1276 51.5405C48.1548 51.5523 48.1911 51.5632 48.2273 51.5687C48.2455 51.5687 48.2636 51.5804 48.2817 51.5859C48.581 51.6811 48.9074 51.7545 49.2338 51.8108H49.2429C49.2429 51.8108 49.2702 51.8107 49.2792 51.8162C49.4878 51.8497 49.6963 51.8724 49.9049 51.8887H50.0046C50.0318 51.8887 50.0772 51.8887 50.1044 51.8942H50.1406C50.195 51.8942 50.2585 51.9005 50.3129 51.9005H50.5759C50.9477 51.9005 51.3195 51.8833 51.6912 51.8325C51.7638 51.8216 51.8454 51.8162 51.9179 51.799C51.9542 51.7935 51.9996 51.7881 52.0449 51.7826C52.0812 51.7763 52.1174 51.7708 52.1537 51.7654C52.1628 51.7654 52.1718 51.76 52.1809 51.76C52.335 51.7373 52.4802 51.6983 52.6162 51.6584H52.6343C52.6978 51.6421 52.7613 51.6249 52.8247 51.6086C53.124 51.5297 53.396 51.4226 53.659 51.3048C53.6771 51.2993 53.6952 51.2885 53.7224 51.283C53.795 51.2431 53.8857 51.2041 53.9582 51.1588C53.9763 51.1533 53.9854 51.1479 53.9945 51.1425C54.0489 51.1198 54.1033 51.0862 54.1577 51.0636C54.1667 51.0527 54.1939 51.0355 54.2121 51.0246C54.2574 51.0019 54.3028 50.9629 54.3753 50.9176C54.3844 50.9121 54.3935 50.9012 54.4116 50.8949C54.4207 50.8895 54.4207 50.884 54.4298 50.884C54.4388 50.8731 54.4569 50.8668 54.466 50.8505C54.466 50.8505 54.4751 50.8505 54.4751 50.845C54.4932 50.8332 54.5023 50.8224 54.5295 50.8051C54.5476 50.7888 54.5748 50.7661 54.593 50.7489C54.602 50.738 54.6292 50.7326 54.6383 50.7154C54.6383 50.7099 54.6474 50.7099 54.6474 50.7045C54.6927 50.6646 54.7381 50.6374 54.7743 50.5975C54.8106 50.5748 54.8378 50.5467 54.8559 50.5249C54.865 50.5195 54.8741 50.5131 54.8741 50.5077C54.8922 50.4968 54.9013 50.485 54.9194 50.4687C54.9466 50.446 54.9647 50.4179 54.9829 50.3953C55.0101 50.3789 55.0191 50.3563 55.0373 50.3336C55.0464 50.3173 55.0645 50.3001 55.0735 50.2828C55.0735 50.2774 55.0826 50.2719 55.0826 50.2719C55.1189 50.2275 55.1461 50.1876 55.1733 50.1486C55.2005 50.1033 55.2277 50.0697 55.2549 50.0253C55.273 49.9972 55.2912 49.9636 55.3002 49.9292C55.3093 49.9183 55.3184 49.9129 55.3275 49.8956C55.3275 49.8956 55.3275 49.8793 55.3365 49.8739C55.3456 49.8566 55.3456 49.834 55.3546 49.8177C55.3909 49.756 55.4091 49.688 55.4363 49.6263C55.4453 49.5928 55.4544 49.5647 55.4544 49.5311V49.5084C55.4544 49.5084 55.4635 49.4803 55.4725 49.464V49.4241L55.5451 49.0931C55.5723 48.919 55.6176 48.7395 55.6539 48.5654L56.1435 46.2694C56.207 45.9375 56.2796 45.612 56.3431 45.3037L56.5335 44.3996C56.6967 43.5853 56.8781 42.7719 57.0413 41.9631C57.0413 41.9522 57.0413 41.9404 57.0503 41.9241V41.8679C57.0503 41.8679 57.0685 41.8116 57.0685 41.789C57.0685 41.7445 57.0776 41.6992 57.0866 41.6602V41.6484C57.0866 41.5922 57.0957 41.5369 57.0957 41.4807C57.0957 40.5032 56.4247 39.5211 55.1098 38.7911C52.5074 37.3485 48.3633 37.3929 45.8425 38.8863C44.6092 39.6163 43.9927 40.5648 43.9927 41.5024L44.1105 41.4915Z" fill="#F0F4FF"/>
<path d="M50.3129 52.0375H50.5759C50.9985 52.0375 51.3685 52.0148 51.7094 51.9677L51.7847 51.9577C51.8409 51.9514 51.8971 51.9441 51.9497 51.9314L52.1755 51.8997C52.3577 51.8716 52.5046 51.8326 52.6388 51.7936C52.6506 51.7936 52.6615 51.7918 52.6679 51.7909L52.8592 51.7401C53.1276 51.6694 53.3915 51.5732 53.7152 51.429C53.7288 51.4263 53.7751 51.4091 53.7877 51.4018C53.8131 51.3873 53.843 51.3737 53.872 51.3592C53.921 51.3347 53.9709 51.3094 54.0153 51.2831C54.0362 51.2758 54.0516 51.2667 54.0643 51.2595C54.0779 51.2559 54.1087 51.2404 54.1386 51.2241C54.1622 51.2114 54.1867 51.1996 54.2103 51.1888C54.2303 51.1806 54.2484 51.1679 54.2629 51.1507C54.2629 51.1507 54.2765 51.1452 54.2838 51.1398C54.3028 51.1307 54.3345 51.1099 54.3708 51.0845C54.3926 51.0691 54.417 51.0518 54.447 51.0328C54.4533 51.031 54.4706 51.0165 54.4769 51.0138C54.4796 51.0119 54.4832 51.0101 54.4878 51.0074C54.5068 50.9983 54.5231 50.9856 54.5367 50.9693C54.5367 50.9702 54.5422 50.9693 54.5576 50.9539C54.5667 50.9475 54.5748 50.9412 54.5821 50.9349C54.5884 50.9312 54.6138 50.9122 54.6193 50.9077C54.6546 50.8768 54.6746 50.8605 54.6873 50.8469C54.6927 50.8469 54.7208 50.8315 54.7435 50.8006C54.7571 50.7898 54.7689 50.7798 54.7825 50.7698C54.8097 50.7481 54.8369 50.7272 54.8605 50.7027C54.9022 50.6737 54.933 50.6429 54.9539 50.6184C54.9539 50.6184 54.9557 50.6175 54.9566 50.6166C54.9747 50.6039 54.9865 50.5921 54.9965 50.5821C55.0391 50.5458 55.0618 50.5159 55.0781 50.4933C55.0971 50.4851 55.1207 50.4506 55.1352 50.4298C55.1379 50.4261 55.1534 50.4035 55.1552 50.3989C55.1588 50.3944 55.1706 50.3799 55.1788 50.3663C55.1815 50.3636 55.1833 50.3618 55.186 50.359C55.2205 50.3164 55.2477 50.2774 55.2758 50.2394C55.3021 50.1967 55.3147 50.1786 55.3283 50.1605C55.342 50.1405 55.3556 50.1206 55.3701 50.0979C55.3918 50.0634 55.4082 50.0317 55.4199 50.0009C55.4281 49.9918 55.4362 49.9809 55.4444 49.9655C55.4499 49.9564 55.4544 49.9464 55.4571 49.9365C55.4698 49.9129 55.4743 49.8912 55.4771 49.8766C55.4979 49.8395 55.5179 49.7887 55.5369 49.7388L55.5587 49.6808C55.5768 49.6227 55.5886 49.5828 55.5886 49.5321C55.6013 49.5112 55.6076 49.4894 55.6076 49.465V49.4251L55.6756 49.1231C55.6947 48.9989 55.7219 48.8801 55.7482 48.7622L56.2742 46.2994C56.315 46.0908 56.3576 45.8868 56.4002 45.6882L56.6649 44.4296C56.7502 44.0061 56.8391 43.5854 56.928 43.1646C57.0114 42.772 57.0948 42.3812 57.1737 41.9912C57.1846 41.9713 57.1855 41.9486 57.1855 41.925V41.8797C57.1955 41.8607 57.2045 41.8199 57.2045 41.7899C57.2045 41.7591 57.2118 41.7228 57.219 41.692C57.2208 41.682 57.2226 41.6603 57.2226 41.6503C57.2226 41.6258 57.2245 41.6013 57.2263 41.5768C57.229 41.5451 57.2317 41.5143 57.2317 41.4825C57.2317 40.4225 56.4827 39.3987 55.176 38.6742C52.5445 37.2152 48.3262 37.2587 45.7727 38.7712C44.5376 39.5021 43.8566 40.4724 43.8566 41.5043C43.8566 41.5424 43.8739 41.5796 43.9011 41.6049C43.9228 41.6249 43.9519 41.6376 43.9809 41.6403C43.9809 41.653 43.9836 41.6657 43.9854 41.6784C43.9854 41.7482 43.9936 41.8081 44.0117 41.8706C44.0117 41.8879 44.0144 41.9042 44.0171 41.9205C44.0171 41.9332 44.0198 41.9468 44.0198 41.9604C44.0198 41.9722 44.0217 41.984 44.0244 41.9949C44.0244 42.0076 44.0352 42.0493 44.0389 42.0611C44.2139 42.8763 44.3871 43.6733 44.5675 44.4713C44.6664 44.9392 44.7625 45.4597 44.8622 46.001C45.0944 47.2633 45.3347 48.569 45.6811 49.62C45.6811 49.6336 45.6838 49.6472 45.6892 49.6635C45.6892 49.6962 45.6956 49.7306 45.7119 49.7642C45.7183 49.776 45.7228 49.7887 45.7282 49.8023C45.7473 49.8458 45.7518 49.8612 45.7581 49.8775C45.7654 49.8966 45.7726 49.9165 45.7817 49.9374L45.8117 50C45.8162 50.009 45.8198 50.0172 45.8243 50.0244C45.8289 50.0408 45.8361 50.0553 45.8443 50.0661C45.8579 50.0834 45.8652 50.0979 45.8679 50.1051C45.8751 50.1233 45.8851 50.1396 45.8969 50.1541C45.9014 50.1587 45.906 50.1632 45.9105 50.1677C45.9159 50.1795 45.9223 50.1904 45.9295 50.2004C45.9495 50.2348 45.9667 50.2602 45.9858 50.2856C45.993 50.3046 46.0048 50.3237 46.0193 50.3382C46.032 50.3572 46.0447 50.3763 46.0638 50.3944C46.0755 50.418 46.0928 50.4388 46.1173 50.4524C46.1173 50.4524 46.1254 50.4688 46.1436 50.4869C46.1472 50.4905 46.1499 50.4951 46.1535 50.4996C46.1735 50.5259 46.1979 50.554 46.2324 50.583C46.2324 50.5848 46.2469 50.5993 46.2524 50.6093C46.2632 50.6247 46.2805 50.6438 46.2959 50.6528V50.651C46.2959 50.651 46.3186 50.6728 46.3376 50.6909L46.3793 50.729C46.3947 50.7426 46.4083 50.7562 46.4237 50.768C46.4382 50.7889 46.4609 50.8088 46.4945 50.8251C46.5924 50.9167 46.7339 51.0137 46.8554 51.0944C46.8644 51.1008 46.8744 51.1053 46.8844 51.1089C46.8989 51.1198 46.9143 51.1316 46.9225 51.1398C46.9696 51.1706 46.9941 51.1842 47.0167 51.1969L47.0603 51.2214C47.1002 51.2477 47.1192 51.2631 47.1501 51.2758C47.1537 51.2776 47.2027 51.3039 47.2063 51.3057C47.2761 51.3402 47.3223 51.3629 47.3686 51.3819L47.4303 51.4172L47.7712 51.5587C47.8383 51.5787 47.8964 51.6004 47.9481 51.6195L47.9807 51.6313C48.0197 51.6431 48.0414 51.653 48.0722 51.6666C48.1176 51.6857 48.1648 51.6984 48.2083 51.7047C48.2128 51.7065 48.2373 51.7165 48.2428 51.7174C48.5239 51.8072 48.8494 51.8843 49.2103 51.9459L49.2429 51.8117L49.2466 51.9477C49.2466 51.9477 49.2321 51.9459 49.2157 51.9369C49.2293 51.9441 49.2429 51.9486 49.2574 51.9514C49.4524 51.9831 49.6601 52.0076 49.894 52.0257H50.0046C50.0228 52.0257 50.0572 52.0257 50.0771 52.0284L50.1397 52.0311C50.1642 52.0311 50.1923 52.033 50.2196 52.0339C50.2513 52.0357 50.283 52.0375 50.3129 52.0375ZM52.1265 51.6331L51.898 51.6648C51.8427 51.6775 51.7974 51.6829 51.752 51.6875L51.6704 51.6984C51.3448 51.7428 50.9858 51.7655 50.5759 51.7655H50.3129C50.2884 51.7655 50.2612 51.7637 50.2349 51.7627C50.2023 51.7609 50.1706 51.7591 50.1406 51.7591H50.1044C50.0971 51.7555 50.04 51.7537 50.0055 51.7537H49.9058C49.6954 51.7364 49.4978 51.7138 49.3146 51.6848C49.2974 51.6802 49.2747 51.6757 49.2439 51.6757C48.9093 51.6177 48.5946 51.5433 48.3243 51.4572C48.299 51.4463 48.2681 51.4336 48.2292 51.4336C48.2273 51.4318 48.202 51.4245 48.1811 51.4164C48.1421 51.3982 48.1094 51.3846 48.0668 51.3719L48.0432 51.3628C47.9861 51.342 47.9227 51.3184 47.8601 51.2994L47.5545 51.1743C47.5545 51.1743 47.54 51.1652 47.5237 51.1561L47.4919 51.138C47.4348 51.1126 47.394 51.0926 47.3577 51.0745C47.3278 51.0582 47.3097 51.05 47.2934 51.041C47.2906 51.04 47.2598 51.0237 47.2571 51.0219C47.2435 51.0101 47.2235 50.9947 47.1918 50.9793L47.1501 50.9557C47.131 50.9448 47.1101 50.934 47.0875 50.9194C47.0848 50.9149 47.0241 50.8696 47.0241 50.8696C47.0114 50.8605 46.9987 50.8533 46.9841 50.8496C46.8762 50.7771 46.7547 50.6927 46.6531 50.603C46.6477 50.5993 46.6423 50.5948 46.635 50.5903C46.6305 50.5848 46.6241 50.5794 46.6187 50.5749C46.6114 50.5676 46.6024 50.5594 46.5978 50.5558L46.5226 50.4878C46.5162 50.4815 46.5035 50.4651 46.5026 50.4642C46.4936 50.4542 46.4836 50.4452 46.4718 50.4379H46.47C46.4591 50.4243 46.4455 50.408 46.4274 50.3881C46.3965 50.3609 46.3847 50.3473 46.3711 50.3282C46.3675 50.3237 46.363 50.3192 46.3585 50.3146C46.353 50.3056 46.3458 50.2974 46.3376 50.2892C46.3376 50.2874 46.3177 50.262 46.3159 50.2593C46.3113 50.2539 46.3059 50.2475 46.2995 50.243C46.2877 50.2248 46.275 50.2122 46.2669 50.2049C46.2542 50.1886 46.246 50.1768 46.2379 50.1668C46.2324 50.1532 46.2242 50.1405 46.2152 50.1287C46.1979 50.1079 46.1862 50.087 46.1744 50.068C46.1699 50.0607 46.1635 50.0516 46.1562 50.0426C46.1426 50.0208 46.1318 50.0045 46.12 49.99C46.1091 49.9655 46.0964 49.9428 46.0837 49.9247C46.081 49.9165 46.0782 49.9084 46.0746 49.9029C46.0728 49.9002 46.0683 49.8929 46.0638 49.8857C46.0619 49.8821 46.0601 49.8775 46.0583 49.8739L46.0166 49.7805C46.0075 49.7569 45.9985 49.7343 45.9876 49.7089C45.9758 49.679 45.9667 49.6526 45.9568 49.6354C45.9568 49.6173 45.9613 49.6028 45.954 49.5865C45.954 49.572 45.954 49.5647 45.9486 49.5502C45.6049 48.5137 45.3646 47.2098 45.1334 45.9493C45.0336 45.4062 44.9366 44.8821 44.8368 44.4105C44.6564 43.6117 44.4832 42.8155 44.311 42.0184C44.311 42.0157 44.3064 41.994 44.3046 41.9849C44.3046 41.9849 44.3028 41.9686 44.2955 41.9387C44.2955 41.9205 44.2928 41.9024 44.2901 41.8842C44.2901 41.8715 44.2874 41.8579 44.2874 41.8443C44.2874 41.8298 44.2847 41.8153 44.2801 41.8017C44.2656 41.7591 44.2601 41.7228 44.2601 41.6875C44.2601 41.6802 44.2601 41.6394 44.2583 41.6322C44.2502 41.5832 44.2511 41.5342 44.2511 41.4907C44.2511 41.4526 44.2338 41.4154 44.2066 41.39C44.1876 41.3719 44.1631 41.361 44.1377 41.3565C44.1994 40.4787 44.826 39.6472 45.915 39.0025C48.3951 37.5335 52.492 37.4918 55.0482 38.9091C56.2651 39.5846 56.9624 40.5213 56.9624 41.4789C56.9624 41.5034 56.9606 41.5279 56.9588 41.5523C56.9561 41.5841 56.9533 41.6149 56.9533 41.6467C56.946 41.6748 56.9352 41.7292 56.9352 41.7872C56.9334 41.7954 56.9243 41.8226 56.9234 41.8244C56.9189 41.838 56.9162 41.8525 56.9162 41.867V41.8978C56.9071 41.9269 56.9071 41.9504 56.9071 41.9622C56.8318 42.324 56.7484 42.7149 56.6659 43.1057C56.5761 43.5273 56.4872 43.949 56.402 44.3715L56.1372 45.6284C56.0946 45.8288 56.051 46.0337 56.0111 46.2422L55.4861 48.6996C55.4589 48.8239 55.4309 48.9481 55.4118 49.0696L55.3401 49.4278C55.3338 49.4432 55.3283 49.4577 55.3265 49.465C55.322 49.4786 55.3193 49.4922 55.3193 49.5058C55.3193 49.5402 55.3157 49.5538 55.3084 49.5783C55.3021 49.5928 55.293 49.6164 55.2848 49.64C55.2712 49.6753 55.2585 49.7116 55.2386 49.7461C55.2313 49.7569 55.2195 49.7923 55.215 49.8086C55.2105 49.8177 55.206 49.8268 55.2023 49.8358C55.1896 49.8531 55.1742 49.8766 55.1697 49.8921C55.166 49.9057 55.1561 49.9247 55.1416 49.9483C55.1298 49.9682 55.1189 49.9845 55.1071 50C55.0908 50.0244 55.0744 50.048 55.0572 50.0761C55.0327 50.1106 55.0092 50.1451 54.9783 50.1813C54.9693 50.1922 54.9611 50.204 54.9557 50.2176H54.9539C54.9484 50.223 54.923 50.2575 54.9194 50.2656C54.9049 50.2738 54.8877 50.2947 54.8768 50.3073C54.8523 50.3409 54.8432 50.3536 54.8342 50.36L54.8886 50.4951L54.8024 50.389C54.7906 50.3962 54.7807 50.4053 54.7725 50.4153C54.7644 50.4216 54.7571 50.428 54.7525 50.4343C54.7444 50.4443 54.7281 50.4624 54.7036 50.4778C54.6927 50.4842 54.6846 50.4923 54.6755 50.5005C54.6592 50.5186 54.6401 50.5332 54.6193 50.5486C54.6002 50.564 54.5794 50.5794 54.5594 50.5975C54.554 50.6021 54.5485 50.6084 54.5431 50.6148C54.5431 50.6148 54.5413 50.6166 54.5404 50.6175C54.5223 50.6293 54.4968 50.6483 54.4878 50.6592L54.4615 50.68C54.4379 50.6991 54.4243 50.7082 54.4134 50.7172C54.4089 50.72 54.4043 50.7236 54.3998 50.7272C54.3835 50.7363 54.3708 50.7481 54.359 50.7626C54.3545 50.7653 54.3491 50.768 54.3445 50.7716C54.3237 50.7816 54.3091 50.7925 54.301 50.7988C54.2692 50.8188 54.2402 50.8387 54.2139 50.8569C54.1912 50.8732 54.1713 50.8877 54.1514 50.8977C54.1242 50.9149 54.1015 50.9285 54.0842 50.9421C54.0616 50.953 54.0371 50.9648 54.0144 50.9775C53.9909 50.9902 53.9663 51.002 53.9428 51.0128C53.9292 51.0165 53.8966 51.0319 53.8866 51.0391C53.8458 51.0645 53.7977 51.0881 53.7533 51.1108C53.7261 51.1244 53.6998 51.1371 53.6753 51.1507C53.6553 51.1561 53.6399 51.1624 53.6281 51.167C53.2953 51.3148 53.0442 51.4055 52.7912 51.4726L52.6152 51.5188C52.6016 51.5188 52.588 51.5206 52.5799 51.5233C52.4502 51.5614 52.3106 51.5986 52.1628 51.6204L52.1691 51.7573L52.1283 51.6276L52.1265 51.6331ZM54.3427 50.8152C54.34 50.8251 54.3382 50.8351 54.3382 50.8451C54.3382 50.8342 54.34 50.8242 54.3427 50.8152ZM54.3708 50.7617C54.3708 50.7617 54.3708 50.7617 54.369 50.7617C54.3726 50.7571 54.3781 50.7517 54.3826 50.7472C54.379 50.7517 54.3744 50.7562 54.3708 50.7607V50.7617ZM54.5295 50.6338C54.525 50.6402 54.5204 50.6474 54.5168 50.6538C54.5213 50.6456 54.525 50.6383 54.5295 50.6338ZM46.1254 50.0136C46.1336 50.0208 46.1417 50.029 46.1472 50.0389C46.1399 50.0299 46.1318 50.0217 46.1254 50.0154V50.0136Z" fill="#0B4D5E"/>
<path d="M46.0874 50.3328L45.9423 50.3999L46.1418 50.2657L46.0783 50.3328H46.0874ZM55.6086 49.9737C55.6086 49.9737 55.5905 50.0127 55.5814 50.0299C55.5814 50.0299 55.5996 49.99 55.6086 49.9791V49.9737Z" fill="#0B4D5E"/>
<path d="M45.9421 50.5359C45.9611 50.5359 45.9802 50.5323 45.9983 50.5232L46.1434 50.4561C46.1734 50.4425 46.1969 50.4189 46.2096 50.3908L46.2395 50.3582C46.2876 50.3074 46.2894 50.2294 46.244 50.1768C46.1996 50.1242 46.1216 50.1142 46.0645 50.1523L45.865 50.2865C45.807 50.3264 45.788 50.4044 45.8224 50.4661C45.8469 50.5096 45.8931 50.535 45.9412 50.535L45.9421 50.5359ZM55.5812 50.1668C55.6311 50.1668 55.6783 50.1396 55.7027 50.0925L55.7046 50.088C55.7245 50.0635 55.7454 50.0118 55.7454 49.98C55.7454 49.9166 55.7009 49.8585 55.6393 49.8449C55.5776 49.8322 55.5132 49.8585 55.486 49.9165L55.4733 49.942C55.4688 49.951 55.4633 49.961 55.4579 49.9737C55.4271 50.0408 55.4552 50.1206 55.5214 50.1532C55.5404 50.1623 55.5613 50.1668 55.5812 50.1668Z" fill="#0B4D5E"/>
<path d="M8.74596 30.6583C8.77316 31.1633 8.90009 32.2469 9.00891 32.7357C9.06331 33.0385 9.14492 33.4539 9.2356 33.7576C9.39882 34.3416 9.62553 35.1214 9.81596 35.6945C10.0517 36.3565 10.4598 37.3113 10.6049 37.6033C10.7499 37.8781 10.9222 38.2598 11.0673 38.5237C11.2215 38.793 11.4119 39.1584 11.566 39.4278C11.7293 39.6971 11.9469 40.0453 12.1011 40.3091C12.3822 40.7634 12.4728 40.8813 13.298 41.9876C13.4793 42.2288 13.7423 42.5435 13.9418 42.7792C14.368 43.3015 15.0299 43.9526 15.3473 44.2609C15.5196 44.435 16.1997 45.0589 16.9251 45.6084C17.3513 45.9285 17.8864 46.3157 18.6753 46.7709L19.8903 47.461L21.1054 48.1519L22.3205 48.8429L23.5265 49.533L24.7416 50.2239L25.9476 50.914L27.1628 51.605L28.3778 52.295L29.5929 52.986L30.7717 53.6652C30.7717 53.6652 30.7899 53.6761 30.808 53.6815C31.3067 53.9517 31.9868 54.299 32.5218 54.5185C33.0296 54.7261 33.7369 54.9619 34.2719 55.0907C34.7978 55.2085 35.487 55.3545 36.0039 55.3944C36.4664 55.4334 37.0739 55.4615 37.5364 55.467C37.7993 55.467 38.153 55.4561 38.4159 55.4334C39.7398 55.3545 41.2179 55.0689 42.6053 54.6255C43.6843 54.2773 44.4007 53.9626 44.4732 53.9345C44.7453 53.8166 45.0899 53.6706 45.3528 53.5419C45.8334 53.3061 46.4682 52.9688 46.9397 52.7049L48.9981 51.5206C49.0616 51.4807 49.1341 51.4418 49.1976 51.3973C49.4152 51.2677 49.651 51.1271 49.8414 51.0092C50.1135 50.8351 50.4762 50.6057 50.7392 50.4089C51.2016 50.0716 51.8001 49.6119 52.2353 49.2582C52.4892 49.056 52.7794 48.7867 53.0242 48.5672C53.2509 48.3542 53.5501 48.0676 53.7587 47.8373C54.1123 47.4446 54.593 46.906 54.9194 46.4962C55.128 46.254 55.3637 45.9067 55.5451 45.6429C55.6902 45.4289 55.8715 45.1369 56.0076 44.9183C56.0076 44.9065 56.5788 43.958 56.9053 43.1156C57.0594 42.723 57.2317 42.1953 57.3587 41.7908C57.4403 41.527 57.5037 41.1679 57.5672 40.8986C57.7032 40.3536 57.7758 39.6073 57.8121 39.0514C57.8393 38.5237 57.8211 37.811 57.803 37.2778C57.7848 36.7836 57.6398 35.6719 57.54 35.1886C57.4766 34.8802 57.3949 34.4595 57.3133 34.1557C57.1501 33.5609 56.9234 32.7801 56.7239 32.1971C56.4881 31.5288 56.071 30.5685 55.9259 30.2656C55.7899 29.9845 55.6176 29.6082 55.4635 29.3389C55.3093 29.0641 55.1189 28.6987 54.9647 28.4294C54.8015 28.1601 54.5748 27.8064 54.4207 27.5425C54.1305 27.0819 54.0489 26.964 53.2147 25.8469C53.0242 25.6002 52.7522 25.2855 52.5618 25.0443C52.1265 24.5166 51.4646 23.8655 51.1381 23.5454C50.9568 23.3713 50.2858 22.7429 49.5422 22.1871C49.116 21.867 48.5719 21.4734 47.783 21.0191C47.774 21.0191 47.7649 21.0137 47.7558 21.0073L46.5861 20.3399L45.3891 19.6608L44.1921 18.9752L42.9952 18.296L41.7983 17.6169L40.6103 16.9322L39.4134 16.2522L38.2165 15.573L37.0195 14.8884L35.8225 14.2092C35.3238 13.9399 34.6437 13.5862 34.1087 13.3722C33.5828 13.1591 32.8664 12.9233 32.3224 12.7946C31.8055 12.6704 31.1163 12.5416 30.5994 12.4908C30.3274 12.4691 29.9738 12.4346 29.7108 12.4237C29.2937 12.4128 28.7405 12.4128 28.3325 12.4346C27.5617 12.4799 26.9995 12.5525 26.2922 12.6767C25.2766 12.8562 24.3698 13.1364 24.3517 13.1364C24.0434 13.2326 23.6353 13.3559 23.3361 13.4683C22.8011 13.6642 22.0938 13.9453 21.5769 14.1693C21.5679 14.1693 20.7518 14.5238 19.6274 15.1695L17.5599 16.3537C17.315 16.5106 16.9614 16.7019 16.7166 16.8642C16.2904 17.1453 15.7191 17.5325 15.302 17.8354C14.64 18.3069 13.7695 19.0931 13.7604 19.0985C13.3615 19.4749 12.8446 19.9863 12.4728 20.3844C12.2643 20.6093 11.9922 20.9348 11.7927 21.1706C11.7837 21.176 11.2396 21.8334 10.6593 22.7593C10.0971 23.6742 9.78876 24.3933 9.70715 24.5955C9.53486 25.0108 9.33537 25.5884 9.19935 26.0155C9.11774 26.2794 9.04521 26.6439 8.98173 26.9141C8.84571 27.4637 8.77314 28.2108 8.72781 28.7721C8.69154 29.3334 8.70967 30.0861 8.72781 30.6474H8.74596V30.6583Z" fill="#F0F4FF"/>
<path d="M37.5343 55.603C37.7665 55.603 38.1373 55.5939 38.4266 55.5694C39.7514 55.4905 41.2503 55.2013 42.6459 54.756C43.277 54.552 43.8899 54.3262 44.4685 54.0841L44.6345 54.0134C44.8875 53.9037 45.1812 53.7776 45.4116 53.6652C45.8641 53.443 46.4897 53.1129 47.0057 52.8246L49.1403 51.5941C49.1856 51.5669 49.2327 51.5388 49.2735 51.5098C49.483 51.3855 49.7197 51.245 49.911 51.1262L49.9563 51.0972C50.2275 50.924 50.5657 50.7091 50.8187 50.5195C51.2839 50.1804 51.8869 49.7161 52.3194 49.3661C52.5226 49.2038 52.752 48.9962 52.9542 48.8139L53.1129 48.6706C53.4466 48.3578 53.6896 48.1165 53.8573 47.9307C54.1965 47.5543 54.687 47.0048 55.0235 46.5832C55.2184 46.3565 55.4379 46.0364 55.6147 45.7798L55.6546 45.7218C55.796 45.5123 55.9728 45.2303 56.108 45.0126C56.1143 45.0036 56.1207 44.9909 56.1271 44.9764H56.1288C56.1343 44.9673 56.1488 44.941 56.1714 44.9011C56.3165 44.6463 56.7573 43.871 57.0293 43.1664C57.1544 42.849 57.3086 42.4002 57.4863 41.8326C57.5425 41.6503 57.5888 41.4317 57.6341 41.2205C57.655 41.1189 57.6767 41.0201 57.6967 40.9312C57.8381 40.3645 57.9089 39.6019 57.9442 39.0614C57.966 38.6452 57.9633 38.0612 57.9361 37.2741C57.917 36.7582 57.7701 35.6474 57.6695 35.1622L57.6332 34.9854C57.5761 34.6989 57.509 34.3743 57.441 34.1213C57.343 33.7622 57.0873 32.8508 56.8488 32.1544C56.6167 31.4952 56.2032 30.5376 56.0463 30.2085L55.9493 30.0062C55.8323 29.7623 55.7008 29.4858 55.5784 29.2727C55.5104 29.1503 55.4342 29.0088 55.3571 28.8664C55.2619 28.6905 55.1658 28.5119 55.0797 28.3632C55.0126 28.2516 54.9373 28.1301 54.8602 28.0059C54.7451 27.8218 54.6272 27.6323 54.5365 27.4754C54.2427 27.0093 54.1557 26.8851 53.3214 25.767C53.2135 25.6265 53.0802 25.466 52.9505 25.31C52.8499 25.1876 52.7493 25.0679 52.6658 24.9618C52.2242 24.4259 51.5532 23.7676 51.2322 23.4502C51.0998 23.3242 50.4107 22.6695 49.6218 22.0801C49.1593 21.7328 48.6243 21.3492 47.8499 20.903C47.8399 20.8976 47.83 20.8931 47.82 20.8903L35.8885 14.0922C35.1522 13.695 34.5872 13.4194 34.1583 13.2471C33.6016 13.0213 32.8762 12.7873 32.353 12.6631C31.7717 12.5234 31.088 12.4028 30.6119 12.3566L30.3988 12.3385C30.1694 12.3185 29.9164 12.2968 29.716 12.2886C29.3306 12.2777 28.7621 12.2759 28.325 12.2995C27.5941 12.3421 27.0374 12.4083 26.2675 12.5434C25.4251 12.693 24.6562 12.9106 24.4032 12.9823C24.3605 12.9941 24.3342 13.0013 24.3233 13.0041L24.1683 13.0512C23.8772 13.1419 23.5454 13.2443 23.2869 13.3414C22.7338 13.5445 22.0229 13.8274 21.5214 14.045L21.5232 14.0487C21.2929 14.1321 20.4124 14.5619 19.5582 15.0525L17.4916 16.2367C17.3756 16.3111 17.2432 16.3882 17.1081 16.4671C16.9431 16.5632 16.7753 16.662 16.6402 16.7518C16.234 17.0193 15.6473 17.4156 15.2211 17.7257C14.9563 17.9143 14.4802 18.2815 13.7149 18.958L13.6741 18.9934C13.2225 19.4186 12.7138 19.9255 12.3719 20.2919C12.1942 20.4841 11.9721 20.7471 11.7853 20.9683L11.6882 21.0835L11.6901 21.0853C11.5495 21.2377 11.0254 21.9196 10.543 22.6885C9.96626 23.6261 9.65976 24.347 9.57996 24.5456C9.39861 24.9827 9.19731 25.5712 9.06945 25.9756C9.0087 26.1706 8.95338 26.419 8.90442 26.6375L8.84818 26.8833C8.71126 27.4337 8.63872 28.1764 8.59066 28.7612C8.55529 29.3108 8.57071 30.0262 8.59066 30.6519C8.59066 30.6773 8.59972 30.7018 8.61241 30.7217C8.64687 31.2767 8.77113 32.2959 8.87541 32.7647C8.9534 33.2 9.03046 33.5491 9.10482 33.7957C9.20366 34.153 9.46209 35.0607 9.68606 35.7371C9.9182 36.3891 10.329 37.3548 10.4822 37.664C10.5493 37.791 10.62 37.9361 10.6908 38.0821C10.7787 38.2616 10.8667 38.443 10.9465 38.589C11.0245 38.725 11.1106 38.8828 11.1958 39.0406C11.282 39.2001 11.3681 39.3597 11.4461 39.4949L11.6211 39.7823C11.7472 39.9854 11.8787 40.2003 11.9811 40.3772C12.2559 40.8206 12.3502 40.9484 13.0892 41.9386L13.1862 42.0692C13.3667 42.3095 13.6278 42.6214 13.8355 42.8672C14.142 43.2435 14.6326 43.7595 15.251 44.3588C15.4106 44.5193 16.0871 45.145 16.8406 45.7172C17.2976 46.06 17.8272 46.4399 18.6052 46.8888L30.7017 53.7831C30.7017 53.7831 30.7343 53.8021 30.7688 53.8121C31.0508 53.968 31.837 54.3852 32.4681 54.6436C33.014 54.8667 33.7249 55.0988 34.2373 55.2221C34.7804 55.3436 35.4677 55.4887 35.9909 55.5295C36.4489 55.5676 37.0546 55.5966 37.5325 55.6021L37.5343 55.603ZM55.8886 44.8512C55.7435 45.0852 55.5703 45.3617 55.4315 45.5667L55.3916 45.6238C55.2193 45.875 55.0035 46.1887 54.8149 46.4082C54.4803 46.828 53.9942 47.373 53.6569 47.7466C53.4937 47.9261 53.2562 48.1628 52.9306 48.4684L52.7728 48.6099C52.5724 48.7903 52.3466 48.9943 52.149 49.1521C51.7182 49.5012 51.1198 49.9619 50.6564 50.2992C50.4107 50.4833 50.077 50.6964 49.8095 50.8659L49.765 50.894C49.5773 51.011 49.3425 51.1506 49.1248 51.2803C49.0795 51.3121 49.0396 51.3356 48.9997 51.3592L48.9226 51.4055L46.8688 52.587C46.3592 52.8717 45.738 53.2 45.29 53.4194C45.0633 53.531 44.7741 53.6552 44.5238 53.7622L44.3606 53.8311C43.7893 54.0705 43.1836 54.2936 42.5606 54.4949C41.1868 54.9338 39.7106 55.2185 38.4049 55.2965C38.1201 55.321 37.7583 55.33 37.5334 55.33C37.0619 55.3246 36.4643 55.2965 36.0118 55.2584C35.5058 55.2194 34.8303 55.0761 34.298 54.9564C33.7983 54.8367 33.1038 54.6091 32.5697 54.3915C31.9504 54.1376 31.1751 53.7259 30.8695 53.5609C30.8695 53.5609 30.8377 53.5473 30.8368 53.5464L18.7394 46.6512C17.9741 46.2096 17.4526 45.836 17.0029 45.4987C16.2702 44.9437 15.592 44.3171 15.4405 44.1639C14.8275 43.5699 14.3451 43.0612 14.0432 42.6922C13.8364 42.4473 13.5789 42.139 13.403 41.9042L13.3068 41.7745C12.5742 40.7925 12.4799 40.6664 12.2142 40.2366C12.1117 40.0607 11.9784 39.844 11.8523 39.639L11.6792 39.3561C11.6048 39.2255 11.5187 39.0677 11.4334 38.91C11.3473 38.7504 11.2611 38.5908 11.1832 38.4557C11.1061 38.316 11.0199 38.1383 10.9356 37.9633C10.8631 37.8137 10.7905 37.665 10.7243 37.5389C10.5747 37.2388 10.1712 36.2894 9.94358 35.6483C9.72142 34.9809 9.46569 34.0777 9.36594 33.7204C9.29431 33.4811 9.21909 33.1428 9.14201 32.7112C9.03773 32.2406 8.90983 31.1733 8.88172 30.6537V30.6465C8.88172 30.6202 8.87361 30.5948 8.86091 30.5739C8.84187 29.97 8.83004 29.2962 8.86268 28.7794C8.90984 28.2072 8.98147 27.4781 9.11296 26.9458L9.16919 26.6947C9.21725 26.4807 9.27077 26.2386 9.3288 26.0554C9.45485 25.6573 9.65343 25.077 9.83206 24.6463C9.88828 24.5075 10.1948 23.7712 10.7742 22.83C11.3101 21.9758 11.8288 21.3329 11.8887 21.2658C11.8914 21.263 11.8941 21.2603 11.8959 21.2576L11.9938 21.1424C12.177 20.9248 12.3973 20.6646 12.5723 20.476C12.9097 20.1142 13.4139 19.6118 13.8536 19.1965C13.8482 19.2001 13.8455 19.2028 13.8455 19.2028C13.8455 19.2028 13.8654 19.1856 13.8953 19.1602C14.6516 18.4919 15.1213 18.1301 15.3806 17.9451C15.805 17.6377 16.3872 17.2433 16.7916 16.9776C16.924 16.8896 17.0863 16.7944 17.2468 16.7001C17.3847 16.6194 17.5216 16.5396 17.634 16.468L19.6952 15.2873C20.8151 14.6444 21.5804 14.3144 21.6203 14.298C21.6239 14.298 21.6275 14.2953 21.6311 14.2944C22.1298 14.0786 22.8335 13.7984 23.384 13.5962C23.6361 13.5019 23.9634 13.4003 24.2508 13.3115L24.3859 13.2697C24.4014 13.2661 24.4276 13.2589 24.4784 13.2443C24.7278 13.1736 25.4877 12.9587 26.3165 12.8109C27.0746 12.6785 27.6223 12.6132 28.3405 12.5715C28.7703 12.5479 29.327 12.5507 29.7079 12.5606C29.9019 12.5688 30.1504 12.5906 30.3762 12.6096L30.5884 12.6277C31.0508 12.6731 31.72 12.7909 32.2904 12.9288C32.8018 13.0494 33.5118 13.2788 34.0568 13.5001C34.4712 13.666 35.0434 13.9453 35.757 14.3307L47.6876 21.1279C47.6949 21.1316 47.7066 21.137 47.7175 21.1415C48.4783 21.5795 49.0042 21.9558 49.4594 22.2986C50.252 22.8907 50.9647 23.5708 51.0436 23.6461C51.361 23.9589 52.0248 24.61 52.4555 25.1332C52.5398 25.2384 52.6404 25.3599 52.742 25.4841C52.8708 25.6383 53.0004 25.7961 53.1056 25.933C53.9498 27.0628 54.0188 27.1644 54.3044 27.6178C54.3951 27.7729 54.5139 27.9642 54.63 28.151C54.7061 28.2743 54.7813 28.3958 54.8466 28.5028C54.9291 28.647 55.0235 28.8238 55.1178 28.997C55.1958 29.1412 55.2728 29.2836 55.3426 29.4078C55.4605 29.6136 55.5893 29.8847 55.7045 30.125L55.8015 30.3282C55.9557 30.6519 56.3637 31.5967 56.5922 32.246C56.8289 32.9343 57.0819 33.8383 57.1789 34.1947C57.2442 34.4386 57.3095 34.7587 57.3666 35.0416L57.4038 35.2194C57.499 35.6846 57.6459 36.7917 57.664 37.2859C57.6903 38.0649 57.693 38.6407 57.6731 39.0469C57.6386 39.5746 57.5688 40.32 57.4319 40.8686C57.4101 40.9611 57.3883 41.0618 57.3666 41.1651C57.3231 41.371 57.2778 41.5832 57.2252 41.7527C57.0502 42.3149 56.8987 42.7575 56.7754 43.0685C56.5097 43.7558 56.0763 44.5175 55.9339 44.7678C55.9112 44.8086 55.8958 44.8349 55.8858 44.854L55.8886 44.8512Z" fill="#0B4D5E"/>
<path d="M26.2651 17.2015L38.2256 24.0278L40.2749 22.8435L28.3235 16.0173L26.2651 17.2015Z" fill="#0B4D5E"/>
<path d="M38.2256 24.1638C38.2491 24.1638 38.2727 24.1575 38.2935 24.1457L40.3429 22.9614C40.3846 22.9369 40.4109 22.8916 40.4109 22.8435C40.4109 22.7946 40.3846 22.7501 40.342 22.7256L28.3906 15.8994C28.3498 15.8758 28.2971 15.8749 28.2554 15.8994L26.1961 17.0836C26.1544 17.1081 26.1281 17.1526 26.1281 17.2015C26.1281 17.2505 26.1544 17.2949 26.1971 17.3194L38.1575 24.1457C38.1775 24.1575 38.202 24.1638 38.2246 24.1638H38.2256ZM40.0019 22.8454L38.2256 23.8718L26.538 17.2024L28.3234 16.175L40.0019 22.8454Z" fill="#0B4D5E"/>
<path d="M34.1085 28.5409C34.3896 28.2036 34.6979 27.9569 35.0062 27.7828C36.2122 27.0919 37.4818 27.4682 38.4339 28.0186L39.123 28.3949C38.1709 27.8445 36.9014 27.4682 35.6863 28.1592C35.3871 28.3324 35.0788 28.5854 34.7886 28.9227C32.2859 31.8135 33.9816 37.0511 34.0632 37.3268L30.9438 35.5304C30.8622 35.2547 31.5967 31.4426 34.1085 28.5464V28.5409Z" fill="#8AE5CC"/>
<path d="M34.0634 37.4628C34.0933 37.4628 34.1224 37.4528 34.1477 37.4338C34.1913 37.3993 34.2094 37.3413 34.194 37.2887L34.1831 37.2533C33.9029 36.3375 32.6216 31.634 34.8913 29.0115C35.1597 28.7005 35.449 28.453 35.7545 28.2771C36.8508 27.6532 37.987 27.957 38.8149 28.3822L39.058 28.5146C39.1242 28.5509 39.2058 28.5273 39.242 28.4611C39.2783 28.3968 39.2566 28.3142 39.1913 28.2771C39.1115 28.2308 39.0272 28.1846 38.941 28.141L38.4994 27.8989C37.5999 27.3793 36.2487 26.9141 34.9394 27.665C34.5921 27.8608 34.2783 28.1265 34.0045 28.4539C33.9981 28.4611 33.9927 28.4693 33.9881 28.4775C31.5262 31.3311 30.6992 35.184 30.8135 35.5694C30.8235 35.603 30.8452 35.6311 30.8751 35.6483L33.9945 37.4446C34.0153 37.4573 34.0407 37.4628 34.0634 37.4628ZM37.0957 27.6495C36.616 27.6495 36.1155 27.7602 35.6194 28.0422C35.2876 28.2344 34.9729 28.501 34.6864 28.8356C32.53 31.3257 33.3878 35.4398 33.8376 37.0411L31.071 35.4488C31.0728 34.9256 31.8409 31.371 34.2112 28.637C34.2185 28.6289 34.2248 28.6198 34.2303 28.6098C34.4778 28.317 34.7625 28.0794 35.0745 27.9034C35.7999 27.4872 36.5453 27.4836 37.209 27.6523C37.1718 27.6514 37.1337 27.6505 37.0966 27.6505L37.0957 27.6495Z" fill="#0B4D5E"/>
<path d="M34.7975 28.9081C35.0786 28.5708 35.3869 28.3241 35.6952 28.1446C38.0347 26.8025 40.5737 29.4857 40.7097 29.6263L39.9389 30.5077L34.8156 36.4417L34.063 37.3067C33.9814 37.0311 32.2857 31.7935 34.7975 28.9017V28.9081Z" fill="#0B4D5E"/>
<path d="M34.0804 37.4301C34.113 37.4301 34.1448 37.421 34.1666 37.3966L34.9192 36.5315L40.8133 29.7161C40.8596 29.6626 40.8577 29.5828 40.8078 29.532C40.3381 29.0451 37.9107 26.7146 35.6283 28.0267C35.2874 28.2253 34.9818 28.4819 34.7188 28.7912C34.7097 28.7975 34.7016 28.8048 34.6952 28.8129C32.3829 31.4753 33.52 35.9919 33.9236 37.3131C33.9381 37.3612 33.9807 37.4129 34.0297 37.4238C34.046 37.4274 34.0632 37.4292 34.0804 37.4292V37.4301ZM40.5249 29.6327L39.8358 30.4188L34.123 37.0311C33.7639 35.7689 32.7656 31.4907 34.8748 29.0197C34.8848 29.0133 34.8938 29.0052 34.9011 28.9961C35.1495 28.6978 35.4397 28.4511 35.7625 28.2625C37.7674 27.1136 39.9346 29.0451 40.5249 29.6327Z" fill="#0B4D5E"/>
<path d="M51.5007 20.3C51.809 20.1259 52.1173 20.0243 52.4074 20.0307C52.6069 20.0307 52.7792 20.0806 52.9334 20.1649L53.686 20.6083C53.5319 20.5185 53.3596 20.4741 53.1601 20.4741C52.8699 20.4741 52.5616 20.5693 52.2533 20.7434C49.9047 22.0855 47.3929 27.6431 47.266 27.9351L44.1466 26.1388C44.2736 25.8468 49.1611 21.6357 51.5007 20.3Z" fill="#8AE5CC"/>
<path d="M47.2661 28.0712C47.2806 28.0712 47.2942 28.0693 47.3087 28.0648C47.3459 28.0521 47.3749 28.0258 47.3912 27.9895C47.4157 27.9324 49.9683 22.2061 52.3214 20.8613C52.8138 20.5829 53.2853 20.5312 53.619 20.7253C53.6843 20.7634 53.7668 20.7407 53.8049 20.6763C53.8421 20.612 53.8212 20.5285 53.7559 20.4904L53.0033 20.047C52.8057 19.9382 52.6079 19.8883 52.3794 19.8938C52.0911 19.8938 51.7728 19.9899 51.4346 20.1812C49.076 21.5278 44.1749 25.7353 44.0234 26.0844C43.9962 26.1479 44.0207 26.2213 44.0797 26.2558L47.1981 28.0521C47.2189 28.0639 47.2425 28.0703 47.2661 28.0703V28.0712ZM52.977 20.349C52.7231 20.3798 52.4574 20.4714 52.1854 20.6256C49.9665 21.8932 47.6143 26.8488 47.2035 27.7429L44.3517 26.0998C45.01 25.4197 49.3263 21.6974 51.5669 20.4179C51.8626 20.251 52.1364 20.1667 52.3794 20.1667C52.568 20.164 52.7168 20.2021 52.8664 20.2837L52.9761 20.3481L52.977 20.349Z" fill="#0B4D5E"/>
<path d="M52.2531 20.7444C52.5614 20.5703 52.8606 20.4696 53.1599 20.4751C55.6717 20.5086 54.0122 27.6495 53.9306 28.0259L53.178 28.015L48.0365 27.947L47.2748 27.9361C47.4018 27.6441 49.9136 22.081 52.2531 20.7444Z" fill="#0B4D5E"/>
<path d="M53.9309 28.1619C53.9944 28.1619 54.0506 28.1174 54.0633 28.0549L54.0742 28.0077C54.4523 26.3066 55.2122 22.1998 54.1123 20.8097C53.8683 20.5023 53.5491 20.3436 53.161 20.3381C53.1529 20.3381 53.1438 20.3381 53.1366 20.3381C52.8392 20.3381 52.5272 20.4324 52.1853 20.6247C49.728 22.0293 47.1754 27.8227 47.1491 27.8808C47.131 27.9225 47.1346 27.9706 47.16 28.0086C47.1844 28.0467 47.2262 28.0703 47.2724 28.0712L53.9291 28.161L53.9309 28.1619ZM53.1375 20.6111H53.1566C53.464 20.6147 53.7061 20.7353 53.8983 20.9792C54.9384 22.2941 54.1213 26.5224 53.8212 27.8889L47.4837 27.8037C47.9479 26.799 50.2195 22.0637 52.3196 20.8632C52.6188 20.6936 52.8872 20.6111 53.1375 20.6111Z" fill="#0B4D5E"/>
<path d="M55.5449 42.2823C55.1187 42.518 54.7832 43.1074 54.7832 43.579C54.7832 44.0505 55.1278 44.2473 55.5449 44.0115C55.9711 43.7757 56.3066 43.1863 56.3066 42.7148C56.3066 42.2433 55.962 42.0465 55.5449 42.2823Z" fill="#0B4D5E"/>
<path d="M55.2076 44.2473C55.3354 44.2473 55.4733 44.2083 55.6111 44.1303C56.069 43.8783 56.4426 43.2426 56.4426 42.7149C56.4426 42.4383 56.3402 42.2261 56.1543 42.1182C55.9684 42.0103 55.7209 42.0257 55.4778 42.1635C55.019 42.4174 54.6463 43.0522 54.6463 43.579C54.6463 43.8556 54.7488 44.0678 54.9347 44.1766C55.0163 44.2237 55.1078 44.2473 55.2076 44.2473ZM55.8804 42.3195C55.9321 42.3195 55.9784 42.3304 56.0174 42.3539C56.1162 42.4111 56.1706 42.5408 56.1706 42.7158C56.1706 43.1474 55.8532 43.686 55.4787 43.8937C55.3191 43.9834 55.1731 43.9998 55.0725 43.9426C54.9736 43.8855 54.9192 43.7558 54.9192 43.5808C54.9192 43.1501 55.2357 42.6106 55.6102 42.4029H55.612C55.7072 42.3476 55.7997 42.3204 55.8804 42.3204V42.3195Z" fill="#0B4D5E"/>
<path d="M55.2003 44.387C55.3544 44.387 55.5177 44.3417 55.6809 44.2519C56.1887 43.9708 56.5786 43.2916 56.5786 42.7076C56.5786 42.3821 56.4516 42.1182 56.2159 41.984C55.9892 41.8489 55.69 41.8661 55.3907 42.0339C54.892 42.315 54.493 42.9942 54.493 43.5781C54.493 43.9037 54.629 44.1676 54.8557 44.3027C54.9554 44.3643 55.0733 44.3924 55.2003 44.3924V44.387ZM55.8804 42.461C55.8804 42.461 55.9257 42.461 55.9439 42.4782C55.9892 42.5063 56.0254 42.5961 56.0254 42.714C56.0254 43.0894 55.7353 43.5836 55.4088 43.7631C55.2728 43.8366 55.1912 43.8366 55.155 43.8139C55.1005 43.7858 55.0733 43.696 55.0733 43.5781C55.0733 43.2018 55.3635 42.7076 55.6809 42.5226C55.7534 42.4782 55.826 42.4555 55.8804 42.4555V42.461Z" fill="#0B4D5E"/>
<path d="M55.2003 44.5285C55.2148 44.5285 55.2275 44.5267 55.2411 44.5221C55.408 44.5149 55.5776 44.465 55.7471 44.3707C56.2994 44.0651 56.7156 43.3497 56.7156 42.7077C56.7156 42.3295 56.5578 42.0221 56.283 41.8662C56.0146 41.7066 55.6646 41.7247 55.3236 41.9151C54.7814 42.2207 54.357 42.9516 54.357 43.5782C54.357 43.9508 54.5139 44.2574 54.7859 44.4197C54.902 44.4913 55.0425 44.5285 55.2003 44.5285ZM55.8759 42.0303C55.9747 42.0303 56.0672 42.0539 56.1461 42.101C56.3384 42.2107 56.4426 42.4256 56.4426 42.7077C56.4426 43.2499 56.0799 43.8756 55.6156 44.1331C55.476 44.2102 55.3318 44.251 55.2003 44.251C55.1876 44.251 55.1767 44.2519 55.1658 44.2555C55.0733 44.251 54.9945 44.2283 54.9274 44.1866C54.7369 44.0733 54.63 43.852 54.63 43.5782C54.63 43.0495 55.0008 42.4093 55.457 42.1527C55.6011 42.072 55.7453 42.0303 55.8759 42.0303ZM55.2076 43.9644C55.2729 43.9644 55.3599 43.9445 55.4733 43.8828C55.8469 43.677 56.1615 43.142 56.1615 42.714C56.1615 42.5508 56.1062 42.4193 56.0155 42.3631C55.9974 42.3431 55.9611 42.3332 55.9276 42.3286C55.8378 42.2969 55.7199 42.3395 55.6093 42.4066C55.2466 42.6179 54.9364 43.1556 54.9364 43.5782C54.9364 43.8058 55.0208 43.8983 55.0915 43.9345C55.116 43.9509 55.1541 43.9644 55.2076 43.9644ZM55.865 42.5961C55.8786 42.6188 55.8886 42.6569 55.8886 42.714C55.8886 43.0368 55.6238 43.4893 55.3427 43.6444C55.2629 43.687 55.2221 43.6915 55.2112 43.6915C55.2212 43.6888 55.2085 43.6507 55.2085 43.5782C55.2085 43.2572 55.4705 42.802 55.748 42.6396C55.7897 42.6152 55.8278 42.6007 55.855 42.5943C55.8577 42.5943 55.8605 42.5943 55.8641 42.5952L55.865 42.5961Z" fill="#0B4D5E"/>
<path d="M50.6665 45.0362C50.2494 45.272 49.9139 45.856 49.9139 46.3339C49.9139 46.8117 50.2494 47.0013 50.6756 46.7655C51.0927 46.5297 51.4282 45.9403 51.4282 45.4688C51.4282 44.9972 51.0927 44.8005 50.6665 45.0362Z" fill="#0B4D5E"/>
<path d="M50.3328 47.0031C50.4607 47.0031 50.5994 46.9641 50.7409 46.8852C51.1952 46.6286 51.5642 45.9938 51.5642 45.4688C51.5642 45.1922 51.4636 44.98 51.2804 44.8721C51.0963 44.7615 50.8515 44.7778 50.6012 44.9166H50.5994C50.1388 45.1777 49.7779 45.7998 49.7779 46.3329C49.7779 46.6104 49.8785 46.8226 50.0608 46.9305C50.1424 46.9786 50.2331 47.0022 50.3328 47.0022V47.0031ZM51.0057 45.0725C51.0573 45.0725 51.1027 45.0843 51.1416 45.107C51.2378 45.1641 51.2913 45.2929 51.2913 45.4688C51.2913 45.8986 50.9784 46.4381 50.6076 46.6476C50.4452 46.7365 50.2965 46.7546 50.1986 46.6966C50.1025 46.6403 50.0499 46.5116 50.0499 46.3339C50.0499 45.904 50.3627 45.3645 50.7327 45.155C50.8324 45.0997 50.9259 45.0725 51.0057 45.0725Z" fill="#0B4D5E"/>
<path d="M50.3314 47.1427C50.4855 47.1427 50.6487 47.0983 50.812 47.0085C51.3107 46.7274 51.7097 46.0482 51.7097 45.4643C51.7097 45.1387 51.5737 44.8748 51.347 44.7397C51.1203 44.6055 50.821 44.6218 50.5309 44.7851C50.0231 45.0716 49.6331 45.7453 49.6331 46.3284C49.6331 46.6548 49.7601 46.9187 49.9868 47.0529C50.0866 47.1146 50.2044 47.1427 50.3314 47.1427ZM51.0024 45.2176C51.0024 45.2176 51.0477 45.2176 51.0659 45.2285C51.1203 45.2566 51.1475 45.3464 51.1475 45.4643C51.1475 45.8406 50.8573 46.3348 50.5399 46.5143C50.413 46.5868 50.3223 46.5868 50.277 46.5651C50.2316 46.537 50.2044 46.4472 50.2044 46.3284C50.2044 45.9466 50.4855 45.4642 50.812 45.2738C50.9026 45.2285 50.9661 45.2058 51.0206 45.2058L51.0024 45.2176Z" fill="#0B4D5E"/>
<path d="M50.3312 47.2787C50.5107 47.2787 50.6948 47.228 50.878 47.1273C51.4221 46.8208 51.8464 46.09 51.8464 45.4643C51.8464 45.0925 51.6896 44.7851 51.4166 44.6228C51.1473 44.4623 50.7981 44.4768 50.4645 44.6663C49.9131 44.9773 49.497 45.6919 49.497 46.3284C49.497 46.7057 49.6502 47.0122 49.9177 47.1699C50.0347 47.2425 50.1743 47.2787 50.3312 47.2787ZM51.0049 44.7851C51.1037 44.7851 51.1972 44.8087 51.2779 44.8567C51.4656 44.9692 51.5735 45.1904 51.5735 45.4643C51.5735 45.9929 51.2026 46.6322 50.7456 46.8897C50.4935 47.0285 50.2287 47.0412 50.0573 46.9369C49.8742 46.8281 49.7699 46.6068 49.7699 46.3284C49.7699 45.7916 50.1335 45.165 50.5978 44.9039C50.7374 44.825 50.877 44.7851 51.0049 44.7851ZM50.3448 46.712C50.4273 46.712 50.5153 46.6848 50.6069 46.6331C50.9669 46.4291 51.2833 45.8823 51.2833 45.4643C51.2833 45.2367 51.199 45.1442 51.1283 45.1079C51.1192 45.1025 51.1092 45.0988 51.0992 45.0952C51.0203 45.0381 50.9124 45.0707 50.7501 45.1523C50.3701 45.3736 50.0673 45.8995 50.0673 46.3284C50.0673 46.5007 50.1163 46.6259 50.2042 46.6803C50.2477 46.7011 50.2949 46.712 50.3439 46.712H50.3448ZM51.0122 45.3546C51.0004 45.3582 51.0122 45.3963 51.0122 45.4643C51.0122 45.7862 50.751 46.2387 50.4735 46.3964C50.4164 46.4291 50.3774 46.4382 50.3548 46.4409C50.3484 46.42 50.3411 46.3828 50.3411 46.3284C50.3411 45.9975 50.5933 45.5595 50.8807 45.3908C50.8943 45.3845 50.9369 45.3627 50.9759 45.35C50.985 45.3518 50.9931 45.3527 51.0013 45.3527H51.0122V45.3546Z" fill="#0B4D5E"/>
<path d="M52.7977 40.8659C50.1045 42.4048 47.9283 45.3572 47.9283 47.4628C47.9283 49.5684 50.1227 50.0344 52.8158 48.4902C55.509 46.9523 57.6943 44.0043 57.6853 41.8933C57.6853 39.7887 55.4908 39.3226 52.7977 40.8659ZM55.5453 43.9989C55.1282 44.2346 54.7836 44.0497 54.7836 43.5663C54.7836 43.083 55.1282 42.5054 55.5453 42.2697C55.9624 42.0339 56.307 42.2189 56.307 42.7022C56.307 43.1855 55.9624 43.7631 55.5453 43.9989ZM50.6758 46.761C50.2587 46.9967 49.9141 46.8063 49.9141 46.3284C49.9141 45.8569 50.2497 45.2675 50.6668 45.0317C51.093 44.7959 51.4285 44.9819 51.4285 45.4643C51.4285 45.9467 51.093 46.5252 50.6758 46.761Z" fill="#8AE5CC"/>
<path d="M49.9356 49.5376C50.7871 49.5376 51.8145 49.2211 52.8827 48.609C55.6148 47.0493 57.8301 44.037 57.821 41.8943C57.821 41.0764 57.5055 40.4616 56.9097 40.1161C55.9539 39.562 54.3915 39.7978 52.7303 40.749C50.0072 42.3041 47.792 45.3165 47.792 47.4637C47.792 48.2826 48.1075 48.8974 48.7033 49.2429C49.0452 49.4405 49.4632 49.5376 49.9356 49.5376ZM55.6738 40.0898C56.0981 40.0898 56.4717 40.1759 56.7737 40.3509C57.2815 40.6447 57.5481 41.1788 57.5481 41.8943C57.5571 43.9509 55.4035 46.8562 52.7475 48.3732C51.1734 49.2764 49.7125 49.5131 48.8384 49.008C48.3306 48.7142 48.064 48.1801 48.064 47.4647C48.064 45.4044 50.2176 42.4982 52.8645 40.9857C53.8937 40.3963 54.874 40.0898 55.6738 40.0898ZM50.3355 46.9977C50.4643 46.9977 50.603 46.9577 50.7417 46.8798C51.2024 46.6195 51.5633 45.9984 51.5633 45.4643C51.5633 45.185 51.4635 44.9728 51.2813 44.8649C51.0936 44.7543 50.8524 44.7724 50.5994 44.9121C50.1451 45.1696 49.776 45.8043 49.776 46.3284C49.776 46.6068 49.8785 46.819 50.0635 46.9269C50.1442 46.9741 50.2367 46.9977 50.3355 46.9977ZM51.0111 45.0671C51.0618 45.0671 51.1062 45.078 51.1443 45.1007C51.2386 45.1569 51.2913 45.2865 51.2913 45.4652C51.2913 45.9023 50.9848 46.4309 50.6075 46.644C50.4507 46.7329 50.301 46.7519 50.2022 46.693C50.1042 46.6358 50.0499 46.5062 50.0499 46.3294C50.0499 45.9004 50.3627 45.3609 50.7336 45.1505C50.8333 45.0952 50.9294 45.0671 51.0111 45.0671ZM55.204 44.2374C55.3319 44.2374 55.4706 44.1975 55.6121 44.1168C56.0781 43.8538 56.4436 43.2318 56.4436 42.7022C56.4436 42.4229 56.342 42.2098 56.157 42.1019C55.9693 41.9922 55.7282 42.0094 55.4779 42.1509C55.0118 42.4139 54.6473 43.035 54.6473 43.5655C54.6473 43.8448 54.7488 44.0579 54.9329 44.1658C55.0145 44.2129 55.1061 44.2374 55.204 44.2374ZM55.8859 42.3041C55.9367 42.3041 55.982 42.315 56.0201 42.3377C56.1171 42.3948 56.1707 42.5245 56.1707 42.7031C56.1707 43.1293 55.8533 43.6689 55.477 43.8811C55.3174 43.9717 55.1678 43.9908 55.0698 43.9318C54.9728 43.8756 54.9193 43.745 54.9193 43.5664C54.9193 43.1402 55.2366 42.6006 55.6121 42.3885C55.71 42.3322 55.8043 42.3041 55.8859 42.3041Z" fill="#0B4D5E"/>
<path d="M51.0747 39.8712C52.7523 38.9164 54.2303 38.7314 55.1099 39.2419L56.8328 40.2357C55.9532 39.7306 54.4751 39.9102 52.7976 40.865C50.1044 42.4029 47.9281 45.3618 47.9281 47.461C47.9281 48.259 48.2455 48.8202 48.7805 49.1286L47.0577 48.1347C46.5227 47.8318 46.2053 47.2705 46.2053 46.4735C46.2053 44.3679 48.3725 41.4091 51.0747 39.8766V39.8712Z" fill="#8AE5CC"/>
<path d="M48.7803 49.2646C48.8275 49.2646 48.8737 49.2401 48.8982 49.1966C48.9354 49.1322 48.9136 49.0487 48.8483 49.0107L48.8447 49.0089C48.3342 48.7132 48.0649 48.1773 48.0649 47.461C48.0649 45.4008 50.2185 42.4945 52.8654 40.9829C54.4368 40.0888 55.894 39.8539 56.7664 40.3536C56.8317 40.3917 56.9151 40.369 56.9514 40.3037C56.9886 40.2384 56.9668 40.1559 56.9015 40.1178L55.1786 39.124C54.2265 38.5736 52.6668 38.8075 51.0074 39.7524C50.9965 39.7578 50.9884 39.766 50.9793 39.7733C48.2698 41.322 46.069 44.3217 46.069 46.4726C46.069 47.2959 46.3883 47.9107 46.9913 48.2517L48.7123 49.2455C48.7332 49.2582 48.7576 49.2636 48.7803 49.2636V49.2646ZM55.6728 39.8267C54.8222 39.8267 53.7967 40.1405 52.7303 40.7471C50.0072 42.3023 47.7919 45.3146 47.7919 47.4619C47.7919 47.8763 47.8736 48.2372 48.0304 48.5391L47.1264 48.0168C46.6131 47.7266 46.342 47.1925 46.342 46.4735C46.342 44.4024 48.4956 41.4961 51.1425 39.9945C51.1534 39.9891 51.1616 39.9818 51.1706 39.9736C52.7339 39.0913 54.1802 38.8592 55.0426 39.3597L55.8605 39.8313C55.7998 39.8286 55.7363 39.8267 55.6737 39.8267H55.6728Z" fill="#0B4D5E"/>
<path d="M31.5516 2.66127C27.9244 1.06714 25.3855 3.21713 25.8661 7.46723C26.3376 11.7173 29.6745 16.4607 33.3016 18.0558C36.9197 19.6499 39.4678 17.4945 38.9872 13.2389C38.5066 8.98338 35.1696 4.24996 31.5516 2.65583V2.66127Z" fill="#8AE5CC"/>
<path d="M35.5487 18.7177C36.324 18.7177 37.0213 18.5046 37.5989 18.0803C38.8149 17.1862 39.3699 15.4161 39.1232 13.2244C38.639 8.94077 35.2676 4.1448 31.6069 2.53163C31.5951 2.52619 31.5842 2.52347 31.5715 2.52165C29.8795 1.78806 28.3452 1.82977 27.248 2.63681C26.0365 3.52909 25.4842 5.29551 25.7309 7.48358C26.206 11.7681 29.5775 16.5677 33.2472 18.1809C34.0597 18.5391 34.8377 18.7177 35.5487 18.7177ZM31.5307 2.7964C35.0989 4.38872 38.3788 9.07045 38.8512 13.2544C39.0879 15.3472 38.5719 17.0257 37.4366 17.8608C36.4119 18.6144 34.9629 18.6388 33.356 17.9316C29.7652 16.3528 26.4654 11.6521 26.0011 7.45274C25.7645 5.36441 26.2777 3.68869 27.4094 2.85626C28.4322 2.10272 29.884 2.07823 31.4963 2.78643C31.508 2.79096 31.5189 2.79459 31.5307 2.7964Z" fill="#0B4D5E"/>
<path d="M27.5346 2.61688L25.5034 3.86371C24.2339 4.64899 23.572 6.3619 23.844 8.72498C24.3246 12.9805 27.6525 17.7194 31.2796 19.3135C32.8846 20.0262 34.2811 19.9927 35.2967 19.3643L37.3188 18.1175C36.3032 18.7404 34.9158 18.7749 33.3017 18.0676C29.6837 16.4726 26.3558 11.7292 25.8662 7.47906C25.5941 5.11507 26.2651 3.40306 27.5346 2.61688Z" fill="#0B4D5E"/>
<path d="M33.523 19.9754C34.2085 19.9754 34.8333 19.8104 35.3683 19.4803L37.3895 18.2335C37.453 18.1945 37.4729 18.1102 37.4339 18.0467C37.394 17.9823 37.3097 17.9633 37.2471 18.0022C36.2224 18.6306 34.8749 18.6098 33.3561 17.9442C29.7852 16.3691 26.4854 11.6684 26.0012 7.4645C25.7464 5.24741 26.3304 3.52271 27.6062 2.73381C27.6697 2.69482 27.6896 2.61049 27.6506 2.54702C27.6107 2.48264 27.5264 2.46359 27.4638 2.50258L25.4326 3.74941C24.0688 4.59272 23.4413 6.41264 23.7088 8.74217C24.194 13.0322 27.5654 17.8309 31.2252 19.4395C32.0322 19.7977 32.8103 19.9763 33.5239 19.9763L33.523 19.9754ZM36.1345 18.6878L35.225 19.2491C34.2121 19.8757 32.8293 19.8539 31.334 19.1901C27.7531 17.616 24.4533 12.9152 23.9791 8.71043C23.7234 6.48972 24.3046 4.76502 25.575 3.97974L26.5072 3.40755C25.8162 4.38416 25.5369 5.806 25.7309 7.49534C26.226 11.7844 29.5975 16.5831 33.2473 18.1927C34.2982 18.6533 35.2758 18.8184 36.1345 18.6878Z" fill="#0B4D5E"/>
<path d="M23.844 8.72587C23.7805 8.20356 23.7805 7.70937 23.7986 7.25507L25.8298 6.00824C25.7935 6.46889 25.8026 6.95764 25.8661 7.47995C25.9296 8.05757 26.0565 8.64698 26.2197 9.23095L24.1976 10.4778C24.0344 9.89381 23.9074 9.3044 23.844 8.72587Z" fill="#8AE5CC"/>
<path d="M24.1976 10.6138C24.2221 10.6138 24.2474 10.6074 24.2692 10.5938L26.2904 9.34701C26.3421 9.31527 26.3657 9.2527 26.3494 9.19467C26.1735 8.56354 26.0592 7.99771 26.0003 7.46543C25.9395 6.97033 25.9277 6.48429 25.964 6.01911C25.9685 5.96833 25.9432 5.91936 25.8996 5.89216C25.857 5.86586 25.8008 5.86586 25.7582 5.89216L23.727 7.13899C23.688 7.16256 23.6644 7.20427 23.6626 7.24961C23.6481 7.6096 23.6381 8.15549 23.7079 8.74127C23.7687 9.29079 23.8857 9.87114 24.067 10.515C24.0788 10.5558 24.1087 10.5893 24.1486 10.6047C24.1649 10.6111 24.1804 10.6138 24.1976 10.6138ZM26.061 9.16928L24.281 10.2674C24.1314 9.707 24.0326 9.19648 23.9791 8.71135C23.9165 8.18269 23.9211 7.68306 23.9319 7.33394L25.6793 6.26122C25.663 6.66292 25.6811 7.07733 25.7328 7.49717C25.789 8.01495 25.8978 8.56354 26.062 9.16928H26.061Z" fill="#0B4D5E"/>
<path d="M27.4802 12.285L25.4581 13.5309C25.1951 13.0648 24.9684 12.577 24.7599 12.0882L26.7911 10.8423C26.9996 11.3301 27.2263 11.8135 27.4802 12.285Z" fill="#8AE5CC"/>
<path d="M25.458 13.6679C25.4825 13.6679 25.5078 13.6615 25.5296 13.6479L27.5508 12.402C27.6116 12.3639 27.6333 12.285 27.5989 12.2215C27.3649 11.7863 27.1419 11.3175 26.9152 10.7888C26.8998 10.7525 26.8689 10.7244 26.8318 10.7126C26.7919 10.7018 26.7519 10.7054 26.7193 10.7263L24.6881 11.9722C24.631 12.0075 24.6074 12.0801 24.6337 12.1417C24.8813 12.7221 25.1061 13.1846 25.3383 13.598C25.3573 13.6307 25.3872 13.6543 25.4235 13.6624C25.4344 13.6651 25.4452 13.667 25.457 13.667L25.458 13.6679ZM27.2997 12.237L25.507 13.3414C25.3174 12.995 25.1315 12.6078 24.9302 12.1436L26.7266 11.0409C26.9161 11.4743 27.1038 11.8679 27.2987 12.237H27.2997Z" fill="#0B4D5E"/>
</svg>
