<svg width="64" height="64" viewBox="0 0 64 64" fill="none" xmlns="http://www.w3.org/2000/svg">
<path d="M24.3335 13.8387L38.3795 22.2839L51.1291 14.6922L37.0505 6.24698L24.3335 13.8387Z" fill="#F0F4FF"/>
<path d="M38.3797 22.4195C38.3562 22.4195 38.3309 22.4132 38.3101 22.4005L24.265 13.9553C24.2243 13.9309 24.199 13.8866 24.199 13.8396C24.199 13.7917 24.2243 13.7474 24.265 13.723L36.982 6.13127C37.0263 6.10595 37.0787 6.10505 37.1212 6.13127L51.1989 14.5764C51.2396 14.6009 51.2649 14.6452 51.2649 14.6922C51.2649 14.7401 51.2396 14.7844 51.1989 14.8088L38.4485 22.4005C38.4268 22.4132 38.4032 22.4195 38.3797 22.4195ZM24.5977 13.8387L38.3788 22.1257L50.8653 14.6913L37.0516 6.4043L24.5977 13.8387Z" fill="#0B4D5E"/>
<path d="M27.9789 8.65463L38.2016 14.8088L47.4839 9.29021L37.2288 3.13602L27.978 8.65463H27.9789Z" fill="#F0F4FF"/>
<path d="M38.2008 14.9435C38.1773 14.9435 38.152 14.9372 38.1312 14.9245L27.9085 8.77032C27.8678 8.74591 27.8425 8.70161 27.8425 8.65369C27.8425 8.60577 27.8678 8.56147 27.9085 8.53797L37.1583 3.01936C37.2027 2.99404 37.2551 2.99314 37.2976 3.01936L47.5528 9.17355C47.5934 9.19796 47.6187 9.24226 47.6187 9.29018C47.6187 9.33809 47.5934 9.38239 47.5519 9.4059L38.2686 14.9245C38.2478 14.9372 38.2234 14.9435 38.1999 14.9435H38.2008ZM28.243 8.6546L38.2017 14.6497L47.22 9.28837L37.2298 3.2933L28.2439 8.6546H28.243Z" fill="#0B4D5E"/>
<path d="M38.218 19.8925L47.5004 14.3576V9.2739L38.218 14.7925V19.8925Z" fill="#8AE5CC"/>
<path d="M38.2179 20.0272C38.1953 20.0272 38.1718 20.0218 38.151 20.0092C38.1085 19.9856 38.0823 19.9404 38.0823 19.8916V14.7916C38.0823 14.7437 38.1076 14.6994 38.1492 14.675L47.4324 9.15637C47.4749 9.13105 47.5265 9.13105 47.5681 9.15546C47.6096 9.17988 47.6368 9.22508 47.6368 9.273V14.3567C47.6368 14.4047 47.6115 14.449 47.5708 14.4734L38.2875 20.0082C38.2658 20.0209 38.2414 20.0272 38.2179 20.0272ZM38.3535 14.8694V19.6529L47.3646 14.2799V9.51168L38.3535 14.8694Z" fill="#0B4D5E"/>
<path d="M38.2178 14.7925L27.9961 8.65457V13.7383L38.2178 19.8925" fill="#0B4D5E"/>
<path d="M38.1483 20.0082L27.9256 13.854C27.8849 13.8296 27.8596 13.7853 27.8596 13.7383V8.65457C27.8596 8.60575 27.8858 8.56055 27.9283 8.53704C27.9708 8.51263 28.0224 8.51263 28.0649 8.53885L38.2875 14.6768L38.1483 14.9091L28.1317 8.89506V13.6624L38.2875 19.7768L38.1483 20.0082Z" fill="#0B4D5E"/>
<path d="M38.3958 52.2511L51.1616 44.6594V14.6921L38.3958 22.2838V52.2511Z" fill="#8AE5CC"/>
<path d="M38.3951 52.3857C38.3725 52.3857 38.349 52.3803 38.3282 52.3677C38.2857 52.3433 38.2595 52.2981 38.2595 52.2501V22.2838C38.2595 22.2359 38.2848 22.1916 38.3255 22.1672L51.0914 14.5755C51.1348 14.5502 51.1854 14.5502 51.2279 14.5746C51.2704 14.599 51.2966 14.6442 51.2966 14.6921V44.6593C51.2966 44.7073 51.2713 44.7516 51.2306 44.776L38.4647 52.3677C38.443 52.3803 38.4186 52.3867 38.3951 52.3867V52.3857ZM38.5308 22.3607V52.0115L51.0245 44.5807V14.9299L38.5308 22.3607Z" fill="#0B4D5E"/>
<path d="M23.9438 60.8644L36.2721 53.5231V29.3412L23.9438 36.6825V60.8644Z" fill="#8AE5CC"/>
<path d="M23.9449 61C23.9223 61 23.8988 60.9946 23.878 60.9819C23.8355 60.9575 23.8093 60.9132 23.8093 60.8644V36.6816C23.8093 36.6337 23.8346 36.5894 23.8753 36.565L36.2036 29.2237C36.247 29.1984 36.2976 29.1984 36.3401 29.2228C36.3826 29.2472 36.4088 29.2924 36.4088 29.3403V53.5222C36.4088 53.5701 36.3835 53.6144 36.3428 53.6389L24.0146 60.981C23.9929 60.9937 23.9684 61 23.9449 61ZM24.0806 36.7594V60.6257L36.1367 53.4454V29.579L24.0806 36.7594Z" fill="#0B4D5E"/>
<path d="M12.1345 29.5745L23.9447 36.6816L36.273 29.3403L24.4311 22.2332L12.1345 29.5745Z" fill="#F0F4FF"/>
<path d="M23.9449 36.8172C23.9214 36.8172 23.8961 36.8109 23.8753 36.7983L12.066 29.6911C12.0253 29.6667 12 29.6224 12 29.5745C12 29.5275 12.0253 29.4832 12.066 29.4588L24.3617 22.1175C24.406 22.0922 24.4585 22.0913 24.501 22.1175L36.3437 29.2246C36.3844 29.249 36.4097 29.2933 36.4097 29.3413C36.4097 29.3892 36.3844 29.4335 36.3437 29.457L24.0155 36.7983C23.9938 36.8109 23.9684 36.8172 23.9449 36.8172ZM12.3987 29.5745L23.9449 36.5234L36.0092 29.3394L24.4304 22.3906L12.3987 29.5745Z" fill="#0B4D5E"/>
<path d="M23.944 36.6816L12.1338 29.5745V53.7564L23.944 60.8635" fill="#0B4D5E"/>
<path d="M23.8753 60.9801L12.066 53.873C12.0253 53.8486 12 53.8043 12 53.7573V29.5745C12 29.5257 12.0262 29.4805 12.0687 29.4569C12.1112 29.4325 12.1627 29.4325 12.2052 29.4588L24.0146 36.5659L23.8753 36.7982L12.2712 29.8141V53.6795L24.0146 60.7478L23.8753 60.9801Z" fill="#0B4D5E"/>
<path d="M24.3335 13.8386L38.3958 22.2838V52.251L36.273 50.9771V29.3412L24.4302 22.2341L24.3335 22.2919V13.8386Z" fill="#0B4D5E"/>
<path d="M38.3951 52.3858C38.3716 52.3858 38.3463 52.3794 38.3255 52.3668L36.2027 51.0929C36.162 51.0685 36.1367 51.0242 36.1367 50.9772V29.4181L24.4304 22.3923L24.4042 22.4086C24.3599 22.4339 24.3102 22.4339 24.2677 22.4095C24.2252 22.386 24.199 22.3408 24.199 22.292V13.8396C24.199 13.7907 24.2252 13.7455 24.2677 13.722C24.3102 13.6976 24.3617 13.6976 24.4042 13.7238L38.4656 22.169C38.5063 22.1934 38.5316 22.2377 38.5316 22.2847V52.252C38.5316 52.3008 38.5054 52.346 38.4629 52.3695C38.4421 52.3812 38.4186 52.3876 38.396 52.3876L38.3951 52.3858ZM36.4088 50.8994L38.2595 52.0106V22.3607L24.4702 14.0783V22.103C24.481 22.1057 24.4901 22.1103 24.5 22.1166L36.3428 29.2237C36.3835 29.2481 36.4088 29.2924 36.4088 29.3394V50.8994Z" fill="#0B4D5E"/>
<path d="M49.1356 43.7055L48.1799 44.2742V18.9387L49.1356 18.37V43.7055Z" fill="#F0F4FF"/>
<path d="M48.18 44.4098C48.1574 44.4098 48.1339 44.4044 48.1131 44.3917C48.0707 44.3673 48.0444 44.3221 48.0444 44.2742V18.9387C48.0444 18.8907 48.0697 18.8464 48.1104 18.822L49.0661 18.2534C49.1104 18.228 49.1601 18.228 49.2026 18.2524C49.2451 18.2769 49.2713 18.3221 49.2713 18.37V43.7055C49.2713 43.7534 49.246 43.7977 49.2053 43.8221L48.2497 44.3908C48.228 44.4035 48.2035 44.4098 48.18 44.4098ZM48.3166 19.0155V44.0355L49.0001 43.6278V18.6078L48.3166 19.0155Z" fill="#0B4D5E"/>
<path d="M44.7778 46.1474L45.7497 45.5788V20.2432L44.7778 20.8119V46.1474Z" fill="#F0F4FF"/>
<path d="M44.7789 46.2831C44.7563 46.2831 44.7319 46.2777 44.712 46.265C44.6695 46.2415 44.6433 46.1963 44.6433 46.1475V20.8129C44.6433 20.7649 44.6686 20.7197 44.7102 20.6962L45.6821 20.1276C45.7237 20.1031 45.7762 20.1013 45.8177 20.1276C45.8602 20.1511 45.8864 20.1963 45.8864 20.2451V45.5806C45.8864 45.6285 45.8611 45.6737 45.8196 45.6972L44.8476 46.265C44.8269 46.2777 44.8024 46.284 44.7789 46.284V46.2831ZM44.9145 20.8897V45.9106L45.6143 45.5011V20.4802L44.9145 20.8897Z" fill="#0B4D5E"/>
<path d="M41.2302 48.3037L42.2021 47.7351V22.3995L41.2302 22.9682V48.3037Z" fill="#F0F4FF"/>
<path d="M41.2303 48.4394C41.2077 48.4394 41.1833 48.4339 41.1634 48.4213C41.1209 48.3978 41.0947 48.3526 41.0947 48.3038V22.9682C41.0947 22.9203 41.12 22.8751 41.1616 22.8516L42.1335 22.2829C42.1751 22.2585 42.2276 22.2576 42.2691 22.2829C42.3116 22.3064 42.3379 22.3516 42.3379 22.4005V47.736C42.3379 47.7839 42.3125 47.8291 42.271 47.8526L41.2991 48.4213C41.2783 48.4339 41.2538 48.4394 41.2303 48.4394ZM41.3659 23.046V48.0669L42.0657 47.6573V22.6364L41.3659 23.046Z" fill="#0B4D5E"/>
<path d="M34.7342 37.6517L33.8916 38.1535V33.388L34.7342 32.8862V37.6517Z" fill="#F0F4FF"/>
<path d="M33.8917 38.2891C33.8691 38.2891 33.8456 38.2837 33.8248 38.271C33.7823 38.2466 33.7561 38.2014 33.7561 38.1535V33.388C33.7561 33.3401 33.7814 33.2958 33.8221 33.2713L34.6656 32.7696C34.709 32.7443 34.7596 32.7443 34.8021 32.7687C34.8446 32.7931 34.8709 32.8383 34.8709 32.8862V37.6517C34.8709 37.6996 34.8455 37.7439 34.8049 37.7683L33.9613 38.2701C33.9396 38.2828 33.9152 38.2891 33.8917 38.2891ZM34.0273 33.4648V37.9148L34.5987 37.5748V33.1249L34.0273 33.4648Z" fill="#0B4D5E"/>
<path d="M31.1704 39.7926L32.013 39.2908V34.5253L31.1704 35.0271V39.7926Z" fill="#F0F4FF"/>
<path d="M31.1705 39.9282C31.1479 39.9282 31.1244 39.9228 31.1036 39.9101C31.0611 39.8866 31.0349 39.8414 31.0349 39.7926V35.0271C31.0349 34.9792 31.0602 34.9349 31.1009 34.9105L31.9435 34.4087C31.9869 34.3834 32.0375 34.3834 32.08 34.4078C32.1225 34.4322 32.1488 34.4774 32.1488 34.5253V39.2908C32.1488 39.3387 32.1234 39.383 32.0828 39.4074L31.2401 39.9092C31.2184 39.9219 31.194 39.9282 31.1705 39.9282ZM31.3061 35.1048V39.5548L31.8766 39.2149V34.7649L31.3061 35.1048Z" fill="#0B4D5E"/>
<path d="M29.2898 40.9463L28.4309 41.4489V36.6663L29.2898 36.1645V40.9463Z" fill="#F0F4FF"/>
<path d="M28.4318 41.5845C28.4091 41.5845 28.3847 41.5791 28.3649 41.5665C28.3224 41.543 28.2961 41.4978 28.2961 41.4489V36.6663C28.2961 36.6183 28.3215 36.5731 28.3639 36.5496L29.2228 36.0479C29.2626 36.0234 29.3169 36.0225 29.3575 36.0479C29.4 36.0714 29.4263 36.1166 29.4263 36.1654V40.9472C29.4263 40.9951 29.4009 41.0403 29.3594 41.0638L28.5005 41.5665C28.4797 41.5791 28.4553 41.5845 28.4318 41.5845ZM28.5674 36.744V41.2121L29.1541 40.8685V36.4005L28.5674 36.744Z" fill="#0B4D5E"/>
<path d="M26.5684 42.5682L25.7095 43.07V38.3045L26.5684 37.8018V42.5682Z" fill="#F0F4FF"/>
<path d="M25.7096 43.2056C25.687 43.2056 25.6626 43.2001 25.6427 43.1875C25.6002 43.164 25.574 43.1188 25.574 43.07V38.3045C25.574 38.2565 25.5993 38.2113 25.6409 38.1878L26.4998 37.6852C26.5414 37.6607 26.5938 37.6598 26.6354 37.6852C26.6779 37.7087 26.7041 37.7539 26.7041 37.8027V42.5691C26.7041 42.617 26.6788 42.6622 26.6363 42.6857L25.7774 43.1875C25.7575 43.2001 25.7331 43.2056 25.7096 43.2056ZM25.8452 38.3822V42.834L26.432 42.4913V38.0387L25.8452 38.3822Z" fill="#0B4D5E"/>
<path d="M26.5684 49.81L25.7095 50.3118V45.5463L26.5684 45.0445V49.81Z" fill="#F0F4FF"/>
<path d="M25.7096 50.4465C25.687 50.4465 25.6626 50.4411 25.6427 50.4284C25.6002 50.4049 25.574 50.3597 25.574 50.3109V45.5454C25.574 45.4975 25.5993 45.4523 25.6418 45.4288L26.5007 44.927C26.5405 44.9026 26.5947 44.9008 26.6354 44.927C26.6779 44.9505 26.7041 44.9957 26.7041 45.0445V49.81C26.7041 49.8579 26.6788 49.9032 26.6363 49.9267L25.7774 50.4284C25.7575 50.4411 25.7331 50.4465 25.7096 50.4465ZM25.8452 45.6232V50.0749L26.432 49.7323V45.2805L25.8452 45.6241V45.6232Z" fill="#0B4D5E"/>
<path d="M25.7095 57.569L26.5684 57.0672V52.2846L25.7095 52.7863V57.569Z" fill="#F0F4FF"/>
<path d="M25.7096 57.7046C25.687 57.7046 25.6626 57.6992 25.6427 57.6865C25.6002 57.663 25.574 57.6178 25.574 57.569V52.7854C25.574 52.7375 25.5993 52.6923 25.6418 52.6688L26.5007 52.167C26.5405 52.1426 26.5947 52.1417 26.6354 52.167C26.6779 52.1905 26.7041 52.2357 26.7041 52.2845V57.0681C26.7041 57.116 26.6788 57.1612 26.6363 57.1847L25.7774 57.6865C25.7575 57.6992 25.7331 57.7046 25.7096 57.7046ZM25.8452 52.8631V57.3321L26.432 56.9894V52.5205L25.8452 52.8631Z" fill="#0B4D5E"/>
<path d="M28.4319 48.7061L29.2908 48.2043V43.4379L28.4319 43.9397V48.7061Z" fill="#F0F4FF"/>
<path d="M28.4318 48.8417C28.4091 48.8417 28.3847 48.8363 28.3649 48.8236C28.3224 48.8001 28.2961 48.7549 28.2961 48.7061V43.9397C28.2961 43.8918 28.3215 43.8466 28.3639 43.8231L29.2228 43.3213C29.2626 43.2969 29.3169 43.296 29.3575 43.3213C29.4 43.3448 29.4263 43.39 29.4263 43.4388V48.2052C29.4263 48.2532 29.401 48.2984 29.3585 48.3219L28.4996 48.8236C28.4797 48.8363 28.4553 48.8417 28.4318 48.8417ZM28.5674 44.0166V48.4692L29.1541 48.1266V43.6739L28.5674 44.0166Z" fill="#0B4D5E"/>
<path d="M29.2898 55.4796L28.4309 55.9651V51.1987L29.2898 50.6969V55.4796Z" fill="#F0F4FF"/>
<path d="M28.4318 56.1007C28.4082 56.1007 28.3838 56.0944 28.3639 56.0817C28.3215 56.0573 28.2961 56.013 28.2961 55.9651V51.1987C28.2961 51.1508 28.3215 51.1056 28.3639 51.0821L29.2228 50.5803C29.2626 50.5559 29.3169 50.555 29.3575 50.5803C29.4 50.6038 29.4263 50.649 29.4263 50.6978V55.4814C29.4263 55.5302 29.4 55.5754 29.3575 55.5989L28.4987 56.0844C28.4779 56.0962 28.4544 56.1025 28.4318 56.1025V56.1007ZM28.5674 51.2755V55.7318L29.1541 55.4V50.932L28.5674 51.2755Z" fill="#0B4D5E"/>
<path d="M32.013 46.5661L31.1704 47.0679V42.3015L32.013 41.7997V46.5661Z" fill="#F0F4FF"/>
<path d="M31.1705 47.2026C31.1479 47.2026 31.1244 47.1972 31.1036 47.1845C31.0611 47.1601 31.0349 47.1149 31.0349 47.067V42.3006C31.0349 42.2527 31.0602 42.2084 31.1009 42.184L31.9435 41.6822C31.9869 41.6569 32.0375 41.6569 32.08 41.6813C32.1225 41.7048 32.1488 41.75 32.1488 41.7988V46.5652C32.1488 46.6131 32.1234 46.6574 32.0828 46.6818L31.2401 47.1836C31.2184 47.1963 31.194 47.2026 31.1705 47.2026ZM31.3061 42.3783V46.8292L31.8766 46.4893V42.0384L31.3061 42.3783Z" fill="#0B4D5E"/>
<path d="M31.1704 54.3414L32.013 53.8396V49.0741L31.1704 49.5759V54.3414Z" fill="#F0F4FF"/>
<path d="M31.1705 54.477C31.1479 54.477 31.1244 54.4715 31.1036 54.4589C31.0611 54.4345 31.0349 54.3893 31.0349 54.3414V49.5759C31.0349 49.5279 31.0602 49.4836 31.1009 49.4592L31.9435 48.9575C31.9869 48.9321 32.0375 48.9321 32.08 48.9566C32.1225 48.9801 32.1488 49.0253 32.1488 49.0741V53.8396C32.1488 53.8875 32.1234 53.9318 32.0828 53.9562L31.2401 54.458C31.2184 54.4706 31.194 54.477 31.1705 54.477ZM31.3061 49.6527V54.1027L31.8766 53.7627V49.3128L31.3061 49.6527Z" fill="#0B4D5E"/>
<path d="M33.8916 45.4614L34.7342 44.9596V40.1769L33.8916 40.6787V45.4614Z" fill="#F0F4FF"/>
<path d="M33.8917 45.5969C33.8691 45.5969 33.8456 45.5915 33.8248 45.5788C33.7823 45.5544 33.7561 45.5092 33.7561 45.4613V40.6786C33.7561 40.6307 33.7814 40.5864 33.8221 40.562L34.6656 40.0602C34.709 40.0358 34.7596 40.0349 34.8021 40.0593C34.8446 40.0837 34.8709 40.129 34.8709 40.1769V44.9604C34.8709 45.0084 34.8455 45.0527 34.8049 45.0771L33.9613 45.5788C33.9396 45.5915 33.9152 45.5969 33.8917 45.5969ZM34.0273 40.7564V45.2235L34.5987 44.8836V40.4165L34.0273 40.7564Z" fill="#0B4D5E"/>
<path d="M34.7342 52.2511L33.8916 52.7528V47.9873L34.7342 47.4856V52.2511Z" fill="#F0F4FF"/>
<path d="M33.8917 52.8875C33.8691 52.8875 33.8456 52.8821 33.8248 52.8694C33.7823 52.845 33.7561 52.7998 33.7561 52.7519V47.9864C33.7561 47.9385 33.7814 47.8942 33.8221 47.8698L34.6656 47.368C34.709 47.3427 34.7596 47.3427 34.8021 47.3671C34.8446 47.3915 34.8709 47.4367 34.8709 47.4846V52.2501C34.8709 52.2981 34.8455 52.3424 34.8049 52.3668L33.9613 52.8685C33.9396 52.8812 33.9152 52.8875 33.8917 52.8875ZM34.0273 48.0642V52.5141L34.5987 52.1733V47.7233L34.0273 48.0642Z" fill="#0B4D5E"/>
</svg>
