<svg width="64" height="64" viewBox="0 0 64 64" fill="none" xmlns="http://www.w3.org/2000/svg">
<g clip-path="url(#clip0_9503_15370)">
<path d="M16.9996 15.2314L37.4507 30.9631L36.6641 36.4691L15.4264 19.9509L16.9996 15.2314Z" fill="#0B4D5E"/>
<path fill-rule="evenodd" clip-rule="evenodd" d="M36.5323 30.5603L17.1486 15.0177C20.1497 13.5647 24.1196 13.0856 28.7983 13.6583C31.5524 13.9922 34.667 14.703 37.6619 15.7532C39.3052 16.3279 40.9647 17.0118 42.6221 17.8051C44.9167 18.9038 47.0514 20.138 48.9959 21.4654L48.999 21.4646C52.7691 24.0387 55.8187 26.9589 57.9072 29.8993L57.8955 29.8996L57.9071 29.9015C60.8698 34.0784 61.8958 38.2977 60.2971 41.6388C59.9267 42.4119 59.4309 43.106 58.8238 43.7192C55.6042 46.9732 49.2621 47.9556 41.9405 46.5795C38.3302 45.9016 34.4809 44.6489 30.6501 42.8155C27.1127 41.1217 23.9537 39.1061 21.2926 36.9286L36.5323 30.5603Z" fill="#F0F4FF"/>
<path fill-rule="evenodd" clip-rule="evenodd" d="M17.5922 15.0712C20.4983 13.7682 24.2961 13.3451 28.7693 13.8927C31.5061 14.2245 34.6044 14.9313 37.5836 15.976C39.2185 16.5478 40.8702 17.2284 42.5199 18.018C44.8039 19.1117 46.9281 20.34 48.8626 21.6604L48.9498 21.7199L48.9527 21.7192C52.6641 24.2661 55.6612 27.1451 57.7145 30.036L57.8705 29.9252L57.8704 29.9275L57.7144 30.0382C60.6567 34.1864 61.628 38.3101 60.0839 41.5371C59.7255 42.2853 59.2453 42.958 58.6559 43.5532C57.0918 45.134 54.7535 46.1778 51.8816 46.653C49.0114 47.1279 45.6239 47.0319 41.9838 46.3477C38.395 45.6738 34.5651 44.4279 30.7517 42.6028C27.3653 40.9813 24.3288 39.0642 21.7479 36.9941L36.9897 30.625L17.5922 15.0712ZM58.9912 43.8853C59.616 43.2543 60.1274 42.5387 60.5096 41.7409C62.1161 38.3835 61.1412 34.2143 58.3481 30.1226L58.3547 30.1224L58.0992 29.7627C55.9917 26.7955 52.9203 23.8566 49.1317 21.2699L49.0445 21.2103L49.0413 21.2111C47.1102 19.8995 44.9946 18.6797 42.7237 17.5924C41.0587 16.7954 39.3912 16.1083 37.7397 15.5307C34.7291 14.4749 31.5979 13.7602 28.8265 13.4242C24.1195 12.8481 20.1002 13.3264 17.0455 14.8054L16.7092 14.9682L36.0743 30.496L20.8388 36.8625L21.1429 37.1114C23.8193 39.3014 26.9944 41.3269 30.5478 43.0285C34.396 44.8702 38.265 46.1296 41.8966 46.8116C45.5781 47.5035 49.0225 47.6044 51.9586 47.1186C54.893 46.6331 57.3356 45.5586 58.9912 43.8853Z" fill="#0B4D5E"/>
<path d="M60.2926 41.6593L60.2971 41.6519C60.2959 41.6545 60.2939 41.6567 60.2926 41.6593Z" fill="#0B4D5E"/>
<path d="M59.7475 42.6085C59.4772 43.0084 59.1684 43.3826 58.8237 43.7307C55.6041 46.9847 49.262 47.9671 41.9403 46.591C38.3301 45.9131 34.4807 44.6604 30.6499 42.827C27.1128 41.1333 23.9541 39.1179 21.2931 36.9407L18.2615 43.8961C20.7769 45.8692 23.7051 47.6945 26.9511 49.2487C31.1806 51.2744 35.4323 52.5878 39.3602 53.205C47.5662 54.4941 54.3617 52.7416 56.5979 48.073L59.7042 42.6819L59.7123 42.6698L59.7475 42.6085Z" fill="#0B4D5E"/>
<path fill-rule="evenodd" clip-rule="evenodd" d="M21.2014 36.5608L17.9723 43.9692L18.1159 44.0819C20.6455 46.0661 23.5885 47.9004 26.8493 49.4616C31.0979 51.4965 35.3716 52.8172 39.3237 53.4382C43.4501 54.0864 47.2367 53.9726 50.2828 53.1001C53.3259 52.2284 55.6495 50.5922 56.8069 48.1832L59.9049 42.8065L59.9175 42.7877L59.9522 42.7261L59.5521 42.4764C59.2902 42.8638 58.9908 43.2267 58.6561 43.5647C57.0921 45.1455 54.7538 46.1893 51.8819 46.6645C49.0116 47.1394 45.6241 47.0434 41.984 46.3592C38.3952 45.6853 34.5653 44.4394 30.7519 42.6143C27.2309 40.9283 24.0883 38.9229 21.4426 36.7582L21.2014 36.5608ZM58.4352 44.4118L56.3845 47.9708C55.3044 50.2259 53.1146 51.7979 50.1528 52.6464C47.1906 53.4949 43.4766 53.6128 39.397 52.972C35.4932 52.3586 31.2634 51.0525 27.0531 49.036C23.8837 47.5185 21.0199 45.7418 18.551 43.8228L21.3855 37.3197C24.0105 39.4342 27.1013 41.3895 30.5481 43.04C34.3963 44.8817 38.2652 46.1411 41.8969 46.8231C45.5784 47.515 49.0227 47.6159 51.9589 47.1301C54.5803 46.6964 56.8092 45.7926 58.4352 44.4118ZM60.4971 41.7776C60.5002 41.7725 60.505 41.7643 60.51 41.754L60.095 41.5306C60.095 41.5304 60.0949 41.5307 60.095 41.5306L60.0939 41.5321L60.0929 41.5337C60.0898 41.5387 60.085 41.5469 60.0801 41.5572L60.495 41.7808C60.4951 41.7806 60.4949 41.781 60.495 41.7808L60.496 41.7793L60.4971 41.7776ZM60.4994 41.7733L60.3777 41.7003L60.5054 41.7617C60.5033 41.7661 60.5012 41.77 60.4994 41.7733ZM60.2133 41.6118L60.0844 41.55C60.0866 41.5454 60.0887 41.5414 60.0906 41.5381L60.2133 41.6118ZM60.4915 41.7863C60.4908 41.7874 60.4922 41.7853 60.494 41.7824L60.4915 41.7863ZM60.0984 41.5251C60.0991 41.5241 60.0978 41.5261 60.096 41.5289L60.0984 41.5251Z" fill="#0B4D5E"/>
<path d="M13.3539 40.2444L28.0053 33.5258L31.6155 26.8073L18.2977 16.2012C15.6427 16.0373 13.2001 16.2275 11.0995 16.7658L7.97093 15.2683L4.83424 20.714C4.62378 21.0236 4.43558 21.3474 4.27166 21.6894C1.77648 26.9024 5.67204 34.2584 13.3539 40.2444Z" fill="#8AE5CC"/>
<path fill-rule="evenodd" clip-rule="evenodd" d="M7.87549 14.9609L4.63402 20.5885C4.41928 20.9052 4.22677 21.2368 4.05877 21.5873C2.76868 24.2826 3.14389 27.5054 4.78531 30.7826C6.42737 34.0611 9.34844 37.4223 13.2088 40.4304L13.3218 40.5186L28.1755 33.7072L31.9165 26.7453L18.3864 15.9702L18.3122 15.9656C15.6729 15.8026 13.2344 15.9866 11.1243 16.516L7.87549 14.9609ZM8.06618 15.5754L11.0749 17.0156L11.158 16.9943C13.2105 16.4683 15.6018 16.2775 18.2089 16.4321L31.3143 26.869L27.8348 33.3442L13.386 39.9699C9.62085 37.015 6.79386 33.7389 5.20728 30.5712C3.60425 27.3707 3.27933 24.3089 4.48442 21.7912C4.64295 21.4604 4.82514 21.1469 5.02931 20.8465L5.0392 20.832L8.06618 15.5754Z" fill="#0B4D5E"/>
<path d="M16.2882 33.2109L31.6155 26.806L18.2977 16.1999L12.1437 11.2986C10.2374 12.2214 8.79457 13.5469 7.97093 15.267C5.55872 20.3039 9.11633 27.3443 16.2882 33.2109Z" fill="#F0F4FF"/>
<path fill-rule="evenodd" clip-rule="evenodd" d="M12.1745 11.0215L12.0409 11.0862C10.0963 12.0275 8.60911 13.3877 7.75804 15.1651C6.51088 17.7692 6.81937 20.8669 8.32235 24.0291C9.82564 27.192 12.534 30.4449 16.1387 33.3935L16.2484 33.4832L32.0745 26.8699L12.1745 11.0215ZM12.1136 11.5763L18.1506 16.3845L31.1564 26.742L16.3281 32.9384C12.8161 30.0447 10.199 26.8781 8.7486 23.8265C7.28285 20.7426 7.01864 17.8017 8.18369 15.3689C8.9609 13.7458 10.3121 12.4771 12.1136 11.5763Z" fill="#0B4D5E"/>
<path d="M31.6155 26.804L28.4322 33.7937L13.3539 40.2411L16.2882 33.2089L31.6155 26.804Z" fill="#0B4D5E"/>
<path d="M31.5247 26.5863L16.1976 32.9915L16.1565 33.013C16.1184 33.0386 16.0885 33.0755 16.0706 33.1185L13.136 40.1507C13.0993 40.2392 13.1198 40.341 13.1878 40.4085C13.256 40.4761 13.3583 40.496 13.4466 40.4583L13.3538 40.2415H13.3548L13.4466 40.4583L28.5247 34.0111L28.5638 33.9896C28.5997 33.9655 28.6285 33.9318 28.6468 33.8919L28.4319 33.7943V33.7933L28.6468 33.8919L31.8304 26.9017C31.8704 26.8135 31.8527 26.7097 31.7854 26.64C31.7179 26.5703 31.6142 26.5489 31.5247 26.5863ZM28.2552 33.6117L13.7962 39.7943L16.469 33.389L31.1517 27.2533L28.2552 33.6117Z" fill="#0B4D5E"/>
<path d="M6.00562 50.6919C10.2793 50.4543 10.4477 50.2822 10.6234 46.0049C10.861 50.2785 11.0331 50.4469 15.3104 50.6263C11.0368 50.8639 10.8684 51.036 10.6889 55.3133C10.4513 51.0397 10.2793 50.8713 6.00562 50.6919Z" fill="#F0F4FF"/>
<path d="M10.5976 55.3182C10.3619 51.0881 10.2326 50.9613 6.00187 50.7837L6 50.6C10.2302 50.3649 10.3569 50.2357 10.5315 46.0012L10.7146 46C10.9503 50.2302 11.0795 50.3569 15.314 50.5345L15.3158 50.7182C11.0856 50.9534 10.9589 51.082 10.7807 55.317L10.5976 55.3182ZM7.49479 50.6815C9.94483 50.8737 10.4537 51.3753 10.6791 53.8241C10.8707 51.371 11.3729 50.8621 13.8205 50.6362C11.371 50.4445 10.8603 49.943 10.6344 47.5009C10.4439 49.9479 9.94116 50.4561 7.49479 50.6815Z" fill="#0B4D5E"/>
</g>
<defs>
<clipPath id="clip0_9503_15370">
<rect width="64" height="64" fill="white"/>
</clipPath>
</defs>
</svg>
