<svg width="64" height="64" viewBox="0 0 64 64" fill="none" xmlns="http://www.w3.org/2000/svg">
<path d="M40.5912 40.793L24.8799 31.7385L40.5912 22.6841L56.3026 31.7385L40.5912 40.793Z" fill="#F0F4FF"/>
<path d="M40.5913 40.9292C40.5687 40.9292 40.5444 40.9238 40.5236 40.9111L24.8123 31.8558C24.7708 31.8314 24.7446 31.7872 24.7446 31.7385C24.7446 31.6898 24.7708 31.6456 24.8123 31.6212L40.5236 22.5659C40.566 22.5415 40.6174 22.5415 40.6589 22.5659L56.3703 31.6212C56.4118 31.6456 56.4379 31.6898 56.4379 31.7385C56.4379 31.7872 56.4118 31.8314 56.3703 31.8558L40.6589 40.9111C40.6382 40.9238 40.6138 40.9292 40.5913 40.9292ZM25.1514 31.7385L40.5913 40.6369L56.0311 31.7385L40.5913 22.8401L25.1514 31.7385Z" fill="#0B4D5E"/>
<path d="M24.8799 31.7385L40.5912 40.793V50.3914L24.8799 41.3369V31.7385Z" fill="#0B4D5E"/>
<path d="M40.5913 50.5266C40.5687 50.5266 40.5444 50.5212 40.5236 50.5086L24.8123 41.4541C24.7708 41.4297 24.7446 41.3855 24.7446 41.3368V31.7384C24.7446 31.6897 24.7708 31.6455 24.8123 31.6212C24.8538 31.5977 24.9052 31.5959 24.9476 31.6212L40.6589 40.6765C40.7004 40.7009 40.7266 40.7451 40.7266 40.7938V50.3913C40.7266 50.44 40.7004 50.4842 40.6589 50.5086C40.6382 50.5203 40.6147 50.5266 40.5913 50.5266ZM25.0161 41.2584L40.456 50.1568V40.8723L25.0161 31.973V41.2584Z" fill="#0B4D5E"/>
<path d="M56.3024 31.7385L40.5911 40.793V50.3914L56.3033 41.3369L56.3024 31.7385Z" fill="#8AE5CC"/>
<path d="M40.5914 50.5266C40.5679 50.5266 40.5445 50.5203 40.5237 50.5086C40.4822 50.4842 40.4561 50.44 40.4561 50.3913V40.7938C40.4561 40.7451 40.4822 40.7009 40.5237 40.6765L56.2351 31.6212C56.2775 31.5959 56.3289 31.5977 56.3704 31.6212C56.4119 31.6455 56.438 31.6897 56.438 31.7384V41.3368C56.438 41.3855 56.4119 41.4297 56.3704 41.4541L40.659 50.5086C40.6383 50.5212 40.6139 50.5266 40.5914 50.5266ZM40.7276 40.8723V50.1568L56.1674 41.2584V31.973L40.7276 40.8723Z" fill="#0B4D5E"/>
<path d="M44.3679 24.9744C44.6818 25.7167 44.3327 26.5367 43.3206 27.1131C41.7746 27.9997 39.2408 27.9889 37.6947 27.1131C37.0245 26.736 36.6457 26.2489 36.5564 25.7501V27.1022C36.5564 27.6452 36.9921 28.2992 37.7561 28.7313C38.5264 29.1751 39.5439 29.3961 40.5605 29.3852C40.8536 29.3852 41.1459 29.3744 41.4336 29.3302C42.1273 29.2418 42.7839 29.0425 43.3206 28.7313C44.0846 28.2992 44.5203 27.7562 44.5203 27.1022V25.5733C44.5203 25.3848 44.468 25.1746 44.3679 24.9744Z" fill="#0B4D5E"/>
<path d="M40.482 29.5205C39.4329 29.5205 38.4425 29.2833 37.6875 28.8485C36.9181 28.4137 36.4202 27.7273 36.4202 27.1022V25.75C36.4202 25.6797 36.4743 25.6211 36.5437 25.6156C36.6249 25.6075 36.6772 25.658 36.689 25.7266C36.7747 26.2047 37.1553 26.6548 37.7606 26.9957C39.2859 27.8599 41.7484 27.859 43.253 26.9957C44.173 26.4717 44.5437 25.7356 44.2443 25.0266C44.2154 24.959 44.2443 24.8814 44.3119 24.8507C44.3724 24.8201 44.4553 24.8471 44.4887 24.913C44.5961 25.1268 44.6565 25.3613 44.6565 25.5723V27.1022C44.6565 27.785 44.2289 28.3731 43.3883 28.8494C42.8534 29.1579 42.1832 29.3707 41.4507 29.4645C41.1819 29.506 40.8707 29.5223 40.4838 29.5214L40.482 29.5205ZM36.6917 26.413V27.1022C36.6917 27.6235 37.1463 28.2306 37.8228 28.614C38.5282 29.0199 39.4951 29.2508 40.4865 29.2508C40.877 29.2526 41.1558 29.2363 41.411 29.1957C42.1119 29.1064 42.7478 28.9062 43.252 28.614C44.0034 28.1891 44.3841 27.6804 44.3841 27.1022V26.3084C44.1793 26.6539 43.842 26.9705 43.3865 27.2303C41.8097 28.135 39.2254 28.1359 37.6271 27.2303C37.2194 27.0011 36.9009 26.7215 36.6917 26.4121V26.413Z" fill="#0B4D5E"/>
<path d="M40.4531 27.7778C39.451 27.767 38.4533 27.5451 37.6938 27.113C36.781 26.5925 36.4076 25.8826 36.5726 25.207C36.5402 25.318 36.5239 25.4398 36.5239 25.5733V27.1022C36.5239 27.6452 36.9596 28.2992 37.7236 28.7312C38.4885 29.175 39.4699 29.3852 40.4522 29.3852L40.4531 27.7778Z" fill="#8AE5CC"/>
<path d="M40.4532 29.5205C39.3969 29.5205 38.4047 29.2814 37.656 28.8485C36.8866 28.4137 36.3887 27.7273 36.3887 27.1022V25.5723C36.3887 25.4298 36.4076 25.2945 36.4428 25.17C36.4635 25.0988 36.5366 25.0573 36.6079 25.0762C36.6791 25.0952 36.7224 25.1673 36.7044 25.2395C36.5474 25.8826 36.9335 26.5231 37.7615 26.9957C38.475 27.4016 39.4321 27.6317 40.455 27.6434C40.5289 27.6434 40.5885 27.7047 40.5885 27.7787V29.3852C40.5885 29.46 40.528 29.5205 40.4532 29.5205ZM36.6602 26.358V27.1022C36.6602 27.6235 37.1148 28.2306 37.7913 28.6139C38.4678 29.0063 39.3599 29.2291 40.3179 29.249V27.9113C39.3004 27.8815 38.3488 27.6416 37.628 27.2312C37.196 26.984 36.8676 26.6845 36.6611 26.3589L36.6602 26.358Z" fill="#0B4D5E"/>
<path d="M40.5226 27.7778C42.7305 27.7778 44.5204 26.7739 44.5204 25.5354C44.5204 24.297 42.7305 23.293 40.5226 23.293C38.3148 23.293 36.5249 24.297 36.5249 25.5354C36.5249 26.7739 38.3148 27.7778 40.5226 27.7778Z" fill="#F0F4FF"/>
<path d="M40.5217 27.913C38.2432 27.913 36.3887 26.846 36.3887 25.5353C36.3887 24.2247 38.2432 23.1576 40.5217 23.1576C42.8002 23.1576 44.6557 24.2247 44.6557 25.5353C44.6557 26.846 42.8011 27.913 40.5217 27.913ZM40.5217 23.4282C38.3921 23.4282 36.6602 24.3735 36.6602 25.5353C36.6602 26.6971 38.3921 27.6424 40.5217 27.6424C42.6514 27.6424 44.3842 26.6971 44.3842 25.5353C44.3842 24.3735 42.6514 23.4282 40.5217 23.4282Z" fill="#0B4D5E"/>
<path d="M22.8465 51.2671L7.13428 42.2127L22.8465 33.1582L38.5579 42.2127L22.8465 51.2671Z" fill="#F0F4FF"/>
<path d="M22.8467 51.4025C22.8241 51.4025 22.7998 51.3971 22.779 51.3845L7.06765 42.3291C7.02616 42.3047 7 42.2605 7 42.2118C7 42.1631 7.02616 42.119 7.06765 42.0946L22.779 33.0401C22.8214 33.0158 22.8728 33.0158 22.9143 33.0401L38.6257 42.0946C38.6672 42.119 38.6933 42.1631 38.6933 42.2118C38.6933 42.2605 38.6672 42.3047 38.6257 42.3291L22.9143 51.3845C22.8936 51.3971 22.8692 51.4025 22.8467 51.4025ZM7.40591 42.2127L22.8458 51.1112L38.2856 42.2127L22.8458 33.3143L7.40591 42.2127Z" fill="#0B4D5E"/>
<path d="M7.13428 42.2128L22.8465 51.2672V60.8656L7.13428 51.8103V42.2128Z" fill="#0B4D5E"/>
<path d="M22.8467 61C22.8241 61 22.7998 60.9945 22.779 60.9819L7.06765 51.9275C7.02616 51.9031 7 51.8589 7 51.8102V42.2118C7 42.1631 7.02616 42.1189 7.06765 42.0946C7.11005 42.0711 7.16146 42.0693 7.20295 42.0946L22.9143 51.1499C22.9558 51.1743 22.982 51.2185 22.982 51.2672V60.8647C22.982 60.9134 22.9558 60.9576 22.9143 60.9819C22.8936 60.9936 22.8701 61 22.8467 61ZM7.27061 51.7326L22.7105 60.631V51.3466L7.27061 42.4472V51.7326Z" fill="#0B4D5E"/>
<path d="M38.558 42.2128L22.8467 51.2672V60.8656L38.558 51.8103V42.2128Z" fill="#8AE5CC"/>
<path d="M22.8467 61C22.8233 61 22.7998 60.9936 22.7791 60.9819C22.7376 60.9576 22.7114 60.9134 22.7114 60.8647V51.2672C22.7114 51.2185 22.7376 51.1743 22.7791 51.1499L38.4904 42.0946C38.5328 42.0693 38.5842 42.0711 38.6257 42.0946C38.6672 42.1189 38.6934 42.1631 38.6934 42.2118V51.8102C38.6934 51.8589 38.6672 51.9031 38.6257 51.9275L22.9144 60.9819C22.8936 60.9945 22.8693 61 22.8467 61ZM22.982 51.3456V60.6301L38.4219 51.7317V42.4463L22.982 51.3456Z" fill="#0B4D5E"/>
<path d="M26.6223 35.4485C26.9362 36.1908 26.5871 37.0108 25.575 37.5872C24.029 38.4739 21.4952 38.463 19.9491 37.5872C19.2789 37.2101 18.9001 36.723 18.8108 36.2242V37.5764C18.8108 38.1194 19.2465 38.7733 20.0105 39.2054C20.7808 39.6492 21.7983 39.8702 22.8148 39.8594C23.108 39.8594 23.4003 39.8485 23.688 39.8043C24.3817 39.7159 25.0383 39.5166 25.575 39.2054C26.339 38.7733 26.7747 38.2303 26.7747 37.5764V36.0474C26.7747 35.8589 26.7224 35.6487 26.6223 35.4485Z" fill="#0B4D5E"/>
<path d="M22.7393 39.9948C21.6884 39.9948 20.6971 39.7566 19.9421 39.3218C19.1727 38.8871 18.6748 38.2015 18.6748 37.5755V36.2234C18.6748 36.1531 18.7289 36.0944 18.7984 36.089C18.8814 36.0764 18.931 36.1314 18.9436 36.2C19.0293 36.678 19.4099 37.1281 20.0152 37.4691C21.5405 38.3323 24.0039 38.3323 25.5085 37.4691C26.4286 36.9441 26.7984 36.209 26.4989 35.5C26.47 35.4323 26.4989 35.3548 26.5657 35.3241C26.6306 35.2943 26.71 35.3205 26.7434 35.3863C26.8507 35.5992 26.9111 35.8337 26.9111 36.0448V37.5746C26.9111 38.2584 26.4836 38.8465 25.6429 39.3218C25.1089 39.6303 24.4387 39.8432 23.7063 39.937C23.4339 39.9785 23.1263 39.9911 22.7411 39.9938L22.7393 39.9948ZM18.9463 36.8873V37.5764C18.9463 38.0987 19.4009 38.7058 20.0774 39.0882C20.7819 39.4941 21.7507 39.725 22.7438 39.725C23.1317 39.7287 23.4086 39.7106 23.6675 39.67C24.3674 39.5807 25.0025 39.3796 25.5067 39.0882C26.2581 38.6634 26.6387 38.1546 26.6387 37.5764V36.7845C26.434 37.129 26.0966 37.4457 25.642 37.7054C24.0635 38.6102 21.4801 38.6111 19.8817 37.7054C19.474 37.4763 19.1556 37.1967 18.9463 36.8882V36.8873Z" fill="#0B4D5E"/>
<path d="M22.7087 38.252C21.7066 38.2412 20.709 38.0193 19.9495 37.5872C19.0366 37.0668 18.6632 36.3569 18.8282 35.6813C18.7958 35.7922 18.7795 35.914 18.7795 36.0475V37.5764C18.7795 38.1194 19.2152 38.7734 19.9792 39.2055C20.7441 39.6493 21.7255 39.8594 22.7078 39.8594L22.7087 38.252Z" fill="#8AE5CC"/>
<path d="M22.7078 39.9947C21.6515 39.9947 20.6584 39.7557 19.9106 39.3227C19.1412 38.8879 18.6433 38.2024 18.6433 37.5764V36.0466C18.6433 35.9022 18.6623 35.7669 18.6992 35.6425C18.7191 35.5721 18.7939 35.5315 18.8643 35.5496C18.9356 35.5685 18.978 35.6416 18.9599 35.7128C18.8021 36.356 19.1872 36.9964 20.0162 37.469C20.7297 37.875 21.6858 38.105 22.7096 38.1167C22.7836 38.1167 22.8431 38.178 22.8431 38.252V39.8594C22.8431 39.9343 22.7827 39.9947 22.7078 39.9947ZM18.9148 36.8322V37.5764C18.9148 38.0987 19.3694 38.7057 20.0459 39.0882C20.7216 39.4806 21.6146 39.7043 22.5725 39.7232V38.3855C21.5541 38.3558 20.6025 38.1158 19.8827 37.7054C19.4497 37.4582 19.1223 37.1588 18.9157 36.8331L18.9148 36.8322Z" fill="#0B4D5E"/>
<path d="M22.7773 38.2519C24.9852 38.2519 26.775 37.248 26.775 36.0095C26.775 34.7711 24.9852 33.7671 22.7773 33.7671C20.5694 33.7671 18.7795 34.7711 18.7795 36.0095C18.7795 37.248 20.5694 38.2519 22.7773 38.2519Z" fill="#F0F4FF"/>
<path d="M22.7773 38.3873C20.4979 38.3873 18.6433 37.3202 18.6433 36.0096C18.6433 34.6989 20.4979 33.6318 22.7773 33.6318C25.0567 33.6318 26.9103 34.6989 26.9103 36.0096C26.9103 37.3202 25.0558 38.3873 22.7773 38.3873ZM22.7773 33.9025C20.6476 33.9025 18.9148 34.8478 18.9148 36.0096C18.9148 37.1714 20.6476 38.1167 22.7773 38.1167C24.9069 38.1167 26.6388 37.1714 26.6388 36.0096C26.6388 34.8478 24.9069 33.9025 22.7773 33.9025Z" fill="#0B4D5E"/>
<path d="M34.3156 40.5332C34.6295 41.2756 34.2804 42.0955 33.2684 42.6719C31.7223 43.5586 29.1886 43.5478 27.6425 42.6719C26.9723 42.2948 26.5935 41.8078 26.5042 41.309V42.6611C26.5042 43.2041 26.9398 43.8581 27.7038 44.2901C28.4742 44.7339 29.4916 44.9549 30.5082 44.9441C30.8014 44.9441 31.0936 44.9333 31.3814 44.8891C32.075 44.8007 32.7317 44.6013 33.2684 44.2901C34.0324 43.8581 34.4681 43.315 34.4681 42.6611V41.1321C34.4681 40.9436 34.4158 40.7335 34.3156 40.5332Z" fill="#0B4D5E"/>
<path d="M30.4334 45.0802C29.3825 45.0802 28.3912 44.8421 27.6362 44.4073C26.8668 43.9726 26.3689 43.287 26.3689 42.661V41.3089C26.3689 41.2385 26.423 41.1799 26.4925 41.1745C26.5773 41.17 26.6251 41.2169 26.6377 41.2854C26.7234 41.7635 27.104 42.2136 27.7093 42.5546C29.2346 43.4187 31.6971 43.4178 33.2017 42.5546C34.1226 42.0305 34.4925 41.2954 34.193 40.5855C34.1641 40.5178 34.193 40.4402 34.2598 40.4096C34.3247 40.3789 34.4041 40.406 34.4374 40.4718C34.5448 40.6856 34.6052 40.9201 34.6052 41.1312V42.6601C34.6052 43.3438 34.1777 43.932 33.337 44.4073C32.8039 44.7158 32.1337 44.9287 31.3995 45.0225C31.1316 45.064 30.8267 45.082 30.4352 45.0793L30.4334 45.0802ZM26.6404 41.9719V42.661C26.6404 43.1833 27.095 43.7903 27.7715 44.1728C28.476 44.5787 29.4448 44.8096 30.4379 44.8096C30.8294 44.8141 31.1045 44.7952 31.3598 44.7546C32.0624 44.6653 32.6975 44.4641 33.2008 44.1728C33.9522 43.7479 34.3328 43.2392 34.3328 42.661V41.869C34.1281 42.2136 33.7907 42.5302 33.3352 42.79C31.7585 43.6956 29.176 43.6956 27.5758 42.79C27.1681 42.5609 26.8497 42.2813 26.6404 41.9728V41.9719Z" fill="#0B4D5E"/>
<path d="M30.4018 43.3376C29.3997 43.3268 28.4021 43.1049 27.6426 42.6728C26.7297 42.1524 26.3563 41.4425 26.5214 40.7668C26.4889 40.8778 26.4727 40.9996 26.4727 41.1331V42.662C26.4727 43.205 26.9083 43.859 27.6723 44.291C28.4373 44.7348 29.4186 44.945 30.4009 44.945V43.3376H30.4018Z" fill="#8AE5CC"/>
<path d="M30.4019 45.0794C29.3456 45.0794 28.3525 44.8403 27.6047 44.4074C26.8353 43.9726 26.3374 43.2871 26.3374 42.6611V41.1321C26.3374 40.9896 26.3563 40.8534 26.3915 40.7289C26.4123 40.6577 26.4862 40.6171 26.5566 40.6351C26.6279 40.6541 26.6711 40.7262 26.6531 40.7984C26.4962 41.4415 26.8822 42.082 27.7103 42.5546C28.4229 42.9605 29.3799 43.1906 30.4037 43.2023C30.4777 43.2023 30.5372 43.2636 30.5372 43.3376V44.9441C30.5372 45.0189 30.4768 45.0794 30.4019 45.0794ZM26.608 41.9178V42.6611C26.608 43.1833 27.0626 43.7904 27.7391 44.1728C28.4147 44.5652 29.3077 44.7889 30.2657 44.8079V43.4702C29.2473 43.4404 28.2957 43.2005 27.5759 42.7901C27.1438 42.5429 26.8146 42.2443 26.608 41.9178Z" fill="#0B4D5E"/>
<path d="M30.4704 43.3366C32.6783 43.3366 34.4681 42.3327 34.4681 41.0942C34.4681 39.8558 32.6783 38.8518 30.4704 38.8518C28.2625 38.8518 26.4727 39.8558 26.4727 41.0942C26.4727 42.3327 28.2625 43.3366 30.4704 43.3366Z" fill="#F0F4FF"/>
<path d="M30.4714 43.4728C28.192 43.4728 26.3374 42.4058 26.3374 41.0951C26.3374 39.7845 28.192 38.7174 30.4714 38.7174C32.7508 38.7174 34.6044 39.7845 34.6044 41.0951C34.6044 42.4058 32.7498 43.4728 30.4714 43.4728ZM30.4714 38.9871C28.3417 38.9871 26.6089 39.9324 26.6089 41.0942C26.6089 42.256 28.3417 43.2013 30.4714 43.2013C32.601 43.2013 34.3329 42.256 34.3329 41.0942C34.3329 39.9324 32.601 38.9871 30.4714 38.9871Z" fill="#0B4D5E"/>
<path d="M18.4699 40.1949C18.7838 40.9373 18.4347 41.7572 17.4227 42.3336C15.8766 43.2203 13.3429 43.2095 11.7968 42.3336C11.1266 41.9566 10.7477 41.4695 10.6584 40.9707V42.3228C10.6584 42.8658 11.0941 43.5198 11.8581 43.9519C12.6285 44.3957 13.6459 44.6167 14.6625 44.6058C14.9557 44.6058 15.2479 44.595 15.5357 44.5508C16.2293 44.4624 16.886 44.2631 17.4227 43.9519C18.1867 43.5198 18.6224 42.9768 18.6224 42.3228V40.7939C18.6224 40.6054 18.57 40.3952 18.4699 40.1949Z" fill="#0B4D5E"/>
<path d="M14.587 44.7411C13.5361 44.7411 12.5448 44.503 11.7898 44.0682C11.0204 43.6334 10.5225 42.9479 10.5225 42.3219V40.9698C10.5225 40.8994 10.5766 40.8408 10.646 40.8354C10.7308 40.8254 10.7786 40.8777 10.7913 40.9463C10.877 41.4244 11.2576 41.8745 11.8629 42.2155C13.3882 43.0796 15.8516 43.0787 17.3562 42.2155C18.2762 41.6914 18.646 40.9553 18.3466 40.2463C18.3177 40.1787 18.3466 40.1011 18.4133 40.0704C18.4774 40.0407 18.5576 40.0668 18.591 40.1327C18.6984 40.3465 18.7588 40.581 18.7588 40.7921V42.321C18.7588 43.0047 18.3312 43.5928 17.4906 44.0682C16.9575 44.3767 16.2873 44.5896 15.5539 44.6834C15.2851 44.7249 14.9802 44.7402 14.5888 44.7402L14.587 44.7411ZM10.794 41.6336V42.3228C10.794 42.8451 11.2486 43.4521 11.9251 43.8346C12.6296 44.2405 13.5983 44.4714 14.5915 44.4714C14.9847 44.4705 15.2581 44.456 15.5142 44.4164C16.216 44.3271 16.851 44.1259 17.3543 43.8346C18.1057 43.4097 18.4864 42.901 18.4864 42.3228V41.5308C18.2816 41.8754 17.9443 42.192 17.4896 42.4518C15.9138 43.3574 13.3286 43.3574 11.7294 42.4518C11.3216 42.2227 11.0032 41.943 10.794 41.6345V41.6336Z" fill="#0B4D5E"/>
<path d="M14.5561 42.9984C13.554 42.9875 12.5564 42.7656 11.7969 42.3336C10.884 41.8131 10.5106 41.1032 10.6757 40.4276C10.6432 40.5386 10.627 40.6603 10.627 40.7938V42.3228C10.627 42.8658 11.0626 43.5197 11.8266 43.9518C12.5915 44.3956 13.5729 44.6058 14.5552 44.6058L14.5561 42.9984Z" fill="#8AE5CC"/>
<path d="M14.5555 44.7411C13.4992 44.7411 12.5061 44.502 11.7583 44.0691C10.9889 43.6343 10.491 42.9479 10.491 42.3228V40.7938C10.491 40.6495 10.5099 40.5133 10.5469 40.3897C10.5667 40.3194 10.6416 40.2797 10.712 40.2968C10.7832 40.3158 10.8256 40.3888 10.8076 40.4601C10.6497 41.1032 11.0349 41.7436 11.8638 42.2163C12.5773 42.6222 13.5335 42.8522 14.5573 42.864C14.6312 42.864 14.6908 42.9253 14.6908 42.9993V44.6067C14.6908 44.6815 14.6303 44.742 14.5555 44.742V44.7411ZM10.7625 41.5786V42.3218C10.7625 42.8432 11.2171 43.4503 11.8936 43.8336C12.5692 44.226 13.4622 44.4497 14.4202 44.4687V43.131C13.4018 43.1012 12.4502 42.8613 11.7303 42.4508C11.2974 42.2037 10.969 41.9051 10.7625 41.5786Z" fill="#0B4D5E"/>
<path d="M14.6247 42.9984C16.8326 42.9984 18.6224 41.9944 18.6224 40.756C18.6224 39.5175 16.8326 38.5135 14.6247 38.5135C12.4168 38.5135 10.627 39.5175 10.627 40.756C10.627 41.9944 12.4168 42.9984 14.6247 42.9984Z" fill="#F0F4FF"/>
<path d="M14.6249 43.1336C12.3455 43.1336 10.491 42.0674 10.491 40.7559C10.491 39.4444 12.3455 38.3782 14.6249 38.3782C16.9043 38.3782 18.758 39.4453 18.758 40.7559C18.758 42.0665 16.9034 43.1336 14.6249 43.1336ZM14.6249 38.6488C12.4953 38.6488 10.7625 39.5941 10.7625 40.7559C10.7625 41.9177 12.4953 42.863 14.6249 42.863C16.7546 42.863 18.4865 41.9177 18.4865 40.7559C18.4865 39.5941 16.7546 38.6488 14.6249 38.6488Z" fill="#0B4D5E"/>
<path d="M26.6909 44.3757C27.0048 45.1181 26.6557 45.938 25.6436 46.5144C24.0976 47.4011 21.5638 47.3903 20.0177 46.5144C19.3475 46.1374 18.9687 45.6503 18.8794 45.1515V46.5036C18.8794 47.0466 19.3151 47.7006 20.0791 48.1326C20.8494 48.5764 21.8669 48.7974 22.8835 48.7866C23.1766 48.7866 23.4689 48.7758 23.7566 48.7316C24.4503 48.6432 25.1069 48.4438 25.6436 48.1326C26.4076 47.7006 26.8433 47.1576 26.8433 46.5036V44.9747C26.8433 44.7862 26.791 44.576 26.6909 44.3757Z" fill="#0B4D5E"/>
<path d="M22.8086 48.922C21.7587 48.922 20.7674 48.6839 20.0115 48.2491C19.2421 47.8143 18.7441 47.1279 18.7441 46.5028V45.1507C18.7441 45.0803 18.7983 45.0217 18.8677 45.0162C18.9507 45.0081 19.0003 45.0587 19.0129 45.1272C19.0986 45.6053 19.4793 46.0554 20.0845 46.3963C21.608 47.2596 24.0724 47.2596 25.5769 46.3963C26.4979 45.8723 26.8677 45.1362 26.5673 44.4272C26.5385 44.3596 26.5673 44.282 26.6341 44.2513C26.699 44.2216 26.7784 44.2477 26.8118 44.3136C26.92 44.5283 26.9805 44.7619 26.9805 44.9721V46.5019C26.9805 47.1847 26.5529 47.7728 25.7113 48.2491C25.1773 48.5576 24.5071 48.7704 23.7747 48.8642C23.5032 48.9057 23.1929 48.9184 22.8095 48.9211L22.8086 48.922ZM19.0156 45.8145V46.5037C19.0156 47.0251 19.4703 47.6321 20.1468 48.0155C20.8684 48.4313 21.8732 48.6532 22.8826 48.6523C23.2308 48.6523 23.4942 48.6352 23.7368 48.5982C24.4368 48.5089 25.0718 48.3077 25.576 48.0164C26.3283 47.5915 26.709 47.0828 26.709 46.5046V45.7108C26.5042 46.0563 26.1668 46.3729 25.7113 46.6327C24.1328 47.5374 21.5503 47.5383 19.9519 46.6327C19.5433 46.4035 19.2249 46.1239 19.0156 45.8145Z" fill="#0B4D5E"/>
<path d="M22.7771 47.1792C21.7749 47.1683 20.7773 46.9464 20.0178 46.5144C19.105 45.9939 18.7315 45.284 18.8966 44.6084C18.8641 44.7193 18.8479 44.8411 18.8479 44.9746V46.5036C18.8479 47.0466 19.2836 47.7005 20.0476 48.1326C20.8125 48.5764 21.7939 48.7865 22.7762 48.7865L22.7771 47.1792Z" fill="#8AE5CC"/>
<path d="M22.7771 48.9218C21.7208 48.9218 20.7277 48.6828 19.9799 48.2498C19.2096 47.815 18.7117 47.1286 18.7117 46.5035V44.9737C18.7117 44.8294 18.7306 44.6941 18.7676 44.5696C18.7874 44.5001 18.8614 44.4577 18.9327 44.4767C19.0039 44.4956 19.0463 44.5687 19.0283 44.64C18.8704 45.2831 19.2565 45.9226 20.0854 46.3962C20.7989 46.8021 21.7551 47.0321 22.7789 47.0438C22.8528 47.0438 22.9124 47.1052 22.9124 47.1791V48.7865C22.9124 48.8614 22.8519 48.9218 22.7771 48.9218ZM18.9832 45.7584V46.5035C18.9832 47.0249 19.4378 47.632 20.1152 48.0153C20.7908 48.4077 21.6838 48.6314 22.6418 48.6503V47.3126C21.6234 47.2829 20.6718 47.0429 19.9519 46.6325C19.519 46.3853 19.1906 46.0859 18.9841 45.7594L18.9832 45.7584Z" fill="#0B4D5E"/>
<path d="M22.8464 47.1793C25.0543 47.1793 26.8441 46.1753 26.8441 44.9369C26.8441 43.6984 25.0543 42.6945 22.8464 42.6945C20.6385 42.6945 18.8486 43.6984 18.8486 44.9369C18.8486 46.1753 20.6385 47.1793 22.8464 47.1793Z" fill="#F0F4FF"/>
<path d="M22.8466 47.3145C20.5672 47.3145 18.7126 46.2474 18.7126 44.9368C18.7126 43.6262 20.5672 42.5591 22.8466 42.5591C25.126 42.5591 26.9805 43.6262 26.9805 44.9368C26.9805 46.2474 25.126 47.3145 22.8466 47.3145ZM22.8466 42.8288C20.7169 42.8288 18.9842 43.7741 18.9842 44.9359C18.9842 46.0977 20.7169 47.043 22.8466 47.043C24.9763 47.043 26.709 46.0977 26.709 44.9359C26.709 43.7741 24.9763 42.8288 22.8466 42.8288Z" fill="#0B4D5E"/>
<path d="M44.3679 24.8167C44.6818 25.559 44.3327 26.3789 43.3206 26.9553C41.7746 27.842 39.2408 27.8312 37.6947 26.9553C37.0245 26.5783 36.6457 26.0912 36.5564 25.5924V26.9445C36.5564 27.4875 36.9921 28.1415 37.7561 28.5735C38.5264 29.0173 39.5439 29.2383 40.5605 29.2275C40.8536 29.2275 41.1459 29.2167 41.4336 29.1725C42.1273 29.0841 42.7839 28.8847 43.3206 28.5735C44.0846 28.1415 44.5203 27.5985 44.5203 26.9445V25.4156C44.5203 25.2271 44.468 25.0169 44.3679 24.8167Z" fill="#8AE5CC"/>
<path d="M40.4847 29.3628C39.4338 29.3628 38.4425 29.1247 37.6875 28.6899C36.9181 28.2551 36.4202 27.5696 36.4202 26.9436V25.5915C36.4202 25.5211 36.4743 25.4625 36.5437 25.4571C36.6249 25.449 36.6772 25.4995 36.689 25.568C36.7747 26.0461 37.1553 26.4962 37.7606 26.8372C39.2859 27.7013 41.7484 27.7004 43.253 26.8372C44.173 26.3131 44.5437 25.5779 44.2443 24.868C44.2154 24.8004 44.2443 24.7228 44.3119 24.6922C44.3724 24.6615 44.4553 24.6886 44.4887 24.7544C44.5961 24.9682 44.6565 25.2027 44.6565 25.4138V26.9427C44.6565 27.6264 44.2289 28.2145 43.3883 28.6899C42.8552 28.9984 42.185 29.2113 41.4507 29.3051C41.1828 29.3466 40.8725 29.3628 40.4865 29.3619L40.4847 29.3628ZM36.6917 26.2554V26.9445C36.6917 27.4668 37.1463 28.0738 37.8228 28.4563C38.5273 28.8622 39.496 29.0931 40.4892 29.0931C40.877 29.0967 41.1567 29.0787 41.411 29.0381C42.1137 28.9488 42.7487 28.7476 43.252 28.4563C44.0034 28.0314 44.3841 27.5227 44.3841 26.9445V26.1516C44.1793 26.4971 43.842 26.8137 43.3865 27.0735C41.8097 27.9791 39.2272 27.9791 37.6271 27.0735C37.2194 26.8444 36.9009 26.5639 36.6917 26.2554Z" fill="#0B4D5E"/>
<path d="M40.4531 27.6202C39.451 27.6094 38.4533 27.3875 37.6938 26.9554C36.781 26.4349 36.4076 25.7251 36.5726 25.0494C36.5402 25.1604 36.5239 25.2822 36.5239 25.4157V26.9446C36.5239 27.4876 36.9596 28.1415 37.7236 28.5736C38.4885 29.0174 39.4699 29.2276 40.4522 29.2276L40.4531 27.6202Z" fill="#0B4D5E"/>
<path d="M40.4532 29.3629C39.3969 29.3629 38.4038 29.1239 37.656 28.6909C36.8866 28.2562 36.3887 27.5706 36.3887 26.9446V25.4157C36.3887 25.2732 36.4076 25.137 36.4428 25.0125C36.4635 24.9413 36.5366 24.9007 36.6079 24.9187C36.6791 24.9376 36.7224 25.0098 36.7044 25.082C36.5474 25.7251 36.9335 26.3656 37.7615 26.8382C38.475 27.2441 39.4312 27.4741 40.455 27.4859C40.5289 27.4859 40.5885 27.5472 40.5885 27.6211V29.2286C40.5885 29.3034 40.528 29.3639 40.4532 29.3639V29.3629ZM36.6602 26.2005V26.9438C36.6602 27.466 37.1148 28.0731 37.7913 28.4555C38.4669 28.8479 39.3599 29.0716 40.3179 29.0905V27.7529C39.2995 27.7231 38.3479 27.4831 37.628 27.0727C37.196 26.8256 36.8667 26.527 36.6602 26.2005Z" fill="#0B4D5E"/>
<path d="M40.5226 27.6202C42.7305 27.6202 44.5204 26.6162 44.5204 25.3778C44.5204 24.1393 42.7305 23.1354 40.5226 23.1354C38.3148 23.1354 36.5249 24.1393 36.5249 25.3778C36.5249 26.6162 38.3148 27.6202 40.5226 27.6202Z" fill="#F0F4FF"/>
<path d="M40.5217 27.7554C38.2432 27.7554 36.3887 26.6892 36.3887 25.3777C36.3887 24.0662 38.2432 23 40.5217 23C42.8002 23 44.6557 24.0671 44.6557 25.3777C44.6557 26.6883 42.8011 27.7554 40.5217 27.7554ZM40.5217 23.2706C38.3921 23.2706 36.6602 24.2159 36.6602 25.3777C36.6602 26.5395 38.3921 27.4848 40.5217 27.4848C42.6514 27.4848 44.3842 26.5395 44.3842 25.3777C44.3842 24.2159 42.6514 23.2706 40.5217 23.2706Z" fill="#0B4D5E"/>
<path d="M52.0612 29.9014C52.3751 30.6437 52.0261 31.4637 51.014 32.0401C49.4679 32.9267 46.9342 32.9159 45.3881 32.0401C44.7179 31.663 44.3391 31.1759 44.2498 30.6771V32.0292C44.2498 32.5723 44.6854 33.2262 45.4494 33.6583C46.2198 34.1021 47.2372 34.323 48.2538 34.3122C48.547 34.3122 48.8392 34.3014 49.127 34.2572C49.8206 34.1688 50.4773 33.9695 51.014 33.6583C51.778 33.2262 52.2137 32.6832 52.2137 32.0292V30.5003C52.2137 30.3118 52.1614 30.1016 52.0612 29.9014Z" fill="#8AE5CC"/>
<path d="M48.178 34.4485C47.1281 34.4485 46.1368 34.2103 45.3818 33.7756C44.6114 33.3408 44.1135 32.6544 44.1135 32.0293V30.6771C44.1135 30.6068 44.1676 30.5481 44.2371 30.5427C44.321 30.5337 44.3697 30.5851 44.3823 30.6537C44.4689 31.1317 44.8496 31.5819 45.4539 31.9228C46.9792 32.787 49.4417 32.7861 50.9463 31.9228C51.8664 31.3988 52.2371 30.6636 51.9376 29.9537C51.9088 29.8861 51.9376 29.8085 52.0044 29.7778C52.0693 29.7481 52.1487 29.7742 52.1821 29.8401C52.2894 30.0529 52.3499 30.2875 52.3499 30.4985V32.0284C52.3499 32.7121 51.9223 33.3002 51.0816 33.7756C50.5458 34.084 49.8765 34.2969 49.1441 34.3907C48.8717 34.4322 48.5641 34.4494 48.1789 34.4476L48.178 34.4485ZM44.385 31.3392V32.0293C44.385 32.5506 44.8396 33.1577 45.5171 33.5411C46.2215 33.947 47.1894 34.1779 48.1825 34.1779C48.5713 34.1779 48.8473 34.1634 49.1062 34.1228C49.8062 34.0335 50.4412 33.8324 50.9463 33.5411C51.6977 33.1162 52.0783 32.6075 52.0783 32.0293V31.2364C51.8736 31.581 51.5362 31.8985 51.0807 32.1582C49.504 33.063 46.9197 33.0639 45.3213 32.1582C44.9127 31.9282 44.5943 31.6486 44.385 31.3392Z" fill="#0B4D5E"/>
<path d="M48.1465 32.7056C47.1443 32.6948 46.1467 32.4729 45.3872 32.0409C44.4744 31.5204 44.1009 30.8105 44.266 30.1349C44.2335 30.2458 44.2173 30.3676 44.2173 30.5011V32.03C44.2173 32.573 44.653 33.227 45.417 33.6591C46.1819 34.1028 47.1633 34.313 48.1456 34.313V32.7056H48.1465Z" fill="#0B4D5E"/>
<path d="M48.1465 34.4475C47.0903 34.4475 46.0971 34.2084 45.3494 33.7755C44.5799 33.3407 44.082 32.6552 44.082 32.0292V30.4993C44.082 30.3568 44.101 30.2215 44.1362 30.097C44.1569 30.0258 44.2309 29.9843 44.3012 30.0032C44.3725 30.0222 44.4158 30.0943 44.3977 30.1665C44.2408 30.8096 44.6268 31.4501 45.4549 31.9227C46.1684 32.3286 47.1245 32.5586 48.1483 32.5704C48.2223 32.5704 48.2818 32.6317 48.2818 32.7057V34.3131C48.2818 34.3879 48.2214 34.4475 48.1465 34.4475ZM44.3535 31.2859V32.0301C44.3535 32.5523 44.8082 33.1594 45.4847 33.5419C46.1603 33.9342 47.0533 34.1579 48.0112 34.1769V32.8392C46.9928 32.8094 46.0412 32.5695 45.3214 32.159C44.8893 31.9119 44.561 31.6124 44.3544 31.2868L44.3535 31.2859Z" fill="#0B4D5E"/>
<path d="M48.216 32.7047C50.4239 32.7047 52.2138 31.7007 52.2138 30.4623C52.2138 29.2238 50.4239 28.2198 48.216 28.2198C46.0081 28.2198 44.2183 29.2238 44.2183 30.4623C44.2183 31.7007 46.0081 32.7047 48.216 32.7047Z" fill="#F0F4FF"/>
<path d="M48.2161 32.841C45.9376 32.841 44.083 31.7739 44.083 30.4633C44.083 29.1526 45.9376 28.0856 48.2161 28.0856C50.4946 28.0856 52.35 29.1526 52.35 30.4633C52.35 31.7739 50.4955 32.841 48.2161 32.841ZM48.2161 28.3553C46.0864 28.3553 44.3545 29.3006 44.3545 30.4624C44.3545 31.6242 46.0864 32.5695 48.2161 32.5695C50.3457 32.5695 52.0785 31.6242 52.0785 30.4624C52.0785 29.3006 50.3457 28.3553 48.2161 28.3553Z" fill="#0B4D5E"/>
<path d="M36.2155 29.5631C36.5294 30.3055 36.1804 31.1254 35.1683 31.7018C33.6222 32.5885 31.0885 32.5777 29.5424 31.7018C28.8722 31.3248 28.4934 30.8376 28.4041 30.3388V31.691C28.4041 32.234 28.8397 32.888 29.6037 33.32C30.3741 33.7638 31.3915 33.9848 32.4081 33.974C32.7013 33.974 32.9935 33.9632 33.2813 33.919C33.9749 33.8306 34.6316 33.6312 35.1683 33.32C35.9323 32.888 36.368 32.3449 36.368 31.691V30.1621C36.368 29.9735 36.3157 29.7634 36.2155 29.5631Z" fill="#8AE5CC"/>
<path d="M32.3296 34.1092C31.2797 34.1092 30.2901 33.872 29.5352 33.4372C28.7657 33.0024 28.2678 32.3169 28.2678 31.6909V30.3388C28.2678 30.2684 28.3219 30.2098 28.3914 30.2044C28.4744 30.1999 28.524 30.2468 28.5366 30.3153C28.6223 30.7934 29.003 31.2435 29.6082 31.5845C31.1335 32.4486 33.596 32.4477 35.1006 31.5845C36.0216 31.0604 36.3914 30.3243 36.0919 29.6154C36.0631 29.5477 36.0919 29.4701 36.1587 29.4395C36.2227 29.4088 36.303 29.4359 36.3364 29.5017C36.4437 29.7155 36.5042 29.95 36.5042 30.1611V31.6909C36.5042 32.3746 36.0766 32.9627 35.2359 33.4381C34.7019 33.7466 34.0317 33.9595 33.2984 34.0533C33.0287 34.0948 32.7211 34.111 32.3314 34.1092H32.3296ZM28.5393 31.0018V31.6909C28.5393 32.2132 28.9939 32.8202 29.6705 33.2027C30.3749 33.6086 31.3428 33.8395 32.3341 33.8395C32.7247 33.8413 33.0034 33.8251 33.2596 33.7854C33.9605 33.6961 34.5955 33.495 35.0997 33.2036C35.8511 32.7788 36.2317 32.27 36.2317 31.6918V30.8989C36.027 31.2435 35.6896 31.5601 35.2341 31.8199C33.6574 32.7246 31.0731 32.7255 29.4747 31.8199C29.067 31.5908 28.7486 31.3112 28.5393 31.0027V31.0018Z" fill="#0B4D5E"/>
<path d="M32.3008 32.3665C31.2986 32.3557 30.301 32.1338 29.5415 31.7017C28.6287 31.1813 28.2552 30.4714 28.4203 29.7958C28.3878 29.9067 28.3716 30.0285 28.3716 30.162V31.6909C28.3716 32.2339 28.8073 32.8879 29.5713 33.32C30.3362 33.7638 31.3176 33.9739 32.2999 33.9739L32.3008 32.3665Z" fill="#0B4D5E"/>
<path d="M32.3008 34.1084C31.2437 34.1084 30.2514 33.8693 29.5037 33.4364C28.7342 33.0016 28.2363 32.3161 28.2363 31.6901V30.1602C28.2363 30.0177 28.2553 29.8824 28.2904 29.7579C28.3112 29.6867 28.3843 29.6452 28.4555 29.6641C28.5268 29.6831 28.5701 29.7552 28.552 29.8274C28.3951 30.4705 28.7811 31.111 29.6092 31.5836C30.3227 31.9895 31.2788 32.2195 32.3026 32.2313C32.3766 32.2313 32.4361 32.2926 32.4361 32.3666V33.9731C32.4361 34.0479 32.3757 34.1084 32.3008 34.1084ZM28.5078 30.9468V31.691C28.5078 32.2132 28.9625 32.8203 29.639 33.2027C30.3146 33.5951 31.2067 33.8179 32.1655 33.8377V32.5001C31.1471 32.4703 30.1955 32.2304 29.4757 31.8199C29.0436 31.5728 28.7153 31.2733 28.5087 30.9477L28.5078 30.9468Z" fill="#0B4D5E"/>
<path d="M32.3705 32.3666C34.5784 32.3666 36.3683 31.3626 36.3683 30.1242C36.3683 28.8857 34.5784 27.8817 32.3705 27.8817C30.1627 27.8817 28.3728 28.8857 28.3728 30.1242C28.3728 31.3626 30.1627 32.3666 32.3705 32.3666Z" fill="#F0F4FF"/>
<path d="M32.3703 32.5018C30.0909 32.5018 28.2363 31.4347 28.2363 30.1241C28.2363 28.8134 30.0909 27.7463 32.3703 27.7463C34.6497 27.7463 36.5033 28.8134 36.5033 30.1241C36.5033 31.4347 34.6488 32.5018 32.3703 32.5018ZM32.3703 28.017C30.2406 28.017 28.5078 28.9623 28.5078 30.1241C28.5078 31.2859 30.2406 32.2312 32.3703 32.2312C34.4999 32.2312 36.2318 31.2859 36.2318 30.1241C36.2318 28.9623 34.4999 28.017 32.3703 28.017Z" fill="#0B4D5E"/>
<path d="M44.4367 33.7439C44.7506 34.4863 44.4015 35.3062 43.3895 35.8826C41.8434 36.7692 39.3097 36.7584 37.7636 35.8826C37.0934 35.5055 36.7145 35.0184 36.6252 34.5196V35.8717C36.6252 36.4148 37.0609 37.0687 37.8249 37.5008C38.5953 37.9446 39.6127 38.1656 40.6293 38.1548C40.9225 38.1548 41.2147 38.1439 41.5025 38.0997C42.1961 38.0113 42.8528 37.812 43.3895 37.5008C44.1535 37.0687 44.5892 36.5257 44.5892 35.8717V34.3428C44.5892 34.1543 44.5368 33.9441 44.4367 33.7439Z" fill="#8AE5CC"/>
<path d="M40.5535 38.29C39.5027 38.29 38.5113 38.0519 37.7564 37.6171C36.9869 37.1824 36.489 36.4969 36.489 35.8709V34.5187C36.489 34.4483 36.5431 34.3897 36.6126 34.3843C36.6938 34.3726 36.7461 34.4267 36.7578 34.4953C36.8435 34.9733 37.2242 35.4234 37.8294 35.7644C39.3529 36.6285 41.8172 36.6276 43.3218 35.7644C44.2419 35.2403 44.6117 34.5043 44.3122 33.7953C44.2834 33.7276 44.3122 33.6501 44.379 33.6194C44.4439 33.5887 44.5233 33.6158 44.5567 33.6817C44.664 33.8954 44.7244 34.1299 44.7244 34.341V35.8699C44.7244 36.5537 44.2969 37.1418 43.4562 37.6171C42.9231 37.9256 42.2529 38.1385 41.5196 38.2323C41.2508 38.2738 40.9459 38.291 40.5544 38.2892L40.5535 38.29ZM36.7605 35.1817V35.8709C36.7605 36.3931 37.2151 37.0002 37.8917 37.3826C38.5961 37.7885 39.5649 38.0194 40.558 38.0194C40.9495 38.024 41.2246 38.005 41.4808 37.9644C42.1826 37.8751 42.8176 37.674 43.3209 37.3826C44.0723 36.9578 44.4529 36.449 44.4529 35.8709V35.0789C44.2482 35.4234 43.9108 35.74 43.4562 35.9998C41.8777 36.9054 39.2952 36.9054 37.6968 35.9998C37.2882 35.7707 36.9698 35.4911 36.7605 35.1817Z" fill="#0B4D5E"/>
<path d="M40.5227 36.5473C39.5206 36.5365 38.5229 36.3146 37.7634 35.8825C36.8506 35.362 36.4771 34.6522 36.6422 33.9766C36.6097 34.0875 36.5935 34.2093 36.5935 34.3428V35.8717C36.5935 36.4147 37.0292 37.0687 37.7932 37.5007C38.5581 37.9445 39.5395 38.1547 40.5218 38.1547L40.5227 36.5473Z" fill="#0B4D5E"/>
<path d="M40.522 38.2901C39.4658 38.2901 38.4726 38.0511 37.7249 37.6181C36.9554 37.1834 36.4575 36.4969 36.4575 35.8718V34.3429C36.4575 34.1986 36.4765 34.0624 36.5134 33.9388C36.5333 33.8684 36.6073 33.8269 36.6785 33.8459C36.7498 33.8648 36.7922 33.9379 36.7741 34.0092C36.6163 34.6523 37.0023 35.2927 37.8313 35.7654C38.5439 36.1713 39.5 36.4013 40.5238 36.413C40.5978 36.413 40.6573 36.4744 40.6573 36.5483V38.1557C40.6573 38.2306 40.5969 38.291 40.522 38.291V38.2901ZM36.729 35.1277V35.8718C36.729 36.3932 37.1836 37.0002 37.8602 37.3836C38.5358 37.776 39.4288 37.9997 40.3867 38.0186V36.6809C39.3683 36.6512 38.4167 36.4112 37.6978 36.0008C37.2648 35.7537 36.9365 35.4551 36.7299 35.1286L36.729 35.1277Z" fill="#0B4D5E"/>
<path d="M40.5913 36.5475C42.7991 36.5475 44.589 35.5435 44.589 34.305C44.589 33.0666 42.7991 32.0626 40.5913 32.0626C38.3834 32.0626 36.5935 33.0666 36.5935 34.305C36.5935 35.5435 38.3834 36.5475 40.5913 36.5475Z" fill="#F0F4FF"/>
<path d="M40.5915 36.6827C38.3121 36.6827 36.4575 35.6165 36.4575 34.305C36.4575 32.9934 38.3121 31.9272 40.5915 31.9272C42.8709 31.9272 44.7245 32.9943 44.7245 34.305C44.7245 35.6156 42.87 36.6827 40.5915 36.6827ZM40.5915 32.1978C38.4618 32.1978 36.729 33.1432 36.729 34.305C36.729 35.4668 38.4618 36.4121 40.5915 36.4121C42.7211 36.4121 44.453 35.4668 44.453 34.305C44.453 33.1432 42.7211 32.1978 40.5915 32.1978Z" fill="#0B4D5E"/>
<path d="M22.8465 40.9617L7.13428 31.9064L22.8465 22.8519L38.5579 31.9064L22.8465 40.9617Z" fill="#F0F4FF"/>
<path d="M22.8467 41.097C22.8241 41.097 22.7998 41.0916 22.779 41.0789L7.06765 32.0236C7.02616 31.9992 7 31.955 7 31.9063C7 31.8576 7.02616 31.8134 7.06765 31.789L22.779 22.7346C22.8214 22.7102 22.8728 22.7102 22.9143 22.7346L38.6257 31.789C38.6672 31.8134 38.6933 31.8576 38.6933 31.9063C38.6933 31.955 38.6672 31.9992 38.6257 32.0236L22.9143 41.0789C22.8936 41.0916 22.8692 41.097 22.8467 41.097ZM7.40591 31.9063L22.8458 40.8047L38.2856 31.9063L22.8458 23.0079L7.40591 31.9063Z" fill="#0B4D5E"/>
<path d="M7.13428 31.9062L22.8465 40.9616V50.5591L7.13428 41.5046V31.9062Z" fill="#0B4D5E"/>
<path d="M22.8467 50.6944C22.8241 50.6944 22.7998 50.689 22.779 50.6764L7.06765 41.6219C7.02616 41.5976 7 41.5534 7 41.5047V31.9063C7 31.8576 7.02616 31.8134 7.06765 31.789C7.11005 31.7656 7.16146 31.7638 7.20295 31.789L22.9143 40.8444C22.9558 40.8687 22.982 40.9129 22.982 40.9617V50.5591C22.982 50.6078 22.9558 50.652 22.9143 50.6764C22.8936 50.6881 22.8701 50.6944 22.8467 50.6944ZM7.27061 41.4262L22.7105 50.3246V41.0401L7.27061 32.1408V41.4262Z" fill="#0B4D5E"/>
<path d="M38.558 31.9062L22.8467 40.9616V50.5591L38.558 41.5046V31.9062Z" fill="#8AE5CC"/>
<path d="M22.8467 50.6944C22.8233 50.6944 22.7998 50.6881 22.7791 50.6764C22.7376 50.652 22.7114 50.6078 22.7114 50.5591V40.9617C22.7114 40.9129 22.7376 40.8687 22.7791 40.8444L38.4904 31.789C38.5328 31.7638 38.5842 31.7656 38.6257 31.789C38.6672 31.8134 38.6934 31.8576 38.6934 31.9063V41.5047C38.6934 41.5534 38.6672 41.5976 38.6257 41.6219L22.9144 50.6764C22.8936 50.689 22.8693 50.6944 22.8467 50.6944ZM22.982 41.0401V50.3246L38.4219 41.4262V32.1408L22.982 41.0401Z" fill="#0B4D5E"/>
<path d="M40.5912 21.2453L24.8799 12.1908L40.5912 3.13635L56.3026 12.1908L40.5912 21.2453Z" fill="#F0F4FF"/>
<path d="M40.5913 21.3806C40.5687 21.3806 40.5444 21.3752 40.5236 21.3626L24.8123 12.3073C24.7708 12.2829 24.7446 12.2387 24.7446 12.19C24.7446 12.1413 24.7708 12.0971 24.8123 12.0727L40.5236 3.01827C40.566 2.99391 40.6174 2.99391 40.6589 3.01827L56.3703 12.0727C56.4118 12.0971 56.4379 12.1413 56.4379 12.19C56.4379 12.2387 56.4118 12.2829 56.3703 12.3073L40.6589 21.3626C40.6382 21.3752 40.6138 21.3806 40.5913 21.3806ZM25.1514 12.1909L40.5913 21.0893L56.0311 12.1909L40.5913 3.29249L25.1514 12.1909Z" fill="#0B4D5E"/>
<path d="M24.8799 12.1908L40.5912 21.2452V30.8436L24.8799 21.7883V12.1908Z" fill="#0B4D5E"/>
<path d="M40.5913 30.979C40.5687 30.979 40.5444 30.9736 40.5236 30.961L24.8123 21.9056C24.7708 21.8813 24.7446 21.8371 24.7446 21.7884V12.19C24.7446 12.1413 24.7708 12.0971 24.8123 12.0727C24.8538 12.0493 24.9052 12.0475 24.9476 12.0727L40.6589 21.1281C40.7004 21.1524 40.7266 21.1966 40.7266 21.2453V30.8437C40.7266 30.8924 40.7004 30.9366 40.6589 30.961C40.6382 30.9727 40.6147 30.979 40.5913 30.979ZM25.0161 21.7099L40.456 30.6092V21.3238L25.0161 12.4245V21.7099Z" fill="#0B4D5E"/>
<path d="M56.3024 12.1908L40.5911 21.2452V30.8436L56.3033 21.7883L56.3024 12.1908Z" fill="#8AE5CC"/>
<path d="M40.5914 30.979C40.5679 30.979 40.5445 30.9727 40.5237 30.961C40.4822 30.9366 40.4561 30.8924 40.4561 30.8437V21.2453C40.4561 21.1966 40.4822 21.1524 40.5237 21.1281L56.2351 12.0727C56.2775 12.0475 56.3289 12.0493 56.3704 12.0727C56.4119 12.0971 56.438 12.1413 56.438 12.19V21.7884C56.438 21.8371 56.4119 21.8813 56.3704 21.9056L40.659 30.961C40.6383 30.9736 40.6139 30.979 40.5914 30.979ZM40.7276 21.3238V30.6092L56.1674 21.7099V12.4245L40.7276 21.3238Z" fill="#0B4D5E"/>
<path d="M44.3679 5.42664C44.6818 6.169 44.3327 6.98893 43.3206 7.56532C41.7746 8.45201 39.2408 8.44118 37.6947 7.56532C37.0245 7.18828 36.6457 6.70117 36.5564 6.20236V7.55448C36.5564 8.09749 36.9921 8.75146 37.7561 9.18352C38.5264 9.62731 39.5439 9.84831 40.5605 9.83749C40.8536 9.83749 41.1459 9.82666 41.4336 9.78246C42.1273 9.69407 42.7839 9.49472 43.3206 9.18352C44.0846 8.75146 44.5203 8.20844 44.5203 7.55448V6.02558C44.5203 5.83706 44.468 5.62688 44.3679 5.42664Z" fill="#8AE5CC"/>
<path d="M40.4847 9.97278C39.4338 9.97278 38.4425 9.73465 37.6875 9.29987C36.9181 8.8651 36.4202 8.17959 36.4202 7.55359V6.20144C36.4202 6.13109 36.4743 6.07247 36.5437 6.06705C36.6249 6.05894 36.6772 6.10944 36.689 6.17799C36.7747 6.65606 37.1553 7.10618 37.7606 7.44714C39.2859 8.31128 41.7484 8.31037 43.253 7.44714C44.173 6.92307 44.5437 6.18791 44.2443 5.47802C44.2154 5.41037 44.2443 5.33282 44.3119 5.30215C44.3724 5.27148 44.4553 5.29854 44.4887 5.36439C44.5961 5.57817 44.6565 5.81268 44.6565 6.02375V7.55268C44.6565 8.23641 44.2289 8.82451 43.3883 9.29987C42.8552 9.60836 42.185 9.82125 41.4507 9.91506C41.1828 9.95655 40.8725 9.9728 40.4865 9.9719L40.4847 9.97278ZM36.6917 6.86535V7.55447C36.6917 8.07674 37.1463 8.68382 37.8228 9.06628C38.5273 9.47218 39.496 9.7031 40.4892 9.7031C40.877 9.7067 41.1567 9.68866 41.411 9.64807C42.1137 9.55877 42.7487 9.35763 43.252 9.06628C44.0034 8.64143 44.3841 8.13266 44.3841 7.55447V6.7616C44.1793 7.10707 43.842 7.42368 43.3865 7.68346C41.8097 8.58909 39.2272 8.58909 37.6271 7.68346C37.2194 7.45435 36.9009 7.17384 36.6917 6.86535Z" fill="#0B4D5E"/>
<path d="M40.4531 8.23018C39.451 8.21936 38.4533 7.99746 37.6938 7.56539C36.781 7.04493 36.4076 6.33504 36.5726 5.65942C36.5402 5.77037 36.5239 5.89215 36.5239 6.02565V7.55455C36.5239 8.09756 36.9596 8.75153 37.7236 9.18359C38.4885 9.62739 39.4699 9.83756 40.4522 9.83756L40.4531 8.23018Z" fill="#0B4D5E"/>
<path d="M40.4532 9.97293C39.3969 9.97293 38.4038 9.7339 37.656 9.30093C36.8866 8.86616 36.3887 8.18062 36.3887 7.55462V6.02572C36.3887 5.8832 36.4076 5.74698 36.4428 5.6225C36.4635 5.55124 36.5366 5.51064 36.6079 5.52868C36.6791 5.54763 36.7224 5.61979 36.7044 5.69195C36.5474 6.33509 36.9335 6.97554 37.7615 7.4482C38.475 7.85411 39.4312 8.08411 40.455 8.09584C40.5289 8.09584 40.5885 8.15717 40.5885 8.23113V9.83854C40.5885 9.91341 40.528 9.97384 40.4532 9.97384V9.97293ZM36.6602 6.81047V7.55374C36.6602 8.07601 37.1148 8.68306 37.7913 9.06552C38.4669 9.45789 39.3599 9.68158 40.3179 9.70052V8.36285C39.2995 8.33309 38.3479 8.09312 37.628 7.6827C37.196 7.43555 36.8667 7.137 36.6602 6.81047Z" fill="#0B4D5E"/>
<path d="M40.5226 8.23021C42.7305 8.23021 44.5204 7.22622 44.5204 5.98777C44.5204 4.74932 42.7305 3.74536 40.5226 3.74536C38.3148 3.74536 36.5249 4.74932 36.5249 5.98777C36.5249 7.22622 38.3148 8.23021 40.5226 8.23021Z" fill="#F0F4FF"/>
<path d="M40.5217 8.36543C38.2432 8.36543 36.3887 7.29923 36.3887 5.98769C36.3887 4.67616 38.2432 3.60999 40.5217 3.60999C42.8002 3.60999 44.6557 4.67706 44.6557 5.98769C44.6557 7.29833 42.8011 8.36543 40.5217 8.36543ZM40.5217 3.88058C38.3921 3.88058 36.6602 4.82589 36.6602 5.98769C36.6602 7.14949 38.3921 8.09481 40.5217 8.09481C42.6514 8.09481 44.3842 7.14949 44.3842 5.98769C44.3842 4.82589 42.6514 3.88058 40.5217 3.88058Z" fill="#0B4D5E"/>
<path d="M52.0612 10.5114C52.3751 11.2537 52.0261 12.0737 51.014 12.65C49.4679 13.5367 46.9342 13.5259 45.3881 12.65C44.7179 12.273 44.3391 11.7859 44.2498 11.2871V12.6392C44.2498 13.1822 44.6854 13.8362 45.4494 14.2683C46.2198 14.7121 47.2372 14.933 48.2538 14.9222C48.547 14.9222 48.8392 14.9114 49.127 14.8672C49.8206 14.7788 50.4773 14.5795 51.014 14.2683C51.778 13.8362 52.2137 13.2932 52.2137 12.6392V11.1103C52.2137 10.9218 52.1614 10.7116 52.0612 10.5114Z" fill="#8AE5CC"/>
<path d="M48.178 15.0584C47.1281 15.0584 46.1368 14.8203 45.3818 14.3855C44.6114 13.9508 44.1135 13.2644 44.1135 12.6393V11.2871C44.1135 11.2168 44.1676 11.1581 44.2371 11.1527C44.321 11.1437 44.3697 11.1951 44.3823 11.2637C44.4689 11.7417 44.8496 12.1918 45.4539 12.5328C46.9792 13.3969 49.4417 13.396 50.9463 12.5328C51.8664 12.0087 52.2371 11.2736 51.9376 10.5637C51.9088 10.496 51.9376 10.4185 52.0044 10.3878C52.0693 10.3581 52.1487 10.3842 52.1821 10.4501C52.2894 10.6629 52.3499 10.8974 52.3499 11.1085V12.6383C52.3499 13.3221 51.9223 13.9102 51.0816 14.3855C50.5458 14.694 49.8765 14.9069 49.1441 15.0007C48.8717 15.0422 48.5641 15.0594 48.1789 15.0576L48.178 15.0584ZM44.385 11.9492V12.6393C44.385 13.1606 44.8396 13.7677 45.5171 14.151C46.2215 14.5569 47.1894 14.7879 48.1825 14.7879C48.5713 14.7879 48.8473 14.7734 49.1062 14.7328C49.8062 14.6435 50.4412 14.4424 50.9463 14.151C51.6977 13.7262 52.0783 13.2175 52.0783 12.6393V11.8464C51.8736 12.191 51.5362 12.5084 51.0807 12.7682C49.504 13.6729 46.9197 13.6738 45.3213 12.7682C44.9127 12.5382 44.5943 12.2586 44.385 11.9492Z" fill="#0B4D5E"/>
<path d="M48.1465 13.3156C47.1443 13.3048 46.1467 13.0829 45.3872 12.6508C44.4744 12.1304 44.1009 11.4205 44.266 10.7449C44.2335 10.8558 44.2173 10.9776 44.2173 11.1111V12.64C44.2173 13.183 44.653 13.837 45.417 14.269C46.1819 14.7128 47.1633 14.923 48.1456 14.923V13.3156H48.1465Z" fill="#0B4D5E"/>
<path d="M48.1465 15.0575C47.0903 15.0575 46.0971 14.8184 45.3494 14.3854C44.5799 13.9507 44.082 13.2652 44.082 12.6392V11.1093C44.082 10.9668 44.101 10.8315 44.1362 10.707C44.1569 10.6358 44.2309 10.5943 44.3012 10.6132C44.3725 10.6322 44.4158 10.7043 44.3977 10.7765C44.2408 11.4196 44.6268 12.06 45.4549 12.5327C46.1684 12.9386 47.1245 13.1686 48.1483 13.1803C48.2223 13.1803 48.2818 13.2417 48.2818 13.3157V14.923C48.2818 14.9979 48.2214 15.0575 48.1465 15.0575ZM44.3535 11.8959V12.64C44.3535 13.1623 44.8082 13.7694 45.4847 14.1518C46.1603 14.5442 47.0533 14.7679 48.0112 14.7868V13.4492C46.9928 13.4194 46.0412 13.1794 45.3214 12.769C44.8893 12.5219 44.561 12.2224 44.3544 11.8968L44.3535 11.8959Z" fill="#0B4D5E"/>
<path d="M48.216 13.3147C50.4239 13.3147 52.2138 12.3107 52.2138 11.0723C52.2138 9.83382 50.4239 8.82983 48.216 8.82983C46.0081 8.82983 44.2183 9.83382 44.2183 11.0723C44.2183 12.3107 46.0081 13.3147 48.216 13.3147Z" fill="#F0F4FF"/>
<path d="M48.2161 13.451C45.9376 13.451 44.083 12.3839 44.083 11.0733C44.083 9.76263 45.9376 8.69556 48.2161 8.69556C50.4946 8.69556 52.35 9.76263 52.35 11.0733C52.35 12.3839 50.4955 13.451 48.2161 13.451ZM48.2161 8.96527C46.0864 8.96527 44.3545 9.91058 44.3545 11.0724C44.3545 12.2342 46.0864 13.1795 48.2161 13.1795C50.3457 13.1795 52.0785 12.2342 52.0785 11.0724C52.0785 9.91058 50.3457 8.96527 48.2161 8.96527Z" fill="#0B4D5E"/>
<path d="M36.2155 10.1731C36.5294 10.9155 36.1804 11.7354 35.1683 12.3118C33.6222 13.1985 31.0885 13.1876 29.5424 12.3118C28.8722 11.9347 28.4934 11.4476 28.4041 10.9488V12.301C28.4041 12.844 28.8397 13.4979 29.6037 13.93C30.3741 14.3738 31.3915 14.5948 32.4081 14.584C32.7013 14.584 32.9935 14.5731 33.2813 14.529C33.9749 14.4406 34.6316 14.2412 35.1683 13.93C35.9323 13.4979 36.368 12.9549 36.368 12.301V10.772C36.368 10.5835 36.3157 10.3733 36.2155 10.1731Z" fill="#8AE5CC"/>
<path d="M32.3296 14.7192C31.2797 14.7192 30.2901 14.482 29.5352 14.0472C28.7657 13.6124 28.2678 12.9269 28.2678 12.3009V10.9488C28.2678 10.8784 28.3219 10.8198 28.3914 10.8144C28.4744 10.8099 28.524 10.8568 28.5366 10.9253C28.6223 11.4034 29.003 11.8535 29.6082 12.1945C31.1335 13.0586 33.596 13.0577 35.1006 12.1945C36.0216 11.6704 36.3914 10.9343 36.0919 10.2253C36.0631 10.1577 36.0919 10.0801 36.1587 10.0495C36.2227 10.0188 36.303 10.0459 36.3364 10.1117C36.4437 10.3255 36.5042 10.56 36.5042 10.7711V12.3009C36.5042 12.9846 36.0766 13.5727 35.2359 14.0481C34.7019 14.3566 34.0317 14.5695 33.2984 14.6633C33.0287 14.7048 32.7211 14.721 32.3314 14.7192H32.3296ZM28.5393 11.6118V12.3009C28.5393 12.8232 28.9939 13.4302 29.6705 13.8127C30.3749 14.2186 31.3428 14.4495 32.3341 14.4495C32.7247 14.4513 33.0034 14.4351 33.2596 14.3954C33.9605 14.3061 34.5955 14.1049 35.0997 13.8136C35.8511 13.3887 36.2317 12.88 36.2317 12.3018V11.5089C36.027 11.8535 35.6896 12.1701 35.2341 12.4299C33.6574 13.3346 31.0731 13.3355 29.4747 12.4299C29.067 12.2008 28.7486 11.9212 28.5393 11.6127V11.6118Z" fill="#0B4D5E"/>
<path d="M32.3008 12.9765C31.2986 12.9657 30.301 12.7438 29.5415 12.3117C28.6287 11.7913 28.2552 11.0814 28.4203 10.4058C28.3878 10.5167 28.3716 10.6385 28.3716 10.772V12.3009C28.3716 12.8439 28.8073 13.4979 29.5713 13.93C30.3362 14.3738 31.3176 14.5839 32.2999 14.5839L32.3008 12.9765Z" fill="#0B4D5E"/>
<path d="M32.3008 14.7184C31.2437 14.7184 30.2514 14.4793 29.5037 14.0464C28.7342 13.6116 28.2363 12.926 28.2363 12.3V10.7702C28.2363 10.6277 28.2553 10.4924 28.2904 10.3679C28.3112 10.2967 28.3843 10.2552 28.4555 10.2741C28.5268 10.2931 28.5701 10.3652 28.552 10.4374C28.3951 11.0805 28.7811 11.7209 29.6092 12.1936C30.3227 12.5995 31.2788 12.8295 32.3026 12.8413C32.3766 12.8413 32.4361 12.9026 32.4361 12.9766V14.5831C32.4361 14.6579 32.3757 14.7184 32.3008 14.7184ZM28.5078 11.5568V12.301C28.5078 12.8232 28.9625 13.4303 29.639 13.8127C30.3146 14.2051 31.2067 14.4279 32.1655 14.4477V13.11C31.1471 13.0803 30.1955 12.8403 29.4757 12.4299C29.0436 12.1828 28.7153 11.8833 28.5087 11.5577L28.5078 11.5568Z" fill="#0B4D5E"/>
<path d="M32.3705 12.9765C34.5784 12.9765 36.3683 11.9726 36.3683 10.7341C36.3683 9.49568 34.5784 8.4917 32.3705 8.4917C30.1627 8.4917 28.3728 9.49568 28.3728 10.7341C28.3728 11.9726 30.1627 12.9765 32.3705 12.9765Z" fill="#F0F4FF"/>
<path d="M32.3703 13.1118C30.0909 13.1118 28.2363 12.0447 28.2363 10.7341C28.2363 9.42343 30.0909 8.35632 32.3703 8.35632C34.6497 8.35632 36.5033 9.42343 36.5033 10.7341C36.5033 12.0447 34.6488 13.1118 32.3703 13.1118ZM32.3703 8.62695C30.2406 8.62695 28.5078 9.57226 28.5078 10.7341C28.5078 11.8959 30.2406 12.8412 32.3703 12.8412C34.4999 12.8412 36.2318 11.8959 36.2318 10.7341C36.2318 9.57226 34.4999 8.62695 32.3703 8.62695Z" fill="#0B4D5E"/>
<path d="M44.4367 14.3539C44.7506 15.0962 44.4015 15.9162 43.3895 16.4925C41.8434 17.3792 39.3097 17.3684 37.7636 16.4925C37.0934 16.1155 36.7145 15.6284 36.6252 15.1296V16.4817C36.6252 17.0247 37.0609 17.6787 37.8249 18.1108C38.5953 18.5546 39.6127 18.7756 40.6293 18.7647C40.9225 18.7647 41.2147 18.7539 41.5025 18.7097C42.1961 18.6213 42.8528 18.422 43.3895 18.1108C44.1535 17.6787 44.5892 17.1357 44.5892 16.4817V14.9528C44.5892 14.7643 44.5368 14.5541 44.4367 14.3539Z" fill="#8AE5CC"/>
<path d="M40.5535 18.9C39.5027 18.9 38.5113 18.6619 37.7564 18.2271C36.9869 17.7923 36.489 17.1068 36.489 16.4808V15.1287C36.489 15.0583 36.5431 14.9997 36.6126 14.9943C36.6938 14.9826 36.7461 15.0367 36.7578 15.1052C36.8435 15.5833 37.2242 16.0334 37.8294 16.3744C39.3529 17.2385 41.8172 17.2376 43.3218 16.3744C44.2419 15.8503 44.6117 15.1143 44.3122 14.4053C44.2834 14.3376 44.3122 14.2601 44.379 14.2294C44.4439 14.1987 44.5233 14.2258 44.5567 14.2916C44.664 14.5054 44.7244 14.7399 44.7244 14.951V16.4799C44.7244 17.1637 44.2969 17.7518 43.4562 18.2271C42.9231 18.5356 42.2529 18.7485 41.5196 18.8423C41.2508 18.8838 40.9459 18.901 40.5544 18.8991L40.5535 18.9ZM36.7605 15.7917V16.4808C36.7605 17.0031 37.2151 17.6102 37.8917 17.9926C38.5961 18.3985 39.5649 18.6294 40.558 18.6294C40.9495 18.6339 41.2246 18.615 41.4808 18.5744C42.1826 18.4851 42.8176 18.284 43.3209 17.9926C44.0723 17.5678 44.4529 17.059 44.4529 16.4808V15.6888C44.2482 16.0334 43.9108 16.35 43.4562 16.6098C41.8777 17.5154 39.2952 17.5154 37.6968 16.6098C37.2882 16.3807 36.9698 16.1011 36.7605 15.7917Z" fill="#0B4D5E"/>
<path d="M40.5227 17.1573C39.5206 17.1465 38.5229 16.9246 37.7634 16.4925C36.8506 15.972 36.4771 15.2622 36.6422 14.5865C36.6097 14.6975 36.5935 14.8193 36.5935 14.9528V16.4817C36.5935 17.0247 37.0292 17.6787 37.7932 18.1107C38.5581 18.5545 39.5395 18.7647 40.5218 18.7647L40.5227 17.1573Z" fill="#0B4D5E"/>
<path d="M40.522 18.9001C39.4658 18.9001 38.4726 18.6611 37.7249 18.2281C36.9554 17.7934 36.4575 17.1069 36.4575 16.4818V14.9529C36.4575 14.8086 36.4765 14.6724 36.5134 14.5488C36.5333 14.4784 36.6073 14.4369 36.6785 14.4559C36.7498 14.4748 36.7922 14.5479 36.7741 14.6191C36.6163 15.2623 37.0023 15.9027 37.8313 16.3754C38.5439 16.7813 39.5 17.0113 40.5238 17.023C40.5978 17.023 40.6573 17.0844 40.6573 17.1583V18.7657C40.6573 18.8406 40.5969 18.901 40.522 18.901V18.9001ZM36.729 15.7377V16.4818C36.729 17.0032 37.1836 17.6102 37.8602 17.9936C38.5358 18.386 39.4288 18.6097 40.3867 18.6286V17.2909C39.3683 17.2612 38.4167 17.0212 37.6978 16.6108C37.2648 16.3637 36.9365 16.0651 36.7299 15.7385L36.729 15.7377Z" fill="#0B4D5E"/>
<path d="M40.5913 17.1575C42.7991 17.1575 44.589 16.1535 44.589 14.915C44.589 13.6766 42.7991 12.6726 40.5913 12.6726C38.3834 12.6726 36.5935 13.6766 36.5935 14.915C36.5935 16.1535 38.3834 17.1575 40.5913 17.1575Z" fill="#F0F4FF"/>
<path d="M40.5915 17.2927C38.3121 17.2927 36.4575 16.2265 36.4575 14.9149C36.4575 13.6034 38.3121 12.5372 40.5915 12.5372C42.8709 12.5372 44.7245 13.6043 44.7245 14.9149C44.7245 16.2256 42.87 17.2927 40.5915 17.2927ZM40.5915 12.8078C38.4618 12.8078 36.729 13.7531 36.729 14.9149C36.729 16.0767 38.4618 17.0221 40.5915 17.0221C42.7211 17.0221 44.453 16.0767 44.453 14.9149C44.453 13.7531 42.7211 12.8078 40.5915 12.8078Z" fill="#0B4D5E"/>
<path d="M27.1315 24.8167C27.4454 25.559 27.0964 26.3789 26.0843 26.9553C24.5382 27.842 22.0045 27.8312 20.4584 26.9553C19.7882 26.5783 19.4094 26.0912 19.3201 25.5924V26.9445C19.3201 27.4875 19.7557 28.1415 20.5198 28.5735C21.2901 29.0173 22.3076 29.2383 23.3241 29.2275C23.6173 29.2275 23.9095 29.2167 24.1973 29.1725C24.8909 29.0841 25.5476 28.8847 26.0843 28.5735C26.8483 28.1415 27.284 27.5985 27.284 26.9445V25.4156C27.284 25.2271 27.2317 25.0169 27.1315 24.8167Z" fill="#8AE5CC"/>
<path d="M23.2483 29.3628C22.1975 29.3628 21.2062 29.1247 20.4512 28.6899C19.6818 28.2551 19.1838 27.5696 19.1838 26.9436V25.5915C19.1838 25.5211 19.238 25.4625 19.3074 25.4571C19.3886 25.449 19.4409 25.4995 19.4526 25.568C19.5383 26.0461 19.919 26.4962 20.5242 26.8372C22.0495 27.7013 24.5121 27.7004 26.0166 26.8372C26.9367 26.3131 27.3074 25.5779 27.0079 24.868C26.9791 24.8004 27.0079 24.7228 27.0756 24.6922C27.136 24.6615 27.219 24.6886 27.2524 24.7544C27.3597 24.9682 27.4202 25.2027 27.4202 25.4138V26.9427C27.4202 27.6264 26.9926 28.2145 26.1519 28.6899C25.6188 28.9984 24.9486 29.2113 24.2144 29.3051C23.9465 29.3466 23.6362 29.3628 23.2501 29.3619L23.2483 29.3628ZM19.4553 26.2554V26.9445C19.4553 27.4668 19.91 28.0738 20.5865 28.4563C21.2909 28.8622 22.2597 29.0931 23.2528 29.0931C23.6407 29.0967 23.9203 29.0787 24.1747 29.0381C24.8774 28.9488 25.5124 28.7476 26.0157 28.4563C26.7671 28.0314 27.1478 27.5227 27.1478 26.9445V26.1516C26.943 26.4971 26.6056 26.8137 26.1501 27.0735C24.5734 27.9791 21.9909 27.9791 20.3907 27.0735C19.983 26.8444 19.6646 26.5639 19.4553 26.2554Z" fill="#0B4D5E"/>
<path d="M23.2168 27.6202C22.2146 27.6094 21.217 27.3875 20.4575 26.9554C19.5447 26.4349 19.1712 25.7251 19.3363 25.0494C19.3038 25.1604 19.2876 25.2822 19.2876 25.4157V26.9446C19.2876 27.4876 19.7233 28.1415 20.4873 28.5736C21.2522 29.0174 22.2336 29.2276 23.2159 29.2276L23.2168 27.6202Z" fill="#0B4D5E"/>
<path d="M23.2168 29.3629C22.1606 29.3629 21.1675 29.1239 20.4197 28.6909C19.6503 28.2562 19.1523 27.5706 19.1523 26.9446V25.4157C19.1523 25.2732 19.1713 25.137 19.2065 25.0125C19.2272 24.9413 19.3003 24.9007 19.3715 24.9187C19.4428 24.9376 19.4861 25.0098 19.4681 25.082C19.3111 25.7251 19.6972 26.3656 20.5252 26.8382C21.2387 27.2441 22.1949 27.4741 23.2186 27.4859C23.2926 27.4859 23.3521 27.5472 23.3521 27.6211V29.2286C23.3521 29.3034 23.2917 29.3639 23.2168 29.3639V29.3629ZM19.4239 26.2005V26.9438C19.4239 27.466 19.8785 28.0731 20.555 28.4555C21.2306 28.8479 22.1236 29.0716 23.0815 29.0905V27.7529C22.0632 27.7231 21.1115 27.4831 20.3917 27.0727C19.9597 26.8256 19.6304 26.527 19.4239 26.2005Z" fill="#0B4D5E"/>
<path d="M23.2863 27.6202C25.4942 27.6202 27.2841 26.6162 27.2841 25.3778C27.2841 24.1393 25.4942 23.1354 23.2863 23.1354C21.0784 23.1354 19.2886 24.1393 19.2886 25.3778C19.2886 26.6162 21.0784 27.6202 23.2863 27.6202Z" fill="#F0F4FF"/>
<path d="M23.2854 27.7554C21.0069 27.7554 19.1523 26.6892 19.1523 25.3777C19.1523 24.0662 21.0069 23 23.2854 23C25.5639 23 27.4193 24.0671 27.4193 25.3777C27.4193 26.6883 25.5648 27.7554 23.2854 27.7554ZM23.2854 23.2706C21.1557 23.2706 19.4239 24.2159 19.4239 25.3777C19.4239 26.5395 21.1557 27.4848 23.2854 27.4848C25.4151 27.4848 27.1478 26.5395 27.1478 25.3777C27.1478 24.2159 25.4151 23.2706 23.2854 23.2706Z" fill="#0B4D5E"/>
<path d="M34.8249 29.9014C35.1388 30.6437 34.7897 31.4637 33.7777 32.0401C32.2316 32.9267 29.6978 32.9159 28.1518 32.0401C27.4816 31.663 27.1027 31.1759 27.0134 30.6771V32.0292C27.0134 32.5723 27.4491 33.2262 28.2131 33.6583C28.9834 34.1021 30.0009 34.323 31.0175 34.3122C31.3106 34.3122 31.6029 34.3014 31.8906 34.2572C32.5843 34.1688 33.241 33.9695 33.7777 33.6583C34.5417 33.2262 34.9773 32.6832 34.9773 32.0292V30.5003C34.9773 30.3118 34.925 30.1016 34.8249 29.9014Z" fill="#8AE5CC"/>
<path d="M30.9417 34.4485C29.8917 34.4485 28.9004 34.2103 28.1454 33.7756C27.3751 33.3408 26.8772 32.6544 26.8772 32.0293V30.6771C26.8772 30.6068 26.9313 30.5481 27.0008 30.5427C27.0847 30.5337 27.1334 30.5851 27.146 30.6537C27.2326 31.1317 27.6132 31.5819 28.2176 31.9228C29.7429 32.787 32.2054 32.7861 33.71 31.9228C34.63 31.3988 35.0008 30.6636 34.7013 29.9537C34.6724 29.8861 34.7013 29.8085 34.7681 29.7778C34.833 29.7481 34.9124 29.7742 34.9458 29.8401C35.0531 30.0529 35.1135 30.2875 35.1135 30.4985V32.0284C35.1135 32.7121 34.686 33.3002 33.8453 33.7756C33.3095 34.084 32.6402 34.2969 31.9078 34.3907C31.6353 34.4322 31.3278 34.4494 30.9426 34.4476L30.9417 34.4485ZM27.1487 31.3392V32.0293C27.1487 32.5506 27.6033 33.1577 28.2807 33.5411C28.9852 33.947 29.9531 34.1779 30.9462 34.1779C31.335 34.1779 31.611 34.1634 31.8699 34.1228C32.5698 34.0335 33.2049 33.8324 33.71 33.5411C34.4614 33.1162 34.842 32.6075 34.842 32.0293V31.2364C34.6373 31.581 34.2999 31.8985 33.8444 32.1582C32.2677 33.063 29.6834 33.0639 28.085 32.1582C27.6764 31.9282 27.358 31.6486 27.1487 31.3392Z" fill="#0B4D5E"/>
<path d="M30.9102 32.7056C29.908 32.6948 28.9104 32.4729 28.1509 32.0409C27.238 31.5204 26.8646 30.8105 27.0297 30.1349C26.9972 30.2458 26.981 30.3676 26.981 30.5011V32.03C26.981 32.573 27.4166 33.227 28.1806 33.6591C28.9456 34.1028 29.9269 34.313 30.9092 34.313V32.7056H30.9102Z" fill="#0B4D5E"/>
<path d="M30.9102 34.4475C29.8539 34.4475 28.8608 34.2084 28.113 33.7755C27.3436 33.3407 26.8457 32.6552 26.8457 32.0292V30.4993C26.8457 30.3568 26.8646 30.2215 26.8998 30.097C26.9206 30.0258 26.9945 29.9843 27.0649 30.0032C27.1362 30.0222 27.1794 30.0943 27.1614 30.1665C27.0045 30.8096 27.3905 31.4501 28.2186 31.9227C28.9321 32.3286 29.8882 32.5586 30.912 32.5704C30.986 32.5704 31.0455 32.6317 31.0455 32.7057V34.3131C31.0455 34.3879 30.9851 34.4475 30.9102 34.4475ZM27.1172 31.2859V32.0301C27.1172 32.5523 27.5718 33.1594 28.2483 33.5419C28.924 33.9342 29.817 34.1579 30.7749 34.1769V32.8392C29.7565 32.8094 28.8049 32.5695 28.0851 32.159C27.653 31.9119 27.3247 31.6124 27.1181 31.2868L27.1172 31.2859Z" fill="#0B4D5E"/>
<path d="M30.9797 32.7047C33.1876 32.7047 34.9774 31.7007 34.9774 30.4623C34.9774 29.2238 33.1876 28.2198 30.9797 28.2198C28.7718 28.2198 26.9819 29.2238 26.9819 30.4623C26.9819 31.7007 28.7718 32.7047 30.9797 32.7047Z" fill="#F0F4FF"/>
<path d="M30.9797 32.841C28.7012 32.841 26.8467 31.7739 26.8467 30.4633C26.8467 29.1526 28.7012 28.0856 30.9797 28.0856C33.2582 28.0856 35.1137 29.1526 35.1137 30.4633C35.1137 31.7739 33.2591 32.841 30.9797 32.841ZM30.9797 28.3553C28.8501 28.3553 27.1182 29.3006 27.1182 30.4624C27.1182 31.6242 28.8501 32.5695 30.9797 32.5695C33.1094 32.5695 34.8422 31.6242 34.8422 30.4624C34.8422 29.3006 33.1094 28.3553 30.9797 28.3553Z" fill="#0B4D5E"/>
<path d="M18.9792 29.5631C19.2931 30.3055 18.944 31.1254 17.932 31.7018C16.3859 32.5885 13.8521 32.5777 12.3061 31.7018C11.6359 31.3248 11.257 30.8376 11.1677 30.3388V31.691C11.1677 32.234 11.6034 32.888 12.3674 33.32C13.1377 33.7638 14.1552 33.9848 15.1718 33.974C15.4649 33.974 15.7572 33.9632 16.0449 33.919C16.7386 33.8306 17.3953 33.6312 17.932 33.32C18.696 32.888 19.1316 32.3449 19.1316 31.691V30.1621C19.1316 29.9735 19.0793 29.7634 18.9792 29.5631Z" fill="#8AE5CC"/>
<path d="M15.0933 34.1092C14.0433 34.1092 13.0538 33.872 12.2988 33.4372C11.5294 33.0024 11.0315 32.3169 11.0315 31.6909V30.3388C11.0315 30.2684 11.0856 30.2098 11.1551 30.2044C11.2381 30.1999 11.2877 30.2468 11.3003 30.3153C11.386 30.7934 11.7666 31.2435 12.3719 31.5845C13.8972 32.4486 16.3597 32.4477 17.8643 31.5845C18.7852 31.0604 19.1551 30.3243 18.8556 29.6154C18.8267 29.5477 18.8556 29.4701 18.9224 29.4395C18.9864 29.4088 19.0667 29.4359 19.1 29.5017C19.2074 29.7155 19.2678 29.95 19.2678 30.1611V31.6909C19.2678 32.3746 18.8403 32.9627 17.9996 33.4381C17.4656 33.7466 16.7954 33.9595 16.062 34.0533C15.7923 34.0948 15.4848 34.111 15.0951 34.1092H15.0933ZM11.303 31.0018V31.6909C11.303 32.2132 11.7576 32.8202 12.4341 33.2027C13.1386 33.6086 14.1065 33.8395 15.0978 33.8395C15.4884 33.8413 15.7671 33.8251 16.0233 33.7854C16.7241 33.6961 17.3592 33.495 17.8634 33.2036C18.6148 32.7788 18.9954 32.27 18.9954 31.6918V30.8989C18.7907 31.2435 18.4533 31.5601 17.9978 31.8199C16.4211 32.7246 13.8368 32.7255 12.2384 31.8199C11.8307 31.5908 11.5123 31.3112 11.303 31.0027V31.0018Z" fill="#0B4D5E"/>
<path d="M15.0644 32.3665C14.0623 32.3557 13.0647 32.1338 12.3052 31.7017C11.3923 31.1813 11.0189 30.4714 11.184 29.7958C11.1515 29.9067 11.1353 30.0285 11.1353 30.162V31.6909C11.1353 32.2339 11.5709 32.8879 12.3349 33.32C13.0998 33.7638 14.0812 33.9739 15.0635 33.9739L15.0644 32.3665Z" fill="#0B4D5E"/>
<path d="M15.0645 34.1084C14.0073 34.1084 13.0151 33.8693 12.2673 33.4364C11.4979 33.0016 11 32.3161 11 31.6901V30.1602C11 30.0177 11.0189 29.8824 11.0541 29.7579C11.0749 29.6867 11.1479 29.6452 11.2192 29.6641C11.2904 29.6831 11.3337 29.7552 11.3157 29.8274C11.1588 30.4705 11.5448 31.111 12.3729 31.5836C13.0864 31.9895 14.0425 32.2195 15.0663 32.2313C15.1403 32.2313 15.1998 32.2926 15.1998 32.3666V33.9731C15.1998 34.0479 15.1394 34.1084 15.0645 34.1084ZM11.2715 30.9468V31.691C11.2715 32.2132 11.7261 32.8203 12.4026 33.2027C13.0783 33.5951 13.9703 33.8179 14.9292 33.8377V32.5001C13.9108 32.4703 12.9592 32.2304 12.2394 31.8199C11.8073 31.5728 11.479 31.2733 11.2724 30.9477L11.2715 30.9468Z" fill="#0B4D5E"/>
<path d="M15.1342 32.3666C17.3421 32.3666 19.132 31.3626 19.132 30.1242C19.132 28.8857 17.3421 27.8817 15.1342 27.8817C12.9263 27.8817 11.1365 28.8857 11.1365 30.1242C11.1365 31.3626 12.9263 32.3666 15.1342 32.3666Z" fill="#F0F4FF"/>
<path d="M15.1339 32.5018C12.8545 32.5018 11 31.4347 11 30.1241C11 28.8134 12.8545 27.7463 15.1339 27.7463C17.4133 27.7463 19.267 28.8134 19.267 30.1241C19.267 31.4347 17.4124 32.5018 15.1339 32.5018ZM15.1339 28.017C13.0043 28.017 11.2715 28.9623 11.2715 30.1241C11.2715 31.2859 13.0043 32.2312 15.1339 32.2312C17.2636 32.2312 18.9955 31.2859 18.9955 30.1241C18.9955 28.9623 17.2636 28.017 15.1339 28.017Z" fill="#0B4D5E"/>
<path d="M27.2004 33.7439C27.5143 34.4863 27.1652 35.3062 26.1532 35.8826C24.6071 36.7692 22.0733 36.7584 20.5273 35.8826C19.8571 35.5055 19.4782 35.0184 19.3889 34.5196V35.8717C19.3889 36.4148 19.8246 37.0687 20.5886 37.5008C21.3589 37.9446 22.3764 38.1656 23.393 38.1548C23.6861 38.1548 23.9784 38.1439 24.2661 38.0997C24.9598 38.0113 25.6165 37.812 26.1532 37.5008C26.9172 37.0687 27.3528 36.5257 27.3528 35.8717V34.3428C27.3528 34.1543 27.3005 33.9441 27.2004 33.7439Z" fill="#8AE5CC"/>
<path d="M23.3172 38.29C22.2663 38.29 21.275 38.0519 20.52 37.6171C19.7506 37.1824 19.2527 36.4969 19.2527 35.8709V34.5187C19.2527 34.4483 19.3068 34.3897 19.3763 34.3843C19.4574 34.3726 19.5098 34.4267 19.5215 34.4953C19.6072 34.9733 19.9878 35.4234 20.5931 35.7644C22.1166 36.6285 24.5809 36.6276 26.0855 35.7644C27.0055 35.2403 27.3754 34.5043 27.0759 33.7953C27.047 33.7276 27.0759 33.6501 27.1426 33.6194C27.2076 33.5887 27.287 33.6158 27.3203 33.6817C27.4277 33.8954 27.4881 34.1299 27.4881 34.341V35.8699C27.4881 36.5537 27.0606 37.1418 26.2199 37.6171C25.6868 37.9256 25.0166 38.1385 24.2832 38.2323C24.0144 38.2738 23.7096 38.291 23.3181 38.2892L23.3172 38.29ZM19.5242 35.1817V35.8709C19.5242 36.3931 19.9788 37.0002 20.6553 37.3826C21.3598 37.7885 22.3286 38.0194 23.3217 38.0194C23.7132 38.024 23.9883 38.005 24.2445 37.9644C24.9462 37.8751 25.5812 37.674 26.0846 37.3826C26.836 36.9578 27.2166 36.449 27.2166 35.8709V35.0789C27.0118 35.4234 26.6745 35.74 26.2199 35.9998C24.6413 36.9054 22.0589 36.9054 20.4605 35.9998C20.0519 35.7707 19.7335 35.4911 19.5242 35.1817Z" fill="#0B4D5E"/>
<path d="M23.2864 36.5473C22.2842 36.5365 21.2866 36.3146 20.5271 35.8825C19.6143 35.362 19.2408 34.6522 19.4059 33.9766C19.3734 34.0875 19.3572 34.2093 19.3572 34.3428V35.8717C19.3572 36.4147 19.7929 37.0687 20.5569 37.5007C21.3218 37.9445 22.3032 38.1547 23.2855 38.1547L23.2864 36.5473Z" fill="#0B4D5E"/>
<path d="M23.2857 38.2901C22.2294 38.2901 21.2363 38.0511 20.4885 37.6181C19.7191 37.1834 19.2212 36.4969 19.2212 35.8718V34.3429C19.2212 34.1986 19.2401 34.0624 19.2771 33.9388C19.297 33.8684 19.3709 33.8269 19.4422 33.8459C19.5134 33.8648 19.5558 33.9379 19.5378 34.0092C19.3799 34.6523 19.766 35.2927 20.595 35.7654C21.3076 36.1713 22.2637 36.4013 23.2875 36.413C23.3615 36.413 23.421 36.4744 23.421 36.5483V38.1557C23.421 38.2306 23.3606 38.291 23.2857 38.291V38.2901ZM19.4927 35.1277V35.8718C19.4927 36.3932 19.9473 37.0002 20.6238 37.3836C21.2994 37.776 22.1924 37.9997 23.1504 38.0186V36.6809C22.132 36.6512 21.1804 36.4112 20.4615 36.0008C20.0285 35.7537 19.7002 35.4551 19.4936 35.1286L19.4927 35.1277Z" fill="#0B4D5E"/>
<path d="M23.3549 36.5475C25.5628 36.5475 27.3527 35.5435 27.3527 34.305C27.3527 33.0666 25.5628 32.0626 23.3549 32.0626C21.147 32.0626 19.3572 33.0666 19.3572 34.305C19.3572 35.5435 21.147 36.5475 23.3549 36.5475Z" fill="#F0F4FF"/>
<path d="M23.3551 36.6827C21.0757 36.6827 19.2212 35.6165 19.2212 34.305C19.2212 32.9934 21.0757 31.9272 23.3551 31.9272C25.6345 31.9272 27.4882 32.9943 27.4882 34.305C27.4882 35.6156 25.6336 36.6827 23.3551 36.6827ZM23.3551 32.1978C21.2255 32.1978 19.4927 33.1432 19.4927 34.305C19.4927 35.4668 21.2255 36.4121 23.3551 36.4121C25.4848 36.4121 27.2167 35.4668 27.2167 34.305C27.2167 33.1432 25.4848 32.1978 23.3551 32.1978Z" fill="#0B4D5E"/>
</svg>
