<svg width="64" height="64" viewBox="0 0 64 64" fill="none" xmlns="http://www.w3.org/2000/svg">
<mask id="mask0_15036_1177" style="mask-type:alpha" maskUnits="userSpaceOnUse" x="0" y="0" width="64" height="64">
<rect width="64" height="64" fill="#D9D9D9"/>
</mask>
<g mask="url(#mask0_15036_1177)">
<g clip-path="url(#clip0_15036_1177)">
<path d="M57.4128 42.8496C57.4128 43.761 56.8242 44.6724 55.6326 45.3723C53.2493 46.765 49.3693 46.765 46.9643 45.3723C45.7654 44.6797 45.1623 43.7683 45.155 42.8568V27.4868H57.3982L57.42 42.8568L57.4128 42.8496Z" fill="#8AE5CC" stroke="#0B4D5E" stroke-width="0.25" stroke-linecap="round" stroke-linejoin="round"/>
<path d="M57.3981 32.5469C57.34 33.4072 56.7587 34.2603 55.6252 34.9238C53.7288 36.0248 50.9023 36.2436 48.6135 35.5873V42.6089C50.9023 43.2578 53.7288 43.0463 55.6252 41.9453C56.8168 41.2454 57.4126 40.334 57.4054 39.4226L57.3908 32.5469H57.3981Z" fill="#F0F4FF" stroke="#0B4D5E" stroke-width="0.25" stroke-linecap="round" stroke-linejoin="round"/>
<path d="M45.1477 32.4014V39.4229V39.4302V32.4014Z" fill="#F0F4FF" stroke="#0B4D5E" stroke-width="0.25" stroke-linecap="round" stroke-linejoin="round"/>
<path d="M46.9569 34.9239C47.451 35.2083 48.0178 35.427 48.6136 35.5947V27.4868H45.1477V32.4084C45.1477 33.3198 45.758 34.2313 46.9569 34.9239Z" fill="#0B4D5E" stroke="#0B4D5E" stroke-width="0.25" stroke-linecap="round" stroke-linejoin="round"/>
<path d="M45.1477 39.4302V42.8571C45.1477 43.7685 45.758 44.6799 46.9569 45.3726C47.4583 45.6642 48.0178 45.883 48.6136 46.0507V42.6165C48.0178 42.4488 47.451 42.2373 46.9569 41.9457C45.758 41.253 45.155 40.3416 45.1477 39.4302Z" fill="#0B4D5E" stroke="#0B4D5E" stroke-width="0.25" stroke-linecap="round" stroke-linejoin="round"/>
<path d="M46.9569 34.9237C45.758 34.231 45.155 33.3196 45.1477 32.4082V39.4297C45.1477 40.3411 45.758 41.2525 46.9569 41.9452C47.451 42.2296 48.0178 42.4483 48.6136 42.616V35.5945C48.0178 35.4268 47.451 35.2153 46.9569 34.9237Z" fill="#8AE5CC" stroke="#0B4D5E" stroke-width="0.25" stroke-linecap="round" stroke-linejoin="round"/>
<path d="M55.6035 25.2046C58.0085 26.5973 58.0231 28.8503 55.6325 30.2429C53.242 31.6355 49.3693 31.6355 46.9642 30.2429C44.5592 28.8503 44.5519 26.5973 46.9352 25.2046C49.3257 23.812 53.2057 23.812 55.6035 25.2046Z" fill="#F0F4FF" stroke="#0B4D5E" stroke-width="0.25" stroke-linecap="round" stroke-linejoin="round"/>
<path d="M54.8187 25.6641C56.7878 26.8016 56.795 28.6463 54.8405 29.791C52.8859 30.9285 49.7107 30.9285 47.7489 29.791C45.787 28.6536 45.7725 26.8089 47.7271 25.6714C49.6816 24.534 52.8568 24.534 54.8187 25.6714V25.6641Z" fill="#F0F4FF" stroke="#0B4D5E" stroke-width="0.25" stroke-linecap="round" stroke-linejoin="round"/>
<path d="M54.034 26.0138C54.6225 26.3565 54.6298 26.9106 54.034 27.2533L52.8932 27.9168C52.3047 28.2595 51.3456 28.2595 50.757 27.9168C50.1685 27.5742 50.1612 27.0127 50.7425 26.67L51.8833 26.0065C52.4718 25.6638 53.4309 25.6638 54.0267 26.0065L54.034 26.0138Z" fill="#F0F4FF" stroke="#0B4D5E" stroke-width="0.25" stroke-linecap="round" stroke-linejoin="round"/>
<path d="M18.7069 30.4322C18.7069 24.7742 23.6259 22.6306 23.6259 18.1829V13.0498L41.137 23.1993C41.137 23.1993 41.137 22.5868 41.137 25.1533C41.137 29.5937 36.2179 34.9237 36.2179 40.5817V40.8515L36.1961 51.9051L18.6851 41.7556L18.7069 30.702V30.4322Z" fill="#0B4D5E" stroke="#0B4D5E" stroke-width="0.25" stroke-linecap="round" stroke-linejoin="round"/>
<path d="M42.0161 23.2944V23.1923H41.1369C41.1369 23.1923 41.1369 22.5799 41.1369 25.1464C41.1369 29.5868 36.2178 34.9167 36.2178 40.5748V40.8446L36.196 51.8981L47.1677 45.511V35.5511C47.1677 31.5846 42.0088 26.5318 42.0088 23.2944H42.0161Z" fill="#8AE5CC" stroke="#0B4D5E" stroke-width="0.25" stroke-linecap="round" stroke-linejoin="round"/>
<path d="M38.3687 48.3326L42.4231 41.8579L45.6928 43.7536" fill="#8AE5CC"/>
<path d="M38.3687 48.3326L42.4231 41.8579L45.6928 43.7536" stroke="#0B4D5E" stroke-width="0.25" stroke-linecap="round" stroke-linejoin="round"/>
<path d="M42.4231 41.8578V34.0562" stroke="#0B4D5E" stroke-width="0.25" stroke-linecap="round" stroke-linejoin="round"/>
<path d="M41.602 22.1203L25.1446 12.5906C24.8467 12.4229 24.447 12.4448 23.9965 12.7073C23.1028 13.2249 22.3762 14.4863 22.3762 15.5144C22.3762 16.0467 22.5724 16.4112 22.8776 16.5716L39.2261 26.0357L41.602 22.113V22.1203Z" fill="#F0F4FF" stroke="#0B4D5E" stroke-width="0.25" stroke-linecap="round" stroke-linejoin="round"/>
<path d="M40.403 22.2079C41.2967 21.6902 42.0306 22.1058 42.0306 23.1412C42.0306 24.1766 41.3113 25.4307 40.4103 25.9483C39.5093 26.466 38.7827 26.0504 38.7827 25.0151C38.7827 23.9797 39.502 22.7256 40.403 22.2079Z" fill="#8AE5CC" stroke="#0B4D5E" stroke-width="0.25" stroke-linecap="round" stroke-linejoin="round"/>
<path d="M20.4653 39.6852L34.4306 47.7785V40.5674L20.4653 32.4741V39.6852Z" fill="#8AE5CC" stroke="#0B4D5E" stroke-width="0.25" stroke-linecap="round" stroke-linejoin="round"/>
<path d="M27.6514 19.2986C27.3462 19.1382 27.15 18.7664 27.15 18.2414C27.15 17.206 27.8694 15.9519 28.7631 15.4342C29.1046 15.2374 29.4243 15.179 29.6859 15.2301L25.1374 12.5979C24.8394 12.4302 24.4398 12.4521 23.9893 12.7146C23.0956 13.2323 22.369 14.4937 22.3763 15.5217C22.3763 16.054 22.5725 16.4186 22.8776 16.579L27.6587 19.2986H27.6514Z" fill="#0B4D5E" stroke="#0B4D5E" stroke-width="0.25" stroke-linecap="round" stroke-linejoin="round"/>
<path d="M18.9031 17.7822C22.5869 20.6404 23.0011 26.4443 23.0011 29.4993C23.0011 37.5781 23.0011 44.0673 23.0011 44.0673C23.0011 45.285 22.1873 46.5099 20.5815 47.4359C18.983 48.3619 16.8904 48.8285 14.7978 48.8358C12.7052 48.8358 10.6198 48.3692 9.01406 47.4359C7.40827 46.5026 6.60175 45.285 6.59448 44.0673V29.4993C6.59448 26.4443 7.00138 20.6404 10.6852 17.7822H18.8958H18.9031Z" fill="#8AE5CC" stroke="#0B4D5E" stroke-width="0.25" stroke-linecap="round" stroke-linejoin="round"/>
<path d="M10.6852 17.7822C7.00132 20.6404 6.58716 26.4443 6.58716 29.5066V44.0746C6.58716 45.2923 7.40095 46.5172 9.00673 47.4432C9.66794 47.8296 10.4163 48.1286 11.2083 48.3546V29.5066C11.2083 26.4443 11.6225 20.6404 15.3063 17.7895H10.6852V17.7822Z" fill="#0B4D5E" stroke="#0B4D5E" stroke-width="0.25" stroke-linecap="round" stroke-linejoin="round"/>
<path d="M20.6106 32.7733C17.6461 34.5014 12.9522 34.6253 9.72612 33.1379C9.47908 33.0212 9.2393 32.9046 9.01406 32.7733C7.43007 31.8546 6.62355 30.6589 6.59448 29.4558C6.59448 29.536 6.59448 29.6016 6.59448 29.6818V35.493C6.59448 36.7106 7.40827 37.9356 9.01406 38.8616C9.2393 38.9928 9.47908 39.1167 9.72612 39.2261C12.9595 40.7135 17.6461 40.5896 20.6106 38.8616C22.2091 37.9283 23.0011 36.7106 22.9938 35.4857V29.3975C22.9938 30.6151 22.2091 31.84 20.6106 32.7733Z" fill="#F0F4FF" stroke="#0B4D5E" stroke-width="0.25" stroke-linecap="round" stroke-linejoin="round"/>
<path d="M11.2157 33.6699C10.6998 33.5241 10.1911 33.3491 9.72612 33.1377C9.47908 33.021 9.2393 32.9043 9.01406 32.7731C7.43007 31.8544 6.62355 30.6586 6.59448 29.4556C6.59448 29.5358 6.59448 29.6014 6.59448 29.6816V35.4928C6.59448 36.7104 7.40827 37.9353 9.01406 38.8613C9.2393 38.9926 9.47908 39.1165 9.72612 39.2259C10.1911 39.4446 10.6998 39.6123 11.2157 39.7582V33.6699Z" fill="#8AE5CC" stroke="#0B4D5E" stroke-width="0.25" stroke-linecap="round" stroke-linejoin="round"/>
<path d="M19.6949 17.4321C19.6949 18.1612 19.2227 18.8904 18.2708 19.4445C16.3671 20.5528 13.2645 20.5528 11.3463 19.4445C10.3872 18.8904 9.90766 18.1612 9.90039 17.4321V14.9385H19.6949V17.4321Z" fill="#F0F4FF" stroke="#0B4D5E" stroke-width="0.25" stroke-linecap="round" stroke-linejoin="round"/>
<path d="M12.2037 14.9385H9.89307V17.4321C9.89307 18.1612 10.3799 18.8904 11.339 19.4445C11.6078 19.5976 11.8985 19.7289 12.2037 19.8382V14.9385Z" fill="#0B4D5E" stroke="#0B4D5E" stroke-width="0.25" stroke-linecap="round" stroke-linejoin="round"/>
<path d="M18.2418 12.9262C20.1601 14.0418 20.1746 15.8427 18.2636 16.951C16.3527 18.0593 13.2574 18.0593 11.3392 16.951C9.42093 15.8427 9.41367 14.0345 11.3174 12.9262C13.221 11.818 16.3236 11.8107 18.2418 12.9262Z" fill="#F0F4FF" stroke="#0B4D5E" stroke-width="0.25" stroke-linecap="round" stroke-linejoin="round"/>
</g>
</g>
<defs>
<clipPath id="clip0_15036_1177">
<rect width="51" height="40" fill="white" transform="translate(6.5 12)"/>
</clipPath>
</defs>
</svg>
