<svg width="64" height="64" viewBox="0 0 64 64" fill="none" xmlns="http://www.w3.org/2000/svg">
<path d="M50.5006 34.5629L21.9544 18.2236L18.0459 24.5757L47.8667 42.0893L50.5006 34.5629Z" fill="#0B4D5E"/>
<path d="M47.8667 42.2246C47.8432 42.2246 47.8189 42.2183 47.7981 42.2057L17.9773 24.692C17.9466 24.6731 17.9231 24.6433 17.915 24.6082C17.9069 24.573 17.9123 24.5351 17.9313 24.5044L21.8388 18.1524C21.8767 18.0901 21.9579 18.0694 22.021 18.1055L50.5673 34.4447C50.6242 34.4772 50.6494 34.5457 50.6278 34.6071L47.9938 42.1335C47.9803 42.1714 47.9506 42.2021 47.9127 42.2156C47.8973 42.221 47.882 42.2237 47.8658 42.2237L47.8667 42.2246ZM18.2343 24.5288L47.7945 41.8891L50.3364 34.6242L22.0012 18.4059L18.2343 24.5288Z" fill="#0B4D5E"/>
<path d="M47.8665 45.48L18.0457 28.2929V24.5757L47.8665 42.0893V45.48Z" fill="#0B4D5E"/>
<path d="M47.8668 45.6153C47.8442 45.6153 47.8199 45.6099 47.7992 45.5973L17.9783 28.4102C17.9368 28.3858 17.9106 28.3416 17.9106 28.2929V24.5757C17.9106 24.527 17.9368 24.4819 17.9792 24.4584C18.0207 24.4341 18.073 24.435 18.1145 24.4584L47.9353 41.9721C47.9768 41.9964 48.0021 42.0406 48.0021 42.0884V45.4791C48.0021 45.5279 47.9759 45.5721 47.9344 45.5964C47.9137 45.6081 47.8903 45.6144 47.8668 45.6144V45.6153ZM18.1822 28.2144L47.7315 45.2455V42.1669L18.1822 24.812V28.2144Z" fill="#0B4D5E"/>
<path d="M47.8667 45.48L60.8657 37.7804V34.0532L47.8667 42.0902V45.48Z" fill="#8AE5CC"/>
<path d="M47.8668 45.6153C47.8442 45.6153 47.8207 45.6099 47.8 45.5973C47.7576 45.5729 47.7314 45.5278 47.7314 45.48V42.0893C47.7314 42.0424 47.7558 41.9991 47.7955 41.9748L60.7936 33.9377C60.836 33.9116 60.8883 33.9107 60.9307 33.935C60.9731 33.9594 61.0002 34.0045 61.0002 34.0532V37.7804C61.0002 37.8282 60.9749 37.8724 60.9335 37.8967L47.9353 45.5973C47.9146 45.6099 47.8902 45.6162 47.8668 45.6162V45.6153ZM48.003 42.1651V45.2428L60.7296 37.7028V34.2949L48.003 42.1651Z" fill="#0B4D5E"/>
<path d="M29.2607 13.8227L21.9543 18.2237L50.5006 34.5629L57.7222 30.2431L29.2607 13.8227Z" fill="#0B4D5E"/>
<path d="M50.5007 34.6982C50.4781 34.6982 50.4538 34.6927 50.4339 34.6801L21.8876 18.3409C21.8452 18.3165 21.82 18.2723 21.8191 18.2245C21.8191 18.1767 21.8434 18.1316 21.8849 18.1073L29.1922 13.7063C29.2337 13.681 29.286 13.6801 29.3293 13.7054L57.7908 30.1267C57.8323 30.1501 57.8576 30.1953 57.8585 30.2431C57.8585 30.2909 57.8341 30.336 57.7926 30.3603L50.571 34.6801C50.5503 34.6927 50.525 34.699 50.5016 34.699L50.5007 34.6982ZM22.2214 18.2209L50.4998 34.4068L57.4562 30.2458L29.2635 13.9796L22.2214 18.2209Z" fill="#0B4D5E"/>
<path d="M57.7222 30.243L50.5006 34.5628L47.8667 42.0893L60.8657 34.0523L57.7222 30.243Z" fill="#8AE5CC"/>
<path d="M47.8668 42.2246C47.837 42.2246 47.8072 42.2147 47.782 42.1948C47.7369 42.1587 47.7206 42.0992 47.7387 42.0451L50.3726 34.5186C50.3834 34.4888 50.4032 34.4627 50.4303 34.4464L57.6519 30.1267C57.7096 30.0933 57.7827 30.1059 57.8251 30.1564L60.9677 33.9657C60.993 33.9963 61.0038 34.0351 60.9975 34.0739C60.9903 34.1127 60.9686 34.147 60.9352 34.1668L47.9371 42.2038C47.9155 42.2174 47.8902 42.2237 47.8658 42.2237L47.8668 42.2246ZM50.6125 34.6539L48.1202 41.7727L60.661 34.018L57.6916 30.418L50.6116 34.653L50.6125 34.6539Z" fill="#0B4D5E"/>
<path d="M33.2575 24.6253L32.2607 23.993V15.6456L33.2349 16.2013L33.2584 24.6244L33.2575 24.6253Z" fill="#8AE5CC"/>
<path d="M33.2575 24.7606C33.2323 24.7606 33.207 24.7534 33.1854 24.7398L32.1886 24.1075C32.1489 24.0832 32.1255 24.0399 32.1255 23.9939V15.6465C32.1255 15.5987 32.1516 15.5536 32.1931 15.5293C32.2346 15.5058 32.2869 15.5049 32.3275 15.5293L33.3017 16.0849C33.3441 16.1093 33.3694 16.1535 33.3703 16.2022L33.3928 24.6253C33.3928 24.6749 33.3658 24.72 33.3225 24.7443C33.3026 24.7561 33.2801 24.7606 33.2575 24.7606ZM32.3961 23.919L33.1222 24.379L33.1006 16.2807L32.397 15.8793L32.3961 23.919Z" fill="#0B4D5E"/>
<path d="M47.6725 32.8959L44.5903 31.1307V22.7076L47.6725 24.462V32.8959Z" fill="#8AE5CC"/>
<path d="M47.6728 33.0312C47.6503 33.0312 47.6259 33.0258 47.6061 33.0132L44.5239 31.2479C44.4815 31.2236 44.4553 31.1785 44.4553 31.1307V22.7076C44.4553 22.6598 44.4806 22.6147 44.523 22.5903C44.5645 22.5669 44.615 22.566 44.6574 22.5903L47.7396 24.3448C47.782 24.3691 47.8081 24.4142 47.8081 24.462V32.8959C47.8081 32.9446 47.782 32.9888 47.7405 33.0132C47.7197 33.0249 47.6963 33.0312 47.6728 33.0312ZM44.7259 31.0522L47.5366 32.6623V24.5405L44.7259 22.9394V31.0522Z" fill="#0B4D5E"/>
<path d="M33.8916 24.941L36.9738 26.7495V18.3481L33.8916 16.5828V24.941Z" fill="#8AE5CC"/>
<path d="M36.9741 26.8858C36.9507 26.8858 36.9263 26.8795 36.9055 26.8668L33.8233 25.0574C33.7819 25.033 33.7566 24.9888 33.7566 24.941V16.5829C33.7566 16.5342 33.7827 16.49 33.8242 16.4656C33.8657 16.4422 33.9181 16.4413 33.9586 16.4656L37.0409 18.2309C37.0833 18.2552 37.1094 18.3003 37.1094 18.3481V26.7496C37.1094 26.7983 37.0833 26.8434 37.0409 26.8668C37.021 26.8786 36.9967 26.8849 36.9741 26.8849V26.8858ZM34.0281 24.8634L36.8388 26.5141V18.4275L34.0281 16.8174V24.8634Z" fill="#0B4D5E"/>
<path d="M50.4419 34.5015L49.2458 33.815L49.263 25.392L51.3268 26.5691L51.3485 33.9576L50.4428 34.5024L50.4419 34.5015Z" fill="#8AE5CC"/>
<path d="M50.442 34.6368C50.4194 34.6368 50.3951 34.6314 50.3752 34.6188L49.1792 33.9323C49.1368 33.9089 49.1106 33.8638 49.1106 33.8151L49.1286 25.392C49.1286 25.3442 49.1548 25.2991 49.1963 25.2756C49.2378 25.2522 49.2883 25.2513 49.3307 25.2756L51.3945 26.4528C51.4369 26.4771 51.4622 26.5213 51.4631 26.57L51.4838 33.9585C51.4838 34.0063 51.4586 34.0505 51.418 34.0748L50.5114 34.6197C50.4907 34.6332 50.4654 34.6386 50.442 34.6386V34.6368ZM49.3812 33.7366L50.4402 34.3445L51.2123 33.88L51.1925 26.6467L49.3983 25.6238L49.3812 33.7366Z" fill="#0B4D5E"/>
<path d="M35.5902 43.4478L7.04395 27.1086L3.1355 33.4606L32.9563 50.9743L35.5902 43.4478Z" fill="#8AE5CC"/>
<path d="M32.9563 51.1096C32.9328 51.1096 32.9085 51.1033 32.8877 51.0906L3.06687 33.577C3.0362 33.558 3.01275 33.5283 3.00463 33.4931C2.99651 33.4579 3.00192 33.42 3.02086 33.3894L6.92933 27.0373C6.96721 26.9751 7.04839 26.9543 7.11153 26.9904L35.6569 43.3296C35.7137 43.3621 35.739 43.4307 35.7174 43.492L33.0834 51.0185C33.0699 51.0564 33.0402 51.087 33.0023 51.1006C32.9869 51.106 32.9716 51.1087 32.9554 51.1087L32.9563 51.1096ZM3.32395 33.4137L32.8841 50.774L35.426 43.5091L7.09168 27.2908L3.32395 33.4137Z" fill="#0B4D5E"/>
<path d="M32.9561 54.365L3.13525 37.1779V33.4606L32.9561 50.9743V54.365Z" fill="#0B4D5E"/>
<path d="M32.9562 54.4994C32.9336 54.4994 32.9092 54.494 32.8885 54.4813L3.06765 37.2942C3.02616 37.2699 3 37.2257 3 37.177V33.4597C3 33.411 3.02616 33.3659 3.06856 33.3425C3.10915 33.3181 3.16236 33.319 3.20386 33.3425L33.0247 50.8561C33.0662 50.8805 33.0915 50.9247 33.0915 50.9725V54.3632C33.0915 54.4119 33.0653 54.4561 33.0238 54.4804C33.0031 54.4922 32.9796 54.4985 32.9562 54.4985V54.4994ZM3.2715 37.0994L32.8208 54.1305V51.0519L3.2715 33.697V37.0994Z" fill="#0B4D5E"/>
<path d="M32.9563 54.365L45.9553 46.6653V42.9382L32.9563 50.9752V54.365Z" fill="#8AE5CC"/>
<path d="M32.9564 54.4994C32.9338 54.4994 32.9103 54.494 32.8896 54.4814C32.8472 54.457 32.821 54.4119 32.821 54.3641V50.9734C32.821 50.9265 32.8454 50.8832 32.8851 50.8588L45.8841 42.8218C45.9265 42.7957 45.9788 42.7948 46.0212 42.8191C46.0636 42.8435 46.0907 42.8886 46.0907 42.9373V46.6644C46.0907 46.7123 46.0654 46.7565 46.0239 46.7808L33.0249 54.4805C33.0042 54.4931 32.9798 54.4994 32.9564 54.4994ZM33.0917 51.0492V54.1269L45.8192 46.5878V43.1799L33.0917 51.0492Z" fill="#0B4D5E"/>
<path d="M14.3501 22.7076L7.0437 27.1086L35.59 43.4478L42.8116 39.128L14.3501 22.7067V22.7076Z" fill="#0B4D5E"/>
<path d="M35.5901 43.5831C35.5676 43.5831 35.5432 43.5777 35.5234 43.5651L6.97798 27.2258C6.93559 27.2015 6.91033 27.1573 6.90942 27.1095C6.90942 27.0617 6.93378 27.0166 6.97527 26.9922L14.2817 22.5912C14.3231 22.566 14.3755 22.5651 14.4188 22.5903L42.8803 39.0116C42.9218 39.0351 42.947 39.0802 42.9479 39.128C42.9479 39.1758 42.9236 39.2209 42.8821 39.2453L35.6605 43.5651C35.6397 43.5777 35.6145 43.584 35.591 43.584L35.5901 43.5831ZM7.31083 27.105L35.5883 43.2908L42.5447 39.1307L14.352 22.8645L7.31083 27.105Z" fill="#0B4D5E"/>
<path d="M42.8118 39.128L35.5902 43.4478L32.9563 50.9743L45.9553 42.9372L42.8118 39.128Z" fill="#8AE5CC"/>
<path d="M32.9564 51.1096C32.9266 51.1096 32.8968 51.0996 32.8716 51.0798C32.8265 51.0437 32.8102 50.9842 32.8283 50.9301L35.4622 43.4036C35.473 43.3738 35.4928 43.3477 35.5199 43.3314L42.7415 39.0116C42.7992 38.9774 42.8723 38.9909 42.9147 39.0414L46.0582 42.8506C46.0835 42.8813 46.0943 42.9201 46.088 42.9589C46.0808 42.9977 46.0591 43.032 46.0258 43.0518L33.0267 51.0888C33.0051 51.1023 32.9798 51.1086 32.9554 51.1086L32.9564 51.1096ZM35.7021 43.5389L33.2098 50.6576L45.7515 42.9039L42.7812 39.3039L35.7021 43.5389Z" fill="#0B4D5E"/>
<path d="M18.3471 33.5102L17.3503 32.8779V24.5306L18.3245 25.0862L18.348 33.5093L18.3471 33.5102Z" fill="#8AE5CC"/>
<path d="M18.348 33.6446C18.3228 33.6446 18.2975 33.6374 18.2759 33.6239L17.2782 32.9924C17.2385 32.9672 17.2151 32.9239 17.2151 32.8779V24.5306C17.2151 24.4828 17.2412 24.4377 17.2827 24.4133C17.3251 24.3899 17.3765 24.389 17.4171 24.4133L18.3913 24.969C18.4337 24.9933 18.459 25.0375 18.4599 25.0862L18.4833 33.5093C18.4833 33.5589 18.4563 33.604 18.413 33.6284C18.3931 33.6392 18.3706 33.6446 18.348 33.6446ZM17.4857 32.8039L18.2127 33.264L18.1902 25.1656L17.4866 24.7642L17.4857 32.8039Z" fill="#0B4D5E"/>
<path d="M32.7624 41.7809L29.6802 40.0156V31.5925L32.7624 33.347V41.7809Z" fill="#8AE5CC"/>
<path d="M32.7624 41.9162C32.7398 41.9162 32.7155 41.9108 32.6956 41.8981L29.6125 40.1329C29.5701 40.1085 29.5439 40.0634 29.5439 40.0156V31.5925C29.5439 31.5447 29.5692 31.4996 29.6116 31.4753C29.6531 31.4518 29.7036 31.4509 29.746 31.4753L32.8291 33.2297C32.8715 33.254 32.8977 33.2992 32.8977 33.347V41.7818C32.8977 41.8305 32.8715 41.8747 32.83 41.899C32.8093 41.9108 32.7858 41.9162 32.7624 41.9162ZM29.8154 39.9371L32.6271 41.5472V33.4254L29.8154 31.8253V39.9371Z" fill="#0B4D5E"/>
<path d="M18.9822 33.8259L22.0644 35.6345V27.233L18.9822 25.4678V33.8259Z" fill="#8AE5CC"/>
<path d="M22.0644 35.7698C22.041 35.7698 22.0166 35.7634 21.9959 35.7508L18.9137 33.9423C18.8722 33.9179 18.8469 33.8737 18.8469 33.8259V25.4678C18.8469 25.4191 18.8731 25.3749 18.9146 25.3505C18.9561 25.3271 19.0084 25.3262 19.049 25.3505L22.1312 27.1158C22.1736 27.1401 22.1997 27.1852 22.1997 27.233V35.6345C22.1997 35.6832 22.1736 35.7283 22.1312 35.7517C22.1113 35.7635 22.087 35.7698 22.0644 35.7698ZM19.1175 33.7483L21.9282 35.399V27.3124L19.1175 25.7023V33.7492V33.7483Z" fill="#0B4D5E"/>
<path d="M35.5765 43.4478L34.3804 42.7613L34.3975 34.3383L36.4613 35.5154L36.483 42.9039L35.5774 43.4487L35.5765 43.4478Z" fill="#8AE5CC"/>
<path d="M35.5765 43.5831C35.5539 43.5831 35.5296 43.5777 35.5097 43.5651L34.3137 42.8786C34.2713 42.8552 34.2451 42.8101 34.2451 42.7613L34.2631 34.3383C34.2631 34.2905 34.2893 34.2454 34.3308 34.2219C34.3723 34.1985 34.4246 34.1976 34.4652 34.2219L36.5281 35.399C36.5705 35.4234 36.5958 35.4676 36.5967 35.5163L36.6183 42.9039C36.6183 42.9517 36.5931 42.9959 36.5525 43.0202L35.646 43.5651C35.6252 43.5786 35.6 43.584 35.5765 43.584V43.5831ZM34.5166 42.6829L35.5756 43.2908L36.3477 42.8263L36.327 35.593L34.5338 34.5701L34.5166 42.6829Z" fill="#0B4D5E"/>
<path d="M42.9459 29.9201L15.7166 14.3341L11.9885 20.393L40.4338 37.0993L42.9459 29.9201Z" fill="#F0F4FF"/>
<path d="M40.434 37.2346C40.4105 37.2346 40.3861 37.2283 40.3654 37.2157L11.9201 20.5094C11.8895 20.4904 11.866 20.4606 11.8579 20.4255C11.8498 20.3903 11.8552 20.3524 11.8741 20.3217L15.6022 14.2629C15.6401 14.2006 15.7204 14.1799 15.7844 14.2159L43.0146 29.802C43.0715 29.8345 43.0967 29.903 43.0751 29.9643L40.5629 37.1435C40.5494 37.1814 40.5197 37.2121 40.4818 37.2256C40.4664 37.231 40.4511 37.2337 40.4349 37.2337L40.434 37.2346ZM12.1763 20.347L40.3609 36.9L42.7819 29.9824L15.7637 14.5172L12.1763 20.347Z" fill="#0B4D5E"/>
<path d="M40.4338 40.3331L11.9885 23.9389V20.393L40.4338 37.0994V40.3331Z" fill="#F0F4FF"/>
<path d="M40.4338 40.4684C40.4113 40.4684 40.3869 40.463 40.3662 40.4504L11.9209 24.0561C11.8794 24.0318 11.8533 23.9876 11.8533 23.9388V20.393C11.8533 20.3443 11.8794 20.2992 11.9218 20.2757C11.9624 20.2514 12.0156 20.2523 12.0571 20.2757L40.5024 36.9821C40.5439 37.0064 40.5691 37.0506 40.5691 37.0984V40.3322C40.5691 40.3809 40.543 40.4251 40.5015 40.4495C40.4807 40.4612 40.4573 40.4675 40.4338 40.4675V40.4684ZM12.1239 23.8604L40.2976 40.0986V37.176L12.1239 20.6293V23.8604Z" fill="#0B4D5E"/>
<path d="M40.4338 40.3331L52.833 32.9879V29.4321L40.4338 37.0984V40.3331Z" fill="#8AE5CC"/>
<path d="M40.4339 40.4684C40.4113 40.4684 40.3879 40.463 40.3671 40.4504C40.3247 40.426 40.2986 40.3809 40.2986 40.3331V37.0994C40.2986 37.0525 40.3229 37.0092 40.3626 36.9848L52.7618 29.3185C52.8042 29.2924 52.8565 29.2915 52.8989 29.3158C52.9413 29.3402 52.9684 29.3853 52.9684 29.434V32.9898C52.9684 33.0376 52.9431 33.0818 52.9016 33.1061L40.5024 40.4513C40.4817 40.4639 40.4573 40.4702 40.4339 40.4702V40.4684ZM40.5701 37.1742V40.0959L52.6978 32.9113V29.6757L40.5701 37.1742Z" fill="#0B4D5E"/>
<path d="M22.6868 10.1361L15.7178 14.3341L42.9471 29.9202L49.8359 25.7997L22.6877 10.1361H22.6868Z" fill="#8AE5CC"/>
<path d="M42.9461 30.0554C42.9236 30.0554 42.8992 30.05 42.8794 30.0374L15.6491 14.4514C15.6067 14.4279 15.5815 14.3828 15.5806 14.335C15.5806 14.2872 15.6049 14.2421 15.6464 14.2177L22.6163 10.0197C22.6578 9.99357 22.7101 9.99358 22.7534 10.0188L49.9025 25.6825C49.944 25.7059 49.9692 25.751 49.9702 25.7988C49.9702 25.8466 49.9458 25.8917 49.9043 25.9161L43.0156 30.0365C42.9948 30.0491 42.9696 30.0554 42.9461 30.0554ZM15.9838 14.3314L42.9452 29.7632L49.5687 25.8015L22.6885 10.2931L15.9838 14.3314Z" fill="#0B4D5E"/>
<path d="M49.8347 25.7997L42.946 29.9202L40.4338 37.0994L52.833 29.4331L49.8347 25.7997Z" fill="#8AE5CC"/>
<path d="M40.4339 37.2346C40.4041 37.2346 40.3744 37.2247 40.3491 37.2049C40.304 37.1688 40.2878 37.1092 40.3058 37.0551L42.8179 29.8759C42.8288 29.8462 42.8486 29.82 42.8757 29.8038L49.7644 25.6833C49.8221 25.6491 49.8952 25.6626 49.9376 25.7131L52.9359 29.3464C52.9612 29.3771 52.972 29.4159 52.9657 29.4547C52.9585 29.4935 52.9368 29.5277 52.9034 29.5476L40.5043 37.2139C40.4826 37.2274 40.4574 37.2337 40.433 37.2337L40.4339 37.2346ZM43.0579 30.0112L40.6874 36.7827L52.6292 29.3988L49.8041 25.9747L43.0579 30.0103V30.0112Z" fill="#0B4D5E"/>
<path d="M26.4985 20.4408L25.5469 19.8383V11.8761L26.476 12.4065L26.4985 20.4408Z" fill="#F0F4FF"/>
<path d="M26.4986 20.5761C26.4734 20.5761 26.4481 20.5689 26.4265 20.5554L25.4757 19.9528C25.4361 19.9285 25.4126 19.8852 25.4126 19.8392V11.877C25.4126 11.8292 25.4388 11.7841 25.4802 11.7598C25.5217 11.7363 25.5741 11.7354 25.6146 11.7598L26.5428 12.2892C26.5852 12.3136 26.6105 12.3578 26.6114 12.4065L26.633 20.4417C26.633 20.4913 26.606 20.5364 26.5627 20.5608C26.5428 20.5725 26.5203 20.5779 26.4977 20.5779L26.4986 20.5761ZM25.6841 19.7634L26.3633 20.1946L26.3426 12.485L25.685 12.1088V19.7634H25.6841Z" fill="#0B4D5E"/>
<path d="M40.2489 28.33L37.3083 26.6459V18.6107L40.2489 20.2839V28.329V28.33Z" fill="#F0F4FF"/>
<path d="M40.249 28.4652C40.2264 28.4652 40.2021 28.4598 40.1823 28.4471L37.2417 26.7631C37.1993 26.7387 37.1731 26.6936 37.1731 26.6458V18.6106C37.1731 18.5628 37.1984 18.5177 37.2408 18.4933C37.2823 18.4699 37.3328 18.469 37.3752 18.4933L40.3157 20.1666C40.3581 20.1909 40.3843 20.236 40.3843 20.2838V28.329C40.3843 28.3777 40.3581 28.4219 40.3166 28.4462C40.2959 28.458 40.2724 28.4652 40.249 28.4652ZM37.4446 26.5673L40.1137 28.0963V20.3632L37.4446 18.8433V26.5673Z" fill="#0B4D5E"/>
<path d="M27.1038 20.7421L30.0435 22.4676V14.4532L27.1038 12.7691V20.7412V20.7421Z" fill="#F0F4FF"/>
<path d="M30.0446 22.603C30.0212 22.603 29.9968 22.5966 29.9761 22.584L27.0355 20.8584C26.994 20.8341 26.9688 20.7899 26.9688 20.7421V12.77C26.9688 12.7213 26.9949 12.6771 27.0364 12.6528C27.0779 12.6293 27.1302 12.6284 27.1708 12.6528L30.1114 14.3368C30.1538 14.3612 30.1799 14.4063 30.1799 14.4541V22.4686C30.1799 22.5173 30.1538 22.5624 30.1114 22.5858C30.0915 22.5975 30.0672 22.603 30.0446 22.603ZM27.2394 20.6645L29.9084 22.2313V14.5317L27.2394 13.0027V20.6645Z" fill="#0B4D5E"/>
<path d="M43.0158 29.8615L41.8748 29.2066L41.8919 21.1714L43.8601 22.2935L43.8809 29.341L43.0167 29.8606L43.0158 29.8615Z" fill="#F0F4FF"/>
<path d="M43.0155 29.9959C42.993 29.9959 42.9686 29.9905 42.9488 29.9778L41.8068 29.323C41.7644 29.2995 41.7383 29.2544 41.7383 29.2057L41.7554 21.1714C41.7554 21.1236 41.7816 21.0785 41.8231 21.055C41.8646 21.0316 41.9151 21.0307 41.9575 21.055L43.9266 22.1781C43.969 22.2024 43.9942 22.2466 43.9951 22.2953L44.015 29.3419C44.015 29.3897 43.9897 29.4339 43.9491 29.4583L43.085 29.9778C43.0643 29.9914 43.039 29.9959 43.0155 29.9959ZM42.0098 29.1281L43.0137 29.7045L43.7444 29.2652L43.7254 22.3729L42.026 21.4041L42.0098 29.1272V29.1281Z" fill="#0B4D5E"/>
<path d="M49.0056 15.6919C53.2793 15.4543 53.4477 15.2823 53.6234 11.0049C53.861 15.2786 54.0331 15.447 58.3104 15.6264C54.0368 15.864 53.8684 16.0361 53.6889 20.3134C53.4513 16.0397 53.2793 15.8713 49.0056 15.6919Z" fill="#F0F4FF"/>
<path d="M53.5976 20.3182C53.3619 16.0881 53.2326 15.9613 49.0019 15.7837L49 15.6C53.2302 15.3649 53.3569 15.2357 53.5315 11.0012L53.7146 11C53.9503 15.2302 54.0795 15.3569 58.314 15.5345L58.3158 15.7182C54.0856 15.9534 53.9589 16.082 53.7807 20.317L53.5976 20.3182ZM50.4948 15.6815C52.9448 15.8737 53.4537 16.3753 53.6791 18.8241C53.8707 16.371 54.3729 15.8621 56.8205 15.6362C54.371 15.4445 53.8603 14.943 53.6344 12.5009C53.4439 14.9479 52.9412 15.4561 50.4948 15.6815Z" fill="#0B4D5E"/>
</svg>
