<svg width="64" height="64" viewBox="0 0 64 64" fill="none" xmlns="http://www.w3.org/2000/svg">
<path d="M26.3892 32.419C26.3982 33.5339 27.1458 34.6489 28.6499 35.4984C31.6491 37.2005 36.4923 37.2005 39.4688 35.4984C40.9594 34.6457 41.6979 33.5339 41.6933 32.419V29.87H26.3892V32.419Z" fill="#8AE5CC"/>
<path d="M41.6919 32.4188C41.6964 33.5338 40.9588 34.6453 39.4683 35.4979L39.3647 35.3153C40.817 34.4844 41.487 33.4314 41.4829 32.4198L41.6919 32.4188ZM41.4829 30.0809H26.6001V32.4169L26.6089 32.6073C26.6956 33.5611 27.379 34.5391 28.7534 35.3153L29.0327 35.4657C30.4544 36.1949 32.2575 36.5643 34.0679 36.5643C35.9989 36.5643 37.916 36.1438 39.3647 35.3153L39.4683 35.4979H39.4692C36.5856 37.1469 31.9497 37.1992 28.936 35.6532L28.6499 35.4979C27.1459 34.6485 26.3982 33.5337 26.3892 32.4188V29.87H41.6929V32.4188L41.4829 32.4198V30.0809Z" fill="#0B4D5E"/>
<path d="M39.4374 26.6502C42.4321 28.3523 42.4502 31.1078 39.4737 32.8094C36.4926 34.5116 31.6494 34.5116 28.6502 32.8094C25.6555 31.1078 25.6374 28.3523 28.614 26.6502C31.5951 24.9485 36.4382 24.9485 39.4374 26.6502Z" fill="#F0F4FF"/>
<path d="M28.6136 26.6493C31.5947 24.9476 36.4387 24.9486 39.4379 26.6502C42.4323 28.3523 42.4504 31.1077 39.4741 32.8093L39.1889 32.9636C36.1918 34.5094 31.5563 34.458 28.6507 32.8093C25.7495 31.1608 25.6414 28.523 28.3441 26.8124L28.6136 26.6502L28.7181 26.8329C27.2682 27.6621 26.5978 28.7177 26.6038 29.7283C26.61 30.7396 27.2939 31.7962 28.7533 32.6257H28.7543C30.2147 33.4546 32.1372 33.8757 34.0687 33.8757C36.0004 33.8757 37.9184 33.4552 39.3696 32.6267L39.6323 32.4685C40.9009 31.6657 41.4906 30.6788 41.4848 29.7313C41.479 28.7829 40.8765 27.7947 39.5981 26.9911L39.3334 26.8329C37.873 26.0044 35.9503 25.5848 34.0189 25.5848C32.0873 25.5849 30.1692 26.0046 28.7181 26.8329L28.6136 26.6493Z" fill="#0B4D5E"/>
<path d="M26.3892 28.2077C26.3982 29.3227 27.1458 30.4377 28.6499 31.2871C31.6491 32.9893 36.4923 32.9893 39.4688 31.2871C40.9594 30.4345 41.6979 29.3227 41.6933 28.2077V25.6588H26.3892V28.2077Z" fill="#8AE5CC"/>
<path d="M41.6919 28.2076C41.6964 29.3225 40.9588 30.434 39.4683 31.2867L39.3647 31.1041C40.817 30.2732 41.487 29.2201 41.4829 28.2086L41.6919 28.2076ZM41.4829 25.8697H26.6001V28.2056L26.6089 28.3961C26.6956 29.3499 27.379 30.3279 28.7534 31.1041L29.0327 31.2545C30.4544 31.9837 32.2575 32.3531 34.0679 32.3531C35.9989 32.3531 37.916 31.9325 39.3647 31.1041L39.4683 31.2867H39.4692C36.5856 32.9356 31.9497 32.9879 28.936 31.442L28.6499 31.2867C27.1459 30.4372 26.3982 29.3225 26.3892 28.2076V25.6588H41.6929V28.2076L41.4829 28.2086V25.8697Z" fill="#0B4D5E"/>
<path d="M39.4374 22.4389C42.4321 24.141 42.4502 26.8965 39.4737 28.5981C36.4926 30.3003 31.6494 30.3003 28.6502 28.5981C25.6555 26.8965 25.6374 24.141 28.614 22.4389C31.5951 20.7372 36.4382 20.7372 39.4374 22.4389Z" fill="#F0F4FF"/>
<path d="M28.6136 22.438C31.5947 20.7363 36.4387 20.7373 39.4379 22.4389C42.4323 24.141 42.4504 26.8964 39.4741 28.598L39.1889 28.7523C36.1918 30.2981 31.5563 30.2467 28.6507 28.598C25.7495 26.9495 25.6414 24.3117 28.3441 22.6011L28.6136 22.4389L28.7181 22.6216C27.2682 23.4508 26.5978 24.5064 26.6038 25.517C26.61 26.5283 27.2939 27.5849 28.7533 28.4144H28.7543C30.2147 29.2432 32.1372 29.6644 34.0687 29.6644C36.0004 29.6644 37.9184 29.2439 39.3696 28.4154L39.6323 28.2572C40.9009 27.4544 41.4906 26.4675 41.4848 25.5199C41.479 24.5716 40.8765 23.5834 39.5981 22.7798L39.3334 22.6216C37.873 21.7931 35.9503 21.3735 34.0189 21.3735C32.0873 21.3735 30.1692 21.7933 28.7181 22.6216L28.6136 22.438Z" fill="#0B4D5E"/>
<path d="M26.3892 23.9964C26.3982 25.1113 27.1458 26.2263 28.6499 27.0758C31.6491 28.7779 36.4923 28.7779 39.4688 27.0758C40.9594 26.2231 41.6979 25.1113 41.6933 23.9964V21.4474H26.3892V23.9964Z" fill="#8AE5CC"/>
<path d="M41.6919 23.9962C41.6964 25.1112 40.9588 26.2227 39.4683 27.0753L39.3647 26.8927C40.817 26.0618 41.487 25.0088 41.4829 23.9972L41.6919 23.9962ZM41.4829 21.6583H26.6001V23.9943L26.6089 24.1847C26.6956 25.1385 27.379 26.1165 28.7534 26.8927L29.0327 27.0431C30.4544 27.7723 32.2575 28.1417 34.0679 28.1417C35.9989 28.1417 37.916 27.7212 39.3647 26.8927L39.4683 27.0753H39.4692C36.5856 28.7243 31.9497 28.7766 28.936 27.2306L28.6499 27.0753C27.1459 26.2259 26.3982 25.1111 26.3892 23.9962V21.4474H41.6929V23.9962L41.4829 23.9972V21.6583Z" fill="#0B4D5E"/>
<path d="M39.4374 18.2275C42.4321 19.9297 42.4502 22.6852 39.4737 24.3868C36.4926 26.0889 31.6494 26.0889 28.6502 24.3868C25.6555 22.6852 25.6374 19.9297 28.614 18.2275C31.5951 16.5259 36.4382 16.5259 39.4374 18.2275Z" fill="#F0F4FF"/>
<path d="M28.6136 18.2267C31.5947 16.525 36.4387 16.526 39.4379 18.2276C42.4323 19.9297 42.4504 22.6851 39.4741 24.3867L39.1889 24.541C36.1918 26.0868 31.5563 26.0354 28.6507 24.3867C25.7495 22.7382 25.6414 20.1004 28.3441 18.3897L28.6136 18.2276L28.7181 18.4103C27.2682 19.2395 26.5978 20.2951 26.6038 21.3057C26.61 22.317 27.2939 23.3736 28.7533 24.2031H28.7543C30.2147 25.0319 32.1372 25.4531 34.0687 25.4531C36.0004 25.4531 37.9184 25.0326 39.3696 24.2041L39.6323 24.0459C40.9009 23.2431 41.4906 22.2562 41.4848 21.3086C41.479 20.3603 40.8765 19.372 39.5981 18.5685L39.3334 18.4103C37.873 17.5818 35.9503 17.1622 34.0189 17.1622C32.0873 17.1622 30.1692 17.5819 28.7181 18.4103L28.6136 18.2267Z" fill="#0B4D5E"/>
<path d="M26.3892 19.7851C26.3982 20.9 27.1458 22.015 28.6499 22.8645C31.6491 24.5666 36.4923 24.5666 39.4688 22.8645C40.9594 22.0118 41.6979 20.9 41.6933 19.7851V17.2361H26.3892V19.7851Z" fill="#8AE5CC"/>
<path d="M41.6919 19.7849C41.6964 20.8999 40.9588 22.0114 39.4683 22.864L39.3647 22.6814C40.817 21.8505 41.487 20.7975 41.4829 19.7859L41.6919 19.7849ZM41.4829 17.447H26.6001V19.783L26.6089 19.9734C26.6956 20.9272 27.379 21.9052 28.7534 22.6814L29.0327 22.8318C30.4544 23.561 32.2575 23.9304 34.0679 23.9304C35.9989 23.9304 37.916 23.5099 39.3647 22.6814L39.4683 22.864H39.4692C36.5856 24.513 31.9497 24.5653 28.936 23.0193L28.6499 22.864C27.1459 22.0146 26.3982 20.8998 26.3892 19.7849V17.2361H41.6929V19.7849L41.4829 19.7859V17.447Z" fill="#0B4D5E"/>
<path d="M39.4374 14.0162C42.4321 15.7184 42.4502 18.4738 39.4737 20.1755C36.4926 21.8776 31.6494 21.8776 28.6502 20.1755C25.6555 18.4738 25.6374 15.7184 28.614 14.0162C31.5951 12.3146 36.4382 12.3146 39.4374 14.0162Z" fill="#F0F4FF"/>
<path d="M28.6136 14.0154C31.5947 12.3137 36.4387 12.3147 39.4379 14.0163C42.4323 15.7184 42.4504 18.4738 39.4741 20.1754L39.1889 20.3297C36.1918 21.8755 31.5563 21.8241 28.6507 20.1754C25.7495 18.5269 25.6414 15.8891 28.3441 14.1784L28.6136 14.0163L28.7181 14.199C27.2682 15.0282 26.5978 16.0838 26.6038 17.0944C26.61 18.1057 27.2939 19.1623 28.7533 19.9918H28.7543C30.2147 20.8206 32.1372 21.2418 34.0687 21.2418C36.0004 21.2418 37.9184 20.8213 39.3696 19.9928L39.6323 19.8346C40.9009 19.0318 41.4906 18.0449 41.4848 17.0973C41.479 16.149 40.8765 15.1607 39.5981 14.3572L39.3334 14.199C37.873 13.3705 35.9503 12.9509 34.0189 12.9509C32.0873 12.9509 30.1692 13.3706 28.7181 14.199L28.6136 14.0154Z" fill="#0B4D5E"/>
<path d="M29.1118 60.1932L25.4411 62.3174L6.03442 51.1188L12.4816 47.3921L29.1118 60.1932Z" fill="#0B4D5E"/>
<path d="M12.4475 47.2446C12.4908 47.2346 12.5371 47.2449 12.5735 47.2729L29.2043 60.0737L29.2307 60.1001C29.2533 60.1289 29.2643 60.1653 29.262 60.2026C29.2587 60.2528 29.2311 60.2985 29.1877 60.3237L25.5168 62.4478L25.4407 62.3169V62.3179L25.5168 62.4478C25.4819 62.468 25.4406 62.4734 25.4026 62.4634L25.3655 62.4478L5.95923 51.2495C5.91254 51.2226 5.88308 51.1726 5.88306 51.1187C5.8831 51.0648 5.91261 51.0147 5.95923 50.9878L12.4065 47.2612L12.4475 47.2446ZM6.33618 51.1177L25.4407 62.1431L28.8411 60.1753L12.47 47.5728L6.33618 51.1177Z" fill="#0B4D5E"/>
<path d="M12.4814 50.5972L29.1117 60.1934L57.9934 43.5259V29.3179L12.4814 36.3893V50.5972Z" fill="#F0F4FF"/>
<path d="M57.9707 29.1685C58.0141 29.1619 58.0584 29.1751 58.0918 29.2036C58.1251 29.2323 58.1445 29.2739 58.1445 29.3179V43.5259C58.1445 43.5797 58.1159 43.6298 58.0693 43.6568L29.1875 60.3238C29.1526 60.3439 29.1112 60.3494 29.0732 60.3394L29.0361 60.3238L12.4062 50.7281C12.3595 50.7011 12.3301 50.6511 12.3301 50.5972V36.3892C12.3301 36.3149 12.3846 36.2513 12.458 36.2398L57.9707 29.1685ZM12.6328 36.5181V50.5103L29.1113 60.0191L57.8428 43.438V29.4937L12.6328 36.5181Z" fill="#0B4D5E"/>
<path d="M12.4814 36.3888L29.1117 45.9943V60.1929L12.4814 50.5967V36.3888Z" fill="#0B4D5E"/>
<path d="M12.4062 36.2579C12.4528 36.2312 12.5101 36.2312 12.5566 36.2579L29.1875 45.8634L29.2188 45.8878C29.2465 45.9157 29.2627 45.9538 29.2627 45.9942V60.1925C29.2627 60.2463 29.234 60.2963 29.1875 60.3233C29.1526 60.3435 29.1112 60.349 29.0732 60.339L29.0361 60.3233L12.4062 50.7276C12.3596 50.7007 12.3301 50.6507 12.3301 50.5968V36.3888L12.3359 36.3497C12.3462 36.3116 12.3712 36.2782 12.4062 36.2579ZM12.6328 50.5099L28.9609 59.9317V46.0812L12.6328 36.6505V50.5099Z" fill="#0B4D5E"/>
<path d="M12.4814 36.3891L29.1117 45.9946L57.9934 29.3178L41.4284 19.7589L12.4814 36.3891Z" fill="#8AE5CC"/>
<path d="M41.3896 19.6134C41.4277 19.6032 41.4689 19.6078 41.5039 19.628L58.0693 29.1866L58.1006 29.211C58.1283 29.2389 58.1444 29.2771 58.1445 29.3175C58.1445 29.3712 58.1158 29.4213 58.0693 29.4483L29.1875 46.1251C29.1526 46.1452 29.1112 46.1507 29.0732 46.1407L29.0361 46.1251L12.4063 36.5196C12.3595 36.4926 12.33 36.4427 12.3301 36.3887C12.3302 36.3349 12.3595 36.2847 12.4063 36.2579L41.3535 19.628L41.3896 19.6134ZM12.7822 36.3887L29.1113 45.8204L57.6914 29.3175L41.4277 19.9327L12.7822 36.3887Z" fill="#0B4D5E"/>
<path d="M35.2421 37.8055C39.2247 37.8055 42.4532 35.5989 42.4532 32.8769C42.4532 30.155 39.2247 27.9484 35.2421 27.9484C31.2595 27.9484 28.031 30.155 28.031 32.8769C28.031 35.5989 31.2595 37.8055 35.2421 37.8055Z" fill="#F0F4FF"/>
<path d="M42.3025 32.8771C42.3025 31.5806 41.5331 30.3899 40.2556 29.5168C38.9789 28.6442 37.2068 28.0998 35.2419 28.0998C33.2771 28.0998 31.505 28.6442 30.2283 29.5168C28.9508 30.3899 28.1824 31.5806 28.1824 32.8771C28.1824 34.1736 28.9508 35.3644 30.2283 36.2375C31.505 37.1101 33.2772 37.6544 35.2419 37.6545C37.2067 37.6545 38.9789 37.11 40.2556 36.2375C41.5331 35.3644 42.3024 34.1736 42.3025 32.8771ZM42.6042 32.8771C42.6042 34.3024 41.7588 35.5759 40.4265 36.4865C39.0934 37.3977 37.2596 37.9562 35.2419 37.9562C33.2244 37.9562 31.3914 37.3975 30.0583 36.4865C28.726 35.5759 27.8797 34.3024 27.8796 32.8771C27.8796 31.4518 28.726 30.1784 30.0583 29.2678C31.3914 28.3567 33.2244 27.7971 35.2419 27.7971C37.2596 27.7971 39.0934 28.3566 40.4265 29.2678C41.7587 30.1784 42.6042 31.4519 42.6042 32.8771Z" fill="#0B4D5E"/>
<path d="M29.356 2.55094C32.3778 1.22285 34.4931 3.01404 34.0927 6.55485C33.6999 10.0957 30.9198 14.0475 27.898 15.3763C24.8837 16.7044 22.7609 14.9087 23.1613 11.3633C23.5617 7.81798 26.3418 3.8745 29.356 2.54641V2.55094Z" fill="#F0F4FF"/>
<path d="M26.0259 15.9278C25.38 15.9278 24.799 15.7502 24.3178 15.3967C23.3047 14.6518 22.8424 13.1772 23.0479 11.3512C23.4513 7.78245 26.26 3.78686 29.3098 2.44291C29.3196 2.43837 29.3287 2.43611 29.3393 2.4346C30.749 1.82343 32.0272 1.85818 32.9413 2.53054C33.9506 3.2739 34.4107 4.74553 34.2052 6.56844C33.8093 10.138 31.0006 14.1366 27.9432 15.4805C27.2663 15.7789 26.6181 15.9278 26.0259 15.9278ZM29.3733 2.66349C26.4006 3.99007 23.6681 7.89049 23.2745 11.3762C23.0773 13.1197 23.5072 14.5181 24.453 15.2139C25.3067 15.8417 26.5139 15.862 27.8526 15.2728C30.8442 13.9575 33.5933 10.0413 33.98 6.54275C34.1772 4.80294 33.7496 3.40687 32.8068 2.71336C31.9547 2.08558 30.7452 2.06517 29.402 2.65518C29.3922 2.65896 29.3831 2.66198 29.3733 2.66349Z" fill="#0B4D5E"/>
<path d="M32.7024 2.51392L34.3946 3.55267C35.4523 4.20689 36.0038 5.63394 35.7771 7.60265C35.3767 11.148 32.6042 15.096 29.5824 16.4241C28.2452 17.0179 27.0818 16.9899 26.2357 16.4664L24.551 15.4277C25.3971 15.9467 26.553 15.9754 27.8977 15.3861C30.912 14.0573 33.6845 10.1055 34.0924 6.56466C34.3191 4.59519 33.76 3.1689 32.7024 2.51392Z" fill="#8AE5CC"/>
<path d="M27.7136 16.9756C27.1425 16.9756 26.622 16.8381 26.1762 16.5631L24.4923 15.5243C24.4394 15.4919 24.4229 15.4216 24.4553 15.3687C24.4886 15.3151 24.5588 15.2992 24.611 15.3317C25.4646 15.8552 26.5872 15.8379 27.8526 15.2833C30.8276 13.9711 33.5767 10.0548 33.9801 6.55256C34.1924 4.70547 33.7059 3.2686 32.6429 2.61135C32.59 2.57887 32.5735 2.50862 32.6059 2.45573C32.6392 2.4021 32.7094 2.38622 32.7616 2.41871L34.4538 3.45746C35.59 4.16003 36.1128 5.67624 35.8899 7.617C35.4857 11.1911 32.6769 15.1889 29.6279 16.5291C28.9556 16.8275 28.3074 16.9763 27.7128 16.9763L27.7136 16.9756ZM25.5379 15.9028L26.2956 16.3704C27.1395 16.8925 28.2915 16.8743 29.5373 16.3213C32.5206 15.0099 35.2696 11.0936 35.6647 7.59056C35.8778 5.74045 35.3936 4.30358 34.3352 3.64935L33.5586 3.17265C34.1342 3.98628 34.3669 5.17084 34.2052 6.57825C33.7928 10.1516 30.984 14.1494 27.9433 15.4903C27.0677 15.8741 26.2533 16.0116 25.5379 15.9028Z" fill="#0B4D5E"/>
<path d="M35.7771 7.60339C35.83 7.16825 35.83 6.75653 35.8149 6.37804L34.1227 5.33929C34.1529 5.72307 34.1453 6.13026 34.0924 6.5654C34.0396 7.04662 33.9338 7.53767 33.7979 8.02418L35.4825 9.06293C35.6185 8.57642 35.7243 8.08537 35.7771 7.60339Z" fill="#F0F4FF"/>
<path d="M35.4825 9.17628C35.4621 9.17628 35.441 9.17099 35.4228 9.15966L33.7389 8.12091C33.6959 8.09447 33.6762 8.04234 33.6898 7.99399C33.8364 7.4682 33.9316 6.99679 33.9807 6.55334C34.0313 6.14086 34.0411 5.73594 34.0109 5.34839C34.0071 5.30609 34.0282 5.26529 34.0645 5.24263C34.1 5.22072 34.1468 5.22072 34.1823 5.24263L35.8746 6.28138C35.907 6.30102 35.9267 6.33577 35.9282 6.37354C35.9403 6.67345 35.9486 7.12824 35.8904 7.61626C35.8398 8.07407 35.7424 8.55757 35.5913 9.09394C35.5814 9.12794 35.5565 9.15589 35.5233 9.16873C35.5097 9.17402 35.4968 9.17628 35.4825 9.17628ZM33.93 7.97284L35.413 8.88769C35.5377 8.42082 35.62 7.9955 35.6645 7.59133C35.7167 7.1509 35.7129 6.73465 35.7038 6.4438L34.2481 5.5501C34.2617 5.88476 34.2466 6.23001 34.2035 6.57979C34.1567 7.01115 34.066 7.4682 33.9293 7.97284H33.93Z" fill="#0B4D5E"/>
<path d="M32.7478 10.5686L34.4325 11.6066C34.6515 11.2183 34.8404 10.8118 35.0142 10.4046L33.322 9.36664C33.1482 9.77307 32.9593 10.1757 32.7478 10.5686Z" fill="#F0F4FF"/>
<path d="M34.4325 11.7207C34.4121 11.7207 34.391 11.7154 34.3728 11.7041L32.6889 10.6661C32.6383 10.6343 32.6202 10.5686 32.6489 10.5157C32.8438 10.1531 33.0296 9.76254 33.2185 9.32211C33.2313 9.29189 33.257 9.26847 33.288 9.25865C33.3212 9.24958 33.3545 9.2526 33.3817 9.26998L35.0739 10.308C35.1215 10.3374 35.1411 10.3979 35.1192 10.4492C34.913 10.9327 34.7256 11.318 34.5322 11.6625C34.5164 11.6897 34.4914 11.7093 34.4612 11.7161C34.4522 11.7184 34.4431 11.7199 34.4333 11.7199L34.4325 11.7207ZM32.8982 10.5286L34.3917 11.4487C34.5496 11.1601 34.7045 10.8376 34.8722 10.4508L33.3756 9.53212C33.2177 9.89323 33.0614 10.2211 32.8989 10.5286H32.8982Z" fill="#0B4D5E"/>
<path d="M45.0056 11.6919C49.2793 11.4543 49.4477 11.2823 49.6234 7.00494C49.861 11.2786 50.0331 11.447 54.3104 11.6264C50.0368 11.864 49.8684 12.0361 49.6889 16.3134C49.4513 12.0397 49.2793 11.8713 45.0056 11.6919Z" fill="#F0F4FF"/>
<path d="M49.5976 16.3182C49.3619 12.0881 49.2326 11.9613 45.0019 11.7837L45 11.6C49.2302 11.3649 49.3569 11.2357 49.5315 7.00121L49.7146 7C49.9503 11.2302 50.0795 11.3569 54.314 11.5345L54.3158 11.7182C50.0856 11.9534 49.9589 12.082 49.7807 16.317L49.5976 16.3182ZM46.4948 11.6815C48.9448 11.8737 49.4537 12.3753 49.6791 14.8241C49.8707 12.371 50.3729 11.8621 52.8205 11.6362C50.371 11.4445 49.8603 10.943 49.6344 8.50088C49.4439 10.9479 48.9412 11.4561 46.4948 11.6815Z" fill="#0B4D5E"/>
</svg>
