<svg width="64" height="64" viewBox="0 0 64 64" fill="none" xmlns="http://www.w3.org/2000/svg">
<path d="M17.8086 19.0902L30.2106 26.3231C31.1438 26.8615 32.3015 26.8705 33.2347 26.3321L46.3007 18.785C46.8751 18.453 46.884 17.6185 46.3007 17.2865L33.8539 10.0534C32.9207 9.50604 31.772 9.50604 30.8387 10.0534L17.8086 17.5915C17.2343 17.9236 17.2253 18.7582 17.8086 19.0902Z" fill="#8AE5CC"/>
<path d="M31.7351 26.8661C31.1859 26.8661 30.6349 26.7243 30.1431 26.4398L17.743 19.2069C17.4289 19.0284 17.2414 18.7071 17.2405 18.3472C17.2387 17.9829 17.4262 17.6571 17.7421 17.4749L30.7722 9.93685C31.7432 9.36701 32.9511 9.36701 33.9239 9.93685L46.3697 17.1699C46.682 17.3475 46.8696 17.6697 46.8714 18.0296C46.8714 18.3939 46.6847 18.7196 46.3697 18.9018L33.3028 26.4488C32.8209 26.727 32.2789 26.8652 31.736 26.8652L31.7351 26.8661ZM32.3462 9.77987C31.8481 9.77987 31.351 9.90994 30.9068 10.1702L17.8758 17.7083C17.6443 17.8411 17.5079 18.0806 17.5088 18.3463C17.5088 18.6083 17.6461 18.8425 17.8749 18.9726L30.276 26.2065C31.1707 26.7225 32.2771 26.7279 33.1655 26.2155L46.2324 18.6684C46.463 18.5356 46.5994 18.2961 46.5985 18.0304C46.5985 17.7684 46.4613 17.5342 46.2333 17.4041L33.7856 10.1702C33.3414 9.90904 32.8434 9.77889 32.3453 9.77889L32.3462 9.77987Z" fill="#0B4D5E"/>
<path d="M33.2344 57.4715L46.3004 49.9245V18.785L33.2344 26.3321V57.4715Z" fill="#F0F4FF"/>
<path d="M33.0989 57.7048V26.2549L46.4349 18.5527V50.0025L33.0989 57.7048ZM33.369 26.4102V57.2391L46.1657 49.8481V19.0192L33.369 26.4102Z" fill="#0B4D5E"/>
<path d="M30.2103 57.4715L17.8083 50.2386V19.0902L30.2103 26.3231V57.4715Z" fill="#0B4D5E"/>
<path d="M30.345 57.7067L17.6738 50.3167V18.8569L30.345 26.2469V57.7067ZM17.944 50.1613L30.0757 57.2373V26.4004L17.944 19.3244V50.1613Z" fill="#0B4D5E"/>
<path d="M35.8818 53.3615L36.9857 52.7333V27.3462L35.8818 27.9653V53.3615Z" fill="#8AE5CC"/>
<path d="M39.4084 51.2974L40.4943 50.6603V25.2911L39.4084 25.9193V51.2974Z" fill="#8AE5CC"/>
<path d="M42.9172 49.2515L44.0031 48.6232V23.2451L42.9172 23.8733V49.2515Z" fill="#8AE5CC"/>
<path d="M30.2104 26.3231C31.1437 26.8705 32.2924 26.8705 33.2346 26.3321V57.4804C32.2924 58.0189 31.1437 58.0189 30.2104 57.4715V26.3231Z" fill="#F0F4FF"/>
<path d="M31.7261 58.0162C31.1769 58.0162 30.6277 57.8735 30.1413 57.5881L30.075 57.5496V26.0889L30.2786 26.2073C31.1608 26.7251 32.2681 26.7288 33.1682 26.2154L33.3702 26.1005V57.5585L33.3019 57.5971C32.8137 57.8762 32.27 58.0145 31.727 58.0153L31.7261 58.0162ZM30.345 57.3935C31.1949 57.8619 32.2368 57.8645 33.0991 57.4015V26.5547C32.226 26.9738 31.2056 26.971 30.345 26.5484V57.3935Z" fill="#0B4D5E"/>
<path d="M46.7313 17.9685C46.7582 18.2826 46.6146 18.6056 46.3005 18.785V49.9335C46.5967 49.754 46.7492 49.4489 46.7313 49.1438V17.9685Z" fill="#F0F4FF"/>
<path d="M46.1659 50.1731V18.7079L46.2341 18.6694C46.4423 18.55 46.5742 18.3445 46.5957 18.1139V17.9694L46.8649 17.9576C46.8703 18.0142 46.8703 18.0707 46.8649 18.1263V49.1446C46.8856 49.5009 46.6962 49.8508 46.3696 50.0492L46.1641 50.1731H46.1659ZM46.436 18.8604V49.6418C46.5482 49.5027 46.6074 49.3304 46.5975 49.1536V18.7249C46.5491 18.7752 46.4952 18.82 46.436 18.8604Z" fill="#0B4D5E"/>
<path d="M17.3687 18.2646C17.3507 18.5787 17.4943 18.9018 17.8084 19.0812V50.2296C17.5033 50.0501 17.3597 49.745 17.3687 49.4399V18.2646Z" fill="#0B4D5E"/>
<path d="M17.9439 50.4655L17.7401 50.3462C17.4126 50.1533 17.2232 49.8132 17.234 49.4363V18.3714C17.2322 18.3337 17.2322 18.296 17.234 18.2574L17.5032 18.2646V18.3669C17.5185 18.6191 17.6531 18.8381 17.8747 18.9646L17.9429 19.0031V50.4655H17.9439ZM17.5041 19.0094V49.4399C17.4978 49.6283 17.5598 49.8043 17.6737 49.9425V19.1557C17.6118 19.1136 17.5535 19.0632 17.5041 19.0094Z" fill="#0B4D5E"/>
<path d="M21.8107 14.7468L30.5243 19.8261C31.1794 20.2119 31.9871 20.212 32.6512 19.8351L41.8225 14.5315C42.2353 14.2981 42.2353 13.7149 41.8314 13.4816L33.0819 8.40233C32.4268 8.01645 31.6192 8.01644 30.9641 8.39335L21.8107 13.688C21.4069 13.9213 21.4069 14.5135 21.8107 14.7468Z" fill="#8AE5CC"/>
<path d="M31.5915 20.2497C31.1975 20.2497 30.8045 20.1473 30.4563 19.9427L21.7435 14.8635C21.512 14.7298 21.3738 14.4884 21.3738 14.2174C21.3738 13.9464 21.512 13.7059 21.7435 13.5713L30.8969 8.27668C31.5941 7.87465 32.4575 7.87822 33.1503 8.28654L41.8989 13.3649C42.1313 13.4995 42.2695 13.7391 42.2677 14.0065C42.2677 14.2748 42.125 14.5144 41.889 14.6481L32.7186 19.9517C32.3677 20.15 31.9782 20.2497 31.5906 20.2497H31.5915ZM32.0159 8.24798C31.6758 8.24798 31.3357 8.33502 31.0315 8.51001L21.8781 13.8046C21.7301 13.8899 21.6421 14.0442 21.6421 14.2174C21.6421 14.3906 21.7301 14.5449 21.8781 14.6302L30.5918 19.7103C31.2011 20.0674 31.963 20.0702 32.5849 19.7184L41.7553 14.4148C41.9079 14.3286 41.9985 14.1761 41.9985 14.0056C41.9985 13.836 41.9114 13.6835 41.7634 13.5982L33.0138 8.51899C32.706 8.33772 32.3605 8.24798 32.0159 8.24798Z" fill="#0B4D5E"/>
<path d="M32.6514 22.8952L41.8316 17.5916V14.5314L32.6514 19.835V22.8952Z" fill="#F0F4FF"/>
<path d="M32.5166 23.1285V19.7578L41.9661 14.299V17.6697L32.5166 23.1285ZM32.7867 19.9131V22.6627L41.6969 17.5143V14.7648L32.7867 19.9131Z" fill="#0B4D5E"/>
<path d="M30.5334 22.8951L21.8108 17.8159V14.7468L30.5334 19.826V22.8951Z" fill="#0B4D5E"/>
<path d="M30.668 23.1294L21.6753 17.894V14.5135L30.668 19.7488V23.1294ZM21.9463 17.7387L30.3988 22.6618V19.9041L21.9463 14.981V17.7387Z" fill="#0B4D5E"/>
<path d="M30.5244 19.826C31.1795 20.2029 31.9872 20.2119 32.6512 19.826V22.8952C31.9961 23.281 31.1795 23.281 30.5244 22.8952V19.826Z" fill="#F0F4FF"/>
<path d="M31.5877 23.3195C31.1964 23.3195 30.8052 23.2173 30.4561 23.0118L30.3896 22.9731V19.5945L30.5925 19.7103C31.2099 20.0656 31.9727 20.0656 32.5847 19.7103L32.7875 19.5927V22.9731L32.7211 23.0118C32.3711 23.2173 31.9798 23.3195 31.5877 23.3195ZM30.6598 22.817C31.2395 23.1284 31.9376 23.1284 32.5165 22.817V20.0477C31.9296 20.3124 31.2485 20.3124 30.6598 20.0477V22.8188V22.817Z" fill="#0B4D5E"/>
<path d="M42.1277 13.9571C42.1456 14.1814 42.0469 14.4058 41.8315 14.5314V17.6005C42.0379 17.4749 42.1367 17.2595 42.1277 17.0442V13.9571Z" fill="#F0F4FF"/>
<path d="M41.697 17.8401V14.4543L41.7643 14.4156C41.8971 14.3385 41.9796 14.2074 41.9931 14.0558V13.9589L42.2623 13.9481C42.2659 13.9876 42.2659 14.0262 42.2623 14.0639V17.045C42.2731 17.3196 42.1385 17.5718 41.9016 17.7163L41.696 17.841L41.697 17.8401ZM41.9662 14.6042V17.2353C41.9859 17.1779 41.9958 17.115 41.9931 17.0495V14.5826C41.9832 14.5898 41.9743 14.5979 41.9662 14.6042Z" fill="#0B4D5E"/>
<path d="M21.5056 14.1635C21.4876 14.3878 21.5953 14.6122 21.8107 14.7378V17.8069C21.6043 17.6813 21.4966 17.4659 21.5056 17.2505V14.1635Z" fill="#0B4D5E"/>
<path d="M21.9462 18.0465L21.7407 17.9218C21.5011 17.7765 21.3594 17.5171 21.371 17.2452V14.2649C21.3674 14.2281 21.3683 14.1904 21.371 14.1536L21.6402 14.1645V14.2533C21.6537 14.405 21.7398 14.5414 21.8789 14.6221L21.9462 14.6607V18.0465ZM21.6402 14.7827V17.2514C21.6366 17.3232 21.6501 17.3923 21.6762 17.4569V14.8114C21.6636 14.8025 21.6519 14.7926 21.6402 14.7827Z" fill="#0B4D5E"/>
<path d="M25.3824 12.0008L30.9911 15.2673C31.4129 15.5186 31.9333 15.5186 32.3551 15.2763L38.2599 11.8662C38.5202 11.7136 38.5202 11.3367 38.2599 11.1842L32.6333 7.91766C32.2115 7.67537 31.6911 7.67537 31.2693 7.91766L25.3824 11.3278C25.1222 11.4714 25.1222 11.8483 25.3824 12.0008Z" fill="#8AE5CC"/>
<path d="M31.6793 15.5912C31.4172 15.5912 31.1543 15.5222 30.9219 15.384L25.3132 12.1175C25.1472 12.0205 25.0494 11.8473 25.0521 11.6544C25.0539 11.4669 25.1526 11.2999 25.3168 11.2102L31.2019 7.80183C31.6658 7.53621 32.2384 7.53711 32.7005 7.80183L38.328 11.0683C38.4932 11.1653 38.5901 11.3358 38.5901 11.5269C38.5901 11.718 38.4932 11.8877 38.329 11.9837L32.4232 15.3938C32.1935 15.5257 31.9369 15.5921 31.6802 15.5921L31.6793 15.5912ZM25.4505 11.885L31.0583 15.1515C31.4361 15.3759 31.9064 15.3795 32.2877 15.1596L38.1925 11.7495C38.2724 11.7028 38.3209 11.6185 38.3209 11.5251C38.3209 11.4318 38.2724 11.3475 38.1916 11.2999L32.565 8.03429C32.1872 7.81622 31.7161 7.81622 31.3365 8.03429L25.4487 11.4444C25.3671 11.4893 25.3213 11.5664 25.3204 11.6579C25.3204 11.7521 25.367 11.8374 25.4496 11.885H25.4505Z" fill="#0B4D5E"/>
<path d="M32.355 17.2416L38.2598 13.8314V11.8662L32.355 15.2763V17.2416Z" fill="#F0F4FF"/>
<path d="M32.2205 17.4749V15.1991L38.3954 11.6338V13.9095L32.2205 17.4749ZM32.4905 15.3543V17.0091L38.1252 13.7552V12.1004L32.4905 15.3543Z" fill="#0B4D5E"/>
<path d="M30.991 17.2416L25.3823 13.9751V12.0008L30.991 15.2673V17.2416Z" fill="#0B4D5E"/>
<path d="M31.1256 17.4758L25.2468 14.0532V11.7675L31.1256 15.1901V17.4758ZM25.5169 13.8979L30.8555 17.0074V15.3445L25.5169 12.2342V13.8969V13.8979Z" fill="#0B4D5E"/>
<path d="M30.991 15.2673C31.4127 15.5096 31.9332 15.5186 32.355 15.2673V17.2416C31.9332 17.4928 31.4127 17.4838 30.991 17.2416V15.2673Z" fill="#F0F4FF"/>
<path d="M31.6792 17.561C31.4199 17.561 31.1588 17.4937 30.9237 17.3582L30.8555 17.3197V15.0358L31.0574 15.1516C31.4441 15.3732 31.9153 15.3741 32.2859 15.1516L32.4905 15.0304V17.3178L32.425 17.3573C32.197 17.4929 31.9395 17.561 31.6802 17.561H31.6792ZM31.1256 17.1608C31.4746 17.334 31.8821 17.3358 32.2204 17.1617V15.4827C31.874 15.6209 31.48 15.6199 31.1256 15.4809V17.1608Z" fill="#0B4D5E"/>
<path d="M38.4575 11.4982C38.4664 11.6329 38.4036 11.7854 38.26 11.8662V13.8314C38.3946 13.7596 38.4575 13.6162 38.4575 13.4815V11.4982Z" fill="#F0F4FF"/>
<path d="M38.1252 14.0568V11.7881L38.1935 11.7495C38.2823 11.7002 38.3173 11.6141 38.3227 11.5432V11.4991L38.5919 11.4902C38.5937 11.5118 38.5937 11.5324 38.5919 11.5539V13.4824C38.5919 13.6834 38.4887 13.862 38.3236 13.9508L38.1252 14.0568Z" fill="#0B4D5E"/>
<path d="M25.1849 11.6329C25.1759 11.7675 25.2388 11.9201 25.3824 12.0008V13.975C25.2478 13.8943 25.1849 13.7507 25.1849 13.6161V11.6329Z" fill="#0B4D5E"/>
<path d="M25.5169 14.2146L25.3123 14.0908C25.1472 13.9912 25.0493 13.8144 25.0493 13.6161V11.6885C25.0493 11.6679 25.0493 11.6463 25.0493 11.6248L25.3185 11.6338V11.6778C25.3239 11.7487 25.3589 11.8348 25.4469 11.8842L25.516 11.9227L25.5169 14.2146Z" fill="#0B4D5E"/>
<path d="M31.368 3.05389L28.4964 10.6727C28.4425 10.7984 28.4964 10.9419 28.622 11.0137L31.1616 12.4495" fill="#0B4D5E"/>
<path d="M31.0951 12.5671L28.5555 11.1313C28.368 11.0236 28.2917 10.8091 28.3733 10.6197L31.2414 3.00723L31.4936 3.10144L28.6228 10.7203C28.5932 10.7885 28.6228 10.8585 28.6883 10.8971L31.228 12.3329L31.0951 12.5671Z" fill="#0B4D5E"/>
<path d="M31.3589 3.05389L34.8228 10.8432C34.8856 10.9778 34.8228 11.1483 34.6882 11.2111L31.9961 12.4585" fill="#F0F4FF"/>
<path d="M32.0527 12.5814L31.9388 12.3374L34.6309 11.09C34.6982 11.0586 34.7314 10.9679 34.7009 10.9006L31.2361 3.10943L31.4811 3L34.945 10.7894C35.0384 10.9895 34.945 11.2398 34.744 11.334L32.0519 12.5823L32.0527 12.5814Z" fill="#0B4D5E"/>
<path d="M32.0052 12.4585C31.7001 12.5752 31.3411 12.5482 31.1616 12.4405L31.368 3.05389L32.0052 12.4585Z" fill="#0B4D5E"/>
<path d="M31.578 12.6703C31.3931 12.6703 31.219 12.6326 31.0925 12.5572L31.0251 12.5168L31.2325 3.05116L31.5017 3.04491L32.146 12.5491L32.0527 12.585C31.9037 12.6416 31.7368 12.6703 31.578 12.6703ZM31.2988 12.3562C31.4361 12.4056 31.6551 12.4172 31.8642 12.3633L31.4362 6.06013L31.2988 12.3562Z" fill="#0B4D5E"/>
<path d="M15.5649 42.3147L17.3597 41.1929V38.8328L15.5649 39.8647V42.3147Z" fill="#F0F4FF"/>
<path d="M15.4304 42.5579V39.7876L17.4953 38.6012V41.2683L15.4304 42.5579ZM15.7006 39.9428V42.0723L17.2252 41.1193V39.066L15.7006 39.9428Z" fill="#0B4D5E"/>
<path d="M12.5766 40.7531L12.5586 49.8168L30.7756 60.4598L30.7846 51.3783L12.5766 40.7531Z" fill="#0B4D5E"/>
<path d="M30.9093 60.6949L30.7074 60.5765L12.4231 49.8948V49.8177L12.4419 40.5208L12.6439 40.6383L30.9192 51.3019L30.9084 60.6949H30.9093ZM12.6932 49.7405L30.641 60.2265L30.65 51.4563L12.7112 40.9883L12.6932 49.7405Z" fill="#0B4D5E"/>
<path d="M40.2878 47.6361L37.9457 46.2363L32.8305 49.2694C32.4536 49.4848 31.9959 49.4848 31.619 49.2694L15.7263 39.9814L17.3596 39.0302V36.5803L12.5316 39.3712C12.0111 39.6763 12.0021 40.4212 12.5226 40.7263L30.8294 51.4051C31.7268 51.9346 32.8395 51.9346 33.7459 51.4141L34.5266 50.9654L40.2878 47.6361Z" fill="#8AE5CC"/>
<path d="M32.2913 51.9373C31.76 51.9373 31.2305 51.7991 30.7612 51.5218L12.4554 40.8429C12.1718 40.6769 12.0022 40.3825 12.0022 40.0559C12.0022 39.7238 12.1745 39.425 12.4635 39.2554L17.4951 36.3479V39.1083L15.9938 39.9823L31.6874 49.1536C32.0221 49.3457 32.4259 49.3466 32.7642 49.1536L37.9448 46.0809L40.5526 47.6397L33.8124 51.5326C33.3412 51.8036 32.8145 51.9391 32.2904 51.9391L32.2913 51.9373ZM17.225 36.8137L12.599 39.4879C12.3935 39.6081 12.2714 39.8207 12.2714 40.0559C12.2714 40.2856 12.3917 40.4929 12.5909 40.6105L30.8967 51.2894C31.7501 51.792 32.8154 51.7937 33.6787 51.2974L40.0223 47.6344L37.9457 46.3932L32.8997 49.3851C32.4761 49.6265 31.9745 49.6274 31.5527 49.386L15.4589 39.9814L17.225 38.953V36.8137Z" fill="#0B4D5E"/>
<path d="M46.7312 36.1227L46.7492 38.7071L48.2208 39.5596C48.526 39.7391 48.526 40.1698 48.2208 40.3493L42.9622 43.3915L45.3223 44.7466L52.2681 40.7352C52.7796 40.4301 52.7886 39.6853 52.2681 39.3802L46.7312 36.1227Z" fill="#8AE5CC"/>
<path d="M45.3232 44.9026L42.6921 43.3924L48.1536 40.2327C48.2542 40.1734 48.3152 40.0694 48.3152 39.9545C48.3152 39.8397 48.255 39.7355 48.1527 39.6754L46.6155 38.7851L46.5949 35.8866L52.3363 39.2644C52.6181 39.4304 52.7886 39.7238 52.7895 40.0505C52.7913 40.3816 52.6217 40.6813 52.3373 40.8509L45.3232 44.9026ZM43.2314 43.3915L45.3224 44.5922L52.1999 40.6195C52.401 40.5001 52.5203 40.2874 52.5194 40.0532C52.5194 39.8226 52.3983 39.6144 52.1991 39.4977L46.8676 36.3595L46.8838 38.6299L48.2882 39.4438C48.474 39.5533 48.5844 39.7445 48.5844 39.9554C48.5844 40.1663 48.474 40.3574 48.2892 40.466L43.2314 43.3915Z" fill="#0B4D5E"/>
<path d="M45.3223 53.7832L42.9622 52.4281L42.9711 43.3825L45.3223 44.7555V53.7832Z" fill="#0B4D5E"/>
<path d="M45.4578 54.0165L42.8267 52.5062L42.8375 43.1483L45.4578 44.6783V54.0165ZM43.0968 52.3501L45.1877 53.5509V44.8326L43.1058 43.6176L43.0968 52.3501Z" fill="#0B4D5E"/>
<path d="M46.7581 41.2108L48.2297 40.3583C48.5259 40.1878 48.5348 39.7481 48.2297 39.5776L46.7581 38.7071V41.2108Z" fill="#0B4D5E"/>
<path d="M46.6235 41.4441V38.4711L48.298 39.4618C48.4784 39.5623 48.5888 39.749 48.5897 39.9599C48.5915 40.1726 48.4793 40.37 48.2972 40.475L46.6235 41.4441ZM46.8936 38.944V40.9774L48.1625 40.2425C48.2621 40.1851 48.3223 40.0801 48.3214 39.9625C48.3214 39.8485 48.2639 39.7507 48.1643 39.696L46.8936 38.945V38.944Z" fill="#0B4D5E"/>
<path d="M33.7908 60.4688L40.3058 56.6997V47.6451L33.7998 51.3962L33.7908 60.4688Z" fill="#F0F4FF"/>
<path d="M33.6562 60.703L33.6652 51.3181L33.7325 51.2796L40.4414 47.4118V56.7769L33.6562 60.703ZM33.9344 51.4742L33.9255 60.2355L40.1704 56.6226V47.8784L33.9344 51.4742Z" fill="#0B4D5E"/>
<path d="M52.2322 40.7531L45.3223 44.7466V53.7742L52.2322 49.7899V40.7531Z" fill="#F0F4FF"/>
<path d="M45.1877 54.0076V44.6693L52.3669 40.5199V49.867L45.1877 54.0076ZM45.4578 44.8247V53.5409L52.0967 49.7118V40.9856L45.4578 44.8237V44.8247Z" fill="#0B4D5E"/>
<path d="M30.7756 51.3872C31.7089 51.9347 32.8576 51.9347 33.7999 51.3962V60.4598C32.8576 61.0072 31.7089 60.9983 30.7756 60.4598V51.3872Z" fill="#F0F4FF"/>
<path d="M32.2905 61C31.744 61 31.1965 60.8592 30.7075 60.5774L30.6401 60.5388V51.1539L30.8439 51.2723C31.7278 51.7901 32.8352 51.7946 33.7335 51.2804L33.9354 51.1655V60.5388L33.8681 60.5774C33.3826 60.8592 32.837 61 32.2905 61ZM30.9103 60.3817C31.7682 60.8466 32.8119 60.8475 33.6644 60.3817V51.6196C32.7903 52.0387 31.77 52.0351 30.9103 51.6133V60.3817Z" fill="#0B4D5E"/>
<path d="M52.6632 39.9366C52.6811 40.2417 52.5375 40.5736 52.2324 40.7531V49.8078C52.5286 49.6373 52.6721 49.3322 52.6632 49.0271V39.9366Z" fill="#F0F4FF"/>
<path d="M52.0968 50.0412V40.6769L52.1632 40.6383C52.3749 40.5136 52.5131 40.2829 52.5275 40.0353V39.9383L52.7967 39.9302C52.7994 39.9679 52.7994 40.0047 52.7967 40.0424V49.0289C52.8075 49.4031 52.6209 49.7396 52.2978 49.9263L52.095 50.042L52.0968 50.0412ZM52.3669 40.8267V49.5206C52.4755 49.3869 52.5347 49.2165 52.5284 49.0316V40.6841C52.48 40.737 52.4261 40.7854 52.3669 40.8267Z" fill="#0B4D5E"/>
<path d="M12.137 39.9366C12.119 40.2506 12.2626 40.5826 12.5677 40.7621V49.8168C12.2716 49.6463 12.128 49.3412 12.137 49.0361V39.9366Z" fill="#0B4D5E"/>
<path d="M12.7031 50.0501L12.5003 49.9344C12.1781 49.7486 11.9915 49.4112 12.0013 49.0334V40.0479C11.9996 40.0093 11.9996 39.9697 12.0013 39.9302L12.2706 39.9374V40.0398C12.2858 40.2937 12.4204 40.5208 12.6349 40.6464L12.7013 40.685V50.0501H12.7031ZM12.2714 40.6948V49.037C12.2651 49.2236 12.3244 49.3959 12.433 49.5305V40.8366C12.3747 40.7953 12.3199 40.7478 12.2714 40.6948Z" fill="#0B4D5E"/>
</svg>
