<svg width="64" height="64" viewBox="0 0 64 64" fill="none" xmlns="http://www.w3.org/2000/svg">
<path d="M31.3518 20.6699L7.38354 35.5993L28.5012 47.8585L53.2724 33.1818L31.3518 20.6699Z" fill="#F0F4FF"/>
<path d="M28.5022 48.0156L28.4337 47.9758L7.12109 35.6038L31.3492 20.5129L31.4186 20.5526L53.5413 33.1799L53.3401 33.2981L28.5013 48.0156H28.5022ZM7.64613 35.5957L28.5004 47.7016L53.0027 33.1835L31.3546 20.8268L7.64613 35.5957Z" fill="#0B4D5E"/>
<path d="M29.9266 28.5811L28.4923 29.411L26.9316 28.4999L28.366 27.67L29.9266 28.5811Z" fill="#F0F4FF"/>
<path d="M28.4922 29.5679L26.6619 28.4999L28.3659 27.5139L30.1962 28.5821L28.4922 29.5679ZM27.2013 28.5008L28.4931 29.255L29.6577 28.5802L28.3659 27.8261L27.2013 28.5008Z" fill="#0B4D5E"/>
<path d="M50.2683 14.5177V33.0915L51.8289 34.0116V15.4288L50.2683 14.5177Z" fill="#0B4D5E"/>
<path d="M51.9652 34.2489L50.1331 33.1691V14.2822L51.9652 15.3521V34.2489ZM50.4037 33.0148L51.6936 33.7753V15.5073L50.4037 14.754V33.0148Z" fill="#0B4D5E"/>
<path d="M53.2635 14.5988L51.8292 15.4288L50.2686 14.5177L51.7029 13.6967L53.2635 14.5988Z" fill="#F0F4FF"/>
<path d="M51.8291 15.5857L49.9978 14.5168L51.7036 13.5407L53.5339 14.5988L51.8291 15.5857ZM50.539 14.5194L51.8299 15.2727L52.9936 14.5988L51.7036 13.8529L50.539 14.5194Z" fill="#0B4D5E"/>
<path d="M9.50337 21.3915L8.06909 22.2215V36.1676L9.50337 35.3287V21.3915Z" fill="#8AE5CC"/>
<path d="M7.93286 36.4039V22.1439L9.63957 21.157V35.4063L7.93286 36.4039ZM8.20436 22.2999V35.9322L9.36808 35.2511V21.6261L8.20436 22.2999Z" fill="#0B4D5E"/>
<path d="M30.3415 3.368L7.28433 17.0436C6.89643 17.2691 6.89643 17.8284 7.28433 18.0539L28.1946 30.268C28.384 30.3763 28.6095 30.3763 28.7989 30.268L52.4154 16.2678C52.7943 16.0333 52.7943 15.474 52.4064 15.2484L32.0464 3.35897C31.5232 3.05227 30.8737 3.0613 30.3415 3.368Z" fill="#F0F4FF"/>
<path d="M28.4957 30.4854C28.3685 30.4854 28.2431 30.4521 28.1277 30.3862L7.21655 18.1711C6.99194 18.0412 6.8584 17.8084 6.8584 17.5495C6.8584 17.2906 6.99194 17.0579 7.21655 16.9271L30.2737 3.25154C30.852 2.91958 31.5565 2.91596 32.1149 3.24251L52.4739 15.132C52.695 15.261 52.8303 15.491 52.833 15.7481C52.8366 16.0088 52.7067 16.246 52.4857 16.3831L28.8665 30.3843C28.7501 30.4511 28.622 30.4844 28.4949 30.4844L28.4957 30.4854ZM30.4091 3.48521L7.35277 17.1608C7.21205 17.2429 7.12813 17.388 7.12813 17.5495C7.12813 17.711 7.21201 17.8554 7.35183 17.9374L28.2621 30.1525C28.4083 30.2355 28.5833 30.2373 28.7321 30.1525L52.3468 16.1531C52.483 16.0683 52.5651 15.9186 52.5632 15.7535C52.5605 15.592 52.4767 15.4477 52.3387 15.3674L31.9787 3.47706C31.5033 3.19922 30.9034 3.20374 30.41 3.48609L30.4091 3.48521Z" fill="#0B4D5E"/>
<path d="M53.2723 15.7716L28.4922 30.4484V34.2823L53.2723 19.5512V15.7716Z" fill="#8AE5CC"/>
<path d="M28.3569 34.5204V30.3717L28.4237 30.3329L53.4077 15.5353V19.6298L53.341 19.6685L28.3569 34.5214V34.5204ZM28.6284 30.526V34.045L53.1371 19.4746V16.0098L28.6284 30.526Z" fill="#0B4D5E"/>
<path d="M52.7674 11.2703C52.7674 11.2703 50.6475 9.93514 50.5934 9.88102C50.2055 9.56529 49.5019 9.88102 49.5019 9.88102L27.5903 22.8981L29.5749 24.4135L51.7571 11.2341L52.7674 11.2703Z" fill="#F0F4FF"/>
<path d="M29.5658 24.5768L27.3494 22.8845L27.5216 22.7825L49.4332 9.76557C49.4783 9.74392 50.2325 9.4128 50.679 9.77724C50.7656 9.8458 52.0177 10.6397 52.8404 11.1566L53.2653 11.4245L51.793 11.3712L29.5658 24.5768ZM27.832 22.9125L29.5847 24.2512L51.7218 11.0979L52.2702 11.1168C51.1309 10.3988 50.5346 10.0145 50.4967 9.97567C50.2442 9.7709 49.7318 9.92606 49.5568 10.0036L27.8311 22.9116L27.832 22.9125Z" fill="#0B4D5E"/>
<path d="M53.2814 15.7445V12.1542C53.2904 11.9738 53.2362 11.7934 53.146 11.631C53.0558 11.4777 52.9205 11.3333 52.7672 11.2521C52.6048 11.1619 52.4243 11.1078 52.2349 11.1078C52.0545 11.1078 51.8741 11.1619 51.7208 11.2612L29.8182 24.2782C29.4213 24.5128 29.0966 24.8375 28.862 25.2344C28.6365 25.6313 28.5102 26.0913 28.5102 26.5424V28.094L28.5012 28.103V47.8406L28.4922 47.8495V60.5509C28.4922 60.7403 28.6996 60.8576 28.862 60.7583L52.704 46.5776C53.0558 46.3702 53.2723 45.9913 53.2723 45.5763V33.1727V15.7535L53.2814 15.7445ZM51.4591 34.2462L30.5399 46.6317C30.2692 46.7941 29.9355 46.5956 29.9355 46.2889V29.6275L51.838 16.6015V33.5877C51.838 33.8583 51.6937 34.1018 51.4591 34.2462Z" fill="#8AE5CC"/>
<path d="M28.7367 60.9307C28.6736 60.9307 28.6095 60.9144 28.5509 60.881C28.43 60.8134 28.3569 60.6898 28.3569 60.5509L28.375 26.5424C28.375 26.0751 28.5067 25.5872 28.7448 25.1677C28.9929 24.7482 29.3303 24.4099 29.7498 24.1619L51.6523 11.1448C51.9914 10.9247 52.4479 10.9193 52.8331 11.1331C52.9982 11.2206 53.1552 11.3775 53.2643 11.5625C53.3744 11.7618 53.4276 11.9675 53.4177 12.1605V15.8022L53.4086 15.8112V45.5764C53.4086 46.0355 53.1642 46.4631 52.7736 46.6941L28.9325 60.8748C28.872 60.9117 28.8044 60.9307 28.7367 60.9307ZM28.6284 47.9046V60.5518C28.6284 60.6086 28.6663 60.6366 28.6835 60.6456C28.7006 60.6555 28.7421 60.6736 28.7926 60.6438L52.6355 46.4622C52.9459 46.2799 53.138 45.9408 53.138 45.5773L53.1479 12.1551C53.1551 12.0063 53.1146 11.8512 53.0298 11.6978C52.9486 11.5598 52.8268 11.4371 52.7059 11.3722C52.4019 11.2035 52.0618 11.2034 51.7957 11.3757L29.8887 24.3954C29.5098 24.62 29.204 24.9259 28.9803 25.3039C28.7665 25.6819 28.6474 26.123 28.6474 26.5434L28.6294 47.9046H28.6284ZM30.3334 46.8258C30.2441 46.8258 30.1548 46.8023 30.0727 46.7563C29.9022 46.6598 29.7994 46.4847 29.7994 46.289V29.55L29.8652 29.5112L51.9734 16.3634V33.5877C51.9734 33.9016 51.8074 34.1903 51.5305 34.3608H51.5278L30.6085 46.7473C30.5228 46.7987 30.429 46.8248 30.3334 46.8248V46.8258ZM30.0709 29.7052V46.2899C30.0709 46.3865 30.1214 46.473 30.2053 46.5209C30.2901 46.5687 30.3866 46.5669 30.4696 46.5163L51.3888 34.1308C51.5846 34.009 51.7019 33.8069 51.7019 33.5877V16.8396L30.0709 29.7052Z" fill="#0B4D5E"/>
<path d="M28.1584 34.5529C28.3659 34.6701 28.6186 34.6701 28.826 34.5529V60.7764C28.6186 60.8937 28.3659 60.8937 28.1584 60.7764V34.5529Z" fill="#8AE5CC"/>
<path d="M28.4923 60.9992C28.3534 60.9992 28.2144 60.964 28.0917 60.8946L28.0232 60.8558V34.3211L28.2261 34.4356C28.3912 34.5294 28.5906 34.5303 28.7611 34.4356L28.9632 34.3219V60.8567L28.8937 60.8955C28.7701 60.9649 28.6321 61.0001 28.4941 61.0001L28.4923 60.9992ZM28.2938 60.6916C28.421 60.743 28.5617 60.7439 28.6898 60.6916V34.7514C28.5581 34.7839 28.4201 34.7839 28.2938 34.7514V60.6916Z" fill="#0B4D5E"/>
<path d="M38.1173 37.2141L41.1934 35.3557L34.6894 26.6958L31.5952 28.527L38.1173 37.2141Z" fill="#F0F4FF"/>
<path d="M38.0831 37.3935L38.0091 37.2952L31.396 28.4873L34.7247 26.5172L41.392 35.3936L38.0831 37.3935ZM31.7938 28.5675L38.1516 37.0354L40.995 35.3178L34.6543 26.8744L31.7938 28.5675Z" fill="#0B4D5E"/>
<path d="M28.4922 30.3583L34.4188 38.2605L28.4922 34.6431V30.3583Z" fill="#0B4D5E"/>
<path d="M34.3484 38.3759L28.356 34.7189V29.9523L34.527 38.1792L34.3484 38.3759ZM28.6283 34.5673L33.8884 37.7779L28.6283 30.765V34.5683V34.5673Z" fill="#0B4D5E"/>
<path d="M44.2877 33.5065L47.3729 31.6482L40.8959 23.0423L37.8018 24.8736L44.2877 33.5065Z" fill="#F0F4FF"/>
<path d="M44.2525 33.686L37.6033 24.8348L40.931 22.8656L41.0041 22.962L47.5704 31.6879L44.2516 33.6869L44.2525 33.686ZM38.0011 24.9133L44.3229 33.3279L47.1743 31.6103L40.8607 23.221L38.0011 24.9133Z" fill="#0B4D5E"/>
<path d="M50.4667 29.799L53.5428 27.9587L47.111 19.3889L44.0078 21.2202L50.4667 29.799Z" fill="#F0F4FF"/>
<path d="M50.4308 29.9776L43.8086 21.1813L47.1454 19.2112L47.2185 19.3078L53.7396 27.9975L50.4308 29.9776ZM44.2073 21.2607L50.5021 29.6212L53.3445 27.9208L47.0759 19.5675L44.2073 21.2607Z" fill="#0B4D5E"/>
<path d="M56.6369 26.0913L59.0726 24.63C59.4063 24.4225 59.4966 23.9805 59.262 23.6648L53.2993 15.7445L50.2141 17.5577L56.6369 26.0913Z" fill="#F0F4FF"/>
<path d="M56.6019 26.2709L50.0149 17.5189L53.3345 15.5668L53.4077 15.6633L59.3695 23.5836C59.5039 23.7658 59.5553 23.9868 59.5138 24.2069C59.4723 24.4279 59.3379 24.6237 59.1439 24.7446L56.6019 26.2699V26.2709ZM50.4136 17.5974L56.6723 25.9127L59.0033 24.5146C59.1305 24.4352 59.2207 24.3044 59.2477 24.1573C59.2748 24.0121 59.2414 23.8659 59.153 23.7459L53.2642 15.9231L50.4136 17.5974Z" fill="#0B4D5E"/>
<path d="M31.5863 28.527L28.4922 30.3583L34.4188 38.2605C34.7616 38.7206 35.4021 38.8378 35.8982 38.5401L38.1083 37.2141L31.5863 28.527Z" fill="#8AE5CC"/>
<path d="M35.3083 38.8405C34.9258 38.8405 34.5533 38.6664 34.3115 38.3408L28.2937 30.3185L31.6215 28.3484L38.3068 37.2528L35.9677 38.6556C35.7611 38.7801 35.5329 38.8405 35.3083 38.8405ZM28.6915 30.3979L34.528 38.1792C34.8293 38.5843 35.3877 38.6889 35.8288 38.4237L37.9108 37.1753L31.5511 28.7056L28.6915 30.3979Z" fill="#0B4D5E"/>
<path d="M41.2025 35.3648L44.2876 33.5065L37.8016 24.8736L34.6985 26.7048L41.2025 35.3648Z" fill="#8AE5CC"/>
<path d="M41.1674 35.5442L41.0944 35.4469L34.4993 26.6669L37.8369 24.6968L37.91 24.7933L44.4853 33.547L41.1665 35.5452L41.1674 35.5442ZM34.8979 26.7454L41.2378 35.1861L44.0893 33.4686L37.7666 25.0522L34.8979 26.7454Z" fill="#0B4D5E"/>
<path d="M47.3725 31.6482L50.4576 29.799L43.9987 21.2202L40.9045 23.0423L47.3725 31.6482Z" fill="#8AE5CC"/>
<path d="M47.3375 31.8277L40.7053 23.0035L44.0331 21.0433L44.1062 21.1399L50.6553 29.8386L47.3365 31.8287L47.3375 31.8277ZM41.1041 23.0829L47.4078 31.4705L50.2593 29.7611L43.9636 21.3988L41.1041 23.0829Z" fill="#0B4D5E"/>
<path d="M47.1113 19.3889L53.5522 27.9406L56.6373 26.1004L50.2145 17.5577L47.1113 19.3889Z" fill="#8AE5CC"/>
<path d="M53.5169 28.1192L46.9119 19.3492L50.2496 17.3799L50.3226 17.4765L56.8366 26.1401L53.5169 28.1192ZM47.3106 19.4286L53.5882 27.762L56.4388 26.0607L50.1801 17.7354L47.3106 19.4286Z" fill="#0B4D5E"/>
<path d="M29.9536 33.5967L28.4922 34.3996V30.4665H28.5102V26.5965C28.5012 26.1726 28.5914 25.7576 28.7808 25.3878C28.9702 25.0089 29.2409 24.6841 29.5746 24.4315L27.5901 22.9251C26.3633 23.5115 26.2099 24.9548 26.2099 24.9548V29.1134L7.32935 18.0808V48.5803L28.1313 60.7674C28.2937 60.8576 28.4922 60.7494 28.4922 60.5689V50.8896V36.7901L29.9355 36.0323L29.9536 33.5967ZM26.9315 46.307C26.9315 46.5866 26.6249 46.767 26.3813 46.6227L8.42986 36.1676C8.31259 36.1045 8.24046 35.9872 8.24046 35.8519V22.4741L26.9315 33.3622V46.307Z" fill="#0B4D5E"/>
<path d="M28.2549 60.9361C28.19 60.9361 28.125 60.9189 28.0655 60.8864L7.19312 48.6588V17.8464L26.0737 28.8788V24.9557C26.0818 24.8799 26.2505 23.4158 27.5315 22.8042L27.6054 22.7681L29.7984 24.4334L29.6567 24.5407C29.3365 24.7833 29.0821 25.0883 28.9017 25.4491C28.7258 25.7928 28.6365 26.1879 28.6455 26.5948V30.6027H28.6274V34.1722L30.0906 33.3684L30.0699 36.1153L28.6274 36.873V60.5707C28.6274 60.7006 28.5598 60.8179 28.448 60.8847C28.3884 60.9198 28.3217 60.9378 28.2549 60.9378V60.9361ZM7.46555 48.5036L28.1999 60.651C28.2332 60.6699 28.2756 60.67 28.3108 60.6501C28.3279 60.6402 28.3568 60.6158 28.3568 60.5698V36.7088L29.8011 35.9511L29.8173 33.8267L28.3577 34.6287V30.3321H28.3758V26.5974C28.3668 26.1491 28.466 25.7089 28.6618 25.3265C28.8331 24.9828 29.0668 24.6832 29.3573 24.4352L27.5765 23.0838C26.5013 23.6521 26.347 24.9557 26.3461 24.9692V29.3488L7.46643 18.3164V48.5026L7.46555 48.5036ZM26.5653 46.8095C26.4778 46.8095 26.3912 46.786 26.3127 46.7391L8.36223 36.2849C8.20256 36.1992 8.10511 36.0368 8.10511 35.8528V22.2395L27.0677 33.2855V46.3089C27.0677 46.4911 26.973 46.6534 26.8134 46.7445C26.7358 46.7887 26.6501 46.8112 26.5671 46.8112L26.5653 46.8095ZM8.37572 22.7095V35.8519C8.37572 35.9367 8.41816 36.008 8.49393 36.0486L26.4489 46.5064C26.5211 46.5488 26.6041 46.5506 26.678 46.5082C26.7511 46.4667 26.7953 46.3918 26.7953 46.3079V33.4407L8.37572 22.7095Z" fill="#0B4D5E"/>
<path d="M6.99546 17.4494C6.97742 17.684 7.09469 17.9365 7.32923 18.0808V48.5712C7.10371 48.4359 6.98644 48.2013 6.99546 47.9668V17.4494Z" fill="#0B4D5E"/>
<path d="M7.46554 48.8103L7.25984 48.6876C7.00275 48.5334 6.84943 48.2555 6.86116 47.9623V17.5478C6.85845 17.5117 6.85845 17.4765 6.86116 17.4404L7.13177 17.4503V17.5387C7.14621 17.7083 7.24635 17.8707 7.40151 17.9672L7.46554 18.007V48.8103ZM7.13084 18.1008V47.9678C7.12633 48.0652 7.14981 48.159 7.19311 48.242V18.154C7.17146 18.1368 7.14978 18.1188 7.13084 18.1008Z" fill="#0B4D5E"/>
</svg>
