<svg width="64" height="64" viewBox="0 0 64 64" fill="none" xmlns="http://www.w3.org/2000/svg">
<path d="M24.5214 57.0976C33.5799 57.0976 40.9205 55.679 40.9205 53.9272C40.9205 52.1754 33.5799 50.7576 24.5214 50.7576C15.4629 50.7576 8.12231 52.1754 8.12231 53.9272C8.12231 55.679 15.4629 57.0976 24.5214 57.0976Z" fill="#0B4D5E"/>
<path d="M24.5209 57.2183C16.4009 57.2183 8 55.9869 8 53.9269C8 51.8668 16.4001 50.6362 24.5209 50.6362C32.6418 50.6362 41.0427 51.8668 41.0427 53.9269C41.0427 55.9869 32.6426 57.2183 24.5209 57.2183ZM24.5209 50.8783C14.7838 50.8783 8.2429 52.455 8.2429 53.9269C8.2429 55.3987 14.783 56.9762 24.5209 56.9762C34.2589 56.9762 40.7998 55.3995 40.7998 53.9269C40.7998 52.4542 34.2589 50.8783 24.5209 50.8783Z" fill="#0B4D5E"/>
<path d="M24.5629 7.27571L26.4035 10.4066C26.2752 10.1839 25.7587 10.2008 24.93 10.4784C24.8413 10.5066 24.7574 10.5397 24.6629 10.5792C23.0612 11.1909 21.1036 12.4586 20.2862 13.4035C19.9747 13.7706 19.8747 14.0377 19.9691 14.1935L18.1228 11.0626C18.034 10.9069 18.1341 10.6398 18.4456 10.2726C19.2574 9.32206 21.2206 8.05438 22.8223 7.44838C22.9111 7.41449 22.9999 7.38141 23.0894 7.34752C23.9125 7.06429 24.4297 7.053 24.5629 7.27571Z" fill="#8AE5CC"/>
<path d="M19.8666 14.2562L19.8618 14.2481L18.0195 11.1237C17.8977 10.9107 18.0099 10.5984 18.3536 10.1941C19.1775 9.22983 21.1625 7.94685 22.7796 7.3352L23.0459 7.23434C23.6664 7.02131 24.4459 6.8454 24.667 7.21336L26.5051 10.341C26.5068 10.3426 26.5076 10.3442 26.5084 10.3458L26.2994 10.4676L26.297 10.4644C26.2219 10.3426 25.833 10.3031 24.9688 10.5927C24.8816 10.621 24.8009 10.6525 24.7098 10.6912C23.1298 11.294 21.1892 12.5455 20.3782 13.4823C20.0086 13.9189 20.0482 14.0843 20.0716 14.1279L20.074 14.1319L19.8666 14.2562ZM24.1417 7.24241C23.9319 7.24241 23.6083 7.29726 23.129 7.46187L22.8659 7.56195C21.2803 8.1623 19.3389 9.41301 18.5384 10.3515C18.2382 10.7049 18.1818 10.9203 18.2286 11.0034L19.8779 13.7987C19.9384 13.6599 20.0441 13.5025 20.195 13.3258C21.0277 12.3631 23.0128 11.0801 24.6202 10.4669C24.7146 10.4273 24.8017 10.3934 24.8937 10.3636C25.4222 10.1869 25.8298 10.1134 26.1049 10.1368L24.4596 7.33762C24.4298 7.28839 24.3345 7.24241 24.1417 7.24241Z" fill="#0B4D5E"/>
<path d="M21.4439 14.1221C20.0479 14.6006 19.525 14.3061 20.2924 13.4104C21.1041 12.4598 23.0674 11.1921 24.6691 10.5853C24.7579 10.5522 24.8467 10.5192 24.9362 10.4853C26.3322 10.0076 26.8551 10.3021 26.082 11.197C25.2703 12.1484 23.307 13.416 21.7109 14.022C21.6222 14.0559 21.527 14.089 21.4439 14.1221Z" fill="#0B4D5E"/>
<path d="M20.3848 14.4703C20.1588 14.4703 19.9732 14.417 19.878 14.2766C19.7352 14.066 19.8441 13.7481 20.2008 13.3317C21.0247 12.3674 23.0097 11.0844 24.6267 10.4728L24.8923 10.3727C25.5015 10.1645 26.2697 9.99022 26.5004 10.3315C26.6433 10.5422 26.5327 10.8601 26.1728 11.2765C25.3506 12.2399 23.368 13.523 21.7533 14.1354L21.6403 14.1774C21.5879 14.1968 21.5355 14.2161 21.4879 14.2355L21.4822 14.2371C21.1255 14.3589 20.7108 14.4703 20.3839 14.4703H20.3848ZM25.9945 10.38C25.7847 10.38 25.4595 10.4341 24.9753 10.5995L24.7123 10.6987C23.1275 11.2991 21.1868 12.5506 20.3856 13.4891C20.0773 13.8489 20.0249 14.0612 20.0789 14.141C20.1451 14.2379 20.4977 14.3186 21.4023 14.0087C21.4523 13.9893 21.5048 13.9692 21.558 13.9498L21.6678 13.9087C23.2509 13.3075 25.19 12.056 25.9897 11.1183C26.3011 10.7584 26.3544 10.5454 26.3011 10.4663C26.2705 10.4212 26.1777 10.38 25.9945 10.38Z" fill="#0B4D5E"/>
<path d="M25.4632 11.0151L28.1608 15.4508C28.0736 15.3104 27.7339 15.3176 27.1917 15.5C27.1409 15.521 27.0835 15.5419 27.0182 15.5629C25.9764 15.9486 24.6967 16.7539 24.169 17.3494C23.9592 17.581 23.8938 17.7489 23.9519 17.8473L21.2544 13.4117C21.1963 13.314 21.2616 13.1454 21.4714 12.9146C21.9991 12.3191 23.2797 11.513 24.3279 11.1273C24.386 11.1063 24.4433 11.0853 24.5014 11.0643C25.0364 10.8892 25.3761 10.8755 25.4632 11.0151Z" fill="#8AE5CC"/>
<path d="M23.8487 17.9101L21.1511 13.4744C21.0583 13.3195 21.135 13.104 21.3811 12.8329C21.9258 12.2189 23.229 11.4022 24.286 11.0133L24.4603 10.9504C25.0809 10.747 25.4408 10.7486 25.5667 10.9504L28.2642 15.386L28.0576 15.5135C28.035 15.4756 27.8325 15.4119 27.2305 15.6144C27.1845 15.6338 27.124 15.6555 27.0554 15.6781C26.0363 16.0558 24.7807 16.8417 24.2595 17.43C24.0545 17.6559 24.0432 17.764 24.0569 17.7858L23.8487 17.9101ZM25.2003 11.0407C25.0752 11.0407 24.8671 11.0722 24.5394 11.1787L24.3692 11.2401C23.3444 11.6169 22.0856 12.4037 21.5619 12.9943C21.3569 13.2194 21.3456 13.3284 21.3585 13.3485L23.8923 17.5155C23.9367 17.4388 23.9988 17.3557 24.0787 17.2677C24.621 16.6561 25.9209 15.8395 26.9763 15.449C27.0433 15.4272 27.0974 15.4078 27.145 15.3877C27.4532 15.2844 27.7002 15.2327 27.8866 15.2319L25.3601 11.0779C25.3496 11.0617 25.3036 11.0407 25.2003 11.0407Z" fill="#0B4D5E"/>
<path d="M47.4276 50.545C55.7139 45.4453 57.3874 33.1115 51.1588 22.9959C44.9358 12.8747 33.1741 8.80937 24.8886 13.9035C16.5975 19.0024 14.9287 31.3371 21.1517 41.4527C27.3804 51.5739 39.1421 55.6391 47.4276 50.545Z" fill="#F0F4FF"/>
<path d="M39.5051 52.8555C32.7027 52.8555 25.4711 48.7031 21.0483 41.5167C18.024 36.6001 16.7491 31.0113 17.4584 25.7817C18.1685 20.5415 20.7845 16.2866 24.8264 13.8013C33.157 8.67975 45.0172 12.7757 51.2628 22.9332C54.2896 27.849 55.5661 33.4369 54.8568 38.6682C54.1467 43.9075 51.5307 48.1625 47.492 50.6486C45.0559 52.1463 42.318 52.8555 39.5067 52.8555H39.5051ZM32.8149 11.834C30.0456 11.834 27.3512 12.532 24.9522 14.0071C20.9741 16.4528 18.3984 20.6464 17.698 25.8131C16.9968 30.9879 18.2597 36.5202 21.255 41.3891C27.4352 51.4329 39.1477 55.4941 47.3645 50.442C51.3411 47.9946 53.9159 43.8019 54.6155 38.6351C55.3176 33.4587 54.0531 27.9272 51.0554 23.0591C46.6827 15.9469 39.5334 11.834 32.8149 11.834Z" fill="#0B4D5E"/>
<path d="M45.4806 47.3797C52.337 43.1652 53.7217 32.9552 48.5727 24.5858C43.423 16.2164 33.6915 12.8459 26.835 17.0669C19.973 21.2879 18.594 31.4922 23.7429 39.8616C28.8927 48.231 38.6242 51.6008 45.4806 47.3797Z" fill="#F0F4FF"/>
<path d="M38.9134 49.3259C37.2891 49.3259 35.6123 49.0378 33.9323 48.456C29.8008 47.0269 26.1455 43.997 23.64 39.9244C21.1345 35.8519 20.0774 31.2234 20.664 26.8918C21.2523 22.5497 23.4213 19.0243 26.7708 16.9635C30.118 14.9034 34.2413 14.558 38.3833 15.9903C42.5147 17.4193 46.1693 20.4501 48.6756 24.5219C51.1803 28.5936 52.2365 33.2229 51.6491 37.5569C51.0608 41.8998 48.8926 45.4244 45.5447 47.4829C43.5556 48.707 41.2914 49.3259 38.9134 49.3259ZM33.4029 15.3625C31.0685 15.3625 28.8478 15.9693 26.8983 17.17C23.6117 19.1914 21.4823 22.6555 20.9045 26.9249C20.3243 31.2016 21.3693 35.7736 23.8465 39.7985C26.3222 43.8235 29.9323 46.8172 34.0113 48.2277C38.0847 49.6366 42.1338 49.2985 45.418 47.2763C48.7022 45.2574 50.83 41.7941 51.4094 37.5246C51.9896 33.2463 50.9454 28.6735 48.469 24.6494C45.9933 20.6244 42.3824 17.6308 38.3034 16.2195C36.65 15.6474 34.999 15.3625 33.4021 15.3625H33.4029Z" fill="#0B4D5E"/>
<path d="M25.7937 27.4825L23.4456 26.8935C24.1807 23.9652 25.8978 21.5444 28.2806 20.079C31.2106 18.2772 34.9329 18.0432 38.4906 19.4375L37.6079 21.6912C34.7199 20.5607 31.8586 20.7197 29.5491 22.1407C27.6811 23.2898 26.382 25.1368 25.7937 27.4834V27.4825Z" fill="#F7CC69"/>
<path fill-rule="evenodd" clip-rule="evenodd" d="M25.5259 38.9146C23.7393 36.0089 22.913 32.8086 23.0066 29.806L25.5065 29.8843C25.4282 32.3793 26.1165 35.0994 27.6562 37.6041C29.228 40.1605 31.3987 42.0236 33.7097 43.0678L32.6801 45.3474C29.8954 44.0886 27.3487 41.8784 25.5259 38.9146Z" fill="#8AE5CC"/>
<path d="M48.5503 37.5119L46.1771 37.0383C46.7976 33.9308 46.0891 30.4191 44.234 27.4044C43.0236 25.4355 41.4025 23.7934 39.5442 22.6565L40.8079 20.5916C42.9898 21.927 44.8877 23.8442 46.2966 26.1359C48.4672 29.6654 49.2886 33.8122 48.5503 37.5119Z" fill="#F35F5F"/>
<path d="M48.7836 24.9281C43.7896 16.4643 34.0912 12.8662 27.1178 16.8871C26.7176 17.1211 26.3391 17.3712 25.9719 17.6383C25.9889 17.6327 26.0051 17.6158 26.0163 17.6045C32.9898 13.5787 42.6938 17.1768 47.6822 25.6454C52.3922 33.6259 51.2302 43.0798 45.2412 47.5114C52.1759 43.4687 53.7607 33.3701 48.778 24.9233H48.7836V24.9281Z" fill="#0B4D5E"/>
<path d="M45.3018 47.6158L45.1695 47.4141C51.2085 42.9446 52.2446 33.6125 47.5781 25.7071C42.6341 17.3143 33.0003 13.7251 26.0914 17.7016L26.089 17.7032C26.068 17.7226 26.043 17.7411 26.0123 17.7524L25.9001 17.541C25.9171 17.5281 25.9357 17.5152 25.9526 17.5023L25.955 17.4998L25.9591 17.4974C26.3254 17.2336 26.6845 16.9996 27.0549 16.7825C34.059 12.7447 43.8195 16.3435 48.8482 24.8017H48.8983L48.9023 24.8969C51.616 29.5173 52.4802 34.8221 51.2714 39.457C50.3443 43.0139 48.2245 45.9116 45.3018 47.615V47.6158ZM32.2942 15.8392C38.0564 15.8392 44.1664 19.4381 47.7863 25.5844C52.0315 32.7773 51.6087 41.1419 47.0383 46.0657C48.9458 44.3849 50.337 42.0836 51.0374 39.3973C52.2325 34.8116 51.3707 29.5585 48.6731 24.9849L48.565 24.8025H48.5666C43.7816 16.872 34.7803 13.3264 28.0038 16.5573C29.3796 16.0724 30.8256 15.8384 32.2934 15.8384L32.2942 15.8392Z" fill="#0B4D5E"/>
<path d="M47.4384 50.5355L42.2725 53.7164C42.1499 53.7891 42.0336 53.856 41.9166 53.9278C33.4859 58.7936 21.7637 54.4394 15.7296 44.2133C9.78497 34.1251 11.5868 22.0859 19.7109 17.0862L24.8768 13.9053C16.7519 18.905 14.9501 30.9443 20.8955 41.0324C26.8458 51.1198 38.6519 55.6127 47.0826 50.7469C47.1996 50.6751 47.3158 50.6082 47.4384 50.5355Z" fill="#8AE5CC"/>
<path d="M34.3335 56.034C27.3795 56.034 19.9993 51.6911 15.6242 44.2755C12.7378 39.3775 11.5662 33.8549 12.3231 28.7245C13.0808 23.5933 15.6815 19.4231 19.6467 16.9838L24.8054 13.8077C24.8054 13.8077 24.8102 13.8053 24.8126 13.8029L24.9402 14.0095C21.0379 16.4109 18.4767 20.5197 17.7295 25.5791C16.9798 30.6555 18.141 36.1216 20.9991 40.972C26.9905 51.1279 38.6635 55.4683 47.0216 50.6429C47.0982 50.5953 47.1773 50.5493 47.2588 50.5017L47.3766 50.4331L47.5017 50.6405L42.2156 53.8916C42.1357 53.9384 42.0574 53.9844 41.9791 54.032C39.6245 55.3909 37.0109 56.0348 34.3335 56.0348V56.034ZM22.6694 15.407L19.7742 17.1895C15.8711 19.5909 13.3099 23.6998 12.5627 28.7592C11.8131 33.8355 12.9743 39.3016 15.8324 44.152C21.8246 54.308 33.5008 58.6444 41.8548 53.823C41.9315 53.7754 42.0106 53.7294 42.0921 53.6818L42.2099 53.6132L45.1164 51.8235C36.8673 55.027 26.3781 50.5663 20.7909 41.0946C17.9046 36.1974 16.7329 30.674 17.4898 25.5436C18.1015 21.4049 19.9114 17.8924 22.6694 15.407Z" fill="#0B4D5E"/>
<path d="M47.0479 30.0289L38.7067 33.6431C39.6912 33.6819 37.3334 31.0602 37.8724 31.9776C38.5841 33.184 38.1895 34.5138 36.9993 34.9415C35.8091 35.37 35.7873 35.7032 35.0756 34.4912C34.5366 33.5737 36.7104 31.4741 37.3164 30.8625L46.8591 30.0289H47.0479Z" fill="#0B4D5E"/>
<path d="M35.873 35.4495C35.5639 35.4495 35.3565 35.209 34.9716 34.5522C34.477 33.7097 35.8625 32.1491 37.1245 30.8839L37.2625 30.7459L37.3068 30.7418L46.8495 29.9083H47.0488L47.0973 30.1399L39.0151 33.6419C38.9675 33.7081 38.8852 33.7734 38.7028 33.7638L38.6593 33.5314L38.8303 33.4572C38.8505 33.2296 38.4842 32.6938 38.1719 32.3129C38.3833 32.8471 38.4067 33.4063 38.23 33.8945C38.0339 34.4376 37.6111 34.8499 37.0406 35.0549C36.8324 35.1299 36.6605 35.2017 36.5153 35.2631C36.2401 35.3784 36.0416 35.4495 35.873 35.4495ZM37.3706 30.9783L37.2948 31.0541C36.6573 31.6932 34.7158 33.6403 35.179 34.4287C35.7124 35.3357 35.7656 35.3123 36.4217 35.0387C36.5709 34.9758 36.7461 34.9032 36.9583 34.8265C37.4602 34.6466 37.8305 34.2858 38.0016 33.8122C38.1977 33.2691 38.113 32.622 37.7684 32.0386C37.699 31.9208 37.6199 31.7876 37.7095 31.6997C37.7265 31.6819 37.795 31.6295 37.8967 31.6908C38.1089 31.8175 38.957 32.8036 39.0587 33.3587L46.3646 30.1931L37.3706 30.9783Z" fill="#0B4D5E"/>
<path d="M38.1542 35.538C39.3823 34.7787 39.63 32.9397 38.7077 31.4315C37.7854 29.9234 36.0433 29.3166 34.8151 30.0767C33.5862 30.8376 33.3393 32.6758 34.2616 34.184C35.1839 35.6913 36.9261 36.2989 38.1542 35.538Z" fill="#0B4D5E"/>
<path d="M36.9736 35.9864C36.7671 35.9864 36.5564 35.9614 36.3466 35.9114C35.4768 35.7048 34.6795 35.0979 34.1591 34.2466C33.2037 32.6844 33.47 30.7672 34.7514 29.974C35.2904 29.6399 35.9577 29.5439 36.6234 29.7037C37.4933 29.9111 38.2905 30.5171 38.811 31.3684C39.7664 32.9314 39.5001 34.8478 38.2179 35.641C37.8491 35.8694 37.4215 35.9864 36.9736 35.9864ZM35.9965 29.8707C35.593 29.8707 35.2089 29.9756 34.8789 30.1798C33.7096 30.9036 33.4796 32.6716 34.3648 34.1208C34.8522 34.9172 35.5938 35.4837 36.4015 35.6757C37.0092 35.8202 37.6063 35.7346 38.0896 35.4352C39.2596 34.7122 39.4896 32.9443 38.6044 31.4943C38.117 30.6978 37.3755 30.1314 36.5678 29.9393C36.3757 29.8933 36.1837 29.8707 35.9965 29.8707Z" fill="#0B4D5E"/>
</svg>
