<svg width="64" height="64" viewBox="0 0 64 64" fill="none" xmlns="http://www.w3.org/2000/svg">
<path d="M8.23577 21.7498C8.26012 21.7976 8.28538 21.8454 8.31064 21.8932C8.4658 22.2035 8.64531 22.5021 8.84828 22.8007C9.05124 23.111 9.26594 23.4096 9.50499 23.7208C9.75577 24.0311 10.0183 24.3423 10.3051 24.6526C10.4242 24.7834 10.5559 24.9151 10.6876 25.0351L27.8442 41.9418C28.3539 42.4434 28.639 43.1299 28.6372 43.8443L28.5939 58.7701C28.5939 58.8179 28.6047 58.8657 28.6155 58.9135C28.6209 58.9379 28.6263 58.9613 28.6299 58.9857C28.6299 59.0452 28.6299 59.1056 28.6534 59.1526C28.6705 59.2121 28.7003 59.2599 28.7283 59.3204C28.7391 59.3321 28.7508 59.3564 28.7607 59.3799C28.7661 59.3916 28.7725 59.4043 28.7779 59.4151C28.7968 59.4512 28.8167 59.499 28.8437 59.535C28.8843 59.5946 28.9303 59.6424 28.9781 59.6902C29.0007 59.7137 29.0241 59.7498 29.0467 59.7732C29.0828 59.8093 29.118 59.8571 29.154 59.9049C29.2857 60.024 29.4292 60.1322 29.6078 60.2396C29.7873 60.3469 29.9659 60.4308 30.1689 60.5147C30.3123 60.5742 30.4557 60.622 30.6109 60.6581C30.6307 60.6581 30.6479 60.6699 30.665 60.6699H30.6768C30.6975 60.6816 30.7182 60.6816 30.7426 60.6942C30.7606 60.6942 30.7787 60.6942 30.7967 60.706C30.8148 60.706 30.8328 60.7177 30.8509 60.7177C30.8824 60.7177 30.9149 60.7294 30.9465 60.742C30.9627 60.742 30.978 60.7538 30.9943 60.7538C31.1134 60.7781 31.2333 60.8016 31.3524 60.8133H31.5193C31.5788 60.8133 31.651 60.825 31.7105 60.8377C31.8296 60.8377 31.9496 60.8494 32.0687 60.862H32.2355L32.2599 42.4678L28.9357 32.0722C23.5657 31.6419 18.3896 30.2085 14.3176 27.772C11.3768 26.0156 9.35073 23.9373 8.23486 21.7515L8.23577 21.7498Z" fill="#8AE5CC"/>
<path d="M32.3717 60.9956H32.0695C31.9414 60.9838 31.8259 60.9721 31.7123 60.9721C31.6338 60.9595 31.5724 60.9477 31.521 60.9477H31.3532C31.2179 60.9351 31.0962 60.9108 30.9735 60.8873L30.923 60.8738C30.8878 60.863 30.8607 60.853 30.8508 60.8521L30.7407 60.8395L30.7218 60.8178L30.683 60.8151C30.6704 60.8115 30.6595 60.8088 30.646 60.8034C30.6235 60.8007 30.6081 60.7962 30.5982 60.7926C30.425 60.7529 30.2735 60.7042 30.1183 60.6392C29.8792 60.5409 29.707 60.4561 29.5392 60.356C29.3578 60.246 29.2072 60.135 29.0647 60.0051C29.0124 59.941 28.9817 59.8995 28.9519 59.8689C28.9348 59.8508 28.9203 59.8319 28.905 59.8129C28.896 59.8021 28.8879 59.7913 28.8797 59.7822C28.8337 59.7371 28.7805 59.6812 28.7327 59.6108C28.712 59.5838 28.6894 59.5414 28.6714 59.5035L28.5839 59.334C28.5604 59.2871 28.5388 59.2428 28.5243 59.1914C28.4946 59.1373 28.4946 59.057 28.4946 58.9857L28.4891 58.9704C28.4702 58.8883 28.4585 58.8324 28.4585 58.771L28.5018 43.8452C28.5036 43.1705 28.2293 42.512 27.7494 42.0402L10.5928 25.1335C10.4638 25.018 10.3294 24.8818 10.2049 24.7456C9.94604 24.465 9.68985 24.1674 9.39938 23.8083C9.1459 23.4782 8.9294 23.1751 8.73455 22.8774C8.51805 22.5581 8.33944 22.2567 8.18969 21.9563L8.15181 21.8833C8.13918 21.8607 8.12835 21.8373 8.11572 21.8147L8.35748 21.6912V21.6939L8.38995 21.757C9.53379 23.9563 11.605 25.9949 14.3879 27.6575C18.32 30.011 23.3545 31.4913 28.9474 31.9396L29.0385 31.9468L29.0656 32.0335L32.3969 42.4705L32.3717 61.0001V60.9956ZM31.7655 60.7033C31.8584 60.7033 31.9712 60.7141 32.083 60.725H32.102L32.1254 42.4867L28.8355 32.1976C23.2382 31.7376 18.1955 30.2464 14.2489 27.8857C13.7627 27.5952 13.2982 27.294 12.8561 26.9818L27.9389 41.8454C28.4702 42.3695 28.7742 43.0974 28.7724 43.8444L28.7291 58.7702C28.7291 58.8017 28.7372 58.8396 28.7471 58.882L28.7643 58.965C28.7661 59.0236 28.7661 59.0723 28.7751 59.0913C28.794 59.1481 28.8103 59.1788 28.8274 59.2104L28.8446 59.2455C28.8599 59.2663 28.8734 59.2924 28.8879 59.3276L28.7805 59.4142L28.9158 59.3826C28.9267 59.4052 28.9384 59.4313 28.9537 59.4512C28.9934 59.5098 29.034 59.5513 29.0764 59.5928C29.0944 59.6118 29.1071 59.6289 29.1215 59.647C29.1305 59.6587 29.1395 59.6704 29.1486 59.6803C29.1837 59.7164 29.2225 59.7669 29.2613 59.8174C29.3777 59.9221 29.5148 60.024 29.6808 60.1233C29.8359 60.2162 29.9983 60.2946 30.2247 60.3884C30.3655 60.4471 30.5044 60.4922 30.646 60.5256L30.7498 60.5526C30.7579 60.5535 30.7651 60.5563 30.7732 60.5581C30.7931 60.5599 30.8183 60.5634 30.8454 60.5761L30.8697 60.5824C30.8977 60.5896 30.9383 60.5923 30.9744 60.6059L31.0204 60.6203C31.1422 60.6437 31.2549 60.6663 31.3686 60.6771H31.5228C31.5896 60.6771 31.6726 60.6897 31.7402 60.7033C31.7493 60.7033 31.7583 60.7033 31.7673 60.7033H31.7655Z" fill="#0B4D5E"/>
<path d="M22.7646 30.5252L31.4499 41.4458C31.9758 42.107 32.2608 42.926 32.2599 43.7704L32.2374 60.8603H32.4286C32.5603 60.8603 32.7037 60.8485 32.8345 60.8359H32.858C33.0014 60.8242 33.1449 60.7999 33.2883 60.7764C33.3063 60.7764 33.3244 60.7647 33.3424 60.7647C33.3605 60.7529 33.3785 60.7529 33.3965 60.7529C33.4561 60.7412 33.5156 60.7285 33.576 60.7051L33.7556 60.669C33.8268 60.6447 33.899 60.6329 33.9703 60.6212C33.982 60.6212 33.9937 60.6095 34.0063 60.6095C34.0181 60.5977 34.0298 60.5977 34.0424 60.5977C34.2815 60.5138 34.5205 60.4182 34.7235 60.2992C34.7352 60.2874 34.7506 60.2874 34.765 60.2748C34.7776 60.2631 34.7893 60.2631 34.8002 60.2505H34.8065C34.8543 60.2261 34.8868 60.1909 34.9201 60.1666C34.9364 60.1422 34.9535 60.1305 34.9734 60.1188L35.0049 60.0944C35.023 60.0827 35.0419 60.0701 35.06 60.0583C35.1186 60.0105 35.1772 59.9753 35.2241 59.9392C35.2359 59.9392 35.2602 59.9149 35.272 59.9032C35.3558 59.831 35.4271 59.748 35.4993 59.6641C35.4993 59.6641 35.511 59.6398 35.5227 59.628C35.529 59.6163 35.5345 59.6163 35.5408 59.6037C35.5471 59.5919 35.5525 59.5793 35.5588 59.5793C35.5949 59.5315 35.6184 59.4954 35.6427 59.4476L35.6535 59.4233L35.6698 59.3881C35.6959 59.3403 35.7203 59.2924 35.7383 59.2446V59.2203C35.7573 59.1725 35.769 59.1247 35.7789 59.0769L35.7861 59.0525C35.7979 58.9804 35.8096 58.9091 35.8096 58.8495V58.8135L35.8529 43.8642C35.8547 43.1489 36.1452 42.4651 36.6566 41.9662L53.576 25.4844C52.5395 26.4279 51.2956 27.3237 49.845 28.1365V28.1248C44.0825 31.3497 30.1527 31.1188 22.7646 30.5216V30.5252Z" fill="#F0F4FF"/>
<path d="M32.4275 60.9957H32.1009V60.8604L32.1235 43.7705C32.1235 42.9595 31.8474 42.1639 31.3432 41.5297L22.4631 30.3648L22.7744 30.39C31.9467 31.1306 44.5207 30.9529 49.7789 28.0103L49.981 27.8975V27.9084C51.2998 27.1524 52.4789 26.3054 53.4856 25.3889L53.6705 25.5855L36.7502 42.0674C36.2676 42.5374 35.9889 43.195 35.9871 43.8698L35.9447 58.8542C35.9447 58.9209 35.9312 59.0012 35.9176 59.0806L35.9095 59.1158C35.8996 59.1582 35.8888 59.2042 35.8716 59.2511L35.8635 59.2953C35.8446 59.3494 35.8166 59.4026 35.7877 59.4558L35.7742 59.4847C35.7354 59.5668 35.7074 59.6074 35.6668 59.6633L35.6479 59.6877C35.6479 59.6877 35.6434 59.694 35.6407 59.6976L35.6001 59.7544C35.5306 59.8356 35.4512 59.9276 35.3574 60.0079C35.3457 60.0205 35.3204 60.0467 35.2835 60.0638L35.2384 60.0963C35.2077 60.1171 35.1752 60.1396 35.1418 60.1667L34.9948 60.2803C34.9434 60.3227 34.9091 60.3516 34.8631 60.3742L34.7936 60.412C34.551 60.5564 34.2731 60.6601 34.0846 60.726L34.0278 60.7449C34.0124 60.7512 33.9926 60.7566 33.9682 60.7566C33.9258 60.7657 33.8618 60.7756 33.7968 60.7972L33.6011 60.8369C33.5569 60.8568 33.4892 60.8721 33.4216 60.8848L33.3539 60.9091L33.3413 60.8992C33.3413 60.8992 33.3196 60.9109 33.2872 60.9109C33.1564 60.9344 33.012 60.9587 32.8686 60.9704H32.8334C32.7098 60.9831 32.5619 60.9948 32.4275 60.9948V60.9957ZM32.3725 60.7251H32.4284C32.5565 60.7251 32.6954 60.7134 32.8226 60.7016H32.8587C32.9841 60.6899 33.1203 60.6673 33.2556 60.6448L33.298 60.6349C33.3386 60.6168 33.3747 60.6169 33.3954 60.6169C33.4207 60.6087 33.473 60.5988 33.5253 60.578L33.7283 60.5356C33.7887 60.514 33.8645 60.5005 33.9403 60.4879C33.9673 60.4707 33.9953 60.4653 34.0151 60.4626C34.1874 60.4012 34.431 60.3092 34.6376 60.1901L34.6439 60.1838L34.7206 60.1414L34.7612 60.0963L34.7801 60.1054C34.7855 60.1017 34.7909 60.0963 34.7972 60.0918C34.8063 60.0837 34.8162 60.0756 34.8243 60.0692C34.8514 60.0368 34.8793 60.0178 34.9028 60.0034L34.9614 59.9619C35.0128 59.9231 35.0516 59.896 35.0868 59.8717L35.1806 59.805C35.2708 59.7238 35.3358 59.6471 35.3944 59.5794L35.3926 59.5803C35.3908 59.5803 35.398 59.5686 35.4079 59.556L35.435 59.5226C35.435 59.5226 35.4422 59.5019 35.463 59.4829C35.4855 59.4513 35.5036 59.4243 35.5198 59.39L35.546 59.3332C35.5667 59.2926 35.5866 59.2565 35.601 59.2213L35.6118 59.1717C35.6281 59.132 35.6371 59.0905 35.6461 59.0499C35.6623 58.9688 35.6732 58.9056 35.6732 58.8523V58.8163L35.7156 43.867C35.7192 43.1201 36.0268 42.393 36.5617 41.8725L51.6354 27.1894C51.0906 27.5629 50.515 27.9201 49.9116 28.2584L49.7095 28.3712V28.3559C44.3493 31.1902 32.1307 31.3895 23.0639 30.6841L31.5552 41.3611C32.0982 42.0422 32.3968 42.8982 32.3959 43.7696L32.3734 60.7242L32.3725 60.7251Z" fill="#0B4D5E"/>
<path d="M49.7727 28.1393C39.8219 33.7178 23.9228 33.5626 14.2462 27.7812C4.57053 21.9998 4.79695 12.7896 14.7478 7.21024C24.6986 1.6318 40.6103 1.78698 50.2743 7.5684C59.95 13.3507 59.7226 22.56 49.7718 28.1511L49.7727 28.1393Z" fill="#F0F4FF"/>
<path d="M32.3465 32.3482C25.7406 32.3482 19.1347 30.8588 14.1769 27.8973C9.49599 25.0991 6.94672 21.4105 7.00084 17.5081C7.05587 13.5381 9.78375 9.83863 14.6829 7.0927C24.6635 1.49712 40.6619 1.66044 50.3457 7.45268C55.0257 10.2491 57.574 13.9377 57.5217 17.8392C57.4676 21.8119 54.7397 25.5168 49.8387 28.2699L49.6366 28.3827V28.3691C44.7934 31.0257 38.5691 32.3473 32.3456 32.3473L32.3465 32.3482ZM32.1814 3.26609C25.9192 3.26609 19.6543 4.61564 14.8146 7.32819C10.0039 10.0254 7.32469 13.6418 7.27147 17.5117C7.21825 21.313 9.72061 24.9187 14.3167 27.6646C23.9337 33.4117 39.8094 33.5705 49.707 28.0218L49.9091 27.909V27.919C54.5945 25.2281 57.2006 21.6531 57.252 17.8355C57.3025 14.0351 54.8001 10.4304 50.2068 7.68541C45.2922 4.74463 38.7377 3.26702 32.1823 3.26702L32.1814 3.26609Z" fill="#0B4D5E"/>
<path d="M47.1667 25.9163C38.6971 30.3104 25.1641 30.1877 16.9282 25.634C8.69219 21.0803 8.88524 13.8276 17.3548 9.43361C25.8245 5.04049 39.3682 5.16226 47.5934 9.71595C55.8294 14.2696 55.6354 21.5232 47.1658 25.9254L47.1667 25.9163Z" fill="#0B4D5E"/>
<path d="M32.3338 29.2587C26.7085 29.2587 21.0822 28.0851 16.8632 25.7523C12.8733 23.5467 10.6993 20.6357 10.7408 17.5533C10.7823 14.4105 13.1097 11.4832 17.2935 9.31284C25.7929 4.90529 39.4152 5.03248 47.6601 9.59699C51.6482 11.8017 53.8222 14.7127 53.7825 17.7942C53.742 20.9388 51.4155 23.8697 47.2299 26.0455L47.0314 26.1483V26.1366C42.9107 28.2222 37.6218 29.2587 32.3338 29.2587ZM32.194 6.35587C26.8655 6.35587 21.536 7.4185 17.418 9.55372C13.3262 11.6763 11.0502 14.5179 11.0105 17.557C10.9708 20.5347 13.0961 23.3609 16.9931 25.5151C25.175 30.0381 38.6818 30.1644 47.1045 25.7956L47.3029 25.6937V25.7018C51.2703 23.5855 53.4731 20.7828 53.5119 17.7915C53.5498 14.8147 51.4254 11.9884 47.5293 9.83424C43.3473 7.51951 37.7716 6.35587 32.194 6.35587Z" fill="#0B4D5E"/>
<path d="M47.5941 9.71614C41.1019 6.12226 31.3044 5.30046 23.2967 7.26879C21.3752 9.93985 20.2485 13.1648 20.2485 16.6405C20.2485 21.2988 22.2719 25.5061 25.5257 28.5308C32.856 29.8442 41.2462 28.9872 47.1665 25.9157V25.9247C55.6361 21.5216 55.8301 14.2689 47.5941 9.71614Z" fill="#8AE5CC"/>
<path d="M32.3644 29.2661C30.0722 29.2661 27.7575 29.0694 25.5014 28.6644L25.4617 28.6572L25.4328 28.6301C22.0022 25.4413 20.1133 21.1835 20.1133 16.6406C20.1133 13.2515 21.1768 9.98415 23.1867 7.18952L23.2155 7.14894L23.2642 7.13721C31.5273 5.10573 41.3329 6.0935 47.66 9.59717C51.6481 11.8018 53.8221 14.7129 53.7824 17.7944C53.7418 20.939 51.4145 23.8699 47.2288 26.0448L47.0304 26.1476V26.1368C42.9954 28.1782 37.7462 29.2643 32.3644 29.2643V29.2661ZM25.588 28.4055C33.1618 29.7523 41.4014 28.7555 47.1034 25.7958L47.3019 25.693V25.701C51.2692 23.5857 53.473 20.782 53.5118 17.7907C53.5497 14.8139 51.4253 11.9877 47.5292 9.83353C41.2706 6.36865 31.5733 5.38719 23.3779 7.388C21.4186 10.1267 20.3848 13.3255 20.3848 16.6406C20.3848 21.0942 22.2323 25.2708 25.5898 28.4055H25.588Z" fill="#0B4D5E"/>
<path d="M47.5946 14.9408C39.3685 10.3871 25.8256 10.2653 17.356 14.6585C14.3142 16.2362 12.3585 18.1856 11.4583 20.2432C12.3107 22.2061 14.1158 24.078 16.9285 25.6332C25.1644 30.1868 38.6974 30.3095 47.167 25.9155V25.9245C50.2097 24.3432 52.1654 22.3911 53.0648 20.3316C52.2123 18.3687 50.4073 16.496 47.5946 14.9408Z" fill="#0B4D5E"/>
<path d="M32.334 29.2596C26.7086 29.2596 21.0832 28.086 16.8633 25.7523C14.1418 24.2477 12.2303 22.3614 11.3345 20.2975L11.311 20.2434L11.3345 20.1892C12.2817 18.0233 14.342 16.0694 17.2927 14.5377C25.7921 10.1293 39.4153 10.2583 47.6594 14.8219C50.38 16.3256 52.2924 18.2128 53.1891 20.2777L53.2125 20.3318L53.1891 20.3859C52.2428 22.5536 50.1816 24.5102 47.2291 26.0446L47.0306 26.1475V26.1366C42.9108 28.2213 37.621 29.2579 32.334 29.2579V29.2596ZM11.606 20.2443C12.4873 22.2325 14.3483 24.0538 16.9932 25.516C25.1733 30.0399 38.6819 30.1662 47.1037 25.7966L47.3021 25.6946V25.7019C50.0688 24.2252 52.0074 22.3732 52.9176 20.3327C52.0344 18.3436 50.1734 16.5214 47.5294 15.06C39.3539 10.5343 25.8462 10.4071 17.4181 14.7795C14.5468 16.2688 12.5388 18.1578 11.6069 20.2443H11.606Z" fill="#0B4D5E"/>
</svg>
