<svg width="411" height="300" viewBox="0 0 411 300" fill="none" xmlns="http://www.w3.org/2000/svg">
<path fill-rule="evenodd" clip-rule="evenodd" d="M145.413 209.874C145.131 209.874 144.901 209.645 144.901 209.362L144.901 124.61C144.901 124.327 145.131 124.097 145.413 124.097C145.696 124.097 145.926 124.327 145.926 124.61L145.926 209.362C145.926 209.645 145.696 209.874 145.413 209.874Z" fill="#C7A865"/>
<path fill-rule="evenodd" clip-rule="evenodd" d="M143.061 184.347C141.956 184.347 141.061 183.452 141.061 182.347L141.061 130.184C141.061 129.079 141.956 128.184 143.061 128.184L147.255 128.184C148.359 128.184 149.255 129.079 149.255 130.184L149.255 182.347C149.255 183.452 148.359 184.347 147.255 184.347L143.061 184.347Z" fill="#C7A865"/>
<path fill-rule="evenodd" clip-rule="evenodd" d="M163.221 176.288C162.938 176.288 162.709 176.058 162.709 175.776L162.709 111.446C162.709 111.163 162.938 110.934 163.221 110.934C163.504 110.934 163.733 111.163 163.733 111.446L163.733 175.776C163.733 176.058 163.504 176.288 163.221 176.288Z" fill="#F35F5F"/>
<path fill-rule="evenodd" clip-rule="evenodd" d="M160.612 169.969C159.508 169.969 158.612 169.074 158.612 167.969L158.612 151.546C158.612 150.442 159.508 149.546 160.612 149.546L164.806 149.546C165.911 149.546 166.806 150.442 166.806 151.546L166.806 167.969C166.806 169.074 165.911 169.969 164.806 169.969L160.612 169.969Z" fill="#F35F5F"/>
<path fill-rule="evenodd" clip-rule="evenodd" d="M185.192 194.103C184.482 194.103 183.907 193.528 183.907 192.819L183.907 156.973C183.907 156.264 184.482 155.689 185.192 155.689C185.901 155.689 186.476 156.264 186.476 156.973L186.476 192.819C186.476 193.528 185.901 194.103 185.192 194.103Z" fill="#F35F5F"/>
<path fill-rule="evenodd" clip-rule="evenodd" d="M179.918 182.122C178.813 182.122 177.918 181.227 177.918 180.122L177.918 159.958C177.918 158.854 178.813 157.958 179.918 157.958L190.474 157.958C191.579 157.958 192.474 158.854 192.474 159.958L192.474 180.122C192.474 181.227 191.579 182.122 190.474 182.122L179.918 182.122Z" fill="#F35F5F"/>
<path fill-rule="evenodd" clip-rule="evenodd" d="M208.116 177.395C207.407 177.395 206.832 176.82 206.832 176.11L206.832 119.438C206.832 118.729 207.407 118.154 208.116 118.154C208.826 118.154 209.401 118.729 209.401 119.438L209.401 176.11C209.401 176.82 208.826 177.395 208.116 177.395Z" fill="#C7A865"/>
<path fill-rule="evenodd" clip-rule="evenodd" d="M202.839 170.38C201.734 170.38 200.839 169.485 200.839 168.38L200.839 150.035C200.839 148.931 201.734 148.035 202.839 148.035L213.395 148.035C214.5 148.035 215.395 148.931 215.395 150.035L215.395 168.38C215.395 169.485 214.5 170.38 213.395 170.38L202.839 170.38Z" fill="#C7A865"/>
<path fill-rule="evenodd" clip-rule="evenodd" d="M231.706 187.471C230.997 187.471 230.422 186.896 230.422 186.187L230.422 136.79C230.422 136.081 230.997 135.506 231.706 135.506C232.416 135.506 232.991 136.081 232.991 136.79L232.991 186.187C232.991 186.896 232.416 187.471 231.706 187.471Z" fill="#F35F5F"/>
<path fill-rule="evenodd" clip-rule="evenodd" d="M226.429 168.503C225.324 168.503 224.429 167.608 224.429 166.503L224.429 155.173C224.429 154.069 225.324 153.173 226.429 153.173L236.985 153.173C238.089 153.173 238.985 154.069 238.985 155.173L238.985 166.503C238.985 167.608 238.089 168.503 236.985 168.503L226.429 168.503Z" fill="#F35F5F"/>
<path fill-rule="evenodd" clip-rule="evenodd" d="M251.072 171.926C250.363 171.926 249.788 171.351 249.788 170.641L249.788 126.259C249.788 125.55 250.363 124.975 251.072 124.975C251.782 124.975 252.357 125.55 252.357 126.259L252.357 170.641C252.357 171.351 251.782 171.926 251.072 171.926Z" fill="#C7A865"/>
<path fill-rule="evenodd" clip-rule="evenodd" d="M245.734 152.796C244.63 152.796 243.734 151.901 243.734 150.796L243.734 139.466C243.734 138.362 244.63 137.466 245.734 137.466L256.29 137.466C257.395 137.466 258.29 138.362 258.29 139.466L258.29 150.796C258.29 151.901 257.395 152.796 256.29 152.796L245.734 152.796Z" fill="#C7A865"/>
<path fill-rule="evenodd" clip-rule="evenodd" d="M269.15 139.191C268.867 139.191 268.638 138.962 268.638 138.679L268.638 94.7724C268.638 94.4896 268.867 94.2603 269.15 94.2603C269.433 94.2603 269.662 94.4896 269.662 94.7724L269.662 138.679C269.662 138.962 269.433 139.191 269.15 139.191Z" fill="#C7A865"/>
<path fill-rule="evenodd" clip-rule="evenodd" d="M266.797 139.187C265.692 139.187 264.797 138.291 264.797 137.187L264.797 111.573C264.797 110.468 265.692 109.573 266.797 109.573L270.991 109.573C272.095 109.573 272.991 110.468 272.991 111.573L272.991 137.187C272.991 138.291 272.095 139.187 270.991 139.187L266.797 139.187Z" fill="#C7A865"/>
<path fill-rule="evenodd" clip-rule="evenodd" d="M306.006 145.015C305.723 145.015 305.494 144.785 305.494 144.503L305.494 90.3846C305.494 90.1017 305.723 89.8724 306.006 89.8724C306.289 89.8724 306.518 90.1017 306.518 90.3846L306.518 144.503C306.518 144.785 306.289 145.015 306.006 145.015Z" fill="#C7A865"/>
<path fill-rule="evenodd" clip-rule="evenodd" d="M303.653 117.446C302.549 117.446 301.653 116.55 301.653 115.446L301.653 107.192C301.653 106.087 302.549 105.192 303.653 105.192L307.847 105.192C308.952 105.192 309.847 106.087 309.847 107.192L309.847 115.446C309.847 116.55 308.952 117.446 307.847 117.446L303.653 117.446Z" fill="#C7A865"/>
<path fill-rule="evenodd" clip-rule="evenodd" d="M122.632 218.173C122.244 218.173 121.93 217.859 121.93 217.471L121.93 145.861C121.93 145.473 122.244 145.159 122.632 145.159C123.019 145.159 123.334 145.473 123.334 145.861L123.334 217.471C123.334 217.859 123.019 218.173 122.632 218.173Z" fill="#C7A865"/>
<path fill-rule="evenodd" clip-rule="evenodd" d="M117.611 202.176C116.507 202.176 115.611 201.28 115.611 200.176L115.611 168.698C115.611 167.593 116.507 166.698 117.611 166.698L126.72 166.698C127.824 166.698 128.72 167.593 128.72 168.698L128.72 200.176C128.72 201.28 127.824 202.176 126.72 202.176L117.611 202.176Z" fill="#C7A865"/>
<path fill-rule="evenodd" clip-rule="evenodd" d="M287.579 140.946C287.296 140.946 287.067 140.717 287.067 140.434L287.067 96.5278C287.067 96.245 287.296 96.0157 287.579 96.0157C287.862 96.0157 288.091 96.245 288.091 96.5278L288.091 140.434C288.091 140.717 287.862 140.946 287.579 140.946Z" fill="#F35F5F"/>
<path fill-rule="evenodd" clip-rule="evenodd" d="M284.757 122.564C283.911 122.564 283.226 121.878 283.226 121.032C283.226 120.186 283.911 119.501 284.757 119.501L289.888 119.501C290.734 119.501 291.42 120.186 291.42 121.032C291.42 121.878 290.734 122.564 289.888 122.564L284.757 122.564Z" fill="#F35F5F"/>
<path d="M100.268 127.2C100.268 127.2 100.268 127.2 100.269 127.2C100.936 126.14 101.179 124.867 100.949 123.636C100.719 122.405 100.033 121.305 99.0274 120.558L94.0476 116.829L99.3428 120.179C100.396 120.846 101.662 121.093 102.888 120.871C104.115 120.649 105.214 119.974 105.966 118.98L109.752 113.983L106.4 119.192C105.72 120.251 105.465 121.528 105.689 122.767C105.912 124.006 106.597 125.114 107.605 125.868L112.573 129.573L107.298 126.247C106.239 125.577 104.966 125.33 103.733 125.558C102.5 125.787 101.4 126.471 100.65 127.476L96.9263 132.468L100.267 127.201C100.267 127.201 100.267 127.2 100.268 127.2Z" fill="#F0F4FF"/>
<path d="M109.837 114.037L106.485 119.246C105.818 120.283 105.569 121.535 105.788 122.749C106.007 123.963 106.677 125.048 107.665 125.787L112.633 129.492L112.52 129.657L107.244 126.332C106.207 125.675 104.96 125.433 103.752 125.657C102.619 125.866 101.601 126.47 100.873 127.355L100.73 127.535L97.0064 132.528L96.8425 132.414L100.183 127.148L100.185 127.144C100.838 126.106 101.077 124.86 100.852 123.655C100.64 122.523 100.036 121.505 99.1494 120.779L98.9675 120.638L93.9877 116.91L94.1017 116.745L99.3967 120.094L99.5925 120.213C100.584 120.777 101.744 120.977 102.871 120.772L103.095 120.727C104.206 120.472 105.195 119.832 105.887 118.919L109.673 113.923L109.837 114.037ZM106.046 119.04C105.327 119.991 104.297 120.655 103.14 120.921L102.906 120.969C101.733 121.182 100.526 120.974 99.4938 120.386L99.2899 120.264L96.1458 118.275L99.0878 120.478L99.0868 120.478C100.113 121.24 100.813 122.362 101.047 123.618C101.282 124.874 101.035 126.172 100.354 127.253C100.353 127.255 100.35 127.256 100.348 127.258L98.4219 130.295L100.57 127.416L100.718 127.228C101.476 126.306 102.537 125.678 103.715 125.46C104.973 125.227 106.271 125.479 107.351 126.162L110.466 128.126L107.545 125.948C106.517 125.179 105.819 124.048 105.591 122.784C105.363 121.521 105.622 120.218 106.317 119.138L108.257 116.121L106.046 119.04Z" fill="#0B4D5E"/>
<path d="M294.873 181.289C295.293 180.708 295.477 179.99 295.39 179.278C295.304 178.567 294.952 177.915 294.404 177.451L291.695 175.143L294.597 177.246C295.175 177.665 295.888 177.852 296.597 177.77C297.306 177.687 297.957 177.342 298.423 176.801L300.765 174.084L298.663 176.937C298.237 177.517 298.045 178.238 298.128 178.953C298.211 179.668 298.562 180.326 299.11 180.793L301.814 183.088L298.922 180.999C298.341 180.578 297.623 180.391 296.911 180.477C296.199 180.562 295.546 180.914 295.081 181.46L292.775 184.176L294.873 181.289Z" fill="#F0F4FF"/>
<path d="M300.846 174.143L300.765 174.084L300.764 174.084L300.846 174.143L298.744 176.997C298.332 177.556 298.148 178.252 298.227 178.942C298.307 179.632 298.647 180.266 299.176 180.717L299.175 180.717L301.879 183.012L301.756 183.17L298.863 181.08C298.373 180.724 297.781 180.542 297.18 180.557L296.923 180.576C296.322 180.649 295.764 180.916 295.334 181.336L295.157 181.525L292.851 184.241L292.695 184.117L294.792 181.23L294.933 181.014C295.237 180.496 295.365 179.891 295.292 179.291C295.218 178.69 294.948 178.133 294.528 177.704L294.34 177.528L291.63 175.219L291.754 175.062L291.697 175.139L291.695 175.142L291.754 175.062L294.656 177.166L294.538 177.327L293.695 176.716L294.469 177.375L294.671 177.564C295.122 178.024 295.411 178.622 295.49 179.267C295.579 180.003 295.388 180.746 294.954 181.348L294.408 182.098L295.005 181.395L295.194 181.193C295.656 180.743 296.254 180.455 296.899 180.378L297.176 180.357C297.82 180.341 298.455 180.536 298.98 180.917L299.802 181.511L299.046 180.869L298.843 180.678C298.392 180.214 298.104 179.613 298.029 178.965C297.943 178.225 298.141 177.478 298.583 176.878L299.138 176.123L298.499 176.866C298.017 177.426 297.342 177.783 296.609 177.869C295.875 177.954 295.136 177.761 294.538 177.327L294.597 177.247L294.656 177.166L294.657 177.166C295.214 177.57 295.902 177.75 296.586 177.671C297.27 177.591 297.898 177.257 298.347 176.735L300.689 174.019L300.846 174.143Z" fill="#0B4D5E"/>
<path d="M91.8209 163.008C94.4836 163.134 96.7444 161.078 96.8707 158.415C96.997 155.752 94.9408 153.491 92.2782 153.365C89.6155 153.239 87.3547 155.295 87.2284 157.958C87.1021 160.62 89.1583 162.881 91.8209 163.008Z" fill="#F0F4FF"/>
<path d="M96.7705 158.41C96.8939 155.803 94.8805 153.588 92.2731 153.465C89.6659 153.341 87.4518 155.355 87.328 157.962C87.2043 160.569 89.2181 162.783 91.8253 162.907C94.4328 163.031 96.6468 161.017 96.7705 158.41ZM96.9705 158.419C96.8416 161.137 94.5337 163.236 91.8159 163.107C89.0982 162.978 87.0001 160.67 87.129 157.953C87.2581 155.235 89.565 153.137 92.2826 153.266C95.0002 153.395 97.0991 155.702 96.9705 158.419Z" fill="#0B4D5E"/>
<path d="M314.669 164.658C317.304 164.783 319.54 162.748 319.665 160.114C319.79 157.48 317.756 155.243 315.122 155.118C312.487 154.993 310.25 157.027 310.125 159.662C310 162.296 312.035 164.533 314.669 164.658Z" fill="#F0F4FF"/>
<path d="M319.565 160.109C319.687 157.53 317.696 155.34 315.117 155.217C312.538 155.095 310.347 157.087 310.225 159.666C310.103 162.246 312.095 164.435 314.674 164.557C317.253 164.68 319.443 162.689 319.565 160.109ZM319.765 160.119C319.637 162.808 317.354 164.885 314.665 164.757C311.975 164.63 309.898 162.347 310.026 159.657C310.153 156.967 312.437 154.891 315.126 155.018C317.816 155.146 319.893 157.429 319.765 160.119Z" fill="#0B4D5E"/>
<path d="M321.747 142.712C322.96 142.769 323.989 141.833 324.046 140.621C324.104 139.409 323.168 138.38 321.956 138.322C320.743 138.265 319.714 139.201 319.657 140.413C319.599 141.625 320.535 142.654 321.747 142.712Z" fill="#F0F4FF"/>
<path d="M323.947 140.616C324.002 139.459 323.108 138.477 321.951 138.422C320.794 138.367 319.811 139.261 319.756 140.418C319.701 141.575 320.595 142.557 321.752 142.612C322.909 142.667 323.892 141.773 323.947 140.616ZM324.146 140.626C324.086 141.893 323.01 142.871 321.743 142.811C320.475 142.751 319.497 141.675 319.557 140.408C319.617 139.141 320.693 138.163 321.96 138.223C323.228 138.283 324.206 139.358 324.146 140.626Z" fill="#0B4D5E"/>
</svg>
