<svg width="411" height="300" viewBox="0 0 411 300" fill="none" xmlns="http://www.w3.org/2000/svg">
<path d="M176.573 163.5C176.573 163.776 176.797 164 177.073 164C177.349 164 177.573 163.776 177.573 163.5C177.573 163.223 177.349 163 177.073 163C176.797 163 176.573 163.223 176.573 163.5Z" fill="#8AE5CC"/>
<path d="M176.773 163.5C176.773 163.334 176.907 163.2 177.073 163.2C177.239 163.2 177.373 163.334 177.373 163.5C177.373 163.665 177.239 163.799 177.073 163.799C176.907 163.799 176.773 163.665 176.773 163.5ZM176.373 163.5C176.373 163.886 176.686 164.2 177.073 164.2C177.46 164.2 177.773 163.886 177.773 163.5C177.773 163.113 177.46 162.799 177.073 162.799C176.686 162.799 176.373 163.113 176.373 163.5Z" fill="#0B4D5E"/>
<path d="M176.573 191.5C176.573 191.776 176.797 192 177.073 192C177.349 192 177.573 191.776 177.573 191.5C177.573 191.223 177.349 191 177.073 191C176.797 191 176.573 191.223 176.573 191.5Z" fill="#8AE5CC"/>
<path d="M176.773 191.5C176.773 191.334 176.907 191.2 177.073 191.2C177.239 191.2 177.373 191.334 177.373 191.5C177.373 191.665 177.239 191.799 177.073 191.799C176.907 191.799 176.773 191.665 176.773 191.5ZM176.373 191.5C176.373 191.886 176.686 192.2 177.073 192.2C177.46 192.2 177.773 191.886 177.773 191.5C177.773 191.113 177.46 190.799 177.073 190.799C176.686 190.799 176.373 191.113 176.373 191.5Z" fill="#0B4D5E"/>
<path d="M168.573 177.5C168.573 177.776 168.797 178 169.073 178C169.349 178 169.573 177.776 169.573 177.5C169.573 177.223 169.349 177 169.073 177C168.797 177 168.573 177.223 168.573 177.5Z" fill="#8AE5CC"/>
<path d="M168.773 177.5C168.773 177.334 168.907 177.2 169.073 177.2C169.239 177.2 169.373 177.334 169.373 177.5C169.373 177.665 169.239 177.799 169.073 177.799C168.907 177.799 168.773 177.665 168.773 177.5ZM168.373 177.5C168.373 177.886 168.686 178.2 169.073 178.2C169.46 178.2 169.773 177.886 169.773 177.5C169.773 177.113 169.46 176.799 169.073 176.799C168.686 176.799 168.373 177.113 168.373 177.5Z" fill="#0B4D5E"/>
<path d="M174.573 203.5C174.573 203.776 174.797 204 175.073 204C175.349 204 175.573 203.776 175.573 203.5C175.573 203.223 175.349 203 175.073 203C174.797 203 174.573 203.223 174.573 203.5Z" fill="#8AE5CC"/>
<path d="M174.773 203.5C174.773 203.334 174.907 203.2 175.073 203.2C175.239 203.2 175.373 203.334 175.373 203.5C175.373 203.665 175.239 203.799 175.073 203.799C174.907 203.799 174.773 203.665 174.773 203.5ZM174.373 203.5C174.373 203.886 174.686 204.2 175.073 204.2C175.46 204.2 175.773 203.886 175.773 203.5C175.773 203.113 175.46 202.799 175.073 202.799C174.686 202.799 174.373 203.113 174.373 203.5Z" fill="#0B4D5E"/>
<path d="M176.573 181.5C176.573 181.776 176.797 182 177.073 182C177.349 182 177.573 181.776 177.573 181.5C177.573 181.223 177.349 181 177.073 181C176.797 181 176.573 181.223 176.573 181.5Z" fill="#8AE5CC"/>
<path d="M176.773 181.5C176.773 181.334 176.907 181.2 177.073 181.2C177.239 181.2 177.373 181.334 177.373 181.5C177.373 181.665 177.239 181.799 177.073 181.799C176.907 181.799 176.773 181.665 176.773 181.5ZM176.373 181.5C176.373 181.886 176.686 182.2 177.073 182.2C177.46 182.2 177.773 181.886 177.773 181.5C177.773 181.113 177.46 180.799 177.073 180.799C176.686 180.799 176.373 181.113 176.373 181.5Z" fill="#0B4D5E"/>
<path d="M181.573 173.5C181.573 173.776 181.797 174 182.073 174C182.349 174 182.573 173.776 182.573 173.5C182.573 173.223 182.349 173 182.073 173C181.797 173 181.573 173.223 181.573 173.5Z" fill="#8AE5CC"/>
<path d="M181.773 173.5C181.773 173.334 181.907 173.2 182.073 173.2C182.239 173.2 182.373 173.334 182.373 173.5C182.373 173.665 182.239 173.799 182.073 173.799C181.907 173.799 181.773 173.665 181.773 173.5ZM181.373 173.5C181.373 173.886 181.686 174.2 182.073 174.2C182.46 174.2 182.773 173.886 182.773 173.5C182.773 173.113 182.46 172.799 182.073 172.799C181.686 172.799 181.373 173.113 181.373 173.5Z" fill="#0B4D5E"/>
<path d="M169.573 186.5C169.573 186.776 169.797 187 170.073 187C170.349 187 170.573 186.776 170.573 186.5C170.573 186.223 170.349 186 170.073 186C169.797 186 169.573 186.223 169.573 186.5Z" fill="#8AE5CC"/>
<path d="M169.773 186.5C169.773 186.334 169.907 186.2 170.073 186.2C170.239 186.2 170.373 186.334 170.373 186.5C170.373 186.665 170.239 186.799 170.073 186.799C169.907 186.799 169.773 186.665 169.773 186.5ZM169.373 186.5C169.373 186.886 169.686 187.2 170.073 187.2C170.46 187.2 170.773 186.886 170.773 186.5C170.773 186.113 170.46 185.799 170.073 185.799C169.686 185.799 169.373 186.113 169.373 186.5Z" fill="#0B4D5E"/>
<path d="M173.573 173.5C173.573 174.328 174.245 175 175.073 175C175.901 175 176.573 174.328 176.573 173.5C176.573 172.671 175.901 172 175.073 172C174.245 172 173.573 172.671 173.573 173.5Z" fill="#8AE5CC"/>
<path d="M173.773 173.5C173.773 172.782 174.355 172.2 175.073 172.2C175.791 172.2 176.373 172.782 176.373 173.5C176.373 174.217 175.791 174.799 175.073 174.799C174.355 174.799 173.773 174.217 173.773 173.5ZM173.373 173.5C173.373 174.438 174.134 175.2 175.073 175.2C176.012 175.2 176.773 174.438 176.773 173.5C176.773 172.561 176.012 171.799 175.073 171.799C174.134 171.799 173.373 172.561 173.373 173.5Z" fill="#0B4D5E"/>
<path d="M176.573 197.5C176.573 198.328 177.245 199 178.073 199C178.901 199 179.573 198.328 179.573 197.5C179.573 196.671 178.901 196 178.073 196C177.245 196 176.573 196.671 176.573 197.5Z" fill="#8AE5CC"/>
<path d="M176.773 197.5C176.773 196.782 177.355 196.2 178.073 196.2C178.791 196.2 179.373 196.782 179.373 197.5C179.373 198.217 178.791 198.799 178.073 198.799C177.355 198.799 176.773 198.217 176.773 197.5ZM176.373 197.5C176.373 198.438 177.134 199.2 178.073 199.2C179.012 199.2 179.773 198.438 179.773 197.5C179.773 196.561 179.012 195.799 178.073 195.799C177.134 195.799 176.373 196.561 176.373 197.5Z" fill="#0B4D5E"/>
<path d="M143.573 133.5C143.573 133.223 143.349 133 143.073 133C142.797 133 142.573 133.223 142.573 133.5C142.573 133.776 142.797 134 143.073 134C143.349 134 143.573 133.776 143.573 133.5Z" fill="#8AE5CC"/>
<path d="M143.373 133.5C143.373 133.665 143.239 133.799 143.073 133.799C142.907 133.799 142.773 133.665 142.773 133.5C142.773 133.334 142.907 133.2 143.073 133.2C143.239 133.2 143.373 133.334 143.373 133.5ZM143.773 133.5C143.773 133.113 143.46 132.799 143.073 132.799C142.687 132.799 142.373 133.113 142.373 133.5C142.373 133.886 142.687 134.2 143.073 134.2C143.46 134.2 143.773 133.886 143.773 133.5Z" fill="#0B4D5E"/>
<path d="M143.573 105.5C143.573 105.223 143.349 105 143.073 105C142.797 105 142.573 105.223 142.573 105.5C142.573 105.776 142.797 106 143.073 106C143.349 106 143.573 105.776 143.573 105.5Z" fill="#8AE5CC"/>
<path d="M143.373 105.5C143.373 105.665 143.239 105.799 143.073 105.799C142.907 105.799 142.773 105.665 142.773 105.5C142.773 105.334 142.907 105.2 143.073 105.2C143.239 105.2 143.373 105.334 143.373 105.5ZM143.773 105.5C143.773 105.113 143.46 104.799 143.073 104.799C142.687 104.799 142.373 105.113 142.373 105.5C142.373 105.886 142.687 106.2 143.073 106.2C143.46 106.2 143.773 105.886 143.773 105.5Z" fill="#0B4D5E"/>
<path d="M151.573 119.5C151.573 119.223 151.349 119 151.073 119C150.797 119 150.573 119.223 150.573 119.5C150.573 119.776 150.797 120 151.073 120C151.349 120 151.573 119.776 151.573 119.5Z" fill="#8AE5CC"/>
<path d="M151.373 119.5C151.373 119.665 151.239 119.799 151.073 119.799C150.907 119.799 150.773 119.665 150.773 119.5C150.773 119.334 150.907 119.2 151.073 119.2C151.239 119.2 151.373 119.334 151.373 119.5ZM151.773 119.5C151.773 119.113 151.46 118.799 151.073 118.799C150.687 118.799 150.373 119.113 150.373 119.5C150.373 119.886 150.687 120.2 151.073 120.2C151.46 120.2 151.773 119.886 151.773 119.5Z" fill="#0B4D5E"/>
<path d="M145.573 93.4995C145.573 93.2234 145.349 92.9995 145.073 92.9995C144.797 92.9995 144.573 93.2234 144.573 93.4995C144.573 93.7757 144.797 93.9995 145.073 93.9995C145.349 93.9995 145.573 93.7757 145.573 93.4995Z" fill="#8AE5CC"/>
<path d="M145.373 93.4995C145.373 93.6652 145.239 93.7993 145.073 93.7993C144.907 93.7993 144.773 93.6652 144.773 93.4995C144.773 93.3338 144.907 93.1997 145.073 93.1997C145.239 93.1997 145.373 93.3338 145.373 93.4995ZM145.773 93.4995C145.773 93.1129 145.46 92.7993 145.073 92.7993C144.687 92.7993 144.373 93.1129 144.373 93.4995C144.373 93.8861 144.687 94.1997 145.073 94.1997C145.46 94.1997 145.773 93.8861 145.773 93.4995Z" fill="#0B4D5E"/>
<path d="M143.573 115.5C143.573 115.223 143.349 115 143.073 115C142.797 115 142.573 115.223 142.573 115.5C142.573 115.776 142.797 116 143.073 116C143.349 116 143.573 115.776 143.573 115.5Z" fill="#8AE5CC"/>
<path d="M143.373 115.5C143.373 115.665 143.239 115.799 143.073 115.799C142.907 115.799 142.773 115.665 142.773 115.5C142.773 115.334 142.907 115.2 143.073 115.2C143.239 115.2 143.373 115.334 143.373 115.5ZM143.773 115.5C143.773 115.113 143.46 114.799 143.073 114.799C142.687 114.799 142.373 115.113 142.373 115.5C142.373 115.886 142.687 116.2 143.073 116.2C143.46 116.2 143.773 115.886 143.773 115.5Z" fill="#0B4D5E"/>
<path d="M137.573 116.5C137.573 116.223 137.349 116 137.073 116C136.797 116 136.573 116.223 136.573 116.5C136.573 116.776 136.797 117 137.073 117C137.349 117 137.573 116.776 137.573 116.5Z" fill="#8AE5CC"/>
<path d="M137.373 116.5C137.373 116.665 137.239 116.799 137.073 116.799C136.907 116.799 136.773 116.665 136.773 116.5C136.773 116.334 136.907 116.2 137.073 116.2C137.239 116.2 137.373 116.334 137.373 116.5ZM137.773 116.5C137.773 116.113 137.46 115.799 137.073 115.799C136.687 115.799 136.373 116.113 136.373 116.5C136.373 116.886 136.687 117.2 137.073 117.2C137.46 117.2 137.773 116.886 137.773 116.5Z" fill="#0B4D5E"/>
<path d="M150.573 110.5C150.573 110.223 150.349 110 150.073 110C149.797 110 149.573 110.223 149.573 110.5C149.573 110.776 149.797 111 150.073 111C150.349 111 150.573 110.776 150.573 110.5Z" fill="#8AE5CC"/>
<path d="M150.373 110.5C150.373 110.665 150.239 110.799 150.073 110.799C149.907 110.799 149.773 110.665 149.773 110.5C149.773 110.334 149.907 110.2 150.073 110.2C150.239 110.2 150.373 110.334 150.373 110.5ZM150.773 110.5C150.773 110.113 150.46 109.799 150.073 109.799C149.687 109.799 149.373 110.113 149.373 110.5C149.373 110.886 149.687 111.2 150.073 111.2C150.46 111.2 150.773 110.886 150.773 110.5Z" fill="#0B4D5E"/>
<path d="M143.573 123.5C143.573 122.671 142.902 122 142.073 122C141.245 122 140.573 122.671 140.573 123.5C140.573 124.328 141.245 125 142.073 125C142.902 125 143.573 124.328 143.573 123.5Z" fill="#8AE5CC"/>
<path d="M143.373 123.5C143.373 124.217 142.791 124.799 142.073 124.799C141.355 124.799 140.773 124.217 140.773 123.5C140.773 122.782 141.355 122.2 142.073 122.2C142.791 122.2 143.373 122.782 143.373 123.5ZM143.773 123.5C143.773 122.561 143.012 121.799 142.073 121.799C141.134 121.799 140.373 122.561 140.373 123.5C140.373 124.438 141.134 125.2 142.073 125.2C143.012 125.2 143.773 124.438 143.773 123.5Z" fill="#0B4D5E"/>
<path d="M149.573 103.5C149.573 102.671 148.902 102 148.073 102C147.245 102 146.573 102.671 146.573 103.5C146.573 104.328 147.245 105 148.073 105C148.902 105 149.573 104.328 149.573 103.5Z" fill="#8AE5CC"/>
<path d="M149.373 103.5C149.373 104.217 148.791 104.799 148.073 104.799C147.355 104.799 146.773 104.217 146.773 103.5C146.773 102.782 147.355 102.2 148.073 102.2C148.791 102.2 149.373 102.782 149.373 103.5ZM149.773 103.5C149.773 102.561 149.012 101.799 148.073 101.799C147.134 101.799 146.373 102.561 146.373 103.5C146.373 104.438 147.134 105.2 148.073 105.2C149.012 105.2 149.773 104.438 149.773 103.5Z" fill="#0B4D5E"/>
<path d="M132.127 227.27C149.8 223.675 178.365 223.657 195.926 227.229C213.489 230.801 213.4 236.611 195.726 240.206C178.053 243.8 149.49 243.818 131.927 240.246C114.364 236.674 114.453 230.864 132.126 227.27L132.127 227.27Z" fill="#0B4D5E"/>
<path d="M195.134 226.868C177.768 223.511 150.395 223.529 132.925 226.908L132.087 227.074L132.068 227.078L132.064 227.079C127.65 227.978 124.318 229.017 122.08 230.132C120.96 230.691 120.103 231.273 119.522 231.875C118.94 232.476 118.623 233.11 118.613 233.763C118.603 234.418 118.901 235.052 119.466 235.655C120.03 236.256 120.869 236.839 121.973 237.396C124.181 238.511 127.489 239.547 131.887 240.442C149.201 243.963 177.176 244.001 194.928 240.568L195.766 240.402C200.192 239.502 203.531 238.461 205.773 237.343C206.893 236.785 207.75 236.202 208.331 235.601C208.913 234.999 209.23 234.366 209.24 233.712C209.251 233.058 208.952 232.423 208.387 231.82C207.823 231.218 206.984 230.637 205.88 230.08C203.672 228.965 200.364 227.928 195.966 227.034L195.134 226.868ZM132.167 227.466C149.538 223.933 177.463 223.86 195.057 227.26L195.887 227.425C200.27 228.317 203.537 229.346 205.699 230.437C206.781 230.983 207.575 231.539 208.095 232.093C208.613 232.647 208.848 233.186 208.84 233.706C208.832 234.226 208.58 234.767 208.043 235.323C207.505 235.879 206.693 236.437 205.594 236.985C203.397 238.08 200.097 239.112 195.686 240.009L194.851 240.175C177.15 243.599 149.229 243.561 131.967 240.05C127.584 239.159 124.316 238.13 122.154 237.039C121.072 236.493 120.278 235.936 119.758 235.381C119.24 234.828 119.005 234.289 119.013 233.77C119.021 233.25 119.273 232.708 119.81 232.153C120.348 231.597 121.16 231.038 122.258 230.491C124.455 229.396 127.755 228.363 132.165 227.466L132.126 227.27L132.127 227.273L132.165 227.466L132.167 227.465V227.466Z" fill="#0B4D5E"/>
<path d="M192.885 95.068L269.766 146.774L212.135 222.224L212.133 222.222C208.744 227.144 202.097 229.877 192.97 229.252C174.642 227.996 153.279 213.684 145.255 197.288C141.227 189.054 141.33 181.865 144.746 176.902L144.741 176.898L192.885 95.068Z" fill="#8AE5CC"/>
<path d="M192.996 94.9018L192.886 95.0684L192.713 94.9667L144.569 176.797L144.506 176.905C141.218 181.784 141.065 188.714 144.708 196.603L145.075 197.375C149.106 205.613 156.481 213.315 165.137 219.114C173.793 224.913 183.749 228.821 192.956 229.452C202.074 230.076 208.779 227.365 212.239 222.417L212.294 222.346L270.054 146.726L192.996 94.9018ZM212.101 221.94L212.091 221.932L211.968 222.109L212.125 222.216L212.134 222.222L211.968 222.109C208.634 226.952 202.069 229.675 192.984 229.052C183.863 228.427 173.973 224.552 165.36 218.782C156.747 213.012 149.428 205.359 145.435 197.2L145.071 196.435C141.436 188.563 141.655 181.745 144.911 177.015L145.016 176.863L145.001 176.851L192.95 95.3526L269.479 146.821L212.101 221.94ZM192.82 94.7837L192.713 94.9667L192.886 95.0684L192.996 94.9018L192.82 94.7837Z" fill="#0B4D5E"/>
<path d="M247.652 143.525L269.766 146.774L212.135 222.224L212.133 222.222C208.744 227.144 202.097 229.877 192.97 229.252C191.804 229.172 190.626 229.037 189.44 228.853L247.651 143.524L247.652 143.525Z" fill="#0B4D5E"/>
<path d="M247.734 143.334L247.608 143.232L189.096 229.002L189.409 229.051C190.303 229.189 191.193 229.3 192.076 229.381L192.956 229.451C202.074 230.076 208.779 227.365 212.239 222.416L212.294 222.345L270.132 146.625L247.734 143.334ZM212.101 221.939L212.091 221.931L211.968 222.108L212.125 222.215L212.134 222.222L211.968 222.108C208.634 226.951 202.069 229.674 192.984 229.052L192.111 228.982C191.341 228.912 190.566 228.816 189.786 228.701L247.745 143.741L269.403 146.922L212.101 221.939Z" fill="#0B4D5E"/>
<path d="M142.285 184.009L195.38 96.7489L202.285 101.392L144.036 194.501C142.56 190.691 142.008 187.152 142.285 184.009Z" fill="#F0F4FF"/>
<path d="M144.036 194.501L143.85 194.573L143.994 194.945L144.206 194.607L144.036 194.501ZM202.396 101.226L195.492 96.5836L195.381 96.7489L195.38 96.749L195.492 96.5836L195.318 96.466L195.209 96.645L142.114 183.905L142.089 183.946L142.086 183.992C141.806 187.171 142.364 190.741 143.85 194.573L144.037 194.5L144.206 194.607L202.454 101.497L202.557 101.334L202.396 101.226ZM144.082 194.052C142.729 190.427 142.226 187.065 142.481 184.072L195.443 97.0319L202.013 101.45L144.082 194.052Z" fill="#0B4D5E"/>
<path d="M153.3 208.764C150.678 205.918 148.417 202.893 146.61 199.77L206.009 103.887L218.282 112.142L153.3 208.764Z" fill="#F0F4FF"/>
<path d="M218.394 111.976L206.12 103.721L205.948 103.606L205.839 103.782L206.009 103.887L206.01 103.887L205.839 103.782L146.44 199.665L146.378 199.767L146.437 199.87L146.783 200.457C148.537 203.386 150.687 206.223 153.153 208.9L153.325 209.086L153.466 208.876L218.447 112.253L218.56 112.087L218.394 111.976ZM153.277 208.441C150.765 205.692 148.593 202.777 146.844 199.773L206.07 104.168L218.004 112.195L153.277 208.441Z" fill="#0B4D5E"/>
<path d="M201.028 107.091C210.182 125.797 234.553 142.122 255.459 143.556C276.368 144.99 285.895 130.987 276.74 112.283C267.585 93.5763 243.215 77.2519 222.307 75.8167C201.4 74.3836 191.872 88.3856 201.028 107.091Z" fill="#F0F4FF"/>
<path d="M276.478 111.316C271.796 102.256 263.605 93.8136 254.042 87.4072C244.171 80.794 232.818 76.338 222.321 75.6174L221.345 75.5612C211.349 75.0976 204.012 78.2307 200.229 83.7905C196.446 89.3507 196.26 97.2747 200.431 106.302L200.848 107.18C205.445 116.572 213.854 125.354 223.725 131.967C233.289 138.374 244.242 142.756 254.46 143.678L255.446 143.756C265.941 144.476 273.633 141.324 277.538 135.585C281.444 129.845 281.516 121.586 276.92 112.195L276.478 111.316ZM253.819 87.7393C263.341 94.1181 271.479 102.513 276.122 111.5L276.56 112.372C281.119 121.686 281.004 129.78 277.208 135.359C273.411 140.939 265.886 144.071 255.473 143.357L254.494 143.279C244.359 142.364 233.469 138.013 223.948 131.634C214.119 125.05 205.765 116.317 201.208 107.004L200.794 106.134C196.659 97.1857 196.882 89.4199 200.56 84.0149C204.238 78.6094 211.415 75.5013 221.326 75.9612L222.294 76.0169C232.704 76.7316 243.991 81.155 253.819 87.7393Z" fill="#0B4D5E"/>
<path d="M196.558 81.2151L199.992 83.5249C203.961 82.1104 208.739 81.4895 214.26 81.868C237.281 83.4463 264.114 101.423 274.194 122.018C276.654 127.041 277.869 131.75 277.996 135.985L281.213 138.15L274.84 147.627L274.833 147.621C270.576 153.806 262.226 157.238 250.763 156.452C227.742 154.874 200.909 136.898 190.829 116.301C185.767 105.96 185.899 96.93 190.189 90.6962L190.183 90.6914L196.556 81.2154L196.558 81.2151Z" fill="#8AE5CC"/>
<path d="M273.887 120.963C268.735 110.991 259.719 101.698 249.191 94.6451C238.323 87.3651 225.827 82.4608 214.274 81.6687L213.243 81.6086C208.177 81.3712 203.752 81.9907 200.022 83.3032L196.67 81.0493L196.608 81.0086L196.534 81.0165L196.442 81.0257L196.389 81.1042L190.017 90.5798L189.914 90.7317L189.922 90.7378C185.813 96.8468 185.618 105.526 190.188 115.419L190.649 116.388C195.708 126.726 204.964 136.394 215.832 143.674C226.699 150.955 239.196 155.86 250.749 156.652C262.145 157.434 270.525 154.06 274.872 147.909L274.884 147.919L275.005 147.738L281.379 138.261L281.491 138.095L281.325 137.984L278.192 135.876C278.047 131.634 276.823 126.933 274.373 121.93L273.887 120.963ZM248.969 94.9778C259.455 102.003 268.417 111.249 273.531 121.146L274.014 122.105C276.464 127.109 277.67 131.79 277.796 135.992L277.799 136.093L277.884 136.151L280.936 138.204L274.796 147.334L274.79 147.33L274.668 147.508L274.262 148.072C269.946 153.823 261.842 157.011 250.776 156.253C239.309 155.466 226.879 150.594 216.054 143.342C205.23 136.091 196.029 126.472 191.008 116.213L190.55 115.251C185.979 105.355 186.251 96.7702 190.354 90.8091L190.459 90.6569L190.452 90.6507L196.611 81.4916L199.964 83.747L200.059 83.7132C203.752 82.3973 208.157 81.7712 213.224 82.0086L214.247 82.0674C225.714 82.8537 238.144 87.7265 248.969 94.9778Z" fill="#0B4D5E"/>
<path d="M259.815 124.383L263.104 126.707L242.447 155.939C245.033 156.488 247.601 156.857 250.122 157.03C261.586 157.816 269.936 154.382 274.192 148.199L274.199 148.204L280.573 138.727L277.356 136.562C277.229 132.327 276.014 127.619 273.554 122.595C271.947 119.311 269.913 116.094 267.538 113L259.815 124.383Z" fill="#0B4D5E"/>
<path d="M259.815 124.382L263.104 126.707L242.447 155.939C245.033 156.487 247.601 156.857 250.122 157.03C261.586 157.816 269.936 154.382 274.192 148.199L274.199 148.204L280.573 138.727L277.356 136.562L276.798 137.392L279.185 138.999L273.847 146.936L273.369 147.631C269.384 153.421 261.447 156.804 250.191 156.032L249.262 155.959C247.578 155.812 245.873 155.574 244.154 155.256L264.498 126.467L261.194 124.131L267.58 114.719C269.563 117.422 271.271 120.207 272.655 123.035L273.554 122.595C271.946 119.311 269.914 116.094 267.538 113L259.815 124.382ZM272.655 123.035C275.065 127.956 276.234 132.525 276.356 136.592L276.372 137.105L276.798 137.392L277.356 136.562L277.319 135.762C277.072 131.737 275.86 127.305 273.554 122.595L272.655 123.035Z" fill="#0B4D5E"/>
<path d="M197.205 106.827C207.285 127.424 234.118 145.399 257.139 146.977C280.159 148.555 290.65 133.139 280.57 112.542C270.489 91.946 243.655 73.9695 220.635 72.3912C197.615 70.8128 187.125 86.2301 197.205 106.827Z" fill="#8AE5CC"/>
<path d="M280.263 111.487C275.11 101.515 266.094 92.2217 255.566 85.169C244.699 77.8887 232.202 72.9841 220.649 72.192C209.097 71.4 200.637 74.87 196.342 81.1812C192.048 87.493 191.966 96.5785 197.025 106.915C202.084 117.253 211.341 126.92 222.208 134.2C232.736 141.253 244.792 146.076 256.04 147.09L257.125 147.177C268.677 147.969 277.138 144.498 281.433 138.187C285.727 131.876 285.808 122.791 280.75 112.454L280.263 111.487ZM255.344 85.5011C265.83 92.5262 274.793 101.773 279.908 111.67L280.391 112.63C285.412 122.89 285.288 131.812 281.102 137.963C276.916 144.114 268.621 147.563 257.153 146.777L256.075 146.692C244.91 145.685 232.916 140.893 222.43 133.868C211.605 126.617 202.406 116.998 197.385 106.739C192.364 96.4791 192.488 87.5578 196.673 81.4064C200.859 75.2544 209.153 71.8044 220.622 72.5907C232.089 73.377 244.519 78.2497 255.344 85.5011Z" fill="#0B4D5E"/>
<path d="M222.093 73.0777C244.458 74.6119 270.525 92.0742 280.317 112.083C290.109 132.092 279.918 147.068 257.555 145.535C235.192 144.002 209.125 126.54 199.332 106.53C189.539 86.5221 199.73 71.5445 222.093 73.0777Z" fill="#F0F4FF"/>
<path d="M280.497 111.995C275.582 101.952 266.589 92.559 256.031 85.4862C245.473 78.4134 233.332 73.6482 222.107 72.8782L221.064 72.818C210.374 72.322 202.532 75.6718 198.489 81.6134C194.446 87.5555 194.245 96.0264 198.705 105.68L199.152 106.617C204.067 116.661 213.06 126.054 223.618 133.127C234.176 140.2 246.317 144.965 257.542 145.734C268.765 146.504 276.986 143.132 281.16 136.999C285.333 130.865 285.411 122.038 280.497 111.995ZM255.808 85.8184C266.323 92.8625 275.261 102.206 280.138 112.171C285.015 122.137 284.893 130.801 280.829 136.775C276.764 142.749 268.709 146.099 257.569 145.335C246.431 144.571 234.356 139.839 223.841 132.795C213.326 125.751 204.388 116.407 199.511 106.442L199.068 105.511C194.645 95.9372 194.882 87.6253 198.819 81.8385C202.757 76.0511 210.44 72.7258 221.044 73.218L222.08 73.2769C233.219 74.041 245.293 78.7744 255.808 85.8184Z" fill="#0B4D5E"/>
<path d="M225.11 77.7067C243.853 78.9912 265.702 93.6283 273.909 110.397C282.117 127.168 273.576 139.72 254.831 138.435C236.088 137.15 214.239 122.513 206.033 105.743C197.825 88.9746 206.367 76.421 225.111 77.7055L225.11 77.7067Z" fill="#0B4D5E"/>
<path d="M273.693 109.521C269.494 101.395 262.147 93.824 253.572 88.0791C244.838 82.2287 234.812 78.2615 225.504 77.5362L225.508 77.5316L225.124 77.5059L224.249 77.4556C215.283 77.0399 208.697 79.8494 205.3 84.8416C201.793 89.9957 201.731 97.4083 205.854 105.831L205.852 105.831C209.975 114.255 217.517 122.132 226.369 128.062C234.945 133.807 244.768 137.737 253.933 138.564L254.818 138.634C264.231 139.279 271.137 136.453 274.643 131.299C278.15 126.145 278.212 118.732 274.089 110.309L273.693 109.521ZM253.349 88.4112C261.883 94.1283 269.176 101.652 273.337 109.704L273.73 110.485C277.815 118.832 277.709 126.081 274.312 131.074C270.913 136.068 264.175 138.875 254.844 138.235L253.968 138.165C244.885 137.346 235.126 133.447 226.592 127.73C217.782 121.828 210.297 114.001 206.213 105.655L205.841 104.876C202.137 96.8582 202.339 89.9045 205.63 85.0668C209.009 80.1017 215.688 77.2995 224.933 77.895L225.096 77.9061C234.425 78.5454 244.539 82.5098 253.349 88.4112Z" fill="#0B4D5E"/>
<path d="M225.22 81.4761C242.559 82.6648 262.769 96.2034 270.362 111.717C277.953 127.231 270.053 138.842 252.713 137.653C235.374 136.464 215.164 122.925 207.573 107.412C199.98 91.9005 207.882 80.2884 225.22 81.4761Z" fill="#F0F4FF"/>
<path d="M270.175 110.9C266.289 103.38 259.491 96.3741 251.557 91.0587C243.367 85.5719 233.946 81.8735 225.234 81.2761L224.424 81.2299C216.127 80.8453 210.028 83.4453 206.881 88.0693C203.735 92.6939 203.585 99.2792 207.047 106.772L207.393 107.5C211.208 115.295 218.186 122.584 226.376 128.07C234.31 133.386 243.399 137.022 251.88 137.787L252.7 137.852C261.411 138.45 267.804 135.834 271.052 131.061C274.3 126.287 274.356 119.424 270.541 111.629L270.175 110.9ZM251.334 91.3908C259.227 96.6784 265.971 103.637 269.818 111.083L270.182 111.805C273.959 119.523 273.86 126.223 270.721 130.836C267.582 135.45 261.355 138.045 252.727 137.453L251.916 137.389C243.517 136.631 234.492 133.025 226.599 127.738C218.452 122.28 211.529 115.041 207.752 107.324L207.41 106.604C203.984 99.1896 204.171 92.7629 207.212 88.2937C210.254 83.8241 216.193 81.2486 224.404 81.6293L225.206 81.6756C233.833 82.267 243.187 85.9328 251.334 91.3908Z" fill="#0B4D5E"/>
<path d="M204.725 220.122C205.746 220.808 207.133 220.567 207.861 219.565L246.157 166.822C246.903 165.796 246.674 164.363 245.648 163.618C244.618 162.858 243.188 163.101 242.444 164.127L204.148 216.871C203.403 217.896 203.632 219.329 204.657 220.074C204.679 220.092 204.703 220.108 204.727 220.122L204.725 220.122Z" fill="#8AE5CC"/>
<path d="M245.767 163.457C244.716 162.681 243.283 162.867 242.442 163.812L242.282 164.01L203.986 216.754C203.176 217.869 203.425 219.426 204.54 220.236L204.54 220.236C204.569 220.258 204.598 220.278 204.618 220.291L204.619 220.29C205.728 221.032 207.232 220.77 208.022 219.683L246.319 166.939L246.459 166.726C247.095 165.633 246.811 164.218 245.767 163.458L245.767 163.457ZM245.697 163.915C246.436 164.575 246.611 165.668 246.113 166.525L245.995 166.704L207.699 219.447C207.034 220.362 205.768 220.581 204.837 219.955L204.811 219.992L204.834 219.954C204.81 219.939 204.794 219.929 204.783 219.919L204.775 219.913L204.658 220.074L204.652 220.082L204.775 219.913C203.838 219.232 203.63 217.925 204.31 216.989L242.606 164.245L242.741 164.078C243.448 163.282 244.65 163.13 245.529 163.779L245.697 163.915Z" fill="#0B4D5E"/>
<path d="M186.915 217.796C187.963 218.5 189.381 218.228 190.092 217.184L228.287 161.114C228.999 160.068 228.729 158.64 227.682 157.926L227.671 157.918C226.625 157.215 225.204 157.487 224.494 158.531L186.299 214.601C185.587 215.647 185.856 217.075 186.904 217.789L186.915 217.796Z" fill="#0B4D5E"/>
<path d="M227.807 157.771L227.808 157.77L227.79 157.756L227.783 157.751C226.716 157.035 225.293 157.25 224.482 158.215L224.328 158.418L186.134 214.488C185.407 215.554 185.62 216.986 186.588 217.8L186.791 217.954L186.796 217.957L186.896 217.801L186.906 217.785L186.796 217.957L186.807 217.965L186.808 217.964C187.946 218.726 189.485 218.43 190.257 217.297L228.452 161.227L228.585 161.009C229.184 159.903 228.864 158.501 227.807 157.771ZM227.74 158.221C228.499 158.859 228.704 159.948 228.232 160.819L228.121 161.001L189.927 217.071C189.319 217.965 188.142 218.239 187.21 217.74L187.027 217.63L187.023 217.628L186.926 217.781L186.917 217.793L187.023 217.628L187.012 217.62L187.012 217.621C186.06 216.968 185.815 215.666 186.464 214.712L224.659 158.643L224.788 158.473C225.467 157.665 226.659 157.483 227.554 158.08L227.562 158.087L227.569 158.091L227.74 158.221Z" fill="#0B4D5E"/>
<path d="M170.498 210.958C171.544 211.661 172.964 211.389 173.674 210.346L212.509 153.334C213.222 152.288 212.952 150.86 211.905 150.146L211.894 150.137C210.846 149.433 209.427 149.707 208.716 150.751L169.882 207.762C169.169 208.808 169.439 210.237 170.486 210.95L170.498 210.958Z" fill="#0B4D5E"/>
<path d="M212.029 149.991L212.03 149.99L212.012 149.976L212.005 149.971C210.938 149.254 209.515 149.47 208.705 150.435L208.551 150.638L169.716 207.649C168.99 208.716 169.203 210.147 170.17 210.961L170.374 211.115L170.379 211.118L170.478 210.963L170.489 210.946L170.379 211.118L170.39 211.126L170.391 211.125C171.527 211.886 173.068 211.591 173.84 210.458L212.675 153.447L212.807 153.228C213.406 152.122 213.086 150.72 212.029 149.991ZM211.792 150.311C212.688 150.922 212.961 152.106 212.455 153.039L212.344 153.221L173.509 210.233C172.861 211.185 171.565 211.433 170.61 210.792L170.606 210.789L170.508 210.942L170.499 210.955L170.605 210.789L170.594 210.781L170.595 210.782C169.642 210.13 169.397 208.827 170.047 207.874L208.882 150.863L209.01 150.693C209.689 149.884 210.88 149.702 211.776 150.3L211.785 150.307L211.792 150.311L211.904 150.146L211.908 150.14L211.792 150.311Z" fill="#0B4D5E"/>
<path d="M170.498 210.958C171.544 211.661 172.964 211.389 173.674 210.346L212.509 153.334C213.222 152.288 212.952 150.86 211.905 150.146L211.894 150.137C210.846 149.433 209.427 149.707 208.716 150.751L169.882 207.762C169.169 208.808 169.439 210.237 170.486 210.95L170.498 210.958Z" fill="#0B4D5E"/>
<path d="M212.029 149.991L212.03 149.99L212.012 149.976L212.005 149.971C210.938 149.254 209.515 149.47 208.705 150.435L208.551 150.638L169.716 207.649C168.99 208.716 169.203 210.147 170.17 210.961L170.374 211.115L170.379 211.118L170.478 210.963L170.489 210.946L170.379 211.118L170.39 211.126L170.391 211.125C171.527 211.886 173.068 211.591 173.84 210.458L212.675 153.447L212.807 153.228C213.406 152.122 213.086 150.72 212.029 149.991ZM211.792 150.311C212.688 150.922 212.961 152.106 212.455 153.039L212.344 153.221L173.509 210.233C172.861 211.185 171.565 211.433 170.61 210.792L170.606 210.789L170.508 210.942L170.499 210.955L170.605 210.789L170.594 210.781L170.595 210.782C169.642 210.13 169.397 208.827 170.047 207.874L208.882 150.863L209.01 150.693C209.689 149.884 210.88 149.702 211.776 150.3L211.785 150.307L211.792 150.311L211.904 150.146L211.908 150.14L211.792 150.311Z" fill="#0B4D5E"/>
<path d="M150.629 181.716C150.656 181.734 150.683 181.752 150.71 181.77C151.79 182.431 153.201 182.094 153.865 181.014L187.084 126.876C187.748 125.796 187.45 124.392 186.329 123.721C185.249 123.06 183.838 123.397 183.174 124.477L149.954 178.615C149.309 179.668 149.614 181.033 150.629 181.716Z" fill="#0B4D5E"/>
<path d="M186.431 123.55L186.432 123.551C185.258 122.833 183.725 123.199 183.004 124.372L149.785 178.511C149.083 179.655 149.415 181.139 150.517 181.882L150.519 181.883L150.559 181.911L150.6 181.937L150.606 181.94C151.779 182.659 153.314 182.293 154.035 181.119L187.255 126.981L187.377 126.758C187.93 125.622 187.576 124.235 186.431 123.55ZM186.329 123.722L186.224 123.892L186.226 123.893L186.409 124.016C187.22 124.62 187.454 125.689 187.018 126.583L186.914 126.772L153.694 180.909C153.089 181.894 151.803 182.202 150.818 181.601C150.805 181.593 150.792 181.585 150.78 181.577C150.767 181.568 150.754 181.559 150.742 181.551C149.815 180.927 149.536 179.681 150.125 178.72L183.345 124.581C183.951 123.596 185.239 123.289 186.224 123.892L186.372 123.65L186.329 123.722Z" fill="#0B4D5E"/>
<path d="M157.456 199.828L157.466 199.836C158.523 200.536 159.946 200.248 160.646 199.194L198.173 142.673C198.871 141.621 198.588 140.204 197.541 139.501L197.531 139.492C196.474 138.792 195.051 139.08 194.351 140.135L156.824 196.656C156.127 197.708 156.409 199.125 157.456 199.828Z" fill="#0B4D5E"/>
<path d="M197.666 139.345L197.667 139.345L197.65 139.33L197.641 139.325L197.421 139.195C196.377 138.647 195.084 138.908 194.336 139.819L194.185 140.024L156.658 196.545C155.902 197.684 156.205 199.215 157.33 199.983L157.33 199.984L157.348 199.998L157.356 200.004L157.466 199.836L157.47 199.832L157.356 200.004C158.504 200.764 160.052 200.451 160.813 199.305L198.339 142.783L198.469 142.565C199.054 141.455 198.722 140.065 197.666 139.345ZM197.43 139.666C198.325 140.268 198.608 141.443 198.115 142.379L198.006 142.563L160.479 199.083C159.842 200.044 158.547 200.307 157.583 199.673L157.574 199.666L157.567 199.662C156.612 199.02 156.354 197.727 156.991 196.766L194.518 140.245L194.645 140.073C195.316 139.255 196.511 139.061 197.415 139.655L197.422 139.662L197.43 139.666Z" fill="#0B4D5E"/>
<path d="M152.647 181.312C152.673 181.329 152.698 181.347 152.726 181.364C153.761 181.997 155.114 181.674 155.75 180.638L187.594 128.743C188.23 127.707 187.944 126.361 186.871 125.718C185.836 125.085 184.482 125.408 183.847 126.444L152.003 178.339C151.383 179.348 151.674 180.658 152.647 181.312Z" fill="#8AE5CC"/>
<path d="M186.974 125.547L186.974 125.548C185.915 124.901 184.553 125.169 183.815 126.136L183.677 126.339L151.832 178.235C151.156 179.335 151.473 180.765 152.536 181.478L152.538 181.48L152.647 181.312L152.688 181.251L152.538 181.48C152.552 181.489 152.592 181.517 152.624 181.535L152.624 181.535C153.753 182.224 155.227 181.872 155.92 180.743L187.765 128.847L187.882 128.632C188.413 127.54 188.074 126.205 186.974 125.547ZM186.768 125.89C187.681 126.436 187.968 127.543 187.522 128.458L187.423 128.638L155.579 180.534C155.038 181.416 153.922 181.73 153.009 181.291L152.83 181.193L152.828 181.192L152.757 181.145L152.758 181.145C151.874 180.551 151.61 179.361 152.173 178.444L184.018 126.548L184.134 126.379C184.707 125.627 185.735 125.381 186.587 125.791L186.767 125.889L186.768 125.89L186.856 125.743L186.871 125.719L186.768 125.89Z" fill="#0B4D5E"/>
<path d="M204.575 218.28C204.549 218.263 204.524 218.245 204.498 218.226C203.521 217.506 203.324 216.109 204.06 215.105L240.933 164.824C241.669 163.82 243.036 163.557 244.035 164.311C245.013 165.031 245.21 166.428 244.474 167.432L207.601 217.714C206.884 218.692 205.547 218.933 204.575 218.28Z" fill="#0B4D5E"/>
<path d="M244.156 164.151C243.06 163.325 241.567 163.62 240.772 164.706L203.899 214.987C203.101 216.076 203.31 217.599 204.38 218.387L204.381 218.388L204.498 218.226L204.539 218.171L204.381 218.388C204.406 218.406 204.434 218.426 204.464 218.446L204.463 218.447C205.528 219.161 206.984 218.893 207.762 217.831L244.635 167.551L244.773 167.341C245.403 166.274 245.156 164.892 244.156 164.153L244.156 164.151ZM243.917 164.472C244.746 165.084 244.96 166.239 244.429 167.138L244.313 167.314L207.44 217.595L207.439 217.596L207.6 217.713L207.601 217.714L207.439 217.596C206.784 218.49 205.567 218.705 204.687 218.114L204.684 218.113L204.575 218.28L204.556 218.309L204.684 218.113C204.663 218.099 204.644 218.083 204.618 218.064C203.733 217.412 203.548 216.142 204.221 215.223L241.095 164.942L241.227 164.778C241.924 163.995 243.068 163.833 243.915 164.471L244.073 164.261L243.917 164.472ZM243.915 164.471L243.917 164.472L244.036 164.311L243.915 164.471Z" fill="#0B4D5E"/>
<path d="M159.006 199.479L159.015 199.487C160.034 200.162 161.408 199.885 162.084 198.866L198.286 144.342C198.96 143.328 198.687 141.962 197.677 141.282L197.667 141.274C196.648 140.599 195.275 140.876 194.598 141.895L158.396 196.418C157.723 197.433 157.996 198.799 159.006 199.479Z" fill="#8AE5CC"/>
<path d="M197.802 141.127L197.803 141.127L197.786 141.113L197.778 141.108C196.736 140.417 195.355 140.64 194.579 141.585L194.432 141.784L158.23 196.307C157.498 197.409 157.791 198.89 158.881 199.634L158.88 199.635L158.897 199.648L158.905 199.653L159.015 199.486L159.019 199.482L158.905 199.653C160.016 200.389 161.513 200.087 162.251 198.977L198.453 144.453L198.579 144.242C199.145 143.169 198.823 141.825 197.802 141.127ZM197.73 141.571C198.46 142.177 198.667 143.216 198.225 144.055L198.12 144.232L161.917 198.755C161.303 199.68 160.058 199.933 159.131 199.323L159.125 199.317L159.117 199.313C158.198 198.694 157.95 197.452 158.563 196.529L194.764 142.005L194.887 141.839C195.491 141.103 196.536 140.892 197.379 141.336L197.556 141.441L197.565 141.448L197.73 141.571Z" fill="#0B4D5E"/>
<path d="M188.511 217.479L188.502 217.471C187.491 216.783 187.23 215.407 187.917 214.397L224.763 160.307C225.449 159.302 226.818 159.037 227.828 159.716L227.837 159.724C228.848 160.412 229.109 161.788 228.422 162.798L191.576 216.888C190.89 217.894 189.521 218.158 188.511 217.479Z" fill="#8AE5CC"/>
<path d="M227.962 159.569L227.963 159.569L227.947 159.556L227.939 159.551C226.838 158.81 225.345 159.098 224.598 160.194L224.764 160.307L224.757 160.302L224.598 160.194L224.597 160.194L187.752 214.285C187.006 215.382 187.285 216.873 188.377 217.627L188.376 217.627L188.392 217.64L188.4 217.645C189.501 218.386 190.994 218.097 191.741 217.001L228.588 162.911L228.716 162.7C229.295 161.63 228.985 160.275 227.962 159.569ZM227.725 159.89C228.587 160.477 228.85 161.614 228.364 162.51L228.256 162.686L191.41 216.776C190.788 217.688 189.546 217.93 188.628 217.316L188.621 217.31L188.614 217.306C187.694 216.68 187.457 215.428 188.082 214.51L224.929 160.419C225.514 159.562 226.645 159.297 227.541 159.777L227.716 159.883L227.725 159.89L227.837 159.724L227.841 159.719L227.725 159.89Z" fill="#0B4D5E"/>
<path d="M172.231 210.303C173.22 210.968 174.574 210.695 175.259 209.689L212.717 154.684C213.405 153.674 213.161 152.308 212.171 151.633L212.161 151.625C211.171 150.96 209.818 151.235 209.133 152.241L171.674 207.246C170.987 208.256 171.231 209.622 172.221 210.297L172.231 210.303Z" fill="#8AE5CC"/>
<path d="M212.296 151.478L212.297 151.477L212.281 151.464L212.273 151.459C211.257 150.776 209.895 151.001 209.116 151.933L208.968 152.129L171.509 207.133C170.762 208.231 171.023 209.723 172.108 210.462L172.221 210.295L172.215 210.306L172.108 210.462L172.115 210.467L172.126 210.474L172.127 210.473C173.209 211.195 174.681 210.893 175.424 209.801L212.883 154.796L213.011 154.586C213.591 153.519 213.302 152.173 212.296 151.478ZM172.231 210.303L172.239 210.292L172.268 210.244L172.231 210.303ZM212.059 151.798C212.898 152.371 213.148 153.497 212.659 154.395L212.553 154.571L175.093 209.576L174.97 209.74C174.317 210.521 173.181 210.701 172.342 210.137L172.337 210.133L172.336 210.134L172.333 210.131C171.438 209.52 171.212 208.28 171.84 207.358L209.298 152.354L209.423 152.189C210.074 151.409 211.205 151.228 212.044 151.788L212.052 151.794L212.059 151.798L212.171 151.633L212.175 151.627L212.059 151.798Z" fill="#0B4D5E"/>
<path d="M232.716 118.621C237.287 121.695 242.245 123.554 246.701 123.853C250.876 124.137 254.012 123.025 255.565 120.713C257.102 118.429 256.958 115.15 255.156 111.453C253.673 108.436 251.246 105.465 248.143 102.894C247.671 102.5 247.198 102.104 246.683 101.718C246.179 101.341 245.667 100.977 245.132 100.617C244.572 100.24 243.987 99.8663 243.413 99.5383C242.9 99.233 242.379 98.9397 241.862 98.6697C238.275 96.7612 234.559 95.6212 231.148 95.384C226.995 95.0943 223.838 96.2111 222.284 98.5237C220.746 100.808 220.891 104.087 222.701 107.771C224.624 111.722 228.187 115.574 232.716 118.621Z" fill="#8AE5CC"/>
<path d="M222.118 98.412C220.523 100.782 220.698 104.145 222.523 107.859L222.521 107.859C224.341 111.599 227.611 115.241 231.763 118.204L232.605 118.787C237.197 121.875 242.189 123.751 246.688 124.053L246.701 123.854L246.715 123.654L246.714 123.654C242.301 123.358 237.376 121.513 232.828 118.455L231.994 117.877C227.885 114.945 224.666 111.352 222.881 107.683L222.88 107.683L222.718 107.342C221.08 103.831 221.016 100.766 222.449 98.6356L222.118 98.412ZM248.271 102.741C247.8 102.347 247.323 101.948 246.803 101.558L246.035 100.998C245.776 100.815 245.513 100.633 245.244 100.453L245.244 100.452C244.682 100.073 244.092 99.6962 243.512 99.365L243.513 99.3656C242.999 99.0591 242.474 98.764 241.954 98.4925L241.955 98.4931C238.348 96.5742 234.605 95.4243 231.162 95.1847L230.772 95.1617C226.775 94.9643 223.679 96.0887 222.118 98.412L222.284 98.5234L222.449 98.6356L222.45 98.6349C223.9 96.4778 226.824 95.3672 230.751 95.5612L231.134 95.5842C234.512 95.8192 238.201 96.9488 241.767 98.8464L241.769 98.8476L242.541 99.2652C242.799 99.4095 243.056 99.5584 243.31 99.7102L243.443 99.4863L243.313 99.7127C243.74 99.9562 244.173 100.225 244.598 100.503L245.02 100.784L245.803 101.325L246.563 101.878C247.073 102.261 247.542 102.653 248.014 103.048L248.015 103.048L248.128 102.912L248.163 102.869L248.015 103.048C251.1 105.605 253.509 108.554 254.978 111.541L254.976 111.541C256.708 115.094 256.87 118.202 255.533 120.393L255.399 120.602C253.903 122.828 250.857 123.936 246.715 123.654L246.688 124.053C250.895 124.339 254.12 123.222 255.731 120.825L255.875 120.6C257.313 118.244 257.095 114.976 255.336 111.366L255.336 111.365L255.044 110.795C253.529 107.947 251.196 105.166 248.27 102.742L248.271 102.741ZM243.31 99.7102L243.313 99.7127L243.413 99.5381L243.31 99.7102Z" fill="#0B4D5E"/>
<path d="M226.117 83.6216C231.279 83.9689 236.695 85.4962 241.933 87.8928C243.409 88.5552 244.867 89.3033 246.324 90.108C248.747 91.4665 251.104 93.0126 253.34 94.7096C254.604 95.6568 255.838 96.68 257.016 97.7254C261.707 101.889 265.568 106.679 268.036 111.696C275.08 126.096 267.746 136.884 251.646 135.777C235.546 134.673 216.772 122.105 209.73 107.703C202.673 93.2941 210.019 82.5147 226.12 83.6213L226.117 83.6216ZM239.205 129.372C243.348 131.033 247.48 132.045 251.36 132.307C258.133 132.769 263.263 130.939 265.824 127.132C268.359 123.364 268.131 117.99 265.207 112.007C262.115 105.696 256.446 99.5546 249.217 94.693C241.934 89.7958 234.01 86.8333 226.893 86.3347C220.12 85.8735 214.994 87.7246 212.442 91.5194C209.908 95.2874 210.123 100.653 213.06 106.645C214.991 110.583 217.932 114.463 221.621 118.01C221.99 118.355 222.373 118.709 222.755 119.065C223.36 119.608 223.987 120.146 224.637 120.68C224.775 120.791 224.926 120.913 225.077 121.035C225.398 121.31 225.735 121.557 226.075 121.803C227.023 122.557 228.02 123.267 229.037 123.95C231.763 125.783 234.588 127.353 237.423 128.62C238.02 128.885 238.603 129.142 239.205 129.372ZM224.377 89.7853C224.436 89.7856 224.502 89.772 224.547 89.7629C226.102 89.4696 227.827 89.3877 229.72 89.5163C241.798 90.3422 255.872 99.7692 261.156 110.58C261.949 112.201 262.496 113.753 262.808 115.223C265.344 124.38 259.632 130.765 248.657 130.002C236.204 129.157 221.689 119.433 216.236 108.295C211.484 98.597 215.154 91.0331 224.376 89.7844L224.377 89.7853ZM235.557 122.707C235.677 122.789 235.793 122.847 235.895 122.896C236.425 123.174 236.952 123.432 237.5 123.684C241.262 125.419 245.063 126.461 248.591 126.699C253.673 127.05 257.515 125.694 259.411 122.875C261.29 120.082 261.108 116.08 258.893 111.582C256.545 106.763 252.205 102.079 246.688 98.3669C241.129 94.6288 235.068 92.3569 229.635 91.9831C224.568 91.641 220.726 92.9972 218.83 95.8162C216.96 98.5953 217.132 102.612 219.333 107.1C220.936 110.371 223.456 113.579 226.624 116.486C227.015 116.827 227.42 117.178 227.834 117.514C228.074 117.733 228.311 117.932 228.57 118.125C229.509 118.893 230.511 119.625 231.54 120.316C232.581 121.017 233.637 121.669 234.716 122.259C234.992 122.425 235.276 122.577 235.557 122.707Z" fill="#0B4D5E"/>
<path d="M232.716 118.621C237.287 121.695 242.245 123.554 246.701 123.853C250.876 124.137 254.012 123.025 255.565 120.713C257.102 118.429 256.958 115.15 255.156 111.453C253.673 108.436 251.246 105.465 248.143 102.894C247.671 102.5 247.198 102.104 246.683 101.718C246.179 101.341 245.667 100.977 245.132 100.617C244.572 100.24 243.987 99.8663 243.413 99.5383C242.9 99.233 242.379 98.9397 241.862 98.6697C238.275 96.7612 234.559 95.6212 231.148 95.384C226.995 95.0943 223.838 96.2111 222.284 98.5237C220.746 100.808 220.891 104.087 222.701 107.771C224.624 111.722 228.187 115.574 232.716 118.621Z" fill="#8AE5CC"/>
<path d="M222.118 98.412C220.523 100.782 220.698 104.145 222.523 107.859L222.521 107.859C224.341 111.599 227.611 115.241 231.763 118.204L232.605 118.787C237.197 121.875 242.189 123.751 246.688 124.053L246.701 123.854L246.715 123.654L246.714 123.654C242.301 123.358 237.376 121.513 232.828 118.455L231.994 117.877C227.885 114.945 224.666 111.352 222.881 107.683L222.88 107.683L222.718 107.342C221.08 103.831 221.016 100.766 222.449 98.6356L222.118 98.412ZM248.271 102.741C247.8 102.347 247.323 101.948 246.803 101.558L246.035 100.998C245.776 100.815 245.513 100.633 245.244 100.453L245.244 100.452C244.682 100.073 244.092 99.6962 243.512 99.365L243.513 99.3656C242.999 99.0591 242.474 98.764 241.954 98.4925L241.955 98.4931C238.348 96.5742 234.605 95.4243 231.162 95.1847L230.772 95.1617C226.775 94.9643 223.679 96.0887 222.118 98.412L222.284 98.5234L222.449 98.6356L222.45 98.6349C223.9 96.4778 226.824 95.3672 230.751 95.5612L231.134 95.5842C234.512 95.8192 238.201 96.9488 241.767 98.8464L241.769 98.8476L242.541 99.2652C242.799 99.4095 243.056 99.5584 243.31 99.7102L243.443 99.4863L243.313 99.7127C243.74 99.9562 244.173 100.225 244.598 100.503L245.02 100.784L245.803 101.325L246.563 101.878C247.073 102.261 247.542 102.653 248.014 103.048L248.015 103.048L248.128 102.912L248.163 102.869L248.015 103.048C251.1 105.605 253.509 108.554 254.978 111.541L254.976 111.541C256.708 115.094 256.87 118.202 255.533 120.393L255.399 120.602C253.903 122.828 250.857 123.936 246.715 123.654L246.688 124.053C250.895 124.339 254.12 123.222 255.731 120.825L255.875 120.6C257.313 118.244 257.095 114.976 255.336 111.366L255.336 111.365L255.044 110.795C253.529 107.947 251.196 105.166 248.27 102.742L248.271 102.741ZM243.31 99.7102L243.313 99.7127L243.413 99.5381L243.31 99.7102Z" fill="#0B4D5E"/>
<path d="M226.974 83.9055C231.845 84.2501 236.984 85.6699 241.933 87.8919C243.409 88.5543 244.867 89.3024 246.324 90.1071C248.747 91.4656 251.104 93.0117 253.34 94.7087C254.604 95.6559 255.838 96.6791 257.016 97.7245C261.427 101.699 265.079 106.252 267.413 111.003C274.23 124.903 267.136 135.307 251.612 134.239C236.079 133.184 217.969 121.044 211.165 107.153C204.37 93.2492 211.442 82.8502 226.975 83.9043L226.974 83.9055ZM222.754 119.063C223.359 119.606 223.986 120.144 224.636 120.678C224.774 120.789 224.925 120.911 225.076 121.033C225.397 121.308 225.734 121.555 226.074 121.801C227.022 122.555 228.019 123.265 229.036 123.948C231.762 125.781 234.586 127.351 237.422 128.618C238.019 128.884 238.603 129.141 239.205 129.371C243.348 131.032 247.48 132.044 251.36 132.306C258.133 132.768 263.263 130.938 265.825 127.131C268.359 123.363 268.131 117.989 265.207 112.006C262.115 105.695 256.446 99.5537 249.217 94.6921C241.934 89.7949 234.01 86.8324 226.893 86.3338C220.12 85.8726 214.994 87.7237 212.442 91.5185C209.908 95.2865 210.123 100.652 213.06 106.644C214.991 110.582 217.932 114.462 221.621 118.009C221.99 118.354 222.372 118.708 222.754 119.063ZM224.377 89.7844C224.436 89.7847 224.502 89.7711 224.547 89.762C226.102 89.4687 227.827 89.3868 229.72 89.5154C241.798 90.3413 255.872 99.7683 261.156 110.58C261.949 112.2 262.496 113.752 262.808 115.222C265.344 124.379 259.632 130.764 248.657 130.001C236.204 129.156 221.689 119.432 216.236 108.294C211.484 98.5961 215.154 91.0322 224.376 89.7835L224.377 89.7844ZM235.557 122.706C235.677 122.788 235.793 122.846 235.895 122.895C236.425 123.174 236.952 123.432 237.5 123.683C241.262 125.418 245.063 126.46 248.591 126.698C253.673 127.049 257.515 125.693 259.411 122.874C261.29 120.081 261.108 116.079 258.893 111.581C256.545 106.762 252.205 102.078 246.688 98.366C241.129 94.6279 235.068 92.356 229.635 91.9822C224.568 91.6401 220.726 92.9963 218.83 95.8152C216.96 98.5944 217.133 102.611 219.333 107.099C220.936 110.37 223.456 113.579 226.624 116.485C227.015 116.826 227.42 117.177 227.835 117.513C228.074 117.732 228.311 117.931 228.57 118.124C229.509 118.892 230.511 119.624 231.54 120.315C232.581 121.016 233.637 121.668 234.716 122.258C234.992 122.424 235.276 122.576 235.557 122.706Z" fill="#F0F4FF"/>
<path d="M232.716 118.621C237.287 121.695 242.245 123.554 246.701 123.853C250.876 124.137 254.012 123.025 255.565 120.713C257.102 118.429 256.958 115.15 255.156 111.453C253.673 108.436 251.246 105.465 248.143 102.894C247.671 102.5 247.198 102.104 246.683 101.718C246.179 101.341 245.667 100.977 245.132 100.617C244.572 100.24 243.987 99.8663 243.413 99.5383C242.9 99.233 242.379 98.9397 241.862 98.6697C238.275 96.7612 234.559 95.6212 231.148 95.384C226.995 95.0943 223.838 96.2111 222.284 98.5237C220.746 100.808 220.891 104.087 222.701 107.771C224.624 111.722 228.187 115.574 232.716 118.621Z" fill="#8AE5CC"/>
<path d="M222.118 98.412C220.523 100.782 220.698 104.145 222.523 107.859L222.521 107.859C224.341 111.599 227.611 115.241 231.763 118.204L232.605 118.787C237.197 121.875 242.189 123.751 246.688 124.053L246.701 123.854L246.715 123.654L246.714 123.654C242.301 123.358 237.376 121.513 232.828 118.455L231.994 117.877C227.885 114.945 224.666 111.352 222.881 107.683L222.88 107.683L222.718 107.342C221.08 103.831 221.016 100.766 222.449 98.6356L222.118 98.412ZM248.271 102.741C247.8 102.347 247.323 101.948 246.803 101.558L246.035 100.998C245.776 100.815 245.513 100.633 245.244 100.453L245.244 100.452C244.682 100.073 244.092 99.6962 243.512 99.365L243.513 99.3656C242.999 99.0591 242.474 98.764 241.954 98.4925L241.955 98.4931C238.348 96.5742 234.605 95.4243 231.162 95.1847L230.772 95.1617C226.775 94.9643 223.679 96.0887 222.118 98.412L222.284 98.5234L222.449 98.6356L222.45 98.6349C223.9 96.4778 226.824 95.3672 230.751 95.5612L231.134 95.5842C234.512 95.8192 238.201 96.9488 241.767 98.8464L241.769 98.8476L242.541 99.2652C242.799 99.4095 243.056 99.5584 243.31 99.7102L243.443 99.4863L243.313 99.7127C243.74 99.9562 244.173 100.225 244.598 100.503L245.02 100.784L245.803 101.325L246.563 101.878C247.073 102.261 247.542 102.653 248.014 103.048L248.015 103.048L248.128 102.912L248.163 102.869L248.015 103.048C251.1 105.605 253.509 108.554 254.978 111.541L254.976 111.541C256.708 115.094 256.87 118.202 255.533 120.393L255.399 120.602C253.903 122.828 250.857 123.936 246.715 123.654L246.688 124.053C250.895 124.339 254.12 123.222 255.731 120.825L255.875 120.6C257.313 118.244 257.095 114.976 255.336 111.366L255.336 111.365L255.044 110.795C253.529 107.947 251.196 105.166 248.27 102.742L248.271 102.741ZM243.31 99.7102L243.313 99.7127L243.413 99.5381L243.31 99.7102Z" fill="#0B4D5E"/>
<path d="M226.842 85.7186C234.098 86.2132 242.16 89.2284 249.563 94.2063C256.898 99.1403 262.648 105.394 265.792 111.798C268.774 117.897 269.006 123.351 266.427 127.187C263.829 131.049 258.601 132.907 251.735 132.442C247.725 132.172 243.46 131.126 239.206 129.372C243.348 131.033 247.48 132.044 251.36 132.307C258.133 132.768 263.264 130.938 265.825 127.131C268.359 123.363 268.131 117.989 265.208 112.006C262.115 105.696 256.446 99.5539 249.217 94.6923C241.935 89.7951 234.01 86.8326 226.894 86.334C220.12 85.8728 214.995 87.7239 212.443 91.5187C209.909 95.2867 210.124 100.652 213.06 106.644C214.991 110.583 217.933 114.462 221.622 118.009C217.805 114.394 214.761 110.407 212.785 106.361C209.818 100.272 209.585 94.8167 212.165 90.9818C214.762 87.1213 219.976 85.2531 226.844 85.7184L226.842 85.7186ZM224.377 89.7858C224.436 89.7861 224.502 89.7725 224.546 89.7634C226.102 89.4701 227.827 89.3882 229.72 89.5168C241.797 90.3427 255.871 99.7697 261.156 110.581C261.949 112.202 262.496 113.754 262.807 115.223C265.343 124.38 259.631 130.766 248.656 130.003C236.203 129.157 221.689 119.433 216.236 108.295C211.484 98.5975 215.153 91.0336 224.376 89.7849L224.377 89.7858ZM235.556 122.708C235.677 122.789 235.793 122.848 235.895 122.897C236.425 123.175 236.952 123.433 237.499 123.684C241.262 125.42 245.063 126.462 248.591 126.699C253.672 127.051 257.514 125.695 259.41 122.876C261.289 120.082 261.108 116.08 258.893 111.583C256.545 106.763 252.205 102.079 246.688 98.3674C241.128 94.6293 235.068 92.3574 229.635 91.9836C224.568 91.6415 220.726 92.9977 218.83 95.8166C216.96 98.5958 217.132 102.612 219.333 107.1C220.936 110.371 223.456 113.58 226.624 116.487C227.015 116.828 227.42 117.178 227.834 117.515C228.074 117.734 228.31 117.933 228.569 118.126C229.508 118.893 230.511 119.626 231.539 120.316C232.581 121.018 233.637 121.669 234.716 122.259C234.992 122.425 235.276 122.578 235.556 122.708Z" fill="#0B4D5E"/>
<path d="M232.716 118.621C237.287 121.695 242.245 123.554 246.701 123.853C250.876 124.137 254.012 123.025 255.565 120.713C257.102 118.429 256.958 115.15 255.156 111.453C253.673 108.436 251.246 105.465 248.143 102.894C247.671 102.5 247.198 102.104 246.683 101.718C246.179 101.341 245.667 100.977 245.132 100.617C244.572 100.24 243.987 99.8663 243.413 99.5383C242.9 99.233 242.379 98.9397 241.862 98.6697C238.275 96.7612 234.559 95.6212 231.148 95.384C226.995 95.0943 223.838 96.2111 222.284 98.5237C220.746 100.808 220.891 104.087 222.701 107.771C224.624 111.722 228.187 115.574 232.716 118.621Z" fill="#8AE5CC"/>
<path d="M222.118 98.412C220.523 100.782 220.698 104.145 222.523 107.859L222.521 107.859C224.341 111.599 227.611 115.241 231.763 118.204L232.605 118.787C237.197 121.875 242.189 123.751 246.688 124.053L246.701 123.854L246.715 123.654L246.714 123.654C242.301 123.358 237.376 121.513 232.828 118.455L231.994 117.877C227.885 114.945 224.666 111.352 222.881 107.683L222.88 107.683L222.718 107.342C221.08 103.831 221.016 100.766 222.449 98.6356L222.118 98.412ZM248.271 102.741C247.8 102.347 247.323 101.948 246.803 101.558L246.035 100.998C245.776 100.815 245.513 100.633 245.244 100.453L245.244 100.452C244.682 100.073 244.092 99.6962 243.512 99.365L243.513 99.3656C242.999 99.0591 242.474 98.764 241.954 98.4925L241.955 98.4931C238.348 96.5742 234.605 95.4243 231.162 95.1847L230.772 95.1617C226.775 94.9643 223.679 96.0887 222.118 98.412L222.284 98.5234L222.449 98.6356L222.45 98.6349C223.9 96.4778 226.824 95.3672 230.751 95.5612L231.134 95.5842C234.512 95.8192 238.201 96.9488 241.767 98.8464L241.769 98.8476L242.541 99.2652C242.799 99.4095 243.056 99.5584 243.31 99.7102L243.443 99.4863L243.313 99.7127C243.74 99.9562 244.173 100.225 244.598 100.503L245.02 100.784L245.803 101.325L246.563 101.878C247.073 102.261 247.542 102.653 248.014 103.048L248.015 103.048L248.128 102.912L248.163 102.869L248.015 103.048C251.1 105.605 253.509 108.554 254.978 111.541L254.976 111.541C256.708 115.094 256.87 118.202 255.533 120.393L255.399 120.602C253.903 122.828 250.857 123.936 246.715 123.654L246.688 124.053C250.895 124.339 254.12 123.222 255.731 120.825L255.875 120.6C257.313 118.244 257.095 114.976 255.336 111.366L255.336 111.365L255.044 110.795C253.529 107.947 251.196 105.166 248.27 102.742L248.271 102.741ZM243.31 99.7102L243.313 99.7127L243.413 99.5381L243.31 99.7102Z" fill="#0B4D5E"/>
<path d="M224.377 89.7859C224.436 89.7862 224.501 89.7726 224.546 89.7635C226.102 89.4702 227.826 89.3883 229.719 89.5169C241.797 90.3428 255.871 99.7698 261.155 110.581C261.948 112.202 262.496 113.754 262.807 115.223C265.343 124.38 259.631 130.766 248.656 130.003C236.203 129.157 221.689 119.433 216.236 108.295C211.483 98.5976 215.153 91.0337 224.376 89.785L224.377 89.7859ZM235.556 122.708C235.677 122.789 235.793 122.848 235.895 122.897C236.425 123.175 236.951 123.433 237.499 123.685C241.261 125.42 245.062 126.462 248.591 126.699C253.672 127.051 257.514 125.695 259.41 122.876C261.289 120.083 261.107 116.08 258.893 111.583C256.545 106.763 252.205 102.08 246.687 98.3675C241.128 94.6294 235.067 92.3575 229.635 91.9837C224.567 91.6416 220.725 92.9978 218.829 95.8167C216.96 98.5959 217.132 102.612 219.332 107.1C220.936 110.371 223.455 113.58 226.624 116.487C227.014 116.828 227.419 117.178 227.834 117.515C228.074 117.734 228.31 117.933 228.569 118.126C229.508 118.893 230.51 119.626 231.539 120.317C232.581 121.018 233.637 121.67 234.715 122.259C234.992 122.425 235.276 122.578 235.556 122.708Z" fill="#8AE5CC"/>
<path d="M222.702 107.772C224.625 111.723 228.187 115.574 232.716 118.621C237.287 121.695 242.245 123.554 246.701 123.853C250.876 124.137 254.012 123.025 255.565 120.713C257.102 118.429 256.958 115.15 255.156 111.453C253.673 108.436 251.246 105.465 248.143 102.894C247.671 102.5 247.198 102.104 246.683 101.718C246.179 101.341 245.667 100.977 245.132 100.617C244.572 100.24 243.987 99.8663 243.413 99.5383C242.9 99.233 242.379 98.9397 241.862 98.6697C238.275 96.7612 234.559 95.6212 231.148 95.384C226.995 95.0943 223.838 96.2111 222.284 98.5237C220.746 100.808 220.891 104.087 222.701 107.771L222.702 107.772Z" fill="#8AE5CC"/>
<path d="M222.118 98.412C220.523 100.782 220.697 104.145 222.522 107.859L222.702 107.771L222.701 107.771L222.522 107.859L222.542 107.899L222.542 107.899C224.366 111.626 227.626 115.251 231.763 118.204L232.605 118.787C237.197 121.875 242.189 123.751 246.688 124.053L246.701 123.854L246.715 123.654L246.714 123.654C242.301 123.358 237.376 121.513 232.828 118.455L231.994 117.877C227.885 114.945 224.667 111.353 222.883 107.685L222.862 107.644L222.862 107.644C221.084 104.007 220.975 100.827 222.449 98.6356L222.118 98.412ZM248.271 102.741C247.8 102.347 247.323 101.948 246.803 101.558L246.035 100.998C245.776 100.815 245.513 100.633 245.244 100.453L245.244 100.452C244.682 100.073 244.092 99.6962 243.512 99.365L243.513 99.3656C242.999 99.0591 242.474 98.764 241.954 98.4925L241.955 98.4931C238.348 96.5742 234.605 95.4243 231.162 95.1847L230.772 95.1617C226.775 94.9643 223.679 96.0887 222.118 98.412L222.284 98.5234L222.449 98.6356L222.45 98.6349C223.9 96.4778 226.824 95.3672 230.751 95.5612L231.134 95.5842C234.512 95.8192 238.201 96.9488 241.767 98.8464L241.769 98.8476L242.541 99.2652C242.799 99.4095 243.056 99.5584 243.31 99.7102L243.443 99.4863L243.313 99.7127C243.74 99.9562 244.173 100.225 244.598 100.503L245.02 100.784L245.803 101.325L246.563 101.878C247.073 102.261 247.542 102.653 248.014 103.048L248.015 103.048L248.128 102.912L248.163 102.869L248.015 103.048C251.1 105.605 253.509 108.554 254.978 111.541L254.976 111.541C256.708 115.094 256.87 118.202 255.533 120.393L255.399 120.602C253.903 122.828 250.857 123.936 246.715 123.654L246.688 124.053C250.895 124.339 254.12 123.222 255.731 120.825L255.875 120.6C257.313 118.244 257.095 114.976 255.336 111.366L255.336 111.365L255.044 110.795C253.529 107.947 251.196 105.166 248.27 102.742L248.271 102.741ZM243.31 99.7102L243.313 99.7127L243.413 99.5381L243.31 99.7102Z" fill="#0B4D5E"/>
<path d="M224.378 89.7841C224.436 89.7844 224.502 89.7708 224.547 89.7617C225.892 89.58 227.348 89.5497 228.911 89.6503C241.368 90.5185 255.884 100.242 261.337 111.38C261.979 112.706 262.475 113.988 262.809 115.223C265.345 124.38 259.633 130.765 248.658 130.002C236.205 129.156 221.691 119.433 216.238 108.295C211.485 98.5968 215.155 91.0329 224.378 89.7841ZM235.557 122.706C235.677 122.788 235.793 122.846 235.895 122.895C236.425 123.173 236.952 123.431 237.5 123.683C241.262 125.418 245.063 126.46 248.591 126.698C253.673 127.049 257.515 125.693 259.411 122.874C261.29 120.081 261.108 116.078 258.893 111.581C256.545 106.762 252.205 102.078 246.688 98.3656C241.129 94.6276 235.068 92.3557 229.635 91.9819C224.568 91.6397 220.726 92.996 218.83 95.8149C216.96 98.5941 217.133 102.61 219.333 107.099C220.936 110.369 223.456 113.578 226.624 116.485C227.015 116.826 227.42 117.177 227.835 117.513C228.074 117.732 228.311 117.931 228.57 118.124C229.509 118.892 230.511 119.624 231.54 120.315C232.581 121.016 233.637 121.668 234.716 122.257C234.993 122.424 235.276 122.576 235.557 122.706Z" fill="#0B4D5E"/>
<path d="M222.702 107.772C224.625 111.723 228.187 115.574 232.716 118.621C237.287 121.695 242.245 123.554 246.701 123.853C250.876 124.137 254.012 123.025 255.565 120.713C257.102 118.429 256.958 115.15 255.156 111.453C253.673 108.436 251.246 105.465 248.143 102.894C247.671 102.5 247.198 102.104 246.683 101.718C246.179 101.341 245.667 100.977 245.132 100.617C244.572 100.24 243.987 99.8663 243.413 99.5383C242.9 99.233 242.379 98.9397 241.862 98.6697C238.275 96.7612 234.559 95.6212 231.148 95.384C226.995 95.0943 223.838 96.2111 222.284 98.5237C220.746 100.808 220.891 104.087 222.701 107.771L222.702 107.772Z" fill="#8AE5CC"/>
<path d="M222.118 98.412C220.523 100.782 220.697 104.145 222.522 107.859L222.702 107.771L222.701 107.771L222.522 107.859L222.542 107.899L222.542 107.899C224.366 111.626 227.626 115.251 231.763 118.204L232.605 118.787C237.197 121.875 242.189 123.751 246.688 124.053L246.701 123.854L246.715 123.654L246.714 123.654C242.301 123.358 237.376 121.513 232.828 118.455L231.994 117.877C227.885 114.945 224.667 111.353 222.883 107.685L222.862 107.644L222.862 107.644C221.084 104.007 220.975 100.827 222.449 98.6356L222.118 98.412ZM248.271 102.741C247.8 102.347 247.323 101.948 246.803 101.558L246.035 100.998C245.776 100.815 245.513 100.633 245.244 100.453L245.244 100.452C244.682 100.073 244.092 99.6962 243.512 99.365L243.513 99.3656C242.999 99.0591 242.474 98.764 241.954 98.4925L241.955 98.4931C238.348 96.5742 234.605 95.4243 231.162 95.1847L230.772 95.1617C226.775 94.9643 223.679 96.0887 222.118 98.412L222.284 98.5234L222.449 98.6356L222.45 98.6349C223.9 96.4778 226.824 95.3672 230.751 95.5612L231.134 95.5842C234.512 95.8192 238.201 96.9488 241.767 98.8464L241.769 98.8476L242.541 99.2652C242.799 99.4095 243.056 99.5584 243.31 99.7102L243.443 99.4863L243.313 99.7127C243.74 99.9562 244.173 100.225 244.598 100.503L245.02 100.784L245.803 101.325L246.563 101.878C247.073 102.261 247.542 102.653 248.014 103.048L248.015 103.048L248.128 102.912L248.163 102.869L248.015 103.048C251.1 105.605 253.509 108.554 254.978 111.541L254.976 111.541C256.708 115.094 256.87 118.202 255.533 120.393L255.399 120.602C253.903 122.828 250.857 123.936 246.715 123.654L246.688 124.053C250.895 124.339 254.12 123.222 255.731 120.825L255.875 120.6C257.313 118.244 257.095 114.976 255.336 111.366L255.336 111.365L255.044 110.795C253.529 107.947 251.196 105.166 248.27 102.742L248.271 102.741ZM243.31 99.7102L243.313 99.7127L243.413 99.5381L243.31 99.7102Z" fill="#0B4D5E"/>
<path d="M224.379 89.7814C224.437 89.7816 224.503 89.7681 224.548 89.7589C226.103 89.4657 227.828 89.3838 229.721 89.5123C241.799 90.3382 255.873 99.7653 261.157 110.576C261.95 112.197 262.498 113.749 262.809 115.219C264.668 123.59 259.148 129.348 248.869 128.646C236.791 127.82 222.703 118.383 217.419 107.572C212.989 98.5195 216.14 91.3819 224.377 89.7804L224.379 89.7814ZM227.835 117.508C228.075 117.727 228.312 117.926 228.571 118.119C229.509 118.887 230.512 119.619 231.541 120.31C232.582 121.011 233.638 121.663 234.717 122.252C234.993 122.419 235.278 122.572 235.559 122.702C235.679 122.784 235.796 122.842 235.898 122.891C236.428 123.169 236.954 123.427 237.502 123.679C241.264 125.414 245.065 126.456 248.593 126.694C253.675 127.045 257.517 125.689 259.413 122.87C261.292 120.077 261.11 116.075 258.896 111.577C256.548 106.758 252.208 102.074 246.69 98.3617C241.131 94.6236 235.07 92.3517 229.637 91.9779C224.57 91.6358 220.728 92.9921 218.832 95.811C216.963 98.5901 217.135 102.606 219.335 107.095C220.938 110.365 223.458 113.574 226.626 116.481C227.017 116.822 227.421 117.172 227.835 117.508Z" fill="#F0F4FF"/>
<path d="M222.702 107.772C224.625 111.723 228.187 115.574 232.716 118.621C237.287 121.695 242.245 123.554 246.701 123.853C250.876 124.137 254.012 123.025 255.565 120.713C257.102 118.429 256.958 115.15 255.156 111.453C253.673 108.436 251.246 105.465 248.143 102.894C247.671 102.5 247.198 102.104 246.683 101.718C246.179 101.341 245.667 100.977 245.132 100.617C244.572 100.24 243.987 99.8663 243.413 99.5383C242.9 99.233 242.379 98.9397 241.862 98.6697C238.275 96.7612 234.559 95.6212 231.148 95.384C226.995 95.0943 223.838 96.2111 222.284 98.5237C220.746 100.808 220.891 104.087 222.701 107.771L222.702 107.772Z" fill="#8AE5CC"/>
<path d="M222.118 98.412C220.523 100.782 220.697 104.145 222.522 107.859L222.702 107.771L222.701 107.771L222.522 107.859L222.542 107.899L222.542 107.899C224.366 111.626 227.626 115.251 231.763 118.204L232.605 118.787C237.197 121.875 242.189 123.751 246.688 124.053L246.701 123.854L246.715 123.654L246.714 123.654C242.301 123.358 237.376 121.513 232.828 118.455L231.994 117.877C227.885 114.945 224.667 111.353 222.883 107.685L222.862 107.644L222.862 107.644C221.084 104.007 220.975 100.827 222.449 98.6356L222.118 98.412ZM248.271 102.741C247.8 102.347 247.323 101.948 246.803 101.558L246.035 100.998C245.776 100.815 245.513 100.633 245.244 100.453L245.244 100.452C244.682 100.073 244.092 99.6962 243.512 99.365L243.513 99.3656C242.999 99.0591 242.474 98.764 241.954 98.4925L241.955 98.4931C238.348 96.5742 234.605 95.4243 231.162 95.1847L230.772 95.1617C226.775 94.9643 223.679 96.0887 222.118 98.412L222.284 98.5234L222.449 98.6356L222.45 98.6349C223.9 96.4778 226.824 95.3672 230.751 95.5612L231.134 95.5842C234.512 95.8192 238.201 96.9488 241.767 98.8464L241.769 98.8476L242.541 99.2652C242.799 99.4095 243.056 99.5584 243.31 99.7102L243.443 99.4863L243.313 99.7127C243.74 99.9562 244.173 100.225 244.598 100.503L245.02 100.784L245.803 101.325L246.563 101.878C247.073 102.261 247.542 102.653 248.014 103.048L248.015 103.048L248.128 102.912L248.163 102.869L248.015 103.048C251.1 105.605 253.509 108.554 254.978 111.541L254.976 111.541C256.708 115.094 256.87 118.202 255.533 120.393L255.399 120.602C253.903 122.828 250.857 123.936 246.715 123.654L246.688 124.053C250.895 124.339 254.12 123.222 255.731 120.825L255.875 120.6C257.313 118.244 257.095 114.976 255.336 111.366L255.336 111.365L255.044 110.795C253.529 107.947 251.196 105.166 248.27 102.742L248.271 102.741ZM243.31 99.7102L243.313 99.7127L243.413 99.5381L243.31 99.7102Z" fill="#0B4D5E"/>
<path d="M218.541 95.2322C216.618 98.0921 216.793 102.187 219.038 106.783C220.7 110.169 223.313 113.499 226.623 116.483C223.455 113.576 220.936 110.368 219.332 107.096C217.131 102.608 216.959 98.5918 218.829 95.8126C220.725 92.9937 224.567 91.6375 229.634 91.9796C235.068 92.3543 241.127 94.6253 246.687 98.3634C252.205 102.074 256.546 106.759 258.892 111.579C261.107 116.076 261.287 120.08 259.409 122.872C257.513 125.691 253.671 127.047 248.59 126.695C244.558 126.429 240.178 125.094 235.895 122.891C240.29 125.187 244.817 126.563 248.992 126.847C254.189 127.199 258.116 125.803 260.057 122.917C261.97 120.071 261.782 115.965 259.536 111.37C257.123 106.446 252.688 101.641 247.051 97.8493C241.345 94.0126 235.147 91.6869 229.597 91.3114C224.401 90.9592 220.474 92.3549 218.54 95.2279L218.541 95.2322Z" fill="#0B4D5E"/>
<path d="M222.283 98.5242C220.745 100.809 220.89 104.088 222.7 107.771C224.623 111.723 228.184 115.574 232.714 118.62C237.284 121.694 242.243 123.554 246.699 123.853C250.874 124.137 254.01 123.024 255.563 120.713C257.1 118.428 256.956 115.149 255.154 111.453C253.67 108.436 251.243 105.465 248.14 102.894C247.669 102.499 247.196 102.104 246.68 101.717C246.177 101.34 245.665 100.976 245.13 100.617C244.57 100.24 243.985 99.8659 243.41 99.5378C242.898 99.2326 242.376 98.9392 241.859 98.6692C238.272 96.7607 234.556 95.6208 231.146 95.3835C226.993 95.0938 223.837 96.2115 222.283 98.5242Z" fill="#8AE5CC"/>
<path d="M222.117 98.4123C220.522 100.782 220.696 104.145 222.521 107.858L222.52 107.858C224.34 111.599 227.609 115.24 231.76 118.203L232.602 118.786C237.195 121.874 242.187 123.75 246.686 124.052L246.698 123.853L246.713 123.653L246.712 123.653C242.299 123.357 237.373 121.512 232.825 118.454L231.992 117.877C227.883 114.944 224.665 111.352 222.88 107.684L222.88 107.683C221.084 104.03 220.969 100.835 222.449 98.6359L222.117 98.4123ZM248.268 102.74C247.797 102.346 247.321 101.947 246.8 101.557L246.033 100.998C245.774 100.814 245.511 100.633 245.242 100.452L245.242 100.451C244.68 100.072 244.09 99.6952 243.51 99.364L243.511 99.3647C242.996 99.0581 242.472 98.763 241.952 98.4915L241.952 98.4921C238.345 96.5732 234.603 95.4233 231.159 95.1838L230.77 95.1607C226.773 94.9633 223.678 96.089 222.117 98.4123L222.283 98.5237L222.449 98.6359L222.449 98.6351C223.899 96.478 226.822 95.3663 230.749 95.5602L231.132 95.5832C234.51 95.8182 238.198 96.9478 241.765 98.8454L241.767 98.8467L242.539 99.2642C242.796 99.4086 243.053 99.5574 243.308 99.7092L243.441 99.4853L243.311 99.7117C243.737 99.9552 244.17 100.224 244.595 100.502L245.018 100.783L245.801 101.324L246.56 101.877C247.071 102.26 247.54 102.652 248.012 103.047L248.013 103.047L248.126 102.911L248.161 102.868L248.013 103.047C251.098 105.604 253.506 108.553 254.975 111.54L254.974 111.541C256.705 115.093 256.868 118.201 255.531 120.392L255.397 120.601C253.901 122.827 250.855 123.935 246.713 123.653L246.686 124.052C250.893 124.338 254.118 123.221 255.729 120.824L255.873 120.599C257.311 118.243 257.093 114.975 255.334 111.365L255.334 111.364L255.041 110.794C253.527 107.946 251.193 105.165 248.268 102.741L248.268 102.74ZM243.308 99.7092L243.311 99.7117L243.41 99.5372L243.308 99.7092Z" fill="#0B4D5E"/>
<path d="M222.283 98.5242C220.745 100.809 220.89 104.088 222.7 107.771C224.623 111.723 228.184 115.574 232.714 118.62C237.284 121.694 242.243 123.554 246.699 123.853C250.874 124.137 254.01 123.024 255.563 120.713C257.1 118.428 256.956 115.149 255.154 111.453C253.67 108.436 251.243 105.465 248.14 102.894C247.669 102.499 247.196 102.104 246.68 101.717C246.177 101.34 245.665 100.976 245.13 100.617C244.57 100.24 243.985 99.8659 243.41 99.5378C242.898 99.2326 242.376 98.9392 241.859 98.6692C238.272 96.7607 234.556 95.6208 231.146 95.3835C226.993 95.0938 223.837 96.2115 222.283 98.5242Z" fill="#0B4D5E"/>
<path d="M222.117 98.4123C220.522 100.782 220.696 104.145 222.521 107.858L222.52 107.858C224.34 111.599 227.609 115.24 231.76 118.203L232.602 118.786C237.195 121.874 242.187 123.75 246.686 124.052L246.698 123.853L246.713 123.653L246.712 123.653C242.299 123.357 237.373 121.512 232.825 118.454L231.992 117.877C227.883 114.944 224.665 111.352 222.88 107.684L222.88 107.683C221.084 104.03 220.969 100.835 222.449 98.6359L222.117 98.4123ZM248.268 102.74C247.797 102.346 247.321 101.947 246.8 101.557L246.033 100.998C245.774 100.814 245.511 100.633 245.242 100.452L245.242 100.451C244.68 100.072 244.09 99.6952 243.51 99.364L243.511 99.3647C242.996 99.0581 242.472 98.763 241.952 98.4915L241.952 98.4921C238.345 96.5732 234.603 95.4233 231.159 95.1838L230.77 95.1607C226.773 94.9633 223.678 96.089 222.117 98.4123L222.283 98.5237L222.449 98.6359L222.449 98.6351C223.899 96.478 226.822 95.3663 230.749 95.5602L231.132 95.5832C234.51 95.8182 238.198 96.9478 241.765 98.8454L241.767 98.8467L242.539 99.2642C242.796 99.4086 243.053 99.5574 243.308 99.7092L243.441 99.4853L243.311 99.7117C243.737 99.9552 244.17 100.224 244.595 100.502L245.018 100.783L245.801 101.324L246.56 101.877C247.071 102.26 247.54 102.652 248.012 103.047L248.013 103.047L248.126 102.911L248.161 102.868L248.013 103.047C251.098 105.604 253.506 108.553 254.975 111.54L254.974 111.541C256.705 115.093 256.868 118.201 255.531 120.392L255.397 120.601C253.901 122.827 250.855 123.935 246.713 123.653L246.686 124.052C250.893 124.338 254.118 123.221 255.729 120.824L255.873 120.599C257.311 118.243 257.093 114.975 255.334 111.365L255.334 111.364L255.041 110.794C253.527 107.946 251.193 105.165 248.268 102.741L248.268 102.74ZM243.308 99.7092L243.311 99.7117L243.41 99.5372L243.308 99.7092Z" fill="#0B4D5E"/>
<path d="M223.641 98.6441C222.193 100.795 222.333 103.878 224.034 107.351C225.842 111.07 229.194 114.684 233.443 117.541C237.747 120.435 242.414 122.178 246.603 122.471C250.52 122.737 253.493 121.69 254.949 119.526C256.396 117.375 256.251 114.27 254.554 110.82C253.194 108.023 250.967 105.304 248.141 102.898C247.669 102.504 247.196 102.109 246.681 101.722C246.177 101.345 245.665 100.981 245.13 100.622C244.57 100.244 243.985 99.8708 243.411 99.5428C242.899 99.2375 242.377 98.9441 241.86 98.6741C238.54 96.9459 235.109 95.9006 231.971 95.6907C228.055 95.4247 225.104 96.4662 223.639 98.6443L223.641 98.6441Z" fill="#F0F4FF"/>
<path d="M230.387 108.662C230.387 108.662 229.773 107.886 231.355 107.046C232.491 106.442 233.223 107.154 233.223 107.154L234.874 108.579C237.137 110.43 238.843 111.847 242.263 111.966L249.19 112.208C250.358 112.248 246.98 109.905 246.98 109.905C246.586 109.641 246.214 109.23 247.981 108.29C249.219 107.633 249.435 108.141 249.816 108.398C250.978 109.178 257.411 115.288 254.537 115.189L246.316 114.902C242.559 114.77 237.842 114.422 234.425 112.149C233.192 111.329 230.387 108.662 230.387 108.662Z" fill="#0B4D5E"/>
<path d="M233.093 107.306L234.743 108.731L234.747 108.734L234.874 108.579L234.892 108.557L234.747 108.734C236.941 110.528 238.654 111.953 241.933 112.151L242.256 112.167L249.183 112.408C249.268 112.411 249.354 112.404 249.428 112.376C249.509 112.345 249.587 112.284 249.62 112.182C249.65 112.091 249.631 112.003 249.607 111.94C249.582 111.875 249.543 111.81 249.5 111.75C249.33 111.512 248.999 111.208 248.651 110.919C248.297 110.625 247.908 110.33 247.608 110.11C247.458 110 247.329 109.908 247.239 109.843C247.193 109.811 247.157 109.786 247.132 109.768C247.12 109.76 247.111 109.753 247.104 109.748C247.101 109.746 247.098 109.745 247.097 109.744L247.091 109.739L246.968 109.648C246.934 109.618 246.906 109.589 246.886 109.56C246.853 109.512 246.843 109.469 246.861 109.41C246.884 109.337 246.958 109.219 247.153 109.055C247.297 108.933 247.499 108.794 247.774 108.634L248.074 108.467C248.676 108.147 248.981 108.139 249.162 108.193C249.256 108.221 249.335 108.271 249.419 108.337C249.492 108.395 249.603 108.495 249.704 108.564L249.928 108.232C249.839 108.173 249.78 108.113 249.667 108.023C249.565 107.943 249.44 107.859 249.277 107.81C248.946 107.711 248.523 107.776 247.887 108.114L247.575 108.287C247.285 108.455 247.062 108.609 246.895 108.749C246.676 108.934 246.536 109.112 246.48 109.292C246.419 109.486 246.466 109.655 246.558 109.788C246.6 109.849 246.653 109.903 246.707 109.95L246.868 110.071L246.875 110.077C246.882 110.081 246.891 110.087 246.903 110.096C246.927 110.112 246.962 110.138 247.007 110.169C247.096 110.233 247.223 110.324 247.372 110.432C247.668 110.65 248.05 110.939 248.395 111.226C248.746 111.517 249.039 111.791 249.175 111.982C249.181 111.991 249.185 112 249.191 112.008L242.27 111.766L241.96 111.752C238.82 111.564 237.194 110.217 235.005 108.427L233.362 107.01L233.358 107.007C233.355 107.004 233.352 107.001 233.348 106.998C233.341 106.991 233.33 106.982 233.316 106.971C233.289 106.949 233.251 106.919 233.202 106.886C233.103 106.82 232.959 106.741 232.775 106.683C232.403 106.566 231.88 106.541 231.261 106.869L230.978 107.034C230.37 107.416 230.13 107.801 230.08 108.14C230.052 108.33 230.086 108.488 230.128 108.599C230.15 108.655 230.174 108.699 230.192 108.73C230.202 108.746 230.209 108.758 230.216 108.768C230.219 108.772 230.222 108.777 230.225 108.78C230.226 108.781 230.227 108.783 230.228 108.784L230.229 108.785L230.229 108.786L230.23 108.786L230.238 108.797L230.249 108.807L230.251 108.809C230.253 108.81 230.254 108.812 230.257 108.815C230.262 108.82 230.27 108.828 230.281 108.838C230.302 108.858 230.333 108.887 230.372 108.924C230.451 108.999 230.567 109.106 230.708 109.238C230.991 109.502 231.381 109.862 231.81 110.248C232.556 110.919 233.431 111.678 234.06 112.138L234.314 112.316C237.351 114.336 241.384 114.853 244.858 115.039L246.309 115.101L254.53 115.389C254.909 115.402 255.222 115.317 255.378 115.062C255.526 114.818 255.475 114.504 255.362 114.209C255.131 113.601 254.538 112.798 253.842 111.992C253.139 111.18 252.31 110.341 251.585 109.657C250.864 108.976 250.234 108.438 249.928 108.232L249.816 108.398L249.704 108.564L249.705 108.564C249.98 108.75 250.589 109.266 251.311 109.947C252.029 110.625 252.848 111.454 253.539 112.254C254.236 113.06 254.785 113.816 254.988 114.351C255.092 114.626 255.081 114.779 255.036 114.854C254.998 114.917 254.883 115.001 254.544 114.99L246.323 114.702L244.874 114.639C241.415 114.453 237.479 113.94 234.536 111.983L234.292 111.812C233.686 111.368 232.828 110.625 232.078 109.95C231.651 109.567 231.262 109.208 230.981 108.946C230.84 108.815 230.726 108.707 230.647 108.633C230.608 108.596 230.577 108.566 230.556 108.547C230.55 108.541 230.546 108.536 230.541 108.532C230.54 108.53 230.537 108.528 230.535 108.525C230.526 108.51 230.514 108.487 230.502 108.457C230.479 108.396 230.46 108.307 230.476 108.198C230.503 108.014 230.643 107.715 231.189 107.372L231.449 107.223C231.966 106.948 232.378 106.977 232.655 107.064C232.796 107.109 232.906 107.17 232.98 107.219C233.017 107.244 233.044 107.265 233.062 107.28L233.084 107.298L233.092 107.307L233.093 107.306Z" fill="#0B4D5E"/>
<path d="M230.03 107.249C230.03 107.249 229.34 107.958 230.826 108.956C231.894 109.675 232.695 109.04 232.695 109.04L234.137 106.896C235.409 105.003 238.308 103.591 240.598 103.749L245.898 104.112C248.189 104.269 248.79 104.821 247.516 106.713L246.401 108.37C246.401 108.37 245.571 108.963 247.231 110.079C248.394 110.861 249.068 110.16 249.068 110.16L250.125 108.587C252.782 104.635 250.58 101.632 246.764 101.37L241.464 101.007C237.649 100.746 234.032 101.295 230.696 106.253L230.028 107.247L230.03 107.249Z" fill="#8AE5CC"/>
<path d="M251.049 103.492C250.311 102.136 248.731 101.297 246.779 101.163L241.479 100.8L240.761 100.762C239.087 100.697 237.435 100.832 235.826 101.48C233.984 102.222 232.217 103.629 230.531 106.134L230.535 106.136L230.53 106.142L229.862 107.135L229.852 107.15C229.849 107.154 229.846 107.157 229.843 107.161C229.838 107.168 229.835 107.176 229.83 107.184L229.76 107.288L229.764 107.291C229.712 107.397 229.663 107.548 229.671 107.737C229.686 108.079 229.884 108.488 230.449 108.931L230.714 109.122C231.295 109.513 231.818 109.543 232.201 109.464C232.39 109.425 232.542 109.36 232.647 109.305C232.699 109.278 232.74 109.252 232.769 109.232C232.784 109.223 232.795 109.215 232.804 109.208C232.808 109.206 232.812 109.204 232.814 109.202C232.815 109.201 232.817 109.199 232.818 109.199L232.819 109.197L232.844 109.178L232.861 109.152L234.303 107.007L234.422 106.839C235.041 105.998 235.998 105.257 237.073 104.733C238.148 104.209 239.325 103.911 240.375 103.938L240.584 103.949L245.885 104.311C246.452 104.35 246.903 104.414 247.241 104.511C247.582 104.61 247.78 104.735 247.881 104.877C247.974 105.01 248.007 105.194 247.93 105.478C247.871 105.695 247.752 105.956 247.563 106.27L247.351 106.601L246.252 108.235C246.246 108.241 246.239 108.246 246.232 108.252C246.205 108.278 246.17 108.316 246.135 108.365C246.065 108.463 245.993 108.612 245.993 108.806C245.993 109.149 246.209 109.559 246.829 110.036L247.12 110.245C247.743 110.664 248.26 110.699 248.633 110.607C248.816 110.562 248.957 110.488 249.054 110.425C249.102 110.393 249.14 110.363 249.167 110.341C249.18 110.33 249.19 110.321 249.198 110.313C249.201 110.31 249.204 110.306 249.206 110.304C249.208 110.303 249.209 110.302 249.21 110.301L249.211 110.299C249.212 110.299 249.212 110.299 249.067 110.161L249.212 110.299L249.224 110.287L249.234 110.272L250.291 108.699L250.532 108.323C250.984 107.577 251.267 106.86 251.401 106.187C251.415 106.117 251.425 106.047 251.436 105.977C251.46 105.825 251.479 105.676 251.487 105.529C251.53 104.777 251.374 104.09 251.049 103.492ZM246.751 101.57C248.614 101.697 250.044 102.492 250.696 103.691C251.02 104.285 251.161 104.994 251.06 105.796C250.957 106.602 250.611 107.5 249.96 108.468L249.964 108.47L249.959 108.476L248.915 110.03C248.912 110.032 248.909 110.034 248.906 110.037C248.891 110.05 248.867 110.069 248.834 110.09C248.768 110.134 248.668 110.186 248.538 110.219C248.283 110.281 247.882 110.275 247.342 109.913L247.067 109.716C246.496 109.275 246.394 108.967 246.394 108.806C246.394 108.713 246.426 108.643 246.46 108.596C246.477 108.572 246.495 108.554 246.507 108.543L246.519 108.533L246.518 108.532L246.547 108.512L246.567 108.482L247.682 106.825L247.904 106.478C248.106 106.144 248.244 105.847 248.316 105.583C248.412 105.227 248.391 104.907 248.207 104.646C248.03 104.394 247.727 104.235 247.352 104.126C246.973 104.017 246.489 103.952 245.912 103.913L240.612 103.549L240.387 103.539C239.257 103.509 238.017 103.829 236.898 104.373C235.78 104.918 234.766 105.697 234.099 106.602L233.971 106.785L232.549 108.9L232.46 108.951C232.382 108.993 232.266 109.042 232.121 109.072C231.836 109.13 231.424 109.118 230.938 108.79L230.694 108.614C230.188 108.217 230.079 107.905 230.07 107.719C230.066 107.609 230.095 107.524 230.124 107.466C230.139 107.437 230.154 107.415 230.164 107.401C230.168 107.395 230.171 107.39 230.173 107.388L230.175 107.387L230.326 107.231L230.296 107.207L230.862 106.365L231.172 105.917C232.726 103.746 234.33 102.521 235.975 101.859C237.513 101.239 239.101 101.105 240.744 101.168L241.45 101.207L246.751 101.57Z" fill="#0B4D5E"/>
<path d="M251.049 103.493C250.311 102.137 248.731 101.298 246.779 101.164L241.479 100.801L240.761 100.763C239.087 100.698 237.436 100.833 235.826 101.481C233.984 102.223 232.217 103.63 230.531 106.135L230.863 106.359C232.513 103.906 234.222 102.559 235.976 101.852C237.514 101.233 239.102 101.099 240.744 101.162L241.452 101.2L246.752 101.563C248.615 101.691 250.045 102.485 250.698 103.684C251.346 104.875 251.262 106.533 249.961 108.469L250.292 108.693C251.647 106.677 251.791 104.856 251.049 103.493Z" fill="#0B4D5E"/>
<path d="M111.073 124C108.588 124 106.573 121.761 106.573 119C106.573 116.239 108.588 114 111.073 114C113.558 114 115.573 116.239 115.573 119C115.573 121.761 113.558 124 111.073 124Z" fill="#F0F4FF"/>
<path d="M106.773 119C106.773 116.329 108.718 114.2 111.073 114.2C113.429 114.2 115.373 116.329 115.373 119C115.373 121.671 113.429 123.8 111.073 123.8C108.718 123.8 106.773 121.671 106.773 119ZM106.373 119C106.373 121.852 108.458 124.2 111.073 124.2C113.688 124.2 115.773 121.852 115.773 119C115.773 116.148 113.688 113.8 111.073 113.8C108.458 113.8 106.373 116.148 106.373 119Z" fill="#0B4D5E"/>
<path d="M282.073 219C279.588 219 277.573 216.761 277.573 214C277.573 211.239 279.588 209 282.073 209C284.558 209 286.573 211.239 286.573 214C286.573 216.761 284.558 219 282.073 219Z" fill="#F0F4FF"/>
<path d="M277.773 214C277.773 211.329 279.718 209.2 282.073 209.2C284.429 209.2 286.373 211.329 286.373 214C286.373 216.671 284.429 218.8 282.073 218.8C279.718 218.8 277.773 216.671 277.773 214ZM277.373 214C277.373 216.852 279.458 219.2 282.073 219.2C284.688 219.2 286.773 216.852 286.773 214C286.773 211.148 284.688 208.8 282.073 208.8C279.458 208.8 277.373 211.148 277.373 214Z" fill="#0B4D5E"/>
<path d="M120.573 89C118.916 89 117.573 87.6569 117.573 86C117.573 84.3431 118.916 83 120.573 83C122.23 83 123.573 84.3431 123.573 86C123.573 87.6569 122.23 89 120.573 89Z" fill="#F0F4FF"/>
<path d="M117.773 86C117.773 84.4536 119.027 83.2002 120.573 83.2002C122.12 83.2002 123.373 84.4536 123.373 86C123.373 87.5464 122.12 88.7998 120.573 88.7998C119.027 88.7998 117.773 87.5464 117.773 86ZM117.373 86C117.373 87.7673 118.806 89.2002 120.573 89.2002C122.34 89.2002 123.773 87.7673 123.773 86C123.773 84.2327 122.34 82.7998 120.573 82.7998C118.806 82.7998 117.373 84.2327 117.373 86Z" fill="#0B4D5E"/>
</svg>
