<svg width="411" height="300" viewBox="0 0 411 300" fill="none" xmlns="http://www.w3.org/2000/svg">
<g clip-path="url(#clip0_9503_10648)">
<path d="M212.116 165.269C146.127 157.797 86.5878 205.348 79.1312 271.477C78.6175 276.02 78.3688 280.535 78.3607 285.005H318.869C318.942 224.448 273.571 172.227 212.116 165.265V165.269Z" fill="#F0F4FF"/>
<path d="M125.315 260.886C133.317 260.886 139.803 254.402 139.803 246.403C139.803 238.404 133.317 231.92 125.315 231.92C117.314 231.92 110.828 238.404 110.828 246.403C110.828 254.402 117.314 260.886 125.315 260.886Z" fill="white"/>
<path d="M162.726 276.543C184.321 276.543 201.827 259.042 201.827 237.454C201.827 215.865 184.321 198.364 162.726 198.364C141.13 198.364 123.624 215.865 123.624 237.454C123.624 259.042 141.13 276.543 162.726 276.543Z" fill="white"/>
<path d="M96.8083 279.866C109.22 279.866 119.281 269.808 119.281 257.401C119.281 244.994 109.22 234.936 96.8083 234.936C84.397 234.936 74.3357 244.994 74.3357 257.401C74.3357 269.808 84.397 279.866 96.8083 279.866Z" fill="#F0F4FF"/>
<path d="M277.48 297.524C294.516 297.524 308.326 283.718 308.326 266.687C308.326 249.657 294.516 235.851 277.48 235.851C260.444 235.851 246.633 249.657 246.633 266.687C246.633 283.718 260.444 297.524 277.48 297.524Z" fill="white"/>
<path d="M252.834 283.47C267.904 283.47 280.12 271.258 280.12 256.193C280.12 241.128 267.904 228.916 252.834 228.916C237.764 228.916 225.548 241.128 225.548 256.193C225.548 271.258 237.764 283.47 252.834 283.47Z" fill="white"/>
<path d="M122.136 261.446C128.768 261.446 134.145 256.071 134.145 249.441C134.145 242.81 128.768 237.436 122.136 237.436C115.504 237.436 110.127 242.81 110.127 249.441C110.127 256.071 115.504 261.446 122.136 261.446Z" fill="#F0F4FF"/>
<g opacity="0.61">
<path d="M198.926 405.672C181.818 405.672 164.985 402.546 148.815 396.357C131.123 389.582 115.286 379.547 101.743 366.531C88.6635 353.959 78.2665 339.146 70.8374 322.504C63.4082 305.865 59.3287 288.233 58.7025 270.105C58.0541 251.337 61.1628 232.849 67.9398 215.162C74.7168 197.475 84.7544 181.644 97.7749 168.105C110.351 155.03 125.168 144.636 141.816 137.209C158.464 129.782 176.097 125.704 194.231 125.078C213.01 124.43 231.499 127.538 249.192 134.312C266.885 141.087 282.721 151.122 296.264 164.138C309.343 176.714 319.741 191.526 327.17 208.165C334.599 224.804 338.678 242.436 339.304 260.564C339.953 279.332 336.844 297.82 330.067 315.507C323.29 333.194 313.253 349.025 300.232 362.564C287.653 375.639 272.835 386.033 256.191 393.46C239.547 400.887 221.91 404.965 203.776 405.591C202.157 405.647 200.541 405.676 198.926 405.676V405.672ZM199.085 125.878C197.481 125.878 195.873 125.904 194.264 125.96C176.246 126.582 158.72 130.638 142.179 138.017C125.639 145.395 110.914 155.722 98.4159 168.716C85.477 182.166 75.5023 197.901 68.7698 215.477C62.0373 233.053 58.9508 251.422 59.5918 270.072C60.2143 288.085 64.2716 305.606 71.6525 322.141C79.0335 338.676 89.3638 353.396 102.362 365.89C115.816 378.825 131.556 388.797 149.138 395.527C166.719 402.257 185.094 405.346 203.75 404.702C221.769 404.08 239.295 400.024 255.835 392.645C272.376 385.266 287.101 374.939 299.599 361.945C312.537 348.496 322.512 332.761 329.245 315.185C335.977 297.609 339.064 279.24 338.423 260.59C337.8 242.576 333.743 225.056 326.362 208.521C318.981 191.986 308.647 177.265 295.652 164.771C282.198 151.837 266.458 141.865 248.877 135.135C232.811 128.986 216.081 125.878 199.081 125.878H199.085Z" fill="#F0F4FF" stroke="#0B4D5E" stroke-width="0.4"/>
</g>
<path d="M198.934 432.495C190.597 432.495 182.26 431.865 173.942 430.598C152.573 427.35 132.276 420.082 113.612 408.996C94.9485 397.909 78.8564 383.559 65.7879 366.354C52.2561 348.537 42.5742 328.42 37.0051 306.555C31.4398 284.693 30.3208 262.394 33.6852 240.277C36.9347 218.915 44.2045 198.624 55.2945 179.966C66.3844 161.309 80.7387 145.222 97.9498 132.157C115.772 118.63 135.896 108.951 157.768 103.384C179.637 97.8201 201.943 96.7015 224.067 100.065C245.435 103.313 265.733 110.581 284.397 121.667C303.06 132.754 319.152 147.103 332.221 164.309C345.753 182.126 355.434 202.243 361.004 224.108C366.569 245.97 367.688 268.269 364.323 290.386C361.074 311.748 353.804 332.039 342.714 350.697C331.624 369.354 317.27 385.441 300.059 398.506C282.236 412.033 262.113 421.712 240.241 427.279C226.59 430.754 212.769 432.491 198.934 432.491V432.495ZM199.082 99.0536C185.317 99.0536 171.57 100.783 157.99 104.239C136.237 109.773 116.217 119.404 98.4908 132.857C81.3686 145.855 67.0921 161.853 56.0578 180.415C45.0234 198.976 37.7944 219.16 34.5596 240.406C31.2138 262.405 32.3253 284.585 37.8611 306.332C43.3968 328.079 53.0305 348.093 66.4882 365.813C79.49 382.93 95.4932 397.202 114.06 408.233C132.628 419.26 152.818 426.49 174.071 429.724C196.077 433.069 218.264 431.958 240.018 426.424L240.126 426.853L240.018 426.424C261.772 420.89 281.792 411.259 299.518 397.806C316.64 384.808 330.917 368.81 341.947 350.248C352.982 331.687 360.211 311.503 363.445 290.256C366.791 268.258 365.68 246.077 360.144 224.331C354.608 202.584 344.974 182.57 331.517 164.85C318.515 147.733 302.512 133.461 283.945 122.43C265.377 111.403 245.187 104.173 223.934 100.939C215.663 99.6833 207.367 99.0536 199.075 99.0536H199.082Z" fill="#F0F4FF" stroke="#0B4D5E" stroke-width="0.4"/>
<path d="M198.921 460.876C189.172 460.876 179.416 460.138 169.686 458.657C157.248 456.768 144.92 453.645 133.048 449.382C121.288 445.159 109.872 439.777 99.1115 433.384C88.355 426.994 78.1654 419.541 68.8318 411.233C59.4092 402.847 50.7722 393.516 43.1652 383.5C27.3362 362.657 16.0091 339.125 9.49888 313.548C2.98868 287.975 1.68071 261.89 5.61573 236.017C7.50543 223.582 10.629 211.259 14.8938 199.391C19.1178 187.634 24.5016 176.221 30.897 165.465C37.2886 154.712 44.7437 144.525 53.0546 135.195C61.4434 125.775 70.7771 117.141 80.7962 109.536C101.646 93.7122 125.186 82.3887 150.771 75.8806C176.352 69.3725 202.445 68.0649 228.326 71.9987C240.765 73.8878 253.092 77.0104 264.964 81.2738C276.725 85.4965 288.141 90.8786 298.901 97.2719C309.657 103.661 319.847 111.114 329.181 119.423C338.603 127.809 347.24 137.139 354.847 147.155C370.676 167.998 382.003 191.531 388.514 217.108C395.024 242.681 396.332 268.765 392.397 294.638C390.507 307.073 387.383 319.397 383.119 331.265C378.895 343.022 373.511 354.434 367.116 365.191C360.724 375.944 353.269 386.13 344.958 395.461C336.569 404.88 327.235 413.515 317.216 421.119C296.367 436.943 272.827 448.267 247.242 454.775L247.134 454.345L247.242 454.775C231.276 458.838 215.109 460.872 198.921 460.872V460.876ZM199.095 70.6726C182.981 70.6726 166.889 72.6988 150.993 76.7437C125.527 83.2222 102.091 94.4975 81.3372 110.247C71.3625 117.819 62.0696 126.412 53.7216 135.787C45.4514 145.077 38.0297 155.215 31.664 165.92C25.2983 176.625 19.9404 187.989 15.7349 199.691C11.4886 211.507 8.37989 223.771 6.4976 236.15C2.5811 261.901 3.88166 287.871 10.3622 313.329C16.8428 338.788 28.1217 362.216 43.8766 382.963C51.4502 392.935 60.0465 402.225 69.4246 410.57C78.7175 418.837 88.8589 426.257 99.5672 432.621C110.276 438.984 121.643 444.34 133.348 448.544C145.168 452.789 157.44 455.897 169.82 457.779C195.579 461.694 221.557 460.394 247.023 453.915C272.49 447.437 295.926 436.162 316.679 420.412C326.654 412.84 335.947 404.247 344.295 394.872C352.565 385.582 359.986 375.444 366.352 364.739C372.718 354.034 378.076 342.67 382.281 330.968C386.528 319.152 389.636 306.884 391.519 294.509C395.435 268.758 394.134 242.788 387.654 217.33C381.173 191.871 369.894 168.443 354.14 147.696C346.566 137.725 337.97 128.435 328.592 120.089C319.299 111.822 309.161 104.402 298.449 98.0386C287.741 91.675 276.373 86.3188 264.668 82.1146C252.848 77.8697 240.576 74.762 228.197 72.8803C218.515 71.4097 208.799 70.6726 199.095 70.6726Z" fill="#F0F4FF" stroke="#0B4D5E" stroke-width="0.4"/>
<path d="M198.825 500.528C186.05 500.528 173.252 499.487 160.691 497.42C129.618 492.308 100.25 481.118 73.4013 464.168C46.549 447.218 23.8244 425.516 5.85374 399.665C-2.7833 387.241 -10.2532 373.895 -16.3521 360.001C-22.3917 346.24 -27.1345 331.816 -30.4507 317.137C-33.767 302.458 -35.6826 287.397 -36.1495 272.376C-36.6163 257.212 -35.6085 241.955 -33.1519 227.023C-28.0386 195.96 -16.8449 166.602 0.110531 139.762C17.066 112.918 38.7753 90.2005 64.6345 72.2356C77.0621 63.6013 90.4123 56.1338 104.311 50.0368C118.076 43.9991 132.504 39.2578 147.188 35.9426C161.873 32.6274 176.938 30.7124 191.963 30.2457C207.133 29.779 222.395 30.7865 237.331 33.2423C268.404 38.354 297.772 49.5441 324.62 66.4942C351.473 83.4442 374.197 105.147 392.168 130.998C400.805 143.421 408.275 156.767 414.374 170.661C420.413 184.422 425.156 198.846 428.472 213.525C431.788 228.205 433.704 243.266 434.171 258.286C434.638 273.451 433.63 288.708 431.173 303.639C426.06 334.702 414.866 364.061 397.911 390.901C380.956 417.745 359.246 440.462 333.387 458.427C320.959 467.061 307.609 474.529 293.711 480.626C279.945 486.663 265.517 491.405 250.833 494.72C236.149 498.035 221.083 499.95 206.058 500.417C203.65 500.491 201.238 500.528 198.829 500.528H198.825ZM199.192 31.0236C196.788 31.0236 194.39 31.0606 191.989 31.1347C177.02 31.5977 162.013 33.5053 147.381 36.8094C132.753 40.1135 118.38 44.8362 104.667 50.8517C90.8198 56.9227 77.5215 64.3643 65.1422 72.9653C39.3829 90.8636 17.7551 113.496 0.862705 140.239C-16.0297 166.979 -27.179 196.231 -32.2737 227.175C-34.7229 242.047 -35.7271 257.249 -35.2602 272.358C-34.797 287.323 -32.8888 302.324 -29.5837 316.952C-26.2786 331.576 -21.5543 345.944 -15.5369 359.653C-9.46395 373.495 -2.02002 386.789 6.58368 399.165C24.4877 424.916 47.127 446.537 73.8792 463.424C100.628 480.311 129.888 491.456 160.842 496.55C175.719 498.998 190.926 500.002 206.04 499.535C221.009 499.072 236.016 497.165 250.648 493.86C265.276 490.556 279.649 485.834 293.362 479.818C307.209 473.747 320.507 466.306 332.887 457.705C358.646 439.806 380.274 417.174 397.166 390.43C414.059 363.69 425.208 334.439 430.303 303.495C432.752 288.623 433.756 273.421 433.289 258.312C432.826 243.347 430.918 228.346 427.613 213.718C424.307 199.094 419.583 184.726 413.566 171.017C407.493 157.175 400.049 143.881 391.445 131.505C373.541 105.754 350.902 84.1332 324.15 67.2461C297.401 50.359 268.14 39.2134 237.186 34.1202C224.674 32.0607 211.924 31.0236 199.192 31.0236Z" fill="#F0F4FF" stroke="#0B4D5E" stroke-width="0.4"/>
<path d="M143.283 187.971C149.8 187.653 150.06 187.397 150.378 180.878C150.697 187.393 150.953 187.653 157.474 187.971C150.956 188.29 150.697 188.545 150.378 195.065C150.06 188.549 149.804 188.29 143.283 187.971Z" fill="white" stroke="#0B4D5E" stroke-width="0.4"/>
<path d="M322.594 98.8734C332.877 98.3709 333.284 97.9668 333.786 87.6807C334.289 97.9641 334.693 98.3709 344.979 98.8734C334.696 99.3758 334.289 99.7799 333.786 110.066C333.284 99.7827 332.88 99.3758 322.594 98.8734Z" fill="#F0F4FF" stroke="#0B4D5E" stroke-width="0.4"/>
<path d="M333.053 183.855C341.664 184.422 349.108 177.903 349.675 169.291C350.241 160.679 343.72 153.241 335.109 152.674C326.498 152.107 319.054 158.626 318.487 167.235C317.92 175.843 324.442 183.285 333.053 183.852V183.855Z" fill="#8AE5CC" stroke="#0B4D5E" stroke-width="0.4"/>
<path d="M336.716 178.184C328.105 177.618 321.58 170.176 322.15 161.568C322.254 160.012 322.58 158.527 323.099 157.138C320.483 159.727 318.767 163.246 318.508 167.205C317.941 175.814 324.462 183.255 333.074 183.822C340.132 184.285 346.401 179.992 348.747 173.688C345.675 176.729 341.37 178.488 336.716 178.184Z" fill="#0B4D5E" stroke="#0B4D5E" stroke-width="0.4"/>
<path d="M334.157 161.653C334.502 161.712 334.858 161.694 335.199 161.601C335.906 161.42 336.562 161.083 337.122 160.612C338.659 159.36 339.534 157.79 339.363 155.741H339.267C339.03 155.786 338.793 155.815 338.559 155.871C337.399 156.141 336.355 156.76 335.565 157.649C334.776 158.538 334.28 159.649 334.15 160.831C334.139 161.108 334.161 161.383 334.157 161.653Z" fill="white" stroke="#0B4D5E" stroke-width="0.4"/>
<path d="M344.083 175.51C344.269 175.103 344.428 174.684 344.602 174.273C344.654 174.177 344.624 174.128 344.521 174.08C343.339 173.569 342.371 172.665 341.782 171.521C341.478 170.902 341.286 170.235 341.212 169.546C341.189 169.357 341.178 169.176 341.178 168.991C341.141 167.254 341.893 165.835 343.298 164.69C343.516 164.516 343.754 164.364 343.987 164.194C343.731 163.824 343.435 163.486 343.098 163.19C342.238 162.468 341.201 161.99 340.093 161.801C339.781 161.738 339.466 161.705 339.152 161.697C338.281 161.694 337.417 161.842 336.599 162.138C336.002 162.342 335.394 162.516 334.798 162.727C334.409 162.857 333.986 162.846 333.605 162.697C333.008 162.486 332.445 162.283 331.863 162.086C331.33 161.901 330.778 161.783 330.218 161.734C329.785 161.716 329.351 161.753 328.929 161.853C327.624 162.083 326.428 162.731 325.523 163.701C324.779 164.512 324.234 165.487 323.938 166.546C323.723 167.276 323.593 168.028 323.56 168.783C323.56 168.835 323.545 168.887 323.537 168.939V169.772C323.556 170.035 323.574 170.298 323.6 170.561C323.712 171.713 323.971 172.843 324.371 173.928C325.09 175.899 326.183 177.714 327.591 179.273C327.921 179.662 328.299 180.007 328.717 180.303C329.073 180.544 329.477 180.703 329.899 180.766C330.322 180.829 330.755 180.796 331.163 180.67C331.63 180.536 332.086 180.373 332.534 180.188C333.86 179.651 335.343 179.659 336.662 180.214C337.143 180.429 337.647 180.596 338.166 180.714C338.677 180.822 339.207 180.803 339.711 180.662C340.215 180.522 340.674 180.262 341.056 179.903C341.927 179.129 342.668 178.221 343.246 177.21C343.557 176.662 343.831 176.095 344.076 175.514L344.083 175.51Z" fill="white" stroke="#0B4D5E" stroke-width="0.4"/>
<mask id="mask0_9503_10648" style="mask-type:luminance" maskUnits="userSpaceOnUse" x="47" y="93" width="60" height="20">
<path d="M106.007 93.6748C104.11 93.7044 102.009 93.8415 99.7338 94.0823C93.4311 94.749 85.8278 96.2232 77.7836 98.4642C75.3122 99.1532 72.9149 99.8792 70.6139 100.635C66.8678 101.865 63.3737 103.172 60.2205 104.502C58.4309 105.258 56.7487 106.021 55.1961 106.784C52.243 108.236 49.7605 109.684 47.8596 111.062L48.5303 111.888C50.0087 110.68 52.3986 109.299 55.4926 107.847C61.1654 105.183 69.1947 102.276 78.2542 99.757C86.4244 97.4826 94.0387 95.9084 100.026 95.1453C102.42 94.8416 104.551 94.6638 106.355 94.6268L106.003 93.6822L106.007 93.6748Z" fill="white" stroke="white" stroke-width="0.4"/>
</mask>
<g mask="url(#mask0_9503_10648)">
<path d="M47.8596 111.058L48.0894 111.88H47.8596V111.058Z" fill="#8AE5CC" stroke="#0B4D5E" stroke-width="0.4"/>
<path d="M47.8596 109.947L48.3969 111.881H48.0894L47.8596 111.059V109.947Z" fill="#8AE5CC" stroke="#0B4D5E" stroke-width="0.4"/>
<path d="M47.8596 108.84L48.7082 111.881H48.3969L47.8596 109.947V108.84Z" fill="#8AE5CC" stroke="#0B4D5E" stroke-width="0.4"/>
<path d="M47.8596 107.731L49.0157 111.88H48.7082L47.8596 108.839V107.731Z" fill="#8AE5CC" stroke="#0B4D5E" stroke-width="0.4"/>
<path d="M47.8596 106.624L49.3232 111.88H49.0157L47.8596 107.732V106.624Z" fill="#8AE5CC" stroke="#0B4D5E" stroke-width="0.4"/>
<path d="M47.8596 106.42L48.0931 106.354L49.6345 111.88H49.3232L47.8596 106.624V106.42Z" fill="#8AE5CC" stroke="#0B4D5E" stroke-width="0.4"/>
<path d="M48.0917 106.354L48.3807 106.276L49.9332 111.858L49.8443 111.881H49.6331L48.0917 106.354Z" fill="#8AE5CC" stroke="#0B4D5E" stroke-width="0.4"/>
<path d="M48.672 106.188L48.3864 106.268L49.941 111.848L50.2265 111.769L48.672 106.188Z" fill="#8AE5CC" stroke="#0B4D5E" stroke-width="0.4"/>
<path d="M48.9563 106.111L48.6708 106.19L50.2253 111.771L50.5109 111.692L48.9563 106.111Z" fill="#8AE5CC" stroke="#0B4D5E" stroke-width="0.4"/>
<path d="M49.2469 106.029L48.9613 106.108L50.5158 111.689L50.8014 111.61L49.2469 106.029Z" fill="#8AE5CC" stroke="#0B4D5E" stroke-width="0.4"/>
<path d="M49.5333 105.951L49.2477 106.03L50.8023 111.611L51.0878 111.532L49.5333 105.951Z" fill="#8AE5CC" stroke="#0B4D5E" stroke-width="0.4"/>
<path d="M49.8155 105.871L49.53 105.95L51.0845 111.531L51.37 111.452L49.8155 105.871Z" fill="#8AE5CC" stroke="#0B4D5E" stroke-width="0.4"/>
<path d="M50.1082 105.792L49.8226 105.871L51.3771 111.452L51.6627 111.373L50.1082 105.792Z" fill="#8AE5CC" stroke="#0B4D5E" stroke-width="0.4"/>
<path d="M50.3883 105.711L50.1028 105.79L51.6573 111.371L51.9428 111.291L50.3883 105.711Z" fill="#8AE5CC" stroke="#0B4D5E" stroke-width="0.4"/>
<path d="M50.6768 105.633L50.3913 105.713L51.9458 111.294L52.2313 111.214L50.6768 105.633Z" fill="#8AE5CC" stroke="#0B4D5E" stroke-width="0.4"/>
<path d="M50.9674 105.552L50.6818 105.632L52.2363 111.213L52.5219 111.133L50.9674 105.552Z" fill="#8AE5CC" stroke="#0B4D5E" stroke-width="0.4"/>
<path d="M51.2517 105.474L50.9662 105.554L52.5207 111.135L52.8062 111.055L51.2517 105.474Z" fill="#8AE5CC" stroke="#0B4D5E" stroke-width="0.4"/>
<path d="M51.5381 105.39L51.2525 105.47L52.807 111.051L53.0926 110.971L51.5381 105.39Z" fill="#8AE5CC" stroke="#0B4D5E" stroke-width="0.4"/>
<path d="M51.8224 105.312L51.5368 105.392L53.0914 110.973L53.3769 110.893L51.8224 105.312Z" fill="#8AE5CC" stroke="#0B4D5E" stroke-width="0.4"/>
<path d="M52.113 105.23L51.8274 105.31L53.3819 110.89L53.6675 110.811L52.113 105.23Z" fill="#8AE5CC" stroke="#0B4D5E" stroke-width="0.4"/>
<path d="M52.3994 105.153L52.1138 105.232L53.6683 110.813L53.9539 110.734L52.3994 105.153Z" fill="#8AE5CC" stroke="#0B4D5E" stroke-width="0.4"/>
<path d="M52.6795 105.072L52.394 105.151L53.9485 110.732L54.234 110.653L52.6795 105.072Z" fill="#8AE5CC" stroke="#0B4D5E" stroke-width="0.4"/>
<path d="M52.9743 104.994L52.6887 105.073L54.2432 110.654L54.5288 110.575L52.9743 104.994Z" fill="#8AE5CC" stroke="#0B4D5E" stroke-width="0.4"/>
<path d="M53.2544 104.913L52.9688 104.992L54.5234 110.573L54.8089 110.494L53.2544 104.913Z" fill="#8AE5CC" stroke="#0B4D5E" stroke-width="0.4"/>
<path d="M53.5408 104.836L53.2552 104.915L54.8098 110.496L55.0953 110.416L53.5408 104.836Z" fill="#8AE5CC" stroke="#0B4D5E" stroke-width="0.4"/>
<path d="M53.8314 104.754L53.5458 104.833L55.1004 110.414L55.3859 110.334L53.8314 104.754Z" fill="#8AE5CC" stroke="#0B4D5E" stroke-width="0.4"/>
<path d="M54.1136 104.672L53.828 104.752L55.3825 110.333L55.6681 110.253L54.1136 104.672Z" fill="#8AE5CC" stroke="#0B4D5E" stroke-width="0.4"/>
<path d="M54.4 104.595L54.1144 104.675L55.669 110.256L55.9545 110.176L54.4 104.595Z" fill="#8AE5CC" stroke="#0B4D5E" stroke-width="0.4"/>
<path d="M54.6864 104.513L54.4008 104.593L55.9554 110.174L56.2409 110.094L54.6864 104.513Z" fill="#8AE5CC" stroke="#0B4D5E" stroke-width="0.4"/>
<path d="M54.977 104.435L54.6914 104.515L56.246 110.096L56.5315 110.016L54.977 104.435Z" fill="#8AE5CC" stroke="#0B4D5E" stroke-width="0.4"/>
<path d="M55.2613 104.355L54.9757 104.435L56.5303 110.015L56.8158 109.936L55.2613 104.355Z" fill="#8AE5CC" stroke="#0B4D5E" stroke-width="0.4"/>
<path d="M55.5477 104.277L55.2621 104.356L56.8167 109.937L57.1022 109.858L55.5477 104.277Z" fill="#8AE5CC" stroke="#0B4D5E" stroke-width="0.4"/>
<path d="M55.8362 104.196L55.5506 104.275L57.1051 109.856L57.3907 109.777L55.8362 104.196Z" fill="#8AE5CC" stroke="#0B4D5E" stroke-width="0.4"/>
<path d="M56.1163 104.119L55.8307 104.198L57.3853 109.779L57.6708 109.7L56.1163 104.119Z" fill="#8AE5CC" stroke="#0B4D5E" stroke-width="0.4"/>
<path d="M56.4069 104.037L56.1213 104.116L57.6759 109.697L57.9614 109.618L56.4069 104.037Z" fill="#8AE5CC" stroke="#0B4D5E" stroke-width="0.4"/>
<path d="M56.6975 103.959L56.4119 104.038L57.9664 109.619L58.252 109.54L56.6975 103.959Z" fill="#8AE5CC" stroke="#0B4D5E" stroke-width="0.4"/>
<path d="M56.9776 103.875L56.692 103.954L58.2466 109.535L58.5321 109.456L56.9776 103.875Z" fill="#8AE5CC" stroke="#0B4D5E" stroke-width="0.4"/>
<path d="M57.2682 103.796L56.9826 103.875L58.5371 109.456L58.8227 109.376L57.2682 103.796Z" fill="#8AE5CC" stroke="#0B4D5E" stroke-width="0.4"/>
<path d="M57.5546 103.714L57.269 103.794L58.8235 109.375L59.1091 109.295L57.5546 103.714Z" fill="#8AE5CC" stroke="#0B4D5E" stroke-width="0.4"/>
<path d="M57.8389 103.637L57.5533 103.717L59.1078 109.298L59.3934 109.218L57.8389 103.637Z" fill="#8AE5CC" stroke="#0B4D5E" stroke-width="0.4"/>
<path d="M58.1274 103.556L57.8418 103.636L59.3963 109.217L59.6819 109.137L58.1274 103.556Z" fill="#8AE5CC" stroke="#0B4D5E" stroke-width="0.4"/>
<path d="M58.4117 103.479L58.1261 103.559L59.6806 109.14L59.9662 109.06L58.4117 103.479Z" fill="#8AE5CC" stroke="#0B4D5E" stroke-width="0.4"/>
<path d="M58.7002 103.398L58.4146 103.478L59.9691 109.058L60.2547 108.979L58.7002 103.398Z" fill="#8AE5CC" stroke="#0B4D5E" stroke-width="0.4"/>
<path d="M58.9887 103.32L58.7031 103.399L60.2576 108.98L60.5432 108.901L58.9887 103.32Z" fill="#8AE5CC" stroke="#0B4D5E" stroke-width="0.4"/>
<path d="M59.273 103.238L58.9874 103.317L60.5419 108.898L60.8275 108.819L59.273 103.238Z" fill="#8AE5CC" stroke="#0B4D5E" stroke-width="0.4"/>
<path d="M59.5594 103.161L59.2738 103.24L60.8283 108.821L61.1139 108.742L59.5594 103.161Z" fill="#8AE5CC" stroke="#0B4D5E" stroke-width="0.4"/>
<path d="M59.8437 103.08L59.5581 103.159L61.1126 108.74L61.3982 108.661L59.8437 103.08Z" fill="#8AE5CC" stroke="#0B4D5E" stroke-width="0.4"/>
<path d="M60.1343 102.998L59.8487 103.077L61.4032 108.658L61.6888 108.579L60.1343 102.998Z" fill="#8AE5CC" stroke="#0B4D5E" stroke-width="0.4"/>
<path d="M60.4207 102.921L60.1351 103.001L61.6896 108.582L61.9752 108.502L60.4207 102.921Z" fill="#8AE5CC" stroke="#0B4D5E" stroke-width="0.4"/>
<path d="M60.7029 102.839L60.4173 102.919L61.9718 108.5L62.2574 108.42L60.7029 102.839Z" fill="#8AE5CC" stroke="#0B4D5E" stroke-width="0.4"/>
<path d="M60.9914 102.761L60.7058 102.841L62.2603 108.422L62.5459 108.342L60.9914 102.761Z" fill="#8AE5CC" stroke="#0B4D5E" stroke-width="0.4"/>
<path d="M61.2757 102.68L60.9901 102.76L62.5446 108.341L62.8302 108.261L61.2757 102.68Z" fill="#8AE5CC" stroke="#0B4D5E" stroke-width="0.4"/>
<path d="M61.5642 102.603L61.2786 102.683L62.8331 108.264L63.1187 108.184L61.5642 102.603Z" fill="#8AE5CC" stroke="#0B4D5E" stroke-width="0.4"/>
<path d="M61.8526 102.521L61.5671 102.601L63.1216 108.181L63.4072 108.102L61.8526 102.521Z" fill="#8AE5CC" stroke="#0B4D5E" stroke-width="0.4"/>
<path d="M62.137 102.444L61.8514 102.523L63.4059 108.104L63.6915 108.025L62.137 102.444Z" fill="#8AE5CC" stroke="#0B4D5E" stroke-width="0.4"/>
<path d="M62.4254 102.359L62.1399 102.438L63.6944 108.019L63.98 107.94L62.4254 102.359Z" fill="#8AE5CC" stroke="#0B4D5E" stroke-width="0.4"/>
<path d="M62.7119 102.281L62.4263 102.36L63.9808 107.941L64.2664 107.862L62.7119 102.281Z" fill="#8AE5CC" stroke="#0B4D5E" stroke-width="0.4"/>
<path d="M62.9962 102.2L62.7106 102.279L64.2651 107.86L64.5507 107.781L62.9962 102.2Z" fill="#8AE5CC" stroke="#0B4D5E" stroke-width="0.4"/>
<path d="M91.8707 94.1677L62.997 102.205L64.5515 107.786L93.4252 99.7486L91.8707 94.1677Z" fill="#8AE5CC" stroke="#0B4D5E" stroke-width="0.4"/>
<path d="M92.1046 94.0985L91.869 94.1641L93.4235 99.745L93.6591 99.6794L92.1046 94.0985Z" fill="#8AE5CC" stroke="#0B4D5E" stroke-width="0.4"/>
<path d="M92.3387 94.035L92.1031 94.1006L93.6576 99.6815L93.8932 99.6159L92.3387 94.035Z" fill="#8AE5CC" stroke="#0B4D5E" stroke-width="0.4"/>
<path d="M92.5707 93.9676L92.3352 94.0332L93.8897 99.6141L94.1253 99.5485L92.5707 93.9676Z" fill="#8AE5CC" stroke="#0B4D5E" stroke-width="0.4"/>
<path d="M92.8049 93.9071L92.5693 93.9727L94.1238 99.5536L94.3594 99.488L92.8049 93.9071Z" fill="#8AE5CC" stroke="#0B4D5E" stroke-width="0.4"/>
<path d="M93.0432 93.8377L92.8076 93.9033L94.3621 99.4842L94.5977 99.4187L93.0432 93.8377Z" fill="#8AE5CC" stroke="#0B4D5E" stroke-width="0.4"/>
<path d="M93.2732 93.7704L93.0376 93.8359L94.5921 99.4169L94.8277 99.3513L93.2732 93.7704Z" fill="#8AE5CC" stroke="#0B4D5E" stroke-width="0.4"/>
<path d="M93.5073 93.7098L93.2717 93.7754L94.8262 99.3563L95.0618 99.2907L93.5073 93.7098Z" fill="#8AE5CC" stroke="#0B4D5E" stroke-width="0.4"/>
<path d="M93.5017 93.7193L93.6647 93.6748H93.7425L95.2913 99.2347L95.0579 99.3014L93.5017 93.7193Z" fill="#8AE5CC" stroke="#0B4D5E" stroke-width="0.4"/>
<path d="M93.994 93.6748L95.5243 99.168L95.2909 99.2347L93.7421 93.6748H93.994Z" fill="#8AE5CC" stroke="#0B4D5E" stroke-width="0.4"/>
<path d="M94.2449 93.6748L95.7567 99.105L95.5232 99.168L93.9929 93.6748H94.2449Z" fill="#8AE5CC" stroke="#0B4D5E" stroke-width="0.4"/>
<path d="M94.4978 93.6748L95.9911 99.0384L95.7576 99.105L94.2459 93.6748H94.4978Z" fill="#8AE5CC" stroke="#0B4D5E" stroke-width="0.4"/>
<path d="M94.7487 93.6748L96.2271 98.9754L95.99 99.0384L94.4967 93.6748H94.7487Z" fill="#8AE5CC" stroke="#0B4D5E" stroke-width="0.4"/>
<path d="M95.0017 93.6748L96.4615 98.9087L96.2281 98.9754L94.7497 93.6748H95.0017Z" fill="#8AE5CC" stroke="#0B4D5E" stroke-width="0.4"/>
<path d="M95.2567 93.6748L96.6981 98.842L96.4646 98.9087L95.0047 93.6748H95.2567Z" fill="#8AE5CC" stroke="#0B4D5E" stroke-width="0.4"/>
<path d="M95.5076 93.6748L96.9304 98.7791L96.697 98.842L95.2556 93.6748H95.5076Z" fill="#8AE5CC" stroke="#0B4D5E" stroke-width="0.4"/>
<path d="M95.7605 93.6748L97.1648 98.7124L96.9314 98.7791L95.5085 93.6748H95.7605Z" fill="#8AE5CC" stroke="#0B4D5E" stroke-width="0.4"/>
<path d="M96.0093 93.6748L97.3951 98.6494L97.1616 98.7124L95.7573 93.6748H96.0093Z" fill="#8AE5CC" stroke="#0B4D5E" stroke-width="0.4"/>
<path d="M96.2601 93.6748L97.6274 98.5828L97.394 98.6494L96.0082 93.6748H96.2601Z" fill="#8AE5CC" stroke="#0B4D5E" stroke-width="0.4"/>
<path d="M96.5131 93.6748L97.8655 98.5198L97.6284 98.5828L96.2611 93.6748H96.5131Z" fill="#8AE5CC" stroke="#0B4D5E" stroke-width="0.4"/>
<path d="M96.7681 93.6748L98.102 98.4531L97.8686 98.5198L96.5162 93.6748H96.7681Z" fill="#8AE5CC" stroke="#0B4D5E" stroke-width="0.4"/>
<path d="M97.019 93.6748L98.3344 98.3864L98.1009 98.4531L96.767 93.6748H97.019Z" fill="#8AE5CC" stroke="#0B4D5E" stroke-width="0.4"/>
<path d="M97.2757 93.6748L98.5688 98.3235L98.3354 98.3864L97.02 93.6748H97.2757Z" fill="#8AE5CC" stroke="#0B4D5E" stroke-width="0.4"/>
<path d="M97.527 93.6748L98.8016 98.2568L98.5682 98.3235L97.275 93.6748H97.527Z" fill="#8AE5CC" stroke="#0B4D5E" stroke-width="0.4"/>
<path d="M97.7778 93.6748L99.0339 98.1938L98.8005 98.2568L97.5259 93.6748H97.7778Z" fill="#8AE5CC" stroke="#0B4D5E" stroke-width="0.4"/>
<path d="M98.0308 93.6748L99.2684 98.1272L99.0349 98.1938L97.7788 93.6748H98.0308Z" fill="#8AE5CC" stroke="#0B4D5E" stroke-width="0.4"/>
<path d="M98.2817 93.6748L99.5044 98.0642L99.2673 98.1272L98.0297 93.6748H98.2817Z" fill="#8AE5CC" stroke="#0B4D5E" stroke-width="0.4"/>
<path d="M98.5346 93.6748L99.7388 97.9975L99.5054 98.0642L98.2827 93.6748H98.5346Z" fill="#8AE5CC" stroke="#0B4D5E" stroke-width="0.4"/>
<path d="M98.7855 93.6748L99.9712 97.9308L99.7377 97.9975L98.5335 93.6748H98.7855Z" fill="#8AE5CC" stroke="#0B4D5E" stroke-width="0.4"/>
<path d="M99.0363 93.6748L100.203 97.8679L99.9701 97.9308L98.7844 93.6748H99.0363Z" fill="#8AE5CC" stroke="#0B4D5E" stroke-width="0.4"/>
<path d="M99.2893 93.6748L100.438 97.8012L100.204 97.8679L99.0373 93.6748H99.2893Z" fill="#8AE5CC" stroke="#0B4D5E" stroke-width="0.4"/>
<path d="M99.5422 93.6748L100.672 97.7382L100.439 97.8012L99.2903 93.6748H99.5422Z" fill="#8AE5CC" stroke="#0B4D5E" stroke-width="0.4"/>
<path d="M99.7952 93.6748L100.907 97.6716L100.673 97.7382L99.5432 93.6748H99.7952Z" fill="#8AE5CC" stroke="#0B4D5E" stroke-width="0.4"/>
<path d="M100.046 93.6748L101.139 97.6049L100.906 97.6716L99.7941 93.6748H100.046Z" fill="#8AE5CC" stroke="#0B4D5E" stroke-width="0.4"/>
<path d="M100.299 93.6748L101.377 97.5419L101.14 97.6049L100.047 93.6748H100.299Z" fill="#8AE5CC" stroke="#0B4D5E" stroke-width="0.4"/>
<path d="M100.55 93.6748L101.61 97.4752L101.376 97.5419L100.298 93.6748H100.55Z" fill="#8AE5CC" stroke="#0B4D5E" stroke-width="0.4"/>
<path d="M100.799 93.6748L101.84 97.4123L101.606 97.4752L100.547 93.6748H100.799Z" fill="#8AE5CC" stroke="#0B4D5E" stroke-width="0.4"/>
<path d="M101.054 93.6748L102.076 97.3456L101.843 97.4123L100.802 93.6748H101.054Z" fill="#8AE5CC" stroke="#0B4D5E" stroke-width="0.4"/>
<path d="M101.307 93.6748L102.311 97.2826L102.077 97.3456L101.055 93.6748H101.307Z" fill="#8AE5CC" stroke="#0B4D5E" stroke-width="0.4"/>
<path d="M101.557 93.6748L102.543 97.2159L102.31 97.2826L101.306 93.6748H101.557Z" fill="#8AE5CC" stroke="#0B4D5E" stroke-width="0.4"/>
<path d="M101.81 93.6748L102.778 97.1493L102.544 97.2159L101.558 93.6748H101.81Z" fill="#8AE5CC" stroke="#0B4D5E" stroke-width="0.4"/>
<path d="M102.061 93.6748L103.014 97.0863L102.776 97.1493L101.809 93.6748H102.061Z" fill="#8AE5CC" stroke="#0B4D5E" stroke-width="0.4"/>
<path d="M102.31 93.6748L103.244 97.0196L103.01 97.0863L102.058 93.6748H102.31Z" fill="#8AE5CC" stroke="#0B4D5E" stroke-width="0.4"/>
<path d="M102.563 93.6748L103.478 96.9566L103.245 97.0196L102.311 93.6748H102.563Z" fill="#8AE5CC" stroke="#0B4D5E" stroke-width="0.4"/>
<path d="M102.818 93.6748L103.715 96.89L103.481 96.9566L102.566 93.6748H102.818Z" fill="#8AE5CC" stroke="#0B4D5E" stroke-width="0.4"/>
<path d="M103.069 93.6748L103.947 96.827L103.714 96.89L102.817 93.6748H103.069Z" fill="#8AE5CC" stroke="#0B4D5E" stroke-width="0.4"/>
<path d="M103.322 93.6748L104.182 96.7603L103.948 96.827L103.07 93.6748H103.322Z" fill="#8AE5CC" stroke="#0B4D5E" stroke-width="0.4"/>
<path d="M103.573 93.6748L104.414 96.6937L104.18 96.7603L103.321 93.6748H103.573Z" fill="#8AE5CC" stroke="#0B4D5E" stroke-width="0.4"/>
<path d="M103.822 93.6748L104.648 96.6307L104.411 96.6937L103.57 93.6748H103.822Z" fill="#8AE5CC" stroke="#0B4D5E" stroke-width="0.4"/>
<path d="M104.074 93.6748L104.882 96.564L104.649 96.6307L103.822 93.6748H104.074Z" fill="#8AE5CC" stroke="#0B4D5E" stroke-width="0.4"/>
<path d="M104.329 93.6748L105.119 96.501L104.885 96.564L104.078 93.6748H104.329Z" fill="#8AE5CC" stroke="#0B4D5E" stroke-width="0.4"/>
<path d="M104.58 93.6748L105.351 96.4344L105.118 96.501L104.328 93.6748H104.58Z" fill="#8AE5CC" stroke="#0B4D5E" stroke-width="0.4"/>
<path d="M104.833 93.6748L105.585 96.3714L105.352 96.4344L104.581 93.6748H104.833Z" fill="#8AE5CC" stroke="#0B4D5E" stroke-width="0.4"/>
<path d="M105.09 93.6748L105.82 96.3047L105.586 96.3714L104.834 93.6748H105.09Z" fill="#8AE5CC" stroke="#0B4D5E" stroke-width="0.4"/>
<path d="M105.339 93.6748L106.051 96.238L105.817 96.3047L105.087 93.6748H105.339Z" fill="#8AE5CC" stroke="#0B4D5E" stroke-width="0.4"/>
<path d="M105.592 93.6748L106.289 96.1751L106.052 96.238L105.34 93.6748H105.592Z" fill="#8AE5CC" stroke="#0B4D5E" stroke-width="0.4"/>
<path d="M105.843 93.6748L106.358 95.5232V96.1529L106.288 96.1751L105.591 93.6748H105.843Z" fill="#8AE5CC" stroke="#0B4D5E" stroke-width="0.4"/>
<path d="M106.096 93.6748L106.359 94.6194V95.5232L105.844 93.6748H106.096Z" fill="#8AE5CC" stroke="#0B4D5E" stroke-width="0.4"/>
<path d="M106.36 94.6194L106.097 93.6748H106.36V94.6194Z" fill="#8AE5CC" stroke="#0B4D5E" stroke-width="0.4"/>
</g>
<path d="M80.6333 128.79C93.2054 127.542 102.383 116.341 101.131 103.772C99.8823 91.2044 88.6775 82.0293 76.1055 83.2813C63.5334 84.5296 54.3554 95.7308 55.6078 108.299C56.8564 120.867 68.0613 130.042 80.6333 128.79Z" fill="#8AE5CC" stroke="#0B4D5E" stroke-width="0.4"/>
<path d="M99.1605 96.5607C99.1642 96.6014 99.1716 96.6384 99.1753 96.6792C100.157 106.536 92.9579 115.322 83.0981 116.3C73.2383 117.281 64.4493 110.084 63.4711 100.228C62.882 94.29 65.2571 88.7413 69.3996 85.0557C60.4439 88.8672 54.5932 98.1645 55.6085 108.362C56.8572 120.93 68.062 130.105 80.6341 128.853C93.2061 127.605 102.384 116.404 101.132 103.836C100.876 101.246 100.194 98.8016 99.1679 96.5644L99.1605 96.5607Z" fill="#0B4D5E" stroke="#0B4D5E" stroke-width="0.4"/>
<path d="M77.8464 103.639L77.3981 102.176C77.2647 101.742 77.2647 101.75 77.7056 101.602L79.5546 101.016C79.7139 100.935 79.9066 100.95 80.0659 100.865C80.2364 100.842 80.4031 100.787 80.555 100.709C80.7143 100.628 80.8996 100.635 81.0663 100.557C82.341 100.194 83.6156 99.8163 84.905 99.4718C88.0805 98.5347 91.3078 97.779 94.5684 97.2012C95.2243 97.0975 95.2243 97.1049 95.5059 97.6901C96.8176 100.387 97.5549 103.324 97.6624 106.321C97.7809 109.069 97.2807 111.807 96.2025 114.336C95.932 115.022 95.5911 115.677 95.1835 116.292C94.7389 116.333 94.2943 116.3 93.8607 116.196C92.5528 115.959 91.2448 115.692 89.9553 115.344C89.8183 115.329 89.6552 115.314 89.5922 115.129C90.2814 114.248 90.8446 113.273 91.267 112.24C91.8636 110.621 92.1304 108.899 92.0451 107.176C92.034 106.887 91.8747 106.98 91.7228 107.032C90.3444 107.543 88.9697 108.058 87.5914 108.562C85.257 109.406 82.9005 110.136 80.5439 110.94C80.2734 111.029 80.1771 110.969 80.0956 110.695C79.4101 108.488 78.7024 106.291 78.0317 104.095C77.9168 103.954 77.928 103.78 77.8502 103.643L77.8464 103.639Z" fill="white" stroke="#0B4D5E" stroke-width="0.4"/>
<path d="M59.8139 103.191C59.9324 102.28 60.1362 101.38 60.4215 100.505C61.8184 95.9753 64.8494 92.1267 68.9252 89.7042C73.001 87.2817 77.829 86.4557 82.4754 87.3892C83.8019 87.6559 85.0988 88.0522 86.3438 88.5782C86.5402 88.6597 86.6328 88.7189 86.4772 88.956C85.6101 90.2413 84.8283 91.623 84.0317 92.9824C83.8872 93.2343 83.7612 93.2824 83.4944 93.1898C80.2486 92.0156 76.6804 92.1008 73.4975 93.4343C70.3147 94.7678 67.7506 97.2495 66.313 100.387C65.5719 102.057 65.1569 103.85 65.0791 105.673C65.005 105.913 64.8531 105.795 64.7271 105.739C64.3714 105.587 64.0157 105.425 63.6711 105.258C63.5043 105.143 63.3154 105.058 63.119 105.01C62.1186 104.554 61.1404 104.047 60.1918 103.491C60.0399 103.432 59.9065 103.324 59.8102 103.191H59.8139Z" fill="white" stroke="#0B4D5E" stroke-width="0.4"/>
<path d="M89.5944 115.126C90.4244 115.404 91.2877 115.556 92.1325 115.752C93.1366 115.993 94.1556 116.126 95.182 116.285C94.7633 117.078 94.252 117.823 93.6591 118.497C90.6541 122.093 86.4634 124.497 81.8392 125.279C79.0825 125.772 76.2479 125.612 73.5653 124.816C70.3936 123.908 67.5071 122.205 65.1839 119.864C65.1246 119.797 65.0653 119.727 65.0135 119.652C64.9912 119.493 65.0283 119.33 65.1172 119.197C65.8101 117.626 66.6623 116.148 67.5071 114.633C67.5664 114.53 67.622 114.404 67.7665 114.393C68.3964 115.185 69.093 115.922 69.8378 116.608C72.4611 118.971 75.907 120.215 79.4345 120.078C82.1319 119.919 84.733 119.012 86.9488 117.463C87.927 116.804 88.8163 116.019 89.5907 115.126H89.5944Z" fill="#8AE5CC" stroke="#0B4D5E" stroke-width="0.4"/>
<path d="M67.7658 114.414C66.7431 116.092 65.8242 117.833 65.0202 119.626C64.1235 118.752 63.3379 117.774 62.6747 116.711C60.848 113.922 59.7846 110.706 59.5845 107.376C59.4956 105.969 59.5734 104.554 59.8142 103.161C60.8702 103.835 62.0078 104.35 63.123 104.924C63.2824 105.035 63.4862 105.065 63.6529 105.18C64.0197 105.306 64.3791 105.461 64.7237 105.643C64.8423 105.691 64.9386 105.769 65.0498 105.676C65.0016 107.332 65.2425 108.988 65.7686 110.558C66.2021 111.832 66.8135 113.036 67.5916 114.133C67.6546 114.222 67.7139 114.314 67.7621 114.411L67.7658 114.414Z" fill="#8AE5CC" stroke="#0B4D5E" stroke-width="0.4"/>
<path d="M106.01 93.6748L106.362 94.6194C110.097 94.5379 112.431 95.0417 112.754 96.1899C113.617 99.2866 99.57 105.902 81.3808 110.962C63.1915 116.025 47.7478 117.618 46.8845 114.522C46.6844 113.807 47.2809 112.907 48.5333 111.884L47.8627 111.058C44.8206 113.262 43.2755 115.292 43.7164 116.877C44.9911 121.456 62.3133 120.637 82.4034 115.044C102.494 109.451 117.748 101.209 116.47 96.627C115.888 94.5416 111.983 93.5785 106.006 93.6711L106.01 93.6748Z" fill="#8AE5CC" stroke="#0B4D5E" stroke-width="0.4"/>
<mask id="mask1_9503_10648" style="mask-type:luminance" maskUnits="userSpaceOnUse" x="100" y="153" width="15" height="15">
<path d="M107.639 167.772C111.644 167.772 114.89 164.527 114.89 160.523C114.89 156.52 111.644 153.274 107.639 153.274C103.634 153.274 100.388 156.52 100.388 160.523C100.388 164.527 103.634 167.772 107.639 167.772Z" fill="white"/>
</mask>
<g mask="url(#mask1_9503_10648)">
<path d="M99.396 163.649L106.825 168.765H99.396V163.649Z" fill="#F0F4FF"/>
<path d="M99.396 163.079L107.651 168.765H106.825L99.396 163.65V163.079Z" fill="#F0F4FF"/>
<path d="M99.396 162.512L108.478 168.764H107.651L99.396 163.078V162.512Z" fill="#F0F4FF"/>
<path d="M99.396 161.941L109.308 168.764H108.478L99.396 162.512V161.941Z" fill="#F0F4FF"/>
<path d="M99.396 161.371L110.134 168.765H109.308L99.396 161.942V161.371Z" fill="#F0F4FF"/>
<path d="M99.396 160.805L110.96 168.765H110.134L99.396 161.371V160.805Z" fill="#F0F4FF"/>
<path d="M99.396 160.233L111.386 168.486L111.197 168.764H110.96L99.396 160.804V160.233Z" fill="#F0F4FF"/>
<path d="M99.396 159.664L111.653 168.102L111.386 168.487L99.396 160.234V159.664Z" fill="#F0F4FF"/>
<path d="M99.396 159.097L111.92 167.716L111.653 168.101L99.396 159.663V159.097Z" fill="#F0F4FF"/>
<path d="M99.396 159.086L99.6554 158.708L112.183 167.327L111.92 167.716L99.396 159.097V159.086Z" fill="#F0F4FF"/>
<path d="M99.9242 158.34L99.6573 158.728L112.185 167.351L112.452 166.963L99.9242 158.34Z" fill="#F0F4FF"/>
<path d="M100.19 157.954L99.9228 158.342L112.45 166.965L112.717 166.578L100.19 157.954Z" fill="#F0F4FF"/>
<path d="M100.457 157.566L100.19 157.953L112.718 166.576L112.985 166.189L100.457 157.566Z" fill="#F0F4FF"/>
<path d="M100.723 157.179L100.456 157.566L112.984 166.19L113.25 165.802L100.723 157.179Z" fill="#F0F4FF"/>
<path d="M100.99 156.796L100.723 157.184L113.251 165.807L113.518 165.42L100.99 156.796Z" fill="#F0F4FF"/>
<path d="M101.256 156.409L100.989 156.797L113.517 165.42L113.783 165.033L101.256 156.409Z" fill="#F0F4FF"/>
<path d="M101.517 156.022L101.25 156.409L113.778 165.033L114.045 164.645L101.517 156.022Z" fill="#F0F4FF"/>
<path d="M101.785 155.635L101.518 156.022L114.045 164.646L114.312 164.258L101.785 155.635Z" fill="#F0F4FF"/>
<path d="M102.05 155.251L101.783 155.639L114.311 164.262L114.578 163.875L102.05 155.251Z" fill="#F0F4FF"/>
<path d="M102.318 154.865L102.051 155.253L114.579 163.876L114.845 163.489L102.318 154.865Z" fill="#F0F4FF"/>
<path d="M102.583 154.479L102.316 154.866L114.844 163.49L115.111 163.102L102.583 154.479Z" fill="#F0F4FF"/>
<path d="M102.847 154.091L102.58 154.479L115.107 163.102L115.374 162.714L102.847 154.091Z" fill="#F0F4FF"/>
<path d="M103.114 153.707L102.847 154.095L115.375 162.718L115.642 162.331L103.114 153.707Z" fill="#F0F4FF"/>
<path d="M103.111 153.689L103.378 153.3L115.883 161.908V161.956L115.638 162.308L103.111 153.689Z" fill="#F0F4FF"/>
<path d="M103.38 153.299L103.644 152.914L115.886 161.337V161.908L103.38 153.299Z" fill="#F0F4FF"/>
<path d="M103.642 152.915L103.909 152.529L115.884 160.767V161.338L103.642 152.915Z" fill="#F0F4FF"/>
<path d="M103.907 152.529L104.078 152.281H104.374L115.883 160.201V160.767L103.907 152.529Z" fill="#F0F4FF"/>
<path d="M105.202 152.281L115.884 159.63V160.201L104.376 152.281H105.202Z" fill="#F0F4FF"/>
<path d="M106.03 152.281L115.886 159.06V159.63L105.203 152.281H106.03Z" fill="#F0F4FF"/>
<path d="M106.855 152.281L115.885 158.493V159.06L106.029 152.281H106.855Z" fill="#F0F4FF"/>
<path d="M115.885 158.493L106.855 152.281H115.885V158.493Z" fill="#F0F4FF"/>
</g>
<mask id="mask2_9503_10648" style="mask-type:luminance" maskUnits="userSpaceOnUse" x="275" y="79" width="19" height="19">
<path d="M284.352 97.069C289.149 97.069 293.037 93.1817 293.037 88.3866C293.037 83.5914 289.149 79.7041 284.352 79.7041C279.555 79.7041 275.667 83.5914 275.667 88.3866C275.667 93.1817 279.555 97.069 284.352 97.069Z" fill="white"/>
</mask>
<g mask="url(#mask2_9503_10648)">
<path d="M274.475 92.1309L283.375 98.2575H274.475V92.1309Z" fill="#F0F4FF"/>
<path d="M274.475 91.4492L284.364 98.2574H283.375L274.475 92.1308V91.4492Z" fill="#F0F4FF"/>
<path d="M274.475 90.7676L285.357 98.2573H284.364L274.475 91.4491V90.7676Z" fill="#F0F4FF"/>
<path d="M274.475 90.0859L286.347 98.2572H285.357L274.475 90.7675V90.0859Z" fill="#F0F4FF"/>
<path d="M274.475 89.4043L287.336 98.2571H286.347L274.475 90.0859V89.4043Z" fill="#F0F4FF"/>
<path d="M274.475 88.7227L288.329 98.2571H287.336L274.475 89.4042V88.7227Z" fill="#F0F4FF"/>
<path d="M274.475 88.042L288.781 97.8875L288.525 98.2579H288.329L274.475 88.7235V88.042Z" fill="#F0F4FF"/>
<path d="M274.475 87.3604L289.1 97.4244L288.781 97.8875L274.475 88.0419V87.3604Z" fill="#F0F4FF"/>
<path d="M274.475 86.7897L274.527 86.7119L289.418 96.9612L289.1 97.4242L274.475 87.3601V86.7897Z" fill="#F0F4FF"/>
<path d="M274.865 86.2765L274.546 86.7402L289.436 96.9895L289.755 96.5258L274.865 86.2765Z" fill="#F0F4FF"/>
<path d="M275.181 85.8107L274.862 86.2744L289.751 96.5237L290.071 96.06L275.181 85.8107Z" fill="#F0F4FF"/>
<path d="M275.501 85.3488L275.182 85.8125L290.071 96.0618L290.391 95.5981L275.501 85.3488Z" fill="#F0F4FF"/>
<path d="M275.819 84.8869L275.499 85.3506L290.389 95.5999L290.708 95.1362L275.819 84.8869Z" fill="#F0F4FF"/>
<path d="M276.136 84.424L275.817 84.8877L290.707 95.137L291.026 94.6733L276.136 84.424Z" fill="#F0F4FF"/>
<path d="M276.456 83.9611L276.137 84.4248L291.027 94.6741L291.346 94.2104L276.456 83.9611Z" fill="#F0F4FF"/>
<path d="M276.774 83.4992L276.455 83.9629L291.344 94.2122L291.664 93.7485L276.774 83.4992Z" fill="#F0F4FF"/>
<path d="M277.094 83.0372L276.775 83.501L291.664 93.7503L291.984 93.2866L277.094 83.0372Z" fill="#F0F4FF"/>
<path d="M277.41 82.5753L277.09 83.0391L291.98 93.2884L292.299 92.8246L277.41 82.5753Z" fill="#F0F4FF"/>
<path d="M277.729 82.1095L277.41 82.5732L292.3 92.8226L292.619 92.3588L277.729 82.1095Z" fill="#F0F4FF"/>
<path d="M278.049 81.6476L277.73 82.1113L292.62 92.3606L292.939 91.8969L278.049 81.6476Z" fill="#F0F4FF"/>
<path d="M278.363 81.1847L278.043 81.6484L292.933 91.8977L293.253 91.434L278.363 81.1847Z" fill="#F0F4FF"/>
<path d="M278.687 80.7247L278.367 81.1885L293.257 91.4378L293.577 90.974L278.687 80.7247Z" fill="#F0F4FF"/>
<path d="M279.005 80.2599L278.685 80.7236L293.575 90.9729L293.894 90.5092L279.005 80.2599Z" fill="#F0F4FF"/>
<path d="M279.324 79.798L279.005 80.2617L293.895 90.511L294.214 90.0473L279.324 79.798Z" fill="#F0F4FF"/>
<path d="M279.304 79.7775L279.623 79.3145L294.225 89.3637V89.9823L294.196 90.0231L279.304 79.7775Z" fill="#F0F4FF"/>
<path d="M279.622 79.3146L279.94 78.8516L294.224 88.6823V89.3639L279.622 79.3146Z" fill="#F0F4FF"/>
<path d="M279.942 78.8517L280.175 78.5146H280.442L294.226 88.0009V88.6824L279.942 78.8517Z" fill="#F0F4FF"/>
<path d="M281.433 78.5146L294.227 87.3193V88.0009L280.443 78.5146H281.433Z" fill="#F0F4FF"/>
<path d="M282.423 78.5146L294.224 86.6378V87.3193L281.43 78.5146H282.423Z" fill="#F0F4FF"/>
<path d="M283.412 78.5146L294.224 85.9562V86.6378L282.423 78.5146H283.412Z" fill="#F0F4FF"/>
<path d="M294.226 85.9562L283.414 78.5146H294.226V85.9562Z" fill="#F0F4FF"/>
</g>
<path d="M178.23 209.47C174.603 209.381 173.88 209.362 173.232 209.348C172.583 209.333 144.905 219.945 138.758 222.09C132.611 224.235 122.973 233.176 122.469 253.467C121.965 273.759 121.854 278.215 121.854 278.215L286.284 282.289C286.284 282.289 274.349 260.579 268.851 250.53C261.718 237.499 239.271 223.931 239.271 223.931L178.23 209.474V209.47Z" fill="#8AE5CC" stroke="#0B4D5E" stroke-width="0.4"/>
<path d="M178.737 221.483C184.025 226.857 213.919 264.191 219.859 271.621C220.518 272.444 221.5 272.933 222.556 272.959L243.009 273.466C244.869 273.511 246.466 272.103 246.648 270.255C247.07 265.939 247.645 257.279 246.729 247.789C245.911 239.333 244.114 232.128 241.372 226.272C240.801 225.813 240.301 225.416 239.886 225.098C247.937 240.681 246.537 263.154 245.848 270.181C245.707 271.61 244.469 272.699 243.032 272.666L222.578 272.159C221.763 272.14 221 271.762 220.492 271.125C214.549 263.691 184.632 226.328 179.315 220.927C174.232 215.763 169.137 212.745 164.553 212.411C163.783 212.696 162.979 213 162.149 213.311C167.077 212.522 172.89 215.552 178.741 221.494L178.737 221.483Z" fill="#0B4D5E" stroke="#0B4D5E" stroke-width="0.4"/>
<path d="M244.099 270.903C241.913 259.012 236.84 242.399 236.792 242.233L237.307 242.077C237.359 242.244 242.435 258.886 244.629 270.81L244.099 270.906V270.903Z" fill="white" stroke="#0B4D5E" stroke-width="0.4"/>
<path d="M206.225 194.034C206.225 194.034 204.739 194.016 202.605 193.99L202.861 183.622L180.788 186.674L180.214 201.961L178.195 202.435L174.004 209.336C174.004 209.336 188.006 207.884 201.746 226.549C211.246 239.454 214.647 244.01 223.533 244.229C232.418 244.447 238.832 245.022 239.013 237.676L239.595 214.196L206.225 194.034Z" fill="#8AE5CC" stroke="#0B4D5E" stroke-width="0.4"/>
<path d="M243.89 269.065L223.348 268.554L223.315 269.817L244.316 270.335L243.89 269.065Z" fill="white" stroke="#0B4D5E" stroke-width="0.4"/>
<path d="M244.494 270.995C242.308 259.105 237.236 242.492 237.187 242.325L237.702 242.17C237.754 242.337 242.831 258.979 245.024 270.903L244.494 270.999V270.995Z" fill="#8AE5CC" stroke="#0B4D5E" stroke-width="0.4"/>
<path d="M111.015 277.944C111.015 277.944 122.379 249.234 126.366 241.529C130.353 233.825 132.398 227.024 141.169 227.242C145.041 227.339 149.198 230.369 152.874 234.388C159.617 241.763 163.53 251.293 164.145 261.268L165.253 279.182L111.015 277.944Z" fill="#8AE5CC" stroke="#0B4D5E" stroke-width="0.4"/>
<path d="M200.636 280.881C195.107 254.578 178.626 235.613 178.463 235.424L178.867 235.068C179.034 235.257 195.604 254.322 201.165 280.77L200.639 280.881H200.636Z" fill="white" stroke="#0B4D5E" stroke-width="0.4"/>
<path d="M166.483 252.126C158.706 222.975 139.175 220.712 134.303 224.564C134.303 224.564 125.895 230.453 123.439 243.792C123.439 243.792 128.667 226.483 138.445 225.012C148.224 223.542 161.611 237.725 166.483 252.126Z" fill="#0B4D5E" stroke="#0B4D5E" stroke-width="0.4"/>
<path d="M201.097 280.893C195.569 254.59 179.088 235.625 178.925 235.436L179.329 235.08C179.496 235.269 196.066 254.334 201.627 280.781L201.101 280.893H201.097Z" fill="#F0F4FF" stroke="#0B4D5E" stroke-width="0.4"/>
<path d="M199.705 245.033L203.032 245.114C204.447 245.148 205.774 245.811 206.652 246.918L223.241 267.843C223.819 268.573 224.693 269.01 225.623 269.032L244.413 269.499C244.668 269.506 244.88 269.302 244.887 269.047L245.409 249.656C245.421 249.204 245.628 248.782 245.976 248.493L246.984 247.663L247.377 260.175L247.029 269.721L246.136 271.721L245.15 272.581L243.149 273.006L223.041 272.51L220.825 271.406L199.705 245.029V245.033Z" fill="#F0F4FF" stroke="#0B4D5E" stroke-width="0.4"/>
<path d="M179.415 221.301C184.702 226.676 214.596 264.009 220.536 271.44C221.196 272.262 222.177 272.751 223.233 272.777L243.687 273.284C245.547 273.329 247.144 271.921 247.325 270.073C247.748 265.758 248.322 257.097 247.407 247.608C246.588 239.151 244.791 231.947 242.049 226.09C241.478 225.631 240.978 225.235 240.563 224.916C248.615 240.499 247.214 262.972 246.525 269.999C246.384 271.429 245.147 272.518 243.709 272.484L223.256 271.977C222.441 271.958 221.677 271.581 221.17 270.943C215.226 263.509 185.31 226.146 179.993 220.745C174.909 215.582 169.814 212.563 165.231 212.229C164.46 212.515 163.656 212.818 162.826 213.13C167.754 212.341 173.568 215.371 179.418 221.312L179.415 221.301Z" fill="#F0F4FF" stroke="#0B4D5E" stroke-width="0.4"/>
<path d="M186.805 200.432C194.144 206.5 201.835 208.652 209.583 210.988C217.33 213.325 231.987 215.844 241.981 212.663L186.805 200.432Z" fill="#0B4D5E" stroke="#0B4D5E" stroke-width="0.4"/>
<path d="M260.238 194.311C262.761 177.187 249.092 136.059 243.794 127.175C243.511 126.698 243.175 126.218 242.794 125.738C236.011 117.134 214.677 108.577 196.338 114.617C176.975 120.992 162.908 129.609 158.861 143.825C154.814 158.042 160.912 173.679 160.912 173.679C160.912 173.679 168.933 195.341 180.571 198.906C192.209 202.471 224.483 211.251 233.027 212.789C241.572 214.323 255.884 211.053 259.806 196.435C259.983 195.776 260.126 195.068 260.238 194.311Z" fill="#8AE5CC" stroke="#0B4D5E" stroke-width="0.4"/>
<path d="M235.741 199.951C227.206 198.642 217.626 195.44 211.344 191.789C202.605 186.713 192.04 180.028 188.56 177.756L188.038 178.553C191.526 180.828 202.111 187.526 210.866 192.612C215.322 195.2 221.402 197.563 227.609 199.209C230.29 199.919 232.992 200.493 235.597 200.893C242.594 201.964 252.025 202.32 259.246 198.564C259.388 198.142 259.517 197.707 259.638 197.265C252.561 201.388 242.871 201.044 235.742 199.954L235.741 199.951Z" fill="#0B4D5E" stroke="#0B4D5E" stroke-width="0.4"/>
<path d="M209.857 141.974C205.781 153.047 213.358 172.499 214.558 175.532C215.734 178.508 226.731 205.658 260.239 194.315C262.763 177.19 249.093 136.062 243.796 127.179C243.512 126.702 243.176 126.222 242.796 125.742C231.417 128.156 213.742 131.423 209.858 141.977L209.857 141.974Z" fill="#0B4D5E" stroke="#0B4D5E" stroke-width="0.4"/>
<path d="M187.16 192.253C188.092 194.012 188.999 195.583 189.884 196.982C209.112 203.957 235.786 213.659 252.895 208.166C254.374 206.883 255.717 205.357 256.857 203.55C238.994 211.931 207.653 199.626 187.16 192.249L187.16 192.253Z" fill="white" stroke="#0B4D5E" stroke-width="0.4"/>
<path d="M209.856 141.974C213.74 131.42 231.415 128.153 242.794 125.739C243.171 126.219 243.507 126.699 243.794 127.176C243.872 127.306 243.951 127.444 244.035 127.59C243.951 127.444 243.872 127.306 243.794 127.176C243.51 126.699 243.174 126.219 242.794 125.739C236.01 117.134 214.677 108.578 196.337 114.617C183.247 118.929 172.578 124.262 165.787 131.658C172.205 140.883 183.195 150.256 197.047 157.431C201.582 159.781 206.135 161.74 210.599 163.315C208.848 156.359 207.653 147.949 209.853 141.978L209.856 141.974Z" fill="#F0F4FF" stroke="#0B4D5E" stroke-width="0.4"/>
<path d="M161.627 162.808C157.58 156.354 157.554 150.24 158.803 144.04C157.712 147.973 157.389 152.006 157.493 155.782C157.81 158.769 158.585 161.501 159.999 163.754C165.81 173.012 174.507 183.379 178.182 197.904C178.959 198.316 179.755 198.659 180.573 198.907C180.897 199.005 181.238 199.109 181.593 199.215C178.021 183.629 167.688 172.465 161.627 162.808Z" fill="#8AE5CC" stroke="#0B4D5E" stroke-width="0.4"/>
<path d="M175.089 124.088L175.368 123.922C175.368 123.922 175.398 123.886 175.416 123.869C175.212 124.002 175.089 124.088 175.089 124.088Z" fill="#0B4D5E" stroke="#0B4D5E" stroke-width="0.4"/>
<path d="M235.882 199.239C227.346 197.93 217.767 194.728 211.484 191.077C202.745 186.002 192.18 179.316 188.7 177.044L188.178 177.841C191.666 180.116 202.251 186.815 211.006 191.9C215.462 194.488 221.542 196.851 227.749 198.498C230.43 199.207 233.132 199.781 235.737 200.181C242.734 201.252 252.165 201.608 259.386 197.852C259.528 197.43 259.657 196.995 259.778 196.553C252.701 200.676 243.011 200.332 235.882 199.242L235.882 199.239Z" fill="#F0F4FF" stroke="#0B4D5E" stroke-width="0.4"/>
<path d="M175.089 124.088L175.368 123.922C175.368 123.922 175.398 123.886 175.416 123.869C175.212 124.002 175.089 124.088 175.089 124.088Z" fill="#0B4D5E" stroke="#0B4D5E" stroke-width="0.4"/>
<path d="M249.296 139.938C249.329 140.025 249.36 140.115 249.394 140.205C249.36 140.115 249.33 140.028 249.296 139.938Z" fill="#8AE5CC" stroke="#0B4D5E" stroke-width="0.4"/>
<path d="M249.647 140.919C249.687 141.031 249.726 141.146 249.77 141.261C249.73 141.146 249.691 141.034 249.647 140.919Z" fill="#8AE5CC" stroke="#0B4D5E" stroke-width="0.4"/>
<path d="M248.537 137.889C248.566 137.968 248.599 138.051 248.629 138.13C248.599 138.047 248.566 137.968 248.537 137.889Z" fill="#8AE5CC" stroke="#0B4D5E" stroke-width="0.4"/>
<path d="M248.909 138.894C248.943 138.984 248.977 139.07 249.007 139.16C248.973 139.07 248.939 138.98 248.909 138.894Z" fill="#8AE5CC" stroke="#0B4D5E" stroke-width="0.4"/>
<path d="M248.169 136.921C248.197 136.989 248.222 137.061 248.251 137.129C248.222 137.061 248.197 136.989 248.169 136.921Z" fill="#8AE5CC" stroke="#0B4D5E" stroke-width="0.4"/>
<path d="M251.169 145.314C251.214 145.444 251.255 145.575 251.3 145.705C251.255 145.575 251.214 145.444 251.169 145.314Z" fill="#8AE5CC" stroke="#0B4D5E" stroke-width="0.4"/>
<path d="M251.564 146.503C251.605 146.633 251.65 146.763 251.691 146.893C251.65 146.763 251.605 146.633 251.564 146.503Z" fill="#8AE5CC" stroke="#0B4D5E" stroke-width="0.4"/>
<path d="M250.011 141.939C250.05 142.051 250.09 142.163 250.129 142.275C250.09 142.163 250.05 142.051 250.011 141.939Z" fill="#8AE5CC" stroke="#0B4D5E" stroke-width="0.4"/>
<path d="M247.807 136.001C247.827 136.055 247.85 136.105 247.87 136.159C247.85 136.105 247.827 136.055 247.807 136.001Z" fill="#8AE5CC" stroke="#0B4D5E" stroke-width="0.4"/>
<path d="M250.391 143.024C250.431 143.14 250.471 143.252 250.511 143.367C250.471 143.252 250.431 143.14 250.391 143.024Z" fill="#8AE5CC" stroke="#0B4D5E" stroke-width="0.4"/>
<path d="M250.778 144.155C250.818 144.278 250.863 144.401 250.904 144.527C250.863 144.404 250.819 144.282 250.778 144.155Z" fill="#8AE5CC" stroke="#0B4D5E" stroke-width="0.4"/>
<path d="M246.428 132.611C246.447 132.658 246.466 132.705 246.488 132.751C246.469 132.704 246.45 132.658 246.428 132.611Z" fill="#8AE5CC" stroke="#0B4D5E" stroke-width="0.4"/>
<path d="M244.864 129.176C244.877 129.201 244.891 129.229 244.904 129.254C244.891 129.229 244.877 129.201 244.864 129.176Z" fill="#8AE5CC" stroke="#0B4D5E" stroke-width="0.4"/>
<path d="M245.169 129.803C245.178 129.824 245.188 129.845 245.2 129.866C245.191 129.845 245.182 129.824 245.169 129.803Z" fill="#8AE5CC" stroke="#0B4D5E" stroke-width="0.4"/>
<path d="M245.777 131.125C245.787 131.15 245.8 131.171 245.809 131.196C245.8 131.171 245.787 131.15 245.777 131.125Z" fill="#8AE5CC" stroke="#0B4D5E" stroke-width="0.4"/>
<path d="M245.485 130.475C245.485 130.475 245.485 130.48 245.488 130.482C245.488 130.48 245.488 130.477 245.485 130.475Z" fill="#8AE5CC" stroke="#0B4D5E" stroke-width="0.4"/>
<path d="M247.126 134.283C247.145 134.33 247.164 134.377 247.183 134.423C247.164 134.377 247.145 134.33 247.126 134.283Z" fill="#8AE5CC" stroke="#0B4D5E" stroke-width="0.4"/>
<path d="M246.775 133.426C246.794 133.476 246.817 133.526 246.836 133.573C246.817 133.523 246.794 133.472 246.775 133.426Z" fill="#8AE5CC" stroke="#0B4D5E" stroke-width="0.4"/>
<path d="M247.477 135.156C247.492 135.196 247.51 135.235 247.525 135.275C247.51 135.235 247.492 135.196 247.477 135.156Z" fill="#8AE5CC" stroke="#0B4D5E" stroke-width="0.4"/>
<path d="M251.905 147.544C251.965 147.725 252.022 147.906 252.079 148.09C252.022 147.909 251.962 147.725 251.905 147.544Z" fill="#8AE5CC" stroke="#0B4D5E" stroke-width="0.4"/>
<path d="M246.097 131.841C246.116 131.88 246.13 131.916 246.148 131.955C246.13 131.916 246.116 131.88 246.097 131.841Z" fill="#8AE5CC" stroke="#0B4D5E" stroke-width="0.4"/>
<path d="M254.14 154.818C254.199 155.029 254.262 155.239 254.321 155.449C254.262 155.239 254.199 155.029 254.14 154.818Z" fill="#8AE5CC" stroke="#0B4D5E" stroke-width="0.4"/>
<path d="M253.433 152.438C253.48 152.59 253.527 152.745 253.57 152.898C253.523 152.742 253.476 152.59 253.433 152.438Z" fill="#8AE5CC" stroke="#0B4D5E" stroke-width="0.4"/>
<path d="M253.046 151.17C253.093 151.322 253.14 151.474 253.187 151.63C253.14 151.478 253.093 151.322 253.046 151.17Z" fill="#8AE5CC" stroke="#0B4D5E" stroke-width="0.4"/>
<path d="M252.666 149.925C252.712 150.069 252.758 150.214 252.801 150.363C252.755 150.218 252.708 150.07 252.666 149.925Z" fill="#8AE5CC" stroke="#0B4D5E" stroke-width="0.4"/>
<path d="M255.584 159.99C255.624 160.147 255.667 160.299 255.707 160.455C255.667 160.299 255.624 160.147 255.584 159.99Z" fill="#8AE5CC" stroke="#0B4D5E" stroke-width="0.4"/>
<path d="M254.865 157.361C254.908 157.517 254.951 157.67 254.995 157.826C254.951 157.67 254.908 157.517 254.865 157.361Z" fill="#8AE5CC" stroke="#0B4D5E" stroke-width="0.4"/>
<path d="M253.811 153.687C253.859 153.85 253.907 154.013 253.955 154.176C253.907 154.013 253.859 153.85 253.811 153.687Z" fill="#8AE5CC" stroke="#0B4D5E" stroke-width="0.4"/>
<path d="M252.275 148.709C252.332 148.894 252.393 149.078 252.45 149.263C252.393 149.078 252.332 148.894 252.275 148.709Z" fill="#8AE5CC" stroke="#0B4D5E" stroke-width="0.4"/>
<path d="M254.499 156.066C254.558 156.273 254.617 156.484 254.677 156.69C254.617 156.48 254.558 156.273 254.499 156.066Z" fill="#8AE5CC" stroke="#0B4D5E" stroke-width="0.4"/>
<path d="M255.233 158.668C255.276 158.824 255.32 158.984 255.36 159.14C255.316 158.984 255.273 158.824 255.233 158.668Z" fill="#8AE5CC" stroke="#0B4D5E" stroke-width="0.4"/>
<path d="M245.811 131.197C245.904 131.409 246.001 131.623 246.094 131.842C245.997 131.623 245.904 131.409 245.811 131.197Z" fill="#F0F4FF" stroke="#0B4D5E" stroke-width="0.4"/>
<path d="M254.997 157.825C255.073 158.105 255.154 158.388 255.231 158.671C255.154 158.388 255.077 158.108 254.997 157.825Z" fill="#F0F4FF" stroke="#0B4D5E" stroke-width="0.4"/>
<path d="M254.675 156.69C254.739 156.912 254.799 157.137 254.863 157.358C254.799 157.133 254.739 156.912 254.675 156.69Z" fill="#F0F4FF" stroke="#0B4D5E" stroke-width="0.4"/>
<path d="M246.833 133.576C246.928 133.81 247.027 134.043 247.126 134.283C247.027 134.043 246.931 133.806 246.833 133.576Z" fill="#F0F4FF" stroke="#0B4D5E" stroke-width="0.4"/>
<path d="M246.484 132.748C246.578 132.97 246.672 133.196 246.77 133.426C246.676 133.196 246.578 132.97 246.484 132.748Z" fill="#F0F4FF" stroke="#0B4D5E" stroke-width="0.4"/>
<path d="M246.147 131.956C246.241 132.171 246.334 132.39 246.428 132.612C246.334 132.39 246.241 132.171 246.147 131.956Z" fill="#F0F4FF" stroke="#0B4D5E" stroke-width="0.4"/>
<path d="M255.933 161.309C255.86 161.026 255.783 160.739 255.709 160.455C255.786 160.738 255.86 161.022 255.933 161.309Z" fill="#F0F4FF" stroke="#0B4D5E" stroke-width="0.4"/>
<path d="M244.611 128.674C244.692 128.834 244.777 129.001 244.863 129.176C244.778 129.005 244.696 128.837 244.611 128.674Z" fill="#F0F4FF" stroke="#0B4D5E" stroke-width="0.4"/>
<path d="M244.906 129.254C244.992 129.432 245.082 129.614 245.17 129.803C245.079 129.614 244.992 129.432 244.906 129.254Z" fill="#F0F4FF" stroke="#0B4D5E" stroke-width="0.4"/>
<path d="M245.487 130.489C245.583 130.696 245.68 130.911 245.777 131.126C245.68 130.907 245.583 130.693 245.487 130.489Z" fill="#F0F4FF" stroke="#0B4D5E" stroke-width="0.4"/>
<path d="M255.358 159.141C255.435 159.424 255.512 159.707 255.585 159.991C255.508 159.708 255.435 159.424 255.358 159.141Z" fill="#F0F4FF" stroke="#0B4D5E" stroke-width="0.4"/>
<path d="M245.201 129.867C245.296 130.063 245.388 130.267 245.485 130.478C245.388 130.267 245.292 130.067 245.201 129.867Z" fill="#F0F4FF" stroke="#0B4D5E" stroke-width="0.4"/>
<path d="M253.186 151.626C253.269 151.894 253.349 152.166 253.432 152.434C253.349 152.162 253.269 151.894 253.186 151.626Z" fill="#F0F4FF" stroke="#0B4D5E" stroke-width="0.4"/>
<path d="M252.08 148.09C252.147 148.296 252.213 148.502 252.28 148.708C252.213 148.502 252.147 148.296 252.08 148.09Z" fill="#F0F4FF" stroke="#0B4D5E" stroke-width="0.4"/>
<path d="M252.797 150.362C252.88 150.63 252.963 150.898 253.047 151.17C252.963 150.898 252.88 150.63 252.797 150.362Z" fill="#F0F4FF" stroke="#0B4D5E" stroke-width="0.4"/>
<path d="M187.348 191.546C188.28 193.305 189.187 194.876 190.072 196.275C209.3 203.249 235.975 212.952 253.083 207.459C254.562 206.176 255.905 204.65 257.045 202.843C239.182 211.224 207.842 198.919 187.348 191.542L187.348 191.546Z" fill="#0B4D5E" stroke="#0B4D5E" stroke-width="0.4"/>
<path d="M249.77 141.258C249.85 141.485 249.933 141.712 250.012 141.939C249.933 141.712 249.849 141.481 249.77 141.258Z" fill="#F0F4FF" stroke="#0B4D5E" stroke-width="0.4"/>
<path d="M250.506 143.368C250.596 143.628 250.686 143.892 250.776 144.155C250.686 143.892 250.596 143.628 250.506 143.368Z" fill="#F0F4FF" stroke="#0B4D5E" stroke-width="0.4"/>
<path d="M250.132 142.275C250.221 142.524 250.306 142.773 250.395 143.026C250.306 142.773 250.221 142.524 250.132 142.275Z" fill="#F0F4FF" stroke="#0B4D5E" stroke-width="0.4"/>
<path d="M251.696 146.894C251.767 147.11 251.838 147.327 251.909 147.544C251.838 147.327 251.767 147.11 251.696 146.894Z" fill="#F0F4FF" stroke="#0B4D5E" stroke-width="0.4"/>
<path d="M250.908 144.526C250.997 144.786 251.084 145.05 251.174 145.314C251.084 145.05 250.997 144.786 250.908 144.526Z" fill="#F0F4FF" stroke="#0B4D5E" stroke-width="0.4"/>
<path d="M251.301 145.701C251.387 145.965 251.477 146.232 251.564 146.5C251.477 146.232 251.387 145.965 251.301 145.701Z" fill="#F0F4FF" stroke="#0B4D5E" stroke-width="0.4"/>
<path d="M252.452 149.259C252.524 149.479 252.592 149.7 252.663 149.921C252.595 149.7 252.524 149.476 252.452 149.259Z" fill="#F0F4FF" stroke="#0B4D5E" stroke-width="0.4"/>
<path d="M254.323 155.449C254.383 155.656 254.441 155.859 254.5 156.066C254.441 155.859 254.383 155.656 254.323 155.449Z" fill="#F0F4FF" stroke="#0B4D5E" stroke-width="0.4"/>
<path d="M247.872 136.159C247.969 136.411 248.069 136.666 248.166 136.922C248.065 136.667 247.969 136.411 247.872 136.159Z" fill="#F0F4FF" stroke="#0B4D5E" stroke-width="0.4"/>
<path d="M253.956 154.177C254.019 154.391 254.082 154.604 254.142 154.822C254.079 154.608 254.016 154.395 253.956 154.177Z" fill="#F0F4FF" stroke="#0B4D5E" stroke-width="0.4"/>
<path d="M247.527 135.278C247.622 135.515 247.718 135.756 247.814 136.001C247.718 135.756 247.622 135.515 247.527 135.278Z" fill="#F0F4FF" stroke="#0B4D5E" stroke-width="0.4"/>
<path d="M247.184 134.423C247.284 134.663 247.379 134.908 247.479 135.156C247.379 134.908 247.28 134.664 247.184 134.423Z" fill="#F0F4FF" stroke="#0B4D5E" stroke-width="0.4"/>
<path d="M249.011 139.16C249.105 139.416 249.202 139.675 249.295 139.938C249.202 139.675 249.105 139.42 249.011 139.16Z" fill="#F0F4FF" stroke="#0B4D5E" stroke-width="0.4"/>
<path d="M248.248 137.13C248.345 137.378 248.441 137.634 248.538 137.889C248.441 137.634 248.345 137.382 248.248 137.13Z" fill="#F0F4FF" stroke="#0B4D5E" stroke-width="0.4"/>
<path d="M253.573 152.897C253.652 153.162 253.731 153.423 253.81 153.687C253.731 153.423 253.652 153.158 253.573 152.897Z" fill="#F0F4FF" stroke="#0B4D5E" stroke-width="0.4"/>
<path d="M249.39 140.201C249.474 140.439 249.562 140.677 249.646 140.915C249.561 140.673 249.474 140.436 249.39 140.201Z" fill="#F0F4FF" stroke="#0B4D5E" stroke-width="0.4"/>
<path d="M170.544 141.976C172.54 156.05 181.853 190.253 194.029 203.304L195.103 203.589C191.187 199.686 186.423 192.399 181.253 179.035C175.933 165.268 172.326 150.461 171.11 141.9C170.955 140.81 170.869 139.739 170.84 138.693C170.643 138.483 170.45 138.27 170.257 138.06C170.26 139.331 170.357 140.643 170.545 141.983L170.544 141.976Z" fill="#0B4D5E" stroke="#0B4D5E" stroke-width="0.4"/>
<path d="M248.629 138.13C248.722 138.382 248.818 138.634 248.915 138.893C248.818 138.638 248.725 138.382 248.629 138.13Z" fill="#F0F4FF" stroke="#0B4D5E" stroke-width="0.4"/>
<path d="M255.933 161.31C255.86 161.026 255.783 160.739 255.709 160.456C255.67 160.299 255.626 160.147 255.587 159.99C255.51 159.707 255.437 159.423 255.36 159.14C255.316 158.984 255.273 158.824 255.233 158.668C255.156 158.385 255.079 158.105 254.999 157.822C254.955 157.666 254.912 157.514 254.869 157.357C254.804 157.133 254.744 156.911 254.68 156.69C254.621 156.479 254.562 156.273 254.503 156.066C254.444 155.859 254.385 155.656 254.326 155.449C254.266 155.239 254.203 155.029 254.144 154.818C254.081 154.604 254.017 154.387 253.957 154.173C253.91 154.01 253.862 153.846 253.814 153.683C253.735 153.419 253.656 153.154 253.577 152.893C253.53 152.738 253.483 152.586 253.44 152.433C253.357 152.162 253.278 151.893 253.195 151.626C253.148 151.473 253.101 151.318 253.054 151.166C252.971 150.894 252.888 150.626 252.805 150.358C252.759 150.214 252.712 150.065 252.67 149.92C252.602 149.699 252.53 149.475 252.459 149.258C252.402 149.074 252.341 148.889 252.284 148.705C252.218 148.499 252.151 148.292 252.085 148.086C252.028 147.905 251.967 147.721 251.911 147.54C251.839 147.323 251.768 147.106 251.697 146.889C251.656 146.759 251.611 146.629 251.57 146.499C251.483 146.232 251.393 145.964 251.307 145.7C251.262 145.57 251.221 145.44 251.176 145.31C251.086 145.047 250.999 144.783 250.91 144.523C250.869 144.4 250.825 144.278 250.784 144.151C250.694 143.887 250.604 143.624 250.514 143.364C250.474 143.249 250.435 143.137 250.395 143.021C250.31 142.769 250.221 142.52 250.132 142.271C250.093 142.159 250.053 142.047 250.013 141.936C249.934 141.708 249.851 141.478 249.771 141.254C249.732 141.138 249.692 141.027 249.648 140.912C249.564 140.67 249.476 140.432 249.392 140.198C249.359 140.108 249.329 140.021 249.295 139.931C249.201 139.668 249.104 139.412 249.011 139.153C248.977 139.063 248.943 138.973 248.913 138.886C248.816 138.631 248.723 138.375 248.627 138.123C248.597 138.04 248.564 137.961 248.535 137.882C248.438 137.626 248.342 137.375 248.245 137.123C248.217 137.055 248.192 136.982 248.164 136.914C248.063 136.659 247.966 136.404 247.87 136.152C247.85 136.098 247.827 136.048 247.808 135.994C247.712 135.749 247.616 135.508 247.521 135.271C247.507 135.232 247.488 135.192 247.474 135.153C247.374 134.905 247.274 134.661 247.179 134.42C247.16 134.373 247.141 134.327 247.122 134.28C247.023 134.04 246.928 133.803 246.829 133.573C246.81 133.523 246.787 133.473 246.768 133.426C246.674 133.196 246.576 132.971 246.482 132.748C246.463 132.702 246.444 132.655 246.421 132.609C246.327 132.386 246.234 132.168 246.141 131.953C246.122 131.914 246.108 131.878 246.09 131.838C245.992 131.62 245.899 131.405 245.806 131.194C245.797 131.169 245.784 131.148 245.774 131.122C245.677 130.904 245.58 130.689 245.484 130.486C245.484 130.482 245.483 130.479 245.479 130.475C245.383 130.264 245.287 130.064 245.195 129.864C245.186 129.843 245.176 129.821 245.163 129.8C245.072 129.611 244.986 129.429 244.9 129.251C244.886 129.226 244.873 129.197 244.859 129.172C244.774 129.001 244.692 128.834 244.607 128.67C244.594 128.645 244.58 128.617 244.567 128.592C244.486 128.432 244.401 128.275 244.325 128.126C244.312 128.105 244.303 128.083 244.29 128.062C244.209 127.909 244.129 127.764 244.05 127.626C244.042 127.612 244.037 127.601 244.028 127.587C243.945 127.442 243.866 127.304 243.788 127.173C243.504 126.696 243.168 126.216 242.788 125.736C231.409 128.15 213.734 131.417 209.85 141.971C207.651 147.946 208.841 156.353 210.596 163.309C230.328 170.262 248.372 169.64 255.925 161.303L255.933 161.31Z" fill="#8AE5CC" stroke="#0B4D5E" stroke-width="0.4"/>
<path d="M190.649 160.387C190.251 161.608 189.182 164.992 188.823 166.072L189.547 166.31C189.906 165.226 190.978 161.841 191.373 160.621C191.915 158.952 192.495 157.168 193.113 155.315C192.89 155.185 192.663 155.057 192.443 154.923C191.804 156.835 191.206 158.672 190.649 160.387Z" fill="white" stroke="#0B4D5E" stroke-width="0.4"/>
<path d="M214.466 117.847C217.325 115.924 220.349 114.9 223.496 114.78C223.161 114.691 222.826 114.605 222.487 114.519C222.438 114.509 222.392 114.494 222.343 114.484C221.997 114.399 221.651 114.317 221.302 114.236C218.787 114.658 216.36 115.651 214.039 117.216C210.372 119.682 206.866 123.645 203.611 128.994C198.8 136.905 195.212 146.645 192.441 154.923C192.665 155.056 192.888 155.185 193.112 155.314C195.876 147.044 199.458 137.286 204.26 129.391C207.455 124.136 210.887 120.254 214.463 117.851L214.466 117.847Z" fill="white" stroke="#0B4D5E" stroke-width="0.4"/>
<path d="M170.839 141.531C172.835 155.604 182.148 189.807 194.324 202.859L195.398 203.144C191.481 199.241 186.718 191.954 181.548 178.59C176.228 164.822 172.62 150.016 171.405 141.455C171.25 140.364 171.164 139.294 171.135 138.248C170.938 138.038 170.745 137.824 170.551 137.615C170.555 138.886 170.651 140.197 170.84 141.538L170.839 141.531Z" fill="#F0F4FF" stroke="#0B4D5E" stroke-width="0.4"/>
<path d="M177.649 122.58L175.372 123.922C172.21 127.363 170.534 132.135 170.549 137.607C170.739 137.818 170.936 138.031 171.133 138.24C170.953 131.649 173.248 126.049 177.649 122.58Z" fill="#F0F4FF" stroke="#0B4D5E" stroke-width="0.4"/>
<path d="M190.028 160.002C189.63 161.223 188.561 164.607 188.202 165.687L188.926 165.925C189.285 164.841 190.357 161.457 190.752 160.236C191.294 158.567 191.874 156.784 192.493 154.93C192.269 154.801 192.042 154.672 191.822 154.539C191.183 156.45 190.585 158.287 190.028 160.002Z" fill="#0B4D5E" stroke="#0B4D5E" stroke-width="0.4"/>
<path d="M213.845 117.468C216.704 115.544 219.728 114.52 222.875 114.401C222.54 114.311 222.205 114.225 221.866 114.139C221.817 114.129 221.771 114.114 221.722 114.104C221.376 114.019 221.03 113.937 220.681 113.857C218.167 114.278 215.739 115.271 213.418 116.836C209.751 119.302 206.245 123.265 202.99 128.614C198.179 136.525 194.591 146.265 191.82 154.543C192.044 154.676 192.267 154.805 192.491 154.934C195.255 146.664 198.837 136.906 203.639 129.011C206.834 123.756 210.266 119.875 213.842 117.472L213.845 117.468Z" fill="#8AE5CC" stroke="#0B4D5E" stroke-width="0.4"/>
<path d="M183.745 187.4C190.086 185.949 193.798 178.532 192.035 170.835C190.271 163.137 183.702 158.074 177.36 159.526C171.019 160.978 167.308 168.395 169.071 176.092C170.834 183.79 177.404 188.852 183.745 187.4Z" fill="#8AE5CC" stroke="#0B4D5E" stroke-width="0.4"/>
<path d="M180.38 185.277C185.87 184.02 189.143 177.863 187.691 171.523C186.239 165.184 180.611 161.064 175.122 162.321C169.632 163.578 166.359 169.736 167.811 176.075C169.263 182.414 174.891 186.534 180.38 185.277Z" fill="#F0F4FF" stroke="#0B4D5E" stroke-width="0.4"/>
<path d="M180.963 177.737C174.928 177.764 169.902 173.211 168.908 167.215C167.547 169.717 167.069 172.879 167.804 176.09C169.256 182.429 174.884 186.55 180.372 185.292C184.74 184.292 187.702 180.192 188.001 175.365C186.018 176.848 183.592 177.726 180.963 177.737Z" fill="#0B4D5E" stroke="#0B4D5E" stroke-width="0.4"/>
<path d="M180.964 177.737C183.592 177.726 186.019 176.848 188.001 175.365C188.079 174.124 187.981 172.835 187.685 171.541C186.233 165.202 180.605 161.081 175.117 162.339C172.408 162.959 170.239 164.774 168.909 167.215C169.903 173.211 174.929 177.764 180.964 177.737Z" fill="#F0F4FF" stroke="#0B4D5E" stroke-width="0.4"/>
<path d="M184.458 177.186C183.351 177.535 182.178 177.731 180.962 177.737C176.879 177.753 173.256 175.672 171.034 172.469C170.955 173.431 171.021 174.437 171.254 175.446C172.314 180.076 176.424 183.084 180.431 182.168C180.829 182.077 181.208 181.951 181.57 181.793C183.005 180.723 184.022 179.079 184.458 177.186V177.186Z" stroke="#0B4D5E" stroke-width="0.4"/>
<path d="M181.571 181.793C183.617 180.907 185.106 179.01 185.715 176.707C185.307 176.892 184.886 177.051 184.459 177.185C184.026 179.079 183.005 180.719 181.571 181.793Z" fill="#8AE5CC" stroke="#0B4D5E" stroke-width="0.4"/>
<path d="M185.775 172.125C184.715 167.496 180.605 164.487 176.598 165.403C175.683 165.614 174.854 166.01 174.128 166.549C174.49 166.391 174.869 166.265 175.267 166.174C179.278 165.258 183.384 168.267 184.444 172.896C184.782 174.376 184.77 175.846 184.459 177.186C184.89 177.047 185.307 176.888 185.716 176.707C186.093 175.287 186.138 173.714 185.771 172.125L185.775 172.125Z" fill="#8AE5CC" stroke="#0B4D5E" stroke-width="0.4"/>
<path d="M171.255 175.446C171.025 174.436 170.955 173.431 171.035 172.469C170.715 172.009 170.424 171.526 170.168 171.024C169.625 172.596 169.508 174.398 169.924 176.221C170.984 180.85 175.094 183.859 179.102 182.943C180.017 182.732 180.845 182.336 181.571 181.797C181.209 181.955 180.83 182.081 180.432 182.171C176.421 183.088 172.315 180.079 171.255 175.45L171.255 175.446Z" fill="#8AE5CC" stroke="#0B4D5E" stroke-width="0.4"/>
<path d="M171.036 172.468C171.236 170.03 172.37 167.864 174.129 166.549C172.266 167.356 170.866 168.996 170.169 171.02C170.429 171.525 170.717 172.006 171.036 172.465L171.036 172.468Z" fill="#8AE5CC" stroke="#0B4D5E" stroke-width="0.4"/>
<path d="M231.711 136.047C234.933 142.208 241.48 145.148 246.331 142.611C247.548 141.976 248.542 141.056 249.296 139.942C247.18 134.126 245.196 129.525 243.796 127.175C243.512 126.698 243.176 126.218 242.796 125.739C241.189 123.7 238.768 121.667 235.765 119.829C235.39 119.959 235.02 120.11 234.664 120.297C229.813 122.835 228.489 129.885 231.711 136.047Z" fill="white" stroke="#0B4D5E" stroke-width="0.4"/>
<path d="M237.921 149.643C238.873 148.06 238.113 145.856 236.225 144.721C234.336 143.586 232.033 143.949 231.08 145.533C230.128 147.116 230.888 149.32 232.777 150.455C234.666 151.59 236.969 151.226 237.921 149.643Z" fill="white" stroke="#0B4D5E" stroke-width="0.4"/>
<path d="M209.545 143.28C207.659 148.926 208.627 156.579 210.193 163.15L210.658 163.325C209.034 156.845 207.903 149.121 209.545 143.28Z" fill="#F0F4FF" stroke="#0B4D5E" stroke-width="0.4"/>
<path d="M260.174 194.458C226.779 205.681 215.81 178.602 214.634 175.63C214.08 174.225 212.161 169.306 210.658 163.325L210.193 163.15C211.721 169.55 213.813 174.918 214.396 176.395C215.572 179.37 226.569 206.521 260.077 195.177C260.113 194.943 260.144 194.703 260.171 194.459L260.174 194.458Z" fill="white" stroke="#0B4D5E" stroke-width="0.4"/>
<path d="M176.653 160.453C183.359 158.917 190.308 164.276 192.174 172.419C192.247 172.736 192.308 173.054 192.362 173.373C192.299 172.527 192.172 171.672 191.978 170.811C190.213 163.113 183.647 158.048 177.306 159.5C174.848 160.061 172.789 161.524 171.289 163.545C172.748 162.022 174.568 160.933 176.657 160.453L176.653 160.453Z" fill="white" stroke="#0B4D5E" stroke-width="0.4"/>
<path d="M169.922 157.101C170.935 157.37 171.539 158.406 171.271 159.419C171.262 159.445 171.253 159.472 171.245 159.499C171.346 159.341 171.428 159.171 171.478 158.98C171.733 158.025 171.16 157.045 170.204 156.79C169.511 156.609 168.811 156.857 168.376 157.367C168.815 157.072 169.37 156.956 169.923 157.105L169.922 157.101Z" fill="white" stroke="#0B4D5E" stroke-width="0.4"/>
<path d="M169.284 160.251C168.328 159.997 167.759 159.017 168.01 158.061C168.08 157.795 168.208 157.561 168.373 157.364C168.008 157.612 167.724 157.986 167.601 158.447C167.333 159.459 167.937 160.496 168.95 160.764C169.963 161.032 170.943 160.459 171.242 159.496C170.832 160.127 170.05 160.452 169.281 160.252L169.284 160.251Z" fill="#8AE5CC" stroke="#0B4D5E" stroke-width="0.4"/>
<path d="M218.3 187.658C219.29 187.92 219.881 188.936 219.619 189.926C219.61 189.952 219.601 189.976 219.596 190.002C219.694 189.848 219.772 189.678 219.823 189.495C220.072 188.558 219.511 187.6 218.575 187.351C217.897 187.172 217.211 187.415 216.787 187.917C217.215 187.626 217.76 187.515 218.3 187.658Z" fill="white" stroke="#0B4D5E" stroke-width="0.4"/>
<path d="M217.672 190.74C216.735 190.491 216.179 189.532 216.424 188.596C216.494 188.337 216.619 188.106 216.781 187.914C216.423 188.157 216.146 188.523 216.026 188.976C215.763 189.966 216.354 190.981 217.344 191.244C218.334 191.507 219.297 190.947 219.59 190.003C219.186 190.618 218.422 190.938 217.672 190.74Z" fill="#8AE5CC" stroke="#0B4D5E" stroke-width="0.4"/>
<path d="M207.707 169.429C208.697 169.692 209.288 170.707 209.025 171.697C209.017 171.724 209.007 171.747 209.002 171.773C209.1 171.62 209.178 171.449 209.229 171.266C209.478 170.33 208.918 169.371 207.981 169.123C207.304 168.944 206.618 169.186 206.194 169.688C206.622 169.398 207.166 169.287 207.707 169.429Z" fill="white" stroke="#0B4D5E" stroke-width="0.4"/>
<path d="M207.081 172.511C206.144 172.262 205.587 171.303 205.833 170.367C205.903 170.108 206.028 169.878 206.189 169.685C205.831 169.928 205.555 170.295 205.435 170.748C205.172 171.738 205.763 172.753 206.753 173.016C207.743 173.278 208.706 172.718 208.998 171.774C208.595 172.389 207.831 172.709 207.081 172.511Z" fill="#8AE5CC" stroke="#0B4D5E" stroke-width="0.4"/>
<path d="M191.956 190.907L193.088 186.636C193.219 186.137 193.655 185.802 194.143 185.77C194.04 185.705 193.928 185.651 193.802 185.618C193.178 185.453 192.541 185.825 192.372 186.45L191.24 190.721C191.075 191.345 191.447 191.982 192.072 192.146C192.198 192.18 192.321 192.191 192.443 192.181C192.033 191.912 191.821 191.406 191.952 190.907L191.956 190.907Z" fill="#0B4D5E" stroke="#0B4D5E" stroke-width="0.4"/>
<path d="M195.65 191.885L196.782 187.614C196.913 187.115 197.348 186.779 197.837 186.748C197.734 186.682 197.622 186.629 197.496 186.595C196.872 186.431 196.235 186.803 196.066 187.427L194.934 191.698C194.769 192.322 195.141 192.959 195.766 193.124C195.891 193.157 196.015 193.169 196.137 193.158C195.727 192.889 195.515 192.384 195.646 191.885L195.65 191.885Z" fill="#0B4D5E" stroke="#0B4D5E" stroke-width="0.4"/>
<path d="M199.348 192.862L200.48 188.591C200.611 188.092 201.047 187.757 201.535 187.725C201.432 187.66 201.32 187.606 201.194 187.573C200.57 187.408 199.933 187.78 199.764 188.405L198.632 192.676C198.468 193.3 198.839 193.937 199.464 194.101C199.59 194.135 199.713 194.146 199.835 194.136C199.425 193.867 199.213 193.361 199.344 192.863L199.348 192.862Z" fill="#0B4D5E" stroke="#0B4D5E" stroke-width="0.4"/>
<path d="M173.226 209.533C180.211 209.707 191.686 210.215 201.809 223.968C211.309 236.873 214.711 241.429 223.596 241.648C232.481 241.866 238.895 242.441 239.077 235.095L239.006 237.866C238.825 245.208 232.411 244.637 223.526 244.419C214.64 244.2 211.239 239.644 201.739 226.739C191.616 212.989 181.352 210.155 176.65 209.618C174.36 209.563 173.767 209.548 173.226 209.533Z" fill="#0B4D5E" stroke="#0B4D5E" stroke-width="0.4"/>
<path d="M178.207 228.209C177.751 226.646 176.895 225.201 175.728 224.031C168.947 217.234 162.555 215.111 159.284 214.444L158.298 214.811C161.073 215.233 167.961 217.008 175.35 224.412C176.454 225.52 177.265 226.883 177.695 228.361C178.403 230.787 179.185 234.569 178.899 238.788C178.899 238.803 178.773 240.099 177.658 241.158L167.954 250.393L168.325 250.782L178.029 241.547C179.296 240.34 179.429 238.892 179.433 238.825C179.722 234.521 178.925 230.676 178.21 228.205L178.207 228.209Z" fill="#8AE5CC" stroke="#0B4D5E" stroke-width="0.4"/>
<path d="M177.604 228.283C177.149 226.72 176.293 225.275 175.126 224.105C168.345 217.308 161.953 215.185 158.682 214.519L157.696 214.885C160.471 215.308 167.359 217.082 174.748 224.486C175.852 225.594 176.663 226.957 177.093 228.435C177.801 230.861 178.583 234.643 178.297 238.862C178.297 238.877 178.171 240.173 177.056 241.233L167.352 250.467L167.722 250.856L177.427 241.622C178.694 240.414 178.827 238.966 178.831 238.899C179.12 234.595 178.323 230.75 177.608 228.279L177.604 228.283Z" fill="#0B4D5E" stroke="#0B4D5E" stroke-width="0.4"/>
<path d="M178.207 228.209C177.751 226.646 176.895 225.201 175.728 224.031C168.947 217.234 162.555 215.111 159.284 214.444L158.298 214.811C161.073 215.233 167.961 217.008 175.35 224.412C176.454 225.52 177.265 226.883 177.695 228.361C178.403 230.787 179.185 234.569 178.899 238.788C178.899 238.803 178.773 240.099 177.658 241.158L167.954 250.393L168.325 250.782L178.029 241.547C179.296 240.34 179.429 238.892 179.433 238.825C179.722 234.521 178.925 230.676 178.21 228.205L178.207 228.209Z" fill="#F0F4FF" stroke="#0B4D5E" stroke-width="0.4"/>
<path d="M135.769 278.688L136.298 278.784C140.137 257.73 149.408 239.987 152.609 234.305L152.205 233.924C149.048 239.513 139.644 257.415 135.769 278.688Z" fill="white" stroke="#0B4D5E" stroke-width="0.4"/>
<path d="M136.629 278.792L136.099 278.696C140.771 253.071 153.462 232.331 153.592 232.124L154.047 232.406C153.921 232.613 141.283 253.271 136.629 278.792Z" fill="#F0F4FF" stroke="#0B4D5E" stroke-width="0.4"/>
<path d="M136.629 278.792L136.099 278.696C140.771 253.071 153.462 232.331 153.592 232.124L154.047 232.406C153.921 232.613 141.283 253.271 136.629 278.792Z" fill="#F0F4FF" stroke="#0B4D5E" stroke-width="0.4"/>
<path d="M141.867 229.732C146.269 229.839 151.001 232.939 155.195 237.055C151.023 231.762 145.895 227.305 141.185 227.191C132.415 226.972 130.37 233.777 126.383 241.477C125.96 242.292 125.457 243.348 124.89 244.574C124.912 244.533 124.938 244.489 124.96 244.448C129.503 236.503 131.826 229.484 141.864 229.732H141.867Z" fill="#0B4D5E" stroke="#0B4D5E" stroke-width="0.4"/>
<path d="M126.641 267.565C126.641 267.565 132.14 252.867 133.185 250.385C133.185 250.385 142.159 249.574 152.979 251.663L147.947 268.925C147.947 268.925 135.43 267.684 126.641 267.565Z" fill="white" stroke="#0B4D5E" stroke-width="0.4"/>
<path d="M145.58 256.512L140.864 260.338L140.463 266.095L137.948 262.702L133.231 266.528L136.395 260.605L133.883 257.212L138.351 256.945L141.512 251.022L141.112 256.779L145.58 256.512Z" fill="#8AE5CC" stroke="#0B4D5E" stroke-width="0.4"/>
<path d="M263.5 416C308.511 416 345 379.735 345 335C345 290.265 308.511 254 263.5 254C218.489 254 182 290.265 182 335C182 379.735 218.489 416 263.5 416Z" fill="white"/>
<path d="M97.6079 346.433C125.293 346.433 147.737 323.997 147.737 296.32C147.737 268.643 125.293 246.207 97.6079 246.207C69.9224 246.207 47.4789 268.643 47.4789 296.32C47.4789 323.997 69.9224 346.433 97.6079 346.433Z" fill="white"/>
<path d="M161.957 345.474C184.942 345.474 203.575 326.847 203.575 303.869C203.575 280.892 184.942 262.265 161.957 262.265C138.972 262.265 120.339 280.892 120.339 303.869C120.339 326.847 138.972 345.474 161.957 345.474Z" fill="white"/>
<path d="M276.636 224.626C277.93 224.626 278.978 223.578 278.978 222.285C278.978 220.992 277.93 219.944 276.636 219.944C275.343 219.944 274.295 220.992 274.295 222.285C274.295 223.578 275.343 224.626 276.636 224.626Z" fill="white" stroke="#0B4D5E" stroke-width="0.4"/>
<path d="M279.327 177.721C280.62 177.721 281.669 176.673 281.669 175.38C281.669 174.087 280.62 173.039 279.327 173.039C278.034 173.039 276.985 174.087 276.985 175.38C276.985 176.673 278.034 177.721 279.327 177.721Z" fill="#F0F4FF" stroke="#0B4D5E" stroke-width="0.4"/>
<path d="M263.124 59.3895C273.658 59.3895 282.198 50.8516 282.198 40.3208C282.198 29.7899 273.658 21.252 263.124 21.252C252.589 21.252 244.049 29.7899 244.049 40.3208C244.049 50.8516 252.589 59.3895 263.124 59.3895Z" fill="#8AE5CC" stroke="#0B4D5E" stroke-width="0.4"/>
<path d="M268.588 45.8882C260.489 45.8882 253.923 39.3245 253.923 31.2273C253.923 27.9047 255.031 24.8414 256.895 22.3818C249.417 24.9636 244.048 32.0607 244.048 40.4098C244.048 50.9406 252.589 59.4786 263.123 59.4786C273.657 59.4786 282.198 50.9406 282.198 40.4098C282.198 39.3467 282.109 38.3058 281.942 37.2872C279.634 42.3581 274.524 45.8845 268.588 45.8845V45.8882Z" fill="#0B4D5E" stroke="#0B4D5E" stroke-width="0.4"/>
<path d="M262.634 27.9448V31.5304C262.634 33.9196 262.634 36.3124 262.586 38.7016C262.586 39.0671 262.4 39.2498 262.027 39.2498L253.156 39.3572H252.263C252.126 39.3572 252.06 39.3572 252.06 39.1794C252.078 36.6347 252.478 34.1085 253.245 31.6823C253.482 31.0822 253.753 30.497 254.06 29.9265C254.142 29.7858 254.261 29.671 254.405 29.5932C255.643 28.9783 256.962 28.5523 258.325 28.3301C259.711 28.0745 261.112 27.93 262.52 27.9004H262.686C262.686 27.9004 262.675 27.9485 262.638 27.9411L262.634 27.9448Z" fill="white" stroke="#0B4D5E" stroke-width="0.4"/>
<path d="M264.124 27.9639C264.624 27.9639 265.154 27.9639 265.684 28.0528C266.744 28.1787 267.811 28.3269 268.87 28.5232C270.038 28.7306 271.171 29.1121 272.224 29.6604C272.361 29.7344 272.479 29.8419 272.568 29.9752C273.235 31.1235 273.698 32.3792 273.932 33.6904C274.25 35.1684 274.443 36.6685 274.51 38.1798C274.51 38.5539 274.558 38.9244 274.58 39.3355H272.305L264.52 39.2651C264.198 39.2651 264.217 39.2651 264.217 38.9503V34.5794C264.217 32.9348 264.168 31.2791 264.157 29.6307C264.117 29.0418 264.128 28.5417 264.128 27.9639H264.124Z" fill="white" stroke="#0B4D5E" stroke-width="0.4"/>
<path d="M263.976 51.8444V48.2291C263.976 45.84 263.99 43.4471 264.024 41.058C264.024 40.4987 264.024 40.5098 264.583 40.4986L273.406 40.4023H274.306C274.432 40.4023 274.514 40.4023 274.502 40.5801C274.488 43.1249 274.087 45.6511 273.317 48.0773C273.083 48.6773 272.813 49.2626 272.513 49.8293C272.431 49.9701 272.309 50.0849 272.161 50.1516C270.927 50.7702 269.604 51.1961 268.24 51.4147C266.855 51.674 265.454 51.8221 264.046 51.8555H263.879C263.879 51.8555 263.946 51.8258 263.976 51.8444Z" fill="white" stroke="#0B4D5E" stroke-width="0.4"/>
<path d="M262.527 51.8142C262.019 51.8142 261.489 51.8142 260.967 51.7364C259.9 51.6105 258.829 51.4623 257.78 51.266C256.595 51.0548 255.453 50.6622 254.39 50.0992C254.257 50.0288 254.142 49.9214 254.056 49.7954C253.386 48.6435 252.923 47.3841 252.685 46.0728C252.367 44.5986 252.17 43.1021 252.107 41.5945C252.107 41.2204 252.107 40.85 252.041 40.4277H254.316L262.101 40.487C262.423 40.487 262.404 40.487 262.404 40.8093V45.169L262.464 50.1288L262.53 51.8142H262.527Z" fill="white" stroke="#0B4D5E" stroke-width="0.4"/>
<path d="M239.3 226.472C211.788 226.472 193.447 209.649 187.716 201.238C207.188 214.458 230.219 214.786 239.3 213.297V226.472Z" fill="#0B4D5E" stroke="#0B4D5E" stroke-width="0.4"/>
<path d="M59.431 35.781C72.8177 35.1283 73.3484 34.6004 74.004 21.208C74.6567 34.5948 75.1846 35.1255 88.577 35.781C75.1903 36.4366 74.6596 36.9616 74.004 50.3541C73.3513 36.9673 72.8234 36.4366 59.431 35.781Z" fill="#F0F4FF" stroke="#0B4D5E" stroke-width="0.4"/>
</g>
<defs>
<clipPath id="clip0_9503_10648">
<rect width="411" height="300" fill="white"/>
</clipPath>
</defs>
</svg>
