<svg width="64" height="64" viewBox="0 0 64 64" fill="none" xmlns="http://www.w3.org/2000/svg">
<path d="M28.48 61.8719C34.929 61.8719 41.3882 60.8748 46.3198 58.8756C51.1693 56.9078 53.835 54.2775 53.8452 51.4664C53.8452 48.6779 51.2205 46.065 46.4325 44.1067C36.6412 40.1083 20.6572 40.1083 10.8044 44.1067C5.95484 46.0738 3.27886 48.7049 3.27886 51.5159C3.27886 54.3044 5.90359 56.9173 10.6916 58.8756C15.5821 60.8748 22.0311 61.8719 28.48 61.8719Z" fill="#155C6D"/>
<path d="M28.48 61.9811C35.2447 61.9811 41.6075 60.9119 46.3966 58.9711C51.2892 56.985 53.9887 54.3204 54 51.467C54 48.6348 51.3395 45.9877 46.5094 44.0119C36.675 39.996 20.6244 39.996 10.7284 44.0119C5.82559 46.0009 3.12508 48.6662 3.12508 51.5159C3.12508 54.3474 5.78562 56.9952 10.6157 58.9703C15.3647 60.9119 21.7081 61.9811 28.48 61.9811ZM28.6409 41.2161C35.0653 41.2161 41.4805 42.2117 46.3546 44.2021C51.0852 46.1371 53.6904 48.7172 53.6904 51.467C53.6811 54.2388 51.036 56.8363 46.2428 58.7816C41.4989 60.7042 35.1914 61.7632 28.479 61.7632C21.7666 61.7632 15.4703 60.7042 10.7684 58.7816C6.03783 56.8465 3.43265 54.2665 3.43265 51.5166C3.43265 48.7485 6.07679 46.151 10.8802 44.2021C15.7861 42.2117 22.2187 41.2161 28.6409 41.2161Z" fill="#155C6D"/>
<path d="M14.1315 20.2112C14.476 20.1604 14.7209 19.8403 14.6665 19.4984C14.6121 19.1557 14.2947 18.9145 13.9501 18.9589C13.2519 19.0605 12.4902 18.7794 12.0277 18.2462C11.8192 18.0158 11.6741 17.7293 11.5834 17.4264C11.6832 17.4264 11.7919 17.4264 11.8917 17.4156C12.463 17.3593 12.9617 17.1399 13.2882 16.7862C13.7506 16.3093 13.8685 15.5965 13.5874 15.0516C13.2247 14.3669 12.2726 14.0858 11.5199 14.4395C11.0303 14.6698 10.6403 15.1132 10.4318 15.6972C10.2413 15.5285 10.0872 15.3272 9.99653 15.0969C9.71543 14.4232 9.93305 13.5699 10.4953 13.1038C10.7673 12.8843 10.8036 12.4863 10.586 12.217C10.3683 11.9467 9.96024 11.9132 9.6882 12.1272C8.69981 12.9351 8.32806 14.3896 8.81773 15.5684C9.08976 16.2249 9.6157 16.7527 10.2414 17.0728C10.2958 17.7973 10.5859 18.4992 11.0665 19.055C11.8192 19.9083 12.998 20.3463 14.1315 20.1831V20.2112ZM12.1638 15.5566C12.2998 15.5403 12.4267 15.5793 12.463 15.6355C12.4902 15.6972 12.463 15.8377 12.3723 15.9275C12.2544 16.0508 12.0368 16.1406 11.7739 16.1633C11.7194 16.1633 11.6741 16.1687 11.6106 16.1687C11.7194 15.8831 11.8826 15.6636 12.0731 15.5793C12.1003 15.5684 12.1366 15.5566 12.1638 15.5512V15.5566Z" fill="#155C6D"/>
<path d="M13.6563 20.3537C13.7968 20.3537 13.9383 20.3446 14.0789 20.3274C14.1015 20.341 14.1251 20.3491 14.1505 20.3464C14.3545 20.3165 14.5413 20.204 14.6628 20.039C14.7834 19.8749 14.8324 19.6763 14.8006 19.4786C14.7335 19.0588 14.3554 18.775 13.931 18.8248C13.2863 18.9191 12.5581 18.6525 12.1301 18.1583C11.9805 17.9924 11.8599 17.7929 11.7711 17.5617C11.8173 17.5599 11.8626 17.5571 11.9053 17.5517C12.5155 17.4919 13.0415 17.2534 13.387 16.8798C13.883 16.3684 14.0154 15.5903 13.708 14.9909C13.309 14.241 12.2816 13.9327 11.461 14.3181C10.9894 14.5394 10.6113 14.9402 10.381 15.4588C10.2658 15.331 10.1787 15.1941 10.1225 15.049C9.86409 14.4296 10.0618 13.6407 10.5814 13.21C10.9069 12.9471 10.9577 12.4628 10.692 12.1328C10.429 11.8072 9.9403 11.7555 9.60388 12.0212C8.56199 12.8727 8.17929 14.3861 8.69162 15.6212C8.95821 16.2632 9.46057 16.8081 10.1107 17.1591C10.1824 17.8872 10.4825 18.5891 10.9622 19.144C11.6405 19.913 12.6398 20.3528 13.6554 20.3528L13.6563 20.3537ZM14.1314 20.0481C14.1251 20.0481 14.1178 20.0481 14.1124 20.049C13.0288 20.204 11.8971 19.7906 11.1689 18.9654C10.7119 18.4358 10.4308 17.7594 10.3773 17.0629C10.3737 17.0158 10.3465 16.9732 10.3039 16.9523C9.67821 16.6313 9.19488 16.1217 8.9446 15.5169C8.4758 14.3906 8.82583 13.0096 9.77523 12.2334C9.98923 12.0647 10.313 12.0956 10.4807 12.3032C10.6521 12.5163 10.6213 12.8283 10.41 12.9987C9.80063 13.5038 9.57032 14.4287 9.87137 15.1505C9.96477 15.3872 10.1226 15.6066 10.3429 15.7998C10.3774 15.8297 10.4281 15.8406 10.4671 15.8297C10.5115 15.8188 10.5469 15.7862 10.5614 15.7436C10.7546 15.1995 11.1155 14.7806 11.578 14.5639C12.2735 14.2392 13.1367 14.4913 13.4677 15.1161C13.7234 15.6121 13.6091 16.2604 13.1911 16.6921C12.8892 17.0185 12.424 17.2271 11.879 17.2806C11.7874 17.2906 11.6894 17.2915 11.5988 17.2915C11.5435 17.2915 11.5036 17.3087 11.4746 17.3459C11.4492 17.3803 11.441 17.4248 11.4537 17.4665C11.5562 17.812 11.7157 18.1058 11.927 18.3379C12.4185 18.9055 13.2201 19.2048 13.9691 19.0941C14.2511 19.0597 14.4896 19.2465 14.5323 19.5212C14.5522 19.6464 14.5204 19.7733 14.4434 19.8776C14.379 19.9656 14.2892 20.029 14.1877 20.0599C14.1695 20.0517 14.1505 20.0481 14.1314 20.0481ZM11.6106 16.3049C11.6459 16.3049 11.6758 16.304 11.7049 16.3021C11.7275 16.3021 11.7493 16.3003 11.7729 16.3003C12.0757 16.2749 12.3251 16.1734 12.4702 16.022C12.589 15.905 12.6416 15.7055 12.5863 15.5813C12.5056 15.4525 12.3469 15.4072 12.1891 15.4189C12.1709 15.4153 12.1546 15.4162 12.1365 15.4189C12.1011 15.4262 12.0558 15.4398 12.0213 15.4543C11.7992 15.5531 11.6097 15.7889 11.4818 16.1217C11.4655 16.1634 11.4718 16.2106 11.4981 16.2468C11.5226 16.284 11.5643 16.3058 11.6097 16.3058L11.6106 16.3049ZM12.336 15.7082C12.3315 15.7409 12.3152 15.7944 12.2771 15.8315C12.1864 15.9258 12.0232 15.9948 11.8291 16.021C11.9162 15.8642 12.0205 15.7526 12.1284 15.7046C12.1374 15.701 12.1483 15.6973 12.1601 15.6937C12.1664 15.6937 12.1737 15.6937 12.1791 15.6937C12.2562 15.6855 12.3079 15.6973 12.336 15.7091V15.7082Z" fill="#155C6D"/>
<path d="M22.6281 51.8116C22.8276 50.9021 23.009 49.9926 23.2085 49.0776C23.0815 49.667 22.6282 50.2447 21.8574 50.7053C19.9531 51.8279 16.8338 51.856 14.8842 50.7724C14.05 50.3127 13.5603 49.7169 13.4333 49.0994C13.6238 50.0089 13.8233 50.9184 14.0228 51.8279C14.1406 52.3729 14.5668 52.8889 15.3013 53.2987C17.0242 54.2536 19.7718 54.22 21.4403 53.2371C22.1294 52.8326 22.5193 52.3275 22.6372 51.8052H22.6281V51.8116Z" fill="#70C5AD"/>
<path d="M18.3097 54.1286C19.4722 54.1286 20.6347 53.8692 21.5089 53.3551C22.2008 52.9488 22.636 52.4238 22.7693 51.8362C22.773 51.8208 22.7739 51.8054 22.772 51.7909C22.8709 51.3384 22.9661 50.885 23.0604 50.4316C23.152 49.9936 23.2435 49.5538 23.3397 49.114C23.3397 49.1113 23.3415 49.1095 23.3415 49.1068C23.3578 49.0333 23.3107 48.9608 23.2381 48.9454C23.1665 48.9291 23.0922 48.9762 23.0758 49.0487C23.0758 49.0487 23.0758 49.0533 23.074 49.0551C22.9489 49.6227 22.4918 50.1677 21.7873 50.5885C19.9266 51.6857 16.858 51.7156 14.9501 50.6538C14.1839 50.2321 13.6942 49.6744 13.5691 49.0832C13.5691 49.0805 13.5691 49.0768 13.5673 49.0732C13.5673 49.0732 13.5673 49.0732 13.5673 49.0723C13.5519 48.998 13.4784 48.9535 13.4068 48.9662C13.3333 48.9817 13.2862 49.0533 13.3016 49.1267C13.3016 49.1313 13.3034 49.1358 13.3043 49.1403C13.4938 50.0462 13.6924 50.9521 13.8901 51.858C14.0216 52.461 14.4858 53.0005 15.2348 53.4185C16.0908 53.8928 17.1999 54.1286 18.3107 54.1286H18.3097ZM22.4918 51.8226C22.364 52.3168 21.9777 52.7648 21.3711 53.1202C19.7389 54.0823 17.0448 54.1104 15.3663 53.18C14.6881 52.8019 14.2691 52.3241 14.1549 51.7999C14.0279 51.2223 13.9028 50.6456 13.7776 50.068C14.037 50.3754 14.3879 50.6547 14.8178 50.8922C16.8018 51.9949 19.9909 51.964 21.926 50.8233C22.3087 50.5948 22.6252 50.33 22.8636 50.0435C22.8401 50.155 22.8165 50.2657 22.7938 50.3763C22.6977 50.8396 22.5998 51.3021 22.4982 51.7655C22.4937 51.7791 22.4909 51.7927 22.4909 51.8063C22.4909 51.8117 22.4918 51.8172 22.4918 51.8226Z" fill="#155C6D"/>
<path d="M11.7375 41.1064C11.7375 41.1572 11.7375 41.2134 11.7556 41.2696V41.3032C11.7556 41.3539 11.7557 41.4038 11.7647 41.46C11.7647 41.4999 11.7828 41.5335 11.7828 41.5725C11.7828 41.5725 11.7919 41.606 11.7919 41.6178C11.7919 41.6287 11.801 41.6514 11.8101 41.6622C11.9733 42.4593 12.1456 43.2564 12.3179 44.0543C12.6534 45.5977 12.9526 47.6978 13.4423 49.2076C13.4423 49.2185 13.4423 49.2303 13.4513 49.2529C13.4513 49.2584 13.4604 49.2693 13.4604 49.2747C13.4604 49.2747 13.4604 49.2974 13.4695 49.3146C13.4786 49.3309 13.4876 49.359 13.4967 49.3817C13.5057 49.4207 13.5329 49.4552 13.542 49.4942C13.542 49.4942 13.5601 49.5331 13.5601 49.5504C13.5692 49.5612 13.5783 49.5667 13.5874 49.5839V49.5948C13.6055 49.6175 13.6236 49.6456 13.6327 49.6737C13.6327 49.6737 13.6327 49.6846 13.6418 49.6846C13.6508 49.6964 13.6599 49.7073 13.669 49.7245V49.7354C13.6962 49.7689 13.7143 49.797 13.7415 49.8306C13.7415 49.8369 13.7506 49.8478 13.7597 49.8532C13.7687 49.8705 13.7778 49.8922 13.7959 49.9094C13.805 49.9203 13.814 49.9321 13.8231 49.9484C13.8231 49.9484 13.8322 49.9548 13.8322 49.9602C13.8503 49.9711 13.8594 49.9938 13.8775 50.0047C13.8775 50.0101 13.8866 50.0219 13.8866 50.0273C13.9138 50.05 13.9319 50.0727 13.9591 50.0944C13.9591 50.0944 13.9863 50.1344 14.0135 50.1507L14.0226 50.1679C14.0226 50.1679 14.0498 50.1906 14.0679 50.2069C14.0861 50.235 14.1224 50.2577 14.1405 50.2803C14.1496 50.2858 14.1586 50.2912 14.1586 50.2966C14.1767 50.3084 14.1858 50.3139 14.1858 50.3193C14.2946 50.4145 14.4306 50.5043 14.5576 50.5941H14.5667C14.6029 50.6113 14.6211 50.634 14.6483 50.6503C14.6846 50.673 14.7299 50.6956 14.7753 50.7183C14.7934 50.7346 14.8115 50.7464 14.8387 50.7627C14.8568 50.7736 14.884 50.7854 14.9022 50.7963C14.9475 50.819 14.9929 50.8471 15.0473 50.8698C15.0745 50.8861 15.1107 50.9033 15.1379 50.9142C15.1923 50.9368 15.2558 50.9649 15.3102 50.9876C15.3556 51.0039 15.41 51.0266 15.4553 51.0438C15.5279 51.0656 15.5913 51.0937 15.6639 51.1164C15.7002 51.1282 15.7273 51.1391 15.7545 51.1554C15.7908 51.1672 15.8271 51.1781 15.8634 51.1898C15.8724 51.1898 15.8997 51.2007 15.9087 51.2062C16.217 51.3014 16.5435 51.3748 16.8699 51.431H16.8789C16.8789 51.431 16.9062 51.4311 16.9243 51.4365C17.1148 51.4646 17.3233 51.4927 17.5319 51.5099H17.6407C17.6679 51.5099 17.7041 51.5099 17.7404 51.5154H17.7767C17.8311 51.5154 17.8946 51.5208 17.949 51.5208H18.2119C18.5837 51.5208 18.9555 51.5036 19.3182 51.4537C19.3998 51.4419 19.4814 51.4365 19.554 51.4193C19.5902 51.4138 19.6356 51.4084 19.6719 51.4029C19.7172 51.3975 19.7444 51.3921 19.7807 51.3857C19.7897 51.3857 19.8079 51.3803 19.817 51.3803C19.9711 51.3576 20.1162 51.3186 20.2522 51.2796H20.2704C20.3248 51.2624 20.3973 51.2515 20.4608 51.2288C20.7509 51.1499 21.0321 51.0438 21.295 50.926C21.3132 50.9196 21.3313 50.9087 21.3494 50.9033C21.4311 50.8643 21.5217 50.819 21.6033 50.78C21.6124 50.7736 21.6215 50.7682 21.6305 50.7627C21.6759 50.7401 21.7303 50.7065 21.7847 50.6838C21.8119 50.673 21.821 50.6621 21.8391 50.6449C21.8844 50.6222 21.9388 50.5832 22.0023 50.5379C22.0204 50.5324 22.0295 50.5215 22.0476 50.5161C22.0476 50.5097 22.0567 50.5043 22.0658 50.5043C22.0749 50.4934 22.093 50.488 22.102 50.4708C22.102 50.4708 22.1111 50.4708 22.1111 50.4653C22.1292 50.4544 22.1383 50.4426 22.1564 50.4263C22.1836 50.4091 22.2109 50.3864 22.229 50.3701C22.2381 50.3583 22.2562 50.3529 22.2743 50.3366C22.2743 50.3302 22.2834 50.3302 22.2834 50.3248C22.3287 50.2858 22.3741 50.2577 22.4104 50.2187C22.4376 50.196 22.4647 50.1679 22.4919 50.1452C22.4919 50.1398 22.5101 50.1343 22.5101 50.128C22.5282 50.1171 22.5373 50.1062 22.5464 50.089C22.5736 50.0663 22.6008 50.0382 22.6189 50.0165C22.637 49.9992 22.6552 49.9766 22.6733 49.9548C22.6824 49.9376 22.7005 49.9203 22.7005 49.904C22.7005 49.8986 22.7005 49.8922 22.7186 49.8922C22.7458 49.8478 22.7822 49.8088 22.8094 49.7689C22.8366 49.7245 22.8637 49.6846 22.8909 49.6456C22.9091 49.612 22.9272 49.5839 22.9453 49.5504C22.9453 49.5386 22.9544 49.5331 22.9544 49.5222C22.9544 49.5222 22.9544 49.505 22.9635 49.4996C22.9726 49.4824 22.9907 49.4606 22.9907 49.4434C23.0179 49.3817 23.0451 49.3146 23.0632 49.2529C23.0814 49.2248 23.0814 49.1913 23.0905 49.1568V49.1351L23.1086 49.0897V49.0507L23.1811 48.7189C23.2083 48.5457 23.2446 48.3652 23.2899 48.192L23.7705 45.8951C23.8431 45.5641 23.9156 45.2386 23.97 44.9294L24.1605 44.0263C24.3327 43.212 24.5141 42.3977 24.6773 41.5897V41.4936C24.6773 41.4936 24.6955 41.4374 24.6955 41.4156C24.7045 41.3703 24.7045 41.3258 24.7136 41.2859V41.275C24.7136 41.2188 24.7227 41.1626 24.7227 41.1064C24.7227 40.1298 24.0607 39.1468 22.7368 38.4232C20.1434 36.9805 15.9994 37.025 13.4695 38.5184C12.2363 39.2484 11.6196 40.1969 11.6196 41.1345L11.7375 41.1236V41.1064Z" fill="#C8DAE8"/>
<path d="M17.9491 51.6577H18.2121C18.6346 51.6577 19.0028 51.6359 19.3374 51.5888L19.4172 51.5788C19.4752 51.5715 19.5333 51.5643 19.5868 51.5525L19.6937 51.538C19.7336 51.5334 19.7618 51.528 19.7971 51.5217L19.8089 51.382L19.8307 51.5162C19.9921 51.4935 20.139 51.4545 20.2741 51.4156C20.2886 51.4156 20.304 51.4128 20.3122 51.4101C20.3321 51.4038 20.3566 51.3983 20.3802 51.392C20.4219 51.382 20.4654 51.372 20.5062 51.3575C20.771 51.2859 21.0575 51.1816 21.3513 51.0501L21.3423 50.9059L21.3904 51.0329L21.6624 50.9023C21.6678 50.8996 21.7005 50.8797 21.7059 50.8769L21.7476 50.8552C21.7757 50.8397 21.8057 50.8225 21.8374 50.8098C21.8791 50.7935 21.9036 50.7726 21.9217 50.7554C21.9653 50.7309 22.016 50.6956 22.074 50.6548C22.084 50.6502 22.0931 50.6457 22.0959 50.643C22.1149 50.6375 22.1312 50.6276 22.1439 50.6158C22.1539 50.6094 22.162 50.6022 22.1684 50.594C22.172 50.5922 22.1757 50.5895 22.1784 50.5868C22.1893 50.5804 22.1974 50.5731 22.2055 50.5659C22.2192 50.5559 22.2282 50.5469 22.2364 50.5396C22.2636 50.5206 22.2971 50.4924 22.3207 50.4734C22.3361 50.4625 22.3497 50.4535 22.3661 50.4399C22.3724 50.4335 22.3787 50.4263 22.3851 50.4199C22.3969 50.4108 22.4068 50.4018 22.4186 50.3936C22.4531 50.3673 22.4848 50.3419 22.5129 50.312L22.581 50.2522C22.5864 50.2476 22.5909 50.2431 22.5955 50.2376C22.6181 50.2213 22.6372 50.2032 22.6526 50.1796C22.6807 50.1551 22.707 50.127 22.7251 50.1043C22.7324 50.0989 22.7506 50.0781 22.7687 50.0563C22.7759 50.0481 22.7904 50.0282 22.7959 50.0191C22.8004 50.0128 22.8068 50.0037 22.8122 49.9946C22.8222 49.9855 22.8303 49.9756 22.8367 49.9647C22.8494 49.9438 22.8648 49.9239 22.8802 49.9048C22.8956 49.8858 22.9092 49.8677 22.9219 49.8486C22.9518 49.8006 22.9772 49.7634 23.0035 49.7262L23.0652 49.6183C23.0715 49.6074 23.0761 49.5957 23.0788 49.5839C23.0815 49.5775 23.0833 49.5711 23.0852 49.5648C23.0988 49.5439 23.1141 49.5177 23.1223 49.485C23.1468 49.4279 23.1722 49.3671 23.1894 49.31C23.2076 49.2746 23.213 49.2411 23.2175 49.2157C23.2175 49.2094 23.2239 49.1803 23.2257 49.1658L23.2356 49.1423C23.242 49.1259 23.2457 49.1096 23.2457 49.0924V49.0534L23.3146 48.7505C23.3454 48.5556 23.3817 48.3824 23.4216 48.2291L23.9212 45.8452C23.9883 45.5405 24.0536 45.2404 24.1044 44.9556L24.2939 44.0561C24.3555 43.7623 24.4199 43.4694 24.4825 43.1756C24.594 42.6551 24.7064 42.1355 24.8107 41.6186L24.8134 41.5162C24.8261 41.4754 24.8325 41.4418 24.8325 41.4174C24.8325 41.4174 24.8371 41.3938 24.8398 41.3702C24.8416 41.353 24.8434 41.3357 24.847 41.3203C24.8498 41.3094 24.8516 41.2877 24.8516 41.2768C24.8516 41.2523 24.8534 41.2278 24.8552 41.2034C24.8579 41.1716 24.8606 41.1399 24.8606 41.1081C24.8606 40.0418 24.1107 39.0207 22.8031 38.3053C20.1789 36.8472 15.9633 36.8907 13.4016 38.4023C12.1656 39.1341 11.4846 40.1043 11.4846 41.1362C11.4846 41.1743 11.5019 41.2115 11.53 41.2369C11.5535 41.2587 11.5844 41.2714 11.6161 41.2723C11.618 41.2786 11.6198 41.284 11.6207 41.2904C11.6207 41.3711 11.6225 41.4246 11.6334 41.4845C11.6306 41.4981 11.6388 41.528 11.6443 41.5507C11.6443 41.5633 11.6506 41.5996 11.6542 41.6114C11.6578 41.6495 11.6697 41.6848 11.6842 41.713C11.8292 42.4239 11.9825 43.1339 12.1357 43.8457L12.1874 44.0842C12.2935 44.5748 12.3951 45.1161 12.5039 45.6892C12.7369 46.9233 12.9763 48.1992 13.31 49.2329C13.3118 49.252 13.3164 49.2747 13.3281 49.3028C13.3281 49.3028 13.33 49.3073 13.3309 49.31C13.3345 49.3291 13.3408 49.3535 13.3517 49.3771C13.3517 49.3771 13.3726 49.4306 13.3726 49.4315C13.3753 49.4488 13.3898 49.476 13.3998 49.4977C13.4025 49.5068 13.4179 49.5421 13.4206 49.5503C13.4206 49.5811 13.437 49.611 13.456 49.6355L13.4614 49.6337C13.4669 49.6519 13.475 49.6691 13.4841 49.6818C13.4977 49.6972 13.5031 49.7099 13.504 49.7153C13.5104 49.7353 13.5222 49.7543 13.5367 49.7716C13.5367 49.7716 13.5394 49.7743 13.5412 49.7761C13.5467 49.7933 13.5549 49.8106 13.5639 49.8223L13.5956 49.864C13.6083 49.8813 13.621 49.8985 13.6364 49.9175C13.6364 49.9175 13.6419 49.9248 13.6446 49.9284C13.6573 49.9529 13.6727 49.9819 13.7008 50.0082C13.7054 50.0164 13.7108 50.0255 13.7171 50.0336C13.728 50.0509 13.7417 50.0654 13.7598 50.0762C13.768 50.0989 13.7815 50.1189 13.8006 50.1343L13.826 50.1579C13.8369 50.1687 13.8477 50.1787 13.8595 50.1896C13.8722 50.2059 13.8894 50.2267 13.9121 50.2449C13.9203 50.2567 13.9293 50.2685 13.9357 50.2739L13.9674 50.3011C13.9864 50.3238 14.0064 50.3419 14.0227 50.3564C14.03 50.3646 14.0436 50.3782 14.0572 50.3891C14.0653 50.3982 14.0753 50.4063 14.0844 50.4127C14.0844 50.4127 14.0916 50.4199 14.0962 50.4235C14.1887 50.5042 14.2984 50.5804 14.4072 50.6566L14.4797 50.7074C14.4915 50.7155 14.5042 50.7228 14.5187 50.7264C14.5487 50.75 14.5632 50.7599 14.5777 50.769C14.6112 50.7899 14.6547 50.8116 14.6992 50.8343C14.7191 50.8506 14.74 50.8651 14.7699 50.8824C14.779 50.8878 14.7962 50.8969 14.8135 50.905L14.8833 50.9422C14.9177 50.9613 14.954 50.9803 14.9957 50.9975C15.0093 51.0084 15.0537 51.0302 15.0891 51.0429L15.4065 51.1734C15.4518 51.187 15.4845 51.1997 15.5171 51.2115C15.5516 51.2242 15.587 51.2369 15.6232 51.2487C15.6532 51.2587 15.6695 51.2659 15.6822 51.2732L15.82 51.3212C15.8336 51.3258 15.8481 51.3276 15.8626 51.3276C16.1609 51.4291 16.4901 51.5062 16.8465 51.567L16.8891 51.5697C17.0967 51.6015 17.3089 51.6296 17.5193 51.6468H17.6399C17.6662 51.6468 17.6925 51.6468 17.7206 51.6513H17.7768C17.8013 51.6522 17.8294 51.654 17.8566 51.655C17.8874 51.6568 17.9192 51.6577 17.9491 51.6577ZM20.2478 51.1453C20.2351 51.1453 20.2224 51.1472 20.2152 51.1499C20.0637 51.1934 19.9341 51.226 19.7981 51.246C19.789 51.246 19.7645 51.2505 19.7563 51.2523C19.7183 51.2596 19.6947 51.2641 19.6566 51.2687L19.5351 51.2859C19.4797 51.2986 19.4335 51.304 19.3855 51.3095L19.2993 51.3203C18.9783 51.3648 18.6219 51.3865 18.2121 51.3865H17.9491C17.9246 51.3865 17.8965 51.3856 17.8693 51.3838C17.8385 51.382 17.8068 51.3811 17.7768 51.3811H17.7405C17.717 51.3766 17.6734 51.3757 17.6408 51.3757H17.532C17.3379 51.3584 17.133 51.3312 16.9453 51.3031C16.9308 51.2977 16.8936 51.2968 16.88 51.2968C16.5527 51.2405 16.2371 51.1662 15.956 51.0801C15.9533 51.0782 15.927 51.0646 15.8953 51.0592L15.7982 51.0284C15.7892 51.0184 15.752 51.0039 15.7075 50.9894C15.6731 50.9785 15.6431 50.9676 15.6132 50.9558C15.5742 50.9413 15.5362 50.9277 15.4954 50.9159L15.4536 50.8987C15.421 50.886 15.3875 50.8724 15.3566 50.8615L15.1916 50.7908C15.168 50.7808 15.1399 50.7681 15.1209 50.7563C15.0692 50.7337 15.0419 50.7182 15.0156 50.7037L14.9649 50.6765C14.9649 50.6765 14.9096 50.6475 14.9087 50.6466C14.8905 50.6366 14.8787 50.6285 14.8669 50.6176C14.8579 50.6103 14.8479 50.6031 14.8379 50.5985C14.7962 50.5786 14.7554 50.5577 14.7219 50.5369C14.6874 50.5097 14.6629 50.4897 14.6267 50.4725C14.6221 50.4707 14.6176 50.4689 14.6139 50.468L14.5641 50.4335C14.4643 50.3628 14.3619 50.293 14.2775 50.2186H14.2757C14.2657 50.2086 14.2549 50.1977 14.244 50.1905C14.244 50.1905 14.2422 50.1887 14.2412 50.1878C14.2295 50.176 14.2168 50.1642 14.2032 50.1515C14.1959 50.1406 14.1705 50.1152 14.1605 50.1071L14.127 50.079C14.1143 50.0617 14.0998 50.0454 14.0871 50.0373C14.0789 50.0255 14.0563 49.9983 14.0454 49.9901C14.0354 49.9819 14.0272 49.9738 14.0191 49.9656C14.0146 49.9602 14.0091 49.9556 14.0037 49.9502C13.9919 49.9248 13.9729 49.903 13.9475 49.8894C13.9502 49.8876 13.9448 49.8795 13.9348 49.8695C13.9221 49.8496 13.9103 49.8341 13.8994 49.8223C13.8931 49.8087 13.8795 49.7888 13.8649 49.7716C13.8604 49.7634 13.855 49.7552 13.8486 49.748L13.8169 49.7063C13.8106 49.6972 13.8042 49.689 13.7979 49.6809C13.7961 49.6745 13.7942 49.6691 13.7915 49.6646C13.7788 49.641 13.7679 49.6246 13.7543 49.6083C13.7434 49.5829 13.7307 49.5612 13.7171 49.5421C13.7153 49.5358 13.7126 49.5303 13.7108 49.5258C13.7026 49.5104 13.6936 49.4986 13.6872 49.4886C13.6827 49.475 13.6764 49.4596 13.6682 49.4415C13.6682 49.4315 13.6537 49.4025 13.6428 49.3798C13.641 49.3744 13.6265 49.3417 13.6246 49.3363C13.6083 49.2937 13.6002 49.2701 13.5911 49.2547C13.5911 49.2338 13.5884 49.223 13.5793 49.2075C13.5793 49.1939 13.5775 49.1831 13.5729 49.1695C13.242 48.1493 13.0017 46.8744 12.7695 45.6411C12.6616 45.0662 12.5592 44.5231 12.4513 44.0289L12.3996 43.7904C12.2455 43.0722 12.0904 42.355 11.9435 41.6377C11.9407 41.6223 11.9344 41.6078 11.9262 41.5951C11.9262 41.5851 11.9226 41.5715 11.9181 41.5543C11.9154 41.528 11.9099 41.5053 11.9054 41.4881C11.9054 41.4799 11.8999 41.4482 11.8981 41.44C11.89 41.392 11.8909 41.3493 11.8909 41.3067C11.8909 41.2931 11.8881 41.246 11.8845 41.2324C11.8727 41.1961 11.8727 41.1544 11.8727 41.11C11.8727 41.0429 11.8238 40.9875 11.7612 40.9767C11.8301 40.1052 12.4549 39.2801 13.5376 38.639C16.0258 37.1709 20.1236 37.1301 22.6689 38.5456C23.8876 39.2121 24.585 40.146 24.585 41.11C24.585 41.1344 24.5831 41.1589 24.5813 41.1834C24.5786 41.2151 24.5759 41.2469 24.5759 41.2786C24.5732 41.284 24.5695 41.3131 24.5668 41.343C24.565 41.3593 24.5632 41.3765 24.5596 41.3929C24.555 41.4264 24.546 41.4527 24.5451 41.4545C24.5405 41.4681 24.5378 41.4827 24.5378 41.4972V41.5933C24.4372 42.0829 24.3256 42.6007 24.2141 43.1203C24.1506 43.4141 24.0871 43.7079 24.0255 44.0017L23.835 44.9049C23.7834 45.1905 23.719 45.487 23.6528 45.7881L23.6346 45.8697L23.155 48.1675C23.1132 48.3225 23.0751 48.5048 23.0443 48.7007L22.9627 49.0842C22.9555 49.1014 22.9509 49.1196 22.9509 49.1386L22.9464 49.1695C22.9401 49.1794 22.9337 49.2066 22.9301 49.2175C22.9129 49.2746 22.8875 49.3363 22.863 49.3934C22.8603 49.3998 22.8575 49.4061 22.8557 49.4125C22.8557 49.4143 22.853 49.417 22.8521 49.4188C22.8331 49.4406 22.8222 49.4678 22.8176 49.4977L22.7687 49.582C22.7478 49.6111 22.7188 49.6537 22.6898 49.7008L22.6626 49.7371C22.6454 49.7579 22.6299 49.7788 22.6145 49.8015C22.5946 49.8187 22.5791 49.8405 22.5692 49.8631C22.5628 49.8731 22.5502 49.8931 22.5492 49.8958C22.5492 49.8958 22.532 49.9103 22.5211 49.9221C22.4976 49.9493 22.4767 49.9701 22.4567 49.9874C22.444 49.9982 22.4332 50.011 22.425 50.0255C22.4168 50.0309 22.4096 50.0373 22.4032 50.0445C22.386 50.0581 22.3706 50.0726 22.3543 50.0871L22.3198 50.1179C22.2908 50.1488 22.2699 50.1633 22.25 50.1787C22.231 50.1932 22.211 50.2077 22.1929 50.224C22.1865 50.2295 22.1802 50.2358 22.1747 50.2422C22.1566 50.2549 22.1267 50.2803 22.1185 50.292C22.1212 50.2866 22.104 50.3002 22.0804 50.3147C22.0732 50.3193 22.0523 50.3383 22.046 50.3446C22.0387 50.3483 22.0314 50.3537 22.026 50.3591C22.0142 50.3664 22.0051 50.3755 21.9961 50.3854C21.9834 50.3918 21.9725 50.3991 21.9616 50.4081C21.958 50.4099 21.9544 50.4118 21.9526 50.4127C21.939 50.4172 21.9326 50.4217 21.9217 50.4299C21.8655 50.4698 21.8165 50.5051 21.7766 50.5242C21.7639 50.5305 21.7531 50.5387 21.7431 50.5487C21.6914 50.5759 21.6515 50.5976 21.6143 50.6176L21.5681 50.6421C21.5626 50.6448 21.5291 50.6656 21.5236 50.6693L21.2888 50.7817L21.2969 50.9259L21.2498 50.798C20.9578 50.9286 20.684 51.0275 20.4237 51.0991C20.382 51.1127 20.3484 51.1208 20.3167 51.1281C20.2922 51.1344 20.2677 51.1399 20.246 51.1462L20.2478 51.1453ZM22.5683 49.8758C22.5656 49.8849 22.5637 49.8949 22.5637 49.904C22.5637 49.8931 22.5656 49.884 22.5683 49.8758ZM13.826 49.7335C13.8387 49.7407 13.8477 49.7498 13.8559 49.7607C13.845 49.7489 13.8351 49.7389 13.826 49.7335ZM23.0906 49.5231C23.0906 49.5231 23.0906 49.5313 23.0906 49.5349C23.0906 49.5313 23.0906 49.5267 23.0906 49.5231ZM11.9163 41.5779C11.9163 41.5779 11.919 41.5806 11.9199 41.5824C11.9199 41.5806 11.9172 41.5797 11.9163 41.5779Z" fill="#155C6D"/>
<path d="M38.424 58.3196C38.6145 57.4101 38.8049 56.5006 39.0044 55.5857C38.8774 56.1751 38.4241 56.7536 37.6442 57.2143C35.749 58.3369 32.6297 58.365 30.6801 57.2814C29.8368 56.8207 29.3562 56.2259 29.2293 55.6084C29.4197 56.5179 29.6192 57.4274 29.8187 58.3369C29.9365 58.8819 30.3628 59.3978 31.0973 59.8077C32.8111 60.7625 35.5586 60.7281 37.2362 59.746C37.9162 59.3416 38.3152 58.8365 38.4331 58.3142H38.424V58.3196Z" fill="#70C5AD"/>
<path d="M34.0979 60.6366C35.2604 60.6366 36.4256 60.3782 37.3052 59.864C37.9998 59.4505 38.435 58.9255 38.5656 58.3442C38.5693 58.3288 38.5702 58.3125 38.5675 58.2971C38.7542 57.4066 38.941 56.5162 39.1369 55.6194C39.1369 55.6194 39.1369 55.6166 39.1369 55.6157C39.1532 55.5414 39.1061 55.4698 39.0335 55.4534C38.9628 55.4371 38.8876 55.4842 38.8712 55.5568C38.8712 55.5595 38.8712 55.5622 38.8694 55.565C38.7425 56.1344 38.2837 56.6785 37.5745 57.0974C35.7202 58.1955 32.6552 58.2255 30.7455 57.1627C29.9802 56.7456 29.4915 56.1879 29.3645 55.5931C29.3645 55.5894 29.3645 55.5858 29.3627 55.5822C29.3473 55.5078 29.2729 55.4598 29.2022 55.4761C29.1287 55.4915 29.0816 55.5631 29.097 55.6366V55.6384C29.097 55.6384 29.0988 55.6457 29.0997 55.6493C29.2893 56.5552 29.4878 57.4611 29.6855 58.366C29.817 58.969 30.2822 59.5086 31.0302 59.9266C31.8808 60.4008 32.988 60.6366 34.0979 60.6366ZM38.2891 58.3307C38.1621 58.8194 37.7758 59.2673 37.1674 59.6292C35.5234 60.5913 32.8302 60.6176 31.1636 59.689C30.4844 59.3109 30.0654 58.833 29.9512 58.308C29.8251 57.734 29.7 57.1609 29.5767 56.5878C29.8333 56.8898 30.1815 57.1645 30.6149 57.4012C32.599 58.5039 35.7855 58.4739 37.7142 57.3314C38.0996 57.1047 38.4169 56.8399 38.6572 56.5533C38.5348 57.1282 38.4142 57.7023 38.2945 58.2763C38.2909 58.288 38.2882 58.3007 38.2882 58.3143C38.2882 58.3198 38.2882 58.3252 38.29 58.3307H38.2891Z" fill="#155C6D"/>
<path d="M27.5425 47.6144V47.8112C27.5425 47.862 27.5516 47.9118 27.5697 47.9681C27.5697 48.008 27.5788 48.0415 27.5879 48.0805V48.1259C27.5879 48.1367 27.5969 48.1539 27.606 48.1703C27.7782 48.9673 27.9415 49.7653 28.1228 50.5624C28.4493 52.1057 28.7485 54.2113 29.2382 55.7156C29.2382 55.7274 29.2382 55.7437 29.2472 55.761C29.2472 55.7664 29.2563 55.7773 29.2563 55.7836C29.2563 55.7836 29.2563 55.8054 29.2654 55.8226C29.2745 55.8389 29.2835 55.8671 29.2926 55.8897C29.3016 55.9287 29.3289 55.9632 29.3379 56.0022C29.3379 56.0022 29.356 56.0412 29.3651 56.0584C29.3651 56.0693 29.3742 56.0747 29.3833 56.0865C29.3833 56.0865 29.3923 56.0919 29.3923 56.0974C29.4014 56.1201 29.4195 56.1482 29.4377 56.1763V56.1872C29.4467 56.1989 29.4558 56.2098 29.4648 56.2271V56.2379C29.4921 56.2715 29.5102 56.2996 29.5283 56.3332C29.5283 56.3386 29.5465 56.3504 29.5556 56.3558C29.5646 56.3731 29.5737 56.3948 29.6009 56.4121C29.6009 56.4229 29.619 56.4347 29.619 56.451L29.6281 56.4628C29.6281 56.4628 29.6553 56.4964 29.6734 56.5072C29.6734 56.5127 29.6825 56.5245 29.6915 56.5299C29.7097 56.5526 29.7278 56.5743 29.755 56.597C29.755 56.597 29.7822 56.6369 29.8004 56.6532L29.8276 56.6705C29.8276 56.6705 29.8457 56.6923 29.8638 56.7095C29.882 56.7322 29.9183 56.7603 29.9455 56.7829C29.9455 56.7884 29.9545 56.7938 29.9545 56.7993C29.9727 56.811 29.9817 56.8165 29.9908 56.8219C30.0905 56.9171 30.2266 57.0069 30.3626 57.0967C30.3898 57.1139 30.4261 57.1366 30.4442 57.1529C30.4805 57.1756 30.5258 57.1982 30.5712 57.22C30.5893 57.2372 30.6074 57.2481 30.6346 57.2653C30.6528 57.2762 30.68 57.2934 30.6981 57.2989C30.7435 57.3216 30.7978 57.3497 30.8432 57.3723C30.8704 57.3887 30.9066 57.4059 30.9338 57.4168C30.9882 57.4394 31.0517 57.4675 31.1061 57.4902C31.1515 57.5065 31.1968 57.5292 31.2512 57.5464C31.3238 57.5682 31.3963 57.5963 31.4598 57.619C31.4961 57.6299 31.5232 57.6416 31.5595 57.658C31.5867 57.6698 31.623 57.6806 31.6593 57.6861C31.6774 57.6861 31.6956 57.6979 31.7046 57.7033C32.022 57.7985 32.3394 57.872 32.6658 57.9282H32.6749C32.6749 57.9282 32.7021 57.9282 32.7202 57.9336C32.9197 57.9617 33.1283 57.9899 33.3368 58.0062H33.4366C33.4728 58.0062 33.5001 58.0062 33.5364 58.0116H33.5726C33.6361 58.0116 33.6905 58.018 33.7449 58.018H34.0078C34.3796 58.018 34.7514 58.0007 35.1142 57.9499C35.1958 57.9391 35.2774 57.9336 35.3499 57.9164C35.3862 57.911 35.4315 57.9055 35.4678 57.9001C35.5131 57.8937 35.5494 57.8883 35.5766 57.8828C35.5948 57.8828 35.6038 57.8774 35.622 57.8774C35.767 57.8547 35.9121 57.8158 36.0572 57.7759H36.0663C36.1297 57.7595 36.1932 57.7423 36.2657 57.726C36.5468 57.6471 36.828 57.5401 37.0909 57.4222C37.1091 57.4168 37.1272 57.4059 37.1453 57.4004C37.236 57.3605 37.3176 57.3161 37.3992 57.2762C37.4083 57.2708 37.4174 57.2653 37.4264 57.2599C37.4718 57.2372 37.5352 57.2037 37.5806 57.181C37.5987 57.1701 37.6259 57.1583 37.635 57.142C37.6803 57.1193 37.7347 57.0803 37.7982 57.035C37.8163 57.0296 37.8345 57.0187 37.8436 57.0123C37.8436 57.0069 37.8526 57.0015 37.8617 57.0015C37.8798 56.9906 37.8889 56.9842 37.898 56.9679C37.898 56.9679 37.907 56.9679 37.907 56.9625C37.9251 56.9507 37.9343 56.9398 37.9524 56.9226C37.9796 56.9062 38.0068 56.8836 38.0249 56.8663C38.043 56.8554 38.0612 56.85 38.0703 56.8328C38.0703 56.8274 38.0793 56.8274 38.0793 56.8219C38.1246 56.7829 38.17 56.7548 38.2063 56.7149C38.2335 56.6922 38.2698 56.665 38.2879 56.6424C38.297 56.6369 38.306 56.6306 38.3151 56.6251C38.3241 56.6143 38.3332 56.597 38.3423 56.5861C38.3695 56.5635 38.3967 56.5354 38.4148 56.5127C38.4329 56.4964 38.4511 56.4737 38.4693 56.451C38.4783 56.4347 38.4965 56.4175 38.5055 56.4011C38.5055 56.3948 38.5055 56.3894 38.5146 56.3894C38.5509 56.3449 38.578 56.305 38.6053 56.2661C38.6415 56.2207 38.6597 56.1872 38.6869 56.1427C38.705 56.1092 38.7232 56.0811 38.7413 56.0475C38.7413 56.0357 38.7503 56.0303 38.7594 56.0131V55.9913C38.7775 55.9741 38.7776 55.9514 38.7866 55.9351C38.8229 55.8734 38.8501 55.8054 38.8592 55.7438C38.8773 55.7102 38.8773 55.6821 38.8864 55.6485V55.6259C38.8864 55.6259 38.8954 55.6032 38.9045 55.5814V55.5415L38.9771 55.2106C39.0133 55.0364 39.0405 54.8569 39.0859 54.6828L39.5664 52.3868C39.639 52.0558 39.7115 51.7294 39.775 51.4211L39.9564 50.517C40.1377 49.6973 40.31 48.8894 40.4732 48.0805V47.9853C40.4732 47.9853 40.4914 47.9291 40.4914 47.901C40.4914 47.8565 40.5095 47.8166 40.5095 47.7722V47.7604C40.5095 47.7042 40.5186 47.648 40.5186 47.5927C40.5186 46.6151 39.8475 45.6331 38.5327 44.9086C35.9393 43.4659 31.7953 43.5103 29.2745 45.0038C28.0322 45.7337 27.4156 46.6831 27.4156 47.6199L27.5334 47.609L27.5425 47.6144Z" fill="#C8DAE8"/>
<path d="M33.7442 58.1549H34.008C34.4315 58.1549 34.7997 58.1322 35.1324 58.0851L35.2041 58.0769C35.2649 58.0696 35.3256 58.0624 35.3809 58.0497L35.4879 58.0352C35.5342 58.0288 35.5741 58.0234 35.604 58.017C35.6103 58.017 35.6348 58.0143 35.6421 58.0134C35.7853 57.9907 35.925 57.9545 36.0791 57.9128C36.0864 57.9128 36.0936 57.9109 36.0982 57.91L36.1463 57.8973C36.1934 57.8847 36.2405 57.8728 36.294 57.8602C36.567 57.784 36.8508 57.6788 37.1446 57.5473L37.1356 57.404L37.1836 57.5319C37.2607 57.4993 37.3196 57.4693 37.3777 57.4394L37.4566 57.3995C37.462 57.3968 37.4938 57.3777 37.4992 57.375L37.6397 57.3034C37.6669 57.288 37.695 57.2726 37.7177 57.2517C37.7594 57.2281 37.8075 57.1955 37.861 57.1574C37.8828 57.1474 37.9036 57.1365 37.9181 57.1257C37.9226 57.1238 37.9272 57.1211 37.9317 57.1184C37.9517 57.1057 37.9716 57.0921 37.9897 57.0703C38.0051 57.0595 38.016 57.0495 38.0287 57.0368C38.055 57.0187 38.0895 56.9905 38.114 56.9688C38.1212 56.9688 38.1511 56.9525 38.1756 56.918L38.2092 56.8917C38.2436 56.8645 38.2763 56.8382 38.3044 56.8074C38.3307 56.7874 38.3561 56.7666 38.3742 56.7485C38.3905 56.7367 38.4123 56.7203 38.4187 56.7122C38.4259 56.7031 38.4332 56.6922 38.4395 56.6804C38.4586 56.665 38.4939 56.6297 38.5184 56.5988C38.5256 56.5943 38.5483 56.5671 38.5719 56.5399C38.5928 56.51 38.6055 56.4936 38.6136 56.4819L38.6172 56.4782C38.649 56.4392 38.6735 56.403 38.6989 56.3685C38.7424 56.3123 38.7614 56.2787 38.785 56.2415L38.8031 56.2116L38.8584 56.1164C38.8621 56.1101 38.8657 56.1037 38.8675 56.0974C38.8711 56.0919 38.8748 56.0847 38.8793 56.0783C38.8856 56.0656 38.8902 56.0529 38.8929 56.0393C38.9011 56.0221 38.9056 56.0076 38.9092 55.9985C38.9346 55.955 38.9727 55.877 38.9899 55.7891C39.0035 55.7573 39.009 55.7301 39.0117 55.7093C39.0135 55.7011 39.0216 55.6612 39.0216 55.653L39.0298 55.6376C39.0371 55.6213 39.0407 55.6041 39.0407 55.5859V55.546L39.1096 55.2441C39.1232 55.1815 39.1341 55.1199 39.1459 55.0582C39.1668 54.9448 39.1885 54.8324 39.2175 54.7209L39.7335 52.2571C39.7943 51.9815 39.8541 51.7104 39.9067 51.4519L40.0889 50.5469C40.2775 49.6946 40.4471 48.8966 40.6049 48.1104L40.6076 48.0089C40.6167 47.9789 40.6267 47.9381 40.6267 47.9036C40.6267 47.8964 40.6294 47.8828 40.6321 47.8683C40.6384 47.8429 40.6457 47.8121 40.6457 47.774C40.6457 47.7377 40.6475 47.7132 40.6494 47.6887C40.6521 47.657 40.6548 47.6262 40.6548 47.5945C40.6548 46.5335 39.9049 45.5116 38.5973 44.7916C35.974 43.3308 31.7592 43.3752 29.2048 44.8886C27.9634 45.6177 27.2788 46.5888 27.2788 47.6217C27.2788 47.6597 27.296 47.6969 27.3232 47.7223C27.3459 47.7432 27.3758 47.7559 27.4057 47.7577V47.7794C27.4057 47.8692 27.4157 47.93 27.4339 47.9934C27.4366 48.037 27.4457 48.0741 27.4538 48.1095L27.4511 48.1276C27.4511 48.1621 27.4629 48.1911 27.4756 48.2183L27.6324 48.9519C27.7485 49.4996 27.8655 50.0473 27.9897 50.5941C28.0877 51.0575 28.1838 51.5743 28.2826 52.1102C28.5066 53.3181 28.7605 54.6855 29.1014 55.741C29.1032 55.7609 29.1078 55.7882 29.1214 55.8172C29.1241 55.8362 29.1305 55.8616 29.1423 55.8861C29.1423 55.8879 29.1649 55.9432 29.1658 55.945C29.1658 55.9568 29.1803 55.9849 29.1912 56.0076C29.193 56.0167 29.2084 56.0511 29.2112 56.0602L29.2402 56.1219C29.2492 56.1409 29.2601 56.1599 29.2719 56.1717C29.2819 56.1908 29.2928 56.2098 29.3055 56.2298C29.3109 56.2479 29.3191 56.2642 29.3291 56.276H29.3309C29.3363 56.2941 29.3445 56.3123 29.3545 56.325C29.3735 56.3485 29.3871 56.3694 29.4007 56.3921C29.4125 56.4175 29.4306 56.4365 29.4478 56.451C29.4569 56.4664 29.4687 56.4827 29.4868 56.4991C29.4923 56.5136 29.5004 56.5281 29.5104 56.5399C29.5277 56.5607 29.5485 56.5861 29.573 56.6061C29.5757 56.6097 29.5784 56.6133 29.582 56.617C29.6029 56.6423 29.6229 56.6659 29.6501 56.6895C29.6637 56.7086 29.6836 56.7348 29.7045 56.7539C29.7081 56.7566 29.7217 56.7666 29.7335 56.7747C29.7425 56.7847 29.7543 56.7983 29.767 56.8101C29.777 56.8246 29.8069 56.8491 29.835 56.8727C29.8459 56.889 29.8595 56.9035 29.8768 56.9144L29.9167 56.9389C30.0037 57.0268 30.1524 57.1247 30.283 57.2109C30.3093 57.2272 30.3347 57.2417 30.3474 57.2535C30.4018 57.2898 30.4462 57.3134 30.4907 57.3351C30.507 57.3487 30.5242 57.3596 30.5451 57.3732C30.5967 57.4041 30.6248 57.4213 30.6566 57.4294L30.779 57.4947C30.7999 57.5083 30.8443 57.5301 30.8787 57.5437L31.1081 57.6398C31.1381 57.6525 31.1698 57.6652 31.2043 57.677C31.2587 57.6933 31.3104 57.7124 31.3584 57.7296L31.4101 57.7486C31.4464 57.7595 31.469 57.7704 31.5008 57.784C31.5398 57.8021 31.5896 57.8157 31.635 57.8221C31.9805 57.9309 32.2997 58.0052 32.6379 58.0642L32.6805 58.0669C32.8991 58.0986 33.1104 58.1268 33.3216 58.1431H33.4313C33.4558 58.1449 33.4821 58.1431 33.512 58.1476H33.5683C33.5982 58.1485 33.6263 58.1503 33.6535 58.1521C33.6834 58.1539 33.7115 58.1549 33.7406 58.1549H33.7442ZM36.0447 57.6416C36.0365 57.6416 36.0275 57.6434 36.022 57.6452C35.8715 57.6861 35.7364 57.7223 35.6013 57.7432C35.5922 57.7432 35.5587 57.7477 35.5487 57.7495C35.5242 57.755 35.4916 57.7595 35.4499 57.7658L35.3311 57.7822C35.274 57.7949 35.225 57.8003 35.1742 57.8057L35.0962 57.8157C34.7752 57.8601 34.4198 57.8828 34.009 57.8828H33.7451C33.7224 57.8828 33.6979 57.8819 33.6744 57.8801C33.6426 57.8783 33.61 57.8765 33.5737 57.8765H33.5374C33.5139 57.8719 33.4812 57.871 33.4377 57.871H33.3389C33.143 57.8547 32.9381 57.8275 32.7413 57.7994C32.7277 57.794 32.6905 57.793 32.6769 57.793C32.3632 57.7386 32.0539 57.6661 31.7456 57.5736C31.7538 57.5736 31.7139 57.5509 31.6604 57.5509C31.654 57.5491 31.6305 57.5401 31.6169 57.5346C31.5743 57.5156 31.5425 57.502 31.5008 57.4893L31.4573 57.4739C31.4038 57.4548 31.3475 57.434 31.2904 57.4176C31.2659 57.4095 31.2414 57.3995 31.2188 57.3895C31.1961 57.3805 31.1743 57.3714 31.1526 57.3632L30.9857 57.2925C30.9649 57.2834 30.9359 57.2707 30.9159 57.258L30.7173 57.1574C30.6847 57.1375 30.6738 57.1311 30.6638 57.122C30.6529 57.113 30.6421 57.1048 30.6303 57.0994C30.5895 57.0803 30.5486 57.0604 30.516 57.0395C30.516 57.0359 30.4725 57.0078 30.439 56.986C30.3156 56.9053 30.1778 56.8146 30.0844 56.7249L30.0563 56.7058C30.05 56.6958 30.0409 56.6868 30.0327 56.6795C30.0037 56.6559 29.9819 56.6405 29.972 56.6269C29.9466 56.6006 29.9348 56.5879 29.9339 56.5861C29.9239 56.5752 29.9139 56.5653 29.9012 56.5571C29.8831 56.5444 29.8677 56.5218 29.8677 56.5218C29.8604 56.5109 29.8523 56.5018 29.8432 56.4936C29.8242 56.4773 29.8115 56.4619 29.7988 56.4465C29.7961 56.4438 29.7933 56.441 29.7897 56.4374C29.7788 56.4193 29.7634 56.4039 29.7444 56.3921C29.7389 56.3794 29.7326 56.3694 29.728 56.3613C29.7163 56.3359 29.6981 56.3132 29.6727 56.2978C29.6627 56.2787 29.6528 56.2606 29.6364 56.2479C29.6228 56.2252 29.6092 56.2035 29.592 56.1808C29.5902 56.1754 29.5884 56.1708 29.5866 56.1663C29.5784 56.1518 29.5711 56.14 29.5639 56.1291C29.5612 56.12 29.5576 56.111 29.553 56.1046C29.5385 56.0838 29.5249 56.062 29.5177 56.0448C29.5095 56.0285 29.4995 56.013 29.4886 55.9994V55.9985L29.465 55.9477C29.465 55.9387 29.4515 55.9097 29.4406 55.8879C29.4388 55.8797 29.4243 55.8462 29.4215 55.838C29.4043 55.7945 29.397 55.7745 29.3889 55.76C29.3889 55.741 29.3871 55.7319 29.3789 55.7165C29.3771 55.7093 29.3735 55.7029 29.3698 55.6966C29.0316 54.6347 28.7886 53.3272 28.5547 52.0622C28.4558 51.5236 28.3588 51.0049 28.2599 50.537C28.1348 49.9893 28.0188 49.4425 27.9027 48.8966L27.7422 48.144C27.7395 48.1313 27.7349 48.1195 27.7286 48.1077V48.105V48.0823C27.7286 48.0714 27.7249 48.0542 27.7222 48.0433C27.714 48.0089 27.7095 47.9898 27.7095 47.9699C27.7095 47.9554 27.7068 47.9408 27.7023 47.9272C27.6878 47.8837 27.6823 47.8493 27.6823 47.813V47.6162C27.6823 47.5682 27.6569 47.5237 27.6161 47.5002L27.6071 47.4947C27.5926 47.4856 27.5772 47.4802 27.5599 47.4766C27.6225 46.597 28.2518 45.7664 29.3472 45.1226C31.8281 43.6527 35.9214 43.61 38.4703 45.0282C39.6891 45.6993 40.3864 46.6342 40.3864 47.5935C40.3864 47.6171 40.3846 47.6416 40.3828 47.6661C40.38 47.6978 40.3773 47.7296 40.3773 47.7613C40.3773 47.7803 40.3746 47.7939 40.371 47.8085C40.3655 47.8338 40.3582 47.8647 40.3582 47.9019C40.3582 47.9046 40.3519 47.9272 40.3465 47.9436C40.3419 47.9572 40.3392 47.9717 40.3392 47.9862V48.0814C40.1841 48.8386 40.0155 49.6347 39.8269 50.4889L39.6446 51.3957C39.592 51.6523 39.5322 51.9216 39.4723 52.1964L39.437 52.3587L38.9573 54.6565C38.9283 54.7671 38.9056 54.8859 38.8829 55.0047C38.8712 55.0645 38.8612 55.1244 38.8485 55.1842L38.7651 55.5732C38.7578 55.5905 38.7533 55.6086 38.7533 55.6276L38.7496 55.6558C38.7415 55.6694 38.7306 55.7111 38.7288 55.7265C38.7224 55.7673 38.7034 55.819 38.6735 55.868C38.668 55.877 38.6562 55.906 38.6535 55.9151C38.6299 55.9378 38.6281 55.9523 38.6272 55.9804C38.6272 55.9822 38.6272 55.984 38.6254 55.9858L38.5719 56.0783C38.542 56.1282 38.5275 56.1527 38.503 56.1835C38.5012 56.1853 38.4839 56.2098 38.483 56.2116C38.4631 56.2415 38.4413 56.2715 38.4141 56.305C38.405 56.3159 38.3969 56.3268 38.3905 56.3395C38.3851 56.3449 38.3588 56.3821 38.3552 56.3893C38.3552 56.3875 38.347 56.3984 38.328 56.4157C38.3026 56.4456 38.2817 56.4664 38.2609 56.4846C38.2518 56.4918 38.2355 56.5136 38.2246 56.5281C38.2128 56.5353 38.1974 56.548 38.1883 56.5589C38.1783 56.5698 38.162 56.5825 38.1466 56.5952C38.1412 56.5997 38.1149 56.6224 38.1094 56.6278C38.0922 56.6469 38.0723 56.6614 38.0523 56.6768C38.0333 56.6913 38.0151 56.7058 37.9961 56.7212C37.9879 56.7276 37.9816 56.7357 37.9762 56.743L37.9734 56.7457C37.9607 56.753 37.9444 56.7639 37.9399 56.7675C37.9263 56.7802 37.9063 56.7974 37.8864 56.8092C37.8782 56.8137 37.8546 56.8346 37.8474 56.8418C37.8428 56.8446 37.8374 56.8491 37.8329 56.8536C37.8193 56.8618 37.8084 56.8718 37.7984 56.8836C37.7848 56.8899 37.773 56.8981 37.7621 56.9071C37.7485 56.9117 37.7358 56.9189 37.7249 56.9262C37.6651 56.9688 37.6189 57.0023 37.5799 57.0223C37.5572 57.0341 37.5373 57.0522 37.5237 57.0749L37.3704 57.1402C37.3704 57.1402 37.3405 57.1583 37.3387 57.1592L37.2607 57.1982C37.2081 57.2245 37.1537 57.2526 37.0957 57.278L37.1029 57.4222L37.0566 57.2943C36.7592 57.4267 36.4872 57.5264 36.2342 57.5972C36.1843 57.6081 36.1335 57.6217 36.0837 57.6344L36.0492 57.6434L36.0447 57.6416ZM37.9589 56.7566C37.9553 56.7611 37.9526 56.7666 37.9499 56.772C37.9535 56.7657 37.9562 56.7611 37.9598 56.7566H37.9589ZM29.3028 56.1953C29.2973 56.1917 29.2919 56.1872 29.2873 56.1817C29.2928 56.1862 29.2982 56.1917 29.3028 56.1953Z" fill="#155C6D"/>
<path d="M38.0432 57.2199C38.0432 57.2199 38.016 57.2371 37.9978 57.248C38.0069 57.2425 38.025 57.2308 38.0341 57.2253L38.0432 57.2199ZM38.2517 56.2823C38.2517 56.2823 38.2427 56.3104 38.2336 56.3222C38.2336 56.3222 38.2517 56.2877 38.2517 56.2823ZM29.6736 56.0465H29.6645C29.6645 56.0465 29.6645 56.0238 29.6554 56.0129C29.6554 56.0238 29.6736 56.0356 29.6736 56.0465Z" fill="#155C6D"/>
<path d="M37.9979 57.3839C38.0215 57.3839 38.0459 57.3776 38.0677 57.3649L38.1176 57.3341L37.9689 57.1055L37.9235 57.1337C37.8618 57.1745 37.8428 57.257 37.8827 57.3195C37.9081 57.3613 37.9525 57.3839 37.9979 57.3839ZM38.2472 56.4517C38.2817 56.4517 38.3143 56.4382 38.3388 56.4082C38.356 56.3883 38.367 56.3629 38.3751 56.3411C38.3842 56.3203 38.3887 56.303 38.3887 56.2822C38.3887 56.2151 38.3388 56.158 38.2736 56.148C38.2092 56.1416 38.1448 56.177 38.123 56.2396C38.0922 56.3012 38.1058 56.3874 38.1638 56.4255C38.1901 56.4436 38.22 56.4527 38.2481 56.4527L38.2472 56.4517ZM29.6636 56.1824C29.7389 56.1824 29.8096 56.1217 29.8096 56.0464C29.8096 56.0219 29.7969 55.9875 29.7824 55.9621C29.777 55.9503 29.7697 55.9394 29.7615 55.9276C29.7253 55.8832 29.6672 55.8642 29.6101 55.8841C29.5557 55.9032 29.5185 55.9548 29.5185 56.0129C29.5185 56.0265 29.523 56.0428 29.5285 56.0582C29.5312 56.0899 29.5457 56.1199 29.5675 56.1426C29.5929 56.1679 29.6274 56.1824 29.6636 56.1824ZM29.6137 56.0464L29.5493 56.0981C29.5439 56.0863 29.5385 56.0691 29.5385 56.0473H29.6147L29.6137 56.0464ZM29.5312 56.0655C29.533 56.0709 29.5358 56.0763 29.5385 56.0818C29.5358 56.0773 29.533 56.0718 29.5312 56.0655Z" fill="#155C6D"/>
<path d="M52.1345 53.1774C52.325 52.2679 52.5154 51.3584 52.7058 50.438C52.5879 51.0274 52.1345 51.605 51.3547 52.0657C49.4595 53.1883 46.3402 53.2164 44.3906 52.1328C43.5473 51.673 43.0667 51.0773 42.9307 50.4597C43.1302 51.3692 43.3297 52.2788 43.5292 53.1883C43.647 53.7332 44.0733 54.2492 44.8078 54.6591C46.5216 55.6139 49.2691 55.5804 50.9376 54.5974C51.6268 54.193 52.0257 53.6879 52.1436 53.1656H52.1345V53.1774Z" fill="#70C5AD"/>
<path d="M47.8083 55.4887C48.969 55.4887 50.1315 55.2294 51.0065 54.7143C51.7048 54.3045 52.1436 53.7794 52.276 53.1955C52.2796 53.1801 52.2805 53.1646 52.2778 53.1492C52.4628 52.2651 52.6478 51.381 52.8328 50.486C52.8346 50.4787 52.8364 50.4715 52.8382 50.4642C52.8527 50.3908 52.8056 50.3191 52.7321 50.3046C52.655 50.2901 52.5871 50.3373 52.5717 50.4107C52.5698 50.418 52.568 50.4243 52.5671 50.4316C52.4465 50.9929 51.9913 51.5306 51.284 51.9486C49.4287 53.0477 46.3656 53.0767 44.4559 52.0139C43.6788 51.5905 43.1973 51.0428 43.0631 50.4307C43.0459 50.3572 42.9715 50.3119 42.9008 50.3273C42.8273 50.3436 42.7811 50.4162 42.7974 50.4896L43.3959 53.2181C43.5256 53.8193 43.9898 54.3598 44.7397 54.7787C45.5921 55.2529 46.6984 55.4896 47.8074 55.4896L47.8083 55.4887ZM51.9994 53.1846C51.8698 53.6751 51.4807 54.1222 50.8687 54.4804C49.2337 55.4434 46.5442 55.4715 44.8739 54.5411C44.1939 54.1612 43.7749 53.6842 43.6625 53.161L43.2852 51.439C43.5437 51.7428 43.8928 52.0176 44.3244 52.2533C46.3121 53.3569 49.4949 53.326 51.4227 52.1835C51.809 51.9559 52.1264 51.692 52.3649 51.4064C52.2452 51.9795 52.1264 52.5507 52.0067 53.1211C52.0003 53.1356 51.9967 53.151 51.9967 53.1664C51.9967 53.1728 51.9976 53.1791 51.9994 53.1846Z" fill="#155C6D"/>
<path d="M41.2353 42.4728C41.2353 42.5235 41.2353 42.5797 41.2444 42.636V42.6695C41.2444 42.7194 41.2534 42.7702 41.2715 42.8264C41.2715 42.8654 41.2806 42.8999 41.2806 42.9388C41.2806 42.9388 41.2897 42.9724 41.2897 42.9833C41.2897 42.995 41.2988 43.0114 41.2988 43.0286C41.4711 43.8257 41.6433 44.6227 41.8247 45.4198C42.1511 46.9641 42.4413 49.0696 42.9401 50.574C42.9401 50.5848 42.94 50.5966 42.9491 50.6184V50.6411C42.9491 50.6411 42.9491 50.6637 42.9582 50.681C42.9672 50.6973 42.9763 50.7254 42.9854 50.7481C43.0035 50.7871 43.0126 50.8206 43.0307 50.8605C43.0307 50.8605 43.0489 50.8995 43.0579 50.9167C43.0579 50.9276 43.067 50.9331 43.076 50.9503V50.9612C43.0942 50.9838 43.1123 51.0119 43.1214 51.04C43.1214 51.04 43.1214 51.0509 43.1304 51.0509C43.1395 51.0627 43.1486 51.0736 43.1577 51.0908C43.1577 51.0908 43.1577 51.0963 43.1668 51.1017C43.1849 51.1298 43.203 51.1634 43.2302 51.1969C43.2302 51.2024 43.2393 51.2142 43.2393 51.2196C43.2574 51.2368 43.2665 51.2586 43.2846 51.2758C43.2937 51.2867 43.3118 51.2985 43.3118 51.3148C43.3118 51.3148 43.3209 51.3203 43.33 51.3266C43.339 51.3375 43.3481 51.3547 43.3662 51.371C43.3662 51.3765 43.3753 51.3883 43.3844 51.3937C43.4025 51.4164 43.4207 51.4381 43.4479 51.4608C43.4479 51.4608 43.4841 51.5007 43.4932 51.517L43.5204 51.5343C43.5204 51.5343 43.5385 51.556 43.5567 51.5733C43.5839 51.5959 43.611 51.624 43.6382 51.6458C43.6473 51.6521 43.6473 51.6576 43.6564 51.663C43.6564 51.6739 43.6746 51.6802 43.6836 51.6857C43.7924 51.7809 43.9194 51.8707 44.0554 51.9604H44.0645C44.0645 51.9604 44.1189 52.0003 44.137 52.0167C44.1824 52.0448 44.2186 52.062 44.2549 52.0838C44.2911 52.101 44.3002 52.1182 44.3274 52.1291C44.3455 52.14 44.3728 52.1518 44.3909 52.1627C44.4362 52.1853 44.4906 52.2134 44.545 52.2361C44.5722 52.2524 44.5995 52.2642 44.6267 52.2805C44.6811 52.3032 44.7445 52.3313 44.799 52.354C44.8443 52.3703 44.8987 52.393 44.944 52.4102C45.0166 52.432 45.0891 52.4601 45.1526 52.4827C45.1889 52.4936 45.2161 52.5054 45.2523 52.5217C45.2796 52.5335 45.3158 52.5444 45.3521 52.5499C45.3702 52.5499 45.3883 52.5616 45.4065 52.5671C45.7057 52.6623 46.0322 52.7357 46.3586 52.792H46.3677C46.3677 52.792 46.3949 52.7919 46.404 52.7974C46.6125 52.8309 46.821 52.8536 47.0296 52.8699H47.1294C47.1566 52.8699 47.2019 52.8699 47.2291 52.8754H47.2654C47.3198 52.8754 47.3833 52.8817 47.4377 52.8817H47.7007C48.0725 52.8817 48.4442 52.8645 48.816 52.8137C48.8885 52.8028 48.9702 52.7974 49.0427 52.7802C49.079 52.7747 49.1243 52.7693 49.1697 52.7638C49.2059 52.7575 49.2422 52.752 49.2785 52.7466C49.2875 52.7466 49.2966 52.7412 49.3056 52.7412C49.4598 52.7185 49.6049 52.6795 49.7409 52.6396H49.759C49.8225 52.6233 49.886 52.6061 49.9495 52.5898C50.2487 52.5109 50.5207 52.4038 50.7837 52.286C50.8018 52.2805 50.82 52.2697 50.8472 52.2642C50.9197 52.2243 51.0104 52.1853 51.083 52.14C51.1011 52.1346 51.1101 52.1291 51.1192 52.1237C51.1736 52.101 51.228 52.0674 51.2824 52.0448C51.2915 52.0339 51.3187 52.0167 51.3368 52.0058C51.3822 51.9831 51.4276 51.9441 51.5001 51.8988C51.5092 51.8933 51.5182 51.8825 51.5364 51.8761C51.5454 51.8707 51.5454 51.8652 51.5545 51.8652C51.5636 51.8543 51.5817 51.848 51.5908 51.8317C51.5908 51.8317 51.5998 51.8317 51.5998 51.8262C51.618 51.8144 51.627 51.8036 51.6542 51.7863C51.6724 51.77 51.6996 51.7473 51.7177 51.7301C51.7268 51.7192 51.754 51.7138 51.7631 51.6966C51.7631 51.6911 51.7721 51.6911 51.7721 51.6857C51.8175 51.6458 51.8628 51.6186 51.8991 51.5787C51.9354 51.556 51.9625 51.5279 51.9807 51.5061C51.9897 51.5007 51.9988 51.4943 51.9988 51.4889C52.017 51.478 52.026 51.4662 52.0442 51.4499C52.0714 51.4272 52.0895 51.3991 52.1076 51.3765C52.1348 51.3601 52.1439 51.3375 52.162 51.3148C52.1711 51.2985 52.1892 51.2813 52.1983 51.264C52.1983 51.2586 52.2074 51.2531 52.2074 51.2531C52.2436 51.2087 52.2709 51.1688 52.2981 51.1298C52.3253 51.0845 52.3525 51.0509 52.3797 51.0065C52.3978 50.9784 52.4159 50.9448 52.425 50.9104C52.4341 50.8995 52.4432 50.8941 52.4522 50.8768C52.4522 50.8768 52.4522 50.8605 52.4613 50.8551C52.4704 50.8378 52.4703 50.8152 52.4794 50.7989C52.5157 50.7372 52.5338 50.6692 52.561 50.6075C52.5701 50.574 52.5792 50.5459 52.5792 50.5123V50.4896C52.5792 50.4896 52.5882 50.4615 52.5973 50.4452V50.4053L52.6698 50.0743C52.697 49.9002 52.7424 49.7207 52.7786 49.5466L53.2683 47.2506C53.3318 46.9187 53.4043 46.5932 53.4678 46.2849L53.6583 45.3808C53.8215 44.5665 54.0028 43.7531 54.1661 42.9443C54.1661 42.9334 54.166 42.9216 54.1751 42.9053V42.8491C54.1751 42.8491 54.1932 42.7928 54.1932 42.7702C54.1932 42.7257 54.2023 42.6804 54.2114 42.6414V42.6296C54.2114 42.5734 54.2205 42.5181 54.2205 42.4619C54.2205 41.4844 53.5494 40.5023 52.2346 39.7723C49.6321 38.3297 45.4881 38.3741 42.9672 39.8675C41.734 40.5975 41.1174 41.546 41.1174 42.4836L41.2353 42.4728Z" fill="#C8DAE8"/>
<path d="M47.4377 53.0186H47.7007C48.1232 53.0186 48.4932 52.9959 48.8342 52.9488L48.9094 52.9388C48.9656 52.9324 49.0218 52.9252 49.0744 52.9125L49.3002 52.8807C49.4825 52.8526 49.6294 52.8136 49.7636 52.7747C49.7754 52.7747 49.7863 52.7728 49.7926 52.7719L49.984 52.7212C50.2524 52.6504 50.5162 52.5543 50.8399 52.4101C50.8535 52.4074 50.8998 52.3902 50.9125 52.3829C50.9379 52.3684 50.9678 52.3548 50.9968 52.3403C51.0458 52.3158 51.0957 52.2904 51.1401 52.2641C51.1609 52.2569 51.1764 52.2478 51.1891 52.2406C51.2027 52.2369 51.2335 52.2215 51.2634 52.2052C51.287 52.1925 51.3115 52.1807 51.3351 52.1698C51.355 52.1617 51.3731 52.149 51.3876 52.1318C51.3876 52.1318 51.4013 52.1263 51.4085 52.1209C51.4276 52.1118 51.4593 52.091 51.4956 52.0656C51.5173 52.0501 51.5418 52.0329 51.5717 52.0139C51.5781 52.0121 51.5953 51.9976 51.6017 51.9948C51.6044 51.993 51.608 51.9912 51.6125 51.9885C51.6316 51.9794 51.6479 51.9667 51.6615 51.9504C51.6615 51.9513 51.6669 51.9504 51.6824 51.935C51.6914 51.9286 51.6996 51.9223 51.7068 51.9159C51.7132 51.9123 51.7386 51.8933 51.744 51.8887C51.7794 51.8579 51.7993 51.8416 51.812 51.828C51.8175 51.828 51.8456 51.8126 51.8683 51.7817C51.8819 51.7708 51.8936 51.7609 51.9072 51.7509C51.9344 51.7291 51.9616 51.7083 51.9852 51.6838C52.0269 51.6548 52.0578 51.624 52.0786 51.5995C52.0786 51.5995 52.0804 51.5985 52.0813 51.5976C52.0995 51.5849 52.1113 51.5732 52.1213 51.5632C52.1639 51.5269 52.1865 51.497 52.2028 51.4743C52.2219 51.4662 52.2454 51.4317 52.2599 51.4109C52.2627 51.4072 52.2781 51.3846 52.2799 51.38C52.2836 51.3755 52.2953 51.361 52.3035 51.3474C52.3062 51.3446 52.308 51.3428 52.3108 51.3401C52.3452 51.2975 52.3724 51.2585 52.4005 51.2204C52.4268 51.1778 52.4395 51.1597 52.4531 51.1415C52.4667 51.1216 52.4803 51.1016 52.4948 51.079C52.5166 51.0445 52.5329 51.0128 52.5447 50.9819C52.5529 50.9729 52.561 50.962 52.5692 50.9466C52.5746 50.9375 52.5792 50.9275 52.5819 50.9176C52.5946 50.894 52.5991 50.8722 52.6018 50.8577C52.6227 50.8205 52.6427 50.7698 52.6617 50.7199L52.6835 50.6619C52.7016 50.6038 52.7133 50.5639 52.7133 50.5131C52.726 50.4923 52.7324 50.4705 52.7324 50.446V50.4061L52.8004 50.1042C52.8194 49.9799 52.8467 49.8612 52.873 49.7433L53.3989 47.2805C53.4397 47.0719 53.4823 46.8679 53.5249 46.6693L53.7897 45.4107C53.8749 44.9872 53.9638 44.5664 54.0527 44.1457C54.1361 43.7531 54.2196 43.3622 54.2984 42.9723C54.3093 42.9524 54.3102 42.9297 54.3102 42.9061V42.8608C54.3202 42.8417 54.3293 42.8009 54.3293 42.771C54.3293 42.7402 54.3365 42.7039 54.3438 42.6731C54.3456 42.6631 54.3474 42.6413 54.3474 42.6314C54.3474 42.6069 54.3492 42.5824 54.351 42.5579C54.3537 42.5262 54.3564 42.4953 54.3564 42.4636C54.3564 41.4036 53.6075 40.3798 52.3008 39.6553C49.6693 38.1963 45.4509 38.2398 42.8974 39.7523C41.6624 40.4832 40.9814 41.4535 40.9814 42.4854C40.9814 42.5235 40.9986 42.5606 41.0258 42.586C41.0476 42.606 41.0766 42.6187 41.1056 42.6214C41.1056 42.6341 41.1083 42.6468 41.1102 42.6595C41.1102 42.7293 41.1183 42.7891 41.1365 42.8517C41.1365 42.8689 41.1392 42.8853 41.1419 42.9016C41.1419 42.9143 41.1446 42.9279 41.1446 42.9415C41.1446 42.9533 41.1464 42.9651 41.1491 42.9759C41.1491 42.9886 41.16 43.0303 41.1636 43.0421C41.3386 43.8573 41.5118 44.6544 41.6923 45.4524C41.7911 45.9203 41.8873 46.4408 41.987 46.9821C42.2191 48.2444 42.4595 49.5501 42.8058 50.6011C42.8058 50.6147 42.8085 50.6283 42.814 50.6446C42.814 50.6773 42.8204 50.7117 42.8367 50.7453C42.843 50.7571 42.8476 50.7698 42.853 50.7834C42.872 50.8269 42.8765 50.8423 42.8829 50.8586C42.8901 50.8777 42.8974 50.8976 42.9065 50.9185L42.9364 50.981C42.9409 50.9901 42.9445 50.9983 42.9491 51.0055C42.9536 51.0218 42.9609 51.0363 42.9691 51.0472C42.9827 51.0645 42.9899 51.079 42.9926 51.0862C42.9999 51.1044 43.0099 51.1207 43.0216 51.1352C43.0262 51.1397 43.0307 51.1443 43.0353 51.1488C43.0407 51.1606 43.047 51.1715 43.0543 51.1814C43.0742 51.2159 43.0915 51.2413 43.1105 51.2667C43.1178 51.2857 43.1296 51.3048 43.1441 51.3193C43.1568 51.3383 43.1695 51.3573 43.1885 51.3755C43.2003 51.3991 43.2175 51.4199 43.242 51.4335C43.242 51.4335 43.2502 51.4498 43.2683 51.468C43.2719 51.4716 43.2746 51.4761 43.2783 51.4807C43.2982 51.507 43.3227 51.5351 43.3571 51.5641C43.3571 51.5659 43.3717 51.5804 43.3771 51.5904C43.388 51.6058 43.4052 51.6249 43.4206 51.6339V51.6321C43.4206 51.6321 43.4433 51.6539 43.4624 51.672L43.5041 51.7101C43.5195 51.7237 43.5331 51.7373 43.5485 51.7491C43.563 51.77 43.5857 51.7899 43.6192 51.8062C43.7171 51.8978 43.8586 51.9948 43.9801 52.0755C43.9892 52.0819 43.9991 52.0864 44.0091 52.09C44.0236 52.1009 44.0391 52.1127 44.0473 52.1209C44.0944 52.1517 44.1188 52.1653 44.1415 52.178L44.1851 52.2025C44.225 52.2288 44.244 52.2442 44.2748 52.2569C44.2785 52.2587 44.3274 52.285 44.3311 52.2868C44.4009 52.3213 44.4471 52.3439 44.4933 52.363L44.555 52.3983L44.896 52.5398C44.9631 52.5597 45.0211 52.5815 45.0728 52.6006L45.1055 52.6124C45.1445 52.6241 45.1662 52.6341 45.197 52.6477C45.2423 52.6668 45.2895 52.6794 45.333 52.6858C45.3376 52.6876 45.3621 52.6976 45.3675 52.6985C45.6486 52.7883 45.9741 52.8653 46.335 52.927L46.3677 52.7928L46.3713 52.9288C46.3713 52.9288 46.3568 52.927 46.3405 52.9179C46.3541 52.9252 46.3677 52.9297 46.3822 52.9324C46.5771 52.9642 46.7848 52.9887 47.0188 53.0068H47.1294C47.1475 53.0068 47.182 53.0068 47.2019 53.0095L47.2645 53.0122C47.289 53.0122 47.3171 53.0141 47.3443 53.015C47.376 53.0168 47.4078 53.0186 47.4377 53.0186ZM49.2512 52.6141L49.0228 52.6459C48.9675 52.6586 48.9221 52.664 48.8768 52.6686L48.7951 52.6795C48.4696 52.7239 48.1105 52.7465 47.7007 52.7465H47.4377C47.4132 52.7465 47.386 52.7447 47.3597 52.7438C47.327 52.742 47.2953 52.7402 47.2654 52.7402H47.2291C47.2219 52.7366 47.1647 52.7347 47.1303 52.7347H47.0306C46.8202 52.7175 46.6225 52.6949 46.4393 52.6658C46.4221 52.6613 46.3994 52.6568 46.3686 52.6568C46.034 52.5987 45.7193 52.5244 45.4491 52.4382C45.4237 52.4274 45.3929 52.4147 45.3539 52.4147C45.3521 52.4128 45.3267 52.4056 45.3059 52.3974C45.2669 52.3793 45.2342 52.3657 45.1916 52.353L45.168 52.3439C45.1109 52.3231 45.0474 52.2995 44.9849 52.2805L44.6792 52.1553C44.6792 52.1553 44.6647 52.1462 44.6484 52.1372L44.6167 52.1191C44.5596 52.0937 44.5188 52.0737 44.4825 52.0556C44.4526 52.0393 44.4344 52.0311 44.4181 52.022C44.4154 52.0211 44.3845 52.0048 44.3818 52.003C44.3682 51.9912 44.3483 51.9758 44.3166 51.9604L44.2748 51.9368C44.2558 51.9259 44.2349 51.915 44.2122 51.9005C44.2095 51.896 44.1488 51.8507 44.1488 51.8507C44.1361 51.8416 44.1234 51.8343 44.1089 51.8307C44.001 51.7582 43.8794 51.6738 43.7779 51.5841C43.7724 51.5804 43.767 51.5759 43.7598 51.5714C43.7553 51.5659 43.7489 51.5605 43.7435 51.5559C43.7362 51.5487 43.7271 51.5405 43.7226 51.5369L43.6473 51.4689C43.641 51.4625 43.6283 51.4462 43.6274 51.4453C43.6183 51.4353 43.6084 51.4263 43.5966 51.419H43.5947C43.5839 51.4054 43.5703 51.3891 43.5521 51.3691C43.5213 51.3419 43.5095 51.3283 43.4959 51.3093C43.4923 51.3048 43.4878 51.3002 43.4832 51.2957C43.4778 51.2866 43.4705 51.2785 43.4624 51.2703C43.4624 51.2685 43.4424 51.2431 43.4406 51.2404C43.4361 51.2349 43.4306 51.2286 43.4243 51.2241C43.4125 51.2059 43.3998 51.1932 43.3916 51.186C43.3789 51.1697 43.3708 51.1578 43.3626 51.1479C43.3572 51.1343 43.349 51.1216 43.3399 51.1098C43.3227 51.0889 43.3109 51.0681 43.2991 51.0491C43.2946 51.0418 43.2882 51.0327 43.281 51.0237C43.2674 51.0019 43.2565 50.9856 43.2447 50.9711C43.2339 50.9466 43.2211 50.9239 43.2084 50.9058C43.2057 50.8976 43.203 50.8895 43.1994 50.884C43.1975 50.8813 43.193 50.874 43.1885 50.8668C43.1867 50.8631 43.1849 50.8586 43.1831 50.855L43.1414 50.7616C43.1323 50.738 43.1232 50.7154 43.1124 50.69C43.1006 50.66 43.0915 50.6337 43.0815 50.6165C43.0815 50.5984 43.086 50.5839 43.0788 50.5675C43.0788 50.553 43.0788 50.5458 43.0733 50.5313C42.7297 49.4948 42.4894 48.1908 42.2581 46.9304C42.1584 46.3873 42.0613 45.8631 41.9616 45.3916C41.7812 44.5927 41.608 43.7966 41.4357 42.9995C41.4357 42.9968 41.4312 42.975 41.4293 42.966C41.4293 42.966 41.4275 42.9497 41.4203 42.9197C41.4203 42.9016 41.4176 42.8834 41.4148 42.8653C41.4148 42.8526 41.4121 42.839 41.4121 42.8254C41.4121 42.8109 41.4094 42.7964 41.4049 42.7828C41.3904 42.7402 41.3849 42.7039 41.3849 42.6685C41.3849 42.6613 41.3849 42.6205 41.3831 42.6132C41.3749 42.5643 41.3758 42.5153 41.3758 42.4718C41.3758 42.4337 41.3586 42.3965 41.3314 42.3711C41.3123 42.353 41.2879 42.3421 41.2625 42.3376C41.3241 41.4598 41.9507 40.6283 43.0398 39.9836C45.5198 38.5146 49.6167 38.4729 52.1729 39.8902C53.3899 40.5657 54.0871 41.5024 54.0871 42.46C54.0871 42.4845 54.0853 42.5089 54.0835 42.5334C54.0808 42.5652 54.0781 42.596 54.0781 42.6277C54.0708 42.6558 54.06 42.7102 54.06 42.7683C54.0581 42.7764 54.0491 42.8037 54.0482 42.8055C54.0436 42.8191 54.0409 42.8336 54.0409 42.8481V42.8789C54.0319 42.9079 54.0318 42.9315 54.0318 42.9433C53.9566 43.3051 53.8732 43.6959 53.7906 44.0868C53.7009 44.5084 53.612 44.9301 53.5268 45.3526L53.262 46.6094C53.2194 46.8098 53.1758 47.0147 53.1359 47.2233L52.6109 49.6807C52.5837 49.8049 52.5556 49.9292 52.5366 50.0507L52.4649 50.4088C52.4585 50.4243 52.4531 50.4388 52.4513 50.446C52.4467 50.4596 52.444 50.4733 52.444 50.4869C52.444 50.5213 52.4404 50.5349 52.4332 50.5594C52.4268 50.5739 52.4178 50.5975 52.4096 50.621C52.396 50.6564 52.3833 50.6927 52.3633 50.7271C52.3561 50.738 52.3443 50.7734 52.3398 50.7897C52.3352 50.7988 52.3307 50.8078 52.3271 50.8169C52.3144 50.8341 52.299 50.8577 52.2944 50.8731C52.2908 50.8867 52.2808 50.9058 52.2663 50.9293C52.2545 50.9493 52.2437 50.9656 52.2319 50.981C52.2156 51.0055 52.1992 51.0291 52.182 51.0572C52.1575 51.0917 52.1339 51.1261 52.1031 51.1624C52.094 51.1733 52.0858 51.1851 52.0804 51.1987H52.0786C52.0732 51.2041 52.0478 51.2386 52.0442 51.2467C52.0296 51.2549 52.0124 51.2757 52.0015 51.2884C51.9771 51.322 51.968 51.3347 51.9589 51.341L52.0133 51.4761L51.9272 51.3701C51.9154 51.3773 51.9054 51.3864 51.8973 51.3963C51.8891 51.4027 51.8818 51.409 51.8773 51.4154C51.8691 51.4254 51.8528 51.4435 51.8284 51.4589C51.8175 51.4653 51.8093 51.4734 51.8002 51.4816C51.7839 51.4997 51.7649 51.5142 51.744 51.5296C51.725 51.5451 51.7041 51.5605 51.6842 51.5786C51.6787 51.5831 51.6733 51.5895 51.6679 51.5958C51.6679 51.5958 51.6661 51.5976 51.6651 51.5986C51.647 51.6103 51.6216 51.6294 51.6125 51.6403L51.5862 51.6611C51.5626 51.6802 51.5491 51.6892 51.5382 51.6983C51.5337 51.701 51.5291 51.7047 51.5246 51.7083C51.5082 51.7173 51.4956 51.7291 51.4838 51.7436C51.4792 51.7464 51.4738 51.7491 51.4693 51.7527C51.4484 51.7627 51.4339 51.7736 51.4257 51.7799C51.394 51.7999 51.365 51.8198 51.3387 51.838C51.316 51.8543 51.2961 51.8688 51.2761 51.8787C51.2489 51.896 51.2262 51.9096 51.209 51.9232C51.1863 51.9341 51.1619 51.9459 51.1392 51.9586C51.1156 51.9712 51.0911 51.983 51.0675 51.9939C51.0539 51.9975 51.0213 52.013 51.0113 52.0202C50.9705 52.0456 50.9225 52.0692 50.878 52.0919C50.8508 52.1055 50.8245 52.1182 50.8 52.1318C50.7801 52.1372 50.7647 52.1435 50.7529 52.1481C50.4201 52.2959 50.1689 52.3865 49.9159 52.4536L49.74 52.4999C49.7264 52.4999 49.7128 52.5017 49.7046 52.5044C49.575 52.5425 49.4354 52.5797 49.2876 52.6014L49.2939 52.7384L49.2531 52.6087L49.2512 52.6141ZM51.4675 51.7963C51.4647 51.8062 51.4629 51.8162 51.4629 51.8262C51.4629 51.8153 51.4647 51.8053 51.4675 51.7963ZM51.4956 51.7427C51.4956 51.7427 51.4956 51.7427 51.4937 51.7427C51.4974 51.7382 51.5028 51.7328 51.5074 51.7282C51.5037 51.7328 51.4992 51.7373 51.4956 51.7418V51.7427ZM51.6542 51.6149C51.6497 51.6212 51.6452 51.6285 51.6416 51.6348C51.6461 51.6267 51.6497 51.6194 51.6542 51.6149ZM43.2502 50.9946C43.2583 51.0019 43.2665 51.0101 43.2719 51.02C43.2647 51.011 43.2565 51.0028 43.2502 50.9964V50.9946Z" fill="#155C6D"/>
<path d="M43.2122 51.3139L43.067 51.381L43.2666 51.2468L43.2031 51.3139H43.2122ZM52.7334 50.9548C52.7334 50.9548 52.7152 50.9938 52.7062 51.011C52.7062 51.011 52.7243 50.9711 52.7334 50.9603V50.9548Z" fill="#155C6D"/>
<path d="M43.0668 51.5171C43.0859 51.5171 43.1049 51.5135 43.1231 51.5044L43.2682 51.4373C43.2981 51.4237 43.3217 51.4001 43.3344 51.372L43.3643 51.3394C43.4123 51.2886 43.4141 51.2106 43.3688 51.158C43.3244 51.1054 43.2464 51.0954 43.1893 51.1335L42.9898 51.2677C42.9318 51.3076 42.9127 51.3856 42.9472 51.4473C42.9717 51.4908 43.0179 51.5162 43.066 51.5162L43.0668 51.5171ZM52.706 51.148C52.7558 51.148 52.803 51.1208 52.8275 51.0737L52.8293 51.0692C52.8493 51.0447 52.8701 50.993 52.8701 50.9612C52.8701 50.8978 52.8257 50.8397 52.764 50.8261C52.7024 50.8134 52.638 50.8397 52.6108 50.8977L52.5981 50.9232C52.5936 50.9322 52.5881 50.9422 52.5827 50.9549C52.5518 51.022 52.5799 51.1018 52.6461 51.1344C52.6652 51.1435 52.686 51.148 52.706 51.148Z" fill="#155C6D"/>
<path d="M5.87071 31.6396C5.89791 32.1447 6.02484 33.2283 6.13366 33.7171C6.18806 34.0199 6.26967 34.4353 6.36035 34.739C6.52357 35.323 6.75028 36.1028 6.9407 36.6759C7.17648 37.3379 7.58452 38.2927 7.72961 38.5847C7.87469 38.8595 8.04699 39.2412 8.19208 39.5051C8.34623 39.7744 8.53664 40.1398 8.6908 40.4091C8.85402 40.6785 9.07167 41.0266 9.22583 41.2905C9.50693 41.7448 9.59756 41.8627 10.4227 42.969C10.6041 43.2102 10.8671 43.5248 11.0666 43.7606C11.4928 44.2829 12.1547 44.934 12.4721 45.2423C12.6444 45.4164 13.3244 46.0403 14.0499 46.5898C14.4761 46.9099 15.0111 47.2971 15.8 47.7523L17.0151 48.4424L18.2302 49.1333L19.4452 49.8243L20.6513 50.5144L21.8663 51.2053L23.0724 51.8954L24.2875 52.5863L25.5026 53.2764L26.7177 53.9674L27.8965 54.6466C27.8965 54.6466 27.9146 54.6574 27.9327 54.6629C28.4315 54.9331 29.1116 55.2804 29.6466 55.4999C30.1544 55.7075 30.8617 55.9433 31.3967 56.072C31.9226 56.1899 32.6118 56.3359 33.1287 56.3758C33.5911 56.4148 34.1987 56.4429 34.6611 56.4483C34.9241 56.4483 35.2777 56.4375 35.5407 56.4148C36.8646 56.3359 38.3426 56.0503 39.73 55.6069C40.8091 55.2587 41.5254 54.944 41.598 54.9159C41.87 54.798 42.2146 54.652 42.4776 54.5232C42.9582 54.2875 43.5929 53.9502 44.0645 53.6863L46.1228 52.502C46.1863 52.4621 46.2589 52.4231 46.3224 52.3787C46.54 52.249 46.7758 52.1085 46.9662 51.9906C47.2382 51.8165 47.6009 51.5871 47.8639 51.3903C48.3264 51.053 48.9248 50.5932 49.3601 50.2396C49.614 50.0374 49.9041 49.7681 50.149 49.5486C50.3757 49.3355 50.6749 49.049 50.8835 48.8187C51.2371 48.426 51.7177 47.8874 52.0442 47.4775C52.2527 47.2354 52.4885 46.8881 52.6699 46.6242C52.8149 46.4102 52.9963 46.1183 53.1323 45.8997C53.1323 45.8879 53.7036 44.9394 54.03 44.097C54.1842 43.7044 54.3565 43.1766 54.4834 42.7722C54.565 42.5083 54.6285 42.1493 54.692 41.88C54.828 41.335 54.9005 40.5887 54.9368 40.0328C54.964 39.5051 54.9459 38.7923 54.9277 38.2592C54.9096 37.765 54.7645 36.6533 54.6648 36.1699C54.6013 35.8616 54.5197 35.4409 54.4381 35.1371C54.2749 34.5423 54.0482 33.7615 53.8487 33.1784C53.6129 32.5101 53.1958 31.5499 53.0507 31.247C52.9147 30.9659 52.7424 30.5896 52.5882 30.3203C52.4341 30.0455 52.2437 29.6801 52.0895 29.4108C51.9263 29.1414 51.6996 28.7878 51.5454 28.5239C51.2553 28.0633 51.1737 27.9454 50.3394 26.8282C50.149 26.5816 49.877 26.2669 49.6866 26.0257C49.2513 25.498 48.5893 24.8469 48.2629 24.5268C48.0815 24.3527 47.4105 23.7243 46.6669 23.1684C46.2408 22.8484 45.6967 22.4548 44.9078 22.0005C44.8987 22.0005 44.8896 21.9951 44.8805 21.9887L43.7108 21.3213L42.5139 20.6421L41.3169 19.9566L40.1199 19.2774L38.923 18.5983L37.7351 17.9136L36.5382 17.2335L35.3412 16.5544L34.1442 15.8697L32.9473 15.1906C32.4486 14.9212 31.7685 14.5676 31.2335 14.3536C30.7075 14.1405 29.9912 13.9047 29.4471 13.776C28.9302 13.6517 28.2411 13.523 27.7242 13.4722C27.4522 13.4504 27.0985 13.416 26.8356 13.4051C26.4184 13.3942 25.8653 13.3942 25.4572 13.416C24.6865 13.4613 24.1243 13.5339 23.417 13.6581C22.4014 13.8376 21.4946 14.1178 21.4764 14.1178C21.1681 14.2139 20.7601 14.3373 20.4608 14.4497C19.9258 14.6456 19.2185 14.9267 18.7017 15.1507C18.6926 15.1507 17.8765 15.5052 16.7521 16.1508L14.6846 17.3351C14.4398 17.492 14.0862 17.6833 13.8413 17.8456C13.4151 18.1267 12.8439 18.5139 12.4267 18.8168C11.7648 19.2883 10.8943 20.0745 10.8852 20.0799C10.4862 20.4562 9.96936 20.9677 9.59758 21.3658C9.38902 21.5906 9.11699 21.9162 8.91749 22.1519C8.90842 22.1574 8.36435 22.8148 7.78401 23.7406C7.22181 24.6556 6.91351 25.3747 6.8319 25.5769C6.65961 25.9922 6.46012 26.5698 6.3241 26.9969C6.24249 27.2608 6.16996 27.6253 6.10648 27.8955C5.97046 28.445 5.89789 29.1922 5.85255 29.7535C5.81628 30.3148 5.83442 31.0674 5.85255 31.6287H5.87071V31.6396Z" fill="#C8DAE8"/>
<path d="M34.6591 56.5843C34.8912 56.5843 35.2621 56.5752 35.5514 56.5507C36.8762 56.4719 38.3751 56.1826 39.7706 55.7374C40.4018 55.5333 41.0147 55.3075 41.5932 55.0654L41.7592 54.9947C42.0122 54.885 42.306 54.7589 42.5363 54.6465C42.9888 54.4243 43.6145 54.0943 44.1304 53.8059L46.265 52.5754C46.3104 52.5482 46.3575 52.5201 46.3983 52.4911C46.6078 52.3668 46.8444 52.2263 47.0358 52.1075L47.0811 52.0785C47.3522 51.9053 47.6905 51.6904 47.9435 51.5009C48.4087 51.1617 49.0117 50.6974 49.4442 50.3474C49.6473 50.1851 49.8767 49.9775 50.0789 49.7952L50.2376 49.6519C50.5713 49.3391 50.8143 49.0979 50.9821 48.912C51.3212 48.5357 51.8118 47.9862 52.1482 47.5645C52.3432 47.3378 52.5627 47.0177 52.7395 46.7611L52.7793 46.7031C52.9208 46.4936 53.0976 46.2116 53.2327 45.994C53.2391 45.9849 53.2455 45.9722 53.2518 45.9577H53.2536C53.259 45.9486 53.2735 45.9223 53.2962 45.8824C53.4413 45.6276 53.882 44.8523 54.1541 44.1477C54.2792 43.8304 54.4333 43.3815 54.611 42.8139C54.6673 42.6316 54.7135 42.4131 54.7589 42.2018C54.7797 42.1002 54.8015 42.0014 54.8214 41.9125C54.9629 41.3458 55.0336 40.5832 55.069 40.0427C55.0907 39.6265 55.088 39.0426 55.0608 38.2555C55.0418 37.7395 54.8949 36.6287 54.7942 36.1436L54.7579 35.9668C54.7008 35.6802 54.6337 35.3556 54.5657 35.1026C54.4678 34.7435 54.2121 33.8322 53.9736 33.1358C53.7414 32.4765 53.3279 31.519 53.1711 31.1898L53.074 30.9876C52.9571 30.7436 52.8256 30.4671 52.7032 30.254C52.6352 30.1316 52.559 29.9901 52.4819 29.8478C52.3867 29.6718 52.2906 29.4932 52.2044 29.3445C52.1373 29.233 52.0621 29.1114 51.985 28.9872C51.8698 28.8031 51.752 28.6136 51.6613 28.4567C51.3675 27.9907 51.2804 27.8664 50.4462 26.7484C50.3383 26.6078 50.205 26.4473 50.0753 26.2913C49.9746 26.1689 49.874 26.0492 49.7906 25.9431C49.349 25.4072 48.678 24.7489 48.357 24.4315C48.2246 24.3055 47.5354 23.6508 46.7465 23.0614C46.2841 22.7141 45.749 22.3305 44.9746 21.8844C44.9647 21.8789 44.9547 21.8744 44.9447 21.8717L33.0133 15.0735C32.2769 14.6763 31.712 14.4007 31.2831 14.2284C30.7263 14.0026 30.0009 13.7686 29.4777 13.6444C28.8965 13.5048 28.2128 13.3842 27.7367 13.3379L27.5236 13.3198C27.2942 13.2998 27.0412 13.2781 26.8408 13.2699C26.4554 13.259 25.8868 13.2572 25.4498 13.2808C24.7189 13.3234 24.1621 13.3896 23.3923 13.5247C22.5499 13.6744 21.7809 13.892 21.5279 13.9636C21.4853 13.9754 21.459 13.9827 21.4481 13.9854L21.2931 14.0325C21.002 14.1232 20.6701 14.2257 20.4117 14.3227C19.8586 14.5258 19.1476 14.8087 18.6462 15.0264L18.648 15.03C18.4177 15.1134 17.5372 15.5432 16.683 16.0338L14.6164 17.2181C14.5003 17.2924 14.368 17.3695 14.2328 17.4484C14.0678 17.5445 13.9001 17.6433 13.765 17.7331C13.3587 18.0006 12.772 18.3969 12.3458 18.707C12.0811 18.8956 11.605 19.2629 10.8397 19.9393L10.7989 19.9747C10.3473 20.4 9.83855 20.9069 9.49669 21.2732C9.31896 21.4654 9.09682 21.7284 8.91003 21.9497L8.813 22.0648L8.81483 22.0666C8.67428 22.219 8.15015 22.9009 7.66774 23.6698C7.09102 24.6075 6.78452 25.3284 6.70472 25.5269C6.52336 25.964 6.32207 26.5525 6.19421 26.9569C6.13346 27.1519 6.07814 27.4003 6.02917 27.6189L5.97294 27.8646C5.83601 28.415 5.76347 29.1577 5.71542 29.7426C5.68005 30.2921 5.69547 31.0075 5.71542 31.6332C5.71542 31.6586 5.72447 31.6831 5.73717 31.703C5.77162 32.258 5.89589 33.2772 6.00017 33.746C6.07815 34.1813 6.15522 34.5304 6.22958 34.777C6.32841 35.1343 6.58684 36.042 6.81082 36.7185C7.04295 37.3704 7.45372 38.3362 7.60696 38.6454C7.67407 38.7723 7.74478 38.9174 7.81551 39.0634C7.90347 39.2429 7.99146 39.4243 8.07126 39.5703C8.14925 39.7063 8.23536 39.8641 8.32059 40.0219C8.40674 40.1815 8.49288 40.3411 8.57087 40.4762L8.74587 40.7636C8.87191 40.9667 9.00343 41.1817 9.1059 41.3585C9.38065 41.8019 9.47494 41.9298 10.214 42.92L10.311 43.0505C10.4914 43.2908 10.7526 43.6028 10.9603 43.8485C11.2667 44.2248 11.7573 44.7408 12.3758 45.3402C12.5354 45.5007 13.2118 46.1264 13.9654 46.6985C14.4224 47.0413 14.9519 47.4212 15.7299 47.8701L27.8265 54.7644C27.8265 54.7644 27.8591 54.7834 27.8936 54.7934C28.1756 54.9494 28.9618 55.3665 29.5929 55.6249C30.1388 55.848 30.8497 56.0801 31.362 56.2034C31.9052 56.325 32.5925 56.47 33.1157 56.5108C33.5736 56.5489 34.1794 56.578 34.6572 56.5834L34.6591 56.5843ZM53.0133 45.8325C52.8682 46.0665 52.695 46.3431 52.5563 46.548L52.5164 46.6051C52.3441 46.8563 52.1283 47.1701 51.9397 47.3895C51.6051 47.8093 51.119 48.3543 50.7817 48.7279C50.6185 48.9075 50.3809 49.1441 50.0554 49.4497L49.8976 49.5912C49.6972 49.7716 49.4714 49.9757 49.2737 50.1334C48.843 50.4825 48.2445 50.9432 47.7812 51.2805C47.5354 51.4646 47.2017 51.6777 46.9342 51.8473L46.8898 51.8754C46.7021 51.9923 46.4672 52.132 46.2496 52.2616C46.2042 52.2934 46.1643 52.317 46.1244 52.3405L46.0474 52.3868L43.9935 53.5683C43.4839 53.8531 42.8627 54.1813 42.4148 54.4008C42.1881 54.5123 41.8988 54.6365 41.6486 54.7435L41.4854 54.8124C40.9141 55.0518 40.3083 55.2749 39.6854 55.4762C38.3116 55.9151 36.8354 56.1998 35.5296 56.2778C35.2449 56.3023 34.8831 56.3113 34.6582 56.3113C34.1867 56.3059 33.5891 56.2778 33.1366 56.2397C32.6306 56.2007 31.955 56.0575 31.4227 55.9378C30.9231 55.8181 30.2285 55.5904 29.6945 55.3728C29.0751 55.1189 28.2998 54.7073 27.9942 54.5422C27.9942 54.5422 27.9625 54.5286 27.9616 54.5277L15.8642 47.6325C15.0988 47.1909 14.5774 46.8173 14.1276 46.48C13.395 45.9251 12.7167 45.2985 12.5653 45.1452C11.9523 44.5513 11.4699 44.0426 11.1679 43.6735C10.9612 43.4287 10.7036 43.1203 10.5277 42.8855L10.4316 42.7558C9.69891 41.7738 9.60464 41.6477 9.33895 41.2179C9.23649 41.042 9.10315 40.8253 8.9771 40.6204L8.80393 40.3374C8.72957 40.2069 8.64343 40.0491 8.55819 39.8913C8.47205 39.7317 8.3859 39.5721 8.30792 39.437C8.23084 39.2974 8.14469 39.1196 8.06036 38.9446C7.98782 38.795 7.9153 38.6463 7.8491 38.5202C7.69949 38.2201 7.29594 37.2707 7.06834 36.6296C6.84618 35.9622 6.59044 35.059 6.4907 34.7018C6.41906 34.4624 6.34385 34.1241 6.26677 33.6925C6.16249 33.2219 6.03459 32.1546 6.00648 31.635V31.6278C6.00648 31.6015 5.99836 31.5761 5.98567 31.5552C5.96663 30.9513 5.9548 30.2776 5.98744 29.7607C6.03459 29.1885 6.10623 28.4595 6.23771 27.9272L6.29395 27.676C6.342 27.462 6.39553 27.2199 6.45356 27.0367C6.57961 26.6386 6.77818 26.0583 6.95682 25.6276C7.01304 25.4888 7.31953 24.7525 7.89897 23.8113C8.43488 22.9571 8.95356 22.3142 9.01341 22.2471C9.01613 22.2444 9.01885 22.2417 9.02066 22.2389L9.11857 22.1238C9.30174 21.9061 9.52209 21.6459 9.6971 21.4573C10.0344 21.0955 10.5386 20.5931 10.9784 20.1778C10.973 20.1814 10.9702 20.1842 10.9702 20.1842C10.9702 20.1842 10.9902 20.1669 11.0201 20.1415C11.7763 19.4732 12.2461 19.1114 12.5054 18.9264C12.9298 18.619 13.512 18.2246 13.9164 17.9589C14.0488 17.8709 14.2111 17.7757 14.3716 17.6814C14.5094 17.6007 14.6464 17.5209 14.7588 17.4493L16.8199 16.2687C17.9398 15.6258 18.7051 15.2957 18.745 15.2794C18.7486 15.2794 18.7522 15.2766 18.7559 15.2757C19.2546 15.0599 19.9583 14.7797 20.5087 14.5775C20.7608 14.4832 21.0882 14.3816 21.3756 14.2928L21.5107 14.2511C21.5261 14.2474 21.5524 14.2402 21.6032 14.2257C21.8526 14.1549 22.6125 13.94 23.4413 13.7922C24.1993 13.6598 24.747 13.5945 25.4652 13.5528C25.895 13.5293 26.4518 13.532 26.8326 13.542C27.0267 13.5501 27.2751 13.5719 27.5009 13.5909L27.7131 13.6091C28.1756 13.6544 28.8448 13.7723 29.4151 13.9101C29.9265 14.0307 30.6366 14.2601 31.1815 14.4814C31.5959 14.6473 32.1681 14.9266 32.8818 15.312L44.8124 22.1093C44.8196 22.1129 44.8314 22.1183 44.8422 22.1229C45.603 22.5608 46.129 22.9372 46.5842 23.2799C47.3767 23.872 48.0895 24.5521 48.1684 24.6274C48.4857 24.9402 49.1495 25.5913 49.5802 26.1145C49.6646 26.2197 49.7652 26.3412 49.8668 26.4654C49.9955 26.6196 50.1252 26.7774 50.2304 26.9143C51.0746 28.0442 51.1435 28.1457 51.4292 28.5991C51.5198 28.7542 51.6386 28.9455 51.7547 29.1323C51.8309 29.2556 51.9061 29.3771 51.9714 29.4841C52.0539 29.6283 52.1482 29.8051 52.2425 29.9783C52.3205 30.1225 52.3976 30.2649 52.4674 30.3891C52.5853 30.595 52.7141 30.8661 52.8292 31.1064L52.9263 31.3095C53.0804 31.6332 53.4884 32.5781 53.7169 33.2273C53.9536 33.9156 54.2066 34.8197 54.3037 35.176C54.3689 35.42 54.4342 35.74 54.4913 36.023L54.5285 36.2007C54.6237 36.6659 54.7706 37.7731 54.7888 38.2673C54.8151 39.0462 54.8178 39.622 54.7978 40.0282C54.7634 40.556 54.6936 41.3013 54.5566 41.8499C54.5349 41.9424 54.5131 42.0431 54.4913 42.1465C54.4478 42.3523 54.4025 42.5645 54.3499 42.7341C54.1749 43.2963 54.0235 43.7388 53.9001 44.0498C53.6344 44.7371 53.201 45.4989 53.0587 45.7491C53.036 45.7899 53.0205 45.8162 53.0106 45.8353L53.0133 45.8325Z" fill="#155C6D"/>
<path d="M23.3899 18.1828L35.3504 25.0091L37.3997 23.8248L25.4482 16.9985L23.3899 18.1828Z" fill="#155C6D"/>
<path d="M35.3503 25.145C35.3739 25.145 35.3974 25.1387 35.4183 25.1269L37.4676 23.9426C37.5093 23.9181 37.5356 23.8728 37.5356 23.8247C37.5356 23.7758 37.5094 23.7313 37.4667 23.7068L25.5153 16.8806C25.4745 16.857 25.4219 16.8561 25.3802 16.8806L23.3209 18.0648C23.2792 18.0893 23.2529 18.1338 23.2529 18.1827C23.2529 18.2317 23.2792 18.2761 23.3218 18.3006L35.2823 25.1269C35.3022 25.1387 35.3267 25.145 35.3494 25.145H35.3503ZM37.1267 23.8266L35.3503 24.853L23.6627 18.1836L25.4482 17.1562L37.1267 23.8266Z" fill="#155C6D"/>
<path d="M31.2333 29.5222C31.5144 29.1848 31.8227 28.9382 32.131 28.7641C33.337 28.0731 34.6065 28.4494 35.5586 28.9999L36.2478 29.3762C35.2957 28.8258 34.0261 28.4494 32.8111 29.1404C32.5118 29.3136 32.2035 29.5666 31.9133 29.9039C29.4106 32.7948 31.1063 38.0324 31.1879 38.308L28.0686 36.5117C27.987 36.236 28.7215 32.4239 31.2333 29.5276V29.5222Z" fill="#70C5AD"/>
<path d="M31.1882 38.4439C31.2181 38.4439 31.2471 38.4339 31.2725 38.4149C31.316 38.3804 31.3341 38.3224 31.3187 38.2698L31.3079 38.2344C31.0277 37.3186 29.7464 32.6151 32.0161 29.9927C32.2845 29.6817 32.5737 29.4341 32.8793 29.2582C33.9756 28.6343 35.1118 28.9381 35.9397 29.3634L36.1827 29.4958C36.2489 29.532 36.3305 29.5085 36.3668 29.4423C36.4031 29.3779 36.3813 29.2954 36.316 29.2582C36.2362 29.2119 36.1519 29.1657 36.0658 29.1222L35.6242 28.8801C34.7246 28.3605 33.3735 27.8953 32.0641 28.6461C31.7168 28.842 31.4031 29.1077 31.1292 29.435C31.1229 29.4423 31.1174 29.4504 31.1129 29.4586C28.651 32.3123 27.824 36.1652 27.9383 36.5505C27.9482 36.5841 27.97 36.6122 27.9999 36.6294L31.1192 38.4258C31.1401 38.4385 31.1655 38.4439 31.1882 38.4439ZM34.2204 28.6307C33.7407 28.6307 33.2402 28.7413 32.7442 29.0233C32.4123 29.2156 32.0977 29.4822 31.8111 29.8168C29.6548 32.3068 30.5126 36.4209 30.9623 38.0223L28.1958 36.4299C28.1976 35.9067 28.9656 32.3521 31.336 29.6182C31.3432 29.61 31.3496 29.601 31.355 29.591C31.6026 29.2981 31.8873 29.0605 32.1992 28.8846C32.9246 28.4684 33.67 28.4648 34.3338 28.6334C34.2966 28.6325 34.2585 28.6316 34.2213 28.6316L34.2204 28.6307Z" fill="#155C6D"/>
<path d="M31.9222 29.8895C32.2033 29.5521 32.5116 29.3055 32.8199 29.126C35.1594 27.7839 37.6985 30.4671 37.8345 30.6077L37.0637 31.489L31.9404 37.423L31.1877 38.2881C31.1061 38.0125 29.4104 32.7749 31.9222 29.8831V29.8895Z" fill="#155C6D"/>
<path d="M31.2052 38.4114C31.2378 38.4114 31.2696 38.4023 31.2913 38.3778L32.044 37.5127L37.9381 30.6974C37.9843 30.6439 37.9825 30.5641 37.9326 30.5133C37.4629 30.0263 35.0354 27.6959 32.7531 29.008C32.4121 29.2066 32.1065 29.4632 31.8436 29.7724C31.8345 29.7788 31.8263 29.786 31.82 29.7942C29.5077 32.4565 30.6448 36.9732 31.0483 38.2944C31.0628 38.3424 31.1054 38.3941 31.1544 38.405C31.1707 38.4087 31.1879 38.4104 31.2052 38.4104V38.4114ZM37.6497 30.6139L36.9606 31.4001L31.2478 38.0124C30.8887 36.7501 29.8904 32.4719 31.9995 30.0009C32.0095 29.9946 32.0186 29.9864 32.0258 29.9774C32.2743 29.679 32.5645 29.4324 32.8873 29.2438C34.8922 28.0949 37.0594 30.0263 37.6497 30.6139Z" fill="#155C6D"/>
<path d="M48.6254 21.2811C48.9337 21.107 49.242 21.0054 49.5322 21.0118C49.7317 21.0118 49.904 21.0616 50.0581 21.146L50.8108 21.5894C50.6566 21.4996 50.4843 21.4552 50.2848 21.4552C49.9947 21.4552 49.6864 21.5504 49.3781 21.7245C47.0295 23.0665 44.5177 28.6242 44.3907 28.9162L41.2714 27.1199C41.3983 26.8279 46.2859 22.6168 48.6254 21.2811Z" fill="#70C5AD"/>
<path d="M44.3908 29.0523C44.4054 29.0523 44.419 29.0505 44.4335 29.0459C44.4706 29.0333 44.4997 29.007 44.516 28.9707C44.5405 28.9136 47.0931 23.1872 49.4462 21.8425C49.9386 21.5641 50.4101 21.5124 50.7438 21.7064C50.809 21.7445 50.8916 21.7219 50.9297 21.6575C50.9668 21.5931 50.946 21.5097 50.8807 21.4716L50.1281 21.0282C49.9304 20.9194 49.7327 20.8695 49.5042 20.8749C49.2158 20.8749 48.8975 20.971 48.5593 21.1624C46.2008 22.5089 41.2996 26.7164 41.1482 27.0655C41.121 27.129 41.1455 27.2025 41.2044 27.2369L44.3228 29.0332C44.3437 29.045 44.3673 29.0514 44.3908 29.0514V29.0523ZM50.1017 21.3301C49.8478 21.3609 49.5822 21.4525 49.3101 21.6067C47.0912 22.8744 44.7391 27.83 44.3283 28.7241L41.4764 27.081C42.1348 26.4009 46.451 22.6785 48.6917 21.399C48.9873 21.2322 49.2612 21.1479 49.5042 21.1479C49.6928 21.1451 49.8415 21.1832 49.9912 21.2648L50.1009 21.3292L50.1017 21.3301Z" fill="#155C6D"/>
<path d="M49.3778 21.7256C49.6861 21.5515 49.9854 21.4508 50.2846 21.4563C52.7964 21.4898 51.137 28.6307 51.0554 29.0071L50.3028 28.9962L45.1613 28.9282L44.3996 28.9173C44.5266 28.6253 47.0383 23.0622 49.3778 21.7256Z" fill="#155C6D"/>
<path d="M51.0557 29.1431C51.1191 29.1431 51.1754 29.0986 51.1881 29.0361L51.1989 28.9889C51.5771 27.2878 52.337 23.181 51.237 21.7909C50.9931 21.4835 50.6739 21.3248 50.2858 21.3193C50.2776 21.3193 50.2686 21.3193 50.2613 21.3193C49.9639 21.3193 49.652 21.4136 49.3101 21.6059C46.8527 23.0105 44.3002 28.8039 44.2739 28.862C44.2557 28.9037 44.2593 28.9518 44.2847 28.9898C44.3092 29.0279 44.3509 29.0515 44.3972 29.0524L51.0539 29.1422L51.0557 29.1431ZM50.2622 21.5923H50.2813C50.5887 21.5959 50.8308 21.7165 51.0231 21.9604C52.0631 23.2753 51.2461 27.5036 50.946 28.8701L44.6084 28.7849C45.0727 27.7802 47.3442 23.0449 49.4443 21.8444C49.7436 21.6748 50.0119 21.5923 50.2622 21.5923Z" fill="#155C6D"/>
<path d="M52.6697 43.2637C52.2435 43.4994 51.9079 44.0888 51.9079 44.5604C51.9079 45.0319 52.2526 45.2286 52.6697 44.9929C53.0959 44.7571 53.4314 44.1677 53.4314 43.6962C53.4314 43.2247 53.0868 43.0279 52.6697 43.2637Z" fill="#155C6D"/>
<path d="M52.3323 45.2286C52.4602 45.2286 52.598 45.1896 52.7359 45.1116C53.1938 44.8595 53.5674 44.2239 53.5674 43.6961C53.5674 43.4195 53.4649 43.2074 53.279 43.0995C53.0931 42.9916 52.8456 43.007 52.6026 43.1448C52.1438 43.3987 51.771 44.0334 51.771 44.5603C51.771 44.8369 51.8735 45.049 52.0594 45.1579C52.141 45.205 52.2326 45.2286 52.3323 45.2286ZM53.0052 43.3008C53.0569 43.3008 53.1031 43.3116 53.1421 43.3352C53.2409 43.3923 53.2954 43.522 53.2954 43.697C53.2954 44.1287 52.978 44.6673 52.6035 44.8749C52.4439 44.9647 52.2979 44.981 52.1972 44.9239C52.0984 44.8668 52.044 44.7371 52.044 44.5621C52.044 44.1314 52.3605 43.5918 52.735 43.3842H52.7368C52.832 43.3289 52.9245 43.3017 53.0052 43.3017V43.3008Z" fill="#155C6D"/>
<path d="M52.325 45.368C52.4792 45.368 52.6424 45.3227 52.8057 45.2329C53.3135 44.9518 53.7034 44.2726 53.7034 43.6887C53.7034 43.3631 53.5764 43.0992 53.3406 42.965C53.1139 42.8299 52.8147 42.8471 52.5155 43.0149C52.0168 43.296 51.6178 43.9752 51.6178 44.5592C51.6178 44.8847 51.7538 45.1486 51.9805 45.2837C52.0802 45.3454 52.1981 45.3735 52.325 45.3735V45.368ZM53.0051 43.442C53.0051 43.442 53.0505 43.442 53.0686 43.4592C53.1139 43.4874 53.1502 43.5771 53.1502 43.695C53.1502 44.0704 52.86 44.5646 52.5336 44.7442C52.3976 44.8176 52.316 44.8176 52.2797 44.7949C52.2253 44.7668 52.1981 44.677 52.1981 44.5592C52.1981 44.1828 52.4883 43.6886 52.8057 43.5037C52.8782 43.4592 52.9507 43.4366 53.0051 43.4366V43.442Z" fill="#155C6D"/>
<path d="M52.3251 45.5096C52.3396 45.5096 52.3523 45.5078 52.3659 45.5032C52.5327 45.496 52.7023 45.4461 52.8719 45.3518C53.4241 45.0462 53.8403 44.3307 53.8403 43.6887C53.8403 43.3106 53.6826 43.0032 53.4078 42.8472C53.1394 42.6876 52.7893 42.7058 52.4484 42.8962C51.9061 43.2018 51.4818 43.9327 51.4818 44.5592C51.4818 44.9319 51.6387 45.2384 51.9107 45.4007C52.0268 45.4724 52.1673 45.5096 52.3251 45.5096ZM53.0006 43.0114C53.0995 43.0114 53.192 43.0349 53.2709 43.0821C53.4631 43.1918 53.5674 43.4067 53.5674 43.6887C53.5674 44.231 53.2047 44.8567 52.7404 45.1142C52.6007 45.1913 52.4566 45.2321 52.3251 45.2321C52.3124 45.2321 52.3015 45.233 52.2906 45.2366C52.1981 45.2321 52.1192 45.2094 52.0521 45.1677C51.8617 45.0543 51.7547 44.8331 51.7547 44.5592C51.7547 44.0306 52.1256 43.3904 52.5817 43.1338C52.7259 43.0531 52.87 43.0114 53.0006 43.0114ZM52.3323 44.9455C52.3976 44.9455 52.4847 44.9256 52.598 44.8639C52.9716 44.6581 53.2863 44.1231 53.2863 43.6951C53.2863 43.5319 53.2309 43.4004 53.1403 43.3442C53.1221 43.3242 53.0859 43.3142 53.0523 43.3097C52.9625 43.278 52.8447 43.3206 52.734 43.3877C52.3713 43.599 52.0612 44.1367 52.0612 44.5592C52.0612 44.7868 52.1455 44.8793 52.2163 44.9156C52.2407 44.9319 52.2788 44.9455 52.3323 44.9455ZM52.9898 43.5772C53.0034 43.5999 53.0134 43.6379 53.0134 43.6951C53.0134 44.0179 52.7485 44.4704 52.4674 44.6254C52.3876 44.6681 52.3469 44.6726 52.336 44.6726C52.346 44.6699 52.3333 44.6318 52.3333 44.5592C52.3333 44.2382 52.5953 43.783 52.8728 43.6207C52.9145 43.5962 52.9526 43.5817 52.9798 43.5754C52.9825 43.5754 52.9852 43.5754 52.9888 43.5763L52.9898 43.5772Z" fill="#155C6D"/>
<path d="M47.7913 46.0173C47.3741 46.2531 47.0386 46.8371 47.0386 47.3149C47.0386 47.7928 47.3741 47.9823 47.8003 47.7466C48.2175 47.5108 48.553 46.9214 48.553 46.4498C48.553 45.9783 48.2174 45.7816 47.7913 46.0173Z" fill="#155C6D"/>
<path d="M47.4576 47.9841C47.5854 47.9841 47.7242 47.9451 47.8656 47.8663C48.3199 47.6096 48.689 46.9749 48.689 46.4499C48.689 46.1733 48.5883 45.9611 48.4052 45.8532C48.2211 45.7426 47.9762 45.7589 47.7259 45.8976H47.7242C47.2635 46.1588 46.9026 46.7808 46.9026 47.314C46.9026 47.5915 47.0033 47.8037 47.1856 47.9116C47.2672 47.9596 47.3578 47.9832 47.4576 47.9832V47.9841ZM48.1304 46.0536C48.1821 46.0536 48.2274 46.0654 48.2664 46.0881C48.3625 46.1452 48.4161 46.2739 48.4161 46.4499C48.4161 46.8797 48.1032 47.4192 47.7323 47.6287C47.57 47.7176 47.4213 47.7357 47.3234 47.6776C47.2272 47.6214 47.1747 47.4927 47.1747 47.3149C47.1747 46.8851 47.4875 46.3456 47.8575 46.1361C47.9572 46.0808 48.0506 46.0536 48.1304 46.0536Z" fill="#155C6D"/>
<path d="M47.4561 48.1239C47.6103 48.1239 47.7735 48.0795 47.9367 47.9897C48.4354 47.7086 48.8345 47.0294 48.8345 46.4455C48.8345 46.1199 48.6984 45.856 48.4717 45.7209C48.245 45.5867 47.9458 45.603 47.6556 45.7663C47.1478 46.0528 46.7579 46.7265 46.7579 47.3096C46.7579 47.636 46.8849 47.8999 47.1116 48.0341C47.2113 48.0958 47.3292 48.1239 47.4561 48.1239ZM48.1272 46.1988C48.1272 46.1988 48.1725 46.1988 48.1906 46.2097C48.245 46.2378 48.2723 46.3276 48.2723 46.4455C48.2723 46.8218 47.9821 47.316 47.6647 47.4955C47.5377 47.568 47.4471 47.568 47.4017 47.5463C47.3564 47.5182 47.3292 47.4284 47.3292 47.3096C47.3292 46.9278 47.6103 46.4454 47.9367 46.255C48.0274 46.2097 48.0909 46.187 48.1453 46.187L48.1272 46.1988Z" fill="#155C6D"/>
<path d="M47.4559 48.26C47.6355 48.26 47.8196 48.2092 48.0028 48.1086C48.5468 47.8021 48.9712 47.0712 48.9712 46.4456C48.9712 46.0738 48.8143 45.7664 48.5414 45.604C48.2721 45.4435 47.9229 45.4581 47.5892 45.6476C47.0379 45.9586 46.6217 46.6731 46.6217 47.3097C46.6217 47.6869 46.7749 47.9934 47.0424 48.1512C47.1594 48.2237 47.2991 48.26 47.4559 48.26ZM48.1297 45.7663C48.2285 45.7663 48.3219 45.7899 48.4026 45.838C48.5903 45.9504 48.6982 46.1717 48.6982 46.4456C48.6982 46.9742 48.3273 47.6135 47.8703 47.871C47.6182 48.0097 47.3535 48.0224 47.1821 47.9182C46.9989 47.8093 46.8946 47.5881 46.8946 47.3097C46.8946 46.7729 47.2583 46.1463 47.7225 45.8851C47.8622 45.8063 48.0018 45.7663 48.1297 45.7663ZM47.4696 47.6933C47.5521 47.6933 47.64 47.6661 47.7316 47.6144C48.0916 47.4103 48.408 46.8636 48.408 46.4456C48.408 46.2179 48.3238 46.1255 48.253 46.0892C48.244 46.0837 48.2339 46.0801 48.224 46.0765C48.1451 46.0194 48.0372 46.052 47.8748 46.1336C47.4949 46.3549 47.192 46.8808 47.192 47.3097C47.192 47.482 47.241 47.6071 47.329 47.6615C47.3725 47.6824 47.4196 47.6933 47.4686 47.6933H47.4696ZM48.1369 46.3358C48.1251 46.3395 48.1369 46.3775 48.1369 46.4456C48.1369 46.7675 47.8758 47.2199 47.5983 47.3777C47.5412 47.4104 47.5022 47.4194 47.4795 47.4222C47.4732 47.4013 47.4659 47.3641 47.4659 47.3097C47.4659 46.9787 47.718 46.5407 48.0055 46.3721C48.0191 46.3657 48.0617 46.344 48.1007 46.3313C48.1097 46.3331 48.1179 46.334 48.1261 46.334H48.1369V46.3358Z" fill="#155C6D"/>
<path d="M49.9224 41.8473C47.2293 43.3861 45.053 46.3386 45.053 48.4441C45.053 50.5497 47.2475 51.0158 49.9406 49.4715C52.6338 47.9336 54.8191 44.9856 54.81 42.8747C54.81 40.77 52.6156 40.3039 49.9224 41.8473ZM52.67 44.9802C52.2529 45.216 51.9083 45.031 51.9083 44.5477C51.9083 44.0644 52.2529 43.4867 52.67 43.251C53.0872 43.0152 53.4318 43.2002 53.4318 43.6835C53.4318 44.1668 53.0872 44.7444 52.67 44.9802ZM47.8006 47.7423C47.3835 47.978 47.0389 47.7876 47.0389 47.3097C47.0389 46.8382 47.3744 46.2488 47.7915 46.013C48.2177 45.7773 48.5533 45.9632 48.5533 46.4456C48.5533 46.928 48.2177 47.5065 47.8006 47.7423Z" fill="#70C5AD"/>
<path d="M47.0604 50.5188C47.9119 50.5188 48.9392 50.2023 50.0074 49.5902C52.7396 48.0305 54.9548 45.0182 54.9458 42.8755C54.9458 42.0576 54.6302 41.4428 54.0345 41.0973C53.0787 40.5432 51.5163 40.779 49.8551 41.7302C47.132 43.2853 44.9167 46.2977 44.9167 48.4449C44.9167 49.2638 45.2323 49.8786 45.8281 50.2241C46.1699 50.4217 46.588 50.5188 47.0604 50.5188ZM52.7985 41.071C53.2229 41.071 53.5965 41.1571 53.8984 41.3321C54.4062 41.6259 54.6728 42.16 54.6728 42.8755C54.6819 44.9321 52.5283 47.8374 49.8723 49.3544C48.2981 50.2576 46.8373 50.4943 45.9632 49.9892C45.4554 49.6954 45.1888 49.1613 45.1888 48.4459C45.1888 46.3856 47.3424 43.4794 49.9893 41.9669C51.0185 41.3775 51.9987 41.071 52.7985 41.071ZM47.4603 47.9789C47.589 47.9789 47.7278 47.939 47.8665 47.861C48.3271 47.6007 48.6881 46.9796 48.6881 46.4455C48.6881 46.1662 48.5883 45.954 48.406 45.8461C48.2183 45.7355 47.9771 45.7536 47.7242 45.8933C47.2699 46.1508 46.9008 46.7855 46.9008 47.3096C46.9008 47.588 47.0033 47.8002 47.1882 47.9081C47.2689 47.9553 47.3614 47.9789 47.4603 47.9789ZM48.1358 46.0483C48.1866 46.0483 48.231 46.0592 48.2691 46.0819C48.3634 46.1381 48.416 46.2677 48.416 46.4464C48.416 46.8835 48.1095 47.4121 47.7323 47.6252C47.5754 47.7141 47.4258 47.7331 47.3269 47.6742C47.229 47.617 47.1746 47.4874 47.1746 47.3106C47.1746 46.8816 47.4874 46.3421 47.8583 46.1317C47.9581 46.0764 48.0542 46.0483 48.1358 46.0483ZM52.3288 45.2186C52.4567 45.2186 52.5954 45.1787 52.7368 45.098C53.2029 44.835 53.5684 44.213 53.5684 43.6834C53.5684 43.4041 53.4668 43.191 53.2818 43.0831C53.0941 42.9734 52.8529 42.9906 52.6027 43.1321C52.1366 43.3951 51.772 44.0162 51.772 44.5467C51.772 44.826 51.8736 45.0391 52.0577 45.147C52.1393 45.1941 52.2309 45.2186 52.3288 45.2186ZM53.0107 43.2853C53.0614 43.2853 53.1068 43.2962 53.1449 43.3189C53.2419 43.376 53.2954 43.5057 53.2954 43.6843C53.2954 44.1105 52.978 44.6501 52.6017 44.8623C52.4421 44.9529 52.2925 44.972 52.1946 44.913C52.0976 44.8568 52.0441 44.7262 52.0441 44.5476C52.0441 44.1214 52.3614 43.5818 52.7368 43.3697C52.8347 43.3134 52.9291 43.2853 53.0107 43.2853Z" fill="#155C6D"/>
<path d="M48.1995 40.8523C49.877 39.8975 51.3551 39.7125 52.2347 40.223L53.9575 41.2169C53.0779 40.7118 51.5999 40.8913 49.9223 41.8462C47.2292 43.3841 45.0529 46.3429 45.0529 48.4421C45.0529 49.2401 45.3703 49.8014 45.9053 50.1097L44.1824 49.1159C43.6474 48.813 43.33 48.2517 43.33 47.4546C43.33 45.3491 45.4972 42.3902 48.1995 40.8578V40.8523Z" fill="#70C5AD"/>
<path d="M45.9051 50.2458C45.9522 50.2458 45.9985 50.2213 46.023 50.1778C46.0601 50.1134 46.0384 50.0299 45.9731 49.9919L45.9695 49.9901C45.459 49.6944 45.1896 49.1585 45.1896 48.4422C45.1896 46.382 47.3432 43.4757 49.9901 41.9641C51.5616 41.07 53.0188 40.8351 53.8911 41.3348C53.9564 41.3729 54.0399 41.3502 54.0761 41.2849C54.1133 41.2196 54.0915 41.1371 54.0262 41.099L52.3034 40.1052C51.3512 39.5548 49.7915 39.7887 48.1321 40.7336C48.1212 40.739 48.1131 40.7472 48.1041 40.7545C45.3946 42.3032 43.1938 45.3029 43.1938 47.4538C43.1938 48.2771 43.513 48.8919 44.116 49.2329L45.8371 50.2267C45.858 50.2394 45.8824 50.2448 45.9051 50.2448V50.2458ZM52.7975 40.8079C51.947 40.8079 50.9214 41.1217 49.855 41.7283C47.132 43.2835 44.9167 46.2958 44.9167 48.4431C44.9167 48.8575 44.9983 49.2184 45.1552 49.5203L44.2511 48.998C43.7379 48.7078 43.4668 48.1737 43.4668 47.4547C43.4668 45.3836 45.6204 42.4773 48.2673 40.9757C48.2782 40.9703 48.2863 40.963 48.2954 40.9548C49.8587 40.0725 51.305 39.8404 52.1673 40.3409L52.9853 40.8125C52.9245 40.8098 52.8611 40.8079 52.7985 40.8079H52.7975Z" fill="#155C6D"/>
<path d="M28.6763 3.64259C25.0492 2.04846 22.5102 4.19845 22.9908 8.44855C23.4623 12.6987 26.7993 17.442 30.4264 19.0371C34.0445 20.6312 36.5925 18.4758 36.112 14.2202C35.6314 9.9647 32.2944 5.23128 28.6763 3.63715V3.64259Z" fill="#70C5AD"/>
<path d="M32.6734 19.6989C33.4487 19.6989 34.146 19.4858 34.7236 19.0615C35.9396 18.1674 36.4946 16.3973 36.248 14.2056C35.7638 9.92198 32.3923 5.126 28.7316 3.51283C28.7199 3.50739 28.709 3.50467 28.6963 3.50285C27.0042 2.76926 25.4699 2.81098 24.3727 3.61801C23.1613 4.51029 22.609 6.27671 22.8556 8.46478C23.3308 12.7493 26.7022 17.5489 30.372 19.1621C31.1845 19.5203 31.9625 19.6989 32.6734 19.6989ZM28.6555 3.7776C32.2237 5.36992 35.5035 10.0516 35.976 14.2356C36.2126 16.3284 35.6966 18.0069 34.5613 18.842C33.5367 19.5956 32.0876 19.62 30.4808 18.9128C26.8899 17.334 23.5902 12.6333 23.1259 8.43394C22.8892 6.34561 23.4024 4.66989 24.5341 3.83746C25.557 3.08392 27.0087 3.05943 28.621 3.76763C28.6328 3.77216 28.6437 3.77579 28.6555 3.7776Z" fill="#155C6D"/>
<path d="M24.6594 3.59814L22.6282 4.84497C21.3587 5.63025 20.6967 7.34316 20.9687 9.70624C21.4493 13.9618 24.7772 18.7006 28.4044 20.2948C30.0094 21.0075 31.4058 20.9739 32.4214 20.3455L34.4436 19.0987C33.428 19.7217 32.0406 19.7561 30.4265 19.0488C26.8084 17.4538 23.4806 12.7104 22.9909 8.46032C22.7189 6.09634 23.3899 4.38433 24.6594 3.59814Z" fill="#155C6D"/>
<path d="M30.6477 20.9566C31.3332 20.9566 31.958 20.7916 32.493 20.4615L34.5143 19.2147C34.5777 19.1757 34.5976 19.0914 34.5587 19.0279C34.5188 18.9635 34.4344 18.9445 34.3719 18.9834C33.3472 19.6118 31.9997 19.591 30.4808 18.9254C26.9099 17.3503 23.6102 12.6496 23.1259 8.4457C22.8711 6.22862 23.4551 4.50392 24.731 3.71501C24.7944 3.67602 24.8143 3.5917 24.7754 3.52822C24.7355 3.46384 24.6511 3.44479 24.5886 3.48378L22.5574 4.73061C21.1936 5.57392 20.5661 7.39384 20.8336 9.72337C21.3187 14.0134 24.6901 18.8121 28.3499 20.4207C29.157 20.7789 29.935 20.9575 30.6486 20.9575L30.6477 20.9566ZM33.2593 19.669L32.3498 20.2303C31.3369 20.8569 29.954 20.8351 28.4587 20.1713C24.8778 18.5972 21.5781 13.8964 21.1038 9.69163C20.8481 7.47092 21.4293 5.74622 22.6997 4.96094L23.6319 4.38875C22.9409 5.36536 22.6616 6.78721 22.8557 8.47654C23.3508 12.7656 26.7222 17.5643 30.372 19.1739C31.423 19.6345 32.4005 19.7996 33.2593 19.669Z" fill="#155C6D"/>
<path d="M20.9687 9.70689C20.9052 9.18458 20.9052 8.69039 20.9234 8.23609L22.9546 6.98926C22.9183 7.4499 22.9274 7.93866 22.9909 8.46097C23.0544 9.03859 23.1813 9.628 23.3445 10.212L21.3224 11.4588C21.1591 10.8748 21.0322 10.2854 20.9687 9.70689Z" fill="#70C5AD"/>
<path d="M21.3223 11.5949C21.3468 11.5949 21.3722 11.5885 21.394 11.5749L23.4152 10.3281C23.4669 10.2963 23.4905 10.2338 23.4741 10.1757C23.2982 9.54462 23.184 8.97879 23.125 8.44651C23.0643 7.95141 23.0525 7.46537 23.0888 7.00019C23.0933 6.94941 23.0679 6.90044 23.0244 6.87324C22.9818 6.84694 22.9256 6.84694 22.8829 6.87324L20.8517 8.12007C20.8128 8.14364 20.7892 8.18535 20.7874 8.23069C20.7729 8.59068 20.7629 9.13657 20.8327 9.72235C20.8935 10.2719 21.0104 10.8522 21.1918 11.496C21.2036 11.5368 21.2335 11.5704 21.2734 11.5858C21.2897 11.5922 21.3051 11.5949 21.3223 11.5949ZM23.1858 10.1504L21.4058 11.2485C21.2561 10.6881 21.1573 10.1776 21.1038 9.69243C21.0413 9.16377 21.0458 8.66413 21.0567 8.31502L22.8041 7.2423C22.7877 7.644 22.8058 8.05841 22.8575 8.47825C22.9137 8.99602 23.0226 9.54462 23.1867 10.1504H23.1858Z" fill="#155C6D"/>
<path d="M24.605 13.2664L22.5829 14.5123C22.3199 14.0463 22.0932 13.5584 21.8846 13.0697L23.9158 11.8237C24.1244 12.3116 24.3511 12.7949 24.605 13.2664Z" fill="#70C5AD"/>
<path d="M22.5827 14.6492C22.6072 14.6492 22.6326 14.6428 22.6543 14.6292L24.6756 13.3833C24.7363 13.3452 24.7581 13.2663 24.7236 13.2029C24.4897 12.7676 24.2666 12.2988 24.0399 11.7701C24.0245 11.7339 23.9937 11.7058 23.9565 11.694C23.9166 11.6831 23.8767 11.6867 23.8441 11.7076L21.8129 12.9535C21.7557 12.9889 21.7322 13.0614 21.7585 13.1231C22.006 13.7034 22.2309 14.1659 22.463 14.5794C22.4821 14.612 22.512 14.6356 22.5482 14.6437C22.5591 14.6465 22.57 14.6483 22.5818 14.6483L22.5827 14.6492ZM24.4244 13.2183L22.6317 14.3227C22.4422 13.9764 22.2563 13.5892 22.055 13.1249L23.8513 12.0222C24.0408 12.4557 24.2285 12.8492 24.4235 13.2183H24.4244Z" fill="#155C6D"/>
</svg>
