<svg width="64" height="64" viewBox="0 0 64 64" fill="none" xmlns="http://www.w3.org/2000/svg">
<path d="M43.5704 47.0747L43.5305 47.0516L46.1443 45.5466V53.0577C46.1443 53.127 46.1072 53.1913 46.047 53.2263L43.9631 54.4303C43.7888 54.5311 43.5711 54.4051 43.5711 54.2042V47.0754L43.5704 47.0747Z" fill="#C8DAE8"/>
<path d="M43.8308 54.5709C43.8945 54.5709 43.9575 54.5541 44.0149 54.5212L46.0988 53.3179C46.1912 53.264 46.2493 53.1646 46.2493 53.0582V45.3652L43.3191 47.0515L43.4647 47.1355V54.2034C43.4647 54.3357 43.534 54.4547 43.6488 54.5212C43.7055 54.5541 43.7685 54.5709 43.8315 54.5709H43.8308ZM46.0386 45.7285V53.0582C46.0386 53.0897 46.0218 53.1198 45.9938 53.1359L43.9099 54.3392C43.8616 54.3679 43.8035 54.3686 43.7531 54.3392C43.7041 54.3112 43.6754 54.2601 43.6754 54.2041V47.0893L46.0386 45.7285Z" fill="#155C6D"/>
<path d="M43.5703 54.2726C43.5703 54.4441 43.3841 54.5513 43.2357 54.4645L40.7654 53.0196C40.7003 52.9818 40.6597 52.9118 40.6597 52.8362V45.3994L43.5703 47.0752V54.2726Z" fill="#155C6D"/>
<path d="M43.3477 54.6001C43.4037 54.6001 43.4597 54.5854 43.5101 54.5567C43.613 54.4979 43.6746 54.3915 43.6746 54.2725V47.0142L40.554 45.218V52.8368C40.554 52.9488 40.6149 53.0538 40.7122 53.1105L43.1818 54.5554C43.2336 54.5855 43.2903 54.6008 43.347 54.6008L43.3477 54.6001ZM43.4646 47.1353V54.2718C43.4646 54.3334 43.4233 54.3635 43.4058 54.374C43.3897 54.3838 43.3428 54.4048 43.2889 54.374L40.8186 52.9293C40.785 52.9104 40.7654 52.8746 40.7654 52.8368V45.5813L43.4646 47.1367V47.1353Z" fill="#155C6D"/>
<path d="M46.0372 45.7215L43.9036 46.9619C43.695 47.0837 43.4367 47.0837 43.2274 46.9633L40.769 45.5479C40.622 45.4632 40.6213 45.2504 40.769 45.1657L42.9124 43.9246C43.1217 43.8035 43.3793 43.8035 43.5886 43.9246L46.0379 45.34C46.1849 45.4247 46.1849 45.6368 46.0379 45.7222L46.0372 45.7215Z" fill="#C8DAE8"/>
<path d="M43.564 47.1578C43.6998 47.1578 43.8356 47.1228 43.9567 47.0528L46.0903 45.8124C46.1925 45.7529 46.2527 45.6472 46.2527 45.5296C46.2527 45.412 46.1918 45.307 46.0903 45.2482L43.641 43.8335C43.3995 43.6935 43.0999 43.6949 42.8598 43.8335L40.7164 45.0746C40.6142 45.1334 40.554 45.2384 40.554 45.3567C40.554 45.475 40.6149 45.58 40.7164 45.6388L43.1755 47.0542C43.2959 47.1235 43.4296 47.1578 43.564 47.1578ZM45.9846 45.6304L43.851 46.8708C43.676 46.973 43.4569 46.9737 43.2805 46.8722L40.8214 45.4568C40.7689 45.4267 40.7633 45.3763 40.7633 45.356C40.7633 45.3357 40.7689 45.286 40.8214 45.2559L42.9648 44.0148C43.1405 43.9126 43.3582 43.9126 43.5353 44.0148L45.9846 45.4295C46.0364 45.4596 46.0427 45.5093 46.0427 45.5296C46.0427 45.5499 46.0371 45.5996 45.9846 45.6304Z" fill="#155C6D"/>
<path d="M43.9036 54.4575C43.695 54.5793 43.4367 54.5793 43.2274 54.4589V46.9633C43.4367 47.0837 43.695 47.083 43.9036 46.9619V54.4575Z" fill="#C8DAE8"/>
<path d="M43.5645 54.6536C43.6996 54.6536 43.8354 54.6186 43.9565 54.5486L44.009 54.5185V46.78L43.8508 46.8717C43.6758 46.9739 43.4567 46.9746 43.2803 46.8731L43.1221 46.7828V54.5199L43.1746 54.55C43.295 54.6193 43.4294 54.6536 43.5645 54.6536ZM43.7976 54.3939C43.6506 54.4604 43.4791 54.4604 43.3321 54.3946V47.123C43.4833 47.1699 43.6464 47.1692 43.7976 47.1223V54.3939Z" fill="#155C6D"/>
<path d="M43.9517 23.1281L43.8201 23.0518L52.3867 18.1196V42.5965C52.3867 42.9129 52.218 43.2055 51.9436 43.3637L45.2376 47.2375C44.6664 47.5679 43.9517 47.1549 43.9517 46.4955V23.1281Z" fill="#C8DAE8"/>
<path d="M44.8085 47.4596C44.9737 47.4596 45.1389 47.4161 45.2901 47.3286L51.9968 43.4548C52.3027 43.2784 52.4924 42.9494 52.4924 42.5966V17.9377L52.3342 18.028L43.6101 23.0512L43.846 23.1877V46.4949C43.846 46.8428 44.0266 47.1543 44.3276 47.3286C44.4788 47.4154 44.6433 47.4588 44.8092 47.4588L44.8085 47.4596ZM52.2817 18.301V42.5966C52.2817 42.8745 52.1326 43.1342 51.8911 43.2728L45.1844 47.1466C44.9492 47.2824 44.6678 47.2824 44.4326 47.1466C44.1967 47.0108 44.0567 46.7672 44.0567 46.4949V23.0666L44.0301 23.0519L52.2817 18.301Z" fill="#155C6D"/>
<path d="M43.9519 46.7209C43.9519 47.2837 43.3408 47.6337 42.8557 47.3495L34.7588 42.6127C34.5446 42.4888 34.4123 42.2598 34.4123 42.012V17.6353L43.9519 23.1275V46.7209Z" fill="#155C6D"/>
<path d="M43.2225 47.5559C43.3653 47.5559 43.5074 47.5188 43.6376 47.4439C43.9001 47.2934 44.0569 47.0232 44.0569 46.7208V23.0664L44.0044 23.0363L34.3066 17.4531V42.0112C34.3066 42.2961 34.4599 42.5607 34.7056 42.7028L42.8011 47.4397C42.9327 47.5167 43.0783 47.5552 43.2225 47.5552V47.5559ZM43.8462 23.1882V46.7208C43.8462 46.9469 43.7293 47.1492 43.5333 47.2612C43.3387 47.3739 43.1056 47.3725 42.9075 47.2591L34.812 42.5222C34.6293 42.4172 34.5173 42.2219 34.5173 42.0119V17.8164L43.8462 23.1882Z" fill="#155C6D"/>
<path d="M52.0382 18.6916L45.0438 22.7579C44.3592 23.1562 43.5136 23.1576 42.8269 22.7628L34.7685 18.1232C34.2855 17.8453 34.2848 17.1488 34.7671 16.8695L41.7923 12.8018C42.4776 12.4049 43.3232 12.4042 44.0085 12.8004L52.0361 17.4386C52.5177 17.7165 52.5184 18.4116 52.0375 18.6909L52.0382 18.6916Z" fill="#70C5AD"/>
<path d="M43.9315 23.1618C44.3347 23.1618 44.7372 23.0575 45.0963 22.8489L52.0914 18.7826C52.3497 18.6321 52.5037 18.364 52.5037 18.0651C52.5037 17.7662 52.3483 17.4981 52.0893 17.3483L44.0617 12.7101C43.3449 12.2957 42.4552 12.2964 41.7398 12.7108L34.7153 16.7792C34.4563 16.929 34.3016 17.1971 34.3016 17.4967C34.3016 17.7963 34.457 18.0651 34.7167 18.2149L42.7751 22.8538C43.1328 23.0596 43.5325 23.1618 43.9315 23.1618ZM51.9864 18.6006L44.9913 22.6669C44.3396 23.0456 43.5318 23.047 42.8801 22.6718L34.8217 18.0329C34.6278 17.9209 34.5116 17.7207 34.5116 17.4967C34.5116 17.2727 34.6271 17.0732 34.8203 16.9612L41.8448 12.8928C42.4944 12.5162 43.3043 12.5148 43.9567 12.8921L51.9843 17.5303C52.1775 17.6423 52.293 17.8425 52.2937 18.0658C52.2937 18.2891 52.1789 18.4893 51.9864 18.6013V18.6006Z" fill="#155C6D"/>
<path d="M45.0437 47.3271C44.3591 47.7254 43.5135 47.7268 42.8268 47.332V22.7627C43.5135 23.1582 44.3584 23.1561 45.0437 22.7578V47.3271Z" fill="#C8DAE8"/>
<path d="M43.9314 47.7312C44.3346 47.7312 44.7371 47.6268 45.0962 47.4182L45.1487 47.3881V22.5759L44.9905 22.6676C44.3388 23.0463 43.531 23.0477 42.8793 22.6725L42.7211 22.5823V47.3938L42.7736 47.4238C43.1313 47.6296 43.531 47.7318 43.93 47.7318L43.9314 47.7312ZM44.938 47.2656C44.3157 47.6051 43.5569 47.6066 42.9325 47.2699V22.9364C43.5653 23.2388 44.3066 23.2367 44.938 22.9329V47.2656Z" fill="#155C6D"/>
<path d="M43.5704 12.9903L43.5305 12.9672L46.1443 11.4622V18.9732C46.1443 19.0425 46.1072 19.1069 46.047 19.1419L43.9631 20.3459C43.7888 20.4467 43.5711 20.3207 43.5711 20.1198V12.991L43.5704 12.9903Z" fill="#C8DAE8"/>
<path d="M43.8315 20.4864C43.8945 20.4864 43.9575 20.4703 44.0149 20.4367L46.0988 19.2327C46.1912 19.1788 46.2493 19.0794 46.2493 18.973V11.28L43.3191 12.9663L43.4647 13.0503V20.1182C43.4647 20.2505 43.534 20.3695 43.6481 20.4353C43.7055 20.4689 43.7692 20.485 43.8322 20.485L43.8315 20.4864ZM46.0386 11.6433V18.973C46.0386 19.0045 46.0218 19.0346 45.9938 19.0507L43.9099 20.2547C43.8602 20.2834 43.8021 20.2827 43.7531 20.2547C43.7041 20.2267 43.6754 20.1756 43.6754 20.1196V13.0048L46.0386 11.6433Z" fill="#155C6D"/>
<path d="M43.5703 20.1877C43.5703 20.3592 43.3841 20.4663 43.2357 20.3795L40.7654 18.9347C40.7003 18.8969 40.6597 18.8269 40.6597 18.7513V11.3145L43.5703 12.9903V20.1877Z" fill="#155C6D"/>
<path d="M43.3477 20.5159C43.4037 20.5159 43.4597 20.5012 43.5101 20.4725C43.613 20.4137 43.6746 20.3073 43.6746 20.1883V12.93L40.554 11.1338V18.7526C40.554 18.8646 40.6149 18.9696 40.7122 19.0263L43.1818 20.4711C43.2336 20.5012 43.2903 20.5159 43.347 20.5159H43.3477ZM43.4646 13.0511V20.1876C43.4646 20.2492 43.4233 20.2793 43.4058 20.2898C43.3897 20.3003 43.3421 20.3192 43.2882 20.2898L40.8186 18.845C40.785 18.8261 40.7654 18.7904 40.7654 18.7526V11.4971L43.4646 13.0525V13.0511Z" fill="#155C6D"/>
<path d="M46.0372 11.6363L43.9036 12.8767C43.695 12.9985 43.4367 12.9985 43.2274 12.8781L40.769 11.4627C40.622 11.378 40.6213 11.1652 40.769 11.0805L42.9124 9.83936C43.1217 9.71826 43.3793 9.71826 43.5886 9.83936L46.0379 11.2548C46.1849 11.3395 46.1849 11.5516 46.0379 11.637L46.0372 11.6363Z" fill="#70C5AD"/>
<path d="M43.564 13.0735C43.6998 13.0735 43.8356 13.0386 43.9567 12.9686L46.0903 11.7281C46.1925 11.6686 46.2527 11.5629 46.2527 11.4453C46.2527 11.3277 46.1918 11.2227 46.0903 11.1639L43.641 9.74925C43.3995 9.60925 43.0999 9.61065 42.8598 9.74925L40.7164 10.9904C40.6142 11.0492 40.554 11.1541 40.554 11.2724C40.554 11.3907 40.6149 11.4957 40.7164 11.5545L43.1755 12.97C43.2959 13.0393 43.4289 13.0735 43.564 13.0735ZM43.2497 9.85423C43.3484 9.85423 43.4464 9.87943 43.5346 9.93053L45.9839 11.3452C46.0357 11.3753 46.042 11.425 46.042 11.4453C46.042 11.4656 46.0364 11.5153 45.9839 11.5461L43.8503 12.7865C43.6739 12.8887 43.4562 12.8902 43.2798 12.788L40.8207 11.3725C40.7682 11.3424 40.7626 11.292 40.7626 11.2717C40.7626 11.2514 40.7682 11.2017 40.8207 11.1716L42.9641 9.93053C43.0523 9.87943 43.151 9.85423 43.2497 9.85423Z" fill="#155C6D"/>
<path d="M43.9036 20.373C43.695 20.4948 43.4367 20.4948 43.2274 20.3744V12.8789C43.4367 12.9993 43.695 12.9985 43.9036 12.8774V20.373Z" fill="#C8DAE8"/>
<path d="M43.5645 20.569C43.6996 20.569 43.8354 20.534 43.9565 20.464L44.009 20.4339V12.696L43.8508 12.787C43.6744 12.8892 43.4567 12.8907 43.2803 12.7885L43.1221 12.6975V20.4353L43.1746 20.4653C43.295 20.5346 43.4294 20.569 43.5645 20.569ZM43.7976 20.3085C43.6506 20.375 43.4791 20.3751 43.3321 20.3093V13.0377C43.4833 13.0853 43.6464 13.0846 43.7976 13.0377V20.3085Z" fill="#155C6D"/>
<path d="M20.1812 40.8245L20.1413 40.8014L22.7551 39.2964V46.8074C22.7551 46.8767 22.718 46.9411 22.6578 46.9761L20.5739 48.1801C20.3996 48.2809 20.1819 48.1549 20.1819 47.954V40.8252L20.1812 40.8245Z" fill="#C8DAE8"/>
<path d="M20.4423 48.3207C20.506 48.3207 20.569 48.304 20.6264 48.2711L22.7103 47.0678C22.8027 47.0146 22.8601 46.9144 22.8601 46.808V39.1157L19.9306 40.802L20.0762 40.886V47.9546C20.0762 48.0869 20.1455 48.2059 20.2603 48.2724C20.317 48.3053 20.38 48.3221 20.443 48.3221L20.4423 48.3207ZM22.6494 39.4776V46.8073C22.6494 46.8395 22.6326 46.8689 22.6053 46.885L20.5214 48.0884C20.4731 48.1171 20.415 48.1178 20.3646 48.0884C20.3156 48.0604 20.2869 48.0093 20.2869 47.9533V40.8384L22.6494 39.4776Z" fill="#155C6D"/>
<path d="M20.1812 48.0216C20.1812 48.1931 19.995 48.3002 19.8466 48.2134L17.3763 46.7687C17.3112 46.7309 17.2706 46.6609 17.2706 46.5853V39.1484L20.1812 40.8243V48.0224V48.0216Z" fill="#155C6D"/>
<path d="M19.9592 48.3499C20.0145 48.3499 20.0705 48.3352 20.1209 48.3065C20.2238 48.2477 20.2861 48.1413 20.2861 48.0223V40.7632L17.1648 38.967V46.5851C17.1648 46.6985 17.2257 46.8036 17.3244 46.8596L19.7933 48.3037C19.8451 48.3338 19.9018 48.3491 19.9585 48.3491L19.9592 48.3499ZM20.0761 40.885V48.0223C20.0761 48.0832 20.0348 48.114 20.0173 48.1245C19.9991 48.135 19.9515 48.1546 19.9004 48.1245L17.4301 46.6796C17.3958 46.66 17.3762 46.625 17.3762 46.5872V39.3317L20.0761 40.8864V40.885Z" fill="#155C6D"/>
<path d="M22.6486 39.4705L20.515 40.7109C20.3064 40.8327 20.0481 40.8327 19.8388 40.7123L17.3804 39.2969C17.2334 39.2122 17.2327 38.9994 17.3804 38.9147L19.5238 37.6736C19.7331 37.5525 19.9907 37.5525 20.2 37.6736L22.6493 39.089C22.7963 39.1737 22.7963 39.3858 22.6493 39.4712L22.6486 39.4705Z" fill="#C8DAE8"/>
<path d="M20.1755 40.9075C20.3106 40.9075 20.4471 40.8725 20.5675 40.8025L22.7011 39.5621C22.8033 39.5033 22.8635 39.3976 22.8628 39.28C22.8628 39.1624 22.8019 39.0574 22.7004 38.9986L20.2518 37.5832C20.011 37.4446 19.7121 37.4439 19.4699 37.5832L17.3265 38.8243C17.2243 38.8838 17.1641 38.9895 17.1641 39.1071C17.1641 39.2247 17.2257 39.3297 17.3279 39.3885L19.7856 40.8039C19.906 40.8732 20.0411 40.9075 20.1762 40.9075H20.1755ZM22.5954 39.3801L20.4618 40.6205C20.2854 40.7234 20.0656 40.7227 19.8906 40.6219L17.4322 39.2065C17.3797 39.1764 17.3741 39.1267 17.3734 39.1064C17.3734 39.0868 17.379 39.0364 17.4315 39.0056L19.5749 37.7645C19.752 37.6623 19.9704 37.6623 20.1461 37.7645L22.5947 39.1799C22.6472 39.21 22.6528 39.2597 22.6528 39.28C22.6528 39.3003 22.6472 39.35 22.5954 39.3801Z" fill="#155C6D"/>
<path d="M20.5142 48.2072C20.3056 48.329 20.0473 48.3291 19.838 48.2087V40.7131C20.0473 40.8335 20.3056 40.8328 20.5142 40.7117V48.2072Z" fill="#C8DAE8"/>
<path d="M20.1747 48.4031C20.3105 48.4031 20.4463 48.3681 20.5674 48.2981L20.6199 48.268V40.5295L20.4617 40.6212C20.2853 40.7241 20.0655 40.7234 19.8905 40.6226L19.7323 40.5324V48.2702L19.7848 48.3003C19.9052 48.3696 20.0396 48.4031 20.1747 48.4031ZM20.4092 48.1428C20.2622 48.2093 20.09 48.2093 19.943 48.1435V40.8719C20.0935 40.9188 20.2573 40.9188 20.4092 40.8719V48.1428Z" fill="#155C6D"/>
<path d="M20.5626 32.9101L20.431 32.8338L28.9976 27.9016V36.3457C28.9976 36.6621 28.8289 36.9547 28.5545 37.1129L21.8485 40.9867C21.2773 41.3171 20.5626 40.9041 20.5626 40.2447V32.9101Z" fill="#C8DAE8"/>
<path d="M21.4201 41.2092C21.5853 41.2092 21.7505 41.1658 21.9017 41.0783L28.6077 37.2045C28.9136 37.0281 29.1033 36.6991 29.1033 36.3463V27.7202L28.9451 27.8105L20.221 32.8337L20.4576 32.9702V40.2446C20.4576 40.5925 20.6375 40.904 20.9392 41.0776C21.0897 41.1644 21.2549 41.2085 21.4208 41.2085L21.4201 41.2092ZM28.8926 28.0835V36.3463C28.8926 36.6242 28.7435 36.8839 28.502 37.0225L21.796 40.8963C21.5608 41.0321 21.2794 41.0321 21.0442 40.8963C20.8083 40.7605 20.6683 40.5169 20.6683 40.2446V32.8491L20.641 32.8337L28.8926 28.0835Z" fill="#155C6D"/>
<path d="M20.5627 40.4708C20.5627 41.0336 19.9516 41.3837 19.4665 41.0995L11.3696 36.3625C11.1554 36.2386 11.0231 36.0098 11.0231 35.762V27.4172L20.5627 32.9094V40.4701V40.4708Z" fill="#155C6D"/>
<path d="M19.8338 41.3053C19.9759 41.3053 20.118 41.2683 20.2482 41.1934C20.5107 41.0429 20.6682 40.7726 20.6682 40.4702V32.8486L20.6157 32.8186L10.9179 27.2354V35.7613C10.9179 36.0462 11.0712 36.3109 11.3169 36.453L19.4124 41.1892C19.544 41.2662 19.6889 41.3053 19.8338 41.3053ZM20.4575 32.9712V40.471C20.4575 40.6971 20.3406 40.8994 20.1446 41.0121C19.9486 41.1241 19.7162 41.1241 19.5195 41.0093L11.4233 36.2724C11.2406 36.1674 11.1286 35.9721 11.1286 35.7621V27.5986L20.4575 32.9704V32.9712Z" fill="#155C6D"/>
<path d="M28.6497 28.4735L21.6553 32.5399C20.9707 32.9382 20.1251 32.9396 19.4384 32.5448L11.38 27.9052C10.897 27.6273 10.8963 26.9308 11.3786 26.6515L18.4038 22.5837C19.0891 22.1868 19.9347 22.1862 20.62 22.5824L28.6476 27.2206C29.1292 27.4985 29.1299 28.1936 28.649 28.4729L28.6497 28.4735Z" fill="#70C5AD"/>
<path d="M20.5423 32.9438C20.9455 32.9438 21.3487 32.8395 21.7078 32.6309L28.7022 28.5646C28.9605 28.4141 29.1152 28.146 29.1152 27.8471C29.1152 27.5482 28.9598 27.2801 28.7008 27.1303L20.6725 22.4921C19.9578 22.0784 19.0674 22.0784 18.3513 22.4928L11.3261 26.5612C11.0671 26.7117 10.9124 26.9798 10.9124 27.2794C10.9124 27.579 11.0685 27.8471 11.3282 27.9962L19.3859 32.6351C19.7436 32.8402 20.1433 32.9431 20.5423 32.9431V32.9438ZM19.5126 22.392C19.8773 22.392 20.242 22.4858 20.5675 22.6741L28.5958 27.3123C28.789 27.4243 28.9045 27.6238 28.9045 27.8478C28.9045 28.0704 28.7897 28.2706 28.5972 28.3833L21.6028 32.4496C20.9525 32.8276 20.144 32.8297 19.4909 32.4545L11.4332 27.8156C11.2393 27.7036 11.1231 27.5034 11.1231 27.2801C11.1231 27.0561 11.2379 26.8559 11.4311 26.7439L18.4563 22.6755C18.7825 22.4865 19.1472 22.3927 19.5126 22.3927V22.392Z" fill="#155C6D"/>
<path d="M21.6553 41.0763C20.9707 41.4746 20.1251 41.476 19.4384 41.0812V32.5447C20.1251 32.9402 20.97 32.9381 21.6553 32.5398V41.0763Z" fill="#C8DAE8"/>
<path d="M20.543 41.4803C20.9462 41.4803 21.3487 41.376 21.7078 41.1674L21.7603 41.1373V32.3579L21.6021 32.4496C20.9518 32.8276 20.1433 32.8297 19.4902 32.4545L19.332 32.3642V41.1429L19.3845 41.173C19.7422 41.3788 20.1419 41.481 20.5416 41.481L20.543 41.4803ZM21.5496 41.0155C20.928 41.3543 20.1685 41.3564 19.5434 41.0197V32.7191C20.1762 33.0215 20.9182 33.0194 21.5496 32.7156V41.0155Z" fill="#155C6D"/>
<path d="M20.1812 22.772L20.1413 22.7489L22.7551 21.2439V28.7549C22.7551 28.8242 22.718 28.8886 22.6578 28.9236L20.5739 30.1276C20.3996 30.2284 20.1819 30.1024 20.1819 29.9015V22.7727L20.1812 22.772Z" fill="#C8DAE8"/>
<path d="M20.443 30.2682C20.506 30.2682 20.569 30.2521 20.6264 30.2185L22.7103 29.0145C22.8027 28.9613 22.8601 28.8619 22.8601 28.7548V21.0625L19.9306 22.7488L20.0762 22.8328V29.9007C20.0762 30.033 20.1455 30.152 20.2596 30.2178C20.317 30.2514 20.3807 30.2675 20.4437 30.2675L20.443 30.2682ZM22.6494 21.4258V28.7555C22.6494 28.787 22.6326 28.8171 22.6053 28.8332L20.5214 30.0372C20.4717 30.0659 20.4136 30.0652 20.3646 30.0372C20.3156 30.0092 20.2869 29.9581 20.2869 29.9021V22.7873L22.6494 21.4265V21.4258Z" fill="#155C6D"/>
<path d="M20.1812 29.9701C20.1812 30.1416 19.995 30.2487 19.8466 30.1619L17.3763 28.7171C17.3112 28.6793 17.2706 28.6093 17.2706 28.5337V21.0969L20.1812 22.7727V29.9708V29.9701Z" fill="#155C6D"/>
<path d="M19.9592 30.2978C20.0145 30.2978 20.0705 30.2831 20.1216 30.2537C20.2245 30.1949 20.2861 30.0885 20.2861 29.9702V22.7112L17.1648 20.915V28.5338C17.1648 28.6465 17.2257 28.7515 17.3237 28.8082L19.7933 30.2531C19.8451 30.2832 19.9018 30.2985 19.9585 30.2985L19.9592 30.2978ZM20.0761 22.833V29.9702C20.0761 30.0311 20.0348 30.0612 20.0173 30.0717C20.0005 30.0822 19.9515 30.1018 19.9004 30.0717L17.4301 28.6269C17.3965 28.6073 17.3762 28.5723 17.3762 28.5345V21.2791L20.0761 22.8344V22.833Z" fill="#155C6D"/>
<path d="M22.6486 21.4189L20.515 22.6594C20.3064 22.7812 20.0481 22.7812 19.8388 22.6608L17.3804 21.2454C17.2334 21.1607 17.2327 20.9479 17.3804 20.8632L19.5238 19.6221C19.7331 19.501 19.9907 19.501 20.2 19.6221L22.6493 21.0375C22.7963 21.1222 22.7963 21.3343 22.6493 21.4197L22.6486 21.4189Z" fill="#70C5AD"/>
<path d="M20.1748 22.8553C20.3106 22.8553 20.4464 22.8203 20.5675 22.7503L22.7011 21.5099C22.8033 21.4511 22.8628 21.3461 22.8628 21.2285C22.8628 21.1109 22.8019 21.0052 22.7004 20.9457L20.2518 19.531C20.0103 19.391 19.7114 19.3924 19.4699 19.531L17.3265 20.7721C17.2243 20.8309 17.1641 20.9366 17.1641 21.0549C17.1641 21.1725 17.2257 21.2782 17.3279 21.3363L19.7856 22.7517C19.906 22.821 20.0397 22.8553 20.1748 22.8553ZM19.8612 19.636C19.9599 19.636 20.0579 19.6612 20.1461 19.7123L22.5947 21.127C22.6472 21.1571 22.6528 21.2075 22.6528 21.2278C22.6528 21.2474 22.6472 21.2971 22.5954 21.3272L20.4618 22.5676C20.2854 22.6698 20.0656 22.6705 19.8906 22.569L17.4322 21.1536C17.3797 21.1235 17.3741 21.0738 17.3734 21.0535C17.3734 21.0332 17.3797 20.9828 17.4315 20.9527L19.5749 19.7116C19.6631 19.6605 19.7625 19.636 19.8612 19.636Z" fill="#155C6D"/>
<path d="M20.5142 30.155C20.3056 30.2768 20.0473 30.2768 19.838 30.1564V22.6608C20.0473 22.7812 20.3056 22.7805 20.5142 22.6594V30.155Z" fill="#C8DAE8"/>
<path d="M20.1747 30.3509C20.3105 30.3509 20.4463 30.316 20.5674 30.246L20.6199 30.2158V22.478L20.4617 22.569C20.2853 22.6712 20.0655 22.6719 19.8905 22.5704L19.7323 22.4802V30.2179L19.7855 30.2481C19.9059 30.3167 20.0396 30.3509 20.1747 30.3509ZM20.4092 30.0905C20.2622 30.157 20.0914 30.157 19.943 30.0919V22.8203C20.0942 22.8672 20.258 22.8672 20.4092 22.8203V30.0913V30.0905Z" fill="#155C6D"/>
</svg>
