<svg width="64" height="64" viewBox="0 0 64 64" fill="none" xmlns="http://www.w3.org/2000/svg">
<path d="M48.3661 43.5381L49.8004 47.8438L45.3918 45.2151L48.3661 43.5381Z" fill="#155C6D"/>
<path d="M49.8007 47.98C49.7772 47.98 49.7529 47.9737 49.7312 47.9611L45.3227 45.3323C45.2812 45.308 45.2568 45.2629 45.2568 45.2142C45.2568 45.1664 45.2839 45.1212 45.3263 45.0978L48.3005 43.4208C48.3348 43.401 48.3772 43.3982 48.4151 43.4127C48.453 43.4271 48.4818 43.4578 48.4954 43.4966L49.9297 47.8023C49.9477 47.8564 49.9297 47.915 49.8855 47.9502C49.8612 47.9701 49.8305 47.98 49.8007 47.98ZM45.6619 45.2187L49.5571 47.5416L48.2897 43.7374L45.6619 45.2187Z" fill="#155C6D"/>
<path d="M13.1041 47.16L11.8809 51.0697L15.4974 48.588L13.1041 47.16Z" fill="#70C5AD"/>
<path d="M11.8817 51.2041C11.8537 51.2041 11.8258 51.1951 11.8014 51.1779C11.7545 51.1437 11.7356 51.0841 11.7518 51.0282L12.9741 47.1194C12.9868 47.0806 13.0165 47.0481 13.0553 47.0337C13.0941 47.0193 13.1383 47.022 13.1735 47.0436L15.5668 48.4716C15.6065 48.4951 15.6308 48.5375 15.6326 48.5835C15.6326 48.6295 15.6119 48.6737 15.574 48.699L11.9575 51.1806C11.9349 51.1969 11.9079 51.2041 11.8817 51.2041ZM13.1816 47.3639L12.1271 50.7359L15.2465 48.5952L13.1816 47.3639Z" fill="#155C6D"/>
<path d="M31.5593 36.8752L35.4392 39.1647L35.4483 35.3795L31.5593 33.0792V36.8752Z" fill="#70C5AD"/>
<path d="M35.4392 39.3C35.4158 39.3 35.3914 39.2937 35.3707 39.2811L31.4898 36.9916C31.4483 36.9672 31.4231 36.923 31.4231 36.8752V33.0792C31.4231 33.0304 31.4502 32.9853 31.4926 32.9619C31.535 32.9375 31.5864 32.9375 31.6279 32.9628L35.5168 35.2631C35.5583 35.2875 35.5836 35.3317 35.5836 35.3795L35.5745 39.1647C35.5745 39.2134 35.5484 39.2576 35.506 39.282C35.4852 39.2937 35.4618 39.3 35.4392 39.3ZM31.6946 36.7985L35.3048 38.9284L35.3129 35.4571L31.6955 33.3173V36.7985H31.6946Z" fill="#155C6D"/>
<path d="M44.8613 34.2582V38.2689L39.2123 41.6346L31.8296 37.227V28.4676L33.484 27.4816L44.8613 34.2582Z" fill="#155C6D"/>
<path d="M39.2124 41.7699C39.189 41.7699 39.1646 41.7636 39.143 41.751L31.7602 37.3424C31.7196 37.3181 31.6943 37.2739 31.6943 37.2261V28.4667C31.6943 28.4189 31.7196 28.3747 31.7602 28.3503L33.4146 27.3643C33.4588 27.3391 33.5094 27.3391 33.5536 27.3643L44.9308 34.1409C44.9714 34.1652 44.9967 34.2094 44.9967 34.2573V38.2689C44.9967 38.3167 44.9714 38.3609 44.9308 38.3853L39.281 41.751C39.2593 41.7636 39.2359 41.7699 39.2124 41.7699ZM31.9659 37.1503L39.2124 41.4776L44.726 38.1922V34.3348L33.4841 27.6395L31.965 28.5443L31.9659 37.1503Z" fill="#155C6D"/>
<path d="M31.8296 33.2045L39.2015 37.6194L44.8613 34.2582L36.995 29.5555L31.8296 32.6371V33.2045Z" fill="#155C6D"/>
<path d="M39.2016 37.7547C39.1781 37.7547 39.1529 37.7484 39.1321 37.7358L31.7602 33.3209C31.7196 33.2965 31.6943 33.2523 31.6943 33.2045V32.638C31.6943 32.5902 31.7196 32.546 31.7602 32.5216L36.9256 29.4392C36.9698 29.4139 37.0221 29.4139 37.0645 29.4392L44.9317 34.1418C44.9723 34.1662 44.9976 34.2104 44.9976 34.2582C44.9976 34.306 44.9723 34.3502 44.9308 34.3746L39.2711 37.7358C39.2503 37.7484 39.225 37.7547 39.2016 37.7547ZM31.9659 33.1279L39.2016 37.4615L44.597 34.2573L36.9942 29.7125L31.965 32.7138V33.127L31.9659 33.1279Z" fill="#155C6D"/>
<path d="M38.34 37.1025L31.8296 33.2163V28.4685L33.484 27.4825L44.1342 33.8279C44.0539 33.8622 43.9853 33.9298 43.9339 33.9975C43.8816 34.0769 43.8491 34.1671 43.841 34.2582C43.8491 34.3493 43.8825 34.4395 43.9366 34.5072C43.9908 34.5866 44.0647 34.6434 44.1486 34.6768L40.091 37.1016C39.9818 36.9654 39.8447 36.8752 39.6923 36.8066C39.5398 36.7498 39.3747 36.7272 39.2114 36.739C39.0464 36.7272 38.8786 36.7507 38.7252 36.8066C38.5755 36.8743 38.4438 36.9762 38.3409 37.1016L38.34 37.1025Z" fill="#70C5AD"/>
<path d="M38.3401 37.2369C38.3166 37.2369 38.2923 37.2306 38.2706 37.2179L31.7602 33.3317C31.7196 33.3073 31.6943 33.2631 31.6943 33.2153V28.4667C31.6943 28.4189 31.7196 28.3747 31.7602 28.3503L33.4146 27.3643C33.4588 27.3391 33.5094 27.3391 33.5536 27.3643L44.2046 33.7106C44.2479 33.7367 44.2732 33.7855 44.2696 33.836C44.266 33.8874 44.2344 33.9316 44.1875 33.9514C44.1397 33.9713 44.0883 34.0164 44.0422 34.0777C44.0071 34.1319 43.9827 34.2004 43.9755 34.2699C43.9818 34.3114 44.0053 34.3754 44.0422 34.4205C44.0864 34.4846 44.137 34.5252 44.1992 34.5504C44.247 34.5694 44.2804 34.6136 44.284 34.665C44.2885 34.7164 44.2633 34.7651 44.2191 34.7922L40.1614 37.217C40.1028 37.2513 40.0297 37.2378 39.9873 37.1864C39.8998 37.079 39.7889 36.9978 39.6373 36.9293C39.5128 36.8842 39.3676 36.8661 39.2205 36.8733C39.0564 36.8652 38.9048 36.8851 38.7722 36.9329C38.6513 36.9888 38.5349 37.0772 38.4447 37.1873C38.4186 37.2197 38.3798 37.236 38.341 37.236L38.3401 37.2369ZM31.9659 33.1387L38.3148 36.9293C38.4168 36.8273 38.5377 36.7434 38.6694 36.6839C38.848 36.619 39.0347 36.5937 39.2205 36.6045C39.3856 36.5928 39.5723 36.619 39.7392 36.6803C39.8935 36.7489 40.0171 36.8309 40.1172 36.9293L43.897 34.6704C43.8709 34.6443 43.8465 34.6154 43.8257 34.5838C43.7617 34.5044 43.7166 34.3899 43.7058 34.2699C43.7175 34.131 43.7572 34.0191 43.8212 33.9226C43.8402 33.8964 43.8645 33.8676 43.8907 33.8396L33.4841 27.6386L31.965 28.5434V33.1378L31.9659 33.1387Z" fill="#155C6D"/>
<path d="M31.8296 33.2045L35.7185 35.504L41.3675 32.15L36.995 29.5555L31.8296 32.6371V33.2045Z" fill="#C8DAE8"/>
<path d="M35.7186 35.6393C35.6951 35.6393 35.6708 35.633 35.65 35.6204L31.7611 33.32C31.7196 33.2957 31.6943 33.2515 31.6943 33.2037V32.6372C31.6943 32.5893 31.7196 32.5451 31.7602 32.5208L36.9256 29.4383C36.9698 29.4131 37.0212 29.4131 37.0636 29.4383L41.437 32.0327C41.4785 32.0571 41.5037 32.1013 41.5037 32.1491C41.5037 32.1969 41.4785 32.2411 41.437 32.2655L35.7872 35.6195C35.7664 35.6321 35.742 35.6393 35.7186 35.6393ZM31.9659 33.127L35.7186 35.3471L41.1032 32.15L36.9951 29.7126L31.9659 32.7147V33.127Z" fill="#155C6D"/>
<path d="M38.3457 32.371V42.0487L32.6967 45.4135L25.314 41.0059V26.5804L26.9684 25.5953L38.3457 32.371Z" fill="#155C6D"/>
<path d="M32.6968 45.5488C32.6733 45.5488 32.649 45.5425 32.6273 45.5299L25.2446 41.1222C25.204 41.0979 25.1787 41.0537 25.1787 41.0058V26.5804C25.1787 26.5326 25.204 26.4884 25.2446 26.464L26.8981 25.4781C26.9423 25.4528 26.9928 25.4528 27.037 25.4781L38.4143 32.2546C38.4549 32.279 38.4801 32.3232 38.4801 32.371V42.0487C38.4801 42.0965 38.4549 42.1407 38.4143 42.165L32.7653 45.5299C32.7437 45.5425 32.7193 45.5488 32.6959 45.5488H32.6968ZM25.4502 40.9292L32.6968 45.2556L38.2095 41.9711V32.4477L26.9676 25.7523L25.4493 26.6571V40.9283L25.4502 40.9292Z" fill="#155C6D"/>
<path d="M25.3142 31.3173L32.6861 35.7322L38.3459 32.371L30.4787 27.6683L25.3142 30.7508V31.3173Z" fill="#155C6D"/>
<path d="M32.6859 35.8675C32.6624 35.8675 32.6372 35.8612 32.6164 35.8485L25.2436 31.4328C25.203 31.4084 25.1777 31.3642 25.1777 31.3164V30.7499C25.1777 30.7021 25.203 30.6579 25.2436 30.6335L30.409 27.551C30.4532 27.5258 30.5055 27.5258 30.5479 27.551L38.4151 32.2537C38.4557 32.278 38.481 32.3222 38.481 32.37C38.481 32.4179 38.4557 32.4621 38.4142 32.4864L32.7553 35.8476C32.7346 35.8603 32.7102 35.8666 32.6868 35.8666L32.6859 35.8675ZM25.4493 31.2406L32.6859 35.5752L38.0804 32.3709L30.4776 27.8262L25.4484 30.8275L25.4493 31.2406Z" fill="#155C6D"/>
<path d="M31.8244 35.2153L25.314 31.3291V26.5813L26.9684 25.5953L37.6186 31.9407C37.5383 31.975 37.4697 32.0426 37.4183 32.1103C37.366 32.1897 37.3335 32.2799 37.3254 32.371C37.3335 32.4621 37.3669 32.5523 37.421 32.62C37.4751 32.6994 37.5491 32.7562 37.633 32.7896L33.5754 35.2144C33.4662 35.0782 33.3291 34.988 33.1766 34.9194C33.0242 34.8626 32.8591 34.84 32.6958 34.8518C32.5307 34.84 32.3629 34.8635 32.2096 34.9194C32.0598 34.9871 31.9281 35.089 31.8253 35.2144L31.8244 35.2153Z" fill="#70C5AD"/>
<path d="M31.8245 35.3506C31.801 35.3506 31.7766 35.3443 31.755 35.3317L25.2446 31.4445C25.204 31.4202 25.1787 31.376 25.1787 31.3282V26.5804C25.1787 26.5326 25.204 26.4884 25.2446 26.464L26.8981 25.4781C26.9423 25.4528 26.9928 25.4528 27.037 25.4781L37.6881 31.8234C37.7314 31.8496 37.7567 31.8983 37.753 31.9488C37.7494 32.0002 37.7179 32.0444 37.671 32.0643C37.624 32.0841 37.5735 32.1283 37.5248 32.1924C37.4905 32.2456 37.4662 32.3141 37.4599 32.3827C37.4662 32.426 37.4896 32.491 37.5257 32.5352C37.5699 32.5983 37.6204 32.6389 37.6827 32.6642C37.7305 32.6831 37.7639 32.7273 37.7675 32.7787C37.772 32.8301 37.7467 32.8788 37.7025 32.9059L33.6449 35.3308C33.5863 35.365 33.5123 35.3515 33.4699 35.2992C33.3842 35.1927 33.2732 35.1115 33.1208 35.0439C32.9963 34.9979 32.8492 34.9789 32.7049 34.9871C32.5371 34.9789 32.3901 34.9979 32.2557 35.0475C32.1357 35.1025 32.0193 35.1918 31.9291 35.301C31.903 35.3335 31.8642 35.3497 31.8254 35.3497L31.8245 35.3506ZM25.4502 31.2524L31.7992 35.043C31.9011 34.9419 32.0211 34.8581 32.1528 34.7985C32.3323 34.7318 32.5128 34.7047 32.7049 34.7191C32.8691 34.7056 33.0549 34.7327 33.2227 34.7949C33.3779 34.8635 33.5015 34.9447 33.6007 35.043L37.3805 32.7841C37.3543 32.758 37.33 32.7291 37.3092 32.6975C37.2452 32.6181 37.201 32.5045 37.1901 32.3836C37.2001 32.2474 37.2398 32.1355 37.3047 32.0372C37.3273 32.0065 37.3516 31.9786 37.3751 31.9542L26.9676 25.7532L25.4493 26.658L25.4502 31.2524Z" fill="#155C6D"/>
<path d="M25.3142 31.3173L29.2032 33.6177L34.8521 30.2637L30.4787 27.6683L25.3142 30.7508V31.3173Z" fill="#C8DAE8"/>
<path d="M29.2029 33.753C29.1794 33.753 29.1551 33.7467 29.1343 33.7341L25.2445 31.4337C25.203 31.4094 25.1777 31.3652 25.1777 31.3174V30.7509C25.1777 30.7031 25.203 30.6589 25.2436 30.6345L30.409 27.552C30.4532 27.5268 30.5046 27.5268 30.547 27.552L34.9204 30.1465C34.9619 30.1708 34.9871 30.215 34.9871 30.2628C34.9871 30.3106 34.9619 30.3548 34.9204 30.3792L29.2714 33.7332C29.2507 33.7458 29.2264 33.7521 29.2029 33.7521V33.753ZM25.4493 31.2398L29.2029 33.4599L34.5866 30.2628L30.4785 27.8254L25.4493 30.8266V31.2398Z" fill="#155C6D"/>
<path fill-rule="evenodd" clip-rule="evenodd" d="M10.1345 17.343L26.9388 27.4591C27.3086 27.6747 27.7272 27.7875 28.153 27.7875C28.5788 27.7875 28.9983 27.6738 29.3672 27.4591L51.8141 13.9177V46.6088L49.7907 47.833L48.3654 43.5273L32.7384 52.3768L31.3654 58.9378L28.1539 60.8638L25.4178 59.2436L24.3444 53.9862L13.1105 47.1789L11.8963 51.0769L10.1363 50.0341V17.343H10.1345ZM49.4217 18.9153V39.4597C49.4217 39.5274 49.4037 39.6067 49.3676 39.6636C49.3324 39.7312 49.281 39.7881 49.2188 39.8223L32.1394 49.6805C32.078 49.7147 32.0086 49.7256 31.9391 49.7256C31.8696 49.7256 31.8011 49.703 31.7406 49.6687C31.6802 49.6344 31.6306 49.5785 31.5954 49.5217C31.5602 49.454 31.5422 49.3855 31.5413 49.3061V29.2263C31.5413 29.1587 31.5602 29.0901 31.5963 29.0224C31.6315 28.9656 31.6829 28.9088 31.7443 28.8754L48.8237 18.5527C48.8841 18.5184 48.9527 18.4959 49.023 18.4959C49.0934 18.4959 49.1619 18.5184 49.2233 18.5527C49.2846 18.587 49.3342 18.6429 49.3694 18.6997C49.4046 18.7674 49.4226 18.836 49.4217 18.9153Z" fill="#70C5AD"/>
<path d="M28.1529 61C28.1294 61 28.1051 60.9937 28.0843 60.981L25.3483 59.3609C25.3149 59.3419 25.2923 59.3085 25.2851 59.2715L24.2225 54.0719L13.1871 47.3837L12.0252 51.1166C12.0126 51.1563 11.9828 51.1879 11.944 51.2032C11.9052 51.2176 11.8628 51.2149 11.8267 51.1933L10.0668 50.1504C10.0253 50.1261 10 50.0819 10 50.0341V17.343C10 17.2943 10.0262 17.2492 10.0686 17.2257C10.111 17.2013 10.1624 17.2023 10.2048 17.2275L27.009 27.3436C27.7018 27.7469 28.6039 27.7478 29.2995 27.3436L51.7454 13.8032C51.7869 13.7779 51.8393 13.777 51.8817 13.8013C51.9241 13.8248 51.9502 13.8699 51.9502 13.9186V46.6097C51.9502 46.6575 51.925 46.7008 51.8844 46.7252L49.861 47.9484C49.8267 47.9692 49.7834 47.9746 49.7446 47.9592C49.7058 47.9448 49.676 47.9142 49.6625 47.8754L48.2886 43.7257L32.8582 52.4643L31.4979 58.9657C31.4907 59.0027 31.4681 59.0343 31.4356 59.0541L28.2233 60.9801C28.2025 60.9937 28.1772 60.9991 28.1538 60.9991L28.1529 61ZM25.5377 59.1579L28.1529 60.7068L31.2444 58.853L32.6057 52.3498C32.6138 52.3119 32.6372 52.2785 32.6706 52.2596L48.2976 43.41C48.3337 43.3892 48.3743 43.3874 48.4131 43.401C48.451 43.4154 48.4799 43.4461 48.4934 43.4849L49.8655 47.63L51.6787 46.5339V14.1586L29.4366 27.5764C28.6563 28.0328 27.6486 28.0319 26.871 27.5764L10.2706 17.5829V49.9574L11.8168 50.8739L12.9796 47.1392C12.9923 47.0995 13.022 47.0671 13.0617 47.0526C13.0987 47.0364 13.1429 47.0418 13.1799 47.0635L24.4137 53.8716C24.4453 53.8914 24.4687 53.9239 24.475 53.9609L25.5377 59.1597V59.1579ZM31.939 49.8609C31.8515 49.8609 31.7604 49.8356 31.6738 49.786C31.5809 49.7337 31.5177 49.6525 31.4807 49.5929C31.4275 49.4919 31.4059 49.4044 31.4059 49.3061V29.2263C31.4059 29.1361 31.4293 29.0468 31.4762 28.9593C31.533 28.8682 31.6025 28.7996 31.6765 28.7572L48.7541 18.4363C48.93 18.3362 49.1158 18.338 49.289 18.4345C49.3837 18.4886 49.4478 18.5698 49.4848 18.6285C49.5353 18.7259 49.5579 18.8161 49.5579 18.9153V39.4588C49.5579 39.558 49.529 39.6618 49.4812 39.7357C49.4388 39.8187 49.3693 39.8927 49.2854 39.9396L32.2078 49.7968C32.1293 49.8401 32.0418 49.8609 31.939 49.8609ZM49.0229 18.6312C48.9814 18.6312 48.9354 18.6447 48.8912 18.67L31.8136 28.9909C31.7757 29.0125 31.7396 29.0495 31.7117 29.0946C31.6909 29.1343 31.6783 29.1821 31.6783 29.2263V49.3061C31.6783 49.3602 31.69 49.4071 31.7162 49.4594C31.7387 49.4955 31.7748 49.5325 31.8091 49.5515C31.9164 49.6128 32.0157 49.5957 32.0761 49.5623L49.1528 39.7051C49.1916 39.6834 49.225 39.6473 49.2484 39.6013C49.2737 39.5598 49.2872 39.5066 49.2872 39.4597V18.9162C49.2872 18.8603 49.2755 18.8134 49.2502 18.7638C49.2277 18.7277 49.1916 18.6907 49.1564 18.6709C49.1122 18.6465 49.0644 18.6321 49.0238 18.6321L49.0229 18.6312Z" fill="#155C6D"/>
<path d="M44.5918 36.8075V34.1337L33.7458 27.6638L47.6075 19.2897V38.6099L44.5918 36.8084V36.8075Z" fill="#155C6D"/>
<path d="M47.6066 38.7444C47.5831 38.7444 47.5578 38.738 47.5371 38.7254L44.5214 36.923C44.4808 36.8987 44.4555 36.8545 44.4555 36.8067V34.2095L33.6755 27.7794C33.6349 27.755 33.6105 27.7108 33.6096 27.6639C33.6096 27.6161 33.634 27.5719 33.6755 27.5475L47.5371 19.1734C47.5777 19.149 47.6309 19.1472 47.6724 19.1716C47.7157 19.1959 47.7419 19.241 47.7419 19.2897V38.6099C47.7419 38.6587 47.7157 38.7038 47.6733 38.7272C47.6526 38.7389 47.6291 38.7453 47.6066 38.7453V38.7444ZM44.7271 36.7309L47.4712 38.3709V19.5288L34.0074 27.6621L44.6612 34.0165C44.7018 34.0408 44.7271 34.085 44.7271 34.1328V36.73V36.7309Z" fill="#155C6D"/>
<path d="M51.0825 29.7477L52.8948 28.6598L49.419 18.1323L47.6067 19.2311L51.0825 29.7468V29.7477Z" fill="#C8DAE8"/>
<path d="M51.0825 29.883C51.0662 29.883 51.0509 29.8803 51.0356 29.8749C50.9968 29.8605 50.967 29.8298 50.9535 29.7901L47.4777 19.2744C47.4587 19.2148 47.4822 19.149 47.5354 19.1165L49.3486 18.0178C49.3856 17.997 49.428 17.9925 49.4659 18.0069C49.5047 18.0214 49.5345 18.052 49.548 18.0917L53.0238 28.6183C53.0427 28.6778 53.0193 28.7446 52.9651 28.7762L51.1519 29.8641C51.1312 29.8767 51.1068 29.883 51.0825 29.883ZM47.7691 19.2924L51.1582 29.5448L52.7333 28.6003L49.345 18.338L47.7691 19.2933V19.2924Z" fill="#155C6D"/>
<path d="M52.8956 28.6679V49.869C52.8956 49.9935 52.8595 50.118 52.7927 50.2199C52.726 50.3336 52.6304 50.413 52.5176 50.4689L51.0833 51.1491V29.7549L52.8956 28.6679Z" fill="#70C5AD"/>
<path d="M51.0826 51.2853C51.0573 51.2853 51.0321 51.2781 51.0104 51.2645C50.9707 51.2393 50.9473 51.196 50.9473 51.15V29.7559C50.9473 29.708 50.9725 29.6638 51.0131 29.6404L52.8263 28.5524C52.8678 28.5263 52.9202 28.5263 52.9626 28.5506C53.005 28.5741 53.0311 28.6192 53.0311 28.6679V49.869C53.0311 50.0197 52.986 50.1712 52.9048 50.2948C52.8336 50.4166 52.7217 50.5185 52.5774 50.5907L51.1403 51.2718C51.1214 51.2799 51.1015 51.2844 51.0826 51.2844V51.2853ZM51.2179 29.8325V50.9362L52.4583 50.348C52.5539 50.2993 52.627 50.2353 52.6757 50.1523C52.7316 50.0675 52.7596 49.9682 52.7596 49.8699V28.9079L51.2179 29.8334V29.8325Z" fill="#155C6D"/>
<path d="M51.823 13.9628L29.3942 27.4582C29.0171 27.6846 28.5895 27.7983 28.1538 27.7983C27.7181 27.7983 27.2905 27.6846 26.9134 27.4582L10.4925 17.6741C10.083 17.4305 10.0821 16.8378 10.4907 16.5916L32.5624 3.32171C32.7716 3.19722 33.0098 3.12866 33.2533 3.12866C33.4969 3.12866 33.7351 3.19632 33.9444 3.32171L51.8239 13.9619L51.823 13.9628Z" fill="#C8DAE8"/>
<path d="M28.153 27.9345C27.6875 27.9345 27.2338 27.81 26.8432 27.5755L10.4223 17.7922C10.1887 17.6533 10.0497 17.408 10.0488 17.1355C10.0479 16.8631 10.1868 16.6177 10.4205 16.4779L32.4921 3.20805C32.9603 2.9302 33.5503 2.9311 34.013 3.20805L51.8926 13.8483C51.9332 13.8726 51.9575 13.9168 51.9585 13.9638C51.9585 14.0116 51.9332 14.0558 51.8926 14.0801L29.4638 27.5755C29.0732 27.8109 28.6185 27.9345 28.153 27.9345ZM33.2517 3.26578C33.0361 3.26578 32.8205 3.32532 32.631 3.43899L10.5594 16.7088C10.4088 16.7999 10.3186 16.9587 10.3186 17.1346C10.3186 17.3105 10.4097 17.4693 10.5612 17.5586L26.9821 27.3428C27.6821 27.7631 28.6266 27.7622 29.3239 27.3428L51.5588 13.9629L33.8732 3.43809C33.6838 3.32442 33.4691 3.26488 33.2526 3.26488L33.2517 3.26578Z" fill="#155C6D"/>
<path d="M47.6077 40.7398V19.232L51.0825 29.6756V51.0688L47.6077 40.7398Z" fill="#155C6D"/>
<path d="M51.0825 51.2041C51.0256 51.2041 50.9733 51.168 50.9534 51.1121L47.4777 40.7822C47.4732 40.7678 47.4705 40.7533 47.4705 40.7389V19.232C47.4705 19.1653 47.5192 19.1093 47.5841 19.0985C47.6572 19.0859 47.7149 19.1265 47.7348 19.1896L51.2105 29.6323C51.2151 29.6458 51.2178 29.6602 51.2178 29.6747V51.0688C51.2178 51.1356 51.1691 51.1915 51.1041 51.2023C51.096 51.2032 51.0888 51.2041 51.0825 51.2041ZM47.7429 40.7172L50.9471 50.2425V29.6972L47.7429 20.0674V40.7172Z" fill="#155C6D"/>
<path fill-rule="evenodd" clip-rule="evenodd" d="M27.8634 27.7486C27.5396 27.709 27.2229 27.6251 26.9388 27.4591L10.1345 17.343V50.035L11.8945 51.0778L13.1087 47.1798L24.3426 53.987L25.416 59.2454L27.8634 60.6941V27.7505V27.7486Z" fill="#155C6D"/>
<path d="M27.8642 60.8286C27.8408 60.8286 27.8164 60.8223 27.7957 60.8096L25.3483 59.3609C25.3149 59.3419 25.2924 59.3085 25.2851 59.2715L24.2225 54.0719L13.1871 47.3846L12.0252 51.1175C12.0126 51.1572 11.9828 51.1888 11.944 51.2041C11.9052 51.2185 11.8628 51.2158 11.8267 51.1942L10.0668 50.1522C10.0253 50.1279 10 50.0837 10 50.0359V17.3439C10 17.2952 10.0262 17.2501 10.0686 17.2266C10.111 17.2022 10.1624 17.2022 10.2048 17.2284L27.009 27.3445C27.2508 27.4853 27.5359 27.5737 27.8805 27.6161C27.949 27.6242 28.0004 27.6819 28.0004 27.7505V60.6951C28.0004 60.7438 27.9743 60.7889 27.9319 60.8123C27.9111 60.8241 27.8877 60.8304 27.8651 60.8304L27.8642 60.8286ZM25.5377 59.1579L27.7289 60.4551V27.8668C27.3996 27.8145 27.1173 27.7189 26.8719 27.5755L10.2715 17.582V49.9574L11.8177 50.873L12.9805 47.1383C12.9932 47.0987 13.0229 47.0662 13.0626 47.0517C13.0996 47.0355 13.1438 47.0409 13.1808 47.0626L24.4146 53.8698C24.4462 53.8896 24.4696 53.9221 24.4759 53.9591L25.5377 59.1579Z" fill="#155C6D"/>
</svg>
