<svg width="64" height="64" viewBox="0 0 64 64" fill="none" xmlns="http://www.w3.org/2000/svg">
<mask id="mask0_15036_785" style="mask-type:alpha" maskUnits="userSpaceOnUse" x="0" y="0" width="64" height="64">
<rect width="64" height="64" fill="#D9D9D9"/>
</mask>
<g mask="url(#mask0_15036_785)">
</g>
<g clip-path="url(#clip0_15036_785)">
<path d="M54.3901 39.7099C54.3901 39.7099 54.3601 39.7199 54.3401 39.7299C53.7201 39.9699 52.9401 39.4699 52.6101 38.6099" stroke="#155C6D" stroke-width="0.5" stroke-linecap="round" stroke-linejoin="round"/>
<path d="M46.3599 43.54L47.7899 47.85L43.3799 45.22L46.3499 43.54H46.3599Z" fill="#155C6D"/>
<path d="M47.8 47.9798C47.8 47.9798 47.75 47.9798 47.73 47.9598L43.32 45.3298C43.32 45.3298 43.25 45.2598 43.25 45.2098C43.25 45.1598 43.28 45.1198 43.32 45.0898L46.29 43.4098C46.29 43.4098 46.37 43.3898 46.4 43.4098C46.44 43.4198 46.47 43.4598 46.48 43.4898L47.91 47.7998C47.93 47.8498 47.91 47.9098 47.87 47.9498C47.85 47.9698 47.81 47.9798 47.79 47.9798H47.8ZM43.66 45.2198L47.56 47.5398L46.29 43.7398L43.66 45.2198Z" fill="#155C6D"/>
<path d="M11.0999 47.1602L9.87988 51.0702L13.4999 48.5902L11.1099 47.1602H11.0999Z" fill="#70C5AD"/>
<path d="M9.8801 51.2002C9.8801 51.2002 9.8201 51.2002 9.8001 51.1702C9.7501 51.1402 9.7301 51.0802 9.7501 51.0202L10.9701 47.1102C10.9701 47.1102 11.0101 47.0402 11.0501 47.0202C11.0901 47.0102 11.1301 47.0102 11.1701 47.0202L13.5601 48.4502C13.5601 48.4502 13.6201 48.5202 13.6301 48.5602C13.6301 48.6102 13.6101 48.6502 13.5701 48.6802L9.9501 51.1602C9.9501 51.1602 9.9001 51.1802 9.8701 51.1802L9.8801 51.2002ZM11.1801 47.3602L10.1201 50.7302L13.2401 48.5902L11.1801 47.3602Z" fill="#155C6D"/>
<path fill-rule="evenodd" clip-rule="evenodd" d="M8.12988 17.3399L24.9299 27.4599C25.2999 27.6799 25.7199 27.7899 26.1399 27.7899C26.5599 27.7899 26.9899 27.6799 27.3499 27.4599L49.7999 13.9199V46.6099L47.7799 47.8299L46.3499 43.5199L30.7199 52.3699L29.3499 58.9299L26.1399 60.8599L23.3999 59.2399L22.3299 53.9799L11.0999 47.1699L9.88988 51.0699L8.12988 50.0299V17.3399Z" fill="#70C5AD"/>
<path d="M26.15 61C26.15 61 26.1 61 26.08 60.98L23.34 59.36C23.34 59.36 23.28 59.31 23.28 59.27L22.22 54.07L11.19 47.38L10.03 51.11C10.03 51.11 9.99 51.18 9.95 51.2C9.91 51.21 9.87 51.21 9.83 51.2L8.07 50.16C8.07 50.16 8 50.09 8 50.04V17.34C8 17.34 8.03 17.25 8.07 17.22C8.11 17.2 8.16 17.2 8.21 17.22L25.01 27.34C25.7 27.74 26.61 27.74 27.3 27.34L49.74 13.8C49.74 13.8 49.83 13.77 49.88 13.8C49.92 13.82 49.95 13.87 49.95 13.92V46.61C49.95 46.61 49.92 46.7 49.89 46.73L47.87 47.95C47.87 47.95 47.79 47.98 47.75 47.96C47.71 47.95 47.68 47.91 47.67 47.88L46.3 43.73L30.87 52.47L29.51 58.97C29.51 58.97 29.48 59.04 29.45 59.06L26.24 60.99C26.24 60.99 26.19 61.01 26.17 61.01L26.15 61ZM23.54 59.16L26.15 60.71L29.24 58.86L30.6 52.36C30.6 52.36 30.63 52.29 30.66 52.27L46.29 43.42C46.29 43.42 46.37 43.4 46.41 43.42C46.45 43.43 46.48 43.47 46.49 43.5L47.86 47.64L49.67 46.54V14.16L27.43 27.58C26.65 28.04 25.64 28.04 24.86 27.58L8.27 17.58V49.95L9.82 50.87L10.98 47.14C10.98 47.14 11.02 47.07 11.06 47.05C11.1 47.03 11.14 47.04 11.18 47.06L22.41 53.87C22.41 53.87 22.47 53.92 22.47 53.96L23.53 59.16H23.54Z" fill="#155C6D"/>
<path d="M49.8201 13.9599L27.3901 27.4499C27.0101 27.6799 26.5901 27.7899 26.1501 27.7899C25.7101 27.7899 25.2901 27.6799 24.9101 27.4499L8.49012 17.6799C8.08012 17.4399 8.08012 16.8399 8.49012 16.5999L30.5601 3.31988C30.7701 3.19988 31.0101 3.12988 31.2501 3.12988C31.4901 3.12988 31.7301 3.19988 31.9401 3.31988L49.8201 13.9599Z" fill="#C8DAE8"/>
<path d="M26.15 27.93C25.68 27.93 25.23 27.81 24.84 27.57L8.42005 17.79C8.19005 17.65 8.05005 17.41 8.05005 17.13C8.05005 16.86 8.19005 16.61 8.42005 16.47L30.49 3.21C30.96 2.93 31.5401 2.93 32.01 3.21L49.89 13.85C49.89 13.85 49.9501 13.92 49.96 13.97C49.96 14.02 49.93 14.06 49.89 14.09L27.46 27.58C27.07 27.82 26.61 27.94 26.15 27.94V27.93ZM31.25 3.27C31.0401 3.27 30.82 3.33 30.63 3.44L8.56005 16.71C8.41005 16.8 8.32005 16.96 8.32005 17.14C8.32005 17.32 8.41005 17.47 8.56005 17.56L24.98 27.34C25.68 27.76 26.62 27.76 27.32 27.34L49.55 13.96L31.8701 3.44C31.68 3.33 31.46 3.27 31.25 3.27Z" fill="#155C6D"/>
<path fill-rule="evenodd" clip-rule="evenodd" d="M25.8599 27.7498C25.5399 27.7098 25.2199 27.6298 24.9399 27.4598L8.12988 17.3398V50.0298L9.88988 51.0698L11.0999 47.1698L22.3299 53.9798L23.3999 59.2398L25.8499 60.6898V27.7498H25.8599Z" fill="#155C6D"/>
<path d="M25.86 60.8301C25.86 60.8301 25.81 60.8301 25.79 60.8101L23.34 59.3601C23.34 59.3601 23.28 59.3101 23.28 59.2701L22.22 54.0701L11.19 47.3801L10.03 51.1101C10.03 51.1101 9.99 51.1801 9.95 51.2001C9.91 51.2101 9.87 51.2101 9.83 51.1901L8.07 50.1501C8.07 50.1501 8 50.0801 8 50.0301V17.3401C8 17.3401 8.03 17.2501 8.07 17.2201C8.11 17.2001 8.16 17.2001 8.21 17.2201L25.01 27.3401C25.25 27.4801 25.54 27.5701 25.88 27.6101C25.95 27.6101 26 27.6801 26 27.7401V60.6801C26 60.6801 25.97 60.7701 25.93 60.8001C25.91 60.8101 25.89 60.8201 25.86 60.8201V60.8301ZM23.54 59.1601L25.73 60.4601V27.8701C25.4 27.8201 25.12 27.7201 24.87 27.5801L8.27 17.5801V49.9501L9.82 50.8701L10.98 47.1401C10.98 47.1401 11.02 47.0701 11.06 47.0501C11.1 47.0301 11.14 47.0401 11.18 47.0601L22.41 53.8701C22.41 53.8701 22.47 53.9201 22.47 53.9601L23.53 59.1601H23.54Z" fill="#155C6D"/>
<path d="M42.47 29.3201C41.9 29.3201 41.34 29.5101 40.96 29.6901C39.56 30.3701 38.31 31.7101 37.48 33.3401L40.9 34.6101L42.92 29.3501C42.77 29.3301 42.62 29.3101 42.48 29.3101L42.47 29.3201Z" fill="#155C6D"/>
<path d="M40.98 34.7902L37.3 33.4202L37.3701 33.2802C38.2301 31.6002 39.52 30.2502 40.91 29.5702C41.15 29.4502 41.79 29.1802 42.48 29.1802C42.63 29.1802 42.78 29.1902 42.94 29.2202L43.1101 29.2502L40.9901 34.7902H40.98ZM37.67 33.2702L40.82 34.4402L42.7201 29.4702C41.9901 29.4002 41.2701 29.7002 41.0201 29.8202C39.7101 30.4502 38.5 31.7102 37.67 33.2702Z" fill="#155C6D"/>
<path d="M40.5301 35.5901L38.3901 41.1901C38.2801 41.1301 38.1601 41.0801 38.0501 41.0101C36.8301 40.1701 36.2601 38.3801 36.5401 36.2101C36.6501 35.5601 36.8301 34.9201 37.0601 34.3101L40.5301 35.6001V35.5901Z" fill="#155C6D"/>
<path d="M38.46 41.3701L38.33 41.3001C38.21 41.2401 38.1 41.1801 37.98 41.1101C36.7 40.2401 36.12 38.3901 36.41 36.1701C36.52 35.5101 36.7 34.8601 36.94 34.2401L36.99 34.1201L40.71 35.5101L40.66 35.6401L38.46 41.3801V41.3701ZM37.14 34.4701C36.93 35.0401 36.77 35.6301 36.67 36.2201C36.4 38.3301 36.94 40.0801 38.12 40.8901C38.18 40.9301 38.25 40.9601 38.31 40.9901L40.35 35.6601L37.14 34.4601V34.4701Z" fill="#155C6D"/>
<path d="M41.4999 35.9502L44.7199 37.1402C43.9099 38.9102 42.5899 40.4002 41.0599 41.1102C40.6199 41.2802 40.0399 41.4402 39.4099 41.4202L41.4999 35.9602V35.9502Z" fill="#155C6D"/>
<path d="M39.52 41.5498C39.52 41.5498 39.44 41.5498 39.4 41.5498H39.21L41.42 35.7798L44.9 37.0698L44.84 37.1998C43.99 39.0698 42.63 40.5398 41.11 41.2298C40.55 41.4398 40.02 41.5498 39.52 41.5498ZM41.58 36.1198L39.61 41.2698C40.05 41.2598 40.53 41.1598 41.02 40.9698C42.44 40.3198 43.72 38.9498 44.55 37.2098L41.59 36.1198H41.58Z" fill="#155C6D"/>
<path d="M45.1001 36.1802L41.8701 34.9802L43.8801 29.7202C43.8801 29.7202 43.9501 29.7702 43.9801 29.8002C45.2001 30.6502 45.7701 32.4402 45.4901 34.5102C45.4201 35.0602 45.2801 35.6302 45.1001 36.1802Z" fill="#155C6D"/>
<path d="M45.1799 36.35L41.6899 35.05L41.7399 34.92L43.8099 29.5L43.9499 29.6C43.9499 29.6 44.0299 29.65 44.0699 29.7C45.3199 30.56 45.9099 32.37 45.6099 34.53C45.5299 35.1 45.3999 35.67 45.2199 36.22L45.1799 36.35ZM42.0399 34.9L45.0099 36C45.1699 35.5 45.2799 35 45.3499 34.49C45.6199 32.5 45.0799 30.76 43.9399 29.93L42.0399 34.89V34.9Z" fill="#155C6D"/>
<path d="M43.7801 28.5198C42.7801 28.1898 41.6101 28.2398 40.4901 28.7598C38.0401 29.8898 35.9701 32.9098 35.5001 36.1098C35.1401 38.5598 35.8201 40.7398 37.3101 41.8298C37.0501 41.7398 36.8001 41.6298 36.5401 41.4798C34.9401 40.4498 34.1801 38.1798 34.5601 35.6298C35.0301 32.4298 37.1001 29.4098 39.5501 28.2898C40.9601 27.6198 42.4701 27.7198 43.6001 28.3798C43.6601 28.4298 43.7201 28.4698 43.7801 28.5198Z" fill="#C8DAE8"/>
<path d="M37.3001 41.9702C37.3001 41.9702 37.2701 41.9702 37.2501 41.9702C36.9701 41.8702 36.7101 41.7502 36.4601 41.6102C34.8101 40.5502 34.0301 38.2602 34.4101 35.6302C34.8901 32.4002 36.9701 29.3302 39.4801 28.1802C40.8701 27.5302 42.4301 27.5602 43.6601 28.2802L43.8501 28.4302C43.9001 28.4702 43.9201 28.5402 43.8901 28.6002C43.8601 28.6602 43.7901 28.6802 43.7301 28.6702C42.7101 28.3402 41.5701 28.4202 40.5401 28.9002C38.1101 30.0302 36.0801 33.0102 35.6201 36.1502C35.2601 38.5502 35.9401 40.6902 37.3701 41.7402C37.4201 41.7802 37.4401 41.8502 37.4101 41.9102C37.3901 41.9602 37.3401 41.9802 37.2901 41.9802L37.3001 41.9702ZM41.5401 27.9702C40.8901 27.9702 40.2301 28.1202 39.6101 28.4102C37.1801 29.5202 35.1601 32.5002 34.6901 35.6502C34.3201 38.1602 35.0401 40.3302 36.5801 41.3402C35.5101 40.1202 35.0501 38.1902 35.3601 36.0802C35.8301 32.8502 37.9201 29.7802 40.4301 28.6202C41.2101 28.2502 42.0501 28.1002 42.8601 28.1802C42.4401 28.0302 41.9901 27.9602 41.5301 27.9602L41.5401 27.9702Z" fill="#155C6D"/>
<path d="M41.78 29.3998C42 29.3498 42.23 29.3198 42.47 29.3198C42.61 29.3198 42.76 29.3298 42.91 29.3498L40.89 34.6098L37.47 33.3398C37.47 33.3398 37.5 33.2798 37.51 33.2598L39.95 34.1698L41.77 29.3998H41.78Z" fill="#70C5AD"/>
<path d="M40.98 34.7901L37.28 33.4201L37.37 33.2801C37.37 33.2801 37.41 33.2101 37.42 33.2001L37.48 33.1101L39.89 34.0101L41.69 29.3001L41.76 29.2801C42.22 29.1901 42.56 29.1801 42.94 29.2301L43.11 29.2601L40.99 34.8001L40.98 34.7901ZM40.11 34.1701L40.82 34.4401L42.72 29.4701C42.46 29.4501 42.2 29.4601 41.88 29.5201L40.1 34.1801L40.11 34.1701Z" fill="#155C6D"/>
<path d="M38.04 41.0002C37.85 40.8802 37.67 40.7202 37.52 40.5502L39.56 35.2202L40.53 35.5802L38.39 41.1802C38.28 41.1202 38.16 41.0702 38.05 41.0002H38.04Z" fill="#70C5AD"/>
<path d="M38.4601 41.37L38.3301 41.3C38.2101 41.24 38.1001 41.18 37.9801 41.11C37.8001 40.99 37.6201 40.83 37.4301 40.63L37.3701 40.57L37.4001 40.49L39.4901 35.04L40.7101 35.5L40.6601 35.63L38.4601 41.37ZM38.1101 40.89C38.1801 40.93 38.2401 40.96 38.3101 41L40.3501 35.67L39.6301 35.4L37.6701 40.52C37.8201 40.67 37.9601 40.79 38.1101 40.89Z" fill="#155C6D"/>
<path d="M39.6399 40.79L39.3999 41.41C40.0299 41.43 40.6099 41.27 41.0499 41.1C42.5899 40.4 43.9099 38.9 44.7099 37.13L43.7199 36.77C42.9099 38.49 41.6099 39.93 40.0999 40.62C39.9599 40.68 39.7999 40.73 39.6299 40.78L39.6399 40.79Z" fill="#70C5AD"/>
<path d="M39.52 41.5501C39.52 41.5501 39.44 41.5501 39.4 41.5501H39.21L39.54 40.6801L39.61 40.6601C39.75 40.6201 39.9 40.5701 40.07 40.5101C41.5 39.8601 42.79 38.4801 43.61 36.7301L43.66 36.6201L44.9 37.0801L44.84 37.2101C43.99 39.0801 42.63 40.5501 41.11 41.2401C40.55 41.4501 40.02 41.5601 39.52 41.5601V41.5501ZM39.75 40.9001L39.61 41.2801C40.05 41.2801 40.53 41.1701 41.02 40.9801C42.44 40.3301 43.72 38.9601 44.55 37.2201L43.81 36.9501C42.96 38.7001 41.64 40.0901 40.18 40.7601C40.02 40.8201 39.88 40.8701 39.75 40.9101V40.9001Z" fill="#155C6D"/>
<path d="M44.1501 35.72L41.9001 34.88L41.8701 34.97L45.1001 36.17C45.2801 35.63 45.4101 35.06 45.4901 34.5C45.7701 32.43 45.2101 30.64 43.9801 29.79C43.9501 29.76 43.9201 29.73 43.8801 29.71L43.7601 30.03C44.4701 30.98 44.7601 32.42 44.5401 34.03C44.4601 34.6 44.3301 35.16 44.1501 35.72Z" fill="#70C5AD"/>
<path d="M45.1799 36.3498L41.6899 35.0498L41.8199 34.7098L44.0599 35.5498C44.2199 35.0398 44.3399 34.5198 44.3999 34.0198C44.6099 32.4698 44.3399 31.0498 43.6399 30.1198L43.5999 30.0598L43.8099 29.5098L43.9499 29.6098C43.9499 29.6098 44.0299 29.6598 44.0699 29.7098C45.3199 30.5698 45.9099 32.3798 45.6099 34.5398C45.5299 35.1098 45.3999 35.6798 45.2199 36.2298L45.1799 36.3598V36.3498ZM44.2899 35.7298L45.0099 35.9998C45.1699 35.4998 45.2799 34.9998 45.3499 34.4898C45.6199 32.4998 45.0799 30.7598 43.9399 29.9298L43.9099 30.0098C44.6099 30.9898 44.8899 32.4598 44.6699 34.0498C44.5999 34.5998 44.4699 35.1698 44.2799 35.7298H44.2899Z" fill="#155C6D"/>
<path fill-rule="evenodd" clip-rule="evenodd" d="M39.55 42.5102C38.8 42.5102 38.14 42.3202 37.48 41.9402C35.88 40.9102 35.12 38.6402 35.5 36.0902C35.97 32.8902 38.04 29.8702 40.49 28.7502C41.9 28.0802 43.41 28.1802 44.54 28.8402C46.05 29.8702 46.9 32.0502 46.52 34.5902C46.14 37.8002 44.07 40.9102 41.53 42.0302C40.87 42.3102 40.21 42.5102 39.55 42.5102ZM42.47 29.3202C41.9 29.3202 41.34 29.5002 40.96 29.6902C39.56 30.3602 38.31 31.7102 37.48 33.3402L40.9 34.6102L42.92 29.3402C42.77 29.3202 42.62 29.3202 42.48 29.3202H42.47ZM40.52 35.5802L38.38 41.1802C38.27 41.1302 38.15 41.0802 38.04 41.0102C36.82 40.1602 36.25 38.3702 36.53 36.2102C36.64 35.5502 36.82 34.9202 37.05 34.2902L40.52 35.5802ZM41.5 35.9402L44.72 37.1302C43.91 38.9102 42.59 40.3902 41.06 41.1002C40.62 41.2702 40.04 41.4402 39.41 41.4102L41.5 35.9502V35.9402ZM45.1 36.1602L41.87 34.9602L43.88 29.7102C43.88 29.7102 43.95 29.7602 43.98 29.7802C45.2 30.6302 45.77 32.4202 45.49 34.4902C45.42 35.0602 45.28 35.6102 45.1 36.1602Z" fill="#70C5AD"/>
<path d="M39.5501 42.6502C38.7901 42.6502 38.1101 42.4602 37.4101 42.0702C35.7601 41.0102 34.9801 38.7102 35.3601 36.0902C35.8401 32.8602 37.9201 29.7902 40.4301 28.6402C41.8101 27.9902 43.3801 28.0202 44.6101 28.7402C46.2201 29.8402 47.0201 32.1502 46.6601 34.6202C46.2801 37.8602 44.1401 41.0402 41.5901 42.1702C40.8201 42.5002 40.1701 42.6602 39.5601 42.6602L39.5501 42.6502ZM42.4801 28.4302C41.8401 28.4302 41.1701 28.5802 40.5501 28.8702C38.1201 29.9802 36.1001 32.9602 35.6301 36.1102C35.2601 38.6302 35.9901 40.8202 37.5501 41.8202C38.2001 42.1902 38.8401 42.3602 39.5501 42.3602C40.1201 42.3602 40.7401 42.2102 41.4801 41.8902C43.9601 40.8002 46.0201 37.7102 46.3901 34.5502C46.7401 32.1702 45.9901 29.9702 44.4701 28.9302C43.8701 28.5802 43.1901 28.4102 42.4801 28.4102V28.4302ZM39.5701 41.5402C39.5101 41.5402 39.4601 41.5402 39.4001 41.5402H39.2101L41.4201 35.7702L44.9001 37.0602L44.8401 37.1902C43.9901 39.0602 42.6301 40.5302 41.1101 41.2202C40.7401 41.3602 40.1901 41.5402 39.5701 41.5402ZM41.5701 36.1102L39.5901 41.2702C40.1601 41.2702 40.6601 41.1002 41.0001 40.9702C42.4201 40.3202 43.7101 38.9502 44.5301 37.2102L41.5701 36.1202V36.1102ZM38.4601 41.3502L38.3301 41.3002C38.2101 41.2502 38.0901 41.1902 37.9701 41.1202C36.6901 40.2402 36.1101 38.3902 36.4001 36.1802C36.5101 35.5302 36.6801 34.8902 36.9301 34.2402L36.9801 34.1102L40.7001 35.5002L40.6501 35.6302L38.4601 41.3602V41.3502ZM37.1401 34.4602C36.9201 35.0602 36.7701 35.6402 36.6701 36.2202C36.3901 38.3202 36.9401 40.0702 38.1201 40.8902C38.1801 40.9302 38.2401 40.9602 38.3101 40.9902L40.3501 35.6502L37.1401 34.4502V34.4602ZM45.1801 36.3402L41.6901 35.0402L43.8101 29.5102L44.0501 29.6802C45.3201 30.5602 45.9101 32.3702 45.6101 34.5202C45.5401 35.0802 45.4001 35.6402 45.2201 36.2102L45.1801 36.3402ZM42.0401 34.8802L45.0101 35.9802C45.1701 35.4702 45.2801 34.9702 45.3501 34.4702C45.6201 32.4802 45.0801 30.7402 43.9401 29.9202L42.0401 34.8802ZM40.9701 34.7902L37.2901 33.4202L37.3601 33.2802C38.2301 31.5802 39.5201 30.2302 40.9101 29.5702C41.3801 29.3302 41.9701 29.1802 42.4801 29.1802C42.6201 29.1802 42.7801 29.1802 42.9401 29.2002L43.1101 29.2202L40.9901 34.7702L40.9701 34.7902ZM37.6701 33.2702L40.8201 34.4402L42.7201 29.4602C42.6301 29.4602 42.5501 29.4602 42.4701 29.4602C42.0001 29.4602 41.4601 29.5902 41.0201 29.8202C39.7201 30.4402 38.5001 31.6902 37.6701 33.2702Z" fill="#155C6D"/>
<path d="M37.6899 45.7099C36.9399 45.7099 36.2099 45.5799 35.5099 45.2999C31.3199 43.6599 29.7999 37.4999 32.1299 31.5799C33.2499 28.7199 35.0899 26.3399 37.3099 24.8699C39.5499 23.3899 41.8999 23.0199 43.9399 23.8199C45.9799 24.6199 47.4499 26.4899 48.0899 29.0899C48.7199 31.6699 48.4499 34.6699 47.3299 37.5299C45.3999 42.4599 41.3999 45.6999 37.6999 45.6999L37.6899 45.7099ZM41.7299 23.6799C40.3399 23.6799 38.8699 24.1599 37.4499 25.0999C35.2799 26.5399 33.4699 28.8699 32.3699 31.6799C30.0999 37.4599 31.5499 43.4599 35.5999 45.0499C39.6499 46.6399 44.7899 43.2299 47.0599 37.4399C48.1599 34.6299 48.4299 31.6899 47.8099 29.1599C47.1999 26.6499 45.7799 24.8399 43.8299 24.0699C43.1599 23.8099 42.4599 23.6799 41.7299 23.6799Z" fill="#155C6D"/>
<path d="M35.5601 45.1701C31.4301 43.5501 29.9501 37.4901 32.2501 31.6301C34.5501 25.7701 39.7601 22.3301 43.8801 23.9501L42.6201 23.4601C38.4901 21.8401 33.2901 25.2801 30.9901 31.1401C28.6901 37.0001 30.1701 43.0601 34.3001 44.6801L35.5601 45.1701Z" fill="#C8DAE8"/>
<path d="M35.5599 45.3098C35.5599 45.3098 35.5299 45.3098 35.5099 45.3098L34.2499 44.8198C30.0599 43.1798 28.5399 37.0198 30.8699 31.0998C33.1899 25.1798 38.4899 21.6998 42.6799 23.3398L43.9399 23.8298C44.0099 23.8598 44.0399 23.9398 44.0199 24.0098C43.9899 24.0798 43.9099 24.1098 43.8399 24.0898C41.8899 23.3198 39.6199 23.6898 37.4599 25.1098C35.2899 26.5498 33.4799 28.8798 32.3799 31.6898C30.1099 37.4698 31.5599 43.4698 35.6099 45.0598C35.6799 45.0898 35.7099 45.1698 35.6899 45.2298C35.6699 45.2798 35.6199 45.3198 35.5599 45.3198V45.3098ZM40.4799 23.1898C36.8899 23.1898 32.9999 26.3598 31.1099 31.1898C28.9199 36.7598 30.1899 42.5398 33.9099 44.3698C30.9599 41.9498 30.1199 36.6798 32.1199 31.5898C33.2399 28.7298 35.0799 26.3498 37.2999 24.8798C38.8999 23.8298 40.5499 23.3398 42.1099 23.4298C41.5799 23.2698 41.0299 23.1998 40.4799 23.1998V23.1898Z" fill="#155C6D"/>
<path d="M46.0801 44.6698C46.0801 44.6698 46.05 44.6798 46.03 44.6898C45.41 44.9298 44.63 44.4298 44.3 43.5698" stroke="#155C6D" stroke-width="0.5" stroke-linecap="round" stroke-linejoin="round"/>
<path d="M50.24 42.1898C50.24 42.1898 50.21 42.1998 50.19 42.2098C49.57 42.4498 48.79 41.9498 48.46 41.0898" stroke="#155C6D" stroke-width="0.5" stroke-linecap="round" stroke-linejoin="round"/>
<path d="M55.59 37.2998L52.56 47.2798L39.26 54.9598L42.29 44.9798L55.59 37.2998Z" fill="#155C6D" stroke="#155C6D" stroke-width="0.25" stroke-linecap="round" stroke-linejoin="round"/>
<path d="M55.59 37.2998L61.42 49.5198L48.12 57.1898L42.29 44.9798L55.59 37.2998Z" fill="#C8DAE8" stroke="#155C6D" stroke-width="0.25" stroke-linecap="round" stroke-linejoin="round"/>
<path d="M48.04 45.1797L49.22 47.7097L47.19 48.8297L46.01 46.3097L48.04 45.1797Z" fill="#70C5AD" stroke="#155C6D" stroke-width="0.25" stroke-linecap="round" stroke-linejoin="round"/>
<path d="M51.6101 43.1499L52.7901 45.6699L50.7601 46.7899L49.5801 44.2699L51.6101 43.1499Z" fill="#70C5AD" stroke="#155C6D" stroke-width="0.25" stroke-linecap="round" stroke-linejoin="round"/>
<path d="M55.06 41.1099L56.24 43.6399L54.21 44.7599L53.02 42.2399L55.06 41.1099Z" fill="#70C5AD" stroke="#155C6D" stroke-width="0.25" stroke-linecap="round" stroke-linejoin="round"/>
<path d="M50.1899 49.2495L51.3699 51.7795L49.3299 52.8995L48.1499 50.3795L50.1899 49.2495Z" fill="#70C5AD" stroke="#155C6D" stroke-width="0.25" stroke-linecap="round" stroke-linejoin="round"/>
<path d="M53.75 47.2095L54.93 49.7395L52.9 50.8595L51.72 48.3395L53.75 47.2095Z" fill="#70C5AD" stroke="#155C6D" stroke-width="0.25" stroke-linecap="round" stroke-linejoin="round"/>
<path d="M57.1999 45.1797L58.3799 47.7097L56.3499 48.8297L55.1699 46.3097L57.1999 45.1797Z" fill="#70C5AD" stroke="#155C6D" stroke-width="0.25" stroke-linecap="round" stroke-linejoin="round"/>
<path d="M52.61 38.6199C52.28 37.7599 52.51 36.8699 53.13 36.6299C53.75 36.3899 54.53 36.8899 54.86 37.7499C55.19 38.6099 54.97 39.4499 54.38 39.7199" stroke="#155C6D" stroke-width="0.5" stroke-linecap="round" stroke-linejoin="round"/>
<path d="M48.4601 41.0999C48.1301 40.2399 48.3601 39.3499 48.9801 39.1099C49.6001 38.8699 50.3801 39.3699 50.7101 40.2299C51.0401 41.0899 50.8201 41.9299 50.2301 42.1999" stroke="#155C6D" stroke-width="0.5" stroke-linecap="round" stroke-linejoin="round"/>
<path d="M44.2999 43.5799C43.9699 42.7199 44.1999 41.8299 44.8199 41.5899C45.4399 41.3499 46.2199 41.8499 46.5499 42.7099C46.8799 43.5699 46.6599 44.4099 46.0699 44.6799" stroke="#155C6D" stroke-width="0.5" stroke-linecap="round" stroke-linejoin="round"/>
</g>
<defs>
<clipPath id="clip0_15036_785">
<rect width="53.55" height="58" fill="white" transform="translate(8 3)"/>
</clipPath>
</defs>
</svg>
