<svg width="63" height="64" viewBox="0 0 63 64" fill="none" xmlns="http://www.w3.org/2000/svg">
<path d="M7.99526 41.3032L44.0074 20.5862L37.7235 16.8575L2.39478 37.9186L7.99526 41.3032Z" fill="#C8DAE8"/>
<path d="M7.99534 41.4427C7.97023 41.4427 7.94513 41.4362 7.92374 41.4232L2.32325 38.0385C2.28048 38.0134 2.25537 37.9678 2.25537 37.9186C2.25537 37.8693 2.28141 37.8237 2.32325 37.7995L37.652 16.7384C37.6976 16.7124 37.7506 16.7124 37.7943 16.7384L44.0791 20.4671C44.1219 20.4922 44.1479 20.5387 44.1479 20.588C44.1479 20.6373 44.121 20.6838 44.0782 20.708L8.06508 41.4241C8.04369 41.4371 8.01858 41.4427 7.99534 41.4427ZM2.66544 37.9204L7.9972 41.1414L43.7323 20.5843L37.7236 17.0202L2.66544 37.9204Z" fill="#155C6D"/>
<path d="M2.39478 37.9186L7.99061 41.3032L44.0047 20.5862V22.1511L7.9934 42.8793L7.77768 42.7464C6.81435 42.8245 6.52517 44.1114 6.50843 45.7647C6.49077 47.5844 6.82923 49.2935 7.99248 50.5692V50.6687L44.0037 29.9628V31.5277L7.9934 52.256L2.39478 48.8164V47.2403H2.40965C3.5543 47.3622 3.77374 46.0976 3.78955 44.3104C3.80443 42.5465 3.59521 40.7816 2.52495 39.517L2.39478 39.4389V37.9186Z" fill="#70C5AD"/>
<path d="M7.99348 52.3954C7.96837 52.3954 7.94234 52.3889 7.92095 52.375L2.32232 48.9345C2.28048 48.9094 2.25537 48.8638 2.25537 48.8155V47.2403C2.25537 47.1631 2.31767 47.1008 2.39485 47.1008C2.69984 47.1297 2.91835 47.072 3.08945 46.9205C3.56739 46.4946 3.64085 45.362 3.65015 44.3094C3.66409 42.8198 3.53671 40.9443 2.43297 39.6248L2.32325 39.5598C2.28141 39.5346 2.25537 39.4891 2.25537 39.4398V37.9195C2.25537 37.8693 2.28234 37.8228 2.32697 37.7977C2.3716 37.7735 2.4246 37.7754 2.46645 37.7995L7.99255 41.1414L43.935 20.4653C43.9796 20.4392 44.0317 20.4411 44.0745 20.4653C44.1172 20.4904 44.1442 20.5359 44.1442 20.5862V22.1511C44.1442 22.2013 44.1172 22.2469 44.0745 22.272L8.06322 43.0002C8.01858 43.0272 7.96465 43.0253 7.92002 42.9983L7.74521 42.8895C7.02643 42.9835 6.66751 43.9254 6.64798 45.7656C6.62846 47.8326 7.09617 49.3687 8.07995 50.4576L43.935 29.8419C43.9796 29.8159 44.0317 29.8177 44.0745 29.8419C44.1172 29.867 44.1442 29.9126 44.1442 29.9628V31.5277C44.1442 31.5779 44.1172 31.6235 44.0745 31.6486L8.06322 52.3768C8.04183 52.3898 8.01672 52.3954 7.99348 52.3954ZM2.53433 48.7374L7.99627 52.0932L43.8652 31.4459V30.2036L8.06322 50.7896C8.01765 50.8156 7.96558 50.8137 7.92374 50.7896C7.88097 50.7645 7.854 50.7189 7.854 50.6687V50.6222C6.83489 49.4794 6.3495 47.8894 6.36903 45.7619C6.38298 44.4545 6.54291 42.7045 7.76752 42.6059C7.79821 42.6013 7.82704 42.6106 7.85214 42.6264L7.99627 42.7157L43.8652 22.0683V20.8261L8.06043 41.4241C8.0158 41.4511 7.96186 41.4483 7.91909 41.4232L2.53433 38.1668V39.3608L2.5957 39.398C2.60871 39.4063 2.61987 39.4166 2.6301 39.4277C3.80636 40.8178 3.94119 42.7687 3.92817 44.3122C3.91701 45.481 3.83147 46.6322 3.27356 47.1287C3.08015 47.3008 2.83932 47.3882 2.55571 47.3882C2.54827 47.3882 2.54084 47.3882 2.53433 47.3882V48.7374Z" fill="#155C6D"/>
<path d="M42.8135 22.8383L7.99343 42.8793L7.77771 42.7464C6.81438 42.8245 6.5252 44.1114 6.50846 45.7646C6.4908 47.5844 6.82926 49.2934 7.9925 50.5692V50.6687L44.0037 29.9628V29.9739L44.0093 29.9628V29.7963C42.8461 28.5317 42.5067 26.8115 42.5225 24.9918C42.5262 24.1373 42.6053 23.3831 42.8126 22.8392L42.8135 22.8383Z" fill="#155C6D"/>
<path d="M7.99342 50.8082C7.96925 50.8082 7.94507 50.8017 7.92368 50.7896C7.88091 50.7645 7.85395 50.7189 7.85395 50.6687V50.6222C6.83483 49.4794 6.34945 47.8894 6.36897 45.7619C6.38292 44.4545 6.54286 42.7045 7.76747 42.606C7.79815 42.6013 7.82698 42.6106 7.85209 42.6264L7.99621 42.7157L42.7438 22.7164C42.7968 22.6867 42.8591 22.6941 42.9047 22.7313C42.9493 22.7704 42.9651 22.8318 42.9446 22.8866C42.7596 23.372 42.6675 24.061 42.6638 24.9909C42.6443 27.0802 43.1185 28.6201 44.1135 29.7006C44.1367 29.7266 44.1507 29.7601 44.1507 29.7954V29.9618C44.1507 29.9832 44.1451 30.0046 44.1348 30.0241C44.1162 30.0613 44.0818 30.0892 44.0428 30.1013L8.06316 50.7896C8.04177 50.8026 8.01667 50.8082 7.99342 50.8082ZM7.74515 42.8896C7.02638 42.9835 6.66746 43.9254 6.64793 45.7656C6.6284 47.8326 7.09612 49.3688 8.0799 50.4576L43.8698 29.8782V29.8503C42.8507 28.7177 42.3644 27.1267 42.383 24.9899C42.3867 24.2265 42.4481 23.6156 42.5718 23.1377L8.06316 43.0002C8.01853 43.0272 7.9646 43.0253 7.91997 42.9983L7.74515 42.8896Z" fill="#155C6D"/>
<path d="M7.99526 29.5852L44.0074 8.86817L37.7235 5.13947L2.39478 26.2006L7.99526 29.5852Z" fill="#C8DAE8"/>
<path d="M7.99534 29.7247C7.97023 29.7247 7.94513 29.7182 7.92374 29.7052L2.32325 26.3205C2.28048 26.2954 2.25537 26.2499 2.25537 26.2006C2.25537 26.1513 2.28141 26.1057 2.32325 26.0816L37.652 5.01953C37.6976 4.99349 37.7506 4.99349 37.7943 5.01953L44.0791 8.74823C44.1219 8.77333 44.1479 8.81983 44.1479 8.86911C44.1479 8.91839 44.121 8.96488 44.0782 8.98906L8.06508 29.7061C8.04369 29.7191 8.01858 29.7247 7.99534 29.7247ZM2.66544 26.2015L7.9972 29.4225L43.7323 8.86632L37.7236 5.3022L2.66544 26.2015Z" fill="#155C6D"/>
<path d="M2.39478 26.2006L7.99061 29.5853L44.0047 8.86819V10.4331L7.9934 31.1614L7.77768 31.0284C6.81435 31.1065 6.52517 32.3934 6.50843 34.0467C6.49077 35.8664 6.82923 37.5755 7.99248 38.8512V38.9507L44.0037 18.2448V19.8097L7.9934 40.538L2.39478 37.0985V35.5224H2.40965C3.5543 35.6442 3.77374 34.3796 3.78955 32.5924C3.80443 30.8285 3.59521 29.0636 2.52495 27.799L2.39478 27.7209V26.2006Z" fill="#70C5AD"/>
<path d="M7.99348 40.6774C7.96837 40.6774 7.94234 40.6709 7.92095 40.657L2.32232 37.2165C2.28048 37.1914 2.25537 37.1459 2.25537 37.0975V35.5223C2.25537 35.4452 2.31767 35.3829 2.39485 35.3829C2.69984 35.4117 2.91835 35.354 3.08945 35.2025C3.56739 34.7766 3.64085 33.644 3.65015 32.5914C3.66409 31.1018 3.53671 29.2263 2.43297 27.9069L2.32325 27.8418C2.28141 27.8167 2.25537 27.7711 2.25537 27.7218V26.2015C2.25537 26.1513 2.28234 26.1048 2.32697 26.0797C2.3716 26.0555 2.4246 26.0574 2.46645 26.0816L7.99255 29.4234L43.935 8.74729C43.9796 8.72125 44.0317 8.72311 44.0745 8.74729C44.1172 8.7724 44.1442 8.81796 44.1442 8.86817V10.4331C44.1442 10.4833 44.1172 10.5289 44.0745 10.554L8.06322 31.2813C8.01858 31.3073 7.96465 31.3064 7.92002 31.2794L7.74521 31.1716C7.02643 31.2655 6.66751 32.2074 6.64798 34.0476C6.62846 36.1146 7.09617 37.6508 8.07995 38.7396L43.935 18.1239C43.9796 18.0979 44.0317 18.0997 44.0745 18.1239C44.1172 18.149 44.1442 18.1946 44.1442 18.2448V19.8097C44.1442 19.8599 44.1172 19.9055 44.0745 19.9306L8.06322 40.6588C8.04183 40.6718 8.01672 40.6774 7.99348 40.6774ZM2.53433 37.0194L7.99627 40.3752L43.8652 19.7279V18.4856L8.06322 39.0716C8.01765 39.0976 7.96558 39.0957 7.92374 39.0716C7.88097 39.0465 7.854 39.0009 7.854 38.9507V38.9042C6.83489 37.7614 6.3495 36.1714 6.36903 34.0439C6.38298 32.7365 6.54291 30.9865 7.76752 30.888C7.79821 30.8842 7.82518 30.8926 7.85214 30.9084L7.99627 30.9977L43.8652 10.3522V9.10993L8.06043 29.7061C8.0158 29.7331 7.96186 29.7303 7.91909 29.7052L2.53433 26.4489V27.6428L2.5957 27.68C2.60871 27.6883 2.61987 27.6986 2.6301 27.7097C3.80636 29.0999 3.94119 31.0507 3.92817 32.5942C3.91701 33.7631 3.83147 34.9142 3.27356 35.4108C3.08015 35.5828 2.83932 35.6702 2.55571 35.6702C2.54827 35.6702 2.54084 35.6702 2.53433 35.6702V37.0194Z" fill="#155C6D"/>
<path d="M42.8135 11.1203L7.99343 31.1613L7.77771 31.0284C6.81438 31.1065 6.5252 32.3934 6.50846 34.0467C6.4908 35.8664 6.82926 37.5754 7.9925 38.8512V38.9507L44.0037 18.2448V18.2559L44.0093 18.2448V18.0783C42.8461 16.8137 42.5067 15.0935 42.5225 13.2738C42.5262 12.4193 42.6053 11.6652 42.8126 11.1212L42.8135 11.1203Z" fill="#155C6D"/>
<path d="M7.99342 39.0902C7.96925 39.0902 7.94507 39.0836 7.92368 39.0716C7.88091 39.0465 7.85395 39.0009 7.85395 38.9507V38.9042C6.83483 37.7614 6.34945 36.1714 6.36897 34.0439C6.38292 32.7365 6.54286 30.9865 7.76747 30.8879C7.79815 30.8842 7.82512 30.8926 7.85209 30.9084L7.99621 30.9977L42.7438 10.9994C42.7968 10.9696 42.8591 10.9771 42.9047 11.0143C42.9493 11.0533 42.9651 11.1147 42.9446 11.1695C42.7596 11.6549 42.6675 12.3439 42.6638 13.2738C42.6443 15.3632 43.1185 16.903 44.1135 17.9835C44.1367 18.0095 44.1507 18.043 44.1507 18.0783V18.2448C44.1507 18.2662 44.1451 18.2875 44.1348 18.3071C44.1162 18.3443 44.0818 18.3722 44.0428 18.3842L8.06316 39.0716C8.04177 39.0846 8.01667 39.0902 7.99342 39.0902ZM7.74515 31.1716C7.02638 31.2655 6.66746 32.2074 6.64793 34.0476C6.6284 36.1146 7.09612 37.6508 8.0799 38.7396L43.8698 18.1602V18.1323C42.8507 16.9997 42.3644 15.4087 42.383 13.2719C42.3867 12.5085 42.4481 11.8976 42.5718 11.4197L8.06316 31.2813C8.01853 31.3073 7.9646 31.3064 7.91997 31.2794L7.74515 31.1716Z" fill="#155C6D"/>
<path d="M8.92587 27.5656C8.95097 27.521 8.96492 27.4661 8.96492 27.4103C8.96492 27.1658 8.67202 26.9556 8.30566 26.9556C7.93929 26.9556 7.64453 27.1667 7.64453 27.4103C7.64453 27.4661 7.65848 27.521 7.68358 27.5656C7.65848 27.6214 7.64453 27.666 7.64453 27.7209C7.64453 27.9757 7.94115 28.1756 8.30566 28.1756C8.67016 28.1756 8.96678 27.9757 8.96678 27.7321C8.96678 27.6763 8.9519 27.6214 8.92587 27.5656Z" fill="#70C5AD"/>
<path d="M8.30593 28.3151C7.85681 28.3151 7.50439 28.0538 7.50439 27.7209C7.50439 27.6614 7.51648 27.6121 7.53136 27.5675C7.51369 27.5182 7.50439 27.4643 7.50439 27.4103C7.50439 27.0821 7.86425 26.8162 8.30593 26.8162C8.7476 26.8162 9.10467 27.083 9.10467 27.4103C9.10467 27.4643 9.09444 27.5191 9.0777 27.5675C9.09723 27.6233 9.10653 27.6781 9.10653 27.7321C9.10653 28.0594 8.75411 28.3151 8.30593 28.3151ZM8.30593 27.0951C7.99815 27.0951 7.78335 27.2616 7.78335 27.4103C7.78335 27.442 7.79079 27.4736 7.80288 27.4968C7.82519 27.5359 7.82705 27.5833 7.80939 27.6242C7.78986 27.667 7.78335 27.6921 7.78335 27.7209C7.78335 27.892 8.02232 28.0361 8.30593 28.0361C8.61371 28.0361 8.82757 27.8762 8.82757 27.7321C8.82757 27.6986 8.8192 27.6642 8.80061 27.6251C8.78108 27.5842 8.78294 27.5359 8.80619 27.4959C8.8192 27.4726 8.82571 27.441 8.82571 27.4094C8.82571 27.2597 8.61278 27.0951 8.30593 27.0951Z" fill="#155C6D"/>
<path d="M7.83447 27.4103C7.83447 27.5321 8.03346 27.666 8.30033 27.666C8.56719 27.666 8.76432 27.5331 8.76432 27.4103C8.76432 27.2876 8.56533 27.1555 8.30033 27.1555C8.03532 27.1555 7.83447 27.2997 7.83447 27.4103Z" fill="#C8DAE8"/>
<path d="M8.30133 27.8055C7.96751 27.8055 7.69507 27.6288 7.69507 27.4113C7.69507 27.2011 7.97867 27.017 8.30133 27.017C8.63329 27.017 8.9048 27.1937 8.9048 27.4113C8.9048 27.6288 8.63329 27.8055 8.30133 27.8055ZM7.97681 27.4131C7.99913 27.4503 8.1135 27.5266 8.30133 27.5266C8.50125 27.5266 8.61655 27.4391 8.62678 27.4066C8.61562 27.3834 8.50032 27.295 8.30133 27.295C8.12187 27.295 8.00378 27.3741 7.97681 27.4131Z" fill="#155C6D"/>
<path d="M11.681 22.4282C11.7071 22.3836 11.721 22.3287 11.721 22.2729C11.721 22.0181 11.4244 21.8182 11.0599 21.8182C10.6954 21.8182 10.4006 22.0181 10.4006 22.2729C10.4006 22.3287 10.4146 22.3836 10.4397 22.4282C10.4146 22.4728 10.4006 22.5286 10.4006 22.5835C10.4006 22.828 10.6954 23.0382 11.0599 23.0382C11.4244 23.0382 11.721 22.8271 11.721 22.5835C11.721 22.5277 11.7071 22.484 11.681 22.4282Z" fill="#70C5AD"/>
<path d="M11.059 23.1777C10.6182 23.1777 10.2603 22.9108 10.2603 22.5835C10.2603 22.5305 10.2696 22.4766 10.2863 22.4282C10.2686 22.3798 10.2603 22.3259 10.2603 22.2729C10.2603 21.94 10.6117 21.6787 11.059 21.6787C11.5063 21.6787 11.8605 21.94 11.8605 22.2729C11.8605 22.3268 11.8503 22.3808 11.8326 22.4301C11.8494 22.4747 11.8605 22.5249 11.8605 22.5835C11.8605 22.9117 11.5007 23.1777 11.059 23.1777ZM11.059 21.9577C10.7773 21.9577 10.5392 22.1018 10.5392 22.2729C10.5392 22.3045 10.5466 22.3361 10.5587 22.3594C10.5829 22.4022 10.5829 22.4552 10.5587 22.497C10.5457 22.5203 10.5392 22.5519 10.5392 22.5835C10.5392 22.7323 10.7605 22.8987 11.059 22.8987C11.3575 22.8987 11.5816 22.7323 11.5816 22.5835C11.5816 22.5556 11.5751 22.5305 11.5546 22.4868C11.536 22.4459 11.5379 22.3984 11.5611 22.3594C11.5751 22.3352 11.5816 22.3036 11.5816 22.2729C11.5816 22.1018 11.3426 21.9577 11.059 21.9577Z" fill="#155C6D"/>
<path d="M10.5959 22.2729C10.5959 22.3947 10.7949 22.5286 11.0599 22.5286C11.325 22.5286 11.5258 22.3956 11.5258 22.2729C11.5258 22.1502 11.3268 22.007 11.0599 22.007C10.7931 22.007 10.5959 22.1511 10.5959 22.2729Z" fill="#C8DAE8"/>
<path d="M11.0609 22.6672C10.7281 22.6672 10.4565 22.4905 10.4565 22.2729C10.4565 22.0525 10.7336 21.8666 11.0609 21.8666C11.3883 21.8666 11.6663 22.0525 11.6663 22.2729C11.6663 22.4905 11.3948 22.6672 11.0609 22.6672ZM10.7364 22.272C10.755 22.3083 10.8703 22.3882 11.0609 22.3882C11.2599 22.3882 11.3771 22.3008 11.3883 22.2673C11.3799 22.245 11.2655 22.1455 11.0609 22.1455C10.8657 22.1455 10.7532 22.2367 10.7364 22.272Z" fill="#155C6D"/>
<path d="M14.6352 24.1707C14.6603 24.1149 14.6733 24.0601 14.6733 24.0043C14.6733 23.7597 14.3684 23.5496 14.0039 23.5496C13.6393 23.5496 13.3446 23.7495 13.3446 24.0043C13.3446 24.0601 13.3576 24.1149 13.3818 24.1596C13.3557 24.2154 13.3418 24.2702 13.3418 24.3149C13.3418 24.5696 13.6449 24.7807 14.0094 24.7807C14.3739 24.7807 14.6706 24.5696 14.6706 24.3149C14.6706 24.2702 14.6575 24.2144 14.6343 24.1707H14.6352Z" fill="#70C5AD"/>
<path d="M14.0105 24.9202C13.5651 24.9202 13.2034 24.6487 13.2034 24.3149C13.2034 24.2674 13.2136 24.2144 13.2313 24.1614C13.2145 24.1121 13.2052 24.0582 13.2052 24.0043C13.2052 23.6705 13.5567 23.4092 14.0049 23.4092C14.4503 23.4092 14.8139 23.676 14.8139 24.0043C14.8139 24.0582 14.8036 24.1131 14.786 24.1689C14.8027 24.2172 14.812 24.2684 14.812 24.3149C14.812 24.6487 14.4522 24.9202 14.0105 24.9202ZM14.0049 23.6881C13.7222 23.6881 13.4842 23.8332 13.4842 24.0043C13.4842 24.0359 13.4916 24.0684 13.5046 24.0926C13.5251 24.1317 13.527 24.1791 13.5084 24.22C13.4888 24.2609 13.4823 24.2963 13.4823 24.3158C13.4823 24.4897 13.7287 24.6422 14.0095 24.6422C14.2885 24.6422 14.5321 24.4897 14.5321 24.3158C14.5321 24.2963 14.5247 24.2619 14.5117 24.2349C14.4921 24.1968 14.4921 24.1531 14.5089 24.1149C14.5265 24.075 14.534 24.0387 14.534 24.0052C14.534 23.8564 14.308 23.6881 14.0049 23.6881Z" fill="#155C6D"/>
<path d="M13.5427 24.0043C13.5427 24.1261 13.7417 24.2591 14.0067 24.2591C14.2717 24.2591 14.4726 24.1261 14.4726 24.0043C14.4726 23.8936 14.2736 23.7495 14.0067 23.7495C13.7399 23.7495 13.5427 23.8825 13.5427 24.0043Z" fill="#C8DAE8"/>
<path d="M14.0068 24.3986C13.6748 24.3986 13.4033 24.2219 13.4033 24.0043C13.4033 23.7867 13.6748 23.61 14.0068 23.61C14.3304 23.61 14.6131 23.7942 14.6131 24.0043C14.6131 24.2219 14.3406 24.3986 14.0068 24.3986ZM13.6832 24.0043C13.7027 24.0406 13.8171 24.1205 14.0068 24.1205C14.2067 24.1205 14.3239 24.0322 14.335 23.9997C14.322 23.9801 14.2011 23.889 14.0068 23.889C13.8162 23.889 13.7027 23.9671 13.6832 24.0043Z" fill="#155C6D"/>
<path d="M5.97743 25.8352C6.00346 25.7905 6.01741 25.7357 6.01741 25.6799C6.01741 25.4251 5.72079 25.2252 5.35629 25.2252C4.99178 25.2252 4.69702 25.4251 4.69702 25.6799C4.69702 25.7357 4.71097 25.7905 4.73701 25.8352C4.71097 25.8798 4.69702 25.9347 4.69702 25.9905C4.69702 26.2452 4.98992 26.4452 5.35629 26.4452C5.72265 26.4452 6.01741 26.2452 6.01741 25.9905C6.01741 25.9347 6.00346 25.8798 5.97743 25.8352Z" fill="#70C5AD"/>
<path d="M5.35563 26.5846C4.90837 26.5846 4.55688 26.3243 4.55688 25.9905C4.55688 25.9375 4.56711 25.8845 4.58385 25.8352C4.56618 25.7859 4.55688 25.7329 4.55688 25.6799C4.55688 25.347 4.90837 25.0857 5.35563 25.0857C5.80288 25.0857 6.15716 25.347 6.15716 25.6799C6.15716 25.7329 6.14693 25.7859 6.13019 25.8352C6.14786 25.8845 6.15716 25.9375 6.15716 25.9905C6.15716 26.3234 5.80474 26.5846 5.35563 26.5846ZM5.35563 25.3637C5.07388 25.3637 4.83584 25.5079 4.83584 25.679C4.83584 25.7097 4.84328 25.7413 4.8563 25.7654C4.88047 25.8082 4.88047 25.8612 4.8563 25.9031C4.84235 25.9272 4.83584 25.9589 4.83584 25.9895C4.83584 26.1606 5.07388 26.3048 5.35563 26.3048C5.63923 26.3048 5.8782 26.1606 5.8782 25.9895C5.8782 25.9589 5.87076 25.9272 5.85775 25.9031C5.83357 25.8603 5.83357 25.8073 5.85775 25.7654C5.87169 25.7413 5.8782 25.7097 5.8782 25.679C5.8782 25.5079 5.63923 25.3637 5.35563 25.3637Z" fill="#155C6D"/>
<path d="M4.89404 25.6799C4.89404 25.8017 5.09303 25.9347 5.35804 25.9347C5.62305 25.9347 5.82389 25.8017 5.82389 25.6799C5.82389 25.5581 5.62491 25.4251 5.35804 25.4251C5.09117 25.4251 4.89404 25.5581 4.89404 25.6799Z" fill="#C8DAE8"/>
<path d="M5.35811 26.0741C5.02616 26.0741 4.75464 25.8975 4.75464 25.6799C4.75464 25.4623 5.02616 25.2856 5.35811 25.2856C5.69193 25.2856 5.96344 25.4623 5.96344 25.6799C5.96344 25.8975 5.69193 26.0741 5.35811 26.0741ZM5.03452 25.6789C5.05405 25.7152 5.16749 25.7952 5.35811 25.7952C5.55803 25.7952 5.67426 25.7078 5.68542 25.6743C5.67519 25.651 5.55803 25.5636 5.35811 25.5636C5.16749 25.5636 5.05405 25.6436 5.03452 25.6799V25.6789Z" fill="#155C6D"/>
<path d="M35.5311 11.8865C35.5562 11.8418 35.5701 11.787 35.5701 11.7312C35.5701 11.4866 35.2772 11.2765 34.9109 11.2765C34.5445 11.2765 34.2498 11.4876 34.2498 11.7312C34.2498 11.787 34.2637 11.8418 34.2888 11.8865C34.2637 11.9423 34.2498 11.9869 34.2498 12.0418C34.2498 12.2965 34.5464 12.4965 34.9109 12.4965C35.2754 12.4965 35.572 12.2965 35.572 12.0529C35.572 11.9971 35.5571 11.9423 35.5311 11.8865Z" fill="#70C5AD"/>
<path d="M34.91 12.6359C34.4618 12.6359 34.1094 12.3746 34.1094 12.0418C34.1094 11.9822 34.1215 11.933 34.1363 11.8883C34.1187 11.839 34.1094 11.7851 34.1094 11.7303C34.1094 11.4029 34.4692 11.1361 34.91 11.1361C35.3507 11.1361 35.7087 11.4029 35.7087 11.7303C35.7087 11.7842 35.6985 11.8381 35.6818 11.8874C35.7013 11.9423 35.7115 11.998 35.7115 12.052C35.7115 12.3793 35.3591 12.6359 34.91 12.6359ZM34.91 11.416C34.6022 11.416 34.3883 11.5824 34.3883 11.7312C34.3883 11.7628 34.3958 11.7944 34.4079 11.8177C34.4302 11.8567 34.432 11.9041 34.4144 11.945C34.3948 11.9878 34.3883 12.0129 34.3883 12.0418C34.3883 12.2128 34.6273 12.357 34.91 12.357C35.2178 12.357 35.4326 12.1961 35.4326 12.052C35.4326 12.0194 35.4242 11.985 35.4056 11.9478C35.3861 11.906 35.3861 11.8567 35.4102 11.8167C35.4233 11.7935 35.4298 11.7619 35.4298 11.7303C35.4298 11.5815 35.2168 11.416 34.91 11.416Z" fill="#155C6D"/>
<path d="M34.4392 11.7312C34.4392 11.853 34.6382 11.9869 34.9051 11.9869C35.1719 11.9869 35.3691 11.8539 35.3691 11.7312C35.3691 11.6084 35.1701 11.4764 34.9051 11.4764C34.6401 11.4764 34.4392 11.6205 34.4392 11.7312Z" fill="#C8DAE8"/>
<path d="M34.9051 12.1254C34.5713 12.1254 34.2998 11.9488 34.2998 11.7303C34.2998 11.5201 34.5834 11.336 34.9051 11.336C35.2371 11.336 35.5086 11.5127 35.5086 11.7303C35.5086 11.9478 35.2371 12.1254 34.9051 12.1254ZM34.5825 11.733C34.6039 11.7702 34.7182 11.8465 34.9061 11.8465C35.106 11.8465 35.2213 11.7591 35.2315 11.7265C35.2204 11.7024 35.1051 11.615 34.9061 11.615C34.7266 11.615 34.6094 11.694 34.5825 11.733Z" fill="#155C6D"/>
<path d="M38.2853 6.7481C38.3113 6.70347 38.3253 6.64861 38.3253 6.59282C38.3253 6.33711 38.0286 6.13812 37.6641 6.13812C37.2996 6.13812 37.0049 6.3492 37.0049 6.59282C37.0049 6.64861 37.0188 6.70347 37.0439 6.7481C37.0188 6.79274 37.0049 6.84853 37.0049 6.90339C37.0049 7.15817 37.2996 7.35809 37.6641 7.35809C38.0286 7.35809 38.3253 7.15817 38.3253 6.90339C38.3253 6.8476 38.3113 6.8039 38.2853 6.7481Z" fill="#70C5AD"/>
<path d="M37.6639 7.49852C37.2157 7.49852 36.8643 7.23723 36.8643 6.90435C36.8643 6.85135 36.8736 6.79741 36.8903 6.74906C36.8726 6.70071 36.8643 6.64678 36.8643 6.59378C36.8643 6.26554 37.2232 5.9996 37.6639 5.9996C38.1121 5.9996 38.4645 6.26089 38.4645 6.59378C38.4645 6.64864 38.4543 6.70257 38.4376 6.75092C38.4534 6.7937 38.4645 6.84484 38.4645 6.90435C38.4645 7.23723 38.1121 7.49852 37.6639 7.49852ZM37.6639 6.27763C37.3571 6.27763 37.1432 6.44407 37.1432 6.59285C37.1432 6.62446 37.1507 6.65608 37.1627 6.67932C37.1869 6.7221 37.1869 6.7751 37.1627 6.81694C37.1497 6.84019 37.1432 6.8718 37.1432 6.90342C37.1432 7.07451 37.3813 7.21864 37.6639 7.21864C37.9466 7.21864 38.1856 7.07451 38.1856 6.90342C38.1856 6.87738 38.1819 6.85507 38.1595 6.80764C38.14 6.7658 38.1419 6.71652 38.166 6.67653C38.1791 6.65422 38.1856 6.62353 38.1856 6.59192C38.1856 6.42083 37.9466 6.27763 37.6639 6.27763Z" fill="#155C6D"/>
<path d="M37.2007 6.59377C37.2007 6.71558 37.3997 6.84855 37.6647 6.84855C37.9297 6.84855 38.1305 6.71558 38.1305 6.59377C38.1305 6.47196 37.9315 6.3269 37.6647 6.3269C37.3978 6.3269 37.2007 6.47103 37.2007 6.59377Z" fill="#C8DAE8"/>
<path d="M37.6648 6.98804C37.3328 6.98804 37.0613 6.81137 37.0613 6.59378C37.0613 6.37341 37.3384 6.18744 37.6648 6.18744C37.9939 6.18744 38.271 6.37341 38.271 6.59378C38.271 6.81137 37.9986 6.98804 37.6648 6.98804ZM37.3421 6.59285C37.3607 6.62912 37.4751 6.70908 37.6657 6.70908C37.8656 6.70908 37.9828 6.62168 37.9939 6.5882C37.9846 6.56682 37.8703 6.46639 37.6657 6.46639C37.4704 6.46639 37.3588 6.55752 37.3421 6.59285Z" fill="#155C6D"/>
<path d="M41.2402 8.49065C41.2653 8.43486 41.2783 8.39115 41.2783 8.33536C41.2783 8.08058 40.9733 7.86951 40.6088 7.86951C40.2443 7.86951 39.9496 8.06942 39.9496 8.33536C39.9496 8.39115 39.9626 8.43486 39.9868 8.49065C39.9607 8.53528 39.9468 8.59014 39.9468 8.64593C39.9468 8.89048 40.2499 9.10063 40.6144 9.10063C40.9789 9.10063 41.2755 8.88955 41.2755 8.64593C41.2755 8.59014 41.2625 8.53528 41.2393 8.49065H41.2402Z" fill="#70C5AD"/>
<path d="M40.6155 9.24012C40.1701 9.24012 39.8083 8.97325 39.8083 8.64594C39.8083 8.59108 39.8186 8.53622 39.8362 8.48694C39.8204 8.44324 39.8102 8.39302 39.8102 8.33537C39.8102 7.99598 40.1617 7.73004 40.609 7.73004C41.0562 7.73004 41.4188 8.00156 41.4188 8.33537C41.4188 8.39581 41.4068 8.44603 41.391 8.49066C41.4077 8.53901 41.4161 8.59294 41.4161 8.64594C41.4161 8.97418 41.0562 9.24012 40.6155 9.24012ZM40.609 8.009C40.3216 8.009 40.0892 8.15591 40.0892 8.3363C40.0892 8.36606 40.0957 8.39117 40.1143 8.43673C40.1319 8.47671 40.1291 8.52227 40.1068 8.5604C40.0938 8.58364 40.0873 8.61526 40.0873 8.64687C40.0873 8.79565 40.3123 8.96209 40.6145 8.96209C40.913 8.96209 41.1362 8.79565 41.1362 8.64687C41.1362 8.6134 41.1287 8.58085 41.1166 8.55668C41.0971 8.51762 41.0953 8.47299 41.1129 8.43301C41.1325 8.39024 41.139 8.36513 41.139 8.3363C41.139 8.16242 40.8907 8.009 40.609 8.009Z" fill="#155C6D"/>
<path d="M40.1477 8.33538C40.1477 8.44603 40.3467 8.59016 40.6117 8.59016C40.8767 8.59016 41.0776 8.44603 41.0776 8.33538C41.0776 8.21357 40.8786 8.0806 40.6117 8.0806C40.3448 8.0806 40.1477 8.21357 40.1477 8.33538Z" fill="#C8DAE8"/>
<path d="M40.6117 8.72961C40.2891 8.72961 40.0073 8.5455 40.0073 8.33536C40.0073 8.11777 40.2788 7.9411 40.6117 7.9411C40.9446 7.9411 41.2171 8.11777 41.2171 8.33536C41.2171 8.5455 40.9335 8.72961 40.6117 8.72961ZM40.2891 8.3335C40.3142 8.37255 40.4313 8.45159 40.6117 8.45159C40.8042 8.45159 40.926 8.35953 40.94 8.32513C40.9288 8.30746 40.8116 8.22006 40.6117 8.22006C40.4248 8.22006 40.3114 8.2963 40.2891 8.3335Z" fill="#155C6D"/>
<path d="M32.5822 10.1551C32.6082 10.1105 32.6221 10.0556 32.6221 9.9998C32.6221 9.74502 32.3255 9.5451 31.961 9.5451C31.5965 9.5451 31.3018 9.74502 31.3018 9.9998C31.3018 10.0556 31.3157 10.1105 31.3417 10.1551C31.3157 10.2109 31.3018 10.2546 31.3018 10.3104C31.3018 10.5652 31.5947 10.7651 31.961 10.7651C32.3274 10.7651 32.6221 10.5652 32.6221 10.3104C32.6221 10.2546 32.6082 10.2099 32.5822 10.1551Z" fill="#70C5AD"/>
<path d="M31.9601 10.9046C31.5129 10.9046 31.1614 10.6433 31.1614 10.3104C31.1614 10.2509 31.1735 10.2007 31.1883 10.157C31.1707 10.1077 31.1614 10.0537 31.1614 9.99981C31.1614 9.66693 31.5129 9.40564 31.9601 9.40564C32.4074 9.40564 32.7607 9.66693 32.7607 9.99981C32.7607 10.0537 32.7505 10.1077 32.7338 10.157C32.7496 10.2007 32.7607 10.2509 32.7607 10.3104C32.7607 10.6433 32.4083 10.9046 31.9601 10.9046ZM31.9601 9.68459C31.6784 9.68459 31.4403 9.82872 31.4403 9.99981C31.4403 10.0314 31.4478 10.0621 31.4599 10.0844C31.4831 10.1235 31.4859 10.1737 31.4664 10.2155C31.4441 10.262 31.4403 10.2853 31.4403 10.3113C31.4403 10.4824 31.6784 10.6265 31.9601 10.6265C32.2419 10.6265 32.4818 10.4824 32.4818 10.3113C32.4818 10.2816 32.4753 10.2574 32.4557 10.2146C32.4371 10.1737 32.439 10.1263 32.4622 10.0872C32.4753 10.064 32.4818 10.0324 32.4818 10.0007C32.4818 9.82965 32.2428 9.68459 31.9601 9.68459Z" fill="#155C6D"/>
<path d="M31.4993 9.9998C31.4993 10.1216 31.6983 10.2546 31.9633 10.2546C32.2283 10.2546 32.4291 10.1216 32.4291 9.9998C32.4291 9.87799 32.2301 9.74503 31.9633 9.74503C31.6964 9.74503 31.4993 9.87799 31.4993 9.9998Z" fill="#C8DAE8"/>
<path d="M31.9624 10.3941C31.6304 10.3941 31.3589 10.2174 31.3589 9.99982C31.3589 9.78223 31.6304 9.60556 31.9624 9.60556C32.2962 9.60556 32.5686 9.78223 32.5686 9.99982C32.5686 10.2174 32.2962 10.3941 31.9624 10.3941ZM31.6397 9.99982C31.6592 10.0361 31.7736 10.116 31.9633 10.116C32.1632 10.116 32.2804 10.0286 32.2915 9.99517C32.2804 9.97285 32.1641 9.88452 31.9633 9.88452C31.7727 9.88452 31.6592 9.96355 31.6397 10.0007V9.99982Z" fill="#155C6D"/>
<path d="M25.8903 46.9297L61.9025 26.2127L55.6185 22.484L20.2898 43.5451L25.8903 46.9297Z" fill="#C8DAE8"/>
<path d="M25.8904 47.0683C25.8653 47.0683 25.8401 47.0618 25.8188 47.0488L20.2183 43.6641C20.1755 43.639 20.1504 43.5935 20.1504 43.5442C20.1504 43.4949 20.1764 43.4493 20.2183 43.4252L55.547 22.364C55.5926 22.338 55.6456 22.338 55.6893 22.364L61.9741 26.0927C62.0169 26.1178 62.0429 26.1643 62.0429 26.2136C62.0429 26.2629 62.016 26.3094 61.9732 26.3336L25.961 47.0506C25.9396 47.0637 25.9145 47.0692 25.8913 47.0692L25.8904 47.0683ZM20.5605 43.546L25.8922 46.767L61.6273 26.2099L55.6186 22.6458L20.5605 43.546Z" fill="#155C6D"/>
<path d="M20.2897 43.5451L25.8856 46.9298L61.8996 26.2127V27.7776L25.8884 48.5059L25.6727 48.3729C24.7093 48.451 24.4201 49.7379 24.4034 51.3912C24.3857 53.2109 24.7242 54.92 25.8874 56.1957V56.2952L61.8987 35.5893V37.1543L25.8874 57.8825L20.2888 54.443V52.8669H20.3037C21.4483 52.9887 21.6678 51.7241 21.6836 49.9369C21.6985 48.173 21.4893 46.4081 20.419 45.1435L20.2888 45.0654L20.2897 43.5451Z" fill="#70C5AD"/>
<path d="M25.8885 58.021C25.8634 58.021 25.8374 58.0145 25.816 58.0006L20.2173 54.5601C20.1755 54.535 20.1504 54.4895 20.1504 54.4411V52.8659C20.1504 52.7888 20.2127 52.7265 20.2899 52.7265C20.6014 52.7572 20.8143 52.6976 20.9845 52.5461C21.4624 52.1202 21.5359 50.9867 21.5452 49.9351C21.5591 48.4454 21.4317 46.569 20.328 45.2495L20.2183 45.1845C20.1764 45.1593 20.1504 45.1138 20.1504 45.0645V43.5442C20.1504 43.494 20.1774 43.4475 20.222 43.4224C20.2666 43.3982 20.3206 43.4001 20.3615 43.4242L25.8876 46.7661L61.8291 26.09C61.8728 26.0639 61.9258 26.0658 61.9686 26.09C62.0113 26.1151 62.0383 26.1606 62.0383 26.2109V27.7758C62.0383 27.826 62.0113 27.8716 61.9686 27.8967L25.9573 48.6249C25.9127 48.6519 25.8587 48.65 25.8141 48.623L25.6393 48.5142C24.9205 48.6082 24.5616 49.5501 24.5421 51.3903C24.5216 53.4564 24.9893 54.9916 25.974 56.0823L61.8281 35.4666C61.8718 35.4405 61.9249 35.4424 61.9676 35.4666C62.0104 35.4917 62.0374 35.5373 62.0374 35.5875V37.1524C62.0374 37.2026 62.0104 37.2482 61.9676 37.2733L25.9564 58.0015C25.935 58.0145 25.9099 58.0201 25.8866 58.0201L25.8885 58.021ZM20.4293 54.3639L25.8913 57.7198L61.7593 37.0724V35.8302L25.9582 56.4161C25.9127 56.4422 25.8606 56.4394 25.8188 56.4161C25.776 56.391 25.749 56.3454 25.749 56.2952V56.2487C24.729 55.105 24.2436 53.515 24.264 51.3884C24.278 50.081 24.4379 48.3311 25.6625 48.2325C25.6914 48.2288 25.7221 48.2371 25.7472 48.253L25.8913 48.3422L61.7593 27.6949V26.4526L25.9554 47.0497C25.9108 47.0767 25.8569 47.0739 25.8141 47.0488L20.4293 43.7925V44.9864L20.4907 45.0236C20.5037 45.032 20.5149 45.0422 20.5251 45.0533C21.7014 46.4435 21.8362 48.3943 21.8232 49.9388C21.812 51.1076 21.7265 52.2588 21.1686 52.7553C20.9705 52.931 20.7362 53.0175 20.4284 53.0138L20.4293 54.3639Z" fill="#155C6D"/>
<path d="M60.7086 28.4648L25.8885 48.5049L25.6727 48.372C24.7094 48.4501 24.4202 49.737 24.4035 51.3902C24.3858 53.21 24.7243 54.919 25.8875 56.1948V56.2943L61.8988 35.5884V35.5995L61.9044 35.5884V35.4219C60.7411 34.1573 60.4017 32.4371 60.4175 30.6174C60.4212 29.7629 60.5012 29.0087 60.7086 28.4648Z" fill="#155C6D"/>
<path d="M25.8885 56.4347C25.8643 56.4347 25.8401 56.4282 25.8188 56.4161C25.776 56.391 25.749 56.3454 25.749 56.2952V56.2487C24.729 55.105 24.2436 53.5149 24.264 51.3884C24.278 50.081 24.4379 48.331 25.6625 48.2325C25.6914 48.2287 25.7221 48.2371 25.7472 48.2529L25.8913 48.3422L60.6389 28.3439C60.6919 28.3141 60.7551 28.3216 60.7997 28.3588C60.8444 28.3978 60.8602 28.4592 60.8388 28.515C60.6547 28.9966 60.5626 29.6847 60.558 30.6183C60.5394 32.7077 61.0136 34.2475 62.0076 35.328C62.0309 35.354 62.0448 35.3875 62.0448 35.4228V35.5893C62.0448 35.6107 62.0392 35.6321 62.029 35.6516C62.0104 35.6888 61.976 35.7167 61.9369 35.7288L25.9582 56.417C25.9368 56.43 25.9117 56.4347 25.8885 56.4347ZM25.6412 48.5151C24.9224 48.6091 24.5635 49.551 24.5439 51.3912C24.5235 53.4573 24.9912 54.9925 25.9759 56.0832L61.7649 35.5037V35.4758C60.7467 34.3433 60.2604 32.7523 60.2781 30.6155C60.2827 29.8503 60.3441 29.2403 60.4678 28.7633L25.9582 48.6249C25.9136 48.6518 25.8597 48.65 25.815 48.623L25.6402 48.5142L25.6412 48.5151Z" fill="#155C6D"/>
<path d="M25.8903 35.2118L61.9025 14.4947L55.6185 10.766L20.2898 31.8271L25.8903 35.2118Z" fill="#C8DAE8"/>
<path d="M25.8904 35.3503C25.8653 35.3503 25.8401 35.3438 25.8188 35.3308L20.2183 31.9461C20.1755 31.921 20.1504 31.8755 20.1504 31.8262C20.1504 31.7769 20.1764 31.7313 20.2183 31.7071L55.547 10.6451C55.5926 10.6191 55.6456 10.6191 55.6893 10.6451L61.9741 14.3738C62.0169 14.3989 62.0429 14.4454 62.0429 14.4947C62.0429 14.544 62.016 14.5905 61.9732 14.6146L25.961 35.3317C25.9396 35.3447 25.9136 35.3503 25.8904 35.3503ZM20.5605 31.828L25.8922 35.049L61.6273 14.4919L55.6186 10.9278L20.5605 31.828Z" fill="#155C6D"/>
<path d="M20.2897 31.8271L25.8856 35.2118L61.8996 14.4947V16.0596L25.8884 36.7879L25.6727 36.6549C24.7093 36.733 24.4201 38.0199 24.4034 39.6732C24.3857 41.4929 24.7242 43.202 25.8874 44.4777V44.5772L61.8987 23.8713V25.4362L25.8874 46.1645L20.2888 42.7249V41.1489H20.3037C21.4483 41.2707 21.6678 40.0061 21.6836 38.2189C21.6985 36.455 21.4893 34.6901 20.419 33.4255L20.2888 33.3474L20.2897 31.8271Z" fill="#70C5AD"/>
<path d="M25.8885 46.303C25.8634 46.303 25.8374 46.2965 25.816 46.2826L20.2173 42.8421C20.1755 42.817 20.1504 42.7714 20.1504 42.7231V41.1479C20.1504 41.0707 20.2127 41.0084 20.2899 41.0084C20.6014 41.0391 20.8143 40.9796 20.9845 40.8281C21.4624 40.4022 21.5359 39.2687 21.5452 38.217C21.5591 36.7274 21.4317 34.851 20.328 33.5315L20.2183 33.4664C20.1764 33.4413 20.1504 33.3958 20.1504 33.3465V31.8262C20.1504 31.776 20.1774 31.7295 20.222 31.7044C20.2666 31.6802 20.3206 31.682 20.3615 31.7062L25.8876 35.0481L61.8291 14.372C61.8728 14.3459 61.9258 14.3478 61.9686 14.372C62.0113 14.3971 62.0383 14.4426 62.0383 14.4928V16.0578C62.0383 16.108 62.0113 16.1535 61.9686 16.1787L25.9573 36.9069C25.9127 36.9329 25.8587 36.932 25.8141 36.905L25.6393 36.7962C24.9205 36.8901 24.5616 37.8321 24.5421 39.6723C24.5216 41.7384 24.9893 43.2736 25.974 44.3643L61.8281 23.7486C61.8718 23.7225 61.9249 23.7244 61.9676 23.7486C62.0104 23.7737 62.0374 23.8192 62.0374 23.8694V25.4344C62.0374 25.4846 62.0104 25.5302 61.9676 25.5553L25.9564 46.2835C25.935 46.2965 25.9099 46.3021 25.8866 46.3021L25.8885 46.303ZM20.4293 42.6459L25.8913 46.0017L61.7593 25.3544V24.1121L25.9582 44.6981C25.9127 44.7241 25.8606 44.7213 25.8188 44.6981C25.776 44.673 25.749 44.6274 25.749 44.5772V44.5307C24.729 43.387 24.2436 41.797 24.264 39.6704C24.278 38.363 24.4379 36.613 25.6625 36.5145C25.6914 36.5117 25.7221 36.5191 25.7472 36.5349L25.8913 36.6242L61.7593 15.9769V14.7346L25.9554 35.3317C25.9108 35.3587 25.8569 35.3559 25.8141 35.3308L20.4293 32.0744V33.2684L20.4907 33.3056C20.5037 33.3139 20.5149 33.3242 20.5251 33.3353C21.7014 34.7254 21.8362 36.6763 21.8232 38.2208C21.812 39.3896 21.7265 40.5407 21.1686 41.0373C20.9705 41.2139 20.7362 41.3032 20.4284 41.2958L20.4293 42.6459Z" fill="#155C6D"/>
<path d="M60.7086 16.7468L25.8885 36.7869L25.6727 36.654C24.7094 36.7321 24.4202 38.019 24.4035 39.6723C24.3858 41.492 24.7243 43.201 25.8875 44.4768V44.5763L61.8988 23.8704V23.8815L61.9044 23.8704V23.7039C60.7411 22.4393 60.4017 20.7191 60.4175 18.8994C60.4212 18.0449 60.5012 17.2908 60.7086 16.7468Z" fill="#155C6D"/>
<path d="M25.8885 44.7167C25.8643 44.7167 25.8401 44.7102 25.8188 44.6981C25.776 44.673 25.749 44.6274 25.749 44.5772V44.5307C24.729 43.387 24.2436 41.797 24.264 39.6704C24.278 38.363 24.4379 36.613 25.6625 36.5145C25.6914 36.5117 25.7221 36.5191 25.7472 36.5349L25.8913 36.6242L60.6389 16.6259C60.6919 16.5961 60.7551 16.6036 60.7997 16.6408C60.8444 16.6798 60.8602 16.7412 60.8388 16.797C60.6547 17.2787 60.5626 17.9667 60.558 18.9003C60.5394 20.9897 61.0136 22.5295 62.0076 23.61C62.0309 23.636 62.0448 23.6695 62.0448 23.7049V23.8713C62.0448 23.8927 62.0392 23.9141 62.029 23.9336C62.0104 23.9708 61.976 23.9987 61.9369 24.0108L25.9582 44.699C25.9368 44.712 25.9117 44.7167 25.8885 44.7167ZM25.6412 36.7971C24.9224 36.8911 24.5635 37.833 24.5439 39.6732C24.5235 41.7393 24.9912 43.2745 25.9759 44.3652L61.7649 23.7858V23.7579C60.7467 22.6253 60.2604 21.0343 60.2781 18.8975C60.2827 18.1323 60.3441 17.5223 60.4678 17.0453L25.9582 36.9069C25.9136 36.9329 25.8597 36.932 25.815 36.905L25.6402 36.7962L25.6412 36.7971Z" fill="#155C6D"/>
<path d="M26.8211 33.1921C26.8462 33.1475 26.8602 33.0926 26.8602 33.0369C26.8602 32.7923 26.5673 32.5822 26.2009 32.5822C25.8346 32.5822 25.5398 32.7932 25.5398 33.0369C25.5398 33.0926 25.5537 33.1475 25.5788 33.1921C25.5537 33.2479 25.5398 33.2926 25.5398 33.3474C25.5398 33.6022 25.8364 33.8021 26.2009 33.8021C26.5654 33.8021 26.862 33.6022 26.862 33.3586C26.862 33.3028 26.8472 33.2479 26.8211 33.1921Z" fill="#70C5AD"/>
<path d="M26.2 33.9416C25.7518 33.9416 25.3994 33.6803 25.3994 33.3474C25.3994 33.2879 25.4115 33.2386 25.4264 33.194C25.4087 33.1447 25.3994 33.0908 25.3994 33.0369C25.3994 32.7086 25.7593 32.4427 26.2 32.4427C26.6408 32.4427 26.9997 32.7096 26.9997 33.0369C26.9997 33.0899 26.9895 33.1438 26.9727 33.194C26.9922 33.2498 27.0015 33.3047 27.0015 33.3586C27.0015 33.6859 26.6491 33.9416 26.2 33.9416ZM26.2 32.7207C25.8922 32.7207 25.6784 32.8872 25.6784 33.0359C25.6784 33.0675 25.6858 33.0992 25.6979 33.1224C25.7202 33.1615 25.7221 33.2089 25.7044 33.2498C25.6849 33.2926 25.6784 33.3177 25.6784 33.3465C25.6784 33.5176 25.9173 33.6617 26.2 33.6617C26.5078 33.6617 26.7226 33.5018 26.7226 33.3577C26.7226 33.3251 26.7133 33.2889 26.6956 33.2507C26.6761 33.2107 26.678 33.1624 26.6993 33.1233C26.7142 33.0982 26.7207 33.0657 26.7207 33.035C26.7207 32.8853 26.5078 32.7207 26.2 32.7207Z" fill="#155C6D"/>
<path d="M25.7295 33.0359C25.7295 33.1577 25.9285 33.2916 26.1953 33.2916C26.4622 33.2916 26.6593 33.1586 26.6593 33.0359C26.6593 32.9132 26.4604 32.7811 26.1953 32.7811C25.9303 32.7811 25.7295 32.9253 25.7295 33.0359Z" fill="#C8DAE8"/>
<path d="M26.1954 33.4311C25.8616 33.4311 25.5901 33.2544 25.5901 33.0368C25.5901 32.8267 25.8737 32.6426 26.1954 32.6426C26.5274 32.6426 26.7989 32.8192 26.7989 33.0368C26.7989 33.2544 26.5274 33.4311 26.1954 33.4311ZM25.8728 33.0387C25.8951 33.0759 26.0085 33.1521 26.1963 33.1521C26.3963 33.1521 26.5116 33.0647 26.5218 33.0322C26.5116 33.0089 26.3953 32.9206 26.1963 32.9206C26.0169 32.9206 25.8997 32.9996 25.8728 33.0387Z" fill="#155C6D"/>
<path d="M29.5751 28.0538C29.6011 28.0091 29.6151 27.9543 29.6151 27.8985C29.6151 27.6437 29.3184 27.4438 28.9539 27.4438C28.5894 27.4438 28.2947 27.6437 28.2947 27.8985C28.2947 27.9543 28.3086 28.0091 28.3337 28.0538C28.3086 28.0984 28.2947 28.1542 28.2947 28.2091C28.2947 28.4536 28.5894 28.6638 28.9539 28.6638C29.3184 28.6638 29.6151 28.4527 29.6151 28.2091C29.6151 28.1533 29.6011 28.1096 29.5751 28.0538Z" fill="#70C5AD"/>
<path d="M28.954 28.8032C28.5133 28.8032 28.1553 28.5364 28.1553 28.2091C28.1553 28.1561 28.1646 28.1031 28.1813 28.0538C28.1636 28.0054 28.1553 27.9515 28.1553 27.8985C28.1553 27.5656 28.5068 27.3043 28.954 27.3043C29.4013 27.3043 29.7546 27.5656 29.7546 27.8985C29.7546 27.9534 29.7444 28.0073 29.7277 28.0556C29.7435 28.0993 29.7546 28.1496 29.7546 28.2091C29.7546 28.5373 29.3948 28.8032 28.954 28.8032ZM28.954 27.5833C28.6723 27.5833 28.4342 27.7274 28.4342 27.8985C28.4342 27.9301 28.4417 27.9627 28.4538 27.9859C28.477 28.0277 28.477 28.0789 28.4538 28.1207C28.4398 28.1449 28.4333 28.1775 28.4333 28.2091C28.4333 28.3588 28.6462 28.5243 28.9531 28.5243C29.2516 28.5243 29.4747 28.3578 29.4747 28.2091C29.4747 28.183 29.471 28.1607 29.4487 28.1133C29.4292 28.0714 29.431 28.0212 29.4552 27.9813C29.4682 27.9608 29.4747 27.9292 29.4747 27.8976C29.4747 27.7265 29.2358 27.5823 28.9531 27.5823L28.954 27.5833Z" fill="#155C6D"/>
<path d="M28.4912 27.8985C28.4912 28.0203 28.6902 28.1542 28.9552 28.1542C29.2202 28.1542 29.4211 28.0212 29.4211 27.8985C29.4211 27.7758 29.2221 27.6326 28.9552 27.6326C28.6883 27.6326 28.4912 27.7767 28.4912 27.8985Z" fill="#C8DAE8"/>
<path d="M28.9553 28.2928C28.6233 28.2928 28.3518 28.1161 28.3518 27.8985C28.3518 27.6781 28.6289 27.4922 28.9553 27.4922C29.2844 27.4922 29.5615 27.6781 29.5615 27.8985C29.5615 28.1161 29.2891 28.2928 28.9553 28.2928ZM28.6317 27.8985C28.6503 27.9348 28.7647 28.0147 28.9553 28.0147C29.1552 28.0147 29.2724 27.9273 29.2835 27.8939C29.2742 27.8725 29.1598 27.772 28.9553 27.772C28.76 27.772 28.6484 27.8632 28.6317 27.8985Z" fill="#155C6D"/>
<path d="M32.5302 29.7963C32.5553 29.7405 32.5684 29.6857 32.5684 29.6299C32.5684 29.3853 32.2634 29.1752 31.8989 29.1752C31.5344 29.1752 31.2396 29.3751 31.2396 29.6299C31.2396 29.6857 31.2526 29.7405 31.2768 29.7852C31.2508 29.8409 31.2368 29.8958 31.2368 29.9404C31.2368 30.1952 31.5399 30.4063 31.9045 30.4063C32.269 30.4063 32.5656 30.1952 32.5656 29.9404C32.5656 29.8958 32.5535 29.84 32.5302 29.7963Z" fill="#70C5AD"/>
<path d="M31.9055 30.5458C31.4601 30.5458 31.0984 30.2743 31.0984 29.9404C31.0984 29.8921 31.1086 29.84 31.1263 29.7861C31.1086 29.7368 31.1002 29.6829 31.1002 29.6299C31.1002 29.297 31.4517 29.0357 31.899 29.0357C32.3462 29.0357 32.7089 29.3026 32.7089 29.6299C32.7089 29.6847 32.6987 29.7396 32.681 29.7945C32.6977 29.8419 32.7061 29.893 32.7061 29.9404C32.7061 30.2743 32.3462 30.5458 31.9055 30.5458ZM31.899 29.3147C31.6172 29.3147 31.3792 29.4588 31.3792 29.6299C31.3792 29.6624 31.3866 29.695 31.3997 29.7201C31.4192 29.7591 31.421 29.8038 31.4034 29.8437C31.3839 29.8856 31.3773 29.9219 31.3773 29.9404C31.3773 30.1143 31.6238 30.2668 31.9046 30.2668C32.1826 30.2668 32.4262 30.1143 32.4262 29.9404C32.4262 29.9163 32.4178 29.8837 32.4067 29.8614C32.3872 29.8224 32.3853 29.7777 32.403 29.7377C32.4216 29.6987 32.429 29.6634 32.429 29.6299C32.429 29.4811 32.2021 29.3147 31.899 29.3147Z" fill="#155C6D"/>
<path d="M31.4377 29.6299C31.4377 29.7517 31.6367 29.8846 31.9017 29.8846C32.1667 29.8846 32.3676 29.7517 32.3676 29.6299C32.3676 29.5192 32.1686 29.3751 31.9017 29.3751C31.6349 29.3751 31.4377 29.5081 31.4377 29.6299Z" fill="#C8DAE8"/>
<path d="M31.9018 30.0241C31.5699 30.0241 31.2983 29.8475 31.2983 29.6299C31.2983 29.4123 31.5699 29.2356 31.9018 29.2356C32.2245 29.2356 32.5071 29.4197 32.5071 29.6299C32.5071 29.8475 32.2356 30.0241 31.9018 30.0241ZM31.5782 29.6299C31.5978 29.6661 31.7112 29.7461 31.9018 29.7461C32.1017 29.7461 32.218 29.6587 32.2291 29.6252C32.2161 29.6057 32.0952 29.5146 31.9018 29.5146C31.7112 29.5146 31.5978 29.5936 31.5782 29.6299Z" fill="#155C6D"/>
<path d="M23.8724 31.4608C23.8985 31.4161 23.9124 31.3613 23.9124 31.3055C23.9124 31.0507 23.6158 30.8508 23.2513 30.8508C22.8868 30.8508 22.592 31.0507 22.592 31.3055C22.592 31.3613 22.606 31.4161 22.632 31.4608C22.606 31.5054 22.592 31.5602 22.592 31.616C22.592 31.8708 22.8849 32.0707 23.2513 32.0707C23.6177 32.0707 23.9124 31.8708 23.9124 31.616C23.9124 31.5602 23.8985 31.5054 23.8724 31.4608Z" fill="#70C5AD"/>
<path d="M23.2506 32.2102C22.8034 32.2102 22.4519 31.9499 22.4519 31.616C22.4519 31.5621 22.4612 31.5091 22.4779 31.4608C22.4603 31.4124 22.4519 31.3594 22.4519 31.3055C22.4519 30.9726 22.8034 30.7113 23.2506 30.7113C23.6979 30.7113 24.0522 30.9726 24.0522 31.3055C24.0522 31.3585 24.0419 31.4115 24.0252 31.4608C24.0429 31.51 24.0522 31.563 24.0522 31.616C24.0522 31.9489 23.6998 32.2102 23.2506 32.2102ZM23.2506 30.9893C22.9689 30.9893 22.7309 31.1335 22.7309 31.3045C22.7309 31.3362 22.7383 31.3668 22.7504 31.3882C22.7764 31.4319 22.7764 31.4868 22.7504 31.5305C22.7374 31.5528 22.7309 31.5835 22.7309 31.6151C22.7309 31.7862 22.9689 31.9303 23.2506 31.9303C23.5342 31.9303 23.7732 31.7862 23.7732 31.6151C23.7732 31.5844 23.7658 31.5528 23.7528 31.5286C23.7286 31.4859 23.7286 31.4329 23.7528 31.3901C23.7667 31.3668 23.7732 31.3352 23.7732 31.3045C23.7732 31.1335 23.5342 30.9893 23.2506 30.9893Z" fill="#155C6D"/>
<path d="M22.7893 31.3055C22.7893 31.4273 22.9883 31.5602 23.2533 31.5602C23.5183 31.5602 23.7192 31.4273 23.7192 31.3055C23.7192 31.1837 23.5202 31.0507 23.2533 31.0507C22.9864 31.0507 22.7893 31.1837 22.7893 31.3055Z" fill="#C8DAE8"/>
<path d="M23.2533 31.6997C22.9204 31.6997 22.6489 31.523 22.6489 31.3055C22.6489 31.0879 22.9204 30.9112 23.2533 30.9112C23.5862 30.9112 23.8587 31.0879 23.8587 31.3055C23.8587 31.523 23.5871 31.6997 23.2533 31.6997ZM22.9297 31.3055C22.9493 31.3417 23.0636 31.4217 23.2543 31.4217C23.4532 31.4217 23.5704 31.3343 23.5816 31.3008C23.5713 31.2785 23.4542 31.1901 23.2543 31.1901C23.0636 31.1901 22.9493 31.2683 22.9297 31.3055Z" fill="#155C6D"/>
<path d="M53.4261 17.5121C53.4512 17.4674 53.4652 17.4126 53.4652 17.3568C53.4652 17.1122 53.1723 16.9021 52.8059 16.9021C52.4395 16.9021 52.1448 17.1131 52.1448 17.3568C52.1448 17.4126 52.1587 17.4674 52.1838 17.5121C52.1587 17.5678 52.1448 17.6125 52.1448 17.6673C52.1448 17.9221 52.4414 18.122 52.8059 18.122C53.1704 18.122 53.467 17.9221 53.467 17.6785C53.467 17.6227 53.4521 17.5678 53.4261 17.5121Z" fill="#70C5AD"/>
<path d="M52.8049 18.2615C52.3558 18.2615 52.0034 18.0002 52.0034 17.6673C52.0034 17.6097 52.0155 17.5595 52.0304 17.5139C52.0127 17.4637 52.0034 17.4098 52.0034 17.3568C52.0034 17.0285 52.3633 16.7626 52.8049 16.7626C53.2466 16.7626 53.6037 17.0295 53.6037 17.3568C53.6037 17.4107 53.5935 17.4646 53.5767 17.5139C53.5963 17.5697 53.6055 17.6236 53.6055 17.6776C53.6055 18.0049 53.2531 18.2615 52.8049 18.2615ZM52.8049 17.0416C52.4972 17.0416 52.2824 17.208 52.2824 17.3568C52.2824 17.3875 52.2898 17.42 52.3038 17.4451C52.3242 17.4832 52.3261 17.5288 52.3084 17.5688C52.2889 17.6153 52.2824 17.6395 52.2824 17.6673C52.2824 17.8384 52.5213 17.9826 52.8049 17.9826C53.1127 17.9826 53.3266 17.8217 53.3266 17.6776C53.3266 17.645 53.3182 17.6097 53.2996 17.5716C53.2801 17.5307 53.282 17.4823 53.3052 17.4423C53.3182 17.4191 53.3247 17.3875 53.3247 17.3558C53.3247 17.2061 53.1118 17.0406 52.8049 17.0406V17.0416Z" fill="#155C6D"/>
<path d="M52.3342 17.3568C52.3342 17.4786 52.5332 17.6125 52.8001 17.6125C53.067 17.6125 53.2641 17.4795 53.2641 17.3568C53.2641 17.234 53.0651 17.102 52.8001 17.102C52.5351 17.102 52.3342 17.2461 52.3342 17.3568Z" fill="#C8DAE8"/>
<path d="M52.8011 17.752C52.4673 17.752 52.1948 17.5753 52.1948 17.3577C52.1948 17.1466 52.4784 16.9625 52.8011 16.9625C53.133 16.9625 53.4046 17.1392 53.4046 17.3577C53.4046 17.5762 53.133 17.752 52.8011 17.752ZM52.4766 17.3596C52.4989 17.3968 52.6133 17.473 52.8011 17.473C53.001 17.473 53.1163 17.3856 53.1265 17.3531C53.1163 17.3289 53.0001 17.2415 52.8011 17.2415C52.6216 17.2415 52.5035 17.3205 52.4766 17.3596Z" fill="#155C6D"/>
<path d="M56.1803 12.3746C56.2063 12.33 56.2203 12.2751 56.2203 12.2193C56.2203 11.9636 55.9237 11.7646 55.5592 11.7646C55.1947 11.7646 54.8999 11.9757 54.8999 12.2193C54.8999 12.2751 54.9138 12.33 54.939 12.3746C54.9138 12.4193 54.8999 12.4751 54.8999 12.5299C54.8999 12.7847 55.1947 12.9846 55.5592 12.9846C55.9237 12.9846 56.2203 12.7847 56.2203 12.5299C56.2203 12.4741 56.2063 12.4304 56.1803 12.3746Z" fill="#70C5AD"/>
<path d="M55.558 13.1241C55.1108 13.1241 54.7593 12.8628 54.7593 12.5299C54.7593 12.4769 54.7686 12.423 54.7853 12.3746C54.7676 12.3263 54.7593 12.2724 54.7593 12.2194C54.7593 11.8911 55.1182 11.6252 55.558 11.6252C56.0071 11.6252 56.3596 11.8865 56.3596 12.2194C56.3596 12.2733 56.3493 12.3272 56.3317 12.3765C56.3484 12.4211 56.3596 12.4713 56.3596 12.5299C56.3596 12.8628 56.0071 13.1241 55.558 13.1241ZM55.558 11.9041C55.2605 11.9041 55.0382 12.0706 55.0382 12.2194C55.0382 12.251 55.0457 12.2826 55.0578 12.3058C55.0819 12.3486 55.0819 12.4016 55.0578 12.4435C55.0447 12.4667 55.0382 12.4983 55.0382 12.5299C55.0382 12.701 55.2763 12.8451 55.558 12.8451C55.8416 12.8451 56.0806 12.701 56.0806 12.5299C56.0806 12.502 56.0741 12.4769 56.0536 12.4332C56.035 12.3923 56.0369 12.3449 56.0601 12.3058C56.0741 12.2817 56.0806 12.25 56.0806 12.2194C56.0806 12.0483 55.8416 11.9041 55.558 11.9041Z" fill="#155C6D"/>
<path d="M55.0959 12.2194C55.0959 12.3412 55.2949 12.4741 55.5599 12.4741C55.825 12.4741 56.0258 12.3412 56.0258 12.2194C56.0258 12.0975 55.8268 11.9525 55.5599 11.9525C55.2931 11.9525 55.0959 12.0966 55.0959 12.2194Z" fill="#C8DAE8"/>
<path d="M55.56 12.6136C55.2281 12.6136 54.9565 12.4369 54.9565 12.2194C54.9565 11.999 55.2336 11.813 55.56 11.813C55.8864 11.813 56.1653 11.999 56.1653 12.2194C56.1653 12.4369 55.8938 12.6136 55.56 12.6136ZM55.2374 12.2184C55.256 12.2547 55.3703 12.3347 55.5609 12.3347C55.7609 12.3347 55.8771 12.2473 55.8883 12.2138C55.8799 12.1915 55.7655 12.092 55.5609 12.092C55.3657 12.092 55.2541 12.1831 55.2374 12.2184Z" fill="#155C6D"/>
<path d="M59.1352 14.1162C59.1603 14.0604 59.1733 14.0167 59.1733 13.9609C59.1733 13.7062 58.8684 13.4951 58.5039 13.4951C58.1394 13.4951 57.8446 13.695 57.8446 13.9609C57.8446 14.0167 57.8576 14.0604 57.8818 14.1162C57.8557 14.1609 57.8418 14.2157 57.8418 14.2715C57.8418 14.5161 58.1449 14.7262 58.5094 14.7262C58.8739 14.7262 59.1706 14.5151 59.1706 14.2715C59.1706 14.2157 59.1585 14.1609 59.1352 14.1162Z" fill="#70C5AD"/>
<path d="M58.5095 14.8666C58.0641 14.8666 57.7024 14.5998 57.7024 14.2725C57.7024 14.2185 57.7126 14.1637 57.7303 14.1135C57.7154 14.0707 57.7052 14.0205 57.7052 13.9619C57.7052 13.6225 58.0567 13.3566 58.5039 13.3566C58.9512 13.3566 59.3129 13.6281 59.3129 13.9619C59.3129 14.0214 59.3008 14.0716 59.2859 14.1163C59.3027 14.1655 59.311 14.2185 59.311 14.2725C59.311 14.6007 58.9512 14.8666 58.5095 14.8666ZM58.5039 13.6346C58.2166 13.6346 57.9841 13.7815 57.9841 13.9619C57.9841 13.9935 57.9906 14.0186 58.0083 14.0605C58.0269 14.1004 58.0251 14.1479 58.0018 14.186C57.9879 14.2102 57.9814 14.2418 57.9814 14.2725C57.9814 14.4212 58.2064 14.5877 58.5086 14.5877C58.8071 14.5877 59.0311 14.4212 59.0311 14.2725C59.0311 14.239 59.0237 14.2065 59.0116 14.1823C58.9921 14.1442 58.9902 14.0995 59.0079 14.0605C59.0274 14.0158 59.033 13.9907 59.033 13.9619C59.033 13.788 58.7857 13.6346 58.5039 13.6346Z" fill="#155C6D"/>
<path d="M58.0427 13.961C58.0427 14.0716 58.2417 14.2157 58.5067 14.2157C58.7717 14.2157 58.9726 14.0716 58.9726 13.961C58.9726 13.8391 58.7736 13.7062 58.5067 13.7062C58.2399 13.7062 58.0427 13.8391 58.0427 13.961Z" fill="#C8DAE8"/>
<path d="M58.5067 14.3561C58.1841 14.3561 57.9023 14.172 57.9023 13.9619C57.9023 13.7443 58.1739 13.5676 58.5067 13.5676C58.8396 13.5676 59.1121 13.7443 59.1121 13.9619C59.1121 14.172 58.8285 14.3561 58.5067 14.3561ZM58.185 13.9591C58.2101 13.9981 58.3273 14.0772 58.5077 14.0772C58.7002 14.0772 58.822 13.9851 58.8359 13.9507C58.8248 13.9331 58.7076 13.8457 58.5077 13.8457C58.3208 13.8457 58.2073 13.9219 58.185 13.9591Z" fill="#155C6D"/>
<path d="M50.4772 15.7816C50.5032 15.737 50.5172 15.6821 50.5172 15.6263C50.5172 15.3715 50.2205 15.1716 49.856 15.1716C49.4915 15.1716 49.1968 15.3715 49.1968 15.6263C49.1968 15.6821 49.2107 15.737 49.2368 15.7816C49.2107 15.8374 49.1968 15.8811 49.1968 15.9369C49.1968 16.1917 49.4897 16.3916 49.856 16.3916C50.2224 16.3916 50.5172 16.1917 50.5172 15.9369C50.5172 15.8811 50.5032 15.8365 50.4772 15.7816Z" fill="#70C5AD"/>
<path d="M49.8563 16.5311C49.4081 16.5311 49.0566 16.2698 49.0566 15.9369C49.0566 15.8783 49.0687 15.8281 49.0845 15.7835C49.0659 15.7333 49.0566 15.6793 49.0566 15.6263C49.0566 15.2935 49.4081 15.0322 49.8563 15.0322C50.3045 15.0322 50.6569 15.2935 50.6569 15.6263C50.6569 15.6803 50.6467 15.7342 50.6299 15.7835C50.6458 15.8272 50.6569 15.8774 50.6569 15.9369C50.6569 16.2698 50.3045 16.5311 49.8563 16.5311ZM49.8563 15.3102C49.5736 15.3102 49.3356 15.4543 49.3356 15.6254C49.3356 15.6561 49.343 15.6877 49.3561 15.7119C49.3784 15.7509 49.3802 15.7984 49.3626 15.8393C49.3421 15.8839 49.3356 15.9081 49.3356 15.936C49.3356 16.1071 49.5736 16.2512 49.8563 16.2512C50.139 16.2512 50.378 16.1071 50.378 15.936C50.378 15.9062 50.3715 15.882 50.3519 15.8393C50.3333 15.7984 50.3352 15.7509 50.3584 15.7119C50.3715 15.6886 50.378 15.657 50.378 15.6254C50.378 15.4543 50.139 15.3102 49.8563 15.3102Z" fill="#155C6D"/>
<path d="M49.3933 15.6254C49.3933 15.7472 49.5923 15.8802 49.8573 15.8802C50.1223 15.8802 50.3232 15.7472 50.3232 15.6254C50.3232 15.5036 50.1242 15.3706 49.8573 15.3706C49.5904 15.3706 49.3933 15.5036 49.3933 15.6254Z" fill="#C8DAE8"/>
<path d="M49.8581 16.0206C49.5262 16.0206 49.2546 15.8439 49.2546 15.6263C49.2546 15.4088 49.5262 15.2321 49.8581 15.2321C50.1919 15.2321 50.4644 15.4088 50.4644 15.6263C50.4644 15.8439 50.1919 16.0206 49.8581 16.0206ZM49.5345 15.6254C49.554 15.6617 49.6675 15.7416 49.8581 15.7416C50.058 15.7416 50.1752 15.6542 50.1863 15.6208C50.1752 15.5984 50.059 15.5101 49.8581 15.5101C49.6675 15.5101 49.554 15.5891 49.5345 15.6254Z" fill="#155C6D"/>
</svg>
