<svg width="64" height="64" viewBox="0 0 64 64" fill="none" xmlns="http://www.w3.org/2000/svg">
<path d="M36.6646 9.84405L47.0661 15.8914L58.6837 9.20313L48.2408 3.15576L36.6646 9.84405Z" fill="#70C5AD"/>
<path d="M47.0659 16.0471L46.9984 16.0084L36.3953 9.84402L48.2407 3L58.9527 9.204L47.0659 16.0471ZM36.9327 9.84402L47.0659 15.7348L58.4126 9.2022L48.2397 3.31145L36.9327 9.84402Z" fill="#155C6D"/>
<path d="M47.0496 42.7842L58.6672 36.0743V9.24548L47.0496 15.9338V42.7842Z" fill="#C8DAE8"/>
<path d="M46.9138 43.0181V15.8554L46.9813 15.8167L58.8024 9.01135V36.1516L46.9138 43.0181ZM47.1848 16.012V42.55L58.5315 35.9959V9.47765L47.1848 16.0111V16.012Z" fill="#155C6D"/>
<path d="M47.1154 15.9122L36.6887 9.84326V36.672L47.0245 42.7086" fill="#155C6D"/>
<path d="M46.957 42.8256L36.5537 36.7503V9.60913L47.1839 15.796L47.0488 16.0292L36.8247 10.0781V36.5954L47.092 42.5924L46.957 42.8256Z" fill="#155C6D"/>
<path d="M21.0286 28.7765L31.4301 34.8239L43.0477 28.1356L32.6048 22.0883L21.0286 28.7765Z" fill="#70C5AD"/>
<path d="M31.43 34.9797L31.3625 34.941L20.7603 28.7766L32.6047 21.9316L43.3177 28.1356L31.43 34.9797ZM21.2977 28.7775L31.43 34.6682L42.7776 28.1356L32.6038 22.2449L21.2968 28.7784L21.2977 28.7775Z" fill="#155C6D"/>
<path d="M31.4136 51.802L43.0312 45.0813V28.168L31.4136 34.8563V51.802Z" fill="#C8DAE8"/>
<path d="M31.2776 52.0361V34.778L31.3451 34.7393L43.1662 27.934V45.1588L31.2776 52.0361ZM31.5485 34.9346V51.568L42.8952 45.004V28.4011L31.5485 34.9346Z" fill="#155C6D"/>
<path d="M31.4794 34.8455L21.0527 28.7765V45.6899L31.3885 51.7156" fill="#155C6D"/>
<path d="M31.321 51.8327L20.9177 45.7673V28.5425L21.1212 28.6595L31.5479 34.7285L31.412 34.9625L21.1887 29.0115V45.6125L31.4561 51.5995L31.321 51.8327Z" fill="#155C6D"/>
<path d="M5.26831 48.4896L15.6698 54.5477L27.2875 47.8594L16.8445 41.8013L5.26831 48.4896Z" fill="#70C5AD"/>
<path d="M15.6707 54.7043L15.6031 54.6647L5 48.4895L16.8445 41.6455L16.912 41.6842L27.5575 47.8594L15.6707 54.7034V54.7043ZM5.5374 48.4904L15.6707 54.392L27.0174 47.8594L16.8436 41.9579L5.5374 48.4904Z" fill="#155C6D"/>
<path d="M15.6533 60.766L27.271 54.0561V47.8917L15.6533 54.58V60.766Z" fill="#C8DAE8"/>
<path d="M15.5186 61.0001V54.5017L15.5861 54.463L27.4063 47.6577V54.1336L15.5186 60.9992V61.0001ZM15.7895 54.6584V60.5329L27.1353 53.9787V48.1249L15.7895 54.6584Z" fill="#155C6D"/>
<path d="M15.7199 54.5585L5.29321 48.4895V54.6548L15.629 60.6814" fill="#155C6D"/>
<path d="M15.5617 60.7976L5.15747 54.7323V48.2555L15.7876 54.4424L15.6526 54.6755L5.42842 48.7245V54.5774L15.6967 60.5645L15.5617 60.7976Z" fill="#155C6D"/>
</svg>
