<svg width="64" height="64" viewBox="0 0 64 64" fill="none" xmlns="http://www.w3.org/2000/svg">
<mask id="mask0_15036_702" style="mask-type:alpha" maskUnits="userSpaceOnUse" x="0" y="0" width="64" height="64">
<rect width="64" height="64" fill="#D9D9D9"/>
</mask>
<g mask="url(#mask0_15036_702)">
</g>
<g clip-path="url(#clip0_15036_702)">
<path d="M45.7255 25.2405C45.7129 22.5193 43.8728 19.7982 40.2177 17.7326C32.8949 13.5891 21.0725 13.5891 13.8002 17.7326C10.1577 19.8106 8.34273 22.5193 8.36793 25.2405V47.7144C8.38054 50.4356 10.2207 53.1567 13.8884 55.2346C21.2238 59.3905 33.0713 59.3905 40.3563 55.2346C43.9988 53.1567 45.8137 50.4356 45.8011 47.7144L45.7381 25.2405H45.7255Z" fill="#70C5AD" stroke="#155C6D" stroke-width="0.25" stroke-linecap="round" stroke-linejoin="round"/>
<path d="M45.7255 25.2405C45.7129 22.5193 43.8728 19.7982 40.2177 17.7326C32.8949 13.5891 21.0725 13.5891 13.8002 17.7326C10.1577 19.8106 8.34273 22.5193 8.36793 25.2405V47.7144C8.38054 50.4356 10.2207 53.1567 13.8884 55.2346C21.2238 59.3905 33.0713 59.3905 40.3563 55.2346C43.9988 53.1567 45.8137 50.4356 45.8011 47.7144L45.7381 25.2405H45.7255Z" fill="#70C5AD" stroke="#155C6D" stroke-width="0.25" stroke-linecap="round" stroke-linejoin="round"/>
<path d="M45.7759 47.4545C45.7633 44.7334 43.9232 42.0122 40.2555 39.9343C32.9201 35.7784 21.0851 35.7784 13.8002 39.9343C10.1577 42.0122 8.34273 44.7334 8.36793 47.4545" stroke="#155C6D" stroke-width="0.25" stroke-linecap="round" stroke-linejoin="round"/>
<path d="M31.467 42.347V44.6698C31.467 45.9079 30.6297 47.135 28.9773 48.0772C25.6614 49.9727 20.2578 49.9727 16.9084 48.0772C15.2226 47.124 14.3853 45.875 14.3853 44.626V42.3032C14.3853 43.5522 15.2338 44.8013 16.9084 45.7545C20.2466 47.6499 25.6503 47.6499 28.9773 45.7545C30.6297 44.8122 31.4558 43.5851 31.4558 42.347H31.467Z" fill="#155C6D" stroke="#155C6D" stroke-width="0.25" stroke-linecap="round" stroke-linejoin="round"/>
<path d="M28.943 38.8957C32.2812 40.7912 32.3035 43.8589 28.9877 45.7544C25.6718 47.6498 20.2682 47.6498 16.9188 45.7544C13.5694 43.8589 13.5583 40.7912 16.8741 38.8957C20.19 37.0003 25.5937 37.0003 28.943 38.8957Z" fill="#C8DAE8" stroke="#155C6D" stroke-width="0.25" stroke-linecap="round" stroke-linejoin="round"/>
<path d="M28.5307 39.6737V41.9965C28.5307 43.2345 27.6934 44.4616 26.041 45.4039C22.7252 47.2993 17.3215 47.2993 13.9722 45.4039C12.2863 44.4507 11.449 43.2016 11.449 41.9526V39.6299C11.449 40.8789 12.2975 42.1279 13.9722 43.0811C17.3104 44.9766 22.714 44.9766 26.041 43.0811C27.6934 42.1389 28.5196 40.9118 28.5196 39.6737H28.5307Z" fill="#155C6D" stroke="#155C6D" stroke-width="0.25" stroke-linecap="round" stroke-linejoin="round"/>
<path d="M26.0187 36.2224C29.3569 38.1178 29.3792 41.1856 26.0634 43.081C22.7475 44.9765 17.3439 44.9765 13.9945 43.081C10.6451 41.1856 10.634 38.1178 13.9498 36.2224C17.2657 34.3269 22.6693 34.3269 26.0187 36.2224Z" fill="#C8DAE8" stroke="#155C6D" stroke-width="0.25" stroke-linecap="round" stroke-linejoin="round"/>
<path d="M31.1545 36.3319V38.6547C31.1545 39.8927 30.3172 41.1198 28.6648 42.0621C25.3489 43.9575 19.9453 43.9575 16.5959 42.0621C14.9101 41.1089 14.0728 39.8599 14.0728 38.6108V36.2881C14.0728 37.5371 14.9213 38.7861 16.5959 39.7393C19.9341 41.6348 25.3378 41.6348 28.6648 39.7393C30.3172 38.7971 31.1433 37.57 31.1433 36.3319H31.1545Z" fill="#155C6D" stroke="#155C6D" stroke-width="0.25" stroke-linecap="round" stroke-linejoin="round"/>
<path d="M28.6425 32.8806C31.9807 34.776 32.003 37.8438 28.6871 39.7392C25.3713 41.6347 19.9676 41.6347 16.6183 39.7392C13.2689 37.8438 13.2577 34.776 16.5736 32.8806C19.8895 30.9851 25.2931 30.9851 28.6425 32.8806Z" fill="#C8DAE8" stroke="#155C6D" stroke-width="0.25" stroke-linecap="round" stroke-linejoin="round"/>
<path d="M18.0809 34.6663C20.5818 33.242 24.6345 33.242 27.1465 34.6663C28.2183 35.2689 28.81 36.0468 28.9663 36.8356C29.1896 35.7619 28.5979 34.6444 27.1465 33.8226C24.6345 32.3983 20.5706 32.3983 18.0809 33.8226C16.6518 34.6334 16.0713 35.74 16.2834 36.8137C16.4397 36.0358 17.0203 35.2689 18.0809 34.6772V34.6663Z" fill="#155C6D"/>
<path d="M41.0239 46.6198L39.0366 47.8797C37.9871 48.5481 36.4799 48.5481 34.7718 47.7044C31.3442 46.0062 28.3968 41.5579 28.1847 37.7889C28.0842 35.8825 28.6871 34.513 29.7589 33.8337L31.7462 32.5737C30.6744 33.253 30.0715 34.6226 30.172 36.529C30.3841 40.3089 33.3204 44.7572 36.759 46.4445C38.4672 47.2881 39.9633 47.2991 41.0239 46.6198Z" fill="#155C6D" stroke="#155C6D" stroke-width="0.25" stroke-linecap="round" stroke-linejoin="round"/>
<path d="M42.5981 42.6646C42.8102 46.4445 40.1977 48.1318 36.759 46.4335C33.3204 44.7353 30.3841 40.287 30.172 36.5181C29.9598 32.7491 32.5723 31.0508 36.011 32.7491C39.4497 34.4473 42.386 38.8846 42.5981 42.6646Z" fill="#C8DAE8" stroke="#155C6D" stroke-width="0.25" stroke-linecap="round" stroke-linejoin="round"/>
<path d="M35.3077 34.9512C37.8867 36.2222 40.0973 39.5638 40.2536 42.4125C40.3206 43.6287 39.9856 44.5271 39.3939 45.0968C40.4322 44.6914 41.0686 43.5958 40.9793 41.9523C40.823 39.1037 38.6124 35.773 36.0334 34.4911C34.5596 33.757 33.2981 33.8885 32.5054 34.6445C33.2646 34.3486 34.2247 34.4144 35.3077 34.9512Z" fill="#155C6D"/>
<path d="M42.3982 14.4303V17.708C42.3856 19.922 40.8983 22.1484 37.9238 23.8306C31.9496 27.2443 22.2195 27.232 16.2075 23.8306C13.1826 22.1113 11.6702 19.8602 11.6702 17.6215V14.3438C11.6702 16.5949 13.1826 18.846 16.2201 20.5529C22.2321 23.9543 31.9496 23.9666 37.9364 20.5529C40.8983 18.8583 42.3856 16.6443 42.3982 14.4303Z" fill="#155C6D" stroke="#155C6D" stroke-width="0.25" stroke-linecap="round" stroke-linejoin="round"/>
<path d="M37.8734 8.20876C43.8854 11.6102 43.9232 17.139 37.949 20.5528C31.9748 23.9665 22.2447 23.9542 16.2327 20.5528C10.2207 17.1514 10.1829 11.6225 16.1571 8.20876C22.1312 4.795 31.8488 4.795 37.8734 8.20876Z" fill="#C8DAE8" stroke="#155C6D" stroke-width="0.25" stroke-linecap="round" stroke-linejoin="round"/>
<path d="M35.8315 9.64339C40.7217 12.2285 40.747 16.4338 35.8945 19.0313C31.042 21.6287 23.1269 21.6163 18.2366 19.0313C13.3464 16.4338 13.3211 12.2408 18.1736 9.64339C23.0387 7.04595 30.9412 7.04595 35.8315 9.64339Z" fill="#C8DAE8" stroke="#155C6D" stroke-width="0.25" stroke-linecap="round" stroke-linejoin="round"/>
<path d="M39.3479 28.0976C46.6455 27.64 47.0236 27.2565 47.4899 20.1074C47.9563 27.2689 48.347 27.64 55.632 28.0976C48.3344 28.5553 47.9563 28.9387 47.4899 36.0878C47.0236 28.9263 46.6329 28.5553 39.3479 28.0976Z" fill="#C8DAE8" stroke="#155C6D" stroke-width="0.25" stroke-linecap="round" stroke-linejoin="round"/>
<path d="M39.3479 28.0976C46.6455 27.64 47.0236 27.2565 47.4899 20.1074C47.9563 27.2689 48.347 27.64 55.632 28.0976C48.3344 28.5553 47.9563 28.9387 47.4899 36.0878C47.0236 28.9263 46.6329 28.5553 39.3479 28.0976Z" fill="#C8DAE8" stroke="#155C6D" stroke-width="0.25" stroke-linecap="round" stroke-linejoin="round"/>
</g>
<defs>
<clipPath id="clip0_15036_702">
<rect width="47.5918" height="53" fill="white" transform="translate(8.2041 5.5)"/>
</clipPath>
</defs>
</svg>
