<svg width="64" height="64" viewBox="0 0 64 64" fill="none" xmlns="http://www.w3.org/2000/svg">
<path d="M20.9295 53.4175C24.3736 51.791 24.9584 45.8099 22.2477 40.0598C19.5277 34.3089 14.5333 30.9651 11.0893 32.5924C7.64518 34.2188 7.05107 40.1991 9.77106 45.95C12.491 51.701 17.4854 55.0439 20.9295 53.4175Z" fill="#155C6D"/>
<path d="M19.0534 53.8881C15.8266 53.8881 11.9777 50.7597 9.71541 45.977C8.3944 43.1864 7.80586 40.2539 8.05651 37.7186C8.30808 35.1732 9.37656 33.3332 11.0624 32.5367C14.5343 30.8992 19.5723 34.2616 22.3016 40.0339C25.0243 45.808 24.4191 51.8375 20.9546 53.4741C20.3605 53.7545 19.7199 53.8881 19.0525 53.8881H19.0534ZM12.9729 32.2434C12.3212 32.2434 11.6964 32.3743 11.1162 32.6481C9.47123 33.4251 8.42781 35.2307 8.18088 37.7307C7.93116 40.2437 8.51694 43.153 9.8268 45.924C12.5273 51.6351 17.4966 54.9715 20.9035 53.3618C24.3077 51.7549 24.8851 45.7987 22.193 40.0859C19.952 35.3477 16.1487 32.2434 12.9729 32.2434Z" fill="#155C6D"/>
<path d="M8.11865 39.9958C8.22077 41.2137 8.48068 42.5004 8.917 43.8074L20.3725 38.3944L18.8408 35.1462C18.7943 35.0979 18.7479 35.0487 18.6922 35.0023L8.11865 39.9958Z" fill="#70C5AD"/>
<path d="M8.87987 43.8929L8.85857 43.827C8.43154 42.5496 8.16229 41.262 8.05739 40.0005L8.05371 39.9578L8.09269 39.9392L18.7015 34.929L18.7312 34.9541C18.786 34.9986 18.8297 35.0451 18.8724 35.0896L18.8955 35.1193L20.4542 38.4232L20.3985 38.4492L8.87987 43.892V43.8929ZM8.18363 40.0339C8.2876 41.25 8.54754 42.4902 8.95229 43.723L20.2909 38.3657L18.7832 35.176C18.7517 35.1426 18.7182 35.1082 18.682 35.0757L8.18363 40.0339Z" fill="#155C6D"/>
<path d="M27.4739 51.8663C31.2151 50.0969 31.7813 43.4371 28.7364 36.9909C25.6915 30.5446 20.1866 26.7533 16.4455 28.5227C12.695 30.2921 12.1288 36.9519 15.1737 43.3982C18.2186 49.8444 23.7235 53.6357 27.4739 51.8663Z" fill="#C8DAE8"/>
<path d="M25.4874 52.3601C21.9477 52.3601 17.6635 48.8148 15.1181 43.425C13.6402 40.2966 12.9598 37.0214 13.2002 34.2012C13.4425 31.3689 14.5852 29.3322 16.4196 28.467C18.2493 27.6008 20.5478 28.013 22.8881 29.6255C25.2192 31.2306 27.3162 33.8373 28.7922 36.9648C31.8474 43.4306 31.2672 50.1405 27.5001 51.9229C26.8716 52.219 26.1948 52.3601 25.4874 52.3601ZM18.447 28.1476C17.7452 28.1476 17.0815 28.2896 16.4716 28.5784C14.6781 29.4241 13.5603 31.4246 13.3227 34.2114C13.0832 37.0094 13.7609 40.2631 15.2286 43.3721C18.2549 49.7766 23.7376 53.5632 27.4471 51.8105C31.1521 50.0579 31.7063 43.4213 28.6809 37.0168C27.2122 33.9088 25.13 31.3197 22.8166 29.7267C21.2988 28.6814 19.8024 28.1476 18.447 28.1476Z" fill="#155C6D"/>
<path d="M27.6321 50.755C31.104 49.1137 31.6332 42.9339 28.8111 36.9518C25.9797 30.9706 20.8739 27.4523 17.402 29.0945C13.9208 30.7357 13.3917 36.9165 16.223 42.8977C19.0451 48.8789 24.1509 52.3972 27.6321 50.755Z" fill="#155C6D"/>
<path d="M25.7717 51.2211C24.4869 51.2211 23.0749 50.7188 21.6472 49.7348C19.4842 48.2458 17.5393 45.8266 16.1701 42.9237C14.344 39.0675 13.8474 34.8937 14.8732 32.0308C15.3837 30.6067 16.249 29.5735 17.3778 29.0416C20.8702 27.391 26.0261 30.9261 28.8667 36.9277C31.6981 42.9293 31.156 49.1574 27.658 50.8107C27.0751 51.0855 26.4401 51.222 25.7726 51.222L25.7717 51.2211ZM19.2484 28.752C18.6087 28.752 17.9951 28.8801 17.427 29.1483C16.3279 29.6663 15.4831 30.6764 14.9836 32.0698C13.9681 34.9039 14.4638 39.0433 16.2777 42.8717C17.6377 45.7551 19.5687 48.1576 21.7131 49.6355C23.851 51.1078 25.9425 51.4856 27.606 50.7003C31.0436 49.0757 31.5607 42.9191 28.7562 36.976C26.4094 32.0169 22.4798 28.751 19.2484 28.751V28.752Z" fill="#155C6D"/>
<path d="M18.0612 41.9936C19.8621 45.8174 22.5542 48.6766 25.1814 49.9113C26.8152 50.6781 32.9422 52.4818 32.9422 52.4818C32.9422 52.4818 33.8427 42.119 30.9185 35.9215C27.985 29.7249 18.776 24.0417 18.776 24.0417C18.776 24.0417 17.1514 29.3935 16.6594 30.8315C15.6847 33.6777 16.1117 37.8765 18.0612 41.9936Z" fill="#155C6D"/>
<path d="M32.996 52.5598L32.9254 52.5393C32.8651 52.5217 26.7753 50.7254 25.1563 49.966C22.4177 48.6794 19.7451 45.7087 18.0073 42.0196C16.1311 38.0575 15.5927 33.7631 16.6036 30.8129C17.0892 29.3926 18.7035 24.0788 18.7193 24.025L18.7416 23.9507L18.8075 23.9916C18.8994 24.0482 28.0647 29.7546 30.9722 35.8964C32.4872 39.1065 32.9579 43.4474 33.086 46.5238C33.2243 49.8546 33.0034 52.4614 33.0015 52.4873L32.9951 52.5607L32.996 52.5598ZM18.8112 24.1346C18.6125 24.7881 17.1718 29.5216 16.716 30.8519C15.7153 33.7742 16.2518 38.0343 18.1159 41.9695C19.8417 45.6336 22.4929 48.5838 25.2073 49.8593C26.7242 50.5713 32.2023 52.2014 32.8892 52.4057C32.9236 51.961 33.0934 49.5418 32.9672 46.5284C32.8391 43.4641 32.3703 39.1409 30.8636 35.9493C29.3542 32.7587 26.1403 29.7063 23.7109 27.7077C21.3242 25.7443 19.2057 24.3852 18.8112 24.1364V24.1346Z" fill="#155C6D"/>
<path d="M27.4743 51.8662C23.7238 53.6356 18.2189 49.8444 15.174 43.3981C12.1291 36.9518 12.7047 30.292 16.4458 28.5226L12.4818 30.396C8.73142 32.1645 8.16515 38.8252 11.21 45.2714C14.2549 51.7168 19.7599 55.508 23.5103 53.7396L27.4743 51.8662Z" fill="#70C5AD"/>
<path d="M21.5255 54.2335C17.984 54.2335 13.6998 50.6882 11.1553 45.2984C9.67739 42.1699 8.99597 38.8948 9.23733 36.0746C9.47962 33.2423 10.6224 31.2055 12.4568 30.3403L16.4142 28.4707L16.4207 28.4679L16.4736 28.5793C12.765 30.3329 12.207 36.9695 15.2306 43.373C18.2569 49.7775 23.7396 53.5641 27.4492 51.8115L27.5021 51.9229L23.5382 53.7962C22.9097 54.0924 22.2329 54.2335 21.5265 54.2335H21.5255ZM15.5286 29.0249L12.5087 30.4526C10.7152 31.2983 9.59756 33.2989 9.35898 36.0857C9.1204 38.8837 9.79804 42.1374 11.2657 45.2464C14.2911 51.65 19.7756 55.4356 23.4843 53.6848L26.5069 52.2561C22.8094 53.0396 17.9144 49.344 15.1183 43.425C12.324 37.5088 12.5756 31.3875 15.5276 29.0249H15.5286Z" fill="#155C6D"/>
<path d="M9.48335 34.8362C9.177 36.3782 9.18628 38.181 9.53904 40.0998L13.503 38.2265C13.1502 36.3076 13.141 34.5058 13.4473 32.9629L9.48335 34.8362Z" fill="#C8DAE8"/>
<path d="M9.49353 40.1898L9.47868 40.1119C9.13056 38.219 9.11109 36.3911 9.42208 34.8251L9.42854 34.7944L9.45642 34.7814L13.5318 32.8561L13.5085 32.9758C13.1994 34.5289 13.2189 36.341 13.5642 38.2162L13.5726 38.2626L13.5299 38.2831L9.49353 40.1898ZM9.53716 34.8789C9.24009 36.4014 9.25588 38.1726 9.58543 40.0097L13.4342 38.1912C13.1038 36.3651 13.0796 34.5986 13.3646 33.0705L9.53812 34.8789H9.53716Z" fill="#155C6D"/>
<path d="M51.1463 59.2799C58.3223 55.8868 58.2758 40.7051 51.0349 25.371C43.794 10.037 32.0972 0.356462 24.9119 3.75041C17.7267 7.14342 17.7731 22.3252 25.0233 37.6592C32.2642 52.9932 43.9611 62.6729 51.1463 59.2799Z" fill="#C8DAE8"/>
<path d="M48.03 60.0234C40.8745 60.0234 31.2274 50.963 24.9603 37.6898C21.4494 30.2651 19.5045 22.6436 19.485 16.228C19.4646 9.79469 21.3806 5.34153 24.8813 3.68819C28.383 2.03485 33.0404 3.3837 37.9967 7.48502C42.9382 11.5752 47.5909 17.9166 51.0972 25.3422C58.3428 40.6855 58.378 55.9388 51.1752 59.3439C50.2023 59.8034 49.1458 60.0234 48.029 60.0234H48.03ZM28.0618 3.13861C26.945 3.13861 25.8998 3.36234 24.9427 3.81443C21.493 5.44271 19.6039 9.85132 19.6243 16.228C19.6447 22.6232 21.5849 30.2243 25.0865 37.6304C32.2996 52.9059 43.9798 62.5921 51.1167 59.2176C58.2499 55.845 58.1849 40.6753 50.9737 25.4016C47.4748 17.9945 42.8351 11.6699 37.9094 7.59177C34.3604 4.65456 30.9693 3.13861 28.0618 3.13861Z" fill="#155C6D"/>
<path d="M50.1809 57.2486C56.8555 54.0961 56.8277 40.019 50.1159 25.8064C43.4041 11.5938 32.552 2.62713 25.8774 5.77971C19.2027 8.93229 19.2306 23.0094 25.9423 37.222C32.6541 51.4355 43.5062 60.4012 50.1809 57.2486Z" fill="#70C5AD"/>
<path d="M47.2502 57.9533C44.5191 57.9533 41.347 56.5413 38.0301 53.8009C33.4451 50.0115 29.1293 44.1343 25.8793 37.2517C19.161 23.028 19.1471 8.88129 25.8468 5.71664C29.1006 4.17934 33.4256 5.42606 38.0264 9.22754C42.6114 13.016 46.928 18.8932 50.1781 25.7768C56.8945 40.0005 56.9084 54.1472 50.2097 57.3119C49.3008 57.7407 48.3085 57.9533 47.2502 57.9533ZM28.8082 5.21534C27.7703 5.21534 26.7974 5.42329 25.9072 5.84382C19.2762 8.97597 19.3207 23.0382 26.0046 37.1932C29.2463 44.0591 33.5491 49.9187 38.1192 53.6951C42.6745 57.4585 46.9457 58.7015 50.1503 57.1865C56.7813 54.0553 56.7367 39.9921 50.0537 25.8371C46.8111 18.9721 42.5083 13.1116 37.9382 9.33616C34.6482 6.61803 31.5059 5.21627 28.8082 5.21627V5.21534Z" fill="#155C6D"/>
<path d="M49.6702 55.6185C55.4908 52.8697 55.0917 39.8045 48.7791 26.4376C42.4665 13.0707 32.6262 4.46239 26.8057 7.21115C20.9851 9.95991 21.3843 23.0242 27.6969 36.3911C34.0095 49.7589 43.8497 58.3673 49.6702 55.6185Z" fill="#C8DAE8"/>
<path d="M47.2911 56.2034C44.8301 56.2034 41.9114 54.8044 38.822 52.1021C34.664 48.464 30.6899 42.8949 27.6339 36.4218C24.576 29.9476 22.8001 23.3426 22.6311 17.8219C22.4613 12.2817 23.9326 8.49135 26.7752 7.149C32.6273 4.38817 42.5222 13.0281 48.8413 26.4089C51.8992 32.883 53.6751 39.488 53.8441 45.0087C54.014 50.5499 52.5426 54.3402 49.7001 55.6826C48.9621 56.0307 48.1544 56.2034 47.2911 56.2034ZM29.1748 6.77025C28.3421 6.77025 27.5577 6.93454 26.8355 7.27523C24.0468 8.59159 22.6023 12.3365 22.7704 17.8182C22.9393 23.3194 24.7106 29.9059 27.7592 36.3623C30.8078 42.8188 34.7699 48.3721 38.9139 51.9972C43.0403 55.6093 46.852 56.8755 49.6406 55.5563C52.4293 54.24 53.8738 50.4951 53.7058 45.0134C53.5368 39.5112 51.7656 32.9257 48.717 26.4683C43.2157 14.8197 35.0112 6.77025 29.1748 6.77025Z" fill="#155C6D"/>
<path d="M49.7911 55.8766C43.8405 58.6875 33.8147 50.0022 27.4371 36.5136C21.0688 23.0251 20.7346 9.76406 26.6852 6.9531C32.6357 4.14121 42.6616 12.8266 49.0391 26.3151C55.4074 39.8046 55.7416 53.0656 49.7911 55.8775V55.8766ZM26.9265 7.47018C21.2637 10.1475 21.7187 23.0669 27.957 36.2695C34.1953 49.473 43.8777 58.0368 49.5497 55.3595C55.2125 52.6831 54.7576 39.7628 48.5193 26.5602C42.281 13.3567 32.5985 4.7929 26.9265 7.47018Z" fill="#155C6D"/>
<path d="M48.3429 54.3662C53.8292 51.7753 53.4858 39.5353 47.5724 27.0271C41.6683 14.5189 32.4314 6.47967 26.9451 9.07062C21.4587 11.6616 21.8022 23.9015 27.7063 36.4097C33.6197 48.9179 42.8565 56.9572 48.3429 54.3662Z" fill="#C8DAE8"/>
<path d="M46.113 54.9176C40.5626 54.9176 32.8139 47.3769 27.6431 36.4403C21.7316 23.9163 21.4048 11.6105 26.9153 9.0084C29.5945 7.74309 33.2288 8.92485 37.1473 12.3346C41.0508 15.7322 44.7753 20.9401 47.6345 26.9974C50.4993 33.0556 52.1564 39.2401 52.3012 44.4137C52.4479 49.6067 51.0517 53.164 48.3726 54.4293C47.6754 54.758 46.9169 54.9167 46.112 54.9167L46.113 54.9176ZM29.2055 8.65192C28.4053 8.65192 27.658 8.81067 26.9757 9.13373C21.5357 11.7033 21.8903 23.9256 27.7685 36.38C33.6568 48.8334 42.8778 56.8736 48.3131 54.304C50.9403 53.0638 52.3077 49.5529 52.1628 44.4183C52.018 39.2633 50.3647 33.0983 47.5092 27.0578C44.6574 21.0172 40.945 15.826 37.0554 12.4404C34.1878 9.94506 31.4817 8.65285 29.2046 8.65285L29.2055 8.65192Z" fill="#155C6D"/>
<path d="M48.4542 54.6252C42.8379 57.2793 33.4154 49.162 27.4463 36.5304C21.4772 23.8987 21.1987 11.4638 26.8244 8.81068C32.4407 6.15661 41.8632 14.272 47.8323 26.9027C53.8014 39.5335 54.0799 51.9702 48.4542 54.6252ZM27.0657 9.32773C21.7279 11.8472 22.1363 23.9405 27.9662 36.2862C33.796 48.632 42.875 56.6267 48.2129 54.1072C53.5507 51.5877 53.1423 39.4936 47.3124 27.1469C41.4826 14.8011 32.4036 6.80734 27.0657 9.32773Z" fill="#155C6D"/>
<path d="M47.0897 53.1409C52.2698 50.692 52.0191 39.2606 46.5142 27.6074C41.0092 15.9542 32.3387 8.49325 27.1586 10.9412C21.9693 13.3901 22.2292 24.8224 27.7342 36.4757C33.2391 48.128 41.9004 55.5898 47.0897 53.1409Z" fill="#70C5AD"/>
<path d="M44.9535 53.6718C39.7206 53.6718 32.476 46.676 27.6719 36.5063C25.0048 30.8602 23.4759 25.0907 23.3663 20.2588C23.2568 15.4064 24.5926 12.0756 27.1288 10.879C29.6622 9.68148 33.0812 10.7676 36.7602 13.9341C40.4242 17.0885 43.911 21.9344 46.5762 27.5776C52.0886 39.2439 52.3318 50.7402 47.1202 53.204C46.4509 53.5196 45.724 53.6709 44.9535 53.6709V53.6718ZM29.3215 10.543C28.5566 10.543 27.8418 10.6961 27.1883 11.0043C24.705 12.1759 23.3969 15.4612 23.5056 20.2551C23.6142 25.0684 25.1385 30.8175 27.7963 36.4459C33.2752 48.0434 41.9161 55.5053 47.0599 53.0786C52.2028 50.6464 51.929 39.2337 46.4509 27.638C43.7931 22.0114 40.3193 17.1823 36.6692 14.0399C33.9919 11.7359 31.4604 10.543 29.3215 10.543Z" fill="#155C6D"/>
<path d="M47.0897 53.1409C52.2698 50.692 52.0191 39.2606 46.5142 27.6074C41.0092 15.9542 32.3387 8.49325 27.1586 10.9412C21.9693 13.3901 22.2292 24.8224 27.7342 36.4757C33.2391 48.128 41.9004 55.5898 47.0897 53.1409Z" fill="#C8DAE8"/>
<path d="M44.9535 53.6718C39.7206 53.6718 32.476 46.676 27.6719 36.5063C25.0048 30.8602 23.4759 25.0907 23.3663 20.2588C23.2568 15.4064 24.5926 12.0756 27.1288 10.879C29.6622 9.68148 33.0812 10.7676 36.7602 13.9341C40.4242 17.0885 43.911 21.9344 46.5762 27.5776C52.0886 39.2439 52.3318 50.7402 47.1202 53.204C46.4509 53.5196 45.724 53.6709 44.9535 53.6709V53.6718ZM29.3215 10.543C28.5566 10.543 27.8418 10.6961 27.1883 11.0043C24.705 12.1759 23.3969 15.4612 23.5056 20.2551C23.6142 25.0684 25.1385 30.8175 27.7963 36.4459C33.2752 48.0434 41.9161 55.5053 47.0599 53.0786C52.2028 50.6464 51.929 39.2337 46.4509 27.638C43.7931 22.0114 40.3193 17.1823 36.6692 14.0399C33.9919 11.7359 31.4604 10.543 29.3215 10.543Z" fill="#155C6D"/>
<path d="M47.2103 53.3989C41.891 55.9119 33.0441 48.373 27.4834 36.5963C21.9228 24.8196 21.7185 13.1942 27.0378 10.6822C32.3571 8.17017 41.2133 15.7081 46.7739 27.4857C52.3346 39.2634 52.5296 50.8869 47.2103 53.3989ZM27.2792 11.1993C22.2477 13.5767 22.5726 24.8604 27.994 36.3531C33.4247 47.8448 41.9374 55.2593 46.9689 52.8828C52.0004 50.5053 51.6848 39.2225 46.2541 27.7308C40.8234 16.2382 32.32 8.82278 27.2792 11.1993Z" fill="#155C6D"/>
<path d="M45.799 51.8458C50.6727 49.5436 50.4963 38.9403 45.3998 28.1616C40.3126 17.3838 32.2362 10.5132 27.3625 12.8155C22.4888 15.1177 22.6652 25.721 27.7524 36.4988C32.8396 47.2766 40.916 54.1481 45.799 51.8458Z" fill="#C8DAE8"/>
<path d="M43.7569 52.3564C38.8507 52.3564 32.1203 45.9157 27.6904 36.5294C22.5939 25.734 22.4343 15.0676 27.333 12.7533C29.7179 11.6281 32.9187 12.614 36.3461 15.5317C39.7605 18.4364 42.9985 22.9119 45.4622 28.1328C47.9316 33.3546 49.3324 38.6989 49.4076 43.1818C49.4828 47.6842 48.2119 50.7838 45.8289 51.9099C45.1893 52.2116 44.493 52.3564 43.7569 52.3564ZM29.4292 12.4376C28.6995 12.4376 28.0171 12.5834 27.3933 12.8786C22.5633 15.1604 22.7527 25.7433 27.8157 36.4691C32.8788 47.194 40.932 54.0682 45.7695 51.7836C48.1014 50.6826 49.3444 47.6284 49.2692 43.1846C49.195 38.7203 47.7988 33.3954 45.3388 28.1922C42.8824 22.988 39.6574 18.5293 36.2579 15.6375C33.7793 13.5293 31.4278 12.4386 29.431 12.4386L29.4292 12.4376Z" fill="#155C6D"/>
<path d="M45.9105 52.1011C40.9069 54.4674 32.6356 47.5217 27.4927 36.6186C22.3405 25.7154 22.2291 14.9209 27.2327 12.5555C32.2457 10.1902 40.5077 17.1349 45.6599 28.0381C50.8028 38.9412 50.9235 49.7358 45.9105 52.1011ZM27.4834 13.0735C22.7582 15.3043 22.9903 25.7581 28.0032 36.3744C33.0255 46.9907 40.944 53.8148 45.6692 51.584C50.3943 49.3533 50.153 38.8985 45.14 28.2822C40.1271 17.6659 32.1993 10.8428 27.4834 13.0735Z" fill="#155C6D"/>
<path d="M44.3792 50.4877C48.9095 48.3489 48.7887 38.5922 44.1193 28.6963C39.4405 18.7995 31.9861 12.5101 27.4559 14.649C22.9257 16.7878 23.0464 26.5445 27.7159 36.4404C32.3946 46.3372 39.8583 52.6266 44.3792 50.4877Z" fill="#C8DAE8"/>
<path d="M42.4417 50.9778C40.5637 50.9778 38.3672 49.9743 36.0622 48.0314C32.9068 45.3717 29.9205 41.2658 27.6526 36.471C22.9738 26.5537 22.8726 16.7367 27.4261 14.5867C31.9869 12.4367 39.497 18.7549 44.1823 28.6675C48.861 38.5848 48.9622 48.4018 44.4088 50.5518C43.8054 50.8377 43.1462 50.9778 42.4417 50.9778ZM29.3848 14.3017C28.709 14.3017 28.0722 14.4354 27.4855 14.712C23.0008 16.8295 23.1326 26.5639 27.777 36.4106C30.0365 41.1878 33.0099 45.277 36.1513 47.9246C39.277 50.5592 42.1892 51.4476 44.3484 50.4246C48.8332 48.3071 48.7013 38.5736 44.0569 28.726C40.0122 20.1706 33.8667 14.3017 29.3848 14.3017Z" fill="#155C6D"/>
<path d="M44.509 50.7467C39.8488 52.9496 32.1995 46.5869 27.465 36.5638C22.7306 26.5398 22.6749 16.5937 27.335 14.3908C32.0045 12.1879 39.6446 18.5506 44.3791 28.5737C49.1135 38.5977 49.1692 48.5437 44.509 50.7467ZM27.5857 14.9069C23.204 16.9752 23.3804 26.5797 27.9849 36.3178C32.5801 46.0558 39.8859 52.296 44.2676 50.2287C48.64 48.1604 48.4637 38.555 43.8592 28.8169C39.264 19.0798 31.9581 12.8396 27.5857 14.9069Z" fill="#155C6D"/>
<path d="M42.875 48.9485C47.0524 46.9768 47.0246 38.1503 42.81 29.2356C38.6047 20.32 31.8094 14.6916 27.6319 16.6643C23.4545 18.636 23.4824 27.4616 27.6969 36.3772C31.9022 45.2919 38.6975 50.9203 42.875 48.9485Z" fill="#C8DAE8"/>
<path d="M41.0463 49.4145C39.3289 49.4145 37.3348 48.5252 35.2526 46.7995C32.3776 44.4193 29.6724 40.7282 27.6348 36.4078C25.5925 32.0865 24.4599 27.651 24.4479 23.9172C24.4349 20.165 25.5554 17.5675 27.6014 16.6012C29.6502 15.6339 32.3655 16.4211 35.2545 18.8133C38.1295 21.1945 40.8346 24.8855 42.8723 29.2059C44.9146 33.5263 46.0462 37.9618 46.0592 41.6955C46.0713 45.4478 44.9508 48.0462 42.9048 49.0117C42.3339 49.2809 41.7109 49.4145 41.0463 49.4145ZM29.4617 16.3375C28.8175 16.3375 28.2131 16.4665 27.6617 16.7274C25.6677 17.6687 24.5751 20.2225 24.5871 23.9172C24.6001 27.6305 25.7271 32.0457 27.7601 36.3484C29.7904 40.6512 32.4825 44.3245 35.3417 46.6927C38.1861 49.0488 40.8532 49.8286 42.8453 48.8863C44.8403 47.945 45.932 45.3912 45.92 41.6965C45.9079 37.9832 44.7809 33.5681 42.7479 29.2662C40.7176 24.9635 38.0255 21.2892 35.1663 18.921C33.1091 17.2176 31.1457 16.3375 29.4617 16.3375Z" fill="#155C6D"/>
<path d="M42.9956 49.2076C38.6882 51.2443 31.698 45.5444 27.4277 36.4998C23.1574 27.4551 23.1945 18.442 27.5019 16.4062C31.8186 14.3695 38.7996 20.0694 43.0699 29.1131C47.3402 38.1578 47.303 47.1718 42.9956 49.2076ZM27.7526 16.9243C23.7237 18.8255 23.8165 27.4988 27.9476 36.2566C32.0879 45.0144 38.7254 50.5926 42.7543 48.6914C46.7739 46.7902 46.6904 38.1169 42.55 29.3591C38.419 20.6013 31.7722 15.0221 27.7526 16.9243Z" fill="#155C6D"/>
<path d="M50.9699 59.3569C43.8683 62.709 32.2456 52.9979 25.0047 37.6648C17.7638 22.3317 17.6432 7.18428 24.7448 3.83118L22.8046 4.7465C15.7029 8.09959 15.8237 23.248 23.0646 38.5811C30.3055 53.9142 41.928 63.6253 49.0297 60.2731L50.9699 59.3569Z" fill="#70C5AD"/>
<path d="M45.9877 61C38.8981 61 29.2816 51.9081 23.0015 38.6117C19.4943 31.1851 17.5355 23.572 17.4863 17.1721C17.4362 10.7528 19.3151 6.31816 22.775 4.68338L24.7152 3.76807L24.7746 3.89431C21.3667 5.50402 19.5175 9.89312 19.5667 16.2549C19.6159 22.6343 21.5701 30.2271 25.068 37.6351C32.2792 52.9014 43.8776 62.6162 50.9338 59.2975L50.9412 59.2938L51.0007 59.42C51.0007 59.42 50.996 59.4219 50.9941 59.4228L49.0604 60.3363C48.1108 60.7847 47.0785 61 45.9877 61ZM23.5344 4.48009L22.8353 4.80965C19.4265 6.41843 17.5773 10.8084 17.6265 17.1712C17.6757 23.5506 19.6298 31.1443 23.1278 38.5514C30.3418 53.825 41.956 63.539 49.001 60.21L49.7084 59.8758C42.5297 61.6285 31.764 52.1401 24.9427 37.6945C21.4355 30.2689 19.4767 22.6548 19.4275 16.2558C19.3838 10.6098 20.8321 6.49918 23.5353 4.47915L23.5344 4.48009Z" fill="#155C6D"/>
<path d="M39.0502 44.8528C42.3643 43.2849 42.6614 36.9352 39.7 30.6699C36.7387 24.4047 31.6515 20.5967 28.3281 22.1646C25.014 23.7326 24.7169 30.0823 27.6782 36.3475C30.6396 42.6128 35.7268 46.4207 39.0502 44.8528Z" fill="#155C6D"/>
<path d="M37.4376 45.2724C34.2126 45.2724 30.1346 41.7086 27.616 36.3782C24.6435 30.0906 24.9499 23.6871 28.2974 22.1024C31.645 20.5252 36.7897 24.3518 39.7622 30.6411C42.7347 36.9287 42.4283 43.3322 39.0808 44.9169C38.5702 45.1573 38.0178 45.2724 37.4376 45.2724ZM29.9507 21.8824C29.3891 21.8824 28.8525 21.9948 28.3577 22.2278C25.0789 23.779 24.8022 30.0999 27.7413 36.3178C30.6804 42.5357 35.737 46.34 39.0204 44.7897C42.2993 43.2385 42.5759 36.9175 39.6368 30.6996C37.1415 25.4193 33.1172 21.8815 29.9498 21.8815L29.9507 21.8824Z" fill="#155C6D"/>
</svg>
