<svg width="64" height="64" viewBox="0 0 64 64" fill="none" xmlns="http://www.w3.org/2000/svg">
<path d="M31.3965 61.8907C37.8455 61.8907 44.3047 60.8936 49.2363 58.8944C54.0858 56.9266 56.7515 54.2963 56.7617 51.4852C56.7617 48.6967 54.137 46.0838 49.349 44.1255C39.5577 40.1271 23.5737 40.1271 13.7209 44.1255C8.87135 46.0926 6.19536 48.7237 6.19536 51.5347C6.19536 54.3232 8.8201 56.9361 13.6081 58.8944C18.4986 60.8936 24.9476 61.8907 31.3965 61.8907Z" fill="#155C6D"/>
<path d="M31.3965 62C38.1612 62 44.524 60.9308 49.3131 58.9899C54.2057 57.0039 56.9052 54.3393 56.9165 51.4859C56.9165 48.6537 54.256 46.0066 49.4259 44.0307C39.5915 40.0149 23.5409 40.0149 13.6449 44.0307C8.7421 46.0197 6.04158 48.685 6.04158 51.5347C6.04158 54.3662 8.70213 57.0141 13.5322 58.9892C18.2812 60.9308 24.6246 62 31.3965 62ZM31.5575 41.2349C37.9818 41.2349 44.397 42.2305 49.2711 44.221C54.0017 46.156 56.6069 48.736 56.6069 51.4859C56.5976 54.2576 53.9525 56.8552 49.1593 58.8004C44.4154 60.7231 38.1079 61.7821 31.3955 61.7821C24.6831 61.7821 18.3868 60.7231 13.6849 58.8004C8.95433 56.8654 6.34915 54.2853 6.34915 51.5355C6.34915 48.7674 8.9933 46.1698 13.7967 44.221C18.7026 42.2305 25.1352 41.2349 31.5575 41.2349Z" fill="#155C6D"/>
<path d="M17.048 20.23C17.3926 20.1792 17.6374 19.8592 17.583 19.5173C17.5286 19.1745 17.2112 18.9333 16.8666 18.9778C16.1684 19.0793 15.4067 18.7982 14.9442 18.265C14.7357 18.0347 14.5906 17.7482 14.4999 17.4453C14.5997 17.4453 14.7084 17.4453 14.8082 17.4344C15.3795 17.3782 15.8782 17.1588 16.2047 16.8051C16.6671 16.3281 16.785 15.6154 16.5039 15.0704C16.1412 14.3858 15.1891 14.1047 14.4364 14.4583C13.9468 14.6887 13.5568 15.1321 13.3483 15.7161C13.1579 15.5474 13.0037 15.3461 12.913 15.1158C12.6319 14.442 12.8496 13.5887 13.4118 13.1227C13.6838 12.9032 13.7201 12.5051 13.5025 12.2358C13.2848 11.9656 12.8767 11.932 12.6047 12.146C11.6163 12.954 11.2446 14.4085 11.7342 15.5873C12.0063 16.2438 12.5322 16.7716 13.1579 17.0916C13.2123 17.8162 13.5024 18.518 13.983 19.0739C14.7357 19.9272 15.9145 20.3651 17.048 20.2019V20.23ZM15.0803 15.5755C15.2163 15.5592 15.3432 15.5982 15.3795 15.6544C15.4067 15.716 15.3795 15.8566 15.2888 15.9464C15.1709 16.0697 14.9533 16.1595 14.6904 16.1821C14.6359 16.1821 14.5906 16.1876 14.5271 16.1876C14.6359 15.902 14.7991 15.6825 14.9896 15.5982C15.0168 15.5873 15.0531 15.5755 15.0803 15.5701V15.5755Z" fill="#155C6D"/>
<path d="M16.5728 20.3724C16.7134 20.3724 16.8548 20.3633 16.9954 20.3461C17.018 20.3597 17.0416 20.3679 17.067 20.3652C17.271 20.3352 17.4578 20.2228 17.5793 20.0577C17.6999 19.8936 17.7489 19.695 17.7171 19.4974C17.65 19.0775 17.2719 18.7937 16.8475 18.8436C16.2028 18.9379 15.4746 18.6713 15.0466 18.1771C14.897 18.0111 14.7764 17.8116 14.6876 17.5804C14.7338 17.5786 14.7792 17.5759 14.8218 17.5704C15.432 17.5106 15.958 17.2721 16.3035 16.8985C16.7995 16.3871 16.9319 15.6091 16.6245 15.0097C16.2255 14.2598 15.1981 13.9515 14.3775 14.3369C13.9059 14.5581 13.5278 14.9589 13.2975 15.4776C13.1823 15.3497 13.0953 15.2128 13.039 15.0677C12.7806 14.4484 12.9783 13.6595 13.4979 13.2288C13.8234 12.9658 13.8742 12.4816 13.6085 12.1515C13.3455 11.826 12.8568 11.7743 12.5204 12.04C11.4785 12.8914 11.0958 14.4049 11.6081 15.6399C11.8747 16.2819 12.3771 16.8269 13.0272 17.1778C13.0989 17.906 13.399 18.6078 13.8787 19.1628C14.557 19.9317 15.5563 20.3715 16.5719 20.3715L16.5728 20.3724ZM17.0479 20.0668C17.0416 20.0668 17.0343 20.0668 17.0289 20.0677C15.9453 20.2228 14.8136 19.8093 14.0855 18.9841C13.6284 18.4546 13.3473 17.7781 13.2938 17.0817C13.2902 17.0345 13.263 16.9919 13.2204 16.9711C12.5947 16.6501 12.1114 16.1404 11.8611 15.5356C11.3923 14.4094 11.7423 13.0284 12.6917 12.2521C12.9057 12.0835 13.2295 12.1143 13.3972 12.322C13.5686 12.5351 13.5378 12.847 13.3265 13.0175C12.7171 13.5226 12.4868 14.4475 12.7879 15.1693C12.8813 15.406 13.0391 15.6254 13.2594 15.8185C13.2939 15.8485 13.3446 15.8593 13.3836 15.8485C13.428 15.8376 13.4634 15.8049 13.4779 15.7623C13.6711 15.2182 14.032 14.7993 14.4945 14.5826C15.19 14.258 16.0532 14.51 16.3842 15.1348C16.6399 15.6308 16.5256 16.2792 16.1076 16.7108C15.8057 17.0373 15.3405 17.2458 14.7955 17.2993C14.7039 17.3093 14.6059 17.3102 14.5153 17.3102C14.46 17.3102 14.4201 17.3274 14.3911 17.3646C14.3657 17.3991 14.3575 17.4435 14.3702 17.4852C14.4727 17.8307 14.6322 18.1245 14.8435 18.3566C15.335 18.9243 16.1366 19.2235 16.8856 19.1129C17.1676 19.0784 17.4061 19.2652 17.4488 19.54C17.4687 19.6651 17.4369 19.7921 17.3599 19.8963C17.2955 19.9843 17.2057 20.0478 17.1042 20.0786C17.086 20.0705 17.067 20.0668 17.0479 20.0668ZM14.5271 16.3236C14.5624 16.3236 14.5923 16.3227 14.6214 16.3209C14.644 16.3209 14.6658 16.3191 14.6894 16.3191C14.9923 16.2937 15.2416 16.1921 15.3867 16.0407C15.5055 15.9237 15.5581 15.7242 15.5028 15.6C15.4221 15.4712 15.2634 15.4259 15.1056 15.4377C15.0875 15.4341 15.0711 15.435 15.053 15.4377C15.0176 15.4449 14.9723 15.4585 14.9378 15.473C14.7157 15.5719 14.5262 15.8077 14.3983 16.1404C14.382 16.1822 14.3884 16.2293 14.4146 16.2656C14.4391 16.3028 14.4808 16.3245 14.5262 16.3245L14.5271 16.3236ZM15.2525 15.7269C15.248 15.7596 15.2317 15.8131 15.1936 15.8503C15.1029 15.9446 14.9397 16.0135 14.7456 16.0398C14.8327 15.8829 14.937 15.7714 15.0449 15.7233C15.0539 15.7197 15.0648 15.7161 15.0766 15.7124C15.0829 15.7124 15.0902 15.7124 15.0956 15.7124C15.1727 15.7043 15.2244 15.7161 15.2525 15.7279V15.7269Z" fill="#155C6D"/>
<path d="M25.5446 51.8305C25.7441 50.921 25.9255 50.0115 26.125 49.0966C25.9981 49.686 25.5447 50.2636 24.7739 50.7242C22.8697 51.8468 19.7503 51.8749 17.8007 50.7913C16.9665 50.3316 16.4768 49.7358 16.3498 49.1183C16.5403 50.0278 16.7398 50.9373 16.9393 51.8468C17.0571 52.3918 17.4833 52.9078 18.2178 53.3176C19.9407 54.2725 22.6883 54.2389 24.3568 53.256C25.0459 52.8516 25.4358 52.3465 25.5537 51.8242H25.5446V51.8305Z" fill="#70C5AD"/>
<path d="M21.2262 54.1474C22.3887 54.1474 23.5512 53.8881 24.4254 53.3739C25.1173 52.9677 25.5525 52.4426 25.6858 51.8551C25.6895 51.8396 25.6904 51.8242 25.6885 51.8097C25.7874 51.3572 25.8826 50.9039 25.9769 50.4505C26.0685 50.0125 26.1601 49.5727 26.2562 49.1329C26.2562 49.1302 26.258 49.1284 26.258 49.1256C26.2743 49.0522 26.2272 48.9796 26.1546 48.9642C26.083 48.9479 26.0087 48.995 25.9923 49.0676C25.9923 49.0676 25.9923 49.0721 25.9905 49.074C25.8654 49.6416 25.4083 50.1866 24.7038 50.6073C22.8431 51.7045 19.7745 51.7345 17.8666 50.6726C17.1004 50.251 16.6107 49.6933 16.4856 49.1021C16.4856 49.0994 16.4856 49.0957 16.4838 49.0921C16.4838 49.0921 16.4838 49.0921 16.4838 49.0912C16.4684 49.0168 16.3949 48.9724 16.3233 48.9851C16.2498 49.0005 16.2027 49.0722 16.2181 49.1456C16.2181 49.1501 16.2199 49.1547 16.2208 49.1592C16.4103 50.0651 16.6089 50.971 16.8066 51.8768C16.9381 52.4798 17.4023 53.0194 18.1513 53.4374C19.0073 53.9116 20.1164 54.1474 21.2272 54.1474H21.2262ZM25.4083 51.8415C25.2805 52.3357 24.8942 52.7836 24.2876 53.1391C22.6554 54.1012 19.9613 54.1293 18.2828 53.1989C17.6046 52.8208 17.1856 52.3429 17.0714 51.8188C16.9444 51.2412 16.8193 50.6645 16.6941 50.0868C16.9535 50.3942 17.3044 50.6735 17.7343 50.9111C19.7183 52.0138 22.9075 51.9829 24.8425 50.8422C25.2252 50.6137 25.5417 50.3489 25.7801 50.0623C25.7566 50.1739 25.733 50.2845 25.7103 50.3951C25.6142 50.8585 25.5163 51.321 25.4147 51.7843C25.4102 51.7979 25.4074 51.8115 25.4074 51.8251C25.4074 51.8306 25.4083 51.836 25.4083 51.8415Z" fill="#155C6D"/>
<path d="M14.654 41.1251C14.654 41.1759 14.654 41.2321 14.6722 41.2883V41.3218C14.6722 41.3726 14.6722 41.4225 14.6812 41.4787C14.6812 41.5186 14.6993 41.5522 14.6993 41.5911C14.6993 41.5911 14.7084 41.6247 14.7084 41.6365C14.7084 41.6474 14.7175 41.67 14.7266 41.6809C14.8898 42.478 15.0621 43.275 15.2344 44.073C15.5699 45.6164 15.8691 47.7165 16.3588 49.2263C16.3588 49.2372 16.3588 49.2489 16.3678 49.2716C16.3678 49.2771 16.3769 49.288 16.3769 49.2934C16.3769 49.2934 16.3769 49.316 16.386 49.3333C16.3951 49.3496 16.4041 49.3777 16.4132 49.4004C16.4222 49.4394 16.4494 49.4738 16.4585 49.5128C16.4585 49.5128 16.4766 49.5518 16.4766 49.569C16.4857 49.5799 16.4948 49.5854 16.5039 49.6026V49.6135C16.522 49.6362 16.5401 49.6643 16.5492 49.6924C16.5492 49.6924 16.5492 49.7033 16.5583 49.7033C16.5673 49.715 16.5764 49.7259 16.5855 49.7432V49.754C16.6127 49.7876 16.6308 49.8157 16.658 49.8492C16.658 49.8556 16.6671 49.8665 16.6762 49.8719C16.6852 49.8892 16.6943 49.9109 16.7124 49.9281C16.7215 49.939 16.7305 49.9508 16.7396 49.9671C16.7396 49.9671 16.7487 49.9735 16.7487 49.9789C16.7668 49.9898 16.7759 50.0125 16.794 50.0233C16.794 50.0288 16.8031 50.0406 16.8031 50.046C16.8303 50.0687 16.8484 50.0914 16.8756 50.1131C16.8756 50.1131 16.9028 50.153 16.93 50.1693L16.9391 50.1866C16.9391 50.1866 16.9663 50.2092 16.9844 50.2256C17.0026 50.2537 17.0389 50.2763 17.057 50.299C17.0661 50.3044 17.0751 50.3099 17.0751 50.3153C17.0932 50.3271 17.1023 50.3325 17.1023 50.338C17.2111 50.4332 17.3471 50.523 17.4741 50.6128H17.4832C17.5194 50.63 17.5376 50.6527 17.5648 50.669C17.6011 50.6917 17.6464 50.7143 17.6918 50.737C17.7099 50.7533 17.728 50.7651 17.7552 50.7814C17.7733 50.7923 17.8005 50.8041 17.8187 50.815C17.864 50.8376 17.9094 50.8658 17.9638 50.8884C17.991 50.9048 18.0272 50.922 18.0544 50.9328C18.1088 50.9555 18.1723 50.9836 18.2267 51.0063C18.2721 51.0226 18.3265 51.0453 18.3718 51.0625C18.4444 51.0843 18.5078 51.1124 18.5804 51.1351C18.6167 51.1469 18.6438 51.1577 18.671 51.1741C18.7073 51.1859 18.7436 51.1967 18.7799 51.2085C18.7889 51.2085 18.8162 51.2194 18.8252 51.2248C19.1335 51.3201 19.46 51.3935 19.7864 51.4497H19.7955C19.7955 51.4497 19.8227 51.4497 19.8408 51.4552C20.0313 51.4833 20.2398 51.5114 20.4484 51.5286H20.5572C20.5844 51.5286 20.6206 51.5286 20.6569 51.534H20.6932C20.7476 51.534 20.8111 51.5395 20.8655 51.5395H21.1285C21.5002 51.5395 21.872 51.5223 22.2347 51.4724C22.3163 51.4606 22.3979 51.4552 22.4705 51.4379C22.5067 51.4325 22.5521 51.427 22.5884 51.4216C22.6337 51.4162 22.6609 51.4107 22.6972 51.4044C22.7062 51.4044 22.7244 51.3989 22.7335 51.3989C22.8876 51.3763 23.0327 51.3373 23.1687 51.2983H23.1869C23.2413 51.2811 23.3138 51.2702 23.3773 51.2475C23.6674 51.1686 23.9486 51.0625 24.2115 50.9446C24.2297 50.9383 24.2478 50.9274 24.2659 50.922C24.3476 50.883 24.4382 50.8377 24.5198 50.7987C24.5289 50.7923 24.538 50.7869 24.547 50.7814C24.5924 50.7587 24.6468 50.7252 24.7012 50.7025C24.7284 50.6916 24.7375 50.6808 24.7556 50.6635C24.8009 50.6409 24.8553 50.6019 24.9188 50.5565C24.9369 50.5511 24.946 50.5402 24.9641 50.5348C24.9641 50.5284 24.9732 50.523 24.9823 50.523C24.9914 50.5121 25.0095 50.5067 25.0185 50.4894C25.0185 50.4894 25.0276 50.4894 25.0276 50.484C25.0458 50.4731 25.0548 50.4613 25.0729 50.445C25.1001 50.4278 25.1274 50.4051 25.1455 50.3888C25.1546 50.377 25.1727 50.3716 25.1908 50.3552C25.1908 50.3489 25.1999 50.3489 25.1999 50.3434C25.2452 50.3044 25.2906 50.2763 25.3269 50.2373C25.3541 50.2147 25.3812 50.1866 25.4085 50.1639C25.4085 50.1585 25.4266 50.153 25.4266 50.1467C25.4447 50.1358 25.4538 50.1249 25.4629 50.1077C25.4901 50.085 25.5173 50.0569 25.5354 50.0351C25.5535 50.0179 25.5717 49.9952 25.5898 49.9735C25.5989 49.9563 25.617 49.939 25.617 49.9227C25.617 49.9173 25.617 49.9109 25.6351 49.9109C25.6623 49.8665 25.6987 49.8275 25.7259 49.7876C25.7531 49.7431 25.7802 49.7033 25.8074 49.6643C25.8256 49.6307 25.8437 49.6026 25.8618 49.569C25.8618 49.5573 25.8709 49.5518 25.8709 49.5409C25.8709 49.5409 25.8709 49.5237 25.88 49.5183C25.8891 49.501 25.9072 49.4793 25.9072 49.4621C25.9344 49.4004 25.9616 49.3333 25.9797 49.2716C25.9979 49.2435 25.9979 49.21 26.007 49.1755V49.1537L26.0251 49.1084V49.0694L26.0976 48.7375C26.1248 48.5643 26.1611 48.3839 26.2064 48.2107L26.687 45.9138C26.7596 45.5828 26.8321 45.2573 26.8865 44.9481L27.077 44.0449C27.2492 43.2306 27.4306 42.4163 27.5938 41.6084V41.5123C27.5938 41.5123 27.612 41.456 27.612 41.4343C27.6211 41.3889 27.621 41.3445 27.6301 41.3046V41.2937C27.6301 41.2375 27.6392 41.1813 27.6392 41.1251C27.6392 40.1485 26.9772 39.1655 25.6533 38.4419C23.0599 36.9992 18.9159 37.0436 16.386 38.5371C15.1528 39.2671 14.5361 40.2156 14.5361 41.1532L14.654 41.1423V41.1251Z" fill="#C8DAE8"/>
<path d="M20.8656 51.6764H21.1286C21.5511 51.6764 21.9193 51.6547 22.2539 51.6075L22.3337 51.5975C22.3917 51.5903 22.4498 51.583 22.5033 51.5712L22.6102 51.5567C22.6501 51.5522 22.6783 51.5467 22.7136 51.5404L22.7254 51.4008L22.7472 51.5349C22.9086 51.5123 23.0555 51.4733 23.1906 51.4343C23.2051 51.4343 23.2205 51.4316 23.2287 51.4288C23.2486 51.4225 23.2731 51.4171 23.2967 51.4107C23.3384 51.4007 23.3819 51.3908 23.4227 51.3763C23.6875 51.3046 23.974 51.2003 24.2678 51.0688L24.2588 50.9247L24.3069 51.0516L24.5789 50.921C24.5843 50.9183 24.617 50.8984 24.6224 50.8957L24.6641 50.8739C24.6922 50.8585 24.7222 50.8413 24.7539 50.8286C24.7956 50.8122 24.8201 50.7914 24.8382 50.7742C24.8818 50.7497 24.9325 50.7143 24.9906 50.6735C25.0005 50.669 25.0096 50.6644 25.0124 50.6617C25.0314 50.6563 25.0477 50.6463 25.0604 50.6345C25.0704 50.6282 25.0785 50.6209 25.0849 50.6127C25.0885 50.6109 25.0922 50.6082 25.0949 50.6055C25.1058 50.5991 25.1139 50.5919 25.1221 50.5846C25.1357 50.5747 25.1447 50.5656 25.1529 50.5583C25.1801 50.5393 25.2137 50.5112 25.2372 50.4921C25.2526 50.4813 25.2662 50.4722 25.2826 50.4586C25.2889 50.4523 25.2952 50.445 25.3016 50.4387C25.3134 50.4296 25.3233 50.4205 25.3351 50.4123C25.3696 50.386 25.4013 50.3607 25.4294 50.3307L25.4975 50.2709C25.5029 50.2664 25.5074 50.2618 25.512 50.2564C25.5346 50.24 25.5537 50.2219 25.5691 50.1983C25.5972 50.1739 25.6235 50.1457 25.6416 50.1231C25.6489 50.1176 25.6671 50.0968 25.6852 50.075C25.6925 50.0669 25.7069 50.0469 25.7124 50.0378C25.7169 50.0315 25.7233 50.0224 25.7287 50.0133C25.7387 50.0043 25.7468 49.9943 25.7532 49.9834C25.7659 49.9626 25.7813 49.9426 25.7967 49.9236C25.8121 49.9045 25.8257 49.8864 25.8384 49.8674C25.8683 49.8193 25.8937 49.7821 25.92 49.7449L25.9817 49.6371C25.988 49.6262 25.9926 49.6144 25.9953 49.6026C25.998 49.5963 25.9999 49.5899 26.0017 49.5835C26.0153 49.5627 26.0306 49.5364 26.0388 49.5038C26.0633 49.4466 26.0887 49.3859 26.1059 49.3287C26.1241 49.2934 26.1295 49.2598 26.1341 49.2344C26.1341 49.2281 26.1404 49.1991 26.1422 49.1846L26.1521 49.161C26.1585 49.1447 26.1622 49.1283 26.1622 49.1111V49.0721L26.2311 48.7693C26.2619 48.5743 26.2982 48.4011 26.3381 48.2478L26.8377 45.8639C26.9048 45.5592 26.9701 45.2591 27.0209 44.9744L27.2104 44.0748C27.272 43.781 27.3364 43.4881 27.399 43.1943C27.5105 42.6738 27.623 42.1542 27.7272 41.6374L27.7299 41.5349C27.7426 41.4941 27.749 41.4606 27.749 41.4361C27.749 41.4361 27.7536 41.4125 27.7563 41.3889C27.7581 41.3717 27.7599 41.3545 27.7635 41.3391C27.7663 41.3282 27.7681 41.3064 27.7681 41.2955C27.7681 41.2711 27.7699 41.2466 27.7717 41.2221C27.7744 41.1904 27.7771 41.1586 27.7771 41.1269C27.7771 40.0605 27.0272 39.0395 25.7196 38.324C23.0954 36.8659 18.8798 36.9094 16.3181 38.421C15.0821 39.1528 14.4011 40.1231 14.4011 41.155C14.4011 41.1931 14.4184 41.2302 14.4465 41.2556C14.47 41.2774 14.5009 41.2901 14.5326 41.291C14.5345 41.2973 14.5363 41.3028 14.5372 41.3091C14.5372 41.3898 14.539 41.4433 14.5499 41.5032C14.5471 41.5168 14.5553 41.5467 14.5608 41.5694C14.5608 41.5821 14.5671 41.6183 14.5707 41.6301C14.5743 41.6682 14.5862 41.7036 14.6007 41.7317C14.7457 42.4426 14.899 43.1526 15.0522 43.8645L15.1039 44.103C15.21 44.5935 15.3116 45.1349 15.4204 45.7079C15.6534 46.9421 15.8928 48.2179 16.2265 49.2517C16.2283 49.2707 16.2329 49.2934 16.2447 49.3215C16.2447 49.3215 16.2465 49.326 16.2474 49.3287C16.251 49.3478 16.2573 49.3723 16.2682 49.3958C16.2682 49.3958 16.2891 49.4494 16.2891 49.4503C16.2918 49.4675 16.3063 49.4947 16.3163 49.5165C16.319 49.5255 16.3344 49.5609 16.3371 49.569C16.3371 49.5999 16.3535 49.6298 16.3725 49.6543L16.3779 49.6525C16.3834 49.6706 16.3916 49.6878 16.4006 49.7005C16.4142 49.716 16.4196 49.7286 16.4205 49.7341C16.4269 49.754 16.4387 49.7731 16.4532 49.7903C16.4532 49.7903 16.4559 49.793 16.4577 49.7948C16.4632 49.812 16.4714 49.8293 16.4804 49.8411L16.5121 49.8828C16.5248 49.9 16.5375 49.9172 16.5529 49.9363C16.5529 49.9363 16.5584 49.9435 16.5611 49.9472C16.5738 49.9716 16.5892 50.0007 16.6174 50.027C16.6219 50.0351 16.6273 50.0442 16.6336 50.0524C16.6445 50.0696 16.6582 50.0841 16.6763 50.095C16.6845 50.1177 16.698 50.1376 16.7171 50.153L16.7425 50.1766C16.7534 50.1875 16.7642 50.1975 16.776 50.2083C16.7887 50.2247 16.8059 50.2455 16.8286 50.2636C16.8368 50.2754 16.8458 50.2872 16.8522 50.2927L16.8839 50.3199C16.9029 50.3425 16.9229 50.3607 16.9392 50.3752C16.9465 50.3833 16.9601 50.3969 16.9737 50.4078C16.9818 50.4169 16.9918 50.4251 17.0009 50.4314C17.0009 50.4314 17.0082 50.4387 17.0127 50.4423C17.1052 50.523 17.2149 50.5991 17.3237 50.6753L17.3962 50.7261C17.408 50.7343 17.4207 50.7415 17.4353 50.7451C17.4652 50.7687 17.4797 50.7787 17.4942 50.7877C17.5277 50.8086 17.5712 50.8304 17.6157 50.8531C17.6356 50.8694 17.6565 50.8839 17.6864 50.9011C17.6955 50.9065 17.7127 50.9156 17.73 50.9238L17.7998 50.961C17.8342 50.98 17.8705 50.999 17.9122 51.0163C17.9258 51.0272 17.9702 51.0489 18.0056 51.0616L18.323 51.1922C18.3683 51.2058 18.401 51.2185 18.4336 51.2303C18.4681 51.243 18.5035 51.2557 18.5397 51.2675C18.5697 51.2774 18.586 51.2847 18.5987 51.2919L18.7365 51.34C18.7501 51.3445 18.7646 51.3463 18.7791 51.3463C19.0774 51.4479 19.4066 51.525 19.763 51.5857L19.8056 51.5885C20.0133 51.6202 20.2254 51.6483 20.4358 51.6655H20.5564C20.5827 51.6655 20.609 51.6655 20.6371 51.6701H20.6933C20.7178 51.671 20.7459 51.6728 20.7731 51.6737C20.8039 51.6755 20.8357 51.6764 20.8656 51.6764ZM23.1643 51.1641C23.1516 51.1641 23.1389 51.1659 23.1317 51.1686C22.9802 51.2121 22.8506 51.2448 22.7146 51.2647C22.7055 51.2647 22.681 51.2693 22.6728 51.2711C22.6348 51.2783 22.6112 51.2829 22.5731 51.2874L22.4516 51.3046C22.3963 51.3173 22.35 51.3228 22.302 51.3282L22.2158 51.3391C21.8948 51.3835 21.5384 51.4053 21.1286 51.4053H20.8656C20.8412 51.4053 20.813 51.4044 20.7858 51.4026C20.755 51.4007 20.7233 51.3998 20.6933 51.3998H20.657C20.6335 51.3953 20.5899 51.3944 20.5573 51.3944H20.4485C20.2544 51.3772 20.0495 51.35 19.8618 51.3219C19.8473 51.3164 19.8101 51.3155 19.7965 51.3155C19.4692 51.2593 19.1536 51.1849 18.8725 51.0988C18.8698 51.097 18.8435 51.0834 18.8118 51.0779L18.7147 51.0471C18.7057 51.0371 18.6685 51.0226 18.624 51.0081C18.5896 50.9972 18.5596 50.9864 18.5297 50.9746C18.4907 50.9601 18.4527 50.9464 18.4119 50.9347L18.3702 50.9174C18.3375 50.9047 18.304 50.8911 18.2731 50.8803L18.1081 50.8095C18.0845 50.7996 18.0564 50.7869 18.0374 50.7751C17.9857 50.7524 17.9584 50.737 17.9321 50.7225L17.8814 50.6953C17.8814 50.6953 17.8261 50.6663 17.8252 50.6653C17.807 50.6554 17.7952 50.6472 17.7834 50.6363C17.7744 50.6291 17.7644 50.6218 17.7544 50.6173C17.7127 50.5973 17.6719 50.5765 17.6384 50.5556C17.6039 50.5284 17.5794 50.5085 17.5432 50.4912C17.5386 50.4894 17.5341 50.4876 17.5304 50.4867L17.4806 50.4522C17.3808 50.3815 17.2784 50.3117 17.1941 50.2373H17.1922C17.1823 50.2274 17.1714 50.2165 17.1605 50.2092C17.1605 50.2092 17.1587 50.2074 17.1577 50.2065C17.146 50.1947 17.1333 50.1829 17.1197 50.1702C17.1124 50.1593 17.087 50.134 17.0771 50.1258L17.0435 50.0977C17.0308 50.0805 17.0163 50.0642 17.0036 50.056C16.9954 50.0442 16.9728 50.017 16.9619 50.0088C16.9519 50.0007 16.9438 49.9925 16.9356 49.9843C16.9311 49.9789 16.9256 49.9744 16.9202 49.9689C16.9084 49.9435 16.8894 49.9218 16.864 49.9082C16.8667 49.9064 16.8613 49.8982 16.8513 49.8882C16.8386 49.8683 16.8268 49.8529 16.8159 49.8411C16.8096 49.8275 16.796 49.8075 16.7815 49.7903C16.7769 49.7821 16.7715 49.774 16.7651 49.7667L16.7334 49.725C16.7271 49.7159 16.7207 49.7078 16.7144 49.6996C16.7126 49.6933 16.7107 49.6878 16.708 49.6833C16.6953 49.6597 16.6844 49.6434 16.6708 49.6271C16.6599 49.6017 16.6472 49.5799 16.6336 49.5609C16.6318 49.5545 16.6291 49.5491 16.6273 49.5445C16.6192 49.5291 16.6101 49.5174 16.6037 49.5074C16.5992 49.4938 16.5929 49.4784 16.5847 49.4602C16.5847 49.4502 16.5702 49.4212 16.5593 49.3986C16.5575 49.3931 16.543 49.3605 16.5411 49.355C16.5248 49.3124 16.5167 49.2888 16.5076 49.2734C16.5076 49.2526 16.5049 49.2417 16.4958 49.2263C16.4958 49.2127 16.494 49.2018 16.4894 49.1882C16.1585 48.1681 15.9182 46.8931 15.686 45.6599C15.5781 45.085 15.4757 44.5418 15.3678 44.0476L15.3161 43.8091C15.162 43.091 15.0069 42.3737 14.86 41.6564C14.8572 41.641 14.8509 41.6265 14.8427 41.6138C14.8427 41.6039 14.8391 41.5902 14.8346 41.573C14.8319 41.5467 14.8264 41.524 14.8219 41.5068C14.8219 41.4987 14.8164 41.4669 14.8146 41.4588C14.8065 41.4107 14.8074 41.3681 14.8074 41.3255C14.8074 41.3119 14.8046 41.2647 14.801 41.2511C14.7892 41.2148 14.7892 41.1731 14.7892 41.1287C14.7892 41.0616 14.7403 41.0063 14.6777 40.9954C14.7466 40.124 15.3714 39.2988 16.4541 38.6577C18.9423 37.1896 23.0401 37.1488 25.5854 38.5643C26.8041 39.2308 27.5015 40.1648 27.5015 41.1287C27.5015 41.1532 27.4996 41.1777 27.4978 41.2021C27.4951 41.2339 27.4924 41.2656 27.4924 41.2973C27.4897 41.3028 27.486 41.3318 27.4833 41.3617C27.4815 41.3781 27.4797 41.3953 27.4761 41.4116C27.4715 41.4451 27.4625 41.4714 27.4616 41.4733C27.457 41.4869 27.4543 41.5014 27.4543 41.5159V41.612C27.3537 42.1017 27.2421 42.6194 27.1306 43.139C27.0671 43.4328 27.0036 43.7266 26.942 44.0204L26.7515 44.9236C26.6999 45.2092 26.6355 45.5057 26.5693 45.8068L26.5511 45.8884L26.0715 48.1862C26.0297 48.3413 25.9916 48.5235 25.9608 48.7194L25.8792 49.1029C25.872 49.1202 25.8675 49.1383 25.8675 49.1573L25.8629 49.1882C25.8566 49.1982 25.8502 49.2254 25.8466 49.2362C25.8294 49.2934 25.804 49.355 25.7795 49.4122C25.7768 49.4185 25.774 49.4248 25.7722 49.4312C25.7722 49.433 25.7695 49.4357 25.7686 49.4376C25.7496 49.4593 25.7387 49.4865 25.7341 49.5165L25.6852 49.6008C25.6643 49.6298 25.6353 49.6724 25.6063 49.7196L25.5791 49.7558C25.5619 49.7767 25.5464 49.7976 25.531 49.8202C25.5111 49.8374 25.4957 49.8592 25.4857 49.8819C25.4793 49.8918 25.4667 49.9118 25.4658 49.9145C25.4658 49.9145 25.4485 49.929 25.4376 49.9408C25.4141 49.968 25.3932 49.9889 25.3732 50.0061C25.3605 50.017 25.3497 50.0297 25.3415 50.0442C25.3333 50.0496 25.3261 50.056 25.3197 50.0632C25.3025 50.0768 25.2871 50.0914 25.2708 50.1059L25.2363 50.1367C25.2073 50.1675 25.1864 50.182 25.1665 50.1974C25.1475 50.2119 25.1275 50.2265 25.1094 50.2428C25.103 50.2482 25.0967 50.2546 25.0912 50.2609C25.0731 50.2736 25.0432 50.299 25.035 50.3108C25.0377 50.3053 25.0205 50.319 24.9969 50.3335C24.9897 50.338 24.9688 50.357 24.9625 50.3634C24.9552 50.367 24.948 50.3724 24.9425 50.3779C24.9307 50.3851 24.9216 50.3942 24.9126 50.4042C24.8999 50.4105 24.889 50.4178 24.8781 50.4269C24.8745 50.4287 24.8709 50.4305 24.8691 50.4314C24.8555 50.4359 24.8491 50.4405 24.8382 50.4486C24.782 50.4885 24.733 50.5239 24.6931 50.5429C24.6804 50.5493 24.6696 50.5574 24.6596 50.5674C24.6079 50.5946 24.568 50.6164 24.5309 50.6363L24.4846 50.6608C24.4791 50.6635 24.4456 50.6844 24.4401 50.688L24.2053 50.8004L24.2134 50.9446L24.1663 50.8168C23.8743 50.9474 23.6005 51.0462 23.3403 51.1178C23.2985 51.1314 23.265 51.1396 23.2332 51.1468C23.2087 51.1532 23.1842 51.1586 23.1625 51.165L23.1643 51.1641ZM25.4848 49.8946C25.4821 49.9036 25.4803 49.9136 25.4803 49.9227C25.4803 49.9118 25.4821 49.9027 25.4848 49.8946ZM16.7425 49.7522C16.7552 49.7595 16.7642 49.7685 16.7724 49.7794C16.7615 49.7676 16.7516 49.7576 16.7425 49.7522ZM26.0071 49.5418C26.0071 49.5418 26.0071 49.55 26.0071 49.5536C26.0071 49.55 26.0071 49.5455 26.0071 49.5418ZM14.8328 41.5966C14.8328 41.5966 14.8355 41.5993 14.8364 41.6011C14.8364 41.5993 14.8337 41.5984 14.8328 41.5966Z" fill="#155C6D"/>
<path d="M41.3405 58.3385C41.531 57.429 41.7214 56.5195 41.9209 55.6046C41.7939 56.194 41.3406 56.7725 40.5607 57.2331C38.6655 58.3557 35.5462 58.3838 33.5966 57.3002C32.7533 56.8396 32.2727 56.2447 32.1458 55.6272C32.3362 56.5367 32.5357 57.4462 32.7352 58.3557C32.853 58.9007 33.2793 59.4167 34.0138 59.8265C35.7276 60.7814 38.4751 60.7469 40.1527 59.7649C40.8327 59.3605 41.2317 58.8554 41.3496 58.3331H41.3405V58.3385Z" fill="#70C5AD"/>
<path d="M37.0144 60.6554C38.1769 60.6554 39.3421 60.397 40.2217 59.8828C40.9163 59.4693 41.3516 58.9443 41.4821 58.363C41.4858 58.3476 41.4867 58.3313 41.484 58.3159C41.6708 57.4254 41.8575 56.535 42.0534 55.6382C42.0534 55.6382 42.0534 55.6354 42.0534 55.6345C42.0697 55.5602 42.0226 55.4886 41.95 55.4722C41.8793 55.4559 41.8041 55.503 41.7877 55.5756C41.7877 55.5783 41.7877 55.581 41.7859 55.5838C41.659 56.1532 41.2002 56.6973 40.4911 57.1162C38.6367 58.2143 35.5717 58.2443 33.6621 57.1815C32.8967 56.7644 32.408 56.2067 32.281 55.6119C32.281 55.6082 32.281 55.6046 32.2792 55.601C32.2638 55.5266 32.1894 55.4786 32.1187 55.4949C32.0452 55.5103 31.9981 55.5819 32.0135 55.6554V55.6572C32.0135 55.6572 32.0153 55.6645 32.0162 55.6681C32.2058 56.574 32.4043 57.4799 32.602 58.3848C32.7335 58.9878 33.1987 59.5274 33.9468 59.9454C34.7973 60.4196 35.9045 60.6554 37.0144 60.6554ZM41.2056 58.3495C41.0786 58.8382 40.6923 59.2861 40.0839 59.648C38.4399 60.6101 35.7467 60.6364 34.0801 59.7078C33.4009 59.3297 32.9819 58.8518 32.8677 58.3268C32.7416 57.7528 32.6165 57.1797 32.4932 56.6066C32.7498 56.9086 33.098 57.1833 33.5314 57.42C35.5155 58.5227 38.702 58.4927 40.6307 57.3502C41.0161 57.1235 41.3334 56.8587 41.5737 56.5721C41.4513 57.147 41.3307 57.7211 41.211 58.2951C41.2074 58.3068 41.2047 58.3195 41.2047 58.3331C41.2047 58.3386 41.2047 58.344 41.2065 58.3495H41.2056Z" fill="#155C6D"/>
<path d="M30.459 47.6331V47.8299C30.459 47.8806 30.4681 47.9305 30.4862 47.9867C30.4862 48.0266 30.4953 48.0602 30.5044 48.0992V48.1445C30.5044 48.1554 30.5134 48.1726 30.5225 48.1889C30.6947 48.986 30.858 49.784 31.0393 50.581C31.3658 52.1244 31.665 54.23 32.1547 55.7343C32.1547 55.7461 32.1547 55.7624 32.1637 55.7796C32.1637 55.7851 32.1728 55.796 32.1728 55.8023C32.1728 55.8023 32.1728 55.8241 32.1819 55.8413C32.191 55.8576 32.2 55.8857 32.2091 55.9084C32.2181 55.9474 32.2454 55.9818 32.2544 56.0208C32.2544 56.0208 32.2726 56.0598 32.2816 56.0771C32.2816 56.088 32.2907 56.0934 32.2998 56.1052C32.2998 56.1052 32.3089 56.1106 32.3089 56.1161C32.3179 56.1387 32.336 56.1668 32.3542 56.195V56.2058C32.3632 56.2176 32.3723 56.2285 32.3814 56.2457V56.2566C32.4086 56.2902 32.4267 56.3183 32.4448 56.3518C32.4448 56.3573 32.463 56.3691 32.4721 56.3745C32.4811 56.3917 32.4902 56.4135 32.5174 56.4307C32.5174 56.4416 32.5355 56.4534 32.5355 56.4697L32.5446 56.4815C32.5446 56.4815 32.5718 56.515 32.59 56.5259C32.59 56.5314 32.599 56.5431 32.608 56.5486C32.6262 56.5713 32.6443 56.593 32.6715 56.6157C32.6715 56.6157 32.6987 56.6556 32.7169 56.6719L32.7441 56.6892C32.7441 56.6892 32.7622 56.7109 32.7803 56.7282C32.7985 56.7508 32.8348 56.7789 32.862 56.8016C32.862 56.807 32.8711 56.8125 32.8711 56.8179C32.8892 56.8297 32.8982 56.8352 32.9073 56.8406C33.007 56.9358 33.1431 57.0256 33.2791 57.1153C33.3063 57.1326 33.3426 57.1552 33.3607 57.1716C33.397 57.1942 33.4423 57.2169 33.4877 57.2387C33.5058 57.2559 33.5239 57.2668 33.5511 57.284C33.5693 57.2949 33.5965 57.3121 33.6146 57.3176C33.66 57.3402 33.7143 57.3683 33.7597 57.391C33.7869 57.4073 33.8231 57.4246 33.8503 57.4354C33.9047 57.4581 33.9682 57.4862 34.0226 57.5089C34.068 57.5252 34.1133 57.5479 34.1677 57.5651C34.2403 57.5869 34.3128 57.615 34.3763 57.6377C34.4126 57.6485 34.4398 57.6603 34.476 57.6766C34.5032 57.6884 34.5395 57.6993 34.5758 57.7048C34.5939 57.7048 34.6121 57.7165 34.6211 57.722C34.9385 57.8172 35.2559 57.8907 35.5823 57.9469H35.5914C35.5914 57.9469 35.6186 57.9469 35.6367 57.9523C35.8362 57.9804 36.0448 58.0085 36.2533 58.0249H36.3531C36.3893 58.0249 36.4166 58.0248 36.4529 58.0303H36.4891C36.5526 58.0303 36.607 58.0366 36.6614 58.0366H36.9244C37.2961 58.0366 37.6679 58.0194 38.0307 57.9686C38.1123 57.9577 38.1939 57.9523 38.2664 57.9351C38.3027 57.9296 38.348 57.9242 38.3843 57.9188C38.4296 57.9124 38.4659 57.907 38.4931 57.9015C38.5113 57.9015 38.5203 57.8961 38.5385 57.8961C38.6835 57.8734 38.8286 57.8344 38.9737 57.7945H38.9828C39.0462 57.7782 39.1097 57.761 39.1822 57.7446C39.4633 57.6657 39.7445 57.5588 40.0074 57.4409C40.0256 57.4354 40.0437 57.4246 40.0618 57.4191C40.1525 57.3792 40.2341 57.3348 40.3157 57.2949C40.3248 57.2895 40.3339 57.284 40.3429 57.2786C40.3883 57.2559 40.4517 57.2223 40.4971 57.1997C40.5152 57.1888 40.5424 57.177 40.5515 57.1607C40.5968 57.138 40.6512 57.099 40.7147 57.0537C40.7328 57.0482 40.751 57.0374 40.7601 57.031C40.7601 57.0256 40.7691 57.0201 40.7782 57.0201C40.7963 57.0093 40.8054 57.0029 40.8145 56.9866C40.8145 56.9866 40.8235 56.9866 40.8235 56.9811C40.8417 56.9694 40.8508 56.9585 40.8689 56.9412C40.8961 56.9249 40.9233 56.9022 40.9414 56.885C40.9595 56.8741 40.9777 56.8687 40.9868 56.8515C40.9868 56.846 40.9958 56.846 40.9958 56.8406C41.0411 56.8016 41.0865 56.7735 41.1228 56.7336C41.15 56.7109 41.1863 56.6837 41.2044 56.6611C41.2135 56.6556 41.2225 56.6493 41.2316 56.6438C41.2406 56.6329 41.2497 56.6157 41.2588 56.6048C41.286 56.5822 41.3132 56.554 41.3313 56.5314C41.3494 56.5151 41.3676 56.4924 41.3858 56.4697C41.3948 56.4534 41.413 56.4361 41.422 56.4198C41.422 56.4135 41.422 56.408 41.4311 56.408C41.4674 56.3636 41.4946 56.3237 41.5218 56.2847C41.558 56.2394 41.5762 56.2058 41.6034 56.1614C41.6215 56.1279 41.6397 56.0997 41.6578 56.0662C41.6578 56.0544 41.6668 56.049 41.6759 56.0317V56.01C41.694 55.9927 41.6941 55.9701 41.7031 55.9538C41.7394 55.8921 41.7666 55.8241 41.7757 55.7624C41.7938 55.7289 41.7938 55.7008 41.8029 55.6672V55.6445C41.8029 55.6445 41.8119 55.6219 41.821 55.6001V55.5602L41.8936 55.2292C41.9298 55.0551 41.957 54.8756 42.0024 54.7015L42.4829 52.4055C42.5555 52.0745 42.628 51.7481 42.6915 51.4398L42.8729 50.5357C43.0542 49.716 43.2265 48.908 43.3897 48.0992V48.004C43.3897 48.004 43.4079 47.9477 43.4079 47.9196C43.4079 47.8752 43.426 47.8353 43.426 47.7909V47.7791C43.426 47.7229 43.4351 47.6666 43.4351 47.6113C43.4351 46.6338 42.764 45.6518 41.4492 44.9273C38.8558 43.4846 34.7118 43.529 32.191 45.0225C30.9487 45.7524 30.3321 46.7018 30.3321 47.6385L30.4499 47.6277L30.459 47.6331Z" fill="#C8DAE8"/>
<path d="M36.6607 58.1735H36.9245C37.348 58.1735 37.7162 58.1509 38.0489 58.1037L38.1206 58.0956C38.1814 58.0883 38.2421 58.0811 38.2974 58.0684L38.4044 58.0538C38.4507 58.0475 38.4906 58.0421 38.5205 58.0357C38.5268 58.0357 38.5513 58.033 38.5586 58.0321C38.7018 58.0094 38.8415 57.9731 38.9956 57.9314C39.0029 57.9314 39.0101 57.9296 39.0147 57.9287L39.0628 57.916C39.1099 57.9033 39.157 57.8915 39.2105 57.8788C39.4835 57.8027 39.7674 57.6975 40.0612 57.566L40.0521 57.4227L40.1001 57.5506C40.1772 57.5179 40.2361 57.488 40.2942 57.4581L40.3731 57.4182C40.3785 57.4155 40.4103 57.3964 40.4157 57.3937L40.5562 57.3221C40.5834 57.3067 40.6115 57.2912 40.6342 57.2704C40.6759 57.2468 40.724 57.2142 40.7775 57.1761C40.7993 57.1661 40.8201 57.1552 40.8346 57.1443C40.8391 57.1425 40.8437 57.1398 40.8482 57.1371C40.8682 57.1244 40.8881 57.1108 40.9062 57.089C40.9216 57.0781 40.9325 57.0682 40.9452 57.0555C40.9715 57.0373 41.006 57.0092 41.0305 56.9875C41.0377 56.9875 41.0676 56.9711 41.0921 56.9367L41.1257 56.9104C41.1601 56.8832 41.1928 56.8569 41.2209 56.826C41.2472 56.8061 41.2726 56.7853 41.2907 56.7671C41.307 56.7553 41.3288 56.739 41.3352 56.7308C41.3424 56.7218 41.3497 56.7109 41.356 56.6991C41.3751 56.6837 41.4104 56.6483 41.4349 56.6175C41.4421 56.613 41.4648 56.5858 41.4884 56.5586C41.5093 56.5286 41.522 56.5123 41.5301 56.5005L41.5337 56.4969C41.5655 56.4579 41.59 56.4216 41.6154 56.3872C41.6589 56.331 41.6779 56.2974 41.7015 56.2602L41.7196 56.2303L41.7749 56.1351C41.7786 56.1287 41.7822 56.1224 41.784 56.116C41.7876 56.1106 41.7913 56.1033 41.7958 56.097C41.8021 56.0843 41.8067 56.0716 41.8094 56.058C41.8176 56.0408 41.8221 56.0263 41.8257 56.0172C41.8511 55.9737 41.8892 55.8957 41.9064 55.8077C41.92 55.776 41.9255 55.7488 41.9282 55.7279C41.93 55.7198 41.9381 55.6799 41.9381 55.6717L41.9463 55.6563C41.9536 55.64 41.9572 55.6228 41.9572 55.6046V55.5647L42.0261 55.2627C42.0397 55.2002 42.0506 55.1385 42.0624 55.0769C42.0833 54.9635 42.105 54.8511 42.134 54.7395L42.65 52.2758C42.7108 52.0002 42.7706 51.729 42.8232 51.4706L43.0054 50.5656C43.194 49.7132 43.3636 48.9153 43.5214 48.1291L43.5241 48.0275C43.5332 47.9976 43.5432 47.9568 43.5432 47.9223C43.5432 47.9151 43.5459 47.9015 43.5486 47.887C43.5549 47.8616 43.5622 47.8308 43.5622 47.7927C43.5622 47.7564 43.5641 47.7319 43.5659 47.7074C43.5686 47.6757 43.5713 47.6449 43.5713 47.6131C43.5713 46.5522 42.8214 45.5302 41.5138 44.8103C38.8905 43.3494 34.6757 43.3939 32.1213 44.9073C30.8799 45.6363 30.1953 46.6075 30.1953 47.6403C30.1953 47.6784 30.2125 47.7156 30.2397 47.741C30.2624 47.7618 30.2923 47.7745 30.3222 47.7764V47.7981C30.3222 47.8879 30.3322 47.9486 30.3504 48.0121C30.3531 48.0556 30.3622 48.0928 30.3703 48.1282L30.3676 48.1463C30.3676 48.1808 30.3794 48.2098 30.3921 48.237L30.5489 48.9706C30.665 49.5183 30.782 50.066 30.9062 50.6128C31.0042 51.0761 31.1003 51.593 31.1991 52.1289C31.4231 53.3367 31.677 54.7042 32.0179 55.7597C32.0197 55.7796 32.0243 55.8068 32.0379 55.8359C32.0406 55.8549 32.047 55.8803 32.0588 55.9048C32.0588 55.9066 32.0814 55.9619 32.0823 55.9637C32.0823 55.9755 32.0968 56.0036 32.1077 56.0263C32.1095 56.0353 32.125 56.0698 32.1277 56.0789L32.1567 56.1405C32.1657 56.1596 32.1767 56.1786 32.1884 56.1904C32.1984 56.2094 32.2093 56.2285 32.222 56.2484C32.2274 56.2666 32.2356 56.2829 32.2456 56.2947H32.2474C32.2528 56.3128 32.261 56.331 32.271 56.3437C32.29 56.3672 32.3036 56.3881 32.3172 56.4108C32.329 56.4361 32.3471 56.4552 32.3643 56.4697C32.3734 56.4851 32.3852 56.5014 32.4033 56.5177C32.4088 56.5322 32.417 56.5468 32.4269 56.5586C32.4442 56.5794 32.465 56.6048 32.4895 56.6248C32.4922 56.6284 32.4949 56.632 32.4985 56.6356C32.5194 56.661 32.5394 56.6846 32.5666 56.7082C32.5802 56.7272 32.6001 56.7535 32.621 56.7726C32.6246 56.7753 32.6382 56.7853 32.65 56.7934C32.659 56.8034 32.6708 56.817 32.6835 56.8288C32.6935 56.8433 32.7234 56.8678 32.7515 56.8914C32.7624 56.9077 32.776 56.9222 32.7933 56.9331L32.8332 56.9575C32.9202 57.0455 33.0689 57.1434 33.1995 57.2296C33.2258 57.2459 33.2512 57.2604 33.2639 57.2722C33.3183 57.3085 33.3627 57.332 33.4072 57.3538C33.4235 57.3674 33.4407 57.3783 33.4616 57.3919C33.5132 57.4227 33.5413 57.4399 33.5731 57.4481L33.6955 57.5134C33.7164 57.527 33.7608 57.5488 33.7952 57.5624L34.0246 57.6585C34.0546 57.6712 34.0863 57.6839 34.1208 57.6957C34.1752 57.712 34.2269 57.731 34.2749 57.7483L34.3266 57.7673C34.3629 57.7782 34.3855 57.7891 34.4173 57.8027C34.4563 57.8208 34.5061 57.8344 34.5515 57.8408C34.897 57.9496 35.2162 58.0239 35.5544 58.0829L35.597 58.0856C35.8156 58.1173 36.0269 58.1454 36.2381 58.1618H36.3478C36.3723 58.1636 36.3986 58.1618 36.4285 58.1663H36.4848C36.5147 58.1672 36.5428 58.169 36.57 58.1708C36.5999 58.1726 36.628 58.1735 36.6571 58.1735H36.6607ZM38.9612 57.6603C38.953 57.6603 38.944 57.6621 38.9385 57.6639C38.788 57.7047 38.6529 57.741 38.5178 57.7619C38.5087 57.7619 38.4752 57.7664 38.4652 57.7682C38.4407 57.7736 38.4081 57.7782 38.3664 57.7845L38.2476 57.8008C38.1905 57.8135 38.1415 57.819 38.0907 57.8244L38.0127 57.8344C37.6917 57.8788 37.3363 57.9015 36.9255 57.9015H36.6616C36.6389 57.9015 36.6144 57.9006 36.5909 57.8988C36.5591 57.897 36.5265 57.8952 36.4902 57.8952H36.4539C36.4304 57.8906 36.3977 57.8897 36.3542 57.8897H36.2554C36.0595 57.8734 35.8546 57.8462 35.6578 57.8181C35.6442 57.8126 35.607 57.8117 35.5934 57.8117C35.2797 57.7573 34.9704 57.6848 34.6621 57.5923C34.6703 57.5923 34.6304 57.5696 34.5769 57.5696C34.5705 57.5678 34.547 57.5587 34.5334 57.5533C34.4908 57.5342 34.459 57.5207 34.4173 57.508L34.3738 57.4925C34.3203 57.4735 34.264 57.4526 34.2069 57.4363C34.1824 57.4282 34.158 57.4182 34.1353 57.4082C34.1126 57.3992 34.0909 57.3901 34.0691 57.3819L33.9022 57.3112C33.8814 57.3021 33.8524 57.2894 33.8324 57.2767L33.6339 57.1761C33.6012 57.1561 33.5903 57.1498 33.5803 57.1407C33.5695 57.1316 33.5586 57.1235 33.5468 57.118C33.506 57.099 33.4651 57.079 33.4325 57.0582C33.4325 57.0546 33.389 57.0265 33.3555 57.0047C33.2321 56.924 33.0943 56.8333 33.0009 56.7436L32.9728 56.7245C32.9665 56.7145 32.9574 56.7054 32.9492 56.6982C32.9202 56.6746 32.8984 56.6592 32.8885 56.6456C32.8631 56.6193 32.8513 56.6066 32.8504 56.6048C32.8404 56.5939 32.8304 56.584 32.8177 56.5758C32.7996 56.5631 32.7842 56.5404 32.7842 56.5404C32.7769 56.5296 32.7688 56.5205 32.7597 56.5123C32.7407 56.496 32.728 56.4806 32.7153 56.4652C32.7126 56.4624 32.7098 56.4597 32.7062 56.4561C32.6953 56.4379 32.6799 56.4225 32.6609 56.4108C32.6554 56.3981 32.6491 56.3881 32.6445 56.3799C32.6328 56.3545 32.6146 56.3319 32.5892 56.3164C32.5792 56.2974 32.5693 56.2793 32.5529 56.2666C32.5393 56.2439 32.5257 56.2221 32.5085 56.1995C32.5067 56.194 32.5049 56.1895 32.5031 56.1849C32.4949 56.1704 32.4876 56.1587 32.4804 56.1478C32.4777 56.1387 32.4741 56.1296 32.4695 56.1233C32.455 56.1024 32.4414 56.0807 32.4342 56.0635C32.426 56.0471 32.416 56.0317 32.4051 56.0181V56.0172L32.3815 55.9664C32.3815 55.9573 32.368 55.9283 32.3571 55.9066C32.3553 55.8984 32.3408 55.8649 32.338 55.8567C32.3208 55.8132 32.3135 55.7932 32.3054 55.7787C32.3054 55.7597 32.3036 55.7506 32.2954 55.7352C32.2936 55.728 32.29 55.7216 32.2863 55.7153C31.9481 54.6534 31.7051 53.3458 31.4712 52.0809C31.3723 51.5422 31.2753 51.0235 31.1764 50.5556C31.0513 50.008 30.9353 49.4611 30.8192 48.9153L30.6587 48.1626C30.656 48.1499 30.6514 48.1381 30.6451 48.1264V48.1236V48.101C30.6451 48.0901 30.6414 48.0729 30.6387 48.062C30.6305 48.0275 30.626 48.0085 30.626 47.9885C30.626 47.974 30.6233 47.9595 30.6188 47.9459C30.6043 47.9024 30.5988 47.8679 30.5988 47.8317V47.6349C30.5988 47.5868 30.5734 47.5424 30.5326 47.5188L30.5236 47.5134C30.5091 47.5043 30.4937 47.4989 30.4764 47.4953C30.539 46.6157 31.1683 45.785 32.2637 45.1412C34.7446 43.6713 38.8379 43.6287 41.3868 45.0469C42.6056 45.7179 43.3029 46.6528 43.3029 47.6122C43.3029 47.6358 43.3011 47.6603 43.2993 47.6848C43.2965 47.7165 43.2938 47.7482 43.2938 47.78C43.2938 47.799 43.2911 47.8126 43.2875 47.8271C43.282 47.8525 43.2747 47.8833 43.2747 47.9205C43.2747 47.9232 43.2684 47.9459 43.263 47.9622C43.2584 47.9758 43.2557 47.9903 43.2557 48.0048V48.1001C43.1006 48.8572 42.932 49.6534 42.7434 50.5076L42.5611 51.4144C42.5085 51.671 42.4487 51.9403 42.3888 52.2151L42.3535 52.3774L41.8738 54.6752C41.8448 54.7858 41.8221 54.9046 41.7995 55.0234C41.7877 55.0832 41.7777 55.1431 41.765 55.2029L41.6816 55.5919C41.6743 55.6091 41.6698 55.6273 41.6698 55.6463L41.6661 55.6744C41.658 55.688 41.6471 55.7298 41.6453 55.7452C41.6389 55.786 41.6199 55.8377 41.59 55.8866C41.5845 55.8957 41.5727 55.9247 41.57 55.9338C41.5464 55.9565 41.5446 55.971 41.5437 55.9991C41.5437 56.0009 41.5437 56.0027 41.5419 56.0045L41.4884 56.097C41.4585 56.1469 41.444 56.1714 41.4195 56.2022C41.4177 56.204 41.4004 56.2285 41.3995 56.2303C41.3796 56.2602 41.3578 56.2901 41.3306 56.3237C41.3215 56.3346 41.3134 56.3455 41.307 56.3582C41.3016 56.3636 41.2753 56.4008 41.2717 56.408C41.2717 56.4062 41.2635 56.4171 41.2445 56.4343C41.2191 56.4643 41.1982 56.4851 41.1774 56.5032C41.1683 56.5105 41.152 56.5323 41.1411 56.5468C41.1293 56.554 41.1139 56.5667 41.1048 56.5776C41.0948 56.5885 41.0785 56.6012 41.0631 56.6139C41.0577 56.6184 41.0314 56.6411 41.0259 56.6465C41.0087 56.6655 40.9888 56.6801 40.9688 56.6955C40.9498 56.71 40.9316 56.7245 40.9126 56.7399C40.9044 56.7463 40.8981 56.7544 40.8927 56.7617L40.8899 56.7644C40.8772 56.7716 40.8609 56.7825 40.8564 56.7862C40.8428 56.7989 40.8228 56.8161 40.8029 56.8279C40.7947 56.8324 40.7711 56.8533 40.7639 56.8605C40.7593 56.8632 40.7539 56.8678 40.7494 56.8723C40.7358 56.8805 40.7249 56.8904 40.7149 56.9022C40.7013 56.9086 40.6895 56.9167 40.6786 56.9258C40.665 56.9303 40.6523 56.9376 40.6415 56.9448C40.5816 56.9875 40.5354 57.021 40.4964 57.041C40.4737 57.0527 40.4538 57.0709 40.4402 57.0936L40.2869 57.1588C40.2869 57.1588 40.257 57.177 40.2552 57.1779L40.1772 57.2169C40.1246 57.2432 40.0702 57.2713 40.0122 57.2967L40.0194 57.4409L39.9732 57.313C39.6757 57.4454 39.4037 57.5451 39.1507 57.6159C39.1008 57.6267 39.05 57.6404 39.0002 57.653L38.9657 57.6621L38.9612 57.6603ZM40.8754 56.7753C40.8718 56.7798 40.8691 56.7853 40.8664 56.7907C40.87 56.7844 40.8727 56.7798 40.8763 56.7753H40.8754ZM32.2193 56.214C32.2138 56.2103 32.2084 56.2058 32.2038 56.2004C32.2093 56.2049 32.2147 56.2103 32.2193 56.214Z" fill="#155C6D"/>
<path d="M40.9597 57.2387C40.9597 57.2387 40.9325 57.2559 40.9143 57.2668C40.9234 57.2613 40.9415 57.2496 40.9506 57.2441L40.9597 57.2387ZM41.1682 56.3011C41.1682 56.3011 41.1592 56.3292 41.1501 56.341C41.1501 56.341 41.1682 56.3065 41.1682 56.3011ZM32.5901 56.0653H32.581C32.581 56.0653 32.581 56.0426 32.5719 56.0317C32.5719 56.0426 32.5901 56.0544 32.5901 56.0653Z" fill="#155C6D"/>
<path d="M40.9144 57.4028C40.938 57.4028 40.9624 57.3964 40.9842 57.3838L41.0341 57.3529L40.8854 57.1244L40.84 57.1525C40.7783 57.1933 40.7593 57.2758 40.7992 57.3384C40.8246 57.3801 40.869 57.4028 40.9144 57.4028ZM41.1637 56.4706C41.1982 56.4706 41.2308 56.457 41.2553 56.4271C41.2725 56.4072 41.2835 56.3818 41.2916 56.36C41.3007 56.3391 41.3052 56.3219 41.3052 56.3011C41.3052 56.234 41.2553 56.1768 41.1901 56.1668C41.1257 56.1605 41.0613 56.1959 41.0395 56.2584C41.0087 56.3201 41.0223 56.4062 41.0803 56.4443C41.1066 56.4625 41.1365 56.4715 41.1647 56.4715L41.1637 56.4706ZM32.5801 56.2013C32.6554 56.2013 32.7261 56.1405 32.7261 56.0653C32.7261 56.0408 32.7134 56.0064 32.6989 55.981C32.6935 55.9692 32.6862 55.9583 32.678 55.9465C32.6418 55.9021 32.5837 55.883 32.5266 55.903C32.4722 55.922 32.435 55.9737 32.435 56.0317C32.435 56.0453 32.4395 56.0617 32.445 56.0771C32.4477 56.1088 32.4622 56.1387 32.484 56.1614C32.5094 56.1868 32.5439 56.2013 32.5801 56.2013ZM32.5302 56.0653L32.4659 56.117C32.4604 56.1052 32.455 56.088 32.455 56.0662H32.5312L32.5302 56.0653ZM32.4477 56.0843C32.4495 56.0898 32.4523 56.0952 32.455 56.1006C32.4523 56.0961 32.4495 56.0907 32.4477 56.0843Z" fill="#155C6D"/>
<path d="M55.051 53.1962C55.2415 52.2867 55.4319 51.3772 55.6223 50.4568C55.5044 51.0462 55.051 51.6238 54.2712 52.0845C52.376 53.2071 49.2567 53.2352 47.3071 52.1516C46.4638 51.6918 45.9832 51.0961 45.8472 50.4785C46.0467 51.388 46.2462 52.2976 46.4457 53.2071C46.5635 53.752 46.9898 54.268 47.7243 54.6779C49.4381 55.6327 52.1856 55.5992 53.8541 54.6162C54.5433 54.2118 54.9422 53.7067 55.0601 53.1844H55.051V53.1962Z" fill="#70C5AD"/>
<path d="M50.7248 55.5076C51.8855 55.5076 53.048 55.2482 53.923 54.7332C54.6213 54.3233 55.0601 53.7983 55.1925 53.2143C55.1961 53.1989 55.197 53.1835 55.1943 53.1681C55.3793 52.2839 55.5643 51.3998 55.7493 50.5049C55.7511 50.4976 55.7529 50.4903 55.7547 50.4831C55.7692 50.4096 55.7221 50.338 55.6486 50.3235C55.5715 50.309 55.5036 50.3561 55.4882 50.4296C55.4863 50.4368 55.4845 50.4432 55.4836 50.4504C55.363 51.0117 54.9078 51.5495 54.2005 51.9675C52.3452 53.0665 49.2821 53.0955 47.3724 52.0328C46.5953 51.6093 46.1138 51.0616 45.9796 50.4495C45.9624 50.3761 45.888 50.3307 45.8173 50.3461C45.7438 50.3625 45.6976 50.435 45.7139 50.5085L46.3124 53.237C46.4421 53.8382 46.9063 54.3786 47.6562 54.7975C48.5086 55.2718 49.6149 55.5085 50.7239 55.5085L50.7248 55.5076ZM54.9159 53.2034C54.7863 53.694 54.3972 54.1411 53.7852 54.4992C52.1502 55.4622 49.4607 55.4903 47.7905 54.56C47.1104 54.18 46.6914 53.7031 46.579 53.1798L46.2018 51.4579C46.4602 51.7616 46.8093 52.0364 47.2409 52.2722C49.2286 53.3757 52.4114 53.3449 54.3392 52.2023C54.7255 51.9747 55.0429 51.7109 55.2814 51.4252C55.1617 51.9983 55.0429 52.5696 54.9232 53.14C54.9168 53.1545 54.9132 53.1699 54.9132 53.1853C54.9132 53.1916 54.9141 53.198 54.9159 53.2034Z" fill="#155C6D"/>
<path d="M44.1518 42.4915C44.1518 42.5423 44.1518 42.5985 44.1609 42.6548V42.6883C44.1609 42.7382 44.1699 42.789 44.1881 42.8452C44.1881 42.8842 44.1971 42.9187 44.1971 42.9576C44.1971 42.9576 44.2062 42.9912 44.2062 43.0021C44.2062 43.0138 44.2153 43.0302 44.2153 43.0474C44.3876 43.8445 44.5598 44.6415 44.7412 45.4386C45.0676 46.9829 45.3578 49.0884 45.8566 50.5928C45.8566 50.6036 45.8565 50.6154 45.8656 50.6372V50.6599C45.8656 50.6599 45.8656 50.6825 45.8747 50.6998C45.8837 50.7161 45.8928 50.7442 45.9019 50.7669C45.92 50.8059 45.9291 50.8394 45.9472 50.8793C45.9472 50.8793 45.9654 50.9183 45.9744 50.9355C45.9744 50.9464 45.9835 50.9518 45.9925 50.9691V50.98C46.0107 51.0026 46.0288 51.0307 46.0379 51.0588C46.0379 51.0588 46.0379 51.0697 46.047 51.0697C46.056 51.0815 46.0651 51.0924 46.0742 51.1096C46.0742 51.1096 46.0742 51.1151 46.0833 51.1205C46.1014 51.1486 46.1195 51.1822 46.1467 51.2157C46.1467 51.2212 46.1558 51.2329 46.1558 51.2384C46.1739 51.2556 46.183 51.2774 46.2011 51.2946C46.2102 51.3055 46.2283 51.3173 46.2283 51.3336C46.2283 51.3336 46.2374 51.3391 46.2465 51.3454C46.2555 51.3563 46.2646 51.3735 46.2827 51.3898C46.2827 51.3953 46.2918 51.4071 46.3009 51.4125C46.319 51.4352 46.3372 51.4569 46.3644 51.4796C46.3644 51.4796 46.4006 51.5195 46.4097 51.5358L46.4369 51.5531C46.4369 51.5531 46.455 51.5748 46.4732 51.592C46.5004 51.6147 46.5275 51.6428 46.5547 51.6646C46.5638 51.6709 46.5638 51.6764 46.5729 51.6818C46.5729 51.6927 46.5911 51.699 46.6001 51.7045C46.7089 51.7997 46.8359 51.8895 46.9719 51.9792H46.981C46.981 51.9792 47.0354 52.0191 47.0535 52.0355C47.0989 52.0636 47.1351 52.0808 47.1714 52.1026C47.2076 52.1198 47.2167 52.137 47.2439 52.1479C47.262 52.1588 47.2893 52.1706 47.3074 52.1815C47.3527 52.2041 47.4071 52.2322 47.4615 52.2549C47.4887 52.2712 47.516 52.283 47.5432 52.2993C47.5976 52.322 47.6611 52.3501 47.7155 52.3728C47.7608 52.3891 47.8152 52.4118 47.8605 52.429C47.9331 52.4508 48.0056 52.4789 48.0691 52.5015C48.1054 52.5124 48.1326 52.5242 48.1689 52.5405C48.1961 52.5523 48.2323 52.5632 48.2686 52.5687C48.2867 52.5687 48.3049 52.5804 48.323 52.5859C48.6222 52.6811 48.9487 52.7545 49.2751 52.8108H49.2842C49.2842 52.8108 49.3114 52.8107 49.3205 52.8162C49.529 52.8497 49.7376 52.8724 49.9461 52.8887H50.0459C50.0731 52.8887 50.1184 52.8887 50.1456 52.8942H50.1819C50.2363 52.8942 50.2998 52.9005 50.3542 52.9005H50.6172C50.989 52.9005 51.3607 52.8833 51.7325 52.8325C51.805 52.8216 51.8867 52.8162 51.9592 52.799C51.9955 52.7935 52.0408 52.7881 52.0862 52.7826C52.1224 52.7763 52.1587 52.7708 52.195 52.7654C52.204 52.7654 52.2131 52.76 52.2222 52.76C52.3763 52.7373 52.5214 52.6983 52.6574 52.6584H52.6755C52.739 52.6421 52.8025 52.6249 52.866 52.6086C53.1652 52.5297 53.4372 52.4226 53.7002 52.3048C53.7183 52.2993 53.7365 52.2885 53.7637 52.283C53.8362 52.2431 53.9269 52.2041 53.9995 52.1588C54.0176 52.1533 54.0267 52.1479 54.0357 52.1425C54.0901 52.1198 54.1445 52.0862 54.1989 52.0636C54.208 52.0527 54.2352 52.0355 54.2533 52.0246C54.2987 52.0019 54.3441 51.9629 54.4166 51.9176C54.4257 51.9121 54.4347 51.9012 54.4529 51.8949C54.4619 51.8895 54.4619 51.884 54.471 51.884C54.4801 51.8731 54.4982 51.8668 54.5073 51.8505C54.5073 51.8505 54.5163 51.8505 54.5163 51.845C54.5345 51.8332 54.5435 51.8224 54.5707 51.8051C54.5889 51.7888 54.6161 51.7661 54.6342 51.7489C54.6433 51.738 54.6705 51.7326 54.6796 51.7154C54.6796 51.7099 54.6886 51.7099 54.6886 51.7045C54.734 51.6646 54.7793 51.6374 54.8156 51.5975C54.8519 51.5748 54.879 51.5467 54.8972 51.5249C54.9062 51.5195 54.9153 51.5131 54.9153 51.5077C54.9335 51.4968 54.9425 51.485 54.9607 51.4687C54.9879 51.446 55.006 51.4179 55.0241 51.3953C55.0513 51.3789 55.0604 51.3563 55.0785 51.3336C55.0876 51.3173 55.1057 51.3001 55.1148 51.2828C55.1148 51.2774 55.1239 51.2719 55.1239 51.2719C55.1601 51.2275 55.1874 51.1876 55.2146 51.1486C55.2418 51.1033 55.269 51.0697 55.2962 51.0253C55.3143 50.9972 55.3324 50.9636 55.3415 50.9292C55.3506 50.9183 55.3597 50.9129 55.3687 50.8956C55.3687 50.8956 55.3687 50.8793 55.3778 50.8739C55.3869 50.8566 55.3868 50.834 55.3959 50.8177C55.4322 50.756 55.4503 50.688 55.4775 50.6263C55.4866 50.5928 55.4957 50.5647 55.4957 50.5311V50.5084C55.4957 50.5084 55.5047 50.4803 55.5138 50.464V50.4241L55.5863 50.0931C55.6135 49.919 55.6589 49.7395 55.6952 49.5654L56.1848 47.2694C56.2483 46.9375 56.3208 46.612 56.3843 46.3037L56.5748 45.3996C56.738 44.5853 56.9193 43.7719 57.0826 42.9631C57.0826 42.9522 57.0825 42.9404 57.0916 42.9241V42.8679C57.0916 42.8679 57.1097 42.8116 57.1097 42.789C57.1097 42.7445 57.1188 42.6992 57.1279 42.6602V42.6484C57.1279 42.5922 57.137 42.5369 57.137 42.4807C57.137 41.5032 56.4659 40.5211 55.1511 39.7911C52.5486 38.3485 48.4046 38.3929 45.8837 39.8863C44.6505 40.6163 44.0339 41.5648 44.0339 42.5024L44.1518 42.4915Z" fill="#C8DAE8"/>
<path d="M50.3542 53.0375H50.6172C51.0397 53.0375 51.4097 53.0148 51.7507 52.9677L51.8259 52.9577C51.8822 52.9514 51.9383 52.9441 51.9909 52.9314L52.2167 52.8997C52.399 52.8716 52.5459 52.8326 52.6801 52.7936C52.6919 52.7936 52.7028 52.7918 52.7091 52.7909L52.9005 52.7401C53.1689 52.6694 53.4327 52.5732 53.7564 52.429C53.77 52.4263 53.8163 52.4091 53.829 52.4018C53.8544 52.3873 53.8843 52.3737 53.9133 52.3592C53.9623 52.3347 54.0122 52.3094 54.0566 52.2831C54.0774 52.2758 54.0929 52.2667 54.1056 52.2595C54.1192 52.2559 54.15 52.2404 54.1799 52.2241C54.2035 52.2114 54.228 52.1996 54.2516 52.1888C54.2715 52.1806 54.2896 52.1679 54.3041 52.1507C54.3041 52.1507 54.3178 52.1452 54.325 52.1398C54.3441 52.1307 54.3758 52.1099 54.4121 52.0845C54.4338 52.0691 54.4583 52.0518 54.4882 52.0328C54.4946 52.031 54.5118 52.0165 54.5182 52.0138C54.5209 52.0119 54.5245 52.0101 54.529 52.0074C54.5481 51.9983 54.5644 51.9856 54.578 51.9693C54.578 51.9702 54.5834 51.9693 54.5989 51.9539C54.6079 51.9475 54.6161 51.9412 54.6233 51.9349C54.6297 51.9312 54.6551 51.9122 54.6605 51.9077C54.6959 51.8768 54.7158 51.8605 54.7285 51.8469C54.734 51.8469 54.7621 51.8315 54.7848 51.8006C54.7984 51.7898 54.8101 51.7798 54.8237 51.7698C54.8509 51.7481 54.8781 51.7272 54.9017 51.7027C54.9434 51.6737 54.9743 51.6429 54.9951 51.6184C54.9951 51.6184 54.9969 51.6175 54.9979 51.6166C55.016 51.6039 55.0278 51.5921 55.0378 51.5821C55.0804 51.5458 55.103 51.5159 55.1193 51.4933C55.1384 51.4851 55.1619 51.4506 55.1765 51.4298C55.1792 51.4261 55.1946 51.4035 55.1964 51.3989C55.2001 51.3944 55.2118 51.3799 55.22 51.3663C55.2227 51.3636 55.2245 51.3618 55.2273 51.359C55.2617 51.3164 55.2889 51.2774 55.317 51.2394C55.3433 51.1967 55.356 51.1786 55.3696 51.1605C55.3832 51.1405 55.3968 51.1206 55.4113 51.0979C55.4331 51.0634 55.4494 51.0317 55.4612 51.0009C55.4694 50.9918 55.4775 50.9809 55.4857 50.9655C55.4911 50.9564 55.4957 50.9464 55.4984 50.9365C55.5111 50.9129 55.5156 50.8912 55.5183 50.8766C55.5392 50.8395 55.5592 50.7887 55.5782 50.7388L55.6 50.6808C55.6181 50.6227 55.6298 50.5828 55.6298 50.5321C55.6425 50.5112 55.6489 50.4894 55.6489 50.465V50.4251L55.7169 50.1231C55.7359 49.9989 55.7632 49.8801 55.7895 49.7622L56.3154 47.2994C56.3562 47.0908 56.3988 46.8868 56.4414 46.6882L56.7062 45.4296C56.7914 45.0061 56.8803 44.5854 56.9692 44.1646C57.0526 43.772 57.1361 43.3812 57.2149 42.9912C57.2258 42.9713 57.2267 42.9486 57.2267 42.925V42.8797C57.2367 42.8607 57.2458 42.8199 57.2458 42.7899C57.2458 42.7591 57.253 42.7228 57.2603 42.692C57.2621 42.682 57.2639 42.6603 57.2639 42.6503C57.2639 42.6258 57.2657 42.6013 57.2675 42.5768C57.2702 42.5451 57.2729 42.5143 57.2729 42.4825C57.2729 41.4225 56.524 40.3987 55.2173 39.6742C52.5858 38.2152 48.3675 38.2587 45.8139 39.7712C44.5789 40.5021 43.8979 41.4724 43.8979 42.5043C43.8979 42.5424 43.9151 42.5796 43.9423 42.6049C43.9641 42.6249 43.9931 42.6376 44.0221 42.6403C44.0221 42.653 44.0249 42.6657 44.0267 42.6784C44.0267 42.7482 44.0348 42.8081 44.053 42.8706C44.053 42.8879 44.0557 42.9042 44.0584 42.9205C44.0584 42.9332 44.0611 42.9468 44.0611 42.9604C44.0611 42.9722 44.0629 42.984 44.0656 42.9949C44.0656 43.0076 44.0765 43.0493 44.0801 43.0611C44.2551 43.8763 44.4283 44.6733 44.6088 45.4713C44.7076 45.9392 44.8038 46.4597 44.9035 47.001C45.1356 48.2633 45.376 49.569 45.7223 50.62C45.7223 50.6336 45.725 50.6472 45.7305 50.6635C45.7305 50.6962 45.7369 50.7306 45.7532 50.7642C45.7595 50.776 45.7641 50.7887 45.7695 50.8023C45.7885 50.8458 45.793 50.8612 45.7994 50.8775C45.8066 50.8966 45.8139 50.9165 45.823 50.9374L45.8529 51C45.8574 51.009 45.8611 51.0172 45.8656 51.0244C45.8701 51.0408 45.8774 51.0553 45.8856 51.0661C45.8992 51.0834 45.9064 51.0979 45.9091 51.1051C45.9164 51.1233 45.9264 51.1396 45.9381 51.1541C45.9427 51.1587 45.9472 51.1632 45.9518 51.1677C45.9572 51.1795 45.9635 51.1904 45.9708 51.2004C45.9907 51.2348 46.008 51.2602 46.027 51.2856C46.0343 51.3046 46.0461 51.3237 46.0606 51.3382C46.0733 51.3572 46.086 51.3763 46.105 51.3944C46.1168 51.418 46.134 51.4388 46.1585 51.4524C46.1585 51.4524 46.1667 51.4688 46.1848 51.4869C46.1884 51.4905 46.1912 51.4951 46.1948 51.4996C46.2147 51.5259 46.2392 51.554 46.2736 51.583C46.2736 51.5848 46.2882 51.5993 46.2936 51.6093C46.3045 51.6247 46.3217 51.6438 46.3371 51.6528V51.651C46.3371 51.651 46.3598 51.6728 46.3789 51.6909L46.4206 51.729C46.436 51.7426 46.4496 51.7562 46.465 51.768C46.4795 51.7889 46.5022 51.8088 46.5357 51.8251C46.6336 51.9167 46.7751 52.0137 46.8966 52.0944C46.9057 52.1008 46.9156 52.1053 46.9256 52.1089C46.9401 52.1198 46.9556 52.1316 46.9638 52.1398C47.0109 52.1706 47.0353 52.1842 47.058 52.1969L47.1016 52.2214C47.1415 52.2477 47.1605 52.2631 47.1913 52.2758C47.195 52.2776 47.2439 52.3039 47.2476 52.3057C47.3174 52.3402 47.3636 52.3629 47.4098 52.3819L47.4716 52.4172L47.8125 52.5587C47.8796 52.5787 47.9376 52.6004 47.9893 52.6195L48.022 52.6313C48.061 52.6431 48.0827 52.653 48.1135 52.6666C48.1588 52.6857 48.206 52.6984 48.2495 52.7047C48.2541 52.7065 48.2786 52.7165 48.284 52.7174C48.5651 52.8072 48.8906 52.8843 49.2515 52.9459L49.2842 52.8117L49.2878 52.9477C49.2878 52.9477 49.2733 52.9459 49.257 52.9369C49.2706 52.9441 49.2842 52.9486 49.2987 52.9514C49.4936 52.9831 49.7013 53.0076 49.9353 53.0257H50.0459C50.064 53.0257 50.0985 53.0257 50.1184 53.0284L50.181 53.0311C50.2055 53.0311 50.2336 53.033 50.2608 53.0339C50.2925 53.0357 50.3243 53.0375 50.3542 53.0375ZM52.1677 52.6331L51.9393 52.6648C51.884 52.6775 51.8386 52.6829 51.7933 52.6875L51.7116 52.6984C51.3861 52.7428 51.027 52.7655 50.6172 52.7655H50.3542C50.3297 52.7655 50.3025 52.7637 50.2762 52.7627C50.2436 52.7609 50.2118 52.7591 50.1819 52.7591H50.1456C50.1384 52.7555 50.0812 52.7537 50.0468 52.7537H49.9471C49.7367 52.7364 49.539 52.7138 49.3559 52.6848C49.3386 52.6802 49.316 52.6757 49.2851 52.6757C48.9505 52.6177 48.6358 52.5433 48.3656 52.4572C48.3402 52.4463 48.3094 52.4336 48.2704 52.4336C48.2686 52.4318 48.2432 52.4245 48.2224 52.4164C48.1834 52.3982 48.1507 52.3846 48.1081 52.3719L48.0845 52.3628C48.0274 52.342 47.9639 52.3184 47.9014 52.2994L47.5957 52.1743C47.5957 52.1743 47.5812 52.1652 47.5649 52.1561L47.5332 52.138C47.4761 52.1126 47.4353 52.0926 47.399 52.0745C47.3691 52.0582 47.3509 52.05 47.3346 52.041C47.3319 52.04 47.301 52.0237 47.2983 52.0219C47.2847 52.0101 47.2648 51.9947 47.2331 51.9793L47.1913 51.9557C47.1723 51.9448 47.1514 51.934 47.1287 51.9194C47.126 51.9149 47.0653 51.8696 47.0653 51.8696C47.0526 51.8605 47.0399 51.8533 47.0254 51.8496C46.9175 51.7771 46.7959 51.6927 46.6944 51.603C46.6889 51.5993 46.6835 51.5948 46.6763 51.5903C46.6718 51.5848 46.6654 51.5794 46.66 51.5749C46.6527 51.5676 46.6436 51.5594 46.6391 51.5558L46.5638 51.4878C46.5575 51.4815 46.5448 51.4651 46.5439 51.4642C46.5348 51.4542 46.5249 51.4452 46.5131 51.4379H46.5112C46.5004 51.4243 46.4868 51.408 46.4686 51.3881C46.4378 51.3609 46.426 51.3473 46.4124 51.3282C46.4088 51.3237 46.4043 51.3192 46.3997 51.3146C46.3943 51.3056 46.387 51.2974 46.3789 51.2892C46.3789 51.2874 46.3589 51.262 46.3571 51.2593C46.3526 51.2539 46.3471 51.2475 46.3408 51.243C46.329 51.2248 46.3163 51.2122 46.3081 51.2049C46.2954 51.1886 46.2873 51.1768 46.2791 51.1668C46.2737 51.1532 46.2655 51.1405 46.2564 51.1287C46.2392 51.1079 46.2274 51.087 46.2156 51.068C46.2111 51.0607 46.2047 51.0516 46.1975 51.0426C46.1839 51.0208 46.173 51.0045 46.1612 50.99C46.1504 50.9655 46.1376 50.9428 46.1249 50.9247C46.1222 50.9165 46.1195 50.9084 46.1159 50.9029C46.114 50.9002 46.1095 50.8929 46.105 50.8857C46.1032 50.8821 46.1014 50.8775 46.0996 50.8739L46.0579 50.7805C46.0488 50.7569 46.0397 50.7343 46.0289 50.7089C46.0171 50.679 46.008 50.6526 45.998 50.6354C45.998 50.6173 46.0025 50.6028 45.9953 50.5865C45.9953 50.572 45.9953 50.5647 45.9898 50.5502C45.6462 49.5137 45.4059 48.2098 45.1746 46.9493C45.0749 46.4062 44.9779 45.8821 44.8781 45.4105C44.6977 44.6117 44.5245 43.8155 44.3522 43.0184C44.3522 43.0157 44.3477 42.994 44.3458 42.9849C44.3458 42.9849 44.344 42.9686 44.3368 42.9387C44.3368 42.9205 44.3341 42.9024 44.3313 42.8842C44.3313 42.8715 44.3286 42.8579 44.3286 42.8443C44.3286 42.8298 44.3259 42.8153 44.3214 42.8017C44.3069 42.7591 44.3014 42.7228 44.3014 42.6875C44.3014 42.6802 44.3014 42.6394 44.2996 42.6322C44.2914 42.5832 44.2923 42.5342 44.2923 42.4907C44.2923 42.4526 44.2751 42.4154 44.2479 42.39C44.2288 42.3719 44.2044 42.361 44.179 42.3565C44.2406 41.4787 44.8672 40.6472 45.9563 40.0025C48.4364 38.5335 52.5332 38.4918 55.0894 39.9091C56.3064 40.5846 57.0036 41.5213 57.0036 42.4789C57.0036 42.5034 57.0019 42.5279 57 42.5523C56.9973 42.5841 56.9946 42.6149 56.9946 42.6467C56.9873 42.6748 56.9765 42.7292 56.9765 42.7872C56.9746 42.7954 56.9656 42.8226 56.9647 42.8244C56.9601 42.838 56.9574 42.8525 56.9574 42.867V42.8978C56.9484 42.9269 56.9483 42.9504 56.9483 42.9622C56.8731 43.324 56.7897 43.7149 56.7071 44.1057C56.6174 44.5273 56.5285 44.949 56.4433 45.3715L56.1785 46.6284C56.1359 46.8288 56.0923 47.0337 56.0524 47.2422L55.5274 49.6996C55.5002 49.8239 55.4721 49.9481 55.4531 50.0696L55.3814 50.4278C55.3751 50.4432 55.3696 50.4577 55.3678 50.465C55.3632 50.4786 55.3605 50.4922 55.3605 50.5058C55.3605 50.5402 55.3569 50.5538 55.3497 50.5783C55.3433 50.5928 55.3343 50.6164 55.3261 50.64C55.3125 50.6753 55.2998 50.7116 55.2798 50.7461C55.2726 50.7569 55.2608 50.7923 55.2563 50.8086C55.2517 50.8177 55.2472 50.8268 55.2436 50.8358C55.2309 50.8531 55.2155 50.8766 55.2109 50.8921C55.2073 50.9057 55.1973 50.9247 55.1828 50.9483C55.171 50.9682 55.1602 50.9845 55.1484 51C55.1321 51.0244 55.1157 51.048 55.0985 51.0761C55.074 51.1106 55.0504 51.1451 55.0196 51.1813C55.0105 51.1922 55.0024 51.204 54.9969 51.2176H54.9951C54.9897 51.223 54.9643 51.2575 54.9607 51.2656C54.9462 51.2738 54.9289 51.2947 54.918 51.3073C54.8936 51.3409 54.8845 51.3536 54.8754 51.36L54.9298 51.4951L54.8437 51.389C54.8319 51.3962 54.8219 51.4053 54.8138 51.4153C54.8056 51.4216 54.7983 51.428 54.7938 51.4343C54.7856 51.4443 54.7693 51.4624 54.7449 51.4778C54.734 51.4842 54.7258 51.4923 54.7168 51.5005C54.7004 51.5186 54.6814 51.5332 54.6605 51.5486C54.6415 51.564 54.6206 51.5794 54.6007 51.5975C54.5953 51.6021 54.5898 51.6084 54.5844 51.6148C54.5844 51.6148 54.5826 51.6166 54.5817 51.6175C54.5635 51.6293 54.5381 51.6483 54.529 51.6592L54.5027 51.68C54.4792 51.6991 54.4656 51.7082 54.4547 51.7172C54.4502 51.72 54.4456 51.7236 54.4411 51.7272C54.4248 51.7363 54.4121 51.7481 54.4003 51.7626C54.3958 51.7653 54.3903 51.768 54.3858 51.7716C54.3649 51.7816 54.3504 51.7925 54.3422 51.7988C54.3105 51.8188 54.2815 51.8387 54.2552 51.8569C54.2325 51.8732 54.2126 51.8877 54.1926 51.8977C54.1654 51.9149 54.1427 51.9285 54.1255 51.9421C54.1028 51.953 54.0784 51.9648 54.0557 51.9775C54.0321 51.9902 54.0076 52.002 53.984 52.0128C53.9704 52.0165 53.9378 52.0319 53.9279 52.0391C53.887 52.0645 53.839 52.0881 53.7945 52.1108C53.7673 52.1244 53.741 52.1371 53.7165 52.1507C53.6966 52.1561 53.6812 52.1624 53.6694 52.167C53.3366 52.3148 53.0854 52.4055 52.8324 52.4726L52.6565 52.5188C52.6429 52.5188 52.6293 52.5206 52.6211 52.5233C52.4915 52.5614 52.3519 52.5986 52.2041 52.6204L52.2104 52.7573L52.1696 52.6276L52.1677 52.6331ZM54.384 51.8152C54.3812 51.8251 54.3794 51.8351 54.3794 51.8451C54.3794 51.8342 54.3812 51.8242 54.384 51.8152ZM54.4121 51.7617C54.4121 51.7617 54.4121 51.7617 54.4102 51.7617C54.4139 51.7571 54.4193 51.7517 54.4239 51.7472C54.4202 51.7517 54.4157 51.7562 54.4121 51.7607V51.7617ZM54.5707 51.6338C54.5662 51.6402 54.5617 51.6474 54.5581 51.6538C54.5626 51.6456 54.5662 51.6383 54.5707 51.6338ZM46.1667 51.0136C46.1748 51.0208 46.183 51.029 46.1884 51.0389C46.1812 51.0299 46.173 51.0217 46.1667 51.0154V51.0136Z" fill="#155C6D"/>
<path d="M46.1287 51.3328L45.9835 51.3999L46.1831 51.2657L46.1196 51.3328H46.1287ZM55.6499 50.9737C55.6499 50.9737 55.6317 51.0127 55.6227 51.0299C55.6227 51.0299 55.6408 50.99 55.6499 50.9791V50.9737Z" fill="#155C6D"/>
<path d="M45.9833 51.5359C46.0024 51.5359 46.0214 51.5323 46.0396 51.5232L46.1847 51.4561C46.2146 51.4425 46.2382 51.4189 46.2509 51.3908L46.2808 51.3582C46.3288 51.3074 46.3306 51.2294 46.2853 51.1768C46.2409 51.1242 46.1629 51.1142 46.1058 51.1523L45.9063 51.2865C45.8483 51.3264 45.8292 51.4044 45.8637 51.4661C45.8882 51.5096 45.9344 51.535 45.9825 51.535L45.9833 51.5359ZM55.6225 51.1668C55.6723 51.1668 55.7195 51.1396 55.744 51.0925L55.7458 51.088C55.7658 51.0635 55.7866 51.0118 55.7866 50.98C55.7866 50.9166 55.7422 50.8585 55.6805 50.8449C55.6189 50.8322 55.5545 50.8585 55.5273 50.9165L55.5146 50.942C55.5101 50.951 55.5046 50.961 55.4992 50.9737C55.4683 51.0408 55.4964 51.1206 55.5626 51.1532C55.5817 51.1623 55.6025 51.1668 55.6225 51.1668Z" fill="#155C6D"/>
<path d="M8.78722 31.6583C8.81442 32.1633 8.94135 33.2469 9.05017 33.7357C9.10457 34.0385 9.18618 34.4539 9.27686 34.7576C9.44008 35.3416 9.66679 36.1214 9.85722 36.6945C10.093 37.3565 10.501 38.3113 10.6461 38.6033C10.7912 38.8781 10.9635 39.2598 11.1086 39.5237C11.2627 39.793 11.4532 40.1584 11.6073 40.4278C11.7705 40.6971 11.9882 41.0453 12.1423 41.3091C12.4234 41.7634 12.5141 41.8813 13.3392 42.9876C13.5206 43.2288 13.7836 43.5435 13.9831 43.7792C14.4093 44.3015 15.0712 44.9526 15.3886 45.2609C15.5609 45.435 16.241 46.0589 16.9664 46.6084C17.3926 46.9285 17.9276 47.3157 18.7165 47.7709L19.9316 48.461L21.1467 49.1519L22.3618 49.8429L23.5678 50.533L24.7829 51.2239L25.9889 51.914L27.204 52.605L28.4191 53.295L29.6342 53.986L30.813 54.6652C30.813 54.6652 30.8311 54.6761 30.8492 54.6815C31.348 54.9517 32.0281 55.299 32.5631 55.5185C33.0709 55.7261 33.7782 55.9619 34.3132 56.0907C34.8391 56.2085 35.5283 56.3545 36.0452 56.3944C36.5076 56.4334 37.1152 56.4615 37.5776 56.467C37.8406 56.467 38.1942 56.4561 38.4572 56.4334C39.7811 56.3545 41.2591 56.0689 42.6465 55.6255C43.7256 55.2773 44.442 54.9626 44.5145 54.9345C44.7865 54.8166 45.1311 54.6706 45.3941 54.5419C45.8747 54.3061 46.5095 53.9688 46.981 53.7049L49.0393 52.5206C49.1028 52.4807 49.1754 52.4418 49.2389 52.3973C49.4565 52.2677 49.6923 52.1271 49.8827 52.0092C50.1547 51.8351 50.5174 51.6057 50.7804 51.4089C51.2429 51.0716 51.8413 50.6119 52.2766 50.2582C52.5305 50.056 52.8206 49.7867 53.0655 49.5672C53.2922 49.3542 53.5914 49.0676 53.8 48.8373C54.1536 48.4446 54.6342 47.906 54.9607 47.4962C55.1692 47.254 55.405 46.9067 55.5864 46.6429C55.7314 46.4289 55.9128 46.1369 56.0488 45.9183C56.0488 45.9065 56.6201 44.958 56.9465 44.1156C57.1007 43.723 57.273 43.1953 57.3999 42.7908C57.4815 42.527 57.545 42.1679 57.6085 41.8986C57.7445 41.3536 57.817 40.6073 57.8533 40.0514C57.8805 39.5237 57.8624 38.811 57.8442 38.2778C57.8261 37.7836 57.681 36.6719 57.5813 36.1886C57.5178 35.8802 57.4362 35.4595 57.3546 35.1557C57.1914 34.5609 56.9647 33.7801 56.7652 33.1971C56.5294 32.5288 56.1123 31.5685 55.9672 31.2656C55.8312 30.9845 55.6589 30.6082 55.5047 30.3389C55.3506 30.0641 55.1602 29.6987 55.006 29.4294C54.8428 29.1601 54.6161 28.8064 54.462 28.5425C54.1718 28.0819 54.0902 27.964 53.2559 26.8469C53.0655 26.6002 52.7935 26.2855 52.6031 26.0443C52.1678 25.5166 51.5058 24.8655 51.1794 24.5454C50.998 24.3713 50.327 23.7429 49.5834 23.1871C49.1573 22.867 48.6132 22.4734 47.8243 22.0191C47.8152 22.0191 47.8061 22.0137 47.7971 22.0073L46.6273 21.3399L45.4304 20.6608L44.2334 19.9752L43.0364 19.296L41.8395 18.6169L40.6516 17.9322L39.4547 17.2522L38.2577 16.573L37.0608 15.8884L35.8638 15.2092C35.3651 14.9399 34.685 14.5862 34.15 14.3722C33.624 14.1591 32.9077 13.9233 32.3636 13.7946C31.8468 13.6704 31.1576 13.5416 30.6407 13.4908C30.3687 13.4691 30.015 13.4346 29.7521 13.4237C29.335 13.4128 28.7818 13.4128 28.3737 13.4346C27.603 13.4799 27.0408 13.5525 26.3335 13.6767C25.3179 13.8562 24.4111 14.1364 24.3929 14.1364C24.0846 14.2326 23.6766 14.3559 23.3773 14.4683C22.8423 14.6642 22.1351 14.9453 21.6182 15.1693C21.6091 15.1693 20.793 15.5238 19.6686 16.1695L17.6011 17.3537C17.3563 17.5106 17.0027 17.7019 16.7578 17.8642C16.3316 18.1453 15.7604 18.5325 15.3433 18.8354C14.6813 19.3069 13.8108 20.0931 13.8017 20.0985C13.4027 20.4749 12.8859 20.9863 12.5141 21.3844C12.3055 21.6093 12.0335 21.9348 11.834 22.1706C11.8249 22.176 11.2809 22.8334 10.7005 23.7593C10.1383 24.6742 9.83002 25.3933 9.74841 25.5955C9.57612 26.0108 9.37663 26.5884 9.24061 27.0155C9.159 27.2794 9.08647 27.6439 9.02299 27.9141C8.88697 28.4637 8.8144 29.2108 8.76907 29.7721C8.7328 30.3334 8.75093 31.0861 8.76907 31.6474H8.78722V31.6583Z" fill="#C8DAE8"/>
<path d="M37.5756 56.603C37.8077 56.603 38.1786 56.5939 38.4679 56.5694C39.7927 56.4905 41.2916 56.2013 42.6871 55.756C43.3183 55.552 43.9312 55.3262 44.5097 55.0841L44.6757 55.0134C44.9287 54.9037 45.2225 54.7776 45.4528 54.6652C45.9053 54.443 46.531 54.1129 47.047 53.8246L49.1815 52.5941C49.2269 52.5669 49.274 52.5388 49.3148 52.5098C49.5243 52.3855 49.7609 52.245 49.9523 52.1262L49.9976 52.0972C50.2687 51.924 50.607 51.7091 50.86 51.5195C51.3252 51.1804 51.9282 50.7161 52.3607 50.3661C52.5638 50.2038 52.7932 49.9962 52.9955 49.8139L53.1541 49.6706C53.4878 49.3578 53.7308 49.1165 53.8986 48.9307C54.2377 48.5543 54.7283 48.0048 55.0647 47.5832C55.2597 47.3565 55.4792 47.0364 55.656 46.7798L55.6958 46.7218C55.8373 46.5123 56.0141 46.2303 56.1492 46.0126C56.1556 46.0036 56.162 45.9909 56.1683 45.9764H56.1701C56.1755 45.9673 56.19 45.941 56.2127 45.9011C56.3578 45.6463 56.7985 44.871 57.0706 44.1664C57.1957 43.849 57.3498 43.4002 57.5276 42.8326C57.5838 42.6503 57.63 42.4317 57.6754 42.2205C57.6962 42.1189 57.718 42.0201 57.7379 41.9312C57.8794 41.3645 57.9501 40.6019 57.9855 40.0614C58.0072 39.6452 58.0045 39.0612 57.9773 38.2741C57.9583 37.7582 57.8114 36.6474 57.7107 36.1622L57.6744 35.9854C57.6173 35.6989 57.5502 35.3743 57.4822 35.1213C57.3843 34.7622 57.1286 33.8508 56.8901 33.1544C56.6579 32.4952 56.2444 31.5376 56.0876 31.2085L55.9905 31.0062C55.8736 30.7623 55.7421 30.4858 55.6197 30.2727C55.5517 30.1503 55.4755 30.0088 55.3984 29.8664C55.3032 29.6905 55.2071 29.5119 55.121 29.3632C55.0538 29.2516 54.9786 29.1301 54.9015 29.0059C54.7863 28.8218 54.6685 28.6323 54.5778 28.4754C54.284 28.0093 54.1969 27.8851 53.3627 26.767C53.2548 26.6265 53.1215 26.466 52.9918 26.31C52.8911 26.1876 52.7905 26.0679 52.7071 25.9618C52.2655 25.4259 51.5945 24.7676 51.2735 24.4502C51.1411 24.3242 50.4519 23.6695 49.663 23.0801C49.2006 22.7328 48.6655 22.3492 47.8911 21.903C47.8812 21.8976 47.8712 21.8931 47.8613 21.8903L35.9298 15.0922C35.1935 14.695 34.6285 14.4194 34.1996 14.2471C33.6428 14.0213 32.9174 13.7873 32.3942 13.6631C31.813 13.5234 31.1293 13.4028 30.6532 13.3566L30.4401 13.3385C30.2107 13.3185 29.9577 13.2968 29.7573 13.2886C29.3719 13.2777 28.8033 13.2759 28.3663 13.2995C27.6354 13.3421 27.0787 13.4083 26.3088 13.5434C25.4664 13.693 24.6974 13.9106 24.4444 13.9823C24.4018 13.9941 24.3755 14.0013 24.3646 14.0041L24.2096 14.0512C23.9185 14.1419 23.5866 14.2443 23.3282 14.3414C22.7751 14.5445 22.0641 14.8274 21.5627 15.045L21.5645 15.0487C21.3342 15.1321 20.4537 15.5619 19.5995 16.0525L17.5329 17.2367C17.4168 17.3111 17.2845 17.3882 17.1493 17.4671C16.9843 17.5632 16.8166 17.662 16.6815 17.7518C16.2752 18.0193 15.6885 18.4156 15.2623 18.7257C14.9976 18.9143 14.5215 19.2815 13.7562 19.958L13.7154 19.9934C13.2638 20.4186 12.7551 20.9255 12.4132 21.2919C12.2355 21.4841 12.0133 21.7471 11.8265 21.9683L11.7295 22.0835L11.7313 22.0853C11.5908 22.2377 11.0667 22.9196 10.5842 23.6885C10.0075 24.6261 9.70102 25.347 9.62122 25.5456C9.43987 25.9827 9.23857 26.5712 9.11071 26.9756C9.04996 27.1706 8.99464 27.419 8.94567 27.6375L8.88944 27.8833C8.75252 28.4337 8.67998 29.1764 8.63192 29.7612C8.59655 30.3108 8.61197 31.0262 8.63192 31.6519C8.63192 31.6773 8.64098 31.7018 8.65367 31.7217C8.68813 32.2767 8.81239 33.2959 8.91667 33.7647C8.99466 34.2 9.07172 34.5491 9.14608 34.7957C9.24492 35.153 9.50335 36.0607 9.72732 36.7371C9.95946 37.3891 10.3702 38.3548 10.5235 38.664C10.5906 38.791 10.6613 38.9361 10.732 39.0821C10.82 39.2616 10.908 39.443 10.9878 39.589C11.0658 39.725 11.1519 39.8828 11.2371 40.0406C11.3232 40.2001 11.4094 40.3597 11.4874 40.4949L11.6624 40.7823C11.7884 40.9854 11.9199 41.2003 12.0224 41.3772C12.2972 41.8206 12.3914 41.9484 13.1305 42.9386L13.2275 43.0692C13.4079 43.3095 13.6691 43.6214 13.8768 43.8672C14.1833 44.2435 14.6739 44.7595 15.2923 45.3588C15.4519 45.5193 16.1283 46.145 16.8819 46.7172C17.3389 47.06 17.8684 47.4399 18.6465 47.8888L30.743 54.7831C30.743 54.7831 30.7756 54.8021 30.8101 54.8121C31.0921 54.968 31.8783 55.3852 32.5094 55.6436C33.0553 55.8667 33.7662 56.0988 34.2785 56.2221C34.8217 56.3436 35.509 56.4887 36.0322 56.5295C36.4901 56.5676 37.0959 56.5966 37.5738 56.6021L37.5756 56.603ZM55.9298 45.8512C55.7847 46.0852 55.6115 46.3617 55.4728 46.5667L55.4329 46.6238C55.2606 46.875 55.0448 47.1887 54.8562 47.4082C54.5216 47.828 54.0355 48.373 53.6982 48.7466C53.535 48.9261 53.2974 49.1628 52.9719 49.4684L52.8141 49.6099C52.6137 49.7903 52.3879 49.9943 52.1902 50.1521C51.7595 50.5012 51.161 50.9619 50.6977 51.2992C50.4519 51.4833 50.1182 51.6964 49.8507 51.8659L49.8063 51.894C49.6186 52.011 49.3837 52.1506 49.1661 52.2803C49.1207 52.3121 49.0808 52.3356 49.0409 52.3592L48.9639 52.4055L46.91 53.587C46.4004 53.8717 45.7792 54.2 45.3313 54.4194C45.1046 54.531 44.8154 54.6552 44.5651 54.7622L44.4019 54.8311C43.8306 55.0705 43.2248 55.2936 42.6019 55.4949C41.2281 55.9338 39.7519 56.2185 38.4461 56.2965C38.1614 56.321 37.7996 56.33 37.5747 56.33C37.1032 56.3246 36.5056 56.2965 36.0531 56.2584C35.5471 56.2194 34.8715 56.0761 34.3392 55.9564C33.8396 55.8367 33.1451 55.6091 32.611 55.3915C31.9916 55.1376 31.2163 54.7259 30.9107 54.5609C30.9107 54.5609 30.879 54.5473 30.8781 54.5464L18.7807 47.6512C18.0153 47.2096 17.4939 46.836 17.0441 46.4987C16.3115 45.9437 15.6332 45.3171 15.4818 45.1639C14.8688 44.5699 14.3864 44.0612 14.0844 43.6922C13.8777 43.4473 13.6201 43.139 13.4442 42.9042L13.3481 42.7745C12.6154 41.7925 12.5211 41.6664 12.2555 41.2366C12.153 41.0607 12.0197 40.844 11.8936 40.639L11.7204 40.3561C11.6461 40.2255 11.5599 40.0677 11.4747 39.91C11.3886 39.7504 11.3024 39.5908 11.2244 39.4557C11.1473 39.316 11.0612 39.1383 10.9769 38.9633C10.9043 38.8137 10.8318 38.665 10.7656 38.5389C10.616 38.2388 10.2124 37.2894 9.98484 36.6483C9.76268 35.9809 9.50695 35.0777 9.4072 34.7204C9.33557 34.4811 9.26035 34.1428 9.18327 33.7112C9.07899 33.2406 8.95109 32.1733 8.92298 31.6537V31.6465C8.92298 31.6202 8.91487 31.5948 8.90217 31.5739C8.88313 30.97 8.8713 30.2962 8.90394 29.7794C8.9511 29.2072 9.02273 28.4781 9.15422 27.9458L9.21045 27.6947C9.25851 27.4807 9.31203 27.2386 9.37006 27.0554C9.49611 26.6573 9.69469 26.077 9.87332 25.6463C9.92954 25.5075 10.236 24.7712 10.8155 23.83C11.3514 22.9758 11.8701 22.3329 11.9299 22.2658C11.9326 22.263 11.9354 22.2603 11.9372 22.2576L12.0351 22.1424C12.2182 21.9248 12.4386 21.6646 12.6136 21.476C12.9509 21.1142 13.4551 20.6118 13.8949 20.1965C13.8895 20.2001 13.8867 20.2028 13.8867 20.2028C13.8867 20.2028 13.9067 20.1856 13.9366 20.1602C14.6928 19.4919 15.1626 19.1301 15.4219 18.9451C15.8463 18.6377 16.4285 18.2433 16.8329 17.9776C16.9653 17.8896 17.1276 17.7944 17.2881 17.7001C17.4259 17.6194 17.5629 17.5396 17.6753 17.468L19.7364 16.2873C20.8563 15.6444 21.6216 15.3144 21.6615 15.298C21.6651 15.298 21.6687 15.2953 21.6724 15.2944C22.1711 15.0786 22.8748 14.7984 23.4252 14.5962C23.6773 14.5019 24.0047 14.4003 24.2921 14.3115L24.4272 14.2697C24.4426 14.2661 24.4689 14.2589 24.5197 14.2443C24.7691 14.1736 25.529 13.9587 26.3578 13.8109C27.1158 13.6785 27.6635 13.6132 28.3817 13.5715C28.8115 13.5479 29.3683 13.5507 29.7491 13.5606C29.9432 13.5688 30.1916 13.5906 30.4174 13.6096L30.6296 13.6277C31.0921 13.6731 31.7613 13.7909 32.3316 13.9288C32.8431 14.0494 33.5531 14.2788 34.098 14.5001C34.5124 14.666 35.0846 14.9453 35.7983 15.3307L47.7289 22.1279C47.7361 22.1316 47.7479 22.137 47.7588 22.1415C48.5195 22.5795 49.0455 22.9558 49.5007 23.2986C50.2932 23.8907 51.006 24.5708 51.0849 24.6461C51.4022 24.9589 52.066 25.61 52.4967 26.1332C52.5811 26.2384 52.6817 26.3599 52.7833 26.4841C52.912 26.6383 53.0417 26.7961 53.1469 26.933C53.9911 28.0628 54.06 28.1644 54.3457 28.6178C54.4363 28.7729 54.5551 28.9642 54.6712 29.151C54.7474 29.2743 54.8226 29.3958 54.8879 29.5028C54.9704 29.647 55.0647 29.8238 55.159 29.997C55.237 30.1412 55.3141 30.2836 55.3839 30.4078C55.5018 30.6136 55.6306 30.8847 55.7457 31.125L55.8428 31.3282C55.9969 31.6519 56.4049 32.5967 56.6334 33.246C56.8701 33.9343 57.1231 34.8383 57.2202 35.1947C57.2854 35.4386 57.3507 35.7587 57.4078 36.0416L57.445 36.2194C57.5402 36.6846 57.6871 37.7917 57.7053 38.2859C57.7316 39.0649 57.7343 39.6407 57.7143 40.0469C57.6799 40.5746 57.6101 41.32 57.4731 41.8686C57.4514 41.9611 57.4296 42.0618 57.4078 42.1651C57.3643 42.371 57.319 42.5832 57.2664 42.7527C57.0914 43.3149 56.94 43.7575 56.8166 44.0685C56.5509 44.7558 56.1175 45.5175 55.9752 45.7678C55.9525 45.8086 55.937 45.8349 55.9271 45.854L55.9298 45.8512Z" fill="#155C6D"/>
<path d="M26.3064 18.2015L38.2669 25.0278L40.3162 23.8435L28.3647 17.0173L26.3064 18.2015Z" fill="#155C6D"/>
<path d="M38.2668 25.1638C38.2904 25.1638 38.3139 25.1575 38.3348 25.1457L40.3841 23.9614C40.4258 23.9369 40.4521 23.8916 40.4521 23.8435C40.4521 23.7946 40.4259 23.7501 40.3832 23.7256L28.4318 16.8994C28.391 16.8758 28.3384 16.8749 28.2967 16.8994L26.2374 18.0836C26.1957 18.1081 26.1694 18.1526 26.1694 18.2015C26.1694 18.2505 26.1957 18.2949 26.2383 18.3194L38.1988 25.1457C38.2188 25.1575 38.2432 25.1638 38.2659 25.1638H38.2668ZM40.0432 23.8454L38.2668 24.8718L26.5792 18.2024L28.3647 17.175L40.0432 23.8454Z" fill="#155C6D"/>
<path d="M34.1498 29.5409C34.4309 29.2036 34.7392 28.9569 35.0475 28.7828C36.2535 28.0919 37.523 28.4682 38.4751 29.0186L39.1643 29.3949C38.2122 28.8445 36.9426 28.4682 35.7276 29.1592C35.4283 29.3324 35.12 29.5854 34.8299 29.9227C32.3271 32.8135 34.0228 38.0511 34.1044 38.3268L30.9851 36.5304C30.9035 36.2547 31.638 32.4426 34.1498 29.5464V29.5409Z" fill="#70C5AD"/>
<path d="M34.1047 38.4628C34.1346 38.4628 34.1636 38.4528 34.189 38.4338C34.2325 38.3993 34.2506 38.3413 34.2352 38.2887L34.2244 38.2533C33.9442 37.3375 32.6629 32.634 34.9326 30.0115C35.201 29.7005 35.4902 29.453 35.7958 29.2771C36.8921 28.6532 38.0283 28.957 38.8562 29.3822L39.0992 29.5146C39.1654 29.5509 39.247 29.5273 39.2833 29.4611C39.3196 29.3968 39.2978 29.3142 39.2325 29.2771C39.1528 29.2308 39.0684 29.1846 38.9823 29.141L38.5407 28.8989C37.6411 28.3793 36.29 27.9141 34.9806 28.665C34.6333 28.8608 34.3196 29.1265 34.0457 29.4539C34.0394 29.4611 34.0339 29.4693 34.0294 29.4775C31.5675 32.3311 30.7405 36.184 30.8548 36.5694C30.8647 36.603 30.8865 36.6311 30.9164 36.6483L34.0357 38.4446C34.0566 38.4573 34.082 38.4628 34.1047 38.4628ZM37.1369 28.6495C36.6572 28.6495 36.1567 28.7602 35.6607 29.0422C35.3288 29.2344 35.0142 29.501 34.7276 29.8356C32.5713 32.3257 33.4291 36.4398 33.8788 38.0411L31.1123 36.4488C31.1141 35.9256 31.8821 32.371 34.2525 29.637C34.2597 29.6289 34.2661 29.6198 34.2715 29.6098C34.5191 29.317 34.8038 29.0794 35.1157 28.9034C35.8411 28.4872 36.5865 28.4836 37.2503 28.6523C37.2131 28.6514 37.175 28.6505 37.1378 28.6505L37.1369 28.6495Z" fill="#155C6D"/>
<path d="M34.8387 29.9081C35.1198 29.5708 35.4281 29.3241 35.7364 29.1446C38.0759 27.8025 40.615 30.4857 40.751 30.6263L39.9802 31.5077L34.8569 37.4417L34.1042 38.3067C34.0226 38.0311 32.3269 32.7935 34.8387 29.9017V29.9081Z" fill="#155C6D"/>
<path d="M34.1217 38.4301C34.1543 38.4301 34.1861 38.421 34.2078 38.3966L34.9605 37.5315L40.8546 30.7161C40.9008 30.6626 40.899 30.5828 40.8491 30.532C40.3794 30.0451 37.9519 27.7146 35.6696 29.0267C35.3286 29.2253 35.023 29.4819 34.7601 29.7912C34.751 29.7975 34.7428 29.8048 34.7365 29.8129C32.4242 32.4753 33.5613 36.9919 33.9648 38.3131C33.9793 38.3612 34.0219 38.4129 34.0709 38.4238C34.0872 38.4274 34.1044 38.4292 34.1217 38.4292V38.4301ZM40.5662 30.6327L39.8771 31.4188L34.1643 38.0311C33.8052 36.7689 32.8069 32.4907 34.916 30.0197C34.926 30.0133 34.9351 30.0052 34.9423 29.9961C35.1908 29.6978 35.481 29.4511 35.8038 29.2625C37.8087 28.1136 39.9759 30.0451 40.5662 30.6327Z" fill="#155C6D"/>
<path d="M51.5419 21.3C51.8502 21.1259 52.1585 21.0243 52.4487 21.0307C52.6482 21.0307 52.8205 21.0806 52.9746 21.1649L53.7273 21.6083C53.5731 21.5185 53.4008 21.4741 53.2013 21.4741C52.9112 21.4741 52.6029 21.5693 52.2946 21.7434C49.946 23.0855 47.4342 28.6431 47.3072 28.9351L44.1879 27.1388C44.3149 26.8468 49.2024 22.6357 51.5419 21.3Z" fill="#70C5AD"/>
<path d="M47.3073 29.0712C47.3219 29.0712 47.3355 29.0693 47.35 29.0648C47.3871 29.0521 47.4162 29.0258 47.4325 28.9895C47.457 28.9324 50.0096 23.2061 52.3627 21.8613C52.8551 21.5829 53.3266 21.5312 53.6603 21.7253C53.7256 21.7634 53.8081 21.7407 53.8462 21.6763C53.8833 21.612 53.8625 21.5285 53.7972 21.4904L53.0446 21.047C52.8469 20.9382 52.6492 20.8883 52.4207 20.8938C52.1323 20.8938 51.8141 20.9899 51.4758 21.1812C49.1173 22.5278 44.2161 26.7353 44.0647 27.0844C44.0375 27.1479 44.062 27.2213 44.1209 27.2558L47.2393 29.0521C47.2602 29.0639 47.2838 29.0703 47.3073 29.0703V29.0712ZM53.0183 21.349C52.7644 21.3798 52.4987 21.4714 52.2266 21.6256C50.0077 22.8932 47.6556 27.8488 47.2448 28.7429L44.393 27.0998C45.0513 26.4197 49.3675 22.6974 51.6082 21.4179C51.9038 21.251 52.1777 21.1667 52.4207 21.1667C52.6093 21.164 52.7581 21.2021 52.9077 21.2837L53.0174 21.3481L53.0183 21.349Z" fill="#155C6D"/>
<path d="M52.2943 21.7444C52.6026 21.5703 52.9019 21.4696 53.2011 21.4751C55.7129 21.5086 54.0535 28.6495 53.9719 29.0259L53.2193 29.015L48.0778 28.947L47.3161 28.9361C47.4431 28.6441 49.9548 23.081 52.2943 21.7444Z" fill="#155C6D"/>
<path d="M53.9722 29.1619C54.0356 29.1619 54.0919 29.1174 54.1046 29.0549L54.1154 29.0077C54.4936 27.3066 55.2535 23.1998 54.1535 21.8097C53.9096 21.5023 53.5904 21.3436 53.2023 21.3381C53.1941 21.3381 53.1851 21.3381 53.1778 21.3381C52.8804 21.3381 52.5685 21.4324 52.2266 21.6247C49.7692 23.0293 47.2167 28.8227 47.1904 28.8808C47.1722 28.9225 47.1758 28.9706 47.2012 29.0086C47.2257 29.0467 47.2674 29.0703 47.3137 29.0712L53.9704 29.161L53.9722 29.1619ZM53.1787 21.6111H53.1978C53.5052 21.6147 53.7473 21.7353 53.9396 21.9792C54.9796 23.2941 54.1626 27.5224 53.8625 28.8889L47.5249 28.8037C47.9892 27.799 50.2607 23.0637 52.3608 21.8632C52.6601 21.6936 52.9284 21.6111 53.1787 21.6111Z" fill="#155C6D"/>
<path d="M55.5862 43.2823C55.16 43.518 54.8245 44.1074 54.8245 44.579C54.8245 45.0505 55.1691 45.2473 55.5862 45.0115C56.0124 44.7757 56.3479 44.1863 56.3479 43.7148C56.3479 43.2433 56.0033 43.0465 55.5862 43.2823Z" fill="#155C6D"/>
<path d="M55.2488 45.2473C55.3767 45.2473 55.5145 45.2083 55.6524 45.1303C56.1103 44.8783 56.4839 44.2426 56.4839 43.7149C56.4839 43.4383 56.3814 43.2261 56.1955 43.1182C56.0096 43.0103 55.7621 43.0257 55.5191 43.1635C55.0603 43.4174 54.6875 44.0522 54.6875 44.579C54.6875 44.8556 54.79 45.0678 54.9759 45.1766C55.0575 45.2237 55.1491 45.2473 55.2488 45.2473ZM55.9217 43.3195C55.9734 43.3195 56.0196 43.3304 56.0586 43.3539C56.1574 43.4111 56.2119 43.5408 56.2119 43.7158C56.2119 44.1474 55.8945 44.686 55.52 44.8937C55.3604 44.9834 55.2144 44.9998 55.1137 44.9426C55.0149 44.8855 54.9605 44.7558 54.9605 44.5808C54.9605 44.1501 55.277 43.6106 55.6515 43.4029H55.6533C55.7485 43.3476 55.841 43.3204 55.9217 43.3204V43.3195Z" fill="#155C6D"/>
<path d="M55.2415 45.387C55.3957 45.387 55.5589 45.3417 55.7222 45.2519C56.23 44.9708 56.6199 44.2916 56.6199 43.7076C56.6199 43.3821 56.4929 43.1182 56.2571 42.984C56.0304 42.8489 55.7312 42.8661 55.432 43.0339C54.9333 43.315 54.5343 43.9942 54.5343 44.5781C54.5343 44.9037 54.6703 45.1676 54.897 45.3027C54.9967 45.3643 55.1146 45.3924 55.2415 45.3924V45.387ZM55.9216 43.461C55.9216 43.461 55.967 43.461 55.9851 43.4782C56.0305 43.5063 56.0667 43.5961 56.0667 43.714C56.0667 44.0894 55.7765 44.5836 55.4501 44.7631C55.3141 44.8366 55.2325 44.8366 55.1962 44.8139C55.1418 44.7858 55.1146 44.696 55.1146 44.5781C55.1146 44.2018 55.4048 43.7076 55.7222 43.5226C55.7947 43.4782 55.8672 43.4555 55.9216 43.4555V43.461Z" fill="#155C6D"/>
<path d="M55.2416 45.5285C55.2561 45.5285 55.2688 45.5267 55.2824 45.5221C55.4492 45.5149 55.6188 45.465 55.7884 45.3707C56.3406 45.0651 56.7568 44.3497 56.7568 43.7077C56.7568 43.3295 56.5991 43.0221 56.3243 42.8662C56.0559 42.7066 55.7058 42.7247 55.3649 42.9151C54.8226 43.2207 54.3983 43.9516 54.3983 44.5782C54.3983 44.9508 54.5552 45.2574 54.8272 45.4197C54.9433 45.4913 55.0838 45.5285 55.2416 45.5285ZM55.9171 43.0303C56.016 43.0303 56.1085 43.0539 56.1874 43.101C56.3796 43.2107 56.4839 43.4256 56.4839 43.7077C56.4839 44.2499 56.1212 44.8756 55.6569 45.1331C55.5172 45.2102 55.3731 45.251 55.2416 45.251C55.2289 45.251 55.218 45.2519 55.2071 45.2555C55.1146 45.251 55.0357 45.2283 54.9686 45.1866C54.7782 45.0733 54.6712 44.852 54.6712 44.5782C54.6712 44.0495 55.0421 43.4093 55.4982 43.1527C55.6424 43.072 55.7866 43.0303 55.9171 43.0303ZM55.2488 44.9644C55.3141 44.9644 55.4012 44.9445 55.5145 44.8828C55.8881 44.677 56.2028 44.142 56.2028 43.714C56.2028 43.5508 56.1474 43.4193 56.0568 43.3631C56.0386 43.3431 56.0024 43.3332 55.9688 43.3286C55.8791 43.2969 55.7612 43.3395 55.6505 43.4066C55.2878 43.6179 54.9777 44.1556 54.9777 44.5782C54.9777 44.8058 55.062 44.8983 55.1328 44.9345C55.1573 44.9509 55.1953 44.9644 55.2488 44.9644ZM55.9063 43.5961C55.9199 43.6188 55.9299 43.6569 55.9299 43.714C55.9299 44.0368 55.665 44.4893 55.3839 44.6444C55.3041 44.687 55.2634 44.6915 55.2525 44.6915C55.2625 44.6888 55.2498 44.6507 55.2498 44.5782C55.2498 44.2572 55.5118 43.802 55.7893 43.6396C55.831 43.6152 55.8691 43.6007 55.8963 43.5943C55.899 43.5943 55.9017 43.5943 55.9053 43.5952L55.9063 43.5961Z" fill="#155C6D"/>
<path d="M50.7078 46.0362C50.2906 46.272 49.9551 46.856 49.9551 47.3339C49.9551 47.8117 50.2906 48.0013 50.7168 47.7655C51.134 47.5297 51.4695 46.9403 51.4695 46.4688C51.4695 45.9972 51.1339 45.8005 50.7078 46.0362Z" fill="#155C6D"/>
<path d="M50.3741 48.0031C50.5019 48.0031 50.6407 47.9641 50.7821 47.8852C51.2364 47.6286 51.6055 46.9938 51.6055 46.4688C51.6055 46.1922 51.5048 45.98 51.3217 45.8721C51.1376 45.7615 50.8927 45.7778 50.6425 45.9166H50.6407C50.18 46.1777 49.8191 46.7998 49.8191 47.3329C49.8191 47.6104 49.9198 47.8226 50.1021 47.9305C50.1837 47.9786 50.2743 48.0022 50.3741 48.0022V48.0031ZM51.0469 46.0725C51.0986 46.0725 51.1439 46.0843 51.1829 46.107C51.279 46.1641 51.3326 46.2929 51.3326 46.4688C51.3326 46.8986 51.0197 47.4381 50.6488 47.6476C50.4865 47.7365 50.3378 47.7546 50.2399 47.6966C50.1437 47.6403 50.0912 47.5116 50.0912 47.3339C50.0912 46.904 50.404 46.3645 50.774 46.155C50.8737 46.0997 50.9671 46.0725 51.0469 46.0725Z" fill="#155C6D"/>
<path d="M50.3726 48.1427C50.5268 48.1427 50.69 48.0983 50.8532 48.0085C51.3519 47.7274 51.751 47.0482 51.751 46.4643C51.751 46.1387 51.6149 45.8748 51.3882 45.7397C51.1615 45.6055 50.8623 45.6218 50.5721 45.7851C50.0643 46.0716 49.6744 46.7453 49.6744 47.3284C49.6744 47.6548 49.8014 47.9187 50.0281 48.0529C50.1278 48.1146 50.2457 48.1427 50.3726 48.1427ZM51.0437 46.2176C51.0437 46.2176 51.089 46.2176 51.1071 46.2285C51.1615 46.2566 51.1888 46.3464 51.1888 46.4643C51.1888 46.8406 50.8986 47.3348 50.5812 47.5143C50.4542 47.5868 50.3636 47.5868 50.3182 47.5651C50.2729 47.537 50.2457 47.4472 50.2457 47.3284C50.2457 46.9466 50.5268 46.4642 50.8532 46.2738C50.9439 46.2285 51.0074 46.2058 51.0618 46.2058L51.0437 46.2176Z" fill="#155C6D"/>
<path d="M50.3724 48.2787C50.552 48.2787 50.7361 48.228 50.9193 48.1273C51.4633 47.8208 51.8877 47.09 51.8877 46.4643C51.8877 46.0925 51.7308 45.7851 51.4579 45.6228C51.1886 45.4623 50.8394 45.4768 50.5057 45.6663C49.9544 45.9773 49.5382 46.6919 49.5382 47.3284C49.5382 47.7057 49.6915 48.0122 49.959 48.1699C50.0759 48.2425 50.2156 48.2787 50.3724 48.2787ZM51.0462 45.7851C51.145 45.7851 51.2384 45.8087 51.3191 45.8567C51.5068 45.9692 51.6147 46.1904 51.6147 46.4643C51.6147 46.9929 51.2438 47.6322 50.7868 47.8897C50.5347 48.0285 50.27 48.0412 50.0986 47.9369C49.9154 47.8281 49.8111 47.6068 49.8111 47.3284C49.8111 46.7916 50.1748 46.165 50.639 45.9039C50.7787 45.825 50.9183 45.7851 51.0462 45.7851ZM50.3861 47.712C50.4686 47.712 50.5565 47.6848 50.6481 47.6331C51.0081 47.4291 51.3246 46.8823 51.3246 46.4643C51.3246 46.2367 51.2403 46.1442 51.1695 46.1079C51.1605 46.1025 51.1504 46.0988 51.1405 46.0952C51.0616 46.0381 50.9537 46.0707 50.7914 46.1523C50.4114 46.3736 50.1086 46.8995 50.1086 47.3284C50.1086 47.5007 50.1575 47.6259 50.2455 47.6803C50.289 47.7011 50.3361 47.712 50.3851 47.712H50.3861ZM51.0534 46.3546C51.0416 46.3582 51.0534 46.3963 51.0534 46.4643C51.0534 46.7862 50.7923 47.2387 50.5148 47.3964C50.4577 47.4291 50.4187 47.4382 50.396 47.4409C50.3897 47.42 50.3824 47.3828 50.3824 47.3284C50.3824 46.9975 50.6345 46.5595 50.922 46.3908C50.9356 46.3845 50.9782 46.3627 51.0172 46.35C51.0262 46.3518 51.0344 46.3527 51.0426 46.3527H51.0534V46.3546Z" fill="#155C6D"/>
<path d="M52.839 41.8659C50.1458 43.4048 47.9695 46.3572 47.9695 48.4628C47.9695 50.5684 50.164 51.0344 52.8571 49.4902C55.5503 47.9523 57.7356 45.0043 57.7265 42.8933C57.7265 40.7887 55.5321 40.3226 52.839 41.8659ZM55.5865 44.9989C55.1694 45.2346 54.8248 45.0497 54.8248 44.5663C54.8248 44.083 55.1694 43.5054 55.5865 43.2697C56.0037 43.0339 56.3483 43.2189 56.3483 43.7022C56.3483 44.1855 56.0037 44.7631 55.5865 44.9989ZM50.7171 47.761C50.3 47.9967 49.9554 47.8063 49.9554 47.3284C49.9554 46.8569 50.2909 46.2675 50.708 46.0317C51.1342 45.7959 51.4698 45.9819 51.4698 46.4643C51.4698 46.9467 51.1342 47.5252 50.7171 47.761Z" fill="#70C5AD"/>
<path d="M49.9769 50.5376C50.8284 50.5376 51.8558 50.2211 52.9239 49.609C55.6561 48.0493 57.8713 45.037 57.8623 42.8943C57.8623 42.0764 57.5467 41.4616 56.951 41.1161C55.9952 40.562 54.4328 40.7978 52.7716 41.749C50.0485 43.3041 47.8332 46.3165 47.8332 48.4637C47.8332 49.2826 48.1488 49.8974 48.7446 50.2429C49.0864 50.4405 49.5045 50.5376 49.9769 50.5376ZM55.715 41.0898C56.1394 41.0898 56.513 41.1759 56.8149 41.3509C57.3227 41.6447 57.5893 42.1788 57.5893 42.8943C57.5984 44.9509 55.4448 47.8562 52.7888 49.3732C51.2146 50.2764 49.7538 50.5131 48.8797 50.008C48.3719 49.7142 48.1053 49.1801 48.1053 48.4647C48.1053 46.4044 50.2589 43.4982 52.9058 41.9857C53.935 41.3963 54.9152 41.0898 55.715 41.0898ZM50.3768 47.9977C50.5055 47.9977 50.6443 47.9577 50.783 47.8798C51.2437 47.6195 51.6046 46.9984 51.6046 46.4643C51.6046 46.185 51.5048 45.9728 51.3225 45.8649C51.1348 45.7543 50.8936 45.7724 50.6407 45.9121C50.1864 46.1696 49.8173 46.8043 49.8173 47.3284C49.8173 47.6068 49.9198 47.819 50.1047 47.9269C50.1854 47.9741 50.2779 47.9977 50.3768 47.9977ZM51.0523 46.0671C51.1031 46.0671 51.1475 46.078 51.1856 46.1007C51.2799 46.1569 51.3325 46.2865 51.3325 46.4652C51.3325 46.9023 51.026 47.4309 50.6488 47.644C50.4919 47.7329 50.3423 47.7519 50.2434 47.693C50.1455 47.6358 50.0911 47.5062 50.0911 47.3294C50.0911 46.9004 50.4039 46.3609 50.7748 46.1505C50.8746 46.0952 50.9707 46.0671 51.0523 46.0671ZM55.2453 45.2374C55.3732 45.2374 55.5119 45.1975 55.6533 45.1168C56.1194 44.8538 56.4849 44.2318 56.4849 43.7022C56.4849 43.4229 56.3833 43.2098 56.1983 43.1019C56.0106 42.9922 55.7694 43.0094 55.5192 43.1509C55.0531 43.4139 54.6885 44.035 54.6885 44.5655C54.6885 44.8448 54.7901 45.0579 54.9742 45.1658C55.0558 45.2129 55.1474 45.2374 55.2453 45.2374ZM55.9272 43.3041C55.9779 43.3041 56.0233 43.315 56.0614 43.3377C56.1584 43.3948 56.2119 43.5245 56.2119 43.7031C56.2119 44.1293 55.8945 44.6689 55.5182 44.8811C55.3586 44.9717 55.209 44.9908 55.1111 44.9318C55.0141 44.8756 54.9606 44.745 54.9606 44.5664C54.9606 44.1402 55.2779 43.6006 55.6533 43.3885C55.7513 43.3322 55.8456 43.3041 55.9272 43.3041Z" fill="#155C6D"/>
<path d="M51.116 40.8712C52.7935 39.9164 54.2716 39.7314 55.1512 40.2419L56.874 41.2357C55.9944 40.7306 54.5164 40.9102 52.8388 41.865C50.1457 43.4029 47.9694 46.3618 47.9694 48.461C47.9694 49.259 48.2868 49.8202 48.8218 50.1286L47.0989 49.1347C46.5639 48.8318 46.2465 48.2705 46.2465 47.4735C46.2465 45.3679 48.4137 42.4091 51.116 40.8766V40.8712Z" fill="#70C5AD"/>
<path d="M48.8216 50.2646C48.8687 50.2646 48.915 50.2401 48.9395 50.1966C48.9766 50.1322 48.9549 50.0487 48.8896 50.0107L48.886 50.0089C48.3755 49.7132 48.1061 49.1773 48.1061 48.461C48.1061 46.4008 50.2597 43.4945 52.9066 41.9829C54.4781 41.0888 55.9353 40.8539 56.8076 41.3536C56.8729 41.3917 56.9564 41.369 56.9927 41.3037C57.0298 41.2384 57.008 41.1559 56.9427 41.1178L55.2199 40.124C54.2677 39.5736 52.708 39.8075 51.0486 40.7524C51.0377 40.7578 51.0296 40.766 51.0206 40.7733C48.3111 42.322 46.1103 45.3217 46.1103 47.4726C46.1103 48.2959 46.4295 48.9107 47.0325 49.2517L48.7536 50.2455C48.7745 50.2582 48.7989 50.2636 48.8216 50.2636V50.2646ZM55.7141 40.8267C54.8635 40.8267 53.8379 41.1405 52.7715 41.7471C50.0485 43.3023 47.8332 46.3146 47.8332 48.4619C47.8332 48.8763 47.9148 49.2372 48.0717 49.5391L47.1676 49.0168C46.6544 48.7266 46.3833 48.1925 46.3833 47.4735C46.3833 45.4024 48.5369 42.4961 51.1838 40.9945C51.1947 40.9891 51.2028 40.9818 51.2119 40.9736C52.7752 40.0913 54.2215 39.8592 55.0838 40.3597L55.9018 40.8313C55.841 40.8286 55.7776 40.8267 55.715 40.8267H55.7141Z" fill="#155C6D"/>
<path d="M31.5928 3.66127C27.9657 2.06714 25.4267 4.21713 25.9073 8.46723C26.3788 12.7173 29.7158 17.4607 33.3429 19.0558C36.961 20.6499 39.5091 18.4945 39.0285 14.2389C38.5479 9.98338 35.2109 5.24996 31.5928 3.65583V3.66127Z" fill="#70C5AD"/>
<path d="M35.5899 19.7177C36.3652 19.7177 37.0625 19.5046 37.6402 19.0803C38.8562 18.1862 39.4111 16.4161 39.1645 14.2244C38.6803 9.94077 35.3088 5.1448 31.6481 3.53163C31.6364 3.52619 31.6255 3.52347 31.6128 3.52165C29.9207 2.78806 28.3864 2.82977 27.2892 3.63681C26.0778 4.52909 25.5255 6.29551 25.7721 8.48358C26.2473 12.7681 29.6187 17.5677 33.2885 19.1809C34.101 19.5391 34.879 19.7177 35.5899 19.7177ZM31.572 3.7964C35.1402 5.38872 38.42 10.0704 38.8925 14.2544C39.1291 16.3472 38.6131 18.0257 37.4778 18.8608C36.4532 19.6144 35.0041 19.6388 33.3973 18.9316C29.8064 17.3528 26.5067 12.6521 26.0424 8.45274C25.8057 6.36441 26.3189 4.68869 27.4506 3.85626C28.4735 3.10272 29.9252 3.07823 31.5375 3.78643C31.5493 3.79096 31.5602 3.79459 31.572 3.7964Z" fill="#155C6D"/>
<path d="M27.5759 3.61688L25.5447 4.86371C24.2752 5.64899 23.6132 7.3619 23.8852 9.72498C24.3658 13.9805 27.6938 18.7194 31.3209 20.3135C32.9259 21.0262 34.3223 20.9927 35.3379 20.3643L37.3601 19.1175C36.3445 19.7404 34.9571 19.7749 33.343 19.0676C29.7249 17.4726 26.3971 12.7292 25.9074 8.47906C25.6354 6.11507 26.3064 4.40306 27.5759 3.61688Z" fill="#155C6D"/>
<path d="M33.5642 20.9754C34.2497 20.9754 34.8745 20.8104 35.4095 20.4803L37.4308 19.2335C37.4942 19.1945 37.5142 19.1102 37.4752 19.0467C37.4353 18.9823 37.3509 18.9633 37.2884 19.0022C36.2637 19.6306 34.9162 19.6098 33.3973 18.9442C29.8264 17.3691 26.5267 12.6684 26.0424 8.4645C25.7876 6.24741 26.3716 4.52271 27.6475 3.73381C27.7109 3.69482 27.7309 3.61049 27.6919 3.54702C27.652 3.48264 27.5676 3.46359 27.5051 3.50258L25.4739 4.74941C24.1101 5.59272 23.4826 7.41264 23.7501 9.74217C24.2352 14.0322 27.6066 18.8309 31.2664 20.4395C32.0735 20.7977 32.8515 20.9763 33.5652 20.9763L33.5642 20.9754ZM36.1758 19.6878L35.2663 20.2491C34.2534 20.8757 32.8705 20.8539 31.3752 20.1901C27.7943 18.616 24.4946 13.9152 24.0203 9.71043C23.7646 7.48972 24.3458 5.76502 25.6162 4.97974L26.5484 4.40755C25.8574 5.38416 25.5781 6.806 25.7722 8.49534C26.2673 12.7844 29.6387 17.5831 33.2885 19.1927C34.3395 19.6533 35.317 19.8184 36.1758 19.6878Z" fill="#155C6D"/>
<path d="M23.8852 9.72587C23.8217 9.20356 23.8218 8.70937 23.8399 8.25507L25.8711 7.00824C25.8348 7.46889 25.8439 7.95764 25.9074 8.47995C25.9709 9.05757 26.0978 9.64698 26.261 10.231L24.2389 11.4778C24.0757 10.8938 23.9487 10.3044 23.8852 9.72587Z" fill="#70C5AD"/>
<path d="M24.2389 11.6138C24.2633 11.6138 24.2887 11.6074 24.3105 11.5938L26.3317 10.347C26.3834 10.3153 26.407 10.2527 26.3906 10.1947C26.2147 9.56354 26.1005 8.99771 26.0415 8.46543C25.9808 7.97033 25.969 7.48429 26.0053 7.01911C26.0098 6.96833 25.9844 6.91936 25.9409 6.89216C25.8983 6.86586 25.8421 6.86586 25.7994 6.89216L23.7682 8.13899C23.7293 8.16256 23.7057 8.20427 23.7039 8.24961C23.6894 8.6096 23.6794 9.15549 23.7492 9.74127C23.81 10.2908 23.9269 10.8711 24.1083 11.515C24.1201 11.5558 24.15 11.5893 24.1899 11.6047C24.2062 11.6111 24.2216 11.6138 24.2389 11.6138ZM26.1023 10.1693L24.3223 11.2674C24.1726 10.707 24.0738 10.1965 24.0203 9.71135C23.9578 9.18269 23.9623 8.68306 23.9732 8.33394L25.7206 7.26122C25.7042 7.66292 25.7223 8.07733 25.774 8.49717C25.8303 9.01495 25.9391 9.56354 26.1032 10.1693H26.1023Z" fill="#155C6D"/>
<path d="M27.5215 13.285L25.4994 14.5309C25.2364 14.0648 25.0097 13.577 24.8011 13.0882L26.8323 11.8423C27.0409 12.3301 27.2676 12.8135 27.5215 13.285Z" fill="#70C5AD"/>
<path d="M25.4992 14.6679C25.5237 14.6679 25.5491 14.6615 25.5708 14.6479L27.5921 13.402C27.6528 13.3639 27.6746 13.285 27.6401 13.2215C27.4062 12.7863 27.1831 12.3175 26.9564 11.7888C26.941 11.7525 26.9102 11.7244 26.873 11.7126C26.8331 11.7018 26.7932 11.7054 26.7606 11.7263L24.7294 12.9722C24.6722 13.0075 24.6487 13.0801 24.675 13.1417C24.9225 13.7221 25.1474 14.1846 25.3795 14.598C25.3986 14.6307 25.4285 14.6543 25.4648 14.6624C25.4756 14.6651 25.4865 14.667 25.4983 14.667L25.4992 14.6679ZM27.3409 13.237L25.5482 14.3414C25.3587 13.995 25.1728 13.6078 24.9715 13.1436L26.7678 12.0409C26.9573 12.4743 27.145 12.8679 27.34 13.237H27.3409Z" fill="#155C6D"/>
</svg>
