<svg width="64" height="64" viewBox="0 0 64 64" fill="none" xmlns="http://www.w3.org/2000/svg">
<g clip-path="url(#clip0_9503_15367)">
<path d="M12.0968 7.02533L35.5422 7.19136C36.9512 7.08022 38.2629 7.67764 39.2823 9.45127C41.0436 12.5151 41.0362 17.4586 39.2656 20.4923C38.3081 22.1331 37.0313 22.8773 35.7818 22.7321L12.4506 22.6389L12.4496 22.6278C11.2233 22.7151 9.97965 21.9451 9.04575 20.3205C7.28444 17.2562 7.29186 12.3132 9.062 9.27907C9.90475 7.83517 10.9955 7.08555 12.0968 7.02533Z" fill="#70C5AD"/>
<path d="M16.7635 15.1284L40.5887 15.2476C40.6118 15.2473 40.6342 15.2571 40.6502 15.2739C40.666 15.2903 40.6747 15.3126 40.6737 15.3354C40.6198 17.3069 40.1459 19.1536 39.3397 20.5356C38.4848 22.0003 37.3268 22.8203 36.119 22.8345C36.0037 22.8358 35.8882 22.8304 35.7723 22.8169L12.454 22.7241L12.452 22.7251L11.745 22.7329C11.7006 22.7334 11.663 22.699 11.659 22.6548C11.6571 22.6319 11.6629 22.604 11.6776 22.5864C11.6927 22.5689 11.7133 22.553 11.7362 22.5513C12.8347 22.4723 13.8733 21.6877 14.659 20.3413C15.3924 19.0845 15.8527 17.4062 15.954 15.6177C15.9558 15.5884 15.9721 15.5627 15.9979 15.5483L16.6913 15.1665C16.7062 15.14 16.7321 15.1215 16.7635 15.1284Z" fill="#155C6D"/>
<path d="M12.4094 7.02734L35.5422 7.02734C36.9512 6.91621 38.2629 7.67779 39.2824 9.45142C39.5333 9.88826 39.7441 10.3656 39.9231 10.8677C43.3229 18.9831 39.2201 31.5479 42.6282 37.2448C42.6335 37.2541 29.1347 37.1998 23.7862 37.1871L23.8136 37.194C23.2948 38.0835 22.6562 38.6369 21.9872 38.8545C20.8722 39.2174 19.6754 38.648 18.8148 37.1508C14.999 30.7713 20.0723 14.7604 14.675 8.25366C13.9838 7.49171 13.2 7.07816 12.4094 7.02734Z" fill="#C8DAE8"/>
<path d="M22.5465 37.866C23.0634 36.9914 23.7284 36.537 24.4 36.5006L47.6903 36.6501C48.5565 36.5816 49.3628 36.9492 49.9894 38.0392L46.0507 38.0173C45.5886 38.7902 44.9767 39.1345 44.379 39.0575L21.1273 38.9604L21.1717 38.9582C21.6872 38.9138 22.1514 38.5431 22.5465 37.866Z" fill="#155C6D"/>
<path fill-rule="evenodd" clip-rule="evenodd" d="M24.4607 7.02734H35.5418C36.1805 6.97698 36.799 7.10741 37.3797 7.42871C38.1446 7.79334 38.807 8.45415 39.3562 9.40918C39.5961 9.82728 39.8141 10.3086 40.0037 10.8389C41.7178 14.9314 41.5328 20.0723 41.3543 25.0439C41.1815 29.8495 41.0188 34.3895 42.7009 37.2012L42.7263 37.2432L42.7019 37.2871C42.6565 37.3187 39.7266 37.3247 33.9138 37.3047C30.2407 37.292 26.2673 37.2784 23.867 37.2725C23.3572 38.1319 22.7165 38.707 22.0134 38.9355C21.793 39.007 21.5714 39.0433 21.3523 39.0459L21.1697 39.04C21.1603 39.0393 21.1507 39.0369 21.1414 39.0361L20.5603 39.0439C19.6197 38.9858 18.7471 38.3307 18.0974 37.2002C16.3377 34.2578 16.4536 29.3555 16.5769 24.165C16.7212 18.0946 16.8703 11.8172 13.9656 8.31543C13.3449 7.63112 12.6366 7.22375 11.9099 7.13379C10.8651 7.26875 9.88314 8.04046 9.13551 9.32129C7.38182 12.327 7.37484 17.2429 9.11988 20.2783C9.99739 21.8052 11.2055 22.6306 12.4431 22.543C12.4884 22.5403 12.53 22.5747 12.5339 22.6211C12.5359 22.6449 12.5285 22.6738 12.5125 22.6914C12.4965 22.7088 12.4746 22.7243 12.4509 22.7246L11.8963 22.7314C11.8828 22.7315 11.8696 22.728 11.8582 22.7227C10.5631 22.7977 9.31825 21.9377 8.41676 20.3691C6.64478 17.2864 6.65163 12.2957 8.43238 9.24316C9.25946 7.82659 10.3623 7.01066 11.5369 6.94629L12.0222 6.9502H12.0242L12.4089 6.95312L12.4099 6.94238L24.4607 7.02734ZM13.7254 7.22656C14.0097 7.38564 14.2857 7.59023 14.5486 7.83887L14.823 8.11914L14.8289 8.12598L15.0808 8.44531C16.2996 10.078 16.936 12.2168 17.2595 14.5898C17.6048 17.1226 17.5962 19.9477 17.5379 22.7539C17.4794 25.5665 17.3726 28.3582 17.5173 30.8477C17.6532 33.1844 18.0103 35.2255 18.8191 36.75L18.9861 37.0479L18.988 37.0508L19.1482 37.3115C19.9611 38.5588 20.9968 38.9662 21.9255 38.6641L22.1531 38.5752C22.653 38.3468 23.1389 37.8998 23.5613 37.2188L23.0711 37.0996H23.6355C23.6369 37.0973 23.639 37.0951 23.6404 37.0928L23.6531 37.0996H23.7713L23.7869 36.9863C26.4612 36.9927 31.1734 37.0104 35.2156 37.0244C37.2365 37.0314 39.0911 37.037 40.4392 37.041C41.113 37.043 41.661 37.0443 42.0398 37.0449C42.1319 37.0451 42.2144 37.0449 42.2859 37.0449C41.5297 35.6266 41.1852 33.8488 41.0466 31.875C40.898 29.7566 40.9858 27.3867 41.073 24.9561C41.2482 20.076 41.4175 14.9544 39.738 10.9453L39.7341 10.9346C39.6023 10.5648 39.4529 10.21 39.2839 9.87695L39.1082 9.55078C38.4497 8.40539 37.6787 7.71456 36.8533 7.40723C36.445 7.28307 36.0097 7.23812 35.5486 7.27539L28.7097 7.22656H13.7254Z" fill="#155C6D"/>
<path d="M44.5589 39.1535C44.496 39.1542 44.4323 39.1507 44.3689 39.1425L21.1275 39.0461L21.1234 38.8757L21.1678 38.8734C21.6508 38.832 22.0908 38.4786 22.473 37.8234C22.9861 36.9549 23.6685 36.4551 24.3956 36.4159L47.6911 36.5653C48.6705 36.4886 49.4725 36.9693 50.0638 37.9975L50.1376 38.1262L46.0992 38.1037C45.6856 38.7738 45.1338 39.1467 44.5589 39.1535ZM21.7172 38.8781L44.3802 38.9727C44.9723 39.048 45.5524 38.6845 45.978 37.9743L46.0032 37.9322L49.8389 37.9537C49.2921 37.0758 48.5686 36.6637 47.6978 36.7357L24.4002 36.5863C23.7376 36.6222 23.104 37.092 22.6211 37.9091C22.3504 38.3733 22.0477 38.6973 21.7176 38.8781L21.7172 38.8781Z" fill="#155C6D"/>
<path d="M24.5923 36.5022L47.6907 36.5022C48.5568 36.4337 49.3631 36.9497 49.9898 38.0397C50.1439 38.3081 50.2734 38.6019 50.3839 38.9104C52.4735 43.8996 51.311 54.0903 53.4057 57.5925C53.4092 57.598 32.9629 57.5136 32.9629 57.5136C32.644 58.0603 31.9107 58.8661 31.4998 59C30.4998 59 30.0781 58.8731 29.5488 57.9528C27.478 54.4912 28.9466 44.0316 26.9589 38.9819C26.6945 38.31 26.3748 37.7252 25.9849 37.2555C25.5601 36.787 25.0787 36.5331 24.5923 36.5022Z" fill="#C8DAE8"/>
<path d="M30.9998 59C30.389 59.0072 29.9335 58.356 29.4998 57.6021C28.428 55.8099 28.5232 52.2493 28.29 48.5564C28.07 45.0675 27.8421 41.4594 26.8794 39.0131C26.6084 38.3242 26.2853 37.7509 25.9189 37.3099C25.5179 36.868 25.0562 36.6173 24.5865 36.587L24.5926 36.4169L47.691 36.5653C48.6746 36.4894 49.4728 36.9697 50.0637 37.9974C50.2112 38.2548 50.3464 38.5524 50.464 38.8821C51.4984 41.3511 51.7373 45.0635 51.968 48.6537C52.2042 52.3244 52.4275 55.7915 53.4788 57.5494L53.5041 57.5913L53.4806 57.6342C53.4633 57.6648 52.373 57.6762 50.2098 57.6683L32.6961 57.672C32.3808 58.1961 31.9998 59 31.4998 59C31.3044 59 31.1382 58.9984 30.9998 59ZM25.2564 36.5915C25.5358 36.7237 25.8033 36.9277 26.0488 37.1984C26.4291 37.6563 26.7613 38.2452 27.0389 38.9511C28.0118 41.4225 28.2403 45.0438 28.4609 48.5459C28.6925 52.2175 28.5962 55.7581 29.6479 57.516C30.1376 58.3669 30.8299 58.9861 31.4998 58.7677C31.9052 58.6355 32.2761 58.0537 32.574 57.5431L32.5992 57.5006L32.6488 57.5C32.842 57.5016 51.4408 57.5043 53.2594 57.5072C52.25 55.6794 52.0309 52.2693 51.7988 48.6638C51.5687 45.0876 51.3309 41.3897 50.3057 38.9428C50.1898 38.6181 50.0591 38.3299 49.9164 38.0814C49.3608 37.115 48.6091 36.6619 47.6985 36.7348L25.2572 36.5906L25.2564 36.5915Z" fill="#155C6D"/>
<path d="M57.1688 55.9446C57.205 55.9829 57.1779 56.0459 57.1253 56.0459H33.4512L33.106 55.6578C33.0015 55.5403 33.0849 55.3545 33.2421 55.3545L56.6103 55.3545L57.1688 55.9446ZM33.5273 55.8259H56.8239L56.5448 55.5253L33.2154 55.5253L33.5273 55.8259Z" fill="#155C6D"/>
<path d="M24.4766 36.4268C24.5221 36.4273 24.5586 36.4625 24.5606 36.5078C24.5624 36.5529 24.5287 36.5927 24.4834 36.5967C23.8335 36.6559 23.2188 37.1216 22.7539 37.9082C22.3421 38.6137 21.8574 38.9954 21.3135 39.042L21.2657 39.0449H21.2627L20.5645 39.0527C20.518 39.0532 20.4799 39.0161 20.4785 38.9697C20.4774 38.9235 20.5132 38.8841 20.5596 38.8818L20.6035 38.8799C21.0861 38.8389 21.5266 38.4857 21.9092 37.8301C22.4227 36.9616 23.1054 36.4621 23.8321 36.4229L24.4766 36.4268Z" fill="#155C6D"/>
<path fill-rule="evenodd" clip-rule="evenodd" d="M47.6904 36.502C48.5565 36.4334 49.3636 36.9493 49.9903 38.0391C50.1443 38.3074 50.2733 38.6026 50.3838 38.9111C52.2134 43.2805 51.5501 51.6381 52.7637 56H57.1768C57.0777 56.5918 56.8932 57.1691 56.6221 57.6338C56.1576 58.4295 55.1836 59.0168 54.6543 59H31.334C31.3392 59.0002 31.3444 59.0008 31.3496 59.001L31.1074 59.0049C31.0189 59.0119 30.9303 59.0075 30.8418 58.9961C30.2627 58.9633 29.7072 58.5558 29.3008 57.8486C28.2286 56.0565 28.1289 52.2555 27.8945 48.5645C27.6732 45.0756 27.444 41.4668 26.4795 39.0205C26.4783 39.0169 26.4775 39.0128 26.4766 39.0088C26.2065 38.325 25.8842 37.7546 25.5195 37.3145C25.119 36.8731 24.6566 36.6221 24.1865 36.5918C24.1411 36.5887 24.1055 36.5502 24.1065 36.5049C24.1076 36.4593 24.1453 36.4224 24.1914 36.4219L24.5918 36.417C24.7369 36.4263 25.0326 36.4171 25.0352 36.417L47.6904 36.502ZM47.707 36.7021L25.6641 36.7012C25.7653 36.7735 25.8651 36.8546 25.961 36.9453L26.1328 37.1211L26.1387 37.1279L26.2871 37.3174C26.6266 37.7712 26.9096 38.3095 27.1455 38.9092L27.3252 39.4072C27.7214 40.6046 27.9575 42.038 28.1104 43.5693C28.1995 44.4623 28.2597 45.3931 28.3076 46.334C28.362 47.07 28.4112 47.8125 28.458 48.5498C28.6909 52.2193 28.7894 55.9993 29.8408 57.7578L29.8418 57.7598C30.1512 58.2979 30.5482 58.6496 30.9707 58.7744C31.1126 58.7884 31.2746 58.7972 31.4639 58.7979C31.5315 58.7703 31.6236 58.7167 31.7334 58.6309C31.7631 58.6076 31.7914 58.5802 31.8223 58.5537C32.0618 58.329 32.2884 58.0365 32.4766 57.7139C32.7634 57.2223 32.9019 56.5995 33 56L33.0381 55.3326C33.0391 55.315 33.0547 55.3021 33.0721 55.3047C33.1718 55.3196 33.4712 55.3669 33.5 55.4L33.5176 55.8896C33.5116 55.9258 33.506 55.9627 33.5 56H52.5576C52.3864 55.3738 52.2525 54.6747 52.1455 53.9268C51.926 52.3919 51.8095 50.6249 51.6934 48.8223C51.5771 47.0163 51.4607 45.1719 51.2442 43.4678C51.0273 41.7621 50.711 40.2105 50.1992 38.9883L50.1953 38.9785C50.1148 38.7536 50.024 38.5374 49.9219 38.3359L49.8164 38.1387C49.2116 37.0871 48.4672 36.6422 47.707 36.7021Z" fill="#155C6D"/>
<path d="M35.5184 7.19121C35.5026 7.19055 35.4868 7.19158 35.4709 7.19092L35.5184 7.19121Z" fill="#155C6D"/>
<path d="M57.0991 55.9011L33.5214 55.9011L33.158 55.482C33.0962 55.4108 33.1468 55.3 33.2411 55.3L56.5775 55.3L57.0991 55.9011Z" fill="#70C5AD"/>
<path d="M56.5771 55.2003L56.6193 55.209C56.6321 55.2149 56.6438 55.2237 56.6532 55.2346L57.1742 55.836C57.1998 55.8656 57.2058 55.9075 57.1896 55.9431C57.1773 55.9696 57.1546 55.9894 57.1274 55.9974L57.0992 56.001L33.5215 56.0011C33.5072 56.0011 33.493 55.9981 33.4803 55.9924L33.4455 55.9669L33.0824 55.5481C32.9645 55.4122 33.0609 55.2005 33.2407 55.2003L56.5771 55.2003ZM33.236 55.4016C33.2349 55.4023 33.2332 55.4035 33.2322 55.4056C33.2312 55.4078 33.2302 55.4102 33.2304 55.4115C33.2305 55.4124 33.2313 55.4139 33.2334 55.4163L33.5654 55.8007L56.8793 55.8004L56.5312 55.3988L33.2408 55.4005L33.236 55.4016Z" fill="#155C6D"/>
<path d="M35.5193 7.27691L35.5176 7.27693L35.4668 7.27625C35.4206 7.27381 35.3846 7.2346 35.3858 7.18856C35.3874 7.14209 35.4302 7.11304 35.472 7.10615L35.5229 7.10684C35.5691 7.10928 35.605 7.14849 35.6039 7.19453C35.6023 7.24014 35.5651 7.27638 35.5193 7.27691Z" fill="#155C6D"/>
<path d="M33.6528 10.6399L37.9068 10.6701L33.6528 10.6399Z" fill="#C8DAE8"/>
<path d="M33.6534 10.5333L33.6519 10.7463L37.9059 10.7765L37.9074 10.5635L33.6534 10.5333Z" fill="#155C6D"/>
<path d="M18.4597 10.5322L32.0218 10.6284L18.4597 10.5322Z" fill="#C8DAE8"/>
<path d="M18.461 10.4256L18.4595 10.6387L32.0217 10.7349L32.0233 10.5218L18.461 10.4256Z" fill="#155C6D"/>
<path d="M36.1301 13.345L38.6042 13.3624L36.1301 13.345Z" fill="#C8DAE8"/>
<path d="M36.1307 13.2384L36.1292 13.4514L38.6033 13.4688L38.6048 13.2557L36.1307 13.2384Z" fill="#155C6D"/>
<path d="M19.157 13.2249L30.1129 13.3026L19.157 13.2249Z" fill="#C8DAE8"/>
<path d="M19.1575 13.1182L19.156 13.3313L30.1121 13.4088L30.1136 13.1958L19.1575 13.1182Z" fill="#155C6D"/>
<path d="M34.7563 16.2588L39.0103 16.289L34.7563 16.2588Z" fill="#C8DAE8"/>
<path d="M34.7567 16.1522L34.7551 16.3652L39.0091 16.3954L39.0107 16.1824L34.7567 16.1522Z" fill="#155C6D"/>
<path d="M19.5632 16.1516L27.7085 16.2095L19.5632 16.1516Z" fill="#C8DAE8"/>
<path d="M19.5643 16.0443L19.5627 16.2573L27.7079 16.3151L27.7094 16.1021L19.5643 16.0443Z" fill="#155C6D"/>
<path d="M35.0432 19.2939L39.2971 19.3242L35.0432 19.2939Z" fill="#C8DAE8"/>
<path d="M35.0438 19.1871L35.0422 19.4001L39.2963 19.4303L39.2978 19.2173L35.0438 19.1871Z" fill="#155C6D"/>
<path d="M19.8501 19.186L33.4122 19.2822L19.8501 19.186Z" fill="#C8DAE8"/>
<path d="M19.8507 19.0797L19.8491 19.2927L33.4114 19.3887L33.4129 19.1757L19.8507 19.0797Z" fill="#155C6D"/>
<path d="M44.1057 39.3596L48.3596 39.3898L44.1057 39.3596Z" fill="#C8DAE8"/>
<path d="M44.106 39.2525L44.1045 39.4656L48.3585 39.4958L48.36 39.2827L44.106 39.2525Z" fill="#155C6D"/>
<path d="M28.9126 39.2517L42.4747 39.3479L28.9126 39.2517Z" fill="#C8DAE8"/>
<path d="M28.9136 39.1451L28.9121 39.3582L42.4744 39.4544L42.4759 39.2413L28.9136 39.1451Z" fill="#155C6D"/>
<path d="M46.5825 42.0642L49.0566 42.0816L46.5825 42.0642Z" fill="#C8DAE8"/>
<path d="M46.5833 41.9581L46.5818 42.1711L49.0559 42.1887L49.0574 41.9757L46.5833 41.9581Z" fill="#155C6D"/>
<path d="M29.6096 41.9443L40.5655 42.0221L29.6096 41.9443Z" fill="#C8DAE8"/>
<path d="M29.6107 41.8377L29.6091 42.0508L40.5648 42.1283L40.5663 41.9153L29.6107 41.8377Z" fill="#155C6D"/>
<path d="M45.209 44.979L49.4629 45.0092L45.209 44.979Z" fill="#C8DAE8"/>
<path d="M45.2093 44.8719L45.2078 45.085L49.4618 45.1151L49.4633 44.9021L45.2093 44.8719Z" fill="#155C6D"/>
<path d="M30.0159 44.8713L38.1612 44.9292L30.0159 44.8713Z" fill="#C8DAE8"/>
<path d="M30.0169 44.7645L30.0154 44.9775L38.1609 45.0353L38.1625 44.8223L30.0169 44.7645Z" fill="#155C6D"/>
<path d="M45.4956 48.0132L49.7495 48.0434L45.4956 48.0132Z" fill="#C8DAE8"/>
<path d="M45.4969 47.9068L45.4954 48.1199L49.7494 48.1499L49.7509 47.9368L45.4969 47.9068Z" fill="#155C6D"/>
<path d="M30.3027 47.9055L43.8648 48.0017L30.3027 47.9055Z" fill="#C8DAE8"/>
<path d="M30.3035 47.7987L30.302 48.0117L43.8643 48.1077L43.8658 47.8946L30.3035 47.7987Z" fill="#155C6D"/>
<path d="M34.8271 22.2969L39.0811 22.3271L34.8271 22.2969Z" fill="#C8DAE8"/>
<path d="M34.8279 22.1903L34.8264 22.4033L39.0804 22.4334L39.082 22.2203L34.8279 22.1903Z" fill="#155C6D"/>
<path d="M19.634 22.189L27.7789 22.2468L19.634 22.189Z" fill="#C8DAE8"/>
<path d="M19.6351 22.0826L19.6335 22.2957L27.7782 22.3533L27.7798 22.1402L19.6351 22.0826Z" fill="#155C6D"/>
<path d="M36.9871 25.2043L39.1149 25.2194L36.9871 25.2043Z" fill="#C8DAE8"/>
<path d="M36.9874 25.098L36.9858 25.311L39.1137 25.326L39.1152 25.113L36.9874 25.098Z" fill="#155C6D"/>
<path d="M19.6677 25.0818L31.3115 25.1642L19.6677 25.0818Z" fill="#C8DAE8"/>
<path d="M19.669 24.9752L19.6675 25.1882L31.3113 25.2708L31.3129 25.0578L19.669 24.9752Z" fill="#155C6D"/>
<path d="M36.3018 27.9106L39.147 27.931L36.3018 27.9106Z" fill="#C8DAE8"/>
<path d="M36.3023 27.804L36.3008 28.0171L39.1459 28.0372L39.1474 27.8241L36.3023 27.804Z" fill="#155C6D"/>
<path d="M19.7 27.793L29.0445 27.8593L19.7 27.793Z" fill="#C8DAE8"/>
<path d="M19.701 27.6864L19.6995 27.8994L29.044 27.9655L29.0456 27.7525L19.701 27.6864Z" fill="#155C6D"/>
<path d="M34.9265 30.7676L39.1804 30.7978L34.9265 30.7676Z" fill="#C8DAE8"/>
<path d="M34.9273 30.661L34.9258 30.874L39.1798 30.9042L39.1813 30.6911L34.9273 30.661Z" fill="#155C6D"/>
<path d="M19.7334 30.6604L33.2955 30.7566L19.7334 30.6604Z" fill="#C8DAE8"/>
<path d="M19.7344 30.5533L19.7329 30.7664L33.2952 30.8626L33.2967 30.6495L19.7344 30.5533Z" fill="#155C6D"/>
<path d="M34.9612 33.7148L39.2151 33.7451L34.9612 33.7148Z" fill="#C8DAE8"/>
<path d="M34.9617 33.608L34.9602 33.821L39.2142 33.8512L39.2158 33.6382L34.9617 33.608Z" fill="#155C6D"/>
<path d="M19.7678 33.6069L33.3299 33.7031L19.7678 33.6069Z" fill="#C8DAE8"/>
<path d="M19.7689 33.5003L19.7673 33.7134L33.3296 33.8094L33.3311 33.5963L19.7689 33.5003Z" fill="#155C6D"/>
<path d="M8.00562 41.6919C12.2793 41.4543 12.4477 41.2822 12.6234 37.0049C12.861 41.2785 13.0331 41.4469 17.3104 41.6263C13.0368 41.8639 12.8684 42.036 12.6889 46.3133C12.4513 42.0397 12.2793 41.8713 8.00562 41.6919Z" fill="#C8DAE8"/>
<path d="M12.5976 46.3182C12.3619 42.0881 12.2326 41.9613 8.00187 41.7837L8 41.6C12.2302 41.3649 12.3569 41.2357 12.5315 37.0012L12.7146 37C12.9503 41.2302 13.0795 41.3569 17.314 41.5345L17.3158 41.7182C13.0856 41.9534 12.9589 42.082 12.7807 46.317L12.5976 46.3182ZM9.49479 41.6815C11.9448 41.8737 12.4537 42.3753 12.6791 44.8241C12.8707 42.371 13.3729 41.8621 15.8205 41.6362C13.371 41.4445 12.8603 40.943 12.6344 38.5009C12.4439 40.9479 11.9412 41.4561 9.49479 41.6815Z" fill="#155C6D"/>
<path d="M47.0039 12.1814C49.9017 12.0203 50.0158 11.9037 50.135 9.00342C50.2961 11.9012 50.4128 12.0153 53.313 12.137C50.4153 12.2981 50.3011 12.4148 50.1794 15.315C50.0183 12.4173 49.9017 12.3031 47.0039 12.1814Z" fill="#C8DAE8"/>
<path d="M50.1174 15.3182C49.9576 12.45 49.87 12.364 47.0013 12.2436L47 12.1191C49.8683 11.9596 49.9542 11.872 50.0726 9.00082L50.1967 9C50.3566 11.8683 50.4442 11.9542 53.3153 12.0746L53.3166 12.1992C50.4483 12.3586 50.3624 12.4458 50.2415 15.3174L50.1174 15.3182ZM48.0135 12.1743C49.6748 12.3046 50.0198 12.6447 50.1726 14.3051C50.3026 12.6418 50.6431 12.2968 52.3027 12.1435C50.6418 12.0136 50.2955 11.6735 50.1423 10.0177C50.0132 11.6769 49.6723 12.0215 48.0135 12.1743Z" fill="#155C6D"/>
</g>
<defs>
<clipPath id="clip0_9503_15367">
<rect width="64" height="64" fill="white"/>
</clipPath>
</defs>
</svg>
