<svg width="64" height="64" viewBox="0 0 64 64" fill="none" xmlns="http://www.w3.org/2000/svg">
<path d="M38.4881 22.1593L35.4214 20.3913L38.4881 18.6241L41.5547 20.3913L38.4881 22.1593Z" fill="#70C5AD"/>
<path d="M38.4536 18.4943C38.4874 18.4853 38.5241 18.49 38.5552 18.508L41.6216 20.2746C41.6632 20.2985 41.689 20.3438 41.689 20.3918C41.6888 20.4396 41.663 20.4841 41.6216 20.508L38.5552 22.2755C38.5138 22.2994 38.4628 22.2993 38.4214 22.2755L35.354 20.508C35.3126 20.4841 35.2878 20.4395 35.2876 20.3918C35.2876 20.3438 35.3125 20.2985 35.354 20.2746L38.4214 18.508L38.4536 18.4943ZM35.6909 20.3908L38.4878 22.0041L41.2847 20.3908L38.4878 18.7785L35.6909 20.3908Z" fill="#155C6D"/>
<path d="M35.4214 20.3914L38.4881 22.1594V24.0322L35.4214 22.2651V20.3914Z" fill="#155C6D"/>
<path d="M35.354 20.2751C35.3955 20.2511 35.4472 20.2511 35.4888 20.2751L38.5552 22.0426C38.5966 22.0665 38.6224 22.111 38.6226 22.1588V24.0319C38.6226 24.0798 38.5966 24.1241 38.5552 24.1481C38.5137 24.1721 38.4629 24.172 38.4214 24.1481L35.354 22.3815C35.3126 22.3575 35.2877 22.3131 35.2876 22.2653V20.3913L35.2915 20.3561C35.3006 20.3224 35.323 20.293 35.354 20.2751ZM35.5552 22.1872L38.354 23.7995V22.237L35.5552 20.6227V22.1872Z" fill="#155C6D"/>
<path d="M41.5547 20.3914L38.488 22.1594V24.0322L41.5547 22.2651V20.3914Z" fill="#C8DAE8"/>
<path d="M41.488 20.2751C41.5295 20.2513 41.5804 20.2512 41.6218 20.2751C41.6633 20.2991 41.6892 20.3434 41.6892 20.3913V22.2653C41.6891 22.3132 41.6633 22.3576 41.6218 22.3815L38.5554 24.1481C38.5139 24.1721 38.4622 24.1721 38.4207 24.1481C38.3793 24.1241 38.3542 24.0798 38.3542 24.0319V22.1589C38.3544 22.1111 38.3793 22.0666 38.4207 22.0427L41.488 20.2751ZM38.6218 22.237V23.7995L41.4207 22.1872V20.6228L38.6218 22.237Z" fill="#155C6D"/>
<path d="M32.2656 26.6037L29.199 24.8366L32.2656 23.0686L35.3323 24.8366L32.2656 26.6037Z" fill="#70C5AD"/>
<path d="M32.2312 22.9388C32.265 22.9298 32.3016 22.9345 32.3328 22.9524L35.3992 24.72C35.4406 24.7439 35.4664 24.7884 35.4666 24.8362C35.4665 24.8842 35.4407 24.9294 35.3992 24.9534L32.3328 26.72C32.2914 26.7439 32.2404 26.7438 32.199 26.72L29.1316 24.9534C29.0901 24.9294 29.0652 24.8842 29.0652 24.8362C29.0653 24.7884 29.0902 24.7439 29.1316 24.72L32.199 22.9524L32.2312 22.9388ZM29.4685 24.8362L32.2654 26.4485L35.0623 24.8362L32.2654 23.2229L29.4685 24.8362Z" fill="#155C6D"/>
<path d="M29.199 24.8367L32.2656 26.6038V28.4776L29.199 26.7096V24.8367Z" fill="#155C6D"/>
<path d="M29.1316 24.7204C29.1731 24.6964 29.2248 24.6964 29.2664 24.7204L32.3328 26.487C32.3743 26.5109 32.4001 26.5562 32.4001 26.6041V28.4772C32.4001 28.5251 32.3742 28.5694 32.3328 28.5934C32.2913 28.6174 32.2405 28.6173 32.199 28.5934L29.1316 26.8258C29.0902 26.8019 29.0652 26.7575 29.0652 26.7096V24.8366L29.0691 24.8014C29.0782 24.7677 29.1006 24.7383 29.1316 24.7204ZM29.3328 26.6315L32.1316 28.2448V26.6813L29.3328 25.068V26.6315Z" fill="#155C6D"/>
<path d="M35.3323 24.8367L32.2656 26.6038V28.4776L35.3323 26.7096V24.8367Z" fill="#C8DAE8"/>
<path d="M35.2656 24.7204C35.3071 24.6966 35.358 24.6965 35.3994 24.7204C35.4409 24.7444 35.4668 24.7887 35.4668 24.8366V26.7097C35.4667 26.7576 35.4409 26.8019 35.3994 26.8259L32.333 28.5935C32.2915 28.6174 32.2398 28.6174 32.1982 28.5935C32.1569 28.5694 32.1318 28.5251 32.1318 28.4772V26.6042C32.1318 26.5562 32.1567 26.511 32.1982 26.487L35.2656 24.7204ZM32.3994 26.6813V28.2448L35.1982 26.6315V25.0681L32.3994 26.6813Z" fill="#155C6D"/>
<path d="M36.7454 40.3512L24.4512 33.265L36.7454 26.1797L49.0405 33.265L36.7454 40.3512Z" fill="#70C5AD"/>
<path d="M36.7109 26.0498C36.7447 26.0409 36.7814 26.0456 36.8125 26.0635L49.1074 33.1485C49.1489 33.1724 49.1747 33.2168 49.1748 33.2647C49.1748 33.3126 49.1489 33.3569 49.1074 33.3809L36.8125 40.4678C36.7711 40.4916 36.7201 40.4915 36.6787 40.4678L24.3838 33.3809C24.3425 33.3569 24.3174 33.3125 24.3174 33.2647C24.3175 33.2169 24.3424 33.1724 24.3838 33.1485L36.6787 26.0635L36.7109 26.0498ZM24.7197 33.2647L36.7451 40.1963L48.7715 33.2647L36.7451 26.334L24.7197 33.2647Z" fill="#155C6D"/>
<path d="M36.3075 29.2019C37.8311 29.2019 39.2293 28.8366 40.3289 28.2303L36.7306 26.1521L32.7546 28.4668C33.7715 28.9308 34.9929 29.2019 36.3075 29.2019Z" fill="#C8DAE8"/>
<path d="M36.3074 29.3357C34.9747 29.3357 33.7343 29.0611 32.699 28.5886C32.6534 28.5678 32.6233 28.5235 32.6208 28.4734C32.6184 28.4233 32.6439 28.3756 32.6873 28.3503L36.6628 26.0359C36.7044 26.0117 36.7559 26.0119 36.7976 26.0359L40.3962 28.114C40.4379 28.1382 40.463 28.183 40.4626 28.2312C40.4622 28.2796 40.4357 28.324 40.3933 28.3474C39.2723 28.9654 37.8517 29.3357 36.3074 29.3357ZM36.3074 29.0681C37.7131 29.0681 39.0078 28.7526 40.0515 28.2253L36.7322 26.3083L33.0544 28.448C34.0023 28.839 35.1144 29.0681 36.3074 29.0681Z" fill="#155C6D"/>
<path d="M34.0763 37.6578C34.8007 36.9485 35.2283 36.0863 35.2283 35.1556C35.2283 32.736 32.3581 30.7751 28.8185 30.7751C27.7936 30.7751 26.8292 30.9431 25.9696 31.2356L24.4514 32.1103L34.0763 37.6578Z" fill="#C8DAE8"/>
<path d="M35.094 35.156C35.094 34.0035 34.4102 32.9447 33.2747 32.1687C32.1398 31.3933 30.5647 30.9089 28.8186 30.9089C27.8122 30.9089 26.8657 31.0735 26.0227 31.3591L24.72 32.1101L34.051 37.488C34.7116 36.8127 35.0939 36.0125 35.094 35.156ZM35.3625 35.156C35.3624 36.1302 34.9143 37.025 34.1702 37.7537C34.1272 37.7958 34.0612 37.8042 34.009 37.7742L24.384 32.2263C24.3427 32.2023 24.3176 32.158 24.3176 32.1101C24.3177 32.0623 24.3426 32.0179 24.384 31.9939L25.9026 31.1189L25.926 31.1082C26.7996 30.8109 27.7791 30.6414 28.8186 30.6414C30.6116 30.6414 32.241 31.1374 33.426 31.947C34.6104 32.7564 35.3625 33.8889 35.3625 35.156Z" fill="#155C6D"/>
<path d="M26.0435 29.2703L22.9768 27.5023L26.0435 25.7352L29.1101 27.5023L26.0435 29.2703Z" fill="#70C5AD"/>
<path d="M26.009 25.6054C26.0428 25.5964 26.0795 25.6011 26.1106 25.619L29.177 27.3856C29.2186 27.4096 29.2444 27.4548 29.2444 27.5028C29.2442 27.5506 29.2184 27.5952 29.177 27.619L26.1106 29.3866C26.0692 29.4105 26.0183 29.4104 25.9768 29.3866L22.9094 27.619C22.868 27.5951 22.8432 27.5506 22.843 27.5028C22.843 27.4549 22.8679 27.4096 22.9094 27.3856L25.9768 25.619L26.009 25.6054ZM23.2463 27.5019L26.0432 29.1151L28.8401 27.5019L26.0432 25.8896L23.2463 27.5019Z" fill="#155C6D"/>
<path d="M22.9768 27.5024L26.0435 29.2704V31.1433L22.9768 29.3762V27.5024Z" fill="#155C6D"/>
<path d="M22.9094 27.3863C22.9509 27.3623 23.0027 27.3623 23.0442 27.3863L26.1106 29.1538C26.152 29.1777 26.1778 29.2222 26.178 29.27V31.1431C26.178 31.191 26.152 31.2353 26.1106 31.2593C26.0691 31.2833 26.0183 31.2832 25.9768 31.2593L22.9094 29.4927C22.868 29.4688 22.8431 29.4243 22.843 29.3765V27.5025L22.8469 27.4673C22.8561 27.4336 22.8784 27.4042 22.9094 27.3863ZM23.1106 29.2984L25.9094 30.9107V29.3482L23.1106 27.7339V29.2984Z" fill="#155C6D"/>
<path d="M29.1101 27.5024L26.0435 29.2704V31.1433L29.1101 29.3762V27.5024Z" fill="#C8DAE8"/>
<path d="M29.0435 27.3862C29.0849 27.3624 29.1358 27.3623 29.1772 27.3862C29.2188 27.4102 29.2446 27.4545 29.2446 27.5024V29.3764C29.2445 29.4243 29.2188 29.4687 29.1772 29.4926L26.1108 31.2592C26.0693 31.2832 26.0176 31.2832 25.9761 31.2592C25.9347 31.2352 25.9097 31.1908 25.9097 31.143V29.27C25.9098 29.2222 25.9347 29.1777 25.9761 29.1538L29.0435 27.3862ZM26.1772 29.3481V30.9106L28.9761 29.2983V27.7338L26.1772 29.3481Z" fill="#155C6D"/>
<path d="M35.2727 32.1566L32.2061 30.3886L35.2727 28.6215L38.3394 30.3886L35.2727 32.1566Z" fill="#70C5AD"/>
<path d="M35.2383 28.4916C35.2721 28.4826 35.3087 28.4874 35.3398 28.5053L38.4062 30.2719C38.4478 30.2958 38.4736 30.3411 38.4736 30.3891C38.4735 30.4369 38.4477 30.4814 38.4062 30.5053L35.3398 32.2729C35.2984 32.2967 35.2475 32.2966 35.2061 32.2729L32.1387 30.5053C32.0973 30.4814 32.0724 30.4368 32.0723 30.3891C32.0723 30.3411 32.0971 30.2959 32.1387 30.2719L35.2061 28.5053L35.2383 28.4916ZM32.4756 30.3881L35.2725 32.0014L38.0693 30.3881L35.2725 28.7758L32.4756 30.3881Z" fill="#155C6D"/>
<path d="M32.2061 30.3885L35.2727 32.1566V34.0294L32.2061 32.2623V30.3885Z" fill="#155C6D"/>
<path d="M32.1387 30.2724C32.1802 30.2484 32.2319 30.2484 32.2734 30.2724L35.3398 32.0399C35.3813 32.0638 35.4071 32.1083 35.4072 32.1562V34.0292C35.4072 34.0771 35.3813 34.1214 35.3398 34.1454C35.2984 34.1694 35.2476 34.1693 35.2061 34.1454L32.1387 32.3788C32.0973 32.3549 32.0724 32.3104 32.0723 32.2626V30.3886C32.0723 30.3407 32.0973 30.2964 32.1387 30.2724ZM32.3398 32.1845L35.1387 33.7968V32.2343L32.3398 30.62V32.1845Z" fill="#155C6D"/>
<path d="M38.3394 30.3885L35.2727 32.1566V34.0294L38.3394 32.2623V30.3885Z" fill="#C8DAE8"/>
<path d="M38.2727 30.2724C38.3142 30.2486 38.3651 30.2485 38.4065 30.2724C38.448 30.2964 38.4739 30.3407 38.4739 30.3886V32.2626C38.4738 32.3105 38.448 32.3549 38.4065 32.3789L35.3401 34.1455C35.2986 34.1694 35.2468 34.1694 35.2053 34.1455C35.164 34.1214 35.1389 34.0771 35.1389 34.0292V32.1562C35.1391 32.1084 35.1639 32.0639 35.2053 32.04L38.2727 30.2724ZM35.4065 32.2343V33.7968L38.2053 32.1845V30.6201L35.4065 32.2343Z" fill="#155C6D"/>
<path d="M49.0406 33.2497L36.7455 40.2915V32.8248L8.58545 32.1697V46.5768L23.3686 55.1066L49.0406 40.2915V33.2497Z" fill="#C8DAE8"/>
<path d="M36.7485 32.6902C36.8214 32.6919 36.8794 32.7521 36.8794 32.825V40.0594L48.9741 33.1336C49.0156 33.1098 49.0665 33.1096 49.1079 33.1336C49.1493 33.1576 49.1743 33.2019 49.1743 33.2498V40.2918C49.1742 40.3396 49.1493 40.3841 49.1079 40.408L23.436 55.2224C23.3945 55.2464 23.3428 55.2464 23.3013 55.2224L8.51807 46.6931C8.47667 46.6692 8.4517 46.6248 8.45166 46.5769V32.1697L8.46143 32.118C8.46828 32.1015 8.47873 32.0867 8.4917 32.074C8.51751 32.0488 8.55231 32.0351 8.58838 32.0359L36.7485 32.6902ZM8.71924 46.4988L23.3677 54.951L48.9067 40.2137V33.4803L36.812 40.408C36.7706 40.4317 36.7196 40.4318 36.6782 40.408C36.6369 40.384 36.6109 40.3395 36.6108 40.2918V32.9549L8.71924 32.3064V46.4988Z" fill="#155C6D"/>
<path d="M8.58545 32.169L23.3686 40.7077L36.7455 32.921L22.0539 24.4384L8.58545 32.169Z" fill="#70C5AD"/>
<path d="M22.02 24.3085C22.0536 24.2997 22.0897 24.3044 22.1206 24.3222L36.813 32.8046C36.8543 32.8285 36.8793 32.873 36.8794 32.9208C36.8795 32.9687 36.8543 33.0129 36.813 33.037L23.436 40.8241C23.3945 40.8482 23.3429 40.8481 23.3013 40.8241L8.51807 32.2851C8.47666 32.261 8.4516 32.2167 8.45166 32.1688C8.45173 32.1208 8.47741 32.0765 8.51904 32.0526L21.9868 24.3222L22.02 24.3085ZM8.854 32.1688L23.3677 40.5517L36.4771 32.9208L22.0532 24.5927L8.854 32.1688Z" fill="#155C6D"/>
<path d="M23.3687 55.1069L19.9172 57.1692L2.6665 47.2145L8.5865 43.7283L23.3687 55.1069Z" fill="#155C6D"/>
<path d="M8.55518 43.5974C8.59393 43.5881 8.63579 43.5967 8.66846 43.6218L23.4507 55.0007C23.4858 55.0278 23.505 55.0707 23.5024 55.115C23.4998 55.1592 23.476 55.1996 23.438 55.2224L19.9858 57.2839C19.9441 57.3088 19.8922 57.3101 19.8501 57.2859L2.59912 47.3308C2.55788 47.3069 2.53293 47.2623 2.53271 47.2146C2.53268 47.167 2.55714 47.1225 2.59814 47.0984L8.51807 43.613L8.55518 43.5974ZM2.93213 47.2126L19.9155 57.0124L23.1304 55.0925L8.57568 43.8894L2.93213 47.2126Z" fill="#155C6D"/>
<path d="M8.58545 32.1688L23.3677 40.7066V55.1057L8.58545 46.5759V32.1688Z" fill="#155C6D"/>
<path d="M8.51807 32.0527C8.5596 32.0287 8.6113 32.0287 8.65283 32.0527L23.4351 40.5907C23.4764 40.6148 23.5015 40.6591 23.5015 40.707V55.1054C23.5015 55.1532 23.4764 55.1976 23.4351 55.2216C23.3935 55.2456 23.3418 55.2456 23.3003 55.2216L8.51807 46.6923C8.47667 46.6683 8.4517 46.6239 8.45166 46.5761V32.1689L8.45557 32.1337C8.4647 32.1 8.48705 32.0706 8.51807 32.0527ZM8.71924 46.498L23.2339 54.873V40.7841L8.71924 32.4003V46.498Z" fill="#155C6D"/>
<path d="M24.5146 25.9389C24.5146 25.9389 24.3101 25.7352 24.3733 25.8749C23.1999 26.6678 22.4719 27.7664 22.4719 28.9833C22.4719 31.4029 25.3421 33.3647 28.8817 33.3647C31.0595 33.3647 32.9813 32.6207 34.1395 31.4855L24.5146 25.938V25.9389Z" fill="#C8DAE8"/>
<path d="M24.425 25.7019C24.4379 25.7067 24.4491 25.7128 24.4573 25.7175C24.4738 25.727 24.4893 25.7388 24.5022 25.7487C24.5286 25.7692 24.5563 25.7934 24.5754 25.8112C24.5825 25.8178 24.5888 25.8238 24.594 25.8288L34.2063 31.3689C34.2426 31.3898 34.2674 31.4269 34.2727 31.4685C34.278 31.5101 34.2636 31.5524 34.2336 31.5818C33.0455 32.7462 31.0872 33.4987 28.8821 33.4987C27.0888 33.4987 25.4587 33.0021 24.2737 32.1921C23.0893 31.3825 22.3381 30.2502 22.3381 28.9831C22.3382 27.7331 23.072 26.6182 24.2297 25.8122C24.2325 25.7948 24.2381 25.7733 24.2522 25.7527C24.2824 25.7088 24.3277 25.6939 24.3616 25.6921C24.3904 25.6906 24.4138 25.6977 24.425 25.7019ZM22.6057 28.9831C22.6057 30.1356 23.2895 31.1942 24.425 31.9704C25.56 32.7462 27.1358 33.2302 28.8821 33.2302C30.9514 33.2301 32.7735 32.5473 33.9133 31.5105L24.4543 26.0583C24.4534 26.0579 24.4523 26.0578 24.4514 26.0573L24.4202 26.0339H24.4192L24.4182 26.032C24.417 26.0307 24.4147 26.0293 24.4124 26.0271C24.4096 26.0244 24.4064 26.021 24.4026 26.0173C23.2811 26.7908 22.6058 27.8397 22.6057 28.9831Z" fill="#155C6D"/>
<path d="M39.7918 27.9123L36.7251 26.1443L39.7918 24.3772L42.8584 26.1443L39.7918 27.9123Z" fill="#70C5AD"/>
<path d="M39.7573 24.2473C39.7911 24.2384 39.8278 24.2431 39.8589 24.261L42.9253 26.0276C42.9669 26.0516 42.9927 26.0968 42.9927 26.1448C42.9925 26.1926 42.9667 26.2371 42.9253 26.261L39.8589 28.0286C39.8175 28.0525 39.7665 28.0524 39.7251 28.0286L36.6577 26.261C36.6163 26.2371 36.5915 26.1926 36.5913 26.1448C36.5913 26.0969 36.6162 26.0516 36.6577 26.0276L39.7251 24.261L39.7573 24.2473ZM36.9946 26.1438L39.7915 27.7571L42.5884 26.1438L39.7915 24.5315L36.9946 26.1438Z" fill="#155C6D"/>
<path d="M36.7251 26.1443L39.7918 27.9123V29.7852L36.7251 28.0181V26.1443Z" fill="#155C6D"/>
<path d="M36.6577 26.0281C36.6992 26.0041 36.7509 26.0042 36.7925 26.0281L39.8589 27.7957C39.9003 27.8196 39.9261 27.8641 39.9263 27.9119V29.7849C39.9263 29.8328 39.9003 29.8772 39.8589 29.9012C39.8174 29.9251 39.7666 29.925 39.7251 29.9012L36.6577 28.1345C36.6163 28.1106 36.5914 28.0662 36.5913 28.0183V26.1443L36.5952 26.1092C36.6043 26.0754 36.6267 26.0461 36.6577 26.0281ZM36.8589 27.9402L39.6577 29.5525V27.99L36.8589 26.3758V27.9402Z" fill="#155C6D"/>
<path d="M42.8584 26.1443L39.7917 27.9123V29.7852L42.8584 28.0181V26.1443Z" fill="#C8DAE8"/>
<path d="M42.7917 26.0281C42.8332 26.0044 42.8841 26.0042 42.9255 26.0281C42.967 26.0521 42.9929 26.0964 42.9929 26.1444V28.0184C42.9928 28.0663 42.967 28.1107 42.9255 28.1346L39.8591 29.9012C39.8176 29.9251 39.7659 29.9252 39.7244 29.9012C39.683 29.8772 39.658 29.8328 39.658 29.785V27.9119C39.6581 27.8642 39.683 27.8196 39.7244 27.7957L42.7917 26.0281ZM39.9255 27.9901V29.5526L42.7244 27.9403V26.3758L39.9255 27.9901Z" fill="#155C6D"/>
<path d="M46.813 17.3566L43.7463 15.5886L46.813 13.8215L49.8797 15.5886L46.813 17.3566Z" fill="#70C5AD"/>
<path d="M46.7786 13.6917C46.8124 13.6827 46.849 13.6874 46.8801 13.7054L49.9465 15.472C49.9881 15.4959 50.0139 15.5412 50.0139 15.5891C50.0138 15.6369 49.988 15.6815 49.9465 15.7054L46.8801 17.4729C46.8387 17.4968 46.7878 17.4967 46.7463 17.4729L43.679 15.7054C43.6376 15.6815 43.6127 15.6369 43.6125 15.5891C43.6126 15.5412 43.6374 15.4959 43.679 15.472L46.7463 13.7054L46.7786 13.6917ZM44.0159 15.5882L46.8127 17.2014L49.6096 15.5882L46.8127 13.9759L44.0159 15.5882Z" fill="#155C6D"/>
<path d="M43.7463 15.5886L46.813 17.3566V19.2295L43.7463 17.4624V15.5886Z" fill="#155C6D"/>
<path d="M43.679 15.4724C43.7205 15.4485 43.7722 15.4485 43.8137 15.4724L46.8801 17.24C46.9216 17.2639 46.9474 17.3084 46.9475 17.3562V19.2293C46.9475 19.2772 46.9216 19.3215 46.8801 19.3455C46.8387 19.3694 46.7878 19.3694 46.7463 19.3455L43.679 17.5789C43.6376 17.5549 43.6126 17.5105 43.6125 17.4627V15.5887L43.6165 15.5535C43.6256 15.5198 43.6479 15.4904 43.679 15.4724ZM43.8801 17.3845L46.679 18.9969V17.4344L43.8801 15.8201V17.3845Z" fill="#155C6D"/>
<path d="M49.8797 15.5886L46.813 17.3566V19.2295L49.8797 17.4624V15.5886Z" fill="#C8DAE8"/>
<path d="M49.813 15.4725C49.8545 15.4487 49.9054 15.4486 49.9468 15.4725C49.9883 15.4965 50.0142 15.5408 50.0142 15.5887V17.4627C50.0141 17.5106 49.9883 17.555 49.9468 17.5789L46.8804 19.3455C46.8388 19.3695 46.7871 19.3695 46.7456 19.3455C46.7043 19.3215 46.6792 19.2771 46.6792 19.2293V17.3563C46.6793 17.3085 46.7042 17.264 46.7456 17.2401L49.813 15.4725ZM46.9468 17.4344V18.9969L49.7456 17.3846V15.8201L46.9468 17.4344Z" fill="#155C6D"/>
<path d="M47.3767 28.3805L44.3101 26.6134L47.3767 24.8463L50.4434 26.6134L47.3767 28.3805Z" fill="#70C5AD"/>
<path d="M47.3423 24.7165C47.3761 24.7075 47.4127 24.7122 47.4438 24.7301L50.5103 26.4967C50.5518 26.5207 50.5776 26.5659 50.5776 26.6139C50.5775 26.6617 50.5517 26.7062 50.5103 26.7301L47.4438 28.4967C47.4024 28.5206 47.3515 28.5205 47.3101 28.4967L44.2427 26.7301C44.2013 26.7062 44.1764 26.6617 44.1763 26.6139C44.1763 26.566 44.2011 26.5207 44.2427 26.4967L47.3101 24.7301L47.3423 24.7165ZM44.5796 26.6129L47.3765 28.2252L50.1733 26.6129L47.3765 25.0006L44.5796 26.6129Z" fill="#155C6D"/>
<path d="M44.3101 26.6135L47.3767 28.3806V30.2544L44.3101 28.4873V26.6135Z" fill="#155C6D"/>
<path d="M44.2427 26.4973C44.2842 26.4734 44.3359 26.4734 44.3774 26.4973L47.4438 28.2639C47.4854 28.2879 47.5112 28.3331 47.5112 28.3811V30.2542C47.5112 30.3021 47.4853 30.3464 47.4438 30.3704C47.4024 30.3943 47.3516 30.3943 47.3101 30.3704L44.2427 28.6038C44.2013 28.5798 44.1764 28.5354 44.1763 28.4876V26.6135L44.1802 26.5784C44.1893 26.5447 44.2117 26.5153 44.2427 26.4973ZM44.4438 28.4094L47.2427 30.0218V28.4583L44.4438 26.845V28.4094Z" fill="#155C6D"/>
<path d="M50.4434 26.6135L47.3767 28.3806V30.2544L50.4434 28.4873V26.6135Z" fill="#C8DAE8"/>
<path d="M50.3767 26.4973C50.4182 26.4735 50.4691 26.4733 50.5105 26.4973C50.552 26.5212 50.5779 26.5655 50.5779 26.6135V28.4875C50.5778 28.5354 50.552 28.5798 50.5105 28.6037L47.4441 30.3703C47.4026 30.3942 47.3508 30.3943 47.3093 30.3703C47.268 30.3463 47.2429 30.3019 47.2429 30.2541V28.3811C47.2429 28.3331 47.2678 28.2878 47.3093 28.2639L50.3767 26.4973ZM47.5105 28.4582V30.0217L50.3093 28.4094V26.8449L47.5105 28.4582Z" fill="#155C6D"/>
<path d="M57.6345 10.6453L54.5679 8.87819L57.6345 7.11108L60.7012 8.87819L57.6345 10.6453Z" fill="#70C5AD"/>
<path d="M57.6001 6.98123C57.6339 6.97227 57.6706 6.97698 57.7017 6.9949L60.7681 8.7615C60.8096 8.78546 60.8354 8.8307 60.8354 8.87869C60.8353 8.9265 60.8095 8.97102 60.7681 8.9949L57.7017 10.7615C57.6603 10.7854 57.6093 10.7853 57.5679 10.7615L54.5005 8.9949C54.4591 8.971 54.4342 8.92646 54.4341 8.87869C54.4341 8.83073 54.459 8.78548 54.5005 8.7615L57.5679 6.9949L57.6001 6.98123ZM54.8374 8.87771L57.6343 10.49L60.4312 8.87771L57.6343 7.26541L54.8374 8.87771Z" fill="#155C6D"/>
<path d="M54.5679 8.8783L57.6345 10.6454V12.5192L54.5679 10.7521V8.8783Z" fill="#155C6D"/>
<path d="M54.5005 8.76211C54.542 8.73813 54.5937 8.73818 54.6353 8.76211L57.7017 10.5287C57.7432 10.5527 57.769 10.5979 57.769 10.6459V12.5189C57.769 12.5668 57.7431 12.6112 57.7017 12.6352C57.6602 12.6591 57.6094 12.659 57.5679 12.6352L54.5005 10.8686C54.4591 10.8446 54.4342 10.8002 54.4341 10.7523V8.87832L54.438 8.84316C54.4471 8.80945 54.4695 8.78009 54.5005 8.76211ZM54.7017 10.6742L57.5005 12.2865V10.723L54.7017 9.10977V10.6742Z" fill="#155C6D"/>
<path d="M60.7012 8.8783L57.6345 10.6454V12.5192L60.7012 10.7521V8.8783Z" fill="#C8DAE8"/>
<path d="M60.6345 8.76204C60.676 8.73824 60.7269 8.73811 60.7683 8.76204C60.8098 8.78602 60.8357 8.83031 60.8357 8.87825V10.7523C60.8356 10.8002 60.8098 10.8446 60.7683 10.8685L57.7019 12.6351C57.6604 12.659 57.6086 12.6591 57.5671 12.6351C57.5258 12.6111 57.5007 12.5667 57.5007 12.5189V10.6458C57.5007 10.5979 57.5256 10.5526 57.5671 10.5286L60.6345 8.76204ZM57.7683 10.723V12.2865L60.5671 10.6741V9.10969L57.7683 10.723Z" fill="#155C6D"/>
<path d="M54.4881 18.6037L51.4214 16.8357L54.4881 15.0686L57.5547 16.8357L54.4881 18.6037Z" fill="#70C5AD"/>
<path d="M54.4536 14.9387C54.4874 14.9298 54.5241 14.9345 54.5552 14.9524L57.6216 16.719C57.6632 16.743 57.689 16.7882 57.689 16.8362C57.6888 16.884 57.663 16.9285 57.6216 16.9524L54.5552 18.72C54.5138 18.7439 54.4628 18.7438 54.4214 18.72L51.354 16.9524C51.3126 16.9285 51.2878 16.884 51.2876 16.8362C51.2876 16.7883 51.3125 16.743 51.354 16.719L54.4214 14.9524L54.4536 14.9387ZM51.6909 16.8352L54.4878 18.4485L57.2847 16.8352L54.4878 15.2229L51.6909 16.8352Z" fill="#155C6D"/>
<path d="M51.4214 16.8357L54.4881 18.6037V20.4766L51.4214 18.7095V16.8357Z" fill="#155C6D"/>
<path d="M51.354 16.7195C51.3955 16.6955 51.4472 16.6956 51.4888 16.7195L54.5552 18.4871C54.5966 18.511 54.6224 18.5555 54.6226 18.6033V20.4763C54.6226 20.5242 54.5966 20.5686 54.5552 20.5926C54.5137 20.6165 54.4629 20.6164 54.4214 20.5926L51.354 18.826C51.3126 18.802 51.2877 18.7576 51.2876 18.7097V16.8357L51.2915 16.8006C51.3006 16.7668 51.323 16.7375 51.354 16.7195ZM51.5552 18.6316L54.354 20.2439V18.6814L51.5552 17.0672V18.6316Z" fill="#155C6D"/>
<path d="M57.5547 16.8357L54.488 18.6037V20.4766L57.5547 18.7095V16.8357Z" fill="#C8DAE8"/>
<path d="M57.488 16.7196C57.5295 16.6958 57.5804 16.6956 57.6218 16.7196C57.6633 16.7435 57.6892 16.7878 57.6892 16.8358V18.7098C57.6891 18.7577 57.6633 18.8021 57.6218 18.826L54.5554 20.5926C54.5139 20.6165 54.4622 20.6166 54.4207 20.5926C54.3793 20.5686 54.3542 20.5242 54.3542 20.4764V18.6033C54.3544 18.5556 54.3793 18.511 54.4207 18.4871L57.488 16.7196ZM54.6218 18.6815V20.244L57.4207 18.6317V17.0672L54.6218 18.6815Z" fill="#155C6D"/>
<path d="M13.7732 31.9306C13.7732 31.1172 13.4435 30.3581 12.8781 29.7057L8.58569 32.1697L12.5759 34.4746C13.327 33.7564 13.7732 32.8808 13.7732 31.9315V31.9306Z" fill="#C8DAE8"/>
<path d="M13.6394 31.9303C13.6393 31.1892 13.3501 30.4917 12.8455 29.8786L8.85425 32.1696L12.5544 34.3063C13.2413 33.6213 13.6394 32.8057 13.6394 31.9313V31.9303ZM13.908 31.9313C13.908 32.9254 13.4397 33.8347 12.6687 34.5719C12.6256 34.613 12.5601 34.6203 12.5085 34.5905L8.51831 32.2858C8.4769 32.2618 8.45186 32.2175 8.4519 32.1696C8.45197 32.1216 8.47765 32.0773 8.51929 32.0534L12.8113 29.5895L12.8552 29.5739C12.9005 29.566 12.9477 29.5815 12.9792 29.6178C13.5614 30.2897 13.9079 31.0789 13.908 31.9303V31.9313Z" fill="#155C6D"/>
<path d="M23.7921 37.658C22.2685 37.658 20.8703 38.0233 19.7708 38.6295L23.369 40.7077L27.345 38.3931C26.3281 37.9291 25.1068 37.658 23.7921 37.658Z" fill="#C8DAE8"/>
<path d="M23.7922 37.5242C25.1249 37.5242 26.3653 37.7988 27.4006 38.2712C27.4462 38.2921 27.4763 38.3364 27.4788 38.3865C27.4812 38.4366 27.4557 38.4843 27.4124 38.5095L23.4368 40.824C23.3952 40.8482 23.3437 40.848 23.302 40.824L19.7034 38.7458C19.6617 38.7217 19.6367 38.6768 19.637 38.6287C19.6374 38.5802 19.6639 38.5358 19.7063 38.5125C20.8273 37.8944 22.248 37.5242 23.7922 37.5242ZM23.7922 37.7917C22.3866 37.7917 21.0918 38.1073 20.0481 38.6345L23.3674 40.5515L27.0452 38.4119C26.0973 38.0209 24.9852 37.7918 23.7922 37.7917Z" fill="#155C6D"/>
<path d="M43.8334 32.9377C43.8334 32.1244 44.1632 31.4541 44.7286 30.8016L49.021 33.1768L45.0308 35.4817C44.2797 34.7635 43.8334 33.8879 43.8334 32.9386V32.9377Z" fill="#C8DAE8"/>
<path d="M43.9673 32.9374C43.9674 32.1991 44.2542 31.5823 44.7622 30.9726L48.7485 33.1786L45.0522 35.3134C44.3654 34.6284 43.9673 33.8127 43.9673 32.9384V32.9374ZM43.6987 32.9384C43.6987 33.9325 44.1669 34.8417 44.938 35.579C44.9811 35.6201 45.0465 35.6274 45.0981 35.5976L49.0884 33.2929C49.1301 33.2686 49.1552 33.2239 49.1548 33.1757C49.1543 33.1274 49.1285 33.0829 49.0864 33.0595L44.7935 30.6845L44.7495 30.6688C44.7048 30.6618 44.6585 30.6781 44.6274 30.7138C44.0484 31.3821 43.6988 32.0823 43.6987 32.9374V32.9384Z" fill="#155C6D"/>
<path d="M44.7102 23.048L41.6436 21.2809L44.7102 19.5129L47.7769 21.2809L44.7102 23.048Z" fill="#70C5AD"/>
<path d="M44.6758 19.3831C44.7096 19.3741 44.7462 19.3788 44.7773 19.3968L47.8438 21.1643C47.8852 21.1882 47.911 21.2327 47.9111 21.2805C47.9111 21.3285 47.8853 21.3738 47.8438 21.3977L44.7773 23.1643C44.7359 23.1882 44.685 23.1881 44.6436 23.1643L41.5762 21.3977C41.5346 21.3738 41.5098 21.3285 41.5098 21.2805C41.5099 21.2328 41.5348 21.1882 41.5762 21.1643L44.6436 19.3968L44.6758 19.3831ZM41.9131 21.2805L44.71 22.8929L47.5068 21.2805L44.71 19.6673L41.9131 21.2805Z" fill="#155C6D"/>
<path d="M41.6436 21.2809L44.7102 23.048V24.9218L41.6436 23.1538V21.2809Z" fill="#155C6D"/>
<path d="M41.5762 21.1647C41.6177 21.1407 41.6694 21.1408 41.7109 21.1647L44.7773 22.9313C44.8189 22.9553 44.8447 23.0005 44.8447 23.0485V24.9215C44.8447 24.9694 44.8188 25.0137 44.7773 25.0377C44.7359 25.0617 44.6851 25.0616 44.6436 25.0377L41.5762 23.2702C41.5348 23.2462 41.5098 23.2018 41.5098 23.154V21.2809L41.5137 21.2458C41.5228 21.212 41.5452 21.1827 41.5762 21.1647ZM41.7773 23.0758L44.5762 24.6891V23.1256L41.7773 21.5124V23.0758Z" fill="#155C6D"/>
<path d="M47.7769 21.2809L44.7102 23.048V24.9218L47.7769 23.1538V21.2809Z" fill="#C8DAE8"/>
<path d="M47.7102 21.1647C47.7517 21.1409 47.8026 21.1408 47.844 21.1647C47.8855 21.1887 47.9114 21.233 47.9114 21.281V23.154C47.9113 23.2019 47.8855 23.2463 47.844 23.2702L44.7776 25.0378C44.7361 25.0617 44.6843 25.0618 44.6428 25.0378C44.6015 25.0138 44.5764 24.9694 44.5764 24.9216V23.0485C44.5764 23.0006 44.6013 22.9553 44.6428 22.9313L47.7102 21.1647ZM44.844 23.1257V24.6892L47.6428 23.0759V21.5124L44.844 23.1257Z" fill="#155C6D"/>
<path d="M42.8587 32.5451L39.792 30.7771L42.8587 29.01L45.9253 30.7771L42.8587 32.5451Z" fill="#70C5AD"/>
<path d="M42.8242 28.8802C42.858 28.8712 42.8947 28.8759 42.9258 28.8938L45.9922 30.6604C46.0338 30.6844 46.0596 30.7296 46.0596 30.7776C46.0594 30.8254 46.0336 30.8699 45.9922 30.8938L42.9258 32.6614C42.8844 32.6853 42.8334 32.6852 42.792 32.6614L39.7246 30.8938C39.6832 30.8699 39.6584 30.8254 39.6582 30.7776C39.6582 30.7297 39.6831 30.6844 39.7246 30.6604L42.792 28.8938L42.8242 28.8802ZM40.0615 30.7766L42.8584 32.3899L45.6553 30.7766L42.8584 29.1643L40.0615 30.7766Z" fill="#155C6D"/>
<path d="M39.792 30.7771L42.8587 32.5451V34.418L39.792 32.6509V30.7771Z" fill="#155C6D"/>
<path d="M39.7246 30.6609C39.7661 30.6369 39.8178 30.637 39.8594 30.6609L42.9258 32.4285C42.9672 32.4524 42.993 32.4969 42.9932 32.5447V34.4178C42.9932 34.4657 42.9672 34.51 42.9258 34.534C42.8843 34.5579 42.8335 34.5578 42.792 34.534L39.7246 32.7674C39.6832 32.7434 39.6583 32.699 39.6582 32.6512V30.7771C39.6582 30.7293 39.6832 30.6849 39.7246 30.6609ZM39.9258 32.573L42.7246 34.1853V32.6228L39.9258 31.0086V32.573Z" fill="#155C6D"/>
<path d="M45.9253 30.7771L42.8586 32.5451V34.418L45.9253 32.6509V30.7771Z" fill="#C8DAE8"/>
<path d="M45.8586 30.661C45.9001 30.6372 45.951 30.637 45.9924 30.661C46.0339 30.6849 46.0598 30.7292 46.0598 30.7772V32.6512C46.0597 32.6991 46.0339 32.7435 45.9924 32.7674L42.926 34.534C42.8845 34.5579 42.8328 34.558 42.7913 34.534C42.7499 34.51 42.7249 34.4656 42.7249 34.4178V32.5448C42.725 32.497 42.7499 32.4524 42.7913 32.4285L45.8586 30.661ZM42.9924 32.6229V34.1854L45.7913 32.5731V31.0086L42.9924 32.6229Z" fill="#155C6D"/>
</svg>
