<svg width="64" height="64" viewBox="0 0 64 64" fill="none" xmlns="http://www.w3.org/2000/svg">
<mask id="mask0_15036_562" style="mask-type:alpha" maskUnits="userSpaceOnUse" x="0" y="0" width="64" height="64">
<rect width="64" height="64" fill="#D9D9D9"/>
</mask>
<g mask="url(#mask0_15036_562)">
</g>
<g clip-path="url(#clip0_15036_562)">
<path d="M13.116 48.135C13.1249 49.8252 14.2496 51.5155 16.4902 52.8054L30.3975 60.9631C34.8786 63.5429 42.1179 63.5429 46.5722 60.9631C48.7056 59.7265 49.8125 58.1163 49.8928 56.4972V53.8907L13.116 45.395V48.1261V48.135Z" fill="#C8DAE8" stroke="#155C6D" stroke-width="0.25" stroke-linecap="round" stroke-linejoin="round"/>
<path d="M46.5186 49.1311C50.9997 51.711 51.0265 55.8921 46.5722 58.4719C42.1179 61.0518 34.8786 61.0518 30.3975 58.4719L16.4901 50.3143C12.0091 47.7344 11.9823 43.5533 16.4366 40.9735C20.8909 38.3936 28.1302 38.3936 32.6113 40.9735L46.5186 49.1311Z" fill="#C8DAE8" stroke="#155C6D" stroke-width="0.25" stroke-linecap="round" stroke-linejoin="round"/>
<path d="M41.3947 19.7119C38.2348 21.5445 33.1021 21.5445 29.9154 19.7119L21.8727 15.086C20.2748 14.1608 19.4715 12.9599 19.4804 11.75L19.4536 46.9782C19.4536 48.1881 20.2481 49.3891 21.8459 50.3142L29.8886 54.9402C33.0664 56.7727 38.208 56.7727 41.368 54.9402C42.939 54.0328 43.7245 52.8407 43.7245 51.6486L43.7513 16.4204C43.7513 17.6125 42.9658 18.8045 41.3947 19.7119Z" fill="#70C5AD" stroke="#155C6D" stroke-width="0.25" stroke-linecap="round" stroke-linejoin="round"/>
<path d="M41.3592 13.0843C44.537 14.9169 44.5549 17.8793 41.3949 19.7119C38.2349 21.5445 33.1023 21.5445 29.9155 19.7119L21.8728 15.086C18.695 13.2534 18.6772 10.291 21.8371 8.45842C24.9971 6.62584 30.1298 6.62584 33.3165 8.45842L41.3592 13.0843Z" fill="#C8DAE8" stroke="#155C6D" stroke-width="0.25" stroke-linecap="round" stroke-linejoin="round"/>
<path d="M39.6006 13.7071C42.0196 15.0948 42.0286 17.3544 39.6274 18.7422C37.2262 20.13 33.3164 20.13 30.8973 18.7422L23.3991 14.3387C20.9801 12.9509 20.9712 10.6913 23.3724 9.30353C25.7736 7.91575 29.6833 7.91575 32.1024 9.30353L39.6006 13.7071Z" fill="#C8DAE8" stroke="#155C6D" stroke-width="0.25" stroke-linecap="round" stroke-linejoin="round"/>
<path d="M23.3725 10.0152C25.7737 8.62743 29.6835 8.62743 32.1025 10.0152L39.6007 14.4187C40.654 15.0237 41.2521 15.7976 41.3949 16.5894C41.5735 15.5574 40.9754 14.4988 39.6007 13.7071L32.1025 9.30353C29.6835 7.91575 25.7737 7.91575 23.3725 9.30353C22.0157 10.0864 21.4355 11.145 21.614 12.168C21.7479 11.3852 22.337 10.6112 23.3725 10.0152Z" fill="#155C6D" stroke="#155C6D" stroke-width="0.25" stroke-linecap="round" stroke-linejoin="round"/>
<path d="M21.8817 15.0772C20.2839 14.152 19.4805 12.9511 19.4894 11.7412L19.4626 46.9694C19.4626 48.1793 20.2571 49.3803 21.8549 50.3055L22.9886 50.9638V15.7177L21.8817 15.0772Z" fill="#70C5AD" stroke="#155C6D" stroke-width="0.25" stroke-linecap="round" stroke-linejoin="round"/>
<path d="M21.8817 15.0772C20.2839 14.152 19.4805 12.9511 19.4894 11.7412L19.4626 46.9694C19.4626 48.1793 20.2571 49.3803 21.8549 50.3055L22.9886 50.9638V15.7177L21.8817 15.0772Z" fill="#155C6D" stroke="#155C6D" stroke-width="0.25" stroke-linecap="round" stroke-linejoin="round"/>
<path d="M41.3681 54.9402C42.9392 54.0328 43.7247 52.8407 43.7247 51.6487L43.7515 16.4204C43.7515 17.6125 42.9659 18.8045 41.3949 19.7119C39.0294 21.0819 35.557 21.4289 32.6292 20.7439V55.981C35.557 56.6571 39.0115 56.3102 41.3681 54.9402Z" fill="#70C5AD" stroke="#155C6D" stroke-width="0.25" stroke-linecap="round" stroke-linejoin="round"/>
<path d="M25.2202 13.0132C25.2202 13.5914 25.6041 14.1697 26.3717 14.6056L31.1206 17.39C32.647 18.2707 35.1196 18.2707 36.646 17.39C37.378 16.9719 37.7529 16.4204 37.7797 15.8688V14.9792L25.2291 12.0791V13.0132H25.2202Z" fill="#155C6D" stroke="#155C6D" stroke-width="0.25" stroke-linecap="round" stroke-linejoin="round"/>
<path d="M36.6283 13.3512C38.1547 14.2319 38.1636 15.6553 36.6462 16.536C35.1287 17.4167 32.656 17.4167 31.1207 16.536L26.3718 13.7516C24.8454 12.8708 24.8365 11.4475 26.354 10.5668C27.8715 9.68607 30.3441 9.68607 31.8794 10.5668L36.6283 13.3512Z" fill="#C8DAE8" stroke="#155C6D" stroke-width="0.25" stroke-linecap="round" stroke-linejoin="round"/>
<path d="M42.0731 25.3342C42.7873 24.925 43.7602 24.0265 43.7602 23.2703V21.2153C43.8049 22.443 43.0193 23.6884 41.4037 24.6225C39.5827 25.6811 37.1011 26.117 34.7178 25.9569V26.7487C37.3332 26.9622 40.0736 26.4996 42.0821 25.3342H42.0731Z" fill="#C8DAE8" stroke="#155C6D" stroke-width="0.25" stroke-linecap="round" stroke-linejoin="round"/>
<path d="M19.4805 16.7319V18.5022C19.4805 19.2584 20.4713 19.9701 21.2033 20.3882H21.2211V19.5609C20.0875 18.7335 19.5072 17.7372 19.4805 16.7319Z" fill="#C8DAE8" stroke="#155C6D" stroke-width="0.25" stroke-linecap="round" stroke-linejoin="round"/>
<path d="M29.7993 25.3344C30.0403 25.4768 30.2903 25.6013 30.5491 25.717V24.9519C30.326 24.854 30.1207 24.7384 29.9154 24.6228L25.3718 22.0073V22.7902L29.7993 25.3344Z" fill="#C8DAE8" stroke="#155C6D" stroke-width="0.25" stroke-linecap="round" stroke-linejoin="round"/>
<path d="M29.9244 29.6579L25.3809 27.0425V27.8253L29.8084 30.3696C30.0494 30.5119 30.2993 30.6365 30.5582 30.7521V29.9871C30.335 29.8892 30.1297 29.7736 29.9244 29.6579Z" fill="#C8DAE8" stroke="#155C6D" stroke-width="0.25" stroke-linecap="round" stroke-linejoin="round"/>
<path d="M42.0731 30.3693C42.7873 29.9601 43.7602 29.0616 43.7602 28.3055V26.2505C43.8049 27.4781 43.0193 28.7236 41.4037 29.6577C39.5827 30.7163 37.1011 31.1522 34.7178 30.9921V31.7838C37.3332 31.9973 40.0736 31.5347 42.0821 30.3693H42.0731Z" fill="#C8DAE8" stroke="#155C6D" stroke-width="0.25" stroke-linecap="round" stroke-linejoin="round"/>
<path d="M19.4805 21.7671V23.5374C19.4805 24.2936 20.4713 25.0052 21.2033 25.4234H21.2211V24.596C20.0875 23.7687 19.5072 22.7723 19.4805 21.7671Z" fill="#C8DAE8" stroke="#155C6D" stroke-width="0.25" stroke-linecap="round" stroke-linejoin="round"/>
<path d="M19.4805 26.8022V28.5726C19.4805 29.3287 20.4713 30.0404 21.2033 30.4585H21.2211V29.6312C20.0875 28.8039 19.5072 27.8075 19.4805 26.8022Z" fill="#C8DAE8" stroke="#155C6D" stroke-width="0.25" stroke-linecap="round" stroke-linejoin="round"/>
<path d="M25.3718 32.0776V32.8605L29.7993 35.4047C30.0403 35.5471 30.2903 35.6716 30.5491 35.7873V35.0222C30.326 34.9244 30.1207 34.8087 29.9154 34.6931L25.3718 32.0776Z" fill="#C8DAE8" stroke="#155C6D" stroke-width="0.25" stroke-linecap="round" stroke-linejoin="round"/>
<path d="M42.0731 35.4045C42.7873 34.9953 43.7602 34.0968 43.7602 33.3406V31.2856C43.8049 32.5133 43.0193 33.7587 41.4037 34.6928C39.5827 35.7514 37.1011 36.1874 34.7178 36.0272V36.819C37.3332 37.0325 40.0736 36.5699 42.0821 35.4045H42.0731Z" fill="#C8DAE8" stroke="#155C6D" stroke-width="0.25" stroke-linecap="round" stroke-linejoin="round"/>
<path d="M19.4805 31.8374V33.6077C19.4805 34.3639 20.4713 35.0756 21.2033 35.4937H21.2211V34.6663C20.0875 33.839 19.5072 32.8427 19.4805 31.8374Z" fill="#C8DAE8" stroke="#155C6D" stroke-width="0.25" stroke-linecap="round" stroke-linejoin="round"/>
<path d="M25.3718 37.104V37.8869L29.7993 40.4311C30.0403 40.5735 30.2903 40.698 30.5491 40.8136V40.0486C30.326 39.9507 30.1207 39.8351 29.9154 39.7194L25.3718 37.104Z" fill="#C8DAE8" stroke="#155C6D" stroke-width="0.25" stroke-linecap="round" stroke-linejoin="round"/>
<path d="M42.0731 40.4309C42.7873 40.0217 43.7602 39.1232 43.7602 38.367V36.312C43.8049 37.5397 43.0193 38.7851 41.4037 39.7192C39.5827 40.7778 37.1011 41.2137 34.7178 41.0536V41.8453C37.3332 42.0588 40.0736 41.5962 42.0821 40.4309H42.0731Z" fill="#C8DAE8" stroke="#155C6D" stroke-width="0.25" stroke-linecap="round" stroke-linejoin="round"/>
<path d="M19.4805 36.8726V38.6429C19.4805 39.399 20.4713 40.1107 21.2033 40.5288H21.2211V39.7015C20.0875 38.8742 19.5072 37.8778 19.4805 36.8726Z" fill="#C8DAE8" stroke="#155C6D" stroke-width="0.25" stroke-linecap="round" stroke-linejoin="round"/>
<path d="M42.0731 45.466C42.7873 45.0568 43.7602 44.1583 43.7602 43.4021V41.3472C43.8049 42.5748 43.0193 43.8203 41.4037 44.7543C39.5827 45.813 37.1011 46.2489 34.7178 46.0887V46.8805C37.3332 47.094 40.0736 46.6314 42.0821 45.466H42.0731Z" fill="#C8DAE8" stroke="#155C6D" stroke-width="0.25" stroke-linecap="round" stroke-linejoin="round"/>
<path d="M25.3718 42.1392V42.922L29.7993 45.4663C30.0403 45.6086 30.2903 45.7332 30.5491 45.8488V45.0837C30.326 44.9859 30.1207 44.8702 29.9154 44.7546L25.3718 42.1392Z" fill="#C8DAE8" stroke="#155C6D" stroke-width="0.25" stroke-linecap="round" stroke-linejoin="round"/>
<path d="M29.9244 49.7897L25.3809 47.1743V47.9572L29.8084 50.5014C30.0494 50.6438 30.2993 50.7683 30.5582 50.884V50.1189C30.335 50.021 30.1297 49.9054 29.9244 49.7897Z" fill="#C8DAE8" stroke="#155C6D" stroke-width="0.25" stroke-linecap="round" stroke-linejoin="round"/>
<path d="M42.0731 50.5012C42.7873 50.092 43.7602 49.1935 43.7602 48.4373V46.3823C43.8049 47.61 43.0193 48.8554 41.4037 49.7895C39.5827 50.8481 37.1011 51.284 34.7178 51.1239V51.9156C37.3332 52.1292 40.0736 51.6666 42.0821 50.5012H42.0731Z" fill="#C8DAE8" stroke="#155C6D" stroke-width="0.25" stroke-linecap="round" stroke-linejoin="round"/>
<path d="M19.4805 41.8989V43.6692C19.4805 44.4254 20.4713 45.1371 21.2033 45.5552H21.2211V44.7279C20.0875 43.9005 19.5072 42.9042 19.4805 41.8989Z" fill="#C8DAE8" stroke="#155C6D" stroke-width="0.25" stroke-linecap="round" stroke-linejoin="round"/>
<path d="M29.3888 6.73274L31.3705 5.58515L27.5678 3.39673L25.5862 4.54431L29.3888 6.73274Z" fill="#155C6D" stroke="#155C6D" stroke-width="0.25" stroke-linecap="round" stroke-linejoin="round"/>
<path d="M33.6199 15.8867L35.6016 14.7391L34.4411 9.91748L32.4595 11.0651L33.6199 15.8867Z" fill="#155C6D" stroke="#155C6D" stroke-width="0.25" stroke-linecap="round" stroke-linejoin="round"/>
<path d="M31.7364 8.08481L33.718 6.93723L32.5576 2.10669L30.5759 3.25428L31.7364 8.08481Z" fill="#C8DAE8" stroke="#155C6D" stroke-width="0.25" stroke-linecap="round" stroke-linejoin="round"/>
<path d="M25.5862 4.54432L28.6569 8.87668L27.4697 12.3461L30.5493 11.5544L33.62 15.8867L32.4595 11.0651L35.5481 10.2734L31.7365 8.08493L30.576 3.25439L29.3888 6.73274L25.5862 4.54432Z" fill="#C8DAE8" stroke="#155C6D" stroke-width="0.25" stroke-linecap="round" stroke-linejoin="round"/>
<path d="M35.5482 10.273L37.5298 9.12543L33.7182 6.93701L31.7366 8.0846L35.5482 10.273Z" fill="#C8DAE8" stroke="#155C6D" stroke-width="0.25" stroke-linecap="round" stroke-linejoin="round"/>
</g>
<defs>
<clipPath id="clip0_15036_562">
<rect width="37" height="61" fill="white" transform="translate(13 2)"/>
</clipPath>
</defs>
</svg>
