<svg width="64" height="64" viewBox="0 0 64 64" fill="none" xmlns="http://www.w3.org/2000/svg">
<mask id="mask0_15036_1086" style="mask-type:alpha" maskUnits="userSpaceOnUse" x="0" y="0" width="64" height="64">
<rect width="64" height="64" fill="#D9D9D9"/>
</mask>
<g mask="url(#mask0_15036_1086)">
</g>
<g clip-path="url(#clip0_15036_1086)">
<path d="M39.2671 9.46087L40.2687 10.0417L41.2614 9.4698L40.2687 8.89795L39.2671 9.4698V9.46087Z" fill="#C8DAE8" stroke="#155C6D" stroke-width="0.25" stroke-linecap="round" stroke-linejoin="round"/>
<path d="M39.2671 45.6039L40.2598 46.1758V10.0417L39.2671 9.46094V45.6039Z" fill="#155C6D" stroke="#155C6D" stroke-width="0.25" stroke-linecap="round" stroke-linejoin="round"/>
<path d="M40.2688 46.1756L41.2615 45.5948V9.46973L40.2688 10.0416V46.1756Z" fill="#70C5AD" stroke="#155C6D" stroke-width="0.25" stroke-linecap="round" stroke-linejoin="round"/>
<path d="M44.9727 4.73413V8.79072L47.1637 7.51299V3.46533L44.9727 4.74307V4.73413Z" fill="#C8DAE8" stroke="#155C6D" stroke-width="0.25" stroke-linecap="round" stroke-linejoin="round"/>
<path d="M42.6653 3.38525V7.44184L44.9726 8.79106V4.73447L42.6653 3.38525Z" fill="#155C6D" stroke="#155C6D" stroke-width="0.25" stroke-linecap="round" stroke-linejoin="round"/>
<path d="M42.6653 3.38501L44.9726 4.74317L47.1636 3.46543L44.8474 2.11621L42.6653 3.39395V3.38501Z" fill="#C8DAE8" stroke="#155C6D" stroke-width="0.25" stroke-linecap="round" stroke-linejoin="round"/>
<path d="M40.5012 6.26224L41.3776 6.77155L44.3109 5.12747L43.4345 4.61816L40.5012 6.26224Z" fill="#C8DAE8" stroke="#155C6D" stroke-width="0.25" stroke-linecap="round" stroke-linejoin="round"/>
<path d="M41.2703 6.83392V8.89796L44.3019 7.17346V5.13623L41.2703 6.84286V6.83392Z" fill="#70C5AD" stroke="#155C6D" stroke-width="0.25" stroke-linecap="round" stroke-linejoin="round"/>
<path d="M40.1255 7.56676V10.5779L41.7442 9.6308V6.61963L40.1255 7.56676Z" fill="#70C5AD" stroke="#155C6D" stroke-width="0.25" stroke-linecap="round" stroke-linejoin="round"/>
<path d="M38.4175 6.56592V9.57709L40.1256 10.5778V7.56666L38.4175 6.56592Z" fill="#155C6D" stroke="#155C6D" stroke-width="0.25" stroke-linecap="round" stroke-linejoin="round"/>
<path d="M38.4174 6.557L40.1255 7.55774L41.7441 6.61061L40.0271 5.60986L38.4084 6.557H38.4174Z" fill="#C8DAE8" stroke="#155C6D" stroke-width="0.25" stroke-linecap="round" stroke-linejoin="round"/>
<path d="M29.3404 12.6241C29.1347 12.49 28.8396 12.499 28.5087 12.6866C27.8738 13.0529 27.364 13.9375 27.364 14.6613C27.364 15.0366 27.4982 15.2957 27.7128 15.4118L28.0258 15.5727C27.8201 15.4565 27.686 15.1974 27.686 14.831C27.686 14.1073 28.1957 13.2227 28.8306 12.8564C29.1347 12.6777 29.4119 12.6598 29.6176 12.767L29.3315 12.6151L29.3404 12.6241Z" fill="#155C6D" stroke="#155C6D" stroke-width="0.25" stroke-linecap="round" stroke-linejoin="round"/>
<path d="M29.6265 12.7758C29.4208 12.6686 29.1436 12.6865 28.8395 12.8652C28.2046 13.2315 27.6948 14.1161 27.6948 14.8399C27.6948 15.2062 27.829 15.4653 28.0347 15.5815C28.2403 15.6976 28.5265 15.6798 28.8395 15.5011C29.4745 15.1347 29.9842 14.2501 29.9842 13.5264C29.9842 13.1511 29.8501 12.892 29.6354 12.7758H29.6265Z" fill="#155C6D" stroke="#155C6D" stroke-width="0.25" stroke-linecap="round" stroke-linejoin="round"/>
<path d="M30.36 13.2049L29.1169 14.7775V15.9837L39.7053 9.79162V7.75439L30.36 13.2049Z" fill="#70C5AD" stroke="#155C6D" stroke-width="0.25" stroke-linecap="round" stroke-linejoin="round"/>
<path d="M38.8198 7.24492L30.0469 12.3648C29.6713 12.5792 29.3404 12.8652 29.0721 13.1958L28.6339 13.7408C28.3745 14.0625 28.2314 14.4735 28.2314 14.8845C28.2314 15.233 28.4192 15.5547 28.7144 15.7334L29.1078 15.9657V15.6619C29.1078 15.0811 29.3046 14.5093 29.6713 14.0536L30.0469 13.5711C30.2525 13.3119 30.5029 13.0975 30.7802 12.9367L39.6962 7.73636L38.8198 7.22705V7.24492Z" fill="#C8DAE8" stroke="#155C6D" stroke-width="0.25" stroke-linecap="round" stroke-linejoin="round"/>
<path d="M30.5745 13.312C30.3688 13.178 30.0737 13.1869 29.7428 13.3746C29.1079 13.7409 28.5981 14.6255 28.607 15.3493C28.607 15.7245 28.7412 15.9837 28.9558 16.0998L29.2688 16.2607C29.0631 16.1445 28.929 15.8854 28.929 15.519C28.929 14.7953 29.4387 13.9107 30.0737 13.5444C30.3777 13.3657 30.655 13.3478 30.8607 13.455L30.5745 13.3031V13.312Z" fill="#155C6D" stroke="#155C6D" stroke-width="0.25" stroke-linecap="round" stroke-linejoin="round"/>
<path d="M30.172 14.5721C30.0021 14.6704 29.8679 14.9027 29.8679 15.0903C29.8679 15.1886 29.9037 15.2512 29.9573 15.2869C30.011 15.3227 30.0825 15.3137 30.172 15.269C30.3419 15.1708 30.476 14.9384 30.476 14.7508C30.476 14.6525 30.4403 14.581 30.3866 14.5542C30.333 14.5274 30.2614 14.5274 30.1809 14.581L30.172 14.5721Z" fill="#155C6D" stroke="#155C6D" stroke-width="0.25" stroke-linecap="round" stroke-linejoin="round"/>
<path d="M30.8606 13.455C30.6549 13.3478 30.3777 13.3657 30.0736 13.5444C29.4387 13.9107 28.929 14.7953 28.929 15.5191C28.929 15.8854 29.0631 16.1445 29.2688 16.2607C29.4745 16.3768 29.7606 16.359 30.0736 16.1803C30.7086 15.8139 31.2094 14.9293 31.2094 14.2056C31.2094 13.8303 31.0753 13.5712 30.8606 13.455Z" fill="#C8DAE8" stroke="#155C6D" stroke-width="0.25" stroke-linecap="round" stroke-linejoin="round"/>
<path d="M21.6762 25.0348L32.6938 31.6558L42.692 25.705L31.6475 19.084L21.6672 25.0348H21.6762Z" fill="#C8DAE8"/>
<path d="M32.6938 31.7544C32.6938 31.7544 32.658 31.7544 32.6402 31.7365L21.6225 25.1155C21.6225 25.1155 21.5688 25.0619 21.5688 25.0262C21.5688 24.9904 21.5867 24.9547 21.6225 24.9368L31.6028 18.986C31.6028 18.986 31.6743 18.9681 31.7101 18.986L42.7546 25.607C42.7546 25.607 42.8082 25.6606 42.8082 25.6963C42.8082 25.7321 42.7904 25.7678 42.7546 25.7857L32.7475 31.7365C32.7475 31.7365 32.7117 31.7544 32.6938 31.7544ZM21.8818 25.0351L32.6938 31.531L42.4863 25.7053L31.6475 19.2094L21.8818 25.0351Z" fill="#155C6D"/>
<path d="M24.538 20.9697L32.5598 25.7947L39.8393 21.47L31.7907 16.645L24.5291 20.9697H24.538Z" fill="#C8DAE8"/>
<path d="M32.5507 25.8928C32.5507 25.8928 32.515 25.8928 32.4971 25.8749L24.4753 21.0499C24.4753 21.0499 24.4216 20.9963 24.4216 20.9605C24.4216 20.9248 24.4395 20.889 24.4753 20.8712L31.728 16.5465C31.728 16.5465 31.7995 16.5286 31.8353 16.5465L39.8839 21.3715C39.8839 21.3715 39.9376 21.4251 39.9376 21.4609C39.9376 21.4966 39.9197 21.5324 39.8839 21.5502L32.6044 25.8749C32.6044 25.8749 32.5686 25.8928 32.5507 25.8928ZM24.7436 20.9694L32.5597 25.6694L39.6335 21.4698L31.7995 16.7699L24.7525 20.9694H24.7436Z" fill="#155C6D"/>
<path d="M32.5686 29.7798L39.8481 25.4373V21.4521L32.5686 25.7768V29.7708V29.7798Z" fill="#70C5AD"/>
<path d="M32.5687 29.8777C32.5687 29.8777 32.533 29.8777 32.5151 29.8598C32.4793 29.842 32.4614 29.8062 32.4614 29.7705V25.7764C32.4614 25.7764 32.4793 25.705 32.5151 25.6871L39.7946 21.3624C39.7946 21.3624 39.8662 21.3446 39.9019 21.3624C39.9377 21.3803 39.9556 21.416 39.9556 21.4518V25.4369C39.9556 25.4369 39.9377 25.5084 39.9019 25.5262L32.6224 29.8688C32.6224 29.8688 32.5866 29.8866 32.5687 29.8866V29.8777ZM32.6761 25.839V29.5918L39.7409 25.3833V21.6484L32.6761 25.8479V25.839Z" fill="#155C6D"/>
<path d="M32.5687 25.7764L24.5469 20.9692V24.9543L32.5687 29.7794" fill="#155C6D"/>
<path d="M32.5151 29.8689L24.4934 25.0439C24.4934 25.0439 24.4397 24.9903 24.4397 24.9546V20.9695C24.4397 20.9695 24.4576 20.898 24.4934 20.8801C24.5291 20.8622 24.5649 20.8622 24.6007 20.8801L32.6225 25.6873L32.5151 25.866L24.6543 21.1482V24.8831L32.6225 29.6724L32.5151 29.8511V29.8689Z" fill="#155C6D"/>
<path d="M32.7117 55.1378L42.7277 49.187V25.6963L32.7117 31.6471V55.1378Z" fill="#70C5AD"/>
<path d="M32.7028 55.2452C32.7028 55.2452 32.667 55.2452 32.6491 55.2273C32.6133 55.2094 32.5955 55.1737 32.5955 55.138V31.6473C32.5955 31.6473 32.6133 31.5758 32.6491 31.5579L42.6652 25.6071C42.6652 25.6071 42.7367 25.5892 42.7725 25.6071C42.8083 25.6249 42.8261 25.6607 42.8261 25.6964V49.1871C42.8261 49.1871 42.8083 49.2586 42.7725 49.2765L32.7564 55.2273C32.7564 55.2273 32.7207 55.2452 32.7028 55.2452ZM32.8101 31.7098V54.9503L42.6115 49.1246V25.8841L32.8101 31.7098Z" fill="#155C6D"/>
<path d="M21.3721 61.8929L31.0393 56.1386V37.187L21.3721 42.9413V61.8929Z" fill="#70C5AD"/>
<path d="M21.3722 61.9998C21.3722 61.9998 21.3364 61.9998 21.3186 61.9819C21.2828 61.964 21.2649 61.9283 21.2649 61.8925V42.9409C21.2649 42.9409 21.2828 42.8695 21.3186 42.8516L30.9858 37.0973C30.9858 37.0973 31.0574 37.0794 31.0931 37.0973C31.1289 37.1152 31.1468 37.1509 31.1468 37.1867V56.1383C31.1468 56.1383 31.1289 56.2097 31.0931 56.2276L21.4259 61.9819C21.4259 61.9819 21.3901 61.9998 21.3722 61.9998ZM21.4795 42.9945V61.7049L30.9411 56.0757V37.3654L21.4795 42.9945Z" fill="#155C6D"/>
<path d="M12.1074 37.3656L21.3723 42.9323L31.0395 37.178L21.7479 31.6113L12.1074 37.3656Z" fill="#C8DAE8"/>
<path d="M21.3722 43.0396C21.3722 43.0396 21.3364 43.0396 21.3185 43.0217L12.0537 37.4551C12.0537 37.4551 12 37.4015 12 37.3657C12 37.33 12.0179 37.2943 12.0537 37.2764L21.7031 31.5221C21.7031 31.5221 21.7746 31.5042 21.8104 31.5221L31.102 37.0887C31.102 37.0887 31.1557 37.1424 31.1557 37.1781C31.1557 37.2138 31.1378 37.2496 31.102 37.2674L21.4348 43.0217C21.4348 43.0217 21.399 43.0396 21.3811 43.0396H21.3722ZM12.313 37.3657L21.3722 42.8162L30.8338 37.187L21.7478 31.7365L12.313 37.3657Z" fill="#155C6D"/>
<path d="M21.3723 42.9324L12.1074 37.3657V56.3173L21.3723 61.884" fill="#155C6D"/>
<path d="M21.3185 61.982L12.0537 56.4064C12.0537 56.4064 12 56.3528 12 56.3171V37.3655C12 37.3655 12.0179 37.294 12.0537 37.2761C12.0894 37.2582 12.1252 37.2582 12.161 37.2761L21.4258 42.8427L21.3185 43.0214L12.2146 37.5531V56.2634L21.4258 61.8033L21.3185 61.982Z" fill="#155C6D"/>
<path d="M21.6763 25.0352L32.7118 31.6562V55.1468L31.0484 54.1461V37.1871L21.7568 31.6204L21.6852 31.6651V25.0352H21.6763Z" fill="#155C6D"/>
<path d="M32.7028 55.2447C32.7028 55.2447 32.667 55.2447 32.6491 55.2268L30.9857 54.2261C30.9857 54.2261 30.9321 54.1725 30.9321 54.1367V37.2402L21.7477 31.7362H21.7298C21.7298 31.7362 21.6583 31.7719 21.6225 31.754C21.5867 31.7362 21.5688 31.7004 21.5688 31.6647V25.0437C21.5688 25.0437 21.5867 24.9722 21.6225 24.9543C21.6583 24.9365 21.694 24.9365 21.7298 24.9543L32.7654 31.5753C32.7654 31.5753 32.819 31.6289 32.819 31.6647V55.1554C32.819 55.1554 32.8011 55.2268 32.7654 55.2447C32.7475 55.2537 32.7296 55.2626 32.7117 55.2626L32.7028 55.2447ZM31.1467 54.0831L32.5954 54.9499V31.7093L21.7745 25.2134V31.5038C21.7745 31.5038 21.7924 31.5038 21.8014 31.5128L31.093 37.0794C31.093 37.0794 31.1467 37.133 31.1467 37.1688V54.0653V54.0831Z" fill="#155C6D"/>
<path d="M41.136 48.445L40.3848 48.8918V29.0288L41.136 28.582V48.445Z" fill="#C8DAE8"/>
<path d="M40.3847 48.9903C40.3847 48.9903 40.3489 48.9903 40.331 48.9725C40.2952 48.9546 40.2773 48.9189 40.2773 48.8831V29.0201C40.2773 29.0201 40.2952 28.9486 40.331 28.9308L41.0822 28.484C41.0822 28.484 41.1537 28.4661 41.1895 28.484C41.2253 28.5019 41.2432 28.5376 41.2432 28.5734V48.4364C41.2432 48.4364 41.2253 48.5078 41.1895 48.5257L40.4383 48.9725C40.4383 48.9725 40.4025 48.9903 40.3847 48.9903ZM40.492 29.0916V48.7044L41.0285 48.3827V28.7699L40.492 29.0916Z" fill="#155C6D"/>
<path d="M37.7109 50.3576L38.4711 49.9108V30.0479L37.7109 30.4946V50.3576Z" fill="#C8DAE8"/>
<path d="M37.7108 50.4648C37.7108 50.4648 37.6751 50.4648 37.6572 50.4469C37.6214 50.4291 37.6035 50.3933 37.6035 50.3576V30.5035C37.6035 30.5035 37.6214 30.432 37.6572 30.4142L38.4173 29.9674C38.4173 29.9674 38.4889 29.9495 38.5246 29.9674C38.5604 29.9853 38.5783 30.021 38.5783 30.0568V49.9198C38.5783 49.9198 38.5604 49.9912 38.5246 50.0091L37.7645 50.4559C37.7645 50.4559 37.7287 50.4737 37.7108 50.4737V50.4648ZM37.8181 30.5571V50.1699L38.3637 49.8483V30.2355L37.8181 30.5571Z" fill="#155C6D"/>
<path d="M34.9297 52.0461L35.6898 51.5993V31.7363L34.9297 32.1831V52.0461Z" fill="#C8DAE8"/>
<path d="M34.9296 52.1534C34.9296 52.1534 34.8938 52.1534 34.8759 52.1356C34.8402 52.1177 34.8223 52.0819 34.8223 52.0462V32.1832C34.8223 32.1832 34.8402 32.1117 34.8759 32.0939L35.6361 31.6471C35.6361 31.6471 35.7076 31.6292 35.7434 31.6471C35.7792 31.665 35.797 31.7007 35.797 31.7365V51.5994C35.797 51.5994 35.7792 51.6709 35.7434 51.6888L34.9832 52.1356C34.9832 52.1356 34.9475 52.1534 34.9296 52.1534ZM35.0369 32.2458V51.8586L35.5824 51.5369V31.9241L35.0369 32.2458Z" fill="#155C6D"/>
<path d="M29.8322 43.7007L29.1704 44.0939V40.359L29.8322 39.9658V43.7007Z" fill="#C8DAE8"/>
<path d="M29.1703 44.192C29.1703 44.192 29.1345 44.192 29.1166 44.1741C29.0809 44.1562 29.063 44.1205 29.063 44.0847V40.3498C29.063 40.3498 29.0809 40.2783 29.1166 40.2605L29.7784 39.8673C29.7784 39.8673 29.85 39.8494 29.8857 39.8673C29.9215 39.8852 29.9394 39.9209 29.9394 39.9567V43.6916C29.9394 43.6916 29.9215 43.7631 29.8857 43.7809L29.224 44.1741C29.224 44.1741 29.1882 44.192 29.1703 44.192ZM29.2776 40.4124V43.8971L29.7248 43.629V40.1443L29.2776 40.4124Z" fill="#155C6D"/>
<path d="M27.042 45.3717L27.7038 44.9786V41.2437L27.042 41.6368V45.3717Z" fill="#C8DAE8"/>
<path d="M27.0419 45.4786C27.0419 45.4786 27.0061 45.4786 26.9882 45.4607C26.9525 45.4428 26.9346 45.4071 26.9346 45.3714V41.6364C26.9346 41.6364 26.9525 41.565 26.9882 41.5471L27.65 41.1539C27.65 41.1539 27.7215 41.1361 27.7573 41.1539C27.7931 41.1718 27.811 41.2075 27.811 41.2433V44.9782C27.811 44.9782 27.7931 45.0497 27.7573 45.0676L27.0955 45.4607C27.0955 45.4607 27.0598 45.4786 27.0419 45.4786ZM27.1492 41.699V45.1837L27.5963 44.9157V41.4309L27.1492 41.699Z" fill="#155C6D"/>
<path d="M25.5665 46.2831L24.8958 46.6762V42.9234L25.5665 42.5303V46.2741V46.2831Z" fill="#C8DAE8"/>
<path d="M24.8866 46.7743C24.8866 46.7743 24.8508 46.7743 24.833 46.7564C24.7972 46.7385 24.7793 46.7028 24.7793 46.6671V42.9143C24.7793 42.9143 24.7972 42.8428 24.833 42.8249L25.5037 42.4318C25.5037 42.4318 25.5752 42.4139 25.611 42.4318C25.6468 42.4496 25.6646 42.4854 25.6646 42.5211V46.265C25.6646 46.265 25.6468 46.3365 25.611 46.3543L24.9403 46.7475C24.9403 46.7475 24.9045 46.7654 24.8866 46.7654V46.7743ZM24.9939 42.9858V46.4884L25.45 46.2203V42.7177L24.9939 42.9858Z" fill="#155C6D"/>
<path d="M23.429 47.5518L22.7583 47.945V44.21L23.429 43.8169V47.5518Z" fill="#C8DAE8"/>
<path d="M22.7582 48.0523C22.7582 48.0523 22.7224 48.0523 22.7045 48.0344C22.6688 48.0166 22.6509 47.9808 22.6509 47.9451V44.2102C22.6509 44.2102 22.6688 44.1387 22.7045 44.1208L23.3753 43.7277C23.3753 43.7277 23.4468 43.7098 23.4826 43.7277C23.5183 43.7455 23.5362 43.7813 23.5362 43.817V47.5519C23.5362 47.5519 23.5183 47.6234 23.4826 47.6413L22.8119 48.0344C22.8119 48.0344 22.7761 48.0523 22.7582 48.0523ZM22.8655 44.2727V47.7664L23.3216 47.4983V44.0047L22.8655 44.2727Z" fill="#155C6D"/>
<path d="M23.429 53.2256L22.7583 53.6188V49.8839L23.429 49.4907V53.2256Z" fill="#C8DAE8"/>
<path d="M22.7582 53.7261C22.7582 53.7261 22.7224 53.7261 22.7045 53.7083C22.6688 53.6904 22.6509 53.6547 22.6509 53.6189V49.884C22.6509 49.884 22.6688 49.8125 22.7045 49.7946L23.3753 49.4015C23.3753 49.4015 23.4468 49.3836 23.4826 49.4015C23.5183 49.4194 23.5362 49.4551 23.5362 49.4909V53.2258C23.5362 53.2258 23.5183 53.2973 23.4826 53.3151L22.8119 53.7083C22.8119 53.7083 22.7761 53.7261 22.7582 53.7261ZM22.8655 49.9465V53.4402L23.3216 53.1722V49.6785L22.8655 49.9465Z" fill="#155C6D"/>
<path d="M22.7583 59.3105L23.429 58.9173V55.1646L22.7583 55.5577V59.3105Z" fill="#C8DAE8"/>
<path d="M22.7582 59.4178C22.7582 59.4178 22.7224 59.4178 22.7045 59.4C22.6688 59.3821 22.6509 59.3464 22.6509 59.3106V55.5578C22.6509 55.5578 22.6688 55.4863 22.7045 55.4685L23.3753 55.0753C23.3753 55.0753 23.4468 55.0575 23.4826 55.0753C23.5183 55.0932 23.5362 55.1289 23.5362 55.1647V58.9175C23.5362 58.9175 23.5183 58.9889 23.4826 59.0068L22.8119 59.4C22.8119 59.4 22.7761 59.4178 22.7582 59.4178ZM22.8655 55.6204V59.123L23.3216 58.8549V55.3523L22.8655 55.6204Z" fill="#155C6D"/>
<path d="M24.8867 52.359L25.5574 51.9659V48.231L24.8867 48.6241V52.359Z" fill="#C8DAE8"/>
<path d="M24.8866 52.4659C24.8866 52.4659 24.8508 52.4659 24.833 52.448C24.7972 52.4301 24.7793 52.3944 24.7793 52.3587V48.6237C24.7793 48.6237 24.7972 48.5523 24.833 48.5344L25.5037 48.1412C25.5037 48.1412 25.5752 48.1234 25.611 48.1412C25.6468 48.1591 25.6646 48.1949 25.6646 48.2306V51.9655C25.6646 51.9655 25.6468 52.037 25.611 52.0549L24.9403 52.448C24.9403 52.448 24.9045 52.4659 24.8866 52.4659ZM24.9939 48.6863V52.18L25.45 51.9119V48.4182L24.9939 48.6863Z" fill="#155C6D"/>
<path d="M25.5665 57.6662L24.8958 58.0504V54.3155L25.5665 53.9224V57.6752V57.6662Z" fill="#C8DAE8"/>
<path d="M24.8866 58.1578C24.8866 58.1578 24.8508 58.1578 24.833 58.1399C24.7972 58.122 24.7793 58.0863 24.7793 58.0506V54.3156C24.7793 54.3156 24.7972 54.2442 24.833 54.2263L25.5037 53.8331C25.5037 53.8331 25.5752 53.8153 25.611 53.8331C25.6468 53.851 25.6646 53.8868 25.6646 53.9225V57.6753C25.6646 57.6753 25.6468 57.7468 25.611 57.7646L24.9403 58.1488C24.9403 58.1488 24.9045 58.1667 24.8866 58.1667V58.1578ZM24.9939 54.3782V57.8719L25.45 57.6127V54.1101L24.9939 54.3782Z" fill="#155C6D"/>
<path d="M27.7038 50.688L27.042 51.0812V47.3463L27.7038 46.9531V50.688Z" fill="#C8DAE8"/>
<path d="M27.0419 51.1793C27.0419 51.1793 27.0061 51.1793 26.9882 51.1614C26.9525 51.1435 26.9346 51.1078 26.9346 51.072V47.3371C26.9346 47.3371 26.9525 47.2656 26.9882 47.2478L27.65 46.8546C27.65 46.8546 27.7215 46.8368 27.7573 46.8546C27.7931 46.8725 27.811 46.9082 27.811 46.944V50.6789C27.811 50.6789 27.7931 50.7504 27.7573 50.7682L27.0955 51.1614C27.0955 51.1614 27.0598 51.1793 27.0419 51.1793ZM27.1492 47.3997V50.8844L27.5963 50.6163V47.1316L27.1492 47.3997Z" fill="#155C6D"/>
<path d="M27.042 56.7819L27.7038 56.3887V52.6538L27.042 53.047V56.7819Z" fill="#C8DAE8"/>
<path d="M27.0419 56.8799C27.0419 56.8799 27.0061 56.88 26.9882 56.8621C26.9525 56.8442 26.9346 56.8085 26.9346 56.7727V53.0378C26.9346 53.0378 26.9525 52.9663 26.9882 52.9485L27.65 52.5553C27.65 52.5553 27.7215 52.5374 27.7573 52.5553C27.7931 52.5732 27.811 52.6089 27.811 52.6447V56.3796C27.811 56.3796 27.7931 56.4511 27.7573 56.4689L27.0955 56.8621C27.0955 56.8621 27.0598 56.8799 27.0419 56.8799ZM27.1492 53.1004V56.5851L27.5963 56.317V52.8323L27.1492 53.1004Z" fill="#155C6D"/>
<path d="M29.1704 49.8212L29.8322 49.4281V45.6753L29.1704 46.0684V49.8212Z" fill="#C8DAE8"/>
<path d="M29.1703 49.9198C29.1703 49.9198 29.1345 49.9198 29.1166 49.9019C29.0809 49.8841 29.063 49.8483 29.063 49.8126V46.0598C29.063 46.0598 29.0809 45.9883 29.1166 45.9704L29.7784 45.5773C29.7784 45.5773 29.85 45.5594 29.8857 45.5773C29.9215 45.5951 29.9394 45.6309 29.9394 45.6666V49.4194C29.9394 49.4194 29.9215 49.4909 29.8857 49.5088L29.224 49.9019C29.224 49.9019 29.1882 49.9198 29.1703 49.9198ZM29.2776 46.1313V49.6339L29.7248 49.3658V45.8632L29.2776 46.1313Z" fill="#155C6D"/>
<path d="M29.8322 55.1378L29.1704 55.5309V51.796L29.8322 51.4028V55.1378Z" fill="#C8DAE8"/>
<path d="M29.1703 55.6383C29.1703 55.6383 29.1345 55.6383 29.1166 55.6204C29.0809 55.6025 29.063 55.5668 29.063 55.531V51.7961C29.063 51.7961 29.0809 51.7246 29.1166 51.7068L29.7784 51.3136C29.7784 51.3136 29.85 51.2957 29.8857 51.3136C29.9215 51.3315 29.9394 51.3672 29.9394 51.403V55.1379C29.9394 55.1379 29.9215 55.2094 29.8857 55.2272L29.224 55.6204C29.224 55.6204 29.1882 55.6383 29.1703 55.6383ZM29.2776 51.8587V55.3434L29.7248 55.0753V51.5906L29.2776 51.8587Z" fill="#155C6D"/>
<path d="M40.0271 48.785L42.5132 50.2325L47.566 47.3196L45.0798 45.8721L40.0271 48.785Z" fill="#C8DAE8" stroke="#155C6D" stroke-width="0.25" stroke-linecap="round" stroke-linejoin="round"/>
<path d="M40.0271 48.7852L40.045 50.9653L42.5401 52.4129L42.5132 50.2327L40.0271 48.7852Z" fill="#155C6D" stroke="#155C6D" stroke-width="0.25" stroke-linecap="round" stroke-linejoin="round"/>
<path d="M42.5132 50.2322L42.54 52.4124L47.5928 49.4995L47.5659 47.3193L42.5132 50.2322Z" fill="#70C5AD" stroke="#155C6D" stroke-width="0.25" stroke-linecap="round" stroke-linejoin="round"/>
<path d="M43.3181 49.7587L45.8132 51.2062L50.8659 48.2844L48.3709 46.8369L43.3181 49.7587Z" fill="#C8DAE8" stroke="#155C6D" stroke-width="0.25" stroke-linecap="round" stroke-linejoin="round"/>
<path d="M43.3181 49.7588L43.3449 51.939L45.84 53.3865L45.8132 51.2063L43.3181 49.7588Z" fill="#155C6D" stroke="#155C6D" stroke-width="0.25" stroke-linecap="round" stroke-linejoin="round"/>
<path d="M45.8132 51.206L45.8401 53.3862L50.8928 50.4733L50.866 48.2842L45.8132 51.206Z" fill="#70C5AD" stroke="#155C6D" stroke-width="0.25" stroke-linecap="round" stroke-linejoin="round"/>
<path d="M42.6831 46.2563L45.1782 47.7038L50.2309 44.7909L47.7358 43.3345L42.6831 46.2563Z" fill="#C8DAE8" stroke="#155C6D" stroke-width="0.25" stroke-linecap="round" stroke-linejoin="round"/>
<path d="M42.6831 46.2563L42.701 48.4365L45.1961 49.884L45.1782 47.7039L42.6831 46.2563Z" fill="#155C6D" stroke="#155C6D" stroke-width="0.25" stroke-linecap="round" stroke-linejoin="round"/>
<path d="M45.1782 47.7039L45.1961 49.8841L50.2489 46.9712L50.231 44.791L45.1782 47.7039Z" fill="#70C5AD" stroke="#155C6D" stroke-width="0.25" stroke-linecap="round" stroke-linejoin="round"/>
<path d="M42.2629 54.1639L39.7678 55.6114L34.7151 52.6985L37.2102 51.251L42.2629 54.1639Z" fill="#C8DAE8" stroke="#155C6D" stroke-width="0.25" stroke-linecap="round" stroke-linejoin="round"/>
<path d="M42.2629 54.1641L42.236 56.3532L39.741 57.8007L39.7678 55.6116L42.2629 54.1641Z" fill="#70C5AD" stroke="#155C6D" stroke-width="0.25" stroke-linecap="round" stroke-linejoin="round"/>
<path d="M39.7678 55.6111L39.741 57.8003L34.6882 54.8874L34.7151 52.6982L39.7678 55.6111Z" fill="#155C6D" stroke="#155C6D" stroke-width="0.25" stroke-linecap="round" stroke-linejoin="round"/>
</g>
<defs>
<clipPath id="clip0_15036_1086">
<rect width="39" height="60" fill="white" transform="translate(12 2)"/>
</clipPath>
</defs>
</svg>
