<svg width="64" height="64" viewBox="0 0 64 64" fill="none" xmlns="http://www.w3.org/2000/svg">
<path d="M54.4256 49.4816C58.7357 52.158 58.5843 56.4102 54.0961 58.9893C49.608 61.5684 42.5197 61.4986 38.1829 58.8222C33.8462 56.1459 34.0151 51.8936 38.5033 49.3145C42.9914 46.7355 50.1155 46.8052 54.4256 49.4816Z" fill="#155C6D"/>
<path d="M46.2808 61.0021C43.3061 61.0021 40.3342 60.3119 38.1112 58.9388C36.0085 57.641 34.8668 55.9265 34.8943 54.1093C34.9237 52.2351 36.1811 50.4903 38.4343 49.1953C42.9592 46.596 50.1632 46.6731 54.498 49.3651C56.5934 50.6665 57.7306 52.3847 57.6994 54.2029C57.6673 56.0752 56.4117 57.8173 54.1639 59.1086C51.9639 60.3734 49.1205 61.0021 46.2808 61.0021ZM46.3358 47.5661C43.5438 47.5661 40.7436 48.1866 38.5729 49.4339C36.4069 50.6785 35.1972 52.3406 35.1706 54.1148C35.1439 55.8302 36.2389 57.4612 38.2563 58.7057C42.525 61.3408 49.5996 61.4151 54.0272 58.8709C56.1877 57.6291 57.3947 55.9706 57.4249 54.1992C57.4543 52.4811 56.3639 50.8482 54.353 49.6C52.1759 48.2471 49.2591 47.567 46.3358 47.567V47.5661Z" fill="#155C6D"/>
<path d="M36.6572 43.3111C43.2169 47.3853 42.9874 53.8569 36.1561 57.7824C29.3247 61.7079 18.5358 61.6023 11.9348 57.5281C5.33383 53.4539 5.59174 46.9824 12.4231 43.0569C19.2544 39.1313 30.0976 39.2369 36.6572 43.3111Z" fill="#155C6D"/>
<path d="M24.2604 60.7754C19.7456 60.7754 15.2373 59.7281 11.8625 57.6447C8.68499 55.6833 6.95765 53.0951 7.00079 50.3563C7.04484 47.5303 8.94565 44.8952 12.3535 42.9366C19.2179 38.9927 30.151 39.1093 36.7299 43.1936C39.8973 45.1605 41.6155 47.7533 41.5687 50.4949C41.52 53.319 39.6229 55.9486 36.2251 57.9008C32.8852 59.8199 28.5696 60.7754 24.2604 60.7754ZM24.343 40.3245C20.0788 40.3245 15.8054 41.2717 12.4921 43.1752C9.17143 45.0834 7.31927 47.6349 7.27614 50.3609C7.23483 52.9987 8.91536 55.5025 12.0075 57.4106C18.5259 61.4335 29.3286 61.5464 36.0865 57.6631C39.3971 55.7604 41.2465 53.2135 41.2933 50.4912C41.3383 47.8506 39.666 45.3422 36.584 43.4286C33.2587 41.3635 28.8064 40.3245 24.343 40.3245Z" fill="#155C6D"/>
<path d="M20.3384 12.6155V7.89241C20.3384 9.15258 21.1268 10.4017 22.7045 11.4123C25.9564 13.4214 31.3357 13.4783 34.7197 11.5371C36.4627 10.5266 37.3392 9.18654 37.3337 7.84744V12.5696C37.3337 13.9207 36.4627 15.2487 34.7197 16.2593C31.3118 18.2124 25.9573 18.1435 22.7045 16.1344C21.1268 15.1469 20.343 13.8757 20.3384 12.6155Z" fill="#C8DAE8"/>
<path d="M28.8117 17.8123C26.5594 17.8123 24.3126 17.291 22.6321 16.252C21.0699 15.2736 20.2062 13.9822 20.2017 12.6165V7.89342H20.4779C20.4779 9.13707 21.2957 10.3458 22.7798 11.2967C25.9885 13.2792 31.3146 13.3333 34.6527 11.4188C36.2901 10.4688 37.1933 9.20958 37.1969 7.86864V7.84845H37.4732V12.5716C37.4732 14.0245 36.5196 15.3782 34.7895 16.3805C33.12 17.3369 30.964 17.8132 28.8127 17.8132L28.8117 17.8123ZM20.477 12.6156C20.4816 13.8831 21.2985 15.0919 22.778 16.0189C25.9839 17.9995 31.311 18.0546 34.6518 16.141C36.2929 15.1901 37.196 13.9226 37.196 12.5706V9.18205C36.7977 10.1164 35.9772 10.9681 34.7886 11.6565C31.3706 13.617 25.9188 13.5601 22.6321 11.5289C21.5802 10.8552 20.8469 10.0531 20.477 9.19305V12.6156Z" fill="#155C6D"/>
<path d="M20.2926 53.9854C20.1072 53.8605 19.8493 53.7128 19.674 53.5769C19.3059 53.3044 18.9535 53.0097 18.6175 52.7032C18.3899 52.4875 18.1733 52.2608 17.9696 52.0222C17.7456 51.7496 17.4831 51.3521 17.2784 51.0575C17.1206 50.8079 16.9838 50.5353 16.8691 50.2517C16.7507 49.9681 16.6479 49.6725 16.5625 49.3779C16.5148 49.2191 16.479 49.0484 16.4552 48.8786C16.4166 48.595 16.3872 48.2316 16.3726 47.9479C16.3726 49.8212 17.5409 51.6835 19.8731 53.1245C24.6779 56.1101 32.6327 56.201 37.6375 53.3172C40.2175 51.8074 41.5319 49.8543 41.5025 47.8681C41.5117 48.0388 41.5117 48.2086 41.5025 48.3674C41.4584 48.685 41.3859 49.1053 41.3125 49.4119C41.2583 49.6165 41.1913 49.8093 41.1124 50.014C41.0491 50.1727 40.9564 50.3655 40.8885 50.5133C40.7535 50.8088 40.5902 51.0924 40.402 51.3531C40.2368 51.5798 40.0028 51.8863 39.8174 52.102C39.632 52.3287 39.5108 52.4425 39.3741 52.5793C38.9702 52.9657 38.5333 53.3282 38.0689 53.6467C37.8257 53.8055 37.4944 54.0212 37.241 54.146C36.9877 54.2818 36.7537 54.4186 36.5307 54.5324C36.3067 54.6343 35.9267 54.816 35.6642 54.9188C35.4017 55.0326 35.119 55.1345 34.8804 55.2253C34.3169 55.4181 33.7432 55.5888 33.1623 55.7246C31.9985 55.9972 30.8145 56.145 29.6231 56.19C28.742 56.2129 28.0656 56.19 27.8416 56.19C27.1946 56.156 26.8678 56.1101 26.0794 56.0082C25.5012 55.9174 24.9276 55.8036 24.3613 55.6567C24.1125 55.5998 23.7821 55.509 23.5389 55.43C23.2957 55.3502 22.9542 55.2373 22.7064 55.1464C22.4577 55.0666 22.1713 54.9417 21.9419 54.8399C21.7134 54.738 21.382 54.5673 21.1434 54.4535C20.9048 54.3396 20.5303 54.1359 20.2917 53.9881L20.2926 53.9854Z" fill="#155C6D"/>
<path d="M28.82 56.3359C28.5135 56.3359 28.2602 56.3322 28.0757 56.3286C27.9747 56.3267 27.8958 56.3258 27.8425 56.3258C27.2184 56.2937 26.8981 56.2515 26.1932 56.1606L26.062 56.1432C25.4305 56.044 24.8633 55.9275 24.3255 55.788C24.0749 55.7311 23.738 55.6375 23.4948 55.5585C23.2507 55.4787 22.9083 55.3649 22.6587 55.2731C22.41 55.1932 22.1135 55.0647 21.885 54.9629C21.7418 54.8986 21.5582 54.8077 21.3811 54.7205C21.2755 54.6682 21.1727 54.6178 21.0837 54.5746C20.8387 54.459 20.4587 54.2506 20.2191 54.1019L20.2145 54.0992C20.1494 54.0551 20.0741 54.0074 19.9961 53.9588C19.8538 53.8688 19.707 53.7761 19.5895 53.6852C19.2435 53.4301 18.8846 53.1318 18.5239 52.8041C18.2917 52.5839 18.0705 52.3507 17.8649 52.1103C17.6795 51.8845 17.473 51.5834 17.2913 51.3173L17.1655 51.1346C17.0022 50.8785 16.8608 50.5995 16.7406 50.3012C16.6249 50.0231 16.5203 49.7249 16.4304 49.4146C16.3808 49.2513 16.3441 49.0769 16.3193 48.8951C16.3101 48.8318 16.3009 48.7621 16.2936 48.6868C16.2551 48.4417 16.2349 48.1939 16.2349 47.9452L16.5102 47.9378C16.524 48.1838 16.5442 48.4353 16.5671 48.6464C16.8305 50.2783 18.0072 51.8046 19.9474 53.0051C24.7091 55.9642 32.6143 56.0505 37.5696 53.196C40.0468 51.7459 41.3951 49.8534 41.3657 47.8681L41.6411 47.8589C41.6512 48.0351 41.6512 48.2086 41.6411 48.3729C41.5924 48.7364 41.5172 49.1512 41.4483 49.4422C41.396 49.6377 41.3318 49.8332 41.2427 50.0617C41.1895 50.1948 41.1179 50.348 41.0555 50.4821L41.0151 50.5692C40.8728 50.8804 40.704 51.1713 40.5149 51.432C40.3552 51.6514 40.1156 51.9662 39.9238 52.1901C39.7623 52.3884 39.6439 52.5058 39.5292 52.6187L39.4732 52.6747C39.039 53.0887 38.5948 53.4521 38.1487 53.7578C37.8697 53.9404 37.5549 54.1442 37.3044 54.2672C37.2144 54.3158 37.1226 54.3663 37.0336 54.4168C36.8812 54.5003 36.7362 54.581 36.594 54.6526L36.4214 54.7325C36.2002 54.8353 35.924 54.9619 35.7156 55.0436C35.5063 55.1345 35.2806 55.2189 35.075 55.296L34.9318 55.3502C34.3205 55.5604 33.7533 55.7246 33.1944 55.855C32.0654 56.1193 30.8658 56.2763 29.6295 56.324C29.3331 56.3313 29.0605 56.3341 28.8191 56.3341L28.82 56.3359ZM27.8591 56.0496C27.9077 56.0496 27.9839 56.0505 28.0803 56.0523C28.4052 56.0569 28.9531 56.0661 29.6213 56.0496C30.8383 56.0037 32.0195 55.8476 33.1319 55.5879C33.6817 55.4594 34.2397 55.2969 34.8372 55.0913L34.9777 55.0381C35.1796 54.9619 35.4017 54.8793 35.6101 54.7885C35.8156 54.7086 36.0873 54.5829 36.3048 54.4819L36.4746 54.4039C36.6086 54.336 36.7509 54.257 36.8996 54.1754C36.9895 54.1249 37.0822 54.0735 37.1777 54.0221C37.4374 53.8927 37.7862 53.6651 37.9955 53.5283C38.4278 53.2328 38.8601 52.8785 39.2804 52.4765L39.3355 52.4223C39.4493 52.3085 39.5576 52.2021 39.7118 52.0121C39.8027 51.9056 39.9036 51.7799 40.0018 51.6532C39.3942 52.2957 38.626 52.8941 37.7073 53.4319C32.673 56.3332 24.6393 56.2441 19.8006 53.2373C19.0875 52.7968 18.4743 52.3113 17.9659 51.7927C18.0035 51.8414 18.0402 51.8882 18.076 51.9313C18.2733 52.1617 18.4872 52.3884 18.7111 52.6004C19.0627 52.9207 19.4142 53.2126 19.7547 53.4641C19.8639 53.5485 20.0053 53.6375 20.1429 53.7238C20.2219 53.7734 20.299 53.822 20.366 53.8679C20.5991 54.012 20.9653 54.2121 21.2021 54.325C21.293 54.3681 21.3967 54.4195 21.5032 54.4718C21.6757 54.5572 21.8565 54.6462 21.9979 54.7095C22.22 54.8087 22.5063 54.9326 22.7477 55.0106C22.9992 55.1024 23.3388 55.2152 23.5802 55.2942C23.817 55.3713 24.1419 55.4612 24.3906 55.5181C24.9239 55.6558 25.481 55.7705 26.1005 55.8678L26.2281 55.8843C26.9247 55.9752 27.2423 56.0165 27.849 56.0477H27.8581L27.8591 56.0496Z" fill="#155C6D"/>
<path d="M16.3733 47.9232V40.7256C16.3733 42.5879 17.5417 44.4492 19.8739 45.9021C24.6787 48.8878 32.6334 48.9677 37.6383 46.0839C40.2137 44.608 41.5326 42.6209 41.5032 40.6458V47.8543C41.5032 49.8295 40.2183 51.8166 37.6383 53.2924C32.6334 56.1762 24.6787 56.0964 19.8739 53.1107C17.5417 51.6578 16.3834 49.7955 16.3733 47.9223V47.9232Z" fill="#70C5AD"/>
<path d="M28.8971 55.5365C25.581 55.5365 22.2732 54.7646 19.8015 53.2282C17.5125 51.8019 16.2459 49.9185 16.2349 47.9241V40.7256H16.5111C16.5111 42.6081 17.7309 44.4051 19.9465 45.7855C24.7036 48.7428 32.6088 48.8235 37.5687 45.9655C39.9587 44.5951 41.3354 42.7099 41.3648 40.7743V40.6467L41.6411 40.6448V47.8562C41.6411 49.9571 40.2074 51.9827 37.7064 53.4136C35.2438 54.8316 32.0664 55.5365 28.8971 55.5365ZM16.5111 47.9222C16.5212 49.8185 17.7419 51.6192 19.9465 52.9932C24.7036 55.9504 32.6088 56.0312 37.5687 53.1731C39.9816 51.7927 41.3648 49.8543 41.3648 47.8543V42.2721C40.838 43.7563 39.5686 45.1348 37.7064 46.2022C32.6684 49.1053 24.6366 49.0218 19.8015 46.0178C18.1265 44.9742 16.9994 43.6929 16.5111 42.3079V47.9222Z" fill="#155C6D"/>
<path d="M21.7659 46.8649C21.0959 46.5868 20.4608 46.2665 19.8734 45.9021C17.5412 44.4492 16.3728 42.587 16.3728 40.7256V47.9232C16.3829 49.7964 17.5412 51.6587 19.8734 53.1116C20.5186 53.5127 21.2244 53.8569 21.9678 54.1524L21.7659 46.8649Z" fill="#155C6D"/>
<path d="M22.1116 54.3571L21.917 54.28C21.1341 53.9689 20.4228 53.6155 19.8005 53.2282C17.5115 51.8019 16.2449 49.9185 16.2339 47.9241V40.7247H16.5102C16.5102 42.6072 17.7299 44.4042 19.9456 45.7846C20.5109 46.1362 21.1406 46.4565 21.8179 46.7373L21.9005 46.7722L21.9033 46.8613L22.1116 54.3571ZM16.5111 42.3089V47.9232C16.5212 49.8185 17.7409 51.6201 19.9465 52.9941C20.5027 53.3401 21.1341 53.6605 21.8253 53.9459L21.6307 46.9585C20.9708 46.6795 20.3558 46.3647 19.8015 46.0196C18.1264 44.976 16.9993 43.6948 16.5111 42.3098V42.3089Z" fill="#155C6D"/>
<path d="M16.3533 40.7256L16.3 23.242C16.3 25.1043 17.4638 26.9776 19.7951 28.4186C24.5999 31.4042 32.5547 31.4841 37.5595 28.6113C40.1395 27.1015 41.4538 25.1374 41.4245 23.1622L41.4731 40.6338C41.4731 42.609 40.1827 44.5961 37.6082 46.0719C32.6134 48.9667 24.6586 48.8759 19.8539 45.9021C17.5217 44.4492 16.3588 42.587 16.3533 40.7256Z" fill="#C8DAE8"/>
<path d="M28.8725 48.3234C25.5629 48.3234 22.2578 47.5534 19.7815 46.0197C17.4879 44.5907 16.2213 42.711 16.2149 40.7266L16.1616 23.2706V23.2431H16.4379V23.2706C16.4498 25.1558 17.6659 26.9428 19.8669 28.3039C24.6212 31.2565 32.5264 31.3438 37.4909 28.4948C39.9231 27.0704 41.2677 25.22 41.287 23.2733V23.166L41.5623 23.1632V23.2752L41.611 40.6376C41.611 42.7376 40.1773 44.7623 37.6763 46.1959C35.2211 47.6185 32.0445 48.3271 28.8725 48.3271V48.3234ZM16.4425 24.8492L16.4911 40.7248C16.4966 42.6109 17.7164 44.408 19.9265 45.7847C24.6992 48.7401 32.6016 48.8145 37.5386 45.9527C39.9515 44.5705 41.3347 42.6311 41.3347 40.6339L41.2906 24.7896C40.7711 26.2627 39.5165 27.6247 37.6294 28.7298C32.5842 31.6246 24.5523 31.5374 19.7218 28.5352C18.056 27.5045 16.9326 26.2315 16.4425 24.8483V24.8492Z" fill="#155C6D"/>
<path d="M21.2746 29.1932C20.7588 28.9601 20.2586 28.7067 19.7951 28.4195C17.4629 26.9776 16.3 25.1043 16.3 23.243L16.3533 40.7256C16.3579 42.5879 17.5217 44.4492 19.8539 45.9021C20.4468 46.2692 21.0883 46.5914 21.7657 46.8704L21.2746 29.1932Z" fill="#70C5AD"/>
<path d="M21.91 47.0788L21.7145 46.998C21.016 46.7116 20.3662 46.3821 19.7825 46.0196C17.4888 44.5905 16.2223 42.7109 16.2158 40.7256L16.1626 23.2696V23.242H16.4389V23.2696C16.4508 25.1548 17.6669 26.9418 19.8678 28.3029C20.2799 28.559 20.76 28.8095 21.3318 29.0684L21.4107 29.1042L21.4135 29.1904L21.91 47.0788ZM16.4425 24.8491L16.4912 40.7247C16.4967 42.6108 17.7165 44.4088 19.9266 45.7855C20.4424 46.1059 21.0133 46.3996 21.6227 46.6612L21.1399 29.2831C20.5911 29.0316 20.1267 28.7875 19.7228 28.5369C18.057 27.5062 16.9336 26.2332 16.4435 24.8501L16.4425 24.8491Z" fill="#155C6D"/>
<path d="M41.3217 19.0072C41.3501 19.166 41.3813 19.3367 41.3813 19.4726C41.4052 19.7222 41.4254 20.1196 41.43 20.3922C41.43 20.4152 41.43 20.4381 41.43 20.4601C41.43 20.4822 41.43 20.506 41.43 20.5281V20.517C41.4245 20.8878 41.4245 20.8915 41.43 20.5281V23.1732C41.43 25.1484 40.145 27.1354 37.565 28.6223C32.5602 31.4942 24.6054 31.4152 19.8006 28.4296C17.4739 26.9767 16.3 25.1144 16.3 23.2411V20.4601V20.4711C16.3074 20.0288 16.3368 19.5855 16.3872 19.1541C16.4313 18.8705 16.5185 18.4391 16.5625 18.2454C16.6066 18.0408 16.6791 17.7911 16.7379 17.5984C16.8296 17.3028 16.937 17.0082 17.0591 16.7246C17.1077 16.5998 17.1775 16.452 17.2436 16.3162C17.2766 16.2483 17.3087 16.1803 17.3372 16.1234C17.4822 15.8288 17.6447 15.5443 17.8236 15.2717C18.0072 14.9771 18.2054 14.7045 18.4175 14.4319C18.4973 14.3181 18.6047 14.1933 18.7066 14.0684C18.7598 14.0115 18.8103 13.9546 18.8553 13.8977C19.1067 13.6141 19.3738 13.3415 19.6538 13.0919C20.0062 12.7624 20.3743 12.4678 20.7588 12.1832C21.0846 11.9565 21.5381 11.65 21.8832 11.4563C22.0731 11.3425 22.2631 11.2406 22.5302 11.1048H22.533C22.8001 10.98 23.1589 10.7982 23.4352 10.6844C23.8344 10.5367 24.3695 10.3439 24.7789 10.2191C24.9386 10.1622 25.1377 10.1172 25.325 10.0713C25.4168 10.0484 25.5067 10.0254 25.5866 10.0034C25.9271 9.91254 26.6723 9.78771 26.9936 9.75376C27.0257 9.74274 27.0606 9.74275 27.0964 9.74275C27.29 9.70879 27.5287 9.68584 27.6847 9.67482C27.7398 9.67482 27.8049 9.66381 27.8747 9.66381C28.039 9.6528 28.2271 9.64087 28.3565 9.64087H29.0284C29.4322 9.64087 29.9682 9.68676 30.3675 9.72072C30.5354 9.73173 30.7677 9.76569 30.9668 9.78863C30.9934 9.78863 31.0191 9.79965 31.0439 9.79965C31.2578 9.83361 31.5359 9.8795 31.7451 9.92447C32.149 10.0153 32.6896 10.1512 33.0888 10.265C33.3174 10.3329 33.5854 10.4128 33.8341 10.5146C34.0828 10.6055 34.4665 10.7643 34.662 10.8551C34.8565 10.946 35.1145 11.0598 35.3044 11.1617C35.5871 11.2865 35.957 11.5022 36.2296 11.661L36.2397 11.672C36.594 11.9106 37.0648 12.2172 37.398 12.4898C37.5687 12.6146 37.7679 12.7853 37.9478 12.9441C38.0946 13.0799 38.2727 13.2507 38.4287 13.4094C38.4645 13.4434 38.4985 13.4774 38.5315 13.5113C38.7968 13.7839 39.0473 14.0675 39.2814 14.3631C39.5246 14.6926 39.8366 15.1349 40.0459 15.4755C40.4984 16.2363 40.8481 17.0422 41.083 17.9049C41.173 18.2005 41.2409 18.507 41.2877 18.8127C41.2969 18.8696 41.3088 18.9375 41.3208 19.0054L41.3217 19.0072Z" fill="#70C5AD"/>
<path d="M28.834 30.8572C25.5133 30.8572 22.2009 30.0844 19.7274 28.547C17.4282 27.1116 16.1616 25.2273 16.1616 23.242V20.4721L16.2011 20.4702H16.1616C16.1699 20.0168 16.1993 19.5698 16.2497 19.1394C16.2938 18.8548 16.3819 18.4216 16.4278 18.217C16.4746 18.0031 16.5517 17.7397 16.6049 17.5607C16.7022 17.2496 16.8124 16.9504 16.9317 16.6723C16.9794 16.5484 17.051 16.3969 17.1189 16.2574L17.2134 16.0628C17.3566 15.7701 17.5237 15.4782 17.7081 15.1973C17.8734 14.9321 18.0643 14.6622 18.3075 14.3483C18.3644 14.2676 18.4406 14.1758 18.5167 14.0822L18.5994 13.9831C18.6563 13.9216 18.704 13.8683 18.7462 13.8142C19.0225 13.503 19.2951 13.2277 19.5621 12.9909C19.8861 12.688 20.2404 12.3971 20.6773 12.074C21.1582 11.7381 21.541 11.4912 21.8154 11.3379C21.9953 11.2296 22.1798 11.1296 22.468 10.9827L22.5028 10.968C22.5781 10.9322 22.6607 10.8928 22.7461 10.8524C22.959 10.7496 23.1912 10.6376 23.384 10.5587C23.9594 10.3457 24.4137 10.1879 24.7396 10.0887C24.8818 10.0383 25.0599 9.99512 25.2315 9.95474L25.2939 9.93914C25.3839 9.91711 25.4711 9.89508 25.55 9.87214C25.9135 9.77577 26.6679 9.65094 26.98 9.61882C27.002 9.60597 27.0552 9.60597 27.0975 9.60597C27.3113 9.5665 27.5949 9.54448 27.6766 9.53897C27.7078 9.53897 27.7326 9.53621 27.7574 9.53346C27.795 9.5307 27.8345 9.52704 27.8758 9.52704C28.0345 9.51602 28.2255 9.50409 28.3576 9.50409H29.0295C29.4388 9.50409 29.9822 9.54998 30.3787 9.58394C30.4934 9.59128 30.6402 9.60964 30.7853 9.628L30.9835 9.65185C30.9973 9.65094 31.0202 9.65645 31.0367 9.66012C31.2836 9.69867 31.5636 9.74456 31.7756 9.79045C32.1868 9.88223 32.7301 10.0199 33.1285 10.1328C33.3753 10.2062 33.6378 10.2852 33.8875 10.3879C34.1298 10.4761 34.5208 10.6376 34.7209 10.7312L34.8778 10.8037C35.0439 10.8799 35.2266 10.9634 35.3707 11.0414C35.6552 11.1672 36.0425 11.3939 36.2995 11.5435L36.4675 11.6591C36.808 11.8868 37.1935 12.1437 37.4853 12.3842C37.6249 12.4861 37.8093 12.6375 38.0397 12.8422C38.1902 12.9817 38.3701 13.1533 38.528 13.3149C38.561 13.347 38.5968 13.3819 38.6308 13.4177C38.9006 13.6939 39.1558 13.9849 39.3889 14.2795C39.5046 14.4355 39.8946 14.967 40.1636 15.4057C40.6307 16.1904 40.985 17.0201 41.2154 17.8709C41.3044 18.1637 41.3751 18.4758 41.4237 18.7952C41.4329 18.8503 41.443 18.9173 41.4558 18.9833C41.4843 19.143 41.5173 19.3248 41.5173 19.4744C41.5421 19.7295 41.5614 20.1324 41.5669 20.3913V23.175C41.5669 25.3035 40.17 27.2814 37.6322 28.7434C35.1706 30.156 31.9986 30.8581 28.8331 30.8581L28.834 30.8572ZM16.4388 20.473V23.242C16.4388 25.1291 17.6586 26.9308 19.8733 28.313C24.6276 31.2675 32.5319 31.3519 37.4964 28.5039C39.9442 27.0923 41.2925 25.1997 41.2925 23.1732L41.2906 20.663C41.2906 20.6189 41.2906 20.5702 41.2925 20.5161V20.3922C41.2879 20.1471 41.2695 19.7442 41.2438 19.4863C41.2438 19.3477 41.2135 19.1807 41.1869 19.032C41.1741 18.9632 41.1621 18.8934 41.153 18.8356C41.1062 18.529 41.0392 18.2298 40.9529 17.9453C40.7271 17.1147 40.3829 16.3088 39.9295 15.5461C39.7533 15.2588 39.4697 14.8458 39.1732 14.4456C38.9474 14.1611 38.6978 13.8784 38.4353 13.6077C38.4032 13.5746 38.371 13.5425 38.3362 13.5095C38.1783 13.3488 38.0021 13.18 37.8571 13.045C37.634 12.8486 37.4569 12.7027 37.3183 12.6017C37.031 12.3659 36.6501 12.1125 36.3151 11.8886L36.1389 11.7647C35.9113 11.6343 35.5313 11.4122 35.2514 11.2883C35.1018 11.2085 34.9255 11.1277 34.7649 11.0543L34.6061 10.9809C34.4116 10.89 34.0307 10.733 33.7893 10.6449C33.547 10.5458 33.2909 10.4696 33.066 10.4017C32.6613 10.287 32.1234 10.1511 31.7168 10.0594C31.5113 10.0144 31.2368 9.96943 31.0248 9.93547C31.0202 9.9373 30.9982 9.93271 30.9798 9.92904L30.7531 9.90059C30.6136 9.88315 30.4714 9.86479 30.3603 9.85837C29.9647 9.82441 29.4287 9.77851 29.0313 9.77851H28.3595C28.2319 9.77851 28.0483 9.79045 27.8859 9.80054C27.8446 9.80054 27.8134 9.80422 27.784 9.80697C27.75 9.80973 27.7179 9.81248 27.6885 9.81248C27.6206 9.81798 27.348 9.83909 27.1232 9.87856C27.0791 9.88039 27.0534 9.8804 27.0433 9.88407C26.7065 9.92353 25.9639 10.0465 25.6262 10.1374C25.5454 10.1594 25.4555 10.1824 25.3619 10.2062L25.2985 10.2218C25.1333 10.2613 24.9635 10.3017 24.8277 10.3503C24.5019 10.4504 24.0521 10.6055 23.4858 10.8147C23.3032 10.89 23.0765 10.9992 22.8672 11.1002C22.7708 11.147 22.6781 11.192 22.5937 11.2305L22.5662 11.2434C22.3009 11.3783 22.1275 11.4728 21.9558 11.5765C21.6851 11.728 21.3115 11.9694 20.8398 12.2979C20.4148 12.6118 20.0669 12.8964 19.7494 13.1937C19.4878 13.4259 19.2235 13.6939 18.9601 13.9904C18.9178 14.0436 18.8646 14.1033 18.8095 14.1629L18.7315 14.2575C18.6599 14.3456 18.5883 14.4319 18.5305 14.5126C18.2891 14.8229 18.1037 15.0863 17.9413 15.3451C17.7623 15.6186 17.6008 15.9004 17.4622 16.1849L17.3686 16.3777C17.3043 16.5107 17.2355 16.6539 17.1887 16.776C17.0712 17.0504 16.9647 17.3404 16.8702 17.6415C16.8169 17.814 16.7426 18.0701 16.6976 18.2766C16.6517 18.4795 16.5655 18.9035 16.5242 19.177C16.4746 19.5928 16.4461 20.0306 16.4388 20.4739V20.473Z" fill="#155C6D"/>
<path d="M31.6555 9.90796C31.46 9.86849 31.2324 9.82994 31.0461 9.80057C31.0213 9.80057 30.9956 9.78863 30.969 9.78863C30.7698 9.76569 30.5376 9.73173 30.3696 9.72072C29.9704 9.68676 29.4353 9.64087 29.0305 9.64087H28.3587C28.2284 9.64087 28.0411 9.6528 27.8768 9.66381C27.8071 9.66381 27.7419 9.67574 27.6868 9.67574C27.5308 9.68676 27.2922 9.70971 27.0985 9.74366C27.0627 9.74366 27.0278 9.74367 26.9957 9.7556C26.6745 9.78956 25.9292 9.91438 25.5887 10.0052C25.5088 10.0273 25.4189 10.0502 25.3271 10.0732C25.1399 10.119 24.9407 10.164 24.781 10.2209C24.3717 10.3458 23.8366 10.5385 23.4373 10.6863C23.1611 10.8001 22.8022 10.9818 22.5351 11.1066H22.5324C22.2644 11.2434 22.0753 11.3453 21.8853 11.4591C21.5393 11.6518 21.0868 11.9584 20.761 12.186C20.3764 12.4696 20.0074 12.7651 19.6559 13.0937C19.376 13.3434 19.1089 13.6159 18.8574 13.8995C18.8124 13.9565 18.761 14.0134 18.7087 14.0693C18.6068 14.1942 18.4995 14.319 18.4196 14.4328C18.2076 14.7054 18.0093 14.978 17.8258 15.2726C17.6468 15.5452 17.4843 15.8288 17.3393 16.1244C17.3118 16.1813 17.2797 16.2492 17.2457 16.3171C17.1796 16.4538 17.1099 16.6007 17.0612 16.7264C16.9392 17.01 16.8318 17.3056 16.74 17.6002C16.6812 17.7929 16.6087 18.0426 16.5647 18.2473C16.5206 18.44 16.4334 18.8714 16.3894 19.155C16.338 19.5864 16.3086 20.0288 16.3013 20.4721V23.242C16.3013 25.1153 17.4742 26.9776 19.8018 28.4305C20.2635 28.7168 20.7619 28.9683 21.2768 29.2024L21.2492 28.2065C20.5021 18.25 25.2831 11.2856 31.6573 9.90796H31.6555Z" fill="#155C6D"/>
<path d="M21.418 29.419L21.2179 29.3281C20.6342 29.0629 20.1468 28.8086 19.7274 28.548C17.4282 27.1125 16.1616 25.2273 16.1616 23.2421V20.4721C16.1699 20.0178 16.1993 19.5699 16.2497 19.1385C16.2947 18.854 16.3819 18.4207 16.4278 18.2161C16.4746 18.0004 16.5517 17.7379 16.6049 17.5598C16.7022 17.2487 16.8124 16.9495 16.9317 16.6714C16.9794 16.5475 17.051 16.397 17.1189 16.2565L17.2125 16.0638C17.3557 15.771 17.5227 15.4791 17.7081 15.1974C17.8734 14.9321 18.0643 14.6623 18.3075 14.3484C18.3644 14.2676 18.4406 14.1758 18.5167 14.0822L18.5994 13.9831C18.6563 13.9216 18.704 13.8683 18.7462 13.8142C19.0216 13.504 19.2941 13.2286 19.5621 12.9909C19.8834 12.6908 20.2377 12.3989 20.6773 12.0749C21.1582 11.739 21.541 11.4921 21.8154 11.3388C22.0182 11.2177 22.2229 11.1094 22.468 10.9836L22.5028 10.969C22.5781 10.9332 22.6607 10.8937 22.7461 10.8533C22.959 10.7505 23.1912 10.6385 23.384 10.5596C23.9603 10.3467 24.4147 10.1888 24.7396 10.0897C24.8828 10.0383 25.0608 9.99607 25.2324 9.95476L25.2939 9.94008C25.3848 9.91805 25.472 9.89511 25.5518 9.874C25.8924 9.78222 26.634 9.65556 26.98 9.61976C27.002 9.60783 27.0552 9.60783 27.0975 9.60783C27.3003 9.5702 27.571 9.54817 27.6766 9.54083C27.7078 9.54083 27.7326 9.53807 27.7574 9.53532C27.795 9.53257 27.8345 9.5289 27.8758 9.5289C28.0345 9.51788 28.2255 9.50595 28.3576 9.50595H29.0295C29.4388 9.50595 29.9822 9.55184 30.3787 9.5858C30.4916 9.59314 30.6338 9.61058 30.7779 9.62894L30.9835 9.65372C30.9899 9.65372 31.0202 9.65831 31.0395 9.66198C31.2552 9.69594 31.4846 9.73449 31.682 9.77487L32.3281 9.9052L31.6838 10.0438C24.9277 11.504 20.692 18.9696 21.384 28.1974L21.418 29.419ZM22.5643 11.2434C22.2936 11.382 22.121 11.4765 21.954 11.5766C21.6832 11.728 21.3097 11.9694 20.8379 12.298C20.4111 12.6137 20.0633 12.8991 19.7475 13.1938C19.486 13.4269 19.2207 13.694 18.9582 13.9904C18.916 14.0437 18.8628 14.1033 18.8077 14.163L18.7297 14.2575C18.6581 14.3456 18.5865 14.4319 18.5287 14.5127C18.2873 14.8229 18.1019 15.0863 17.9394 15.3451C17.7595 15.6205 17.598 15.9022 17.4603 16.1849L17.3667 16.3777C17.3025 16.5108 17.2336 16.6539 17.1868 16.776C17.0693 17.0504 16.9629 17.3405 16.8683 17.6415C16.816 17.8141 16.7408 18.0683 16.6958 18.2757C16.6499 18.4776 16.5636 18.9017 16.5223 19.1752C16.4728 19.5928 16.4443 20.0306 16.437 20.4739V23.2421C16.437 25.1291 17.6568 26.9308 19.8715 28.3139C20.2322 28.5379 20.6452 28.7582 21.1298 28.9849L21.1078 28.2111C20.4277 19.1412 24.4642 11.7399 30.9853 9.9309C30.9826 9.9309 30.9789 9.92998 30.9762 9.92906L30.7421 9.90061C30.6063 9.88318 30.4677 9.86574 30.3585 9.85931C29.9629 9.82535 29.4269 9.77946 29.0295 9.77946H28.3576C28.23 9.77946 28.0465 9.79139 27.884 9.80149C27.8427 9.80149 27.8115 9.80516 27.7822 9.80792C27.7482 9.81067 27.7161 9.81342 27.6867 9.81342C27.5949 9.82076 27.3352 9.84187 27.1222 9.8795C27.0773 9.88134 27.0516 9.88134 27.0415 9.88501C26.7083 9.92356 25.9676 10.0466 25.6244 10.1383C25.5427 10.1604 25.4527 10.1833 25.36 10.2062L25.2976 10.2218C25.1324 10.2613 24.9617 10.3026 24.8268 10.3503C24.5009 10.4495 24.0512 10.6055 23.484 10.8148C23.3013 10.89 23.0746 10.9992 22.8654 11.1002C22.769 11.147 22.6763 11.192 22.5919 11.2305L22.5643 11.2434Z" fill="#155C6D"/>
<path d="M20.3384 12.6155V7.89241C20.3384 9.15258 21.1268 10.4017 22.7045 11.4123C25.9564 13.4214 31.3357 13.4783 34.7197 11.5371C36.4627 10.5266 37.3392 9.18654 37.3337 7.84744V12.5696C37.3337 13.9207 36.4627 15.2487 34.7197 16.2593C31.3118 18.2124 25.9573 18.1435 22.7045 16.1344C21.1268 15.1469 20.343 13.8757 20.3384 12.6155Z" fill="#C8DAE8"/>
<path d="M28.8117 17.8123C26.5594 17.8123 24.3126 17.291 22.6321 16.252C21.0699 15.2736 20.2062 13.9822 20.2017 12.6165V7.89342H20.4779C20.4779 9.13707 21.2957 10.3458 22.7798 11.2967C25.9885 13.2792 31.3146 13.3333 34.6527 11.4188C36.2901 10.4688 37.1933 9.20958 37.1969 7.86864V7.84845H37.4732V12.5716C37.4732 14.0245 36.5196 15.3782 34.7895 16.3805C33.12 17.3369 30.964 17.8132 28.8127 17.8132L28.8117 17.8123ZM20.477 12.6156C20.4816 13.8831 21.2985 15.0919 22.778 16.0189C25.9839 17.9995 31.311 18.0546 34.6518 16.141C36.2929 15.1901 37.196 13.9226 37.196 12.5706V9.18205C36.7977 10.1164 35.9772 10.9681 34.7886 11.6565C31.3706 13.617 25.9188 13.5601 22.6321 11.5289C21.5802 10.8552 20.8469 10.0531 20.477 9.19305V12.6156Z" fill="#155C6D"/>
<path d="M23.2526 3.51073C23.394 3.43088 23.5784 3.31798 23.739 3.25006C23.8997 3.18214 24.1429 3.05732 24.3237 2.9894C24.6404 2.86458 25.069 2.71681 25.3948 2.61493C25.5747 2.55802 25.8179 2.50112 26.0033 2.45615C26.4898 2.34234 27.0845 2.25147 27.191 2.24046C27.2984 2.22945 27.6141 2.19549 27.7949 2.18356C27.9748 2.17254 28.2042 2.13766 28.3841 2.13766H28.9881C29.3488 2.13766 29.8306 2.18355 30.1904 2.20558C30.3657 2.20558 30.6044 2.26249 30.7797 2.28544C30.955 2.30838 31.5001 2.39924 31.9434 2.51213C32.1142 2.55802 32.3528 2.61402 32.5226 2.68285C32.8392 2.78473 33.2578 2.94351 33.5643 3.06925C33.7295 3.13717 33.9388 3.23997 34.0948 3.3189C34.2509 3.40977 34.484 3.53459 34.6501 3.63647C34.5271 3.56855 34.3904 3.5456 34.2545 3.55661C34.1187 3.56763 33.9874 3.62454 33.8764 3.70439C31.1991 2.03579 26.7688 1.9899 23.974 3.59058C21.1792 5.20227 21.0921 7.84743 23.7693 9.51694C26.4466 11.1745 30.8815 11.2195 33.6717 9.61882C36.461 8.01814 36.5537 5.36197 33.8764 3.70439C33.9893 3.62454 34.1196 3.56855 34.2564 3.56855C34.3922 3.55753 34.529 3.57956 34.651 3.64839C34.7676 3.72824 34.9337 3.83013 35.0503 3.90998C35.2696 4.07977 35.5367 4.30739 35.7561 4.48912C36.0617 4.77273 36.3334 5.09121 36.5638 5.44274C36.6895 5.63548 36.8051 5.84015 36.9098 6.04391C36.9887 6.21462 37.0585 6.38442 37.119 6.55513C37.1714 6.71392 37.2136 6.88464 37.2457 7.05443C37.2457 7.1453 37.2843 7.27012 37.2943 7.36098C37.3044 7.46286 37.3237 7.7015 37.3237 7.87221C37.3237 9.2003 36.4527 10.5513 34.7098 11.5508C31.3267 13.492 25.9473 13.4471 22.6955 11.426C21.1178 10.4495 20.3339 9.18928 20.3293 7.90617C20.3293 7.71342 20.3541 7.46378 20.378 7.27012C20.4046 7.08839 20.445 6.89565 20.5001 6.71392C20.635 6.2596 20.8387 5.82822 21.104 5.44274C21.2316 5.24999 21.3711 5.06826 21.5225 4.89755C21.6932 4.70481 21.9365 4.46617 22.1209 4.30739C22.3054 4.14861 22.4963 4.00084 22.6955 3.865C22.8754 3.74018 23.0626 3.61536 23.2554 3.51256L23.2526 3.51073Z" fill="#70C5AD"/>
<path d="M28.7935 13.1056C26.5411 13.1056 24.2962 12.5825 22.6193 11.5408C21.0572 10.5734 20.1935 9.28291 20.188 7.90526C20.188 7.68039 20.2192 7.39954 20.2385 7.25177C20.2669 7.0526 20.311 6.85436 20.3651 6.67355C20.5056 6.19903 20.7157 5.75848 20.9874 5.3629C21.1159 5.16924 21.26 4.98016 21.417 4.80486C21.5849 4.61487 21.83 4.37257 22.0291 4.20094C22.2164 4.0394 22.4137 3.88704 22.6156 3.74936C22.7845 3.6328 22.98 3.49972 23.1865 3.3905L23.2866 3.33268C23.4123 3.26109 23.5546 3.1794 23.6867 3.12249C23.7501 3.09588 23.8271 3.06008 23.9079 3.02245C24.0318 2.96371 24.1649 2.90222 24.275 2.86C24.566 2.74527 24.99 2.59658 25.3535 2.48277C25.5095 2.43321 25.7124 2.38457 25.884 2.34235L25.9703 2.32215C26.4668 2.20651 27.0634 2.11473 27.1763 2.1028C27.2846 2.09086 27.604 2.05783 27.7857 2.04589C27.8527 2.04222 27.9271 2.03396 28.0023 2.02662C28.1336 2.01285 28.2676 2 28.3832 2H28.9871C29.2551 2 29.5892 2.02478 29.8848 2.04589L30.1987 2.06792H30.2005C30.3198 2.06792 30.4667 2.09362 30.608 2.1184C30.6741 2.13033 30.7393 2.14135 30.7962 2.14869C30.9944 2.17439 31.5442 2.26892 31.9765 2.37906L32.071 2.40384C32.2289 2.44423 32.4244 2.49563 32.5731 2.55528C32.9062 2.66267 33.3449 2.83063 33.6157 2.94168C33.8048 3.01878 34.0361 3.13443 34.1572 3.19592C34.2196 3.23263 34.2875 3.27027 34.3573 3.30881C34.4821 3.37857 34.6161 3.45383 34.7217 3.51899L34.7162 3.52726C34.7823 3.57131 34.8502 3.61445 34.9172 3.65758C34.9915 3.70531 35.0649 3.75304 35.1264 3.79434C35.3118 3.93752 35.522 4.11374 35.712 4.27252L35.8433 4.38175C36.1672 4.68187 36.4463 5.01137 36.6785 5.36565C36.7987 5.55013 36.918 5.75664 37.0328 5.97967C37.1163 6.16048 37.1888 6.33671 37.2484 6.50742C37.3017 6.66896 37.3448 6.84334 37.3806 7.02691C37.3834 7.09116 37.3953 7.1499 37.4063 7.20588C37.4173 7.25453 37.4265 7.30225 37.4311 7.34355C37.4403 7.45094 37.4605 7.69508 37.4605 7.86947C37.4605 9.30494 36.4821 10.6899 34.7758 11.6674C33.1026 12.6275 30.9448 13.1047 28.7944 13.1047L28.7935 13.1056ZM28.3832 2.27535C28.2758 2.27535 28.151 2.2882 28.0298 2.30013C27.95 2.30839 27.8729 2.31573 27.8031 2.32032C27.6251 2.33133 27.3112 2.3653 27.2056 2.37631C27.1093 2.38641 26.5182 2.47635 26.0345 2.58924L25.9491 2.60943C25.7821 2.64982 25.5857 2.69755 25.4352 2.74527C25.0772 2.85725 24.6605 3.00318 24.3733 3.11699C24.2677 3.15646 24.141 3.21611 24.0236 3.27118C23.9391 3.31065 23.8593 3.34828 23.7932 3.37581C23.6766 3.42538 23.5426 3.50247 23.4242 3.57039L23.3168 3.63097C23.1232 3.73376 22.9341 3.86226 22.7707 3.97515C22.5771 4.10823 22.388 4.25417 22.2081 4.40928C22.019 4.57265 21.7832 4.80486 21.6225 4.98659C21.4748 5.15363 21.3371 5.33077 21.2159 5.51617C20.959 5.88973 20.7625 6.30458 20.6285 6.75156C20.579 6.91952 20.5377 7.10492 20.5111 7.28848C20.4936 7.42616 20.4643 7.69416 20.4643 7.90434C20.4698 9.18286 21.2866 10.3916 22.7652 11.3067C25.9638 13.2947 31.2909 13.3498 34.6391 11.4288C36.2563 10.5018 37.1833 9.2049 37.1833 7.87039C37.1833 7.70426 37.164 7.47113 37.1557 7.37201C37.1521 7.34172 37.1438 7.30317 37.1365 7.2637C37.1209 7.19395 37.1062 7.12144 37.1062 7.05352C37.0768 6.90667 37.0355 6.74422 36.9869 6.59645C36.93 6.43675 36.862 6.2697 36.784 6.10083C36.6757 5.89064 36.5619 5.69239 36.4472 5.51709C36.2269 5.18117 35.9626 4.86911 35.6615 4.58917L35.5349 4.48454C35.3476 4.32759 35.1393 4.15412 34.9649 4.01737C34.9117 3.98249 34.8401 3.9366 34.7685 3.88979C34.6997 3.84482 34.6308 3.80076 34.5721 3.7613C34.4904 3.71541 34.3839 3.69338 34.2664 3.7044C34.227 3.7044 34.1893 3.7099 34.1545 3.72C35.3403 4.5185 35.98 5.5483 35.9626 6.63958C35.9433 7.82633 35.1531 8.92679 33.7396 9.73815C30.9136 11.3599 26.4099 11.3122 23.6968 9.63352C22.377 8.81115 21.6611 7.72353 21.6813 6.57259C21.7015 5.38768 22.4917 4.28721 23.9052 3.47127C26.7128 1.86325 31.1624 1.89996 33.8745 3.54102C33.9342 3.50523 33.9975 3.47677 34.0599 3.45658C34.048 3.45015 34.037 3.44373 34.026 3.43731C33.9149 3.3804 33.6919 3.26935 33.512 3.195C33.2449 3.0867 32.8144 2.92149 32.4804 2.81227C32.339 2.75629 32.1527 2.70764 32.0022 2.66909L31.9076 2.64431C31.4873 2.53693 30.9531 2.44606 30.7604 2.42036C30.7007 2.4121 30.631 2.40109 30.5603 2.38824C30.429 2.3653 30.2941 2.34143 30.1895 2.34143L29.8646 2.3194C29.5745 2.29829 29.2441 2.27351 28.9871 2.27351H28.3832V2.27535ZM28.8357 2.55895C27.112 2.55895 25.3829 2.94168 24.0401 3.71082C22.7147 4.47536 21.9731 5.49414 21.9548 6.57809C21.9364 7.62899 22.6064 8.63126 23.8409 9.40039C26.4751 11.0314 30.854 11.0773 33.6029 9.50044C34.9282 8.73956 35.6689 7.7217 35.6872 6.63591C35.7047 5.59419 35.0484 4.60294 33.8369 3.84299L33.8029 3.82187L33.7681 3.80076C32.4253 2.97564 30.6337 2.55987 28.8366 2.55987L28.8357 2.55895Z" fill="#155C6D"/>
<path d="M39.2207 42.7577V38.6477C39.2207 40.0097 40.0688 41.3727 41.7732 42.4171C45.2756 44.597 51.0845 44.6649 54.7392 42.553C56.6171 41.4746 57.5597 40.0327 57.5597 38.5908V42.7008C57.5597 44.1427 56.6244 45.5845 54.7392 46.674C51.1138 48.774 45.3123 48.718 41.7732 46.5382C40.0761 45.4707 39.228 44.1197 39.2207 42.7577Z" fill="#155C6D"/>
<path d="M48.3844 48.3435C45.9559 48.3435 43.5255 47.7781 41.7009 46.6547C40.0213 45.5974 39.0915 44.2142 39.0833 42.7577V38.6467H39.3595C39.3595 40.0189 40.2425 41.3158 41.845 42.2988C45.3107 44.4556 51.0654 44.5171 54.6706 42.4328C56.4457 41.414 57.4222 40.0492 57.4222 38.5898H57.6985V42.6998C57.6985 44.262 56.6724 45.7149 54.8092 46.7924C53.0213 47.8277 50.7029 48.3426 48.3854 48.3426L48.3844 48.3435ZM39.3595 42.7577C39.3669 44.116 40.2498 45.4175 41.8468 46.4216C45.3345 48.5702 51.0874 48.6299 54.6706 46.5556C56.4457 45.5295 57.4222 44.161 57.4222 42.7017V39.9675C57.0019 40.9936 56.1088 41.9252 54.8074 42.6723C51.1241 44.8017 45.2437 44.7383 41.7009 42.5337C40.549 41.8279 39.7505 40.9606 39.3595 40.0134V42.7577Z" fill="#155C6D"/>
<path d="M40.0276 44.9935V53.6669C40.0349 54.916 40.8105 56.1532 42.3625 57.1179C45.5676 59.116 50.8753 59.1729 54.2116 57.2427C55.9307 56.2551 56.7934 54.938 56.7934 53.621V44.9136C56.3244 45.5497 55.6406 46.1508 54.7393 46.6731C51.1139 48.773 45.3124 48.7171 41.7733 46.5372C41.0271 46.0719 40.4461 45.5497 40.0276 44.9935Z" fill="#C8DAE8"/>
<path d="M48.387 58.7892C46.165 58.7892 43.9475 58.2697 42.289 57.2363C40.7489 56.2781 39.8972 55.0115 39.8889 53.6687V44.5823L40.1376 44.9109C40.5543 45.4652 41.1298 45.9737 41.8457 46.4207C45.3353 48.5702 51.0872 48.629 54.6704 46.5547C55.5304 46.0572 56.2069 45.4772 56.6814 44.8328L56.9301 44.496V53.6219C56.9301 55.0519 55.9884 56.38 54.2794 57.3629C52.6329 58.3156 50.509 58.7892 48.387 58.7892ZM40.1652 45.3808V53.6678C40.1725 54.9114 40.9784 56.0963 42.4349 57.0022C45.5978 58.9737 50.8504 59.0297 54.1427 57.1243C55.7635 56.1927 56.6547 54.9491 56.6547 53.6219V45.3074C56.1802 45.8581 55.5616 46.3564 54.8081 46.7933C51.146 48.9144 45.2664 48.8511 41.7007 46.6556C41.0867 46.272 40.5727 45.8443 40.1652 45.3808Z" fill="#155C6D"/>
<path d="M55.0082 34.8102C58.518 36.9901 58.395 40.4521 54.7402 42.553C51.0855 44.653 45.3133 44.597 41.7815 42.4171C38.2498 40.2373 38.3874 36.7753 42.0422 34.6744C45.697 32.5744 51.4985 32.6304 55.0082 34.8102Z" fill="#70C5AD"/>
<path d="M48.3763 44.217C45.9477 44.217 43.5238 43.6534 41.7083 42.5337C39.9883 41.4727 39.054 40.0675 39.0778 38.5788C39.1017 37.0433 40.1297 35.6142 41.9726 34.5551C45.6632 32.434 51.5428 32.4973 55.08 34.6937C56.7945 35.7583 57.7243 37.1644 57.6995 38.655C57.6738 40.1896 56.6468 41.6159 54.8093 42.6723C53.0131 43.7048 50.6938 44.2179 48.3763 44.2179V44.217ZM48.4203 33.2756C46.1496 33.2756 43.8753 33.7795 42.1112 34.7937C40.3554 35.8033 39.3761 37.1488 39.3532 38.5834C39.3321 39.9711 40.2187 41.291 41.8542 42.2997C45.3245 44.4409 51.0747 44.5006 54.6716 42.4337C56.4228 41.4268 57.4012 40.0831 57.4251 38.6504C57.448 37.2608 56.5642 35.9392 54.9359 34.9277C53.1664 33.8291 50.7957 33.2756 48.4203 33.2756Z" fill="#155C6D"/>
<path d="M33.8682 3.70439C36.5455 5.36198 36.4528 8.01815 33.6636 9.61883C30.8743 11.2305 26.4394 11.1855 23.7612 9.51695C21.0839 7.84835 21.1564 5.20319 23.9659 3.59058C26.7753 1.9899 31.19 2.03488 33.8682 3.70439Z" fill="#C8DAE8"/>
<path d="M28.7937 10.9331C26.9333 10.9331 25.0765 10.4981 23.6897 9.6335C22.3653 8.80838 21.6476 7.71801 21.6687 6.56431C21.6898 5.38215 22.4828 4.28353 23.899 3.47126C26.7369 1.85222 31.2425 1.90454 33.9418 3.5869C35.2598 4.40284 35.9747 5.48679 35.9555 6.63957C35.9362 7.82631 35.1459 8.92678 33.7316 9.73813C32.3512 10.5366 30.5715 10.9331 28.7937 10.9331ZM28.8341 2.56261C27.1104 2.56261 25.3803 2.94442 24.0348 3.7108C22.7067 4.47351 21.9633 5.48863 21.944 6.57074C21.9247 7.62348 22.5966 8.62849 23.8356 9.40038C26.4707 11.0433 30.8496 11.0883 33.5957 9.50042C34.922 8.73955 35.6627 7.72168 35.681 6.6359C35.6985 5.58408 35.0294 4.58457 33.7967 3.82186C32.4531 2.98389 30.6459 2.56261 28.8341 2.56261Z" fill="#155C6D"/>
</svg>
