<svg width="64" height="64" viewBox="0 0 64 64" fill="none" xmlns="http://www.w3.org/2000/svg">
<path fill-rule="evenodd" clip-rule="evenodd" d="M55.7866 45.9577C55.6738 46.1706 55.5097 46.3492 55.3103 46.4764L31.9752 60.5129C31.5782 60.7456 31.129 60.8674 30.6717 60.8647C30.2152 60.8638 29.7669 60.7375 29.3708 60.5011L21.382 55.7165C21.2494 55.638 21.1393 55.5243 21.0635 55.3872C20.9878 55.2501 20.9472 55.0949 20.9481 54.938C20.9481 54.6141 21.1105 54.3227 21.382 54.2704L24.809 52.2182L21.2178 50.0793L17.7637 52.3842C17.4922 52.5664 17.1774 52.6683 16.8535 52.6773C16.5297 52.6882 16.2094 52.6052 15.9289 52.4401L7.58909 47.4498C7.45107 47.3686 7.33651 47.2513 7.25712 47.1106C7.17684 46.9689 7.13445 46.8084 7.13354 46.6442C7.13354 46.4809 7.17414 46.3203 7.25262 46.1778C7.33111 46.0362 7.44476 45.918 7.58188 45.835L30.1196 32.0214C31.4682 31.2185 33.1434 31.0011 34.4893 31.8022L55.2688 44.0769C55.4727 44.1968 55.6423 44.37 55.7622 44.5784C55.8822 44.7868 55.9472 45.0231 55.9508 45.2649C55.9544 45.5067 55.8976 45.7466 55.7857 45.9586L55.7866 45.9577ZM20.4646 49.631L17.3461 51.7184C17.1936 51.8204 17.0159 51.8781 16.8337 51.8826C16.6514 51.888 16.4719 51.842 16.3132 51.7482L7.97158 46.7597C7.95083 46.7479 7.9346 46.7308 7.92287 46.7101C7.91114 46.6902 7.90573 46.6658 7.90573 46.6433C7.90573 46.6189 7.91114 46.5955 7.92196 46.5747C7.93369 46.5549 7.94993 46.5378 7.96978 46.526L30.5075 32.7178C31.6161 32.0611 32.9936 31.8419 34.1023 32.4986L54.7745 44.6858C54.8836 44.7507 54.9747 44.8436 55.0388 44.9546C55.1028 45.0674 55.138 45.1945 55.1398 45.3244C55.1416 45.4543 55.111 45.5824 55.0496 45.6961C54.9883 45.8098 54.9008 45.9054 54.7934 45.973L31.5909 59.8165C31.3112 59.9797 30.9955 60.0645 30.6744 60.0627C30.3532 60.0618 30.0375 59.9734 29.7596 59.8092L21.7708 55.0273C21.7563 55.0183 21.7437 55.0056 21.7356 54.9903C21.7275 54.975 21.723 54.9578 21.7239 54.9407C21.7239 54.9235 21.7275 54.9055 21.7365 54.8911C21.7446 54.8757 21.7572 54.864 21.7717 54.855L25.4928 52.6277L29.1616 54.8144C29.9716 55.2988 31.3879 55.2375 32.3225 54.6773L45.0725 47.0808C46.008 46.5233 46.109 45.6808 45.2999 45.1973L32.096 37.3284C31.2851 36.8439 29.8697 36.9053 28.9342 37.4628L16.186 45.0619C15.2496 45.6194 15.1495 46.462 15.9586 46.9464L20.4655 49.6319L20.4646 49.631Z" fill="#C8DAE8"/>
<path d="M30.6861 61H30.6707C30.1935 61 29.719 60.8674 29.3013 60.6175L21.3134 55.8328C21.1618 55.7435 21.0346 55.6127 20.9462 55.454C20.8587 55.297 20.8136 55.1184 20.8136 54.938C20.8136 54.5392 21.0256 54.2172 21.3332 54.1432L24.5465 52.2191L21.2232 50.2399L17.8404 52.4969C17.5463 52.6936 17.2071 52.8027 16.8589 52.8127C16.5269 52.8226 16.1643 52.7351 15.8621 52.5565L7.52141 47.5652C7.36445 47.4732 7.23275 47.3388 7.13984 47.1764C7.04873 47.014 7.0018 46.83 7 46.6433C7 46.4557 7.04691 46.2716 7.13622 46.1102C7.22552 45.9487 7.35543 45.8134 7.51239 45.7178L30.0501 31.9041C31.5773 30.9948 33.2633 30.9136 34.5596 31.684L55.3382 43.9587C55.5628 44.0904 55.7505 44.2816 55.8804 44.5099C56.0121 44.7372 56.0834 44.9979 56.087 45.2613C56.0915 45.5247 56.0292 45.7872 55.9065 46.0199C55.783 46.2536 55.6016 46.4502 55.3824 46.5901L32.0455 60.6283C31.6305 60.8719 31.1624 61 30.6861 61ZM21.2142 49.9206L21.2881 49.9639L25.0742 52.2191L21.409 54.4048C21.2178 54.4418 21.0852 54.661 21.0852 54.9389C21.0852 55.0733 21.1185 55.2068 21.1826 55.3232C21.2475 55.4395 21.3414 55.5351 21.4523 55.601L29.4412 60.3866C29.8165 60.6112 30.2431 60.7303 30.6716 60.7312H30.6861C31.1136 60.7312 31.5349 60.6157 31.9075 60.3974L55.2408 46.3618C55.4167 46.2491 55.5656 46.0876 55.6675 45.8955C55.7685 45.7033 55.8209 45.4859 55.8164 45.2676C55.8137 45.0493 55.755 44.8346 55.6468 44.6461C55.5394 44.4584 55.3861 44.3024 55.202 44.1941L34.4225 31.9195C33.2128 31.1996 31.6305 31.2799 30.1917 32.1378L7.65493 45.9505C7.53765 46.0218 7.44112 46.1228 7.37346 46.2437C7.30671 46.3654 7.27153 46.5035 7.27243 46.6442C7.27243 46.7858 7.30941 46.9247 7.37707 47.0456C7.44473 47.1656 7.54397 47.2657 7.66034 47.3343L16.001 52.3255C16.2581 52.478 16.5675 52.5519 16.8517 52.5438C17.1485 52.5357 17.438 52.4419 17.6915 52.2732L21.2151 49.9215L21.2142 49.9206ZM30.6797 60.1971H30.6743C30.3306 60.1962 29.9905 60.1015 29.6911 59.9247L21.7013 55.1418C21.6634 55.1184 21.6345 55.0868 21.6147 55.0498C21.5957 55.0182 21.5858 54.9749 21.5885 54.9316C21.5885 54.8947 21.5994 54.855 21.6192 54.8198C21.6381 54.7864 21.6661 54.7584 21.6995 54.7377L25.4919 52.4672L29.231 54.6953C30.0014 55.1563 31.3563 55.094 32.253 54.5582L45.0031 46.9617C45.4532 46.6938 45.7112 46.3483 45.7112 46.0127C45.7112 45.7448 45.5407 45.4958 45.2304 45.3109L32.0266 37.442C31.2562 36.982 29.9012 37.0433 29.0019 37.5764L16.2545 45.1756C15.8044 45.4426 15.5464 45.789 15.5464 46.1237C15.5464 46.3916 15.716 46.6424 16.0272 46.8273L20.7171 49.6229L17.4209 51.8294C17.2459 51.9466 17.0438 52.0116 16.8381 52.017C16.6316 52.0224 16.425 51.9701 16.2455 51.8637L7.90299 46.8751C7.8642 46.8535 7.82993 46.8183 7.80648 46.775C7.78483 46.7371 7.77129 46.6893 7.77129 46.6424C7.77129 46.5946 7.78302 46.5504 7.80467 46.5098C7.82993 46.4647 7.8642 46.4313 7.9048 46.4078L30.438 32.6014C31.7244 31.8392 33.1208 31.758 34.1726 32.3813L54.8439 44.5676C54.9738 44.6443 55.0821 44.7543 55.1578 44.8851C55.2336 45.0195 55.2742 45.1693 55.2769 45.3199C55.2787 45.4733 55.2417 45.6248 55.1705 45.7574C55.0983 45.8928 54.9937 46.0055 54.8674 46.0849L31.6621 59.9292C31.3626 60.1033 31.0243 60.1953 30.6806 60.1953L30.6797 60.1971ZM21.8835 54.9434L29.83 59.692C30.0871 59.8444 30.3793 59.9256 30.6761 59.9265H30.6806C30.9756 59.9265 31.267 59.8471 31.525 59.6983L54.7257 45.8558C54.8105 45.8035 54.8827 45.725 54.9323 45.6312C54.9819 45.5382 55.0072 45.4327 55.0054 45.3253C55.0054 45.2198 54.9756 45.1143 54.9224 45.0213C54.87 44.9311 54.7952 44.8554 54.7068 44.8021L34.0355 32.6159C33.0712 32.0439 31.7767 32.1251 30.5778 32.8342L8.04282 46.6415L16.3844 51.6318C16.5197 51.7121 16.665 51.7554 16.8309 51.7473C16.987 51.7437 17.1394 51.6941 17.2721 51.6057L20.2128 49.6373L15.8892 47.0619C15.494 46.8255 15.2757 46.4926 15.2766 46.1246C15.2766 45.6925 15.5833 45.2613 16.1165 44.9438L28.8647 37.3446C29.8408 36.7655 31.3202 36.7059 32.1664 37.2102L45.3702 45.0791C45.7653 45.3154 45.9827 45.6465 45.9827 46.0145C45.9827 46.4466 45.676 46.8778 45.1429 47.1954L32.3928 54.7918C31.4213 55.3737 29.94 55.435 29.093 54.9289L25.4937 52.7838L21.8853 54.9434H21.8835ZM21.8438 54.9668L21.8402 54.9686L21.842 54.9713L21.8438 54.9668Z" fill="#155C6D"/>
<path d="M28.8232 44.2572L12.2861 34.4092C11.2713 33.8048 11.3985 32.7484 12.5712 32.0484L28.5354 22.535C29.7081 21.8368 31.4807 21.7601 32.4947 22.3663L49.0317 32.2144C50.0474 32.8179 49.9202 33.8742 48.7475 34.5734L32.7824 44.0877C31.6097 44.7868 29.8371 44.8634 28.8232 44.2572Z" fill="#70C5AD"/>
<path d="M30.5434 44.7994C29.8731 44.7994 29.2326 44.6596 28.7545 44.3736L12.2166 34.5255C11.7331 34.2369 11.4661 33.8318 11.4661 33.3844C11.4661 32.854 11.844 32.3254 12.5017 31.932L28.465 22.4187C29.6747 21.6988 31.5131 21.6221 32.564 22.2491L49.1011 32.0971C49.5855 32.3849 49.8525 32.7899 49.8525 33.2365C49.8525 33.766 49.4754 34.2955 48.8178 34.6888L32.8527 44.2031C32.1942 44.5964 31.3471 44.7976 30.5434 44.7976V44.7994ZM30.7761 22.0912C30.022 22.0912 29.2254 22.2815 28.6048 22.6514L12.6415 32.1648C12.0669 32.5076 11.7376 32.9523 11.7376 33.3844C11.7376 33.7326 11.9568 34.0546 12.3564 34.2928L28.8944 44.1409C29.8677 44.7236 31.5817 44.6469 32.7138 43.9713L48.6789 34.457C49.2544 34.1142 49.5837 33.6695 49.5828 33.2374C49.5828 32.8901 49.3627 32.568 48.963 32.3308L32.4251 22.4827C31.9858 22.2202 31.3949 22.0912 30.7761 22.0912Z" fill="#155C6D"/>
<path d="M12.2861 34.4092L28.8231 44.2573C29.838 44.8635 31.6106 44.7877 32.7824 44.0886L48.7475 34.5743C49.332 34.2261 49.6568 33.7877 49.7091 33.3619V39.202C49.7461 39.6837 49.4204 40.2096 48.7475 40.6128L32.7833 50.128C31.6106 50.8253 29.838 50.902 28.824 50.2967L12.287 40.4423C11.8008 40.1528 11.5788 39.7577 11.6077 39.3481V33.5026C11.6492 33.8427 11.8729 34.1638 12.2852 34.411L12.2861 34.4092Z" fill="#70C5AD"/>
<path d="M30.5436 50.8352C29.8733 50.8352 29.2337 50.6963 28.7556 50.4113L12.2186 40.5569C11.7044 40.2511 11.4401 39.8172 11.4744 39.3364V33.5008L11.7441 33.4845C11.7811 33.7958 11.9922 34.0745 12.3566 34.2928L28.8946 44.1409C29.8679 44.7236 31.5828 44.6469 32.714 43.9713L48.6791 34.457C49.2077 34.1413 49.5262 33.7461 49.5767 33.3438L49.8464 33.361V39.2011C49.8888 39.7513 49.5144 40.3115 48.818 40.7283L32.8547 50.2426C32.1953 50.635 31.3482 50.8352 30.5436 50.8352ZM11.7441 34.1304V39.3472C11.7171 39.7306 11.9345 40.0743 12.3575 40.3251L28.8946 50.1794C29.8688 50.7604 31.5837 50.6828 32.7149 50.0098L48.6782 40.4955C49.2736 40.1392 49.6091 39.6593 49.5749 39.2119V34.0276C49.399 34.2712 49.1428 34.4958 48.8171 34.6897L32.852 44.204C31.6432 44.9257 29.8057 45.0006 28.7538 44.3736L12.2159 34.5255C12.022 34.4092 11.8632 34.2766 11.7441 34.1304Z" fill="#155C6D"/>
<path d="M12.2861 34.4092L28.8232 44.2573C29.3112 44.5478 29.9733 44.6822 30.6607 44.665L30.6625 50.6973C29.976 50.7144 29.313 50.5827 28.825 50.2922L12.288 40.4397C11.8017 40.1492 11.5798 39.7541 11.6087 39.3454V33.5026C11.6502 33.8427 11.8739 34.1639 12.2861 34.411V34.4092Z" fill="#155C6D"/>
<path d="M30.5418 50.8344C29.849 50.8344 29.2193 50.6846 28.7556 50.4086L12.2186 40.556C11.7044 40.2484 11.4401 39.8154 11.4744 39.3355V33.5017L11.7441 33.4855C11.7811 33.7967 11.9922 34.0754 12.3566 34.2937L28.8946 44.1418C29.3429 44.4097 29.9753 44.545 30.6581 44.5306L30.7971 44.527L30.7989 50.829L30.6672 50.8326C30.6257 50.8335 30.5842 50.8344 30.5427 50.8344H30.5418ZM11.7441 34.1305V39.3445C11.7171 39.7261 11.9354 40.0707 12.3575 40.3224L28.8946 50.175C29.3131 50.4248 29.8896 50.561 30.5273 50.5628L30.5255 44.8012C29.8409 44.7994 29.2166 44.6488 28.7547 44.3727L12.2168 34.5247C12.0229 34.4083 11.8641 34.2757 11.745 34.1296L11.7441 34.1305Z" fill="#155C6D"/>
<path d="M47.7272 38.8719C47.8435 38.6635 47.9103 38.4316 47.9229 38.1917C47.9229 37.7524 47.6243 37.5747 47.2554 37.7948C47.0605 37.9256 46.899 38.1015 46.7827 38.309C46.6663 38.5164 46.5995 38.7492 46.5869 38.9891C46.5869 39.4284 46.8855 39.6053 47.2545 39.386C47.4493 39.2552 47.6108 39.0793 47.7262 38.8719H47.7272Z" fill="#70C5AD"/>
<path d="M46.955 39.6151C46.8702 39.6151 46.7917 39.5953 46.7204 39.5547C46.5472 39.4554 46.4507 39.2543 46.4507 38.9891C46.4651 38.7229 46.5382 38.4667 46.6636 38.243C46.789 38.0193 46.9667 37.8254 47.1778 37.6828C47.4024 37.5484 47.6171 37.5295 47.7876 37.626C47.9617 37.7252 48.0582 37.9264 48.0582 38.1925C48.0429 38.4622 47.9707 38.7103 47.8444 38.9385C47.7199 39.1623 47.5422 39.3562 47.3302 39.4996C47.1985 39.5772 47.0722 39.616 46.955 39.616V39.6151ZM47.5521 37.8353C47.4863 37.8353 47.4078 37.8605 47.3239 37.9111C47.1543 38.0256 47.0046 38.188 46.8999 38.3747C46.7944 38.5633 46.7321 38.778 46.7213 38.9954C46.7213 39.1505 46.77 39.2714 46.8539 39.3192C46.9324 39.3634 47.0551 39.3472 47.185 39.2696C47.3546 39.1541 47.5043 38.9927 47.6081 38.8059C47.7145 38.6138 47.7759 38.4054 47.7876 38.1844C47.7876 38.0292 47.738 37.9084 47.655 37.8605C47.6252 37.8434 47.5909 37.8353 47.5521 37.8353Z" fill="#155C6D"/>
<path d="M45.7655 39.4709C45.7529 39.7108 45.6861 39.9435 45.5706 40.151C45.4543 40.3584 45.2928 40.5343 45.098 40.6651C44.729 40.8843 44.4304 40.7075 44.4304 40.2682C44.443 40.0301 44.5098 39.7965 44.6262 39.5899C44.7425 39.3825 44.904 39.2057 45.098 39.0758C45.4669 38.8557 45.7655 39.0334 45.7655 39.4709Z" fill="#70C5AD"/>
<path d="M44.7973 40.8943C44.7125 40.8943 44.634 40.8744 44.5628 40.8338C44.3905 40.7355 44.2939 40.5343 44.2939 40.2682C44.3084 40.0021 44.3814 39.7468 44.5068 39.5231C44.6331 39.2976 44.8108 39.1036 45.0219 38.962C45.2447 38.8285 45.4594 38.8077 45.6299 38.9061C45.804 39.0044 45.9006 39.2056 45.9006 39.4717V39.4789C45.8861 39.7378 45.8131 39.9931 45.6877 40.2177C45.5614 40.4423 45.3837 40.6363 45.1735 40.7788C45.0418 40.8564 44.9146 40.8961 44.7973 40.8961V40.8943ZM45.3954 39.1154C45.3286 39.1154 45.2511 39.1406 45.1672 39.1902C44.9976 39.3039 44.8478 39.4654 44.7432 39.6539C44.6376 39.8424 44.5754 40.0562 44.5646 40.2745C44.5646 40.4297 44.6133 40.5506 44.6963 40.5984C44.7757 40.6444 44.8956 40.6263 45.0282 40.5488C45.1978 40.4342 45.3458 40.2718 45.4513 40.0842C45.556 39.8966 45.6182 39.6837 45.629 39.4672C45.629 39.3066 45.5803 39.1875 45.4973 39.1406C45.4676 39.1235 45.4333 39.1154 45.3954 39.1154Z" fill="#155C6D"/>
<path d="M43.6085 40.7571C43.5959 40.9953 43.5291 41.2289 43.4128 41.4355C43.2964 41.643 43.1349 41.8199 42.941 41.9507C42.572 42.1699 42.2734 41.9913 42.2734 41.5519C42.2861 41.3119 42.3528 41.0792 42.4692 40.8717C42.5856 40.6642 42.747 40.4882 42.941 40.3574C43.3099 40.1373 43.6085 40.3168 43.6085 40.7571Z" fill="#70C5AD"/>
<path d="M42.6405 42.1807C42.5557 42.1807 42.4772 42.1608 42.406 42.1202C42.2327 42.021 42.1362 41.8198 42.1362 41.5537C42.1507 41.2876 42.2237 41.0323 42.3491 40.8077C42.4745 40.584 42.6522 40.39 42.8633 40.2475C43.0897 40.1122 43.3044 40.095 43.4722 40.1907C43.6463 40.289 43.7428 40.4911 43.7428 40.7581V40.7653C43.7284 41.0233 43.6553 41.2786 43.53 41.5032C43.4037 41.7287 43.2259 41.9227 43.0158 42.0652C42.8841 42.1428 42.7578 42.1807 42.6405 42.1807ZM43.2377 40.3999C43.1709 40.3999 43.0933 40.4252 43.0094 40.4748C42.8398 40.5903 42.6901 40.7527 42.5855 40.9394C42.4799 41.1279 42.4177 41.3426 42.4068 41.56C42.4068 41.7161 42.4565 41.837 42.5395 41.8848C42.6197 41.9308 42.7379 41.9136 42.8705 41.8352C43.0401 41.7215 43.1881 41.5591 43.2936 41.3697C43.3982 41.182 43.4605 40.9692 43.4713 40.7536C43.4713 40.5921 43.4226 40.4721 43.3396 40.4243C43.3098 40.4072 43.2756 40.3999 43.2377 40.3999Z" fill="#155C6D"/>
<path d="M15.0051 32.6438C14.5162 33.1833 14.5874 33.8255 15.2613 34.227L29.1146 42.4847C29.9626 42.9916 31.4519 42.9267 32.4334 42.343L45.8122 34.3686C46.6566 33.8661 46.8523 33.14 46.3498 32.624L32.7852 40.7085C31.6125 41.4067 29.8399 41.4833 28.8259 40.8789L15.006 32.6429L15.0051 32.6438Z" fill="#155C6D"/>
<path d="M30.5543 42.9609C29.9887 42.9609 29.4475 42.8428 29.0443 42.6019L15.1918 34.3442C14.831 34.1286 14.6127 33.84 14.564 33.5098C14.5153 33.1896 14.637 32.8504 14.905 32.5536L14.9798 32.4715L28.8954 40.7644C29.8697 41.3444 31.5854 41.2686 32.7157 40.5939L46.3724 32.4553L46.4473 32.5319C46.6863 32.7764 46.791 33.0705 46.7504 33.3799C46.6962 33.7922 46.3877 34.1855 45.8817 34.4868L32.5037 42.4612C31.9472 42.7923 31.2336 42.9619 30.5552 42.9619L30.5543 42.9609ZM15.034 32.8197C14.868 33.0326 14.7976 33.2554 14.8301 33.4701C14.8671 33.7173 15.0394 33.9392 15.3298 34.1115L29.1823 42.3692C29.9905 42.8536 31.4185 42.7905 32.3621 42.2276L45.74 34.2531C46.1739 33.9951 46.4364 33.6722 46.4797 33.3438C46.5041 33.1508 46.45 32.9649 46.3201 32.799L32.8519 40.8257C31.6432 41.5456 29.8038 41.6223 28.7529 40.9962L15.0322 32.8188L15.034 32.8197Z" fill="#155C6D"/>
<path d="M28.8232 34.8467L12.2861 24.9987C11.2713 24.3925 11.3985 23.3379 12.5712 22.6397L28.5381 13.12C29.7108 12.4218 31.4834 12.3451 32.4974 12.9513L49.0344 22.8039C50.0501 23.4083 49.923 24.4655 48.7502 25.1628L32.786 34.6834C31.6097 35.3762 29.838 35.4529 28.8232 34.8467Z" fill="#70C5AD"/>
<path d="M30.5461 35.388C29.874 35.388 29.2317 35.2481 28.7545 34.9631L12.2166 25.115C11.7331 24.8254 11.4661 24.4204 11.4661 23.973C11.4661 23.4434 11.844 22.9148 12.5017 22.5233L28.4686 13.0036C29.6783 12.2837 31.5167 12.2071 32.5676 12.834L49.1047 22.6866C49.5891 22.9753 49.8561 23.3812 49.8561 23.8286C49.8561 24.3591 49.4781 24.8877 48.8205 25.2792L32.8572 34.7998C32.196 35.1886 31.3489 35.388 30.5461 35.388ZM30.7797 12.6762C30.0256 12.6762 29.229 12.8665 28.6084 13.2364L12.6415 22.7561C12.0669 23.0979 11.7376 23.5418 11.7376 23.9739C11.7376 24.3221 11.9568 24.645 12.3564 24.8832L28.8944 34.7312C29.8641 35.3122 31.5817 35.2373 32.7192 34.5671L48.6816 25.0474C49.2562 24.7064 49.5864 24.2616 49.5864 23.8295C49.5864 23.4813 49.3663 23.1584 48.9658 22.9202L32.4287 13.0677C31.9894 12.8052 31.3985 12.6762 30.7797 12.6762Z" fill="#155C6D"/>
<path d="M12.2861 24.9986L28.8232 34.8467C29.838 35.4529 31.6106 35.3762 32.787 34.6834L48.7511 25.1628C49.3249 24.8209 49.6487 24.3933 49.7101 23.9756V29.7851C49.747 30.2659 49.4214 30.7918 48.7484 31.195L32.7842 40.7093C31.6115 41.4075 29.8389 41.4842 28.825 40.8798L12.288 31.0245C11.8017 30.735 11.5798 30.3399 11.6087 29.9303V24.0902C11.6502 24.4303 11.8739 24.7514 12.2861 24.9986Z" fill="#70C5AD"/>
<path d="M30.5427 41.4202C29.8733 41.4202 29.2328 41.2813 28.7556 40.9962L12.2186 31.1409C11.7044 30.8351 11.4401 30.4012 11.4744 29.9204V24.0911L11.7441 24.0749C11.7802 24.3852 11.9922 24.6648 12.3566 24.8823L28.8946 34.7303C29.8625 35.3095 31.5792 35.2373 32.7194 34.5661L48.6818 25.0464C49.2005 24.7379 49.5189 24.3509 49.5767 23.9558L49.8464 23.9757V29.7851C49.8888 30.3345 49.5144 30.8947 48.818 31.3105L32.8547 40.8248C32.1953 41.2181 31.3473 41.4193 30.5436 41.4193L30.5427 41.4202ZM11.7441 24.7199V29.9303C11.7171 30.3137 11.9345 30.6574 12.3575 30.9082L28.8946 40.7635C29.8688 41.3435 31.5837 41.2677 32.7149 40.593L48.6782 31.0787C49.2736 30.7224 49.6091 30.2433 49.5749 29.7959V24.6216C49.3981 24.8633 49.1428 25.087 48.8198 25.2792L32.8565 34.7998C31.6405 35.5142 29.8012 35.5882 28.7538 34.9631L12.2159 25.115C12.022 24.9986 11.8632 24.866 11.7441 24.7199Z" fill="#155C6D"/>
<path d="M12.2861 24.9986L28.8232 34.8467C29.3103 35.1372 29.9733 35.2707 30.6607 35.2544L30.6625 41.2867C29.976 41.3038 29.313 41.1721 28.825 40.8817L12.288 31.0291C11.8017 30.7386 11.5798 30.3435 11.6087 29.9348V24.092C11.6502 24.4321 11.8739 24.7533 12.2861 25.0004V24.9986Z" fill="#155C6D"/>
<path d="M30.5445 41.4239C29.8508 41.4239 29.2193 41.2732 28.7556 40.9972L12.2186 31.1446C11.7044 30.837 11.4401 30.404 11.4744 29.9241V24.0912L11.7441 24.075C11.7811 24.3853 11.9922 24.6649 12.3566 24.8823L28.8946 34.7304C29.3411 34.9974 29.9753 35.1363 30.6581 35.1192L30.7971 35.1156L30.7989 41.4184L30.6672 41.4212C30.6266 41.4212 30.586 41.423 30.5454 41.423L30.5445 41.4239ZM11.7441 24.7199V29.934C11.7171 30.3156 11.9354 30.6602 12.3575 30.9119L28.8946 40.7644C29.3131 41.0143 29.8896 41.1505 30.5273 41.1523L30.5255 35.3907C29.8391 35.388 29.2148 35.2374 28.7547 34.9631L12.2168 25.1151C12.0229 24.9987 11.8641 24.8661 11.745 24.7199H11.7441Z" fill="#155C6D"/>
<path d="M43.6085 31.3421C43.5959 31.5803 43.5291 31.8139 43.4128 32.0205C43.2964 32.228 43.1349 32.4048 42.941 32.5347C42.572 32.7539 42.2734 32.5762 42.2734 32.1378C42.2861 31.8978 42.3528 31.6651 42.4692 31.4576C42.5856 31.2501 42.747 31.0742 42.9419 30.9434C43.3108 30.7233 43.6094 30.9019 43.6094 31.3421H43.6085Z" fill="#70C5AD"/>
<path d="M42.6396 32.7647C42.5557 32.7647 42.4763 32.7449 42.406 32.7043C42.2327 32.606 42.1362 32.4039 42.1362 32.1387C42.1507 31.8726 42.2237 31.6164 42.3491 31.3927C42.4754 31.1672 42.6531 30.9732 42.8633 30.8316C43.0897 30.6963 43.3044 30.68 43.4722 30.7747C43.6463 30.8731 43.7428 31.0751 43.7428 31.3422V31.3494C43.7284 31.6083 43.6553 31.8627 43.53 32.0873C43.4019 32.3146 43.2241 32.5086 43.0149 32.6484C42.8832 32.726 42.7569 32.7647 42.6396 32.7647ZM43.2377 30.9849C43.1709 30.9849 43.0933 31.0102 43.0094 31.0598C42.8398 31.1735 42.691 31.3358 42.5855 31.5244C42.4799 31.712 42.4177 31.9267 42.4068 32.145C42.4068 32.3002 42.4556 32.4211 42.5395 32.4689C42.6197 32.5149 42.7379 32.4968 42.8705 32.4193C43.0383 32.3074 43.1872 32.1459 43.2936 31.9556C43.3982 31.7679 43.4605 31.5551 43.4713 31.3395C43.4713 31.178 43.4226 31.058 43.3396 31.0102C43.3098 30.9931 43.2756 30.9849 43.2377 30.9849Z" fill="#155C6D"/>
<path d="M45.7655 30.063C45.7529 30.3011 45.6861 30.5347 45.5698 30.7413C45.4534 30.9488 45.2919 31.1256 45.098 31.2564C44.729 31.4756 44.4304 31.2979 44.4304 30.8577C44.443 30.6177 44.5098 30.385 44.6262 30.1775C44.7425 29.97 44.904 29.7941 45.098 29.6633C45.4669 29.4432 45.7655 29.6218 45.7655 30.0621V30.063Z" fill="#70C5AD"/>
<path d="M44.7973 31.4865C44.7134 31.4865 44.634 31.4666 44.5637 31.426C44.3905 31.3277 44.2939 31.1257 44.2939 30.8595C44.3084 30.5934 44.3814 30.3372 44.5068 30.1135C44.6322 29.8898 44.8108 29.6959 45.021 29.5533C45.2456 29.4189 45.4594 29.4 45.6299 29.4965C45.804 29.5948 45.9006 29.7969 45.9006 30.0639V30.0711C45.8861 30.3291 45.8131 30.5844 45.6877 30.809C45.5605 31.0354 45.3828 31.2294 45.1735 31.371C45.0418 31.4486 44.9146 31.4883 44.7973 31.4883V31.4865ZM45.3954 29.7049C45.3286 29.7049 45.2511 29.7301 45.1672 29.7806C44.9976 29.8952 44.8478 30.0576 44.7432 30.2443C44.6376 30.4329 44.5754 30.6476 44.5646 30.865C44.5646 31.021 44.6133 31.1419 44.6972 31.1897C44.7775 31.2357 44.8956 31.2177 45.0282 31.1401C45.1969 31.0264 45.3449 30.8641 45.4513 30.6746C45.556 30.487 45.6182 30.2741 45.629 30.0585C45.629 29.897 45.5803 29.777 45.4973 29.7292C45.4676 29.7121 45.4333 29.7049 45.3954 29.7049Z" fill="#155C6D"/>
<path d="M47.9229 28.782C47.9103 29.0219 47.8435 29.2547 47.7272 29.4621C47.6108 29.6696 47.4493 29.8455 47.2545 29.9763C46.8855 30.1955 46.5869 30.0187 46.5869 29.5794C46.5995 29.3395 46.6663 29.1067 46.7827 28.8992C46.899 28.6918 47.0605 28.5159 47.2545 28.3851C47.6234 28.1649 47.9229 28.3436 47.9229 28.782Z" fill="#70C5AD"/>
<path d="M46.954 30.2055C46.8702 30.2055 46.7908 30.1856 46.7204 30.145C46.5472 30.0467 46.4507 29.8455 46.4507 29.5794C46.4651 29.3151 46.5382 29.0598 46.6636 28.8334C46.7899 28.6088 46.9676 28.4157 47.1778 28.2723C47.4042 28.1379 47.618 28.1198 47.7885 28.2155C47.9617 28.3138 48.0582 28.5159 48.0582 28.782V28.7892C48.0429 29.0481 47.9698 29.3034 47.8453 29.5271C47.719 29.7526 47.5404 29.9457 47.3302 30.0882C47.1985 30.1658 47.0713 30.2055 46.954 30.2055ZM47.5521 28.4257C47.4863 28.4257 47.4078 28.4509 47.3239 28.5005C47.1543 28.6151 47.0046 28.7775 46.8999 28.9651C46.7944 29.1545 46.7321 29.3692 46.7213 29.5857C46.7213 29.7409 46.77 29.8618 46.8539 29.9096C46.9342 29.9556 47.0542 29.9366 47.185 29.86C47.3546 29.7454 47.5034 29.5839 47.609 29.3963C47.7127 29.2087 47.7749 28.9958 47.7867 28.7784C47.7867 28.6178 47.738 28.4978 47.655 28.4509C47.6252 28.4338 47.5909 28.4257 47.5521 28.4257Z" fill="#155C6D"/>
<path d="M12.2861 15.5881L28.8232 25.4362C29.3112 25.7266 29.9733 25.861 30.6607 25.8439L30.6625 31.8762C29.976 31.8933 29.313 31.7625 28.825 31.472L12.288 21.6176C11.8017 21.3272 11.5798 20.9321 11.6087 20.5234V14.6806C11.6502 15.0207 11.8739 15.3409 12.2861 15.5881Z" fill="#C8DAE8"/>
<path d="M30.5436 32.0133C29.849 32.0133 29.2175 31.8635 28.7556 31.5884L12.2186 21.7349C11.7044 21.4273 11.4401 20.9943 11.4744 20.5144V14.6806L11.7441 14.6644C11.7811 14.9756 11.9922 15.2543 12.3566 15.4726L28.8946 25.3207C29.3429 25.5886 29.9753 25.723 30.6581 25.7095L30.7971 25.7059L30.7989 32.0088L30.6672 32.0115C30.6257 32.0115 30.5851 32.0133 30.5445 32.0133H30.5436ZM11.7441 15.3094V20.5234C11.7171 20.905 11.9354 21.2496 12.3575 21.5013L28.8946 31.3547C29.3122 31.6037 29.8878 31.739 30.5273 31.7417L30.5255 25.9801C29.8409 25.9783 29.2166 25.8277 28.7547 25.5516L12.2168 15.7036C12.0229 15.5872 11.8641 15.4546 11.745 15.3085L11.7441 15.3094Z" fill="#155C6D"/>
<path d="M30.6606 25.8439L30.6624 31.8762C31.4049 31.8572 32.1761 31.6615 32.7851 31.2997L48.7493 21.7791C49.4222 21.3822 49.7479 20.8572 49.7109 20.3755V14.566C49.6495 14.9837 49.3257 15.4131 48.752 15.7541L32.7842 25.2684C32.1752 25.631 31.4049 25.8259 30.6624 25.8439H30.6606Z" fill="#70C5AD"/>
<path d="M30.5265 32.0151L30.5247 25.7122L30.6564 25.7095C31.4006 25.6906 32.1493 25.4876 32.7122 25.1529L48.68 15.6386C49.1987 15.3301 49.5172 14.9422 49.5749 14.5471L49.8446 14.567V20.3764C49.887 20.9285 49.5126 21.486 48.8153 21.8973L32.8529 31.4179C32.2404 31.7824 31.4637 31.9934 30.6645 32.0133L30.5256 32.0169L30.5265 32.0151ZM30.7962 25.9747L30.798 31.7355C31.4935 31.6967 32.1863 31.4982 32.7149 31.1834L48.6782 21.6628C49.2745 21.3119 49.6092 20.8347 49.5749 20.3854V15.212C49.3981 15.4537 49.1428 15.6774 48.8199 15.8696L32.852 25.3839C32.2747 25.7276 31.5494 25.9359 30.7962 25.9747Z" fill="#155C6D"/>
<path d="M11.606 20.592C11.606 20.5685 11.606 20.5469 11.6087 20.5234V20.5207C11.6069 20.5441 11.606 20.5694 11.606 20.592Z" fill="#155C6D"/>
<path d="M11.7415 20.592H11.47V20.5848C11.47 20.5604 11.4718 20.5352 11.4736 20.5108L11.7442 20.5216C11.7442 20.5216 11.7442 20.5288 11.7442 20.5325C11.7442 20.537 11.7442 20.5424 11.7442 20.5478C11.7442 20.564 11.7442 20.5767 11.7442 20.5884V20.592H11.7415Z" fill="#155C6D"/>
<path d="M15.2604 24.8173L29.1137 33.075C29.9617 33.581 31.451 33.517 32.4325 32.9324L45.8113 24.9589C46.6566 24.4537 46.8523 23.7267 46.3463 23.2116L32.7843 31.2997C32.1754 31.6623 31.4041 31.8581 30.6617 31.8761L30.6599 25.8439C31.4023 25.8249 32.1727 25.631 32.7816 25.2683L41.3343 20.1724L32.1935 14.7239C31.3428 14.2178 29.858 14.2818 28.8765 14.8655L15.4968 22.8399C14.5171 23.4245 14.4116 24.3094 15.2595 24.8173H15.2604Z" fill="#155C6D"/>
<path d="M30.5544 33.5504C29.9888 33.5504 29.4476 33.4322 29.0443 33.1923L15.1919 24.9337C14.7797 24.6874 14.5532 24.341 14.5532 23.9576C14.5532 23.5066 14.8726 23.0564 15.4292 22.7236L28.8089 14.7491C29.8291 14.1438 31.3789 14.0807 32.2648 14.6075L41.6004 20.1716L32.8538 25.3838C32.2765 25.7275 31.5512 25.935 30.798 25.9738L30.7998 31.7345C31.4953 31.6957 32.1881 31.4972 32.7167 31.1824L46.3707 23.0402L46.4455 23.116C46.6864 23.3604 46.7919 23.6545 46.7523 23.9639C46.6981 24.3771 46.3905 24.7713 45.8827 25.0744L32.5047 33.047C31.9481 33.3781 31.2346 33.5486 30.5562 33.5486L30.5544 33.5504ZM15.3308 24.7009L29.1832 32.9595C29.9915 33.443 31.4195 33.379 32.3631 32.817L45.741 24.8444C46.1758 24.5846 46.4383 24.2607 46.4807 23.9315C46.5051 23.7384 46.4501 23.5517 46.3184 23.3866L32.8529 31.417C32.2404 31.7814 31.4637 31.9925 30.6645 32.0123L30.5256 32.0159L30.5237 25.7131L30.6555 25.7104C31.3997 25.6914 32.1484 25.4885 32.7113 25.1538L41.0691 20.1734L32.1231 14.8411C31.3149 14.3585 29.8878 14.4226 28.946 14.9828L15.5663 22.9572C15.0936 23.2396 14.822 23.604 14.822 23.9585C14.822 24.2418 15.0025 24.5061 15.329 24.7018L15.3308 24.7009Z" fill="#155C6D"/>
<path d="M48.7474 14.5958L32.7832 24.1101C31.6105 24.8083 29.8379 24.8841 28.824 24.2788L12.2869 14.4289C12.0885 14.3153 11.9162 14.1565 11.7845 13.9652C11.4354 14.5435 11.5932 15.1686 12.2905 15.5881L28.8276 25.4362C29.8424 26.0424 31.615 25.9657 32.7868 25.2684L48.751 15.7523C49.6612 15.2047 49.9382 14.4515 49.5421 13.857C49.3401 14.1664 49.0668 14.419 48.7483 14.594L48.7474 14.5958Z" fill="#70C5AD"/>
<path d="M30.5472 25.9792C29.8769 25.9792 29.2364 25.8394 28.7583 25.5543L12.2213 15.7063C11.8559 15.4852 11.6115 15.1993 11.5168 14.8763C11.4229 14.557 11.4753 14.2187 11.6692 13.8976L11.7775 13.7181L11.8965 13.8904C12.0174 14.0645 12.1762 14.2106 12.3557 14.3134L28.8954 24.1642C29.8697 24.7451 31.5836 24.6694 32.7158 23.9946L48.6836 14.4776C48.9822 14.3134 49.2393 14.0744 49.4296 13.7857L49.5415 13.6143L49.6551 13.7839C49.8355 14.0554 49.8951 14.364 49.8247 14.6743C49.7264 15.1154 49.3691 15.5403 48.8207 15.8704L32.8574 25.3865C32.198 25.7789 31.3509 25.9792 30.5472 25.9792ZM11.8099 14.2169C11.7324 14.4145 11.7197 14.612 11.7757 14.7997C11.8514 15.0559 12.0535 15.2886 12.3593 15.4744L28.8963 25.3225C29.8697 25.9043 31.5836 25.8286 32.7167 25.1538L48.68 15.6386C49.1644 15.3472 49.4774 14.9837 49.5595 14.6156C49.5992 14.4415 49.5866 14.2746 49.5234 14.1141C49.3277 14.3585 49.0868 14.5642 48.8144 14.7131L32.8538 24.2264C31.645 24.9463 29.8065 25.0221 28.7547 24.396L12.2177 14.5471C12.0679 14.4614 11.929 14.3477 11.8099 14.2169Z" fill="#155C6D"/>
<path d="M49.5405 13.8534C49.4269 13.6856 49.2573 13.5259 49.0354 13.3933L32.4983 3.54072C31.4835 2.93452 29.7118 3.0112 28.5391 3.70941L12.5722 13.2291C11.3995 13.9273 11.2723 14.9828 12.2871 15.5881L28.8242 25.4361C29.1011 25.6021 29.4349 25.7167 29.7966 25.7816C29.4358 25.7158 29.1038 25.6021 28.8287 25.4379L12.2916 15.5899C11.5952 15.1704 11.4374 14.5453 11.7856 13.967C11.9173 14.1583 12.0896 14.317 12.288 14.4307L28.8251 24.2806C29.8399 24.885 31.6125 24.8101 32.7843 24.1119L48.7485 14.5976C49.067 14.4226 49.3385 14.1646 49.5405 13.8552V13.8534Z" fill="#C8DAE8"/>
<path d="M29.7722 25.9152H29.7704C29.3789 25.8448 29.0379 25.7231 28.7538 25.5535L12.2159 15.7054C11.7323 15.4158 11.4653 15.0099 11.4653 14.5634C11.4653 14.3054 11.5564 14.0474 11.7242 13.8056L11.7766 13.7181L11.7829 13.7262C11.957 13.5016 12.2005 13.2932 12.5018 13.1128L28.4687 3.59401C29.6793 2.87324 31.5169 2.79837 32.5669 3.42441L49.1048 13.277C49.3331 13.4132 49.5225 13.5864 49.6515 13.7767L49.7029 13.8516L49.6533 13.9265C49.4368 14.2585 49.1463 14.5309 48.8126 14.7131L32.8538 24.2256C31.645 24.9455 29.8065 25.0212 28.7547 24.3952L12.2177 14.5462C12.0679 14.4605 11.929 14.3478 11.8099 14.217C11.7323 14.4145 11.7197 14.6121 11.7756 14.7997C11.8514 15.0559 12.0535 15.2886 12.3593 15.4745L28.8963 25.3225C29.1507 25.4741 29.4619 25.5841 29.8201 25.65L29.7713 25.9161L29.7722 25.9152ZM11.947 13.9581C12.0589 14.1015 12.1987 14.2233 12.3548 14.3126L28.8945 24.1634C29.8688 24.7443 31.5827 24.6685 32.7149 23.9938L48.6782 14.4795C48.9506 14.3297 49.1878 14.1168 49.3737 13.857C49.2699 13.7271 49.1292 13.609 48.965 13.5106L32.4271 3.65805C31.4564 3.07621 29.7398 3.15108 28.6076 3.82765L12.6407 13.3464C12.3358 13.5278 12.1004 13.738 11.9461 13.9599L11.947 13.9581Z" fill="#155C6D"/>
<path d="M43.6085 21.9368C43.5959 22.175 43.5291 22.4087 43.4128 22.6153C43.2964 22.8228 43.1349 22.9996 42.941 23.1304C42.572 23.3479 42.2734 23.171 42.2734 22.7317C42.2861 22.4917 42.3528 22.2589 42.4692 22.0514C42.5856 21.8439 42.747 21.668 42.941 21.5372C43.3099 21.3171 43.6085 21.4966 43.6085 21.9368Z" fill="#70C5AD"/>
<path d="M42.6405 23.3596C42.5557 23.3596 42.4763 23.3388 42.405 23.2982C42.2327 23.199 42.1362 22.9978 42.1362 22.7326C42.1507 22.4665 42.2237 22.2103 42.3491 21.9866C42.4754 21.7611 42.6531 21.5671 42.8633 21.4255C43.0897 21.2902 43.3044 21.274 43.4722 21.3687C43.6463 21.467 43.7428 21.6691 43.7428 21.9361V21.9433C43.7284 22.2022 43.6553 22.4566 43.53 22.6812C43.4037 22.9067 43.2259 23.1007 43.0158 23.2432C42.8841 23.3208 42.7578 23.3596 42.6405 23.3596ZM43.2377 21.5789C43.1709 21.5789 43.0933 21.6041 43.0094 21.6537C42.8398 21.7674 42.691 21.9298 42.5855 22.1183C42.4799 22.3059 42.4177 22.5206 42.4068 22.7389C42.4068 22.8941 42.4556 23.015 42.5395 23.0628C42.6215 23.1097 42.7379 23.0917 42.8705 23.0141C43.0401 22.9004 43.1881 22.738 43.2936 22.5495C43.3982 22.3619 43.4605 22.149 43.4713 21.9334C43.4713 21.7719 43.4226 21.6519 43.3396 21.6041C43.3098 21.587 43.2756 21.5789 43.2377 21.5789Z" fill="#155C6D"/>
<path d="M45.7655 20.6524C45.7529 20.8906 45.6861 21.1242 45.5698 21.3308C45.4534 21.5383 45.2919 21.7151 45.098 21.8459C44.729 22.0651 44.4304 21.8874 44.4304 21.4472C44.443 21.2072 44.5098 20.9745 44.6262 20.767C44.7425 20.5595 44.904 20.3836 45.098 20.2528C45.4669 20.0327 45.7655 20.2113 45.7655 20.6515V20.6524Z" fill="#70C5AD"/>
<path d="M44.7982 22.075C44.7134 22.075 44.6349 22.0552 44.5637 22.0146C44.3905 21.9154 44.2939 21.7142 44.2939 21.4472C44.3084 21.1811 44.3814 20.9249 44.5068 20.7011C44.6331 20.4765 44.8108 20.2835 45.021 20.1401C45.2456 20.0056 45.4594 19.9867 45.6299 20.0832C45.804 20.1815 45.9006 20.3836 45.9006 20.6515V20.6588C45.8861 20.9176 45.8131 21.172 45.6877 21.3967C45.5596 21.6231 45.3819 21.817 45.1735 21.9587C45.0418 22.0362 44.9146 22.075 44.7982 22.075ZM45.3954 20.2943C45.3286 20.2943 45.2511 20.3196 45.1672 20.3701C44.9976 20.4846 44.8478 20.647 44.7432 20.8347C44.6376 21.0223 44.5754 21.237 44.5646 21.4553C44.5646 21.6114 44.6133 21.7322 44.6972 21.78C44.7793 21.826 44.8956 21.808 45.0282 21.7304C45.196 21.6177 45.3449 21.4544 45.4513 21.265C45.556 21.0773 45.6182 20.8644 45.629 20.6488C45.629 20.4874 45.5803 20.3674 45.4973 20.3196C45.4676 20.3024 45.4333 20.2943 45.3954 20.2943Z" fill="#155C6D"/>
<path d="M47.923 19.3723C47.9103 19.6123 47.8436 19.8441 47.7272 20.0525C47.6109 20.2599 47.4494 20.4359 47.2554 20.5667C46.8865 20.7859 46.5879 20.6082 46.5879 20.1679C46.6005 19.928 46.6673 19.6952 46.7836 19.4878C46.9 19.2803 47.0615 19.1044 47.2554 18.9736C47.6244 18.7535 47.923 18.9321 47.923 19.3723Z" fill="#70C5AD"/>
<path d="M46.955 20.7958C46.8702 20.7958 46.7917 20.776 46.7204 20.7354C46.5472 20.637 46.4507 20.435 46.4507 20.1689C46.4651 19.9045 46.5382 19.6493 46.6636 19.4228C46.789 19.1982 46.9667 19.0052 47.1778 18.8617C47.4024 18.7273 47.6171 18.7084 47.7876 18.8049C47.9617 18.9041 48.0582 19.1053 48.0582 19.3723V19.3795C48.0429 19.6411 47.9707 19.8892 47.8444 20.1174C47.719 20.3421 47.5413 20.536 47.3302 20.6785C47.1985 20.7561 47.0722 20.7958 46.955 20.7958ZM47.5521 19.0142C47.4863 19.0142 47.4078 19.0394 47.3239 19.09C47.1543 19.2045 47.0046 19.3669 46.8999 19.5536C46.7944 19.7431 46.7321 19.9587 46.7213 20.1743C46.7213 20.3303 46.77 20.4512 46.8539 20.499C46.9324 20.5432 47.0533 20.527 47.185 20.4494C47.3546 20.3348 47.5034 20.1734 47.6081 19.9857C47.7145 19.7954 47.7749 19.587 47.7867 19.3678C47.7867 19.2063 47.738 19.0864 47.6541 19.0394C47.6252 19.0223 47.5909 19.0142 47.5521 19.0142Z" fill="#155C6D"/>
<path d="M22.0512 14.7185L22.0728 14.7311C22.1071 14.7031 22.1423 14.677 22.1784 14.6526L29.6485 10.199C30.1979 9.87155 31.0269 9.83728 31.5014 10.1205L39.2169 14.7176C39.6545 14.3883 39.677 13.9508 39.2377 13.6928L31.4987 9.08223C31.0242 8.79807 30.1952 8.83416 29.6458 9.16071L22.1829 13.6143C21.6344 13.9418 21.5785 14.4352 22.0503 14.7194L22.0512 14.7185Z" fill="#155C6D"/>
<path d="M22.0836 14.8962L22.0024 14.8475L22.0511 14.7185L21.9816 14.8339C21.7336 14.6842 21.5964 14.4722 21.5964 14.2368C21.5964 13.9634 21.7859 13.6937 22.1142 13.4971L29.5763 9.04346C30.1744 8.68804 31.0503 8.65466 31.569 8.96498L39.3071 13.5755C39.5416 13.7136 39.6778 13.9111 39.6905 14.1312C39.7049 14.3775 39.5642 14.6238 39.2972 14.8249L39.225 14.879L39.1465 14.833L31.431 10.236C30.9944 9.97531 30.2249 10.0105 29.7179 10.3145L22.2477 14.7681C22.2189 14.787 22.1882 14.8105 22.1566 14.8358L22.0827 14.8953L22.0836 14.8962ZM30.6958 9.02361C30.3566 9.02361 29.9976 9.10931 29.7161 9.2762L22.2541 13.7298C22.0096 13.8768 21.868 14.0618 21.8671 14.2377C21.8671 14.3856 21.9654 14.4939 22.0655 14.566C22.0791 14.557 22.0917 14.548 22.1052 14.539L29.5799 10.0827C30.1726 9.72814 31.0467 9.69206 31.5717 10.0042L39.2051 14.5525C39.3504 14.4235 39.4289 14.2783 39.4207 14.1466C39.4117 13.9842 39.2791 13.8732 39.17 13.8083L31.431 9.19682C31.2352 9.08045 30.9727 9.02271 30.6967 9.02271L30.6958 9.02361Z" fill="#155C6D"/>
<path d="M22.0488 14.7176L29.7877 19.33C30.2622 19.6123 31.0931 19.578 31.6406 19.2497L39.1108 14.7979C39.6593 14.4713 39.7179 13.977 39.2434 13.6937L31.5044 9.08138C31.2888 8.95238 30.9993 8.89014 30.6971 8.89014C30.9983 8.89014 31.2852 8.95238 31.4999 9.08138L39.2389 13.6919C39.6773 13.9499 39.6557 14.3883 39.2181 14.7167L31.5026 10.1197C31.0272 9.83733 30.1991 9.8707 29.6497 10.1982L22.1796 14.6518C22.1426 14.6761 22.1074 14.7032 22.074 14.7302L22.0524 14.7176C21.5806 14.4335 21.6365 13.94 22.185 13.6126L25.2737 11.7696L22.1823 13.6126C21.6338 13.9391 21.5752 14.4325 22.0497 14.7167L22.0488 14.7176Z" fill="#70C5AD"/>
<path d="M30.5948 19.6574C30.2692 19.6574 29.9571 19.5879 29.718 19.4463L21.979 14.8339C21.7301 14.6842 21.592 14.4731 21.592 14.2376C21.592 13.9643 21.7815 13.6946 22.1107 13.4979L25.2031 11.6559L25.342 11.8886L25.3357 11.8913L22.2533 13.7307C22.0088 13.8777 21.8672 14.0626 21.8663 14.2385C21.8663 14.3865 21.9646 14.4947 22.0647 14.5669C22.0783 14.5579 22.0909 14.5489 22.1044 14.5398L29.5791 10.0835C30.1718 9.72901 31.0459 9.69293 31.5709 10.0051L39.2044 14.5534C39.3496 14.4244 39.4281 14.2791 39.42 14.1474C39.4109 13.9851 39.2783 13.8741 39.1692 13.8091L31.4302 9.19768C31.2452 9.08673 30.9846 9.02539 30.6968 9.02539V8.75476C31.0351 8.75476 31.3463 8.82963 31.5745 8.96495L39.3126 13.5773C39.5616 13.7262 39.6996 13.9372 39.6996 14.1727C39.6996 14.4469 39.5102 14.7166 39.1809 14.9133L31.7107 19.3651C31.3887 19.5581 30.9818 19.6565 30.5958 19.6565L30.5948 19.6574ZM22.3236 14.7239L29.8569 19.2135C30.2872 19.4697 31.073 19.4318 31.5709 19.1333L38.9671 14.7257L31.432 10.2369C30.9954 9.97618 30.2259 10.0114 29.7189 10.3154L22.3236 14.7239Z" fill="#155C6D"/>
<path d="M12.2861 15.5881L28.8232 25.4362C29.3112 25.7266 29.9733 25.861 30.6607 25.8439L30.6625 31.8762C29.976 31.8933 29.313 31.7625 28.825 31.472L12.288 21.6176C11.8017 21.3272 11.5798 20.9321 11.6087 20.5234V14.6806C11.6502 15.0207 11.8739 15.3409 12.2861 15.5881Z" fill="#155C6D"/>
<path d="M30.5436 32.0133C29.849 32.0133 29.2175 31.8635 28.7556 31.5884L12.2186 21.7349C11.7044 21.4273 11.4401 20.9943 11.4744 20.5144V14.6806L11.7441 14.6644C11.7811 14.9756 11.9922 15.2543 12.3566 15.4726L28.8946 25.3207C29.3429 25.5886 29.9753 25.723 30.6581 25.7095L30.7971 25.7059L30.7989 32.0088L30.6672 32.0115C30.6257 32.0115 30.5851 32.0133 30.5445 32.0133H30.5436ZM11.7441 15.3094V20.5234C11.7171 20.905 11.9354 21.2496 12.3575 21.5013L28.8946 31.3547C29.3122 31.6037 29.8878 31.739 30.5273 31.7417L30.5255 25.9801C29.8409 25.9783 29.2166 25.8277 28.7547 25.5516L12.2168 15.7036C12.0229 15.5872 11.8641 15.4546 11.745 15.3085L11.7441 15.3094Z" fill="#155C6D"/>
</svg>
