<svg width="64" height="64" viewBox="0 0 64 64" fill="none" xmlns="http://www.w3.org/2000/svg">
<path d="M41.675 60.8778C49.0375 60.8778 55.0052 59.23 55.0052 57.1931C55.0052 55.1562 49.0375 53.5084 41.675 53.5084C34.3124 53.5084 28.3447 55.1554 28.3447 57.1931C28.3447 59.2308 34.3124 60.8778 41.675 60.8778Z" fill="#155C6D"/>
<path d="M41.675 61.0001C34.1307 61.0001 28.2214 59.3278 28.2214 57.193C28.2214 55.0582 34.1307 53.386 41.675 53.386C49.2192 53.386 55.1285 55.0582 55.1285 57.193C55.1285 59.3278 49.2192 61.0001 41.675 61.0001ZM41.675 53.6307C34.5162 53.6307 28.4688 55.2622 28.4688 57.193C28.4688 59.1239 34.5162 60.7553 41.675 60.7553C48.8337 60.7553 54.881 59.1239 54.881 57.193C54.881 55.2622 48.8337 53.6307 41.675 53.6307Z" fill="#155C6D"/>
<path d="M27.0939 29.9217C26.7425 29.1363 27.9479 27.8597 29.7774 27.0411C31.607 26.2224 33.3109 26.2948 33.5392 27.0377C33.6161 27.2096 33.5959 27.2694 33.606 27.4197C33.6394 28.0442 33.1721 28.6864 32.7033 29.3192C32.1795 30.041 31.6583 30.7626 31.853 31.4449C31.9296 31.6161 32.428 32.8453 32.9216 34.0657C33.4238 34.3828 34.7382 34.5318 36.3894 34.7356C40.1471 35.1782 45.6244 35.8271 47.0302 38.9687C48.436 42.1104 45.0857 46.5361 39.6349 49.0728L39.4607 49.1508C33.9379 51.5244 28.4057 51.0742 27.0401 48.0224L26.9996 47.9318C25.545 44.6811 28.8208 40.062 31.0005 36.9737C31.9114 35.6879 32.6328 34.6722 32.7409 34.1355C32.1606 32.9539 31.5803 31.7724 31.5033 31.6004C31.161 30.963 30.2672 30.8746 29.355 30.7842C28.588 30.7155 27.5875 30.403 27.3342 30.2261C27.2054 30.1215 27.1303 30.0031 27.0939 29.9217Z" fill="#70C5AD"/>
<path d="M39.5127 49.2648C33.8422 51.7017 28.314 51.1779 26.9247 48.0731L26.8841 47.9825C25.4065 44.6804 28.6942 40.0219 30.8698 36.9391L30.8983 36.8997C31.7841 35.6482 32.4786 34.6693 32.6093 34.1501C32.0178 32.9478 31.4649 31.8213 31.389 31.6516C31.0836 31.0824 30.2427 30.9988 29.3523 30.9098C28.5846 30.8414 27.5476 30.5277 27.2629 30.328C27.0919 30.1889 27.0114 30.0461 26.9784 29.9724C26.5985 29.1233 27.8054 27.7843 29.7256 26.9251C31.0476 26.3335 32.4319 26.161 33.1709 26.4966C33.425 26.6114 33.5933 26.7858 33.6587 26.9998C33.7238 27.1412 33.725 27.2263 33.7276 27.3247C33.728 27.3503 33.7294 27.3782 33.7307 27.4099C33.7673 28.093 33.2545 28.784 32.8029 29.3934C32.3075 30.0758 31.7945 30.7827 31.9724 31.4089C32.0465 31.5702 32.5679 32.8592 33.0214 33.9777C33.4995 34.2512 34.6823 34.3965 36.1691 34.5789L36.4036 34.6085C40.1088 35.0451 45.7081 35.7049 47.1447 38.9156C48.5567 42.0711 45.2814 46.5821 39.6874 49.1857L39.5116 49.2644L39.5127 49.2648ZM32.8611 34.1775C32.7372 34.7407 32.0214 35.7502 31.1184 37.0251L31.0755 37.0857C28.9332 40.1214 25.6964 44.7082 27.1156 47.8798L27.1561 47.9704C28.4884 50.9478 33.8718 51.4157 39.4115 49.0346L39.5842 48.9573C45.0495 46.414 48.27 42.0482 46.9151 39.0202C45.5372 35.9407 40.0233 35.2907 36.3746 34.8611L36.1395 34.8318C34.5919 34.6415 33.3691 34.4911 32.8622 34.1779L32.8611 34.1775ZM29.8282 27.1565C28.067 27.9446 26.892 29.1615 27.2091 29.8701C27.2284 29.9131 27.2861 30.0236 27.4146 30.1274C27.6408 30.2851 28.6107 30.591 29.3669 30.6581C30.2937 30.7503 31.2418 30.8448 31.6148 31.5404C31.6769 31.6794 32.0428 32.427 32.4891 33.3358C32.1422 32.4802 31.7972 31.633 31.736 31.4963C31.5187 30.7347 32.0689 29.9771 32.5996 29.2457C33.0275 28.67 33.5107 28.0179 33.4792 27.4266C33.4766 27.3918 33.4756 27.3609 33.4757 27.3323C33.4734 27.2468 33.4724 27.1993 33.4233 27.0895C33.3733 26.9303 33.2555 26.8135 33.0661 26.7278C32.5037 26.4717 31.2839 26.5052 29.8282 27.1565Z" fill="#155C6D"/>
<path d="M47.3293 40.9588C47.5766 41.8019 47.6338 42.6112 47.529 43.3842C48.4667 41.6534 48.7057 39.9099 48.0392 38.4204C45.056 32.0831 38.8645 31.8192 35.2249 31.6592C33.7033 31.5927 32.6317 31.5516 32.4218 31.0825C32.2603 30.7217 32.9325 29.8247 33.8739 28.5576C36.0929 25.5595 39.8287 20.5392 37.6916 15.763C37.526 16.1301 37.3305 16.4986 37.1076 16.8693C37.8994 21.0339 35.337 25.085 33.5685 27.8916C33.5504 27.9108 33.5368 27.938 33.5235 27.9661C33.3699 28.4135 33.0357 28.8672 32.7027 29.3194C32.6748 29.3641 32.6464 29.41 32.6144 29.4455C32.156 30.2579 31.9118 30.8758 32.0736 31.2374C32.4048 31.9775 33.9616 32.4088 35.9778 32.969C38.4114 33.6465 41.5158 34.5113 43.9389 36.3205C45.3516 36.924 46.493 37.7678 47.0303 38.9686C47.309 39.5913 47.399 40.2559 47.3293 40.9588Z" fill="#155C6D"/>
<path d="M47.3121 44.0488L47.4039 43.3664C47.5087 42.5916 47.4429 41.7936 47.2079 40.9947L47.2036 40.946C47.2739 40.24 47.1789 39.6098 46.9151 39.0202C46.441 37.9607 45.4229 37.0921 43.8897 36.4374C41.4559 34.6247 38.4002 33.7741 35.9446 33.0907C33.8302 32.5026 32.314 32.0817 31.9591 31.2886C31.7946 30.9209 31.958 30.3511 32.5055 29.3836C32.5469 29.332 32.5687 29.2964 32.5918 29.2593C32.9281 28.802 33.2591 28.3516 33.4055 27.9249C33.4287 27.8759 33.4473 27.8371 33.478 27.8049C35.2871 24.9286 37.7646 20.9965 36.9841 16.8923L36.9748 16.8448L36.9996 16.8034C37.2217 16.4349 37.4164 16.0667 37.5774 15.71L37.6934 15.4544L37.8078 15.7101C39.968 20.5377 36.2311 25.5843 33.9981 28.6006L33.9377 28.6838C33.1166 29.7875 32.4088 30.7409 32.538 31.0296C32.7132 31.4212 33.7951 31.4687 35.1649 31.5294L35.2306 31.5322C38.9454 31.6955 45.1411 31.9667 48.1536 38.3655C48.816 39.8458 48.6378 41.6017 47.6405 43.444L47.3133 44.0493L47.3121 44.0488ZM47.4563 40.9463C47.6306 41.5501 47.7135 42.1535 47.7039 42.7475C48.4063 41.1892 48.4829 39.7211 47.9232 38.4705C44.977 32.2115 38.8771 31.9444 35.2322 31.7849L35.1541 31.7812C33.5833 31.7119 32.5457 31.6666 32.3069 31.133C32.1173 30.7092 32.7263 29.8893 33.7348 28.5332L33.7963 28.4504C35.9558 25.5333 39.5437 20.687 37.6865 16.0712C37.5544 16.3423 37.4048 16.6174 37.2405 16.8928C38.0103 21.0783 35.4124 25.2024 33.6908 27.9345L33.6607 27.9784C33.6552 27.9846 33.644 28.0071 33.637 28.0222C33.4841 28.4712 33.1414 28.9369 32.8088 29.388C32.7744 29.443 32.7434 29.491 32.7074 29.5301C32.4154 30.0533 32.0252 30.8205 32.1887 31.1859C32.4948 31.87 34.0388 32.2996 35.994 32.8429C38.4864 33.5364 41.5682 34.3939 44.0127 36.2202C45.5813 36.8858 46.6437 37.7981 47.1446 38.9175C47.4202 39.5332 47.5241 40.2165 47.4558 40.9474L47.4563 40.9463Z" fill="#155C6D"/>
<path d="M45.3906 44.8821C44.032 46.4649 42.0385 47.9531 39.6347 49.0721L39.4605 49.1501C33.9377 51.5236 28.4055 51.0734 27.0399 48.0216L26.9994 47.931C25.5448 44.6803 28.8206 40.0612 31.0003 36.973C31.9112 35.6872 32.6325 34.6715 32.7407 34.1347C32.1604 32.9532 31.5801 31.7717 31.5031 31.5997C31.1608 30.9623 30.267 30.8738 29.3548 30.7834C28.5878 30.7147 27.8075 30.641 27.334 30.2253C27.2067 30.1735 27.1301 30.0023 27.0937 29.9209C26.7422 29.1355 27.9476 27.859 29.7772 27.0403C31.6067 26.2217 33.3107 26.294 33.539 27.0369C33.551 27.0638 33.5671 27.0999 33.5795 27.1275C34.7449 24.9584 36.016 22.2122 35.4776 19.028C33.7424 20.9203 31.3163 22.6998 28.4165 23.9974C23.8875 26.0239 19.2551 26.4169 16.094 25.4254C18.2717 30.2922 24.3994 30.7902 28.0994 31.0853C29.7061 31.2225 30.8545 31.3158 31.028 31.7035C31.2383 32.1734 30.5579 33.0086 29.6022 34.1946C27.315 37.0279 23.4341 41.8311 26.2663 48.1604C27.8624 51.7274 34.0278 52.4251 40.0369 49.7362C41.7513 48.969 43.2685 48.0082 44.5222 46.9385C44.9326 46.2886 45.2309 45.6022 45.3903 44.8813L45.3906 44.8821Z" fill="#155C6D"/>
<path d="M40.0891 49.8528C34.0231 52.5672 27.77 51.8322 26.1509 48.2138C23.2885 41.8169 27.1775 36.999 29.501 34.121L29.5388 34.0737C30.4042 32.999 31.0871 32.1507 30.9112 31.7576C30.77 31.4421 29.5561 31.3384 28.1516 31.2186L28.0882 31.2129C24.3863 30.9176 18.1907 30.4243 15.9779 25.4792L15.8635 25.2235L16.1314 25.3073C19.4144 26.3364 24.1022 25.7914 28.364 23.8844C31.1287 22.6473 33.5548 20.9397 35.384 18.9445L35.5586 18.7539L35.6015 19.0084C36.1227 22.1008 34.9913 24.7679 33.6897 27.1887L33.5641 27.4227L33.4236 27.0903C33.3736 26.9311 33.2559 26.8143 33.0664 26.7286C32.504 26.4725 31.2842 26.506 29.8285 27.1573C28.0673 27.9454 26.8924 29.1623 27.2094 29.8709C27.2345 29.927 27.3015 30.0767 27.3814 30.1091L27.4181 30.1314C27.8651 30.5248 28.6283 30.5933 29.3665 30.6593C30.2932 30.7514 31.2413 30.846 31.6143 31.5416C31.693 31.7174 32.2571 32.8647 32.8536 34.0804L32.8727 34.1189L32.8648 34.1611C32.7504 34.7209 32.0306 35.7378 31.1176 37.0254L31.0747 37.0861C28.9324 40.1217 25.6956 44.7086 27.1148 47.8802L27.1553 47.9708C28.4876 50.9481 33.871 51.4161 39.4107 49.0349L39.5835 48.9576C41.8858 47.8859 43.9149 46.4094 45.295 44.8004L45.6227 44.4188L45.5143 44.9096C45.3577 45.6201 45.0597 46.3257 44.6295 47.0075L44.6045 47.0362C43.3031 48.1474 41.7827 49.095 40.0891 49.8528ZM16.3273 25.6278C18.5772 30.2006 24.5277 30.6756 28.1088 30.9603L28.1733 30.9665C29.8997 31.1136 30.941 31.2024 31.143 31.6539C31.3821 32.1882 30.7275 33.0008 29.7365 34.2312L29.701 34.2757C27.411 37.1129 23.5828 41.8548 26.382 48.1104C27.9445 51.6022 34.047 52.2809 39.9863 49.6233C41.6524 48.8778 43.1452 47.9472 44.4258 46.8572C44.7326 46.3689 44.9679 45.8673 45.13 45.3626C43.745 46.843 41.8336 48.1894 39.6876 49.1884L39.5118 49.267C33.8414 51.7039 28.3131 51.1801 26.9238 48.0753L26.8833 47.9847C25.4057 44.6826 28.6934 40.0241 30.869 36.9413L30.8974 36.9019C31.7832 35.6504 32.4777 34.6716 32.6084 34.1524C32.017 32.95 31.4641 31.8235 31.3881 31.6538C31.0828 31.0846 30.2418 31.0011 29.3515 30.912C28.5721 30.8424 27.7755 30.7714 27.266 30.3349C27.1044 30.258 27.0195 30.0683 26.9779 29.9755C26.598 29.1263 27.8049 27.7873 29.7251 26.9281C31.0471 26.3365 32.4314 26.164 33.1704 26.4996C33.358 26.5852 33.4998 26.7024 33.5866 26.845C34.7797 24.5917 35.7848 22.1239 35.391 19.3081C33.5608 21.2457 31.173 22.9049 28.4659 24.1162C24.2655 25.9957 19.6489 26.566 16.3265 25.6301L16.3273 25.6278Z" fill="#155C6D"/>
<path d="M31.9833 30.4429C31.8287 30.783 31.7582 31.1177 31.8519 31.4444C31.9285 31.6156 32.4269 32.8448 32.9205 34.0651C33.4226 34.3823 34.737 34.5313 36.3883 34.7351C37.1604 34.8236 38.006 34.9216 38.8754 35.0523C37.7715 34.4737 36.6742 34.0211 35.6881 33.6173C33.8694 32.86 32.4298 32.2685 32.0258 31.3656C31.9087 31.1038 31.9036 30.7919 31.983 30.4421L31.9833 30.4429Z" fill="#155C6D"/>
<path d="M39.5987 35.289L38.8576 35.1774C38.0137 35.05 37.2015 34.9546 36.375 34.86L36.1391 34.831C34.584 34.6404 33.356 34.4886 32.8538 34.1715L32.8201 34.1497L32.8036 34.1129C32.3851 33.0746 31.8168 31.6749 31.7367 31.496C31.6388 31.1537 31.6831 30.7975 31.8701 30.3895L32.3837 29.264L32.1079 30.4701C32.031 30.8068 32.0429 31.0908 32.1429 31.3142C32.5221 32.1618 33.9151 32.742 35.6803 33.4762L35.7391 33.5006C36.7125 33.9008 37.8173 34.3537 38.9367 34.9402L39.6002 35.2883L39.5987 35.289ZM33.0221 33.9792C33.5001 34.2528 34.6829 34.398 36.1698 34.5805L36.4042 34.6101C36.9819 34.6759 37.5525 34.7422 38.132 34.8202C37.26 34.3995 36.4098 34.0501 35.6413 33.7351L35.5814 33.7103C33.9982 33.0512 32.704 32.5126 32.1198 31.7632C32.323 32.2564 32.6903 33.1638 33.0205 33.9799L33.0221 33.9792Z" fill="#155C6D"/>
<path d="M26.8458 20.724C34.0128 17.5171 38.3235 11.5677 36.4731 7.43264C34.6228 3.29753 27.3102 2.53822 20.1433 5.74519C12.9763 8.95217 8.66562 14.9014 10.5201 19.0458C12.3745 23.1901 19.6789 23.931 26.8458 20.724Z" fill="#C8DAE8"/>
<path d="M26.8973 20.8392C19.6789 24.0692 12.2799 23.2877 10.4048 19.0973C8.52979 14.9069 12.8725 8.8604 20.0917 5.63006C27.3109 2.39973 34.7116 3.18503 36.589 7.38079C38.4665 11.5766 34.1165 17.6089 26.8973 20.8392ZM20.1944 5.8596C13.1035 9.03257 8.81517 14.9249 10.6356 18.9932C12.456 23.0615 19.7033 23.7818 26.7942 20.6089C33.8852 17.4359 38.176 11.5472 36.3576 7.48345C34.5392 3.41974 27.2861 2.6863 20.1944 5.8596Z" fill="#155C6D"/>
<path d="M31.0063 18.3418L32.4849 21.6462C37.0714 18.3481 39.3071 13.999 37.8645 10.7753L36.3859 7.47087C37.9513 10.7365 35.5895 15.0341 31.0063 18.3418Z" fill="#155C6D"/>
<path d="M32.4325 21.84L30.8488 18.3007L30.9323 18.2403C35.5432 14.9119 37.651 10.8292 36.3747 7.75865L36.2696 7.52372L36.4993 7.41724C36.5369 7.49717 36.5727 7.57703 36.6068 7.65756L37.9793 10.7247C39.4222 13.9493 37.2433 18.3798 32.5588 21.7494L32.4325 21.84ZM31.1634 18.3838L32.5369 21.4533C37.0359 18.1676 39.1279 13.9114 37.7482 10.8281L36.9642 9.07612C37.2674 12.0025 35.1502 15.4793 31.1634 18.3838Z" fill="#155C6D"/>
<path d="M36.5151 17.6975C34.8184 20.1043 31.9699 22.4082 28.3285 24.0376C21.1001 27.2721 13.8692 26.5306 11.9986 22.3502L10.52 19.0458C12.3504 23.1364 19.6174 23.9585 26.8458 20.724C28.3774 20.0387 29.7777 19.2388 31.0105 18.3509L32.485 21.6461C32.7723 21.4419 33.0494 21.2313 33.3189 21.0241C34.6207 19.9754 35.7012 18.8523 36.5151 17.6975Z" fill="#70C5AD"/>
<path d="M28.38 24.1528C21.0387 27.4378 13.7925 26.6681 11.8834 22.4017L10.4048 19.0973L10.6359 18.9939C12.4543 23.0576 19.7035 23.7826 26.7945 20.6096C28.3093 19.9318 29.7029 19.1377 30.9372 18.2491L31.0635 18.1585L32.538 21.4537C32.7793 21.2784 33.0139 21.1006 33.2421 20.9248C34.4784 19.9293 35.506 18.8733 36.2986 17.7842C36.3343 17.7342 36.3707 17.6838 36.4063 17.6337C36.408 17.6312 36.4103 17.6282 36.4127 17.6253L36.6181 17.7712C36.6181 17.7712 36.6164 17.7738 36.6152 17.7752C36.5763 17.8304 36.5359 17.8863 36.4955 17.9421C34.6956 20.4127 31.8218 22.6127 28.38 24.1528ZM11.2728 20.4173L12.1145 22.2983C13.9662 26.4365 21.0646 27.1497 28.2769 23.9225C29.7479 23.2642 31.1131 22.4847 32.3318 21.615L30.9573 18.5432C29.7415 19.4052 28.3759 20.1775 26.8972 20.8392C20.5164 23.6944 13.9954 23.4148 11.2728 20.4173Z" fill="#155C6D"/>
<path fill-rule="evenodd" clip-rule="evenodd" d="M47.5285 43.3835C46.832 44.4074 44.4489 47.0697 44.5223 46.9392C43.2689 48.0097 41.7514 48.9697 40.0371 49.7369C34.0279 52.4258 27.8621 51.7273 26.2664 48.1611C25.5353 46.5274 25.2483 44.9861 25.2731 43.567C23.8965 45.7541 23.4773 48.0011 24.3135 49.8698C26.1638 54.0049 33.4723 54.7551 40.6393 51.5481C47.8062 48.3411 52.1169 42.3918 50.2666 38.2567C49.4909 36.5231 47.7568 35.3806 45.48 34.8826C46.4608 35.7771 47.3359 36.9234 48.039 38.4186C48.7059 39.9088 48.4665 41.6515 47.5289 43.3823L47.5285 43.3835Z" fill="#C8DAE8"/>
<path d="M40.6905 51.6645C33.4721 54.8945 26.0732 54.113 24.1981 49.9226C23.3746 48.0823 23.7176 45.8011 25.1662 43.5008L25.4062 43.1188L25.3981 43.5702C25.3733 45.0695 25.7041 46.5976 26.3813 48.1109C27.9437 51.6026 34.0463 52.2814 39.9856 49.6237C41.6578 48.8755 43.1561 47.9406 44.4403 46.8443L44.4849 46.806C44.8056 46.4745 46.7928 44.2372 47.4203 43.3187C48.3761 41.5503 48.5497 39.8748 47.9221 38.4721C47.2649 37.0734 46.4371 35.9298 45.3929 34.978L45.0447 34.6611L45.5046 34.7622C47.888 35.2843 49.6194 36.5073 50.38 38.2071C52.255 42.3975 47.9074 48.4352 40.6882 51.6655L40.6905 51.6645ZM25.1497 44.0159C23.9438 46.1109 23.6858 48.1578 24.4288 49.8184C26.2472 53.8822 33.4965 54.6071 40.5875 51.4342C47.6784 48.2612 51.9692 42.3724 50.1508 38.3087C49.4617 36.7686 47.9994 35.6712 45.9054 35.1163C46.8068 36.0187 47.5619 37.1091 48.1529 38.366C48.8153 39.8462 48.6371 41.6021 47.6397 43.4445L47.6333 43.4547C47.2434 44.0291 46.3635 45.0632 45.8739 45.6288C45.0479 46.5835 44.7429 46.9274 44.6024 47.0335L44.6038 47.0366C43.3031 48.1475 41.7827 49.0951 40.0891 49.8529C34.0231 52.5673 27.7701 51.8323 26.1509 48.2139C25.5264 46.8182 25.1904 45.4084 25.1493 44.017L25.1497 44.0159Z" fill="#155C6D"/>
<path d="M44.8234 49.22L46.3209 52.5666C50.9492 49.2258 53.207 44.8337 51.75 41.5777L50.2563 38.2395C51.8383 41.5382 49.4513 45.8784 44.823 49.2192L44.8234 49.22Z" fill="#155C6D"/>
<path d="M46.2681 52.7597L44.6654 49.1781L44.749 49.1177C49.4072 45.7552 51.5365 41.6298 50.2454 38.5262L50.1403 38.2913L50.37 38.1848C50.4076 38.2647 50.4433 38.3446 50.4775 38.4251L51.8648 41.5253C53.32 44.7775 51.121 49.2557 46.3932 52.6687L46.267 52.7593L46.2681 52.7597ZM44.9804 49.2621L46.3724 52.373C50.9136 49.0454 53.0275 44.7416 51.6348 41.6292L50.8395 39.8518C51.1507 42.8105 49.0119 46.3256 44.9804 49.2621Z" fill="#155C6D"/>
<path d="M46.3733 52.5293L44.8679 49.165C43.6268 50.0466 42.2223 50.8492 40.686 51.5366C33.4338 54.7818 26.1421 53.9559 24.3059 49.8523L25.7897 53.1682C27.6664 57.3624 34.9206 58.1065 42.1735 54.861C44.1067 53.996 45.6076 53.0627 46.3733 52.5293Z" fill="#70C5AD"/>
<path d="M42.225 54.9761C34.8592 58.2721 27.5897 57.4999 25.6744 53.2197L24.1907 49.9038L24.4218 49.8004C26.2463 53.8779 33.5196 54.6051 40.6351 51.4211C42.1407 50.7474 43.54 49.9536 44.7959 49.0617L44.9217 48.9722L46.5326 52.5722L46.4468 52.6318C45.8957 53.0148 44.3828 54.0097 42.2254 54.975L42.225 54.9761ZM25.059 51.2265L25.9044 53.1159C27.7623 57.2679 34.8859 57.9837 42.1219 54.7458C44.1557 53.8358 45.6104 52.9001 46.2155 52.4856L44.8152 49.3562C43.5789 50.2218 42.2073 50.9931 40.7371 51.651C34.334 54.5162 27.7897 54.236 25.059 51.2265Z" fill="#155C6D"/>
<path d="M35.4695 18.9994C36.118 18.2863 36.6607 17.545 37.0959 16.8084C37.9221 20.9899 35.3449 25.0697 33.569 27.8906C32.5661 29.4775 31.8147 30.6587 32.0734 31.2368C32.4045 31.9769 33.9613 32.4082 35.9775 32.9684C39.6867 34.0067 44.9431 35.4696 46.9875 40.0385C47.5128 41.2124 47.6895 42.1303 47.5537 43.1715C47.4179 44.2128 44.2427 47.1724 44.2427 47.1724C45.7541 45.406 45.9877 43.4115 44.9333 41.0553C42.9456 36.6131 38.776 34.8916 35.6895 33.6179C33.8707 32.8606 32.4312 32.2691 32.0271 31.3662C31.6795 30.5893 32.3295 29.4101 33.1652 27.888C34.4163 25.616 36.0857 22.5819 35.4706 18.9999L35.4695 18.9994Z" fill="#C8DAE8"/>
<path d="M44.3294 47.2653L44.1471 47.0907C45.6265 45.3616 45.8461 43.4038 44.8185 41.1075C42.8504 36.7091 38.6836 34.9899 35.6419 33.734L35.5823 33.7099C33.7662 32.9543 32.3314 32.3569 31.9112 31.418C31.5395 30.5873 32.204 29.3767 33.0438 27.8454C34.2775 25.6043 35.954 22.5615 35.3455 19.0207L35.3357 18.9597L35.3771 18.9144C36.0006 18.23 36.5421 17.5002 36.9876 16.7452L37.1557 16.4599L37.2201 16.785C38.0535 21.0056 35.4272 25.1774 33.6882 27.9386L33.6571 27.9884C32.7083 29.4883 31.9594 30.6731 32.1889 31.1859C32.495 31.87 34.039 32.2996 35.9942 32.8429L36.0373 32.8549C39.8354 33.9189 45.0382 35.3753 47.1019 39.9872C47.6481 41.2079 47.8146 42.136 47.6783 43.1885C47.5385 44.2619 44.4592 47.1436 44.3283 47.2648L44.3294 47.2653ZM32.7136 31.9961C33.3627 32.5119 34.4284 32.9556 35.6797 33.4766L35.7385 33.5009C38.8202 34.7721 43.0402 36.5135 45.0496 41.0041C45.9109 42.9288 45.9294 44.628 45.0997 46.1613C46.1062 45.1405 47.3525 43.7535 47.4297 43.1559C47.5601 42.154 47.3986 41.2661 46.8727 40.0906C44.8571 35.5862 39.7213 34.1478 35.9708 33.0975L35.9619 32.9642L35.9277 33.0855C34.5514 32.7033 33.426 32.3896 32.7136 31.9961ZM35.6041 19.0386C36.1984 22.6401 34.5095 25.7069 33.2751 27.9483C33.0214 28.4111 32.7846 28.8414 32.5895 29.2374C32.8318 28.8212 33.1242 28.3586 33.4442 27.8524L33.4627 27.8238C35.1467 25.1499 37.6503 21.1731 37.0304 17.1601C36.6214 17.8112 36.1425 18.442 35.6041 19.0386Z" fill="#155C6D"/>
<path d="M50.0056 10.6919C54.2793 10.4543 54.4477 10.2822 54.6234 6.00488C54.861 10.2785 55.0331 10.4469 59.3104 10.6263C55.0368 10.8639 54.8684 11.036 54.6889 15.3133C54.4513 11.0397 54.2793 10.8713 50.0056 10.6919Z" fill="#70C5AD"/>
<path d="M54.5976 15.3182C54.3619 11.0881 54.2326 10.9613 50.0019 10.7837L50 10.6C54.2302 10.3649 54.3569 10.2357 54.5315 6.00121L54.7146 6C54.9503 10.2302 55.0795 10.3569 59.314 10.5345L59.3158 10.7182C55.0856 10.9534 54.9589 11.082 54.7807 15.317L54.5976 15.3182ZM51.4948 10.6815C53.9448 10.8737 54.4537 11.3753 54.6791 13.8241C54.8707 11.371 55.3729 10.8621 57.8205 10.6362C55.371 10.4445 54.8603 9.94297 54.6344 7.50088C54.4439 9.94786 53.9412 10.4561 51.4948 10.6815Z" fill="#155C6D"/>
<path d="M5.00684 49.9214C10.3997 49.6216 10.6121 49.4044 10.8339 44.007C11.1337 49.3998 11.3509 49.6123 16.7483 49.8379C11.3555 50.1385 11.143 50.3557 10.9166 55.7531C10.6168 50.3603 10.3997 50.1478 5.00684 49.9214Z" fill="#70C5AD"/>
<path d="M10.8016 55.7593C10.5041 50.4213 10.3411 50.2614 5.00231 50.0373L5 49.8055C10.338 49.5087 10.4979 49.3457 10.7182 44.0016L10.9492 44C11.2467 49.338 11.4098 49.4987 16.7531 49.722L16.7554 49.9538C11.4175 50.2513 11.2575 50.4136 11.0327 55.7578L10.8016 55.7593ZM6.88545 49.9082C9.97711 50.1509 10.6193 50.7837 10.9036 53.8739C11.1455 50.7783 11.7791 50.1362 14.8677 49.8511C11.7768 49.6092 11.1323 48.9771 10.8472 45.8947C10.6069 48.9825 9.97247 49.6246 6.88545 49.9082Z" fill="#155C6D"/>
</svg>
